MidiFile(type=1, ticks_per_beat=480, tracks=[
  MidiTrack([
    MetaMessage('track_name', name='Iron Man', time=0),
    MetaMessage('time_signature', numerator=4, denominator=4, clocks_per_click=24, notated_32nd_notes_per_beat=8, time=0),
    MetaMessage('key_signature', key='C', time=0),
    MetaMessage('set_tempo', tempo=705882, time=0),
    MetaMessage('set_tempo', tempo=666667, time=115200),
    MetaMessage('set_tempo', tempo=705882, time=23040),
    MetaMessage('end_of_track', time=0)]),
  MidiTrack([
    MetaMessage('track_name', name='Bass', time=0),
    Message('control_change', channel=0, control=0, value=121, time=0),
    Message('control_change', channel=0, control=7, value=110, time=0),
    Message('control_change', channel=0, control=10, value=64, time=0),
    Message('control_change', channel=0, control=91, value=8, time=0),
    Message('control_change', channel=0, control=93, value=8, time=0),
    Message('control_change', channel=0, control=32, value=0, time=0),
    Message('program_change', channel=0, program=33, time=1),
    Message('note_on', channel=0, note=30, velocity=75, time=3839),
    Message('note_on', channel=0, note=30, velocity=0, time=3840),
    Message('note_on', channel=0, note=30, velocity=75, time=0),
    Message('note_on', channel=0, note=30, velocity=0, time=3840),
    Message('note_on', channel=0, note=30, velocity=75, time=0),
    Message('note_on', channel=0, note=30, velocity=0, time=3840),
    Message('note_on', channel=0, note=30, velocity=75, time=0),
    Message('note_on', channel=0, note=40, velocity=100, time=3600),
    Message('pitchwheel', channel=0, pitch=-1365, time=60),
    Message('pitchwheel', channel=0, pitch=-2730, time=60),
    Message('pitchwheel', channel=0, pitch=-4095, time=60),
    Message('note_on', channel=0, note=40, velocity=0, time=60),
    Message('note_on', channel=0, note=30, velocity=0, time=0),
    Message('pitchwheel', channel=0, pitch=0, time=0),
    Message('note_on', channel=0, note=35, velocity=100, time=0),
    Message('note_on', channel=0, note=35, velocity=0, time=480),
    Message('note_on', channel=0, note=38, velocity=100, time=0),
    Message('pitchwheel', channel=0, pitch=1365, time=167),
    Message('pitchwheel', channel=0, pitch=0, time=60),
    Message('note_on', channel=0, note=38, velocity=0, time=253),
    Message('note_on', channel=0, note=38, velocity=100, time=0),
    Message('pitchwheel', channel=0, pitch=1365, time=180),
    Message('note_on', channel=0, note=38, velocity=0, time=60),
    Message('pitchwheel', channel=0, pitch=0, time=0),
    Message('note_on', channel=0, note=40, velocity=100, time=0),
    Message('note_on', channel=0, note=40, velocity=0, time=240),
    Message('note_on', channel=0, note=40, velocity=100, time=0),
    Message('note_on', channel=0, note=40, velocity=0, time=480),
    Message('note_on', channel=0, note=43, velocity=100, time=0),
    Message('note_on', channel=0, note=43, velocity=0, time=120),
    Message('note_on', channel=0, note=42, velocity=100, time=0),
    Message('note_on', channel=0, note=42, velocity=0, time=120),
    Message('note_on', channel=0, note=43, velocity=100, time=0),
    Message('note_on', channel=0, note=43, velocity=0, time=120),
    Message('note_on', channel=0, note=42, velocity=100, time=0),
    Message('note_on', channel=0, note=42, velocity=0, time=120),
    Message('note_on', channel=0, note=43, velocity=100, time=0),
    Message('note_on', channel=0, note=43, velocity=0, time=120),
    Message('note_on', channel=0, note=42, velocity=100, time=0),
    Message('pitchwheel', channel=0, pitch=1365, time=47),
    Message('pitchwheel', channel=0, pitch=0, time=60),
    Message('note_on', channel=0, note=42, velocity=0, time=13),
    Message('note_on', channel=0, note=38, velocity=100, time=0),
    Message('note_on', channel=0, note=38, velocity=0, time=234),
    Message('note_on', channel=0, note=38, velocity=100, time=6),
    Message('pitchwheel', channel=0, pitch=1365, time=180),
    Message('note_on', channel=0, note=38, velocity=0, time=60),
    Message('pitchwheel', channel=0, pitch=0, time=0),
    Message('note_on', channel=0, note=40, velocity=100, time=0),
    Message('note_on', channel=0, note=40, velocity=0, time=240),
    Message('note_on', channel=0, note=40, velocity=100, time=0),
    Message('note_on', channel=0, note=40, velocity=0, time=480),
    Message('pitchwheel', channel=0, pitch=0, time=0),
    Message('note_on', channel=0, note=35, velocity=100, time=0),
    Message('note_on', channel=0, note=35, velocity=0, time=480),
    Message('note_on', channel=0, note=38, velocity=100, time=0),
    Message('pitchwheel', channel=0, pitch=1365, time=167),
    Message('pitchwheel', channel=0, pitch=0, time=60),
    Message('note_on', channel=0, note=38, velocity=0, time=253),
    Message('note_on', channel=0, note=38, velocity=100, time=0),
    Message('pitchwheel', channel=0, pitch=1365, time=180),
    Message('note_on', channel=0, note=38, velocity=0, time=60),
    Message('pitchwheel', channel=0, pitch=0, time=0),
    Message('note_on', channel=0, note=40, velocity=100, time=0),
    Message('note_on', channel=0, note=40, velocity=0, time=240),
    Message('note_on', channel=0, note=40, velocity=100, time=0),
    Message('note_on', channel=0, note=40, velocity=0, time=480),
    Message('note_on', channel=0, note=43, velocity=100, time=0),
    Message('note_on', channel=0, note=43, velocity=0, time=120),
    Message('note_on', channel=0, note=42, velocity=100, time=0),
    Message('note_on', channel=0, note=42, velocity=0, time=120),
    Message('note_on', channel=0, note=43, velocity=100, time=0),
    Message('note_on', channel=0, note=43, velocity=0, time=120),
    Message('note_on', channel=0, note=42, velocity=100, time=0),
    Message('note_on', channel=0, note=42, velocity=0, time=120),
    Message('note_on', channel=0, note=43, velocity=100, time=0),
    Message('note_on', channel=0, note=43, velocity=0, time=120),
    Message('note_on', channel=0, note=42, velocity=100, time=0),
    Message('pitchwheel', channel=0, pitch=1365, time=47),
    Message('pitchwheel', channel=0, pitch=0, time=60),
    Message('note_on', channel=0, note=42, velocity=0, time=13),
    Message('note_on', channel=0, note=38, velocity=100, time=0),
    Message('note_on', channel=0, note=38, velocity=0, time=234),
    Message('note_on', channel=0, note=38, velocity=100, time=6),
    Message('pitchwheel', channel=0, pitch=1365, time=180),
    Message('note_on', channel=0, note=38, velocity=0, time=60),
    Message('pitchwheel', channel=0, pitch=0, time=0),
    Message('note_on', channel=0, note=40, velocity=100, time=0),
    Message('note_on', channel=0, note=40, velocity=0, time=240),
    Message('note_on', channel=0, note=40, velocity=100, time=0),
    Message('note_on', channel=0, note=40, velocity=0, time=480),
    Message('pitchwheel', channel=0, pitch=0, time=0),
    Message('note_on', channel=0, note=35, velocity=100, time=0),
    Message('note_on', channel=0, note=35, velocity=0, time=480),
    Message('note_on', channel=0, note=38, velocity=100, time=0),
    Message('pitchwheel', channel=0, pitch=1365, time=167),
    Message('pitchwheel', channel=0, pitch=0, time=60),
    Message('note_on', channel=0, note=38, velocity=0, time=253),
    Message('note_on', channel=0, note=38, velocity=100, time=0),
    Message('pitchwheel', channel=0, pitch=1365, time=180),
    Message('note_on', channel=0, note=38, velocity=0, time=60),
    Message('pitchwheel', channel=0, pitch=0, time=0),
    Message('note_on', channel=0, note=40, velocity=100, time=0),
    Message('note_on', channel=0, note=40, velocity=0, time=240),
    Message('note_on', channel=0, note=40, velocity=100, time=0),
    Message('note_on', channel=0, note=40, velocity=0, time=480),
    Message('note_on', channel=0, note=43, velocity=100, time=0),
    Message('note_on', channel=0, note=43, velocity=0, time=120),
    Message('note_on', channel=0, note=42, velocity=100, time=0),
    Message('note_on', channel=0, note=42, velocity=0, time=120),
    Message('note_on', channel=0, note=43, velocity=100, time=0),
    Message('note_on', channel=0, note=43, velocity=0, time=120),
    Message('note_on', channel=0, note=42, velocity=100, time=0),
    Message('note_on', channel=0, note=42, velocity=0, time=120),
    Message('note_on', channel=0, note=43, velocity=100, time=0),
    Message('note_on', channel=0, note=43, velocity=0, time=120),
    Message('note_on', channel=0, note=42, velocity=100, time=0),
    Message('pitchwheel', channel=0, pitch=1365, time=47),
    Message('pitchwheel', channel=0, pitch=0, time=60),
    Message('note_on', channel=0, note=42, velocity=0, time=13),
    Message('note_on', channel=0, note=38, velocity=100, time=0),
    Message('note_on', channel=0, note=38, velocity=0, time=234),
    Message('note_on', channel=0, note=38, velocity=100, time=6),
    Message('pitchwheel', channel=0, pitch=1365, time=180),
    Message('note_on', channel=0, note=38, velocity=0, time=60),
    Message('pitchwheel', channel=0, pitch=0, time=0),
    Message('note_on', channel=0, note=40, velocity=100, time=0),
    Message('note_on', channel=0, note=40, velocity=0, time=240),
    Message('note_on', channel=0, note=40, velocity=100, time=0),
    Message('note_on', channel=0, note=40, velocity=0, time=480),
    Message('pitchwheel', channel=0, pitch=0, time=0),
    Message('note_on', channel=0, note=35, velocity=100, time=0),
    Message('note_on', channel=0, note=35, velocity=0, time=480),
    Message('note_on', channel=0, note=38, velocity=100, time=0),
    Message('pitchwheel', channel=0, pitch=1365, time=167),
    Message('pitchwheel', channel=0, pitch=0, time=60),
    Message('note_on', channel=0, note=38, velocity=0, time=253),
    Message('note_on', channel=0, note=38, velocity=100, time=0),
    Message('pitchwheel', channel=0, pitch=1365, time=180),
    Message('note_on', channel=0, note=38, velocity=0, time=60),
    Message('pitchwheel', channel=0, pitch=0, time=0),
    Message('note_on', channel=0, note=40, velocity=100, time=0),
    Message('note_on', channel=0, note=40, velocity=0, time=240),
    Message('note_on', channel=0, note=40, velocity=100, time=0),
    Message('note_on', channel=0, note=40, velocity=0, time=480),
    Message('note_on', channel=0, note=43, velocity=100, time=0),
    Message('note_on', channel=0, note=43, velocity=0, time=120),
    Message('note_on', channel=0, note=42, velocity=100, time=0),
    Message('note_on', channel=0, note=42, velocity=0, time=120),
    Message('note_on', channel=0, note=43, velocity=100, time=0),
    Message('note_on', channel=0, note=43, velocity=0, time=120),
    Message('note_on', channel=0, note=42, velocity=100, time=0),
    Message('note_on', channel=0, note=42, velocity=0, time=120),
    Message('note_on', channel=0, note=43, velocity=100, time=0),
    Message('note_on', channel=0, note=43, velocity=0, time=120),
    Message('note_on', channel=0, note=42, velocity=100, time=0),
    Message('pitchwheel', channel=0, pitch=1365, time=47),
    Message('pitchwheel', channel=0, pitch=0, time=60),
    Message('note_on', channel=0, note=42, velocity=0, time=13),
    Message('note_on', channel=0, note=38, velocity=100, time=0),
    Message('note_on', channel=0, note=38, velocity=0, time=234),
    Message('note_on', channel=0, note=38, velocity=100, time=6),
    Message('pitchwheel', channel=0, pitch=1365, time=180),
    Message('note_on', channel=0, note=38, velocity=0, time=60),
    Message('pitchwheel', channel=0, pitch=0, time=0),
    Message('note_on', channel=0, note=40, velocity=100, time=0),
    Message('note_on', channel=0, note=40, velocity=0, time=240),
    Message('note_on', channel=0, note=40, velocity=100, time=0),
    Message('note_on', channel=0, note=40, velocity=0, time=480),
    Message('pitchwheel', channel=0, pitch=0, time=0),
    Message('note_on', channel=0, note=35, velocity=100, time=0),
    Message('note_on', channel=0, note=35, velocity=0, time=480),
    Message('note_on', channel=0, note=38, velocity=100, time=0),
    Message('pitchwheel', channel=0, pitch=1365, time=167),
    Message('pitchwheel', channel=0, pitch=0, time=60),
    Message('note_on', channel=0, note=38, velocity=0, time=253),
    Message('note_on', channel=0, note=38, velocity=100, time=0),
    Message('pitchwheel', channel=0, pitch=1365, time=180),
    Message('note_on', channel=0, note=38, velocity=0, time=60),
    Message('pitchwheel', channel=0, pitch=0, time=0),
    Message('note_on', channel=0, note=40, velocity=100, time=0),
    Message('note_on', channel=0, note=40, velocity=0, time=240),
    Message('note_on', channel=0, note=40, velocity=100, time=0),
    Message('note_on', channel=0, note=40, velocity=0, time=480),
    Message('note_on', channel=0, note=43, velocity=100, time=0),
    Message('note_on', channel=0, note=43, velocity=0, time=120),
    Message('note_on', channel=0, note=42, velocity=100, time=0),
    Message('note_on', channel=0, note=42, velocity=0, time=120),
    Message('note_on', channel=0, note=43, velocity=100, time=0),
    Message('note_on', channel=0, note=43, velocity=0, time=120),
    Message('note_on', channel=0, note=42, velocity=100, time=0),
    Message('note_on', channel=0, note=42, velocity=0, time=120),
    Message('note_on', channel=0, note=43, velocity=100, time=0),
    Message('note_on', channel=0, note=43, velocity=0, time=120),
    Message('note_on', channel=0, note=42, velocity=100, time=0),
    Message('pitchwheel', channel=0, pitch=1365, time=47),
    Message('pitchwheel', channel=0, pitch=0, time=60),
    Message('note_on', channel=0, note=42, velocity=0, time=13),
    Message('note_on', channel=0, note=38, velocity=100, time=0),
    Message('note_on', channel=0, note=38, velocity=0, time=234),
    Message('note_on', channel=0, note=38, velocity=100, time=6),
    Message('pitchwheel', channel=0, pitch=1365, time=180),
    Message('note_on', channel=0, note=38, velocity=0, time=60),
    Message('pitchwheel', channel=0, pitch=0, time=0),
    Message('note_on', channel=0, note=40, velocity=100, time=0),
    Message('note_on', channel=0, note=40, velocity=0, time=240),
    Message('note_on', channel=0, note=40, velocity=100, time=0),
    Message('note_on', channel=0, note=40, velocity=0, time=480),
    Message('pitchwheel', channel=0, pitch=0, time=0),
    Message('note_on', channel=0, note=35, velocity=100, time=0),
    Message('note_on', channel=0, note=35, velocity=0, time=480),
    Message('note_on', channel=0, note=38, velocity=100, time=0),
    Message('pitchwheel', channel=0, pitch=1365, time=167),
    Message('pitchwheel', channel=0, pitch=0, time=60),
    Message('note_on', channel=0, note=38, velocity=0, time=253),
    Message('note_on', channel=0, note=38, velocity=100, time=0),
    Message('pitchwheel', channel=0, pitch=1365, time=180),
    Message('note_on', channel=0, note=38, velocity=0, time=60),
    Message('pitchwheel', channel=0, pitch=0, time=0),
    Message('note_on', channel=0, note=40, velocity=100, time=0),
    Message('note_on', channel=0, note=40, velocity=0, time=240),
    Message('note_on', channel=0, note=40, velocity=100, time=0),
    Message('note_on', channel=0, note=40, velocity=0, time=480),
    Message('note_on', channel=0, note=43, velocity=100, time=0),
    Message('note_on', channel=0, note=43, velocity=0, time=120),
    Message('note_on', channel=0, note=42, velocity=100, time=0),
    Message('note_on', channel=0, note=42, velocity=0, time=120),
    Message('note_on', channel=0, note=43, velocity=100, time=0),
    Message('note_on', channel=0, note=43, velocity=0, time=120),
    Message('note_on', channel=0, note=42, velocity=100, time=0),
    Message('note_on', channel=0, note=42, velocity=0, time=120),
    Message('note_on', channel=0, note=43, velocity=100, time=0),
    Message('note_on', channel=0, note=43, velocity=0, time=120),
    Message('note_on', channel=0, note=42, velocity=100, time=0),
    Message('pitchwheel', channel=0, pitch=1365, time=47),
    Message('pitchwheel', channel=0, pitch=0, time=60),
    Message('note_on', channel=0, note=42, velocity=0, time=13),
    Message('note_on', channel=0, note=38, velocity=100, time=0),
    Message('note_on', channel=0, note=38, velocity=0, time=234),
    Message('note_on', channel=0, note=38, velocity=100, time=6),
    Message('pitchwheel', channel=0, pitch=1365, time=180),
    Message('note_on', channel=0, note=38, velocity=0, time=60),
    Message('pitchwheel', channel=0, pitch=0, time=0),
    Message('note_on', channel=0, note=40, velocity=100, time=0),
    Message('note_on', channel=0, note=40, velocity=0, time=240),
    Message('note_on', channel=0, note=40, velocity=100, time=0),
    Message('note_on', channel=0, note=40, velocity=0, time=480),
    Message('note_on', channel=0, note=35, velocity=100, time=0),
    Message('note_on', channel=0, note=35, velocity=0, time=240),
    Message('note_on', channel=0, note=35, velocity=100, time=0),
    Message('note_on', channel=0, note=35, velocity=0, time=480),
    Message('note_on', channel=0, note=38, velocity=100, time=0),
    Message('note_on', channel=0, note=38, velocity=0, time=480),
    Message('note_on', channel=0, note=35, velocity=100, time=0),
    Message('note_on', channel=0, note=35, velocity=0, time=240),
    Message('note_on', channel=0, note=35, velocity=100, time=0),
    Message('note_on', channel=0, note=35, velocity=0, time=240),
    Message('note_on', channel=0, note=34, velocity=100, time=0),
    Message('note_on', channel=0, note=34, velocity=0, time=240),
    Message('note_on', channel=0, note=33, velocity=100, time=0),
    Message('note_on', channel=0, note=33, velocity=0, time=240),
    Message('note_on', channel=0, note=33, velocity=100, time=0),
    Message('note_on', channel=0, note=33, velocity=0, time=240),
    Message('note_on', channel=0, note=33, velocity=100, time=0),
    Message('note_on', channel=0, note=33, velocity=0, time=60),
    Message('note_on', channel=0, note=33, velocity=100, time=60),
    Message('note_on', channel=0, note=33, velocity=0, time=60),
    Message('note_on', channel=0, note=33, velocity=100, time=60),
    Message('note_on', channel=0, note=33, velocity=0, time=60),
    Message('note_on', channel=0, note=32, velocity=100, time=60),
    Message('note_on', channel=0, note=32, velocity=0, time=120),
    Message('note_on', channel=0, note=32, velocity=100, time=0),
    Message('note_on', channel=0, note=32, velocity=0, time=120),
    Message('note_on', channel=0, note=33, velocity=100, time=0),
    Message('note_on', channel=0, note=33, velocity=0, time=120),
    Message('note_on', channel=0, note=33, velocity=100, time=0),
    Message('note_on', channel=0, note=33, velocity=0, time=240),
    Message('note_on', channel=0, note=33, velocity=100, time=0),
    Message('note_on', channel=0, note=33, velocity=0, time=240),
    Message('note_on', channel=0, note=34, velocity=100, time=0),
    Message('note_on', channel=0, note=34, velocity=0, time=240),
    Message('note_on', channel=0, note=35, velocity=100, time=0),
    Message('note_on', channel=0, note=35, velocity=0, time=240),
    Message('note_on', channel=0, note=35, velocity=100, time=0),
    Message('note_on', channel=0, note=35, velocity=0, time=480),
    Message('note_on', channel=0, note=38, velocity=100, time=0),
    Message('note_on', channel=0, note=38, velocity=0, time=480),
    Message('note_on', channel=0, note=35, velocity=100, time=0),
    Message('note_on', channel=0, note=35, velocity=0, time=240),
    Message('note_on', channel=0, note=35, velocity=100, time=0),
    Message('note_on', channel=0, note=35, velocity=0, time=240),
    Message('note_on', channel=0, note=34, velocity=100, time=0),
    Message('note_on', channel=0, note=34, velocity=0, time=240),
    Message('note_on', channel=0, note=33, velocity=100, time=0),
    Message('note_on', channel=0, note=33, velocity=0, time=240),
    Message('note_on', channel=0, note=33, velocity=100, time=0),
    Message('note_on', channel=0, note=33, velocity=0, time=240),
    Message('note_on', channel=0, note=33, velocity=100, time=0),
    Message('note_on', channel=0, note=33, velocity=0, time=60),
    Message('note_on', channel=0, note=33, velocity=100, time=60),
    Message('note_on', channel=0, note=33, velocity=0, time=60),
    Message('note_on', channel=0, note=33, velocity=100, time=60),
    Message('note_on', channel=0, note=33, velocity=0, time=60),
    Message('note_on', channel=0, note=32, velocity=100, time=60),
    Message('note_on', channel=0, note=32, velocity=0, time=120),
    Message('note_on', channel=0, note=32, velocity=100, time=0),
    Message('note_on', channel=0, note=32, velocity=0, time=120),
    Message('note_on', channel=0, note=33, velocity=100, time=0),
    Message('note_on', channel=0, note=33, velocity=0, time=120),
    Message('note_on', channel=0, note=33, velocity=100, time=0),
    Message('note_on', channel=0, note=33, velocity=0, time=240),
    Message('note_on', channel=0, note=33, velocity=100, time=0),
    Message('note_on', channel=0, note=33, velocity=0, time=240),
    Message('note_on', channel=0, note=34, velocity=100, time=0),
    Message('note_on', channel=0, note=34, velocity=0, time=240),
    Message('note_on', channel=0, note=35, velocity=100, time=0),
    Message('note_on', channel=0, note=35, velocity=0, time=240),
    Message('note_on', channel=0, note=35, velocity=100, time=0),
    Message('note_on', channel=0, note=35, velocity=0, time=480),
    Message('note_on', channel=0, note=38, velocity=100, time=0),
    Message('note_on', channel=0, note=38, velocity=0, time=480),
    Message('note_on', channel=0, note=35, velocity=100, time=0),
    Message('note_on', channel=0, note=35, velocity=0, time=240),
    Message('note_on', channel=0, note=35, velocity=100, time=0),
    Message('note_on', channel=0, note=35, velocity=0, time=240),
    Message('note_on', channel=0, note=34, velocity=100, time=0),
    Message('note_on', channel=0, note=34, velocity=0, time=240),
    Message('note_on', channel=0, note=33, velocity=100, time=0),
    Message('note_on', channel=0, note=33, velocity=0, time=240),
    Message('note_on', channel=0, note=33, velocity=100, time=0),
    Message('note_on', channel=0, note=33, velocity=0, time=240),
    Message('note_on', channel=0, note=33, velocity=100, time=0),
    Message('note_on', channel=0, note=33, velocity=0, time=240),
    Message('pitchwheel', channel=0, pitch=0, time=1200),
    Message('note_on', channel=0, note=35, velocity=100, time=0),
    Message('note_on', channel=0, note=35, velocity=0, time=480),
    Message('note_on', channel=0, note=38, velocity=100, time=0),
    Message('pitchwheel', channel=0, pitch=1365, time=167),
    Message('pitchwheel', channel=0, pitch=0, time=60),
    Message('note_on', channel=0, note=38, velocity=0, time=253),
    Message('note_on', channel=0, note=38, velocity=100, time=0),
    Message('pitchwheel', channel=0, pitch=1365, time=180),
    Message('note_on', channel=0, note=38, velocity=0, time=60),
    Message('pitchwheel', channel=0, pitch=0, time=0),
    Message('note_on', channel=0, note=40, velocity=100, time=0),
    Message('note_on', channel=0, note=40, velocity=0, time=240),
    Message('note_on', channel=0, note=40, velocity=100, time=0),
    Message('note_on', channel=0, note=40, velocity=0, time=480),
    Message('note_on', channel=0, note=43, velocity=100, time=0),
    Message('note_on', channel=0, note=43, velocity=0, time=120),
    Message('note_on', channel=0, note=42, velocity=100, time=0),
    Message('note_on', channel=0, note=42, velocity=0, time=120),
    Message('note_on', channel=0, note=43, velocity=100, time=0),
    Message('note_on', channel=0, note=43, velocity=0, time=120),
    Message('note_on', channel=0, note=42, velocity=100, time=0),
    Message('note_on', channel=0, note=42, velocity=0, time=120),
    Message('note_on', channel=0, note=43, velocity=100, time=0),
    Message('note_on', channel=0, note=43, velocity=0, time=120),
    Message('note_on', channel=0, note=42, velocity=100, time=0),
    Message('pitchwheel', channel=0, pitch=1365, time=47),
    Message('pitchwheel', channel=0, pitch=0, time=60),
    Message('note_on', channel=0, note=42, velocity=0, time=13),
    Message('note_on', channel=0, note=38, velocity=100, time=0),
    Message('note_on', channel=0, note=38, velocity=0, time=234),
    Message('note_on', channel=0, note=38, velocity=100, time=6),
    Message('pitchwheel', channel=0, pitch=1365, time=180),
    Message('note_on', channel=0, note=38, velocity=0, time=60),
    Message('pitchwheel', channel=0, pitch=0, time=0),
    Message('note_on', channel=0, note=40, velocity=100, time=0),
    Message('note_on', channel=0, note=40, velocity=0, time=240),
    Message('note_on', channel=0, note=40, velocity=100, time=0),
    Message('note_on', channel=0, note=40, velocity=0, time=480),
    Message('pitchwheel', channel=0, pitch=0, time=0),
    Message('note_on', channel=0, note=35, velocity=100, time=0),
    Message('note_on', channel=0, note=35, velocity=0, time=480),
    Message('note_on', channel=0, note=38, velocity=100, time=0),
    Message('pitchwheel', channel=0, pitch=1365, time=167),
    Message('pitchwheel', channel=0, pitch=0, time=60),
    Message('note_on', channel=0, note=38, velocity=0, time=253),
    Message('note_on', channel=0, note=38, velocity=100, time=0),
    Message('pitchwheel', channel=0, pitch=1365, time=180),
    Message('note_on', channel=0, note=38, velocity=0, time=60),
    Message('pitchwheel', channel=0, pitch=0, time=0),
    Message('note_on', channel=0, note=40, velocity=100, time=0),
    Message('note_on', channel=0, note=40, velocity=0, time=240),
    Message('note_on', channel=0, note=40, velocity=100, time=0),
    Message('note_on', channel=0, note=40, velocity=0, time=480),
    Message('note_on', channel=0, note=43, velocity=100, time=0),
    Message('note_on', channel=0, note=43, velocity=0, time=120),
    Message('note_on', channel=0, note=42, velocity=100, time=0),
    Message('note_on', channel=0, note=42, velocity=0, time=120),
    Message('note_on', channel=0, note=43, velocity=100, time=0),
    Message('note_on', channel=0, note=43, velocity=0, time=120),
    Message('note_on', channel=0, note=42, velocity=100, time=0),
    Message('note_on', channel=0, note=42, velocity=0, time=120),
    Message('note_on', channel=0, note=43, velocity=100, time=0),
    Message('note_on', channel=0, note=43, velocity=0, time=120),
    Message('note_on', channel=0, note=42, velocity=100, time=0),
    Message('pitchwheel', channel=0, pitch=1365, time=47),
    Message('pitchwheel', channel=0, pitch=0, time=60),
    Message('note_on', channel=0, note=42, velocity=0, time=13),
    Message('note_on', channel=0, note=38, velocity=100, time=0),
    Message('note_on', channel=0, note=38, velocity=0, time=234),
    Message('note_on', channel=0, note=38, velocity=100, time=6),
    Message('pitchwheel', channel=0, pitch=1365, time=180),
    Message('note_on', channel=0, note=38, velocity=0, time=60),
    Message('pitchwheel', channel=0, pitch=0, time=0),
    Message('note_on', channel=0, note=40, velocity=100, time=0),
    Message('note_on', channel=0, note=40, velocity=0, time=240),
    Message('note_on', channel=0, note=40, velocity=100, time=0),
    Message('note_on', channel=0, note=40, velocity=0, time=480),
    Message('pitchwheel', channel=0, pitch=0, time=0),
    Message('note_on', channel=0, note=35, velocity=100, time=0),
    Message('note_on', channel=0, note=35, velocity=0, time=480),
    Message('note_on', channel=0, note=38, velocity=100, time=0),
    Message('pitchwheel', channel=0, pitch=1365, time=167),
    Message('pitchwheel', channel=0, pitch=0, time=60),
    Message('note_on', channel=0, note=38, velocity=0, time=253),
    Message('note_on', channel=0, note=38, velocity=100, time=0),
    Message('pitchwheel', channel=0, pitch=1365, time=180),
    Message('note_on', channel=0, note=38, velocity=0, time=60),
    Message('pitchwheel', channel=0, pitch=0, time=0),
    Message('note_on', channel=0, note=40, velocity=100, time=0),
    Message('note_on', channel=0, note=40, velocity=0, time=240),
    Message('note_on', channel=0, note=40, velocity=100, time=0),
    Message('note_on', channel=0, note=40, velocity=0, time=480),
    Message('note_on', channel=0, note=43, velocity=100, time=0),
    Message('note_on', channel=0, note=43, velocity=0, time=120),
    Message('note_on', channel=0, note=42, velocity=100, time=0),
    Message('note_on', channel=0, note=42, velocity=0, time=120),
    Message('note_on', channel=0, note=43, velocity=100, time=0),
    Message('note_on', channel=0, note=43, velocity=0, time=120),
    Message('note_on', channel=0, note=42, velocity=100, time=0),
    Message('note_on', channel=0, note=42, velocity=0, time=120),
    Message('note_on', channel=0, note=43, velocity=100, time=0),
    Message('note_on', channel=0, note=43, velocity=0, time=120),
    Message('note_on', channel=0, note=42, velocity=100, time=0),
    Message('pitchwheel', channel=0, pitch=1365, time=47),
    Message('pitchwheel', channel=0, pitch=0, time=60),
    Message('note_on', channel=0, note=42, velocity=0, time=13),
    Message('note_on', channel=0, note=38, velocity=100, time=0),
    Message('note_on', channel=0, note=38, velocity=0, time=234),
    Message('note_on', channel=0, note=38, velocity=100, time=6),
    Message('pitchwheel', channel=0, pitch=1365, time=180),
    Message('note_on', channel=0, note=38, velocity=0, time=60),
    Message('pitchwheel', channel=0, pitch=0, time=0),
    Message('note_on', channel=0, note=40, velocity=100, time=0),
    Message('note_on', channel=0, note=40, velocity=0, time=240),
    Message('note_on', channel=0, note=40, velocity=100, time=0),
    Message('note_on', channel=0, note=40, velocity=0, time=480),
    Message('pitchwheel', channel=0, pitch=0, time=0),
    Message('note_on', channel=0, note=35, velocity=100, time=0),
    Message('note_on', channel=0, note=35, velocity=0, time=480),
    Message('note_on', channel=0, note=38, velocity=100, time=0),
    Message('pitchwheel', channel=0, pitch=1365, time=167),
    Message('pitchwheel', channel=0, pitch=0, time=60),
    Message('note_on', channel=0, note=38, velocity=0, time=253),
    Message('note_on', channel=0, note=38, velocity=100, time=0),
    Message('pitchwheel', channel=0, pitch=1365, time=180),
    Message('note_on', channel=0, note=38, velocity=0, time=60),
    Message('pitchwheel', channel=0, pitch=0, time=0),
    Message('note_on', channel=0, note=40, velocity=100, time=0),
    Message('note_on', channel=0, note=40, velocity=0, time=240),
    Message('note_on', channel=0, note=40, velocity=100, time=0),
    Message('note_on', channel=0, note=40, velocity=0, time=480),
    Message('note_on', channel=0, note=43, velocity=100, time=0),
    Message('note_on', channel=0, note=43, velocity=0, time=120),
    Message('note_on', channel=0, note=42, velocity=100, time=0),
    Message('note_on', channel=0, note=42, velocity=0, time=120),
    Message('note_on', channel=0, note=43, velocity=100, time=0),
    Message('note_on', channel=0, note=43, velocity=0, time=120),
    Message('note_on', channel=0, note=42, velocity=100, time=0),
    Message('note_on', channel=0, note=42, velocity=0, time=120),
    Message('note_on', channel=0, note=43, velocity=100, time=0),
    Message('note_on', channel=0, note=43, velocity=0, time=120),
    Message('note_on', channel=0, note=42, velocity=100, time=0),
    Message('pitchwheel', channel=0, pitch=1365, time=47),
    Message('pitchwheel', channel=0, pitch=0, time=60),
    Message('note_on', channel=0, note=42, velocity=0, time=13),
    Message('note_on', channel=0, note=38, velocity=100, time=0),
    Message('note_on', channel=0, note=38, velocity=0, time=234),
    Message('note_on', channel=0, note=38, velocity=100, time=6),
    Message('pitchwheel', channel=0, pitch=1365, time=180),
    Message('note_on', channel=0, note=38, velocity=0, time=60),
    Message('pitchwheel', channel=0, pitch=0, time=0),
    Message('note_on', channel=0, note=40, velocity=100, time=0),
    Message('note_on', channel=0, note=40, velocity=0, time=240),
    Message('note_on', channel=0, note=40, velocity=100, time=0),
    Message('note_on', channel=0, note=40, velocity=0, time=480),
    Message('note_on', channel=0, note=40, velocity=100, time=0),
    Message('note_on', channel=0, note=40, velocity=0, time=240),
    Message('note_on', channel=0, note=40, velocity=100, time=0),
    Message('note_on', channel=0, note=40, velocity=0, time=240),
    Message('note_on', channel=0, note=52, velocity=100, time=0),
    Message('note_on', channel=0, note=52, velocity=0, time=240),
    Message('note_on', channel=0, note=52, velocity=100, time=0),
    Message('note_on', channel=0, note=52, velocity=0, time=120),
    Message('note_on', channel=0, note=52, velocity=100, time=0),
    Message('note_on', channel=0, note=52, velocity=0, time=120),
    Message('note_on', channel=0, note=52, velocity=100, time=0),
    Message('note_on', channel=0, note=52, velocity=0, time=120),
    Message('note_on', channel=0, note=52, velocity=100, time=0),
    Message('note_on', channel=0, note=52, velocity=0, time=240),
    Message('note_on', channel=0, note=52, velocity=100, time=0),
    Message('note_on', channel=0, note=52, velocity=0, time=240),
    Message('note_on', channel=0, note=50, velocity=100, time=0),
    Message('note_on', channel=0, note=50, velocity=0, time=120),
    Message('note_on', channel=0, note=47, velocity=100, time=0),
    Message('note_on', channel=0, note=47, velocity=0, time=240),
    Message('note_on', channel=0, note=38, velocity=100, time=0),
    Message('note_on', channel=0, note=38, velocity=0, time=1920),
    Message('note_on', channel=0, note=35, velocity=100, time=0),
    Message('note_on', channel=0, note=35, velocity=0, time=240),
    Message('note_on', channel=0, note=35, velocity=100, time=0),
    Message('note_on', channel=0, note=35, velocity=0, time=240),
    Message('note_on', channel=0, note=38, velocity=100, time=0),
    Message('note_on', channel=0, note=38, velocity=0, time=120),
    Message('note_on', channel=0, note=39, velocity=100, time=0),
    Message('note_on', channel=0, note=39, velocity=0, time=120),
    Message('note_on', channel=0, note=40, velocity=100, time=0),
    Message('note_on', channel=0, note=40, velocity=0, time=240),
    Message('note_on', channel=0, note=40, velocity=100, time=0),
    Message('note_on', channel=0, note=40, velocity=0, time=120),
    Message('note_on', channel=0, note=41, velocity=100, time=0),
    Message('note_on', channel=0, note=41, velocity=0, time=120),
    Message('note_on', channel=0, note=42, velocity=100, time=0),
    Message('note_on', channel=0, note=42, velocity=0, time=240),
    Message('note_on', channel=0, note=45, velocity=100, time=0),
    Message('note_on', channel=0, note=45, velocity=0, time=120),
    Message('note_on', channel=0, note=46, velocity=100, time=0),
    Message('note_on', channel=0, note=46, velocity=0, time=120),
    Message('note_on', channel=0, note=47, velocity=100, time=0),
    Message('note_on', channel=0, note=47, velocity=0, time=240),
    Message('note_on', channel=0, note=35, velocity=100, time=0),
    Message('note_on', channel=0, note=35, velocity=0, time=240),
    Message('note_on', channel=0, note=35, velocity=100, time=0),
    Message('note_on', channel=0, note=35, velocity=0, time=240),
    Message('note_on', channel=0, note=38, velocity=100, time=0),
    Message('note_on', channel=0, note=38, velocity=0, time=120),
    Message('note_on', channel=0, note=39, velocity=100, time=0),
    Message('note_on', channel=0, note=39, velocity=0, time=120),
    Message('note_on', channel=0, note=40, velocity=100, time=0),
    Message('note_on', channel=0, note=40, velocity=0, time=240),
    Message('note_on', channel=0, note=40, velocity=100, time=0),
    Message('note_on', channel=0, note=40, velocity=0, time=120),
    Message('note_on', channel=0, note=41, velocity=100, time=0),
    Message('note_on', channel=0, note=41, velocity=0, time=120),
    Message('note_on', channel=0, note=42, velocity=100, time=0),
    Message('note_on', channel=0, note=42, velocity=0, time=240),
    Message('note_on', channel=0, note=45, velocity=100, time=0),
    Message('note_on', channel=0, note=45, velocity=0, time=120),
    Message('note_on', channel=0, note=46, velocity=100, time=0),
    Message('note_on', channel=0, note=46, velocity=0, time=120),
    Message('note_on', channel=0, note=47, velocity=100, time=0),
    Message('note_on', channel=0, note=47, velocity=0, time=240),
    Message('note_on', channel=0, note=40, velocity=100, time=0),
    Message('note_on', channel=0, note=40, velocity=0, time=240),
    Message('note_on', channel=0, note=40, velocity=100, time=0),
    Message('note_on', channel=0, note=40, velocity=0, time=240),
    Message('note_on', channel=0, note=52, velocity=100, time=0),
    Message('note_on', channel=0, note=52, velocity=0, time=240),
    Message('note_on', channel=0, note=52, velocity=100, time=0),
    Message('note_on', channel=0, note=52, velocity=0, time=120),
    Message('note_on', channel=0, note=52, velocity=100, time=0),
    Message('note_on', channel=0, note=52, velocity=0, time=120),
    Message('note_on', channel=0, note=52, velocity=100, time=0),
    Message('note_on', channel=0, note=52, velocity=0, time=120),
    Message('note_on', channel=0, note=52, velocity=100, time=0),
    Message('note_on', channel=0, note=52, velocity=0, time=240),
    Message('note_on', channel=0, note=52, velocity=100, time=0),
    Message('note_on', channel=0, note=52, velocity=0, time=240),
    Message('note_on', channel=0, note=50, velocity=100, time=0),
    Message('note_on', channel=0, note=50, velocity=0, time=120),
    Message('note_on', channel=0, note=47, velocity=100, time=0),
    Message('note_on', channel=0, note=47, velocity=0, time=240),
    Message('note_on', channel=0, note=38, velocity=100, time=0),
    Message('note_on', channel=0, note=38, velocity=0, time=1920),
    Message('note_on', channel=0, note=35, velocity=100, time=0),
    Message('note_on', channel=0, note=35, velocity=0, time=240),
    Message('note_on', channel=0, note=35, velocity=100, time=0),
    Message('note_on', channel=0, note=35, velocity=0, time=240),
    Message('note_on', channel=0, note=38, velocity=100, time=0),
    Message('note_on', channel=0, note=38, velocity=0, time=120),
    Message('note_on', channel=0, note=39, velocity=100, time=0),
    Message('note_on', channel=0, note=39, velocity=0, time=120),
    Message('note_on', channel=0, note=40, velocity=100, time=0),
    Message('note_on', channel=0, note=40, velocity=0, time=240),
    Message('note_on', channel=0, note=40, velocity=100, time=0),
    Message('note_on', channel=0, note=40, velocity=0, time=120),
    Message('note_on', channel=0, note=41, velocity=100, time=0),
    Message('note_on', channel=0, note=41, velocity=0, time=120),
    Message('note_on', channel=0, note=42, velocity=100, time=0),
    Message('note_on', channel=0, note=42, velocity=0, time=240),
    Message('note_on', channel=0, note=45, velocity=100, time=0),
    Message('note_on', channel=0, note=45, velocity=0, time=120),
    Message('note_on', channel=0, note=46, velocity=100, time=0),
    Message('note_on', channel=0, note=46, velocity=0, time=120),
    Message('note_on', channel=0, note=47, velocity=100, time=0),
    Message('note_on', channel=0, note=47, velocity=0, time=240),
    Message('note_on', channel=0, note=35, velocity=100, time=0),
    Message('note_on', channel=0, note=35, velocity=0, time=240),
    Message('note_on', channel=0, note=35, velocity=100, time=0),
    Message('note_on', channel=0, note=35, velocity=0, time=240),
    Message('note_on', channel=0, note=38, velocity=100, time=0),
    Message('note_on', channel=0, note=38, velocity=0, time=120),
    Message('note_on', channel=0, note=39, velocity=100, time=0),
    Message('note_on', channel=0, note=39, velocity=0, time=120),
    Message('note_on', channel=0, note=40, velocity=100, time=0),
    Message('note_on', channel=0, note=40, velocity=0, time=240),
    Message('note_on', channel=0, note=40, velocity=100, time=0),
    Message('note_on', channel=0, note=40, velocity=0, time=120),
    Message('note_on', channel=0, note=41, velocity=100, time=0),
    Message('note_on', channel=0, note=41, velocity=0, time=120),
    Message('note_on', channel=0, note=42, velocity=100, time=0),
    Message('note_on', channel=0, note=42, velocity=0, time=240),
    Message('note_on', channel=0, note=45, velocity=100, time=0),
    Message('note_on', channel=0, note=45, velocity=0, time=120),
    Message('note_on', channel=0, note=46, velocity=100, time=0),
    Message('note_on', channel=0, note=46, velocity=0, time=120),
    Message('note_on', channel=0, note=47, velocity=100, time=0),
    Message('note_on', channel=0, note=47, velocity=0, time=240),
    Message('pitchwheel', channel=0, pitch=0, time=0),
    Message('note_on', channel=0, note=35, velocity=100, time=0),
    Message('note_on', channel=0, note=35, velocity=0, time=480),
    Message('note_on', channel=0, note=38, velocity=100, time=0),
    Message('pitchwheel', channel=0, pitch=1365, time=167),
    Message('pitchwheel', channel=0, pitch=0, time=60),
    Message('note_on', channel=0, note=38, velocity=0, time=253),
    Message('note_on', channel=0, note=38, velocity=100, time=0),
    Message('pitchwheel', channel=0, pitch=1365, time=180),
    Message('note_on', channel=0, note=38, velocity=0, time=60),
    Message('pitchwheel', channel=0, pitch=0, time=0),
    Message('note_on', channel=0, note=40, velocity=100, time=0),
    Message('note_on', channel=0, note=40, velocity=0, time=240),
    Message('note_on', channel=0, note=40, velocity=100, time=0),
    Message('note_on', channel=0, note=40, velocity=0, time=480),
    Message('note_on', channel=0, note=43, velocity=100, time=0),
    Message('note_on', channel=0, note=43, velocity=0, time=120),
    Message('note_on', channel=0, note=42, velocity=100, time=0),
    Message('note_on', channel=0, note=42, velocity=0, time=120),
    Message('note_on', channel=0, note=43, velocity=100, time=0),
    Message('note_on', channel=0, note=43, velocity=0, time=120),
    Message('note_on', channel=0, note=42, velocity=100, time=0),
    Message('note_on', channel=0, note=42, velocity=0, time=120),
    Message('note_on', channel=0, note=43, velocity=100, time=0),
    Message('note_on', channel=0, note=43, velocity=0, time=120),
    Message('note_on', channel=0, note=42, velocity=100, time=0),
    Message('pitchwheel', channel=0, pitch=1365, time=47),
    Message('pitchwheel', channel=0, pitch=0, time=60),
    Message('note_on', channel=0, note=42, velocity=0, time=13),
    Message('note_on', channel=0, note=38, velocity=100, time=0),
    Message('note_on', channel=0, note=38, velocity=0, time=234),
    Message('note_on', channel=0, note=38, velocity=100, time=6),
    Message('pitchwheel', channel=0, pitch=1365, time=180),
    Message('note_on', channel=0, note=38, velocity=0, time=60),
    Message('pitchwheel', channel=0, pitch=0, time=0),
    Message('note_on', channel=0, note=40, velocity=100, time=0),
    Message('note_on', channel=0, note=40, velocity=0, time=240),
    Message('note_on', channel=0, note=40, velocity=100, time=0),
    Message('note_on', channel=0, note=40, velocity=0, time=480),
    Message('pitchwheel', channel=0, pitch=0, time=0),
    Message('note_on', channel=0, note=35, velocity=100, time=0),
    Message('note_on', channel=0, note=35, velocity=0, time=480),
    Message('note_on', channel=0, note=38, velocity=100, time=0),
    Message('pitchwheel', channel=0, pitch=1365, time=167),
    Message('pitchwheel', channel=0, pitch=0, time=60),
    Message('note_on', channel=0, note=38, velocity=0, time=253),
    Message('note_on', channel=0, note=38, velocity=100, time=0),
    Message('pitchwheel', channel=0, pitch=1365, time=180),
    Message('note_on', channel=0, note=38, velocity=0, time=60),
    Message('pitchwheel', channel=0, pitch=0, time=0),
    Message('note_on', channel=0, note=40, velocity=100, time=0),
    Message('note_on', channel=0, note=40, velocity=0, time=240),
    Message('note_on', channel=0, note=40, velocity=100, time=0),
    Message('note_on', channel=0, note=40, velocity=0, time=480),
    Message('note_on', channel=0, note=43, velocity=100, time=0),
    Message('note_on', channel=0, note=43, velocity=0, time=120),
    Message('note_on', channel=0, note=42, velocity=100, time=0),
    Message('note_on', channel=0, note=42, velocity=0, time=120),
    Message('note_on', channel=0, note=43, velocity=100, time=0),
    Message('note_on', channel=0, note=43, velocity=0, time=120),
    Message('note_on', channel=0, note=42, velocity=100, time=0),
    Message('note_on', channel=0, note=42, velocity=0, time=120),
    Message('note_on', channel=0, note=43, velocity=100, time=0),
    Message('note_on', channel=0, note=43, velocity=0, time=120),
    Message('note_on', channel=0, note=42, velocity=100, time=0),
    Message('pitchwheel', channel=0, pitch=1365, time=47),
    Message('pitchwheel', channel=0, pitch=0, time=60),
    Message('note_on', channel=0, note=42, velocity=0, time=13),
    Message('note_on', channel=0, note=38, velocity=100, time=0),
    Message('note_on', channel=0, note=38, velocity=0, time=234),
    Message('note_on', channel=0, note=38, velocity=100, time=6),
    Message('pitchwheel', channel=0, pitch=1365, time=180),
    Message('note_on', channel=0, note=38, velocity=0, time=60),
    Message('pitchwheel', channel=0, pitch=0, time=0),
    Message('note_on', channel=0, note=40, velocity=100, time=0),
    Message('note_on', channel=0, note=40, velocity=0, time=240),
    Message('note_on', channel=0, note=40, velocity=100, time=0),
    Message('note_on', channel=0, note=40, velocity=0, time=480),
    Message('pitchwheel', channel=0, pitch=0, time=0),
    Message('note_on', channel=0, note=35, velocity=100, time=0),
    Message('note_on', channel=0, note=35, velocity=0, time=480),
    Message('note_on', channel=0, note=38, velocity=100, time=0),
    Message('pitchwheel', channel=0, pitch=1365, time=167),
    Message('pitchwheel', channel=0, pitch=0, time=60),
    Message('note_on', channel=0, note=38, velocity=0, time=253),
    Message('note_on', channel=0, note=38, velocity=100, time=0),
    Message('pitchwheel', channel=0, pitch=1365, time=180),
    Message('note_on', channel=0, note=38, velocity=0, time=60),
    Message('pitchwheel', channel=0, pitch=0, time=0),
    Message('note_on', channel=0, note=40, velocity=100, time=0),
    Message('note_on', channel=0, note=40, velocity=0, time=240),
    Message('note_on', channel=0, note=40, velocity=100, time=0),
    Message('note_on', channel=0, note=40, velocity=0, time=480),
    Message('note_on', channel=0, note=43, velocity=100, time=0),
    Message('note_on', channel=0, note=43, velocity=0, time=120),
    Message('note_on', channel=0, note=42, velocity=100, time=0),
    Message('note_on', channel=0, note=42, velocity=0, time=120),
    Message('note_on', channel=0, note=43, velocity=100, time=0),
    Message('note_on', channel=0, note=43, velocity=0, time=120),
    Message('note_on', channel=0, note=42, velocity=100, time=0),
    Message('note_on', channel=0, note=42, velocity=0, time=120),
    Message('note_on', channel=0, note=43, velocity=100, time=0),
    Message('note_on', channel=0, note=43, velocity=0, time=120),
    Message('note_on', channel=0, note=42, velocity=100, time=0),
    Message('pitchwheel', channel=0, pitch=1365, time=47),
    Message('pitchwheel', channel=0, pitch=0, time=60),
    Message('note_on', channel=0, note=42, velocity=0, time=13),
    Message('note_on', channel=0, note=38, velocity=100, time=0),
    Message('note_on', channel=0, note=38, velocity=0, time=234),
    Message('note_on', channel=0, note=38, velocity=100, time=6),
    Message('pitchwheel', channel=0, pitch=1365, time=180),
    Message('note_on', channel=0, note=38, velocity=0, time=60),
    Message('pitchwheel', channel=0, pitch=0, time=0),
    Message('note_on', channel=0, note=40, velocity=100, time=0),
    Message('note_on', channel=0, note=40, velocity=0, time=240),
    Message('note_on', channel=0, note=40, velocity=100, time=0),
    Message('note_on', channel=0, note=40, velocity=0, time=480),
    Message('pitchwheel', channel=0, pitch=0, time=0),
    Message('note_on', channel=0, note=35, velocity=100, time=0),
    Message('note_on', channel=0, note=35, velocity=0, time=480),
    Message('note_on', channel=0, note=38, velocity=100, time=0),
    Message('pitchwheel', channel=0, pitch=1365, time=167),
    Message('pitchwheel', channel=0, pitch=0, time=60),
    Message('note_on', channel=0, note=38, velocity=0, time=253),
    Message('note_on', channel=0, note=38, velocity=100, time=0),
    Message('pitchwheel', channel=0, pitch=1365, time=180),
    Message('note_on', channel=0, note=38, velocity=0, time=60),
    Message('pitchwheel', channel=0, pitch=0, time=0),
    Message('note_on', channel=0, note=40, velocity=100, time=0),
    Message('note_on', channel=0, note=40, velocity=0, time=240),
    Message('note_on', channel=0, note=40, velocity=100, time=0),
    Message('note_on', channel=0, note=40, velocity=0, time=480),
    Message('note_on', channel=0, note=43, velocity=100, time=0),
    Message('note_on', channel=0, note=43, velocity=0, time=120),
    Message('note_on', channel=0, note=42, velocity=100, time=0),
    Message('note_on', channel=0, note=42, velocity=0, time=120),
    Message('note_on', channel=0, note=43, velocity=100, time=0),
    Message('note_on', channel=0, note=43, velocity=0, time=120),
    Message('note_on', channel=0, note=42, velocity=100, time=0),
    Message('note_on', channel=0, note=42, velocity=0, time=120),
    Message('note_on', channel=0, note=43, velocity=100, time=0),
    Message('note_on', channel=0, note=43, velocity=0, time=120),
    Message('note_on', channel=0, note=42, velocity=100, time=0),
    Message('pitchwheel', channel=0, pitch=1365, time=47),
    Message('pitchwheel', channel=0, pitch=0, time=60),
    Message('note_on', channel=0, note=42, velocity=0, time=13),
    Message('note_on', channel=0, note=38, velocity=100, time=0),
    Message('note_on', channel=0, note=38, velocity=0, time=234),
    Message('note_on', channel=0, note=38, velocity=100, time=6),
    Message('pitchwheel', channel=0, pitch=1365, time=180),
    Message('note_on', channel=0, note=38, velocity=0, time=60),
    Message('pitchwheel', channel=0, pitch=0, time=0),
    Message('note_on', channel=0, note=40, velocity=100, time=0),
    Message('note_on', channel=0, note=40, velocity=0, time=240),
    Message('note_on', channel=0, note=40, velocity=100, time=0),
    Message('note_on', channel=0, note=40, velocity=0, time=480),
    Message('note_on', channel=0, note=40, velocity=100, time=0),
    Message('note_on', channel=0, note=40, velocity=0, time=240),
    Message('note_on', channel=0, note=40, velocity=100, time=0),
    Message('note_on', channel=0, note=40, velocity=0, time=240),
    Message('note_on', channel=0, note=52, velocity=100, time=0),
    Message('note_on', channel=0, note=52, velocity=0, time=240),
    Message('note_on', channel=0, note=52, velocity=100, time=0),
    Message('note_on', channel=0, note=52, velocity=0, time=120),
    Message('note_on', channel=0, note=52, velocity=100, time=0),
    Message('note_on', channel=0, note=52, velocity=0, time=120),
    Message('note_on', channel=0, note=52, velocity=100, time=0),
    Message('note_on', channel=0, note=52, velocity=0, time=120),
    Message('note_on', channel=0, note=52, velocity=100, time=0),
    Message('note_on', channel=0, note=52, velocity=0, time=240),
    Message('note_on', channel=0, note=52, velocity=100, time=0),
    Message('note_on', channel=0, note=52, velocity=0, time=240),
    Message('note_on', channel=0, note=50, velocity=100, time=0),
    Message('note_on', channel=0, note=50, velocity=0, time=120),
    Message('note_on', channel=0, note=47, velocity=100, time=0),
    Message('note_on', channel=0, note=47, velocity=0, time=240),
    Message('note_on', channel=0, note=38, velocity=100, time=0),
    Message('note_on', channel=0, note=38, velocity=0, time=1920),
    Message('note_on', channel=0, note=35, velocity=100, time=0),
    Message('note_on', channel=0, note=35, velocity=0, time=240),
    Message('note_on', channel=0, note=35, velocity=100, time=0),
    Message('note_on', channel=0, note=35, velocity=0, time=240),
    Message('note_on', channel=0, note=38, velocity=100, time=0),
    Message('note_on', channel=0, note=38, velocity=0, time=120),
    Message('note_on', channel=0, note=39, velocity=100, time=0),
    Message('note_on', channel=0, note=39, velocity=0, time=120),
    Message('note_on', channel=0, note=40, velocity=100, time=0),
    Message('note_on', channel=0, note=40, velocity=0, time=240),
    Message('note_on', channel=0, note=40, velocity=100, time=0),
    Message('note_on', channel=0, note=40, velocity=0, time=120),
    Message('note_on', channel=0, note=41, velocity=100, time=0),
    Message('note_on', channel=0, note=41, velocity=0, time=120),
    Message('note_on', channel=0, note=42, velocity=100, time=0),
    Message('note_on', channel=0, note=42, velocity=0, time=240),
    Message('note_on', channel=0, note=45, velocity=100, time=0),
    Message('note_on', channel=0, note=45, velocity=0, time=120),
    Message('note_on', channel=0, note=46, velocity=100, time=0),
    Message('note_on', channel=0, note=46, velocity=0, time=120),
    Message('note_on', channel=0, note=47, velocity=100, time=0),
    Message('note_on', channel=0, note=47, velocity=0, time=240),
    Message('note_on', channel=0, note=35, velocity=100, time=0),
    Message('note_on', channel=0, note=35, velocity=0, time=240),
    Message('note_on', channel=0, note=35, velocity=100, time=0),
    Message('note_on', channel=0, note=35, velocity=0, time=240),
    Message('note_on', channel=0, note=38, velocity=100, time=0),
    Message('note_on', channel=0, note=38, velocity=0, time=120),
    Message('note_on', channel=0, note=39, velocity=100, time=0),
    Message('note_on', channel=0, note=39, velocity=0, time=120),
    Message('note_on', channel=0, note=40, velocity=100, time=0),
    Message('note_on', channel=0, note=40, velocity=0, time=240),
    Message('note_on', channel=0, note=40, velocity=100, time=0),
    Message('note_on', channel=0, note=40, velocity=0, time=120),
    Message('note_on', channel=0, note=41, velocity=100, time=0),
    Message('note_on', channel=0, note=41, velocity=0, time=120),
    Message('note_on', channel=0, note=42, velocity=100, time=0),
    Message('note_on', channel=0, note=42, velocity=0, time=240),
    Message('note_on', channel=0, note=45, velocity=100, time=0),
    Message('note_on', channel=0, note=45, velocity=0, time=120),
    Message('note_on', channel=0, note=46, velocity=100, time=0),
    Message('note_on', channel=0, note=46, velocity=0, time=120),
    Message('note_on', channel=0, note=47, velocity=100, time=0),
    Message('note_on', channel=0, note=47, velocity=0, time=240),
    Message('note_on', channel=0, note=40, velocity=100, time=0),
    Message('note_on', channel=0, note=40, velocity=0, time=240),
    Message('note_on', channel=0, note=40, velocity=100, time=0),
    Message('note_on', channel=0, note=40, velocity=0, time=240),
    Message('note_on', channel=0, note=52, velocity=100, time=0),
    Message('note_on', channel=0, note=52, velocity=0, time=240),
    Message('note_on', channel=0, note=52, velocity=100, time=0),
    Message('note_on', channel=0, note=52, velocity=0, time=120),
    Message('note_on', channel=0, note=52, velocity=100, time=0),
    Message('note_on', channel=0, note=52, velocity=0, time=120),
    Message('note_on', channel=0, note=52, velocity=100, time=0),
    Message('note_on', channel=0, note=52, velocity=0, time=120),
    Message('note_on', channel=0, note=52, velocity=100, time=0),
    Message('note_on', channel=0, note=52, velocity=0, time=240),
    Message('note_on', channel=0, note=52, velocity=100, time=0),
    Message('note_on', channel=0, note=52, velocity=0, time=240),
    Message('note_on', channel=0, note=50, velocity=100, time=0),
    Message('note_on', channel=0, note=50, velocity=0, time=120),
    Message('note_on', channel=0, note=47, velocity=100, time=0),
    Message('note_on', channel=0, note=47, velocity=0, time=240),
    Message('note_on', channel=0, note=38, velocity=100, time=0),
    Message('note_on', channel=0, note=38, velocity=0, time=1920),
    Message('note_on', channel=0, note=35, velocity=100, time=0),
    Message('note_on', channel=0, note=35, velocity=0, time=240),
    Message('note_on', channel=0, note=35, velocity=100, time=0),
    Message('note_on', channel=0, note=35, velocity=0, time=240),
    Message('note_on', channel=0, note=38, velocity=100, time=0),
    Message('note_on', channel=0, note=38, velocity=0, time=120),
    Message('note_on', channel=0, note=39, velocity=100, time=0),
    Message('note_on', channel=0, note=39, velocity=0, time=120),
    Message('note_on', channel=0, note=40, velocity=100, time=0),
    Message('note_on', channel=0, note=40, velocity=0, time=240),
    Message('note_on', channel=0, note=40, velocity=100, time=0),
    Message('note_on', channel=0, note=40, velocity=0, time=120),
    Message('note_on', channel=0, note=41, velocity=100, time=0),
    Message('note_on', channel=0, note=41, velocity=0, time=120),
    Message('note_on', channel=0, note=42, velocity=100, time=0),
    Message('note_on', channel=0, note=42, velocity=0, time=240),
    Message('note_on', channel=0, note=45, velocity=100, time=0),
    Message('note_on', channel=0, note=45, velocity=0, time=120),
    Message('note_on', channel=0, note=46, velocity=100, time=0),
    Message('note_on', channel=0, note=46, velocity=0, time=120),
    Message('note_on', channel=0, note=47, velocity=100, time=0),
    Message('note_on', channel=0, note=47, velocity=0, time=240),
    Message('note_on', channel=0, note=35, velocity=100, time=0),
    Message('note_on', channel=0, note=35, velocity=0, time=240),
    Message('note_on', channel=0, note=35, velocity=100, time=0),
    Message('note_on', channel=0, note=35, velocity=0, time=240),
    Message('note_on', channel=0, note=38, velocity=100, time=0),
    Message('note_on', channel=0, note=38, velocity=0, time=120),
    Message('note_on', channel=0, note=39, velocity=100, time=0),
    Message('note_on', channel=0, note=39, velocity=0, time=120),
    Message('note_on', channel=0, note=40, velocity=100, time=0),
    Message('note_on', channel=0, note=40, velocity=0, time=240),
    Message('note_on', channel=0, note=40, velocity=100, time=0),
    Message('note_on', channel=0, note=40, velocity=0, time=120),
    Message('note_on', channel=0, note=41, velocity=100, time=0),
    Message('note_on', channel=0, note=41, velocity=0, time=120),
    Message('note_on', channel=0, note=42, velocity=100, time=0),
    Message('note_on', channel=0, note=42, velocity=0, time=240),
    Message('note_on', channel=0, note=45, velocity=100, time=0),
    Message('note_on', channel=0, note=45, velocity=0, time=120),
    Message('note_on', channel=0, note=46, velocity=100, time=0),
    Message('note_on', channel=0, note=46, velocity=0, time=120),
    Message('note_on', channel=0, note=47, velocity=100, time=0),
    Message('note_on', channel=0, note=47, velocity=0, time=240),
    Message('note_on', channel=0, note=49, velocity=100, time=0),
    Message('note_on', channel=0, note=49, velocity=0, time=120),
    Message('note_on', channel=0, note=47, velocity=100, time=0),
    Message('note_on', channel=0, note=47, velocity=0, time=120),
    Message('note_on', channel=0, note=44, velocity=100, time=120),
    Message('note_on', channel=0, note=44, velocity=0, time=120),
    Message('note_on', channel=0, note=42, velocity=100, time=120),
    Message('note_on', channel=0, note=42, velocity=0, time=120),
    Message('note_on', channel=0, note=40, velocity=100, time=120),
    Message('note_on', channel=0, note=40, velocity=0, time=120),
    Message('note_on', channel=0, note=37, velocity=100, time=116),
    Message('note_on', channel=0, note=37, velocity=0, time=120),
    Message('note_on', channel=0, note=35, velocity=100, time=124),
    Message('note_on', channel=0, note=35, velocity=0, time=120),
    Message('note_on', channel=0, note=35, velocity=100, time=0),
    Message('note_on', channel=0, note=35, velocity=0, time=120),
    Message('note_on', channel=0, note=37, velocity=100, time=0),
    Message('note_on', channel=0, note=37, velocity=0, time=120),
    Message('note_on', channel=0, note=37, velocity=100, time=0),
    Message('note_on', channel=0, note=37, velocity=0, time=120),
    Message('note_on', channel=0, note=49, velocity=100, time=120),
    Message('note_on', channel=0, note=49, velocity=0, time=120),
    Message('note_on', channel=0, note=47, velocity=100, time=0),
    Message('note_on', channel=0, note=47, velocity=0, time=120),
    Message('note_on', channel=0, note=44, velocity=100, time=120),
    Message('note_on', channel=0, note=44, velocity=0, time=120),
    Message('note_on', channel=0, note=42, velocity=100, time=120),
    Message('note_on', channel=0, note=42, velocity=0, time=120),
    Message('note_on', channel=0, note=40, velocity=100, time=120),
    Message('note_on', channel=0, note=40, velocity=0, time=120),
    Message('note_on', channel=0, note=37, velocity=100, time=116),
    Message('note_on', channel=0, note=37, velocity=0, time=120),
    Message('note_on', channel=0, note=35, velocity=100, time=124),
    Message('note_on', channel=0, note=35, velocity=0, time=120),
    Message('note_on', channel=0, note=35, velocity=100, time=0),
    Message('note_on', channel=0, note=35, velocity=0, time=120),
    Message('note_on', channel=0, note=37, velocity=100, time=0),
    Message('note_on', channel=0, note=37, velocity=0, time=120),
    Message('note_on', channel=0, note=37, velocity=100, time=0),
    Message('note_on', channel=0, note=37, velocity=0, time=120),
    Message('note_on', channel=0, note=35, velocity=100, time=120),
    Message('note_on', channel=0, note=35, velocity=0, time=120),
    Message('note_on', channel=0, note=37, velocity=100, time=0),
    Message('note_on', channel=0, note=37, velocity=0, time=120),
    Message('note_on', channel=0, note=37, velocity=100, time=0),
    Message('note_on', channel=0, note=37, velocity=0, time=120),
    Message('note_on', channel=0, note=37, velocity=100, time=0),
    Message('note_on', channel=0, note=37, velocity=0, time=60),
    Message('note_on', channel=0, note=37, velocity=100, time=60),
    Message('note_on', channel=0, note=37, velocity=0, time=60),
    Message('note_on', channel=0, note=37, velocity=100, time=60),
    Message('note_on', channel=0, note=37, velocity=0, time=60),
    Message('note_on', channel=0, note=37, velocity=100, time=60),
    Message('note_on', channel=0, note=37, velocity=0, time=60),
    Message('note_on', channel=0, note=37, velocity=100, time=60),
    Message('note_on', channel=0, note=37, velocity=0, time=60),
    Message('note_on', channel=0, note=35, velocity=100, time=60),
    Message('note_on', channel=0, note=35, velocity=0, time=120),
    Message('note_on', channel=0, note=37, velocity=100, time=0),
    Message('note_on', channel=0, note=37, velocity=0, time=240),
    Message('note_on', channel=0, note=38, velocity=100, time=0),
    Message('note_on', channel=0, note=38, velocity=0, time=240),
    Message('note_on', channel=0, note=37, velocity=100, time=0),
    Message('note_on', channel=0, note=37, velocity=0, time=240),
    Message('note_on', channel=0, note=35, velocity=100, time=0),
    Message('note_on', channel=0, note=35, velocity=0, time=120),
    Message('note_on', channel=0, note=35, velocity=100, time=0),
    Message('note_on', channel=0, note=35, velocity=0, time=120),
    Message('note_on', channel=0, note=37, velocity=100, time=0),
    Message('note_on', channel=0, note=37, velocity=0, time=120),
    Message('note_on', channel=0, note=37, velocity=100, time=0),
    Message('note_on', channel=0, note=37, velocity=0, time=120),
    Message('note_on', channel=0, note=37, velocity=100, time=0),
    Message('note_on', channel=0, note=37, velocity=0, time=60),
    Message('note_on', channel=0, note=37, velocity=100, time=60),
    Message('note_on', channel=0, note=37, velocity=0, time=60),
    Message('note_on', channel=0, note=37, velocity=100, time=60),
    Message('note_on', channel=0, note=37, velocity=0, time=60),
    Message('note_on', channel=0, note=37, velocity=100, time=60),
    Message('note_on', channel=0, note=37, velocity=0, time=60),
    Message('note_on', channel=0, note=37, velocity=100, time=60),
    Message('note_on', channel=0, note=37, velocity=0, time=60),
    Message('note_on', channel=0, note=35, velocity=100, time=60),
    Message('note_on', channel=0, note=35, velocity=0, time=120),
    Message('note_on', channel=0, note=37, velocity=100, time=0),
    Message('note_on', channel=0, note=37, velocity=0, time=240),
    Message('note_on', channel=0, note=38, velocity=100, time=0),
    Message('note_on', channel=0, note=38, velocity=0, time=240),
    Message('note_on', channel=0, note=37, velocity=100, time=0),
    Message('note_on', channel=0, note=37, velocity=0, time=240),
    Message('note_on', channel=0, note=35, velocity=100, time=0),
    Message('note_on', channel=0, note=35, velocity=0, time=120),
    Message('note_on', channel=0, note=35, velocity=100, time=0),
    Message('note_on', channel=0, note=35, velocity=0, time=120),
    Message('note_on', channel=0, note=37, velocity=100, time=0),
    Message('note_on', channel=0, note=37, velocity=0, time=120),
    Message('note_on', channel=0, note=37, velocity=100, time=0),
    Message('note_on', channel=0, note=37, velocity=0, time=120),
    Message('note_on', channel=0, note=37, velocity=100, time=0),
    Message('note_on', channel=0, note=37, velocity=0, time=60),
    Message('note_on', channel=0, note=37, velocity=100, time=60),
    Message('note_on', channel=0, note=37, velocity=0, time=60),
    Message('note_on', channel=0, note=37, velocity=100, time=60),
    Message('note_on', channel=0, note=37, velocity=0, time=60),
    Message('note_on', channel=0, note=37, velocity=100, time=60),
    Message('note_on', channel=0, note=37, velocity=0, time=60),
    Message('note_on', channel=0, note=37, velocity=100, time=60),
    Message('note_on', channel=0, note=37, velocity=0, time=60),
    Message('note_on', channel=0, note=35, velocity=100, time=60),
    Message('note_on', channel=0, note=35, velocity=0, time=120),
    Message('note_on', channel=0, note=37, velocity=100, time=0),
    Message('note_on', channel=0, note=37, velocity=0, time=240),
    Message('note_on', channel=0, note=38, velocity=100, time=0),
    Message('note_on', channel=0, note=38, velocity=0, time=240),
    Message('note_on', channel=0, note=37, velocity=100, time=0),
    Message('note_on', channel=0, note=37, velocity=0, time=240),
    Message('note_on', channel=0, note=35, velocity=100, time=0),
    Message('note_on', channel=0, note=35, velocity=0, time=120),
    Message('note_on', channel=0, note=35, velocity=100, time=0),
    Message('note_on', channel=0, note=35, velocity=0, time=120),
    Message('note_on', channel=0, note=37, velocity=100, time=0),
    Message('note_on', channel=0, note=37, velocity=0, time=120),
    Message('note_on', channel=0, note=37, velocity=100, time=0),
    Message('note_on', channel=0, note=37, velocity=0, time=120),
    Message('note_on', channel=0, note=37, velocity=100, time=0),
    Message('note_on', channel=0, note=37, velocity=0, time=60),
    Message('note_on', channel=0, note=37, velocity=100, time=60),
    Message('note_on', channel=0, note=37, velocity=0, time=60),
    Message('note_on', channel=0, note=37, velocity=100, time=60),
    Message('note_on', channel=0, note=37, velocity=0, time=60),
    Message('note_on', channel=0, note=37, velocity=100, time=60),
    Message('note_on', channel=0, note=37, velocity=0, time=60),
    Message('note_on', channel=0, note=37, velocity=100, time=60),
    Message('note_on', channel=0, note=37, velocity=0, time=60),
    Message('note_on', channel=0, note=35, velocity=100, time=60),
    Message('note_on', channel=0, note=35, velocity=0, time=120),
    Message('note_on', channel=0, note=37, velocity=100, time=0),
    Message('note_on', channel=0, note=37, velocity=0, time=240),
    Message('note_on', channel=0, note=38, velocity=100, time=0),
    Message('note_on', channel=0, note=38, velocity=0, time=240),
    Message('note_on', channel=0, note=37, velocity=100, time=0),
    Message('note_on', channel=0, note=37, velocity=0, time=240),
    Message('note_on', channel=0, note=35, velocity=100, time=0),
    Message('note_on', channel=0, note=35, velocity=0, time=120),
    Message('note_on', channel=0, note=35, velocity=100, time=0),
    Message('note_on', channel=0, note=35, velocity=0, time=120),
    Message('note_on', channel=0, note=37, velocity=100, time=0),
    Message('note_on', channel=0, note=37, velocity=0, time=120),
    Message('note_on', channel=0, note=37, velocity=100, time=0),
    Message('note_on', channel=0, note=37, velocity=0, time=120),
    Message('note_on', channel=0, note=37, velocity=100, time=0),
    Message('note_on', channel=0, note=37, velocity=0, time=60),
    Message('note_on', channel=0, note=37, velocity=100, time=60),
    Message('note_on', channel=0, note=37, velocity=0, time=60),
    Message('note_on', channel=0, note=37, velocity=100, time=60),
    Message('note_on', channel=0, note=37, velocity=0, time=60),
    Message('note_on', channel=0, note=37, velocity=100, time=60),
    Message('note_on', channel=0, note=37, velocity=0, time=60),
    Message('note_on', channel=0, note=37, velocity=100, time=60),
    Message('note_on', channel=0, note=37, velocity=0, time=60),
    Message('note_on', channel=0, note=35, velocity=100, time=60),
    Message('note_on', channel=0, note=35, velocity=0, time=120),
    Message('note_on', channel=0, note=37, velocity=100, time=0),
    Message('note_on', channel=0, note=37, velocity=0, time=240),
    Message('note_on', channel=0, note=38, velocity=100, time=0),
    Message('note_on', channel=0, note=38, velocity=0, time=240),
    Message('note_on', channel=0, note=37, velocity=100, time=0),
    Message('note_on', channel=0, note=37, velocity=0, time=240),
    Message('note_on', channel=0, note=35, velocity=100, time=0),
    Message('note_on', channel=0, note=35, velocity=0, time=120),
    Message('note_on', channel=0, note=35, velocity=100, time=0),
    Message('note_on', channel=0, note=35, velocity=0, time=120),
    Message('note_on', channel=0, note=37, velocity=100, time=0),
    Message('note_on', channel=0, note=37, velocity=0, time=120),
    Message('note_on', channel=0, note=37, velocity=100, time=0),
    Message('note_on', channel=0, note=37, velocity=0, time=120),
    Message('note_on', channel=0, note=37, velocity=100, time=0),
    Message('note_on', channel=0, note=37, velocity=0, time=60),
    Message('note_on', channel=0, note=37, velocity=100, time=60),
    Message('note_on', channel=0, note=37, velocity=0, time=60),
    Message('note_on', channel=0, note=37, velocity=100, time=60),
    Message('note_on', channel=0, note=37, velocity=0, time=60),
    Message('note_on', channel=0, note=37, velocity=100, time=60),
    Message('note_on', channel=0, note=37, velocity=0, time=60),
    Message('note_on', channel=0, note=37, velocity=100, time=60),
    Message('note_on', channel=0, note=37, velocity=0, time=60),
    Message('note_on', channel=0, note=35, velocity=100, time=60),
    Message('note_on', channel=0, note=35, velocity=0, time=120),
    Message('note_on', channel=0, note=37, velocity=100, time=0),
    Message('note_on', channel=0, note=37, velocity=0, time=240),
    Message('note_on', channel=0, note=38, velocity=100, time=0),
    Message('note_on', channel=0, note=38, velocity=0, time=240),
    Message('note_on', channel=0, note=37, velocity=100, time=0),
    Message('note_on', channel=0, note=37, velocity=0, time=240),
    Message('note_on', channel=0, note=35, velocity=100, time=0),
    Message('note_on', channel=0, note=35, velocity=0, time=120),
    Message('note_on', channel=0, note=35, velocity=100, time=0),
    Message('note_on', channel=0, note=35, velocity=0, time=120),
    Message('note_on', channel=0, note=37, velocity=100, time=0),
    Message('note_on', channel=0, note=37, velocity=0, time=120),
    Message('note_on', channel=0, note=37, velocity=100, time=0),
    Message('note_on', channel=0, note=37, velocity=0, time=120),
    Message('note_on', channel=0, note=37, velocity=100, time=0),
    Message('note_on', channel=0, note=37, velocity=0, time=60),
    Message('note_on', channel=0, note=37, velocity=100, time=60),
    Message('note_on', channel=0, note=37, velocity=0, time=60),
    Message('note_on', channel=0, note=37, velocity=100, time=60),
    Message('note_on', channel=0, note=37, velocity=0, time=60),
    Message('note_on', channel=0, note=37, velocity=100, time=60),
    Message('note_on', channel=0, note=37, velocity=0, time=60),
    Message('note_on', channel=0, note=37, velocity=100, time=60),
    Message('note_on', channel=0, note=37, velocity=0, time=60),
    Message('note_on', channel=0, note=35, velocity=100, time=60),
    Message('note_on', channel=0, note=35, velocity=0, time=120),
    Message('note_on', channel=0, note=37, velocity=100, time=0),
    Message('note_on', channel=0, note=37, velocity=0, time=240),
    Message('note_on', channel=0, note=38, velocity=100, time=0),
    Message('note_on', channel=0, note=38, velocity=0, time=240),
    Message('note_on', channel=0, note=37, velocity=100, time=0),
    Message('note_on', channel=0, note=37, velocity=0, time=240),
    Message('note_on', channel=0, note=35, velocity=100, time=0),
    Message('note_on', channel=0, note=35, velocity=0, time=120),
    Message('note_on', channel=0, note=35, velocity=100, time=0),
    Message('note_on', channel=0, note=35, velocity=0, time=120),
    Message('note_on', channel=0, note=37, velocity=100, time=0),
    Message('note_on', channel=0, note=37, velocity=0, time=120),
    Message('note_on', channel=0, note=37, velocity=100, time=0),
    Message('note_on', channel=0, note=37, velocity=0, time=120),
    Message('note_on', channel=0, note=37, velocity=100, time=0),
    Message('note_on', channel=0, note=37, velocity=0, time=60),
    Message('note_on', channel=0, note=37, velocity=100, time=60),
    Message('note_on', channel=0, note=37, velocity=0, time=60),
    Message('note_on', channel=0, note=37, velocity=100, time=60),
    Message('note_on', channel=0, note=37, velocity=0, time=60),
    Message('note_on', channel=0, note=37, velocity=100, time=60),
    Message('note_on', channel=0, note=37, velocity=0, time=60),
    Message('note_on', channel=0, note=37, velocity=100, time=60),
    Message('note_on', channel=0, note=37, velocity=0, time=60),
    Message('note_on', channel=0, note=35, velocity=100, time=60),
    Message('note_on', channel=0, note=35, velocity=0, time=120),
    Message('note_on', channel=0, note=37, velocity=100, time=0),
    Message('note_on', channel=0, note=37, velocity=0, time=240),
    Message('note_on', channel=0, note=38, velocity=100, time=0),
    Message('note_on', channel=0, note=38, velocity=0, time=240),
    Message('note_on', channel=0, note=37, velocity=100, time=0),
    Message('note_on', channel=0, note=37, velocity=0, time=240),
    Message('note_on', channel=0, note=35, velocity=100, time=0),
    Message('note_on', channel=0, note=35, velocity=0, time=120),
    Message('note_on', channel=0, note=49, velocity=100, time=0),
    Message('note_on', channel=0, note=49, velocity=0, time=120),
    Message('note_on', channel=0, note=47, velocity=100, time=0),
    Message('note_on', channel=0, note=47, velocity=0, time=120),
    Message('note_on', channel=0, note=44, velocity=100, time=120),
    Message('note_on', channel=0, note=44, velocity=0, time=120),
    Message('note_on', channel=0, note=42, velocity=100, time=120),
    Message('note_on', channel=0, note=42, velocity=0, time=120),
    Message('note_on', channel=0, note=40, velocity=100, time=120),
    Message('note_on', channel=0, note=40, velocity=0, time=120),
    Message('note_on', channel=0, note=37, velocity=100, time=116),
    Message('note_on', channel=0, note=37, velocity=0, time=120),
    Message('note_on', channel=0, note=35, velocity=100, time=124),
    Message('note_on', channel=0, note=35, velocity=0, time=120),
    Message('note_on', channel=0, note=35, velocity=100, time=0),
    Message('note_on', channel=0, note=35, velocity=0, time=120),
    Message('note_on', channel=0, note=37, velocity=100, time=0),
    Message('note_on', channel=0, note=37, velocity=0, time=120),
    Message('note_on', channel=0, note=37, velocity=100, time=0),
    Message('note_on', channel=0, note=37, velocity=0, time=120),
    Message('note_on', channel=0, note=49, velocity=100, time=120),
    Message('note_on', channel=0, note=49, velocity=0, time=120),
    Message('note_on', channel=0, note=47, velocity=100, time=0),
    Message('note_on', channel=0, note=47, velocity=0, time=120),
    Message('note_on', channel=0, note=44, velocity=100, time=120),
    Message('note_on', channel=0, note=44, velocity=0, time=120),
    Message('note_on', channel=0, note=42, velocity=100, time=120),
    Message('note_on', channel=0, note=42, velocity=0, time=120),
    Message('note_on', channel=0, note=40, velocity=100, time=120),
    Message('note_on', channel=0, note=40, velocity=0, time=120),
    Message('note_on', channel=0, note=37, velocity=100, time=116),
    Message('note_on', channel=0, note=37, velocity=0, time=120),
    Message('note_on', channel=0, note=35, velocity=100, time=124),
    Message('note_on', channel=0, note=35, velocity=0, time=120),
    Message('note_on', channel=0, note=35, velocity=100, time=0),
    Message('note_on', channel=0, note=35, velocity=0, time=120),
    Message('note_on', channel=0, note=37, velocity=100, time=0),
    Message('note_on', channel=0, note=37, velocity=0, time=120),
    Message('note_on', channel=0, note=37, velocity=100, time=0),
    Message('note_on', channel=0, note=37, velocity=0, time=120),
    Message('note_on', channel=0, note=35, velocity=100, time=120),
    Message('note_on', channel=0, note=35, velocity=0, time=240),
    Message('note_on', channel=0, note=35, velocity=100, time=0),
    Message('note_on', channel=0, note=35, velocity=0, time=240),
    Message('note_on', channel=0, note=38, velocity=100, time=0),
    Message('note_on', channel=0, note=38, velocity=0, time=120),
    Message('note_on', channel=0, note=39, velocity=100, time=0),
    Message('note_on', channel=0, note=39, velocity=0, time=120),
    Message('note_on', channel=0, note=40, velocity=100, time=0),
    Message('note_on', channel=0, note=40, velocity=0, time=240),
    Message('note_on', channel=0, note=40, velocity=100, time=0),
    Message('note_on', channel=0, note=40, velocity=0, time=120),
    Message('note_on', channel=0, note=41, velocity=100, time=0),
    Message('note_on', channel=0, note=41, velocity=0, time=120),
    Message('note_on', channel=0, note=42, velocity=100, time=0),
    Message('note_on', channel=0, note=42, velocity=0, time=240),
    Message('note_on', channel=0, note=45, velocity=100, time=0),
    Message('note_on', channel=0, note=45, velocity=0, time=120),
    Message('note_on', channel=0, note=46, velocity=100, time=0),
    Message('note_on', channel=0, note=46, velocity=0, time=120),
    Message('note_on', channel=0, note=47, velocity=100, time=0),
    Message('note_on', channel=0, note=47, velocity=0, time=240),
    Message('note_on', channel=0, note=35, velocity=100, time=0),
    Message('note_on', channel=0, note=35, velocity=0, time=240),
    Message('note_on', channel=0, note=35, velocity=100, time=0),
    Message('note_on', channel=0, note=35, velocity=0, time=240),
    Message('note_on', channel=0, note=38, velocity=100, time=0),
    Message('note_on', channel=0, note=38, velocity=0, time=120),
    Message('note_on', channel=0, note=39, velocity=100, time=0),
    Message('note_on', channel=0, note=39, velocity=0, time=120),
    Message('note_on', channel=0, note=40, velocity=100, time=0),
    Message('note_on', channel=0, note=40, velocity=0, time=240),
    Message('note_on', channel=0, note=40, velocity=100, time=0),
    Message('note_on', channel=0, note=40, velocity=0, time=120),
    Message('note_on', channel=0, note=41, velocity=100, time=0),
    Message('note_on', channel=0, note=41, velocity=0, time=120),
    Message('note_on', channel=0, note=42, velocity=100, time=0),
    Message('note_on', channel=0, note=42, velocity=0, time=240),
    Message('note_on', channel=0, note=45, velocity=100, time=0),
    Message('note_on', channel=0, note=45, velocity=0, time=120),
    Message('note_on', channel=0, note=46, velocity=100, time=0),
    Message('note_on', channel=0, note=46, velocity=0, time=120),
    Message('note_on', channel=0, note=47, velocity=100, time=0),
    Message('note_on', channel=0, note=47, velocity=0, time=240),
    Message('note_on', channel=0, note=35, velocity=100, time=0),
    Message('note_on', channel=0, note=35, velocity=0, time=240),
    Message('note_on', channel=0, note=35, velocity=100, time=0),
    Message('note_on', channel=0, note=35, velocity=0, time=240),
    Message('note_on', channel=0, note=38, velocity=100, time=0),
    Message('note_on', channel=0, note=38, velocity=0, time=120),
    Message('note_on', channel=0, note=39, velocity=100, time=0),
    Message('note_on', channel=0, note=39, velocity=0, time=120),
    Message('note_on', channel=0, note=40, velocity=100, time=0),
    Message('note_on', channel=0, note=40, velocity=0, time=240),
    Message('note_on', channel=0, note=40, velocity=100, time=0),
    Message('note_on', channel=0, note=40, velocity=0, time=120),
    Message('note_on', channel=0, note=41, velocity=100, time=0),
    Message('note_on', channel=0, note=41, velocity=0, time=120),
    Message('note_on', channel=0, note=42, velocity=100, time=0),
    Message('note_on', channel=0, note=42, velocity=0, time=240),
    Message('note_on', channel=0, note=45, velocity=100, time=0),
    Message('note_on', channel=0, note=45, velocity=0, time=120),
    Message('note_on', channel=0, note=46, velocity=100, time=0),
    Message('note_on', channel=0, note=46, velocity=0, time=120),
    Message('note_on', channel=0, note=47, velocity=100, time=0),
    Message('note_on', channel=0, note=47, velocity=0, time=240),
    Message('note_on', channel=0, note=35, velocity=100, time=0),
    Message('note_on', channel=0, note=35, velocity=0, time=240),
    Message('note_on', channel=0, note=35, velocity=100, time=0),
    Message('note_on', channel=0, note=35, velocity=0, time=240),
    Message('note_on', channel=0, note=38, velocity=100, time=0),
    Message('note_on', channel=0, note=38, velocity=0, time=120),
    Message('note_on', channel=0, note=39, velocity=100, time=0),
    Message('note_on', channel=0, note=39, velocity=0, time=120),
    Message('note_on', channel=0, note=40, velocity=100, time=0),
    Message('note_on', channel=0, note=40, velocity=0, time=240),
    Message('note_on', channel=0, note=40, velocity=100, time=0),
    Message('note_on', channel=0, note=40, velocity=0, time=120),
    Message('note_on', channel=0, note=41, velocity=100, time=0),
    Message('note_on', channel=0, note=41, velocity=0, time=120),
    Message('note_on', channel=0, note=42, velocity=100, time=0),
    Message('note_on', channel=0, note=42, velocity=0, time=240),
    Message('pitchwheel', channel=0, pitch=0, time=480),
    Message('note_on', channel=0, note=35, velocity=100, time=0),
    Message('note_on', channel=0, note=35, velocity=0, time=480),
    Message('note_on', channel=0, note=38, velocity=100, time=0),
    Message('pitchwheel', channel=0, pitch=1365, time=167),
    Message('pitchwheel', channel=0, pitch=0, time=60),
    Message('note_on', channel=0, note=38, velocity=0, time=253),
    Message('note_on', channel=0, note=38, velocity=100, time=0),
    Message('pitchwheel', channel=0, pitch=1365, time=180),
    Message('note_on', channel=0, note=38, velocity=0, time=60),
    Message('pitchwheel', channel=0, pitch=0, time=0),
    Message('note_on', channel=0, note=40, velocity=100, time=0),
    Message('note_on', channel=0, note=40, velocity=0, time=240),
    Message('note_on', channel=0, note=40, velocity=100, time=0),
    Message('note_on', channel=0, note=40, velocity=0, time=480),
    Message('note_on', channel=0, note=43, velocity=100, time=0),
    Message('note_on', channel=0, note=43, velocity=0, time=120),
    Message('note_on', channel=0, note=42, velocity=100, time=0),
    Message('note_on', channel=0, note=42, velocity=0, time=120),
    Message('note_on', channel=0, note=43, velocity=100, time=0),
    Message('note_on', channel=0, note=43, velocity=0, time=120),
    Message('note_on', channel=0, note=42, velocity=100, time=0),
    Message('note_on', channel=0, note=42, velocity=0, time=120),
    Message('note_on', channel=0, note=43, velocity=100, time=0),
    Message('note_on', channel=0, note=43, velocity=0, time=120),
    Message('note_on', channel=0, note=42, velocity=100, time=0),
    Message('pitchwheel', channel=0, pitch=1365, time=47),
    Message('pitchwheel', channel=0, pitch=0, time=60),
    Message('note_on', channel=0, note=42, velocity=0, time=13),
    Message('note_on', channel=0, note=38, velocity=100, time=0),
    Message('note_on', channel=0, note=38, velocity=0, time=234),
    Message('note_on', channel=0, note=38, velocity=100, time=6),
    Message('pitchwheel', channel=0, pitch=1365, time=180),
    Message('note_on', channel=0, note=38, velocity=0, time=60),
    Message('pitchwheel', channel=0, pitch=0, time=0),
    Message('note_on', channel=0, note=40, velocity=100, time=0),
    Message('note_on', channel=0, note=40, velocity=0, time=240),
    Message('note_on', channel=0, note=40, velocity=100, time=0),
    Message('note_on', channel=0, note=40, velocity=0, time=480),
    Message('pitchwheel', channel=0, pitch=0, time=0),
    Message('note_on', channel=0, note=35, velocity=100, time=0),
    Message('note_on', channel=0, note=35, velocity=0, time=480),
    Message('note_on', channel=0, note=38, velocity=100, time=0),
    Message('pitchwheel', channel=0, pitch=1365, time=167),
    Message('pitchwheel', channel=0, pitch=0, time=60),
    Message('note_on', channel=0, note=38, velocity=0, time=253),
    Message('note_on', channel=0, note=38, velocity=100, time=0),
    Message('pitchwheel', channel=0, pitch=1365, time=180),
    Message('note_on', channel=0, note=38, velocity=0, time=60),
    Message('pitchwheel', channel=0, pitch=0, time=0),
    Message('note_on', channel=0, note=40, velocity=100, time=0),
    Message('note_on', channel=0, note=40, velocity=0, time=240),
    Message('note_on', channel=0, note=40, velocity=100, time=0),
    Message('note_on', channel=0, note=40, velocity=0, time=480),
    Message('note_on', channel=0, note=43, velocity=100, time=0),
    Message('note_on', channel=0, note=43, velocity=0, time=120),
    Message('note_on', channel=0, note=42, velocity=100, time=0),
    Message('note_on', channel=0, note=42, velocity=0, time=120),
    Message('note_on', channel=0, note=43, velocity=100, time=0),
    Message('note_on', channel=0, note=43, velocity=0, time=120),
    Message('note_on', channel=0, note=42, velocity=100, time=0),
    Message('note_on', channel=0, note=42, velocity=0, time=120),
    Message('note_on', channel=0, note=43, velocity=100, time=0),
    Message('note_on', channel=0, note=43, velocity=0, time=120),
    Message('note_on', channel=0, note=42, velocity=100, time=0),
    Message('pitchwheel', channel=0, pitch=1365, time=47),
    Message('pitchwheel', channel=0, pitch=0, time=60),
    Message('note_on', channel=0, note=42, velocity=0, time=13),
    Message('note_on', channel=0, note=38, velocity=100, time=0),
    Message('note_on', channel=0, note=38, velocity=0, time=234),
    Message('note_on', channel=0, note=38, velocity=100, time=6),
    Message('pitchwheel', channel=0, pitch=1365, time=180),
    Message('note_on', channel=0, note=38, velocity=0, time=60),
    Message('pitchwheel', channel=0, pitch=0, time=0),
    Message('note_on', channel=0, note=40, velocity=100, time=0),
    Message('note_on', channel=0, note=40, velocity=0, time=240),
    Message('note_on', channel=0, note=40, velocity=100, time=0),
    Message('note_on', channel=0, note=40, velocity=0, time=480),
    Message('pitchwheel', channel=0, pitch=0, time=0),
    Message('note_on', channel=0, note=35, velocity=100, time=0),
    Message('note_on', channel=0, note=35, velocity=0, time=480),
    Message('note_on', channel=0, note=38, velocity=100, time=0),
    Message('pitchwheel', channel=0, pitch=1365, time=167),
    Message('pitchwheel', channel=0, pitch=0, time=60),
    Message('note_on', channel=0, note=38, velocity=0, time=253),
    Message('note_on', channel=0, note=38, velocity=100, time=0),
    Message('pitchwheel', channel=0, pitch=1365, time=180),
    Message('note_on', channel=0, note=38, velocity=0, time=60),
    Message('pitchwheel', channel=0, pitch=0, time=0),
    Message('note_on', channel=0, note=40, velocity=100, time=0),
    Message('note_on', channel=0, note=40, velocity=0, time=240),
    Message('note_on', channel=0, note=40, velocity=100, time=0),
    Message('note_on', channel=0, note=40, velocity=0, time=480),
    Message('note_on', channel=0, note=43, velocity=100, time=0),
    Message('note_on', channel=0, note=43, velocity=0, time=120),
    Message('note_on', channel=0, note=42, velocity=100, time=0),
    Message('note_on', channel=0, note=42, velocity=0, time=120),
    Message('note_on', channel=0, note=43, velocity=100, time=0),
    Message('note_on', channel=0, note=43, velocity=0, time=120),
    Message('note_on', channel=0, note=42, velocity=100, time=0),
    Message('note_on', channel=0, note=42, velocity=0, time=120),
    Message('note_on', channel=0, note=43, velocity=100, time=0),
    Message('note_on', channel=0, note=43, velocity=0, time=120),
    Message('note_on', channel=0, note=42, velocity=100, time=0),
    Message('pitchwheel', channel=0, pitch=1365, time=47),
    Message('pitchwheel', channel=0, pitch=0, time=60),
    Message('note_on', channel=0, note=42, velocity=0, time=13),
    Message('note_on', channel=0, note=38, velocity=100, time=0),
    Message('note_on', channel=0, note=38, velocity=0, time=234),
    Message('note_on', channel=0, note=38, velocity=100, time=6),
    Message('pitchwheel', channel=0, pitch=1365, time=180),
    Message('note_on', channel=0, note=38, velocity=0, time=60),
    Message('pitchwheel', channel=0, pitch=0, time=0),
    Message('note_on', channel=0, note=40, velocity=100, time=0),
    Message('note_on', channel=0, note=40, velocity=0, time=240),
    Message('note_on', channel=0, note=40, velocity=100, time=0),
    Message('note_on', channel=0, note=40, velocity=0, time=480),
    Message('pitchwheel', channel=0, pitch=0, time=0),
    Message('note_on', channel=0, note=35, velocity=100, time=0),
    Message('note_on', channel=0, note=35, velocity=0, time=480),
    Message('note_on', channel=0, note=38, velocity=100, time=0),
    Message('pitchwheel', channel=0, pitch=1365, time=167),
    Message('pitchwheel', channel=0, pitch=0, time=60),
    Message('note_on', channel=0, note=38, velocity=0, time=253),
    Message('note_on', channel=0, note=38, velocity=100, time=0),
    Message('pitchwheel', channel=0, pitch=1365, time=180),
    Message('note_on', channel=0, note=38, velocity=0, time=60),
    Message('pitchwheel', channel=0, pitch=0, time=0),
    Message('note_on', channel=0, note=40, velocity=100, time=0),
    Message('note_on', channel=0, note=40, velocity=0, time=240),
    Message('note_on', channel=0, note=40, velocity=100, time=0),
    Message('note_on', channel=0, note=40, velocity=0, time=480),
    Message('note_on', channel=0, note=43, velocity=100, time=0),
    Message('note_on', channel=0, note=43, velocity=0, time=120),
    Message('note_on', channel=0, note=42, velocity=100, time=0),
    Message('note_on', channel=0, note=42, velocity=0, time=120),
    Message('note_on', channel=0, note=43, velocity=100, time=0),
    Message('note_on', channel=0, note=43, velocity=0, time=120),
    Message('note_on', channel=0, note=42, velocity=100, time=0),
    Message('note_on', channel=0, note=42, velocity=0, time=120),
    Message('note_on', channel=0, note=43, velocity=100, time=0),
    Message('note_on', channel=0, note=43, velocity=0, time=120),
    Message('note_on', channel=0, note=42, velocity=100, time=0),
    Message('pitchwheel', channel=0, pitch=1365, time=47),
    Message('pitchwheel', channel=0, pitch=0, time=60),
    Message('note_on', channel=0, note=42, velocity=0, time=13),
    Message('note_on', channel=0, note=38, velocity=100, time=0),
    Message('note_on', channel=0, note=38, velocity=0, time=234),
    Message('note_on', channel=0, note=38, velocity=100, time=6),
    Message('pitchwheel', channel=0, pitch=1365, time=180),
    Message('note_on', channel=0, note=38, velocity=0, time=60),
    Message('pitchwheel', channel=0, pitch=0, time=0),
    Message('note_on', channel=0, note=40, velocity=100, time=0),
    Message('note_on', channel=0, note=40, velocity=0, time=240),
    Message('note_on', channel=0, note=40, velocity=100, time=0),
    Message('note_on', channel=0, note=40, velocity=0, time=480),
    Message('note_on', channel=0, note=35, velocity=100, time=0),
    Message('note_on', channel=0, note=35, velocity=0, time=240),
    Message('note_on', channel=0, note=35, velocity=100, time=0),
    Message('note_on', channel=0, note=35, velocity=0, time=480),
    Message('note_on', channel=0, note=38, velocity=100, time=0),
    Message('note_on', channel=0, note=38, velocity=0, time=480),
    Message('note_on', channel=0, note=35, velocity=100, time=0),
    Message('note_on', channel=0, note=35, velocity=0, time=240),
    Message('note_on', channel=0, note=35, velocity=100, time=0),
    Message('note_on', channel=0, note=35, velocity=0, time=240),
    Message('note_on', channel=0, note=34, velocity=100, time=0),
    Message('note_on', channel=0, note=34, velocity=0, time=240),
    Message('note_on', channel=0, note=33, velocity=100, time=0),
    Message('note_on', channel=0, note=33, velocity=0, time=240),
    Message('note_on', channel=0, note=33, velocity=100, time=0),
    Message('note_on', channel=0, note=33, velocity=0, time=240),
    Message('note_on', channel=0, note=33, velocity=100, time=0),
    Message('note_on', channel=0, note=33, velocity=0, time=60),
    Message('note_on', channel=0, note=33, velocity=100, time=60),
    Message('note_on', channel=0, note=33, velocity=0, time=60),
    Message('note_on', channel=0, note=33, velocity=100, time=60),
    Message('note_on', channel=0, note=33, velocity=0, time=60),
    Message('note_on', channel=0, note=32, velocity=100, time=60),
    Message('note_on', channel=0, note=32, velocity=0, time=120),
    Message('note_on', channel=0, note=32, velocity=100, time=0),
    Message('note_on', channel=0, note=32, velocity=0, time=120),
    Message('note_on', channel=0, note=33, velocity=100, time=0),
    Message('note_on', channel=0, note=33, velocity=0, time=120),
    Message('note_on', channel=0, note=33, velocity=100, time=0),
    Message('note_on', channel=0, note=33, velocity=0, time=240),
    Message('note_on', channel=0, note=33, velocity=100, time=0),
    Message('note_on', channel=0, note=33, velocity=0, time=240),
    Message('note_on', channel=0, note=34, velocity=100, time=0),
    Message('note_on', channel=0, note=34, velocity=0, time=240),
    Message('note_on', channel=0, note=35, velocity=100, time=0),
    Message('note_on', channel=0, note=35, velocity=0, time=240),
    Message('note_on', channel=0, note=35, velocity=100, time=0),
    Message('note_on', channel=0, note=35, velocity=0, time=480),
    Message('note_on', channel=0, note=38, velocity=100, time=0),
    Message('note_on', channel=0, note=38, velocity=0, time=480),
    Message('note_on', channel=0, note=35, velocity=100, time=0),
    Message('note_on', channel=0, note=35, velocity=0, time=240),
    Message('note_on', channel=0, note=35, velocity=100, time=0),
    Message('note_on', channel=0, note=35, velocity=0, time=240),
    Message('note_on', channel=0, note=34, velocity=100, time=0),
    Message('note_on', channel=0, note=34, velocity=0, time=240),
    Message('note_on', channel=0, note=33, velocity=100, time=0),
    Message('note_on', channel=0, note=33, velocity=0, time=240),
    Message('note_on', channel=0, note=33, velocity=100, time=0),
    Message('note_on', channel=0, note=33, velocity=0, time=240),
    Message('note_on', channel=0, note=33, velocity=100, time=0),
    Message('note_on', channel=0, note=33, velocity=0, time=60),
    Message('note_on', channel=0, note=33, velocity=100, time=60),
    Message('note_on', channel=0, note=33, velocity=0, time=60),
    Message('note_on', channel=0, note=33, velocity=100, time=60),
    Message('note_on', channel=0, note=33, velocity=0, time=60),
    Message('note_on', channel=0, note=32, velocity=100, time=60),
    Message('note_on', channel=0, note=32, velocity=0, time=120),
    Message('note_on', channel=0, note=32, velocity=100, time=0),
    Message('note_on', channel=0, note=32, velocity=0, time=120),
    Message('note_on', channel=0, note=33, velocity=100, time=0),
    Message('note_on', channel=0, note=33, velocity=0, time=120),
    Message('note_on', channel=0, note=33, velocity=100, time=0),
    Message('note_on', channel=0, note=33, velocity=0, time=240),
    Message('note_on', channel=0, note=33, velocity=100, time=0),
    Message('note_on', channel=0, note=33, velocity=0, time=240),
    Message('note_on', channel=0, note=34, velocity=100, time=0),
    Message('note_on', channel=0, note=34, velocity=0, time=240),
    Message('note_on', channel=0, note=35, velocity=100, time=0),
    Message('note_on', channel=0, note=35, velocity=0, time=240),
    Message('note_on', channel=0, note=35, velocity=100, time=0),
    Message('note_on', channel=0, note=35, velocity=0, time=480),
    Message('note_on', channel=0, note=38, velocity=100, time=0),
    Message('note_on', channel=0, note=38, velocity=0, time=480),
    Message('note_on', channel=0, note=35, velocity=100, time=0),
    Message('note_on', channel=0, note=35, velocity=0, time=240),
    Message('note_on', channel=0, note=35, velocity=100, time=0),
    Message('note_on', channel=0, note=35, velocity=0, time=240),
    Message('note_on', channel=0, note=34, velocity=100, time=0),
    Message('note_on', channel=0, note=34, velocity=0, time=240),
    Message('note_on', channel=0, note=33, velocity=100, time=0),
    Message('note_on', channel=0, note=33, velocity=0, time=240),
    Message('note_on', channel=0, note=33, velocity=100, time=0),
    Message('note_on', channel=0, note=33, velocity=0, time=240),
    Message('note_on', channel=0, note=33, velocity=100, time=0),
    Message('note_on', channel=0, note=33, velocity=0, time=240),
    Message('note_on', channel=0, note=30, velocity=75, time=5040),
    Message('note_on', channel=0, note=30, velocity=0, time=3840),
    Message('note_on', channel=0, note=30, velocity=75, time=0),
    Message('note_on', channel=0, note=30, velocity=0, time=3840),
    Message('pitchwheel', channel=0, pitch=0, time=0),
    Message('note_on', channel=0, note=40, velocity=100, time=0),
    Message('note_on', channel=0, note=40, velocity=0, time=960),
    Message('note_on', channel=0, note=38, velocity=100, time=0),
    Message('note_on', channel=0, note=38, velocity=0, time=960),
    Message('note_on', channel=0, note=37, velocity=100, time=0),
    Message('note_on', channel=0, note=37, velocity=0, time=960),
    Message('note_on', channel=0, note=36, velocity=100, time=0),
    Message('note_on', channel=0, note=36, velocity=0, time=960),
    Message('pitchwheel', channel=0, pitch=0, time=0),
    Message('note_on', channel=0, note=40, velocity=100, time=0),
    Message('note_on', channel=0, note=40, velocity=0, time=960),
    Message('note_on', channel=0, note=38, velocity=100, time=0),
    Message('note_on', channel=0, note=38, velocity=0, time=960),
    Message('note_on', channel=0, note=37, velocity=100, time=0),
    Message('note_on', channel=0, note=37, velocity=0, time=960),
    Message('note_on', channel=0, note=36, velocity=100, time=0),
    Message('note_on', channel=0, note=36, velocity=0, time=960),
    Message('pitchwheel', channel=0, pitch=0, time=0),
    Message('note_on', channel=0, note=40, velocity=100, time=0),
    Message('note_on', channel=0, note=40, velocity=0, time=960),
    Message('note_on', channel=0, note=38, velocity=100, time=0),
    Message('note_on', channel=0, note=38, velocity=0, time=960),
    Message('note_on', channel=0, note=37, velocity=100, time=0),
    Message('note_on', channel=0, note=37, velocity=0, time=960),
    Message('note_on', channel=0, note=36, velocity=100, time=0),
    Message('note_on', channel=0, note=36, velocity=0, time=960),
    Message('pitchwheel', channel=0, pitch=0, time=0),
    Message('note_on', channel=0, note=40, velocity=100, time=0),
    Message('note_on', channel=0, note=40, velocity=0, time=960),
    Message('note_on', channel=0, note=38, velocity=100, time=0),
    Message('note_on', channel=0, note=38, velocity=0, time=960),
    Message('note_on', channel=0, note=37, velocity=100, time=0),
    Message('note_on', channel=0, note=37, velocity=0, time=960),
    Message('note_on', channel=0, note=36, velocity=100, time=0),
    Message('note_on', channel=0, note=36, velocity=0, time=960),
    Message('pitchwheel', channel=0, pitch=0, time=0),
    Message('note_on', channel=0, note=40, velocity=100, time=0),
    Message('note_on', channel=0, note=40, velocity=0, time=960),
    Message('note_on', channel=0, note=38, velocity=100, time=0),
    Message('note_on', channel=0, note=38, velocity=0, time=960),
    Message('note_on', channel=0, note=37, velocity=100, time=0),
    Message('note_on', channel=0, note=37, velocity=0, time=960),
    Message('note_on', channel=0, note=36, velocity=100, time=0),
    Message('note_on', channel=0, note=36, velocity=0, time=960),
    Message('pitchwheel', channel=0, pitch=0, time=0),
    Message('note_on', channel=0, note=40, velocity=100, time=0),
    Message('note_on', channel=0, note=40, velocity=0, time=960),
    Message('note_on', channel=0, note=38, velocity=100, time=0),
    Message('note_on', channel=0, note=38, velocity=0, time=960),
    Message('note_on', channel=0, note=37, velocity=100, time=0),
    Message('note_on', channel=0, note=37, velocity=0, time=960),
    Message('note_on', channel=0, note=36, velocity=100, time=0),
    Message('note_on', channel=0, note=36, velocity=0, time=960),
    Message('pitchwheel', channel=0, pitch=0, time=0),
    Message('note_on', channel=0, note=40, velocity=100, time=0),
    Message('note_on', channel=0, note=40, velocity=0, time=960),
    Message('note_on', channel=0, note=38, velocity=100, time=0),
    Message('note_on', channel=0, note=38, velocity=0, time=960),
    Message('note_on', channel=0, note=37, velocity=100, time=0),
    Message('note_on', channel=0, note=37, velocity=0, time=960),
    Message('note_on', channel=0, note=36, velocity=100, time=0),
    Message('note_on', channel=0, note=36, velocity=0, time=960),
    Message('pitchwheel', channel=0, pitch=0, time=0),
    Message('note_on', channel=0, note=40, velocity=100, time=0),
    Message('note_on', channel=0, note=40, velocity=0, time=960),
    Message('note_on', channel=0, note=38, velocity=100, time=0),
    Message('note_on', channel=0, note=38, velocity=0, time=960),
    Message('note_on', channel=0, note=37, velocity=100, time=0),
    Message('note_on', channel=0, note=37, velocity=0, time=960),
    Message('note_on', channel=0, note=36, velocity=100, time=0),
    Message('note_on', channel=0, note=36, velocity=0, time=960),
    Message('pitchwheel', channel=0, pitch=0, time=0),
    Message('note_on', channel=0, note=40, velocity=100, time=0),
    Message('note_on', channel=0, note=40, velocity=0, time=960),
    Message('note_on', channel=0, note=38, velocity=100, time=0),
    Message('note_on', channel=0, note=38, velocity=0, time=960),
    Message('note_on', channel=0, note=37, velocity=100, time=0),
    Message('note_on', channel=0, note=37, velocity=0, time=960),
    Message('note_on', channel=0, note=36, velocity=100, time=0),
    Message('note_on', channel=0, note=36, velocity=0, time=960),
    Message('pitchwheel', channel=0, pitch=0, time=0),
    Message('note_on', channel=0, note=40, velocity=100, time=0),
    Message('note_on', channel=0, note=40, velocity=0, time=960),
    Message('note_on', channel=0, note=38, velocity=100, time=0),
    Message('note_on', channel=0, note=38, velocity=0, time=960),
    Message('note_on', channel=0, note=36, velocity=100, time=0),
    Message('note_on', channel=0, note=36, velocity=0, time=960),
    Message('note_on', channel=0, note=42, velocity=100, time=0),
    Message('note_on', channel=0, note=42, velocity=0, time=160),
    Message('note_on', channel=0, note=43, velocity=100, time=0),
    Message('note_on', channel=0, note=43, velocity=0, time=160),
    Message('note_on', channel=0, note=42, velocity=100, time=0),
    Message('note_on', channel=0, note=42, velocity=0, time=160),
    Message('note_on', channel=0, note=43, velocity=100, time=0),
    Message('note_on', channel=0, note=43, velocity=0, time=160),
    Message('note_on', channel=0, note=42, velocity=100, time=0),
    Message('note_on', channel=0, note=42, velocity=0, time=160),
    Message('note_on', channel=0, note=38, velocity=100, time=0),
    Message('note_on', channel=0, note=38, velocity=0, time=160),
    Message('pitchwheel', channel=0, pitch=0, time=0),
    Message('note_on', channel=0, note=40, velocity=100, time=0),
    Message('note_on', channel=0, note=40, velocity=0, time=960),
    Message('note_on', channel=0, note=38, velocity=100, time=0),
    Message('note_on', channel=0, note=38, velocity=0, time=960),
    Message('note_on', channel=0, note=36, velocity=100, time=0),
    Message('note_on', channel=0, note=36, velocity=0, time=960),
    Message('note_on', channel=0, note=42, velocity=100, time=0),
    Message('note_on', channel=0, note=42, velocity=0, time=160),
    Message('note_on', channel=0, note=43, velocity=100, time=0),
    Message('note_on', channel=0, note=43, velocity=0, time=160),
    Message('note_on', channel=0, note=42, velocity=100, time=0),
    Message('note_on', channel=0, note=42, velocity=0, time=160),
    Message('note_on', channel=0, note=43, velocity=100, time=0),
    Message('note_on', channel=0, note=43, velocity=0, time=160),
    Message('note_on', channel=0, note=42, velocity=100, time=0),
    Message('note_on', channel=0, note=42, velocity=0, time=160),
    Message('note_on', channel=0, note=38, velocity=100, time=0),
    Message('note_on', channel=0, note=38, velocity=0, time=160),
    Message('pitchwheel', channel=0, pitch=0, time=0),
    Message('note_on', channel=0, note=40, velocity=100, time=0),
    Message('note_on', channel=0, note=40, velocity=0, time=960),
    Message('note_on', channel=0, note=38, velocity=100, time=0),
    Message('note_on', channel=0, note=38, velocity=0, time=960),
    Message('note_on', channel=0, note=36, velocity=100, time=0),
    Message('note_on', channel=0, note=36, velocity=0, time=960),
    Message('note_on', channel=0, note=30, velocity=100, time=0),
    Message('note_on', channel=0, note=30, velocity=0, time=160),
    Message('note_on', channel=0, note=31, velocity=100, time=0),
    Message('note_on', channel=0, note=31, velocity=0, time=160),
    Message('note_on', channel=0, note=30, velocity=100, time=0),
    Message('note_on', channel=0, note=30, velocity=0, time=160),
    Message('note_on', channel=0, note=31, velocity=100, time=0),
    Message('note_on', channel=0, note=31, velocity=0, time=160),
    Message('note_on', channel=0, note=30, velocity=100, time=0),
    Message('note_on', channel=0, note=30, velocity=0, time=160),
    Message('note_on', channel=0, note=38, velocity=100, time=0),
    Message('note_on', channel=0, note=38, velocity=0, time=160),
    Message('note_on', channel=0, note=28, velocity=100, time=0),
    Message('note_on', channel=0, note=28, velocity=0, time=240),
    MetaMessage('end_of_track', time=0)]),
  MidiTrack([
    MetaMessage('track_name', name='Vocal', time=0),
    Message('control_change', channel=1, control=0, value=121, time=0),
    Message('control_change', channel=1, control=7, value=110, time=0),
    Message('control_change', channel=1, control=10, value=64, time=0),
    Message('control_change', channel=1, control=91, value=24, time=0),
    Message('control_change', channel=1, control=93, value=40, time=0),
    Message('control_change', channel=1, control=32, value=0, time=0),
    Message('program_change', channel=1, program=56, time=1),
    Message('note_on', channel=1, note=71, velocity=100, time=23039),
    Message('note_on', channel=1, note=71, velocity=0, time=480),
    Message('note_on', channel=1, note=74, velocity=100, time=0),
    Message('note_on', channel=1, note=74, velocity=0, time=480),
    Message('note_on', channel=1, note=74, velocity=100, time=0),
    Message('note_on', channel=1, note=74, velocity=0, time=240),
    Message('note_on', channel=1, note=76, velocity=100, time=0),
    Message('note_on', channel=1, note=76, velocity=0, time=240),
    Message('note_on', channel=1, note=76, velocity=100, time=0),
    Message('note_on', channel=1, note=76, velocity=0, time=240),
    Message('note_on', channel=1, note=79, velocity=100, time=240),
    Message('note_on', channel=1, note=79, velocity=0, time=120),
    Message('note_on', channel=1, note=78, velocity=100, time=0),
    Message('note_on', channel=1, note=78, velocity=0, time=120),
    Message('note_on', channel=1, note=79, velocity=100, time=0),
    Message('note_on', channel=1, note=79, velocity=0, time=120),
    Message('note_on', channel=1, note=78, velocity=100, time=0),
    Message('note_on', channel=1, note=78, velocity=0, time=120),
    Message('note_on', channel=1, note=79, velocity=100, time=0),
    Message('note_on', channel=1, note=79, velocity=0, time=120),
    Message('note_on', channel=1, note=78, velocity=100, time=0),
    Message('note_on', channel=1, note=78, velocity=0, time=120),
    Message('note_on', channel=1, note=74, velocity=100, time=0),
    Message('note_on', channel=1, note=74, velocity=0, time=234),
    Message('note_on', channel=1, note=74, velocity=100, time=6),
    Message('note_on', channel=1, note=74, velocity=0, time=240),
    Message('note_on', channel=1, note=76, velocity=100, time=0),
    Message('note_on', channel=1, note=76, velocity=0, time=240),
    Message('note_on', channel=1, note=76, velocity=100, time=0),
    Message('note_on', channel=1, note=76, velocity=0, time=480),
    Message('note_on', channel=1, note=71, velocity=100, time=0),
    Message('note_on', channel=1, note=71, velocity=0, time=480),
    Message('note_on', channel=1, note=74, velocity=100, time=0),
    Message('note_on', channel=1, note=74, velocity=0, time=480),
    Message('note_on', channel=1, note=74, velocity=100, time=0),
    Message('note_on', channel=1, note=74, velocity=0, time=240),
    Message('note_on', channel=1, note=76, velocity=100, time=0),
    Message('note_on', channel=1, note=76, velocity=0, time=240),
    Message('note_on', channel=1, note=76, velocity=100, time=0),
    Message('note_on', channel=1, note=76, velocity=0, time=240),
    Message('note_on', channel=1, note=79, velocity=100, time=240),
    Message('note_on', channel=1, note=79, velocity=0, time=120),
    Message('note_on', channel=1, note=78, velocity=100, time=0),
    Message('note_on', channel=1, note=78, velocity=0, time=120),
    Message('note_on', channel=1, note=79, velocity=100, time=0),
    Message('note_on', channel=1, note=79, velocity=0, time=120),
    Message('note_on', channel=1, note=78, velocity=100, time=0),
    Message('note_on', channel=1, note=78, velocity=0, time=120),
    Message('note_on', channel=1, note=79, velocity=100, time=0),
    Message('note_on', channel=1, note=79, velocity=0, time=120),
    Message('note_on', channel=1, note=78, velocity=100, time=0),
    Message('note_on', channel=1, note=78, velocity=0, time=120),
    Message('note_on', channel=1, note=74, velocity=100, time=0),
    Message('note_on', channel=1, note=74, velocity=0, time=234),
    Message('note_on', channel=1, note=74, velocity=100, time=6),
    Message('note_on', channel=1, note=74, velocity=0, time=240),
    Message('note_on', channel=1, note=76, velocity=100, time=0),
    Message('note_on', channel=1, note=76, velocity=0, time=240),
    Message('note_on', channel=1, note=76, velocity=100, time=0),
    Message('note_on', channel=1, note=76, velocity=0, time=480),
    Message('note_on', channel=1, note=71, velocity=100, time=3840),
    Message('note_on', channel=1, note=71, velocity=0, time=480),
    Message('note_on', channel=1, note=74, velocity=100, time=0),
    Message('note_on', channel=1, note=74, velocity=0, time=480),
    Message('note_on', channel=1, note=74, velocity=100, time=0),
    Message('note_on', channel=1, note=74, velocity=0, time=240),
    Message('note_on', channel=1, note=76, velocity=100, time=0),
    Message('note_on', channel=1, note=76, velocity=0, time=240),
    Message('note_on', channel=1, note=76, velocity=100, time=0),
    Message('note_on', channel=1, note=76, velocity=0, time=240),
    Message('note_on', channel=1, note=79, velocity=100, time=240),
    Message('note_on', channel=1, note=79, velocity=0, time=120),
    Message('note_on', channel=1, note=78, velocity=100, time=0),
    Message('note_on', channel=1, note=78, velocity=0, time=120),
    Message('note_on', channel=1, note=79, velocity=100, time=0),
    Message('note_on', channel=1, note=79, velocity=0, time=120),
    Message('note_on', channel=1, note=78, velocity=100, time=0),
    Message('note_on', channel=1, note=78, velocity=0, time=120),
    Message('note_on', channel=1, note=79, velocity=100, time=0),
    Message('note_on', channel=1, note=79, velocity=0, time=120),
    Message('note_on', channel=1, note=78, velocity=100, time=0),
    Message('note_on', channel=1, note=78, velocity=0, time=120),
    Message('note_on', channel=1, note=74, velocity=100, time=0),
    Message('note_on', channel=1, note=74, velocity=0, time=234),
    Message('note_on', channel=1, note=74, velocity=100, time=6),
    Message('note_on', channel=1, note=74, velocity=0, time=240),
    Message('note_on', channel=1, note=76, velocity=100, time=0),
    Message('note_on', channel=1, note=76, velocity=0, time=240),
    Message('note_on', channel=1, note=76, velocity=100, time=0),
    Message('note_on', channel=1, note=76, velocity=0, time=480),
    Message('note_on', channel=1, note=71, velocity=100, time=0),
    Message('note_on', channel=1, note=71, velocity=0, time=480),
    Message('note_on', channel=1, note=74, velocity=100, time=0),
    Message('note_on', channel=1, note=74, velocity=0, time=480),
    Message('note_on', channel=1, note=74, velocity=100, time=0),
    Message('note_on', channel=1, note=74, velocity=0, time=240),
    Message('note_on', channel=1, note=76, velocity=100, time=0),
    Message('note_on', channel=1, note=76, velocity=0, time=240),
    Message('note_on', channel=1, note=76, velocity=100, time=0),
    Message('note_on', channel=1, note=76, velocity=0, time=240),
    Message('note_on', channel=1, note=79, velocity=100, time=240),
    Message('note_on', channel=1, note=79, velocity=0, time=120),
    Message('note_on', channel=1, note=78, velocity=100, time=0),
    Message('note_on', channel=1, note=78, velocity=0, time=120),
    Message('note_on', channel=1, note=79, velocity=100, time=0),
    Message('note_on', channel=1, note=79, velocity=0, time=120),
    Message('note_on', channel=1, note=78, velocity=100, time=0),
    Message('note_on', channel=1, note=78, velocity=0, time=120),
    Message('note_on', channel=1, note=79, velocity=100, time=0),
    Message('note_on', channel=1, note=79, velocity=0, time=120),
    Message('note_on', channel=1, note=78, velocity=100, time=0),
    Message('note_on', channel=1, note=78, velocity=0, time=120),
    Message('note_on', channel=1, note=74, velocity=100, time=0),
    Message('note_on', channel=1, note=74, velocity=0, time=234),
    Message('note_on', channel=1, note=74, velocity=100, time=6),
    Message('note_on', channel=1, note=74, velocity=0, time=240),
    Message('note_on', channel=1, note=76, velocity=100, time=0),
    Message('note_on', channel=1, note=76, velocity=0, time=240),
    Message('note_on', channel=1, note=76, velocity=100, time=0),
    Message('note_on', channel=1, note=76, velocity=0, time=480),
    Message('note_on', channel=1, note=71, velocity=100, time=19200),
    Message('note_on', channel=1, note=71, velocity=0, time=480),
    Message('note_on', channel=1, note=74, velocity=100, time=0),
    Message('note_on', channel=1, note=74, velocity=0, time=480),
    Message('note_on', channel=1, note=74, velocity=100, time=0),
    Message('note_on', channel=1, note=74, velocity=0, time=240),
    Message('note_on', channel=1, note=76, velocity=100, time=0),
    Message('note_on', channel=1, note=76, velocity=0, time=240),
    Message('note_on', channel=1, note=76, velocity=100, time=0),
    Message('note_on', channel=1, note=76, velocity=0, time=240),
    Message('note_on', channel=1, note=79, velocity=100, time=240),
    Message('note_on', channel=1, note=79, velocity=0, time=120),
    Message('note_on', channel=1, note=78, velocity=100, time=0),
    Message('note_on', channel=1, note=78, velocity=0, time=120),
    Message('note_on', channel=1, note=79, velocity=100, time=0),
    Message('note_on', channel=1, note=79, velocity=0, time=120),
    Message('note_on', channel=1, note=78, velocity=100, time=0),
    Message('note_on', channel=1, note=78, velocity=0, time=120),
    Message('note_on', channel=1, note=79, velocity=100, time=0),
    Message('note_on', channel=1, note=79, velocity=0, time=120),
    Message('note_on', channel=1, note=78, velocity=100, time=0),
    Message('note_on', channel=1, note=78, velocity=0, time=120),
    Message('note_on', channel=1, note=74, velocity=100, time=0),
    Message('note_on', channel=1, note=74, velocity=0, time=234),
    Message('note_on', channel=1, note=74, velocity=100, time=6),
    Message('note_on', channel=1, note=74, velocity=0, time=240),
    Message('note_on', channel=1, note=76, velocity=100, time=0),
    Message('note_on', channel=1, note=76, velocity=0, time=240),
    Message('note_on', channel=1, note=76, velocity=100, time=0),
    Message('note_on', channel=1, note=76, velocity=0, time=480),
    Message('note_on', channel=1, note=71, velocity=100, time=0),
    Message('note_on', channel=1, note=71, velocity=0, time=480),
    Message('note_on', channel=1, note=74, velocity=100, time=0),
    Message('note_on', channel=1, note=74, velocity=0, time=480),
    Message('note_on', channel=1, note=74, velocity=100, time=0),
    Message('note_on', channel=1, note=74, velocity=0, time=240),
    Message('note_on', channel=1, note=76, velocity=100, time=0),
    Message('note_on', channel=1, note=76, velocity=0, time=240),
    Message('note_on', channel=1, note=76, velocity=100, time=0),
    Message('note_on', channel=1, note=76, velocity=0, time=240),
    Message('note_on', channel=1, note=79, velocity=100, time=240),
    Message('note_on', channel=1, note=79, velocity=0, time=120),
    Message('note_on', channel=1, note=78, velocity=100, time=0),
    Message('note_on', channel=1, note=78, velocity=0, time=120),
    Message('note_on', channel=1, note=79, velocity=100, time=0),
    Message('note_on', channel=1, note=79, velocity=0, time=120),
    Message('note_on', channel=1, note=78, velocity=100, time=0),
    Message('note_on', channel=1, note=78, velocity=0, time=120),
    Message('note_on', channel=1, note=79, velocity=100, time=0),
    Message('note_on', channel=1, note=79, velocity=0, time=120),
    Message('note_on', channel=1, note=78, velocity=100, time=0),
    Message('note_on', channel=1, note=78, velocity=0, time=120),
    Message('note_on', channel=1, note=74, velocity=100, time=0),
    Message('note_on', channel=1, note=74, velocity=0, time=234),
    Message('note_on', channel=1, note=74, velocity=100, time=6),
    Message('note_on', channel=1, note=74, velocity=0, time=240),
    Message('note_on', channel=1, note=76, velocity=100, time=0),
    Message('note_on', channel=1, note=76, velocity=0, time=240),
    Message('note_on', channel=1, note=76, velocity=100, time=0),
    Message('note_on', channel=1, note=76, velocity=0, time=480),
    Message('note_on', channel=1, note=76, velocity=100, time=960),
    Message('note_on', channel=1, note=76, velocity=0, time=120),
    Message('note_on', channel=1, note=76, velocity=100, time=0),
    Message('note_on', channel=1, note=76, velocity=0, time=120),
    Message('note_on', channel=1, note=76, velocity=100, time=0),
    Message('note_on', channel=1, note=76, velocity=0, time=120),
    Message('note_on', channel=1, note=79, velocity=100, time=0),
    Message('note_on', channel=1, note=79, velocity=0, time=240),
    Message('note_on', channel=1, note=76, velocity=100, time=0),
    Message('note_on', channel=1, note=76, velocity=0, time=240),
    Message('note_on', channel=1, note=78, velocity=100, time=1080),
    Message('note_on', channel=1, note=78, velocity=0, time=120),
    Message('note_on', channel=1, note=78, velocity=100, time=0),
    Message('note_on', channel=1, note=78, velocity=0, time=234),
    Message('note_on', channel=1, note=78, velocity=100, time=6),
    Message('note_on', channel=1, note=78, velocity=0, time=240),
    Message('note_on', channel=1, note=76, velocity=100, time=0),
    Message('note_on', channel=1, note=74, velocity=100, time=113),
    Message('note_on', channel=1, note=76, velocity=0, time=4),
    Message('note_on', channel=1, note=74, velocity=0, time=230),
    Message('note_on', channel=1, note=71, velocity=100, time=13),
    Message('note_on', channel=1, note=71, velocity=0, time=480),
    Message('note_on', channel=1, note=76, velocity=100, time=4320),
    Message('note_on', channel=1, note=76, velocity=0, time=120),
    Message('note_on', channel=1, note=76, velocity=100, time=0),
    Message('note_on', channel=1, note=76, velocity=0, time=120),
    Message('note_on', channel=1, note=76, velocity=100, time=0),
    Message('note_on', channel=1, note=76, velocity=0, time=120),
    Message('note_on', channel=1, note=79, velocity=100, time=0),
    Message('note_on', channel=1, note=79, velocity=0, time=240),
    Message('note_on', channel=1, note=76, velocity=100, time=0),
    Message('note_on', channel=1, note=76, velocity=0, time=240),
    Message('note_on', channel=1, note=78, velocity=100, time=1080),
    Message('note_on', channel=1, note=78, velocity=0, time=120),
    Message('note_on', channel=1, note=78, velocity=100, time=0),
    Message('note_on', channel=1, note=78, velocity=0, time=234),
    Message('note_on', channel=1, note=78, velocity=100, time=6),
    Message('note_on', channel=1, note=78, velocity=0, time=240),
    Message('note_on', channel=1, note=76, velocity=100, time=0),
    Message('note_on', channel=1, note=74, velocity=100, time=113),
    Message('note_on', channel=1, note=76, velocity=0, time=4),
    Message('note_on', channel=1, note=74, velocity=0, time=230),
    Message('note_on', channel=1, note=71, velocity=100, time=13),
    Message('note_on', channel=1, note=71, velocity=0, time=480),
    Message('note_on', channel=1, note=71, velocity=100, time=11040),
    Message('note_on', channel=1, note=71, velocity=0, time=480),
    Message('note_on', channel=1, note=74, velocity=100, time=0),
    Message('note_on', channel=1, note=74, velocity=0, time=480),
    Message('note_on', channel=1, note=74, velocity=100, time=0),
    Message('note_on', channel=1, note=74, velocity=0, time=240),
    Message('note_on', channel=1, note=76, velocity=100, time=0),
    Message('note_on', channel=1, note=76, velocity=0, time=240),
    Message('note_on', channel=1, note=76, velocity=100, time=0),
    Message('note_on', channel=1, note=76, velocity=0, time=240),
    Message('note_on', channel=1, note=79, velocity=100, time=240),
    Message('note_on', channel=1, note=79, velocity=0, time=120),
    Message('note_on', channel=1, note=78, velocity=100, time=0),
    Message('note_on', channel=1, note=78, velocity=0, time=120),
    Message('note_on', channel=1, note=79, velocity=100, time=0),
    Message('note_on', channel=1, note=79, velocity=0, time=120),
    Message('note_on', channel=1, note=78, velocity=100, time=0),
    Message('note_on', channel=1, note=78, velocity=0, time=120),
    Message('note_on', channel=1, note=79, velocity=100, time=0),
    Message('note_on', channel=1, note=79, velocity=0, time=120),
    Message('note_on', channel=1, note=78, velocity=100, time=0),
    Message('note_on', channel=1, note=78, velocity=0, time=120),
    Message('note_on', channel=1, note=74, velocity=100, time=0),
    Message('note_on', channel=1, note=74, velocity=0, time=234),
    Message('note_on', channel=1, note=74, velocity=100, time=6),
    Message('note_on', channel=1, note=74, velocity=0, time=240),
    Message('note_on', channel=1, note=76, velocity=100, time=0),
    Message('note_on', channel=1, note=76, velocity=0, time=240),
    Message('note_on', channel=1, note=76, velocity=100, time=0),
    Message('note_on', channel=1, note=76, velocity=0, time=480),
    Message('note_on', channel=1, note=71, velocity=100, time=0),
    Message('note_on', channel=1, note=71, velocity=0, time=480),
    Message('note_on', channel=1, note=74, velocity=100, time=0),
    Message('note_on', channel=1, note=74, velocity=0, time=480),
    Message('note_on', channel=1, note=74, velocity=100, time=0),
    Message('note_on', channel=1, note=74, velocity=0, time=240),
    Message('note_on', channel=1, note=76, velocity=100, time=0),
    Message('note_on', channel=1, note=76, velocity=0, time=240),
    Message('note_on', channel=1, note=76, velocity=100, time=0),
    Message('note_on', channel=1, note=76, velocity=0, time=240),
    Message('note_on', channel=1, note=79, velocity=100, time=240),
    Message('note_on', channel=1, note=79, velocity=0, time=120),
    Message('note_on', channel=1, note=78, velocity=100, time=0),
    Message('note_on', channel=1, note=78, velocity=0, time=120),
    Message('note_on', channel=1, note=79, velocity=100, time=0),
    Message('note_on', channel=1, note=79, velocity=0, time=120),
    Message('note_on', channel=1, note=78, velocity=100, time=0),
    Message('note_on', channel=1, note=78, velocity=0, time=120),
    Message('note_on', channel=1, note=79, velocity=100, time=0),
    Message('note_on', channel=1, note=79, velocity=0, time=120),
    Message('note_on', channel=1, note=78, velocity=100, time=0),
    Message('note_on', channel=1, note=78, velocity=0, time=120),
    Message('note_on', channel=1, note=74, velocity=100, time=0),
    Message('note_on', channel=1, note=74, velocity=0, time=234),
    Message('note_on', channel=1, note=74, velocity=100, time=6),
    Message('note_on', channel=1, note=74, velocity=0, time=240),
    Message('note_on', channel=1, note=76, velocity=100, time=0),
    Message('note_on', channel=1, note=76, velocity=0, time=240),
    Message('note_on', channel=1, note=76, velocity=100, time=0),
    Message('note_on', channel=1, note=76, velocity=0, time=480),
    Message('note_on', channel=1, note=76, velocity=100, time=960),
    Message('note_on', channel=1, note=76, velocity=0, time=120),
    Message('note_on', channel=1, note=76, velocity=100, time=0),
    Message('note_on', channel=1, note=76, velocity=0, time=120),
    Message('note_on', channel=1, note=76, velocity=100, time=0),
    Message('note_on', channel=1, note=76, velocity=0, time=120),
    Message('note_on', channel=1, note=79, velocity=100, time=0),
    Message('note_on', channel=1, note=79, velocity=0, time=240),
    Message('note_on', channel=1, note=76, velocity=100, time=0),
    Message('note_on', channel=1, note=76, velocity=0, time=240),
    Message('note_on', channel=1, note=78, velocity=100, time=1080),
    Message('note_on', channel=1, note=78, velocity=0, time=120),
    Message('note_on', channel=1, note=78, velocity=100, time=0),
    Message('note_on', channel=1, note=78, velocity=0, time=234),
    Message('note_on', channel=1, note=78, velocity=100, time=6),
    Message('note_on', channel=1, note=78, velocity=0, time=240),
    Message('note_on', channel=1, note=76, velocity=100, time=0),
    Message('note_on', channel=1, note=74, velocity=100, time=113),
    Message('note_on', channel=1, note=76, velocity=0, time=4),
    Message('note_on', channel=1, note=74, velocity=0, time=230),
    Message('note_on', channel=1, note=71, velocity=100, time=13),
    Message('note_on', channel=1, note=71, velocity=0, time=480),
    Message('note_on', channel=1, note=76, velocity=100, time=4320),
    Message('note_on', channel=1, note=76, velocity=0, time=120),
    Message('note_on', channel=1, note=76, velocity=100, time=0),
    Message('note_on', channel=1, note=76, velocity=0, time=120),
    Message('note_on', channel=1, note=76, velocity=100, time=0),
    Message('note_on', channel=1, note=76, velocity=0, time=120),
    Message('note_on', channel=1, note=79, velocity=100, time=0),
    Message('note_on', channel=1, note=79, velocity=0, time=240),
    Message('note_on', channel=1, note=76, velocity=100, time=0),
    Message('note_on', channel=1, note=76, velocity=0, time=240),
    Message('note_on', channel=1, note=78, velocity=100, time=1080),
    Message('note_on', channel=1, note=78, velocity=0, time=120),
    Message('note_on', channel=1, note=78, velocity=100, time=0),
    Message('note_on', channel=1, note=78, velocity=0, time=234),
    Message('note_on', channel=1, note=78, velocity=100, time=6),
    Message('note_on', channel=1, note=78, velocity=0, time=240),
    Message('note_on', channel=1, note=76, velocity=100, time=0),
    Message('note_on', channel=1, note=74, velocity=100, time=113),
    Message('note_on', channel=1, note=76, velocity=0, time=4),
    Message('note_on', channel=1, note=74, velocity=0, time=230),
    Message('note_on', channel=1, note=71, velocity=100, time=13),
    Message('note_on', channel=1, note=71, velocity=0, time=480),
    Message('note_on', channel=1, note=71, velocity=100, time=41760),
    Message('note_on', channel=1, note=71, velocity=0, time=480),
    Message('note_on', channel=1, note=74, velocity=100, time=0),
    Message('note_on', channel=1, note=74, velocity=0, time=480),
    Message('note_on', channel=1, note=74, velocity=100, time=0),
    Message('note_on', channel=1, note=74, velocity=0, time=240),
    Message('note_on', channel=1, note=76, velocity=100, time=0),
    Message('note_on', channel=1, note=76, velocity=0, time=240),
    Message('note_on', channel=1, note=76, velocity=100, time=0),
    Message('note_on', channel=1, note=76, velocity=0, time=240),
    Message('note_on', channel=1, note=79, velocity=100, time=240),
    Message('note_on', channel=1, note=79, velocity=0, time=120),
    Message('note_on', channel=1, note=78, velocity=100, time=0),
    Message('note_on', channel=1, note=78, velocity=0, time=120),
    Message('note_on', channel=1, note=79, velocity=100, time=0),
    Message('note_on', channel=1, note=79, velocity=0, time=120),
    Message('note_on', channel=1, note=78, velocity=100, time=0),
    Message('note_on', channel=1, note=78, velocity=0, time=120),
    Message('note_on', channel=1, note=79, velocity=100, time=0),
    Message('note_on', channel=1, note=79, velocity=0, time=120),
    Message('note_on', channel=1, note=78, velocity=100, time=0),
    Message('note_on', channel=1, note=78, velocity=0, time=120),
    Message('note_on', channel=1, note=74, velocity=100, time=0),
    Message('note_on', channel=1, note=74, velocity=0, time=234),
    Message('note_on', channel=1, note=74, velocity=100, time=6),
    Message('note_on', channel=1, note=74, velocity=0, time=240),
    Message('note_on', channel=1, note=76, velocity=100, time=0),
    Message('note_on', channel=1, note=76, velocity=0, time=240),
    Message('note_on', channel=1, note=76, velocity=100, time=0),
    Message('note_on', channel=1, note=76, velocity=0, time=480),
    Message('note_on', channel=1, note=71, velocity=100, time=0),
    Message('note_on', channel=1, note=71, velocity=0, time=480),
    Message('note_on', channel=1, note=74, velocity=100, time=0),
    Message('note_on', channel=1, note=74, velocity=0, time=480),
    Message('note_on', channel=1, note=74, velocity=100, time=0),
    Message('note_on', channel=1, note=74, velocity=0, time=240),
    Message('note_on', channel=1, note=76, velocity=100, time=0),
    Message('note_on', channel=1, note=76, velocity=0, time=240),
    Message('note_on', channel=1, note=76, velocity=100, time=0),
    Message('note_on', channel=1, note=76, velocity=0, time=240),
    Message('note_on', channel=1, note=79, velocity=100, time=240),
    Message('note_on', channel=1, note=79, velocity=0, time=120),
    Message('note_on', channel=1, note=79, velocity=100, time=120),
    Message('note_on', channel=1, note=79, velocity=0, time=120),
    Message('note_on', channel=1, note=79, velocity=100, time=120),
    Message('note_on', channel=1, note=79, velocity=0, time=360),
    Message('note_on', channel=1, note=74, velocity=100, time=120),
    Message('note_on', channel=1, note=74, velocity=0, time=240),
    Message('note_on', channel=1, note=76, velocity=100, time=0),
    Message('note_on', channel=1, note=76, velocity=0, time=240),
    Message('note_on', channel=1, note=76, velocity=127, time=0),
    Message('pitchwheel', channel=1, pitch=0, time=246),
    Message('pitchwheel', channel=1, pitch=128, time=28),
    Message('pitchwheel', channel=1, pitch=256, time=34),
    Message('pitchwheel', channel=1, pitch=384, time=35),
    Message('pitchwheel', channel=1, pitch=512, time=35),
    Message('pitchwheel', channel=1, pitch=640, time=35),
    Message('pitchwheel', channel=1, pitch=768, time=35),
    Message('pitchwheel', channel=1, pitch=896, time=34),
    Message('pitchwheel', channel=1, pitch=1024, time=35),
    Message('pitchwheel', channel=1, pitch=1152, time=28),
    Message('pitchwheel', channel=1, pitch=1280, time=35),
    Message('pitchwheel', channel=1, pitch=1408, time=35),
    Message('pitchwheel', channel=1, pitch=1536, time=34),
    Message('pitchwheel', channel=1, pitch=1664, time=35),
    Message('pitchwheel', channel=1, pitch=1792, time=35),
    Message('pitchwheel', channel=1, pitch=1920, time=35),
    Message('pitchwheel', channel=1, pitch=2048, time=34),
    Message('pitchwheel', channel=1, pitch=2176, time=28),
    Message('pitchwheel', channel=1, pitch=2304, time=35),
    Message('pitchwheel', channel=1, pitch=2432, time=35),
    Message('pitchwheel', channel=1, pitch=2560, time=35),
    Message('pitchwheel', channel=1, pitch=2688, time=34),
    Message('pitchwheel', channel=1, pitch=2816, time=35),
    Message('pitchwheel', channel=1, pitch=2944, time=35),
    Message('pitchwheel', channel=1, pitch=3072, time=35),
    Message('pitchwheel', channel=1, pitch=3200, time=28),
    Message('pitchwheel', channel=1, pitch=3328, time=34),
    Message('pitchwheel', channel=1, pitch=3456, time=35),
    Message('pitchwheel', channel=1, pitch=3584, time=35),
    Message('pitchwheel', channel=1, pitch=3712, time=35),
    Message('pitchwheel', channel=1, pitch=3840, time=35),
    Message('pitchwheel', channel=1, pitch=3968, time=34),
    Message('pitchwheel', channel=1, pitch=4096, time=35),
    Message('pitchwheel', channel=1, pitch=4224, time=28),
    Message('pitchwheel', channel=1, pitch=4352, time=35),
    Message('pitchwheel', channel=1, pitch=4480, time=34),
    Message('pitchwheel', channel=1, pitch=4608, time=35),
    Message('pitchwheel', channel=1, pitch=4736, time=35),
    Message('pitchwheel', channel=1, pitch=4864, time=35),
    Message('pitchwheel', channel=1, pitch=4992, time=35),
    Message('pitchwheel', channel=1, pitch=5120, time=34),
    Message('pitchwheel', channel=1, pitch=5248, time=28),
    Message('pitchwheel', channel=1, pitch=5376, time=35),
    Message('pitchwheel', channel=1, pitch=5504, time=35),
    Message('pitchwheel', channel=1, pitch=5632, time=35),
    Message('pitchwheel', channel=1, pitch=5760, time=34),
    Message('pitchwheel', channel=1, pitch=5888, time=35),
    Message('pitchwheel', channel=1, pitch=6016, time=35),
    Message('pitchwheel', channel=1, pitch=6144, time=35),
    Message('pitchwheel', channel=1, pitch=6272, time=28),
    Message('pitchwheel', channel=1, pitch=6400, time=34),
    Message('pitchwheel', channel=1, pitch=6528, time=35),
    Message('pitchwheel', channel=1, pitch=6656, time=35),
    Message('pitchwheel', channel=1, pitch=6784, time=35),
    Message('pitchwheel', channel=1, pitch=6912, time=34),
    Message('pitchwheel', channel=1, pitch=7040, time=35),
    Message('pitchwheel', channel=1, pitch=7168, time=35),
    Message('pitchwheel', channel=1, pitch=7296, time=28),
    Message('pitchwheel', channel=1, pitch=7424, time=35),
    Message('pitchwheel', channel=1, pitch=7552, time=34),
    Message('pitchwheel', channel=1, pitch=7680, time=35),
    Message('pitchwheel', channel=1, pitch=7808, time=35),
    Message('pitchwheel', channel=1, pitch=7936, time=35),
    Message('pitchwheel', channel=1, pitch=8064, time=35),
    Message('note_on', channel=1, note=76, velocity=0, time=18),
    Message('pitchwheel', channel=1, pitch=0, time=9),
    MetaMessage('end_of_track', time=0)]),
  MidiTrack([
    MetaMessage('track_name', name='Lead Guitar', time=0),
    Message('control_change', channel=2, control=0, value=121, time=0),
    Message('control_change', channel=2, control=7, value=110, time=0),
    Message('control_change', channel=2, control=10, value=64, time=0),
    Message('control_change', channel=2, control=91, value=16, time=0),
    Message('control_change', channel=2, control=93, value=16, time=0),
    Message('control_change', channel=2, control=32, value=0, time=0),
    Message('program_change', channel=2, program=29, time=1),
    Message('note_on', channel=2, note=68, velocity=100, time=126239),
    Message('pitchwheel', channel=2, pitch=1365, time=240),
    Message('pitchwheel', channel=2, pitch=2730, time=60),
    Message('pitchwheel', channel=2, pitch=4095, time=60),
    Message('note_on', channel=2, note=68, velocity=0, time=120),
    Message('pitchwheel', channel=2, pitch=-2730, time=0),
    Message('note_on', channel=2, note=68, velocity=100, time=0),
    Message('pitchwheel', channel=2, pitch=-1365, time=60),
    Message('pitchwheel', channel=2, pitch=0, time=60),
    Message('pitchwheel', channel=2, pitch=-2730, time=240),
    Message('note_on', channel=2, note=68, velocity=100, time=0),
    Message('note_on', channel=2, note=68, velocity=0, time=3),
    Message('pitchwheel', channel=2, pitch=-1365, time=57),
    Message('pitchwheel', channel=2, pitch=0, time=60),
    Message('pitchwheel', channel=2, pitch=-2730, time=240),
    Message('note_on', channel=2, note=68, velocity=100, time=0),
    Message('note_on', channel=2, note=68, velocity=0, time=3),
    Message('pitchwheel', channel=2, pitch=-1365, time=57),
    Message('pitchwheel', channel=2, pitch=0, time=60),
    Message('note_on', channel=2, note=68, velocity=0, time=114),
    Message('pitchwheel', channel=2, pitch=-2730, time=6),
    Message('note_on', channel=2, note=68, velocity=100, time=0),
    Message('pitchwheel', channel=2, pitch=-1365, time=60),
    Message('pitchwheel', channel=2, pitch=0, time=60),
    Message('pitchwheel', channel=2, pitch=-2730, time=240),
    Message('note_on', channel=2, note=68, velocity=100, time=0),
    Message('note_on', channel=2, note=68, velocity=0, time=3),
    Message('pitchwheel', channel=2, pitch=-1365, time=57),
    Message('pitchwheel', channel=2, pitch=0, time=60),
    Message('pitchwheel', channel=2, pitch=-2730, time=240),
    Message('note_on', channel=2, note=68, velocity=100, time=0),
    Message('note_on', channel=2, note=68, velocity=0, time=3),
    Message('pitchwheel', channel=2, pitch=-1365, time=57),
    Message('pitchwheel', channel=2, pitch=0, time=60),
    Message('note_on', channel=2, note=68, velocity=0, time=114),
    Message('note_on', channel=2, note=73, velocity=100, time=6),
    Message('pitchwheel', channel=2, pitch=-2730, time=0),
    Message('note_on', channel=2, note=68, velocity=100, time=0),
    Message('pitchwheel', channel=2, pitch=-1365, time=60),
    Message('pitchwheel', channel=2, pitch=0, time=60),
    Message('note_on', channel=2, note=73, velocity=100, time=240),
    Message('pitchwheel', channel=2, pitch=-2730, time=0),
    Message('note_on', channel=2, note=68, velocity=100, time=0),
    Message('note_on', channel=2, note=68, velocity=0, time=3),
    Message('note_on', channel=2, note=73, velocity=0, time=0),
    Message('pitchwheel', channel=2, pitch=-1365, time=57),
    Message('pitchwheel', channel=2, pitch=0, time=60),
    Message('note_on', channel=2, note=73, velocity=100, time=240),
    Message('pitchwheel', channel=2, pitch=-2730, time=0),
    Message('note_on', channel=2, note=68, velocity=100, time=0),
    Message('note_on', channel=2, note=73, velocity=0, time=3),
    Message('note_on', channel=2, note=68, velocity=0, time=0),
    Message('pitchwheel', channel=2, pitch=-1365, time=57),
    Message('pitchwheel', channel=2, pitch=0, time=60),
    Message('note_on', channel=2, note=73, velocity=0, time=114),
    Message('note_on', channel=2, note=68, velocity=0, time=0),
    Message('note_on', channel=2, note=73, velocity=100, time=6),
    Message('pitchwheel', channel=2, pitch=-2730, time=0),
    Message('note_on', channel=2, note=68, velocity=100, time=0),
    Message('pitchwheel', channel=2, pitch=-1365, time=60),
    Message('pitchwheel', channel=2, pitch=0, time=60),
    Message('note_on', channel=2, note=73, velocity=100, time=240),
    Message('pitchwheel', channel=2, pitch=-2730, time=0),
    Message('note_on', channel=2, note=68, velocity=100, time=0),
    Message('note_on', channel=2, note=68, velocity=0, time=3),
    Message('note_on', channel=2, note=73, velocity=0, time=0),
    Message('pitchwheel', channel=2, pitch=-1365, time=57),
    Message('pitchwheel', channel=2, pitch=0, time=60),
    Message('note_on', channel=2, note=73, velocity=100, time=240),
    Message('pitchwheel', channel=2, pitch=-2730, time=0),
    Message('note_on', channel=2, note=68, velocity=100, time=0),
    Message('note_on', channel=2, note=73, velocity=0, time=3),
    Message('note_on', channel=2, note=68, velocity=0, time=0),
    Message('pitchwheel', channel=2, pitch=-1365, time=57),
    Message('pitchwheel', channel=2, pitch=0, time=60),
    Message('note_on', channel=2, note=73, velocity=0, time=114),
    Message('note_on', channel=2, note=68, velocity=0, time=0),
    Message('pitchwheel', channel=2, pitch=-2730, time=6),
    Message('note_on', channel=2, note=68, velocity=100, time=0),
    Message('note_on', channel=2, note=80, velocity=100, time=0),
    Message('note_on', channel=2, note=73, velocity=100, time=0),
    Message('pitchwheel', channel=2, pitch=-1365, time=60),
    Message('pitchwheel', channel=2, pitch=0, time=60),
    Message('pitchwheel', channel=2, pitch=-2730, time=240),
    Message('note_on', channel=2, note=68, velocity=100, time=0),
    Message('note_on', channel=2, note=80, velocity=100, time=0),
    Message('note_on', channel=2, note=73, velocity=100, time=0),
    Message('note_on', channel=2, note=73, velocity=0, time=3),
    Message('note_on', channel=2, note=68, velocity=0, time=0),
    Message('note_on', channel=2, note=80, velocity=0, time=0),
    Message('pitchwheel', channel=2, pitch=-1365, time=57),
    Message('pitchwheel', channel=2, pitch=0, time=60),
    Message('pitchwheel', channel=2, pitch=-2730, time=240),
    Message('note_on', channel=2, note=68, velocity=100, time=0),
    Message('note_on', channel=2, note=80, velocity=100, time=0),
    Message('note_on', channel=2, note=73, velocity=100, time=0),
    Message('note_on', channel=2, note=68, velocity=0, time=3),
    Message('note_on', channel=2, note=73, velocity=0, time=0),
    Message('note_on', channel=2, note=80, velocity=0, time=0),
    Message('pitchwheel', channel=2, pitch=-1365, time=57),
    Message('pitchwheel', channel=2, pitch=0, time=60),
    Message('note_on', channel=2, note=68, velocity=0, time=114),
    Message('note_on', channel=2, note=80, velocity=0, time=0),
    Message('note_on', channel=2, note=73, velocity=0, time=0),
    Message('pitchwheel', channel=2, pitch=-2730, time=6),
    Message('note_on', channel=2, note=68, velocity=100, time=0),
    Message('note_on', channel=2, note=80, velocity=100, time=0),
    Message('note_on', channel=2, note=73, velocity=100, time=0),
    Message('pitchwheel', channel=2, pitch=-1365, time=60),
    Message('pitchwheel', channel=2, pitch=0, time=60),
    Message('pitchwheel', channel=2, pitch=-2730, time=240),
    Message('note_on', channel=2, note=68, velocity=100, time=0),
    Message('note_on', channel=2, note=80, velocity=100, time=0),
    Message('note_on', channel=2, note=73, velocity=100, time=0),
    Message('note_on', channel=2, note=73, velocity=0, time=3),
    Message('note_on', channel=2, note=68, velocity=0, time=0),
    Message('note_on', channel=2, note=80, velocity=0, time=0),
    Message('pitchwheel', channel=2, pitch=-1365, time=57),
    Message('pitchwheel', channel=2, pitch=0, time=60),
    Message('pitchwheel', channel=2, pitch=-2730, time=240),
    Message('note_on', channel=2, note=68, velocity=100, time=0),
    Message('note_on', channel=2, note=80, velocity=100, time=0),
    Message('note_on', channel=2, note=73, velocity=100, time=0),
    Message('note_on', channel=2, note=68, velocity=0, time=3),
    Message('note_on', channel=2, note=73, velocity=0, time=0),
    Message('note_on', channel=2, note=80, velocity=0, time=0),
    Message('pitchwheel', channel=2, pitch=-1365, time=57),
    Message('pitchwheel', channel=2, pitch=0, time=60),
    Message('note_on', channel=2, note=68, velocity=0, time=114),
    Message('note_on', channel=2, note=80, velocity=0, time=0),
    Message('note_on', channel=2, note=73, velocity=0, time=0),
    Message('pitchwheel', channel=2, pitch=-2730, time=6),
    Message('note_on', channel=2, note=68, velocity=100, time=0),
    Message('note_on', channel=2, note=80, velocity=100, time=0),
    Message('note_on', channel=2, note=73, velocity=100, time=0),
    Message('pitchwheel', channel=2, pitch=-1365, time=60),
    Message('pitchwheel', channel=2, pitch=0, time=60),
    Message('pitchwheel', channel=2, pitch=-2730, time=240),
    Message('note_on', channel=2, note=68, velocity=100, time=0),
    Message('note_on', channel=2, note=80, velocity=100, time=0),
    Message('note_on', channel=2, note=73, velocity=100, time=0),
    Message('note_on', channel=2, note=73, velocity=0, time=3),
    Message('note_on', channel=2, note=68, velocity=0, time=0),
    Message('note_on', channel=2, note=80, velocity=0, time=0),
    Message('pitchwheel', channel=2, pitch=-1365, time=57),
    Message('pitchwheel', channel=2, pitch=0, time=60),
    Message('pitchwheel', channel=2, pitch=-2730, time=240),
    Message('note_on', channel=2, note=68, velocity=100, time=0),
    Message('note_on', channel=2, note=80, velocity=100, time=0),
    Message('note_on', channel=2, note=73, velocity=100, time=0),
    Message('note_on', channel=2, note=68, velocity=0, time=3),
    Message('note_on', channel=2, note=73, velocity=0, time=0),
    Message('note_on', channel=2, note=80, velocity=0, time=0),
    Message('pitchwheel', channel=2, pitch=-1365, time=57),
    Message('pitchwheel', channel=2, pitch=0, time=60),
    Message('note_on', channel=2, note=68, velocity=0, time=114),
    Message('note_on', channel=2, note=80, velocity=0, time=0),
    Message('note_on', channel=2, note=73, velocity=0, time=0),
    Message('pitchwheel', channel=2, pitch=-2730, time=6),
    Message('note_on', channel=2, note=68, velocity=100, time=0),
    Message('note_on', channel=2, note=80, velocity=100, time=0),
    Message('note_on', channel=2, note=73, velocity=100, time=0),
    Message('pitchwheel', channel=2, pitch=-1365, time=60),
    Message('pitchwheel', channel=2, pitch=0, time=60),
    Message('pitchwheel', channel=2, pitch=-2730, time=240),
    Message('note_on', channel=2, note=68, velocity=100, time=0),
    Message('note_on', channel=2, note=80, velocity=100, time=0),
    Message('note_on', channel=2, note=73, velocity=100, time=0),
    Message('note_on', channel=2, note=73, velocity=0, time=3),
    Message('note_on', channel=2, note=68, velocity=0, time=0),
    Message('note_on', channel=2, note=80, velocity=0, time=0),
    Message('pitchwheel', channel=2, pitch=-1365, time=57),
    Message('pitchwheel', channel=2, pitch=0, time=60),
    Message('pitchwheel', channel=2, pitch=-2730, time=240),
    Message('note_on', channel=2, note=68, velocity=100, time=0),
    Message('note_on', channel=2, note=80, velocity=100, time=0),
    Message('note_on', channel=2, note=73, velocity=100, time=0),
    Message('note_on', channel=2, note=68, velocity=0, time=3),
    Message('note_on', channel=2, note=73, velocity=0, time=0),
    Message('note_on', channel=2, note=80, velocity=0, time=0),
    Message('pitchwheel', channel=2, pitch=-1365, time=57),
    Message('pitchwheel', channel=2, pitch=0, time=60),
    Message('note_on', channel=2, note=68, velocity=0, time=114),
    Message('note_on', channel=2, note=80, velocity=0, time=0),
    Message('note_on', channel=2, note=73, velocity=0, time=0),
    Message('note_on', channel=2, note=64, velocity=100, time=69126),
    Message('note_on', channel=2, note=64, velocity=0, time=960),
    Message('note_on', channel=2, note=66, velocity=100, time=0),
    Message('note_on', channel=2, note=66, velocity=0, time=960),
    Message('note_on', channel=2, note=67, velocity=100, time=0),
    Message('note_on', channel=2, note=67, velocity=0, time=960),
    Message('note_on', channel=2, note=69, velocity=100, time=0),
    Message('note_on', channel=2, note=69, velocity=0, time=480),
    Message('note_on', channel=2, note=67, velocity=100, time=0),
    Message('note_on', channel=2, note=67, velocity=0, time=480),
    Message('note_on', channel=2, note=64, velocity=100, time=0),
    Message('note_on', channel=2, note=64, velocity=0, time=960),
    Message('note_on', channel=2, note=66, velocity=100, time=0),
    Message('note_on', channel=2, note=66, velocity=0, time=960),
    Message('note_on', channel=2, note=67, velocity=100, time=0),
    Message('note_on', channel=2, note=67, velocity=0, time=960),
    Message('note_on', channel=2, note=69, velocity=100, time=0),
    Message('note_on', channel=2, note=69, velocity=0, time=480),
    Message('note_on', channel=2, note=67, velocity=100, time=0),
    Message('note_on', channel=2, note=67, velocity=0, time=480),
    Message('note_on', channel=2, note=64, velocity=100, time=0),
    Message('note_on', channel=2, note=64, velocity=0, time=960),
    Message('note_on', channel=2, note=66, velocity=100, time=0),
    Message('note_on', channel=2, note=66, velocity=0, time=960),
    Message('note_on', channel=2, note=67, velocity=100, time=0),
    Message('note_on', channel=2, note=67, velocity=0, time=960),
    Message('note_on', channel=2, note=69, velocity=100, time=0),
    Message('note_on', channel=2, note=69, velocity=0, time=480),
    Message('note_on', channel=2, note=67, velocity=100, time=0),
    Message('note_on', channel=2, note=67, velocity=0, time=480),
    Message('note_on', channel=2, note=64, velocity=100, time=0),
    Message('note_on', channel=2, note=64, velocity=0, time=960),
    Message('note_on', channel=2, note=66, velocity=100, time=0),
    Message('note_on', channel=2, note=66, velocity=0, time=960),
    Message('note_on', channel=2, note=67, velocity=100, time=0),
    Message('note_on', channel=2, note=67, velocity=0, time=960),
    Message('note_on', channel=2, note=69, velocity=100, time=0),
    Message('note_on', channel=2, note=69, velocity=0, time=480),
    Message('note_on', channel=2, note=67, velocity=100, time=0),
    Message('note_on', channel=2, note=67, velocity=0, time=480),
    MetaMessage('end_of_track', time=0)]),
  MidiTrack([
    MetaMessage('track_name', name='Rhythm Guitar', time=0),
    Message('control_change', channel=3, control=0, value=121, time=0),
    Message('control_change', channel=3, control=7, value=80, time=0),
    Message('control_change', channel=3, control=10, value=0, time=0),
    Message('control_change', channel=3, control=91, value=24, time=0),
    Message('control_change', channel=3, control=93, value=24, time=0),
    Message('control_change', channel=3, control=32, value=0, time=0),
    Message('program_change', channel=3, program=30, time=1),
    Message('note_on', channel=3, note=53, velocity=75, time=3839),
    Message('note_on', channel=3, note=60, velocity=75, time=0),
    Message('note_on', channel=3, note=65, velocity=75, time=0),
    Message('pitchwheel', channel=3, pitch=0, time=0),
    Message('pitchwheel', channel=3, pitch=-1365, time=960),
    Message('pitchwheel', channel=3, pitch=-2730, time=60),
    Message('pitchwheel', channel=3, pitch=-4095, time=60),
    Message('note_on', channel=3, note=65, velocity=0, time=360),
    Message('note_on', channel=3, note=60, velocity=0, time=0),
    Message('note_on', channel=3, note=53, velocity=0, time=0),
    Message('note_on', channel=3, note=60, velocity=75, time=960),
    Message('note_on', channel=3, note=65, velocity=75, time=0),
    Message('note_on', channel=3, note=53, velocity=75, time=0),
    Message('note_on', channel=3, note=53, velocity=0, time=480),
    Message('note_on', channel=3, note=65, velocity=0, time=0),
    Message('note_on', channel=3, note=60, velocity=0, time=0),
    Message('note_on', channel=3, note=60, velocity=75, time=0),
    Message('note_on', channel=3, note=65, velocity=75, time=0),
    Message('note_on', channel=3, note=53, velocity=75, time=0),
    Message('note_on', channel=3, note=53, velocity=0, time=480),
    Message('note_on', channel=3, note=65, velocity=0, time=0),
    Message('note_on', channel=3, note=60, velocity=0, time=0),
    Message('note_on', channel=3, note=60, velocity=75, time=0),
    Message('note_on', channel=3, note=65, velocity=75, time=0),
    Message('note_on', channel=3, note=53, velocity=75, time=0),
    Message('note_on', channel=3, note=53, velocity=0, time=480),
    Message('note_on', channel=3, note=65, velocity=0, time=0),
    Message('note_on', channel=3, note=60, velocity=0, time=0),
    Message('pitchwheel', channel=3, pitch=0, time=0),
    Message('note_on', channel=3, note=65, velocity=75, time=0),
    Message('note_on', channel=3, note=60, velocity=75, time=0),
    Message('note_on', channel=3, note=53, velocity=75, time=0),
    Message('pitchwheel', channel=3, pitch=-1365, time=960),
    Message('pitchwheel', channel=3, pitch=-2730, time=60),
    Message('pitchwheel', channel=3, pitch=-4095, time=60),
    Message('note_on', channel=3, note=53, velocity=0, time=360),
    Message('note_on', channel=3, note=60, velocity=0, time=0),
    Message('note_on', channel=3, note=65, velocity=0, time=0),
    Message('note_on', channel=3, note=60, velocity=75, time=960),
    Message('note_on', channel=3, note=65, velocity=75, time=0),
    Message('note_on', channel=3, note=53, velocity=75, time=0),
    Message('note_on', channel=3, note=53, velocity=0, time=480),
    Message('note_on', channel=3, note=65, velocity=0, time=0),
    Message('note_on', channel=3, note=60, velocity=0, time=0),
    Message('note_on', channel=3, note=60, velocity=75, time=0),
    Message('note_on', channel=3, note=65, velocity=75, time=0),
    Message('note_on', channel=3, note=53, velocity=75, time=0),
    Message('note_on', channel=3, note=53, velocity=0, time=480),
    Message('note_on', channel=3, note=65, velocity=0, time=0),
    Message('note_on', channel=3, note=60, velocity=0, time=0),
    Message('note_on', channel=3, note=60, velocity=75, time=0),
    Message('note_on', channel=3, note=65, velocity=75, time=0),
    Message('note_on', channel=3, note=53, velocity=75, time=0),
    Message('note_on', channel=3, note=53, velocity=0, time=480),
    Message('note_on', channel=3, note=65, velocity=0, time=0),
    Message('note_on', channel=3, note=60, velocity=0, time=0),
    Message('pitchwheel', channel=3, pitch=0, time=0),
    Message('note_on', channel=3, note=65, velocity=75, time=0),
    Message('note_on', channel=3, note=60, velocity=75, time=0),
    Message('note_on', channel=3, note=53, velocity=75, time=0),
    Message('pitchwheel', channel=3, pitch=-1365, time=960),
    Message('pitchwheel', channel=3, pitch=-2730, time=60),
    Message('pitchwheel', channel=3, pitch=-4095, time=60),
    Message('note_on', channel=3, note=53, velocity=0, time=360),
    Message('note_on', channel=3, note=60, velocity=0, time=0),
    Message('note_on', channel=3, note=65, velocity=0, time=0),
    Message('note_on', channel=3, note=60, velocity=75, time=960),
    Message('note_on', channel=3, note=65, velocity=75, time=0),
    Message('note_on', channel=3, note=53, velocity=75, time=0),
    Message('note_on', channel=3, note=53, velocity=0, time=480),
    Message('note_on', channel=3, note=65, velocity=0, time=0),
    Message('note_on', channel=3, note=60, velocity=0, time=0),
    Message('note_on', channel=3, note=60, velocity=75, time=0),
    Message('note_on', channel=3, note=65, velocity=75, time=0),
    Message('note_on', channel=3, note=53, velocity=75, time=0),
    Message('note_on', channel=3, note=53, velocity=0, time=480),
    Message('note_on', channel=3, note=65, velocity=0, time=0),
    Message('note_on', channel=3, note=60, velocity=0, time=0),
    Message('note_on', channel=3, note=60, velocity=75, time=0),
    Message('note_on', channel=3, note=65, velocity=75, time=0),
    Message('note_on', channel=3, note=53, velocity=75, time=0),
    Message('note_on', channel=3, note=53, velocity=0, time=480),
    Message('note_on', channel=3, note=65, velocity=0, time=0),
    Message('note_on', channel=3, note=60, velocity=0, time=0),
    Message('pitchwheel', channel=3, pitch=0, time=0),
    Message('note_on', channel=3, note=47, velocity=100, time=0),
    Message('note_on', channel=3, note=54, velocity=100, time=0),
    Message('note_on', channel=3, note=59, velocity=100, time=0),
    Message('note_on', channel=3, note=54, velocity=100, time=0),
    Message('note_on', channel=3, note=59, velocity=100, time=0),
    Message('note_on', channel=3, note=54, velocity=100, time=0),
    Message('note_on', channel=3, note=59, velocity=100, time=0),
    Message('note_on', channel=3, note=59, velocity=0, time=480),
    Message('note_on', channel=3, note=59, velocity=0, time=0),
    Message('note_on', channel=3, note=54, velocity=0, time=0),
    Message('note_on', channel=3, note=59, velocity=0, time=0),
    Message('note_on', channel=3, note=47, velocity=0, time=0),
    Message('note_on', channel=3, note=54, velocity=0, time=0),
    Message('note_on', channel=3, note=54, velocity=0, time=0),
    Message('note_on', channel=3, note=62, velocity=100, time=0),
    Message('note_on', channel=3, note=57, velocity=100, time=0),
    Message('note_on', channel=3, note=50, velocity=100, time=0),
    Message('note_on', channel=3, note=50, velocity=0, time=480),
    Message('note_on', channel=3, note=57, velocity=0, time=0),
    Message('note_on', channel=3, note=62, velocity=0, time=0),
    Message('note_on', channel=3, note=62, velocity=100, time=0),
    Message('note_on', channel=3, note=57, velocity=100, time=0),
    Message('note_on', channel=3, note=50, velocity=100, time=0),
    Message('pitchwheel', channel=3, pitch=1365, time=180),
    Message('note_on', channel=3, note=50, velocity=0, time=60),
    Message('note_on', channel=3, note=57, velocity=0, time=0),
    Message('note_on', channel=3, note=62, velocity=0, time=0),
    Message('pitchwheel', channel=3, pitch=0, time=0),
    Message('note_on', channel=3, note=64, velocity=100, time=0),
    Message('note_on', channel=3, note=59, velocity=100, time=0),
    Message('note_on', channel=3, note=52, velocity=100, time=0),
    Message('note_on', channel=3, note=52, velocity=0, time=240),
    Message('note_on', channel=3, note=59, velocity=0, time=0),
    Message('note_on', channel=3, note=64, velocity=0, time=0),
    Message('note_on', channel=3, note=64, velocity=100, time=0),
    Message('note_on', channel=3, note=59, velocity=100, time=0),
    Message('note_on', channel=3, note=52, velocity=100, time=0),
    Message('note_on', channel=3, note=52, velocity=0, time=480),
    Message('note_on', channel=3, note=59, velocity=0, time=0),
    Message('note_on', channel=3, note=64, velocity=0, time=0),
    Message('note_on', channel=3, note=67, velocity=100, time=0),
    Message('note_on', channel=3, note=62, velocity=100, time=0),
    Message('note_on', channel=3, note=55, velocity=100, time=0),
    Message('note_on', channel=3, note=55, velocity=0, time=120),
    Message('note_on', channel=3, note=62, velocity=0, time=0),
    Message('note_on', channel=3, note=67, velocity=0, time=0),
    Message('note_on', channel=3, note=66, velocity=100, time=0),
    Message('note_on', channel=3, note=61, velocity=100, time=0),
    Message('note_on', channel=3, note=54, velocity=100, time=0),
    Message('note_on', channel=3, note=54, velocity=0, time=120),
    Message('note_on', channel=3, note=61, velocity=0, time=0),
    Message('note_on', channel=3, note=66, velocity=0, time=0),
    Message('note_on', channel=3, note=67, velocity=100, time=0),
    Message('note_on', channel=3, note=62, velocity=100, time=0),
    Message('note_on', channel=3, note=55, velocity=100, time=0),
    Message('note_on', channel=3, note=55, velocity=0, time=120),
    Message('note_on', channel=3, note=62, velocity=0, time=0),
    Message('note_on', channel=3, note=67, velocity=0, time=0),
    Message('note_on', channel=3, note=66, velocity=100, time=0),
    Message('note_on', channel=3, note=61, velocity=100, time=0),
    Message('note_on', channel=3, note=54, velocity=100, time=0),
    Message('note_on', channel=3, note=54, velocity=0, time=120),
    Message('note_on', channel=3, note=61, velocity=0, time=0),
    Message('note_on', channel=3, note=66, velocity=0, time=0),
    Message('note_on', channel=3, note=67, velocity=100, time=0),
    Message('note_on', channel=3, note=62, velocity=100, time=0),
    Message('note_on', channel=3, note=55, velocity=100, time=0),
    Message('note_on', channel=3, note=55, velocity=0, time=120),
    Message('note_on', channel=3, note=62, velocity=0, time=0),
    Message('note_on', channel=3, note=67, velocity=0, time=0),
    Message('note_on', channel=3, note=66, velocity=100, time=0),
    Message('note_on', channel=3, note=61, velocity=100, time=0),
    Message('note_on', channel=3, note=54, velocity=100, time=0),
    Message('note_on', channel=3, note=54, velocity=0, time=120),
    Message('note_on', channel=3, note=61, velocity=0, time=0),
    Message('note_on', channel=3, note=66, velocity=0, time=0),
    Message('note_on', channel=3, note=62, velocity=100, time=0),
    Message('note_on', channel=3, note=57, velocity=100, time=0),
    Message('note_on', channel=3, note=50, velocity=100, time=0),
    Message('note_on', channel=3, note=50, velocity=0, time=234),
    Message('note_on', channel=3, note=57, velocity=0, time=0),
    Message('note_on', channel=3, note=62, velocity=0, time=0),
    Message('note_on', channel=3, note=62, velocity=100, time=6),
    Message('note_on', channel=3, note=57, velocity=100, time=0),
    Message('note_on', channel=3, note=50, velocity=100, time=0),
    Message('pitchwheel', channel=3, pitch=1365, time=180),
    Message('note_on', channel=3, note=50, velocity=0, time=60),
    Message('note_on', channel=3, note=57, velocity=0, time=0),
    Message('note_on', channel=3, note=62, velocity=0, time=0),
    Message('pitchwheel', channel=3, pitch=0, time=0),
    Message('note_on', channel=3, note=64, velocity=100, time=0),
    Message('note_on', channel=3, note=59, velocity=100, time=0),
    Message('note_on', channel=3, note=52, velocity=100, time=0),
    Message('note_on', channel=3, note=52, velocity=0, time=240),
    Message('note_on', channel=3, note=59, velocity=0, time=0),
    Message('note_on', channel=3, note=64, velocity=0, time=0),
    Message('note_on', channel=3, note=64, velocity=100, time=0),
    Message('note_on', channel=3, note=59, velocity=100, time=0),
    Message('note_on', channel=3, note=52, velocity=100, time=0),
    Message('note_on', channel=3, note=52, velocity=0, time=480),
    Message('note_on', channel=3, note=59, velocity=0, time=0),
    Message('note_on', channel=3, note=64, velocity=0, time=0),
    Message('pitchwheel', channel=3, pitch=0, time=0),
    Message('note_on', channel=3, note=59, velocity=100, time=0),
    Message('note_on', channel=3, note=54, velocity=100, time=0),
    Message('note_on', channel=3, note=47, velocity=100, time=0),
    Message('note_on', channel=3, note=47, velocity=0, time=480),
    Message('note_on', channel=3, note=54, velocity=0, time=0),
    Message('note_on', channel=3, note=59, velocity=0, time=0),
    Message('note_on', channel=3, note=62, velocity=100, time=0),
    Message('note_on', channel=3, note=57, velocity=100, time=0),
    Message('note_on', channel=3, note=50, velocity=100, time=0),
    Message('note_on', channel=3, note=50, velocity=0, time=480),
    Message('note_on', channel=3, note=57, velocity=0, time=0),
    Message('note_on', channel=3, note=62, velocity=0, time=0),
    Message('note_on', channel=3, note=62, velocity=100, time=0),
    Message('note_on', channel=3, note=57, velocity=100, time=0),
    Message('note_on', channel=3, note=50, velocity=100, time=0),
    Message('pitchwheel', channel=3, pitch=1365, time=180),
    Message('note_on', channel=3, note=50, velocity=0, time=60),
    Message('note_on', channel=3, note=57, velocity=0, time=0),
    Message('note_on', channel=3, note=62, velocity=0, time=0),
    Message('pitchwheel', channel=3, pitch=0, time=0),
    Message('note_on', channel=3, note=64, velocity=100, time=0),
    Message('note_on', channel=3, note=59, velocity=100, time=0),
    Message('note_on', channel=3, note=52, velocity=100, time=0),
    Message('note_on', channel=3, note=52, velocity=0, time=240),
    Message('note_on', channel=3, note=59, velocity=0, time=0),
    Message('note_on', channel=3, note=64, velocity=0, time=0),
    Message('note_on', channel=3, note=64, velocity=100, time=0),
    Message('note_on', channel=3, note=59, velocity=100, time=0),
    Message('note_on', channel=3, note=52, velocity=100, time=0),
    Message('note_on', channel=3, note=52, velocity=0, time=480),
    Message('note_on', channel=3, note=59, velocity=0, time=0),
    Message('note_on', channel=3, note=64, velocity=0, time=0),
    Message('note_on', channel=3, note=67, velocity=100, time=0),
    Message('note_on', channel=3, note=62, velocity=100, time=0),
    Message('note_on', channel=3, note=55, velocity=100, time=0),
    Message('note_on', channel=3, note=55, velocity=0, time=120),
    Message('note_on', channel=3, note=62, velocity=0, time=0),
    Message('note_on', channel=3, note=67, velocity=0, time=0),
    Message('note_on', channel=3, note=66, velocity=100, time=0),
    Message('note_on', channel=3, note=61, velocity=100, time=0),
    Message('note_on', channel=3, note=54, velocity=100, time=0),
    Message('note_on', channel=3, note=54, velocity=0, time=120),
    Message('note_on', channel=3, note=61, velocity=0, time=0),
    Message('note_on', channel=3, note=66, velocity=0, time=0),
    Message('note_on', channel=3, note=67, velocity=100, time=0),
    Message('note_on', channel=3, note=62, velocity=100, time=0),
    Message('note_on', channel=3, note=55, velocity=100, time=0),
    Message('note_on', channel=3, note=55, velocity=0, time=120),
    Message('note_on', channel=3, note=62, velocity=0, time=0),
    Message('note_on', channel=3, note=67, velocity=0, time=0),
    Message('note_on', channel=3, note=66, velocity=100, time=0),
    Message('note_on', channel=3, note=61, velocity=100, time=0),
    Message('note_on', channel=3, note=54, velocity=100, time=0),
    Message('note_on', channel=3, note=54, velocity=0, time=120),
    Message('note_on', channel=3, note=61, velocity=0, time=0),
    Message('note_on', channel=3, note=66, velocity=0, time=0),
    Message('note_on', channel=3, note=67, velocity=100, time=0),
    Message('note_on', channel=3, note=62, velocity=100, time=0),
    Message('note_on', channel=3, note=55, velocity=100, time=0),
    Message('note_on', channel=3, note=55, velocity=0, time=120),
    Message('note_on', channel=3, note=62, velocity=0, time=0),
    Message('note_on', channel=3, note=67, velocity=0, time=0),
    Message('note_on', channel=3, note=66, velocity=100, time=0),
    Message('note_on', channel=3, note=61, velocity=100, time=0),
    Message('note_on', channel=3, note=54, velocity=100, time=0),
    Message('note_on', channel=3, note=54, velocity=0, time=120),
    Message('note_on', channel=3, note=61, velocity=0, time=0),
    Message('note_on', channel=3, note=66, velocity=0, time=0),
    Message('note_on', channel=3, note=62, velocity=100, time=0),
    Message('note_on', channel=3, note=57, velocity=100, time=0),
    Message('note_on', channel=3, note=50, velocity=100, time=0),
    Message('note_on', channel=3, note=50, velocity=0, time=234),
    Message('note_on', channel=3, note=57, velocity=0, time=0),
    Message('note_on', channel=3, note=62, velocity=0, time=0),
    Message('note_on', channel=3, note=62, velocity=100, time=6),
    Message('note_on', channel=3, note=57, velocity=100, time=0),
    Message('note_on', channel=3, note=50, velocity=100, time=0),
    Message('pitchwheel', channel=3, pitch=1365, time=180),
    Message('note_on', channel=3, note=50, velocity=0, time=60),
    Message('note_on', channel=3, note=57, velocity=0, time=0),
    Message('note_on', channel=3, note=62, velocity=0, time=0),
    Message('pitchwheel', channel=3, pitch=0, time=0),
    Message('note_on', channel=3, note=64, velocity=100, time=0),
    Message('note_on', channel=3, note=59, velocity=100, time=0),
    Message('note_on', channel=3, note=52, velocity=100, time=0),
    Message('note_on', channel=3, note=52, velocity=0, time=240),
    Message('note_on', channel=3, note=59, velocity=0, time=0),
    Message('note_on', channel=3, note=64, velocity=0, time=0),
    Message('note_on', channel=3, note=64, velocity=100, time=0),
    Message('note_on', channel=3, note=59, velocity=100, time=0),
    Message('note_on', channel=3, note=52, velocity=100, time=0),
    Message('note_on', channel=3, note=52, velocity=0, time=480),
    Message('note_on', channel=3, note=59, velocity=0, time=0),
    Message('note_on', channel=3, note=64, velocity=0, time=0),
    Message('pitchwheel', channel=3, pitch=0, time=0),
    Message('note_on', channel=3, note=59, velocity=100, time=0),
    Message('note_on', channel=3, note=54, velocity=100, time=0),
    Message('note_on', channel=3, note=47, velocity=100, time=0),
    Message('note_on', channel=3, note=47, velocity=0, time=480),
    Message('note_on', channel=3, note=54, velocity=0, time=0),
    Message('note_on', channel=3, note=59, velocity=0, time=0),
    Message('note_on', channel=3, note=62, velocity=100, time=0),
    Message('note_on', channel=3, note=57, velocity=100, time=0),
    Message('note_on', channel=3, note=50, velocity=100, time=0),
    Message('note_on', channel=3, note=50, velocity=0, time=480),
    Message('note_on', channel=3, note=57, velocity=0, time=0),
    Message('note_on', channel=3, note=62, velocity=0, time=0),
    Message('note_on', channel=3, note=62, velocity=100, time=0),
    Message('note_on', channel=3, note=57, velocity=100, time=0),
    Message('note_on', channel=3, note=50, velocity=100, time=0),
    Message('pitchwheel', channel=3, pitch=1365, time=180),
    Message('note_on', channel=3, note=50, velocity=0, time=60),
    Message('note_on', channel=3, note=57, velocity=0, time=0),
    Message('note_on', channel=3, note=62, velocity=0, time=0),
    Message('pitchwheel', channel=3, pitch=0, time=0),
    Message('note_on', channel=3, note=64, velocity=100, time=0),
    Message('note_on', channel=3, note=59, velocity=100, time=0),
    Message('note_on', channel=3, note=52, velocity=100, time=0),
    Message('note_on', channel=3, note=52, velocity=0, time=240),
    Message('note_on', channel=3, note=59, velocity=0, time=0),
    Message('note_on', channel=3, note=64, velocity=0, time=0),
    Message('note_on', channel=3, note=64, velocity=100, time=0),
    Message('note_on', channel=3, note=59, velocity=100, time=0),
    Message('note_on', channel=3, note=52, velocity=100, time=0),
    Message('note_on', channel=3, note=52, velocity=0, time=480),
    Message('note_on', channel=3, note=59, velocity=0, time=0),
    Message('note_on', channel=3, note=64, velocity=0, time=0),
    Message('note_on', channel=3, note=67, velocity=100, time=0),
    Message('note_on', channel=3, note=62, velocity=100, time=0),
    Message('note_on', channel=3, note=55, velocity=100, time=0),
    Message('note_on', channel=3, note=55, velocity=0, time=120),
    Message('note_on', channel=3, note=62, velocity=0, time=0),
    Message('note_on', channel=3, note=67, velocity=0, time=0),
    Message('note_on', channel=3, note=66, velocity=100, time=0),
    Message('note_on', channel=3, note=61, velocity=100, time=0),
    Message('note_on', channel=3, note=54, velocity=100, time=0),
    Message('note_on', channel=3, note=54, velocity=0, time=120),
    Message('note_on', channel=3, note=61, velocity=0, time=0),
    Message('note_on', channel=3, note=66, velocity=0, time=0),
    Message('note_on', channel=3, note=67, velocity=100, time=0),
    Message('note_on', channel=3, note=62, velocity=100, time=0),
    Message('note_on', channel=3, note=55, velocity=100, time=0),
    Message('note_on', channel=3, note=55, velocity=0, time=120),
    Message('note_on', channel=3, note=62, velocity=0, time=0),
    Message('note_on', channel=3, note=67, velocity=0, time=0),
    Message('note_on', channel=3, note=66, velocity=100, time=0),
    Message('note_on', channel=3, note=61, velocity=100, time=0),
    Message('note_on', channel=3, note=54, velocity=100, time=0),
    Message('note_on', channel=3, note=54, velocity=0, time=120),
    Message('note_on', channel=3, note=61, velocity=0, time=0),
    Message('note_on', channel=3, note=66, velocity=0, time=0),
    Message('note_on', channel=3, note=67, velocity=100, time=0),
    Message('note_on', channel=3, note=62, velocity=100, time=0),
    Message('note_on', channel=3, note=55, velocity=100, time=0),
    Message('note_on', channel=3, note=55, velocity=0, time=120),
    Message('note_on', channel=3, note=62, velocity=0, time=0),
    Message('note_on', channel=3, note=67, velocity=0, time=0),
    Message('note_on', channel=3, note=66, velocity=100, time=0),
    Message('note_on', channel=3, note=61, velocity=100, time=0),
    Message('note_on', channel=3, note=54, velocity=100, time=0),
    Message('note_on', channel=3, note=54, velocity=0, time=120),
    Message('note_on', channel=3, note=61, velocity=0, time=0),
    Message('note_on', channel=3, note=66, velocity=0, time=0),
    Message('note_on', channel=3, note=62, velocity=100, time=0),
    Message('note_on', channel=3, note=57, velocity=100, time=0),
    Message('note_on', channel=3, note=50, velocity=100, time=0),
    Message('note_on', channel=3, note=50, velocity=0, time=234),
    Message('note_on', channel=3, note=57, velocity=0, time=0),
    Message('note_on', channel=3, note=62, velocity=0, time=0),
    Message('note_on', channel=3, note=62, velocity=100, time=6),
    Message('note_on', channel=3, note=57, velocity=100, time=0),
    Message('note_on', channel=3, note=50, velocity=100, time=0),
    Message('pitchwheel', channel=3, pitch=1365, time=180),
    Message('note_on', channel=3, note=50, velocity=0, time=60),
    Message('note_on', channel=3, note=57, velocity=0, time=0),
    Message('note_on', channel=3, note=62, velocity=0, time=0),
    Message('pitchwheel', channel=3, pitch=0, time=0),
    Message('note_on', channel=3, note=64, velocity=100, time=0),
    Message('note_on', channel=3, note=59, velocity=100, time=0),
    Message('note_on', channel=3, note=52, velocity=100, time=0),
    Message('note_on', channel=3, note=52, velocity=0, time=240),
    Message('note_on', channel=3, note=59, velocity=0, time=0),
    Message('note_on', channel=3, note=64, velocity=0, time=0),
    Message('note_on', channel=3, note=64, velocity=100, time=0),
    Message('note_on', channel=3, note=59, velocity=100, time=0),
    Message('note_on', channel=3, note=52, velocity=100, time=0),
    Message('note_on', channel=3, note=52, velocity=0, time=480),
    Message('note_on', channel=3, note=59, velocity=0, time=0),
    Message('note_on', channel=3, note=64, velocity=0, time=0),
    Message('pitchwheel', channel=3, pitch=0, time=0),
    Message('note_on', channel=3, note=59, velocity=100, time=0),
    Message('note_on', channel=3, note=54, velocity=100, time=0),
    Message('note_on', channel=3, note=47, velocity=100, time=0),
    Message('note_on', channel=3, note=47, velocity=0, time=480),
    Message('note_on', channel=3, note=54, velocity=0, time=0),
    Message('note_on', channel=3, note=59, velocity=0, time=0),
    Message('note_on', channel=3, note=62, velocity=100, time=0),
    Message('note_on', channel=3, note=57, velocity=100, time=0),
    Message('note_on', channel=3, note=50, velocity=100, time=0),
    Message('note_on', channel=3, note=50, velocity=0, time=480),
    Message('note_on', channel=3, note=57, velocity=0, time=0),
    Message('note_on', channel=3, note=62, velocity=0, time=0),
    Message('note_on', channel=3, note=62, velocity=100, time=0),
    Message('note_on', channel=3, note=57, velocity=100, time=0),
    Message('note_on', channel=3, note=50, velocity=100, time=0),
    Message('pitchwheel', channel=3, pitch=1365, time=180),
    Message('note_on', channel=3, note=50, velocity=0, time=60),
    Message('note_on', channel=3, note=57, velocity=0, time=0),
    Message('note_on', channel=3, note=62, velocity=0, time=0),
    Message('pitchwheel', channel=3, pitch=0, time=0),
    Message('note_on', channel=3, note=64, velocity=100, time=0),
    Message('note_on', channel=3, note=59, velocity=100, time=0),
    Message('note_on', channel=3, note=52, velocity=100, time=0),
    Message('note_on', channel=3, note=52, velocity=0, time=240),
    Message('note_on', channel=3, note=59, velocity=0, time=0),
    Message('note_on', channel=3, note=64, velocity=0, time=0),
    Message('note_on', channel=3, note=64, velocity=100, time=0),
    Message('note_on', channel=3, note=59, velocity=100, time=0),
    Message('note_on', channel=3, note=52, velocity=100, time=0),
    Message('note_on', channel=3, note=52, velocity=0, time=480),
    Message('note_on', channel=3, note=59, velocity=0, time=0),
    Message('note_on', channel=3, note=64, velocity=0, time=0),
    Message('note_on', channel=3, note=67, velocity=100, time=0),
    Message('note_on', channel=3, note=62, velocity=100, time=0),
    Message('note_on', channel=3, note=55, velocity=100, time=0),
    Message('note_on', channel=3, note=55, velocity=0, time=120),
    Message('note_on', channel=3, note=62, velocity=0, time=0),
    Message('note_on', channel=3, note=67, velocity=0, time=0),
    Message('note_on', channel=3, note=66, velocity=100, time=0),
    Message('note_on', channel=3, note=61, velocity=100, time=0),
    Message('note_on', channel=3, note=54, velocity=100, time=0),
    Message('note_on', channel=3, note=54, velocity=0, time=120),
    Message('note_on', channel=3, note=61, velocity=0, time=0),
    Message('note_on', channel=3, note=66, velocity=0, time=0),
    Message('note_on', channel=3, note=67, velocity=100, time=0),
    Message('note_on', channel=3, note=62, velocity=100, time=0),
    Message('note_on', channel=3, note=55, velocity=100, time=0),
    Message('note_on', channel=3, note=55, velocity=0, time=120),
    Message('note_on', channel=3, note=62, velocity=0, time=0),
    Message('note_on', channel=3, note=67, velocity=0, time=0),
    Message('note_on', channel=3, note=66, velocity=100, time=0),
    Message('note_on', channel=3, note=61, velocity=100, time=0),
    Message('note_on', channel=3, note=54, velocity=100, time=0),
    Message('note_on', channel=3, note=54, velocity=0, time=120),
    Message('note_on', channel=3, note=61, velocity=0, time=0),
    Message('note_on', channel=3, note=66, velocity=0, time=0),
    Message('note_on', channel=3, note=67, velocity=100, time=0),
    Message('note_on', channel=3, note=62, velocity=100, time=0),
    Message('note_on', channel=3, note=55, velocity=100, time=0),
    Message('note_on', channel=3, note=55, velocity=0, time=120),
    Message('note_on', channel=3, note=62, velocity=0, time=0),
    Message('note_on', channel=3, note=67, velocity=0, time=0),
    Message('note_on', channel=3, note=66, velocity=100, time=0),
    Message('note_on', channel=3, note=61, velocity=100, time=0),
    Message('note_on', channel=3, note=54, velocity=100, time=0),
    Message('note_on', channel=3, note=54, velocity=0, time=120),
    Message('note_on', channel=3, note=61, velocity=0, time=0),
    Message('note_on', channel=3, note=66, velocity=0, time=0),
    Message('note_on', channel=3, note=62, velocity=100, time=0),
    Message('note_on', channel=3, note=57, velocity=100, time=0),
    Message('note_on', channel=3, note=50, velocity=100, time=0),
    Message('note_on', channel=3, note=50, velocity=0, time=234),
    Message('note_on', channel=3, note=57, velocity=0, time=0),
    Message('note_on', channel=3, note=62, velocity=0, time=0),
    Message('note_on', channel=3, note=62, velocity=100, time=6),
    Message('note_on', channel=3, note=57, velocity=100, time=0),
    Message('note_on', channel=3, note=50, velocity=100, time=0),
    Message('pitchwheel', channel=3, pitch=1365, time=180),
    Message('note_on', channel=3, note=50, velocity=0, time=60),
    Message('note_on', channel=3, note=57, velocity=0, time=0),
    Message('note_on', channel=3, note=62, velocity=0, time=0),
    Message('pitchwheel', channel=3, pitch=0, time=0),
    Message('note_on', channel=3, note=64, velocity=100, time=0),
    Message('note_on', channel=3, note=59, velocity=100, time=0),
    Message('note_on', channel=3, note=52, velocity=100, time=0),
    Message('note_on', channel=3, note=52, velocity=0, time=240),
    Message('note_on', channel=3, note=59, velocity=0, time=0),
    Message('note_on', channel=3, note=64, velocity=0, time=0),
    Message('note_on', channel=3, note=64, velocity=100, time=0),
    Message('note_on', channel=3, note=59, velocity=100, time=0),
    Message('note_on', channel=3, note=52, velocity=100, time=0),
    Message('note_on', channel=3, note=52, velocity=0, time=480),
    Message('note_on', channel=3, note=59, velocity=0, time=0),
    Message('note_on', channel=3, note=64, velocity=0, time=0),
    Message('pitchwheel', channel=3, pitch=0, time=0),
    Message('note_on', channel=3, note=59, velocity=100, time=0),
    Message('note_on', channel=3, note=54, velocity=100, time=0),
    Message('note_on', channel=3, note=47, velocity=100, time=0),
    Message('note_on', channel=3, note=47, velocity=0, time=480),
    Message('note_on', channel=3, note=54, velocity=0, time=0),
    Message('note_on', channel=3, note=59, velocity=0, time=0),
    Message('note_on', channel=3, note=62, velocity=100, time=0),
    Message('note_on', channel=3, note=57, velocity=100, time=0),
    Message('note_on', channel=3, note=50, velocity=100, time=0),
    Message('note_on', channel=3, note=50, velocity=0, time=480),
    Message('note_on', channel=3, note=57, velocity=0, time=0),
    Message('note_on', channel=3, note=62, velocity=0, time=0),
    Message('note_on', channel=3, note=62, velocity=100, time=0),
    Message('note_on', channel=3, note=57, velocity=100, time=0),
    Message('note_on', channel=3, note=50, velocity=100, time=0),
    Message('pitchwheel', channel=3, pitch=1365, time=180),
    Message('note_on', channel=3, note=50, velocity=0, time=60),
    Message('note_on', channel=3, note=57, velocity=0, time=0),
    Message('note_on', channel=3, note=62, velocity=0, time=0),
    Message('pitchwheel', channel=3, pitch=0, time=0),
    Message('note_on', channel=3, note=64, velocity=100, time=0),
    Message('note_on', channel=3, note=59, velocity=100, time=0),
    Message('note_on', channel=3, note=52, velocity=100, time=0),
    Message('note_on', channel=3, note=52, velocity=0, time=240),
    Message('note_on', channel=3, note=59, velocity=0, time=0),
    Message('note_on', channel=3, note=64, velocity=0, time=0),
    Message('note_on', channel=3, note=64, velocity=100, time=0),
    Message('note_on', channel=3, note=59, velocity=100, time=0),
    Message('note_on', channel=3, note=52, velocity=100, time=0),
    Message('note_on', channel=3, note=52, velocity=0, time=480),
    Message('note_on', channel=3, note=59, velocity=0, time=0),
    Message('note_on', channel=3, note=64, velocity=0, time=0),
    Message('note_on', channel=3, note=67, velocity=100, time=0),
    Message('note_on', channel=3, note=62, velocity=100, time=0),
    Message('note_on', channel=3, note=55, velocity=100, time=0),
    Message('note_on', channel=3, note=55, velocity=0, time=120),
    Message('note_on', channel=3, note=62, velocity=0, time=0),
    Message('note_on', channel=3, note=67, velocity=0, time=0),
    Message('note_on', channel=3, note=66, velocity=100, time=0),
    Message('note_on', channel=3, note=61, velocity=100, time=0),
    Message('note_on', channel=3, note=54, velocity=100, time=0),
    Message('note_on', channel=3, note=54, velocity=0, time=120),
    Message('note_on', channel=3, note=61, velocity=0, time=0),
    Message('note_on', channel=3, note=66, velocity=0, time=0),
    Message('note_on', channel=3, note=67, velocity=100, time=0),
    Message('note_on', channel=3, note=62, velocity=100, time=0),
    Message('note_on', channel=3, note=55, velocity=100, time=0),
    Message('note_on', channel=3, note=55, velocity=0, time=120),
    Message('note_on', channel=3, note=62, velocity=0, time=0),
    Message('note_on', channel=3, note=67, velocity=0, time=0),
    Message('note_on', channel=3, note=66, velocity=100, time=0),
    Message('note_on', channel=3, note=61, velocity=100, time=0),
    Message('note_on', channel=3, note=54, velocity=100, time=0),
    Message('note_on', channel=3, note=54, velocity=0, time=120),
    Message('note_on', channel=3, note=61, velocity=0, time=0),
    Message('note_on', channel=3, note=66, velocity=0, time=0),
    Message('note_on', channel=3, note=67, velocity=100, time=0),
    Message('note_on', channel=3, note=62, velocity=100, time=0),
    Message('note_on', channel=3, note=55, velocity=100, time=0),
    Message('note_on', channel=3, note=55, velocity=0, time=120),
    Message('note_on', channel=3, note=62, velocity=0, time=0),
    Message('note_on', channel=3, note=67, velocity=0, time=0),
    Message('note_on', channel=3, note=66, velocity=100, time=0),
    Message('note_on', channel=3, note=61, velocity=100, time=0),
    Message('note_on', channel=3, note=54, velocity=100, time=0),
    Message('note_on', channel=3, note=54, velocity=0, time=120),
    Message('note_on', channel=3, note=61, velocity=0, time=0),
    Message('note_on', channel=3, note=66, velocity=0, time=0),
    Message('note_on', channel=3, note=62, velocity=100, time=0),
    Message('note_on', channel=3, note=57, velocity=100, time=0),
    Message('note_on', channel=3, note=50, velocity=100, time=0),
    Message('note_on', channel=3, note=50, velocity=0, time=234),
    Message('note_on', channel=3, note=57, velocity=0, time=0),
    Message('note_on', channel=3, note=62, velocity=0, time=0),
    Message('note_on', channel=3, note=62, velocity=100, time=6),
    Message('note_on', channel=3, note=57, velocity=100, time=0),
    Message('note_on', channel=3, note=50, velocity=100, time=0),
    Message('pitchwheel', channel=3, pitch=1365, time=180),
    Message('note_on', channel=3, note=50, velocity=0, time=60),
    Message('note_on', channel=3, note=57, velocity=0, time=0),
    Message('note_on', channel=3, note=62, velocity=0, time=0),
    Message('pitchwheel', channel=3, pitch=0, time=0),
    Message('note_on', channel=3, note=64, velocity=100, time=0),
    Message('note_on', channel=3, note=59, velocity=100, time=0),
    Message('note_on', channel=3, note=52, velocity=100, time=0),
    Message('note_on', channel=3, note=52, velocity=0, time=240),
    Message('note_on', channel=3, note=59, velocity=0, time=0),
    Message('note_on', channel=3, note=64, velocity=0, time=0),
    Message('note_on', channel=3, note=64, velocity=100, time=0),
    Message('note_on', channel=3, note=59, velocity=100, time=0),
    Message('note_on', channel=3, note=52, velocity=100, time=0),
    Message('note_on', channel=3, note=52, velocity=0, time=480),
    Message('note_on', channel=3, note=59, velocity=0, time=0),
    Message('note_on', channel=3, note=64, velocity=0, time=0),
    Message('pitchwheel', channel=3, pitch=0, time=0),
    Message('note_on', channel=3, note=59, velocity=100, time=0),
    Message('note_on', channel=3, note=54, velocity=100, time=0),
    Message('note_on', channel=3, note=47, velocity=100, time=0),
    Message('note_on', channel=3, note=47, velocity=0, time=480),
    Message('note_on', channel=3, note=54, velocity=0, time=0),
    Message('note_on', channel=3, note=59, velocity=0, time=0),
    Message('note_on', channel=3, note=62, velocity=100, time=0),
    Message('note_on', channel=3, note=57, velocity=100, time=0),
    Message('note_on', channel=3, note=50, velocity=100, time=0),
    Message('note_on', channel=3, note=50, velocity=0, time=480),
    Message('note_on', channel=3, note=57, velocity=0, time=0),
    Message('note_on', channel=3, note=62, velocity=0, time=0),
    Message('note_on', channel=3, note=62, velocity=100, time=0),
    Message('note_on', channel=3, note=57, velocity=100, time=0),
    Message('note_on', channel=3, note=50, velocity=100, time=0),
    Message('pitchwheel', channel=3, pitch=1365, time=180),
    Message('note_on', channel=3, note=50, velocity=0, time=60),
    Message('note_on', channel=3, note=57, velocity=0, time=0),
    Message('note_on', channel=3, note=62, velocity=0, time=0),
    Message('pitchwheel', channel=3, pitch=0, time=0),
    Message('note_on', channel=3, note=64, velocity=100, time=0),
    Message('note_on', channel=3, note=59, velocity=100, time=0),
    Message('note_on', channel=3, note=52, velocity=100, time=0),
    Message('note_on', channel=3, note=52, velocity=0, time=240),
    Message('note_on', channel=3, note=59, velocity=0, time=0),
    Message('note_on', channel=3, note=64, velocity=0, time=0),
    Message('note_on', channel=3, note=64, velocity=100, time=0),
    Message('note_on', channel=3, note=59, velocity=100, time=0),
    Message('note_on', channel=3, note=52, velocity=100, time=0),
    Message('note_on', channel=3, note=52, velocity=0, time=480),
    Message('note_on', channel=3, note=59, velocity=0, time=0),
    Message('note_on', channel=3, note=64, velocity=0, time=0),
    Message('note_on', channel=3, note=67, velocity=100, time=0),
    Message('note_on', channel=3, note=62, velocity=100, time=0),
    Message('note_on', channel=3, note=55, velocity=100, time=0),
    Message('note_on', channel=3, note=55, velocity=0, time=120),
    Message('note_on', channel=3, note=62, velocity=0, time=0),
    Message('note_on', channel=3, note=67, velocity=0, time=0),
    Message('note_on', channel=3, note=66, velocity=100, time=0),
    Message('note_on', channel=3, note=61, velocity=100, time=0),
    Message('note_on', channel=3, note=54, velocity=100, time=0),
    Message('note_on', channel=3, note=54, velocity=0, time=120),
    Message('note_on', channel=3, note=61, velocity=0, time=0),
    Message('note_on', channel=3, note=66, velocity=0, time=0),
    Message('note_on', channel=3, note=67, velocity=100, time=0),
    Message('note_on', channel=3, note=62, velocity=100, time=0),
    Message('note_on', channel=3, note=55, velocity=100, time=0),
    Message('note_on', channel=3, note=55, velocity=0, time=120),
    Message('note_on', channel=3, note=62, velocity=0, time=0),
    Message('note_on', channel=3, note=67, velocity=0, time=0),
    Message('note_on', channel=3, note=66, velocity=100, time=0),
    Message('note_on', channel=3, note=61, velocity=100, time=0),
    Message('note_on', channel=3, note=54, velocity=100, time=0),
    Message('note_on', channel=3, note=54, velocity=0, time=120),
    Message('note_on', channel=3, note=61, velocity=0, time=0),
    Message('note_on', channel=3, note=66, velocity=0, time=0),
    Message('note_on', channel=3, note=67, velocity=100, time=0),
    Message('note_on', channel=3, note=62, velocity=100, time=0),
    Message('note_on', channel=3, note=55, velocity=100, time=0),
    Message('note_on', channel=3, note=55, velocity=0, time=120),
    Message('note_on', channel=3, note=62, velocity=0, time=0),
    Message('note_on', channel=3, note=67, velocity=0, time=0),
    Message('note_on', channel=3, note=66, velocity=100, time=0),
    Message('note_on', channel=3, note=61, velocity=100, time=0),
    Message('note_on', channel=3, note=54, velocity=100, time=0),
    Message('note_on', channel=3, note=54, velocity=0, time=120),
    Message('note_on', channel=3, note=61, velocity=0, time=0),
    Message('note_on', channel=3, note=66, velocity=0, time=0),
    Message('note_on', channel=3, note=62, velocity=100, time=0),
    Message('note_on', channel=3, note=57, velocity=100, time=0),
    Message('note_on', channel=3, note=50, velocity=100, time=0),
    Message('note_on', channel=3, note=50, velocity=0, time=234),
    Message('note_on', channel=3, note=57, velocity=0, time=0),
    Message('note_on', channel=3, note=62, velocity=0, time=0),
    Message('note_on', channel=3, note=62, velocity=100, time=6),
    Message('note_on', channel=3, note=57, velocity=100, time=0),
    Message('note_on', channel=3, note=50, velocity=100, time=0),
    Message('pitchwheel', channel=3, pitch=1365, time=180),
    Message('note_on', channel=3, note=50, velocity=0, time=60),
    Message('note_on', channel=3, note=57, velocity=0, time=0),
    Message('note_on', channel=3, note=62, velocity=0, time=0),
    Message('pitchwheel', channel=3, pitch=0, time=0),
    Message('note_on', channel=3, note=64, velocity=100, time=0),
    Message('note_on', channel=3, note=59, velocity=100, time=0),
    Message('note_on', channel=3, note=52, velocity=100, time=0),
    Message('note_on', channel=3, note=52, velocity=0, time=240),
    Message('note_on', channel=3, note=59, velocity=0, time=0),
    Message('note_on', channel=3, note=64, velocity=0, time=0),
    Message('note_on', channel=3, note=64, velocity=100, time=0),
    Message('note_on', channel=3, note=59, velocity=100, time=0),
    Message('note_on', channel=3, note=52, velocity=100, time=0),
    Message('note_on', channel=3, note=52, velocity=0, time=480),
    Message('note_on', channel=3, note=59, velocity=0, time=0),
    Message('note_on', channel=3, note=64, velocity=0, time=0),
    Message('pitchwheel', channel=3, pitch=0, time=0),
    Message('note_on', channel=3, note=59, velocity=100, time=0),
    Message('note_on', channel=3, note=54, velocity=100, time=0),
    Message('note_on', channel=3, note=47, velocity=100, time=0),
    Message('note_on', channel=3, note=47, velocity=0, time=480),
    Message('note_on', channel=3, note=54, velocity=0, time=0),
    Message('note_on', channel=3, note=59, velocity=0, time=0),
    Message('note_on', channel=3, note=62, velocity=100, time=0),
    Message('note_on', channel=3, note=57, velocity=100, time=0),
    Message('note_on', channel=3, note=50, velocity=100, time=0),
    Message('note_on', channel=3, note=50, velocity=0, time=480),
    Message('note_on', channel=3, note=57, velocity=0, time=0),
    Message('note_on', channel=3, note=62, velocity=0, time=0),
    Message('note_on', channel=3, note=62, velocity=100, time=0),
    Message('note_on', channel=3, note=57, velocity=100, time=0),
    Message('note_on', channel=3, note=50, velocity=100, time=0),
    Message('pitchwheel', channel=3, pitch=1365, time=180),
    Message('note_on', channel=3, note=50, velocity=0, time=60),
    Message('note_on', channel=3, note=57, velocity=0, time=0),
    Message('note_on', channel=3, note=62, velocity=0, time=0),
    Message('pitchwheel', channel=3, pitch=0, time=0),
    Message('note_on', channel=3, note=64, velocity=100, time=0),
    Message('note_on', channel=3, note=59, velocity=100, time=0),
    Message('note_on', channel=3, note=52, velocity=100, time=0),
    Message('note_on', channel=3, note=52, velocity=0, time=240),
    Message('note_on', channel=3, note=59, velocity=0, time=0),
    Message('note_on', channel=3, note=64, velocity=0, time=0),
    Message('note_on', channel=3, note=64, velocity=100, time=0),
    Message('note_on', channel=3, note=59, velocity=100, time=0),
    Message('note_on', channel=3, note=52, velocity=100, time=0),
    Message('note_on', channel=3, note=52, velocity=0, time=480),
    Message('note_on', channel=3, note=59, velocity=0, time=0),
    Message('note_on', channel=3, note=64, velocity=0, time=0),
    Message('note_on', channel=3, note=67, velocity=100, time=0),
    Message('note_on', channel=3, note=62, velocity=100, time=0),
    Message('note_on', channel=3, note=55, velocity=100, time=0),
    Message('note_on', channel=3, note=55, velocity=0, time=120),
    Message('note_on', channel=3, note=62, velocity=0, time=0),
    Message('note_on', channel=3, note=67, velocity=0, time=0),
    Message('note_on', channel=3, note=66, velocity=100, time=0),
    Message('note_on', channel=3, note=61, velocity=100, time=0),
    Message('note_on', channel=3, note=54, velocity=100, time=0),
    Message('note_on', channel=3, note=54, velocity=0, time=120),
    Message('note_on', channel=3, note=61, velocity=0, time=0),
    Message('note_on', channel=3, note=66, velocity=0, time=0),
    Message('note_on', channel=3, note=67, velocity=100, time=0),
    Message('note_on', channel=3, note=62, velocity=100, time=0),
    Message('note_on', channel=3, note=55, velocity=100, time=0),
    Message('note_on', channel=3, note=55, velocity=0, time=120),
    Message('note_on', channel=3, note=62, velocity=0, time=0),
    Message('note_on', channel=3, note=67, velocity=0, time=0),
    Message('note_on', channel=3, note=66, velocity=100, time=0),
    Message('note_on', channel=3, note=61, velocity=100, time=0),
    Message('note_on', channel=3, note=54, velocity=100, time=0),
    Message('note_on', channel=3, note=54, velocity=0, time=120),
    Message('note_on', channel=3, note=61, velocity=0, time=0),
    Message('note_on', channel=3, note=66, velocity=0, time=0),
    Message('note_on', channel=3, note=67, velocity=100, time=0),
    Message('note_on', channel=3, note=62, velocity=100, time=0),
    Message('note_on', channel=3, note=55, velocity=100, time=0),
    Message('note_on', channel=3, note=55, velocity=0, time=120),
    Message('note_on', channel=3, note=62, velocity=0, time=0),
    Message('note_on', channel=3, note=67, velocity=0, time=0),
    Message('note_on', channel=3, note=66, velocity=100, time=0),
    Message('note_on', channel=3, note=61, velocity=100, time=0),
    Message('note_on', channel=3, note=54, velocity=100, time=0),
    Message('note_on', channel=3, note=54, velocity=0, time=120),
    Message('note_on', channel=3, note=61, velocity=0, time=0),
    Message('note_on', channel=3, note=66, velocity=0, time=0),
    Message('note_on', channel=3, note=62, velocity=100, time=0),
    Message('note_on', channel=3, note=57, velocity=100, time=0),
    Message('note_on', channel=3, note=50, velocity=100, time=0),
    Message('note_on', channel=3, note=50, velocity=0, time=234),
    Message('note_on', channel=3, note=57, velocity=0, time=0),
    Message('note_on', channel=3, note=62, velocity=0, time=0),
    Message('note_on', channel=3, note=62, velocity=100, time=6),
    Message('note_on', channel=3, note=57, velocity=100, time=0),
    Message('note_on', channel=3, note=50, velocity=100, time=0),
    Message('pitchwheel', channel=3, pitch=1365, time=180),
    Message('note_on', channel=3, note=50, velocity=0, time=60),
    Message('note_on', channel=3, note=57, velocity=0, time=0),
    Message('note_on', channel=3, note=62, velocity=0, time=0),
    Message('pitchwheel', channel=3, pitch=0, time=0),
    Message('note_on', channel=3, note=64, velocity=100, time=0),
    Message('note_on', channel=3, note=59, velocity=100, time=0),
    Message('note_on', channel=3, note=52, velocity=100, time=0),
    Message('note_on', channel=3, note=52, velocity=0, time=240),
    Message('note_on', channel=3, note=59, velocity=0, time=0),
    Message('note_on', channel=3, note=64, velocity=0, time=0),
    Message('note_on', channel=3, note=64, velocity=100, time=0),
    Message('note_on', channel=3, note=59, velocity=100, time=0),
    Message('note_on', channel=3, note=52, velocity=100, time=0),
    Message('note_on', channel=3, note=52, velocity=0, time=480),
    Message('note_on', channel=3, note=59, velocity=0, time=0),
    Message('note_on', channel=3, note=64, velocity=0, time=0),
    Message('note_on', channel=3, note=54, velocity=100, time=0),
    Message('note_on', channel=3, note=59, velocity=100, time=0),
    Message('note_on', channel=3, note=47, velocity=100, time=0),
    Message('note_on', channel=3, note=47, velocity=0, time=240),
    Message('note_on', channel=3, note=59, velocity=0, time=0),
    Message('note_on', channel=3, note=54, velocity=0, time=0),
    Message('note_on', channel=3, note=54, velocity=100, time=0),
    Message('note_on', channel=3, note=59, velocity=100, time=0),
    Message('note_on', channel=3, note=47, velocity=100, time=0),
    Message('note_on', channel=3, note=47, velocity=0, time=240),
    Message('note_on', channel=3, note=59, velocity=0, time=0),
    Message('note_on', channel=3, note=54, velocity=0, time=0),
    Message('note_on', channel=3, note=40, velocity=100, time=0),
    Message('note_on', channel=3, note=35, velocity=100, time=0),
    Message('note_on', channel=3, note=35, velocity=0, time=60),
    Message('note_on', channel=3, note=40, velocity=0, time=0),
    Message('note_on', channel=3, note=40, velocity=100, time=60),
    Message('note_on', channel=3, note=35, velocity=100, time=0),
    Message('note_on', channel=3, note=35, velocity=0, time=60),
    Message('note_on', channel=3, note=40, velocity=0, time=0),
    Message('note_on', channel=3, note=57, velocity=100, time=60),
    Message('note_on', channel=3, note=62, velocity=100, time=0),
    Message('note_on', channel=3, note=50, velocity=100, time=0),
    Message('note_on', channel=3, note=50, velocity=0, time=240),
    Message('note_on', channel=3, note=62, velocity=0, time=0),
    Message('note_on', channel=3, note=57, velocity=0, time=0),
    Message('note_on', channel=3, note=40, velocity=100, time=0),
    Message('note_on', channel=3, note=35, velocity=100, time=0),
    Message('note_on', channel=3, note=35, velocity=0, time=60),
    Message('note_on', channel=3, note=40, velocity=0, time=0),
    Message('note_on', channel=3, note=40, velocity=100, time=60),
    Message('note_on', channel=3, note=35, velocity=100, time=0),
    Message('note_on', channel=3, note=35, velocity=0, time=60),
    Message('note_on', channel=3, note=40, velocity=0, time=0),
    Message('note_on', channel=3, note=54, velocity=100, time=60),
    Message('note_on', channel=3, note=59, velocity=100, time=0),
    Message('note_on', channel=3, note=47, velocity=100, time=0),
    Message('note_on', channel=3, note=47, velocity=0, time=240),
    Message('note_on', channel=3, note=59, velocity=0, time=0),
    Message('note_on', channel=3, note=54, velocity=0, time=0),
    Message('note_on', channel=3, note=54, velocity=100, time=0),
    Message('note_on', channel=3, note=59, velocity=100, time=0),
    Message('note_on', channel=3, note=47, velocity=100, time=0),
    Message('note_on', channel=3, note=47, velocity=0, time=240),
    Message('note_on', channel=3, note=59, velocity=0, time=0),
    Message('note_on', channel=3, note=54, velocity=0, time=0),
    Message('note_on', channel=3, note=53, velocity=100, time=0),
    Message('note_on', channel=3, note=58, velocity=100, time=0),
    Message('note_on', channel=3, note=46, velocity=100, time=0),
    Message('note_on', channel=3, note=46, velocity=0, time=240),
    Message('note_on', channel=3, note=58, velocity=0, time=0),
    Message('note_on', channel=3, note=53, velocity=0, time=0),
    Message('note_on', channel=3, note=52, velocity=100, time=0),
    Message('note_on', channel=3, note=57, velocity=100, time=0),
    Message('note_on', channel=3, note=45, velocity=100, time=0),
    Message('note_on', channel=3, note=45, velocity=0, time=240),
    Message('note_on', channel=3, note=57, velocity=0, time=0),
    Message('note_on', channel=3, note=52, velocity=0, time=0),
    Message('note_on', channel=3, note=52, velocity=100, time=0),
    Message('note_on', channel=3, note=57, velocity=100, time=0),
    Message('note_on', channel=3, note=45, velocity=100, time=0),
    Message('note_on', channel=3, note=45, velocity=0, time=240),
    Message('note_on', channel=3, note=57, velocity=0, time=0),
    Message('note_on', channel=3, note=52, velocity=0, time=0),
    Message('note_on', channel=3, note=38, velocity=100, time=0),
    Message('note_on', channel=3, note=33, velocity=100, time=0),
    Message('note_on', channel=3, note=33, velocity=0, time=60),
    Message('note_on', channel=3, note=38, velocity=0, time=0),
    Message('note_on', channel=3, note=38, velocity=100, time=60),
    Message('note_on', channel=3, note=33, velocity=100, time=0),
    Message('note_on', channel=3, note=33, velocity=0, time=60),
    Message('note_on', channel=3, note=38, velocity=0, time=0),
    Message('note_on', channel=3, note=38, velocity=100, time=60),
    Message('note_on', channel=3, note=33, velocity=100, time=0),
    Message('note_on', channel=3, note=33, velocity=0, time=60),
    Message('note_on', channel=3, note=38, velocity=0, time=0),
    Message('note_on', channel=3, note=51, velocity=100, time=60),
    Message('note_on', channel=3, note=56, velocity=100, time=0),
    Message('note_on', channel=3, note=44, velocity=100, time=0),
    Message('note_on', channel=3, note=44, velocity=0, time=120),
    Message('note_on', channel=3, note=56, velocity=0, time=0),
    Message('note_on', channel=3, note=51, velocity=0, time=0),
    Message('note_on', channel=3, note=51, velocity=100, time=0),
    Message('note_on', channel=3, note=56, velocity=100, time=0),
    Message('note_on', channel=3, note=44, velocity=100, time=0),
    Message('note_on', channel=3, note=44, velocity=0, time=120),
    Message('note_on', channel=3, note=56, velocity=0, time=0),
    Message('note_on', channel=3, note=51, velocity=0, time=0),
    Message('note_on', channel=3, note=52, velocity=100, time=0),
    Message('note_on', channel=3, note=57, velocity=100, time=0),
    Message('note_on', channel=3, note=45, velocity=100, time=0),
    Message('note_on', channel=3, note=45, velocity=0, time=120),
    Message('note_on', channel=3, note=57, velocity=0, time=0),
    Message('note_on', channel=3, note=52, velocity=0, time=0),
    Message('note_on', channel=3, note=52, velocity=100, time=0),
    Message('note_on', channel=3, note=57, velocity=100, time=0),
    Message('note_on', channel=3, note=45, velocity=100, time=0),
    Message('note_on', channel=3, note=45, velocity=0, time=240),
    Message('note_on', channel=3, note=57, velocity=0, time=0),
    Message('note_on', channel=3, note=52, velocity=0, time=0),
    Message('note_on', channel=3, note=52, velocity=100, time=0),
    Message('note_on', channel=3, note=57, velocity=100, time=0),
    Message('note_on', channel=3, note=45, velocity=100, time=0),
    Message('note_on', channel=3, note=45, velocity=0, time=240),
    Message('note_on', channel=3, note=57, velocity=0, time=0),
    Message('note_on', channel=3, note=52, velocity=0, time=0),
    Message('note_on', channel=3, note=53, velocity=100, time=0),
    Message('note_on', channel=3, note=58, velocity=100, time=0),
    Message('note_on', channel=3, note=46, velocity=100, time=0),
    Message('note_on', channel=3, note=46, velocity=0, time=240),
    Message('note_on', channel=3, note=58, velocity=0, time=0),
    Message('note_on', channel=3, note=53, velocity=0, time=0),
    Message('note_on', channel=3, note=54, velocity=100, time=0),
    Message('note_on', channel=3, note=59, velocity=100, time=0),
    Message('note_on', channel=3, note=47, velocity=100, time=0),
    Message('note_on', channel=3, note=47, velocity=0, time=240),
    Message('note_on', channel=3, note=59, velocity=0, time=0),
    Message('note_on', channel=3, note=54, velocity=0, time=0),
    Message('note_on', channel=3, note=54, velocity=100, time=0),
    Message('note_on', channel=3, note=59, velocity=100, time=0),
    Message('note_on', channel=3, note=47, velocity=100, time=0),
    Message('note_on', channel=3, note=47, velocity=0, time=240),
    Message('note_on', channel=3, note=59, velocity=0, time=0),
    Message('note_on', channel=3, note=54, velocity=0, time=0),
    Message('note_on', channel=3, note=40, velocity=100, time=0),
    Message('note_on', channel=3, note=35, velocity=100, time=0),
    Message('note_on', channel=3, note=35, velocity=0, time=60),
    Message('note_on', channel=3, note=40, velocity=0, time=0),
    Message('note_on', channel=3, note=40, velocity=100, time=60),
    Message('note_on', channel=3, note=35, velocity=100, time=0),
    Message('note_on', channel=3, note=35, velocity=0, time=60),
    Message('note_on', channel=3, note=40, velocity=0, time=0),
    Message('note_on', channel=3, note=57, velocity=100, time=60),
    Message('note_on', channel=3, note=62, velocity=100, time=0),
    Message('note_on', channel=3, note=50, velocity=100, time=0),
    Message('note_on', channel=3, note=50, velocity=0, time=240),
    Message('note_on', channel=3, note=62, velocity=0, time=0),
    Message('note_on', channel=3, note=57, velocity=0, time=0),
    Message('note_on', channel=3, note=40, velocity=100, time=0),
    Message('note_on', channel=3, note=35, velocity=100, time=0),
    Message('note_on', channel=3, note=35, velocity=0, time=60),
    Message('note_on', channel=3, note=40, velocity=0, time=0),
    Message('note_on', channel=3, note=40, velocity=100, time=60),
    Message('note_on', channel=3, note=35, velocity=100, time=0),
    Message('note_on', channel=3, note=35, velocity=0, time=60),
    Message('note_on', channel=3, note=40, velocity=0, time=0),
    Message('note_on', channel=3, note=54, velocity=100, time=60),
    Message('note_on', channel=3, note=59, velocity=100, time=0),
    Message('note_on', channel=3, note=47, velocity=100, time=0),
    Message('note_on', channel=3, note=47, velocity=0, time=240),
    Message('note_on', channel=3, note=59, velocity=0, time=0),
    Message('note_on', channel=3, note=54, velocity=0, time=0),
    Message('note_on', channel=3, note=54, velocity=100, time=0),
    Message('note_on', channel=3, note=59, velocity=100, time=0),
    Message('note_on', channel=3, note=47, velocity=100, time=0),
    Message('note_on', channel=3, note=47, velocity=0, time=240),
    Message('note_on', channel=3, note=59, velocity=0, time=0),
    Message('note_on', channel=3, note=54, velocity=0, time=0),
    Message('note_on', channel=3, note=53, velocity=100, time=0),
    Message('note_on', channel=3, note=58, velocity=100, time=0),
    Message('note_on', channel=3, note=46, velocity=100, time=0),
    Message('note_on', channel=3, note=46, velocity=0, time=240),
    Message('note_on', channel=3, note=58, velocity=0, time=0),
    Message('note_on', channel=3, note=53, velocity=0, time=0),
    Message('note_on', channel=3, note=52, velocity=100, time=0),
    Message('note_on', channel=3, note=57, velocity=100, time=0),
    Message('note_on', channel=3, note=45, velocity=100, time=0),
    Message('note_on', channel=3, note=45, velocity=0, time=240),
    Message('note_on', channel=3, note=57, velocity=0, time=0),
    Message('note_on', channel=3, note=52, velocity=0, time=0),
    Message('note_on', channel=3, note=52, velocity=100, time=0),
    Message('note_on', channel=3, note=57, velocity=100, time=0),
    Message('note_on', channel=3, note=45, velocity=100, time=0),
    Message('note_on', channel=3, note=45, velocity=0, time=240),
    Message('note_on', channel=3, note=57, velocity=0, time=0),
    Message('note_on', channel=3, note=52, velocity=0, time=0),
    Message('note_on', channel=3, note=38, velocity=100, time=0),
    Message('note_on', channel=3, note=33, velocity=100, time=0),
    Message('note_on', channel=3, note=33, velocity=0, time=60),
    Message('note_on', channel=3, note=38, velocity=0, time=0),
    Message('note_on', channel=3, note=38, velocity=100, time=60),
    Message('note_on', channel=3, note=33, velocity=100, time=0),
    Message('note_on', channel=3, note=33, velocity=0, time=60),
    Message('note_on', channel=3, note=38, velocity=0, time=0),
    Message('note_on', channel=3, note=38, velocity=100, time=60),
    Message('note_on', channel=3, note=33, velocity=100, time=0),
    Message('note_on', channel=3, note=33, velocity=0, time=60),
    Message('note_on', channel=3, note=38, velocity=0, time=0),
    Message('note_on', channel=3, note=51, velocity=100, time=60),
    Message('note_on', channel=3, note=56, velocity=100, time=0),
    Message('note_on', channel=3, note=44, velocity=100, time=0),
    Message('note_on', channel=3, note=44, velocity=0, time=120),
    Message('note_on', channel=3, note=56, velocity=0, time=0),
    Message('note_on', channel=3, note=51, velocity=0, time=0),
    Message('note_on', channel=3, note=51, velocity=100, time=0),
    Message('note_on', channel=3, note=56, velocity=100, time=0),
    Message('note_on', channel=3, note=44, velocity=100, time=0),
    Message('note_on', channel=3, note=44, velocity=0, time=120),
    Message('note_on', channel=3, note=56, velocity=0, time=0),
    Message('note_on', channel=3, note=51, velocity=0, time=0),
    Message('note_on', channel=3, note=52, velocity=100, time=0),
    Message('note_on', channel=3, note=57, velocity=100, time=0),
    Message('note_on', channel=3, note=45, velocity=100, time=0),
    Message('note_on', channel=3, note=45, velocity=0, time=120),
    Message('note_on', channel=3, note=57, velocity=0, time=0),
    Message('note_on', channel=3, note=52, velocity=0, time=0),
    Message('note_on', channel=3, note=52, velocity=100, time=0),
    Message('note_on', channel=3, note=57, velocity=100, time=0),
    Message('note_on', channel=3, note=45, velocity=100, time=0),
    Message('note_on', channel=3, note=45, velocity=0, time=240),
    Message('note_on', channel=3, note=57, velocity=0, time=0),
    Message('note_on', channel=3, note=52, velocity=0, time=0),
    Message('note_on', channel=3, note=52, velocity=100, time=0),
    Message('note_on', channel=3, note=57, velocity=100, time=0),
    Message('note_on', channel=3, note=45, velocity=100, time=0),
    Message('note_on', channel=3, note=45, velocity=0, time=240),
    Message('note_on', channel=3, note=57, velocity=0, time=0),
    Message('note_on', channel=3, note=52, velocity=0, time=0),
    Message('note_on', channel=3, note=53, velocity=100, time=0),
    Message('note_on', channel=3, note=58, velocity=100, time=0),
    Message('note_on', channel=3, note=46, velocity=100, time=0),
    Message('note_on', channel=3, note=46, velocity=0, time=240),
    Message('note_on', channel=3, note=58, velocity=0, time=0),
    Message('note_on', channel=3, note=53, velocity=0, time=0),
    Message('note_on', channel=3, note=54, velocity=100, time=0),
    Message('note_on', channel=3, note=59, velocity=100, time=0),
    Message('note_on', channel=3, note=47, velocity=100, time=0),
    Message('note_on', channel=3, note=47, velocity=0, time=240),
    Message('note_on', channel=3, note=59, velocity=0, time=0),
    Message('note_on', channel=3, note=54, velocity=0, time=0),
    Message('note_on', channel=3, note=54, velocity=100, time=0),
    Message('note_on', channel=3, note=59, velocity=100, time=0),
    Message('note_on', channel=3, note=47, velocity=100, time=0),
    Message('note_on', channel=3, note=47, velocity=0, time=240),
    Message('note_on', channel=3, note=59, velocity=0, time=0),
    Message('note_on', channel=3, note=54, velocity=0, time=0),
    Message('note_on', channel=3, note=40, velocity=100, time=0),
    Message('note_on', channel=3, note=35, velocity=100, time=0),
    Message('note_on', channel=3, note=35, velocity=0, time=60),
    Message('note_on', channel=3, note=40, velocity=0, time=0),
    Message('note_on', channel=3, note=40, velocity=100, time=60),
    Message('note_on', channel=3, note=35, velocity=100, time=0),
    Message('note_on', channel=3, note=35, velocity=0, time=60),
    Message('note_on', channel=3, note=40, velocity=0, time=0),
    Message('note_on', channel=3, note=57, velocity=100, time=60),
    Message('note_on', channel=3, note=62, velocity=100, time=0),
    Message('note_on', channel=3, note=50, velocity=100, time=0),
    Message('note_on', channel=3, note=50, velocity=0, time=240),
    Message('note_on', channel=3, note=62, velocity=0, time=0),
    Message('note_on', channel=3, note=57, velocity=0, time=0),
    Message('note_on', channel=3, note=40, velocity=100, time=0),
    Message('note_on', channel=3, note=35, velocity=100, time=0),
    Message('note_on', channel=3, note=35, velocity=0, time=60),
    Message('note_on', channel=3, note=40, velocity=0, time=0),
    Message('note_on', channel=3, note=40, velocity=100, time=60),
    Message('note_on', channel=3, note=35, velocity=100, time=0),
    Message('note_on', channel=3, note=35, velocity=0, time=60),
    Message('note_on', channel=3, note=40, velocity=0, time=0),
    Message('note_on', channel=3, note=54, velocity=100, time=60),
    Message('note_on', channel=3, note=59, velocity=100, time=0),
    Message('note_on', channel=3, note=47, velocity=100, time=0),
    Message('note_on', channel=3, note=47, velocity=0, time=240),
    Message('note_on', channel=3, note=59, velocity=0, time=0),
    Message('note_on', channel=3, note=54, velocity=0, time=0),
    Message('note_on', channel=3, note=54, velocity=100, time=0),
    Message('note_on', channel=3, note=59, velocity=100, time=0),
    Message('note_on', channel=3, note=47, velocity=100, time=0),
    Message('note_on', channel=3, note=47, velocity=0, time=240),
    Message('note_on', channel=3, note=59, velocity=0, time=0),
    Message('note_on', channel=3, note=54, velocity=0, time=0),
    Message('note_on', channel=3, note=53, velocity=100, time=0),
    Message('note_on', channel=3, note=58, velocity=100, time=0),
    Message('note_on', channel=3, note=46, velocity=100, time=0),
    Message('note_on', channel=3, note=46, velocity=0, time=240),
    Message('note_on', channel=3, note=58, velocity=0, time=0),
    Message('note_on', channel=3, note=53, velocity=0, time=0),
    Message('note_on', channel=3, note=52, velocity=100, time=0),
    Message('note_on', channel=3, note=57, velocity=100, time=0),
    Message('note_on', channel=3, note=45, velocity=100, time=0),
    Message('note_on', channel=3, note=45, velocity=0, time=240),
    Message('note_on', channel=3, note=57, velocity=0, time=0),
    Message('note_on', channel=3, note=52, velocity=0, time=0),
    Message('note_on', channel=3, note=52, velocity=100, time=0),
    Message('note_on', channel=3, note=57, velocity=100, time=0),
    Message('note_on', channel=3, note=45, velocity=100, time=0),
    Message('note_on', channel=3, note=45, velocity=0, time=240),
    Message('note_on', channel=3, note=57, velocity=0, time=0),
    Message('note_on', channel=3, note=52, velocity=0, time=0),
    Message('note_on', channel=3, note=57, velocity=100, time=0),
    Message('note_on', channel=3, note=45, velocity=100, time=0),
    Message('note_on', channel=3, note=52, velocity=100, time=0),
    Message('note_on', channel=3, note=52, velocity=0, time=240),
    Message('note_on', channel=3, note=45, velocity=0, time=0),
    Message('note_on', channel=3, note=57, velocity=0, time=0),
    Message('pitchwheel', channel=3, pitch=0, time=1200),
    Message('note_on', channel=3, note=59, velocity=100, time=0),
    Message('note_on', channel=3, note=54, velocity=100, time=0),
    Message('note_on', channel=3, note=47, velocity=100, time=0),
    Message('note_on', channel=3, note=47, velocity=0, time=480),
    Message('note_on', channel=3, note=54, velocity=0, time=0),
    Message('note_on', channel=3, note=59, velocity=0, time=0),
    Message('note_on', channel=3, note=62, velocity=100, time=0),
    Message('note_on', channel=3, note=57, velocity=100, time=0),
    Message('note_on', channel=3, note=50, velocity=100, time=0),
    Message('note_on', channel=3, note=50, velocity=0, time=480),
    Message('note_on', channel=3, note=57, velocity=0, time=0),
    Message('note_on', channel=3, note=62, velocity=0, time=0),
    Message('note_on', channel=3, note=62, velocity=100, time=0),
    Message('note_on', channel=3, note=57, velocity=100, time=0),
    Message('note_on', channel=3, note=50, velocity=100, time=0),
    Message('pitchwheel', channel=3, pitch=1365, time=180),
    Message('note_on', channel=3, note=50, velocity=0, time=60),
    Message('note_on', channel=3, note=57, velocity=0, time=0),
    Message('note_on', channel=3, note=62, velocity=0, time=0),
    Message('pitchwheel', channel=3, pitch=0, time=0),
    Message('note_on', channel=3, note=64, velocity=100, time=0),
    Message('note_on', channel=3, note=59, velocity=100, time=0),
    Message('note_on', channel=3, note=52, velocity=100, time=0),
    Message('note_on', channel=3, note=52, velocity=0, time=240),
    Message('note_on', channel=3, note=59, velocity=0, time=0),
    Message('note_on', channel=3, note=64, velocity=0, time=0),
    Message('note_on', channel=3, note=64, velocity=100, time=0),
    Message('note_on', channel=3, note=59, velocity=100, time=0),
    Message('note_on', channel=3, note=52, velocity=100, time=0),
    Message('note_on', channel=3, note=52, velocity=0, time=480),
    Message('note_on', channel=3, note=59, velocity=0, time=0),
    Message('note_on', channel=3, note=64, velocity=0, time=0),
    Message('note_on', channel=3, note=67, velocity=100, time=0),
    Message('note_on', channel=3, note=62, velocity=100, time=0),
    Message('note_on', channel=3, note=55, velocity=100, time=0),
    Message('note_on', channel=3, note=55, velocity=0, time=120),
    Message('note_on', channel=3, note=62, velocity=0, time=0),
    Message('note_on', channel=3, note=67, velocity=0, time=0),
    Message('note_on', channel=3, note=66, velocity=100, time=0),
    Message('note_on', channel=3, note=61, velocity=100, time=0),
    Message('note_on', channel=3, note=54, velocity=100, time=0),
    Message('note_on', channel=3, note=54, velocity=0, time=120),
    Message('note_on', channel=3, note=61, velocity=0, time=0),
    Message('note_on', channel=3, note=66, velocity=0, time=0),
    Message('note_on', channel=3, note=67, velocity=100, time=0),
    Message('note_on', channel=3, note=62, velocity=100, time=0),
    Message('note_on', channel=3, note=55, velocity=100, time=0),
    Message('note_on', channel=3, note=55, velocity=0, time=120),
    Message('note_on', channel=3, note=62, velocity=0, time=0),
    Message('note_on', channel=3, note=67, velocity=0, time=0),
    Message('note_on', channel=3, note=66, velocity=100, time=0),
    Message('note_on', channel=3, note=61, velocity=100, time=0),
    Message('note_on', channel=3, note=54, velocity=100, time=0),
    Message('note_on', channel=3, note=54, velocity=0, time=120),
    Message('note_on', channel=3, note=61, velocity=0, time=0),
    Message('note_on', channel=3, note=66, velocity=0, time=0),
    Message('note_on', channel=3, note=67, velocity=100, time=0),
    Message('note_on', channel=3, note=62, velocity=100, time=0),
    Message('note_on', channel=3, note=55, velocity=100, time=0),
    Message('note_on', channel=3, note=55, velocity=0, time=120),
    Message('note_on', channel=3, note=62, velocity=0, time=0),
    Message('note_on', channel=3, note=67, velocity=0, time=0),
    Message('note_on', channel=3, note=66, velocity=100, time=0),
    Message('note_on', channel=3, note=61, velocity=100, time=0),
    Message('note_on', channel=3, note=54, velocity=100, time=0),
    Message('note_on', channel=3, note=54, velocity=0, time=120),
    Message('note_on', channel=3, note=61, velocity=0, time=0),
    Message('note_on', channel=3, note=66, velocity=0, time=0),
    Message('note_on', channel=3, note=62, velocity=100, time=0),
    Message('note_on', channel=3, note=57, velocity=100, time=0),
    Message('note_on', channel=3, note=50, velocity=100, time=0),
    Message('note_on', channel=3, note=50, velocity=0, time=234),
    Message('note_on', channel=3, note=57, velocity=0, time=0),
    Message('note_on', channel=3, note=62, velocity=0, time=0),
    Message('note_on', channel=3, note=62, velocity=100, time=6),
    Message('note_on', channel=3, note=57, velocity=100, time=0),
    Message('note_on', channel=3, note=50, velocity=100, time=0),
    Message('pitchwheel', channel=3, pitch=1365, time=180),
    Message('note_on', channel=3, note=50, velocity=0, time=60),
    Message('note_on', channel=3, note=57, velocity=0, time=0),
    Message('note_on', channel=3, note=62, velocity=0, time=0),
    Message('pitchwheel', channel=3, pitch=0, time=0),
    Message('note_on', channel=3, note=64, velocity=100, time=0),
    Message('note_on', channel=3, note=59, velocity=100, time=0),
    Message('note_on', channel=3, note=52, velocity=100, time=0),
    Message('note_on', channel=3, note=52, velocity=0, time=240),
    Message('note_on', channel=3, note=59, velocity=0, time=0),
    Message('note_on', channel=3, note=64, velocity=0, time=0),
    Message('note_on', channel=3, note=64, velocity=100, time=0),
    Message('note_on', channel=3, note=59, velocity=100, time=0),
    Message('note_on', channel=3, note=52, velocity=100, time=0),
    Message('note_on', channel=3, note=52, velocity=0, time=480),
    Message('note_on', channel=3, note=59, velocity=0, time=0),
    Message('note_on', channel=3, note=64, velocity=0, time=0),
    Message('pitchwheel', channel=3, pitch=0, time=0),
    Message('note_on', channel=3, note=59, velocity=100, time=0),
    Message('note_on', channel=3, note=54, velocity=100, time=0),
    Message('note_on', channel=3, note=47, velocity=100, time=0),
    Message('note_on', channel=3, note=47, velocity=0, time=480),
    Message('note_on', channel=3, note=54, velocity=0, time=0),
    Message('note_on', channel=3, note=59, velocity=0, time=0),
    Message('note_on', channel=3, note=62, velocity=100, time=0),
    Message('note_on', channel=3, note=57, velocity=100, time=0),
    Message('note_on', channel=3, note=50, velocity=100, time=0),
    Message('note_on', channel=3, note=50, velocity=0, time=480),
    Message('note_on', channel=3, note=57, velocity=0, time=0),
    Message('note_on', channel=3, note=62, velocity=0, time=0),
    Message('note_on', channel=3, note=62, velocity=100, time=0),
    Message('note_on', channel=3, note=57, velocity=100, time=0),
    Message('note_on', channel=3, note=50, velocity=100, time=0),
    Message('pitchwheel', channel=3, pitch=1365, time=180),
    Message('note_on', channel=3, note=50, velocity=0, time=60),
    Message('note_on', channel=3, note=57, velocity=0, time=0),
    Message('note_on', channel=3, note=62, velocity=0, time=0),
    Message('pitchwheel', channel=3, pitch=0, time=0),
    Message('note_on', channel=3, note=64, velocity=100, time=0),
    Message('note_on', channel=3, note=59, velocity=100, time=0),
    Message('note_on', channel=3, note=52, velocity=100, time=0),
    Message('note_on', channel=3, note=52, velocity=0, time=240),
    Message('note_on', channel=3, note=59, velocity=0, time=0),
    Message('note_on', channel=3, note=64, velocity=0, time=0),
    Message('note_on', channel=3, note=64, velocity=100, time=0),
    Message('note_on', channel=3, note=59, velocity=100, time=0),
    Message('note_on', channel=3, note=52, velocity=100, time=0),
    Message('note_on', channel=3, note=52, velocity=0, time=480),
    Message('note_on', channel=3, note=59, velocity=0, time=0),
    Message('note_on', channel=3, note=64, velocity=0, time=0),
    Message('note_on', channel=3, note=67, velocity=100, time=0),
    Message('note_on', channel=3, note=62, velocity=100, time=0),
    Message('note_on', channel=3, note=55, velocity=100, time=0),
    Message('note_on', channel=3, note=55, velocity=0, time=120),
    Message('note_on', channel=3, note=62, velocity=0, time=0),
    Message('note_on', channel=3, note=67, velocity=0, time=0),
    Message('note_on', channel=3, note=66, velocity=100, time=0),
    Message('note_on', channel=3, note=61, velocity=100, time=0),
    Message('note_on', channel=3, note=54, velocity=100, time=0),
    Message('note_on', channel=3, note=54, velocity=0, time=120),
    Message('note_on', channel=3, note=61, velocity=0, time=0),
    Message('note_on', channel=3, note=66, velocity=0, time=0),
    Message('note_on', channel=3, note=67, velocity=100, time=0),
    Message('note_on', channel=3, note=62, velocity=100, time=0),
    Message('note_on', channel=3, note=55, velocity=100, time=0),
    Message('note_on', channel=3, note=55, velocity=0, time=120),
    Message('note_on', channel=3, note=62, velocity=0, time=0),
    Message('note_on', channel=3, note=67, velocity=0, time=0),
    Message('note_on', channel=3, note=66, velocity=100, time=0),
    Message('note_on', channel=3, note=61, velocity=100, time=0),
    Message('note_on', channel=3, note=54, velocity=100, time=0),
    Message('note_on', channel=3, note=54, velocity=0, time=120),
    Message('note_on', channel=3, note=61, velocity=0, time=0),
    Message('note_on', channel=3, note=66, velocity=0, time=0),
    Message('note_on', channel=3, note=67, velocity=100, time=0),
    Message('note_on', channel=3, note=62, velocity=100, time=0),
    Message('note_on', channel=3, note=55, velocity=100, time=0),
    Message('note_on', channel=3, note=55, velocity=0, time=120),
    Message('note_on', channel=3, note=62, velocity=0, time=0),
    Message('note_on', channel=3, note=67, velocity=0, time=0),
    Message('note_on', channel=3, note=66, velocity=100, time=0),
    Message('note_on', channel=3, note=61, velocity=100, time=0),
    Message('note_on', channel=3, note=54, velocity=100, time=0),
    Message('note_on', channel=3, note=54, velocity=0, time=120),
    Message('note_on', channel=3, note=61, velocity=0, time=0),
    Message('note_on', channel=3, note=66, velocity=0, time=0),
    Message('note_on', channel=3, note=62, velocity=100, time=0),
    Message('note_on', channel=3, note=57, velocity=100, time=0),
    Message('note_on', channel=3, note=50, velocity=100, time=0),
    Message('note_on', channel=3, note=50, velocity=0, time=234),
    Message('note_on', channel=3, note=57, velocity=0, time=0),
    Message('note_on', channel=3, note=62, velocity=0, time=0),
    Message('note_on', channel=3, note=62, velocity=100, time=6),
    Message('note_on', channel=3, note=57, velocity=100, time=0),
    Message('note_on', channel=3, note=50, velocity=100, time=0),
    Message('pitchwheel', channel=3, pitch=1365, time=180),
    Message('note_on', channel=3, note=50, velocity=0, time=60),
    Message('note_on', channel=3, note=57, velocity=0, time=0),
    Message('note_on', channel=3, note=62, velocity=0, time=0),
    Message('pitchwheel', channel=3, pitch=0, time=0),
    Message('note_on', channel=3, note=64, velocity=100, time=0),
    Message('note_on', channel=3, note=59, velocity=100, time=0),
    Message('note_on', channel=3, note=52, velocity=100, time=0),
    Message('note_on', channel=3, note=52, velocity=0, time=240),
    Message('note_on', channel=3, note=59, velocity=0, time=0),
    Message('note_on', channel=3, note=64, velocity=0, time=0),
    Message('note_on', channel=3, note=64, velocity=100, time=0),
    Message('note_on', channel=3, note=59, velocity=100, time=0),
    Message('note_on', channel=3, note=52, velocity=100, time=0),
    Message('note_on', channel=3, note=52, velocity=0, time=480),
    Message('note_on', channel=3, note=59, velocity=0, time=0),
    Message('note_on', channel=3, note=64, velocity=0, time=0),
    Message('pitchwheel', channel=3, pitch=0, time=0),
    Message('note_on', channel=3, note=59, velocity=100, time=0),
    Message('note_on', channel=3, note=54, velocity=100, time=0),
    Message('note_on', channel=3, note=47, velocity=100, time=0),
    Message('note_on', channel=3, note=47, velocity=0, time=480),
    Message('note_on', channel=3, note=54, velocity=0, time=0),
    Message('note_on', channel=3, note=59, velocity=0, time=0),
    Message('note_on', channel=3, note=62, velocity=100, time=0),
    Message('note_on', channel=3, note=57, velocity=100, time=0),
    Message('note_on', channel=3, note=50, velocity=100, time=0),
    Message('note_on', channel=3, note=50, velocity=0, time=480),
    Message('note_on', channel=3, note=57, velocity=0, time=0),
    Message('note_on', channel=3, note=62, velocity=0, time=0),
    Message('note_on', channel=3, note=62, velocity=100, time=0),
    Message('note_on', channel=3, note=57, velocity=100, time=0),
    Message('note_on', channel=3, note=50, velocity=100, time=0),
    Message('pitchwheel', channel=3, pitch=1365, time=180),
    Message('note_on', channel=3, note=50, velocity=0, time=60),
    Message('note_on', channel=3, note=57, velocity=0, time=0),
    Message('note_on', channel=3, note=62, velocity=0, time=0),
    Message('pitchwheel', channel=3, pitch=0, time=0),
    Message('note_on', channel=3, note=64, velocity=100, time=0),
    Message('note_on', channel=3, note=59, velocity=100, time=0),
    Message('note_on', channel=3, note=52, velocity=100, time=0),
    Message('note_on', channel=3, note=52, velocity=0, time=240),
    Message('note_on', channel=3, note=59, velocity=0, time=0),
    Message('note_on', channel=3, note=64, velocity=0, time=0),
    Message('note_on', channel=3, note=64, velocity=100, time=0),
    Message('note_on', channel=3, note=59, velocity=100, time=0),
    Message('note_on', channel=3, note=52, velocity=100, time=0),
    Message('note_on', channel=3, note=52, velocity=0, time=480),
    Message('note_on', channel=3, note=59, velocity=0, time=0),
    Message('note_on', channel=3, note=64, velocity=0, time=0),
    Message('note_on', channel=3, note=67, velocity=100, time=0),
    Message('note_on', channel=3, note=62, velocity=100, time=0),
    Message('note_on', channel=3, note=55, velocity=100, time=0),
    Message('note_on', channel=3, note=55, velocity=0, time=120),
    Message('note_on', channel=3, note=62, velocity=0, time=0),
    Message('note_on', channel=3, note=67, velocity=0, time=0),
    Message('note_on', channel=3, note=66, velocity=100, time=0),
    Message('note_on', channel=3, note=61, velocity=100, time=0),
    Message('note_on', channel=3, note=54, velocity=100, time=0),
    Message('note_on', channel=3, note=54, velocity=0, time=120),
    Message('note_on', channel=3, note=61, velocity=0, time=0),
    Message('note_on', channel=3, note=66, velocity=0, time=0),
    Message('note_on', channel=3, note=67, velocity=100, time=0),
    Message('note_on', channel=3, note=62, velocity=100, time=0),
    Message('note_on', channel=3, note=55, velocity=100, time=0),
    Message('note_on', channel=3, note=55, velocity=0, time=120),
    Message('note_on', channel=3, note=62, velocity=0, time=0),
    Message('note_on', channel=3, note=67, velocity=0, time=0),
    Message('note_on', channel=3, note=66, velocity=100, time=0),
    Message('note_on', channel=3, note=61, velocity=100, time=0),
    Message('note_on', channel=3, note=54, velocity=100, time=0),
    Message('note_on', channel=3, note=54, velocity=0, time=120),
    Message('note_on', channel=3, note=61, velocity=0, time=0),
    Message('note_on', channel=3, note=66, velocity=0, time=0),
    Message('note_on', channel=3, note=67, velocity=100, time=0),
    Message('note_on', channel=3, note=62, velocity=100, time=0),
    Message('note_on', channel=3, note=55, velocity=100, time=0),
    Message('note_on', channel=3, note=55, velocity=0, time=120),
    Message('note_on', channel=3, note=62, velocity=0, time=0),
    Message('note_on', channel=3, note=67, velocity=0, time=0),
    Message('note_on', channel=3, note=66, velocity=100, time=0),
    Message('note_on', channel=3, note=61, velocity=100, time=0),
    Message('note_on', channel=3, note=54, velocity=100, time=0),
    Message('note_on', channel=3, note=54, velocity=0, time=120),
    Message('note_on', channel=3, note=61, velocity=0, time=0),
    Message('note_on', channel=3, note=66, velocity=0, time=0),
    Message('note_on', channel=3, note=62, velocity=100, time=0),
    Message('note_on', channel=3, note=57, velocity=100, time=0),
    Message('note_on', channel=3, note=50, velocity=100, time=0),
    Message('note_on', channel=3, note=50, velocity=0, time=234),
    Message('note_on', channel=3, note=57, velocity=0, time=0),
    Message('note_on', channel=3, note=62, velocity=0, time=0),
    Message('note_on', channel=3, note=62, velocity=100, time=6),
    Message('note_on', channel=3, note=57, velocity=100, time=0),
    Message('note_on', channel=3, note=50, velocity=100, time=0),
    Message('pitchwheel', channel=3, pitch=1365, time=180),
    Message('note_on', channel=3, note=50, velocity=0, time=60),
    Message('note_on', channel=3, note=57, velocity=0, time=0),
    Message('note_on', channel=3, note=62, velocity=0, time=0),
    Message('pitchwheel', channel=3, pitch=0, time=0),
    Message('note_on', channel=3, note=64, velocity=100, time=0),
    Message('note_on', channel=3, note=59, velocity=100, time=0),
    Message('note_on', channel=3, note=52, velocity=100, time=0),
    Message('note_on', channel=3, note=52, velocity=0, time=240),
    Message('note_on', channel=3, note=59, velocity=0, time=0),
    Message('note_on', channel=3, note=64, velocity=0, time=0),
    Message('note_on', channel=3, note=64, velocity=100, time=0),
    Message('note_on', channel=3, note=59, velocity=100, time=0),
    Message('note_on', channel=3, note=52, velocity=100, time=0),
    Message('note_on', channel=3, note=52, velocity=0, time=480),
    Message('note_on', channel=3, note=59, velocity=0, time=0),
    Message('note_on', channel=3, note=64, velocity=0, time=0),
    Message('pitchwheel', channel=3, pitch=0, time=0),
    Message('note_on', channel=3, note=59, velocity=100, time=0),
    Message('note_on', channel=3, note=54, velocity=100, time=0),
    Message('note_on', channel=3, note=47, velocity=100, time=0),
    Message('note_on', channel=3, note=47, velocity=0, time=480),
    Message('note_on', channel=3, note=54, velocity=0, time=0),
    Message('note_on', channel=3, note=59, velocity=0, time=0),
    Message('note_on', channel=3, note=62, velocity=100, time=0),
    Message('note_on', channel=3, note=57, velocity=100, time=0),
    Message('note_on', channel=3, note=50, velocity=100, time=0),
    Message('note_on', channel=3, note=50, velocity=0, time=480),
    Message('note_on', channel=3, note=57, velocity=0, time=0),
    Message('note_on', channel=3, note=62, velocity=0, time=0),
    Message('note_on', channel=3, note=62, velocity=100, time=0),
    Message('note_on', channel=3, note=57, velocity=100, time=0),
    Message('note_on', channel=3, note=50, velocity=100, time=0),
    Message('pitchwheel', channel=3, pitch=1365, time=180),
    Message('note_on', channel=3, note=50, velocity=0, time=60),
    Message('note_on', channel=3, note=57, velocity=0, time=0),
    Message('note_on', channel=3, note=62, velocity=0, time=0),
    Message('pitchwheel', channel=3, pitch=0, time=0),
    Message('note_on', channel=3, note=64, velocity=100, time=0),
    Message('note_on', channel=3, note=59, velocity=100, time=0),
    Message('note_on', channel=3, note=52, velocity=100, time=0),
    Message('note_on', channel=3, note=52, velocity=0, time=240),
    Message('note_on', channel=3, note=59, velocity=0, time=0),
    Message('note_on', channel=3, note=64, velocity=0, time=0),
    Message('note_on', channel=3, note=64, velocity=100, time=0),
    Message('note_on', channel=3, note=59, velocity=100, time=0),
    Message('note_on', channel=3, note=52, velocity=100, time=0),
    Message('note_on', channel=3, note=52, velocity=0, time=480),
    Message('note_on', channel=3, note=59, velocity=0, time=0),
    Message('note_on', channel=3, note=64, velocity=0, time=0),
    Message('note_on', channel=3, note=67, velocity=100, time=0),
    Message('note_on', channel=3, note=62, velocity=100, time=0),
    Message('note_on', channel=3, note=55, velocity=100, time=0),
    Message('note_on', channel=3, note=55, velocity=0, time=120),
    Message('note_on', channel=3, note=62, velocity=0, time=0),
    Message('note_on', channel=3, note=67, velocity=0, time=0),
    Message('note_on', channel=3, note=66, velocity=100, time=0),
    Message('note_on', channel=3, note=61, velocity=100, time=0),
    Message('note_on', channel=3, note=54, velocity=100, time=0),
    Message('note_on', channel=3, note=54, velocity=0, time=120),
    Message('note_on', channel=3, note=61, velocity=0, time=0),
    Message('note_on', channel=3, note=66, velocity=0, time=0),
    Message('note_on', channel=3, note=67, velocity=100, time=0),
    Message('note_on', channel=3, note=62, velocity=100, time=0),
    Message('note_on', channel=3, note=55, velocity=100, time=0),
    Message('note_on', channel=3, note=55, velocity=0, time=120),
    Message('note_on', channel=3, note=62, velocity=0, time=0),
    Message('note_on', channel=3, note=67, velocity=0, time=0),
    Message('note_on', channel=3, note=66, velocity=100, time=0),
    Message('note_on', channel=3, note=61, velocity=100, time=0),
    Message('note_on', channel=3, note=54, velocity=100, time=0),
    Message('note_on', channel=3, note=54, velocity=0, time=120),
    Message('note_on', channel=3, note=61, velocity=0, time=0),
    Message('note_on', channel=3, note=66, velocity=0, time=0),
    Message('note_on', channel=3, note=67, velocity=100, time=0),
    Message('note_on', channel=3, note=62, velocity=100, time=0),
    Message('note_on', channel=3, note=55, velocity=100, time=0),
    Message('note_on', channel=3, note=55, velocity=0, time=120),
    Message('note_on', channel=3, note=62, velocity=0, time=0),
    Message('note_on', channel=3, note=67, velocity=0, time=0),
    Message('note_on', channel=3, note=66, velocity=100, time=0),
    Message('note_on', channel=3, note=61, velocity=100, time=0),
    Message('note_on', channel=3, note=54, velocity=100, time=0),
    Message('note_on', channel=3, note=54, velocity=0, time=120),
    Message('note_on', channel=3, note=61, velocity=0, time=0),
    Message('note_on', channel=3, note=66, velocity=0, time=0),
    Message('note_on', channel=3, note=62, velocity=100, time=0),
    Message('note_on', channel=3, note=57, velocity=100, time=0),
    Message('note_on', channel=3, note=50, velocity=100, time=0),
    Message('note_on', channel=3, note=50, velocity=0, time=234),
    Message('note_on', channel=3, note=57, velocity=0, time=0),
    Message('note_on', channel=3, note=62, velocity=0, time=0),
    Message('note_on', channel=3, note=62, velocity=100, time=6),
    Message('note_on', channel=3, note=57, velocity=100, time=0),
    Message('note_on', channel=3, note=50, velocity=100, time=0),
    Message('pitchwheel', channel=3, pitch=1365, time=180),
    Message('note_on', channel=3, note=50, velocity=0, time=60),
    Message('note_on', channel=3, note=57, velocity=0, time=0),
    Message('note_on', channel=3, note=62, velocity=0, time=0),
    Message('pitchwheel', channel=3, pitch=0, time=0),
    Message('note_on', channel=3, note=64, velocity=100, time=0),
    Message('note_on', channel=3, note=59, velocity=100, time=0),
    Message('note_on', channel=3, note=52, velocity=100, time=0),
    Message('note_on', channel=3, note=52, velocity=0, time=240),
    Message('note_on', channel=3, note=59, velocity=0, time=0),
    Message('note_on', channel=3, note=64, velocity=0, time=0),
    Message('note_on', channel=3, note=64, velocity=100, time=0),
    Message('note_on', channel=3, note=59, velocity=100, time=0),
    Message('note_on', channel=3, note=52, velocity=100, time=0),
    Message('note_on', channel=3, note=52, velocity=0, time=480),
    Message('note_on', channel=3, note=59, velocity=0, time=0),
    Message('note_on', channel=3, note=64, velocity=0, time=0),
    Message('note_on', channel=3, note=52, velocity=100, time=0),
    Message('note_on', channel=3, note=59, velocity=100, time=0),
    Message('note_on', channel=3, note=64, velocity=100, time=0),
    Message('note_on', channel=3, note=64, velocity=0, time=1920),
    Message('note_on', channel=3, note=59, velocity=0, time=0),
    Message('note_on', channel=3, note=52, velocity=0, time=0),
    Message('note_on', channel=3, note=50, velocity=100, time=0),
    Message('note_on', channel=3, note=62, velocity=100, time=0),
    Message('note_on', channel=3, note=57, velocity=100, time=0),
    Message('note_on', channel=3, note=57, velocity=0, time=1920),
    Message('note_on', channel=3, note=62, velocity=0, time=0),
    Message('note_on', channel=3, note=50, velocity=0, time=0),
    Message('note_on', channel=3, note=54, velocity=100, time=0),
    Message('note_on', channel=3, note=59, velocity=100, time=0),
    Message('note_on', channel=3, note=47, velocity=100, time=0),
    Message('note_on', channel=3, note=47, velocity=0, time=240),
    Message('note_on', channel=3, note=59, velocity=0, time=0),
    Message('note_on', channel=3, note=54, velocity=0, time=0),
    Message('note_on', channel=3, note=54, velocity=100, time=0),
    Message('note_on', channel=3, note=59, velocity=100, time=0),
    Message('note_on', channel=3, note=47, velocity=100, time=0),
    Message('note_on', channel=3, note=47, velocity=0, time=240),
    Message('note_on', channel=3, note=59, velocity=0, time=0),
    Message('note_on', channel=3, note=54, velocity=0, time=0),
    Message('note_on', channel=3, note=57, velocity=100, time=0),
    Message('note_on', channel=3, note=62, velocity=100, time=0),
    Message('note_on', channel=3, note=50, velocity=100, time=0),
    Message('note_on', channel=3, note=50, velocity=0, time=120),
    Message('note_on', channel=3, note=62, velocity=0, time=0),
    Message('note_on', channel=3, note=57, velocity=0, time=0),
    Message('note_on', channel=3, note=58, velocity=100, time=0),
    Message('note_on', channel=3, note=63, velocity=100, time=0),
    Message('note_on', channel=3, note=51, velocity=100, time=0),
    Message('note_on', channel=3, note=51, velocity=0, time=120),
    Message('note_on', channel=3, note=63, velocity=0, time=0),
    Message('note_on', channel=3, note=58, velocity=0, time=0),
    Message('note_on', channel=3, note=59, velocity=100, time=0),
    Message('note_on', channel=3, note=64, velocity=100, time=0),
    Message('note_on', channel=3, note=52, velocity=100, time=0),
    Message('note_on', channel=3, note=52, velocity=0, time=240),
    Message('note_on', channel=3, note=64, velocity=0, time=0),
    Message('note_on', channel=3, note=59, velocity=0, time=0),
    Message('note_on', channel=3, note=59, velocity=100, time=0),
    Message('note_on', channel=3, note=64, velocity=100, time=0),
    Message('note_on', channel=3, note=52, velocity=100, time=0),
    Message('note_on', channel=3, note=52, velocity=0, time=120),
    Message('note_on', channel=3, note=64, velocity=0, time=0),
    Message('note_on', channel=3, note=59, velocity=0, time=0),
    Message('note_on', channel=3, note=60, velocity=100, time=0),
    Message('note_on', channel=3, note=65, velocity=100, time=0),
    Message('note_on', channel=3, note=53, velocity=100, time=0),
    Message('note_on', channel=3, note=53, velocity=0, time=120),
    Message('note_on', channel=3, note=65, velocity=0, time=0),
    Message('note_on', channel=3, note=60, velocity=0, time=0),
    Message('note_on', channel=3, note=61, velocity=100, time=0),
    Message('note_on', channel=3, note=66, velocity=100, time=0),
    Message('note_on', channel=3, note=54, velocity=100, time=0),
    Message('note_on', channel=3, note=54, velocity=0, time=240),
    Message('note_on', channel=3, note=66, velocity=0, time=0),
    Message('note_on', channel=3, note=61, velocity=0, time=0),
    Message('note_on', channel=3, note=64, velocity=100, time=0),
    Message('note_on', channel=3, note=69, velocity=100, time=0),
    Message('note_on', channel=3, note=57, velocity=100, time=0),
    Message('note_on', channel=3, note=57, velocity=0, time=120),
    Message('note_on', channel=3, note=69, velocity=0, time=0),
    Message('note_on', channel=3, note=64, velocity=0, time=0),
    Message('note_on', channel=3, note=65, velocity=100, time=0),
    Message('note_on', channel=3, note=70, velocity=100, time=0),
    Message('note_on', channel=3, note=58, velocity=100, time=0),
    Message('note_on', channel=3, note=58, velocity=0, time=120),
    Message('note_on', channel=3, note=70, velocity=0, time=0),
    Message('note_on', channel=3, note=65, velocity=0, time=0),
    Message('note_on', channel=3, note=66, velocity=100, time=0),
    Message('note_on', channel=3, note=71, velocity=100, time=0),
    Message('note_on', channel=3, note=59, velocity=100, time=0),
    Message('note_on', channel=3, note=59, velocity=0, time=240),
    Message('note_on', channel=3, note=71, velocity=0, time=0),
    Message('note_on', channel=3, note=66, velocity=0, time=0),
    Message('note_on', channel=3, note=54, velocity=100, time=0),
    Message('note_on', channel=3, note=59, velocity=100, time=0),
    Message('note_on', channel=3, note=47, velocity=100, time=0),
    Message('note_on', channel=3, note=47, velocity=0, time=240),
    Message('note_on', channel=3, note=59, velocity=0, time=0),
    Message('note_on', channel=3, note=54, velocity=0, time=0),
    Message('note_on', channel=3, note=54, velocity=100, time=0),
    Message('note_on', channel=3, note=59, velocity=100, time=0),
    Message('note_on', channel=3, note=47, velocity=100, time=0),
    Message('note_on', channel=3, note=47, velocity=0, time=240),
    Message('note_on', channel=3, note=59, velocity=0, time=0),
    Message('note_on', channel=3, note=54, velocity=0, time=0),
    Message('note_on', channel=3, note=57, velocity=100, time=0),
    Message('note_on', channel=3, note=62, velocity=100, time=0),
    Message('note_on', channel=3, note=50, velocity=100, time=0),
    Message('note_on', channel=3, note=50, velocity=0, time=120),
    Message('note_on', channel=3, note=62, velocity=0, time=0),
    Message('note_on', channel=3, note=57, velocity=0, time=0),
    Message('note_on', channel=3, note=58, velocity=100, time=0),
    Message('note_on', channel=3, note=63, velocity=100, time=0),
    Message('note_on', channel=3, note=51, velocity=100, time=0),
    Message('note_on', channel=3, note=51, velocity=0, time=120),
    Message('note_on', channel=3, note=63, velocity=0, time=0),
    Message('note_on', channel=3, note=58, velocity=0, time=0),
    Message('note_on', channel=3, note=59, velocity=100, time=0),
    Message('note_on', channel=3, note=64, velocity=100, time=0),
    Message('note_on', channel=3, note=52, velocity=100, time=0),
    Message('note_on', channel=3, note=52, velocity=0, time=240),
    Message('note_on', channel=3, note=64, velocity=0, time=0),
    Message('note_on', channel=3, note=59, velocity=0, time=0),
    Message('note_on', channel=3, note=59, velocity=100, time=0),
    Message('note_on', channel=3, note=64, velocity=100, time=0),
    Message('note_on', channel=3, note=52, velocity=100, time=0),
    Message('note_on', channel=3, note=52, velocity=0, time=120),
    Message('note_on', channel=3, note=64, velocity=0, time=0),
    Message('note_on', channel=3, note=59, velocity=0, time=0),
    Message('note_on', channel=3, note=60, velocity=100, time=0),
    Message('note_on', channel=3, note=65, velocity=100, time=0),
    Message('note_on', channel=3, note=53, velocity=100, time=0),
    Message('note_on', channel=3, note=53, velocity=0, time=120),
    Message('note_on', channel=3, note=65, velocity=0, time=0),
    Message('note_on', channel=3, note=60, velocity=0, time=0),
    Message('note_on', channel=3, note=61, velocity=100, time=0),
    Message('note_on', channel=3, note=66, velocity=100, time=0),
    Message('note_on', channel=3, note=54, velocity=100, time=0),
    Message('note_on', channel=3, note=54, velocity=0, time=240),
    Message('note_on', channel=3, note=66, velocity=0, time=0),
    Message('note_on', channel=3, note=61, velocity=0, time=0),
    Message('note_on', channel=3, note=64, velocity=100, time=0),
    Message('note_on', channel=3, note=69, velocity=100, time=0),
    Message('note_on', channel=3, note=57, velocity=100, time=0),
    Message('note_on', channel=3, note=57, velocity=0, time=120),
    Message('note_on', channel=3, note=69, velocity=0, time=0),
    Message('note_on', channel=3, note=64, velocity=0, time=0),
    Message('note_on', channel=3, note=65, velocity=100, time=0),
    Message('note_on', channel=3, note=70, velocity=100, time=0),
    Message('note_on', channel=3, note=58, velocity=100, time=0),
    Message('note_on', channel=3, note=58, velocity=0, time=120),
    Message('note_on', channel=3, note=70, velocity=0, time=0),
    Message('note_on', channel=3, note=65, velocity=0, time=0),
    Message('note_on', channel=3, note=66, velocity=100, time=0),
    Message('note_on', channel=3, note=71, velocity=100, time=0),
    Message('note_on', channel=3, note=59, velocity=100, time=0),
    Message('note_on', channel=3, note=59, velocity=0, time=240),
    Message('note_on', channel=3, note=71, velocity=0, time=0),
    Message('note_on', channel=3, note=66, velocity=0, time=0),
    Message('note_on', channel=3, note=52, velocity=100, time=0),
    Message('note_on', channel=3, note=59, velocity=100, time=0),
    Message('note_on', channel=3, note=64, velocity=100, time=0),
    Message('note_on', channel=3, note=64, velocity=0, time=1920),
    Message('note_on', channel=3, note=59, velocity=0, time=0),
    Message('note_on', channel=3, note=52, velocity=0, time=0),
    Message('note_on', channel=3, note=50, velocity=100, time=0),
    Message('note_on', channel=3, note=62, velocity=100, time=0),
    Message('note_on', channel=3, note=57, velocity=100, time=0),
    Message('note_on', channel=3, note=57, velocity=0, time=1920),
    Message('note_on', channel=3, note=62, velocity=0, time=0),
    Message('note_on', channel=3, note=50, velocity=0, time=0),
    Message('note_on', channel=3, note=54, velocity=100, time=0),
    Message('note_on', channel=3, note=59, velocity=100, time=0),
    Message('note_on', channel=3, note=47, velocity=100, time=0),
    Message('note_on', channel=3, note=47, velocity=0, time=240),
    Message('note_on', channel=3, note=59, velocity=0, time=0),
    Message('note_on', channel=3, note=54, velocity=0, time=0),
    Message('note_on', channel=3, note=54, velocity=100, time=0),
    Message('note_on', channel=3, note=59, velocity=100, time=0),
    Message('note_on', channel=3, note=47, velocity=100, time=0),
    Message('note_on', channel=3, note=47, velocity=0, time=240),
    Message('note_on', channel=3, note=59, velocity=0, time=0),
    Message('note_on', channel=3, note=54, velocity=0, time=0),
    Message('note_on', channel=3, note=57, velocity=100, time=0),
    Message('note_on', channel=3, note=62, velocity=100, time=0),
    Message('note_on', channel=3, note=50, velocity=100, time=0),
    Message('note_on', channel=3, note=50, velocity=0, time=120),
    Message('note_on', channel=3, note=62, velocity=0, time=0),
    Message('note_on', channel=3, note=57, velocity=0, time=0),
    Message('note_on', channel=3, note=58, velocity=100, time=0),
    Message('note_on', channel=3, note=63, velocity=100, time=0),
    Message('note_on', channel=3, note=51, velocity=100, time=0),
    Message('note_on', channel=3, note=51, velocity=0, time=120),
    Message('note_on', channel=3, note=63, velocity=0, time=0),
    Message('note_on', channel=3, note=58, velocity=0, time=0),
    Message('note_on', channel=3, note=59, velocity=100, time=0),
    Message('note_on', channel=3, note=64, velocity=100, time=0),
    Message('note_on', channel=3, note=52, velocity=100, time=0),
    Message('note_on', channel=3, note=52, velocity=0, time=240),
    Message('note_on', channel=3, note=64, velocity=0, time=0),
    Message('note_on', channel=3, note=59, velocity=0, time=0),
    Message('note_on', channel=3, note=59, velocity=100, time=0),
    Message('note_on', channel=3, note=64, velocity=100, time=0),
    Message('note_on', channel=3, note=52, velocity=100, time=0),
    Message('note_on', channel=3, note=52, velocity=0, time=120),
    Message('note_on', channel=3, note=64, velocity=0, time=0),
    Message('note_on', channel=3, note=59, velocity=0, time=0),
    Message('note_on', channel=3, note=60, velocity=100, time=0),
    Message('note_on', channel=3, note=65, velocity=100, time=0),
    Message('note_on', channel=3, note=53, velocity=100, time=0),
    Message('note_on', channel=3, note=53, velocity=0, time=120),
    Message('note_on', channel=3, note=65, velocity=0, time=0),
    Message('note_on', channel=3, note=60, velocity=0, time=0),
    Message('note_on', channel=3, note=61, velocity=100, time=0),
    Message('note_on', channel=3, note=66, velocity=100, time=0),
    Message('note_on', channel=3, note=54, velocity=100, time=0),
    Message('note_on', channel=3, note=54, velocity=0, time=240),
    Message('note_on', channel=3, note=66, velocity=0, time=0),
    Message('note_on', channel=3, note=61, velocity=0, time=0),
    Message('note_on', channel=3, note=64, velocity=100, time=0),
    Message('note_on', channel=3, note=69, velocity=100, time=0),
    Message('note_on', channel=3, note=57, velocity=100, time=0),
    Message('note_on', channel=3, note=57, velocity=0, time=120),
    Message('note_on', channel=3, note=69, velocity=0, time=0),
    Message('note_on', channel=3, note=64, velocity=0, time=0),
    Message('note_on', channel=3, note=65, velocity=100, time=0),
    Message('note_on', channel=3, note=70, velocity=100, time=0),
    Message('note_on', channel=3, note=58, velocity=100, time=0),
    Message('note_on', channel=3, note=58, velocity=0, time=120),
    Message('note_on', channel=3, note=70, velocity=0, time=0),
    Message('note_on', channel=3, note=65, velocity=0, time=0),
    Message('note_on', channel=3, note=66, velocity=100, time=0),
    Message('note_on', channel=3, note=71, velocity=100, time=0),
    Message('note_on', channel=3, note=59, velocity=100, time=0),
    Message('note_on', channel=3, note=59, velocity=0, time=240),
    Message('note_on', channel=3, note=71, velocity=0, time=0),
    Message('note_on', channel=3, note=66, velocity=0, time=0),
    Message('note_on', channel=3, note=54, velocity=100, time=0),
    Message('note_on', channel=3, note=59, velocity=100, time=0),
    Message('note_on', channel=3, note=47, velocity=100, time=0),
    Message('note_on', channel=3, note=47, velocity=0, time=240),
    Message('note_on', channel=3, note=59, velocity=0, time=0),
    Message('note_on', channel=3, note=54, velocity=0, time=0),
    Message('note_on', channel=3, note=54, velocity=100, time=0),
    Message('note_on', channel=3, note=59, velocity=100, time=0),
    Message('note_on', channel=3, note=47, velocity=100, time=0),
    Message('note_on', channel=3, note=47, velocity=0, time=240),
    Message('note_on', channel=3, note=59, velocity=0, time=0),
    Message('note_on', channel=3, note=54, velocity=0, time=0),
    Message('note_on', channel=3, note=57, velocity=100, time=0),
    Message('note_on', channel=3, note=62, velocity=100, time=0),
    Message('note_on', channel=3, note=50, velocity=100, time=0),
    Message('note_on', channel=3, note=50, velocity=0, time=120),
    Message('note_on', channel=3, note=62, velocity=0, time=0),
    Message('note_on', channel=3, note=57, velocity=0, time=0),
    Message('note_on', channel=3, note=58, velocity=100, time=0),
    Message('note_on', channel=3, note=63, velocity=100, time=0),
    Message('note_on', channel=3, note=51, velocity=100, time=0),
    Message('note_on', channel=3, note=51, velocity=0, time=120),
    Message('note_on', channel=3, note=63, velocity=0, time=0),
    Message('note_on', channel=3, note=58, velocity=0, time=0),
    Message('note_on', channel=3, note=59, velocity=100, time=0),
    Message('note_on', channel=3, note=64, velocity=100, time=0),
    Message('note_on', channel=3, note=52, velocity=100, time=0),
    Message('note_on', channel=3, note=52, velocity=0, time=240),
    Message('note_on', channel=3, note=64, velocity=0, time=0),
    Message('note_on', channel=3, note=59, velocity=0, time=0),
    Message('note_on', channel=3, note=59, velocity=100, time=0),
    Message('note_on', channel=3, note=64, velocity=100, time=0),
    Message('note_on', channel=3, note=52, velocity=100, time=0),
    Message('note_on', channel=3, note=52, velocity=0, time=120),
    Message('note_on', channel=3, note=64, velocity=0, time=0),
    Message('note_on', channel=3, note=59, velocity=0, time=0),
    Message('note_on', channel=3, note=60, velocity=100, time=0),
    Message('note_on', channel=3, note=65, velocity=100, time=0),
    Message('note_on', channel=3, note=53, velocity=100, time=0),
    Message('note_on', channel=3, note=53, velocity=0, time=120),
    Message('note_on', channel=3, note=65, velocity=0, time=0),
    Message('note_on', channel=3, note=60, velocity=0, time=0),
    Message('note_on', channel=3, note=61, velocity=100, time=0),
    Message('note_on', channel=3, note=66, velocity=100, time=0),
    Message('note_on', channel=3, note=54, velocity=100, time=0),
    Message('note_on', channel=3, note=54, velocity=0, time=240),
    Message('note_on', channel=3, note=66, velocity=0, time=0),
    Message('note_on', channel=3, note=61, velocity=0, time=0),
    Message('note_on', channel=3, note=64, velocity=100, time=0),
    Message('note_on', channel=3, note=69, velocity=100, time=0),
    Message('note_on', channel=3, note=57, velocity=100, time=0),
    Message('note_on', channel=3, note=57, velocity=0, time=120),
    Message('note_on', channel=3, note=69, velocity=0, time=0),
    Message('note_on', channel=3, note=64, velocity=0, time=0),
    Message('note_on', channel=3, note=65, velocity=100, time=0),
    Message('note_on', channel=3, note=70, velocity=100, time=0),
    Message('note_on', channel=3, note=58, velocity=100, time=0),
    Message('note_on', channel=3, note=58, velocity=0, time=120),
    Message('note_on', channel=3, note=70, velocity=0, time=0),
    Message('note_on', channel=3, note=65, velocity=0, time=0),
    Message('note_on', channel=3, note=66, velocity=100, time=0),
    Message('note_on', channel=3, note=71, velocity=100, time=0),
    Message('note_on', channel=3, note=59, velocity=100, time=0),
    Message('note_on', channel=3, note=59, velocity=0, time=240),
    Message('note_on', channel=3, note=71, velocity=0, time=0),
    Message('note_on', channel=3, note=66, velocity=0, time=0),
    Message('pitchwheel', channel=3, pitch=0, time=0),
    Message('note_on', channel=3, note=59, velocity=100, time=0),
    Message('note_on', channel=3, note=54, velocity=100, time=0),
    Message('note_on', channel=3, note=47, velocity=100, time=0),
    Message('note_on', channel=3, note=47, velocity=0, time=480),
    Message('note_on', channel=3, note=54, velocity=0, time=0),
    Message('note_on', channel=3, note=59, velocity=0, time=0),
    Message('note_on', channel=3, note=62, velocity=100, time=0),
    Message('note_on', channel=3, note=57, velocity=100, time=0),
    Message('note_on', channel=3, note=50, velocity=100, time=0),
    Message('note_on', channel=3, note=50, velocity=0, time=480),
    Message('note_on', channel=3, note=57, velocity=0, time=0),
    Message('note_on', channel=3, note=62, velocity=0, time=0),
    Message('note_on', channel=3, note=62, velocity=100, time=0),
    Message('note_on', channel=3, note=57, velocity=100, time=0),
    Message('note_on', channel=3, note=50, velocity=100, time=0),
    Message('pitchwheel', channel=3, pitch=1365, time=180),
    Message('note_on', channel=3, note=50, velocity=0, time=60),
    Message('note_on', channel=3, note=57, velocity=0, time=0),
    Message('note_on', channel=3, note=62, velocity=0, time=0),
    Message('pitchwheel', channel=3, pitch=0, time=0),
    Message('note_on', channel=3, note=64, velocity=100, time=0),
    Message('note_on', channel=3, note=59, velocity=100, time=0),
    Message('note_on', channel=3, note=52, velocity=100, time=0),
    Message('note_on', channel=3, note=52, velocity=0, time=240),
    Message('note_on', channel=3, note=59, velocity=0, time=0),
    Message('note_on', channel=3, note=64, velocity=0, time=0),
    Message('note_on', channel=3, note=64, velocity=100, time=0),
    Message('note_on', channel=3, note=59, velocity=100, time=0),
    Message('note_on', channel=3, note=52, velocity=100, time=0),
    Message('note_on', channel=3, note=52, velocity=0, time=480),
    Message('note_on', channel=3, note=59, velocity=0, time=0),
    Message('note_on', channel=3, note=64, velocity=0, time=0),
    Message('note_on', channel=3, note=67, velocity=100, time=0),
    Message('note_on', channel=3, note=62, velocity=100, time=0),
    Message('note_on', channel=3, note=55, velocity=100, time=0),
    Message('note_on', channel=3, note=55, velocity=0, time=120),
    Message('note_on', channel=3, note=62, velocity=0, time=0),
    Message('note_on', channel=3, note=67, velocity=0, time=0),
    Message('note_on', channel=3, note=66, velocity=100, time=0),
    Message('note_on', channel=3, note=61, velocity=100, time=0),
    Message('note_on', channel=3, note=54, velocity=100, time=0),
    Message('note_on', channel=3, note=54, velocity=0, time=120),
    Message('note_on', channel=3, note=61, velocity=0, time=0),
    Message('note_on', channel=3, note=66, velocity=0, time=0),
    Message('note_on', channel=3, note=67, velocity=100, time=0),
    Message('note_on', channel=3, note=62, velocity=100, time=0),
    Message('note_on', channel=3, note=55, velocity=100, time=0),
    Message('note_on', channel=3, note=55, velocity=0, time=120),
    Message('note_on', channel=3, note=62, velocity=0, time=0),
    Message('note_on', channel=3, note=67, velocity=0, time=0),
    Message('note_on', channel=3, note=66, velocity=100, time=0),
    Message('note_on', channel=3, note=61, velocity=100, time=0),
    Message('note_on', channel=3, note=54, velocity=100, time=0),
    Message('note_on', channel=3, note=54, velocity=0, time=120),
    Message('note_on', channel=3, note=61, velocity=0, time=0),
    Message('note_on', channel=3, note=66, velocity=0, time=0),
    Message('note_on', channel=3, note=67, velocity=100, time=0),
    Message('note_on', channel=3, note=62, velocity=100, time=0),
    Message('note_on', channel=3, note=55, velocity=100, time=0),
    Message('note_on', channel=3, note=55, velocity=0, time=120),
    Message('note_on', channel=3, note=62, velocity=0, time=0),
    Message('note_on', channel=3, note=67, velocity=0, time=0),
    Message('note_on', channel=3, note=66, velocity=100, time=0),
    Message('note_on', channel=3, note=61, velocity=100, time=0),
    Message('note_on', channel=3, note=54, velocity=100, time=0),
    Message('note_on', channel=3, note=54, velocity=0, time=120),
    Message('note_on', channel=3, note=61, velocity=0, time=0),
    Message('note_on', channel=3, note=66, velocity=0, time=0),
    Message('note_on', channel=3, note=62, velocity=100, time=0),
    Message('note_on', channel=3, note=57, velocity=100, time=0),
    Message('note_on', channel=3, note=50, velocity=100, time=0),
    Message('note_on', channel=3, note=50, velocity=0, time=234),
    Message('note_on', channel=3, note=57, velocity=0, time=0),
    Message('note_on', channel=3, note=62, velocity=0, time=0),
    Message('note_on', channel=3, note=62, velocity=100, time=6),
    Message('note_on', channel=3, note=57, velocity=100, time=0),
    Message('note_on', channel=3, note=50, velocity=100, time=0),
    Message('pitchwheel', channel=3, pitch=1365, time=180),
    Message('note_on', channel=3, note=50, velocity=0, time=60),
    Message('note_on', channel=3, note=57, velocity=0, time=0),
    Message('note_on', channel=3, note=62, velocity=0, time=0),
    Message('pitchwheel', channel=3, pitch=0, time=0),
    Message('note_on', channel=3, note=64, velocity=100, time=0),
    Message('note_on', channel=3, note=59, velocity=100, time=0),
    Message('note_on', channel=3, note=52, velocity=100, time=0),
    Message('note_on', channel=3, note=52, velocity=0, time=240),
    Message('note_on', channel=3, note=59, velocity=0, time=0),
    Message('note_on', channel=3, note=64, velocity=0, time=0),
    Message('note_on', channel=3, note=64, velocity=100, time=0),
    Message('note_on', channel=3, note=59, velocity=100, time=0),
    Message('note_on', channel=3, note=52, velocity=100, time=0),
    Message('note_on', channel=3, note=52, velocity=0, time=480),
    Message('note_on', channel=3, note=59, velocity=0, time=0),
    Message('note_on', channel=3, note=64, velocity=0, time=0),
    Message('pitchwheel', channel=3, pitch=0, time=0),
    Message('note_on', channel=3, note=59, velocity=100, time=0),
    Message('note_on', channel=3, note=54, velocity=100, time=0),
    Message('note_on', channel=3, note=47, velocity=100, time=0),
    Message('note_on', channel=3, note=47, velocity=0, time=480),
    Message('note_on', channel=3, note=54, velocity=0, time=0),
    Message('note_on', channel=3, note=59, velocity=0, time=0),
    Message('note_on', channel=3, note=62, velocity=100, time=0),
    Message('note_on', channel=3, note=57, velocity=100, time=0),
    Message('note_on', channel=3, note=50, velocity=100, time=0),
    Message('note_on', channel=3, note=50, velocity=0, time=480),
    Message('note_on', channel=3, note=57, velocity=0, time=0),
    Message('note_on', channel=3, note=62, velocity=0, time=0),
    Message('note_on', channel=3, note=62, velocity=100, time=0),
    Message('note_on', channel=3, note=57, velocity=100, time=0),
    Message('note_on', channel=3, note=50, velocity=100, time=0),
    Message('pitchwheel', channel=3, pitch=1365, time=180),
    Message('note_on', channel=3, note=50, velocity=0, time=60),
    Message('note_on', channel=3, note=57, velocity=0, time=0),
    Message('note_on', channel=3, note=62, velocity=0, time=0),
    Message('pitchwheel', channel=3, pitch=0, time=0),
    Message('note_on', channel=3, note=64, velocity=100, time=0),
    Message('note_on', channel=3, note=59, velocity=100, time=0),
    Message('note_on', channel=3, note=52, velocity=100, time=0),
    Message('note_on', channel=3, note=52, velocity=0, time=240),
    Message('note_on', channel=3, note=59, velocity=0, time=0),
    Message('note_on', channel=3, note=64, velocity=0, time=0),
    Message('note_on', channel=3, note=64, velocity=100, time=0),
    Message('note_on', channel=3, note=59, velocity=100, time=0),
    Message('note_on', channel=3, note=52, velocity=100, time=0),
    Message('note_on', channel=3, note=52, velocity=0, time=480),
    Message('note_on', channel=3, note=59, velocity=0, time=0),
    Message('note_on', channel=3, note=64, velocity=0, time=0),
    Message('note_on', channel=3, note=67, velocity=100, time=0),
    Message('note_on', channel=3, note=62, velocity=100, time=0),
    Message('note_on', channel=3, note=55, velocity=100, time=0),
    Message('note_on', channel=3, note=55, velocity=0, time=120),
    Message('note_on', channel=3, note=62, velocity=0, time=0),
    Message('note_on', channel=3, note=67, velocity=0, time=0),
    Message('note_on', channel=3, note=66, velocity=100, time=0),
    Message('note_on', channel=3, note=61, velocity=100, time=0),
    Message('note_on', channel=3, note=54, velocity=100, time=0),
    Message('note_on', channel=3, note=54, velocity=0, time=120),
    Message('note_on', channel=3, note=61, velocity=0, time=0),
    Message('note_on', channel=3, note=66, velocity=0, time=0),
    Message('note_on', channel=3, note=67, velocity=100, time=0),
    Message('note_on', channel=3, note=62, velocity=100, time=0),
    Message('note_on', channel=3, note=55, velocity=100, time=0),
    Message('note_on', channel=3, note=55, velocity=0, time=120),
    Message('note_on', channel=3, note=62, velocity=0, time=0),
    Message('note_on', channel=3, note=67, velocity=0, time=0),
    Message('note_on', channel=3, note=66, velocity=100, time=0),
    Message('note_on', channel=3, note=61, velocity=100, time=0),
    Message('note_on', channel=3, note=54, velocity=100, time=0),
    Message('note_on', channel=3, note=54, velocity=0, time=120),
    Message('note_on', channel=3, note=61, velocity=0, time=0),
    Message('note_on', channel=3, note=66, velocity=0, time=0),
    Message('note_on', channel=3, note=67, velocity=100, time=0),
    Message('note_on', channel=3, note=62, velocity=100, time=0),
    Message('note_on', channel=3, note=55, velocity=100, time=0),
    Message('note_on', channel=3, note=55, velocity=0, time=120),
    Message('note_on', channel=3, note=62, velocity=0, time=0),
    Message('note_on', channel=3, note=67, velocity=0, time=0),
    Message('note_on', channel=3, note=66, velocity=100, time=0),
    Message('note_on', channel=3, note=61, velocity=100, time=0),
    Message('note_on', channel=3, note=54, velocity=100, time=0),
    Message('note_on', channel=3, note=54, velocity=0, time=120),
    Message('note_on', channel=3, note=61, velocity=0, time=0),
    Message('note_on', channel=3, note=66, velocity=0, time=0),
    Message('note_on', channel=3, note=62, velocity=100, time=0),
    Message('note_on', channel=3, note=57, velocity=100, time=0),
    Message('note_on', channel=3, note=50, velocity=100, time=0),
    Message('note_on', channel=3, note=50, velocity=0, time=234),
    Message('note_on', channel=3, note=57, velocity=0, time=0),
    Message('note_on', channel=3, note=62, velocity=0, time=0),
    Message('note_on', channel=3, note=62, velocity=100, time=6),
    Message('note_on', channel=3, note=57, velocity=100, time=0),
    Message('note_on', channel=3, note=50, velocity=100, time=0),
    Message('pitchwheel', channel=3, pitch=1365, time=180),
    Message('note_on', channel=3, note=50, velocity=0, time=60),
    Message('note_on', channel=3, note=57, velocity=0, time=0),
    Message('note_on', channel=3, note=62, velocity=0, time=0),
    Message('pitchwheel', channel=3, pitch=0, time=0),
    Message('note_on', channel=3, note=64, velocity=100, time=0),
    Message('note_on', channel=3, note=59, velocity=100, time=0),
    Message('note_on', channel=3, note=52, velocity=100, time=0),
    Message('note_on', channel=3, note=52, velocity=0, time=240),
    Message('note_on', channel=3, note=59, velocity=0, time=0),
    Message('note_on', channel=3, note=64, velocity=0, time=0),
    Message('note_on', channel=3, note=64, velocity=100, time=0),
    Message('note_on', channel=3, note=59, velocity=100, time=0),
    Message('note_on', channel=3, note=52, velocity=100, time=0),
    Message('note_on', channel=3, note=52, velocity=0, time=480),
    Message('note_on', channel=3, note=59, velocity=0, time=0),
    Message('note_on', channel=3, note=64, velocity=0, time=0),
    Message('pitchwheel', channel=3, pitch=0, time=0),
    Message('note_on', channel=3, note=59, velocity=100, time=0),
    Message('note_on', channel=3, note=54, velocity=100, time=0),
    Message('note_on', channel=3, note=47, velocity=100, time=0),
    Message('note_on', channel=3, note=47, velocity=0, time=480),
    Message('note_on', channel=3, note=54, velocity=0, time=0),
    Message('note_on', channel=3, note=59, velocity=0, time=0),
    Message('note_on', channel=3, note=62, velocity=100, time=0),
    Message('note_on', channel=3, note=57, velocity=100, time=0),
    Message('note_on', channel=3, note=50, velocity=100, time=0),
    Message('note_on', channel=3, note=50, velocity=0, time=480),
    Message('note_on', channel=3, note=57, velocity=0, time=0),
    Message('note_on', channel=3, note=62, velocity=0, time=0),
    Message('note_on', channel=3, note=62, velocity=100, time=0),
    Message('note_on', channel=3, note=57, velocity=100, time=0),
    Message('note_on', channel=3, note=50, velocity=100, time=0),
    Message('pitchwheel', channel=3, pitch=1365, time=180),
    Message('note_on', channel=3, note=50, velocity=0, time=60),
    Message('note_on', channel=3, note=57, velocity=0, time=0),
    Message('note_on', channel=3, note=62, velocity=0, time=0),
    Message('pitchwheel', channel=3, pitch=0, time=0),
    Message('note_on', channel=3, note=64, velocity=100, time=0),
    Message('note_on', channel=3, note=59, velocity=100, time=0),
    Message('note_on', channel=3, note=52, velocity=100, time=0),
    Message('note_on', channel=3, note=52, velocity=0, time=240),
    Message('note_on', channel=3, note=59, velocity=0, time=0),
    Message('note_on', channel=3, note=64, velocity=0, time=0),
    Message('note_on', channel=3, note=64, velocity=100, time=0),
    Message('note_on', channel=3, note=59, velocity=100, time=0),
    Message('note_on', channel=3, note=52, velocity=100, time=0),
    Message('note_on', channel=3, note=52, velocity=0, time=480),
    Message('note_on', channel=3, note=59, velocity=0, time=0),
    Message('note_on', channel=3, note=64, velocity=0, time=0),
    Message('note_on', channel=3, note=67, velocity=100, time=0),
    Message('note_on', channel=3, note=62, velocity=100, time=0),
    Message('note_on', channel=3, note=55, velocity=100, time=0),
    Message('note_on', channel=3, note=55, velocity=0, time=120),
    Message('note_on', channel=3, note=62, velocity=0, time=0),
    Message('note_on', channel=3, note=67, velocity=0, time=0),
    Message('note_on', channel=3, note=66, velocity=100, time=0),
    Message('note_on', channel=3, note=61, velocity=100, time=0),
    Message('note_on', channel=3, note=54, velocity=100, time=0),
    Message('note_on', channel=3, note=54, velocity=0, time=120),
    Message('note_on', channel=3, note=61, velocity=0, time=0),
    Message('note_on', channel=3, note=66, velocity=0, time=0),
    Message('note_on', channel=3, note=67, velocity=100, time=0),
    Message('note_on', channel=3, note=62, velocity=100, time=0),
    Message('note_on', channel=3, note=55, velocity=100, time=0),
    Message('note_on', channel=3, note=55, velocity=0, time=120),
    Message('note_on', channel=3, note=62, velocity=0, time=0),
    Message('note_on', channel=3, note=67, velocity=0, time=0),
    Message('note_on', channel=3, note=66, velocity=100, time=0),
    Message('note_on', channel=3, note=61, velocity=100, time=0),
    Message('note_on', channel=3, note=54, velocity=100, time=0),
    Message('note_on', channel=3, note=54, velocity=0, time=120),
    Message('note_on', channel=3, note=61, velocity=0, time=0),
    Message('note_on', channel=3, note=66, velocity=0, time=0),
    Message('note_on', channel=3, note=67, velocity=100, time=0),
    Message('note_on', channel=3, note=62, velocity=100, time=0),
    Message('note_on', channel=3, note=55, velocity=100, time=0),
    Message('note_on', channel=3, note=55, velocity=0, time=120),
    Message('note_on', channel=3, note=62, velocity=0, time=0),
    Message('note_on', channel=3, note=67, velocity=0, time=0),
    Message('note_on', channel=3, note=66, velocity=100, time=0),
    Message('note_on', channel=3, note=61, velocity=100, time=0),
    Message('note_on', channel=3, note=54, velocity=100, time=0),
    Message('note_on', channel=3, note=54, velocity=0, time=120),
    Message('note_on', channel=3, note=61, velocity=0, time=0),
    Message('note_on', channel=3, note=66, velocity=0, time=0),
    Message('note_on', channel=3, note=62, velocity=100, time=0),
    Message('note_on', channel=3, note=57, velocity=100, time=0),
    Message('note_on', channel=3, note=50, velocity=100, time=0),
    Message('note_on', channel=3, note=50, velocity=0, time=234),
    Message('note_on', channel=3, note=57, velocity=0, time=0),
    Message('note_on', channel=3, note=62, velocity=0, time=0),
    Message('note_on', channel=3, note=62, velocity=100, time=6),
    Message('note_on', channel=3, note=57, velocity=100, time=0),
    Message('note_on', channel=3, note=50, velocity=100, time=0),
    Message('pitchwheel', channel=3, pitch=1365, time=180),
    Message('note_on', channel=3, note=50, velocity=0, time=60),
    Message('note_on', channel=3, note=57, velocity=0, time=0),
    Message('note_on', channel=3, note=62, velocity=0, time=0),
    Message('pitchwheel', channel=3, pitch=0, time=0),
    Message('note_on', channel=3, note=64, velocity=100, time=0),
    Message('note_on', channel=3, note=59, velocity=100, time=0),
    Message('note_on', channel=3, note=52, velocity=100, time=0),
    Message('note_on', channel=3, note=52, velocity=0, time=240),
    Message('note_on', channel=3, note=59, velocity=0, time=0),
    Message('note_on', channel=3, note=64, velocity=0, time=0),
    Message('note_on', channel=3, note=64, velocity=100, time=0),
    Message('note_on', channel=3, note=59, velocity=100, time=0),
    Message('note_on', channel=3, note=52, velocity=100, time=0),
    Message('note_on', channel=3, note=52, velocity=0, time=480),
    Message('note_on', channel=3, note=59, velocity=0, time=0),
    Message('note_on', channel=3, note=64, velocity=0, time=0),
    Message('pitchwheel', channel=3, pitch=0, time=0),
    Message('note_on', channel=3, note=59, velocity=100, time=0),
    Message('note_on', channel=3, note=54, velocity=100, time=0),
    Message('note_on', channel=3, note=47, velocity=100, time=0),
    Message('note_on', channel=3, note=47, velocity=0, time=480),
    Message('note_on', channel=3, note=54, velocity=0, time=0),
    Message('note_on', channel=3, note=59, velocity=0, time=0),
    Message('note_on', channel=3, note=62, velocity=100, time=0),
    Message('note_on', channel=3, note=57, velocity=100, time=0),
    Message('note_on', channel=3, note=50, velocity=100, time=0),
    Message('note_on', channel=3, note=50, velocity=0, time=480),
    Message('note_on', channel=3, note=57, velocity=0, time=0),
    Message('note_on', channel=3, note=62, velocity=0, time=0),
    Message('note_on', channel=3, note=62, velocity=100, time=0),
    Message('note_on', channel=3, note=57, velocity=100, time=0),
    Message('note_on', channel=3, note=50, velocity=100, time=0),
    Message('pitchwheel', channel=3, pitch=1365, time=180),
    Message('note_on', channel=3, note=50, velocity=0, time=60),
    Message('note_on', channel=3, note=57, velocity=0, time=0),
    Message('note_on', channel=3, note=62, velocity=0, time=0),
    Message('pitchwheel', channel=3, pitch=0, time=0),
    Message('note_on', channel=3, note=64, velocity=100, time=0),
    Message('note_on', channel=3, note=59, velocity=100, time=0),
    Message('note_on', channel=3, note=52, velocity=100, time=0),
    Message('note_on', channel=3, note=52, velocity=0, time=240),
    Message('note_on', channel=3, note=59, velocity=0, time=0),
    Message('note_on', channel=3, note=64, velocity=0, time=0),
    Message('note_on', channel=3, note=64, velocity=100, time=0),
    Message('note_on', channel=3, note=59, velocity=100, time=0),
    Message('note_on', channel=3, note=52, velocity=100, time=0),
    Message('note_on', channel=3, note=52, velocity=0, time=480),
    Message('note_on', channel=3, note=59, velocity=0, time=0),
    Message('note_on', channel=3, note=64, velocity=0, time=0),
    Message('note_on', channel=3, note=67, velocity=100, time=0),
    Message('note_on', channel=3, note=62, velocity=100, time=0),
    Message('note_on', channel=3, note=55, velocity=100, time=0),
    Message('note_on', channel=3, note=55, velocity=0, time=120),
    Message('note_on', channel=3, note=62, velocity=0, time=0),
    Message('note_on', channel=3, note=67, velocity=0, time=0),
    Message('note_on', channel=3, note=66, velocity=100, time=0),
    Message('note_on', channel=3, note=61, velocity=100, time=0),
    Message('note_on', channel=3, note=54, velocity=100, time=0),
    Message('note_on', channel=3, note=54, velocity=0, time=120),
    Message('note_on', channel=3, note=61, velocity=0, time=0),
    Message('note_on', channel=3, note=66, velocity=0, time=0),
    Message('note_on', channel=3, note=67, velocity=100, time=0),
    Message('note_on', channel=3, note=62, velocity=100, time=0),
    Message('note_on', channel=3, note=55, velocity=100, time=0),
    Message('note_on', channel=3, note=55, velocity=0, time=120),
    Message('note_on', channel=3, note=62, velocity=0, time=0),
    Message('note_on', channel=3, note=67, velocity=0, time=0),
    Message('note_on', channel=3, note=66, velocity=100, time=0),
    Message('note_on', channel=3, note=61, velocity=100, time=0),
    Message('note_on', channel=3, note=54, velocity=100, time=0),
    Message('note_on', channel=3, note=54, velocity=0, time=120),
    Message('note_on', channel=3, note=61, velocity=0, time=0),
    Message('note_on', channel=3, note=66, velocity=0, time=0),
    Message('note_on', channel=3, note=67, velocity=100, time=0),
    Message('note_on', channel=3, note=62, velocity=100, time=0),
    Message('note_on', channel=3, note=55, velocity=100, time=0),
    Message('note_on', channel=3, note=55, velocity=0, time=120),
    Message('note_on', channel=3, note=62, velocity=0, time=0),
    Message('note_on', channel=3, note=67, velocity=0, time=0),
    Message('note_on', channel=3, note=66, velocity=100, time=0),
    Message('note_on', channel=3, note=61, velocity=100, time=0),
    Message('note_on', channel=3, note=54, velocity=100, time=0),
    Message('note_on', channel=3, note=54, velocity=0, time=120),
    Message('note_on', channel=3, note=61, velocity=0, time=0),
    Message('note_on', channel=3, note=66, velocity=0, time=0),
    Message('note_on', channel=3, note=62, velocity=100, time=0),
    Message('note_on', channel=3, note=57, velocity=100, time=0),
    Message('note_on', channel=3, note=50, velocity=100, time=0),
    Message('note_on', channel=3, note=50, velocity=0, time=234),
    Message('note_on', channel=3, note=57, velocity=0, time=0),
    Message('note_on', channel=3, note=62, velocity=0, time=0),
    Message('note_on', channel=3, note=62, velocity=100, time=6),
    Message('note_on', channel=3, note=57, velocity=100, time=0),
    Message('note_on', channel=3, note=50, velocity=100, time=0),
    Message('pitchwheel', channel=3, pitch=1365, time=180),
    Message('note_on', channel=3, note=50, velocity=0, time=60),
    Message('note_on', channel=3, note=57, velocity=0, time=0),
    Message('note_on', channel=3, note=62, velocity=0, time=0),
    Message('pitchwheel', channel=3, pitch=0, time=0),
    Message('note_on', channel=3, note=64, velocity=100, time=0),
    Message('note_on', channel=3, note=59, velocity=100, time=0),
    Message('note_on', channel=3, note=52, velocity=100, time=0),
    Message('note_on', channel=3, note=52, velocity=0, time=240),
    Message('note_on', channel=3, note=59, velocity=0, time=0),
    Message('note_on', channel=3, note=64, velocity=0, time=0),
    Message('note_on', channel=3, note=64, velocity=100, time=0),
    Message('note_on', channel=3, note=59, velocity=100, time=0),
    Message('note_on', channel=3, note=52, velocity=100, time=0),
    Message('note_on', channel=3, note=52, velocity=0, time=480),
    Message('note_on', channel=3, note=59, velocity=0, time=0),
    Message('note_on', channel=3, note=64, velocity=0, time=0),
    Message('note_on', channel=3, note=52, velocity=100, time=0),
    Message('note_on', channel=3, note=59, velocity=100, time=0),
    Message('note_on', channel=3, note=64, velocity=100, time=0),
    Message('note_on', channel=3, note=64, velocity=0, time=1920),
    Message('note_on', channel=3, note=59, velocity=0, time=0),
    Message('note_on', channel=3, note=52, velocity=0, time=0),
    Message('note_on', channel=3, note=50, velocity=100, time=0),
    Message('note_on', channel=3, note=62, velocity=100, time=0),
    Message('note_on', channel=3, note=57, velocity=100, time=0),
    Message('note_on', channel=3, note=57, velocity=0, time=1920),
    Message('note_on', channel=3, note=62, velocity=0, time=0),
    Message('note_on', channel=3, note=50, velocity=0, time=0),
    Message('note_on', channel=3, note=54, velocity=100, time=0),
    Message('note_on', channel=3, note=59, velocity=100, time=0),
    Message('note_on', channel=3, note=47, velocity=100, time=0),
    Message('note_on', channel=3, note=47, velocity=0, time=240),
    Message('note_on', channel=3, note=59, velocity=0, time=0),
    Message('note_on', channel=3, note=54, velocity=0, time=0),
    Message('note_on', channel=3, note=54, velocity=100, time=0),
    Message('note_on', channel=3, note=59, velocity=100, time=0),
    Message('note_on', channel=3, note=47, velocity=100, time=0),
    Message('note_on', channel=3, note=47, velocity=0, time=240),
    Message('note_on', channel=3, note=59, velocity=0, time=0),
    Message('note_on', channel=3, note=54, velocity=0, time=0),
    Message('note_on', channel=3, note=57, velocity=100, time=0),
    Message('note_on', channel=3, note=62, velocity=100, time=0),
    Message('note_on', channel=3, note=50, velocity=100, time=0),
    Message('note_on', channel=3, note=50, velocity=0, time=120),
    Message('note_on', channel=3, note=62, velocity=0, time=0),
    Message('note_on', channel=3, note=57, velocity=0, time=0),
    Message('note_on', channel=3, note=58, velocity=100, time=0),
    Message('note_on', channel=3, note=63, velocity=100, time=0),
    Message('note_on', channel=3, note=51, velocity=100, time=0),
    Message('note_on', channel=3, note=51, velocity=0, time=120),
    Message('note_on', channel=3, note=63, velocity=0, time=0),
    Message('note_on', channel=3, note=58, velocity=0, time=0),
    Message('note_on', channel=3, note=59, velocity=100, time=0),
    Message('note_on', channel=3, note=64, velocity=100, time=0),
    Message('note_on', channel=3, note=52, velocity=100, time=0),
    Message('note_on', channel=3, note=52, velocity=0, time=240),
    Message('note_on', channel=3, note=64, velocity=0, time=0),
    Message('note_on', channel=3, note=59, velocity=0, time=0),
    Message('note_on', channel=3, note=59, velocity=100, time=0),
    Message('note_on', channel=3, note=64, velocity=100, time=0),
    Message('note_on', channel=3, note=52, velocity=100, time=0),
    Message('note_on', channel=3, note=52, velocity=0, time=120),
    Message('note_on', channel=3, note=64, velocity=0, time=0),
    Message('note_on', channel=3, note=59, velocity=0, time=0),
    Message('note_on', channel=3, note=60, velocity=100, time=0),
    Message('note_on', channel=3, note=65, velocity=100, time=0),
    Message('note_on', channel=3, note=53, velocity=100, time=0),
    Message('note_on', channel=3, note=53, velocity=0, time=120),
    Message('note_on', channel=3, note=65, velocity=0, time=0),
    Message('note_on', channel=3, note=60, velocity=0, time=0),
    Message('note_on', channel=3, note=61, velocity=100, time=0),
    Message('note_on', channel=3, note=66, velocity=100, time=0),
    Message('note_on', channel=3, note=54, velocity=100, time=0),
    Message('note_on', channel=3, note=54, velocity=0, time=240),
    Message('note_on', channel=3, note=66, velocity=0, time=0),
    Message('note_on', channel=3, note=61, velocity=0, time=0),
    Message('note_on', channel=3, note=64, velocity=100, time=0),
    Message('note_on', channel=3, note=69, velocity=100, time=0),
    Message('note_on', channel=3, note=57, velocity=100, time=0),
    Message('note_on', channel=3, note=57, velocity=0, time=120),
    Message('note_on', channel=3, note=69, velocity=0, time=0),
    Message('note_on', channel=3, note=64, velocity=0, time=0),
    Message('note_on', channel=3, note=65, velocity=100, time=0),
    Message('note_on', channel=3, note=70, velocity=100, time=0),
    Message('note_on', channel=3, note=58, velocity=100, time=0),
    Message('note_on', channel=3, note=58, velocity=0, time=120),
    Message('note_on', channel=3, note=70, velocity=0, time=0),
    Message('note_on', channel=3, note=65, velocity=0, time=0),
    Message('note_on', channel=3, note=66, velocity=100, time=0),
    Message('note_on', channel=3, note=71, velocity=100, time=0),
    Message('note_on', channel=3, note=59, velocity=100, time=0),
    Message('note_on', channel=3, note=59, velocity=0, time=240),
    Message('note_on', channel=3, note=71, velocity=0, time=0),
    Message('note_on', channel=3, note=66, velocity=0, time=0),
    Message('note_on', channel=3, note=54, velocity=100, time=0),
    Message('note_on', channel=3, note=59, velocity=100, time=0),
    Message('note_on', channel=3, note=47, velocity=100, time=0),
    Message('note_on', channel=3, note=47, velocity=0, time=240),
    Message('note_on', channel=3, note=59, velocity=0, time=0),
    Message('note_on', channel=3, note=54, velocity=0, time=0),
    Message('note_on', channel=3, note=54, velocity=100, time=0),
    Message('note_on', channel=3, note=59, velocity=100, time=0),
    Message('note_on', channel=3, note=47, velocity=100, time=0),
    Message('note_on', channel=3, note=47, velocity=0, time=240),
    Message('note_on', channel=3, note=59, velocity=0, time=0),
    Message('note_on', channel=3, note=54, velocity=0, time=0),
    Message('note_on', channel=3, note=57, velocity=100, time=0),
    Message('note_on', channel=3, note=62, velocity=100, time=0),
    Message('note_on', channel=3, note=50, velocity=100, time=0),
    Message('note_on', channel=3, note=50, velocity=0, time=120),
    Message('note_on', channel=3, note=62, velocity=0, time=0),
    Message('note_on', channel=3, note=57, velocity=0, time=0),
    Message('note_on', channel=3, note=58, velocity=100, time=0),
    Message('note_on', channel=3, note=63, velocity=100, time=0),
    Message('note_on', channel=3, note=51, velocity=100, time=0),
    Message('note_on', channel=3, note=51, velocity=0, time=120),
    Message('note_on', channel=3, note=63, velocity=0, time=0),
    Message('note_on', channel=3, note=58, velocity=0, time=0),
    Message('note_on', channel=3, note=59, velocity=100, time=0),
    Message('note_on', channel=3, note=64, velocity=100, time=0),
    Message('note_on', channel=3, note=52, velocity=100, time=0),
    Message('note_on', channel=3, note=52, velocity=0, time=240),
    Message('note_on', channel=3, note=64, velocity=0, time=0),
    Message('note_on', channel=3, note=59, velocity=0, time=0),
    Message('note_on', channel=3, note=59, velocity=100, time=0),
    Message('note_on', channel=3, note=64, velocity=100, time=0),
    Message('note_on', channel=3, note=52, velocity=100, time=0),
    Message('note_on', channel=3, note=52, velocity=0, time=120),
    Message('note_on', channel=3, note=64, velocity=0, time=0),
    Message('note_on', channel=3, note=59, velocity=0, time=0),
    Message('note_on', channel=3, note=60, velocity=100, time=0),
    Message('note_on', channel=3, note=65, velocity=100, time=0),
    Message('note_on', channel=3, note=53, velocity=100, time=0),
    Message('note_on', channel=3, note=53, velocity=0, time=120),
    Message('note_on', channel=3, note=65, velocity=0, time=0),
    Message('note_on', channel=3, note=60, velocity=0, time=0),
    Message('note_on', channel=3, note=61, velocity=100, time=0),
    Message('note_on', channel=3, note=66, velocity=100, time=0),
    Message('note_on', channel=3, note=54, velocity=100, time=0),
    Message('note_on', channel=3, note=54, velocity=0, time=240),
    Message('note_on', channel=3, note=66, velocity=0, time=0),
    Message('note_on', channel=3, note=61, velocity=0, time=0),
    Message('note_on', channel=3, note=64, velocity=100, time=0),
    Message('note_on', channel=3, note=69, velocity=100, time=0),
    Message('note_on', channel=3, note=57, velocity=100, time=0),
    Message('note_on', channel=3, note=57, velocity=0, time=120),
    Message('note_on', channel=3, note=69, velocity=0, time=0),
    Message('note_on', channel=3, note=64, velocity=0, time=0),
    Message('note_on', channel=3, note=65, velocity=100, time=0),
    Message('note_on', channel=3, note=70, velocity=100, time=0),
    Message('note_on', channel=3, note=58, velocity=100, time=0),
    Message('note_on', channel=3, note=58, velocity=0, time=120),
    Message('note_on', channel=3, note=70, velocity=0, time=0),
    Message('note_on', channel=3, note=65, velocity=0, time=0),
    Message('note_on', channel=3, note=66, velocity=100, time=0),
    Message('note_on', channel=3, note=71, velocity=100, time=0),
    Message('note_on', channel=3, note=59, velocity=100, time=0),
    Message('note_on', channel=3, note=59, velocity=0, time=240),
    Message('note_on', channel=3, note=71, velocity=0, time=0),
    Message('note_on', channel=3, note=66, velocity=0, time=0),
    Message('note_on', channel=3, note=52, velocity=100, time=0),
    Message('note_on', channel=3, note=59, velocity=100, time=0),
    Message('note_on', channel=3, note=64, velocity=100, time=0),
    Message('note_on', channel=3, note=64, velocity=0, time=1920),
    Message('note_on', channel=3, note=59, velocity=0, time=0),
    Message('note_on', channel=3, note=52, velocity=0, time=0),
    Message('note_on', channel=3, note=50, velocity=100, time=0),
    Message('note_on', channel=3, note=62, velocity=100, time=0),
    Message('note_on', channel=3, note=57, velocity=100, time=0),
    Message('note_on', channel=3, note=57, velocity=0, time=1920),
    Message('note_on', channel=3, note=62, velocity=0, time=0),
    Message('note_on', channel=3, note=50, velocity=0, time=0),
    Message('note_on', channel=3, note=54, velocity=100, time=0),
    Message('note_on', channel=3, note=59, velocity=100, time=0),
    Message('note_on', channel=3, note=47, velocity=100, time=0),
    Message('note_on', channel=3, note=47, velocity=0, time=240),
    Message('note_on', channel=3, note=59, velocity=0, time=0),
    Message('note_on', channel=3, note=54, velocity=0, time=0),
    Message('note_on', channel=3, note=54, velocity=100, time=0),
    Message('note_on', channel=3, note=59, velocity=100, time=0),
    Message('note_on', channel=3, note=47, velocity=100, time=0),
    Message('note_on', channel=3, note=47, velocity=0, time=240),
    Message('note_on', channel=3, note=59, velocity=0, time=0),
    Message('note_on', channel=3, note=54, velocity=0, time=0),
    Message('note_on', channel=3, note=57, velocity=100, time=0),
    Message('note_on', channel=3, note=62, velocity=100, time=0),
    Message('note_on', channel=3, note=50, velocity=100, time=0),
    Message('note_on', channel=3, note=50, velocity=0, time=120),
    Message('note_on', channel=3, note=62, velocity=0, time=0),
    Message('note_on', channel=3, note=57, velocity=0, time=0),
    Message('note_on', channel=3, note=58, velocity=100, time=0),
    Message('note_on', channel=3, note=63, velocity=100, time=0),
    Message('note_on', channel=3, note=51, velocity=100, time=0),
    Message('note_on', channel=3, note=51, velocity=0, time=120),
    Message('note_on', channel=3, note=63, velocity=0, time=0),
    Message('note_on', channel=3, note=58, velocity=0, time=0),
    Message('note_on', channel=3, note=59, velocity=100, time=0),
    Message('note_on', channel=3, note=64, velocity=100, time=0),
    Message('note_on', channel=3, note=52, velocity=100, time=0),
    Message('note_on', channel=3, note=52, velocity=0, time=240),
    Message('note_on', channel=3, note=64, velocity=0, time=0),
    Message('note_on', channel=3, note=59, velocity=0, time=0),
    Message('note_on', channel=3, note=59, velocity=100, time=0),
    Message('note_on', channel=3, note=64, velocity=100, time=0),
    Message('note_on', channel=3, note=52, velocity=100, time=0),
    Message('note_on', channel=3, note=52, velocity=0, time=120),
    Message('note_on', channel=3, note=64, velocity=0, time=0),
    Message('note_on', channel=3, note=59, velocity=0, time=0),
    Message('note_on', channel=3, note=60, velocity=100, time=0),
    Message('note_on', channel=3, note=65, velocity=100, time=0),
    Message('note_on', channel=3, note=53, velocity=100, time=0),
    Message('note_on', channel=3, note=53, velocity=0, time=120),
    Message('note_on', channel=3, note=65, velocity=0, time=0),
    Message('note_on', channel=3, note=60, velocity=0, time=0),
    Message('note_on', channel=3, note=61, velocity=100, time=0),
    Message('note_on', channel=3, note=66, velocity=100, time=0),
    Message('note_on', channel=3, note=54, velocity=100, time=0),
    Message('note_on', channel=3, note=54, velocity=0, time=240),
    Message('note_on', channel=3, note=66, velocity=0, time=0),
    Message('note_on', channel=3, note=61, velocity=0, time=0),
    Message('note_on', channel=3, note=64, velocity=100, time=0),
    Message('note_on', channel=3, note=69, velocity=100, time=0),
    Message('note_on', channel=3, note=57, velocity=100, time=0),
    Message('note_on', channel=3, note=57, velocity=0, time=120),
    Message('note_on', channel=3, note=69, velocity=0, time=0),
    Message('note_on', channel=3, note=64, velocity=0, time=0),
    Message('note_on', channel=3, note=65, velocity=100, time=0),
    Message('note_on', channel=3, note=70, velocity=100, time=0),
    Message('note_on', channel=3, note=58, velocity=100, time=0),
    Message('note_on', channel=3, note=58, velocity=0, time=120),
    Message('note_on', channel=3, note=70, velocity=0, time=0),
    Message('note_on', channel=3, note=65, velocity=0, time=0),
    Message('note_on', channel=3, note=66, velocity=100, time=0),
    Message('note_on', channel=3, note=71, velocity=100, time=0),
    Message('note_on', channel=3, note=59, velocity=100, time=0),
    Message('note_on', channel=3, note=59, velocity=0, time=240),
    Message('note_on', channel=3, note=71, velocity=0, time=0),
    Message('note_on', channel=3, note=66, velocity=0, time=0),
    Message('note_on', channel=3, note=54, velocity=100, time=0),
    Message('note_on', channel=3, note=59, velocity=100, time=0),
    Message('note_on', channel=3, note=47, velocity=100, time=0),
    Message('note_on', channel=3, note=47, velocity=0, time=240),
    Message('note_on', channel=3, note=59, velocity=0, time=0),
    Message('note_on', channel=3, note=54, velocity=0, time=0),
    Message('note_on', channel=3, note=54, velocity=100, time=0),
    Message('note_on', channel=3, note=59, velocity=100, time=0),
    Message('note_on', channel=3, note=47, velocity=100, time=0),
    Message('note_on', channel=3, note=47, velocity=0, time=240),
    Message('note_on', channel=3, note=59, velocity=0, time=0),
    Message('note_on', channel=3, note=54, velocity=0, time=0),
    Message('note_on', channel=3, note=57, velocity=100, time=0),
    Message('note_on', channel=3, note=62, velocity=100, time=0),
    Message('note_on', channel=3, note=50, velocity=100, time=0),
    Message('note_on', channel=3, note=50, velocity=0, time=120),
    Message('note_on', channel=3, note=62, velocity=0, time=0),
    Message('note_on', channel=3, note=57, velocity=0, time=0),
    Message('note_on', channel=3, note=58, velocity=100, time=0),
    Message('note_on', channel=3, note=63, velocity=100, time=0),
    Message('note_on', channel=3, note=51, velocity=100, time=0),
    Message('note_on', channel=3, note=51, velocity=0, time=120),
    Message('note_on', channel=3, note=63, velocity=0, time=0),
    Message('note_on', channel=3, note=58, velocity=0, time=0),
    Message('note_on', channel=3, note=59, velocity=100, time=0),
    Message('note_on', channel=3, note=64, velocity=100, time=0),
    Message('note_on', channel=3, note=52, velocity=100, time=0),
    Message('note_on', channel=3, note=52, velocity=0, time=240),
    Message('note_on', channel=3, note=64, velocity=0, time=0),
    Message('note_on', channel=3, note=59, velocity=0, time=0),
    Message('note_on', channel=3, note=59, velocity=100, time=0),
    Message('note_on', channel=3, note=64, velocity=100, time=0),
    Message('note_on', channel=3, note=52, velocity=100, time=0),
    Message('note_on', channel=3, note=52, velocity=0, time=120),
    Message('note_on', channel=3, note=64, velocity=0, time=0),
    Message('note_on', channel=3, note=59, velocity=0, time=0),
    Message('note_on', channel=3, note=60, velocity=100, time=0),
    Message('note_on', channel=3, note=65, velocity=100, time=0),
    Message('note_on', channel=3, note=53, velocity=100, time=0),
    Message('note_on', channel=3, note=53, velocity=0, time=120),
    Message('note_on', channel=3, note=65, velocity=0, time=0),
    Message('note_on', channel=3, note=60, velocity=0, time=0),
    Message('note_on', channel=3, note=61, velocity=100, time=0),
    Message('note_on', channel=3, note=66, velocity=100, time=0),
    Message('note_on', channel=3, note=54, velocity=100, time=0),
    Message('note_on', channel=3, note=54, velocity=0, time=240),
    Message('note_on', channel=3, note=66, velocity=0, time=0),
    Message('note_on', channel=3, note=61, velocity=0, time=0),
    Message('note_on', channel=3, note=64, velocity=100, time=0),
    Message('note_on', channel=3, note=69, velocity=100, time=0),
    Message('note_on', channel=3, note=57, velocity=100, time=0),
    Message('note_on', channel=3, note=57, velocity=0, time=120),
    Message('note_on', channel=3, note=69, velocity=0, time=0),
    Message('note_on', channel=3, note=64, velocity=0, time=0),
    Message('note_on', channel=3, note=65, velocity=100, time=0),
    Message('note_on', channel=3, note=70, velocity=100, time=0),
    Message('note_on', channel=3, note=58, velocity=100, time=0),
    Message('note_on', channel=3, note=58, velocity=0, time=120),
    Message('note_on', channel=3, note=70, velocity=0, time=0),
    Message('note_on', channel=3, note=65, velocity=0, time=0),
    Message('note_on', channel=3, note=66, velocity=100, time=0),
    Message('note_on', channel=3, note=71, velocity=100, time=0),
    Message('note_on', channel=3, note=59, velocity=100, time=0),
    Message('note_on', channel=3, note=59, velocity=0, time=240),
    Message('note_on', channel=3, note=71, velocity=0, time=0),
    Message('note_on', channel=3, note=66, velocity=0, time=0),
    Message('note_on', channel=3, note=68, velocity=100, time=0),
    Message('note_on', channel=3, note=61, velocity=100, time=0),
    Message('note_on', channel=3, note=73, velocity=100, time=0),
    Message('note_on', channel=3, note=73, velocity=0, time=120),
    Message('note_on', channel=3, note=61, velocity=0, time=0),
    Message('note_on', channel=3, note=68, velocity=0, time=0),
    Message('note_on', channel=3, note=66, velocity=100, time=0),
    Message('note_on', channel=3, note=59, velocity=100, time=0),
    Message('note_on', channel=3, note=71, velocity=100, time=0),
    Message('note_on', channel=3, note=71, velocity=0, time=120),
    Message('note_on', channel=3, note=59, velocity=0, time=0),
    Message('note_on', channel=3, note=66, velocity=0, time=0),
    Message('note_on', channel=3, note=63, velocity=100, time=120),
    Message('note_on', channel=3, note=56, velocity=100, time=0),
    Message('note_on', channel=3, note=68, velocity=100, time=0),
    Message('note_on', channel=3, note=68, velocity=0, time=120),
    Message('note_on', channel=3, note=56, velocity=0, time=0),
    Message('note_on', channel=3, note=63, velocity=0, time=0),
    Message('note_on', channel=3, note=61, velocity=100, time=120),
    Message('note_on', channel=3, note=54, velocity=100, time=0),
    Message('note_on', channel=3, note=66, velocity=100, time=0),
    Message('note_on', channel=3, note=66, velocity=0, time=120),
    Message('note_on', channel=3, note=54, velocity=0, time=0),
    Message('note_on', channel=3, note=61, velocity=0, time=0),
    Message('note_on', channel=3, note=59, velocity=100, time=120),
    Message('note_on', channel=3, note=52, velocity=100, time=0),
    Message('note_on', channel=3, note=64, velocity=100, time=0),
    Message('note_on', channel=3, note=64, velocity=0, time=120),
    Message('note_on', channel=3, note=52, velocity=0, time=0),
    Message('note_on', channel=3, note=59, velocity=0, time=0),
    Message('note_on', channel=3, note=56, velocity=100, time=116),
    Message('note_on', channel=3, note=49, velocity=100, time=0),
    Message('note_on', channel=3, note=61, velocity=100, time=0),
    Message('note_on', channel=3, note=61, velocity=0, time=120),
    Message('note_on', channel=3, note=49, velocity=0, time=0),
    Message('note_on', channel=3, note=56, velocity=0, time=0),
    Message('note_on', channel=3, note=54, velocity=100, time=124),
    Message('note_on', channel=3, note=47, velocity=100, time=0),
    Message('note_on', channel=3, note=59, velocity=100, time=0),
    Message('note_on', channel=3, note=59, velocity=0, time=120),
    Message('note_on', channel=3, note=47, velocity=0, time=0),
    Message('note_on', channel=3, note=54, velocity=0, time=0),
    Message('note_on', channel=3, note=54, velocity=100, time=0),
    Message('note_on', channel=3, note=47, velocity=100, time=0),
    Message('note_on', channel=3, note=59, velocity=100, time=0),
    Message('note_on', channel=3, note=59, velocity=0, time=120),
    Message('note_on', channel=3, note=47, velocity=0, time=0),
    Message('note_on', channel=3, note=54, velocity=0, time=0),
    Message('note_on', channel=3, note=56, velocity=100, time=0),
    Message('note_on', channel=3, note=49, velocity=100, time=0),
    Message('note_on', channel=3, note=61, velocity=100, time=0),
    Message('note_on', channel=3, note=61, velocity=0, time=120),
    Message('note_on', channel=3, note=49, velocity=0, time=0),
    Message('note_on', channel=3, note=56, velocity=0, time=0),
    Message('note_on', channel=3, note=56, velocity=100, time=0),
    Message('note_on', channel=3, note=49, velocity=100, time=0),
    Message('note_on', channel=3, note=61, velocity=100, time=0),
    Message('note_on', channel=3, note=61, velocity=0, time=120),
    Message('note_on', channel=3, note=49, velocity=0, time=0),
    Message('note_on', channel=3, note=56, velocity=0, time=0),
    Message('note_on', channel=3, note=68, velocity=100, time=120),
    Message('note_on', channel=3, note=61, velocity=100, time=0),
    Message('note_on', channel=3, note=73, velocity=100, time=0),
    Message('note_on', channel=3, note=73, velocity=0, time=120),
    Message('note_on', channel=3, note=61, velocity=0, time=0),
    Message('note_on', channel=3, note=68, velocity=0, time=0),
    Message('note_on', channel=3, note=66, velocity=100, time=0),
    Message('note_on', channel=3, note=59, velocity=100, time=0),
    Message('note_on', channel=3, note=71, velocity=100, time=0),
    Message('note_on', channel=3, note=71, velocity=0, time=120),
    Message('note_on', channel=3, note=59, velocity=0, time=0),
    Message('note_on', channel=3, note=66, velocity=0, time=0),
    Message('note_on', channel=3, note=63, velocity=100, time=120),
    Message('note_on', channel=3, note=56, velocity=100, time=0),
    Message('note_on', channel=3, note=68, velocity=100, time=0),
    Message('note_on', channel=3, note=68, velocity=0, time=120),
    Message('note_on', channel=3, note=56, velocity=0, time=0),
    Message('note_on', channel=3, note=63, velocity=0, time=0),
    Message('note_on', channel=3, note=61, velocity=100, time=120),
    Message('note_on', channel=3, note=54, velocity=100, time=0),
    Message('note_on', channel=3, note=66, velocity=100, time=0),
    Message('note_on', channel=3, note=66, velocity=0, time=120),
    Message('note_on', channel=3, note=54, velocity=0, time=0),
    Message('note_on', channel=3, note=61, velocity=0, time=0),
    Message('note_on', channel=3, note=59, velocity=100, time=120),
    Message('note_on', channel=3, note=52, velocity=100, time=0),
    Message('note_on', channel=3, note=64, velocity=100, time=0),
    Message('note_on', channel=3, note=64, velocity=0, time=120),
    Message('note_on', channel=3, note=52, velocity=0, time=0),
    Message('note_on', channel=3, note=59, velocity=0, time=0),
    Message('note_on', channel=3, note=56, velocity=100, time=116),
    Message('note_on', channel=3, note=49, velocity=100, time=0),
    Message('note_on', channel=3, note=61, velocity=100, time=0),
    Message('note_on', channel=3, note=61, velocity=0, time=120),
    Message('note_on', channel=3, note=49, velocity=0, time=0),
    Message('note_on', channel=3, note=56, velocity=0, time=0),
    Message('note_on', channel=3, note=54, velocity=100, time=124),
    Message('note_on', channel=3, note=47, velocity=100, time=0),
    Message('note_on', channel=3, note=59, velocity=100, time=0),
    Message('note_on', channel=3, note=59, velocity=0, time=120),
    Message('note_on', channel=3, note=47, velocity=0, time=0),
    Message('note_on', channel=3, note=54, velocity=0, time=0),
    Message('note_on', channel=3, note=54, velocity=100, time=0),
    Message('note_on', channel=3, note=47, velocity=100, time=0),
    Message('note_on', channel=3, note=59, velocity=100, time=0),
    Message('note_on', channel=3, note=59, velocity=0, time=120),
    Message('note_on', channel=3, note=47, velocity=0, time=0),
    Message('note_on', channel=3, note=54, velocity=0, time=0),
    Message('note_on', channel=3, note=56, velocity=100, time=0),
    Message('note_on', channel=3, note=49, velocity=100, time=0),
    Message('note_on', channel=3, note=61, velocity=100, time=0),
    Message('note_on', channel=3, note=61, velocity=0, time=120),
    Message('note_on', channel=3, note=49, velocity=0, time=0),
    Message('note_on', channel=3, note=56, velocity=0, time=0),
    Message('note_on', channel=3, note=56, velocity=100, time=0),
    Message('note_on', channel=3, note=49, velocity=100, time=0),
    Message('note_on', channel=3, note=61, velocity=100, time=0),
    Message('note_on', channel=3, note=61, velocity=0, time=120),
    Message('note_on', channel=3, note=49, velocity=0, time=0),
    Message('note_on', channel=3, note=56, velocity=0, time=0),
    Message('note_on', channel=3, note=59, velocity=100, time=120),
    Message('note_on', channel=3, note=54, velocity=100, time=0),
    Message('note_on', channel=3, note=47, velocity=100, time=0),
    Message('note_on', channel=3, note=47, velocity=0, time=120),
    Message('note_on', channel=3, note=54, velocity=0, time=0),
    Message('note_on', channel=3, note=59, velocity=0, time=0),
    Message('note_on', channel=3, note=61, velocity=100, time=0),
    Message('note_on', channel=3, note=56, velocity=100, time=0),
    Message('note_on', channel=3, note=49, velocity=100, time=0),
    Message('note_on', channel=3, note=49, velocity=0, time=120),
    Message('note_on', channel=3, note=56, velocity=0, time=0),
    Message('note_on', channel=3, note=61, velocity=0, time=0),
    Message('note_on', channel=3, note=61, velocity=100, time=0),
    Message('note_on', channel=3, note=56, velocity=100, time=0),
    Message('note_on', channel=3, note=49, velocity=100, time=0),
    Message('note_on', channel=3, note=49, velocity=0, time=120),
    Message('note_on', channel=3, note=56, velocity=0, time=0),
    Message('note_on', channel=3, note=61, velocity=0, time=0),
    Message('note_on', channel=3, note=44, velocity=100, time=0),
    Message('note_on', channel=3, note=37, velocity=100, time=0),
    Message('note_on', channel=3, note=37, velocity=0, time=60),
    Message('note_on', channel=3, note=44, velocity=0, time=0),
    Message('note_on', channel=3, note=37, velocity=100, time=60),
    Message('note_on', channel=3, note=44, velocity=100, time=0),
    Message('note_on', channel=3, note=44, velocity=0, time=60),
    Message('note_on', channel=3, note=37, velocity=0, time=0),
    Message('note_on', channel=3, note=37, velocity=100, time=60),
    Message('note_on', channel=3, note=44, velocity=100, time=0),
    Message('note_on', channel=3, note=44, velocity=0, time=60),
    Message('note_on', channel=3, note=37, velocity=0, time=0),
    Message('note_on', channel=3, note=37, velocity=100, time=60),
    Message('note_on', channel=3, note=44, velocity=100, time=0),
    Message('note_on', channel=3, note=44, velocity=0, time=60),
    Message('note_on', channel=3, note=37, velocity=0, time=0),
    Message('note_on', channel=3, note=37, velocity=100, time=60),
    Message('note_on', channel=3, note=44, velocity=100, time=0),
    Message('note_on', channel=3, note=44, velocity=0, time=60),
    Message('note_on', channel=3, note=37, velocity=0, time=0),
    Message('note_on', channel=3, note=59, velocity=100, time=60),
    Message('note_on', channel=3, note=54, velocity=100, time=0),
    Message('note_on', channel=3, note=47, velocity=100, time=0),
    Message('note_on', channel=3, note=47, velocity=0, time=120),
    Message('note_on', channel=3, note=54, velocity=0, time=0),
    Message('note_on', channel=3, note=59, velocity=0, time=0),
    Message('note_on', channel=3, note=61, velocity=100, time=0),
    Message('note_on', channel=3, note=56, velocity=100, time=0),
    Message('note_on', channel=3, note=49, velocity=100, time=0),
    Message('note_on', channel=3, note=49, velocity=0, time=240),
    Message('note_on', channel=3, note=56, velocity=0, time=0),
    Message('note_on', channel=3, note=61, velocity=0, time=0),
    Message('note_on', channel=3, note=62, velocity=100, time=0),
    Message('note_on', channel=3, note=57, velocity=100, time=0),
    Message('note_on', channel=3, note=50, velocity=100, time=0),
    Message('note_on', channel=3, note=50, velocity=0, time=240),
    Message('note_on', channel=3, note=57, velocity=0, time=0),
    Message('note_on', channel=3, note=62, velocity=0, time=0),
    Message('note_on', channel=3, note=61, velocity=100, time=0),
    Message('note_on', channel=3, note=56, velocity=100, time=0),
    Message('note_on', channel=3, note=49, velocity=100, time=0),
    Message('note_on', channel=3, note=49, velocity=0, time=240),
    Message('note_on', channel=3, note=56, velocity=0, time=0),
    Message('note_on', channel=3, note=61, velocity=0, time=0),
    Message('note_on', channel=3, note=59, velocity=100, time=0),
    Message('note_on', channel=3, note=54, velocity=100, time=0),
    Message('note_on', channel=3, note=47, velocity=100, time=0),
    Message('note_on', channel=3, note=47, velocity=0, time=120),
    Message('note_on', channel=3, note=54, velocity=0, time=0),
    Message('note_on', channel=3, note=59, velocity=0, time=0),
    Message('note_on', channel=3, note=59, velocity=100, time=0),
    Message('note_on', channel=3, note=54, velocity=100, time=0),
    Message('note_on', channel=3, note=47, velocity=100, time=0),
    Message('note_on', channel=3, note=47, velocity=0, time=120),
    Message('note_on', channel=3, note=54, velocity=0, time=0),
    Message('note_on', channel=3, note=59, velocity=0, time=0),
    Message('note_on', channel=3, note=61, velocity=100, time=0),
    Message('note_on', channel=3, note=56, velocity=100, time=0),
    Message('note_on', channel=3, note=49, velocity=100, time=0),
    Message('note_on', channel=3, note=49, velocity=0, time=120),
    Message('note_on', channel=3, note=56, velocity=0, time=0),
    Message('note_on', channel=3, note=61, velocity=0, time=0),
    Message('note_on', channel=3, note=61, velocity=100, time=0),
    Message('note_on', channel=3, note=56, velocity=100, time=0),
    Message('note_on', channel=3, note=49, velocity=100, time=0),
    Message('note_on', channel=3, note=49, velocity=0, time=120),
    Message('note_on', channel=3, note=56, velocity=0, time=0),
    Message('note_on', channel=3, note=61, velocity=0, time=0),
    Message('note_on', channel=3, note=37, velocity=100, time=0),
    Message('note_on', channel=3, note=44, velocity=100, time=0),
    Message('note_on', channel=3, note=44, velocity=0, time=60),
    Message('note_on', channel=3, note=37, velocity=0, time=0),
    Message('note_on', channel=3, note=37, velocity=100, time=60),
    Message('note_on', channel=3, note=44, velocity=100, time=0),
    Message('note_on', channel=3, note=44, velocity=0, time=60),
    Message('note_on', channel=3, note=37, velocity=0, time=0),
    Message('note_on', channel=3, note=37, velocity=100, time=60),
    Message('note_on', channel=3, note=44, velocity=100, time=0),
    Message('note_on', channel=3, note=44, velocity=0, time=60),
    Message('note_on', channel=3, note=37, velocity=0, time=0),
    Message('note_on', channel=3, note=37, velocity=100, time=60),
    Message('note_on', channel=3, note=44, velocity=100, time=0),
    Message('note_on', channel=3, note=44, velocity=0, time=60),
    Message('note_on', channel=3, note=37, velocity=0, time=0),
    Message('note_on', channel=3, note=37, velocity=100, time=60),
    Message('note_on', channel=3, note=44, velocity=100, time=0),
    Message('note_on', channel=3, note=44, velocity=0, time=60),
    Message('note_on', channel=3, note=37, velocity=0, time=0),
    Message('note_on', channel=3, note=59, velocity=100, time=60),
    Message('note_on', channel=3, note=54, velocity=100, time=0),
    Message('note_on', channel=3, note=47, velocity=100, time=0),
    Message('note_on', channel=3, note=47, velocity=0, time=120),
    Message('note_on', channel=3, note=54, velocity=0, time=0),
    Message('note_on', channel=3, note=59, velocity=0, time=0),
    Message('note_on', channel=3, note=61, velocity=100, time=0),
    Message('note_on', channel=3, note=56, velocity=100, time=0),
    Message('note_on', channel=3, note=49, velocity=100, time=0),
    Message('note_on', channel=3, note=49, velocity=0, time=240),
    Message('note_on', channel=3, note=56, velocity=0, time=0),
    Message('note_on', channel=3, note=61, velocity=0, time=0),
    Message('note_on', channel=3, note=62, velocity=100, time=0),
    Message('note_on', channel=3, note=57, velocity=100, time=0),
    Message('note_on', channel=3, note=50, velocity=100, time=0),
    Message('note_on', channel=3, note=50, velocity=0, time=240),
    Message('note_on', channel=3, note=57, velocity=0, time=0),
    Message('note_on', channel=3, note=62, velocity=0, time=0),
    Message('note_on', channel=3, note=61, velocity=100, time=0),
    Message('note_on', channel=3, note=56, velocity=100, time=0),
    Message('note_on', channel=3, note=49, velocity=100, time=0),
    Message('note_on', channel=3, note=49, velocity=0, time=240),
    Message('note_on', channel=3, note=56, velocity=0, time=0),
    Message('note_on', channel=3, note=61, velocity=0, time=0),
    Message('note_on', channel=3, note=59, velocity=100, time=0),
    Message('note_on', channel=3, note=54, velocity=100, time=0),
    Message('note_on', channel=3, note=47, velocity=100, time=0),
    Message('note_on', channel=3, note=47, velocity=0, time=120),
    Message('note_on', channel=3, note=54, velocity=0, time=0),
    Message('note_on', channel=3, note=59, velocity=0, time=0),
    Message('note_on', channel=3, note=59, velocity=100, time=0),
    Message('note_on', channel=3, note=54, velocity=100, time=0),
    Message('note_on', channel=3, note=47, velocity=100, time=0),
    Message('note_on', channel=3, note=47, velocity=0, time=120),
    Message('note_on', channel=3, note=54, velocity=0, time=0),
    Message('note_on', channel=3, note=59, velocity=0, time=0),
    Message('note_on', channel=3, note=61, velocity=100, time=0),
    Message('note_on', channel=3, note=56, velocity=100, time=0),
    Message('note_on', channel=3, note=49, velocity=100, time=0),
    Message('note_on', channel=3, note=49, velocity=0, time=120),
    Message('note_on', channel=3, note=56, velocity=0, time=0),
    Message('note_on', channel=3, note=61, velocity=0, time=0),
    Message('note_on', channel=3, note=61, velocity=100, time=0),
    Message('note_on', channel=3, note=56, velocity=100, time=0),
    Message('note_on', channel=3, note=49, velocity=100, time=0),
    Message('note_on', channel=3, note=49, velocity=0, time=120),
    Message('note_on', channel=3, note=56, velocity=0, time=0),
    Message('note_on', channel=3, note=61, velocity=0, time=0),
    Message('note_on', channel=3, note=37, velocity=100, time=0),
    Message('note_on', channel=3, note=44, velocity=100, time=0),
    Message('note_on', channel=3, note=44, velocity=0, time=60),
    Message('note_on', channel=3, note=37, velocity=0, time=0),
    Message('note_on', channel=3, note=37, velocity=100, time=60),
    Message('note_on', channel=3, note=44, velocity=100, time=0),
    Message('note_on', channel=3, note=44, velocity=0, time=60),
    Message('note_on', channel=3, note=37, velocity=0, time=0),
    Message('note_on', channel=3, note=37, velocity=100, time=60),
    Message('note_on', channel=3, note=44, velocity=100, time=0),
    Message('note_on', channel=3, note=44, velocity=0, time=60),
    Message('note_on', channel=3, note=37, velocity=0, time=0),
    Message('note_on', channel=3, note=37, velocity=100, time=60),
    Message('note_on', channel=3, note=44, velocity=100, time=0),
    Message('note_on', channel=3, note=44, velocity=0, time=60),
    Message('note_on', channel=3, note=37, velocity=0, time=0),
    Message('note_on', channel=3, note=37, velocity=100, time=60),
    Message('note_on', channel=3, note=44, velocity=100, time=0),
    Message('note_on', channel=3, note=44, velocity=0, time=60),
    Message('note_on', channel=3, note=37, velocity=0, time=0),
    Message('note_on', channel=3, note=59, velocity=100, time=60),
    Message('note_on', channel=3, note=54, velocity=100, time=0),
    Message('note_on', channel=3, note=47, velocity=100, time=0),
    Message('note_on', channel=3, note=47, velocity=0, time=120),
    Message('note_on', channel=3, note=54, velocity=0, time=0),
    Message('note_on', channel=3, note=59, velocity=0, time=0),
    Message('note_on', channel=3, note=61, velocity=100, time=0),
    Message('note_on', channel=3, note=56, velocity=100, time=0),
    Message('note_on', channel=3, note=49, velocity=100, time=0),
    Message('note_on', channel=3, note=49, velocity=0, time=240),
    Message('note_on', channel=3, note=56, velocity=0, time=0),
    Message('note_on', channel=3, note=61, velocity=0, time=0),
    Message('note_on', channel=3, note=62, velocity=100, time=0),
    Message('note_on', channel=3, note=57, velocity=100, time=0),
    Message('note_on', channel=3, note=50, velocity=100, time=0),
    Message('note_on', channel=3, note=50, velocity=0, time=240),
    Message('note_on', channel=3, note=57, velocity=0, time=0),
    Message('note_on', channel=3, note=62, velocity=0, time=0),
    Message('note_on', channel=3, note=61, velocity=100, time=0),
    Message('note_on', channel=3, note=56, velocity=100, time=0),
    Message('note_on', channel=3, note=49, velocity=100, time=0),
    Message('note_on', channel=3, note=49, velocity=0, time=240),
    Message('note_on', channel=3, note=56, velocity=0, time=0),
    Message('note_on', channel=3, note=61, velocity=0, time=0),
    Message('note_on', channel=3, note=59, velocity=100, time=0),
    Message('note_on', channel=3, note=54, velocity=100, time=0),
    Message('note_on', channel=3, note=47, velocity=100, time=0),
    Message('note_on', channel=3, note=47, velocity=0, time=120),
    Message('note_on', channel=3, note=54, velocity=0, time=0),
    Message('note_on', channel=3, note=59, velocity=0, time=0),
    Message('note_on', channel=3, note=59, velocity=100, time=0),
    Message('note_on', channel=3, note=54, velocity=100, time=0),
    Message('note_on', channel=3, note=47, velocity=100, time=0),
    Message('note_on', channel=3, note=47, velocity=0, time=120),
    Message('note_on', channel=3, note=54, velocity=0, time=0),
    Message('note_on', channel=3, note=59, velocity=0, time=0),
    Message('note_on', channel=3, note=61, velocity=100, time=0),
    Message('note_on', channel=3, note=56, velocity=100, time=0),
    Message('note_on', channel=3, note=49, velocity=100, time=0),
    Message('note_on', channel=3, note=49, velocity=0, time=120),
    Message('note_on', channel=3, note=56, velocity=0, time=0),
    Message('note_on', channel=3, note=61, velocity=0, time=0),
    Message('note_on', channel=3, note=61, velocity=100, time=0),
    Message('note_on', channel=3, note=56, velocity=100, time=0),
    Message('note_on', channel=3, note=49, velocity=100, time=0),
    Message('note_on', channel=3, note=49, velocity=0, time=120),
    Message('note_on', channel=3, note=56, velocity=0, time=0),
    Message('note_on', channel=3, note=61, velocity=0, time=0),
    Message('note_on', channel=3, note=37, velocity=100, time=0),
    Message('note_on', channel=3, note=44, velocity=100, time=0),
    Message('note_on', channel=3, note=44, velocity=0, time=60),
    Message('note_on', channel=3, note=37, velocity=0, time=0),
    Message('note_on', channel=3, note=37, velocity=100, time=60),
    Message('note_on', channel=3, note=44, velocity=100, time=0),
    Message('note_on', channel=3, note=44, velocity=0, time=60),
    Message('note_on', channel=3, note=37, velocity=0, time=0),
    Message('note_on', channel=3, note=37, velocity=100, time=60),
    Message('note_on', channel=3, note=44, velocity=100, time=0),
    Message('note_on', channel=3, note=44, velocity=0, time=60),
    Message('note_on', channel=3, note=37, velocity=0, time=0),
    Message('note_on', channel=3, note=37, velocity=100, time=60),
    Message('note_on', channel=3, note=44, velocity=100, time=0),
    Message('note_on', channel=3, note=44, velocity=0, time=60),
    Message('note_on', channel=3, note=37, velocity=0, time=0),
    Message('note_on', channel=3, note=37, velocity=100, time=60),
    Message('note_on', channel=3, note=44, velocity=100, time=0),
    Message('note_on', channel=3, note=44, velocity=0, time=60),
    Message('note_on', channel=3, note=37, velocity=0, time=0),
    Message('note_on', channel=3, note=59, velocity=100, time=60),
    Message('note_on', channel=3, note=54, velocity=100, time=0),
    Message('note_on', channel=3, note=47, velocity=100, time=0),
    Message('note_on', channel=3, note=47, velocity=0, time=120),
    Message('note_on', channel=3, note=54, velocity=0, time=0),
    Message('note_on', channel=3, note=59, velocity=0, time=0),
    Message('note_on', channel=3, note=61, velocity=100, time=0),
    Message('note_on', channel=3, note=56, velocity=100, time=0),
    Message('note_on', channel=3, note=49, velocity=100, time=0),
    Message('note_on', channel=3, note=49, velocity=0, time=240),
    Message('note_on', channel=3, note=56, velocity=0, time=0),
    Message('note_on', channel=3, note=61, velocity=0, time=0),
    Message('note_on', channel=3, note=62, velocity=100, time=0),
    Message('note_on', channel=3, note=57, velocity=100, time=0),
    Message('note_on', channel=3, note=50, velocity=100, time=0),
    Message('note_on', channel=3, note=50, velocity=0, time=240),
    Message('note_on', channel=3, note=57, velocity=0, time=0),
    Message('note_on', channel=3, note=62, velocity=0, time=0),
    Message('note_on', channel=3, note=61, velocity=100, time=0),
    Message('note_on', channel=3, note=56, velocity=100, time=0),
    Message('note_on', channel=3, note=49, velocity=100, time=0),
    Message('note_on', channel=3, note=49, velocity=0, time=240),
    Message('note_on', channel=3, note=56, velocity=0, time=0),
    Message('note_on', channel=3, note=61, velocity=0, time=0),
    Message('note_on', channel=3, note=59, velocity=100, time=0),
    Message('note_on', channel=3, note=54, velocity=100, time=0),
    Message('note_on', channel=3, note=47, velocity=100, time=0),
    Message('note_on', channel=3, note=47, velocity=0, time=120),
    Message('note_on', channel=3, note=54, velocity=0, time=0),
    Message('note_on', channel=3, note=59, velocity=0, time=0),
    Message('note_on', channel=3, note=59, velocity=100, time=0),
    Message('note_on', channel=3, note=54, velocity=100, time=0),
    Message('note_on', channel=3, note=47, velocity=100, time=0),
    Message('note_on', channel=3, note=47, velocity=0, time=120),
    Message('note_on', channel=3, note=54, velocity=0, time=0),
    Message('note_on', channel=3, note=59, velocity=0, time=0),
    Message('note_on', channel=3, note=61, velocity=100, time=0),
    Message('note_on', channel=3, note=56, velocity=100, time=0),
    Message('note_on', channel=3, note=49, velocity=100, time=0),
    Message('note_on', channel=3, note=49, velocity=0, time=120),
    Message('note_on', channel=3, note=56, velocity=0, time=0),
    Message('note_on', channel=3, note=61, velocity=0, time=0),
    Message('note_on', channel=3, note=61, velocity=100, time=0),
    Message('note_on', channel=3, note=56, velocity=100, time=0),
    Message('note_on', channel=3, note=49, velocity=100, time=0),
    Message('note_on', channel=3, note=49, velocity=0, time=120),
    Message('note_on', channel=3, note=56, velocity=0, time=0),
    Message('note_on', channel=3, note=61, velocity=0, time=0),
    Message('note_on', channel=3, note=37, velocity=100, time=0),
    Message('note_on', channel=3, note=44, velocity=100, time=0),
    Message('note_on', channel=3, note=44, velocity=0, time=60),
    Message('note_on', channel=3, note=37, velocity=0, time=0),
    Message('note_on', channel=3, note=37, velocity=100, time=60),
    Message('note_on', channel=3, note=44, velocity=100, time=0),
    Message('note_on', channel=3, note=44, velocity=0, time=60),
    Message('note_on', channel=3, note=37, velocity=0, time=0),
    Message('note_on', channel=3, note=37, velocity=100, time=60),
    Message('note_on', channel=3, note=44, velocity=100, time=0),
    Message('note_on', channel=3, note=44, velocity=0, time=60),
    Message('note_on', channel=3, note=37, velocity=0, time=0),
    Message('note_on', channel=3, note=37, velocity=100, time=60),
    Message('note_on', channel=3, note=44, velocity=100, time=0),
    Message('note_on', channel=3, note=44, velocity=0, time=60),
    Message('note_on', channel=3, note=37, velocity=0, time=0),
    Message('note_on', channel=3, note=37, velocity=100, time=60),
    Message('note_on', channel=3, note=44, velocity=100, time=0),
    Message('note_on', channel=3, note=44, velocity=0, time=60),
    Message('note_on', channel=3, note=37, velocity=0, time=0),
    Message('note_on', channel=3, note=59, velocity=100, time=60),
    Message('note_on', channel=3, note=54, velocity=100, time=0),
    Message('note_on', channel=3, note=47, velocity=100, time=0),
    Message('note_on', channel=3, note=47, velocity=0, time=120),
    Message('note_on', channel=3, note=54, velocity=0, time=0),
    Message('note_on', channel=3, note=59, velocity=0, time=0),
    Message('note_on', channel=3, note=61, velocity=100, time=0),
    Message('note_on', channel=3, note=56, velocity=100, time=0),
    Message('note_on', channel=3, note=49, velocity=100, time=0),
    Message('note_on', channel=3, note=49, velocity=0, time=240),
    Message('note_on', channel=3, note=56, velocity=0, time=0),
    Message('note_on', channel=3, note=61, velocity=0, time=0),
    Message('note_on', channel=3, note=62, velocity=100, time=0),
    Message('note_on', channel=3, note=57, velocity=100, time=0),
    Message('note_on', channel=3, note=50, velocity=100, time=0),
    Message('note_on', channel=3, note=50, velocity=0, time=240),
    Message('note_on', channel=3, note=57, velocity=0, time=0),
    Message('note_on', channel=3, note=62, velocity=0, time=0),
    Message('note_on', channel=3, note=61, velocity=100, time=0),
    Message('note_on', channel=3, note=56, velocity=100, time=0),
    Message('note_on', channel=3, note=49, velocity=100, time=0),
    Message('note_on', channel=3, note=49, velocity=0, time=240),
    Message('note_on', channel=3, note=56, velocity=0, time=0),
    Message('note_on', channel=3, note=61, velocity=0, time=0),
    Message('note_on', channel=3, note=59, velocity=100, time=0),
    Message('note_on', channel=3, note=54, velocity=100, time=0),
    Message('note_on', channel=3, note=47, velocity=100, time=0),
    Message('note_on', channel=3, note=47, velocity=0, time=120),
    Message('note_on', channel=3, note=54, velocity=0, time=0),
    Message('note_on', channel=3, note=59, velocity=0, time=0),
    Message('note_on', channel=3, note=59, velocity=100, time=0),
    Message('note_on', channel=3, note=54, velocity=100, time=0),
    Message('note_on', channel=3, note=47, velocity=100, time=0),
    Message('note_on', channel=3, note=47, velocity=0, time=120),
    Message('note_on', channel=3, note=54, velocity=0, time=0),
    Message('note_on', channel=3, note=59, velocity=0, time=0),
    Message('note_on', channel=3, note=61, velocity=100, time=0),
    Message('note_on', channel=3, note=56, velocity=100, time=0),
    Message('note_on', channel=3, note=49, velocity=100, time=0),
    Message('note_on', channel=3, note=49, velocity=0, time=120),
    Message('note_on', channel=3, note=56, velocity=0, time=0),
    Message('note_on', channel=3, note=61, velocity=0, time=0),
    Message('note_on', channel=3, note=61, velocity=100, time=0),
    Message('note_on', channel=3, note=56, velocity=100, time=0),
    Message('note_on', channel=3, note=49, velocity=100, time=0),
    Message('note_on', channel=3, note=49, velocity=0, time=120),
    Message('note_on', channel=3, note=56, velocity=0, time=0),
    Message('note_on', channel=3, note=61, velocity=0, time=0),
    Message('note_on', channel=3, note=37, velocity=100, time=0),
    Message('note_on', channel=3, note=44, velocity=100, time=0),
    Message('note_on', channel=3, note=44, velocity=0, time=60),
    Message('note_on', channel=3, note=37, velocity=0, time=0),
    Message('note_on', channel=3, note=37, velocity=100, time=60),
    Message('note_on', channel=3, note=44, velocity=100, time=0),
    Message('note_on', channel=3, note=44, velocity=0, time=60),
    Message('note_on', channel=3, note=37, velocity=0, time=0),
    Message('note_on', channel=3, note=37, velocity=100, time=60),
    Message('note_on', channel=3, note=44, velocity=100, time=0),
    Message('note_on', channel=3, note=44, velocity=0, time=60),
    Message('note_on', channel=3, note=37, velocity=0, time=0),
    Message('note_on', channel=3, note=37, velocity=100, time=60),
    Message('note_on', channel=3, note=44, velocity=100, time=0),
    Message('note_on', channel=3, note=44, velocity=0, time=60),
    Message('note_on', channel=3, note=37, velocity=0, time=0),
    Message('note_on', channel=3, note=37, velocity=100, time=60),
    Message('note_on', channel=3, note=44, velocity=100, time=0),
    Message('note_on', channel=3, note=44, velocity=0, time=60),
    Message('note_on', channel=3, note=37, velocity=0, time=0),
    Message('note_on', channel=3, note=59, velocity=100, time=60),
    Message('note_on', channel=3, note=54, velocity=100, time=0),
    Message('note_on', channel=3, note=47, velocity=100, time=0),
    Message('note_on', channel=3, note=47, velocity=0, time=120),
    Message('note_on', channel=3, note=54, velocity=0, time=0),
    Message('note_on', channel=3, note=59, velocity=0, time=0),
    Message('note_on', channel=3, note=61, velocity=100, time=0),
    Message('note_on', channel=3, note=56, velocity=100, time=0),
    Message('note_on', channel=3, note=49, velocity=100, time=0),
    Message('note_on', channel=3, note=49, velocity=0, time=240),
    Message('note_on', channel=3, note=56, velocity=0, time=0),
    Message('note_on', channel=3, note=61, velocity=0, time=0),
    Message('note_on', channel=3, note=62, velocity=100, time=0),
    Message('note_on', channel=3, note=57, velocity=100, time=0),
    Message('note_on', channel=3, note=50, velocity=100, time=0),
    Message('note_on', channel=3, note=50, velocity=0, time=240),
    Message('note_on', channel=3, note=57, velocity=0, time=0),
    Message('note_on', channel=3, note=62, velocity=0, time=0),
    Message('note_on', channel=3, note=61, velocity=100, time=0),
    Message('note_on', channel=3, note=56, velocity=100, time=0),
    Message('note_on', channel=3, note=49, velocity=100, time=0),
    Message('note_on', channel=3, note=49, velocity=0, time=240),
    Message('note_on', channel=3, note=56, velocity=0, time=0),
    Message('note_on', channel=3, note=61, velocity=0, time=0),
    Message('note_on', channel=3, note=59, velocity=100, time=0),
    Message('note_on', channel=3, note=54, velocity=100, time=0),
    Message('note_on', channel=3, note=47, velocity=100, time=0),
    Message('note_on', channel=3, note=47, velocity=0, time=120),
    Message('note_on', channel=3, note=54, velocity=0, time=0),
    Message('note_on', channel=3, note=59, velocity=0, time=0),
    Message('note_on', channel=3, note=59, velocity=100, time=0),
    Message('note_on', channel=3, note=54, velocity=100, time=0),
    Message('note_on', channel=3, note=47, velocity=100, time=0),
    Message('note_on', channel=3, note=47, velocity=0, time=120),
    Message('note_on', channel=3, note=54, velocity=0, time=0),
    Message('note_on', channel=3, note=59, velocity=0, time=0),
    Message('note_on', channel=3, note=61, velocity=100, time=0),
    Message('note_on', channel=3, note=56, velocity=100, time=0),
    Message('note_on', channel=3, note=49, velocity=100, time=0),
    Message('note_on', channel=3, note=49, velocity=0, time=120),
    Message('note_on', channel=3, note=56, velocity=0, time=0),
    Message('note_on', channel=3, note=61, velocity=0, time=0),
    Message('note_on', channel=3, note=61, velocity=100, time=0),
    Message('note_on', channel=3, note=56, velocity=100, time=0),
    Message('note_on', channel=3, note=49, velocity=100, time=0),
    Message('note_on', channel=3, note=49, velocity=0, time=120),
    Message('note_on', channel=3, note=56, velocity=0, time=0),
    Message('note_on', channel=3, note=61, velocity=0, time=0),
    Message('note_on', channel=3, note=37, velocity=100, time=0),
    Message('note_on', channel=3, note=44, velocity=100, time=0),
    Message('note_on', channel=3, note=44, velocity=0, time=60),
    Message('note_on', channel=3, note=37, velocity=0, time=0),
    Message('note_on', channel=3, note=37, velocity=100, time=60),
    Message('note_on', channel=3, note=44, velocity=100, time=0),
    Message('note_on', channel=3, note=44, velocity=0, time=60),
    Message('note_on', channel=3, note=37, velocity=0, time=0),
    Message('note_on', channel=3, note=37, velocity=100, time=60),
    Message('note_on', channel=3, note=44, velocity=100, time=0),
    Message('note_on', channel=3, note=44, velocity=0, time=60),
    Message('note_on', channel=3, note=37, velocity=0, time=0),
    Message('note_on', channel=3, note=37, velocity=100, time=60),
    Message('note_on', channel=3, note=44, velocity=100, time=0),
    Message('note_on', channel=3, note=44, velocity=0, time=60),
    Message('note_on', channel=3, note=37, velocity=0, time=0),
    Message('note_on', channel=3, note=37, velocity=100, time=60),
    Message('note_on', channel=3, note=44, velocity=100, time=0),
    Message('note_on', channel=3, note=44, velocity=0, time=60),
    Message('note_on', channel=3, note=37, velocity=0, time=0),
    Message('note_on', channel=3, note=59, velocity=100, time=60),
    Message('note_on', channel=3, note=54, velocity=100, time=0),
    Message('note_on', channel=3, note=47, velocity=100, time=0),
    Message('note_on', channel=3, note=47, velocity=0, time=120),
    Message('note_on', channel=3, note=54, velocity=0, time=0),
    Message('note_on', channel=3, note=59, velocity=0, time=0),
    Message('note_on', channel=3, note=61, velocity=100, time=0),
    Message('note_on', channel=3, note=56, velocity=100, time=0),
    Message('note_on', channel=3, note=49, velocity=100, time=0),
    Message('note_on', channel=3, note=49, velocity=0, time=240),
    Message('note_on', channel=3, note=56, velocity=0, time=0),
    Message('note_on', channel=3, note=61, velocity=0, time=0),
    Message('note_on', channel=3, note=62, velocity=100, time=0),
    Message('note_on', channel=3, note=57, velocity=100, time=0),
    Message('note_on', channel=3, note=50, velocity=100, time=0),
    Message('note_on', channel=3, note=50, velocity=0, time=240),
    Message('note_on', channel=3, note=57, velocity=0, time=0),
    Message('note_on', channel=3, note=62, velocity=0, time=0),
    Message('note_on', channel=3, note=61, velocity=100, time=0),
    Message('note_on', channel=3, note=56, velocity=100, time=0),
    Message('note_on', channel=3, note=49, velocity=100, time=0),
    Message('note_on', channel=3, note=49, velocity=0, time=240),
    Message('note_on', channel=3, note=56, velocity=0, time=0),
    Message('note_on', channel=3, note=61, velocity=0, time=0),
    Message('note_on', channel=3, note=59, velocity=100, time=0),
    Message('note_on', channel=3, note=54, velocity=100, time=0),
    Message('note_on', channel=3, note=47, velocity=100, time=0),
    Message('note_on', channel=3, note=47, velocity=0, time=120),
    Message('note_on', channel=3, note=54, velocity=0, time=0),
    Message('note_on', channel=3, note=59, velocity=0, time=0),
    Message('note_on', channel=3, note=59, velocity=100, time=0),
    Message('note_on', channel=3, note=54, velocity=100, time=0),
    Message('note_on', channel=3, note=47, velocity=100, time=0),
    Message('note_on', channel=3, note=47, velocity=0, time=120),
    Message('note_on', channel=3, note=54, velocity=0, time=0),
    Message('note_on', channel=3, note=59, velocity=0, time=0),
    Message('note_on', channel=3, note=61, velocity=100, time=0),
    Message('note_on', channel=3, note=56, velocity=100, time=0),
    Message('note_on', channel=3, note=49, velocity=100, time=0),
    Message('note_on', channel=3, note=49, velocity=0, time=120),
    Message('note_on', channel=3, note=56, velocity=0, time=0),
    Message('note_on', channel=3, note=61, velocity=0, time=0),
    Message('note_on', channel=3, note=61, velocity=100, time=0),
    Message('note_on', channel=3, note=56, velocity=100, time=0),
    Message('note_on', channel=3, note=49, velocity=100, time=0),
    Message('note_on', channel=3, note=49, velocity=0, time=120),
    Message('note_on', channel=3, note=56, velocity=0, time=0),
    Message('note_on', channel=3, note=61, velocity=0, time=0),
    Message('note_on', channel=3, note=37, velocity=100, time=0),
    Message('note_on', channel=3, note=44, velocity=100, time=0),
    Message('note_on', channel=3, note=44, velocity=0, time=60),
    Message('note_on', channel=3, note=37, velocity=0, time=0),
    Message('note_on', channel=3, note=37, velocity=100, time=60),
    Message('note_on', channel=3, note=44, velocity=100, time=0),
    Message('note_on', channel=3, note=44, velocity=0, time=60),
    Message('note_on', channel=3, note=37, velocity=0, time=0),
    Message('note_on', channel=3, note=37, velocity=100, time=60),
    Message('note_on', channel=3, note=44, velocity=100, time=0),
    Message('note_on', channel=3, note=44, velocity=0, time=60),
    Message('note_on', channel=3, note=37, velocity=0, time=0),
    Message('note_on', channel=3, note=37, velocity=100, time=60),
    Message('note_on', channel=3, note=44, velocity=100, time=0),
    Message('note_on', channel=3, note=44, velocity=0, time=60),
    Message('note_on', channel=3, note=37, velocity=0, time=0),
    Message('note_on', channel=3, note=37, velocity=100, time=60),
    Message('note_on', channel=3, note=44, velocity=100, time=0),
    Message('note_on', channel=3, note=44, velocity=0, time=60),
    Message('note_on', channel=3, note=37, velocity=0, time=0),
    Message('note_on', channel=3, note=59, velocity=100, time=60),
    Message('note_on', channel=3, note=54, velocity=100, time=0),
    Message('note_on', channel=3, note=47, velocity=100, time=0),
    Message('note_on', channel=3, note=47, velocity=0, time=120),
    Message('note_on', channel=3, note=54, velocity=0, time=0),
    Message('note_on', channel=3, note=59, velocity=0, time=0),
    Message('note_on', channel=3, note=61, velocity=100, time=0),
    Message('note_on', channel=3, note=56, velocity=100, time=0),
    Message('note_on', channel=3, note=49, velocity=100, time=0),
    Message('note_on', channel=3, note=49, velocity=0, time=240),
    Message('note_on', channel=3, note=56, velocity=0, time=0),
    Message('note_on', channel=3, note=61, velocity=0, time=0),
    Message('note_on', channel=3, note=62, velocity=100, time=0),
    Message('note_on', channel=3, note=57, velocity=100, time=0),
    Message('note_on', channel=3, note=50, velocity=100, time=0),
    Message('note_on', channel=3, note=50, velocity=0, time=240),
    Message('note_on', channel=3, note=57, velocity=0, time=0),
    Message('note_on', channel=3, note=62, velocity=0, time=0),
    Message('note_on', channel=3, note=61, velocity=100, time=0),
    Message('note_on', channel=3, note=56, velocity=100, time=0),
    Message('note_on', channel=3, note=49, velocity=100, time=0),
    Message('note_on', channel=3, note=49, velocity=0, time=240),
    Message('note_on', channel=3, note=56, velocity=0, time=0),
    Message('note_on', channel=3, note=61, velocity=0, time=0),
    Message('note_on', channel=3, note=59, velocity=100, time=0),
    Message('note_on', channel=3, note=54, velocity=100, time=0),
    Message('note_on', channel=3, note=47, velocity=100, time=0),
    Message('note_on', channel=3, note=47, velocity=0, time=120),
    Message('note_on', channel=3, note=54, velocity=0, time=0),
    Message('note_on', channel=3, note=59, velocity=0, time=0),
    Message('note_on', channel=3, note=68, velocity=100, time=0),
    Message('note_on', channel=3, note=61, velocity=100, time=0),
    Message('note_on', channel=3, note=73, velocity=100, time=0),
    Message('note_on', channel=3, note=73, velocity=0, time=120),
    Message('note_on', channel=3, note=61, velocity=0, time=0),
    Message('note_on', channel=3, note=68, velocity=0, time=0),
    Message('note_on', channel=3, note=66, velocity=100, time=0),
    Message('note_on', channel=3, note=59, velocity=100, time=0),
    Message('note_on', channel=3, note=71, velocity=100, time=0),
    Message('note_on', channel=3, note=71, velocity=0, time=120),
    Message('note_on', channel=3, note=59, velocity=0, time=0),
    Message('note_on', channel=3, note=66, velocity=0, time=0),
    Message('note_on', channel=3, note=63, velocity=100, time=120),
    Message('note_on', channel=3, note=56, velocity=100, time=0),
    Message('note_on', channel=3, note=68, velocity=100, time=0),
    Message('note_on', channel=3, note=68, velocity=0, time=120),
    Message('note_on', channel=3, note=56, velocity=0, time=0),
    Message('note_on', channel=3, note=63, velocity=0, time=0),
    Message('note_on', channel=3, note=61, velocity=100, time=120),
    Message('note_on', channel=3, note=54, velocity=100, time=0),
    Message('note_on', channel=3, note=66, velocity=100, time=0),
    Message('note_on', channel=3, note=66, velocity=0, time=120),
    Message('note_on', channel=3, note=54, velocity=0, time=0),
    Message('note_on', channel=3, note=61, velocity=0, time=0),
    Message('note_on', channel=3, note=59, velocity=100, time=120),
    Message('note_on', channel=3, note=52, velocity=100, time=0),
    Message('note_on', channel=3, note=64, velocity=100, time=0),
    Message('note_on', channel=3, note=64, velocity=0, time=120),
    Message('note_on', channel=3, note=52, velocity=0, time=0),
    Message('note_on', channel=3, note=59, velocity=0, time=0),
    Message('note_on', channel=3, note=56, velocity=100, time=116),
    Message('note_on', channel=3, note=49, velocity=100, time=0),
    Message('note_on', channel=3, note=61, velocity=100, time=0),
    Message('note_on', channel=3, note=61, velocity=0, time=120),
    Message('note_on', channel=3, note=49, velocity=0, time=0),
    Message('note_on', channel=3, note=56, velocity=0, time=0),
    Message('note_on', channel=3, note=54, velocity=100, time=124),
    Message('note_on', channel=3, note=47, velocity=100, time=0),
    Message('note_on', channel=3, note=59, velocity=100, time=0),
    Message('note_on', channel=3, note=59, velocity=0, time=120),
    Message('note_on', channel=3, note=47, velocity=0, time=0),
    Message('note_on', channel=3, note=54, velocity=0, time=0),
    Message('note_on', channel=3, note=54, velocity=100, time=0),
    Message('note_on', channel=3, note=47, velocity=100, time=0),
    Message('note_on', channel=3, note=59, velocity=100, time=0),
    Message('note_on', channel=3, note=59, velocity=0, time=120),
    Message('note_on', channel=3, note=47, velocity=0, time=0),
    Message('note_on', channel=3, note=54, velocity=0, time=0),
    Message('note_on', channel=3, note=56, velocity=100, time=0),
    Message('note_on', channel=3, note=49, velocity=100, time=0),
    Message('note_on', channel=3, note=61, velocity=100, time=0),
    Message('note_on', channel=3, note=61, velocity=0, time=120),
    Message('note_on', channel=3, note=49, velocity=0, time=0),
    Message('note_on', channel=3, note=56, velocity=0, time=0),
    Message('note_on', channel=3, note=56, velocity=100, time=0),
    Message('note_on', channel=3, note=49, velocity=100, time=0),
    Message('note_on', channel=3, note=61, velocity=100, time=0),
    Message('note_on', channel=3, note=61, velocity=0, time=120),
    Message('note_on', channel=3, note=49, velocity=0, time=0),
    Message('note_on', channel=3, note=56, velocity=0, time=0),
    Message('note_on', channel=3, note=68, velocity=100, time=120),
    Message('note_on', channel=3, note=61, velocity=100, time=0),
    Message('note_on', channel=3, note=73, velocity=100, time=0),
    Message('note_on', channel=3, note=73, velocity=0, time=120),
    Message('note_on', channel=3, note=61, velocity=0, time=0),
    Message('note_on', channel=3, note=68, velocity=0, time=0),
    Message('note_on', channel=3, note=66, velocity=100, time=0),
    Message('note_on', channel=3, note=59, velocity=100, time=0),
    Message('note_on', channel=3, note=71, velocity=100, time=0),
    Message('note_on', channel=3, note=71, velocity=0, time=120),
    Message('note_on', channel=3, note=59, velocity=0, time=0),
    Message('note_on', channel=3, note=66, velocity=0, time=0),
    Message('note_on', channel=3, note=63, velocity=100, time=120),
    Message('note_on', channel=3, note=56, velocity=100, time=0),
    Message('note_on', channel=3, note=68, velocity=100, time=0),
    Message('note_on', channel=3, note=68, velocity=0, time=120),
    Message('note_on', channel=3, note=56, velocity=0, time=0),
    Message('note_on', channel=3, note=63, velocity=0, time=0),
    Message('note_on', channel=3, note=61, velocity=100, time=120),
    Message('note_on', channel=3, note=54, velocity=100, time=0),
    Message('note_on', channel=3, note=66, velocity=100, time=0),
    Message('note_on', channel=3, note=66, velocity=0, time=120),
    Message('note_on', channel=3, note=54, velocity=0, time=0),
    Message('note_on', channel=3, note=61, velocity=0, time=0),
    Message('note_on', channel=3, note=59, velocity=100, time=120),
    Message('note_on', channel=3, note=52, velocity=100, time=0),
    Message('note_on', channel=3, note=64, velocity=100, time=0),
    Message('note_on', channel=3, note=64, velocity=0, time=120),
    Message('note_on', channel=3, note=52, velocity=0, time=0),
    Message('note_on', channel=3, note=59, velocity=0, time=0),
    Message('note_on', channel=3, note=56, velocity=100, time=116),
    Message('note_on', channel=3, note=49, velocity=100, time=0),
    Message('note_on', channel=3, note=61, velocity=100, time=0),
    Message('note_on', channel=3, note=61, velocity=0, time=120),
    Message('note_on', channel=3, note=49, velocity=0, time=0),
    Message('note_on', channel=3, note=56, velocity=0, time=0),
    Message('note_on', channel=3, note=54, velocity=100, time=124),
    Message('note_on', channel=3, note=47, velocity=100, time=0),
    Message('note_on', channel=3, note=59, velocity=100, time=0),
    Message('note_on', channel=3, note=59, velocity=0, time=120),
    Message('note_on', channel=3, note=47, velocity=0, time=0),
    Message('note_on', channel=3, note=54, velocity=0, time=0),
    Message('note_on', channel=3, note=54, velocity=100, time=0),
    Message('note_on', channel=3, note=47, velocity=100, time=0),
    Message('note_on', channel=3, note=59, velocity=100, time=0),
    Message('note_on', channel=3, note=59, velocity=0, time=120),
    Message('note_on', channel=3, note=47, velocity=0, time=0),
    Message('note_on', channel=3, note=54, velocity=0, time=0),
    Message('note_on', channel=3, note=56, velocity=100, time=0),
    Message('note_on', channel=3, note=49, velocity=100, time=0),
    Message('note_on', channel=3, note=61, velocity=100, time=0),
    Message('note_on', channel=3, note=61, velocity=0, time=120),
    Message('note_on', channel=3, note=49, velocity=0, time=0),
    Message('note_on', channel=3, note=56, velocity=0, time=0),
    Message('note_on', channel=3, note=56, velocity=100, time=0),
    Message('note_on', channel=3, note=49, velocity=100, time=0),
    Message('note_on', channel=3, note=61, velocity=100, time=0),
    Message('note_on', channel=3, note=61, velocity=0, time=120),
    Message('note_on', channel=3, note=49, velocity=0, time=0),
    Message('note_on', channel=3, note=56, velocity=0, time=0),
    Message('note_on', channel=3, note=54, velocity=100, time=120),
    Message('note_on', channel=3, note=59, velocity=100, time=0),
    Message('note_on', channel=3, note=47, velocity=100, time=0),
    Message('note_on', channel=3, note=47, velocity=0, time=240),
    Message('note_on', channel=3, note=59, velocity=0, time=0),
    Message('note_on', channel=3, note=54, velocity=0, time=0),
    Message('note_on', channel=3, note=54, velocity=100, time=0),
    Message('note_on', channel=3, note=59, velocity=100, time=0),
    Message('note_on', channel=3, note=47, velocity=100, time=0),
    Message('note_on', channel=3, note=47, velocity=0, time=240),
    Message('note_on', channel=3, note=59, velocity=0, time=0),
    Message('note_on', channel=3, note=54, velocity=0, time=0),
    Message('note_on', channel=3, note=57, velocity=100, time=0),
    Message('note_on', channel=3, note=62, velocity=100, time=0),
    Message('note_on', channel=3, note=50, velocity=100, time=0),
    Message('note_on', channel=3, note=50, velocity=0, time=120),
    Message('note_on', channel=3, note=62, velocity=0, time=0),
    Message('note_on', channel=3, note=57, velocity=0, time=0),
    Message('note_on', channel=3, note=58, velocity=100, time=0),
    Message('note_on', channel=3, note=63, velocity=100, time=0),
    Message('note_on', channel=3, note=51, velocity=100, time=0),
    Message('note_on', channel=3, note=51, velocity=0, time=120),
    Message('note_on', channel=3, note=63, velocity=0, time=0),
    Message('note_on', channel=3, note=58, velocity=0, time=0),
    Message('note_on', channel=3, note=59, velocity=100, time=0),
    Message('note_on', channel=3, note=64, velocity=100, time=0),
    Message('note_on', channel=3, note=52, velocity=100, time=0),
    Message('note_on', channel=3, note=52, velocity=0, time=240),
    Message('note_on', channel=3, note=64, velocity=0, time=0),
    Message('note_on', channel=3, note=59, velocity=0, time=0),
    Message('note_on', channel=3, note=59, velocity=100, time=0),
    Message('note_on', channel=3, note=64, velocity=100, time=0),
    Message('note_on', channel=3, note=52, velocity=100, time=0),
    Message('note_on', channel=3, note=52, velocity=0, time=120),
    Message('note_on', channel=3, note=64, velocity=0, time=0),
    Message('note_on', channel=3, note=59, velocity=0, time=0),
    Message('note_on', channel=3, note=60, velocity=100, time=0),
    Message('note_on', channel=3, note=65, velocity=100, time=0),
    Message('note_on', channel=3, note=53, velocity=100, time=0),
    Message('note_on', channel=3, note=53, velocity=0, time=120),
    Message('note_on', channel=3, note=65, velocity=0, time=0),
    Message('note_on', channel=3, note=60, velocity=0, time=0),
    Message('note_on', channel=3, note=61, velocity=100, time=0),
    Message('note_on', channel=3, note=66, velocity=100, time=0),
    Message('note_on', channel=3, note=54, velocity=100, time=0),
    Message('note_on', channel=3, note=54, velocity=0, time=240),
    Message('note_on', channel=3, note=66, velocity=0, time=0),
    Message('note_on', channel=3, note=61, velocity=0, time=0),
    Message('note_on', channel=3, note=64, velocity=100, time=0),
    Message('note_on', channel=3, note=69, velocity=100, time=0),
    Message('note_on', channel=3, note=57, velocity=100, time=0),
    Message('note_on', channel=3, note=57, velocity=0, time=120),
    Message('note_on', channel=3, note=69, velocity=0, time=0),
    Message('note_on', channel=3, note=64, velocity=0, time=0),
    Message('note_on', channel=3, note=65, velocity=100, time=0),
    Message('note_on', channel=3, note=70, velocity=100, time=0),
    Message('note_on', channel=3, note=58, velocity=100, time=0),
    Message('note_on', channel=3, note=58, velocity=0, time=120),
    Message('note_on', channel=3, note=70, velocity=0, time=0),
    Message('note_on', channel=3, note=65, velocity=0, time=0),
    Message('note_on', channel=3, note=66, velocity=100, time=0),
    Message('note_on', channel=3, note=71, velocity=100, time=0),
    Message('note_on', channel=3, note=59, velocity=100, time=0),
    Message('note_on', channel=3, note=59, velocity=0, time=240),
    Message('note_on', channel=3, note=71, velocity=0, time=0),
    Message('note_on', channel=3, note=66, velocity=0, time=0),
    Message('note_on', channel=3, note=54, velocity=100, time=0),
    Message('note_on', channel=3, note=59, velocity=100, time=0),
    Message('note_on', channel=3, note=47, velocity=100, time=0),
    Message('note_on', channel=3, note=47, velocity=0, time=240),
    Message('note_on', channel=3, note=59, velocity=0, time=0),
    Message('note_on', channel=3, note=54, velocity=0, time=0),
    Message('note_on', channel=3, note=54, velocity=100, time=0),
    Message('note_on', channel=3, note=59, velocity=100, time=0),
    Message('note_on', channel=3, note=47, velocity=100, time=0),
    Message('note_on', channel=3, note=47, velocity=0, time=240),
    Message('note_on', channel=3, note=59, velocity=0, time=0),
    Message('note_on', channel=3, note=54, velocity=0, time=0),
    Message('note_on', channel=3, note=57, velocity=100, time=0),
    Message('note_on', channel=3, note=62, velocity=100, time=0),
    Message('note_on', channel=3, note=50, velocity=100, time=0),
    Message('note_on', channel=3, note=50, velocity=0, time=120),
    Message('note_on', channel=3, note=62, velocity=0, time=0),
    Message('note_on', channel=3, note=57, velocity=0, time=0),
    Message('note_on', channel=3, note=58, velocity=100, time=0),
    Message('note_on', channel=3, note=63, velocity=100, time=0),
    Message('note_on', channel=3, note=51, velocity=100, time=0),
    Message('note_on', channel=3, note=51, velocity=0, time=120),
    Message('note_on', channel=3, note=63, velocity=0, time=0),
    Message('note_on', channel=3, note=58, velocity=0, time=0),
    Message('note_on', channel=3, note=59, velocity=100, time=0),
    Message('note_on', channel=3, note=64, velocity=100, time=0),
    Message('note_on', channel=3, note=52, velocity=100, time=0),
    Message('note_on', channel=3, note=52, velocity=0, time=240),
    Message('note_on', channel=3, note=64, velocity=0, time=0),
    Message('note_on', channel=3, note=59, velocity=0, time=0),
    Message('note_on', channel=3, note=59, velocity=100, time=0),
    Message('note_on', channel=3, note=64, velocity=100, time=0),
    Message('note_on', channel=3, note=52, velocity=100, time=0),
    Message('note_on', channel=3, note=52, velocity=0, time=120),
    Message('note_on', channel=3, note=64, velocity=0, time=0),
    Message('note_on', channel=3, note=59, velocity=0, time=0),
    Message('note_on', channel=3, note=60, velocity=100, time=0),
    Message('note_on', channel=3, note=65, velocity=100, time=0),
    Message('note_on', channel=3, note=53, velocity=100, time=0),
    Message('note_on', channel=3, note=53, velocity=0, time=120),
    Message('note_on', channel=3, note=65, velocity=0, time=0),
    Message('note_on', channel=3, note=60, velocity=0, time=0),
    Message('note_on', channel=3, note=61, velocity=100, time=0),
    Message('note_on', channel=3, note=66, velocity=100, time=0),
    Message('note_on', channel=3, note=54, velocity=100, time=0),
    Message('note_on', channel=3, note=54, velocity=0, time=240),
    Message('note_on', channel=3, note=66, velocity=0, time=0),
    Message('note_on', channel=3, note=61, velocity=0, time=0),
    Message('note_on', channel=3, note=64, velocity=100, time=0),
    Message('note_on', channel=3, note=69, velocity=100, time=0),
    Message('note_on', channel=3, note=57, velocity=100, time=0),
    Message('note_on', channel=3, note=57, velocity=0, time=120),
    Message('note_on', channel=3, note=69, velocity=0, time=0),
    Message('note_on', channel=3, note=64, velocity=0, time=0),
    Message('note_on', channel=3, note=65, velocity=100, time=0),
    Message('note_on', channel=3, note=70, velocity=100, time=0),
    Message('note_on', channel=3, note=58, velocity=100, time=0),
    Message('note_on', channel=3, note=58, velocity=0, time=120),
    Message('note_on', channel=3, note=70, velocity=0, time=0),
    Message('note_on', channel=3, note=65, velocity=0, time=0),
    Message('note_on', channel=3, note=66, velocity=100, time=0),
    Message('note_on', channel=3, note=71, velocity=100, time=0),
    Message('note_on', channel=3, note=59, velocity=100, time=0),
    Message('note_on', channel=3, note=59, velocity=0, time=240),
    Message('note_on', channel=3, note=71, velocity=0, time=0),
    Message('note_on', channel=3, note=66, velocity=0, time=0),
    Message('note_on', channel=3, note=54, velocity=100, time=0),
    Message('note_on', channel=3, note=59, velocity=100, time=0),
    Message('note_on', channel=3, note=47, velocity=100, time=0),
    Message('note_on', channel=3, note=47, velocity=0, time=240),
    Message('note_on', channel=3, note=59, velocity=0, time=0),
    Message('note_on', channel=3, note=54, velocity=0, time=0),
    Message('note_on', channel=3, note=54, velocity=100, time=0),
    Message('note_on', channel=3, note=59, velocity=100, time=0),
    Message('note_on', channel=3, note=47, velocity=100, time=0),
    Message('note_on', channel=3, note=47, velocity=0, time=240),
    Message('note_on', channel=3, note=59, velocity=0, time=0),
    Message('note_on', channel=3, note=54, velocity=0, time=0),
    Message('note_on', channel=3, note=57, velocity=100, time=0),
    Message('note_on', channel=3, note=62, velocity=100, time=0),
    Message('note_on', channel=3, note=50, velocity=100, time=0),
    Message('note_on', channel=3, note=50, velocity=0, time=120),
    Message('note_on', channel=3, note=62, velocity=0, time=0),
    Message('note_on', channel=3, note=57, velocity=0, time=0),
    Message('note_on', channel=3, note=58, velocity=100, time=0),
    Message('note_on', channel=3, note=63, velocity=100, time=0),
    Message('note_on', channel=3, note=51, velocity=100, time=0),
    Message('note_on', channel=3, note=51, velocity=0, time=120),
    Message('note_on', channel=3, note=63, velocity=0, time=0),
    Message('note_on', channel=3, note=58, velocity=0, time=0),
    Message('note_on', channel=3, note=59, velocity=100, time=0),
    Message('note_on', channel=3, note=64, velocity=100, time=0),
    Message('note_on', channel=3, note=52, velocity=100, time=0),
    Message('note_on', channel=3, note=52, velocity=0, time=240),
    Message('note_on', channel=3, note=64, velocity=0, time=0),
    Message('note_on', channel=3, note=59, velocity=0, time=0),
    Message('note_on', channel=3, note=59, velocity=100, time=0),
    Message('note_on', channel=3, note=64, velocity=100, time=0),
    Message('note_on', channel=3, note=52, velocity=100, time=0),
    Message('note_on', channel=3, note=52, velocity=0, time=120),
    Message('note_on', channel=3, note=64, velocity=0, time=0),
    Message('note_on', channel=3, note=59, velocity=0, time=0),
    Message('note_on', channel=3, note=60, velocity=100, time=0),
    Message('note_on', channel=3, note=65, velocity=100, time=0),
    Message('note_on', channel=3, note=53, velocity=100, time=0),
    Message('note_on', channel=3, note=53, velocity=0, time=120),
    Message('note_on', channel=3, note=65, velocity=0, time=0),
    Message('note_on', channel=3, note=60, velocity=0, time=0),
    Message('note_on', channel=3, note=61, velocity=100, time=0),
    Message('note_on', channel=3, note=66, velocity=100, time=0),
    Message('note_on', channel=3, note=54, velocity=100, time=0),
    Message('note_on', channel=3, note=54, velocity=0, time=240),
    Message('note_on', channel=3, note=66, velocity=0, time=0),
    Message('note_on', channel=3, note=61, velocity=0, time=0),
    Message('note_on', channel=3, note=64, velocity=100, time=0),
    Message('note_on', channel=3, note=69, velocity=100, time=0),
    Message('note_on', channel=3, note=57, velocity=100, time=0),
    Message('note_on', channel=3, note=57, velocity=0, time=120),
    Message('note_on', channel=3, note=69, velocity=0, time=0),
    Message('note_on', channel=3, note=64, velocity=0, time=0),
    Message('note_on', channel=3, note=65, velocity=100, time=0),
    Message('note_on', channel=3, note=70, velocity=100, time=0),
    Message('note_on', channel=3, note=58, velocity=100, time=0),
    Message('note_on', channel=3, note=58, velocity=0, time=120),
    Message('note_on', channel=3, note=70, velocity=0, time=0),
    Message('note_on', channel=3, note=65, velocity=0, time=0),
    Message('note_on', channel=3, note=66, velocity=100, time=0),
    Message('note_on', channel=3, note=71, velocity=100, time=0),
    Message('note_on', channel=3, note=59, velocity=100, time=0),
    Message('note_on', channel=3, note=59, velocity=0, time=240),
    Message('note_on', channel=3, note=71, velocity=0, time=0),
    Message('note_on', channel=3, note=66, velocity=0, time=0),
    Message('note_on', channel=3, note=54, velocity=100, time=0),
    Message('note_on', channel=3, note=59, velocity=100, time=0),
    Message('note_on', channel=3, note=47, velocity=100, time=0),
    Message('note_on', channel=3, note=47, velocity=0, time=240),
    Message('note_on', channel=3, note=59, velocity=0, time=0),
    Message('note_on', channel=3, note=54, velocity=0, time=0),
    Message('note_on', channel=3, note=54, velocity=100, time=0),
    Message('note_on', channel=3, note=59, velocity=100, time=0),
    Message('note_on', channel=3, note=47, velocity=100, time=0),
    Message('note_on', channel=3, note=47, velocity=0, time=240),
    Message('note_on', channel=3, note=59, velocity=0, time=0),
    Message('note_on', channel=3, note=54, velocity=0, time=0),
    Message('note_on', channel=3, note=57, velocity=100, time=0),
    Message('note_on', channel=3, note=62, velocity=100, time=0),
    Message('note_on', channel=3, note=50, velocity=100, time=0),
    Message('note_on', channel=3, note=50, velocity=0, time=120),
    Message('note_on', channel=3, note=62, velocity=0, time=0),
    Message('note_on', channel=3, note=57, velocity=0, time=0),
    Message('note_on', channel=3, note=58, velocity=100, time=0),
    Message('note_on', channel=3, note=63, velocity=100, time=0),
    Message('note_on', channel=3, note=51, velocity=100, time=0),
    Message('note_on', channel=3, note=51, velocity=0, time=120),
    Message('note_on', channel=3, note=63, velocity=0, time=0),
    Message('note_on', channel=3, note=58, velocity=0, time=0),
    Message('note_on', channel=3, note=59, velocity=100, time=0),
    Message('note_on', channel=3, note=64, velocity=100, time=0),
    Message('note_on', channel=3, note=52, velocity=100, time=0),
    Message('note_on', channel=3, note=52, velocity=0, time=240),
    Message('note_on', channel=3, note=64, velocity=0, time=0),
    Message('note_on', channel=3, note=59, velocity=0, time=0),
    Message('note_on', channel=3, note=59, velocity=100, time=0),
    Message('note_on', channel=3, note=64, velocity=100, time=0),
    Message('note_on', channel=3, note=52, velocity=100, time=0),
    Message('note_on', channel=3, note=52, velocity=0, time=120),
    Message('note_on', channel=3, note=64, velocity=0, time=0),
    Message('note_on', channel=3, note=59, velocity=0, time=0),
    Message('note_on', channel=3, note=60, velocity=100, time=0),
    Message('note_on', channel=3, note=65, velocity=100, time=0),
    Message('note_on', channel=3, note=53, velocity=100, time=0),
    Message('note_on', channel=3, note=53, velocity=0, time=120),
    Message('note_on', channel=3, note=65, velocity=0, time=0),
    Message('note_on', channel=3, note=60, velocity=0, time=0),
    Message('note_on', channel=3, note=61, velocity=100, time=0),
    Message('note_on', channel=3, note=66, velocity=100, time=0),
    Message('note_on', channel=3, note=54, velocity=100, time=0),
    Message('note_on', channel=3, note=54, velocity=0, time=240),
    Message('note_on', channel=3, note=66, velocity=0, time=0),
    Message('note_on', channel=3, note=61, velocity=0, time=0),
    Message('note_on', channel=3, note=54, velocity=100, time=0),
    Message('note_on', channel=3, note=47, velocity=100, time=0),
    Message('note_on', channel=3, note=47, velocity=0, time=60),
    Message('note_on', channel=3, note=54, velocity=0, time=0),
    Message('note_on', channel=3, note=47, velocity=100, time=60),
    Message('note_on', channel=3, note=54, velocity=100, time=0),
    Message('note_on', channel=3, note=54, velocity=0, time=60),
    Message('note_on', channel=3, note=47, velocity=0, time=0),
    Message('note_on', channel=3, note=47, velocity=100, time=60),
    Message('note_on', channel=3, note=54, velocity=100, time=0),
    Message('note_on', channel=3, note=54, velocity=0, time=60),
    Message('note_on', channel=3, note=47, velocity=0, time=0),
    Message('pitchwheel', channel=3, pitch=0, time=180),
    Message('note_on', channel=3, note=59, velocity=100, time=0),
    Message('note_on', channel=3, note=54, velocity=100, time=0),
    Message('note_on', channel=3, note=47, velocity=100, time=0),
    Message('note_on', channel=3, note=47, velocity=0, time=480),
    Message('note_on', channel=3, note=54, velocity=0, time=0),
    Message('note_on', channel=3, note=59, velocity=0, time=0),
    Message('note_on', channel=3, note=62, velocity=100, time=0),
    Message('note_on', channel=3, note=57, velocity=100, time=0),
    Message('note_on', channel=3, note=50, velocity=100, time=0),
    Message('note_on', channel=3, note=50, velocity=0, time=480),
    Message('note_on', channel=3, note=57, velocity=0, time=0),
    Message('note_on', channel=3, note=62, velocity=0, time=0),
    Message('note_on', channel=3, note=62, velocity=100, time=0),
    Message('note_on', channel=3, note=57, velocity=100, time=0),
    Message('note_on', channel=3, note=50, velocity=100, time=0),
    Message('pitchwheel', channel=3, pitch=1365, time=180),
    Message('note_on', channel=3, note=50, velocity=0, time=60),
    Message('note_on', channel=3, note=57, velocity=0, time=0),
    Message('note_on', channel=3, note=62, velocity=0, time=0),
    Message('pitchwheel', channel=3, pitch=0, time=0),
    Message('note_on', channel=3, note=64, velocity=100, time=0),
    Message('note_on', channel=3, note=59, velocity=100, time=0),
    Message('note_on', channel=3, note=52, velocity=100, time=0),
    Message('note_on', channel=3, note=52, velocity=0, time=240),
    Message('note_on', channel=3, note=59, velocity=0, time=0),
    Message('note_on', channel=3, note=64, velocity=0, time=0),
    Message('note_on', channel=3, note=64, velocity=100, time=0),
    Message('note_on', channel=3, note=59, velocity=100, time=0),
    Message('note_on', channel=3, note=52, velocity=100, time=0),
    Message('note_on', channel=3, note=52, velocity=0, time=480),
    Message('note_on', channel=3, note=59, velocity=0, time=0),
    Message('note_on', channel=3, note=64, velocity=0, time=0),
    Message('note_on', channel=3, note=67, velocity=100, time=0),
    Message('note_on', channel=3, note=62, velocity=100, time=0),
    Message('note_on', channel=3, note=55, velocity=100, time=0),
    Message('note_on', channel=3, note=55, velocity=0, time=120),
    Message('note_on', channel=3, note=62, velocity=0, time=0),
    Message('note_on', channel=3, note=67, velocity=0, time=0),
    Message('note_on', channel=3, note=66, velocity=100, time=0),
    Message('note_on', channel=3, note=61, velocity=100, time=0),
    Message('note_on', channel=3, note=54, velocity=100, time=0),
    Message('note_on', channel=3, note=54, velocity=0, time=120),
    Message('note_on', channel=3, note=61, velocity=0, time=0),
    Message('note_on', channel=3, note=66, velocity=0, time=0),
    Message('note_on', channel=3, note=67, velocity=100, time=0),
    Message('note_on', channel=3, note=62, velocity=100, time=0),
    Message('note_on', channel=3, note=55, velocity=100, time=0),
    Message('note_on', channel=3, note=55, velocity=0, time=120),
    Message('note_on', channel=3, note=62, velocity=0, time=0),
    Message('note_on', channel=3, note=67, velocity=0, time=0),
    Message('note_on', channel=3, note=66, velocity=100, time=0),
    Message('note_on', channel=3, note=61, velocity=100, time=0),
    Message('note_on', channel=3, note=54, velocity=100, time=0),
    Message('note_on', channel=3, note=54, velocity=0, time=120),
    Message('note_on', channel=3, note=61, velocity=0, time=0),
    Message('note_on', channel=3, note=66, velocity=0, time=0),
    Message('note_on', channel=3, note=67, velocity=100, time=0),
    Message('note_on', channel=3, note=62, velocity=100, time=0),
    Message('note_on', channel=3, note=55, velocity=100, time=0),
    Message('note_on', channel=3, note=55, velocity=0, time=120),
    Message('note_on', channel=3, note=62, velocity=0, time=0),
    Message('note_on', channel=3, note=67, velocity=0, time=0),
    Message('note_on', channel=3, note=66, velocity=100, time=0),
    Message('note_on', channel=3, note=61, velocity=100, time=0),
    Message('note_on', channel=3, note=54, velocity=100, time=0),
    Message('note_on', channel=3, note=54, velocity=0, time=120),
    Message('note_on', channel=3, note=61, velocity=0, time=0),
    Message('note_on', channel=3, note=66, velocity=0, time=0),
    Message('note_on', channel=3, note=62, velocity=100, time=0),
    Message('note_on', channel=3, note=57, velocity=100, time=0),
    Message('note_on', channel=3, note=50, velocity=100, time=0),
    Message('note_on', channel=3, note=50, velocity=0, time=234),
    Message('note_on', channel=3, note=57, velocity=0, time=0),
    Message('note_on', channel=3, note=62, velocity=0, time=0),
    Message('note_on', channel=3, note=62, velocity=100, time=6),
    Message('note_on', channel=3, note=57, velocity=100, time=0),
    Message('note_on', channel=3, note=50, velocity=100, time=0),
    Message('pitchwheel', channel=3, pitch=1365, time=180),
    Message('note_on', channel=3, note=50, velocity=0, time=60),
    Message('note_on', channel=3, note=57, velocity=0, time=0),
    Message('note_on', channel=3, note=62, velocity=0, time=0),
    Message('pitchwheel', channel=3, pitch=0, time=0),
    Message('note_on', channel=3, note=64, velocity=100, time=0),
    Message('note_on', channel=3, note=59, velocity=100, time=0),
    Message('note_on', channel=3, note=52, velocity=100, time=0),
    Message('note_on', channel=3, note=52, velocity=0, time=240),
    Message('note_on', channel=3, note=59, velocity=0, time=0),
    Message('note_on', channel=3, note=64, velocity=0, time=0),
    Message('note_on', channel=3, note=64, velocity=100, time=0),
    Message('note_on', channel=3, note=59, velocity=100, time=0),
    Message('note_on', channel=3, note=52, velocity=100, time=0),
    Message('note_on', channel=3, note=52, velocity=0, time=480),
    Message('note_on', channel=3, note=59, velocity=0, time=0),
    Message('note_on', channel=3, note=64, velocity=0, time=0),
    Message('pitchwheel', channel=3, pitch=0, time=0),
    Message('note_on', channel=3, note=59, velocity=100, time=0),
    Message('note_on', channel=3, note=54, velocity=100, time=0),
    Message('note_on', channel=3, note=47, velocity=100, time=0),
    Message('note_on', channel=3, note=47, velocity=0, time=480),
    Message('note_on', channel=3, note=54, velocity=0, time=0),
    Message('note_on', channel=3, note=59, velocity=0, time=0),
    Message('note_on', channel=3, note=62, velocity=100, time=0),
    Message('note_on', channel=3, note=57, velocity=100, time=0),
    Message('note_on', channel=3, note=50, velocity=100, time=0),
    Message('note_on', channel=3, note=50, velocity=0, time=480),
    Message('note_on', channel=3, note=57, velocity=0, time=0),
    Message('note_on', channel=3, note=62, velocity=0, time=0),
    Message('note_on', channel=3, note=62, velocity=100, time=0),
    Message('note_on', channel=3, note=57, velocity=100, time=0),
    Message('note_on', channel=3, note=50, velocity=100, time=0),
    Message('pitchwheel', channel=3, pitch=1365, time=180),
    Message('note_on', channel=3, note=50, velocity=0, time=60),
    Message('note_on', channel=3, note=57, velocity=0, time=0),
    Message('note_on', channel=3, note=62, velocity=0, time=0),
    Message('pitchwheel', channel=3, pitch=0, time=0),
    Message('note_on', channel=3, note=64, velocity=100, time=0),
    Message('note_on', channel=3, note=59, velocity=100, time=0),
    Message('note_on', channel=3, note=52, velocity=100, time=0),
    Message('note_on', channel=3, note=52, velocity=0, time=240),
    Message('note_on', channel=3, note=59, velocity=0, time=0),
    Message('note_on', channel=3, note=64, velocity=0, time=0),
    Message('note_on', channel=3, note=64, velocity=100, time=0),
    Message('note_on', channel=3, note=59, velocity=100, time=0),
    Message('note_on', channel=3, note=52, velocity=100, time=0),
    Message('note_on', channel=3, note=52, velocity=0, time=480),
    Message('note_on', channel=3, note=59, velocity=0, time=0),
    Message('note_on', channel=3, note=64, velocity=0, time=0),
    Message('note_on', channel=3, note=67, velocity=100, time=0),
    Message('note_on', channel=3, note=62, velocity=100, time=0),
    Message('note_on', channel=3, note=55, velocity=100, time=0),
    Message('note_on', channel=3, note=55, velocity=0, time=120),
    Message('note_on', channel=3, note=62, velocity=0, time=0),
    Message('note_on', channel=3, note=67, velocity=0, time=0),
    Message('note_on', channel=3, note=66, velocity=100, time=0),
    Message('note_on', channel=3, note=61, velocity=100, time=0),
    Message('note_on', channel=3, note=54, velocity=100, time=0),
    Message('note_on', channel=3, note=54, velocity=0, time=120),
    Message('note_on', channel=3, note=61, velocity=0, time=0),
    Message('note_on', channel=3, note=66, velocity=0, time=0),
    Message('note_on', channel=3, note=67, velocity=100, time=0),
    Message('note_on', channel=3, note=62, velocity=100, time=0),
    Message('note_on', channel=3, note=55, velocity=100, time=0),
    Message('note_on', channel=3, note=55, velocity=0, time=120),
    Message('note_on', channel=3, note=62, velocity=0, time=0),
    Message('note_on', channel=3, note=67, velocity=0, time=0),
    Message('note_on', channel=3, note=66, velocity=100, time=0),
    Message('note_on', channel=3, note=61, velocity=100, time=0),
    Message('note_on', channel=3, note=54, velocity=100, time=0),
    Message('note_on', channel=3, note=54, velocity=0, time=120),
    Message('note_on', channel=3, note=61, velocity=0, time=0),
    Message('note_on', channel=3, note=66, velocity=0, time=0),
    Message('note_on', channel=3, note=67, velocity=100, time=0),
    Message('note_on', channel=3, note=62, velocity=100, time=0),
    Message('note_on', channel=3, note=55, velocity=100, time=0),
    Message('note_on', channel=3, note=55, velocity=0, time=120),
    Message('note_on', channel=3, note=62, velocity=0, time=0),
    Message('note_on', channel=3, note=67, velocity=0, time=0),
    Message('note_on', channel=3, note=66, velocity=100, time=0),
    Message('note_on', channel=3, note=61, velocity=100, time=0),
    Message('note_on', channel=3, note=54, velocity=100, time=0),
    Message('note_on', channel=3, note=54, velocity=0, time=120),
    Message('note_on', channel=3, note=61, velocity=0, time=0),
    Message('note_on', channel=3, note=66, velocity=0, time=0),
    Message('note_on', channel=3, note=62, velocity=100, time=0),
    Message('note_on', channel=3, note=57, velocity=100, time=0),
    Message('note_on', channel=3, note=50, velocity=100, time=0),
    Message('note_on', channel=3, note=50, velocity=0, time=234),
    Message('note_on', channel=3, note=57, velocity=0, time=0),
    Message('note_on', channel=3, note=62, velocity=0, time=0),
    Message('note_on', channel=3, note=62, velocity=100, time=6),
    Message('note_on', channel=3, note=57, velocity=100, time=0),
    Message('note_on', channel=3, note=50, velocity=100, time=0),
    Message('pitchwheel', channel=3, pitch=1365, time=180),
    Message('note_on', channel=3, note=50, velocity=0, time=60),
    Message('note_on', channel=3, note=57, velocity=0, time=0),
    Message('note_on', channel=3, note=62, velocity=0, time=0),
    Message('pitchwheel', channel=3, pitch=0, time=0),
    Message('note_on', channel=3, note=64, velocity=100, time=0),
    Message('note_on', channel=3, note=59, velocity=100, time=0),
    Message('note_on', channel=3, note=52, velocity=100, time=0),
    Message('note_on', channel=3, note=52, velocity=0, time=240),
    Message('note_on', channel=3, note=59, velocity=0, time=0),
    Message('note_on', channel=3, note=64, velocity=0, time=0),
    Message('note_on', channel=3, note=64, velocity=100, time=0),
    Message('note_on', channel=3, note=59, velocity=100, time=0),
    Message('note_on', channel=3, note=52, velocity=100, time=0),
    Message('note_on', channel=3, note=52, velocity=0, time=480),
    Message('note_on', channel=3, note=59, velocity=0, time=0),
    Message('note_on', channel=3, note=64, velocity=0, time=0),
    Message('pitchwheel', channel=3, pitch=0, time=0),
    Message('note_on', channel=3, note=59, velocity=100, time=0),
    Message('note_on', channel=3, note=54, velocity=100, time=0),
    Message('note_on', channel=3, note=47, velocity=100, time=0),
    Message('note_on', channel=3, note=47, velocity=0, time=480),
    Message('note_on', channel=3, note=54, velocity=0, time=0),
    Message('note_on', channel=3, note=59, velocity=0, time=0),
    Message('note_on', channel=3, note=62, velocity=100, time=0),
    Message('note_on', channel=3, note=57, velocity=100, time=0),
    Message('note_on', channel=3, note=50, velocity=100, time=0),
    Message('note_on', channel=3, note=50, velocity=0, time=480),
    Message('note_on', channel=3, note=57, velocity=0, time=0),
    Message('note_on', channel=3, note=62, velocity=0, time=0),
    Message('note_on', channel=3, note=62, velocity=100, time=0),
    Message('note_on', channel=3, note=57, velocity=100, time=0),
    Message('note_on', channel=3, note=50, velocity=100, time=0),
    Message('pitchwheel', channel=3, pitch=1365, time=180),
    Message('note_on', channel=3, note=50, velocity=0, time=60),
    Message('note_on', channel=3, note=57, velocity=0, time=0),
    Message('note_on', channel=3, note=62, velocity=0, time=0),
    Message('pitchwheel', channel=3, pitch=0, time=0),
    Message('note_on', channel=3, note=64, velocity=100, time=0),
    Message('note_on', channel=3, note=59, velocity=100, time=0),
    Message('note_on', channel=3, note=52, velocity=100, time=0),
    Message('note_on', channel=3, note=52, velocity=0, time=240),
    Message('note_on', channel=3, note=59, velocity=0, time=0),
    Message('note_on', channel=3, note=64, velocity=0, time=0),
    Message('note_on', channel=3, note=64, velocity=100, time=0),
    Message('note_on', channel=3, note=59, velocity=100, time=0),
    Message('note_on', channel=3, note=52, velocity=100, time=0),
    Message('note_on', channel=3, note=52, velocity=0, time=480),
    Message('note_on', channel=3, note=59, velocity=0, time=0),
    Message('note_on', channel=3, note=64, velocity=0, time=0),
    Message('note_on', channel=3, note=67, velocity=100, time=0),
    Message('note_on', channel=3, note=62, velocity=100, time=0),
    Message('note_on', channel=3, note=55, velocity=100, time=0),
    Message('note_on', channel=3, note=55, velocity=0, time=120),
    Message('note_on', channel=3, note=62, velocity=0, time=0),
    Message('note_on', channel=3, note=67, velocity=0, time=0),
    Message('note_on', channel=3, note=66, velocity=100, time=0),
    Message('note_on', channel=3, note=61, velocity=100, time=0),
    Message('note_on', channel=3, note=54, velocity=100, time=0),
    Message('note_on', channel=3, note=54, velocity=0, time=120),
    Message('note_on', channel=3, note=61, velocity=0, time=0),
    Message('note_on', channel=3, note=66, velocity=0, time=0),
    Message('note_on', channel=3, note=67, velocity=100, time=0),
    Message('note_on', channel=3, note=62, velocity=100, time=0),
    Message('note_on', channel=3, note=55, velocity=100, time=0),
    Message('note_on', channel=3, note=55, velocity=0, time=120),
    Message('note_on', channel=3, note=62, velocity=0, time=0),
    Message('note_on', channel=3, note=67, velocity=0, time=0),
    Message('note_on', channel=3, note=66, velocity=100, time=0),
    Message('note_on', channel=3, note=61, velocity=100, time=0),
    Message('note_on', channel=3, note=54, velocity=100, time=0),
    Message('note_on', channel=3, note=54, velocity=0, time=120),
    Message('note_on', channel=3, note=61, velocity=0, time=0),
    Message('note_on', channel=3, note=66, velocity=0, time=0),
    Message('note_on', channel=3, note=67, velocity=100, time=0),
    Message('note_on', channel=3, note=62, velocity=100, time=0),
    Message('note_on', channel=3, note=55, velocity=100, time=0),
    Message('note_on', channel=3, note=55, velocity=0, time=120),
    Message('note_on', channel=3, note=62, velocity=0, time=0),
    Message('note_on', channel=3, note=67, velocity=0, time=0),
    Message('note_on', channel=3, note=66, velocity=100, time=0),
    Message('note_on', channel=3, note=61, velocity=100, time=0),
    Message('note_on', channel=3, note=54, velocity=100, time=0),
    Message('note_on', channel=3, note=54, velocity=0, time=120),
    Message('note_on', channel=3, note=61, velocity=0, time=0),
    Message('note_on', channel=3, note=66, velocity=0, time=0),
    Message('note_on', channel=3, note=62, velocity=100, time=0),
    Message('note_on', channel=3, note=57, velocity=100, time=0),
    Message('note_on', channel=3, note=50, velocity=100, time=0),
    Message('note_on', channel=3, note=50, velocity=0, time=234),
    Message('note_on', channel=3, note=57, velocity=0, time=0),
    Message('note_on', channel=3, note=62, velocity=0, time=0),
    Message('note_on', channel=3, note=62, velocity=100, time=6),
    Message('note_on', channel=3, note=57, velocity=100, time=0),
    Message('note_on', channel=3, note=50, velocity=100, time=0),
    Message('pitchwheel', channel=3, pitch=1365, time=180),
    Message('note_on', channel=3, note=50, velocity=0, time=60),
    Message('note_on', channel=3, note=57, velocity=0, time=0),
    Message('note_on', channel=3, note=62, velocity=0, time=0),
    Message('pitchwheel', channel=3, pitch=0, time=0),
    Message('note_on', channel=3, note=64, velocity=100, time=0),
    Message('note_on', channel=3, note=59, velocity=100, time=0),
    Message('note_on', channel=3, note=52, velocity=100, time=0),
    Message('note_on', channel=3, note=52, velocity=0, time=240),
    Message('note_on', channel=3, note=59, velocity=0, time=0),
    Message('note_on', channel=3, note=64, velocity=0, time=0),
    Message('note_on', channel=3, note=64, velocity=100, time=0),
    Message('note_on', channel=3, note=59, velocity=100, time=0),
    Message('note_on', channel=3, note=52, velocity=100, time=0),
    Message('note_on', channel=3, note=52, velocity=0, time=480),
    Message('note_on', channel=3, note=59, velocity=0, time=0),
    Message('note_on', channel=3, note=64, velocity=0, time=0),
    Message('pitchwheel', channel=3, pitch=0, time=0),
    Message('note_on', channel=3, note=59, velocity=100, time=0),
    Message('note_on', channel=3, note=54, velocity=100, time=0),
    Message('note_on', channel=3, note=47, velocity=100, time=0),
    Message('note_on', channel=3, note=47, velocity=0, time=480),
    Message('note_on', channel=3, note=54, velocity=0, time=0),
    Message('note_on', channel=3, note=59, velocity=0, time=0),
    Message('note_on', channel=3, note=62, velocity=100, time=0),
    Message('note_on', channel=3, note=57, velocity=100, time=0),
    Message('note_on', channel=3, note=50, velocity=100, time=0),
    Message('note_on', channel=3, note=50, velocity=0, time=480),
    Message('note_on', channel=3, note=57, velocity=0, time=0),
    Message('note_on', channel=3, note=62, velocity=0, time=0),
    Message('note_on', channel=3, note=62, velocity=100, time=0),
    Message('note_on', channel=3, note=57, velocity=100, time=0),
    Message('note_on', channel=3, note=50, velocity=100, time=0),
    Message('pitchwheel', channel=3, pitch=1365, time=180),
    Message('note_on', channel=3, note=50, velocity=0, time=60),
    Message('note_on', channel=3, note=57, velocity=0, time=0),
    Message('note_on', channel=3, note=62, velocity=0, time=0),
    Message('pitchwheel', channel=3, pitch=0, time=0),
    Message('note_on', channel=3, note=64, velocity=100, time=0),
    Message('note_on', channel=3, note=59, velocity=100, time=0),
    Message('note_on', channel=3, note=52, velocity=100, time=0),
    Message('note_on', channel=3, note=52, velocity=0, time=240),
    Message('note_on', channel=3, note=59, velocity=0, time=0),
    Message('note_on', channel=3, note=64, velocity=0, time=0),
    Message('note_on', channel=3, note=64, velocity=100, time=0),
    Message('note_on', channel=3, note=59, velocity=100, time=0),
    Message('note_on', channel=3, note=52, velocity=100, time=0),
    Message('note_on', channel=3, note=52, velocity=0, time=480),
    Message('note_on', channel=3, note=59, velocity=0, time=0),
    Message('note_on', channel=3, note=64, velocity=0, time=0),
    Message('note_on', channel=3, note=67, velocity=100, time=0),
    Message('note_on', channel=3, note=62, velocity=100, time=0),
    Message('note_on', channel=3, note=55, velocity=100, time=0),
    Message('note_on', channel=3, note=55, velocity=0, time=120),
    Message('note_on', channel=3, note=62, velocity=0, time=0),
    Message('note_on', channel=3, note=67, velocity=0, time=0),
    Message('note_on', channel=3, note=66, velocity=100, time=0),
    Message('note_on', channel=3, note=61, velocity=100, time=0),
    Message('note_on', channel=3, note=54, velocity=100, time=0),
    Message('note_on', channel=3, note=54, velocity=0, time=120),
    Message('note_on', channel=3, note=61, velocity=0, time=0),
    Message('note_on', channel=3, note=66, velocity=0, time=0),
    Message('note_on', channel=3, note=67, velocity=100, time=0),
    Message('note_on', channel=3, note=62, velocity=100, time=0),
    Message('note_on', channel=3, note=55, velocity=100, time=0),
    Message('note_on', channel=3, note=55, velocity=0, time=120),
    Message('note_on', channel=3, note=62, velocity=0, time=0),
    Message('note_on', channel=3, note=67, velocity=0, time=0),
    Message('note_on', channel=3, note=66, velocity=100, time=0),
    Message('note_on', channel=3, note=61, velocity=100, time=0),
    Message('note_on', channel=3, note=54, velocity=100, time=0),
    Message('note_on', channel=3, note=54, velocity=0, time=120),
    Message('note_on', channel=3, note=61, velocity=0, time=0),
    Message('note_on', channel=3, note=66, velocity=0, time=0),
    Message('note_on', channel=3, note=67, velocity=100, time=0),
    Message('note_on', channel=3, note=62, velocity=100, time=0),
    Message('note_on', channel=3, note=55, velocity=100, time=0),
    Message('note_on', channel=3, note=55, velocity=0, time=120),
    Message('note_on', channel=3, note=62, velocity=0, time=0),
    Message('note_on', channel=3, note=67, velocity=0, time=0),
    Message('note_on', channel=3, note=66, velocity=100, time=0),
    Message('note_on', channel=3, note=61, velocity=100, time=0),
    Message('note_on', channel=3, note=54, velocity=100, time=0),
    Message('note_on', channel=3, note=54, velocity=0, time=120),
    Message('note_on', channel=3, note=61, velocity=0, time=0),
    Message('note_on', channel=3, note=66, velocity=0, time=0),
    Message('note_on', channel=3, note=62, velocity=100, time=0),
    Message('note_on', channel=3, note=57, velocity=100, time=0),
    Message('note_on', channel=3, note=50, velocity=100, time=0),
    Message('note_on', channel=3, note=50, velocity=0, time=234),
    Message('note_on', channel=3, note=57, velocity=0, time=0),
    Message('note_on', channel=3, note=62, velocity=0, time=0),
    Message('note_on', channel=3, note=62, velocity=100, time=6),
    Message('note_on', channel=3, note=57, velocity=100, time=0),
    Message('note_on', channel=3, note=50, velocity=100, time=0),
    Message('pitchwheel', channel=3, pitch=1365, time=180),
    Message('note_on', channel=3, note=50, velocity=0, time=60),
    Message('note_on', channel=3, note=57, velocity=0, time=0),
    Message('note_on', channel=3, note=62, velocity=0, time=0),
    Message('pitchwheel', channel=3, pitch=0, time=0),
    Message('note_on', channel=3, note=64, velocity=100, time=0),
    Message('note_on', channel=3, note=59, velocity=100, time=0),
    Message('note_on', channel=3, note=52, velocity=100, time=0),
    Message('note_on', channel=3, note=52, velocity=0, time=240),
    Message('note_on', channel=3, note=59, velocity=0, time=0),
    Message('note_on', channel=3, note=64, velocity=0, time=0),
    Message('note_on', channel=3, note=64, velocity=100, time=0),
    Message('note_on', channel=3, note=59, velocity=100, time=0),
    Message('note_on', channel=3, note=52, velocity=100, time=0),
    Message('note_on', channel=3, note=52, velocity=0, time=480),
    Message('note_on', channel=3, note=59, velocity=0, time=0),
    Message('note_on', channel=3, note=64, velocity=0, time=0),
    Message('note_on', channel=3, note=54, velocity=100, time=0),
    Message('note_on', channel=3, note=59, velocity=100, time=0),
    Message('note_on', channel=3, note=47, velocity=100, time=0),
    Message('note_on', channel=3, note=47, velocity=0, time=240),
    Message('note_on', channel=3, note=59, velocity=0, time=0),
    Message('note_on', channel=3, note=54, velocity=0, time=0),
    Message('note_on', channel=3, note=54, velocity=100, time=0),
    Message('note_on', channel=3, note=59, velocity=100, time=0),
    Message('note_on', channel=3, note=47, velocity=100, time=0),
    Message('note_on', channel=3, note=47, velocity=0, time=240),
    Message('note_on', channel=3, note=59, velocity=0, time=0),
    Message('note_on', channel=3, note=54, velocity=0, time=0),
    Message('note_on', channel=3, note=40, velocity=100, time=0),
    Message('note_on', channel=3, note=35, velocity=100, time=0),
    Message('note_on', channel=3, note=35, velocity=0, time=60),
    Message('note_on', channel=3, note=40, velocity=0, time=0),
    Message('note_on', channel=3, note=40, velocity=100, time=60),
    Message('note_on', channel=3, note=35, velocity=100, time=0),
    Message('note_on', channel=3, note=35, velocity=0, time=60),
    Message('note_on', channel=3, note=40, velocity=0, time=0),
    Message('note_on', channel=3, note=57, velocity=100, time=60),
    Message('note_on', channel=3, note=62, velocity=100, time=0),
    Message('note_on', channel=3, note=50, velocity=100, time=0),
    Message('note_on', channel=3, note=50, velocity=0, time=240),
    Message('note_on', channel=3, note=62, velocity=0, time=0),
    Message('note_on', channel=3, note=57, velocity=0, time=0),
    Message('note_on', channel=3, note=40, velocity=100, time=0),
    Message('note_on', channel=3, note=35, velocity=100, time=0),
    Message('note_on', channel=3, note=35, velocity=0, time=60),
    Message('note_on', channel=3, note=40, velocity=0, time=0),
    Message('note_on', channel=3, note=40, velocity=100, time=60),
    Message('note_on', channel=3, note=35, velocity=100, time=0),
    Message('note_on', channel=3, note=35, velocity=0, time=60),
    Message('note_on', channel=3, note=40, velocity=0, time=0),
    Message('note_on', channel=3, note=54, velocity=100, time=60),
    Message('note_on', channel=3, note=59, velocity=100, time=0),
    Message('note_on', channel=3, note=47, velocity=100, time=0),
    Message('note_on', channel=3, note=47, velocity=0, time=240),
    Message('note_on', channel=3, note=59, velocity=0, time=0),
    Message('note_on', channel=3, note=54, velocity=0, time=0),
    Message('note_on', channel=3, note=54, velocity=100, time=0),
    Message('note_on', channel=3, note=59, velocity=100, time=0),
    Message('note_on', channel=3, note=47, velocity=100, time=0),
    Message('note_on', channel=3, note=47, velocity=0, time=240),
    Message('note_on', channel=3, note=59, velocity=0, time=0),
    Message('note_on', channel=3, note=54, velocity=0, time=0),
    Message('note_on', channel=3, note=53, velocity=100, time=0),
    Message('note_on', channel=3, note=58, velocity=100, time=0),
    Message('note_on', channel=3, note=46, velocity=100, time=0),
    Message('note_on', channel=3, note=46, velocity=0, time=240),
    Message('note_on', channel=3, note=58, velocity=0, time=0),
    Message('note_on', channel=3, note=53, velocity=0, time=0),
    Message('note_on', channel=3, note=52, velocity=100, time=0),
    Message('note_on', channel=3, note=57, velocity=100, time=0),
    Message('note_on', channel=3, note=45, velocity=100, time=0),
    Message('note_on', channel=3, note=45, velocity=0, time=240),
    Message('note_on', channel=3, note=57, velocity=0, time=0),
    Message('note_on', channel=3, note=52, velocity=0, time=0),
    Message('note_on', channel=3, note=52, velocity=100, time=0),
    Message('note_on', channel=3, note=57, velocity=100, time=0),
    Message('note_on', channel=3, note=45, velocity=100, time=0),
    Message('note_on', channel=3, note=45, velocity=0, time=240),
    Message('note_on', channel=3, note=57, velocity=0, time=0),
    Message('note_on', channel=3, note=52, velocity=0, time=0),
    Message('note_on', channel=3, note=38, velocity=100, time=0),
    Message('note_on', channel=3, note=33, velocity=100, time=0),
    Message('note_on', channel=3, note=33, velocity=0, time=60),
    Message('note_on', channel=3, note=38, velocity=0, time=0),
    Message('note_on', channel=3, note=38, velocity=100, time=60),
    Message('note_on', channel=3, note=33, velocity=100, time=0),
    Message('note_on', channel=3, note=33, velocity=0, time=60),
    Message('note_on', channel=3, note=38, velocity=0, time=0),
    Message('note_on', channel=3, note=38, velocity=100, time=60),
    Message('note_on', channel=3, note=33, velocity=100, time=0),
    Message('note_on', channel=3, note=33, velocity=0, time=60),
    Message('note_on', channel=3, note=38, velocity=0, time=0),
    Message('note_on', channel=3, note=51, velocity=100, time=60),
    Message('note_on', channel=3, note=56, velocity=100, time=0),
    Message('note_on', channel=3, note=44, velocity=100, time=0),
    Message('note_on', channel=3, note=44, velocity=0, time=120),
    Message('note_on', channel=3, note=56, velocity=0, time=0),
    Message('note_on', channel=3, note=51, velocity=0, time=0),
    Message('note_on', channel=3, note=51, velocity=100, time=0),
    Message('note_on', channel=3, note=56, velocity=100, time=0),
    Message('note_on', channel=3, note=44, velocity=100, time=0),
    Message('note_on', channel=3, note=44, velocity=0, time=120),
    Message('note_on', channel=3, note=56, velocity=0, time=0),
    Message('note_on', channel=3, note=51, velocity=0, time=0),
    Message('note_on', channel=3, note=52, velocity=100, time=0),
    Message('note_on', channel=3, note=57, velocity=100, time=0),
    Message('note_on', channel=3, note=45, velocity=100, time=0),
    Message('note_on', channel=3, note=45, velocity=0, time=120),
    Message('note_on', channel=3, note=57, velocity=0, time=0),
    Message('note_on', channel=3, note=52, velocity=0, time=0),
    Message('note_on', channel=3, note=52, velocity=100, time=0),
    Message('note_on', channel=3, note=57, velocity=100, time=0),
    Message('note_on', channel=3, note=45, velocity=100, time=0),
    Message('note_on', channel=3, note=45, velocity=0, time=240),
    Message('note_on', channel=3, note=57, velocity=0, time=0),
    Message('note_on', channel=3, note=52, velocity=0, time=0),
    Message('note_on', channel=3, note=52, velocity=100, time=0),
    Message('note_on', channel=3, note=57, velocity=100, time=0),
    Message('note_on', channel=3, note=45, velocity=100, time=0),
    Message('note_on', channel=3, note=45, velocity=0, time=240),
    Message('note_on', channel=3, note=57, velocity=0, time=0),
    Message('note_on', channel=3, note=52, velocity=0, time=0),
    Message('note_on', channel=3, note=53, velocity=100, time=0),
    Message('note_on', channel=3, note=58, velocity=100, time=0),
    Message('note_on', channel=3, note=46, velocity=100, time=0),
    Message('note_on', channel=3, note=46, velocity=0, time=240),
    Message('note_on', channel=3, note=58, velocity=0, time=0),
    Message('note_on', channel=3, note=53, velocity=0, time=0),
    Message('note_on', channel=3, note=54, velocity=100, time=0),
    Message('note_on', channel=3, note=59, velocity=100, time=0),
    Message('note_on', channel=3, note=47, velocity=100, time=0),
    Message('note_on', channel=3, note=47, velocity=0, time=240),
    Message('note_on', channel=3, note=59, velocity=0, time=0),
    Message('note_on', channel=3, note=54, velocity=0, time=0),
    Message('note_on', channel=3, note=54, velocity=100, time=0),
    Message('note_on', channel=3, note=59, velocity=100, time=0),
    Message('note_on', channel=3, note=47, velocity=100, time=0),
    Message('note_on', channel=3, note=47, velocity=0, time=240),
    Message('note_on', channel=3, note=59, velocity=0, time=0),
    Message('note_on', channel=3, note=54, velocity=0, time=0),
    Message('note_on', channel=3, note=40, velocity=100, time=0),
    Message('note_on', channel=3, note=35, velocity=100, time=0),
    Message('note_on', channel=3, note=35, velocity=0, time=60),
    Message('note_on', channel=3, note=40, velocity=0, time=0),
    Message('note_on', channel=3, note=40, velocity=100, time=60),
    Message('note_on', channel=3, note=35, velocity=100, time=0),
    Message('note_on', channel=3, note=35, velocity=0, time=60),
    Message('note_on', channel=3, note=40, velocity=0, time=0),
    Message('note_on', channel=3, note=57, velocity=100, time=60),
    Message('note_on', channel=3, note=62, velocity=100, time=0),
    Message('note_on', channel=3, note=50, velocity=100, time=0),
    Message('note_on', channel=3, note=50, velocity=0, time=240),
    Message('note_on', channel=3, note=62, velocity=0, time=0),
    Message('note_on', channel=3, note=57, velocity=0, time=0),
    Message('note_on', channel=3, note=40, velocity=100, time=0),
    Message('note_on', channel=3, note=35, velocity=100, time=0),
    Message('note_on', channel=3, note=35, velocity=0, time=60),
    Message('note_on', channel=3, note=40, velocity=0, time=0),
    Message('note_on', channel=3, note=40, velocity=100, time=60),
    Message('note_on', channel=3, note=35, velocity=100, time=0),
    Message('note_on', channel=3, note=35, velocity=0, time=60),
    Message('note_on', channel=3, note=40, velocity=0, time=0),
    Message('note_on', channel=3, note=54, velocity=100, time=60),
    Message('note_on', channel=3, note=59, velocity=100, time=0),
    Message('note_on', channel=3, note=47, velocity=100, time=0),
    Message('note_on', channel=3, note=47, velocity=0, time=240),
    Message('note_on', channel=3, note=59, velocity=0, time=0),
    Message('note_on', channel=3, note=54, velocity=0, time=0),
    Message('note_on', channel=3, note=54, velocity=100, time=0),
    Message('note_on', channel=3, note=59, velocity=100, time=0),
    Message('note_on', channel=3, note=47, velocity=100, time=0),
    Message('note_on', channel=3, note=47, velocity=0, time=240),
    Message('note_on', channel=3, note=59, velocity=0, time=0),
    Message('note_on', channel=3, note=54, velocity=0, time=0),
    Message('note_on', channel=3, note=53, velocity=100, time=0),
    Message('note_on', channel=3, note=58, velocity=100, time=0),
    Message('note_on', channel=3, note=46, velocity=100, time=0),
    Message('note_on', channel=3, note=46, velocity=0, time=240),
    Message('note_on', channel=3, note=58, velocity=0, time=0),
    Message('note_on', channel=3, note=53, velocity=0, time=0),
    Message('note_on', channel=3, note=52, velocity=100, time=0),
    Message('note_on', channel=3, note=57, velocity=100, time=0),
    Message('note_on', channel=3, note=45, velocity=100, time=0),
    Message('note_on', channel=3, note=45, velocity=0, time=240),
    Message('note_on', channel=3, note=57, velocity=0, time=0),
    Message('note_on', channel=3, note=52, velocity=0, time=0),
    Message('note_on', channel=3, note=52, velocity=100, time=0),
    Message('note_on', channel=3, note=57, velocity=100, time=0),
    Message('note_on', channel=3, note=45, velocity=100, time=0),
    Message('note_on', channel=3, note=45, velocity=0, time=240),
    Message('note_on', channel=3, note=57, velocity=0, time=0),
    Message('note_on', channel=3, note=52, velocity=0, time=0),
    Message('note_on', channel=3, note=38, velocity=100, time=0),
    Message('note_on', channel=3, note=33, velocity=100, time=0),
    Message('note_on', channel=3, note=33, velocity=0, time=60),
    Message('note_on', channel=3, note=38, velocity=0, time=0),
    Message('note_on', channel=3, note=38, velocity=100, time=60),
    Message('note_on', channel=3, note=33, velocity=100, time=0),
    Message('note_on', channel=3, note=33, velocity=0, time=60),
    Message('note_on', channel=3, note=38, velocity=0, time=0),
    Message('note_on', channel=3, note=38, velocity=100, time=60),
    Message('note_on', channel=3, note=33, velocity=100, time=0),
    Message('note_on', channel=3, note=33, velocity=0, time=60),
    Message('note_on', channel=3, note=38, velocity=0, time=0),
    Message('note_on', channel=3, note=51, velocity=100, time=60),
    Message('note_on', channel=3, note=56, velocity=100, time=0),
    Message('note_on', channel=3, note=44, velocity=100, time=0),
    Message('note_on', channel=3, note=44, velocity=0, time=120),
    Message('note_on', channel=3, note=56, velocity=0, time=0),
    Message('note_on', channel=3, note=51, velocity=0, time=0),
    Message('note_on', channel=3, note=51, velocity=100, time=0),
    Message('note_on', channel=3, note=56, velocity=100, time=0),
    Message('note_on', channel=3, note=44, velocity=100, time=0),
    Message('note_on', channel=3, note=44, velocity=0, time=120),
    Message('note_on', channel=3, note=56, velocity=0, time=0),
    Message('note_on', channel=3, note=51, velocity=0, time=0),
    Message('note_on', channel=3, note=52, velocity=100, time=0),
    Message('note_on', channel=3, note=57, velocity=100, time=0),
    Message('note_on', channel=3, note=45, velocity=100, time=0),
    Message('note_on', channel=3, note=45, velocity=0, time=120),
    Message('note_on', channel=3, note=57, velocity=0, time=0),
    Message('note_on', channel=3, note=52, velocity=0, time=0),
    Message('note_on', channel=3, note=52, velocity=100, time=0),
    Message('note_on', channel=3, note=57, velocity=100, time=0),
    Message('note_on', channel=3, note=45, velocity=100, time=0),
    Message('note_on', channel=3, note=45, velocity=0, time=240),
    Message('note_on', channel=3, note=57, velocity=0, time=0),
    Message('note_on', channel=3, note=52, velocity=0, time=0),
    Message('note_on', channel=3, note=52, velocity=100, time=0),
    Message('note_on', channel=3, note=57, velocity=100, time=0),
    Message('note_on', channel=3, note=45, velocity=100, time=0),
    Message('note_on', channel=3, note=45, velocity=0, time=240),
    Message('note_on', channel=3, note=57, velocity=0, time=0),
    Message('note_on', channel=3, note=52, velocity=0, time=0),
    Message('note_on', channel=3, note=53, velocity=100, time=0),
    Message('note_on', channel=3, note=58, velocity=100, time=0),
    Message('note_on', channel=3, note=46, velocity=100, time=0),
    Message('note_on', channel=3, note=46, velocity=0, time=240),
    Message('note_on', channel=3, note=58, velocity=0, time=0),
    Message('note_on', channel=3, note=53, velocity=0, time=0),
    Message('note_on', channel=3, note=54, velocity=100, time=0),
    Message('note_on', channel=3, note=59, velocity=100, time=0),
    Message('note_on', channel=3, note=47, velocity=100, time=0),
    Message('note_on', channel=3, note=47, velocity=0, time=240),
    Message('note_on', channel=3, note=59, velocity=0, time=0),
    Message('note_on', channel=3, note=54, velocity=0, time=0),
    Message('note_on', channel=3, note=54, velocity=100, time=0),
    Message('note_on', channel=3, note=59, velocity=100, time=0),
    Message('note_on', channel=3, note=47, velocity=100, time=0),
    Message('note_on', channel=3, note=47, velocity=0, time=240),
    Message('note_on', channel=3, note=59, velocity=0, time=0),
    Message('note_on', channel=3, note=54, velocity=0, time=0),
    Message('note_on', channel=3, note=40, velocity=100, time=0),
    Message('note_on', channel=3, note=35, velocity=100, time=0),
    Message('note_on', channel=3, note=35, velocity=0, time=60),
    Message('note_on', channel=3, note=40, velocity=0, time=0),
    Message('note_on', channel=3, note=40, velocity=100, time=60),
    Message('note_on', channel=3, note=35, velocity=100, time=0),
    Message('note_on', channel=3, note=35, velocity=0, time=60),
    Message('note_on', channel=3, note=40, velocity=0, time=0),
    Message('note_on', channel=3, note=57, velocity=100, time=60),
    Message('note_on', channel=3, note=62, velocity=100, time=0),
    Message('note_on', channel=3, note=50, velocity=100, time=0),
    Message('note_on', channel=3, note=50, velocity=0, time=240),
    Message('note_on', channel=3, note=62, velocity=0, time=0),
    Message('note_on', channel=3, note=57, velocity=0, time=0),
    Message('note_on', channel=3, note=40, velocity=100, time=0),
    Message('note_on', channel=3, note=35, velocity=100, time=0),
    Message('note_on', channel=3, note=35, velocity=0, time=60),
    Message('note_on', channel=3, note=40, velocity=0, time=0),
    Message('note_on', channel=3, note=40, velocity=100, time=60),
    Message('note_on', channel=3, note=35, velocity=100, time=0),
    Message('note_on', channel=3, note=35, velocity=0, time=60),
    Message('note_on', channel=3, note=40, velocity=0, time=0),
    Message('note_on', channel=3, note=54, velocity=100, time=60),
    Message('note_on', channel=3, note=59, velocity=100, time=0),
    Message('note_on', channel=3, note=47, velocity=100, time=0),
    Message('note_on', channel=3, note=47, velocity=0, time=240),
    Message('note_on', channel=3, note=59, velocity=0, time=0),
    Message('note_on', channel=3, note=54, velocity=0, time=0),
    Message('note_on', channel=3, note=54, velocity=100, time=0),
    Message('note_on', channel=3, note=59, velocity=100, time=0),
    Message('note_on', channel=3, note=47, velocity=100, time=0),
    Message('note_on', channel=3, note=47, velocity=0, time=240),
    Message('note_on', channel=3, note=59, velocity=0, time=0),
    Message('note_on', channel=3, note=54, velocity=0, time=0),
    Message('note_on', channel=3, note=53, velocity=100, time=0),
    Message('note_on', channel=3, note=58, velocity=100, time=0),
    Message('note_on', channel=3, note=46, velocity=100, time=0),
    Message('note_on', channel=3, note=46, velocity=0, time=240),
    Message('note_on', channel=3, note=58, velocity=0, time=0),
    Message('note_on', channel=3, note=53, velocity=0, time=0),
    Message('note_on', channel=3, note=52, velocity=100, time=0),
    Message('note_on', channel=3, note=57, velocity=100, time=0),
    Message('note_on', channel=3, note=45, velocity=100, time=0),
    Message('note_on', channel=3, note=45, velocity=0, time=240),
    Message('note_on', channel=3, note=57, velocity=0, time=0),
    Message('note_on', channel=3, note=52, velocity=0, time=0),
    Message('note_on', channel=3, note=52, velocity=100, time=0),
    Message('note_on', channel=3, note=57, velocity=100, time=0),
    Message('note_on', channel=3, note=45, velocity=100, time=0),
    Message('note_on', channel=3, note=45, velocity=0, time=240),
    Message('note_on', channel=3, note=57, velocity=0, time=0),
    Message('note_on', channel=3, note=52, velocity=0, time=0),
    Message('note_on', channel=3, note=57, velocity=100, time=0),
    Message('note_on', channel=3, note=45, velocity=100, time=0),
    Message('note_on', channel=3, note=52, velocity=100, time=0),
    Message('note_on', channel=3, note=52, velocity=0, time=240),
    Message('note_on', channel=3, note=45, velocity=0, time=0),
    Message('note_on', channel=3, note=57, velocity=0, time=0),
    Message('pitchwheel', channel=3, pitch=0, time=5040),
    Message('note_on', channel=3, note=64, velocity=75, time=0),
    Message('note_on', channel=3, note=59, velocity=75, time=0),
    Message('note_on', channel=3, note=52, velocity=75, time=0),
    Message('pitchwheel', channel=3, pitch=-2730, time=960),
    Message('pitchwheel', channel=3, pitch=-4095, time=60),
    Message('pitchwheel', channel=3, pitch=-8190, time=60),
    Message('note_on', channel=3, note=52, velocity=0, time=2760),
    Message('note_on', channel=3, note=59, velocity=0, time=0),
    Message('note_on', channel=3, note=64, velocity=0, time=0),
    Message('pitchwheel', channel=3, pitch=0, time=0),
    Message('note_on', channel=3, note=64, velocity=75, time=0),
    Message('note_on', channel=3, note=59, velocity=75, time=0),
    Message('note_on', channel=3, note=52, velocity=75, time=0),
    Message('pitchwheel', channel=3, pitch=-2730, time=960),
    Message('pitchwheel', channel=3, pitch=-4095, time=60),
    Message('pitchwheel', channel=3, pitch=-8190, time=60),
    Message('note_on', channel=3, note=52, velocity=0, time=2760),
    Message('note_on', channel=3, note=59, velocity=0, time=0),
    Message('note_on', channel=3, note=64, velocity=0, time=0),
    Message('pitchwheel', channel=3, pitch=0, time=0),
    Message('pitchwheel', channel=3, pitch=0, time=0),
    Message('pitchwheel', channel=3, pitch=0, time=0),
    Message('note_on', channel=3, note=52, velocity=100, time=0),
    Message('note_on', channel=3, note=64, velocity=100, time=0),
    Message('note_on', channel=3, note=59, velocity=100, time=0),
    Message('note_on', channel=3, note=59, velocity=0, time=960),
    Message('note_on', channel=3, note=64, velocity=0, time=0),
    Message('note_on', channel=3, note=52, velocity=0, time=0),
    Message('note_on', channel=3, note=50, velocity=100, time=0),
    Message('note_on', channel=3, note=62, velocity=100, time=0),
    Message('note_on', channel=3, note=57, velocity=100, time=0),
    Message('note_on', channel=3, note=57, velocity=0, time=960),
    Message('note_on', channel=3, note=62, velocity=0, time=0),
    Message('note_on', channel=3, note=50, velocity=0, time=0),
    Message('note_on', channel=3, note=49, velocity=100, time=0),
    Message('note_on', channel=3, note=61, velocity=100, time=0),
    Message('note_on', channel=3, note=56, velocity=100, time=0),
    Message('note_on', channel=3, note=56, velocity=0, time=960),
    Message('note_on', channel=3, note=61, velocity=0, time=0),
    Message('note_on', channel=3, note=49, velocity=0, time=0),
    Message('note_on', channel=3, note=48, velocity=100, time=0),
    Message('note_on', channel=3, note=60, velocity=100, time=0),
    Message('note_on', channel=3, note=55, velocity=100, time=0),
    Message('note_on', channel=3, note=55, velocity=0, time=960),
    Message('note_on', channel=3, note=60, velocity=0, time=0),
    Message('note_on', channel=3, note=48, velocity=0, time=0),
    Message('pitchwheel', channel=3, pitch=0, time=0),
    Message('pitchwheel', channel=3, pitch=0, time=0),
    Message('pitchwheel', channel=3, pitch=0, time=0),
    Message('note_on', channel=3, note=52, velocity=100, time=0),
    Message('note_on', channel=3, note=64, velocity=100, time=0),
    Message('note_on', channel=3, note=59, velocity=100, time=0),
    Message('note_on', channel=3, note=59, velocity=0, time=960),
    Message('note_on', channel=3, note=64, velocity=0, time=0),
    Message('note_on', channel=3, note=52, velocity=0, time=0),
    Message('note_on', channel=3, note=50, velocity=100, time=0),
    Message('note_on', channel=3, note=62, velocity=100, time=0),
    Message('note_on', channel=3, note=57, velocity=100, time=0),
    Message('note_on', channel=3, note=57, velocity=0, time=960),
    Message('note_on', channel=3, note=62, velocity=0, time=0),
    Message('note_on', channel=3, note=50, velocity=0, time=0),
    Message('note_on', channel=3, note=49, velocity=100, time=0),
    Message('note_on', channel=3, note=61, velocity=100, time=0),
    Message('note_on', channel=3, note=56, velocity=100, time=0),
    Message('note_on', channel=3, note=56, velocity=0, time=960),
    Message('note_on', channel=3, note=61, velocity=0, time=0),
    Message('note_on', channel=3, note=49, velocity=0, time=0),
    Message('note_on', channel=3, note=48, velocity=100, time=0),
    Message('note_on', channel=3, note=60, velocity=100, time=0),
    Message('note_on', channel=3, note=55, velocity=100, time=0),
    Message('note_on', channel=3, note=55, velocity=0, time=960),
    Message('note_on', channel=3, note=60, velocity=0, time=0),
    Message('note_on', channel=3, note=48, velocity=0, time=0),
    Message('pitchwheel', channel=3, pitch=0, time=0),
    Message('pitchwheel', channel=3, pitch=0, time=0),
    Message('pitchwheel', channel=3, pitch=0, time=0),
    Message('note_on', channel=3, note=52, velocity=100, time=0),
    Message('note_on', channel=3, note=64, velocity=100, time=0),
    Message('note_on', channel=3, note=59, velocity=100, time=0),
    Message('note_on', channel=3, note=59, velocity=0, time=960),
    Message('note_on', channel=3, note=64, velocity=0, time=0),
    Message('note_on', channel=3, note=52, velocity=0, time=0),
    Message('note_on', channel=3, note=50, velocity=100, time=0),
    Message('note_on', channel=3, note=62, velocity=100, time=0),
    Message('note_on', channel=3, note=57, velocity=100, time=0),
    Message('note_on', channel=3, note=57, velocity=0, time=960),
    Message('note_on', channel=3, note=62, velocity=0, time=0),
    Message('note_on', channel=3, note=50, velocity=0, time=0),
    Message('note_on', channel=3, note=49, velocity=100, time=0),
    Message('note_on', channel=3, note=61, velocity=100, time=0),
    Message('note_on', channel=3, note=56, velocity=100, time=0),
    Message('note_on', channel=3, note=56, velocity=0, time=960),
    Message('note_on', channel=3, note=61, velocity=0, time=0),
    Message('note_on', channel=3, note=49, velocity=0, time=0),
    Message('note_on', channel=3, note=48, velocity=100, time=0),
    Message('note_on', channel=3, note=60, velocity=100, time=0),
    Message('note_on', channel=3, note=55, velocity=100, time=0),
    Message('note_on', channel=3, note=55, velocity=0, time=960),
    Message('note_on', channel=3, note=60, velocity=0, time=0),
    Message('note_on', channel=3, note=48, velocity=0, time=0),
    Message('pitchwheel', channel=3, pitch=0, time=0),
    Message('pitchwheel', channel=3, pitch=0, time=0),
    Message('pitchwheel', channel=3, pitch=0, time=0),
    Message('note_on', channel=3, note=52, velocity=100, time=0),
    Message('note_on', channel=3, note=64, velocity=100, time=0),
    Message('note_on', channel=3, note=59, velocity=100, time=0),
    Message('note_on', channel=3, note=59, velocity=0, time=960),
    Message('note_on', channel=3, note=64, velocity=0, time=0),
    Message('note_on', channel=3, note=52, velocity=0, time=0),
    Message('note_on', channel=3, note=50, velocity=100, time=0),
    Message('note_on', channel=3, note=62, velocity=100, time=0),
    Message('note_on', channel=3, note=57, velocity=100, time=0),
    Message('note_on', channel=3, note=57, velocity=0, time=960),
    Message('note_on', channel=3, note=62, velocity=0, time=0),
    Message('note_on', channel=3, note=50, velocity=0, time=0),
    Message('note_on', channel=3, note=49, velocity=100, time=0),
    Message('note_on', channel=3, note=61, velocity=100, time=0),
    Message('note_on', channel=3, note=56, velocity=100, time=0),
    Message('note_on', channel=3, note=56, velocity=0, time=960),
    Message('note_on', channel=3, note=61, velocity=0, time=0),
    Message('note_on', channel=3, note=49, velocity=0, time=0),
    Message('note_on', channel=3, note=48, velocity=100, time=0),
    Message('note_on', channel=3, note=60, velocity=100, time=0),
    Message('note_on', channel=3, note=55, velocity=100, time=0),
    Message('note_on', channel=3, note=55, velocity=0, time=960),
    Message('note_on', channel=3, note=60, velocity=0, time=0),
    Message('note_on', channel=3, note=48, velocity=0, time=0),
    Message('pitchwheel', channel=3, pitch=0, time=0),
    Message('pitchwheel', channel=3, pitch=0, time=0),
    Message('pitchwheel', channel=3, pitch=0, time=0),
    Message('note_on', channel=3, note=52, velocity=100, time=0),
    Message('note_on', channel=3, note=64, velocity=100, time=0),
    Message('note_on', channel=3, note=59, velocity=100, time=0),
    Message('note_on', channel=3, note=59, velocity=0, time=960),
    Message('note_on', channel=3, note=64, velocity=0, time=0),
    Message('note_on', channel=3, note=52, velocity=0, time=0),
    Message('note_on', channel=3, note=50, velocity=100, time=0),
    Message('note_on', channel=3, note=62, velocity=100, time=0),
    Message('note_on', channel=3, note=57, velocity=100, time=0),
    Message('note_on', channel=3, note=57, velocity=0, time=960),
    Message('note_on', channel=3, note=62, velocity=0, time=0),
    Message('note_on', channel=3, note=50, velocity=0, time=0),
    Message('note_on', channel=3, note=49, velocity=100, time=0),
    Message('note_on', channel=3, note=61, velocity=100, time=0),
    Message('note_on', channel=3, note=56, velocity=100, time=0),
    Message('note_on', channel=3, note=56, velocity=0, time=960),
    Message('note_on', channel=3, note=61, velocity=0, time=0),
    Message('note_on', channel=3, note=49, velocity=0, time=0),
    Message('note_on', channel=3, note=48, velocity=100, time=0),
    Message('note_on', channel=3, note=60, velocity=100, time=0),
    Message('note_on', channel=3, note=55, velocity=100, time=0),
    Message('note_on', channel=3, note=55, velocity=0, time=960),
    Message('note_on', channel=3, note=60, velocity=0, time=0),
    Message('note_on', channel=3, note=48, velocity=0, time=0),
    Message('pitchwheel', channel=3, pitch=0, time=0),
    Message('pitchwheel', channel=3, pitch=0, time=0),
    Message('pitchwheel', channel=3, pitch=0, time=0),
    Message('note_on', channel=3, note=52, velocity=100, time=0),
    Message('note_on', channel=3, note=64, velocity=100, time=0),
    Message('note_on', channel=3, note=59, velocity=100, time=0),
    Message('note_on', channel=3, note=59, velocity=0, time=960),
    Message('note_on', channel=3, note=64, velocity=0, time=0),
    Message('note_on', channel=3, note=52, velocity=0, time=0),
    Message('note_on', channel=3, note=50, velocity=100, time=0),
    Message('note_on', channel=3, note=62, velocity=100, time=0),
    Message('note_on', channel=3, note=57, velocity=100, time=0),
    Message('note_on', channel=3, note=57, velocity=0, time=960),
    Message('note_on', channel=3, note=62, velocity=0, time=0),
    Message('note_on', channel=3, note=50, velocity=0, time=0),
    Message('note_on', channel=3, note=49, velocity=100, time=0),
    Message('note_on', channel=3, note=61, velocity=100, time=0),
    Message('note_on', channel=3, note=56, velocity=100, time=0),
    Message('note_on', channel=3, note=56, velocity=0, time=960),
    Message('note_on', channel=3, note=61, velocity=0, time=0),
    Message('note_on', channel=3, note=49, velocity=0, time=0),
    Message('note_on', channel=3, note=48, velocity=100, time=0),
    Message('note_on', channel=3, note=60, velocity=100, time=0),
    Message('note_on', channel=3, note=55, velocity=100, time=0),
    Message('note_on', channel=3, note=55, velocity=0, time=960),
    Message('note_on', channel=3, note=60, velocity=0, time=0),
    Message('note_on', channel=3, note=48, velocity=0, time=0),
    Message('pitchwheel', channel=3, pitch=0, time=0),
    Message('pitchwheel', channel=3, pitch=0, time=0),
    Message('pitchwheel', channel=3, pitch=0, time=0),
    Message('note_on', channel=3, note=52, velocity=100, time=0),
    Message('note_on', channel=3, note=64, velocity=100, time=0),
    Message('note_on', channel=3, note=59, velocity=100, time=0),
    Message('note_on', channel=3, note=59, velocity=0, time=960),
    Message('note_on', channel=3, note=64, velocity=0, time=0),
    Message('note_on', channel=3, note=52, velocity=0, time=0),
    Message('note_on', channel=3, note=50, velocity=100, time=0),
    Message('note_on', channel=3, note=62, velocity=100, time=0),
    Message('note_on', channel=3, note=57, velocity=100, time=0),
    Message('note_on', channel=3, note=57, velocity=0, time=960),
    Message('note_on', channel=3, note=62, velocity=0, time=0),
    Message('note_on', channel=3, note=50, velocity=0, time=0),
    Message('note_on', channel=3, note=49, velocity=100, time=0),
    Message('note_on', channel=3, note=61, velocity=100, time=0),
    Message('note_on', channel=3, note=56, velocity=100, time=0),
    Message('note_on', channel=3, note=56, velocity=0, time=960),
    Message('note_on', channel=3, note=61, velocity=0, time=0),
    Message('note_on', channel=3, note=49, velocity=0, time=0),
    Message('note_on', channel=3, note=48, velocity=100, time=0),
    Message('note_on', channel=3, note=60, velocity=100, time=0),
    Message('note_on', channel=3, note=55, velocity=100, time=0),
    Message('note_on', channel=3, note=55, velocity=0, time=960),
    Message('note_on', channel=3, note=60, velocity=0, time=0),
    Message('note_on', channel=3, note=48, velocity=0, time=0),
    Message('pitchwheel', channel=3, pitch=0, time=0),
    Message('pitchwheel', channel=3, pitch=0, time=0),
    Message('pitchwheel', channel=3, pitch=0, time=0),
    Message('note_on', channel=3, note=52, velocity=100, time=0),
    Message('note_on', channel=3, note=64, velocity=100, time=0),
    Message('note_on', channel=3, note=59, velocity=100, time=0),
    Message('note_on', channel=3, note=59, velocity=0, time=960),
    Message('note_on', channel=3, note=64, velocity=0, time=0),
    Message('note_on', channel=3, note=52, velocity=0, time=0),
    Message('note_on', channel=3, note=50, velocity=100, time=0),
    Message('note_on', channel=3, note=62, velocity=100, time=0),
    Message('note_on', channel=3, note=57, velocity=100, time=0),
    Message('note_on', channel=3, note=57, velocity=0, time=960),
    Message('note_on', channel=3, note=62, velocity=0, time=0),
    Message('note_on', channel=3, note=50, velocity=0, time=0),
    Message('note_on', channel=3, note=49, velocity=100, time=0),
    Message('note_on', channel=3, note=61, velocity=100, time=0),
    Message('note_on', channel=3, note=56, velocity=100, time=0),
    Message('note_on', channel=3, note=56, velocity=0, time=960),
    Message('note_on', channel=3, note=61, velocity=0, time=0),
    Message('note_on', channel=3, note=49, velocity=0, time=0),
    Message('note_on', channel=3, note=48, velocity=100, time=0),
    Message('note_on', channel=3, note=60, velocity=100, time=0),
    Message('note_on', channel=3, note=55, velocity=100, time=0),
    Message('note_on', channel=3, note=55, velocity=0, time=960),
    Message('note_on', channel=3, note=60, velocity=0, time=0),
    Message('note_on', channel=3, note=48, velocity=0, time=0),
    Message('pitchwheel', channel=3, pitch=0, time=0),
    Message('pitchwheel', channel=3, pitch=0, time=0),
    Message('pitchwheel', channel=3, pitch=0, time=0),
    Message('note_on', channel=3, note=52, velocity=100, time=0),
    Message('note_on', channel=3, note=64, velocity=100, time=0),
    Message('note_on', channel=3, note=59, velocity=100, time=0),
    Message('note_on', channel=3, note=59, velocity=0, time=960),
    Message('note_on', channel=3, note=64, velocity=0, time=0),
    Message('note_on', channel=3, note=52, velocity=0, time=0),
    Message('note_on', channel=3, note=50, velocity=100, time=0),
    Message('note_on', channel=3, note=62, velocity=100, time=0),
    Message('note_on', channel=3, note=57, velocity=100, time=0),
    Message('note_on', channel=3, note=57, velocity=0, time=960),
    Message('note_on', channel=3, note=62, velocity=0, time=0),
    Message('note_on', channel=3, note=50, velocity=0, time=0),
    Message('note_on', channel=3, note=49, velocity=100, time=0),
    Message('note_on', channel=3, note=61, velocity=100, time=0),
    Message('note_on', channel=3, note=56, velocity=100, time=0),
    Message('note_on', channel=3, note=56, velocity=0, time=960),
    Message('note_on', channel=3, note=61, velocity=0, time=0),
    Message('note_on', channel=3, note=49, velocity=0, time=0),
    Message('note_on', channel=3, note=48, velocity=100, time=0),
    Message('note_on', channel=3, note=60, velocity=100, time=0),
    Message('note_on', channel=3, note=55, velocity=100, time=0),
    Message('note_on', channel=3, note=55, velocity=0, time=960),
    Message('note_on', channel=3, note=60, velocity=0, time=0),
    Message('note_on', channel=3, note=48, velocity=0, time=0),
    Message('pitchwheel', channel=3, pitch=0, time=0),
    Message('pitchwheel', channel=3, pitch=0, time=0),
    Message('pitchwheel', channel=3, pitch=0, time=0),
    Message('note_on', channel=3, note=52, velocity=100, time=0),
    Message('note_on', channel=3, note=64, velocity=100, time=0),
    Message('note_on', channel=3, note=59, velocity=100, time=0),
    Message('note_on', channel=3, note=59, velocity=0, time=960),
    Message('note_on', channel=3, note=64, velocity=0, time=0),
    Message('note_on', channel=3, note=52, velocity=0, time=0),
    Message('note_on', channel=3, note=50, velocity=100, time=0),
    Message('note_on', channel=3, note=62, velocity=100, time=0),
    Message('note_on', channel=3, note=57, velocity=100, time=0),
    Message('note_on', channel=3, note=57, velocity=0, time=960),
    Message('note_on', channel=3, note=62, velocity=0, time=0),
    Message('note_on', channel=3, note=50, velocity=0, time=0),
    Message('note_on', channel=3, note=49, velocity=100, time=0),
    Message('note_on', channel=3, note=61, velocity=100, time=0),
    Message('note_on', channel=3, note=56, velocity=100, time=0),
    Message('note_on', channel=3, note=56, velocity=0, time=960),
    Message('note_on', channel=3, note=61, velocity=0, time=0),
    Message('note_on', channel=3, note=49, velocity=0, time=0),
    Message('note_on', channel=3, note=61, velocity=100, time=0),
    Message('note_on', channel=3, note=66, velocity=100, time=0),
    Message('note_on', channel=3, note=54, velocity=100, time=0),
    Message('note_on', channel=3, note=54, velocity=0, time=160),
    Message('note_on', channel=3, note=66, velocity=0, time=0),
    Message('note_on', channel=3, note=61, velocity=0, time=0),
    Message('note_on', channel=3, note=62, velocity=100, time=0),
    Message('note_on', channel=3, note=67, velocity=100, time=0),
    Message('note_on', channel=3, note=55, velocity=100, time=0),
    Message('note_on', channel=3, note=55, velocity=0, time=160),
    Message('note_on', channel=3, note=67, velocity=0, time=0),
    Message('note_on', channel=3, note=62, velocity=0, time=0),
    Message('note_on', channel=3, note=61, velocity=100, time=0),
    Message('note_on', channel=3, note=66, velocity=100, time=0),
    Message('note_on', channel=3, note=54, velocity=100, time=0),
    Message('note_on', channel=3, note=54, velocity=0, time=160),
    Message('note_on', channel=3, note=66, velocity=0, time=0),
    Message('note_on', channel=3, note=61, velocity=0, time=0),
    Message('note_on', channel=3, note=62, velocity=100, time=0),
    Message('note_on', channel=3, note=67, velocity=100, time=0),
    Message('note_on', channel=3, note=55, velocity=100, time=0),
    Message('note_on', channel=3, note=55, velocity=0, time=160),
    Message('note_on', channel=3, note=67, velocity=0, time=0),
    Message('note_on', channel=3, note=62, velocity=0, time=0),
    Message('note_on', channel=3, note=61, velocity=100, time=0),
    Message('note_on', channel=3, note=66, velocity=100, time=0),
    Message('note_on', channel=3, note=54, velocity=100, time=0),
    Message('note_on', channel=3, note=54, velocity=0, time=160),
    Message('note_on', channel=3, note=66, velocity=0, time=0),
    Message('note_on', channel=3, note=61, velocity=0, time=0),
    Message('note_on', channel=3, note=57, velocity=100, time=0),
    Message('note_on', channel=3, note=62, velocity=100, time=0),
    Message('note_on', channel=3, note=50, velocity=100, time=0),
    Message('note_on', channel=3, note=50, velocity=0, time=160),
    Message('note_on', channel=3, note=62, velocity=0, time=0),
    Message('note_on', channel=3, note=57, velocity=0, time=0),
    Message('pitchwheel', channel=3, pitch=0, time=0),
    Message('pitchwheel', channel=3, pitch=0, time=0),
    Message('pitchwheel', channel=3, pitch=0, time=0),
    Message('note_on', channel=3, note=52, velocity=100, time=0),
    Message('note_on', channel=3, note=64, velocity=100, time=0),
    Message('note_on', channel=3, note=59, velocity=100, time=0),
    Message('note_on', channel=3, note=59, velocity=0, time=960),
    Message('note_on', channel=3, note=64, velocity=0, time=0),
    Message('note_on', channel=3, note=52, velocity=0, time=0),
    Message('note_on', channel=3, note=50, velocity=100, time=0),
    Message('note_on', channel=3, note=62, velocity=100, time=0),
    Message('note_on', channel=3, note=57, velocity=100, time=0),
    Message('note_on', channel=3, note=57, velocity=0, time=960),
    Message('note_on', channel=3, note=62, velocity=0, time=0),
    Message('note_on', channel=3, note=50, velocity=0, time=0),
    Message('note_on', channel=3, note=49, velocity=100, time=0),
    Message('note_on', channel=3, note=61, velocity=100, time=0),
    Message('note_on', channel=3, note=56, velocity=100, time=0),
    Message('note_on', channel=3, note=56, velocity=0, time=960),
    Message('note_on', channel=3, note=61, velocity=0, time=0),
    Message('note_on', channel=3, note=49, velocity=0, time=0),
    Message('note_on', channel=3, note=61, velocity=100, time=0),
    Message('note_on', channel=3, note=66, velocity=100, time=0),
    Message('note_on', channel=3, note=54, velocity=100, time=0),
    Message('note_on', channel=3, note=54, velocity=0, time=160),
    Message('note_on', channel=3, note=66, velocity=0, time=0),
    Message('note_on', channel=3, note=61, velocity=0, time=0),
    Message('note_on', channel=3, note=62, velocity=100, time=0),
    Message('note_on', channel=3, note=67, velocity=100, time=0),
    Message('note_on', channel=3, note=55, velocity=100, time=0),
    Message('note_on', channel=3, note=55, velocity=0, time=160),
    Message('note_on', channel=3, note=67, velocity=0, time=0),
    Message('note_on', channel=3, note=62, velocity=0, time=0),
    Message('note_on', channel=3, note=61, velocity=100, time=0),
    Message('note_on', channel=3, note=66, velocity=100, time=0),
    Message('note_on', channel=3, note=54, velocity=100, time=0),
    Message('note_on', channel=3, note=54, velocity=0, time=160),
    Message('note_on', channel=3, note=66, velocity=0, time=0),
    Message('note_on', channel=3, note=61, velocity=0, time=0),
    Message('note_on', channel=3, note=62, velocity=100, time=0),
    Message('note_on', channel=3, note=67, velocity=100, time=0),
    Message('note_on', channel=3, note=55, velocity=100, time=0),
    Message('note_on', channel=3, note=55, velocity=0, time=160),
    Message('note_on', channel=3, note=67, velocity=0, time=0),
    Message('note_on', channel=3, note=62, velocity=0, time=0),
    Message('note_on', channel=3, note=61, velocity=100, time=0),
    Message('note_on', channel=3, note=66, velocity=100, time=0),
    Message('note_on', channel=3, note=54, velocity=100, time=0),
    Message('note_on', channel=3, note=54, velocity=0, time=160),
    Message('note_on', channel=3, note=66, velocity=0, time=0),
    Message('note_on', channel=3, note=61, velocity=0, time=0),
    Message('note_on', channel=3, note=57, velocity=100, time=0),
    Message('note_on', channel=3, note=62, velocity=100, time=0),
    Message('note_on', channel=3, note=50, velocity=100, time=0),
    Message('note_on', channel=3, note=50, velocity=0, time=160),
    Message('note_on', channel=3, note=62, velocity=0, time=0),
    Message('note_on', channel=3, note=57, velocity=0, time=0),
    Message('pitchwheel', channel=3, pitch=0, time=0),
    Message('pitchwheel', channel=3, pitch=0, time=0),
    Message('pitchwheel', channel=3, pitch=0, time=0),
    Message('note_on', channel=3, note=52, velocity=100, time=0),
    Message('note_on', channel=3, note=64, velocity=100, time=0),
    Message('note_on', channel=3, note=59, velocity=100, time=0),
    Message('note_on', channel=3, note=59, velocity=0, time=960),
    Message('note_on', channel=3, note=64, velocity=0, time=0),
    Message('note_on', channel=3, note=52, velocity=0, time=0),
    Message('note_on', channel=3, note=50, velocity=100, time=0),
    Message('note_on', channel=3, note=62, velocity=100, time=0),
    Message('note_on', channel=3, note=57, velocity=100, time=0),
    Message('note_on', channel=3, note=57, velocity=0, time=960),
    Message('note_on', channel=3, note=62, velocity=0, time=0),
    Message('note_on', channel=3, note=50, velocity=0, time=0),
    Message('note_on', channel=3, note=49, velocity=100, time=0),
    Message('note_on', channel=3, note=61, velocity=100, time=0),
    Message('note_on', channel=3, note=56, velocity=100, time=0),
    Message('note_on', channel=3, note=56, velocity=0, time=960),
    Message('note_on', channel=3, note=61, velocity=0, time=0),
    Message('note_on', channel=3, note=49, velocity=0, time=0),
    Message('note_on', channel=3, note=61, velocity=100, time=0),
    Message('note_on', channel=3, note=66, velocity=100, time=0),
    Message('note_on', channel=3, note=54, velocity=100, time=0),
    Message('note_on', channel=3, note=54, velocity=0, time=160),
    Message('note_on', channel=3, note=66, velocity=0, time=0),
    Message('note_on', channel=3, note=61, velocity=0, time=0),
    Message('note_on', channel=3, note=62, velocity=100, time=0),
    Message('note_on', channel=3, note=67, velocity=100, time=0),
    Message('note_on', channel=3, note=55, velocity=100, time=0),
    Message('note_on', channel=3, note=55, velocity=0, time=160),
    Message('note_on', channel=3, note=67, velocity=0, time=0),
    Message('note_on', channel=3, note=62, velocity=0, time=0),
    Message('note_on', channel=3, note=61, velocity=100, time=0),
    Message('note_on', channel=3, note=66, velocity=100, time=0),
    Message('note_on', channel=3, note=54, velocity=100, time=0),
    Message('note_on', channel=3, note=54, velocity=0, time=160),
    Message('note_on', channel=3, note=66, velocity=0, time=0),
    Message('note_on', channel=3, note=61, velocity=0, time=0),
    Message('note_on', channel=3, note=62, velocity=100, time=0),
    Message('note_on', channel=3, note=67, velocity=100, time=0),
    Message('note_on', channel=3, note=55, velocity=100, time=0),
    Message('note_on', channel=3, note=55, velocity=0, time=160),
    Message('note_on', channel=3, note=67, velocity=0, time=0),
    Message('note_on', channel=3, note=62, velocity=0, time=0),
    Message('note_on', channel=3, note=61, velocity=100, time=0),
    Message('note_on', channel=3, note=66, velocity=100, time=0),
    Message('note_on', channel=3, note=54, velocity=100, time=0),
    Message('note_on', channel=3, note=54, velocity=0, time=160),
    Message('note_on', channel=3, note=66, velocity=0, time=0),
    Message('note_on', channel=3, note=61, velocity=0, time=0),
    Message('note_on', channel=3, note=57, velocity=100, time=0),
    Message('note_on', channel=3, note=62, velocity=100, time=0),
    Message('note_on', channel=3, note=50, velocity=100, time=0),
    Message('note_on', channel=3, note=50, velocity=0, time=160),
    Message('note_on', channel=3, note=62, velocity=0, time=0),
    Message('note_on', channel=3, note=57, velocity=0, time=0),
    Message('note_on', channel=3, note=52, velocity=100, time=0),
    Message('note_on', channel=3, note=59, velocity=100, time=0),
    Message('note_on', channel=3, note=64, velocity=100, time=0),
    Message('note_on', channel=3, note=64, velocity=0, time=240),
    Message('note_on', channel=3, note=59, velocity=0, time=0),
    Message('note_on', channel=3, note=52, velocity=0, time=0),
    MetaMessage('end_of_track', time=0)]),
  MidiTrack([
    MetaMessage('track_name', name='Rhythm Guitar', time=0),
    Message('control_change', channel=4, control=0, value=121, time=0),
    Message('control_change', channel=4, control=7, value=80, time=0),
    Message('control_change', channel=4, control=10, value=127, time=0),
    Message('control_change', channel=4, control=91, value=24, time=0),
    Message('control_change', channel=4, control=93, value=24, time=0),
    Message('control_change', channel=4, control=32, value=0, time=0),
    Message('program_change', channel=4, program=29, time=1),
    Message('note_on', channel=4, note=53, velocity=75, time=3839),
    Message('note_on', channel=4, note=60, velocity=75, time=0),
    Message('note_on', channel=4, note=65, velocity=75, time=0),
    Message('pitchwheel', channel=4, pitch=0, time=0),
    Message('pitchwheel', channel=4, pitch=-1365, time=960),
    Message('pitchwheel', channel=4, pitch=-2730, time=60),
    Message('pitchwheel', channel=4, pitch=-4095, time=60),
    Message('note_on', channel=4, note=65, velocity=0, time=360),
    Message('note_on', channel=4, note=60, velocity=0, time=0),
    Message('note_on', channel=4, note=53, velocity=0, time=0),
    Message('note_on', channel=4, note=60, velocity=75, time=960),
    Message('note_on', channel=4, note=65, velocity=75, time=0),
    Message('note_on', channel=4, note=53, velocity=75, time=0),
    Message('note_on', channel=4, note=53, velocity=0, time=480),
    Message('note_on', channel=4, note=65, velocity=0, time=0),
    Message('note_on', channel=4, note=60, velocity=0, time=0),
    Message('note_on', channel=4, note=60, velocity=75, time=0),
    Message('note_on', channel=4, note=65, velocity=75, time=0),
    Message('note_on', channel=4, note=53, velocity=75, time=0),
    Message('note_on', channel=4, note=53, velocity=0, time=480),
    Message('note_on', channel=4, note=65, velocity=0, time=0),
    Message('note_on', channel=4, note=60, velocity=0, time=0),
    Message('note_on', channel=4, note=60, velocity=75, time=0),
    Message('note_on', channel=4, note=65, velocity=75, time=0),
    Message('note_on', channel=4, note=53, velocity=75, time=0),
    Message('note_on', channel=4, note=53, velocity=0, time=480),
    Message('note_on', channel=4, note=65, velocity=0, time=0),
    Message('note_on', channel=4, note=60, velocity=0, time=0),
    Message('pitchwheel', channel=4, pitch=0, time=0),
    Message('note_on', channel=4, note=65, velocity=75, time=0),
    Message('note_on', channel=4, note=60, velocity=75, time=0),
    Message('note_on', channel=4, note=53, velocity=75, time=0),
    Message('pitchwheel', channel=4, pitch=-1365, time=960),
    Message('pitchwheel', channel=4, pitch=-2730, time=60),
    Message('pitchwheel', channel=4, pitch=-4095, time=60),
    Message('note_on', channel=4, note=53, velocity=0, time=360),
    Message('note_on', channel=4, note=60, velocity=0, time=0),
    Message('note_on', channel=4, note=65, velocity=0, time=0),
    Message('note_on', channel=4, note=60, velocity=75, time=960),
    Message('note_on', channel=4, note=65, velocity=75, time=0),
    Message('note_on', channel=4, note=53, velocity=75, time=0),
    Message('note_on', channel=4, note=53, velocity=0, time=480),
    Message('note_on', channel=4, note=65, velocity=0, time=0),
    Message('note_on', channel=4, note=60, velocity=0, time=0),
    Message('note_on', channel=4, note=60, velocity=75, time=0),
    Message('note_on', channel=4, note=65, velocity=75, time=0),
    Message('note_on', channel=4, note=53, velocity=75, time=0),
    Message('note_on', channel=4, note=53, velocity=0, time=480),
    Message('note_on', channel=4, note=65, velocity=0, time=0),
    Message('note_on', channel=4, note=60, velocity=0, time=0),
    Message('note_on', channel=4, note=60, velocity=75, time=0),
    Message('note_on', channel=4, note=65, velocity=75, time=0),
    Message('note_on', channel=4, note=53, velocity=75, time=0),
    Message('note_on', channel=4, note=53, velocity=0, time=480),
    Message('note_on', channel=4, note=65, velocity=0, time=0),
    Message('note_on', channel=4, note=60, velocity=0, time=0),
    Message('pitchwheel', channel=4, pitch=0, time=0),
    Message('note_on', channel=4, note=65, velocity=75, time=0),
    Message('note_on', channel=4, note=60, velocity=75, time=0),
    Message('note_on', channel=4, note=53, velocity=75, time=0),
    Message('pitchwheel', channel=4, pitch=-1365, time=960),
    Message('pitchwheel', channel=4, pitch=-2730, time=60),
    Message('pitchwheel', channel=4, pitch=-4095, time=60),
    Message('note_on', channel=4, note=53, velocity=0, time=360),
    Message('note_on', channel=4, note=60, velocity=0, time=0),
    Message('note_on', channel=4, note=65, velocity=0, time=0),
    Message('note_on', channel=4, note=60, velocity=75, time=960),
    Message('note_on', channel=4, note=65, velocity=75, time=0),
    Message('note_on', channel=4, note=53, velocity=75, time=0),
    Message('note_on', channel=4, note=53, velocity=0, time=480),
    Message('note_on', channel=4, note=65, velocity=0, time=0),
    Message('note_on', channel=4, note=60, velocity=0, time=0),
    Message('note_on', channel=4, note=60, velocity=75, time=0),
    Message('note_on', channel=4, note=65, velocity=75, time=0),
    Message('note_on', channel=4, note=53, velocity=75, time=0),
    Message('note_on', channel=4, note=53, velocity=0, time=480),
    Message('note_on', channel=4, note=65, velocity=0, time=0),
    Message('note_on', channel=4, note=60, velocity=0, time=0),
    Message('note_on', channel=4, note=60, velocity=75, time=0),
    Message('note_on', channel=4, note=65, velocity=75, time=0),
    Message('note_on', channel=4, note=53, velocity=75, time=0),
    Message('note_on', channel=4, note=53, velocity=0, time=480),
    Message('note_on', channel=4, note=65, velocity=0, time=0),
    Message('note_on', channel=4, note=60, velocity=0, time=0),
    Message('pitchwheel', channel=4, pitch=0, time=0),
    Message('note_on', channel=4, note=47, velocity=100, time=0),
    Message('note_on', channel=4, note=54, velocity=100, time=0),
    Message('note_on', channel=4, note=59, velocity=100, time=0),
    Message('note_on', channel=4, note=54, velocity=100, time=0),
    Message('note_on', channel=4, note=59, velocity=100, time=0),
    Message('note_on', channel=4, note=54, velocity=100, time=0),
    Message('note_on', channel=4, note=59, velocity=100, time=0),
    Message('note_on', channel=4, note=59, velocity=0, time=480),
    Message('note_on', channel=4, note=59, velocity=0, time=0),
    Message('note_on', channel=4, note=54, velocity=0, time=0),
    Message('note_on', channel=4, note=59, velocity=0, time=0),
    Message('note_on', channel=4, note=47, velocity=0, time=0),
    Message('note_on', channel=4, note=54, velocity=0, time=0),
    Message('note_on', channel=4, note=54, velocity=0, time=0),
    Message('note_on', channel=4, note=62, velocity=100, time=0),
    Message('note_on', channel=4, note=57, velocity=100, time=0),
    Message('note_on', channel=4, note=50, velocity=100, time=0),
    Message('note_on', channel=4, note=50, velocity=0, time=480),
    Message('note_on', channel=4, note=57, velocity=0, time=0),
    Message('note_on', channel=4, note=62, velocity=0, time=0),
    Message('note_on', channel=4, note=62, velocity=100, time=0),
    Message('note_on', channel=4, note=57, velocity=100, time=0),
    Message('note_on', channel=4, note=50, velocity=100, time=0),
    Message('pitchwheel', channel=4, pitch=1365, time=180),
    Message('note_on', channel=4, note=50, velocity=0, time=60),
    Message('note_on', channel=4, note=57, velocity=0, time=0),
    Message('note_on', channel=4, note=62, velocity=0, time=0),
    Message('pitchwheel', channel=4, pitch=0, time=0),
    Message('note_on', channel=4, note=64, velocity=100, time=0),
    Message('note_on', channel=4, note=59, velocity=100, time=0),
    Message('note_on', channel=4, note=52, velocity=100, time=0),
    Message('note_on', channel=4, note=52, velocity=0, time=240),
    Message('note_on', channel=4, note=59, velocity=0, time=0),
    Message('note_on', channel=4, note=64, velocity=0, time=0),
    Message('note_on', channel=4, note=64, velocity=100, time=0),
    Message('note_on', channel=4, note=59, velocity=100, time=0),
    Message('note_on', channel=4, note=52, velocity=100, time=0),
    Message('note_on', channel=4, note=52, velocity=0, time=480),
    Message('note_on', channel=4, note=59, velocity=0, time=0),
    Message('note_on', channel=4, note=64, velocity=0, time=0),
    Message('note_on', channel=4, note=67, velocity=100, time=0),
    Message('note_on', channel=4, note=62, velocity=100, time=0),
    Message('note_on', channel=4, note=55, velocity=100, time=0),
    Message('note_on', channel=4, note=55, velocity=0, time=120),
    Message('note_on', channel=4, note=62, velocity=0, time=0),
    Message('note_on', channel=4, note=67, velocity=0, time=0),
    Message('note_on', channel=4, note=66, velocity=100, time=0),
    Message('note_on', channel=4, note=61, velocity=100, time=0),
    Message('note_on', channel=4, note=54, velocity=100, time=0),
    Message('note_on', channel=4, note=54, velocity=0, time=120),
    Message('note_on', channel=4, note=61, velocity=0, time=0),
    Message('note_on', channel=4, note=66, velocity=0, time=0),
    Message('note_on', channel=4, note=67, velocity=100, time=0),
    Message('note_on', channel=4, note=62, velocity=100, time=0),
    Message('note_on', channel=4, note=55, velocity=100, time=0),
    Message('note_on', channel=4, note=55, velocity=0, time=120),
    Message('note_on', channel=4, note=62, velocity=0, time=0),
    Message('note_on', channel=4, note=67, velocity=0, time=0),
    Message('note_on', channel=4, note=66, velocity=100, time=0),
    Message('note_on', channel=4, note=61, velocity=100, time=0),
    Message('note_on', channel=4, note=54, velocity=100, time=0),
    Message('note_on', channel=4, note=54, velocity=0, time=120),
    Message('note_on', channel=4, note=61, velocity=0, time=0),
    Message('note_on', channel=4, note=66, velocity=0, time=0),
    Message('note_on', channel=4, note=67, velocity=100, time=0),
    Message('note_on', channel=4, note=62, velocity=100, time=0),
    Message('note_on', channel=4, note=55, velocity=100, time=0),
    Message('note_on', channel=4, note=55, velocity=0, time=120),
    Message('note_on', channel=4, note=62, velocity=0, time=0),
    Message('note_on', channel=4, note=67, velocity=0, time=0),
    Message('note_on', channel=4, note=66, velocity=100, time=0),
    Message('note_on', channel=4, note=61, velocity=100, time=0),
    Message('note_on', channel=4, note=54, velocity=100, time=0),
    Message('note_on', channel=4, note=54, velocity=0, time=120),
    Message('note_on', channel=4, note=61, velocity=0, time=0),
    Message('note_on', channel=4, note=66, velocity=0, time=0),
    Message('note_on', channel=4, note=62, velocity=100, time=0),
    Message('note_on', channel=4, note=57, velocity=100, time=0),
    Message('note_on', channel=4, note=50, velocity=100, time=0),
    Message('note_on', channel=4, note=50, velocity=0, time=234),
    Message('note_on', channel=4, note=57, velocity=0, time=0),
    Message('note_on', channel=4, note=62, velocity=0, time=0),
    Message('note_on', channel=4, note=62, velocity=100, time=6),
    Message('note_on', channel=4, note=57, velocity=100, time=0),
    Message('note_on', channel=4, note=50, velocity=100, time=0),
    Message('pitchwheel', channel=4, pitch=1365, time=180),
    Message('note_on', channel=4, note=50, velocity=0, time=60),
    Message('note_on', channel=4, note=57, velocity=0, time=0),
    Message('note_on', channel=4, note=62, velocity=0, time=0),
    Message('pitchwheel', channel=4, pitch=0, time=0),
    Message('note_on', channel=4, note=64, velocity=100, time=0),
    Message('note_on', channel=4, note=59, velocity=100, time=0),
    Message('note_on', channel=4, note=52, velocity=100, time=0),
    Message('note_on', channel=4, note=52, velocity=0, time=240),
    Message('note_on', channel=4, note=59, velocity=0, time=0),
    Message('note_on', channel=4, note=64, velocity=0, time=0),
    Message('note_on', channel=4, note=64, velocity=100, time=0),
    Message('note_on', channel=4, note=59, velocity=100, time=0),
    Message('note_on', channel=4, note=52, velocity=100, time=0),
    Message('note_on', channel=4, note=52, velocity=0, time=480),
    Message('note_on', channel=4, note=59, velocity=0, time=0),
    Message('note_on', channel=4, note=64, velocity=0, time=0),
    Message('pitchwheel', channel=4, pitch=0, time=0),
    Message('note_on', channel=4, note=59, velocity=100, time=0),
    Message('note_on', channel=4, note=54, velocity=100, time=0),
    Message('note_on', channel=4, note=47, velocity=100, time=0),
    Message('note_on', channel=4, note=47, velocity=0, time=480),
    Message('note_on', channel=4, note=54, velocity=0, time=0),
    Message('note_on', channel=4, note=59, velocity=0, time=0),
    Message('note_on', channel=4, note=62, velocity=100, time=0),
    Message('note_on', channel=4, note=57, velocity=100, time=0),
    Message('note_on', channel=4, note=50, velocity=100, time=0),
    Message('note_on', channel=4, note=50, velocity=0, time=480),
    Message('note_on', channel=4, note=57, velocity=0, time=0),
    Message('note_on', channel=4, note=62, velocity=0, time=0),
    Message('note_on', channel=4, note=62, velocity=100, time=0),
    Message('note_on', channel=4, note=57, velocity=100, time=0),
    Message('note_on', channel=4, note=50, velocity=100, time=0),
    Message('pitchwheel', channel=4, pitch=1365, time=180),
    Message('note_on', channel=4, note=50, velocity=0, time=60),
    Message('note_on', channel=4, note=57, velocity=0, time=0),
    Message('note_on', channel=4, note=62, velocity=0, time=0),
    Message('pitchwheel', channel=4, pitch=0, time=0),
    Message('note_on', channel=4, note=64, velocity=100, time=0),
    Message('note_on', channel=4, note=59, velocity=100, time=0),
    Message('note_on', channel=4, note=52, velocity=100, time=0),
    Message('note_on', channel=4, note=52, velocity=0, time=240),
    Message('note_on', channel=4, note=59, velocity=0, time=0),
    Message('note_on', channel=4, note=64, velocity=0, time=0),
    Message('note_on', channel=4, note=64, velocity=100, time=0),
    Message('note_on', channel=4, note=59, velocity=100, time=0),
    Message('note_on', channel=4, note=52, velocity=100, time=0),
    Message('note_on', channel=4, note=52, velocity=0, time=480),
    Message('note_on', channel=4, note=59, velocity=0, time=0),
    Message('note_on', channel=4, note=64, velocity=0, time=0),
    Message('note_on', channel=4, note=67, velocity=100, time=0),
    Message('note_on', channel=4, note=62, velocity=100, time=0),
    Message('note_on', channel=4, note=55, velocity=100, time=0),
    Message('note_on', channel=4, note=55, velocity=0, time=120),
    Message('note_on', channel=4, note=62, velocity=0, time=0),
    Message('note_on', channel=4, note=67, velocity=0, time=0),
    Message('note_on', channel=4, note=66, velocity=100, time=0),
    Message('note_on', channel=4, note=61, velocity=100, time=0),
    Message('note_on', channel=4, note=54, velocity=100, time=0),
    Message('note_on', channel=4, note=54, velocity=0, time=120),
    Message('note_on', channel=4, note=61, velocity=0, time=0),
    Message('note_on', channel=4, note=66, velocity=0, time=0),
    Message('note_on', channel=4, note=67, velocity=100, time=0),
    Message('note_on', channel=4, note=62, velocity=100, time=0),
    Message('note_on', channel=4, note=55, velocity=100, time=0),
    Message('note_on', channel=4, note=55, velocity=0, time=120),
    Message('note_on', channel=4, note=62, velocity=0, time=0),
    Message('note_on', channel=4, note=67, velocity=0, time=0),
    Message('note_on', channel=4, note=66, velocity=100, time=0),
    Message('note_on', channel=4, note=61, velocity=100, time=0),
    Message('note_on', channel=4, note=54, velocity=100, time=0),
    Message('note_on', channel=4, note=54, velocity=0, time=120),
    Message('note_on', channel=4, note=61, velocity=0, time=0),
    Message('note_on', channel=4, note=66, velocity=0, time=0),
    Message('note_on', channel=4, note=67, velocity=100, time=0),
    Message('note_on', channel=4, note=62, velocity=100, time=0),
    Message('note_on', channel=4, note=55, velocity=100, time=0),
    Message('note_on', channel=4, note=55, velocity=0, time=120),
    Message('note_on', channel=4, note=62, velocity=0, time=0),
    Message('note_on', channel=4, note=67, velocity=0, time=0),
    Message('note_on', channel=4, note=66, velocity=100, time=0),
    Message('note_on', channel=4, note=61, velocity=100, time=0),
    Message('note_on', channel=4, note=54, velocity=100, time=0),
    Message('note_on', channel=4, note=54, velocity=0, time=120),
    Message('note_on', channel=4, note=61, velocity=0, time=0),
    Message('note_on', channel=4, note=66, velocity=0, time=0),
    Message('note_on', channel=4, note=62, velocity=100, time=0),
    Message('note_on', channel=4, note=57, velocity=100, time=0),
    Message('note_on', channel=4, note=50, velocity=100, time=0),
    Message('note_on', channel=4, note=50, velocity=0, time=234),
    Message('note_on', channel=4, note=57, velocity=0, time=0),
    Message('note_on', channel=4, note=62, velocity=0, time=0),
    Message('note_on', channel=4, note=62, velocity=100, time=6),
    Message('note_on', channel=4, note=57, velocity=100, time=0),
    Message('note_on', channel=4, note=50, velocity=100, time=0),
    Message('pitchwheel', channel=4, pitch=1365, time=180),
    Message('note_on', channel=4, note=50, velocity=0, time=60),
    Message('note_on', channel=4, note=57, velocity=0, time=0),
    Message('note_on', channel=4, note=62, velocity=0, time=0),
    Message('pitchwheel', channel=4, pitch=0, time=0),
    Message('note_on', channel=4, note=64, velocity=100, time=0),
    Message('note_on', channel=4, note=59, velocity=100, time=0),
    Message('note_on', channel=4, note=52, velocity=100, time=0),
    Message('note_on', channel=4, note=52, velocity=0, time=240),
    Message('note_on', channel=4, note=59, velocity=0, time=0),
    Message('note_on', channel=4, note=64, velocity=0, time=0),
    Message('note_on', channel=4, note=64, velocity=100, time=0),
    Message('note_on', channel=4, note=59, velocity=100, time=0),
    Message('note_on', channel=4, note=52, velocity=100, time=0),
    Message('note_on', channel=4, note=52, velocity=0, time=480),
    Message('note_on', channel=4, note=59, velocity=0, time=0),
    Message('note_on', channel=4, note=64, velocity=0, time=0),
    Message('pitchwheel', channel=4, pitch=0, time=0),
    Message('note_on', channel=4, note=59, velocity=100, time=0),
    Message('note_on', channel=4, note=54, velocity=100, time=0),
    Message('note_on', channel=4, note=47, velocity=100, time=0),
    Message('note_on', channel=4, note=47, velocity=0, time=480),
    Message('note_on', channel=4, note=54, velocity=0, time=0),
    Message('note_on', channel=4, note=59, velocity=0, time=0),
    Message('note_on', channel=4, note=62, velocity=100, time=0),
    Message('note_on', channel=4, note=57, velocity=100, time=0),
    Message('note_on', channel=4, note=50, velocity=100, time=0),
    Message('note_on', channel=4, note=50, velocity=0, time=480),
    Message('note_on', channel=4, note=57, velocity=0, time=0),
    Message('note_on', channel=4, note=62, velocity=0, time=0),
    Message('note_on', channel=4, note=62, velocity=100, time=0),
    Message('note_on', channel=4, note=57, velocity=100, time=0),
    Message('note_on', channel=4, note=50, velocity=100, time=0),
    Message('pitchwheel', channel=4, pitch=1365, time=180),
    Message('note_on', channel=4, note=50, velocity=0, time=60),
    Message('note_on', channel=4, note=57, velocity=0, time=0),
    Message('note_on', channel=4, note=62, velocity=0, time=0),
    Message('pitchwheel', channel=4, pitch=0, time=0),
    Message('note_on', channel=4, note=64, velocity=100, time=0),
    Message('note_on', channel=4, note=59, velocity=100, time=0),
    Message('note_on', channel=4, note=52, velocity=100, time=0),
    Message('note_on', channel=4, note=52, velocity=0, time=240),
    Message('note_on', channel=4, note=59, velocity=0, time=0),
    Message('note_on', channel=4, note=64, velocity=0, time=0),
    Message('note_on', channel=4, note=64, velocity=100, time=0),
    Message('note_on', channel=4, note=59, velocity=100, time=0),
    Message('note_on', channel=4, note=52, velocity=100, time=0),
    Message('note_on', channel=4, note=52, velocity=0, time=480),
    Message('note_on', channel=4, note=59, velocity=0, time=0),
    Message('note_on', channel=4, note=64, velocity=0, time=0),
    Message('note_on', channel=4, note=67, velocity=100, time=0),
    Message('note_on', channel=4, note=62, velocity=100, time=0),
    Message('note_on', channel=4, note=55, velocity=100, time=0),
    Message('note_on', channel=4, note=55, velocity=0, time=120),
    Message('note_on', channel=4, note=62, velocity=0, time=0),
    Message('note_on', channel=4, note=67, velocity=0, time=0),
    Message('note_on', channel=4, note=66, velocity=100, time=0),
    Message('note_on', channel=4, note=61, velocity=100, time=0),
    Message('note_on', channel=4, note=54, velocity=100, time=0),
    Message('note_on', channel=4, note=54, velocity=0, time=120),
    Message('note_on', channel=4, note=61, velocity=0, time=0),
    Message('note_on', channel=4, note=66, velocity=0, time=0),
    Message('note_on', channel=4, note=67, velocity=100, time=0),
    Message('note_on', channel=4, note=62, velocity=100, time=0),
    Message('note_on', channel=4, note=55, velocity=100, time=0),
    Message('note_on', channel=4, note=55, velocity=0, time=120),
    Message('note_on', channel=4, note=62, velocity=0, time=0),
    Message('note_on', channel=4, note=67, velocity=0, time=0),
    Message('note_on', channel=4, note=66, velocity=100, time=0),
    Message('note_on', channel=4, note=61, velocity=100, time=0),
    Message('note_on', channel=4, note=54, velocity=100, time=0),
    Message('note_on', channel=4, note=54, velocity=0, time=120),
    Message('note_on', channel=4, note=61, velocity=0, time=0),
    Message('note_on', channel=4, note=66, velocity=0, time=0),
    Message('note_on', channel=4, note=67, velocity=100, time=0),
    Message('note_on', channel=4, note=62, velocity=100, time=0),
    Message('note_on', channel=4, note=55, velocity=100, time=0),
    Message('note_on', channel=4, note=55, velocity=0, time=120),
    Message('note_on', channel=4, note=62, velocity=0, time=0),
    Message('note_on', channel=4, note=67, velocity=0, time=0),
    Message('note_on', channel=4, note=66, velocity=100, time=0),
    Message('note_on', channel=4, note=61, velocity=100, time=0),
    Message('note_on', channel=4, note=54, velocity=100, time=0),
    Message('note_on', channel=4, note=54, velocity=0, time=120),
    Message('note_on', channel=4, note=61, velocity=0, time=0),
    Message('note_on', channel=4, note=66, velocity=0, time=0),
    Message('note_on', channel=4, note=62, velocity=100, time=0),
    Message('note_on', channel=4, note=57, velocity=100, time=0),
    Message('note_on', channel=4, note=50, velocity=100, time=0),
    Message('note_on', channel=4, note=50, velocity=0, time=234),
    Message('note_on', channel=4, note=57, velocity=0, time=0),
    Message('note_on', channel=4, note=62, velocity=0, time=0),
    Message('note_on', channel=4, note=62, velocity=100, time=6),
    Message('note_on', channel=4, note=57, velocity=100, time=0),
    Message('note_on', channel=4, note=50, velocity=100, time=0),
    Message('pitchwheel', channel=4, pitch=1365, time=180),
    Message('note_on', channel=4, note=50, velocity=0, time=60),
    Message('note_on', channel=4, note=57, velocity=0, time=0),
    Message('note_on', channel=4, note=62, velocity=0, time=0),
    Message('pitchwheel', channel=4, pitch=0, time=0),
    Message('note_on', channel=4, note=64, velocity=100, time=0),
    Message('note_on', channel=4, note=59, velocity=100, time=0),
    Message('note_on', channel=4, note=52, velocity=100, time=0),
    Message('note_on', channel=4, note=52, velocity=0, time=240),
    Message('note_on', channel=4, note=59, velocity=0, time=0),
    Message('note_on', channel=4, note=64, velocity=0, time=0),
    Message('note_on', channel=4, note=64, velocity=100, time=0),
    Message('note_on', channel=4, note=59, velocity=100, time=0),
    Message('note_on', channel=4, note=52, velocity=100, time=0),
    Message('note_on', channel=4, note=52, velocity=0, time=480),
    Message('note_on', channel=4, note=59, velocity=0, time=0),
    Message('note_on', channel=4, note=64, velocity=0, time=0),
    Message('pitchwheel', channel=4, pitch=0, time=0),
    Message('note_on', channel=4, note=59, velocity=100, time=0),
    Message('note_on', channel=4, note=54, velocity=100, time=0),
    Message('note_on', channel=4, note=47, velocity=100, time=0),
    Message('note_on', channel=4, note=47, velocity=0, time=480),
    Message('note_on', channel=4, note=54, velocity=0, time=0),
    Message('note_on', channel=4, note=59, velocity=0, time=0),
    Message('note_on', channel=4, note=62, velocity=100, time=0),
    Message('note_on', channel=4, note=57, velocity=100, time=0),
    Message('note_on', channel=4, note=50, velocity=100, time=0),
    Message('note_on', channel=4, note=50, velocity=0, time=480),
    Message('note_on', channel=4, note=57, velocity=0, time=0),
    Message('note_on', channel=4, note=62, velocity=0, time=0),
    Message('note_on', channel=4, note=62, velocity=100, time=0),
    Message('note_on', channel=4, note=57, velocity=100, time=0),
    Message('note_on', channel=4, note=50, velocity=100, time=0),
    Message('pitchwheel', channel=4, pitch=1365, time=180),
    Message('note_on', channel=4, note=50, velocity=0, time=60),
    Message('note_on', channel=4, note=57, velocity=0, time=0),
    Message('note_on', channel=4, note=62, velocity=0, time=0),
    Message('pitchwheel', channel=4, pitch=0, time=0),
    Message('note_on', channel=4, note=64, velocity=100, time=0),
    Message('note_on', channel=4, note=59, velocity=100, time=0),
    Message('note_on', channel=4, note=52, velocity=100, time=0),
    Message('note_on', channel=4, note=52, velocity=0, time=240),
    Message('note_on', channel=4, note=59, velocity=0, time=0),
    Message('note_on', channel=4, note=64, velocity=0, time=0),
    Message('note_on', channel=4, note=64, velocity=100, time=0),
    Message('note_on', channel=4, note=59, velocity=100, time=0),
    Message('note_on', channel=4, note=52, velocity=100, time=0),
    Message('note_on', channel=4, note=52, velocity=0, time=480),
    Message('note_on', channel=4, note=59, velocity=0, time=0),
    Message('note_on', channel=4, note=64, velocity=0, time=0),
    Message('note_on', channel=4, note=67, velocity=100, time=0),
    Message('note_on', channel=4, note=62, velocity=100, time=0),
    Message('note_on', channel=4, note=55, velocity=100, time=0),
    Message('note_on', channel=4, note=55, velocity=0, time=120),
    Message('note_on', channel=4, note=62, velocity=0, time=0),
    Message('note_on', channel=4, note=67, velocity=0, time=0),
    Message('note_on', channel=4, note=66, velocity=100, time=0),
    Message('note_on', channel=4, note=61, velocity=100, time=0),
    Message('note_on', channel=4, note=54, velocity=100, time=0),
    Message('note_on', channel=4, note=54, velocity=0, time=120),
    Message('note_on', channel=4, note=61, velocity=0, time=0),
    Message('note_on', channel=4, note=66, velocity=0, time=0),
    Message('note_on', channel=4, note=67, velocity=100, time=0),
    Message('note_on', channel=4, note=62, velocity=100, time=0),
    Message('note_on', channel=4, note=55, velocity=100, time=0),
    Message('note_on', channel=4, note=55, velocity=0, time=120),
    Message('note_on', channel=4, note=62, velocity=0, time=0),
    Message('note_on', channel=4, note=67, velocity=0, time=0),
    Message('note_on', channel=4, note=66, velocity=100, time=0),
    Message('note_on', channel=4, note=61, velocity=100, time=0),
    Message('note_on', channel=4, note=54, velocity=100, time=0),
    Message('note_on', channel=4, note=54, velocity=0, time=120),
    Message('note_on', channel=4, note=61, velocity=0, time=0),
    Message('note_on', channel=4, note=66, velocity=0, time=0),
    Message('note_on', channel=4, note=67, velocity=100, time=0),
    Message('note_on', channel=4, note=62, velocity=100, time=0),
    Message('note_on', channel=4, note=55, velocity=100, time=0),
    Message('note_on', channel=4, note=55, velocity=0, time=120),
    Message('note_on', channel=4, note=62, velocity=0, time=0),
    Message('note_on', channel=4, note=67, velocity=0, time=0),
    Message('note_on', channel=4, note=66, velocity=100, time=0),
    Message('note_on', channel=4, note=61, velocity=100, time=0),
    Message('note_on', channel=4, note=54, velocity=100, time=0),
    Message('note_on', channel=4, note=54, velocity=0, time=120),
    Message('note_on', channel=4, note=61, velocity=0, time=0),
    Message('note_on', channel=4, note=66, velocity=0, time=0),
    Message('note_on', channel=4, note=62, velocity=100, time=0),
    Message('note_on', channel=4, note=57, velocity=100, time=0),
    Message('note_on', channel=4, note=50, velocity=100, time=0),
    Message('note_on', channel=4, note=50, velocity=0, time=234),
    Message('note_on', channel=4, note=57, velocity=0, time=0),
    Message('note_on', channel=4, note=62, velocity=0, time=0),
    Message('note_on', channel=4, note=62, velocity=100, time=6),
    Message('note_on', channel=4, note=57, velocity=100, time=0),
    Message('note_on', channel=4, note=50, velocity=100, time=0),
    Message('pitchwheel', channel=4, pitch=1365, time=180),
    Message('note_on', channel=4, note=50, velocity=0, time=60),
    Message('note_on', channel=4, note=57, velocity=0, time=0),
    Message('note_on', channel=4, note=62, velocity=0, time=0),
    Message('pitchwheel', channel=4, pitch=0, time=0),
    Message('note_on', channel=4, note=64, velocity=100, time=0),
    Message('note_on', channel=4, note=59, velocity=100, time=0),
    Message('note_on', channel=4, note=52, velocity=100, time=0),
    Message('note_on', channel=4, note=52, velocity=0, time=240),
    Message('note_on', channel=4, note=59, velocity=0, time=0),
    Message('note_on', channel=4, note=64, velocity=0, time=0),
    Message('note_on', channel=4, note=64, velocity=100, time=0),
    Message('note_on', channel=4, note=59, velocity=100, time=0),
    Message('note_on', channel=4, note=52, velocity=100, time=0),
    Message('note_on', channel=4, note=52, velocity=0, time=480),
    Message('note_on', channel=4, note=59, velocity=0, time=0),
    Message('note_on', channel=4, note=64, velocity=0, time=0),
    Message('pitchwheel', channel=4, pitch=0, time=0),
    Message('note_on', channel=4, note=59, velocity=100, time=0),
    Message('note_on', channel=4, note=54, velocity=100, time=0),
    Message('note_on', channel=4, note=47, velocity=100, time=0),
    Message('note_on', channel=4, note=47, velocity=0, time=480),
    Message('note_on', channel=4, note=54, velocity=0, time=0),
    Message('note_on', channel=4, note=59, velocity=0, time=0),
    Message('note_on', channel=4, note=62, velocity=100, time=0),
    Message('note_on', channel=4, note=57, velocity=100, time=0),
    Message('note_on', channel=4, note=50, velocity=100, time=0),
    Message('note_on', channel=4, note=50, velocity=0, time=480),
    Message('note_on', channel=4, note=57, velocity=0, time=0),
    Message('note_on', channel=4, note=62, velocity=0, time=0),
    Message('note_on', channel=4, note=62, velocity=100, time=0),
    Message('note_on', channel=4, note=57, velocity=100, time=0),
    Message('note_on', channel=4, note=50, velocity=100, time=0),
    Message('pitchwheel', channel=4, pitch=1365, time=180),
    Message('note_on', channel=4, note=50, velocity=0, time=60),
    Message('note_on', channel=4, note=57, velocity=0, time=0),
    Message('note_on', channel=4, note=62, velocity=0, time=0),
    Message('pitchwheel', channel=4, pitch=0, time=0),
    Message('note_on', channel=4, note=64, velocity=100, time=0),
    Message('note_on', channel=4, note=59, velocity=100, time=0),
    Message('note_on', channel=4, note=52, velocity=100, time=0),
    Message('note_on', channel=4, note=52, velocity=0, time=240),
    Message('note_on', channel=4, note=59, velocity=0, time=0),
    Message('note_on', channel=4, note=64, velocity=0, time=0),
    Message('note_on', channel=4, note=64, velocity=100, time=0),
    Message('note_on', channel=4, note=59, velocity=100, time=0),
    Message('note_on', channel=4, note=52, velocity=100, time=0),
    Message('note_on', channel=4, note=52, velocity=0, time=480),
    Message('note_on', channel=4, note=59, velocity=0, time=0),
    Message('note_on', channel=4, note=64, velocity=0, time=0),
    Message('note_on', channel=4, note=67, velocity=100, time=0),
    Message('note_on', channel=4, note=62, velocity=100, time=0),
    Message('note_on', channel=4, note=55, velocity=100, time=0),
    Message('note_on', channel=4, note=55, velocity=0, time=120),
    Message('note_on', channel=4, note=62, velocity=0, time=0),
    Message('note_on', channel=4, note=67, velocity=0, time=0),
    Message('note_on', channel=4, note=66, velocity=100, time=0),
    Message('note_on', channel=4, note=61, velocity=100, time=0),
    Message('note_on', channel=4, note=54, velocity=100, time=0),
    Message('note_on', channel=4, note=54, velocity=0, time=120),
    Message('note_on', channel=4, note=61, velocity=0, time=0),
    Message('note_on', channel=4, note=66, velocity=0, time=0),
    Message('note_on', channel=4, note=67, velocity=100, time=0),
    Message('note_on', channel=4, note=62, velocity=100, time=0),
    Message('note_on', channel=4, note=55, velocity=100, time=0),
    Message('note_on', channel=4, note=55, velocity=0, time=120),
    Message('note_on', channel=4, note=62, velocity=0, time=0),
    Message('note_on', channel=4, note=67, velocity=0, time=0),
    Message('note_on', channel=4, note=66, velocity=100, time=0),
    Message('note_on', channel=4, note=61, velocity=100, time=0),
    Message('note_on', channel=4, note=54, velocity=100, time=0),
    Message('note_on', channel=4, note=54, velocity=0, time=120),
    Message('note_on', channel=4, note=61, velocity=0, time=0),
    Message('note_on', channel=4, note=66, velocity=0, time=0),
    Message('note_on', channel=4, note=67, velocity=100, time=0),
    Message('note_on', channel=4, note=62, velocity=100, time=0),
    Message('note_on', channel=4, note=55, velocity=100, time=0),
    Message('note_on', channel=4, note=55, velocity=0, time=120),
    Message('note_on', channel=4, note=62, velocity=0, time=0),
    Message('note_on', channel=4, note=67, velocity=0, time=0),
    Message('note_on', channel=4, note=66, velocity=100, time=0),
    Message('note_on', channel=4, note=61, velocity=100, time=0),
    Message('note_on', channel=4, note=54, velocity=100, time=0),
    Message('note_on', channel=4, note=54, velocity=0, time=120),
    Message('note_on', channel=4, note=61, velocity=0, time=0),
    Message('note_on', channel=4, note=66, velocity=0, time=0),
    Message('note_on', channel=4, note=62, velocity=100, time=0),
    Message('note_on', channel=4, note=57, velocity=100, time=0),
    Message('note_on', channel=4, note=50, velocity=100, time=0),
    Message('note_on', channel=4, note=50, velocity=0, time=234),
    Message('note_on', channel=4, note=57, velocity=0, time=0),
    Message('note_on', channel=4, note=62, velocity=0, time=0),
    Message('note_on', channel=4, note=62, velocity=100, time=6),
    Message('note_on', channel=4, note=57, velocity=100, time=0),
    Message('note_on', channel=4, note=50, velocity=100, time=0),
    Message('pitchwheel', channel=4, pitch=1365, time=180),
    Message('note_on', channel=4, note=50, velocity=0, time=60),
    Message('note_on', channel=4, note=57, velocity=0, time=0),
    Message('note_on', channel=4, note=62, velocity=0, time=0),
    Message('pitchwheel', channel=4, pitch=0, time=0),
    Message('note_on', channel=4, note=64, velocity=100, time=0),
    Message('note_on', channel=4, note=59, velocity=100, time=0),
    Message('note_on', channel=4, note=52, velocity=100, time=0),
    Message('note_on', channel=4, note=52, velocity=0, time=240),
    Message('note_on', channel=4, note=59, velocity=0, time=0),
    Message('note_on', channel=4, note=64, velocity=0, time=0),
    Message('note_on', channel=4, note=64, velocity=100, time=0),
    Message('note_on', channel=4, note=59, velocity=100, time=0),
    Message('note_on', channel=4, note=52, velocity=100, time=0),
    Message('note_on', channel=4, note=52, velocity=0, time=480),
    Message('note_on', channel=4, note=59, velocity=0, time=0),
    Message('note_on', channel=4, note=64, velocity=0, time=0),
    Message('pitchwheel', channel=4, pitch=0, time=0),
    Message('note_on', channel=4, note=59, velocity=100, time=0),
    Message('note_on', channel=4, note=54, velocity=100, time=0),
    Message('note_on', channel=4, note=47, velocity=100, time=0),
    Message('note_on', channel=4, note=47, velocity=0, time=480),
    Message('note_on', channel=4, note=54, velocity=0, time=0),
    Message('note_on', channel=4, note=59, velocity=0, time=0),
    Message('note_on', channel=4, note=62, velocity=100, time=0),
    Message('note_on', channel=4, note=57, velocity=100, time=0),
    Message('note_on', channel=4, note=50, velocity=100, time=0),
    Message('note_on', channel=4, note=50, velocity=0, time=480),
    Message('note_on', channel=4, note=57, velocity=0, time=0),
    Message('note_on', channel=4, note=62, velocity=0, time=0),
    Message('note_on', channel=4, note=62, velocity=100, time=0),
    Message('note_on', channel=4, note=57, velocity=100, time=0),
    Message('note_on', channel=4, note=50, velocity=100, time=0),
    Message('pitchwheel', channel=4, pitch=1365, time=180),
    Message('note_on', channel=4, note=50, velocity=0, time=60),
    Message('note_on', channel=4, note=57, velocity=0, time=0),
    Message('note_on', channel=4, note=62, velocity=0, time=0),
    Message('pitchwheel', channel=4, pitch=0, time=0),
    Message('note_on', channel=4, note=64, velocity=100, time=0),
    Message('note_on', channel=4, note=59, velocity=100, time=0),
    Message('note_on', channel=4, note=52, velocity=100, time=0),
    Message('note_on', channel=4, note=52, velocity=0, time=240),
    Message('note_on', channel=4, note=59, velocity=0, time=0),
    Message('note_on', channel=4, note=64, velocity=0, time=0),
    Message('note_on', channel=4, note=64, velocity=100, time=0),
    Message('note_on', channel=4, note=59, velocity=100, time=0),
    Message('note_on', channel=4, note=52, velocity=100, time=0),
    Message('note_on', channel=4, note=52, velocity=0, time=480),
    Message('note_on', channel=4, note=59, velocity=0, time=0),
    Message('note_on', channel=4, note=64, velocity=0, time=0),
    Message('note_on', channel=4, note=67, velocity=100, time=0),
    Message('note_on', channel=4, note=62, velocity=100, time=0),
    Message('note_on', channel=4, note=55, velocity=100, time=0),
    Message('note_on', channel=4, note=55, velocity=0, time=120),
    Message('note_on', channel=4, note=62, velocity=0, time=0),
    Message('note_on', channel=4, note=67, velocity=0, time=0),
    Message('note_on', channel=4, note=66, velocity=100, time=0),
    Message('note_on', channel=4, note=61, velocity=100, time=0),
    Message('note_on', channel=4, note=54, velocity=100, time=0),
    Message('note_on', channel=4, note=54, velocity=0, time=120),
    Message('note_on', channel=4, note=61, velocity=0, time=0),
    Message('note_on', channel=4, note=66, velocity=0, time=0),
    Message('note_on', channel=4, note=67, velocity=100, time=0),
    Message('note_on', channel=4, note=62, velocity=100, time=0),
    Message('note_on', channel=4, note=55, velocity=100, time=0),
    Message('note_on', channel=4, note=55, velocity=0, time=120),
    Message('note_on', channel=4, note=62, velocity=0, time=0),
    Message('note_on', channel=4, note=67, velocity=0, time=0),
    Message('note_on', channel=4, note=66, velocity=100, time=0),
    Message('note_on', channel=4, note=61, velocity=100, time=0),
    Message('note_on', channel=4, note=54, velocity=100, time=0),
    Message('note_on', channel=4, note=54, velocity=0, time=120),
    Message('note_on', channel=4, note=61, velocity=0, time=0),
    Message('note_on', channel=4, note=66, velocity=0, time=0),
    Message('note_on', channel=4, note=67, velocity=100, time=0),
    Message('note_on', channel=4, note=62, velocity=100, time=0),
    Message('note_on', channel=4, note=55, velocity=100, time=0),
    Message('note_on', channel=4, note=55, velocity=0, time=120),
    Message('note_on', channel=4, note=62, velocity=0, time=0),
    Message('note_on', channel=4, note=67, velocity=0, time=0),
    Message('note_on', channel=4, note=66, velocity=100, time=0),
    Message('note_on', channel=4, note=61, velocity=100, time=0),
    Message('note_on', channel=4, note=54, velocity=100, time=0),
    Message('note_on', channel=4, note=54, velocity=0, time=120),
    Message('note_on', channel=4, note=61, velocity=0, time=0),
    Message('note_on', channel=4, note=66, velocity=0, time=0),
    Message('note_on', channel=4, note=62, velocity=100, time=0),
    Message('note_on', channel=4, note=57, velocity=100, time=0),
    Message('note_on', channel=4, note=50, velocity=100, time=0),
    Message('note_on', channel=4, note=50, velocity=0, time=234),
    Message('note_on', channel=4, note=57, velocity=0, time=0),
    Message('note_on', channel=4, note=62, velocity=0, time=0),
    Message('note_on', channel=4, note=62, velocity=100, time=6),
    Message('note_on', channel=4, note=57, velocity=100, time=0),
    Message('note_on', channel=4, note=50, velocity=100, time=0),
    Message('pitchwheel', channel=4, pitch=1365, time=180),
    Message('note_on', channel=4, note=50, velocity=0, time=60),
    Message('note_on', channel=4, note=57, velocity=0, time=0),
    Message('note_on', channel=4, note=62, velocity=0, time=0),
    Message('pitchwheel', channel=4, pitch=0, time=0),
    Message('note_on', channel=4, note=64, velocity=100, time=0),
    Message('note_on', channel=4, note=59, velocity=100, time=0),
    Message('note_on', channel=4, note=52, velocity=100, time=0),
    Message('note_on', channel=4, note=52, velocity=0, time=240),
    Message('note_on', channel=4, note=59, velocity=0, time=0),
    Message('note_on', channel=4, note=64, velocity=0, time=0),
    Message('note_on', channel=4, note=64, velocity=100, time=0),
    Message('note_on', channel=4, note=59, velocity=100, time=0),
    Message('note_on', channel=4, note=52, velocity=100, time=0),
    Message('note_on', channel=4, note=52, velocity=0, time=480),
    Message('note_on', channel=4, note=59, velocity=0, time=0),
    Message('note_on', channel=4, note=64, velocity=0, time=0),
    Message('pitchwheel', channel=4, pitch=0, time=0),
    Message('note_on', channel=4, note=59, velocity=100, time=0),
    Message('note_on', channel=4, note=54, velocity=100, time=0),
    Message('note_on', channel=4, note=47, velocity=100, time=0),
    Message('note_on', channel=4, note=47, velocity=0, time=480),
    Message('note_on', channel=4, note=54, velocity=0, time=0),
    Message('note_on', channel=4, note=59, velocity=0, time=0),
    Message('note_on', channel=4, note=62, velocity=100, time=0),
    Message('note_on', channel=4, note=57, velocity=100, time=0),
    Message('note_on', channel=4, note=50, velocity=100, time=0),
    Message('note_on', channel=4, note=50, velocity=0, time=480),
    Message('note_on', channel=4, note=57, velocity=0, time=0),
    Message('note_on', channel=4, note=62, velocity=0, time=0),
    Message('note_on', channel=4, note=62, velocity=100, time=0),
    Message('note_on', channel=4, note=57, velocity=100, time=0),
    Message('note_on', channel=4, note=50, velocity=100, time=0),
    Message('pitchwheel', channel=4, pitch=1365, time=180),
    Message('note_on', channel=4, note=50, velocity=0, time=60),
    Message('note_on', channel=4, note=57, velocity=0, time=0),
    Message('note_on', channel=4, note=62, velocity=0, time=0),
    Message('pitchwheel', channel=4, pitch=0, time=0),
    Message('note_on', channel=4, note=64, velocity=100, time=0),
    Message('note_on', channel=4, note=59, velocity=100, time=0),
    Message('note_on', channel=4, note=52, velocity=100, time=0),
    Message('note_on', channel=4, note=52, velocity=0, time=240),
    Message('note_on', channel=4, note=59, velocity=0, time=0),
    Message('note_on', channel=4, note=64, velocity=0, time=0),
    Message('note_on', channel=4, note=64, velocity=100, time=0),
    Message('note_on', channel=4, note=59, velocity=100, time=0),
    Message('note_on', channel=4, note=52, velocity=100, time=0),
    Message('note_on', channel=4, note=52, velocity=0, time=480),
    Message('note_on', channel=4, note=59, velocity=0, time=0),
    Message('note_on', channel=4, note=64, velocity=0, time=0),
    Message('note_on', channel=4, note=67, velocity=100, time=0),
    Message('note_on', channel=4, note=62, velocity=100, time=0),
    Message('note_on', channel=4, note=55, velocity=100, time=0),
    Message('note_on', channel=4, note=55, velocity=0, time=120),
    Message('note_on', channel=4, note=62, velocity=0, time=0),
    Message('note_on', channel=4, note=67, velocity=0, time=0),
    Message('note_on', channel=4, note=66, velocity=100, time=0),
    Message('note_on', channel=4, note=61, velocity=100, time=0),
    Message('note_on', channel=4, note=54, velocity=100, time=0),
    Message('note_on', channel=4, note=54, velocity=0, time=120),
    Message('note_on', channel=4, note=61, velocity=0, time=0),
    Message('note_on', channel=4, note=66, velocity=0, time=0),
    Message('note_on', channel=4, note=67, velocity=100, time=0),
    Message('note_on', channel=4, note=62, velocity=100, time=0),
    Message('note_on', channel=4, note=55, velocity=100, time=0),
    Message('note_on', channel=4, note=55, velocity=0, time=120),
    Message('note_on', channel=4, note=62, velocity=0, time=0),
    Message('note_on', channel=4, note=67, velocity=0, time=0),
    Message('note_on', channel=4, note=66, velocity=100, time=0),
    Message('note_on', channel=4, note=61, velocity=100, time=0),
    Message('note_on', channel=4, note=54, velocity=100, time=0),
    Message('note_on', channel=4, note=54, velocity=0, time=120),
    Message('note_on', channel=4, note=61, velocity=0, time=0),
    Message('note_on', channel=4, note=66, velocity=0, time=0),
    Message('note_on', channel=4, note=67, velocity=100, time=0),
    Message('note_on', channel=4, note=62, velocity=100, time=0),
    Message('note_on', channel=4, note=55, velocity=100, time=0),
    Message('note_on', channel=4, note=55, velocity=0, time=120),
    Message('note_on', channel=4, note=62, velocity=0, time=0),
    Message('note_on', channel=4, note=67, velocity=0, time=0),
    Message('note_on', channel=4, note=66, velocity=100, time=0),
    Message('note_on', channel=4, note=61, velocity=100, time=0),
    Message('note_on', channel=4, note=54, velocity=100, time=0),
    Message('note_on', channel=4, note=54, velocity=0, time=120),
    Message('note_on', channel=4, note=61, velocity=0, time=0),
    Message('note_on', channel=4, note=66, velocity=0, time=0),
    Message('note_on', channel=4, note=62, velocity=100, time=0),
    Message('note_on', channel=4, note=57, velocity=100, time=0),
    Message('note_on', channel=4, note=50, velocity=100, time=0),
    Message('note_on', channel=4, note=50, velocity=0, time=234),
    Message('note_on', channel=4, note=57, velocity=0, time=0),
    Message('note_on', channel=4, note=62, velocity=0, time=0),
    Message('note_on', channel=4, note=62, velocity=100, time=6),
    Message('note_on', channel=4, note=57, velocity=100, time=0),
    Message('note_on', channel=4, note=50, velocity=100, time=0),
    Message('pitchwheel', channel=4, pitch=1365, time=180),
    Message('note_on', channel=4, note=50, velocity=0, time=60),
    Message('note_on', channel=4, note=57, velocity=0, time=0),
    Message('note_on', channel=4, note=62, velocity=0, time=0),
    Message('pitchwheel', channel=4, pitch=0, time=0),
    Message('note_on', channel=4, note=64, velocity=100, time=0),
    Message('note_on', channel=4, note=59, velocity=100, time=0),
    Message('note_on', channel=4, note=52, velocity=100, time=0),
    Message('note_on', channel=4, note=52, velocity=0, time=240),
    Message('note_on', channel=4, note=59, velocity=0, time=0),
    Message('note_on', channel=4, note=64, velocity=0, time=0),
    Message('note_on', channel=4, note=64, velocity=100, time=0),
    Message('note_on', channel=4, note=59, velocity=100, time=0),
    Message('note_on', channel=4, note=52, velocity=100, time=0),
    Message('note_on', channel=4, note=52, velocity=0, time=480),
    Message('note_on', channel=4, note=59, velocity=0, time=0),
    Message('note_on', channel=4, note=64, velocity=0, time=0),
    Message('note_on', channel=4, note=54, velocity=100, time=0),
    Message('note_on', channel=4, note=59, velocity=100, time=0),
    Message('note_on', channel=4, note=47, velocity=100, time=0),
    Message('note_on', channel=4, note=47, velocity=0, time=240),
    Message('note_on', channel=4, note=59, velocity=0, time=0),
    Message('note_on', channel=4, note=54, velocity=0, time=0),
    Message('note_on', channel=4, note=54, velocity=100, time=0),
    Message('note_on', channel=4, note=59, velocity=100, time=0),
    Message('note_on', channel=4, note=47, velocity=100, time=0),
    Message('note_on', channel=4, note=47, velocity=0, time=240),
    Message('note_on', channel=4, note=59, velocity=0, time=0),
    Message('note_on', channel=4, note=54, velocity=0, time=0),
    Message('note_on', channel=4, note=40, velocity=100, time=0),
    Message('note_on', channel=4, note=35, velocity=100, time=0),
    Message('note_on', channel=4, note=35, velocity=0, time=60),
    Message('note_on', channel=4, note=40, velocity=0, time=0),
    Message('note_on', channel=4, note=40, velocity=100, time=60),
    Message('note_on', channel=4, note=35, velocity=100, time=0),
    Message('note_on', channel=4, note=35, velocity=0, time=60),
    Message('note_on', channel=4, note=40, velocity=0, time=0),
    Message('note_on', channel=4, note=57, velocity=100, time=60),
    Message('note_on', channel=4, note=62, velocity=100, time=0),
    Message('note_on', channel=4, note=50, velocity=100, time=0),
    Message('note_on', channel=4, note=50, velocity=0, time=240),
    Message('note_on', channel=4, note=62, velocity=0, time=0),
    Message('note_on', channel=4, note=57, velocity=0, time=0),
    Message('note_on', channel=4, note=40, velocity=100, time=0),
    Message('note_on', channel=4, note=35, velocity=100, time=0),
    Message('note_on', channel=4, note=35, velocity=0, time=60),
    Message('note_on', channel=4, note=40, velocity=0, time=0),
    Message('note_on', channel=4, note=40, velocity=100, time=60),
    Message('note_on', channel=4, note=35, velocity=100, time=0),
    Message('note_on', channel=4, note=35, velocity=0, time=60),
    Message('note_on', channel=4, note=40, velocity=0, time=0),
    Message('note_on', channel=4, note=54, velocity=100, time=60),
    Message('note_on', channel=4, note=59, velocity=100, time=0),
    Message('note_on', channel=4, note=47, velocity=100, time=0),
    Message('note_on', channel=4, note=47, velocity=0, time=240),
    Message('note_on', channel=4, note=59, velocity=0, time=0),
    Message('note_on', channel=4, note=54, velocity=0, time=0),
    Message('note_on', channel=4, note=54, velocity=100, time=0),
    Message('note_on', channel=4, note=59, velocity=100, time=0),
    Message('note_on', channel=4, note=47, velocity=100, time=0),
    Message('note_on', channel=4, note=47, velocity=0, time=240),
    Message('note_on', channel=4, note=59, velocity=0, time=0),
    Message('note_on', channel=4, note=54, velocity=0, time=0),
    Message('note_on', channel=4, note=53, velocity=100, time=0),
    Message('note_on', channel=4, note=58, velocity=100, time=0),
    Message('note_on', channel=4, note=46, velocity=100, time=0),
    Message('note_on', channel=4, note=46, velocity=0, time=240),
    Message('note_on', channel=4, note=58, velocity=0, time=0),
    Message('note_on', channel=4, note=53, velocity=0, time=0),
    Message('note_on', channel=4, note=52, velocity=100, time=0),
    Message('note_on', channel=4, note=57, velocity=100, time=0),
    Message('note_on', channel=4, note=45, velocity=100, time=0),
    Message('note_on', channel=4, note=45, velocity=0, time=240),
    Message('note_on', channel=4, note=57, velocity=0, time=0),
    Message('note_on', channel=4, note=52, velocity=0, time=0),
    Message('note_on', channel=4, note=52, velocity=100, time=0),
    Message('note_on', channel=4, note=57, velocity=100, time=0),
    Message('note_on', channel=4, note=45, velocity=100, time=0),
    Message('note_on', channel=4, note=45, velocity=0, time=240),
    Message('note_on', channel=4, note=57, velocity=0, time=0),
    Message('note_on', channel=4, note=52, velocity=0, time=0),
    Message('note_on', channel=4, note=38, velocity=100, time=0),
    Message('note_on', channel=4, note=33, velocity=100, time=0),
    Message('note_on', channel=4, note=33, velocity=0, time=60),
    Message('note_on', channel=4, note=38, velocity=0, time=0),
    Message('note_on', channel=4, note=38, velocity=100, time=60),
    Message('note_on', channel=4, note=33, velocity=100, time=0),
    Message('note_on', channel=4, note=33, velocity=0, time=60),
    Message('note_on', channel=4, note=38, velocity=0, time=0),
    Message('note_on', channel=4, note=38, velocity=100, time=60),
    Message('note_on', channel=4, note=33, velocity=100, time=0),
    Message('note_on', channel=4, note=33, velocity=0, time=60),
    Message('note_on', channel=4, note=38, velocity=0, time=0),
    Message('note_on', channel=4, note=51, velocity=100, time=60),
    Message('note_on', channel=4, note=56, velocity=100, time=0),
    Message('note_on', channel=4, note=44, velocity=100, time=0),
    Message('note_on', channel=4, note=44, velocity=0, time=120),
    Message('note_on', channel=4, note=56, velocity=0, time=0),
    Message('note_on', channel=4, note=51, velocity=0, time=0),
    Message('note_on', channel=4, note=51, velocity=100, time=0),
    Message('note_on', channel=4, note=56, velocity=100, time=0),
    Message('note_on', channel=4, note=44, velocity=100, time=0),
    Message('note_on', channel=4, note=44, velocity=0, time=120),
    Message('note_on', channel=4, note=56, velocity=0, time=0),
    Message('note_on', channel=4, note=51, velocity=0, time=0),
    Message('note_on', channel=4, note=52, velocity=100, time=0),
    Message('note_on', channel=4, note=57, velocity=100, time=0),
    Message('note_on', channel=4, note=45, velocity=100, time=0),
    Message('note_on', channel=4, note=45, velocity=0, time=120),
    Message('note_on', channel=4, note=57, velocity=0, time=0),
    Message('note_on', channel=4, note=52, velocity=0, time=0),
    Message('note_on', channel=4, note=52, velocity=100, time=0),
    Message('note_on', channel=4, note=57, velocity=100, time=0),
    Message('note_on', channel=4, note=45, velocity=100, time=0),
    Message('note_on', channel=4, note=45, velocity=0, time=240),
    Message('note_on', channel=4, note=57, velocity=0, time=0),
    Message('note_on', channel=4, note=52, velocity=0, time=0),
    Message('note_on', channel=4, note=52, velocity=100, time=0),
    Message('note_on', channel=4, note=57, velocity=100, time=0),
    Message('note_on', channel=4, note=45, velocity=100, time=0),
    Message('note_on', channel=4, note=45, velocity=0, time=240),
    Message('note_on', channel=4, note=57, velocity=0, time=0),
    Message('note_on', channel=4, note=52, velocity=0, time=0),
    Message('note_on', channel=4, note=53, velocity=100, time=0),
    Message('note_on', channel=4, note=58, velocity=100, time=0),
    Message('note_on', channel=4, note=46, velocity=100, time=0),
    Message('note_on', channel=4, note=46, velocity=0, time=240),
    Message('note_on', channel=4, note=58, velocity=0, time=0),
    Message('note_on', channel=4, note=53, velocity=0, time=0),
    Message('note_on', channel=4, note=54, velocity=100, time=0),
    Message('note_on', channel=4, note=59, velocity=100, time=0),
    Message('note_on', channel=4, note=47, velocity=100, time=0),
    Message('note_on', channel=4, note=47, velocity=0, time=240),
    Message('note_on', channel=4, note=59, velocity=0, time=0),
    Message('note_on', channel=4, note=54, velocity=0, time=0),
    Message('note_on', channel=4, note=54, velocity=100, time=0),
    Message('note_on', channel=4, note=59, velocity=100, time=0),
    Message('note_on', channel=4, note=47, velocity=100, time=0),
    Message('note_on', channel=4, note=47, velocity=0, time=240),
    Message('note_on', channel=4, note=59, velocity=0, time=0),
    Message('note_on', channel=4, note=54, velocity=0, time=0),
    Message('note_on', channel=4, note=40, velocity=100, time=0),
    Message('note_on', channel=4, note=35, velocity=100, time=0),
    Message('note_on', channel=4, note=35, velocity=0, time=60),
    Message('note_on', channel=4, note=40, velocity=0, time=0),
    Message('note_on', channel=4, note=40, velocity=100, time=60),
    Message('note_on', channel=4, note=35, velocity=100, time=0),
    Message('note_on', channel=4, note=35, velocity=0, time=60),
    Message('note_on', channel=4, note=40, velocity=0, time=0),
    Message('note_on', channel=4, note=57, velocity=100, time=60),
    Message('note_on', channel=4, note=62, velocity=100, time=0),
    Message('note_on', channel=4, note=50, velocity=100, time=0),
    Message('note_on', channel=4, note=50, velocity=0, time=240),
    Message('note_on', channel=4, note=62, velocity=0, time=0),
    Message('note_on', channel=4, note=57, velocity=0, time=0),
    Message('note_on', channel=4, note=40, velocity=100, time=0),
    Message('note_on', channel=4, note=35, velocity=100, time=0),
    Message('note_on', channel=4, note=35, velocity=0, time=60),
    Message('note_on', channel=4, note=40, velocity=0, time=0),
    Message('note_on', channel=4, note=40, velocity=100, time=60),
    Message('note_on', channel=4, note=35, velocity=100, time=0),
    Message('note_on', channel=4, note=35, velocity=0, time=60),
    Message('note_on', channel=4, note=40, velocity=0, time=0),
    Message('note_on', channel=4, note=54, velocity=100, time=60),
    Message('note_on', channel=4, note=59, velocity=100, time=0),
    Message('note_on', channel=4, note=47, velocity=100, time=0),
    Message('note_on', channel=4, note=47, velocity=0, time=240),
    Message('note_on', channel=4, note=59, velocity=0, time=0),
    Message('note_on', channel=4, note=54, velocity=0, time=0),
    Message('note_on', channel=4, note=54, velocity=100, time=0),
    Message('note_on', channel=4, note=59, velocity=100, time=0),
    Message('note_on', channel=4, note=47, velocity=100, time=0),
    Message('note_on', channel=4, note=47, velocity=0, time=240),
    Message('note_on', channel=4, note=59, velocity=0, time=0),
    Message('note_on', channel=4, note=54, velocity=0, time=0),
    Message('note_on', channel=4, note=53, velocity=100, time=0),
    Message('note_on', channel=4, note=58, velocity=100, time=0),
    Message('note_on', channel=4, note=46, velocity=100, time=0),
    Message('note_on', channel=4, note=46, velocity=0, time=240),
    Message('note_on', channel=4, note=58, velocity=0, time=0),
    Message('note_on', channel=4, note=53, velocity=0, time=0),
    Message('note_on', channel=4, note=52, velocity=100, time=0),
    Message('note_on', channel=4, note=57, velocity=100, time=0),
    Message('note_on', channel=4, note=45, velocity=100, time=0),
    Message('note_on', channel=4, note=45, velocity=0, time=240),
    Message('note_on', channel=4, note=57, velocity=0, time=0),
    Message('note_on', channel=4, note=52, velocity=0, time=0),
    Message('note_on', channel=4, note=52, velocity=100, time=0),
    Message('note_on', channel=4, note=57, velocity=100, time=0),
    Message('note_on', channel=4, note=45, velocity=100, time=0),
    Message('note_on', channel=4, note=45, velocity=0, time=240),
    Message('note_on', channel=4, note=57, velocity=0, time=0),
    Message('note_on', channel=4, note=52, velocity=0, time=0),
    Message('note_on', channel=4, note=38, velocity=100, time=0),
    Message('note_on', channel=4, note=33, velocity=100, time=0),
    Message('note_on', channel=4, note=33, velocity=0, time=60),
    Message('note_on', channel=4, note=38, velocity=0, time=0),
    Message('note_on', channel=4, note=38, velocity=100, time=60),
    Message('note_on', channel=4, note=33, velocity=100, time=0),
    Message('note_on', channel=4, note=33, velocity=0, time=60),
    Message('note_on', channel=4, note=38, velocity=0, time=0),
    Message('note_on', channel=4, note=38, velocity=100, time=60),
    Message('note_on', channel=4, note=33, velocity=100, time=0),
    Message('note_on', channel=4, note=33, velocity=0, time=60),
    Message('note_on', channel=4, note=38, velocity=0, time=0),
    Message('note_on', channel=4, note=51, velocity=100, time=60),
    Message('note_on', channel=4, note=56, velocity=100, time=0),
    Message('note_on', channel=4, note=44, velocity=100, time=0),
    Message('note_on', channel=4, note=44, velocity=0, time=120),
    Message('note_on', channel=4, note=56, velocity=0, time=0),
    Message('note_on', channel=4, note=51, velocity=0, time=0),
    Message('note_on', channel=4, note=51, velocity=100, time=0),
    Message('note_on', channel=4, note=56, velocity=100, time=0),
    Message('note_on', channel=4, note=44, velocity=100, time=0),
    Message('note_on', channel=4, note=44, velocity=0, time=120),
    Message('note_on', channel=4, note=56, velocity=0, time=0),
    Message('note_on', channel=4, note=51, velocity=0, time=0),
    Message('note_on', channel=4, note=52, velocity=100, time=0),
    Message('note_on', channel=4, note=57, velocity=100, time=0),
    Message('note_on', channel=4, note=45, velocity=100, time=0),
    Message('note_on', channel=4, note=45, velocity=0, time=120),
    Message('note_on', channel=4, note=57, velocity=0, time=0),
    Message('note_on', channel=4, note=52, velocity=0, time=0),
    Message('note_on', channel=4, note=52, velocity=100, time=0),
    Message('note_on', channel=4, note=57, velocity=100, time=0),
    Message('note_on', channel=4, note=45, velocity=100, time=0),
    Message('note_on', channel=4, note=45, velocity=0, time=240),
    Message('note_on', channel=4, note=57, velocity=0, time=0),
    Message('note_on', channel=4, note=52, velocity=0, time=0),
    Message('note_on', channel=4, note=52, velocity=100, time=0),
    Message('note_on', channel=4, note=57, velocity=100, time=0),
    Message('note_on', channel=4, note=45, velocity=100, time=0),
    Message('note_on', channel=4, note=45, velocity=0, time=240),
    Message('note_on', channel=4, note=57, velocity=0, time=0),
    Message('note_on', channel=4, note=52, velocity=0, time=0),
    Message('note_on', channel=4, note=53, velocity=100, time=0),
    Message('note_on', channel=4, note=58, velocity=100, time=0),
    Message('note_on', channel=4, note=46, velocity=100, time=0),
    Message('note_on', channel=4, note=46, velocity=0, time=240),
    Message('note_on', channel=4, note=58, velocity=0, time=0),
    Message('note_on', channel=4, note=53, velocity=0, time=0),
    Message('note_on', channel=4, note=54, velocity=100, time=0),
    Message('note_on', channel=4, note=59, velocity=100, time=0),
    Message('note_on', channel=4, note=47, velocity=100, time=0),
    Message('note_on', channel=4, note=47, velocity=0, time=240),
    Message('note_on', channel=4, note=59, velocity=0, time=0),
    Message('note_on', channel=4, note=54, velocity=0, time=0),
    Message('note_on', channel=4, note=54, velocity=100, time=0),
    Message('note_on', channel=4, note=59, velocity=100, time=0),
    Message('note_on', channel=4, note=47, velocity=100, time=0),
    Message('note_on', channel=4, note=47, velocity=0, time=240),
    Message('note_on', channel=4, note=59, velocity=0, time=0),
    Message('note_on', channel=4, note=54, velocity=0, time=0),
    Message('note_on', channel=4, note=40, velocity=100, time=0),
    Message('note_on', channel=4, note=35, velocity=100, time=0),
    Message('note_on', channel=4, note=35, velocity=0, time=60),
    Message('note_on', channel=4, note=40, velocity=0, time=0),
    Message('note_on', channel=4, note=40, velocity=100, time=60),
    Message('note_on', channel=4, note=35, velocity=100, time=0),
    Message('note_on', channel=4, note=35, velocity=0, time=60),
    Message('note_on', channel=4, note=40, velocity=0, time=0),
    Message('note_on', channel=4, note=57, velocity=100, time=60),
    Message('note_on', channel=4, note=62, velocity=100, time=0),
    Message('note_on', channel=4, note=50, velocity=100, time=0),
    Message('note_on', channel=4, note=50, velocity=0, time=240),
    Message('note_on', channel=4, note=62, velocity=0, time=0),
    Message('note_on', channel=4, note=57, velocity=0, time=0),
    Message('note_on', channel=4, note=40, velocity=100, time=0),
    Message('note_on', channel=4, note=35, velocity=100, time=0),
    Message('note_on', channel=4, note=35, velocity=0, time=60),
    Message('note_on', channel=4, note=40, velocity=0, time=0),
    Message('note_on', channel=4, note=40, velocity=100, time=60),
    Message('note_on', channel=4, note=35, velocity=100, time=0),
    Message('note_on', channel=4, note=35, velocity=0, time=60),
    Message('note_on', channel=4, note=40, velocity=0, time=0),
    Message('note_on', channel=4, note=54, velocity=100, time=60),
    Message('note_on', channel=4, note=59, velocity=100, time=0),
    Message('note_on', channel=4, note=47, velocity=100, time=0),
    Message('note_on', channel=4, note=47, velocity=0, time=240),
    Message('note_on', channel=4, note=59, velocity=0, time=0),
    Message('note_on', channel=4, note=54, velocity=0, time=0),
    Message('note_on', channel=4, note=54, velocity=100, time=0),
    Message('note_on', channel=4, note=59, velocity=100, time=0),
    Message('note_on', channel=4, note=47, velocity=100, time=0),
    Message('note_on', channel=4, note=47, velocity=0, time=240),
    Message('note_on', channel=4, note=59, velocity=0, time=0),
    Message('note_on', channel=4, note=54, velocity=0, time=0),
    Message('note_on', channel=4, note=53, velocity=100, time=0),
    Message('note_on', channel=4, note=58, velocity=100, time=0),
    Message('note_on', channel=4, note=46, velocity=100, time=0),
    Message('note_on', channel=4, note=46, velocity=0, time=240),
    Message('note_on', channel=4, note=58, velocity=0, time=0),
    Message('note_on', channel=4, note=53, velocity=0, time=0),
    Message('note_on', channel=4, note=52, velocity=100, time=0),
    Message('note_on', channel=4, note=57, velocity=100, time=0),
    Message('note_on', channel=4, note=45, velocity=100, time=0),
    Message('note_on', channel=4, note=45, velocity=0, time=240),
    Message('note_on', channel=4, note=57, velocity=0, time=0),
    Message('note_on', channel=4, note=52, velocity=0, time=0),
    Message('note_on', channel=4, note=52, velocity=100, time=0),
    Message('note_on', channel=4, note=57, velocity=100, time=0),
    Message('note_on', channel=4, note=45, velocity=100, time=0),
    Message('note_on', channel=4, note=45, velocity=0, time=240),
    Message('note_on', channel=4, note=57, velocity=0, time=0),
    Message('note_on', channel=4, note=52, velocity=0, time=0),
    Message('note_on', channel=4, note=57, velocity=100, time=0),
    Message('note_on', channel=4, note=45, velocity=100, time=0),
    Message('note_on', channel=4, note=52, velocity=100, time=0),
    Message('note_on', channel=4, note=52, velocity=0, time=240),
    Message('note_on', channel=4, note=45, velocity=0, time=0),
    Message('note_on', channel=4, note=57, velocity=0, time=0),
    Message('pitchwheel', channel=4, pitch=0, time=1200),
    Message('note_on', channel=4, note=59, velocity=100, time=0),
    Message('note_on', channel=4, note=54, velocity=100, time=0),
    Message('note_on', channel=4, note=47, velocity=100, time=0),
    Message('note_on', channel=4, note=47, velocity=0, time=480),
    Message('note_on', channel=4, note=54, velocity=0, time=0),
    Message('note_on', channel=4, note=59, velocity=0, time=0),
    Message('note_on', channel=4, note=62, velocity=100, time=0),
    Message('note_on', channel=4, note=57, velocity=100, time=0),
    Message('note_on', channel=4, note=50, velocity=100, time=0),
    Message('note_on', channel=4, note=50, velocity=0, time=480),
    Message('note_on', channel=4, note=57, velocity=0, time=0),
    Message('note_on', channel=4, note=62, velocity=0, time=0),
    Message('note_on', channel=4, note=62, velocity=100, time=0),
    Message('note_on', channel=4, note=57, velocity=100, time=0),
    Message('note_on', channel=4, note=50, velocity=100, time=0),
    Message('pitchwheel', channel=4, pitch=1365, time=180),
    Message('note_on', channel=4, note=50, velocity=0, time=60),
    Message('note_on', channel=4, note=57, velocity=0, time=0),
    Message('note_on', channel=4, note=62, velocity=0, time=0),
    Message('pitchwheel', channel=4, pitch=0, time=0),
    Message('note_on', channel=4, note=64, velocity=100, time=0),
    Message('note_on', channel=4, note=59, velocity=100, time=0),
    Message('note_on', channel=4, note=52, velocity=100, time=0),
    Message('note_on', channel=4, note=52, velocity=0, time=240),
    Message('note_on', channel=4, note=59, velocity=0, time=0),
    Message('note_on', channel=4, note=64, velocity=0, time=0),
    Message('note_on', channel=4, note=64, velocity=100, time=0),
    Message('note_on', channel=4, note=59, velocity=100, time=0),
    Message('note_on', channel=4, note=52, velocity=100, time=0),
    Message('note_on', channel=4, note=52, velocity=0, time=480),
    Message('note_on', channel=4, note=59, velocity=0, time=0),
    Message('note_on', channel=4, note=64, velocity=0, time=0),
    Message('note_on', channel=4, note=67, velocity=100, time=0),
    Message('note_on', channel=4, note=62, velocity=100, time=0),
    Message('note_on', channel=4, note=55, velocity=100, time=0),
    Message('note_on', channel=4, note=55, velocity=0, time=120),
    Message('note_on', channel=4, note=62, velocity=0, time=0),
    Message('note_on', channel=4, note=67, velocity=0, time=0),
    Message('note_on', channel=4, note=66, velocity=100, time=0),
    Message('note_on', channel=4, note=61, velocity=100, time=0),
    Message('note_on', channel=4, note=54, velocity=100, time=0),
    Message('note_on', channel=4, note=54, velocity=0, time=120),
    Message('note_on', channel=4, note=61, velocity=0, time=0),
    Message('note_on', channel=4, note=66, velocity=0, time=0),
    Message('note_on', channel=4, note=67, velocity=100, time=0),
    Message('note_on', channel=4, note=62, velocity=100, time=0),
    Message('note_on', channel=4, note=55, velocity=100, time=0),
    Message('note_on', channel=4, note=55, velocity=0, time=120),
    Message('note_on', channel=4, note=62, velocity=0, time=0),
    Message('note_on', channel=4, note=67, velocity=0, time=0),
    Message('note_on', channel=4, note=66, velocity=100, time=0),
    Message('note_on', channel=4, note=61, velocity=100, time=0),
    Message('note_on', channel=4, note=54, velocity=100, time=0),
    Message('note_on', channel=4, note=54, velocity=0, time=120),
    Message('note_on', channel=4, note=61, velocity=0, time=0),
    Message('note_on', channel=4, note=66, velocity=0, time=0),
    Message('note_on', channel=4, note=67, velocity=100, time=0),
    Message('note_on', channel=4, note=62, velocity=100, time=0),
    Message('note_on', channel=4, note=55, velocity=100, time=0),
    Message('note_on', channel=4, note=55, velocity=0, time=120),
    Message('note_on', channel=4, note=62, velocity=0, time=0),
    Message('note_on', channel=4, note=67, velocity=0, time=0),
    Message('note_on', channel=4, note=66, velocity=100, time=0),
    Message('note_on', channel=4, note=61, velocity=100, time=0),
    Message('note_on', channel=4, note=54, velocity=100, time=0),
    Message('note_on', channel=4, note=54, velocity=0, time=120),
    Message('note_on', channel=4, note=61, velocity=0, time=0),
    Message('note_on', channel=4, note=66, velocity=0, time=0),
    Message('note_on', channel=4, note=62, velocity=100, time=0),
    Message('note_on', channel=4, note=57, velocity=100, time=0),
    Message('note_on', channel=4, note=50, velocity=100, time=0),
    Message('note_on', channel=4, note=50, velocity=0, time=234),
    Message('note_on', channel=4, note=57, velocity=0, time=0),
    Message('note_on', channel=4, note=62, velocity=0, time=0),
    Message('note_on', channel=4, note=62, velocity=100, time=6),
    Message('note_on', channel=4, note=57, velocity=100, time=0),
    Message('note_on', channel=4, note=50, velocity=100, time=0),
    Message('pitchwheel', channel=4, pitch=1365, time=180),
    Message('note_on', channel=4, note=50, velocity=0, time=60),
    Message('note_on', channel=4, note=57, velocity=0, time=0),
    Message('note_on', channel=4, note=62, velocity=0, time=0),
    Message('pitchwheel', channel=4, pitch=0, time=0),
    Message('note_on', channel=4, note=64, velocity=100, time=0),
    Message('note_on', channel=4, note=59, velocity=100, time=0),
    Message('note_on', channel=4, note=52, velocity=100, time=0),
    Message('note_on', channel=4, note=52, velocity=0, time=240),
    Message('note_on', channel=4, note=59, velocity=0, time=0),
    Message('note_on', channel=4, note=64, velocity=0, time=0),
    Message('note_on', channel=4, note=64, velocity=100, time=0),
    Message('note_on', channel=4, note=59, velocity=100, time=0),
    Message('note_on', channel=4, note=52, velocity=100, time=0),
    Message('note_on', channel=4, note=52, velocity=0, time=480),
    Message('note_on', channel=4, note=59, velocity=0, time=0),
    Message('note_on', channel=4, note=64, velocity=0, time=0),
    Message('pitchwheel', channel=4, pitch=0, time=0),
    Message('note_on', channel=4, note=59, velocity=100, time=0),
    Message('note_on', channel=4, note=54, velocity=100, time=0),
    Message('note_on', channel=4, note=47, velocity=100, time=0),
    Message('note_on', channel=4, note=47, velocity=0, time=480),
    Message('note_on', channel=4, note=54, velocity=0, time=0),
    Message('note_on', channel=4, note=59, velocity=0, time=0),
    Message('note_on', channel=4, note=62, velocity=100, time=0),
    Message('note_on', channel=4, note=57, velocity=100, time=0),
    Message('note_on', channel=4, note=50, velocity=100, time=0),
    Message('note_on', channel=4, note=50, velocity=0, time=480),
    Message('note_on', channel=4, note=57, velocity=0, time=0),
    Message('note_on', channel=4, note=62, velocity=0, time=0),
    Message('note_on', channel=4, note=62, velocity=100, time=0),
    Message('note_on', channel=4, note=57, velocity=100, time=0),
    Message('note_on', channel=4, note=50, velocity=100, time=0),
    Message('pitchwheel', channel=4, pitch=1365, time=180),
    Message('note_on', channel=4, note=50, velocity=0, time=60),
    Message('note_on', channel=4, note=57, velocity=0, time=0),
    Message('note_on', channel=4, note=62, velocity=0, time=0),
    Message('pitchwheel', channel=4, pitch=0, time=0),
    Message('note_on', channel=4, note=64, velocity=100, time=0),
    Message('note_on', channel=4, note=59, velocity=100, time=0),
    Message('note_on', channel=4, note=52, velocity=100, time=0),
    Message('note_on', channel=4, note=52, velocity=0, time=240),
    Message('note_on', channel=4, note=59, velocity=0, time=0),
    Message('note_on', channel=4, note=64, velocity=0, time=0),
    Message('note_on', channel=4, note=64, velocity=100, time=0),
    Message('note_on', channel=4, note=59, velocity=100, time=0),
    Message('note_on', channel=4, note=52, velocity=100, time=0),
    Message('note_on', channel=4, note=52, velocity=0, time=480),
    Message('note_on', channel=4, note=59, velocity=0, time=0),
    Message('note_on', channel=4, note=64, velocity=0, time=0),
    Message('note_on', channel=4, note=67, velocity=100, time=0),
    Message('note_on', channel=4, note=62, velocity=100, time=0),
    Message('note_on', channel=4, note=55, velocity=100, time=0),
    Message('note_on', channel=4, note=55, velocity=0, time=120),
    Message('note_on', channel=4, note=62, velocity=0, time=0),
    Message('note_on', channel=4, note=67, velocity=0, time=0),
    Message('note_on', channel=4, note=66, velocity=100, time=0),
    Message('note_on', channel=4, note=61, velocity=100, time=0),
    Message('note_on', channel=4, note=54, velocity=100, time=0),
    Message('note_on', channel=4, note=54, velocity=0, time=120),
    Message('note_on', channel=4, note=61, velocity=0, time=0),
    Message('note_on', channel=4, note=66, velocity=0, time=0),
    Message('note_on', channel=4, note=67, velocity=100, time=0),
    Message('note_on', channel=4, note=62, velocity=100, time=0),
    Message('note_on', channel=4, note=55, velocity=100, time=0),
    Message('note_on', channel=4, note=55, velocity=0, time=120),
    Message('note_on', channel=4, note=62, velocity=0, time=0),
    Message('note_on', channel=4, note=67, velocity=0, time=0),
    Message('note_on', channel=4, note=66, velocity=100, time=0),
    Message('note_on', channel=4, note=61, velocity=100, time=0),
    Message('note_on', channel=4, note=54, velocity=100, time=0),
    Message('note_on', channel=4, note=54, velocity=0, time=120),
    Message('note_on', channel=4, note=61, velocity=0, time=0),
    Message('note_on', channel=4, note=66, velocity=0, time=0),
    Message('note_on', channel=4, note=67, velocity=100, time=0),
    Message('note_on', channel=4, note=62, velocity=100, time=0),
    Message('note_on', channel=4, note=55, velocity=100, time=0),
    Message('note_on', channel=4, note=55, velocity=0, time=120),
    Message('note_on', channel=4, note=62, velocity=0, time=0),
    Message('note_on', channel=4, note=67, velocity=0, time=0),
    Message('note_on', channel=4, note=66, velocity=100, time=0),
    Message('note_on', channel=4, note=61, velocity=100, time=0),
    Message('note_on', channel=4, note=54, velocity=100, time=0),
    Message('note_on', channel=4, note=54, velocity=0, time=120),
    Message('note_on', channel=4, note=61, velocity=0, time=0),
    Message('note_on', channel=4, note=66, velocity=0, time=0),
    Message('note_on', channel=4, note=62, velocity=100, time=0),
    Message('note_on', channel=4, note=57, velocity=100, time=0),
    Message('note_on', channel=4, note=50, velocity=100, time=0),
    Message('note_on', channel=4, note=50, velocity=0, time=234),
    Message('note_on', channel=4, note=57, velocity=0, time=0),
    Message('note_on', channel=4, note=62, velocity=0, time=0),
    Message('note_on', channel=4, note=62, velocity=100, time=6),
    Message('note_on', channel=4, note=57, velocity=100, time=0),
    Message('note_on', channel=4, note=50, velocity=100, time=0),
    Message('pitchwheel', channel=4, pitch=1365, time=180),
    Message('note_on', channel=4, note=50, velocity=0, time=60),
    Message('note_on', channel=4, note=57, velocity=0, time=0),
    Message('note_on', channel=4, note=62, velocity=0, time=0),
    Message('pitchwheel', channel=4, pitch=0, time=0),
    Message('note_on', channel=4, note=64, velocity=100, time=0),
    Message('note_on', channel=4, note=59, velocity=100, time=0),
    Message('note_on', channel=4, note=52, velocity=100, time=0),
    Message('note_on', channel=4, note=52, velocity=0, time=240),
    Message('note_on', channel=4, note=59, velocity=0, time=0),
    Message('note_on', channel=4, note=64, velocity=0, time=0),
    Message('note_on', channel=4, note=64, velocity=100, time=0),
    Message('note_on', channel=4, note=59, velocity=100, time=0),
    Message('note_on', channel=4, note=52, velocity=100, time=0),
    Message('note_on', channel=4, note=52, velocity=0, time=480),
    Message('note_on', channel=4, note=59, velocity=0, time=0),
    Message('note_on', channel=4, note=64, velocity=0, time=0),
    Message('pitchwheel', channel=4, pitch=0, time=0),
    Message('note_on', channel=4, note=59, velocity=100, time=0),
    Message('note_on', channel=4, note=54, velocity=100, time=0),
    Message('note_on', channel=4, note=47, velocity=100, time=0),
    Message('note_on', channel=4, note=47, velocity=0, time=480),
    Message('note_on', channel=4, note=54, velocity=0, time=0),
    Message('note_on', channel=4, note=59, velocity=0, time=0),
    Message('note_on', channel=4, note=62, velocity=100, time=0),
    Message('note_on', channel=4, note=57, velocity=100, time=0),
    Message('note_on', channel=4, note=50, velocity=100, time=0),
    Message('note_on', channel=4, note=50, velocity=0, time=480),
    Message('note_on', channel=4, note=57, velocity=0, time=0),
    Message('note_on', channel=4, note=62, velocity=0, time=0),
    Message('note_on', channel=4, note=62, velocity=100, time=0),
    Message('note_on', channel=4, note=57, velocity=100, time=0),
    Message('note_on', channel=4, note=50, velocity=100, time=0),
    Message('pitchwheel', channel=4, pitch=1365, time=180),
    Message('note_on', channel=4, note=50, velocity=0, time=60),
    Message('note_on', channel=4, note=57, velocity=0, time=0),
    Message('note_on', channel=4, note=62, velocity=0, time=0),
    Message('pitchwheel', channel=4, pitch=0, time=0),
    Message('note_on', channel=4, note=64, velocity=100, time=0),
    Message('note_on', channel=4, note=59, velocity=100, time=0),
    Message('note_on', channel=4, note=52, velocity=100, time=0),
    Message('note_on', channel=4, note=52, velocity=0, time=240),
    Message('note_on', channel=4, note=59, velocity=0, time=0),
    Message('note_on', channel=4, note=64, velocity=0, time=0),
    Message('note_on', channel=4, note=64, velocity=100, time=0),
    Message('note_on', channel=4, note=59, velocity=100, time=0),
    Message('note_on', channel=4, note=52, velocity=100, time=0),
    Message('note_on', channel=4, note=52, velocity=0, time=480),
    Message('note_on', channel=4, note=59, velocity=0, time=0),
    Message('note_on', channel=4, note=64, velocity=0, time=0),
    Message('note_on', channel=4, note=67, velocity=100, time=0),
    Message('note_on', channel=4, note=62, velocity=100, time=0),
    Message('note_on', channel=4, note=55, velocity=100, time=0),
    Message('note_on', channel=4, note=55, velocity=0, time=120),
    Message('note_on', channel=4, note=62, velocity=0, time=0),
    Message('note_on', channel=4, note=67, velocity=0, time=0),
    Message('note_on', channel=4, note=66, velocity=100, time=0),
    Message('note_on', channel=4, note=61, velocity=100, time=0),
    Message('note_on', channel=4, note=54, velocity=100, time=0),
    Message('note_on', channel=4, note=54, velocity=0, time=120),
    Message('note_on', channel=4, note=61, velocity=0, time=0),
    Message('note_on', channel=4, note=66, velocity=0, time=0),
    Message('note_on', channel=4, note=67, velocity=100, time=0),
    Message('note_on', channel=4, note=62, velocity=100, time=0),
    Message('note_on', channel=4, note=55, velocity=100, time=0),
    Message('note_on', channel=4, note=55, velocity=0, time=120),
    Message('note_on', channel=4, note=62, velocity=0, time=0),
    Message('note_on', channel=4, note=67, velocity=0, time=0),
    Message('note_on', channel=4, note=66, velocity=100, time=0),
    Message('note_on', channel=4, note=61, velocity=100, time=0),
    Message('note_on', channel=4, note=54, velocity=100, time=0),
    Message('note_on', channel=4, note=54, velocity=0, time=120),
    Message('note_on', channel=4, note=61, velocity=0, time=0),
    Message('note_on', channel=4, note=66, velocity=0, time=0),
    Message('note_on', channel=4, note=67, velocity=100, time=0),
    Message('note_on', channel=4, note=62, velocity=100, time=0),
    Message('note_on', channel=4, note=55, velocity=100, time=0),
    Message('note_on', channel=4, note=55, velocity=0, time=120),
    Message('note_on', channel=4, note=62, velocity=0, time=0),
    Message('note_on', channel=4, note=67, velocity=0, time=0),
    Message('note_on', channel=4, note=66, velocity=100, time=0),
    Message('note_on', channel=4, note=61, velocity=100, time=0),
    Message('note_on', channel=4, note=54, velocity=100, time=0),
    Message('note_on', channel=4, note=54, velocity=0, time=120),
    Message('note_on', channel=4, note=61, velocity=0, time=0),
    Message('note_on', channel=4, note=66, velocity=0, time=0),
    Message('note_on', channel=4, note=62, velocity=100, time=0),
    Message('note_on', channel=4, note=57, velocity=100, time=0),
    Message('note_on', channel=4, note=50, velocity=100, time=0),
    Message('note_on', channel=4, note=50, velocity=0, time=234),
    Message('note_on', channel=4, note=57, velocity=0, time=0),
    Message('note_on', channel=4, note=62, velocity=0, time=0),
    Message('note_on', channel=4, note=62, velocity=100, time=6),
    Message('note_on', channel=4, note=57, velocity=100, time=0),
    Message('note_on', channel=4, note=50, velocity=100, time=0),
    Message('pitchwheel', channel=4, pitch=1365, time=180),
    Message('note_on', channel=4, note=50, velocity=0, time=60),
    Message('note_on', channel=4, note=57, velocity=0, time=0),
    Message('note_on', channel=4, note=62, velocity=0, time=0),
    Message('pitchwheel', channel=4, pitch=0, time=0),
    Message('note_on', channel=4, note=64, velocity=100, time=0),
    Message('note_on', channel=4, note=59, velocity=100, time=0),
    Message('note_on', channel=4, note=52, velocity=100, time=0),
    Message('note_on', channel=4, note=52, velocity=0, time=240),
    Message('note_on', channel=4, note=59, velocity=0, time=0),
    Message('note_on', channel=4, note=64, velocity=0, time=0),
    Message('note_on', channel=4, note=64, velocity=100, time=0),
    Message('note_on', channel=4, note=59, velocity=100, time=0),
    Message('note_on', channel=4, note=52, velocity=100, time=0),
    Message('note_on', channel=4, note=52, velocity=0, time=480),
    Message('note_on', channel=4, note=59, velocity=0, time=0),
    Message('note_on', channel=4, note=64, velocity=0, time=0),
    Message('pitchwheel', channel=4, pitch=0, time=0),
    Message('note_on', channel=4, note=59, velocity=100, time=0),
    Message('note_on', channel=4, note=54, velocity=100, time=0),
    Message('note_on', channel=4, note=47, velocity=100, time=0),
    Message('note_on', channel=4, note=47, velocity=0, time=480),
    Message('note_on', channel=4, note=54, velocity=0, time=0),
    Message('note_on', channel=4, note=59, velocity=0, time=0),
    Message('note_on', channel=4, note=62, velocity=100, time=0),
    Message('note_on', channel=4, note=57, velocity=100, time=0),
    Message('note_on', channel=4, note=50, velocity=100, time=0),
    Message('note_on', channel=4, note=50, velocity=0, time=480),
    Message('note_on', channel=4, note=57, velocity=0, time=0),
    Message('note_on', channel=4, note=62, velocity=0, time=0),
    Message('note_on', channel=4, note=62, velocity=100, time=0),
    Message('note_on', channel=4, note=57, velocity=100, time=0),
    Message('note_on', channel=4, note=50, velocity=100, time=0),
    Message('pitchwheel', channel=4, pitch=1365, time=180),
    Message('note_on', channel=4, note=50, velocity=0, time=60),
    Message('note_on', channel=4, note=57, velocity=0, time=0),
    Message('note_on', channel=4, note=62, velocity=0, time=0),
    Message('pitchwheel', channel=4, pitch=0, time=0),
    Message('note_on', channel=4, note=64, velocity=100, time=0),
    Message('note_on', channel=4, note=59, velocity=100, time=0),
    Message('note_on', channel=4, note=52, velocity=100, time=0),
    Message('note_on', channel=4, note=52, velocity=0, time=240),
    Message('note_on', channel=4, note=59, velocity=0, time=0),
    Message('note_on', channel=4, note=64, velocity=0, time=0),
    Message('note_on', channel=4, note=64, velocity=100, time=0),
    Message('note_on', channel=4, note=59, velocity=100, time=0),
    Message('note_on', channel=4, note=52, velocity=100, time=0),
    Message('note_on', channel=4, note=52, velocity=0, time=480),
    Message('note_on', channel=4, note=59, velocity=0, time=0),
    Message('note_on', channel=4, note=64, velocity=0, time=0),
    Message('note_on', channel=4, note=67, velocity=100, time=0),
    Message('note_on', channel=4, note=62, velocity=100, time=0),
    Message('note_on', channel=4, note=55, velocity=100, time=0),
    Message('note_on', channel=4, note=55, velocity=0, time=120),
    Message('note_on', channel=4, note=62, velocity=0, time=0),
    Message('note_on', channel=4, note=67, velocity=0, time=0),
    Message('note_on', channel=4, note=66, velocity=100, time=0),
    Message('note_on', channel=4, note=61, velocity=100, time=0),
    Message('note_on', channel=4, note=54, velocity=100, time=0),
    Message('note_on', channel=4, note=54, velocity=0, time=120),
    Message('note_on', channel=4, note=61, velocity=0, time=0),
    Message('note_on', channel=4, note=66, velocity=0, time=0),
    Message('note_on', channel=4, note=67, velocity=100, time=0),
    Message('note_on', channel=4, note=62, velocity=100, time=0),
    Message('note_on', channel=4, note=55, velocity=100, time=0),
    Message('note_on', channel=4, note=55, velocity=0, time=120),
    Message('note_on', channel=4, note=62, velocity=0, time=0),
    Message('note_on', channel=4, note=67, velocity=0, time=0),
    Message('note_on', channel=4, note=66, velocity=100, time=0),
    Message('note_on', channel=4, note=61, velocity=100, time=0),
    Message('note_on', channel=4, note=54, velocity=100, time=0),
    Message('note_on', channel=4, note=54, velocity=0, time=120),
    Message('note_on', channel=4, note=61, velocity=0, time=0),
    Message('note_on', channel=4, note=66, velocity=0, time=0),
    Message('note_on', channel=4, note=67, velocity=100, time=0),
    Message('note_on', channel=4, note=62, velocity=100, time=0),
    Message('note_on', channel=4, note=55, velocity=100, time=0),
    Message('note_on', channel=4, note=55, velocity=0, time=120),
    Message('note_on', channel=4, note=62, velocity=0, time=0),
    Message('note_on', channel=4, note=67, velocity=0, time=0),
    Message('note_on', channel=4, note=66, velocity=100, time=0),
    Message('note_on', channel=4, note=61, velocity=100, time=0),
    Message('note_on', channel=4, note=54, velocity=100, time=0),
    Message('note_on', channel=4, note=54, velocity=0, time=120),
    Message('note_on', channel=4, note=61, velocity=0, time=0),
    Message('note_on', channel=4, note=66, velocity=0, time=0),
    Message('note_on', channel=4, note=62, velocity=100, time=0),
    Message('note_on', channel=4, note=57, velocity=100, time=0),
    Message('note_on', channel=4, note=50, velocity=100, time=0),
    Message('note_on', channel=4, note=50, velocity=0, time=234),
    Message('note_on', channel=4, note=57, velocity=0, time=0),
    Message('note_on', channel=4, note=62, velocity=0, time=0),
    Message('note_on', channel=4, note=62, velocity=100, time=6),
    Message('note_on', channel=4, note=57, velocity=100, time=0),
    Message('note_on', channel=4, note=50, velocity=100, time=0),
    Message('pitchwheel', channel=4, pitch=1365, time=180),
    Message('note_on', channel=4, note=50, velocity=0, time=60),
    Message('note_on', channel=4, note=57, velocity=0, time=0),
    Message('note_on', channel=4, note=62, velocity=0, time=0),
    Message('pitchwheel', channel=4, pitch=0, time=0),
    Message('note_on', channel=4, note=64, velocity=100, time=0),
    Message('note_on', channel=4, note=59, velocity=100, time=0),
    Message('note_on', channel=4, note=52, velocity=100, time=0),
    Message('note_on', channel=4, note=52, velocity=0, time=240),
    Message('note_on', channel=4, note=59, velocity=0, time=0),
    Message('note_on', channel=4, note=64, velocity=0, time=0),
    Message('note_on', channel=4, note=64, velocity=100, time=0),
    Message('note_on', channel=4, note=59, velocity=100, time=0),
    Message('note_on', channel=4, note=52, velocity=100, time=0),
    Message('note_on', channel=4, note=52, velocity=0, time=480),
    Message('note_on', channel=4, note=59, velocity=0, time=0),
    Message('note_on', channel=4, note=64, velocity=0, time=0),
    Message('note_on', channel=4, note=52, velocity=100, time=0),
    Message('note_on', channel=4, note=59, velocity=100, time=0),
    Message('note_on', channel=4, note=64, velocity=100, time=0),
    Message('note_on', channel=4, note=64, velocity=0, time=1920),
    Message('note_on', channel=4, note=59, velocity=0, time=0),
    Message('note_on', channel=4, note=52, velocity=0, time=0),
    Message('note_on', channel=4, note=50, velocity=100, time=0),
    Message('note_on', channel=4, note=62, velocity=100, time=0),
    Message('note_on', channel=4, note=57, velocity=100, time=0),
    Message('note_on', channel=4, note=57, velocity=0, time=1920),
    Message('note_on', channel=4, note=62, velocity=0, time=0),
    Message('note_on', channel=4, note=50, velocity=0, time=0),
    Message('note_on', channel=4, note=54, velocity=100, time=0),
    Message('note_on', channel=4, note=59, velocity=100, time=0),
    Message('note_on', channel=4, note=47, velocity=100, time=0),
    Message('note_on', channel=4, note=47, velocity=0, time=240),
    Message('note_on', channel=4, note=59, velocity=0, time=0),
    Message('note_on', channel=4, note=54, velocity=0, time=0),
    Message('note_on', channel=4, note=54, velocity=100, time=0),
    Message('note_on', channel=4, note=59, velocity=100, time=0),
    Message('note_on', channel=4, note=47, velocity=100, time=0),
    Message('note_on', channel=4, note=47, velocity=0, time=240),
    Message('note_on', channel=4, note=59, velocity=0, time=0),
    Message('note_on', channel=4, note=54, velocity=0, time=0),
    Message('note_on', channel=4, note=57, velocity=100, time=0),
    Message('note_on', channel=4, note=62, velocity=100, time=0),
    Message('note_on', channel=4, note=50, velocity=100, time=0),
    Message('note_on', channel=4, note=50, velocity=0, time=120),
    Message('note_on', channel=4, note=62, velocity=0, time=0),
    Message('note_on', channel=4, note=57, velocity=0, time=0),
    Message('note_on', channel=4, note=58, velocity=100, time=0),
    Message('note_on', channel=4, note=63, velocity=100, time=0),
    Message('note_on', channel=4, note=51, velocity=100, time=0),
    Message('note_on', channel=4, note=51, velocity=0, time=120),
    Message('note_on', channel=4, note=63, velocity=0, time=0),
    Message('note_on', channel=4, note=58, velocity=0, time=0),
    Message('note_on', channel=4, note=59, velocity=100, time=0),
    Message('note_on', channel=4, note=64, velocity=100, time=0),
    Message('note_on', channel=4, note=52, velocity=100, time=0),
    Message('note_on', channel=4, note=52, velocity=0, time=240),
    Message('note_on', channel=4, note=64, velocity=0, time=0),
    Message('note_on', channel=4, note=59, velocity=0, time=0),
    Message('note_on', channel=4, note=59, velocity=100, time=0),
    Message('note_on', channel=4, note=64, velocity=100, time=0),
    Message('note_on', channel=4, note=52, velocity=100, time=0),
    Message('note_on', channel=4, note=52, velocity=0, time=120),
    Message('note_on', channel=4, note=64, velocity=0, time=0),
    Message('note_on', channel=4, note=59, velocity=0, time=0),
    Message('note_on', channel=4, note=60, velocity=100, time=0),
    Message('note_on', channel=4, note=65, velocity=100, time=0),
    Message('note_on', channel=4, note=53, velocity=100, time=0),
    Message('note_on', channel=4, note=53, velocity=0, time=120),
    Message('note_on', channel=4, note=65, velocity=0, time=0),
    Message('note_on', channel=4, note=60, velocity=0, time=0),
    Message('note_on', channel=4, note=61, velocity=100, time=0),
    Message('note_on', channel=4, note=66, velocity=100, time=0),
    Message('note_on', channel=4, note=54, velocity=100, time=0),
    Message('note_on', channel=4, note=54, velocity=0, time=240),
    Message('note_on', channel=4, note=66, velocity=0, time=0),
    Message('note_on', channel=4, note=61, velocity=0, time=0),
    Message('note_on', channel=4, note=64, velocity=100, time=0),
    Message('note_on', channel=4, note=69, velocity=100, time=0),
    Message('note_on', channel=4, note=57, velocity=100, time=0),
    Message('note_on', channel=4, note=57, velocity=0, time=120),
    Message('note_on', channel=4, note=69, velocity=0, time=0),
    Message('note_on', channel=4, note=64, velocity=0, time=0),
    Message('note_on', channel=4, note=65, velocity=100, time=0),
    Message('note_on', channel=4, note=70, velocity=100, time=0),
    Message('note_on', channel=4, note=58, velocity=100, time=0),
    Message('note_on', channel=4, note=58, velocity=0, time=120),
    Message('note_on', channel=4, note=70, velocity=0, time=0),
    Message('note_on', channel=4, note=65, velocity=0, time=0),
    Message('note_on', channel=4, note=66, velocity=100, time=0),
    Message('note_on', channel=4, note=71, velocity=100, time=0),
    Message('note_on', channel=4, note=59, velocity=100, time=0),
    Message('note_on', channel=4, note=59, velocity=0, time=240),
    Message('note_on', channel=4, note=71, velocity=0, time=0),
    Message('note_on', channel=4, note=66, velocity=0, time=0),
    Message('note_on', channel=4, note=54, velocity=100, time=0),
    Message('note_on', channel=4, note=59, velocity=100, time=0),
    Message('note_on', channel=4, note=47, velocity=100, time=0),
    Message('note_on', channel=4, note=47, velocity=0, time=240),
    Message('note_on', channel=4, note=59, velocity=0, time=0),
    Message('note_on', channel=4, note=54, velocity=0, time=0),
    Message('note_on', channel=4, note=54, velocity=100, time=0),
    Message('note_on', channel=4, note=59, velocity=100, time=0),
    Message('note_on', channel=4, note=47, velocity=100, time=0),
    Message('note_on', channel=4, note=47, velocity=0, time=240),
    Message('note_on', channel=4, note=59, velocity=0, time=0),
    Message('note_on', channel=4, note=54, velocity=0, time=0),
    Message('note_on', channel=4, note=57, velocity=100, time=0),
    Message('note_on', channel=4, note=62, velocity=100, time=0),
    Message('note_on', channel=4, note=50, velocity=100, time=0),
    Message('note_on', channel=4, note=50, velocity=0, time=120),
    Message('note_on', channel=4, note=62, velocity=0, time=0),
    Message('note_on', channel=4, note=57, velocity=0, time=0),
    Message('note_on', channel=4, note=58, velocity=100, time=0),
    Message('note_on', channel=4, note=63, velocity=100, time=0),
    Message('note_on', channel=4, note=51, velocity=100, time=0),
    Message('note_on', channel=4, note=51, velocity=0, time=120),
    Message('note_on', channel=4, note=63, velocity=0, time=0),
    Message('note_on', channel=4, note=58, velocity=0, time=0),
    Message('note_on', channel=4, note=59, velocity=100, time=0),
    Message('note_on', channel=4, note=64, velocity=100, time=0),
    Message('note_on', channel=4, note=52, velocity=100, time=0),
    Message('note_on', channel=4, note=52, velocity=0, time=240),
    Message('note_on', channel=4, note=64, velocity=0, time=0),
    Message('note_on', channel=4, note=59, velocity=0, time=0),
    Message('note_on', channel=4, note=59, velocity=100, time=0),
    Message('note_on', channel=4, note=64, velocity=100, time=0),
    Message('note_on', channel=4, note=52, velocity=100, time=0),
    Message('note_on', channel=4, note=52, velocity=0, time=120),
    Message('note_on', channel=4, note=64, velocity=0, time=0),
    Message('note_on', channel=4, note=59, velocity=0, time=0),
    Message('note_on', channel=4, note=60, velocity=100, time=0),
    Message('note_on', channel=4, note=65, velocity=100, time=0),
    Message('note_on', channel=4, note=53, velocity=100, time=0),
    Message('note_on', channel=4, note=53, velocity=0, time=120),
    Message('note_on', channel=4, note=65, velocity=0, time=0),
    Message('note_on', channel=4, note=60, velocity=0, time=0),
    Message('note_on', channel=4, note=61, velocity=100, time=0),
    Message('note_on', channel=4, note=66, velocity=100, time=0),
    Message('note_on', channel=4, note=54, velocity=100, time=0),
    Message('note_on', channel=4, note=54, velocity=0, time=240),
    Message('note_on', channel=4, note=66, velocity=0, time=0),
    Message('note_on', channel=4, note=61, velocity=0, time=0),
    Message('note_on', channel=4, note=64, velocity=100, time=0),
    Message('note_on', channel=4, note=69, velocity=100, time=0),
    Message('note_on', channel=4, note=57, velocity=100, time=0),
    Message('note_on', channel=4, note=57, velocity=0, time=120),
    Message('note_on', channel=4, note=69, velocity=0, time=0),
    Message('note_on', channel=4, note=64, velocity=0, time=0),
    Message('note_on', channel=4, note=65, velocity=100, time=0),
    Message('note_on', channel=4, note=70, velocity=100, time=0),
    Message('note_on', channel=4, note=58, velocity=100, time=0),
    Message('note_on', channel=4, note=58, velocity=0, time=120),
    Message('note_on', channel=4, note=70, velocity=0, time=0),
    Message('note_on', channel=4, note=65, velocity=0, time=0),
    Message('note_on', channel=4, note=66, velocity=100, time=0),
    Message('note_on', channel=4, note=71, velocity=100, time=0),
    Message('note_on', channel=4, note=59, velocity=100, time=0),
    Message('note_on', channel=4, note=59, velocity=0, time=240),
    Message('note_on', channel=4, note=71, velocity=0, time=0),
    Message('note_on', channel=4, note=66, velocity=0, time=0),
    Message('note_on', channel=4, note=52, velocity=100, time=0),
    Message('note_on', channel=4, note=59, velocity=100, time=0),
    Message('note_on', channel=4, note=64, velocity=100, time=0),
    Message('note_on', channel=4, note=64, velocity=0, time=1920),
    Message('note_on', channel=4, note=59, velocity=0, time=0),
    Message('note_on', channel=4, note=52, velocity=0, time=0),
    Message('note_on', channel=4, note=50, velocity=100, time=0),
    Message('note_on', channel=4, note=62, velocity=100, time=0),
    Message('note_on', channel=4, note=57, velocity=100, time=0),
    Message('note_on', channel=4, note=57, velocity=0, time=1920),
    Message('note_on', channel=4, note=62, velocity=0, time=0),
    Message('note_on', channel=4, note=50, velocity=0, time=0),
    Message('note_on', channel=4, note=54, velocity=100, time=0),
    Message('note_on', channel=4, note=59, velocity=100, time=0),
    Message('note_on', channel=4, note=47, velocity=100, time=0),
    Message('note_on', channel=4, note=47, velocity=0, time=240),
    Message('note_on', channel=4, note=59, velocity=0, time=0),
    Message('note_on', channel=4, note=54, velocity=0, time=0),
    Message('note_on', channel=4, note=54, velocity=100, time=0),
    Message('note_on', channel=4, note=59, velocity=100, time=0),
    Message('note_on', channel=4, note=47, velocity=100, time=0),
    Message('note_on', channel=4, note=47, velocity=0, time=240),
    Message('note_on', channel=4, note=59, velocity=0, time=0),
    Message('note_on', channel=4, note=54, velocity=0, time=0),
    Message('note_on', channel=4, note=57, velocity=100, time=0),
    Message('note_on', channel=4, note=62, velocity=100, time=0),
    Message('note_on', channel=4, note=50, velocity=100, time=0),
    Message('note_on', channel=4, note=50, velocity=0, time=120),
    Message('note_on', channel=4, note=62, velocity=0, time=0),
    Message('note_on', channel=4, note=57, velocity=0, time=0),
    Message('note_on', channel=4, note=58, velocity=100, time=0),
    Message('note_on', channel=4, note=63, velocity=100, time=0),
    Message('note_on', channel=4, note=51, velocity=100, time=0),
    Message('note_on', channel=4, note=51, velocity=0, time=120),
    Message('note_on', channel=4, note=63, velocity=0, time=0),
    Message('note_on', channel=4, note=58, velocity=0, time=0),
    Message('note_on', channel=4, note=59, velocity=100, time=0),
    Message('note_on', channel=4, note=64, velocity=100, time=0),
    Message('note_on', channel=4, note=52, velocity=100, time=0),
    Message('note_on', channel=4, note=52, velocity=0, time=240),
    Message('note_on', channel=4, note=64, velocity=0, time=0),
    Message('note_on', channel=4, note=59, velocity=0, time=0),
    Message('note_on', channel=4, note=59, velocity=100, time=0),
    Message('note_on', channel=4, note=64, velocity=100, time=0),
    Message('note_on', channel=4, note=52, velocity=100, time=0),
    Message('note_on', channel=4, note=52, velocity=0, time=120),
    Message('note_on', channel=4, note=64, velocity=0, time=0),
    Message('note_on', channel=4, note=59, velocity=0, time=0),
    Message('note_on', channel=4, note=60, velocity=100, time=0),
    Message('note_on', channel=4, note=65, velocity=100, time=0),
    Message('note_on', channel=4, note=53, velocity=100, time=0),
    Message('note_on', channel=4, note=53, velocity=0, time=120),
    Message('note_on', channel=4, note=65, velocity=0, time=0),
    Message('note_on', channel=4, note=60, velocity=0, time=0),
    Message('note_on', channel=4, note=61, velocity=100, time=0),
    Message('note_on', channel=4, note=66, velocity=100, time=0),
    Message('note_on', channel=4, note=54, velocity=100, time=0),
    Message('note_on', channel=4, note=54, velocity=0, time=240),
    Message('note_on', channel=4, note=66, velocity=0, time=0),
    Message('note_on', channel=4, note=61, velocity=0, time=0),
    Message('note_on', channel=4, note=64, velocity=100, time=0),
    Message('note_on', channel=4, note=69, velocity=100, time=0),
    Message('note_on', channel=4, note=57, velocity=100, time=0),
    Message('note_on', channel=4, note=57, velocity=0, time=120),
    Message('note_on', channel=4, note=69, velocity=0, time=0),
    Message('note_on', channel=4, note=64, velocity=0, time=0),
    Message('note_on', channel=4, note=65, velocity=100, time=0),
    Message('note_on', channel=4, note=70, velocity=100, time=0),
    Message('note_on', channel=4, note=58, velocity=100, time=0),
    Message('note_on', channel=4, note=58, velocity=0, time=120),
    Message('note_on', channel=4, note=70, velocity=0, time=0),
    Message('note_on', channel=4, note=65, velocity=0, time=0),
    Message('note_on', channel=4, note=66, velocity=100, time=0),
    Message('note_on', channel=4, note=71, velocity=100, time=0),
    Message('note_on', channel=4, note=59, velocity=100, time=0),
    Message('note_on', channel=4, note=59, velocity=0, time=240),
    Message('note_on', channel=4, note=71, velocity=0, time=0),
    Message('note_on', channel=4, note=66, velocity=0, time=0),
    Message('note_on', channel=4, note=54, velocity=100, time=0),
    Message('note_on', channel=4, note=59, velocity=100, time=0),
    Message('note_on', channel=4, note=47, velocity=100, time=0),
    Message('note_on', channel=4, note=47, velocity=0, time=240),
    Message('note_on', channel=4, note=59, velocity=0, time=0),
    Message('note_on', channel=4, note=54, velocity=0, time=0),
    Message('note_on', channel=4, note=54, velocity=100, time=0),
    Message('note_on', channel=4, note=59, velocity=100, time=0),
    Message('note_on', channel=4, note=47, velocity=100, time=0),
    Message('note_on', channel=4, note=47, velocity=0, time=240),
    Message('note_on', channel=4, note=59, velocity=0, time=0),
    Message('note_on', channel=4, note=54, velocity=0, time=0),
    Message('note_on', channel=4, note=57, velocity=100, time=0),
    Message('note_on', channel=4, note=62, velocity=100, time=0),
    Message('note_on', channel=4, note=50, velocity=100, time=0),
    Message('note_on', channel=4, note=50, velocity=0, time=120),
    Message('note_on', channel=4, note=62, velocity=0, time=0),
    Message('note_on', channel=4, note=57, velocity=0, time=0),
    Message('note_on', channel=4, note=58, velocity=100, time=0),
    Message('note_on', channel=4, note=63, velocity=100, time=0),
    Message('note_on', channel=4, note=51, velocity=100, time=0),
    Message('note_on', channel=4, note=51, velocity=0, time=120),
    Message('note_on', channel=4, note=63, velocity=0, time=0),
    Message('note_on', channel=4, note=58, velocity=0, time=0),
    Message('note_on', channel=4, note=59, velocity=100, time=0),
    Message('note_on', channel=4, note=64, velocity=100, time=0),
    Message('note_on', channel=4, note=52, velocity=100, time=0),
    Message('note_on', channel=4, note=52, velocity=0, time=240),
    Message('note_on', channel=4, note=64, velocity=0, time=0),
    Message('note_on', channel=4, note=59, velocity=0, time=0),
    Message('note_on', channel=4, note=59, velocity=100, time=0),
    Message('note_on', channel=4, note=64, velocity=100, time=0),
    Message('note_on', channel=4, note=52, velocity=100, time=0),
    Message('note_on', channel=4, note=52, velocity=0, time=120),
    Message('note_on', channel=4, note=64, velocity=0, time=0),
    Message('note_on', channel=4, note=59, velocity=0, time=0),
    Message('note_on', channel=4, note=60, velocity=100, time=0),
    Message('note_on', channel=4, note=65, velocity=100, time=0),
    Message('note_on', channel=4, note=53, velocity=100, time=0),
    Message('note_on', channel=4, note=53, velocity=0, time=120),
    Message('note_on', channel=4, note=65, velocity=0, time=0),
    Message('note_on', channel=4, note=60, velocity=0, time=0),
    Message('note_on', channel=4, note=61, velocity=100, time=0),
    Message('note_on', channel=4, note=66, velocity=100, time=0),
    Message('note_on', channel=4, note=54, velocity=100, time=0),
    Message('note_on', channel=4, note=54, velocity=0, time=240),
    Message('note_on', channel=4, note=66, velocity=0, time=0),
    Message('note_on', channel=4, note=61, velocity=0, time=0),
    Message('note_on', channel=4, note=64, velocity=100, time=0),
    Message('note_on', channel=4, note=69, velocity=100, time=0),
    Message('note_on', channel=4, note=57, velocity=100, time=0),
    Message('note_on', channel=4, note=57, velocity=0, time=120),
    Message('note_on', channel=4, note=69, velocity=0, time=0),
    Message('note_on', channel=4, note=64, velocity=0, time=0),
    Message('note_on', channel=4, note=65, velocity=100, time=0),
    Message('note_on', channel=4, note=70, velocity=100, time=0),
    Message('note_on', channel=4, note=58, velocity=100, time=0),
    Message('note_on', channel=4, note=58, velocity=0, time=120),
    Message('note_on', channel=4, note=70, velocity=0, time=0),
    Message('note_on', channel=4, note=65, velocity=0, time=0),
    Message('note_on', channel=4, note=66, velocity=100, time=0),
    Message('note_on', channel=4, note=71, velocity=100, time=0),
    Message('note_on', channel=4, note=59, velocity=100, time=0),
    Message('note_on', channel=4, note=59, velocity=0, time=240),
    Message('note_on', channel=4, note=71, velocity=0, time=0),
    Message('note_on', channel=4, note=66, velocity=0, time=0),
    Message('pitchwheel', channel=4, pitch=0, time=0),
    Message('note_on', channel=4, note=59, velocity=100, time=0),
    Message('note_on', channel=4, note=54, velocity=100, time=0),
    Message('note_on', channel=4, note=47, velocity=100, time=0),
    Message('note_on', channel=4, note=47, velocity=0, time=480),
    Message('note_on', channel=4, note=54, velocity=0, time=0),
    Message('note_on', channel=4, note=59, velocity=0, time=0),
    Message('note_on', channel=4, note=62, velocity=100, time=0),
    Message('note_on', channel=4, note=57, velocity=100, time=0),
    Message('note_on', channel=4, note=50, velocity=100, time=0),
    Message('note_on', channel=4, note=50, velocity=0, time=480),
    Message('note_on', channel=4, note=57, velocity=0, time=0),
    Message('note_on', channel=4, note=62, velocity=0, time=0),
    Message('note_on', channel=4, note=62, velocity=100, time=0),
    Message('note_on', channel=4, note=57, velocity=100, time=0),
    Message('note_on', channel=4, note=50, velocity=100, time=0),
    Message('pitchwheel', channel=4, pitch=1365, time=180),
    Message('note_on', channel=4, note=50, velocity=0, time=60),
    Message('note_on', channel=4, note=57, velocity=0, time=0),
    Message('note_on', channel=4, note=62, velocity=0, time=0),
    Message('pitchwheel', channel=4, pitch=0, time=0),
    Message('note_on', channel=4, note=64, velocity=100, time=0),
    Message('note_on', channel=4, note=59, velocity=100, time=0),
    Message('note_on', channel=4, note=52, velocity=100, time=0),
    Message('note_on', channel=4, note=52, velocity=0, time=240),
    Message('note_on', channel=4, note=59, velocity=0, time=0),
    Message('note_on', channel=4, note=64, velocity=0, time=0),
    Message('note_on', channel=4, note=64, velocity=100, time=0),
    Message('note_on', channel=4, note=59, velocity=100, time=0),
    Message('note_on', channel=4, note=52, velocity=100, time=0),
    Message('note_on', channel=4, note=52, velocity=0, time=480),
    Message('note_on', channel=4, note=59, velocity=0, time=0),
    Message('note_on', channel=4, note=64, velocity=0, time=0),
    Message('note_on', channel=4, note=67, velocity=100, time=0),
    Message('note_on', channel=4, note=62, velocity=100, time=0),
    Message('note_on', channel=4, note=55, velocity=100, time=0),
    Message('note_on', channel=4, note=55, velocity=0, time=120),
    Message('note_on', channel=4, note=62, velocity=0, time=0),
    Message('note_on', channel=4, note=67, velocity=0, time=0),
    Message('note_on', channel=4, note=66, velocity=100, time=0),
    Message('note_on', channel=4, note=61, velocity=100, time=0),
    Message('note_on', channel=4, note=54, velocity=100, time=0),
    Message('note_on', channel=4, note=54, velocity=0, time=120),
    Message('note_on', channel=4, note=61, velocity=0, time=0),
    Message('note_on', channel=4, note=66, velocity=0, time=0),
    Message('note_on', channel=4, note=67, velocity=100, time=0),
    Message('note_on', channel=4, note=62, velocity=100, time=0),
    Message('note_on', channel=4, note=55, velocity=100, time=0),
    Message('note_on', channel=4, note=55, velocity=0, time=120),
    Message('note_on', channel=4, note=62, velocity=0, time=0),
    Message('note_on', channel=4, note=67, velocity=0, time=0),
    Message('note_on', channel=4, note=66, velocity=100, time=0),
    Message('note_on', channel=4, note=61, velocity=100, time=0),
    Message('note_on', channel=4, note=54, velocity=100, time=0),
    Message('note_on', channel=4, note=54, velocity=0, time=120),
    Message('note_on', channel=4, note=61, velocity=0, time=0),
    Message('note_on', channel=4, note=66, velocity=0, time=0),
    Message('note_on', channel=4, note=67, velocity=100, time=0),
    Message('note_on', channel=4, note=62, velocity=100, time=0),
    Message('note_on', channel=4, note=55, velocity=100, time=0),
    Message('note_on', channel=4, note=55, velocity=0, time=120),
    Message('note_on', channel=4, note=62, velocity=0, time=0),
    Message('note_on', channel=4, note=67, velocity=0, time=0),
    Message('note_on', channel=4, note=66, velocity=100, time=0),
    Message('note_on', channel=4, note=61, velocity=100, time=0),
    Message('note_on', channel=4, note=54, velocity=100, time=0),
    Message('note_on', channel=4, note=54, velocity=0, time=120),
    Message('note_on', channel=4, note=61, velocity=0, time=0),
    Message('note_on', channel=4, note=66, velocity=0, time=0),
    Message('note_on', channel=4, note=62, velocity=100, time=0),
    Message('note_on', channel=4, note=57, velocity=100, time=0),
    Message('note_on', channel=4, note=50, velocity=100, time=0),
    Message('note_on', channel=4, note=50, velocity=0, time=234),
    Message('note_on', channel=4, note=57, velocity=0, time=0),
    Message('note_on', channel=4, note=62, velocity=0, time=0),
    Message('note_on', channel=4, note=62, velocity=100, time=6),
    Message('note_on', channel=4, note=57, velocity=100, time=0),
    Message('note_on', channel=4, note=50, velocity=100, time=0),
    Message('pitchwheel', channel=4, pitch=1365, time=180),
    Message('note_on', channel=4, note=50, velocity=0, time=60),
    Message('note_on', channel=4, note=57, velocity=0, time=0),
    Message('note_on', channel=4, note=62, velocity=0, time=0),
    Message('pitchwheel', channel=4, pitch=0, time=0),
    Message('note_on', channel=4, note=64, velocity=100, time=0),
    Message('note_on', channel=4, note=59, velocity=100, time=0),
    Message('note_on', channel=4, note=52, velocity=100, time=0),
    Message('note_on', channel=4, note=52, velocity=0, time=240),
    Message('note_on', channel=4, note=59, velocity=0, time=0),
    Message('note_on', channel=4, note=64, velocity=0, time=0),
    Message('note_on', channel=4, note=64, velocity=100, time=0),
    Message('note_on', channel=4, note=59, velocity=100, time=0),
    Message('note_on', channel=4, note=52, velocity=100, time=0),
    Message('note_on', channel=4, note=52, velocity=0, time=480),
    Message('note_on', channel=4, note=59, velocity=0, time=0),
    Message('note_on', channel=4, note=64, velocity=0, time=0),
    Message('pitchwheel', channel=4, pitch=0, time=0),
    Message('note_on', channel=4, note=59, velocity=100, time=0),
    Message('note_on', channel=4, note=54, velocity=100, time=0),
    Message('note_on', channel=4, note=47, velocity=100, time=0),
    Message('note_on', channel=4, note=47, velocity=0, time=480),
    Message('note_on', channel=4, note=54, velocity=0, time=0),
    Message('note_on', channel=4, note=59, velocity=0, time=0),
    Message('note_on', channel=4, note=62, velocity=100, time=0),
    Message('note_on', channel=4, note=57, velocity=100, time=0),
    Message('note_on', channel=4, note=50, velocity=100, time=0),
    Message('note_on', channel=4, note=50, velocity=0, time=480),
    Message('note_on', channel=4, note=57, velocity=0, time=0),
    Message('note_on', channel=4, note=62, velocity=0, time=0),
    Message('note_on', channel=4, note=62, velocity=100, time=0),
    Message('note_on', channel=4, note=57, velocity=100, time=0),
    Message('note_on', channel=4, note=50, velocity=100, time=0),
    Message('pitchwheel', channel=4, pitch=1365, time=180),
    Message('note_on', channel=4, note=50, velocity=0, time=60),
    Message('note_on', channel=4, note=57, velocity=0, time=0),
    Message('note_on', channel=4, note=62, velocity=0, time=0),
    Message('pitchwheel', channel=4, pitch=0, time=0),
    Message('note_on', channel=4, note=64, velocity=100, time=0),
    Message('note_on', channel=4, note=59, velocity=100, time=0),
    Message('note_on', channel=4, note=52, velocity=100, time=0),
    Message('note_on', channel=4, note=52, velocity=0, time=240),
    Message('note_on', channel=4, note=59, velocity=0, time=0),
    Message('note_on', channel=4, note=64, velocity=0, time=0),
    Message('note_on', channel=4, note=64, velocity=100, time=0),
    Message('note_on', channel=4, note=59, velocity=100, time=0),
    Message('note_on', channel=4, note=52, velocity=100, time=0),
    Message('note_on', channel=4, note=52, velocity=0, time=480),
    Message('note_on', channel=4, note=59, velocity=0, time=0),
    Message('note_on', channel=4, note=64, velocity=0, time=0),
    Message('note_on', channel=4, note=67, velocity=100, time=0),
    Message('note_on', channel=4, note=62, velocity=100, time=0),
    Message('note_on', channel=4, note=55, velocity=100, time=0),
    Message('note_on', channel=4, note=55, velocity=0, time=120),
    Message('note_on', channel=4, note=62, velocity=0, time=0),
    Message('note_on', channel=4, note=67, velocity=0, time=0),
    Message('note_on', channel=4, note=66, velocity=100, time=0),
    Message('note_on', channel=4, note=61, velocity=100, time=0),
    Message('note_on', channel=4, note=54, velocity=100, time=0),
    Message('note_on', channel=4, note=54, velocity=0, time=120),
    Message('note_on', channel=4, note=61, velocity=0, time=0),
    Message('note_on', channel=4, note=66, velocity=0, time=0),
    Message('note_on', channel=4, note=67, velocity=100, time=0),
    Message('note_on', channel=4, note=62, velocity=100, time=0),
    Message('note_on', channel=4, note=55, velocity=100, time=0),
    Message('note_on', channel=4, note=55, velocity=0, time=120),
    Message('note_on', channel=4, note=62, velocity=0, time=0),
    Message('note_on', channel=4, note=67, velocity=0, time=0),
    Message('note_on', channel=4, note=66, velocity=100, time=0),
    Message('note_on', channel=4, note=61, velocity=100, time=0),
    Message('note_on', channel=4, note=54, velocity=100, time=0),
    Message('note_on', channel=4, note=54, velocity=0, time=120),
    Message('note_on', channel=4, note=61, velocity=0, time=0),
    Message('note_on', channel=4, note=66, velocity=0, time=0),
    Message('note_on', channel=4, note=67, velocity=100, time=0),
    Message('note_on', channel=4, note=62, velocity=100, time=0),
    Message('note_on', channel=4, note=55, velocity=100, time=0),
    Message('note_on', channel=4, note=55, velocity=0, time=120),
    Message('note_on', channel=4, note=62, velocity=0, time=0),
    Message('note_on', channel=4, note=67, velocity=0, time=0),
    Message('note_on', channel=4, note=66, velocity=100, time=0),
    Message('note_on', channel=4, note=61, velocity=100, time=0),
    Message('note_on', channel=4, note=54, velocity=100, time=0),
    Message('note_on', channel=4, note=54, velocity=0, time=120),
    Message('note_on', channel=4, note=61, velocity=0, time=0),
    Message('note_on', channel=4, note=66, velocity=0, time=0),
    Message('note_on', channel=4, note=62, velocity=100, time=0),
    Message('note_on', channel=4, note=57, velocity=100, time=0),
    Message('note_on', channel=4, note=50, velocity=100, time=0),
    Message('note_on', channel=4, note=50, velocity=0, time=234),
    Message('note_on', channel=4, note=57, velocity=0, time=0),
    Message('note_on', channel=4, note=62, velocity=0, time=0),
    Message('note_on', channel=4, note=62, velocity=100, time=6),
    Message('note_on', channel=4, note=57, velocity=100, time=0),
    Message('note_on', channel=4, note=50, velocity=100, time=0),
    Message('pitchwheel', channel=4, pitch=1365, time=180),
    Message('note_on', channel=4, note=50, velocity=0, time=60),
    Message('note_on', channel=4, note=57, velocity=0, time=0),
    Message('note_on', channel=4, note=62, velocity=0, time=0),
    Message('pitchwheel', channel=4, pitch=0, time=0),
    Message('note_on', channel=4, note=64, velocity=100, time=0),
    Message('note_on', channel=4, note=59, velocity=100, time=0),
    Message('note_on', channel=4, note=52, velocity=100, time=0),
    Message('note_on', channel=4, note=52, velocity=0, time=240),
    Message('note_on', channel=4, note=59, velocity=0, time=0),
    Message('note_on', channel=4, note=64, velocity=0, time=0),
    Message('note_on', channel=4, note=64, velocity=100, time=0),
    Message('note_on', channel=4, note=59, velocity=100, time=0),
    Message('note_on', channel=4, note=52, velocity=100, time=0),
    Message('note_on', channel=4, note=52, velocity=0, time=480),
    Message('note_on', channel=4, note=59, velocity=0, time=0),
    Message('note_on', channel=4, note=64, velocity=0, time=0),
    Message('pitchwheel', channel=4, pitch=0, time=0),
    Message('note_on', channel=4, note=59, velocity=100, time=0),
    Message('note_on', channel=4, note=54, velocity=100, time=0),
    Message('note_on', channel=4, note=47, velocity=100, time=0),
    Message('note_on', channel=4, note=47, velocity=0, time=480),
    Message('note_on', channel=4, note=54, velocity=0, time=0),
    Message('note_on', channel=4, note=59, velocity=0, time=0),
    Message('note_on', channel=4, note=62, velocity=100, time=0),
    Message('note_on', channel=4, note=57, velocity=100, time=0),
    Message('note_on', channel=4, note=50, velocity=100, time=0),
    Message('note_on', channel=4, note=50, velocity=0, time=480),
    Message('note_on', channel=4, note=57, velocity=0, time=0),
    Message('note_on', channel=4, note=62, velocity=0, time=0),
    Message('note_on', channel=4, note=62, velocity=100, time=0),
    Message('note_on', channel=4, note=57, velocity=100, time=0),
    Message('note_on', channel=4, note=50, velocity=100, time=0),
    Message('pitchwheel', channel=4, pitch=1365, time=180),
    Message('note_on', channel=4, note=50, velocity=0, time=60),
    Message('note_on', channel=4, note=57, velocity=0, time=0),
    Message('note_on', channel=4, note=62, velocity=0, time=0),
    Message('pitchwheel', channel=4, pitch=0, time=0),
    Message('note_on', channel=4, note=64, velocity=100, time=0),
    Message('note_on', channel=4, note=59, velocity=100, time=0),
    Message('note_on', channel=4, note=52, velocity=100, time=0),
    Message('note_on', channel=4, note=52, velocity=0, time=240),
    Message('note_on', channel=4, note=59, velocity=0, time=0),
    Message('note_on', channel=4, note=64, velocity=0, time=0),
    Message('note_on', channel=4, note=64, velocity=100, time=0),
    Message('note_on', channel=4, note=59, velocity=100, time=0),
    Message('note_on', channel=4, note=52, velocity=100, time=0),
    Message('note_on', channel=4, note=52, velocity=0, time=480),
    Message('note_on', channel=4, note=59, velocity=0, time=0),
    Message('note_on', channel=4, note=64, velocity=0, time=0),
    Message('note_on', channel=4, note=67, velocity=100, time=0),
    Message('note_on', channel=4, note=62, velocity=100, time=0),
    Message('note_on', channel=4, note=55, velocity=100, time=0),
    Message('note_on', channel=4, note=55, velocity=0, time=120),
    Message('note_on', channel=4, note=62, velocity=0, time=0),
    Message('note_on', channel=4, note=67, velocity=0, time=0),
    Message('note_on', channel=4, note=66, velocity=100, time=0),
    Message('note_on', channel=4, note=61, velocity=100, time=0),
    Message('note_on', channel=4, note=54, velocity=100, time=0),
    Message('note_on', channel=4, note=54, velocity=0, time=120),
    Message('note_on', channel=4, note=61, velocity=0, time=0),
    Message('note_on', channel=4, note=66, velocity=0, time=0),
    Message('note_on', channel=4, note=67, velocity=100, time=0),
    Message('note_on', channel=4, note=62, velocity=100, time=0),
    Message('note_on', channel=4, note=55, velocity=100, time=0),
    Message('note_on', channel=4, note=55, velocity=0, time=120),
    Message('note_on', channel=4, note=62, velocity=0, time=0),
    Message('note_on', channel=4, note=67, velocity=0, time=0),
    Message('note_on', channel=4, note=66, velocity=100, time=0),
    Message('note_on', channel=4, note=61, velocity=100, time=0),
    Message('note_on', channel=4, note=54, velocity=100, time=0),
    Message('note_on', channel=4, note=54, velocity=0, time=120),
    Message('note_on', channel=4, note=61, velocity=0, time=0),
    Message('note_on', channel=4, note=66, velocity=0, time=0),
    Message('note_on', channel=4, note=67, velocity=100, time=0),
    Message('note_on', channel=4, note=62, velocity=100, time=0),
    Message('note_on', channel=4, note=55, velocity=100, time=0),
    Message('note_on', channel=4, note=55, velocity=0, time=120),
    Message('note_on', channel=4, note=62, velocity=0, time=0),
    Message('note_on', channel=4, note=67, velocity=0, time=0),
    Message('note_on', channel=4, note=66, velocity=100, time=0),
    Message('note_on', channel=4, note=61, velocity=100, time=0),
    Message('note_on', channel=4, note=54, velocity=100, time=0),
    Message('note_on', channel=4, note=54, velocity=0, time=120),
    Message('note_on', channel=4, note=61, velocity=0, time=0),
    Message('note_on', channel=4, note=66, velocity=0, time=0),
    Message('note_on', channel=4, note=62, velocity=100, time=0),
    Message('note_on', channel=4, note=57, velocity=100, time=0),
    Message('note_on', channel=4, note=50, velocity=100, time=0),
    Message('note_on', channel=4, note=50, velocity=0, time=234),
    Message('note_on', channel=4, note=57, velocity=0, time=0),
    Message('note_on', channel=4, note=62, velocity=0, time=0),
    Message('note_on', channel=4, note=62, velocity=100, time=6),
    Message('note_on', channel=4, note=57, velocity=100, time=0),
    Message('note_on', channel=4, note=50, velocity=100, time=0),
    Message('pitchwheel', channel=4, pitch=1365, time=180),
    Message('note_on', channel=4, note=50, velocity=0, time=60),
    Message('note_on', channel=4, note=57, velocity=0, time=0),
    Message('note_on', channel=4, note=62, velocity=0, time=0),
    Message('pitchwheel', channel=4, pitch=0, time=0),
    Message('note_on', channel=4, note=64, velocity=100, time=0),
    Message('note_on', channel=4, note=59, velocity=100, time=0),
    Message('note_on', channel=4, note=52, velocity=100, time=0),
    Message('note_on', channel=4, note=52, velocity=0, time=240),
    Message('note_on', channel=4, note=59, velocity=0, time=0),
    Message('note_on', channel=4, note=64, velocity=0, time=0),
    Message('note_on', channel=4, note=64, velocity=100, time=0),
    Message('note_on', channel=4, note=59, velocity=100, time=0),
    Message('note_on', channel=4, note=52, velocity=100, time=0),
    Message('note_on', channel=4, note=52, velocity=0, time=480),
    Message('note_on', channel=4, note=59, velocity=0, time=0),
    Message('note_on', channel=4, note=64, velocity=0, time=0),
    Message('pitchwheel', channel=4, pitch=0, time=0),
    Message('note_on', channel=4, note=59, velocity=100, time=0),
    Message('note_on', channel=4, note=54, velocity=100, time=0),
    Message('note_on', channel=4, note=47, velocity=100, time=0),
    Message('note_on', channel=4, note=47, velocity=0, time=480),
    Message('note_on', channel=4, note=54, velocity=0, time=0),
    Message('note_on', channel=4, note=59, velocity=0, time=0),
    Message('note_on', channel=4, note=62, velocity=100, time=0),
    Message('note_on', channel=4, note=57, velocity=100, time=0),
    Message('note_on', channel=4, note=50, velocity=100, time=0),
    Message('note_on', channel=4, note=50, velocity=0, time=480),
    Message('note_on', channel=4, note=57, velocity=0, time=0),
    Message('note_on', channel=4, note=62, velocity=0, time=0),
    Message('note_on', channel=4, note=62, velocity=100, time=0),
    Message('note_on', channel=4, note=57, velocity=100, time=0),
    Message('note_on', channel=4, note=50, velocity=100, time=0),
    Message('pitchwheel', channel=4, pitch=1365, time=180),
    Message('note_on', channel=4, note=50, velocity=0, time=60),
    Message('note_on', channel=4, note=57, velocity=0, time=0),
    Message('note_on', channel=4, note=62, velocity=0, time=0),
    Message('pitchwheel', channel=4, pitch=0, time=0),
    Message('note_on', channel=4, note=64, velocity=100, time=0),
    Message('note_on', channel=4, note=59, velocity=100, time=0),
    Message('note_on', channel=4, note=52, velocity=100, time=0),
    Message('note_on', channel=4, note=52, velocity=0, time=240),
    Message('note_on', channel=4, note=59, velocity=0, time=0),
    Message('note_on', channel=4, note=64, velocity=0, time=0),
    Message('note_on', channel=4, note=64, velocity=100, time=0),
    Message('note_on', channel=4, note=59, velocity=100, time=0),
    Message('note_on', channel=4, note=52, velocity=100, time=0),
    Message('note_on', channel=4, note=52, velocity=0, time=480),
    Message('note_on', channel=4, note=59, velocity=0, time=0),
    Message('note_on', channel=4, note=64, velocity=0, time=0),
    Message('note_on', channel=4, note=67, velocity=100, time=0),
    Message('note_on', channel=4, note=62, velocity=100, time=0),
    Message('note_on', channel=4, note=55, velocity=100, time=0),
    Message('note_on', channel=4, note=55, velocity=0, time=120),
    Message('note_on', channel=4, note=62, velocity=0, time=0),
    Message('note_on', channel=4, note=67, velocity=0, time=0),
    Message('note_on', channel=4, note=66, velocity=100, time=0),
    Message('note_on', channel=4, note=61, velocity=100, time=0),
    Message('note_on', channel=4, note=54, velocity=100, time=0),
    Message('note_on', channel=4, note=54, velocity=0, time=120),
    Message('note_on', channel=4, note=61, velocity=0, time=0),
    Message('note_on', channel=4, note=66, velocity=0, time=0),
    Message('note_on', channel=4, note=67, velocity=100, time=0),
    Message('note_on', channel=4, note=62, velocity=100, time=0),
    Message('note_on', channel=4, note=55, velocity=100, time=0),
    Message('note_on', channel=4, note=55, velocity=0, time=120),
    Message('note_on', channel=4, note=62, velocity=0, time=0),
    Message('note_on', channel=4, note=67, velocity=0, time=0),
    Message('note_on', channel=4, note=66, velocity=100, time=0),
    Message('note_on', channel=4, note=61, velocity=100, time=0),
    Message('note_on', channel=4, note=54, velocity=100, time=0),
    Message('note_on', channel=4, note=54, velocity=0, time=120),
    Message('note_on', channel=4, note=61, velocity=0, time=0),
    Message('note_on', channel=4, note=66, velocity=0, time=0),
    Message('note_on', channel=4, note=67, velocity=100, time=0),
    Message('note_on', channel=4, note=62, velocity=100, time=0),
    Message('note_on', channel=4, note=55, velocity=100, time=0),
    Message('note_on', channel=4, note=55, velocity=0, time=120),
    Message('note_on', channel=4, note=62, velocity=0, time=0),
    Message('note_on', channel=4, note=67, velocity=0, time=0),
    Message('note_on', channel=4, note=66, velocity=100, time=0),
    Message('note_on', channel=4, note=61, velocity=100, time=0),
    Message('note_on', channel=4, note=54, velocity=100, time=0),
    Message('note_on', channel=4, note=54, velocity=0, time=120),
    Message('note_on', channel=4, note=61, velocity=0, time=0),
    Message('note_on', channel=4, note=66, velocity=0, time=0),
    Message('note_on', channel=4, note=62, velocity=100, time=0),
    Message('note_on', channel=4, note=57, velocity=100, time=0),
    Message('note_on', channel=4, note=50, velocity=100, time=0),
    Message('note_on', channel=4, note=50, velocity=0, time=234),
    Message('note_on', channel=4, note=57, velocity=0, time=0),
    Message('note_on', channel=4, note=62, velocity=0, time=0),
    Message('note_on', channel=4, note=62, velocity=100, time=6),
    Message('note_on', channel=4, note=57, velocity=100, time=0),
    Message('note_on', channel=4, note=50, velocity=100, time=0),
    Message('pitchwheel', channel=4, pitch=1365, time=180),
    Message('note_on', channel=4, note=50, velocity=0, time=60),
    Message('note_on', channel=4, note=57, velocity=0, time=0),
    Message('note_on', channel=4, note=62, velocity=0, time=0),
    Message('pitchwheel', channel=4, pitch=0, time=0),
    Message('note_on', channel=4, note=64, velocity=100, time=0),
    Message('note_on', channel=4, note=59, velocity=100, time=0),
    Message('note_on', channel=4, note=52, velocity=100, time=0),
    Message('note_on', channel=4, note=52, velocity=0, time=240),
    Message('note_on', channel=4, note=59, velocity=0, time=0),
    Message('note_on', channel=4, note=64, velocity=0, time=0),
    Message('note_on', channel=4, note=64, velocity=100, time=0),
    Message('note_on', channel=4, note=59, velocity=100, time=0),
    Message('note_on', channel=4, note=52, velocity=100, time=0),
    Message('note_on', channel=4, note=52, velocity=0, time=480),
    Message('note_on', channel=4, note=59, velocity=0, time=0),
    Message('note_on', channel=4, note=64, velocity=0, time=0),
    Message('note_on', channel=4, note=52, velocity=100, time=0),
    Message('note_on', channel=4, note=59, velocity=100, time=0),
    Message('note_on', channel=4, note=64, velocity=100, time=0),
    Message('note_on', channel=4, note=64, velocity=0, time=1920),
    Message('note_on', channel=4, note=59, velocity=0, time=0),
    Message('note_on', channel=4, note=52, velocity=0, time=0),
    Message('note_on', channel=4, note=50, velocity=100, time=0),
    Message('note_on', channel=4, note=62, velocity=100, time=0),
    Message('note_on', channel=4, note=57, velocity=100, time=0),
    Message('note_on', channel=4, note=57, velocity=0, time=1920),
    Message('note_on', channel=4, note=62, velocity=0, time=0),
    Message('note_on', channel=4, note=50, velocity=0, time=0),
    Message('note_on', channel=4, note=54, velocity=100, time=0),
    Message('note_on', channel=4, note=59, velocity=100, time=0),
    Message('note_on', channel=4, note=47, velocity=100, time=0),
    Message('note_on', channel=4, note=47, velocity=0, time=240),
    Message('note_on', channel=4, note=59, velocity=0, time=0),
    Message('note_on', channel=4, note=54, velocity=0, time=0),
    Message('note_on', channel=4, note=54, velocity=100, time=0),
    Message('note_on', channel=4, note=59, velocity=100, time=0),
    Message('note_on', channel=4, note=47, velocity=100, time=0),
    Message('note_on', channel=4, note=47, velocity=0, time=240),
    Message('note_on', channel=4, note=59, velocity=0, time=0),
    Message('note_on', channel=4, note=54, velocity=0, time=0),
    Message('note_on', channel=4, note=57, velocity=100, time=0),
    Message('note_on', channel=4, note=62, velocity=100, time=0),
    Message('note_on', channel=4, note=50, velocity=100, time=0),
    Message('note_on', channel=4, note=50, velocity=0, time=120),
    Message('note_on', channel=4, note=62, velocity=0, time=0),
    Message('note_on', channel=4, note=57, velocity=0, time=0),
    Message('note_on', channel=4, note=58, velocity=100, time=0),
    Message('note_on', channel=4, note=63, velocity=100, time=0),
    Message('note_on', channel=4, note=51, velocity=100, time=0),
    Message('note_on', channel=4, note=51, velocity=0, time=120),
    Message('note_on', channel=4, note=63, velocity=0, time=0),
    Message('note_on', channel=4, note=58, velocity=0, time=0),
    Message('note_on', channel=4, note=59, velocity=100, time=0),
    Message('note_on', channel=4, note=64, velocity=100, time=0),
    Message('note_on', channel=4, note=52, velocity=100, time=0),
    Message('note_on', channel=4, note=52, velocity=0, time=240),
    Message('note_on', channel=4, note=64, velocity=0, time=0),
    Message('note_on', channel=4, note=59, velocity=0, time=0),
    Message('note_on', channel=4, note=59, velocity=100, time=0),
    Message('note_on', channel=4, note=64, velocity=100, time=0),
    Message('note_on', channel=4, note=52, velocity=100, time=0),
    Message('note_on', channel=4, note=52, velocity=0, time=120),
    Message('note_on', channel=4, note=64, velocity=0, time=0),
    Message('note_on', channel=4, note=59, velocity=0, time=0),
    Message('note_on', channel=4, note=60, velocity=100, time=0),
    Message('note_on', channel=4, note=65, velocity=100, time=0),
    Message('note_on', channel=4, note=53, velocity=100, time=0),
    Message('note_on', channel=4, note=53, velocity=0, time=120),
    Message('note_on', channel=4, note=65, velocity=0, time=0),
    Message('note_on', channel=4, note=60, velocity=0, time=0),
    Message('note_on', channel=4, note=61, velocity=100, time=0),
    Message('note_on', channel=4, note=66, velocity=100, time=0),
    Message('note_on', channel=4, note=54, velocity=100, time=0),
    Message('note_on', channel=4, note=54, velocity=0, time=240),
    Message('note_on', channel=4, note=66, velocity=0, time=0),
    Message('note_on', channel=4, note=61, velocity=0, time=0),
    Message('note_on', channel=4, note=64, velocity=100, time=0),
    Message('note_on', channel=4, note=69, velocity=100, time=0),
    Message('note_on', channel=4, note=57, velocity=100, time=0),
    Message('note_on', channel=4, note=57, velocity=0, time=120),
    Message('note_on', channel=4, note=69, velocity=0, time=0),
    Message('note_on', channel=4, note=64, velocity=0, time=0),
    Message('note_on', channel=4, note=65, velocity=100, time=0),
    Message('note_on', channel=4, note=70, velocity=100, time=0),
    Message('note_on', channel=4, note=58, velocity=100, time=0),
    Message('note_on', channel=4, note=58, velocity=0, time=120),
    Message('note_on', channel=4, note=70, velocity=0, time=0),
    Message('note_on', channel=4, note=65, velocity=0, time=0),
    Message('note_on', channel=4, note=66, velocity=100, time=0),
    Message('note_on', channel=4, note=71, velocity=100, time=0),
    Message('note_on', channel=4, note=59, velocity=100, time=0),
    Message('note_on', channel=4, note=59, velocity=0, time=240),
    Message('note_on', channel=4, note=71, velocity=0, time=0),
    Message('note_on', channel=4, note=66, velocity=0, time=0),
    Message('note_on', channel=4, note=54, velocity=100, time=0),
    Message('note_on', channel=4, note=59, velocity=100, time=0),
    Message('note_on', channel=4, note=47, velocity=100, time=0),
    Message('note_on', channel=4, note=47, velocity=0, time=240),
    Message('note_on', channel=4, note=59, velocity=0, time=0),
    Message('note_on', channel=4, note=54, velocity=0, time=0),
    Message('note_on', channel=4, note=54, velocity=100, time=0),
    Message('note_on', channel=4, note=59, velocity=100, time=0),
    Message('note_on', channel=4, note=47, velocity=100, time=0),
    Message('note_on', channel=4, note=47, velocity=0, time=240),
    Message('note_on', channel=4, note=59, velocity=0, time=0),
    Message('note_on', channel=4, note=54, velocity=0, time=0),
    Message('note_on', channel=4, note=57, velocity=100, time=0),
    Message('note_on', channel=4, note=62, velocity=100, time=0),
    Message('note_on', channel=4, note=50, velocity=100, time=0),
    Message('note_on', channel=4, note=50, velocity=0, time=120),
    Message('note_on', channel=4, note=62, velocity=0, time=0),
    Message('note_on', channel=4, note=57, velocity=0, time=0),
    Message('note_on', channel=4, note=58, velocity=100, time=0),
    Message('note_on', channel=4, note=63, velocity=100, time=0),
    Message('note_on', channel=4, note=51, velocity=100, time=0),
    Message('note_on', channel=4, note=51, velocity=0, time=120),
    Message('note_on', channel=4, note=63, velocity=0, time=0),
    Message('note_on', channel=4, note=58, velocity=0, time=0),
    Message('note_on', channel=4, note=59, velocity=100, time=0),
    Message('note_on', channel=4, note=64, velocity=100, time=0),
    Message('note_on', channel=4, note=52, velocity=100, time=0),
    Message('note_on', channel=4, note=52, velocity=0, time=240),
    Message('note_on', channel=4, note=64, velocity=0, time=0),
    Message('note_on', channel=4, note=59, velocity=0, time=0),
    Message('note_on', channel=4, note=59, velocity=100, time=0),
    Message('note_on', channel=4, note=64, velocity=100, time=0),
    Message('note_on', channel=4, note=52, velocity=100, time=0),
    Message('note_on', channel=4, note=52, velocity=0, time=120),
    Message('note_on', channel=4, note=64, velocity=0, time=0),
    Message('note_on', channel=4, note=59, velocity=0, time=0),
    Message('note_on', channel=4, note=60, velocity=100, time=0),
    Message('note_on', channel=4, note=65, velocity=100, time=0),
    Message('note_on', channel=4, note=53, velocity=100, time=0),
    Message('note_on', channel=4, note=53, velocity=0, time=120),
    Message('note_on', channel=4, note=65, velocity=0, time=0),
    Message('note_on', channel=4, note=60, velocity=0, time=0),
    Message('note_on', channel=4, note=61, velocity=100, time=0),
    Message('note_on', channel=4, note=66, velocity=100, time=0),
    Message('note_on', channel=4, note=54, velocity=100, time=0),
    Message('note_on', channel=4, note=54, velocity=0, time=240),
    Message('note_on', channel=4, note=66, velocity=0, time=0),
    Message('note_on', channel=4, note=61, velocity=0, time=0),
    Message('note_on', channel=4, note=64, velocity=100, time=0),
    Message('note_on', channel=4, note=69, velocity=100, time=0),
    Message('note_on', channel=4, note=57, velocity=100, time=0),
    Message('note_on', channel=4, note=57, velocity=0, time=120),
    Message('note_on', channel=4, note=69, velocity=0, time=0),
    Message('note_on', channel=4, note=64, velocity=0, time=0),
    Message('note_on', channel=4, note=65, velocity=100, time=0),
    Message('note_on', channel=4, note=70, velocity=100, time=0),
    Message('note_on', channel=4, note=58, velocity=100, time=0),
    Message('note_on', channel=4, note=58, velocity=0, time=120),
    Message('note_on', channel=4, note=70, velocity=0, time=0),
    Message('note_on', channel=4, note=65, velocity=0, time=0),
    Message('note_on', channel=4, note=66, velocity=100, time=0),
    Message('note_on', channel=4, note=71, velocity=100, time=0),
    Message('note_on', channel=4, note=59, velocity=100, time=0),
    Message('note_on', channel=4, note=59, velocity=0, time=240),
    Message('note_on', channel=4, note=71, velocity=0, time=0),
    Message('note_on', channel=4, note=66, velocity=0, time=0),
    Message('note_on', channel=4, note=52, velocity=100, time=0),
    Message('note_on', channel=4, note=59, velocity=100, time=0),
    Message('note_on', channel=4, note=64, velocity=100, time=0),
    Message('note_on', channel=4, note=64, velocity=0, time=1920),
    Message('note_on', channel=4, note=59, velocity=0, time=0),
    Message('note_on', channel=4, note=52, velocity=0, time=0),
    Message('note_on', channel=4, note=50, velocity=100, time=0),
    Message('note_on', channel=4, note=62, velocity=100, time=0),
    Message('note_on', channel=4, note=57, velocity=100, time=0),
    Message('note_on', channel=4, note=57, velocity=0, time=1920),
    Message('note_on', channel=4, note=62, velocity=0, time=0),
    Message('note_on', channel=4, note=50, velocity=0, time=0),
    Message('note_on', channel=4, note=54, velocity=100, time=0),
    Message('note_on', channel=4, note=59, velocity=100, time=0),
    Message('note_on', channel=4, note=47, velocity=100, time=0),
    Message('note_on', channel=4, note=47, velocity=0, time=240),
    Message('note_on', channel=4, note=59, velocity=0, time=0),
    Message('note_on', channel=4, note=54, velocity=0, time=0),
    Message('note_on', channel=4, note=54, velocity=100, time=0),
    Message('note_on', channel=4, note=59, velocity=100, time=0),
    Message('note_on', channel=4, note=47, velocity=100, time=0),
    Message('note_on', channel=4, note=47, velocity=0, time=240),
    Message('note_on', channel=4, note=59, velocity=0, time=0),
    Message('note_on', channel=4, note=54, velocity=0, time=0),
    Message('note_on', channel=4, note=57, velocity=100, time=0),
    Message('note_on', channel=4, note=62, velocity=100, time=0),
    Message('note_on', channel=4, note=50, velocity=100, time=0),
    Message('note_on', channel=4, note=50, velocity=0, time=120),
    Message('note_on', channel=4, note=62, velocity=0, time=0),
    Message('note_on', channel=4, note=57, velocity=0, time=0),
    Message('note_on', channel=4, note=58, velocity=100, time=0),
    Message('note_on', channel=4, note=63, velocity=100, time=0),
    Message('note_on', channel=4, note=51, velocity=100, time=0),
    Message('note_on', channel=4, note=51, velocity=0, time=120),
    Message('note_on', channel=4, note=63, velocity=0, time=0),
    Message('note_on', channel=4, note=58, velocity=0, time=0),
    Message('note_on', channel=4, note=59, velocity=100, time=0),
    Message('note_on', channel=4, note=64, velocity=100, time=0),
    Message('note_on', channel=4, note=52, velocity=100, time=0),
    Message('note_on', channel=4, note=52, velocity=0, time=240),
    Message('note_on', channel=4, note=64, velocity=0, time=0),
    Message('note_on', channel=4, note=59, velocity=0, time=0),
    Message('note_on', channel=4, note=59, velocity=100, time=0),
    Message('note_on', channel=4, note=64, velocity=100, time=0),
    Message('note_on', channel=4, note=52, velocity=100, time=0),
    Message('note_on', channel=4, note=52, velocity=0, time=120),
    Message('note_on', channel=4, note=64, velocity=0, time=0),
    Message('note_on', channel=4, note=59, velocity=0, time=0),
    Message('note_on', channel=4, note=60, velocity=100, time=0),
    Message('note_on', channel=4, note=65, velocity=100, time=0),
    Message('note_on', channel=4, note=53, velocity=100, time=0),
    Message('note_on', channel=4, note=53, velocity=0, time=120),
    Message('note_on', channel=4, note=65, velocity=0, time=0),
    Message('note_on', channel=4, note=60, velocity=0, time=0),
    Message('note_on', channel=4, note=61, velocity=100, time=0),
    Message('note_on', channel=4, note=66, velocity=100, time=0),
    Message('note_on', channel=4, note=54, velocity=100, time=0),
    Message('note_on', channel=4, note=54, velocity=0, time=240),
    Message('note_on', channel=4, note=66, velocity=0, time=0),
    Message('note_on', channel=4, note=61, velocity=0, time=0),
    Message('note_on', channel=4, note=64, velocity=100, time=0),
    Message('note_on', channel=4, note=69, velocity=100, time=0),
    Message('note_on', channel=4, note=57, velocity=100, time=0),
    Message('note_on', channel=4, note=57, velocity=0, time=120),
    Message('note_on', channel=4, note=69, velocity=0, time=0),
    Message('note_on', channel=4, note=64, velocity=0, time=0),
    Message('note_on', channel=4, note=65, velocity=100, time=0),
    Message('note_on', channel=4, note=70, velocity=100, time=0),
    Message('note_on', channel=4, note=58, velocity=100, time=0),
    Message('note_on', channel=4, note=58, velocity=0, time=120),
    Message('note_on', channel=4, note=70, velocity=0, time=0),
    Message('note_on', channel=4, note=65, velocity=0, time=0),
    Message('note_on', channel=4, note=66, velocity=100, time=0),
    Message('note_on', channel=4, note=71, velocity=100, time=0),
    Message('note_on', channel=4, note=59, velocity=100, time=0),
    Message('note_on', channel=4, note=59, velocity=0, time=240),
    Message('note_on', channel=4, note=71, velocity=0, time=0),
    Message('note_on', channel=4, note=66, velocity=0, time=0),
    Message('note_on', channel=4, note=54, velocity=100, time=0),
    Message('note_on', channel=4, note=59, velocity=100, time=0),
    Message('note_on', channel=4, note=47, velocity=100, time=0),
    Message('note_on', channel=4, note=47, velocity=0, time=240),
    Message('note_on', channel=4, note=59, velocity=0, time=0),
    Message('note_on', channel=4, note=54, velocity=0, time=0),
    Message('note_on', channel=4, note=54, velocity=100, time=0),
    Message('note_on', channel=4, note=59, velocity=100, time=0),
    Message('note_on', channel=4, note=47, velocity=100, time=0),
    Message('note_on', channel=4, note=47, velocity=0, time=240),
    Message('note_on', channel=4, note=59, velocity=0, time=0),
    Message('note_on', channel=4, note=54, velocity=0, time=0),
    Message('note_on', channel=4, note=57, velocity=100, time=0),
    Message('note_on', channel=4, note=62, velocity=100, time=0),
    Message('note_on', channel=4, note=50, velocity=100, time=0),
    Message('note_on', channel=4, note=50, velocity=0, time=120),
    Message('note_on', channel=4, note=62, velocity=0, time=0),
    Message('note_on', channel=4, note=57, velocity=0, time=0),
    Message('note_on', channel=4, note=58, velocity=100, time=0),
    Message('note_on', channel=4, note=63, velocity=100, time=0),
    Message('note_on', channel=4, note=51, velocity=100, time=0),
    Message('note_on', channel=4, note=51, velocity=0, time=120),
    Message('note_on', channel=4, note=63, velocity=0, time=0),
    Message('note_on', channel=4, note=58, velocity=0, time=0),
    Message('note_on', channel=4, note=59, velocity=100, time=0),
    Message('note_on', channel=4, note=64, velocity=100, time=0),
    Message('note_on', channel=4, note=52, velocity=100, time=0),
    Message('note_on', channel=4, note=52, velocity=0, time=240),
    Message('note_on', channel=4, note=64, velocity=0, time=0),
    Message('note_on', channel=4, note=59, velocity=0, time=0),
    Message('note_on', channel=4, note=59, velocity=100, time=0),
    Message('note_on', channel=4, note=64, velocity=100, time=0),
    Message('note_on', channel=4, note=52, velocity=100, time=0),
    Message('note_on', channel=4, note=52, velocity=0, time=120),
    Message('note_on', channel=4, note=64, velocity=0, time=0),
    Message('note_on', channel=4, note=59, velocity=0, time=0),
    Message('note_on', channel=4, note=60, velocity=100, time=0),
    Message('note_on', channel=4, note=65, velocity=100, time=0),
    Message('note_on', channel=4, note=53, velocity=100, time=0),
    Message('note_on', channel=4, note=53, velocity=0, time=120),
    Message('note_on', channel=4, note=65, velocity=0, time=0),
    Message('note_on', channel=4, note=60, velocity=0, time=0),
    Message('note_on', channel=4, note=61, velocity=100, time=0),
    Message('note_on', channel=4, note=66, velocity=100, time=0),
    Message('note_on', channel=4, note=54, velocity=100, time=0),
    Message('note_on', channel=4, note=54, velocity=0, time=240),
    Message('note_on', channel=4, note=66, velocity=0, time=0),
    Message('note_on', channel=4, note=61, velocity=0, time=0),
    Message('note_on', channel=4, note=64, velocity=100, time=0),
    Message('note_on', channel=4, note=69, velocity=100, time=0),
    Message('note_on', channel=4, note=57, velocity=100, time=0),
    Message('note_on', channel=4, note=57, velocity=0, time=120),
    Message('note_on', channel=4, note=69, velocity=0, time=0),
    Message('note_on', channel=4, note=64, velocity=0, time=0),
    Message('note_on', channel=4, note=65, velocity=100, time=0),
    Message('note_on', channel=4, note=70, velocity=100, time=0),
    Message('note_on', channel=4, note=58, velocity=100, time=0),
    Message('note_on', channel=4, note=58, velocity=0, time=120),
    Message('note_on', channel=4, note=70, velocity=0, time=0),
    Message('note_on', channel=4, note=65, velocity=0, time=0),
    Message('note_on', channel=4, note=66, velocity=100, time=0),
    Message('note_on', channel=4, note=71, velocity=100, time=0),
    Message('note_on', channel=4, note=59, velocity=100, time=0),
    Message('note_on', channel=4, note=59, velocity=0, time=240),
    Message('note_on', channel=4, note=71, velocity=0, time=0),
    Message('note_on', channel=4, note=66, velocity=0, time=0),
    Message('note_on', channel=4, note=68, velocity=100, time=0),
    Message('note_on', channel=4, note=61, velocity=100, time=0),
    Message('note_on', channel=4, note=73, velocity=100, time=0),
    Message('note_on', channel=4, note=73, velocity=0, time=120),
    Message('note_on', channel=4, note=61, velocity=0, time=0),
    Message('note_on', channel=4, note=68, velocity=0, time=0),
    Message('note_on', channel=4, note=66, velocity=100, time=0),
    Message('note_on', channel=4, note=59, velocity=100, time=0),
    Message('note_on', channel=4, note=71, velocity=100, time=0),
    Message('note_on', channel=4, note=71, velocity=0, time=120),
    Message('note_on', channel=4, note=59, velocity=0, time=0),
    Message('note_on', channel=4, note=66, velocity=0, time=0),
    Message('note_on', channel=4, note=63, velocity=100, time=120),
    Message('note_on', channel=4, note=56, velocity=100, time=0),
    Message('note_on', channel=4, note=68, velocity=100, time=0),
    Message('note_on', channel=4, note=68, velocity=0, time=120),
    Message('note_on', channel=4, note=56, velocity=0, time=0),
    Message('note_on', channel=4, note=63, velocity=0, time=0),
    Message('note_on', channel=4, note=61, velocity=100, time=120),
    Message('note_on', channel=4, note=54, velocity=100, time=0),
    Message('note_on', channel=4, note=66, velocity=100, time=0),
    Message('note_on', channel=4, note=66, velocity=0, time=120),
    Message('note_on', channel=4, note=54, velocity=0, time=0),
    Message('note_on', channel=4, note=61, velocity=0, time=0),
    Message('note_on', channel=4, note=59, velocity=100, time=120),
    Message('note_on', channel=4, note=52, velocity=100, time=0),
    Message('note_on', channel=4, note=64, velocity=100, time=0),
    Message('note_on', channel=4, note=64, velocity=0, time=120),
    Message('note_on', channel=4, note=52, velocity=0, time=0),
    Message('note_on', channel=4, note=59, velocity=0, time=0),
    Message('note_on', channel=4, note=56, velocity=100, time=116),
    Message('note_on', channel=4, note=49, velocity=100, time=0),
    Message('note_on', channel=4, note=61, velocity=100, time=0),
    Message('note_on', channel=4, note=61, velocity=0, time=120),
    Message('note_on', channel=4, note=49, velocity=0, time=0),
    Message('note_on', channel=4, note=56, velocity=0, time=0),
    Message('note_on', channel=4, note=54, velocity=100, time=124),
    Message('note_on', channel=4, note=47, velocity=100, time=0),
    Message('note_on', channel=4, note=59, velocity=100, time=0),
    Message('note_on', channel=4, note=59, velocity=0, time=120),
    Message('note_on', channel=4, note=47, velocity=0, time=0),
    Message('note_on', channel=4, note=54, velocity=0, time=0),
    Message('note_on', channel=4, note=54, velocity=100, time=0),
    Message('note_on', channel=4, note=47, velocity=100, time=0),
    Message('note_on', channel=4, note=59, velocity=100, time=0),
    Message('note_on', channel=4, note=59, velocity=0, time=120),
    Message('note_on', channel=4, note=47, velocity=0, time=0),
    Message('note_on', channel=4, note=54, velocity=0, time=0),
    Message('note_on', channel=4, note=56, velocity=100, time=0),
    Message('note_on', channel=4, note=49, velocity=100, time=0),
    Message('note_on', channel=4, note=61, velocity=100, time=0),
    Message('note_on', channel=4, note=61, velocity=0, time=120),
    Message('note_on', channel=4, note=49, velocity=0, time=0),
    Message('note_on', channel=4, note=56, velocity=0, time=0),
    Message('note_on', channel=4, note=56, velocity=100, time=0),
    Message('note_on', channel=4, note=49, velocity=100, time=0),
    Message('note_on', channel=4, note=61, velocity=100, time=0),
    Message('note_on', channel=4, note=61, velocity=0, time=120),
    Message('note_on', channel=4, note=49, velocity=0, time=0),
    Message('note_on', channel=4, note=56, velocity=0, time=0),
    Message('note_on', channel=4, note=68, velocity=100, time=120),
    Message('note_on', channel=4, note=61, velocity=100, time=0),
    Message('note_on', channel=4, note=73, velocity=100, time=0),
    Message('note_on', channel=4, note=73, velocity=0, time=120),
    Message('note_on', channel=4, note=61, velocity=0, time=0),
    Message('note_on', channel=4, note=68, velocity=0, time=0),
    Message('note_on', channel=4, note=66, velocity=100, time=0),
    Message('note_on', channel=4, note=59, velocity=100, time=0),
    Message('note_on', channel=4, note=71, velocity=100, time=0),
    Message('note_on', channel=4, note=71, velocity=0, time=120),
    Message('note_on', channel=4, note=59, velocity=0, time=0),
    Message('note_on', channel=4, note=66, velocity=0, time=0),
    Message('note_on', channel=4, note=63, velocity=100, time=120),
    Message('note_on', channel=4, note=56, velocity=100, time=0),
    Message('note_on', channel=4, note=68, velocity=100, time=0),
    Message('note_on', channel=4, note=68, velocity=0, time=120),
    Message('note_on', channel=4, note=56, velocity=0, time=0),
    Message('note_on', channel=4, note=63, velocity=0, time=0),
    Message('note_on', channel=4, note=61, velocity=100, time=120),
    Message('note_on', channel=4, note=54, velocity=100, time=0),
    Message('note_on', channel=4, note=66, velocity=100, time=0),
    Message('note_on', channel=4, note=66, velocity=0, time=120),
    Message('note_on', channel=4, note=54, velocity=0, time=0),
    Message('note_on', channel=4, note=61, velocity=0, time=0),
    Message('note_on', channel=4, note=59, velocity=100, time=120),
    Message('note_on', channel=4, note=52, velocity=100, time=0),
    Message('note_on', channel=4, note=64, velocity=100, time=0),
    Message('note_on', channel=4, note=64, velocity=0, time=120),
    Message('note_on', channel=4, note=52, velocity=0, time=0),
    Message('note_on', channel=4, note=59, velocity=0, time=0),
    Message('note_on', channel=4, note=56, velocity=100, time=116),
    Message('note_on', channel=4, note=49, velocity=100, time=0),
    Message('note_on', channel=4, note=61, velocity=100, time=0),
    Message('note_on', channel=4, note=61, velocity=0, time=120),
    Message('note_on', channel=4, note=49, velocity=0, time=0),
    Message('note_on', channel=4, note=56, velocity=0, time=0),
    Message('note_on', channel=4, note=54, velocity=100, time=124),
    Message('note_on', channel=4, note=47, velocity=100, time=0),
    Message('note_on', channel=4, note=59, velocity=100, time=0),
    Message('note_on', channel=4, note=59, velocity=0, time=120),
    Message('note_on', channel=4, note=47, velocity=0, time=0),
    Message('note_on', channel=4, note=54, velocity=0, time=0),
    Message('note_on', channel=4, note=54, velocity=100, time=0),
    Message('note_on', channel=4, note=47, velocity=100, time=0),
    Message('note_on', channel=4, note=59, velocity=100, time=0),
    Message('note_on', channel=4, note=59, velocity=0, time=120),
    Message('note_on', channel=4, note=47, velocity=0, time=0),
    Message('note_on', channel=4, note=54, velocity=0, time=0),
    Message('note_on', channel=4, note=56, velocity=100, time=0),
    Message('note_on', channel=4, note=49, velocity=100, time=0),
    Message('note_on', channel=4, note=61, velocity=100, time=0),
    Message('note_on', channel=4, note=61, velocity=0, time=120),
    Message('note_on', channel=4, note=49, velocity=0, time=0),
    Message('note_on', channel=4, note=56, velocity=0, time=0),
    Message('note_on', channel=4, note=56, velocity=100, time=0),
    Message('note_on', channel=4, note=49, velocity=100, time=0),
    Message('note_on', channel=4, note=61, velocity=100, time=0),
    Message('note_on', channel=4, note=61, velocity=0, time=120),
    Message('note_on', channel=4, note=49, velocity=0, time=0),
    Message('note_on', channel=4, note=56, velocity=0, time=0),
    Message('note_on', channel=4, note=59, velocity=100, time=120),
    Message('note_on', channel=4, note=54, velocity=100, time=0),
    Message('note_on', channel=4, note=47, velocity=100, time=0),
    Message('note_on', channel=4, note=47, velocity=0, time=120),
    Message('note_on', channel=4, note=54, velocity=0, time=0),
    Message('note_on', channel=4, note=59, velocity=0, time=0),
    Message('note_on', channel=4, note=61, velocity=100, time=0),
    Message('note_on', channel=4, note=56, velocity=100, time=0),
    Message('note_on', channel=4, note=49, velocity=100, time=0),
    Message('note_on', channel=4, note=49, velocity=0, time=120),
    Message('note_on', channel=4, note=56, velocity=0, time=0),
    Message('note_on', channel=4, note=61, velocity=0, time=0),
    Message('note_on', channel=4, note=61, velocity=100, time=0),
    Message('note_on', channel=4, note=56, velocity=100, time=0),
    Message('note_on', channel=4, note=49, velocity=100, time=0),
    Message('note_on', channel=4, note=49, velocity=0, time=120),
    Message('note_on', channel=4, note=56, velocity=0, time=0),
    Message('note_on', channel=4, note=61, velocity=0, time=0),
    Message('note_on', channel=4, note=44, velocity=100, time=0),
    Message('note_on', channel=4, note=37, velocity=100, time=0),
    Message('note_on', channel=4, note=37, velocity=0, time=60),
    Message('note_on', channel=4, note=44, velocity=0, time=0),
    Message('note_on', channel=4, note=37, velocity=100, time=60),
    Message('note_on', channel=4, note=44, velocity=100, time=0),
    Message('note_on', channel=4, note=44, velocity=0, time=60),
    Message('note_on', channel=4, note=37, velocity=0, time=0),
    Message('note_on', channel=4, note=37, velocity=100, time=60),
    Message('note_on', channel=4, note=44, velocity=100, time=0),
    Message('note_on', channel=4, note=44, velocity=0, time=60),
    Message('note_on', channel=4, note=37, velocity=0, time=0),
    Message('note_on', channel=4, note=37, velocity=100, time=60),
    Message('note_on', channel=4, note=44, velocity=100, time=0),
    Message('note_on', channel=4, note=44, velocity=0, time=60),
    Message('note_on', channel=4, note=37, velocity=0, time=0),
    Message('note_on', channel=4, note=37, velocity=100, time=60),
    Message('note_on', channel=4, note=44, velocity=100, time=0),
    Message('note_on', channel=4, note=44, velocity=0, time=60),
    Message('note_on', channel=4, note=37, velocity=0, time=0),
    Message('note_on', channel=4, note=59, velocity=100, time=60),
    Message('note_on', channel=4, note=54, velocity=100, time=0),
    Message('note_on', channel=4, note=47, velocity=100, time=0),
    Message('note_on', channel=4, note=47, velocity=0, time=120),
    Message('note_on', channel=4, note=54, velocity=0, time=0),
    Message('note_on', channel=4, note=59, velocity=0, time=0),
    Message('note_on', channel=4, note=61, velocity=100, time=0),
    Message('note_on', channel=4, note=56, velocity=100, time=0),
    Message('note_on', channel=4, note=49, velocity=100, time=0),
    Message('note_on', channel=4, note=49, velocity=0, time=240),
    Message('note_on', channel=4, note=56, velocity=0, time=0),
    Message('note_on', channel=4, note=61, velocity=0, time=0),
    Message('note_on', channel=4, note=62, velocity=100, time=0),
    Message('note_on', channel=4, note=57, velocity=100, time=0),
    Message('note_on', channel=4, note=50, velocity=100, time=0),
    Message('note_on', channel=4, note=50, velocity=0, time=240),
    Message('note_on', channel=4, note=57, velocity=0, time=0),
    Message('note_on', channel=4, note=62, velocity=0, time=0),
    Message('note_on', channel=4, note=61, velocity=100, time=0),
    Message('note_on', channel=4, note=56, velocity=100, time=0),
    Message('note_on', channel=4, note=49, velocity=100, time=0),
    Message('note_on', channel=4, note=49, velocity=0, time=240),
    Message('note_on', channel=4, note=56, velocity=0, time=0),
    Message('note_on', channel=4, note=61, velocity=0, time=0),
    Message('note_on', channel=4, note=59, velocity=100, time=0),
    Message('note_on', channel=4, note=54, velocity=100, time=0),
    Message('note_on', channel=4, note=47, velocity=100, time=0),
    Message('note_on', channel=4, note=47, velocity=0, time=120),
    Message('note_on', channel=4, note=54, velocity=0, time=0),
    Message('note_on', channel=4, note=59, velocity=0, time=0),
    Message('note_on', channel=4, note=59, velocity=100, time=0),
    Message('note_on', channel=4, note=54, velocity=100, time=0),
    Message('note_on', channel=4, note=47, velocity=100, time=0),
    Message('note_on', channel=4, note=47, velocity=0, time=120),
    Message('note_on', channel=4, note=54, velocity=0, time=0),
    Message('note_on', channel=4, note=59, velocity=0, time=0),
    Message('note_on', channel=4, note=61, velocity=100, time=0),
    Message('note_on', channel=4, note=56, velocity=100, time=0),
    Message('note_on', channel=4, note=49, velocity=100, time=0),
    Message('note_on', channel=4, note=49, velocity=0, time=120),
    Message('note_on', channel=4, note=56, velocity=0, time=0),
    Message('note_on', channel=4, note=61, velocity=0, time=0),
    Message('note_on', channel=4, note=61, velocity=100, time=0),
    Message('note_on', channel=4, note=56, velocity=100, time=0),
    Message('note_on', channel=4, note=49, velocity=100, time=0),
    Message('note_on', channel=4, note=49, velocity=0, time=120),
    Message('note_on', channel=4, note=56, velocity=0, time=0),
    Message('note_on', channel=4, note=61, velocity=0, time=0),
    Message('note_on', channel=4, note=37, velocity=100, time=0),
    Message('note_on', channel=4, note=44, velocity=100, time=0),
    Message('note_on', channel=4, note=44, velocity=0, time=60),
    Message('note_on', channel=4, note=37, velocity=0, time=0),
    Message('note_on', channel=4, note=37, velocity=100, time=60),
    Message('note_on', channel=4, note=44, velocity=100, time=0),
    Message('note_on', channel=4, note=44, velocity=0, time=60),
    Message('note_on', channel=4, note=37, velocity=0, time=0),
    Message('note_on', channel=4, note=37, velocity=100, time=60),
    Message('note_on', channel=4, note=44, velocity=100, time=0),
    Message('note_on', channel=4, note=44, velocity=0, time=60),
    Message('note_on', channel=4, note=37, velocity=0, time=0),
    Message('note_on', channel=4, note=37, velocity=100, time=60),
    Message('note_on', channel=4, note=44, velocity=100, time=0),
    Message('note_on', channel=4, note=44, velocity=0, time=60),
    Message('note_on', channel=4, note=37, velocity=0, time=0),
    Message('note_on', channel=4, note=37, velocity=100, time=60),
    Message('note_on', channel=4, note=44, velocity=100, time=0),
    Message('note_on', channel=4, note=44, velocity=0, time=60),
    Message('note_on', channel=4, note=37, velocity=0, time=0),
    Message('note_on', channel=4, note=59, velocity=100, time=60),
    Message('note_on', channel=4, note=54, velocity=100, time=0),
    Message('note_on', channel=4, note=47, velocity=100, time=0),
    Message('note_on', channel=4, note=47, velocity=0, time=120),
    Message('note_on', channel=4, note=54, velocity=0, time=0),
    Message('note_on', channel=4, note=59, velocity=0, time=0),
    Message('note_on', channel=4, note=61, velocity=100, time=0),
    Message('note_on', channel=4, note=56, velocity=100, time=0),
    Message('note_on', channel=4, note=49, velocity=100, time=0),
    Message('note_on', channel=4, note=49, velocity=0, time=240),
    Message('note_on', channel=4, note=56, velocity=0, time=0),
    Message('note_on', channel=4, note=61, velocity=0, time=0),
    Message('note_on', channel=4, note=62, velocity=100, time=0),
    Message('note_on', channel=4, note=57, velocity=100, time=0),
    Message('note_on', channel=4, note=50, velocity=100, time=0),
    Message('note_on', channel=4, note=50, velocity=0, time=240),
    Message('note_on', channel=4, note=57, velocity=0, time=0),
    Message('note_on', channel=4, note=62, velocity=0, time=0),
    Message('note_on', channel=4, note=61, velocity=100, time=0),
    Message('note_on', channel=4, note=56, velocity=100, time=0),
    Message('note_on', channel=4, note=49, velocity=100, time=0),
    Message('note_on', channel=4, note=49, velocity=0, time=240),
    Message('note_on', channel=4, note=56, velocity=0, time=0),
    Message('note_on', channel=4, note=61, velocity=0, time=0),
    Message('note_on', channel=4, note=59, velocity=100, time=0),
    Message('note_on', channel=4, note=54, velocity=100, time=0),
    Message('note_on', channel=4, note=47, velocity=100, time=0),
    Message('note_on', channel=4, note=47, velocity=0, time=120),
    Message('note_on', channel=4, note=54, velocity=0, time=0),
    Message('note_on', channel=4, note=59, velocity=0, time=0),
    Message('note_on', channel=4, note=59, velocity=100, time=0),
    Message('note_on', channel=4, note=54, velocity=100, time=0),
    Message('note_on', channel=4, note=47, velocity=100, time=0),
    Message('note_on', channel=4, note=47, velocity=0, time=120),
    Message('note_on', channel=4, note=54, velocity=0, time=0),
    Message('note_on', channel=4, note=59, velocity=0, time=0),
    Message('note_on', channel=4, note=61, velocity=100, time=0),
    Message('note_on', channel=4, note=56, velocity=100, time=0),
    Message('note_on', channel=4, note=49, velocity=100, time=0),
    Message('note_on', channel=4, note=49, velocity=0, time=120),
    Message('note_on', channel=4, note=56, velocity=0, time=0),
    Message('note_on', channel=4, note=61, velocity=0, time=0),
    Message('note_on', channel=4, note=61, velocity=100, time=0),
    Message('note_on', channel=4, note=56, velocity=100, time=0),
    Message('note_on', channel=4, note=49, velocity=100, time=0),
    Message('note_on', channel=4, note=49, velocity=0, time=120),
    Message('note_on', channel=4, note=56, velocity=0, time=0),
    Message('note_on', channel=4, note=61, velocity=0, time=0),
    Message('note_on', channel=4, note=37, velocity=100, time=0),
    Message('note_on', channel=4, note=44, velocity=100, time=0),
    Message('note_on', channel=4, note=44, velocity=0, time=60),
    Message('note_on', channel=4, note=37, velocity=0, time=0),
    Message('note_on', channel=4, note=37, velocity=100, time=60),
    Message('note_on', channel=4, note=44, velocity=100, time=0),
    Message('note_on', channel=4, note=44, velocity=0, time=60),
    Message('note_on', channel=4, note=37, velocity=0, time=0),
    Message('note_on', channel=4, note=37, velocity=100, time=60),
    Message('note_on', channel=4, note=44, velocity=100, time=0),
    Message('note_on', channel=4, note=44, velocity=0, time=60),
    Message('note_on', channel=4, note=37, velocity=0, time=0),
    Message('note_on', channel=4, note=37, velocity=100, time=60),
    Message('note_on', channel=4, note=44, velocity=100, time=0),
    Message('note_on', channel=4, note=44, velocity=0, time=60),
    Message('note_on', channel=4, note=37, velocity=0, time=0),
    Message('note_on', channel=4, note=37, velocity=100, time=60),
    Message('note_on', channel=4, note=44, velocity=100, time=0),
    Message('note_on', channel=4, note=44, velocity=0, time=60),
    Message('note_on', channel=4, note=37, velocity=0, time=0),
    Message('note_on', channel=4, note=59, velocity=100, time=60),
    Message('note_on', channel=4, note=54, velocity=100, time=0),
    Message('note_on', channel=4, note=47, velocity=100, time=0),
    Message('note_on', channel=4, note=47, velocity=0, time=120),
    Message('note_on', channel=4, note=54, velocity=0, time=0),
    Message('note_on', channel=4, note=59, velocity=0, time=0),
    Message('note_on', channel=4, note=61, velocity=100, time=0),
    Message('note_on', channel=4, note=56, velocity=100, time=0),
    Message('note_on', channel=4, note=49, velocity=100, time=0),
    Message('note_on', channel=4, note=49, velocity=0, time=240),
    Message('note_on', channel=4, note=56, velocity=0, time=0),
    Message('note_on', channel=4, note=61, velocity=0, time=0),
    Message('note_on', channel=4, note=62, velocity=100, time=0),
    Message('note_on', channel=4, note=57, velocity=100, time=0),
    Message('note_on', channel=4, note=50, velocity=100, time=0),
    Message('note_on', channel=4, note=50, velocity=0, time=240),
    Message('note_on', channel=4, note=57, velocity=0, time=0),
    Message('note_on', channel=4, note=62, velocity=0, time=0),
    Message('note_on', channel=4, note=61, velocity=100, time=0),
    Message('note_on', channel=4, note=56, velocity=100, time=0),
    Message('note_on', channel=4, note=49, velocity=100, time=0),
    Message('note_on', channel=4, note=49, velocity=0, time=240),
    Message('note_on', channel=4, note=56, velocity=0, time=0),
    Message('note_on', channel=4, note=61, velocity=0, time=0),
    Message('note_on', channel=4, note=59, velocity=100, time=0),
    Message('note_on', channel=4, note=54, velocity=100, time=0),
    Message('note_on', channel=4, note=47, velocity=100, time=0),
    Message('note_on', channel=4, note=47, velocity=0, time=120),
    Message('note_on', channel=4, note=54, velocity=0, time=0),
    Message('note_on', channel=4, note=59, velocity=0, time=0),
    Message('note_on', channel=4, note=59, velocity=100, time=0),
    Message('note_on', channel=4, note=54, velocity=100, time=0),
    Message('note_on', channel=4, note=47, velocity=100, time=0),
    Message('note_on', channel=4, note=47, velocity=0, time=120),
    Message('note_on', channel=4, note=54, velocity=0, time=0),
    Message('note_on', channel=4, note=59, velocity=0, time=0),
    Message('note_on', channel=4, note=61, velocity=100, time=0),
    Message('note_on', channel=4, note=56, velocity=100, time=0),
    Message('note_on', channel=4, note=49, velocity=100, time=0),
    Message('note_on', channel=4, note=49, velocity=0, time=120),
    Message('note_on', channel=4, note=56, velocity=0, time=0),
    Message('note_on', channel=4, note=61, velocity=0, time=0),
    Message('note_on', channel=4, note=61, velocity=100, time=0),
    Message('note_on', channel=4, note=56, velocity=100, time=0),
    Message('note_on', channel=4, note=49, velocity=100, time=0),
    Message('note_on', channel=4, note=49, velocity=0, time=120),
    Message('note_on', channel=4, note=56, velocity=0, time=0),
    Message('note_on', channel=4, note=61, velocity=0, time=0),
    Message('note_on', channel=4, note=37, velocity=100, time=0),
    Message('note_on', channel=4, note=44, velocity=100, time=0),
    Message('note_on', channel=4, note=44, velocity=0, time=60),
    Message('note_on', channel=4, note=37, velocity=0, time=0),
    Message('note_on', channel=4, note=37, velocity=100, time=60),
    Message('note_on', channel=4, note=44, velocity=100, time=0),
    Message('note_on', channel=4, note=44, velocity=0, time=60),
    Message('note_on', channel=4, note=37, velocity=0, time=0),
    Message('note_on', channel=4, note=37, velocity=100, time=60),
    Message('note_on', channel=4, note=44, velocity=100, time=0),
    Message('note_on', channel=4, note=44, velocity=0, time=60),
    Message('note_on', channel=4, note=37, velocity=0, time=0),
    Message('note_on', channel=4, note=37, velocity=100, time=60),
    Message('note_on', channel=4, note=44, velocity=100, time=0),
    Message('note_on', channel=4, note=44, velocity=0, time=60),
    Message('note_on', channel=4, note=37, velocity=0, time=0),
    Message('note_on', channel=4, note=37, velocity=100, time=60),
    Message('note_on', channel=4, note=44, velocity=100, time=0),
    Message('note_on', channel=4, note=44, velocity=0, time=60),
    Message('note_on', channel=4, note=37, velocity=0, time=0),
    Message('note_on', channel=4, note=59, velocity=100, time=60),
    Message('note_on', channel=4, note=54, velocity=100, time=0),
    Message('note_on', channel=4, note=47, velocity=100, time=0),
    Message('note_on', channel=4, note=47, velocity=0, time=120),
    Message('note_on', channel=4, note=54, velocity=0, time=0),
    Message('note_on', channel=4, note=59, velocity=0, time=0),
    Message('note_on', channel=4, note=61, velocity=100, time=0),
    Message('note_on', channel=4, note=56, velocity=100, time=0),
    Message('note_on', channel=4, note=49, velocity=100, time=0),
    Message('note_on', channel=4, note=49, velocity=0, time=240),
    Message('note_on', channel=4, note=56, velocity=0, time=0),
    Message('note_on', channel=4, note=61, velocity=0, time=0),
    Message('note_on', channel=4, note=62, velocity=100, time=0),
    Message('note_on', channel=4, note=57, velocity=100, time=0),
    Message('note_on', channel=4, note=50, velocity=100, time=0),
    Message('note_on', channel=4, note=50, velocity=0, time=240),
    Message('note_on', channel=4, note=57, velocity=0, time=0),
    Message('note_on', channel=4, note=62, velocity=0, time=0),
    Message('note_on', channel=4, note=61, velocity=100, time=0),
    Message('note_on', channel=4, note=56, velocity=100, time=0),
    Message('note_on', channel=4, note=49, velocity=100, time=0),
    Message('note_on', channel=4, note=49, velocity=0, time=240),
    Message('note_on', channel=4, note=56, velocity=0, time=0),
    Message('note_on', channel=4, note=61, velocity=0, time=0),
    Message('note_on', channel=4, note=59, velocity=100, time=0),
    Message('note_on', channel=4, note=54, velocity=100, time=0),
    Message('note_on', channel=4, note=47, velocity=100, time=0),
    Message('note_on', channel=4, note=47, velocity=0, time=120),
    Message('note_on', channel=4, note=54, velocity=0, time=0),
    Message('note_on', channel=4, note=59, velocity=0, time=0),
    Message('note_on', channel=4, note=59, velocity=100, time=0),
    Message('note_on', channel=4, note=54, velocity=100, time=0),
    Message('note_on', channel=4, note=47, velocity=100, time=0),
    Message('note_on', channel=4, note=47, velocity=0, time=120),
    Message('note_on', channel=4, note=54, velocity=0, time=0),
    Message('note_on', channel=4, note=59, velocity=0, time=0),
    Message('note_on', channel=4, note=61, velocity=100, time=0),
    Message('note_on', channel=4, note=56, velocity=100, time=0),
    Message('note_on', channel=4, note=49, velocity=100, time=0),
    Message('note_on', channel=4, note=49, velocity=0, time=120),
    Message('note_on', channel=4, note=56, velocity=0, time=0),
    Message('note_on', channel=4, note=61, velocity=0, time=0),
    Message('note_on', channel=4, note=61, velocity=100, time=0),
    Message('note_on', channel=4, note=56, velocity=100, time=0),
    Message('note_on', channel=4, note=49, velocity=100, time=0),
    Message('note_on', channel=4, note=49, velocity=0, time=120),
    Message('note_on', channel=4, note=56, velocity=0, time=0),
    Message('note_on', channel=4, note=61, velocity=0, time=0),
    Message('note_on', channel=4, note=37, velocity=100, time=0),
    Message('note_on', channel=4, note=44, velocity=100, time=0),
    Message('note_on', channel=4, note=44, velocity=0, time=60),
    Message('note_on', channel=4, note=37, velocity=0, time=0),
    Message('note_on', channel=4, note=37, velocity=100, time=60),
    Message('note_on', channel=4, note=44, velocity=100, time=0),
    Message('note_on', channel=4, note=44, velocity=0, time=60),
    Message('note_on', channel=4, note=37, velocity=0, time=0),
    Message('note_on', channel=4, note=37, velocity=100, time=60),
    Message('note_on', channel=4, note=44, velocity=100, time=0),
    Message('note_on', channel=4, note=44, velocity=0, time=60),
    Message('note_on', channel=4, note=37, velocity=0, time=0),
    Message('note_on', channel=4, note=37, velocity=100, time=60),
    Message('note_on', channel=4, note=44, velocity=100, time=0),
    Message('note_on', channel=4, note=44, velocity=0, time=60),
    Message('note_on', channel=4, note=37, velocity=0, time=0),
    Message('note_on', channel=4, note=37, velocity=100, time=60),
    Message('note_on', channel=4, note=44, velocity=100, time=0),
    Message('note_on', channel=4, note=44, velocity=0, time=60),
    Message('note_on', channel=4, note=37, velocity=0, time=0),
    Message('note_on', channel=4, note=59, velocity=100, time=60),
    Message('note_on', channel=4, note=54, velocity=100, time=0),
    Message('note_on', channel=4, note=47, velocity=100, time=0),
    Message('note_on', channel=4, note=47, velocity=0, time=120),
    Message('note_on', channel=4, note=54, velocity=0, time=0),
    Message('note_on', channel=4, note=59, velocity=0, time=0),
    Message('note_on', channel=4, note=61, velocity=100, time=0),
    Message('note_on', channel=4, note=56, velocity=100, time=0),
    Message('note_on', channel=4, note=49, velocity=100, time=0),
    Message('note_on', channel=4, note=49, velocity=0, time=240),
    Message('note_on', channel=4, note=56, velocity=0, time=0),
    Message('note_on', channel=4, note=61, velocity=0, time=0),
    Message('note_on', channel=4, note=62, velocity=100, time=0),
    Message('note_on', channel=4, note=57, velocity=100, time=0),
    Message('note_on', channel=4, note=50, velocity=100, time=0),
    Message('note_on', channel=4, note=50, velocity=0, time=240),
    Message('note_on', channel=4, note=57, velocity=0, time=0),
    Message('note_on', channel=4, note=62, velocity=0, time=0),
    Message('note_on', channel=4, note=61, velocity=100, time=0),
    Message('note_on', channel=4, note=56, velocity=100, time=0),
    Message('note_on', channel=4, note=49, velocity=100, time=0),
    Message('note_on', channel=4, note=49, velocity=0, time=240),
    Message('note_on', channel=4, note=56, velocity=0, time=0),
    Message('note_on', channel=4, note=61, velocity=0, time=0),
    Message('note_on', channel=4, note=59, velocity=100, time=0),
    Message('note_on', channel=4, note=54, velocity=100, time=0),
    Message('note_on', channel=4, note=47, velocity=100, time=0),
    Message('note_on', channel=4, note=47, velocity=0, time=120),
    Message('note_on', channel=4, note=54, velocity=0, time=0),
    Message('note_on', channel=4, note=59, velocity=0, time=0),
    Message('note_on', channel=4, note=59, velocity=100, time=0),
    Message('note_on', channel=4, note=54, velocity=100, time=0),
    Message('note_on', channel=4, note=47, velocity=100, time=0),
    Message('note_on', channel=4, note=47, velocity=0, time=120),
    Message('note_on', channel=4, note=54, velocity=0, time=0),
    Message('note_on', channel=4, note=59, velocity=0, time=0),
    Message('note_on', channel=4, note=61, velocity=100, time=0),
    Message('note_on', channel=4, note=56, velocity=100, time=0),
    Message('note_on', channel=4, note=49, velocity=100, time=0),
    Message('note_on', channel=4, note=49, velocity=0, time=120),
    Message('note_on', channel=4, note=56, velocity=0, time=0),
    Message('note_on', channel=4, note=61, velocity=0, time=0),
    Message('note_on', channel=4, note=61, velocity=100, time=0),
    Message('note_on', channel=4, note=56, velocity=100, time=0),
    Message('note_on', channel=4, note=49, velocity=100, time=0),
    Message('note_on', channel=4, note=49, velocity=0, time=120),
    Message('note_on', channel=4, note=56, velocity=0, time=0),
    Message('note_on', channel=4, note=61, velocity=0, time=0),
    Message('note_on', channel=4, note=37, velocity=100, time=0),
    Message('note_on', channel=4, note=44, velocity=100, time=0),
    Message('note_on', channel=4, note=44, velocity=0, time=60),
    Message('note_on', channel=4, note=37, velocity=0, time=0),
    Message('note_on', channel=4, note=37, velocity=100, time=60),
    Message('note_on', channel=4, note=44, velocity=100, time=0),
    Message('note_on', channel=4, note=44, velocity=0, time=60),
    Message('note_on', channel=4, note=37, velocity=0, time=0),
    Message('note_on', channel=4, note=37, velocity=100, time=60),
    Message('note_on', channel=4, note=44, velocity=100, time=0),
    Message('note_on', channel=4, note=44, velocity=0, time=60),
    Message('note_on', channel=4, note=37, velocity=0, time=0),
    Message('note_on', channel=4, note=37, velocity=100, time=60),
    Message('note_on', channel=4, note=44, velocity=100, time=0),
    Message('note_on', channel=4, note=44, velocity=0, time=60),
    Message('note_on', channel=4, note=37, velocity=0, time=0),
    Message('note_on', channel=4, note=37, velocity=100, time=60),
    Message('note_on', channel=4, note=44, velocity=100, time=0),
    Message('note_on', channel=4, note=44, velocity=0, time=60),
    Message('note_on', channel=4, note=37, velocity=0, time=0),
    Message('note_on', channel=4, note=59, velocity=100, time=60),
    Message('note_on', channel=4, note=54, velocity=100, time=0),
    Message('note_on', channel=4, note=47, velocity=100, time=0),
    Message('note_on', channel=4, note=47, velocity=0, time=120),
    Message('note_on', channel=4, note=54, velocity=0, time=0),
    Message('note_on', channel=4, note=59, velocity=0, time=0),
    Message('note_on', channel=4, note=61, velocity=100, time=0),
    Message('note_on', channel=4, note=56, velocity=100, time=0),
    Message('note_on', channel=4, note=49, velocity=100, time=0),
    Message('note_on', channel=4, note=49, velocity=0, time=240),
    Message('note_on', channel=4, note=56, velocity=0, time=0),
    Message('note_on', channel=4, note=61, velocity=0, time=0),
    Message('note_on', channel=4, note=62, velocity=100, time=0),
    Message('note_on', channel=4, note=57, velocity=100, time=0),
    Message('note_on', channel=4, note=50, velocity=100, time=0),
    Message('note_on', channel=4, note=50, velocity=0, time=240),
    Message('note_on', channel=4, note=57, velocity=0, time=0),
    Message('note_on', channel=4, note=62, velocity=0, time=0),
    Message('note_on', channel=4, note=61, velocity=100, time=0),
    Message('note_on', channel=4, note=56, velocity=100, time=0),
    Message('note_on', channel=4, note=49, velocity=100, time=0),
    Message('note_on', channel=4, note=49, velocity=0, time=240),
    Message('note_on', channel=4, note=56, velocity=0, time=0),
    Message('note_on', channel=4, note=61, velocity=0, time=0),
    Message('note_on', channel=4, note=59, velocity=100, time=0),
    Message('note_on', channel=4, note=54, velocity=100, time=0),
    Message('note_on', channel=4, note=47, velocity=100, time=0),
    Message('note_on', channel=4, note=47, velocity=0, time=120),
    Message('note_on', channel=4, note=54, velocity=0, time=0),
    Message('note_on', channel=4, note=59, velocity=0, time=0),
    Message('note_on', channel=4, note=59, velocity=100, time=0),
    Message('note_on', channel=4, note=54, velocity=100, time=0),
    Message('note_on', channel=4, note=47, velocity=100, time=0),
    Message('note_on', channel=4, note=47, velocity=0, time=120),
    Message('note_on', channel=4, note=54, velocity=0, time=0),
    Message('note_on', channel=4, note=59, velocity=0, time=0),
    Message('note_on', channel=4, note=61, velocity=100, time=0),
    Message('note_on', channel=4, note=56, velocity=100, time=0),
    Message('note_on', channel=4, note=49, velocity=100, time=0),
    Message('note_on', channel=4, note=49, velocity=0, time=120),
    Message('note_on', channel=4, note=56, velocity=0, time=0),
    Message('note_on', channel=4, note=61, velocity=0, time=0),
    Message('note_on', channel=4, note=61, velocity=100, time=0),
    Message('note_on', channel=4, note=56, velocity=100, time=0),
    Message('note_on', channel=4, note=49, velocity=100, time=0),
    Message('note_on', channel=4, note=49, velocity=0, time=120),
    Message('note_on', channel=4, note=56, velocity=0, time=0),
    Message('note_on', channel=4, note=61, velocity=0, time=0),
    Message('note_on', channel=4, note=37, velocity=100, time=0),
    Message('note_on', channel=4, note=44, velocity=100, time=0),
    Message('note_on', channel=4, note=44, velocity=0, time=60),
    Message('note_on', channel=4, note=37, velocity=0, time=0),
    Message('note_on', channel=4, note=37, velocity=100, time=60),
    Message('note_on', channel=4, note=44, velocity=100, time=0),
    Message('note_on', channel=4, note=44, velocity=0, time=60),
    Message('note_on', channel=4, note=37, velocity=0, time=0),
    Message('note_on', channel=4, note=37, velocity=100, time=60),
    Message('note_on', channel=4, note=44, velocity=100, time=0),
    Message('note_on', channel=4, note=44, velocity=0, time=60),
    Message('note_on', channel=4, note=37, velocity=0, time=0),
    Message('note_on', channel=4, note=37, velocity=100, time=60),
    Message('note_on', channel=4, note=44, velocity=100, time=0),
    Message('note_on', channel=4, note=44, velocity=0, time=60),
    Message('note_on', channel=4, note=37, velocity=0, time=0),
    Message('note_on', channel=4, note=37, velocity=100, time=60),
    Message('note_on', channel=4, note=44, velocity=100, time=0),
    Message('note_on', channel=4, note=44, velocity=0, time=60),
    Message('note_on', channel=4, note=37, velocity=0, time=0),
    Message('note_on', channel=4, note=59, velocity=100, time=60),
    Message('note_on', channel=4, note=54, velocity=100, time=0),
    Message('note_on', channel=4, note=47, velocity=100, time=0),
    Message('note_on', channel=4, note=47, velocity=0, time=120),
    Message('note_on', channel=4, note=54, velocity=0, time=0),
    Message('note_on', channel=4, note=59, velocity=0, time=0),
    Message('note_on', channel=4, note=61, velocity=100, time=0),
    Message('note_on', channel=4, note=56, velocity=100, time=0),
    Message('note_on', channel=4, note=49, velocity=100, time=0),
    Message('note_on', channel=4, note=49, velocity=0, time=240),
    Message('note_on', channel=4, note=56, velocity=0, time=0),
    Message('note_on', channel=4, note=61, velocity=0, time=0),
    Message('note_on', channel=4, note=62, velocity=100, time=0),
    Message('note_on', channel=4, note=57, velocity=100, time=0),
    Message('note_on', channel=4, note=50, velocity=100, time=0),
    Message('note_on', channel=4, note=50, velocity=0, time=240),
    Message('note_on', channel=4, note=57, velocity=0, time=0),
    Message('note_on', channel=4, note=62, velocity=0, time=0),
    Message('note_on', channel=4, note=61, velocity=100, time=0),
    Message('note_on', channel=4, note=56, velocity=100, time=0),
    Message('note_on', channel=4, note=49, velocity=100, time=0),
    Message('note_on', channel=4, note=49, velocity=0, time=240),
    Message('note_on', channel=4, note=56, velocity=0, time=0),
    Message('note_on', channel=4, note=61, velocity=0, time=0),
    Message('note_on', channel=4, note=59, velocity=100, time=0),
    Message('note_on', channel=4, note=54, velocity=100, time=0),
    Message('note_on', channel=4, note=47, velocity=100, time=0),
    Message('note_on', channel=4, note=47, velocity=0, time=120),
    Message('note_on', channel=4, note=54, velocity=0, time=0),
    Message('note_on', channel=4, note=59, velocity=0, time=0),
    Message('note_on', channel=4, note=59, velocity=100, time=0),
    Message('note_on', channel=4, note=54, velocity=100, time=0),
    Message('note_on', channel=4, note=47, velocity=100, time=0),
    Message('note_on', channel=4, note=47, velocity=0, time=120),
    Message('note_on', channel=4, note=54, velocity=0, time=0),
    Message('note_on', channel=4, note=59, velocity=0, time=0),
    Message('note_on', channel=4, note=61, velocity=100, time=0),
    Message('note_on', channel=4, note=56, velocity=100, time=0),
    Message('note_on', channel=4, note=49, velocity=100, time=0),
    Message('note_on', channel=4, note=49, velocity=0, time=120),
    Message('note_on', channel=4, note=56, velocity=0, time=0),
    Message('note_on', channel=4, note=61, velocity=0, time=0),
    Message('note_on', channel=4, note=61, velocity=100, time=0),
    Message('note_on', channel=4, note=56, velocity=100, time=0),
    Message('note_on', channel=4, note=49, velocity=100, time=0),
    Message('note_on', channel=4, note=49, velocity=0, time=120),
    Message('note_on', channel=4, note=56, velocity=0, time=0),
    Message('note_on', channel=4, note=61, velocity=0, time=0),
    Message('note_on', channel=4, note=37, velocity=100, time=0),
    Message('note_on', channel=4, note=44, velocity=100, time=0),
    Message('note_on', channel=4, note=44, velocity=0, time=60),
    Message('note_on', channel=4, note=37, velocity=0, time=0),
    Message('note_on', channel=4, note=37, velocity=100, time=60),
    Message('note_on', channel=4, note=44, velocity=100, time=0),
    Message('note_on', channel=4, note=44, velocity=0, time=60),
    Message('note_on', channel=4, note=37, velocity=0, time=0),
    Message('note_on', channel=4, note=37, velocity=100, time=60),
    Message('note_on', channel=4, note=44, velocity=100, time=0),
    Message('note_on', channel=4, note=44, velocity=0, time=60),
    Message('note_on', channel=4, note=37, velocity=0, time=0),
    Message('note_on', channel=4, note=37, velocity=100, time=60),
    Message('note_on', channel=4, note=44, velocity=100, time=0),
    Message('note_on', channel=4, note=44, velocity=0, time=60),
    Message('note_on', channel=4, note=37, velocity=0, time=0),
    Message('note_on', channel=4, note=37, velocity=100, time=60),
    Message('note_on', channel=4, note=44, velocity=100, time=0),
    Message('note_on', channel=4, note=44, velocity=0, time=60),
    Message('note_on', channel=4, note=37, velocity=0, time=0),
    Message('note_on', channel=4, note=59, velocity=100, time=60),
    Message('note_on', channel=4, note=54, velocity=100, time=0),
    Message('note_on', channel=4, note=47, velocity=100, time=0),
    Message('note_on', channel=4, note=47, velocity=0, time=120),
    Message('note_on', channel=4, note=54, velocity=0, time=0),
    Message('note_on', channel=4, note=59, velocity=0, time=0),
    Message('note_on', channel=4, note=61, velocity=100, time=0),
    Message('note_on', channel=4, note=56, velocity=100, time=0),
    Message('note_on', channel=4, note=49, velocity=100, time=0),
    Message('note_on', channel=4, note=49, velocity=0, time=240),
    Message('note_on', channel=4, note=56, velocity=0, time=0),
    Message('note_on', channel=4, note=61, velocity=0, time=0),
    Message('note_on', channel=4, note=62, velocity=100, time=0),
    Message('note_on', channel=4, note=57, velocity=100, time=0),
    Message('note_on', channel=4, note=50, velocity=100, time=0),
    Message('note_on', channel=4, note=50, velocity=0, time=240),
    Message('note_on', channel=4, note=57, velocity=0, time=0),
    Message('note_on', channel=4, note=62, velocity=0, time=0),
    Message('note_on', channel=4, note=61, velocity=100, time=0),
    Message('note_on', channel=4, note=56, velocity=100, time=0),
    Message('note_on', channel=4, note=49, velocity=100, time=0),
    Message('note_on', channel=4, note=49, velocity=0, time=240),
    Message('note_on', channel=4, note=56, velocity=0, time=0),
    Message('note_on', channel=4, note=61, velocity=0, time=0),
    Message('note_on', channel=4, note=59, velocity=100, time=0),
    Message('note_on', channel=4, note=54, velocity=100, time=0),
    Message('note_on', channel=4, note=47, velocity=100, time=0),
    Message('note_on', channel=4, note=47, velocity=0, time=120),
    Message('note_on', channel=4, note=54, velocity=0, time=0),
    Message('note_on', channel=4, note=59, velocity=0, time=0),
    Message('note_on', channel=4, note=68, velocity=100, time=0),
    Message('note_on', channel=4, note=61, velocity=100, time=0),
    Message('note_on', channel=4, note=73, velocity=100, time=0),
    Message('note_on', channel=4, note=73, velocity=0, time=120),
    Message('note_on', channel=4, note=61, velocity=0, time=0),
    Message('note_on', channel=4, note=68, velocity=0, time=0),
    Message('note_on', channel=4, note=66, velocity=100, time=0),
    Message('note_on', channel=4, note=59, velocity=100, time=0),
    Message('note_on', channel=4, note=71, velocity=100, time=0),
    Message('note_on', channel=4, note=71, velocity=0, time=120),
    Message('note_on', channel=4, note=59, velocity=0, time=0),
    Message('note_on', channel=4, note=66, velocity=0, time=0),
    Message('note_on', channel=4, note=63, velocity=100, time=120),
    Message('note_on', channel=4, note=56, velocity=100, time=0),
    Message('note_on', channel=4, note=68, velocity=100, time=0),
    Message('note_on', channel=4, note=68, velocity=0, time=120),
    Message('note_on', channel=4, note=56, velocity=0, time=0),
    Message('note_on', channel=4, note=63, velocity=0, time=0),
    Message('note_on', channel=4, note=61, velocity=100, time=120),
    Message('note_on', channel=4, note=54, velocity=100, time=0),
    Message('note_on', channel=4, note=66, velocity=100, time=0),
    Message('note_on', channel=4, note=66, velocity=0, time=120),
    Message('note_on', channel=4, note=54, velocity=0, time=0),
    Message('note_on', channel=4, note=61, velocity=0, time=0),
    Message('note_on', channel=4, note=59, velocity=100, time=120),
    Message('note_on', channel=4, note=52, velocity=100, time=0),
    Message('note_on', channel=4, note=64, velocity=100, time=0),
    Message('note_on', channel=4, note=64, velocity=0, time=120),
    Message('note_on', channel=4, note=52, velocity=0, time=0),
    Message('note_on', channel=4, note=59, velocity=0, time=0),
    Message('note_on', channel=4, note=56, velocity=100, time=116),
    Message('note_on', channel=4, note=49, velocity=100, time=0),
    Message('note_on', channel=4, note=61, velocity=100, time=0),
    Message('note_on', channel=4, note=61, velocity=0, time=120),
    Message('note_on', channel=4, note=49, velocity=0, time=0),
    Message('note_on', channel=4, note=56, velocity=0, time=0),
    Message('note_on', channel=4, note=54, velocity=100, time=124),
    Message('note_on', channel=4, note=47, velocity=100, time=0),
    Message('note_on', channel=4, note=59, velocity=100, time=0),
    Message('note_on', channel=4, note=59, velocity=0, time=120),
    Message('note_on', channel=4, note=47, velocity=0, time=0),
    Message('note_on', channel=4, note=54, velocity=0, time=0),
    Message('note_on', channel=4, note=54, velocity=100, time=0),
    Message('note_on', channel=4, note=47, velocity=100, time=0),
    Message('note_on', channel=4, note=59, velocity=100, time=0),
    Message('note_on', channel=4, note=59, velocity=0, time=120),
    Message('note_on', channel=4, note=47, velocity=0, time=0),
    Message('note_on', channel=4, note=54, velocity=0, time=0),
    Message('note_on', channel=4, note=56, velocity=100, time=0),
    Message('note_on', channel=4, note=49, velocity=100, time=0),
    Message('note_on', channel=4, note=61, velocity=100, time=0),
    Message('note_on', channel=4, note=61, velocity=0, time=120),
    Message('note_on', channel=4, note=49, velocity=0, time=0),
    Message('note_on', channel=4, note=56, velocity=0, time=0),
    Message('note_on', channel=4, note=56, velocity=100, time=0),
    Message('note_on', channel=4, note=49, velocity=100, time=0),
    Message('note_on', channel=4, note=61, velocity=100, time=0),
    Message('note_on', channel=4, note=61, velocity=0, time=120),
    Message('note_on', channel=4, note=49, velocity=0, time=0),
    Message('note_on', channel=4, note=56, velocity=0, time=0),
    Message('note_on', channel=4, note=68, velocity=100, time=120),
    Message('note_on', channel=4, note=61, velocity=100, time=0),
    Message('note_on', channel=4, note=73, velocity=100, time=0),
    Message('note_on', channel=4, note=73, velocity=0, time=120),
    Message('note_on', channel=4, note=61, velocity=0, time=0),
    Message('note_on', channel=4, note=68, velocity=0, time=0),
    Message('note_on', channel=4, note=66, velocity=100, time=0),
    Message('note_on', channel=4, note=59, velocity=100, time=0),
    Message('note_on', channel=4, note=71, velocity=100, time=0),
    Message('note_on', channel=4, note=71, velocity=0, time=120),
    Message('note_on', channel=4, note=59, velocity=0, time=0),
    Message('note_on', channel=4, note=66, velocity=0, time=0),
    Message('note_on', channel=4, note=63, velocity=100, time=120),
    Message('note_on', channel=4, note=56, velocity=100, time=0),
    Message('note_on', channel=4, note=68, velocity=100, time=0),
    Message('note_on', channel=4, note=68, velocity=0, time=120),
    Message('note_on', channel=4, note=56, velocity=0, time=0),
    Message('note_on', channel=4, note=63, velocity=0, time=0),
    Message('note_on', channel=4, note=61, velocity=100, time=120),
    Message('note_on', channel=4, note=54, velocity=100, time=0),
    Message('note_on', channel=4, note=66, velocity=100, time=0),
    Message('note_on', channel=4, note=66, velocity=0, time=120),
    Message('note_on', channel=4, note=54, velocity=0, time=0),
    Message('note_on', channel=4, note=61, velocity=0, time=0),
    Message('note_on', channel=4, note=59, velocity=100, time=120),
    Message('note_on', channel=4, note=52, velocity=100, time=0),
    Message('note_on', channel=4, note=64, velocity=100, time=0),
    Message('note_on', channel=4, note=64, velocity=0, time=120),
    Message('note_on', channel=4, note=52, velocity=0, time=0),
    Message('note_on', channel=4, note=59, velocity=0, time=0),
    Message('note_on', channel=4, note=56, velocity=100, time=116),
    Message('note_on', channel=4, note=49, velocity=100, time=0),
    Message('note_on', channel=4, note=61, velocity=100, time=0),
    Message('note_on', channel=4, note=61, velocity=0, time=120),
    Message('note_on', channel=4, note=49, velocity=0, time=0),
    Message('note_on', channel=4, note=56, velocity=0, time=0),
    Message('note_on', channel=4, note=54, velocity=100, time=124),
    Message('note_on', channel=4, note=47, velocity=100, time=0),
    Message('note_on', channel=4, note=59, velocity=100, time=0),
    Message('note_on', channel=4, note=59, velocity=0, time=120),
    Message('note_on', channel=4, note=47, velocity=0, time=0),
    Message('note_on', channel=4, note=54, velocity=0, time=0),
    Message('note_on', channel=4, note=54, velocity=100, time=0),
    Message('note_on', channel=4, note=47, velocity=100, time=0),
    Message('note_on', channel=4, note=59, velocity=100, time=0),
    Message('note_on', channel=4, note=59, velocity=0, time=120),
    Message('note_on', channel=4, note=47, velocity=0, time=0),
    Message('note_on', channel=4, note=54, velocity=0, time=0),
    Message('note_on', channel=4, note=56, velocity=100, time=0),
    Message('note_on', channel=4, note=49, velocity=100, time=0),
    Message('note_on', channel=4, note=61, velocity=100, time=0),
    Message('note_on', channel=4, note=61, velocity=0, time=120),
    Message('note_on', channel=4, note=49, velocity=0, time=0),
    Message('note_on', channel=4, note=56, velocity=0, time=0),
    Message('note_on', channel=4, note=56, velocity=100, time=0),
    Message('note_on', channel=4, note=49, velocity=100, time=0),
    Message('note_on', channel=4, note=61, velocity=100, time=0),
    Message('note_on', channel=4, note=61, velocity=0, time=120),
    Message('note_on', channel=4, note=49, velocity=0, time=0),
    Message('note_on', channel=4, note=56, velocity=0, time=0),
    Message('note_on', channel=4, note=54, velocity=100, time=120),
    Message('note_on', channel=4, note=59, velocity=100, time=0),
    Message('note_on', channel=4, note=47, velocity=100, time=0),
    Message('note_on', channel=4, note=47, velocity=0, time=240),
    Message('note_on', channel=4, note=59, velocity=0, time=0),
    Message('note_on', channel=4, note=54, velocity=0, time=0),
    Message('note_on', channel=4, note=54, velocity=100, time=0),
    Message('note_on', channel=4, note=59, velocity=100, time=0),
    Message('note_on', channel=4, note=47, velocity=100, time=0),
    Message('note_on', channel=4, note=47, velocity=0, time=240),
    Message('note_on', channel=4, note=59, velocity=0, time=0),
    Message('note_on', channel=4, note=54, velocity=0, time=0),
    Message('note_on', channel=4, note=57, velocity=100, time=0),
    Message('note_on', channel=4, note=62, velocity=100, time=0),
    Message('note_on', channel=4, note=50, velocity=100, time=0),
    Message('note_on', channel=4, note=50, velocity=0, time=120),
    Message('note_on', channel=4, note=62, velocity=0, time=0),
    Message('note_on', channel=4, note=57, velocity=0, time=0),
    Message('note_on', channel=4, note=58, velocity=100, time=0),
    Message('note_on', channel=4, note=63, velocity=100, time=0),
    Message('note_on', channel=4, note=51, velocity=100, time=0),
    Message('note_on', channel=4, note=51, velocity=0, time=120),
    Message('note_on', channel=4, note=63, velocity=0, time=0),
    Message('note_on', channel=4, note=58, velocity=0, time=0),
    Message('note_on', channel=4, note=59, velocity=100, time=0),
    Message('note_on', channel=4, note=64, velocity=100, time=0),
    Message('note_on', channel=4, note=52, velocity=100, time=0),
    Message('note_on', channel=4, note=52, velocity=0, time=240),
    Message('note_on', channel=4, note=64, velocity=0, time=0),
    Message('note_on', channel=4, note=59, velocity=0, time=0),
    Message('note_on', channel=4, note=59, velocity=100, time=0),
    Message('note_on', channel=4, note=64, velocity=100, time=0),
    Message('note_on', channel=4, note=52, velocity=100, time=0),
    Message('note_on', channel=4, note=52, velocity=0, time=120),
    Message('note_on', channel=4, note=64, velocity=0, time=0),
    Message('note_on', channel=4, note=59, velocity=0, time=0),
    Message('note_on', channel=4, note=60, velocity=100, time=0),
    Message('note_on', channel=4, note=65, velocity=100, time=0),
    Message('note_on', channel=4, note=53, velocity=100, time=0),
    Message('note_on', channel=4, note=53, velocity=0, time=120),
    Message('note_on', channel=4, note=65, velocity=0, time=0),
    Message('note_on', channel=4, note=60, velocity=0, time=0),
    Message('note_on', channel=4, note=61, velocity=100, time=0),
    Message('note_on', channel=4, note=66, velocity=100, time=0),
    Message('note_on', channel=4, note=54, velocity=100, time=0),
    Message('note_on', channel=4, note=54, velocity=0, time=240),
    Message('note_on', channel=4, note=66, velocity=0, time=0),
    Message('note_on', channel=4, note=61, velocity=0, time=0),
    Message('note_on', channel=4, note=64, velocity=100, time=0),
    Message('note_on', channel=4, note=69, velocity=100, time=0),
    Message('note_on', channel=4, note=57, velocity=100, time=0),
    Message('note_on', channel=4, note=57, velocity=0, time=120),
    Message('note_on', channel=4, note=69, velocity=0, time=0),
    Message('note_on', channel=4, note=64, velocity=0, time=0),
    Message('note_on', channel=4, note=65, velocity=100, time=0),
    Message('note_on', channel=4, note=70, velocity=100, time=0),
    Message('note_on', channel=4, note=58, velocity=100, time=0),
    Message('note_on', channel=4, note=58, velocity=0, time=120),
    Message('note_on', channel=4, note=70, velocity=0, time=0),
    Message('note_on', channel=4, note=65, velocity=0, time=0),
    Message('note_on', channel=4, note=66, velocity=100, time=0),
    Message('note_on', channel=4, note=71, velocity=100, time=0),
    Message('note_on', channel=4, note=59, velocity=100, time=0),
    Message('note_on', channel=4, note=59, velocity=0, time=240),
    Message('note_on', channel=4, note=71, velocity=0, time=0),
    Message('note_on', channel=4, note=66, velocity=0, time=0),
    Message('note_on', channel=4, note=54, velocity=100, time=0),
    Message('note_on', channel=4, note=59, velocity=100, time=0),
    Message('note_on', channel=4, note=47, velocity=100, time=0),
    Message('note_on', channel=4, note=47, velocity=0, time=240),
    Message('note_on', channel=4, note=59, velocity=0, time=0),
    Message('note_on', channel=4, note=54, velocity=0, time=0),
    Message('note_on', channel=4, note=54, velocity=100, time=0),
    Message('note_on', channel=4, note=59, velocity=100, time=0),
    Message('note_on', channel=4, note=47, velocity=100, time=0),
    Message('note_on', channel=4, note=47, velocity=0, time=240),
    Message('note_on', channel=4, note=59, velocity=0, time=0),
    Message('note_on', channel=4, note=54, velocity=0, time=0),
    Message('note_on', channel=4, note=57, velocity=100, time=0),
    Message('note_on', channel=4, note=62, velocity=100, time=0),
    Message('note_on', channel=4, note=50, velocity=100, time=0),
    Message('note_on', channel=4, note=50, velocity=0, time=120),
    Message('note_on', channel=4, note=62, velocity=0, time=0),
    Message('note_on', channel=4, note=57, velocity=0, time=0),
    Message('note_on', channel=4, note=58, velocity=100, time=0),
    Message('note_on', channel=4, note=63, velocity=100, time=0),
    Message('note_on', channel=4, note=51, velocity=100, time=0),
    Message('note_on', channel=4, note=51, velocity=0, time=120),
    Message('note_on', channel=4, note=63, velocity=0, time=0),
    Message('note_on', channel=4, note=58, velocity=0, time=0),
    Message('note_on', channel=4, note=59, velocity=100, time=0),
    Message('note_on', channel=4, note=64, velocity=100, time=0),
    Message('note_on', channel=4, note=52, velocity=100, time=0),
    Message('note_on', channel=4, note=52, velocity=0, time=240),
    Message('note_on', channel=4, note=64, velocity=0, time=0),
    Message('note_on', channel=4, note=59, velocity=0, time=0),
    Message('note_on', channel=4, note=59, velocity=100, time=0),
    Message('note_on', channel=4, note=64, velocity=100, time=0),
    Message('note_on', channel=4, note=52, velocity=100, time=0),
    Message('note_on', channel=4, note=52, velocity=0, time=120),
    Message('note_on', channel=4, note=64, velocity=0, time=0),
    Message('note_on', channel=4, note=59, velocity=0, time=0),
    Message('note_on', channel=4, note=60, velocity=100, time=0),
    Message('note_on', channel=4, note=65, velocity=100, time=0),
    Message('note_on', channel=4, note=53, velocity=100, time=0),
    Message('note_on', channel=4, note=53, velocity=0, time=120),
    Message('note_on', channel=4, note=65, velocity=0, time=0),
    Message('note_on', channel=4, note=60, velocity=0, time=0),
    Message('note_on', channel=4, note=61, velocity=100, time=0),
    Message('note_on', channel=4, note=66, velocity=100, time=0),
    Message('note_on', channel=4, note=54, velocity=100, time=0),
    Message('note_on', channel=4, note=54, velocity=0, time=240),
    Message('note_on', channel=4, note=66, velocity=0, time=0),
    Message('note_on', channel=4, note=61, velocity=0, time=0),
    Message('note_on', channel=4, note=64, velocity=100, time=0),
    Message('note_on', channel=4, note=69, velocity=100, time=0),
    Message('note_on', channel=4, note=57, velocity=100, time=0),
    Message('note_on', channel=4, note=57, velocity=0, time=120),
    Message('note_on', channel=4, note=69, velocity=0, time=0),
    Message('note_on', channel=4, note=64, velocity=0, time=0),
    Message('note_on', channel=4, note=65, velocity=100, time=0),
    Message('note_on', channel=4, note=70, velocity=100, time=0),
    Message('note_on', channel=4, note=58, velocity=100, time=0),
    Message('note_on', channel=4, note=58, velocity=0, time=120),
    Message('note_on', channel=4, note=70, velocity=0, time=0),
    Message('note_on', channel=4, note=65, velocity=0, time=0),
    Message('note_on', channel=4, note=66, velocity=100, time=0),
    Message('note_on', channel=4, note=71, velocity=100, time=0),
    Message('note_on', channel=4, note=59, velocity=100, time=0),
    Message('note_on', channel=4, note=59, velocity=0, time=240),
    Message('note_on', channel=4, note=71, velocity=0, time=0),
    Message('note_on', channel=4, note=66, velocity=0, time=0),
    Message('note_on', channel=4, note=54, velocity=100, time=0),
    Message('note_on', channel=4, note=59, velocity=100, time=0),
    Message('note_on', channel=4, note=47, velocity=100, time=0),
    Message('note_on', channel=4, note=47, velocity=0, time=240),
    Message('note_on', channel=4, note=59, velocity=0, time=0),
    Message('note_on', channel=4, note=54, velocity=0, time=0),
    Message('note_on', channel=4, note=54, velocity=100, time=0),
    Message('note_on', channel=4, note=59, velocity=100, time=0),
    Message('note_on', channel=4, note=47, velocity=100, time=0),
    Message('note_on', channel=4, note=47, velocity=0, time=240),
    Message('note_on', channel=4, note=59, velocity=0, time=0),
    Message('note_on', channel=4, note=54, velocity=0, time=0),
    Message('note_on', channel=4, note=57, velocity=100, time=0),
    Message('note_on', channel=4, note=62, velocity=100, time=0),
    Message('note_on', channel=4, note=50, velocity=100, time=0),
    Message('note_on', channel=4, note=50, velocity=0, time=120),
    Message('note_on', channel=4, note=62, velocity=0, time=0),
    Message('note_on', channel=4, note=57, velocity=0, time=0),
    Message('note_on', channel=4, note=58, velocity=100, time=0),
    Message('note_on', channel=4, note=63, velocity=100, time=0),
    Message('note_on', channel=4, note=51, velocity=100, time=0),
    Message('note_on', channel=4, note=51, velocity=0, time=120),
    Message('note_on', channel=4, note=63, velocity=0, time=0),
    Message('note_on', channel=4, note=58, velocity=0, time=0),
    Message('note_on', channel=4, note=59, velocity=100, time=0),
    Message('note_on', channel=4, note=64, velocity=100, time=0),
    Message('note_on', channel=4, note=52, velocity=100, time=0),
    Message('note_on', channel=4, note=52, velocity=0, time=240),
    Message('note_on', channel=4, note=64, velocity=0, time=0),
    Message('note_on', channel=4, note=59, velocity=0, time=0),
    Message('note_on', channel=4, note=59, velocity=100, time=0),
    Message('note_on', channel=4, note=64, velocity=100, time=0),
    Message('note_on', channel=4, note=52, velocity=100, time=0),
    Message('note_on', channel=4, note=52, velocity=0, time=120),
    Message('note_on', channel=4, note=64, velocity=0, time=0),
    Message('note_on', channel=4, note=59, velocity=0, time=0),
    Message('note_on', channel=4, note=60, velocity=100, time=0),
    Message('note_on', channel=4, note=65, velocity=100, time=0),
    Message('note_on', channel=4, note=53, velocity=100, time=0),
    Message('note_on', channel=4, note=53, velocity=0, time=120),
    Message('note_on', channel=4, note=65, velocity=0, time=0),
    Message('note_on', channel=4, note=60, velocity=0, time=0),
    Message('note_on', channel=4, note=61, velocity=100, time=0),
    Message('note_on', channel=4, note=66, velocity=100, time=0),
    Message('note_on', channel=4, note=54, velocity=100, time=0),
    Message('note_on', channel=4, note=54, velocity=0, time=240),
    Message('note_on', channel=4, note=66, velocity=0, time=0),
    Message('note_on', channel=4, note=61, velocity=0, time=0),
    Message('note_on', channel=4, note=64, velocity=100, time=0),
    Message('note_on', channel=4, note=69, velocity=100, time=0),
    Message('note_on', channel=4, note=57, velocity=100, time=0),
    Message('note_on', channel=4, note=57, velocity=0, time=120),
    Message('note_on', channel=4, note=69, velocity=0, time=0),
    Message('note_on', channel=4, note=64, velocity=0, time=0),
    Message('note_on', channel=4, note=65, velocity=100, time=0),
    Message('note_on', channel=4, note=70, velocity=100, time=0),
    Message('note_on', channel=4, note=58, velocity=100, time=0),
    Message('note_on', channel=4, note=58, velocity=0, time=120),
    Message('note_on', channel=4, note=70, velocity=0, time=0),
    Message('note_on', channel=4, note=65, velocity=0, time=0),
    Message('note_on', channel=4, note=66, velocity=100, time=0),
    Message('note_on', channel=4, note=71, velocity=100, time=0),
    Message('note_on', channel=4, note=59, velocity=100, time=0),
    Message('note_on', channel=4, note=59, velocity=0, time=240),
    Message('note_on', channel=4, note=71, velocity=0, time=0),
    Message('note_on', channel=4, note=66, velocity=0, time=0),
    Message('note_on', channel=4, note=54, velocity=100, time=0),
    Message('note_on', channel=4, note=59, velocity=100, time=0),
    Message('note_on', channel=4, note=47, velocity=100, time=0),
    Message('note_on', channel=4, note=47, velocity=0, time=240),
    Message('note_on', channel=4, note=59, velocity=0, time=0),
    Message('note_on', channel=4, note=54, velocity=0, time=0),
    Message('note_on', channel=4, note=54, velocity=100, time=0),
    Message('note_on', channel=4, note=59, velocity=100, time=0),
    Message('note_on', channel=4, note=47, velocity=100, time=0),
    Message('note_on', channel=4, note=47, velocity=0, time=240),
    Message('note_on', channel=4, note=59, velocity=0, time=0),
    Message('note_on', channel=4, note=54, velocity=0, time=0),
    Message('note_on', channel=4, note=57, velocity=100, time=0),
    Message('note_on', channel=4, note=62, velocity=100, time=0),
    Message('note_on', channel=4, note=50, velocity=100, time=0),
    Message('note_on', channel=4, note=50, velocity=0, time=120),
    Message('note_on', channel=4, note=62, velocity=0, time=0),
    Message('note_on', channel=4, note=57, velocity=0, time=0),
    Message('note_on', channel=4, note=58, velocity=100, time=0),
    Message('note_on', channel=4, note=63, velocity=100, time=0),
    Message('note_on', channel=4, note=51, velocity=100, time=0),
    Message('note_on', channel=4, note=51, velocity=0, time=120),
    Message('note_on', channel=4, note=63, velocity=0, time=0),
    Message('note_on', channel=4, note=58, velocity=0, time=0),
    Message('note_on', channel=4, note=59, velocity=100, time=0),
    Message('note_on', channel=4, note=64, velocity=100, time=0),
    Message('note_on', channel=4, note=52, velocity=100, time=0),
    Message('note_on', channel=4, note=52, velocity=0, time=240),
    Message('note_on', channel=4, note=64, velocity=0, time=0),
    Message('note_on', channel=4, note=59, velocity=0, time=0),
    Message('note_on', channel=4, note=59, velocity=100, time=0),
    Message('note_on', channel=4, note=64, velocity=100, time=0),
    Message('note_on', channel=4, note=52, velocity=100, time=0),
    Message('note_on', channel=4, note=52, velocity=0, time=120),
    Message('note_on', channel=4, note=64, velocity=0, time=0),
    Message('note_on', channel=4, note=59, velocity=0, time=0),
    Message('note_on', channel=4, note=60, velocity=100, time=0),
    Message('note_on', channel=4, note=65, velocity=100, time=0),
    Message('note_on', channel=4, note=53, velocity=100, time=0),
    Message('note_on', channel=4, note=53, velocity=0, time=120),
    Message('note_on', channel=4, note=65, velocity=0, time=0),
    Message('note_on', channel=4, note=60, velocity=0, time=0),
    Message('note_on', channel=4, note=61, velocity=100, time=0),
    Message('note_on', channel=4, note=66, velocity=100, time=0),
    Message('note_on', channel=4, note=54, velocity=100, time=0),
    Message('note_on', channel=4, note=54, velocity=0, time=240),
    Message('note_on', channel=4, note=66, velocity=0, time=0),
    Message('note_on', channel=4, note=61, velocity=0, time=0),
    Message('note_on', channel=4, note=54, velocity=100, time=0),
    Message('note_on', channel=4, note=47, velocity=100, time=0),
    Message('note_on', channel=4, note=47, velocity=0, time=60),
    Message('note_on', channel=4, note=54, velocity=0, time=0),
    Message('note_on', channel=4, note=47, velocity=100, time=60),
    Message('note_on', channel=4, note=54, velocity=100, time=0),
    Message('note_on', channel=4, note=54, velocity=0, time=60),
    Message('note_on', channel=4, note=47, velocity=0, time=0),
    Message('note_on', channel=4, note=47, velocity=100, time=60),
    Message('note_on', channel=4, note=54, velocity=100, time=0),
    Message('note_on', channel=4, note=54, velocity=0, time=60),
    Message('note_on', channel=4, note=47, velocity=0, time=0),
    Message('pitchwheel', channel=4, pitch=0, time=180),
    Message('note_on', channel=4, note=59, velocity=100, time=0),
    Message('note_on', channel=4, note=54, velocity=100, time=0),
    Message('note_on', channel=4, note=47, velocity=100, time=0),
    Message('note_on', channel=4, note=47, velocity=0, time=480),
    Message('note_on', channel=4, note=54, velocity=0, time=0),
    Message('note_on', channel=4, note=59, velocity=0, time=0),
    Message('note_on', channel=4, note=62, velocity=100, time=0),
    Message('note_on', channel=4, note=57, velocity=100, time=0),
    Message('note_on', channel=4, note=50, velocity=100, time=0),
    Message('note_on', channel=4, note=50, velocity=0, time=480),
    Message('note_on', channel=4, note=57, velocity=0, time=0),
    Message('note_on', channel=4, note=62, velocity=0, time=0),
    Message('note_on', channel=4, note=62, velocity=100, time=0),
    Message('note_on', channel=4, note=57, velocity=100, time=0),
    Message('note_on', channel=4, note=50, velocity=100, time=0),
    Message('pitchwheel', channel=4, pitch=1365, time=180),
    Message('note_on', channel=4, note=50, velocity=0, time=60),
    Message('note_on', channel=4, note=57, velocity=0, time=0),
    Message('note_on', channel=4, note=62, velocity=0, time=0),
    Message('pitchwheel', channel=4, pitch=0, time=0),
    Message('note_on', channel=4, note=64, velocity=100, time=0),
    Message('note_on', channel=4, note=59, velocity=100, time=0),
    Message('note_on', channel=4, note=52, velocity=100, time=0),
    Message('note_on', channel=4, note=52, velocity=0, time=240),
    Message('note_on', channel=4, note=59, velocity=0, time=0),
    Message('note_on', channel=4, note=64, velocity=0, time=0),
    Message('note_on', channel=4, note=64, velocity=100, time=0),
    Message('note_on', channel=4, note=59, velocity=100, time=0),
    Message('note_on', channel=4, note=52, velocity=100, time=0),
    Message('note_on', channel=4, note=52, velocity=0, time=480),
    Message('note_on', channel=4, note=59, velocity=0, time=0),
    Message('note_on', channel=4, note=64, velocity=0, time=0),
    Message('note_on', channel=4, note=67, velocity=100, time=0),
    Message('note_on', channel=4, note=62, velocity=100, time=0),
    Message('note_on', channel=4, note=55, velocity=100, time=0),
    Message('note_on', channel=4, note=55, velocity=0, time=120),
    Message('note_on', channel=4, note=62, velocity=0, time=0),
    Message('note_on', channel=4, note=67, velocity=0, time=0),
    Message('note_on', channel=4, note=66, velocity=100, time=0),
    Message('note_on', channel=4, note=61, velocity=100, time=0),
    Message('note_on', channel=4, note=54, velocity=100, time=0),
    Message('note_on', channel=4, note=54, velocity=0, time=120),
    Message('note_on', channel=4, note=61, velocity=0, time=0),
    Message('note_on', channel=4, note=66, velocity=0, time=0),
    Message('note_on', channel=4, note=67, velocity=100, time=0),
    Message('note_on', channel=4, note=62, velocity=100, time=0),
    Message('note_on', channel=4, note=55, velocity=100, time=0),
    Message('note_on', channel=4, note=55, velocity=0, time=120),
    Message('note_on', channel=4, note=62, velocity=0, time=0),
    Message('note_on', channel=4, note=67, velocity=0, time=0),
    Message('note_on', channel=4, note=66, velocity=100, time=0),
    Message('note_on', channel=4, note=61, velocity=100, time=0),
    Message('note_on', channel=4, note=54, velocity=100, time=0),
    Message('note_on', channel=4, note=54, velocity=0, time=120),
    Message('note_on', channel=4, note=61, velocity=0, time=0),
    Message('note_on', channel=4, note=66, velocity=0, time=0),
    Message('note_on', channel=4, note=67, velocity=100, time=0),
    Message('note_on', channel=4, note=62, velocity=100, time=0),
    Message('note_on', channel=4, note=55, velocity=100, time=0),
    Message('note_on', channel=4, note=55, velocity=0, time=120),
    Message('note_on', channel=4, note=62, velocity=0, time=0),
    Message('note_on', channel=4, note=67, velocity=0, time=0),
    Message('note_on', channel=4, note=66, velocity=100, time=0),
    Message('note_on', channel=4, note=61, velocity=100, time=0),
    Message('note_on', channel=4, note=54, velocity=100, time=0),
    Message('note_on', channel=4, note=54, velocity=0, time=120),
    Message('note_on', channel=4, note=61, velocity=0, time=0),
    Message('note_on', channel=4, note=66, velocity=0, time=0),
    Message('note_on', channel=4, note=62, velocity=100, time=0),
    Message('note_on', channel=4, note=57, velocity=100, time=0),
    Message('note_on', channel=4, note=50, velocity=100, time=0),
    Message('note_on', channel=4, note=50, velocity=0, time=234),
    Message('note_on', channel=4, note=57, velocity=0, time=0),
    Message('note_on', channel=4, note=62, velocity=0, time=0),
    Message('note_on', channel=4, note=62, velocity=100, time=6),
    Message('note_on', channel=4, note=57, velocity=100, time=0),
    Message('note_on', channel=4, note=50, velocity=100, time=0),
    Message('pitchwheel', channel=4, pitch=1365, time=180),
    Message('note_on', channel=4, note=50, velocity=0, time=60),
    Message('note_on', channel=4, note=57, velocity=0, time=0),
    Message('note_on', channel=4, note=62, velocity=0, time=0),
    Message('pitchwheel', channel=4, pitch=0, time=0),
    Message('note_on', channel=4, note=64, velocity=100, time=0),
    Message('note_on', channel=4, note=59, velocity=100, time=0),
    Message('note_on', channel=4, note=52, velocity=100, time=0),
    Message('note_on', channel=4, note=52, velocity=0, time=240),
    Message('note_on', channel=4, note=59, velocity=0, time=0),
    Message('note_on', channel=4, note=64, velocity=0, time=0),
    Message('note_on', channel=4, note=64, velocity=100, time=0),
    Message('note_on', channel=4, note=59, velocity=100, time=0),
    Message('note_on', channel=4, note=52, velocity=100, time=0),
    Message('note_on', channel=4, note=52, velocity=0, time=480),
    Message('note_on', channel=4, note=59, velocity=0, time=0),
    Message('note_on', channel=4, note=64, velocity=0, time=0),
    Message('pitchwheel', channel=4, pitch=0, time=0),
    Message('note_on', channel=4, note=59, velocity=100, time=0),
    Message('note_on', channel=4, note=54, velocity=100, time=0),
    Message('note_on', channel=4, note=47, velocity=100, time=0),
    Message('note_on', channel=4, note=47, velocity=0, time=480),
    Message('note_on', channel=4, note=54, velocity=0, time=0),
    Message('note_on', channel=4, note=59, velocity=0, time=0),
    Message('note_on', channel=4, note=62, velocity=100, time=0),
    Message('note_on', channel=4, note=57, velocity=100, time=0),
    Message('note_on', channel=4, note=50, velocity=100, time=0),
    Message('note_on', channel=4, note=50, velocity=0, time=480),
    Message('note_on', channel=4, note=57, velocity=0, time=0),
    Message('note_on', channel=4, note=62, velocity=0, time=0),
    Message('note_on', channel=4, note=62, velocity=100, time=0),
    Message('note_on', channel=4, note=57, velocity=100, time=0),
    Message('note_on', channel=4, note=50, velocity=100, time=0),
    Message('pitchwheel', channel=4, pitch=1365, time=180),
    Message('note_on', channel=4, note=50, velocity=0, time=60),
    Message('note_on', channel=4, note=57, velocity=0, time=0),
    Message('note_on', channel=4, note=62, velocity=0, time=0),
    Message('pitchwheel', channel=4, pitch=0, time=0),
    Message('note_on', channel=4, note=64, velocity=100, time=0),
    Message('note_on', channel=4, note=59, velocity=100, time=0),
    Message('note_on', channel=4, note=52, velocity=100, time=0),
    Message('note_on', channel=4, note=52, velocity=0, time=240),
    Message('note_on', channel=4, note=59, velocity=0, time=0),
    Message('note_on', channel=4, note=64, velocity=0, time=0),
    Message('note_on', channel=4, note=64, velocity=100, time=0),
    Message('note_on', channel=4, note=59, velocity=100, time=0),
    Message('note_on', channel=4, note=52, velocity=100, time=0),
    Message('note_on', channel=4, note=52, velocity=0, time=480),
    Message('note_on', channel=4, note=59, velocity=0, time=0),
    Message('note_on', channel=4, note=64, velocity=0, time=0),
    Message('note_on', channel=4, note=67, velocity=100, time=0),
    Message('note_on', channel=4, note=62, velocity=100, time=0),
    Message('note_on', channel=4, note=55, velocity=100, time=0),
    Message('note_on', channel=4, note=55, velocity=0, time=120),
    Message('note_on', channel=4, note=62, velocity=0, time=0),
    Message('note_on', channel=4, note=67, velocity=0, time=0),
    Message('note_on', channel=4, note=66, velocity=100, time=0),
    Message('note_on', channel=4, note=61, velocity=100, time=0),
    Message('note_on', channel=4, note=54, velocity=100, time=0),
    Message('note_on', channel=4, note=54, velocity=0, time=120),
    Message('note_on', channel=4, note=61, velocity=0, time=0),
    Message('note_on', channel=4, note=66, velocity=0, time=0),
    Message('note_on', channel=4, note=67, velocity=100, time=0),
    Message('note_on', channel=4, note=62, velocity=100, time=0),
    Message('note_on', channel=4, note=55, velocity=100, time=0),
    Message('note_on', channel=4, note=55, velocity=0, time=120),
    Message('note_on', channel=4, note=62, velocity=0, time=0),
    Message('note_on', channel=4, note=67, velocity=0, time=0),
    Message('note_on', channel=4, note=66, velocity=100, time=0),
    Message('note_on', channel=4, note=61, velocity=100, time=0),
    Message('note_on', channel=4, note=54, velocity=100, time=0),
    Message('note_on', channel=4, note=54, velocity=0, time=120),
    Message('note_on', channel=4, note=61, velocity=0, time=0),
    Message('note_on', channel=4, note=66, velocity=0, time=0),
    Message('note_on', channel=4, note=67, velocity=100, time=0),
    Message('note_on', channel=4, note=62, velocity=100, time=0),
    Message('note_on', channel=4, note=55, velocity=100, time=0),
    Message('note_on', channel=4, note=55, velocity=0, time=120),
    Message('note_on', channel=4, note=62, velocity=0, time=0),
    Message('note_on', channel=4, note=67, velocity=0, time=0),
    Message('note_on', channel=4, note=66, velocity=100, time=0),
    Message('note_on', channel=4, note=61, velocity=100, time=0),
    Message('note_on', channel=4, note=54, velocity=100, time=0),
    Message('note_on', channel=4, note=54, velocity=0, time=120),
    Message('note_on', channel=4, note=61, velocity=0, time=0),
    Message('note_on', channel=4, note=66, velocity=0, time=0),
    Message('note_on', channel=4, note=62, velocity=100, time=0),
    Message('note_on', channel=4, note=57, velocity=100, time=0),
    Message('note_on', channel=4, note=50, velocity=100, time=0),
    Message('note_on', channel=4, note=50, velocity=0, time=234),
    Message('note_on', channel=4, note=57, velocity=0, time=0),
    Message('note_on', channel=4, note=62, velocity=0, time=0),
    Message('note_on', channel=4, note=62, velocity=100, time=6),
    Message('note_on', channel=4, note=57, velocity=100, time=0),
    Message('note_on', channel=4, note=50, velocity=100, time=0),
    Message('pitchwheel', channel=4, pitch=1365, time=180),
    Message('note_on', channel=4, note=50, velocity=0, time=60),
    Message('note_on', channel=4, note=57, velocity=0, time=0),
    Message('note_on', channel=4, note=62, velocity=0, time=0),
    Message('pitchwheel', channel=4, pitch=0, time=0),
    Message('note_on', channel=4, note=64, velocity=100, time=0),
    Message('note_on', channel=4, note=59, velocity=100, time=0),
    Message('note_on', channel=4, note=52, velocity=100, time=0),
    Message('note_on', channel=4, note=52, velocity=0, time=240),
    Message('note_on', channel=4, note=59, velocity=0, time=0),
    Message('note_on', channel=4, note=64, velocity=0, time=0),
    Message('note_on', channel=4, note=64, velocity=100, time=0),
    Message('note_on', channel=4, note=59, velocity=100, time=0),
    Message('note_on', channel=4, note=52, velocity=100, time=0),
    Message('note_on', channel=4, note=52, velocity=0, time=480),
    Message('note_on', channel=4, note=59, velocity=0, time=0),
    Message('note_on', channel=4, note=64, velocity=0, time=0),
    Message('pitchwheel', channel=4, pitch=0, time=0),
    Message('note_on', channel=4, note=59, velocity=100, time=0),
    Message('note_on', channel=4, note=54, velocity=100, time=0),
    Message('note_on', channel=4, note=47, velocity=100, time=0),
    Message('note_on', channel=4, note=47, velocity=0, time=480),
    Message('note_on', channel=4, note=54, velocity=0, time=0),
    Message('note_on', channel=4, note=59, velocity=0, time=0),
    Message('note_on', channel=4, note=62, velocity=100, time=0),
    Message('note_on', channel=4, note=57, velocity=100, time=0),
    Message('note_on', channel=4, note=50, velocity=100, time=0),
    Message('note_on', channel=4, note=50, velocity=0, time=480),
    Message('note_on', channel=4, note=57, velocity=0, time=0),
    Message('note_on', channel=4, note=62, velocity=0, time=0),
    Message('note_on', channel=4, note=62, velocity=100, time=0),
    Message('note_on', channel=4, note=57, velocity=100, time=0),
    Message('note_on', channel=4, note=50, velocity=100, time=0),
    Message('pitchwheel', channel=4, pitch=1365, time=180),
    Message('note_on', channel=4, note=50, velocity=0, time=60),
    Message('note_on', channel=4, note=57, velocity=0, time=0),
    Message('note_on', channel=4, note=62, velocity=0, time=0),
    Message('pitchwheel', channel=4, pitch=0, time=0),
    Message('note_on', channel=4, note=64, velocity=100, time=0),
    Message('note_on', channel=4, note=59, velocity=100, time=0),
    Message('note_on', channel=4, note=52, velocity=100, time=0),
    Message('note_on', channel=4, note=52, velocity=0, time=240),
    Message('note_on', channel=4, note=59, velocity=0, time=0),
    Message('note_on', channel=4, note=64, velocity=0, time=0),
    Message('note_on', channel=4, note=64, velocity=100, time=0),
    Message('note_on', channel=4, note=59, velocity=100, time=0),
    Message('note_on', channel=4, note=52, velocity=100, time=0),
    Message('note_on', channel=4, note=52, velocity=0, time=480),
    Message('note_on', channel=4, note=59, velocity=0, time=0),
    Message('note_on', channel=4, note=64, velocity=0, time=0),
    Message('note_on', channel=4, note=67, velocity=100, time=0),
    Message('note_on', channel=4, note=62, velocity=100, time=0),
    Message('note_on', channel=4, note=55, velocity=100, time=0),
    Message('note_on', channel=4, note=55, velocity=0, time=120),
    Message('note_on', channel=4, note=62, velocity=0, time=0),
    Message('note_on', channel=4, note=67, velocity=0, time=0),
    Message('note_on', channel=4, note=66, velocity=100, time=0),
    Message('note_on', channel=4, note=61, velocity=100, time=0),
    Message('note_on', channel=4, note=54, velocity=100, time=0),
    Message('note_on', channel=4, note=54, velocity=0, time=120),
    Message('note_on', channel=4, note=61, velocity=0, time=0),
    Message('note_on', channel=4, note=66, velocity=0, time=0),
    Message('note_on', channel=4, note=67, velocity=100, time=0),
    Message('note_on', channel=4, note=62, velocity=100, time=0),
    Message('note_on', channel=4, note=55, velocity=100, time=0),
    Message('note_on', channel=4, note=55, velocity=0, time=120),
    Message('note_on', channel=4, note=62, velocity=0, time=0),
    Message('note_on', channel=4, note=67, velocity=0, time=0),
    Message('note_on', channel=4, note=66, velocity=100, time=0),
    Message('note_on', channel=4, note=61, velocity=100, time=0),
    Message('note_on', channel=4, note=54, velocity=100, time=0),
    Message('note_on', channel=4, note=54, velocity=0, time=120),
    Message('note_on', channel=4, note=61, velocity=0, time=0),
    Message('note_on', channel=4, note=66, velocity=0, time=0),
    Message('note_on', channel=4, note=67, velocity=100, time=0),
    Message('note_on', channel=4, note=62, velocity=100, time=0),
    Message('note_on', channel=4, note=55, velocity=100, time=0),
    Message('note_on', channel=4, note=55, velocity=0, time=120),
    Message('note_on', channel=4, note=62, velocity=0, time=0),
    Message('note_on', channel=4, note=67, velocity=0, time=0),
    Message('note_on', channel=4, note=66, velocity=100, time=0),
    Message('note_on', channel=4, note=61, velocity=100, time=0),
    Message('note_on', channel=4, note=54, velocity=100, time=0),
    Message('note_on', channel=4, note=54, velocity=0, time=120),
    Message('note_on', channel=4, note=61, velocity=0, time=0),
    Message('note_on', channel=4, note=66, velocity=0, time=0),
    Message('note_on', channel=4, note=62, velocity=100, time=0),
    Message('note_on', channel=4, note=57, velocity=100, time=0),
    Message('note_on', channel=4, note=50, velocity=100, time=0),
    Message('note_on', channel=4, note=50, velocity=0, time=234),
    Message('note_on', channel=4, note=57, velocity=0, time=0),
    Message('note_on', channel=4, note=62, velocity=0, time=0),
    Message('note_on', channel=4, note=62, velocity=100, time=6),
    Message('note_on', channel=4, note=57, velocity=100, time=0),
    Message('note_on', channel=4, note=50, velocity=100, time=0),
    Message('pitchwheel', channel=4, pitch=1365, time=180),
    Message('note_on', channel=4, note=50, velocity=0, time=60),
    Message('note_on', channel=4, note=57, velocity=0, time=0),
    Message('note_on', channel=4, note=62, velocity=0, time=0),
    Message('pitchwheel', channel=4, pitch=0, time=0),
    Message('note_on', channel=4, note=64, velocity=100, time=0),
    Message('note_on', channel=4, note=59, velocity=100, time=0),
    Message('note_on', channel=4, note=52, velocity=100, time=0),
    Message('note_on', channel=4, note=52, velocity=0, time=240),
    Message('note_on', channel=4, note=59, velocity=0, time=0),
    Message('note_on', channel=4, note=64, velocity=0, time=0),
    Message('note_on', channel=4, note=64, velocity=100, time=0),
    Message('note_on', channel=4, note=59, velocity=100, time=0),
    Message('note_on', channel=4, note=52, velocity=100, time=0),
    Message('note_on', channel=4, note=52, velocity=0, time=480),
    Message('note_on', channel=4, note=59, velocity=0, time=0),
    Message('note_on', channel=4, note=64, velocity=0, time=0),
    Message('pitchwheel', channel=4, pitch=0, time=0),
    Message('note_on', channel=4, note=59, velocity=100, time=0),
    Message('note_on', channel=4, note=54, velocity=100, time=0),
    Message('note_on', channel=4, note=47, velocity=100, time=0),
    Message('note_on', channel=4, note=47, velocity=0, time=480),
    Message('note_on', channel=4, note=54, velocity=0, time=0),
    Message('note_on', channel=4, note=59, velocity=0, time=0),
    Message('note_on', channel=4, note=62, velocity=100, time=0),
    Message('note_on', channel=4, note=57, velocity=100, time=0),
    Message('note_on', channel=4, note=50, velocity=100, time=0),
    Message('note_on', channel=4, note=50, velocity=0, time=480),
    Message('note_on', channel=4, note=57, velocity=0, time=0),
    Message('note_on', channel=4, note=62, velocity=0, time=0),
    Message('note_on', channel=4, note=62, velocity=100, time=0),
    Message('note_on', channel=4, note=57, velocity=100, time=0),
    Message('note_on', channel=4, note=50, velocity=100, time=0),
    Message('pitchwheel', channel=4, pitch=1365, time=180),
    Message('note_on', channel=4, note=50, velocity=0, time=60),
    Message('note_on', channel=4, note=57, velocity=0, time=0),
    Message('note_on', channel=4, note=62, velocity=0, time=0),
    Message('pitchwheel', channel=4, pitch=0, time=0),
    Message('note_on', channel=4, note=64, velocity=100, time=0),
    Message('note_on', channel=4, note=59, velocity=100, time=0),
    Message('note_on', channel=4, note=52, velocity=100, time=0),
    Message('note_on', channel=4, note=52, velocity=0, time=240),
    Message('note_on', channel=4, note=59, velocity=0, time=0),
    Message('note_on', channel=4, note=64, velocity=0, time=0),
    Message('note_on', channel=4, note=64, velocity=100, time=0),
    Message('note_on', channel=4, note=59, velocity=100, time=0),
    Message('note_on', channel=4, note=52, velocity=100, time=0),
    Message('note_on', channel=4, note=52, velocity=0, time=480),
    Message('note_on', channel=4, note=59, velocity=0, time=0),
    Message('note_on', channel=4, note=64, velocity=0, time=0),
    Message('note_on', channel=4, note=67, velocity=100, time=0),
    Message('note_on', channel=4, note=62, velocity=100, time=0),
    Message('note_on', channel=4, note=55, velocity=100, time=0),
    Message('note_on', channel=4, note=55, velocity=0, time=120),
    Message('note_on', channel=4, note=62, velocity=0, time=0),
    Message('note_on', channel=4, note=67, velocity=0, time=0),
    Message('note_on', channel=4, note=66, velocity=100, time=0),
    Message('note_on', channel=4, note=61, velocity=100, time=0),
    Message('note_on', channel=4, note=54, velocity=100, time=0),
    Message('note_on', channel=4, note=54, velocity=0, time=120),
    Message('note_on', channel=4, note=61, velocity=0, time=0),
    Message('note_on', channel=4, note=66, velocity=0, time=0),
    Message('note_on', channel=4, note=67, velocity=100, time=0),
    Message('note_on', channel=4, note=62, velocity=100, time=0),
    Message('note_on', channel=4, note=55, velocity=100, time=0),
    Message('note_on', channel=4, note=55, velocity=0, time=120),
    Message('note_on', channel=4, note=62, velocity=0, time=0),
    Message('note_on', channel=4, note=67, velocity=0, time=0),
    Message('note_on', channel=4, note=66, velocity=100, time=0),
    Message('note_on', channel=4, note=61, velocity=100, time=0),
    Message('note_on', channel=4, note=54, velocity=100, time=0),
    Message('note_on', channel=4, note=54, velocity=0, time=120),
    Message('note_on', channel=4, note=61, velocity=0, time=0),
    Message('note_on', channel=4, note=66, velocity=0, time=0),
    Message('note_on', channel=4, note=67, velocity=100, time=0),
    Message('note_on', channel=4, note=62, velocity=100, time=0),
    Message('note_on', channel=4, note=55, velocity=100, time=0),
    Message('note_on', channel=4, note=55, velocity=0, time=120),
    Message('note_on', channel=4, note=62, velocity=0, time=0),
    Message('note_on', channel=4, note=67, velocity=0, time=0),
    Message('note_on', channel=4, note=66, velocity=100, time=0),
    Message('note_on', channel=4, note=61, velocity=100, time=0),
    Message('note_on', channel=4, note=54, velocity=100, time=0),
    Message('note_on', channel=4, note=54, velocity=0, time=120),
    Message('note_on', channel=4, note=61, velocity=0, time=0),
    Message('note_on', channel=4, note=66, velocity=0, time=0),
    Message('note_on', channel=4, note=62, velocity=100, time=0),
    Message('note_on', channel=4, note=57, velocity=100, time=0),
    Message('note_on', channel=4, note=50, velocity=100, time=0),
    Message('note_on', channel=4, note=50, velocity=0, time=234),
    Message('note_on', channel=4, note=57, velocity=0, time=0),
    Message('note_on', channel=4, note=62, velocity=0, time=0),
    Message('note_on', channel=4, note=62, velocity=100, time=6),
    Message('note_on', channel=4, note=57, velocity=100, time=0),
    Message('note_on', channel=4, note=50, velocity=100, time=0),
    Message('pitchwheel', channel=4, pitch=1365, time=180),
    Message('note_on', channel=4, note=50, velocity=0, time=60),
    Message('note_on', channel=4, note=57, velocity=0, time=0),
    Message('note_on', channel=4, note=62, velocity=0, time=0),
    Message('pitchwheel', channel=4, pitch=0, time=0),
    Message('note_on', channel=4, note=64, velocity=100, time=0),
    Message('note_on', channel=4, note=59, velocity=100, time=0),
    Message('note_on', channel=4, note=52, velocity=100, time=0),
    Message('note_on', channel=4, note=52, velocity=0, time=240),
    Message('note_on', channel=4, note=59, velocity=0, time=0),
    Message('note_on', channel=4, note=64, velocity=0, time=0),
    Message('note_on', channel=4, note=64, velocity=100, time=0),
    Message('note_on', channel=4, note=59, velocity=100, time=0),
    Message('note_on', channel=4, note=52, velocity=100, time=0),
    Message('note_on', channel=4, note=52, velocity=0, time=480),
    Message('note_on', channel=4, note=59, velocity=0, time=0),
    Message('note_on', channel=4, note=64, velocity=0, time=0),
    Message('note_on', channel=4, note=54, velocity=100, time=0),
    Message('note_on', channel=4, note=59, velocity=100, time=0),
    Message('note_on', channel=4, note=47, velocity=100, time=0),
    Message('note_on', channel=4, note=47, velocity=0, time=240),
    Message('note_on', channel=4, note=59, velocity=0, time=0),
    Message('note_on', channel=4, note=54, velocity=0, time=0),
    Message('note_on', channel=4, note=54, velocity=100, time=0),
    Message('note_on', channel=4, note=59, velocity=100, time=0),
    Message('note_on', channel=4, note=47, velocity=100, time=0),
    Message('note_on', channel=4, note=47, velocity=0, time=240),
    Message('note_on', channel=4, note=59, velocity=0, time=0),
    Message('note_on', channel=4, note=54, velocity=0, time=0),
    Message('note_on', channel=4, note=40, velocity=100, time=0),
    Message('note_on', channel=4, note=35, velocity=100, time=0),
    Message('note_on', channel=4, note=35, velocity=0, time=60),
    Message('note_on', channel=4, note=40, velocity=0, time=0),
    Message('note_on', channel=4, note=40, velocity=100, time=60),
    Message('note_on', channel=4, note=35, velocity=100, time=0),
    Message('note_on', channel=4, note=35, velocity=0, time=60),
    Message('note_on', channel=4, note=40, velocity=0, time=0),
    Message('note_on', channel=4, note=57, velocity=100, time=60),
    Message('note_on', channel=4, note=62, velocity=100, time=0),
    Message('note_on', channel=4, note=50, velocity=100, time=0),
    Message('note_on', channel=4, note=50, velocity=0, time=240),
    Message('note_on', channel=4, note=62, velocity=0, time=0),
    Message('note_on', channel=4, note=57, velocity=0, time=0),
    Message('note_on', channel=4, note=40, velocity=100, time=0),
    Message('note_on', channel=4, note=35, velocity=100, time=0),
    Message('note_on', channel=4, note=35, velocity=0, time=60),
    Message('note_on', channel=4, note=40, velocity=0, time=0),
    Message('note_on', channel=4, note=40, velocity=100, time=60),
    Message('note_on', channel=4, note=35, velocity=100, time=0),
    Message('note_on', channel=4, note=35, velocity=0, time=60),
    Message('note_on', channel=4, note=40, velocity=0, time=0),
    Message('note_on', channel=4, note=54, velocity=100, time=60),
    Message('note_on', channel=4, note=59, velocity=100, time=0),
    Message('note_on', channel=4, note=47, velocity=100, time=0),
    Message('note_on', channel=4, note=47, velocity=0, time=240),
    Message('note_on', channel=4, note=59, velocity=0, time=0),
    Message('note_on', channel=4, note=54, velocity=0, time=0),
    Message('note_on', channel=4, note=54, velocity=100, time=0),
    Message('note_on', channel=4, note=59, velocity=100, time=0),
    Message('note_on', channel=4, note=47, velocity=100, time=0),
    Message('note_on', channel=4, note=47, velocity=0, time=240),
    Message('note_on', channel=4, note=59, velocity=0, time=0),
    Message('note_on', channel=4, note=54, velocity=0, time=0),
    Message('note_on', channel=4, note=53, velocity=100, time=0),
    Message('note_on', channel=4, note=58, velocity=100, time=0),
    Message('note_on', channel=4, note=46, velocity=100, time=0),
    Message('note_on', channel=4, note=46, velocity=0, time=240),
    Message('note_on', channel=4, note=58, velocity=0, time=0),
    Message('note_on', channel=4, note=53, velocity=0, time=0),
    Message('note_on', channel=4, note=52, velocity=100, time=0),
    Message('note_on', channel=4, note=57, velocity=100, time=0),
    Message('note_on', channel=4, note=45, velocity=100, time=0),
    Message('note_on', channel=4, note=45, velocity=0, time=240),
    Message('note_on', channel=4, note=57, velocity=0, time=0),
    Message('note_on', channel=4, note=52, velocity=0, time=0),
    Message('note_on', channel=4, note=52, velocity=100, time=0),
    Message('note_on', channel=4, note=57, velocity=100, time=0),
    Message('note_on', channel=4, note=45, velocity=100, time=0),
    Message('note_on', channel=4, note=45, velocity=0, time=240),
    Message('note_on', channel=4, note=57, velocity=0, time=0),
    Message('note_on', channel=4, note=52, velocity=0, time=0),
    Message('note_on', channel=4, note=38, velocity=100, time=0),
    Message('note_on', channel=4, note=33, velocity=100, time=0),
    Message('note_on', channel=4, note=33, velocity=0, time=60),
    Message('note_on', channel=4, note=38, velocity=0, time=0),
    Message('note_on', channel=4, note=38, velocity=100, time=60),
    Message('note_on', channel=4, note=33, velocity=100, time=0),
    Message('note_on', channel=4, note=33, velocity=0, time=60),
    Message('note_on', channel=4, note=38, velocity=0, time=0),
    Message('note_on', channel=4, note=38, velocity=100, time=60),
    Message('note_on', channel=4, note=33, velocity=100, time=0),
    Message('note_on', channel=4, note=33, velocity=0, time=60),
    Message('note_on', channel=4, note=38, velocity=0, time=0),
    Message('note_on', channel=4, note=51, velocity=100, time=60),
    Message('note_on', channel=4, note=56, velocity=100, time=0),
    Message('note_on', channel=4, note=44, velocity=100, time=0),
    Message('note_on', channel=4, note=44, velocity=0, time=120),
    Message('note_on', channel=4, note=56, velocity=0, time=0),
    Message('note_on', channel=4, note=51, velocity=0, time=0),
    Message('note_on', channel=4, note=51, velocity=100, time=0),
    Message('note_on', channel=4, note=56, velocity=100, time=0),
    Message('note_on', channel=4, note=44, velocity=100, time=0),
    Message('note_on', channel=4, note=44, velocity=0, time=120),
    Message('note_on', channel=4, note=56, velocity=0, time=0),
    Message('note_on', channel=4, note=51, velocity=0, time=0),
    Message('note_on', channel=4, note=52, velocity=100, time=0),
    Message('note_on', channel=4, note=57, velocity=100, time=0),
    Message('note_on', channel=4, note=45, velocity=100, time=0),
    Message('note_on', channel=4, note=45, velocity=0, time=120),
    Message('note_on', channel=4, note=57, velocity=0, time=0),
    Message('note_on', channel=4, note=52, velocity=0, time=0),
    Message('note_on', channel=4, note=52, velocity=100, time=0),
    Message('note_on', channel=4, note=57, velocity=100, time=0),
    Message('note_on', channel=4, note=45, velocity=100, time=0),
    Message('note_on', channel=4, note=45, velocity=0, time=240),
    Message('note_on', channel=4, note=57, velocity=0, time=0),
    Message('note_on', channel=4, note=52, velocity=0, time=0),
    Message('note_on', channel=4, note=52, velocity=100, time=0),
    Message('note_on', channel=4, note=57, velocity=100, time=0),
    Message('note_on', channel=4, note=45, velocity=100, time=0),
    Message('note_on', channel=4, note=45, velocity=0, time=240),
    Message('note_on', channel=4, note=57, velocity=0, time=0),
    Message('note_on', channel=4, note=52, velocity=0, time=0),
    Message('note_on', channel=4, note=53, velocity=100, time=0),
    Message('note_on', channel=4, note=58, velocity=100, time=0),
    Message('note_on', channel=4, note=46, velocity=100, time=0),
    Message('note_on', channel=4, note=46, velocity=0, time=240),
    Message('note_on', channel=4, note=58, velocity=0, time=0),
    Message('note_on', channel=4, note=53, velocity=0, time=0),
    Message('note_on', channel=4, note=54, velocity=100, time=0),
    Message('note_on', channel=4, note=59, velocity=100, time=0),
    Message('note_on', channel=4, note=47, velocity=100, time=0),
    Message('note_on', channel=4, note=47, velocity=0, time=240),
    Message('note_on', channel=4, note=59, velocity=0, time=0),
    Message('note_on', channel=4, note=54, velocity=0, time=0),
    Message('note_on', channel=4, note=54, velocity=100, time=0),
    Message('note_on', channel=4, note=59, velocity=100, time=0),
    Message('note_on', channel=4, note=47, velocity=100, time=0),
    Message('note_on', channel=4, note=47, velocity=0, time=240),
    Message('note_on', channel=4, note=59, velocity=0, time=0),
    Message('note_on', channel=4, note=54, velocity=0, time=0),
    Message('note_on', channel=4, note=40, velocity=100, time=0),
    Message('note_on', channel=4, note=35, velocity=100, time=0),
    Message('note_on', channel=4, note=35, velocity=0, time=60),
    Message('note_on', channel=4, note=40, velocity=0, time=0),
    Message('note_on', channel=4, note=40, velocity=100, time=60),
    Message('note_on', channel=4, note=35, velocity=100, time=0),
    Message('note_on', channel=4, note=35, velocity=0, time=60),
    Message('note_on', channel=4, note=40, velocity=0, time=0),
    Message('note_on', channel=4, note=57, velocity=100, time=60),
    Message('note_on', channel=4, note=62, velocity=100, time=0),
    Message('note_on', channel=4, note=50, velocity=100, time=0),
    Message('note_on', channel=4, note=50, velocity=0, time=240),
    Message('note_on', channel=4, note=62, velocity=0, time=0),
    Message('note_on', channel=4, note=57, velocity=0, time=0),
    Message('note_on', channel=4, note=40, velocity=100, time=0),
    Message('note_on', channel=4, note=35, velocity=100, time=0),
    Message('note_on', channel=4, note=35, velocity=0, time=60),
    Message('note_on', channel=4, note=40, velocity=0, time=0),
    Message('note_on', channel=4, note=40, velocity=100, time=60),
    Message('note_on', channel=4, note=35, velocity=100, time=0),
    Message('note_on', channel=4, note=35, velocity=0, time=60),
    Message('note_on', channel=4, note=40, velocity=0, time=0),
    Message('note_on', channel=4, note=54, velocity=100, time=60),
    Message('note_on', channel=4, note=59, velocity=100, time=0),
    Message('note_on', channel=4, note=47, velocity=100, time=0),
    Message('note_on', channel=4, note=47, velocity=0, time=240),
    Message('note_on', channel=4, note=59, velocity=0, time=0),
    Message('note_on', channel=4, note=54, velocity=0, time=0),
    Message('note_on', channel=4, note=54, velocity=100, time=0),
    Message('note_on', channel=4, note=59, velocity=100, time=0),
    Message('note_on', channel=4, note=47, velocity=100, time=0),
    Message('note_on', channel=4, note=47, velocity=0, time=240),
    Message('note_on', channel=4, note=59, velocity=0, time=0),
    Message('note_on', channel=4, note=54, velocity=0, time=0),
    Message('note_on', channel=4, note=53, velocity=100, time=0),
    Message('note_on', channel=4, note=58, velocity=100, time=0),
    Message('note_on', channel=4, note=46, velocity=100, time=0),
    Message('note_on', channel=4, note=46, velocity=0, time=240),
    Message('note_on', channel=4, note=58, velocity=0, time=0),
    Message('note_on', channel=4, note=53, velocity=0, time=0),
    Message('note_on', channel=4, note=52, velocity=100, time=0),
    Message('note_on', channel=4, note=57, velocity=100, time=0),
    Message('note_on', channel=4, note=45, velocity=100, time=0),
    Message('note_on', channel=4, note=45, velocity=0, time=240),
    Message('note_on', channel=4, note=57, velocity=0, time=0),
    Message('note_on', channel=4, note=52, velocity=0, time=0),
    Message('note_on', channel=4, note=52, velocity=100, time=0),
    Message('note_on', channel=4, note=57, velocity=100, time=0),
    Message('note_on', channel=4, note=45, velocity=100, time=0),
    Message('note_on', channel=4, note=45, velocity=0, time=240),
    Message('note_on', channel=4, note=57, velocity=0, time=0),
    Message('note_on', channel=4, note=52, velocity=0, time=0),
    Message('note_on', channel=4, note=38, velocity=100, time=0),
    Message('note_on', channel=4, note=33, velocity=100, time=0),
    Message('note_on', channel=4, note=33, velocity=0, time=60),
    Message('note_on', channel=4, note=38, velocity=0, time=0),
    Message('note_on', channel=4, note=38, velocity=100, time=60),
    Message('note_on', channel=4, note=33, velocity=100, time=0),
    Message('note_on', channel=4, note=33, velocity=0, time=60),
    Message('note_on', channel=4, note=38, velocity=0, time=0),
    Message('note_on', channel=4, note=38, velocity=100, time=60),
    Message('note_on', channel=4, note=33, velocity=100, time=0),
    Message('note_on', channel=4, note=33, velocity=0, time=60),
    Message('note_on', channel=4, note=38, velocity=0, time=0),
    Message('note_on', channel=4, note=51, velocity=100, time=60),
    Message('note_on', channel=4, note=56, velocity=100, time=0),
    Message('note_on', channel=4, note=44, velocity=100, time=0),
    Message('note_on', channel=4, note=44, velocity=0, time=120),
    Message('note_on', channel=4, note=56, velocity=0, time=0),
    Message('note_on', channel=4, note=51, velocity=0, time=0),
    Message('note_on', channel=4, note=51, velocity=100, time=0),
    Message('note_on', channel=4, note=56, velocity=100, time=0),
    Message('note_on', channel=4, note=44, velocity=100, time=0),
    Message('note_on', channel=4, note=44, velocity=0, time=120),
    Message('note_on', channel=4, note=56, velocity=0, time=0),
    Message('note_on', channel=4, note=51, velocity=0, time=0),
    Message('note_on', channel=4, note=52, velocity=100, time=0),
    Message('note_on', channel=4, note=57, velocity=100, time=0),
    Message('note_on', channel=4, note=45, velocity=100, time=0),
    Message('note_on', channel=4, note=45, velocity=0, time=120),
    Message('note_on', channel=4, note=57, velocity=0, time=0),
    Message('note_on', channel=4, note=52, velocity=0, time=0),
    Message('note_on', channel=4, note=52, velocity=100, time=0),
    Message('note_on', channel=4, note=57, velocity=100, time=0),
    Message('note_on', channel=4, note=45, velocity=100, time=0),
    Message('note_on', channel=4, note=45, velocity=0, time=240),
    Message('note_on', channel=4, note=57, velocity=0, time=0),
    Message('note_on', channel=4, note=52, velocity=0, time=0),
    Message('note_on', channel=4, note=52, velocity=100, time=0),
    Message('note_on', channel=4, note=57, velocity=100, time=0),
    Message('note_on', channel=4, note=45, velocity=100, time=0),
    Message('note_on', channel=4, note=45, velocity=0, time=240),
    Message('note_on', channel=4, note=57, velocity=0, time=0),
    Message('note_on', channel=4, note=52, velocity=0, time=0),
    Message('note_on', channel=4, note=53, velocity=100, time=0),
    Message('note_on', channel=4, note=58, velocity=100, time=0),
    Message('note_on', channel=4, note=46, velocity=100, time=0),
    Message('note_on', channel=4, note=46, velocity=0, time=240),
    Message('note_on', channel=4, note=58, velocity=0, time=0),
    Message('note_on', channel=4, note=53, velocity=0, time=0),
    Message('note_on', channel=4, note=54, velocity=100, time=0),
    Message('note_on', channel=4, note=59, velocity=100, time=0),
    Message('note_on', channel=4, note=47, velocity=100, time=0),
    Message('note_on', channel=4, note=47, velocity=0, time=240),
    Message('note_on', channel=4, note=59, velocity=0, time=0),
    Message('note_on', channel=4, note=54, velocity=0, time=0),
    Message('note_on', channel=4, note=54, velocity=100, time=0),
    Message('note_on', channel=4, note=59, velocity=100, time=0),
    Message('note_on', channel=4, note=47, velocity=100, time=0),
    Message('note_on', channel=4, note=47, velocity=0, time=240),
    Message('note_on', channel=4, note=59, velocity=0, time=0),
    Message('note_on', channel=4, note=54, velocity=0, time=0),
    Message('note_on', channel=4, note=40, velocity=100, time=0),
    Message('note_on', channel=4, note=35, velocity=100, time=0),
    Message('note_on', channel=4, note=35, velocity=0, time=60),
    Message('note_on', channel=4, note=40, velocity=0, time=0),
    Message('note_on', channel=4, note=40, velocity=100, time=60),
    Message('note_on', channel=4, note=35, velocity=100, time=0),
    Message('note_on', channel=4, note=35, velocity=0, time=60),
    Message('note_on', channel=4, note=40, velocity=0, time=0),
    Message('note_on', channel=4, note=57, velocity=100, time=60),
    Message('note_on', channel=4, note=62, velocity=100, time=0),
    Message('note_on', channel=4, note=50, velocity=100, time=0),
    Message('note_on', channel=4, note=50, velocity=0, time=240),
    Message('note_on', channel=4, note=62, velocity=0, time=0),
    Message('note_on', channel=4, note=57, velocity=0, time=0),
    Message('note_on', channel=4, note=40, velocity=100, time=0),
    Message('note_on', channel=4, note=35, velocity=100, time=0),
    Message('note_on', channel=4, note=35, velocity=0, time=60),
    Message('note_on', channel=4, note=40, velocity=0, time=0),
    Message('note_on', channel=4, note=40, velocity=100, time=60),
    Message('note_on', channel=4, note=35, velocity=100, time=0),
    Message('note_on', channel=4, note=35, velocity=0, time=60),
    Message('note_on', channel=4, note=40, velocity=0, time=0),
    Message('note_on', channel=4, note=54, velocity=100, time=60),
    Message('note_on', channel=4, note=59, velocity=100, time=0),
    Message('note_on', channel=4, note=47, velocity=100, time=0),
    Message('note_on', channel=4, note=47, velocity=0, time=240),
    Message('note_on', channel=4, note=59, velocity=0, time=0),
    Message('note_on', channel=4, note=54, velocity=0, time=0),
    Message('note_on', channel=4, note=54, velocity=100, time=0),
    Message('note_on', channel=4, note=59, velocity=100, time=0),
    Message('note_on', channel=4, note=47, velocity=100, time=0),
    Message('note_on', channel=4, note=47, velocity=0, time=240),
    Message('note_on', channel=4, note=59, velocity=0, time=0),
    Message('note_on', channel=4, note=54, velocity=0, time=0),
    Message('note_on', channel=4, note=53, velocity=100, time=0),
    Message('note_on', channel=4, note=58, velocity=100, time=0),
    Message('note_on', channel=4, note=46, velocity=100, time=0),
    Message('note_on', channel=4, note=46, velocity=0, time=240),
    Message('note_on', channel=4, note=58, velocity=0, time=0),
    Message('note_on', channel=4, note=53, velocity=0, time=0),
    Message('note_on', channel=4, note=52, velocity=100, time=0),
    Message('note_on', channel=4, note=57, velocity=100, time=0),
    Message('note_on', channel=4, note=45, velocity=100, time=0),
    Message('note_on', channel=4, note=45, velocity=0, time=240),
    Message('note_on', channel=4, note=57, velocity=0, time=0),
    Message('note_on', channel=4, note=52, velocity=0, time=0),
    Message('note_on', channel=4, note=52, velocity=100, time=0),
    Message('note_on', channel=4, note=57, velocity=100, time=0),
    Message('note_on', channel=4, note=45, velocity=100, time=0),
    Message('note_on', channel=4, note=45, velocity=0, time=240),
    Message('note_on', channel=4, note=57, velocity=0, time=0),
    Message('note_on', channel=4, note=52, velocity=0, time=0),
    Message('note_on', channel=4, note=57, velocity=100, time=0),
    Message('note_on', channel=4, note=45, velocity=100, time=0),
    Message('note_on', channel=4, note=52, velocity=100, time=0),
    Message('note_on', channel=4, note=52, velocity=0, time=240),
    Message('note_on', channel=4, note=45, velocity=0, time=0),
    Message('note_on', channel=4, note=57, velocity=0, time=0),
    Message('pitchwheel', channel=4, pitch=0, time=5040),
    Message('note_on', channel=4, note=64, velocity=75, time=0),
    Message('note_on', channel=4, note=59, velocity=75, time=0),
    Message('note_on', channel=4, note=52, velocity=75, time=0),
    Message('pitchwheel', channel=4, pitch=-2730, time=960),
    Message('pitchwheel', channel=4, pitch=-4095, time=60),
    Message('pitchwheel', channel=4, pitch=-8190, time=60),
    Message('note_on', channel=4, note=52, velocity=0, time=2760),
    Message('note_on', channel=4, note=59, velocity=0, time=0),
    Message('note_on', channel=4, note=64, velocity=0, time=0),
    Message('pitchwheel', channel=4, pitch=0, time=0),
    Message('note_on', channel=4, note=64, velocity=75, time=0),
    Message('note_on', channel=4, note=59, velocity=75, time=0),
    Message('note_on', channel=4, note=52, velocity=75, time=0),
    Message('pitchwheel', channel=4, pitch=-2730, time=960),
    Message('pitchwheel', channel=4, pitch=-4095, time=60),
    Message('pitchwheel', channel=4, pitch=-8190, time=60),
    Message('note_on', channel=4, note=52, velocity=0, time=2760),
    Message('note_on', channel=4, note=59, velocity=0, time=0),
    Message('note_on', channel=4, note=64, velocity=0, time=0),
    Message('pitchwheel', channel=4, pitch=0, time=0),
    Message('pitchwheel', channel=4, pitch=0, time=0),
    Message('pitchwheel', channel=4, pitch=0, time=0),
    Message('note_on', channel=4, note=52, velocity=100, time=0),
    Message('note_on', channel=4, note=64, velocity=100, time=0),
    Message('note_on', channel=4, note=59, velocity=100, time=0),
    Message('note_on', channel=4, note=59, velocity=0, time=960),
    Message('note_on', channel=4, note=64, velocity=0, time=0),
    Message('note_on', channel=4, note=52, velocity=0, time=0),
    Message('note_on', channel=4, note=50, velocity=100, time=0),
    Message('note_on', channel=4, note=62, velocity=100, time=0),
    Message('note_on', channel=4, note=57, velocity=100, time=0),
    Message('note_on', channel=4, note=57, velocity=0, time=960),
    Message('note_on', channel=4, note=62, velocity=0, time=0),
    Message('note_on', channel=4, note=50, velocity=0, time=0),
    Message('note_on', channel=4, note=49, velocity=100, time=0),
    Message('note_on', channel=4, note=61, velocity=100, time=0),
    Message('note_on', channel=4, note=56, velocity=100, time=0),
    Message('note_on', channel=4, note=56, velocity=0, time=960),
    Message('note_on', channel=4, note=61, velocity=0, time=0),
    Message('note_on', channel=4, note=49, velocity=0, time=0),
    Message('note_on', channel=4, note=48, velocity=100, time=0),
    Message('note_on', channel=4, note=60, velocity=100, time=0),
    Message('note_on', channel=4, note=55, velocity=100, time=0),
    Message('note_on', channel=4, note=55, velocity=0, time=960),
    Message('note_on', channel=4, note=60, velocity=0, time=0),
    Message('note_on', channel=4, note=48, velocity=0, time=0),
    Message('pitchwheel', channel=4, pitch=0, time=0),
    Message('pitchwheel', channel=4, pitch=0, time=0),
    Message('pitchwheel', channel=4, pitch=0, time=0),
    Message('note_on', channel=4, note=52, velocity=100, time=0),
    Message('note_on', channel=4, note=64, velocity=100, time=0),
    Message('note_on', channel=4, note=59, velocity=100, time=0),
    Message('note_on', channel=4, note=59, velocity=0, time=960),
    Message('note_on', channel=4, note=64, velocity=0, time=0),
    Message('note_on', channel=4, note=52, velocity=0, time=0),
    Message('note_on', channel=4, note=50, velocity=100, time=0),
    Message('note_on', channel=4, note=62, velocity=100, time=0),
    Message('note_on', channel=4, note=57, velocity=100, time=0),
    Message('note_on', channel=4, note=57, velocity=0, time=960),
    Message('note_on', channel=4, note=62, velocity=0, time=0),
    Message('note_on', channel=4, note=50, velocity=0, time=0),
    Message('note_on', channel=4, note=49, velocity=100, time=0),
    Message('note_on', channel=4, note=61, velocity=100, time=0),
    Message('note_on', channel=4, note=56, velocity=100, time=0),
    Message('note_on', channel=4, note=56, velocity=0, time=960),
    Message('note_on', channel=4, note=61, velocity=0, time=0),
    Message('note_on', channel=4, note=49, velocity=0, time=0),
    Message('note_on', channel=4, note=48, velocity=100, time=0),
    Message('note_on', channel=4, note=60, velocity=100, time=0),
    Message('note_on', channel=4, note=55, velocity=100, time=0),
    Message('note_on', channel=4, note=55, velocity=0, time=960),
    Message('note_on', channel=4, note=60, velocity=0, time=0),
    Message('note_on', channel=4, note=48, velocity=0, time=0),
    Message('pitchwheel', channel=4, pitch=0, time=0),
    Message('pitchwheel', channel=4, pitch=0, time=0),
    Message('pitchwheel', channel=4, pitch=0, time=0),
    Message('note_on', channel=4, note=52, velocity=100, time=0),
    Message('note_on', channel=4, note=64, velocity=100, time=0),
    Message('note_on', channel=4, note=59, velocity=100, time=0),
    Message('note_on', channel=4, note=59, velocity=0, time=960),
    Message('note_on', channel=4, note=64, velocity=0, time=0),
    Message('note_on', channel=4, note=52, velocity=0, time=0),
    Message('note_on', channel=4, note=50, velocity=100, time=0),
    Message('note_on', channel=4, note=62, velocity=100, time=0),
    Message('note_on', channel=4, note=57, velocity=100, time=0),
    Message('note_on', channel=4, note=57, velocity=0, time=960),
    Message('note_on', channel=4, note=62, velocity=0, time=0),
    Message('note_on', channel=4, note=50, velocity=0, time=0),
    Message('note_on', channel=4, note=49, velocity=100, time=0),
    Message('note_on', channel=4, note=61, velocity=100, time=0),
    Message('note_on', channel=4, note=56, velocity=100, time=0),
    Message('note_on', channel=4, note=56, velocity=0, time=960),
    Message('note_on', channel=4, note=61, velocity=0, time=0),
    Message('note_on', channel=4, note=49, velocity=0, time=0),
    Message('note_on', channel=4, note=48, velocity=100, time=0),
    Message('note_on', channel=4, note=60, velocity=100, time=0),
    Message('note_on', channel=4, note=55, velocity=100, time=0),
    Message('note_on', channel=4, note=55, velocity=0, time=960),
    Message('note_on', channel=4, note=60, velocity=0, time=0),
    Message('note_on', channel=4, note=48, velocity=0, time=0),
    Message('pitchwheel', channel=4, pitch=0, time=0),
    Message('pitchwheel', channel=4, pitch=0, time=0),
    Message('pitchwheel', channel=4, pitch=0, time=0),
    Message('note_on', channel=4, note=52, velocity=100, time=0),
    Message('note_on', channel=4, note=64, velocity=100, time=0),
    Message('note_on', channel=4, note=59, velocity=100, time=0),
    Message('note_on', channel=4, note=59, velocity=0, time=960),
    Message('note_on', channel=4, note=64, velocity=0, time=0),
    Message('note_on', channel=4, note=52, velocity=0, time=0),
    Message('note_on', channel=4, note=50, velocity=100, time=0),
    Message('note_on', channel=4, note=62, velocity=100, time=0),
    Message('note_on', channel=4, note=57, velocity=100, time=0),
    Message('note_on', channel=4, note=57, velocity=0, time=960),
    Message('note_on', channel=4, note=62, velocity=0, time=0),
    Message('note_on', channel=4, note=50, velocity=0, time=0),
    Message('note_on', channel=4, note=49, velocity=100, time=0),
    Message('note_on', channel=4, note=61, velocity=100, time=0),
    Message('note_on', channel=4, note=56, velocity=100, time=0),
    Message('note_on', channel=4, note=56, velocity=0, time=960),
    Message('note_on', channel=4, note=61, velocity=0, time=0),
    Message('note_on', channel=4, note=49, velocity=0, time=0),
    Message('note_on', channel=4, note=48, velocity=100, time=0),
    Message('note_on', channel=4, note=60, velocity=100, time=0),
    Message('note_on', channel=4, note=55, velocity=100, time=0),
    Message('note_on', channel=4, note=55, velocity=0, time=960),
    Message('note_on', channel=4, note=60, velocity=0, time=0),
    Message('note_on', channel=4, note=48, velocity=0, time=0),
    Message('pitchwheel', channel=4, pitch=0, time=0),
    Message('pitchwheel', channel=4, pitch=0, time=0),
    Message('pitchwheel', channel=4, pitch=0, time=0),
    Message('note_on', channel=4, note=52, velocity=100, time=0),
    Message('note_on', channel=4, note=64, velocity=100, time=0),
    Message('note_on', channel=4, note=59, velocity=100, time=0),
    Message('note_on', channel=4, note=59, velocity=0, time=960),
    Message('note_on', channel=4, note=64, velocity=0, time=0),
    Message('note_on', channel=4, note=52, velocity=0, time=0),
    Message('note_on', channel=4, note=50, velocity=100, time=0),
    Message('note_on', channel=4, note=62, velocity=100, time=0),
    Message('note_on', channel=4, note=57, velocity=100, time=0),
    Message('note_on', channel=4, note=57, velocity=0, time=960),
    Message('note_on', channel=4, note=62, velocity=0, time=0),
    Message('note_on', channel=4, note=50, velocity=0, time=0),
    Message('note_on', channel=4, note=49, velocity=100, time=0),
    Message('note_on', channel=4, note=61, velocity=100, time=0),
    Message('note_on', channel=4, note=56, velocity=100, time=0),
    Message('note_on', channel=4, note=56, velocity=0, time=960),
    Message('note_on', channel=4, note=61, velocity=0, time=0),
    Message('note_on', channel=4, note=49, velocity=0, time=0),
    Message('note_on', channel=4, note=48, velocity=100, time=0),
    Message('note_on', channel=4, note=60, velocity=100, time=0),
    Message('note_on', channel=4, note=55, velocity=100, time=0),
    Message('note_on', channel=4, note=55, velocity=0, time=960),
    Message('note_on', channel=4, note=60, velocity=0, time=0),
    Message('note_on', channel=4, note=48, velocity=0, time=0),
    Message('pitchwheel', channel=4, pitch=0, time=0),
    Message('pitchwheel', channel=4, pitch=0, time=0),
    Message('pitchwheel', channel=4, pitch=0, time=0),
    Message('note_on', channel=4, note=52, velocity=100, time=0),
    Message('note_on', channel=4, note=64, velocity=100, time=0),
    Message('note_on', channel=4, note=59, velocity=100, time=0),
    Message('note_on', channel=4, note=59, velocity=0, time=960),
    Message('note_on', channel=4, note=64, velocity=0, time=0),
    Message('note_on', channel=4, note=52, velocity=0, time=0),
    Message('note_on', channel=4, note=50, velocity=100, time=0),
    Message('note_on', channel=4, note=62, velocity=100, time=0),
    Message('note_on', channel=4, note=57, velocity=100, time=0),
    Message('note_on', channel=4, note=57, velocity=0, time=960),
    Message('note_on', channel=4, note=62, velocity=0, time=0),
    Message('note_on', channel=4, note=50, velocity=0, time=0),
    Message('note_on', channel=4, note=49, velocity=100, time=0),
    Message('note_on', channel=4, note=61, velocity=100, time=0),
    Message('note_on', channel=4, note=56, velocity=100, time=0),
    Message('note_on', channel=4, note=56, velocity=0, time=960),
    Message('note_on', channel=4, note=61, velocity=0, time=0),
    Message('note_on', channel=4, note=49, velocity=0, time=0),
    Message('note_on', channel=4, note=48, velocity=100, time=0),
    Message('note_on', channel=4, note=60, velocity=100, time=0),
    Message('note_on', channel=4, note=55, velocity=100, time=0),
    Message('note_on', channel=4, note=55, velocity=0, time=960),
    Message('note_on', channel=4, note=60, velocity=0, time=0),
    Message('note_on', channel=4, note=48, velocity=0, time=0),
    Message('pitchwheel', channel=4, pitch=0, time=0),
    Message('pitchwheel', channel=4, pitch=0, time=0),
    Message('pitchwheel', channel=4, pitch=0, time=0),
    Message('note_on', channel=4, note=52, velocity=100, time=0),
    Message('note_on', channel=4, note=64, velocity=100, time=0),
    Message('note_on', channel=4, note=59, velocity=100, time=0),
    Message('note_on', channel=4, note=59, velocity=0, time=960),
    Message('note_on', channel=4, note=64, velocity=0, time=0),
    Message('note_on', channel=4, note=52, velocity=0, time=0),
    Message('note_on', channel=4, note=50, velocity=100, time=0),
    Message('note_on', channel=4, note=62, velocity=100, time=0),
    Message('note_on', channel=4, note=57, velocity=100, time=0),
    Message('note_on', channel=4, note=57, velocity=0, time=960),
    Message('note_on', channel=4, note=62, velocity=0, time=0),
    Message('note_on', channel=4, note=50, velocity=0, time=0),
    Message('note_on', channel=4, note=49, velocity=100, time=0),
    Message('note_on', channel=4, note=61, velocity=100, time=0),
    Message('note_on', channel=4, note=56, velocity=100, time=0),
    Message('note_on', channel=4, note=56, velocity=0, time=960),
    Message('note_on', channel=4, note=61, velocity=0, time=0),
    Message('note_on', channel=4, note=49, velocity=0, time=0),
    Message('note_on', channel=4, note=48, velocity=100, time=0),
    Message('note_on', channel=4, note=60, velocity=100, time=0),
    Message('note_on', channel=4, note=55, velocity=100, time=0),
    Message('note_on', channel=4, note=55, velocity=0, time=960),
    Message('note_on', channel=4, note=60, velocity=0, time=0),
    Message('note_on', channel=4, note=48, velocity=0, time=0),
    Message('pitchwheel', channel=4, pitch=0, time=0),
    Message('pitchwheel', channel=4, pitch=0, time=0),
    Message('pitchwheel', channel=4, pitch=0, time=0),
    Message('note_on', channel=4, note=52, velocity=100, time=0),
    Message('note_on', channel=4, note=64, velocity=100, time=0),
    Message('note_on', channel=4, note=59, velocity=100, time=0),
    Message('note_on', channel=4, note=59, velocity=0, time=960),
    Message('note_on', channel=4, note=64, velocity=0, time=0),
    Message('note_on', channel=4, note=52, velocity=0, time=0),
    Message('note_on', channel=4, note=50, velocity=100, time=0),
    Message('note_on', channel=4, note=62, velocity=100, time=0),
    Message('note_on', channel=4, note=57, velocity=100, time=0),
    Message('note_on', channel=4, note=57, velocity=0, time=960),
    Message('note_on', channel=4, note=62, velocity=0, time=0),
    Message('note_on', channel=4, note=50, velocity=0, time=0),
    Message('note_on', channel=4, note=49, velocity=100, time=0),
    Message('note_on', channel=4, note=61, velocity=100, time=0),
    Message('note_on', channel=4, note=56, velocity=100, time=0),
    Message('note_on', channel=4, note=56, velocity=0, time=960),
    Message('note_on', channel=4, note=61, velocity=0, time=0),
    Message('note_on', channel=4, note=49, velocity=0, time=0),
    Message('note_on', channel=4, note=48, velocity=100, time=0),
    Message('note_on', channel=4, note=60, velocity=100, time=0),
    Message('note_on', channel=4, note=55, velocity=100, time=0),
    Message('note_on', channel=4, note=55, velocity=0, time=960),
    Message('note_on', channel=4, note=60, velocity=0, time=0),
    Message('note_on', channel=4, note=48, velocity=0, time=0),
    Message('pitchwheel', channel=4, pitch=0, time=0),
    Message('pitchwheel', channel=4, pitch=0, time=0),
    Message('pitchwheel', channel=4, pitch=0, time=0),
    Message('note_on', channel=4, note=52, velocity=100, time=0),
    Message('note_on', channel=4, note=64, velocity=100, time=0),
    Message('note_on', channel=4, note=59, velocity=100, time=0),
    Message('note_on', channel=4, note=59, velocity=0, time=960),
    Message('note_on', channel=4, note=64, velocity=0, time=0),
    Message('note_on', channel=4, note=52, velocity=0, time=0),
    Message('note_on', channel=4, note=50, velocity=100, time=0),
    Message('note_on', channel=4, note=62, velocity=100, time=0),
    Message('note_on', channel=4, note=57, velocity=100, time=0),
    Message('note_on', channel=4, note=57, velocity=0, time=960),
    Message('note_on', channel=4, note=62, velocity=0, time=0),
    Message('note_on', channel=4, note=50, velocity=0, time=0),
    Message('note_on', channel=4, note=49, velocity=100, time=0),
    Message('note_on', channel=4, note=61, velocity=100, time=0),
    Message('note_on', channel=4, note=56, velocity=100, time=0),
    Message('note_on', channel=4, note=56, velocity=0, time=960),
    Message('note_on', channel=4, note=61, velocity=0, time=0),
    Message('note_on', channel=4, note=49, velocity=0, time=0),
    Message('note_on', channel=4, note=48, velocity=100, time=0),
    Message('note_on', channel=4, note=60, velocity=100, time=0),
    Message('note_on', channel=4, note=55, velocity=100, time=0),
    Message('note_on', channel=4, note=55, velocity=0, time=960),
    Message('note_on', channel=4, note=60, velocity=0, time=0),
    Message('note_on', channel=4, note=48, velocity=0, time=0),
    Message('pitchwheel', channel=4, pitch=0, time=0),
    Message('pitchwheel', channel=4, pitch=0, time=0),
    Message('pitchwheel', channel=4, pitch=0, time=0),
    Message('note_on', channel=4, note=52, velocity=100, time=0),
    Message('note_on', channel=4, note=64, velocity=100, time=0),
    Message('note_on', channel=4, note=59, velocity=100, time=0),
    Message('note_on', channel=4, note=59, velocity=0, time=960),
    Message('note_on', channel=4, note=64, velocity=0, time=0),
    Message('note_on', channel=4, note=52, velocity=0, time=0),
    Message('note_on', channel=4, note=50, velocity=100, time=0),
    Message('note_on', channel=4, note=62, velocity=100, time=0),
    Message('note_on', channel=4, note=57, velocity=100, time=0),
    Message('note_on', channel=4, note=57, velocity=0, time=960),
    Message('note_on', channel=4, note=62, velocity=0, time=0),
    Message('note_on', channel=4, note=50, velocity=0, time=0),
    Message('note_on', channel=4, note=49, velocity=100, time=0),
    Message('note_on', channel=4, note=61, velocity=100, time=0),
    Message('note_on', channel=4, note=56, velocity=100, time=0),
    Message('note_on', channel=4, note=56, velocity=0, time=960),
    Message('note_on', channel=4, note=61, velocity=0, time=0),
    Message('note_on', channel=4, note=49, velocity=0, time=0),
    Message('note_on', channel=4, note=61, velocity=100, time=0),
    Message('note_on', channel=4, note=66, velocity=100, time=0),
    Message('note_on', channel=4, note=54, velocity=100, time=0),
    Message('note_on', channel=4, note=54, velocity=0, time=160),
    Message('note_on', channel=4, note=66, velocity=0, time=0),
    Message('note_on', channel=4, note=61, velocity=0, time=0),
    Message('note_on', channel=4, note=62, velocity=100, time=0),
    Message('note_on', channel=4, note=67, velocity=100, time=0),
    Message('note_on', channel=4, note=55, velocity=100, time=0),
    Message('note_on', channel=4, note=55, velocity=0, time=160),
    Message('note_on', channel=4, note=67, velocity=0, time=0),
    Message('note_on', channel=4, note=62, velocity=0, time=0),
    Message('note_on', channel=4, note=61, velocity=100, time=0),
    Message('note_on', channel=4, note=66, velocity=100, time=0),
    Message('note_on', channel=4, note=54, velocity=100, time=0),
    Message('note_on', channel=4, note=54, velocity=0, time=160),
    Message('note_on', channel=4, note=66, velocity=0, time=0),
    Message('note_on', channel=4, note=61, velocity=0, time=0),
    Message('note_on', channel=4, note=62, velocity=100, time=0),
    Message('note_on', channel=4, note=67, velocity=100, time=0),
    Message('note_on', channel=4, note=55, velocity=100, time=0),
    Message('note_on', channel=4, note=55, velocity=0, time=160),
    Message('note_on', channel=4, note=67, velocity=0, time=0),
    Message('note_on', channel=4, note=62, velocity=0, time=0),
    Message('note_on', channel=4, note=61, velocity=100, time=0),
    Message('note_on', channel=4, note=66, velocity=100, time=0),
    Message('note_on', channel=4, note=54, velocity=100, time=0),
    Message('note_on', channel=4, note=54, velocity=0, time=160),
    Message('note_on', channel=4, note=66, velocity=0, time=0),
    Message('note_on', channel=4, note=61, velocity=0, time=0),
    Message('note_on', channel=4, note=57, velocity=100, time=0),
    Message('note_on', channel=4, note=62, velocity=100, time=0),
    Message('note_on', channel=4, note=50, velocity=100, time=0),
    Message('note_on', channel=4, note=50, velocity=0, time=160),
    Message('note_on', channel=4, note=62, velocity=0, time=0),
    Message('note_on', channel=4, note=57, velocity=0, time=0),
    Message('pitchwheel', channel=4, pitch=0, time=0),
    Message('pitchwheel', channel=4, pitch=0, time=0),
    Message('pitchwheel', channel=4, pitch=0, time=0),
    Message('note_on', channel=4, note=52, velocity=100, time=0),
    Message('note_on', channel=4, note=64, velocity=100, time=0),
    Message('note_on', channel=4, note=59, velocity=100, time=0),
    Message('note_on', channel=4, note=59, velocity=0, time=960),
    Message('note_on', channel=4, note=64, velocity=0, time=0),
    Message('note_on', channel=4, note=52, velocity=0, time=0),
    Message('note_on', channel=4, note=50, velocity=100, time=0),
    Message('note_on', channel=4, note=62, velocity=100, time=0),
    Message('note_on', channel=4, note=57, velocity=100, time=0),
    Message('note_on', channel=4, note=57, velocity=0, time=960),
    Message('note_on', channel=4, note=62, velocity=0, time=0),
    Message('note_on', channel=4, note=50, velocity=0, time=0),
    Message('note_on', channel=4, note=49, velocity=100, time=0),
    Message('note_on', channel=4, note=61, velocity=100, time=0),
    Message('note_on', channel=4, note=56, velocity=100, time=0),
    Message('note_on', channel=4, note=56, velocity=0, time=960),
    Message('note_on', channel=4, note=61, velocity=0, time=0),
    Message('note_on', channel=4, note=49, velocity=0, time=0),
    Message('note_on', channel=4, note=61, velocity=100, time=0),
    Message('note_on', channel=4, note=66, velocity=100, time=0),
    Message('note_on', channel=4, note=54, velocity=100, time=0),
    Message('note_on', channel=4, note=54, velocity=0, time=160),
    Message('note_on', channel=4, note=66, velocity=0, time=0),
    Message('note_on', channel=4, note=61, velocity=0, time=0),
    Message('note_on', channel=4, note=62, velocity=100, time=0),
    Message('note_on', channel=4, note=67, velocity=100, time=0),
    Message('note_on', channel=4, note=55, velocity=100, time=0),
    Message('note_on', channel=4, note=55, velocity=0, time=160),
    Message('note_on', channel=4, note=67, velocity=0, time=0),
    Message('note_on', channel=4, note=62, velocity=0, time=0),
    Message('note_on', channel=4, note=61, velocity=100, time=0),
    Message('note_on', channel=4, note=66, velocity=100, time=0),
    Message('note_on', channel=4, note=54, velocity=100, time=0),
    Message('note_on', channel=4, note=54, velocity=0, time=160),
    Message('note_on', channel=4, note=66, velocity=0, time=0),
    Message('note_on', channel=4, note=61, velocity=0, time=0),
    Message('note_on', channel=4, note=62, velocity=100, time=0),
    Message('note_on', channel=4, note=67, velocity=100, time=0),
    Message('note_on', channel=4, note=55, velocity=100, time=0),
    Message('note_on', channel=4, note=55, velocity=0, time=160),
    Message('note_on', channel=4, note=67, velocity=0, time=0),
    Message('note_on', channel=4, note=62, velocity=0, time=0),
    Message('note_on', channel=4, note=61, velocity=100, time=0),
    Message('note_on', channel=4, note=66, velocity=100, time=0),
    Message('note_on', channel=4, note=54, velocity=100, time=0),
    Message('note_on', channel=4, note=54, velocity=0, time=160),
    Message('note_on', channel=4, note=66, velocity=0, time=0),
    Message('note_on', channel=4, note=61, velocity=0, time=0),
    Message('note_on', channel=4, note=57, velocity=100, time=0),
    Message('note_on', channel=4, note=62, velocity=100, time=0),
    Message('note_on', channel=4, note=50, velocity=100, time=0),
    Message('note_on', channel=4, note=50, velocity=0, time=160),
    Message('note_on', channel=4, note=62, velocity=0, time=0),
    Message('note_on', channel=4, note=57, velocity=0, time=0),
    Message('pitchwheel', channel=4, pitch=0, time=0),
    Message('pitchwheel', channel=4, pitch=0, time=0),
    Message('pitchwheel', channel=4, pitch=0, time=0),
    Message('note_on', channel=4, note=52, velocity=100, time=0),
    Message('note_on', channel=4, note=64, velocity=100, time=0),
    Message('note_on', channel=4, note=59, velocity=100, time=0),
    Message('note_on', channel=4, note=59, velocity=0, time=960),
    Message('note_on', channel=4, note=64, velocity=0, time=0),
    Message('note_on', channel=4, note=52, velocity=0, time=0),
    Message('note_on', channel=4, note=50, velocity=100, time=0),
    Message('note_on', channel=4, note=62, velocity=100, time=0),
    Message('note_on', channel=4, note=57, velocity=100, time=0),
    Message('note_on', channel=4, note=57, velocity=0, time=960),
    Message('note_on', channel=4, note=62, velocity=0, time=0),
    Message('note_on', channel=4, note=50, velocity=0, time=0),
    Message('note_on', channel=4, note=49, velocity=100, time=0),
    Message('note_on', channel=4, note=61, velocity=100, time=0),
    Message('note_on', channel=4, note=56, velocity=100, time=0),
    Message('note_on', channel=4, note=56, velocity=0, time=960),
    Message('note_on', channel=4, note=61, velocity=0, time=0),
    Message('note_on', channel=4, note=49, velocity=0, time=0),
    Message('note_on', channel=4, note=61, velocity=100, time=0),
    Message('note_on', channel=4, note=66, velocity=100, time=0),
    Message('note_on', channel=4, note=54, velocity=100, time=0),
    Message('note_on', channel=4, note=54, velocity=0, time=160),
    Message('note_on', channel=4, note=66, velocity=0, time=0),
    Message('note_on', channel=4, note=61, velocity=0, time=0),
    Message('note_on', channel=4, note=62, velocity=100, time=0),
    Message('note_on', channel=4, note=67, velocity=100, time=0),
    Message('note_on', channel=4, note=55, velocity=100, time=0),
    Message('note_on', channel=4, note=55, velocity=0, time=160),
    Message('note_on', channel=4, note=67, velocity=0, time=0),
    Message('note_on', channel=4, note=62, velocity=0, time=0),
    Message('note_on', channel=4, note=61, velocity=100, time=0),
    Message('note_on', channel=4, note=66, velocity=100, time=0),
    Message('note_on', channel=4, note=54, velocity=100, time=0),
    Message('note_on', channel=4, note=54, velocity=0, time=160),
    Message('note_on', channel=4, note=66, velocity=0, time=0),
    Message('note_on', channel=4, note=61, velocity=0, time=0),
    Message('note_on', channel=4, note=62, velocity=100, time=0),
    Message('note_on', channel=4, note=67, velocity=100, time=0),
    Message('note_on', channel=4, note=55, velocity=100, time=0),
    Message('note_on', channel=4, note=55, velocity=0, time=160),
    Message('note_on', channel=4, note=67, velocity=0, time=0),
    Message('note_on', channel=4, note=62, velocity=0, time=0),
    Message('note_on', channel=4, note=61, velocity=100, time=0),
    Message('note_on', channel=4, note=66, velocity=100, time=0),
    Message('note_on', channel=4, note=54, velocity=100, time=0),
    Message('note_on', channel=4, note=54, velocity=0, time=160),
    Message('note_on', channel=4, note=66, velocity=0, time=0),
    Message('note_on', channel=4, note=61, velocity=0, time=0),
    Message('note_on', channel=4, note=57, velocity=100, time=0),
    Message('note_on', channel=4, note=62, velocity=100, time=0),
    Message('note_on', channel=4, note=50, velocity=100, time=0),
    Message('note_on', channel=4, note=50, velocity=0, time=160),
    Message('note_on', channel=4, note=62, velocity=0, time=0),
    Message('note_on', channel=4, note=57, velocity=0, time=0),
    Message('note_on', channel=4, note=52, velocity=100, time=0),
    Message('note_on', channel=4, note=59, velocity=100, time=0),
    Message('note_on', channel=4, note=64, velocity=100, time=0),
    Message('note_on', channel=4, note=64, velocity=0, time=240),
    Message('note_on', channel=4, note=59, velocity=0, time=0),
    Message('note_on', channel=4, note=52, velocity=0, time=0),
    MetaMessage('end_of_track', time=0)]),
  MidiTrack([
    MetaMessage('track_name', name='Drums', time=0),
    Message('control_change', channel=9, control=0, value=120, time=0),
    Message('control_change', channel=9, control=32, value=0, time=0),
    Message('program_change', channel=9, program=0, time=0),
    Message('control_change', channel=9, control=7, value=100, time=0),
    Message('control_change', channel=9, control=10, value=64, time=0),
    Message('control_change', channel=9, control=91, value=32, time=0),
    Message('control_change', channel=9, control=93, value=24, time=0),
    Message('note_on', channel=9, note=43, velocity=100, time=0),
    Message('note_on', channel=9, note=41, velocity=100, time=0),
    Message('note_on', channel=9, note=36, velocity=100, time=0),
    Message('note_on', channel=9, note=36, velocity=0, time=120),
    Message('note_on', channel=9, note=41, velocity=0, time=0),
    Message('note_on', channel=9, note=43, velocity=0, time=0),
    Message('note_on', channel=9, note=43, velocity=100, time=360),
    Message('note_on', channel=9, note=41, velocity=100, time=0),
    Message('note_on', channel=9, note=36, velocity=100, time=0),
    Message('note_on', channel=9, note=36, velocity=0, time=120),
    Message('note_on', channel=9, note=41, velocity=0, time=0),
    Message('note_on', channel=9, note=43, velocity=0, time=0),
    Message('note_on', channel=9, note=43, velocity=100, time=360),
    Message('note_on', channel=9, note=41, velocity=100, time=0),
    Message('note_on', channel=9, note=36, velocity=100, time=0),
    Message('note_on', channel=9, note=36, velocity=0, time=120),
    Message('note_on', channel=9, note=41, velocity=0, time=0),
    Message('note_on', channel=9, note=43, velocity=0, time=0),
    Message('note_on', channel=9, note=43, velocity=100, time=360),
    Message('note_on', channel=9, note=41, velocity=100, time=0),
    Message('note_on', channel=9, note=36, velocity=100, time=0),
    Message('note_on', channel=9, note=36, velocity=0, time=120),
    Message('note_on', channel=9, note=41, velocity=0, time=0),
    Message('note_on', channel=9, note=43, velocity=0, time=0),
    Message('note_on', channel=9, note=43, velocity=100, time=360),
    Message('note_on', channel=9, note=41, velocity=100, time=0),
    Message('note_on', channel=9, note=36, velocity=100, time=0),
    Message('note_on', channel=9, note=36, velocity=0, time=120),
    Message('note_on', channel=9, note=41, velocity=0, time=0),
    Message('note_on', channel=9, note=43, velocity=0, time=0),
    Message('note_on', channel=9, note=43, velocity=100, time=360),
    Message('note_on', channel=9, note=41, velocity=100, time=0),
    Message('note_on', channel=9, note=36, velocity=100, time=0),
    Message('note_on', channel=9, note=36, velocity=0, time=120),
    Message('note_on', channel=9, note=41, velocity=0, time=0),
    Message('note_on', channel=9, note=43, velocity=0, time=0),
    Message('note_on', channel=9, note=43, velocity=100, time=360),
    Message('note_on', channel=9, note=41, velocity=100, time=0),
    Message('note_on', channel=9, note=36, velocity=100, time=0),
    Message('note_on', channel=9, note=36, velocity=0, time=120),
    Message('note_on', channel=9, note=41, velocity=0, time=0),
    Message('note_on', channel=9, note=43, velocity=0, time=0),
    Message('note_on', channel=9, note=43, velocity=100, time=360),
    Message('note_on', channel=9, note=41, velocity=100, time=0),
    Message('note_on', channel=9, note=36, velocity=100, time=0),
    Message('note_on', channel=9, note=36, velocity=0, time=120),
    Message('note_on', channel=9, note=41, velocity=0, time=0),
    Message('note_on', channel=9, note=43, velocity=0, time=0),
    Message('note_on', channel=9, note=43, velocity=100, time=360),
    Message('note_on', channel=9, note=41, velocity=100, time=0),
    Message('note_on', channel=9, note=36, velocity=100, time=0),
    Message('note_on', channel=9, note=36, velocity=0, time=120),
    Message('note_on', channel=9, note=41, velocity=0, time=0),
    Message('note_on', channel=9, note=43, velocity=0, time=0),
    Message('note_on', channel=9, note=43, velocity=100, time=360),
    Message('note_on', channel=9, note=41, velocity=100, time=0),
    Message('note_on', channel=9, note=36, velocity=100, time=0),
    Message('note_on', channel=9, note=36, velocity=0, time=120),
    Message('note_on', channel=9, note=41, velocity=0, time=0),
    Message('note_on', channel=9, note=43, velocity=0, time=0),
    Message('note_on', channel=9, note=43, velocity=100, time=360),
    Message('note_on', channel=9, note=41, velocity=100, time=0),
    Message('note_on', channel=9, note=36, velocity=100, time=0),
    Message('note_on', channel=9, note=36, velocity=0, time=120),
    Message('note_on', channel=9, note=41, velocity=0, time=0),
    Message('note_on', channel=9, note=43, velocity=0, time=0),
    Message('note_on', channel=9, note=43, velocity=100, time=360),
    Message('note_on', channel=9, note=41, velocity=100, time=0),
    Message('note_on', channel=9, note=36, velocity=100, time=0),
    Message('note_on', channel=9, note=36, velocity=0, time=120),
    Message('note_on', channel=9, note=41, velocity=0, time=0),
    Message('note_on', channel=9, note=43, velocity=0, time=0),
    Message('note_on', channel=9, note=43, velocity=100, time=360),
    Message('note_on', channel=9, note=41, velocity=100, time=0),
    Message('note_on', channel=9, note=36, velocity=100, time=0),
    Message('note_on', channel=9, note=36, velocity=0, time=120),
    Message('note_on', channel=9, note=41, velocity=0, time=0),
    Message('note_on', channel=9, note=43, velocity=0, time=0),
    Message('note_on', channel=9, note=43, velocity=100, time=360),
    Message('note_on', channel=9, note=41, velocity=100, time=0),
    Message('note_on', channel=9, note=36, velocity=100, time=0),
    Message('note_on', channel=9, note=36, velocity=0, time=120),
    Message('note_on', channel=9, note=41, velocity=0, time=0),
    Message('note_on', channel=9, note=43, velocity=0, time=0),
    Message('note_on', channel=9, note=43, velocity=100, time=360),
    Message('note_on', channel=9, note=41, velocity=100, time=0),
    Message('note_on', channel=9, note=36, velocity=100, time=0),
    Message('note_on', channel=9, note=36, velocity=0, time=120),
    Message('note_on', channel=9, note=41, velocity=0, time=0),
    Message('note_on', channel=9, note=43, velocity=0, time=0),
    Message('note_on', channel=9, note=43, velocity=100, time=360),
    Message('note_on', channel=9, note=41, velocity=100, time=0),
    Message('note_on', channel=9, note=36, velocity=100, time=0),
    Message('note_on', channel=9, note=36, velocity=0, time=120),
    Message('note_on', channel=9, note=41, velocity=0, time=0),
    Message('note_on', channel=9, note=43, velocity=0, time=0),
    Message('note_on', channel=9, note=43, velocity=100, time=360),
    Message('note_on', channel=9, note=41, velocity=100, time=0),
    Message('note_on', channel=9, note=36, velocity=100, time=0),
    Message('note_on', channel=9, note=36, velocity=0, time=120),
    Message('note_on', channel=9, note=41, velocity=0, time=0),
    Message('note_on', channel=9, note=43, velocity=0, time=0),
    Message('note_on', channel=9, note=43, velocity=100, time=360),
    Message('note_on', channel=9, note=41, velocity=100, time=0),
    Message('note_on', channel=9, note=36, velocity=100, time=0),
    Message('note_on', channel=9, note=36, velocity=0, time=120),
    Message('note_on', channel=9, note=41, velocity=0, time=0),
    Message('note_on', channel=9, note=43, velocity=0, time=0),
    Message('note_on', channel=9, note=43, velocity=100, time=360),
    Message('note_on', channel=9, note=41, velocity=100, time=0),
    Message('note_on', channel=9, note=36, velocity=100, time=0),
    Message('note_on', channel=9, note=36, velocity=0, time=120),
    Message('note_on', channel=9, note=41, velocity=0, time=0),
    Message('note_on', channel=9, note=43, velocity=0, time=0),
    Message('note_on', channel=9, note=43, velocity=100, time=360),
    Message('note_on', channel=9, note=41, velocity=100, time=0),
    Message('note_on', channel=9, note=36, velocity=100, time=0),
    Message('note_on', channel=9, note=36, velocity=0, time=120),
    Message('note_on', channel=9, note=41, velocity=0, time=0),
    Message('note_on', channel=9, note=43, velocity=0, time=0),
    Message('note_on', channel=9, note=43, velocity=100, time=360),
    Message('note_on', channel=9, note=41, velocity=100, time=0),
    Message('note_on', channel=9, note=36, velocity=100, time=0),
    Message('note_on', channel=9, note=36, velocity=0, time=120),
    Message('note_on', channel=9, note=41, velocity=0, time=0),
    Message('note_on', channel=9, note=43, velocity=0, time=0),
    Message('note_on', channel=9, note=43, velocity=100, time=360),
    Message('note_on', channel=9, note=41, velocity=100, time=0),
    Message('note_on', channel=9, note=36, velocity=100, time=0),
    Message('note_on', channel=9, note=36, velocity=0, time=120),
    Message('note_on', channel=9, note=41, velocity=0, time=0),
    Message('note_on', channel=9, note=43, velocity=0, time=0),
    Message('note_on', channel=9, note=43, velocity=100, time=360),
    Message('note_on', channel=9, note=41, velocity=100, time=0),
    Message('note_on', channel=9, note=36, velocity=100, time=0),
    Message('note_on', channel=9, note=36, velocity=0, time=120),
    Message('note_on', channel=9, note=41, velocity=0, time=0),
    Message('note_on', channel=9, note=43, velocity=0, time=0),
    Message('note_on', channel=9, note=43, velocity=100, time=360),
    Message('note_on', channel=9, note=41, velocity=100, time=0),
    Message('note_on', channel=9, note=36, velocity=100, time=0),
    Message('note_on', channel=9, note=36, velocity=0, time=120),
    Message('note_on', channel=9, note=41, velocity=0, time=0),
    Message('note_on', channel=9, note=43, velocity=0, time=0),
    Message('note_on', channel=9, note=43, velocity=100, time=360),
    Message('note_on', channel=9, note=41, velocity=100, time=0),
    Message('note_on', channel=9, note=36, velocity=100, time=0),
    Message('note_on', channel=9, note=36, velocity=0, time=120),
    Message('note_on', channel=9, note=41, velocity=0, time=0),
    Message('note_on', channel=9, note=43, velocity=0, time=0),
    Message('note_on', channel=9, note=43, velocity=100, time=360),
    Message('note_on', channel=9, note=41, velocity=100, time=0),
    Message('note_on', channel=9, note=36, velocity=100, time=0),
    Message('note_on', channel=9, note=36, velocity=0, time=120),
    Message('note_on', channel=9, note=41, velocity=0, time=0),
    Message('note_on', channel=9, note=43, velocity=0, time=0),
    Message('note_on', channel=9, note=43, velocity=100, time=360),
    Message('note_on', channel=9, note=41, velocity=100, time=0),
    Message('note_on', channel=9, note=36, velocity=100, time=0),
    Message('note_on', channel=9, note=36, velocity=0, time=120),
    Message('note_on', channel=9, note=41, velocity=0, time=0),
    Message('note_on', channel=9, note=43, velocity=0, time=0),
    Message('note_on', channel=9, note=43, velocity=100, time=360),
    Message('note_on', channel=9, note=41, velocity=100, time=0),
    Message('note_on', channel=9, note=36, velocity=100, time=0),
    Message('note_on', channel=9, note=36, velocity=0, time=120),
    Message('note_on', channel=9, note=41, velocity=0, time=0),
    Message('note_on', channel=9, note=43, velocity=0, time=0),
    Message('note_on', channel=9, note=43, velocity=100, time=360),
    Message('note_on', channel=9, note=41, velocity=100, time=0),
    Message('note_on', channel=9, note=36, velocity=100, time=0),
    Message('note_on', channel=9, note=36, velocity=0, time=120),
    Message('note_on', channel=9, note=41, velocity=0, time=0),
    Message('note_on', channel=9, note=43, velocity=0, time=0),
    Message('note_on', channel=9, note=43, velocity=100, time=360),
    Message('note_on', channel=9, note=41, velocity=100, time=0),
    Message('note_on', channel=9, note=36, velocity=100, time=0),
    Message('note_on', channel=9, note=36, velocity=0, time=120),
    Message('note_on', channel=9, note=41, velocity=0, time=0),
    Message('note_on', channel=9, note=43, velocity=0, time=0),
    Message('note_on', channel=9, note=43, velocity=100, time=360),
    Message('note_on', channel=9, note=41, velocity=100, time=0),
    Message('note_on', channel=9, note=36, velocity=100, time=0),
    Message('note_on', channel=9, note=36, velocity=0, time=120),
    Message('note_on', channel=9, note=41, velocity=0, time=0),
    Message('note_on', channel=9, note=43, velocity=0, time=0),
    Message('note_on', channel=9, note=43, velocity=100, time=360),
    Message('note_on', channel=9, note=41, velocity=100, time=0),
    Message('note_on', channel=9, note=36, velocity=100, time=0),
    Message('note_on', channel=9, note=36, velocity=0, time=120),
    Message('note_on', channel=9, note=41, velocity=0, time=0),
    Message('note_on', channel=9, note=43, velocity=0, time=0),
    Message('note_on', channel=9, note=43, velocity=100, time=360),
    Message('note_on', channel=9, note=41, velocity=100, time=0),
    Message('note_on', channel=9, note=36, velocity=100, time=0),
    Message('note_on', channel=9, note=36, velocity=0, time=120),
    Message('note_on', channel=9, note=41, velocity=0, time=0),
    Message('note_on', channel=9, note=43, velocity=0, time=0),
    Message('note_on', channel=9, note=43, velocity=100, time=360),
    Message('note_on', channel=9, note=41, velocity=100, time=0),
    Message('note_on', channel=9, note=36, velocity=100, time=0),
    Message('note_on', channel=9, note=36, velocity=0, time=120),
    Message('note_on', channel=9, note=41, velocity=0, time=0),
    Message('note_on', channel=9, note=43, velocity=0, time=0),
    Message('note_on', channel=9, note=43, velocity=100, time=360),
    Message('note_on', channel=9, note=41, velocity=100, time=0),
    Message('note_on', channel=9, note=36, velocity=100, time=0),
    Message('note_on', channel=9, note=36, velocity=0, time=120),
    Message('note_on', channel=9, note=41, velocity=0, time=0),
    Message('note_on', channel=9, note=43, velocity=0, time=0),
    Message('note_on', channel=9, note=43, velocity=100, time=360),
    Message('note_on', channel=9, note=41, velocity=100, time=0),
    Message('note_on', channel=9, note=36, velocity=100, time=0),
    Message('note_on', channel=9, note=36, velocity=0, time=120),
    Message('note_on', channel=9, note=41, velocity=0, time=0),
    Message('note_on', channel=9, note=43, velocity=0, time=0),
    Message('note_on', channel=9, note=43, velocity=100, time=360),
    Message('note_on', channel=9, note=41, velocity=100, time=0),
    Message('note_on', channel=9, note=36, velocity=100, time=0),
    Message('note_on', channel=9, note=36, velocity=0, time=120),
    Message('note_on', channel=9, note=41, velocity=0, time=0),
    Message('note_on', channel=9, note=43, velocity=0, time=0),
    Message('note_on', channel=9, note=43, velocity=100, time=360),
    Message('note_on', channel=9, note=41, velocity=100, time=0),
    Message('note_on', channel=9, note=36, velocity=100, time=0),
    Message('note_on', channel=9, note=36, velocity=0, time=120),
    Message('note_on', channel=9, note=41, velocity=0, time=0),
    Message('note_on', channel=9, note=43, velocity=0, time=0),
    Message('note_on', channel=9, note=40, velocity=100, time=360),
    Message('note_on', channel=9, note=41, velocity=100, time=0),
    Message('note_on', channel=9, note=41, velocity=0, time=120),
    Message('note_on', channel=9, note=40, velocity=0, time=0),
    Message('note_on', channel=9, note=36, velocity=100, time=0),
    Message('note_on', channel=9, note=36, velocity=0, time=120),
    Message('note_on', channel=9, note=40, velocity=100, time=0),
    Message('note_on', channel=9, note=41, velocity=100, time=0),
    Message('note_on', channel=9, note=41, velocity=0, time=120),
    Message('note_on', channel=9, note=40, velocity=0, time=0),
    Message('note_on', channel=9, note=36, velocity=100, time=0),
    Message('note_on', channel=9, note=36, velocity=0, time=120),
    Message('note_on', channel=9, note=40, velocity=100, time=0),
    Message('note_on', channel=9, note=41, velocity=100, time=0),
    Message('note_on', channel=9, note=41, velocity=0, time=120),
    Message('note_on', channel=9, note=40, velocity=0, time=0),
    Message('note_on', channel=9, note=36, velocity=100, time=0),
    Message('note_on', channel=9, note=36, velocity=0, time=120),
    Message('note_on', channel=9, note=45, velocity=100, time=0),
    Message('note_on', channel=9, note=43, velocity=100, time=0),
    Message('note_on', channel=9, note=43, velocity=0, time=120),
    Message('note_on', channel=9, note=45, velocity=0, time=0),
    Message('note_on', channel=9, note=36, velocity=100, time=120),
    Message('note_on', channel=9, note=49, velocity=100, time=0),
    Message('note_on', channel=9, note=49, velocity=0, time=120),
    Message('note_on', channel=9, note=42, velocity=100, time=120),
    Message('note_on', channel=9, note=42, velocity=0, time=120),
    Message('note_on', channel=9, note=36, velocity=0, time=120),
    Message('note_on', channel=9, note=40, velocity=100, time=0),
    Message('note_on', channel=9, note=57, velocity=100, time=0),
    Message('note_on', channel=9, note=57, velocity=0, time=120),
    Message('note_on', channel=9, note=42, velocity=100, time=120),
    Message('note_on', channel=9, note=42, velocity=0, time=120),
    Message('note_on', channel=9, note=40, velocity=0, time=120),
    Message('note_on', channel=9, note=36, velocity=100, time=0),
    Message('note_on', channel=9, note=42, velocity=100, time=0),
    Message('note_on', channel=9, note=42, velocity=0, time=120),
    Message('note_on', channel=9, note=36, velocity=0, time=120),
    Message('note_on', channel=9, note=36, velocity=100, time=0),
    Message('note_on', channel=9, note=42, velocity=100, time=0),
    Message('note_on', channel=9, note=42, velocity=0, time=120),
    Message('note_on', channel=9, note=36, velocity=0, time=120),
    Message('note_on', channel=9, note=40, velocity=100, time=0),
    Message('note_on', channel=9, note=42, velocity=100, time=0),
    Message('note_on', channel=9, note=42, velocity=0, time=120),
    Message('note_on', channel=9, note=42, velocity=100, time=120),
    Message('note_on', channel=9, note=42, velocity=0, time=120),
    Message('note_on', channel=9, note=40, velocity=0, time=120),
    Message('note_on', channel=9, note=36, velocity=100, time=0),
    Message('note_on', channel=9, note=42, velocity=100, time=0),
    Message('note_on', channel=9, note=42, velocity=0, time=120),
    Message('note_on', channel=9, note=36, velocity=0, time=0),
    Message('note_on', channel=9, note=40, velocity=100, time=0),
    Message('note_on', channel=9, note=40, velocity=0, time=120),
    Message('note_on', channel=9, note=36, velocity=100, time=0),
    Message('note_on', channel=9, note=42, velocity=100, time=0),
    Message('note_on', channel=9, note=42, velocity=0, time=120),
    Message('note_on', channel=9, note=36, velocity=0, time=0),
    Message('note_on', channel=9, note=36, velocity=100, time=0),
    Message('note_on', channel=9, note=36, velocity=0, time=120),
    Message('note_on', channel=9, note=40, velocity=100, time=0),
    Message('note_on', channel=9, note=42, velocity=100, time=0),
    Message('note_on', channel=9, note=42, velocity=0, time=120),
    Message('note_on', channel=9, note=40, velocity=0, time=0),
    Message('note_on', channel=9, note=36, velocity=100, time=0),
    Message('note_on', channel=9, note=36, velocity=0, time=120),
    Message('note_on', channel=9, note=40, velocity=100, time=0),
    Message('note_on', channel=9, note=42, velocity=100, time=0),
    Message('note_on', channel=9, note=42, velocity=0, time=120),
    Message('note_on', channel=9, note=40, velocity=0, time=114),
    Message('note_on', channel=9, note=36, velocity=100, time=6),
    Message('note_on', channel=9, note=42, velocity=100, time=0),
    Message('note_on', channel=9, note=42, velocity=0, time=120),
    Message('note_on', channel=9, note=36, velocity=0, time=120),
    Message('note_on', channel=9, note=36, velocity=100, time=0),
    Message('note_on', channel=9, note=42, velocity=100, time=0),
    Message('note_on', channel=9, note=42, velocity=0, time=120),
    Message('note_on', channel=9, note=36, velocity=0, time=120),
    Message('note_on', channel=9, note=40, velocity=100, time=0),
    Message('note_on', channel=9, note=57, velocity=100, time=0),
    Message('note_on', channel=9, note=57, velocity=0, time=120),
    Message('note_on', channel=9, note=42, velocity=100, time=120),
    Message('note_on', channel=9, note=42, velocity=0, time=120),
    Message('note_on', channel=9, note=40, velocity=0, time=120),
    Message('note_on', channel=9, note=36, velocity=100, time=0),
    Message('note_on', channel=9, note=49, velocity=100, time=0),
    Message('note_on', channel=9, note=49, velocity=0, time=120),
    Message('note_on', channel=9, note=42, velocity=100, time=120),
    Message('note_on', channel=9, note=42, velocity=0, time=120),
    Message('note_on', channel=9, note=36, velocity=0, time=120),
    Message('note_on', channel=9, note=40, velocity=100, time=0),
    Message('note_on', channel=9, note=57, velocity=100, time=0),
    Message('note_on', channel=9, note=57, velocity=0, time=120),
    Message('note_on', channel=9, note=42, velocity=100, time=120),
    Message('note_on', channel=9, note=42, velocity=0, time=120),
    Message('note_on', channel=9, note=40, velocity=0, time=120),
    Message('note_on', channel=9, note=36, velocity=100, time=0),
    Message('note_on', channel=9, note=42, velocity=100, time=0),
    Message('note_on', channel=9, note=42, velocity=0, time=120),
    Message('note_on', channel=9, note=36, velocity=0, time=120),
    Message('note_on', channel=9, note=36, velocity=100, time=0),
    Message('note_on', channel=9, note=42, velocity=100, time=0),
    Message('note_on', channel=9, note=42, velocity=0, time=120),
    Message('note_on', channel=9, note=36, velocity=0, time=120),
    Message('note_on', channel=9, note=40, velocity=100, time=0),
    Message('note_on', channel=9, note=42, velocity=100, time=0),
    Message('note_on', channel=9, note=42, velocity=0, time=120),
    Message('note_on', channel=9, note=42, velocity=100, time=120),
    Message('note_on', channel=9, note=42, velocity=0, time=120),
    Message('note_on', channel=9, note=40, velocity=0, time=120),
    Message('note_on', channel=9, note=36, velocity=100, time=0),
    Message('note_on', channel=9, note=42, velocity=100, time=0),
    Message('note_on', channel=9, note=42, velocity=0, time=120),
    Message('note_on', channel=9, note=36, velocity=0, time=0),
    Message('note_on', channel=9, note=40, velocity=100, time=0),
    Message('note_on', channel=9, note=40, velocity=0, time=120),
    Message('note_on', channel=9, note=36, velocity=100, time=0),
    Message('note_on', channel=9, note=42, velocity=100, time=0),
    Message('note_on', channel=9, note=42, velocity=0, time=120),
    Message('note_on', channel=9, note=36, velocity=0, time=0),
    Message('note_on', channel=9, note=36, velocity=100, time=0),
    Message('note_on', channel=9, note=36, velocity=0, time=120),
    Message('note_on', channel=9, note=40, velocity=100, time=0),
    Message('note_on', channel=9, note=42, velocity=100, time=0),
    Message('note_on', channel=9, note=42, velocity=0, time=120),
    Message('note_on', channel=9, note=40, velocity=0, time=0),
    Message('note_on', channel=9, note=36, velocity=100, time=0),
    Message('note_on', channel=9, note=36, velocity=0, time=120),
    Message('note_on', channel=9, note=40, velocity=100, time=0),
    Message('note_on', channel=9, note=42, velocity=100, time=0),
    Message('note_on', channel=9, note=42, velocity=0, time=120),
    Message('note_on', channel=9, note=40, velocity=0, time=114),
    Message('note_on', channel=9, note=36, velocity=100, time=6),
    Message('note_on', channel=9, note=42, velocity=100, time=0),
    Message('note_on', channel=9, note=42, velocity=0, time=120),
    Message('note_on', channel=9, note=36, velocity=0, time=120),
    Message('note_on', channel=9, note=36, velocity=100, time=0),
    Message('note_on', channel=9, note=42, velocity=100, time=0),
    Message('note_on', channel=9, note=42, velocity=0, time=120),
    Message('note_on', channel=9, note=36, velocity=0, time=120),
    Message('note_on', channel=9, note=40, velocity=100, time=0),
    Message('note_on', channel=9, note=57, velocity=100, time=0),
    Message('note_on', channel=9, note=57, velocity=0, time=120),
    Message('note_on', channel=9, note=42, velocity=100, time=120),
    Message('note_on', channel=9, note=42, velocity=0, time=120),
    Message('note_on', channel=9, note=40, velocity=0, time=120),
    Message('note_on', channel=9, note=36, velocity=100, time=0),
    Message('note_on', channel=9, note=49, velocity=100, time=0),
    Message('note_on', channel=9, note=49, velocity=0, time=120),
    Message('note_on', channel=9, note=42, velocity=100, time=120),
    Message('note_on', channel=9, note=42, velocity=0, time=120),
    Message('note_on', channel=9, note=36, velocity=0, time=120),
    Message('note_on', channel=9, note=40, velocity=100, time=0),
    Message('note_on', channel=9, note=57, velocity=100, time=0),
    Message('note_on', channel=9, note=57, velocity=0, time=120),
    Message('note_on', channel=9, note=42, velocity=100, time=120),
    Message('note_on', channel=9, note=42, velocity=0, time=120),
    Message('note_on', channel=9, note=40, velocity=0, time=120),
    Message('note_on', channel=9, note=36, velocity=100, time=0),
    Message('note_on', channel=9, note=42, velocity=100, time=0),
    Message('note_on', channel=9, note=42, velocity=0, time=120),
    Message('note_on', channel=9, note=36, velocity=0, time=120),
    Message('note_on', channel=9, note=36, velocity=100, time=0),
    Message('note_on', channel=9, note=42, velocity=100, time=0),
    Message('note_on', channel=9, note=42, velocity=0, time=120),
    Message('note_on', channel=9, note=36, velocity=0, time=120),
    Message('note_on', channel=9, note=40, velocity=100, time=0),
    Message('note_on', channel=9, note=42, velocity=100, time=0),
    Message('note_on', channel=9, note=42, velocity=0, time=120),
    Message('note_on', channel=9, note=42, velocity=100, time=120),
    Message('note_on', channel=9, note=42, velocity=0, time=120),
    Message('note_on', channel=9, note=40, velocity=0, time=120),
    Message('note_on', channel=9, note=36, velocity=100, time=0),
    Message('note_on', channel=9, note=42, velocity=100, time=0),
    Message('note_on', channel=9, note=42, velocity=0, time=120),
    Message('note_on', channel=9, note=36, velocity=0, time=0),
    Message('note_on', channel=9, note=40, velocity=100, time=0),
    Message('note_on', channel=9, note=40, velocity=0, time=120),
    Message('note_on', channel=9, note=36, velocity=100, time=0),
    Message('note_on', channel=9, note=42, velocity=100, time=0),
    Message('note_on', channel=9, note=42, velocity=0, time=120),
    Message('note_on', channel=9, note=36, velocity=0, time=0),
    Message('note_on', channel=9, note=36, velocity=100, time=0),
    Message('note_on', channel=9, note=36, velocity=0, time=120),
    Message('note_on', channel=9, note=40, velocity=100, time=0),
    Message('note_on', channel=9, note=42, velocity=100, time=0),
    Message('note_on', channel=9, note=42, velocity=0, time=120),
    Message('note_on', channel=9, note=40, velocity=0, time=0),
    Message('note_on', channel=9, note=36, velocity=100, time=0),
    Message('note_on', channel=9, note=36, velocity=0, time=120),
    Message('note_on', channel=9, note=40, velocity=100, time=0),
    Message('note_on', channel=9, note=42, velocity=100, time=0),
    Message('note_on', channel=9, note=42, velocity=0, time=120),
    Message('note_on', channel=9, note=40, velocity=0, time=114),
    Message('note_on', channel=9, note=36, velocity=100, time=6),
    Message('note_on', channel=9, note=42, velocity=100, time=0),
    Message('note_on', channel=9, note=42, velocity=0, time=120),
    Message('note_on', channel=9, note=36, velocity=0, time=120),
    Message('note_on', channel=9, note=36, velocity=100, time=0),
    Message('note_on', channel=9, note=42, velocity=100, time=0),
    Message('note_on', channel=9, note=42, velocity=0, time=120),
    Message('note_on', channel=9, note=36, velocity=0, time=120),
    Message('note_on', channel=9, note=40, velocity=100, time=0),
    Message('note_on', channel=9, note=57, velocity=100, time=0),
    Message('note_on', channel=9, note=57, velocity=0, time=120),
    Message('note_on', channel=9, note=42, velocity=100, time=120),
    Message('note_on', channel=9, note=42, velocity=0, time=120),
    Message('note_on', channel=9, note=40, velocity=0, time=120),
    Message('note_on', channel=9, note=36, velocity=100, time=0),
    Message('note_on', channel=9, note=49, velocity=100, time=0),
    Message('note_on', channel=9, note=49, velocity=0, time=120),
    Message('note_on', channel=9, note=42, velocity=100, time=120),
    Message('note_on', channel=9, note=42, velocity=0, time=120),
    Message('note_on', channel=9, note=36, velocity=0, time=120),
    Message('note_on', channel=9, note=40, velocity=100, time=0),
    Message('note_on', channel=9, note=57, velocity=100, time=0),
    Message('note_on', channel=9, note=57, velocity=0, time=120),
    Message('note_on', channel=9, note=42, velocity=100, time=120),
    Message('note_on', channel=9, note=42, velocity=0, time=120),
    Message('note_on', channel=9, note=40, velocity=0, time=120),
    Message('note_on', channel=9, note=36, velocity=100, time=0),
    Message('note_on', channel=9, note=42, velocity=100, time=0),
    Message('note_on', channel=9, note=42, velocity=0, time=120),
    Message('note_on', channel=9, note=36, velocity=0, time=120),
    Message('note_on', channel=9, note=36, velocity=100, time=0),
    Message('note_on', channel=9, note=42, velocity=100, time=0),
    Message('note_on', channel=9, note=42, velocity=0, time=120),
    Message('note_on', channel=9, note=36, velocity=0, time=120),
    Message('note_on', channel=9, note=40, velocity=100, time=0),
    Message('note_on', channel=9, note=42, velocity=100, time=0),
    Message('note_on', channel=9, note=42, velocity=0, time=120),
    Message('note_on', channel=9, note=42, velocity=100, time=120),
    Message('note_on', channel=9, note=42, velocity=0, time=120),
    Message('note_on', channel=9, note=40, velocity=0, time=120),
    Message('note_on', channel=9, note=36, velocity=100, time=0),
    Message('note_on', channel=9, note=42, velocity=100, time=0),
    Message('note_on', channel=9, note=42, velocity=0, time=120),
    Message('note_on', channel=9, note=36, velocity=0, time=0),
    Message('note_on', channel=9, note=40, velocity=100, time=0),
    Message('note_on', channel=9, note=40, velocity=0, time=120),
    Message('note_on', channel=9, note=36, velocity=100, time=0),
    Message('note_on', channel=9, note=42, velocity=100, time=0),
    Message('note_on', channel=9, note=42, velocity=0, time=120),
    Message('note_on', channel=9, note=36, velocity=0, time=0),
    Message('note_on', channel=9, note=36, velocity=100, time=0),
    Message('note_on', channel=9, note=36, velocity=0, time=120),
    Message('note_on', channel=9, note=40, velocity=100, time=0),
    Message('note_on', channel=9, note=42, velocity=100, time=0),
    Message('note_on', channel=9, note=42, velocity=0, time=120),
    Message('note_on', channel=9, note=40, velocity=0, time=0),
    Message('note_on', channel=9, note=36, velocity=100, time=0),
    Message('note_on', channel=9, note=36, velocity=0, time=120),
    Message('note_on', channel=9, note=40, velocity=100, time=0),
    Message('note_on', channel=9, note=42, velocity=100, time=0),
    Message('note_on', channel=9, note=42, velocity=0, time=120),
    Message('note_on', channel=9, note=40, velocity=0, time=114),
    Message('note_on', channel=9, note=36, velocity=100, time=6),
    Message('note_on', channel=9, note=42, velocity=100, time=0),
    Message('note_on', channel=9, note=42, velocity=0, time=120),
    Message('note_on', channel=9, note=36, velocity=0, time=120),
    Message('note_on', channel=9, note=36, velocity=100, time=0),
    Message('note_on', channel=9, note=42, velocity=100, time=0),
    Message('note_on', channel=9, note=42, velocity=0, time=120),
    Message('note_on', channel=9, note=36, velocity=0, time=120),
    Message('note_on', channel=9, note=40, velocity=100, time=0),
    Message('note_on', channel=9, note=57, velocity=100, time=0),
    Message('note_on', channel=9, note=57, velocity=0, time=120),
    Message('note_on', channel=9, note=42, velocity=100, time=120),
    Message('note_on', channel=9, note=42, velocity=0, time=120),
    Message('note_on', channel=9, note=40, velocity=0, time=120),
    Message('note_on', channel=9, note=36, velocity=100, time=0),
    Message('note_on', channel=9, note=49, velocity=100, time=0),
    Message('note_on', channel=9, note=49, velocity=0, time=120),
    Message('note_on', channel=9, note=42, velocity=100, time=120),
    Message('note_on', channel=9, note=42, velocity=0, time=120),
    Message('note_on', channel=9, note=36, velocity=0, time=120),
    Message('note_on', channel=9, note=40, velocity=100, time=0),
    Message('note_on', channel=9, note=57, velocity=100, time=0),
    Message('note_on', channel=9, note=57, velocity=0, time=120),
    Message('note_on', channel=9, note=42, velocity=100, time=120),
    Message('note_on', channel=9, note=42, velocity=0, time=120),
    Message('note_on', channel=9, note=40, velocity=0, time=120),
    Message('note_on', channel=9, note=36, velocity=100, time=0),
    Message('note_on', channel=9, note=42, velocity=100, time=0),
    Message('note_on', channel=9, note=42, velocity=0, time=120),
    Message('note_on', channel=9, note=36, velocity=0, time=120),
    Message('note_on', channel=9, note=36, velocity=100, time=0),
    Message('note_on', channel=9, note=42, velocity=100, time=0),
    Message('note_on', channel=9, note=42, velocity=0, time=120),
    Message('note_on', channel=9, note=36, velocity=0, time=120),
    Message('note_on', channel=9, note=40, velocity=100, time=0),
    Message('note_on', channel=9, note=42, velocity=100, time=0),
    Message('note_on', channel=9, note=42, velocity=0, time=120),
    Message('note_on', channel=9, note=42, velocity=100, time=120),
    Message('note_on', channel=9, note=42, velocity=0, time=120),
    Message('note_on', channel=9, note=40, velocity=0, time=120),
    Message('note_on', channel=9, note=36, velocity=100, time=0),
    Message('note_on', channel=9, note=42, velocity=100, time=0),
    Message('note_on', channel=9, note=42, velocity=0, time=120),
    Message('note_on', channel=9, note=36, velocity=0, time=0),
    Message('note_on', channel=9, note=40, velocity=100, time=0),
    Message('note_on', channel=9, note=40, velocity=0, time=120),
    Message('note_on', channel=9, note=36, velocity=100, time=0),
    Message('note_on', channel=9, note=42, velocity=100, time=0),
    Message('note_on', channel=9, note=42, velocity=0, time=120),
    Message('note_on', channel=9, note=36, velocity=0, time=0),
    Message('note_on', channel=9, note=36, velocity=100, time=0),
    Message('note_on', channel=9, note=36, velocity=0, time=120),
    Message('note_on', channel=9, note=40, velocity=100, time=0),
    Message('note_on', channel=9, note=42, velocity=100, time=0),
    Message('note_on', channel=9, note=42, velocity=0, time=120),
    Message('note_on', channel=9, note=40, velocity=0, time=0),
    Message('note_on', channel=9, note=36, velocity=100, time=0),
    Message('note_on', channel=9, note=36, velocity=0, time=120),
    Message('note_on', channel=9, note=40, velocity=100, time=0),
    Message('note_on', channel=9, note=42, velocity=100, time=0),
    Message('note_on', channel=9, note=42, velocity=0, time=120),
    Message('note_on', channel=9, note=40, velocity=0, time=114),
    Message('note_on', channel=9, note=36, velocity=100, time=6),
    Message('note_on', channel=9, note=42, velocity=100, time=0),
    Message('note_on', channel=9, note=42, velocity=0, time=120),
    Message('note_on', channel=9, note=36, velocity=0, time=120),
    Message('note_on', channel=9, note=36, velocity=100, time=0),
    Message('note_on', channel=9, note=42, velocity=100, time=0),
    Message('note_on', channel=9, note=42, velocity=0, time=120),
    Message('note_on', channel=9, note=36, velocity=0, time=120),
    Message('note_on', channel=9, note=40, velocity=100, time=0),
    Message('note_on', channel=9, note=57, velocity=100, time=0),
    Message('note_on', channel=9, note=57, velocity=0, time=120),
    Message('note_on', channel=9, note=46, velocity=100, time=120),
    Message('note_on', channel=9, note=46, velocity=0, time=120),
    Message('note_on', channel=9, note=40, velocity=0, time=120),
    Message('note_on', channel=9, note=36, velocity=100, time=0),
    Message('note_on', channel=9, note=49, velocity=100, time=0),
    Message('note_on', channel=9, note=49, velocity=0, time=120),
    Message('note_on', channel=9, note=42, velocity=100, time=120),
    Message('note_on', channel=9, note=42, velocity=0, time=120),
    Message('note_on', channel=9, note=36, velocity=0, time=120),
    Message('note_on', channel=9, note=40, velocity=100, time=0),
    Message('note_on', channel=9, note=57, velocity=100, time=0),
    Message('note_on', channel=9, note=57, velocity=0, time=120),
    Message('note_on', channel=9, note=42, velocity=100, time=120),
    Message('note_on', channel=9, note=42, velocity=0, time=120),
    Message('note_on', channel=9, note=40, velocity=0, time=120),
    Message('note_on', channel=9, note=36, velocity=100, time=0),
    Message('note_on', channel=9, note=42, velocity=100, time=0),
    Message('note_on', channel=9, note=42, velocity=0, time=120),
    Message('note_on', channel=9, note=36, velocity=0, time=120),
    Message('note_on', channel=9, note=36, velocity=100, time=0),
    Message('note_on', channel=9, note=42, velocity=100, time=0),
    Message('note_on', channel=9, note=42, velocity=0, time=120),
    Message('note_on', channel=9, note=36, velocity=0, time=120),
    Message('note_on', channel=9, note=40, velocity=100, time=0),
    Message('note_on', channel=9, note=42, velocity=100, time=0),
    Message('note_on', channel=9, note=42, velocity=0, time=120),
    Message('note_on', channel=9, note=42, velocity=100, time=120),
    Message('note_on', channel=9, note=42, velocity=0, time=120),
    Message('note_on', channel=9, note=40, velocity=0, time=120),
    Message('note_on', channel=9, note=36, velocity=100, time=0),
    Message('note_on', channel=9, note=42, velocity=100, time=0),
    Message('note_on', channel=9, note=42, velocity=0, time=120),
    Message('note_on', channel=9, note=36, velocity=0, time=0),
    Message('note_on', channel=9, note=40, velocity=100, time=0),
    Message('note_on', channel=9, note=40, velocity=0, time=120),
    Message('note_on', channel=9, note=36, velocity=100, time=0),
    Message('note_on', channel=9, note=42, velocity=100, time=0),
    Message('note_on', channel=9, note=42, velocity=0, time=120),
    Message('note_on', channel=9, note=36, velocity=0, time=0),
    Message('note_on', channel=9, note=36, velocity=100, time=0),
    Message('note_on', channel=9, note=36, velocity=0, time=120),
    Message('note_on', channel=9, note=40, velocity=100, time=0),
    Message('note_on', channel=9, note=42, velocity=100, time=0),
    Message('note_on', channel=9, note=42, velocity=0, time=120),
    Message('note_on', channel=9, note=40, velocity=0, time=0),
    Message('note_on', channel=9, note=36, velocity=100, time=0),
    Message('note_on', channel=9, note=36, velocity=0, time=120),
    Message('note_on', channel=9, note=40, velocity=100, time=0),
    Message('note_on', channel=9, note=42, velocity=100, time=0),
    Message('note_on', channel=9, note=42, velocity=0, time=120),
    Message('note_on', channel=9, note=40, velocity=0, time=114),
    Message('note_on', channel=9, note=42, velocity=100, time=6),
    Message('note_on', channel=9, note=40, velocity=100, time=0),
    Message('note_on', channel=9, note=42, velocity=0, time=120),
    Message('note_on', channel=9, note=36, velocity=100, time=0),
    Message('note_on', channel=9, note=40, velocity=0, time=120),
    Message('note_on', channel=9, note=42, velocity=100, time=0),
    Message('note_on', channel=9, note=40, velocity=100, time=0),
    Message('note_on', channel=9, note=42, velocity=0, time=120),
    Message('note_on', channel=9, note=36, velocity=0, time=0),
    Message('note_on', channel=9, note=36, velocity=100, time=0),
    Message('note_on', channel=9, note=40, velocity=0, time=120),
    Message('note_on', channel=9, note=40, velocity=100, time=0),
    Message('note_on', channel=9, note=42, velocity=100, time=0),
    Message('note_on', channel=9, note=42, velocity=0, time=120),
    Message('note_on', channel=9, note=36, velocity=0, time=0),
    Message('note_on', channel=9, note=36, velocity=100, time=0),
    Message('note_on', channel=9, note=46, velocity=100, time=120),
    Message('note_on', channel=9, note=40, velocity=100, time=0),
    Message('note_on', channel=9, note=46, velocity=0, time=120),
    Message('note_on', channel=9, note=36, velocity=0, time=0),
    Message('note_on', channel=9, note=40, velocity=0, time=120),
    Message('note_on', channel=9, note=40, velocity=0, time=0),
    Message('note_on', channel=9, note=36, velocity=100, time=0),
    Message('note_on', channel=9, note=49, velocity=100, time=0),
    Message('note_on', channel=9, note=49, velocity=0, time=120),
    Message('note_on', channel=9, note=36, velocity=0, time=120),
    Message('note_on', channel=9, note=36, velocity=100, time=0),
    Message('note_on', channel=9, note=57, velocity=100, time=0),
    Message('note_on', channel=9, note=57, velocity=0, time=120),
    Message('note_on', channel=9, note=36, velocity=0, time=120),
    Message('note_on', channel=9, note=40, velocity=100, time=0),
    Message('note_on', channel=9, note=55, velocity=100, time=0),
    Message('note_on', channel=9, note=40, velocity=0, time=60),
    Message('note_on', channel=9, note=55, velocity=0, time=60),
    Message('note_on', channel=9, note=55, velocity=100, time=120),
    Message('note_on', channel=9, note=55, velocity=0, time=120),
    Message('note_on', channel=9, note=36, velocity=100, time=120),
    Message('note_on', channel=9, note=55, velocity=100, time=0),
    Message('note_on', channel=9, note=36, velocity=0, time=60),
    Message('note_on', channel=9, note=55, velocity=0, time=60),
    Message('note_on', channel=9, note=40, velocity=100, time=0),
    Message('note_on', channel=9, note=40, velocity=0, time=60),
    Message('note_on', channel=9, note=55, velocity=100, time=60),
    Message('note_on', channel=9, note=55, velocity=0, time=120),
    Message('note_on', channel=9, note=36, velocity=100, time=0),
    Message('note_on', channel=9, note=40, velocity=100, time=120),
    Message('note_on', channel=9, note=55, velocity=100, time=0),
    Message('note_on', channel=9, note=55, velocity=0, time=120),
    Message('note_on', channel=9, note=36, velocity=0, time=0),
    Message('note_on', channel=9, note=40, velocity=0, time=120),
    Message('note_on', channel=9, note=55, velocity=100, time=0),
    Message('note_on', channel=9, note=55, velocity=0, time=120),
    Message('note_on', channel=9, note=40, velocity=100, time=0),
    Message('note_on', channel=9, note=36, velocity=100, time=120),
    Message('note_on', channel=9, note=55, velocity=100, time=0),
    Message('note_on', channel=9, note=55, velocity=0, time=120),
    Message('note_on', channel=9, note=40, velocity=0, time=0),
    Message('note_on', channel=9, note=36, velocity=0, time=120),
    Message('note_on', channel=9, note=36, velocity=100, time=0),
    Message('note_on', channel=9, note=55, velocity=100, time=0),
    Message('note_on', channel=9, note=55, velocity=0, time=120),
    Message('note_on', channel=9, note=36, velocity=0, time=120),
    Message('note_on', channel=9, note=40, velocity=100, time=0),
    Message('note_on', channel=9, note=55, velocity=100, time=0),
    Message('note_on', channel=9, note=40, velocity=0, time=60),
    Message('note_on', channel=9, note=55, velocity=0, time=60),
    Message('note_on', channel=9, note=55, velocity=100, time=120),
    Message('note_on', channel=9, note=55, velocity=0, time=120),
    Message('note_on', channel=9, note=36, velocity=100, time=120),
    Message('note_on', channel=9, note=55, velocity=100, time=0),
    Message('note_on', channel=9, note=55, velocity=0, time=120),
    Message('note_on', channel=9, note=40, velocity=100, time=0),
    Message('note_on', channel=9, note=40, velocity=100, time=60),
    Message('note_on', channel=9, note=36, velocity=0, time=60),
    Message('note_on', channel=9, note=40, velocity=100, time=0),
    Message('note_on', channel=9, note=36, velocity=100, time=0),
    Message('note_on', channel=9, note=55, velocity=100, time=0),
    Message('note_on', channel=9, note=40, velocity=0, time=60),
    Message('note_on', channel=9, note=40, velocity=100, time=0),
    Message('note_on', channel=9, note=40, velocity=0, time=60),
    Message('note_on', channel=9, note=55, velocity=0, time=0),
    Message('note_on', channel=9, note=40, velocity=100, time=0),
    Message('note_on', channel=9, note=40, velocity=100, time=60),
    Message('note_on', channel=9, note=36, velocity=0, time=60),
    Message('note_on', channel=9, note=40, velocity=0, time=0),
    Message('note_on', channel=9, note=40, velocity=100, time=0),
    Message('note_on', channel=9, note=36, velocity=100, time=0),
    Message('note_on', channel=9, note=55, velocity=100, time=0),
    Message('note_on', channel=9, note=40, velocity=0, time=60),
    Message('note_on', channel=9, note=40, velocity=100, time=0),
    Message('note_on', channel=9, note=40, velocity=0, time=60),
    Message('note_on', channel=9, note=55, velocity=0, time=0),
    Message('note_on', channel=9, note=40, velocity=100, time=0),
    Message('note_on', channel=9, note=40, velocity=0, time=60),
    Message('note_on', channel=9, note=40, velocity=100, time=0),
    Message('note_on', channel=9, note=36, velocity=0, time=60),
    Message('note_on', channel=9, note=40, velocity=0, time=0),
    Message('note_on', channel=9, note=40, velocity=100, time=0),
    Message('note_on', channel=9, note=36, velocity=100, time=0),
    Message('note_on', channel=9, note=55, velocity=100, time=0),
    Message('note_on', channel=9, note=40, velocity=0, time=60),
    Message('note_on', channel=9, note=40, velocity=0, time=0),
    Message('note_on', channel=9, note=40, velocity=100, time=0),
    Message('note_on', channel=9, note=40, velocity=0, time=60),
    Message('note_on', channel=9, note=55, velocity=0, time=0),
    Message('note_on', channel=9, note=40, velocity=100, time=0),
    Message('note_on', channel=9, note=40, velocity=100, time=60),
    Message('note_on', channel=9, note=40, velocity=0, time=60),
    Message('note_on', channel=9, note=36, velocity=0, time=0),
    Message('note_on', channel=9, note=36, velocity=100, time=0),
    Message('note_on', channel=9, note=49, velocity=100, time=0),
    Message('note_on', channel=9, note=40, velocity=0, time=60),
    Message('note_on', channel=9, note=40, velocity=0, time=60),
    Message('note_on', channel=9, note=49, velocity=0, time=0),
    Message('note_on', channel=9, note=40, velocity=0, time=60),
    Message('note_on', channel=9, note=36, velocity=0, time=60),
    Message('note_on', channel=9, note=36, velocity=100, time=0),
    Message('note_on', channel=9, note=57, velocity=100, time=0),
    Message('note_on', channel=9, note=57, velocity=0, time=120),
    Message('note_on', channel=9, note=36, velocity=0, time=120),
    Message('note_on', channel=9, note=40, velocity=100, time=0),
    Message('note_on', channel=9, note=55, velocity=100, time=0),
    Message('note_on', channel=9, note=40, velocity=0, time=60),
    Message('note_on', channel=9, note=55, velocity=0, time=60),
    Message('note_on', channel=9, note=55, velocity=100, time=120),
    Message('note_on', channel=9, note=55, velocity=0, time=120),
    Message('note_on', channel=9, note=36, velocity=100, time=120),
    Message('note_on', channel=9, note=55, velocity=100, time=0),
    Message('note_on', channel=9, note=36, velocity=0, time=60),
    Message('note_on', channel=9, note=55, velocity=0, time=60),
    Message('note_on', channel=9, note=40, velocity=100, time=0),
    Message('note_on', channel=9, note=40, velocity=0, time=60),
    Message('note_on', channel=9, note=55, velocity=100, time=60),
    Message('note_on', channel=9, note=55, velocity=0, time=120),
    Message('note_on', channel=9, note=36, velocity=100, time=0),
    Message('note_on', channel=9, note=40, velocity=100, time=120),
    Message('note_on', channel=9, note=55, velocity=100, time=0),
    Message('note_on', channel=9, note=55, velocity=0, time=120),
    Message('note_on', channel=9, note=36, velocity=0, time=0),
    Message('note_on', channel=9, note=40, velocity=0, time=120),
    Message('note_on', channel=9, note=55, velocity=100, time=0),
    Message('note_on', channel=9, note=55, velocity=0, time=120),
    Message('note_on', channel=9, note=40, velocity=100, time=0),
    Message('note_on', channel=9, note=36, velocity=100, time=120),
    Message('note_on', channel=9, note=55, velocity=100, time=0),
    Message('note_on', channel=9, note=55, velocity=0, time=120),
    Message('note_on', channel=9, note=40, velocity=0, time=0),
    Message('note_on', channel=9, note=36, velocity=0, time=120),
    Message('note_on', channel=9, note=36, velocity=100, time=0),
    Message('note_on', channel=9, note=55, velocity=100, time=0),
    Message('note_on', channel=9, note=55, velocity=0, time=120),
    Message('note_on', channel=9, note=36, velocity=0, time=120),
    Message('note_on', channel=9, note=40, velocity=100, time=0),
    Message('note_on', channel=9, note=55, velocity=100, time=0),
    Message('note_on', channel=9, note=40, velocity=0, time=60),
    Message('note_on', channel=9, note=55, velocity=0, time=60),
    Message('note_on', channel=9, note=55, velocity=100, time=120),
    Message('note_on', channel=9, note=55, velocity=0, time=120),
    Message('note_on', channel=9, note=55, velocity=100, time=120),
    Message('note_on', channel=9, note=36, velocity=100, time=0),
    Message('note_on', channel=9, note=36, velocity=0, time=60),
    Message('note_on', channel=9, note=55, velocity=0, time=60),
    Message('note_on', channel=9, note=40, velocity=100, time=0),
    Message('note_on', channel=9, note=40, velocity=0, time=60),
    Message('note_on', channel=9, note=55, velocity=100, time=60),
    Message('note_on', channel=9, note=55, velocity=0, time=120),
    Message('note_on', channel=9, note=36, velocity=100, time=0),
    Message('note_on', channel=9, note=55, velocity=100, time=120),
    Message('note_on', channel=9, note=40, velocity=100, time=0),
    Message('note_on', channel=9, note=55, velocity=0, time=120),
    Message('note_on', channel=9, note=36, velocity=0, time=0),
    Message('note_on', channel=9, note=40, velocity=0, time=120),
    Message('note_on', channel=9, note=55, velocity=100, time=0),
    Message('note_on', channel=9, note=55, velocity=0, time=120),
    Message('note_on', channel=9, note=40, velocity=100, time=0),
    Message('note_on', channel=9, note=36, velocity=100, time=120),
    Message('note_on', channel=9, note=49, velocity=100, time=0),
    Message('note_on', channel=9, note=49, velocity=0, time=120),
    Message('note_on', channel=9, note=40, velocity=0, time=0),
    Message('note_on', channel=9, note=36, velocity=0, time=120),
    Message('note_on', channel=9, note=36, velocity=100, time=0),
    Message('note_on', channel=9, note=57, velocity=100, time=0),
    Message('note_on', channel=9, note=57, velocity=0, time=120),
    Message('note_on', channel=9, note=36, velocity=0, time=120),
    Message('note_on', channel=9, note=40, velocity=100, time=0),
    Message('note_on', channel=9, note=55, velocity=100, time=0),
    Message('note_on', channel=9, note=40, velocity=0, time=60),
    Message('note_on', channel=9, note=55, velocity=0, time=60),
    Message('note_on', channel=9, note=55, velocity=100, time=120),
    Message('note_on', channel=9, note=55, velocity=0, time=120),
    Message('note_on', channel=9, note=36, velocity=100, time=120),
    Message('note_on', channel=9, note=55, velocity=100, time=0),
    Message('note_on', channel=9, note=36, velocity=0, time=60),
    Message('note_on', channel=9, note=55, velocity=0, time=60),
    Message('note_on', channel=9, note=40, velocity=100, time=0),
    Message('note_on', channel=9, note=40, velocity=0, time=60),
    Message('note_on', channel=9, note=55, velocity=100, time=60),
    Message('note_on', channel=9, note=55, velocity=0, time=120),
    Message('note_on', channel=9, note=36, velocity=100, time=0),
    Message('note_on', channel=9, note=40, velocity=100, time=120),
    Message('note_on', channel=9, note=55, velocity=100, time=0),
    Message('note_on', channel=9, note=55, velocity=0, time=120),
    Message('note_on', channel=9, note=36, velocity=0, time=0),
    Message('note_on', channel=9, note=40, velocity=0, time=120),
    Message('note_on', channel=9, note=55, velocity=100, time=0),
    Message('note_on', channel=9, note=55, velocity=0, time=120),
    Message('note_on', channel=9, note=40, velocity=100, time=0),
    Message('note_on', channel=9, note=36, velocity=100, time=120),
    Message('note_on', channel=9, note=49, velocity=100, time=0),
    Message('note_on', channel=9, note=49, velocity=0, time=120),
    Message('note_on', channel=9, note=40, velocity=0, time=0),
    Message('note_on', channel=9, note=36, velocity=0, time=120),
    Message('note_on', channel=9, note=36, velocity=100, time=0),
    Message('note_on', channel=9, note=57, velocity=100, time=0),
    Message('note_on', channel=9, note=57, velocity=0, time=120),
    Message('note_on', channel=9, note=36, velocity=0, time=120),
    Message('note_on', channel=9, note=40, velocity=100, time=0),
    Message('note_on', channel=9, note=49, velocity=100, time=0),
    Message('note_on', channel=9, note=40, velocity=0, time=60),
    Message('note_on', channel=9, note=49, velocity=0, time=60),
    Message('note_on', channel=9, note=40, velocity=100, time=360),
    Message('note_on', channel=9, note=40, velocity=0, time=60),
    Message('note_on', channel=9, note=40, velocity=100, time=60),
    Message('note_on', channel=9, note=40, velocity=0, time=60),
    Message('note_on', channel=9, note=40, velocity=100, time=180),
    Message('note_on', channel=9, note=40, velocity=0, time=240),
    Message('note_on', channel=9, note=40, velocity=100, time=0),
    Message('note_on', channel=9, note=40, velocity=0, time=240),
    Message('note_on', channel=9, note=40, velocity=100, time=0),
    Message('note_on', channel=9, note=36, velocity=100, time=120),
    Message('note_on', channel=9, note=49, velocity=100, time=0),
    Message('note_on', channel=9, note=49, velocity=0, time=120),
    Message('note_on', channel=9, note=40, velocity=0, time=0),
    Message('note_on', channel=9, note=42, velocity=100, time=120),
    Message('note_on', channel=9, note=42, velocity=0, time=120),
    Message('note_on', channel=9, note=36, velocity=0, time=120),
    Message('note_on', channel=9, note=40, velocity=100, time=0),
    Message('note_on', channel=9, note=57, velocity=100, time=0),
    Message('note_on', channel=9, note=57, velocity=0, time=120),
    Message('note_on', channel=9, note=42, velocity=100, time=120),
    Message('note_on', channel=9, note=42, velocity=0, time=120),
    Message('note_on', channel=9, note=40, velocity=0, time=120),
    Message('note_on', channel=9, note=36, velocity=100, time=0),
    Message('note_on', channel=9, note=42, velocity=100, time=0),
    Message('note_on', channel=9, note=42, velocity=0, time=120),
    Message('note_on', channel=9, note=36, velocity=0, time=120),
    Message('note_on', channel=9, note=36, velocity=100, time=0),
    Message('note_on', channel=9, note=42, velocity=100, time=0),
    Message('note_on', channel=9, note=42, velocity=0, time=120),
    Message('note_on', channel=9, note=36, velocity=0, time=120),
    Message('note_on', channel=9, note=40, velocity=100, time=0),
    Message('note_on', channel=9, note=42, velocity=100, time=0),
    Message('note_on', channel=9, note=42, velocity=0, time=120),
    Message('note_on', channel=9, note=42, velocity=100, time=120),
    Message('note_on', channel=9, note=42, velocity=0, time=120),
    Message('note_on', channel=9, note=40, velocity=0, time=120),
    Message('note_on', channel=9, note=36, velocity=100, time=0),
    Message('note_on', channel=9, note=42, velocity=100, time=0),
    Message('note_on', channel=9, note=42, velocity=0, time=120),
    Message('note_on', channel=9, note=36, velocity=0, time=0),
    Message('note_on', channel=9, note=40, velocity=100, time=0),
    Message('note_on', channel=9, note=40, velocity=0, time=120),
    Message('note_on', channel=9, note=36, velocity=100, time=0),
    Message('note_on', channel=9, note=42, velocity=100, time=0),
    Message('note_on', channel=9, note=42, velocity=0, time=120),
    Message('note_on', channel=9, note=36, velocity=0, time=0),
    Message('note_on', channel=9, note=36, velocity=100, time=0),
    Message('note_on', channel=9, note=36, velocity=0, time=120),
    Message('note_on', channel=9, note=40, velocity=100, time=0),
    Message('note_on', channel=9, note=42, velocity=100, time=0),
    Message('note_on', channel=9, note=42, velocity=0, time=120),
    Message('note_on', channel=9, note=40, velocity=0, time=0),
    Message('note_on', channel=9, note=36, velocity=100, time=0),
    Message('note_on', channel=9, note=36, velocity=0, time=120),
    Message('note_on', channel=9, note=40, velocity=100, time=0),
    Message('note_on', channel=9, note=42, velocity=100, time=0),
    Message('note_on', channel=9, note=42, velocity=0, time=120),
    Message('note_on', channel=9, note=40, velocity=0, time=114),
    Message('note_on', channel=9, note=36, velocity=100, time=6),
    Message('note_on', channel=9, note=42, velocity=100, time=0),
    Message('note_on', channel=9, note=42, velocity=0, time=120),
    Message('note_on', channel=9, note=36, velocity=0, time=120),
    Message('note_on', channel=9, note=36, velocity=100, time=0),
    Message('note_on', channel=9, note=42, velocity=100, time=0),
    Message('note_on', channel=9, note=42, velocity=0, time=120),
    Message('note_on', channel=9, note=36, velocity=0, time=120),
    Message('note_on', channel=9, note=40, velocity=100, time=0),
    Message('note_on', channel=9, note=57, velocity=100, time=0),
    Message('note_on', channel=9, note=57, velocity=0, time=120),
    Message('note_on', channel=9, note=42, velocity=100, time=120),
    Message('note_on', channel=9, note=42, velocity=0, time=120),
    Message('note_on', channel=9, note=40, velocity=0, time=120),
    Message('note_on', channel=9, note=36, velocity=100, time=0),
    Message('note_on', channel=9, note=49, velocity=100, time=0),
    Message('note_on', channel=9, note=49, velocity=0, time=120),
    Message('note_on', channel=9, note=42, velocity=100, time=120),
    Message('note_on', channel=9, note=42, velocity=0, time=120),
    Message('note_on', channel=9, note=36, velocity=0, time=120),
    Message('note_on', channel=9, note=40, velocity=100, time=0),
    Message('note_on', channel=9, note=57, velocity=100, time=0),
    Message('note_on', channel=9, note=57, velocity=0, time=120),
    Message('note_on', channel=9, note=42, velocity=100, time=120),
    Message('note_on', channel=9, note=42, velocity=0, time=120),
    Message('note_on', channel=9, note=40, velocity=0, time=120),
    Message('note_on', channel=9, note=36, velocity=100, time=0),
    Message('note_on', channel=9, note=42, velocity=100, time=0),
    Message('note_on', channel=9, note=42, velocity=0, time=120),
    Message('note_on', channel=9, note=36, velocity=0, time=120),
    Message('note_on', channel=9, note=36, velocity=100, time=0),
    Message('note_on', channel=9, note=42, velocity=100, time=0),
    Message('note_on', channel=9, note=42, velocity=0, time=120),
    Message('note_on', channel=9, note=36, velocity=0, time=120),
    Message('note_on', channel=9, note=40, velocity=100, time=0),
    Message('note_on', channel=9, note=42, velocity=100, time=0),
    Message('note_on', channel=9, note=42, velocity=0, time=120),
    Message('note_on', channel=9, note=42, velocity=100, time=120),
    Message('note_on', channel=9, note=42, velocity=0, time=120),
    Message('note_on', channel=9, note=40, velocity=0, time=120),
    Message('note_on', channel=9, note=36, velocity=100, time=0),
    Message('note_on', channel=9, note=42, velocity=100, time=0),
    Message('note_on', channel=9, note=42, velocity=0, time=120),
    Message('note_on', channel=9, note=36, velocity=0, time=0),
    Message('note_on', channel=9, note=40, velocity=100, time=0),
    Message('note_on', channel=9, note=40, velocity=0, time=120),
    Message('note_on', channel=9, note=36, velocity=100, time=0),
    Message('note_on', channel=9, note=42, velocity=100, time=0),
    Message('note_on', channel=9, note=42, velocity=0, time=120),
    Message('note_on', channel=9, note=36, velocity=0, time=0),
    Message('note_on', channel=9, note=36, velocity=100, time=0),
    Message('note_on', channel=9, note=36, velocity=0, time=120),
    Message('note_on', channel=9, note=40, velocity=100, time=0),
    Message('note_on', channel=9, note=42, velocity=100, time=0),
    Message('note_on', channel=9, note=42, velocity=0, time=120),
    Message('note_on', channel=9, note=40, velocity=0, time=0),
    Message('note_on', channel=9, note=36, velocity=100, time=0),
    Message('note_on', channel=9, note=36, velocity=0, time=120),
    Message('note_on', channel=9, note=40, velocity=100, time=0),
    Message('note_on', channel=9, note=42, velocity=100, time=0),
    Message('note_on', channel=9, note=42, velocity=0, time=120),
    Message('note_on', channel=9, note=40, velocity=0, time=114),
    Message('note_on', channel=9, note=36, velocity=100, time=6),
    Message('note_on', channel=9, note=42, velocity=100, time=0),
    Message('note_on', channel=9, note=42, velocity=0, time=120),
    Message('note_on', channel=9, note=36, velocity=0, time=120),
    Message('note_on', channel=9, note=36, velocity=100, time=0),
    Message('note_on', channel=9, note=42, velocity=100, time=0),
    Message('note_on', channel=9, note=42, velocity=0, time=120),
    Message('note_on', channel=9, note=36, velocity=0, time=120),
    Message('note_on', channel=9, note=40, velocity=100, time=0),
    Message('note_on', channel=9, note=57, velocity=100, time=0),
    Message('note_on', channel=9, note=57, velocity=0, time=120),
    Message('note_on', channel=9, note=42, velocity=100, time=120),
    Message('note_on', channel=9, note=42, velocity=0, time=120),
    Message('note_on', channel=9, note=40, velocity=0, time=120),
    Message('note_on', channel=9, note=36, velocity=100, time=0),
    Message('note_on', channel=9, note=49, velocity=100, time=0),
    Message('note_on', channel=9, note=49, velocity=0, time=120),
    Message('note_on', channel=9, note=42, velocity=100, time=120),
    Message('note_on', channel=9, note=42, velocity=0, time=120),
    Message('note_on', channel=9, note=36, velocity=0, time=120),
    Message('note_on', channel=9, note=40, velocity=100, time=0),
    Message('note_on', channel=9, note=57, velocity=100, time=0),
    Message('note_on', channel=9, note=57, velocity=0, time=120),
    Message('note_on', channel=9, note=42, velocity=100, time=120),
    Message('note_on', channel=9, note=42, velocity=0, time=120),
    Message('note_on', channel=9, note=40, velocity=0, time=120),
    Message('note_on', channel=9, note=36, velocity=100, time=0),
    Message('note_on', channel=9, note=42, velocity=100, time=0),
    Message('note_on', channel=9, note=42, velocity=0, time=120),
    Message('note_on', channel=9, note=36, velocity=0, time=120),
    Message('note_on', channel=9, note=36, velocity=100, time=0),
    Message('note_on', channel=9, note=42, velocity=100, time=0),
    Message('note_on', channel=9, note=42, velocity=0, time=120),
    Message('note_on', channel=9, note=36, velocity=0, time=120),
    Message('note_on', channel=9, note=40, velocity=100, time=0),
    Message('note_on', channel=9, note=42, velocity=100, time=0),
    Message('note_on', channel=9, note=42, velocity=0, time=120),
    Message('note_on', channel=9, note=42, velocity=100, time=120),
    Message('note_on', channel=9, note=42, velocity=0, time=120),
    Message('note_on', channel=9, note=40, velocity=0, time=120),
    Message('note_on', channel=9, note=36, velocity=100, time=0),
    Message('note_on', channel=9, note=42, velocity=100, time=0),
    Message('note_on', channel=9, note=42, velocity=0, time=120),
    Message('note_on', channel=9, note=36, velocity=0, time=0),
    Message('note_on', channel=9, note=40, velocity=100, time=0),
    Message('note_on', channel=9, note=40, velocity=0, time=120),
    Message('note_on', channel=9, note=36, velocity=100, time=0),
    Message('note_on', channel=9, note=42, velocity=100, time=0),
    Message('note_on', channel=9, note=42, velocity=0, time=120),
    Message('note_on', channel=9, note=36, velocity=0, time=0),
    Message('note_on', channel=9, note=36, velocity=100, time=0),
    Message('note_on', channel=9, note=36, velocity=0, time=120),
    Message('note_on', channel=9, note=40, velocity=100, time=0),
    Message('note_on', channel=9, note=42, velocity=100, time=0),
    Message('note_on', channel=9, note=42, velocity=0, time=120),
    Message('note_on', channel=9, note=40, velocity=0, time=0),
    Message('note_on', channel=9, note=36, velocity=100, time=0),
    Message('note_on', channel=9, note=36, velocity=0, time=120),
    Message('note_on', channel=9, note=40, velocity=100, time=0),
    Message('note_on', channel=9, note=42, velocity=100, time=0),
    Message('note_on', channel=9, note=42, velocity=0, time=120),
    Message('note_on', channel=9, note=40, velocity=0, time=114),
    Message('note_on', channel=9, note=36, velocity=100, time=6),
    Message('note_on', channel=9, note=42, velocity=100, time=0),
    Message('note_on', channel=9, note=42, velocity=0, time=120),
    Message('note_on', channel=9, note=36, velocity=0, time=120),
    Message('note_on', channel=9, note=36, velocity=100, time=0),
    Message('note_on', channel=9, note=42, velocity=100, time=0),
    Message('note_on', channel=9, note=42, velocity=0, time=120),
    Message('note_on', channel=9, note=36, velocity=0, time=120),
    Message('note_on', channel=9, note=40, velocity=100, time=0),
    Message('note_on', channel=9, note=57, velocity=100, time=0),
    Message('note_on', channel=9, note=57, velocity=0, time=120),
    Message('note_on', channel=9, note=46, velocity=100, time=120),
    Message('note_on', channel=9, note=46, velocity=0, time=120),
    Message('note_on', channel=9, note=40, velocity=0, time=120),
    Message('note_on', channel=9, note=36, velocity=100, time=0),
    Message('note_on', channel=9, note=49, velocity=100, time=0),
    Message('note_on', channel=9, note=49, velocity=0, time=120),
    Message('note_on', channel=9, note=42, velocity=100, time=120),
    Message('note_on', channel=9, note=42, velocity=0, time=120),
    Message('note_on', channel=9, note=36, velocity=0, time=120),
    Message('note_on', channel=9, note=40, velocity=100, time=0),
    Message('note_on', channel=9, note=57, velocity=100, time=0),
    Message('note_on', channel=9, note=57, velocity=0, time=120),
    Message('note_on', channel=9, note=42, velocity=100, time=120),
    Message('note_on', channel=9, note=42, velocity=0, time=120),
    Message('note_on', channel=9, note=40, velocity=0, time=120),
    Message('note_on', channel=9, note=36, velocity=100, time=0),
    Message('note_on', channel=9, note=42, velocity=100, time=0),
    Message('note_on', channel=9, note=42, velocity=0, time=120),
    Message('note_on', channel=9, note=36, velocity=0, time=120),
    Message('note_on', channel=9, note=36, velocity=100, time=0),
    Message('note_on', channel=9, note=42, velocity=100, time=0),
    Message('note_on', channel=9, note=42, velocity=0, time=120),
    Message('note_on', channel=9, note=36, velocity=0, time=120),
    Message('note_on', channel=9, note=40, velocity=100, time=0),
    Message('note_on', channel=9, note=42, velocity=100, time=0),
    Message('note_on', channel=9, note=42, velocity=0, time=120),
    Message('note_on', channel=9, note=42, velocity=100, time=120),
    Message('note_on', channel=9, note=42, velocity=0, time=120),
    Message('note_on', channel=9, note=40, velocity=0, time=120),
    Message('note_on', channel=9, note=36, velocity=100, time=0),
    Message('note_on', channel=9, note=42, velocity=100, time=0),
    Message('note_on', channel=9, note=42, velocity=0, time=120),
    Message('note_on', channel=9, note=36, velocity=0, time=0),
    Message('note_on', channel=9, note=40, velocity=100, time=0),
    Message('note_on', channel=9, note=40, velocity=0, time=120),
    Message('note_on', channel=9, note=36, velocity=100, time=0),
    Message('note_on', channel=9, note=42, velocity=100, time=0),
    Message('note_on', channel=9, note=42, velocity=0, time=120),
    Message('note_on', channel=9, note=36, velocity=0, time=0),
    Message('note_on', channel=9, note=36, velocity=100, time=0),
    Message('note_on', channel=9, note=36, velocity=0, time=120),
    Message('note_on', channel=9, note=40, velocity=100, time=0),
    Message('note_on', channel=9, note=42, velocity=100, time=0),
    Message('note_on', channel=9, note=42, velocity=0, time=120),
    Message('note_on', channel=9, note=40, velocity=0, time=0),
    Message('note_on', channel=9, note=36, velocity=100, time=0),
    Message('note_on', channel=9, note=36, velocity=0, time=120),
    Message('note_on', channel=9, note=40, velocity=100, time=0),
    Message('note_on', channel=9, note=42, velocity=100, time=0),
    Message('note_on', channel=9, note=42, velocity=0, time=120),
    Message('note_on', channel=9, note=40, velocity=0, time=114),
    Message('note_on', channel=9, note=42, velocity=100, time=6),
    Message('note_on', channel=9, note=40, velocity=100, time=0),
    Message('note_on', channel=9, note=42, velocity=0, time=120),
    Message('note_on', channel=9, note=36, velocity=100, time=0),
    Message('note_on', channel=9, note=40, velocity=0, time=120),
    Message('note_on', channel=9, note=42, velocity=100, time=0),
    Message('note_on', channel=9, note=40, velocity=100, time=0),
    Message('note_on', channel=9, note=42, velocity=0, time=120),
    Message('note_on', channel=9, note=36, velocity=0, time=0),
    Message('note_on', channel=9, note=36, velocity=100, time=0),
    Message('note_on', channel=9, note=40, velocity=0, time=120),
    Message('note_on', channel=9, note=40, velocity=100, time=0),
    Message('note_on', channel=9, note=42, velocity=100, time=0),
    Message('note_on', channel=9, note=42, velocity=0, time=120),
    Message('note_on', channel=9, note=36, velocity=0, time=0),
    Message('note_on', channel=9, note=36, velocity=100, time=0),
    Message('note_on', channel=9, note=46, velocity=100, time=120),
    Message('note_on', channel=9, note=40, velocity=100, time=0),
    Message('note_on', channel=9, note=46, velocity=0, time=120),
    Message('note_on', channel=9, note=36, velocity=0, time=0),
    Message('note_on', channel=9, note=40, velocity=0, time=120),
    Message('note_on', channel=9, note=40, velocity=0, time=0),
    Message('note_on', channel=9, note=36, velocity=100, time=0),
    Message('note_on', channel=9, note=49, velocity=100, time=0),
    Message('note_on', channel=9, note=49, velocity=0, time=120),
    Message('note_on', channel=9, note=36, velocity=0, time=120),
    Message('note_on', channel=9, note=36, velocity=100, time=0),
    Message('note_on', channel=9, note=55, velocity=100, time=0),
    Message('note_on', channel=9, note=55, velocity=0, time=120),
    Message('note_on', channel=9, note=36, velocity=0, time=120),
    Message('note_on', channel=9, note=40, velocity=100, time=0),
    Message('note_on', channel=9, note=55, velocity=100, time=0),
    Message('note_on', channel=9, note=40, velocity=0, time=60),
    Message('note_on', channel=9, note=55, velocity=0, time=60),
    Message('note_on', channel=9, note=55, velocity=100, time=120),
    Message('note_on', channel=9, note=55, velocity=0, time=120),
    Message('note_on', channel=9, note=36, velocity=100, time=120),
    Message('note_on', channel=9, note=55, velocity=100, time=0),
    Message('note_on', channel=9, note=36, velocity=0, time=60),
    Message('note_on', channel=9, note=55, velocity=0, time=60),
    Message('note_on', channel=9, note=40, velocity=100, time=0),
    Message('note_on', channel=9, note=40, velocity=0, time=60),
    Message('note_on', channel=9, note=55, velocity=100, time=60),
    Message('note_on', channel=9, note=55, velocity=0, time=120),
    Message('note_on', channel=9, note=36, velocity=100, time=0),
    Message('note_on', channel=9, note=40, velocity=100, time=120),
    Message('note_on', channel=9, note=55, velocity=100, time=0),
    Message('note_on', channel=9, note=55, velocity=0, time=120),
    Message('note_on', channel=9, note=36, velocity=0, time=0),
    Message('note_on', channel=9, note=40, velocity=0, time=120),
    Message('note_on', channel=9, note=55, velocity=100, time=0),
    Message('note_on', channel=9, note=55, velocity=0, time=120),
    Message('note_on', channel=9, note=40, velocity=100, time=0),
    Message('note_on', channel=9, note=36, velocity=100, time=120),
    Message('note_on', channel=9, note=55, velocity=100, time=0),
    Message('note_on', channel=9, note=55, velocity=0, time=120),
    Message('note_on', channel=9, note=40, velocity=0, time=0),
    Message('note_on', channel=9, note=36, velocity=0, time=120),
    Message('note_on', channel=9, note=36, velocity=100, time=0),
    Message('note_on', channel=9, note=55, velocity=100, time=0),
    Message('note_on', channel=9, note=55, velocity=0, time=120),
    Message('note_on', channel=9, note=36, velocity=0, time=120),
    Message('note_on', channel=9, note=40, velocity=100, time=0),
    Message('note_on', channel=9, note=55, velocity=100, time=0),
    Message('note_on', channel=9, note=40, velocity=0, time=60),
    Message('note_on', channel=9, note=55, velocity=0, time=60),
    Message('note_on', channel=9, note=55, velocity=100, time=120),
    Message('note_on', channel=9, note=55, velocity=0, time=120),
    Message('note_on', channel=9, note=36, velocity=100, time=120),
    Message('note_on', channel=9, note=55, velocity=100, time=0),
    Message('note_on', channel=9, note=36, velocity=0, time=60),
    Message('note_on', channel=9, note=55, velocity=0, time=60),
    Message('note_on', channel=9, note=40, velocity=100, time=0),
    Message('note_on', channel=9, note=40, velocity=0, time=60),
    Message('note_on', channel=9, note=55, velocity=100, time=60),
    Message('note_on', channel=9, note=55, velocity=0, time=120),
    Message('note_on', channel=9, note=36, velocity=100, time=0),
    Message('note_on', channel=9, note=55, velocity=100, time=120),
    Message('note_on', channel=9, note=55, velocity=0, time=120),
    Message('note_on', channel=9, note=36, velocity=0, time=0),
    Message('note_on', channel=9, note=36, velocity=100, time=0),
    Message('note_on', channel=9, note=40, velocity=100, time=120),
    Message('note_on', channel=9, note=55, velocity=100, time=0),
    Message('note_on', channel=9, note=55, velocity=0, time=120),
    Message('note_on', channel=9, note=36, velocity=0, time=0),
    Message('note_on', channel=9, note=40, velocity=0, time=120),
    Message('note_on', channel=9, note=36, velocity=100, time=0),
    Message('note_on', channel=9, note=49, velocity=100, time=0),
    Message('note_on', channel=9, note=49, velocity=0, time=120),
    Message('note_on', channel=9, note=36, velocity=0, time=120),
    Message('note_on', channel=9, note=36, velocity=100, time=0),
    Message('note_on', channel=9, note=57, velocity=100, time=0),
    Message('note_on', channel=9, note=57, velocity=0, time=120),
    Message('note_on', channel=9, note=36, velocity=0, time=120),
    Message('note_on', channel=9, note=40, velocity=100, time=0),
    Message('note_on', channel=9, note=55, velocity=100, time=0),
    Message('note_on', channel=9, note=40, velocity=0, time=60),
    Message('note_on', channel=9, note=55, velocity=0, time=60),
    Message('note_on', channel=9, note=55, velocity=100, time=120),
    Message('note_on', channel=9, note=55, velocity=0, time=120),
    Message('note_on', channel=9, note=36, velocity=100, time=120),
    Message('note_on', channel=9, note=55, velocity=100, time=0),
    Message('note_on', channel=9, note=36, velocity=0, time=60),
    Message('note_on', channel=9, note=55, velocity=0, time=60),
    Message('note_on', channel=9, note=40, velocity=100, time=0),
    Message('note_on', channel=9, note=40, velocity=0, time=60),
    Message('note_on', channel=9, note=55, velocity=100, time=60),
    Message('note_on', channel=9, note=55, velocity=0, time=120),
    Message('note_on', channel=9, note=36, velocity=100, time=0),
    Message('note_on', channel=9, note=40, velocity=100, time=120),
    Message('note_on', channel=9, note=55, velocity=100, time=0),
    Message('note_on', channel=9, note=55, velocity=0, time=120),
    Message('note_on', channel=9, note=36, velocity=0, time=0),
    Message('note_on', channel=9, note=40, velocity=0, time=120),
    Message('note_on', channel=9, note=55, velocity=100, time=0),
    Message('note_on', channel=9, note=55, velocity=0, time=120),
    Message('note_on', channel=9, note=40, velocity=100, time=0),
    Message('note_on', channel=9, note=36, velocity=100, time=120),
    Message('note_on', channel=9, note=49, velocity=100, time=0),
    Message('note_on', channel=9, note=49, velocity=0, time=120),
    Message('note_on', channel=9, note=40, velocity=0, time=0),
    Message('note_on', channel=9, note=36, velocity=0, time=120),
    Message('note_on', channel=9, note=36, velocity=100, time=0),
    Message('note_on', channel=9, note=57, velocity=100, time=0),
    Message('note_on', channel=9, note=57, velocity=0, time=120),
    Message('note_on', channel=9, note=36, velocity=0, time=120),
    Message('note_on', channel=9, note=40, velocity=100, time=0),
    Message('note_on', channel=9, note=55, velocity=100, time=0),
    Message('note_on', channel=9, note=40, velocity=0, time=60),
    Message('note_on', channel=9, note=55, velocity=0, time=60),
    Message('note_on', channel=9, note=55, velocity=100, time=120),
    Message('note_on', channel=9, note=55, velocity=0, time=120),
    Message('note_on', channel=9, note=55, velocity=100, time=120),
    Message('note_on', channel=9, note=36, velocity=100, time=0),
    Message('note_on', channel=9, note=36, velocity=0, time=60),
    Message('note_on', channel=9, note=55, velocity=0, time=60),
    Message('note_on', channel=9, note=40, velocity=100, time=0),
    Message('note_on', channel=9, note=40, velocity=0, time=60),
    Message('note_on', channel=9, note=40, velocity=100, time=20),
    Message('note_on', channel=9, note=55, velocity=100, time=40),
    Message('note_on', channel=9, note=40, velocity=100, time=0),
    Message('note_on', channel=9, note=40, velocity=0, time=80),
    Message('note_on', channel=9, note=40, velocity=0, time=40),
    Message('note_on', channel=9, note=55, velocity=0, time=0),
    Message('note_on', channel=9, note=40, velocity=100, time=0),
    Message('note_on', channel=9, note=55, velocity=100, time=120),
    Message('note_on', channel=9, note=40, velocity=100, time=0),
    Message('note_on', channel=9, note=55, velocity=0, time=120),
    Message('note_on', channel=9, note=40, velocity=0, time=0),
    Message('note_on', channel=9, note=40, velocity=100, time=0),
    Message('note_on', channel=9, note=40, velocity=0, time=120),
    Message('note_on', channel=9, note=40, velocity=0, time=0),
    Message('note_on', channel=9, note=55, velocity=100, time=0),
    Message('note_on', channel=9, note=40, velocity=100, time=0),
    Message('note_on', channel=9, note=55, velocity=0, time=120),
    Message('note_on', channel=9, note=40, velocity=0, time=120),
    Message('note_on', channel=9, note=36, velocity=100, time=0),
    Message('note_on', channel=9, note=49, velocity=100, time=0),
    Message('note_on', channel=9, note=49, velocity=0, time=120),
    Message('note_on', channel=9, note=36, velocity=0, time=120),
    Message('note_on', channel=9, note=36, velocity=100, time=0),
    Message('note_on', channel=9, note=55, velocity=100, time=0),
    Message('note_on', channel=9, note=55, velocity=0, time=120),
    Message('note_on', channel=9, note=36, velocity=0, time=120),
    Message('note_on', channel=9, note=40, velocity=100, time=0),
    Message('note_on', channel=9, note=55, velocity=100, time=0),
    Message('note_on', channel=9, note=40, velocity=0, time=60),
    Message('note_on', channel=9, note=55, velocity=0, time=60),
    Message('note_on', channel=9, note=55, velocity=100, time=120),
    Message('note_on', channel=9, note=55, velocity=0, time=120),
    Message('note_on', channel=9, note=36, velocity=100, time=120),
    Message('note_on', channel=9, note=55, velocity=100, time=0),
    Message('note_on', channel=9, note=36, velocity=0, time=60),
    Message('note_on', channel=9, note=55, velocity=0, time=60),
    Message('note_on', channel=9, note=40, velocity=100, time=0),
    Message('note_on', channel=9, note=40, velocity=0, time=60),
    Message('note_on', channel=9, note=55, velocity=100, time=60),
    Message('note_on', channel=9, note=55, velocity=0, time=120),
    Message('note_on', channel=9, note=36, velocity=100, time=0),
    Message('note_on', channel=9, note=40, velocity=100, time=120),
    Message('note_on', channel=9, note=55, velocity=100, time=0),
    Message('note_on', channel=9, note=55, velocity=0, time=120),
    Message('note_on', channel=9, note=36, velocity=0, time=0),
    Message('note_on', channel=9, note=40, velocity=0, time=120),
    Message('note_on', channel=9, note=55, velocity=100, time=0),
    Message('note_on', channel=9, note=55, velocity=0, time=120),
    Message('note_on', channel=9, note=40, velocity=100, time=0),
    Message('note_on', channel=9, note=36, velocity=100, time=120),
    Message('note_on', channel=9, note=55, velocity=100, time=0),
    Message('note_on', channel=9, note=55, velocity=0, time=120),
    Message('note_on', channel=9, note=40, velocity=0, time=0),
    Message('note_on', channel=9, note=36, velocity=0, time=120),
    Message('note_on', channel=9, note=36, velocity=100, time=0),
    Message('note_on', channel=9, note=55, velocity=100, time=0),
    Message('note_on', channel=9, note=55, velocity=0, time=120),
    Message('note_on', channel=9, note=36, velocity=0, time=120),
    Message('note_on', channel=9, note=40, velocity=100, time=0),
    Message('note_on', channel=9, note=55, velocity=100, time=0),
    Message('note_on', channel=9, note=40, velocity=0, time=60),
    Message('note_on', channel=9, note=55, velocity=0, time=60),
    Message('note_on', channel=9, note=55, velocity=100, time=120),
    Message('note_on', channel=9, note=55, velocity=0, time=120),
    Message('note_on', channel=9, note=36, velocity=100, time=120),
    Message('note_on', channel=9, note=55, velocity=100, time=0),
    Message('note_on', channel=9, note=36, velocity=0, time=60),
    Message('note_on', channel=9, note=55, velocity=0, time=60),
    Message('note_on', channel=9, note=40, velocity=100, time=0),
    Message('note_on', channel=9, note=40, velocity=0, time=60),
    Message('note_on', channel=9, note=55, velocity=100, time=60),
    Message('note_on', channel=9, note=55, velocity=0, time=120),
    Message('note_on', channel=9, note=36, velocity=100, time=0),
    Message('note_on', channel=9, note=55, velocity=100, time=120),
    Message('note_on', channel=9, note=55, velocity=0, time=120),
    Message('note_on', channel=9, note=36, velocity=0, time=0),
    Message('note_on', channel=9, note=36, velocity=100, time=0),
    Message('note_on', channel=9, note=40, velocity=100, time=120),
    Message('note_on', channel=9, note=55, velocity=100, time=0),
    Message('note_on', channel=9, note=55, velocity=0, time=120),
    Message('note_on', channel=9, note=36, velocity=0, time=0),
    Message('note_on', channel=9, note=40, velocity=0, time=120),
    Message('note_on', channel=9, note=36, velocity=100, time=0),
    Message('note_on', channel=9, note=49, velocity=100, time=0),
    Message('note_on', channel=9, note=49, velocity=0, time=120),
    Message('note_on', channel=9, note=36, velocity=0, time=120),
    Message('note_on', channel=9, note=36, velocity=100, time=0),
    Message('note_on', channel=9, note=57, velocity=100, time=0),
    Message('note_on', channel=9, note=57, velocity=0, time=120),
    Message('note_on', channel=9, note=36, velocity=0, time=120),
    Message('note_on', channel=9, note=40, velocity=100, time=0),
    Message('note_on', channel=9, note=55, velocity=100, time=0),
    Message('note_on', channel=9, note=40, velocity=0, time=60),
    Message('note_on', channel=9, note=55, velocity=0, time=60),
    Message('note_on', channel=9, note=55, velocity=100, time=120),
    Message('note_on', channel=9, note=55, velocity=0, time=120),
    Message('note_on', channel=9, note=36, velocity=100, time=120),
    Message('note_on', channel=9, note=55, velocity=100, time=0),
    Message('note_on', channel=9, note=36, velocity=0, time=60),
    Message('note_on', channel=9, note=55, velocity=0, time=60),
    Message('note_on', channel=9, note=40, velocity=100, time=0),
    Message('note_on', channel=9, note=40, velocity=0, time=60),
    Message('note_on', channel=9, note=55, velocity=100, time=60),
    Message('note_on', channel=9, note=55, velocity=0, time=120),
    Message('note_on', channel=9, note=36, velocity=100, time=0),
    Message('note_on', channel=9, note=40, velocity=100, time=120),
    Message('note_on', channel=9, note=55, velocity=100, time=0),
    Message('note_on', channel=9, note=55, velocity=0, time=120),
    Message('note_on', channel=9, note=36, velocity=0, time=0),
    Message('note_on', channel=9, note=40, velocity=0, time=120),
    Message('note_on', channel=9, note=55, velocity=100, time=0),
    Message('note_on', channel=9, note=55, velocity=0, time=120),
    Message('note_on', channel=9, note=40, velocity=100, time=0),
    Message('note_on', channel=9, note=36, velocity=100, time=120),
    Message('note_on', channel=9, note=49, velocity=100, time=0),
    Message('note_on', channel=9, note=49, velocity=0, time=120),
    Message('note_on', channel=9, note=40, velocity=0, time=0),
    Message('note_on', channel=9, note=36, velocity=0, time=120),
    Message('note_on', channel=9, note=36, velocity=100, time=0),
    Message('note_on', channel=9, note=57, velocity=100, time=0),
    Message('note_on', channel=9, note=57, velocity=0, time=120),
    Message('note_on', channel=9, note=36, velocity=0, time=120),
    Message('note_on', channel=9, note=40, velocity=100, time=0),
    Message('note_on', channel=9, note=55, velocity=100, time=0),
    Message('note_on', channel=9, note=40, velocity=0, time=60),
    Message('note_on', channel=9, note=55, velocity=0, time=60),
    Message('note_on', channel=9, note=55, velocity=100, time=120),
    Message('note_on', channel=9, note=55, velocity=0, time=120),
    Message('note_on', channel=9, note=55, velocity=100, time=120),
    Message('note_on', channel=9, note=36, velocity=100, time=0),
    Message('note_on', channel=9, note=36, velocity=0, time=60),
    Message('note_on', channel=9, note=55, velocity=0, time=60),
    Message('note_on', channel=9, note=40, velocity=100, time=0),
    Message('note_on', channel=9, note=40, velocity=0, time=60),
    Message('note_on', channel=9, note=55, velocity=100, time=60),
    Message('note_on', channel=9, note=55, velocity=0, time=120),
    Message('note_on', channel=9, note=36, velocity=100, time=0),
    Message('note_on', channel=9, note=55, velocity=100, time=120),
    Message('note_on', channel=9, note=40, velocity=100, time=0),
    Message('note_on', channel=9, note=40, velocity=0, time=120),
    Message('note_on', channel=9, note=55, velocity=0, time=0),
    Message('note_on', channel=9, note=36, velocity=0, time=0),
    Message('note_on', channel=9, note=36, velocity=100, time=0),
    Message('note_on', channel=9, note=55, velocity=100, time=120),
    Message('note_on', channel=9, note=40, velocity=100, time=0),
    Message('note_on', channel=9, note=55, velocity=0, time=120),
    Message('note_on', channel=9, note=36, velocity=0, time=0),
    Message('note_on', channel=9, note=40, velocity=0, time=120),
    Message('note_on', channel=9, note=36, velocity=100, time=0),
    Message('note_on', channel=9, note=49, velocity=100, time=0),
    Message('note_on', channel=9, note=49, velocity=0, time=120),
    Message('note_on', channel=9, note=42, velocity=100, time=120),
    Message('note_on', channel=9, note=42, velocity=0, time=120),
    Message('note_on', channel=9, note=36, velocity=0, time=120),
    Message('note_on', channel=9, note=40, velocity=100, time=0),
    Message('note_on', channel=9, note=57, velocity=100, time=0),
    Message('note_on', channel=9, note=57, velocity=0, time=120),
    Message('note_on', channel=9, note=42, velocity=100, time=120),
    Message('note_on', channel=9, note=42, velocity=0, time=120),
    Message('note_on', channel=9, note=40, velocity=0, time=120),
    Message('note_on', channel=9, note=36, velocity=100, time=0),
    Message('note_on', channel=9, note=42, velocity=100, time=0),
    Message('note_on', channel=9, note=42, velocity=0, time=120),
    Message('note_on', channel=9, note=36, velocity=0, time=120),
    Message('note_on', channel=9, note=36, velocity=100, time=0),
    Message('note_on', channel=9, note=42, velocity=100, time=0),
    Message('note_on', channel=9, note=42, velocity=0, time=120),
    Message('note_on', channel=9, note=36, velocity=0, time=120),
    Message('note_on', channel=9, note=40, velocity=100, time=0),
    Message('note_on', channel=9, note=42, velocity=100, time=0),
    Message('note_on', channel=9, note=42, velocity=0, time=120),
    Message('note_on', channel=9, note=42, velocity=100, time=120),
    Message('note_on', channel=9, note=42, velocity=0, time=120),
    Message('note_on', channel=9, note=40, velocity=0, time=120),
    Message('note_on', channel=9, note=36, velocity=100, time=0),
    Message('note_on', channel=9, note=42, velocity=100, time=0),
    Message('note_on', channel=9, note=42, velocity=0, time=120),
    Message('note_on', channel=9, note=36, velocity=0, time=0),
    Message('note_on', channel=9, note=40, velocity=100, time=0),
    Message('note_on', channel=9, note=40, velocity=0, time=120),
    Message('note_on', channel=9, note=36, velocity=100, time=0),
    Message('note_on', channel=9, note=42, velocity=100, time=0),
    Message('note_on', channel=9, note=42, velocity=0, time=120),
    Message('note_on', channel=9, note=36, velocity=0, time=0),
    Message('note_on', channel=9, note=36, velocity=100, time=0),
    Message('note_on', channel=9, note=36, velocity=0, time=120),
    Message('note_on', channel=9, note=40, velocity=100, time=0),
    Message('note_on', channel=9, note=42, velocity=100, time=0),
    Message('note_on', channel=9, note=42, velocity=0, time=120),
    Message('note_on', channel=9, note=40, velocity=0, time=0),
    Message('note_on', channel=9, note=36, velocity=100, time=0),
    Message('note_on', channel=9, note=36, velocity=0, time=120),
    Message('note_on', channel=9, note=40, velocity=100, time=0),
    Message('note_on', channel=9, note=42, velocity=100, time=0),
    Message('note_on', channel=9, note=42, velocity=0, time=120),
    Message('note_on', channel=9, note=40, velocity=0, time=114),
    Message('note_on', channel=9, note=36, velocity=100, time=6),
    Message('note_on', channel=9, note=42, velocity=100, time=0),
    Message('note_on', channel=9, note=42, velocity=0, time=120),
    Message('note_on', channel=9, note=36, velocity=0, time=120),
    Message('note_on', channel=9, note=36, velocity=100, time=0),
    Message('note_on', channel=9, note=42, velocity=100, time=0),
    Message('note_on', channel=9, note=42, velocity=0, time=120),
    Message('note_on', channel=9, note=36, velocity=0, time=120),
    Message('note_on', channel=9, note=40, velocity=100, time=0),
    Message('note_on', channel=9, note=57, velocity=100, time=0),
    Message('note_on', channel=9, note=57, velocity=0, time=120),
    Message('note_on', channel=9, note=42, velocity=100, time=120),
    Message('note_on', channel=9, note=42, velocity=0, time=120),
    Message('note_on', channel=9, note=40, velocity=0, time=120),
    Message('note_on', channel=9, note=36, velocity=100, time=0),
    Message('note_on', channel=9, note=49, velocity=100, time=0),
    Message('note_on', channel=9, note=49, velocity=0, time=120),
    Message('note_on', channel=9, note=42, velocity=100, time=120),
    Message('note_on', channel=9, note=42, velocity=0, time=120),
    Message('note_on', channel=9, note=36, velocity=0, time=120),
    Message('note_on', channel=9, note=40, velocity=100, time=0),
    Message('note_on', channel=9, note=57, velocity=100, time=0),
    Message('note_on', channel=9, note=57, velocity=0, time=120),
    Message('note_on', channel=9, note=42, velocity=100, time=120),
    Message('note_on', channel=9, note=42, velocity=0, time=120),
    Message('note_on', channel=9, note=40, velocity=0, time=120),
    Message('note_on', channel=9, note=36, velocity=100, time=0),
    Message('note_on', channel=9, note=42, velocity=100, time=0),
    Message('note_on', channel=9, note=42, velocity=0, time=120),
    Message('note_on', channel=9, note=36, velocity=0, time=120),
    Message('note_on', channel=9, note=36, velocity=100, time=0),
    Message('note_on', channel=9, note=42, velocity=100, time=0),
    Message('note_on', channel=9, note=42, velocity=0, time=120),
    Message('note_on', channel=9, note=36, velocity=0, time=120),
    Message('note_on', channel=9, note=40, velocity=100, time=0),
    Message('note_on', channel=9, note=42, velocity=100, time=0),
    Message('note_on', channel=9, note=42, velocity=0, time=120),
    Message('note_on', channel=9, note=42, velocity=100, time=120),
    Message('note_on', channel=9, note=42, velocity=0, time=120),
    Message('note_on', channel=9, note=40, velocity=0, time=120),
    Message('note_on', channel=9, note=36, velocity=100, time=0),
    Message('note_on', channel=9, note=42, velocity=100, time=0),
    Message('note_on', channel=9, note=42, velocity=0, time=120),
    Message('note_on', channel=9, note=36, velocity=0, time=0),
    Message('note_on', channel=9, note=40, velocity=100, time=0),
    Message('note_on', channel=9, note=40, velocity=0, time=120),
    Message('note_on', channel=9, note=36, velocity=100, time=0),
    Message('note_on', channel=9, note=42, velocity=100, time=0),
    Message('note_on', channel=9, note=42, velocity=0, time=120),
    Message('note_on', channel=9, note=36, velocity=0, time=0),
    Message('note_on', channel=9, note=36, velocity=100, time=0),
    Message('note_on', channel=9, note=36, velocity=0, time=120),
    Message('note_on', channel=9, note=40, velocity=100, time=0),
    Message('note_on', channel=9, note=42, velocity=100, time=0),
    Message('note_on', channel=9, note=42, velocity=0, time=120),
    Message('note_on', channel=9, note=40, velocity=0, time=0),
    Message('note_on', channel=9, note=36, velocity=100, time=0),
    Message('note_on', channel=9, note=36, velocity=0, time=120),
    Message('note_on', channel=9, note=40, velocity=100, time=0),
    Message('note_on', channel=9, note=42, velocity=100, time=0),
    Message('note_on', channel=9, note=42, velocity=0, time=120),
    Message('note_on', channel=9, note=40, velocity=0, time=114),
    Message('note_on', channel=9, note=36, velocity=100, time=6),
    Message('note_on', channel=9, note=42, velocity=100, time=0),
    Message('note_on', channel=9, note=42, velocity=0, time=120),
    Message('note_on', channel=9, note=36, velocity=0, time=120),
    Message('note_on', channel=9, note=36, velocity=100, time=0),
    Message('note_on', channel=9, note=42, velocity=100, time=0),
    Message('note_on', channel=9, note=42, velocity=0, time=120),
    Message('note_on', channel=9, note=36, velocity=0, time=120),
    Message('note_on', channel=9, note=40, velocity=100, time=0),
    Message('note_on', channel=9, note=57, velocity=100, time=0),
    Message('note_on', channel=9, note=57, velocity=0, time=120),
    Message('note_on', channel=9, note=42, velocity=100, time=120),
    Message('note_on', channel=9, note=42, velocity=0, time=120),
    Message('note_on', channel=9, note=40, velocity=0, time=120),
    Message('note_on', channel=9, note=36, velocity=100, time=0),
    Message('note_on', channel=9, note=49, velocity=100, time=0),
    Message('note_on', channel=9, note=49, velocity=0, time=120),
    Message('note_on', channel=9, note=42, velocity=100, time=120),
    Message('note_on', channel=9, note=42, velocity=0, time=120),
    Message('note_on', channel=9, note=36, velocity=0, time=120),
    Message('note_on', channel=9, note=40, velocity=100, time=0),
    Message('note_on', channel=9, note=57, velocity=100, time=0),
    Message('note_on', channel=9, note=57, velocity=0, time=120),
    Message('note_on', channel=9, note=42, velocity=100, time=120),
    Message('note_on', channel=9, note=42, velocity=0, time=120),
    Message('note_on', channel=9, note=40, velocity=0, time=120),
    Message('note_on', channel=9, note=36, velocity=100, time=0),
    Message('note_on', channel=9, note=42, velocity=100, time=0),
    Message('note_on', channel=9, note=42, velocity=0, time=120),
    Message('note_on', channel=9, note=36, velocity=0, time=120),
    Message('note_on', channel=9, note=36, velocity=100, time=0),
    Message('note_on', channel=9, note=42, velocity=100, time=0),
    Message('note_on', channel=9, note=42, velocity=0, time=120),
    Message('note_on', channel=9, note=36, velocity=0, time=120),
    Message('note_on', channel=9, note=40, velocity=100, time=0),
    Message('note_on', channel=9, note=42, velocity=100, time=0),
    Message('note_on', channel=9, note=42, velocity=0, time=120),
    Message('note_on', channel=9, note=42, velocity=100, time=120),
    Message('note_on', channel=9, note=42, velocity=0, time=120),
    Message('note_on', channel=9, note=40, velocity=0, time=120),
    Message('note_on', channel=9, note=36, velocity=100, time=0),
    Message('note_on', channel=9, note=42, velocity=100, time=0),
    Message('note_on', channel=9, note=42, velocity=0, time=120),
    Message('note_on', channel=9, note=36, velocity=0, time=0),
    Message('note_on', channel=9, note=40, velocity=100, time=0),
    Message('note_on', channel=9, note=40, velocity=0, time=120),
    Message('note_on', channel=9, note=36, velocity=100, time=0),
    Message('note_on', channel=9, note=42, velocity=100, time=0),
    Message('note_on', channel=9, note=42, velocity=0, time=120),
    Message('note_on', channel=9, note=36, velocity=0, time=0),
    Message('note_on', channel=9, note=36, velocity=100, time=0),
    Message('note_on', channel=9, note=36, velocity=0, time=120),
    Message('note_on', channel=9, note=40, velocity=100, time=0),
    Message('note_on', channel=9, note=42, velocity=100, time=0),
    Message('note_on', channel=9, note=42, velocity=0, time=120),
    Message('note_on', channel=9, note=40, velocity=0, time=0),
    Message('note_on', channel=9, note=36, velocity=100, time=0),
    Message('note_on', channel=9, note=36, velocity=0, time=120),
    Message('note_on', channel=9, note=40, velocity=100, time=0),
    Message('note_on', channel=9, note=42, velocity=100, time=0),
    Message('note_on', channel=9, note=42, velocity=0, time=120),
    Message('note_on', channel=9, note=40, velocity=0, time=114),
    Message('note_on', channel=9, note=36, velocity=100, time=6),
    Message('note_on', channel=9, note=42, velocity=100, time=0),
    Message('note_on', channel=9, note=42, velocity=0, time=120),
    Message('note_on', channel=9, note=36, velocity=0, time=120),
    Message('note_on', channel=9, note=36, velocity=100, time=0),
    Message('note_on', channel=9, note=42, velocity=100, time=0),
    Message('note_on', channel=9, note=42, velocity=0, time=120),
    Message('note_on', channel=9, note=36, velocity=0, time=120),
    Message('note_on', channel=9, note=40, velocity=100, time=0),
    Message('note_on', channel=9, note=57, velocity=100, time=0),
    Message('note_on', channel=9, note=57, velocity=0, time=120),
    Message('note_on', channel=9, note=46, velocity=100, time=120),
    Message('note_on', channel=9, note=46, velocity=0, time=120),
    Message('note_on', channel=9, note=40, velocity=0, time=120),
    Message('note_on', channel=9, note=36, velocity=100, time=0),
    Message('note_on', channel=9, note=49, velocity=100, time=0),
    Message('note_on', channel=9, note=49, velocity=0, time=120),
    Message('note_on', channel=9, note=42, velocity=100, time=120),
    Message('note_on', channel=9, note=42, velocity=0, time=120),
    Message('note_on', channel=9, note=36, velocity=0, time=120),
    Message('note_on', channel=9, note=40, velocity=100, time=0),
    Message('note_on', channel=9, note=57, velocity=100, time=0),
    Message('note_on', channel=9, note=57, velocity=0, time=120),
    Message('note_on', channel=9, note=42, velocity=100, time=120),
    Message('note_on', channel=9, note=42, velocity=0, time=120),
    Message('note_on', channel=9, note=40, velocity=0, time=120),
    Message('note_on', channel=9, note=36, velocity=100, time=0),
    Message('note_on', channel=9, note=42, velocity=100, time=0),
    Message('note_on', channel=9, note=42, velocity=0, time=120),
    Message('note_on', channel=9, note=36, velocity=0, time=120),
    Message('note_on', channel=9, note=36, velocity=100, time=0),
    Message('note_on', channel=9, note=42, velocity=100, time=0),
    Message('note_on', channel=9, note=42, velocity=0, time=120),
    Message('note_on', channel=9, note=36, velocity=0, time=120),
    Message('note_on', channel=9, note=40, velocity=100, time=0),
    Message('note_on', channel=9, note=42, velocity=100, time=0),
    Message('note_on', channel=9, note=42, velocity=0, time=120),
    Message('note_on', channel=9, note=42, velocity=100, time=120),
    Message('note_on', channel=9, note=42, velocity=0, time=120),
    Message('note_on', channel=9, note=40, velocity=0, time=120),
    Message('note_on', channel=9, note=36, velocity=100, time=0),
    Message('note_on', channel=9, note=42, velocity=100, time=0),
    Message('note_on', channel=9, note=42, velocity=0, time=120),
    Message('note_on', channel=9, note=36, velocity=0, time=0),
    Message('note_on', channel=9, note=40, velocity=100, time=0),
    Message('note_on', channel=9, note=40, velocity=0, time=120),
    Message('note_on', channel=9, note=36, velocity=100, time=0),
    Message('note_on', channel=9, note=42, velocity=100, time=0),
    Message('note_on', channel=9, note=42, velocity=0, time=120),
    Message('note_on', channel=9, note=36, velocity=0, time=0),
    Message('note_on', channel=9, note=36, velocity=100, time=0),
    Message('note_on', channel=9, note=36, velocity=0, time=120),
    Message('note_on', channel=9, note=40, velocity=100, time=0),
    Message('note_on', channel=9, note=42, velocity=100, time=0),
    Message('note_on', channel=9, note=42, velocity=0, time=120),
    Message('note_on', channel=9, note=40, velocity=0, time=0),
    Message('note_on', channel=9, note=36, velocity=100, time=0),
    Message('note_on', channel=9, note=36, velocity=0, time=120),
    Message('note_on', channel=9, note=40, velocity=100, time=0),
    Message('note_on', channel=9, note=42, velocity=100, time=0),
    Message('note_on', channel=9, note=42, velocity=0, time=120),
    Message('note_on', channel=9, note=40, velocity=0, time=114),
    Message('note_on', channel=9, note=42, velocity=100, time=6),
    Message('note_on', channel=9, note=40, velocity=100, time=0),
    Message('note_on', channel=9, note=42, velocity=0, time=120),
    Message('note_on', channel=9, note=36, velocity=100, time=0),
    Message('note_on', channel=9, note=40, velocity=0, time=120),
    Message('note_on', channel=9, note=42, velocity=100, time=0),
    Message('note_on', channel=9, note=40, velocity=100, time=0),
    Message('note_on', channel=9, note=42, velocity=0, time=120),
    Message('note_on', channel=9, note=36, velocity=0, time=0),
    Message('note_on', channel=9, note=36, velocity=100, time=0),
    Message('note_on', channel=9, note=40, velocity=0, time=120),
    Message('note_on', channel=9, note=40, velocity=100, time=0),
    Message('note_on', channel=9, note=42, velocity=100, time=0),
    Message('note_on', channel=9, note=42, velocity=0, time=120),
    Message('note_on', channel=9, note=36, velocity=0, time=0),
    Message('note_on', channel=9, note=36, velocity=100, time=0),
    Message('note_on', channel=9, note=46, velocity=100, time=120),
    Message('note_on', channel=9, note=40, velocity=100, time=0),
    Message('note_on', channel=9, note=46, velocity=0, time=120),
    Message('note_on', channel=9, note=36, velocity=0, time=0),
    Message('note_on', channel=9, note=40, velocity=0, time=120),
    Message('note_on', channel=9, note=40, velocity=0, time=0),
    Message('note_on', channel=9, note=36, velocity=100, time=0),
    Message('note_on', channel=9, note=49, velocity=100, time=0),
    Message('note_on', channel=9, note=49, velocity=0, time=120),
    Message('note_on', channel=9, note=36, velocity=0, time=120),
    Message('note_on', channel=9, note=36, velocity=100, time=0),
    Message('note_on', channel=9, note=55, velocity=100, time=0),
    Message('note_on', channel=9, note=55, velocity=0, time=120),
    Message('note_on', channel=9, note=36, velocity=0, time=120),
    Message('note_on', channel=9, note=40, velocity=100, time=0),
    Message('note_on', channel=9, note=55, velocity=100, time=0),
    Message('note_on', channel=9, note=40, velocity=0, time=60),
    Message('note_on', channel=9, note=55, velocity=0, time=60),
    Message('note_on', channel=9, note=55, velocity=100, time=120),
    Message('note_on', channel=9, note=55, velocity=0, time=120),
    Message('note_on', channel=9, note=36, velocity=100, time=120),
    Message('note_on', channel=9, note=55, velocity=100, time=0),
    Message('note_on', channel=9, note=36, velocity=0, time=60),
    Message('note_on', channel=9, note=55, velocity=0, time=60),
    Message('note_on', channel=9, note=40, velocity=100, time=0),
    Message('note_on', channel=9, note=40, velocity=0, time=60),
    Message('note_on', channel=9, note=55, velocity=100, time=60),
    Message('note_on', channel=9, note=55, velocity=0, time=120),
    Message('note_on', channel=9, note=36, velocity=100, time=0),
    Message('note_on', channel=9, note=40, velocity=100, time=120),
    Message('note_on', channel=9, note=55, velocity=100, time=0),
    Message('note_on', channel=9, note=55, velocity=0, time=120),
    Message('note_on', channel=9, note=36, velocity=0, time=0),
    Message('note_on', channel=9, note=40, velocity=0, time=120),
    Message('note_on', channel=9, note=55, velocity=100, time=0),
    Message('note_on', channel=9, note=55, velocity=0, time=120),
    Message('note_on', channel=9, note=40, velocity=100, time=0),
    Message('note_on', channel=9, note=36, velocity=100, time=120),
    Message('note_on', channel=9, note=55, velocity=100, time=0),
    Message('note_on', channel=9, note=55, velocity=0, time=120),
    Message('note_on', channel=9, note=40, velocity=0, time=0),
    Message('note_on', channel=9, note=36, velocity=0, time=120),
    Message('note_on', channel=9, note=36, velocity=100, time=0),
    Message('note_on', channel=9, note=55, velocity=100, time=0),
    Message('note_on', channel=9, note=55, velocity=0, time=120),
    Message('note_on', channel=9, note=36, velocity=0, time=120),
    Message('note_on', channel=9, note=40, velocity=100, time=0),
    Message('note_on', channel=9, note=55, velocity=100, time=0),
    Message('note_on', channel=9, note=40, velocity=0, time=60),
    Message('note_on', channel=9, note=55, velocity=0, time=60),
    Message('note_on', channel=9, note=55, velocity=100, time=120),
    Message('note_on', channel=9, note=55, velocity=0, time=120),
    Message('note_on', channel=9, note=36, velocity=100, time=120),
    Message('note_on', channel=9, note=55, velocity=100, time=0),
    Message('note_on', channel=9, note=36, velocity=0, time=60),
    Message('note_on', channel=9, note=55, velocity=0, time=60),
    Message('note_on', channel=9, note=40, velocity=100, time=0),
    Message('note_on', channel=9, note=40, velocity=0, time=60),
    Message('note_on', channel=9, note=55, velocity=100, time=60),
    Message('note_on', channel=9, note=55, velocity=0, time=120),
    Message('note_on', channel=9, note=36, velocity=100, time=0),
    Message('note_on', channel=9, note=55, velocity=100, time=120),
    Message('note_on', channel=9, note=55, velocity=0, time=120),
    Message('note_on', channel=9, note=36, velocity=0, time=0),
    Message('note_on', channel=9, note=36, velocity=100, time=0),
    Message('note_on', channel=9, note=40, velocity=100, time=120),
    Message('note_on', channel=9, note=55, velocity=100, time=0),
    Message('note_on', channel=9, note=55, velocity=0, time=120),
    Message('note_on', channel=9, note=36, velocity=0, time=0),
    Message('note_on', channel=9, note=40, velocity=0, time=120),
    Message('note_on', channel=9, note=36, velocity=100, time=0),
    Message('note_on', channel=9, note=49, velocity=100, time=0),
    Message('note_on', channel=9, note=49, velocity=0, time=120),
    Message('note_on', channel=9, note=36, velocity=0, time=120),
    Message('note_on', channel=9, note=36, velocity=100, time=0),
    Message('note_on', channel=9, note=57, velocity=100, time=0),
    Message('note_on', channel=9, note=57, velocity=0, time=120),
    Message('note_on', channel=9, note=36, velocity=0, time=120),
    Message('note_on', channel=9, note=40, velocity=100, time=0),
    Message('note_on', channel=9, note=55, velocity=100, time=0),
    Message('note_on', channel=9, note=40, velocity=0, time=60),
    Message('note_on', channel=9, note=55, velocity=0, time=60),
    Message('note_on', channel=9, note=55, velocity=100, time=120),
    Message('note_on', channel=9, note=55, velocity=0, time=120),
    Message('note_on', channel=9, note=36, velocity=100, time=120),
    Message('note_on', channel=9, note=55, velocity=100, time=0),
    Message('note_on', channel=9, note=36, velocity=0, time=60),
    Message('note_on', channel=9, note=55, velocity=0, time=60),
    Message('note_on', channel=9, note=40, velocity=100, time=0),
    Message('note_on', channel=9, note=40, velocity=0, time=60),
    Message('note_on', channel=9, note=55, velocity=100, time=60),
    Message('note_on', channel=9, note=55, velocity=0, time=120),
    Message('note_on', channel=9, note=36, velocity=100, time=0),
    Message('note_on', channel=9, note=40, velocity=100, time=120),
    Message('note_on', channel=9, note=55, velocity=100, time=0),
    Message('note_on', channel=9, note=55, velocity=0, time=120),
    Message('note_on', channel=9, note=36, velocity=0, time=0),
    Message('note_on', channel=9, note=40, velocity=0, time=120),
    Message('note_on', channel=9, note=55, velocity=100, time=0),
    Message('note_on', channel=9, note=55, velocity=0, time=120),
    Message('note_on', channel=9, note=40, velocity=100, time=0),
    Message('note_on', channel=9, note=36, velocity=100, time=120),
    Message('note_on', channel=9, note=49, velocity=100, time=0),
    Message('note_on', channel=9, note=49, velocity=0, time=120),
    Message('note_on', channel=9, note=40, velocity=0, time=0),
    Message('note_on', channel=9, note=36, velocity=0, time=120),
    Message('note_on', channel=9, note=36, velocity=100, time=0),
    Message('note_on', channel=9, note=57, velocity=100, time=0),
    Message('note_on', channel=9, note=57, velocity=0, time=120),
    Message('note_on', channel=9, note=36, velocity=0, time=120),
    Message('note_on', channel=9, note=40, velocity=100, time=0),
    Message('note_on', channel=9, note=55, velocity=100, time=0),
    Message('note_on', channel=9, note=40, velocity=0, time=60),
    Message('note_on', channel=9, note=55, velocity=0, time=60),
    Message('note_on', channel=9, note=55, velocity=100, time=120),
    Message('note_on', channel=9, note=55, velocity=0, time=120),
    Message('note_on', channel=9, note=55, velocity=100, time=120),
    Message('note_on', channel=9, note=36, velocity=100, time=0),
    Message('note_on', channel=9, note=36, velocity=0, time=60),
    Message('note_on', channel=9, note=55, velocity=0, time=60),
    Message('note_on', channel=9, note=40, velocity=100, time=0),
    Message('note_on', channel=9, note=40, velocity=0, time=60),
    Message('note_on', channel=9, note=40, velocity=100, time=20),
    Message('note_on', channel=9, note=55, velocity=100, time=40),
    Message('note_on', channel=9, note=40, velocity=100, time=0),
    Message('note_on', channel=9, note=40, velocity=0, time=80),
    Message('note_on', channel=9, note=40, velocity=0, time=40),
    Message('note_on', channel=9, note=55, velocity=0, time=0),
    Message('note_on', channel=9, note=40, velocity=100, time=0),
    Message('note_on', channel=9, note=55, velocity=100, time=120),
    Message('note_on', channel=9, note=40, velocity=100, time=0),
    Message('note_on', channel=9, note=55, velocity=0, time=120),
    Message('note_on', channel=9, note=40, velocity=0, time=0),
    Message('note_on', channel=9, note=40, velocity=100, time=0),
    Message('note_on', channel=9, note=40, velocity=0, time=120),
    Message('note_on', channel=9, note=40, velocity=0, time=0),
    Message('note_on', channel=9, note=55, velocity=100, time=0),
    Message('note_on', channel=9, note=40, velocity=100, time=0),
    Message('note_on', channel=9, note=55, velocity=0, time=120),
    Message('note_on', channel=9, note=40, velocity=0, time=120),
    Message('note_on', channel=9, note=36, velocity=100, time=0),
    Message('note_on', channel=9, note=49, velocity=100, time=0),
    Message('note_on', channel=9, note=49, velocity=0, time=120),
    Message('note_on', channel=9, note=36, velocity=0, time=120),
    Message('note_on', channel=9, note=36, velocity=100, time=0),
    Message('note_on', channel=9, note=55, velocity=100, time=0),
    Message('note_on', channel=9, note=55, velocity=0, time=120),
    Message('note_on', channel=9, note=36, velocity=0, time=120),
    Message('note_on', channel=9, note=40, velocity=100, time=0),
    Message('note_on', channel=9, note=55, velocity=100, time=0),
    Message('note_on', channel=9, note=40, velocity=0, time=60),
    Message('note_on', channel=9, note=55, velocity=0, time=60),
    Message('note_on', channel=9, note=55, velocity=100, time=120),
    Message('note_on', channel=9, note=55, velocity=0, time=120),
    Message('note_on', channel=9, note=36, velocity=100, time=120),
    Message('note_on', channel=9, note=55, velocity=100, time=0),
    Message('note_on', channel=9, note=36, velocity=0, time=60),
    Message('note_on', channel=9, note=55, velocity=0, time=60),
    Message('note_on', channel=9, note=40, velocity=100, time=0),
    Message('note_on', channel=9, note=40, velocity=0, time=60),
    Message('note_on', channel=9, note=55, velocity=100, time=60),
    Message('note_on', channel=9, note=55, velocity=0, time=120),
    Message('note_on', channel=9, note=36, velocity=100, time=0),
    Message('note_on', channel=9, note=40, velocity=100, time=120),
    Message('note_on', channel=9, note=55, velocity=100, time=0),
    Message('note_on', channel=9, note=55, velocity=0, time=120),
    Message('note_on', channel=9, note=36, velocity=0, time=0),
    Message('note_on', channel=9, note=40, velocity=0, time=120),
    Message('note_on', channel=9, note=55, velocity=100, time=0),
    Message('note_on', channel=9, note=55, velocity=0, time=120),
    Message('note_on', channel=9, note=40, velocity=100, time=0),
    Message('note_on', channel=9, note=36, velocity=100, time=120),
    Message('note_on', channel=9, note=55, velocity=100, time=0),
    Message('note_on', channel=9, note=55, velocity=0, time=120),
    Message('note_on', channel=9, note=40, velocity=0, time=0),
    Message('note_on', channel=9, note=36, velocity=0, time=120),
    Message('note_on', channel=9, note=36, velocity=100, time=0),
    Message('note_on', channel=9, note=55, velocity=100, time=0),
    Message('note_on', channel=9, note=55, velocity=0, time=120),
    Message('note_on', channel=9, note=36, velocity=0, time=120),
    Message('note_on', channel=9, note=40, velocity=100, time=0),
    Message('note_on', channel=9, note=55, velocity=100, time=0),
    Message('note_on', channel=9, note=40, velocity=0, time=60),
    Message('note_on', channel=9, note=55, velocity=0, time=60),
    Message('note_on', channel=9, note=55, velocity=100, time=120),
    Message('note_on', channel=9, note=55, velocity=0, time=120),
    Message('note_on', channel=9, note=36, velocity=100, time=120),
    Message('note_on', channel=9, note=55, velocity=100, time=0),
    Message('note_on', channel=9, note=36, velocity=0, time=60),
    Message('note_on', channel=9, note=55, velocity=0, time=60),
    Message('note_on', channel=9, note=40, velocity=100, time=0),
    Message('note_on', channel=9, note=40, velocity=0, time=60),
    Message('note_on', channel=9, note=55, velocity=100, time=60),
    Message('note_on', channel=9, note=55, velocity=0, time=120),
    Message('note_on', channel=9, note=36, velocity=100, time=0),
    Message('note_on', channel=9, note=55, velocity=100, time=120),
    Message('note_on', channel=9, note=55, velocity=0, time=120),
    Message('note_on', channel=9, note=36, velocity=0, time=0),
    Message('note_on', channel=9, note=36, velocity=100, time=0),
    Message('note_on', channel=9, note=40, velocity=100, time=120),
    Message('note_on', channel=9, note=55, velocity=100, time=0),
    Message('note_on', channel=9, note=55, velocity=0, time=120),
    Message('note_on', channel=9, note=36, velocity=0, time=0),
    Message('note_on', channel=9, note=40, velocity=0, time=120),
    Message('note_on', channel=9, note=36, velocity=100, time=0),
    Message('note_on', channel=9, note=49, velocity=100, time=0),
    Message('note_on', channel=9, note=49, velocity=0, time=120),
    Message('note_on', channel=9, note=36, velocity=0, time=120),
    Message('note_on', channel=9, note=36, velocity=100, time=0),
    Message('note_on', channel=9, note=57, velocity=100, time=0),
    Message('note_on', channel=9, note=57, velocity=0, time=120),
    Message('note_on', channel=9, note=36, velocity=0, time=120),
    Message('note_on', channel=9, note=40, velocity=100, time=0),
    Message('note_on', channel=9, note=55, velocity=100, time=0),
    Message('note_on', channel=9, note=40, velocity=0, time=60),
    Message('note_on', channel=9, note=55, velocity=0, time=60),
    Message('note_on', channel=9, note=55, velocity=100, time=120),
    Message('note_on', channel=9, note=55, velocity=0, time=120),
    Message('note_on', channel=9, note=36, velocity=100, time=120),
    Message('note_on', channel=9, note=55, velocity=100, time=0),
    Message('note_on', channel=9, note=36, velocity=0, time=60),
    Message('note_on', channel=9, note=55, velocity=0, time=60),
    Message('note_on', channel=9, note=40, velocity=100, time=0),
    Message('note_on', channel=9, note=40, velocity=0, time=60),
    Message('note_on', channel=9, note=55, velocity=100, time=60),
    Message('note_on', channel=9, note=55, velocity=0, time=120),
    Message('note_on', channel=9, note=36, velocity=100, time=0),
    Message('note_on', channel=9, note=40, velocity=100, time=120),
    Message('note_on', channel=9, note=55, velocity=100, time=0),
    Message('note_on', channel=9, note=55, velocity=0, time=120),
    Message('note_on', channel=9, note=36, velocity=0, time=0),
    Message('note_on', channel=9, note=40, velocity=0, time=120),
    Message('note_on', channel=9, note=55, velocity=100, time=0),
    Message('note_on', channel=9, note=55, velocity=0, time=120),
    Message('note_on', channel=9, note=40, velocity=100, time=0),
    Message('note_on', channel=9, note=36, velocity=100, time=120),
    Message('note_on', channel=9, note=49, velocity=100, time=0),
    Message('note_on', channel=9, note=49, velocity=0, time=120),
    Message('note_on', channel=9, note=40, velocity=0, time=0),
    Message('note_on', channel=9, note=36, velocity=0, time=120),
    Message('note_on', channel=9, note=36, velocity=100, time=0),
    Message('note_on', channel=9, note=57, velocity=100, time=0),
    Message('note_on', channel=9, note=57, velocity=0, time=120),
    Message('note_on', channel=9, note=36, velocity=0, time=120),
    Message('note_on', channel=9, note=40, velocity=100, time=0),
    Message('note_on', channel=9, note=55, velocity=100, time=0),
    Message('note_on', channel=9, note=40, velocity=0, time=60),
    Message('note_on', channel=9, note=55, velocity=0, time=60),
    Message('note_on', channel=9, note=55, velocity=100, time=120),
    Message('note_on', channel=9, note=55, velocity=0, time=120),
    Message('note_on', channel=9, note=55, velocity=100, time=120),
    Message('note_on', channel=9, note=36, velocity=100, time=0),
    Message('note_on', channel=9, note=36, velocity=0, time=60),
    Message('note_on', channel=9, note=55, velocity=0, time=60),
    Message('note_on', channel=9, note=40, velocity=100, time=0),
    Message('note_on', channel=9, note=40, velocity=0, time=60),
    Message('note_on', channel=9, note=55, velocity=100, time=60),
    Message('note_on', channel=9, note=55, velocity=0, time=120),
    Message('note_on', channel=9, note=36, velocity=100, time=0),
    Message('note_on', channel=9, note=55, velocity=100, time=120),
    Message('note_on', channel=9, note=40, velocity=100, time=0),
    Message('note_on', channel=9, note=40, velocity=0, time=120),
    Message('note_on', channel=9, note=55, velocity=0, time=0),
    Message('note_on', channel=9, note=36, velocity=0, time=0),
    Message('note_on', channel=9, note=36, velocity=100, time=0),
    Message('note_on', channel=9, note=55, velocity=100, time=120),
    Message('note_on', channel=9, note=40, velocity=100, time=0),
    Message('note_on', channel=9, note=55, velocity=0, time=120),
    Message('note_on', channel=9, note=36, velocity=0, time=0),
    Message('note_on', channel=9, note=40, velocity=0, time=120),
    Message('note_on', channel=9, note=42, velocity=100, time=0),
    Message('note_on', channel=9, note=40, velocity=100, time=0),
    Message('note_on', channel=9, note=40, velocity=0, time=120),
    Message('note_on', channel=9, note=42, velocity=0, time=0),
    Message('note_on', channel=9, note=42, velocity=100, time=0),
    Message('note_on', channel=9, note=40, velocity=100, time=0),
    Message('note_on', channel=9, note=40, velocity=0, time=120),
    Message('note_on', channel=9, note=42, velocity=0, time=0),
    Message('note_on', channel=9, note=42, velocity=100, time=120),
    Message('note_on', channel=9, note=40, velocity=100, time=0),
    Message('note_on', channel=9, note=40, velocity=0, time=120),
    Message('note_on', channel=9, note=42, velocity=0, time=0),
    Message('note_on', channel=9, note=42, velocity=100, time=120),
    Message('note_on', channel=9, note=40, velocity=100, time=0),
    Message('note_on', channel=9, note=40, velocity=0, time=120),
    Message('note_on', channel=9, note=42, velocity=0, time=0),
    Message('note_on', channel=9, note=42, velocity=100, time=120),
    Message('note_on', channel=9, note=40, velocity=100, time=0),
    Message('note_on', channel=9, note=40, velocity=0, time=120),
    Message('note_on', channel=9, note=42, velocity=0, time=0),
    Message('note_on', channel=9, note=42, velocity=100, time=120),
    Message('note_on', channel=9, note=40, velocity=100, time=0),
    Message('note_on', channel=9, note=40, velocity=0, time=120),
    Message('note_on', channel=9, note=42, velocity=0, time=0),
    Message('note_on', channel=9, note=45, velocity=100, time=120),
    Message('note_on', channel=9, note=43, velocity=100, time=0),
    Message('note_on', channel=9, note=43, velocity=0, time=120),
    Message('note_on', channel=9, note=45, velocity=0, time=0),
    Message('note_on', channel=9, note=45, velocity=100, time=0),
    Message('note_on', channel=9, note=43, velocity=100, time=0),
    Message('note_on', channel=9, note=43, velocity=0, time=120),
    Message('note_on', channel=9, note=45, velocity=0, time=0),
    Message('note_on', channel=9, note=47, velocity=100, time=0),
    Message('note_on', channel=9, note=45, velocity=100, time=0),
    Message('note_on', channel=9, note=45, velocity=0, time=120),
    Message('note_on', channel=9, note=47, velocity=0, time=0),
    Message('note_on', channel=9, note=47, velocity=100, time=0),
    Message('note_on', channel=9, note=45, velocity=100, time=0),
    Message('note_on', channel=9, note=45, velocity=0, time=120),
    Message('note_on', channel=9, note=47, velocity=0, time=0),
    Message('note_on', channel=9, note=42, velocity=100, time=120),
    Message('note_on', channel=9, note=40, velocity=100, time=0),
    Message('note_on', channel=9, note=40, velocity=0, time=120),
    Message('note_on', channel=9, note=42, velocity=0, time=0),
    Message('note_on', channel=9, note=42, velocity=100, time=0),
    Message('note_on', channel=9, note=40, velocity=100, time=0),
    Message('note_on', channel=9, note=40, velocity=0, time=120),
    Message('note_on', channel=9, note=42, velocity=0, time=0),
    Message('note_on', channel=9, note=42, velocity=100, time=120),
    Message('note_on', channel=9, note=40, velocity=100, time=0),
    Message('note_on', channel=9, note=40, velocity=0, time=120),
    Message('note_on', channel=9, note=42, velocity=0, time=0),
    Message('note_on', channel=9, note=42, velocity=100, time=120),
    Message('note_on', channel=9, note=40, velocity=100, time=0),
    Message('note_on', channel=9, note=40, velocity=0, time=120),
    Message('note_on', channel=9, note=42, velocity=0, time=0),
    Message('note_on', channel=9, note=42, velocity=100, time=120),
    Message('note_on', channel=9, note=40, velocity=100, time=0),
    Message('note_on', channel=9, note=40, velocity=0, time=120),
    Message('note_on', channel=9, note=42, velocity=0, time=0),
    Message('note_on', channel=9, note=42, velocity=100, time=120),
    Message('note_on', channel=9, note=40, velocity=100, time=0),
    Message('note_on', channel=9, note=40, velocity=0, time=120),
    Message('note_on', channel=9, note=42, velocity=0, time=0),
    Message('note_on', channel=9, note=45, velocity=100, time=120),
    Message('note_on', channel=9, note=43, velocity=100, time=0),
    Message('note_on', channel=9, note=43, velocity=0, time=120),
    Message('note_on', channel=9, note=45, velocity=0, time=0),
    Message('note_on', channel=9, note=45, velocity=100, time=0),
    Message('note_on', channel=9, note=43, velocity=100, time=0),
    Message('note_on', channel=9, note=43, velocity=0, time=120),
    Message('note_on', channel=9, note=45, velocity=0, time=0),
    Message('note_on', channel=9, note=47, velocity=100, time=0),
    Message('note_on', channel=9, note=45, velocity=100, time=0),
    Message('note_on', channel=9, note=45, velocity=0, time=120),
    Message('note_on', channel=9, note=47, velocity=0, time=0),
    Message('note_on', channel=9, note=47, velocity=100, time=0),
    Message('note_on', channel=9, note=45, velocity=100, time=0),
    Message('note_on', channel=9, note=45, velocity=0, time=120),
    Message('note_on', channel=9, note=47, velocity=0, time=0),
    Message('note_on', channel=9, note=36, velocity=100, time=120),
    Message('note_on', channel=9, note=42, velocity=100, time=0),
    Message('note_on', channel=9, note=42, velocity=0, time=120),
    Message('note_on', channel=9, note=36, velocity=0, time=0),
    Message('note_on', channel=9, note=36, velocity=100, time=0),
    Message('note_on', channel=9, note=42, velocity=100, time=0),
    Message('note_on', channel=9, note=42, velocity=0, time=120),
    Message('note_on', channel=9, note=36, velocity=0, time=0),
    Message('note_on', channel=9, note=40, velocity=100, time=0),
    Message('note_on', channel=9, note=42, velocity=100, time=0),
    Message('note_on', channel=9, note=42, velocity=0, time=120),
    Message('note_on', channel=9, note=40, velocity=0, time=0),
    Message('note_on', channel=9, note=42, velocity=100, time=0),
    Message('note_on', channel=9, note=42, velocity=0, time=120),
    Message('note_on', channel=9, note=36, velocity=100, time=0),
    Message('note_on', channel=9, note=42, velocity=100, time=0),
    Message('note_on', channel=9, note=42, velocity=0, time=120),
    Message('note_on', channel=9, note=36, velocity=0, time=0),
    Message('note_on', channel=9, note=36, velocity=100, time=0),
    Message('note_on', channel=9, note=42, velocity=100, time=0),
    Message('note_on', channel=9, note=42, velocity=0, time=120),
    Message('note_on', channel=9, note=36, velocity=0, time=0),
    Message('note_on', channel=9, note=40, velocity=100, time=0),
    Message('note_on', channel=9, note=42, velocity=100, time=0),
    Message('note_on', channel=9, note=42, velocity=0, time=120),
    Message('note_on', channel=9, note=40, velocity=0, time=0),
    Message('note_on', channel=9, note=42, velocity=100, time=0),
    Message('note_on', channel=9, note=42, velocity=0, time=120),
    Message('note_on', channel=9, note=42, velocity=100, time=0),
    Message('note_on', channel=9, note=36, velocity=100, time=0),
    Message('note_on', channel=9, note=36, velocity=0, time=120),
    Message('note_on', channel=9, note=42, velocity=0, time=0),
    Message('note_on', channel=9, note=42, velocity=100, time=0),
    Message('note_on', channel=9, note=36, velocity=100, time=0),
    Message('note_on', channel=9, note=36, velocity=0, time=120),
    Message('note_on', channel=9, note=42, velocity=0, time=0),
    Message('note_on', channel=9, note=42, velocity=100, time=0),
    Message('note_on', channel=9, note=40, velocity=100, time=0),
    Message('note_on', channel=9, note=40, velocity=0, time=120),
    Message('note_on', channel=9, note=42, velocity=0, time=0),
    Message('note_on', channel=9, note=42, velocity=100, time=0),
    Message('note_on', channel=9, note=36, velocity=100, time=0),
    Message('note_on', channel=9, note=36, velocity=0, time=120),
    Message('note_on', channel=9, note=42, velocity=0, time=0),
    Message('note_on', channel=9, note=42, velocity=100, time=0),
    Message('note_on', channel=9, note=42, velocity=0, time=120),
    Message('note_on', channel=9, note=36, velocity=100, time=0),
    Message('note_on', channel=9, note=42, velocity=100, time=0),
    Message('note_on', channel=9, note=42, velocity=0, time=120),
    Message('note_on', channel=9, note=36, velocity=0, time=0),
    Message('note_on', channel=9, note=40, velocity=100, time=0),
    Message('note_on', channel=9, note=42, velocity=100, time=0),
    Message('note_on', channel=9, note=42, velocity=0, time=120),
    Message('note_on', channel=9, note=40, velocity=0, time=0),
    Message('note_on', channel=9, note=42, velocity=100, time=0),
    Message('note_on', channel=9, note=40, velocity=100, time=0),
    Message('note_on', channel=9, note=40, velocity=0, time=120),
    Message('note_on', channel=9, note=42, velocity=0, time=0),
    Message('note_on', channel=9, note=40, velocity=100, time=0),
    Message('note_on', channel=9, note=42, velocity=100, time=0),
    Message('note_on', channel=9, note=42, velocity=0, time=120),
    Message('note_on', channel=9, note=40, velocity=0, time=0),
    Message('note_on', channel=9, note=42, velocity=100, time=0),
    Message('note_on', channel=9, note=36, velocity=100, time=0),
    Message('note_on', channel=9, note=36, velocity=0, time=120),
    Message('note_on', channel=9, note=42, velocity=0, time=0),
    Message('note_on', channel=9, note=40, velocity=100, time=0),
    Message('note_on', channel=9, note=42, velocity=100, time=0),
    Message('note_on', channel=9, note=42, velocity=0, time=120),
    Message('note_on', channel=9, note=40, velocity=0, time=0),
    Message('note_on', channel=9, note=42, velocity=100, time=0),
    Message('note_on', channel=9, note=42, velocity=0, time=120),
    Message('note_on', channel=9, note=36, velocity=100, time=0),
    Message('note_on', channel=9, note=42, velocity=100, time=0),
    Message('note_on', channel=9, note=42, velocity=0, time=120),
    Message('note_on', channel=9, note=36, velocity=0, time=0),
    Message('note_on', channel=9, note=36, velocity=100, time=0),
    Message('note_on', channel=9, note=42, velocity=100, time=0),
    Message('note_on', channel=9, note=42, velocity=0, time=120),
    Message('note_on', channel=9, note=36, velocity=0, time=0),
    Message('note_on', channel=9, note=40, velocity=100, time=0),
    Message('note_on', channel=9, note=42, velocity=100, time=0),
    Message('note_on', channel=9, note=42, velocity=0, time=120),
    Message('note_on', channel=9, note=40, velocity=0, time=0),
    Message('note_on', channel=9, note=42, velocity=100, time=0),
    Message('note_on', channel=9, note=42, velocity=0, time=120),
    Message('note_on', channel=9, note=42, velocity=100, time=0),
    Message('note_on', channel=9, note=36, velocity=100, time=0),
    Message('note_on', channel=9, note=36, velocity=0, time=120),
    Message('note_on', channel=9, note=42, velocity=0, time=0),
    Message('note_on', channel=9, note=42, velocity=100, time=0),
    Message('note_on', channel=9, note=36, velocity=100, time=0),
    Message('note_on', channel=9, note=36, velocity=0, time=120),
    Message('note_on', channel=9, note=42, velocity=0, time=0),
    Message('note_on', channel=9, note=42, velocity=100, time=0),
    Message('note_on', channel=9, note=40, velocity=100, time=0),
    Message('note_on', channel=9, note=40, velocity=0, time=120),
    Message('note_on', channel=9, note=42, velocity=0, time=0),
    Message('note_on', channel=9, note=42, velocity=100, time=0),
    Message('note_on', channel=9, note=36, velocity=100, time=0),
    Message('note_on', channel=9, note=36, velocity=0, time=120),
    Message('note_on', channel=9, note=42, velocity=0, time=0),
    Message('note_on', channel=9, note=42, velocity=100, time=0),
    Message('note_on', channel=9, note=42, velocity=0, time=120),
    Message('note_on', channel=9, note=36, velocity=100, time=0),
    Message('note_on', channel=9, note=42, velocity=100, time=0),
    Message('note_on', channel=9, note=42, velocity=0, time=120),
    Message('note_on', channel=9, note=36, velocity=0, time=0),
    Message('note_on', channel=9, note=40, velocity=100, time=0),
    Message('note_on', channel=9, note=42, velocity=100, time=0),
    Message('note_on', channel=9, note=42, velocity=0, time=120),
    Message('note_on', channel=9, note=40, velocity=0, time=0),
    Message('note_on', channel=9, note=42, velocity=100, time=0),
    Message('note_on', channel=9, note=40, velocity=100, time=0),
    Message('note_on', channel=9, note=40, velocity=0, time=120),
    Message('note_on', channel=9, note=42, velocity=0, time=0),
    Message('note_on', channel=9, note=40, velocity=100, time=0),
    Message('note_on', channel=9, note=42, velocity=100, time=0),
    Message('note_on', channel=9, note=42, velocity=0, time=120),
    Message('note_on', channel=9, note=40, velocity=0, time=0),
    Message('note_on', channel=9, note=42, velocity=100, time=0),
    Message('note_on', channel=9, note=36, velocity=100, time=0),
    Message('note_on', channel=9, note=36, velocity=0, time=120),
    Message('note_on', channel=9, note=42, velocity=0, time=0),
    Message('note_on', channel=9, note=40, velocity=100, time=0),
    Message('note_on', channel=9, note=42, velocity=100, time=0),
    Message('note_on', channel=9, note=42, velocity=0, time=120),
    Message('note_on', channel=9, note=40, velocity=0, time=0),
    Message('note_on', channel=9, note=42, velocity=100, time=0),
    Message('note_on', channel=9, note=42, velocity=0, time=120),
    Message('note_on', channel=9, note=36, velocity=100, time=0),
    Message('note_on', channel=9, note=42, velocity=100, time=0),
    Message('note_on', channel=9, note=42, velocity=0, time=120),
    Message('note_on', channel=9, note=36, velocity=0, time=0),
    Message('note_on', channel=9, note=36, velocity=100, time=0),
    Message('note_on', channel=9, note=42, velocity=100, time=0),
    Message('note_on', channel=9, note=42, velocity=0, time=120),
    Message('note_on', channel=9, note=36, velocity=0, time=0),
    Message('note_on', channel=9, note=40, velocity=100, time=0),
    Message('note_on', channel=9, note=42, velocity=100, time=0),
    Message('note_on', channel=9, note=42, velocity=0, time=120),
    Message('note_on', channel=9, note=40, velocity=0, time=0),
    Message('note_on', channel=9, note=42, velocity=100, time=0),
    Message('note_on', channel=9, note=42, velocity=0, time=120),
    Message('note_on', channel=9, note=42, velocity=100, time=0),
    Message('note_on', channel=9, note=36, velocity=100, time=0),
    Message('note_on', channel=9, note=36, velocity=0, time=120),
    Message('note_on', channel=9, note=42, velocity=0, time=0),
    Message('note_on', channel=9, note=42, velocity=100, time=0),
    Message('note_on', channel=9, note=36, velocity=100, time=0),
    Message('note_on', channel=9, note=36, velocity=0, time=120),
    Message('note_on', channel=9, note=42, velocity=0, time=0),
    Message('note_on', channel=9, note=42, velocity=100, time=0),
    Message('note_on', channel=9, note=40, velocity=100, time=0),
    Message('note_on', channel=9, note=40, velocity=0, time=120),
    Message('note_on', channel=9, note=42, velocity=0, time=0),
    Message('note_on', channel=9, note=42, velocity=100, time=0),
    Message('note_on', channel=9, note=36, velocity=100, time=0),
    Message('note_on', channel=9, note=36, velocity=0, time=120),
    Message('note_on', channel=9, note=42, velocity=0, time=0),
    Message('note_on', channel=9, note=42, velocity=100, time=0),
    Message('note_on', channel=9, note=42, velocity=0, time=120),
    Message('note_on', channel=9, note=36, velocity=100, time=0),
    Message('note_on', channel=9, note=42, velocity=100, time=0),
    Message('note_on', channel=9, note=42, velocity=0, time=120),
    Message('note_on', channel=9, note=36, velocity=0, time=0),
    Message('note_on', channel=9, note=40, velocity=100, time=0),
    Message('note_on', channel=9, note=42, velocity=100, time=0),
    Message('note_on', channel=9, note=42, velocity=0, time=120),
    Message('note_on', channel=9, note=40, velocity=0, time=0),
    Message('note_on', channel=9, note=42, velocity=100, time=0),
    Message('note_on', channel=9, note=40, velocity=100, time=0),
    Message('note_on', channel=9, note=40, velocity=0, time=120),
    Message('note_on', channel=9, note=42, velocity=0, time=0),
    Message('note_on', channel=9, note=40, velocity=100, time=0),
    Message('note_on', channel=9, note=42, velocity=100, time=0),
    Message('note_on', channel=9, note=42, velocity=0, time=120),
    Message('note_on', channel=9, note=40, velocity=0, time=0),
    Message('note_on', channel=9, note=42, velocity=100, time=0),
    Message('note_on', channel=9, note=36, velocity=100, time=0),
    Message('note_on', channel=9, note=36, velocity=0, time=120),
    Message('note_on', channel=9, note=42, velocity=0, time=0),
    Message('note_on', channel=9, note=40, velocity=100, time=0),
    Message('note_on', channel=9, note=42, velocity=100, time=0),
    Message('note_on', channel=9, note=42, velocity=0, time=120),
    Message('note_on', channel=9, note=40, velocity=0, time=0),
    Message('note_on', channel=9, note=42, velocity=100, time=0),
    Message('note_on', channel=9, note=42, velocity=0, time=120),
    Message('note_on', channel=9, note=36, velocity=100, time=0),
    Message('note_on', channel=9, note=42, velocity=100, time=0),
    Message('note_on', channel=9, note=42, velocity=0, time=120),
    Message('note_on', channel=9, note=36, velocity=0, time=0),
    Message('note_on', channel=9, note=36, velocity=100, time=0),
    Message('note_on', channel=9, note=42, velocity=100, time=0),
    Message('note_on', channel=9, note=42, velocity=0, time=120),
    Message('note_on', channel=9, note=36, velocity=0, time=0),
    Message('note_on', channel=9, note=40, velocity=100, time=0),
    Message('note_on', channel=9, note=42, velocity=100, time=0),
    Message('note_on', channel=9, note=42, velocity=0, time=120),
    Message('note_on', channel=9, note=40, velocity=0, time=0),
    Message('note_on', channel=9, note=42, velocity=100, time=0),
    Message('note_on', channel=9, note=42, velocity=0, time=120),
    Message('note_on', channel=9, note=42, velocity=100, time=0),
    Message('note_on', channel=9, note=36, velocity=100, time=0),
    Message('note_on', channel=9, note=36, velocity=0, time=120),
    Message('note_on', channel=9, note=42, velocity=0, time=0),
    Message('note_on', channel=9, note=42, velocity=100, time=0),
    Message('note_on', channel=9, note=36, velocity=100, time=0),
    Message('note_on', channel=9, note=36, velocity=0, time=120),
    Message('note_on', channel=9, note=42, velocity=0, time=0),
    Message('note_on', channel=9, note=42, velocity=100, time=0),
    Message('note_on', channel=9, note=40, velocity=100, time=0),
    Message('note_on', channel=9, note=40, velocity=0, time=120),
    Message('note_on', channel=9, note=42, velocity=0, time=0),
    Message('note_on', channel=9, note=42, velocity=100, time=0),
    Message('note_on', channel=9, note=36, velocity=100, time=0),
    Message('note_on', channel=9, note=36, velocity=0, time=120),
    Message('note_on', channel=9, note=42, velocity=0, time=0),
    Message('note_on', channel=9, note=42, velocity=100, time=0),
    Message('note_on', channel=9, note=42, velocity=0, time=120),
    Message('note_on', channel=9, note=36, velocity=100, time=0),
    Message('note_on', channel=9, note=42, velocity=100, time=0),
    Message('note_on', channel=9, note=42, velocity=0, time=120),
    Message('note_on', channel=9, note=36, velocity=0, time=0),
    Message('note_on', channel=9, note=40, velocity=100, time=0),
    Message('note_on', channel=9, note=42, velocity=100, time=0),
    Message('note_on', channel=9, note=42, velocity=0, time=120),
    Message('note_on', channel=9, note=40, velocity=0, time=0),
    Message('note_on', channel=9, note=42, velocity=100, time=0),
    Message('note_on', channel=9, note=40, velocity=100, time=0),
    Message('note_on', channel=9, note=40, velocity=0, time=120),
    Message('note_on', channel=9, note=42, velocity=0, time=0),
    Message('note_on', channel=9, note=40, velocity=100, time=0),
    Message('note_on', channel=9, note=42, velocity=100, time=0),
    Message('note_on', channel=9, note=42, velocity=0, time=120),
    Message('note_on', channel=9, note=40, velocity=0, time=0),
    Message('note_on', channel=9, note=42, velocity=100, time=0),
    Message('note_on', channel=9, note=36, velocity=100, time=0),
    Message('note_on', channel=9, note=36, velocity=0, time=120),
    Message('note_on', channel=9, note=42, velocity=0, time=0),
    Message('note_on', channel=9, note=40, velocity=100, time=0),
    Message('note_on', channel=9, note=42, velocity=100, time=0),
    Message('note_on', channel=9, note=42, velocity=0, time=120),
    Message('note_on', channel=9, note=40, velocity=0, time=0),
    Message('note_on', channel=9, note=42, velocity=100, time=0),
    Message('note_on', channel=9, note=42, velocity=0, time=120),
    Message('note_on', channel=9, note=36, velocity=100, time=0),
    Message('note_on', channel=9, note=42, velocity=100, time=0),
    Message('note_on', channel=9, note=42, velocity=0, time=120),
    Message('note_on', channel=9, note=36, velocity=0, time=0),
    Message('note_on', channel=9, note=36, velocity=100, time=0),
    Message('note_on', channel=9, note=42, velocity=100, time=0),
    Message('note_on', channel=9, note=42, velocity=0, time=120),
    Message('note_on', channel=9, note=36, velocity=0, time=0),
    Message('note_on', channel=9, note=40, velocity=100, time=0),
    Message('note_on', channel=9, note=42, velocity=100, time=0),
    Message('note_on', channel=9, note=42, velocity=0, time=120),
    Message('note_on', channel=9, note=40, velocity=0, time=0),
    Message('note_on', channel=9, note=42, velocity=100, time=0),
    Message('note_on', channel=9, note=42, velocity=0, time=120),
    Message('note_on', channel=9, note=42, velocity=100, time=0),
    Message('note_on', channel=9, note=36, velocity=100, time=0),
    Message('note_on', channel=9, note=36, velocity=0, time=120),
    Message('note_on', channel=9, note=42, velocity=0, time=0),
    Message('note_on', channel=9, note=42, velocity=100, time=0),
    Message('note_on', channel=9, note=36, velocity=100, time=0),
    Message('note_on', channel=9, note=36, velocity=0, time=120),
    Message('note_on', channel=9, note=42, velocity=0, time=0),
    Message('note_on', channel=9, note=42, velocity=100, time=0),
    Message('note_on', channel=9, note=40, velocity=100, time=0),
    Message('note_on', channel=9, note=40, velocity=0, time=120),
    Message('note_on', channel=9, note=42, velocity=0, time=0),
    Message('note_on', channel=9, note=42, velocity=100, time=0),
    Message('note_on', channel=9, note=36, velocity=100, time=0),
    Message('note_on', channel=9, note=36, velocity=0, time=120),
    Message('note_on', channel=9, note=42, velocity=0, time=0),
    Message('note_on', channel=9, note=42, velocity=100, time=0),
    Message('note_on', channel=9, note=42, velocity=0, time=120),
    Message('note_on', channel=9, note=36, velocity=100, time=0),
    Message('note_on', channel=9, note=42, velocity=100, time=0),
    Message('note_on', channel=9, note=42, velocity=0, time=120),
    Message('note_on', channel=9, note=36, velocity=0, time=0),
    Message('note_on', channel=9, note=40, velocity=100, time=0),
    Message('note_on', channel=9, note=42, velocity=100, time=0),
    Message('note_on', channel=9, note=42, velocity=0, time=120),
    Message('note_on', channel=9, note=40, velocity=0, time=0),
    Message('note_on', channel=9, note=42, velocity=100, time=0),
    Message('note_on', channel=9, note=40, velocity=100, time=0),
    Message('note_on', channel=9, note=40, velocity=0, time=120),
    Message('note_on', channel=9, note=42, velocity=0, time=0),
    Message('note_on', channel=9, note=40, velocity=100, time=0),
    Message('note_on', channel=9, note=42, velocity=100, time=0),
    Message('note_on', channel=9, note=42, velocity=0, time=120),
    Message('note_on', channel=9, note=40, velocity=0, time=0),
    Message('note_on', channel=9, note=42, velocity=100, time=0),
    Message('note_on', channel=9, note=36, velocity=100, time=0),
    Message('note_on', channel=9, note=36, velocity=0, time=120),
    Message('note_on', channel=9, note=42, velocity=0, time=0),
    Message('note_on', channel=9, note=40, velocity=100, time=0),
    Message('note_on', channel=9, note=42, velocity=100, time=0),
    Message('note_on', channel=9, note=42, velocity=0, time=120),
    Message('note_on', channel=9, note=40, velocity=0, time=0),
    Message('note_on', channel=9, note=42, velocity=100, time=0),
    Message('note_on', channel=9, note=42, velocity=0, time=120),
    Message('note_on', channel=9, note=36, velocity=100, time=0),
    Message('note_on', channel=9, note=42, velocity=100, time=0),
    Message('note_on', channel=9, note=42, velocity=0, time=120),
    Message('note_on', channel=9, note=36, velocity=0, time=0),
    Message('note_on', channel=9, note=36, velocity=100, time=0),
    Message('note_on', channel=9, note=42, velocity=100, time=0),
    Message('note_on', channel=9, note=42, velocity=0, time=120),
    Message('note_on', channel=9, note=36, velocity=0, time=0),
    Message('note_on', channel=9, note=40, velocity=100, time=0),
    Message('note_on', channel=9, note=42, velocity=100, time=0),
    Message('note_on', channel=9, note=42, velocity=0, time=120),
    Message('note_on', channel=9, note=40, velocity=0, time=0),
    Message('note_on', channel=9, note=42, velocity=100, time=0),
    Message('note_on', channel=9, note=42, velocity=0, time=120),
    Message('note_on', channel=9, note=42, velocity=100, time=0),
    Message('note_on', channel=9, note=36, velocity=100, time=0),
    Message('note_on', channel=9, note=36, velocity=0, time=120),
    Message('note_on', channel=9, note=42, velocity=0, time=0),
    Message('note_on', channel=9, note=42, velocity=100, time=0),
    Message('note_on', channel=9, note=36, velocity=100, time=0),
    Message('note_on', channel=9, note=36, velocity=0, time=120),
    Message('note_on', channel=9, note=42, velocity=0, time=0),
    Message('note_on', channel=9, note=42, velocity=100, time=0),
    Message('note_on', channel=9, note=40, velocity=100, time=0),
    Message('note_on', channel=9, note=40, velocity=0, time=120),
    Message('note_on', channel=9, note=42, velocity=0, time=0),
    Message('note_on', channel=9, note=42, velocity=100, time=0),
    Message('note_on', channel=9, note=36, velocity=100, time=0),
    Message('note_on', channel=9, note=36, velocity=0, time=120),
    Message('note_on', channel=9, note=42, velocity=0, time=0),
    Message('note_on', channel=9, note=42, velocity=100, time=0),
    Message('note_on', channel=9, note=42, velocity=0, time=120),
    Message('note_on', channel=9, note=36, velocity=100, time=0),
    Message('note_on', channel=9, note=42, velocity=100, time=0),
    Message('note_on', channel=9, note=42, velocity=0, time=120),
    Message('note_on', channel=9, note=36, velocity=0, time=0),
    Message('note_on', channel=9, note=40, velocity=100, time=0),
    Message('note_on', channel=9, note=42, velocity=100, time=0),
    Message('note_on', channel=9, note=42, velocity=0, time=120),
    Message('note_on', channel=9, note=40, velocity=0, time=0),
    Message('note_on', channel=9, note=42, velocity=100, time=0),
    Message('note_on', channel=9, note=40, velocity=100, time=0),
    Message('note_on', channel=9, note=40, velocity=0, time=120),
    Message('note_on', channel=9, note=42, velocity=0, time=0),
    Message('note_on', channel=9, note=40, velocity=100, time=0),
    Message('note_on', channel=9, note=42, velocity=100, time=0),
    Message('note_on', channel=9, note=42, velocity=0, time=120),
    Message('note_on', channel=9, note=40, velocity=0, time=0),
    Message('note_on', channel=9, note=42, velocity=100, time=0),
    Message('note_on', channel=9, note=36, velocity=100, time=0),
    Message('note_on', channel=9, note=36, velocity=0, time=120),
    Message('note_on', channel=9, note=42, velocity=0, time=0),
    Message('note_on', channel=9, note=40, velocity=100, time=0),
    Message('note_on', channel=9, note=42, velocity=100, time=0),
    Message('note_on', channel=9, note=42, velocity=0, time=120),
    Message('note_on', channel=9, note=40, velocity=0, time=0),
    Message('note_on', channel=9, note=42, velocity=100, time=0),
    Message('note_on', channel=9, note=42, velocity=0, time=120),
    Message('note_on', channel=9, note=36, velocity=100, time=0),
    Message('note_on', channel=9, note=42, velocity=100, time=0),
    Message('note_on', channel=9, note=42, velocity=0, time=120),
    Message('note_on', channel=9, note=36, velocity=0, time=0),
    Message('note_on', channel=9, note=36, velocity=100, time=0),
    Message('note_on', channel=9, note=42, velocity=100, time=0),
    Message('note_on', channel=9, note=42, velocity=0, time=120),
    Message('note_on', channel=9, note=36, velocity=0, time=0),
    Message('note_on', channel=9, note=40, velocity=100, time=0),
    Message('note_on', channel=9, note=42, velocity=100, time=0),
    Message('note_on', channel=9, note=42, velocity=0, time=120),
    Message('note_on', channel=9, note=40, velocity=0, time=0),
    Message('note_on', channel=9, note=42, velocity=100, time=0),
    Message('note_on', channel=9, note=42, velocity=0, time=120),
    Message('note_on', channel=9, note=42, velocity=100, time=0),
    Message('note_on', channel=9, note=36, velocity=100, time=0),
    Message('note_on', channel=9, note=36, velocity=0, time=120),
    Message('note_on', channel=9, note=42, velocity=0, time=0),
    Message('note_on', channel=9, note=42, velocity=100, time=0),
    Message('note_on', channel=9, note=36, velocity=100, time=0),
    Message('note_on', channel=9, note=36, velocity=0, time=120),
    Message('note_on', channel=9, note=42, velocity=0, time=0),
    Message('note_on', channel=9, note=42, velocity=100, time=0),
    Message('note_on', channel=9, note=40, velocity=100, time=0),
    Message('note_on', channel=9, note=40, velocity=0, time=120),
    Message('note_on', channel=9, note=42, velocity=0, time=0),
    Message('note_on', channel=9, note=42, velocity=100, time=0),
    Message('note_on', channel=9, note=36, velocity=100, time=0),
    Message('note_on', channel=9, note=36, velocity=0, time=120),
    Message('note_on', channel=9, note=42, velocity=0, time=0),
    Message('note_on', channel=9, note=42, velocity=100, time=0),
    Message('note_on', channel=9, note=42, velocity=0, time=120),
    Message('note_on', channel=9, note=36, velocity=100, time=0),
    Message('note_on', channel=9, note=42, velocity=100, time=0),
    Message('note_on', channel=9, note=42, velocity=0, time=120),
    Message('note_on', channel=9, note=36, velocity=0, time=0),
    Message('note_on', channel=9, note=40, velocity=100, time=0),
    Message('note_on', channel=9, note=42, velocity=100, time=0),
    Message('note_on', channel=9, note=42, velocity=0, time=120),
    Message('note_on', channel=9, note=40, velocity=0, time=0),
    Message('note_on', channel=9, note=42, velocity=100, time=0),
    Message('note_on', channel=9, note=40, velocity=100, time=0),
    Message('note_on', channel=9, note=40, velocity=0, time=120),
    Message('note_on', channel=9, note=42, velocity=0, time=0),
    Message('note_on', channel=9, note=40, velocity=100, time=0),
    Message('note_on', channel=9, note=42, velocity=100, time=0),
    Message('note_on', channel=9, note=42, velocity=0, time=120),
    Message('note_on', channel=9, note=40, velocity=0, time=0),
    Message('note_on', channel=9, note=42, velocity=100, time=0),
    Message('note_on', channel=9, note=36, velocity=100, time=0),
    Message('note_on', channel=9, note=36, velocity=0, time=120),
    Message('note_on', channel=9, note=42, velocity=0, time=0),
    Message('note_on', channel=9, note=40, velocity=100, time=0),
    Message('note_on', channel=9, note=42, velocity=100, time=0),
    Message('note_on', channel=9, note=42, velocity=0, time=120),
    Message('note_on', channel=9, note=40, velocity=0, time=0),
    Message('note_on', channel=9, note=42, velocity=100, time=0),
    Message('note_on', channel=9, note=42, velocity=0, time=120),
    Message('note_on', channel=9, note=36, velocity=100, time=0),
    Message('note_on', channel=9, note=42, velocity=100, time=0),
    Message('note_on', channel=9, note=42, velocity=0, time=120),
    Message('note_on', channel=9, note=36, velocity=0, time=0),
    Message('note_on', channel=9, note=36, velocity=100, time=0),
    Message('note_on', channel=9, note=42, velocity=100, time=0),
    Message('note_on', channel=9, note=42, velocity=0, time=120),
    Message('note_on', channel=9, note=36, velocity=0, time=0),
    Message('note_on', channel=9, note=40, velocity=100, time=0),
    Message('note_on', channel=9, note=42, velocity=100, time=0),
    Message('note_on', channel=9, note=42, velocity=0, time=120),
    Message('note_on', channel=9, note=40, velocity=0, time=0),
    Message('note_on', channel=9, note=42, velocity=100, time=0),
    Message('note_on', channel=9, note=42, velocity=0, time=120),
    Message('note_on', channel=9, note=42, velocity=100, time=0),
    Message('note_on', channel=9, note=36, velocity=100, time=0),
    Message('note_on', channel=9, note=36, velocity=0, time=120),
    Message('note_on', channel=9, note=42, velocity=0, time=0),
    Message('note_on', channel=9, note=42, velocity=100, time=0),
    Message('note_on', channel=9, note=36, velocity=100, time=0),
    Message('note_on', channel=9, note=36, velocity=0, time=120),
    Message('note_on', channel=9, note=42, velocity=0, time=0),
    Message('note_on', channel=9, note=42, velocity=100, time=0),
    Message('note_on', channel=9, note=40, velocity=100, time=0),
    Message('note_on', channel=9, note=40, velocity=0, time=120),
    Message('note_on', channel=9, note=42, velocity=0, time=0),
    Message('note_on', channel=9, note=42, velocity=100, time=0),
    Message('note_on', channel=9, note=36, velocity=100, time=0),
    Message('note_on', channel=9, note=36, velocity=0, time=120),
    Message('note_on', channel=9, note=42, velocity=0, time=0),
    Message('note_on', channel=9, note=42, velocity=100, time=0),
    Message('note_on', channel=9, note=42, velocity=0, time=120),
    Message('note_on', channel=9, note=36, velocity=100, time=0),
    Message('note_on', channel=9, note=42, velocity=100, time=0),
    Message('note_on', channel=9, note=42, velocity=0, time=120),
    Message('note_on', channel=9, note=36, velocity=0, time=0),
    Message('note_on', channel=9, note=40, velocity=100, time=0),
    Message('note_on', channel=9, note=42, velocity=100, time=0),
    Message('note_on', channel=9, note=42, velocity=0, time=120),
    Message('note_on', channel=9, note=40, velocity=0, time=0),
    Message('note_on', channel=9, note=42, velocity=100, time=0),
    Message('note_on', channel=9, note=40, velocity=100, time=0),
    Message('note_on', channel=9, note=40, velocity=0, time=120),
    Message('note_on', channel=9, note=42, velocity=0, time=0),
    Message('note_on', channel=9, note=42, velocity=100, time=0),
    Message('note_on', channel=9, note=40, velocity=100, time=0),
    Message('note_on', channel=9, note=40, velocity=0, time=120),
    Message('note_on', channel=9, note=42, velocity=0, time=0),
    Message('note_on', channel=9, note=42, velocity=100, time=0),
    Message('note_on', channel=9, note=40, velocity=100, time=0),
    Message('note_on', channel=9, note=40, velocity=0, time=120),
    Message('note_on', channel=9, note=42, velocity=0, time=0),
    Message('note_on', channel=9, note=42, velocity=100, time=120),
    Message('note_on', channel=9, note=40, velocity=100, time=0),
    Message('note_on', channel=9, note=40, velocity=0, time=120),
    Message('note_on', channel=9, note=42, velocity=0, time=0),
    Message('note_on', channel=9, note=42, velocity=100, time=120),
    Message('note_on', channel=9, note=40, velocity=100, time=0),
    Message('note_on', channel=9, note=40, velocity=0, time=120),
    Message('note_on', channel=9, note=42, velocity=0, time=0),
    Message('note_on', channel=9, note=42, velocity=100, time=120),
    Message('note_on', channel=9, note=40, velocity=100, time=0),
    Message('note_on', channel=9, note=40, velocity=0, time=120),
    Message('note_on', channel=9, note=42, velocity=0, time=0),
    Message('note_on', channel=9, note=42, velocity=100, time=120),
    Message('note_on', channel=9, note=40, velocity=100, time=0),
    Message('note_on', channel=9, note=40, velocity=0, time=120),
    Message('note_on', channel=9, note=42, velocity=0, time=0),
    Message('note_on', channel=9, note=45, velocity=100, time=120),
    Message('note_on', channel=9, note=43, velocity=100, time=0),
    Message('note_on', channel=9, note=43, velocity=0, time=120),
    Message('note_on', channel=9, note=45, velocity=0, time=0),
    Message('note_on', channel=9, note=45, velocity=100, time=0),
    Message('note_on', channel=9, note=43, velocity=100, time=0),
    Message('note_on', channel=9, note=43, velocity=0, time=120),
    Message('note_on', channel=9, note=45, velocity=0, time=0),
    Message('note_on', channel=9, note=47, velocity=100, time=0),
    Message('note_on', channel=9, note=45, velocity=100, time=0),
    Message('note_on', channel=9, note=45, velocity=0, time=120),
    Message('note_on', channel=9, note=47, velocity=0, time=0),
    Message('note_on', channel=9, note=47, velocity=100, time=0),
    Message('note_on', channel=9, note=45, velocity=100, time=0),
    Message('note_on', channel=9, note=45, velocity=0, time=120),
    Message('note_on', channel=9, note=47, velocity=0, time=0),
    Message('note_on', channel=9, note=42, velocity=100, time=120),
    Message('note_on', channel=9, note=40, velocity=100, time=0),
    Message('note_on', channel=9, note=40, velocity=0, time=120),
    Message('note_on', channel=9, note=42, velocity=0, time=0),
    Message('note_on', channel=9, note=42, velocity=100, time=0),
    Message('note_on', channel=9, note=40, velocity=100, time=0),
    Message('note_on', channel=9, note=40, velocity=0, time=120),
    Message('note_on', channel=9, note=42, velocity=0, time=0),
    Message('note_on', channel=9, note=42, velocity=100, time=120),
    Message('note_on', channel=9, note=40, velocity=100, time=0),
    Message('note_on', channel=9, note=40, velocity=0, time=120),
    Message('note_on', channel=9, note=42, velocity=0, time=0),
    Message('note_on', channel=9, note=42, velocity=100, time=120),
    Message('note_on', channel=9, note=40, velocity=100, time=0),
    Message('note_on', channel=9, note=40, velocity=0, time=120),
    Message('note_on', channel=9, note=42, velocity=0, time=0),
    Message('note_on', channel=9, note=42, velocity=100, time=120),
    Message('note_on', channel=9, note=40, velocity=100, time=0),
    Message('note_on', channel=9, note=40, velocity=0, time=120),
    Message('note_on', channel=9, note=42, velocity=0, time=0),
    Message('note_on', channel=9, note=42, velocity=100, time=120),
    Message('note_on', channel=9, note=40, velocity=100, time=0),
    Message('note_on', channel=9, note=40, velocity=0, time=120),
    Message('note_on', channel=9, note=42, velocity=0, time=0),
    Message('note_on', channel=9, note=45, velocity=100, time=120),
    Message('note_on', channel=9, note=43, velocity=100, time=0),
    Message('note_on', channel=9, note=43, velocity=0, time=120),
    Message('note_on', channel=9, note=45, velocity=0, time=0),
    Message('note_on', channel=9, note=45, velocity=100, time=0),
    Message('note_on', channel=9, note=43, velocity=100, time=0),
    Message('note_on', channel=9, note=43, velocity=0, time=120),
    Message('note_on', channel=9, note=45, velocity=0, time=0),
    Message('note_on', channel=9, note=47, velocity=100, time=0),
    Message('note_on', channel=9, note=45, velocity=100, time=0),
    Message('note_on', channel=9, note=45, velocity=0, time=120),
    Message('note_on', channel=9, note=47, velocity=0, time=0),
    Message('note_on', channel=9, note=47, velocity=100, time=0),
    Message('note_on', channel=9, note=45, velocity=100, time=0),
    Message('note_on', channel=9, note=45, velocity=0, time=120),
    Message('note_on', channel=9, note=47, velocity=0, time=0),
    Message('note_on', channel=9, note=36, velocity=100, time=120),
    Message('note_on', channel=9, note=49, velocity=100, time=0),
    Message('note_on', channel=9, note=49, velocity=0, time=120),
    Message('note_on', channel=9, note=36, velocity=0, time=120),
    Message('note_on', channel=9, note=36, velocity=100, time=0),
    Message('note_on', channel=9, note=57, velocity=100, time=0),
    Message('note_on', channel=9, note=57, velocity=0, time=120),
    Message('note_on', channel=9, note=36, velocity=0, time=120),
    Message('note_on', channel=9, note=40, velocity=100, time=0),
    Message('note_on', channel=9, note=55, velocity=100, time=0),
    Message('note_on', channel=9, note=40, velocity=0, time=60),
    Message('note_on', channel=9, note=55, velocity=0, time=60),
    Message('note_on', channel=9, note=55, velocity=100, time=120),
    Message('note_on', channel=9, note=55, velocity=0, time=120),
    Message('note_on', channel=9, note=36, velocity=100, time=120),
    Message('note_on', channel=9, note=55, velocity=100, time=0),
    Message('note_on', channel=9, note=36, velocity=0, time=60),
    Message('note_on', channel=9, note=55, velocity=0, time=60),
    Message('note_on', channel=9, note=40, velocity=100, time=0),
    Message('note_on', channel=9, note=40, velocity=0, time=60),
    Message('note_on', channel=9, note=55, velocity=100, time=60),
    Message('note_on', channel=9, note=55, velocity=0, time=120),
    Message('note_on', channel=9, note=36, velocity=100, time=0),
    Message('note_on', channel=9, note=40, velocity=100, time=120),
    Message('note_on', channel=9, note=55, velocity=100, time=0),
    Message('note_on', channel=9, note=55, velocity=0, time=120),
    Message('note_on', channel=9, note=36, velocity=0, time=0),
    Message('note_on', channel=9, note=40, velocity=0, time=120),
    Message('note_on', channel=9, note=55, velocity=100, time=0),
    Message('note_on', channel=9, note=55, velocity=0, time=120),
    Message('note_on', channel=9, note=40, velocity=100, time=0),
    Message('note_on', channel=9, note=36, velocity=100, time=120),
    Message('note_on', channel=9, note=49, velocity=100, time=0),
    Message('note_on', channel=9, note=49, velocity=0, time=120),
    Message('note_on', channel=9, note=40, velocity=0, time=0),
    Message('note_on', channel=9, note=36, velocity=0, time=120),
    Message('note_on', channel=9, note=36, velocity=100, time=0),
    Message('note_on', channel=9, note=57, velocity=100, time=0),
    Message('note_on', channel=9, note=57, velocity=0, time=120),
    Message('note_on', channel=9, note=36, velocity=0, time=120),
    Message('note_on', channel=9, note=40, velocity=100, time=0),
    Message('note_on', channel=9, note=55, velocity=100, time=0),
    Message('note_on', channel=9, note=40, velocity=0, time=60),
    Message('note_on', channel=9, note=55, velocity=0, time=60),
    Message('note_on', channel=9, note=55, velocity=100, time=120),
    Message('note_on', channel=9, note=55, velocity=0, time=120),
    Message('note_on', channel=9, note=55, velocity=100, time=120),
    Message('note_on', channel=9, note=36, velocity=100, time=0),
    Message('note_on', channel=9, note=36, velocity=0, time=60),
    Message('note_on', channel=9, note=55, velocity=0, time=60),
    Message('note_on', channel=9, note=40, velocity=100, time=0),
    Message('note_on', channel=9, note=40, velocity=0, time=60),
    Message('note_on', channel=9, note=40, velocity=100, time=20),
    Message('note_on', channel=9, note=55, velocity=100, time=40),
    Message('note_on', channel=9, note=40, velocity=100, time=0),
    Message('note_on', channel=9, note=40, velocity=0, time=80),
    Message('note_on', channel=9, note=40, velocity=0, time=40),
    Message('note_on', channel=9, note=55, velocity=0, time=0),
    Message('note_on', channel=9, note=40, velocity=100, time=0),
    Message('note_on', channel=9, note=55, velocity=100, time=120),
    Message('note_on', channel=9, note=40, velocity=100, time=0),
    Message('note_on', channel=9, note=55, velocity=0, time=120),
    Message('note_on', channel=9, note=40, velocity=0, time=0),
    Message('note_on', channel=9, note=40, velocity=100, time=0),
    Message('note_on', channel=9, note=40, velocity=0, time=120),
    Message('note_on', channel=9, note=40, velocity=0, time=0),
    Message('note_on', channel=9, note=55, velocity=100, time=0),
    Message('note_on', channel=9, note=40, velocity=100, time=0),
    Message('note_on', channel=9, note=55, velocity=0, time=120),
    Message('note_on', channel=9, note=40, velocity=0, time=120),
    Message('note_on', channel=9, note=36, velocity=100, time=0),
    Message('note_on', channel=9, note=49, velocity=100, time=0),
    Message('note_on', channel=9, note=49, velocity=0, time=120),
    Message('note_on', channel=9, note=36, velocity=0, time=120),
    Message('note_on', channel=9, note=36, velocity=100, time=0),
    Message('note_on', channel=9, note=57, velocity=100, time=0),
    Message('note_on', channel=9, note=57, velocity=0, time=120),
    Message('note_on', channel=9, note=36, velocity=0, time=120),
    Message('note_on', channel=9, note=40, velocity=100, time=0),
    Message('note_on', channel=9, note=55, velocity=100, time=0),
    Message('note_on', channel=9, note=40, velocity=0, time=60),
    Message('note_on', channel=9, note=55, velocity=0, time=60),
    Message('note_on', channel=9, note=55, velocity=100, time=120),
    Message('note_on', channel=9, note=55, velocity=0, time=120),
    Message('note_on', channel=9, note=36, velocity=100, time=120),
    Message('note_on', channel=9, note=55, velocity=100, time=0),
    Message('note_on', channel=9, note=36, velocity=0, time=60),
    Message('note_on', channel=9, note=55, velocity=0, time=60),
    Message('note_on', channel=9, note=40, velocity=100, time=0),
    Message('note_on', channel=9, note=40, velocity=0, time=60),
    Message('note_on', channel=9, note=55, velocity=100, time=60),
    Message('note_on', channel=9, note=55, velocity=0, time=120),
    Message('note_on', channel=9, note=36, velocity=100, time=0),
    Message('note_on', channel=9, note=40, velocity=100, time=120),
    Message('note_on', channel=9, note=55, velocity=100, time=0),
    Message('note_on', channel=9, note=55, velocity=0, time=120),
    Message('note_on', channel=9, note=36, velocity=0, time=0),
    Message('note_on', channel=9, note=40, velocity=0, time=120),
    Message('note_on', channel=9, note=55, velocity=100, time=0),
    Message('note_on', channel=9, note=55, velocity=0, time=120),
    Message('note_on', channel=9, note=40, velocity=100, time=0),
    Message('note_on', channel=9, note=36, velocity=100, time=120),
    Message('note_on', channel=9, note=49, velocity=100, time=0),
    Message('note_on', channel=9, note=49, velocity=0, time=120),
    Message('note_on', channel=9, note=40, velocity=0, time=0),
    Message('note_on', channel=9, note=36, velocity=0, time=120),
    Message('note_on', channel=9, note=36, velocity=100, time=0),
    Message('note_on', channel=9, note=57, velocity=100, time=0),
    Message('note_on', channel=9, note=57, velocity=0, time=120),
    Message('note_on', channel=9, note=36, velocity=0, time=120),
    Message('note_on', channel=9, note=40, velocity=100, time=0),
    Message('note_on', channel=9, note=55, velocity=100, time=0),
    Message('note_on', channel=9, note=40, velocity=0, time=60),
    Message('note_on', channel=9, note=55, velocity=0, time=60),
    Message('note_on', channel=9, note=55, velocity=100, time=120),
    Message('note_on', channel=9, note=55, velocity=0, time=120),
    Message('note_on', channel=9, note=55, velocity=100, time=120),
    Message('note_on', channel=9, note=36, velocity=100, time=0),
    Message('note_on', channel=9, note=36, velocity=0, time=60),
    Message('note_on', channel=9, note=55, velocity=0, time=60),
    Message('note_on', channel=9, note=40, velocity=100, time=0),
    Message('note_on', channel=9, note=40, velocity=0, time=60),
    Message('note_on', channel=9, note=55, velocity=100, time=60),
    Message('note_on', channel=9, note=55, velocity=0, time=120),
    Message('note_on', channel=9, note=36, velocity=100, time=0),
    Message('note_on', channel=9, note=55, velocity=100, time=120),
    Message('note_on', channel=9, note=40, velocity=100, time=0),
    Message('note_on', channel=9, note=55, velocity=0, time=120),
    Message('note_on', channel=9, note=36, velocity=0, time=0),
    Message('note_on', channel=9, note=40, velocity=0, time=120),
    Message('note_on', channel=9, note=55, velocity=100, time=0),
    Message('note_on', channel=9, note=55, velocity=0, time=120),
    Message('note_on', channel=9, note=40, velocity=100, time=0),
    Message('note_on', channel=9, note=36, velocity=100, time=120),
    Message('note_on', channel=9, note=49, velocity=100, time=0),
    Message('note_on', channel=9, note=49, velocity=0, time=120),
    Message('note_on', channel=9, note=40, velocity=0, time=0),
    Message('note_on', channel=9, note=42, velocity=100, time=120),
    Message('note_on', channel=9, note=42, velocity=0, time=120),
    Message('note_on', channel=9, note=36, velocity=0, time=120),
    Message('note_on', channel=9, note=40, velocity=100, time=0),
    Message('note_on', channel=9, note=57, velocity=100, time=0),
    Message('note_on', channel=9, note=57, velocity=0, time=120),
    Message('note_on', channel=9, note=42, velocity=100, time=120),
    Message('note_on', channel=9, note=42, velocity=0, time=120),
    Message('note_on', channel=9, note=40, velocity=0, time=120),
    Message('note_on', channel=9, note=36, velocity=100, time=0),
    Message('note_on', channel=9, note=42, velocity=100, time=0),
    Message('note_on', channel=9, note=42, velocity=0, time=120),
    Message('note_on', channel=9, note=36, velocity=0, time=120),
    Message('note_on', channel=9, note=36, velocity=100, time=0),
    Message('note_on', channel=9, note=42, velocity=100, time=0),
    Message('note_on', channel=9, note=42, velocity=0, time=120),
    Message('note_on', channel=9, note=36, velocity=0, time=120),
    Message('note_on', channel=9, note=40, velocity=100, time=0),
    Message('note_on', channel=9, note=42, velocity=100, time=0),
    Message('note_on', channel=9, note=42, velocity=0, time=120),
    Message('note_on', channel=9, note=42, velocity=100, time=120),
    Message('note_on', channel=9, note=42, velocity=0, time=120),
    Message('note_on', channel=9, note=40, velocity=0, time=120),
    Message('note_on', channel=9, note=36, velocity=100, time=0),
    Message('note_on', channel=9, note=42, velocity=100, time=0),
    Message('note_on', channel=9, note=42, velocity=0, time=120),
    Message('note_on', channel=9, note=36, velocity=0, time=0),
    Message('note_on', channel=9, note=40, velocity=100, time=0),
    Message('note_on', channel=9, note=40, velocity=0, time=120),
    Message('note_on', channel=9, note=36, velocity=100, time=0),
    Message('note_on', channel=9, note=42, velocity=100, time=0),
    Message('note_on', channel=9, note=42, velocity=0, time=120),
    Message('note_on', channel=9, note=36, velocity=0, time=0),
    Message('note_on', channel=9, note=36, velocity=100, time=0),
    Message('note_on', channel=9, note=36, velocity=0, time=120),
    Message('note_on', channel=9, note=40, velocity=100, time=0),
    Message('note_on', channel=9, note=42, velocity=100, time=0),
    Message('note_on', channel=9, note=42, velocity=0, time=120),
    Message('note_on', channel=9, note=40, velocity=0, time=0),
    Message('note_on', channel=9, note=36, velocity=100, time=0),
    Message('note_on', channel=9, note=36, velocity=0, time=120),
    Message('note_on', channel=9, note=40, velocity=100, time=0),
    Message('note_on', channel=9, note=42, velocity=100, time=0),
    Message('note_on', channel=9, note=42, velocity=0, time=120),
    Message('note_on', channel=9, note=40, velocity=0, time=114),
    Message('note_on', channel=9, note=36, velocity=100, time=6),
    Message('note_on', channel=9, note=42, velocity=100, time=0),
    Message('note_on', channel=9, note=42, velocity=0, time=120),
    Message('note_on', channel=9, note=36, velocity=0, time=120),
    Message('note_on', channel=9, note=36, velocity=100, time=0),
    Message('note_on', channel=9, note=42, velocity=100, time=0),
    Message('note_on', channel=9, note=42, velocity=0, time=120),
    Message('note_on', channel=9, note=36, velocity=0, time=120),
    Message('note_on', channel=9, note=40, velocity=100, time=0),
    Message('note_on', channel=9, note=57, velocity=100, time=0),
    Message('note_on', channel=9, note=57, velocity=0, time=120),
    Message('note_on', channel=9, note=42, velocity=100, time=120),
    Message('note_on', channel=9, note=42, velocity=0, time=120),
    Message('note_on', channel=9, note=40, velocity=0, time=120),
    Message('note_on', channel=9, note=36, velocity=100, time=0),
    Message('note_on', channel=9, note=49, velocity=100, time=0),
    Message('note_on', channel=9, note=49, velocity=0, time=120),
    Message('note_on', channel=9, note=42, velocity=100, time=120),
    Message('note_on', channel=9, note=42, velocity=0, time=120),
    Message('note_on', channel=9, note=36, velocity=0, time=120),
    Message('note_on', channel=9, note=40, velocity=100, time=0),
    Message('note_on', channel=9, note=57, velocity=100, time=0),
    Message('note_on', channel=9, note=57, velocity=0, time=120),
    Message('note_on', channel=9, note=42, velocity=100, time=120),
    Message('note_on', channel=9, note=42, velocity=0, time=120),
    Message('note_on', channel=9, note=40, velocity=0, time=120),
    Message('note_on', channel=9, note=36, velocity=100, time=0),
    Message('note_on', channel=9, note=42, velocity=100, time=0),
    Message('note_on', channel=9, note=42, velocity=0, time=120),
    Message('note_on', channel=9, note=36, velocity=0, time=120),
    Message('note_on', channel=9, note=36, velocity=100, time=0),
    Message('note_on', channel=9, note=42, velocity=100, time=0),
    Message('note_on', channel=9, note=42, velocity=0, time=120),
    Message('note_on', channel=9, note=36, velocity=0, time=120),
    Message('note_on', channel=9, note=40, velocity=100, time=0),
    Message('note_on', channel=9, note=42, velocity=100, time=0),
    Message('note_on', channel=9, note=42, velocity=0, time=120),
    Message('note_on', channel=9, note=42, velocity=100, time=120),
    Message('note_on', channel=9, note=42, velocity=0, time=120),
    Message('note_on', channel=9, note=40, velocity=0, time=120),
    Message('note_on', channel=9, note=36, velocity=100, time=0),
    Message('note_on', channel=9, note=42, velocity=100, time=0),
    Message('note_on', channel=9, note=42, velocity=0, time=120),
    Message('note_on', channel=9, note=36, velocity=0, time=0),
    Message('note_on', channel=9, note=40, velocity=100, time=0),
    Message('note_on', channel=9, note=40, velocity=0, time=120),
    Message('note_on', channel=9, note=36, velocity=100, time=0),
    Message('note_on', channel=9, note=42, velocity=100, time=0),
    Message('note_on', channel=9, note=42, velocity=0, time=120),
    Message('note_on', channel=9, note=36, velocity=0, time=0),
    Message('note_on', channel=9, note=36, velocity=100, time=0),
    Message('note_on', channel=9, note=36, velocity=0, time=120),
    Message('note_on', channel=9, note=40, velocity=100, time=0),
    Message('note_on', channel=9, note=42, velocity=100, time=0),
    Message('note_on', channel=9, note=42, velocity=0, time=120),
    Message('note_on', channel=9, note=40, velocity=0, time=0),
    Message('note_on', channel=9, note=36, velocity=100, time=0),
    Message('note_on', channel=9, note=36, velocity=0, time=120),
    Message('note_on', channel=9, note=40, velocity=100, time=0),
    Message('note_on', channel=9, note=42, velocity=100, time=0),
    Message('note_on', channel=9, note=42, velocity=0, time=120),
    Message('note_on', channel=9, note=40, velocity=0, time=114),
    Message('note_on', channel=9, note=36, velocity=100, time=6),
    Message('note_on', channel=9, note=42, velocity=100, time=0),
    Message('note_on', channel=9, note=42, velocity=0, time=120),
    Message('note_on', channel=9, note=36, velocity=0, time=120),
    Message('note_on', channel=9, note=36, velocity=100, time=0),
    Message('note_on', channel=9, note=42, velocity=100, time=0),
    Message('note_on', channel=9, note=42, velocity=0, time=120),
    Message('note_on', channel=9, note=36, velocity=0, time=120),
    Message('note_on', channel=9, note=40, velocity=100, time=0),
    Message('note_on', channel=9, note=57, velocity=100, time=0),
    Message('note_on', channel=9, note=57, velocity=0, time=120),
    Message('note_on', channel=9, note=42, velocity=100, time=120),
    Message('note_on', channel=9, note=42, velocity=0, time=120),
    Message('note_on', channel=9, note=40, velocity=0, time=120),
    Message('note_on', channel=9, note=36, velocity=100, time=0),
    Message('note_on', channel=9, note=49, velocity=100, time=0),
    Message('note_on', channel=9, note=49, velocity=0, time=120),
    Message('note_on', channel=9, note=42, velocity=100, time=120),
    Message('note_on', channel=9, note=42, velocity=0, time=120),
    Message('note_on', channel=9, note=36, velocity=0, time=120),
    Message('note_on', channel=9, note=40, velocity=100, time=0),
    Message('note_on', channel=9, note=57, velocity=100, time=0),
    Message('note_on', channel=9, note=57, velocity=0, time=120),
    Message('note_on', channel=9, note=42, velocity=100, time=120),
    Message('note_on', channel=9, note=42, velocity=0, time=120),
    Message('note_on', channel=9, note=40, velocity=0, time=120),
    Message('note_on', channel=9, note=36, velocity=100, time=0),
    Message('note_on', channel=9, note=42, velocity=100, time=0),
    Message('note_on', channel=9, note=42, velocity=0, time=120),
    Message('note_on', channel=9, note=36, velocity=0, time=120),
    Message('note_on', channel=9, note=36, velocity=100, time=0),
    Message('note_on', channel=9, note=42, velocity=100, time=0),
    Message('note_on', channel=9, note=42, velocity=0, time=120),
    Message('note_on', channel=9, note=36, velocity=0, time=120),
    Message('note_on', channel=9, note=40, velocity=100, time=0),
    Message('note_on', channel=9, note=42, velocity=100, time=0),
    Message('note_on', channel=9, note=42, velocity=0, time=120),
    Message('note_on', channel=9, note=42, velocity=100, time=120),
    Message('note_on', channel=9, note=42, velocity=0, time=120),
    Message('note_on', channel=9, note=40, velocity=0, time=120),
    Message('note_on', channel=9, note=36, velocity=100, time=0),
    Message('note_on', channel=9, note=42, velocity=100, time=0),
    Message('note_on', channel=9, note=42, velocity=0, time=120),
    Message('note_on', channel=9, note=36, velocity=0, time=0),
    Message('note_on', channel=9, note=40, velocity=100, time=0),
    Message('note_on', channel=9, note=40, velocity=0, time=120),
    Message('note_on', channel=9, note=36, velocity=100, time=0),
    Message('note_on', channel=9, note=42, velocity=100, time=0),
    Message('note_on', channel=9, note=42, velocity=0, time=120),
    Message('note_on', channel=9, note=36, velocity=0, time=0),
    Message('note_on', channel=9, note=36, velocity=100, time=0),
    Message('note_on', channel=9, note=36, velocity=0, time=120),
    Message('note_on', channel=9, note=40, velocity=100, time=0),
    Message('note_on', channel=9, note=42, velocity=100, time=0),
    Message('note_on', channel=9, note=42, velocity=0, time=120),
    Message('note_on', channel=9, note=40, velocity=0, time=0),
    Message('note_on', channel=9, note=36, velocity=100, time=0),
    Message('note_on', channel=9, note=36, velocity=0, time=120),
    Message('note_on', channel=9, note=40, velocity=100, time=0),
    Message('note_on', channel=9, note=42, velocity=100, time=0),
    Message('note_on', channel=9, note=42, velocity=0, time=120),
    Message('note_on', channel=9, note=40, velocity=0, time=114),
    Message('note_on', channel=9, note=36, velocity=100, time=6),
    Message('note_on', channel=9, note=42, velocity=100, time=0),
    Message('note_on', channel=9, note=42, velocity=0, time=120),
    Message('note_on', channel=9, note=36, velocity=0, time=120),
    Message('note_on', channel=9, note=36, velocity=100, time=0),
    Message('note_on', channel=9, note=42, velocity=100, time=0),
    Message('note_on', channel=9, note=42, velocity=0, time=120),
    Message('note_on', channel=9, note=36, velocity=0, time=120),
    Message('note_on', channel=9, note=40, velocity=100, time=0),
    Message('note_on', channel=9, note=57, velocity=100, time=0),
    Message('note_on', channel=9, note=57, velocity=0, time=120),
    Message('note_on', channel=9, note=46, velocity=100, time=120),
    Message('note_on', channel=9, note=46, velocity=0, time=120),
    Message('note_on', channel=9, note=40, velocity=0, time=120),
    Message('note_on', channel=9, note=36, velocity=100, time=0),
    Message('note_on', channel=9, note=49, velocity=100, time=0),
    Message('note_on', channel=9, note=49, velocity=0, time=120),
    Message('note_on', channel=9, note=42, velocity=100, time=120),
    Message('note_on', channel=9, note=42, velocity=0, time=120),
    Message('note_on', channel=9, note=36, velocity=0, time=120),
    Message('note_on', channel=9, note=40, velocity=100, time=0),
    Message('note_on', channel=9, note=57, velocity=100, time=0),
    Message('note_on', channel=9, note=57, velocity=0, time=120),
    Message('note_on', channel=9, note=42, velocity=100, time=120),
    Message('note_on', channel=9, note=42, velocity=0, time=120),
    Message('note_on', channel=9, note=40, velocity=0, time=120),
    Message('note_on', channel=9, note=36, velocity=100, time=0),
    Message('note_on', channel=9, note=42, velocity=100, time=0),
    Message('note_on', channel=9, note=42, velocity=0, time=120),
    Message('note_on', channel=9, note=36, velocity=0, time=120),
    Message('note_on', channel=9, note=36, velocity=100, time=0),
    Message('note_on', channel=9, note=42, velocity=100, time=0),
    Message('note_on', channel=9, note=42, velocity=0, time=120),
    Message('note_on', channel=9, note=36, velocity=0, time=120),
    Message('note_on', channel=9, note=40, velocity=100, time=0),
    Message('note_on', channel=9, note=42, velocity=100, time=0),
    Message('note_on', channel=9, note=42, velocity=0, time=120),
    Message('note_on', channel=9, note=42, velocity=100, time=120),
    Message('note_on', channel=9, note=42, velocity=0, time=120),
    Message('note_on', channel=9, note=40, velocity=0, time=120),
    Message('note_on', channel=9, note=36, velocity=100, time=0),
    Message('note_on', channel=9, note=42, velocity=100, time=0),
    Message('note_on', channel=9, note=42, velocity=0, time=120),
    Message('note_on', channel=9, note=36, velocity=0, time=0),
    Message('note_on', channel=9, note=40, velocity=100, time=0),
    Message('note_on', channel=9, note=40, velocity=0, time=120),
    Message('note_on', channel=9, note=36, velocity=100, time=0),
    Message('note_on', channel=9, note=42, velocity=100, time=0),
    Message('note_on', channel=9, note=42, velocity=0, time=120),
    Message('note_on', channel=9, note=36, velocity=0, time=0),
    Message('note_on', channel=9, note=36, velocity=100, time=0),
    Message('note_on', channel=9, note=36, velocity=0, time=120),
    Message('note_on', channel=9, note=40, velocity=100, time=0),
    Message('note_on', channel=9, note=42, velocity=100, time=0),
    Message('note_on', channel=9, note=42, velocity=0, time=120),
    Message('note_on', channel=9, note=40, velocity=0, time=0),
    Message('note_on', channel=9, note=36, velocity=100, time=0),
    Message('note_on', channel=9, note=36, velocity=0, time=120),
    Message('note_on', channel=9, note=40, velocity=100, time=0),
    Message('note_on', channel=9, note=42, velocity=100, time=0),
    Message('note_on', channel=9, note=42, velocity=0, time=120),
    Message('note_on', channel=9, note=40, velocity=0, time=114),
    Message('note_on', channel=9, note=42, velocity=100, time=6),
    Message('note_on', channel=9, note=40, velocity=100, time=0),
    Message('note_on', channel=9, note=42, velocity=0, time=120),
    Message('note_on', channel=9, note=36, velocity=100, time=0),
    Message('note_on', channel=9, note=40, velocity=0, time=120),
    Message('note_on', channel=9, note=42, velocity=100, time=0),
    Message('note_on', channel=9, note=40, velocity=100, time=0),
    Message('note_on', channel=9, note=42, velocity=0, time=120),
    Message('note_on', channel=9, note=36, velocity=0, time=0),
    Message('note_on', channel=9, note=36, velocity=100, time=0),
    Message('note_on', channel=9, note=40, velocity=0, time=120),
    Message('note_on', channel=9, note=40, velocity=100, time=0),
    Message('note_on', channel=9, note=42, velocity=100, time=0),
    Message('note_on', channel=9, note=42, velocity=0, time=120),
    Message('note_on', channel=9, note=36, velocity=0, time=0),
    Message('note_on', channel=9, note=36, velocity=100, time=0),
    Message('note_on', channel=9, note=46, velocity=100, time=120),
    Message('note_on', channel=9, note=40, velocity=100, time=0),
    Message('note_on', channel=9, note=46, velocity=0, time=120),
    Message('note_on', channel=9, note=36, velocity=0, time=0),
    Message('note_on', channel=9, note=40, velocity=0, time=120),
    Message('note_on', channel=9, note=40, velocity=0, time=0),
    Message('note_on', channel=9, note=36, velocity=100, time=0),
    Message('note_on', channel=9, note=49, velocity=100, time=0),
    Message('note_on', channel=9, note=49, velocity=0, time=120),
    Message('note_on', channel=9, note=36, velocity=0, time=120),
    Message('note_on', channel=9, note=36, velocity=100, time=0),
    Message('note_on', channel=9, note=57, velocity=100, time=0),
    Message('note_on', channel=9, note=57, velocity=0, time=120),
    Message('note_on', channel=9, note=36, velocity=0, time=120),
    Message('note_on', channel=9, note=40, velocity=100, time=0),
    Message('note_on', channel=9, note=55, velocity=100, time=0),
    Message('note_on', channel=9, note=40, velocity=0, time=60),
    Message('note_on', channel=9, note=55, velocity=0, time=60),
    Message('note_on', channel=9, note=55, velocity=100, time=120),
    Message('note_on', channel=9, note=55, velocity=0, time=120),
    Message('note_on', channel=9, note=36, velocity=100, time=120),
    Message('note_on', channel=9, note=55, velocity=100, time=0),
    Message('note_on', channel=9, note=36, velocity=0, time=60),
    Message('note_on', channel=9, note=55, velocity=0, time=60),
    Message('note_on', channel=9, note=40, velocity=100, time=0),
    Message('note_on', channel=9, note=40, velocity=0, time=60),
    Message('note_on', channel=9, note=55, velocity=100, time=60),
    Message('note_on', channel=9, note=55, velocity=0, time=120),
    Message('note_on', channel=9, note=36, velocity=100, time=0),
    Message('note_on', channel=9, note=40, velocity=100, time=120),
    Message('note_on', channel=9, note=55, velocity=100, time=0),
    Message('note_on', channel=9, note=55, velocity=0, time=120),
    Message('note_on', channel=9, note=36, velocity=0, time=0),
    Message('note_on', channel=9, note=40, velocity=0, time=120),
    Message('note_on', channel=9, note=55, velocity=100, time=0),
    Message('note_on', channel=9, note=55, velocity=0, time=120),
    Message('note_on', channel=9, note=40, velocity=100, time=0),
    Message('note_on', channel=9, note=36, velocity=100, time=120),
    Message('note_on', channel=9, note=55, velocity=100, time=0),
    Message('note_on', channel=9, note=55, velocity=0, time=120),
    Message('note_on', channel=9, note=40, velocity=0, time=0),
    Message('note_on', channel=9, note=36, velocity=0, time=120),
    Message('note_on', channel=9, note=36, velocity=100, time=0),
    Message('note_on', channel=9, note=55, velocity=100, time=0),
    Message('note_on', channel=9, note=55, velocity=0, time=120),
    Message('note_on', channel=9, note=36, velocity=0, time=120),
    Message('note_on', channel=9, note=40, velocity=100, time=0),
    Message('note_on', channel=9, note=55, velocity=100, time=0),
    Message('note_on', channel=9, note=40, velocity=0, time=60),
    Message('note_on', channel=9, note=55, velocity=0, time=60),
    Message('note_on', channel=9, note=55, velocity=100, time=120),
    Message('note_on', channel=9, note=55, velocity=0, time=120),
    Message('note_on', channel=9, note=36, velocity=100, time=120),
    Message('note_on', channel=9, note=55, velocity=100, time=0),
    Message('note_on', channel=9, note=55, velocity=0, time=120),
    Message('note_on', channel=9, note=40, velocity=100, time=0),
    Message('note_on', channel=9, note=40, velocity=100, time=60),
    Message('note_on', channel=9, note=36, velocity=0, time=60),
    Message('note_on', channel=9, note=40, velocity=100, time=0),
    Message('note_on', channel=9, note=36, velocity=100, time=0),
    Message('note_on', channel=9, note=55, velocity=100, time=0),
    Message('note_on', channel=9, note=40, velocity=0, time=60),
    Message('note_on', channel=9, note=40, velocity=100, time=0),
    Message('note_on', channel=9, note=40, velocity=0, time=60),
    Message('note_on', channel=9, note=55, velocity=0, time=0),
    Message('note_on', channel=9, note=40, velocity=100, time=0),
    Message('note_on', channel=9, note=40, velocity=100, time=60),
    Message('note_on', channel=9, note=36, velocity=0, time=60),
    Message('note_on', channel=9, note=40, velocity=0, time=0),
    Message('note_on', channel=9, note=40, velocity=100, time=0),
    Message('note_on', channel=9, note=36, velocity=100, time=0),
    Message('note_on', channel=9, note=55, velocity=100, time=0),
    Message('note_on', channel=9, note=40, velocity=0, time=60),
    Message('note_on', channel=9, note=40, velocity=100, time=0),
    Message('note_on', channel=9, note=40, velocity=0, time=60),
    Message('note_on', channel=9, note=55, velocity=0, time=0),
    Message('note_on', channel=9, note=40, velocity=100, time=0),
    Message('note_on', channel=9, note=40, velocity=0, time=60),
    Message('note_on', channel=9, note=40, velocity=100, time=0),
    Message('note_on', channel=9, note=36, velocity=0, time=60),
    Message('note_on', channel=9, note=40, velocity=0, time=0),
    Message('note_on', channel=9, note=40, velocity=100, time=0),
    Message('note_on', channel=9, note=36, velocity=100, time=0),
    Message('note_on', channel=9, note=55, velocity=100, time=0),
    Message('note_on', channel=9, note=40, velocity=0, time=60),
    Message('note_on', channel=9, note=40, velocity=0, time=0),
    Message('note_on', channel=9, note=40, velocity=100, time=0),
    Message('note_on', channel=9, note=40, velocity=0, time=60),
    Message('note_on', channel=9, note=55, velocity=0, time=0),
    Message('note_on', channel=9, note=40, velocity=100, time=0),
    Message('note_on', channel=9, note=40, velocity=100, time=60),
    Message('note_on', channel=9, note=40, velocity=0, time=60),
    Message('note_on', channel=9, note=36, velocity=0, time=0),
    Message('note_on', channel=9, note=36, velocity=100, time=0),
    Message('note_on', channel=9, note=49, velocity=100, time=0),
    Message('note_on', channel=9, note=40, velocity=0, time=60),
    Message('note_on', channel=9, note=40, velocity=0, time=60),
    Message('note_on', channel=9, note=49, velocity=0, time=0),
    Message('note_on', channel=9, note=40, velocity=0, time=60),
    Message('note_on', channel=9, note=36, velocity=0, time=60),
    Message('note_on', channel=9, note=36, velocity=100, time=0),
    Message('note_on', channel=9, note=57, velocity=100, time=0),
    Message('note_on', channel=9, note=57, velocity=0, time=120),
    Message('note_on', channel=9, note=36, velocity=0, time=120),
    Message('note_on', channel=9, note=40, velocity=100, time=0),
    Message('note_on', channel=9, note=55, velocity=100, time=0),
    Message('note_on', channel=9, note=40, velocity=0, time=60),
    Message('note_on', channel=9, note=55, velocity=0, time=60),
    Message('note_on', channel=9, note=55, velocity=100, time=120),
    Message('note_on', channel=9, note=55, velocity=0, time=120),
    Message('note_on', channel=9, note=36, velocity=100, time=120),
    Message('note_on', channel=9, note=55, velocity=100, time=0),
    Message('note_on', channel=9, note=36, velocity=0, time=60),
    Message('note_on', channel=9, note=55, velocity=0, time=60),
    Message('note_on', channel=9, note=40, velocity=100, time=0),
    Message('note_on', channel=9, note=40, velocity=0, time=60),
    Message('note_on', channel=9, note=55, velocity=100, time=60),
    Message('note_on', channel=9, note=55, velocity=0, time=120),
    Message('note_on', channel=9, note=36, velocity=100, time=0),
    Message('note_on', channel=9, note=40, velocity=100, time=120),
    Message('note_on', channel=9, note=55, velocity=100, time=0),
    Message('note_on', channel=9, note=55, velocity=0, time=120),
    Message('note_on', channel=9, note=36, velocity=0, time=0),
    Message('note_on', channel=9, note=40, velocity=0, time=120),
    Message('note_on', channel=9, note=55, velocity=100, time=0),
    Message('note_on', channel=9, note=55, velocity=0, time=120),
    Message('note_on', channel=9, note=40, velocity=100, time=0),
    Message('note_on', channel=9, note=36, velocity=100, time=120),
    Message('note_on', channel=9, note=55, velocity=100, time=0),
    Message('note_on', channel=9, note=55, velocity=0, time=120),
    Message('note_on', channel=9, note=40, velocity=0, time=0),
    Message('note_on', channel=9, note=36, velocity=0, time=120),
    Message('note_on', channel=9, note=36, velocity=100, time=0),
    Message('note_on', channel=9, note=55, velocity=100, time=0),
    Message('note_on', channel=9, note=55, velocity=0, time=120),
    Message('note_on', channel=9, note=36, velocity=0, time=120),
    Message('note_on', channel=9, note=40, velocity=100, time=0),
    Message('note_on', channel=9, note=55, velocity=100, time=0),
    Message('note_on', channel=9, note=40, velocity=0, time=60),
    Message('note_on', channel=9, note=55, velocity=0, time=60),
    Message('note_on', channel=9, note=55, velocity=100, time=120),
    Message('note_on', channel=9, note=55, velocity=0, time=120),
    Message('note_on', channel=9, note=55, velocity=100, time=120),
    Message('note_on', channel=9, note=36, velocity=100, time=0),
    Message('note_on', channel=9, note=36, velocity=0, time=60),
    Message('note_on', channel=9, note=55, velocity=0, time=60),
    Message('note_on', channel=9, note=40, velocity=100, time=0),
    Message('note_on', channel=9, note=40, velocity=0, time=60),
    Message('note_on', channel=9, note=55, velocity=100, time=60),
    Message('note_on', channel=9, note=55, velocity=0, time=120),
    Message('note_on', channel=9, note=36, velocity=100, time=0),
    Message('note_on', channel=9, note=55, velocity=100, time=120),
    Message('note_on', channel=9, note=40, velocity=100, time=0),
    Message('note_on', channel=9, note=55, velocity=0, time=120),
    Message('note_on', channel=9, note=36, velocity=0, time=0),
    Message('note_on', channel=9, note=40, velocity=0, time=120),
    Message('note_on', channel=9, note=55, velocity=100, time=0),
    Message('note_on', channel=9, note=55, velocity=0, time=120),
    Message('note_on', channel=9, note=40, velocity=100, time=0),
    Message('note_on', channel=9, note=36, velocity=100, time=120),
    Message('note_on', channel=9, note=49, velocity=100, time=0),
    Message('note_on', channel=9, note=49, velocity=0, time=120),
    Message('note_on', channel=9, note=40, velocity=0, time=0),
    Message('note_on', channel=9, note=36, velocity=0, time=120),
    Message('note_on', channel=9, note=36, velocity=100, time=0),
    Message('note_on', channel=9, note=57, velocity=100, time=0),
    Message('note_on', channel=9, note=57, velocity=0, time=120),
    Message('note_on', channel=9, note=36, velocity=0, time=120),
    Message('note_on', channel=9, note=40, velocity=100, time=0),
    Message('note_on', channel=9, note=55, velocity=100, time=0),
    Message('note_on', channel=9, note=40, velocity=0, time=60),
    Message('note_on', channel=9, note=55, velocity=0, time=60),
    Message('note_on', channel=9, note=55, velocity=100, time=120),
    Message('note_on', channel=9, note=55, velocity=0, time=120),
    Message('note_on', channel=9, note=36, velocity=100, time=120),
    Message('note_on', channel=9, note=55, velocity=100, time=0),
    Message('note_on', channel=9, note=36, velocity=0, time=60),
    Message('note_on', channel=9, note=55, velocity=0, time=60),
    Message('note_on', channel=9, note=40, velocity=100, time=0),
    Message('note_on', channel=9, note=40, velocity=0, time=60),
    Message('note_on', channel=9, note=55, velocity=100, time=60),
    Message('note_on', channel=9, note=55, velocity=0, time=120),
    Message('note_on', channel=9, note=36, velocity=100, time=0),
    Message('note_on', channel=9, note=40, velocity=100, time=120),
    Message('note_on', channel=9, note=55, velocity=100, time=0),
    Message('note_on', channel=9, note=55, velocity=0, time=120),
    Message('note_on', channel=9, note=36, velocity=0, time=0),
    Message('note_on', channel=9, note=40, velocity=0, time=120),
    Message('note_on', channel=9, note=55, velocity=100, time=0),
    Message('note_on', channel=9, note=55, velocity=0, time=120),
    Message('note_on', channel=9, note=40, velocity=100, time=0),
    Message('note_on', channel=9, note=36, velocity=100, time=120),
    Message('note_on', channel=9, note=49, velocity=100, time=0),
    Message('note_on', channel=9, note=49, velocity=0, time=120),
    Message('note_on', channel=9, note=40, velocity=0, time=0),
    Message('note_on', channel=9, note=36, velocity=0, time=120),
    Message('note_on', channel=9, note=36, velocity=100, time=0),
    Message('note_on', channel=9, note=57, velocity=100, time=0),
    Message('note_on', channel=9, note=57, velocity=0, time=120),
    Message('note_on', channel=9, note=36, velocity=0, time=120),
    Message('note_on', channel=9, note=40, velocity=100, time=0),
    Message('note_on', channel=9, note=49, velocity=100, time=0),
    Message('note_on', channel=9, note=40, velocity=0, time=60),
    Message('note_on', channel=9, note=49, velocity=0, time=60),
    Message('note_on', channel=9, note=36, velocity=100, time=1320),
    Message('note_on', channel=9, note=42, velocity=100, time=0),
    Message('note_on', channel=9, note=42, velocity=100, time=60),
    Message('note_on', channel=9, note=42, velocity=0, time=60),
    Message('note_on', channel=9, note=36, velocity=0, time=0),
    Message('note_on', channel=9, note=42, velocity=100, time=0),
    Message('note_on', channel=9, note=42, velocity=0, time=60),
    Message('note_on', channel=9, note=42, velocity=100, time=0),
    Message('note_on', channel=9, note=42, velocity=0, time=60),
    Message('note_on', channel=9, note=36, velocity=100, time=0),
    Message('note_on', channel=9, note=42, velocity=100, time=0),
    Message('note_on', channel=9, note=42, velocity=0, time=60),
    Message('note_on', channel=9, note=42, velocity=100, time=0),
    Message('note_on', channel=9, note=42, velocity=0, time=60),
    Message('note_on', channel=9, note=36, velocity=0, time=0),
    Message('note_on', channel=9, note=42, velocity=100, time=0),
    Message('note_on', channel=9, note=42, velocity=0, time=60),
    Message('note_on', channel=9, note=42, velocity=100, time=0),
    Message('note_on', channel=9, note=42, velocity=0, time=60),
    Message('note_on', channel=9, note=36, velocity=100, time=0),
    Message('note_on', channel=9, note=42, velocity=100, time=0),
    Message('note_on', channel=9, note=42, velocity=100, time=0),
    Message('note_on', channel=9, note=42, velocity=0, time=60),
    Message('note_on', channel=9, note=42, velocity=100, time=0),
    Message('note_on', channel=9, note=36, velocity=0, time=60),
    Message('note_on', channel=9, note=42, velocity=0, time=0),
    Message('note_on', channel=9, note=42, velocity=0, time=0),
    Message('note_on', channel=9, note=42, velocity=100, time=0),
    Message('note_on', channel=9, note=42, velocity=0, time=60),
    Message('note_on', channel=9, note=42, velocity=100, time=0),
    Message('note_on', channel=9, note=42, velocity=0, time=60),
    Message('note_on', channel=9, note=36, velocity=100, time=0),
    Message('note_on', channel=9, note=42, velocity=100, time=0),
    Message('note_on', channel=9, note=42, velocity=0, time=60),
    Message('note_on', channel=9, note=42, velocity=100, time=0),
    Message('note_on', channel=9, note=42, velocity=0, time=60),
    Message('note_on', channel=9, note=36, velocity=0, time=0),
    Message('note_on', channel=9, note=42, velocity=100, time=0),
    Message('note_on', channel=9, note=42, velocity=0, time=60),
    Message('note_on', channel=9, note=42, velocity=100, time=0),
    Message('note_on', channel=9, note=42, velocity=0, time=60),
    Message('note_on', channel=9, note=36, velocity=100, time=0),
    Message('note_on', channel=9, note=42, velocity=100, time=0),
    Message('note_on', channel=9, note=42, velocity=100, time=0),
    Message('note_on', channel=9, note=42, velocity=0, time=60),
    Message('note_on', channel=9, note=42, velocity=100, time=0),
    Message('note_on', channel=9, note=36, velocity=0, time=60),
    Message('note_on', channel=9, note=42, velocity=0, time=0),
    Message('note_on', channel=9, note=42, velocity=0, time=0),
    Message('note_on', channel=9, note=42, velocity=100, time=0),
    Message('note_on', channel=9, note=42, velocity=0, time=60),
    Message('note_on', channel=9, note=42, velocity=100, time=0),
    Message('note_on', channel=9, note=42, velocity=0, time=60),
    Message('note_on', channel=9, note=36, velocity=100, time=0),
    Message('note_on', channel=9, note=42, velocity=100, time=0),
    Message('note_on', channel=9, note=42, velocity=0, time=60),
    Message('note_on', channel=9, note=42, velocity=100, time=0),
    Message('note_on', channel=9, note=42, velocity=0, time=60),
    Message('note_on', channel=9, note=36, velocity=0, time=0),
    Message('note_on', channel=9, note=42, velocity=100, time=0),
    Message('note_on', channel=9, note=42, velocity=0, time=60),
    Message('note_on', channel=9, note=42, velocity=100, time=0),
    Message('note_on', channel=9, note=42, velocity=0, time=60),
    Message('note_on', channel=9, note=36, velocity=100, time=0),
    Message('note_on', channel=9, note=42, velocity=100, time=0),
    Message('note_on', channel=9, note=42, velocity=100, time=0),
    Message('note_on', channel=9, note=42, velocity=0, time=60),
    Message('note_on', channel=9, note=42, velocity=100, time=0),
    Message('note_on', channel=9, note=36, velocity=0, time=60),
    Message('note_on', channel=9, note=42, velocity=0, time=0),
    Message('note_on', channel=9, note=42, velocity=0, time=0),
    Message('note_on', channel=9, note=42, velocity=100, time=0),
    Message('note_on', channel=9, note=42, velocity=0, time=60),
    Message('note_on', channel=9, note=42, velocity=100, time=0),
    Message('note_on', channel=9, note=42, velocity=0, time=60),
    Message('note_on', channel=9, note=36, velocity=100, time=0),
    Message('note_on', channel=9, note=42, velocity=100, time=0),
    Message('note_on', channel=9, note=42, velocity=0, time=60),
    Message('note_on', channel=9, note=42, velocity=100, time=0),
    Message('note_on', channel=9, note=42, velocity=0, time=60),
    Message('note_on', channel=9, note=36, velocity=0, time=0),
    Message('note_on', channel=9, note=42, velocity=100, time=0),
    Message('note_on', channel=9, note=42, velocity=0, time=60),
    Message('note_on', channel=9, note=42, velocity=100, time=0),
    Message('note_on', channel=9, note=42, velocity=0, time=60),
    Message('note_on', channel=9, note=36, velocity=100, time=0),
    Message('note_on', channel=9, note=42, velocity=100, time=0),
    Message('note_on', channel=9, note=42, velocity=0, time=60),
    Message('note_on', channel=9, note=42, velocity=100, time=0),
    Message('note_on', channel=9, note=42, velocity=0, time=60),
    Message('note_on', channel=9, note=36, velocity=0, time=0),
    Message('note_on', channel=9, note=42, velocity=100, time=0),
    Message('note_on', channel=9, note=42, velocity=0, time=60),
    Message('note_on', channel=9, note=42, velocity=100, time=0),
    Message('note_on', channel=9, note=42, velocity=0, time=60),
    Message('note_on', channel=9, note=36, velocity=100, time=0),
    Message('note_on', channel=9, note=42, velocity=100, time=0),
    Message('note_on', channel=9, note=42, velocity=0, time=60),
    Message('note_on', channel=9, note=42, velocity=100, time=0),
    Message('note_on', channel=9, note=42, velocity=0, time=60),
    Message('note_on', channel=9, note=36, velocity=0, time=0),
    Message('note_on', channel=9, note=42, velocity=100, time=0),
    Message('note_on', channel=9, note=42, velocity=0, time=60),
    Message('note_on', channel=9, note=42, velocity=100, time=0),
    Message('note_on', channel=9, note=42, velocity=0, time=60),
    Message('note_on', channel=9, note=36, velocity=100, time=0),
    Message('note_on', channel=9, note=42, velocity=100, time=0),
    Message('note_on', channel=9, note=42, velocity=100, time=0),
    Message('note_on', channel=9, note=42, velocity=0, time=60),
    Message('note_on', channel=9, note=42, velocity=100, time=0),
    Message('note_on', channel=9, note=36, velocity=0, time=60),
    Message('note_on', channel=9, note=42, velocity=0, time=0),
    Message('note_on', channel=9, note=42, velocity=0, time=0),
    Message('note_on', channel=9, note=42, velocity=100, time=0),
    Message('note_on', channel=9, note=42, velocity=0, time=60),
    Message('note_on', channel=9, note=42, velocity=100, time=0),
    Message('note_on', channel=9, note=42, velocity=0, time=60),
    Message('note_on', channel=9, note=36, velocity=100, time=0),
    Message('note_on', channel=9, note=42, velocity=100, time=0),
    Message('note_on', channel=9, note=42, velocity=0, time=60),
    Message('note_on', channel=9, note=42, velocity=100, time=0),
    Message('note_on', channel=9, note=42, velocity=0, time=60),
    Message('note_on', channel=9, note=36, velocity=0, time=0),
    Message('note_on', channel=9, note=42, velocity=100, time=0),
    Message('note_on', channel=9, note=42, velocity=0, time=60),
    Message('note_on', channel=9, note=42, velocity=100, time=0),
    Message('note_on', channel=9, note=42, velocity=0, time=60),
    Message('note_on', channel=9, note=36, velocity=100, time=0),
    Message('note_on', channel=9, note=42, velocity=100, time=0),
    Message('note_on', channel=9, note=42, velocity=100, time=0),
    Message('note_on', channel=9, note=42, velocity=0, time=60),
    Message('note_on', channel=9, note=42, velocity=100, time=0),
    Message('note_on', channel=9, note=36, velocity=0, time=60),
    Message('note_on', channel=9, note=42, velocity=0, time=0),
    Message('note_on', channel=9, note=42, velocity=0, time=0),
    Message('note_on', channel=9, note=42, velocity=100, time=0),
    Message('note_on', channel=9, note=42, velocity=0, time=60),
    Message('note_on', channel=9, note=42, velocity=100, time=0),
    Message('note_on', channel=9, note=42, velocity=0, time=60),
    Message('note_on', channel=9, note=36, velocity=100, time=0),
    Message('note_on', channel=9, note=42, velocity=100, time=0),
    Message('note_on', channel=9, note=42, velocity=0, time=60),
    Message('note_on', channel=9, note=42, velocity=100, time=0),
    Message('note_on', channel=9, note=42, velocity=0, time=60),
    Message('note_on', channel=9, note=36, velocity=0, time=0),
    Message('note_on', channel=9, note=42, velocity=100, time=0),
    Message('note_on', channel=9, note=42, velocity=0, time=60),
    Message('note_on', channel=9, note=42, velocity=100, time=0),
    Message('note_on', channel=9, note=42, velocity=0, time=60),
    Message('note_on', channel=9, note=36, velocity=100, time=0),
    Message('note_on', channel=9, note=42, velocity=100, time=0),
    Message('note_on', channel=9, note=42, velocity=100, time=0),
    Message('note_on', channel=9, note=42, velocity=0, time=60),
    Message('note_on', channel=9, note=42, velocity=100, time=0),
    Message('note_on', channel=9, note=36, velocity=0, time=60),
    Message('note_on', channel=9, note=42, velocity=0, time=0),
    Message('note_on', channel=9, note=42, velocity=0, time=0),
    Message('note_on', channel=9, note=42, velocity=100, time=0),
    Message('note_on', channel=9, note=42, velocity=0, time=60),
    Message('note_on', channel=9, note=42, velocity=100, time=0),
    Message('note_on', channel=9, note=42, velocity=0, time=60),
    Message('note_on', channel=9, note=36, velocity=100, time=0),
    Message('note_on', channel=9, note=42, velocity=100, time=0),
    Message('note_on', channel=9, note=42, velocity=0, time=60),
    Message('note_on', channel=9, note=42, velocity=100, time=0),
    Message('note_on', channel=9, note=42, velocity=0, time=60),
    Message('note_on', channel=9, note=36, velocity=0, time=0),
    Message('note_on', channel=9, note=42, velocity=100, time=0),
    Message('note_on', channel=9, note=42, velocity=0, time=60),
    Message('note_on', channel=9, note=42, velocity=100, time=0),
    Message('note_on', channel=9, note=42, velocity=0, time=60),
    Message('note_on', channel=9, note=36, velocity=100, time=0),
    Message('note_on', channel=9, note=42, velocity=100, time=0),
    Message('note_on', channel=9, note=42, velocity=0, time=60),
    Message('note_on', channel=9, note=42, velocity=100, time=0),
    Message('note_on', channel=9, note=42, velocity=0, time=60),
    Message('note_on', channel=9, note=36, velocity=0, time=0),
    Message('note_on', channel=9, note=42, velocity=100, time=0),
    Message('note_on', channel=9, note=42, velocity=0, time=60),
    Message('note_on', channel=9, note=42, velocity=100, time=0),
    Message('note_on', channel=9, note=42, velocity=0, time=60),
    Message('note_on', channel=9, note=36, velocity=100, time=0),
    Message('note_on', channel=9, note=42, velocity=100, time=0),
    Message('note_on', channel=9, note=42, velocity=0, time=60),
    Message('note_on', channel=9, note=42, velocity=100, time=0),
    Message('note_on', channel=9, note=42, velocity=0, time=60),
    Message('note_on', channel=9, note=36, velocity=0, time=0),
    Message('note_on', channel=9, note=42, velocity=100, time=0),
    Message('note_on', channel=9, note=42, velocity=0, time=60),
    Message('note_on', channel=9, note=42, velocity=100, time=0),
    Message('note_on', channel=9, note=42, velocity=0, time=60),
    Message('note_on', channel=9, note=36, velocity=100, time=0),
    Message('note_on', channel=9, note=42, velocity=100, time=0),
    Message('note_on', channel=9, note=42, velocity=100, time=0),
    Message('note_on', channel=9, note=42, velocity=0, time=60),
    Message('note_on', channel=9, note=42, velocity=100, time=0),
    Message('note_on', channel=9, note=36, velocity=0, time=60),
    Message('note_on', channel=9, note=42, velocity=0, time=0),
    Message('note_on', channel=9, note=42, velocity=0, time=0),
    Message('note_on', channel=9, note=42, velocity=100, time=0),
    Message('note_on', channel=9, note=42, velocity=0, time=60),
    Message('note_on', channel=9, note=42, velocity=100, time=0),
    Message('note_on', channel=9, note=42, velocity=0, time=60),
    Message('note_on', channel=9, note=36, velocity=100, time=0),
    Message('note_on', channel=9, note=42, velocity=100, time=0),
    Message('note_on', channel=9, note=42, velocity=0, time=60),
    Message('note_on', channel=9, note=42, velocity=100, time=0),
    Message('note_on', channel=9, note=42, velocity=0, time=60),
    Message('note_on', channel=9, note=36, velocity=0, time=0),
    Message('note_on', channel=9, note=42, velocity=100, time=0),
    Message('note_on', channel=9, note=42, velocity=0, time=60),
    Message('note_on', channel=9, note=42, velocity=100, time=0),
    Message('note_on', channel=9, note=42, velocity=0, time=60),
    Message('note_on', channel=9, note=36, velocity=100, time=0),
    Message('note_on', channel=9, note=42, velocity=100, time=0),
    Message('note_on', channel=9, note=42, velocity=100, time=0),
    Message('note_on', channel=9, note=42, velocity=0, time=60),
    Message('note_on', channel=9, note=42, velocity=100, time=0),
    Message('note_on', channel=9, note=36, velocity=0, time=60),
    Message('note_on', channel=9, note=42, velocity=0, time=0),
    Message('note_on', channel=9, note=42, velocity=0, time=0),
    Message('note_on', channel=9, note=42, velocity=100, time=0),
    Message('note_on', channel=9, note=42, velocity=0, time=60),
    Message('note_on', channel=9, note=42, velocity=100, time=0),
    Message('note_on', channel=9, note=42, velocity=0, time=60),
    Message('note_on', channel=9, note=36, velocity=100, time=0),
    Message('note_on', channel=9, note=42, velocity=100, time=0),
    Message('note_on', channel=9, note=42, velocity=0, time=60),
    Message('note_on', channel=9, note=42, velocity=100, time=0),
    Message('note_on', channel=9, note=42, velocity=0, time=60),
    Message('note_on', channel=9, note=36, velocity=0, time=0),
    Message('note_on', channel=9, note=42, velocity=100, time=0),
    Message('note_on', channel=9, note=42, velocity=0, time=60),
    Message('note_on', channel=9, note=42, velocity=100, time=0),
    Message('note_on', channel=9, note=42, velocity=0, time=60),
    Message('note_on', channel=9, note=36, velocity=100, time=0),
    Message('note_on', channel=9, note=42, velocity=100, time=0),
    Message('note_on', channel=9, note=42, velocity=100, time=0),
    Message('note_on', channel=9, note=42, velocity=0, time=60),
    Message('note_on', channel=9, note=42, velocity=100, time=0),
    Message('note_on', channel=9, note=36, velocity=0, time=60),
    Message('note_on', channel=9, note=42, velocity=0, time=0),
    Message('note_on', channel=9, note=42, velocity=0, time=0),
    Message('note_on', channel=9, note=42, velocity=100, time=0),
    Message('note_on', channel=9, note=42, velocity=0, time=60),
    Message('note_on', channel=9, note=42, velocity=100, time=0),
    Message('note_on', channel=9, note=42, velocity=0, time=60),
    Message('note_on', channel=9, note=36, velocity=100, time=0),
    Message('note_on', channel=9, note=42, velocity=100, time=0),
    Message('note_on', channel=9, note=42, velocity=0, time=60),
    Message('note_on', channel=9, note=42, velocity=100, time=0),
    Message('note_on', channel=9, note=42, velocity=0, time=60),
    Message('note_on', channel=9, note=36, velocity=0, time=0),
    Message('note_on', channel=9, note=42, velocity=100, time=0),
    Message('note_on', channel=9, note=42, velocity=0, time=60),
    Message('note_on', channel=9, note=42, velocity=100, time=0),
    Message('note_on', channel=9, note=42, velocity=0, time=60),
    Message('note_on', channel=9, note=36, velocity=100, time=0),
    Message('note_on', channel=9, note=42, velocity=100, time=0),
    Message('note_on', channel=9, note=42, velocity=0, time=60),
    Message('note_on', channel=9, note=42, velocity=100, time=0),
    Message('note_on', channel=9, note=42, velocity=0, time=60),
    Message('note_on', channel=9, note=36, velocity=0, time=0),
    Message('note_on', channel=9, note=42, velocity=100, time=0),
    Message('note_on', channel=9, note=42, velocity=0, time=60),
    Message('note_on', channel=9, note=42, velocity=100, time=0),
    Message('note_on', channel=9, note=42, velocity=0, time=60),
    Message('note_on', channel=9, note=36, velocity=100, time=0),
    Message('note_on', channel=9, note=42, velocity=100, time=0),
    Message('note_on', channel=9, note=42, velocity=0, time=60),
    Message('note_on', channel=9, note=42, velocity=100, time=0),
    Message('note_on', channel=9, note=42, velocity=0, time=60),
    Message('note_on', channel=9, note=36, velocity=0, time=0),
    Message('note_on', channel=9, note=42, velocity=100, time=0),
    Message('note_on', channel=9, note=42, velocity=0, time=60),
    Message('note_on', channel=9, note=42, velocity=100, time=0),
    Message('note_on', channel=9, note=42, velocity=0, time=60),
    Message('note_on', channel=9, note=36, velocity=100, time=0),
    Message('note_on', channel=9, note=42, velocity=100, time=0),
    Message('note_on', channel=9, note=42, velocity=100, time=0),
    Message('note_on', channel=9, note=42, velocity=0, time=60),
    Message('note_on', channel=9, note=42, velocity=100, time=0),
    Message('note_on', channel=9, note=36, velocity=0, time=60),
    Message('note_on', channel=9, note=42, velocity=0, time=0),
    Message('note_on', channel=9, note=42, velocity=0, time=0),
    Message('note_on', channel=9, note=42, velocity=100, time=0),
    Message('note_on', channel=9, note=42, velocity=0, time=60),
    Message('note_on', channel=9, note=42, velocity=100, time=0),
    Message('note_on', channel=9, note=42, velocity=0, time=60),
    Message('note_on', channel=9, note=36, velocity=100, time=0),
    Message('note_on', channel=9, note=42, velocity=100, time=0),
    Message('note_on', channel=9, note=42, velocity=0, time=60),
    Message('note_on', channel=9, note=42, velocity=100, time=0),
    Message('note_on', channel=9, note=42, velocity=0, time=60),
    Message('note_on', channel=9, note=36, velocity=0, time=0),
    Message('note_on', channel=9, note=42, velocity=100, time=0),
    Message('note_on', channel=9, note=42, velocity=0, time=60),
    Message('note_on', channel=9, note=42, velocity=100, time=0),
    Message('note_on', channel=9, note=42, velocity=0, time=60),
    Message('note_on', channel=9, note=36, velocity=100, time=0),
    Message('note_on', channel=9, note=42, velocity=100, time=0),
    Message('note_on', channel=9, note=42, velocity=100, time=0),
    Message('note_on', channel=9, note=42, velocity=0, time=60),
    Message('note_on', channel=9, note=42, velocity=100, time=0),
    Message('note_on', channel=9, note=36, velocity=0, time=60),
    Message('note_on', channel=9, note=42, velocity=0, time=0),
    Message('note_on', channel=9, note=42, velocity=0, time=0),
    Message('note_on', channel=9, note=42, velocity=100, time=0),
    Message('note_on', channel=9, note=42, velocity=0, time=60),
    Message('note_on', channel=9, note=42, velocity=100, time=0),
    Message('note_on', channel=9, note=42, velocity=0, time=60),
    Message('note_on', channel=9, note=36, velocity=100, time=0),
    Message('note_on', channel=9, note=42, velocity=100, time=0),
    Message('note_on', channel=9, note=42, velocity=0, time=60),
    Message('note_on', channel=9, note=42, velocity=100, time=0),
    Message('note_on', channel=9, note=42, velocity=0, time=60),
    Message('note_on', channel=9, note=36, velocity=0, time=0),
    Message('note_on', channel=9, note=42, velocity=100, time=0),
    Message('note_on', channel=9, note=42, velocity=0, time=60),
    Message('note_on', channel=9, note=42, velocity=100, time=0),
    Message('note_on', channel=9, note=42, velocity=0, time=60),
    Message('note_on', channel=9, note=36, velocity=100, time=0),
    Message('note_on', channel=9, note=42, velocity=100, time=0),
    Message('note_on', channel=9, note=42, velocity=100, time=0),
    Message('note_on', channel=9, note=42, velocity=0, time=60),
    Message('note_on', channel=9, note=42, velocity=100, time=0),
    Message('note_on', channel=9, note=36, velocity=0, time=60),
    Message('note_on', channel=9, note=42, velocity=0, time=0),
    Message('note_on', channel=9, note=42, velocity=0, time=0),
    Message('note_on', channel=9, note=42, velocity=100, time=0),
    Message('note_on', channel=9, note=42, velocity=0, time=60),
    Message('note_on', channel=9, note=42, velocity=100, time=0),
    Message('note_on', channel=9, note=42, velocity=0, time=60),
    Message('note_on', channel=9, note=36, velocity=100, time=0),
    Message('note_on', channel=9, note=42, velocity=100, time=0),
    Message('note_on', channel=9, note=42, velocity=0, time=60),
    Message('note_on', channel=9, note=42, velocity=100, time=0),
    Message('note_on', channel=9, note=42, velocity=0, time=60),
    Message('note_on', channel=9, note=36, velocity=0, time=0),
    Message('note_on', channel=9, note=42, velocity=100, time=0),
    Message('note_on', channel=9, note=42, velocity=0, time=60),
    Message('note_on', channel=9, note=42, velocity=100, time=0),
    Message('note_on', channel=9, note=42, velocity=0, time=60),
    Message('note_on', channel=9, note=36, velocity=100, time=0),
    Message('note_on', channel=9, note=42, velocity=100, time=0),
    Message('note_on', channel=9, note=42, velocity=0, time=60),
    Message('note_on', channel=9, note=42, velocity=100, time=0),
    Message('note_on', channel=9, note=42, velocity=0, time=60),
    Message('note_on', channel=9, note=36, velocity=0, time=0),
    Message('note_on', channel=9, note=42, velocity=100, time=0),
    Message('note_on', channel=9, note=42, velocity=0, time=60),
    Message('note_on', channel=9, note=42, velocity=100, time=0),
    Message('note_on', channel=9, note=42, velocity=0, time=60),
    Message('note_on', channel=9, note=36, velocity=100, time=0),
    Message('note_on', channel=9, note=42, velocity=100, time=0),
    Message('note_on', channel=9, note=42, velocity=0, time=60),
    Message('note_on', channel=9, note=42, velocity=100, time=0),
    Message('note_on', channel=9, note=42, velocity=0, time=60),
    Message('note_on', channel=9, note=36, velocity=0, time=0),
    Message('note_on', channel=9, note=42, velocity=100, time=0),
    Message('note_on', channel=9, note=42, velocity=0, time=60),
    Message('note_on', channel=9, note=42, velocity=100, time=0),
    Message('note_on', channel=9, note=42, velocity=0, time=60),
    Message('note_on', channel=9, note=36, velocity=100, time=0),
    Message('note_on', channel=9, note=42, velocity=100, time=0),
    Message('note_on', channel=9, note=42, velocity=100, time=0),
    Message('note_on', channel=9, note=42, velocity=0, time=60),
    Message('note_on', channel=9, note=42, velocity=100, time=0),
    Message('note_on', channel=9, note=36, velocity=0, time=60),
    Message('note_on', channel=9, note=42, velocity=0, time=0),
    Message('note_on', channel=9, note=42, velocity=0, time=0),
    Message('note_on', channel=9, note=42, velocity=100, time=0),
    Message('note_on', channel=9, note=42, velocity=0, time=60),
    Message('note_on', channel=9, note=42, velocity=100, time=0),
    Message('note_on', channel=9, note=42, velocity=0, time=60),
    Message('note_on', channel=9, note=36, velocity=100, time=0),
    Message('note_on', channel=9, note=42, velocity=100, time=0),
    Message('note_on', channel=9, note=42, velocity=0, time=60),
    Message('note_on', channel=9, note=42, velocity=100, time=0),
    Message('note_on', channel=9, note=42, velocity=0, time=60),
    Message('note_on', channel=9, note=36, velocity=0, time=0),
    Message('note_on', channel=9, note=42, velocity=100, time=0),
    Message('note_on', channel=9, note=42, velocity=0, time=60),
    Message('note_on', channel=9, note=42, velocity=100, time=0),
    Message('note_on', channel=9, note=42, velocity=0, time=60),
    Message('note_on', channel=9, note=36, velocity=100, time=0),
    Message('note_on', channel=9, note=42, velocity=100, time=0),
    Message('note_on', channel=9, note=42, velocity=100, time=0),
    Message('note_on', channel=9, note=42, velocity=0, time=60),
    Message('note_on', channel=9, note=42, velocity=100, time=0),
    Message('note_on', channel=9, note=36, velocity=0, time=60),
    Message('note_on', channel=9, note=42, velocity=0, time=0),
    Message('note_on', channel=9, note=42, velocity=0, time=0),
    Message('note_on', channel=9, note=42, velocity=100, time=0),
    Message('note_on', channel=9, note=42, velocity=0, time=60),
    Message('note_on', channel=9, note=42, velocity=100, time=0),
    Message('note_on', channel=9, note=42, velocity=0, time=60),
    Message('note_on', channel=9, note=36, velocity=100, time=0),
    Message('note_on', channel=9, note=42, velocity=100, time=0),
    Message('note_on', channel=9, note=42, velocity=0, time=60),
    Message('note_on', channel=9, note=42, velocity=100, time=0),
    Message('note_on', channel=9, note=42, velocity=0, time=60),
    Message('note_on', channel=9, note=36, velocity=0, time=0),
    Message('note_on', channel=9, note=42, velocity=100, time=0),
    Message('note_on', channel=9, note=42, velocity=0, time=60),
    Message('note_on', channel=9, note=42, velocity=100, time=0),
    Message('note_on', channel=9, note=42, velocity=0, time=60),
    Message('note_on', channel=9, note=36, velocity=100, time=0),
    Message('note_on', channel=9, note=42, velocity=100, time=0),
    Message('note_on', channel=9, note=42, velocity=100, time=0),
    Message('note_on', channel=9, note=42, velocity=0, time=60),
    Message('note_on', channel=9, note=42, velocity=100, time=0),
    Message('note_on', channel=9, note=36, velocity=0, time=60),
    Message('note_on', channel=9, note=42, velocity=0, time=0),
    Message('note_on', channel=9, note=42, velocity=0, time=0),
    Message('note_on', channel=9, note=46, velocity=100, time=0),
    Message('note_on', channel=9, note=42, velocity=0, time=60),
    Message('note_on', channel=9, note=42, velocity=100, time=0),
    Message('note_on', channel=9, note=46, velocity=0, time=60),
    Message('note_on', channel=9, note=36, velocity=100, time=0),
    Message('note_on', channel=9, note=42, velocity=100, time=0),
    Message('note_on', channel=9, note=42, velocity=0, time=60),
    Message('note_on', channel=9, note=42, velocity=100, time=0),
    Message('note_on', channel=9, note=42, velocity=0, time=60),
    Message('note_on', channel=9, note=36, velocity=0, time=0),
    Message('note_on', channel=9, note=46, velocity=100, time=0),
    Message('note_on', channel=9, note=42, velocity=0, time=60),
    Message('note_on', channel=9, note=42, velocity=100, time=0),
    Message('note_on', channel=9, note=46, velocity=0, time=60),
    Message('note_on', channel=9, note=36, velocity=100, time=0),
    Message('note_on', channel=9, note=42, velocity=100, time=0),
    Message('note_on', channel=9, note=42, velocity=0, time=60),
    Message('note_on', channel=9, note=42, velocity=100, time=0),
    Message('note_on', channel=9, note=42, velocity=0, time=60),
    Message('note_on', channel=9, note=36, velocity=0, time=0),
    Message('note_on', channel=9, note=42, velocity=100, time=0),
    Message('note_on', channel=9, note=42, velocity=0, time=60),
    Message('note_on', channel=9, note=42, velocity=100, time=0),
    Message('note_on', channel=9, note=42, velocity=0, time=60),
    Message('note_on', channel=9, note=36, velocity=100, time=0),
    Message('note_on', channel=9, note=42, velocity=100, time=0),
    Message('note_on', channel=9, note=42, velocity=0, time=60),
    Message('note_on', channel=9, note=42, velocity=100, time=0),
    Message('note_on', channel=9, note=42, velocity=0, time=60),
    Message('note_on', channel=9, note=36, velocity=0, time=0),
    Message('note_on', channel=9, note=42, velocity=100, time=0),
    Message('note_on', channel=9, note=42, velocity=0, time=60),
    Message('note_on', channel=9, note=42, velocity=100, time=0),
    Message('note_on', channel=9, note=42, velocity=0, time=60),
    Message('note_on', channel=9, note=36, velocity=100, time=0),
    Message('note_on', channel=9, note=42, velocity=100, time=0),
    Message('note_on', channel=9, note=42, velocity=100, time=0),
    Message('note_on', channel=9, note=42, velocity=0, time=60),
    Message('note_on', channel=9, note=42, velocity=100, time=0),
    Message('note_on', channel=9, note=36, velocity=0, time=60),
    Message('note_on', channel=9, note=42, velocity=0, time=0),
    Message('note_on', channel=9, note=42, velocity=0, time=0),
    Message('note_on', channel=9, note=42, velocity=100, time=0),
    Message('note_on', channel=9, note=42, velocity=0, time=60),
    Message('note_on', channel=9, note=42, velocity=100, time=0),
    Message('note_on', channel=9, note=42, velocity=0, time=60),
    Message('note_on', channel=9, note=36, velocity=100, time=0),
    Message('note_on', channel=9, note=42, velocity=100, time=0),
    Message('note_on', channel=9, note=42, velocity=0, time=60),
    Message('note_on', channel=9, note=42, velocity=100, time=0),
    Message('note_on', channel=9, note=42, velocity=0, time=60),
    Message('note_on', channel=9, note=36, velocity=0, time=0),
    Message('note_on', channel=9, note=42, velocity=100, time=0),
    Message('note_on', channel=9, note=42, velocity=0, time=60),
    Message('note_on', channel=9, note=42, velocity=100, time=0),
    Message('note_on', channel=9, note=42, velocity=0, time=60),
    Message('note_on', channel=9, note=36, velocity=100, time=0),
    Message('note_on', channel=9, note=46, velocity=100, time=0),
    Message('note_on', channel=9, note=46, velocity=100, time=0),
    Message('note_on', channel=9, note=42, velocity=0, time=60),
    Message('note_on', channel=9, note=46, velocity=100, time=0),
    Message('note_on', channel=9, note=36, velocity=0, time=60),
    Message('note_on', channel=9, note=46, velocity=0, time=0),
    Message('note_on', channel=9, note=46, velocity=0, time=0),
    Message('note_on', channel=9, note=46, velocity=100, time=0),
    Message('note_on', channel=9, note=46, velocity=0, time=60),
    Message('note_on', channel=9, note=46, velocity=100, time=0),
    Message('note_on', channel=9, note=46, velocity=0, time=60),
    Message('note_on', channel=9, note=36, velocity=100, time=0),
    Message('note_on', channel=9, note=46, velocity=100, time=0),
    Message('note_on', channel=9, note=46, velocity=0, time=60),
    Message('note_on', channel=9, note=46, velocity=100, time=0),
    Message('note_on', channel=9, note=46, velocity=0, time=60),
    Message('note_on', channel=9, note=36, velocity=0, time=0),
    Message('note_on', channel=9, note=46, velocity=100, time=0),
    Message('note_on', channel=9, note=46, velocity=0, time=60),
    Message('note_on', channel=9, note=46, velocity=100, time=0),
    Message('note_on', channel=9, note=46, velocity=0, time=60),
    Message('note_on', channel=9, note=36, velocity=100, time=0),
    Message('note_on', channel=9, note=46, velocity=100, time=0),
    Message('note_on', channel=9, note=46, velocity=100, time=0),
    Message('note_on', channel=9, note=46, velocity=0, time=60),
    Message('note_on', channel=9, note=46, velocity=100, time=0),
    Message('note_on', channel=9, note=36, velocity=0, time=60),
    Message('note_on', channel=9, note=46, velocity=0, time=0),
    Message('note_on', channel=9, note=46, velocity=0, time=0),
    Message('note_on', channel=9, note=46, velocity=100, time=0),
    Message('note_on', channel=9, note=46, velocity=0, time=60),
    Message('note_on', channel=9, note=46, velocity=100, time=0),
    Message('note_on', channel=9, note=46, velocity=0, time=60),
    Message('note_on', channel=9, note=36, velocity=100, time=0),
    Message('note_on', channel=9, note=46, velocity=100, time=0),
    Message('note_on', channel=9, note=46, velocity=0, time=60),
    Message('note_on', channel=9, note=46, velocity=100, time=0),
    Message('note_on', channel=9, note=46, velocity=0, time=60),
    Message('note_on', channel=9, note=36, velocity=0, time=0),
    Message('note_on', channel=9, note=46, velocity=100, time=0),
    Message('note_on', channel=9, note=46, velocity=0, time=60),
    Message('note_on', channel=9, note=46, velocity=100, time=0),
    Message('note_on', channel=9, note=46, velocity=0, time=60),
    Message('note_on', channel=9, note=36, velocity=100, time=0),
    Message('note_on', channel=9, note=42, velocity=100, time=0),
    Message('note_on', channel=9, note=46, velocity=0, time=60),
    Message('note_on', channel=9, note=42, velocity=100, time=0),
    Message('note_on', channel=9, note=42, velocity=0, time=60),
    Message('note_on', channel=9, note=36, velocity=0, time=0),
    Message('note_on', channel=9, note=42, velocity=100, time=0),
    Message('note_on', channel=9, note=42, velocity=0, time=60),
    Message('note_on', channel=9, note=42, velocity=100, time=0),
    Message('note_on', channel=9, note=42, velocity=0, time=60),
    Message('note_on', channel=9, note=36, velocity=100, time=0),
    Message('note_on', channel=9, note=42, velocity=100, time=0),
    Message('note_on', channel=9, note=42, velocity=0, time=60),
    Message('note_on', channel=9, note=42, velocity=100, time=0),
    Message('note_on', channel=9, note=42, velocity=0, time=60),
    Message('note_on', channel=9, note=36, velocity=0, time=0),
    Message('note_on', channel=9, note=42, velocity=100, time=0),
    Message('note_on', channel=9, note=42, velocity=0, time=60),
    Message('note_on', channel=9, note=42, velocity=100, time=0),
    Message('note_on', channel=9, note=42, velocity=0, time=60),
    Message('note_on', channel=9, note=36, velocity=100, time=0),
    Message('note_on', channel=9, note=42, velocity=100, time=0),
    Message('note_on', channel=9, note=42, velocity=100, time=0),
    Message('note_on', channel=9, note=42, velocity=0, time=60),
    Message('note_on', channel=9, note=42, velocity=100, time=0),
    Message('note_on', channel=9, note=36, velocity=0, time=60),
    Message('note_on', channel=9, note=42, velocity=0, time=0),
    Message('note_on', channel=9, note=42, velocity=0, time=0),
    Message('note_on', channel=9, note=42, velocity=100, time=0),
    Message('note_on', channel=9, note=42, velocity=0, time=60),
    Message('note_on', channel=9, note=42, velocity=100, time=0),
    Message('note_on', channel=9, note=42, velocity=0, time=60),
    Message('note_on', channel=9, note=36, velocity=100, time=0),
    Message('note_on', channel=9, note=42, velocity=100, time=0),
    Message('note_on', channel=9, note=42, velocity=0, time=60),
    Message('note_on', channel=9, note=42, velocity=100, time=0),
    Message('note_on', channel=9, note=42, velocity=0, time=60),
    Message('note_on', channel=9, note=36, velocity=0, time=0),
    Message('note_on', channel=9, note=42, velocity=100, time=0),
    Message('note_on', channel=9, note=42, velocity=0, time=60),
    Message('note_on', channel=9, note=42, velocity=100, time=0),
    Message('note_on', channel=9, note=42, velocity=0, time=60),
    Message('note_on', channel=9, note=36, velocity=100, time=0),
    Message('note_on', channel=9, note=42, velocity=100, time=0),
    Message('note_on', channel=9, note=42, velocity=100, time=0),
    Message('note_on', channel=9, note=42, velocity=0, time=60),
    Message('note_on', channel=9, note=42, velocity=100, time=0),
    Message('note_on', channel=9, note=36, velocity=0, time=60),
    Message('note_on', channel=9, note=42, velocity=0, time=0),
    Message('note_on', channel=9, note=42, velocity=0, time=0),
    Message('note_on', channel=9, note=42, velocity=100, time=0),
    Message('note_on', channel=9, note=42, velocity=0, time=60),
    Message('note_on', channel=9, note=42, velocity=100, time=0),
    Message('note_on', channel=9, note=42, velocity=0, time=60),
    Message('note_on', channel=9, note=36, velocity=100, time=0),
    Message('note_on', channel=9, note=42, velocity=100, time=0),
    Message('note_on', channel=9, note=42, velocity=0, time=60),
    Message('note_on', channel=9, note=42, velocity=100, time=0),
    Message('note_on', channel=9, note=42, velocity=0, time=60),
    Message('note_on', channel=9, note=36, velocity=0, time=0),
    Message('note_on', channel=9, note=42, velocity=100, time=0),
    Message('note_on', channel=9, note=42, velocity=0, time=60),
    Message('note_on', channel=9, note=42, velocity=100, time=0),
    Message('note_on', channel=9, note=42, velocity=0, time=60),
    Message('note_on', channel=9, note=36, velocity=100, time=0),
    Message('note_on', channel=9, note=42, velocity=100, time=0),
    Message('note_on', channel=9, note=42, velocity=100, time=0),
    Message('note_on', channel=9, note=42, velocity=0, time=60),
    Message('note_on', channel=9, note=42, velocity=100, time=0),
    Message('note_on', channel=9, note=36, velocity=0, time=60),
    Message('note_on', channel=9, note=42, velocity=0, time=0),
    Message('note_on', channel=9, note=42, velocity=0, time=0),
    Message('note_on', channel=9, note=46, velocity=100, time=0),
    Message('note_on', channel=9, note=42, velocity=0, time=60),
    Message('note_on', channel=9, note=42, velocity=100, time=0),
    Message('note_on', channel=9, note=46, velocity=0, time=60),
    Message('note_on', channel=9, note=36, velocity=100, time=0),
    Message('note_on', channel=9, note=42, velocity=100, time=0),
    Message('note_on', channel=9, note=42, velocity=0, time=60),
    Message('note_on', channel=9, note=42, velocity=100, time=0),
    Message('note_on', channel=9, note=42, velocity=0, time=60),
    Message('note_on', channel=9, note=36, velocity=0, time=0),
    Message('note_on', channel=9, note=46, velocity=100, time=0),
    Message('note_on', channel=9, note=42, velocity=0, time=60),
    Message('note_on', channel=9, note=42, velocity=100, time=0),
    Message('note_on', channel=9, note=46, velocity=0, time=60),
    Message('note_on', channel=9, note=36, velocity=100, time=0),
    Message('note_on', channel=9, note=42, velocity=100, time=0),
    Message('note_on', channel=9, note=42, velocity=0, time=60),
    Message('note_on', channel=9, note=42, velocity=100, time=0),
    Message('note_on', channel=9, note=42, velocity=0, time=60),
    Message('note_on', channel=9, note=36, velocity=0, time=0),
    Message('note_on', channel=9, note=42, velocity=100, time=0),
    Message('note_on', channel=9, note=42, velocity=0, time=60),
    Message('note_on', channel=9, note=42, velocity=100, time=0),
    Message('note_on', channel=9, note=42, velocity=0, time=60),
    Message('note_on', channel=9, note=36, velocity=100, time=0),
    Message('note_on', channel=9, note=42, velocity=100, time=0),
    Message('note_on', channel=9, note=42, velocity=0, time=60),
    Message('note_on', channel=9, note=42, velocity=100, time=0),
    Message('note_on', channel=9, note=42, velocity=0, time=60),
    Message('note_on', channel=9, note=36, velocity=0, time=0),
    Message('note_on', channel=9, note=42, velocity=100, time=0),
    Message('note_on', channel=9, note=42, velocity=0, time=60),
    Message('note_on', channel=9, note=42, velocity=100, time=0),
    Message('note_on', channel=9, note=42, velocity=0, time=60),
    Message('note_on', channel=9, note=36, velocity=100, time=0),
    Message('note_on', channel=9, note=42, velocity=100, time=0),
    Message('note_on', channel=9, note=42, velocity=100, time=0),
    Message('note_on', channel=9, note=42, velocity=0, time=60),
    Message('note_on', channel=9, note=42, velocity=100, time=0),
    Message('note_on', channel=9, note=36, velocity=0, time=60),
    Message('note_on', channel=9, note=42, velocity=0, time=0),
    Message('note_on', channel=9, note=42, velocity=0, time=0),
    Message('note_on', channel=9, note=42, velocity=100, time=0),
    Message('note_on', channel=9, note=42, velocity=0, time=60),
    Message('note_on', channel=9, note=42, velocity=100, time=0),
    Message('note_on', channel=9, note=42, velocity=0, time=60),
    Message('note_on', channel=9, note=36, velocity=100, time=0),
    Message('note_on', channel=9, note=42, velocity=100, time=0),
    Message('note_on', channel=9, note=42, velocity=0, time=60),
    Message('note_on', channel=9, note=42, velocity=100, time=0),
    Message('note_on', channel=9, note=42, velocity=0, time=60),
    Message('note_on', channel=9, note=36, velocity=0, time=0),
    Message('note_on', channel=9, note=42, velocity=100, time=0),
    Message('note_on', channel=9, note=42, velocity=0, time=60),
    Message('note_on', channel=9, note=42, velocity=100, time=0),
    Message('note_on', channel=9, note=42, velocity=0, time=60),
    Message('note_on', channel=9, note=36, velocity=100, time=0),
    Message('note_on', channel=9, note=42, velocity=100, time=0),
    Message('note_on', channel=9, note=42, velocity=100, time=0),
    Message('note_on', channel=9, note=42, velocity=0, time=60),
    Message('note_on', channel=9, note=42, velocity=100, time=0),
    Message('note_on', channel=9, note=36, velocity=0, time=60),
    Message('note_on', channel=9, note=42, velocity=0, time=0),
    Message('note_on', channel=9, note=42, velocity=0, time=0),
    Message('note_on', channel=9, note=42, velocity=100, time=0),
    Message('note_on', channel=9, note=42, velocity=0, time=60),
    Message('note_on', channel=9, note=42, velocity=100, time=0),
    Message('note_on', channel=9, note=42, velocity=0, time=60),
    Message('note_on', channel=9, note=36, velocity=100, time=0),
    Message('note_on', channel=9, note=42, velocity=100, time=0),
    Message('note_on', channel=9, note=42, velocity=0, time=60),
    Message('note_on', channel=9, note=42, velocity=100, time=0),
    Message('note_on', channel=9, note=42, velocity=0, time=60),
    Message('note_on', channel=9, note=36, velocity=0, time=0),
    Message('note_on', channel=9, note=42, velocity=100, time=0),
    Message('note_on', channel=9, note=42, velocity=0, time=60),
    Message('note_on', channel=9, note=42, velocity=100, time=0),
    Message('note_on', channel=9, note=42, velocity=0, time=60),
    Message('note_on', channel=9, note=36, velocity=100, time=0),
    Message('note_on', channel=9, note=42, velocity=100, time=0),
    Message('note_on', channel=9, note=42, velocity=100, time=0),
    Message('note_on', channel=9, note=42, velocity=0, time=60),
    Message('note_on', channel=9, note=42, velocity=100, time=0),
    Message('note_on', channel=9, note=36, velocity=0, time=60),
    Message('note_on', channel=9, note=42, velocity=0, time=0),
    Message('note_on', channel=9, note=42, velocity=0, time=0),
    Message('note_on', channel=9, note=46, velocity=100, time=0),
    Message('note_on', channel=9, note=42, velocity=0, time=60),
    Message('note_on', channel=9, note=42, velocity=100, time=0),
    Message('note_on', channel=9, note=46, velocity=0, time=60),
    Message('note_on', channel=9, note=36, velocity=100, time=0),
    Message('note_on', channel=9, note=42, velocity=100, time=0),
    Message('note_on', channel=9, note=42, velocity=0, time=60),
    Message('note_on', channel=9, note=42, velocity=100, time=0),
    Message('note_on', channel=9, note=42, velocity=0, time=60),
    Message('note_on', channel=9, note=36, velocity=0, time=0),
    Message('note_on', channel=9, note=46, velocity=100, time=0),
    Message('note_on', channel=9, note=42, velocity=0, time=60),
    Message('note_on', channel=9, note=42, velocity=100, time=0),
    Message('note_on', channel=9, note=46, velocity=0, time=60),
    Message('note_on', channel=9, note=36, velocity=100, time=0),
    Message('note_on', channel=9, note=55, velocity=100, time=0),
    Message('note_on', channel=9, note=42, velocity=0, time=60),
    Message('note_on', channel=9, note=42, velocity=100, time=0),
    Message('note_on', channel=9, note=55, velocity=0, time=60),
    Message('note_on', channel=9, note=36, velocity=0, time=0),
    Message('note_on', channel=9, note=42, velocity=100, time=0),
    Message('note_on', channel=9, note=42, velocity=0, time=60),
    Message('note_on', channel=9, note=42, velocity=100, time=0),
    Message('note_on', channel=9, note=42, velocity=0, time=60),
    Message('note_on', channel=9, note=36, velocity=100, time=0),
    Message('note_on', channel=9, note=42, velocity=100, time=0),
    Message('note_on', channel=9, note=42, velocity=0, time=60),
    Message('note_on', channel=9, note=42, velocity=100, time=0),
    Message('note_on', channel=9, note=42, velocity=0, time=60),
    Message('note_on', channel=9, note=36, velocity=0, time=0),
    Message('note_on', channel=9, note=42, velocity=100, time=0),
    Message('note_on', channel=9, note=42, velocity=0, time=60),
    Message('note_on', channel=9, note=42, velocity=100, time=0),
    Message('note_on', channel=9, note=42, velocity=0, time=60),
    Message('note_on', channel=9, note=36, velocity=100, time=0),
    Message('note_on', channel=9, note=42, velocity=100, time=0),
    Message('note_on', channel=9, note=42, velocity=100, time=0),
    Message('note_on', channel=9, note=42, velocity=0, time=60),
    Message('note_on', channel=9, note=42, velocity=100, time=0),
    Message('note_on', channel=9, note=36, velocity=0, time=60),
    Message('note_on', channel=9, note=42, velocity=0, time=0),
    Message('note_on', channel=9, note=42, velocity=0, time=0),
    Message('note_on', channel=9, note=42, velocity=100, time=0),
    Message('note_on', channel=9, note=42, velocity=0, time=60),
    Message('note_on', channel=9, note=42, velocity=100, time=0),
    Message('note_on', channel=9, note=42, velocity=0, time=60),
    Message('note_on', channel=9, note=36, velocity=100, time=0),
    Message('note_on', channel=9, note=42, velocity=100, time=0),
    Message('note_on', channel=9, note=42, velocity=0, time=60),
    Message('note_on', channel=9, note=42, velocity=100, time=0),
    Message('note_on', channel=9, note=42, velocity=0, time=60),
    Message('note_on', channel=9, note=36, velocity=0, time=0),
    Message('note_on', channel=9, note=42, velocity=100, time=0),
    Message('note_on', channel=9, note=42, velocity=0, time=60),
    Message('note_on', channel=9, note=42, velocity=100, time=0),
    Message('note_on', channel=9, note=42, velocity=0, time=60),
    Message('note_on', channel=9, note=36, velocity=100, time=0),
    Message('note_on', channel=9, note=42, velocity=100, time=0),
    Message('note_on', channel=9, note=42, velocity=100, time=0),
    Message('note_on', channel=9, note=42, velocity=0, time=60),
    Message('note_on', channel=9, note=42, velocity=100, time=0),
    Message('note_on', channel=9, note=36, velocity=0, time=60),
    Message('note_on', channel=9, note=42, velocity=0, time=0),
    Message('note_on', channel=9, note=42, velocity=0, time=0),
    Message('note_on', channel=9, note=42, velocity=100, time=0),
    Message('note_on', channel=9, note=42, velocity=0, time=60),
    Message('note_on', channel=9, note=42, velocity=100, time=0),
    Message('note_on', channel=9, note=42, velocity=0, time=60),
    Message('note_on', channel=9, note=36, velocity=100, time=0),
    Message('note_on', channel=9, note=42, velocity=100, time=0),
    Message('note_on', channel=9, note=42, velocity=0, time=60),
    Message('note_on', channel=9, note=42, velocity=100, time=0),
    Message('note_on', channel=9, note=42, velocity=0, time=60),
    Message('note_on', channel=9, note=36, velocity=0, time=0),
    Message('note_on', channel=9, note=42, velocity=100, time=0),
    Message('note_on', channel=9, note=42, velocity=0, time=60),
    Message('note_on', channel=9, note=42, velocity=100, time=0),
    Message('note_on', channel=9, note=42, velocity=0, time=60),
    Message('note_on', channel=9, note=36, velocity=100, time=0),
    Message('note_on', channel=9, note=42, velocity=100, time=0),
    Message('note_on', channel=9, note=42, velocity=100, time=0),
    Message('note_on', channel=9, note=42, velocity=0, time=60),
    Message('note_on', channel=9, note=42, velocity=100, time=0),
    Message('note_on', channel=9, note=36, velocity=0, time=60),
    Message('note_on', channel=9, note=42, velocity=0, time=0),
    Message('note_on', channel=9, note=42, velocity=0, time=0),
    Message('note_on', channel=9, note=46, velocity=100, time=0),
    Message('note_on', channel=9, note=42, velocity=0, time=60),
    Message('note_on', channel=9, note=42, velocity=100, time=0),
    Message('note_on', channel=9, note=46, velocity=0, time=60),
    Message('note_on', channel=9, note=36, velocity=100, time=0),
    Message('note_on', channel=9, note=42, velocity=100, time=0),
    Message('note_on', channel=9, note=42, velocity=0, time=60),
    Message('note_on', channel=9, note=42, velocity=100, time=0),
    Message('note_on', channel=9, note=42, velocity=0, time=60),
    Message('note_on', channel=9, note=36, velocity=0, time=0),
    Message('note_on', channel=9, note=46, velocity=100, time=0),
    Message('note_on', channel=9, note=42, velocity=0, time=60),
    Message('note_on', channel=9, note=42, velocity=100, time=0),
    Message('note_on', channel=9, note=46, velocity=0, time=60),
    Message('note_on', channel=9, note=36, velocity=100, time=0),
    Message('note_on', channel=9, note=42, velocity=100, time=0),
    Message('note_on', channel=9, note=42, velocity=0, time=60),
    Message('note_on', channel=9, note=42, velocity=100, time=0),
    Message('note_on', channel=9, note=42, velocity=0, time=60),
    Message('note_on', channel=9, note=36, velocity=0, time=0),
    Message('note_on', channel=9, note=42, velocity=100, time=0),
    Message('note_on', channel=9, note=42, velocity=0, time=60),
    Message('note_on', channel=9, note=42, velocity=100, time=0),
    Message('note_on', channel=9, note=42, velocity=0, time=60),
    Message('note_on', channel=9, note=36, velocity=100, time=0),
    Message('note_on', channel=9, note=42, velocity=100, time=0),
    Message('note_on', channel=9, note=42, velocity=0, time=60),
    Message('note_on', channel=9, note=42, velocity=100, time=0),
    Message('note_on', channel=9, note=42, velocity=0, time=60),
    Message('note_on', channel=9, note=36, velocity=0, time=0),
    Message('note_on', channel=9, note=42, velocity=100, time=0),
    Message('note_on', channel=9, note=42, velocity=0, time=60),
    Message('note_on', channel=9, note=42, velocity=100, time=0),
    Message('note_on', channel=9, note=42, velocity=0, time=60),
    Message('note_on', channel=9, note=36, velocity=100, time=0),
    Message('note_on', channel=9, note=42, velocity=100, time=0),
    Message('note_on', channel=9, note=42, velocity=100, time=0),
    Message('note_on', channel=9, note=42, velocity=0, time=60),
    Message('note_on', channel=9, note=42, velocity=100, time=0),
    Message('note_on', channel=9, note=36, velocity=0, time=60),
    Message('note_on', channel=9, note=42, velocity=0, time=0),
    Message('note_on', channel=9, note=42, velocity=0, time=0),
    Message('note_on', channel=9, note=42, velocity=100, time=0),
    Message('note_on', channel=9, note=42, velocity=0, time=60),
    Message('note_on', channel=9, note=42, velocity=100, time=0),
    Message('note_on', channel=9, note=42, velocity=0, time=60),
    Message('note_on', channel=9, note=36, velocity=100, time=0),
    Message('note_on', channel=9, note=42, velocity=100, time=0),
    Message('note_on', channel=9, note=42, velocity=0, time=60),
    Message('note_on', channel=9, note=42, velocity=100, time=0),
    Message('note_on', channel=9, note=42, velocity=0, time=60),
    Message('note_on', channel=9, note=36, velocity=0, time=0),
    Message('note_on', channel=9, note=42, velocity=100, time=0),
    Message('note_on', channel=9, note=42, velocity=0, time=60),
    Message('note_on', channel=9, note=42, velocity=100, time=0),
    Message('note_on', channel=9, note=42, velocity=0, time=60),
    Message('note_on', channel=9, note=36, velocity=100, time=0),
    Message('note_on', channel=9, note=42, velocity=100, time=0),
    Message('note_on', channel=9, note=42, velocity=100, time=0),
    Message('note_on', channel=9, note=42, velocity=0, time=60),
    Message('note_on', channel=9, note=42, velocity=100, time=0),
    Message('note_on', channel=9, note=36, velocity=0, time=60),
    Message('note_on', channel=9, note=42, velocity=0, time=0),
    Message('note_on', channel=9, note=42, velocity=0, time=0),
    Message('note_on', channel=9, note=42, velocity=100, time=0),
    Message('note_on', channel=9, note=42, velocity=0, time=60),
    Message('note_on', channel=9, note=42, velocity=100, time=0),
    Message('note_on', channel=9, note=42, velocity=0, time=60),
    Message('note_on', channel=9, note=36, velocity=100, time=0),
    Message('note_on', channel=9, note=42, velocity=100, time=0),
    Message('note_on', channel=9, note=42, velocity=0, time=60),
    Message('note_on', channel=9, note=42, velocity=100, time=0),
    Message('note_on', channel=9, note=42, velocity=0, time=60),
    Message('note_on', channel=9, note=36, velocity=0, time=0),
    Message('note_on', channel=9, note=42, velocity=100, time=0),
    Message('note_on', channel=9, note=42, velocity=0, time=60),
    Message('note_on', channel=9, note=42, velocity=100, time=0),
    Message('note_on', channel=9, note=42, velocity=0, time=60),
    Message('note_on', channel=9, note=36, velocity=100, time=0),
    Message('note_on', channel=9, note=42, velocity=100, time=0),
    Message('note_on', channel=9, note=42, velocity=100, time=0),
    Message('note_on', channel=9, note=42, velocity=0, time=60),
    Message('note_on', channel=9, note=42, velocity=100, time=0),
    Message('note_on', channel=9, note=36, velocity=0, time=60),
    Message('note_on', channel=9, note=42, velocity=0, time=0),
    Message('note_on', channel=9, note=42, velocity=0, time=0),
    Message('note_on', channel=9, note=46, velocity=100, time=0),
    Message('note_on', channel=9, note=42, velocity=0, time=60),
    Message('note_on', channel=9, note=42, velocity=100, time=0),
    Message('note_on', channel=9, note=46, velocity=0, time=60),
    Message('note_on', channel=9, note=36, velocity=100, time=0),
    Message('note_on', channel=9, note=42, velocity=100, time=0),
    Message('note_on', channel=9, note=42, velocity=0, time=60),
    Message('note_on', channel=9, note=42, velocity=100, time=0),
    Message('note_on', channel=9, note=42, velocity=0, time=60),
    Message('note_on', channel=9, note=36, velocity=0, time=0),
    Message('note_on', channel=9, note=46, velocity=100, time=0),
    Message('note_on', channel=9, note=42, velocity=0, time=60),
    Message('note_on', channel=9, note=42, velocity=100, time=0),
    Message('note_on', channel=9, note=46, velocity=0, time=60),
    Message('note_on', channel=9, note=36, velocity=100, time=0),
    Message('note_on', channel=9, note=55, velocity=100, time=0),
    Message('note_on', channel=9, note=42, velocity=0, time=60),
    Message('note_on', channel=9, note=42, velocity=100, time=0),
    Message('note_on', channel=9, note=55, velocity=0, time=60),
    Message('note_on', channel=9, note=36, velocity=0, time=0),
    Message('note_on', channel=9, note=42, velocity=100, time=0),
    Message('note_on', channel=9, note=42, velocity=0, time=60),
    Message('note_on', channel=9, note=42, velocity=100, time=0),
    Message('note_on', channel=9, note=42, velocity=0, time=60),
    Message('note_on', channel=9, note=36, velocity=100, time=0),
    Message('note_on', channel=9, note=42, velocity=100, time=0),
    Message('note_on', channel=9, note=42, velocity=0, time=60),
    Message('note_on', channel=9, note=42, velocity=100, time=0),
    Message('note_on', channel=9, note=42, velocity=0, time=60),
    Message('note_on', channel=9, note=36, velocity=0, time=0),
    Message('note_on', channel=9, note=42, velocity=100, time=0),
    Message('note_on', channel=9, note=42, velocity=0, time=60),
    Message('note_on', channel=9, note=42, velocity=100, time=0),
    Message('note_on', channel=9, note=42, velocity=0, time=60),
    Message('note_on', channel=9, note=36, velocity=100, time=0),
    Message('note_on', channel=9, note=42, velocity=100, time=0),
    Message('note_on', channel=9, note=42, velocity=100, time=0),
    Message('note_on', channel=9, note=42, velocity=0, time=60),
    Message('note_on', channel=9, note=42, velocity=100, time=0),
    Message('note_on', channel=9, note=36, velocity=0, time=60),
    Message('note_on', channel=9, note=42, velocity=0, time=0),
    Message('note_on', channel=9, note=42, velocity=0, time=0),
    Message('note_on', channel=9, note=42, velocity=100, time=0),
    Message('note_on', channel=9, note=42, velocity=0, time=60),
    Message('note_on', channel=9, note=42, velocity=100, time=0),
    Message('note_on', channel=9, note=42, velocity=0, time=60),
    Message('note_on', channel=9, note=36, velocity=100, time=0),
    Message('note_on', channel=9, note=42, velocity=100, time=0),
    Message('note_on', channel=9, note=42, velocity=0, time=60),
    Message('note_on', channel=9, note=42, velocity=100, time=0),
    Message('note_on', channel=9, note=42, velocity=0, time=60),
    Message('note_on', channel=9, note=36, velocity=0, time=0),
    Message('note_on', channel=9, note=42, velocity=100, time=0),
    Message('note_on', channel=9, note=42, velocity=0, time=60),
    Message('note_on', channel=9, note=42, velocity=100, time=0),
    Message('note_on', channel=9, note=42, velocity=0, time=60),
    Message('note_on', channel=9, note=36, velocity=100, time=0),
    Message('note_on', channel=9, note=42, velocity=100, time=0),
    Message('note_on', channel=9, note=42, velocity=100, time=0),
    Message('note_on', channel=9, note=42, velocity=0, time=60),
    Message('note_on', channel=9, note=42, velocity=100, time=0),
    Message('note_on', channel=9, note=36, velocity=0, time=60),
    Message('note_on', channel=9, note=42, velocity=0, time=0),
    Message('note_on', channel=9, note=42, velocity=0, time=0),
    Message('note_on', channel=9, note=42, velocity=100, time=0),
    Message('note_on', channel=9, note=42, velocity=0, time=60),
    Message('note_on', channel=9, note=42, velocity=100, time=0),
    Message('note_on', channel=9, note=42, velocity=0, time=60),
    Message('note_on', channel=9, note=36, velocity=100, time=0),
    Message('note_on', channel=9, note=42, velocity=100, time=0),
    Message('note_on', channel=9, note=42, velocity=0, time=60),
    Message('note_on', channel=9, note=42, velocity=100, time=0),
    Message('note_on', channel=9, note=42, velocity=0, time=60),
    Message('note_on', channel=9, note=36, velocity=0, time=0),
    Message('note_on', channel=9, note=42, velocity=100, time=0),
    Message('note_on', channel=9, note=42, velocity=0, time=60),
    Message('note_on', channel=9, note=42, velocity=100, time=0),
    Message('note_on', channel=9, note=42, velocity=0, time=60),
    Message('note_on', channel=9, note=36, velocity=100, time=0),
    Message('note_on', channel=9, note=42, velocity=100, time=0),
    Message('note_on', channel=9, note=42, velocity=100, time=0),
    Message('note_on', channel=9, note=42, velocity=0, time=60),
    Message('note_on', channel=9, note=42, velocity=100, time=0),
    Message('note_on', channel=9, note=36, velocity=0, time=60),
    Message('note_on', channel=9, note=42, velocity=0, time=0),
    Message('note_on', channel=9, note=42, velocity=0, time=0),
    Message('note_on', channel=9, note=46, velocity=100, time=0),
    Message('note_on', channel=9, note=42, velocity=0, time=60),
    Message('note_on', channel=9, note=42, velocity=100, time=0),
    Message('note_on', channel=9, note=46, velocity=0, time=60),
    Message('note_on', channel=9, note=36, velocity=100, time=0),
    Message('note_on', channel=9, note=42, velocity=100, time=0),
    Message('note_on', channel=9, note=42, velocity=0, time=60),
    Message('note_on', channel=9, note=42, velocity=100, time=0),
    Message('note_on', channel=9, note=42, velocity=0, time=60),
    Message('note_on', channel=9, note=36, velocity=0, time=0),
    Message('note_on', channel=9, note=46, velocity=100, time=0),
    Message('note_on', channel=9, note=42, velocity=0, time=60),
    Message('note_on', channel=9, note=42, velocity=100, time=0),
    Message('note_on', channel=9, note=46, velocity=0, time=60),
    Message('note_on', channel=9, note=36, velocity=100, time=0),
    Message('note_on', channel=9, note=42, velocity=100, time=0),
    Message('note_on', channel=9, note=42, velocity=0, time=60),
    Message('note_on', channel=9, note=42, velocity=100, time=0),
    Message('note_on', channel=9, note=42, velocity=0, time=60),
    Message('note_on', channel=9, note=36, velocity=0, time=0),
    Message('note_on', channel=9, note=42, velocity=100, time=0),
    Message('note_on', channel=9, note=42, velocity=0, time=60),
    Message('note_on', channel=9, note=42, velocity=100, time=0),
    Message('note_on', channel=9, note=42, velocity=0, time=60),
    Message('note_on', channel=9, note=36, velocity=100, time=0),
    Message('note_on', channel=9, note=42, velocity=100, time=0),
    Message('note_on', channel=9, note=42, velocity=0, time=60),
    Message('note_on', channel=9, note=42, velocity=100, time=0),
    Message('note_on', channel=9, note=42, velocity=0, time=60),
    Message('note_on', channel=9, note=36, velocity=0, time=0),
    Message('note_on', channel=9, note=42, velocity=100, time=0),
    Message('note_on', channel=9, note=42, velocity=0, time=60),
    Message('note_on', channel=9, note=42, velocity=100, time=0),
    Message('note_on', channel=9, note=42, velocity=0, time=60),
    Message('note_on', channel=9, note=36, velocity=100, time=0),
    Message('note_on', channel=9, note=42, velocity=100, time=0),
    Message('note_on', channel=9, note=42, velocity=100, time=0),
    Message('note_on', channel=9, note=42, velocity=0, time=60),
    Message('note_on', channel=9, note=42, velocity=100, time=0),
    Message('note_on', channel=9, note=36, velocity=0, time=60),
    Message('note_on', channel=9, note=42, velocity=0, time=0),
    Message('note_on', channel=9, note=42, velocity=0, time=0),
    Message('note_on', channel=9, note=42, velocity=100, time=0),
    Message('note_on', channel=9, note=42, velocity=0, time=60),
    Message('note_on', channel=9, note=42, velocity=100, time=0),
    Message('note_on', channel=9, note=42, velocity=0, time=60),
    Message('note_on', channel=9, note=36, velocity=100, time=0),
    Message('note_on', channel=9, note=42, velocity=100, time=0),
    Message('note_on', channel=9, note=42, velocity=0, time=60),
    Message('note_on', channel=9, note=42, velocity=100, time=0),
    Message('note_on', channel=9, note=42, velocity=0, time=60),
    Message('note_on', channel=9, note=36, velocity=0, time=0),
    Message('note_on', channel=9, note=42, velocity=100, time=0),
    Message('note_on', channel=9, note=42, velocity=0, time=60),
    Message('note_on', channel=9, note=42, velocity=100, time=0),
    Message('note_on', channel=9, note=42, velocity=0, time=60),
    Message('note_on', channel=9, note=36, velocity=100, time=0),
    Message('note_on', channel=9, note=42, velocity=100, time=0),
    Message('note_on', channel=9, note=42, velocity=100, time=0),
    Message('note_on', channel=9, note=42, velocity=0, time=60),
    Message('note_on', channel=9, note=42, velocity=100, time=0),
    Message('note_on', channel=9, note=36, velocity=0, time=60),
    Message('note_on', channel=9, note=42, velocity=0, time=0),
    Message('note_on', channel=9, note=42, velocity=0, time=0),
    Message('note_on', channel=9, note=42, velocity=100, time=0),
    Message('note_on', channel=9, note=42, velocity=0, time=60),
    Message('note_on', channel=9, note=42, velocity=100, time=0),
    Message('note_on', channel=9, note=42, velocity=0, time=60),
    Message('note_on', channel=9, note=36, velocity=100, time=0),
    Message('note_on', channel=9, note=42, velocity=100, time=0),
    Message('note_on', channel=9, note=42, velocity=0, time=60),
    Message('note_on', channel=9, note=42, velocity=100, time=0),
    Message('note_on', channel=9, note=42, velocity=0, time=60),
    Message('note_on', channel=9, note=36, velocity=0, time=0),
    Message('note_on', channel=9, note=42, velocity=100, time=0),
    Message('note_on', channel=9, note=42, velocity=0, time=60),
    Message('note_on', channel=9, note=42, velocity=100, time=0),
    Message('note_on', channel=9, note=42, velocity=0, time=60),
    Message('note_on', channel=9, note=36, velocity=100, time=0),
    Message('note_on', channel=9, note=42, velocity=100, time=0),
    Message('note_on', channel=9, note=42, velocity=100, time=0),
    Message('note_on', channel=9, note=42, velocity=0, time=60),
    Message('note_on', channel=9, note=42, velocity=100, time=0),
    Message('note_on', channel=9, note=36, velocity=0, time=60),
    Message('note_on', channel=9, note=42, velocity=0, time=0),
    Message('note_on', channel=9, note=42, velocity=0, time=0),
    Message('note_on', channel=9, note=46, velocity=100, time=0),
    Message('note_on', channel=9, note=42, velocity=0, time=60),
    Message('note_on', channel=9, note=42, velocity=100, time=0),
    Message('note_on', channel=9, note=46, velocity=0, time=60),
    Message('note_on', channel=9, note=36, velocity=100, time=0),
    Message('note_on', channel=9, note=42, velocity=100, time=0),
    Message('note_on', channel=9, note=42, velocity=0, time=60),
    Message('note_on', channel=9, note=42, velocity=100, time=0),
    Message('note_on', channel=9, note=42, velocity=0, time=60),
    Message('note_on', channel=9, note=36, velocity=0, time=0),
    Message('note_on', channel=9, note=46, velocity=100, time=0),
    Message('note_on', channel=9, note=42, velocity=0, time=60),
    Message('note_on', channel=9, note=42, velocity=100, time=0),
    Message('note_on', channel=9, note=46, velocity=0, time=60),
    Message('note_on', channel=9, note=36, velocity=100, time=0),
    Message('note_on', channel=9, note=55, velocity=100, time=0),
    Message('note_on', channel=9, note=42, velocity=0, time=60),
    Message('note_on', channel=9, note=42, velocity=100, time=0),
    Message('note_on', channel=9, note=55, velocity=0, time=60),
    Message('note_on', channel=9, note=36, velocity=0, time=0),
    Message('note_on', channel=9, note=42, velocity=100, time=0),
    Message('note_on', channel=9, note=42, velocity=0, time=60),
    Message('note_on', channel=9, note=42, velocity=100, time=0),
    Message('note_on', channel=9, note=42, velocity=0, time=60),
    Message('note_on', channel=9, note=36, velocity=100, time=0),
    Message('note_on', channel=9, note=42, velocity=100, time=0),
    Message('note_on', channel=9, note=42, velocity=0, time=60),
    Message('note_on', channel=9, note=42, velocity=100, time=0),
    Message('note_on', channel=9, note=42, velocity=0, time=60),
    Message('note_on', channel=9, note=36, velocity=0, time=0),
    Message('note_on', channel=9, note=42, velocity=100, time=0),
    Message('note_on', channel=9, note=42, velocity=0, time=60),
    Message('note_on', channel=9, note=42, velocity=100, time=0),
    Message('note_on', channel=9, note=42, velocity=0, time=60),
    Message('note_on', channel=9, note=36, velocity=100, time=0),
    Message('note_on', channel=9, note=42, velocity=100, time=0),
    Message('note_on', channel=9, note=42, velocity=100, time=0),
    Message('note_on', channel=9, note=42, velocity=0, time=60),
    Message('note_on', channel=9, note=42, velocity=100, time=0),
    Message('note_on', channel=9, note=36, velocity=0, time=60),
    Message('note_on', channel=9, note=42, velocity=0, time=0),
    Message('note_on', channel=9, note=42, velocity=0, time=0),
    Message('note_on', channel=9, note=42, velocity=100, time=0),
    Message('note_on', channel=9, note=42, velocity=0, time=60),
    Message('note_on', channel=9, note=42, velocity=100, time=0),
    Message('note_on', channel=9, note=42, velocity=0, time=60),
    Message('note_on', channel=9, note=36, velocity=100, time=0),
    Message('note_on', channel=9, note=42, velocity=100, time=0),
    Message('note_on', channel=9, note=42, velocity=0, time=60),
    Message('note_on', channel=9, note=42, velocity=100, time=0),
    Message('note_on', channel=9, note=42, velocity=0, time=60),
    Message('note_on', channel=9, note=36, velocity=0, time=0),
    Message('note_on', channel=9, note=42, velocity=100, time=0),
    Message('note_on', channel=9, note=42, velocity=0, time=60),
    Message('note_on', channel=9, note=42, velocity=100, time=0),
    Message('note_on', channel=9, note=42, velocity=0, time=60),
    Message('note_on', channel=9, note=36, velocity=100, time=0),
    Message('note_on', channel=9, note=42, velocity=100, time=0),
    Message('note_on', channel=9, note=42, velocity=100, time=0),
    Message('note_on', channel=9, note=42, velocity=0, time=60),
    Message('note_on', channel=9, note=42, velocity=100, time=0),
    Message('note_on', channel=9, note=36, velocity=0, time=60),
    Message('note_on', channel=9, note=42, velocity=0, time=0),
    Message('note_on', channel=9, note=42, velocity=0, time=0),
    Message('note_on', channel=9, note=42, velocity=100, time=0),
    Message('note_on', channel=9, note=42, velocity=0, time=60),
    Message('note_on', channel=9, note=42, velocity=100, time=0),
    Message('note_on', channel=9, note=42, velocity=0, time=60),
    Message('note_on', channel=9, note=36, velocity=100, time=0),
    Message('note_on', channel=9, note=42, velocity=100, time=0),
    Message('note_on', channel=9, note=42, velocity=0, time=60),
    Message('note_on', channel=9, note=42, velocity=100, time=0),
    Message('note_on', channel=9, note=42, velocity=0, time=60),
    Message('note_on', channel=9, note=36, velocity=0, time=0),
    Message('note_on', channel=9, note=42, velocity=100, time=0),
    Message('note_on', channel=9, note=42, velocity=0, time=60),
    Message('note_on', channel=9, note=42, velocity=100, time=0),
    Message('note_on', channel=9, note=42, velocity=0, time=60),
    Message('note_on', channel=9, note=36, velocity=100, time=0),
    Message('note_on', channel=9, note=42, velocity=100, time=0),
    Message('note_on', channel=9, note=42, velocity=100, time=0),
    Message('note_on', channel=9, note=42, velocity=0, time=60),
    Message('note_on', channel=9, note=42, velocity=100, time=0),
    Message('note_on', channel=9, note=36, velocity=0, time=60),
    Message('note_on', channel=9, note=42, velocity=0, time=0),
    Message('note_on', channel=9, note=42, velocity=0, time=0),
    Message('note_on', channel=9, note=46, velocity=100, time=0),
    Message('note_on', channel=9, note=42, velocity=0, time=60),
    Message('note_on', channel=9, note=42, velocity=100, time=0),
    Message('note_on', channel=9, note=46, velocity=0, time=60),
    Message('note_on', channel=9, note=36, velocity=100, time=0),
    Message('note_on', channel=9, note=42, velocity=100, time=0),
    Message('note_on', channel=9, note=42, velocity=0, time=60),
    Message('note_on', channel=9, note=42, velocity=100, time=0),
    Message('note_on', channel=9, note=42, velocity=0, time=60),
    Message('note_on', channel=9, note=36, velocity=0, time=0),
    Message('note_on', channel=9, note=46, velocity=100, time=0),
    Message('note_on', channel=9, note=42, velocity=0, time=60),
    Message('note_on', channel=9, note=42, velocity=100, time=0),
    Message('note_on', channel=9, note=46, velocity=0, time=60),
    Message('note_on', channel=9, note=36, velocity=100, time=0),
    Message('note_on', channel=9, note=42, velocity=100, time=0),
    Message('note_on', channel=9, note=42, velocity=0, time=60),
    Message('note_on', channel=9, note=42, velocity=100, time=0),
    Message('note_on', channel=9, note=42, velocity=0, time=60),
    Message('note_on', channel=9, note=36, velocity=0, time=0),
    Message('note_on', channel=9, note=42, velocity=100, time=0),
    Message('note_on', channel=9, note=42, velocity=0, time=60),
    Message('note_on', channel=9, note=42, velocity=100, time=0),
    Message('note_on', channel=9, note=42, velocity=0, time=60),
    Message('note_on', channel=9, note=36, velocity=100, time=0),
    Message('note_on', channel=9, note=42, velocity=100, time=0),
    Message('note_on', channel=9, note=42, velocity=0, time=60),
    Message('note_on', channel=9, note=42, velocity=100, time=0),
    Message('note_on', channel=9, note=42, velocity=0, time=60),
    Message('note_on', channel=9, note=36, velocity=0, time=0),
    Message('note_on', channel=9, note=42, velocity=100, time=0),
    Message('note_on', channel=9, note=42, velocity=0, time=60),
    Message('note_on', channel=9, note=42, velocity=100, time=0),
    Message('note_on', channel=9, note=42, velocity=0, time=60),
    Message('note_on', channel=9, note=36, velocity=100, time=0),
    Message('note_on', channel=9, note=42, velocity=100, time=0),
    Message('note_on', channel=9, note=42, velocity=100, time=0),
    Message('note_on', channel=9, note=42, velocity=0, time=60),
    Message('note_on', channel=9, note=42, velocity=100, time=0),
    Message('note_on', channel=9, note=36, velocity=0, time=60),
    Message('note_on', channel=9, note=42, velocity=0, time=0),
    Message('note_on', channel=9, note=42, velocity=0, time=0),
    Message('note_on', channel=9, note=42, velocity=100, time=0),
    Message('note_on', channel=9, note=42, velocity=0, time=60),
    Message('note_on', channel=9, note=42, velocity=100, time=0),
    Message('note_on', channel=9, note=42, velocity=0, time=60),
    Message('note_on', channel=9, note=36, velocity=100, time=0),
    Message('note_on', channel=9, note=42, velocity=100, time=0),
    Message('note_on', channel=9, note=42, velocity=0, time=60),
    Message('note_on', channel=9, note=42, velocity=100, time=0),
    Message('note_on', channel=9, note=42, velocity=0, time=60),
    Message('note_on', channel=9, note=36, velocity=0, time=0),
    Message('note_on', channel=9, note=42, velocity=100, time=0),
    Message('note_on', channel=9, note=42, velocity=0, time=60),
    Message('note_on', channel=9, note=42, velocity=100, time=0),
    Message('note_on', channel=9, note=42, velocity=0, time=60),
    Message('note_on', channel=9, note=36, velocity=100, time=0),
    Message('note_on', channel=9, note=42, velocity=100, time=0),
    Message('note_on', channel=9, note=42, velocity=100, time=0),
    Message('note_on', channel=9, note=42, velocity=0, time=60),
    Message('note_on', channel=9, note=42, velocity=100, time=0),
    Message('note_on', channel=9, note=36, velocity=0, time=60),
    Message('note_on', channel=9, note=42, velocity=0, time=0),
    Message('note_on', channel=9, note=42, velocity=0, time=0),
    Message('note_on', channel=9, note=42, velocity=100, time=0),
    Message('note_on', channel=9, note=42, velocity=0, time=60),
    Message('note_on', channel=9, note=42, velocity=100, time=0),
    Message('note_on', channel=9, note=42, velocity=0, time=60),
    Message('note_on', channel=9, note=36, velocity=100, time=0),
    Message('note_on', channel=9, note=42, velocity=100, time=0),
    Message('note_on', channel=9, note=42, velocity=0, time=60),
    Message('note_on', channel=9, note=42, velocity=100, time=0),
    Message('note_on', channel=9, note=42, velocity=0, time=60),
    Message('note_on', channel=9, note=36, velocity=0, time=0),
    Message('note_on', channel=9, note=42, velocity=100, time=0),
    Message('note_on', channel=9, note=42, velocity=0, time=60),
    Message('note_on', channel=9, note=42, velocity=100, time=0),
    Message('note_on', channel=9, note=42, velocity=0, time=60),
    Message('note_on', channel=9, note=36, velocity=100, time=0),
    Message('note_on', channel=9, note=42, velocity=100, time=0),
    Message('note_on', channel=9, note=42, velocity=100, time=0),
    Message('note_on', channel=9, note=42, velocity=0, time=60),
    Message('note_on', channel=9, note=42, velocity=100, time=0),
    Message('note_on', channel=9, note=36, velocity=0, time=60),
    Message('note_on', channel=9, note=42, velocity=0, time=0),
    Message('note_on', channel=9, note=42, velocity=0, time=0),
    Message('note_on', channel=9, note=46, velocity=100, time=0),
    Message('note_on', channel=9, note=42, velocity=0, time=60),
    Message('note_on', channel=9, note=42, velocity=100, time=0),
    Message('note_on', channel=9, note=46, velocity=0, time=60),
    Message('note_on', channel=9, note=36, velocity=100, time=0),
    Message('note_on', channel=9, note=42, velocity=100, time=0),
    Message('note_on', channel=9, note=42, velocity=0, time=60),
    Message('note_on', channel=9, note=42, velocity=100, time=0),
    Message('note_on', channel=9, note=42, velocity=0, time=60),
    Message('note_on', channel=9, note=36, velocity=0, time=0),
    Message('note_on', channel=9, note=46, velocity=100, time=0),
    Message('note_on', channel=9, note=42, velocity=0, time=60),
    Message('note_on', channel=9, note=42, velocity=100, time=0),
    Message('note_on', channel=9, note=46, velocity=0, time=60),
    Message('note_on', channel=9, note=36, velocity=100, time=0),
    Message('note_on', channel=9, note=55, velocity=100, time=0),
    Message('note_on', channel=9, note=42, velocity=0, time=60),
    Message('note_on', channel=9, note=42, velocity=100, time=0),
    Message('note_on', channel=9, note=55, velocity=0, time=60),
    Message('note_on', channel=9, note=36, velocity=0, time=0),
    Message('note_on', channel=9, note=40, velocity=100, time=0),
    Message('note_on', channel=9, note=42, velocity=100, time=0),
    Message('note_on', channel=9, note=42, velocity=0, time=60),
    Message('note_on', channel=9, note=40, velocity=100, time=0),
    Message('note_on', channel=9, note=42, velocity=100, time=0),
    Message('note_on', channel=9, note=42, velocity=0, time=60),
    Message('note_on', channel=9, note=40, velocity=0, time=0),
    Message('note_on', channel=9, note=36, velocity=100, time=0),
    Message('note_on', channel=9, note=42, velocity=100, time=0),
    Message('note_on', channel=9, note=40, velocity=0, time=60),
    Message('note_on', channel=9, note=42, velocity=0, time=0),
    Message('note_on', channel=9, note=42, velocity=100, time=0),
    Message('note_on', channel=9, note=36, velocity=0, time=60),
    Message('note_on', channel=9, note=42, velocity=0, time=0),
    Message('note_on', channel=9, note=40, velocity=100, time=0),
    Message('note_on', channel=9, note=42, velocity=100, time=0),
    Message('note_on', channel=9, note=42, velocity=0, time=60),
    Message('note_on', channel=9, note=40, velocity=100, time=0),
    Message('note_on', channel=9, note=42, velocity=100, time=0),
    Message('note_on', channel=9, note=42, velocity=0, time=60),
    Message('note_on', channel=9, note=40, velocity=0, time=0),
    Message('note_on', channel=9, note=36, velocity=100, time=0),
    Message('note_on', channel=9, note=42, velocity=100, time=0),
    Message('note_on', channel=9, note=42, velocity=100, time=0),
    Message('note_on', channel=9, note=40, velocity=0, time=60),
    Message('note_on', channel=9, note=42, velocity=0, time=0),
    Message('note_on', channel=9, note=42, velocity=100, time=0),
    Message('note_on', channel=9, note=42, velocity=0, time=60),
    Message('note_on', channel=9, note=42, velocity=0, time=0),
    Message('note_on', channel=9, note=36, velocity=0, time=0),
    Message('note_on', channel=9, note=40, velocity=100, time=0),
    Message('note_on', channel=9, note=42, velocity=100, time=0),
    Message('note_on', channel=9, note=42, velocity=0, time=60),
    Message('note_on', channel=9, note=40, velocity=100, time=0),
    Message('note_on', channel=9, note=42, velocity=100, time=0),
    Message('note_on', channel=9, note=42, velocity=0, time=60),
    Message('note_on', channel=9, note=40, velocity=0, time=0),
    Message('note_on', channel=9, note=36, velocity=100, time=0),
    Message('note_on', channel=9, note=42, velocity=100, time=0),
    Message('note_on', channel=9, note=40, velocity=0, time=60),
    Message('note_on', channel=9, note=42, velocity=0, time=0),
    Message('note_on', channel=9, note=42, velocity=100, time=0),
    Message('note_on', channel=9, note=36, velocity=0, time=60),
    Message('note_on', channel=9, note=42, velocity=0, time=0),
    Message('note_on', channel=9, note=40, velocity=100, time=0),
    Message('note_on', channel=9, note=42, velocity=100, time=0),
    Message('note_on', channel=9, note=42, velocity=0, time=60),
    Message('note_on', channel=9, note=40, velocity=100, time=0),
    Message('note_on', channel=9, note=42, velocity=100, time=0),
    Message('note_on', channel=9, note=42, velocity=0, time=60),
    Message('note_on', channel=9, note=40, velocity=0, time=0),
    Message('note_on', channel=9, note=36, velocity=100, time=0),
    Message('note_on', channel=9, note=42, velocity=100, time=0),
    Message('note_on', channel=9, note=42, velocity=100, time=0),
    Message('note_on', channel=9, note=40, velocity=0, time=60),
    Message('note_on', channel=9, note=42, velocity=0, time=0),
    Message('note_on', channel=9, note=42, velocity=100, time=0),
    Message('note_on', channel=9, note=42, velocity=0, time=60),
    Message('note_on', channel=9, note=42, velocity=0, time=0),
    Message('note_on', channel=9, note=36, velocity=0, time=0),
    Message('note_on', channel=9, note=40, velocity=100, time=0),
    Message('note_on', channel=9, note=42, velocity=100, time=0),
    Message('note_on', channel=9, note=42, velocity=0, time=60),
    Message('note_on', channel=9, note=40, velocity=100, time=0),
    Message('note_on', channel=9, note=42, velocity=100, time=0),
    Message('note_on', channel=9, note=42, velocity=0, time=60),
    Message('note_on', channel=9, note=40, velocity=0, time=0),
    Message('note_on', channel=9, note=36, velocity=100, time=0),
    Message('note_on', channel=9, note=42, velocity=100, time=0),
    Message('note_on', channel=9, note=40, velocity=0, time=60),
    Message('note_on', channel=9, note=42, velocity=0, time=0),
    Message('note_on', channel=9, note=42, velocity=100, time=0),
    Message('note_on', channel=9, note=36, velocity=0, time=60),
    Message('note_on', channel=9, note=42, velocity=0, time=0),
    Message('note_on', channel=9, note=40, velocity=100, time=0),
    Message('note_on', channel=9, note=42, velocity=100, time=0),
    Message('note_on', channel=9, note=42, velocity=0, time=60),
    Message('note_on', channel=9, note=40, velocity=100, time=0),
    Message('note_on', channel=9, note=42, velocity=100, time=0),
    Message('note_on', channel=9, note=42, velocity=0, time=60),
    Message('note_on', channel=9, note=40, velocity=0, time=0),
    Message('note_on', channel=9, note=36, velocity=100, time=0),
    Message('note_on', channel=9, note=42, velocity=100, time=0),
    Message('note_on', channel=9, note=42, velocity=100, time=0),
    Message('note_on', channel=9, note=40, velocity=0, time=60),
    Message('note_on', channel=9, note=42, velocity=0, time=0),
    Message('note_on', channel=9, note=42, velocity=100, time=0),
    Message('note_on', channel=9, note=42, velocity=0, time=60),
    Message('note_on', channel=9, note=42, velocity=0, time=0),
    Message('note_on', channel=9, note=36, velocity=0, time=0),
    Message('note_on', channel=9, note=40, velocity=100, time=0),
    Message('note_on', channel=9, note=42, velocity=100, time=0),
    Message('note_on', channel=9, note=42, velocity=0, time=60),
    Message('note_on', channel=9, note=40, velocity=100, time=0),
    Message('note_on', channel=9, note=42, velocity=100, time=0),
    Message('note_on', channel=9, note=42, velocity=0, time=60),
    Message('note_on', channel=9, note=40, velocity=0, time=0),
    Message('note_on', channel=9, note=36, velocity=100, time=0),
    Message('note_on', channel=9, note=42, velocity=100, time=0),
    Message('note_on', channel=9, note=40, velocity=0, time=60),
    Message('note_on', channel=9, note=42, velocity=0, time=0),
    Message('note_on', channel=9, note=42, velocity=100, time=0),
    Message('note_on', channel=9, note=36, velocity=0, time=60),
    Message('note_on', channel=9, note=42, velocity=0, time=0),
    Message('note_on', channel=9, note=40, velocity=100, time=0),
    Message('note_on', channel=9, note=42, velocity=100, time=0),
    Message('note_on', channel=9, note=42, velocity=0, time=60),
    Message('note_on', channel=9, note=40, velocity=100, time=0),
    Message('note_on', channel=9, note=42, velocity=100, time=0),
    Message('note_on', channel=9, note=42, velocity=0, time=60),
    Message('note_on', channel=9, note=40, velocity=0, time=0),
    Message('note_on', channel=9, note=36, velocity=100, time=0),
    Message('note_on', channel=9, note=55, velocity=100, time=0),
    Message('note_on', channel=9, note=40, velocity=0, time=60),
    Message('note_on', channel=9, note=42, velocity=0, time=0),
    Message('note_on', channel=9, note=42, velocity=100, time=0),
    Message('note_on', channel=9, note=36, velocity=0, time=60),
    Message('note_on', channel=9, note=55, velocity=0, time=0),
    Message('note_on', channel=9, note=40, velocity=100, time=0),
    Message('note_on', channel=9, note=42, velocity=100, time=0),
    Message('note_on', channel=9, note=42, velocity=0, time=60),
    Message('note_on', channel=9, note=40, velocity=100, time=0),
    Message('note_on', channel=9, note=42, velocity=100, time=0),
    Message('note_on', channel=9, note=42, velocity=0, time=60),
    Message('note_on', channel=9, note=40, velocity=0, time=0),
    Message('note_on', channel=9, note=36, velocity=100, time=0),
    Message('note_on', channel=9, note=42, velocity=100, time=0),
    Message('note_on', channel=9, note=40, velocity=0, time=60),
    Message('note_on', channel=9, note=42, velocity=0, time=0),
    Message('note_on', channel=9, note=42, velocity=100, time=0),
    Message('note_on', channel=9, note=36, velocity=0, time=60),
    Message('note_on', channel=9, note=42, velocity=0, time=0),
    Message('note_on', channel=9, note=40, velocity=100, time=0),
    Message('note_on', channel=9, note=42, velocity=100, time=0),
    Message('note_on', channel=9, note=42, velocity=0, time=60),
    Message('note_on', channel=9, note=40, velocity=100, time=0),
    Message('note_on', channel=9, note=42, velocity=100, time=0),
    Message('note_on', channel=9, note=42, velocity=0, time=60),
    Message('note_on', channel=9, note=40, velocity=0, time=0),
    Message('note_on', channel=9, note=36, velocity=100, time=0),
    Message('note_on', channel=9, note=42, velocity=100, time=0),
    Message('note_on', channel=9, note=42, velocity=100, time=0),
    Message('note_on', channel=9, note=40, velocity=0, time=60),
    Message('note_on', channel=9, note=42, velocity=0, time=0),
    Message('note_on', channel=9, note=42, velocity=100, time=0),
    Message('note_on', channel=9, note=42, velocity=0, time=60),
    Message('note_on', channel=9, note=42, velocity=0, time=0),
    Message('note_on', channel=9, note=36, velocity=0, time=0),
    Message('note_on', channel=9, note=40, velocity=100, time=0),
    Message('note_on', channel=9, note=42, velocity=100, time=0),
    Message('note_on', channel=9, note=42, velocity=0, time=60),
    Message('note_on', channel=9, note=40, velocity=100, time=0),
    Message('note_on', channel=9, note=42, velocity=100, time=0),
    Message('note_on', channel=9, note=42, velocity=0, time=60),
    Message('note_on', channel=9, note=40, velocity=0, time=0),
    Message('note_on', channel=9, note=36, velocity=100, time=0),
    Message('note_on', channel=9, note=42, velocity=100, time=0),
    Message('note_on', channel=9, note=40, velocity=0, time=60),
    Message('note_on', channel=9, note=42, velocity=0, time=0),
    Message('note_on', channel=9, note=42, velocity=100, time=0),
    Message('note_on', channel=9, note=36, velocity=0, time=60),
    Message('note_on', channel=9, note=42, velocity=0, time=0),
    Message('note_on', channel=9, note=40, velocity=100, time=0),
    Message('note_on', channel=9, note=42, velocity=100, time=0),
    Message('note_on', channel=9, note=42, velocity=0, time=60),
    Message('note_on', channel=9, note=40, velocity=100, time=0),
    Message('note_on', channel=9, note=42, velocity=100, time=0),
    Message('note_on', channel=9, note=42, velocity=0, time=60),
    Message('note_on', channel=9, note=40, velocity=0, time=0),
    Message('note_on', channel=9, note=36, velocity=100, time=0),
    Message('note_on', channel=9, note=42, velocity=100, time=0),
    Message('note_on', channel=9, note=42, velocity=100, time=0),
    Message('note_on', channel=9, note=40, velocity=0, time=60),
    Message('note_on', channel=9, note=42, velocity=0, time=0),
    Message('note_on', channel=9, note=42, velocity=100, time=0),
    Message('note_on', channel=9, note=42, velocity=0, time=60),
    Message('note_on', channel=9, note=42, velocity=0, time=0),
    Message('note_on', channel=9, note=36, velocity=0, time=0),
    Message('note_on', channel=9, note=40, velocity=100, time=0),
    Message('note_on', channel=9, note=42, velocity=100, time=0),
    Message('note_on', channel=9, note=42, velocity=0, time=60),
    Message('note_on', channel=9, note=40, velocity=100, time=0),
    Message('note_on', channel=9, note=42, velocity=100, time=0),
    Message('note_on', channel=9, note=42, velocity=0, time=60),
    Message('note_on', channel=9, note=40, velocity=0, time=0),
    Message('note_on', channel=9, note=36, velocity=100, time=0),
    Message('note_on', channel=9, note=42, velocity=100, time=0),
    Message('note_on', channel=9, note=40, velocity=0, time=60),
    Message('note_on', channel=9, note=42, velocity=0, time=0),
    Message('note_on', channel=9, note=42, velocity=100, time=0),
    Message('note_on', channel=9, note=36, velocity=0, time=60),
    Message('note_on', channel=9, note=42, velocity=0, time=0),
    Message('note_on', channel=9, note=40, velocity=100, time=0),
    Message('note_on', channel=9, note=42, velocity=100, time=0),
    Message('note_on', channel=9, note=42, velocity=0, time=60),
    Message('note_on', channel=9, note=40, velocity=100, time=0),
    Message('note_on', channel=9, note=42, velocity=100, time=0),
    Message('note_on', channel=9, note=42, velocity=0, time=60),
    Message('note_on', channel=9, note=40, velocity=0, time=0),
    Message('note_on', channel=9, note=36, velocity=100, time=0),
    Message('note_on', channel=9, note=42, velocity=100, time=0),
    Message('note_on', channel=9, note=42, velocity=100, time=0),
    Message('note_on', channel=9, note=40, velocity=0, time=60),
    Message('note_on', channel=9, note=42, velocity=0, time=0),
    Message('note_on', channel=9, note=42, velocity=100, time=0),
    Message('note_on', channel=9, note=42, velocity=0, time=60),
    Message('note_on', channel=9, note=42, velocity=0, time=0),
    Message('note_on', channel=9, note=36, velocity=0, time=0),
    Message('note_on', channel=9, note=40, velocity=100, time=0),
    Message('note_on', channel=9, note=42, velocity=100, time=0),
    Message('note_on', channel=9, note=42, velocity=0, time=60),
    Message('note_on', channel=9, note=40, velocity=100, time=0),
    Message('note_on', channel=9, note=42, velocity=100, time=0),
    Message('note_on', channel=9, note=42, velocity=0, time=60),
    Message('note_on', channel=9, note=40, velocity=0, time=0),
    Message('note_on', channel=9, note=36, velocity=100, time=0),
    Message('note_on', channel=9, note=42, velocity=100, time=0),
    Message('note_on', channel=9, note=40, velocity=0, time=60),
    Message('note_on', channel=9, note=42, velocity=0, time=0),
    Message('note_on', channel=9, note=42, velocity=100, time=0),
    Message('note_on', channel=9, note=36, velocity=0, time=60),
    Message('note_on', channel=9, note=42, velocity=0, time=0),
    Message('note_on', channel=9, note=40, velocity=100, time=0),
    Message('note_on', channel=9, note=42, velocity=100, time=0),
    Message('note_on', channel=9, note=42, velocity=0, time=60),
    Message('note_on', channel=9, note=40, velocity=100, time=0),
    Message('note_on', channel=9, note=42, velocity=100, time=0),
    Message('note_on', channel=9, note=42, velocity=0, time=60),
    Message('note_on', channel=9, note=40, velocity=0, time=0),
    Message('note_on', channel=9, note=36, velocity=100, time=0),
    Message('note_on', channel=9, note=55, velocity=100, time=0),
    Message('note_on', channel=9, note=40, velocity=0, time=60),
    Message('note_on', channel=9, note=42, velocity=0, time=0),
    Message('note_on', channel=9, note=36, velocity=0, time=60),
    Message('note_on', channel=9, note=55, velocity=0, time=0),
    Message('note_on', channel=9, note=40, velocity=100, time=0),
    Message('note_on', channel=9, note=40, velocity=100, time=60),
    Message('note_on', channel=9, note=40, velocity=0, time=60),
    Message('note_on', channel=9, note=36, velocity=100, time=0),
    Message('note_on', channel=9, note=55, velocity=100, time=0),
    Message('note_on', channel=9, note=40, velocity=0, time=60),
    Message('note_on', channel=9, note=55, velocity=0, time=60),
    Message('note_on', channel=9, note=36, velocity=0, time=0),
    Message('note_on', channel=9, note=40, velocity=100, time=0),
    Message('note_on', channel=9, note=40, velocity=100, time=60),
    Message('note_on', channel=9, note=40, velocity=0, time=60),
    Message('note_on', channel=9, note=36, velocity=100, time=0),
    Message('note_on', channel=9, note=55, velocity=100, time=0),
    Message('note_on', channel=9, note=40, velocity=0, time=60),
    Message('note_on', channel=9, note=55, velocity=0, time=60),
    Message('note_on', channel=9, note=36, velocity=0, time=0),
    Message('note_on', channel=9, note=40, velocity=100, time=0),
    Message('note_on', channel=9, note=40, velocity=100, time=60),
    Message('note_on', channel=9, note=40, velocity=0, time=60),
    Message('note_on', channel=9, note=36, velocity=100, time=0),
    Message('note_on', channel=9, note=55, velocity=100, time=0),
    Message('note_on', channel=9, note=40, velocity=0, time=60),
    Message('note_on', channel=9, note=55, velocity=0, time=60),
    Message('note_on', channel=9, note=36, velocity=0, time=0),
    Message('note_on', channel=9, note=40, velocity=100, time=0),
    Message('note_on', channel=9, note=40, velocity=100, time=60),
    Message('note_on', channel=9, note=40, velocity=0, time=60),
    Message('note_on', channel=9, note=36, velocity=100, time=0),
    Message('note_on', channel=9, note=55, velocity=100, time=0),
    Message('note_on', channel=9, note=40, velocity=0, time=60),
    Message('note_on', channel=9, note=55, velocity=0, time=60),
    Message('note_on', channel=9, note=36, velocity=0, time=0),
    Message('note_on', channel=9, note=40, velocity=100, time=0),
    Message('note_on', channel=9, note=40, velocity=100, time=60),
    Message('note_on', channel=9, note=40, velocity=0, time=60),
    Message('note_on', channel=9, note=36, velocity=100, time=0),
    Message('note_on', channel=9, note=55, velocity=100, time=0),
    Message('note_on', channel=9, note=40, velocity=0, time=60),
    Message('note_on', channel=9, note=55, velocity=0, time=60),
    Message('note_on', channel=9, note=36, velocity=0, time=0),
    Message('note_on', channel=9, note=40, velocity=100, time=0),
    Message('note_on', channel=9, note=40, velocity=100, time=60),
    Message('note_on', channel=9, note=40, velocity=0, time=60),
    Message('note_on', channel=9, note=36, velocity=100, time=0),
    Message('note_on', channel=9, note=55, velocity=100, time=0),
    Message('note_on', channel=9, note=40, velocity=0, time=60),
    Message('note_on', channel=9, note=55, velocity=0, time=60),
    Message('note_on', channel=9, note=36, velocity=0, time=0),
    Message('note_on', channel=9, note=40, velocity=100, time=0),
    Message('note_on', channel=9, note=40, velocity=100, time=60),
    Message('note_on', channel=9, note=40, velocity=0, time=60),
    Message('note_on', channel=9, note=36, velocity=100, time=0),
    Message('note_on', channel=9, note=55, velocity=100, time=0),
    Message('note_on', channel=9, note=40, velocity=0, time=60),
    Message('note_on', channel=9, note=55, velocity=0, time=60),
    Message('note_on', channel=9, note=36, velocity=0, time=0),
    Message('note_on', channel=9, note=40, velocity=100, time=0),
    Message('note_on', channel=9, note=40, velocity=100, time=60),
    Message('note_on', channel=9, note=40, velocity=0, time=60),
    Message('note_on', channel=9, note=36, velocity=100, time=0),
    Message('note_on', channel=9, note=55, velocity=100, time=0),
    Message('note_on', channel=9, note=40, velocity=0, time=60),
    Message('note_on', channel=9, note=55, velocity=0, time=60),
    Message('note_on', channel=9, note=36, velocity=0, time=0),
    Message('note_on', channel=9, note=40, velocity=100, time=0),
    Message('note_on', channel=9, note=40, velocity=100, time=60),
    Message('note_on', channel=9, note=40, velocity=0, time=60),
    Message('note_on', channel=9, note=36, velocity=100, time=0),
    Message('note_on', channel=9, note=55, velocity=100, time=0),
    Message('note_on', channel=9, note=40, velocity=0, time=60),
    Message('note_on', channel=9, note=55, velocity=0, time=60),
    Message('note_on', channel=9, note=36, velocity=0, time=0),
    Message('note_on', channel=9, note=40, velocity=100, time=0),
    Message('note_on', channel=9, note=40, velocity=100, time=60),
    Message('note_on', channel=9, note=40, velocity=0, time=60),
    Message('note_on', channel=9, note=36, velocity=100, time=0),
    Message('note_on', channel=9, note=55, velocity=100, time=0),
    Message('note_on', channel=9, note=40, velocity=0, time=60),
    Message('note_on', channel=9, note=55, velocity=0, time=60),
    Message('note_on', channel=9, note=36, velocity=0, time=0),
    Message('note_on', channel=9, note=40, velocity=100, time=0),
    Message('note_on', channel=9, note=40, velocity=100, time=60),
    Message('note_on', channel=9, note=40, velocity=0, time=60),
    Message('note_on', channel=9, note=36, velocity=100, time=0),
    Message('note_on', channel=9, note=55, velocity=100, time=0),
    Message('note_on', channel=9, note=40, velocity=0, time=60),
    Message('note_on', channel=9, note=55, velocity=0, time=60),
    Message('note_on', channel=9, note=36, velocity=0, time=0),
    Message('note_on', channel=9, note=40, velocity=100, time=0),
    Message('note_on', channel=9, note=40, velocity=100, time=60),
    Message('note_on', channel=9, note=40, velocity=0, time=60),
    Message('note_on', channel=9, note=36, velocity=100, time=0),
    Message('note_on', channel=9, note=55, velocity=100, time=0),
    Message('note_on', channel=9, note=40, velocity=0, time=60),
    Message('note_on', channel=9, note=55, velocity=0, time=60),
    Message('note_on', channel=9, note=36, velocity=0, time=0),
    Message('note_on', channel=9, note=40, velocity=100, time=0),
    Message('note_on', channel=9, note=40, velocity=100, time=60),
    Message('note_on', channel=9, note=40, velocity=0, time=60),
    Message('note_on', channel=9, note=36, velocity=100, time=0),
    Message('note_on', channel=9, note=55, velocity=100, time=0),
    Message('note_on', channel=9, note=40, velocity=0, time=60),
    Message('note_on', channel=9, note=55, velocity=0, time=60),
    Message('note_on', channel=9, note=36, velocity=0, time=0),
    Message('note_on', channel=9, note=40, velocity=100, time=0),
    Message('note_on', channel=9, note=40, velocity=100, time=60),
    Message('note_on', channel=9, note=40, velocity=0, time=60),
    Message('note_on', channel=9, note=36, velocity=100, time=0),
    Message('note_on', channel=9, note=55, velocity=100, time=0),
    Message('note_on', channel=9, note=40, velocity=0, time=60),
    Message('note_on', channel=9, note=55, velocity=0, time=60),
    Message('note_on', channel=9, note=36, velocity=0, time=0),
    Message('note_on', channel=9, note=40, velocity=100, time=0),
    Message('note_on', channel=9, note=40, velocity=100, time=60),
    Message('note_on', channel=9, note=40, velocity=0, time=60),
    Message('note_on', channel=9, note=36, velocity=100, time=0),
    Message('note_on', channel=9, note=55, velocity=100, time=0),
    Message('note_on', channel=9, note=40, velocity=0, time=60),
    Message('note_on', channel=9, note=55, velocity=0, time=60),
    Message('note_on', channel=9, note=36, velocity=0, time=0),
    Message('note_on', channel=9, note=40, velocity=100, time=0),
    Message('note_on', channel=9, note=40, velocity=100, time=60),
    Message('note_on', channel=9, note=40, velocity=0, time=60),
    Message('note_on', channel=9, note=36, velocity=100, time=0),
    Message('note_on', channel=9, note=55, velocity=100, time=0),
    Message('note_on', channel=9, note=40, velocity=0, time=60),
    Message('note_on', channel=9, note=55, velocity=0, time=60),
    Message('note_on', channel=9, note=36, velocity=0, time=0),
    Message('note_on', channel=9, note=40, velocity=100, time=0),
    Message('note_on', channel=9, note=40, velocity=100, time=60),
    Message('note_on', channel=9, note=40, velocity=0, time=60),
    Message('note_on', channel=9, note=36, velocity=100, time=0),
    Message('note_on', channel=9, note=55, velocity=100, time=0),
    Message('note_on', channel=9, note=40, velocity=0, time=60),
    Message('note_on', channel=9, note=55, velocity=0, time=60),
    Message('note_on', channel=9, note=36, velocity=0, time=0),
    Message('note_on', channel=9, note=40, velocity=100, time=0),
    Message('note_on', channel=9, note=40, velocity=100, time=60),
    Message('note_on', channel=9, note=40, velocity=0, time=60),
    Message('note_on', channel=9, note=36, velocity=100, time=0),
    Message('note_on', channel=9, note=55, velocity=100, time=0),
    Message('note_on', channel=9, note=40, velocity=0, time=60),
    Message('note_on', channel=9, note=55, velocity=0, time=60),
    Message('note_on', channel=9, note=36, velocity=0, time=0),
    Message('note_on', channel=9, note=40, velocity=100, time=0),
    Message('note_on', channel=9, note=40, velocity=100, time=60),
    Message('note_on', channel=9, note=40, velocity=0, time=60),
    Message('note_on', channel=9, note=36, velocity=100, time=0),
    Message('note_on', channel=9, note=55, velocity=100, time=0),
    Message('note_on', channel=9, note=40, velocity=0, time=60),
    Message('note_on', channel=9, note=55, velocity=0, time=60),
    Message('note_on', channel=9, note=36, velocity=0, time=0),
    Message('note_on', channel=9, note=40, velocity=100, time=0),
    Message('note_on', channel=9, note=40, velocity=100, time=60),
    Message('note_on', channel=9, note=40, velocity=0, time=60),
    Message('note_on', channel=9, note=36, velocity=100, time=0),
    Message('note_on', channel=9, note=55, velocity=100, time=0),
    Message('note_on', channel=9, note=40, velocity=0, time=60),
    Message('note_on', channel=9, note=55, velocity=0, time=60),
    Message('note_on', channel=9, note=36, velocity=0, time=0),
    Message('note_on', channel=9, note=40, velocity=100, time=0),
    Message('note_on', channel=9, note=40, velocity=100, time=60),
    Message('note_on', channel=9, note=40, velocity=0, time=60),
    Message('note_on', channel=9, note=36, velocity=100, time=0),
    Message('note_on', channel=9, note=55, velocity=100, time=0),
    Message('note_on', channel=9, note=40, velocity=0, time=60),
    Message('note_on', channel=9, note=55, velocity=0, time=60),
    Message('note_on', channel=9, note=36, velocity=0, time=0),
    Message('note_on', channel=9, note=40, velocity=100, time=0),
    Message('note_on', channel=9, note=40, velocity=100, time=60),
    Message('note_on', channel=9, note=40, velocity=0, time=60),
    Message('note_on', channel=9, note=36, velocity=100, time=0),
    Message('note_on', channel=9, note=55, velocity=100, time=0),
    Message('note_on', channel=9, note=40, velocity=0, time=60),
    Message('note_on', channel=9, note=55, velocity=0, time=60),
    Message('note_on', channel=9, note=36, velocity=0, time=0),
    Message('note_on', channel=9, note=40, velocity=100, time=0),
    Message('note_on', channel=9, note=40, velocity=100, time=60),
    Message('note_on', channel=9, note=40, velocity=0, time=60),
    Message('note_on', channel=9, note=36, velocity=100, time=0),
    Message('note_on', channel=9, note=55, velocity=100, time=0),
    Message('note_on', channel=9, note=40, velocity=0, time=60),
    Message('note_on', channel=9, note=55, velocity=0, time=60),
    Message('note_on', channel=9, note=36, velocity=0, time=0),
    Message('note_on', channel=9, note=40, velocity=100, time=0),
    Message('note_on', channel=9, note=40, velocity=100, time=60),
    Message('note_on', channel=9, note=40, velocity=0, time=60),
    Message('note_on', channel=9, note=36, velocity=100, time=0),
    Message('note_on', channel=9, note=55, velocity=100, time=0),
    Message('note_on', channel=9, note=40, velocity=0, time=60),
    Message('note_on', channel=9, note=55, velocity=0, time=60),
    Message('note_on', channel=9, note=36, velocity=0, time=0),
    Message('note_on', channel=9, note=40, velocity=100, time=0),
    Message('note_on', channel=9, note=40, velocity=100, time=60),
    Message('note_on', channel=9, note=40, velocity=0, time=60),
    Message('note_on', channel=9, note=36, velocity=100, time=0),
    Message('note_on', channel=9, note=55, velocity=100, time=0),
    Message('note_on', channel=9, note=40, velocity=0, time=60),
    Message('note_on', channel=9, note=55, velocity=0, time=60),
    Message('note_on', channel=9, note=36, velocity=0, time=0),
    Message('note_on', channel=9, note=40, velocity=100, time=0),
    Message('note_on', channel=9, note=40, velocity=100, time=60),
    Message('note_on', channel=9, note=40, velocity=0, time=60),
    Message('note_on', channel=9, note=36, velocity=100, time=0),
    Message('note_on', channel=9, note=55, velocity=100, time=0),
    Message('note_on', channel=9, note=40, velocity=0, time=60),
    Message('note_on', channel=9, note=55, velocity=0, time=60),
    Message('note_on', channel=9, note=36, velocity=0, time=0),
    Message('note_on', channel=9, note=40, velocity=100, time=0),
    Message('note_on', channel=9, note=40, velocity=100, time=60),
    Message('note_on', channel=9, note=40, velocity=0, time=60),
    Message('note_on', channel=9, note=36, velocity=100, time=0),
    Message('note_on', channel=9, note=55, velocity=100, time=0),
    Message('note_on', channel=9, note=40, velocity=0, time=60),
    Message('note_on', channel=9, note=55, velocity=0, time=60),
    Message('note_on', channel=9, note=36, velocity=0, time=0),
    Message('note_on', channel=9, note=40, velocity=100, time=0),
    Message('note_on', channel=9, note=40, velocity=100, time=60),
    Message('note_on', channel=9, note=40, velocity=0, time=60),
    Message('note_on', channel=9, note=36, velocity=100, time=0),
    Message('note_on', channel=9, note=55, velocity=100, time=0),
    Message('note_on', channel=9, note=40, velocity=0, time=60),
    Message('note_on', channel=9, note=55, velocity=0, time=60),
    Message('note_on', channel=9, note=36, velocity=0, time=0),
    Message('note_on', channel=9, note=40, velocity=100, time=0),
    Message('note_on', channel=9, note=40, velocity=100, time=60),
    Message('note_on', channel=9, note=40, velocity=0, time=60),
    Message('note_on', channel=9, note=36, velocity=100, time=0),
    Message('note_on', channel=9, note=55, velocity=100, time=0),
    Message('note_on', channel=9, note=40, velocity=0, time=60),
    Message('note_on', channel=9, note=55, velocity=0, time=60),
    Message('note_on', channel=9, note=36, velocity=0, time=0),
    Message('note_on', channel=9, note=40, velocity=100, time=0),
    Message('note_on', channel=9, note=40, velocity=100, time=60),
    Message('note_on', channel=9, note=40, velocity=0, time=60),
    Message('note_on', channel=9, note=36, velocity=100, time=0),
    Message('note_on', channel=9, note=55, velocity=100, time=0),
    Message('note_on', channel=9, note=40, velocity=0, time=60),
    Message('note_on', channel=9, note=55, velocity=0, time=60),
    Message('note_on', channel=9, note=36, velocity=0, time=0),
    Message('note_on', channel=9, note=40, velocity=100, time=0),
    Message('note_on', channel=9, note=40, velocity=100, time=60),
    Message('note_on', channel=9, note=40, velocity=0, time=60),
    Message('note_on', channel=9, note=36, velocity=100, time=0),
    Message('note_on', channel=9, note=55, velocity=100, time=0),
    Message('note_on', channel=9, note=40, velocity=0, time=60),
    Message('note_on', channel=9, note=55, velocity=0, time=60),
    Message('note_on', channel=9, note=36, velocity=0, time=0),
    Message('note_on', channel=9, note=40, velocity=100, time=0),
    Message('note_on', channel=9, note=40, velocity=100, time=60),
    Message('note_on', channel=9, note=40, velocity=0, time=60),
    Message('note_on', channel=9, note=36, velocity=100, time=0),
    Message('note_on', channel=9, note=55, velocity=100, time=0),
    Message('note_on', channel=9, note=40, velocity=0, time=60),
    Message('note_on', channel=9, note=55, velocity=0, time=60),
    Message('note_on', channel=9, note=36, velocity=0, time=0),
    Message('note_on', channel=9, note=40, velocity=100, time=0),
    Message('note_on', channel=9, note=40, velocity=100, time=60),
    Message('note_on', channel=9, note=40, velocity=0, time=60),
    Message('note_on', channel=9, note=36, velocity=100, time=0),
    Message('note_on', channel=9, note=55, velocity=100, time=0),
    Message('note_on', channel=9, note=40, velocity=0, time=60),
    Message('note_on', channel=9, note=55, velocity=0, time=60),
    Message('note_on', channel=9, note=36, velocity=0, time=0),
    Message('note_on', channel=9, note=40, velocity=100, time=0),
    Message('note_on', channel=9, note=40, velocity=100, time=60),
    Message('note_on', channel=9, note=40, velocity=0, time=60),
    Message('note_on', channel=9, note=36, velocity=100, time=0),
    Message('note_on', channel=9, note=55, velocity=100, time=0),
    Message('note_on', channel=9, note=40, velocity=0, time=60),
    Message('note_on', channel=9, note=55, velocity=0, time=60),
    Message('note_on', channel=9, note=36, velocity=0, time=0),
    Message('note_on', channel=9, note=40, velocity=100, time=0),
    Message('note_on', channel=9, note=40, velocity=100, time=60),
    Message('note_on', channel=9, note=40, velocity=0, time=60),
    Message('note_on', channel=9, note=36, velocity=100, time=0),
    Message('note_on', channel=9, note=55, velocity=100, time=0),
    Message('note_on', channel=9, note=40, velocity=0, time=60),
    Message('note_on', channel=9, note=55, velocity=0, time=60),
    Message('note_on', channel=9, note=36, velocity=0, time=0),
    Message('note_on', channel=9, note=40, velocity=100, time=0),
    Message('note_on', channel=9, note=40, velocity=100, time=60),
    Message('note_on', channel=9, note=40, velocity=0, time=60),
    Message('note_on', channel=9, note=36, velocity=100, time=0),
    Message('note_on', channel=9, note=55, velocity=100, time=0),
    Message('note_on', channel=9, note=40, velocity=0, time=60),
    Message('note_on', channel=9, note=55, velocity=0, time=60),
    Message('note_on', channel=9, note=36, velocity=0, time=0),
    Message('note_on', channel=9, note=40, velocity=100, time=0),
    Message('note_on', channel=9, note=40, velocity=100, time=60),
    Message('note_on', channel=9, note=40, velocity=0, time=60),
    Message('note_on', channel=9, note=36, velocity=100, time=0),
    Message('note_on', channel=9, note=55, velocity=100, time=0),
    Message('note_on', channel=9, note=40, velocity=0, time=60),
    Message('note_on', channel=9, note=55, velocity=0, time=60),
    Message('note_on', channel=9, note=36, velocity=0, time=0),
    Message('note_on', channel=9, note=40, velocity=100, time=0),
    Message('note_on', channel=9, note=40, velocity=100, time=60),
    Message('note_on', channel=9, note=40, velocity=0, time=60),
    Message('note_on', channel=9, note=36, velocity=100, time=0),
    Message('note_on', channel=9, note=55, velocity=100, time=0),
    Message('note_on', channel=9, note=40, velocity=0, time=60),
    Message('note_on', channel=9, note=55, velocity=0, time=60),
    Message('note_on', channel=9, note=36, velocity=0, time=0),
    Message('note_on', channel=9, note=40, velocity=100, time=0),
    Message('note_on', channel=9, note=40, velocity=100, time=60),
    Message('note_on', channel=9, note=40, velocity=0, time=60),
    Message('note_on', channel=9, note=36, velocity=100, time=0),
    Message('note_on', channel=9, note=55, velocity=100, time=0),
    Message('note_on', channel=9, note=40, velocity=0, time=60),
    Message('note_on', channel=9, note=55, velocity=0, time=60),
    Message('note_on', channel=9, note=36, velocity=0, time=0),
    Message('note_on', channel=9, note=40, velocity=100, time=0),
    Message('note_on', channel=9, note=40, velocity=100, time=60),
    Message('note_on', channel=9, note=40, velocity=0, time=60),
    Message('note_on', channel=9, note=36, velocity=100, time=0),
    Message('note_on', channel=9, note=55, velocity=100, time=0),
    Message('note_on', channel=9, note=40, velocity=0, time=60),
    Message('note_on', channel=9, note=55, velocity=0, time=60),
    Message('note_on', channel=9, note=36, velocity=0, time=0),
    Message('note_on', channel=9, note=40, velocity=100, time=0),
    Message('note_on', channel=9, note=40, velocity=100, time=60),
    Message('note_on', channel=9, note=40, velocity=0, time=60),
    Message('note_on', channel=9, note=36, velocity=100, time=0),
    Message('note_on', channel=9, note=55, velocity=100, time=0),
    Message('note_on', channel=9, note=40, velocity=0, time=60),
    Message('note_on', channel=9, note=55, velocity=0, time=60),
    Message('note_on', channel=9, note=36, velocity=0, time=0),
    Message('note_on', channel=9, note=40, velocity=100, time=0),
    Message('note_on', channel=9, note=40, velocity=100, time=60),
    Message('note_on', channel=9, note=40, velocity=0, time=60),
    Message('note_on', channel=9, note=36, velocity=100, time=0),
    Message('note_on', channel=9, note=55, velocity=100, time=0),
    Message('note_on', channel=9, note=40, velocity=0, time=60),
    Message('note_on', channel=9, note=55, velocity=0, time=60),
    Message('note_on', channel=9, note=36, velocity=0, time=0),
    Message('note_on', channel=9, note=40, velocity=100, time=0),
    Message('note_on', channel=9, note=40, velocity=100, time=60),
    Message('note_on', channel=9, note=40, velocity=0, time=60),
    Message('note_on', channel=9, note=36, velocity=100, time=0),
    Message('note_on', channel=9, note=55, velocity=100, time=0),
    Message('note_on', channel=9, note=40, velocity=0, time=60),
    Message('note_on', channel=9, note=55, velocity=0, time=60),
    Message('note_on', channel=9, note=36, velocity=0, time=0),
    Message('note_on', channel=9, note=40, velocity=100, time=0),
    Message('note_on', channel=9, note=40, velocity=100, time=60),
    Message('note_on', channel=9, note=40, velocity=0, time=60),
    Message('note_on', channel=9, note=36, velocity=100, time=0),
    Message('note_on', channel=9, note=55, velocity=100, time=0),
    Message('note_on', channel=9, note=40, velocity=0, time=60),
    Message('note_on', channel=9, note=55, velocity=0, time=60),
    Message('note_on', channel=9, note=36, velocity=0, time=0),
    Message('note_on', channel=9, note=40, velocity=100, time=0),
    Message('note_on', channel=9, note=40, velocity=100, time=60),
    Message('note_on', channel=9, note=40, velocity=0, time=60),
    Message('note_on', channel=9, note=36, velocity=100, time=0),
    Message('note_on', channel=9, note=55, velocity=100, time=0),
    Message('note_on', channel=9, note=40, velocity=0, time=60),
    Message('note_on', channel=9, note=55, velocity=0, time=60),
    Message('note_on', channel=9, note=36, velocity=0, time=0),
    Message('note_on', channel=9, note=40, velocity=100, time=0),
    Message('note_on', channel=9, note=40, velocity=100, time=60),
    Message('note_on', channel=9, note=40, velocity=0, time=60),
    Message('note_on', channel=9, note=36, velocity=100, time=0),
    Message('note_on', channel=9, note=55, velocity=100, time=0),
    Message('note_on', channel=9, note=40, velocity=0, time=60),
    Message('note_on', channel=9, note=55, velocity=0, time=60),
    Message('note_on', channel=9, note=36, velocity=0, time=0),
    Message('note_on', channel=9, note=40, velocity=100, time=0),
    Message('note_on', channel=9, note=40, velocity=100, time=60),
    Message('note_on', channel=9, note=40, velocity=0, time=60),
    Message('note_on', channel=9, note=36, velocity=100, time=0),
    Message('note_on', channel=9, note=55, velocity=100, time=0),
    Message('note_on', channel=9, note=40, velocity=0, time=60),
    Message('note_on', channel=9, note=55, velocity=0, time=60),
    Message('note_on', channel=9, note=36, velocity=0, time=0),
    Message('note_on', channel=9, note=40, velocity=100, time=0),
    Message('note_on', channel=9, note=40, velocity=100, time=60),
    Message('note_on', channel=9, note=40, velocity=0, time=60),
    Message('note_on', channel=9, note=36, velocity=100, time=0),
    Message('note_on', channel=9, note=55, velocity=100, time=0),
    Message('note_on', channel=9, note=40, velocity=0, time=60),
    Message('note_on', channel=9, note=55, velocity=0, time=60),
    Message('note_on', channel=9, note=36, velocity=0, time=0),
    Message('note_on', channel=9, note=40, velocity=100, time=0),
    Message('note_on', channel=9, note=40, velocity=100, time=60),
    Message('note_on', channel=9, note=40, velocity=0, time=60),
    Message('note_on', channel=9, note=36, velocity=100, time=0),
    Message('note_on', channel=9, note=55, velocity=100, time=0),
    Message('note_on', channel=9, note=40, velocity=0, time=60),
    Message('note_on', channel=9, note=55, velocity=0, time=60),
    Message('note_on', channel=9, note=36, velocity=0, time=0),
    Message('note_on', channel=9, note=40, velocity=100, time=0),
    Message('note_on', channel=9, note=40, velocity=100, time=60),
    Message('note_on', channel=9, note=40, velocity=0, time=60),
    Message('note_on', channel=9, note=36, velocity=100, time=0),
    Message('note_on', channel=9, note=55, velocity=100, time=0),
    Message('note_on', channel=9, note=40, velocity=0, time=60),
    Message('note_on', channel=9, note=55, velocity=0, time=60),
    Message('note_on', channel=9, note=36, velocity=0, time=0),
    Message('note_on', channel=9, note=40, velocity=100, time=0),
    Message('note_on', channel=9, note=40, velocity=100, time=60),
    Message('note_on', channel=9, note=40, velocity=0, time=60),
    Message('note_on', channel=9, note=36, velocity=100, time=0),
    Message('note_on', channel=9, note=55, velocity=100, time=0),
    Message('note_on', channel=9, note=40, velocity=0, time=60),
    Message('note_on', channel=9, note=55, velocity=0, time=60),
    Message('note_on', channel=9, note=36, velocity=0, time=0),
    Message('note_on', channel=9, note=40, velocity=100, time=0),
    Message('note_on', channel=9, note=40, velocity=100, time=60),
    Message('note_on', channel=9, note=40, velocity=0, time=60),
    Message('note_on', channel=9, note=36, velocity=100, time=0),
    Message('note_on', channel=9, note=55, velocity=100, time=0),
    Message('note_on', channel=9, note=40, velocity=0, time=60),
    Message('note_on', channel=9, note=55, velocity=0, time=60),
    Message('note_on', channel=9, note=36, velocity=0, time=0),
    Message('note_on', channel=9, note=40, velocity=100, time=0),
    Message('note_on', channel=9, note=40, velocity=100, time=60),
    Message('note_on', channel=9, note=40, velocity=0, time=60),
    Message('note_on', channel=9, note=36, velocity=100, time=0),
    Message('note_on', channel=9, note=55, velocity=100, time=0),
    Message('note_on', channel=9, note=40, velocity=0, time=60),
    Message('note_on', channel=9, note=55, velocity=0, time=60),
    Message('note_on', channel=9, note=36, velocity=0, time=0),
    Message('note_on', channel=9, note=40, velocity=100, time=0),
    Message('note_on', channel=9, note=40, velocity=100, time=60),
    Message('note_on', channel=9, note=40, velocity=0, time=60),
    Message('note_on', channel=9, note=36, velocity=100, time=0),
    Message('note_on', channel=9, note=55, velocity=100, time=0),
    Message('note_on', channel=9, note=40, velocity=0, time=60),
    Message('note_on', channel=9, note=55, velocity=0, time=60),
    Message('note_on', channel=9, note=36, velocity=0, time=0),
    Message('note_on', channel=9, note=40, velocity=100, time=0),
    Message('note_on', channel=9, note=40, velocity=100, time=60),
    Message('note_on', channel=9, note=40, velocity=0, time=60),
    Message('note_on', channel=9, note=36, velocity=100, time=0),
    Message('note_on', channel=9, note=55, velocity=100, time=0),
    Message('note_on', channel=9, note=40, velocity=0, time=60),
    Message('note_on', channel=9, note=55, velocity=0, time=60),
    Message('note_on', channel=9, note=36, velocity=0, time=0),
    Message('note_on', channel=9, note=40, velocity=100, time=0),
    Message('note_on', channel=9, note=40, velocity=100, time=60),
    Message('note_on', channel=9, note=40, velocity=0, time=60),
    Message('note_on', channel=9, note=36, velocity=100, time=0),
    Message('note_on', channel=9, note=55, velocity=100, time=0),
    Message('note_on', channel=9, note=40, velocity=0, time=60),
    Message('note_on', channel=9, note=55, velocity=0, time=60),
    Message('note_on', channel=9, note=36, velocity=0, time=0),
    Message('note_on', channel=9, note=40, velocity=100, time=0),
    Message('note_on', channel=9, note=40, velocity=100, time=60),
    Message('note_on', channel=9, note=40, velocity=0, time=60),
    Message('note_on', channel=9, note=36, velocity=100, time=0),
    Message('note_on', channel=9, note=55, velocity=100, time=0),
    Message('note_on', channel=9, note=40, velocity=0, time=60),
    Message('note_on', channel=9, note=55, velocity=0, time=60),
    Message('note_on', channel=9, note=36, velocity=0, time=0),
    Message('note_on', channel=9, note=40, velocity=100, time=0),
    Message('note_on', channel=9, note=40, velocity=100, time=60),
    Message('note_on', channel=9, note=40, velocity=0, time=60),
    Message('note_on', channel=9, note=36, velocity=100, time=0),
    Message('note_on', channel=9, note=55, velocity=100, time=0),
    Message('note_on', channel=9, note=40, velocity=0, time=60),
    Message('note_on', channel=9, note=55, velocity=0, time=60),
    Message('note_on', channel=9, note=36, velocity=0, time=0),
    Message('note_on', channel=9, note=40, velocity=100, time=0),
    Message('note_on', channel=9, note=40, velocity=100, time=60),
    Message('note_on', channel=9, note=40, velocity=0, time=60),
    Message('note_on', channel=9, note=36, velocity=100, time=0),
    Message('note_on', channel=9, note=55, velocity=100, time=0),
    Message('note_on', channel=9, note=40, velocity=0, time=60),
    Message('note_on', channel=9, note=55, velocity=0, time=60),
    Message('note_on', channel=9, note=36, velocity=0, time=0),
    Message('note_on', channel=9, note=40, velocity=100, time=0),
    Message('note_on', channel=9, note=40, velocity=100, time=60),
    Message('note_on', channel=9, note=40, velocity=0, time=60),
    Message('note_on', channel=9, note=36, velocity=100, time=0),
    Message('note_on', channel=9, note=55, velocity=100, time=0),
    Message('note_on', channel=9, note=40, velocity=0, time=60),
    Message('note_on', channel=9, note=55, velocity=0, time=60),
    Message('note_on', channel=9, note=36, velocity=0, time=0),
    Message('note_on', channel=9, note=40, velocity=100, time=0),
    Message('note_on', channel=9, note=40, velocity=100, time=60),
    Message('note_on', channel=9, note=40, velocity=0, time=60),
    Message('note_on', channel=9, note=36, velocity=100, time=0),
    Message('note_on', channel=9, note=55, velocity=100, time=0),
    Message('note_on', channel=9, note=40, velocity=0, time=60),
    Message('note_on', channel=9, note=55, velocity=0, time=60),
    Message('note_on', channel=9, note=36, velocity=0, time=0),
    Message('note_on', channel=9, note=40, velocity=100, time=0),
    Message('note_on', channel=9, note=40, velocity=100, time=60),
    Message('note_on', channel=9, note=40, velocity=0, time=60),
    Message('note_on', channel=9, note=36, velocity=100, time=0),
    Message('note_on', channel=9, note=55, velocity=100, time=0),
    Message('note_on', channel=9, note=40, velocity=0, time=60),
    Message('note_on', channel=9, note=55, velocity=0, time=60),
    Message('note_on', channel=9, note=36, velocity=0, time=0),
    Message('note_on', channel=9, note=40, velocity=100, time=0),
    Message('note_on', channel=9, note=40, velocity=100, time=60),
    Message('note_on', channel=9, note=40, velocity=0, time=60),
    Message('note_on', channel=9, note=36, velocity=100, time=0),
    Message('note_on', channel=9, note=55, velocity=100, time=0),
    Message('note_on', channel=9, note=40, velocity=0, time=60),
    Message('note_on', channel=9, note=55, velocity=0, time=60),
    Message('note_on', channel=9, note=36, velocity=0, time=0),
    Message('note_on', channel=9, note=40, velocity=100, time=0),
    Message('note_on', channel=9, note=40, velocity=100, time=60),
    Message('note_on', channel=9, note=40, velocity=0, time=60),
    Message('note_on', channel=9, note=36, velocity=100, time=0),
    Message('note_on', channel=9, note=55, velocity=100, time=0),
    Message('note_on', channel=9, note=40, velocity=0, time=60),
    Message('note_on', channel=9, note=55, velocity=0, time=60),
    Message('note_on', channel=9, note=36, velocity=0, time=0),
    Message('note_on', channel=9, note=40, velocity=100, time=0),
    Message('note_on', channel=9, note=40, velocity=100, time=60),
    Message('note_on', channel=9, note=40, velocity=0, time=60),
    Message('note_on', channel=9, note=36, velocity=100, time=0),
    Message('note_on', channel=9, note=55, velocity=100, time=0),
    Message('note_on', channel=9, note=40, velocity=0, time=60),
    Message('note_on', channel=9, note=55, velocity=0, time=60),
    Message('note_on', channel=9, note=36, velocity=0, time=0),
    Message('note_on', channel=9, note=40, velocity=100, time=0),
    Message('note_on', channel=9, note=40, velocity=100, time=60),
    Message('note_on', channel=9, note=40, velocity=0, time=60),
    Message('note_on', channel=9, note=36, velocity=100, time=0),
    Message('note_on', channel=9, note=55, velocity=100, time=0),
    Message('note_on', channel=9, note=40, velocity=0, time=60),
    Message('note_on', channel=9, note=55, velocity=0, time=60),
    Message('note_on', channel=9, note=36, velocity=0, time=0),
    Message('note_on', channel=9, note=40, velocity=100, time=0),
    Message('note_on', channel=9, note=40, velocity=100, time=60),
    Message('note_on', channel=9, note=40, velocity=0, time=60),
    Message('note_on', channel=9, note=36, velocity=100, time=0),
    Message('note_on', channel=9, note=55, velocity=100, time=0),
    Message('note_on', channel=9, note=40, velocity=0, time=60),
    Message('note_on', channel=9, note=55, velocity=0, time=60),
    Message('note_on', channel=9, note=36, velocity=0, time=0),
    Message('note_on', channel=9, note=40, velocity=100, time=0),
    Message('note_on', channel=9, note=40, velocity=100, time=60),
    Message('note_on', channel=9, note=40, velocity=0, time=60),
    Message('note_on', channel=9, note=36, velocity=100, time=0),
    Message('note_on', channel=9, note=55, velocity=100, time=0),
    Message('note_on', channel=9, note=40, velocity=0, time=60),
    Message('note_on', channel=9, note=55, velocity=0, time=60),
    Message('note_on', channel=9, note=36, velocity=0, time=0),
    Message('note_on', channel=9, note=40, velocity=100, time=0),
    Message('note_on', channel=9, note=40, velocity=100, time=60),
    Message('note_on', channel=9, note=40, velocity=0, time=60),
    Message('note_on', channel=9, note=36, velocity=100, time=0),
    Message('note_on', channel=9, note=55, velocity=100, time=0),
    Message('note_on', channel=9, note=40, velocity=0, time=60),
    Message('note_on', channel=9, note=55, velocity=0, time=60),
    Message('note_on', channel=9, note=36, velocity=0, time=0),
    Message('note_on', channel=9, note=40, velocity=100, time=0),
    Message('note_on', channel=9, note=40, velocity=100, time=60),
    Message('note_on', channel=9, note=40, velocity=0, time=60),
    Message('note_on', channel=9, note=36, velocity=100, time=0),
    Message('note_on', channel=9, note=55, velocity=100, time=0),
    Message('note_on', channel=9, note=40, velocity=0, time=60),
    Message('note_on', channel=9, note=55, velocity=0, time=60),
    Message('note_on', channel=9, note=36, velocity=0, time=0),
    Message('note_on', channel=9, note=40, velocity=100, time=0),
    Message('note_on', channel=9, note=40, velocity=100, time=60),
    Message('note_on', channel=9, note=40, velocity=0, time=60),
    Message('note_on', channel=9, note=36, velocity=100, time=0),
    Message('note_on', channel=9, note=55, velocity=100, time=0),
    Message('note_on', channel=9, note=40, velocity=0, time=60),
    Message('note_on', channel=9, note=55, velocity=0, time=60),
    Message('note_on', channel=9, note=36, velocity=0, time=0),
    Message('note_on', channel=9, note=40, velocity=100, time=0),
    Message('note_on', channel=9, note=40, velocity=100, time=60),
    Message('note_on', channel=9, note=40, velocity=0, time=60),
    Message('note_on', channel=9, note=36, velocity=100, time=0),
    Message('note_on', channel=9, note=55, velocity=100, time=0),
    Message('note_on', channel=9, note=40, velocity=0, time=60),
    Message('note_on', channel=9, note=55, velocity=0, time=60),
    Message('note_on', channel=9, note=36, velocity=0, time=0),
    Message('note_on', channel=9, note=40, velocity=100, time=0),
    Message('note_on', channel=9, note=40, velocity=100, time=60),
    Message('note_on', channel=9, note=40, velocity=0, time=60),
    Message('note_on', channel=9, note=36, velocity=100, time=0),
    Message('note_on', channel=9, note=55, velocity=100, time=0),
    Message('note_on', channel=9, note=40, velocity=0, time=60),
    Message('note_on', channel=9, note=55, velocity=0, time=60),
    Message('note_on', channel=9, note=36, velocity=0, time=0),
    Message('note_on', channel=9, note=40, velocity=100, time=0),
    Message('note_on', channel=9, note=40, velocity=100, time=60),
    Message('note_on', channel=9, note=40, velocity=0, time=60),
    Message('note_on', channel=9, note=36, velocity=100, time=0),
    Message('note_on', channel=9, note=55, velocity=100, time=0),
    Message('note_on', channel=9, note=40, velocity=0, time=60),
    Message('note_on', channel=9, note=55, velocity=0, time=60),
    Message('note_on', channel=9, note=36, velocity=0, time=0),
    Message('note_on', channel=9, note=40, velocity=100, time=0),
    Message('note_on', channel=9, note=40, velocity=100, time=60),
    Message('note_on', channel=9, note=40, velocity=0, time=60),
    Message('note_on', channel=9, note=36, velocity=100, time=0),
    Message('note_on', channel=9, note=55, velocity=100, time=0),
    Message('note_on', channel=9, note=40, velocity=0, time=60),
    Message('note_on', channel=9, note=55, velocity=0, time=60),
    Message('note_on', channel=9, note=36, velocity=0, time=0),
    Message('note_on', channel=9, note=40, velocity=100, time=0),
    Message('note_on', channel=9, note=40, velocity=100, time=60),
    Message('note_on', channel=9, note=40, velocity=0, time=60),
    Message('note_on', channel=9, note=49, velocity=100, time=0),
    Message('note_on', channel=9, note=36, velocity=100, time=0),
    Message('note_on', channel=9, note=40, velocity=100, time=0),
    Message('note_on', channel=9, note=40, velocity=0, time=60),
    Message('note_on', channel=9, note=49, velocity=0, time=100),
    Message('note_on', channel=9, note=36, velocity=0, time=0),
    Message('note_on', channel=9, note=40, velocity=0, time=0),
    Message('note_on', channel=9, note=57, velocity=100, time=0),
    Message('note_on', channel=9, note=36, velocity=100, time=0),
    Message('note_on', channel=9, note=40, velocity=100, time=0),
    Message('note_on', channel=9, note=40, velocity=0, time=160),
    Message('note_on', channel=9, note=36, velocity=0, time=0),
    Message('note_on', channel=9, note=57, velocity=0, time=0),
    Message('note_on', channel=9, note=49, velocity=100, time=0),
    Message('note_on', channel=9, note=36, velocity=100, time=0),
    Message('note_on', channel=9, note=40, velocity=100, time=0),
    Message('note_on', channel=9, note=40, velocity=0, time=160),
    Message('note_on', channel=9, note=36, velocity=0, time=0),
    Message('note_on', channel=9, note=49, velocity=0, time=0),
    Message('note_on', channel=9, note=57, velocity=100, time=0),
    Message('note_on', channel=9, note=36, velocity=100, time=0),
    Message('note_on', channel=9, note=40, velocity=100, time=0),
    Message('note_on', channel=9, note=40, velocity=0, time=160),
    Message('note_on', channel=9, note=36, velocity=0, time=0),
    Message('note_on', channel=9, note=57, velocity=0, time=0),
    Message('note_on', channel=9, note=49, velocity=100, time=0),
    Message('note_on', channel=9, note=36, velocity=100, time=0),
    Message('note_on', channel=9, note=40, velocity=100, time=0),
    Message('note_on', channel=9, note=40, velocity=0, time=160),
    Message('note_on', channel=9, note=36, velocity=0, time=0),
    Message('note_on', channel=9, note=49, velocity=0, time=0),
    Message('note_on', channel=9, note=36, velocity=100, time=0),
    Message('note_on', channel=9, note=40, velocity=100, time=0),
    Message('note_on', channel=9, note=57, velocity=100, time=0),
    Message('note_on', channel=9, note=57, velocity=0, time=160),
    Message('note_on', channel=9, note=40, velocity=0, time=0),
    Message('note_on', channel=9, note=36, velocity=0, time=0),
    Message('note_on', channel=9, note=36, velocity=100, time=0),
    Message('note_on', channel=9, note=55, velocity=100, time=0),
    Message('note_on', channel=9, note=55, velocity=0, time=120),
    Message('note_on', channel=9, note=36, velocity=0, time=0),
    Message('note_on', channel=9, note=40, velocity=100, time=0),
    Message('note_on', channel=9, note=40, velocity=100, time=60),
    Message('note_on', channel=9, note=40, velocity=0, time=60),
    Message('note_on', channel=9, note=36, velocity=100, time=0),
    Message('note_on', channel=9, note=55, velocity=100, time=0),
    Message('note_on', channel=9, note=40, velocity=0, time=60),
    Message('note_on', channel=9, note=55, velocity=0, time=60),
    Message('note_on', channel=9, note=36, velocity=0, time=0),
    Message('note_on', channel=9, note=40, velocity=100, time=0),
    Message('note_on', channel=9, note=40, velocity=100, time=60),
    Message('note_on', channel=9, note=40, velocity=0, time=60),
    Message('note_on', channel=9, note=36, velocity=100, time=0),
    Message('note_on', channel=9, note=55, velocity=100, time=0),
    Message('note_on', channel=9, note=40, velocity=0, time=60),
    Message('note_on', channel=9, note=55, velocity=0, time=60),
    Message('note_on', channel=9, note=36, velocity=0, time=0),
    Message('note_on', channel=9, note=40, velocity=100, time=0),
    Message('note_on', channel=9, note=40, velocity=100, time=60),
    Message('note_on', channel=9, note=40, velocity=0, time=60),
    Message('note_on', channel=9, note=36, velocity=100, time=0),
    Message('note_on', channel=9, note=55, velocity=100, time=0),
    Message('note_on', channel=9, note=40, velocity=0, time=60),
    Message('note_on', channel=9, note=55, velocity=0, time=60),
    Message('note_on', channel=9, note=36, velocity=0, time=0),
    Message('note_on', channel=9, note=40, velocity=100, time=0),
    Message('note_on', channel=9, note=40, velocity=100, time=60),
    Message('note_on', channel=9, note=40, velocity=0, time=60),
    Message('note_on', channel=9, note=36, velocity=100, time=0),
    Message('note_on', channel=9, note=55, velocity=100, time=0),
    Message('note_on', channel=9, note=40, velocity=0, time=60),
    Message('note_on', channel=9, note=55, velocity=0, time=60),
    Message('note_on', channel=9, note=36, velocity=0, time=0),
    Message('note_on', channel=9, note=40, velocity=100, time=0),
    Message('note_on', channel=9, note=40, velocity=100, time=60),
    Message('note_on', channel=9, note=40, velocity=0, time=60),
    Message('note_on', channel=9, note=36, velocity=100, time=0),
    Message('note_on', channel=9, note=55, velocity=100, time=0),
    Message('note_on', channel=9, note=40, velocity=0, time=60),
    Message('note_on', channel=9, note=55, velocity=0, time=60),
    Message('note_on', channel=9, note=36, velocity=0, time=0),
    Message('note_on', channel=9, note=40, velocity=100, time=0),
    Message('note_on', channel=9, note=40, velocity=100, time=60),
    Message('note_on', channel=9, note=40, velocity=0, time=60),
    Message('note_on', channel=9, note=36, velocity=100, time=0),
    Message('note_on', channel=9, note=55, velocity=100, time=0),
    Message('note_on', channel=9, note=40, velocity=0, time=60),
    Message('note_on', channel=9, note=55, velocity=0, time=60),
    Message('note_on', channel=9, note=36, velocity=0, time=0),
    Message('note_on', channel=9, note=40, velocity=100, time=0),
    Message('note_on', channel=9, note=40, velocity=100, time=60),
    Message('note_on', channel=9, note=40, velocity=0, time=60),
    Message('note_on', channel=9, note=36, velocity=100, time=0),
    Message('note_on', channel=9, note=55, velocity=100, time=0),
    Message('note_on', channel=9, note=40, velocity=0, time=60),
    Message('note_on', channel=9, note=55, velocity=0, time=60),
    Message('note_on', channel=9, note=36, velocity=0, time=0),
    Message('note_on', channel=9, note=40, velocity=100, time=0),
    Message('note_on', channel=9, note=40, velocity=100, time=60),
    Message('note_on', channel=9, note=40, velocity=0, time=60),
    Message('note_on', channel=9, note=36, velocity=100, time=0),
    Message('note_on', channel=9, note=55, velocity=100, time=0),
    Message('note_on', channel=9, note=40, velocity=0, time=60),
    Message('note_on', channel=9, note=55, velocity=0, time=60),
    Message('note_on', channel=9, note=36, velocity=0, time=0),
    Message('note_on', channel=9, note=40, velocity=100, time=0),
    Message('note_on', channel=9, note=40, velocity=100, time=60),
    Message('note_on', channel=9, note=40, velocity=0, time=60),
    Message('note_on', channel=9, note=36, velocity=100, time=0),
    Message('note_on', channel=9, note=55, velocity=100, time=0),
    Message('note_on', channel=9, note=40, velocity=0, time=60),
    Message('note_on', channel=9, note=55, velocity=0, time=60),
    Message('note_on', channel=9, note=36, velocity=0, time=0),
    Message('note_on', channel=9, note=40, velocity=100, time=0),
    Message('note_on', channel=9, note=40, velocity=100, time=60),
    Message('note_on', channel=9, note=40, velocity=0, time=60),
    Message('note_on', channel=9, note=36, velocity=100, time=0),
    Message('note_on', channel=9, note=55, velocity=100, time=0),
    Message('note_on', channel=9, note=40, velocity=0, time=60),
    Message('note_on', channel=9, note=55, velocity=0, time=60),
    Message('note_on', channel=9, note=36, velocity=0, time=0),
    Message('note_on', channel=9, note=40, velocity=100, time=0),
    Message('note_on', channel=9, note=40, velocity=100, time=60),
    Message('note_on', channel=9, note=40, velocity=0, time=60),
    Message('note_on', channel=9, note=36, velocity=100, time=0),
    Message('note_on', channel=9, note=55, velocity=100, time=0),
    Message('note_on', channel=9, note=40, velocity=0, time=60),
    Message('note_on', channel=9, note=55, velocity=0, time=60),
    Message('note_on', channel=9, note=36, velocity=0, time=0),
    Message('note_on', channel=9, note=40, velocity=100, time=0),
    Message('note_on', channel=9, note=40, velocity=100, time=60),
    Message('note_on', channel=9, note=40, velocity=0, time=60),
    Message('note_on', channel=9, note=49, velocity=100, time=0),
    Message('note_on', channel=9, note=36, velocity=100, time=0),
    Message('note_on', channel=9, note=40, velocity=100, time=0),
    Message('note_on', channel=9, note=40, velocity=0, time=60),
    Message('note_on', channel=9, note=49, velocity=0, time=100),
    Message('note_on', channel=9, note=36, velocity=0, time=0),
    Message('note_on', channel=9, note=40, velocity=0, time=0),
    Message('note_on', channel=9, note=57, velocity=100, time=0),
    Message('note_on', channel=9, note=36, velocity=100, time=0),
    Message('note_on', channel=9, note=40, velocity=100, time=0),
    Message('note_on', channel=9, note=40, velocity=0, time=160),
    Message('note_on', channel=9, note=36, velocity=0, time=0),
    Message('note_on', channel=9, note=57, velocity=0, time=0),
    Message('note_on', channel=9, note=49, velocity=100, time=0),
    Message('note_on', channel=9, note=36, velocity=100, time=0),
    Message('note_on', channel=9, note=40, velocity=100, time=0),
    Message('note_on', channel=9, note=40, velocity=0, time=160),
    Message('note_on', channel=9, note=36, velocity=0, time=0),
    Message('note_on', channel=9, note=49, velocity=0, time=0),
    Message('note_on', channel=9, note=57, velocity=100, time=0),
    Message('note_on', channel=9, note=36, velocity=100, time=0),
    Message('note_on', channel=9, note=40, velocity=100, time=0),
    Message('note_on', channel=9, note=40, velocity=0, time=160),
    Message('note_on', channel=9, note=36, velocity=0, time=0),
    Message('note_on', channel=9, note=57, velocity=0, time=0),
    Message('note_on', channel=9, note=49, velocity=100, time=0),
    Message('note_on', channel=9, note=36, velocity=100, time=0),
    Message('note_on', channel=9, note=40, velocity=100, time=0),
    Message('note_on', channel=9, note=40, velocity=0, time=160),
    Message('note_on', channel=9, note=36, velocity=0, time=0),
    Message('note_on', channel=9, note=49, velocity=0, time=0),
    Message('note_on', channel=9, note=36, velocity=100, time=0),
    Message('note_on', channel=9, note=40, velocity=100, time=0),
    Message('note_on', channel=9, note=57, velocity=100, time=0),
    Message('note_on', channel=9, note=57, velocity=0, time=160),
    Message('note_on', channel=9, note=40, velocity=0, time=0),
    Message('note_on', channel=9, note=36, velocity=0, time=0),
    Message('note_on', channel=9, note=36, velocity=100, time=0),
    Message('note_on', channel=9, note=55, velocity=100, time=0),
    Message('note_on', channel=9, note=55, velocity=0, time=120),
    Message('note_on', channel=9, note=36, velocity=0, time=0),
    Message('note_on', channel=9, note=40, velocity=100, time=0),
    Message('note_on', channel=9, note=40, velocity=100, time=60),
    Message('note_on', channel=9, note=40, velocity=0, time=60),
    Message('note_on', channel=9, note=36, velocity=100, time=0),
    Message('note_on', channel=9, note=55, velocity=100, time=0),
    Message('note_on', channel=9, note=40, velocity=0, time=60),
    Message('note_on', channel=9, note=55, velocity=0, time=60),
    Message('note_on', channel=9, note=36, velocity=0, time=0),
    Message('note_on', channel=9, note=40, velocity=100, time=0),
    Message('note_on', channel=9, note=40, velocity=100, time=60),
    Message('note_on', channel=9, note=40, velocity=0, time=60),
    Message('note_on', channel=9, note=36, velocity=100, time=0),
    Message('note_on', channel=9, note=55, velocity=100, time=0),
    Message('note_on', channel=9, note=40, velocity=0, time=60),
    Message('note_on', channel=9, note=55, velocity=0, time=60),
    Message('note_on', channel=9, note=36, velocity=0, time=0),
    Message('note_on', channel=9, note=40, velocity=100, time=0),
    Message('note_on', channel=9, note=40, velocity=100, time=60),
    Message('note_on', channel=9, note=40, velocity=0, time=60),
    Message('note_on', channel=9, note=36, velocity=100, time=0),
    Message('note_on', channel=9, note=55, velocity=100, time=0),
    Message('note_on', channel=9, note=40, velocity=0, time=60),
    Message('note_on', channel=9, note=55, velocity=0, time=60),
    Message('note_on', channel=9, note=36, velocity=0, time=0),
    Message('note_on', channel=9, note=40, velocity=100, time=0),
    Message('note_on', channel=9, note=40, velocity=100, time=60),
    Message('note_on', channel=9, note=40, velocity=0, time=60),
    Message('note_on', channel=9, note=36, velocity=100, time=0),
    Message('note_on', channel=9, note=55, velocity=100, time=0),
    Message('note_on', channel=9, note=40, velocity=0, time=60),
    Message('note_on', channel=9, note=55, velocity=0, time=60),
    Message('note_on', channel=9, note=36, velocity=0, time=0),
    Message('note_on', channel=9, note=40, velocity=100, time=0),
    Message('note_on', channel=9, note=40, velocity=100, time=60),
    Message('note_on', channel=9, note=40, velocity=0, time=60),
    Message('note_on', channel=9, note=36, velocity=100, time=0),
    Message('note_on', channel=9, note=55, velocity=100, time=0),
    Message('note_on', channel=9, note=40, velocity=0, time=60),
    Message('note_on', channel=9, note=55, velocity=0, time=60),
    Message('note_on', channel=9, note=36, velocity=0, time=0),
    Message('note_on', channel=9, note=40, velocity=100, time=0),
    Message('note_on', channel=9, note=40, velocity=100, time=60),
    Message('note_on', channel=9, note=40, velocity=0, time=60),
    Message('note_on', channel=9, note=36, velocity=100, time=0),
    Message('note_on', channel=9, note=55, velocity=100, time=0),
    Message('note_on', channel=9, note=40, velocity=0, time=60),
    Message('note_on', channel=9, note=55, velocity=0, time=60),
    Message('note_on', channel=9, note=36, velocity=0, time=0),
    Message('note_on', channel=9, note=40, velocity=100, time=0),
    Message('note_on', channel=9, note=40, velocity=100, time=60),
    Message('note_on', channel=9, note=40, velocity=0, time=60),
    Message('note_on', channel=9, note=36, velocity=100, time=0),
    Message('note_on', channel=9, note=55, velocity=100, time=0),
    Message('note_on', channel=9, note=40, velocity=0, time=60),
    Message('note_on', channel=9, note=55, velocity=0, time=60),
    Message('note_on', channel=9, note=36, velocity=0, time=0),
    Message('note_on', channel=9, note=40, velocity=100, time=0),
    Message('note_on', channel=9, note=40, velocity=100, time=60),
    Message('note_on', channel=9, note=40, velocity=0, time=60),
    Message('note_on', channel=9, note=36, velocity=100, time=0),
    Message('note_on', channel=9, note=55, velocity=100, time=0),
    Message('note_on', channel=9, note=40, velocity=0, time=60),
    Message('note_on', channel=9, note=55, velocity=0, time=60),
    Message('note_on', channel=9, note=36, velocity=0, time=0),
    Message('note_on', channel=9, note=40, velocity=100, time=0),
    Message('note_on', channel=9, note=40, velocity=100, time=60),
    Message('note_on', channel=9, note=40, velocity=0, time=60),
    Message('note_on', channel=9, note=36, velocity=100, time=0),
    Message('note_on', channel=9, note=55, velocity=100, time=0),
    Message('note_on', channel=9, note=40, velocity=0, time=60),
    Message('note_on', channel=9, note=55, velocity=0, time=60),
    Message('note_on', channel=9, note=36, velocity=0, time=0),
    Message('note_on', channel=9, note=40, velocity=100, time=0),
    Message('note_on', channel=9, note=40, velocity=100, time=60),
    Message('note_on', channel=9, note=40, velocity=0, time=60),
    Message('note_on', channel=9, note=36, velocity=100, time=0),
    Message('note_on', channel=9, note=55, velocity=100, time=0),
    Message('note_on', channel=9, note=40, velocity=0, time=60),
    Message('note_on', channel=9, note=55, velocity=0, time=60),
    Message('note_on', channel=9, note=36, velocity=0, time=0),
    Message('note_on', channel=9, note=40, velocity=100, time=0),
    Message('note_on', channel=9, note=40, velocity=100, time=60),
    Message('note_on', channel=9, note=40, velocity=0, time=60),
    Message('note_on', channel=9, note=36, velocity=100, time=0),
    Message('note_on', channel=9, note=55, velocity=100, time=0),
    Message('note_on', channel=9, note=40, velocity=0, time=60),
    Message('note_on', channel=9, note=55, velocity=0, time=60),
    Message('note_on', channel=9, note=36, velocity=0, time=0),
    Message('note_on', channel=9, note=40, velocity=100, time=0),
    Message('note_on', channel=9, note=40, velocity=100, time=60),
    Message('note_on', channel=9, note=40, velocity=0, time=60),
    Message('note_on', channel=9, note=49, velocity=100, time=0),
    Message('note_on', channel=9, note=36, velocity=100, time=0),
    Message('note_on', channel=9, note=40, velocity=100, time=0),
    Message('note_on', channel=9, note=40, velocity=0, time=60),
    Message('note_on', channel=9, note=49, velocity=0, time=100),
    Message('note_on', channel=9, note=36, velocity=0, time=0),
    Message('note_on', channel=9, note=40, velocity=0, time=0),
    Message('note_on', channel=9, note=57, velocity=100, time=0),
    Message('note_on', channel=9, note=36, velocity=100, time=0),
    Message('note_on', channel=9, note=40, velocity=100, time=0),
    Message('note_on', channel=9, note=40, velocity=0, time=160),
    Message('note_on', channel=9, note=36, velocity=0, time=0),
    Message('note_on', channel=9, note=57, velocity=0, time=0),
    Message('note_on', channel=9, note=49, velocity=100, time=0),
    Message('note_on', channel=9, note=36, velocity=100, time=0),
    Message('note_on', channel=9, note=40, velocity=100, time=0),
    Message('note_on', channel=9, note=40, velocity=0, time=160),
    Message('note_on', channel=9, note=36, velocity=0, time=0),
    Message('note_on', channel=9, note=49, velocity=0, time=0),
    Message('note_on', channel=9, note=57, velocity=100, time=0),
    Message('note_on', channel=9, note=36, velocity=100, time=0),
    Message('note_on', channel=9, note=40, velocity=100, time=0),
    Message('note_on', channel=9, note=40, velocity=0, time=160),
    Message('note_on', channel=9, note=36, velocity=0, time=0),
    Message('note_on', channel=9, note=57, velocity=0, time=0),
    Message('note_on', channel=9, note=49, velocity=100, time=0),
    Message('note_on', channel=9, note=36, velocity=100, time=0),
    Message('note_on', channel=9, note=40, velocity=100, time=0),
    Message('note_on', channel=9, note=40, velocity=0, time=160),
    Message('note_on', channel=9, note=36, velocity=0, time=0),
    Message('note_on', channel=9, note=49, velocity=0, time=0),
    Message('note_on', channel=9, note=36, velocity=100, time=0),
    Message('note_on', channel=9, note=40, velocity=100, time=0),
    Message('note_on', channel=9, note=57, velocity=100, time=0),
    Message('note_on', channel=9, note=57, velocity=0, time=160),
    Message('note_on', channel=9, note=40, velocity=0, time=0),
    Message('note_on', channel=9, note=36, velocity=0, time=0),
    Message('note_on', channel=9, note=49, velocity=100, time=0),
    Message('note_on', channel=9, note=36, velocity=100, time=0),
    Message('note_on', channel=9, note=36, velocity=0, time=240),
    Message('note_on', channel=9, note=49, velocity=0, time=0),
    MetaMessage('end_of_track', time=0)])
])
