MidiFile(type=1, ticks_per_beat=48, tracks=[
  MidiTrack([
    MetaMessage('track_name', name='None', time=0),
    MetaMessage('device_name', name='None', time=0),
    Message('program_change', channel=0, program=46, time=0),
    Message('note_on', channel=0, note=51, velocity=127, time=0),
    Message('note_on', channel=0, note=56, velocity=127, time=0),
    Message('note_on', channel=0, note=48, velocity=127, time=0),
    Message('program_change', channel=0, program=46, time=0),
    Message('program_change', channel=0, program=25, time=0),
    Message('note_off', channel=0, note=48, velocity=127, time=96),
    Message('note_on', channel=0, note=58, velocity=127, time=0),
    Message('note_off', channel=0, note=51, velocity=127, time=96),
    Message('note_off', channel=0, note=56, velocity=127, time=0),
    Message('note_off', channel=0, note=58, velocity=127, time=0),
    Message('note_on', channel=0, note=58, velocity=127, time=0),
    Message('note_on', channel=0, note=51, velocity=127, time=0),
    Message('note_on', channel=0, note=55, velocity=127, time=0),
    Message('note_on', channel=0, note=50, velocity=127, time=0),
    Message('note_on', channel=0, note=58, velocity=127, time=0),
    Message('note_off', channel=0, note=50, velocity=127, time=96),
    Message('note_off', channel=0, note=58, velocity=127, time=0),
    Message('note_on', channel=0, note=51, velocity=127, time=0),
    Message('note_off', channel=0, note=58, velocity=127, time=96),
    Message('note_off', channel=0, note=51, velocity=127, time=0),
    Message('note_off', channel=0, note=55, velocity=127, time=0),
    Message('note_off', channel=0, note=51, velocity=127, time=0),
    Message('note_on', channel=0, note=53, velocity=127, time=0),
    Message('note_on', channel=0, note=51, velocity=127, time=0),
    Message('note_on', channel=0, note=55, velocity=127, time=0),
    Message('note_on', channel=0, note=58, velocity=127, time=0),
    Message('note_off', channel=0, note=51, velocity=127, time=96),
    Message('note_off', channel=0, note=55, velocity=127, time=0),
    Message('note_off', channel=0, note=58, velocity=127, time=0),
    Message('note_on', channel=0, note=55, velocity=127, time=0),
    Message('note_off', channel=0, note=53, velocity=127, time=96),
    Message('note_off', channel=0, note=55, velocity=127, time=0),
    Message('note_on', channel=0, note=56, velocity=127, time=0),
    Message('note_on', channel=0, note=48, velocity=127, time=0),
    Message('note_on', channel=0, note=51, velocity=127, time=0),
    Message('note_on', channel=0, note=48, velocity=127, time=0),
    Message('note_on', channel=0, note=51, velocity=127, time=0),
    Message('note_off', channel=0, note=48, velocity=127, time=96),
    Message('note_off', channel=0, note=51, velocity=127, time=0),
    Message('note_on', channel=0, note=51, velocity=127, time=0),
    Message('note_off', channel=0, note=56, velocity=127, time=96),
    Message('note_off', channel=0, note=48, velocity=127, time=0),
    Message('note_off', channel=0, note=51, velocity=127, time=0),
    Message('note_off', channel=0, note=51, velocity=127, time=0),
    Message('note_on', channel=0, note=51, velocity=127, time=0),
    Message('note_on', channel=0, note=51, velocity=127, time=0),
    Message('note_on', channel=0, note=51, velocity=127, time=0),
    Message('note_off', channel=0, note=51, velocity=127, time=96),
    Message('note_off', channel=0, note=51, velocity=127, time=0),
    Message('note_on', channel=0, note=51, velocity=127, time=0),
    Message('note_on', channel=0, note=55, velocity=127, time=0),
    Message('note_off', channel=0, note=51, velocity=127, time=96),
    Message('note_off', channel=0, note=51, velocity=127, time=0),
    Message('note_off', channel=0, note=55, velocity=127, time=0),
    Message('note_on', channel=0, note=51, velocity=127, time=0),
    Message('note_on', channel=0, note=58, velocity=127, time=0),
    Message('note_off', channel=0, note=51, velocity=127, time=192),
    Message('note_off', channel=0, note=58, velocity=127, time=0),
    Message('note_on', channel=0, note=51, velocity=127, time=0),
    Message('note_on', channel=0, note=55, velocity=127, time=0),
    Message('note_off', channel=0, note=51, velocity=127, time=192),
    Message('note_off', channel=0, note=55, velocity=127, time=0),
    Message('note_on', channel=0, note=56, velocity=127, time=0),
    Message('note_on', channel=0, note=48, velocity=127, time=0),
    Message('note_off', channel=0, note=56, velocity=127, time=192),
    Message('note_off', channel=0, note=48, velocity=127, time=0),
    Message('note_on', channel=0, note=55, velocity=127, time=0),
    Message('note_on', channel=0, note=58, velocity=127, time=0),
    Message('note_off', channel=0, note=55, velocity=127, time=192),
    Message('note_off', channel=0, note=58, velocity=127, time=0),
    Message('note_on', channel=0, note=58, velocity=127, time=0),
    Message('note_off', channel=0, note=58, velocity=127, time=192),
    MetaMessage('end_of_track', time=500)]),
  MidiTrack([
    MetaMessage('track_name', name='None', time=0),
    MetaMessage('device_name', name='None', time=0),
    Message('program_change', channel=0, program=46, time=0),
    Message('note_on', channel=0, note=56, velocity=127, time=72),
    Message('note_off', channel=0, note=56, velocity=127, time=24),
    Message('note_on', channel=0, note=58, velocity=127, time=48),
    Message('note_off', channel=0, note=58, velocity=127, time=24),
    Message('note_on', channel=0, note=55, velocity=127, time=72),
    Message('note_off', channel=0, note=55, velocity=127, time=24),
    Message('note_on', channel=0, note=56, velocity=127, time=24),
    Message('note_off', channel=0, note=56, velocity=127, time=24),
    Message('note_on', channel=0, note=56, velocity=127, time=48),
    Message('note_off', channel=0, note=56, velocity=127, time=24),
    Message('note_on', channel=0, note=48, velocity=127, time=24),
    Message('note_off', channel=0, note=48, velocity=127, time=24),
    Message('note_on', channel=0, note=51, velocity=127, time=96),
    Message('note_off', channel=0, note=51, velocity=127, time=24),
    Message('note_on', channel=0, note=56, velocity=127, time=72),
    Message('note_off', channel=0, note=56, velocity=127, time=24),
    Message('note_on', channel=0, note=58, velocity=127, time=72),
    Message('note_off', channel=0, note=58, velocity=127, time=24),
    Message('note_on', channel=0, note=58, velocity=127, time=72),
    Message('note_off', channel=0, note=58, velocity=127, time=24),
    Message('note_on', channel=0, note=58, velocity=127, time=96),
    Message('note_off', channel=0, note=58, velocity=127, time=24),
    Message('note_on', channel=0, note=50, velocity=127, time=72),
    Message('note_off', channel=0, note=50, velocity=127, time=24),
    Message('note_on', channel=0, note=50, velocity=127, time=72),
    Message('note_off', channel=0, note=50, velocity=127, time=24),
    Message('note_on', channel=0, note=58, velocity=127, time=24),
    Message('note_off', channel=0, note=58, velocity=127, time=24),
    Message('note_on', channel=0, note=50, velocity=127, time=24),
    Message('note_off', channel=0, note=50, velocity=127, time=24),
    Message('note_on', channel=0, note=51, velocity=127, time=72),
    Message('note_off', channel=0, note=51, velocity=127, time=24),
    Message('note_on', channel=0, note=50, velocity=127, time=48),
    Message('note_off', channel=0, note=50, velocity=127, time=24),
    Message('note_on', channel=0, note=58, velocity=127, time=96),
    Message('note_off', channel=0, note=58, velocity=127, time=24),
    Message('note_on', channel=0, note=51, velocity=127, time=48),
    Message('note_off', channel=0, note=51, velocity=127, time=24),
    Message('note_on', channel=0, note=51, velocity=127, time=72),
    Message('note_off', channel=0, note=51, velocity=127, time=24),
    MetaMessage('end_of_track', time=500)])
])
