MidiFile(type=1, ticks_per_beat=192, tracks=[
  MidiTrack([
    MetaMessage('track_name', name='None: Channel 0', time=0),
    MetaMessage('device_name', name='None', time=0),
    MetaMessage('set_tempo', tempo=428571, time=0),
    MetaMessage('end_of_track', time=500)]),
  MidiTrack([
    MetaMessage('track_name', name='Dave Mustane        : Channel 6', time=0),
    MetaMessage('device_name', name='None', time=0),
    Message('program_change', channel=6, program=30, time=0),
    Message('control_change', channel=6, control=7, value=80, time=0),
    Message('control_change', channel=6, control=10, value=46, time=0),
    Message('note_on', channel=6, note=41, velocity=110, time=480),
    Message('note_off', channel=6, note=41, velocity=110, time=96),
    Message('note_on', channel=6, note=43, velocity=110, time=0),
    Message('note_off', channel=6, note=43, velocity=110, time=96),
    Message('note_on', channel=6, note=41, velocity=110, time=0),
    Message('note_off', channel=6, note=41, velocity=110, time=96),
    Message('note_on', channel=6, note=48, velocity=110, time=0),
    Message('note_on', channel=6, note=41, velocity=110, time=0),
    Message('note_off', channel=6, note=48, velocity=110, time=96),
    Message('note_off', channel=6, note=41, velocity=110, time=0),
    Message('note_on', channel=6, note=40, velocity=110, time=0),
    Message('note_on', channel=6, note=47, velocity=110, time=0),
    Message('note_off', channel=6, note=40, velocity=110, time=96),
    Message('note_off', channel=6, note=47, velocity=110, time=0),
    Message('note_on', channel=6, note=47, velocity=110, time=96),
    Message('note_on', channel=6, note=40, velocity=110, time=0),
    Message('note_off', channel=6, note=47, velocity=110, time=96),
    Message('note_off', channel=6, note=40, velocity=110, time=0),
    Message('note_on', channel=6, note=41, velocity=110, time=384),
    Message('note_on', channel=6, note=48, velocity=110, time=0),
    Message('note_off', channel=6, note=41, velocity=110, time=96),
    Message('note_off', channel=6, note=48, velocity=110, time=0),
    Message('note_on', channel=6, note=47, velocity=110, time=0),
    Message('note_on', channel=6, note=40, velocity=110, time=0),
    Message('note_off', channel=6, note=47, velocity=110, time=96),
    Message('note_off', channel=6, note=40, velocity=110, time=0),
    Message('note_on', channel=6, note=40, velocity=110, time=96),
    Message('note_on', channel=6, note=47, velocity=110, time=0),
    Message('note_off', channel=6, note=40, velocity=110, time=96),
    Message('note_off', channel=6, note=47, velocity=110, time=0),
    Message('note_on', channel=6, note=41, velocity=110, time=96),
    Message('note_off', channel=6, note=41, velocity=110, time=96),
    Message('note_on', channel=6, note=43, velocity=110, time=0),
    Message('note_off', channel=6, note=43, velocity=110, time=96),
    Message('note_on', channel=6, note=41, velocity=110, time=0),
    Message('note_off', channel=6, note=41, velocity=110, time=96),
    Message('note_on', channel=6, note=48, velocity=110, time=0),
    Message('note_on', channel=6, note=41, velocity=110, time=0),
    Message('note_off', channel=6, note=48, velocity=110, time=96),
    Message('note_off', channel=6, note=41, velocity=110, time=0),
    Message('note_on', channel=6, note=47, velocity=110, time=0),
    Message('note_on', channel=6, note=40, velocity=110, time=0),
    Message('note_off', channel=6, note=47, velocity=110, time=96),
    Message('note_off', channel=6, note=40, velocity=110, time=0),
    Message('note_on', channel=6, note=47, velocity=110, time=96),
    Message('note_on', channel=6, note=40, velocity=110, time=0),
    Message('note_off', channel=6, note=47, velocity=110, time=96),
    Message('note_off', channel=6, note=40, velocity=110, time=0),
    Message('note_on', channel=6, note=48, velocity=110, time=1152),
    Message('note_on', channel=6, note=41, velocity=110, time=0),
    Message('note_off', channel=6, note=48, velocity=110, time=96),
    Message('note_off', channel=6, note=41, velocity=110, time=0),
    Message('note_on', channel=6, note=40, velocity=110, time=0),
    Message('note_on', channel=6, note=47, velocity=110, time=0),
    Message('note_off', channel=6, note=40, velocity=110, time=96),
    Message('note_off', channel=6, note=47, velocity=110, time=0),
    Message('note_on', channel=6, note=47, velocity=110, time=96),
    Message('note_on', channel=6, note=40, velocity=110, time=0),
    Message('note_off', channel=6, note=47, velocity=110, time=96),
    Message('note_off', channel=6, note=40, velocity=110, time=0),
    Message('note_on', channel=6, note=41, velocity=110, time=384),
    Message('note_on', channel=6, note=48, velocity=110, time=0),
    Message('note_off', channel=6, note=41, velocity=110, time=96),
    Message('note_off', channel=6, note=48, velocity=110, time=0),
    Message('note_on', channel=6, note=47, velocity=110, time=0),
    Message('note_on', channel=6, note=40, velocity=110, time=0),
    Message('note_off', channel=6, note=47, velocity=110, time=96),
    Message('note_off', channel=6, note=40, velocity=110, time=0),
    Message('note_on', channel=6, note=40, velocity=110, time=96),
    Message('note_on', channel=6, note=47, velocity=110, time=0),
    Message('note_off', channel=6, note=40, velocity=110, time=96),
    Message('note_off', channel=6, note=47, velocity=110, time=0),
    Message('note_on', channel=6, note=41, velocity=110, time=96),
    Message('note_off', channel=6, note=41, velocity=110, time=96),
    Message('note_on', channel=6, note=43, velocity=110, time=0),
    Message('note_off', channel=6, note=43, velocity=110, time=96),
    Message('note_on', channel=6, note=41, velocity=110, time=0),
    Message('note_off', channel=6, note=41, velocity=110, time=96),
    Message('note_on', channel=6, note=48, velocity=110, time=0),
    Message('note_on', channel=6, note=41, velocity=110, time=0),
    Message('note_off', channel=6, note=48, velocity=110, time=96),
    Message('note_off', channel=6, note=41, velocity=110, time=0),
    Message('note_on', channel=6, note=47, velocity=110, time=0),
    Message('note_on', channel=6, note=40, velocity=110, time=0),
    Message('note_off', channel=6, note=47, velocity=110, time=96),
    Message('note_off', channel=6, note=40, velocity=110, time=0),
    Message('note_on', channel=6, note=47, velocity=110, time=96),
    Message('note_on', channel=6, note=40, velocity=110, time=0),
    Message('note_off', channel=6, note=47, velocity=110, time=96),
    Message('note_off', channel=6, note=40, velocity=110, time=0),
    Message('note_on', channel=6, note=48, velocity=110, time=1152),
    Message('note_on', channel=6, note=41, velocity=110, time=0),
    Message('note_off', channel=6, note=48, velocity=110, time=96),
    Message('note_off', channel=6, note=41, velocity=110, time=0),
    Message('note_on', channel=6, note=40, velocity=110, time=0),
    Message('note_on', channel=6, note=47, velocity=110, time=0),
    Message('note_off', channel=6, note=40, velocity=110, time=96),
    Message('note_off', channel=6, note=47, velocity=110, time=0),
    Message('note_on', channel=6, note=47, velocity=110, time=96),
    Message('note_on', channel=6, note=40, velocity=110, time=0),
    Message('note_off', channel=6, note=47, velocity=110, time=96),
    Message('note_off', channel=6, note=40, velocity=110, time=0),
    Message('note_on', channel=6, note=41, velocity=110, time=384),
    Message('note_on', channel=6, note=48, velocity=110, time=0),
    Message('note_off', channel=6, note=41, velocity=110, time=96),
    Message('note_off', channel=6, note=48, velocity=110, time=0),
    Message('note_on', channel=6, note=47, velocity=110, time=0),
    Message('note_on', channel=6, note=40, velocity=110, time=0),
    Message('note_off', channel=6, note=47, velocity=110, time=96),
    Message('note_off', channel=6, note=40, velocity=110, time=0),
    Message('note_on', channel=6, note=40, velocity=110, time=96),
    Message('note_on', channel=6, note=47, velocity=110, time=0),
    Message('note_off', channel=6, note=40, velocity=110, time=96),
    Message('note_off', channel=6, note=47, velocity=110, time=0),
    Message('note_on', channel=6, note=41, velocity=110, time=96),
    Message('note_off', channel=6, note=41, velocity=110, time=96),
    Message('note_on', channel=6, note=43, velocity=110, time=0),
    Message('note_off', channel=6, note=43, velocity=110, time=96),
    Message('note_on', channel=6, note=41, velocity=110, time=0),
    Message('note_off', channel=6, note=41, velocity=110, time=96),
    Message('note_on', channel=6, note=48, velocity=110, time=0),
    Message('note_on', channel=6, note=41, velocity=110, time=0),
    Message('note_off', channel=6, note=48, velocity=110, time=96),
    Message('note_off', channel=6, note=41, velocity=110, time=0),
    Message('note_on', channel=6, note=47, velocity=110, time=0),
    Message('note_on', channel=6, note=40, velocity=110, time=0),
    Message('note_off', channel=6, note=47, velocity=110, time=96),
    Message('note_off', channel=6, note=40, velocity=110, time=0),
    Message('note_on', channel=6, note=47, velocity=110, time=96),
    Message('note_on', channel=6, note=40, velocity=110, time=0),
    Message('note_off', channel=6, note=47, velocity=110, time=96),
    Message('note_off', channel=6, note=40, velocity=110, time=0),
    Message('note_on', channel=6, note=48, velocity=110, time=1152),
    Message('note_on', channel=6, note=41, velocity=110, time=0),
    Message('note_off', channel=6, note=48, velocity=110, time=96),
    Message('note_off', channel=6, note=41, velocity=110, time=0),
    Message('note_on', channel=6, note=40, velocity=110, time=0),
    Message('note_on', channel=6, note=47, velocity=110, time=0),
    Message('note_off', channel=6, note=40, velocity=110, time=96),
    Message('note_off', channel=6, note=47, velocity=110, time=0),
    Message('note_on', channel=6, note=47, velocity=110, time=96),
    Message('note_on', channel=6, note=40, velocity=110, time=0),
    Message('note_off', channel=6, note=47, velocity=110, time=96),
    Message('note_off', channel=6, note=40, velocity=110, time=0),
    Message('note_on', channel=6, note=41, velocity=110, time=384),
    Message('note_on', channel=6, note=48, velocity=110, time=0),
    Message('note_off', channel=6, note=41, velocity=110, time=96),
    Message('note_off', channel=6, note=48, velocity=110, time=0),
    Message('note_on', channel=6, note=47, velocity=110, time=0),
    Message('note_on', channel=6, note=40, velocity=110, time=0),
    Message('note_off', channel=6, note=47, velocity=110, time=96),
    Message('note_off', channel=6, note=40, velocity=110, time=0),
    Message('note_on', channel=6, note=40, velocity=110, time=96),
    Message('note_on', channel=6, note=47, velocity=110, time=0),
    Message('note_off', channel=6, note=40, velocity=110, time=96),
    Message('note_off', channel=6, note=47, velocity=110, time=0),
    Message('note_on', channel=6, note=41, velocity=110, time=96),
    Message('note_off', channel=6, note=41, velocity=110, time=96),
    Message('note_on', channel=6, note=43, velocity=110, time=0),
    Message('note_off', channel=6, note=43, velocity=110, time=96),
    Message('note_on', channel=6, note=41, velocity=110, time=0),
    Message('note_off', channel=6, note=41, velocity=110, time=96),
    Message('note_on', channel=6, note=48, velocity=110, time=0),
    Message('note_on', channel=6, note=41, velocity=110, time=0),
    Message('note_off', channel=6, note=48, velocity=110, time=96),
    Message('note_off', channel=6, note=41, velocity=110, time=0),
    Message('note_on', channel=6, note=47, velocity=110, time=0),
    Message('note_on', channel=6, note=40, velocity=110, time=0),
    Message('note_off', channel=6, note=47, velocity=110, time=96),
    Message('note_off', channel=6, note=40, velocity=110, time=0),
    Message('note_on', channel=6, note=47, velocity=110, time=96),
    Message('note_on', channel=6, note=40, velocity=110, time=0),
    Message('note_off', channel=6, note=47, velocity=110, time=96),
    Message('note_off', channel=6, note=40, velocity=110, time=0),
    Message('note_on', channel=6, note=40, velocity=110, time=864),
    Message('note_off', channel=6, note=40, velocity=110, time=96),
    Message('note_on', channel=6, note=40, velocity=110, time=0),
    Message('note_off', channel=6, note=40, velocity=110, time=96),
    Message('note_on', channel=6, note=57, velocity=120, time=0),
    Message('note_on', channel=6, note=52, velocity=120, time=0),
    Message('note_off', channel=6, note=57, velocity=120, time=96),
    Message('note_off', channel=6, note=52, velocity=120, time=0),
    Message('note_on', channel=6, note=40, velocity=110, time=0),
    Message('note_off', channel=6, note=40, velocity=110, time=96),
    Message('note_on', channel=6, note=51, velocity=120, time=0),
    Message('note_on', channel=6, note=56, velocity=120, time=0),
    Message('note_off', channel=6, note=51, velocity=120, time=96),
    Message('note_off', channel=6, note=56, velocity=120, time=0),
    Message('note_on', channel=6, note=40, velocity=110, time=0),
    Message('note_off', channel=6, note=40, velocity=110, time=96),
    Message('note_on', channel=6, note=55, velocity=120, time=0),
    Message('note_on', channel=6, note=50, velocity=120, time=0),
    Message('note_off', channel=6, note=55, velocity=120, time=96),
    Message('note_off', channel=6, note=50, velocity=120, time=0),
    Message('note_on', channel=6, note=55, velocity=110, time=96),
    Message('note_off', channel=6, note=55, velocity=110, time=48),
    Message('note_on', channel=6, note=57, velocity=110, time=0),
    Message('note_off', channel=6, note=57, velocity=110, time=48),
    Message('note_on', channel=6, note=55, velocity=110, time=0),
    Message('note_off', channel=6, note=55, velocity=110, time=96),
    Message('note_on', channel=6, note=57, velocity=120, time=0),
    Message('note_on', channel=6, note=52, velocity=120, time=0),
    Message('note_off', channel=6, note=57, velocity=120, time=96),
    Message('note_off', channel=6, note=52, velocity=120, time=0),
    Message('note_on', channel=6, note=40, velocity=110, time=0),
    Message('note_off', channel=6, note=40, velocity=110, time=96),
    Message('note_on', channel=6, note=56, velocity=110, time=0),
    Message('note_on', channel=6, note=51, velocity=110, time=0),
    Message('note_off', channel=6, note=56, velocity=110, time=96),
    Message('note_off', channel=6, note=51, velocity=110, time=0),
    Message('note_on', channel=6, note=40, velocity=110, time=0),
    Message('note_off', channel=6, note=40, velocity=110, time=96),
    Message('note_on', channel=6, note=55, velocity=110, time=0),
    Message('note_on', channel=6, note=50, velocity=110, time=0),
    Message('note_off', channel=6, note=55, velocity=110, time=96),
    Message('note_off', channel=6, note=50, velocity=110, time=0),
    Message('note_on', channel=6, note=55, velocity=110, time=96),
    Message('note_off', channel=6, note=55, velocity=110, time=48),
    Message('note_on', channel=6, note=57, velocity=110, time=0),
    Message('note_off', channel=6, note=57, velocity=110, time=48),
    Message('note_on', channel=6, note=55, velocity=110, time=0),
    Message('note_off', channel=6, note=55, velocity=110, time=96),
    Message('note_on', channel=6, note=57, velocity=120, time=0),
    Message('note_on', channel=6, note=52, velocity=120, time=0),
    Message('note_off', channel=6, note=57, velocity=120, time=96),
    Message('note_off', channel=6, note=52, velocity=120, time=0),
    Message('note_on', channel=6, note=40, velocity=110, time=0),
    Message('note_off', channel=6, note=40, velocity=110, time=96),
    Message('note_on', channel=6, note=56, velocity=110, time=0),
    Message('note_on', channel=6, note=51, velocity=110, time=0),
    Message('note_off', channel=6, note=56, velocity=110, time=96),
    Message('note_off', channel=6, note=51, velocity=110, time=0),
    Message('note_on', channel=6, note=40, velocity=110, time=0),
    Message('note_off', channel=6, note=40, velocity=110, time=96),
    Message('note_on', channel=6, note=55, velocity=110, time=0),
    Message('note_on', channel=6, note=50, velocity=110, time=0),
    Message('note_off', channel=6, note=55, velocity=110, time=96),
    Message('note_off', channel=6, note=50, velocity=110, time=0),
    Message('note_on', channel=6, note=55, velocity=110, time=96),
    Message('note_off', channel=6, note=55, velocity=110, time=48),
    Message('note_on', channel=6, note=57, velocity=110, time=0),
    Message('note_off', channel=6, note=57, velocity=110, time=48),
    Message('note_on', channel=6, note=55, velocity=110, time=0),
    Message('note_off', channel=6, note=55, velocity=110, time=96),
    Message('note_on', channel=6, note=57, velocity=120, time=0),
    Message('note_on', channel=6, note=52, velocity=120, time=0),
    Message('note_off', channel=6, note=57, velocity=120, time=96),
    Message('note_off', channel=6, note=52, velocity=120, time=0),
    Message('note_on', channel=6, note=40, velocity=110, time=0),
    Message('note_off', channel=6, note=40, velocity=110, time=96),
    Message('note_on', channel=6, note=56, velocity=110, time=0),
    Message('note_on', channel=6, note=51, velocity=110, time=0),
    Message('note_off', channel=6, note=56, velocity=110, time=96),
    Message('note_off', channel=6, note=51, velocity=110, time=0),
    Message('note_on', channel=6, note=40, velocity=110, time=0),
    Message('note_off', channel=6, note=40, velocity=110, time=96),
    Message('note_on', channel=6, note=55, velocity=110, time=0),
    Message('note_on', channel=6, note=50, velocity=110, time=0),
    Message('note_off', channel=6, note=55, velocity=110, time=96),
    Message('note_off', channel=6, note=50, velocity=110, time=0),
    Message('note_on', channel=6, note=55, velocity=110, time=96),
    Message('note_off', channel=6, note=55, velocity=110, time=48),
    Message('note_on', channel=6, note=57, velocity=110, time=0),
    Message('note_off', channel=6, note=57, velocity=110, time=48),
    Message('note_on', channel=6, note=55, velocity=110, time=0),
    Message('note_off', channel=6, note=55, velocity=110, time=96),
    Message('note_on', channel=6, note=57, velocity=120, time=0),
    Message('note_on', channel=6, note=52, velocity=120, time=0),
    Message('note_off', channel=6, note=57, velocity=120, time=96),
    Message('note_off', channel=6, note=52, velocity=120, time=0),
    Message('note_on', channel=6, note=40, velocity=110, time=0),
    Message('note_off', channel=6, note=40, velocity=110, time=96),
    Message('note_on', channel=6, note=56, velocity=110, time=0),
    Message('note_on', channel=6, note=51, velocity=110, time=0),
    Message('note_off', channel=6, note=56, velocity=110, time=96),
    Message('note_off', channel=6, note=51, velocity=110, time=0),
    Message('note_on', channel=6, note=40, velocity=110, time=0),
    Message('note_off', channel=6, note=40, velocity=110, time=96),
    Message('note_on', channel=6, note=55, velocity=110, time=0),
    Message('note_on', channel=6, note=50, velocity=110, time=0),
    Message('note_off', channel=6, note=55, velocity=110, time=96),
    Message('note_off', channel=6, note=50, velocity=110, time=0),
    Message('note_on', channel=6, note=55, velocity=110, time=96),
    Message('note_off', channel=6, note=55, velocity=110, time=48),
    Message('note_on', channel=6, note=57, velocity=110, time=0),
    Message('note_off', channel=6, note=57, velocity=110, time=48),
    Message('note_on', channel=6, note=55, velocity=110, time=0),
    Message('note_off', channel=6, note=55, velocity=110, time=96),
    Message('note_on', channel=6, note=57, velocity=120, time=0),
    Message('note_on', channel=6, note=52, velocity=120, time=0),
    Message('note_off', channel=6, note=57, velocity=120, time=96),
    Message('note_off', channel=6, note=52, velocity=120, time=0),
    Message('note_on', channel=6, note=40, velocity=110, time=0),
    Message('note_off', channel=6, note=40, velocity=110, time=96),
    Message('note_on', channel=6, note=56, velocity=110, time=0),
    Message('note_on', channel=6, note=51, velocity=110, time=0),
    Message('note_off', channel=6, note=56, velocity=110, time=96),
    Message('note_off', channel=6, note=51, velocity=110, time=0),
    Message('note_on', channel=6, note=40, velocity=110, time=0),
    Message('note_off', channel=6, note=40, velocity=110, time=96),
    Message('note_on', channel=6, note=55, velocity=110, time=0),
    Message('note_on', channel=6, note=50, velocity=110, time=0),
    Message('note_off', channel=6, note=55, velocity=110, time=96),
    Message('note_off', channel=6, note=50, velocity=110, time=0),
    Message('note_on', channel=6, note=55, velocity=110, time=96),
    Message('note_off', channel=6, note=55, velocity=110, time=48),
    Message('note_on', channel=6, note=57, velocity=110, time=0),
    Message('note_off', channel=6, note=57, velocity=110, time=48),
    Message('note_on', channel=6, note=55, velocity=110, time=0),
    Message('note_off', channel=6, note=55, velocity=110, time=96),
    Message('note_on', channel=6, note=57, velocity=120, time=0),
    Message('note_on', channel=6, note=52, velocity=120, time=0),
    Message('note_off', channel=6, note=57, velocity=120, time=96),
    Message('note_off', channel=6, note=52, velocity=120, time=0),
    Message('note_on', channel=6, note=40, velocity=110, time=0),
    Message('note_off', channel=6, note=40, velocity=110, time=96),
    Message('note_on', channel=6, note=56, velocity=120, time=0),
    Message('note_on', channel=6, note=51, velocity=120, time=0),
    Message('note_off', channel=6, note=56, velocity=120, time=96),
    Message('note_off', channel=6, note=51, velocity=120, time=0),
    Message('note_on', channel=6, note=40, velocity=110, time=0),
    Message('note_off', channel=6, note=40, velocity=110, time=96),
    Message('note_on', channel=6, note=55, velocity=120, time=0),
    Message('note_on', channel=6, note=50, velocity=120, time=0),
    Message('note_off', channel=6, note=55, velocity=120, time=84),
    Message('note_off', channel=6, note=50, velocity=120, time=0),
    Message('note_on', channel=6, note=50, velocity=110, time=12),
    Message('note_on', channel=6, note=55, velocity=110, time=0),
    Message('note_off', channel=6, note=50, velocity=110, time=1),
    Message('note_off', channel=6, note=55, velocity=110, time=0),
    Message('note_on', channel=6, note=49, velocity=110, time=11),
    Message('note_on', channel=6, note=54, velocity=110, time=0),
    Message('note_off', channel=6, note=49, velocity=110, time=1),
    Message('note_off', channel=6, note=54, velocity=110, time=0),
    Message('note_on', channel=6, note=48, velocity=110, time=11),
    Message('note_on', channel=6, note=53, velocity=110, time=0),
    Message('note_off', channel=6, note=48, velocity=110, time=1),
    Message('note_off', channel=6, note=53, velocity=110, time=0),
    Message('note_on', channel=6, note=47, velocity=110, time=11),
    Message('note_on', channel=6, note=52, velocity=110, time=0),
    Message('note_off', channel=6, note=47, velocity=110, time=1),
    Message('note_off', channel=6, note=52, velocity=110, time=0),
    Message('note_on', channel=6, note=52, velocity=110, time=11),
    Message('note_on', channel=6, note=47, velocity=110, time=0),
    Message('note_off', channel=6, note=52, velocity=110, time=1),
    Message('note_off', channel=6, note=47, velocity=110, time=0),
    Message('note_on', channel=6, note=47, velocity=110, time=11),
    Message('note_on', channel=6, note=52, velocity=110, time=0),
    Message('note_off', channel=6, note=47, velocity=110, time=1),
    Message('note_off', channel=6, note=52, velocity=110, time=0),
    Message('note_on', channel=6, note=47, velocity=110, time=11),
    Message('note_on', channel=6, note=52, velocity=110, time=0),
    Message('note_off', channel=6, note=47, velocity=110, time=1),
    Message('note_off', channel=6, note=52, velocity=110, time=0),
    Message('note_on', channel=6, note=51, velocity=110, time=11),
    Message('note_on', channel=6, note=46, velocity=110, time=0),
    Message('note_off', channel=6, note=51, velocity=110, time=1),
    Message('note_off', channel=6, note=46, velocity=110, time=0),
    Message('note_on', channel=6, note=50, velocity=110, time=11),
    Message('note_on', channel=6, note=45, velocity=110, time=0),
    Message('note_on', channel=6, note=40, velocity=110, time=0),
    Message('note_off', channel=6, note=50, velocity=110, time=1),
    Message('note_off', channel=6, note=45, velocity=110, time=0),
    Message('note_off', channel=6, note=40, velocity=110, time=95),
    Message('note_on', channel=6, note=40, velocity=110, time=0),
    Message('note_off', channel=6, note=40, velocity=110, time=96),
    Message('note_on', channel=6, note=50, velocity=120, time=0),
    Message('note_off', channel=6, note=50, velocity=120, time=192),
    Message('note_on', channel=6, note=47, velocity=110, time=0),
    Message('note_off', channel=6, note=47, velocity=110, time=96),
    Message('note_on', channel=6, note=46, velocity=110, time=0),
    Message('note_off', channel=6, note=46, velocity=110, time=96),
    Message('note_on', channel=6, note=45, velocity=110, time=0),
    Message('note_off', channel=6, note=45, velocity=110, time=96),
    Message('note_on', channel=6, note=43, velocity=110, time=0),
    Message('note_off', channel=6, note=43, velocity=110, time=96),
    Message('note_on', channel=6, note=42, velocity=110, time=0),
    Message('note_off', channel=6, note=42, velocity=110, time=96),
    Message('note_on', channel=6, note=41, velocity=110, time=0),
    Message('note_off', channel=6, note=41, velocity=110, time=96),
    Message('note_on', channel=6, note=40, velocity=120, time=0),
    Message('note_off', channel=6, note=40, velocity=120, time=288),
    Message('note_on', channel=6, note=59, velocity=110, time=0),
    Message('note_on', channel=6, note=52, velocity=110, time=0),
    Message('note_off', channel=6, note=59, velocity=110, time=288),
    Message('note_off', channel=6, note=52, velocity=110, time=0),
    Message('note_on', channel=6, note=58, velocity=110, time=0),
    Message('note_on', channel=6, note=51, velocity=110, time=0),
    Message('note_off', channel=6, note=58, velocity=110, time=192),
    Message('note_off', channel=6, note=51, velocity=110, time=0),
    Message('note_on', channel=6, note=40, velocity=110, time=0),
    Message('note_off', channel=6, note=40, velocity=110, time=96),
    Message('note_on', channel=6, note=57, velocity=110, time=0),
    Message('note_on', channel=6, note=52, velocity=110, time=0),
    Message('note_off', channel=6, note=57, velocity=110, time=96),
    Message('note_off', channel=6, note=52, velocity=110, time=0),
    Message('note_on', channel=6, note=50, velocity=110, time=0),
    Message('note_off', channel=6, note=50, velocity=110, time=192),
    Message('note_on', channel=6, note=56, velocity=110, time=0),
    Message('note_off', channel=6, note=56, velocity=110, time=192),
    Message('note_on', channel=6, note=52, velocity=110, time=0),
    Message('note_off', channel=6, note=52, velocity=110, time=96),
    Message('note_on', channel=6, note=47, velocity=110, time=0),
    Message('note_off', channel=6, note=47, velocity=110, time=96),
    Message('note_on', channel=6, note=47, velocity=110, time=12),
    Message('note_off', channel=6, note=47, velocity=110, time=1),
    Message('note_on', channel=6, note=46, velocity=110, time=11),
    Message('note_off', channel=6, note=46, velocity=110, time=1),
    Message('note_on', channel=6, note=45, velocity=110, time=11),
    Message('note_off', channel=6, note=45, velocity=110, time=1),
    Message('note_on', channel=6, note=44, velocity=110, time=11),
    Message('note_off', channel=6, note=44, velocity=110, time=1),
    Message('note_on', channel=6, note=43, velocity=110, time=11),
    Message('note_off', channel=6, note=43, velocity=110, time=1),
    Message('note_on', channel=6, note=42, velocity=110, time=11),
    Message('note_off', channel=6, note=42, velocity=110, time=1),
    Message('note_on', channel=6, note=41, velocity=110, time=11),
    Message('note_off', channel=6, note=41, velocity=110, time=1),
    Message('note_on', channel=6, note=40, velocity=120, time=11),
    Message('note_off', channel=6, note=40, velocity=120, time=192),
    Message('note_on', channel=6, note=55, velocity=110, time=0),
    Message('note_on', channel=6, note=48, velocity=110, time=0),
    Message('note_off', channel=6, note=55, velocity=110, time=288),
    Message('note_off', channel=6, note=48, velocity=110, time=0),
    Message('note_on', channel=6, note=54, velocity=110, time=0),
    Message('note_off', channel=6, note=54, velocity=110, time=192),
    Message('note_on', channel=6, note=40, velocity=110, time=0),
    Message('note_off', channel=6, note=40, velocity=110, time=96),
    Message('note_on', channel=6, note=57, velocity=120, time=0),
    Message('note_on', channel=6, note=50, velocity=120, time=0),
    Message('note_off', channel=6, note=57, velocity=120, time=288),
    Message('note_off', channel=6, note=50, velocity=120, time=0),
    Message('note_on', channel=6, note=55, velocity=110, time=0),
    Message('note_off', channel=6, note=55, velocity=110, time=96),
    Message('note_on', channel=6, note=54, velocity=110, time=0),
    Message('note_off', channel=6, note=54, velocity=110, time=96),
    Message('note_on', channel=6, note=50, velocity=110, time=0),
    Message('note_off', channel=6, note=50, velocity=110, time=96),
    Message('note_on', channel=6, note=47, velocity=110, time=0),
    Message('note_off', channel=6, note=47, velocity=110, time=192),
    Message('note_on', channel=6, note=40, velocity=120, time=0),
    Message('note_off', channel=6, note=40, velocity=120, time=192),
    Message('note_on', channel=6, note=59, velocity=110, time=0),
    Message('note_on', channel=6, note=50, velocity=110, time=0),
    Message('note_off', channel=6, note=59, velocity=110, time=288),
    Message('note_off', channel=6, note=50, velocity=110, time=0),
    Message('note_on', channel=6, note=58, velocity=110, time=0),
    Message('note_on', channel=6, note=49, velocity=110, time=0),
    Message('note_off', channel=6, note=58, velocity=110, time=192),
    Message('note_off', channel=6, note=49, velocity=110, time=0),
    Message('note_on', channel=6, note=40, velocity=110, time=0),
    Message('note_off', channel=6, note=40, velocity=110, time=96),
    Message('note_on', channel=6, note=57, velocity=110, time=0),
    Message('note_on', channel=6, note=52, velocity=110, time=0),
    Message('note_off', channel=6, note=57, velocity=110, time=288),
    Message('note_off', channel=6, note=52, velocity=110, time=0),
    Message('note_on', channel=6, note=56, velocity=110, time=0),
    Message('note_off', channel=6, note=56, velocity=110, time=192),
    Message('note_on', channel=6, note=52, velocity=110, time=0),
    Message('note_off', channel=6, note=52, velocity=110, time=96),
    Message('note_on', channel=6, note=47, velocity=110, time=0),
    Message('note_off', channel=6, note=47, velocity=110, time=96),
    Message('note_on', channel=6, note=47, velocity=110, time=12),
    Message('note_off', channel=6, note=47, velocity=110, time=1),
    Message('note_on', channel=6, note=46, velocity=110, time=11),
    Message('note_off', channel=6, note=46, velocity=110, time=1),
    Message('note_on', channel=6, note=45, velocity=110, time=11),
    Message('note_off', channel=6, note=45, velocity=110, time=1),
    Message('note_on', channel=6, note=44, velocity=110, time=11),
    Message('note_off', channel=6, note=44, velocity=110, time=1),
    Message('note_on', channel=6, note=43, velocity=110, time=11),
    Message('note_off', channel=6, note=43, velocity=110, time=1),
    Message('note_on', channel=6, note=42, velocity=110, time=11),
    Message('note_off', channel=6, note=42, velocity=110, time=1),
    Message('note_on', channel=6, note=41, velocity=110, time=11),
    Message('note_off', channel=6, note=41, velocity=110, time=1),
    Message('note_on', channel=6, note=40, velocity=120, time=11),
    Message('note_off', channel=6, note=40, velocity=120, time=192),
    Message('note_on', channel=6, note=55, velocity=110, time=0),
    Message('note_on', channel=6, note=48, velocity=110, time=0),
    Message('note_off', channel=6, note=55, velocity=110, time=288),
    Message('note_off', channel=6, note=48, velocity=110, time=0),
    Message('note_on', channel=6, note=54, velocity=110, time=0),
    Message('note_off', channel=6, note=54, velocity=110, time=192),
    Message('note_on', channel=6, note=40, velocity=110, time=0),
    Message('note_off', channel=6, note=40, velocity=110, time=96),
    Message('note_on', channel=6, note=57, velocity=110, time=0),
    Message('note_on', channel=6, note=50, velocity=110, time=0),
    Message('note_off', channel=6, note=57, velocity=110, time=96),
    Message('note_off', channel=6, note=50, velocity=110, time=0),
    Message('note_on', channel=6, note=50, velocity=110, time=0),
    Message('note_on', channel=6, note=57, velocity=110, time=0),
    Message('note_off', channel=6, note=50, velocity=110, time=96),
    Message('note_off', channel=6, note=57, velocity=110, time=0),
    Message('note_on', channel=6, note=50, velocity=110, time=0),
    Message('note_on', channel=6, note=57, velocity=110, time=0),
    Message('note_off', channel=6, note=50, velocity=110, time=96),
    Message('note_off', channel=6, note=57, velocity=110, time=0),
    Message('note_on', channel=6, note=50, velocity=110, time=0),
    Message('note_on', channel=6, note=57, velocity=110, time=0),
    Message('note_off', channel=6, note=50, velocity=110, time=96),
    Message('note_off', channel=6, note=57, velocity=110, time=0),
    Message('note_on', channel=6, note=57, velocity=120, time=0),
    Message('note_on', channel=6, note=50, velocity=120, time=0),
    Message('note_off', channel=6, note=57, velocity=120, time=288),
    Message('note_off', channel=6, note=50, velocity=120, time=0),
    Message('note_on', channel=6, note=57, velocity=110, time=0),
    Message('note_off', channel=6, note=57, velocity=110, time=1),
    Message('note_on', channel=6, note=50, velocity=110, time=11),
    Message('note_on', channel=6, note=56, velocity=110, time=0),
    Message('note_off', channel=6, note=50, velocity=110, time=1),
    Message('note_off', channel=6, note=56, velocity=110, time=0),
    Message('note_on', channel=6, note=49, velocity=110, time=11),
    Message('note_on', channel=6, note=55, velocity=110, time=0),
    Message('note_off', channel=6, note=49, velocity=110, time=1),
    Message('note_off', channel=6, note=55, velocity=110, time=0),
    Message('note_on', channel=6, note=48, velocity=110, time=11),
    Message('note_on', channel=6, note=54, velocity=110, time=0),
    Message('note_off', channel=6, note=48, velocity=110, time=1),
    Message('note_off', channel=6, note=54, velocity=110, time=0),
    Message('note_on', channel=6, note=47, velocity=110, time=11),
    Message('note_on', channel=6, note=53, velocity=110, time=0),
    Message('note_off', channel=6, note=47, velocity=110, time=1),
    Message('note_off', channel=6, note=53, velocity=110, time=0),
    Message('note_on', channel=6, note=46, velocity=110, time=11),
    Message('note_on', channel=6, note=52, velocity=110, time=0),
    Message('note_off', channel=6, note=46, velocity=110, time=1),
    Message('note_off', channel=6, note=52, velocity=110, time=0),
    Message('note_on', channel=6, note=45, velocity=110, time=11),
    Message('note_on', channel=6, note=51, velocity=110, time=0),
    Message('note_off', channel=6, note=45, velocity=110, time=1),
    Message('note_off', channel=6, note=51, velocity=110, time=0),
    Message('note_on', channel=6, note=44, velocity=110, time=11),
    Message('note_on', channel=6, note=50, velocity=110, time=0),
    Message('note_off', channel=6, note=44, velocity=110, time=1),
    Message('note_off', channel=6, note=50, velocity=110, time=0),
    Message('note_on', channel=6, note=48, velocity=110, time=11),
    Message('note_on', channel=6, note=41, velocity=110, time=0),
    Message('note_off', channel=6, note=48, velocity=110, time=96),
    Message('note_off', channel=6, note=41, velocity=110, time=0),
    Message('note_on', channel=6, note=40, velocity=110, time=0),
    Message('note_on', channel=6, note=47, velocity=110, time=0),
    Message('note_off', channel=6, note=40, velocity=110, time=96),
    Message('note_off', channel=6, note=47, velocity=110, time=0),
    Message('note_on', channel=6, note=47, velocity=110, time=96),
    Message('note_on', channel=6, note=40, velocity=110, time=0),
    Message('note_off', channel=6, note=47, velocity=110, time=96),
    Message('note_off', channel=6, note=40, velocity=110, time=0),
    Message('note_on', channel=6, note=41, velocity=110, time=384),
    Message('note_on', channel=6, note=48, velocity=110, time=0),
    Message('note_off', channel=6, note=41, velocity=110, time=96),
    Message('note_off', channel=6, note=48, velocity=110, time=0),
    Message('note_on', channel=6, note=47, velocity=110, time=0),
    Message('note_on', channel=6, note=40, velocity=110, time=0),
    Message('note_off', channel=6, note=47, velocity=110, time=96),
    Message('note_off', channel=6, note=40, velocity=110, time=0),
    Message('note_on', channel=6, note=40, velocity=110, time=96),
    Message('note_on', channel=6, note=47, velocity=110, time=0),
    Message('note_off', channel=6, note=40, velocity=110, time=96),
    Message('note_off', channel=6, note=47, velocity=110, time=0),
    Message('note_on', channel=6, note=41, velocity=110, time=96),
    Message('note_off', channel=6, note=41, velocity=110, time=96),
    Message('note_on', channel=6, note=43, velocity=110, time=0),
    Message('note_off', channel=6, note=43, velocity=110, time=96),
    Message('note_on', channel=6, note=41, velocity=110, time=0),
    Message('note_off', channel=6, note=41, velocity=110, time=96),
    Message('note_on', channel=6, note=48, velocity=110, time=0),
    Message('note_on', channel=6, note=41, velocity=110, time=0),
    Message('note_off', channel=6, note=48, velocity=110, time=96),
    Message('note_off', channel=6, note=41, velocity=110, time=0),
    Message('note_on', channel=6, note=47, velocity=110, time=0),
    Message('note_on', channel=6, note=40, velocity=110, time=0),
    Message('note_off', channel=6, note=47, velocity=110, time=96),
    Message('note_off', channel=6, note=40, velocity=110, time=0),
    Message('note_on', channel=6, note=47, velocity=110, time=96),
    Message('note_on', channel=6, note=40, velocity=110, time=0),
    Message('note_off', channel=6, note=47, velocity=110, time=96),
    Message('note_off', channel=6, note=40, velocity=110, time=0),
    Message('note_on', channel=6, note=48, velocity=110, time=1152),
    Message('note_on', channel=6, note=41, velocity=110, time=0),
    Message('note_off', channel=6, note=48, velocity=110, time=96),
    Message('note_off', channel=6, note=41, velocity=110, time=0),
    Message('note_on', channel=6, note=40, velocity=110, time=0),
    Message('note_on', channel=6, note=47, velocity=110, time=0),
    Message('note_off', channel=6, note=40, velocity=110, time=96),
    Message('note_off', channel=6, note=47, velocity=110, time=0),
    Message('note_on', channel=6, note=47, velocity=110, time=96),
    Message('note_on', channel=6, note=40, velocity=110, time=0),
    Message('note_off', channel=6, note=47, velocity=110, time=96),
    Message('note_off', channel=6, note=40, velocity=110, time=0),
    Message('note_on', channel=6, note=41, velocity=110, time=384),
    Message('note_on', channel=6, note=48, velocity=110, time=0),
    Message('note_off', channel=6, note=41, velocity=110, time=96),
    Message('note_off', channel=6, note=48, velocity=110, time=0),
    Message('note_on', channel=6, note=47, velocity=110, time=0),
    Message('note_on', channel=6, note=40, velocity=110, time=0),
    Message('note_off', channel=6, note=47, velocity=110, time=96),
    Message('note_off', channel=6, note=40, velocity=110, time=0),
    Message('note_on', channel=6, note=40, velocity=110, time=96),
    Message('note_on', channel=6, note=47, velocity=110, time=0),
    Message('note_off', channel=6, note=40, velocity=110, time=96),
    Message('note_off', channel=6, note=47, velocity=110, time=0),
    Message('note_on', channel=6, note=41, velocity=110, time=96),
    Message('note_off', channel=6, note=41, velocity=110, time=96),
    Message('note_on', channel=6, note=43, velocity=110, time=0),
    Message('note_off', channel=6, note=43, velocity=110, time=96),
    Message('note_on', channel=6, note=41, velocity=110, time=0),
    Message('note_off', channel=6, note=41, velocity=110, time=96),
    Message('note_on', channel=6, note=48, velocity=110, time=0),
    Message('note_on', channel=6, note=41, velocity=110, time=0),
    Message('note_off', channel=6, note=48, velocity=110, time=96),
    Message('note_off', channel=6, note=41, velocity=110, time=0),
    Message('note_on', channel=6, note=47, velocity=110, time=0),
    Message('note_on', channel=6, note=40, velocity=110, time=0),
    Message('note_off', channel=6, note=47, velocity=110, time=96),
    Message('note_off', channel=6, note=40, velocity=110, time=0),
    Message('note_on', channel=6, note=47, velocity=110, time=96),
    Message('note_on', channel=6, note=40, velocity=110, time=0),
    Message('note_off', channel=6, note=47, velocity=110, time=96),
    Message('note_off', channel=6, note=40, velocity=110, time=0),
    Message('note_on', channel=6, note=48, velocity=110, time=1152),
    Message('note_on', channel=6, note=41, velocity=110, time=0),
    Message('note_off', channel=6, note=48, velocity=110, time=96),
    Message('note_off', channel=6, note=41, velocity=110, time=0),
    Message('note_on', channel=6, note=40, velocity=110, time=0),
    Message('note_on', channel=6, note=47, velocity=110, time=0),
    Message('note_off', channel=6, note=40, velocity=110, time=96),
    Message('note_off', channel=6, note=47, velocity=110, time=0),
    Message('note_on', channel=6, note=47, velocity=110, time=96),
    Message('note_on', channel=6, note=40, velocity=110, time=0),
    Message('note_off', channel=6, note=47, velocity=110, time=96),
    Message('note_off', channel=6, note=40, velocity=110, time=0),
    Message('note_on', channel=6, note=41, velocity=110, time=384),
    Message('note_on', channel=6, note=48, velocity=110, time=0),
    Message('note_off', channel=6, note=41, velocity=110, time=96),
    Message('note_off', channel=6, note=48, velocity=110, time=0),
    Message('note_on', channel=6, note=47, velocity=110, time=0),
    Message('note_on', channel=6, note=40, velocity=110, time=0),
    Message('note_off', channel=6, note=47, velocity=110, time=96),
    Message('note_off', channel=6, note=40, velocity=110, time=0),
    Message('note_on', channel=6, note=40, velocity=110, time=96),
    Message('note_on', channel=6, note=47, velocity=110, time=0),
    Message('note_off', channel=6, note=40, velocity=110, time=96),
    Message('note_off', channel=6, note=47, velocity=110, time=0),
    Message('note_on', channel=6, note=41, velocity=110, time=96),
    Message('note_off', channel=6, note=41, velocity=110, time=96),
    Message('note_on', channel=6, note=43, velocity=110, time=0),
    Message('note_off', channel=6, note=43, velocity=110, time=96),
    Message('note_on', channel=6, note=41, velocity=110, time=0),
    Message('note_off', channel=6, note=41, velocity=110, time=96),
    Message('note_on', channel=6, note=48, velocity=110, time=0),
    Message('note_on', channel=6, note=41, velocity=110, time=0),
    Message('note_off', channel=6, note=48, velocity=110, time=96),
    Message('note_off', channel=6, note=41, velocity=110, time=0),
    Message('note_on', channel=6, note=47, velocity=110, time=0),
    Message('note_on', channel=6, note=40, velocity=110, time=0),
    Message('note_off', channel=6, note=47, velocity=110, time=96),
    Message('note_off', channel=6, note=40, velocity=110, time=0),
    Message('note_on', channel=6, note=47, velocity=110, time=96),
    Message('note_on', channel=6, note=40, velocity=110, time=0),
    Message('note_off', channel=6, note=47, velocity=110, time=96),
    Message('note_off', channel=6, note=40, velocity=110, time=0),
    Message('note_on', channel=6, note=48, velocity=110, time=1152),
    Message('note_on', channel=6, note=41, velocity=110, time=0),
    Message('note_off', channel=6, note=48, velocity=110, time=96),
    Message('note_off', channel=6, note=41, velocity=110, time=0),
    Message('note_on', channel=6, note=40, velocity=110, time=0),
    Message('note_on', channel=6, note=47, velocity=110, time=0),
    Message('note_off', channel=6, note=40, velocity=110, time=96),
    Message('note_off', channel=6, note=47, velocity=110, time=0),
    Message('note_on', channel=6, note=47, velocity=110, time=96),
    Message('note_on', channel=6, note=40, velocity=110, time=0),
    Message('note_off', channel=6, note=47, velocity=110, time=96),
    Message('note_off', channel=6, note=40, velocity=110, time=0),
    Message('note_on', channel=6, note=41, velocity=110, time=384),
    Message('note_on', channel=6, note=48, velocity=110, time=0),
    Message('note_off', channel=6, note=41, velocity=110, time=96),
    Message('note_off', channel=6, note=48, velocity=110, time=0),
    Message('note_on', channel=6, note=47, velocity=110, time=0),
    Message('note_on', channel=6, note=40, velocity=110, time=0),
    Message('note_off', channel=6, note=47, velocity=110, time=96),
    Message('note_off', channel=6, note=40, velocity=110, time=0),
    Message('note_on', channel=6, note=40, velocity=110, time=96),
    Message('note_on', channel=6, note=47, velocity=110, time=0),
    Message('note_off', channel=6, note=40, velocity=110, time=96),
    Message('note_off', channel=6, note=47, velocity=110, time=0),
    Message('note_on', channel=6, note=41, velocity=110, time=96),
    Message('note_off', channel=6, note=41, velocity=110, time=96),
    Message('note_on', channel=6, note=43, velocity=110, time=0),
    Message('note_off', channel=6, note=43, velocity=110, time=96),
    Message('note_on', channel=6, note=41, velocity=110, time=0),
    Message('note_off', channel=6, note=41, velocity=110, time=96),
    Message('note_on', channel=6, note=48, velocity=110, time=0),
    Message('note_on', channel=6, note=41, velocity=110, time=0),
    Message('note_off', channel=6, note=48, velocity=110, time=96),
    Message('note_off', channel=6, note=41, velocity=110, time=0),
    Message('note_on', channel=6, note=47, velocity=110, time=0),
    Message('note_on', channel=6, note=40, velocity=110, time=0),
    Message('note_off', channel=6, note=47, velocity=110, time=96),
    Message('note_off', channel=6, note=40, velocity=110, time=0),
    Message('note_on', channel=6, note=47, velocity=110, time=96),
    Message('note_on', channel=6, note=40, velocity=110, time=0),
    Message('note_off', channel=6, note=47, velocity=110, time=96),
    Message('note_off', channel=6, note=40, velocity=110, time=0),
    Message('note_on', channel=6, note=40, velocity=110, time=864),
    Message('note_off', channel=6, note=40, velocity=110, time=96),
    Message('note_on', channel=6, note=40, velocity=110, time=0),
    Message('note_off', channel=6, note=40, velocity=110, time=96),
    Message('note_on', channel=6, note=57, velocity=120, time=0),
    Message('note_on', channel=6, note=52, velocity=120, time=0),
    Message('note_off', channel=6, note=57, velocity=120, time=96),
    Message('note_off', channel=6, note=52, velocity=120, time=0),
    Message('note_on', channel=6, note=40, velocity=110, time=0),
    Message('note_off', channel=6, note=40, velocity=110, time=96),
    Message('note_on', channel=6, note=51, velocity=120, time=0),
    Message('note_on', channel=6, note=56, velocity=120, time=0),
    Message('note_off', channel=6, note=51, velocity=120, time=96),
    Message('note_off', channel=6, note=56, velocity=120, time=0),
    Message('note_on', channel=6, note=40, velocity=110, time=0),
    Message('note_off', channel=6, note=40, velocity=110, time=96),
    Message('note_on', channel=6, note=55, velocity=120, time=0),
    Message('note_on', channel=6, note=50, velocity=120, time=0),
    Message('note_off', channel=6, note=55, velocity=120, time=96),
    Message('note_off', channel=6, note=50, velocity=120, time=0),
    Message('note_on', channel=6, note=55, velocity=110, time=96),
    Message('note_off', channel=6, note=55, velocity=110, time=48),
    Message('note_on', channel=6, note=57, velocity=110, time=0),
    Message('note_off', channel=6, note=57, velocity=110, time=48),
    Message('note_on', channel=6, note=55, velocity=110, time=0),
    Message('note_off', channel=6, note=55, velocity=110, time=96),
    Message('note_on', channel=6, note=57, velocity=120, time=0),
    Message('note_on', channel=6, note=52, velocity=120, time=0),
    Message('note_off', channel=6, note=57, velocity=120, time=96),
    Message('note_off', channel=6, note=52, velocity=120, time=0),
    Message('note_on', channel=6, note=40, velocity=110, time=0),
    Message('note_off', channel=6, note=40, velocity=110, time=96),
    Message('note_on', channel=6, note=56, velocity=110, time=0),
    Message('note_on', channel=6, note=51, velocity=110, time=0),
    Message('note_off', channel=6, note=56, velocity=110, time=96),
    Message('note_off', channel=6, note=51, velocity=110, time=0),
    Message('note_on', channel=6, note=40, velocity=110, time=0),
    Message('note_off', channel=6, note=40, velocity=110, time=96),
    Message('note_on', channel=6, note=55, velocity=110, time=0),
    Message('note_on', channel=6, note=50, velocity=110, time=0),
    Message('note_off', channel=6, note=55, velocity=110, time=96),
    Message('note_off', channel=6, note=50, velocity=110, time=0),
    Message('note_on', channel=6, note=55, velocity=110, time=96),
    Message('note_off', channel=6, note=55, velocity=110, time=48),
    Message('note_on', channel=6, note=57, velocity=110, time=0),
    Message('note_off', channel=6, note=57, velocity=110, time=48),
    Message('note_on', channel=6, note=55, velocity=110, time=0),
    Message('note_off', channel=6, note=55, velocity=110, time=96),
    Message('note_on', channel=6, note=57, velocity=120, time=0),
    Message('note_on', channel=6, note=52, velocity=120, time=0),
    Message('note_off', channel=6, note=57, velocity=120, time=96),
    Message('note_off', channel=6, note=52, velocity=120, time=0),
    Message('note_on', channel=6, note=40, velocity=110, time=0),
    Message('note_off', channel=6, note=40, velocity=110, time=96),
    Message('note_on', channel=6, note=56, velocity=110, time=0),
    Message('note_on', channel=6, note=51, velocity=110, time=0),
    Message('note_off', channel=6, note=56, velocity=110, time=96),
    Message('note_off', channel=6, note=51, velocity=110, time=0),
    Message('note_on', channel=6, note=40, velocity=110, time=0),
    Message('note_off', channel=6, note=40, velocity=110, time=96),
    Message('note_on', channel=6, note=55, velocity=110, time=0),
    Message('note_on', channel=6, note=50, velocity=110, time=0),
    Message('note_off', channel=6, note=55, velocity=110, time=96),
    Message('note_off', channel=6, note=50, velocity=110, time=0),
    Message('note_on', channel=6, note=55, velocity=110, time=96),
    Message('note_off', channel=6, note=55, velocity=110, time=48),
    Message('note_on', channel=6, note=57, velocity=110, time=0),
    Message('note_off', channel=6, note=57, velocity=110, time=48),
    Message('note_on', channel=6, note=55, velocity=110, time=0),
    Message('note_off', channel=6, note=55, velocity=110, time=96),
    Message('note_on', channel=6, note=57, velocity=120, time=0),
    Message('note_on', channel=6, note=52, velocity=120, time=0),
    Message('note_off', channel=6, note=57, velocity=120, time=96),
    Message('note_off', channel=6, note=52, velocity=120, time=0),
    Message('note_on', channel=6, note=40, velocity=110, time=0),
    Message('note_off', channel=6, note=40, velocity=110, time=96),
    Message('note_on', channel=6, note=56, velocity=110, time=0),
    Message('note_on', channel=6, note=51, velocity=110, time=0),
    Message('note_off', channel=6, note=56, velocity=110, time=96),
    Message('note_off', channel=6, note=51, velocity=110, time=0),
    Message('note_on', channel=6, note=40, velocity=110, time=0),
    Message('note_off', channel=6, note=40, velocity=110, time=96),
    Message('note_on', channel=6, note=55, velocity=110, time=0),
    Message('note_on', channel=6, note=50, velocity=110, time=0),
    Message('note_off', channel=6, note=55, velocity=110, time=96),
    Message('note_off', channel=6, note=50, velocity=110, time=0),
    Message('note_on', channel=6, note=55, velocity=110, time=96),
    Message('note_off', channel=6, note=55, velocity=110, time=48),
    Message('note_on', channel=6, note=57, velocity=110, time=0),
    Message('note_off', channel=6, note=57, velocity=110, time=48),
    Message('note_on', channel=6, note=55, velocity=110, time=0),
    Message('note_off', channel=6, note=55, velocity=110, time=96),
    Message('note_on', channel=6, note=57, velocity=120, time=0),
    Message('note_on', channel=6, note=52, velocity=120, time=0),
    Message('note_off', channel=6, note=57, velocity=120, time=96),
    Message('note_off', channel=6, note=52, velocity=120, time=0),
    Message('note_on', channel=6, note=40, velocity=110, time=0),
    Message('note_off', channel=6, note=40, velocity=110, time=96),
    Message('note_on', channel=6, note=56, velocity=110, time=0),
    Message('note_on', channel=6, note=51, velocity=110, time=0),
    Message('note_off', channel=6, note=56, velocity=110, time=96),
    Message('note_off', channel=6, note=51, velocity=110, time=0),
    Message('note_on', channel=6, note=40, velocity=110, time=0),
    Message('note_off', channel=6, note=40, velocity=110, time=96),
    Message('note_on', channel=6, note=55, velocity=110, time=0),
    Message('note_on', channel=6, note=50, velocity=110, time=0),
    Message('note_off', channel=6, note=55, velocity=110, time=96),
    Message('note_off', channel=6, note=50, velocity=110, time=0),
    Message('note_on', channel=6, note=55, velocity=110, time=96),
    Message('note_off', channel=6, note=55, velocity=110, time=48),
    Message('note_on', channel=6, note=57, velocity=110, time=0),
    Message('note_off', channel=6, note=57, velocity=110, time=48),
    Message('note_on', channel=6, note=55, velocity=110, time=0),
    Message('note_off', channel=6, note=55, velocity=110, time=96),
    Message('note_on', channel=6, note=57, velocity=120, time=0),
    Message('note_on', channel=6, note=52, velocity=120, time=0),
    Message('note_off', channel=6, note=57, velocity=120, time=96),
    Message('note_off', channel=6, note=52, velocity=120, time=0),
    Message('note_on', channel=6, note=40, velocity=110, time=0),
    Message('note_off', channel=6, note=40, velocity=110, time=96),
    Message('note_on', channel=6, note=56, velocity=110, time=0),
    Message('note_on', channel=6, note=51, velocity=110, time=0),
    Message('note_off', channel=6, note=56, velocity=110, time=96),
    Message('note_off', channel=6, note=51, velocity=110, time=0),
    Message('note_on', channel=6, note=40, velocity=110, time=0),
    Message('note_off', channel=6, note=40, velocity=110, time=96),
    Message('note_on', channel=6, note=55, velocity=110, time=0),
    Message('note_on', channel=6, note=50, velocity=110, time=0),
    Message('note_off', channel=6, note=55, velocity=110, time=96),
    Message('note_off', channel=6, note=50, velocity=110, time=0),
    Message('note_on', channel=6, note=55, velocity=110, time=96),
    Message('note_off', channel=6, note=55, velocity=110, time=48),
    Message('note_on', channel=6, note=57, velocity=110, time=0),
    Message('note_off', channel=6, note=57, velocity=110, time=48),
    Message('note_on', channel=6, note=55, velocity=110, time=0),
    Message('note_off', channel=6, note=55, velocity=110, time=96),
    Message('note_on', channel=6, note=57, velocity=120, time=0),
    Message('note_on', channel=6, note=52, velocity=120, time=0),
    Message('note_off', channel=6, note=57, velocity=120, time=96),
    Message('note_off', channel=6, note=52, velocity=120, time=0),
    Message('note_on', channel=6, note=40, velocity=110, time=0),
    Message('note_off', channel=6, note=40, velocity=110, time=96),
    Message('note_on', channel=6, note=56, velocity=120, time=0),
    Message('note_on', channel=6, note=51, velocity=120, time=0),
    Message('note_off', channel=6, note=56, velocity=120, time=96),
    Message('note_off', channel=6, note=51, velocity=120, time=0),
    Message('note_on', channel=6, note=40, velocity=110, time=0),
    Message('note_off', channel=6, note=40, velocity=110, time=96),
    Message('note_on', channel=6, note=55, velocity=120, time=0),
    Message('note_on', channel=6, note=50, velocity=120, time=0),
    Message('note_off', channel=6, note=55, velocity=120, time=84),
    Message('note_off', channel=6, note=50, velocity=120, time=0),
    Message('note_on', channel=6, note=50, velocity=110, time=12),
    Message('note_on', channel=6, note=55, velocity=110, time=0),
    Message('note_off', channel=6, note=50, velocity=110, time=1),
    Message('note_off', channel=6, note=55, velocity=110, time=0),
    Message('note_on', channel=6, note=49, velocity=110, time=11),
    Message('note_on', channel=6, note=54, velocity=110, time=0),
    Message('note_off', channel=6, note=49, velocity=110, time=1),
    Message('note_off', channel=6, note=54, velocity=110, time=0),
    Message('note_on', channel=6, note=48, velocity=110, time=11),
    Message('note_on', channel=6, note=53, velocity=110, time=0),
    Message('note_off', channel=6, note=48, velocity=110, time=1),
    Message('note_off', channel=6, note=53, velocity=110, time=0),
    Message('note_on', channel=6, note=47, velocity=110, time=11),
    Message('note_on', channel=6, note=52, velocity=110, time=0),
    Message('note_off', channel=6, note=47, velocity=110, time=1),
    Message('note_off', channel=6, note=52, velocity=110, time=0),
    Message('note_on', channel=6, note=52, velocity=110, time=11),
    Message('note_on', channel=6, note=47, velocity=110, time=0),
    Message('note_off', channel=6, note=52, velocity=110, time=1),
    Message('note_off', channel=6, note=47, velocity=110, time=0),
    Message('note_on', channel=6, note=47, velocity=110, time=11),
    Message('note_on', channel=6, note=52, velocity=110, time=0),
    Message('note_off', channel=6, note=47, velocity=110, time=1),
    Message('note_off', channel=6, note=52, velocity=110, time=0),
    Message('note_on', channel=6, note=47, velocity=110, time=11),
    Message('note_on', channel=6, note=52, velocity=110, time=0),
    Message('note_off', channel=6, note=47, velocity=110, time=1),
    Message('note_off', channel=6, note=52, velocity=110, time=0),
    Message('note_on', channel=6, note=51, velocity=110, time=11),
    Message('note_on', channel=6, note=46, velocity=110, time=0),
    Message('note_off', channel=6, note=51, velocity=110, time=1),
    Message('note_off', channel=6, note=46, velocity=110, time=0),
    Message('note_on', channel=6, note=50, velocity=110, time=11),
    Message('note_on', channel=6, note=45, velocity=110, time=0),
    Message('note_on', channel=6, note=40, velocity=110, time=0),
    Message('note_off', channel=6, note=50, velocity=110, time=1),
    Message('note_off', channel=6, note=45, velocity=110, time=0),
    Message('note_off', channel=6, note=40, velocity=110, time=95),
    Message('note_on', channel=6, note=40, velocity=110, time=0),
    Message('note_off', channel=6, note=40, velocity=110, time=96),
    Message('note_on', channel=6, note=50, velocity=120, time=0),
    Message('note_off', channel=6, note=50, velocity=120, time=192),
    Message('note_on', channel=6, note=47, velocity=110, time=0),
    Message('note_off', channel=6, note=47, velocity=110, time=96),
    Message('note_on', channel=6, note=46, velocity=110, time=0),
    Message('note_off', channel=6, note=46, velocity=110, time=96),
    Message('note_on', channel=6, note=45, velocity=110, time=0),
    Message('note_off', channel=6, note=45, velocity=110, time=96),
    Message('note_on', channel=6, note=43, velocity=110, time=0),
    Message('note_off', channel=6, note=43, velocity=110, time=96),
    Message('note_on', channel=6, note=42, velocity=110, time=0),
    Message('note_off', channel=6, note=42, velocity=110, time=96),
    Message('note_on', channel=6, note=41, velocity=110, time=0),
    Message('note_off', channel=6, note=41, velocity=110, time=96),
    Message('note_on', channel=6, note=40, velocity=120, time=0),
    Message('note_off', channel=6, note=40, velocity=120, time=288),
    Message('note_on', channel=6, note=59, velocity=110, time=0),
    Message('note_on', channel=6, note=52, velocity=110, time=0),
    Message('note_off', channel=6, note=59, velocity=110, time=288),
    Message('note_off', channel=6, note=52, velocity=110, time=0),
    Message('note_on', channel=6, note=58, velocity=110, time=0),
    Message('note_on', channel=6, note=51, velocity=110, time=0),
    Message('note_off', channel=6, note=58, velocity=110, time=192),
    Message('note_off', channel=6, note=51, velocity=110, time=0),
    Message('note_on', channel=6, note=40, velocity=110, time=0),
    Message('note_off', channel=6, note=40, velocity=110, time=96),
    Message('note_on', channel=6, note=57, velocity=110, time=0),
    Message('note_on', channel=6, note=52, velocity=110, time=0),
    Message('note_off', channel=6, note=57, velocity=110, time=96),
    Message('note_off', channel=6, note=52, velocity=110, time=0),
    Message('note_on', channel=6, note=50, velocity=110, time=0),
    Message('note_off', channel=6, note=50, velocity=110, time=192),
    Message('note_on', channel=6, note=56, velocity=110, time=0),
    Message('note_off', channel=6, note=56, velocity=110, time=192),
    Message('note_on', channel=6, note=52, velocity=110, time=0),
    Message('note_off', channel=6, note=52, velocity=110, time=96),
    Message('note_on', channel=6, note=47, velocity=110, time=0),
    Message('note_off', channel=6, note=47, velocity=110, time=96),
    Message('note_on', channel=6, note=47, velocity=110, time=12),
    Message('note_off', channel=6, note=47, velocity=110, time=1),
    Message('note_on', channel=6, note=46, velocity=110, time=11),
    Message('note_off', channel=6, note=46, velocity=110, time=1),
    Message('note_on', channel=6, note=45, velocity=110, time=11),
    Message('note_off', channel=6, note=45, velocity=110, time=1),
    Message('note_on', channel=6, note=44, velocity=110, time=11),
    Message('note_off', channel=6, note=44, velocity=110, time=1),
    Message('note_on', channel=6, note=43, velocity=110, time=11),
    Message('note_off', channel=6, note=43, velocity=110, time=1),
    Message('note_on', channel=6, note=42, velocity=110, time=11),
    Message('note_off', channel=6, note=42, velocity=110, time=1),
    Message('note_on', channel=6, note=41, velocity=110, time=11),
    Message('note_off', channel=6, note=41, velocity=110, time=1),
    Message('note_on', channel=6, note=40, velocity=120, time=11),
    Message('note_off', channel=6, note=40, velocity=120, time=192),
    Message('note_on', channel=6, note=55, velocity=110, time=0),
    Message('note_on', channel=6, note=48, velocity=110, time=0),
    Message('note_off', channel=6, note=55, velocity=110, time=288),
    Message('note_off', channel=6, note=48, velocity=110, time=0),
    Message('note_on', channel=6, note=54, velocity=110, time=0),
    Message('note_off', channel=6, note=54, velocity=110, time=192),
    Message('note_on', channel=6, note=40, velocity=110, time=0),
    Message('note_off', channel=6, note=40, velocity=110, time=96),
    Message('note_on', channel=6, note=57, velocity=120, time=0),
    Message('note_on', channel=6, note=50, velocity=120, time=0),
    Message('note_off', channel=6, note=57, velocity=120, time=288),
    Message('note_off', channel=6, note=50, velocity=120, time=0),
    Message('note_on', channel=6, note=55, velocity=110, time=0),
    Message('note_off', channel=6, note=55, velocity=110, time=96),
    Message('note_on', channel=6, note=54, velocity=110, time=0),
    Message('note_off', channel=6, note=54, velocity=110, time=96),
    Message('note_on', channel=6, note=50, velocity=110, time=0),
    Message('note_off', channel=6, note=50, velocity=110, time=96),
    Message('note_on', channel=6, note=47, velocity=110, time=0),
    Message('note_off', channel=6, note=47, velocity=110, time=192),
    Message('note_on', channel=6, note=40, velocity=120, time=0),
    Message('note_off', channel=6, note=40, velocity=120, time=192),
    Message('note_on', channel=6, note=59, velocity=110, time=0),
    Message('note_on', channel=6, note=50, velocity=110, time=0),
    Message('note_off', channel=6, note=59, velocity=110, time=288),
    Message('note_off', channel=6, note=50, velocity=110, time=0),
    Message('note_on', channel=6, note=58, velocity=110, time=0),
    Message('note_on', channel=6, note=49, velocity=110, time=0),
    Message('note_off', channel=6, note=58, velocity=110, time=192),
    Message('note_off', channel=6, note=49, velocity=110, time=0),
    Message('note_on', channel=6, note=40, velocity=110, time=0),
    Message('note_off', channel=6, note=40, velocity=110, time=96),
    Message('note_on', channel=6, note=57, velocity=110, time=0),
    Message('note_on', channel=6, note=52, velocity=110, time=0),
    Message('note_off', channel=6, note=57, velocity=110, time=288),
    Message('note_off', channel=6, note=52, velocity=110, time=0),
    Message('note_on', channel=6, note=56, velocity=110, time=0),
    Message('note_off', channel=6, note=56, velocity=110, time=192),
    Message('note_on', channel=6, note=52, velocity=110, time=0),
    Message('note_off', channel=6, note=52, velocity=110, time=96),
    Message('note_on', channel=6, note=47, velocity=110, time=0),
    Message('note_off', channel=6, note=47, velocity=110, time=96),
    Message('note_on', channel=6, note=47, velocity=110, time=12),
    Message('note_off', channel=6, note=47, velocity=110, time=1),
    Message('note_on', channel=6, note=46, velocity=110, time=11),
    Message('note_off', channel=6, note=46, velocity=110, time=1),
    Message('note_on', channel=6, note=45, velocity=110, time=11),
    Message('note_off', channel=6, note=45, velocity=110, time=1),
    Message('note_on', channel=6, note=44, velocity=110, time=11),
    Message('note_off', channel=6, note=44, velocity=110, time=1),
    Message('note_on', channel=6, note=43, velocity=110, time=11),
    Message('note_off', channel=6, note=43, velocity=110, time=1),
    Message('note_on', channel=6, note=42, velocity=110, time=11),
    Message('note_off', channel=6, note=42, velocity=110, time=1),
    Message('note_on', channel=6, note=41, velocity=110, time=11),
    Message('note_off', channel=6, note=41, velocity=110, time=1),
    Message('note_on', channel=6, note=40, velocity=120, time=11),
    Message('note_off', channel=6, note=40, velocity=120, time=192),
    Message('note_on', channel=6, note=55, velocity=110, time=0),
    Message('note_on', channel=6, note=48, velocity=110, time=0),
    Message('note_off', channel=6, note=55, velocity=110, time=288),
    Message('note_off', channel=6, note=48, velocity=110, time=0),
    Message('note_on', channel=6, note=54, velocity=110, time=0),
    Message('note_off', channel=6, note=54, velocity=110, time=192),
    Message('note_on', channel=6, note=40, velocity=110, time=0),
    Message('note_off', channel=6, note=40, velocity=110, time=96),
    Message('note_on', channel=6, note=57, velocity=110, time=0),
    Message('note_on', channel=6, note=50, velocity=110, time=0),
    Message('note_off', channel=6, note=57, velocity=110, time=96),
    Message('note_off', channel=6, note=50, velocity=110, time=0),
    Message('note_on', channel=6, note=50, velocity=110, time=0),
    Message('note_on', channel=6, note=57, velocity=110, time=0),
    Message('note_off', channel=6, note=50, velocity=110, time=96),
    Message('note_off', channel=6, note=57, velocity=110, time=0),
    Message('note_on', channel=6, note=50, velocity=110, time=0),
    Message('note_on', channel=6, note=57, velocity=110, time=0),
    Message('note_off', channel=6, note=50, velocity=110, time=96),
    Message('note_off', channel=6, note=57, velocity=110, time=0),
    Message('note_on', channel=6, note=50, velocity=110, time=0),
    Message('note_on', channel=6, note=57, velocity=110, time=0),
    Message('note_off', channel=6, note=50, velocity=110, time=96),
    Message('note_off', channel=6, note=57, velocity=110, time=0),
    Message('note_on', channel=6, note=57, velocity=120, time=0),
    Message('note_on', channel=6, note=50, velocity=120, time=0),
    Message('note_off', channel=6, note=57, velocity=120, time=288),
    Message('note_off', channel=6, note=50, velocity=120, time=0),
    Message('note_on', channel=6, note=57, velocity=110, time=0),
    Message('note_off', channel=6, note=57, velocity=110, time=1),
    Message('note_on', channel=6, note=50, velocity=110, time=11),
    Message('note_on', channel=6, note=56, velocity=110, time=0),
    Message('note_off', channel=6, note=50, velocity=110, time=1),
    Message('note_off', channel=6, note=56, velocity=110, time=0),
    Message('note_on', channel=6, note=49, velocity=110, time=11),
    Message('note_on', channel=6, note=55, velocity=110, time=0),
    Message('note_off', channel=6, note=49, velocity=110, time=1),
    Message('note_off', channel=6, note=55, velocity=110, time=0),
    Message('note_on', channel=6, note=48, velocity=110, time=11),
    Message('note_on', channel=6, note=54, velocity=110, time=0),
    Message('note_off', channel=6, note=48, velocity=110, time=1),
    Message('note_off', channel=6, note=54, velocity=110, time=0),
    Message('note_on', channel=6, note=47, velocity=110, time=11),
    Message('note_on', channel=6, note=53, velocity=110, time=0),
    Message('note_off', channel=6, note=47, velocity=110, time=1),
    Message('note_off', channel=6, note=53, velocity=110, time=0),
    Message('note_on', channel=6, note=46, velocity=110, time=11),
    Message('note_on', channel=6, note=52, velocity=110, time=0),
    Message('note_off', channel=6, note=46, velocity=110, time=1),
    Message('note_off', channel=6, note=52, velocity=110, time=0),
    Message('note_on', channel=6, note=45, velocity=110, time=11),
    Message('note_on', channel=6, note=51, velocity=110, time=0),
    Message('note_off', channel=6, note=45, velocity=110, time=1),
    Message('note_off', channel=6, note=51, velocity=110, time=0),
    Message('note_on', channel=6, note=44, velocity=110, time=11),
    Message('note_on', channel=6, note=50, velocity=110, time=0),
    Message('note_off', channel=6, note=44, velocity=110, time=1),
    Message('note_off', channel=6, note=50, velocity=110, time=0),
    Message('note_on', channel=6, note=40, velocity=120, time=11),
    Message('note_off', channel=6, note=40, velocity=120, time=192),
    Message('note_on', channel=6, note=59, velocity=110, time=0),
    Message('note_off', channel=6, note=59, velocity=110, time=96),
    Message('note_on', channel=6, note=57, velocity=110, time=0),
    Message('note_off', channel=6, note=57, velocity=110, time=96),
    Message('note_on', channel=6, note=52, velocity=110, time=0),
    Message('note_off', channel=6, note=52, velocity=110, time=96),
    Message('note_on', channel=6, note=58, velocity=110, time=0),
    Message('note_off', channel=6, note=58, velocity=110, time=96),
    Message('note_on', channel=6, note=57, velocity=110, time=0),
    Message('note_off', channel=6, note=57, velocity=110, time=96),
    Message('note_on', channel=6, note=52, velocity=110, time=0),
    Message('note_off', channel=6, note=52, velocity=110, time=96),
    Message('note_on', channel=6, note=57, velocity=110, time=0),
    Message('note_off', channel=6, note=57, velocity=110, time=96),
    Message('note_on', channel=6, note=50, velocity=110, time=0),
    Message('note_off', channel=6, note=50, velocity=110, time=96),
    Message('note_on', channel=6, note=52, velocity=110, time=0),
    Message('note_off', channel=6, note=52, velocity=110, time=96),
    Message('note_on', channel=6, note=56, velocity=110, time=0),
    Message('note_off', channel=6, note=56, velocity=110, time=192),
    Message('note_on', channel=6, note=52, velocity=110, time=0),
    Message('note_off', channel=6, note=52, velocity=110, time=96),
    Message('note_on', channel=6, note=47, velocity=110, time=0),
    Message('note_off', channel=6, note=47, velocity=110, time=96),
    Message('note_on', channel=6, note=47, velocity=110, time=0),
    Message('note_off', channel=6, note=47, velocity=110, time=1),
    Message('note_on', channel=6, note=46, velocity=110, time=11),
    Message('note_off', channel=6, note=46, velocity=110, time=1),
    Message('note_on', channel=6, note=45, velocity=110, time=11),
    Message('note_off', channel=6, note=45, velocity=110, time=1),
    Message('note_on', channel=6, note=44, velocity=110, time=11),
    Message('note_off', channel=6, note=44, velocity=110, time=1),
    Message('note_on', channel=6, note=43, velocity=110, time=11),
    Message('note_off', channel=6, note=43, velocity=110, time=1),
    Message('note_on', channel=6, note=42, velocity=110, time=11),
    Message('note_off', channel=6, note=42, velocity=110, time=1),
    Message('note_on', channel=6, note=41, velocity=110, time=11),
    Message('note_off', channel=6, note=41, velocity=110, time=1),
    Message('note_on', channel=6, note=40, velocity=110, time=11),
    Message('note_off', channel=6, note=40, velocity=110, time=1),
    Message('note_on', channel=6, note=40, velocity=110, time=11),
    Message('note_off', channel=6, note=40, velocity=110, time=192),
    Message('note_on', channel=6, note=55, velocity=110, time=0),
    Message('note_on', channel=6, note=48, velocity=110, time=0),
    Message('note_off', channel=6, note=55, velocity=110, time=288),
    Message('note_off', channel=6, note=48, velocity=110, time=0),
    Message('note_on', channel=6, note=54, velocity=110, time=0),
    Message('note_off', channel=6, note=54, velocity=110, time=192),
    Message('note_on', channel=6, note=40, velocity=110, time=0),
    Message('note_off', channel=6, note=40, velocity=110, time=96),
    Message('note_on', channel=6, note=57, velocity=110, time=0),
    Message('note_on', channel=6, note=50, velocity=110, time=0),
    Message('note_off', channel=6, note=57, velocity=110, time=288),
    Message('note_off', channel=6, note=50, velocity=110, time=0),
    Message('note_on', channel=6, note=55, velocity=110, time=0),
    Message('note_off', channel=6, note=55, velocity=110, time=96),
    Message('note_on', channel=6, note=54, velocity=110, time=0),
    Message('note_off', channel=6, note=54, velocity=110, time=96),
    Message('note_on', channel=6, note=50, velocity=110, time=0),
    Message('note_off', channel=6, note=50, velocity=110, time=96),
    Message('note_on', channel=6, note=47, velocity=110, time=0),
    Message('note_off', channel=6, note=47, velocity=110, time=192),
    Message('note_on', channel=6, note=40, velocity=120, time=0),
    Message('note_off', channel=6, note=40, velocity=120, time=192),
    Message('note_on', channel=6, note=59, velocity=110, time=0),
    Message('note_on', channel=6, note=52, velocity=110, time=0),
    Message('note_off', channel=6, note=59, velocity=110, time=288),
    Message('note_off', channel=6, note=52, velocity=110, time=0),
    Message('note_on', channel=6, note=51, velocity=110, time=0),
    Message('note_on', channel=6, note=58, velocity=110, time=0),
    Message('note_off', channel=6, note=51, velocity=110, time=192),
    Message('note_off', channel=6, note=58, velocity=110, time=0),
    Message('note_on', channel=6, note=40, velocity=110, time=0),
    Message('note_off', channel=6, note=40, velocity=110, time=96),
    Message('note_on', channel=6, note=57, velocity=110, time=0),
    Message('note_off', channel=6, note=57, velocity=110, time=96),
    Message('note_on', channel=6, note=50, velocity=110, time=0),
    Message('note_off', channel=6, note=50, velocity=110, time=96),
    Message('note_on', channel=6, note=52, velocity=110, time=0),
    Message('note_off', channel=6, note=52, velocity=110, time=96),
    Message('note_on', channel=6, note=56, velocity=110, time=0),
    Message('note_off', channel=6, note=56, velocity=110, time=192),
    Message('note_on', channel=6, note=52, velocity=110, time=0),
    Message('note_off', channel=6, note=52, velocity=110, time=96),
    Message('note_on', channel=6, note=47, velocity=110, time=0),
    Message('note_off', channel=6, note=47, velocity=110, time=96),
    Message('note_on', channel=6, note=47, velocity=110, time=0),
    Message('note_off', channel=6, note=47, velocity=110, time=1),
    Message('note_on', channel=6, note=46, velocity=110, time=11),
    Message('note_off', channel=6, note=46, velocity=110, time=1),
    Message('note_on', channel=6, note=45, velocity=110, time=11),
    Message('note_off', channel=6, note=45, velocity=110, time=1),
    Message('note_on', channel=6, note=44, velocity=110, time=11),
    Message('note_off', channel=6, note=44, velocity=110, time=1),
    Message('note_on', channel=6, note=43, velocity=110, time=11),
    Message('note_off', channel=6, note=43, velocity=110, time=1),
    Message('note_on', channel=6, note=42, velocity=110, time=11),
    Message('note_off', channel=6, note=42, velocity=110, time=1),
    Message('note_on', channel=6, note=41, velocity=110, time=11),
    Message('note_off', channel=6, note=41, velocity=110, time=1),
    Message('note_on', channel=6, note=40, velocity=110, time=11),
    Message('note_off', channel=6, note=40, velocity=110, time=1),
    Message('note_on', channel=6, note=40, velocity=110, time=11),
    Message('note_off', channel=6, note=40, velocity=110, time=192),
    Message('note_on', channel=6, note=55, velocity=110, time=0),
    Message('note_on', channel=6, note=48, velocity=110, time=0),
    Message('note_off', channel=6, note=55, velocity=110, time=288),
    Message('note_off', channel=6, note=48, velocity=110, time=0),
    Message('note_on', channel=6, note=54, velocity=110, time=0),
    Message('note_off', channel=6, note=54, velocity=110, time=192),
    Message('note_on', channel=6, note=40, velocity=110, time=0),
    Message('note_off', channel=6, note=40, velocity=110, time=96),
    Message('note_on', channel=6, note=57, velocity=110, time=0),
    Message('note_on', channel=6, note=50, velocity=110, time=0),
    Message('note_off', channel=6, note=57, velocity=110, time=288),
    Message('note_off', channel=6, note=50, velocity=110, time=0),
    Message('note_on', channel=6, note=55, velocity=110, time=0),
    Message('note_off', channel=6, note=55, velocity=110, time=96),
    Message('note_on', channel=6, note=54, velocity=110, time=0),
    Message('note_off', channel=6, note=54, velocity=110, time=96),
    Message('note_on', channel=6, note=50, velocity=110, time=0),
    Message('note_off', channel=6, note=50, velocity=110, time=96),
    Message('note_on', channel=6, note=47, velocity=110, time=0),
    Message('note_off', channel=6, note=47, velocity=110, time=192),
    Message('note_on', channel=6, note=40, velocity=110, time=0),
    Message('note_off', channel=6, note=40, velocity=110, time=192),
    Message('note_on', channel=6, note=55, velocity=110, time=0),
    Message('note_on', channel=6, note=48, velocity=110, time=0),
    Message('note_off', channel=6, note=55, velocity=110, time=288),
    Message('note_off', channel=6, note=48, velocity=110, time=0),
    Message('note_on', channel=6, note=54, velocity=110, time=0),
    Message('note_off', channel=6, note=54, velocity=110, time=192),
    Message('note_on', channel=6, note=40, velocity=110, time=0),
    Message('note_off', channel=6, note=40, velocity=110, time=96),
    Message('note_on', channel=6, note=57, velocity=110, time=0),
    Message('note_on', channel=6, note=50, velocity=110, time=0),
    Message('note_off', channel=6, note=57, velocity=110, time=96),
    Message('note_off', channel=6, note=50, velocity=110, time=0),
    Message('note_on', channel=6, note=50, velocity=110, time=0),
    Message('note_on', channel=6, note=57, velocity=110, time=0),
    Message('note_off', channel=6, note=50, velocity=110, time=96),
    Message('note_off', channel=6, note=57, velocity=110, time=0),
    Message('note_on', channel=6, note=50, velocity=110, time=0),
    Message('note_on', channel=6, note=57, velocity=110, time=0),
    Message('note_off', channel=6, note=50, velocity=110, time=96),
    Message('note_off', channel=6, note=57, velocity=110, time=0),
    Message('note_on', channel=6, note=50, velocity=110, time=0),
    Message('note_on', channel=6, note=57, velocity=110, time=0),
    Message('note_off', channel=6, note=50, velocity=110, time=96),
    Message('note_off', channel=6, note=57, velocity=110, time=0),
    Message('note_on', channel=6, note=57, velocity=120, time=0),
    Message('note_on', channel=6, note=50, velocity=120, time=0),
    Message('note_off', channel=6, note=57, velocity=120, time=239),
    Message('note_off', channel=6, note=50, velocity=120, time=0),
    Message('note_on', channel=6, note=57, velocity=120, time=49),
    Message('note_on', channel=6, note=52, velocity=120, time=0),
    Message('program_change', channel=6, program=29, time=84),
    Message('note_off', channel=6, note=57, velocity=120, time=12),
    Message('note_off', channel=6, note=52, velocity=120, time=0),
    Message('note_on', channel=6, note=40, velocity=110, time=0),
    Message('note_off', channel=6, note=40, velocity=110, time=96),
    Message('note_on', channel=6, note=56, velocity=120, time=0),
    Message('note_on', channel=6, note=51, velocity=120, time=0),
    Message('note_off', channel=6, note=56, velocity=120, time=96),
    Message('note_off', channel=6, note=51, velocity=120, time=0),
    Message('note_on', channel=6, note=40, velocity=110, time=0),
    Message('note_off', channel=6, note=40, velocity=110, time=96),
    Message('note_on', channel=6, note=55, velocity=120, time=0),
    Message('note_on', channel=6, note=50, velocity=120, time=0),
    Message('note_off', channel=6, note=55, velocity=120, time=96),
    Message('note_off', channel=6, note=50, velocity=120, time=0),
    Message('note_on', channel=6, note=40, velocity=110, time=96),
    Message('note_off', channel=6, note=40, velocity=110, time=96),
    Message('note_on', channel=6, note=40, velocity=110, time=0),
    Message('note_off', channel=6, note=40, velocity=110, time=96),
    Message('note_on', channel=6, note=57, velocity=120, time=0),
    Message('note_on', channel=6, note=52, velocity=120, time=0),
    Message('note_off', channel=6, note=57, velocity=120, time=96),
    Message('note_off', channel=6, note=52, velocity=120, time=0),
    Message('note_on', channel=6, note=40, velocity=110, time=0),
    Message('note_off', channel=6, note=40, velocity=110, time=96),
    Message('note_on', channel=6, note=56, velocity=120, time=0),
    Message('note_on', channel=6, note=51, velocity=120, time=0),
    Message('note_off', channel=6, note=56, velocity=120, time=96),
    Message('note_off', channel=6, note=51, velocity=120, time=0),
    Message('note_on', channel=6, note=40, velocity=110, time=0),
    Message('note_off', channel=6, note=40, velocity=110, time=96),
    Message('note_on', channel=6, note=55, velocity=120, time=0),
    Message('note_on', channel=6, note=50, velocity=120, time=0),
    Message('note_off', channel=6, note=55, velocity=120, time=96),
    Message('note_off', channel=6, note=50, velocity=120, time=0),
    Message('note_on', channel=6, note=40, velocity=110, time=96),
    Message('note_off', channel=6, note=40, velocity=110, time=96),
    Message('note_on', channel=6, note=40, velocity=110, time=0),
    Message('note_off', channel=6, note=40, velocity=110, time=96),
    Message('note_on', channel=6, note=57, velocity=120, time=0),
    Message('note_on', channel=6, note=52, velocity=120, time=0),
    Message('note_off', channel=6, note=57, velocity=120, time=96),
    Message('note_off', channel=6, note=52, velocity=120, time=0),
    Message('note_on', channel=6, note=40, velocity=110, time=0),
    Message('note_off', channel=6, note=40, velocity=110, time=96),
    Message('note_on', channel=6, note=56, velocity=120, time=0),
    Message('note_on', channel=6, note=51, velocity=120, time=0),
    Message('note_off', channel=6, note=56, velocity=120, time=96),
    Message('note_off', channel=6, note=51, velocity=120, time=0),
    Message('note_on', channel=6, note=40, velocity=110, time=0),
    Message('note_off', channel=6, note=40, velocity=110, time=96),
    Message('note_on', channel=6, note=55, velocity=120, time=0),
    Message('note_on', channel=6, note=50, velocity=120, time=0),
    Message('note_off', channel=6, note=55, velocity=120, time=96),
    Message('note_off', channel=6, note=50, velocity=120, time=0),
    Message('note_on', channel=6, note=40, velocity=110, time=96),
    Message('note_off', channel=6, note=40, velocity=110, time=96),
    Message('note_on', channel=6, note=40, velocity=110, time=0),
    Message('note_off', channel=6, note=40, velocity=110, time=96),
    Message('note_on', channel=6, note=57, velocity=120, time=0),
    Message('note_on', channel=6, note=52, velocity=120, time=0),
    Message('note_off', channel=6, note=57, velocity=120, time=96),
    Message('note_off', channel=6, note=52, velocity=120, time=0),
    Message('note_on', channel=6, note=40, velocity=110, time=0),
    Message('note_off', channel=6, note=40, velocity=110, time=96),
    Message('note_on', channel=6, note=56, velocity=120, time=0),
    Message('note_on', channel=6, note=51, velocity=120, time=0),
    Message('note_off', channel=6, note=56, velocity=120, time=96),
    Message('note_off', channel=6, note=51, velocity=120, time=0),
    Message('note_on', channel=6, note=40, velocity=110, time=0),
    Message('note_off', channel=6, note=40, velocity=110, time=96),
    Message('note_on', channel=6, note=55, velocity=120, time=0),
    Message('note_on', channel=6, note=50, velocity=120, time=0),
    Message('note_off', channel=6, note=55, velocity=120, time=96),
    Message('note_off', channel=6, note=50, velocity=120, time=0),
    Message('note_on', channel=6, note=40, velocity=110, time=96),
    Message('note_off', channel=6, note=40, velocity=110, time=96),
    Message('note_on', channel=6, note=40, velocity=110, time=0),
    Message('note_off', channel=6, note=40, velocity=110, time=96),
    Message('note_on', channel=6, note=57, velocity=120, time=0),
    Message('note_on', channel=6, note=52, velocity=120, time=0),
    Message('note_off', channel=6, note=57, velocity=120, time=96),
    Message('note_off', channel=6, note=52, velocity=120, time=0),
    Message('note_on', channel=6, note=40, velocity=110, time=0),
    Message('note_off', channel=6, note=40, velocity=110, time=96),
    Message('note_on', channel=6, note=56, velocity=120, time=0),
    Message('note_on', channel=6, note=51, velocity=120, time=0),
    Message('note_off', channel=6, note=56, velocity=120, time=96),
    Message('note_off', channel=6, note=51, velocity=120, time=0),
    Message('note_on', channel=6, note=40, velocity=110, time=0),
    Message('note_off', channel=6, note=40, velocity=110, time=96),
    Message('note_on', channel=6, note=55, velocity=120, time=0),
    Message('note_on', channel=6, note=50, velocity=120, time=0),
    Message('note_off', channel=6, note=55, velocity=120, time=96),
    Message('note_off', channel=6, note=50, velocity=120, time=0),
    Message('note_on', channel=6, note=40, velocity=110, time=96),
    Message('note_off', channel=6, note=40, velocity=110, time=96),
    Message('note_on', channel=6, note=40, velocity=110, time=0),
    Message('note_off', channel=6, note=40, velocity=110, time=96),
    Message('note_on', channel=6, note=57, velocity=120, time=0),
    Message('note_on', channel=6, note=52, velocity=120, time=0),
    Message('note_off', channel=6, note=57, velocity=120, time=96),
    Message('note_off', channel=6, note=52, velocity=120, time=0),
    Message('note_on', channel=6, note=40, velocity=110, time=0),
    Message('note_off', channel=6, note=40, velocity=110, time=96),
    Message('note_on', channel=6, note=56, velocity=120, time=0),
    Message('note_on', channel=6, note=51, velocity=120, time=0),
    Message('note_off', channel=6, note=56, velocity=120, time=96),
    Message('note_off', channel=6, note=51, velocity=120, time=0),
    Message('note_on', channel=6, note=40, velocity=110, time=0),
    Message('note_off', channel=6, note=40, velocity=110, time=96),
    Message('note_on', channel=6, note=55, velocity=120, time=0),
    Message('note_on', channel=6, note=50, velocity=120, time=0),
    Message('note_off', channel=6, note=55, velocity=120, time=96),
    Message('note_off', channel=6, note=50, velocity=120, time=0),
    Message('note_on', channel=6, note=40, velocity=110, time=96),
    Message('note_off', channel=6, note=40, velocity=110, time=96),
    Message('note_on', channel=6, note=40, velocity=110, time=0),
    Message('note_off', channel=6, note=40, velocity=110, time=96),
    Message('note_on', channel=6, note=57, velocity=120, time=0),
    Message('note_on', channel=6, note=52, velocity=120, time=0),
    Message('note_off', channel=6, note=57, velocity=120, time=96),
    Message('note_off', channel=6, note=52, velocity=120, time=0),
    Message('note_on', channel=6, note=40, velocity=110, time=0),
    Message('note_off', channel=6, note=40, velocity=110, time=96),
    Message('note_on', channel=6, note=56, velocity=120, time=0),
    Message('note_on', channel=6, note=51, velocity=120, time=0),
    Message('note_off', channel=6, note=56, velocity=120, time=96),
    Message('note_off', channel=6, note=51, velocity=120, time=0),
    Message('note_on', channel=6, note=40, velocity=110, time=0),
    Message('note_off', channel=6, note=40, velocity=110, time=96),
    Message('note_on', channel=6, note=55, velocity=120, time=0),
    Message('note_on', channel=6, note=50, velocity=120, time=0),
    Message('note_off', channel=6, note=55, velocity=120, time=96),
    Message('note_off', channel=6, note=50, velocity=120, time=0),
    Message('note_on', channel=6, note=40, velocity=110, time=96),
    Message('note_off', channel=6, note=40, velocity=110, time=96),
    Message('note_on', channel=6, note=40, velocity=110, time=0),
    Message('note_off', channel=6, note=40, velocity=110, time=96),
    Message('note_on', channel=6, note=57, velocity=120, time=0),
    Message('note_on', channel=6, note=52, velocity=120, time=0),
    Message('note_off', channel=6, note=57, velocity=120, time=96),
    Message('note_off', channel=6, note=52, velocity=120, time=0),
    Message('note_on', channel=6, note=40, velocity=110, time=0),
    Message('note_off', channel=6, note=40, velocity=110, time=96),
    Message('note_on', channel=6, note=56, velocity=120, time=0),
    Message('note_on', channel=6, note=51, velocity=120, time=0),
    Message('note_off', channel=6, note=56, velocity=120, time=96),
    Message('note_off', channel=6, note=51, velocity=120, time=0),
    Message('note_on', channel=6, note=40, velocity=110, time=0),
    Message('note_off', channel=6, note=40, velocity=110, time=96),
    Message('note_on', channel=6, note=55, velocity=120, time=0),
    Message('note_on', channel=6, note=50, velocity=120, time=0),
    Message('note_off', channel=6, note=55, velocity=120, time=96),
    Message('note_off', channel=6, note=50, velocity=120, time=0),
    Message('note_on', channel=6, note=40, velocity=110, time=96),
    Message('note_off', channel=6, note=40, velocity=110, time=96),
    Message('note_on', channel=6, note=40, velocity=110, time=0),
    Message('note_off', channel=6, note=40, velocity=110, time=96),
    Message('note_on', channel=6, note=57, velocity=120, time=0),
    Message('note_on', channel=6, note=52, velocity=120, time=0),
    Message('note_off', channel=6, note=57, velocity=120, time=96),
    Message('note_off', channel=6, note=52, velocity=120, time=0),
    Message('note_on', channel=6, note=40, velocity=110, time=0),
    Message('note_off', channel=6, note=40, velocity=110, time=96),
    Message('note_on', channel=6, note=56, velocity=120, time=0),
    Message('note_on', channel=6, note=51, velocity=120, time=0),
    Message('note_off', channel=6, note=56, velocity=120, time=96),
    Message('note_off', channel=6, note=51, velocity=120, time=0),
    Message('note_on', channel=6, note=40, velocity=110, time=0),
    Message('note_off', channel=6, note=40, velocity=110, time=96),
    Message('note_on', channel=6, note=55, velocity=120, time=0),
    Message('note_on', channel=6, note=50, velocity=120, time=0),
    Message('note_off', channel=6, note=55, velocity=120, time=96),
    Message('note_off', channel=6, note=50, velocity=120, time=0),
    Message('note_on', channel=6, note=40, velocity=110, time=96),
    Message('note_off', channel=6, note=40, velocity=110, time=96),
    Message('note_on', channel=6, note=40, velocity=110, time=0),
    Message('note_off', channel=6, note=40, velocity=110, time=96),
    Message('note_on', channel=6, note=57, velocity=120, time=0),
    Message('note_on', channel=6, note=52, velocity=120, time=0),
    Message('note_off', channel=6, note=57, velocity=120, time=96),
    Message('note_off', channel=6, note=52, velocity=120, time=0),
    Message('note_on', channel=6, note=40, velocity=110, time=0),
    Message('note_off', channel=6, note=40, velocity=110, time=96),
    Message('note_on', channel=6, note=56, velocity=120, time=0),
    Message('note_on', channel=6, note=51, velocity=120, time=0),
    Message('note_off', channel=6, note=56, velocity=120, time=96),
    Message('note_off', channel=6, note=51, velocity=120, time=0),
    Message('note_on', channel=6, note=40, velocity=110, time=0),
    Message('note_off', channel=6, note=40, velocity=110, time=96),
    Message('note_on', channel=6, note=55, velocity=120, time=0),
    Message('note_on', channel=6, note=50, velocity=120, time=0),
    Message('note_off', channel=6, note=55, velocity=120, time=96),
    Message('note_off', channel=6, note=50, velocity=120, time=0),
    Message('note_on', channel=6, note=40, velocity=110, time=96),
    Message('note_off', channel=6, note=40, velocity=110, time=96),
    Message('note_on', channel=6, note=40, velocity=110, time=0),
    Message('note_off', channel=6, note=40, velocity=110, time=96),
    Message('note_on', channel=6, note=57, velocity=120, time=0),
    Message('note_on', channel=6, note=52, velocity=120, time=0),
    Message('note_off', channel=6, note=57, velocity=120, time=96),
    Message('note_off', channel=6, note=52, velocity=120, time=0),
    Message('note_on', channel=6, note=40, velocity=110, time=0),
    Message('note_off', channel=6, note=40, velocity=110, time=96),
    Message('note_on', channel=6, note=56, velocity=120, time=0),
    Message('note_on', channel=6, note=51, velocity=120, time=0),
    Message('note_off', channel=6, note=56, velocity=120, time=96),
    Message('note_off', channel=6, note=51, velocity=120, time=0),
    Message('note_on', channel=6, note=40, velocity=110, time=0),
    Message('note_off', channel=6, note=40, velocity=110, time=96),
    Message('note_on', channel=6, note=55, velocity=120, time=0),
    Message('note_on', channel=6, note=50, velocity=120, time=0),
    Message('note_off', channel=6, note=55, velocity=120, time=96),
    Message('note_off', channel=6, note=50, velocity=120, time=0),
    Message('note_on', channel=6, note=40, velocity=110, time=96),
    Message('note_off', channel=6, note=40, velocity=110, time=96),
    Message('note_on', channel=6, note=40, velocity=110, time=0),
    Message('note_off', channel=6, note=40, velocity=110, time=96),
    Message('note_on', channel=6, note=57, velocity=120, time=0),
    Message('note_on', channel=6, note=52, velocity=120, time=0),
    Message('note_off', channel=6, note=57, velocity=120, time=96),
    Message('note_off', channel=6, note=52, velocity=120, time=0),
    Message('program_change', channel=6, program=30, time=3060),
    Message('note_on', channel=6, note=40, velocity=110, time=12),
    Message('note_off', channel=6, note=40, velocity=110, time=96),
    Message('note_on', channel=6, note=56, velocity=110, time=0),
    Message('note_on', channel=6, note=51, velocity=110, time=0),
    Message('note_off', channel=6, note=56, velocity=110, time=96),
    Message('note_off', channel=6, note=51, velocity=110, time=0),
    Message('note_on', channel=6, note=40, velocity=110, time=0),
    Message('note_off', channel=6, note=40, velocity=110, time=96),
    Message('note_on', channel=6, note=55, velocity=110, time=0),
    Message('note_on', channel=6, note=50, velocity=110, time=0),
    Message('note_off', channel=6, note=55, velocity=110, time=96),
    Message('note_off', channel=6, note=50, velocity=110, time=0),
    Message('note_on', channel=6, note=41, velocity=110, time=96),
    Message('note_off', channel=6, note=41, velocity=110, time=96),
    Message('note_on', channel=6, note=43, velocity=110, time=0),
    Message('note_off', channel=6, note=43, velocity=110, time=96),
    Message('note_on', channel=6, note=41, velocity=110, time=0),
    Message('note_off', channel=6, note=41, velocity=110, time=96),
    Message('note_on', channel=6, note=48, velocity=110, time=0),
    Message('note_on', channel=6, note=41, velocity=110, time=0),
    Message('note_off', channel=6, note=48, velocity=110, time=96),
    Message('note_off', channel=6, note=41, velocity=110, time=0),
    Message('note_on', channel=6, note=40, velocity=110, time=0),
    Message('note_on', channel=6, note=47, velocity=110, time=0),
    Message('note_off', channel=6, note=40, velocity=110, time=96),
    Message('note_off', channel=6, note=47, velocity=110, time=0),
    Message('note_on', channel=6, note=47, velocity=110, time=96),
    Message('note_on', channel=6, note=40, velocity=110, time=0),
    Message('note_off', channel=6, note=47, velocity=110, time=96),
    Message('note_off', channel=6, note=40, velocity=110, time=0),
    Message('note_on', channel=6, note=41, velocity=110, time=384),
    Message('note_on', channel=6, note=48, velocity=110, time=0),
    Message('note_off', channel=6, note=41, velocity=110, time=96),
    Message('note_off', channel=6, note=48, velocity=110, time=0),
    Message('note_on', channel=6, note=47, velocity=110, time=0),
    Message('note_on', channel=6, note=40, velocity=110, time=0),
    Message('note_off', channel=6, note=47, velocity=110, time=96),
    Message('note_off', channel=6, note=40, velocity=110, time=0),
    Message('note_on', channel=6, note=40, velocity=110, time=96),
    Message('note_on', channel=6, note=47, velocity=110, time=0),
    Message('note_off', channel=6, note=40, velocity=110, time=96),
    Message('note_off', channel=6, note=47, velocity=110, time=0),
    Message('note_on', channel=6, note=41, velocity=110, time=96),
    Message('note_off', channel=6, note=41, velocity=110, time=96),
    Message('note_on', channel=6, note=43, velocity=110, time=0),
    Message('note_off', channel=6, note=43, velocity=110, time=96),
    Message('note_on', channel=6, note=41, velocity=110, time=0),
    Message('note_off', channel=6, note=41, velocity=110, time=96),
    Message('note_on', channel=6, note=48, velocity=110, time=0),
    Message('note_on', channel=6, note=41, velocity=110, time=0),
    Message('note_off', channel=6, note=48, velocity=110, time=96),
    Message('note_off', channel=6, note=41, velocity=110, time=0),
    Message('note_on', channel=6, note=47, velocity=110, time=0),
    Message('note_on', channel=6, note=40, velocity=110, time=0),
    Message('note_off', channel=6, note=47, velocity=110, time=96),
    Message('note_off', channel=6, note=40, velocity=110, time=0),
    Message('note_on', channel=6, note=47, velocity=110, time=96),
    Message('note_on', channel=6, note=40, velocity=110, time=0),
    Message('note_off', channel=6, note=47, velocity=110, time=96),
    Message('note_off', channel=6, note=40, velocity=110, time=0),
    Message('note_on', channel=6, note=48, velocity=110, time=1152),
    Message('note_on', channel=6, note=41, velocity=110, time=0),
    Message('note_off', channel=6, note=48, velocity=110, time=96),
    Message('note_off', channel=6, note=41, velocity=110, time=0),
    Message('note_on', channel=6, note=40, velocity=110, time=0),
    Message('note_on', channel=6, note=47, velocity=110, time=0),
    Message('note_off', channel=6, note=40, velocity=110, time=96),
    Message('note_off', channel=6, note=47, velocity=110, time=0),
    Message('note_on', channel=6, note=47, velocity=110, time=96),
    Message('note_on', channel=6, note=40, velocity=110, time=0),
    Message('note_off', channel=6, note=47, velocity=110, time=96),
    Message('note_off', channel=6, note=40, velocity=110, time=0),
    Message('note_on', channel=6, note=41, velocity=110, time=384),
    Message('note_on', channel=6, note=48, velocity=110, time=0),
    Message('note_off', channel=6, note=41, velocity=110, time=96),
    Message('note_off', channel=6, note=48, velocity=110, time=0),
    Message('note_on', channel=6, note=47, velocity=110, time=0),
    Message('note_on', channel=6, note=40, velocity=110, time=0),
    Message('note_off', channel=6, note=47, velocity=110, time=96),
    Message('note_off', channel=6, note=40, velocity=110, time=0),
    Message('note_on', channel=6, note=40, velocity=110, time=96),
    Message('note_on', channel=6, note=47, velocity=110, time=0),
    Message('note_off', channel=6, note=40, velocity=110, time=96),
    Message('note_off', channel=6, note=47, velocity=110, time=0),
    Message('note_on', channel=6, note=41, velocity=110, time=96),
    Message('note_off', channel=6, note=41, velocity=110, time=96),
    Message('note_on', channel=6, note=43, velocity=110, time=0),
    Message('note_off', channel=6, note=43, velocity=110, time=96),
    Message('note_on', channel=6, note=41, velocity=110, time=0),
    Message('note_off', channel=6, note=41, velocity=110, time=96),
    Message('note_on', channel=6, note=48, velocity=110, time=0),
    Message('note_on', channel=6, note=41, velocity=110, time=0),
    Message('note_off', channel=6, note=48, velocity=110, time=96),
    Message('note_off', channel=6, note=41, velocity=110, time=0),
    Message('note_on', channel=6, note=47, velocity=110, time=0),
    Message('note_on', channel=6, note=40, velocity=110, time=0),
    Message('note_off', channel=6, note=47, velocity=110, time=96),
    Message('note_off', channel=6, note=40, velocity=110, time=0),
    Message('note_on', channel=6, note=47, velocity=110, time=96),
    Message('note_on', channel=6, note=40, velocity=110, time=0),
    Message('note_off', channel=6, note=47, velocity=110, time=96),
    Message('note_off', channel=6, note=40, velocity=110, time=0),
    Message('note_on', channel=6, note=48, velocity=110, time=1152),
    Message('note_on', channel=6, note=41, velocity=110, time=0),
    Message('note_off', channel=6, note=48, velocity=110, time=96),
    Message('note_off', channel=6, note=41, velocity=110, time=0),
    Message('note_on', channel=6, note=40, velocity=110, time=0),
    Message('note_on', channel=6, note=47, velocity=110, time=0),
    Message('note_off', channel=6, note=40, velocity=110, time=96),
    Message('note_off', channel=6, note=47, velocity=110, time=0),
    Message('note_on', channel=6, note=47, velocity=110, time=96),
    Message('note_on', channel=6, note=40, velocity=110, time=0),
    Message('note_off', channel=6, note=47, velocity=110, time=96),
    Message('note_off', channel=6, note=40, velocity=110, time=0),
    Message('note_on', channel=6, note=41, velocity=110, time=384),
    Message('note_on', channel=6, note=48, velocity=110, time=0),
    Message('note_off', channel=6, note=41, velocity=110, time=96),
    Message('note_off', channel=6, note=48, velocity=110, time=0),
    Message('note_on', channel=6, note=47, velocity=110, time=0),
    Message('note_on', channel=6, note=40, velocity=110, time=0),
    Message('note_off', channel=6, note=47, velocity=110, time=96),
    Message('note_off', channel=6, note=40, velocity=110, time=0),
    Message('note_on', channel=6, note=40, velocity=110, time=96),
    Message('note_on', channel=6, note=47, velocity=110, time=0),
    Message('note_off', channel=6, note=40, velocity=110, time=96),
    Message('note_off', channel=6, note=47, velocity=110, time=0),
    Message('note_on', channel=6, note=41, velocity=110, time=96),
    Message('note_off', channel=6, note=41, velocity=110, time=96),
    Message('note_on', channel=6, note=43, velocity=110, time=0),
    Message('note_off', channel=6, note=43, velocity=110, time=96),
    Message('note_on', channel=6, note=41, velocity=110, time=0),
    Message('note_off', channel=6, note=41, velocity=110, time=96),
    Message('note_on', channel=6, note=48, velocity=110, time=0),
    Message('note_on', channel=6, note=41, velocity=110, time=0),
    Message('note_off', channel=6, note=48, velocity=110, time=96),
    Message('note_off', channel=6, note=41, velocity=110, time=0),
    Message('note_on', channel=6, note=47, velocity=110, time=0),
    Message('note_on', channel=6, note=40, velocity=110, time=0),
    Message('note_off', channel=6, note=47, velocity=110, time=96),
    Message('note_off', channel=6, note=40, velocity=110, time=0),
    Message('note_on', channel=6, note=47, velocity=110, time=96),
    Message('note_on', channel=6, note=40, velocity=110, time=0),
    Message('note_off', channel=6, note=47, velocity=110, time=96),
    Message('note_off', channel=6, note=40, velocity=110, time=0),
    Message('note_on', channel=6, note=48, velocity=110, time=1152),
    Message('note_on', channel=6, note=41, velocity=110, time=0),
    Message('note_off', channel=6, note=48, velocity=110, time=96),
    Message('note_off', channel=6, note=41, velocity=110, time=0),
    Message('note_on', channel=6, note=40, velocity=110, time=0),
    Message('note_on', channel=6, note=47, velocity=110, time=0),
    Message('note_off', channel=6, note=40, velocity=110, time=96),
    Message('note_off', channel=6, note=47, velocity=110, time=0),
    Message('note_on', channel=6, note=47, velocity=110, time=96),
    Message('note_on', channel=6, note=40, velocity=110, time=0),
    Message('note_off', channel=6, note=47, velocity=110, time=96),
    Message('note_off', channel=6, note=40, velocity=110, time=0),
    Message('note_on', channel=6, note=41, velocity=110, time=384),
    Message('note_on', channel=6, note=48, velocity=110, time=0),
    Message('note_off', channel=6, note=41, velocity=110, time=96),
    Message('note_off', channel=6, note=48, velocity=110, time=0),
    Message('note_on', channel=6, note=47, velocity=110, time=0),
    Message('note_on', channel=6, note=40, velocity=110, time=0),
    Message('note_off', channel=6, note=47, velocity=110, time=96),
    Message('note_off', channel=6, note=40, velocity=110, time=0),
    Message('note_on', channel=6, note=40, velocity=110, time=96),
    Message('note_on', channel=6, note=47, velocity=110, time=0),
    Message('note_off', channel=6, note=40, velocity=110, time=96),
    Message('note_off', channel=6, note=47, velocity=110, time=0),
    Message('note_on', channel=6, note=41, velocity=110, time=96),
    Message('note_off', channel=6, note=41, velocity=110, time=96),
    Message('note_on', channel=6, note=43, velocity=110, time=0),
    Message('note_off', channel=6, note=43, velocity=110, time=96),
    Message('note_on', channel=6, note=41, velocity=110, time=0),
    Message('note_off', channel=6, note=41, velocity=110, time=96),
    Message('note_on', channel=6, note=48, velocity=110, time=0),
    Message('note_on', channel=6, note=41, velocity=110, time=0),
    Message('note_off', channel=6, note=48, velocity=110, time=96),
    Message('note_off', channel=6, note=41, velocity=110, time=0),
    Message('note_on', channel=6, note=47, velocity=110, time=0),
    Message('note_on', channel=6, note=40, velocity=110, time=0),
    Message('note_off', channel=6, note=47, velocity=110, time=96),
    Message('note_off', channel=6, note=40, velocity=110, time=0),
    Message('note_on', channel=6, note=47, velocity=110, time=96),
    Message('note_on', channel=6, note=40, velocity=110, time=0),
    Message('note_off', channel=6, note=47, velocity=110, time=96),
    Message('note_off', channel=6, note=40, velocity=110, time=0),
    Message('note_on', channel=6, note=40, velocity=110, time=864),
    Message('note_off', channel=6, note=40, velocity=110, time=96),
    Message('note_on', channel=6, note=40, velocity=110, time=0),
    Message('note_off', channel=6, note=40, velocity=110, time=96),
    Message('note_on', channel=6, note=57, velocity=120, time=0),
    Message('note_on', channel=6, note=52, velocity=120, time=0),
    Message('note_off', channel=6, note=57, velocity=120, time=96),
    Message('note_off', channel=6, note=52, velocity=120, time=0),
    Message('note_on', channel=6, note=40, velocity=110, time=0),
    Message('note_off', channel=6, note=40, velocity=110, time=96),
    Message('note_on', channel=6, note=51, velocity=120, time=0),
    Message('note_on', channel=6, note=56, velocity=120, time=0),
    Message('note_off', channel=6, note=51, velocity=120, time=96),
    Message('note_off', channel=6, note=56, velocity=120, time=0),
    Message('note_on', channel=6, note=40, velocity=110, time=0),
    Message('note_off', channel=6, note=40, velocity=110, time=96),
    Message('note_on', channel=6, note=55, velocity=120, time=0),
    Message('note_on', channel=6, note=50, velocity=120, time=0),
    Message('note_off', channel=6, note=55, velocity=120, time=96),
    Message('note_off', channel=6, note=50, velocity=120, time=0),
    Message('note_on', channel=6, note=55, velocity=110, time=96),
    Message('note_off', channel=6, note=55, velocity=110, time=48),
    Message('note_on', channel=6, note=57, velocity=110, time=0),
    Message('note_off', channel=6, note=57, velocity=110, time=48),
    Message('note_on', channel=6, note=55, velocity=110, time=0),
    Message('note_off', channel=6, note=55, velocity=110, time=96),
    Message('note_on', channel=6, note=57, velocity=120, time=0),
    Message('note_on', channel=6, note=52, velocity=120, time=0),
    Message('note_off', channel=6, note=57, velocity=120, time=96),
    Message('note_off', channel=6, note=52, velocity=120, time=0),
    Message('note_on', channel=6, note=40, velocity=110, time=0),
    Message('note_off', channel=6, note=40, velocity=110, time=96),
    Message('note_on', channel=6, note=56, velocity=110, time=0),
    Message('note_on', channel=6, note=51, velocity=110, time=0),
    Message('note_off', channel=6, note=56, velocity=110, time=96),
    Message('note_off', channel=6, note=51, velocity=110, time=0),
    Message('note_on', channel=6, note=40, velocity=110, time=0),
    Message('note_off', channel=6, note=40, velocity=110, time=96),
    Message('note_on', channel=6, note=55, velocity=110, time=0),
    Message('note_on', channel=6, note=50, velocity=110, time=0),
    Message('note_off', channel=6, note=55, velocity=110, time=96),
    Message('note_off', channel=6, note=50, velocity=110, time=0),
    Message('note_on', channel=6, note=55, velocity=110, time=96),
    Message('note_off', channel=6, note=55, velocity=110, time=48),
    Message('note_on', channel=6, note=57, velocity=110, time=0),
    Message('note_off', channel=6, note=57, velocity=110, time=48),
    Message('note_on', channel=6, note=55, velocity=110, time=0),
    Message('note_off', channel=6, note=55, velocity=110, time=96),
    Message('note_on', channel=6, note=57, velocity=120, time=0),
    Message('note_on', channel=6, note=52, velocity=120, time=0),
    Message('note_off', channel=6, note=57, velocity=120, time=96),
    Message('note_off', channel=6, note=52, velocity=120, time=0),
    Message('note_on', channel=6, note=40, velocity=110, time=0),
    Message('note_off', channel=6, note=40, velocity=110, time=96),
    Message('note_on', channel=6, note=56, velocity=110, time=0),
    Message('note_on', channel=6, note=51, velocity=110, time=0),
    Message('note_off', channel=6, note=56, velocity=110, time=96),
    Message('note_off', channel=6, note=51, velocity=110, time=0),
    Message('note_on', channel=6, note=40, velocity=110, time=0),
    Message('note_off', channel=6, note=40, velocity=110, time=96),
    Message('note_on', channel=6, note=55, velocity=110, time=0),
    Message('note_on', channel=6, note=50, velocity=110, time=0),
    Message('note_off', channel=6, note=55, velocity=110, time=96),
    Message('note_off', channel=6, note=50, velocity=110, time=0),
    Message('note_on', channel=6, note=55, velocity=110, time=96),
    Message('note_off', channel=6, note=55, velocity=110, time=48),
    Message('note_on', channel=6, note=57, velocity=110, time=0),
    Message('note_off', channel=6, note=57, velocity=110, time=48),
    Message('note_on', channel=6, note=55, velocity=110, time=0),
    Message('note_off', channel=6, note=55, velocity=110, time=96),
    Message('note_on', channel=6, note=57, velocity=120, time=0),
    Message('note_on', channel=6, note=52, velocity=120, time=0),
    Message('note_off', channel=6, note=57, velocity=120, time=96),
    Message('note_off', channel=6, note=52, velocity=120, time=0),
    Message('note_on', channel=6, note=40, velocity=110, time=0),
    Message('note_off', channel=6, note=40, velocity=110, time=96),
    Message('note_on', channel=6, note=56, velocity=110, time=0),
    Message('note_on', channel=6, note=51, velocity=110, time=0),
    Message('note_off', channel=6, note=56, velocity=110, time=96),
    Message('note_off', channel=6, note=51, velocity=110, time=0),
    Message('note_on', channel=6, note=40, velocity=110, time=0),
    Message('note_off', channel=6, note=40, velocity=110, time=96),
    Message('note_on', channel=6, note=55, velocity=110, time=0),
    Message('note_on', channel=6, note=50, velocity=110, time=0),
    Message('note_off', channel=6, note=55, velocity=110, time=96),
    Message('note_off', channel=6, note=50, velocity=110, time=0),
    Message('note_on', channel=6, note=55, velocity=110, time=96),
    Message('note_off', channel=6, note=55, velocity=110, time=48),
    Message('note_on', channel=6, note=57, velocity=110, time=0),
    Message('note_off', channel=6, note=57, velocity=110, time=48),
    Message('note_on', channel=6, note=55, velocity=110, time=0),
    Message('note_off', channel=6, note=55, velocity=110, time=96),
    Message('note_on', channel=6, note=57, velocity=120, time=0),
    Message('note_on', channel=6, note=52, velocity=120, time=0),
    Message('note_off', channel=6, note=57, velocity=120, time=96),
    Message('note_off', channel=6, note=52, velocity=120, time=0),
    Message('note_on', channel=6, note=40, velocity=110, time=0),
    Message('note_off', channel=6, note=40, velocity=110, time=96),
    Message('note_on', channel=6, note=56, velocity=110, time=0),
    Message('note_on', channel=6, note=51, velocity=110, time=0),
    Message('note_off', channel=6, note=56, velocity=110, time=96),
    Message('note_off', channel=6, note=51, velocity=110, time=0),
    Message('note_on', channel=6, note=40, velocity=110, time=0),
    Message('note_off', channel=6, note=40, velocity=110, time=96),
    Message('note_on', channel=6, note=55, velocity=110, time=0),
    Message('note_on', channel=6, note=50, velocity=110, time=0),
    Message('note_off', channel=6, note=55, velocity=110, time=96),
    Message('note_off', channel=6, note=50, velocity=110, time=0),
    Message('note_on', channel=6, note=55, velocity=110, time=96),
    Message('note_off', channel=6, note=55, velocity=110, time=48),
    Message('note_on', channel=6, note=57, velocity=110, time=0),
    Message('note_off', channel=6, note=57, velocity=110, time=48),
    Message('note_on', channel=6, note=55, velocity=110, time=0),
    Message('note_off', channel=6, note=55, velocity=110, time=96),
    Message('note_on', channel=6, note=57, velocity=120, time=0),
    Message('note_on', channel=6, note=52, velocity=120, time=0),
    Message('note_off', channel=6, note=57, velocity=120, time=96),
    Message('note_off', channel=6, note=52, velocity=120, time=0),
    Message('note_on', channel=6, note=40, velocity=110, time=0),
    Message('note_off', channel=6, note=40, velocity=110, time=96),
    Message('note_on', channel=6, note=56, velocity=110, time=0),
    Message('note_on', channel=6, note=51, velocity=110, time=0),
    Message('note_off', channel=6, note=56, velocity=110, time=96),
    Message('note_off', channel=6, note=51, velocity=110, time=0),
    Message('note_on', channel=6, note=40, velocity=110, time=0),
    Message('note_off', channel=6, note=40, velocity=110, time=96),
    Message('note_on', channel=6, note=55, velocity=110, time=0),
    Message('note_on', channel=6, note=50, velocity=110, time=0),
    Message('note_off', channel=6, note=55, velocity=110, time=96),
    Message('note_off', channel=6, note=50, velocity=110, time=0),
    Message('note_on', channel=6, note=55, velocity=110, time=96),
    Message('note_off', channel=6, note=55, velocity=110, time=48),
    Message('note_on', channel=6, note=57, velocity=110, time=0),
    Message('note_off', channel=6, note=57, velocity=110, time=48),
    Message('note_on', channel=6, note=55, velocity=110, time=0),
    Message('note_off', channel=6, note=55, velocity=110, time=96),
    Message('note_on', channel=6, note=57, velocity=120, time=0),
    Message('note_on', channel=6, note=52, velocity=120, time=0),
    Message('note_off', channel=6, note=57, velocity=120, time=96),
    Message('note_off', channel=6, note=52, velocity=120, time=0),
    Message('note_on', channel=6, note=40, velocity=110, time=0),
    Message('note_off', channel=6, note=40, velocity=110, time=96),
    Message('note_on', channel=6, note=56, velocity=120, time=0),
    Message('note_on', channel=6, note=51, velocity=120, time=0),
    Message('note_off', channel=6, note=56, velocity=120, time=96),
    Message('note_off', channel=6, note=51, velocity=120, time=0),
    Message('note_on', channel=6, note=40, velocity=110, time=0),
    Message('note_off', channel=6, note=40, velocity=110, time=96),
    Message('note_on', channel=6, note=55, velocity=120, time=0),
    Message('note_on', channel=6, note=50, velocity=120, time=0),
    Message('note_off', channel=6, note=55, velocity=120, time=84),
    Message('note_off', channel=6, note=50, velocity=120, time=0),
    Message('note_on', channel=6, note=50, velocity=110, time=12),
    Message('note_on', channel=6, note=55, velocity=110, time=0),
    Message('note_off', channel=6, note=50, velocity=110, time=1),
    Message('note_off', channel=6, note=55, velocity=110, time=0),
    Message('note_on', channel=6, note=49, velocity=110, time=11),
    Message('note_on', channel=6, note=54, velocity=110, time=0),
    Message('note_off', channel=6, note=49, velocity=110, time=1),
    Message('note_off', channel=6, note=54, velocity=110, time=0),
    Message('note_on', channel=6, note=48, velocity=110, time=11),
    Message('note_on', channel=6, note=53, velocity=110, time=0),
    Message('note_off', channel=6, note=48, velocity=110, time=1),
    Message('note_off', channel=6, note=53, velocity=110, time=0),
    Message('note_on', channel=6, note=47, velocity=110, time=11),
    Message('note_on', channel=6, note=52, velocity=110, time=0),
    Message('note_off', channel=6, note=47, velocity=110, time=1),
    Message('note_off', channel=6, note=52, velocity=110, time=0),
    Message('note_on', channel=6, note=52, velocity=110, time=11),
    Message('note_on', channel=6, note=47, velocity=110, time=0),
    Message('note_off', channel=6, note=52, velocity=110, time=1),
    Message('note_off', channel=6, note=47, velocity=110, time=0),
    Message('note_on', channel=6, note=47, velocity=110, time=11),
    Message('note_on', channel=6, note=52, velocity=110, time=0),
    Message('note_off', channel=6, note=47, velocity=110, time=1),
    Message('note_off', channel=6, note=52, velocity=110, time=0),
    Message('note_on', channel=6, note=47, velocity=110, time=11),
    Message('note_on', channel=6, note=52, velocity=110, time=0),
    Message('note_off', channel=6, note=47, velocity=110, time=1),
    Message('note_off', channel=6, note=52, velocity=110, time=0),
    Message('note_on', channel=6, note=51, velocity=110, time=11),
    Message('note_on', channel=6, note=46, velocity=110, time=0),
    Message('note_off', channel=6, note=51, velocity=110, time=1),
    Message('note_off', channel=6, note=46, velocity=110, time=0),
    Message('note_on', channel=6, note=50, velocity=110, time=11),
    Message('note_on', channel=6, note=45, velocity=110, time=0),
    Message('note_on', channel=6, note=40, velocity=110, time=0),
    Message('note_off', channel=6, note=50, velocity=110, time=1),
    Message('note_off', channel=6, note=45, velocity=110, time=0),
    Message('note_off', channel=6, note=40, velocity=110, time=95),
    Message('note_on', channel=6, note=40, velocity=110, time=0),
    Message('note_off', channel=6, note=40, velocity=110, time=96),
    Message('note_on', channel=6, note=50, velocity=120, time=0),
    Message('note_off', channel=6, note=50, velocity=120, time=192),
    Message('note_on', channel=6, note=47, velocity=110, time=0),
    Message('note_off', channel=6, note=47, velocity=110, time=96),
    Message('note_on', channel=6, note=46, velocity=110, time=0),
    Message('note_off', channel=6, note=46, velocity=110, time=96),
    Message('note_on', channel=6, note=45, velocity=110, time=0),
    Message('note_off', channel=6, note=45, velocity=110, time=96),
    Message('note_on', channel=6, note=43, velocity=110, time=0),
    Message('note_off', channel=6, note=43, velocity=110, time=96),
    Message('note_on', channel=6, note=42, velocity=110, time=0),
    Message('note_off', channel=6, note=42, velocity=110, time=96),
    Message('note_on', channel=6, note=41, velocity=110, time=0),
    Message('note_off', channel=6, note=41, velocity=110, time=96),
    Message('note_on', channel=6, note=40, velocity=120, time=0),
    Message('note_off', channel=6, note=40, velocity=120, time=288),
    Message('note_on', channel=6, note=59, velocity=110, time=0),
    Message('note_on', channel=6, note=52, velocity=110, time=0),
    Message('note_off', channel=6, note=59, velocity=110, time=288),
    Message('note_off', channel=6, note=52, velocity=110, time=0),
    Message('note_on', channel=6, note=58, velocity=110, time=0),
    Message('note_on', channel=6, note=51, velocity=110, time=0),
    Message('note_off', channel=6, note=58, velocity=110, time=192),
    Message('note_off', channel=6, note=51, velocity=110, time=0),
    Message('note_on', channel=6, note=40, velocity=110, time=0),
    Message('note_off', channel=6, note=40, velocity=110, time=96),
    Message('note_on', channel=6, note=57, velocity=110, time=0),
    Message('note_on', channel=6, note=52, velocity=110, time=0),
    Message('note_off', channel=6, note=57, velocity=110, time=96),
    Message('note_off', channel=6, note=52, velocity=110, time=0),
    Message('note_on', channel=6, note=50, velocity=110, time=0),
    Message('note_off', channel=6, note=50, velocity=110, time=192),
    Message('note_on', channel=6, note=56, velocity=110, time=0),
    Message('note_off', channel=6, note=56, velocity=110, time=192),
    Message('note_on', channel=6, note=52, velocity=110, time=0),
    Message('note_off', channel=6, note=52, velocity=110, time=96),
    Message('note_on', channel=6, note=47, velocity=110, time=0),
    Message('note_off', channel=6, note=47, velocity=110, time=96),
    Message('note_on', channel=6, note=47, velocity=110, time=12),
    Message('note_off', channel=6, note=47, velocity=110, time=1),
    Message('note_on', channel=6, note=46, velocity=110, time=11),
    Message('note_off', channel=6, note=46, velocity=110, time=1),
    Message('note_on', channel=6, note=45, velocity=110, time=11),
    Message('note_off', channel=6, note=45, velocity=110, time=1),
    Message('note_on', channel=6, note=44, velocity=110, time=11),
    Message('note_off', channel=6, note=44, velocity=110, time=1),
    Message('note_on', channel=6, note=43, velocity=110, time=11),
    Message('note_off', channel=6, note=43, velocity=110, time=1),
    Message('note_on', channel=6, note=42, velocity=110, time=11),
    Message('note_off', channel=6, note=42, velocity=110, time=1),
    Message('note_on', channel=6, note=41, velocity=110, time=11),
    Message('note_off', channel=6, note=41, velocity=110, time=1),
    Message('note_on', channel=6, note=40, velocity=120, time=11),
    Message('note_off', channel=6, note=40, velocity=120, time=192),
    Message('note_on', channel=6, note=55, velocity=110, time=0),
    Message('note_on', channel=6, note=48, velocity=110, time=0),
    Message('note_off', channel=6, note=55, velocity=110, time=288),
    Message('note_off', channel=6, note=48, velocity=110, time=0),
    Message('note_on', channel=6, note=54, velocity=110, time=0),
    Message('note_off', channel=6, note=54, velocity=110, time=192),
    Message('note_on', channel=6, note=40, velocity=110, time=0),
    Message('note_off', channel=6, note=40, velocity=110, time=96),
    Message('note_on', channel=6, note=57, velocity=120, time=0),
    Message('note_on', channel=6, note=50, velocity=120, time=0),
    Message('note_off', channel=6, note=57, velocity=120, time=288),
    Message('note_off', channel=6, note=50, velocity=120, time=0),
    Message('note_on', channel=6, note=55, velocity=110, time=0),
    Message('note_off', channel=6, note=55, velocity=110, time=96),
    Message('note_on', channel=6, note=54, velocity=110, time=0),
    Message('note_off', channel=6, note=54, velocity=110, time=96),
    Message('note_on', channel=6, note=50, velocity=110, time=0),
    Message('note_off', channel=6, note=50, velocity=110, time=96),
    Message('note_on', channel=6, note=47, velocity=110, time=0),
    Message('note_off', channel=6, note=47, velocity=110, time=192),
    Message('note_on', channel=6, note=40, velocity=120, time=0),
    Message('note_off', channel=6, note=40, velocity=120, time=192),
    Message('note_on', channel=6, note=59, velocity=110, time=0),
    Message('note_on', channel=6, note=50, velocity=110, time=0),
    Message('note_off', channel=6, note=59, velocity=110, time=288),
    Message('note_off', channel=6, note=50, velocity=110, time=0),
    Message('note_on', channel=6, note=58, velocity=110, time=0),
    Message('note_on', channel=6, note=49, velocity=110, time=0),
    Message('note_off', channel=6, note=58, velocity=110, time=192),
    Message('note_off', channel=6, note=49, velocity=110, time=0),
    Message('note_on', channel=6, note=40, velocity=110, time=0),
    Message('note_off', channel=6, note=40, velocity=110, time=96),
    Message('note_on', channel=6, note=57, velocity=110, time=0),
    Message('note_on', channel=6, note=52, velocity=110, time=0),
    Message('note_off', channel=6, note=57, velocity=110, time=288),
    Message('note_off', channel=6, note=52, velocity=110, time=0),
    Message('note_on', channel=6, note=56, velocity=110, time=0),
    Message('note_off', channel=6, note=56, velocity=110, time=192),
    Message('note_on', channel=6, note=52, velocity=110, time=0),
    Message('note_off', channel=6, note=52, velocity=110, time=96),
    Message('note_on', channel=6, note=47, velocity=110, time=0),
    Message('note_off', channel=6, note=47, velocity=110, time=96),
    Message('note_on', channel=6, note=47, velocity=110, time=12),
    Message('note_off', channel=6, note=47, velocity=110, time=1),
    Message('note_on', channel=6, note=46, velocity=110, time=11),
    Message('note_off', channel=6, note=46, velocity=110, time=1),
    Message('note_on', channel=6, note=45, velocity=110, time=11),
    Message('note_off', channel=6, note=45, velocity=110, time=1),
    Message('note_on', channel=6, note=44, velocity=110, time=11),
    Message('note_off', channel=6, note=44, velocity=110, time=1),
    Message('note_on', channel=6, note=43, velocity=110, time=11),
    Message('note_off', channel=6, note=43, velocity=110, time=1),
    Message('note_on', channel=6, note=42, velocity=110, time=11),
    Message('note_off', channel=6, note=42, velocity=110, time=1),
    Message('note_on', channel=6, note=41, velocity=110, time=11),
    Message('note_off', channel=6, note=41, velocity=110, time=1),
    Message('note_on', channel=6, note=40, velocity=120, time=11),
    Message('note_off', channel=6, note=40, velocity=120, time=192),
    Message('note_on', channel=6, note=55, velocity=110, time=0),
    Message('note_on', channel=6, note=48, velocity=110, time=0),
    Message('note_off', channel=6, note=55, velocity=110, time=288),
    Message('note_off', channel=6, note=48, velocity=110, time=0),
    Message('note_on', channel=6, note=54, velocity=110, time=0),
    Message('note_off', channel=6, note=54, velocity=110, time=192),
    Message('note_on', channel=6, note=40, velocity=110, time=0),
    Message('note_off', channel=6, note=40, velocity=110, time=96),
    Message('note_on', channel=6, note=57, velocity=110, time=0),
    Message('note_on', channel=6, note=50, velocity=110, time=0),
    Message('note_off', channel=6, note=57, velocity=110, time=96),
    Message('note_off', channel=6, note=50, velocity=110, time=0),
    Message('note_on', channel=6, note=50, velocity=110, time=0),
    Message('note_on', channel=6, note=57, velocity=110, time=0),
    Message('note_off', channel=6, note=50, velocity=110, time=96),
    Message('note_off', channel=6, note=57, velocity=110, time=0),
    Message('note_on', channel=6, note=50, velocity=110, time=0),
    Message('note_on', channel=6, note=57, velocity=110, time=0),
    Message('note_off', channel=6, note=50, velocity=110, time=96),
    Message('note_off', channel=6, note=57, velocity=110, time=0),
    Message('note_on', channel=6, note=50, velocity=110, time=0),
    Message('note_on', channel=6, note=57, velocity=110, time=0),
    Message('note_off', channel=6, note=50, velocity=110, time=96),
    Message('note_off', channel=6, note=57, velocity=110, time=0),
    Message('note_on', channel=6, note=57, velocity=120, time=0),
    Message('note_on', channel=6, note=50, velocity=120, time=0),
    Message('note_off', channel=6, note=57, velocity=120, time=288),
    Message('note_off', channel=6, note=50, velocity=120, time=0),
    Message('note_on', channel=6, note=57, velocity=110, time=0),
    Message('note_off', channel=6, note=57, velocity=110, time=1),
    Message('note_on', channel=6, note=50, velocity=110, time=11),
    Message('note_on', channel=6, note=56, velocity=110, time=0),
    Message('note_off', channel=6, note=50, velocity=110, time=1),
    Message('note_off', channel=6, note=56, velocity=110, time=0),
    Message('note_on', channel=6, note=49, velocity=110, time=11),
    Message('note_on', channel=6, note=55, velocity=110, time=0),
    Message('note_off', channel=6, note=49, velocity=110, time=1),
    Message('note_off', channel=6, note=55, velocity=110, time=0),
    Message('note_on', channel=6, note=48, velocity=110, time=11),
    Message('note_on', channel=6, note=54, velocity=110, time=0),
    Message('note_off', channel=6, note=48, velocity=110, time=1),
    Message('note_off', channel=6, note=54, velocity=110, time=0),
    Message('note_on', channel=6, note=47, velocity=110, time=11),
    Message('note_on', channel=6, note=53, velocity=110, time=0),
    Message('note_off', channel=6, note=47, velocity=110, time=1),
    Message('note_off', channel=6, note=53, velocity=110, time=0),
    Message('note_on', channel=6, note=46, velocity=110, time=11),
    Message('note_on', channel=6, note=52, velocity=110, time=0),
    Message('note_off', channel=6, note=46, velocity=110, time=1),
    Message('note_off', channel=6, note=52, velocity=110, time=0),
    Message('note_on', channel=6, note=45, velocity=110, time=11),
    Message('note_on', channel=6, note=51, velocity=110, time=0),
    Message('note_off', channel=6, note=45, velocity=110, time=1),
    Message('note_off', channel=6, note=51, velocity=110, time=0),
    Message('note_on', channel=6, note=44, velocity=110, time=11),
    Message('note_on', channel=6, note=50, velocity=110, time=0),
    Message('note_off', channel=6, note=44, velocity=110, time=1),
    Message('note_off', channel=6, note=50, velocity=110, time=0),
    Message('note_on', channel=6, note=40, velocity=120, time=11),
    Message('note_off', channel=6, note=40, velocity=120, time=192),
    Message('note_on', channel=6, note=59, velocity=110, time=0),
    Message('note_off', channel=6, note=59, velocity=110, time=96),
    Message('note_on', channel=6, note=57, velocity=110, time=0),
    Message('note_off', channel=6, note=57, velocity=110, time=96),
    Message('note_on', channel=6, note=52, velocity=110, time=0),
    Message('note_off', channel=6, note=52, velocity=110, time=96),
    Message('note_on', channel=6, note=58, velocity=110, time=0),
    Message('note_off', channel=6, note=58, velocity=110, time=96),
    Message('note_on', channel=6, note=57, velocity=110, time=0),
    Message('note_off', channel=6, note=57, velocity=110, time=96),
    Message('note_on', channel=6, note=52, velocity=110, time=0),
    Message('note_off', channel=6, note=52, velocity=110, time=96),
    Message('note_on', channel=6, note=57, velocity=110, time=0),
    Message('note_off', channel=6, note=57, velocity=110, time=96),
    Message('note_on', channel=6, note=50, velocity=110, time=0),
    Message('note_off', channel=6, note=50, velocity=110, time=96),
    Message('note_on', channel=6, note=52, velocity=110, time=0),
    Message('note_off', channel=6, note=52, velocity=110, time=96),
    Message('note_on', channel=6, note=56, velocity=110, time=0),
    Message('note_off', channel=6, note=56, velocity=110, time=192),
    Message('note_on', channel=6, note=52, velocity=110, time=0),
    Message('note_off', channel=6, note=52, velocity=110, time=96),
    Message('note_on', channel=6, note=47, velocity=110, time=0),
    Message('note_off', channel=6, note=47, velocity=110, time=96),
    Message('note_on', channel=6, note=47, velocity=110, time=0),
    Message('note_off', channel=6, note=47, velocity=110, time=1),
    Message('note_on', channel=6, note=46, velocity=110, time=11),
    Message('note_off', channel=6, note=46, velocity=110, time=1),
    Message('note_on', channel=6, note=45, velocity=110, time=11),
    Message('note_off', channel=6, note=45, velocity=110, time=1),
    Message('note_on', channel=6, note=44, velocity=110, time=11),
    Message('note_off', channel=6, note=44, velocity=110, time=1),
    Message('note_on', channel=6, note=43, velocity=110, time=11),
    Message('note_off', channel=6, note=43, velocity=110, time=1),
    Message('note_on', channel=6, note=42, velocity=110, time=11),
    Message('note_off', channel=6, note=42, velocity=110, time=1),
    Message('note_on', channel=6, note=41, velocity=110, time=11),
    Message('note_off', channel=6, note=41, velocity=110, time=1),
    Message('note_on', channel=6, note=40, velocity=110, time=11),
    Message('note_off', channel=6, note=40, velocity=110, time=1),
    Message('note_on', channel=6, note=40, velocity=110, time=11),
    Message('note_off', channel=6, note=40, velocity=110, time=192),
    Message('note_on', channel=6, note=55, velocity=110, time=0),
    Message('note_on', channel=6, note=48, velocity=110, time=0),
    Message('note_off', channel=6, note=55, velocity=110, time=288),
    Message('note_off', channel=6, note=48, velocity=110, time=0),
    Message('note_on', channel=6, note=54, velocity=110, time=0),
    Message('note_off', channel=6, note=54, velocity=110, time=192),
    Message('note_on', channel=6, note=40, velocity=110, time=0),
    Message('note_off', channel=6, note=40, velocity=110, time=96),
    Message('note_on', channel=6, note=57, velocity=110, time=0),
    Message('note_on', channel=6, note=50, velocity=110, time=0),
    Message('note_off', channel=6, note=57, velocity=110, time=288),
    Message('note_off', channel=6, note=50, velocity=110, time=0),
    Message('note_on', channel=6, note=55, velocity=110, time=0),
    Message('note_off', channel=6, note=55, velocity=110, time=96),
    Message('note_on', channel=6, note=54, velocity=110, time=0),
    Message('note_off', channel=6, note=54, velocity=110, time=96),
    Message('note_on', channel=6, note=50, velocity=110, time=0),
    Message('note_off', channel=6, note=50, velocity=110, time=96),
    Message('note_on', channel=6, note=47, velocity=110, time=0),
    Message('note_off', channel=6, note=47, velocity=110, time=192),
    Message('note_on', channel=6, note=40, velocity=120, time=0),
    Message('note_off', channel=6, note=40, velocity=120, time=192),
    Message('note_on', channel=6, note=59, velocity=110, time=0),
    Message('note_on', channel=6, note=52, velocity=110, time=0),
    Message('note_off', channel=6, note=59, velocity=110, time=288),
    Message('note_off', channel=6, note=52, velocity=110, time=0),
    Message('note_on', channel=6, note=51, velocity=110, time=0),
    Message('note_on', channel=6, note=58, velocity=110, time=0),
    Message('note_off', channel=6, note=51, velocity=110, time=192),
    Message('note_off', channel=6, note=58, velocity=110, time=0),
    Message('note_on', channel=6, note=40, velocity=110, time=0),
    Message('note_off', channel=6, note=40, velocity=110, time=96),
    Message('note_on', channel=6, note=57, velocity=110, time=0),
    Message('note_off', channel=6, note=57, velocity=110, time=96),
    Message('note_on', channel=6, note=50, velocity=110, time=0),
    Message('note_off', channel=6, note=50, velocity=110, time=96),
    Message('note_on', channel=6, note=52, velocity=110, time=0),
    Message('note_off', channel=6, note=52, velocity=110, time=96),
    Message('note_on', channel=6, note=56, velocity=110, time=0),
    Message('note_off', channel=6, note=56, velocity=110, time=192),
    Message('note_on', channel=6, note=52, velocity=110, time=0),
    Message('note_off', channel=6, note=52, velocity=110, time=96),
    Message('note_on', channel=6, note=47, velocity=110, time=0),
    Message('note_off', channel=6, note=47, velocity=110, time=96),
    Message('note_on', channel=6, note=47, velocity=110, time=0),
    Message('note_off', channel=6, note=47, velocity=110, time=1),
    Message('note_on', channel=6, note=46, velocity=110, time=11),
    Message('note_off', channel=6, note=46, velocity=110, time=1),
    Message('note_on', channel=6, note=45, velocity=110, time=11),
    Message('note_off', channel=6, note=45, velocity=110, time=1),
    Message('note_on', channel=6, note=44, velocity=110, time=11),
    Message('note_off', channel=6, note=44, velocity=110, time=1),
    Message('note_on', channel=6, note=43, velocity=110, time=11),
    Message('note_off', channel=6, note=43, velocity=110, time=1),
    Message('note_on', channel=6, note=42, velocity=110, time=11),
    Message('note_off', channel=6, note=42, velocity=110, time=1),
    Message('note_on', channel=6, note=41, velocity=110, time=11),
    Message('note_off', channel=6, note=41, velocity=110, time=1),
    Message('note_on', channel=6, note=40, velocity=110, time=11),
    Message('note_off', channel=6, note=40, velocity=110, time=1),
    Message('note_on', channel=6, note=40, velocity=110, time=11),
    Message('note_off', channel=6, note=40, velocity=110, time=192),
    Message('note_on', channel=6, note=55, velocity=110, time=0),
    Message('note_on', channel=6, note=48, velocity=110, time=0),
    Message('note_off', channel=6, note=55, velocity=110, time=288),
    Message('note_off', channel=6, note=48, velocity=110, time=0),
    Message('note_on', channel=6, note=54, velocity=110, time=0),
    Message('note_off', channel=6, note=54, velocity=110, time=192),
    Message('note_on', channel=6, note=40, velocity=110, time=0),
    Message('note_off', channel=6, note=40, velocity=110, time=96),
    Message('note_on', channel=6, note=57, velocity=110, time=0),
    Message('note_on', channel=6, note=50, velocity=110, time=0),
    Message('note_off', channel=6, note=57, velocity=110, time=288),
    Message('note_off', channel=6, note=50, velocity=110, time=0),
    Message('note_on', channel=6, note=55, velocity=110, time=0),
    Message('note_off', channel=6, note=55, velocity=110, time=96),
    Message('note_on', channel=6, note=54, velocity=110, time=0),
    Message('note_off', channel=6, note=54, velocity=110, time=96),
    Message('note_on', channel=6, note=50, velocity=110, time=0),
    Message('note_off', channel=6, note=50, velocity=110, time=96),
    Message('note_on', channel=6, note=47, velocity=110, time=0),
    Message('note_off', channel=6, note=47, velocity=110, time=192),
    Message('note_on', channel=6, note=40, velocity=110, time=0),
    Message('note_off', channel=6, note=40, velocity=110, time=192),
    Message('note_on', channel=6, note=55, velocity=110, time=0),
    Message('note_on', channel=6, note=48, velocity=110, time=0),
    Message('note_off', channel=6, note=55, velocity=110, time=288),
    Message('note_off', channel=6, note=48, velocity=110, time=0),
    Message('note_on', channel=6, note=54, velocity=110, time=0),
    Message('note_off', channel=6, note=54, velocity=110, time=192),
    Message('note_on', channel=6, note=40, velocity=110, time=0),
    Message('note_off', channel=6, note=40, velocity=110, time=96),
    Message('note_on', channel=6, note=57, velocity=110, time=0),
    Message('note_on', channel=6, note=50, velocity=110, time=0),
    Message('note_off', channel=6, note=57, velocity=110, time=96),
    Message('note_off', channel=6, note=50, velocity=110, time=0),
    Message('note_on', channel=6, note=50, velocity=110, time=0),
    Message('note_on', channel=6, note=57, velocity=110, time=0),
    Message('note_off', channel=6, note=50, velocity=110, time=96),
    Message('note_off', channel=6, note=57, velocity=110, time=0),
    Message('note_on', channel=6, note=50, velocity=110, time=0),
    Message('note_on', channel=6, note=57, velocity=110, time=0),
    Message('note_off', channel=6, note=50, velocity=110, time=96),
    Message('note_off', channel=6, note=57, velocity=110, time=0),
    Message('note_on', channel=6, note=50, velocity=110, time=0),
    Message('note_on', channel=6, note=57, velocity=110, time=0),
    Message('note_off', channel=6, note=50, velocity=110, time=96),
    Message('note_off', channel=6, note=57, velocity=110, time=0),
    Message('note_on', channel=6, note=57, velocity=120, time=0),
    Message('note_on', channel=6, note=50, velocity=120, time=0),
    Message('note_off', channel=6, note=57, velocity=120, time=288),
    Message('note_off', channel=6, note=50, velocity=120, time=0),
    Message('note_on', channel=6, note=57, velocity=110, time=0),
    Message('note_off', channel=6, note=57, velocity=110, time=1),
    Message('note_on', channel=6, note=50, velocity=110, time=11),
    Message('note_on', channel=6, note=56, velocity=110, time=0),
    Message('note_off', channel=6, note=50, velocity=110, time=1),
    Message('note_off', channel=6, note=56, velocity=110, time=0),
    Message('note_on', channel=6, note=49, velocity=110, time=11),
    Message('note_on', channel=6, note=55, velocity=110, time=0),
    Message('note_off', channel=6, note=49, velocity=110, time=1),
    Message('note_off', channel=6, note=55, velocity=110, time=0),
    Message('note_on', channel=6, note=48, velocity=110, time=11),
    Message('note_on', channel=6, note=54, velocity=110, time=0),
    Message('note_off', channel=6, note=48, velocity=110, time=1),
    Message('note_off', channel=6, note=54, velocity=110, time=0),
    Message('note_on', channel=6, note=47, velocity=110, time=11),
    Message('note_on', channel=6, note=53, velocity=110, time=0),
    Message('note_off', channel=6, note=47, velocity=110, time=1),
    Message('note_off', channel=6, note=53, velocity=110, time=0),
    Message('note_on', channel=6, note=46, velocity=110, time=11),
    Message('note_on', channel=6, note=52, velocity=110, time=0),
    Message('note_off', channel=6, note=46, velocity=110, time=1),
    Message('note_off', channel=6, note=52, velocity=110, time=0),
    Message('note_on', channel=6, note=45, velocity=110, time=11),
    Message('note_on', channel=6, note=51, velocity=110, time=0),
    Message('note_off', channel=6, note=45, velocity=110, time=1),
    Message('note_off', channel=6, note=51, velocity=110, time=0),
    Message('note_on', channel=6, note=44, velocity=110, time=11),
    Message('note_on', channel=6, note=50, velocity=110, time=0),
    Message('note_off', channel=6, note=44, velocity=110, time=1),
    Message('note_off', channel=6, note=50, velocity=110, time=0),
    Message('note_on', channel=6, note=48, velocity=110, time=11),
    Message('note_on', channel=6, note=41, velocity=110, time=0),
    Message('note_off', channel=6, note=48, velocity=110, time=96),
    Message('note_off', channel=6, note=41, velocity=110, time=0),
    Message('note_on', channel=6, note=40, velocity=110, time=0),
    Message('note_on', channel=6, note=47, velocity=110, time=0),
    Message('note_off', channel=6, note=40, velocity=110, time=96),
    Message('note_off', channel=6, note=47, velocity=110, time=0),
    Message('note_on', channel=6, note=47, velocity=110, time=96),
    Message('note_on', channel=6, note=40, velocity=110, time=0),
    Message('note_off', channel=6, note=47, velocity=110, time=96),
    Message('note_off', channel=6, note=40, velocity=110, time=0),
    MetaMessage('end_of_track', time=500)]),
  MidiTrack([
    MetaMessage('track_name', name='Marty Friedman      : Channel 2', time=0),
    MetaMessage('device_name', name='None', time=0),
    Message('program_change', channel=2, program=29, time=0),
    Message('control_change', channel=2, control=7, value=80, time=0),
    Message('control_change', channel=2, control=10, value=82, time=0),
    Message('note_on', channel=2, note=41, velocity=110, time=480),
    Message('note_off', channel=2, note=41, velocity=110, time=96),
    Message('note_on', channel=2, note=43, velocity=110, time=0),
    Message('note_off', channel=2, note=43, velocity=110, time=96),
    Message('note_on', channel=2, note=41, velocity=110, time=0),
    Message('note_off', channel=2, note=41, velocity=110, time=96),
    Message('note_on', channel=2, note=48, velocity=110, time=0),
    Message('note_on', channel=2, note=41, velocity=110, time=0),
    Message('note_off', channel=2, note=48, velocity=110, time=96),
    Message('note_off', channel=2, note=41, velocity=110, time=0),
    Message('note_on', channel=2, note=40, velocity=110, time=0),
    Message('note_on', channel=2, note=47, velocity=110, time=0),
    Message('note_off', channel=2, note=40, velocity=110, time=96),
    Message('note_off', channel=2, note=47, velocity=110, time=0),
    Message('note_on', channel=2, note=47, velocity=110, time=96),
    Message('note_on', channel=2, note=40, velocity=110, time=0),
    Message('note_off', channel=2, note=47, velocity=110, time=96),
    Message('note_off', channel=2, note=40, velocity=110, time=0),
    Message('note_on', channel=2, note=41, velocity=110, time=384),
    Message('note_on', channel=2, note=48, velocity=110, time=0),
    Message('note_off', channel=2, note=41, velocity=110, time=96),
    Message('note_off', channel=2, note=48, velocity=110, time=0),
    Message('note_on', channel=2, note=47, velocity=110, time=0),
    Message('note_on', channel=2, note=40, velocity=110, time=0),
    Message('note_off', channel=2, note=47, velocity=110, time=96),
    Message('note_off', channel=2, note=40, velocity=110, time=0),
    Message('note_on', channel=2, note=40, velocity=110, time=96),
    Message('note_on', channel=2, note=47, velocity=110, time=0),
    Message('note_off', channel=2, note=40, velocity=110, time=96),
    Message('note_off', channel=2, note=47, velocity=110, time=0),
    Message('note_on', channel=2, note=41, velocity=110, time=96),
    Message('note_off', channel=2, note=41, velocity=110, time=96),
    Message('note_on', channel=2, note=43, velocity=110, time=0),
    Message('note_off', channel=2, note=43, velocity=110, time=96),
    Message('note_on', channel=2, note=41, velocity=110, time=0),
    Message('note_off', channel=2, note=41, velocity=110, time=96),
    Message('note_on', channel=2, note=48, velocity=110, time=0),
    Message('note_on', channel=2, note=41, velocity=110, time=0),
    Message('note_off', channel=2, note=48, velocity=110, time=96),
    Message('note_off', channel=2, note=41, velocity=110, time=0),
    Message('note_on', channel=2, note=47, velocity=110, time=0),
    Message('note_on', channel=2, note=40, velocity=110, time=0),
    Message('note_off', channel=2, note=47, velocity=110, time=96),
    Message('note_off', channel=2, note=40, velocity=110, time=0),
    Message('note_on', channel=2, note=47, velocity=110, time=96),
    Message('note_on', channel=2, note=40, velocity=110, time=0),
    Message('note_off', channel=2, note=47, velocity=110, time=96),
    Message('note_off', channel=2, note=40, velocity=110, time=0),
    Message('note_on', channel=2, note=48, velocity=110, time=1152),
    Message('note_on', channel=2, note=41, velocity=110, time=0),
    Message('note_off', channel=2, note=48, velocity=110, time=96),
    Message('note_off', channel=2, note=41, velocity=110, time=0),
    Message('note_on', channel=2, note=40, velocity=110, time=0),
    Message('note_on', channel=2, note=47, velocity=110, time=0),
    Message('note_off', channel=2, note=40, velocity=110, time=96),
    Message('note_off', channel=2, note=47, velocity=110, time=0),
    Message('note_on', channel=2, note=47, velocity=110, time=96),
    Message('note_on', channel=2, note=40, velocity=110, time=0),
    Message('note_off', channel=2, note=47, velocity=110, time=96),
    Message('note_off', channel=2, note=40, velocity=110, time=0),
    Message('note_on', channel=2, note=41, velocity=110, time=384),
    Message('note_on', channel=2, note=48, velocity=110, time=0),
    Message('note_off', channel=2, note=41, velocity=110, time=96),
    Message('note_off', channel=2, note=48, velocity=110, time=0),
    Message('note_on', channel=2, note=47, velocity=110, time=0),
    Message('note_on', channel=2, note=40, velocity=110, time=0),
    Message('note_off', channel=2, note=47, velocity=110, time=96),
    Message('note_off', channel=2, note=40, velocity=110, time=0),
    Message('note_on', channel=2, note=40, velocity=110, time=96),
    Message('note_on', channel=2, note=47, velocity=110, time=0),
    Message('note_off', channel=2, note=40, velocity=110, time=96),
    Message('note_off', channel=2, note=47, velocity=110, time=0),
    Message('note_on', channel=2, note=41, velocity=110, time=96),
    Message('note_off', channel=2, note=41, velocity=110, time=96),
    Message('note_on', channel=2, note=43, velocity=110, time=0),
    Message('note_off', channel=2, note=43, velocity=110, time=96),
    Message('note_on', channel=2, note=41, velocity=110, time=0),
    Message('note_off', channel=2, note=41, velocity=110, time=96),
    Message('note_on', channel=2, note=48, velocity=110, time=0),
    Message('note_on', channel=2, note=41, velocity=110, time=0),
    Message('note_off', channel=2, note=48, velocity=110, time=96),
    Message('note_off', channel=2, note=41, velocity=110, time=0),
    Message('note_on', channel=2, note=47, velocity=110, time=0),
    Message('note_on', channel=2, note=40, velocity=110, time=0),
    Message('note_off', channel=2, note=47, velocity=110, time=96),
    Message('note_off', channel=2, note=40, velocity=110, time=0),
    Message('note_on', channel=2, note=47, velocity=110, time=96),
    Message('note_on', channel=2, note=40, velocity=110, time=0),
    Message('note_off', channel=2, note=47, velocity=110, time=96),
    Message('note_off', channel=2, note=40, velocity=110, time=0),
    Message('note_on', channel=2, note=48, velocity=110, time=1152),
    Message('note_on', channel=2, note=41, velocity=110, time=0),
    Message('note_off', channel=2, note=48, velocity=110, time=96),
    Message('note_off', channel=2, note=41, velocity=110, time=0),
    Message('note_on', channel=2, note=40, velocity=110, time=0),
    Message('note_on', channel=2, note=47, velocity=110, time=0),
    Message('note_off', channel=2, note=40, velocity=110, time=96),
    Message('note_off', channel=2, note=47, velocity=110, time=0),
    Message('note_on', channel=2, note=47, velocity=110, time=96),
    Message('note_on', channel=2, note=40, velocity=110, time=0),
    Message('note_off', channel=2, note=47, velocity=110, time=96),
    Message('note_off', channel=2, note=40, velocity=110, time=0),
    Message('note_on', channel=2, note=41, velocity=110, time=384),
    Message('note_on', channel=2, note=48, velocity=110, time=0),
    Message('note_off', channel=2, note=41, velocity=110, time=96),
    Message('note_off', channel=2, note=48, velocity=110, time=0),
    Message('note_on', channel=2, note=47, velocity=110, time=0),
    Message('note_on', channel=2, note=40, velocity=110, time=0),
    Message('note_off', channel=2, note=47, velocity=110, time=96),
    Message('note_off', channel=2, note=40, velocity=110, time=0),
    Message('note_on', channel=2, note=40, velocity=110, time=96),
    Message('note_on', channel=2, note=47, velocity=110, time=0),
    Message('note_off', channel=2, note=40, velocity=110, time=96),
    Message('note_off', channel=2, note=47, velocity=110, time=0),
    Message('note_on', channel=2, note=41, velocity=110, time=96),
    Message('note_off', channel=2, note=41, velocity=110, time=96),
    Message('note_on', channel=2, note=43, velocity=110, time=0),
    Message('note_off', channel=2, note=43, velocity=110, time=96),
    Message('note_on', channel=2, note=41, velocity=110, time=0),
    Message('note_off', channel=2, note=41, velocity=110, time=96),
    Message('note_on', channel=2, note=48, velocity=110, time=0),
    Message('note_on', channel=2, note=41, velocity=110, time=0),
    Message('note_off', channel=2, note=48, velocity=110, time=96),
    Message('note_off', channel=2, note=41, velocity=110, time=0),
    Message('note_on', channel=2, note=47, velocity=110, time=0),
    Message('note_on', channel=2, note=40, velocity=110, time=0),
    Message('note_off', channel=2, note=47, velocity=110, time=96),
    Message('note_off', channel=2, note=40, velocity=110, time=0),
    Message('note_on', channel=2, note=47, velocity=110, time=96),
    Message('note_on', channel=2, note=40, velocity=110, time=0),
    Message('note_off', channel=2, note=47, velocity=110, time=96),
    Message('note_off', channel=2, note=40, velocity=110, time=0),
    Message('note_on', channel=2, note=48, velocity=110, time=1152),
    Message('note_on', channel=2, note=41, velocity=110, time=0),
    Message('note_off', channel=2, note=48, velocity=110, time=96),
    Message('note_off', channel=2, note=41, velocity=110, time=0),
    Message('note_on', channel=2, note=40, velocity=110, time=0),
    Message('note_on', channel=2, note=47, velocity=110, time=0),
    Message('note_off', channel=2, note=40, velocity=110, time=96),
    Message('note_off', channel=2, note=47, velocity=110, time=0),
    Message('note_on', channel=2, note=47, velocity=110, time=96),
    Message('note_on', channel=2, note=40, velocity=110, time=0),
    Message('note_off', channel=2, note=47, velocity=110, time=96),
    Message('note_off', channel=2, note=40, velocity=110, time=0),
    Message('note_on', channel=2, note=41, velocity=110, time=384),
    Message('note_on', channel=2, note=48, velocity=110, time=0),
    Message('note_off', channel=2, note=41, velocity=110, time=96),
    Message('note_off', channel=2, note=48, velocity=110, time=0),
    Message('note_on', channel=2, note=47, velocity=110, time=0),
    Message('note_on', channel=2, note=40, velocity=110, time=0),
    Message('note_off', channel=2, note=47, velocity=110, time=96),
    Message('note_off', channel=2, note=40, velocity=110, time=0),
    Message('note_on', channel=2, note=40, velocity=110, time=96),
    Message('note_on', channel=2, note=47, velocity=110, time=0),
    Message('note_off', channel=2, note=40, velocity=110, time=96),
    Message('note_off', channel=2, note=47, velocity=110, time=0),
    Message('note_on', channel=2, note=41, velocity=110, time=96),
    Message('note_off', channel=2, note=41, velocity=110, time=96),
    Message('note_on', channel=2, note=43, velocity=110, time=0),
    Message('note_off', channel=2, note=43, velocity=110, time=96),
    Message('note_on', channel=2, note=41, velocity=110, time=0),
    Message('note_off', channel=2, note=41, velocity=110, time=96),
    Message('note_on', channel=2, note=48, velocity=110, time=0),
    Message('note_on', channel=2, note=41, velocity=110, time=0),
    Message('note_off', channel=2, note=48, velocity=110, time=96),
    Message('note_off', channel=2, note=41, velocity=110, time=0),
    Message('note_on', channel=2, note=47, velocity=110, time=0),
    Message('note_on', channel=2, note=40, velocity=110, time=0),
    Message('note_off', channel=2, note=47, velocity=110, time=96),
    Message('note_off', channel=2, note=40, velocity=110, time=0),
    Message('note_on', channel=2, note=47, velocity=110, time=96),
    Message('note_on', channel=2, note=40, velocity=110, time=0),
    Message('note_off', channel=2, note=47, velocity=110, time=96),
    Message('note_off', channel=2, note=40, velocity=110, time=0),
    Message('note_on', channel=2, note=40, velocity=110, time=864),
    Message('note_off', channel=2, note=40, velocity=110, time=96),
    Message('note_on', channel=2, note=40, velocity=110, time=0),
    Message('note_off', channel=2, note=40, velocity=110, time=96),
    Message('note_on', channel=2, note=57, velocity=120, time=0),
    Message('note_on', channel=2, note=52, velocity=120, time=0),
    Message('note_off', channel=2, note=57, velocity=120, time=96),
    Message('note_off', channel=2, note=52, velocity=120, time=0),
    Message('note_on', channel=2, note=40, velocity=110, time=0),
    Message('note_off', channel=2, note=40, velocity=110, time=96),
    Message('note_on', channel=2, note=51, velocity=120, time=0),
    Message('note_on', channel=2, note=56, velocity=120, time=0),
    Message('note_off', channel=2, note=51, velocity=120, time=96),
    Message('note_off', channel=2, note=56, velocity=120, time=0),
    Message('note_on', channel=2, note=40, velocity=110, time=0),
    Message('note_off', channel=2, note=40, velocity=110, time=96),
    Message('note_on', channel=2, note=55, velocity=120, time=0),
    Message('note_on', channel=2, note=50, velocity=120, time=0),
    Message('note_off', channel=2, note=55, velocity=120, time=96),
    Message('note_off', channel=2, note=50, velocity=120, time=0),
    Message('note_on', channel=2, note=55, velocity=110, time=96),
    Message('note_off', channel=2, note=55, velocity=110, time=48),
    Message('note_on', channel=2, note=57, velocity=110, time=0),
    Message('note_off', channel=2, note=57, velocity=110, time=48),
    Message('note_on', channel=2, note=55, velocity=110, time=0),
    Message('note_off', channel=2, note=55, velocity=110, time=96),
    Message('note_on', channel=2, note=57, velocity=120, time=0),
    Message('note_on', channel=2, note=52, velocity=120, time=0),
    Message('note_off', channel=2, note=57, velocity=120, time=96),
    Message('note_off', channel=2, note=52, velocity=120, time=0),
    Message('note_on', channel=2, note=40, velocity=110, time=0),
    Message('note_off', channel=2, note=40, velocity=110, time=96),
    Message('note_on', channel=2, note=56, velocity=110, time=0),
    Message('note_on', channel=2, note=51, velocity=110, time=0),
    Message('note_off', channel=2, note=56, velocity=110, time=96),
    Message('note_off', channel=2, note=51, velocity=110, time=0),
    Message('note_on', channel=2, note=40, velocity=110, time=0),
    Message('note_off', channel=2, note=40, velocity=110, time=96),
    Message('note_on', channel=2, note=55, velocity=110, time=0),
    Message('note_on', channel=2, note=50, velocity=110, time=0),
    Message('note_off', channel=2, note=55, velocity=110, time=96),
    Message('note_off', channel=2, note=50, velocity=110, time=0),
    Message('note_on', channel=2, note=59, velocity=110, time=96),
    Message('note_off', channel=2, note=59, velocity=110, time=48),
    Message('note_on', channel=2, note=60, velocity=110, time=0),
    Message('note_off', channel=2, note=60, velocity=110, time=48),
    Message('note_on', channel=2, note=59, velocity=110, time=0),
    Message('note_off', channel=2, note=59, velocity=110, time=96),
    Message('note_on', channel=2, note=57, velocity=120, time=0),
    Message('note_on', channel=2, note=52, velocity=120, time=0),
    Message('note_off', channel=2, note=57, velocity=120, time=96),
    Message('note_off', channel=2, note=52, velocity=120, time=0),
    Message('note_on', channel=2, note=40, velocity=110, time=0),
    Message('note_off', channel=2, note=40, velocity=110, time=96),
    Message('note_on', channel=2, note=56, velocity=110, time=0),
    Message('note_on', channel=2, note=51, velocity=110, time=0),
    Message('note_off', channel=2, note=56, velocity=110, time=96),
    Message('note_off', channel=2, note=51, velocity=110, time=0),
    Message('note_on', channel=2, note=40, velocity=110, time=0),
    Message('note_off', channel=2, note=40, velocity=110, time=96),
    Message('note_on', channel=2, note=55, velocity=110, time=0),
    Message('note_on', channel=2, note=50, velocity=110, time=0),
    Message('note_off', channel=2, note=55, velocity=110, time=96),
    Message('note_off', channel=2, note=50, velocity=110, time=0),
    Message('note_on', channel=2, note=59, velocity=110, time=96),
    Message('note_off', channel=2, note=59, velocity=110, time=48),
    Message('note_on', channel=2, note=60, velocity=110, time=0),
    Message('note_off', channel=2, note=60, velocity=110, time=48),
    Message('note_on', channel=2, note=59, velocity=110, time=0),
    Message('note_off', channel=2, note=59, velocity=110, time=96),
    Message('note_on', channel=2, note=57, velocity=120, time=0),
    Message('note_on', channel=2, note=52, velocity=120, time=0),
    Message('note_off', channel=2, note=57, velocity=120, time=96),
    Message('note_off', channel=2, note=52, velocity=120, time=0),
    Message('note_on', channel=2, note=40, velocity=110, time=0),
    Message('note_off', channel=2, note=40, velocity=110, time=96),
    Message('note_on', channel=2, note=56, velocity=110, time=0),
    Message('note_on', channel=2, note=51, velocity=110, time=0),
    Message('note_off', channel=2, note=56, velocity=110, time=96),
    Message('note_off', channel=2, note=51, velocity=110, time=0),
    Message('note_on', channel=2, note=40, velocity=110, time=0),
    Message('note_off', channel=2, note=40, velocity=110, time=96),
    Message('note_on', channel=2, note=55, velocity=110, time=0),
    Message('note_on', channel=2, note=50, velocity=110, time=0),
    Message('note_off', channel=2, note=55, velocity=110, time=96),
    Message('note_off', channel=2, note=50, velocity=110, time=0),
    Message('note_on', channel=2, note=64, velocity=110, time=96),
    Message('note_off', channel=2, note=64, velocity=110, time=48),
    Message('note_on', channel=2, note=65, velocity=110, time=0),
    Message('note_off', channel=2, note=65, velocity=110, time=48),
    Message('note_on', channel=2, note=64, velocity=110, time=0),
    Message('note_off', channel=2, note=64, velocity=110, time=96),
    Message('note_on', channel=2, note=57, velocity=120, time=0),
    Message('note_on', channel=2, note=52, velocity=120, time=0),
    Message('note_off', channel=2, note=57, velocity=120, time=96),
    Message('note_off', channel=2, note=52, velocity=120, time=0),
    Message('note_on', channel=2, note=40, velocity=110, time=0),
    Message('note_off', channel=2, note=40, velocity=110, time=96),
    Message('note_on', channel=2, note=56, velocity=110, time=0),
    Message('note_on', channel=2, note=51, velocity=110, time=0),
    Message('note_off', channel=2, note=56, velocity=110, time=96),
    Message('note_off', channel=2, note=51, velocity=110, time=0),
    Message('note_on', channel=2, note=40, velocity=110, time=0),
    Message('note_off', channel=2, note=40, velocity=110, time=96),
    Message('note_on', channel=2, note=55, velocity=110, time=0),
    Message('note_on', channel=2, note=50, velocity=110, time=0),
    Message('note_off', channel=2, note=55, velocity=110, time=96),
    Message('note_off', channel=2, note=50, velocity=110, time=0),
    Message('note_on', channel=2, note=64, velocity=110, time=96),
    Message('note_off', channel=2, note=64, velocity=110, time=48),
    Message('note_on', channel=2, note=65, velocity=110, time=0),
    Message('note_off', channel=2, note=65, velocity=110, time=48),
    Message('note_on', channel=2, note=64, velocity=110, time=0),
    Message('note_off', channel=2, note=64, velocity=110, time=96),
    Message('note_on', channel=2, note=57, velocity=120, time=0),
    Message('note_on', channel=2, note=52, velocity=120, time=0),
    Message('note_off', channel=2, note=57, velocity=120, time=96),
    Message('note_off', channel=2, note=52, velocity=120, time=0),
    Message('note_on', channel=2, note=40, velocity=110, time=0),
    Message('note_off', channel=2, note=40, velocity=110, time=96),
    Message('note_on', channel=2, note=56, velocity=110, time=0),
    Message('note_on', channel=2, note=51, velocity=110, time=0),
    Message('note_off', channel=2, note=56, velocity=110, time=96),
    Message('note_off', channel=2, note=51, velocity=110, time=0),
    Message('note_on', channel=2, note=40, velocity=110, time=0),
    Message('note_off', channel=2, note=40, velocity=110, time=96),
    Message('note_on', channel=2, note=55, velocity=110, time=0),
    Message('note_on', channel=2, note=50, velocity=110, time=0),
    Message('note_off', channel=2, note=55, velocity=110, time=96),
    Message('note_off', channel=2, note=50, velocity=110, time=0),
    Message('note_on', channel=2, note=64, velocity=110, time=96),
    Message('note_off', channel=2, note=64, velocity=110, time=48),
    Message('note_on', channel=2, note=65, velocity=110, time=0),
    Message('note_off', channel=2, note=65, velocity=110, time=48),
    Message('note_on', channel=2, note=64, velocity=110, time=0),
    Message('note_off', channel=2, note=64, velocity=110, time=96),
    Message('note_on', channel=2, note=57, velocity=120, time=0),
    Message('note_on', channel=2, note=52, velocity=120, time=0),
    Message('note_off', channel=2, note=57, velocity=120, time=96),
    Message('note_off', channel=2, note=52, velocity=120, time=0),
    Message('note_on', channel=2, note=40, velocity=110, time=0),
    Message('note_off', channel=2, note=40, velocity=110, time=96),
    Message('note_on', channel=2, note=56, velocity=120, time=0),
    Message('note_on', channel=2, note=51, velocity=120, time=0),
    Message('note_off', channel=2, note=56, velocity=120, time=96),
    Message('note_off', channel=2, note=51, velocity=120, time=0),
    Message('note_on', channel=2, note=40, velocity=110, time=0),
    Message('note_off', channel=2, note=40, velocity=110, time=96),
    Message('note_on', channel=2, note=55, velocity=120, time=0),
    Message('note_on', channel=2, note=50, velocity=120, time=0),
    Message('note_off', channel=2, note=55, velocity=120, time=84),
    Message('note_off', channel=2, note=50, velocity=120, time=0),
    Message('note_on', channel=2, note=50, velocity=110, time=12),
    Message('note_on', channel=2, note=55, velocity=110, time=0),
    Message('note_off', channel=2, note=50, velocity=110, time=1),
    Message('note_off', channel=2, note=55, velocity=110, time=0),
    Message('note_on', channel=2, note=49, velocity=110, time=11),
    Message('note_on', channel=2, note=54, velocity=110, time=0),
    Message('note_off', channel=2, note=49, velocity=110, time=1),
    Message('note_off', channel=2, note=54, velocity=110, time=0),
    Message('note_on', channel=2, note=48, velocity=110, time=11),
    Message('note_on', channel=2, note=53, velocity=110, time=0),
    Message('note_off', channel=2, note=48, velocity=110, time=1),
    Message('note_off', channel=2, note=53, velocity=110, time=0),
    Message('note_on', channel=2, note=47, velocity=110, time=11),
    Message('note_on', channel=2, note=52, velocity=110, time=0),
    Message('note_off', channel=2, note=47, velocity=110, time=1),
    Message('note_off', channel=2, note=52, velocity=110, time=0),
    Message('note_on', channel=2, note=52, velocity=110, time=11),
    Message('note_on', channel=2, note=47, velocity=110, time=0),
    Message('note_off', channel=2, note=52, velocity=110, time=1),
    Message('note_off', channel=2, note=47, velocity=110, time=0),
    Message('note_on', channel=2, note=47, velocity=110, time=11),
    Message('note_on', channel=2, note=52, velocity=110, time=0),
    Message('note_off', channel=2, note=47, velocity=110, time=1),
    Message('note_off', channel=2, note=52, velocity=110, time=0),
    Message('note_on', channel=2, note=47, velocity=110, time=11),
    Message('note_on', channel=2, note=52, velocity=110, time=0),
    Message('note_off', channel=2, note=47, velocity=110, time=1),
    Message('note_off', channel=2, note=52, velocity=110, time=0),
    Message('note_on', channel=2, note=51, velocity=110, time=11),
    Message('note_on', channel=2, note=46, velocity=110, time=0),
    Message('note_off', channel=2, note=51, velocity=110, time=1),
    Message('note_off', channel=2, note=46, velocity=110, time=0),
    Message('note_on', channel=2, note=50, velocity=110, time=11),
    Message('note_on', channel=2, note=45, velocity=110, time=0),
    Message('note_on', channel=2, note=40, velocity=110, time=0),
    Message('note_off', channel=2, note=50, velocity=110, time=1),
    Message('note_off', channel=2, note=45, velocity=110, time=0),
    Message('note_off', channel=2, note=40, velocity=110, time=95),
    Message('note_on', channel=2, note=40, velocity=110, time=0),
    Message('note_off', channel=2, note=40, velocity=110, time=96),
    Message('note_on', channel=2, note=50, velocity=120, time=0),
    Message('note_off', channel=2, note=50, velocity=120, time=192),
    Message('note_on', channel=2, note=47, velocity=110, time=0),
    Message('note_off', channel=2, note=47, velocity=110, time=96),
    Message('note_on', channel=2, note=46, velocity=110, time=0),
    Message('note_off', channel=2, note=46, velocity=110, time=96),
    Message('note_on', channel=2, note=45, velocity=110, time=0),
    Message('note_off', channel=2, note=45, velocity=110, time=96),
    Message('note_on', channel=2, note=43, velocity=110, time=0),
    Message('note_off', channel=2, note=43, velocity=110, time=96),
    Message('note_on', channel=2, note=42, velocity=110, time=0),
    Message('note_off', channel=2, note=42, velocity=110, time=96),
    Message('note_on', channel=2, note=41, velocity=110, time=0),
    Message('note_off', channel=2, note=41, velocity=110, time=96),
    Message('note_on', channel=2, note=40, velocity=120, time=0),
    Message('note_off', channel=2, note=40, velocity=120, time=96),
    Message('note_on', channel=2, note=40, velocity=120, time=0),
    Message('note_off', channel=2, note=40, velocity=120, time=192),
    Message('note_on', channel=2, note=59, velocity=110, time=0),
    Message('note_on', channel=2, note=52, velocity=110, time=0),
    Message('note_off', channel=2, note=59, velocity=110, time=288),
    Message('note_off', channel=2, note=52, velocity=110, time=0),
    Message('note_on', channel=2, note=58, velocity=110, time=0),
    Message('note_on', channel=2, note=51, velocity=110, time=0),
    Message('note_off', channel=2, note=58, velocity=110, time=192),
    Message('note_off', channel=2, note=51, velocity=110, time=0),
    Message('note_on', channel=2, note=40, velocity=110, time=0),
    Message('note_off', channel=2, note=40, velocity=110, time=96),
    Message('note_on', channel=2, note=57, velocity=110, time=0),
    Message('note_on', channel=2, note=52, velocity=110, time=0),
    Message('note_off', channel=2, note=57, velocity=110, time=96),
    Message('note_off', channel=2, note=52, velocity=110, time=0),
    Message('note_on', channel=2, note=50, velocity=110, time=0),
    Message('note_off', channel=2, note=50, velocity=110, time=192),
    Message('note_on', channel=2, note=56, velocity=110, time=0),
    Message('note_off', channel=2, note=56, velocity=110, time=192),
    Message('note_on', channel=2, note=52, velocity=110, time=0),
    Message('note_off', channel=2, note=52, velocity=110, time=96),
    Message('note_on', channel=2, note=47, velocity=110, time=0),
    Message('note_off', channel=2, note=47, velocity=110, time=96),
    Message('note_on', channel=2, note=47, velocity=110, time=12),
    Message('note_off', channel=2, note=47, velocity=110, time=1),
    Message('note_on', channel=2, note=46, velocity=110, time=11),
    Message('note_off', channel=2, note=46, velocity=110, time=1),
    Message('note_on', channel=2, note=45, velocity=110, time=11),
    Message('note_off', channel=2, note=45, velocity=110, time=1),
    Message('note_on', channel=2, note=44, velocity=110, time=11),
    Message('note_off', channel=2, note=44, velocity=110, time=1),
    Message('note_on', channel=2, note=43, velocity=110, time=11),
    Message('note_off', channel=2, note=43, velocity=110, time=1),
    Message('note_on', channel=2, note=42, velocity=110, time=11),
    Message('note_off', channel=2, note=42, velocity=110, time=1),
    Message('note_on', channel=2, note=41, velocity=110, time=11),
    Message('note_off', channel=2, note=41, velocity=110, time=1),
    Message('note_on', channel=2, note=40, velocity=120, time=11),
    Message('note_off', channel=2, note=40, velocity=120, time=192),
    Message('note_on', channel=2, note=55, velocity=110, time=0),
    Message('note_on', channel=2, note=48, velocity=110, time=0),
    Message('note_off', channel=2, note=55, velocity=110, time=288),
    Message('note_off', channel=2, note=48, velocity=110, time=0),
    Message('note_on', channel=2, note=54, velocity=110, time=0),
    Message('note_off', channel=2, note=54, velocity=110, time=96),
    Message('note_on', channel=2, note=62, velocity=110, time=0),
    Message('note_off', channel=2, note=62, velocity=110, time=96),
    Message('note_on', channel=2, note=40, velocity=110, time=0),
    Message('note_off', channel=2, note=40, velocity=110, time=96),
    Message('note_on', channel=2, note=57, velocity=120, time=0),
    Message('note_on', channel=2, note=50, velocity=120, time=0),
    Message('note_off', channel=2, note=57, velocity=120, time=288),
    Message('note_off', channel=2, note=50, velocity=120, time=0),
    Message('note_on', channel=2, note=55, velocity=110, time=0),
    Message('note_off', channel=2, note=55, velocity=110, time=96),
    Message('note_on', channel=2, note=54, velocity=110, time=0),
    Message('note_off', channel=2, note=54, velocity=110, time=96),
    Message('note_on', channel=2, note=50, velocity=110, time=0),
    Message('note_off', channel=2, note=50, velocity=110, time=96),
    Message('note_on', channel=2, note=47, velocity=110, time=0),
    Message('note_off', channel=2, note=47, velocity=110, time=192),
    Message('note_on', channel=2, note=40, velocity=120, time=0),
    Message('note_off', channel=2, note=40, velocity=120, time=192),
    Message('note_on', channel=2, note=59, velocity=110, time=0),
    Message('note_on', channel=2, note=50, velocity=110, time=0),
    Message('note_off', channel=2, note=59, velocity=110, time=288),
    Message('note_off', channel=2, note=50, velocity=110, time=0),
    Message('note_on', channel=2, note=58, velocity=110, time=0),
    Message('note_on', channel=2, note=49, velocity=110, time=0),
    Message('note_off', channel=2, note=58, velocity=110, time=192),
    Message('note_off', channel=2, note=49, velocity=110, time=0),
    Message('note_on', channel=2, note=40, velocity=110, time=0),
    Message('note_off', channel=2, note=40, velocity=110, time=96),
    Message('note_on', channel=2, note=57, velocity=110, time=0),
    Message('note_on', channel=2, note=52, velocity=110, time=0),
    Message('note_off', channel=2, note=57, velocity=110, time=288),
    Message('note_off', channel=2, note=52, velocity=110, time=0),
    Message('note_on', channel=2, note=56, velocity=110, time=0),
    Message('note_off', channel=2, note=56, velocity=110, time=192),
    Message('note_on', channel=2, note=52, velocity=110, time=0),
    Message('note_off', channel=2, note=52, velocity=110, time=96),
    Message('note_on', channel=2, note=47, velocity=110, time=0),
    Message('note_off', channel=2, note=47, velocity=110, time=96),
    Message('note_on', channel=2, note=47, velocity=110, time=12),
    Message('note_off', channel=2, note=47, velocity=110, time=1),
    Message('note_on', channel=2, note=46, velocity=110, time=11),
    Message('note_off', channel=2, note=46, velocity=110, time=1),
    Message('note_on', channel=2, note=45, velocity=110, time=11),
    Message('note_off', channel=2, note=45, velocity=110, time=1),
    Message('note_on', channel=2, note=44, velocity=110, time=11),
    Message('note_off', channel=2, note=44, velocity=110, time=1),
    Message('note_on', channel=2, note=43, velocity=110, time=11),
    Message('note_off', channel=2, note=43, velocity=110, time=1),
    Message('note_on', channel=2, note=42, velocity=110, time=11),
    Message('note_off', channel=2, note=42, velocity=110, time=1),
    Message('note_on', channel=2, note=41, velocity=110, time=11),
    Message('note_off', channel=2, note=41, velocity=110, time=1),
    Message('note_on', channel=2, note=40, velocity=120, time=11),
    Message('note_off', channel=2, note=40, velocity=120, time=192),
    Message('note_on', channel=2, note=55, velocity=110, time=0),
    Message('note_on', channel=2, note=48, velocity=110, time=0),
    Message('note_off', channel=2, note=55, velocity=110, time=288),
    Message('note_off', channel=2, note=48, velocity=110, time=0),
    Message('note_on', channel=2, note=54, velocity=110, time=0),
    Message('note_off', channel=2, note=54, velocity=110, time=192),
    Message('note_on', channel=2, note=40, velocity=110, time=0),
    Message('note_off', channel=2, note=40, velocity=110, time=96),
    Message('note_on', channel=2, note=57, velocity=110, time=0),
    Message('note_on', channel=2, note=50, velocity=110, time=0),
    Message('note_off', channel=2, note=57, velocity=110, time=96),
    Message('note_off', channel=2, note=50, velocity=110, time=0),
    Message('note_on', channel=2, note=50, velocity=110, time=0),
    Message('note_on', channel=2, note=57, velocity=110, time=0),
    Message('note_off', channel=2, note=50, velocity=110, time=96),
    Message('note_off', channel=2, note=57, velocity=110, time=0),
    Message('note_on', channel=2, note=50, velocity=110, time=0),
    Message('note_on', channel=2, note=57, velocity=110, time=0),
    Message('note_off', channel=2, note=50, velocity=110, time=96),
    Message('note_off', channel=2, note=57, velocity=110, time=0),
    Message('note_on', channel=2, note=50, velocity=110, time=0),
    Message('note_on', channel=2, note=57, velocity=110, time=0),
    Message('note_off', channel=2, note=50, velocity=110, time=96),
    Message('note_off', channel=2, note=57, velocity=110, time=0),
    Message('note_on', channel=2, note=57, velocity=120, time=0),
    Message('note_on', channel=2, note=50, velocity=120, time=0),
    Message('note_off', channel=2, note=57, velocity=120, time=288),
    Message('note_off', channel=2, note=50, velocity=120, time=0),
    Message('note_on', channel=2, note=57, velocity=110, time=0),
    Message('note_off', channel=2, note=57, velocity=110, time=1),
    Message('note_on', channel=2, note=50, velocity=110, time=11),
    Message('note_on', channel=2, note=56, velocity=110, time=0),
    Message('note_off', channel=2, note=50, velocity=110, time=1),
    Message('note_off', channel=2, note=56, velocity=110, time=0),
    Message('note_on', channel=2, note=49, velocity=110, time=11),
    Message('note_on', channel=2, note=55, velocity=110, time=0),
    Message('note_off', channel=2, note=49, velocity=110, time=1),
    Message('note_off', channel=2, note=55, velocity=110, time=0),
    Message('note_on', channel=2, note=48, velocity=110, time=11),
    Message('note_on', channel=2, note=54, velocity=110, time=0),
    Message('note_off', channel=2, note=48, velocity=110, time=1),
    Message('note_off', channel=2, note=54, velocity=110, time=0),
    Message('note_on', channel=2, note=47, velocity=110, time=11),
    Message('note_on', channel=2, note=53, velocity=110, time=0),
    Message('note_off', channel=2, note=47, velocity=110, time=1),
    Message('note_off', channel=2, note=53, velocity=110, time=0),
    Message('note_on', channel=2, note=46, velocity=110, time=11),
    Message('note_on', channel=2, note=52, velocity=110, time=0),
    Message('note_off', channel=2, note=46, velocity=110, time=1),
    Message('note_off', channel=2, note=52, velocity=110, time=0),
    Message('note_on', channel=2, note=45, velocity=110, time=11),
    Message('note_on', channel=2, note=51, velocity=110, time=0),
    Message('note_off', channel=2, note=45, velocity=110, time=1),
    Message('note_off', channel=2, note=51, velocity=110, time=0),
    Message('note_on', channel=2, note=44, velocity=110, time=11),
    Message('note_on', channel=2, note=50, velocity=110, time=0),
    Message('note_off', channel=2, note=44, velocity=110, time=1),
    Message('note_off', channel=2, note=50, velocity=110, time=0),
    Message('note_on', channel=2, note=48, velocity=110, time=11),
    Message('note_on', channel=2, note=41, velocity=110, time=0),
    Message('note_off', channel=2, note=48, velocity=110, time=96),
    Message('note_off', channel=2, note=41, velocity=110, time=0),
    Message('note_on', channel=2, note=40, velocity=110, time=0),
    Message('note_on', channel=2, note=47, velocity=110, time=0),
    Message('note_off', channel=2, note=40, velocity=110, time=96),
    Message('note_off', channel=2, note=47, velocity=110, time=0),
    Message('note_on', channel=2, note=47, velocity=110, time=96),
    Message('note_on', channel=2, note=40, velocity=110, time=0),
    Message('note_off', channel=2, note=47, velocity=110, time=96),
    Message('note_off', channel=2, note=40, velocity=110, time=0),
    Message('note_on', channel=2, note=41, velocity=110, time=384),
    Message('note_on', channel=2, note=48, velocity=110, time=0),
    Message('note_off', channel=2, note=41, velocity=110, time=96),
    Message('note_off', channel=2, note=48, velocity=110, time=0),
    Message('note_on', channel=2, note=47, velocity=110, time=0),
    Message('note_on', channel=2, note=40, velocity=110, time=0),
    Message('note_off', channel=2, note=47, velocity=110, time=96),
    Message('note_off', channel=2, note=40, velocity=110, time=0),
    Message('note_on', channel=2, note=40, velocity=110, time=96),
    Message('note_on', channel=2, note=47, velocity=110, time=0),
    Message('note_off', channel=2, note=40, velocity=110, time=96),
    Message('note_off', channel=2, note=47, velocity=110, time=0),
    Message('note_on', channel=2, note=41, velocity=110, time=96),
    Message('note_off', channel=2, note=41, velocity=110, time=96),
    Message('note_on', channel=2, note=43, velocity=110, time=0),
    Message('note_off', channel=2, note=43, velocity=110, time=96),
    Message('note_on', channel=2, note=41, velocity=110, time=0),
    Message('note_off', channel=2, note=41, velocity=110, time=96),
    Message('note_on', channel=2, note=48, velocity=110, time=0),
    Message('note_on', channel=2, note=41, velocity=110, time=0),
    Message('note_off', channel=2, note=48, velocity=110, time=96),
    Message('note_off', channel=2, note=41, velocity=110, time=0),
    Message('note_on', channel=2, note=47, velocity=110, time=0),
    Message('note_on', channel=2, note=40, velocity=110, time=0),
    Message('note_off', channel=2, note=47, velocity=110, time=96),
    Message('note_off', channel=2, note=40, velocity=110, time=0),
    Message('note_on', channel=2, note=47, velocity=110, time=96),
    Message('note_on', channel=2, note=40, velocity=110, time=0),
    Message('note_off', channel=2, note=47, velocity=110, time=96),
    Message('note_off', channel=2, note=40, velocity=110, time=0),
    Message('note_on', channel=2, note=48, velocity=110, time=1152),
    Message('note_on', channel=2, note=41, velocity=110, time=0),
    Message('note_off', channel=2, note=48, velocity=110, time=96),
    Message('note_off', channel=2, note=41, velocity=110, time=0),
    Message('note_on', channel=2, note=40, velocity=110, time=0),
    Message('note_on', channel=2, note=47, velocity=110, time=0),
    Message('note_off', channel=2, note=40, velocity=110, time=96),
    Message('note_off', channel=2, note=47, velocity=110, time=0),
    Message('note_on', channel=2, note=47, velocity=110, time=96),
    Message('note_on', channel=2, note=40, velocity=110, time=0),
    Message('note_off', channel=2, note=47, velocity=110, time=96),
    Message('note_off', channel=2, note=40, velocity=110, time=0),
    Message('note_on', channel=2, note=41, velocity=110, time=384),
    Message('note_on', channel=2, note=48, velocity=110, time=0),
    Message('note_off', channel=2, note=41, velocity=110, time=96),
    Message('note_off', channel=2, note=48, velocity=110, time=0),
    Message('note_on', channel=2, note=47, velocity=110, time=0),
    Message('note_on', channel=2, note=40, velocity=110, time=0),
    Message('note_off', channel=2, note=47, velocity=110, time=96),
    Message('note_off', channel=2, note=40, velocity=110, time=0),
    Message('note_on', channel=2, note=40, velocity=110, time=96),
    Message('note_on', channel=2, note=47, velocity=110, time=0),
    Message('note_off', channel=2, note=40, velocity=110, time=96),
    Message('note_off', channel=2, note=47, velocity=110, time=0),
    Message('note_on', channel=2, note=41, velocity=110, time=96),
    Message('note_off', channel=2, note=41, velocity=110, time=96),
    Message('note_on', channel=2, note=43, velocity=110, time=0),
    Message('note_off', channel=2, note=43, velocity=110, time=96),
    Message('note_on', channel=2, note=41, velocity=110, time=0),
    Message('note_off', channel=2, note=41, velocity=110, time=96),
    Message('note_on', channel=2, note=48, velocity=110, time=0),
    Message('note_on', channel=2, note=41, velocity=110, time=0),
    Message('note_off', channel=2, note=48, velocity=110, time=96),
    Message('note_off', channel=2, note=41, velocity=110, time=0),
    Message('note_on', channel=2, note=47, velocity=110, time=0),
    Message('note_on', channel=2, note=40, velocity=110, time=0),
    Message('note_off', channel=2, note=47, velocity=110, time=96),
    Message('note_off', channel=2, note=40, velocity=110, time=0),
    Message('note_on', channel=2, note=47, velocity=110, time=96),
    Message('note_on', channel=2, note=40, velocity=110, time=0),
    Message('note_off', channel=2, note=47, velocity=110, time=96),
    Message('note_off', channel=2, note=40, velocity=110, time=0),
    Message('note_on', channel=2, note=48, velocity=110, time=1152),
    Message('note_on', channel=2, note=41, velocity=110, time=0),
    Message('note_off', channel=2, note=48, velocity=110, time=96),
    Message('note_off', channel=2, note=41, velocity=110, time=0),
    Message('note_on', channel=2, note=40, velocity=110, time=0),
    Message('note_on', channel=2, note=47, velocity=110, time=0),
    Message('note_off', channel=2, note=40, velocity=110, time=96),
    Message('note_off', channel=2, note=47, velocity=110, time=0),
    Message('note_on', channel=2, note=47, velocity=110, time=96),
    Message('note_on', channel=2, note=40, velocity=110, time=0),
    Message('note_off', channel=2, note=47, velocity=110, time=96),
    Message('note_off', channel=2, note=40, velocity=110, time=0),
    Message('note_on', channel=2, note=41, velocity=110, time=384),
    Message('note_on', channel=2, note=48, velocity=110, time=0),
    Message('note_off', channel=2, note=41, velocity=110, time=96),
    Message('note_off', channel=2, note=48, velocity=110, time=0),
    Message('note_on', channel=2, note=47, velocity=110, time=0),
    Message('note_on', channel=2, note=40, velocity=110, time=0),
    Message('note_off', channel=2, note=47, velocity=110, time=96),
    Message('note_off', channel=2, note=40, velocity=110, time=0),
    Message('note_on', channel=2, note=40, velocity=110, time=96),
    Message('note_on', channel=2, note=47, velocity=110, time=0),
    Message('note_off', channel=2, note=40, velocity=110, time=96),
    Message('note_off', channel=2, note=47, velocity=110, time=0),
    Message('note_on', channel=2, note=41, velocity=110, time=96),
    Message('note_off', channel=2, note=41, velocity=110, time=96),
    Message('note_on', channel=2, note=43, velocity=110, time=0),
    Message('note_off', channel=2, note=43, velocity=110, time=96),
    Message('note_on', channel=2, note=41, velocity=110, time=0),
    Message('note_off', channel=2, note=41, velocity=110, time=96),
    Message('note_on', channel=2, note=48, velocity=110, time=0),
    Message('note_on', channel=2, note=41, velocity=110, time=0),
    Message('note_off', channel=2, note=48, velocity=110, time=96),
    Message('note_off', channel=2, note=41, velocity=110, time=0),
    Message('note_on', channel=2, note=47, velocity=110, time=0),
    Message('note_on', channel=2, note=40, velocity=110, time=0),
    Message('note_off', channel=2, note=47, velocity=110, time=96),
    Message('note_off', channel=2, note=40, velocity=110, time=0),
    Message('note_on', channel=2, note=47, velocity=110, time=96),
    Message('note_on', channel=2, note=40, velocity=110, time=0),
    Message('note_off', channel=2, note=47, velocity=110, time=96),
    Message('note_off', channel=2, note=40, velocity=110, time=0),
    Message('note_on', channel=2, note=48, velocity=110, time=1152),
    Message('note_on', channel=2, note=41, velocity=110, time=0),
    Message('note_off', channel=2, note=48, velocity=110, time=96),
    Message('note_off', channel=2, note=41, velocity=110, time=0),
    Message('note_on', channel=2, note=40, velocity=110, time=0),
    Message('note_on', channel=2, note=47, velocity=110, time=0),
    Message('note_off', channel=2, note=40, velocity=110, time=96),
    Message('note_off', channel=2, note=47, velocity=110, time=0),
    Message('note_on', channel=2, note=47, velocity=110, time=96),
    Message('note_on', channel=2, note=40, velocity=110, time=0),
    Message('note_off', channel=2, note=47, velocity=110, time=96),
    Message('note_off', channel=2, note=40, velocity=110, time=0),
    Message('note_on', channel=2, note=41, velocity=110, time=384),
    Message('note_on', channel=2, note=48, velocity=110, time=0),
    Message('note_off', channel=2, note=41, velocity=110, time=96),
    Message('note_off', channel=2, note=48, velocity=110, time=0),
    Message('note_on', channel=2, note=47, velocity=110, time=0),
    Message('note_on', channel=2, note=40, velocity=110, time=0),
    Message('note_off', channel=2, note=47, velocity=110, time=96),
    Message('note_off', channel=2, note=40, velocity=110, time=0),
    Message('note_on', channel=2, note=40, velocity=110, time=96),
    Message('note_on', channel=2, note=47, velocity=110, time=0),
    Message('note_off', channel=2, note=40, velocity=110, time=96),
    Message('note_off', channel=2, note=47, velocity=110, time=0),
    Message('note_on', channel=2, note=41, velocity=110, time=96),
    Message('note_off', channel=2, note=41, velocity=110, time=96),
    Message('note_on', channel=2, note=43, velocity=110, time=0),
    Message('note_off', channel=2, note=43, velocity=110, time=96),
    Message('note_on', channel=2, note=41, velocity=110, time=0),
    Message('note_off', channel=2, note=41, velocity=110, time=96),
    Message('note_on', channel=2, note=48, velocity=110, time=0),
    Message('note_on', channel=2, note=41, velocity=110, time=0),
    Message('note_off', channel=2, note=48, velocity=110, time=96),
    Message('note_off', channel=2, note=41, velocity=110, time=0),
    Message('note_on', channel=2, note=47, velocity=110, time=0),
    Message('note_on', channel=2, note=40, velocity=110, time=0),
    Message('note_off', channel=2, note=47, velocity=110, time=96),
    Message('note_off', channel=2, note=40, velocity=110, time=0),
    Message('note_on', channel=2, note=47, velocity=110, time=96),
    Message('note_on', channel=2, note=40, velocity=110, time=0),
    Message('note_off', channel=2, note=47, velocity=110, time=96),
    Message('note_off', channel=2, note=40, velocity=110, time=0),
    Message('note_on', channel=2, note=40, velocity=110, time=864),
    Message('note_off', channel=2, note=40, velocity=110, time=96),
    Message('note_on', channel=2, note=40, velocity=110, time=0),
    Message('note_off', channel=2, note=40, velocity=110, time=96),
    Message('note_on', channel=2, note=57, velocity=120, time=0),
    Message('note_on', channel=2, note=52, velocity=120, time=0),
    Message('note_off', channel=2, note=57, velocity=120, time=96),
    Message('note_off', channel=2, note=52, velocity=120, time=0),
    Message('note_on', channel=2, note=40, velocity=110, time=0),
    Message('note_off', channel=2, note=40, velocity=110, time=96),
    Message('note_on', channel=2, note=51, velocity=120, time=0),
    Message('note_on', channel=2, note=56, velocity=120, time=0),
    Message('note_off', channel=2, note=51, velocity=120, time=96),
    Message('note_off', channel=2, note=56, velocity=120, time=0),
    Message('note_on', channel=2, note=40, velocity=110, time=0),
    Message('note_off', channel=2, note=40, velocity=110, time=96),
    Message('note_on', channel=2, note=55, velocity=120, time=0),
    Message('note_on', channel=2, note=50, velocity=120, time=0),
    Message('note_off', channel=2, note=55, velocity=120, time=96),
    Message('note_off', channel=2, note=50, velocity=120, time=0),
    Message('note_on', channel=2, note=55, velocity=110, time=96),
    Message('note_off', channel=2, note=55, velocity=110, time=48),
    Message('note_on', channel=2, note=57, velocity=110, time=0),
    Message('note_off', channel=2, note=57, velocity=110, time=48),
    Message('note_on', channel=2, note=55, velocity=110, time=0),
    Message('note_off', channel=2, note=55, velocity=110, time=96),
    Message('note_on', channel=2, note=57, velocity=120, time=0),
    Message('note_on', channel=2, note=52, velocity=120, time=0),
    Message('note_off', channel=2, note=57, velocity=120, time=96),
    Message('note_off', channel=2, note=52, velocity=120, time=0),
    Message('note_on', channel=2, note=40, velocity=110, time=0),
    Message('note_off', channel=2, note=40, velocity=110, time=96),
    Message('note_on', channel=2, note=56, velocity=110, time=0),
    Message('note_on', channel=2, note=51, velocity=110, time=0),
    Message('note_off', channel=2, note=56, velocity=110, time=96),
    Message('note_off', channel=2, note=51, velocity=110, time=0),
    Message('note_on', channel=2, note=40, velocity=110, time=0),
    Message('note_off', channel=2, note=40, velocity=110, time=96),
    Message('note_on', channel=2, note=55, velocity=110, time=0),
    Message('note_on', channel=2, note=50, velocity=110, time=0),
    Message('note_off', channel=2, note=55, velocity=110, time=96),
    Message('note_off', channel=2, note=50, velocity=110, time=0),
    Message('note_on', channel=2, note=55, velocity=110, time=96),
    Message('note_off', channel=2, note=55, velocity=110, time=48),
    Message('note_on', channel=2, note=57, velocity=110, time=0),
    Message('note_off', channel=2, note=57, velocity=110, time=48),
    Message('note_on', channel=2, note=55, velocity=110, time=0),
    Message('note_off', channel=2, note=55, velocity=110, time=96),
    Message('note_on', channel=2, note=57, velocity=120, time=0),
    Message('note_on', channel=2, note=52, velocity=120, time=0),
    Message('note_off', channel=2, note=57, velocity=120, time=96),
    Message('note_off', channel=2, note=52, velocity=120, time=0),
    Message('note_on', channel=2, note=40, velocity=110, time=0),
    Message('note_off', channel=2, note=40, velocity=110, time=96),
    Message('note_on', channel=2, note=56, velocity=110, time=0),
    Message('note_on', channel=2, note=51, velocity=110, time=0),
    Message('note_off', channel=2, note=56, velocity=110, time=96),
    Message('note_off', channel=2, note=51, velocity=110, time=0),
    Message('note_on', channel=2, note=40, velocity=110, time=0),
    Message('note_off', channel=2, note=40, velocity=110, time=96),
    Message('note_on', channel=2, note=55, velocity=110, time=0),
    Message('note_on', channel=2, note=50, velocity=110, time=0),
    Message('note_off', channel=2, note=55, velocity=110, time=96),
    Message('note_off', channel=2, note=50, velocity=110, time=0),
    Message('note_on', channel=2, note=55, velocity=110, time=96),
    Message('note_off', channel=2, note=55, velocity=110, time=48),
    Message('note_on', channel=2, note=57, velocity=110, time=0),
    Message('note_off', channel=2, note=57, velocity=110, time=48),
    Message('note_on', channel=2, note=55, velocity=110, time=0),
    Message('note_off', channel=2, note=55, velocity=110, time=96),
    Message('note_on', channel=2, note=57, velocity=120, time=0),
    Message('note_on', channel=2, note=52, velocity=120, time=0),
    Message('note_off', channel=2, note=57, velocity=120, time=96),
    Message('note_off', channel=2, note=52, velocity=120, time=0),
    Message('note_on', channel=2, note=40, velocity=110, time=0),
    Message('note_off', channel=2, note=40, velocity=110, time=96),
    Message('note_on', channel=2, note=56, velocity=110, time=0),
    Message('note_on', channel=2, note=51, velocity=110, time=0),
    Message('note_off', channel=2, note=56, velocity=110, time=96),
    Message('note_off', channel=2, note=51, velocity=110, time=0),
    Message('note_on', channel=2, note=40, velocity=110, time=0),
    Message('note_off', channel=2, note=40, velocity=110, time=96),
    Message('note_on', channel=2, note=55, velocity=110, time=0),
    Message('note_on', channel=2, note=50, velocity=110, time=0),
    Message('note_off', channel=2, note=55, velocity=110, time=96),
    Message('note_off', channel=2, note=50, velocity=110, time=0),
    Message('note_on', channel=2, note=55, velocity=110, time=96),
    Message('note_off', channel=2, note=55, velocity=110, time=48),
    Message('note_on', channel=2, note=57, velocity=110, time=0),
    Message('note_off', channel=2, note=57, velocity=110, time=48),
    Message('note_on', channel=2, note=55, velocity=110, time=0),
    Message('note_off', channel=2, note=55, velocity=110, time=96),
    Message('note_on', channel=2, note=57, velocity=120, time=0),
    Message('note_on', channel=2, note=52, velocity=120, time=0),
    Message('note_off', channel=2, note=57, velocity=120, time=96),
    Message('note_off', channel=2, note=52, velocity=120, time=0),
    Message('note_on', channel=2, note=40, velocity=110, time=0),
    Message('note_off', channel=2, note=40, velocity=110, time=96),
    Message('note_on', channel=2, note=56, velocity=110, time=0),
    Message('note_on', channel=2, note=51, velocity=110, time=0),
    Message('note_off', channel=2, note=56, velocity=110, time=96),
    Message('note_off', channel=2, note=51, velocity=110, time=0),
    Message('note_on', channel=2, note=40, velocity=110, time=0),
    Message('note_off', channel=2, note=40, velocity=110, time=96),
    Message('note_on', channel=2, note=55, velocity=110, time=0),
    Message('note_on', channel=2, note=50, velocity=110, time=0),
    Message('note_off', channel=2, note=55, velocity=110, time=96),
    Message('note_off', channel=2, note=50, velocity=110, time=0),
    Message('note_on', channel=2, note=55, velocity=110, time=96),
    Message('note_off', channel=2, note=55, velocity=110, time=48),
    Message('note_on', channel=2, note=57, velocity=110, time=0),
    Message('note_off', channel=2, note=57, velocity=110, time=48),
    Message('note_on', channel=2, note=55, velocity=110, time=0),
    Message('note_off', channel=2, note=55, velocity=110, time=96),
    Message('note_on', channel=2, note=57, velocity=120, time=0),
    Message('note_on', channel=2, note=52, velocity=120, time=0),
    Message('note_off', channel=2, note=57, velocity=120, time=96),
    Message('note_off', channel=2, note=52, velocity=120, time=0),
    Message('note_on', channel=2, note=40, velocity=110, time=0),
    Message('note_off', channel=2, note=40, velocity=110, time=96),
    Message('note_on', channel=2, note=56, velocity=110, time=0),
    Message('note_on', channel=2, note=51, velocity=110, time=0),
    Message('note_off', channel=2, note=56, velocity=110, time=96),
    Message('note_off', channel=2, note=51, velocity=110, time=0),
    Message('note_on', channel=2, note=40, velocity=110, time=0),
    Message('note_off', channel=2, note=40, velocity=110, time=96),
    Message('note_on', channel=2, note=55, velocity=110, time=0),
    Message('note_on', channel=2, note=50, velocity=110, time=0),
    Message('note_off', channel=2, note=55, velocity=110, time=96),
    Message('note_off', channel=2, note=50, velocity=110, time=0),
    Message('note_on', channel=2, note=55, velocity=110, time=96),
    Message('note_off', channel=2, note=55, velocity=110, time=48),
    Message('note_on', channel=2, note=57, velocity=110, time=0),
    Message('note_off', channel=2, note=57, velocity=110, time=48),
    Message('note_on', channel=2, note=55, velocity=110, time=0),
    Message('note_off', channel=2, note=55, velocity=110, time=96),
    Message('note_on', channel=2, note=57, velocity=120, time=0),
    Message('note_on', channel=2, note=52, velocity=120, time=0),
    Message('note_off', channel=2, note=57, velocity=120, time=96),
    Message('note_off', channel=2, note=52, velocity=120, time=0),
    Message('note_on', channel=2, note=40, velocity=110, time=0),
    Message('note_off', channel=2, note=40, velocity=110, time=96),
    Message('note_on', channel=2, note=56, velocity=120, time=0),
    Message('note_on', channel=2, note=51, velocity=120, time=0),
    Message('note_off', channel=2, note=56, velocity=120, time=96),
    Message('note_off', channel=2, note=51, velocity=120, time=0),
    Message('note_on', channel=2, note=40, velocity=110, time=0),
    Message('note_off', channel=2, note=40, velocity=110, time=96),
    Message('note_on', channel=2, note=55, velocity=120, time=0),
    Message('note_on', channel=2, note=50, velocity=120, time=0),
    Message('note_off', channel=2, note=55, velocity=120, time=84),
    Message('note_off', channel=2, note=50, velocity=120, time=0),
    Message('note_on', channel=2, note=50, velocity=110, time=12),
    Message('note_on', channel=2, note=55, velocity=110, time=0),
    Message('note_off', channel=2, note=50, velocity=110, time=1),
    Message('note_off', channel=2, note=55, velocity=110, time=0),
    Message('note_on', channel=2, note=49, velocity=110, time=11),
    Message('note_on', channel=2, note=54, velocity=110, time=0),
    Message('note_off', channel=2, note=49, velocity=110, time=1),
    Message('note_off', channel=2, note=54, velocity=110, time=0),
    Message('note_on', channel=2, note=48, velocity=110, time=11),
    Message('note_on', channel=2, note=53, velocity=110, time=0),
    Message('note_off', channel=2, note=48, velocity=110, time=1),
    Message('note_off', channel=2, note=53, velocity=110, time=0),
    Message('note_on', channel=2, note=47, velocity=110, time=11),
    Message('note_on', channel=2, note=52, velocity=110, time=0),
    Message('note_off', channel=2, note=47, velocity=110, time=1),
    Message('note_off', channel=2, note=52, velocity=110, time=0),
    Message('note_on', channel=2, note=52, velocity=110, time=11),
    Message('note_on', channel=2, note=47, velocity=110, time=0),
    Message('note_off', channel=2, note=52, velocity=110, time=1),
    Message('note_off', channel=2, note=47, velocity=110, time=0),
    Message('note_on', channel=2, note=47, velocity=110, time=11),
    Message('note_on', channel=2, note=52, velocity=110, time=0),
    Message('note_off', channel=2, note=47, velocity=110, time=1),
    Message('note_off', channel=2, note=52, velocity=110, time=0),
    Message('note_on', channel=2, note=47, velocity=110, time=11),
    Message('note_on', channel=2, note=52, velocity=110, time=0),
    Message('note_off', channel=2, note=47, velocity=110, time=1),
    Message('note_off', channel=2, note=52, velocity=110, time=0),
    Message('note_on', channel=2, note=51, velocity=110, time=11),
    Message('note_on', channel=2, note=46, velocity=110, time=0),
    Message('note_off', channel=2, note=51, velocity=110, time=1),
    Message('note_off', channel=2, note=46, velocity=110, time=0),
    Message('note_on', channel=2, note=50, velocity=110, time=11),
    Message('note_on', channel=2, note=45, velocity=110, time=0),
    Message('note_on', channel=2, note=40, velocity=110, time=0),
    Message('note_off', channel=2, note=50, velocity=110, time=1),
    Message('note_off', channel=2, note=45, velocity=110, time=0),
    Message('note_off', channel=2, note=40, velocity=110, time=95),
    Message('note_on', channel=2, note=40, velocity=110, time=0),
    Message('note_off', channel=2, note=40, velocity=110, time=96),
    Message('note_on', channel=2, note=50, velocity=120, time=0),
    Message('note_off', channel=2, note=50, velocity=120, time=192),
    Message('note_on', channel=2, note=47, velocity=110, time=0),
    Message('note_off', channel=2, note=47, velocity=110, time=96),
    Message('note_on', channel=2, note=46, velocity=110, time=0),
    Message('note_off', channel=2, note=46, velocity=110, time=96),
    Message('note_on', channel=2, note=45, velocity=110, time=0),
    Message('note_off', channel=2, note=45, velocity=110, time=96),
    Message('note_on', channel=2, note=43, velocity=110, time=0),
    Message('note_off', channel=2, note=43, velocity=110, time=96),
    Message('note_on', channel=2, note=42, velocity=110, time=0),
    Message('note_off', channel=2, note=42, velocity=110, time=96),
    Message('note_on', channel=2, note=41, velocity=110, time=0),
    Message('note_off', channel=2, note=41, velocity=110, time=96),
    Message('note_on', channel=2, note=40, velocity=120, time=0),
    Message('note_off', channel=2, note=40, velocity=120, time=288),
    Message('note_on', channel=2, note=59, velocity=110, time=0),
    Message('note_on', channel=2, note=52, velocity=110, time=0),
    Message('note_off', channel=2, note=59, velocity=110, time=288),
    Message('note_off', channel=2, note=52, velocity=110, time=0),
    Message('note_on', channel=2, note=58, velocity=110, time=0),
    Message('note_on', channel=2, note=51, velocity=110, time=0),
    Message('note_off', channel=2, note=58, velocity=110, time=192),
    Message('note_off', channel=2, note=51, velocity=110, time=0),
    Message('note_on', channel=2, note=40, velocity=110, time=0),
    Message('note_off', channel=2, note=40, velocity=110, time=96),
    Message('note_on', channel=2, note=57, velocity=110, time=0),
    Message('note_on', channel=2, note=52, velocity=110, time=0),
    Message('note_off', channel=2, note=57, velocity=110, time=96),
    Message('note_off', channel=2, note=52, velocity=110, time=0),
    Message('note_on', channel=2, note=50, velocity=110, time=0),
    Message('note_off', channel=2, note=50, velocity=110, time=192),
    Message('note_on', channel=2, note=56, velocity=110, time=0),
    Message('note_off', channel=2, note=56, velocity=110, time=192),
    Message('note_on', channel=2, note=52, velocity=110, time=0),
    Message('note_off', channel=2, note=52, velocity=110, time=96),
    Message('note_on', channel=2, note=47, velocity=110, time=0),
    Message('note_off', channel=2, note=47, velocity=110, time=96),
    Message('note_on', channel=2, note=47, velocity=110, time=12),
    Message('note_off', channel=2, note=47, velocity=110, time=1),
    Message('note_on', channel=2, note=46, velocity=110, time=11),
    Message('note_off', channel=2, note=46, velocity=110, time=1),
    Message('note_on', channel=2, note=45, velocity=110, time=11),
    Message('note_off', channel=2, note=45, velocity=110, time=1),
    Message('note_on', channel=2, note=44, velocity=110, time=11),
    Message('note_off', channel=2, note=44, velocity=110, time=1),
    Message('note_on', channel=2, note=43, velocity=110, time=11),
    Message('note_off', channel=2, note=43, velocity=110, time=1),
    Message('note_on', channel=2, note=42, velocity=110, time=11),
    Message('note_off', channel=2, note=42, velocity=110, time=1),
    Message('note_on', channel=2, note=41, velocity=110, time=11),
    Message('note_off', channel=2, note=41, velocity=110, time=1),
    Message('note_on', channel=2, note=40, velocity=120, time=11),
    Message('note_off', channel=2, note=40, velocity=120, time=192),
    Message('note_on', channel=2, note=55, velocity=110, time=0),
    Message('note_on', channel=2, note=48, velocity=110, time=0),
    Message('note_off', channel=2, note=55, velocity=110, time=288),
    Message('note_off', channel=2, note=48, velocity=110, time=0),
    Message('note_on', channel=2, note=54, velocity=110, time=0),
    Message('note_off', channel=2, note=54, velocity=110, time=192),
    Message('note_on', channel=2, note=40, velocity=110, time=0),
    Message('note_off', channel=2, note=40, velocity=110, time=96),
    Message('note_on', channel=2, note=57, velocity=120, time=0),
    Message('note_on', channel=2, note=50, velocity=120, time=0),
    Message('note_off', channel=2, note=57, velocity=120, time=288),
    Message('note_off', channel=2, note=50, velocity=120, time=0),
    Message('note_on', channel=2, note=55, velocity=110, time=0),
    Message('note_off', channel=2, note=55, velocity=110, time=96),
    Message('note_on', channel=2, note=54, velocity=110, time=0),
    Message('note_off', channel=2, note=54, velocity=110, time=96),
    Message('note_on', channel=2, note=50, velocity=110, time=0),
    Message('note_off', channel=2, note=50, velocity=110, time=96),
    Message('note_on', channel=2, note=47, velocity=110, time=0),
    Message('note_off', channel=2, note=47, velocity=110, time=192),
    Message('note_on', channel=2, note=40, velocity=120, time=0),
    Message('note_off', channel=2, note=40, velocity=120, time=192),
    Message('note_on', channel=2, note=59, velocity=110, time=0),
    Message('note_on', channel=2, note=50, velocity=110, time=0),
    Message('note_off', channel=2, note=59, velocity=110, time=288),
    Message('note_off', channel=2, note=50, velocity=110, time=0),
    Message('note_on', channel=2, note=58, velocity=110, time=0),
    Message('note_on', channel=2, note=49, velocity=110, time=0),
    Message('note_off', channel=2, note=58, velocity=110, time=192),
    Message('note_off', channel=2, note=49, velocity=110, time=0),
    Message('note_on', channel=2, note=40, velocity=110, time=0),
    Message('note_off', channel=2, note=40, velocity=110, time=96),
    Message('note_on', channel=2, note=57, velocity=110, time=0),
    Message('note_on', channel=2, note=52, velocity=110, time=0),
    Message('note_off', channel=2, note=57, velocity=110, time=288),
    Message('note_off', channel=2, note=52, velocity=110, time=0),
    Message('note_on', channel=2, note=56, velocity=110, time=0),
    Message('note_off', channel=2, note=56, velocity=110, time=192),
    Message('note_on', channel=2, note=52, velocity=110, time=0),
    Message('note_off', channel=2, note=52, velocity=110, time=96),
    Message('note_on', channel=2, note=47, velocity=110, time=0),
    Message('note_off', channel=2, note=47, velocity=110, time=96),
    Message('note_on', channel=2, note=47, velocity=110, time=12),
    Message('note_off', channel=2, note=47, velocity=110, time=1),
    Message('note_on', channel=2, note=46, velocity=110, time=11),
    Message('note_off', channel=2, note=46, velocity=110, time=1),
    Message('note_on', channel=2, note=45, velocity=110, time=11),
    Message('note_off', channel=2, note=45, velocity=110, time=1),
    Message('note_on', channel=2, note=44, velocity=110, time=11),
    Message('note_off', channel=2, note=44, velocity=110, time=1),
    Message('note_on', channel=2, note=43, velocity=110, time=11),
    Message('note_off', channel=2, note=43, velocity=110, time=1),
    Message('note_on', channel=2, note=42, velocity=110, time=11),
    Message('note_off', channel=2, note=42, velocity=110, time=1),
    Message('note_on', channel=2, note=41, velocity=110, time=11),
    Message('note_off', channel=2, note=41, velocity=110, time=1),
    Message('note_on', channel=2, note=40, velocity=120, time=11),
    Message('note_off', channel=2, note=40, velocity=120, time=192),
    Message('note_on', channel=2, note=55, velocity=110, time=0),
    Message('note_on', channel=2, note=48, velocity=110, time=0),
    Message('note_off', channel=2, note=55, velocity=110, time=288),
    Message('note_off', channel=2, note=48, velocity=110, time=0),
    Message('note_on', channel=2, note=54, velocity=110, time=0),
    Message('note_off', channel=2, note=54, velocity=110, time=192),
    Message('note_on', channel=2, note=40, velocity=110, time=0),
    Message('note_off', channel=2, note=40, velocity=110, time=96),
    Message('note_on', channel=2, note=57, velocity=110, time=0),
    Message('note_on', channel=2, note=50, velocity=110, time=0),
    Message('note_off', channel=2, note=57, velocity=110, time=96),
    Message('note_off', channel=2, note=50, velocity=110, time=0),
    Message('note_on', channel=2, note=50, velocity=110, time=0),
    Message('note_on', channel=2, note=57, velocity=110, time=0),
    Message('note_off', channel=2, note=50, velocity=110, time=96),
    Message('note_off', channel=2, note=57, velocity=110, time=0),
    Message('note_on', channel=2, note=50, velocity=110, time=0),
    Message('note_on', channel=2, note=57, velocity=110, time=0),
    Message('note_off', channel=2, note=50, velocity=110, time=96),
    Message('note_off', channel=2, note=57, velocity=110, time=0),
    Message('note_on', channel=2, note=50, velocity=110, time=0),
    Message('note_on', channel=2, note=57, velocity=110, time=0),
    Message('note_off', channel=2, note=50, velocity=110, time=96),
    Message('note_off', channel=2, note=57, velocity=110, time=0),
    Message('note_on', channel=2, note=57, velocity=120, time=0),
    Message('note_on', channel=2, note=50, velocity=120, time=0),
    Message('note_off', channel=2, note=57, velocity=120, time=288),
    Message('note_off', channel=2, note=50, velocity=120, time=0),
    Message('note_on', channel=2, note=57, velocity=110, time=0),
    Message('note_off', channel=2, note=57, velocity=110, time=1),
    Message('note_on', channel=2, note=50, velocity=110, time=11),
    Message('note_on', channel=2, note=56, velocity=110, time=0),
    Message('note_off', channel=2, note=50, velocity=110, time=1),
    Message('note_off', channel=2, note=56, velocity=110, time=0),
    Message('note_on', channel=2, note=49, velocity=110, time=11),
    Message('note_on', channel=2, note=55, velocity=110, time=0),
    Message('note_off', channel=2, note=49, velocity=110, time=1),
    Message('note_off', channel=2, note=55, velocity=110, time=0),
    Message('note_on', channel=2, note=48, velocity=110, time=11),
    Message('note_on', channel=2, note=54, velocity=110, time=0),
    Message('note_off', channel=2, note=48, velocity=110, time=1),
    Message('note_off', channel=2, note=54, velocity=110, time=0),
    Message('note_on', channel=2, note=47, velocity=110, time=11),
    Message('note_on', channel=2, note=53, velocity=110, time=0),
    Message('note_off', channel=2, note=47, velocity=110, time=1),
    Message('note_off', channel=2, note=53, velocity=110, time=0),
    Message('note_on', channel=2, note=46, velocity=110, time=11),
    Message('note_on', channel=2, note=52, velocity=110, time=0),
    Message('note_off', channel=2, note=46, velocity=110, time=1),
    Message('note_off', channel=2, note=52, velocity=110, time=0),
    Message('note_on', channel=2, note=45, velocity=110, time=11),
    Message('note_on', channel=2, note=51, velocity=110, time=0),
    Message('note_off', channel=2, note=45, velocity=110, time=1),
    Message('note_off', channel=2, note=51, velocity=110, time=0),
    Message('note_on', channel=2, note=44, velocity=110, time=11),
    Message('note_on', channel=2, note=50, velocity=110, time=0),
    Message('note_off', channel=2, note=44, velocity=110, time=1),
    Message('note_off', channel=2, note=50, velocity=110, time=0),
    Message('note_on', channel=2, note=40, velocity=120, time=11),
    Message('note_off', channel=2, note=40, velocity=120, time=192),
    Message('note_on', channel=2, note=62, velocity=110, time=0),
    Message('note_off', channel=2, note=62, velocity=110, time=288),
    Message('note_on', channel=2, note=63, velocity=110, time=0),
    Message('note_off', channel=2, note=63, velocity=110, time=192),
    Message('note_on', channel=2, note=40, velocity=110, time=0),
    Message('note_off', channel=2, note=40, velocity=110, time=96),
    Message('note_on', channel=2, note=60, velocity=110, time=0),
    Message('note_off', channel=2, note=60, velocity=110, time=288),
    Message('note_on', channel=2, note=59, velocity=110, time=0),
    Message('note_off', channel=2, note=59, velocity=110, time=192),
    Message('note_on', channel=2, note=56, velocity=110, time=0),
    Message('note_off', channel=2, note=56, velocity=110, time=96),
    Message('note_on', channel=2, note=52, velocity=110, time=0),
    Message('note_off', channel=2, note=52, velocity=110, time=96),
    Message('note_on', channel=2, note=52, velocity=110, time=0),
    Message('note_off', channel=2, note=52, velocity=110, time=1),
    Message('note_on', channel=2, note=51, velocity=110, time=11),
    Message('note_off', channel=2, note=51, velocity=110, time=1),
    Message('note_on', channel=2, note=50, velocity=110, time=11),
    Message('note_off', channel=2, note=50, velocity=110, time=1),
    Message('note_on', channel=2, note=49, velocity=110, time=11),
    Message('note_off', channel=2, note=49, velocity=110, time=1),
    Message('note_on', channel=2, note=48, velocity=110, time=11),
    Message('note_off', channel=2, note=48, velocity=110, time=1),
    Message('note_on', channel=2, note=47, velocity=110, time=11),
    Message('note_off', channel=2, note=47, velocity=110, time=1),
    Message('note_on', channel=2, note=46, velocity=110, time=11),
    Message('note_off', channel=2, note=46, velocity=110, time=1),
    Message('note_on', channel=2, note=45, velocity=110, time=11),
    Message('note_off', channel=2, note=45, velocity=110, time=1),
    Message('note_on', channel=2, note=40, velocity=120, time=11),
    Message('note_off', channel=2, note=40, velocity=120, time=192),
    Message('note_on', channel=2, note=59, velocity=110, time=0),
    Message('note_off', channel=2, note=59, velocity=110, time=288),
    Message('note_on', channel=2, note=57, velocity=110, time=0),
    Message('note_off', channel=2, note=57, velocity=110, time=192),
    Message('note_on', channel=2, note=40, velocity=110, time=0),
    Message('note_off', channel=2, note=40, velocity=110, time=96),
    Message('note_on', channel=2, note=62, velocity=110, time=0),
    Message('note_off', channel=2, note=62, velocity=110, time=288),
    Message('note_on', channel=2, note=59, velocity=110, time=0),
    Message('note_off', channel=2, note=59, velocity=110, time=96),
    Message('note_on', channel=2, note=57, velocity=110, time=0),
    Message('note_off', channel=2, note=57, velocity=110, time=96),
    Message('note_on', channel=2, note=54, velocity=110, time=0),
    Message('note_off', channel=2, note=54, velocity=110, time=96),
    Message('note_on', channel=2, note=50, velocity=110, time=0),
    Message('note_off', channel=2, note=50, velocity=110, time=192),
    Message('note_on', channel=2, note=40, velocity=120, time=0),
    Message('note_off', channel=2, note=40, velocity=120, time=192),
    Message('note_on', channel=2, note=62, velocity=110, time=0),
    Message('note_off', channel=2, note=62, velocity=110, time=288),
    Message('note_on', channel=2, note=63, velocity=110, time=0),
    Message('note_off', channel=2, note=63, velocity=110, time=192),
    Message('note_on', channel=2, note=40, velocity=110, time=0),
    Message('note_off', channel=2, note=40, velocity=110, time=96),
    Message('note_on', channel=2, note=60, velocity=110, time=0),
    Message('note_off', channel=2, note=60, velocity=110, time=288),
    Message('note_on', channel=2, note=59, velocity=110, time=0),
    Message('note_off', channel=2, note=59, velocity=110, time=192),
    Message('note_on', channel=2, note=56, velocity=110, time=0),
    Message('note_off', channel=2, note=56, velocity=110, time=96),
    Message('note_on', channel=2, note=52, velocity=110, time=0),
    Message('note_off', channel=2, note=52, velocity=110, time=96),
    Message('note_on', channel=2, note=52, velocity=110, time=0),
    Message('note_off', channel=2, note=52, velocity=110, time=1),
    Message('note_on', channel=2, note=51, velocity=110, time=11),
    Message('note_off', channel=2, note=51, velocity=110, time=1),
    Message('note_on', channel=2, note=50, velocity=110, time=11),
    Message('note_off', channel=2, note=50, velocity=110, time=1),
    Message('note_on', channel=2, note=49, velocity=110, time=11),
    Message('note_off', channel=2, note=49, velocity=110, time=1),
    Message('note_on', channel=2, note=48, velocity=110, time=11),
    Message('note_off', channel=2, note=48, velocity=110, time=1),
    Message('note_on', channel=2, note=47, velocity=110, time=11),
    Message('note_off', channel=2, note=47, velocity=110, time=1),
    Message('note_on', channel=2, note=46, velocity=110, time=11),
    Message('note_off', channel=2, note=46, velocity=110, time=1),
    Message('note_on', channel=2, note=45, velocity=110, time=11),
    Message('note_off', channel=2, note=45, velocity=110, time=1),
    Message('note_on', channel=2, note=40, velocity=120, time=11),
    Message('note_off', channel=2, note=40, velocity=120, time=192),
    Message('note_on', channel=2, note=59, velocity=110, time=0),
    Message('note_off', channel=2, note=59, velocity=110, time=288),
    Message('note_on', channel=2, note=57, velocity=110, time=0),
    Message('note_off', channel=2, note=57, velocity=110, time=192),
    Message('note_on', channel=2, note=40, velocity=110, time=0),
    Message('note_off', channel=2, note=40, velocity=110, time=96),
    Message('note_on', channel=2, note=62, velocity=110, time=0),
    Message('note_off', channel=2, note=62, velocity=110, time=288),
    Message('note_on', channel=2, note=59, velocity=110, time=0),
    Message('note_off', channel=2, note=59, velocity=110, time=96),
    Message('note_on', channel=2, note=57, velocity=110, time=0),
    Message('note_off', channel=2, note=57, velocity=110, time=96),
    Message('note_on', channel=2, note=54, velocity=110, time=0),
    Message('note_off', channel=2, note=54, velocity=110, time=96),
    Message('note_on', channel=2, note=50, velocity=110, time=0),
    Message('note_off', channel=2, note=50, velocity=110, time=192),
    Message('note_on', channel=2, note=40, velocity=120, time=0),
    Message('note_off', channel=2, note=40, velocity=120, time=192),
    Message('note_on', channel=2, note=59, velocity=110, time=0),
    Message('note_off', channel=2, note=59, velocity=110, time=288),
    Message('note_on', channel=2, note=57, velocity=110, time=0),
    Message('note_off', channel=2, note=57, velocity=110, time=192),
    Message('note_on', channel=2, note=40, velocity=110, time=0),
    Message('note_off', channel=2, note=40, velocity=110, time=96),
    Message('note_on', channel=2, note=57, velocity=110, time=0),
    Message('note_on', channel=2, note=50, velocity=110, time=0),
    Message('note_off', channel=2, note=57, velocity=110, time=96),
    Message('note_off', channel=2, note=50, velocity=110, time=0),
    Message('note_on', channel=2, note=50, velocity=110, time=0),
    Message('note_on', channel=2, note=57, velocity=110, time=0),
    Message('note_off', channel=2, note=50, velocity=110, time=96),
    Message('note_off', channel=2, note=57, velocity=110, time=0),
    Message('note_on', channel=2, note=50, velocity=110, time=0),
    Message('note_on', channel=2, note=57, velocity=110, time=0),
    Message('note_off', channel=2, note=50, velocity=110, time=96),
    Message('note_off', channel=2, note=57, velocity=110, time=0),
    Message('note_on', channel=2, note=50, velocity=110, time=0),
    Message('note_on', channel=2, note=57, velocity=110, time=0),
    Message('note_off', channel=2, note=50, velocity=110, time=96),
    Message('note_off', channel=2, note=57, velocity=110, time=0),
    Message('note_on', channel=2, note=57, velocity=120, time=0),
    Message('note_on', channel=2, note=50, velocity=120, time=0),
    Message('note_off', channel=2, note=57, velocity=120, time=287),
    Message('note_off', channel=2, note=50, velocity=120, time=0),
    Message('program_change', channel=2, program=29, time=85),
    Message('note_on', channel=2, note=60, velocity=110, time=12),
    Message('note_off', channel=2, note=60, velocity=110, time=1),
    Message('note_on', channel=2, note=61, velocity=110, time=11),
    Message('note_off', channel=2, note=61, velocity=110, time=1),
    Message('note_on', channel=2, note=62, velocity=110, time=11),
    Message('note_off', channel=2, note=62, velocity=110, time=1),
    Message('note_on', channel=2, note=63, velocity=110, time=11),
    Message('note_off', channel=2, note=63, velocity=110, time=1),
    Message('note_on', channel=2, note=64, velocity=120, time=11),
    Message('note_off', channel=2, note=64, velocity=120, time=720),
    Message('note_on', channel=2, note=62, velocity=120, time=0),
    Message('note_off', channel=2, note=62, velocity=120, time=48),
    Message('note_on', channel=2, note=64, velocity=120, time=0),
    Message('note_off', channel=2, note=64, velocity=120, time=144),
    Message('note_on', channel=2, note=64, velocity=120, time=0),
    Message('note_off', channel=2, note=64, velocity=120, time=192),
    Message('note_on', channel=2, note=64, velocity=120, time=0),
    Message('note_off', channel=2, note=64, velocity=120, time=144),
    Message('note_on', channel=2, note=64, velocity=110, time=12),
    Message('note_off', channel=2, note=64, velocity=110, time=1),
    Message('note_on', channel=2, note=63, velocity=110, time=11),
    Message('note_off', channel=2, note=63, velocity=110, time=1),
    Message('note_on', channel=2, note=62, velocity=110, time=11),
    Message('note_off', channel=2, note=62, velocity=110, time=1),
    Message('note_on', channel=2, note=59, velocity=120, time=11),
    Message('note_off', channel=2, note=59, velocity=120, time=96),
    Message('note_on', channel=2, note=61, velocity=120, time=0),
    Message('note_off', channel=2, note=61, velocity=120, time=48),
    Message('note_on', channel=2, note=62, velocity=120, time=0),
    Message('note_off', channel=2, note=62, velocity=120, time=432),
    Message('note_on', channel=2, note=59, velocity=120, time=0),
    Message('note_on', channel=2, note=55, velocity=120, time=0),
    Message('note_off', channel=2, note=59, velocity=120, time=96),
    Message('note_off', channel=2, note=55, velocity=120, time=0),
    Message('note_on', channel=2, note=64, velocity=120, time=0),
    Message('note_off', channel=2, note=64, velocity=120, time=240),
    Message('note_on', channel=2, note=57, velocity=120, time=0),
    Message('note_off', channel=2, note=57, velocity=120, time=528),
    Message('note_on', channel=2, note=55, velocity=120, time=0),
    Message('note_off', channel=2, note=55, velocity=120, time=96),
    Message('note_on', channel=2, note=57, velocity=120, time=0),
    Message('note_off', channel=2, note=57, velocity=120, time=96),
    Message('note_on', channel=2, note=55, velocity=120, time=0),
    Message('note_off', channel=2, note=55, velocity=120, time=96),
    Message('note_on', channel=2, note=59, velocity=120, time=0),
    Message('note_off', channel=2, note=59, velocity=120, time=96),
    Message('note_on', channel=2, note=59, velocity=120, time=0),
    Message('note_off', channel=2, note=59, velocity=120, time=96),
    Message('note_on', channel=2, note=57, velocity=120, time=0),
    Message('note_off', channel=2, note=57, velocity=120, time=192),
    Message('note_on', channel=2, note=58, velocity=120, time=0),
    Message('note_off', channel=2, note=58, velocity=120, time=192),
    Message('note_on', channel=2, note=58, velocity=120, time=0),
    Message('note_off', channel=2, note=58, velocity=120, time=96),
    Message('note_on', channel=2, note=57, velocity=120, time=0),
    Message('note_off', channel=2, note=57, velocity=120, time=48),
    Message('note_on', channel=2, note=58, velocity=120, time=0),
    Message('note_off', channel=2, note=58, velocity=120, time=48),
    Message('note_on', channel=2, note=57, velocity=120, time=0),
    Message('note_off', channel=2, note=57, velocity=120, time=96),
    Message('note_on', channel=2, note=55, velocity=120, time=0),
    Message('note_off', channel=2, note=55, velocity=120, time=96),
    Message('note_on', channel=2, note=52, velocity=120, time=0),
    Message('note_off', channel=2, note=52, velocity=120, time=96),
    Message('note_on', channel=2, note=55, velocity=120, time=0),
    Message('note_off', channel=2, note=55, velocity=120, time=48),
    Message('note_on', channel=2, note=50, velocity=120, time=0),
    Message('note_off', channel=2, note=50, velocity=120, time=48),
    Message('note_on', channel=2, note=52, velocity=120, time=0),
    Message('note_off', channel=2, note=52, velocity=120, time=288),
    Message('note_on', channel=2, note=52, velocity=120, time=0),
    Message('note_off', channel=2, note=52, velocity=120, time=1),
    Message('note_on', channel=2, note=53, velocity=120, time=11),
    Message('note_off', channel=2, note=53, velocity=120, time=1),
    Message('note_on', channel=2, note=54, velocity=120, time=11),
    Message('note_off', channel=2, note=54, velocity=120, time=1),
    Message('note_on', channel=2, note=55, velocity=120, time=11),
    Message('note_off', channel=2, note=55, velocity=120, time=1),
    Message('note_on', channel=2, note=56, velocity=120, time=11),
    Message('note_off', channel=2, note=56, velocity=120, time=1),
    Message('note_on', channel=2, note=57, velocity=120, time=11),
    Message('note_off', channel=2, note=57, velocity=120, time=1),
    Message('note_on', channel=2, note=58, velocity=120, time=11),
    Message('note_off', channel=2, note=58, velocity=120, time=1),
    Message('note_on', channel=2, note=59, velocity=120, time=11),
    Message('note_off', channel=2, note=59, velocity=120, time=1),
    Message('note_on', channel=2, note=60, velocity=120, time=11),
    Message('note_off', channel=2, note=60, velocity=120, time=48),
    Message('note_on', channel=2, note=64, velocity=120, time=0),
    Message('note_off', channel=2, note=64, velocity=120, time=48),
    Message('note_on', channel=2, note=66, velocity=120, time=0),
    Message('note_off', channel=2, note=66, velocity=120, time=48),
    Message('note_on', channel=2, note=60, velocity=120, time=0),
    Message('note_off', channel=2, note=60, velocity=120, time=48),
    Message('note_on', channel=2, note=64, velocity=120, time=0),
    Message('note_off', channel=2, note=64, velocity=120, time=48),
    Message('note_on', channel=2, note=66, velocity=120, time=0),
    Message('note_off', channel=2, note=66, velocity=120, time=48),
    Message('note_on', channel=2, note=69, velocity=120, time=0),
    Message('note_off', channel=2, note=69, velocity=120, time=48),
    Message('note_on', channel=2, note=72, velocity=120, time=0),
    Message('note_off', channel=2, note=72, velocity=120, time=48),
    Message('note_on', channel=2, note=76, velocity=120, time=0),
    Message('note_off', channel=2, note=76, velocity=120, time=48),
    Message('note_on', channel=2, note=69, velocity=120, time=0),
    Message('note_off', channel=2, note=69, velocity=120, time=48),
    Message('note_on', channel=2, note=72, velocity=120, time=0),
    Message('note_off', channel=2, note=72, velocity=120, time=48),
    Message('note_on', channel=2, note=76, velocity=120, time=0),
    Message('note_off', channel=2, note=76, velocity=120, time=48),
    Message('note_on', channel=2, note=78, velocity=120, time=0),
    Message('note_off', channel=2, note=78, velocity=120, time=72),
    Message('note_on', channel=2, note=76, velocity=120, time=0),
    Message('note_off', channel=2, note=76, velocity=120, time=24),
    Message('note_on', channel=2, note=72, velocity=120, time=0),
    Message('note_off', channel=2, note=72, velocity=120, time=48),
    Message('note_on', channel=2, note=76, velocity=120, time=0),
    Message('note_off', channel=2, note=76, velocity=120, time=48),
    Message('note_on', channel=2, note=66, velocity=120, time=0),
    Message('note_off', channel=2, note=66, velocity=120, time=72),
    Message('note_on', channel=2, note=69, velocity=120, time=0),
    Message('note_off', channel=2, note=69, velocity=120, time=48),
    Message('note_on', channel=2, note=66, velocity=120, time=0),
    Message('note_off', channel=2, note=66, velocity=120, time=16),
    Message('note_on', channel=2, note=64, velocity=120, time=8),
    Message('note_off', channel=2, note=64, velocity=120, time=16),
    Message('note_on', channel=2, note=69, velocity=120, time=0),
    Message('note_off', channel=2, note=69, velocity=120, time=16),
    Message('note_on', channel=2, note=66, velocity=120, time=0),
    Message('note_off', channel=2, note=66, velocity=120, time=16),
    Message('note_on', channel=2, note=72, velocity=120, time=0),
    Message('note_off', channel=2, note=72, velocity=120, time=96),
    Message('note_on', channel=2, note=69, velocity=120, time=0),
    Message('note_off', channel=2, note=69, velocity=120, time=32),
    Message('note_on', channel=2, note=72, velocity=120, time=0),
    Message('note_off', channel=2, note=72, velocity=120, time=32),
    Message('note_on', channel=2, note=69, velocity=120, time=0),
    Message('note_off', channel=2, note=69, velocity=120, time=32),
    Message('note_on', channel=2, note=66, velocity=120, time=0),
    Message('note_off', channel=2, note=66, velocity=120, time=48),
    Message('note_on', channel=2, note=64, velocity=120, time=0),
    Message('note_off', channel=2, note=64, velocity=120, time=48),
    Message('note_on', channel=2, note=60, velocity=120, time=0),
    Message('note_off', channel=2, note=60, velocity=120, time=288),
    Message('note_on', channel=2, note=71, velocity=120, time=0),
    Message('note_off', channel=2, note=71, velocity=120, time=48),
    Message('note_on', channel=2, note=69, velocity=120, time=0),
    Message('note_off', channel=2, note=69, velocity=120, time=48),
    Message('note_on', channel=2, note=67, velocity=120, time=0),
    Message('note_off', channel=2, note=67, velocity=120, time=48),
    Message('note_on', channel=2, note=69, velocity=120, time=0),
    Message('note_off', channel=2, note=69, velocity=120, time=48),
    Message('note_on', channel=2, note=71, velocity=120, time=0),
    Message('note_off', channel=2, note=71, velocity=120, time=48),
    Message('note_on', channel=2, note=69, velocity=120, time=0),
    Message('note_off', channel=2, note=69, velocity=120, time=48),
    Message('note_on', channel=2, note=67, velocity=120, time=0),
    Message('note_off', channel=2, note=67, velocity=120, time=48),
    Message('note_on', channel=2, note=69, velocity=120, time=0),
    Message('note_off', channel=2, note=69, velocity=120, time=48),
    Message('note_on', channel=2, note=74, velocity=120, time=0),
    Message('note_off', channel=2, note=74, velocity=120, time=48),
    Message('note_on', channel=2, note=69, velocity=120, time=0),
    Message('note_off', channel=2, note=69, velocity=120, time=48),
    Message('note_on', channel=2, note=67, velocity=120, time=0),
    Message('note_off', channel=2, note=67, velocity=120, time=48),
    Message('note_on', channel=2, note=74, velocity=120, time=0),
    Message('note_off', channel=2, note=74, velocity=120, time=48),
    Message('note_on', channel=2, note=69, velocity=120, time=0),
    Message('note_off', channel=2, note=69, velocity=120, time=48),
    Message('note_on', channel=2, note=67, velocity=120, time=0),
    Message('note_off', channel=2, note=67, velocity=120, time=48),
    Message('note_on', channel=2, note=74, velocity=120, time=0),
    Message('note_off', channel=2, note=74, velocity=120, time=48),
    Message('note_on', channel=2, note=69, velocity=120, time=0),
    Message('note_off', channel=2, note=69, velocity=120, time=48),
    Message('note_on', channel=2, note=76, velocity=120, time=0),
    Message('note_off', channel=2, note=76, velocity=120, time=48),
    Message('note_on', channel=2, note=74, velocity=120, time=0),
    Message('note_off', channel=2, note=74, velocity=120, time=48),
    Message('note_on', channel=2, note=69, velocity=120, time=0),
    Message('note_off', channel=2, note=69, velocity=120, time=48),
    Message('note_on', channel=2, note=74, velocity=120, time=0),
    Message('note_off', channel=2, note=74, velocity=120, time=48),
    Message('note_on', channel=2, note=76, velocity=120, time=0),
    Message('note_off', channel=2, note=76, velocity=120, time=48),
    Message('note_on', channel=2, note=74, velocity=120, time=0),
    Message('note_off', channel=2, note=74, velocity=120, time=48),
    Message('note_on', channel=2, note=69, velocity=120, time=0),
    Message('note_off', channel=2, note=69, velocity=120, time=48),
    Message('note_on', channel=2, note=67, velocity=120, time=48),
    Message('note_off', channel=2, note=67, velocity=120, time=48),
    Message('note_on', channel=2, note=62, velocity=120, time=0),
    Message('note_off', channel=2, note=62, velocity=120, time=48),
    Message('note_on', channel=2, note=59, velocity=120, time=0),
    Message('note_off', channel=2, note=59, velocity=120, time=48),
    Message('note_on', channel=2, note=67, velocity=120, time=0),
    Message('note_off', channel=2, note=67, velocity=120, time=48),
    Message('note_on', channel=2, note=62, velocity=120, time=0),
    Message('note_off', channel=2, note=62, velocity=120, time=48),
    Message('note_on', channel=2, note=59, velocity=120, time=0),
    Message('note_off', channel=2, note=59, velocity=120, time=48),
    Message('note_on', channel=2, note=67, velocity=120, time=0),
    Message('note_off', channel=2, note=67, velocity=120, time=48),
    Message('note_on', channel=2, note=62, velocity=120, time=0),
    Message('note_off', channel=2, note=62, velocity=120, time=48),
    Message('note_on', channel=2, note=67, velocity=120, time=0),
    Message('note_off', channel=2, note=67, velocity=120, time=48),
    Message('note_on', channel=2, note=62, velocity=120, time=0),
    Message('note_off', channel=2, note=62, velocity=120, time=48),
    Message('note_on', channel=2, note=59, velocity=120, time=0),
    Message('note_off', channel=2, note=59, velocity=120, time=48),
    Message('note_on', channel=2, note=62, velocity=120, time=0),
    Message('note_off', channel=2, note=62, velocity=120, time=48),
    Message('note_on', channel=2, note=67, velocity=120, time=0),
    Message('note_off', channel=2, note=67, velocity=120, time=48),
    Message('note_on', channel=2, note=62, velocity=120, time=0),
    Message('note_off', channel=2, note=62, velocity=120, time=48),
    Message('note_on', channel=2, note=59, velocity=120, time=0),
    Message('note_off', channel=2, note=59, velocity=120, time=48),
    Message('note_on', channel=2, note=62, velocity=120, time=0),
    Message('note_off', channel=2, note=62, velocity=120, time=48),
    Message('note_on', channel=2, note=74, velocity=120, time=0),
    Message('note_off', channel=2, note=74, velocity=120, time=48),
    Message('note_on', channel=2, note=71, velocity=120, time=0),
    Message('note_off', channel=2, note=71, velocity=120, time=48),
    Message('note_on', channel=2, note=69, velocity=120, time=0),
    Message('note_off', channel=2, note=69, velocity=120, time=48),
    Message('note_on', channel=2, note=71, velocity=120, time=0),
    Message('note_off', channel=2, note=71, velocity=120, time=48),
    Message('note_on', channel=2, note=67, velocity=120, time=0),
    Message('note_off', channel=2, note=67, velocity=120, time=48),
    Message('note_on', channel=2, note=62, velocity=120, time=0),
    Message('note_off', channel=2, note=62, velocity=120, time=48),
    Message('note_on', channel=2, note=59, velocity=120, time=0),
    Message('note_off', channel=2, note=59, velocity=120, time=48),
    Message('note_on', channel=2, note=55, velocity=120, time=0),
    Message('note_off', channel=2, note=55, velocity=120, time=48),
    Message('note_on', channel=2, note=74, velocity=120, time=0),
    Message('note_off', channel=2, note=74, velocity=120, time=48),
    Message('note_on', channel=2, note=71, velocity=120, time=0),
    Message('note_off', channel=2, note=71, velocity=120, time=48),
    Message('note_on', channel=2, note=67, velocity=120, time=0),
    Message('note_off', channel=2, note=67, velocity=120, time=48),
    Message('note_on', channel=2, note=62, velocity=120, time=0),
    Message('note_off', channel=2, note=62, velocity=120, time=48),
    Message('note_on', channel=2, note=64, velocity=120, time=0),
    Message('note_off', channel=2, note=64, velocity=120, time=48),
    Message('note_on', channel=2, note=62, velocity=120, time=0),
    Message('note_off', channel=2, note=62, velocity=120, time=48),
    Message('note_on', channel=2, note=61, velocity=120, time=0),
    Message('note_off', channel=2, note=61, velocity=120, time=48),
    Message('note_on', channel=2, note=62, velocity=120, time=0),
    Message('note_off', channel=2, note=62, velocity=120, time=48),
    Message('note_on', channel=2, note=69, velocity=120, time=0),
    Message('note_off', channel=2, note=69, velocity=120, time=48),
    Message('note_on', channel=2, note=70, velocity=120, time=0),
    Message('note_off', channel=2, note=70, velocity=120, time=288),
    Message('note_on', channel=2, note=70, velocity=120, time=0),
    Message('note_off', channel=2, note=70, velocity=120, time=1),
    Message('note_on', channel=2, note=69, velocity=120, time=11),
    Message('note_off', channel=2, note=69, velocity=120, time=1),
    Message('note_on', channel=2, note=68, velocity=120, time=11),
    Message('note_off', channel=2, note=68, velocity=120, time=1),
    Message('note_on', channel=2, note=67, velocity=120, time=11),
    Message('note_off', channel=2, note=67, velocity=120, time=1),
    Message('note_on', channel=2, note=70, velocity=120, time=11),
    Message('note_off', channel=2, note=70, velocity=120, time=48),
    Message('note_on', channel=2, note=67, velocity=120, time=0),
    Message('note_off', channel=2, note=67, velocity=120, time=48),
    Message('note_on', channel=2, note=64, velocity=120, time=0),
    Message('note_off', channel=2, note=64, velocity=120, time=48),
    Message('note_on', channel=2, note=67, velocity=120, time=0),
    Message('note_off', channel=2, note=67, velocity=120, time=48),
    Message('note_on', channel=2, note=70, velocity=120, time=0),
    Message('note_off', channel=2, note=70, velocity=120, time=48),
    Message('note_on', channel=2, note=71, velocity=120, time=0),
    Message('note_off', channel=2, note=71, velocity=120, time=48),
    Message('note_on', channel=2, note=72, velocity=120, time=0),
    Message('note_off', channel=2, note=72, velocity=120, time=48),
    Message('note_on', channel=2, note=71, velocity=120, time=0),
    Message('note_off', channel=2, note=71, velocity=120, time=48),
    Message('note_on', channel=2, note=70, velocity=120, time=0),
    Message('note_off', channel=2, note=70, velocity=120, time=48),
    Message('note_on', channel=2, note=67, velocity=120, time=0),
    Message('note_off', channel=2, note=67, velocity=120, time=48),
    Message('note_on', channel=2, note=64, velocity=120, time=0),
    Message('note_off', channel=2, note=64, velocity=120, time=48),
    Message('note_on', channel=2, note=67, velocity=120, time=0),
    Message('note_off', channel=2, note=67, velocity=120, time=48),
    Message('note_on', channel=2, note=70, velocity=120, time=0),
    Message('note_off', channel=2, note=70, velocity=120, time=48),
    Message('note_on', channel=2, note=71, velocity=120, time=0),
    Message('note_off', channel=2, note=71, velocity=120, time=48),
    Message('note_on', channel=2, note=72, velocity=120, time=0),
    Message('note_off', channel=2, note=72, velocity=120, time=48),
    Message('note_on', channel=2, note=59, velocity=120, time=0),
    Message('note_off', channel=2, note=59, velocity=120, time=48),
    Message('note_on', channel=2, note=72, velocity=120, time=0),
    Message('note_off', channel=2, note=72, velocity=120, time=48),
    Message('note_on', channel=2, note=71, velocity=120, time=0),
    Message('note_off', channel=2, note=71, velocity=120, time=48),
    Message('note_on', channel=2, note=70, velocity=120, time=0),
    Message('note_off', channel=2, note=70, velocity=120, time=48),
    Message('note_on', channel=2, note=67, velocity=120, time=0),
    Message('note_off', channel=2, note=67, velocity=120, time=48),
    Message('note_on', channel=2, note=64, velocity=120, time=0),
    Message('note_off', channel=2, note=64, velocity=120, time=48),
    Message('note_on', channel=2, note=67, velocity=120, time=0),
    Message('note_off', channel=2, note=67, velocity=120, time=48),
    Message('note_on', channel=2, note=69, velocity=120, time=0),
    Message('note_off', channel=2, note=69, velocity=120, time=48),
    Message('note_on', channel=2, note=71, velocity=120, time=0),
    Message('note_off', channel=2, note=71, velocity=120, time=48),
    Message('note_on', channel=2, note=71, velocity=120, time=0),
    Message('note_off', channel=2, note=71, velocity=120, time=48),
    Message('note_on', channel=2, note=76, velocity=120, time=0),
    Message('note_off', channel=2, note=76, velocity=120, time=48),
    Message('note_on', channel=2, note=74, velocity=120, time=0),
    Message('note_off', channel=2, note=74, velocity=120, time=48),
    Message('note_on', channel=2, note=71, velocity=120, time=0),
    Message('note_off', channel=2, note=71, velocity=120, time=48),
    Message('note_on', channel=2, note=70, velocity=120, time=0),
    Message('note_off', channel=2, note=70, velocity=120, time=48),
    Message('note_on', channel=2, note=69, velocity=120, time=0),
    Message('note_off', channel=2, note=69, velocity=120, time=48),
    Message('note_on', channel=2, note=67, velocity=120, time=0),
    Message('note_off', channel=2, note=67, velocity=120, time=48),
    Message('note_on', channel=2, note=64, velocity=120, time=0),
    Message('note_off', channel=2, note=64, velocity=120, time=48),
    Message('note_on', channel=2, note=67, velocity=120, time=0),
    Message('note_off', channel=2, note=67, velocity=120, time=48),
    Message('note_on', channel=2, note=69, velocity=120, time=0),
    Message('note_off', channel=2, note=69, velocity=120, time=240),
    Message('note_on', channel=2, note=76, velocity=120, time=0),
    Message('note_off', channel=2, note=76, velocity=120, time=32),
    Message('note_on', channel=2, note=74, velocity=120, time=0),
    Message('note_off', channel=2, note=74, velocity=120, time=32),
    Message('note_on', channel=2, note=71, velocity=120, time=0),
    Message('note_off', channel=2, note=71, velocity=120, time=32),
    Message('note_on', channel=2, note=76, velocity=120, time=0),
    Message('note_off', channel=2, note=76, velocity=120, time=96),
    Message('note_on', channel=2, note=76, velocity=120, time=0),
    Message('note_off', channel=2, note=76, velocity=120, time=32),
    Message('note_on', channel=2, note=74, velocity=120, time=0),
    Message('note_off', channel=2, note=74, velocity=120, time=32),
    Message('note_on', channel=2, note=71, velocity=120, time=0),
    Message('note_off', channel=2, note=71, velocity=120, time=32),
    Message('note_on', channel=2, note=71, velocity=120, time=0),
    Message('note_off', channel=2, note=71, velocity=120, time=32),
    Message('note_on', channel=2, note=71, velocity=120, time=0),
    Message('note_off', channel=2, note=71, velocity=120, time=32),
    Message('note_on', channel=2, note=76, velocity=120, time=0),
    Message('note_off', channel=2, note=76, velocity=120, time=32),
    Message('note_on', channel=2, note=74, velocity=120, time=0),
    Message('note_off', channel=2, note=74, velocity=120, time=32),
    Message('note_on', channel=2, note=71, velocity=120, time=0),
    Message('note_off', channel=2, note=71, velocity=120, time=32),
    Message('note_on', channel=2, note=71, velocity=120, time=0),
    Message('note_off', channel=2, note=71, velocity=120, time=32),
    Message('note_on', channel=2, note=71, velocity=120, time=0),
    Message('note_off', channel=2, note=71, velocity=120, time=64),
    Message('note_on', channel=2, note=76, velocity=120, time=0),
    Message('note_off', channel=2, note=76, velocity=120, time=32),
    Message('note_on', channel=2, note=74, velocity=120, time=0),
    Message('note_off', channel=2, note=74, velocity=120, time=32),
    Message('note_on', channel=2, note=71, velocity=120, time=0),
    Message('note_off', channel=2, note=71, velocity=120, time=32),
    Message('note_on', channel=2, note=71, velocity=120, time=0),
    Message('note_off', channel=2, note=71, velocity=120, time=32),
    Message('note_on', channel=2, note=76, velocity=120, time=0),
    Message('note_off', channel=2, note=76, velocity=120, time=48),
    Message('note_on', channel=2, note=74, velocity=120, time=0),
    Message('note_off', channel=2, note=74, velocity=120, time=48),
    Message('note_on', channel=2, note=71, velocity=120, time=0),
    Message('note_off', channel=2, note=71, velocity=120, time=48),
    Message('note_on', channel=2, note=76, velocity=120, time=0),
    Message('note_off', channel=2, note=76, velocity=120, time=48),
    Message('note_on', channel=2, note=66, velocity=120, time=0),
    Message('note_on', channel=2, note=71, velocity=120, time=0),
    Message('note_off', channel=2, note=66, velocity=120, time=480),
    Message('note_off', channel=2, note=71, velocity=120, time=0),
    Message('note_on', channel=2, note=66, velocity=120, time=0),
    Message('note_on', channel=2, note=71, velocity=120, time=0),
    Message('note_off', channel=2, note=66, velocity=120, time=1),
    Message('note_off', channel=2, note=71, velocity=120, time=0),
    Message('note_on', channel=2, note=65, velocity=120, time=11),
    Message('note_on', channel=2, note=70, velocity=120, time=0),
    Message('note_off', channel=2, note=65, velocity=120, time=1),
    Message('note_off', channel=2, note=70, velocity=120, time=0),
    Message('note_on', channel=2, note=64, velocity=120, time=11),
    Message('note_on', channel=2, note=69, velocity=120, time=0),
    Message('note_off', channel=2, note=64, velocity=120, time=1),
    Message('note_off', channel=2, note=69, velocity=120, time=0),
    Message('note_on', channel=2, note=63, velocity=120, time=11),
    Message('note_on', channel=2, note=68, velocity=120, time=0),
    Message('note_off', channel=2, note=63, velocity=120, time=1),
    Message('note_off', channel=2, note=68, velocity=120, time=0),
    Message('note_on', channel=2, note=62, velocity=120, time=11),
    Message('note_on', channel=2, note=67, velocity=120, time=0),
    Message('note_off', channel=2, note=62, velocity=120, time=1),
    Message('note_off', channel=2, note=67, velocity=120, time=0),
    Message('note_on', channel=2, note=61, velocity=120, time=11),
    Message('note_on', channel=2, note=66, velocity=120, time=0),
    Message('note_off', channel=2, note=61, velocity=120, time=1),
    Message('note_off', channel=2, note=66, velocity=120, time=0),
    Message('note_on', channel=2, note=60, velocity=120, time=11),
    Message('note_on', channel=2, note=65, velocity=120, time=0),
    Message('note_off', channel=2, note=60, velocity=120, time=1),
    Message('note_off', channel=2, note=65, velocity=120, time=0),
    Message('note_on', channel=2, note=59, velocity=120, time=11),
    Message('note_on', channel=2, note=64, velocity=120, time=0),
    Message('note_off', channel=2, note=59, velocity=120, time=1),
    Message('note_off', channel=2, note=64, velocity=120, time=0),
    Message('note_on', channel=2, note=58, velocity=120, time=11),
    Message('note_on', channel=2, note=63, velocity=120, time=0),
    Message('note_off', channel=2, note=58, velocity=120, time=1),
    Message('note_off', channel=2, note=63, velocity=120, time=0),
    Message('program_change', channel=2, program=29, time=1331),
    Message('note_on', channel=2, note=48, velocity=110, time=12),
    Message('note_on', channel=2, note=41, velocity=110, time=0),
    Message('note_off', channel=2, note=48, velocity=110, time=96),
    Message('note_off', channel=2, note=41, velocity=110, time=0),
    Message('note_on', channel=2, note=47, velocity=110, time=0),
    Message('note_on', channel=2, note=40, velocity=110, time=0),
    Message('note_off', channel=2, note=47, velocity=110, time=96),
    Message('note_off', channel=2, note=40, velocity=110, time=0),
    Message('note_on', channel=2, note=47, velocity=110, time=96),
    Message('note_on', channel=2, note=40, velocity=110, time=0),
    Message('note_off', channel=2, note=47, velocity=110, time=96),
    Message('note_off', channel=2, note=40, velocity=110, time=0),
    Message('note_on', channel=2, note=48, velocity=110, time=1152),
    Message('note_on', channel=2, note=41, velocity=110, time=0),
    Message('note_off', channel=2, note=48, velocity=110, time=96),
    Message('note_off', channel=2, note=41, velocity=110, time=0),
    Message('note_on', channel=2, note=40, velocity=110, time=0),
    Message('note_on', channel=2, note=47, velocity=110, time=0),
    Message('note_off', channel=2, note=40, velocity=110, time=96),
    Message('note_off', channel=2, note=47, velocity=110, time=0),
    Message('note_on', channel=2, note=47, velocity=110, time=96),
    Message('note_on', channel=2, note=40, velocity=110, time=0),
    Message('note_off', channel=2, note=47, velocity=110, time=96),
    Message('note_off', channel=2, note=40, velocity=110, time=0),
    Message('note_on', channel=2, note=41, velocity=110, time=384),
    Message('note_on', channel=2, note=48, velocity=110, time=0),
    Message('note_off', channel=2, note=41, velocity=110, time=96),
    Message('note_off', channel=2, note=48, velocity=110, time=0),
    Message('note_on', channel=2, note=47, velocity=110, time=0),
    Message('note_on', channel=2, note=40, velocity=110, time=0),
    Message('note_off', channel=2, note=47, velocity=110, time=96),
    Message('note_off', channel=2, note=40, velocity=110, time=0),
    Message('note_on', channel=2, note=40, velocity=110, time=96),
    Message('note_on', channel=2, note=47, velocity=110, time=0),
    Message('note_off', channel=2, note=40, velocity=110, time=96),
    Message('note_off', channel=2, note=47, velocity=110, time=0),
    Message('note_on', channel=2, note=41, velocity=110, time=96),
    Message('note_off', channel=2, note=41, velocity=110, time=96),
    Message('note_on', channel=2, note=43, velocity=110, time=0),
    Message('note_off', channel=2, note=43, velocity=110, time=96),
    Message('note_on', channel=2, note=41, velocity=110, time=0),
    Message('note_off', channel=2, note=41, velocity=110, time=96),
    Message('note_on', channel=2, note=48, velocity=110, time=0),
    Message('note_on', channel=2, note=41, velocity=110, time=0),
    Message('note_off', channel=2, note=48, velocity=110, time=96),
    Message('note_off', channel=2, note=41, velocity=110, time=0),
    Message('note_on', channel=2, note=47, velocity=110, time=0),
    Message('note_on', channel=2, note=40, velocity=110, time=0),
    Message('note_off', channel=2, note=47, velocity=110, time=96),
    Message('note_off', channel=2, note=40, velocity=110, time=0),
    Message('note_on', channel=2, note=47, velocity=110, time=96),
    Message('note_on', channel=2, note=40, velocity=110, time=0),
    Message('note_off', channel=2, note=47, velocity=110, time=96),
    Message('note_off', channel=2, note=40, velocity=110, time=0),
    Message('note_on', channel=2, note=48, velocity=110, time=1152),
    Message('note_on', channel=2, note=41, velocity=110, time=0),
    Message('note_off', channel=2, note=48, velocity=110, time=96),
    Message('note_off', channel=2, note=41, velocity=110, time=0),
    Message('note_on', channel=2, note=40, velocity=110, time=0),
    Message('note_on', channel=2, note=47, velocity=110, time=0),
    Message('note_off', channel=2, note=40, velocity=110, time=96),
    Message('note_off', channel=2, note=47, velocity=110, time=0),
    Message('note_on', channel=2, note=47, velocity=110, time=96),
    Message('note_on', channel=2, note=40, velocity=110, time=0),
    Message('note_off', channel=2, note=47, velocity=110, time=96),
    Message('note_off', channel=2, note=40, velocity=110, time=0),
    Message('note_on', channel=2, note=41, velocity=110, time=384),
    Message('note_on', channel=2, note=48, velocity=110, time=0),
    Message('note_off', channel=2, note=41, velocity=110, time=96),
    Message('note_off', channel=2, note=48, velocity=110, time=0),
    Message('note_on', channel=2, note=47, velocity=110, time=0),
    Message('note_on', channel=2, note=40, velocity=110, time=0),
    Message('note_off', channel=2, note=47, velocity=110, time=96),
    Message('note_off', channel=2, note=40, velocity=110, time=0),
    Message('note_on', channel=2, note=40, velocity=110, time=96),
    Message('note_on', channel=2, note=47, velocity=110, time=0),
    Message('note_off', channel=2, note=40, velocity=110, time=96),
    Message('note_off', channel=2, note=47, velocity=110, time=0),
    Message('note_on', channel=2, note=41, velocity=110, time=96),
    Message('note_off', channel=2, note=41, velocity=110, time=96),
    Message('note_on', channel=2, note=43, velocity=110, time=0),
    Message('note_off', channel=2, note=43, velocity=110, time=96),
    Message('note_on', channel=2, note=41, velocity=110, time=0),
    Message('note_off', channel=2, note=41, velocity=110, time=96),
    Message('note_on', channel=2, note=48, velocity=110, time=0),
    Message('note_on', channel=2, note=41, velocity=110, time=0),
    Message('note_off', channel=2, note=48, velocity=110, time=96),
    Message('note_off', channel=2, note=41, velocity=110, time=0),
    Message('note_on', channel=2, note=47, velocity=110, time=0),
    Message('note_on', channel=2, note=40, velocity=110, time=0),
    Message('note_off', channel=2, note=47, velocity=110, time=96),
    Message('note_off', channel=2, note=40, velocity=110, time=0),
    Message('note_on', channel=2, note=47, velocity=110, time=96),
    Message('note_on', channel=2, note=40, velocity=110, time=0),
    Message('note_off', channel=2, note=47, velocity=110, time=96),
    Message('note_off', channel=2, note=40, velocity=110, time=0),
    Message('note_on', channel=2, note=48, velocity=110, time=1152),
    Message('note_on', channel=2, note=41, velocity=110, time=0),
    Message('note_off', channel=2, note=48, velocity=110, time=96),
    Message('note_off', channel=2, note=41, velocity=110, time=0),
    Message('note_on', channel=2, note=40, velocity=110, time=0),
    Message('note_on', channel=2, note=47, velocity=110, time=0),
    Message('note_off', channel=2, note=40, velocity=110, time=96),
    Message('note_off', channel=2, note=47, velocity=110, time=0),
    Message('note_on', channel=2, note=47, velocity=110, time=96),
    Message('note_on', channel=2, note=40, velocity=110, time=0),
    Message('note_off', channel=2, note=47, velocity=110, time=96),
    Message('note_off', channel=2, note=40, velocity=110, time=0),
    Message('note_on', channel=2, note=41, velocity=110, time=384),
    Message('note_on', channel=2, note=48, velocity=110, time=0),
    Message('note_off', channel=2, note=41, velocity=110, time=96),
    Message('note_off', channel=2, note=48, velocity=110, time=0),
    Message('note_on', channel=2, note=47, velocity=110, time=0),
    Message('note_on', channel=2, note=40, velocity=110, time=0),
    Message('note_off', channel=2, note=47, velocity=110, time=96),
    Message('note_off', channel=2, note=40, velocity=110, time=0),
    Message('note_on', channel=2, note=40, velocity=110, time=96),
    Message('note_on', channel=2, note=47, velocity=110, time=0),
    Message('note_off', channel=2, note=40, velocity=110, time=96),
    Message('note_off', channel=2, note=47, velocity=110, time=0),
    Message('note_on', channel=2, note=41, velocity=110, time=96),
    Message('note_off', channel=2, note=41, velocity=110, time=96),
    Message('note_on', channel=2, note=43, velocity=110, time=0),
    Message('note_off', channel=2, note=43, velocity=110, time=96),
    Message('note_on', channel=2, note=41, velocity=110, time=0),
    Message('note_off', channel=2, note=41, velocity=110, time=96),
    Message('note_on', channel=2, note=48, velocity=110, time=0),
    Message('note_on', channel=2, note=41, velocity=110, time=0),
    Message('note_off', channel=2, note=48, velocity=110, time=96),
    Message('note_off', channel=2, note=41, velocity=110, time=0),
    Message('note_on', channel=2, note=47, velocity=110, time=0),
    Message('note_on', channel=2, note=40, velocity=110, time=0),
    Message('note_off', channel=2, note=47, velocity=110, time=96),
    Message('note_off', channel=2, note=40, velocity=110, time=0),
    Message('note_on', channel=2, note=47, velocity=110, time=96),
    Message('note_on', channel=2, note=40, velocity=110, time=0),
    Message('note_off', channel=2, note=47, velocity=110, time=96),
    Message('note_off', channel=2, note=40, velocity=110, time=0),
    Message('note_on', channel=2, note=40, velocity=110, time=864),
    Message('note_off', channel=2, note=40, velocity=110, time=96),
    Message('note_on', channel=2, note=40, velocity=110, time=0),
    Message('note_off', channel=2, note=40, velocity=110, time=96),
    Message('note_on', channel=2, note=57, velocity=120, time=0),
    Message('note_on', channel=2, note=52, velocity=120, time=0),
    Message('note_off', channel=2, note=57, velocity=120, time=96),
    Message('note_off', channel=2, note=52, velocity=120, time=0),
    Message('note_on', channel=2, note=40, velocity=110, time=0),
    Message('note_off', channel=2, note=40, velocity=110, time=96),
    Message('note_on', channel=2, note=51, velocity=120, time=0),
    Message('note_on', channel=2, note=56, velocity=120, time=0),
    Message('note_off', channel=2, note=51, velocity=120, time=96),
    Message('note_off', channel=2, note=56, velocity=120, time=0),
    Message('note_on', channel=2, note=40, velocity=110, time=0),
    Message('note_off', channel=2, note=40, velocity=110, time=96),
    Message('note_on', channel=2, note=55, velocity=120, time=0),
    Message('note_on', channel=2, note=50, velocity=120, time=0),
    Message('note_off', channel=2, note=55, velocity=120, time=96),
    Message('note_off', channel=2, note=50, velocity=120, time=0),
    Message('note_on', channel=2, note=55, velocity=110, time=96),
    Message('note_off', channel=2, note=55, velocity=110, time=48),
    Message('note_on', channel=2, note=57, velocity=110, time=0),
    Message('note_off', channel=2, note=57, velocity=110, time=48),
    Message('note_on', channel=2, note=55, velocity=110, time=0),
    Message('note_off', channel=2, note=55, velocity=110, time=96),
    Message('note_on', channel=2, note=57, velocity=120, time=0),
    Message('note_on', channel=2, note=52, velocity=120, time=0),
    Message('note_off', channel=2, note=57, velocity=120, time=96),
    Message('note_off', channel=2, note=52, velocity=120, time=0),
    Message('note_on', channel=2, note=40, velocity=110, time=0),
    Message('note_off', channel=2, note=40, velocity=110, time=96),
    Message('note_on', channel=2, note=56, velocity=110, time=0),
    Message('note_on', channel=2, note=51, velocity=110, time=0),
    Message('note_off', channel=2, note=56, velocity=110, time=96),
    Message('note_off', channel=2, note=51, velocity=110, time=0),
    Message('note_on', channel=2, note=40, velocity=110, time=0),
    Message('note_off', channel=2, note=40, velocity=110, time=96),
    Message('note_on', channel=2, note=55, velocity=110, time=0),
    Message('note_on', channel=2, note=50, velocity=110, time=0),
    Message('note_off', channel=2, note=55, velocity=110, time=96),
    Message('note_off', channel=2, note=50, velocity=110, time=0),
    Message('note_on', channel=2, note=55, velocity=110, time=96),
    Message('note_off', channel=2, note=55, velocity=110, time=48),
    Message('note_on', channel=2, note=57, velocity=110, time=0),
    Message('note_off', channel=2, note=57, velocity=110, time=48),
    Message('note_on', channel=2, note=55, velocity=110, time=0),
    Message('note_off', channel=2, note=55, velocity=110, time=96),
    Message('note_on', channel=2, note=57, velocity=120, time=0),
    Message('note_on', channel=2, note=52, velocity=120, time=0),
    Message('note_off', channel=2, note=57, velocity=120, time=96),
    Message('note_off', channel=2, note=52, velocity=120, time=0),
    Message('note_on', channel=2, note=40, velocity=110, time=0),
    Message('note_off', channel=2, note=40, velocity=110, time=96),
    Message('note_on', channel=2, note=56, velocity=110, time=0),
    Message('note_on', channel=2, note=51, velocity=110, time=0),
    Message('note_off', channel=2, note=56, velocity=110, time=96),
    Message('note_off', channel=2, note=51, velocity=110, time=0),
    Message('note_on', channel=2, note=40, velocity=110, time=0),
    Message('note_off', channel=2, note=40, velocity=110, time=96),
    Message('note_on', channel=2, note=55, velocity=110, time=0),
    Message('note_on', channel=2, note=50, velocity=110, time=0),
    Message('note_off', channel=2, note=55, velocity=110, time=96),
    Message('note_off', channel=2, note=50, velocity=110, time=0),
    Message('note_on', channel=2, note=55, velocity=110, time=96),
    Message('note_off', channel=2, note=55, velocity=110, time=48),
    Message('note_on', channel=2, note=57, velocity=110, time=0),
    Message('note_off', channel=2, note=57, velocity=110, time=48),
    Message('note_on', channel=2, note=55, velocity=110, time=0),
    Message('note_off', channel=2, note=55, velocity=110, time=96),
    Message('note_on', channel=2, note=57, velocity=120, time=0),
    Message('note_on', channel=2, note=52, velocity=120, time=0),
    Message('note_off', channel=2, note=57, velocity=120, time=96),
    Message('note_off', channel=2, note=52, velocity=120, time=0),
    Message('note_on', channel=2, note=40, velocity=110, time=0),
    Message('note_off', channel=2, note=40, velocity=110, time=96),
    Message('note_on', channel=2, note=56, velocity=110, time=0),
    Message('note_on', channel=2, note=51, velocity=110, time=0),
    Message('note_off', channel=2, note=56, velocity=110, time=96),
    Message('note_off', channel=2, note=51, velocity=110, time=0),
    Message('note_on', channel=2, note=40, velocity=110, time=0),
    Message('note_off', channel=2, note=40, velocity=110, time=96),
    Message('note_on', channel=2, note=55, velocity=110, time=0),
    Message('note_on', channel=2, note=50, velocity=110, time=0),
    Message('note_off', channel=2, note=55, velocity=110, time=96),
    Message('note_off', channel=2, note=50, velocity=110, time=0),
    Message('note_on', channel=2, note=55, velocity=110, time=96),
    Message('note_off', channel=2, note=55, velocity=110, time=48),
    Message('note_on', channel=2, note=57, velocity=110, time=0),
    Message('note_off', channel=2, note=57, velocity=110, time=48),
    Message('note_on', channel=2, note=55, velocity=110, time=0),
    Message('note_off', channel=2, note=55, velocity=110, time=96),
    Message('note_on', channel=2, note=57, velocity=120, time=0),
    Message('note_on', channel=2, note=52, velocity=120, time=0),
    Message('note_off', channel=2, note=57, velocity=120, time=96),
    Message('note_off', channel=2, note=52, velocity=120, time=0),
    Message('note_on', channel=2, note=40, velocity=110, time=0),
    Message('note_off', channel=2, note=40, velocity=110, time=96),
    Message('note_on', channel=2, note=56, velocity=110, time=0),
    Message('note_on', channel=2, note=51, velocity=110, time=0),
    Message('note_off', channel=2, note=56, velocity=110, time=96),
    Message('note_off', channel=2, note=51, velocity=110, time=0),
    Message('note_on', channel=2, note=40, velocity=110, time=0),
    Message('note_off', channel=2, note=40, velocity=110, time=96),
    Message('note_on', channel=2, note=55, velocity=110, time=0),
    Message('note_on', channel=2, note=50, velocity=110, time=0),
    Message('note_off', channel=2, note=55, velocity=110, time=96),
    Message('note_off', channel=2, note=50, velocity=110, time=0),
    Message('note_on', channel=2, note=55, velocity=110, time=96),
    Message('note_off', channel=2, note=55, velocity=110, time=48),
    Message('note_on', channel=2, note=57, velocity=110, time=0),
    Message('note_off', channel=2, note=57, velocity=110, time=48),
    Message('note_on', channel=2, note=55, velocity=110, time=0),
    Message('note_off', channel=2, note=55, velocity=110, time=96),
    Message('note_on', channel=2, note=57, velocity=120, time=0),
    Message('note_on', channel=2, note=52, velocity=120, time=0),
    Message('note_off', channel=2, note=57, velocity=120, time=96),
    Message('note_off', channel=2, note=52, velocity=120, time=0),
    Message('note_on', channel=2, note=40, velocity=110, time=0),
    Message('note_off', channel=2, note=40, velocity=110, time=96),
    Message('note_on', channel=2, note=56, velocity=110, time=0),
    Message('note_on', channel=2, note=51, velocity=110, time=0),
    Message('note_off', channel=2, note=56, velocity=110, time=96),
    Message('note_off', channel=2, note=51, velocity=110, time=0),
    Message('note_on', channel=2, note=40, velocity=110, time=0),
    Message('note_off', channel=2, note=40, velocity=110, time=96),
    Message('note_on', channel=2, note=55, velocity=110, time=0),
    Message('note_on', channel=2, note=50, velocity=110, time=0),
    Message('note_off', channel=2, note=55, velocity=110, time=96),
    Message('note_off', channel=2, note=50, velocity=110, time=0),
    Message('note_on', channel=2, note=55, velocity=110, time=96),
    Message('note_off', channel=2, note=55, velocity=110, time=48),
    Message('note_on', channel=2, note=57, velocity=110, time=0),
    Message('note_off', channel=2, note=57, velocity=110, time=48),
    Message('note_on', channel=2, note=55, velocity=110, time=0),
    Message('note_off', channel=2, note=55, velocity=110, time=96),
    Message('note_on', channel=2, note=57, velocity=120, time=0),
    Message('note_on', channel=2, note=52, velocity=120, time=0),
    Message('note_off', channel=2, note=57, velocity=120, time=96),
    Message('note_off', channel=2, note=52, velocity=120, time=0),
    Message('note_on', channel=2, note=40, velocity=110, time=0),
    Message('note_off', channel=2, note=40, velocity=110, time=96),
    Message('note_on', channel=2, note=56, velocity=120, time=0),
    Message('note_on', channel=2, note=51, velocity=120, time=0),
    Message('note_off', channel=2, note=56, velocity=120, time=96),
    Message('note_off', channel=2, note=51, velocity=120, time=0),
    Message('note_on', channel=2, note=40, velocity=110, time=0),
    Message('note_off', channel=2, note=40, velocity=110, time=96),
    Message('note_on', channel=2, note=55, velocity=120, time=0),
    Message('note_on', channel=2, note=50, velocity=120, time=0),
    Message('note_off', channel=2, note=55, velocity=120, time=84),
    Message('note_off', channel=2, note=50, velocity=120, time=0),
    Message('note_on', channel=2, note=50, velocity=110, time=12),
    Message('note_on', channel=2, note=55, velocity=110, time=0),
    Message('note_off', channel=2, note=50, velocity=110, time=1),
    Message('note_off', channel=2, note=55, velocity=110, time=0),
    Message('note_on', channel=2, note=49, velocity=110, time=11),
    Message('note_on', channel=2, note=54, velocity=110, time=0),
    Message('note_off', channel=2, note=49, velocity=110, time=1),
    Message('note_off', channel=2, note=54, velocity=110, time=0),
    Message('note_on', channel=2, note=48, velocity=110, time=11),
    Message('note_on', channel=2, note=53, velocity=110, time=0),
    Message('note_off', channel=2, note=48, velocity=110, time=1),
    Message('note_off', channel=2, note=53, velocity=110, time=0),
    Message('note_on', channel=2, note=47, velocity=110, time=11),
    Message('note_on', channel=2, note=52, velocity=110, time=0),
    Message('note_off', channel=2, note=47, velocity=110, time=1),
    Message('note_off', channel=2, note=52, velocity=110, time=0),
    Message('note_on', channel=2, note=52, velocity=110, time=11),
    Message('note_on', channel=2, note=47, velocity=110, time=0),
    Message('note_off', channel=2, note=52, velocity=110, time=1),
    Message('note_off', channel=2, note=47, velocity=110, time=0),
    Message('note_on', channel=2, note=47, velocity=110, time=11),
    Message('note_on', channel=2, note=52, velocity=110, time=0),
    Message('note_off', channel=2, note=47, velocity=110, time=1),
    Message('note_off', channel=2, note=52, velocity=110, time=0),
    Message('note_on', channel=2, note=47, velocity=110, time=11),
    Message('note_on', channel=2, note=52, velocity=110, time=0),
    Message('note_off', channel=2, note=47, velocity=110, time=1),
    Message('note_off', channel=2, note=52, velocity=110, time=0),
    Message('note_on', channel=2, note=51, velocity=110, time=11),
    Message('note_on', channel=2, note=46, velocity=110, time=0),
    Message('note_off', channel=2, note=51, velocity=110, time=1),
    Message('note_off', channel=2, note=46, velocity=110, time=0),
    Message('note_on', channel=2, note=50, velocity=110, time=11),
    Message('note_on', channel=2, note=45, velocity=110, time=0),
    Message('note_on', channel=2, note=40, velocity=110, time=0),
    Message('note_off', channel=2, note=50, velocity=110, time=1),
    Message('note_off', channel=2, note=45, velocity=110, time=0),
    Message('note_off', channel=2, note=40, velocity=110, time=95),
    Message('note_on', channel=2, note=40, velocity=110, time=0),
    Message('note_off', channel=2, note=40, velocity=110, time=96),
    Message('note_on', channel=2, note=50, velocity=120, time=0),
    Message('note_off', channel=2, note=50, velocity=120, time=192),
    Message('note_on', channel=2, note=47, velocity=110, time=0),
    Message('note_off', channel=2, note=47, velocity=110, time=96),
    Message('note_on', channel=2, note=46, velocity=110, time=0),
    Message('note_off', channel=2, note=46, velocity=110, time=96),
    Message('note_on', channel=2, note=45, velocity=110, time=0),
    Message('note_off', channel=2, note=45, velocity=110, time=96),
    Message('note_on', channel=2, note=43, velocity=110, time=0),
    Message('note_off', channel=2, note=43, velocity=110, time=96),
    Message('note_on', channel=2, note=42, velocity=110, time=0),
    Message('note_off', channel=2, note=42, velocity=110, time=96),
    Message('note_on', channel=2, note=41, velocity=110, time=0),
    Message('note_off', channel=2, note=41, velocity=110, time=96),
    Message('note_on', channel=2, note=40, velocity=120, time=0),
    Message('note_off', channel=2, note=40, velocity=120, time=288),
    Message('note_on', channel=2, note=59, velocity=110, time=0),
    Message('note_on', channel=2, note=52, velocity=110, time=0),
    Message('note_off', channel=2, note=59, velocity=110, time=288),
    Message('note_off', channel=2, note=52, velocity=110, time=0),
    Message('note_on', channel=2, note=58, velocity=110, time=0),
    Message('note_on', channel=2, note=51, velocity=110, time=0),
    Message('note_off', channel=2, note=58, velocity=110, time=192),
    Message('note_off', channel=2, note=51, velocity=110, time=0),
    Message('note_on', channel=2, note=40, velocity=110, time=0),
    Message('note_off', channel=2, note=40, velocity=110, time=96),
    Message('note_on', channel=2, note=57, velocity=110, time=0),
    Message('note_on', channel=2, note=52, velocity=110, time=0),
    Message('note_off', channel=2, note=57, velocity=110, time=96),
    Message('note_off', channel=2, note=52, velocity=110, time=0),
    Message('note_on', channel=2, note=50, velocity=110, time=0),
    Message('note_off', channel=2, note=50, velocity=110, time=192),
    Message('note_on', channel=2, note=56, velocity=110, time=0),
    Message('note_off', channel=2, note=56, velocity=110, time=192),
    Message('note_on', channel=2, note=52, velocity=110, time=0),
    Message('note_off', channel=2, note=52, velocity=110, time=96),
    Message('note_on', channel=2, note=47, velocity=110, time=0),
    Message('note_off', channel=2, note=47, velocity=110, time=96),
    Message('note_on', channel=2, note=47, velocity=110, time=12),
    Message('note_off', channel=2, note=47, velocity=110, time=1),
    Message('note_on', channel=2, note=46, velocity=110, time=11),
    Message('note_off', channel=2, note=46, velocity=110, time=1),
    Message('note_on', channel=2, note=45, velocity=110, time=11),
    Message('note_off', channel=2, note=45, velocity=110, time=1),
    Message('note_on', channel=2, note=44, velocity=110, time=11),
    Message('note_off', channel=2, note=44, velocity=110, time=1),
    Message('note_on', channel=2, note=43, velocity=110, time=11),
    Message('note_off', channel=2, note=43, velocity=110, time=1),
    Message('note_on', channel=2, note=42, velocity=110, time=11),
    Message('note_off', channel=2, note=42, velocity=110, time=1),
    Message('note_on', channel=2, note=41, velocity=110, time=11),
    Message('note_off', channel=2, note=41, velocity=110, time=1),
    Message('note_on', channel=2, note=40, velocity=120, time=11),
    Message('note_off', channel=2, note=40, velocity=120, time=192),
    Message('note_on', channel=2, note=55, velocity=110, time=0),
    Message('note_on', channel=2, note=48, velocity=110, time=0),
    Message('note_off', channel=2, note=55, velocity=110, time=288),
    Message('note_off', channel=2, note=48, velocity=110, time=0),
    Message('note_on', channel=2, note=54, velocity=110, time=0),
    Message('note_off', channel=2, note=54, velocity=110, time=192),
    Message('note_on', channel=2, note=40, velocity=110, time=0),
    Message('note_off', channel=2, note=40, velocity=110, time=96),
    Message('note_on', channel=2, note=57, velocity=120, time=0),
    Message('note_on', channel=2, note=50, velocity=120, time=0),
    Message('note_off', channel=2, note=57, velocity=120, time=288),
    Message('note_off', channel=2, note=50, velocity=120, time=0),
    Message('note_on', channel=2, note=55, velocity=110, time=0),
    Message('note_off', channel=2, note=55, velocity=110, time=96),
    Message('note_on', channel=2, note=54, velocity=110, time=0),
    Message('note_off', channel=2, note=54, velocity=110, time=96),
    Message('note_on', channel=2, note=50, velocity=110, time=0),
    Message('note_off', channel=2, note=50, velocity=110, time=96),
    Message('note_on', channel=2, note=47, velocity=110, time=0),
    Message('note_off', channel=2, note=47, velocity=110, time=192),
    Message('note_on', channel=2, note=40, velocity=120, time=0),
    Message('note_off', channel=2, note=40, velocity=120, time=192),
    Message('note_on', channel=2, note=59, velocity=110, time=0),
    Message('note_on', channel=2, note=50, velocity=110, time=0),
    Message('note_off', channel=2, note=59, velocity=110, time=288),
    Message('note_off', channel=2, note=50, velocity=110, time=0),
    Message('note_on', channel=2, note=58, velocity=110, time=0),
    Message('note_on', channel=2, note=49, velocity=110, time=0),
    Message('note_off', channel=2, note=58, velocity=110, time=192),
    Message('note_off', channel=2, note=49, velocity=110, time=0),
    Message('note_on', channel=2, note=40, velocity=110, time=0),
    Message('note_off', channel=2, note=40, velocity=110, time=96),
    Message('note_on', channel=2, note=57, velocity=110, time=0),
    Message('note_on', channel=2, note=52, velocity=110, time=0),
    Message('note_off', channel=2, note=57, velocity=110, time=288),
    Message('note_off', channel=2, note=52, velocity=110, time=0),
    Message('note_on', channel=2, note=56, velocity=110, time=0),
    Message('note_off', channel=2, note=56, velocity=110, time=192),
    Message('note_on', channel=2, note=52, velocity=110, time=0),
    Message('note_off', channel=2, note=52, velocity=110, time=96),
    Message('note_on', channel=2, note=47, velocity=110, time=0),
    Message('note_off', channel=2, note=47, velocity=110, time=96),
    Message('note_on', channel=2, note=47, velocity=110, time=12),
    Message('note_off', channel=2, note=47, velocity=110, time=1),
    Message('note_on', channel=2, note=46, velocity=110, time=11),
    Message('note_off', channel=2, note=46, velocity=110, time=1),
    Message('note_on', channel=2, note=45, velocity=110, time=11),
    Message('note_off', channel=2, note=45, velocity=110, time=1),
    Message('note_on', channel=2, note=44, velocity=110, time=11),
    Message('note_off', channel=2, note=44, velocity=110, time=1),
    Message('note_on', channel=2, note=43, velocity=110, time=11),
    Message('note_off', channel=2, note=43, velocity=110, time=1),
    Message('note_on', channel=2, note=42, velocity=110, time=11),
    Message('note_off', channel=2, note=42, velocity=110, time=1),
    Message('note_on', channel=2, note=41, velocity=110, time=11),
    Message('note_off', channel=2, note=41, velocity=110, time=1),
    Message('note_on', channel=2, note=40, velocity=120, time=11),
    Message('note_off', channel=2, note=40, velocity=120, time=192),
    Message('note_on', channel=2, note=55, velocity=110, time=0),
    Message('note_on', channel=2, note=48, velocity=110, time=0),
    Message('note_off', channel=2, note=55, velocity=110, time=288),
    Message('note_off', channel=2, note=48, velocity=110, time=0),
    Message('note_on', channel=2, note=54, velocity=110, time=0),
    Message('note_off', channel=2, note=54, velocity=110, time=192),
    Message('note_on', channel=2, note=40, velocity=110, time=0),
    Message('note_off', channel=2, note=40, velocity=110, time=96),
    Message('note_on', channel=2, note=57, velocity=110, time=0),
    Message('note_on', channel=2, note=50, velocity=110, time=0),
    Message('note_off', channel=2, note=57, velocity=110, time=96),
    Message('note_off', channel=2, note=50, velocity=110, time=0),
    Message('note_on', channel=2, note=50, velocity=110, time=0),
    Message('note_on', channel=2, note=57, velocity=110, time=0),
    Message('note_off', channel=2, note=50, velocity=110, time=96),
    Message('note_off', channel=2, note=57, velocity=110, time=0),
    Message('note_on', channel=2, note=50, velocity=110, time=0),
    Message('note_on', channel=2, note=57, velocity=110, time=0),
    Message('note_off', channel=2, note=50, velocity=110, time=96),
    Message('note_off', channel=2, note=57, velocity=110, time=0),
    Message('note_on', channel=2, note=50, velocity=110, time=0),
    Message('note_on', channel=2, note=57, velocity=110, time=0),
    Message('note_off', channel=2, note=50, velocity=110, time=96),
    Message('note_off', channel=2, note=57, velocity=110, time=0),
    Message('note_on', channel=2, note=57, velocity=120, time=0),
    Message('note_on', channel=2, note=50, velocity=120, time=0),
    Message('note_off', channel=2, note=57, velocity=120, time=288),
    Message('note_off', channel=2, note=50, velocity=120, time=0),
    Message('note_on', channel=2, note=57, velocity=110, time=0),
    Message('note_off', channel=2, note=57, velocity=110, time=1),
    Message('note_on', channel=2, note=50, velocity=110, time=11),
    Message('note_on', channel=2, note=56, velocity=110, time=0),
    Message('note_off', channel=2, note=50, velocity=110, time=1),
    Message('note_off', channel=2, note=56, velocity=110, time=0),
    Message('note_on', channel=2, note=49, velocity=110, time=11),
    Message('note_on', channel=2, note=55, velocity=110, time=0),
    Message('note_off', channel=2, note=49, velocity=110, time=1),
    Message('note_off', channel=2, note=55, velocity=110, time=0),
    Message('note_on', channel=2, note=48, velocity=110, time=11),
    Message('note_on', channel=2, note=54, velocity=110, time=0),
    Message('note_off', channel=2, note=48, velocity=110, time=1),
    Message('note_off', channel=2, note=54, velocity=110, time=0),
    Message('note_on', channel=2, note=47, velocity=110, time=11),
    Message('note_on', channel=2, note=53, velocity=110, time=0),
    Message('note_off', channel=2, note=47, velocity=110, time=1),
    Message('note_off', channel=2, note=53, velocity=110, time=0),
    Message('note_on', channel=2, note=46, velocity=110, time=11),
    Message('note_on', channel=2, note=52, velocity=110, time=0),
    Message('note_off', channel=2, note=46, velocity=110, time=1),
    Message('note_off', channel=2, note=52, velocity=110, time=0),
    Message('note_on', channel=2, note=45, velocity=110, time=11),
    Message('note_on', channel=2, note=51, velocity=110, time=0),
    Message('note_off', channel=2, note=45, velocity=110, time=1),
    Message('note_off', channel=2, note=51, velocity=110, time=0),
    Message('note_on', channel=2, note=44, velocity=110, time=11),
    Message('note_on', channel=2, note=50, velocity=110, time=0),
    Message('note_off', channel=2, note=44, velocity=110, time=1),
    Message('note_off', channel=2, note=50, velocity=110, time=0),
    Message('note_on', channel=2, note=40, velocity=120, time=11),
    Message('note_off', channel=2, note=40, velocity=120, time=192),
    Message('note_on', channel=2, note=59, velocity=110, time=0),
    Message('note_off', channel=2, note=59, velocity=110, time=96),
    Message('note_on', channel=2, note=57, velocity=110, time=0),
    Message('note_off', channel=2, note=57, velocity=110, time=96),
    Message('note_on', channel=2, note=52, velocity=110, time=0),
    Message('note_off', channel=2, note=52, velocity=110, time=96),
    Message('note_on', channel=2, note=58, velocity=110, time=0),
    Message('note_off', channel=2, note=58, velocity=110, time=96),
    Message('note_on', channel=2, note=57, velocity=110, time=0),
    Message('note_off', channel=2, note=57, velocity=110, time=96),
    Message('note_on', channel=2, note=52, velocity=110, time=0),
    Message('note_off', channel=2, note=52, velocity=110, time=96),
    Message('note_on', channel=2, note=57, velocity=110, time=0),
    Message('note_off', channel=2, note=57, velocity=110, time=96),
    Message('note_on', channel=2, note=50, velocity=110, time=0),
    Message('note_off', channel=2, note=50, velocity=110, time=96),
    Message('note_on', channel=2, note=52, velocity=110, time=0),
    Message('note_off', channel=2, note=52, velocity=110, time=96),
    Message('note_on', channel=2, note=56, velocity=110, time=0),
    Message('note_off', channel=2, note=56, velocity=110, time=192),
    Message('note_on', channel=2, note=52, velocity=110, time=0),
    Message('note_off', channel=2, note=52, velocity=110, time=96),
    Message('note_on', channel=2, note=47, velocity=110, time=0),
    Message('note_off', channel=2, note=47, velocity=110, time=96),
    Message('note_on', channel=2, note=47, velocity=110, time=0),
    Message('note_off', channel=2, note=47, velocity=110, time=1),
    Message('note_on', channel=2, note=46, velocity=110, time=11),
    Message('note_off', channel=2, note=46, velocity=110, time=1),
    Message('note_on', channel=2, note=45, velocity=110, time=11),
    Message('note_off', channel=2, note=45, velocity=110, time=1),
    Message('note_on', channel=2, note=44, velocity=110, time=11),
    Message('note_off', channel=2, note=44, velocity=110, time=1),
    Message('note_on', channel=2, note=43, velocity=110, time=11),
    Message('note_off', channel=2, note=43, velocity=110, time=1),
    Message('note_on', channel=2, note=42, velocity=110, time=11),
    Message('note_off', channel=2, note=42, velocity=110, time=1),
    Message('note_on', channel=2, note=41, velocity=110, time=11),
    Message('note_off', channel=2, note=41, velocity=110, time=1),
    Message('note_on', channel=2, note=40, velocity=110, time=11),
    Message('note_off', channel=2, note=40, velocity=110, time=1),
    Message('note_on', channel=2, note=40, velocity=110, time=11),
    Message('note_off', channel=2, note=40, velocity=110, time=192),
    Message('note_on', channel=2, note=55, velocity=110, time=0),
    Message('note_on', channel=2, note=48, velocity=110, time=0),
    Message('note_off', channel=2, note=55, velocity=110, time=288),
    Message('note_off', channel=2, note=48, velocity=110, time=0),
    Message('note_on', channel=2, note=54, velocity=110, time=0),
    Message('note_off', channel=2, note=54, velocity=110, time=192),
    Message('note_on', channel=2, note=40, velocity=110, time=0),
    Message('note_off', channel=2, note=40, velocity=110, time=96),
    Message('note_on', channel=2, note=57, velocity=110, time=0),
    Message('note_on', channel=2, note=50, velocity=110, time=0),
    Message('note_off', channel=2, note=57, velocity=110, time=288),
    Message('note_off', channel=2, note=50, velocity=110, time=0),
    Message('note_on', channel=2, note=55, velocity=110, time=0),
    Message('note_off', channel=2, note=55, velocity=110, time=96),
    Message('note_on', channel=2, note=54, velocity=110, time=0),
    Message('note_off', channel=2, note=54, velocity=110, time=96),
    Message('note_on', channel=2, note=50, velocity=110, time=0),
    Message('note_off', channel=2, note=50, velocity=110, time=96),
    Message('note_on', channel=2, note=47, velocity=110, time=0),
    Message('note_off', channel=2, note=47, velocity=110, time=192),
    Message('note_on', channel=2, note=40, velocity=120, time=0),
    Message('note_off', channel=2, note=40, velocity=120, time=192),
    Message('note_on', channel=2, note=59, velocity=110, time=0),
    Message('note_on', channel=2, note=52, velocity=110, time=0),
    Message('note_off', channel=2, note=59, velocity=110, time=288),
    Message('note_off', channel=2, note=52, velocity=110, time=0),
    Message('note_on', channel=2, note=51, velocity=110, time=0),
    Message('note_on', channel=2, note=58, velocity=110, time=0),
    Message('note_off', channel=2, note=51, velocity=110, time=192),
    Message('note_off', channel=2, note=58, velocity=110, time=0),
    Message('note_on', channel=2, note=40, velocity=110, time=0),
    Message('note_off', channel=2, note=40, velocity=110, time=96),
    Message('note_on', channel=2, note=57, velocity=110, time=0),
    Message('note_off', channel=2, note=57, velocity=110, time=96),
    Message('note_on', channel=2, note=50, velocity=110, time=0),
    Message('note_off', channel=2, note=50, velocity=110, time=96),
    Message('note_on', channel=2, note=52, velocity=110, time=0),
    Message('note_off', channel=2, note=52, velocity=110, time=96),
    Message('note_on', channel=2, note=56, velocity=110, time=0),
    Message('note_off', channel=2, note=56, velocity=110, time=192),
    Message('note_on', channel=2, note=52, velocity=110, time=0),
    Message('note_off', channel=2, note=52, velocity=110, time=96),
    Message('note_on', channel=2, note=47, velocity=110, time=0),
    Message('note_off', channel=2, note=47, velocity=110, time=96),
    Message('note_on', channel=2, note=47, velocity=110, time=0),
    Message('note_off', channel=2, note=47, velocity=110, time=1),
    Message('note_on', channel=2, note=46, velocity=110, time=11),
    Message('note_off', channel=2, note=46, velocity=110, time=1),
    Message('note_on', channel=2, note=45, velocity=110, time=11),
    Message('note_off', channel=2, note=45, velocity=110, time=1),
    Message('note_on', channel=2, note=44, velocity=110, time=11),
    Message('note_off', channel=2, note=44, velocity=110, time=1),
    Message('note_on', channel=2, note=43, velocity=110, time=11),
    Message('note_off', channel=2, note=43, velocity=110, time=1),
    Message('note_on', channel=2, note=42, velocity=110, time=11),
    Message('note_off', channel=2, note=42, velocity=110, time=1),
    Message('note_on', channel=2, note=41, velocity=110, time=11),
    Message('note_off', channel=2, note=41, velocity=110, time=1),
    Message('note_on', channel=2, note=40, velocity=110, time=11),
    Message('note_off', channel=2, note=40, velocity=110, time=1),
    Message('note_on', channel=2, note=40, velocity=110, time=11),
    Message('note_off', channel=2, note=40, velocity=110, time=192),
    Message('note_on', channel=2, note=55, velocity=110, time=0),
    Message('note_on', channel=2, note=48, velocity=110, time=0),
    Message('note_off', channel=2, note=55, velocity=110, time=288),
    Message('note_off', channel=2, note=48, velocity=110, time=0),
    Message('note_on', channel=2, note=54, velocity=110, time=0),
    Message('note_off', channel=2, note=54, velocity=110, time=192),
    Message('note_on', channel=2, note=40, velocity=110, time=0),
    Message('note_off', channel=2, note=40, velocity=110, time=96),
    Message('note_on', channel=2, note=57, velocity=110, time=0),
    Message('note_on', channel=2, note=50, velocity=110, time=0),
    Message('note_off', channel=2, note=57, velocity=110, time=288),
    Message('note_off', channel=2, note=50, velocity=110, time=0),
    Message('note_on', channel=2, note=55, velocity=110, time=0),
    Message('note_off', channel=2, note=55, velocity=110, time=96),
    Message('note_on', channel=2, note=54, velocity=110, time=0),
    Message('note_off', channel=2, note=54, velocity=110, time=96),
    Message('note_on', channel=2, note=50, velocity=110, time=0),
    Message('note_off', channel=2, note=50, velocity=110, time=96),
    Message('note_on', channel=2, note=47, velocity=110, time=0),
    Message('note_off', channel=2, note=47, velocity=110, time=192),
    Message('note_on', channel=2, note=40, velocity=110, time=0),
    Message('note_off', channel=2, note=40, velocity=110, time=192),
    Message('note_on', channel=2, note=55, velocity=110, time=0),
    Message('note_on', channel=2, note=48, velocity=110, time=0),
    Message('note_off', channel=2, note=55, velocity=110, time=288),
    Message('note_off', channel=2, note=48, velocity=110, time=0),
    Message('note_on', channel=2, note=54, velocity=110, time=0),
    Message('note_off', channel=2, note=54, velocity=110, time=192),
    Message('note_on', channel=2, note=40, velocity=110, time=0),
    Message('note_off', channel=2, note=40, velocity=110, time=96),
    Message('note_on', channel=2, note=57, velocity=110, time=0),
    Message('note_on', channel=2, note=50, velocity=110, time=0),
    Message('note_off', channel=2, note=57, velocity=110, time=96),
    Message('note_off', channel=2, note=50, velocity=110, time=0),
    Message('note_on', channel=2, note=50, velocity=110, time=0),
    Message('note_on', channel=2, note=57, velocity=110, time=0),
    Message('note_off', channel=2, note=50, velocity=110, time=96),
    Message('note_off', channel=2, note=57, velocity=110, time=0),
    Message('note_on', channel=2, note=50, velocity=110, time=0),
    Message('note_on', channel=2, note=57, velocity=110, time=0),
    Message('note_off', channel=2, note=50, velocity=110, time=96),
    Message('note_off', channel=2, note=57, velocity=110, time=0),
    Message('note_on', channel=2, note=50, velocity=110, time=0),
    Message('note_on', channel=2, note=57, velocity=110, time=0),
    Message('note_off', channel=2, note=50, velocity=110, time=96),
    Message('note_off', channel=2, note=57, velocity=110, time=0),
    Message('note_on', channel=2, note=57, velocity=120, time=0),
    Message('note_on', channel=2, note=50, velocity=120, time=0),
    Message('note_off', channel=2, note=57, velocity=120, time=288),
    Message('note_off', channel=2, note=50, velocity=120, time=0),
    Message('note_on', channel=2, note=57, velocity=110, time=0),
    Message('note_off', channel=2, note=57, velocity=110, time=1),
    Message('note_on', channel=2, note=50, velocity=110, time=11),
    Message('note_on', channel=2, note=56, velocity=110, time=0),
    Message('note_off', channel=2, note=50, velocity=110, time=1),
    Message('note_off', channel=2, note=56, velocity=110, time=0),
    Message('note_on', channel=2, note=49, velocity=110, time=11),
    Message('note_on', channel=2, note=55, velocity=110, time=0),
    Message('note_off', channel=2, note=49, velocity=110, time=1),
    Message('note_off', channel=2, note=55, velocity=110, time=0),
    Message('note_on', channel=2, note=48, velocity=110, time=11),
    Message('note_on', channel=2, note=54, velocity=110, time=0),
    Message('note_off', channel=2, note=48, velocity=110, time=1),
    Message('note_off', channel=2, note=54, velocity=110, time=0),
    Message('note_on', channel=2, note=47, velocity=110, time=11),
    Message('note_on', channel=2, note=53, velocity=110, time=0),
    Message('note_off', channel=2, note=47, velocity=110, time=1),
    Message('note_off', channel=2, note=53, velocity=110, time=0),
    Message('note_on', channel=2, note=46, velocity=110, time=11),
    Message('note_on', channel=2, note=52, velocity=110, time=0),
    Message('note_off', channel=2, note=46, velocity=110, time=1),
    Message('note_off', channel=2, note=52, velocity=110, time=0),
    Message('note_on', channel=2, note=45, velocity=110, time=11),
    Message('note_on', channel=2, note=51, velocity=110, time=0),
    Message('note_off', channel=2, note=45, velocity=110, time=1),
    Message('note_off', channel=2, note=51, velocity=110, time=0),
    Message('note_on', channel=2, note=44, velocity=110, time=11),
    Message('note_on', channel=2, note=50, velocity=110, time=0),
    Message('note_off', channel=2, note=44, velocity=110, time=1),
    Message('note_off', channel=2, note=50, velocity=110, time=0),
    Message('note_on', channel=2, note=48, velocity=110, time=11),
    Message('note_on', channel=2, note=41, velocity=110, time=0),
    Message('note_off', channel=2, note=48, velocity=110, time=96),
    Message('note_off', channel=2, note=41, velocity=110, time=0),
    Message('note_on', channel=2, note=40, velocity=110, time=0),
    Message('note_on', channel=2, note=47, velocity=110, time=0),
    Message('note_off', channel=2, note=40, velocity=110, time=96),
    Message('note_off', channel=2, note=47, velocity=110, time=0),
    Message('note_on', channel=2, note=47, velocity=110, time=96),
    Message('note_on', channel=2, note=40, velocity=110, time=0),
    Message('note_off', channel=2, note=47, velocity=110, time=96),
    Message('note_off', channel=2, note=40, velocity=110, time=0),
    MetaMessage('end_of_track', time=500)]),
  MidiTrack([
    MetaMessage('track_name', name='David Ellefson      : Channel 4', time=0),
    MetaMessage('device_name', name='None', time=0),
    Message('program_change', channel=4, program=34, time=0),
    Message('control_change', channel=4, control=7, value=120, time=0),
    Message('control_change', channel=4, control=10, value=64, time=0),
    Message('note_on', channel=4, note=29, velocity=100, time=480),
    Message('note_off', channel=4, note=29, velocity=100, time=96),
    Message('note_on', channel=4, note=31, velocity=100, time=0),
    Message('note_off', channel=4, note=31, velocity=100, time=96),
    Message('note_on', channel=4, note=29, velocity=100, time=0),
    Message('note_off', channel=4, note=29, velocity=100, time=96),
    Message('note_on', channel=4, note=29, velocity=100, time=0),
    Message('note_off', channel=4, note=29, velocity=100, time=96),
    Message('note_on', channel=4, note=28, velocity=100, time=0),
    Message('note_off', channel=4, note=28, velocity=100, time=96),
    Message('note_on', channel=4, note=28, velocity=100, time=0),
    Message('note_off', channel=4, note=28, velocity=100, time=96),
    Message('note_on', channel=4, note=28, velocity=100, time=0),
    Message('note_off', channel=4, note=28, velocity=100, time=96),
    Message('note_on', channel=4, note=28, velocity=100, time=0),
    Message('note_off', channel=4, note=28, velocity=100, time=96),
    Message('note_on', channel=4, note=28, velocity=100, time=0),
    Message('note_off', channel=4, note=28, velocity=100, time=96),
    Message('note_on', channel=4, note=28, velocity=100, time=0),
    Message('note_off', channel=4, note=28, velocity=100, time=96),
    Message('note_on', channel=4, note=28, velocity=100, time=0),
    Message('note_off', channel=4, note=28, velocity=100, time=96),
    Message('note_on', channel=4, note=29, velocity=100, time=0),
    Message('note_off', channel=4, note=29, velocity=100, time=96),
    Message('note_on', channel=4, note=28, velocity=100, time=0),
    Message('note_off', channel=4, note=28, velocity=100, time=96),
    Message('note_on', channel=4, note=28, velocity=100, time=0),
    Message('note_off', channel=4, note=28, velocity=100, time=96),
    Message('note_on', channel=4, note=28, velocity=100, time=0),
    Message('note_off', channel=4, note=28, velocity=100, time=96),
    Message('note_on', channel=4, note=28, velocity=100, time=0),
    Message('note_off', channel=4, note=28, velocity=100, time=96),
    Message('note_on', channel=4, note=29, velocity=100, time=0),
    Message('note_off', channel=4, note=29, velocity=100, time=96),
    Message('note_on', channel=4, note=31, velocity=100, time=0),
    Message('note_off', channel=4, note=31, velocity=100, time=96),
    Message('note_on', channel=4, note=29, velocity=100, time=0),
    Message('note_off', channel=4, note=29, velocity=100, time=96),
    Message('note_on', channel=4, note=29, velocity=100, time=0),
    Message('note_off', channel=4, note=29, velocity=100, time=96),
    Message('note_on', channel=4, note=28, velocity=100, time=0),
    Message('note_off', channel=4, note=28, velocity=100, time=96),
    Message('note_on', channel=4, note=28, velocity=100, time=0),
    Message('note_off', channel=4, note=28, velocity=100, time=96),
    Message('note_on', channel=4, note=28, velocity=100, time=0),
    Message('note_off', channel=4, note=28, velocity=100, time=96),
    Message('note_on', channel=4, note=28, velocity=100, time=0),
    Message('note_off', channel=4, note=28, velocity=100, time=96),
    Message('note_on', channel=4, note=28, velocity=100, time=0),
    Message('note_off', channel=4, note=28, velocity=100, time=96),
    Message('note_on', channel=4, note=28, velocity=100, time=0),
    Message('note_off', channel=4, note=28, velocity=100, time=96),
    Message('note_on', channel=4, note=28, velocity=100, time=0),
    Message('note_off', channel=4, note=28, velocity=100, time=96),
    Message('note_on', channel=4, note=28, velocity=100, time=0),
    Message('note_off', channel=4, note=28, velocity=100, time=96),
    Message('note_on', channel=4, note=28, velocity=100, time=0),
    Message('note_off', channel=4, note=28, velocity=100, time=96),
    Message('note_on', channel=4, note=28, velocity=100, time=0),
    Message('note_off', channel=4, note=28, velocity=100, time=96),
    Message('note_on', channel=4, note=28, velocity=100, time=0),
    Message('note_off', channel=4, note=28, velocity=100, time=96),
    Message('note_on', channel=4, note=28, velocity=100, time=0),
    Message('note_off', channel=4, note=28, velocity=100, time=96),
    Message('note_on', channel=4, note=28, velocity=100, time=0),
    Message('note_off', channel=4, note=28, velocity=100, time=96),
    Message('note_on', channel=4, note=28, velocity=100, time=0),
    Message('note_off', channel=4, note=28, velocity=100, time=96),
    Message('note_on', channel=4, note=28, velocity=100, time=0),
    Message('note_off', channel=4, note=28, velocity=100, time=96),
    Message('note_on', channel=4, note=29, velocity=100, time=0),
    Message('note_off', channel=4, note=29, velocity=100, time=96),
    Message('note_on', channel=4, note=28, velocity=100, time=0),
    Message('note_off', channel=4, note=28, velocity=100, time=96),
    Message('note_on', channel=4, note=28, velocity=100, time=0),
    Message('note_off', channel=4, note=28, velocity=100, time=96),
    Message('note_on', channel=4, note=28, velocity=100, time=0),
    Message('note_off', channel=4, note=28, velocity=100, time=96),
    Message('note_on', channel=4, note=28, velocity=100, time=0),
    Message('note_off', channel=4, note=28, velocity=100, time=96),
    Message('note_on', channel=4, note=28, velocity=100, time=0),
    Message('note_off', channel=4, note=28, velocity=100, time=96),
    Message('note_on', channel=4, note=28, velocity=100, time=0),
    Message('note_off', channel=4, note=28, velocity=100, time=96),
    Message('note_on', channel=4, note=28, velocity=100, time=0),
    Message('note_off', channel=4, note=28, velocity=100, time=96),
    Message('note_on', channel=4, note=29, velocity=100, time=0),
    Message('note_off', channel=4, note=29, velocity=100, time=96),
    Message('note_on', channel=4, note=28, velocity=100, time=0),
    Message('note_off', channel=4, note=28, velocity=100, time=96),
    Message('note_on', channel=4, note=28, velocity=100, time=0),
    Message('note_off', channel=4, note=28, velocity=100, time=96),
    Message('note_on', channel=4, note=28, velocity=100, time=0),
    Message('note_off', channel=4, note=28, velocity=100, time=96),
    Message('note_on', channel=4, note=28, velocity=100, time=0),
    Message('note_off', channel=4, note=28, velocity=100, time=96),
    Message('note_on', channel=4, note=29, velocity=100, time=0),
    Message('note_off', channel=4, note=29, velocity=100, time=96),
    Message('note_on', channel=4, note=31, velocity=100, time=0),
    Message('note_off', channel=4, note=31, velocity=100, time=96),
    Message('note_on', channel=4, note=29, velocity=100, time=0),
    Message('note_off', channel=4, note=29, velocity=100, time=96),
    Message('note_on', channel=4, note=29, velocity=100, time=0),
    Message('note_off', channel=4, note=29, velocity=100, time=96),
    Message('note_on', channel=4, note=28, velocity=100, time=0),
    Message('note_off', channel=4, note=28, velocity=100, time=96),
    Message('note_on', channel=4, note=28, velocity=100, time=0),
    Message('note_off', channel=4, note=28, velocity=100, time=96),
    Message('note_on', channel=4, note=28, velocity=100, time=0),
    Message('note_off', channel=4, note=28, velocity=100, time=96),
    Message('note_on', channel=4, note=28, velocity=100, time=0),
    Message('note_off', channel=4, note=28, velocity=100, time=96),
    Message('note_on', channel=4, note=28, velocity=100, time=0),
    Message('note_off', channel=4, note=28, velocity=100, time=96),
    Message('note_on', channel=4, note=28, velocity=100, time=0),
    Message('note_off', channel=4, note=28, velocity=100, time=96),
    Message('note_on', channel=4, note=28, velocity=100, time=0),
    Message('note_off', channel=4, note=28, velocity=100, time=96),
    Message('note_on', channel=4, note=28, velocity=100, time=0),
    Message('note_off', channel=4, note=28, velocity=100, time=96),
    Message('note_on', channel=4, note=28, velocity=100, time=0),
    Message('note_off', channel=4, note=28, velocity=100, time=96),
    Message('note_on', channel=4, note=28, velocity=100, time=0),
    Message('note_off', channel=4, note=28, velocity=100, time=96),
    Message('note_on', channel=4, note=28, velocity=100, time=0),
    Message('note_off', channel=4, note=28, velocity=100, time=96),
    Message('note_on', channel=4, note=28, velocity=100, time=0),
    Message('note_off', channel=4, note=28, velocity=100, time=96),
    Message('note_on', channel=4, note=28, velocity=100, time=0),
    Message('note_off', channel=4, note=28, velocity=100, time=96),
    Message('note_on', channel=4, note=28, velocity=100, time=0),
    Message('note_off', channel=4, note=28, velocity=100, time=96),
    Message('note_on', channel=4, note=28, velocity=100, time=0),
    Message('note_off', channel=4, note=28, velocity=100, time=96),
    Message('note_on', channel=4, note=29, velocity=100, time=0),
    Message('note_off', channel=4, note=29, velocity=100, time=96),
    Message('note_on', channel=4, note=28, velocity=100, time=0),
    Message('note_off', channel=4, note=28, velocity=100, time=96),
    Message('note_on', channel=4, note=28, velocity=100, time=0),
    Message('note_off', channel=4, note=28, velocity=100, time=96),
    Message('note_on', channel=4, note=28, velocity=100, time=0),
    Message('note_off', channel=4, note=28, velocity=100, time=96),
    Message('note_on', channel=4, note=28, velocity=100, time=0),
    Message('note_off', channel=4, note=28, velocity=100, time=96),
    Message('note_on', channel=4, note=28, velocity=100, time=0),
    Message('note_off', channel=4, note=28, velocity=100, time=96),
    Message('note_on', channel=4, note=28, velocity=100, time=0),
    Message('note_off', channel=4, note=28, velocity=100, time=96),
    Message('note_on', channel=4, note=28, velocity=100, time=0),
    Message('note_off', channel=4, note=28, velocity=100, time=96),
    Message('note_on', channel=4, note=29, velocity=100, time=0),
    Message('note_off', channel=4, note=29, velocity=100, time=96),
    Message('note_on', channel=4, note=28, velocity=100, time=0),
    Message('note_off', channel=4, note=28, velocity=100, time=96),
    Message('note_on', channel=4, note=28, velocity=100, time=0),
    Message('note_off', channel=4, note=28, velocity=100, time=96),
    Message('note_on', channel=4, note=28, velocity=100, time=0),
    Message('note_off', channel=4, note=28, velocity=100, time=96),
    Message('note_on', channel=4, note=28, velocity=100, time=0),
    Message('note_off', channel=4, note=28, velocity=100, time=96),
    Message('note_on', channel=4, note=29, velocity=100, time=0),
    Message('note_off', channel=4, note=29, velocity=100, time=96),
    Message('note_on', channel=4, note=31, velocity=100, time=0),
    Message('note_off', channel=4, note=31, velocity=100, time=96),
    Message('note_on', channel=4, note=29, velocity=100, time=0),
    Message('note_off', channel=4, note=29, velocity=100, time=96),
    Message('note_on', channel=4, note=29, velocity=100, time=0),
    Message('note_off', channel=4, note=29, velocity=100, time=96),
    Message('note_on', channel=4, note=28, velocity=100, time=0),
    Message('note_off', channel=4, note=28, velocity=100, time=96),
    Message('note_on', channel=4, note=28, velocity=100, time=0),
    Message('note_off', channel=4, note=28, velocity=100, time=96),
    Message('note_on', channel=4, note=28, velocity=100, time=0),
    Message('note_off', channel=4, note=28, velocity=100, time=96),
    Message('note_on', channel=4, note=28, velocity=100, time=0),
    Message('note_off', channel=4, note=28, velocity=100, time=96),
    Message('note_on', channel=4, note=28, velocity=100, time=0),
    Message('note_off', channel=4, note=28, velocity=100, time=96),
    Message('note_on', channel=4, note=28, velocity=100, time=0),
    Message('note_off', channel=4, note=28, velocity=100, time=96),
    Message('note_on', channel=4, note=28, velocity=100, time=0),
    Message('note_off', channel=4, note=28, velocity=100, time=96),
    Message('note_on', channel=4, note=28, velocity=100, time=0),
    Message('note_off', channel=4, note=28, velocity=100, time=96),
    Message('note_on', channel=4, note=28, velocity=100, time=0),
    Message('note_off', channel=4, note=28, velocity=100, time=96),
    Message('note_on', channel=4, note=28, velocity=100, time=0),
    Message('note_off', channel=4, note=28, velocity=100, time=96),
    Message('note_on', channel=4, note=28, velocity=100, time=0),
    Message('note_off', channel=4, note=28, velocity=100, time=96),
    Message('note_on', channel=4, note=28, velocity=100, time=0),
    Message('note_off', channel=4, note=28, velocity=100, time=96),
    Message('note_on', channel=4, note=28, velocity=100, time=0),
    Message('note_off', channel=4, note=28, velocity=100, time=96),
    Message('note_on', channel=4, note=28, velocity=100, time=0),
    Message('note_off', channel=4, note=28, velocity=100, time=96),
    Message('note_on', channel=4, note=28, velocity=100, time=0),
    Message('note_off', channel=4, note=28, velocity=100, time=96),
    Message('note_on', channel=4, note=29, velocity=100, time=0),
    Message('note_off', channel=4, note=29, velocity=100, time=96),
    Message('note_on', channel=4, note=28, velocity=100, time=0),
    Message('note_off', channel=4, note=28, velocity=100, time=96),
    Message('note_on', channel=4, note=28, velocity=100, time=0),
    Message('note_off', channel=4, note=28, velocity=100, time=96),
    Message('note_on', channel=4, note=28, velocity=100, time=0),
    Message('note_off', channel=4, note=28, velocity=100, time=96),
    Message('note_on', channel=4, note=28, velocity=100, time=0),
    Message('note_off', channel=4, note=28, velocity=100, time=96),
    Message('note_on', channel=4, note=28, velocity=100, time=0),
    Message('note_off', channel=4, note=28, velocity=100, time=96),
    Message('note_on', channel=4, note=28, velocity=100, time=0),
    Message('note_off', channel=4, note=28, velocity=100, time=96),
    Message('note_on', channel=4, note=28, velocity=100, time=0),
    Message('note_off', channel=4, note=28, velocity=100, time=96),
    Message('note_on', channel=4, note=29, velocity=100, time=0),
    Message('note_off', channel=4, note=29, velocity=100, time=96),
    Message('note_on', channel=4, note=28, velocity=100, time=0),
    Message('note_off', channel=4, note=28, velocity=100, time=96),
    Message('note_on', channel=4, note=28, velocity=100, time=0),
    Message('note_off', channel=4, note=28, velocity=100, time=96),
    Message('note_on', channel=4, note=28, velocity=100, time=0),
    Message('note_off', channel=4, note=28, velocity=100, time=96),
    Message('note_on', channel=4, note=28, velocity=100, time=0),
    Message('note_off', channel=4, note=28, velocity=100, time=96),
    Message('note_on', channel=4, note=29, velocity=100, time=0),
    Message('note_off', channel=4, note=29, velocity=100, time=96),
    Message('note_on', channel=4, note=31, velocity=100, time=0),
    Message('note_off', channel=4, note=31, velocity=100, time=96),
    Message('note_on', channel=4, note=29, velocity=100, time=0),
    Message('note_off', channel=4, note=29, velocity=100, time=96),
    Message('note_on', channel=4, note=29, velocity=100, time=0),
    Message('note_off', channel=4, note=29, velocity=100, time=96),
    Message('note_on', channel=4, note=28, velocity=100, time=0),
    Message('note_off', channel=4, note=28, velocity=100, time=96),
    Message('note_on', channel=4, note=28, velocity=100, time=0),
    Message('note_off', channel=4, note=28, velocity=100, time=96),
    Message('note_on', channel=4, note=28, velocity=100, time=0),
    Message('note_off', channel=4, note=28, velocity=100, time=96),
    Message('note_on', channel=4, note=28, velocity=100, time=0),
    Message('note_off', channel=4, note=28, velocity=100, time=96),
    Message('note_on', channel=4, note=28, velocity=100, time=0),
    Message('note_off', channel=4, note=28, velocity=100, time=96),
    Message('note_on', channel=4, note=28, velocity=100, time=0),
    Message('note_off', channel=4, note=28, velocity=100, time=96),
    Message('note_on', channel=4, note=28, velocity=100, time=0),
    Message('note_off', channel=4, note=28, velocity=100, time=96),
    Message('note_on', channel=4, note=28, velocity=100, time=0),
    Message('note_off', channel=4, note=28, velocity=100, time=96),
    Message('note_on', channel=4, note=28, velocity=100, time=0),
    Message('note_off', channel=4, note=28, velocity=100, time=96),
    Message('note_on', channel=4, note=28, velocity=100, time=0),
    Message('note_off', channel=4, note=28, velocity=100, time=96),
    Message('note_on', channel=4, note=28, velocity=100, time=0),
    Message('note_off', channel=4, note=28, velocity=100, time=96),
    Message('note_on', channel=4, note=28, velocity=100, time=0),
    Message('note_off', channel=4, note=28, velocity=100, time=96),
    Message('note_on', channel=4, note=28, velocity=100, time=0),
    Message('note_off', channel=4, note=28, velocity=100, time=96),
    Message('note_on', channel=4, note=28, velocity=100, time=0),
    Message('note_off', channel=4, note=28, velocity=100, time=96),
    Message('note_on', channel=4, note=28, velocity=100, time=0),
    Message('note_off', channel=4, note=28, velocity=100, time=96),
    Message('note_on', channel=4, note=28, velocity=100, time=0),
    Message('note_off', channel=4, note=28, velocity=100, time=96),
    Message('note_on', channel=4, note=28, velocity=100, time=0),
    Message('note_off', channel=4, note=28, velocity=100, time=96),
    Message('note_on', channel=4, note=28, velocity=100, time=0),
    Message('note_off', channel=4, note=28, velocity=100, time=96),
    Message('note_on', channel=4, note=28, velocity=100, time=0),
    Message('note_off', channel=4, note=28, velocity=100, time=96),
    Message('note_on', channel=4, note=28, velocity=100, time=0),
    Message('note_off', channel=4, note=28, velocity=100, time=96),
    Message('note_on', channel=4, note=28, velocity=100, time=0),
    Message('note_off', channel=4, note=28, velocity=100, time=96),
    Message('note_on', channel=4, note=28, velocity=100, time=0),
    Message('note_off', channel=4, note=28, velocity=100, time=96),
    Message('note_on', channel=4, note=28, velocity=100, time=0),
    Message('note_off', channel=4, note=28, velocity=100, time=96),
    Message('note_on', channel=4, note=28, velocity=100, time=0),
    Message('note_off', channel=4, note=28, velocity=100, time=96),
    Message('note_on', channel=4, note=28, velocity=100, time=0),
    Message('note_off', channel=4, note=28, velocity=100, time=96),
    Message('note_on', channel=4, note=28, velocity=100, time=0),
    Message('note_off', channel=4, note=28, velocity=100, time=96),
    Message('note_on', channel=4, note=28, velocity=100, time=0),
    Message('note_off', channel=4, note=28, velocity=100, time=96),
    Message('note_on', channel=4, note=28, velocity=100, time=0),
    Message('note_off', channel=4, note=28, velocity=100, time=96),
    Message('note_on', channel=4, note=28, velocity=100, time=0),
    Message('note_off', channel=4, note=28, velocity=100, time=96),
    Message('note_on', channel=4, note=28, velocity=100, time=0),
    Message('note_off', channel=4, note=28, velocity=100, time=96),
    Message('note_on', channel=4, note=31, velocity=100, time=0),
    Message('note_off', channel=4, note=31, velocity=100, time=192),
    Message('note_on', channel=4, note=31, velocity=100, time=0),
    Message('note_off', channel=4, note=31, velocity=100, time=96),
    Message('note_on', channel=4, note=31, velocity=100, time=0),
    Message('note_off', channel=4, note=31, velocity=100, time=96),
    Message('note_on', channel=4, note=31, velocity=100, time=0),
    Message('note_off', channel=4, note=31, velocity=100, time=96),
    Message('note_on', channel=4, note=31, velocity=100, time=0),
    Message('note_off', channel=4, note=31, velocity=100, time=96),
    Message('note_on', channel=4, note=31, velocity=100, time=0),
    Message('note_off', channel=4, note=31, velocity=100, time=96),
    Message('note_on', channel=4, note=31, velocity=100, time=0),
    Message('note_off', channel=4, note=31, velocity=100, time=96),
    Message('note_on', channel=4, note=31, velocity=100, time=0),
    Message('note_off', channel=4, note=31, velocity=100, time=96),
    Message('note_on', channel=4, note=31, velocity=100, time=0),
    Message('note_off', channel=4, note=31, velocity=100, time=96),
    Message('note_on', channel=4, note=31, velocity=100, time=0),
    Message('note_off', channel=4, note=31, velocity=100, time=96),
    Message('note_on', channel=4, note=31, velocity=100, time=0),
    Message('note_off', channel=4, note=31, velocity=100, time=96),
    Message('note_on', channel=4, note=31, velocity=100, time=0),
    Message('note_off', channel=4, note=31, velocity=100, time=96),
    Message('note_on', channel=4, note=31, velocity=100, time=0),
    Message('note_off', channel=4, note=31, velocity=100, time=96),
    Message('note_on', channel=4, note=31, velocity=100, time=0),
    Message('note_off', channel=4, note=31, velocity=100, time=96),
    Message('note_on', channel=4, note=31, velocity=100, time=0),
    Message('note_off', channel=4, note=31, velocity=100, time=96),
    Message('note_on', channel=4, note=36, velocity=100, time=0),
    Message('note_off', channel=4, note=36, velocity=100, time=192),
    Message('note_on', channel=4, note=36, velocity=100, time=0),
    Message('note_off', channel=4, note=36, velocity=100, time=96),
    Message('note_on', channel=4, note=36, velocity=100, time=0),
    Message('note_off', channel=4, note=36, velocity=100, time=96),
    Message('note_on', channel=4, note=36, velocity=100, time=0),
    Message('note_off', channel=4, note=36, velocity=100, time=96),
    Message('note_on', channel=4, note=36, velocity=100, time=0),
    Message('note_off', channel=4, note=36, velocity=100, time=96),
    Message('note_on', channel=4, note=36, velocity=100, time=0),
    Message('note_off', channel=4, note=36, velocity=100, time=96),
    Message('note_on', channel=4, note=36, velocity=100, time=0),
    Message('note_off', channel=4, note=36, velocity=100, time=96),
    Message('note_on', channel=4, note=36, velocity=100, time=0),
    Message('note_off', channel=4, note=36, velocity=100, time=96),
    Message('note_on', channel=4, note=36, velocity=100, time=0),
    Message('note_off', channel=4, note=36, velocity=100, time=96),
    Message('note_on', channel=4, note=36, velocity=100, time=0),
    Message('note_off', channel=4, note=36, velocity=100, time=96),
    Message('note_on', channel=4, note=36, velocity=100, time=0),
    Message('note_off', channel=4, note=36, velocity=100, time=96),
    Message('note_on', channel=4, note=36, velocity=100, time=0),
    Message('note_off', channel=4, note=36, velocity=100, time=96),
    Message('note_on', channel=4, note=36, velocity=100, time=0),
    Message('note_off', channel=4, note=36, velocity=100, time=96),
    Message('note_on', channel=4, note=36, velocity=100, time=0),
    Message('note_off', channel=4, note=36, velocity=100, time=96),
    Message('note_on', channel=4, note=36, velocity=100, time=0),
    Message('note_off', channel=4, note=36, velocity=100, time=96),
    Message('note_on', channel=4, note=33, velocity=100, time=0),
    Message('note_off', channel=4, note=33, velocity=100, time=192),
    Message('note_on', channel=4, note=33, velocity=100, time=0),
    Message('note_off', channel=4, note=33, velocity=100, time=96),
    Message('note_on', channel=4, note=33, velocity=100, time=0),
    Message('note_off', channel=4, note=33, velocity=100, time=96),
    Message('note_on', channel=4, note=33, velocity=100, time=0),
    Message('note_off', channel=4, note=33, velocity=100, time=96),
    Message('note_on', channel=4, note=33, velocity=100, time=0),
    Message('note_off', channel=4, note=33, velocity=100, time=96),
    Message('note_on', channel=4, note=33, velocity=100, time=0),
    Message('note_off', channel=4, note=33, velocity=100, time=96),
    Message('note_on', channel=4, note=33, velocity=100, time=0),
    Message('note_off', channel=4, note=33, velocity=100, time=96),
    Message('note_on', channel=4, note=38, velocity=100, time=0),
    Message('note_off', channel=4, note=38, velocity=100, time=192),
    Message('note_on', channel=4, note=35, velocity=100, time=0),
    Message('note_off', channel=4, note=35, velocity=100, time=96),
    Message('note_on', channel=4, note=34, velocity=100, time=0),
    Message('note_off', channel=4, note=34, velocity=100, time=96),
    Message('note_on', channel=4, note=33, velocity=100, time=0),
    Message('note_off', channel=4, note=33, velocity=100, time=96),
    Message('note_on', channel=4, note=31, velocity=100, time=0),
    Message('note_off', channel=4, note=31, velocity=100, time=96),
    Message('note_on', channel=4, note=30, velocity=100, time=0),
    Message('note_off', channel=4, note=30, velocity=100, time=96),
    Message('note_on', channel=4, note=29, velocity=100, time=0),
    Message('note_off', channel=4, note=29, velocity=100, time=96),
    Message('note_on', channel=4, note=28, velocity=100, time=0),
    Message('note_off', channel=4, note=28, velocity=100, time=192),
    Message('note_on', channel=4, note=28, velocity=100, time=0),
    Message('note_off', channel=4, note=28, velocity=100, time=96),
    Message('note_on', channel=4, note=28, velocity=100, time=0),
    Message('note_off', channel=4, note=28, velocity=100, time=96),
    Message('note_on', channel=4, note=28, velocity=100, time=0),
    Message('note_off', channel=4, note=28, velocity=100, time=96),
    Message('note_on', channel=4, note=28, velocity=100, time=0),
    Message('note_off', channel=4, note=28, velocity=100, time=96),
    Message('note_on', channel=4, note=30, velocity=100, time=0),
    Message('note_off', channel=4, note=30, velocity=100, time=96),
    Message('note_on', channel=4, note=28, velocity=100, time=0),
    Message('note_off', channel=4, note=28, velocity=100, time=96),
    Message('note_on', channel=4, note=28, velocity=100, time=0),
    Message('note_off', channel=4, note=28, velocity=100, time=96),
    Message('note_on', channel=4, note=31, velocity=100, time=0),
    Message('note_off', channel=4, note=31, velocity=100, time=96),
    Message('note_on', channel=4, note=31, velocity=100, time=0),
    Message('note_off', channel=4, note=31, velocity=100, time=96),
    Message('note_on', channel=4, note=31, velocity=100, time=0),
    Message('note_off', channel=4, note=31, velocity=100, time=96),
    Message('note_on', channel=4, note=33, velocity=100, time=0),
    Message('note_off', channel=4, note=33, velocity=100, time=96),
    Message('note_on', channel=4, note=33, velocity=100, time=0),
    Message('note_off', channel=4, note=33, velocity=100, time=96),
    Message('note_on', channel=4, note=33, velocity=100, time=0),
    Message('note_off', channel=4, note=33, velocity=100, time=96),
    Message('note_on', channel=4, note=35, velocity=100, time=0),
    Message('note_off', channel=4, note=35, velocity=100, time=96),
    Message('note_on', channel=4, note=35, velocity=100, time=0),
    Message('note_off', channel=4, note=35, velocity=100, time=96),
    Message('note_on', channel=4, note=36, velocity=100, time=0),
    Message('note_off', channel=4, note=36, velocity=100, time=96),
    Message('note_on', channel=4, note=36, velocity=100, time=0),
    Message('note_off', channel=4, note=36, velocity=100, time=96),
    Message('note_on', channel=4, note=36, velocity=100, time=0),
    Message('note_off', channel=4, note=36, velocity=100, time=96),
    Message('note_on', channel=4, note=36, velocity=100, time=0),
    Message('note_off', channel=4, note=36, velocity=100, time=96),
    Message('note_on', channel=4, note=36, velocity=100, time=0),
    Message('note_off', channel=4, note=36, velocity=100, time=96),
    Message('note_on', channel=4, note=36, velocity=100, time=0),
    Message('note_off', channel=4, note=36, velocity=100, time=96),
    Message('note_on', channel=4, note=36, velocity=100, time=0),
    Message('note_off', channel=4, note=36, velocity=100, time=96),
    Message('note_on', channel=4, note=36, velocity=100, time=0),
    Message('note_off', channel=4, note=36, velocity=100, time=96),
    Message('note_on', channel=4, note=38, velocity=100, time=0),
    Message('note_off', channel=4, note=38, velocity=100, time=96),
    Message('note_on', channel=4, note=38, velocity=100, time=0),
    Message('note_off', channel=4, note=38, velocity=100, time=96),
    Message('note_on', channel=4, note=38, velocity=100, time=0),
    Message('note_off', channel=4, note=38, velocity=100, time=96),
    Message('note_on', channel=4, note=43, velocity=100, time=0),
    Message('note_off', channel=4, note=43, velocity=100, time=96),
    Message('note_on', channel=4, note=42, velocity=100, time=0),
    Message('note_off', channel=4, note=42, velocity=100, time=96),
    Message('note_on', channel=4, note=38, velocity=100, time=0),
    Message('note_off', channel=4, note=38, velocity=100, time=96),
    Message('note_on', channel=4, note=35, velocity=100, time=0),
    Message('note_off', channel=4, note=35, velocity=100, time=192),
    Message('note_on', channel=4, note=28, velocity=100, time=0),
    Message('note_off', channel=4, note=28, velocity=100, time=96),
    Message('note_on', channel=4, note=28, velocity=100, time=0),
    Message('note_off', channel=4, note=28, velocity=100, time=96),
    Message('note_on', channel=4, note=28, velocity=100, time=0),
    Message('note_off', channel=4, note=28, velocity=100, time=96),
    Message('note_on', channel=4, note=28, velocity=100, time=0),
    Message('note_off', channel=4, note=28, velocity=100, time=96),
    Message('note_on', channel=4, note=28, velocity=100, time=0),
    Message('note_off', channel=4, note=28, velocity=100, time=96),
    Message('note_on', channel=4, note=30, velocity=100, time=0),
    Message('note_off', channel=4, note=30, velocity=100, time=96),
    Message('note_on', channel=4, note=28, velocity=100, time=0),
    Message('note_off', channel=4, note=28, velocity=100, time=96),
    Message('note_on', channel=4, note=28, velocity=100, time=0),
    Message('note_off', channel=4, note=28, velocity=100, time=96),
    Message('note_on', channel=4, note=31, velocity=100, time=0),
    Message('note_off', channel=4, note=31, velocity=100, time=96),
    Message('note_on', channel=4, note=31, velocity=100, time=0),
    Message('note_off', channel=4, note=31, velocity=100, time=96),
    Message('note_on', channel=4, note=31, velocity=100, time=0),
    Message('note_off', channel=4, note=31, velocity=100, time=96),
    Message('note_on', channel=4, note=33, velocity=100, time=0),
    Message('note_off', channel=4, note=33, velocity=100, time=96),
    Message('note_on', channel=4, note=33, velocity=100, time=0),
    Message('note_off', channel=4, note=33, velocity=100, time=96),
    Message('note_on', channel=4, note=33, velocity=100, time=0),
    Message('note_off', channel=4, note=33, velocity=100, time=96),
    Message('note_on', channel=4, note=35, velocity=100, time=0),
    Message('note_off', channel=4, note=35, velocity=100, time=96),
    Message('note_on', channel=4, note=35, velocity=100, time=0),
    Message('note_off', channel=4, note=35, velocity=100, time=96),
    Message('note_on', channel=4, note=36, velocity=100, time=0),
    Message('note_off', channel=4, note=36, velocity=100, time=96),
    Message('note_on', channel=4, note=36, velocity=100, time=0),
    Message('note_off', channel=4, note=36, velocity=100, time=96),
    Message('note_on', channel=4, note=36, velocity=100, time=0),
    Message('note_off', channel=4, note=36, velocity=100, time=96),
    Message('note_on', channel=4, note=36, velocity=100, time=0),
    Message('note_off', channel=4, note=36, velocity=100, time=96),
    Message('note_on', channel=4, note=36, velocity=100, time=0),
    Message('note_off', channel=4, note=36, velocity=100, time=96),
    Message('note_on', channel=4, note=36, velocity=100, time=0),
    Message('note_off', channel=4, note=36, velocity=100, time=96),
    Message('note_on', channel=4, note=36, velocity=100, time=0),
    Message('note_off', channel=4, note=36, velocity=100, time=96),
    Message('note_on', channel=4, note=36, velocity=100, time=0),
    Message('note_off', channel=4, note=36, velocity=100, time=96),
    Message('note_on', channel=4, note=38, velocity=100, time=0),
    Message('note_off', channel=4, note=38, velocity=100, time=96),
    Message('note_on', channel=4, note=38, velocity=100, time=0),
    Message('note_off', channel=4, note=38, velocity=100, time=96),
    Message('note_on', channel=4, note=38, velocity=100, time=0),
    Message('note_off', channel=4, note=38, velocity=100, time=96),
    Message('note_on', channel=4, note=38, velocity=100, time=0),
    Message('note_off', channel=4, note=38, velocity=100, time=96),
    Message('note_on', channel=4, note=38, velocity=100, time=0),
    Message('note_off', channel=4, note=38, velocity=100, time=300),
    Message('note_on', channel=4, note=38, velocity=100, time=0),
    Message('note_off', channel=4, note=38, velocity=100, time=1),
    Message('note_on', channel=4, note=37, velocity=100, time=11),
    Message('note_off', channel=4, note=37, velocity=100, time=1),
    Message('note_on', channel=4, note=36, velocity=100, time=11),
    Message('note_off', channel=4, note=36, velocity=100, time=1),
    Message('note_on', channel=4, note=35, velocity=100, time=11),
    Message('note_off', channel=4, note=35, velocity=100, time=1),
    Message('note_on', channel=4, note=34, velocity=100, time=11),
    Message('note_off', channel=4, note=34, velocity=100, time=1),
    Message('note_on', channel=4, note=33, velocity=100, time=11),
    Message('note_off', channel=4, note=33, velocity=100, time=1),
    Message('note_on', channel=4, note=32, velocity=100, time=11),
    Message('note_off', channel=4, note=32, velocity=100, time=1),
    Message('note_on', channel=4, note=29, velocity=100, time=11),
    Message('note_off', channel=4, note=29, velocity=100, time=96),
    Message('note_on', channel=4, note=28, velocity=100, time=0),
    Message('note_off', channel=4, note=28, velocity=100, time=96),
    Message('note_on', channel=4, note=28, velocity=100, time=0),
    Message('note_off', channel=4, note=28, velocity=100, time=96),
    Message('note_on', channel=4, note=28, velocity=100, time=0),
    Message('note_off', channel=4, note=28, velocity=100, time=96),
    Message('note_on', channel=4, note=28, velocity=100, time=0),
    Message('note_off', channel=4, note=28, velocity=100, time=96),
    Message('note_on', channel=4, note=28, velocity=100, time=0),
    Message('note_off', channel=4, note=28, velocity=100, time=96),
    Message('note_on', channel=4, note=28, velocity=100, time=0),
    Message('note_off', channel=4, note=28, velocity=100, time=96),
    Message('note_on', channel=4, note=28, velocity=100, time=0),
    Message('note_off', channel=4, note=28, velocity=100, time=96),
    Message('note_on', channel=4, note=29, velocity=100, time=0),
    Message('note_off', channel=4, note=29, velocity=100, time=96),
    Message('note_on', channel=4, note=28, velocity=100, time=0),
    Message('note_off', channel=4, note=28, velocity=100, time=96),
    Message('note_on', channel=4, note=28, velocity=100, time=0),
    Message('note_off', channel=4, note=28, velocity=100, time=96),
    Message('note_on', channel=4, note=28, velocity=100, time=0),
    Message('note_off', channel=4, note=28, velocity=100, time=96),
    Message('note_on', channel=4, note=28, velocity=100, time=0),
    Message('note_off', channel=4, note=28, velocity=100, time=96),
    Message('note_on', channel=4, note=29, velocity=100, time=0),
    Message('note_off', channel=4, note=29, velocity=100, time=96),
    Message('note_on', channel=4, note=31, velocity=100, time=0),
    Message('note_off', channel=4, note=31, velocity=100, time=96),
    Message('note_on', channel=4, note=29, velocity=100, time=0),
    Message('note_off', channel=4, note=29, velocity=100, time=96),
    Message('note_on', channel=4, note=29, velocity=100, time=0),
    Message('note_off', channel=4, note=29, velocity=100, time=96),
    Message('note_on', channel=4, note=28, velocity=100, time=0),
    Message('note_off', channel=4, note=28, velocity=100, time=96),
    Message('note_on', channel=4, note=28, velocity=100, time=0),
    Message('note_off', channel=4, note=28, velocity=100, time=96),
    Message('note_on', channel=4, note=28, velocity=100, time=0),
    Message('note_off', channel=4, note=28, velocity=100, time=96),
    Message('note_on', channel=4, note=28, velocity=100, time=0),
    Message('note_off', channel=4, note=28, velocity=100, time=96),
    Message('note_on', channel=4, note=28, velocity=100, time=0),
    Message('note_off', channel=4, note=28, velocity=100, time=96),
    Message('note_on', channel=4, note=28, velocity=100, time=0),
    Message('note_off', channel=4, note=28, velocity=100, time=96),
    Message('note_on', channel=4, note=28, velocity=100, time=0),
    Message('note_off', channel=4, note=28, velocity=100, time=96),
    Message('note_on', channel=4, note=28, velocity=100, time=0),
    Message('note_off', channel=4, note=28, velocity=100, time=96),
    Message('note_on', channel=4, note=28, velocity=100, time=0),
    Message('note_off', channel=4, note=28, velocity=100, time=96),
    Message('note_on', channel=4, note=28, velocity=100, time=0),
    Message('note_off', channel=4, note=28, velocity=100, time=96),
    Message('note_on', channel=4, note=28, velocity=100, time=0),
    Message('note_off', channel=4, note=28, velocity=100, time=96),
    Message('note_on', channel=4, note=28, velocity=100, time=0),
    Message('note_off', channel=4, note=28, velocity=100, time=96),
    Message('note_on', channel=4, note=28, velocity=100, time=0),
    Message('note_off', channel=4, note=28, velocity=100, time=96),
    Message('note_on', channel=4, note=28, velocity=100, time=0),
    Message('note_off', channel=4, note=28, velocity=100, time=96),
    Message('note_on', channel=4, note=28, velocity=100, time=0),
    Message('note_off', channel=4, note=28, velocity=100, time=96),
    Message('note_on', channel=4, note=29, velocity=100, time=0),
    Message('note_off', channel=4, note=29, velocity=100, time=96),
    Message('note_on', channel=4, note=28, velocity=100, time=0),
    Message('note_off', channel=4, note=28, velocity=100, time=96),
    Message('note_on', channel=4, note=28, velocity=100, time=0),
    Message('note_off', channel=4, note=28, velocity=100, time=96),
    Message('note_on', channel=4, note=28, velocity=100, time=0),
    Message('note_off', channel=4, note=28, velocity=100, time=96),
    Message('note_on', channel=4, note=28, velocity=100, time=0),
    Message('note_off', channel=4, note=28, velocity=100, time=96),
    Message('note_on', channel=4, note=28, velocity=100, time=0),
    Message('note_off', channel=4, note=28, velocity=100, time=96),
    Message('note_on', channel=4, note=28, velocity=100, time=0),
    Message('note_off', channel=4, note=28, velocity=100, time=96),
    Message('note_on', channel=4, note=28, velocity=100, time=0),
    Message('note_off', channel=4, note=28, velocity=100, time=96),
    Message('note_on', channel=4, note=29, velocity=100, time=0),
    Message('note_off', channel=4, note=29, velocity=100, time=96),
    Message('note_on', channel=4, note=28, velocity=100, time=0),
    Message('note_off', channel=4, note=28, velocity=100, time=96),
    Message('note_on', channel=4, note=28, velocity=100, time=0),
    Message('note_off', channel=4, note=28, velocity=100, time=96),
    Message('note_on', channel=4, note=28, velocity=100, time=0),
    Message('note_off', channel=4, note=28, velocity=100, time=96),
    Message('note_on', channel=4, note=28, velocity=100, time=0),
    Message('note_off', channel=4, note=28, velocity=100, time=96),
    Message('note_on', channel=4, note=29, velocity=100, time=0),
    Message('note_off', channel=4, note=29, velocity=100, time=96),
    Message('note_on', channel=4, note=31, velocity=100, time=0),
    Message('note_off', channel=4, note=31, velocity=100, time=96),
    Message('note_on', channel=4, note=29, velocity=100, time=0),
    Message('note_off', channel=4, note=29, velocity=100, time=96),
    Message('note_on', channel=4, note=29, velocity=100, time=0),
    Message('note_off', channel=4, note=29, velocity=100, time=96),
    Message('note_on', channel=4, note=28, velocity=100, time=0),
    Message('note_off', channel=4, note=28, velocity=100, time=96),
    Message('note_on', channel=4, note=28, velocity=100, time=0),
    Message('note_off', channel=4, note=28, velocity=100, time=96),
    Message('note_on', channel=4, note=28, velocity=100, time=0),
    Message('note_off', channel=4, note=28, velocity=100, time=96),
    Message('note_on', channel=4, note=28, velocity=100, time=0),
    Message('note_off', channel=4, note=28, velocity=100, time=96),
    Message('note_on', channel=4, note=28, velocity=100, time=0),
    Message('note_off', channel=4, note=28, velocity=100, time=96),
    Message('note_on', channel=4, note=28, velocity=100, time=0),
    Message('note_off', channel=4, note=28, velocity=100, time=96),
    Message('note_on', channel=4, note=28, velocity=100, time=0),
    Message('note_off', channel=4, note=28, velocity=100, time=96),
    Message('note_on', channel=4, note=28, velocity=100, time=0),
    Message('note_off', channel=4, note=28, velocity=100, time=96),
    Message('note_on', channel=4, note=28, velocity=100, time=0),
    Message('note_off', channel=4, note=28, velocity=100, time=96),
    Message('note_on', channel=4, note=28, velocity=100, time=0),
    Message('note_off', channel=4, note=28, velocity=100, time=96),
    Message('note_on', channel=4, note=28, velocity=100, time=0),
    Message('note_off', channel=4, note=28, velocity=100, time=96),
    Message('note_on', channel=4, note=28, velocity=100, time=0),
    Message('note_off', channel=4, note=28, velocity=100, time=96),
    Message('note_on', channel=4, note=28, velocity=100, time=0),
    Message('note_off', channel=4, note=28, velocity=100, time=96),
    Message('note_on', channel=4, note=28, velocity=100, time=0),
    Message('note_off', channel=4, note=28, velocity=100, time=96),
    Message('note_on', channel=4, note=28, velocity=100, time=0),
    Message('note_off', channel=4, note=28, velocity=100, time=96),
    Message('note_on', channel=4, note=29, velocity=100, time=0),
    Message('note_off', channel=4, note=29, velocity=100, time=96),
    Message('note_on', channel=4, note=28, velocity=100, time=0),
    Message('note_off', channel=4, note=28, velocity=100, time=96),
    Message('note_on', channel=4, note=28, velocity=100, time=0),
    Message('note_off', channel=4, note=28, velocity=100, time=96),
    Message('note_on', channel=4, note=28, velocity=100, time=0),
    Message('note_off', channel=4, note=28, velocity=100, time=96),
    Message('note_on', channel=4, note=28, velocity=100, time=0),
    Message('note_off', channel=4, note=28, velocity=100, time=96),
    Message('note_on', channel=4, note=28, velocity=100, time=0),
    Message('note_off', channel=4, note=28, velocity=100, time=96),
    Message('note_on', channel=4, note=28, velocity=100, time=0),
    Message('note_off', channel=4, note=28, velocity=100, time=96),
    Message('note_on', channel=4, note=28, velocity=100, time=0),
    Message('note_off', channel=4, note=28, velocity=100, time=96),
    Message('note_on', channel=4, note=29, velocity=100, time=0),
    Message('note_off', channel=4, note=29, velocity=100, time=96),
    Message('note_on', channel=4, note=28, velocity=100, time=0),
    Message('note_off', channel=4, note=28, velocity=100, time=96),
    Message('note_on', channel=4, note=28, velocity=100, time=0),
    Message('note_off', channel=4, note=28, velocity=100, time=96),
    Message('note_on', channel=4, note=28, velocity=100, time=0),
    Message('note_off', channel=4, note=28, velocity=100, time=96),
    Message('note_on', channel=4, note=28, velocity=100, time=0),
    Message('note_off', channel=4, note=28, velocity=100, time=96),
    Message('note_on', channel=4, note=29, velocity=100, time=0),
    Message('note_off', channel=4, note=29, velocity=100, time=96),
    Message('note_on', channel=4, note=31, velocity=100, time=0),
    Message('note_off', channel=4, note=31, velocity=100, time=96),
    Message('note_on', channel=4, note=29, velocity=100, time=0),
    Message('note_off', channel=4, note=29, velocity=100, time=96),
    Message('note_on', channel=4, note=29, velocity=100, time=0),
    Message('note_off', channel=4, note=29, velocity=100, time=96),
    Message('note_on', channel=4, note=28, velocity=100, time=0),
    Message('note_off', channel=4, note=28, velocity=100, time=96),
    Message('note_on', channel=4, note=28, velocity=100, time=0),
    Message('note_off', channel=4, note=28, velocity=100, time=96),
    Message('note_on', channel=4, note=28, velocity=100, time=0),
    Message('note_off', channel=4, note=28, velocity=100, time=96),
    Message('note_on', channel=4, note=28, velocity=100, time=0),
    Message('note_off', channel=4, note=28, velocity=100, time=96),
    Message('note_on', channel=4, note=28, velocity=100, time=0),
    Message('note_off', channel=4, note=28, velocity=100, time=96),
    Message('note_on', channel=4, note=28, velocity=100, time=0),
    Message('note_off', channel=4, note=28, velocity=100, time=96),
    Message('note_on', channel=4, note=28, velocity=100, time=0),
    Message('note_off', channel=4, note=28, velocity=100, time=96),
    Message('note_on', channel=4, note=28, velocity=100, time=0),
    Message('note_off', channel=4, note=28, velocity=100, time=96),
    Message('note_on', channel=4, note=28, velocity=100, time=0),
    Message('note_off', channel=4, note=28, velocity=100, time=96),
    Message('note_on', channel=4, note=28, velocity=100, time=0),
    Message('note_off', channel=4, note=28, velocity=100, time=96),
    Message('note_on', channel=4, note=28, velocity=100, time=0),
    Message('note_off', channel=4, note=28, velocity=100, time=96),
    Message('note_on', channel=4, note=28, velocity=100, time=0),
    Message('note_off', channel=4, note=28, velocity=100, time=96),
    Message('note_on', channel=4, note=28, velocity=100, time=0),
    Message('note_off', channel=4, note=28, velocity=100, time=96),
    Message('note_on', channel=4, note=28, velocity=100, time=0),
    Message('note_off', channel=4, note=28, velocity=100, time=96),
    Message('note_on', channel=4, note=28, velocity=100, time=0),
    Message('note_off', channel=4, note=28, velocity=100, time=96),
    Message('note_on', channel=4, note=29, velocity=100, time=0),
    Message('note_off', channel=4, note=29, velocity=100, time=96),
    Message('note_on', channel=4, note=28, velocity=100, time=0),
    Message('note_off', channel=4, note=28, velocity=100, time=96),
    Message('note_on', channel=4, note=28, velocity=100, time=0),
    Message('note_off', channel=4, note=28, velocity=100, time=96),
    Message('note_on', channel=4, note=28, velocity=100, time=0),
    Message('note_off', channel=4, note=28, velocity=100, time=96),
    Message('note_on', channel=4, note=28, velocity=100, time=0),
    Message('note_off', channel=4, note=28, velocity=100, time=96),
    Message('note_on', channel=4, note=28, velocity=100, time=0),
    Message('note_off', channel=4, note=28, velocity=100, time=96),
    Message('note_on', channel=4, note=28, velocity=100, time=0),
    Message('note_off', channel=4, note=28, velocity=100, time=96),
    Message('note_on', channel=4, note=28, velocity=100, time=0),
    Message('note_off', channel=4, note=28, velocity=100, time=96),
    Message('note_on', channel=4, note=29, velocity=100, time=0),
    Message('note_off', channel=4, note=29, velocity=100, time=96),
    Message('note_on', channel=4, note=28, velocity=100, time=0),
    Message('note_off', channel=4, note=28, velocity=100, time=96),
    Message('note_on', channel=4, note=28, velocity=100, time=0),
    Message('note_off', channel=4, note=28, velocity=100, time=96),
    Message('note_on', channel=4, note=28, velocity=100, time=0),
    Message('note_off', channel=4, note=28, velocity=100, time=96),
    Message('note_on', channel=4, note=28, velocity=100, time=0),
    Message('note_off', channel=4, note=28, velocity=100, time=96),
    Message('note_on', channel=4, note=29, velocity=100, time=0),
    Message('note_off', channel=4, note=29, velocity=100, time=96),
    Message('note_on', channel=4, note=31, velocity=100, time=0),
    Message('note_off', channel=4, note=31, velocity=100, time=96),
    Message('note_on', channel=4, note=29, velocity=100, time=0),
    Message('note_off', channel=4, note=29, velocity=100, time=96),
    Message('note_on', channel=4, note=29, velocity=100, time=0),
    Message('note_off', channel=4, note=29, velocity=100, time=96),
    Message('note_on', channel=4, note=28, velocity=100, time=0),
    Message('note_off', channel=4, note=28, velocity=100, time=96),
    Message('note_on', channel=4, note=28, velocity=100, time=0),
    Message('note_off', channel=4, note=28, velocity=100, time=96),
    Message('note_on', channel=4, note=28, velocity=100, time=0),
    Message('note_off', channel=4, note=28, velocity=100, time=96),
    Message('note_on', channel=4, note=28, velocity=100, time=0),
    Message('note_off', channel=4, note=28, velocity=100, time=96),
    Message('note_on', channel=4, note=28, velocity=100, time=0),
    Message('note_off', channel=4, note=28, velocity=100, time=96),
    Message('note_on', channel=4, note=28, velocity=100, time=0),
    Message('note_off', channel=4, note=28, velocity=100, time=96),
    Message('note_on', channel=4, note=28, velocity=100, time=0),
    Message('note_off', channel=4, note=28, velocity=100, time=96),
    Message('note_on', channel=4, note=28, velocity=100, time=0),
    Message('note_off', channel=4, note=28, velocity=100, time=96),
    Message('note_on', channel=4, note=28, velocity=100, time=0),
    Message('note_off', channel=4, note=28, velocity=100, time=96),
    Message('note_on', channel=4, note=28, velocity=100, time=0),
    Message('note_off', channel=4, note=28, velocity=100, time=96),
    Message('note_on', channel=4, note=28, velocity=100, time=0),
    Message('note_off', channel=4, note=28, velocity=100, time=96),
    Message('note_on', channel=4, note=28, velocity=100, time=0),
    Message('note_off', channel=4, note=28, velocity=100, time=96),
    Message('note_on', channel=4, note=28, velocity=100, time=0),
    Message('note_off', channel=4, note=28, velocity=100, time=96),
    Message('note_on', channel=4, note=28, velocity=100, time=0),
    Message('note_off', channel=4, note=28, velocity=100, time=96),
    Message('note_on', channel=4, note=28, velocity=100, time=0),
    Message('note_off', channel=4, note=28, velocity=100, time=96),
    Message('note_on', channel=4, note=28, velocity=100, time=0),
    Message('note_off', channel=4, note=28, velocity=100, time=96),
    Message('note_on', channel=4, note=28, velocity=100, time=0),
    Message('note_off', channel=4, note=28, velocity=100, time=96),
    Message('note_on', channel=4, note=28, velocity=100, time=0),
    Message('note_off', channel=4, note=28, velocity=100, time=96),
    Message('note_on', channel=4, note=28, velocity=100, time=0),
    Message('note_off', channel=4, note=28, velocity=100, time=96),
    Message('note_on', channel=4, note=28, velocity=100, time=0),
    Message('note_off', channel=4, note=28, velocity=100, time=96),
    Message('note_on', channel=4, note=28, velocity=100, time=0),
    Message('note_off', channel=4, note=28, velocity=100, time=96),
    Message('note_on', channel=4, note=28, velocity=100, time=0),
    Message('note_off', channel=4, note=28, velocity=100, time=96),
    Message('note_on', channel=4, note=28, velocity=100, time=0),
    Message('note_off', channel=4, note=28, velocity=100, time=96),
    Message('note_on', channel=4, note=28, velocity=100, time=0),
    Message('note_off', channel=4, note=28, velocity=100, time=96),
    Message('note_on', channel=4, note=28, velocity=100, time=0),
    Message('note_off', channel=4, note=28, velocity=100, time=96),
    Message('note_on', channel=4, note=28, velocity=100, time=0),
    Message('note_off', channel=4, note=28, velocity=100, time=96),
    Message('note_on', channel=4, note=28, velocity=100, time=0),
    Message('note_off', channel=4, note=28, velocity=100, time=96),
    Message('note_on', channel=4, note=28, velocity=100, time=0),
    Message('note_off', channel=4, note=28, velocity=100, time=96),
    Message('note_on', channel=4, note=28, velocity=100, time=0),
    Message('note_off', channel=4, note=28, velocity=100, time=96),
    Message('note_on', channel=4, note=28, velocity=100, time=0),
    Message('note_off', channel=4, note=28, velocity=100, time=96),
    Message('note_on', channel=4, note=31, velocity=100, time=0),
    Message('note_off', channel=4, note=31, velocity=100, time=192),
    Message('note_on', channel=4, note=31, velocity=100, time=0),
    Message('note_off', channel=4, note=31, velocity=100, time=96),
    Message('note_on', channel=4, note=31, velocity=100, time=0),
    Message('note_off', channel=4, note=31, velocity=100, time=96),
    Message('note_on', channel=4, note=31, velocity=100, time=0),
    Message('note_off', channel=4, note=31, velocity=100, time=96),
    Message('note_on', channel=4, note=31, velocity=100, time=0),
    Message('note_off', channel=4, note=31, velocity=100, time=96),
    Message('note_on', channel=4, note=31, velocity=100, time=0),
    Message('note_off', channel=4, note=31, velocity=100, time=96),
    Message('note_on', channel=4, note=31, velocity=100, time=0),
    Message('note_off', channel=4, note=31, velocity=100, time=96),
    Message('note_on', channel=4, note=31, velocity=100, time=0),
    Message('note_off', channel=4, note=31, velocity=100, time=96),
    Message('note_on', channel=4, note=31, velocity=100, time=0),
    Message('note_off', channel=4, note=31, velocity=100, time=96),
    Message('note_on', channel=4, note=31, velocity=100, time=0),
    Message('note_off', channel=4, note=31, velocity=100, time=96),
    Message('note_on', channel=4, note=31, velocity=100, time=0),
    Message('note_off', channel=4, note=31, velocity=100, time=96),
    Message('note_on', channel=4, note=31, velocity=100, time=0),
    Message('note_off', channel=4, note=31, velocity=100, time=96),
    Message('note_on', channel=4, note=31, velocity=100, time=0),
    Message('note_off', channel=4, note=31, velocity=100, time=96),
    Message('note_on', channel=4, note=31, velocity=100, time=0),
    Message('note_off', channel=4, note=31, velocity=100, time=96),
    Message('note_on', channel=4, note=31, velocity=100, time=0),
    Message('note_off', channel=4, note=31, velocity=100, time=96),
    Message('note_on', channel=4, note=36, velocity=100, time=0),
    Message('note_off', channel=4, note=36, velocity=100, time=192),
    Message('note_on', channel=4, note=36, velocity=100, time=0),
    Message('note_off', channel=4, note=36, velocity=100, time=96),
    Message('note_on', channel=4, note=36, velocity=100, time=0),
    Message('note_off', channel=4, note=36, velocity=100, time=96),
    Message('note_on', channel=4, note=36, velocity=100, time=0),
    Message('note_off', channel=4, note=36, velocity=100, time=96),
    Message('note_on', channel=4, note=36, velocity=100, time=0),
    Message('note_off', channel=4, note=36, velocity=100, time=96),
    Message('note_on', channel=4, note=36, velocity=100, time=0),
    Message('note_off', channel=4, note=36, velocity=100, time=96),
    Message('note_on', channel=4, note=36, velocity=100, time=0),
    Message('note_off', channel=4, note=36, velocity=100, time=96),
    Message('note_on', channel=4, note=36, velocity=100, time=0),
    Message('note_off', channel=4, note=36, velocity=100, time=96),
    Message('note_on', channel=4, note=36, velocity=100, time=0),
    Message('note_off', channel=4, note=36, velocity=100, time=96),
    Message('note_on', channel=4, note=36, velocity=100, time=0),
    Message('note_off', channel=4, note=36, velocity=100, time=96),
    Message('note_on', channel=4, note=36, velocity=100, time=0),
    Message('note_off', channel=4, note=36, velocity=100, time=96),
    Message('note_on', channel=4, note=36, velocity=100, time=0),
    Message('note_off', channel=4, note=36, velocity=100, time=96),
    Message('note_on', channel=4, note=36, velocity=100, time=0),
    Message('note_off', channel=4, note=36, velocity=100, time=96),
    Message('note_on', channel=4, note=36, velocity=100, time=0),
    Message('note_off', channel=4, note=36, velocity=100, time=96),
    Message('note_on', channel=4, note=36, velocity=100, time=0),
    Message('note_off', channel=4, note=36, velocity=100, time=96),
    Message('note_on', channel=4, note=33, velocity=100, time=0),
    Message('note_off', channel=4, note=33, velocity=100, time=192),
    Message('note_on', channel=4, note=33, velocity=100, time=0),
    Message('note_off', channel=4, note=33, velocity=100, time=96),
    Message('note_on', channel=4, note=33, velocity=100, time=0),
    Message('note_off', channel=4, note=33, velocity=100, time=96),
    Message('note_on', channel=4, note=33, velocity=100, time=0),
    Message('note_off', channel=4, note=33, velocity=100, time=96),
    Message('note_on', channel=4, note=33, velocity=100, time=0),
    Message('note_off', channel=4, note=33, velocity=100, time=96),
    Message('note_on', channel=4, note=33, velocity=100, time=0),
    Message('note_off', channel=4, note=33, velocity=100, time=96),
    Message('note_on', channel=4, note=33, velocity=100, time=0),
    Message('note_off', channel=4, note=33, velocity=100, time=96),
    Message('note_on', channel=4, note=38, velocity=100, time=0),
    Message('note_off', channel=4, note=38, velocity=100, time=192),
    Message('note_on', channel=4, note=35, velocity=100, time=0),
    Message('note_off', channel=4, note=35, velocity=100, time=96),
    Message('note_on', channel=4, note=34, velocity=100, time=0),
    Message('note_off', channel=4, note=34, velocity=100, time=96),
    Message('note_on', channel=4, note=33, velocity=100, time=0),
    Message('note_off', channel=4, note=33, velocity=100, time=96),
    Message('note_on', channel=4, note=31, velocity=100, time=0),
    Message('note_off', channel=4, note=31, velocity=100, time=96),
    Message('note_on', channel=4, note=30, velocity=100, time=0),
    Message('note_off', channel=4, note=30, velocity=100, time=96),
    Message('note_on', channel=4, note=29, velocity=100, time=0),
    Message('note_off', channel=4, note=29, velocity=100, time=96),
    Message('note_on', channel=4, note=28, velocity=100, time=0),
    Message('note_off', channel=4, note=28, velocity=100, time=192),
    Message('note_on', channel=4, note=28, velocity=100, time=0),
    Message('note_off', channel=4, note=28, velocity=100, time=96),
    Message('note_on', channel=4, note=28, velocity=100, time=0),
    Message('note_off', channel=4, note=28, velocity=100, time=96),
    Message('note_on', channel=4, note=28, velocity=100, time=0),
    Message('note_off', channel=4, note=28, velocity=100, time=96),
    Message('note_on', channel=4, note=28, velocity=100, time=0),
    Message('note_off', channel=4, note=28, velocity=100, time=96),
    Message('note_on', channel=4, note=30, velocity=100, time=0),
    Message('note_off', channel=4, note=30, velocity=100, time=96),
    Message('note_on', channel=4, note=28, velocity=100, time=0),
    Message('note_off', channel=4, note=28, velocity=100, time=96),
    Message('note_on', channel=4, note=28, velocity=100, time=0),
    Message('note_off', channel=4, note=28, velocity=100, time=96),
    Message('note_on', channel=4, note=31, velocity=100, time=0),
    Message('note_off', channel=4, note=31, velocity=100, time=96),
    Message('note_on', channel=4, note=31, velocity=100, time=0),
    Message('note_off', channel=4, note=31, velocity=100, time=96),
    Message('note_on', channel=4, note=31, velocity=100, time=0),
    Message('note_off', channel=4, note=31, velocity=100, time=96),
    Message('note_on', channel=4, note=33, velocity=100, time=0),
    Message('note_off', channel=4, note=33, velocity=100, time=96),
    Message('note_on', channel=4, note=33, velocity=100, time=0),
    Message('note_off', channel=4, note=33, velocity=100, time=96),
    Message('note_on', channel=4, note=33, velocity=100, time=0),
    Message('note_off', channel=4, note=33, velocity=100, time=96),
    Message('note_on', channel=4, note=35, velocity=100, time=0),
    Message('note_off', channel=4, note=35, velocity=100, time=96),
    Message('note_on', channel=4, note=35, velocity=100, time=0),
    Message('note_off', channel=4, note=35, velocity=100, time=96),
    Message('note_on', channel=4, note=36, velocity=100, time=0),
    Message('note_off', channel=4, note=36, velocity=100, time=96),
    Message('note_on', channel=4, note=36, velocity=100, time=0),
    Message('note_off', channel=4, note=36, velocity=100, time=96),
    Message('note_on', channel=4, note=36, velocity=100, time=0),
    Message('note_off', channel=4, note=36, velocity=100, time=96),
    Message('note_on', channel=4, note=36, velocity=100, time=0),
    Message('note_off', channel=4, note=36, velocity=100, time=96),
    Message('note_on', channel=4, note=36, velocity=100, time=0),
    Message('note_off', channel=4, note=36, velocity=100, time=96),
    Message('note_on', channel=4, note=36, velocity=100, time=0),
    Message('note_off', channel=4, note=36, velocity=100, time=96),
    Message('note_on', channel=4, note=36, velocity=100, time=0),
    Message('note_off', channel=4, note=36, velocity=100, time=96),
    Message('note_on', channel=4, note=36, velocity=100, time=0),
    Message('note_off', channel=4, note=36, velocity=100, time=96),
    Message('note_on', channel=4, note=38, velocity=100, time=0),
    Message('note_off', channel=4, note=38, velocity=100, time=96),
    Message('note_on', channel=4, note=38, velocity=100, time=0),
    Message('note_off', channel=4, note=38, velocity=100, time=96),
    Message('note_on', channel=4, note=38, velocity=100, time=0),
    Message('note_off', channel=4, note=38, velocity=100, time=96),
    Message('note_on', channel=4, note=43, velocity=100, time=0),
    Message('note_off', channel=4, note=43, velocity=100, time=96),
    Message('note_on', channel=4, note=42, velocity=100, time=0),
    Message('note_off', channel=4, note=42, velocity=100, time=96),
    Message('note_on', channel=4, note=38, velocity=100, time=0),
    Message('note_off', channel=4, note=38, velocity=100, time=96),
    Message('note_on', channel=4, note=35, velocity=100, time=0),
    Message('note_off', channel=4, note=35, velocity=100, time=192),
    Message('note_on', channel=4, note=28, velocity=100, time=0),
    Message('note_off', channel=4, note=28, velocity=100, time=96),
    Message('note_on', channel=4, note=28, velocity=100, time=0),
    Message('note_off', channel=4, note=28, velocity=100, time=96),
    Message('note_on', channel=4, note=28, velocity=100, time=0),
    Message('note_off', channel=4, note=28, velocity=100, time=96),
    Message('note_on', channel=4, note=28, velocity=100, time=0),
    Message('note_off', channel=4, note=28, velocity=100, time=96),
    Message('note_on', channel=4, note=28, velocity=100, time=0),
    Message('note_off', channel=4, note=28, velocity=100, time=96),
    Message('note_on', channel=4, note=30, velocity=100, time=0),
    Message('note_off', channel=4, note=30, velocity=100, time=96),
    Message('note_on', channel=4, note=28, velocity=100, time=0),
    Message('note_off', channel=4, note=28, velocity=100, time=96),
    Message('note_on', channel=4, note=28, velocity=100, time=0),
    Message('note_off', channel=4, note=28, velocity=100, time=96),
    Message('note_on', channel=4, note=31, velocity=100, time=0),
    Message('note_off', channel=4, note=31, velocity=100, time=96),
    Message('note_on', channel=4, note=31, velocity=100, time=0),
    Message('note_off', channel=4, note=31, velocity=100, time=96),
    Message('note_on', channel=4, note=31, velocity=100, time=0),
    Message('note_off', channel=4, note=31, velocity=100, time=96),
    Message('note_on', channel=4, note=33, velocity=100, time=0),
    Message('note_off', channel=4, note=33, velocity=100, time=96),
    Message('note_on', channel=4, note=33, velocity=100, time=0),
    Message('note_off', channel=4, note=33, velocity=100, time=96),
    Message('note_on', channel=4, note=33, velocity=100, time=0),
    Message('note_off', channel=4, note=33, velocity=100, time=96),
    Message('note_on', channel=4, note=35, velocity=100, time=0),
    Message('note_off', channel=4, note=35, velocity=100, time=96),
    Message('note_on', channel=4, note=35, velocity=100, time=0),
    Message('note_off', channel=4, note=35, velocity=100, time=96),
    Message('note_on', channel=4, note=36, velocity=100, time=0),
    Message('note_off', channel=4, note=36, velocity=100, time=96),
    Message('note_on', channel=4, note=36, velocity=100, time=0),
    Message('note_off', channel=4, note=36, velocity=100, time=96),
    Message('note_on', channel=4, note=36, velocity=100, time=0),
    Message('note_off', channel=4, note=36, velocity=100, time=96),
    Message('note_on', channel=4, note=36, velocity=100, time=0),
    Message('note_off', channel=4, note=36, velocity=100, time=96),
    Message('note_on', channel=4, note=36, velocity=100, time=0),
    Message('note_off', channel=4, note=36, velocity=100, time=96),
    Message('note_on', channel=4, note=36, velocity=100, time=0),
    Message('note_off', channel=4, note=36, velocity=100, time=96),
    Message('note_on', channel=4, note=36, velocity=100, time=0),
    Message('note_off', channel=4, note=36, velocity=100, time=96),
    Message('note_on', channel=4, note=36, velocity=100, time=0),
    Message('note_off', channel=4, note=36, velocity=100, time=96),
    Message('note_on', channel=4, note=38, velocity=100, time=0),
    Message('note_off', channel=4, note=38, velocity=100, time=96),
    Message('note_on', channel=4, note=38, velocity=100, time=0),
    Message('note_off', channel=4, note=38, velocity=100, time=96),
    Message('note_on', channel=4, note=38, velocity=100, time=0),
    Message('note_off', channel=4, note=38, velocity=100, time=96),
    Message('note_on', channel=4, note=38, velocity=100, time=0),
    Message('note_off', channel=4, note=38, velocity=100, time=96),
    Message('note_on', channel=4, note=38, velocity=120, time=0),
    Message('note_off', channel=4, note=38, velocity=120, time=300),
    Message('note_on', channel=4, note=38, velocity=100, time=0),
    Message('note_off', channel=4, note=38, velocity=100, time=1),
    Message('note_on', channel=4, note=37, velocity=100, time=11),
    Message('note_off', channel=4, note=37, velocity=100, time=1),
    Message('note_on', channel=4, note=36, velocity=100, time=11),
    Message('note_off', channel=4, note=36, velocity=100, time=1),
    Message('note_on', channel=4, note=35, velocity=100, time=11),
    Message('note_off', channel=4, note=35, velocity=100, time=1),
    Message('note_on', channel=4, note=34, velocity=100, time=11),
    Message('note_off', channel=4, note=34, velocity=100, time=1),
    Message('note_on', channel=4, note=33, velocity=100, time=11),
    Message('note_off', channel=4, note=33, velocity=100, time=1),
    Message('note_on', channel=4, note=32, velocity=100, time=11),
    Message('note_off', channel=4, note=32, velocity=100, time=1),
    Message('note_on', channel=4, note=28, velocity=100, time=11),
    Message('note_off', channel=4, note=28, velocity=100, time=96),
    Message('note_on', channel=4, note=28, velocity=100, time=0),
    Message('note_off', channel=4, note=28, velocity=100, time=96),
    Message('note_on', channel=4, note=28, velocity=100, time=0),
    Message('note_off', channel=4, note=28, velocity=100, time=96),
    Message('note_on', channel=4, note=28, velocity=100, time=0),
    Message('note_off', channel=4, note=28, velocity=100, time=96),
    Message('note_on', channel=4, note=28, velocity=100, time=0),
    Message('note_off', channel=4, note=28, velocity=100, time=96),
    Message('note_on', channel=4, note=30, velocity=100, time=0),
    Message('note_off', channel=4, note=30, velocity=100, time=96),
    Message('note_on', channel=4, note=28, velocity=100, time=0),
    Message('note_off', channel=4, note=28, velocity=100, time=96),
    Message('note_on', channel=4, note=28, velocity=100, time=0),
    Message('note_off', channel=4, note=28, velocity=100, time=96),
    Message('note_on', channel=4, note=31, velocity=100, time=0),
    Message('note_off', channel=4, note=31, velocity=100, time=96),
    Message('note_on', channel=4, note=31, velocity=100, time=0),
    Message('note_off', channel=4, note=31, velocity=100, time=96),
    Message('note_on', channel=4, note=31, velocity=100, time=0),
    Message('note_off', channel=4, note=31, velocity=100, time=96),
    Message('note_on', channel=4, note=33, velocity=100, time=0),
    Message('note_off', channel=4, note=33, velocity=100, time=96),
    Message('note_on', channel=4, note=33, velocity=100, time=0),
    Message('note_off', channel=4, note=33, velocity=100, time=96),
    Message('note_on', channel=4, note=33, velocity=100, time=0),
    Message('note_off', channel=4, note=33, velocity=100, time=96),
    Message('note_on', channel=4, note=35, velocity=100, time=0),
    Message('note_off', channel=4, note=35, velocity=100, time=96),
    Message('note_on', channel=4, note=35, velocity=100, time=0),
    Message('note_off', channel=4, note=35, velocity=100, time=96),
    Message('note_on', channel=4, note=36, velocity=100, time=0),
    Message('note_off', channel=4, note=36, velocity=100, time=96),
    Message('note_on', channel=4, note=36, velocity=100, time=0),
    Message('note_off', channel=4, note=36, velocity=100, time=96),
    Message('note_on', channel=4, note=36, velocity=100, time=0),
    Message('note_off', channel=4, note=36, velocity=100, time=96),
    Message('note_on', channel=4, note=36, velocity=100, time=0),
    Message('note_off', channel=4, note=36, velocity=100, time=96),
    Message('note_on', channel=4, note=36, velocity=100, time=0),
    Message('note_off', channel=4, note=36, velocity=100, time=96),
    Message('note_on', channel=4, note=36, velocity=100, time=0),
    Message('note_off', channel=4, note=36, velocity=100, time=96),
    Message('note_on', channel=4, note=36, velocity=100, time=0),
    Message('note_off', channel=4, note=36, velocity=100, time=96),
    Message('note_on', channel=4, note=36, velocity=100, time=0),
    Message('note_off', channel=4, note=36, velocity=100, time=96),
    Message('note_on', channel=4, note=38, velocity=100, time=0),
    Message('note_off', channel=4, note=38, velocity=100, time=96),
    Message('note_on', channel=4, note=38, velocity=100, time=0),
    Message('note_off', channel=4, note=38, velocity=100, time=96),
    Message('note_on', channel=4, note=38, velocity=100, time=0),
    Message('note_off', channel=4, note=38, velocity=100, time=96),
    Message('note_on', channel=4, note=43, velocity=100, time=0),
    Message('note_off', channel=4, note=43, velocity=100, time=96),
    Message('note_on', channel=4, note=42, velocity=100, time=0),
    Message('note_off', channel=4, note=42, velocity=100, time=96),
    Message('note_on', channel=4, note=38, velocity=100, time=0),
    Message('note_off', channel=4, note=38, velocity=100, time=96),
    Message('note_on', channel=4, note=35, velocity=100, time=0),
    Message('note_off', channel=4, note=35, velocity=100, time=192),
    Message('note_on', channel=4, note=28, velocity=100, time=0),
    Message('note_off', channel=4, note=28, velocity=100, time=96),
    Message('note_on', channel=4, note=28, velocity=100, time=0),
    Message('note_off', channel=4, note=28, velocity=100, time=96),
    Message('note_on', channel=4, note=28, velocity=100, time=0),
    Message('note_off', channel=4, note=28, velocity=100, time=96),
    Message('note_on', channel=4, note=28, velocity=100, time=0),
    Message('note_off', channel=4, note=28, velocity=100, time=96),
    Message('note_on', channel=4, note=28, velocity=100, time=0),
    Message('note_off', channel=4, note=28, velocity=100, time=96),
    Message('note_on', channel=4, note=30, velocity=100, time=0),
    Message('note_off', channel=4, note=30, velocity=100, time=96),
    Message('note_on', channel=4, note=28, velocity=100, time=0),
    Message('note_off', channel=4, note=28, velocity=100, time=96),
    Message('note_on', channel=4, note=28, velocity=100, time=0),
    Message('note_off', channel=4, note=28, velocity=100, time=96),
    Message('note_on', channel=4, note=31, velocity=100, time=0),
    Message('note_off', channel=4, note=31, velocity=100, time=96),
    Message('note_on', channel=4, note=31, velocity=100, time=0),
    Message('note_off', channel=4, note=31, velocity=100, time=96),
    Message('note_on', channel=4, note=31, velocity=100, time=0),
    Message('note_off', channel=4, note=31, velocity=100, time=96),
    Message('note_on', channel=4, note=33, velocity=100, time=0),
    Message('note_off', channel=4, note=33, velocity=100, time=96),
    Message('note_on', channel=4, note=33, velocity=100, time=0),
    Message('note_off', channel=4, note=33, velocity=100, time=96),
    Message('note_on', channel=4, note=33, velocity=100, time=0),
    Message('note_off', channel=4, note=33, velocity=100, time=96),
    Message('note_on', channel=4, note=35, velocity=100, time=0),
    Message('note_off', channel=4, note=35, velocity=100, time=96),
    Message('note_on', channel=4, note=35, velocity=100, time=0),
    Message('note_off', channel=4, note=35, velocity=100, time=96),
    Message('note_on', channel=4, note=36, velocity=100, time=0),
    Message('note_off', channel=4, note=36, velocity=100, time=192),
    Message('note_on', channel=4, note=36, velocity=100, time=0),
    Message('note_off', channel=4, note=36, velocity=100, time=96),
    Message('note_on', channel=4, note=36, velocity=100, time=0),
    Message('note_off', channel=4, note=36, velocity=100, time=96),
    Message('note_on', channel=4, note=36, velocity=100, time=0),
    Message('note_off', channel=4, note=36, velocity=100, time=96),
    Message('note_on', channel=4, note=36, velocity=100, time=0),
    Message('note_off', channel=4, note=36, velocity=100, time=96),
    Message('note_on', channel=4, note=36, velocity=100, time=0),
    Message('note_off', channel=4, note=36, velocity=100, time=96),
    Message('note_on', channel=4, note=36, velocity=100, time=0),
    Message('note_off', channel=4, note=36, velocity=100, time=96),
    Message('note_on', channel=4, note=38, velocity=100, time=0),
    Message('note_off', channel=4, note=38, velocity=100, time=96),
    Message('note_on', channel=4, note=38, velocity=100, time=0),
    Message('note_off', channel=4, note=38, velocity=100, time=96),
    Message('note_on', channel=4, note=38, velocity=100, time=0),
    Message('note_off', channel=4, note=38, velocity=100, time=96),
    Message('note_on', channel=4, note=43, velocity=100, time=0),
    Message('note_off', channel=4, note=43, velocity=100, time=96),
    Message('note_on', channel=4, note=42, velocity=100, time=0),
    Message('note_off', channel=4, note=42, velocity=100, time=96),
    Message('note_on', channel=4, note=38, velocity=100, time=0),
    Message('note_off', channel=4, note=38, velocity=100, time=96),
    Message('note_on', channel=4, note=35, velocity=100, time=0),
    Message('note_off', channel=4, note=35, velocity=100, time=192),
    Message('note_on', channel=4, note=36, velocity=100, time=0),
    Message('note_off', channel=4, note=36, velocity=100, time=96),
    Message('note_on', channel=4, note=36, velocity=100, time=0),
    Message('note_off', channel=4, note=36, velocity=100, time=96),
    Message('note_on', channel=4, note=36, velocity=100, time=0),
    Message('note_off', channel=4, note=36, velocity=100, time=96),
    Message('note_on', channel=4, note=36, velocity=100, time=0),
    Message('note_off', channel=4, note=36, velocity=100, time=96),
    Message('note_on', channel=4, note=36, velocity=100, time=0),
    Message('note_off', channel=4, note=36, velocity=100, time=96),
    Message('note_on', channel=4, note=36, velocity=100, time=0),
    Message('note_off', channel=4, note=36, velocity=100, time=96),
    Message('note_on', channel=4, note=36, velocity=100, time=0),
    Message('note_off', channel=4, note=36, velocity=100, time=96),
    Message('note_on', channel=4, note=36, velocity=100, time=0),
    Message('note_off', channel=4, note=36, velocity=100, time=96),
    Message('note_on', channel=4, note=38, velocity=100, time=0),
    Message('note_off', channel=4, note=38, velocity=100, time=96),
    Message('note_on', channel=4, note=38, velocity=100, time=0),
    Message('note_off', channel=4, note=38, velocity=100, time=96),
    Message('note_on', channel=4, note=38, velocity=100, time=0),
    Message('note_off', channel=4, note=38, velocity=100, time=96),
    Message('note_on', channel=4, note=38, velocity=100, time=0),
    Message('note_off', channel=4, note=38, velocity=100, time=96),
    Message('note_on', channel=4, note=38, velocity=100, time=0),
    Message('note_off', channel=4, note=38, velocity=100, time=96),
    Message('note_on', channel=4, note=28, velocity=100, time=0),
    Message('note_off', channel=4, note=28, velocity=100, time=96),
    Message('note_on', channel=4, note=28, velocity=100, time=0),
    Message('note_off', channel=4, note=28, velocity=100, time=96),
    Message('note_on', channel=4, note=28, velocity=100, time=0),
    Message('note_off', channel=4, note=28, velocity=100, time=192),
    Message('note_on', channel=4, note=28, velocity=100, time=0),
    Message('note_off', channel=4, note=28, velocity=100, time=96),
    Message('note_on', channel=4, note=28, velocity=100, time=0),
    Message('note_off', channel=4, note=28, velocity=100, time=96),
    Message('note_on', channel=4, note=28, velocity=100, time=0),
    Message('note_off', channel=4, note=28, velocity=100, time=96),
    Message('note_on', channel=4, note=28, velocity=100, time=0),
    Message('note_off', channel=4, note=28, velocity=100, time=96),
    Message('note_on', channel=4, note=28, velocity=100, time=0),
    Message('note_off', channel=4, note=28, velocity=100, time=96),
    Message('note_on', channel=4, note=28, velocity=100, time=0),
    Message('note_off', channel=4, note=28, velocity=100, time=96),
    Message('note_on', channel=4, note=28, velocity=100, time=0),
    Message('note_off', channel=4, note=28, velocity=100, time=96),
    Message('note_on', channel=4, note=28, velocity=100, time=0),
    Message('note_off', channel=4, note=28, velocity=100, time=96),
    Message('note_on', channel=4, note=28, velocity=100, time=0),
    Message('note_off', channel=4, note=28, velocity=100, time=96),
    Message('note_on', channel=4, note=28, velocity=100, time=0),
    Message('note_off', channel=4, note=28, velocity=100, time=96),
    Message('note_on', channel=4, note=28, velocity=100, time=0),
    Message('note_off', channel=4, note=28, velocity=100, time=96),
    Message('note_on', channel=4, note=28, velocity=100, time=0),
    Message('note_off', channel=4, note=28, velocity=100, time=96),
    Message('note_on', channel=4, note=28, velocity=100, time=0),
    Message('note_off', channel=4, note=28, velocity=100, time=96),
    Message('note_on', channel=4, note=28, velocity=100, time=0),
    Message('note_off', channel=4, note=28, velocity=100, time=96),
    Message('note_on', channel=4, note=31, velocity=100, time=0),
    Message('note_off', channel=4, note=31, velocity=100, time=192),
    Message('note_on', channel=4, note=31, velocity=100, time=0),
    Message('note_off', channel=4, note=31, velocity=100, time=96),
    Message('note_on', channel=4, note=31, velocity=100, time=0),
    Message('note_off', channel=4, note=31, velocity=100, time=96),
    Message('note_on', channel=4, note=31, velocity=100, time=0),
    Message('note_off', channel=4, note=31, velocity=100, time=96),
    Message('note_on', channel=4, note=31, velocity=100, time=0),
    Message('note_off', channel=4, note=31, velocity=100, time=96),
    Message('note_on', channel=4, note=31, velocity=100, time=0),
    Message('note_off', channel=4, note=31, velocity=100, time=96),
    Message('note_on', channel=4, note=31, velocity=100, time=0),
    Message('note_off', channel=4, note=31, velocity=100, time=96),
    Message('note_on', channel=4, note=31, velocity=100, time=0),
    Message('note_off', channel=4, note=31, velocity=100, time=96),
    Message('note_on', channel=4, note=31, velocity=100, time=0),
    Message('note_off', channel=4, note=31, velocity=100, time=96),
    Message('note_on', channel=4, note=31, velocity=100, time=0),
    Message('note_off', channel=4, note=31, velocity=100, time=96),
    Message('note_on', channel=4, note=31, velocity=100, time=0),
    Message('note_off', channel=4, note=31, velocity=100, time=96),
    Message('note_on', channel=4, note=31, velocity=100, time=0),
    Message('note_off', channel=4, note=31, velocity=100, time=96),
    Message('note_on', channel=4, note=31, velocity=100, time=0),
    Message('note_off', channel=4, note=31, velocity=100, time=96),
    Message('note_on', channel=4, note=31, velocity=100, time=0),
    Message('note_off', channel=4, note=31, velocity=100, time=96),
    Message('note_on', channel=4, note=31, velocity=100, time=0),
    Message('note_off', channel=4, note=31, velocity=100, time=96),
    Message('note_on', channel=4, note=36, velocity=100, time=0),
    Message('note_off', channel=4, note=36, velocity=100, time=192),
    Message('note_on', channel=4, note=36, velocity=100, time=0),
    Message('note_off', channel=4, note=36, velocity=100, time=96),
    Message('note_on', channel=4, note=36, velocity=100, time=0),
    Message('note_off', channel=4, note=36, velocity=100, time=96),
    Message('note_on', channel=4, note=36, velocity=100, time=0),
    Message('note_off', channel=4, note=36, velocity=100, time=96),
    Message('note_on', channel=4, note=36, velocity=100, time=0),
    Message('note_off', channel=4, note=36, velocity=100, time=96),
    Message('note_on', channel=4, note=36, velocity=100, time=0),
    Message('note_off', channel=4, note=36, velocity=100, time=96),
    Message('note_on', channel=4, note=36, velocity=100, time=0),
    Message('note_off', channel=4, note=36, velocity=100, time=96),
    Message('note_on', channel=4, note=36, velocity=100, time=0),
    Message('note_off', channel=4, note=36, velocity=100, time=96),
    Message('note_on', channel=4, note=36, velocity=100, time=0),
    Message('note_off', channel=4, note=36, velocity=100, time=96),
    Message('note_on', channel=4, note=36, velocity=100, time=0),
    Message('note_off', channel=4, note=36, velocity=100, time=96),
    Message('note_on', channel=4, note=36, velocity=100, time=0),
    Message('note_off', channel=4, note=36, velocity=100, time=96),
    Message('note_on', channel=4, note=36, velocity=100, time=0),
    Message('note_off', channel=4, note=36, velocity=100, time=96),
    Message('note_on', channel=4, note=36, velocity=100, time=0),
    Message('note_off', channel=4, note=36, velocity=100, time=96),
    Message('note_on', channel=4, note=36, velocity=100, time=0),
    Message('note_off', channel=4, note=36, velocity=100, time=96),
    Message('note_on', channel=4, note=36, velocity=100, time=0),
    Message('note_off', channel=4, note=36, velocity=100, time=96),
    Message('note_on', channel=4, note=33, velocity=100, time=0),
    Message('note_off', channel=4, note=33, velocity=100, time=192),
    Message('note_on', channel=4, note=33, velocity=100, time=0),
    Message('note_off', channel=4, note=33, velocity=100, time=96),
    Message('note_on', channel=4, note=33, velocity=100, time=0),
    Message('note_off', channel=4, note=33, velocity=100, time=96),
    Message('note_on', channel=4, note=33, velocity=100, time=0),
    Message('note_off', channel=4, note=33, velocity=100, time=96),
    Message('note_on', channel=4, note=33, velocity=100, time=0),
    Message('note_off', channel=4, note=33, velocity=100, time=96),
    Message('note_on', channel=4, note=33, velocity=100, time=0),
    Message('note_off', channel=4, note=33, velocity=100, time=96),
    Message('note_on', channel=4, note=33, velocity=100, time=0),
    Message('note_off', channel=4, note=33, velocity=100, time=96),
    Message('note_on', channel=4, note=33, velocity=100, time=0),
    Message('note_off', channel=4, note=33, velocity=100, time=96),
    Message('note_on', channel=4, note=33, velocity=100, time=0),
    Message('note_off', channel=4, note=33, velocity=100, time=96),
    Message('note_on', channel=4, note=33, velocity=100, time=0),
    Message('note_off', channel=4, note=33, velocity=100, time=96),
    Message('note_on', channel=4, note=33, velocity=100, time=0),
    Message('note_off', channel=4, note=33, velocity=100, time=96),
    Message('note_on', channel=4, note=33, velocity=100, time=0),
    Message('note_off', channel=4, note=33, velocity=100, time=96),
    Message('note_on', channel=4, note=33, velocity=100, time=0),
    Message('note_off', channel=4, note=33, velocity=100, time=96),
    Message('note_on', channel=4, note=33, velocity=100, time=0),
    Message('note_off', channel=4, note=33, velocity=100, time=96),
    Message('note_on', channel=4, note=33, velocity=100, time=0),
    Message('note_off', channel=4, note=33, velocity=100, time=96),
    Message('note_on', channel=4, note=28, velocity=100, time=0),
    Message('note_off', channel=4, note=28, velocity=100, time=192),
    Message('note_on', channel=4, note=28, velocity=100, time=0),
    Message('note_off', channel=4, note=28, velocity=100, time=96),
    Message('note_on', channel=4, note=28, velocity=100, time=0),
    Message('note_off', channel=4, note=28, velocity=100, time=96),
    Message('note_on', channel=4, note=28, velocity=100, time=0),
    Message('note_off', channel=4, note=28, velocity=100, time=96),
    Message('note_on', channel=4, note=28, velocity=100, time=0),
    Message('note_off', channel=4, note=28, velocity=100, time=96),
    Message('note_on', channel=4, note=28, velocity=100, time=0),
    Message('note_off', channel=4, note=28, velocity=100, time=96),
    Message('note_on', channel=4, note=28, velocity=100, time=0),
    Message('note_off', channel=4, note=28, velocity=100, time=96),
    Message('note_on', channel=4, note=28, velocity=100, time=0),
    Message('note_off', channel=4, note=28, velocity=100, time=96),
    Message('note_on', channel=4, note=28, velocity=100, time=0),
    Message('note_off', channel=4, note=28, velocity=100, time=96),
    Message('note_on', channel=4, note=28, velocity=100, time=0),
    Message('note_off', channel=4, note=28, velocity=100, time=96),
    Message('note_on', channel=4, note=28, velocity=100, time=0),
    Message('note_off', channel=4, note=28, velocity=100, time=96),
    Message('note_on', channel=4, note=28, velocity=100, time=0),
    Message('note_off', channel=4, note=28, velocity=100, time=96),
    Message('note_on', channel=4, note=28, velocity=100, time=0),
    Message('note_off', channel=4, note=28, velocity=100, time=96),
    Message('note_on', channel=4, note=28, velocity=100, time=0),
    Message('note_off', channel=4, note=28, velocity=100, time=96),
    Message('note_on', channel=4, note=28, velocity=100, time=0),
    Message('note_off', channel=4, note=28, velocity=100, time=96),
    Message('note_on', channel=4, note=31, velocity=100, time=0),
    Message('note_off', channel=4, note=31, velocity=100, time=192),
    Message('note_on', channel=4, note=31, velocity=100, time=0),
    Message('note_off', channel=4, note=31, velocity=100, time=96),
    Message('note_on', channel=4, note=31, velocity=100, time=0),
    Message('note_off', channel=4, note=31, velocity=100, time=96),
    Message('note_on', channel=4, note=31, velocity=100, time=0),
    Message('note_off', channel=4, note=31, velocity=100, time=96),
    Message('note_on', channel=4, note=31, velocity=100, time=0),
    Message('note_off', channel=4, note=31, velocity=100, time=96),
    Message('note_on', channel=4, note=31, velocity=100, time=0),
    Message('note_off', channel=4, note=31, velocity=100, time=96),
    Message('note_on', channel=4, note=31, velocity=100, time=0),
    Message('note_off', channel=4, note=31, velocity=100, time=96),
    Message('note_on', channel=4, note=31, velocity=100, time=0),
    Message('note_off', channel=4, note=31, velocity=100, time=96),
    Message('note_on', channel=4, note=31, velocity=100, time=0),
    Message('note_off', channel=4, note=31, velocity=100, time=96),
    Message('note_on', channel=4, note=31, velocity=100, time=0),
    Message('note_off', channel=4, note=31, velocity=100, time=96),
    Message('note_on', channel=4, note=31, velocity=100, time=0),
    Message('note_off', channel=4, note=31, velocity=100, time=96),
    Message('note_on', channel=4, note=31, velocity=100, time=0),
    Message('note_off', channel=4, note=31, velocity=100, time=96),
    Message('note_on', channel=4, note=31, velocity=100, time=0),
    Message('note_off', channel=4, note=31, velocity=100, time=96),
    Message('note_on', channel=4, note=31, velocity=100, time=0),
    Message('note_off', channel=4, note=31, velocity=100, time=96),
    Message('note_on', channel=4, note=31, velocity=100, time=0),
    Message('note_off', channel=4, note=31, velocity=100, time=96),
    Message('note_on', channel=4, note=36, velocity=100, time=0),
    Message('note_off', channel=4, note=36, velocity=100, time=192),
    Message('note_on', channel=4, note=36, velocity=100, time=0),
    Message('note_off', channel=4, note=36, velocity=100, time=96),
    Message('note_on', channel=4, note=36, velocity=100, time=0),
    Message('note_off', channel=4, note=36, velocity=100, time=96),
    Message('note_on', channel=4, note=36, velocity=100, time=0),
    Message('note_off', channel=4, note=36, velocity=100, time=96),
    Message('note_on', channel=4, note=36, velocity=100, time=0),
    Message('note_off', channel=4, note=36, velocity=100, time=96),
    Message('note_on', channel=4, note=36, velocity=100, time=0),
    Message('note_off', channel=4, note=36, velocity=100, time=96),
    Message('note_on', channel=4, note=36, velocity=100, time=0),
    Message('note_off', channel=4, note=36, velocity=100, time=96),
    Message('note_on', channel=4, note=36, velocity=100, time=0),
    Message('note_off', channel=4, note=36, velocity=100, time=96),
    Message('note_on', channel=4, note=36, velocity=100, time=0),
    Message('note_off', channel=4, note=36, velocity=100, time=96),
    Message('note_on', channel=4, note=36, velocity=100, time=0),
    Message('note_off', channel=4, note=36, velocity=100, time=96),
    Message('note_on', channel=4, note=36, velocity=100, time=0),
    Message('note_off', channel=4, note=36, velocity=100, time=96),
    Message('note_on', channel=4, note=36, velocity=100, time=0),
    Message('note_off', channel=4, note=36, velocity=100, time=96),
    Message('note_on', channel=4, note=36, velocity=100, time=0),
    Message('note_off', channel=4, note=36, velocity=100, time=96),
    Message('note_on', channel=4, note=36, velocity=100, time=0),
    Message('note_off', channel=4, note=36, velocity=100, time=96),
    Message('note_on', channel=4, note=36, velocity=100, time=0),
    Message('note_off', channel=4, note=36, velocity=100, time=96),
    Message('note_on', channel=4, note=33, velocity=100, time=0),
    Message('note_off', channel=4, note=33, velocity=100, time=192),
    Message('note_on', channel=4, note=33, velocity=100, time=0),
    Message('note_off', channel=4, note=33, velocity=100, time=96),
    Message('note_on', channel=4, note=33, velocity=100, time=0),
    Message('note_off', channel=4, note=33, velocity=100, time=96),
    Message('note_on', channel=4, note=33, velocity=100, time=0),
    Message('note_off', channel=4, note=33, velocity=100, time=96),
    Message('note_on', channel=4, note=38, velocity=100, time=0),
    Message('note_off', channel=4, note=38, velocity=100, time=96),
    Message('note_on', channel=4, note=39, velocity=100, time=0),
    Message('note_off', channel=4, note=39, velocity=100, time=96),
    Message('note_on', channel=4, note=40, velocity=100, time=0),
    Message('note_off', channel=4, note=40, velocity=100, time=96),
    Message('note_on', channel=4, note=45, velocity=100, time=0),
    Message('note_off', channel=4, note=45, velocity=100, time=192),
    Message('note_on', channel=4, note=43, velocity=100, time=0),
    Message('note_off', channel=4, note=43, velocity=100, time=96),
    Message('note_on', channel=4, note=40, velocity=100, time=0),
    Message('note_off', channel=4, note=40, velocity=100, time=96),
    Message('note_on', channel=4, note=39, velocity=100, time=0),
    Message('note_off', channel=4, note=39, velocity=100, time=96),
    Message('note_on', channel=4, note=38, velocity=100, time=0),
    Message('note_off', channel=4, note=38, velocity=100, time=96),
    Message('note_on', channel=4, note=29, velocity=100, time=0),
    Message('note_off', channel=4, note=29, velocity=100, time=96),
    Message('note_on', channel=4, note=31, velocity=100, time=0),
    Message('note_off', channel=4, note=31, velocity=100, time=96),
    Message('note_on', channel=4, note=29, velocity=100, time=0),
    Message('note_off', channel=4, note=29, velocity=100, time=96),
    Message('note_on', channel=4, note=29, velocity=100, time=0),
    Message('note_off', channel=4, note=29, velocity=100, time=96),
    Message('note_on', channel=4, note=28, velocity=100, time=0),
    Message('note_off', channel=4, note=28, velocity=100, time=96),
    Message('note_on', channel=4, note=28, velocity=100, time=0),
    Message('note_off', channel=4, note=28, velocity=100, time=96),
    Message('note_on', channel=4, note=28, velocity=100, time=0),
    Message('note_off', channel=4, note=28, velocity=100, time=96),
    Message('note_on', channel=4, note=28, velocity=100, time=0),
    Message('note_off', channel=4, note=28, velocity=100, time=96),
    Message('note_on', channel=4, note=28, velocity=100, time=0),
    Message('note_off', channel=4, note=28, velocity=100, time=96),
    Message('note_on', channel=4, note=28, velocity=100, time=0),
    Message('note_off', channel=4, note=28, velocity=100, time=96),
    Message('note_on', channel=4, note=28, velocity=100, time=0),
    Message('note_off', channel=4, note=28, velocity=100, time=96),
    Message('note_on', channel=4, note=29, velocity=100, time=0),
    Message('note_off', channel=4, note=29, velocity=100, time=96),
    Message('note_on', channel=4, note=28, velocity=100, time=0),
    Message('note_off', channel=4, note=28, velocity=100, time=96),
    Message('note_on', channel=4, note=28, velocity=100, time=0),
    Message('note_off', channel=4, note=28, velocity=100, time=96),
    Message('note_on', channel=4, note=28, velocity=100, time=0),
    Message('note_off', channel=4, note=28, velocity=100, time=96),
    Message('note_on', channel=4, note=28, velocity=100, time=0),
    Message('note_off', channel=4, note=28, velocity=100, time=96),
    Message('note_on', channel=4, note=29, velocity=100, time=0),
    Message('note_off', channel=4, note=29, velocity=100, time=96),
    Message('note_on', channel=4, note=31, velocity=100, time=0),
    Message('note_off', channel=4, note=31, velocity=100, time=96),
    Message('note_on', channel=4, note=29, velocity=100, time=0),
    Message('note_off', channel=4, note=29, velocity=100, time=96),
    Message('note_on', channel=4, note=29, velocity=100, time=0),
    Message('note_off', channel=4, note=29, velocity=100, time=96),
    Message('note_on', channel=4, note=28, velocity=100, time=0),
    Message('note_off', channel=4, note=28, velocity=100, time=96),
    Message('note_on', channel=4, note=28, velocity=100, time=0),
    Message('note_off', channel=4, note=28, velocity=100, time=96),
    Message('note_on', channel=4, note=28, velocity=100, time=0),
    Message('note_off', channel=4, note=28, velocity=100, time=96),
    Message('note_on', channel=4, note=28, velocity=100, time=0),
    Message('note_off', channel=4, note=28, velocity=100, time=96),
    Message('note_on', channel=4, note=28, velocity=100, time=0),
    Message('note_off', channel=4, note=28, velocity=100, time=96),
    Message('note_on', channel=4, note=28, velocity=100, time=0),
    Message('note_off', channel=4, note=28, velocity=100, time=96),
    Message('note_on', channel=4, note=28, velocity=100, time=0),
    Message('note_off', channel=4, note=28, velocity=100, time=96),
    Message('note_on', channel=4, note=28, velocity=100, time=0),
    Message('note_off', channel=4, note=28, velocity=100, time=96),
    Message('note_on', channel=4, note=28, velocity=100, time=0),
    Message('note_off', channel=4, note=28, velocity=100, time=96),
    Message('note_on', channel=4, note=28, velocity=100, time=0),
    Message('note_off', channel=4, note=28, velocity=100, time=96),
    Message('note_on', channel=4, note=28, velocity=100, time=0),
    Message('note_off', channel=4, note=28, velocity=100, time=96),
    Message('note_on', channel=4, note=28, velocity=100, time=0),
    Message('note_off', channel=4, note=28, velocity=100, time=96),
    Message('note_on', channel=4, note=28, velocity=100, time=0),
    Message('note_off', channel=4, note=28, velocity=100, time=96),
    Message('note_on', channel=4, note=28, velocity=100, time=0),
    Message('note_off', channel=4, note=28, velocity=100, time=96),
    Message('note_on', channel=4, note=28, velocity=100, time=0),
    Message('note_off', channel=4, note=28, velocity=100, time=96),
    Message('note_on', channel=4, note=29, velocity=100, time=0),
    Message('note_off', channel=4, note=29, velocity=100, time=96),
    Message('note_on', channel=4, note=28, velocity=100, time=0),
    Message('note_off', channel=4, note=28, velocity=100, time=96),
    Message('note_on', channel=4, note=28, velocity=100, time=0),
    Message('note_off', channel=4, note=28, velocity=100, time=96),
    Message('note_on', channel=4, note=28, velocity=100, time=0),
    Message('note_off', channel=4, note=28, velocity=100, time=96),
    Message('note_on', channel=4, note=28, velocity=100, time=0),
    Message('note_off', channel=4, note=28, velocity=100, time=96),
    Message('note_on', channel=4, note=28, velocity=100, time=0),
    Message('note_off', channel=4, note=28, velocity=100, time=96),
    Message('note_on', channel=4, note=28, velocity=100, time=0),
    Message('note_off', channel=4, note=28, velocity=100, time=96),
    Message('note_on', channel=4, note=28, velocity=100, time=0),
    Message('note_off', channel=4, note=28, velocity=100, time=96),
    Message('note_on', channel=4, note=29, velocity=100, time=0),
    Message('note_off', channel=4, note=29, velocity=100, time=96),
    Message('note_on', channel=4, note=28, velocity=100, time=0),
    Message('note_off', channel=4, note=28, velocity=100, time=96),
    Message('note_on', channel=4, note=28, velocity=100, time=0),
    Message('note_off', channel=4, note=28, velocity=100, time=96),
    Message('note_on', channel=4, note=28, velocity=100, time=0),
    Message('note_off', channel=4, note=28, velocity=100, time=96),
    Message('note_on', channel=4, note=28, velocity=100, time=0),
    Message('note_off', channel=4, note=28, velocity=100, time=96),
    Message('note_on', channel=4, note=29, velocity=100, time=0),
    Message('note_off', channel=4, note=29, velocity=100, time=96),
    Message('note_on', channel=4, note=31, velocity=100, time=0),
    Message('note_off', channel=4, note=31, velocity=100, time=96),
    Message('note_on', channel=4, note=29, velocity=100, time=0),
    Message('note_off', channel=4, note=29, velocity=100, time=96),
    Message('note_on', channel=4, note=29, velocity=100, time=0),
    Message('note_off', channel=4, note=29, velocity=100, time=96),
    Message('note_on', channel=4, note=28, velocity=100, time=0),
    Message('note_off', channel=4, note=28, velocity=100, time=96),
    Message('note_on', channel=4, note=28, velocity=100, time=0),
    Message('note_off', channel=4, note=28, velocity=100, time=96),
    Message('note_on', channel=4, note=28, velocity=100, time=0),
    Message('note_off', channel=4, note=28, velocity=100, time=96),
    Message('note_on', channel=4, note=28, velocity=100, time=0),
    Message('note_off', channel=4, note=28, velocity=100, time=96),
    Message('note_on', channel=4, note=28, velocity=100, time=0),
    Message('note_off', channel=4, note=28, velocity=100, time=96),
    Message('note_on', channel=4, note=28, velocity=100, time=0),
    Message('note_off', channel=4, note=28, velocity=100, time=96),
    Message('note_on', channel=4, note=28, velocity=100, time=0),
    Message('note_off', channel=4, note=28, velocity=100, time=96),
    Message('note_on', channel=4, note=28, velocity=100, time=0),
    Message('note_off', channel=4, note=28, velocity=100, time=96),
    Message('note_on', channel=4, note=28, velocity=100, time=0),
    Message('note_off', channel=4, note=28, velocity=100, time=96),
    Message('note_on', channel=4, note=28, velocity=100, time=0),
    Message('note_off', channel=4, note=28, velocity=100, time=96),
    Message('note_on', channel=4, note=28, velocity=100, time=0),
    Message('note_off', channel=4, note=28, velocity=100, time=96),
    Message('note_on', channel=4, note=28, velocity=100, time=0),
    Message('note_off', channel=4, note=28, velocity=100, time=96),
    Message('note_on', channel=4, note=28, velocity=100, time=0),
    Message('note_off', channel=4, note=28, velocity=100, time=96),
    Message('note_on', channel=4, note=28, velocity=100, time=0),
    Message('note_off', channel=4, note=28, velocity=100, time=96),
    Message('note_on', channel=4, note=28, velocity=100, time=0),
    Message('note_off', channel=4, note=28, velocity=100, time=96),
    Message('note_on', channel=4, note=29, velocity=100, time=0),
    Message('note_off', channel=4, note=29, velocity=100, time=96),
    Message('note_on', channel=4, note=28, velocity=100, time=0),
    Message('note_off', channel=4, note=28, velocity=100, time=96),
    Message('note_on', channel=4, note=28, velocity=100, time=0),
    Message('note_off', channel=4, note=28, velocity=100, time=96),
    Message('note_on', channel=4, note=28, velocity=100, time=0),
    Message('note_off', channel=4, note=28, velocity=100, time=96),
    Message('note_on', channel=4, note=28, velocity=100, time=0),
    Message('note_off', channel=4, note=28, velocity=100, time=96),
    Message('note_on', channel=4, note=28, velocity=100, time=0),
    Message('note_off', channel=4, note=28, velocity=100, time=96),
    Message('note_on', channel=4, note=28, velocity=100, time=0),
    Message('note_off', channel=4, note=28, velocity=100, time=96),
    Message('note_on', channel=4, note=28, velocity=100, time=0),
    Message('note_off', channel=4, note=28, velocity=100, time=96),
    Message('note_on', channel=4, note=29, velocity=100, time=0),
    Message('note_off', channel=4, note=29, velocity=100, time=96),
    Message('note_on', channel=4, note=28, velocity=100, time=0),
    Message('note_off', channel=4, note=28, velocity=100, time=96),
    Message('note_on', channel=4, note=28, velocity=100, time=0),
    Message('note_off', channel=4, note=28, velocity=100, time=96),
    Message('note_on', channel=4, note=28, velocity=100, time=0),
    Message('note_off', channel=4, note=28, velocity=100, time=96),
    Message('note_on', channel=4, note=28, velocity=100, time=0),
    Message('note_off', channel=4, note=28, velocity=100, time=96),
    Message('note_on', channel=4, note=29, velocity=100, time=0),
    Message('note_off', channel=4, note=29, velocity=100, time=96),
    Message('note_on', channel=4, note=31, velocity=100, time=0),
    Message('note_off', channel=4, note=31, velocity=100, time=96),
    Message('note_on', channel=4, note=29, velocity=100, time=0),
    Message('note_off', channel=4, note=29, velocity=100, time=96),
    Message('note_on', channel=4, note=29, velocity=100, time=0),
    Message('note_off', channel=4, note=29, velocity=100, time=96),
    Message('note_on', channel=4, note=28, velocity=100, time=0),
    Message('note_off', channel=4, note=28, velocity=100, time=96),
    Message('note_on', channel=4, note=28, velocity=100, time=0),
    Message('note_off', channel=4, note=28, velocity=100, time=96),
    Message('note_on', channel=4, note=28, velocity=100, time=0),
    Message('note_off', channel=4, note=28, velocity=100, time=96),
    Message('note_on', channel=4, note=28, velocity=100, time=0),
    Message('note_off', channel=4, note=28, velocity=100, time=96),
    Message('note_on', channel=4, note=28, velocity=100, time=0),
    Message('note_off', channel=4, note=28, velocity=100, time=96),
    Message('note_on', channel=4, note=28, velocity=100, time=0),
    Message('note_off', channel=4, note=28, velocity=100, time=96),
    Message('note_on', channel=4, note=28, velocity=100, time=0),
    Message('note_off', channel=4, note=28, velocity=100, time=96),
    Message('note_on', channel=4, note=28, velocity=100, time=0),
    Message('note_off', channel=4, note=28, velocity=100, time=96),
    Message('note_on', channel=4, note=28, velocity=100, time=0),
    Message('note_off', channel=4, note=28, velocity=100, time=96),
    Message('note_on', channel=4, note=28, velocity=100, time=0),
    Message('note_off', channel=4, note=28, velocity=100, time=96),
    Message('note_on', channel=4, note=28, velocity=100, time=0),
    Message('note_off', channel=4, note=28, velocity=100, time=96),
    Message('note_on', channel=4, note=28, velocity=100, time=0),
    Message('note_off', channel=4, note=28, velocity=100, time=96),
    Message('note_on', channel=4, note=28, velocity=100, time=0),
    Message('note_off', channel=4, note=28, velocity=100, time=96),
    Message('note_on', channel=4, note=28, velocity=100, time=0),
    Message('note_off', channel=4, note=28, velocity=100, time=96),
    Message('note_on', channel=4, note=28, velocity=100, time=0),
    Message('note_off', channel=4, note=28, velocity=100, time=96),
    Message('note_on', channel=4, note=29, velocity=100, time=0),
    Message('note_off', channel=4, note=29, velocity=100, time=96),
    Message('note_on', channel=4, note=28, velocity=100, time=0),
    Message('note_off', channel=4, note=28, velocity=100, time=96),
    Message('note_on', channel=4, note=28, velocity=100, time=0),
    Message('note_off', channel=4, note=28, velocity=100, time=96),
    Message('note_on', channel=4, note=28, velocity=100, time=0),
    Message('note_off', channel=4, note=28, velocity=100, time=96),
    Message('note_on', channel=4, note=28, velocity=100, time=0),
    Message('note_off', channel=4, note=28, velocity=100, time=96),
    Message('note_on', channel=4, note=28, velocity=100, time=0),
    Message('note_off', channel=4, note=28, velocity=100, time=96),
    Message('note_on', channel=4, note=28, velocity=100, time=0),
    Message('note_off', channel=4, note=28, velocity=100, time=96),
    Message('note_on', channel=4, note=28, velocity=100, time=0),
    Message('note_off', channel=4, note=28, velocity=100, time=96),
    Message('note_on', channel=4, note=29, velocity=100, time=0),
    Message('note_off', channel=4, note=29, velocity=100, time=96),
    Message('note_on', channel=4, note=28, velocity=100, time=0),
    Message('note_off', channel=4, note=28, velocity=100, time=96),
    Message('note_on', channel=4, note=28, velocity=100, time=0),
    Message('note_off', channel=4, note=28, velocity=100, time=96),
    Message('note_on', channel=4, note=28, velocity=100, time=0),
    Message('note_off', channel=4, note=28, velocity=100, time=96),
    Message('note_on', channel=4, note=28, velocity=100, time=0),
    Message('note_off', channel=4, note=28, velocity=100, time=96),
    Message('note_on', channel=4, note=29, velocity=100, time=0),
    Message('note_off', channel=4, note=29, velocity=100, time=96),
    Message('note_on', channel=4, note=31, velocity=100, time=0),
    Message('note_off', channel=4, note=31, velocity=100, time=96),
    Message('note_on', channel=4, note=29, velocity=100, time=0),
    Message('note_off', channel=4, note=29, velocity=100, time=96),
    Message('note_on', channel=4, note=29, velocity=100, time=0),
    Message('note_off', channel=4, note=29, velocity=100, time=96),
    Message('note_on', channel=4, note=28, velocity=100, time=0),
    Message('note_off', channel=4, note=28, velocity=100, time=96),
    Message('note_on', channel=4, note=28, velocity=100, time=0),
    Message('note_off', channel=4, note=28, velocity=100, time=96),
    Message('note_on', channel=4, note=28, velocity=100, time=0),
    Message('note_off', channel=4, note=28, velocity=100, time=96),
    Message('note_on', channel=4, note=28, velocity=100, time=0),
    Message('note_off', channel=4, note=28, velocity=100, time=96),
    Message('note_on', channel=4, note=28, velocity=100, time=0),
    Message('note_off', channel=4, note=28, velocity=100, time=96),
    Message('note_on', channel=4, note=28, velocity=100, time=0),
    Message('note_off', channel=4, note=28, velocity=100, time=96),
    Message('note_on', channel=4, note=28, velocity=100, time=0),
    Message('note_off', channel=4, note=28, velocity=100, time=96),
    Message('note_on', channel=4, note=28, velocity=100, time=0),
    Message('note_off', channel=4, note=28, velocity=100, time=96),
    Message('note_on', channel=4, note=28, velocity=100, time=0),
    Message('note_off', channel=4, note=28, velocity=100, time=96),
    Message('note_on', channel=4, note=28, velocity=100, time=0),
    Message('note_off', channel=4, note=28, velocity=100, time=96),
    Message('note_on', channel=4, note=28, velocity=100, time=0),
    Message('note_off', channel=4, note=28, velocity=100, time=96),
    Message('note_on', channel=4, note=28, velocity=100, time=0),
    Message('note_off', channel=4, note=28, velocity=100, time=96),
    Message('note_on', channel=4, note=28, velocity=100, time=0),
    Message('note_off', channel=4, note=28, velocity=100, time=96),
    Message('note_on', channel=4, note=28, velocity=100, time=0),
    Message('note_off', channel=4, note=28, velocity=100, time=96),
    Message('note_on', channel=4, note=28, velocity=100, time=0),
    Message('note_off', channel=4, note=28, velocity=100, time=96),
    Message('note_on', channel=4, note=28, velocity=100, time=0),
    Message('note_off', channel=4, note=28, velocity=100, time=96),
    Message('note_on', channel=4, note=28, velocity=100, time=0),
    Message('note_off', channel=4, note=28, velocity=100, time=96),
    Message('note_on', channel=4, note=28, velocity=100, time=0),
    Message('note_off', channel=4, note=28, velocity=100, time=96),
    Message('note_on', channel=4, note=28, velocity=100, time=0),
    Message('note_off', channel=4, note=28, velocity=100, time=96),
    Message('note_on', channel=4, note=28, velocity=100, time=0),
    Message('note_off', channel=4, note=28, velocity=100, time=96),
    Message('note_on', channel=4, note=28, velocity=100, time=0),
    Message('note_off', channel=4, note=28, velocity=100, time=96),
    Message('note_on', channel=4, note=28, velocity=100, time=0),
    Message('note_off', channel=4, note=28, velocity=100, time=96),
    Message('note_on', channel=4, note=28, velocity=100, time=0),
    Message('note_off', channel=4, note=28, velocity=100, time=96),
    Message('note_on', channel=4, note=28, velocity=100, time=0),
    Message('note_off', channel=4, note=28, velocity=100, time=96),
    Message('note_on', channel=4, note=28, velocity=100, time=0),
    Message('note_off', channel=4, note=28, velocity=100, time=96),
    Message('note_on', channel=4, note=28, velocity=100, time=0),
    Message('note_off', channel=4, note=28, velocity=100, time=96),
    Message('note_on', channel=4, note=28, velocity=100, time=0),
    Message('note_off', channel=4, note=28, velocity=100, time=96),
    Message('note_on', channel=4, note=28, velocity=100, time=0),
    Message('note_off', channel=4, note=28, velocity=100, time=96),
    Message('note_on', channel=4, note=28, velocity=100, time=0),
    Message('note_off', channel=4, note=28, velocity=100, time=96),
    Message('note_on', channel=4, note=28, velocity=100, time=0),
    Message('note_off', channel=4, note=28, velocity=100, time=96),
    Message('note_on', channel=4, note=31, velocity=100, time=0),
    Message('note_off', channel=4, note=31, velocity=100, time=192),
    Message('note_on', channel=4, note=31, velocity=100, time=0),
    Message('note_off', channel=4, note=31, velocity=100, time=96),
    Message('note_on', channel=4, note=31, velocity=100, time=0),
    Message('note_off', channel=4, note=31, velocity=100, time=96),
    Message('note_on', channel=4, note=31, velocity=100, time=0),
    Message('note_off', channel=4, note=31, velocity=100, time=96),
    Message('note_on', channel=4, note=31, velocity=100, time=0),
    Message('note_off', channel=4, note=31, velocity=100, time=96),
    Message('note_on', channel=4, note=31, velocity=100, time=0),
    Message('note_off', channel=4, note=31, velocity=100, time=96),
    Message('note_on', channel=4, note=31, velocity=100, time=0),
    Message('note_off', channel=4, note=31, velocity=100, time=96),
    Message('note_on', channel=4, note=31, velocity=100, time=0),
    Message('note_off', channel=4, note=31, velocity=100, time=96),
    Message('note_on', channel=4, note=31, velocity=100, time=0),
    Message('note_off', channel=4, note=31, velocity=100, time=96),
    Message('note_on', channel=4, note=31, velocity=100, time=0),
    Message('note_off', channel=4, note=31, velocity=100, time=96),
    Message('note_on', channel=4, note=31, velocity=100, time=0),
    Message('note_off', channel=4, note=31, velocity=100, time=96),
    Message('note_on', channel=4, note=31, velocity=100, time=0),
    Message('note_off', channel=4, note=31, velocity=100, time=96),
    Message('note_on', channel=4, note=31, velocity=100, time=0),
    Message('note_off', channel=4, note=31, velocity=100, time=96),
    Message('note_on', channel=4, note=31, velocity=100, time=0),
    Message('note_off', channel=4, note=31, velocity=100, time=96),
    Message('note_on', channel=4, note=31, velocity=100, time=0),
    Message('note_off', channel=4, note=31, velocity=100, time=96),
    Message('note_on', channel=4, note=36, velocity=100, time=0),
    Message('note_off', channel=4, note=36, velocity=100, time=192),
    Message('note_on', channel=4, note=36, velocity=100, time=0),
    Message('note_off', channel=4, note=36, velocity=100, time=96),
    Message('note_on', channel=4, note=36, velocity=100, time=0),
    Message('note_off', channel=4, note=36, velocity=100, time=96),
    Message('note_on', channel=4, note=36, velocity=100, time=0),
    Message('note_off', channel=4, note=36, velocity=100, time=96),
    Message('note_on', channel=4, note=36, velocity=100, time=0),
    Message('note_off', channel=4, note=36, velocity=100, time=96),
    Message('note_on', channel=4, note=36, velocity=100, time=0),
    Message('note_off', channel=4, note=36, velocity=100, time=96),
    Message('note_on', channel=4, note=36, velocity=100, time=0),
    Message('note_off', channel=4, note=36, velocity=100, time=96),
    Message('note_on', channel=4, note=36, velocity=100, time=0),
    Message('note_off', channel=4, note=36, velocity=100, time=96),
    Message('note_on', channel=4, note=36, velocity=100, time=0),
    Message('note_off', channel=4, note=36, velocity=100, time=96),
    Message('note_on', channel=4, note=36, velocity=100, time=0),
    Message('note_off', channel=4, note=36, velocity=100, time=96),
    Message('note_on', channel=4, note=36, velocity=100, time=0),
    Message('note_off', channel=4, note=36, velocity=100, time=96),
    Message('note_on', channel=4, note=36, velocity=100, time=0),
    Message('note_off', channel=4, note=36, velocity=100, time=96),
    Message('note_on', channel=4, note=36, velocity=100, time=0),
    Message('note_off', channel=4, note=36, velocity=100, time=96),
    Message('note_on', channel=4, note=36, velocity=100, time=0),
    Message('note_off', channel=4, note=36, velocity=100, time=96),
    Message('note_on', channel=4, note=36, velocity=100, time=0),
    Message('note_off', channel=4, note=36, velocity=100, time=96),
    Message('note_on', channel=4, note=33, velocity=100, time=0),
    Message('note_off', channel=4, note=33, velocity=100, time=192),
    Message('note_on', channel=4, note=33, velocity=100, time=0),
    Message('note_off', channel=4, note=33, velocity=100, time=96),
    Message('note_on', channel=4, note=33, velocity=100, time=0),
    Message('note_off', channel=4, note=33, velocity=100, time=96),
    Message('note_on', channel=4, note=33, velocity=100, time=0),
    Message('note_off', channel=4, note=33, velocity=100, time=96),
    Message('note_on', channel=4, note=33, velocity=100, time=0),
    Message('note_off', channel=4, note=33, velocity=100, time=96),
    Message('note_on', channel=4, note=33, velocity=100, time=0),
    Message('note_off', channel=4, note=33, velocity=100, time=96),
    Message('note_on', channel=4, note=33, velocity=100, time=0),
    Message('note_off', channel=4, note=33, velocity=100, time=96),
    Message('note_on', channel=4, note=38, velocity=100, time=0),
    Message('note_off', channel=4, note=38, velocity=100, time=192),
    Message('note_on', channel=4, note=35, velocity=100, time=0),
    Message('note_off', channel=4, note=35, velocity=100, time=96),
    Message('note_on', channel=4, note=34, velocity=100, time=0),
    Message('note_off', channel=4, note=34, velocity=100, time=96),
    Message('note_on', channel=4, note=33, velocity=100, time=0),
    Message('note_off', channel=4, note=33, velocity=100, time=96),
    Message('note_on', channel=4, note=31, velocity=100, time=0),
    Message('note_off', channel=4, note=31, velocity=100, time=96),
    Message('note_on', channel=4, note=30, velocity=100, time=0),
    Message('note_off', channel=4, note=30, velocity=100, time=96),
    Message('note_on', channel=4, note=29, velocity=100, time=0),
    Message('note_off', channel=4, note=29, velocity=100, time=96),
    Message('note_on', channel=4, note=28, velocity=100, time=0),
    Message('note_off', channel=4, note=28, velocity=100, time=192),
    Message('note_on', channel=4, note=28, velocity=100, time=0),
    Message('note_off', channel=4, note=28, velocity=100, time=96),
    Message('note_on', channel=4, note=28, velocity=100, time=0),
    Message('note_off', channel=4, note=28, velocity=100, time=96),
    Message('note_on', channel=4, note=28, velocity=100, time=0),
    Message('note_off', channel=4, note=28, velocity=100, time=96),
    Message('note_on', channel=4, note=28, velocity=100, time=0),
    Message('note_off', channel=4, note=28, velocity=100, time=96),
    Message('note_on', channel=4, note=30, velocity=100, time=0),
    Message('note_off', channel=4, note=30, velocity=100, time=96),
    Message('note_on', channel=4, note=28, velocity=100, time=0),
    Message('note_off', channel=4, note=28, velocity=100, time=96),
    Message('note_on', channel=4, note=28, velocity=100, time=0),
    Message('note_off', channel=4, note=28, velocity=100, time=96),
    Message('note_on', channel=4, note=31, velocity=100, time=0),
    Message('note_off', channel=4, note=31, velocity=100, time=96),
    Message('note_on', channel=4, note=31, velocity=100, time=0),
    Message('note_off', channel=4, note=31, velocity=100, time=96),
    Message('note_on', channel=4, note=31, velocity=100, time=0),
    Message('note_off', channel=4, note=31, velocity=100, time=96),
    Message('note_on', channel=4, note=33, velocity=100, time=0),
    Message('note_off', channel=4, note=33, velocity=100, time=96),
    Message('note_on', channel=4, note=33, velocity=100, time=0),
    Message('note_off', channel=4, note=33, velocity=100, time=96),
    Message('note_on', channel=4, note=33, velocity=100, time=0),
    Message('note_off', channel=4, note=33, velocity=100, time=96),
    Message('note_on', channel=4, note=35, velocity=100, time=0),
    Message('note_off', channel=4, note=35, velocity=100, time=96),
    Message('note_on', channel=4, note=35, velocity=100, time=0),
    Message('note_off', channel=4, note=35, velocity=100, time=96),
    Message('note_on', channel=4, note=36, velocity=100, time=0),
    Message('note_off', channel=4, note=36, velocity=100, time=96),
    Message('note_on', channel=4, note=36, velocity=100, time=0),
    Message('note_off', channel=4, note=36, velocity=100, time=96),
    Message('note_on', channel=4, note=36, velocity=100, time=0),
    Message('note_off', channel=4, note=36, velocity=100, time=96),
    Message('note_on', channel=4, note=36, velocity=100, time=0),
    Message('note_off', channel=4, note=36, velocity=100, time=96),
    Message('note_on', channel=4, note=36, velocity=100, time=0),
    Message('note_off', channel=4, note=36, velocity=100, time=96),
    Message('note_on', channel=4, note=36, velocity=100, time=0),
    Message('note_off', channel=4, note=36, velocity=100, time=96),
    Message('note_on', channel=4, note=36, velocity=100, time=0),
    Message('note_off', channel=4, note=36, velocity=100, time=96),
    Message('note_on', channel=4, note=36, velocity=100, time=0),
    Message('note_off', channel=4, note=36, velocity=100, time=96),
    Message('note_on', channel=4, note=38, velocity=100, time=0),
    Message('note_off', channel=4, note=38, velocity=100, time=96),
    Message('note_on', channel=4, note=38, velocity=100, time=0),
    Message('note_off', channel=4, note=38, velocity=100, time=96),
    Message('note_on', channel=4, note=38, velocity=100, time=0),
    Message('note_off', channel=4, note=38, velocity=100, time=96),
    Message('note_on', channel=4, note=43, velocity=100, time=0),
    Message('note_off', channel=4, note=43, velocity=100, time=96),
    Message('note_on', channel=4, note=42, velocity=100, time=0),
    Message('note_off', channel=4, note=42, velocity=100, time=96),
    Message('note_on', channel=4, note=38, velocity=100, time=0),
    Message('note_off', channel=4, note=38, velocity=100, time=96),
    Message('note_on', channel=4, note=35, velocity=100, time=0),
    Message('note_off', channel=4, note=35, velocity=100, time=192),
    Message('note_on', channel=4, note=28, velocity=100, time=0),
    Message('note_off', channel=4, note=28, velocity=100, time=96),
    Message('note_on', channel=4, note=28, velocity=100, time=0),
    Message('note_off', channel=4, note=28, velocity=100, time=96),
    Message('note_on', channel=4, note=28, velocity=100, time=0),
    Message('note_off', channel=4, note=28, velocity=100, time=96),
    Message('note_on', channel=4, note=28, velocity=100, time=0),
    Message('note_off', channel=4, note=28, velocity=100, time=96),
    Message('note_on', channel=4, note=28, velocity=100, time=0),
    Message('note_off', channel=4, note=28, velocity=100, time=96),
    Message('note_on', channel=4, note=30, velocity=100, time=0),
    Message('note_off', channel=4, note=30, velocity=100, time=96),
    Message('note_on', channel=4, note=28, velocity=100, time=0),
    Message('note_off', channel=4, note=28, velocity=100, time=96),
    Message('note_on', channel=4, note=28, velocity=100, time=0),
    Message('note_off', channel=4, note=28, velocity=100, time=96),
    Message('note_on', channel=4, note=31, velocity=100, time=0),
    Message('note_off', channel=4, note=31, velocity=100, time=96),
    Message('note_on', channel=4, note=31, velocity=100, time=0),
    Message('note_off', channel=4, note=31, velocity=100, time=96),
    Message('note_on', channel=4, note=31, velocity=100, time=0),
    Message('note_off', channel=4, note=31, velocity=100, time=96),
    Message('note_on', channel=4, note=33, velocity=100, time=0),
    Message('note_off', channel=4, note=33, velocity=100, time=96),
    Message('note_on', channel=4, note=33, velocity=100, time=0),
    Message('note_off', channel=4, note=33, velocity=100, time=96),
    Message('note_on', channel=4, note=33, velocity=100, time=0),
    Message('note_off', channel=4, note=33, velocity=100, time=96),
    Message('note_on', channel=4, note=35, velocity=100, time=0),
    Message('note_off', channel=4, note=35, velocity=100, time=96),
    Message('note_on', channel=4, note=35, velocity=100, time=0),
    Message('note_off', channel=4, note=35, velocity=100, time=96),
    Message('note_on', channel=4, note=36, velocity=100, time=0),
    Message('note_off', channel=4, note=36, velocity=100, time=96),
    Message('note_on', channel=4, note=36, velocity=100, time=0),
    Message('note_off', channel=4, note=36, velocity=100, time=96),
    Message('note_on', channel=4, note=36, velocity=100, time=0),
    Message('note_off', channel=4, note=36, velocity=100, time=96),
    Message('note_on', channel=4, note=36, velocity=100, time=0),
    Message('note_off', channel=4, note=36, velocity=100, time=96),
    Message('note_on', channel=4, note=36, velocity=100, time=0),
    Message('note_off', channel=4, note=36, velocity=100, time=96),
    Message('note_on', channel=4, note=36, velocity=100, time=0),
    Message('note_off', channel=4, note=36, velocity=100, time=96),
    Message('note_on', channel=4, note=36, velocity=100, time=0),
    Message('note_off', channel=4, note=36, velocity=100, time=96),
    Message('note_on', channel=4, note=36, velocity=100, time=0),
    Message('note_off', channel=4, note=36, velocity=100, time=96),
    Message('note_on', channel=4, note=38, velocity=100, time=0),
    Message('note_off', channel=4, note=38, velocity=100, time=96),
    Message('note_on', channel=4, note=38, velocity=100, time=0),
    Message('note_off', channel=4, note=38, velocity=100, time=96),
    Message('note_on', channel=4, note=38, velocity=100, time=0),
    Message('note_off', channel=4, note=38, velocity=100, time=96),
    Message('note_on', channel=4, note=38, velocity=100, time=0),
    Message('note_off', channel=4, note=38, velocity=100, time=96),
    Message('note_on', channel=4, note=38, velocity=120, time=0),
    Message('note_off', channel=4, note=38, velocity=120, time=300),
    Message('note_on', channel=4, note=38, velocity=100, time=0),
    Message('note_off', channel=4, note=38, velocity=100, time=1),
    Message('note_on', channel=4, note=37, velocity=100, time=11),
    Message('note_off', channel=4, note=37, velocity=100, time=1),
    Message('note_on', channel=4, note=36, velocity=100, time=11),
    Message('note_off', channel=4, note=36, velocity=100, time=1),
    Message('note_on', channel=4, note=35, velocity=100, time=11),
    Message('note_off', channel=4, note=35, velocity=100, time=1),
    Message('note_on', channel=4, note=34, velocity=100, time=11),
    Message('note_off', channel=4, note=34, velocity=100, time=1),
    Message('note_on', channel=4, note=33, velocity=100, time=11),
    Message('note_off', channel=4, note=33, velocity=100, time=1),
    Message('note_on', channel=4, note=32, velocity=100, time=11),
    Message('note_off', channel=4, note=32, velocity=100, time=1),
    Message('note_on', channel=4, note=28, velocity=100, time=11),
    Message('note_off', channel=4, note=28, velocity=100, time=96),
    Message('note_on', channel=4, note=28, velocity=100, time=0),
    Message('note_off', channel=4, note=28, velocity=100, time=96),
    Message('note_on', channel=4, note=28, velocity=100, time=0),
    Message('note_off', channel=4, note=28, velocity=100, time=96),
    Message('note_on', channel=4, note=28, velocity=100, time=0),
    Message('note_off', channel=4, note=28, velocity=100, time=96),
    Message('note_on', channel=4, note=28, velocity=100, time=0),
    Message('note_off', channel=4, note=28, velocity=100, time=96),
    Message('note_on', channel=4, note=30, velocity=100, time=0),
    Message('note_off', channel=4, note=30, velocity=100, time=96),
    Message('note_on', channel=4, note=28, velocity=100, time=0),
    Message('note_off', channel=4, note=28, velocity=100, time=96),
    Message('note_on', channel=4, note=28, velocity=100, time=0),
    Message('note_off', channel=4, note=28, velocity=100, time=96),
    Message('note_on', channel=4, note=31, velocity=100, time=0),
    Message('note_off', channel=4, note=31, velocity=100, time=96),
    Message('note_on', channel=4, note=31, velocity=100, time=0),
    Message('note_off', channel=4, note=31, velocity=100, time=96),
    Message('note_on', channel=4, note=31, velocity=100, time=0),
    Message('note_off', channel=4, note=31, velocity=100, time=96),
    Message('note_on', channel=4, note=33, velocity=100, time=0),
    Message('note_off', channel=4, note=33, velocity=100, time=96),
    Message('note_on', channel=4, note=33, velocity=100, time=0),
    Message('note_off', channel=4, note=33, velocity=100, time=96),
    Message('note_on', channel=4, note=33, velocity=100, time=0),
    Message('note_off', channel=4, note=33, velocity=100, time=96),
    Message('note_on', channel=4, note=35, velocity=100, time=0),
    Message('note_off', channel=4, note=35, velocity=100, time=96),
    Message('note_on', channel=4, note=35, velocity=100, time=0),
    Message('note_off', channel=4, note=35, velocity=100, time=96),
    Message('note_on', channel=4, note=36, velocity=100, time=0),
    Message('note_off', channel=4, note=36, velocity=100, time=96),
    Message('note_on', channel=4, note=36, velocity=100, time=0),
    Message('note_off', channel=4, note=36, velocity=100, time=96),
    Message('note_on', channel=4, note=36, velocity=100, time=0),
    Message('note_off', channel=4, note=36, velocity=100, time=96),
    Message('note_on', channel=4, note=36, velocity=100, time=0),
    Message('note_off', channel=4, note=36, velocity=100, time=96),
    Message('note_on', channel=4, note=36, velocity=100, time=0),
    Message('note_off', channel=4, note=36, velocity=100, time=96),
    Message('note_on', channel=4, note=36, velocity=100, time=0),
    Message('note_off', channel=4, note=36, velocity=100, time=96),
    Message('note_on', channel=4, note=36, velocity=100, time=0),
    Message('note_off', channel=4, note=36, velocity=100, time=96),
    Message('note_on', channel=4, note=36, velocity=100, time=0),
    Message('note_off', channel=4, note=36, velocity=100, time=96),
    Message('note_on', channel=4, note=38, velocity=100, time=0),
    Message('note_off', channel=4, note=38, velocity=100, time=96),
    Message('note_on', channel=4, note=38, velocity=100, time=0),
    Message('note_off', channel=4, note=38, velocity=100, time=96),
    Message('note_on', channel=4, note=38, velocity=100, time=0),
    Message('note_off', channel=4, note=38, velocity=100, time=96),
    Message('note_on', channel=4, note=43, velocity=100, time=0),
    Message('note_off', channel=4, note=43, velocity=100, time=96),
    Message('note_on', channel=4, note=42, velocity=100, time=0),
    Message('note_off', channel=4, note=42, velocity=100, time=96),
    Message('note_on', channel=4, note=38, velocity=100, time=0),
    Message('note_off', channel=4, note=38, velocity=100, time=96),
    Message('note_on', channel=4, note=35, velocity=100, time=0),
    Message('note_off', channel=4, note=35, velocity=100, time=192),
    Message('note_on', channel=4, note=28, velocity=100, time=0),
    Message('note_off', channel=4, note=28, velocity=100, time=96),
    Message('note_on', channel=4, note=28, velocity=100, time=0),
    Message('note_off', channel=4, note=28, velocity=100, time=96),
    Message('note_on', channel=4, note=28, velocity=100, time=0),
    Message('note_off', channel=4, note=28, velocity=100, time=96),
    Message('note_on', channel=4, note=28, velocity=100, time=0),
    Message('note_off', channel=4, note=28, velocity=100, time=96),
    Message('note_on', channel=4, note=28, velocity=100, time=0),
    Message('note_off', channel=4, note=28, velocity=100, time=96),
    Message('note_on', channel=4, note=30, velocity=100, time=0),
    Message('note_off', channel=4, note=30, velocity=100, time=96),
    Message('note_on', channel=4, note=28, velocity=100, time=0),
    Message('note_off', channel=4, note=28, velocity=100, time=96),
    Message('note_on', channel=4, note=28, velocity=100, time=0),
    Message('note_off', channel=4, note=28, velocity=100, time=96),
    Message('note_on', channel=4, note=31, velocity=100, time=0),
    Message('note_off', channel=4, note=31, velocity=100, time=96),
    Message('note_on', channel=4, note=31, velocity=100, time=0),
    Message('note_off', channel=4, note=31, velocity=100, time=96),
    Message('note_on', channel=4, note=31, velocity=100, time=0),
    Message('note_off', channel=4, note=31, velocity=100, time=96),
    Message('note_on', channel=4, note=33, velocity=100, time=0),
    Message('note_off', channel=4, note=33, velocity=100, time=96),
    Message('note_on', channel=4, note=33, velocity=100, time=0),
    Message('note_off', channel=4, note=33, velocity=100, time=96),
    Message('note_on', channel=4, note=33, velocity=100, time=0),
    Message('note_off', channel=4, note=33, velocity=100, time=96),
    Message('note_on', channel=4, note=35, velocity=100, time=0),
    Message('note_off', channel=4, note=35, velocity=100, time=96),
    Message('note_on', channel=4, note=35, velocity=100, time=0),
    Message('note_off', channel=4, note=35, velocity=100, time=96),
    Message('note_on', channel=4, note=36, velocity=100, time=0),
    Message('note_off', channel=4, note=36, velocity=100, time=192),
    Message('note_on', channel=4, note=36, velocity=100, time=0),
    Message('note_off', channel=4, note=36, velocity=100, time=96),
    Message('note_on', channel=4, note=36, velocity=100, time=0),
    Message('note_off', channel=4, note=36, velocity=100, time=96),
    Message('note_on', channel=4, note=36, velocity=100, time=0),
    Message('note_off', channel=4, note=36, velocity=100, time=96),
    Message('note_on', channel=4, note=36, velocity=100, time=0),
    Message('note_off', channel=4, note=36, velocity=100, time=96),
    Message('note_on', channel=4, note=36, velocity=100, time=0),
    Message('note_off', channel=4, note=36, velocity=100, time=96),
    Message('note_on', channel=4, note=36, velocity=100, time=0),
    Message('note_off', channel=4, note=36, velocity=100, time=96),
    Message('note_on', channel=4, note=38, velocity=100, time=0),
    Message('note_off', channel=4, note=38, velocity=100, time=96),
    Message('note_on', channel=4, note=38, velocity=100, time=0),
    Message('note_off', channel=4, note=38, velocity=100, time=96),
    Message('note_on', channel=4, note=38, velocity=100, time=0),
    Message('note_off', channel=4, note=38, velocity=100, time=96),
    Message('note_on', channel=4, note=43, velocity=100, time=0),
    Message('note_off', channel=4, note=43, velocity=100, time=96),
    Message('note_on', channel=4, note=42, velocity=100, time=0),
    Message('note_off', channel=4, note=42, velocity=100, time=96),
    Message('note_on', channel=4, note=38, velocity=100, time=0),
    Message('note_off', channel=4, note=38, velocity=100, time=96),
    Message('note_on', channel=4, note=35, velocity=100, time=0),
    Message('note_off', channel=4, note=35, velocity=100, time=192),
    Message('note_on', channel=4, note=36, velocity=100, time=0),
    Message('note_off', channel=4, note=36, velocity=100, time=192),
    Message('note_on', channel=4, note=36, velocity=100, time=0),
    Message('note_off', channel=4, note=36, velocity=100, time=96),
    Message('note_on', channel=4, note=36, velocity=100, time=0),
    Message('note_off', channel=4, note=36, velocity=100, time=96),
    Message('note_on', channel=4, note=36, velocity=100, time=0),
    Message('note_off', channel=4, note=36, velocity=100, time=96),
    Message('note_on', channel=4, note=36, velocity=100, time=0),
    Message('note_off', channel=4, note=36, velocity=100, time=96),
    Message('note_on', channel=4, note=36, velocity=100, time=0),
    Message('note_off', channel=4, note=36, velocity=100, time=96),
    Message('note_on', channel=4, note=36, velocity=100, time=0),
    Message('note_off', channel=4, note=36, velocity=100, time=96),
    Message('note_on', channel=4, note=38, velocity=100, time=0),
    Message('note_off', channel=4, note=38, velocity=100, time=96),
    Message('note_on', channel=4, note=38, velocity=100, time=0),
    Message('note_off', channel=4, note=38, velocity=100, time=96),
    Message('note_on', channel=4, note=38, velocity=100, time=0),
    Message('note_off', channel=4, note=38, velocity=100, time=96),
    Message('note_on', channel=4, note=38, velocity=100, time=0),
    Message('note_off', channel=4, note=38, velocity=100, time=96),
    Message('note_on', channel=4, note=38, velocity=100, time=0),
    Message('note_off', channel=4, note=38, velocity=100, time=288),
    Message('note_on', channel=4, note=38, velocity=100, time=0),
    Message('note_off', channel=4, note=38, velocity=100, time=1),
    Message('note_on', channel=4, note=37, velocity=100, time=11),
    Message('note_off', channel=4, note=37, velocity=100, time=1),
    Message('note_on', channel=4, note=36, velocity=100, time=11),
    Message('note_off', channel=4, note=36, velocity=100, time=1),
    Message('note_on', channel=4, note=35, velocity=100, time=11),
    Message('note_off', channel=4, note=35, velocity=100, time=1),
    Message('note_on', channel=4, note=34, velocity=100, time=11),
    Message('note_off', channel=4, note=34, velocity=100, time=1),
    Message('note_on', channel=4, note=33, velocity=100, time=11),
    Message('note_off', channel=4, note=33, velocity=100, time=1),
    Message('note_on', channel=4, note=32, velocity=100, time=11),
    Message('note_off', channel=4, note=32, velocity=100, time=1),
    Message('note_on', channel=4, note=31, velocity=100, time=11),
    Message('note_off', channel=4, note=31, velocity=100, time=1),
    Message('note_on', channel=4, note=29, velocity=100, time=11),
    Message('note_off', channel=4, note=29, velocity=100, time=96),
    Message('note_on', channel=4, note=28, velocity=100, time=0),
    Message('note_off', channel=4, note=28, velocity=100, time=96),
    Message('note_on', channel=4, note=28, velocity=100, time=96),
    Message('note_off', channel=4, note=28, velocity=100, time=96),
    MetaMessage('end_of_track', time=500)]),
  MidiTrack([
    MetaMessage('track_name', name='Nick Menza: Channel 9', time=0),
    MetaMessage('device_name', name='None', time=0),
    Message('control_change', channel=9, control=7, value=100, time=0),
    Message('control_change', channel=9, control=10, value=64, time=0),
    Message('note_on', channel=9, note=36, velocity=120, time=480),
    Message('note_off', channel=9, note=36, velocity=120, time=23),
    Message('note_on', channel=9, note=38, velocity=80, time=66),
    Message('note_on', channel=9, note=38, velocity=120, time=7),
    Message('note_off', channel=9, note=38, velocity=80, time=9),
    Message('note_off', channel=9, note=38, velocity=120, time=33),
    Message('note_on', channel=9, note=36, velocity=120, time=54),
    Message('note_off', channel=9, note=36, velocity=120, time=23),
    Message('note_on', channel=9, note=36, velocity=120, time=73),
    Message('note_on', channel=9, note=49, velocity=120, time=0),
    Message('note_on', channel=9, note=57, velocity=120, time=0),
    Message('note_off', channel=9, note=36, velocity=120, time=23),
    Message('note_off', channel=9, note=49, velocity=120, time=0),
    Message('note_off', channel=9, note=57, velocity=120, time=0),
    Message('note_on', channel=9, note=46, velocity=105, time=73),
    Message('note_off', channel=9, note=46, velocity=105, time=23),
    Message('note_on', channel=9, note=38, velocity=120, time=73),
    Message('note_on', channel=9, note=46, velocity=120, time=0),
    Message('note_off', channel=9, note=38, velocity=120, time=23),
    Message('note_off', channel=9, note=46, velocity=120, time=0),
    Message('note_on', channel=9, note=46, velocity=105, time=73),
    Message('note_off', channel=9, note=46, velocity=105, time=23),
    Message('note_on', channel=9, note=36, velocity=120, time=73),
    Message('note_on', channel=9, note=46, velocity=120, time=0),
    Message('note_off', channel=9, note=36, velocity=120, time=23),
    Message('note_off', channel=9, note=46, velocity=120, time=0),
    Message('note_on', channel=9, note=46, velocity=105, time=73),
    Message('note_off', channel=9, note=46, velocity=105, time=23),
    Message('note_on', channel=9, note=38, velocity=120, time=73),
    Message('note_on', channel=9, note=46, velocity=120, time=0),
    Message('note_off', channel=9, note=38, velocity=120, time=23),
    Message('note_off', channel=9, note=46, velocity=120, time=0),
    Message('note_on', channel=9, note=46, velocity=105, time=73),
    Message('note_off', channel=9, note=46, velocity=105, time=23),
    Message('note_on', channel=9, note=46, velocity=120, time=73),
    Message('note_on', channel=9, note=36, velocity=120, time=0),
    Message('note_off', channel=9, note=46, velocity=120, time=23),
    Message('note_off', channel=9, note=36, velocity=120, time=0),
    Message('note_on', channel=9, note=46, velocity=105, time=73),
    Message('note_off', channel=9, note=46, velocity=105, time=23),
    Message('note_on', channel=9, note=38, velocity=120, time=73),
    Message('note_on', channel=9, note=46, velocity=120, time=0),
    Message('note_off', channel=9, note=38, velocity=120, time=23),
    Message('note_off', channel=9, note=46, velocity=120, time=0),
    Message('note_on', channel=9, note=46, velocity=105, time=73),
    Message('note_off', channel=9, note=46, velocity=105, time=23),
    Message('note_on', channel=9, note=46, velocity=120, time=73),
    Message('note_on', channel=9, note=36, velocity=120, time=0),
    Message('note_off', channel=9, note=46, velocity=120, time=23),
    Message('note_off', channel=9, note=36, velocity=120, time=0),
    Message('note_on', channel=9, note=46, velocity=105, time=73),
    Message('note_off', channel=9, note=46, velocity=105, time=23),
    Message('note_on', channel=9, note=38, velocity=120, time=73),
    Message('note_on', channel=9, note=46, velocity=120, time=0),
    Message('note_off', channel=9, note=38, velocity=120, time=23),
    Message('note_off', channel=9, note=46, velocity=120, time=0),
    Message('note_on', channel=9, note=46, velocity=105, time=73),
    Message('note_off', channel=9, note=46, velocity=105, time=23),
    Message('note_on', channel=9, note=46, velocity=120, time=73),
    Message('note_on', channel=9, note=36, velocity=120, time=0),
    Message('note_off', channel=9, note=46, velocity=120, time=23),
    Message('note_off', channel=9, note=36, velocity=120, time=0),
    Message('note_on', channel=9, note=46, velocity=105, time=73),
    Message('note_off', channel=9, note=46, velocity=105, time=23),
    Message('note_on', channel=9, note=38, velocity=120, time=73),
    Message('note_on', channel=9, note=46, velocity=120, time=0),
    Message('note_off', channel=9, note=38, velocity=120, time=23),
    Message('note_off', channel=9, note=46, velocity=120, time=0),
    Message('note_on', channel=9, note=46, velocity=105, time=73),
    Message('note_off', channel=9, note=46, velocity=105, time=23),
    Message('note_on', channel=9, note=46, velocity=120, time=73),
    Message('note_on', channel=9, note=36, velocity=120, time=0),
    Message('note_off', channel=9, note=46, velocity=120, time=23),
    Message('note_off', channel=9, note=36, velocity=120, time=0),
    Message('note_on', channel=9, note=46, velocity=105, time=73),
    Message('note_off', channel=9, note=46, velocity=105, time=23),
    Message('note_on', channel=9, note=38, velocity=120, time=73),
    Message('note_on', channel=9, note=46, velocity=120, time=0),
    Message('note_off', channel=9, note=38, velocity=120, time=23),
    Message('note_off', channel=9, note=46, velocity=120, time=0),
    Message('note_on', channel=9, note=46, velocity=105, time=73),
    Message('note_off', channel=9, note=46, velocity=105, time=23),
    Message('note_on', channel=9, note=46, velocity=120, time=73),
    Message('note_on', channel=9, note=36, velocity=120, time=0),
    Message('note_off', channel=9, note=46, velocity=120, time=23),
    Message('note_off', channel=9, note=36, velocity=120, time=0),
    Message('note_on', channel=9, note=46, velocity=105, time=73),
    Message('note_off', channel=9, note=46, velocity=105, time=23),
    Message('note_on', channel=9, note=38, velocity=120, time=73),
    Message('note_on', channel=9, note=46, velocity=120, time=0),
    Message('note_off', channel=9, note=38, velocity=120, time=23),
    Message('note_off', channel=9, note=46, velocity=120, time=0),
    Message('note_on', channel=9, note=46, velocity=105, time=73),
    Message('note_off', channel=9, note=46, velocity=105, time=23),
    Message('note_on', channel=9, note=46, velocity=120, time=73),
    Message('note_on', channel=9, note=36, velocity=120, time=0),
    Message('note_off', channel=9, note=46, velocity=120, time=23),
    Message('note_off', channel=9, note=36, velocity=120, time=0),
    Message('note_on', channel=9, note=46, velocity=105, time=73),
    Message('note_on', channel=9, note=36, velocity=120, time=0),
    Message('note_off', channel=9, note=46, velocity=105, time=23),
    Message('note_off', channel=9, note=36, velocity=120, time=0),
    Message('note_on', channel=9, note=38, velocity=120, time=73),
    Message('note_on', channel=9, note=46, velocity=120, time=0),
    Message('note_off', channel=9, note=38, velocity=120, time=23),
    Message('note_off', channel=9, note=46, velocity=120, time=0),
    Message('note_on', channel=9, note=46, velocity=105, time=73),
    Message('note_off', channel=9, note=46, velocity=105, time=23),
    Message('note_on', channel=9, note=36, velocity=120, time=73),
    Message('note_on', channel=9, note=49, velocity=120, time=0),
    Message('note_on', channel=9, note=57, velocity=120, time=0),
    Message('note_off', channel=9, note=36, velocity=120, time=23),
    Message('note_off', channel=9, note=49, velocity=120, time=0),
    Message('note_off', channel=9, note=57, velocity=120, time=0),
    Message('note_on', channel=9, note=46, velocity=105, time=73),
    Message('note_off', channel=9, note=46, velocity=105, time=23),
    Message('note_on', channel=9, note=38, velocity=120, time=73),
    Message('note_on', channel=9, note=46, velocity=120, time=0),
    Message('note_off', channel=9, note=38, velocity=120, time=23),
    Message('note_off', channel=9, note=46, velocity=120, time=0),
    Message('note_on', channel=9, note=46, velocity=105, time=73),
    Message('note_off', channel=9, note=46, velocity=105, time=23),
    Message('note_on', channel=9, note=36, velocity=120, time=73),
    Message('note_on', channel=9, note=46, velocity=120, time=0),
    Message('note_off', channel=9, note=36, velocity=120, time=23),
    Message('note_off', channel=9, note=46, velocity=120, time=0),
    Message('note_on', channel=9, note=46, velocity=105, time=73),
    Message('note_off', channel=9, note=46, velocity=105, time=23),
    Message('note_on', channel=9, note=38, velocity=120, time=73),
    Message('note_on', channel=9, note=46, velocity=120, time=0),
    Message('note_off', channel=9, note=38, velocity=120, time=23),
    Message('note_off', channel=9, note=46, velocity=120, time=0),
    Message('note_on', channel=9, note=46, velocity=105, time=73),
    Message('note_off', channel=9, note=46, velocity=105, time=23),
    Message('note_on', channel=9, note=46, velocity=120, time=73),
    Message('note_on', channel=9, note=36, velocity=120, time=0),
    Message('note_off', channel=9, note=46, velocity=120, time=23),
    Message('note_off', channel=9, note=36, velocity=120, time=0),
    Message('note_on', channel=9, note=46, velocity=105, time=73),
    Message('note_off', channel=9, note=46, velocity=105, time=23),
    Message('note_on', channel=9, note=38, velocity=120, time=73),
    Message('note_on', channel=9, note=46, velocity=120, time=0),
    Message('note_off', channel=9, note=38, velocity=120, time=23),
    Message('note_off', channel=9, note=46, velocity=120, time=0),
    Message('note_on', channel=9, note=46, velocity=105, time=73),
    Message('note_off', channel=9, note=46, velocity=105, time=23),
    Message('note_on', channel=9, note=46, velocity=120, time=73),
    Message('note_on', channel=9, note=36, velocity=120, time=0),
    Message('note_off', channel=9, note=46, velocity=120, time=23),
    Message('note_off', channel=9, note=36, velocity=120, time=0),
    Message('note_on', channel=9, note=46, velocity=105, time=73),
    Message('note_off', channel=9, note=46, velocity=105, time=23),
    Message('note_on', channel=9, note=38, velocity=120, time=73),
    Message('note_on', channel=9, note=46, velocity=120, time=0),
    Message('note_off', channel=9, note=38, velocity=120, time=23),
    Message('note_off', channel=9, note=46, velocity=120, time=0),
    Message('note_on', channel=9, note=46, velocity=105, time=73),
    Message('note_off', channel=9, note=46, velocity=105, time=23),
    Message('note_on', channel=9, note=46, velocity=120, time=73),
    Message('note_on', channel=9, note=36, velocity=120, time=0),
    Message('note_off', channel=9, note=46, velocity=120, time=23),
    Message('note_off', channel=9, note=36, velocity=120, time=0),
    Message('note_on', channel=9, note=46, velocity=105, time=73),
    Message('note_off', channel=9, note=46, velocity=105, time=23),
    Message('note_on', channel=9, note=38, velocity=120, time=73),
    Message('note_on', channel=9, note=46, velocity=120, time=0),
    Message('note_off', channel=9, note=38, velocity=120, time=23),
    Message('note_off', channel=9, note=46, velocity=120, time=0),
    Message('note_on', channel=9, note=46, velocity=105, time=73),
    Message('note_off', channel=9, note=46, velocity=105, time=23),
    Message('note_on', channel=9, note=46, velocity=120, time=73),
    Message('note_on', channel=9, note=36, velocity=120, time=0),
    Message('note_off', channel=9, note=46, velocity=120, time=23),
    Message('note_off', channel=9, note=36, velocity=120, time=0),
    Message('note_on', channel=9, note=46, velocity=105, time=73),
    Message('note_off', channel=9, note=46, velocity=105, time=23),
    Message('note_on', channel=9, note=38, velocity=120, time=73),
    Message('note_on', channel=9, note=46, velocity=120, time=0),
    Message('note_off', channel=9, note=38, velocity=120, time=23),
    Message('note_off', channel=9, note=46, velocity=120, time=0),
    Message('note_on', channel=9, note=46, velocity=105, time=73),
    Message('note_off', channel=9, note=46, velocity=105, time=23),
    Message('note_on', channel=9, note=46, velocity=120, time=73),
    Message('note_on', channel=9, note=36, velocity=120, time=0),
    Message('note_off', channel=9, note=46, velocity=120, time=23),
    Message('note_off', channel=9, note=36, velocity=120, time=0),
    Message('note_on', channel=9, note=46, velocity=105, time=73),
    Message('note_off', channel=9, note=46, velocity=105, time=23),
    Message('note_on', channel=9, note=38, velocity=120, time=73),
    Message('note_on', channel=9, note=46, velocity=120, time=0),
    Message('note_off', channel=9, note=38, velocity=120, time=23),
    Message('note_off', channel=9, note=46, velocity=120, time=0),
    Message('note_on', channel=9, note=46, velocity=105, time=73),
    Message('note_off', channel=9, note=46, velocity=105, time=23),
    Message('note_on', channel=9, note=46, velocity=120, time=73),
    Message('note_on', channel=9, note=36, velocity=120, time=0),
    Message('note_off', channel=9, note=46, velocity=120, time=23),
    Message('note_off', channel=9, note=36, velocity=120, time=0),
    Message('note_on', channel=9, note=46, velocity=105, time=73),
    Message('note_on', channel=9, note=36, velocity=120, time=0),
    Message('note_off', channel=9, note=46, velocity=105, time=23),
    Message('note_off', channel=9, note=36, velocity=120, time=0),
    Message('note_on', channel=9, note=38, velocity=120, time=73),
    Message('note_on', channel=9, note=46, velocity=120, time=0),
    Message('note_off', channel=9, note=38, velocity=120, time=23),
    Message('note_off', channel=9, note=46, velocity=120, time=0),
    Message('note_on', channel=9, note=46, velocity=105, time=73),
    Message('note_off', channel=9, note=46, velocity=105, time=23),
    Message('note_on', channel=9, note=36, velocity=120, time=73),
    Message('note_on', channel=9, note=49, velocity=120, time=0),
    Message('note_on', channel=9, note=57, velocity=120, time=0),
    Message('note_off', channel=9, note=36, velocity=120, time=23),
    Message('note_off', channel=9, note=49, velocity=120, time=0),
    Message('note_off', channel=9, note=57, velocity=120, time=0),
    Message('note_on', channel=9, note=46, velocity=105, time=73),
    Message('note_off', channel=9, note=46, velocity=105, time=23),
    Message('note_on', channel=9, note=38, velocity=120, time=73),
    Message('note_on', channel=9, note=46, velocity=120, time=0),
    Message('note_off', channel=9, note=38, velocity=120, time=23),
    Message('note_off', channel=9, note=46, velocity=120, time=0),
    Message('note_on', channel=9, note=46, velocity=105, time=73),
    Message('note_off', channel=9, note=46, velocity=105, time=23),
    Message('note_on', channel=9, note=36, velocity=120, time=73),
    Message('note_on', channel=9, note=46, velocity=120, time=0),
    Message('note_off', channel=9, note=36, velocity=120, time=23),
    Message('note_off', channel=9, note=46, velocity=120, time=0),
    Message('note_on', channel=9, note=46, velocity=105, time=73),
    Message('note_off', channel=9, note=46, velocity=105, time=23),
    Message('note_on', channel=9, note=38, velocity=120, time=73),
    Message('note_on', channel=9, note=46, velocity=120, time=0),
    Message('note_off', channel=9, note=38, velocity=120, time=23),
    Message('note_off', channel=9, note=46, velocity=120, time=0),
    Message('note_on', channel=9, note=46, velocity=105, time=73),
    Message('note_off', channel=9, note=46, velocity=105, time=23),
    Message('note_on', channel=9, note=46, velocity=120, time=73),
    Message('note_on', channel=9, note=36, velocity=120, time=0),
    Message('note_off', channel=9, note=46, velocity=120, time=23),
    Message('note_off', channel=9, note=36, velocity=120, time=0),
    Message('note_on', channel=9, note=46, velocity=105, time=73),
    Message('note_off', channel=9, note=46, velocity=105, time=23),
    Message('note_on', channel=9, note=38, velocity=120, time=73),
    Message('note_on', channel=9, note=46, velocity=120, time=0),
    Message('note_off', channel=9, note=38, velocity=120, time=23),
    Message('note_off', channel=9, note=46, velocity=120, time=0),
    Message('note_on', channel=9, note=46, velocity=105, time=73),
    Message('note_off', channel=9, note=46, velocity=105, time=23),
    Message('note_on', channel=9, note=46, velocity=120, time=73),
    Message('note_on', channel=9, note=36, velocity=120, time=0),
    Message('note_off', channel=9, note=46, velocity=120, time=23),
    Message('note_off', channel=9, note=36, velocity=120, time=0),
    Message('note_on', channel=9, note=46, velocity=105, time=73),
    Message('note_off', channel=9, note=46, velocity=105, time=23),
    Message('note_on', channel=9, note=38, velocity=120, time=73),
    Message('note_on', channel=9, note=46, velocity=120, time=0),
    Message('note_off', channel=9, note=38, velocity=120, time=23),
    Message('note_off', channel=9, note=46, velocity=120, time=0),
    Message('note_on', channel=9, note=46, velocity=105, time=73),
    Message('note_off', channel=9, note=46, velocity=105, time=23),
    Message('note_on', channel=9, note=46, velocity=120, time=73),
    Message('note_on', channel=9, note=36, velocity=120, time=0),
    Message('note_off', channel=9, note=46, velocity=120, time=23),
    Message('note_off', channel=9, note=36, velocity=120, time=0),
    Message('note_on', channel=9, note=46, velocity=105, time=73),
    Message('note_off', channel=9, note=46, velocity=105, time=23),
    Message('note_on', channel=9, note=38, velocity=120, time=73),
    Message('note_on', channel=9, note=46, velocity=120, time=0),
    Message('note_off', channel=9, note=38, velocity=120, time=23),
    Message('note_off', channel=9, note=46, velocity=120, time=0),
    Message('note_on', channel=9, note=46, velocity=105, time=73),
    Message('note_off', channel=9, note=46, velocity=105, time=23),
    Message('note_on', channel=9, note=46, velocity=120, time=73),
    Message('note_on', channel=9, note=36, velocity=120, time=0),
    Message('note_off', channel=9, note=46, velocity=120, time=23),
    Message('note_off', channel=9, note=36, velocity=120, time=0),
    Message('note_on', channel=9, note=46, velocity=105, time=73),
    Message('note_off', channel=9, note=46, velocity=105, time=23),
    Message('note_on', channel=9, note=38, velocity=120, time=73),
    Message('note_on', channel=9, note=46, velocity=120, time=0),
    Message('note_off', channel=9, note=38, velocity=120, time=23),
    Message('note_off', channel=9, note=46, velocity=120, time=0),
    Message('note_on', channel=9, note=46, velocity=105, time=73),
    Message('note_off', channel=9, note=46, velocity=105, time=23),
    Message('note_on', channel=9, note=46, velocity=120, time=73),
    Message('note_on', channel=9, note=36, velocity=120, time=0),
    Message('note_off', channel=9, note=46, velocity=120, time=23),
    Message('note_off', channel=9, note=36, velocity=120, time=0),
    Message('note_on', channel=9, note=46, velocity=105, time=73),
    Message('note_off', channel=9, note=46, velocity=105, time=23),
    Message('note_on', channel=9, note=38, velocity=120, time=73),
    Message('note_on', channel=9, note=46, velocity=120, time=0),
    Message('note_off', channel=9, note=38, velocity=120, time=23),
    Message('note_off', channel=9, note=46, velocity=120, time=0),
    Message('note_on', channel=9, note=46, velocity=105, time=73),
    Message('note_off', channel=9, note=46, velocity=105, time=23),
    Message('note_on', channel=9, note=46, velocity=120, time=73),
    Message('note_on', channel=9, note=36, velocity=120, time=0),
    Message('note_off', channel=9, note=46, velocity=120, time=23),
    Message('note_off', channel=9, note=36, velocity=120, time=0),
    Message('note_on', channel=9, note=46, velocity=105, time=73),
    Message('note_on', channel=9, note=36, velocity=120, time=0),
    Message('note_off', channel=9, note=46, velocity=105, time=23),
    Message('note_off', channel=9, note=36, velocity=120, time=0),
    Message('note_on', channel=9, note=38, velocity=120, time=73),
    Message('note_on', channel=9, note=46, velocity=120, time=0),
    Message('note_off', channel=9, note=38, velocity=120, time=23),
    Message('note_off', channel=9, note=46, velocity=120, time=0),
    Message('note_on', channel=9, note=46, velocity=105, time=73),
    Message('note_off', channel=9, note=46, velocity=105, time=23),
    Message('note_on', channel=9, note=36, velocity=120, time=73),
    Message('note_on', channel=9, note=49, velocity=120, time=0),
    Message('note_on', channel=9, note=57, velocity=120, time=0),
    Message('note_off', channel=9, note=36, velocity=120, time=23),
    Message('note_off', channel=9, note=49, velocity=120, time=0),
    Message('note_off', channel=9, note=57, velocity=120, time=0),
    Message('note_on', channel=9, note=46, velocity=105, time=73),
    Message('note_off', channel=9, note=46, velocity=105, time=23),
    Message('note_on', channel=9, note=38, velocity=120, time=73),
    Message('note_on', channel=9, note=46, velocity=120, time=0),
    Message('note_off', channel=9, note=38, velocity=120, time=23),
    Message('note_off', channel=9, note=46, velocity=120, time=0),
    Message('note_on', channel=9, note=46, velocity=105, time=73),
    Message('note_off', channel=9, note=46, velocity=105, time=23),
    Message('note_on', channel=9, note=36, velocity=120, time=73),
    Message('note_on', channel=9, note=46, velocity=120, time=0),
    Message('note_off', channel=9, note=36, velocity=120, time=23),
    Message('note_off', channel=9, note=46, velocity=120, time=0),
    Message('note_on', channel=9, note=46, velocity=105, time=73),
    Message('note_off', channel=9, note=46, velocity=105, time=23),
    Message('note_on', channel=9, note=38, velocity=120, time=73),
    Message('note_on', channel=9, note=46, velocity=120, time=0),
    Message('note_off', channel=9, note=38, velocity=120, time=23),
    Message('note_off', channel=9, note=46, velocity=120, time=0),
    Message('note_on', channel=9, note=46, velocity=105, time=73),
    Message('note_off', channel=9, note=46, velocity=105, time=23),
    Message('note_on', channel=9, note=46, velocity=120, time=73),
    Message('note_on', channel=9, note=36, velocity=120, time=0),
    Message('note_off', channel=9, note=46, velocity=120, time=23),
    Message('note_off', channel=9, note=36, velocity=120, time=0),
    Message('note_on', channel=9, note=46, velocity=105, time=73),
    Message('note_off', channel=9, note=46, velocity=105, time=23),
    Message('note_on', channel=9, note=38, velocity=120, time=73),
    Message('note_on', channel=9, note=46, velocity=120, time=0),
    Message('note_off', channel=9, note=38, velocity=120, time=23),
    Message('note_off', channel=9, note=46, velocity=120, time=0),
    Message('note_on', channel=9, note=46, velocity=105, time=73),
    Message('note_off', channel=9, note=46, velocity=105, time=23),
    Message('note_on', channel=9, note=46, velocity=120, time=73),
    Message('note_on', channel=9, note=36, velocity=120, time=0),
    Message('note_off', channel=9, note=46, velocity=120, time=23),
    Message('note_off', channel=9, note=36, velocity=120, time=0),
    Message('note_on', channel=9, note=46, velocity=105, time=73),
    Message('note_off', channel=9, note=46, velocity=105, time=23),
    Message('note_on', channel=9, note=38, velocity=120, time=73),
    Message('note_on', channel=9, note=46, velocity=120, time=0),
    Message('note_off', channel=9, note=38, velocity=120, time=23),
    Message('note_off', channel=9, note=46, velocity=120, time=0),
    Message('note_on', channel=9, note=46, velocity=105, time=73),
    Message('note_off', channel=9, note=46, velocity=105, time=23),
    Message('note_on', channel=9, note=46, velocity=120, time=73),
    Message('note_on', channel=9, note=36, velocity=120, time=0),
    Message('note_off', channel=9, note=46, velocity=120, time=23),
    Message('note_off', channel=9, note=36, velocity=120, time=0),
    Message('note_on', channel=9, note=46, velocity=105, time=73),
    Message('note_off', channel=9, note=46, velocity=105, time=23),
    Message('note_on', channel=9, note=38, velocity=120, time=73),
    Message('note_on', channel=9, note=46, velocity=120, time=0),
    Message('note_off', channel=9, note=38, velocity=120, time=23),
    Message('note_off', channel=9, note=46, velocity=120, time=0),
    Message('note_on', channel=9, note=46, velocity=105, time=73),
    Message('note_off', channel=9, note=46, velocity=105, time=23),
    Message('note_on', channel=9, note=46, velocity=120, time=73),
    Message('note_on', channel=9, note=36, velocity=120, time=0),
    Message('note_off', channel=9, note=46, velocity=120, time=23),
    Message('note_off', channel=9, note=36, velocity=120, time=0),
    Message('note_on', channel=9, note=46, velocity=105, time=73),
    Message('note_off', channel=9, note=46, velocity=105, time=23),
    Message('note_on', channel=9, note=38, velocity=120, time=73),
    Message('note_on', channel=9, note=46, velocity=120, time=0),
    Message('note_off', channel=9, note=38, velocity=120, time=23),
    Message('note_off', channel=9, note=46, velocity=120, time=0),
    Message('note_on', channel=9, note=46, velocity=105, time=73),
    Message('note_off', channel=9, note=46, velocity=105, time=23),
    Message('note_on', channel=9, note=46, velocity=120, time=73),
    Message('note_on', channel=9, note=36, velocity=120, time=0),
    Message('note_off', channel=9, note=46, velocity=120, time=23),
    Message('note_off', channel=9, note=36, velocity=120, time=0),
    Message('note_on', channel=9, note=46, velocity=105, time=73),
    Message('note_off', channel=9, note=46, velocity=105, time=23),
    Message('note_on', channel=9, note=38, velocity=120, time=73),
    Message('note_on', channel=9, note=46, velocity=120, time=0),
    Message('note_off', channel=9, note=38, velocity=120, time=23),
    Message('note_off', channel=9, note=46, velocity=120, time=0),
    Message('note_on', channel=9, note=46, velocity=105, time=73),
    Message('note_off', channel=9, note=46, velocity=105, time=23),
    Message('note_on', channel=9, note=46, velocity=120, time=73),
    Message('note_on', channel=9, note=36, velocity=120, time=0),
    Message('note_off', channel=9, note=46, velocity=120, time=23),
    Message('note_off', channel=9, note=36, velocity=120, time=0),
    Message('note_on', channel=9, note=46, velocity=120, time=73),
    Message('note_on', channel=9, note=38, velocity=120, time=0),
    Message('note_off', channel=9, note=46, velocity=120, time=23),
    Message('note_off', channel=9, note=38, velocity=120, time=0),
    Message('note_on', channel=9, note=38, velocity=120, time=73),
    Message('note_on', channel=9, note=46, velocity=120, time=0),
    Message('note_off', channel=9, note=38, velocity=120, time=23),
    Message('note_off', channel=9, note=46, velocity=120, time=0),
    Message('note_on', channel=9, note=36, velocity=120, time=73),
    Message('note_on', channel=9, note=57, velocity=120, time=0),
    Message('note_off', channel=9, note=36, velocity=120, time=23),
    Message('note_off', channel=9, note=57, velocity=120, time=0),
    Message('note_on', channel=9, note=46, velocity=120, time=73),
    Message('note_off', channel=9, note=46, velocity=120, time=23),
    Message('note_on', channel=9, note=36, velocity=120, time=73),
    Message('note_on', channel=9, note=46, velocity=105, time=0),
    Message('note_off', channel=9, note=36, velocity=120, time=23),
    Message('note_off', channel=9, note=46, velocity=105, time=0),
    Message('note_on', channel=9, note=38, velocity=120, time=73),
    Message('note_on', channel=9, note=46, velocity=120, time=0),
    Message('note_off', channel=9, note=38, velocity=120, time=23),
    Message('note_off', channel=9, note=46, velocity=120, time=0),
    Message('note_on', channel=9, note=46, velocity=105, time=73),
    Message('note_off', channel=9, note=46, velocity=105, time=23),
    Message('note_on', channel=9, note=36, velocity=120, time=73),
    Message('note_on', channel=9, note=46, velocity=120, time=0),
    Message('note_off', channel=9, note=36, velocity=120, time=23),
    Message('note_off', channel=9, note=46, velocity=120, time=0),
    Message('note_on', channel=9, note=46, velocity=105, time=73),
    Message('note_off', channel=9, note=46, velocity=105, time=23),
    Message('note_on', channel=9, note=38, velocity=120, time=73),
    Message('note_on', channel=9, note=46, velocity=120, time=0),
    Message('note_off', channel=9, note=38, velocity=120, time=23),
    Message('note_off', channel=9, note=46, velocity=120, time=0),
    Message('note_on', channel=9, note=46, velocity=105, time=73),
    Message('note_off', channel=9, note=46, velocity=105, time=23),
    Message('note_on', channel=9, note=36, velocity=120, time=73),
    Message('note_on', channel=9, note=46, velocity=120, time=0),
    Message('note_off', channel=9, note=36, velocity=120, time=23),
    Message('note_off', channel=9, note=46, velocity=120, time=0),
    Message('note_on', channel=9, note=46, velocity=105, time=73),
    Message('note_off', channel=9, note=46, velocity=105, time=23),
    Message('note_on', channel=9, note=38, velocity=120, time=73),
    Message('note_on', channel=9, note=46, velocity=120, time=0),
    Message('note_off', channel=9, note=38, velocity=120, time=23),
    Message('note_off', channel=9, note=46, velocity=120, time=0),
    Message('note_on', channel=9, note=46, velocity=105, time=73),
    Message('note_off', channel=9, note=46, velocity=105, time=23),
    Message('note_on', channel=9, note=36, velocity=120, time=73),
    Message('note_on', channel=9, note=46, velocity=120, time=0),
    Message('note_off', channel=9, note=36, velocity=120, time=23),
    Message('note_off', channel=9, note=46, velocity=120, time=0),
    Message('note_on', channel=9, note=36, velocity=120, time=73),
    Message('note_on', channel=9, note=46, velocity=127, time=0),
    Message('note_off', channel=9, note=36, velocity=120, time=23),
    Message('note_off', channel=9, note=46, velocity=127, time=0),
    Message('note_on', channel=9, note=38, velocity=120, time=73),
    Message('note_on', channel=9, note=44, velocity=60, time=0),
    Message('note_off', channel=9, note=38, velocity=120, time=23),
    Message('note_off', channel=9, note=44, velocity=60, time=0),
    Message('note_on', channel=9, note=36, velocity=120, time=73),
    Message('note_on', channel=9, note=49, velocity=127, time=0),
    Message('note_off', channel=9, note=36, velocity=120, time=23),
    Message('note_off', channel=9, note=49, velocity=127, time=0),
    Message('note_on', channel=9, note=46, velocity=120, time=73),
    Message('note_off', channel=9, note=46, velocity=120, time=23),
    Message('note_on', channel=9, note=36, velocity=120, time=73),
    Message('note_on', channel=9, note=46, velocity=105, time=0),
    Message('note_off', channel=9, note=36, velocity=120, time=23),
    Message('note_off', channel=9, note=46, velocity=105, time=0),
    Message('note_on', channel=9, note=38, velocity=120, time=73),
    Message('note_on', channel=9, note=46, velocity=120, time=0),
    Message('note_off', channel=9, note=38, velocity=120, time=23),
    Message('note_off', channel=9, note=46, velocity=120, time=0),
    Message('note_on', channel=9, note=46, velocity=105, time=73),
    Message('note_off', channel=9, note=46, velocity=105, time=23),
    Message('note_on', channel=9, note=36, velocity=120, time=73),
    Message('note_on', channel=9, note=46, velocity=120, time=0),
    Message('note_off', channel=9, note=36, velocity=120, time=23),
    Message('note_off', channel=9, note=46, velocity=120, time=0),
    Message('note_on', channel=9, note=46, velocity=105, time=73),
    Message('note_off', channel=9, note=46, velocity=105, time=23),
    Message('note_on', channel=9, note=38, velocity=120, time=73),
    Message('note_on', channel=9, note=46, velocity=120, time=0),
    Message('note_off', channel=9, note=38, velocity=120, time=23),
    Message('note_off', channel=9, note=46, velocity=120, time=0),
    Message('note_on', channel=9, note=46, velocity=105, time=73),
    Message('note_off', channel=9, note=46, velocity=105, time=23),
    Message('note_on', channel=9, note=36, velocity=120, time=73),
    Message('note_on', channel=9, note=46, velocity=120, time=0),
    Message('note_off', channel=9, note=36, velocity=120, time=23),
    Message('note_off', channel=9, note=46, velocity=120, time=0),
    Message('note_on', channel=9, note=46, velocity=105, time=73),
    Message('note_off', channel=9, note=46, velocity=105, time=23),
    Message('note_on', channel=9, note=38, velocity=120, time=73),
    Message('note_on', channel=9, note=46, velocity=120, time=0),
    Message('note_off', channel=9, note=38, velocity=120, time=23),
    Message('note_off', channel=9, note=46, velocity=120, time=0),
    Message('note_on', channel=9, note=46, velocity=105, time=73),
    Message('note_off', channel=9, note=46, velocity=105, time=23),
    Message('note_on', channel=9, note=36, velocity=120, time=73),
    Message('note_on', channel=9, note=46, velocity=120, time=0),
    Message('note_off', channel=9, note=36, velocity=120, time=23),
    Message('note_off', channel=9, note=46, velocity=120, time=0),
    Message('note_on', channel=9, note=36, velocity=120, time=73),
    Message('note_on', channel=9, note=46, velocity=127, time=0),
    Message('note_off', channel=9, note=36, velocity=120, time=23),
    Message('note_off', channel=9, note=46, velocity=127, time=0),
    Message('note_on', channel=9, note=38, velocity=120, time=73),
    Message('note_on', channel=9, note=44, velocity=60, time=0),
    Message('note_off', channel=9, note=38, velocity=120, time=23),
    Message('note_off', channel=9, note=44, velocity=60, time=0),
    Message('note_on', channel=9, note=36, velocity=120, time=73),
    Message('note_on', channel=9, note=49, velocity=127, time=0),
    Message('note_off', channel=9, note=36, velocity=120, time=23),
    Message('note_off', channel=9, note=49, velocity=127, time=0),
    Message('note_on', channel=9, note=46, velocity=120, time=73),
    Message('note_off', channel=9, note=46, velocity=120, time=23),
    Message('note_on', channel=9, note=36, velocity=120, time=73),
    Message('note_on', channel=9, note=46, velocity=105, time=0),
    Message('note_off', channel=9, note=36, velocity=120, time=23),
    Message('note_off', channel=9, note=46, velocity=105, time=0),
    Message('note_on', channel=9, note=38, velocity=120, time=73),
    Message('note_on', channel=9, note=46, velocity=120, time=0),
    Message('note_off', channel=9, note=38, velocity=120, time=23),
    Message('note_off', channel=9, note=46, velocity=120, time=0),
    Message('note_on', channel=9, note=46, velocity=105, time=73),
    Message('note_off', channel=9, note=46, velocity=105, time=23),
    Message('note_on', channel=9, note=36, velocity=120, time=73),
    Message('note_on', channel=9, note=46, velocity=120, time=0),
    Message('note_off', channel=9, note=36, velocity=120, time=23),
    Message('note_off', channel=9, note=46, velocity=120, time=0),
    Message('note_on', channel=9, note=46, velocity=105, time=73),
    Message('note_off', channel=9, note=46, velocity=105, time=23),
    Message('note_on', channel=9, note=38, velocity=120, time=73),
    Message('note_on', channel=9, note=46, velocity=120, time=0),
    Message('note_off', channel=9, note=38, velocity=120, time=23),
    Message('note_off', channel=9, note=46, velocity=120, time=0),
    Message('note_on', channel=9, note=46, velocity=105, time=73),
    Message('note_off', channel=9, note=46, velocity=105, time=23),
    Message('note_on', channel=9, note=36, velocity=120, time=73),
    Message('note_on', channel=9, note=46, velocity=120, time=0),
    Message('note_off', channel=9, note=36, velocity=120, time=23),
    Message('note_off', channel=9, note=46, velocity=120, time=0),
    Message('note_on', channel=9, note=46, velocity=105, time=73),
    Message('note_off', channel=9, note=46, velocity=105, time=23),
    Message('note_on', channel=9, note=38, velocity=120, time=73),
    Message('note_on', channel=9, note=46, velocity=120, time=0),
    Message('note_off', channel=9, note=38, velocity=120, time=23),
    Message('note_off', channel=9, note=46, velocity=120, time=0),
    Message('note_on', channel=9, note=46, velocity=105, time=73),
    Message('note_off', channel=9, note=46, velocity=105, time=23),
    Message('note_on', channel=9, note=36, velocity=120, time=73),
    Message('note_on', channel=9, note=46, velocity=120, time=0),
    Message('note_off', channel=9, note=36, velocity=120, time=23),
    Message('note_off', channel=9, note=46, velocity=120, time=0),
    Message('note_on', channel=9, note=36, velocity=120, time=73),
    Message('note_on', channel=9, note=46, velocity=127, time=0),
    Message('note_off', channel=9, note=36, velocity=120, time=23),
    Message('note_off', channel=9, note=46, velocity=127, time=0),
    Message('note_on', channel=9, note=38, velocity=120, time=73),
    Message('note_on', channel=9, note=44, velocity=60, time=0),
    Message('note_off', channel=9, note=38, velocity=120, time=23),
    Message('note_off', channel=9, note=44, velocity=60, time=0),
    Message('note_on', channel=9, note=36, velocity=120, time=73),
    Message('note_on', channel=9, note=49, velocity=127, time=0),
    Message('note_off', channel=9, note=36, velocity=120, time=23),
    Message('note_off', channel=9, note=49, velocity=127, time=0),
    Message('note_on', channel=9, note=46, velocity=120, time=73),
    Message('note_off', channel=9, note=46, velocity=120, time=23),
    Message('note_on', channel=9, note=36, velocity=120, time=73),
    Message('note_on', channel=9, note=46, velocity=105, time=0),
    Message('note_off', channel=9, note=36, velocity=120, time=23),
    Message('note_off', channel=9, note=46, velocity=105, time=0),
    Message('note_on', channel=9, note=38, velocity=120, time=73),
    Message('note_on', channel=9, note=46, velocity=120, time=0),
    Message('note_off', channel=9, note=38, velocity=120, time=23),
    Message('note_off', channel=9, note=46, velocity=120, time=0),
    Message('note_on', channel=9, note=46, velocity=105, time=73),
    Message('note_off', channel=9, note=46, velocity=105, time=23),
    Message('note_on', channel=9, note=36, velocity=120, time=73),
    Message('note_on', channel=9, note=46, velocity=120, time=0),
    Message('note_off', channel=9, note=36, velocity=120, time=23),
    Message('note_off', channel=9, note=46, velocity=120, time=0),
    Message('note_on', channel=9, note=46, velocity=127, time=73),
    Message('note_off', channel=9, note=46, velocity=127, time=23),
    Message('note_on', channel=9, note=38, velocity=120, time=73),
    Message('note_on', channel=9, note=44, velocity=60, time=0),
    Message('note_off', channel=9, note=38, velocity=120, time=23),
    Message('note_off', channel=9, note=44, velocity=60, time=0),
    Message('note_on', channel=9, note=57, velocity=120, time=73),
    Message('note_on', channel=9, note=36, velocity=120, time=0),
    Message('note_off', channel=9, note=57, velocity=120, time=23),
    Message('note_off', channel=9, note=36, velocity=120, time=0),
    Message('note_on', channel=9, note=47, velocity=120, time=164),
    Message('note_on', channel=9, note=50, velocity=120, time=7),
    Message('note_off', channel=9, note=47, velocity=120, time=16),
    Message('note_off', channel=9, note=50, velocity=120, time=7),
    Message('note_on', channel=9, note=50, velocity=120, time=69),
    Message('note_on', channel=9, note=47, velocity=120, time=5),
    Message('note_off', channel=9, note=50, velocity=120, time=18),
    Message('note_off', channel=9, note=47, velocity=120, time=5),
    Message('note_on', channel=9, note=48, velocity=120, time=69),
    Message('note_on', channel=9, note=45, velocity=120, time=4),
    Message('note_off', channel=9, note=48, velocity=120, time=19),
    Message('note_off', channel=9, note=45, velocity=120, time=4),
    Message('note_on', channel=9, note=48, velocity=120, time=68),
    Message('note_on', channel=9, note=45, velocity=120, time=4),
    Message('note_off', channel=9, note=48, velocity=120, time=19),
    Message('note_off', channel=9, note=45, velocity=120, time=4),
    Message('note_on', channel=9, note=47, velocity=120, time=68),
    Message('note_on', channel=9, note=43, velocity=120, time=1),
    Message('note_off', channel=9, note=47, velocity=120, time=22),
    Message('note_off', channel=9, note=43, velocity=120, time=1),
    Message('note_on', channel=9, note=43, velocity=120, time=73),
    Message('note_on', channel=9, note=47, velocity=120, time=3),
    Message('note_off', channel=9, note=43, velocity=120, time=20),
    Message('note_off', channel=9, note=47, velocity=120, time=3),
    Message('note_on', channel=9, note=36, velocity=120, time=72),
    Message('note_on', channel=9, note=49, velocity=120, time=0),
    Message('note_off', channel=9, note=36, velocity=120, time=23),
    Message('note_off', channel=9, note=49, velocity=120, time=0),
    Message('note_on', channel=9, note=51, velocity=120, time=73),
    Message('note_off', channel=9, note=51, velocity=120, time=23),
    Message('note_on', channel=9, note=36, velocity=120, time=73),
    Message('note_on', channel=9, note=51, velocity=105, time=0),
    Message('note_off', channel=9, note=36, velocity=120, time=23),
    Message('note_off', channel=9, note=51, velocity=105, time=0),
    Message('note_on', channel=9, note=36, velocity=120, time=25),
    Message('note_off', channel=9, note=36, velocity=120, time=23),
    Message('note_on', channel=9, note=38, velocity=120, time=25),
    Message('note_on', channel=9, note=57, velocity=120, time=0),
    Message('note_off', channel=9, note=38, velocity=120, time=23),
    Message('note_off', channel=9, note=57, velocity=120, time=0),
    Message('note_on', channel=9, note=51, velocity=105, time=73),
    Message('note_off', channel=9, note=51, velocity=105, time=23),
    Message('note_on', channel=9, note=51, velocity=120, time=73),
    Message('note_on', channel=9, note=36, velocity=120, time=0),
    Message('note_off', channel=9, note=51, velocity=120, time=23),
    Message('note_off', channel=9, note=36, velocity=120, time=0),
    Message('note_on', channel=9, note=51, velocity=105, time=73),
    Message('note_off', channel=9, note=51, velocity=105, time=23),
    Message('note_on', channel=9, note=51, velocity=120, time=73),
    Message('note_on', channel=9, note=38, velocity=120, time=0),
    Message('note_off', channel=9, note=51, velocity=120, time=23),
    Message('note_off', channel=9, note=38, velocity=120, time=0),
    Message('note_on', channel=9, note=51, velocity=105, time=73),
    Message('note_off', channel=9, note=51, velocity=105, time=23),
    Message('note_on', channel=9, note=51, velocity=120, time=73),
    Message('note_on', channel=9, note=36, velocity=120, time=0),
    Message('note_off', channel=9, note=51, velocity=120, time=23),
    Message('note_off', channel=9, note=36, velocity=120, time=0),
    Message('note_on', channel=9, note=51, velocity=105, time=73),
    Message('note_off', channel=9, note=51, velocity=105, time=23),
    Message('note_on', channel=9, note=51, velocity=120, time=73),
    Message('note_on', channel=9, note=38, velocity=120, time=0),
    Message('note_off', channel=9, note=51, velocity=120, time=23),
    Message('note_off', channel=9, note=38, velocity=120, time=0),
    Message('note_on', channel=9, note=51, velocity=105, time=73),
    Message('note_off', channel=9, note=51, velocity=105, time=23),
    Message('note_on', channel=9, note=51, velocity=120, time=73),
    Message('note_on', channel=9, note=36, velocity=120, time=0),
    Message('note_off', channel=9, note=51, velocity=120, time=23),
    Message('note_off', channel=9, note=36, velocity=120, time=0),
    Message('note_on', channel=9, note=51, velocity=105, time=73),
    Message('note_off', channel=9, note=51, velocity=105, time=23),
    Message('note_on', channel=9, note=51, velocity=120, time=73),
    Message('note_on', channel=9, note=38, velocity=120, time=0),
    Message('note_off', channel=9, note=51, velocity=120, time=23),
    Message('note_off', channel=9, note=38, velocity=120, time=0),
    Message('note_on', channel=9, note=51, velocity=105, time=73),
    Message('note_off', channel=9, note=51, velocity=105, time=23),
    Message('note_on', channel=9, note=51, velocity=120, time=73),
    Message('note_on', channel=9, note=36, velocity=120, time=0),
    Message('note_off', channel=9, note=51, velocity=120, time=23),
    Message('note_off', channel=9, note=36, velocity=120, time=0),
    Message('note_on', channel=9, note=51, velocity=105, time=73),
    Message('note_off', channel=9, note=51, velocity=105, time=23),
    Message('note_on', channel=9, note=51, velocity=120, time=73),
    Message('note_on', channel=9, note=38, velocity=120, time=0),
    Message('note_off', channel=9, note=51, velocity=120, time=23),
    Message('note_off', channel=9, note=38, velocity=120, time=0),
    Message('note_on', channel=9, note=51, velocity=105, time=73),
    Message('note_off', channel=9, note=51, velocity=105, time=23),
    Message('note_on', channel=9, note=51, velocity=120, time=73),
    Message('note_on', channel=9, note=36, velocity=120, time=0),
    Message('note_off', channel=9, note=51, velocity=120, time=23),
    Message('note_off', channel=9, note=36, velocity=120, time=0),
    Message('note_on', channel=9, note=51, velocity=105, time=73),
    Message('note_off', channel=9, note=51, velocity=105, time=23),
    Message('note_on', channel=9, note=51, velocity=120, time=73),
    Message('note_on', channel=9, note=38, velocity=120, time=0),
    Message('note_off', channel=9, note=51, velocity=120, time=23),
    Message('note_off', channel=9, note=38, velocity=120, time=0),
    Message('note_on', channel=9, note=51, velocity=105, time=73),
    Message('note_off', channel=9, note=51, velocity=105, time=23),
    Message('note_on', channel=9, note=51, velocity=120, time=73),
    Message('note_on', channel=9, note=36, velocity=120, time=0),
    Message('note_off', channel=9, note=51, velocity=120, time=23),
    Message('note_off', channel=9, note=36, velocity=120, time=0),
    Message('note_on', channel=9, note=51, velocity=105, time=73),
    Message('note_off', channel=9, note=51, velocity=105, time=23),
    Message('note_on', channel=9, note=51, velocity=120, time=73),
    Message('note_on', channel=9, note=36, velocity=120, time=0),
    Message('note_off', channel=9, note=51, velocity=120, time=23),
    Message('note_off', channel=9, note=36, velocity=120, time=0),
    Message('note_on', channel=9, note=38, velocity=120, time=73),
    Message('note_on', channel=9, note=57, velocity=120, time=0),
    Message('note_off', channel=9, note=38, velocity=120, time=23),
    Message('note_off', channel=9, note=57, velocity=120, time=0),
    Message('note_on', channel=9, note=36, velocity=120, time=73),
    Message('note_off', channel=9, note=36, velocity=120, time=23),
    Message('note_on', channel=9, note=36, velocity=120, time=73),
    Message('note_off', channel=9, note=36, velocity=120, time=23),
    Message('note_on', channel=9, note=38, velocity=120, time=73),
    Message('note_on', channel=9, note=49, velocity=120, time=0),
    Message('note_off', channel=9, note=38, velocity=120, time=23),
    Message('note_off', channel=9, note=49, velocity=120, time=0),
    Message('note_on', channel=9, note=57, velocity=120, time=169),
    Message('note_on', channel=9, note=36, velocity=120, time=0),
    Message('note_off', channel=9, note=57, velocity=120, time=23),
    Message('note_off', channel=9, note=36, velocity=120, time=0),
    Message('note_on', channel=9, note=51, velocity=105, time=73),
    Message('note_off', channel=9, note=51, velocity=105, time=23),
    Message('note_on', channel=9, note=38, velocity=120, time=73),
    Message('note_on', channel=9, note=51, velocity=120, time=0),
    Message('note_off', channel=9, note=38, velocity=120, time=23),
    Message('note_off', channel=9, note=51, velocity=120, time=0),
    Message('note_on', channel=9, note=51, velocity=105, time=73),
    Message('note_off', channel=9, note=51, velocity=105, time=23),
    Message('note_on', channel=9, note=51, velocity=120, time=73),
    Message('note_on', channel=9, note=36, velocity=120, time=0),
    Message('note_off', channel=9, note=51, velocity=120, time=23),
    Message('note_off', channel=9, note=36, velocity=120, time=0),
    Message('note_on', channel=9, note=51, velocity=105, time=73),
    Message('note_off', channel=9, note=51, velocity=105, time=23),
    Message('note_on', channel=9, note=51, velocity=120, time=73),
    Message('note_on', channel=9, note=38, velocity=120, time=0),
    Message('note_off', channel=9, note=51, velocity=120, time=23),
    Message('note_off', channel=9, note=38, velocity=120, time=0),
    Message('note_on', channel=9, note=51, velocity=105, time=73),
    Message('note_off', channel=9, note=51, velocity=105, time=23),
    Message('note_on', channel=9, note=51, velocity=120, time=73),
    Message('note_on', channel=9, note=36, velocity=120, time=0),
    Message('note_off', channel=9, note=51, velocity=120, time=23),
    Message('note_off', channel=9, note=36, velocity=120, time=0),
    Message('note_on', channel=9, note=51, velocity=105, time=73),
    Message('note_off', channel=9, note=51, velocity=105, time=23),
    Message('note_on', channel=9, note=51, velocity=120, time=73),
    Message('note_on', channel=9, note=38, velocity=120, time=0),
    Message('note_off', channel=9, note=51, velocity=120, time=23),
    Message('note_off', channel=9, note=38, velocity=120, time=0),
    Message('note_on', channel=9, note=51, velocity=105, time=73),
    Message('note_off', channel=9, note=51, velocity=105, time=23),
    Message('note_on', channel=9, note=51, velocity=120, time=73),
    Message('note_on', channel=9, note=36, velocity=120, time=0),
    Message('note_off', channel=9, note=51, velocity=120, time=23),
    Message('note_off', channel=9, note=36, velocity=120, time=0),
    Message('note_on', channel=9, note=51, velocity=105, time=73),
    Message('note_off', channel=9, note=51, velocity=105, time=23),
    Message('note_on', channel=9, note=51, velocity=120, time=73),
    Message('note_on', channel=9, note=38, velocity=120, time=0),
    Message('note_off', channel=9, note=51, velocity=120, time=23),
    Message('note_off', channel=9, note=38, velocity=120, time=0),
    Message('note_on', channel=9, note=51, velocity=105, time=73),
    Message('note_off', channel=9, note=51, velocity=105, time=23),
    Message('note_on', channel=9, note=51, velocity=120, time=73),
    Message('note_on', channel=9, note=36, velocity=120, time=0),
    Message('note_off', channel=9, note=51, velocity=120, time=23),
    Message('note_off', channel=9, note=36, velocity=120, time=0),
    Message('note_on', channel=9, note=51, velocity=105, time=73),
    Message('note_off', channel=9, note=51, velocity=105, time=23),
    Message('note_on', channel=9, note=51, velocity=120, time=73),
    Message('note_on', channel=9, note=38, velocity=120, time=0),
    Message('note_off', channel=9, note=51, velocity=120, time=23),
    Message('note_off', channel=9, note=38, velocity=120, time=0),
    Message('note_on', channel=9, note=51, velocity=105, time=73),
    Message('note_off', channel=9, note=51, velocity=105, time=23),
    Message('note_on', channel=9, note=51, velocity=120, time=73),
    Message('note_on', channel=9, note=36, velocity=120, time=0),
    Message('note_off', channel=9, note=51, velocity=120, time=23),
    Message('note_off', channel=9, note=36, velocity=120, time=0),
    Message('note_on', channel=9, note=51, velocity=105, time=73),
    Message('note_off', channel=9, note=51, velocity=105, time=23),
    Message('note_on', channel=9, note=51, velocity=120, time=73),
    Message('note_on', channel=9, note=38, velocity=120, time=0),
    Message('note_off', channel=9, note=51, velocity=120, time=23),
    Message('note_off', channel=9, note=38, velocity=120, time=0),
    Message('note_on', channel=9, note=51, velocity=105, time=73),
    Message('note_off', channel=9, note=51, velocity=105, time=23),
    Message('note_on', channel=9, note=45, velocity=105, time=71),
    Message('note_on', channel=9, note=41, velocity=105, time=6),
    Message('note_off', channel=9, note=45, velocity=105, time=17),
    Message('note_off', channel=9, note=41, velocity=105, time=6),
    Message('note_on', channel=9, note=41, velocity=105, time=67),
    Message('note_on', channel=9, note=45, velocity=105, time=4),
    Message('note_off', channel=9, note=41, velocity=105, time=19),
    Message('note_off', channel=9, note=45, velocity=105, time=4),
    Message('note_on', channel=9, note=41, velocity=105, time=70),
    Message('note_on', channel=9, note=45, velocity=105, time=3),
    Message('note_off', channel=9, note=41, velocity=105, time=20),
    Message('note_off', channel=9, note=45, velocity=105, time=3),
    Message('note_on', channel=9, note=45, velocity=105, time=68),
    Message('note_on', channel=9, note=41, velocity=105, time=5),
    Message('note_off', channel=9, note=45, velocity=105, time=18),
    Message('note_off', channel=9, note=41, velocity=105, time=5),
    Message('note_on', channel=9, note=36, velocity=120, time=71),
    Message('note_on', channel=9, note=57, velocity=120, time=0),
    Message('note_off', channel=9, note=36, velocity=120, time=23),
    Message('note_off', channel=9, note=57, velocity=120, time=0),
    Message('note_on', channel=9, note=36, velocity=120, time=361),
    Message('note_on', channel=9, note=49, velocity=120, time=0),
    Message('note_on', channel=9, note=57, velocity=120, time=0),
    Message('note_off', channel=9, note=36, velocity=120, time=23),
    Message('note_off', channel=9, note=49, velocity=120, time=0),
    Message('note_off', channel=9, note=57, velocity=120, time=0),
    Message('note_on', channel=9, note=46, velocity=105, time=73),
    Message('note_off', channel=9, note=46, velocity=105, time=23),
    Message('note_on', channel=9, note=38, velocity=120, time=73),
    Message('note_on', channel=9, note=46, velocity=120, time=0),
    Message('note_off', channel=9, note=38, velocity=120, time=23),
    Message('note_off', channel=9, note=46, velocity=120, time=0),
    Message('note_on', channel=9, note=46, velocity=105, time=73),
    Message('note_off', channel=9, note=46, velocity=105, time=23),
    Message('note_on', channel=9, note=36, velocity=120, time=73),
    Message('note_on', channel=9, note=46, velocity=120, time=0),
    Message('note_off', channel=9, note=36, velocity=120, time=23),
    Message('note_off', channel=9, note=46, velocity=120, time=0),
    Message('note_on', channel=9, note=46, velocity=105, time=73),
    Message('note_off', channel=9, note=46, velocity=105, time=23),
    Message('note_on', channel=9, note=38, velocity=120, time=73),
    Message('note_on', channel=9, note=46, velocity=120, time=0),
    Message('note_off', channel=9, note=38, velocity=120, time=23),
    Message('note_off', channel=9, note=46, velocity=120, time=0),
    Message('note_on', channel=9, note=46, velocity=105, time=73),
    Message('note_off', channel=9, note=46, velocity=105, time=23),
    Message('note_on', channel=9, note=46, velocity=120, time=73),
    Message('note_on', channel=9, note=36, velocity=120, time=0),
    Message('note_off', channel=9, note=46, velocity=120, time=23),
    Message('note_off', channel=9, note=36, velocity=120, time=0),
    Message('note_on', channel=9, note=46, velocity=105, time=73),
    Message('note_off', channel=9, note=46, velocity=105, time=23),
    Message('note_on', channel=9, note=38, velocity=120, time=73),
    Message('note_on', channel=9, note=46, velocity=120, time=0),
    Message('note_off', channel=9, note=38, velocity=120, time=23),
    Message('note_off', channel=9, note=46, velocity=120, time=0),
    Message('note_on', channel=9, note=46, velocity=105, time=73),
    Message('note_off', channel=9, note=46, velocity=105, time=23),
    Message('note_on', channel=9, note=46, velocity=120, time=73),
    Message('note_on', channel=9, note=36, velocity=120, time=0),
    Message('note_off', channel=9, note=46, velocity=120, time=23),
    Message('note_off', channel=9, note=36, velocity=120, time=0),
    Message('note_on', channel=9, note=46, velocity=105, time=73),
    Message('note_off', channel=9, note=46, velocity=105, time=23),
    Message('note_on', channel=9, note=38, velocity=120, time=73),
    Message('note_on', channel=9, note=46, velocity=120, time=0),
    Message('note_off', channel=9, note=38, velocity=120, time=23),
    Message('note_off', channel=9, note=46, velocity=120, time=0),
    Message('note_on', channel=9, note=46, velocity=105, time=73),
    Message('note_off', channel=9, note=46, velocity=105, time=23),
    Message('note_on', channel=9, note=46, velocity=120, time=73),
    Message('note_on', channel=9, note=36, velocity=120, time=0),
    Message('note_off', channel=9, note=46, velocity=120, time=23),
    Message('note_off', channel=9, note=36, velocity=120, time=0),
    Message('note_on', channel=9, note=46, velocity=105, time=73),
    Message('note_off', channel=9, note=46, velocity=105, time=23),
    Message('note_on', channel=9, note=38, velocity=120, time=73),
    Message('note_on', channel=9, note=46, velocity=120, time=0),
    Message('note_off', channel=9, note=38, velocity=120, time=23),
    Message('note_off', channel=9, note=46, velocity=120, time=0),
    Message('note_on', channel=9, note=46, velocity=105, time=73),
    Message('note_off', channel=9, note=46, velocity=105, time=23),
    Message('note_on', channel=9, note=46, velocity=120, time=73),
    Message('note_on', channel=9, note=36, velocity=120, time=0),
    Message('note_off', channel=9, note=46, velocity=120, time=23),
    Message('note_off', channel=9, note=36, velocity=120, time=0),
    Message('note_on', channel=9, note=46, velocity=105, time=73),
    Message('note_off', channel=9, note=46, velocity=105, time=23),
    Message('note_on', channel=9, note=38, velocity=120, time=73),
    Message('note_on', channel=9, note=46, velocity=120, time=0),
    Message('note_off', channel=9, note=38, velocity=120, time=23),
    Message('note_off', channel=9, note=46, velocity=120, time=0),
    Message('note_on', channel=9, note=46, velocity=105, time=73),
    Message('note_off', channel=9, note=46, velocity=105, time=23),
    Message('note_on', channel=9, note=46, velocity=120, time=73),
    Message('note_on', channel=9, note=36, velocity=120, time=0),
    Message('note_off', channel=9, note=46, velocity=120, time=23),
    Message('note_off', channel=9, note=36, velocity=120, time=0),
    Message('note_on', channel=9, note=46, velocity=105, time=73),
    Message('note_off', channel=9, note=46, velocity=105, time=23),
    Message('note_on', channel=9, note=38, velocity=120, time=73),
    Message('note_on', channel=9, note=46, velocity=120, time=0),
    Message('note_off', channel=9, note=38, velocity=120, time=23),
    Message('note_off', channel=9, note=46, velocity=120, time=0),
    Message('note_on', channel=9, note=46, velocity=105, time=73),
    Message('note_off', channel=9, note=46, velocity=105, time=23),
    Message('note_on', channel=9, note=46, velocity=120, time=73),
    Message('note_on', channel=9, note=36, velocity=120, time=0),
    Message('note_off', channel=9, note=46, velocity=120, time=23),
    Message('note_off', channel=9, note=36, velocity=120, time=0),
    Message('note_on', channel=9, note=46, velocity=105, time=73),
    Message('note_on', channel=9, note=36, velocity=120, time=0),
    Message('note_off', channel=9, note=46, velocity=105, time=23),
    Message('note_off', channel=9, note=36, velocity=120, time=0),
    Message('note_on', channel=9, note=38, velocity=120, time=73),
    Message('note_on', channel=9, note=46, velocity=120, time=0),
    Message('note_off', channel=9, note=38, velocity=120, time=23),
    Message('note_off', channel=9, note=46, velocity=120, time=0),
    Message('note_on', channel=9, note=46, velocity=105, time=73),
    Message('note_off', channel=9, note=46, velocity=105, time=23),
    Message('note_on', channel=9, note=36, velocity=120, time=73),
    Message('note_on', channel=9, note=49, velocity=120, time=0),
    Message('note_on', channel=9, note=57, velocity=120, time=0),
    Message('note_off', channel=9, note=36, velocity=120, time=23),
    Message('note_off', channel=9, note=49, velocity=120, time=0),
    Message('note_off', channel=9, note=57, velocity=120, time=0),
    Message('note_on', channel=9, note=46, velocity=105, time=73),
    Message('note_off', channel=9, note=46, velocity=105, time=23),
    Message('note_on', channel=9, note=38, velocity=120, time=73),
    Message('note_on', channel=9, note=46, velocity=120, time=0),
    Message('note_off', channel=9, note=38, velocity=120, time=23),
    Message('note_off', channel=9, note=46, velocity=120, time=0),
    Message('note_on', channel=9, note=46, velocity=105, time=73),
    Message('note_off', channel=9, note=46, velocity=105, time=23),
    Message('note_on', channel=9, note=36, velocity=120, time=73),
    Message('note_on', channel=9, note=46, velocity=120, time=0),
    Message('note_off', channel=9, note=36, velocity=120, time=23),
    Message('note_off', channel=9, note=46, velocity=120, time=0),
    Message('note_on', channel=9, note=46, velocity=105, time=73),
    Message('note_off', channel=9, note=46, velocity=105, time=23),
    Message('note_on', channel=9, note=38, velocity=120, time=73),
    Message('note_on', channel=9, note=46, velocity=120, time=0),
    Message('note_off', channel=9, note=38, velocity=120, time=23),
    Message('note_off', channel=9, note=46, velocity=120, time=0),
    Message('note_on', channel=9, note=46, velocity=105, time=73),
    Message('note_off', channel=9, note=46, velocity=105, time=23),
    Message('note_on', channel=9, note=46, velocity=120, time=73),
    Message('note_on', channel=9, note=36, velocity=120, time=0),
    Message('note_off', channel=9, note=46, velocity=120, time=23),
    Message('note_off', channel=9, note=36, velocity=120, time=0),
    Message('note_on', channel=9, note=46, velocity=105, time=73),
    Message('note_off', channel=9, note=46, velocity=105, time=23),
    Message('note_on', channel=9, note=38, velocity=120, time=73),
    Message('note_on', channel=9, note=46, velocity=120, time=0),
    Message('note_off', channel=9, note=38, velocity=120, time=23),
    Message('note_off', channel=9, note=46, velocity=120, time=0),
    Message('note_on', channel=9, note=46, velocity=105, time=73),
    Message('note_off', channel=9, note=46, velocity=105, time=23),
    Message('note_on', channel=9, note=46, velocity=120, time=73),
    Message('note_on', channel=9, note=36, velocity=120, time=0),
    Message('note_off', channel=9, note=46, velocity=120, time=23),
    Message('note_off', channel=9, note=36, velocity=120, time=0),
    Message('note_on', channel=9, note=46, velocity=105, time=73),
    Message('note_off', channel=9, note=46, velocity=105, time=23),
    Message('note_on', channel=9, note=38, velocity=120, time=73),
    Message('note_on', channel=9, note=46, velocity=120, time=0),
    Message('note_off', channel=9, note=38, velocity=120, time=23),
    Message('note_off', channel=9, note=46, velocity=120, time=0),
    Message('note_on', channel=9, note=46, velocity=105, time=73),
    Message('note_off', channel=9, note=46, velocity=105, time=23),
    Message('note_on', channel=9, note=46, velocity=120, time=73),
    Message('note_on', channel=9, note=36, velocity=120, time=0),
    Message('note_off', channel=9, note=46, velocity=120, time=23),
    Message('note_off', channel=9, note=36, velocity=120, time=0),
    Message('note_on', channel=9, note=46, velocity=105, time=73),
    Message('note_off', channel=9, note=46, velocity=105, time=23),
    Message('note_on', channel=9, note=38, velocity=120, time=73),
    Message('note_on', channel=9, note=46, velocity=120, time=0),
    Message('note_off', channel=9, note=38, velocity=120, time=23),
    Message('note_off', channel=9, note=46, velocity=120, time=0),
    Message('note_on', channel=9, note=46, velocity=105, time=73),
    Message('note_off', channel=9, note=46, velocity=105, time=23),
    Message('note_on', channel=9, note=46, velocity=120, time=73),
    Message('note_on', channel=9, note=36, velocity=120, time=0),
    Message('note_off', channel=9, note=46, velocity=120, time=23),
    Message('note_off', channel=9, note=36, velocity=120, time=0),
    Message('note_on', channel=9, note=46, velocity=105, time=73),
    Message('note_off', channel=9, note=46, velocity=105, time=23),
    Message('note_on', channel=9, note=38, velocity=120, time=73),
    Message('note_on', channel=9, note=46, velocity=120, time=0),
    Message('note_off', channel=9, note=38, velocity=120, time=23),
    Message('note_off', channel=9, note=46, velocity=120, time=0),
    Message('note_on', channel=9, note=46, velocity=105, time=73),
    Message('note_off', channel=9, note=46, velocity=105, time=23),
    Message('note_on', channel=9, note=46, velocity=120, time=73),
    Message('note_on', channel=9, note=36, velocity=120, time=0),
    Message('note_off', channel=9, note=46, velocity=120, time=23),
    Message('note_off', channel=9, note=36, velocity=120, time=0),
    Message('note_on', channel=9, note=46, velocity=105, time=73),
    Message('note_off', channel=9, note=46, velocity=105, time=23),
    Message('note_on', channel=9, note=38, velocity=120, time=73),
    Message('note_on', channel=9, note=46, velocity=120, time=0),
    Message('note_off', channel=9, note=38, velocity=120, time=23),
    Message('note_off', channel=9, note=46, velocity=120, time=0),
    Message('note_on', channel=9, note=46, velocity=105, time=73),
    Message('note_off', channel=9, note=46, velocity=105, time=23),
    Message('note_on', channel=9, note=46, velocity=120, time=73),
    Message('note_on', channel=9, note=36, velocity=120, time=0),
    Message('note_off', channel=9, note=46, velocity=120, time=23),
    Message('note_off', channel=9, note=36, velocity=120, time=0),
    Message('note_on', channel=9, note=46, velocity=105, time=73),
    Message('note_on', channel=9, note=36, velocity=120, time=0),
    Message('note_off', channel=9, note=46, velocity=105, time=23),
    Message('note_off', channel=9, note=36, velocity=120, time=0),
    Message('note_on', channel=9, note=38, velocity=120, time=73),
    Message('note_on', channel=9, note=46, velocity=120, time=0),
    Message('note_off', channel=9, note=38, velocity=120, time=23),
    Message('note_off', channel=9, note=46, velocity=120, time=0),
    Message('note_on', channel=9, note=46, velocity=105, time=73),
    Message('note_off', channel=9, note=46, velocity=105, time=23),
    Message('note_on', channel=9, note=36, velocity=120, time=73),
    Message('note_on', channel=9, note=49, velocity=120, time=0),
    Message('note_on', channel=9, note=57, velocity=120, time=0),
    Message('note_off', channel=9, note=36, velocity=120, time=23),
    Message('note_off', channel=9, note=49, velocity=120, time=0),
    Message('note_off', channel=9, note=57, velocity=120, time=0),
    Message('note_on', channel=9, note=46, velocity=105, time=73),
    Message('note_off', channel=9, note=46, velocity=105, time=23),
    Message('note_on', channel=9, note=38, velocity=120, time=73),
    Message('note_on', channel=9, note=46, velocity=120, time=0),
    Message('note_off', channel=9, note=38, velocity=120, time=23),
    Message('note_off', channel=9, note=46, velocity=120, time=0),
    Message('note_on', channel=9, note=46, velocity=105, time=73),
    Message('note_off', channel=9, note=46, velocity=105, time=23),
    Message('note_on', channel=9, note=36, velocity=120, time=73),
    Message('note_on', channel=9, note=46, velocity=120, time=0),
    Message('note_off', channel=9, note=36, velocity=120, time=23),
    Message('note_off', channel=9, note=46, velocity=120, time=0),
    Message('note_on', channel=9, note=46, velocity=105, time=73),
    Message('note_off', channel=9, note=46, velocity=105, time=23),
    Message('note_on', channel=9, note=38, velocity=120, time=73),
    Message('note_on', channel=9, note=46, velocity=120, time=0),
    Message('note_off', channel=9, note=38, velocity=120, time=23),
    Message('note_off', channel=9, note=46, velocity=120, time=0),
    Message('note_on', channel=9, note=46, velocity=105, time=73),
    Message('note_off', channel=9, note=46, velocity=105, time=23),
    Message('note_on', channel=9, note=46, velocity=120, time=73),
    Message('note_on', channel=9, note=36, velocity=120, time=0),
    Message('note_off', channel=9, note=46, velocity=120, time=23),
    Message('note_off', channel=9, note=36, velocity=120, time=0),
    Message('note_on', channel=9, note=46, velocity=105, time=73),
    Message('note_off', channel=9, note=46, velocity=105, time=23),
    Message('note_on', channel=9, note=38, velocity=120, time=73),
    Message('note_on', channel=9, note=46, velocity=120, time=0),
    Message('note_off', channel=9, note=38, velocity=120, time=23),
    Message('note_off', channel=9, note=46, velocity=120, time=0),
    Message('note_on', channel=9, note=46, velocity=105, time=73),
    Message('note_off', channel=9, note=46, velocity=105, time=23),
    Message('note_on', channel=9, note=46, velocity=120, time=73),
    Message('note_on', channel=9, note=36, velocity=120, time=0),
    Message('note_off', channel=9, note=46, velocity=120, time=23),
    Message('note_off', channel=9, note=36, velocity=120, time=0),
    Message('note_on', channel=9, note=46, velocity=105, time=73),
    Message('note_off', channel=9, note=46, velocity=105, time=23),
    Message('note_on', channel=9, note=38, velocity=120, time=73),
    Message('note_on', channel=9, note=46, velocity=120, time=0),
    Message('note_off', channel=9, note=38, velocity=120, time=23),
    Message('note_off', channel=9, note=46, velocity=120, time=0),
    Message('note_on', channel=9, note=46, velocity=105, time=73),
    Message('note_off', channel=9, note=46, velocity=105, time=23),
    Message('note_on', channel=9, note=46, velocity=120, time=73),
    Message('note_on', channel=9, note=36, velocity=120, time=0),
    Message('note_off', channel=9, note=46, velocity=120, time=23),
    Message('note_off', channel=9, note=36, velocity=120, time=0),
    Message('note_on', channel=9, note=46, velocity=105, time=73),
    Message('note_off', channel=9, note=46, velocity=105, time=23),
    Message('note_on', channel=9, note=38, velocity=120, time=73),
    Message('note_on', channel=9, note=46, velocity=120, time=0),
    Message('note_off', channel=9, note=38, velocity=120, time=23),
    Message('note_off', channel=9, note=46, velocity=120, time=0),
    Message('note_on', channel=9, note=46, velocity=105, time=73),
    Message('note_off', channel=9, note=46, velocity=105, time=23),
    Message('note_on', channel=9, note=46, velocity=120, time=73),
    Message('note_on', channel=9, note=36, velocity=120, time=0),
    Message('note_off', channel=9, note=46, velocity=120, time=23),
    Message('note_off', channel=9, note=36, velocity=120, time=0),
    Message('note_on', channel=9, note=46, velocity=105, time=73),
    Message('note_off', channel=9, note=46, velocity=105, time=23),
    Message('note_on', channel=9, note=38, velocity=120, time=73),
    Message('note_on', channel=9, note=46, velocity=120, time=0),
    Message('note_off', channel=9, note=38, velocity=120, time=23),
    Message('note_off', channel=9, note=46, velocity=120, time=0),
    Message('note_on', channel=9, note=46, velocity=105, time=73),
    Message('note_off', channel=9, note=46, velocity=105, time=23),
    Message('note_on', channel=9, note=46, velocity=120, time=73),
    Message('note_on', channel=9, note=36, velocity=120, time=0),
    Message('note_off', channel=9, note=46, velocity=120, time=23),
    Message('note_off', channel=9, note=36, velocity=120, time=0),
    Message('note_on', channel=9, note=46, velocity=105, time=73),
    Message('note_off', channel=9, note=46, velocity=105, time=23),
    Message('note_on', channel=9, note=38, velocity=120, time=73),
    Message('note_on', channel=9, note=46, velocity=120, time=0),
    Message('note_off', channel=9, note=38, velocity=120, time=23),
    Message('note_off', channel=9, note=46, velocity=120, time=0),
    Message('note_on', channel=9, note=46, velocity=105, time=73),
    Message('note_off', channel=9, note=46, velocity=105, time=23),
    Message('note_on', channel=9, note=46, velocity=120, time=73),
    Message('note_on', channel=9, note=36, velocity=120, time=0),
    Message('note_off', channel=9, note=46, velocity=120, time=23),
    Message('note_off', channel=9, note=36, velocity=120, time=0),
    Message('note_on', channel=9, note=46, velocity=105, time=73),
    Message('note_on', channel=9, note=36, velocity=120, time=0),
    Message('note_off', channel=9, note=46, velocity=105, time=23),
    Message('note_off', channel=9, note=36, velocity=120, time=0),
    Message('note_on', channel=9, note=38, velocity=120, time=73),
    Message('note_on', channel=9, note=46, velocity=120, time=0),
    Message('note_off', channel=9, note=38, velocity=120, time=23),
    Message('note_off', channel=9, note=46, velocity=120, time=0),
    Message('note_on', channel=9, note=46, velocity=105, time=73),
    Message('note_off', channel=9, note=46, velocity=105, time=23),
    Message('note_on', channel=9, note=36, velocity=120, time=73),
    Message('note_on', channel=9, note=49, velocity=120, time=0),
    Message('note_on', channel=9, note=57, velocity=120, time=0),
    Message('note_off', channel=9, note=36, velocity=120, time=23),
    Message('note_off', channel=9, note=49, velocity=120, time=0),
    Message('note_off', channel=9, note=57, velocity=120, time=0),
    Message('note_on', channel=9, note=46, velocity=105, time=73),
    Message('note_off', channel=9, note=46, velocity=105, time=23),
    Message('note_on', channel=9, note=38, velocity=120, time=73),
    Message('note_on', channel=9, note=46, velocity=120, time=0),
    Message('note_off', channel=9, note=38, velocity=120, time=23),
    Message('note_off', channel=9, note=46, velocity=120, time=0),
    Message('note_on', channel=9, note=46, velocity=105, time=73),
    Message('note_off', channel=9, note=46, velocity=105, time=23),
    Message('note_on', channel=9, note=36, velocity=120, time=73),
    Message('note_on', channel=9, note=46, velocity=120, time=0),
    Message('note_off', channel=9, note=36, velocity=120, time=23),
    Message('note_off', channel=9, note=46, velocity=120, time=0),
    Message('note_on', channel=9, note=46, velocity=105, time=73),
    Message('note_off', channel=9, note=46, velocity=105, time=23),
    Message('note_on', channel=9, note=38, velocity=120, time=73),
    Message('note_on', channel=9, note=46, velocity=120, time=0),
    Message('note_off', channel=9, note=38, velocity=120, time=23),
    Message('note_off', channel=9, note=46, velocity=120, time=0),
    Message('note_on', channel=9, note=46, velocity=105, time=73),
    Message('note_off', channel=9, note=46, velocity=105, time=23),
    Message('note_on', channel=9, note=46, velocity=120, time=73),
    Message('note_on', channel=9, note=36, velocity=120, time=0),
    Message('note_off', channel=9, note=46, velocity=120, time=23),
    Message('note_off', channel=9, note=36, velocity=120, time=0),
    Message('note_on', channel=9, note=46, velocity=105, time=73),
    Message('note_off', channel=9, note=46, velocity=105, time=23),
    Message('note_on', channel=9, note=38, velocity=120, time=73),
    Message('note_on', channel=9, note=46, velocity=120, time=0),
    Message('note_off', channel=9, note=38, velocity=120, time=23),
    Message('note_off', channel=9, note=46, velocity=120, time=0),
    Message('note_on', channel=9, note=46, velocity=105, time=73),
    Message('note_off', channel=9, note=46, velocity=105, time=23),
    Message('note_on', channel=9, note=46, velocity=120, time=73),
    Message('note_on', channel=9, note=36, velocity=120, time=0),
    Message('note_off', channel=9, note=46, velocity=120, time=23),
    Message('note_off', channel=9, note=36, velocity=120, time=0),
    Message('note_on', channel=9, note=46, velocity=105, time=73),
    Message('note_off', channel=9, note=46, velocity=105, time=23),
    Message('note_on', channel=9, note=38, velocity=120, time=73),
    Message('note_on', channel=9, note=46, velocity=120, time=0),
    Message('note_off', channel=9, note=38, velocity=120, time=23),
    Message('note_off', channel=9, note=46, velocity=120, time=0),
    Message('note_on', channel=9, note=46, velocity=105, time=73),
    Message('note_off', channel=9, note=46, velocity=105, time=23),
    Message('note_on', channel=9, note=46, velocity=120, time=73),
    Message('note_on', channel=9, note=36, velocity=120, time=0),
    Message('note_off', channel=9, note=46, velocity=120, time=23),
    Message('note_off', channel=9, note=36, velocity=120, time=0),
    Message('note_on', channel=9, note=46, velocity=105, time=73),
    Message('note_off', channel=9, note=46, velocity=105, time=23),
    Message('note_on', channel=9, note=38, velocity=120, time=73),
    Message('note_on', channel=9, note=46, velocity=120, time=0),
    Message('note_off', channel=9, note=38, velocity=120, time=23),
    Message('note_off', channel=9, note=46, velocity=120, time=0),
    Message('note_on', channel=9, note=46, velocity=105, time=73),
    Message('note_off', channel=9, note=46, velocity=105, time=23),
    Message('note_on', channel=9, note=46, velocity=120, time=73),
    Message('note_on', channel=9, note=36, velocity=120, time=0),
    Message('note_off', channel=9, note=46, velocity=120, time=23),
    Message('note_off', channel=9, note=36, velocity=120, time=0),
    Message('note_on', channel=9, note=46, velocity=105, time=73),
    Message('note_off', channel=9, note=46, velocity=105, time=23),
    Message('note_on', channel=9, note=38, velocity=120, time=73),
    Message('note_on', channel=9, note=46, velocity=120, time=0),
    Message('note_off', channel=9, note=38, velocity=120, time=23),
    Message('note_off', channel=9, note=46, velocity=120, time=0),
    Message('note_on', channel=9, note=46, velocity=105, time=73),
    Message('note_off', channel=9, note=46, velocity=105, time=23),
    Message('note_on', channel=9, note=46, velocity=120, time=73),
    Message('note_on', channel=9, note=36, velocity=120, time=0),
    Message('note_off', channel=9, note=46, velocity=120, time=23),
    Message('note_off', channel=9, note=36, velocity=120, time=0),
    Message('note_on', channel=9, note=46, velocity=105, time=73),
    Message('note_off', channel=9, note=46, velocity=105, time=23),
    Message('note_on', channel=9, note=38, velocity=120, time=73),
    Message('note_on', channel=9, note=46, velocity=120, time=0),
    Message('note_off', channel=9, note=38, velocity=120, time=23),
    Message('note_off', channel=9, note=46, velocity=120, time=0),
    Message('note_on', channel=9, note=46, velocity=105, time=73),
    Message('note_off', channel=9, note=46, velocity=105, time=23),
    Message('note_on', channel=9, note=46, velocity=120, time=73),
    Message('note_on', channel=9, note=36, velocity=120, time=0),
    Message('note_off', channel=9, note=46, velocity=120, time=23),
    Message('note_off', channel=9, note=36, velocity=120, time=0),
    Message('note_on', channel=9, note=46, velocity=120, time=73),
    Message('note_on', channel=9, note=38, velocity=120, time=0),
    Message('note_off', channel=9, note=46, velocity=120, time=23),
    Message('note_off', channel=9, note=38, velocity=120, time=0),
    Message('note_on', channel=9, note=38, velocity=120, time=73),
    Message('note_on', channel=9, note=46, velocity=120, time=0),
    Message('note_off', channel=9, note=38, velocity=120, time=23),
    Message('note_off', channel=9, note=46, velocity=120, time=0),
    Message('note_on', channel=9, note=36, velocity=120, time=73),
    Message('note_on', channel=9, note=57, velocity=120, time=0),
    Message('note_off', channel=9, note=36, velocity=120, time=23),
    Message('note_off', channel=9, note=57, velocity=120, time=0),
    Message('note_on', channel=9, note=46, velocity=120, time=73),
    Message('note_off', channel=9, note=46, velocity=120, time=23),
    Message('note_on', channel=9, note=36, velocity=120, time=73),
    Message('note_on', channel=9, note=46, velocity=105, time=0),
    Message('note_off', channel=9, note=36, velocity=120, time=23),
    Message('note_off', channel=9, note=46, velocity=105, time=0),
    Message('note_on', channel=9, note=38, velocity=120, time=73),
    Message('note_on', channel=9, note=46, velocity=120, time=0),
    Message('note_off', channel=9, note=38, velocity=120, time=23),
    Message('note_off', channel=9, note=46, velocity=120, time=0),
    Message('note_on', channel=9, note=46, velocity=105, time=73),
    Message('note_off', channel=9, note=46, velocity=105, time=23),
    Message('note_on', channel=9, note=36, velocity=120, time=73),
    Message('note_on', channel=9, note=46, velocity=120, time=0),
    Message('note_off', channel=9, note=36, velocity=120, time=23),
    Message('note_off', channel=9, note=46, velocity=120, time=0),
    Message('note_on', channel=9, note=46, velocity=105, time=73),
    Message('note_off', channel=9, note=46, velocity=105, time=23),
    Message('note_on', channel=9, note=38, velocity=120, time=73),
    Message('note_on', channel=9, note=46, velocity=120, time=0),
    Message('note_off', channel=9, note=38, velocity=120, time=23),
    Message('note_off', channel=9, note=46, velocity=120, time=0),
    Message('note_on', channel=9, note=46, velocity=105, time=73),
    Message('note_off', channel=9, note=46, velocity=105, time=23),
    Message('note_on', channel=9, note=36, velocity=120, time=73),
    Message('note_on', channel=9, note=46, velocity=120, time=0),
    Message('note_off', channel=9, note=36, velocity=120, time=23),
    Message('note_off', channel=9, note=46, velocity=120, time=0),
    Message('note_on', channel=9, note=46, velocity=105, time=73),
    Message('note_off', channel=9, note=46, velocity=105, time=23),
    Message('note_on', channel=9, note=38, velocity=120, time=73),
    Message('note_on', channel=9, note=46, velocity=120, time=0),
    Message('note_off', channel=9, note=38, velocity=120, time=23),
    Message('note_off', channel=9, note=46, velocity=120, time=0),
    Message('note_on', channel=9, note=46, velocity=105, time=73),
    Message('note_off', channel=9, note=46, velocity=105, time=23),
    Message('note_on', channel=9, note=36, velocity=120, time=73),
    Message('note_on', channel=9, note=46, velocity=120, time=0),
    Message('note_off', channel=9, note=36, velocity=120, time=23),
    Message('note_off', channel=9, note=46, velocity=120, time=0),
    Message('note_on', channel=9, note=36, velocity=120, time=73),
    Message('note_on', channel=9, note=46, velocity=127, time=0),
    Message('note_off', channel=9, note=36, velocity=120, time=23),
    Message('note_off', channel=9, note=46, velocity=127, time=0),
    Message('note_on', channel=9, note=38, velocity=120, time=73),
    Message('note_on', channel=9, note=44, velocity=60, time=0),
    Message('note_off', channel=9, note=38, velocity=120, time=23),
    Message('note_off', channel=9, note=44, velocity=60, time=0),
    Message('note_on', channel=9, note=36, velocity=120, time=73),
    Message('note_on', channel=9, note=49, velocity=127, time=0),
    Message('note_off', channel=9, note=36, velocity=120, time=23),
    Message('note_off', channel=9, note=49, velocity=127, time=0),
    Message('note_on', channel=9, note=46, velocity=120, time=73),
    Message('note_off', channel=9, note=46, velocity=120, time=23),
    Message('note_on', channel=9, note=36, velocity=120, time=73),
    Message('note_on', channel=9, note=46, velocity=105, time=0),
    Message('note_off', channel=9, note=36, velocity=120, time=23),
    Message('note_off', channel=9, note=46, velocity=105, time=0),
    Message('note_on', channel=9, note=38, velocity=120, time=73),
    Message('note_on', channel=9, note=46, velocity=120, time=0),
    Message('note_off', channel=9, note=38, velocity=120, time=23),
    Message('note_off', channel=9, note=46, velocity=120, time=0),
    Message('note_on', channel=9, note=46, velocity=105, time=73),
    Message('note_off', channel=9, note=46, velocity=105, time=23),
    Message('note_on', channel=9, note=36, velocity=120, time=73),
    Message('note_on', channel=9, note=46, velocity=120, time=0),
    Message('note_off', channel=9, note=36, velocity=120, time=23),
    Message('note_off', channel=9, note=46, velocity=120, time=0),
    Message('note_on', channel=9, note=46, velocity=105, time=73),
    Message('note_off', channel=9, note=46, velocity=105, time=23),
    Message('note_on', channel=9, note=38, velocity=120, time=73),
    Message('note_on', channel=9, note=46, velocity=120, time=0),
    Message('note_off', channel=9, note=38, velocity=120, time=23),
    Message('note_off', channel=9, note=46, velocity=120, time=0),
    Message('note_on', channel=9, note=46, velocity=105, time=73),
    Message('note_off', channel=9, note=46, velocity=105, time=23),
    Message('note_on', channel=9, note=36, velocity=120, time=73),
    Message('note_on', channel=9, note=46, velocity=120, time=0),
    Message('note_off', channel=9, note=36, velocity=120, time=23),
    Message('note_off', channel=9, note=46, velocity=120, time=0),
    Message('note_on', channel=9, note=46, velocity=105, time=73),
    Message('note_off', channel=9, note=46, velocity=105, time=23),
    Message('note_on', channel=9, note=38, velocity=120, time=73),
    Message('note_on', channel=9, note=46, velocity=120, time=0),
    Message('note_off', channel=9, note=38, velocity=120, time=23),
    Message('note_off', channel=9, note=46, velocity=120, time=0),
    Message('note_on', channel=9, note=46, velocity=105, time=73),
    Message('note_off', channel=9, note=46, velocity=105, time=23),
    Message('note_on', channel=9, note=36, velocity=120, time=73),
    Message('note_on', channel=9, note=46, velocity=120, time=0),
    Message('note_off', channel=9, note=36, velocity=120, time=23),
    Message('note_off', channel=9, note=46, velocity=120, time=0),
    Message('note_on', channel=9, note=36, velocity=120, time=73),
    Message('note_on', channel=9, note=46, velocity=127, time=0),
    Message('note_off', channel=9, note=36, velocity=120, time=23),
    Message('note_off', channel=9, note=46, velocity=127, time=0),
    Message('note_on', channel=9, note=38, velocity=120, time=73),
    Message('note_on', channel=9, note=44, velocity=60, time=0),
    Message('note_off', channel=9, note=38, velocity=120, time=23),
    Message('note_off', channel=9, note=44, velocity=60, time=0),
    Message('note_on', channel=9, note=36, velocity=120, time=73),
    Message('note_on', channel=9, note=49, velocity=127, time=0),
    Message('note_off', channel=9, note=36, velocity=120, time=23),
    Message('note_off', channel=9, note=49, velocity=127, time=0),
    Message('note_on', channel=9, note=46, velocity=120, time=73),
    Message('note_off', channel=9, note=46, velocity=120, time=23),
    Message('note_on', channel=9, note=36, velocity=120, time=73),
    Message('note_on', channel=9, note=46, velocity=105, time=0),
    Message('note_off', channel=9, note=36, velocity=120, time=23),
    Message('note_off', channel=9, note=46, velocity=105, time=0),
    Message('note_on', channel=9, note=38, velocity=120, time=73),
    Message('note_on', channel=9, note=46, velocity=120, time=0),
    Message('note_off', channel=9, note=38, velocity=120, time=23),
    Message('note_off', channel=9, note=46, velocity=120, time=0),
    Message('note_on', channel=9, note=46, velocity=105, time=73),
    Message('note_off', channel=9, note=46, velocity=105, time=23),
    Message('note_on', channel=9, note=36, velocity=120, time=73),
    Message('note_on', channel=9, note=46, velocity=120, time=0),
    Message('note_off', channel=9, note=36, velocity=120, time=23),
    Message('note_off', channel=9, note=46, velocity=120, time=0),
    Message('note_on', channel=9, note=46, velocity=105, time=73),
    Message('note_off', channel=9, note=46, velocity=105, time=23),
    Message('note_on', channel=9, note=38, velocity=120, time=73),
    Message('note_on', channel=9, note=46, velocity=120, time=0),
    Message('note_off', channel=9, note=38, velocity=120, time=23),
    Message('note_off', channel=9, note=46, velocity=120, time=0),
    Message('note_on', channel=9, note=46, velocity=105, time=73),
    Message('note_off', channel=9, note=46, velocity=105, time=23),
    Message('note_on', channel=9, note=36, velocity=120, time=73),
    Message('note_on', channel=9, note=46, velocity=120, time=0),
    Message('note_off', channel=9, note=36, velocity=120, time=23),
    Message('note_off', channel=9, note=46, velocity=120, time=0),
    Message('note_on', channel=9, note=46, velocity=105, time=73),
    Message('note_off', channel=9, note=46, velocity=105, time=23),
    Message('note_on', channel=9, note=38, velocity=120, time=73),
    Message('note_on', channel=9, note=46, velocity=120, time=0),
    Message('note_off', channel=9, note=38, velocity=120, time=23),
    Message('note_off', channel=9, note=46, velocity=120, time=0),
    Message('note_on', channel=9, note=46, velocity=105, time=73),
    Message('note_off', channel=9, note=46, velocity=105, time=23),
    Message('note_on', channel=9, note=36, velocity=120, time=73),
    Message('note_on', channel=9, note=46, velocity=120, time=0),
    Message('note_off', channel=9, note=36, velocity=120, time=23),
    Message('note_off', channel=9, note=46, velocity=120, time=0),
    Message('note_on', channel=9, note=36, velocity=120, time=73),
    Message('note_on', channel=9, note=46, velocity=127, time=0),
    Message('note_off', channel=9, note=36, velocity=120, time=23),
    Message('note_off', channel=9, note=46, velocity=127, time=0),
    Message('note_on', channel=9, note=38, velocity=120, time=73),
    Message('note_on', channel=9, note=44, velocity=60, time=0),
    Message('note_off', channel=9, note=38, velocity=120, time=23),
    Message('note_off', channel=9, note=44, velocity=60, time=0),
    Message('note_on', channel=9, note=36, velocity=120, time=73),
    Message('note_on', channel=9, note=49, velocity=127, time=0),
    Message('note_off', channel=9, note=36, velocity=120, time=23),
    Message('note_off', channel=9, note=49, velocity=127, time=0),
    Message('note_on', channel=9, note=46, velocity=120, time=73),
    Message('note_off', channel=9, note=46, velocity=120, time=23),
    Message('note_on', channel=9, note=36, velocity=120, time=73),
    Message('note_on', channel=9, note=46, velocity=105, time=0),
    Message('note_off', channel=9, note=36, velocity=120, time=23),
    Message('note_off', channel=9, note=46, velocity=105, time=0),
    Message('note_on', channel=9, note=38, velocity=120, time=73),
    Message('note_on', channel=9, note=46, velocity=120, time=0),
    Message('note_off', channel=9, note=38, velocity=120, time=23),
    Message('note_off', channel=9, note=46, velocity=120, time=0),
    Message('note_on', channel=9, note=46, velocity=105, time=73),
    Message('note_off', channel=9, note=46, velocity=105, time=23),
    Message('note_on', channel=9, note=36, velocity=120, time=73),
    Message('note_on', channel=9, note=46, velocity=120, time=0),
    Message('note_off', channel=9, note=36, velocity=120, time=23),
    Message('note_off', channel=9, note=46, velocity=120, time=0),
    Message('note_on', channel=9, note=46, velocity=127, time=73),
    Message('note_off', channel=9, note=46, velocity=127, time=23),
    Message('note_on', channel=9, note=38, velocity=120, time=73),
    Message('note_on', channel=9, note=44, velocity=60, time=0),
    Message('note_off', channel=9, note=38, velocity=120, time=23),
    Message('note_off', channel=9, note=44, velocity=60, time=0),
    Message('note_on', channel=9, note=57, velocity=120, time=73),
    Message('note_on', channel=9, note=36, velocity=120, time=0),
    Message('note_off', channel=9, note=57, velocity=120, time=23),
    Message('note_off', channel=9, note=36, velocity=120, time=0),
    Message('note_on', channel=9, note=47, velocity=120, time=164),
    Message('note_on', channel=9, note=50, velocity=120, time=7),
    Message('note_off', channel=9, note=47, velocity=120, time=16),
    Message('note_off', channel=9, note=50, velocity=120, time=7),
    Message('note_on', channel=9, note=50, velocity=120, time=69),
    Message('note_on', channel=9, note=47, velocity=120, time=5),
    Message('note_off', channel=9, note=50, velocity=120, time=18),
    Message('note_off', channel=9, note=47, velocity=120, time=5),
    Message('note_on', channel=9, note=48, velocity=120, time=69),
    Message('note_on', channel=9, note=45, velocity=120, time=4),
    Message('note_off', channel=9, note=48, velocity=120, time=19),
    Message('note_off', channel=9, note=45, velocity=120, time=4),
    Message('note_on', channel=9, note=48, velocity=120, time=68),
    Message('note_on', channel=9, note=45, velocity=120, time=4),
    Message('note_off', channel=9, note=48, velocity=120, time=19),
    Message('note_off', channel=9, note=45, velocity=120, time=4),
    Message('note_on', channel=9, note=47, velocity=120, time=68),
    Message('note_on', channel=9, note=43, velocity=120, time=1),
    Message('note_off', channel=9, note=47, velocity=120, time=22),
    Message('note_off', channel=9, note=43, velocity=120, time=1),
    Message('note_on', channel=9, note=43, velocity=120, time=73),
    Message('note_on', channel=9, note=47, velocity=120, time=3),
    Message('note_off', channel=9, note=43, velocity=120, time=20),
    Message('note_off', channel=9, note=47, velocity=120, time=3),
    Message('note_on', channel=9, note=36, velocity=120, time=72),
    Message('note_on', channel=9, note=49, velocity=120, time=0),
    Message('note_off', channel=9, note=36, velocity=120, time=23),
    Message('note_off', channel=9, note=49, velocity=120, time=0),
    Message('note_on', channel=9, note=51, velocity=120, time=73),
    Message('note_off', channel=9, note=51, velocity=120, time=23),
    Message('note_on', channel=9, note=36, velocity=120, time=73),
    Message('note_on', channel=9, note=51, velocity=105, time=0),
    Message('note_off', channel=9, note=36, velocity=120, time=23),
    Message('note_off', channel=9, note=51, velocity=105, time=0),
    Message('note_on', channel=9, note=36, velocity=120, time=25),
    Message('note_off', channel=9, note=36, velocity=120, time=23),
    Message('note_on', channel=9, note=38, velocity=120, time=25),
    Message('note_on', channel=9, note=57, velocity=120, time=0),
    Message('note_off', channel=9, note=38, velocity=120, time=23),
    Message('note_off', channel=9, note=57, velocity=120, time=0),
    Message('note_on', channel=9, note=51, velocity=105, time=73),
    Message('note_off', channel=9, note=51, velocity=105, time=23),
    Message('note_on', channel=9, note=51, velocity=120, time=73),
    Message('note_on', channel=9, note=36, velocity=120, time=0),
    Message('note_off', channel=9, note=51, velocity=120, time=23),
    Message('note_off', channel=9, note=36, velocity=120, time=0),
    Message('note_on', channel=9, note=51, velocity=105, time=73),
    Message('note_off', channel=9, note=51, velocity=105, time=23),
    Message('note_on', channel=9, note=51, velocity=120, time=73),
    Message('note_on', channel=9, note=38, velocity=120, time=0),
    Message('note_off', channel=9, note=51, velocity=120, time=23),
    Message('note_off', channel=9, note=38, velocity=120, time=0),
    Message('note_on', channel=9, note=51, velocity=105, time=73),
    Message('note_off', channel=9, note=51, velocity=105, time=23),
    Message('note_on', channel=9, note=51, velocity=120, time=73),
    Message('note_on', channel=9, note=36, velocity=120, time=0),
    Message('note_off', channel=9, note=51, velocity=120, time=23),
    Message('note_off', channel=9, note=36, velocity=120, time=0),
    Message('note_on', channel=9, note=51, velocity=105, time=73),
    Message('note_off', channel=9, note=51, velocity=105, time=23),
    Message('note_on', channel=9, note=51, velocity=120, time=73),
    Message('note_on', channel=9, note=38, velocity=120, time=0),
    Message('note_off', channel=9, note=51, velocity=120, time=23),
    Message('note_off', channel=9, note=38, velocity=120, time=0),
    Message('note_on', channel=9, note=51, velocity=105, time=73),
    Message('note_off', channel=9, note=51, velocity=105, time=23),
    Message('note_on', channel=9, note=51, velocity=120, time=73),
    Message('note_on', channel=9, note=36, velocity=120, time=0),
    Message('note_off', channel=9, note=51, velocity=120, time=23),
    Message('note_off', channel=9, note=36, velocity=120, time=0),
    Message('note_on', channel=9, note=51, velocity=105, time=73),
    Message('note_off', channel=9, note=51, velocity=105, time=23),
    Message('note_on', channel=9, note=51, velocity=120, time=73),
    Message('note_on', channel=9, note=38, velocity=120, time=0),
    Message('note_off', channel=9, note=51, velocity=120, time=23),
    Message('note_off', channel=9, note=38, velocity=120, time=0),
    Message('note_on', channel=9, note=51, velocity=105, time=73),
    Message('note_off', channel=9, note=51, velocity=105, time=23),
    Message('note_on', channel=9, note=51, velocity=120, time=73),
    Message('note_on', channel=9, note=36, velocity=120, time=0),
    Message('note_off', channel=9, note=51, velocity=120, time=23),
    Message('note_off', channel=9, note=36, velocity=120, time=0),
    Message('note_on', channel=9, note=51, velocity=105, time=73),
    Message('note_off', channel=9, note=51, velocity=105, time=23),
    Message('note_on', channel=9, note=51, velocity=120, time=73),
    Message('note_on', channel=9, note=38, velocity=120, time=0),
    Message('note_off', channel=9, note=51, velocity=120, time=23),
    Message('note_off', channel=9, note=38, velocity=120, time=0),
    Message('note_on', channel=9, note=51, velocity=105, time=73),
    Message('note_off', channel=9, note=51, velocity=105, time=23),
    Message('note_on', channel=9, note=51, velocity=120, time=73),
    Message('note_on', channel=9, note=36, velocity=120, time=0),
    Message('note_off', channel=9, note=51, velocity=120, time=23),
    Message('note_off', channel=9, note=36, velocity=120, time=0),
    Message('note_on', channel=9, note=51, velocity=105, time=73),
    Message('note_off', channel=9, note=51, velocity=105, time=23),
    Message('note_on', channel=9, note=51, velocity=120, time=73),
    Message('note_on', channel=9, note=38, velocity=120, time=0),
    Message('note_off', channel=9, note=51, velocity=120, time=23),
    Message('note_off', channel=9, note=38, velocity=120, time=0),
    Message('note_on', channel=9, note=51, velocity=105, time=73),
    Message('note_off', channel=9, note=51, velocity=105, time=23),
    Message('note_on', channel=9, note=51, velocity=120, time=73),
    Message('note_on', channel=9, note=36, velocity=120, time=0),
    Message('note_off', channel=9, note=51, velocity=120, time=23),
    Message('note_off', channel=9, note=36, velocity=120, time=0),
    Message('note_on', channel=9, note=51, velocity=105, time=73),
    Message('note_off', channel=9, note=51, velocity=105, time=23),
    Message('note_on', channel=9, note=51, velocity=120, time=73),
    Message('note_on', channel=9, note=36, velocity=120, time=0),
    Message('note_off', channel=9, note=51, velocity=120, time=23),
    Message('note_off', channel=9, note=36, velocity=120, time=0),
    Message('note_on', channel=9, note=38, velocity=120, time=73),
    Message('note_on', channel=9, note=57, velocity=120, time=0),
    Message('note_off', channel=9, note=38, velocity=120, time=23),
    Message('note_off', channel=9, note=57, velocity=120, time=0),
    Message('note_on', channel=9, note=36, velocity=120, time=73),
    Message('note_off', channel=9, note=36, velocity=120, time=23),
    Message('note_on', channel=9, note=36, velocity=120, time=73),
    Message('note_off', channel=9, note=36, velocity=120, time=23),
    Message('note_on', channel=9, note=38, velocity=120, time=73),
    Message('note_on', channel=9, note=49, velocity=120, time=0),
    Message('note_off', channel=9, note=38, velocity=120, time=23),
    Message('note_off', channel=9, note=49, velocity=120, time=0),
    Message('note_on', channel=9, note=57, velocity=120, time=169),
    Message('note_on', channel=9, note=36, velocity=120, time=0),
    Message('note_off', channel=9, note=57, velocity=120, time=23),
    Message('note_off', channel=9, note=36, velocity=120, time=0),
    Message('note_on', channel=9, note=51, velocity=105, time=73),
    Message('note_off', channel=9, note=51, velocity=105, time=23),
    Message('note_on', channel=9, note=38, velocity=120, time=73),
    Message('note_on', channel=9, note=51, velocity=120, time=0),
    Message('note_off', channel=9, note=38, velocity=120, time=23),
    Message('note_off', channel=9, note=51, velocity=120, time=0),
    Message('note_on', channel=9, note=51, velocity=105, time=73),
    Message('note_off', channel=9, note=51, velocity=105, time=23),
    Message('note_on', channel=9, note=51, velocity=120, time=73),
    Message('note_on', channel=9, note=36, velocity=120, time=0),
    Message('note_off', channel=9, note=51, velocity=120, time=23),
    Message('note_off', channel=9, note=36, velocity=120, time=0),
    Message('note_on', channel=9, note=51, velocity=105, time=73),
    Message('note_off', channel=9, note=51, velocity=105, time=23),
    Message('note_on', channel=9, note=51, velocity=120, time=73),
    Message('note_on', channel=9, note=38, velocity=120, time=0),
    Message('note_off', channel=9, note=51, velocity=120, time=23),
    Message('note_off', channel=9, note=38, velocity=120, time=0),
    Message('note_on', channel=9, note=51, velocity=105, time=73),
    Message('note_off', channel=9, note=51, velocity=105, time=23),
    Message('note_on', channel=9, note=51, velocity=120, time=73),
    Message('note_on', channel=9, note=36, velocity=120, time=0),
    Message('note_off', channel=9, note=51, velocity=120, time=23),
    Message('note_off', channel=9, note=36, velocity=120, time=0),
    Message('note_on', channel=9, note=51, velocity=105, time=73),
    Message('note_off', channel=9, note=51, velocity=105, time=23),
    Message('note_on', channel=9, note=51, velocity=120, time=73),
    Message('note_on', channel=9, note=38, velocity=120, time=0),
    Message('note_off', channel=9, note=51, velocity=120, time=23),
    Message('note_off', channel=9, note=38, velocity=120, time=0),
    Message('note_on', channel=9, note=51, velocity=105, time=73),
    Message('note_off', channel=9, note=51, velocity=105, time=23),
    Message('note_on', channel=9, note=51, velocity=120, time=73),
    Message('note_on', channel=9, note=36, velocity=120, time=0),
    Message('note_off', channel=9, note=51, velocity=120, time=23),
    Message('note_off', channel=9, note=36, velocity=120, time=0),
    Message('note_on', channel=9, note=51, velocity=105, time=73),
    Message('note_off', channel=9, note=51, velocity=105, time=23),
    Message('note_on', channel=9, note=51, velocity=120, time=73),
    Message('note_on', channel=9, note=38, velocity=120, time=0),
    Message('note_off', channel=9, note=51, velocity=120, time=23),
    Message('note_off', channel=9, note=38, velocity=120, time=0),
    Message('note_on', channel=9, note=51, velocity=105, time=73),
    Message('note_off', channel=9, note=51, velocity=105, time=23),
    Message('note_on', channel=9, note=51, velocity=120, time=73),
    Message('note_on', channel=9, note=36, velocity=120, time=0),
    Message('note_off', channel=9, note=51, velocity=120, time=23),
    Message('note_off', channel=9, note=36, velocity=120, time=0),
    Message('note_on', channel=9, note=51, velocity=105, time=73),
    Message('note_off', channel=9, note=51, velocity=105, time=23),
    Message('note_on', channel=9, note=51, velocity=120, time=73),
    Message('note_on', channel=9, note=38, velocity=120, time=0),
    Message('note_off', channel=9, note=51, velocity=120, time=23),
    Message('note_off', channel=9, note=38, velocity=120, time=0),
    Message('note_on', channel=9, note=51, velocity=105, time=73),
    Message('note_off', channel=9, note=51, velocity=105, time=23),
    Message('note_on', channel=9, note=51, velocity=120, time=73),
    Message('note_on', channel=9, note=36, velocity=120, time=0),
    Message('note_off', channel=9, note=51, velocity=120, time=23),
    Message('note_off', channel=9, note=36, velocity=120, time=0),
    Message('note_on', channel=9, note=51, velocity=105, time=73),
    Message('note_off', channel=9, note=51, velocity=105, time=23),
    Message('note_on', channel=9, note=51, velocity=120, time=73),
    Message('note_on', channel=9, note=38, velocity=120, time=0),
    Message('note_off', channel=9, note=51, velocity=120, time=23),
    Message('note_off', channel=9, note=38, velocity=120, time=0),
    Message('note_on', channel=9, note=51, velocity=105, time=73),
    Message('note_off', channel=9, note=51, velocity=105, time=23),
    Message('note_on', channel=9, note=45, velocity=105, time=71),
    Message('note_on', channel=9, note=41, velocity=105, time=6),
    Message('note_off', channel=9, note=45, velocity=105, time=17),
    Message('note_off', channel=9, note=41, velocity=105, time=6),
    Message('note_on', channel=9, note=41, velocity=105, time=67),
    Message('note_on', channel=9, note=45, velocity=105, time=4),
    Message('note_off', channel=9, note=41, velocity=105, time=19),
    Message('note_off', channel=9, note=45, velocity=105, time=4),
    Message('note_on', channel=9, note=41, velocity=105, time=70),
    Message('note_on', channel=9, note=45, velocity=105, time=3),
    Message('note_off', channel=9, note=41, velocity=105, time=20),
    Message('note_off', channel=9, note=45, velocity=105, time=3),
    Message('note_on', channel=9, note=45, velocity=105, time=68),
    Message('note_on', channel=9, note=41, velocity=105, time=5),
    Message('note_off', channel=9, note=45, velocity=105, time=18),
    Message('note_off', channel=9, note=41, velocity=105, time=5),
    Message('note_on', channel=9, note=36, velocity=120, time=71),
    Message('note_on', channel=9, note=57, velocity=120, time=0),
    Message('note_off', channel=9, note=36, velocity=120, time=23),
    Message('note_off', channel=9, note=57, velocity=120, time=0),
    Message('note_on', channel=9, note=36, velocity=120, time=361),
    Message('note_on', channel=9, note=57, velocity=120, time=0),
    Message('note_on', channel=9, note=49, velocity=120, time=0),
    Message('note_off', channel=9, note=36, velocity=120, time=23),
    Message('note_off', channel=9, note=57, velocity=120, time=0),
    Message('note_off', channel=9, note=49, velocity=120, time=0),
    Message('note_on', channel=9, note=46, velocity=120, time=169),
    Message('note_off', channel=9, note=46, velocity=120, time=23),
    Message('note_on', channel=9, note=36, velocity=120, time=73),
    Message('note_off', channel=9, note=36, velocity=120, time=23),
    Message('note_on', channel=9, note=46, velocity=120, time=73),
    Message('note_on', channel=9, note=38, velocity=120, time=0),
    Message('note_off', channel=9, note=46, velocity=120, time=23),
    Message('note_off', channel=9, note=38, velocity=120, time=0),
    Message('note_on', channel=9, note=36, velocity=120, time=73),
    Message('note_off', channel=9, note=36, velocity=120, time=23),
    Message('note_on', channel=9, note=46, velocity=120, time=73),
    Message('note_off', channel=9, note=46, velocity=120, time=23),
    Message('note_on', channel=9, note=36, velocity=120, time=73),
    Message('note_off', channel=9, note=36, velocity=120, time=23),
    Message('note_on', channel=9, note=46, velocity=120, time=73),
    Message('note_on', channel=9, note=36, velocity=120, time=0),
    Message('note_off', channel=9, note=46, velocity=120, time=23),
    Message('note_off', channel=9, note=36, velocity=120, time=0),
    Message('note_on', channel=9, note=46, velocity=120, time=169),
    Message('note_off', channel=9, note=46, velocity=120, time=23),
    Message('note_on', channel=9, note=36, velocity=120, time=73),
    Message('note_off', channel=9, note=36, velocity=120, time=23),
    Message('note_on', channel=9, note=46, velocity=120, time=73),
    Message('note_off', channel=9, note=46, velocity=120, time=23),
    Message('note_on', channel=9, note=36, velocity=120, time=73),
    Message('note_off', channel=9, note=36, velocity=120, time=23),
    Message('note_on', channel=9, note=46, velocity=120, time=73),
    Message('note_on', channel=9, note=38, velocity=120, time=0),
    Message('note_off', channel=9, note=46, velocity=120, time=23),
    Message('note_off', channel=9, note=38, velocity=120, time=0),
    Message('note_on', channel=9, note=46, velocity=120, time=169),
    Message('note_on', channel=9, note=36, velocity=120, time=0),
    Message('note_off', channel=9, note=46, velocity=120, time=23),
    Message('note_off', channel=9, note=36, velocity=120, time=0),
    Message('note_on', channel=9, note=46, velocity=120, time=169),
    Message('note_off', channel=9, note=46, velocity=120, time=23),
    Message('note_on', channel=9, note=36, velocity=120, time=73),
    Message('note_off', channel=9, note=36, velocity=120, time=23),
    Message('note_on', channel=9, note=46, velocity=120, time=73),
    Message('note_on', channel=9, note=38, velocity=120, time=0),
    Message('note_off', channel=9, note=46, velocity=120, time=23),
    Message('note_off', channel=9, note=38, velocity=120, time=0),
    Message('note_on', channel=9, note=46, velocity=120, time=169),
    Message('note_off', channel=9, note=46, velocity=120, time=23),
    Message('note_on', channel=9, note=36, velocity=120, time=73),
    Message('note_off', channel=9, note=36, velocity=120, time=23),
    Message('note_on', channel=9, note=46, velocity=120, time=73),
    Message('note_on', channel=9, note=36, velocity=120, time=0),
    Message('note_off', channel=9, note=46, velocity=120, time=23),
    Message('note_off', channel=9, note=36, velocity=120, time=0),
    Message('note_on', channel=9, note=46, velocity=120, time=169),
    Message('note_off', channel=9, note=46, velocity=120, time=23),
    Message('note_on', channel=9, note=38, velocity=120, time=73),
    Message('note_off', channel=9, note=38, velocity=120, time=23),
    Message('note_on', channel=9, note=47, velocity=120, time=73),
    Message('note_off', channel=9, note=47, velocity=120, time=23),
    Message('note_on', channel=9, note=43, velocity=120, time=73),
    Message('note_off', channel=9, note=43, velocity=120, time=23),
    Message('note_on', channel=9, note=36, velocity=120, time=73),
    Message('note_on', channel=9, note=49, velocity=120, time=0),
    Message('note_off', channel=9, note=36, velocity=120, time=23),
    Message('note_off', channel=9, note=49, velocity=120, time=0),
    Message('note_on', channel=9, note=36, velocity=120, time=169),
    Message('note_on', channel=9, note=57, velocity=120, time=0),
    Message('note_on', channel=9, note=49, velocity=120, time=0),
    Message('note_off', channel=9, note=36, velocity=120, time=23),
    Message('note_off', channel=9, note=57, velocity=120, time=0),
    Message('note_off', channel=9, note=49, velocity=120, time=0),
    Message('note_on', channel=9, note=46, velocity=120, time=169),
    Message('note_off', channel=9, note=46, velocity=120, time=23),
    Message('note_on', channel=9, note=36, velocity=120, time=73),
    Message('note_off', channel=9, note=36, velocity=120, time=23),
    Message('note_on', channel=9, note=46, velocity=120, time=73),
    Message('note_on', channel=9, note=38, velocity=120, time=0),
    Message('note_off', channel=9, note=46, velocity=120, time=23),
    Message('note_off', channel=9, note=38, velocity=120, time=0),
    Message('note_on', channel=9, note=36, velocity=120, time=73),
    Message('note_off', channel=9, note=36, velocity=120, time=23),
    Message('note_on', channel=9, note=46, velocity=120, time=73),
    Message('note_off', channel=9, note=46, velocity=120, time=23),
    Message('note_on', channel=9, note=36, velocity=120, time=73),
    Message('note_off', channel=9, note=36, velocity=120, time=23),
    Message('note_on', channel=9, note=46, velocity=120, time=73),
    Message('note_on', channel=9, note=36, velocity=120, time=0),
    Message('note_off', channel=9, note=46, velocity=120, time=23),
    Message('note_off', channel=9, note=36, velocity=120, time=0),
    Message('note_on', channel=9, note=46, velocity=120, time=169),
    Message('note_off', channel=9, note=46, velocity=120, time=23),
    Message('note_on', channel=9, note=36, velocity=120, time=73),
    Message('note_off', channel=9, note=36, velocity=120, time=23),
    Message('note_on', channel=9, note=46, velocity=120, time=73),
    Message('note_off', channel=9, note=46, velocity=120, time=23),
    Message('note_on', channel=9, note=36, velocity=120, time=73),
    Message('note_off', channel=9, note=36, velocity=120, time=23),
    Message('note_on', channel=9, note=46, velocity=120, time=73),
    Message('note_on', channel=9, note=38, velocity=120, time=0),
    Message('note_off', channel=9, note=46, velocity=120, time=23),
    Message('note_off', channel=9, note=38, velocity=120, time=0),
    Message('note_on', channel=9, note=46, velocity=120, time=169),
    Message('note_on', channel=9, note=36, velocity=120, time=0),
    Message('note_off', channel=9, note=46, velocity=120, time=23),
    Message('note_off', channel=9, note=36, velocity=120, time=0),
    Message('note_on', channel=9, note=46, velocity=120, time=169),
    Message('note_off', channel=9, note=46, velocity=120, time=23),
    Message('note_on', channel=9, note=36, velocity=120, time=73),
    Message('note_off', channel=9, note=36, velocity=120, time=23),
    Message('note_on', channel=9, note=46, velocity=120, time=73),
    Message('note_on', channel=9, note=38, velocity=120, time=0),
    Message('note_off', channel=9, note=46, velocity=120, time=23),
    Message('note_off', channel=9, note=38, velocity=120, time=0),
    Message('note_on', channel=9, note=46, velocity=120, time=169),
    Message('note_off', channel=9, note=46, velocity=120, time=23),
    Message('note_on', channel=9, note=36, velocity=120, time=73),
    Message('note_off', channel=9, note=36, velocity=120, time=23),
    Message('note_on', channel=9, note=46, velocity=120, time=73),
    Message('note_on', channel=9, note=36, velocity=120, time=0),
    Message('note_off', channel=9, note=46, velocity=120, time=23),
    Message('note_off', channel=9, note=36, velocity=120, time=0),
    Message('note_on', channel=9, note=46, velocity=120, time=169),
    Message('note_off', channel=9, note=46, velocity=120, time=23),
    Message('note_on', channel=9, note=38, velocity=120, time=73),
    Message('note_off', channel=9, note=38, velocity=120, time=23),
    Message('note_on', channel=9, note=47, velocity=120, time=73),
    Message('note_off', channel=9, note=47, velocity=120, time=23),
    Message('note_on', channel=9, note=43, velocity=120, time=73),
    Message('note_off', channel=9, note=43, velocity=120, time=23),
    Message('note_on', channel=9, note=36, velocity=120, time=73),
    Message('note_on', channel=9, note=49, velocity=120, time=0),
    Message('note_off', channel=9, note=36, velocity=120, time=23),
    Message('note_off', channel=9, note=49, velocity=120, time=0),
    Message('note_on', channel=9, note=36, velocity=120, time=169),
    Message('note_on', channel=9, note=49, velocity=120, time=0),
    Message('note_on', channel=9, note=57, velocity=120, time=0),
    Message('note_off', channel=9, note=36, velocity=120, time=23),
    Message('note_off', channel=9, note=49, velocity=120, time=0),
    Message('note_off', channel=9, note=57, velocity=120, time=0),
    Message('note_on', channel=9, note=46, velocity=105, time=73),
    Message('note_off', channel=9, note=46, velocity=105, time=23),
    Message('note_on', channel=9, note=38, velocity=120, time=73),
    Message('note_on', channel=9, note=46, velocity=120, time=0),
    Message('note_off', channel=9, note=38, velocity=120, time=23),
    Message('note_off', channel=9, note=46, velocity=120, time=0),
    Message('note_on', channel=9, note=46, velocity=105, time=73),
    Message('note_off', channel=9, note=46, velocity=105, time=23),
    Message('note_on', channel=9, note=36, velocity=120, time=73),
    Message('note_on', channel=9, note=46, velocity=120, time=0),
    Message('note_off', channel=9, note=36, velocity=120, time=23),
    Message('note_off', channel=9, note=46, velocity=120, time=0),
    Message('note_on', channel=9, note=46, velocity=105, time=73),
    Message('note_off', channel=9, note=46, velocity=105, time=23),
    Message('note_on', channel=9, note=38, velocity=120, time=73),
    Message('note_on', channel=9, note=46, velocity=120, time=0),
    Message('note_off', channel=9, note=38, velocity=120, time=23),
    Message('note_off', channel=9, note=46, velocity=120, time=0),
    Message('note_on', channel=9, note=46, velocity=105, time=73),
    Message('note_off', channel=9, note=46, velocity=105, time=23),
    Message('note_on', channel=9, note=45, velocity=105, time=73),
    Message('note_on', channel=9, note=41, velocity=105, time=4),
    Message('note_off', channel=9, note=45, velocity=105, time=19),
    Message('note_off', channel=9, note=41, velocity=105, time=4),
    Message('note_on', channel=9, note=41, velocity=105, time=67),
    Message('note_on', channel=9, note=45, velocity=105, time=4),
    Message('note_off', channel=9, note=41, velocity=105, time=19),
    Message('note_off', channel=9, note=45, velocity=105, time=4),
    Message('note_on', channel=9, note=41, velocity=105, time=70),
    Message('note_on', channel=9, note=45, velocity=105, time=3),
    Message('note_off', channel=9, note=41, velocity=105, time=20),
    Message('note_off', channel=9, note=45, velocity=105, time=3),
    Message('note_on', channel=9, note=45, velocity=105, time=68),
    Message('note_on', channel=9, note=41, velocity=105, time=5),
    Message('note_off', channel=9, note=45, velocity=105, time=18),
    Message('note_off', channel=9, note=41, velocity=105, time=5),
    Message('note_on', channel=9, note=36, velocity=120, time=71),
    Message('note_on', channel=9, note=57, velocity=120, time=0),
    Message('note_off', channel=9, note=36, velocity=120, time=23),
    Message('note_off', channel=9, note=57, velocity=120, time=0),
    Message('note_on', channel=9, note=38, velocity=120, time=73),
    Message('note_off', channel=9, note=38, velocity=120, time=23),
    Message('note_on', channel=9, note=38, velocity=120, time=73),
    Message('note_off', channel=9, note=38, velocity=120, time=23),
    Message('note_on', channel=9, note=36, velocity=120, time=73),
    Message('note_on', channel=9, note=49, velocity=120, time=0),
    Message('note_off', channel=9, note=36, velocity=120, time=23),
    Message('note_off', channel=9, note=49, velocity=120, time=0),
    Message('note_on', channel=9, note=46, velocity=120, time=73),
    Message('note_off', channel=9, note=46, velocity=120, time=23),
    Message('note_on', channel=9, note=36, velocity=120, time=73),
    Message('note_on', channel=9, note=46, velocity=105, time=0),
    Message('note_off', channel=9, note=36, velocity=120, time=23),
    Message('note_off', channel=9, note=46, velocity=105, time=0),
    Message('note_on', channel=9, note=38, velocity=120, time=73),
    Message('note_on', channel=9, note=46, velocity=120, time=0),
    Message('note_off', channel=9, note=38, velocity=120, time=23),
    Message('note_off', channel=9, note=46, velocity=120, time=0),
    Message('note_on', channel=9, note=46, velocity=105, time=73),
    Message('note_off', channel=9, note=46, velocity=105, time=23),
    Message('note_on', channel=9, note=36, velocity=120, time=73),
    Message('note_on', channel=9, note=46, velocity=120, time=0),
    Message('note_off', channel=9, note=36, velocity=120, time=23),
    Message('note_off', channel=9, note=46, velocity=120, time=0),
    Message('note_on', channel=9, note=46, velocity=105, time=73),
    Message('note_off', channel=9, note=46, velocity=105, time=23),
    Message('note_on', channel=9, note=38, velocity=120, time=73),
    Message('note_on', channel=9, note=46, velocity=120, time=0),
    Message('note_off', channel=9, note=38, velocity=120, time=23),
    Message('note_off', channel=9, note=46, velocity=120, time=0),
    Message('note_on', channel=9, note=46, velocity=105, time=73),
    Message('note_off', channel=9, note=46, velocity=105, time=23),
    Message('note_on', channel=9, note=36, velocity=120, time=73),
    Message('note_on', channel=9, note=46, velocity=120, time=0),
    Message('note_off', channel=9, note=36, velocity=120, time=23),
    Message('note_off', channel=9, note=46, velocity=120, time=0),
    Message('note_on', channel=9, note=46, velocity=105, time=73),
    Message('note_off', channel=9, note=46, velocity=105, time=23),
    Message('note_on', channel=9, note=38, velocity=120, time=73),
    Message('note_on', channel=9, note=46, velocity=120, time=0),
    Message('note_off', channel=9, note=38, velocity=120, time=23),
    Message('note_off', channel=9, note=46, velocity=120, time=0),
    Message('note_on', channel=9, note=46, velocity=105, time=73),
    Message('note_off', channel=9, note=46, velocity=105, time=23),
    Message('note_on', channel=9, note=36, velocity=120, time=73),
    Message('note_on', channel=9, note=46, velocity=120, time=0),
    Message('note_off', channel=9, note=36, velocity=120, time=23),
    Message('note_off', channel=9, note=46, velocity=120, time=0),
    Message('note_on', channel=9, note=46, velocity=105, time=73),
    Message('note_off', channel=9, note=46, velocity=105, time=23),
    Message('note_on', channel=9, note=38, velocity=120, time=73),
    Message('note_on', channel=9, note=46, velocity=120, time=0),
    Message('note_off', channel=9, note=38, velocity=120, time=23),
    Message('note_off', channel=9, note=46, velocity=120, time=0),
    Message('note_on', channel=9, note=46, velocity=105, time=73),
    Message('note_off', channel=9, note=46, velocity=105, time=23),
    Message('note_on', channel=9, note=36, velocity=120, time=73),
    Message('note_on', channel=9, note=46, velocity=120, time=0),
    Message('note_off', channel=9, note=36, velocity=120, time=23),
    Message('note_off', channel=9, note=46, velocity=120, time=0),
    Message('note_on', channel=9, note=46, velocity=105, time=73),
    Message('note_off', channel=9, note=46, velocity=105, time=23),
    Message('note_on', channel=9, note=38, velocity=120, time=73),
    Message('note_on', channel=9, note=46, velocity=120, time=0),
    Message('note_off', channel=9, note=38, velocity=120, time=23),
    Message('note_off', channel=9, note=46, velocity=120, time=0),
    Message('note_on', channel=9, note=46, velocity=105, time=73),
    Message('note_off', channel=9, note=46, velocity=105, time=23),
    Message('note_on', channel=9, note=36, velocity=120, time=73),
    Message('note_on', channel=9, note=46, velocity=120, time=0),
    Message('note_off', channel=9, note=36, velocity=120, time=23),
    Message('note_off', channel=9, note=46, velocity=120, time=0),
    Message('note_on', channel=9, note=46, velocity=105, time=73),
    Message('note_off', channel=9, note=46, velocity=105, time=23),
    Message('note_on', channel=9, note=38, velocity=120, time=73),
    Message('note_on', channel=9, note=46, velocity=120, time=0),
    Message('note_off', channel=9, note=38, velocity=120, time=23),
    Message('note_off', channel=9, note=46, velocity=120, time=0),
    Message('note_on', channel=9, note=46, velocity=105, time=73),
    Message('note_off', channel=9, note=46, velocity=105, time=23),
    Message('note_on', channel=9, note=36, velocity=120, time=73),
    Message('note_on', channel=9, note=46, velocity=120, time=0),
    Message('note_off', channel=9, note=36, velocity=120, time=23),
    Message('note_off', channel=9, note=46, velocity=120, time=0),
    Message('note_on', channel=9, note=46, velocity=105, time=73),
    Message('note_off', channel=9, note=46, velocity=105, time=23),
    Message('note_on', channel=9, note=38, velocity=120, time=73),
    Message('note_on', channel=9, note=46, velocity=120, time=0),
    Message('note_off', channel=9, note=38, velocity=120, time=23),
    Message('note_off', channel=9, note=46, velocity=120, time=0),
    Message('note_on', channel=9, note=46, velocity=105, time=73),
    Message('note_off', channel=9, note=46, velocity=105, time=23),
    Message('note_on', channel=9, note=36, velocity=120, time=73),
    Message('note_on', channel=9, note=46, velocity=120, time=0),
    Message('note_off', channel=9, note=36, velocity=120, time=23),
    Message('note_off', channel=9, note=46, velocity=120, time=0),
    Message('note_on', channel=9, note=46, velocity=105, time=73),
    Message('note_off', channel=9, note=46, velocity=105, time=23),
    Message('note_on', channel=9, note=38, velocity=120, time=73),
    Message('note_on', channel=9, note=46, velocity=120, time=0),
    Message('note_off', channel=9, note=38, velocity=120, time=23),
    Message('note_off', channel=9, note=46, velocity=120, time=0),
    Message('note_on', channel=9, note=36, velocity=120, time=73),
    Message('note_on', channel=9, note=57, velocity=120, time=0),
    Message('note_off', channel=9, note=36, velocity=120, time=23),
    Message('note_off', channel=9, note=57, velocity=120, time=0),
    Message('note_on', channel=9, note=46, velocity=120, time=73),
    Message('note_off', channel=9, note=46, velocity=120, time=23),
    Message('note_on', channel=9, note=46, velocity=105, time=73),
    Message('note_off', channel=9, note=46, velocity=105, time=23),
    Message('note_on', channel=9, note=46, velocity=120, time=73),
    Message('note_off', channel=9, note=46, velocity=120, time=23),
    Message('note_on', channel=9, note=36, velocity=120, time=73),
    Message('note_on', channel=9, note=46, velocity=105, time=0),
    Message('note_off', channel=9, note=36, velocity=120, time=23),
    Message('note_off', channel=9, note=46, velocity=105, time=0),
    Message('note_on', channel=9, note=38, velocity=120, time=73),
    Message('note_on', channel=9, note=46, velocity=120, time=0),
    Message('note_off', channel=9, note=38, velocity=120, time=23),
    Message('note_off', channel=9, note=46, velocity=120, time=0),
    Message('note_on', channel=9, note=46, velocity=105, time=73),
    Message('note_off', channel=9, note=46, velocity=105, time=23),
    Message('note_on', channel=9, note=46, velocity=120, time=73),
    Message('note_off', channel=9, note=46, velocity=120, time=23),
    Message('note_on', channel=9, note=36, velocity=120, time=73),
    Message('note_on', channel=9, note=57, velocity=120, time=0),
    Message('note_off', channel=9, note=36, velocity=120, time=23),
    Message('note_off', channel=9, note=57, velocity=120, time=0),
    Message('note_on', channel=9, note=46, velocity=120, time=73),
    Message('note_off', channel=9, note=46, velocity=120, time=23),
    Message('note_on', channel=9, note=46, velocity=105, time=73),
    Message('note_off', channel=9, note=46, velocity=105, time=23),
    Message('note_on', channel=9, note=46, velocity=120, time=73),
    Message('note_off', channel=9, note=46, velocity=120, time=23),
    Message('note_on', channel=9, note=36, velocity=120, time=73),
    Message('note_on', channel=9, note=46, velocity=105, time=0),
    Message('note_off', channel=9, note=36, velocity=120, time=23),
    Message('note_off', channel=9, note=46, velocity=105, time=0),
    Message('note_on', channel=9, note=38, velocity=120, time=73),
    Message('note_on', channel=9, note=46, velocity=120, time=0),
    Message('note_off', channel=9, note=38, velocity=120, time=23),
    Message('note_off', channel=9, note=46, velocity=120, time=0),
    Message('note_on', channel=9, note=46, velocity=105, time=73),
    Message('note_off', channel=9, note=46, velocity=105, time=23),
    Message('note_on', channel=9, note=38, velocity=120, time=73),
    Message('note_on', channel=9, note=46, velocity=120, time=0),
    Message('note_off', channel=9, note=38, velocity=120, time=23),
    Message('note_off', channel=9, note=46, velocity=120, time=0),
    Message('note_on', channel=9, note=36, velocity=120, time=73),
    Message('note_on', channel=9, note=49, velocity=120, time=0),
    Message('note_off', channel=9, note=36, velocity=120, time=23),
    Message('note_off', channel=9, note=49, velocity=120, time=0),
    Message('note_on', channel=9, note=46, velocity=120, time=73),
    Message('note_off', channel=9, note=46, velocity=120, time=23),
    Message('note_on', channel=9, note=36, velocity=120, time=73),
    Message('note_on', channel=9, note=46, velocity=105, time=0),
    Message('note_off', channel=9, note=36, velocity=120, time=23),
    Message('note_off', channel=9, note=46, velocity=105, time=0),
    Message('note_on', channel=9, note=38, velocity=120, time=73),
    Message('note_on', channel=9, note=46, velocity=120, time=0),
    Message('note_off', channel=9, note=38, velocity=120, time=23),
    Message('note_off', channel=9, note=46, velocity=120, time=0),
    Message('note_on', channel=9, note=46, velocity=105, time=73),
    Message('note_off', channel=9, note=46, velocity=105, time=23),
    Message('note_on', channel=9, note=36, velocity=120, time=73),
    Message('note_on', channel=9, note=46, velocity=120, time=0),
    Message('note_off', channel=9, note=36, velocity=120, time=23),
    Message('note_off', channel=9, note=46, velocity=120, time=0),
    Message('note_on', channel=9, note=46, velocity=105, time=73),
    Message('note_off', channel=9, note=46, velocity=105, time=23),
    Message('note_on', channel=9, note=38, velocity=120, time=73),
    Message('note_on', channel=9, note=46, velocity=120, time=0),
    Message('note_off', channel=9, note=38, velocity=120, time=23),
    Message('note_off', channel=9, note=46, velocity=120, time=0),
    Message('note_on', channel=9, note=46, velocity=105, time=73),
    Message('note_off', channel=9, note=46, velocity=105, time=23),
    Message('note_on', channel=9, note=36, velocity=120, time=73),
    Message('note_on', channel=9, note=46, velocity=120, time=0),
    Message('note_off', channel=9, note=36, velocity=120, time=23),
    Message('note_off', channel=9, note=46, velocity=120, time=0),
    Message('note_on', channel=9, note=46, velocity=105, time=73),
    Message('note_off', channel=9, note=46, velocity=105, time=23),
    Message('note_on', channel=9, note=38, velocity=120, time=73),
    Message('note_on', channel=9, note=46, velocity=120, time=0),
    Message('note_off', channel=9, note=38, velocity=120, time=23),
    Message('note_off', channel=9, note=46, velocity=120, time=0),
    Message('note_on', channel=9, note=46, velocity=105, time=73),
    Message('note_off', channel=9, note=46, velocity=105, time=23),
    Message('note_on', channel=9, note=36, velocity=120, time=73),
    Message('note_on', channel=9, note=46, velocity=120, time=0),
    Message('note_off', channel=9, note=36, velocity=120, time=23),
    Message('note_off', channel=9, note=46, velocity=120, time=0),
    Message('note_on', channel=9, note=46, velocity=105, time=73),
    Message('note_off', channel=9, note=46, velocity=105, time=23),
    Message('note_on', channel=9, note=38, velocity=120, time=25),
    Message('note_off', channel=9, note=38, velocity=120, time=23),
    Message('note_on', channel=9, note=38, velocity=120, time=25),
    Message('note_off', channel=9, note=38, velocity=120, time=23),
    Message('note_on', channel=9, note=36, velocity=120, time=73),
    Message('note_on', channel=9, note=49, velocity=120, time=0),
    Message('note_off', channel=9, note=36, velocity=120, time=23),
    Message('note_off', channel=9, note=49, velocity=120, time=0),
    Message('note_on', channel=9, note=46, velocity=120, time=73),
    Message('note_off', channel=9, note=46, velocity=120, time=23),
    Message('note_on', channel=9, note=36, velocity=120, time=73),
    Message('note_on', channel=9, note=46, velocity=105, time=0),
    Message('note_off', channel=9, note=36, velocity=120, time=23),
    Message('note_off', channel=9, note=46, velocity=105, time=0),
    Message('note_on', channel=9, note=38, velocity=120, time=73),
    Message('note_on', channel=9, note=46, velocity=120, time=0),
    Message('note_off', channel=9, note=38, velocity=120, time=23),
    Message('note_off', channel=9, note=46, velocity=120, time=0),
    Message('note_on', channel=9, note=46, velocity=105, time=73),
    Message('note_off', channel=9, note=46, velocity=105, time=23),
    Message('note_on', channel=9, note=36, velocity=120, time=73),
    Message('note_on', channel=9, note=46, velocity=120, time=0),
    Message('note_off', channel=9, note=36, velocity=120, time=23),
    Message('note_off', channel=9, note=46, velocity=120, time=0),
    Message('note_on', channel=9, note=46, velocity=105, time=73),
    Message('note_off', channel=9, note=46, velocity=105, time=23),
    Message('note_on', channel=9, note=38, velocity=120, time=73),
    Message('note_on', channel=9, note=46, velocity=120, time=0),
    Message('note_off', channel=9, note=38, velocity=120, time=23),
    Message('note_off', channel=9, note=46, velocity=120, time=0),
    Message('note_on', channel=9, note=46, velocity=105, time=73),
    Message('note_off', channel=9, note=46, velocity=105, time=23),
    Message('note_on', channel=9, note=36, velocity=120, time=73),
    Message('note_on', channel=9, note=46, velocity=120, time=0),
    Message('note_off', channel=9, note=36, velocity=120, time=23),
    Message('note_off', channel=9, note=46, velocity=120, time=0),
    Message('note_on', channel=9, note=46, velocity=105, time=73),
    Message('note_off', channel=9, note=46, velocity=105, time=23),
    Message('note_on', channel=9, note=38, velocity=120, time=73),
    Message('note_on', channel=9, note=46, velocity=120, time=0),
    Message('note_off', channel=9, note=38, velocity=120, time=23),
    Message('note_off', channel=9, note=46, velocity=120, time=0),
    Message('note_on', channel=9, note=46, velocity=105, time=73),
    Message('note_off', channel=9, note=46, velocity=105, time=23),
    Message('note_on', channel=9, note=36, velocity=120, time=73),
    Message('note_on', channel=9, note=46, velocity=120, time=0),
    Message('note_off', channel=9, note=36, velocity=120, time=23),
    Message('note_off', channel=9, note=46, velocity=120, time=0),
    Message('note_on', channel=9, note=46, velocity=105, time=73),
    Message('note_off', channel=9, note=46, velocity=105, time=23),
    Message('note_on', channel=9, note=38, velocity=120, time=73),
    Message('note_on', channel=9, note=46, velocity=120, time=0),
    Message('note_off', channel=9, note=38, velocity=120, time=23),
    Message('note_off', channel=9, note=46, velocity=120, time=0),
    Message('note_on', channel=9, note=46, velocity=105, time=73),
    Message('note_off', channel=9, note=46, velocity=105, time=23),
    Message('note_on', channel=9, note=36, velocity=120, time=73),
    Message('note_on', channel=9, note=46, velocity=120, time=0),
    Message('note_off', channel=9, note=36, velocity=120, time=23),
    Message('note_off', channel=9, note=46, velocity=120, time=0),
    Message('note_on', channel=9, note=46, velocity=105, time=73),
    Message('note_off', channel=9, note=46, velocity=105, time=23),
    Message('note_on', channel=9, note=38, velocity=120, time=73),
    Message('note_on', channel=9, note=46, velocity=120, time=0),
    Message('note_off', channel=9, note=38, velocity=120, time=23),
    Message('note_off', channel=9, note=46, velocity=120, time=0),
    Message('note_on', channel=9, note=46, velocity=105, time=73),
    Message('note_off', channel=9, note=46, velocity=105, time=23),
    Message('note_on', channel=9, note=36, velocity=120, time=73),
    Message('note_on', channel=9, note=46, velocity=120, time=0),
    Message('note_off', channel=9, note=36, velocity=120, time=23),
    Message('note_off', channel=9, note=46, velocity=120, time=0),
    Message('note_on', channel=9, note=46, velocity=105, time=73),
    Message('note_off', channel=9, note=46, velocity=105, time=23),
    Message('note_on', channel=9, note=38, velocity=120, time=73),
    Message('note_on', channel=9, note=46, velocity=120, time=0),
    Message('note_off', channel=9, note=38, velocity=120, time=23),
    Message('note_off', channel=9, note=46, velocity=120, time=0),
    Message('note_on', channel=9, note=46, velocity=105, time=73),
    Message('note_off', channel=9, note=46, velocity=105, time=23),
    Message('note_on', channel=9, note=36, velocity=120, time=73),
    Message('note_on', channel=9, note=46, velocity=120, time=0),
    Message('note_off', channel=9, note=36, velocity=120, time=23),
    Message('note_off', channel=9, note=46, velocity=120, time=0),
    Message('note_on', channel=9, note=46, velocity=105, time=73),
    Message('note_off', channel=9, note=46, velocity=105, time=23),
    Message('note_on', channel=9, note=38, velocity=120, time=73),
    Message('note_on', channel=9, note=46, velocity=120, time=0),
    Message('note_off', channel=9, note=38, velocity=120, time=23),
    Message('note_off', channel=9, note=46, velocity=120, time=0),
    Message('note_on', channel=9, note=46, velocity=105, time=73),
    Message('note_off', channel=9, note=46, velocity=105, time=23),
    Message('note_on', channel=9, note=36, velocity=120, time=73),
    Message('note_on', channel=9, note=46, velocity=120, time=0),
    Message('note_off', channel=9, note=36, velocity=120, time=23),
    Message('note_off', channel=9, note=46, velocity=120, time=0),
    Message('note_on', channel=9, note=46, velocity=105, time=73),
    Message('note_off', channel=9, note=46, velocity=105, time=23),
    Message('note_on', channel=9, note=38, velocity=120, time=73),
    Message('note_on', channel=9, note=46, velocity=120, time=0),
    Message('note_off', channel=9, note=38, velocity=120, time=23),
    Message('note_off', channel=9, note=46, velocity=120, time=0),
    Message('note_on', channel=9, note=36, velocity=120, time=73),
    Message('note_on', channel=9, note=57, velocity=120, time=0),
    Message('note_off', channel=9, note=36, velocity=120, time=23),
    Message('note_off', channel=9, note=57, velocity=120, time=0),
    Message('note_on', channel=9, note=46, velocity=120, time=73),
    Message('note_off', channel=9, note=46, velocity=120, time=23),
    Message('note_on', channel=9, note=46, velocity=105, time=73),
    Message('note_off', channel=9, note=46, velocity=105, time=23),
    Message('note_on', channel=9, note=46, velocity=120, time=73),
    Message('note_off', channel=9, note=46, velocity=120, time=23),
    Message('note_on', channel=9, note=36, velocity=120, time=73),
    Message('note_on', channel=9, note=46, velocity=105, time=0),
    Message('note_off', channel=9, note=36, velocity=120, time=23),
    Message('note_off', channel=9, note=46, velocity=105, time=0),
    Message('note_on', channel=9, note=38, velocity=120, time=73),
    Message('note_on', channel=9, note=46, velocity=120, time=0),
    Message('note_off', channel=9, note=38, velocity=120, time=23),
    Message('note_off', channel=9, note=46, velocity=120, time=0),
    Message('note_on', channel=9, note=46, velocity=105, time=73),
    Message('note_off', channel=9, note=46, velocity=105, time=23),
    Message('note_on', channel=9, note=46, velocity=120, time=73),
    Message('note_off', channel=9, note=46, velocity=120, time=23),
    Message('note_on', channel=9, note=36, velocity=120, time=73),
    Message('note_on', channel=9, note=57, velocity=120, time=0),
    Message('note_off', channel=9, note=36, velocity=120, time=23),
    Message('note_off', channel=9, note=57, velocity=120, time=0),
    Message('note_on', channel=9, note=46, velocity=120, time=73),
    Message('note_off', channel=9, note=46, velocity=120, time=23),
    Message('note_on', channel=9, note=46, velocity=105, time=73),
    Message('note_off', channel=9, note=46, velocity=105, time=23),
    Message('note_on', channel=9, note=46, velocity=120, time=73),
    Message('note_off', channel=9, note=46, velocity=120, time=23),
    Message('note_on', channel=9, note=36, velocity=120, time=73),
    Message('note_on', channel=9, note=46, velocity=105, time=0),
    Message('note_off', channel=9, note=36, velocity=120, time=23),
    Message('note_off', channel=9, note=46, velocity=105, time=0),
    Message('note_on', channel=9, note=38, velocity=120, time=73),
    Message('note_on', channel=9, note=46, velocity=120, time=0),
    Message('note_off', channel=9, note=38, velocity=120, time=23),
    Message('note_off', channel=9, note=46, velocity=120, time=0),
    Message('note_on', channel=9, note=46, velocity=105, time=73),
    Message('note_off', channel=9, note=46, velocity=105, time=23),
    Message('note_on', channel=9, note=38, velocity=120, time=73),
    Message('note_on', channel=9, note=46, velocity=120, time=0),
    Message('note_off', channel=9, note=38, velocity=120, time=23),
    Message('note_off', channel=9, note=46, velocity=120, time=0),
    Message('note_on', channel=9, note=36, velocity=120, time=73),
    Message('note_on', channel=9, note=49, velocity=120, time=0),
    Message('note_off', channel=9, note=36, velocity=120, time=23),
    Message('note_off', channel=9, note=49, velocity=120, time=0),
    Message('note_on', channel=9, note=46, velocity=120, time=73),
    Message('note_off', channel=9, note=46, velocity=120, time=23),
    Message('note_on', channel=9, note=36, velocity=120, time=73),
    Message('note_on', channel=9, note=46, velocity=105, time=0),
    Message('note_off', channel=9, note=36, velocity=120, time=23),
    Message('note_off', channel=9, note=46, velocity=105, time=0),
    Message('note_on', channel=9, note=38, velocity=120, time=73),
    Message('note_on', channel=9, note=46, velocity=120, time=0),
    Message('note_off', channel=9, note=38, velocity=120, time=23),
    Message('note_off', channel=9, note=46, velocity=120, time=0),
    Message('note_on', channel=9, note=46, velocity=105, time=73),
    Message('note_off', channel=9, note=46, velocity=105, time=23),
    Message('note_on', channel=9, note=36, velocity=120, time=73),
    Message('note_on', channel=9, note=46, velocity=120, time=0),
    Message('note_off', channel=9, note=36, velocity=120, time=23),
    Message('note_off', channel=9, note=46, velocity=120, time=0),
    Message('note_on', channel=9, note=46, velocity=105, time=73),
    Message('note_off', channel=9, note=46, velocity=105, time=23),
    Message('note_on', channel=9, note=38, velocity=120, time=73),
    Message('note_on', channel=9, note=46, velocity=120, time=0),
    Message('note_off', channel=9, note=38, velocity=120, time=23),
    Message('note_off', channel=9, note=46, velocity=120, time=0),
    Message('note_on', channel=9, note=46, velocity=105, time=73),
    Message('note_off', channel=9, note=46, velocity=105, time=23),
    Message('note_on', channel=9, note=36, velocity=120, time=73),
    Message('note_on', channel=9, note=46, velocity=120, time=0),
    Message('note_off', channel=9, note=36, velocity=120, time=23),
    Message('note_off', channel=9, note=46, velocity=120, time=0),
    Message('note_on', channel=9, note=46, velocity=105, time=73),
    Message('note_off', channel=9, note=46, velocity=105, time=23),
    Message('note_on', channel=9, note=38, velocity=120, time=73),
    Message('note_on', channel=9, note=46, velocity=120, time=0),
    Message('note_off', channel=9, note=38, velocity=120, time=23),
    Message('note_off', channel=9, note=46, velocity=120, time=0),
    Message('note_on', channel=9, note=46, velocity=105, time=73),
    Message('note_off', channel=9, note=46, velocity=105, time=23),
    Message('note_on', channel=9, note=36, velocity=120, time=73),
    Message('note_on', channel=9, note=46, velocity=120, time=0),
    Message('note_off', channel=9, note=36, velocity=120, time=23),
    Message('note_off', channel=9, note=46, velocity=120, time=0),
    Message('note_on', channel=9, note=46, velocity=105, time=73),
    Message('note_off', channel=9, note=46, velocity=105, time=23),
    Message('note_on', channel=9, note=38, velocity=120, time=73),
    Message('note_on', channel=9, note=46, velocity=120, time=0),
    Message('note_off', channel=9, note=38, velocity=120, time=23),
    Message('note_off', channel=9, note=46, velocity=120, time=0),
    Message('note_on', channel=9, note=46, velocity=105, time=73),
    Message('note_off', channel=9, note=46, velocity=105, time=23),
    Message('note_on', channel=9, note=36, velocity=120, time=73),
    Message('note_on', channel=9, note=49, velocity=120, time=0),
    Message('note_on', channel=9, note=57, velocity=120, time=0),
    Message('note_off', channel=9, note=36, velocity=120, time=23),
    Message('note_off', channel=9, note=49, velocity=120, time=0),
    Message('note_off', channel=9, note=57, velocity=120, time=0),
    Message('note_on', channel=9, note=46, velocity=105, time=73),
    Message('note_off', channel=9, note=46, velocity=105, time=23),
    Message('note_on', channel=9, note=38, velocity=120, time=73),
    Message('note_on', channel=9, note=46, velocity=120, time=0),
    Message('note_off', channel=9, note=38, velocity=120, time=23),
    Message('note_off', channel=9, note=46, velocity=120, time=0),
    Message('note_on', channel=9, note=46, velocity=105, time=73),
    Message('note_off', channel=9, note=46, velocity=105, time=23),
    Message('note_on', channel=9, note=36, velocity=120, time=73),
    Message('note_on', channel=9, note=46, velocity=120, time=0),
    Message('note_off', channel=9, note=36, velocity=120, time=23),
    Message('note_off', channel=9, note=46, velocity=120, time=0),
    Message('note_on', channel=9, note=46, velocity=105, time=73),
    Message('note_off', channel=9, note=46, velocity=105, time=23),
    Message('note_on', channel=9, note=38, velocity=120, time=73),
    Message('note_on', channel=9, note=46, velocity=120, time=0),
    Message('note_off', channel=9, note=38, velocity=120, time=23),
    Message('note_off', channel=9, note=46, velocity=120, time=0),
    Message('note_on', channel=9, note=46, velocity=105, time=73),
    Message('note_off', channel=9, note=46, velocity=105, time=23),
    Message('note_on', channel=9, note=46, velocity=120, time=73),
    Message('note_on', channel=9, note=36, velocity=120, time=0),
    Message('note_off', channel=9, note=46, velocity=120, time=23),
    Message('note_off', channel=9, note=36, velocity=120, time=0),
    Message('note_on', channel=9, note=46, velocity=105, time=73),
    Message('note_off', channel=9, note=46, velocity=105, time=23),
    Message('note_on', channel=9, note=38, velocity=120, time=73),
    Message('note_on', channel=9, note=46, velocity=120, time=0),
    Message('note_off', channel=9, note=38, velocity=120, time=23),
    Message('note_off', channel=9, note=46, velocity=120, time=0),
    Message('note_on', channel=9, note=46, velocity=105, time=73),
    Message('note_off', channel=9, note=46, velocity=105, time=23),
    Message('note_on', channel=9, note=46, velocity=120, time=73),
    Message('note_on', channel=9, note=36, velocity=120, time=0),
    Message('note_off', channel=9, note=46, velocity=120, time=23),
    Message('note_off', channel=9, note=36, velocity=120, time=0),
    Message('note_on', channel=9, note=46, velocity=105, time=73),
    Message('note_off', channel=9, note=46, velocity=105, time=23),
    Message('note_on', channel=9, note=38, velocity=120, time=73),
    Message('note_on', channel=9, note=46, velocity=120, time=0),
    Message('note_off', channel=9, note=38, velocity=120, time=23),
    Message('note_off', channel=9, note=46, velocity=120, time=0),
    Message('note_on', channel=9, note=46, velocity=105, time=73),
    Message('note_off', channel=9, note=46, velocity=105, time=23),
    Message('note_on', channel=9, note=46, velocity=120, time=73),
    Message('note_on', channel=9, note=36, velocity=120, time=0),
    Message('note_off', channel=9, note=46, velocity=120, time=23),
    Message('note_off', channel=9, note=36, velocity=120, time=0),
    Message('note_on', channel=9, note=46, velocity=105, time=73),
    Message('note_off', channel=9, note=46, velocity=105, time=23),
    Message('note_on', channel=9, note=38, velocity=120, time=73),
    Message('note_on', channel=9, note=46, velocity=120, time=0),
    Message('note_off', channel=9, note=38, velocity=120, time=23),
    Message('note_off', channel=9, note=46, velocity=120, time=0),
    Message('note_on', channel=9, note=46, velocity=105, time=73),
    Message('note_off', channel=9, note=46, velocity=105, time=23),
    Message('note_on', channel=9, note=46, velocity=120, time=73),
    Message('note_on', channel=9, note=36, velocity=120, time=0),
    Message('note_off', channel=9, note=46, velocity=120, time=23),
    Message('note_off', channel=9, note=36, velocity=120, time=0),
    Message('note_on', channel=9, note=46, velocity=105, time=73),
    Message('note_off', channel=9, note=46, velocity=105, time=23),
    Message('note_on', channel=9, note=38, velocity=120, time=73),
    Message('note_on', channel=9, note=46, velocity=120, time=0),
    Message('note_off', channel=9, note=38, velocity=120, time=23),
    Message('note_off', channel=9, note=46, velocity=120, time=0),
    Message('note_on', channel=9, note=46, velocity=105, time=73),
    Message('note_off', channel=9, note=46, velocity=105, time=23),
    Message('note_on', channel=9, note=46, velocity=120, time=73),
    Message('note_on', channel=9, note=36, velocity=120, time=0),
    Message('note_off', channel=9, note=46, velocity=120, time=23),
    Message('note_off', channel=9, note=36, velocity=120, time=0),
    Message('note_on', channel=9, note=46, velocity=105, time=73),
    Message('note_off', channel=9, note=46, velocity=105, time=23),
    Message('note_on', channel=9, note=38, velocity=120, time=73),
    Message('note_on', channel=9, note=46, velocity=120, time=0),
    Message('note_off', channel=9, note=38, velocity=120, time=23),
    Message('note_off', channel=9, note=46, velocity=120, time=0),
    Message('note_on', channel=9, note=46, velocity=105, time=73),
    Message('note_off', channel=9, note=46, velocity=105, time=23),
    Message('note_on', channel=9, note=46, velocity=120, time=73),
    Message('note_on', channel=9, note=36, velocity=120, time=0),
    Message('note_off', channel=9, note=46, velocity=120, time=23),
    Message('note_off', channel=9, note=36, velocity=120, time=0),
    Message('note_on', channel=9, note=46, velocity=105, time=73),
    Message('note_on', channel=9, note=36, velocity=120, time=0),
    Message('note_off', channel=9, note=46, velocity=105, time=23),
    Message('note_off', channel=9, note=36, velocity=120, time=0),
    Message('note_on', channel=9, note=38, velocity=120, time=73),
    Message('note_on', channel=9, note=46, velocity=120, time=0),
    Message('note_off', channel=9, note=38, velocity=120, time=23),
    Message('note_off', channel=9, note=46, velocity=120, time=0),
    Message('note_on', channel=9, note=46, velocity=105, time=73),
    Message('note_off', channel=9, note=46, velocity=105, time=23),
    Message('note_on', channel=9, note=36, velocity=120, time=73),
    Message('note_on', channel=9, note=49, velocity=120, time=0),
    Message('note_on', channel=9, note=57, velocity=120, time=0),
    Message('note_off', channel=9, note=36, velocity=120, time=23),
    Message('note_off', channel=9, note=49, velocity=120, time=0),
    Message('note_off', channel=9, note=57, velocity=120, time=0),
    Message('note_on', channel=9, note=46, velocity=105, time=73),
    Message('note_off', channel=9, note=46, velocity=105, time=23),
    Message('note_on', channel=9, note=38, velocity=120, time=73),
    Message('note_on', channel=9, note=46, velocity=120, time=0),
    Message('note_off', channel=9, note=38, velocity=120, time=23),
    Message('note_off', channel=9, note=46, velocity=120, time=0),
    Message('note_on', channel=9, note=46, velocity=105, time=73),
    Message('note_off', channel=9, note=46, velocity=105, time=23),
    Message('note_on', channel=9, note=36, velocity=120, time=73),
    Message('note_on', channel=9, note=46, velocity=120, time=0),
    Message('note_off', channel=9, note=36, velocity=120, time=23),
    Message('note_off', channel=9, note=46, velocity=120, time=0),
    Message('note_on', channel=9, note=46, velocity=105, time=73),
    Message('note_off', channel=9, note=46, velocity=105, time=23),
    Message('note_on', channel=9, note=38, velocity=120, time=73),
    Message('note_on', channel=9, note=46, velocity=120, time=0),
    Message('note_off', channel=9, note=38, velocity=120, time=23),
    Message('note_off', channel=9, note=46, velocity=120, time=0),
    Message('note_on', channel=9, note=46, velocity=105, time=73),
    Message('note_off', channel=9, note=46, velocity=105, time=23),
    Message('note_on', channel=9, note=46, velocity=120, time=73),
    Message('note_on', channel=9, note=36, velocity=120, time=0),
    Message('note_off', channel=9, note=46, velocity=120, time=23),
    Message('note_off', channel=9, note=36, velocity=120, time=0),
    Message('note_on', channel=9, note=46, velocity=105, time=73),
    Message('note_off', channel=9, note=46, velocity=105, time=23),
    Message('note_on', channel=9, note=38, velocity=120, time=73),
    Message('note_on', channel=9, note=46, velocity=120, time=0),
    Message('note_off', channel=9, note=38, velocity=120, time=23),
    Message('note_off', channel=9, note=46, velocity=120, time=0),
    Message('note_on', channel=9, note=46, velocity=105, time=73),
    Message('note_off', channel=9, note=46, velocity=105, time=23),
    Message('note_on', channel=9, note=46, velocity=120, time=73),
    Message('note_on', channel=9, note=36, velocity=120, time=0),
    Message('note_off', channel=9, note=46, velocity=120, time=23),
    Message('note_off', channel=9, note=36, velocity=120, time=0),
    Message('note_on', channel=9, note=46, velocity=105, time=73),
    Message('note_off', channel=9, note=46, velocity=105, time=23),
    Message('note_on', channel=9, note=38, velocity=120, time=73),
    Message('note_on', channel=9, note=46, velocity=120, time=0),
    Message('note_off', channel=9, note=38, velocity=120, time=23),
    Message('note_off', channel=9, note=46, velocity=120, time=0),
    Message('note_on', channel=9, note=46, velocity=105, time=73),
    Message('note_off', channel=9, note=46, velocity=105, time=23),
    Message('note_on', channel=9, note=46, velocity=120, time=73),
    Message('note_on', channel=9, note=36, velocity=120, time=0),
    Message('note_off', channel=9, note=46, velocity=120, time=23),
    Message('note_off', channel=9, note=36, velocity=120, time=0),
    Message('note_on', channel=9, note=46, velocity=105, time=73),
    Message('note_off', channel=9, note=46, velocity=105, time=23),
    Message('note_on', channel=9, note=38, velocity=120, time=73),
    Message('note_on', channel=9, note=46, velocity=120, time=0),
    Message('note_off', channel=9, note=38, velocity=120, time=23),
    Message('note_off', channel=9, note=46, velocity=120, time=0),
    Message('note_on', channel=9, note=46, velocity=105, time=73),
    Message('note_off', channel=9, note=46, velocity=105, time=23),
    Message('note_on', channel=9, note=46, velocity=120, time=73),
    Message('note_on', channel=9, note=36, velocity=120, time=0),
    Message('note_off', channel=9, note=46, velocity=120, time=23),
    Message('note_off', channel=9, note=36, velocity=120, time=0),
    Message('note_on', channel=9, note=46, velocity=105, time=73),
    Message('note_off', channel=9, note=46, velocity=105, time=23),
    Message('note_on', channel=9, note=38, velocity=120, time=73),
    Message('note_on', channel=9, note=46, velocity=120, time=0),
    Message('note_off', channel=9, note=38, velocity=120, time=23),
    Message('note_off', channel=9, note=46, velocity=120, time=0),
    Message('note_on', channel=9, note=46, velocity=105, time=73),
    Message('note_off', channel=9, note=46, velocity=105, time=23),
    Message('note_on', channel=9, note=46, velocity=120, time=73),
    Message('note_on', channel=9, note=36, velocity=120, time=0),
    Message('note_off', channel=9, note=46, velocity=120, time=23),
    Message('note_off', channel=9, note=36, velocity=120, time=0),
    Message('note_on', channel=9, note=46, velocity=105, time=73),
    Message('note_off', channel=9, note=46, velocity=105, time=23),
    Message('note_on', channel=9, note=38, velocity=120, time=73),
    Message('note_on', channel=9, note=46, velocity=120, time=0),
    Message('note_off', channel=9, note=38, velocity=120, time=23),
    Message('note_off', channel=9, note=46, velocity=120, time=0),
    Message('note_on', channel=9, note=46, velocity=105, time=73),
    Message('note_off', channel=9, note=46, velocity=105, time=23),
    Message('note_on', channel=9, note=46, velocity=120, time=73),
    Message('note_on', channel=9, note=36, velocity=120, time=0),
    Message('note_off', channel=9, note=46, velocity=120, time=23),
    Message('note_off', channel=9, note=36, velocity=120, time=0),
    Message('note_on', channel=9, note=46, velocity=105, time=73),
    Message('note_on', channel=9, note=36, velocity=120, time=0),
    Message('note_off', channel=9, note=46, velocity=105, time=23),
    Message('note_off', channel=9, note=36, velocity=120, time=0),
    Message('note_on', channel=9, note=38, velocity=120, time=73),
    Message('note_on', channel=9, note=46, velocity=120, time=0),
    Message('note_off', channel=9, note=38, velocity=120, time=23),
    Message('note_off', channel=9, note=46, velocity=120, time=0),
    Message('note_on', channel=9, note=46, velocity=105, time=73),
    Message('note_off', channel=9, note=46, velocity=105, time=23),
    Message('note_on', channel=9, note=36, velocity=120, time=73),
    Message('note_on', channel=9, note=49, velocity=120, time=0),
    Message('note_on', channel=9, note=57, velocity=120, time=0),
    Message('note_off', channel=9, note=36, velocity=120, time=23),
    Message('note_off', channel=9, note=49, velocity=120, time=0),
    Message('note_off', channel=9, note=57, velocity=120, time=0),
    Message('note_on', channel=9, note=46, velocity=105, time=73),
    Message('note_off', channel=9, note=46, velocity=105, time=23),
    Message('note_on', channel=9, note=38, velocity=120, time=73),
    Message('note_on', channel=9, note=46, velocity=120, time=0),
    Message('note_off', channel=9, note=38, velocity=120, time=23),
    Message('note_off', channel=9, note=46, velocity=120, time=0),
    Message('note_on', channel=9, note=46, velocity=105, time=73),
    Message('note_off', channel=9, note=46, velocity=105, time=23),
    Message('note_on', channel=9, note=36, velocity=120, time=73),
    Message('note_on', channel=9, note=46, velocity=120, time=0),
    Message('note_off', channel=9, note=36, velocity=120, time=23),
    Message('note_off', channel=9, note=46, velocity=120, time=0),
    Message('note_on', channel=9, note=46, velocity=105, time=73),
    Message('note_off', channel=9, note=46, velocity=105, time=23),
    Message('note_on', channel=9, note=38, velocity=120, time=73),
    Message('note_on', channel=9, note=46, velocity=120, time=0),
    Message('note_off', channel=9, note=38, velocity=120, time=23),
    Message('note_off', channel=9, note=46, velocity=120, time=0),
    Message('note_on', channel=9, note=46, velocity=105, time=73),
    Message('note_off', channel=9, note=46, velocity=105, time=23),
    Message('note_on', channel=9, note=46, velocity=120, time=73),
    Message('note_on', channel=9, note=36, velocity=120, time=0),
    Message('note_off', channel=9, note=46, velocity=120, time=23),
    Message('note_off', channel=9, note=36, velocity=120, time=0),
    Message('note_on', channel=9, note=46, velocity=105, time=73),
    Message('note_off', channel=9, note=46, velocity=105, time=23),
    Message('note_on', channel=9, note=38, velocity=120, time=73),
    Message('note_on', channel=9, note=46, velocity=120, time=0),
    Message('note_off', channel=9, note=38, velocity=120, time=23),
    Message('note_off', channel=9, note=46, velocity=120, time=0),
    Message('note_on', channel=9, note=46, velocity=105, time=73),
    Message('note_off', channel=9, note=46, velocity=105, time=23),
    Message('note_on', channel=9, note=46, velocity=120, time=73),
    Message('note_on', channel=9, note=36, velocity=120, time=0),
    Message('note_off', channel=9, note=46, velocity=120, time=23),
    Message('note_off', channel=9, note=36, velocity=120, time=0),
    Message('note_on', channel=9, note=46, velocity=105, time=73),
    Message('note_off', channel=9, note=46, velocity=105, time=23),
    Message('note_on', channel=9, note=38, velocity=120, time=73),
    Message('note_on', channel=9, note=46, velocity=120, time=0),
    Message('note_off', channel=9, note=38, velocity=120, time=23),
    Message('note_off', channel=9, note=46, velocity=120, time=0),
    Message('note_on', channel=9, note=46, velocity=105, time=73),
    Message('note_off', channel=9, note=46, velocity=105, time=23),
    Message('note_on', channel=9, note=46, velocity=120, time=73),
    Message('note_on', channel=9, note=36, velocity=120, time=0),
    Message('note_off', channel=9, note=46, velocity=120, time=23),
    Message('note_off', channel=9, note=36, velocity=120, time=0),
    Message('note_on', channel=9, note=46, velocity=105, time=73),
    Message('note_off', channel=9, note=46, velocity=105, time=23),
    Message('note_on', channel=9, note=38, velocity=120, time=73),
    Message('note_on', channel=9, note=46, velocity=120, time=0),
    Message('note_off', channel=9, note=38, velocity=120, time=23),
    Message('note_off', channel=9, note=46, velocity=120, time=0),
    Message('note_on', channel=9, note=46, velocity=105, time=73),
    Message('note_off', channel=9, note=46, velocity=105, time=23),
    Message('note_on', channel=9, note=46, velocity=120, time=73),
    Message('note_on', channel=9, note=36, velocity=120, time=0),
    Message('note_off', channel=9, note=46, velocity=120, time=23),
    Message('note_off', channel=9, note=36, velocity=120, time=0),
    Message('note_on', channel=9, note=46, velocity=105, time=73),
    Message('note_off', channel=9, note=46, velocity=105, time=23),
    Message('note_on', channel=9, note=38, velocity=120, time=73),
    Message('note_on', channel=9, note=46, velocity=120, time=0),
    Message('note_off', channel=9, note=38, velocity=120, time=23),
    Message('note_off', channel=9, note=46, velocity=120, time=0),
    Message('note_on', channel=9, note=46, velocity=105, time=73),
    Message('note_off', channel=9, note=46, velocity=105, time=23),
    Message('note_on', channel=9, note=46, velocity=120, time=73),
    Message('note_on', channel=9, note=36, velocity=120, time=0),
    Message('note_off', channel=9, note=46, velocity=120, time=23),
    Message('note_off', channel=9, note=36, velocity=120, time=0),
    Message('note_on', channel=9, note=46, velocity=105, time=73),
    Message('note_off', channel=9, note=46, velocity=105, time=23),
    Message('note_on', channel=9, note=38, velocity=120, time=73),
    Message('note_on', channel=9, note=46, velocity=120, time=0),
    Message('note_off', channel=9, note=38, velocity=120, time=23),
    Message('note_off', channel=9, note=46, velocity=120, time=0),
    Message('note_on', channel=9, note=46, velocity=105, time=73),
    Message('note_off', channel=9, note=46, velocity=105, time=23),
    Message('note_on', channel=9, note=46, velocity=120, time=73),
    Message('note_on', channel=9, note=36, velocity=120, time=0),
    Message('note_off', channel=9, note=46, velocity=120, time=23),
    Message('note_off', channel=9, note=36, velocity=120, time=0),
    Message('note_on', channel=9, note=46, velocity=105, time=73),
    Message('note_on', channel=9, note=36, velocity=120, time=0),
    Message('note_off', channel=9, note=46, velocity=105, time=23),
    Message('note_off', channel=9, note=36, velocity=120, time=0),
    Message('note_on', channel=9, note=38, velocity=120, time=73),
    Message('note_on', channel=9, note=46, velocity=120, time=0),
    Message('note_off', channel=9, note=38, velocity=120, time=23),
    Message('note_off', channel=9, note=46, velocity=120, time=0),
    Message('note_on', channel=9, note=46, velocity=105, time=73),
    Message('note_off', channel=9, note=46, velocity=105, time=23),
    Message('note_on', channel=9, note=36, velocity=120, time=73),
    Message('note_on', channel=9, note=49, velocity=120, time=0),
    Message('note_on', channel=9, note=57, velocity=120, time=0),
    Message('note_off', channel=9, note=36, velocity=120, time=23),
    Message('note_off', channel=9, note=49, velocity=120, time=0),
    Message('note_off', channel=9, note=57, velocity=120, time=0),
    Message('note_on', channel=9, note=46, velocity=105, time=73),
    Message('note_off', channel=9, note=46, velocity=105, time=23),
    Message('note_on', channel=9, note=38, velocity=120, time=73),
    Message('note_on', channel=9, note=46, velocity=120, time=0),
    Message('note_off', channel=9, note=38, velocity=120, time=23),
    Message('note_off', channel=9, note=46, velocity=120, time=0),
    Message('note_on', channel=9, note=46, velocity=105, time=73),
    Message('note_off', channel=9, note=46, velocity=105, time=23),
    Message('note_on', channel=9, note=36, velocity=120, time=73),
    Message('note_on', channel=9, note=46, velocity=120, time=0),
    Message('note_off', channel=9, note=36, velocity=120, time=23),
    Message('note_off', channel=9, note=46, velocity=120, time=0),
    Message('note_on', channel=9, note=46, velocity=105, time=73),
    Message('note_off', channel=9, note=46, velocity=105, time=23),
    Message('note_on', channel=9, note=38, velocity=120, time=73),
    Message('note_on', channel=9, note=46, velocity=120, time=0),
    Message('note_off', channel=9, note=38, velocity=120, time=23),
    Message('note_off', channel=9, note=46, velocity=120, time=0),
    Message('note_on', channel=9, note=46, velocity=105, time=73),
    Message('note_off', channel=9, note=46, velocity=105, time=23),
    Message('note_on', channel=9, note=46, velocity=120, time=73),
    Message('note_on', channel=9, note=36, velocity=120, time=0),
    Message('note_off', channel=9, note=46, velocity=120, time=23),
    Message('note_off', channel=9, note=36, velocity=120, time=0),
    Message('note_on', channel=9, note=46, velocity=105, time=73),
    Message('note_off', channel=9, note=46, velocity=105, time=23),
    Message('note_on', channel=9, note=38, velocity=120, time=73),
    Message('note_on', channel=9, note=46, velocity=120, time=0),
    Message('note_off', channel=9, note=38, velocity=120, time=23),
    Message('note_off', channel=9, note=46, velocity=120, time=0),
    Message('note_on', channel=9, note=46, velocity=105, time=73),
    Message('note_off', channel=9, note=46, velocity=105, time=23),
    Message('note_on', channel=9, note=46, velocity=120, time=73),
    Message('note_on', channel=9, note=36, velocity=120, time=0),
    Message('note_off', channel=9, note=46, velocity=120, time=23),
    Message('note_off', channel=9, note=36, velocity=120, time=0),
    Message('note_on', channel=9, note=46, velocity=105, time=73),
    Message('note_off', channel=9, note=46, velocity=105, time=23),
    Message('note_on', channel=9, note=38, velocity=120, time=73),
    Message('note_on', channel=9, note=46, velocity=120, time=0),
    Message('note_off', channel=9, note=38, velocity=120, time=23),
    Message('note_off', channel=9, note=46, velocity=120, time=0),
    Message('note_on', channel=9, note=46, velocity=105, time=73),
    Message('note_off', channel=9, note=46, velocity=105, time=23),
    Message('note_on', channel=9, note=46, velocity=120, time=73),
    Message('note_on', channel=9, note=36, velocity=120, time=0),
    Message('note_off', channel=9, note=46, velocity=120, time=23),
    Message('note_off', channel=9, note=36, velocity=120, time=0),
    Message('note_on', channel=9, note=46, velocity=105, time=73),
    Message('note_off', channel=9, note=46, velocity=105, time=23),
    Message('note_on', channel=9, note=38, velocity=120, time=73),
    Message('note_on', channel=9, note=46, velocity=120, time=0),
    Message('note_off', channel=9, note=38, velocity=120, time=23),
    Message('note_off', channel=9, note=46, velocity=120, time=0),
    Message('note_on', channel=9, note=46, velocity=105, time=73),
    Message('note_off', channel=9, note=46, velocity=105, time=23),
    Message('note_on', channel=9, note=46, velocity=120, time=73),
    Message('note_on', channel=9, note=36, velocity=120, time=0),
    Message('note_off', channel=9, note=46, velocity=120, time=23),
    Message('note_off', channel=9, note=36, velocity=120, time=0),
    Message('note_on', channel=9, note=46, velocity=105, time=73),
    Message('note_off', channel=9, note=46, velocity=105, time=23),
    Message('note_on', channel=9, note=38, velocity=120, time=73),
    Message('note_on', channel=9, note=46, velocity=120, time=0),
    Message('note_off', channel=9, note=38, velocity=120, time=23),
    Message('note_off', channel=9, note=46, velocity=120, time=0),
    Message('note_on', channel=9, note=46, velocity=105, time=73),
    Message('note_off', channel=9, note=46, velocity=105, time=23),
    Message('note_on', channel=9, note=46, velocity=120, time=73),
    Message('note_on', channel=9, note=36, velocity=120, time=0),
    Message('note_off', channel=9, note=46, velocity=120, time=23),
    Message('note_off', channel=9, note=36, velocity=120, time=0),
    Message('note_on', channel=9, note=46, velocity=105, time=73),
    Message('note_off', channel=9, note=46, velocity=105, time=23),
    Message('note_on', channel=9, note=38, velocity=120, time=73),
    Message('note_on', channel=9, note=46, velocity=120, time=0),
    Message('note_off', channel=9, note=38, velocity=120, time=23),
    Message('note_off', channel=9, note=46, velocity=120, time=0),
    Message('note_on', channel=9, note=46, velocity=105, time=73),
    Message('note_off', channel=9, note=46, velocity=105, time=23),
    Message('note_on', channel=9, note=46, velocity=120, time=73),
    Message('note_on', channel=9, note=36, velocity=120, time=0),
    Message('note_off', channel=9, note=46, velocity=120, time=23),
    Message('note_off', channel=9, note=36, velocity=120, time=0),
    Message('note_on', channel=9, note=46, velocity=120, time=73),
    Message('note_on', channel=9, note=38, velocity=120, time=0),
    Message('note_off', channel=9, note=46, velocity=120, time=23),
    Message('note_off', channel=9, note=38, velocity=120, time=0),
    Message('note_on', channel=9, note=38, velocity=120, time=73),
    Message('note_on', channel=9, note=46, velocity=120, time=0),
    Message('note_off', channel=9, note=38, velocity=120, time=23),
    Message('note_off', channel=9, note=46, velocity=120, time=0),
    Message('note_on', channel=9, note=36, velocity=120, time=73),
    Message('note_on', channel=9, note=57, velocity=120, time=0),
    Message('note_off', channel=9, note=36, velocity=120, time=23),
    Message('note_off', channel=9, note=57, velocity=120, time=0),
    Message('note_on', channel=9, note=46, velocity=120, time=73),
    Message('note_off', channel=9, note=46, velocity=120, time=23),
    Message('note_on', channel=9, note=36, velocity=120, time=73),
    Message('note_on', channel=9, note=46, velocity=105, time=0),
    Message('note_off', channel=9, note=36, velocity=120, time=23),
    Message('note_off', channel=9, note=46, velocity=105, time=0),
    Message('note_on', channel=9, note=38, velocity=120, time=73),
    Message('note_on', channel=9, note=46, velocity=120, time=0),
    Message('note_off', channel=9, note=38, velocity=120, time=23),
    Message('note_off', channel=9, note=46, velocity=120, time=0),
    Message('note_on', channel=9, note=46, velocity=105, time=73),
    Message('note_off', channel=9, note=46, velocity=105, time=23),
    Message('note_on', channel=9, note=36, velocity=120, time=73),
    Message('note_on', channel=9, note=46, velocity=120, time=0),
    Message('note_off', channel=9, note=36, velocity=120, time=23),
    Message('note_off', channel=9, note=46, velocity=120, time=0),
    Message('note_on', channel=9, note=46, velocity=105, time=73),
    Message('note_off', channel=9, note=46, velocity=105, time=23),
    Message('note_on', channel=9, note=38, velocity=120, time=73),
    Message('note_on', channel=9, note=46, velocity=120, time=0),
    Message('note_off', channel=9, note=38, velocity=120, time=23),
    Message('note_off', channel=9, note=46, velocity=120, time=0),
    Message('note_on', channel=9, note=46, velocity=105, time=73),
    Message('note_off', channel=9, note=46, velocity=105, time=23),
    Message('note_on', channel=9, note=36, velocity=120, time=73),
    Message('note_on', channel=9, note=46, velocity=120, time=0),
    Message('note_off', channel=9, note=36, velocity=120, time=23),
    Message('note_off', channel=9, note=46, velocity=120, time=0),
    Message('note_on', channel=9, note=46, velocity=105, time=73),
    Message('note_off', channel=9, note=46, velocity=105, time=23),
    Message('note_on', channel=9, note=38, velocity=120, time=73),
    Message('note_on', channel=9, note=46, velocity=120, time=0),
    Message('note_off', channel=9, note=38, velocity=120, time=23),
    Message('note_off', channel=9, note=46, velocity=120, time=0),
    Message('note_on', channel=9, note=46, velocity=105, time=73),
    Message('note_off', channel=9, note=46, velocity=105, time=23),
    Message('note_on', channel=9, note=36, velocity=120, time=73),
    Message('note_on', channel=9, note=46, velocity=120, time=0),
    Message('note_off', channel=9, note=36, velocity=120, time=23),
    Message('note_off', channel=9, note=46, velocity=120, time=0),
    Message('note_on', channel=9, note=36, velocity=120, time=73),
    Message('note_on', channel=9, note=46, velocity=127, time=0),
    Message('note_off', channel=9, note=36, velocity=120, time=23),
    Message('note_off', channel=9, note=46, velocity=127, time=0),
    Message('note_on', channel=9, note=38, velocity=120, time=73),
    Message('note_on', channel=9, note=44, velocity=60, time=0),
    Message('note_off', channel=9, note=38, velocity=120, time=23),
    Message('note_off', channel=9, note=44, velocity=60, time=0),
    Message('note_on', channel=9, note=36, velocity=120, time=73),
    Message('note_on', channel=9, note=49, velocity=127, time=0),
    Message('note_off', channel=9, note=36, velocity=120, time=23),
    Message('note_off', channel=9, note=49, velocity=127, time=0),
    Message('note_on', channel=9, note=46, velocity=120, time=73),
    Message('note_off', channel=9, note=46, velocity=120, time=23),
    Message('note_on', channel=9, note=36, velocity=120, time=73),
    Message('note_on', channel=9, note=46, velocity=105, time=0),
    Message('note_off', channel=9, note=36, velocity=120, time=23),
    Message('note_off', channel=9, note=46, velocity=105, time=0),
    Message('note_on', channel=9, note=38, velocity=120, time=73),
    Message('note_on', channel=9, note=46, velocity=120, time=0),
    Message('note_off', channel=9, note=38, velocity=120, time=23),
    Message('note_off', channel=9, note=46, velocity=120, time=0),
    Message('note_on', channel=9, note=46, velocity=105, time=73),
    Message('note_off', channel=9, note=46, velocity=105, time=23),
    Message('note_on', channel=9, note=36, velocity=120, time=73),
    Message('note_on', channel=9, note=46, velocity=120, time=0),
    Message('note_off', channel=9, note=36, velocity=120, time=23),
    Message('note_off', channel=9, note=46, velocity=120, time=0),
    Message('note_on', channel=9, note=46, velocity=105, time=73),
    Message('note_off', channel=9, note=46, velocity=105, time=23),
    Message('note_on', channel=9, note=38, velocity=120, time=73),
    Message('note_on', channel=9, note=46, velocity=120, time=0),
    Message('note_off', channel=9, note=38, velocity=120, time=23),
    Message('note_off', channel=9, note=46, velocity=120, time=0),
    Message('note_on', channel=9, note=46, velocity=105, time=73),
    Message('note_off', channel=9, note=46, velocity=105, time=23),
    Message('note_on', channel=9, note=36, velocity=120, time=73),
    Message('note_on', channel=9, note=46, velocity=120, time=0),
    Message('note_off', channel=9, note=36, velocity=120, time=23),
    Message('note_off', channel=9, note=46, velocity=120, time=0),
    Message('note_on', channel=9, note=46, velocity=105, time=73),
    Message('note_off', channel=9, note=46, velocity=105, time=23),
    Message('note_on', channel=9, note=38, velocity=120, time=73),
    Message('note_on', channel=9, note=46, velocity=120, time=0),
    Message('note_off', channel=9, note=38, velocity=120, time=23),
    Message('note_off', channel=9, note=46, velocity=120, time=0),
    Message('note_on', channel=9, note=46, velocity=105, time=73),
    Message('note_off', channel=9, note=46, velocity=105, time=23),
    Message('note_on', channel=9, note=36, velocity=120, time=73),
    Message('note_on', channel=9, note=46, velocity=120, time=0),
    Message('note_off', channel=9, note=36, velocity=120, time=23),
    Message('note_off', channel=9, note=46, velocity=120, time=0),
    Message('note_on', channel=9, note=36, velocity=120, time=73),
    Message('note_on', channel=9, note=46, velocity=127, time=0),
    Message('note_off', channel=9, note=36, velocity=120, time=23),
    Message('note_off', channel=9, note=46, velocity=127, time=0),
    Message('note_on', channel=9, note=38, velocity=120, time=73),
    Message('note_on', channel=9, note=44, velocity=60, time=0),
    Message('note_off', channel=9, note=38, velocity=120, time=23),
    Message('note_off', channel=9, note=44, velocity=60, time=0),
    Message('note_on', channel=9, note=36, velocity=120, time=73),
    Message('note_on', channel=9, note=49, velocity=127, time=0),
    Message('note_off', channel=9, note=36, velocity=120, time=23),
    Message('note_off', channel=9, note=49, velocity=127, time=0),
    Message('note_on', channel=9, note=46, velocity=120, time=73),
    Message('note_off', channel=9, note=46, velocity=120, time=23),
    Message('note_on', channel=9, note=36, velocity=120, time=73),
    Message('note_on', channel=9, note=46, velocity=105, time=0),
    Message('note_off', channel=9, note=36, velocity=120, time=23),
    Message('note_off', channel=9, note=46, velocity=105, time=0),
    Message('note_on', channel=9, note=38, velocity=120, time=73),
    Message('note_on', channel=9, note=46, velocity=120, time=0),
    Message('note_off', channel=9, note=38, velocity=120, time=23),
    Message('note_off', channel=9, note=46, velocity=120, time=0),
    Message('note_on', channel=9, note=46, velocity=105, time=73),
    Message('note_off', channel=9, note=46, velocity=105, time=23),
    Message('note_on', channel=9, note=36, velocity=120, time=73),
    Message('note_on', channel=9, note=46, velocity=120, time=0),
    Message('note_off', channel=9, note=36, velocity=120, time=23),
    Message('note_off', channel=9, note=46, velocity=120, time=0),
    Message('note_on', channel=9, note=46, velocity=105, time=73),
    Message('note_off', channel=9, note=46, velocity=105, time=23),
    Message('note_on', channel=9, note=38, velocity=120, time=73),
    Message('note_on', channel=9, note=46, velocity=120, time=0),
    Message('note_off', channel=9, note=38, velocity=120, time=23),
    Message('note_off', channel=9, note=46, velocity=120, time=0),
    Message('note_on', channel=9, note=46, velocity=105, time=73),
    Message('note_off', channel=9, note=46, velocity=105, time=23),
    Message('note_on', channel=9, note=36, velocity=120, time=73),
    Message('note_on', channel=9, note=46, velocity=120, time=0),
    Message('note_off', channel=9, note=36, velocity=120, time=23),
    Message('note_off', channel=9, note=46, velocity=120, time=0),
    Message('note_on', channel=9, note=46, velocity=105, time=73),
    Message('note_off', channel=9, note=46, velocity=105, time=23),
    Message('note_on', channel=9, note=38, velocity=120, time=73),
    Message('note_on', channel=9, note=46, velocity=120, time=0),
    Message('note_off', channel=9, note=38, velocity=120, time=23),
    Message('note_off', channel=9, note=46, velocity=120, time=0),
    Message('note_on', channel=9, note=46, velocity=105, time=73),
    Message('note_off', channel=9, note=46, velocity=105, time=23),
    Message('note_on', channel=9, note=36, velocity=120, time=73),
    Message('note_on', channel=9, note=46, velocity=120, time=0),
    Message('note_off', channel=9, note=36, velocity=120, time=23),
    Message('note_off', channel=9, note=46, velocity=120, time=0),
    Message('note_on', channel=9, note=36, velocity=120, time=73),
    Message('note_on', channel=9, note=46, velocity=127, time=0),
    Message('note_off', channel=9, note=36, velocity=120, time=23),
    Message('note_off', channel=9, note=46, velocity=127, time=0),
    Message('note_on', channel=9, note=38, velocity=120, time=73),
    Message('note_on', channel=9, note=44, velocity=60, time=0),
    Message('note_off', channel=9, note=38, velocity=120, time=23),
    Message('note_off', channel=9, note=44, velocity=60, time=0),
    Message('note_on', channel=9, note=36, velocity=120, time=73),
    Message('note_on', channel=9, note=49, velocity=127, time=0),
    Message('note_off', channel=9, note=36, velocity=120, time=23),
    Message('note_off', channel=9, note=49, velocity=127, time=0),
    Message('note_on', channel=9, note=46, velocity=120, time=73),
    Message('note_off', channel=9, note=46, velocity=120, time=23),
    Message('note_on', channel=9, note=36, velocity=120, time=73),
    Message('note_on', channel=9, note=46, velocity=105, time=0),
    Message('note_off', channel=9, note=36, velocity=120, time=23),
    Message('note_off', channel=9, note=46, velocity=105, time=0),
    Message('note_on', channel=9, note=38, velocity=120, time=73),
    Message('note_on', channel=9, note=46, velocity=120, time=0),
    Message('note_off', channel=9, note=38, velocity=120, time=23),
    Message('note_off', channel=9, note=46, velocity=120, time=0),
    Message('note_on', channel=9, note=46, velocity=105, time=73),
    Message('note_off', channel=9, note=46, velocity=105, time=23),
    Message('note_on', channel=9, note=36, velocity=120, time=73),
    Message('note_on', channel=9, note=46, velocity=120, time=0),
    Message('note_off', channel=9, note=36, velocity=120, time=23),
    Message('note_off', channel=9, note=46, velocity=120, time=0),
    Message('note_on', channel=9, note=46, velocity=127, time=73),
    Message('note_off', channel=9, note=46, velocity=127, time=23),
    Message('note_on', channel=9, note=38, velocity=120, time=73),
    Message('note_on', channel=9, note=44, velocity=60, time=0),
    Message('note_off', channel=9, note=38, velocity=120, time=23),
    Message('note_off', channel=9, note=44, velocity=60, time=0),
    Message('note_on', channel=9, note=57, velocity=120, time=73),
    Message('note_on', channel=9, note=36, velocity=120, time=0),
    Message('note_off', channel=9, note=57, velocity=120, time=23),
    Message('note_off', channel=9, note=36, velocity=120, time=0),
    Message('note_on', channel=9, note=47, velocity=120, time=164),
    Message('note_on', channel=9, note=50, velocity=120, time=7),
    Message('note_off', channel=9, note=47, velocity=120, time=16),
    Message('note_off', channel=9, note=50, velocity=120, time=7),
    Message('note_on', channel=9, note=50, velocity=120, time=69),
    Message('note_on', channel=9, note=47, velocity=120, time=5),
    Message('note_off', channel=9, note=50, velocity=120, time=18),
    Message('note_off', channel=9, note=47, velocity=120, time=5),
    Message('note_on', channel=9, note=48, velocity=120, time=69),
    Message('note_on', channel=9, note=45, velocity=120, time=4),
    Message('note_off', channel=9, note=48, velocity=120, time=19),
    Message('note_off', channel=9, note=45, velocity=120, time=4),
    Message('note_on', channel=9, note=48, velocity=120, time=68),
    Message('note_on', channel=9, note=45, velocity=120, time=4),
    Message('note_off', channel=9, note=48, velocity=120, time=19),
    Message('note_off', channel=9, note=45, velocity=120, time=4),
    Message('note_on', channel=9, note=47, velocity=120, time=68),
    Message('note_on', channel=9, note=43, velocity=120, time=1),
    Message('note_off', channel=9, note=47, velocity=120, time=22),
    Message('note_off', channel=9, note=43, velocity=120, time=1),
    Message('note_on', channel=9, note=43, velocity=120, time=73),
    Message('note_on', channel=9, note=47, velocity=120, time=3),
    Message('note_off', channel=9, note=43, velocity=120, time=20),
    Message('note_off', channel=9, note=47, velocity=120, time=3),
    Message('note_on', channel=9, note=36, velocity=120, time=72),
    Message('note_on', channel=9, note=49, velocity=120, time=0),
    Message('note_off', channel=9, note=36, velocity=120, time=23),
    Message('note_off', channel=9, note=49, velocity=120, time=0),
    Message('note_on', channel=9, note=51, velocity=120, time=73),
    Message('note_off', channel=9, note=51, velocity=120, time=23),
    Message('note_on', channel=9, note=36, velocity=120, time=73),
    Message('note_on', channel=9, note=51, velocity=105, time=0),
    Message('note_off', channel=9, note=36, velocity=120, time=23),
    Message('note_off', channel=9, note=51, velocity=105, time=0),
    Message('note_on', channel=9, note=36, velocity=120, time=25),
    Message('note_off', channel=9, note=36, velocity=120, time=23),
    Message('note_on', channel=9, note=38, velocity=120, time=25),
    Message('note_on', channel=9, note=57, velocity=120, time=0),
    Message('note_off', channel=9, note=38, velocity=120, time=23),
    Message('note_off', channel=9, note=57, velocity=120, time=0),
    Message('note_on', channel=9, note=51, velocity=105, time=73),
    Message('note_off', channel=9, note=51, velocity=105, time=23),
    Message('note_on', channel=9, note=51, velocity=120, time=73),
    Message('note_on', channel=9, note=36, velocity=120, time=0),
    Message('note_off', channel=9, note=51, velocity=120, time=23),
    Message('note_off', channel=9, note=36, velocity=120, time=0),
    Message('note_on', channel=9, note=51, velocity=105, time=73),
    Message('note_off', channel=9, note=51, velocity=105, time=23),
    Message('note_on', channel=9, note=51, velocity=120, time=73),
    Message('note_on', channel=9, note=38, velocity=120, time=0),
    Message('note_off', channel=9, note=51, velocity=120, time=23),
    Message('note_off', channel=9, note=38, velocity=120, time=0),
    Message('note_on', channel=9, note=51, velocity=105, time=73),
    Message('note_off', channel=9, note=51, velocity=105, time=23),
    Message('note_on', channel=9, note=51, velocity=120, time=73),
    Message('note_on', channel=9, note=36, velocity=120, time=0),
    Message('note_off', channel=9, note=51, velocity=120, time=23),
    Message('note_off', channel=9, note=36, velocity=120, time=0),
    Message('note_on', channel=9, note=51, velocity=105, time=73),
    Message('note_off', channel=9, note=51, velocity=105, time=23),
    Message('note_on', channel=9, note=51, velocity=120, time=73),
    Message('note_on', channel=9, note=38, velocity=120, time=0),
    Message('note_off', channel=9, note=51, velocity=120, time=23),
    Message('note_off', channel=9, note=38, velocity=120, time=0),
    Message('note_on', channel=9, note=51, velocity=105, time=73),
    Message('note_off', channel=9, note=51, velocity=105, time=23),
    Message('note_on', channel=9, note=51, velocity=120, time=73),
    Message('note_on', channel=9, note=36, velocity=120, time=0),
    Message('note_off', channel=9, note=51, velocity=120, time=23),
    Message('note_off', channel=9, note=36, velocity=120, time=0),
    Message('note_on', channel=9, note=51, velocity=105, time=73),
    Message('note_off', channel=9, note=51, velocity=105, time=23),
    Message('note_on', channel=9, note=51, velocity=120, time=73),
    Message('note_on', channel=9, note=38, velocity=120, time=0),
    Message('note_off', channel=9, note=51, velocity=120, time=23),
    Message('note_off', channel=9, note=38, velocity=120, time=0),
    Message('note_on', channel=9, note=51, velocity=105, time=73),
    Message('note_off', channel=9, note=51, velocity=105, time=23),
    Message('note_on', channel=9, note=51, velocity=120, time=73),
    Message('note_on', channel=9, note=36, velocity=120, time=0),
    Message('note_off', channel=9, note=51, velocity=120, time=23),
    Message('note_off', channel=9, note=36, velocity=120, time=0),
    Message('note_on', channel=9, note=51, velocity=105, time=73),
    Message('note_off', channel=9, note=51, velocity=105, time=23),
    Message('note_on', channel=9, note=51, velocity=120, time=73),
    Message('note_on', channel=9, note=38, velocity=120, time=0),
    Message('note_off', channel=9, note=51, velocity=120, time=23),
    Message('note_off', channel=9, note=38, velocity=120, time=0),
    Message('note_on', channel=9, note=51, velocity=105, time=73),
    Message('note_off', channel=9, note=51, velocity=105, time=23),
    Message('note_on', channel=9, note=51, velocity=120, time=73),
    Message('note_on', channel=9, note=36, velocity=120, time=0),
    Message('note_off', channel=9, note=51, velocity=120, time=23),
    Message('note_off', channel=9, note=36, velocity=120, time=0),
    Message('note_on', channel=9, note=51, velocity=105, time=73),
    Message('note_off', channel=9, note=51, velocity=105, time=23),
    Message('note_on', channel=9, note=51, velocity=120, time=73),
    Message('note_on', channel=9, note=38, velocity=120, time=0),
    Message('note_off', channel=9, note=51, velocity=120, time=23),
    Message('note_off', channel=9, note=38, velocity=120, time=0),
    Message('note_on', channel=9, note=51, velocity=105, time=73),
    Message('note_off', channel=9, note=51, velocity=105, time=23),
    Message('note_on', channel=9, note=51, velocity=120, time=73),
    Message('note_on', channel=9, note=36, velocity=120, time=0),
    Message('note_off', channel=9, note=51, velocity=120, time=23),
    Message('note_off', channel=9, note=36, velocity=120, time=0),
    Message('note_on', channel=9, note=51, velocity=105, time=73),
    Message('note_off', channel=9, note=51, velocity=105, time=23),
    Message('note_on', channel=9, note=51, velocity=120, time=73),
    Message('note_on', channel=9, note=36, velocity=120, time=0),
    Message('note_off', channel=9, note=51, velocity=120, time=23),
    Message('note_off', channel=9, note=36, velocity=120, time=0),
    Message('note_on', channel=9, note=38, velocity=120, time=73),
    Message('note_on', channel=9, note=57, velocity=120, time=0),
    Message('note_off', channel=9, note=38, velocity=120, time=23),
    Message('note_off', channel=9, note=57, velocity=120, time=0),
    Message('note_on', channel=9, note=36, velocity=120, time=73),
    Message('note_off', channel=9, note=36, velocity=120, time=23),
    Message('note_on', channel=9, note=36, velocity=120, time=73),
    Message('note_off', channel=9, note=36, velocity=120, time=23),
    Message('note_on', channel=9, note=38, velocity=120, time=73),
    Message('note_on', channel=9, note=49, velocity=120, time=0),
    Message('note_off', channel=9, note=38, velocity=120, time=23),
    Message('note_off', channel=9, note=49, velocity=120, time=0),
    Message('note_on', channel=9, note=57, velocity=120, time=169),
    Message('note_on', channel=9, note=36, velocity=120, time=0),
    Message('note_off', channel=9, note=57, velocity=120, time=23),
    Message('note_off', channel=9, note=36, velocity=120, time=0),
    Message('note_on', channel=9, note=51, velocity=105, time=73),
    Message('note_off', channel=9, note=51, velocity=105, time=23),
    Message('note_on', channel=9, note=38, velocity=120, time=73),
    Message('note_on', channel=9, note=51, velocity=120, time=0),
    Message('note_off', channel=9, note=38, velocity=120, time=23),
    Message('note_off', channel=9, note=51, velocity=120, time=0),
    Message('note_on', channel=9, note=51, velocity=105, time=73),
    Message('note_off', channel=9, note=51, velocity=105, time=23),
    Message('note_on', channel=9, note=51, velocity=120, time=73),
    Message('note_on', channel=9, note=36, velocity=120, time=0),
    Message('note_off', channel=9, note=51, velocity=120, time=23),
    Message('note_off', channel=9, note=36, velocity=120, time=0),
    Message('note_on', channel=9, note=51, velocity=105, time=73),
    Message('note_off', channel=9, note=51, velocity=105, time=23),
    Message('note_on', channel=9, note=51, velocity=120, time=73),
    Message('note_on', channel=9, note=38, velocity=120, time=0),
    Message('note_off', channel=9, note=51, velocity=120, time=23),
    Message('note_off', channel=9, note=38, velocity=120, time=0),
    Message('note_on', channel=9, note=51, velocity=105, time=73),
    Message('note_off', channel=9, note=51, velocity=105, time=23),
    Message('note_on', channel=9, note=51, velocity=120, time=73),
    Message('note_on', channel=9, note=36, velocity=120, time=0),
    Message('note_off', channel=9, note=51, velocity=120, time=23),
    Message('note_off', channel=9, note=36, velocity=120, time=0),
    Message('note_on', channel=9, note=51, velocity=105, time=73),
    Message('note_off', channel=9, note=51, velocity=105, time=23),
    Message('note_on', channel=9, note=51, velocity=120, time=73),
    Message('note_on', channel=9, note=38, velocity=120, time=0),
    Message('note_off', channel=9, note=51, velocity=120, time=23),
    Message('note_off', channel=9, note=38, velocity=120, time=0),
    Message('note_on', channel=9, note=51, velocity=105, time=73),
    Message('note_off', channel=9, note=51, velocity=105, time=23),
    Message('note_on', channel=9, note=51, velocity=120, time=73),
    Message('note_on', channel=9, note=36, velocity=120, time=0),
    Message('note_off', channel=9, note=51, velocity=120, time=23),
    Message('note_off', channel=9, note=36, velocity=120, time=0),
    Message('note_on', channel=9, note=51, velocity=105, time=73),
    Message('note_off', channel=9, note=51, velocity=105, time=23),
    Message('note_on', channel=9, note=51, velocity=120, time=73),
    Message('note_on', channel=9, note=38, velocity=120, time=0),
    Message('note_off', channel=9, note=51, velocity=120, time=23),
    Message('note_off', channel=9, note=38, velocity=120, time=0),
    Message('note_on', channel=9, note=51, velocity=105, time=73),
    Message('note_off', channel=9, note=51, velocity=105, time=23),
    Message('note_on', channel=9, note=51, velocity=120, time=73),
    Message('note_on', channel=9, note=36, velocity=120, time=0),
    Message('note_off', channel=9, note=51, velocity=120, time=23),
    Message('note_off', channel=9, note=36, velocity=120, time=0),
    Message('note_on', channel=9, note=51, velocity=105, time=73),
    Message('note_off', channel=9, note=51, velocity=105, time=23),
    Message('note_on', channel=9, note=51, velocity=120, time=73),
    Message('note_on', channel=9, note=38, velocity=120, time=0),
    Message('note_off', channel=9, note=51, velocity=120, time=23),
    Message('note_off', channel=9, note=38, velocity=120, time=0),
    Message('note_on', channel=9, note=51, velocity=105, time=73),
    Message('note_off', channel=9, note=51, velocity=105, time=23),
    Message('note_on', channel=9, note=51, velocity=120, time=73),
    Message('note_on', channel=9, note=36, velocity=120, time=0),
    Message('note_off', channel=9, note=51, velocity=120, time=23),
    Message('note_off', channel=9, note=36, velocity=120, time=0),
    Message('note_on', channel=9, note=51, velocity=105, time=73),
    Message('note_off', channel=9, note=51, velocity=105, time=23),
    Message('note_on', channel=9, note=51, velocity=120, time=73),
    Message('note_on', channel=9, note=38, velocity=120, time=0),
    Message('note_off', channel=9, note=51, velocity=120, time=23),
    Message('note_off', channel=9, note=38, velocity=120, time=0),
    Message('note_on', channel=9, note=51, velocity=105, time=73),
    Message('note_off', channel=9, note=51, velocity=105, time=23),
    Message('note_on', channel=9, note=45, velocity=105, time=71),
    Message('note_on', channel=9, note=41, velocity=105, time=6),
    Message('note_off', channel=9, note=45, velocity=105, time=17),
    Message('note_off', channel=9, note=41, velocity=105, time=6),
    Message('note_on', channel=9, note=41, velocity=105, time=67),
    Message('note_on', channel=9, note=45, velocity=105, time=4),
    Message('note_off', channel=9, note=41, velocity=105, time=19),
    Message('note_off', channel=9, note=45, velocity=105, time=4),
    Message('note_on', channel=9, note=41, velocity=105, time=70),
    Message('note_on', channel=9, note=45, velocity=105, time=3),
    Message('note_off', channel=9, note=41, velocity=105, time=20),
    Message('note_off', channel=9, note=45, velocity=105, time=3),
    Message('note_on', channel=9, note=45, velocity=105, time=68),
    Message('note_on', channel=9, note=41, velocity=105, time=5),
    Message('note_off', channel=9, note=45, velocity=105, time=18),
    Message('note_off', channel=9, note=41, velocity=105, time=5),
    Message('note_on', channel=9, note=36, velocity=120, time=71),
    Message('note_on', channel=9, note=57, velocity=120, time=0),
    Message('note_off', channel=9, note=36, velocity=120, time=23),
    Message('note_off', channel=9, note=57, velocity=120, time=0),
    Message('note_on', channel=9, note=36, velocity=120, time=361),
    Message('note_on', channel=9, note=57, velocity=120, time=0),
    Message('note_on', channel=9, note=49, velocity=120, time=0),
    Message('note_off', channel=9, note=36, velocity=120, time=23),
    Message('note_off', channel=9, note=57, velocity=120, time=0),
    Message('note_off', channel=9, note=49, velocity=120, time=0),
    Message('note_on', channel=9, note=46, velocity=120, time=169),
    Message('note_off', channel=9, note=46, velocity=120, time=23),
    Message('note_on', channel=9, note=36, velocity=120, time=73),
    Message('note_off', channel=9, note=36, velocity=120, time=23),
    Message('note_on', channel=9, note=46, velocity=120, time=73),
    Message('note_on', channel=9, note=38, velocity=120, time=0),
    Message('note_off', channel=9, note=46, velocity=120, time=23),
    Message('note_off', channel=9, note=38, velocity=120, time=0),
    Message('note_on', channel=9, note=36, velocity=120, time=73),
    Message('note_off', channel=9, note=36, velocity=120, time=23),
    Message('note_on', channel=9, note=46, velocity=120, time=73),
    Message('note_off', channel=9, note=46, velocity=120, time=23),
    Message('note_on', channel=9, note=36, velocity=120, time=73),
    Message('note_off', channel=9, note=36, velocity=120, time=23),
    Message('note_on', channel=9, note=46, velocity=120, time=73),
    Message('note_on', channel=9, note=36, velocity=120, time=0),
    Message('note_off', channel=9, note=46, velocity=120, time=23),
    Message('note_off', channel=9, note=36, velocity=120, time=0),
    Message('note_on', channel=9, note=46, velocity=120, time=169),
    Message('note_off', channel=9, note=46, velocity=120, time=23),
    Message('note_on', channel=9, note=36, velocity=120, time=73),
    Message('note_off', channel=9, note=36, velocity=120, time=23),
    Message('note_on', channel=9, note=46, velocity=120, time=73),
    Message('note_off', channel=9, note=46, velocity=120, time=23),
    Message('note_on', channel=9, note=36, velocity=120, time=73),
    Message('note_off', channel=9, note=36, velocity=120, time=23),
    Message('note_on', channel=9, note=46, velocity=120, time=73),
    Message('note_on', channel=9, note=38, velocity=120, time=0),
    Message('note_off', channel=9, note=46, velocity=120, time=23),
    Message('note_off', channel=9, note=38, velocity=120, time=0),
    Message('note_on', channel=9, note=36, velocity=120, time=169),
    Message('note_on', channel=9, note=49, velocity=120, time=0),
    Message('note_off', channel=9, note=36, velocity=120, time=23),
    Message('note_off', channel=9, note=49, velocity=120, time=0),
    Message('note_on', channel=9, note=46, velocity=120, time=169),
    Message('note_off', channel=9, note=46, velocity=120, time=23),
    Message('note_on', channel=9, note=36, velocity=120, time=73),
    Message('note_off', channel=9, note=36, velocity=120, time=23),
    Message('note_on', channel=9, note=46, velocity=120, time=73),
    Message('note_on', channel=9, note=38, velocity=120, time=0),
    Message('note_off', channel=9, note=46, velocity=120, time=23),
    Message('note_off', channel=9, note=38, velocity=120, time=0),
    Message('note_on', channel=9, note=46, velocity=120, time=169),
    Message('note_off', channel=9, note=46, velocity=120, time=23),
    Message('note_on', channel=9, note=36, velocity=120, time=73),
    Message('note_off', channel=9, note=36, velocity=120, time=23),
    Message('note_on', channel=9, note=46, velocity=120, time=73),
    Message('note_on', channel=9, note=36, velocity=120, time=0),
    Message('note_off', channel=9, note=46, velocity=120, time=23),
    Message('note_off', channel=9, note=36, velocity=120, time=0),
    Message('note_on', channel=9, note=46, velocity=120, time=169),
    Message('note_off', channel=9, note=46, velocity=120, time=23),
    Message('note_on', channel=9, note=38, velocity=120, time=73),
    Message('note_off', channel=9, note=38, velocity=120, time=23),
    Message('note_on', channel=9, note=47, velocity=120, time=73),
    Message('note_off', channel=9, note=47, velocity=120, time=23),
    Message('note_on', channel=9, note=43, velocity=120, time=73),
    Message('note_off', channel=9, note=43, velocity=120, time=23),
    Message('note_on', channel=9, note=36, velocity=120, time=73),
    Message('note_on', channel=9, note=57, velocity=120, time=0),
    Message('note_off', channel=9, note=36, velocity=120, time=23),
    Message('note_off', channel=9, note=57, velocity=120, time=0),
    Message('note_on', channel=9, note=36, velocity=120, time=169),
    Message('note_on', channel=9, note=49, velocity=120, time=0),
    Message('note_off', channel=9, note=36, velocity=120, time=23),
    Message('note_off', channel=9, note=49, velocity=120, time=0),
    Message('note_on', channel=9, note=46, velocity=120, time=169),
    Message('note_off', channel=9, note=46, velocity=120, time=23),
    Message('note_on', channel=9, note=36, velocity=120, time=73),
    Message('note_off', channel=9, note=36, velocity=120, time=23),
    Message('note_on', channel=9, note=46, velocity=120, time=73),
    Message('note_on', channel=9, note=38, velocity=120, time=0),
    Message('note_off', channel=9, note=46, velocity=120, time=23),
    Message('note_off', channel=9, note=38, velocity=120, time=0),
    Message('note_on', channel=9, note=36, velocity=120, time=73),
    Message('note_off', channel=9, note=36, velocity=120, time=23),
    Message('note_on', channel=9, note=46, velocity=120, time=73),
    Message('note_off', channel=9, note=46, velocity=120, time=23),
    Message('note_on', channel=9, note=36, velocity=120, time=73),
    Message('note_off', channel=9, note=36, velocity=120, time=23),
    Message('note_on', channel=9, note=46, velocity=120, time=73),
    Message('note_on', channel=9, note=36, velocity=120, time=0),
    Message('note_off', channel=9, note=46, velocity=120, time=23),
    Message('note_off', channel=9, note=36, velocity=120, time=0),
    Message('note_on', channel=9, note=46, velocity=120, time=169),
    Message('note_off', channel=9, note=46, velocity=120, time=23),
    Message('note_on', channel=9, note=36, velocity=120, time=73),
    Message('note_off', channel=9, note=36, velocity=120, time=23),
    Message('note_on', channel=9, note=46, velocity=120, time=73),
    Message('note_off', channel=9, note=46, velocity=120, time=23),
    Message('note_on', channel=9, note=36, velocity=120, time=73),
    Message('note_off', channel=9, note=36, velocity=120, time=23),
    Message('note_on', channel=9, note=46, velocity=120, time=73),
    Message('note_on', channel=9, note=38, velocity=120, time=0),
    Message('note_off', channel=9, note=46, velocity=120, time=23),
    Message('note_off', channel=9, note=38, velocity=120, time=0),
    Message('note_on', channel=9, note=36, velocity=120, time=169),
    Message('note_on', channel=9, note=49, velocity=120, time=0),
    Message('note_off', channel=9, note=36, velocity=120, time=23),
    Message('note_off', channel=9, note=49, velocity=120, time=0),
    Message('note_on', channel=9, note=46, velocity=120, time=169),
    Message('note_off', channel=9, note=46, velocity=120, time=23),
    Message('note_on', channel=9, note=36, velocity=120, time=73),
    Message('note_off', channel=9, note=36, velocity=120, time=23),
    Message('note_on', channel=9, note=46, velocity=120, time=73),
    Message('note_on', channel=9, note=38, velocity=120, time=0),
    Message('note_off', channel=9, note=46, velocity=120, time=23),
    Message('note_off', channel=9, note=38, velocity=120, time=0),
    Message('note_on', channel=9, note=46, velocity=120, time=169),
    Message('note_off', channel=9, note=46, velocity=120, time=23),
    Message('note_on', channel=9, note=36, velocity=120, time=73),
    Message('note_off', channel=9, note=36, velocity=120, time=23),
    Message('note_on', channel=9, note=46, velocity=120, time=73),
    Message('note_on', channel=9, note=36, velocity=120, time=0),
    Message('note_off', channel=9, note=46, velocity=120, time=23),
    Message('note_off', channel=9, note=36, velocity=120, time=0),
    Message('note_on', channel=9, note=46, velocity=120, time=169),
    Message('note_off', channel=9, note=46, velocity=120, time=23),
    Message('note_on', channel=9, note=38, velocity=120, time=73),
    Message('note_off', channel=9, note=38, velocity=120, time=23),
    Message('note_on', channel=9, note=47, velocity=120, time=73),
    Message('note_off', channel=9, note=47, velocity=120, time=23),
    Message('note_on', channel=9, note=43, velocity=120, time=73),
    Message('note_off', channel=9, note=43, velocity=120, time=23),
    Message('note_on', channel=9, note=36, velocity=120, time=73),
    Message('note_on', channel=9, note=49, velocity=120, time=0),
    Message('note_off', channel=9, note=36, velocity=120, time=23),
    Message('note_off', channel=9, note=49, velocity=120, time=0),
    Message('note_on', channel=9, note=36, velocity=120, time=169),
    Message('note_on', channel=9, note=49, velocity=120, time=0),
    Message('note_on', channel=9, note=57, velocity=120, time=0),
    Message('note_off', channel=9, note=36, velocity=120, time=23),
    Message('note_off', channel=9, note=49, velocity=120, time=0),
    Message('note_off', channel=9, note=57, velocity=120, time=0),
    Message('note_on', channel=9, note=46, velocity=105, time=73),
    Message('note_off', channel=9, note=46, velocity=105, time=23),
    Message('note_on', channel=9, note=38, velocity=120, time=73),
    Message('note_on', channel=9, note=46, velocity=120, time=0),
    Message('note_off', channel=9, note=38, velocity=120, time=23),
    Message('note_off', channel=9, note=46, velocity=120, time=0),
    Message('note_on', channel=9, note=46, velocity=105, time=73),
    Message('note_off', channel=9, note=46, velocity=105, time=23),
    Message('note_on', channel=9, note=36, velocity=120, time=73),
    Message('note_on', channel=9, note=46, velocity=120, time=0),
    Message('note_off', channel=9, note=36, velocity=120, time=23),
    Message('note_off', channel=9, note=46, velocity=120, time=0),
    Message('note_on', channel=9, note=46, velocity=105, time=73),
    Message('note_off', channel=9, note=46, velocity=105, time=23),
    Message('note_on', channel=9, note=38, velocity=120, time=73),
    Message('note_on', channel=9, note=46, velocity=120, time=0),
    Message('note_off', channel=9, note=38, velocity=120, time=23),
    Message('note_off', channel=9, note=46, velocity=120, time=0),
    Message('note_on', channel=9, note=46, velocity=105, time=73),
    Message('note_off', channel=9, note=46, velocity=105, time=23),
    Message('note_on', channel=9, note=45, velocity=105, time=73),
    Message('note_on', channel=9, note=41, velocity=105, time=4),
    Message('note_off', channel=9, note=45, velocity=105, time=19),
    Message('note_off', channel=9, note=41, velocity=105, time=4),
    Message('note_on', channel=9, note=41, velocity=105, time=67),
    Message('note_on', channel=9, note=45, velocity=105, time=4),
    Message('note_off', channel=9, note=41, velocity=105, time=19),
    Message('note_off', channel=9, note=45, velocity=105, time=4),
    Message('note_on', channel=9, note=41, velocity=105, time=70),
    Message('note_on', channel=9, note=45, velocity=105, time=3),
    Message('note_off', channel=9, note=41, velocity=105, time=20),
    Message('note_off', channel=9, note=45, velocity=105, time=3),
    Message('note_on', channel=9, note=45, velocity=105, time=68),
    Message('note_on', channel=9, note=41, velocity=105, time=5),
    Message('note_off', channel=9, note=45, velocity=105, time=18),
    Message('note_off', channel=9, note=41, velocity=105, time=5),
    Message('note_on', channel=9, note=36, velocity=120, time=71),
    Message('note_on', channel=9, note=49, velocity=120, time=0),
    Message('note_off', channel=9, note=36, velocity=120, time=23),
    Message('note_off', channel=9, note=49, velocity=120, time=0),
    Message('note_on', channel=9, note=36, velocity=120, time=361),
    Message('note_on', channel=9, note=57, velocity=120, time=0),
    Message('note_off', channel=9, note=36, velocity=120, time=49),
    Message('note_off', channel=9, note=57, velocity=120, time=0),
    Message('note_on', channel=9, note=36, velocity=120, time=47),
    Message('note_on', channel=9, note=57, velocity=120, time=0),
    Message('note_off', channel=9, note=36, velocity=120, time=49),
    Message('note_off', channel=9, note=57, velocity=120, time=0),
    Message('note_on', channel=9, note=36, velocity=120, time=143),
    Message('note_on', channel=9, note=57, velocity=120, time=0),
    Message('note_off', channel=9, note=36, velocity=120, time=49),
    Message('note_off', channel=9, note=57, velocity=120, time=0),
    MetaMessage('end_of_track', time=500)])
])
