MidiFile(type=1, ticks_per_beat=192, tracks=[
  MidiTrack([
    MetaMessage('track_name', name='None: Channel 0', time=0),
    MetaMessage('device_name', name='None', time=0),
    MetaMessage('set_tempo', tempo=307692, time=0),
    MetaMessage('end_of_track', time=500)]),
  MidiTrack([
    MetaMessage('track_name', name='Vocals: Channel 0', time=0),
    MetaMessage('device_name', name='None', time=0),
    Message('control_change', channel=0, control=7, value=127, time=0),
    Message('control_change', channel=0, control=10, value=64, time=0),
    Message('program_change', channel=0, program=71, time=0),
    Message('control_change', channel=0, control=0, value=0, time=0),
    Message('note_on', channel=0, note=78, velocity=100, time=15552),
    Message('note_off', channel=0, note=78, velocity=100, time=128),
    Message('note_on', channel=0, note=78, velocity=100, time=64),
    Message('note_off', channel=0, note=78, velocity=100, time=64),
    Message('note_on', channel=0, note=78, velocity=100, time=32),
    Message('note_off', channel=0, note=78, velocity=100, time=64),
    Message('note_on', channel=0, note=78, velocity=100, time=32),
    Message('note_off', channel=0, note=78, velocity=100, time=64),
    Message('note_on', channel=0, note=78, velocity=100, time=32),
    Message('note_off', channel=0, note=78, velocity=100, time=192),
    Message('note_on', channel=0, note=81, velocity=100, time=0),
    Message('note_off', channel=0, note=81, velocity=100, time=128),
    Message('note_on', channel=0, note=78, velocity=100, time=64),
    Message('note_off', channel=0, note=78, velocity=100, time=384),
    Message('note_on', channel=0, note=78, velocity=100, time=288),
    Message('note_off', channel=0, note=78, velocity=100, time=128),
    Message('note_on', channel=0, note=78, velocity=100, time=64),
    Message('note_off', channel=0, note=78, velocity=100, time=128),
    Message('note_on', channel=0, note=78, velocity=100, time=64),
    Message('note_off', channel=0, note=78, velocity=100, time=64),
    Message('note_on', channel=0, note=78, velocity=100, time=32),
    Message('note_off', channel=0, note=78, velocity=100, time=192),
    Message('note_on', channel=0, note=81, velocity=100, time=0),
    Message('note_off', channel=0, note=81, velocity=100, time=128),
    Message('note_on', channel=0, note=78, velocity=100, time=64),
    Message('note_off', channel=0, note=78, velocity=100, time=384),
    Message('note_on', channel=0, note=78, velocity=100, time=288),
    Message('note_off', channel=0, note=78, velocity=100, time=64),
    Message('note_on', channel=0, note=76, velocity=100, time=32),
    Message('note_off', channel=0, note=76, velocity=100, time=64),
    Message('note_on', channel=0, note=78, velocity=100, time=32),
    Message('note_off', channel=0, note=78, velocity=100, time=64),
    Message('note_on', channel=0, note=78, velocity=100, time=32),
    Message('note_off', channel=0, note=78, velocity=100, time=128),
    Message('note_on', channel=0, note=78, velocity=100, time=64),
    Message('note_off', channel=0, note=78, velocity=100, time=192),
    Message('note_on', channel=0, note=78, velocity=100, time=0),
    Message('note_off', channel=0, note=78, velocity=100, time=64),
    Message('note_on', channel=0, note=81, velocity=100, time=32),
    Message('note_off', channel=0, note=81, velocity=100, time=64),
    Message('note_on', channel=0, note=78, velocity=100, time=32),
    Message('note_off', channel=0, note=78, velocity=100, time=384),
    Message('note_on', channel=0, note=78, velocity=100, time=288),
    Message('note_off', channel=0, note=78, velocity=100, time=128),
    Message('note_on', channel=0, note=78, velocity=100, time=64),
    Message('note_off', channel=0, note=78, velocity=100, time=64),
    Message('note_on', channel=0, note=78, velocity=100, time=32),
    Message('note_off', channel=0, note=78, velocity=100, time=64),
    Message('note_on', channel=0, note=81, velocity=100, time=32),
    Message('note_off', channel=0, note=81, velocity=100, time=64),
    Message('note_on', channel=0, note=81, velocity=100, time=32),
    Message('note_off', channel=0, note=81, velocity=100, time=192),
    Message('note_on', channel=0, note=78, velocity=100, time=0),
    Message('note_off', channel=0, note=78, velocity=100, time=128),
    Message('note_on', channel=0, note=78, velocity=100, time=64),
    Message('note_off', channel=0, note=78, velocity=100, time=384),
    Message('note_on', channel=0, note=76, velocity=100, time=288),
    Message('note_off', channel=0, note=76, velocity=100, time=128),
    Message('note_on', channel=0, note=76, velocity=100, time=64),
    Message('note_off', channel=0, note=76, velocity=100, time=128),
    Message('note_on', channel=0, note=76, velocity=100, time=64),
    Message('note_off', channel=0, note=76, velocity=100, time=64),
    Message('note_on', channel=0, note=76, velocity=100, time=32),
    Message('note_off', channel=0, note=76, velocity=100, time=192),
    Message('note_on', channel=0, note=76, velocity=100, time=0),
    Message('note_off', channel=0, note=76, velocity=100, time=192),
    Message('note_on', channel=0, note=76, velocity=100, time=672),
    Message('note_off', channel=0, note=76, velocity=100, time=128),
    Message('note_on', channel=0, note=79, velocity=100, time=64),
    Message('note_off', channel=0, note=79, velocity=100, time=64),
    Message('note_on', channel=0, note=76, velocity=100, time=32),
    Message('note_off', channel=0, note=76, velocity=100, time=128),
    Message('note_on', channel=0, note=76, velocity=100, time=64),
    Message('note_off', channel=0, note=76, velocity=100, time=384),
    Message('note_on', channel=0, note=78, velocity=100, time=672),
    Message('note_on', channel=0, note=74, velocity=100, time=0),
    Message('note_off', channel=0, note=78, velocity=100, time=128),
    Message('note_off', channel=0, note=74, velocity=100, time=0),
    Message('note_on', channel=0, note=78, velocity=100, time=64),
    Message('note_on', channel=0, note=74, velocity=100, time=0),
    Message('note_off', channel=0, note=78, velocity=100, time=128),
    Message('note_off', channel=0, note=74, velocity=100, time=0),
    Message('note_on', channel=0, note=78, velocity=100, time=64),
    Message('note_on', channel=0, note=74, velocity=100, time=0),
    Message('note_off', channel=0, note=78, velocity=100, time=64),
    Message('note_off', channel=0, note=74, velocity=100, time=0),
    Message('note_on', channel=0, note=74, velocity=100, time=32),
    Message('note_on', channel=0, note=78, velocity=100, time=0),
    Message('note_off', channel=0, note=74, velocity=100, time=288),
    Message('note_off', channel=0, note=78, velocity=100, time=0),
    Message('note_on', channel=0, note=78, velocity=100, time=96),
    Message('note_on', channel=0, note=74, velocity=100, time=0),
    Message('note_off', channel=0, note=78, velocity=100, time=192),
    Message('note_off', channel=0, note=74, velocity=100, time=0),
    Message('note_on', channel=0, note=78, velocity=100, time=480),
    Message('note_on', channel=0, note=74, velocity=100, time=0),
    Message('note_off', channel=0, note=78, velocity=100, time=128),
    Message('note_off', channel=0, note=74, velocity=100, time=0),
    Message('note_on', channel=0, note=81, velocity=100, time=64),
    Message('note_on', channel=0, note=74, velocity=100, time=0),
    Message('note_off', channel=0, note=81, velocity=100, time=128),
    Message('note_off', channel=0, note=74, velocity=100, time=0),
    Message('note_on', channel=0, note=78, velocity=100, time=64),
    Message('note_on', channel=0, note=74, velocity=100, time=0),
    Message('note_on', channel=0, note=74, velocity=100, time=96),
    Message('note_on', channel=0, note=78, velocity=100, time=0),
    Message('note_off', channel=0, note=78, velocity=100, time=32),
    Message('note_off', channel=0, note=74, velocity=100, time=0),
    Message('note_off', channel=0, note=74, velocity=100, time=352),
    Message('note_off', channel=0, note=78, velocity=100, time=0),
    Message('note_on', channel=0, note=78, velocity=100, time=672),
    Message('note_off', channel=0, note=78, velocity=100, time=128),
    Message('note_on', channel=0, note=78, velocity=100, time=64),
    Message('note_off', channel=0, note=78, velocity=100, time=64),
    Message('note_on', channel=0, note=78, velocity=100, time=32),
    Message('note_off', channel=0, note=78, velocity=100, time=128),
    Message('note_on', channel=0, note=78, velocity=100, time=64),
    Message('note_off', channel=0, note=78, velocity=100, time=384),
    Message('note_on', channel=0, note=76, velocity=100, time=96),
    Message('note_off', channel=0, note=76, velocity=100, time=64),
    Message('note_on', channel=0, note=74, velocity=100, time=32),
    Message('note_off', channel=0, note=74, velocity=100, time=128),
    Message('note_on', channel=0, note=76, velocity=100, time=64),
    Message('note_off', channel=0, note=76, velocity=100, time=384),
    Message('note_on', channel=0, note=76, velocity=100, time=0),
    Message('note_off', channel=0, note=76, velocity=100, time=64),
    Message('note_on', channel=0, note=79, velocity=100, time=32),
    Message('note_off', channel=0, note=79, velocity=100, time=64),
    Message('note_on', channel=0, note=79, velocity=100, time=32),
    Message('note_on', channel=0, note=74, velocity=100, time=0),
    Message('note_off', channel=0, note=79, velocity=100, time=128),
    Message('note_off', channel=0, note=74, velocity=100, time=0),
    Message('note_on', channel=0, note=79, velocity=100, time=64),
    Message('note_on', channel=0, note=74, velocity=100, time=0),
    Message('note_off', channel=0, note=79, velocity=100, time=192),
    Message('note_off', channel=0, note=74, velocity=100, time=0),
    Message('note_on', channel=0, note=78, velocity=100, time=0),
    Message('note_on', channel=0, note=73, velocity=100, time=0),
    Message('note_off', channel=0, note=78, velocity=100, time=192),
    Message('note_off', channel=0, note=73, velocity=100, time=0),
    Message('note_on', channel=0, note=78, velocity=100, time=672),
    Message('note_off', channel=0, note=78, velocity=100, time=128),
    Message('note_on', channel=0, note=78, velocity=100, time=64),
    Message('note_off', channel=0, note=78, velocity=100, time=128),
    Message('note_on', channel=0, note=78, velocity=100, time=64),
    Message('note_off', channel=0, note=78, velocity=100, time=64),
    Message('note_on', channel=0, note=78, velocity=100, time=32),
    Message('note_off', channel=0, note=78, velocity=100, time=256),
    Message('note_on', channel=0, note=78, velocity=100, time=32),
    Message('note_off', channel=0, note=78, velocity=100, time=64),
    Message('note_on', channel=0, note=78, velocity=100, time=32),
    Message('note_off', channel=0, note=78, velocity=100, time=192),
    Message('note_on', channel=0, note=74, velocity=100, time=96),
    Message('note_off', channel=0, note=74, velocity=100, time=64),
    Message('note_on', channel=0, note=76, velocity=100, time=32),
    Message('note_off', channel=0, note=76, velocity=100, time=256),
    Message('note_on', channel=0, note=76, velocity=100, time=32),
    Message('note_off', channel=0, note=76, velocity=100, time=64),
    Message('note_on', channel=0, note=76, velocity=100, time=32),
    Message('note_off', channel=0, note=76, velocity=100, time=128),
    Message('note_on', channel=0, note=74, velocity=100, time=64),
    Message('note_on', channel=0, note=79, velocity=100, time=0),
    Message('note_off', channel=0, note=74, velocity=100, time=128),
    Message('note_off', channel=0, note=79, velocity=100, time=0),
    Message('note_on', channel=0, note=74, velocity=100, time=64),
    Message('note_on', channel=0, note=79, velocity=100, time=0),
    Message('note_off', channel=0, note=74, velocity=100, time=192),
    Message('note_off', channel=0, note=79, velocity=100, time=0),
    Message('note_on', channel=0, note=78, velocity=100, time=0),
    Message('note_on', channel=0, note=73, velocity=100, time=0),
    Message('note_off', channel=0, note=78, velocity=100, time=192),
    Message('note_off', channel=0, note=73, velocity=100, time=0),
    Message('note_on', channel=0, note=78, velocity=100, time=576),
    Message('note_off', channel=0, note=78, velocity=100, time=64),
    Message('note_on', channel=0, note=78, velocity=100, time=32),
    Message('note_off', channel=0, note=78, velocity=100, time=128),
    Message('note_on', channel=0, note=78, velocity=100, time=64),
    Message('note_off', channel=0, note=78, velocity=100, time=64),
    Message('note_on', channel=0, note=78, velocity=100, time=32),
    Message('note_off', channel=0, note=78, velocity=100, time=128),
    Message('note_on', channel=0, note=78, velocity=100, time=64),
    Message('note_off', channel=0, note=78, velocity=100, time=192),
    Message('note_on', channel=0, note=78, velocity=100, time=0),
    Message('note_off', channel=0, note=78, velocity=100, time=64),
    Message('note_on', channel=0, note=78, velocity=100, time=32),
    Message('note_off', channel=0, note=78, velocity=100, time=64),
    Message('note_on', channel=0, note=78, velocity=100, time=32),
    Message('note_off', channel=0, note=78, velocity=100, time=192),
    Message('note_on', channel=0, note=76, velocity=100, time=480),
    Message('note_off', channel=0, note=76, velocity=100, time=64),
    Message('note_on', channel=0, note=76, velocity=100, time=32),
    Message('note_off', channel=0, note=76, velocity=100, time=64),
    Message('note_on', channel=0, note=76, velocity=100, time=32),
    Message('note_off', channel=0, note=76, velocity=100, time=64),
    Message('note_on', channel=0, note=76, velocity=100, time=32),
    Message('note_off', channel=0, note=76, velocity=100, time=128),
    Message('note_on', channel=0, note=79, velocity=100, time=64),
    Message('note_on', channel=0, note=74, velocity=100, time=0),
    Message('note_off', channel=0, note=79, velocity=100, time=192),
    Message('note_off', channel=0, note=74, velocity=100, time=0),
    Message('note_on', channel=0, note=79, velocity=100, time=0),
    Message('note_on', channel=0, note=74, velocity=100, time=0),
    Message('note_off', channel=0, note=79, velocity=100, time=128),
    Message('note_off', channel=0, note=74, velocity=100, time=0),
    Message('note_on', channel=0, note=74, velocity=100, time=64),
    Message('note_on', channel=0, note=79, velocity=100, time=0),
    Message('note_off', channel=0, note=74, velocity=100, time=64),
    Message('note_off', channel=0, note=79, velocity=100, time=0),
    Message('note_on', channel=0, note=78, velocity=100, time=32),
    Message('note_on', channel=0, note=73, velocity=100, time=0),
    Message('note_off', channel=0, note=78, velocity=100, time=128),
    Message('note_off', channel=0, note=73, velocity=100, time=0),
    Message('note_on', channel=0, note=78, velocity=100, time=448),
    Message('note_off', channel=0, note=78, velocity=100, time=192),
    Message('note_on', channel=0, note=78, velocity=100, time=96),
    Message('note_off', channel=0, note=78, velocity=100, time=128),
    Message('note_on', channel=0, note=78, velocity=100, time=64),
    Message('note_off', channel=0, note=78, velocity=100, time=192),
    Message('note_on', channel=0, note=78, velocity=100, time=0),
    Message('note_off', channel=0, note=78, velocity=100, time=128),
    Message('note_on', channel=0, note=78, velocity=100, time=64),
    Message('note_off', channel=0, note=78, velocity=100, time=128),
    Message('note_on', channel=0, note=78, velocity=100, time=64),
    Message('note_on', channel=0, note=74, velocity=100, time=0),
    Message('note_off', channel=0, note=78, velocity=100, time=128),
    Message('note_off', channel=0, note=74, velocity=100, time=0),
    Message('note_on', channel=0, note=78, velocity=100, time=64),
    Message('note_on', channel=0, note=74, velocity=100, time=0),
    Message('note_off', channel=0, note=78, velocity=100, time=192),
    Message('note_off', channel=0, note=74, velocity=100, time=0),
    Message('note_on', channel=0, note=78, velocity=100, time=0),
    Message('note_on', channel=0, note=74, velocity=100, time=0),
    Message('note_off', channel=0, note=78, velocity=100, time=64),
    Message('note_off', channel=0, note=74, velocity=100, time=0),
    Message('note_on', channel=0, note=76, velocity=100, time=32),
    Message('note_on', channel=0, note=73, velocity=100, time=0),
    Message('note_off', channel=0, note=76, velocity=100, time=128),
    Message('note_off', channel=0, note=73, velocity=100, time=0),
    Message('note_on', channel=0, note=79, velocity=100, time=640),
    Message('note_on', channel=0, note=73, velocity=100, time=0),
    Message('note_off', channel=0, note=79, velocity=100, time=128),
    Message('note_off', channel=0, note=73, velocity=100, time=0),
    Message('note_on', channel=0, note=73, velocity=100, time=64),
    Message('note_on', channel=0, note=79, velocity=100, time=0),
    Message('note_off', channel=0, note=73, velocity=100, time=64),
    Message('note_off', channel=0, note=79, velocity=100, time=0),
    Message('note_on', channel=0, note=79, velocity=100, time=32),
    Message('note_on', channel=0, note=73, velocity=100, time=0),
    Message('note_off', channel=0, note=79, velocity=100, time=128),
    Message('note_off', channel=0, note=73, velocity=100, time=0),
    Message('note_on', channel=0, note=78, velocity=100, time=64),
    Message('note_on', channel=0, note=74, velocity=100, time=0),
    Message('note_off', channel=0, note=78, velocity=100, time=222),
    Message('note_off', channel=0, note=74, velocity=100, time=0),
    Message('note_on', channel=0, note=78, velocity=100, time=3138),
    Message('note_off', channel=0, note=78, velocity=100, time=128),
    Message('note_on', channel=0, note=78, velocity=100, time=64),
    Message('note_off', channel=0, note=78, velocity=100, time=64),
    Message('note_on', channel=0, note=78, velocity=100, time=32),
    Message('note_off', channel=0, note=78, velocity=100, time=64),
    Message('note_on', channel=0, note=78, velocity=100, time=32),
    Message('note_off', channel=0, note=78, velocity=100, time=64),
    Message('note_on', channel=0, note=78, velocity=100, time=32),
    Message('note_off', channel=0, note=78, velocity=100, time=192),
    Message('note_on', channel=0, note=81, velocity=100, time=0),
    Message('note_off', channel=0, note=81, velocity=100, time=128),
    Message('note_on', channel=0, note=78, velocity=100, time=64),
    Message('note_off', channel=0, note=78, velocity=100, time=384),
    Message('note_on', channel=0, note=78, velocity=100, time=288),
    Message('note_off', channel=0, note=78, velocity=100, time=128),
    Message('note_on', channel=0, note=78, velocity=100, time=64),
    Message('note_off', channel=0, note=78, velocity=100, time=128),
    Message('note_on', channel=0, note=78, velocity=100, time=64),
    Message('note_off', channel=0, note=78, velocity=100, time=64),
    Message('note_on', channel=0, note=78, velocity=100, time=32),
    Message('note_off', channel=0, note=78, velocity=100, time=192),
    Message('note_on', channel=0, note=81, velocity=100, time=0),
    Message('note_off', channel=0, note=81, velocity=100, time=128),
    Message('note_on', channel=0, note=78, velocity=100, time=64),
    Message('note_off', channel=0, note=78, velocity=100, time=384),
    Message('note_on', channel=0, note=78, velocity=100, time=288),
    Message('note_off', channel=0, note=78, velocity=100, time=64),
    Message('note_on', channel=0, note=76, velocity=100, time=32),
    Message('note_off', channel=0, note=76, velocity=100, time=64),
    Message('note_on', channel=0, note=78, velocity=100, time=32),
    Message('note_off', channel=0, note=78, velocity=100, time=64),
    Message('note_on', channel=0, note=78, velocity=100, time=32),
    Message('note_off', channel=0, note=78, velocity=100, time=128),
    Message('note_on', channel=0, note=78, velocity=100, time=64),
    Message('note_off', channel=0, note=78, velocity=100, time=192),
    Message('note_on', channel=0, note=78, velocity=100, time=0),
    Message('note_off', channel=0, note=78, velocity=100, time=64),
    Message('note_on', channel=0, note=81, velocity=100, time=32),
    Message('note_off', channel=0, note=81, velocity=100, time=64),
    Message('note_on', channel=0, note=78, velocity=100, time=32),
    Message('note_off', channel=0, note=78, velocity=100, time=384),
    Message('note_on', channel=0, note=78, velocity=100, time=288),
    Message('note_off', channel=0, note=78, velocity=100, time=128),
    Message('note_on', channel=0, note=78, velocity=100, time=64),
    Message('note_off', channel=0, note=78, velocity=100, time=64),
    Message('note_on', channel=0, note=78, velocity=100, time=32),
    Message('note_off', channel=0, note=78, velocity=100, time=64),
    Message('note_on', channel=0, note=81, velocity=100, time=32),
    Message('note_off', channel=0, note=81, velocity=100, time=64),
    Message('note_on', channel=0, note=81, velocity=100, time=32),
    Message('note_off', channel=0, note=81, velocity=100, time=192),
    Message('note_on', channel=0, note=78, velocity=100, time=0),
    Message('note_off', channel=0, note=78, velocity=100, time=128),
    Message('note_on', channel=0, note=78, velocity=100, time=64),
    Message('note_off', channel=0, note=78, velocity=100, time=384),
    Message('note_on', channel=0, note=76, velocity=100, time=288),
    Message('note_off', channel=0, note=76, velocity=100, time=128),
    Message('note_on', channel=0, note=76, velocity=100, time=64),
    Message('note_off', channel=0, note=76, velocity=100, time=128),
    Message('note_on', channel=0, note=76, velocity=100, time=64),
    Message('note_off', channel=0, note=76, velocity=100, time=64),
    Message('note_on', channel=0, note=76, velocity=100, time=32),
    Message('note_off', channel=0, note=76, velocity=100, time=192),
    Message('note_on', channel=0, note=76, velocity=100, time=0),
    Message('note_off', channel=0, note=76, velocity=100, time=192),
    Message('note_on', channel=0, note=76, velocity=100, time=672),
    Message('note_off', channel=0, note=76, velocity=100, time=128),
    Message('note_on', channel=0, note=79, velocity=100, time=64),
    Message('note_off', channel=0, note=79, velocity=100, time=64),
    Message('note_on', channel=0, note=76, velocity=100, time=32),
    Message('note_off', channel=0, note=76, velocity=100, time=128),
    Message('note_on', channel=0, note=76, velocity=100, time=64),
    Message('note_off', channel=0, note=76, velocity=100, time=384),
    Message('note_on', channel=0, note=78, velocity=100, time=672),
    Message('note_on', channel=0, note=74, velocity=100, time=0),
    Message('note_off', channel=0, note=78, velocity=100, time=128),
    Message('note_off', channel=0, note=74, velocity=100, time=0),
    Message('note_on', channel=0, note=78, velocity=100, time=64),
    Message('note_on', channel=0, note=74, velocity=100, time=0),
    Message('note_off', channel=0, note=78, velocity=100, time=128),
    Message('note_off', channel=0, note=74, velocity=100, time=0),
    Message('note_on', channel=0, note=78, velocity=100, time=64),
    Message('note_on', channel=0, note=74, velocity=100, time=0),
    Message('note_off', channel=0, note=78, velocity=100, time=64),
    Message('note_off', channel=0, note=74, velocity=100, time=0),
    Message('note_on', channel=0, note=74, velocity=100, time=32),
    Message('note_on', channel=0, note=78, velocity=100, time=0),
    Message('note_off', channel=0, note=74, velocity=100, time=288),
    Message('note_off', channel=0, note=78, velocity=100, time=0),
    Message('note_on', channel=0, note=78, velocity=100, time=96),
    Message('note_on', channel=0, note=74, velocity=100, time=0),
    Message('note_off', channel=0, note=78, velocity=100, time=192),
    Message('note_off', channel=0, note=74, velocity=100, time=0),
    Message('note_on', channel=0, note=78, velocity=100, time=480),
    Message('note_on', channel=0, note=74, velocity=100, time=0),
    Message('note_off', channel=0, note=78, velocity=100, time=128),
    Message('note_off', channel=0, note=74, velocity=100, time=0),
    Message('note_on', channel=0, note=81, velocity=100, time=64),
    Message('note_on', channel=0, note=74, velocity=100, time=0),
    Message('note_off', channel=0, note=81, velocity=100, time=128),
    Message('note_off', channel=0, note=74, velocity=100, time=0),
    Message('note_on', channel=0, note=78, velocity=100, time=64),
    Message('note_on', channel=0, note=74, velocity=100, time=0),
    Message('note_on', channel=0, note=74, velocity=100, time=96),
    Message('note_on', channel=0, note=78, velocity=100, time=0),
    Message('note_off', channel=0, note=78, velocity=100, time=32),
    Message('note_off', channel=0, note=74, velocity=100, time=0),
    Message('note_off', channel=0, note=74, velocity=100, time=352),
    Message('note_off', channel=0, note=78, velocity=100, time=0),
    Message('note_on', channel=0, note=78, velocity=100, time=672),
    Message('note_off', channel=0, note=78, velocity=100, time=128),
    Message('note_on', channel=0, note=78, velocity=100, time=64),
    Message('note_off', channel=0, note=78, velocity=100, time=64),
    Message('note_on', channel=0, note=78, velocity=100, time=32),
    Message('note_off', channel=0, note=78, velocity=100, time=128),
    Message('note_on', channel=0, note=78, velocity=100, time=64),
    Message('note_off', channel=0, note=78, velocity=100, time=384),
    Message('note_on', channel=0, note=76, velocity=100, time=96),
    Message('note_off', channel=0, note=76, velocity=100, time=64),
    Message('note_on', channel=0, note=74, velocity=100, time=32),
    Message('note_off', channel=0, note=74, velocity=100, time=128),
    Message('note_on', channel=0, note=76, velocity=100, time=64),
    Message('note_off', channel=0, note=76, velocity=100, time=384),
    Message('note_on', channel=0, note=76, velocity=100, time=0),
    Message('note_off', channel=0, note=76, velocity=100, time=64),
    Message('note_on', channel=0, note=79, velocity=100, time=32),
    Message('note_off', channel=0, note=79, velocity=100, time=64),
    Message('note_on', channel=0, note=79, velocity=100, time=32),
    Message('note_on', channel=0, note=74, velocity=100, time=0),
    Message('note_off', channel=0, note=79, velocity=100, time=128),
    Message('note_off', channel=0, note=74, velocity=100, time=0),
    Message('note_on', channel=0, note=79, velocity=100, time=64),
    Message('note_on', channel=0, note=74, velocity=100, time=0),
    Message('note_off', channel=0, note=79, velocity=100, time=192),
    Message('note_off', channel=0, note=74, velocity=100, time=0),
    Message('note_on', channel=0, note=78, velocity=100, time=0),
    Message('note_on', channel=0, note=73, velocity=100, time=0),
    Message('note_off', channel=0, note=78, velocity=100, time=192),
    Message('note_off', channel=0, note=73, velocity=100, time=0),
    Message('note_on', channel=0, note=78, velocity=100, time=672),
    Message('note_off', channel=0, note=78, velocity=100, time=128),
    Message('note_on', channel=0, note=78, velocity=100, time=64),
    Message('note_off', channel=0, note=78, velocity=100, time=128),
    Message('note_on', channel=0, note=78, velocity=100, time=64),
    Message('note_off', channel=0, note=78, velocity=100, time=64),
    Message('note_on', channel=0, note=78, velocity=100, time=32),
    Message('note_off', channel=0, note=78, velocity=100, time=256),
    Message('note_on', channel=0, note=78, velocity=100, time=32),
    Message('note_off', channel=0, note=78, velocity=100, time=64),
    Message('note_on', channel=0, note=78, velocity=100, time=32),
    Message('note_off', channel=0, note=78, velocity=100, time=192),
    Message('note_on', channel=0, note=74, velocity=100, time=96),
    Message('note_off', channel=0, note=74, velocity=100, time=64),
    Message('note_on', channel=0, note=76, velocity=100, time=32),
    Message('note_off', channel=0, note=76, velocity=100, time=256),
    Message('note_on', channel=0, note=76, velocity=100, time=32),
    Message('note_off', channel=0, note=76, velocity=100, time=64),
    Message('note_on', channel=0, note=76, velocity=100, time=32),
    Message('note_off', channel=0, note=76, velocity=100, time=128),
    Message('note_on', channel=0, note=74, velocity=100, time=64),
    Message('note_on', channel=0, note=79, velocity=100, time=0),
    Message('note_off', channel=0, note=74, velocity=100, time=128),
    Message('note_off', channel=0, note=79, velocity=100, time=0),
    Message('note_on', channel=0, note=74, velocity=100, time=64),
    Message('note_on', channel=0, note=79, velocity=100, time=0),
    Message('note_off', channel=0, note=74, velocity=100, time=192),
    Message('note_off', channel=0, note=79, velocity=100, time=0),
    Message('note_on', channel=0, note=78, velocity=100, time=0),
    Message('note_on', channel=0, note=73, velocity=100, time=0),
    Message('note_off', channel=0, note=78, velocity=100, time=192),
    Message('note_off', channel=0, note=73, velocity=100, time=0),
    Message('note_on', channel=0, note=78, velocity=100, time=576),
    Message('note_off', channel=0, note=78, velocity=100, time=64),
    Message('note_on', channel=0, note=78, velocity=100, time=32),
    Message('note_off', channel=0, note=78, velocity=100, time=128),
    Message('note_on', channel=0, note=78, velocity=100, time=64),
    Message('note_off', channel=0, note=78, velocity=100, time=64),
    Message('note_on', channel=0, note=78, velocity=100, time=32),
    Message('note_off', channel=0, note=78, velocity=100, time=128),
    Message('note_on', channel=0, note=78, velocity=100, time=64),
    Message('note_off', channel=0, note=78, velocity=100, time=192),
    Message('note_on', channel=0, note=78, velocity=100, time=0),
    Message('note_off', channel=0, note=78, velocity=100, time=64),
    Message('note_on', channel=0, note=78, velocity=100, time=32),
    Message('note_off', channel=0, note=78, velocity=100, time=64),
    Message('note_on', channel=0, note=78, velocity=100, time=32),
    Message('note_off', channel=0, note=78, velocity=100, time=192),
    Message('note_on', channel=0, note=76, velocity=100, time=480),
    Message('note_off', channel=0, note=76, velocity=100, time=64),
    Message('note_on', channel=0, note=76, velocity=100, time=32),
    Message('note_off', channel=0, note=76, velocity=100, time=64),
    Message('note_on', channel=0, note=76, velocity=100, time=32),
    Message('note_off', channel=0, note=76, velocity=100, time=64),
    Message('note_on', channel=0, note=76, velocity=100, time=32),
    Message('note_off', channel=0, note=76, velocity=100, time=128),
    Message('note_on', channel=0, note=79, velocity=100, time=64),
    Message('note_on', channel=0, note=74, velocity=100, time=0),
    Message('note_off', channel=0, note=79, velocity=100, time=192),
    Message('note_off', channel=0, note=74, velocity=100, time=0),
    Message('note_on', channel=0, note=79, velocity=100, time=0),
    Message('note_on', channel=0, note=74, velocity=100, time=0),
    Message('note_off', channel=0, note=79, velocity=100, time=128),
    Message('note_off', channel=0, note=74, velocity=100, time=0),
    Message('note_on', channel=0, note=74, velocity=100, time=64),
    Message('note_on', channel=0, note=79, velocity=100, time=0),
    Message('note_off', channel=0, note=74, velocity=100, time=64),
    Message('note_off', channel=0, note=79, velocity=100, time=0),
    Message('note_on', channel=0, note=78, velocity=100, time=32),
    Message('note_on', channel=0, note=73, velocity=100, time=0),
    Message('note_off', channel=0, note=78, velocity=100, time=128),
    Message('note_off', channel=0, note=73, velocity=100, time=0),
    Message('note_on', channel=0, note=78, velocity=100, time=448),
    Message('note_off', channel=0, note=78, velocity=100, time=192),
    Message('note_on', channel=0, note=78, velocity=100, time=96),
    Message('note_off', channel=0, note=78, velocity=100, time=128),
    Message('note_on', channel=0, note=78, velocity=100, time=64),
    Message('note_off', channel=0, note=78, velocity=100, time=192),
    Message('note_on', channel=0, note=78, velocity=100, time=0),
    Message('note_off', channel=0, note=78, velocity=100, time=128),
    Message('note_on', channel=0, note=78, velocity=100, time=64),
    Message('note_off', channel=0, note=78, velocity=100, time=128),
    Message('note_on', channel=0, note=78, velocity=100, time=64),
    Message('note_on', channel=0, note=74, velocity=100, time=0),
    Message('note_off', channel=0, note=78, velocity=100, time=128),
    Message('note_off', channel=0, note=74, velocity=100, time=0),
    Message('note_on', channel=0, note=78, velocity=100, time=64),
    Message('note_on', channel=0, note=74, velocity=100, time=0),
    Message('note_off', channel=0, note=78, velocity=100, time=192),
    Message('note_off', channel=0, note=74, velocity=100, time=0),
    Message('note_on', channel=0, note=78, velocity=100, time=0),
    Message('note_on', channel=0, note=74, velocity=100, time=0),
    Message('note_off', channel=0, note=78, velocity=100, time=64),
    Message('note_off', channel=0, note=74, velocity=100, time=0),
    Message('note_on', channel=0, note=76, velocity=100, time=32),
    Message('note_on', channel=0, note=73, velocity=100, time=0),
    Message('note_off', channel=0, note=76, velocity=100, time=128),
    Message('note_off', channel=0, note=73, velocity=100, time=0),
    Message('note_on', channel=0, note=79, velocity=100, time=640),
    Message('note_on', channel=0, note=73, velocity=100, time=0),
    Message('note_off', channel=0, note=79, velocity=100, time=128),
    Message('note_off', channel=0, note=73, velocity=100, time=0),
    Message('note_on', channel=0, note=73, velocity=100, time=64),
    Message('note_on', channel=0, note=79, velocity=100, time=0),
    Message('note_off', channel=0, note=73, velocity=100, time=64),
    Message('note_off', channel=0, note=79, velocity=100, time=0),
    Message('note_on', channel=0, note=79, velocity=100, time=32),
    Message('note_on', channel=0, note=73, velocity=100, time=0),
    Message('note_off', channel=0, note=79, velocity=100, time=128),
    Message('note_off', channel=0, note=73, velocity=100, time=0),
    Message('note_on', channel=0, note=78, velocity=100, time=64),
    Message('note_on', channel=0, note=74, velocity=100, time=0),
    Message('note_off', channel=0, note=78, velocity=100, time=222),
    Message('note_off', channel=0, note=74, velocity=100, time=0),
    Message('note_on', channel=0, note=71, velocity=100, time=66),
    Message('note_on', channel=0, note=66, velocity=100, time=0),
    Message('note_on', channel=0, note=74, velocity=100, time=0),
    Message('note_on', channel=0, note=78, velocity=100, time=0),
    Message('note_off', channel=0, note=71, velocity=100, time=128),
    Message('note_off', channel=0, note=66, velocity=100, time=0),
    Message('note_off', channel=0, note=74, velocity=100, time=0),
    Message('note_off', channel=0, note=78, velocity=100, time=0),
    Message('note_on', channel=0, note=78, velocity=100, time=256),
    Message('note_on', channel=0, note=78, velocity=100, time=96),
    Message('note_off', channel=0, note=78, velocity=100, time=32),
    Message('note_off', channel=0, note=78, velocity=100, time=194),
    Message('note_on', channel=0, note=78, velocity=100, time=254),
    Message('note_off', channel=0, note=78, velocity=100, time=128),
    Message('note_on', channel=0, note=74, velocity=100, time=64),
    Message('note_off', channel=0, note=74, velocity=100, time=64),
    Message('note_on', channel=0, note=78, velocity=100, time=32),
    Message('note_off', channel=0, note=78, velocity=100, time=192),
    Message('note_on', channel=0, note=78, velocity=100, time=0),
    Message('note_off', channel=0, note=78, velocity=100, time=128),
    Message('note_on', channel=0, note=78, velocity=100, time=64),
    Message('note_off', channel=0, note=78, velocity=100, time=192),
    Message('note_on', channel=0, note=71, velocity=100, time=1248),
    Message('note_on', channel=0, note=66, velocity=100, time=0),
    Message('note_on', channel=0, note=74, velocity=100, time=0),
    Message('note_on', channel=0, note=78, velocity=100, time=0),
    Message('note_off', channel=0, note=71, velocity=100, time=128),
    Message('note_off', channel=0, note=66, velocity=100, time=0),
    Message('note_off', channel=0, note=74, velocity=100, time=0),
    Message('note_off', channel=0, note=78, velocity=100, time=0),
    Message('note_on', channel=0, note=78, velocity=100, time=256),
    Message('note_on', channel=0, note=78, velocity=100, time=96),
    Message('note_off', channel=0, note=78, velocity=100, time=32),
    Message('note_off', channel=0, note=78, velocity=100, time=194),
    Message('note_on', channel=0, note=78, velocity=100, time=254),
    Message('note_off', channel=0, note=78, velocity=100, time=128),
    Message('note_on', channel=0, note=74, velocity=100, time=64),
    Message('note_off', channel=0, note=74, velocity=100, time=64),
    Message('note_on', channel=0, note=78, velocity=100, time=32),
    Message('note_off', channel=0, note=78, velocity=100, time=192),
    Message('note_on', channel=0, note=81, velocity=100, time=0),
    Message('note_off', channel=0, note=81, velocity=100, time=128),
    Message('note_on', channel=0, note=78, velocity=100, time=64),
    Message('note_off', channel=0, note=78, velocity=100, time=192),
    Message('note_on', channel=0, note=69, velocity=100, time=1248),
    Message('note_on', channel=0, note=67, velocity=100, time=0),
    Message('note_on', channel=0, note=73, velocity=100, time=0),
    Message('note_on', channel=0, note=76, velocity=100, time=0),
    Message('note_off', channel=0, note=69, velocity=100, time=128),
    Message('note_off', channel=0, note=67, velocity=100, time=0),
    Message('note_off', channel=0, note=73, velocity=100, time=0),
    Message('note_off', channel=0, note=76, velocity=100, time=0),
    Message('note_on', channel=0, note=76, velocity=100, time=160),
    Message('note_off', channel=0, note=76, velocity=100, time=128),
    Message('note_on', channel=0, note=76, velocity=100, time=64),
    Message('note_off', channel=0, note=76, velocity=100, time=384),
    Message('note_on', channel=0, note=74, velocity=100, time=96),
    Message('note_off', channel=0, note=74, velocity=100, time=128),
    Message('note_on', channel=0, note=73, velocity=100, time=64),
    Message('note_off', channel=0, note=73, velocity=100, time=64),
    Message('note_on', channel=0, note=76, velocity=100, time=32),
    Message('note_off', channel=0, note=76, velocity=100, time=192),
    Message('note_on', channel=0, note=79, velocity=100, time=0),
    Message('note_off', channel=0, note=79, velocity=100, time=128),
    Message('note_on', channel=0, note=76, velocity=100, time=64),
    Message('note_off', channel=0, note=76, velocity=100, time=192),
    Message('note_on', channel=0, note=78, velocity=100, time=1248),
    Message('note_off', channel=0, note=78, velocity=100, time=192),
    Message('note_on', channel=0, note=78, velocity=100, time=96),
    Message('note_off', channel=0, note=78, velocity=100, time=128),
    Message('note_on', channel=0, note=78, velocity=100, time=64),
    Message('note_off', channel=0, note=78, velocity=100, time=192),
    Message('note_on', channel=0, note=78, velocity=100, time=0),
    Message('note_off', channel=0, note=78, velocity=100, time=128),
    Message('note_on', channel=0, note=78, velocity=100, time=64),
    Message('note_off', channel=0, note=78, velocity=100, time=128),
    Message('note_on', channel=0, note=78, velocity=100, time=64),
    Message('note_off', channel=0, note=78, velocity=100, time=64),
    Message('note_on', channel=0, note=78, velocity=100, time=32),
    Message('note_off', channel=0, note=78, velocity=100, time=64),
    Message('note_on', channel=0, note=78, velocity=100, time=32),
    Message('note_off', channel=0, note=78, velocity=100, time=192),
    Message('note_on', channel=0, note=78, velocity=100, time=0),
    Message('note_off', channel=0, note=78, velocity=100, time=128),
    Message('note_on', channel=0, note=78, velocity=100, time=64),
    Message('note_off', channel=0, note=78, velocity=100, time=744),
    Message('note_on', channel=0, note=78, velocity=100, time=20664),
    Message('note_off', channel=0, note=78, velocity=100, time=128),
    Message('note_on', channel=0, note=78, velocity=100, time=64),
    Message('note_off', channel=0, note=78, velocity=100, time=128),
    Message('note_on', channel=0, note=78, velocity=100, time=64),
    Message('note_off', channel=0, note=78, velocity=100, time=64),
    Message('note_on', channel=0, note=78, velocity=100, time=32),
    Message('note_on', channel=0, note=74, velocity=100, time=0),
    Message('note_off', channel=0, note=78, velocity=100, time=192),
    Message('note_off', channel=0, note=74, velocity=100, time=0),
    Message('note_on', channel=0, note=78, velocity=100, time=0),
    Message('note_on', channel=0, note=74, velocity=100, time=0),
    Message('note_off', channel=0, note=78, velocity=100, time=128),
    Message('note_off', channel=0, note=74, velocity=100, time=0),
    Message('note_on', channel=0, note=81, velocity=100, time=64),
    Message('note_on', channel=0, note=76, velocity=100, time=0),
    Message('note_off', channel=0, note=81, velocity=100, time=128),
    Message('note_off', channel=0, note=76, velocity=100, time=0),
    Message('note_on', channel=0, note=78, velocity=100, time=64),
    Message('note_on', channel=0, note=74, velocity=100, time=0),
    Message('note_off', channel=0, note=78, velocity=100, time=128),
    Message('note_off', channel=0, note=74, velocity=100, time=0),
    Message('note_on', channel=0, note=74, velocity=100, time=64),
    Message('note_on', channel=0, note=78, velocity=100, time=0),
    Message('note_off', channel=0, note=74, velocity=100, time=466),
    Message('note_off', channel=0, note=78, velocity=100, time=0),
    Message('note_on', channel=0, note=78, velocity=100, time=206),
    Message('note_off', channel=0, note=78, velocity=100, time=64),
    Message('note_on', channel=0, note=78, velocity=100, time=32),
    Message('note_off', channel=0, note=78, velocity=100, time=192),
    Message('note_on', channel=0, note=78, velocity=100, time=0),
    Message('note_off', channel=0, note=78, velocity=100, time=128),
    Message('note_on', channel=0, note=81, velocity=100, time=64),
    Message('note_on', channel=0, note=76, velocity=100, time=0),
    Message('note_off', channel=0, note=81, velocity=100, time=128),
    Message('note_off', channel=0, note=76, velocity=100, time=0),
    Message('note_on', channel=0, note=78, velocity=100, time=64),
    Message('note_on', channel=0, note=74, velocity=100, time=0),
    Message('note_off', channel=0, note=78, velocity=100, time=128),
    Message('note_off', channel=0, note=74, velocity=100, time=0),
    Message('note_on', channel=0, note=78, velocity=100, time=64),
    Message('note_on', channel=0, note=74, velocity=100, time=0),
    Message('note_off', channel=0, note=78, velocity=100, time=474),
    Message('note_off', channel=0, note=74, velocity=100, time=0),
    Message('note_on', channel=0, note=78, velocity=100, time=198),
    Message('note_off', channel=0, note=78, velocity=100, time=128),
    Message('note_on', channel=0, note=78, velocity=100, time=64),
    Message('note_off', channel=0, note=78, velocity=100, time=128),
    Message('note_on', channel=0, note=78, velocity=100, time=64),
    Message('note_off', channel=0, note=78, velocity=100, time=64),
    Message('note_on', channel=0, note=81, velocity=100, time=32),
    Message('note_on', channel=0, note=76, velocity=100, time=0),
    Message('note_off', channel=0, note=81, velocity=100, time=128),
    Message('note_off', channel=0, note=76, velocity=100, time=0),
    Message('note_on', channel=0, note=78, velocity=100, time=64),
    Message('note_on', channel=0, note=74, velocity=100, time=0),
    Message('note_off', channel=0, note=78, velocity=100, time=128),
    Message('note_off', channel=0, note=74, velocity=100, time=0),
    Message('note_on', channel=0, note=78, velocity=100, time=64),
    Message('note_on', channel=0, note=74, velocity=100, time=0),
    Message('note_off', channel=0, note=78, velocity=100, time=552),
    Message('note_off', channel=0, note=74, velocity=100, time=10),
    Message('note_on', channel=0, note=76, velocity=100, time=14),
    Message('note_off', channel=0, note=76, velocity=100, time=64),
    Message('note_on', channel=0, note=74, velocity=100, time=32),
    Message('note_off', channel=0, note=74, velocity=100, time=64),
    Message('note_on', channel=0, note=76, velocity=100, time=32),
    Message('note_off', channel=0, note=76, velocity=100, time=192),
    Message('note_on', channel=0, note=76, velocity=100, time=0),
    Message('note_off', channel=0, note=76, velocity=100, time=128),
    Message('note_on', channel=0, note=76, velocity=100, time=64),
    Message('note_off', channel=0, note=76, velocity=100, time=128),
    Message('note_on', channel=0, note=78, velocity=100, time=64),
    Message('note_off', channel=0, note=78, velocity=100, time=128),
    Message('note_on', channel=0, note=74, velocity=100, time=64),
    Message('note_off', channel=0, note=74, velocity=100, time=384),
    Message('note_on', channel=0, note=78, velocity=100, time=49056),
    Message('note_off', channel=0, note=78, velocity=100, time=192),
    Message('note_on', channel=0, note=78, velocity=100, time=96),
    Message('note_off', channel=0, note=78, velocity=100, time=192),
    Message('note_on', channel=0, note=78, velocity=100, time=96),
    Message('note_off', channel=0, note=78, velocity=100, time=192),
    Message('note_on', channel=0, note=81, velocity=100, time=96),
    Message('note_off', channel=0, note=81, velocity=100, time=128),
    Message('note_on', channel=0, note=78, velocity=100, time=64),
    Message('note_off', channel=0, note=78, velocity=100, time=128),
    Message('note_on', channel=0, note=78, velocity=100, time=64),
    Message('note_on', channel=0, note=74, velocity=100, time=0),
    Message('note_off', channel=0, note=78, velocity=100, time=460),
    Message('note_off', channel=0, note=74, velocity=100, time=32),
    Message('note_on', channel=0, note=78, velocity=100, time=1332),
    Message('note_off', channel=0, note=78, velocity=100, time=192),
    Message('note_on', channel=0, note=78, velocity=100, time=96),
    Message('note_off', channel=0, note=78, velocity=100, time=192),
    Message('note_on', channel=0, note=78, velocity=100, time=96),
    Message('note_off', channel=0, note=78, velocity=100, time=64),
    Message('note_on', channel=0, note=78, velocity=100, time=32),
    Message('note_off', channel=0, note=78, velocity=100, time=128),
    Message('note_on', channel=0, note=81, velocity=100, time=64),
    Message('note_off', channel=0, note=81, velocity=100, time=128),
    Message('note_on', channel=0, note=78, velocity=100, time=64),
    Message('note_off', channel=0, note=78, velocity=100, time=128),
    Message('note_on', channel=0, note=78, velocity=100, time=64),
    Message('note_on', channel=0, note=74, velocity=100, time=0),
    Message('note_off', channel=0, note=78, velocity=100, time=484),
    Message('note_off', channel=0, note=74, velocity=100, time=6),
    Message('note_on', channel=0, note=78, velocity=100, time=1334),
    Message('note_off', channel=0, note=78, velocity=100, time=192),
    Message('note_on', channel=0, note=78, velocity=100, time=96),
    Message('note_off', channel=0, note=78, velocity=100, time=192),
    Message('note_on', channel=0, note=78, velocity=100, time=96),
    Message('note_off', channel=0, note=78, velocity=100, time=192),
    Message('note_on', channel=0, note=81, velocity=100, time=96),
    Message('note_off', channel=0, note=81, velocity=100, time=128),
    Message('note_on', channel=0, note=78, velocity=100, time=64),
    Message('note_off', channel=0, note=78, velocity=100, time=128),
    Message('note_on', channel=0, note=74, velocity=100, time=64),
    Message('note_on', channel=0, note=78, velocity=100, time=0),
    Message('note_off', channel=0, note=74, velocity=100, time=336),
    Message('note_off', channel=0, note=78, velocity=100, time=42),
    Message('note_on', channel=0, note=78, velocity=100, time=1446),
    Message('note_off', channel=0, note=78, velocity=100, time=192),
    Message('note_on', channel=0, note=78, velocity=100, time=96),
    Message('note_off', channel=0, note=78, velocity=100, time=192),
    Message('note_on', channel=0, note=78, velocity=100, time=96),
    Message('note_off', channel=0, note=78, velocity=100, time=64),
    Message('note_on', channel=0, note=78, velocity=100, time=32),
    Message('note_off', channel=0, note=78, velocity=100, time=128),
    Message('note_on', channel=0, note=81, velocity=100, time=64),
    Message('note_off', channel=0, note=81, velocity=100, time=128),
    Message('note_on', channel=0, note=78, velocity=100, time=64),
    Message('note_off', channel=0, note=78, velocity=100, time=128),
    Message('note_on', channel=0, note=78, velocity=100, time=64),
    Message('note_on', channel=0, note=74, velocity=100, time=0),
    Message('note_off', channel=0, note=78, velocity=100, time=1444),
    Message('note_off', channel=0, note=74, velocity=100, time=6),
    Message('note_on', channel=0, note=78, velocity=100, time=6518),
    Message('note_off', channel=0, note=78, velocity=100, time=128),
    Message('note_on', channel=0, note=76, velocity=100, time=64),
    Message('note_off', channel=0, note=76, velocity=100, time=128),
    Message('note_on', channel=0, note=74, velocity=100, time=64),
    Message('note_off', channel=0, note=74, velocity=100, time=64),
    Message('note_on', channel=0, note=76, velocity=100, time=32),
    Message('note_off', channel=0, note=76, velocity=100, time=192),
    Message('note_on', channel=0, note=78, velocity=100, time=0),
    Message('note_off', channel=0, note=78, velocity=100, time=128),
    Message('note_on', channel=0, note=78, velocity=100, time=64),
    Message('note_off', channel=0, note=78, velocity=100, time=384),
    Message('note_on', channel=0, note=76, velocity=100, time=480),
    Message('note_off', channel=0, note=76, velocity=100, time=64),
    Message('note_on', channel=0, note=74, velocity=100, time=32),
    Message('note_off', channel=0, note=74, velocity=100, time=128),
    Message('note_on', channel=0, note=76, velocity=100, time=64),
    Message('note_off', channel=0, note=76, velocity=100, time=192),
    Message('note_on', channel=0, note=78, velocity=100, time=0),
    Message('note_off', channel=0, note=78, velocity=100, time=128),
    Message('note_on', channel=0, note=78, velocity=100, time=64),
    Message('note_off', channel=0, note=78, velocity=100, time=384),
    Message('note_on', channel=0, note=78, velocity=100, time=288),
    Message('note_off', channel=0, note=78, velocity=100, time=128),
    Message('note_on', channel=0, note=76, velocity=100, time=64),
    Message('note_off', channel=0, note=76, velocity=100, time=128),
    Message('note_on', channel=0, note=74, velocity=100, time=64),
    Message('note_off', channel=0, note=74, velocity=100, time=64),
    Message('note_on', channel=0, note=76, velocity=100, time=32),
    Message('note_off', channel=0, note=76, velocity=100, time=192),
    Message('note_on', channel=0, note=78, velocity=100, time=0),
    Message('note_off', channel=0, note=78, velocity=100, time=128),
    Message('note_on', channel=0, note=78, velocity=100, time=64),
    Message('note_off', channel=0, note=78, velocity=100, time=384),
    Message('note_on', channel=0, note=78, velocity=100, time=288),
    Message('note_off', channel=0, note=78, velocity=100, time=128),
    Message('note_on', channel=0, note=76, velocity=100, time=64),
    Message('note_off', channel=0, note=76, velocity=100, time=64),
    Message('note_on', channel=0, note=74, velocity=100, time=32),
    Message('note_off', channel=0, note=74, velocity=100, time=128),
    Message('note_on', channel=0, note=76, velocity=100, time=64),
    Message('note_off', channel=0, note=76, velocity=100, time=192),
    Message('note_on', channel=0, note=78, velocity=100, time=0),
    Message('note_off', channel=0, note=78, velocity=100, time=128),
    Message('note_on', channel=0, note=78, velocity=100, time=64),
    Message('note_off', channel=0, note=78, velocity=100, time=384),
    Message('note_on', channel=0, note=78, velocity=100, time=288),
    Message('note_off', channel=0, note=78, velocity=100, time=128),
    Message('note_on', channel=0, note=76, velocity=100, time=64),
    Message('note_off', channel=0, note=76, velocity=100, time=128),
    Message('note_on', channel=0, note=74, velocity=100, time=64),
    Message('note_off', channel=0, note=74, velocity=100, time=64),
    Message('note_on', channel=0, note=76, velocity=100, time=32),
    Message('note_off', channel=0, note=76, velocity=100, time=192),
    Message('note_on', channel=0, note=78, velocity=100, time=0),
    Message('note_off', channel=0, note=78, velocity=100, time=128),
    Message('note_on', channel=0, note=78, velocity=100, time=64),
    Message('note_off', channel=0, note=78, velocity=100, time=384),
    Message('note_on', channel=0, note=78, velocity=100, time=288),
    Message('note_off', channel=0, note=78, velocity=100, time=128),
    Message('note_on', channel=0, note=76, velocity=100, time=64),
    Message('note_off', channel=0, note=76, velocity=100, time=64),
    Message('note_on', channel=0, note=74, velocity=100, time=32),
    Message('note_off', channel=0, note=74, velocity=100, time=128),
    Message('note_on', channel=0, note=76, velocity=100, time=64),
    Message('note_off', channel=0, note=76, velocity=100, time=192),
    Message('note_on', channel=0, note=78, velocity=100, time=0),
    Message('note_off', channel=0, note=78, velocity=100, time=128),
    Message('note_on', channel=0, note=78, velocity=100, time=64),
    Message('note_off', channel=0, note=78, velocity=100, time=384),
    Message('note_on', channel=0, note=78, velocity=100, time=288),
    Message('note_off', channel=0, note=78, velocity=100, time=128),
    Message('note_on', channel=0, note=76, velocity=100, time=64),
    Message('note_off', channel=0, note=76, velocity=100, time=128),
    Message('note_on', channel=0, note=74, velocity=100, time=64),
    Message('note_off', channel=0, note=74, velocity=100, time=64),
    Message('note_on', channel=0, note=76, velocity=100, time=32),
    Message('note_off', channel=0, note=76, velocity=100, time=192),
    Message('note_on', channel=0, note=78, velocity=100, time=0),
    Message('note_off', channel=0, note=78, velocity=100, time=128),
    Message('note_on', channel=0, note=78, velocity=100, time=64),
    Message('note_off', channel=0, note=78, velocity=100, time=384),
    Message('note_on', channel=0, note=71, velocity=100, time=288),
    Message('note_on', channel=0, note=78, velocity=100, time=0),
    Message('note_off', channel=0, note=71, velocity=100, time=64),
    Message('note_off', channel=0, note=78, velocity=100, time=0),
    Message('note_on', channel=0, note=78, velocity=100, time=32),
    Message('note_on', channel=0, note=71, velocity=100, time=0),
    Message('note_off', channel=0, note=78, velocity=100, time=64),
    Message('note_off', channel=0, note=71, velocity=100, time=0),
    Message('note_on', channel=0, note=78, velocity=100, time=32),
    Message('note_on', channel=0, note=71, velocity=100, time=0),
    Message('note_off', channel=0, note=78, velocity=100, time=64),
    Message('note_off', channel=0, note=71, velocity=100, time=0),
    Message('note_on', channel=0, note=78, velocity=100, time=32),
    Message('note_on', channel=0, note=71, velocity=100, time=0),
    Message('note_off', channel=0, note=78, velocity=100, time=128),
    Message('note_off', channel=0, note=71, velocity=100, time=0),
    Message('note_on', channel=0, note=81, velocity=100, time=64),
    Message('note_on', channel=0, note=74, velocity=100, time=0),
    Message('note_off', channel=0, note=81, velocity=100, time=192),
    Message('note_off', channel=0, note=74, velocity=100, time=0),
    Message('note_on', channel=0, note=81, velocity=100, time=0),
    Message('note_on', channel=0, note=74, velocity=100, time=0),
    Message('note_off', channel=0, note=81, velocity=100, time=128),
    Message('note_off', channel=0, note=74, velocity=100, time=0),
    Message('note_on', channel=0, note=81, velocity=100, time=64),
    Message('note_on', channel=0, note=74, velocity=100, time=0),
    Message('note_off', channel=0, note=81, velocity=100, time=384),
    Message('note_off', channel=0, note=74, velocity=100, time=0),
    Message('note_on', channel=0, note=79, velocity=100, time=288),
    Message('note_off', channel=0, note=79, velocity=100, time=128),
    Message('note_on', channel=0, note=79, velocity=100, time=64),
    Message('note_off', channel=0, note=79, velocity=100, time=128),
    Message('note_on', channel=0, note=79, velocity=100, time=64),
    Message('note_off', channel=0, note=79, velocity=100, time=64),
    Message('note_on', channel=0, note=81, velocity=100, time=32),
    Message('note_off', channel=0, note=81, velocity=100, time=192),
    Message('note_on', channel=0, note=79, velocity=100, time=0),
    Message('note_off', channel=0, note=79, velocity=100, time=128),
    Message('note_on', channel=0, note=79, velocity=100, time=64),
    Message('note_off', channel=0, note=79, velocity=100, time=384),
    Message('note_on', channel=0, note=78, velocity=100, time=288),
    Message('note_on', channel=0, note=71, velocity=100, time=0),
    Message('note_off', channel=0, note=78, velocity=100, time=128),
    Message('note_off', channel=0, note=71, velocity=100, time=0),
    Message('note_on', channel=0, note=78, velocity=100, time=64),
    Message('note_on', channel=0, note=71, velocity=100, time=0),
    Message('note_off', channel=0, note=78, velocity=100, time=128),
    Message('note_off', channel=0, note=71, velocity=100, time=0),
    Message('note_on', channel=0, note=78, velocity=100, time=64),
    Message('note_on', channel=0, note=71, velocity=100, time=0),
    Message('note_off', channel=0, note=78, velocity=100, time=64),
    Message('note_off', channel=0, note=71, velocity=100, time=0),
    Message('note_on', channel=0, note=81, velocity=100, time=32),
    Message('note_on', channel=0, note=74, velocity=100, time=0),
    Message('note_off', channel=0, note=81, velocity=100, time=192),
    Message('note_off', channel=0, note=74, velocity=100, time=0),
    Message('note_on', channel=0, note=78, velocity=100, time=0),
    Message('note_on', channel=0, note=71, velocity=100, time=0),
    Message('note_off', channel=0, note=78, velocity=100, time=128),
    Message('note_off', channel=0, note=71, velocity=100, time=0),
    Message('note_on', channel=0, note=78, velocity=100, time=64),
    Message('note_on', channel=0, note=71, velocity=100, time=0),
    Message('note_off', channel=0, note=78, velocity=100, time=384),
    Message('note_off', channel=0, note=71, velocity=100, time=0),
    Message('note_on', channel=0, note=79, velocity=100, time=288),
    Message('note_off', channel=0, note=79, velocity=100, time=128),
    Message('note_on', channel=0, note=79, velocity=100, time=64),
    Message('note_off', channel=0, note=79, velocity=100, time=64),
    Message('note_on', channel=0, note=79, velocity=100, time=32),
    Message('note_off', channel=0, note=79, velocity=100, time=128),
    Message('note_on', channel=0, note=81, velocity=100, time=64),
    Message('note_off', channel=0, note=81, velocity=100, time=64),
    Message('note_on', channel=0, note=79, velocity=100, time=32),
    Message('note_off', channel=0, note=79, velocity=100, time=192),
    Message('note_on', channel=0, note=79, velocity=100, time=96),
    Message('note_off', channel=0, note=79, velocity=100, time=384),
    Message('note_on', channel=0, note=78, velocity=100, time=288),
    Message('note_on', channel=0, note=71, velocity=100, time=0),
    Message('note_off', channel=0, note=78, velocity=100, time=192),
    Message('note_off', channel=0, note=71, velocity=100, time=0),
    Message('note_on', channel=0, note=71, velocity=100, time=96),
    Message('note_on', channel=0, note=78, velocity=100, time=0),
    Message('note_off', channel=0, note=71, velocity=100, time=128),
    Message('note_off', channel=0, note=78, velocity=100, time=0),
    Message('note_on', channel=0, note=78, velocity=100, time=64),
    Message('note_on', channel=0, note=71, velocity=100, time=0),
    Message('note_off', channel=0, note=78, velocity=100, time=192),
    Message('note_off', channel=0, note=71, velocity=100, time=0),
    Message('note_on', channel=0, note=78, velocity=100, time=0),
    Message('note_on', channel=0, note=74, velocity=100, time=0),
    Message('note_off', channel=0, note=78, velocity=100, time=128),
    Message('note_off', channel=0, note=74, velocity=100, time=0),
    Message('note_on', channel=0, note=78, velocity=100, time=64),
    Message('note_on', channel=0, note=74, velocity=100, time=0),
    Message('note_off', channel=0, note=78, velocity=100, time=384),
    Message('note_off', channel=0, note=74, velocity=100, time=0),
    MetaMessage('end_of_track', time=500)]),
  MidiTrack([
    MetaMessage('track_name', name='Guitar 1: Channel 2', time=0),
    MetaMessage('device_name', name='None', time=0),
    Message('control_change', channel=2, control=7, value=127, time=0),
    Message('control_change', channel=2, control=10, value=64, time=0),
    Message('program_change', channel=2, program=30, time=0),
    Message('control_change', channel=2, control=0, value=0, time=0),
    Message('note_on', channel=2, note=62, velocity=100, time=112032),
    Message('note_off', channel=2, note=62, velocity=100, time=192),
    Message('note_on', channel=2, note=62, velocity=100, time=0),
    Message('note_off', channel=2, note=62, velocity=100, time=64),
    Message('note_on', channel=2, note=66, velocity=100, time=32),
    Message('note_off', channel=2, note=66, velocity=100, time=64),
    Message('note_on', channel=2, note=62, velocity=100, time=32),
    Message('note_off', channel=2, note=62, velocity=100, time=64),
    Message('note_on', channel=2, note=67, velocity=100, time=32),
    Message('note_off', channel=2, note=67, velocity=100, time=64),
    Message('note_on', channel=2, note=66, velocity=100, time=32),
    Message('note_off', channel=2, note=66, velocity=100, time=64),
    Message('note_on', channel=2, note=61, velocity=100, time=32),
    Message('note_off', channel=2, note=61, velocity=100, time=64),
    Message('note_on', channel=2, note=62, velocity=100, time=32),
    Message('note_off', channel=2, note=62, velocity=100, time=192),
    Message('note_on', channel=2, note=62, velocity=100, time=0),
    Message('note_off', channel=2, note=62, velocity=100, time=64),
    Message('note_on', channel=2, note=67, velocity=100, time=32),
    Message('note_off', channel=2, note=67, velocity=100, time=64),
    Message('note_on', channel=2, note=62, velocity=100, time=32),
    Message('note_off', channel=2, note=62, velocity=100, time=64),
    Message('note_on', channel=2, note=62, velocity=100, time=32),
    Message('note_off', channel=2, note=62, velocity=100, time=64),
    Message('note_on', channel=2, note=66, velocity=100, time=32),
    Message('note_off', channel=2, note=66, velocity=100, time=64),
    Message('note_on', channel=2, note=67, velocity=100, time=32),
    Message('note_off', channel=2, note=67, velocity=100, time=64),
    Message('note_on', channel=2, note=62, velocity=100, time=32),
    Message('note_off', channel=2, note=62, velocity=100, time=192),
    Message('note_on', channel=2, note=62, velocity=100, time=0),
    Message('note_off', channel=2, note=62, velocity=100, time=64),
    Message('note_on', channel=2, note=66, velocity=100, time=32),
    Message('note_off', channel=2, note=66, velocity=100, time=64),
    Message('note_on', channel=2, note=62, velocity=100, time=32),
    Message('note_off', channel=2, note=62, velocity=100, time=64),
    Message('note_on', channel=2, note=67, velocity=100, time=32),
    Message('note_off', channel=2, note=67, velocity=100, time=64),
    Message('note_on', channel=2, note=66, velocity=100, time=32),
    Message('note_off', channel=2, note=66, velocity=100, time=64),
    Message('note_on', channel=2, note=61, velocity=100, time=32),
    Message('note_off', channel=2, note=61, velocity=100, time=64),
    Message('note_on', channel=2, note=62, velocity=100, time=32),
    Message('note_off', channel=2, note=62, velocity=100, time=192),
    Message('note_on', channel=2, note=62, velocity=100, time=0),
    Message('note_off', channel=2, note=62, velocity=100, time=64),
    Message('note_on', channel=2, note=67, velocity=100, time=32),
    Message('note_off', channel=2, note=67, velocity=100, time=64),
    Message('note_on', channel=2, note=62, velocity=100, time=32),
    Message('note_off', channel=2, note=62, velocity=100, time=64),
    Message('note_on', channel=2, note=62, velocity=100, time=32),
    Message('note_off', channel=2, note=62, velocity=100, time=64),
    Message('note_on', channel=2, note=66, velocity=100, time=32),
    Message('note_off', channel=2, note=66, velocity=100, time=64),
    Message('note_on', channel=2, note=67, velocity=100, time=32),
    Message('note_off', channel=2, note=67, velocity=100, time=64),
    Message('note_on', channel=2, note=62, velocity=100, time=32),
    Message('note_off', channel=2, note=62, velocity=100, time=192),
    Message('note_on', channel=2, note=62, velocity=100, time=0),
    Message('note_off', channel=2, note=62, velocity=100, time=64),
    Message('note_on', channel=2, note=66, velocity=100, time=32),
    Message('note_off', channel=2, note=66, velocity=100, time=64),
    Message('note_on', channel=2, note=62, velocity=100, time=32),
    Message('note_off', channel=2, note=62, velocity=100, time=64),
    Message('note_on', channel=2, note=67, velocity=100, time=32),
    Message('note_off', channel=2, note=67, velocity=100, time=64),
    Message('note_on', channel=2, note=66, velocity=100, time=32),
    Message('note_off', channel=2, note=66, velocity=100, time=64),
    Message('note_on', channel=2, note=61, velocity=100, time=32),
    Message('note_off', channel=2, note=61, velocity=100, time=64),
    Message('note_on', channel=2, note=62, velocity=100, time=32),
    Message('note_off', channel=2, note=62, velocity=100, time=192),
    Message('note_on', channel=2, note=62, velocity=100, time=0),
    Message('note_off', channel=2, note=62, velocity=100, time=64),
    Message('note_on', channel=2, note=67, velocity=100, time=32),
    Message('note_off', channel=2, note=67, velocity=100, time=64),
    Message('note_on', channel=2, note=62, velocity=100, time=32),
    Message('note_off', channel=2, note=62, velocity=100, time=64),
    Message('note_on', channel=2, note=62, velocity=100, time=32),
    Message('note_off', channel=2, note=62, velocity=100, time=64),
    Message('note_on', channel=2, note=66, velocity=100, time=32),
    Message('note_off', channel=2, note=66, velocity=100, time=64),
    Message('note_on', channel=2, note=67, velocity=100, time=32),
    Message('note_off', channel=2, note=67, velocity=100, time=64),
    Message('note_on', channel=2, note=62, velocity=100, time=32),
    Message('note_off', channel=2, note=62, velocity=100, time=192),
    Message('note_on', channel=2, note=62, velocity=100, time=0),
    Message('note_off', channel=2, note=62, velocity=100, time=64),
    Message('note_on', channel=2, note=66, velocity=100, time=32),
    Message('note_off', channel=2, note=66, velocity=100, time=64),
    Message('note_on', channel=2, note=62, velocity=100, time=32),
    Message('note_off', channel=2, note=62, velocity=100, time=64),
    Message('note_on', channel=2, note=67, velocity=100, time=32),
    Message('note_off', channel=2, note=67, velocity=100, time=64),
    Message('note_on', channel=2, note=66, velocity=100, time=32),
    Message('note_off', channel=2, note=66, velocity=100, time=64),
    Message('note_on', channel=2, note=61, velocity=100, time=32),
    Message('note_off', channel=2, note=61, velocity=100, time=64),
    Message('note_on', channel=2, note=62, velocity=100, time=32),
    Message('note_off', channel=2, note=62, velocity=100, time=192),
    Message('note_on', channel=2, note=62, velocity=100, time=0),
    Message('note_off', channel=2, note=62, velocity=100, time=64),
    Message('note_on', channel=2, note=67, velocity=100, time=32),
    Message('note_off', channel=2, note=67, velocity=100, time=64),
    Message('note_on', channel=2, note=62, velocity=100, time=32),
    Message('note_off', channel=2, note=62, velocity=100, time=64),
    Message('note_on', channel=2, note=62, velocity=100, time=32),
    Message('note_off', channel=2, note=62, velocity=100, time=64),
    Message('note_on', channel=2, note=66, velocity=100, time=32),
    Message('note_off', channel=2, note=66, velocity=100, time=64),
    Message('note_on', channel=2, note=67, velocity=100, time=32),
    Message('note_off', channel=2, note=67, velocity=100, time=64),
    Message('note_on', channel=2, note=69, velocity=100, time=32),
    Message('note_on', channel=2, note=71, velocity=100, time=24),
    Message('note_off', channel=2, note=69, velocity=100, time=40),
    Message('note_off', channel=2, note=71, velocity=100, time=674),
    Message('note_on', channel=2, note=71, velocity=100, time=222),
    Message('note_off', channel=2, note=71, velocity=100, time=192),
    Message('note_on', channel=2, note=73, velocity=100, time=96),
    Message('note_off', channel=2, note=73, velocity=100, time=128),
    Message('note_on', channel=2, note=74, velocity=100, time=64),
    Message('note_off', channel=2, note=74, velocity=100, time=128),
    Message('note_on', channel=2, note=74, velocity=100, time=64),
    Message('note_off', channel=2, note=74, velocity=100, time=96),
    Message('note_on', channel=2, note=76, velocity=100, time=0),
    Message('note_off', channel=2, note=76, velocity=100, time=302),
    Message('note_on', channel=2, note=76, velocity=100, time=82),
    Message('note_off', channel=2, note=76, velocity=100, time=96),
    Message('note_on', channel=2, note=78, velocity=100, time=0),
    Message('note_off', channel=2, note=78, velocity=100, time=192),
    Message('note_on', channel=2, note=78, velocity=100, time=0),
    Message('note_off', channel=2, note=78, velocity=100, time=64),
    Message('note_on', channel=2, note=76, velocity=100, time=32),
    Message('note_off', channel=2, note=76, velocity=100, time=302),
    Message('note_on', channel=2, note=76, velocity=100, time=82),
    Message('note_off', channel=2, note=76, velocity=100, time=64),
    Message('note_on', channel=2, note=74, velocity=100, time=32),
    Message('note_off', channel=2, note=74, velocity=100, time=64),
    Message('note_on', channel=2, note=74, velocity=100, time=32),
    Message('note_on', channel=2, note=76, velocity=100, time=24),
    Message('note_off', channel=2, note=74, velocity=100, time=40),
    Message('note_on', channel=2, note=74, velocity=100, time=512),
    Message('note_off', channel=2, note=74, velocity=100, time=64),
    Message('note_on', channel=2, note=76, velocity=100, time=32),
    Message('note_off', channel=2, note=76, velocity=100, time=78),
    Message('note_on', channel=2, note=81, velocity=100, time=18),
    Message('note_off', channel=2, note=76, velocity=100, time=46),
    Message('note_off', channel=2, note=81, velocity=100, time=18),
    Message('note_on', channel=2, note=78, velocity=100, time=32),
    Message('note_off', channel=2, note=78, velocity=100, time=64),
    Message('note_on', channel=2, note=76, velocity=100, time=32),
    Message('note_on', channel=2, note=74, velocity=100, time=96),
    Message('note_off', channel=2, note=76, velocity=100, time=32),
    Message('note_off', channel=2, note=74, velocity=100, time=32),
    Message('note_on', channel=2, note=73, velocity=100, time=32),
    Message('note_off', channel=2, note=73, velocity=100, time=64),
    Message('note_on', channel=2, note=74, velocity=100, time=32),
    Message('note_off', channel=2, note=74, velocity=100, time=64),
    Message('note_on', channel=2, note=71, velocity=100, time=32),
    Message('note_off', channel=2, note=71, velocity=100, time=128),
    Message('note_on', channel=2, note=73, velocity=100, time=64),
    Message('note_off', channel=2, note=73, velocity=100, time=32),
    Message('note_on', channel=2, note=74, velocity=100, time=16),
    Message('note_off', channel=2, note=74, velocity=100, time=32),
    Message('note_on', channel=2, note=71, velocity=100, time=16),
    Message('note_off', channel=2, note=71, velocity=100, time=626),
    Message('note_on', channel=2, note=73, velocity=100, time=46),
    Message('note_off', channel=2, note=73, velocity=100, time=64),
    Message('note_on', channel=2, note=74, velocity=100, time=32),
    Message('note_off', channel=2, note=74, velocity=100, time=64),
    Message('note_on', channel=2, note=73, velocity=100, time=32),
    Message('note_off', channel=2, note=73, velocity=100, time=64),
    Message('note_on', channel=2, note=71, velocity=100, time=32),
    Message('note_off', channel=2, note=71, velocity=100, time=64),
    Message('note_on', channel=2, note=69, velocity=100, time=32),
    Message('note_off', channel=2, note=69, velocity=100, time=64),
    Message('note_on', channel=2, note=66, velocity=100, time=32),
    Message('note_off', channel=2, note=66, velocity=100, time=64),
    Message('note_on', channel=2, note=69, velocity=100, time=32),
    Message('note_off', channel=2, note=69, velocity=100, time=64),
    Message('note_on', channel=2, note=71, velocity=100, time=32),
    Message('note_off', channel=2, note=71, velocity=100, time=64),
    Message('note_on', channel=2, note=66, velocity=100, time=32),
    Message('note_off', channel=2, note=66, velocity=100, time=356),
    Message('note_on', channel=2, note=66, velocity=100, time=124),
    Message('note_off', channel=2, note=66, velocity=100, time=64),
    Message('note_on', channel=2, note=67, velocity=100, time=32),
    Message('note_off', channel=2, note=67, velocity=100, time=64),
    Message('note_on', channel=2, note=71, velocity=100, time=32),
    Message('note_off', channel=2, note=71, velocity=100, time=64),
    Message('note_on', channel=2, note=73, velocity=100, time=32),
    Message('note_off', channel=2, note=73, velocity=100, time=64),
    Message('note_on', channel=2, note=74, velocity=100, time=32),
    Message('note_off', channel=2, note=74, velocity=100, time=64),
    Message('note_on', channel=2, note=78, velocity=100, time=32),
    Message('note_off', channel=2, note=78, velocity=100, time=64),
    Message('note_on', channel=2, note=83, velocity=100, time=32),
    Message('note_off', channel=2, note=83, velocity=100, time=64),
    Message('note_on', channel=2, note=85, velocity=100, time=32),
    Message('note_off', channel=2, note=85, velocity=100, time=64),
    Message('note_on', channel=2, note=83, velocity=100, time=32),
    Message('note_off', channel=2, note=83, velocity=100, time=64),
    Message('note_on', channel=2, note=85, velocity=100, time=32),
    Message('note_off', channel=2, note=85, velocity=100, time=64),
    Message('note_on', channel=2, note=85, velocity=100, time=32),
    Message('note_off', channel=2, note=85, velocity=100, time=64),
    Message('note_on', channel=2, note=83, velocity=100, time=32),
    Message('note_off', channel=2, note=83, velocity=100, time=32),
    Message('note_on', channel=2, note=85, velocity=100, time=16),
    Message('note_off', channel=2, note=85, velocity=100, time=32),
    Message('note_on', channel=2, note=85, velocity=100, time=16),
    Message('note_on', channel=2, note=86, velocity=100, time=22),
    Message('note_off', channel=2, note=85, velocity=100, time=42),
    Message('note_on', channel=2, note=86, velocity=100, time=416),
    Message('note_off', channel=2, note=86, velocity=100, time=64),
    Message('note_on', channel=2, note=85, velocity=100, time=32),
    Message('note_off', channel=2, note=85, velocity=100, time=64),
    Message('note_on', channel=2, note=83, velocity=100, time=32),
    Message('note_off', channel=2, note=83, velocity=100, time=64),
    Message('note_off', channel=2, note=86, velocity=100, time=2),
    Message('note_on', channel=2, note=85, velocity=100, time=30),
    Message('note_on', channel=2, note=83, velocity=100, time=480),
    Message('note_off', channel=2, note=83, velocity=100, time=64),
    Message('note_off', channel=2, note=85, velocity=100, time=32),
    Message('note_on', channel=2, note=83, velocity=100, time=0),
    Message('note_off', channel=2, note=83, velocity=100, time=64),
    Message('note_on', channel=2, note=85, velocity=100, time=32),
    Message('note_off', channel=2, note=85, velocity=100, time=64),
    Message('note_on', channel=2, note=79, velocity=100, time=32),
    Message('note_off', channel=2, note=79, velocity=100, time=288),
    Message('note_on', channel=2, note=79, velocity=100, time=0),
    Message('note_off', channel=2, note=79, velocity=100, time=64),
    Message('note_on', channel=2, note=79, velocity=100, time=32),
    Message('note_off', channel=2, note=79, velocity=100, time=64),
    Message('note_on', channel=2, note=90, velocity=100, time=32),
    Message('note_off', channel=2, note=90, velocity=100, time=64),
    Message('note_on', channel=2, note=90, velocity=100, time=32),
    Message('note_off', channel=2, note=90, velocity=100, time=64),
    Message('note_on', channel=2, note=91, velocity=100, time=32),
    Message('note_off', channel=2, note=91, velocity=100, time=64),
    Message('note_on', channel=2, note=90, velocity=100, time=32),
    Message('note_off', channel=2, note=90, velocity=100, time=64),
    Message('note_on', channel=2, note=86, velocity=100, time=32),
    Message('note_off', channel=2, note=86, velocity=100, time=64),
    Message('note_on', channel=2, note=90, velocity=100, time=32),
    Message('note_off', channel=2, note=90, velocity=100, time=64),
    Message('note_on', channel=2, note=86, velocity=100, time=32),
    Message('note_off', channel=2, note=86, velocity=100, time=32),
    Message('note_on', channel=2, note=90, velocity=100, time=16),
    Message('note_off', channel=2, note=90, velocity=100, time=32),
    Message('note_on', channel=2, note=86, velocity=100, time=16),
    Message('note_off', channel=2, note=86, velocity=100, time=64),
    Message('note_on', channel=2, note=85, velocity=100, time=32),
    Message('note_off', channel=2, note=85, velocity=100, time=64),
    Message('note_on', channel=2, note=86, velocity=100, time=32),
    Message('note_off', channel=2, note=86, velocity=100, time=64),
    Message('note_on', channel=2, note=85, velocity=100, time=32),
    Message('note_off', channel=2, note=85, velocity=100, time=64),
    Message('note_on', channel=2, note=83, velocity=100, time=32),
    Message('note_off', channel=2, note=83, velocity=100, time=64),
    Message('note_on', channel=2, note=78, velocity=100, time=32),
    Message('note_off', channel=2, note=78, velocity=100, time=64),
    Message('note_on', channel=2, note=76, velocity=100, time=32),
    Message('note_off', channel=2, note=76, velocity=100, time=64),
    Message('note_on', channel=2, note=78, velocity=100, time=32),
    Message('note_off', channel=2, note=78, velocity=100, time=64),
    Message('note_on', channel=2, note=76, velocity=100, time=32),
    Message('note_off', channel=2, note=76, velocity=100, time=128),
    Message('note_on', channel=2, note=76, velocity=100, time=64),
    Message('note_on', channel=2, note=78, velocity=100, time=24),
    Message('note_off', channel=2, note=76, velocity=100, time=8),
    Message('note_on', channel=2, note=76, velocity=100, time=112),
    Message('note_off', channel=2, note=78, velocity=100, time=12),
    Message('note_on', channel=2, note=74, velocity=100, time=36),
    Message('note_off', channel=2, note=76, velocity=100, time=16),
    Message('note_off', channel=2, note=74, velocity=100, time=48),
    Message('note_on', channel=2, note=73, velocity=100, time=32),
    Message('note_off', channel=2, note=73, velocity=100, time=256),
    Message('note_on', channel=2, note=71, velocity=100, time=128),
    Message('note_off', channel=2, note=71, velocity=100, time=128),
    Message('note_on', channel=2, note=90, velocity=100, time=64),
    Message('note_off', channel=2, note=90, velocity=100, time=192),
    Message('note_on', channel=2, note=88, velocity=100, time=0),
    Message('note_off', channel=2, note=88, velocity=100, time=32),
    Message('note_on', channel=2, note=91, velocity=100, time=0),
    Message('note_off', channel=2, note=91, velocity=100, time=32),
    Message('note_on', channel=2, note=88, velocity=100, time=0),
    Message('note_off', channel=2, note=88, velocity=100, time=32),
    Message('note_on', channel=2, note=86, velocity=100, time=0),
    Message('note_off', channel=2, note=86, velocity=100, time=96),
    Message('note_on', channel=2, note=83, velocity=100, time=0),
    Message('note_off', channel=2, note=83, velocity=100, time=64),
    Message('note_on', channel=2, note=78, velocity=100, time=32),
    Message('note_off', channel=2, note=78, velocity=100, time=64),
    Message('note_on', channel=2, note=83, velocity=100, time=32),
    Message('note_off', channel=2, note=83, velocity=100, time=64),
    Message('note_on', channel=2, note=85, velocity=100, time=32),
    Message('note_off', channel=2, note=85, velocity=100, time=64),
    Message('note_on', channel=2, note=86, velocity=100, time=32),
    Message('note_off', channel=2, note=86, velocity=100, time=64),
    Message('note_on', channel=2, note=95, velocity=100, time=32),
    Message('note_off', channel=2, note=95, velocity=100, time=64),
    Message('note_on', channel=2, note=90, velocity=100, time=32),
    Message('note_off', channel=2, note=90, velocity=100, time=64),
    Message('note_on', channel=2, note=86, velocity=100, time=32),
    Message('note_off', channel=2, note=86, velocity=100, time=64),
    Message('note_on', channel=2, note=85, velocity=100, time=32),
    Message('note_off', channel=2, note=85, velocity=100, time=64),
    Message('note_on', channel=2, note=83, velocity=100, time=32),
    Message('note_off', channel=2, note=83, velocity=100, time=64),
    Message('note_on', channel=2, note=85, velocity=100, time=32),
    Message('note_off', channel=2, note=85, velocity=100, time=64),
    Message('note_on', channel=2, note=86, velocity=100, time=32),
    Message('note_off', channel=2, note=86, velocity=100, time=64),
    Message('note_on', channel=2, note=90, velocity=100, time=32),
    Message('note_off', channel=2, note=90, velocity=100, time=64),
    Message('note_on', channel=2, note=95, velocity=100, time=32),
    Message('note_off', channel=2, note=95, velocity=100, time=64),
    Message('note_on', channel=2, note=91, velocity=100, time=32),
    Message('note_off', channel=2, note=91, velocity=100, time=64),
    Message('note_on', channel=2, note=88, velocity=100, time=32),
    Message('note_off', channel=2, note=88, velocity=100, time=64),
    Message('note_on', channel=2, note=83, velocity=100, time=32),
    Message('note_off', channel=2, note=83, velocity=100, time=64),
    Message('note_on', channel=2, note=79, velocity=100, time=32),
    Message('note_off', channel=2, note=79, velocity=100, time=64),
    Message('note_on', channel=2, note=83, velocity=100, time=32),
    Message('note_off', channel=2, note=83, velocity=100, time=64),
    Message('note_on', channel=2, note=90, velocity=100, time=32),
    Message('note_off', channel=2, note=90, velocity=100, time=64),
    Message('note_on', channel=2, note=93, velocity=100, time=0),
    Message('note_off', channel=2, note=93, velocity=100, time=64),
    Message('note_on', channel=2, note=97, velocity=100, time=0),
    Message('note_off', channel=2, note=97, velocity=100, time=64),
    Message('note_on', channel=2, note=98, velocity=100, time=0),
    Message('note_off', channel=2, note=98, velocity=100, time=192),
    Message('note_on', channel=2, note=95, velocity=100, time=96),
    Message('note_off', channel=2, note=95, velocity=100, time=256),
    Message('note_on', channel=2, note=95, velocity=100, time=128),
    Message('note_off', channel=2, note=95, velocity=100, time=192),
    Message('note_on', channel=2, note=92, velocity=100, time=0),
    Message('note_on', channel=2, note=95, velocity=100, time=22),
    Message('note_on', channel=2, note=92, velocity=100, time=26),
    Message('note_off', channel=2, note=92, velocity=100, time=2),
    Message('note_off', channel=2, note=92, velocity=100, time=30),
    Message('note_on', channel=2, note=88, velocity=100, time=16),
    Message('note_off', channel=2, note=95, velocity=100, time=46),
    Message('note_off', channel=2, note=88, velocity=100, time=18),
    Message('note_on', channel=2, note=83, velocity=100, time=32),
    Message('note_off', channel=2, note=83, velocity=100, time=64),
    Message('note_on', channel=2, note=86, velocity=100, time=32),
    Message('note_off', channel=2, note=86, velocity=100, time=64),
    Message('note_on', channel=2, note=83, velocity=100, time=0),
    Message('note_off', channel=2, note=83, velocity=100, time=64),
    Message('note_on', channel=2, note=86, velocity=100, time=0),
    Message('note_off', channel=2, note=86, velocity=100, time=64),
    Message('note_on', channel=2, note=90, velocity=100, time=0),
    Message('note_off', channel=2, note=90, velocity=100, time=64),
    Message('note_on', channel=2, note=95, velocity=100, time=0),
    Message('note_off', channel=2, note=95, velocity=100, time=64),
    Message('note_on', channel=2, note=98, velocity=100, time=0),
    Message('note_off', channel=2, note=98, velocity=100, time=64),
    Message('note_on', channel=2, note=95, velocity=100, time=0),
    Message('note_off', channel=2, note=95, velocity=100, time=64),
    Message('note_on', channel=2, note=90, velocity=100, time=0),
    Message('note_off', channel=2, note=90, velocity=100, time=64),
    Message('note_on', channel=2, note=86, velocity=100, time=0),
    Message('note_off', channel=2, note=86, velocity=100, time=64),
    Message('note_on', channel=2, note=83, velocity=100, time=0),
    Message('note_off', channel=2, note=83, velocity=100, time=64),
    Message('note_on', channel=2, note=86, velocity=100, time=0),
    Message('note_off', channel=2, note=86, velocity=100, time=64),
    Message('note_on', channel=2, note=83, velocity=100, time=0),
    Message('note_off', channel=2, note=83, velocity=100, time=316),
    Message('note_on', channel=2, note=78, velocity=100, time=36),
    Message('note_on', channel=2, note=78, velocity=100, time=192),
    Message('note_off', channel=2, note=78, velocity=100, time=32),
    Message('note_off', channel=2, note=78, velocity=100, time=6),
    Message('note_on', channel=2, note=78, velocity=100, time=10),
    Message('note_off', channel=2, note=78, velocity=100, time=32),
    Message('note_on', channel=2, note=79, velocity=100, time=16),
    Message('note_off', channel=2, note=79, velocity=100, time=64),
    Message('note_on', channel=2, note=79, velocity=100, time=32),
    Message('note_off', channel=2, note=79, velocity=100, time=32),
    Message('note_on', channel=2, note=79, velocity=100, time=16),
    Message('note_off', channel=2, note=79, velocity=100, time=32),
    Message('note_on', channel=2, note=82, velocity=100, time=16),
    Message('note_off', channel=2, note=82, velocity=100, time=64),
    Message('note_on', channel=2, note=82, velocity=100, time=32),
    Message('note_off', channel=2, note=82, velocity=100, time=32),
    Message('note_on', channel=2, note=82, velocity=100, time=16),
    Message('note_off', channel=2, note=82, velocity=100, time=32),
    Message('note_on', channel=2, note=74, velocity=100, time=16),
    Message('note_off', channel=2, note=74, velocity=100, time=64),
    Message('note_on', channel=2, note=74, velocity=100, time=32),
    Message('note_off', channel=2, note=74, velocity=100, time=32),
    Message('note_on', channel=2, note=74, velocity=100, time=16),
    Message('note_off', channel=2, note=74, velocity=100, time=32),
    Message('note_on', channel=2, note=76, velocity=100, time=16),
    Message('note_off', channel=2, note=76, velocity=100, time=64),
    Message('note_on', channel=2, note=76, velocity=100, time=32),
    Message('note_off', channel=2, note=76, velocity=100, time=32),
    Message('note_on', channel=2, note=76, velocity=100, time=16),
    Message('note_off', channel=2, note=76, velocity=100, time=32),
    Message('note_on', channel=2, note=73, velocity=100, time=16),
    Message('note_off', channel=2, note=73, velocity=100, time=256),
    Message('note_on', channel=2, note=74, velocity=120, time=224),
    Message('note_off', channel=2, note=74, velocity=120, time=456),
    Message('note_on', channel=2, note=71, velocity=100, time=216),
    Message('note_off', channel=2, note=71, velocity=100, time=64),
    Message('note_on', channel=2, note=66, velocity=100, time=32),
    Message('note_off', channel=2, note=66, velocity=100, time=456),
    Message('note_on', channel=2, note=69, velocity=100, time=24),
    Message('note_on', channel=2, note=71, velocity=100, time=20),
    Message('note_off', channel=2, note=69, velocity=100, time=30),
    Message('note_on', channel=2, note=74, velocity=100, time=46),
    Message('note_off', channel=2, note=71, velocity=100, time=44),
    Message('note_off', channel=2, note=74, velocity=100, time=20),
    Message('note_on', channel=2, note=76, velocity=100, time=32),
    Message('note_off', channel=2, note=76, velocity=100, time=64),
    Message('note_on', channel=2, note=78, velocity=100, time=32),
    Message('note_off', channel=2, note=78, velocity=100, time=518),
    Message('note_on', channel=2, note=76, velocity=100, time=154),
    Message('note_off', channel=2, note=76, velocity=100, time=64),
    Message('note_on', channel=2, note=74, velocity=100, time=32),
    Message('note_off', channel=2, note=74, velocity=100, time=384),
    Message('note_on', channel=2, note=71, velocity=100, time=96),
    Message('note_off', channel=2, note=71, velocity=100, time=64),
    Message('note_on', channel=2, note=74, velocity=100, time=32),
    Message('note_off', channel=2, note=74, velocity=100, time=64),
    Message('note_on', channel=2, note=71, velocity=100, time=32),
    Message('note_off', channel=2, note=71, velocity=100, time=64),
    Message('note_on', channel=2, note=74, velocity=100, time=32),
    Message('note_off', channel=2, note=74, velocity=100, time=256),
    Message('note_on', channel=2, note=74, velocity=100, time=32),
    Message('note_off', channel=2, note=74, velocity=100, time=64),
    Message('note_on', channel=2, note=71, velocity=100, time=32),
    Message('note_off', channel=2, note=71, velocity=100, time=64),
    Message('note_on', channel=2, note=76, velocity=100, time=32),
    Message('note_off', channel=2, note=76, velocity=100, time=64),
    Message('note_on', channel=2, note=74, velocity=100, time=32),
    Message('note_off', channel=2, note=74, velocity=100, time=64),
    Message('note_on', channel=2, note=71, velocity=100, time=32),
    Message('note_off', channel=2, note=71, velocity=100, time=64),
    Message('note_on', channel=2, note=69, velocity=100, time=32),
    Message('note_off', channel=2, note=69, velocity=100, time=64),
    Message('note_on', channel=2, note=74, velocity=100, time=32),
    Message('note_off', channel=2, note=74, velocity=100, time=64),
    Message('note_on', channel=2, note=71, velocity=100, time=32),
    Message('note_off', channel=2, note=71, velocity=100, time=64),
    Message('note_on', channel=2, note=69, velocity=100, time=32),
    Message('note_off', channel=2, note=69, velocity=100, time=64),
    Message('note_on', channel=2, note=64, velocity=100, time=32),
    Message('note_off', channel=2, note=64, velocity=100, time=128),
    Message('note_on', channel=2, note=64, velocity=100, time=64),
    Message('note_off', channel=2, note=64, velocity=100, time=192),
    Message('note_on', channel=2, note=66, velocity=100, time=96),
    Message('note_off', channel=2, note=66, velocity=100, time=64),
    Message('note_on', channel=2, note=70, velocity=100, time=0),
    Message('note_off', channel=2, note=70, velocity=100, time=64),
    Message('note_on', channel=2, note=73, velocity=100, time=0),
    Message('note_off', channel=2, note=73, velocity=100, time=64),
    Message('note_on', channel=2, note=76, velocity=100, time=0),
    Message('note_off', channel=2, note=76, velocity=100, time=64),
    Message('note_on', channel=2, note=78, velocity=100, time=0),
    Message('note_off', channel=2, note=78, velocity=100, time=64),
    Message('note_on', channel=2, note=82, velocity=100, time=0),
    Message('note_off', channel=2, note=82, velocity=100, time=64),
    Message('note_on', channel=2, note=85, velocity=100, time=0),
    Message('note_off', channel=2, note=85, velocity=100, time=64),
    Message('note_on', channel=2, note=82, velocity=100, time=0),
    Message('note_off', channel=2, note=82, velocity=100, time=64),
    Message('note_on', channel=2, note=78, velocity=100, time=0),
    Message('note_off', channel=2, note=78, velocity=100, time=64),
    Message('note_on', channel=2, note=76, velocity=100, time=0),
    Message('note_off', channel=2, note=76, velocity=100, time=64),
    Message('note_on', channel=2, note=74, velocity=100, time=0),
    Message('note_off', channel=2, note=74, velocity=100, time=64),
    Message('note_on', channel=2, note=71, velocity=100, time=0),
    Message('note_off', channel=2, note=71, velocity=100, time=64),
    Message('note_on', channel=2, note=69, velocity=100, time=0),
    Message('note_off', channel=2, note=69, velocity=100, time=64),
    Message('note_on', channel=2, note=73, velocity=100, time=0),
    Message('note_off', channel=2, note=73, velocity=100, time=64),
    Message('note_on', channel=2, note=76, velocity=100, time=0),
    Message('note_off', channel=2, note=76, velocity=100, time=64),
    Message('note_on', channel=2, note=81, velocity=100, time=0),
    Message('note_off', channel=2, note=81, velocity=100, time=32),
    Message('note_on', channel=2, note=85, velocity=100, time=16),
    Message('note_off', channel=2, note=85, velocity=100, time=32),
    Message('note_on', channel=2, note=88, velocity=100, time=16),
    Message('note_off', channel=2, note=88, velocity=100, time=32),
    Message('note_on', channel=2, note=85, velocity=100, time=16),
    Message('note_off', channel=2, note=85, velocity=100, time=32),
    Message('note_on', channel=2, note=81, velocity=100, time=16),
    Message('note_off', channel=2, note=81, velocity=100, time=32),
    Message('note_on', channel=2, note=79, velocity=100, time=16),
    Message('note_off', channel=2, note=79, velocity=100, time=32),
    Message('note_on', channel=2, note=81, velocity=100, time=16),
    Message('note_off', channel=2, note=81, velocity=100, time=32),
    Message('note_on', channel=2, note=85, velocity=100, time=16),
    Message('note_off', channel=2, note=85, velocity=100, time=32),
    Message('note_on', channel=2, note=81, velocity=100, time=16),
    Message('note_off', channel=2, note=81, velocity=100, time=64),
    Message('note_on', channel=2, note=90, velocity=100, time=32),
    Message('note_off', channel=2, note=90, velocity=100, time=128),
    Message('note_on', channel=2, note=86, velocity=100, time=16),
    Message('note_off', channel=2, note=86, velocity=100, time=32),
    Message('note_on', channel=2, note=83, velocity=100, time=16),
    Message('note_off', channel=2, note=83, velocity=100, time=32),
    Message('note_on', channel=2, note=86, velocity=100, time=16),
    Message('note_off', channel=2, note=86, velocity=100, time=32),
    Message('note_on', channel=2, note=90, velocity=100, time=16),
    Message('note_off', channel=2, note=90, velocity=100, time=32),
    Message('note_on', channel=2, note=86, velocity=100, time=16),
    Message('note_off', channel=2, note=86, velocity=100, time=32),
    Message('note_on', channel=2, note=90, velocity=100, time=16),
    Message('note_off', channel=2, note=90, velocity=100, time=32),
    Message('note_on', channel=2, note=86, velocity=100, time=16),
    Message('note_off', channel=2, note=86, velocity=100, time=32),
    Message('note_on', channel=2, note=83, velocity=100, time=16),
    Message('note_off', channel=2, note=83, velocity=100, time=32),
    Message('note_on', channel=2, note=86, velocity=100, time=16),
    Message('note_off', channel=2, note=86, velocity=100, time=32),
    Message('note_on', channel=2, note=90, velocity=100, time=16),
    Message('note_off', channel=2, note=90, velocity=100, time=32),
    Message('note_on', channel=2, note=86, velocity=100, time=16),
    Message('note_off', channel=2, note=86, velocity=100, time=32),
    Message('note_on', channel=2, note=90, velocity=100, time=16),
    Message('note_off', channel=2, note=90, velocity=100, time=32),
    Message('note_on', channel=2, note=86, velocity=100, time=16),
    Message('note_off', channel=2, note=86, velocity=100, time=32),
    Message('note_on', channel=2, note=83, velocity=100, time=16),
    Message('note_off', channel=2, note=83, velocity=100, time=32),
    Message('note_on', channel=2, note=86, velocity=100, time=16),
    Message('note_off', channel=2, note=86, velocity=100, time=32),
    Message('note_on', channel=2, note=91, velocity=100, time=16),
    Message('note_off', channel=2, note=91, velocity=100, time=32),
    Message('note_on', channel=2, note=86, velocity=100, time=16),
    Message('note_off', channel=2, note=86, velocity=100, time=32),
    Message('note_on', channel=2, note=83, velocity=100, time=16),
    Message('note_off', channel=2, note=83, velocity=100, time=32),
    Message('note_on', channel=2, note=86, velocity=100, time=16),
    Message('note_off', channel=2, note=86, velocity=100, time=32),
    Message('note_on', channel=2, note=90, velocity=100, time=16),
    Message('note_off', channel=2, note=90, velocity=100, time=32),
    Message('note_on', channel=2, note=86, velocity=100, time=16),
    Message('note_off', channel=2, note=86, velocity=100, time=32),
    Message('note_on', channel=2, note=83, velocity=100, time=16),
    Message('note_off', channel=2, note=83, velocity=100, time=32),
    Message('note_on', channel=2, note=86, velocity=100, time=16),
    Message('note_off', channel=2, note=86, velocity=100, time=32),
    Message('note_on', channel=2, note=91, velocity=100, time=16),
    Message('note_off', channel=2, note=91, velocity=100, time=32),
    Message('note_on', channel=2, note=86, velocity=100, time=16),
    Message('note_off', channel=2, note=86, velocity=100, time=32),
    Message('note_on', channel=2, note=83, velocity=100, time=16),
    Message('note_off', channel=2, note=83, velocity=100, time=32),
    Message('note_on', channel=2, note=86, velocity=100, time=16),
    Message('note_off', channel=2, note=86, velocity=100, time=32),
    Message('note_on', channel=2, note=90, velocity=100, time=16),
    Message('note_off', channel=2, note=90, velocity=100, time=32),
    Message('note_on', channel=2, note=86, velocity=100, time=16),
    Message('note_off', channel=2, note=86, velocity=100, time=32),
    Message('note_on', channel=2, note=83, velocity=100, time=16),
    Message('note_off', channel=2, note=83, velocity=100, time=32),
    Message('note_on', channel=2, note=86, velocity=100, time=16),
    Message('note_off', channel=2, note=86, velocity=100, time=32),
    Message('note_on', channel=2, note=91, velocity=100, time=16),
    Message('note_off', channel=2, note=91, velocity=100, time=32),
    Message('note_on', channel=2, note=86, velocity=100, time=16),
    Message('note_off', channel=2, note=86, velocity=100, time=32),
    Message('note_on', channel=2, note=83, velocity=100, time=16),
    Message('note_off', channel=2, note=83, velocity=100, time=32),
    Message('note_on', channel=2, note=86, velocity=100, time=16),
    Message('note_off', channel=2, note=86, velocity=100, time=32),
    Message('note_on', channel=2, note=91, velocity=100, time=16),
    Message('note_off', channel=2, note=91, velocity=100, time=32),
    Message('note_on', channel=2, note=86, velocity=100, time=16),
    Message('note_off', channel=2, note=86, velocity=100, time=32),
    Message('note_on', channel=2, note=91, velocity=100, time=16),
    Message('note_off', channel=2, note=91, velocity=100, time=32),
    Message('note_on', channel=2, note=86, velocity=100, time=16),
    Message('note_off', channel=2, note=86, velocity=100, time=32),
    Message('note_on', channel=2, note=83, velocity=100, time=16),
    Message('note_off', channel=2, note=83, velocity=100, time=32),
    Message('note_on', channel=2, note=86, velocity=100, time=16),
    Message('note_off', channel=2, note=86, velocity=100, time=32),
    Message('note_on', channel=2, note=91, velocity=100, time=16),
    Message('note_off', channel=2, note=91, velocity=100, time=32),
    Message('note_on', channel=2, note=86, velocity=100, time=16),
    Message('note_off', channel=2, note=86, velocity=100, time=32),
    Message('note_on', channel=2, note=91, velocity=100, time=16),
    Message('note_off', channel=2, note=91, velocity=100, time=32),
    Message('note_on', channel=2, note=86, velocity=100, time=16),
    Message('note_off', channel=2, note=86, velocity=100, time=32),
    Message('note_on', channel=2, note=83, velocity=100, time=16),
    Message('note_off', channel=2, note=83, velocity=100, time=32),
    Message('note_on', channel=2, note=86, velocity=100, time=16),
    Message('note_off', channel=2, note=86, velocity=100, time=32),
    Message('note_on', channel=2, note=93, velocity=100, time=16),
    Message('note_off', channel=2, note=93, velocity=100, time=32),
    Message('note_on', channel=2, note=86, velocity=100, time=16),
    Message('note_off', channel=2, note=86, velocity=100, time=32),
    Message('note_on', channel=2, note=83, velocity=100, time=16),
    Message('note_off', channel=2, note=83, velocity=100, time=32),
    Message('note_on', channel=2, note=86, velocity=100, time=16),
    Message('note_off', channel=2, note=86, velocity=100, time=32),
    Message('note_on', channel=2, note=91, velocity=100, time=16),
    Message('note_off', channel=2, note=91, velocity=100, time=32),
    Message('note_on', channel=2, note=86, velocity=100, time=16),
    Message('note_off', channel=2, note=86, velocity=100, time=32),
    Message('note_on', channel=2, note=83, velocity=100, time=16),
    Message('note_off', channel=2, note=83, velocity=100, time=32),
    Message('note_on', channel=2, note=86, velocity=100, time=16),
    Message('note_off', channel=2, note=86, velocity=100, time=32),
    Message('note_on', channel=2, note=93, velocity=100, time=16),
    Message('note_off', channel=2, note=93, velocity=100, time=32),
    Message('note_on', channel=2, note=86, velocity=100, time=16),
    Message('note_off', channel=2, note=86, velocity=100, time=32),
    Message('note_on', channel=2, note=83, velocity=100, time=16),
    Message('note_off', channel=2, note=83, velocity=100, time=32),
    Message('note_on', channel=2, note=86, velocity=100, time=16),
    Message('note_off', channel=2, note=86, velocity=100, time=32),
    Message('note_on', channel=2, note=91, velocity=100, time=16),
    Message('note_off', channel=2, note=91, velocity=100, time=32),
    Message('note_on', channel=2, note=86, velocity=100, time=16),
    Message('note_off', channel=2, note=86, velocity=100, time=32),
    Message('note_on', channel=2, note=83, velocity=100, time=16),
    Message('note_off', channel=2, note=83, velocity=100, time=32),
    Message('note_on', channel=2, note=86, velocity=100, time=16),
    Message('note_off', channel=2, note=86, velocity=100, time=32),
    Message('note_on', channel=2, note=91, velocity=100, time=16),
    Message('note_off', channel=2, note=91, velocity=100, time=32),
    Message('note_on', channel=2, note=86, velocity=100, time=16),
    Message('note_off', channel=2, note=86, velocity=100, time=32),
    Message('note_on', channel=2, note=83, velocity=100, time=16),
    Message('note_off', channel=2, note=83, velocity=100, time=32),
    Message('note_on', channel=2, note=86, velocity=100, time=16),
    Message('note_off', channel=2, note=86, velocity=100, time=32),
    Message('note_on', channel=2, note=91, velocity=100, time=16),
    Message('note_off', channel=2, note=91, velocity=100, time=32),
    Message('note_on', channel=2, note=86, velocity=100, time=16),
    Message('note_off', channel=2, note=86, velocity=100, time=32),
    Message('note_on', channel=2, note=91, velocity=100, time=16),
    Message('note_off', channel=2, note=91, velocity=100, time=32),
    Message('note_on', channel=2, note=86, velocity=100, time=16),
    Message('note_off', channel=2, note=86, velocity=100, time=32),
    Message('note_on', channel=2, note=83, velocity=100, time=16),
    Message('note_off', channel=2, note=83, velocity=100, time=32),
    Message('note_on', channel=2, note=86, velocity=100, time=16),
    Message('note_off', channel=2, note=86, velocity=100, time=32),
    Message('note_on', channel=2, note=91, velocity=100, time=16),
    Message('note_off', channel=2, note=91, velocity=100, time=32),
    Message('note_on', channel=2, note=86, velocity=100, time=16),
    Message('note_off', channel=2, note=86, velocity=100, time=32),
    Message('note_on', channel=2, note=91, velocity=100, time=16),
    Message('note_off', channel=2, note=91, velocity=100, time=32),
    Message('note_on', channel=2, note=86, velocity=100, time=16),
    Message('note_off', channel=2, note=86, velocity=100, time=32),
    Message('note_on', channel=2, note=83, velocity=100, time=16),
    Message('note_off', channel=2, note=83, velocity=100, time=32),
    Message('note_on', channel=2, note=86, velocity=100, time=16),
    Message('note_off', channel=2, note=86, velocity=100, time=32),
    Message('note_on', channel=2, note=93, velocity=100, time=16),
    Message('note_off', channel=2, note=93, velocity=100, time=32),
    Message('note_on', channel=2, note=86, velocity=100, time=16),
    Message('note_off', channel=2, note=86, velocity=100, time=32),
    Message('note_on', channel=2, note=83, velocity=100, time=16),
    Message('note_off', channel=2, note=83, velocity=100, time=32),
    Message('note_on', channel=2, note=86, velocity=100, time=16),
    Message('note_off', channel=2, note=86, velocity=100, time=32),
    Message('note_on', channel=2, note=92, velocity=100, time=16),
    Message('note_off', channel=2, note=92, velocity=100, time=32),
    Message('note_on', channel=2, note=86, velocity=100, time=16),
    Message('note_off', channel=2, note=86, velocity=100, time=32),
    Message('note_on', channel=2, note=83, velocity=100, time=16),
    Message('note_off', channel=2, note=83, velocity=100, time=32),
    Message('note_on', channel=2, note=86, velocity=100, time=16),
    Message('note_off', channel=2, note=86, velocity=100, time=32),
    Message('note_on', channel=2, note=93, velocity=100, time=16),
    Message('note_off', channel=2, note=93, velocity=100, time=32),
    Message('note_on', channel=2, note=86, velocity=100, time=16),
    Message('note_off', channel=2, note=86, velocity=100, time=32),
    Message('note_on', channel=2, note=83, velocity=100, time=16),
    Message('note_off', channel=2, note=83, velocity=100, time=32),
    Message('note_on', channel=2, note=86, velocity=100, time=16),
    Message('note_off', channel=2, note=86, velocity=100, time=32),
    Message('note_on', channel=2, note=92, velocity=100, time=16),
    Message('note_off', channel=2, note=92, velocity=100, time=32),
    Message('note_on', channel=2, note=86, velocity=100, time=16),
    Message('note_off', channel=2, note=86, velocity=100, time=32),
    Message('note_on', channel=2, note=83, velocity=100, time=16),
    Message('note_off', channel=2, note=83, velocity=100, time=32),
    Message('note_on', channel=2, note=86, velocity=100, time=16),
    Message('note_off', channel=2, note=86, velocity=100, time=32),
    Message('note_on', channel=2, note=94, velocity=100, time=16),
    Message('note_off', channel=2, note=94, velocity=100, time=32),
    Message('note_on', channel=2, note=90, velocity=100, time=16),
    Message('note_off', channel=2, note=90, velocity=100, time=32),
    Message('note_on', channel=2, note=85, velocity=100, time=16),
    Message('note_off', channel=2, note=85, velocity=100, time=32),
    Message('note_on', channel=2, note=90, velocity=100, time=16),
    Message('note_off', channel=2, note=90, velocity=100, time=32),
    Message('note_on', channel=2, note=94, velocity=100, time=16),
    Message('note_off', channel=2, note=94, velocity=100, time=32),
    Message('note_on', channel=2, note=90, velocity=100, time=16),
    Message('note_off', channel=2, note=90, velocity=100, time=32),
    Message('note_on', channel=2, note=94, velocity=100, time=16),
    Message('note_off', channel=2, note=94, velocity=100, time=32),
    Message('note_on', channel=2, note=90, velocity=100, time=16),
    Message('note_off', channel=2, note=90, velocity=100, time=32),
    Message('note_on', channel=2, note=85, velocity=100, time=16),
    Message('note_off', channel=2, note=85, velocity=100, time=32),
    Message('note_on', channel=2, note=90, velocity=100, time=16),
    Message('note_off', channel=2, note=90, velocity=100, time=32),
    Message('note_on', channel=2, note=94, velocity=100, time=16),
    Message('note_off', channel=2, note=94, velocity=100, time=32),
    Message('note_on', channel=2, note=90, velocity=100, time=16),
    Message('note_off', channel=2, note=90, velocity=100, time=32),
    Message('note_on', channel=2, note=94, velocity=100, time=16),
    Message('note_off', channel=2, note=94, velocity=100, time=32),
    Message('note_on', channel=2, note=90, velocity=100, time=16),
    Message('note_off', channel=2, note=90, velocity=100, time=32),
    Message('note_on', channel=2, note=85, velocity=100, time=16),
    Message('note_off', channel=2, note=85, velocity=100, time=32),
    Message('note_on', channel=2, note=90, velocity=100, time=16),
    Message('note_off', channel=2, note=90, velocity=100, time=32),
    Message('note_on', channel=2, note=93, velocity=100, time=16),
    Message('note_off', channel=2, note=93, velocity=100, time=32),
    Message('note_on', channel=2, note=88, velocity=100, time=16),
    Message('note_off', channel=2, note=88, velocity=100, time=32),
    Message('note_on', channel=2, note=85, velocity=100, time=16),
    Message('note_off', channel=2, note=85, velocity=100, time=32),
    Message('note_on', channel=2, note=88, velocity=100, time=16),
    Message('note_off', channel=2, note=88, velocity=100, time=32),
    Message('note_on', channel=2, note=93, velocity=100, time=16),
    Message('note_off', channel=2, note=93, velocity=100, time=32),
    Message('note_on', channel=2, note=88, velocity=100, time=16),
    Message('note_off', channel=2, note=88, velocity=100, time=32),
    Message('note_on', channel=2, note=93, velocity=100, time=16),
    Message('note_off', channel=2, note=93, velocity=100, time=32),
    Message('note_on', channel=2, note=88, velocity=100, time=16),
    Message('note_off', channel=2, note=88, velocity=100, time=32),
    Message('note_on', channel=2, note=85, velocity=100, time=16),
    Message('note_off', channel=2, note=85, velocity=100, time=32),
    Message('note_on', channel=2, note=88, velocity=100, time=16),
    Message('note_off', channel=2, note=88, velocity=100, time=32),
    Message('note_on', channel=2, note=93, velocity=100, time=16),
    Message('note_off', channel=2, note=93, velocity=100, time=32),
    Message('note_on', channel=2, note=88, velocity=100, time=16),
    Message('note_off', channel=2, note=88, velocity=100, time=32),
    Message('note_on', channel=2, note=93, velocity=100, time=16),
    Message('note_off', channel=2, note=93, velocity=100, time=32),
    Message('note_on', channel=2, note=88, velocity=100, time=16),
    Message('note_off', channel=2, note=88, velocity=100, time=32),
    Message('note_on', channel=2, note=93, velocity=100, time=16),
    Message('note_on', channel=2, note=95, velocity=100, time=2),
    Message('note_off', channel=2, note=93, velocity=100, time=26),
    Message('note_off', channel=2, note=95, velocity=100, time=436),
    Message('note_on', channel=2, note=76, velocity=100, time=208),
    Message('note_off', channel=2, note=76, velocity=100, time=128),
    Message('note_on', channel=2, note=90, velocity=100, time=64),
    Message('note_off', channel=2, note=90, velocity=100, time=64),
    Message('note_on', channel=2, note=86, velocity=100, time=32),
    Message('note_off', channel=2, note=86, velocity=100, time=32),
    Message('note_on', channel=2, note=85, velocity=100, time=16),
    Message('note_off', channel=2, note=85, velocity=100, time=32),
    Message('note_on', channel=2, note=83, velocity=100, time=16),
    Message('note_off', channel=2, note=83, velocity=100, time=64),
    Message('note_on', channel=2, note=86, velocity=100, time=32),
    Message('note_off', channel=2, note=86, velocity=100, time=64),
    Message('note_on', channel=2, note=90, velocity=100, time=32),
    Message('note_off', channel=2, note=90, velocity=100, time=32),
    Message('note_on', channel=2, note=86, velocity=100, time=16),
    Message('note_off', channel=2, note=86, velocity=100, time=32),
    Message('note_on', channel=2, note=90, velocity=100, time=64),
    Message('note_off', channel=2, note=90, velocity=100, time=64),
    Message('note_on', channel=2, note=97, velocity=100, time=32),
    Message('note_off', channel=2, note=97, velocity=100, time=32),
    Message('note_on', channel=2, note=95, velocity=100, time=16),
    Message('note_off', channel=2, note=95, velocity=100, time=32),
    Message('note_on', channel=2, note=93, velocity=100, time=16),
    Message('note_off', channel=2, note=93, velocity=100, time=32),
    Message('note_on', channel=2, note=89, velocity=100, time=16),
    Message('note_off', channel=2, note=89, velocity=100, time=96),
    Message('note_on', channel=2, note=94, velocity=100, time=0),
    Message('note_off', channel=2, note=94, velocity=100, time=96),
    Message('note_on', channel=2, note=94, velocity=100, time=0),
    Message('note_off', channel=2, note=94, velocity=100, time=64),
    Message('note_on', channel=2, note=92, velocity=100, time=0),
    Message('note_off', channel=2, note=92, velocity=100, time=64),
    Message('note_on', channel=2, note=94, velocity=100, time=0),
    Message('note_off', channel=2, note=94, velocity=100, time=64),
    Message('note_on', channel=2, note=92, velocity=100, time=0),
    Message('note_off', channel=2, note=92, velocity=100, time=64),
    Message('note_on', channel=2, note=89, velocity=100, time=0),
    Message('note_off', channel=2, note=89, velocity=100, time=64),
    Message('note_on', channel=2, note=92, velocity=100, time=0),
    Message('note_off', channel=2, note=92, velocity=100, time=64),
    Message('note_on', channel=2, note=90, velocity=100, time=0),
    Message('note_off', channel=2, note=90, velocity=100, time=48),
    Message('note_on', channel=2, note=87, velocity=100, time=0),
    Message('note_off', channel=2, note=87, velocity=100, time=48),
    Message('note_on', channel=2, note=90, velocity=100, time=0),
    Message('note_off', channel=2, note=90, velocity=100, time=48),
    Message('note_on', channel=2, note=89, velocity=100, time=0),
    Message('note_off', channel=2, note=89, velocity=100, time=48),
    Message('note_on', channel=2, note=86, velocity=100, time=0),
    Message('note_off', channel=2, note=86, velocity=100, time=32),
    Message('note_on', channel=2, note=90, velocity=100, time=16),
    Message('note_off', channel=2, note=90, velocity=100, time=32),
    Message('note_on', channel=2, note=88, velocity=100, time=16),
    Message('note_off', channel=2, note=88, velocity=100, time=32),
    Message('note_on', channel=2, note=85, velocity=100, time=16),
    Message('note_off', channel=2, note=85, velocity=100, time=32),
    Message('note_on', channel=2, note=88, velocity=100, time=16),
    Message('note_off', channel=2, note=88, velocity=100, time=32),
    Message('note_on', channel=2, note=86, velocity=100, time=16),
    Message('note_off', channel=2, note=86, velocity=100, time=32),
    Message('note_on', channel=2, note=83, velocity=100, time=16),
    Message('note_off', channel=2, note=83, velocity=100, time=32),
    Message('note_on', channel=2, note=86, velocity=100, time=16),
    Message('note_off', channel=2, note=86, velocity=100, time=32),
    Message('note_on', channel=2, note=83, velocity=100, time=16),
    Message('note_off', channel=2, note=83, velocity=100, time=32),
    Message('note_on', channel=2, note=81, velocity=100, time=16),
    Message('note_off', channel=2, note=81, velocity=100, time=32),
    Message('note_on', channel=2, note=83, velocity=100, time=16),
    Message('note_off', channel=2, note=83, velocity=100, time=32),
    Message('note_on', channel=2, note=81, velocity=100, time=16),
    Message('note_off', channel=2, note=81, velocity=100, time=32),
    Message('note_on', channel=2, note=83, velocity=100, time=16),
    Message('note_on', channel=2, note=83, velocity=100, time=0),
    Message('note_off', channel=2, note=83, velocity=100, time=32),
    Message('note_off', channel=2, note=83, velocity=100, time=0),
    Message('note_on', channel=2, note=81, velocity=100, time=16),
    Message('note_off', channel=2, note=81, velocity=100, time=32),
    Message('note_on', channel=2, note=79, velocity=100, time=16),
    Message('note_off', channel=2, note=79, velocity=100, time=32),
    Message('note_on', channel=2, note=81, velocity=100, time=16),
    Message('note_off', channel=2, note=81, velocity=100, time=32),
    Message('note_on', channel=2, note=79, velocity=100, time=16),
    Message('note_off', channel=2, note=79, velocity=100, time=32),
    Message('note_on', channel=2, note=78, velocity=100, time=16),
    Message('note_off', channel=2, note=78, velocity=100, time=32),
    Message('note_on', channel=2, note=79, velocity=100, time=16),
    Message('note_off', channel=2, note=79, velocity=100, time=32),
    Message('note_on', channel=2, note=78, velocity=100, time=16),
    Message('note_off', channel=2, note=78, velocity=100, time=32),
    Message('note_on', channel=2, note=79, velocity=100, time=16),
    Message('note_off', channel=2, note=79, velocity=100, time=32),
    Message('note_on', channel=2, note=78, velocity=100, time=16),
    Message('note_off', channel=2, note=78, velocity=100, time=32),
    Message('note_on', channel=2, note=81, velocity=100, time=16),
    Message('note_off', channel=2, note=81, velocity=100, time=32),
    Message('note_on', channel=2, note=78, velocity=100, time=16),
    Message('note_off', channel=2, note=78, velocity=100, time=32),
    Message('note_on', channel=2, note=76, velocity=100, time=112),
    Message('note_off', channel=2, note=76, velocity=100, time=32),
    Message('note_on', channel=2, note=74, velocity=100, time=16),
    Message('note_off', channel=2, note=74, velocity=100, time=32),
    Message('note_on', channel=2, note=76, velocity=100, time=16),
    Message('note_off', channel=2, note=76, velocity=100, time=32),
    Message('note_on', channel=2, note=74, velocity=100, time=16),
    Message('note_off', channel=2, note=74, velocity=100, time=96),
    Message('note_on', channel=2, note=76, velocity=100, time=48),
    Message('note_on', channel=2, note=78, velocity=100, time=20),
    Message('note_off', channel=2, note=76, velocity=100, time=30),
    Message('note_on', channel=2, note=83, velocity=100, time=46),
    Message('note_off', channel=2, note=83, velocity=100, time=64),
    Message('note_off', channel=2, note=78, velocity=100, time=10),
    Message('note_on', channel=2, note=81, velocity=100, time=22),
    Message('note_off', channel=2, note=81, velocity=100, time=32),
    Message('note_on', channel=2, note=78, velocity=100, time=16),
    Message('note_off', channel=2, note=78, velocity=100, time=32),
    Message('note_on', channel=2, note=81, velocity=100, time=16),
    Message('note_on', channel=2, note=83, velocity=100, time=22),
    Message('note_off', channel=2, note=81, velocity=100, time=28),
    Message('note_on', channel=2, note=83, velocity=100, time=46),
    Message('note_off', channel=2, note=83, velocity=100, time=76),
    Message('note_off', channel=2, note=83, velocity=100, time=52),
    Message('note_on', channel=2, note=83, velocity=100, time=64),
    Message('note_off', channel=2, note=83, velocity=100, time=128),
    Message('note_on', channel=2, note=71, velocity=100, time=64),
    Message('note_off', channel=2, note=71, velocity=100, time=32),
    Message('note_on', channel=2, note=72, velocity=100, time=16),
    Message('note_off', channel=2, note=72, velocity=100, time=32),
    Message('note_on', channel=2, note=73, velocity=100, time=16),
    Message('note_off', channel=2, note=73, velocity=100, time=32),
    Message('note_on', channel=2, note=76, velocity=100, time=16),
    Message('note_off', channel=2, note=76, velocity=100, time=32),
    Message('note_on', channel=2, note=77, velocity=100, time=16),
    Message('note_off', channel=2, note=77, velocity=100, time=32),
    Message('note_on', channel=2, note=76, velocity=100, time=16),
    Message('note_off', channel=2, note=76, velocity=100, time=32),
    Message('note_on', channel=2, note=77, velocity=100, time=16),
    Message('note_off', channel=2, note=77, velocity=100, time=64),
    Message('note_on', channel=2, note=74, velocity=100, time=32),
    Message('note_off', channel=2, note=74, velocity=100, time=32),
    Message('note_on', channel=2, note=76, velocity=100, time=16),
    Message('note_off', channel=2, note=76, velocity=100, time=32),
    Message('note_on', channel=2, note=77, velocity=100, time=16),
    Message('note_off', channel=2, note=77, velocity=100, time=32),
    Message('note_on', channel=2, note=74, velocity=100, time=16),
    Message('note_off', channel=2, note=74, velocity=100, time=32),
    Message('note_on', channel=2, note=79, velocity=100, time=16),
    Message('note_off', channel=2, note=79, velocity=100, time=32),
    Message('note_on', channel=2, note=77, velocity=100, time=16),
    Message('note_off', channel=2, note=77, velocity=100, time=32),
    Message('note_on', channel=2, note=79, velocity=100, time=16),
    Message('note_off', channel=2, note=79, velocity=100, time=32),
    Message('note_on', channel=2, note=77, velocity=100, time=16),
    Message('note_off', channel=2, note=77, velocity=100, time=32),
    Message('note_on', channel=2, note=79, velocity=100, time=16),
    Message('note_off', channel=2, note=79, velocity=100, time=32),
    Message('note_on', channel=2, note=81, velocity=100, time=16),
    Message('note_off', channel=2, note=81, velocity=100, time=48),
    Message('note_on', channel=2, note=83, velocity=100, time=96),
    Message('note_off', channel=2, note=83, velocity=100, time=32),
    Message('note_on', channel=2, note=82, velocity=100, time=16),
    Message('note_off', channel=2, note=82, velocity=100, time=32),
    Message('note_on', channel=2, note=81, velocity=100, time=16),
    Message('note_off', channel=2, note=81, velocity=100, time=32),
    Message('note_on', channel=2, note=82, velocity=100, time=16),
    Message('note_off', channel=2, note=82, velocity=100, time=32),
    Message('note_on', channel=2, note=83, velocity=100, time=16),
    Message('note_off', channel=2, note=83, velocity=100, time=32),
    Message('note_on', channel=2, note=82, velocity=100, time=16),
    Message('note_off', channel=2, note=82, velocity=100, time=32),
    Message('note_on', channel=2, note=81, velocity=100, time=16),
    Message('note_off', channel=2, note=81, velocity=100, time=32),
    Message('note_on', channel=2, note=82, velocity=100, time=16),
    Message('note_off', channel=2, note=82, velocity=100, time=32),
    Message('note_on', channel=2, note=83, velocity=100, time=16),
    Message('note_off', channel=2, note=83, velocity=100, time=32),
    Message('note_on', channel=2, note=82, velocity=100, time=16),
    Message('note_off', channel=2, note=82, velocity=100, time=32),
    Message('note_on', channel=2, note=83, velocity=100, time=16),
    Message('note_off', channel=2, note=83, velocity=100, time=384),
    Message('note_on', channel=2, note=66, velocity=100, time=11904),
    Message('note_off', channel=2, note=66, velocity=100, time=192),
    Message('note_on', channel=2, note=59, velocity=100, time=0),
    Message('note_off', channel=2, note=59, velocity=100, time=64),
    Message('note_on', channel=2, note=61, velocity=100, time=32),
    Message('note_off', channel=2, note=61, velocity=100, time=64),
    Message('note_on', channel=2, note=64, velocity=100, time=32),
    Message('note_off', channel=2, note=64, velocity=100, time=64),
    Message('note_on', channel=2, note=66, velocity=100, time=32),
    Message('note_off', channel=2, note=66, velocity=100, time=64),
    Message('note_on', channel=2, note=69, velocity=100, time=32),
    Message('note_off', channel=2, note=69, velocity=100, time=64),
    Message('note_on', channel=2, note=66, velocity=100, time=32),
    Message('note_off', channel=2, note=66, velocity=100, time=64),
    Message('note_on', channel=2, note=64, velocity=100, time=32),
    Message('note_off', channel=2, note=64, velocity=100, time=64),
    Message('note_on', channel=2, note=66, velocity=100, time=32),
    Message('note_off', channel=2, note=66, velocity=100, time=128),
    Message('note_on', channel=2, note=59, velocity=100, time=64),
    Message('note_off', channel=2, note=59, velocity=100, time=64),
    Message('note_on', channel=2, note=61, velocity=100, time=32),
    Message('note_off', channel=2, note=61, velocity=100, time=64),
    Message('note_on', channel=2, note=64, velocity=100, time=32),
    Message('note_off', channel=2, note=64, velocity=100, time=64),
    Message('note_on', channel=2, note=66, velocity=100, time=32),
    Message('note_off', channel=2, note=66, velocity=100, time=64),
    Message('note_on', channel=2, note=69, velocity=100, time=32),
    Message('note_off', channel=2, note=69, velocity=100, time=64),
    Message('note_on', channel=2, note=66, velocity=100, time=32),
    Message('note_off', channel=2, note=66, velocity=100, time=192),
    Message('note_on', channel=2, note=59, velocity=100, time=0),
    Message('note_off', channel=2, note=59, velocity=100, time=64),
    Message('note_on', channel=2, note=61, velocity=100, time=32),
    Message('note_off', channel=2, note=61, velocity=100, time=64),
    Message('note_on', channel=2, note=64, velocity=100, time=32),
    Message('note_off', channel=2, note=64, velocity=100, time=64),
    Message('note_on', channel=2, note=66, velocity=100, time=32),
    Message('note_off', channel=2, note=66, velocity=100, time=64),
    Message('note_on', channel=2, note=69, velocity=100, time=32),
    Message('note_off', channel=2, note=69, velocity=100, time=64),
    Message('note_on', channel=2, note=66, velocity=100, time=32),
    Message('note_off', channel=2, note=66, velocity=100, time=64),
    Message('note_on', channel=2, note=64, velocity=100, time=32),
    Message('note_off', channel=2, note=64, velocity=100, time=64),
    Message('note_on', channel=2, note=66, velocity=100, time=32),
    Message('note_off', channel=2, note=66, velocity=100, time=128),
    Message('note_on', channel=2, note=59, velocity=100, time=64),
    Message('note_off', channel=2, note=59, velocity=100, time=64),
    Message('note_on', channel=2, note=61, velocity=100, time=32),
    Message('note_off', channel=2, note=61, velocity=100, time=64),
    Message('note_on', channel=2, note=64, velocity=100, time=32),
    Message('note_off', channel=2, note=64, velocity=100, time=64),
    Message('note_on', channel=2, note=66, velocity=100, time=32),
    Message('note_off', channel=2, note=66, velocity=100, time=64),
    Message('note_on', channel=2, note=69, velocity=100, time=32),
    Message('note_off', channel=2, note=69, velocity=100, time=64),
    Message('note_on', channel=2, note=66, velocity=100, time=32),
    Message('note_on', channel=2, note=59, velocity=100, time=192),
    Message('note_off', channel=2, note=66, velocity=100, time=2),
    Message('note_off', channel=2, note=59, velocity=100, time=62),
    Message('note_on', channel=2, note=61, velocity=100, time=32),
    Message('note_off', channel=2, note=61, velocity=100, time=64),
    Message('note_on', channel=2, note=64, velocity=100, time=32),
    Message('note_off', channel=2, note=64, velocity=100, time=64),
    Message('note_on', channel=2, note=66, velocity=100, time=32),
    Message('note_off', channel=2, note=66, velocity=100, time=64),
    Message('note_on', channel=2, note=69, velocity=100, time=32),
    Message('note_off', channel=2, note=69, velocity=100, time=64),
    Message('note_on', channel=2, note=66, velocity=100, time=32),
    Message('note_off', channel=2, note=66, velocity=100, time=64),
    Message('note_on', channel=2, note=64, velocity=100, time=32),
    Message('note_off', channel=2, note=64, velocity=100, time=64),
    Message('note_on', channel=2, note=66, velocity=100, time=32),
    Message('note_off', channel=2, note=66, velocity=100, time=128),
    Message('note_on', channel=2, note=59, velocity=100, time=64),
    Message('note_off', channel=2, note=59, velocity=100, time=64),
    Message('note_on', channel=2, note=61, velocity=100, time=32),
    Message('note_off', channel=2, note=61, velocity=100, time=64),
    Message('note_on', channel=2, note=64, velocity=100, time=32),
    Message('note_off', channel=2, note=64, velocity=100, time=64),
    Message('note_on', channel=2, note=66, velocity=100, time=32),
    Message('note_off', channel=2, note=66, velocity=100, time=64),
    Message('note_on', channel=2, note=69, velocity=100, time=32),
    Message('note_off', channel=2, note=69, velocity=100, time=64),
    Message('note_on', channel=2, note=66, velocity=100, time=32),
    Message('note_on', channel=2, note=59, velocity=100, time=192),
    Message('note_off', channel=2, note=66, velocity=100, time=2),
    Message('note_off', channel=2, note=59, velocity=100, time=62),
    Message('note_on', channel=2, note=61, velocity=100, time=32),
    Message('note_off', channel=2, note=61, velocity=100, time=64),
    Message('note_on', channel=2, note=64, velocity=100, time=32),
    Message('note_off', channel=2, note=64, velocity=100, time=64),
    Message('note_on', channel=2, note=66, velocity=100, time=32),
    Message('note_off', channel=2, note=66, velocity=100, time=64),
    Message('note_on', channel=2, note=69, velocity=100, time=32),
    Message('note_off', channel=2, note=69, velocity=100, time=64),
    Message('note_on', channel=2, note=66, velocity=100, time=32),
    Message('note_off', channel=2, note=66, velocity=100, time=64),
    Message('note_on', channel=2, note=64, velocity=100, time=32),
    Message('note_off', channel=2, note=64, velocity=100, time=64),
    Message('note_on', channel=2, note=66, velocity=100, time=32),
    Message('note_off', channel=2, note=66, velocity=100, time=128),
    Message('note_on', channel=2, note=59, velocity=100, time=64),
    Message('note_off', channel=2, note=59, velocity=100, time=64),
    Message('note_on', channel=2, note=61, velocity=100, time=32),
    Message('note_off', channel=2, note=61, velocity=100, time=64),
    Message('note_on', channel=2, note=64, velocity=100, time=32),
    Message('note_off', channel=2, note=64, velocity=100, time=64),
    Message('note_on', channel=2, note=66, velocity=100, time=32),
    Message('note_off', channel=2, note=66, velocity=100, time=64),
    Message('note_on', channel=2, note=69, velocity=100, time=32),
    Message('note_off', channel=2, note=69, velocity=100, time=64),
    Message('note_on', channel=2, note=66, velocity=100, time=32),
    Message('note_off', channel=2, note=66, velocity=100, time=194),
    MetaMessage('end_of_track', time=500)]),
  MidiTrack([
    MetaMessage('track_name', name='Guitar 2: Channel 3', time=0),
    MetaMessage('device_name', name='None', time=0),
    Message('note_on', channel=3, note=59, velocity=127, time=0),
    Message('note_on', channel=3, note=66, velocity=127, time=0),
    Message('note_on', channel=3, note=71, velocity=127, time=0),
    Message('control_change', channel=3, control=7, value=127, time=0),
    Message('control_change', channel=3, control=10, value=60, time=0),
    Message('program_change', channel=3, program=30, time=0),
    Message('note_off', channel=3, note=59, velocity=127, time=128),
    Message('note_off', channel=3, note=66, velocity=127, time=0),
    Message('note_off', channel=3, note=71, velocity=127, time=0),
    Message('note_on', channel=3, note=59, velocity=127, time=1120),
    Message('note_on', channel=3, note=66, velocity=127, time=0),
    Message('note_on', channel=3, note=71, velocity=127, time=0),
    Message('note_off', channel=3, note=59, velocity=127, time=64),
    Message('note_off', channel=3, note=66, velocity=127, time=0),
    Message('note_off', channel=3, note=71, velocity=127, time=0),
    Message('note_on', channel=3, note=66, velocity=127, time=32),
    Message('note_on', channel=3, note=71, velocity=127, time=0),
    Message('note_on', channel=3, note=59, velocity=127, time=0),
    Message('note_off', channel=3, note=66, velocity=127, time=64),
    Message('note_off', channel=3, note=71, velocity=127, time=0),
    Message('note_off', channel=3, note=59, velocity=127, time=0),
    Message('note_on', channel=3, note=66, velocity=127, time=32),
    Message('note_on', channel=3, note=71, velocity=127, time=0),
    Message('note_on', channel=3, note=59, velocity=127, time=0),
    Message('note_off', channel=3, note=66, velocity=127, time=236),
    Message('note_off', channel=3, note=71, velocity=127, time=0),
    Message('note_off', channel=3, note=59, velocity=127, time=0),
    Message('note_on', channel=3, note=71, velocity=127, time=1300),
    Message('note_on', channel=3, note=66, velocity=127, time=0),
    Message('note_on', channel=3, note=59, velocity=127, time=0),
    Message('note_off', channel=3, note=71, velocity=127, time=236),
    Message('note_off', channel=3, note=66, velocity=127, time=0),
    Message('note_off', channel=3, note=59, velocity=127, time=0),
    Message('note_on', channel=3, note=59, velocity=127, time=1108),
    Message('note_on', channel=3, note=66, velocity=127, time=0),
    Message('note_on', channel=3, note=71, velocity=127, time=0),
    Message('note_off', channel=3, note=59, velocity=127, time=64),
    Message('note_off', channel=3, note=66, velocity=127, time=0),
    Message('note_off', channel=3, note=71, velocity=127, time=0),
    Message('note_on', channel=3, note=66, velocity=127, time=32),
    Message('note_on', channel=3, note=71, velocity=127, time=0),
    Message('note_on', channel=3, note=59, velocity=127, time=0),
    Message('note_off', channel=3, note=66, velocity=127, time=64),
    Message('note_off', channel=3, note=71, velocity=127, time=0),
    Message('note_off', channel=3, note=59, velocity=127, time=0),
    Message('note_on', channel=3, note=66, velocity=127, time=32),
    Message('note_on', channel=3, note=71, velocity=127, time=0),
    Message('note_on', channel=3, note=59, velocity=127, time=0),
    Message('note_off', channel=3, note=66, velocity=127, time=236),
    Message('note_off', channel=3, note=71, velocity=127, time=0),
    Message('note_off', channel=3, note=59, velocity=127, time=0),
    Message('note_on', channel=3, note=59, velocity=127, time=1300),
    Message('note_off', channel=3, note=59, velocity=127, time=192),
    Message('note_on', channel=3, note=59, velocity=127, time=0),
    Message('note_off', channel=3, note=59, velocity=127, time=64),
    Message('note_on', channel=3, note=61, velocity=127, time=32),
    Message('note_off', channel=3, note=61, velocity=127, time=64),
    Message('note_on', channel=3, note=62, velocity=127, time=32),
    Message('note_off', channel=3, note=62, velocity=127, time=64),
    Message('note_on', channel=3, note=64, velocity=127, time=32),
    Message('note_on', channel=3, note=65, velocity=127, time=22),
    Message('note_off', channel=3, note=64, velocity=127, time=6),
    Message('note_off', channel=3, note=65, velocity=127, time=58),
    Message('note_on', channel=3, note=64, velocity=127, time=10),
    Message('note_off', channel=3, note=64, velocity=127, time=64),
    Message('note_on', channel=3, note=62, velocity=127, time=32),
    Message('note_off', channel=3, note=62, velocity=127, time=64),
    Message('note_on', channel=3, note=64, velocity=127, time=32),
    Message('note_off', channel=3, note=64, velocity=127, time=64),
    Message('note_on', channel=3, note=65, velocity=127, time=32),
    Message('note_off', channel=3, note=65, velocity=127, time=64),
    Message('note_on', channel=3, note=66, velocity=127, time=32),
    Message('note_off', channel=3, note=66, velocity=127, time=64),
    Message('note_on', channel=3, note=69, velocity=127, time=32),
    Message('note_off', channel=3, note=69, velocity=127, time=64),
    Message('note_on', channel=3, note=66, velocity=127, time=32),
    Message('note_off', channel=3, note=66, velocity=127, time=64),
    Message('note_on', channel=3, note=71, velocity=127, time=32),
    Message('note_off', channel=3, note=71, velocity=127, time=64),
    Message('note_on', channel=3, note=69, velocity=127, time=32),
    Message('note_off', channel=3, note=69, velocity=127, time=64),
    Message('note_on', channel=3, note=74, velocity=127, time=32),
    Message('note_off', channel=3, note=74, velocity=127, time=64),
    Message('note_on', channel=3, note=59, velocity=127, time=32),
    Message('note_off', channel=3, note=59, velocity=127, time=192),
    Message('note_on', channel=3, note=59, velocity=127, time=0),
    Message('note_off', channel=3, note=59, velocity=127, time=64),
    Message('note_on', channel=3, note=61, velocity=127, time=32),
    Message('note_off', channel=3, note=61, velocity=127, time=64),
    Message('note_on', channel=3, note=62, velocity=127, time=32),
    Message('note_off', channel=3, note=62, velocity=127, time=64),
    Message('note_on', channel=3, note=64, velocity=127, time=32),
    Message('note_on', channel=3, note=65, velocity=127, time=24),
    Message('note_off', channel=3, note=64, velocity=127, time=4),
    Message('note_off', channel=3, note=65, velocity=127, time=60),
    Message('note_on', channel=3, note=64, velocity=127, time=8),
    Message('note_off', channel=3, note=64, velocity=127, time=64),
    Message('note_on', channel=3, note=62, velocity=127, time=32),
    Message('note_off', channel=3, note=62, velocity=127, time=64),
    Message('note_on', channel=3, note=64, velocity=127, time=32),
    Message('note_off', channel=3, note=64, velocity=127, time=64),
    Message('note_on', channel=3, note=65, velocity=127, time=32),
    Message('note_off', channel=3, note=65, velocity=127, time=64),
    Message('note_on', channel=3, note=66, velocity=127, time=32),
    Message('note_off', channel=3, note=66, velocity=127, time=64),
    Message('note_on', channel=3, note=69, velocity=127, time=32),
    Message('note_off', channel=3, note=69, velocity=127, time=64),
    Message('note_on', channel=3, note=66, velocity=127, time=32),
    Message('note_off', channel=3, note=66, velocity=127, time=64),
    Message('note_on', channel=3, note=71, velocity=127, time=32),
    Message('note_off', channel=3, note=71, velocity=127, time=64),
    Message('note_on', channel=3, note=69, velocity=127, time=32),
    Message('note_off', channel=3, note=69, velocity=127, time=64),
    Message('note_on', channel=3, note=66, velocity=127, time=32),
    Message('note_off', channel=3, note=66, velocity=127, time=64),
    Message('note_on', channel=3, note=59, velocity=127, time=32),
    Message('note_off', channel=3, note=59, velocity=127, time=192),
    Message('note_on', channel=3, note=59, velocity=127, time=0),
    Message('note_off', channel=3, note=59, velocity=127, time=64),
    Message('note_on', channel=3, note=61, velocity=127, time=32),
    Message('note_off', channel=3, note=61, velocity=127, time=64),
    Message('note_on', channel=3, note=62, velocity=127, time=32),
    Message('note_off', channel=3, note=62, velocity=127, time=64),
    Message('note_on', channel=3, note=64, velocity=127, time=32),
    Message('note_on', channel=3, note=65, velocity=127, time=22),
    Message('note_off', channel=3, note=64, velocity=127, time=6),
    Message('note_off', channel=3, note=65, velocity=127, time=58),
    Message('note_on', channel=3, note=64, velocity=127, time=10),
    Message('note_off', channel=3, note=64, velocity=127, time=64),
    Message('note_on', channel=3, note=62, velocity=127, time=32),
    Message('note_off', channel=3, note=62, velocity=127, time=64),
    Message('note_on', channel=3, note=64, velocity=127, time=32),
    Message('note_off', channel=3, note=64, velocity=127, time=64),
    Message('note_on', channel=3, note=65, velocity=127, time=32),
    Message('note_off', channel=3, note=65, velocity=127, time=64),
    Message('note_on', channel=3, note=66, velocity=127, time=32),
    Message('note_off', channel=3, note=66, velocity=127, time=64),
    Message('note_on', channel=3, note=69, velocity=127, time=32),
    Message('note_off', channel=3, note=69, velocity=127, time=64),
    Message('note_on', channel=3, note=66, velocity=127, time=32),
    Message('note_off', channel=3, note=66, velocity=127, time=64),
    Message('note_on', channel=3, note=71, velocity=127, time=32),
    Message('note_off', channel=3, note=71, velocity=127, time=64),
    Message('note_on', channel=3, note=69, velocity=127, time=32),
    Message('note_off', channel=3, note=69, velocity=127, time=64),
    Message('note_on', channel=3, note=74, velocity=127, time=32),
    Message('note_off', channel=3, note=74, velocity=127, time=64),
    Message('note_on', channel=3, note=62, velocity=127, time=32),
    Message('note_on', channel=3, note=69, velocity=127, time=0),
    Message('note_on', channel=3, note=74, velocity=127, time=0),
    Message('note_off', channel=3, note=62, velocity=127, time=384),
    Message('note_off', channel=3, note=69, velocity=127, time=0),
    Message('note_off', channel=3, note=74, velocity=127, time=0),
    Message('note_on', channel=3, note=72, velocity=127, time=96),
    Message('note_on', channel=3, note=67, velocity=127, time=0),
    Message('note_on', channel=3, note=60, velocity=127, time=0),
    Message('note_off', channel=3, note=72, velocity=127, time=256),
    Message('note_off', channel=3, note=67, velocity=127, time=0),
    Message('note_off', channel=3, note=60, velocity=127, time=0),
    Message('note_on', channel=3, note=64, velocity=127, time=128),
    Message('note_off', channel=3, note=64, velocity=127, time=64),
    Message('note_on', channel=3, note=65, velocity=127, time=0),
    Message('note_off', channel=3, note=65, velocity=127, time=64),
    Message('note_on', channel=3, note=64, velocity=127, time=0),
    Message('note_off', channel=3, note=64, velocity=127, time=64),
    Message('note_on', channel=3, note=62, velocity=127, time=0),
    Message('note_off', channel=3, note=62, velocity=127, time=64),
    Message('note_on', channel=3, note=64, velocity=127, time=0),
    Message('note_off', channel=3, note=64, velocity=127, time=64),
    Message('note_on', channel=3, note=62, velocity=127, time=0),
    Message('note_off', channel=3, note=62, velocity=127, time=64),
    Message('note_on', channel=3, note=61, velocity=127, time=0),
    Message('note_off', channel=3, note=61, velocity=127, time=64),
    Message('note_on', channel=3, note=62, velocity=127, time=0),
    Message('note_off', channel=3, note=62, velocity=127, time=64),
    Message('note_on', channel=3, note=61, velocity=127, time=0),
    Message('note_off', channel=3, note=61, velocity=127, time=64),
    Message('note_on', channel=3, note=59, velocity=127, time=0),
    Message('note_on', channel=3, note=61, velocity=127, time=60),
    Message('note_off', channel=3, note=59, velocity=127, time=36),
    Message('note_on', channel=3, note=59, velocity=127, time=0),
    Message('note_on', channel=3, note=71, velocity=127, time=0),
    Message('note_on', channel=3, note=66, velocity=127, time=0),
    Message('note_off', channel=3, note=61, velocity=127, time=60),
    Message('note_on', channel=3, note=66, velocity=127, time=228),
    Message('note_on', channel=3, note=59, velocity=127, time=0),
    Message('note_off', channel=3, note=59, velocity=127, time=54),
    Message('note_off', channel=3, note=71, velocity=127, time=0),
    Message('note_off', channel=3, note=66, velocity=127, time=0),
    Message('note_off', channel=3, note=66, velocity=127, time=10),
    Message('note_off', channel=3, note=59, velocity=127, time=0),
    Message('note_on', channel=3, note=66, velocity=127, time=32),
    Message('note_on', channel=3, note=59, velocity=127, time=0),
    Message('note_off', channel=3, note=66, velocity=127, time=64),
    Message('note_off', channel=3, note=59, velocity=127, time=0),
    Message('note_on', channel=3, note=66, velocity=127, time=32),
    Message('note_on', channel=3, note=59, velocity=127, time=0),
    Message('note_off', channel=3, note=66, velocity=127, time=64),
    Message('note_off', channel=3, note=59, velocity=127, time=0),
    Message('note_on', channel=3, note=54, velocity=127, time=32),
    Message('note_on', channel=3, note=61, velocity=127, time=0),
    Message('note_off', channel=3, note=54, velocity=127, time=64),
    Message('note_off', channel=3, note=61, velocity=127, time=0),
    Message('note_on', channel=3, note=54, velocity=127, time=32),
    Message('note_on', channel=3, note=61, velocity=127, time=0),
    Message('note_off', channel=3, note=54, velocity=127, time=64),
    Message('note_off', channel=3, note=61, velocity=127, time=0),
    Message('note_on', channel=3, note=55, velocity=127, time=32),
    Message('note_on', channel=3, note=62, velocity=127, time=0),
    Message('note_off', channel=3, note=55, velocity=127, time=64),
    Message('note_off', channel=3, note=62, velocity=127, time=0),
    Message('note_on', channel=3, note=55, velocity=127, time=32),
    Message('note_on', channel=3, note=62, velocity=127, time=0),
    Message('note_off', channel=3, note=55, velocity=127, time=64),
    Message('note_off', channel=3, note=62, velocity=127, time=0),
    Message('note_on', channel=3, note=52, velocity=127, time=32),
    Message('note_on', channel=3, note=59, velocity=127, time=0),
    Message('note_off', channel=3, note=52, velocity=127, time=64),
    Message('note_off', channel=3, note=59, velocity=127, time=0),
    Message('note_on', channel=3, note=52, velocity=127, time=32),
    Message('note_on', channel=3, note=59, velocity=127, time=0),
    Message('note_off', channel=3, note=52, velocity=127, time=64),
    Message('note_off', channel=3, note=59, velocity=127, time=0),
    Message('note_on', channel=3, note=54, velocity=127, time=32),
    Message('note_on', channel=3, note=61, velocity=127, time=0),
    Message('note_off', channel=3, note=54, velocity=127, time=64),
    Message('note_off', channel=3, note=61, velocity=127, time=0),
    Message('note_on', channel=3, note=54, velocity=127, time=32),
    Message('note_on', channel=3, note=61, velocity=127, time=0),
    Message('note_off', channel=3, note=54, velocity=127, time=64),
    Message('note_off', channel=3, note=61, velocity=127, time=0),
    Message('note_on', channel=3, note=55, velocity=127, time=32),
    Message('note_on', channel=3, note=62, velocity=127, time=0),
    Message('note_off', channel=3, note=55, velocity=127, time=64),
    Message('note_off', channel=3, note=62, velocity=127, time=0),
    Message('note_on', channel=3, note=52, velocity=127, time=32),
    Message('note_on', channel=3, note=59, velocity=127, time=0),
    Message('note_off', channel=3, note=52, velocity=127, time=64),
    Message('note_off', channel=3, note=59, velocity=127, time=0),
    Message('note_on', channel=3, note=59, velocity=127, time=32),
    Message('note_on', channel=3, note=66, velocity=127, time=0),
    Message('note_on', channel=3, note=71, velocity=127, time=0),
    Message('note_off', channel=3, note=59, velocity=127, time=256),
    Message('note_off', channel=3, note=66, velocity=127, time=0),
    Message('note_off', channel=3, note=71, velocity=127, time=0),
    Message('note_on', channel=3, note=59, velocity=127, time=32),
    Message('note_on', channel=3, note=66, velocity=127, time=0),
    Message('note_off', channel=3, note=59, velocity=127, time=64),
    Message('note_off', channel=3, note=66, velocity=127, time=0),
    Message('note_on', channel=3, note=66, velocity=127, time=32),
    Message('note_on', channel=3, note=59, velocity=127, time=0),
    Message('note_off', channel=3, note=66, velocity=127, time=64),
    Message('note_off', channel=3, note=59, velocity=127, time=0),
    Message('note_on', channel=3, note=66, velocity=127, time=32),
    Message('note_on', channel=3, note=59, velocity=127, time=0),
    Message('note_off', channel=3, note=66, velocity=127, time=64),
    Message('note_off', channel=3, note=59, velocity=127, time=0),
    Message('note_on', channel=3, note=54, velocity=127, time=32),
    Message('note_on', channel=3, note=61, velocity=127, time=0),
    Message('note_off', channel=3, note=54, velocity=127, time=64),
    Message('note_off', channel=3, note=61, velocity=127, time=0),
    Message('note_on', channel=3, note=54, velocity=127, time=32),
    Message('note_on', channel=3, note=61, velocity=127, time=0),
    Message('note_off', channel=3, note=54, velocity=127, time=64),
    Message('note_off', channel=3, note=61, velocity=127, time=0),
    Message('note_on', channel=3, note=55, velocity=127, time=32),
    Message('note_on', channel=3, note=62, velocity=127, time=0),
    Message('note_off', channel=3, note=55, velocity=127, time=64),
    Message('note_off', channel=3, note=62, velocity=127, time=0),
    Message('note_on', channel=3, note=55, velocity=127, time=32),
    Message('note_on', channel=3, note=62, velocity=127, time=0),
    Message('note_off', channel=3, note=55, velocity=127, time=64),
    Message('note_off', channel=3, note=62, velocity=127, time=0),
    Message('note_on', channel=3, note=52, velocity=127, time=32),
    Message('note_on', channel=3, note=59, velocity=127, time=0),
    Message('note_off', channel=3, note=52, velocity=127, time=64),
    Message('note_off', channel=3, note=59, velocity=127, time=0),
    Message('note_on', channel=3, note=52, velocity=127, time=32),
    Message('note_on', channel=3, note=59, velocity=127, time=0),
    Message('note_off', channel=3, note=52, velocity=127, time=64),
    Message('note_off', channel=3, note=59, velocity=127, time=0),
    Message('note_on', channel=3, note=54, velocity=127, time=32),
    Message('note_on', channel=3, note=61, velocity=127, time=0),
    Message('note_off', channel=3, note=54, velocity=127, time=64),
    Message('note_off', channel=3, note=61, velocity=127, time=0),
    Message('note_on', channel=3, note=54, velocity=127, time=32),
    Message('note_on', channel=3, note=61, velocity=127, time=0),
    Message('note_off', channel=3, note=54, velocity=127, time=64),
    Message('note_off', channel=3, note=61, velocity=127, time=0),
    Message('note_on', channel=3, note=55, velocity=127, time=32),
    Message('note_on', channel=3, note=62, velocity=127, time=0),
    Message('note_off', channel=3, note=55, velocity=127, time=64),
    Message('note_off', channel=3, note=62, velocity=127, time=0),
    Message('note_on', channel=3, note=52, velocity=127, time=32),
    Message('note_on', channel=3, note=59, velocity=127, time=0),
    Message('note_off', channel=3, note=52, velocity=127, time=64),
    Message('note_off', channel=3, note=59, velocity=127, time=0),
    Message('note_on', channel=3, note=59, velocity=127, time=32),
    Message('note_on', channel=3, note=66, velocity=127, time=0),
    Message('note_on', channel=3, note=71, velocity=127, time=0),
    Message('note_off', channel=3, note=59, velocity=127, time=256),
    Message('note_off', channel=3, note=66, velocity=127, time=0),
    Message('note_off', channel=3, note=71, velocity=127, time=0),
    Message('note_on', channel=3, note=59, velocity=127, time=32),
    Message('note_on', channel=3, note=66, velocity=127, time=0),
    Message('note_off', channel=3, note=59, velocity=127, time=64),
    Message('note_off', channel=3, note=66, velocity=127, time=0),
    Message('note_on', channel=3, note=66, velocity=127, time=32),
    Message('note_on', channel=3, note=59, velocity=127, time=0),
    Message('note_off', channel=3, note=66, velocity=127, time=64),
    Message('note_off', channel=3, note=59, velocity=127, time=0),
    Message('note_on', channel=3, note=66, velocity=127, time=32),
    Message('note_on', channel=3, note=59, velocity=127, time=0),
    Message('note_off', channel=3, note=66, velocity=127, time=64),
    Message('note_off', channel=3, note=59, velocity=127, time=0),
    Message('note_on', channel=3, note=54, velocity=127, time=32),
    Message('note_on', channel=3, note=61, velocity=127, time=0),
    Message('note_off', channel=3, note=54, velocity=127, time=64),
    Message('note_off', channel=3, note=61, velocity=127, time=0),
    Message('note_on', channel=3, note=54, velocity=127, time=32),
    Message('note_on', channel=3, note=61, velocity=127, time=0),
    Message('note_off', channel=3, note=54, velocity=127, time=64),
    Message('note_off', channel=3, note=61, velocity=127, time=0),
    Message('note_on', channel=3, note=55, velocity=127, time=32),
    Message('note_on', channel=3, note=62, velocity=127, time=0),
    Message('note_off', channel=3, note=55, velocity=127, time=64),
    Message('note_off', channel=3, note=62, velocity=127, time=0),
    Message('note_on', channel=3, note=55, velocity=127, time=32),
    Message('note_on', channel=3, note=62, velocity=127, time=0),
    Message('note_off', channel=3, note=55, velocity=127, time=64),
    Message('note_off', channel=3, note=62, velocity=127, time=0),
    Message('note_on', channel=3, note=52, velocity=127, time=32),
    Message('note_on', channel=3, note=59, velocity=127, time=0),
    Message('note_off', channel=3, note=52, velocity=127, time=64),
    Message('note_off', channel=3, note=59, velocity=127, time=0),
    Message('note_on', channel=3, note=52, velocity=127, time=32),
    Message('note_on', channel=3, note=59, velocity=127, time=0),
    Message('note_off', channel=3, note=52, velocity=127, time=64),
    Message('note_off', channel=3, note=59, velocity=127, time=0),
    Message('note_on', channel=3, note=54, velocity=127, time=32),
    Message('note_on', channel=3, note=61, velocity=127, time=0),
    Message('note_off', channel=3, note=54, velocity=127, time=64),
    Message('note_off', channel=3, note=61, velocity=127, time=0),
    Message('note_on', channel=3, note=54, velocity=127, time=32),
    Message('note_on', channel=3, note=61, velocity=127, time=0),
    Message('note_off', channel=3, note=54, velocity=127, time=64),
    Message('note_off', channel=3, note=61, velocity=127, time=0),
    Message('note_on', channel=3, note=55, velocity=127, time=32),
    Message('note_on', channel=3, note=62, velocity=127, time=0),
    Message('note_off', channel=3, note=55, velocity=127, time=64),
    Message('note_off', channel=3, note=62, velocity=127, time=0),
    Message('note_on', channel=3, note=52, velocity=127, time=32),
    Message('note_on', channel=3, note=59, velocity=127, time=0),
    Message('note_off', channel=3, note=52, velocity=127, time=64),
    Message('note_off', channel=3, note=59, velocity=127, time=0),
    Message('note_on', channel=3, note=59, velocity=127, time=32),
    Message('note_on', channel=3, note=66, velocity=127, time=0),
    Message('note_on', channel=3, note=71, velocity=127, time=0),
    Message('note_off', channel=3, note=59, velocity=127, time=256),
    Message('note_off', channel=3, note=66, velocity=127, time=0),
    Message('note_off', channel=3, note=71, velocity=127, time=0),
    Message('note_on', channel=3, note=59, velocity=127, time=32),
    Message('note_on', channel=3, note=66, velocity=127, time=0),
    Message('note_off', channel=3, note=59, velocity=127, time=64),
    Message('note_off', channel=3, note=66, velocity=127, time=0),
    Message('note_on', channel=3, note=66, velocity=127, time=32),
    Message('note_on', channel=3, note=59, velocity=127, time=0),
    Message('note_off', channel=3, note=66, velocity=127, time=64),
    Message('note_off', channel=3, note=59, velocity=127, time=0),
    Message('note_on', channel=3, note=66, velocity=127, time=32),
    Message('note_on', channel=3, note=59, velocity=127, time=0),
    Message('note_off', channel=3, note=66, velocity=127, time=64),
    Message('note_off', channel=3, note=59, velocity=127, time=0),
    Message('note_on', channel=3, note=54, velocity=127, time=32),
    Message('note_on', channel=3, note=61, velocity=127, time=0),
    Message('note_off', channel=3, note=54, velocity=127, time=64),
    Message('note_off', channel=3, note=61, velocity=127, time=0),
    Message('note_on', channel=3, note=54, velocity=127, time=32),
    Message('note_on', channel=3, note=61, velocity=127, time=0),
    Message('note_off', channel=3, note=54, velocity=127, time=64),
    Message('note_off', channel=3, note=61, velocity=127, time=0),
    Message('note_on', channel=3, note=55, velocity=127, time=32),
    Message('note_on', channel=3, note=62, velocity=127, time=0),
    Message('note_off', channel=3, note=55, velocity=127, time=64),
    Message('note_off', channel=3, note=62, velocity=127, time=0),
    Message('note_on', channel=3, note=55, velocity=127, time=32),
    Message('note_on', channel=3, note=62, velocity=127, time=0),
    Message('note_off', channel=3, note=55, velocity=127, time=64),
    Message('note_off', channel=3, note=62, velocity=127, time=0),
    Message('note_on', channel=3, note=52, velocity=127, time=32),
    Message('note_on', channel=3, note=59, velocity=127, time=0),
    Message('note_off', channel=3, note=52, velocity=127, time=64),
    Message('note_off', channel=3, note=59, velocity=127, time=0),
    Message('note_on', channel=3, note=52, velocity=127, time=32),
    Message('note_on', channel=3, note=59, velocity=127, time=0),
    Message('note_off', channel=3, note=52, velocity=127, time=64),
    Message('note_off', channel=3, note=59, velocity=127, time=0),
    Message('note_on', channel=3, note=54, velocity=127, time=32),
    Message('note_on', channel=3, note=61, velocity=127, time=0),
    Message('note_off', channel=3, note=54, velocity=127, time=64),
    Message('note_off', channel=3, note=61, velocity=127, time=0),
    Message('note_on', channel=3, note=54, velocity=127, time=32),
    Message('note_on', channel=3, note=61, velocity=127, time=0),
    Message('note_off', channel=3, note=54, velocity=127, time=64),
    Message('note_off', channel=3, note=61, velocity=127, time=0),
    Message('note_on', channel=3, note=55, velocity=127, time=32),
    Message('note_on', channel=3, note=62, velocity=127, time=0),
    Message('note_off', channel=3, note=55, velocity=127, time=64),
    Message('note_off', channel=3, note=62, velocity=127, time=0),
    Message('note_on', channel=3, note=52, velocity=127, time=32),
    Message('note_on', channel=3, note=59, velocity=127, time=0),
    Message('note_off', channel=3, note=52, velocity=127, time=64),
    Message('note_off', channel=3, note=59, velocity=127, time=0),
    Message('note_on', channel=3, note=59, velocity=127, time=32),
    Message('note_on', channel=3, note=66, velocity=127, time=0),
    Message('note_on', channel=3, note=71, velocity=127, time=0),
    Message('note_off', channel=3, note=59, velocity=127, time=256),
    Message('note_off', channel=3, note=66, velocity=127, time=0),
    Message('note_off', channel=3, note=71, velocity=127, time=0),
    Message('note_on', channel=3, note=59, velocity=127, time=32),
    Message('note_on', channel=3, note=66, velocity=127, time=0),
    Message('note_off', channel=3, note=59, velocity=127, time=64),
    Message('note_off', channel=3, note=66, velocity=127, time=0),
    Message('note_on', channel=3, note=66, velocity=127, time=32),
    Message('note_on', channel=3, note=59, velocity=127, time=0),
    Message('note_off', channel=3, note=66, velocity=127, time=64),
    Message('note_off', channel=3, note=59, velocity=127, time=0),
    Message('note_on', channel=3, note=66, velocity=127, time=32),
    Message('note_on', channel=3, note=59, velocity=127, time=0),
    Message('note_off', channel=3, note=66, velocity=127, time=64),
    Message('note_off', channel=3, note=59, velocity=127, time=0),
    Message('note_on', channel=3, note=54, velocity=127, time=32),
    Message('note_on', channel=3, note=61, velocity=127, time=0),
    Message('note_off', channel=3, note=54, velocity=127, time=64),
    Message('note_off', channel=3, note=61, velocity=127, time=0),
    Message('note_on', channel=3, note=54, velocity=127, time=32),
    Message('note_on', channel=3, note=61, velocity=127, time=0),
    Message('note_off', channel=3, note=54, velocity=127, time=64),
    Message('note_off', channel=3, note=61, velocity=127, time=0),
    Message('note_on', channel=3, note=55, velocity=127, time=32),
    Message('note_on', channel=3, note=62, velocity=127, time=0),
    Message('note_off', channel=3, note=55, velocity=127, time=64),
    Message('note_off', channel=3, note=62, velocity=127, time=0),
    Message('note_on', channel=3, note=55, velocity=127, time=32),
    Message('note_on', channel=3, note=62, velocity=127, time=0),
    Message('note_off', channel=3, note=55, velocity=127, time=64),
    Message('note_off', channel=3, note=62, velocity=127, time=0),
    Message('note_on', channel=3, note=52, velocity=127, time=32),
    Message('note_on', channel=3, note=59, velocity=127, time=0),
    Message('note_off', channel=3, note=52, velocity=127, time=64),
    Message('note_off', channel=3, note=59, velocity=127, time=0),
    Message('note_on', channel=3, note=52, velocity=127, time=32),
    Message('note_on', channel=3, note=59, velocity=127, time=0),
    Message('note_off', channel=3, note=52, velocity=127, time=64),
    Message('note_off', channel=3, note=59, velocity=127, time=0),
    Message('note_on', channel=3, note=54, velocity=127, time=32),
    Message('note_on', channel=3, note=61, velocity=127, time=0),
    Message('note_off', channel=3, note=54, velocity=127, time=64),
    Message('note_off', channel=3, note=61, velocity=127, time=0),
    Message('note_on', channel=3, note=54, velocity=127, time=32),
    Message('note_on', channel=3, note=61, velocity=127, time=0),
    Message('note_off', channel=3, note=54, velocity=127, time=64),
    Message('note_off', channel=3, note=61, velocity=127, time=0),
    Message('note_on', channel=3, note=55, velocity=127, time=32),
    Message('note_on', channel=3, note=62, velocity=127, time=0),
    Message('note_off', channel=3, note=55, velocity=127, time=64),
    Message('note_off', channel=3, note=62, velocity=127, time=0),
    Message('note_on', channel=3, note=52, velocity=127, time=32),
    Message('note_on', channel=3, note=59, velocity=127, time=0),
    Message('note_off', channel=3, note=52, velocity=127, time=64),
    Message('note_off', channel=3, note=59, velocity=127, time=0),
    Message('note_on', channel=3, note=59, velocity=127, time=32),
    Message('note_on', channel=3, note=66, velocity=127, time=0),
    Message('note_on', channel=3, note=71, velocity=127, time=0),
    Message('note_off', channel=3, note=59, velocity=127, time=256),
    Message('note_off', channel=3, note=66, velocity=127, time=0),
    Message('note_off', channel=3, note=71, velocity=127, time=0),
    Message('note_on', channel=3, note=59, velocity=127, time=32),
    Message('note_on', channel=3, note=66, velocity=127, time=0),
    Message('note_off', channel=3, note=59, velocity=127, time=64),
    Message('note_off', channel=3, note=66, velocity=127, time=0),
    Message('note_on', channel=3, note=66, velocity=127, time=32),
    Message('note_on', channel=3, note=59, velocity=127, time=0),
    Message('note_off', channel=3, note=66, velocity=127, time=64),
    Message('note_off', channel=3, note=59, velocity=127, time=0),
    Message('note_on', channel=3, note=66, velocity=127, time=32),
    Message('note_on', channel=3, note=59, velocity=127, time=0),
    Message('note_off', channel=3, note=66, velocity=127, time=64),
    Message('note_off', channel=3, note=59, velocity=127, time=0),
    Message('note_on', channel=3, note=54, velocity=127, time=32),
    Message('note_on', channel=3, note=61, velocity=127, time=0),
    Message('note_off', channel=3, note=54, velocity=127, time=64),
    Message('note_off', channel=3, note=61, velocity=127, time=0),
    Message('note_on', channel=3, note=54, velocity=127, time=32),
    Message('note_on', channel=3, note=61, velocity=127, time=0),
    Message('note_off', channel=3, note=54, velocity=127, time=64),
    Message('note_off', channel=3, note=61, velocity=127, time=0),
    Message('note_on', channel=3, note=55, velocity=127, time=32),
    Message('note_on', channel=3, note=62, velocity=127, time=0),
    Message('note_off', channel=3, note=55, velocity=127, time=64),
    Message('note_off', channel=3, note=62, velocity=127, time=0),
    Message('note_on', channel=3, note=55, velocity=127, time=32),
    Message('note_on', channel=3, note=62, velocity=127, time=0),
    Message('note_off', channel=3, note=55, velocity=127, time=64),
    Message('note_off', channel=3, note=62, velocity=127, time=0),
    Message('note_on', channel=3, note=52, velocity=127, time=32),
    Message('note_on', channel=3, note=59, velocity=127, time=0),
    Message('note_off', channel=3, note=52, velocity=127, time=64),
    Message('note_off', channel=3, note=59, velocity=127, time=0),
    Message('note_on', channel=3, note=52, velocity=127, time=32),
    Message('note_on', channel=3, note=59, velocity=127, time=0),
    Message('note_off', channel=3, note=52, velocity=127, time=64),
    Message('note_off', channel=3, note=59, velocity=127, time=0),
    Message('note_on', channel=3, note=54, velocity=127, time=32),
    Message('note_on', channel=3, note=61, velocity=127, time=0),
    Message('note_off', channel=3, note=54, velocity=127, time=64),
    Message('note_off', channel=3, note=61, velocity=127, time=0),
    Message('note_on', channel=3, note=54, velocity=127, time=32),
    Message('note_on', channel=3, note=61, velocity=127, time=0),
    Message('note_off', channel=3, note=54, velocity=127, time=64),
    Message('note_off', channel=3, note=61, velocity=127, time=0),
    Message('note_on', channel=3, note=55, velocity=127, time=32),
    Message('note_on', channel=3, note=62, velocity=127, time=0),
    Message('note_off', channel=3, note=55, velocity=127, time=64),
    Message('note_off', channel=3, note=62, velocity=127, time=0),
    Message('note_on', channel=3, note=52, velocity=127, time=32),
    Message('note_on', channel=3, note=59, velocity=127, time=0),
    Message('note_off', channel=3, note=52, velocity=127, time=64),
    Message('note_off', channel=3, note=59, velocity=127, time=0),
    Message('note_on', channel=3, note=57, velocity=127, time=32),
    Message('note_on', channel=3, note=64, velocity=127, time=0),
    Message('note_on', channel=3, note=69, velocity=127, time=0),
    Message('note_off', channel=3, note=57, velocity=127, time=256),
    Message('note_off', channel=3, note=64, velocity=127, time=0),
    Message('note_off', channel=3, note=69, velocity=127, time=0),
    Message('note_on', channel=3, note=64, velocity=127, time=32),
    Message('note_on', channel=3, note=57, velocity=127, time=0),
    Message('note_off', channel=3, note=64, velocity=127, time=64),
    Message('note_off', channel=3, note=57, velocity=127, time=0),
    Message('note_on', channel=3, note=64, velocity=127, time=32),
    Message('note_on', channel=3, note=57, velocity=127, time=0),
    Message('note_off', channel=3, note=64, velocity=127, time=64),
    Message('note_off', channel=3, note=57, velocity=127, time=0),
    Message('note_on', channel=3, note=64, velocity=127, time=32),
    Message('note_on', channel=3, note=57, velocity=127, time=0),
    Message('note_off', channel=3, note=64, velocity=127, time=64),
    Message('note_off', channel=3, note=57, velocity=127, time=0),
    Message('note_on', channel=3, note=52, velocity=127, time=32),
    Message('note_on', channel=3, note=59, velocity=127, time=0),
    Message('note_off', channel=3, note=52, velocity=127, time=64),
    Message('note_off', channel=3, note=59, velocity=127, time=0),
    Message('note_on', channel=3, note=53, velocity=127, time=128),
    Message('note_on', channel=3, note=60, velocity=127, time=0),
    Message('note_off', channel=3, note=53, velocity=127, time=64),
    Message('note_off', channel=3, note=60, velocity=127, time=0),
    Message('note_on', channel=3, note=55, velocity=127, time=128),
    Message('note_on', channel=3, note=62, velocity=127, time=0),
    Message('note_off', channel=3, note=55, velocity=127, time=64),
    Message('note_off', channel=3, note=62, velocity=127, time=0),
    Message('note_on', channel=3, note=57, velocity=127, time=128),
    Message('note_on', channel=3, note=64, velocity=127, time=0),
    Message('note_off', channel=3, note=57, velocity=127, time=64),
    Message('note_off', channel=3, note=64, velocity=127, time=0),
    Message('note_on', channel=3, note=60, velocity=127, time=128),
    Message('note_on', channel=3, note=67, velocity=127, time=0),
    Message('note_off', channel=3, note=60, velocity=127, time=64),
    Message('note_off', channel=3, note=67, velocity=127, time=0),
    Message('note_on', channel=3, note=67, velocity=127, time=128),
    Message('note_on', channel=3, note=60, velocity=127, time=0),
    Message('note_off', channel=3, note=67, velocity=127, time=64),
    Message('note_off', channel=3, note=60, velocity=127, time=0),
    Message('note_on', channel=3, note=57, velocity=127, time=32),
    Message('note_on', channel=3, note=69, velocity=127, time=0),
    Message('note_on', channel=3, note=64, velocity=127, time=0),
    Message('note_off', channel=3, note=57, velocity=127, time=128),
    Message('note_off', channel=3, note=69, velocity=127, time=0),
    Message('note_off', channel=3, note=64, velocity=127, time=0),
    Message('note_on', channel=3, note=64, velocity=127, time=64),
    Message('note_on', channel=3, note=57, velocity=127, time=0),
    Message('note_off', channel=3, note=64, velocity=127, time=64),
    Message('note_off', channel=3, note=57, velocity=127, time=0),
    Message('note_on', channel=3, note=64, velocity=127, time=32),
    Message('note_on', channel=3, note=57, velocity=127, time=0),
    Message('note_off', channel=3, note=64, velocity=127, time=64),
    Message('note_off', channel=3, note=57, velocity=127, time=0),
    Message('note_on', channel=3, note=64, velocity=127, time=32),
    Message('note_on', channel=3, note=57, velocity=127, time=0),
    Message('note_off', channel=3, note=64, velocity=127, time=64),
    Message('note_off', channel=3, note=57, velocity=127, time=0),
    Message('note_on', channel=3, note=52, velocity=127, time=32),
    Message('note_on', channel=3, note=59, velocity=127, time=0),
    Message('note_off', channel=3, note=52, velocity=127, time=64),
    Message('note_off', channel=3, note=59, velocity=127, time=0),
    Message('note_on', channel=3, note=53, velocity=127, time=128),
    Message('note_on', channel=3, note=60, velocity=127, time=0),
    Message('note_off', channel=3, note=53, velocity=127, time=64),
    Message('note_off', channel=3, note=60, velocity=127, time=0),
    Message('note_on', channel=3, note=55, velocity=127, time=128),
    Message('note_on', channel=3, note=62, velocity=127, time=0),
    Message('note_off', channel=3, note=55, velocity=127, time=64),
    Message('note_off', channel=3, note=62, velocity=127, time=0),
    Message('note_on', channel=3, note=57, velocity=127, time=128),
    Message('note_on', channel=3, note=64, velocity=127, time=0),
    Message('note_off', channel=3, note=57, velocity=127, time=64),
    Message('note_off', channel=3, note=64, velocity=127, time=0),
    Message('note_on', channel=3, note=60, velocity=127, time=128),
    Message('note_on', channel=3, note=67, velocity=127, time=0),
    Message('note_off', channel=3, note=60, velocity=127, time=64),
    Message('note_off', channel=3, note=67, velocity=127, time=0),
    Message('note_on', channel=3, note=60, velocity=127, time=128),
    Message('note_on', channel=3, note=67, velocity=127, time=0),
    Message('note_off', channel=3, note=60, velocity=127, time=64),
    Message('note_off', channel=3, note=67, velocity=127, time=0),
    Message('note_on', channel=3, note=59, velocity=127, time=32),
    Message('note_on', channel=3, note=66, velocity=127, time=0),
    Message('note_on', channel=3, note=71, velocity=127, time=0),
    Message('note_off', channel=3, note=59, velocity=127, time=128),
    Message('note_off', channel=3, note=66, velocity=127, time=0),
    Message('note_off', channel=3, note=71, velocity=127, time=0),
    Message('note_on', channel=3, note=59, velocity=127, time=64),
    Message('note_on', channel=3, note=66, velocity=127, time=0),
    Message('note_off', channel=3, note=59, velocity=127, time=64),
    Message('note_off', channel=3, note=66, velocity=127, time=0),
    Message('note_on', channel=3, note=66, velocity=127, time=32),
    Message('note_on', channel=3, note=59, velocity=127, time=0),
    Message('note_off', channel=3, note=66, velocity=127, time=64),
    Message('note_off', channel=3, note=59, velocity=127, time=0),
    Message('note_on', channel=3, note=66, velocity=127, time=32),
    Message('note_on', channel=3, note=59, velocity=127, time=0),
    Message('note_off', channel=3, note=66, velocity=127, time=64),
    Message('note_off', channel=3, note=59, velocity=127, time=0),
    Message('note_on', channel=3, note=54, velocity=127, time=32),
    Message('note_on', channel=3, note=61, velocity=127, time=0),
    Message('note_off', channel=3, note=54, velocity=127, time=64),
    Message('note_off', channel=3, note=61, velocity=127, time=0),
    Message('note_on', channel=3, note=54, velocity=127, time=32),
    Message('note_on', channel=3, note=61, velocity=127, time=0),
    Message('note_off', channel=3, note=54, velocity=127, time=64),
    Message('note_off', channel=3, note=61, velocity=127, time=0),
    Message('note_on', channel=3, note=55, velocity=127, time=32),
    Message('note_on', channel=3, note=62, velocity=127, time=0),
    Message('note_off', channel=3, note=55, velocity=127, time=64),
    Message('note_off', channel=3, note=62, velocity=127, time=0),
    Message('note_on', channel=3, note=55, velocity=127, time=32),
    Message('note_on', channel=3, note=62, velocity=127, time=0),
    Message('note_off', channel=3, note=55, velocity=127, time=64),
    Message('note_off', channel=3, note=62, velocity=127, time=0),
    Message('note_on', channel=3, note=52, velocity=127, time=32),
    Message('note_on', channel=3, note=59, velocity=127, time=0),
    Message('note_off', channel=3, note=52, velocity=127, time=64),
    Message('note_off', channel=3, note=59, velocity=127, time=0),
    Message('note_on', channel=3, note=52, velocity=127, time=32),
    Message('note_on', channel=3, note=59, velocity=127, time=0),
    Message('note_off', channel=3, note=52, velocity=127, time=64),
    Message('note_off', channel=3, note=59, velocity=127, time=0),
    Message('note_on', channel=3, note=54, velocity=127, time=32),
    Message('note_on', channel=3, note=61, velocity=127, time=0),
    Message('note_off', channel=3, note=54, velocity=127, time=64),
    Message('note_off', channel=3, note=61, velocity=127, time=0),
    Message('note_on', channel=3, note=54, velocity=127, time=32),
    Message('note_on', channel=3, note=61, velocity=127, time=0),
    Message('note_off', channel=3, note=54, velocity=127, time=64),
    Message('note_off', channel=3, note=61, velocity=127, time=0),
    Message('note_on', channel=3, note=55, velocity=127, time=32),
    Message('note_on', channel=3, note=62, velocity=127, time=0),
    Message('note_off', channel=3, note=55, velocity=127, time=64),
    Message('note_off', channel=3, note=62, velocity=127, time=0),
    Message('note_on', channel=3, note=52, velocity=127, time=32),
    Message('note_on', channel=3, note=59, velocity=127, time=0),
    Message('note_off', channel=3, note=52, velocity=127, time=64),
    Message('note_off', channel=3, note=59, velocity=127, time=0),
    Message('note_on', channel=3, note=59, velocity=127, time=32),
    Message('note_on', channel=3, note=66, velocity=127, time=0),
    Message('note_on', channel=3, note=71, velocity=127, time=0),
    Message('note_off', channel=3, note=59, velocity=127, time=256),
    Message('note_off', channel=3, note=66, velocity=127, time=0),
    Message('note_off', channel=3, note=71, velocity=127, time=0),
    Message('note_on', channel=3, note=59, velocity=127, time=32),
    Message('note_on', channel=3, note=66, velocity=127, time=0),
    Message('note_off', channel=3, note=59, velocity=127, time=64),
    Message('note_off', channel=3, note=66, velocity=127, time=0),
    Message('note_on', channel=3, note=66, velocity=127, time=32),
    Message('note_on', channel=3, note=59, velocity=127, time=0),
    Message('note_off', channel=3, note=66, velocity=127, time=64),
    Message('note_off', channel=3, note=59, velocity=127, time=0),
    Message('note_on', channel=3, note=66, velocity=127, time=32),
    Message('note_on', channel=3, note=59, velocity=127, time=0),
    Message('note_off', channel=3, note=66, velocity=127, time=64),
    Message('note_off', channel=3, note=59, velocity=127, time=0),
    Message('note_on', channel=3, note=54, velocity=127, time=32),
    Message('note_on', channel=3, note=61, velocity=127, time=0),
    Message('note_off', channel=3, note=54, velocity=127, time=64),
    Message('note_off', channel=3, note=61, velocity=127, time=0),
    Message('note_on', channel=3, note=54, velocity=127, time=32),
    Message('note_on', channel=3, note=61, velocity=127, time=0),
    Message('note_off', channel=3, note=54, velocity=127, time=64),
    Message('note_off', channel=3, note=61, velocity=127, time=0),
    Message('note_on', channel=3, note=55, velocity=127, time=32),
    Message('note_on', channel=3, note=62, velocity=127, time=0),
    Message('note_off', channel=3, note=55, velocity=127, time=64),
    Message('note_off', channel=3, note=62, velocity=127, time=0),
    Message('note_on', channel=3, note=55, velocity=127, time=32),
    Message('note_on', channel=3, note=62, velocity=127, time=0),
    Message('note_off', channel=3, note=55, velocity=127, time=64),
    Message('note_off', channel=3, note=62, velocity=127, time=0),
    Message('note_on', channel=3, note=52, velocity=127, time=32),
    Message('note_on', channel=3, note=59, velocity=127, time=0),
    Message('note_off', channel=3, note=52, velocity=127, time=64),
    Message('note_off', channel=3, note=59, velocity=127, time=0),
    Message('note_on', channel=3, note=52, velocity=127, time=32),
    Message('note_on', channel=3, note=59, velocity=127, time=0),
    Message('note_off', channel=3, note=52, velocity=127, time=64),
    Message('note_off', channel=3, note=59, velocity=127, time=0),
    Message('note_on', channel=3, note=54, velocity=127, time=32),
    Message('note_on', channel=3, note=61, velocity=127, time=0),
    Message('note_off', channel=3, note=54, velocity=127, time=64),
    Message('note_off', channel=3, note=61, velocity=127, time=0),
    Message('note_on', channel=3, note=54, velocity=127, time=32),
    Message('note_on', channel=3, note=61, velocity=127, time=0),
    Message('note_off', channel=3, note=54, velocity=127, time=64),
    Message('note_off', channel=3, note=61, velocity=127, time=0),
    Message('note_on', channel=3, note=55, velocity=127, time=32),
    Message('note_on', channel=3, note=62, velocity=127, time=0),
    Message('note_off', channel=3, note=55, velocity=127, time=64),
    Message('note_off', channel=3, note=62, velocity=127, time=0),
    Message('note_on', channel=3, note=52, velocity=127, time=32),
    Message('note_on', channel=3, note=59, velocity=127, time=0),
    Message('note_off', channel=3, note=52, velocity=127, time=64),
    Message('note_off', channel=3, note=59, velocity=127, time=0),
    Message('note_on', channel=3, note=71, velocity=127, time=32),
    Message('note_on', channel=3, note=66, velocity=127, time=0),
    Message('note_on', channel=3, note=59, velocity=127, time=0),
    Message('note_off', channel=3, note=71, velocity=127, time=352),
    Message('note_off', channel=3, note=66, velocity=127, time=8),
    Message('note_off', channel=3, note=59, velocity=127, time=0),
    Message('note_on', channel=3, note=54, velocity=127, time=216),
    Message('note_on', channel=3, note=61, velocity=127, time=0),
    Message('note_on', channel=3, note=66, velocity=127, time=0),
    Message('note_off', channel=3, note=54, velocity=127, time=64),
    Message('note_off', channel=3, note=61, velocity=127, time=0),
    Message('note_off', channel=3, note=66, velocity=127, time=0),
    Message('note_on', channel=3, note=55, velocity=127, time=128),
    Message('note_on', channel=3, note=62, velocity=127, time=0),
    Message('note_on', channel=3, note=67, velocity=127, time=0),
    Message('note_off', channel=3, note=55, velocity=127, time=192),
    Message('note_off', channel=3, note=62, velocity=127, time=0),
    Message('note_off', channel=3, note=67, velocity=127, time=0),
    Message('note_on', channel=3, note=52, velocity=127, time=0),
    Message('note_off', channel=3, note=52, velocity=127, time=64),
    Message('note_on', channel=3, note=54, velocity=127, time=32),
    Message('note_off', channel=3, note=54, velocity=127, time=64),
    Message('note_on', channel=3, note=55, velocity=127, time=32),
    Message('note_off', channel=3, note=55, velocity=127, time=64),
    Message('note_on', channel=3, note=55, velocity=127, time=32),
    Message('note_off', channel=3, note=55, velocity=127, time=64),
    Message('note_on', channel=3, note=54, velocity=127, time=32),
    Message('note_off', channel=3, note=54, velocity=127, time=64),
    Message('note_on', channel=3, note=53, velocity=127, time=32),
    Message('note_off', channel=3, note=53, velocity=127, time=64),
    Message('note_on', channel=3, note=52, velocity=127, time=32),
    Message('note_on', channel=3, note=59, velocity=127, time=0),
    Message('note_on', channel=3, note=64, velocity=127, time=0),
    Message('note_off', channel=3, note=52, velocity=127, time=360),
    Message('note_off', channel=3, note=59, velocity=127, time=24),
    Message('note_off', channel=3, note=64, velocity=127, time=0),
    Message('note_on', channel=3, note=55, velocity=127, time=192),
    Message('note_on', channel=3, note=62, velocity=127, time=0),
    Message('note_on', channel=3, note=67, velocity=127, time=0),
    Message('note_off', channel=3, note=55, velocity=127, time=64),
    Message('note_off', channel=3, note=62, velocity=127, time=0),
    Message('note_off', channel=3, note=67, velocity=127, time=0),
    Message('note_on', channel=3, note=67, velocity=127, time=128),
    Message('note_on', channel=3, note=62, velocity=127, time=0),
    Message('note_on', channel=3, note=55, velocity=127, time=0),
    Message('note_off', channel=3, note=67, velocity=127, time=64),
    Message('note_off', channel=3, note=62, velocity=127, time=0),
    Message('note_off', channel=3, note=55, velocity=127, time=0),
    Message('note_on', channel=3, note=54, velocity=127, time=32),
    Message('note_on', channel=3, note=61, velocity=127, time=0),
    Message('note_on', channel=3, note=66, velocity=127, time=0),
    Message('note_off', channel=3, note=54, velocity=127, time=256),
    Message('note_off', channel=3, note=61, velocity=127, time=0),
    Message('note_off', channel=3, note=66, velocity=127, time=0),
    Message('note_on', channel=3, note=62, velocity=127, time=224),
    Message('note_on', channel=3, note=69, velocity=127, time=0),
    Message('note_on', channel=3, note=74, velocity=127, time=0),
    Message('note_off', channel=3, note=62, velocity=127, time=64),
    Message('note_off', channel=3, note=69, velocity=127, time=0),
    Message('note_off', channel=3, note=74, velocity=127, time=0),
    Message('note_on', channel=3, note=62, velocity=127, time=128),
    Message('note_on', channel=3, note=69, velocity=127, time=0),
    Message('note_on', channel=3, note=74, velocity=127, time=0),
    Message('note_off', channel=3, note=62, velocity=127, time=64),
    Message('note_off', channel=3, note=69, velocity=127, time=0),
    Message('note_off', channel=3, note=74, velocity=127, time=0),
    Message('note_on', channel=3, note=59, velocity=127, time=32),
    Message('note_on', channel=3, note=66, velocity=127, time=0),
    Message('note_on', channel=3, note=71, velocity=127, time=0),
    Message('note_off', channel=3, note=59, velocity=127, time=256),
    Message('note_off', channel=3, note=66, velocity=127, time=0),
    Message('note_off', channel=3, note=71, velocity=127, time=0),
    Message('note_on', channel=3, note=54, velocity=127, time=224),
    Message('note_on', channel=3, note=61, velocity=127, time=0),
    Message('note_on', channel=3, note=66, velocity=127, time=0),
    Message('note_off', channel=3, note=54, velocity=127, time=64),
    Message('note_off', channel=3, note=61, velocity=127, time=0),
    Message('note_off', channel=3, note=66, velocity=127, time=0),
    Message('note_on', channel=3, note=55, velocity=127, time=128),
    Message('note_on', channel=3, note=62, velocity=127, time=0),
    Message('note_on', channel=3, note=67, velocity=127, time=0),
    Message('note_off', channel=3, note=55, velocity=127, time=192),
    Message('note_off', channel=3, note=62, velocity=127, time=0),
    Message('note_off', channel=3, note=67, velocity=127, time=0),
    Message('note_on', channel=3, note=52, velocity=127, time=0),
    Message('note_off', channel=3, note=52, velocity=127, time=64),
    Message('note_on', channel=3, note=54, velocity=127, time=32),
    Message('note_off', channel=3, note=54, velocity=127, time=64),
    Message('note_on', channel=3, note=55, velocity=127, time=32),
    Message('note_off', channel=3, note=55, velocity=127, time=64),
    Message('note_on', channel=3, note=55, velocity=127, time=32),
    Message('note_off', channel=3, note=55, velocity=127, time=64),
    Message('note_on', channel=3, note=54, velocity=127, time=32),
    Message('note_off', channel=3, note=54, velocity=127, time=64),
    Message('note_on', channel=3, note=53, velocity=127, time=32),
    Message('note_off', channel=3, note=53, velocity=127, time=64),
    Message('note_on', channel=3, note=52, velocity=127, time=32),
    Message('note_on', channel=3, note=59, velocity=127, time=0),
    Message('note_on', channel=3, note=64, velocity=127, time=0),
    Message('note_off', channel=3, note=52, velocity=127, time=360),
    Message('note_off', channel=3, note=59, velocity=127, time=24),
    Message('note_off', channel=3, note=64, velocity=127, time=0),
    Message('note_on', channel=3, note=55, velocity=127, time=192),
    Message('note_on', channel=3, note=62, velocity=127, time=0),
    Message('note_on', channel=3, note=67, velocity=127, time=0),
    Message('note_off', channel=3, note=55, velocity=127, time=64),
    Message('note_off', channel=3, note=62, velocity=127, time=0),
    Message('note_off', channel=3, note=67, velocity=127, time=0),
    Message('note_on', channel=3, note=67, velocity=127, time=128),
    Message('note_on', channel=3, note=62, velocity=127, time=0),
    Message('note_on', channel=3, note=55, velocity=127, time=0),
    Message('note_off', channel=3, note=67, velocity=127, time=64),
    Message('note_off', channel=3, note=62, velocity=127, time=0),
    Message('note_off', channel=3, note=55, velocity=127, time=0),
    Message('note_on', channel=3, note=54, velocity=127, time=32),
    Message('note_on', channel=3, note=61, velocity=127, time=0),
    Message('note_on', channel=3, note=66, velocity=127, time=0),
    Message('note_off', channel=3, note=54, velocity=127, time=256),
    Message('note_off', channel=3, note=61, velocity=127, time=0),
    Message('note_off', channel=3, note=66, velocity=127, time=0),
    Message('note_on', channel=3, note=62, velocity=127, time=224),
    Message('note_on', channel=3, note=69, velocity=127, time=0),
    Message('note_on', channel=3, note=74, velocity=127, time=0),
    Message('note_off', channel=3, note=62, velocity=127, time=64),
    Message('note_off', channel=3, note=69, velocity=127, time=0),
    Message('note_off', channel=3, note=74, velocity=127, time=0),
    Message('note_on', channel=3, note=62, velocity=127, time=128),
    Message('note_on', channel=3, note=69, velocity=127, time=0),
    Message('note_on', channel=3, note=74, velocity=127, time=0),
    Message('note_off', channel=3, note=62, velocity=127, time=64),
    Message('note_off', channel=3, note=69, velocity=127, time=0),
    Message('note_off', channel=3, note=74, velocity=127, time=0),
    Message('note_on', channel=3, note=59, velocity=127, time=32),
    Message('note_on', channel=3, note=66, velocity=127, time=0),
    Message('note_on', channel=3, note=71, velocity=127, time=0),
    Message('note_off', channel=3, note=59, velocity=127, time=256),
    Message('note_off', channel=3, note=66, velocity=127, time=0),
    Message('note_off', channel=3, note=71, velocity=127, time=0),
    Message('note_on', channel=3, note=54, velocity=127, time=224),
    Message('note_on', channel=3, note=61, velocity=127, time=0),
    Message('note_on', channel=3, note=66, velocity=127, time=0),
    Message('note_off', channel=3, note=54, velocity=127, time=64),
    Message('note_off', channel=3, note=61, velocity=127, time=0),
    Message('note_off', channel=3, note=66, velocity=127, time=0),
    Message('note_on', channel=3, note=55, velocity=127, time=128),
    Message('note_on', channel=3, note=62, velocity=127, time=0),
    Message('note_on', channel=3, note=67, velocity=127, time=0),
    Message('note_off', channel=3, note=55, velocity=127, time=192),
    Message('note_off', channel=3, note=62, velocity=127, time=0),
    Message('note_off', channel=3, note=67, velocity=127, time=0),
    Message('note_on', channel=3, note=52, velocity=127, time=0),
    Message('note_off', channel=3, note=52, velocity=127, time=64),
    Message('note_on', channel=3, note=54, velocity=127, time=32),
    Message('note_off', channel=3, note=54, velocity=127, time=64),
    Message('note_on', channel=3, note=55, velocity=127, time=32),
    Message('note_off', channel=3, note=55, velocity=127, time=64),
    Message('note_on', channel=3, note=55, velocity=127, time=32),
    Message('note_off', channel=3, note=55, velocity=127, time=64),
    Message('note_on', channel=3, note=54, velocity=127, time=32),
    Message('note_off', channel=3, note=54, velocity=127, time=64),
    Message('note_on', channel=3, note=53, velocity=127, time=32),
    Message('note_off', channel=3, note=53, velocity=127, time=64),
    Message('note_on', channel=3, note=52, velocity=127, time=32),
    Message('note_on', channel=3, note=59, velocity=127, time=0),
    Message('note_on', channel=3, note=64, velocity=127, time=0),
    Message('note_off', channel=3, note=52, velocity=127, time=360),
    Message('note_off', channel=3, note=59, velocity=127, time=24),
    Message('note_off', channel=3, note=64, velocity=127, time=0),
    Message('note_on', channel=3, note=55, velocity=127, time=192),
    Message('note_on', channel=3, note=62, velocity=127, time=0),
    Message('note_on', channel=3, note=67, velocity=127, time=0),
    Message('note_off', channel=3, note=55, velocity=127, time=64),
    Message('note_off', channel=3, note=62, velocity=127, time=0),
    Message('note_off', channel=3, note=67, velocity=127, time=0),
    Message('note_on', channel=3, note=67, velocity=127, time=128),
    Message('note_on', channel=3, note=62, velocity=127, time=0),
    Message('note_on', channel=3, note=55, velocity=127, time=0),
    Message('note_off', channel=3, note=67, velocity=127, time=64),
    Message('note_off', channel=3, note=62, velocity=127, time=0),
    Message('note_off', channel=3, note=55, velocity=127, time=0),
    Message('note_on', channel=3, note=54, velocity=127, time=32),
    Message('note_on', channel=3, note=61, velocity=127, time=0),
    Message('note_on', channel=3, note=66, velocity=127, time=0),
    Message('note_off', channel=3, note=54, velocity=127, time=256),
    Message('note_off', channel=3, note=61, velocity=127, time=0),
    Message('note_off', channel=3, note=66, velocity=127, time=0),
    Message('note_on', channel=3, note=62, velocity=127, time=224),
    Message('note_on', channel=3, note=69, velocity=127, time=0),
    Message('note_on', channel=3, note=74, velocity=127, time=0),
    Message('note_off', channel=3, note=62, velocity=127, time=64),
    Message('note_off', channel=3, note=69, velocity=127, time=0),
    Message('note_off', channel=3, note=74, velocity=127, time=0),
    Message('note_on', channel=3, note=62, velocity=127, time=128),
    Message('note_on', channel=3, note=69, velocity=127, time=0),
    Message('note_on', channel=3, note=74, velocity=127, time=0),
    Message('note_off', channel=3, note=62, velocity=127, time=64),
    Message('note_off', channel=3, note=69, velocity=127, time=0),
    Message('note_off', channel=3, note=74, velocity=127, time=0),
    Message('note_on', channel=3, note=59, velocity=127, time=32),
    Message('note_on', channel=3, note=66, velocity=127, time=0),
    Message('note_on', channel=3, note=71, velocity=127, time=0),
    Message('note_off', channel=3, note=59, velocity=127, time=256),
    Message('note_off', channel=3, note=66, velocity=127, time=0),
    Message('note_off', channel=3, note=71, velocity=127, time=0),
    Message('note_on', channel=3, note=54, velocity=127, time=224),
    Message('note_on', channel=3, note=61, velocity=127, time=0),
    Message('note_on', channel=3, note=66, velocity=127, time=0),
    Message('note_off', channel=3, note=54, velocity=127, time=64),
    Message('note_off', channel=3, note=61, velocity=127, time=0),
    Message('note_off', channel=3, note=66, velocity=127, time=0),
    Message('note_on', channel=3, note=55, velocity=127, time=128),
    Message('note_on', channel=3, note=62, velocity=127, time=0),
    Message('note_on', channel=3, note=67, velocity=127, time=0),
    Message('note_off', channel=3, note=55, velocity=127, time=192),
    Message('note_off', channel=3, note=62, velocity=127, time=0),
    Message('note_off', channel=3, note=67, velocity=127, time=0),
    Message('note_on', channel=3, note=52, velocity=127, time=0),
    Message('note_off', channel=3, note=52, velocity=127, time=64),
    Message('note_on', channel=3, note=54, velocity=127, time=32),
    Message('note_off', channel=3, note=54, velocity=127, time=64),
    Message('note_on', channel=3, note=55, velocity=127, time=32),
    Message('note_off', channel=3, note=55, velocity=127, time=64),
    Message('note_on', channel=3, note=55, velocity=127, time=32),
    Message('note_off', channel=3, note=55, velocity=127, time=64),
    Message('note_on', channel=3, note=54, velocity=127, time=32),
    Message('note_off', channel=3, note=54, velocity=127, time=64),
    Message('note_on', channel=3, note=53, velocity=127, time=32),
    Message('note_off', channel=3, note=53, velocity=127, time=64),
    Message('note_on', channel=3, note=52, velocity=127, time=32),
    Message('note_on', channel=3, note=59, velocity=127, time=0),
    Message('note_on', channel=3, note=64, velocity=127, time=0),
    Message('note_off', channel=3, note=52, velocity=127, time=360),
    Message('note_off', channel=3, note=59, velocity=127, time=24),
    Message('note_off', channel=3, note=64, velocity=127, time=0),
    Message('note_on', channel=3, note=55, velocity=127, time=192),
    Message('note_on', channel=3, note=62, velocity=127, time=0),
    Message('note_on', channel=3, note=67, velocity=127, time=0),
    Message('note_off', channel=3, note=55, velocity=127, time=64),
    Message('note_off', channel=3, note=62, velocity=127, time=0),
    Message('note_off', channel=3, note=67, velocity=127, time=0),
    Message('note_on', channel=3, note=55, velocity=127, time=128),
    Message('note_on', channel=3, note=62, velocity=127, time=0),
    Message('note_on', channel=3, note=67, velocity=127, time=0),
    Message('note_off', channel=3, note=55, velocity=127, time=64),
    Message('note_off', channel=3, note=62, velocity=127, time=0),
    Message('note_off', channel=3, note=67, velocity=127, time=0),
    Message('note_on', channel=3, note=54, velocity=127, time=32),
    Message('note_on', channel=3, note=61, velocity=127, time=0),
    Message('note_on', channel=3, note=66, velocity=127, time=0),
    Message('note_off', channel=3, note=54, velocity=127, time=128),
    Message('note_off', channel=3, note=61, velocity=127, time=0),
    Message('note_off', channel=3, note=66, velocity=127, time=0),
    Message('note_on', channel=3, note=62, velocity=127, time=64),
    Message('note_off', channel=3, note=62, velocity=127, time=128),
    Message('note_on', channel=3, note=61, velocity=127, time=64),
    Message('note_off', channel=3, note=61, velocity=127, time=64),
    Message('note_on', channel=3, note=57, velocity=127, time=32),
    Message('note_off', channel=3, note=57, velocity=127, time=64),
    Message('note_on', channel=3, note=58, velocity=127, time=32),
    Message('note_off', channel=3, note=58, velocity=127, time=64),
    Message('note_on', channel=3, note=59, velocity=127, time=32),
    Message('note_on', channel=3, note=66, velocity=127, time=0),
    Message('note_on', channel=3, note=71, velocity=127, time=0),
    Message('note_off', channel=3, note=59, velocity=127, time=256),
    Message('note_off', channel=3, note=66, velocity=127, time=0),
    Message('note_off', channel=3, note=71, velocity=127, time=0),
    Message('note_on', channel=3, note=59, velocity=127, time=32),
    Message('note_on', channel=3, note=66, velocity=127, time=0),
    Message('note_off', channel=3, note=59, velocity=127, time=64),
    Message('note_off', channel=3, note=66, velocity=127, time=0),
    Message('note_on', channel=3, note=66, velocity=127, time=32),
    Message('note_on', channel=3, note=59, velocity=127, time=0),
    Message('note_off', channel=3, note=66, velocity=127, time=64),
    Message('note_off', channel=3, note=59, velocity=127, time=0),
    Message('note_on', channel=3, note=66, velocity=127, time=32),
    Message('note_on', channel=3, note=59, velocity=127, time=0),
    Message('note_off', channel=3, note=66, velocity=127, time=64),
    Message('note_off', channel=3, note=59, velocity=127, time=0),
    Message('note_on', channel=3, note=54, velocity=127, time=32),
    Message('note_on', channel=3, note=61, velocity=127, time=0),
    Message('note_off', channel=3, note=54, velocity=127, time=64),
    Message('note_off', channel=3, note=61, velocity=127, time=0),
    Message('note_on', channel=3, note=54, velocity=127, time=32),
    Message('note_on', channel=3, note=61, velocity=127, time=0),
    Message('note_off', channel=3, note=54, velocity=127, time=64),
    Message('note_off', channel=3, note=61, velocity=127, time=0),
    Message('note_on', channel=3, note=55, velocity=127, time=32),
    Message('note_on', channel=3, note=62, velocity=127, time=0),
    Message('note_off', channel=3, note=55, velocity=127, time=64),
    Message('note_off', channel=3, note=62, velocity=127, time=0),
    Message('note_on', channel=3, note=55, velocity=127, time=32),
    Message('note_on', channel=3, note=62, velocity=127, time=0),
    Message('note_off', channel=3, note=55, velocity=127, time=64),
    Message('note_off', channel=3, note=62, velocity=127, time=0),
    Message('note_on', channel=3, note=52, velocity=127, time=32),
    Message('note_on', channel=3, note=59, velocity=127, time=0),
    Message('note_off', channel=3, note=52, velocity=127, time=64),
    Message('note_off', channel=3, note=59, velocity=127, time=0),
    Message('note_on', channel=3, note=52, velocity=127, time=32),
    Message('note_on', channel=3, note=59, velocity=127, time=0),
    Message('note_off', channel=3, note=52, velocity=127, time=64),
    Message('note_off', channel=3, note=59, velocity=127, time=0),
    Message('note_on', channel=3, note=54, velocity=127, time=32),
    Message('note_on', channel=3, note=61, velocity=127, time=0),
    Message('note_off', channel=3, note=54, velocity=127, time=64),
    Message('note_off', channel=3, note=61, velocity=127, time=0),
    Message('note_on', channel=3, note=54, velocity=127, time=32),
    Message('note_on', channel=3, note=61, velocity=127, time=0),
    Message('note_off', channel=3, note=54, velocity=127, time=64),
    Message('note_off', channel=3, note=61, velocity=127, time=0),
    Message('note_on', channel=3, note=55, velocity=127, time=32),
    Message('note_on', channel=3, note=62, velocity=127, time=0),
    Message('note_off', channel=3, note=55, velocity=127, time=64),
    Message('note_off', channel=3, note=62, velocity=127, time=0),
    Message('note_on', channel=3, note=52, velocity=127, time=32),
    Message('note_on', channel=3, note=59, velocity=127, time=0),
    Message('note_off', channel=3, note=52, velocity=127, time=64),
    Message('note_off', channel=3, note=59, velocity=127, time=0),
    Message('note_on', channel=3, note=59, velocity=127, time=32),
    Message('note_on', channel=3, note=66, velocity=127, time=0),
    Message('note_on', channel=3, note=71, velocity=127, time=0),
    Message('note_off', channel=3, note=59, velocity=127, time=256),
    Message('note_off', channel=3, note=66, velocity=127, time=0),
    Message('note_off', channel=3, note=71, velocity=127, time=0),
    Message('note_on', channel=3, note=59, velocity=127, time=32),
    Message('note_on', channel=3, note=66, velocity=127, time=0),
    Message('note_off', channel=3, note=59, velocity=127, time=64),
    Message('note_off', channel=3, note=66, velocity=127, time=0),
    Message('note_on', channel=3, note=66, velocity=127, time=32),
    Message('note_on', channel=3, note=59, velocity=127, time=0),
    Message('note_off', channel=3, note=66, velocity=127, time=64),
    Message('note_off', channel=3, note=59, velocity=127, time=0),
    Message('note_on', channel=3, note=66, velocity=127, time=32),
    Message('note_on', channel=3, note=59, velocity=127, time=0),
    Message('note_off', channel=3, note=66, velocity=127, time=64),
    Message('note_off', channel=3, note=59, velocity=127, time=0),
    Message('note_on', channel=3, note=54, velocity=127, time=32),
    Message('note_on', channel=3, note=61, velocity=127, time=0),
    Message('note_off', channel=3, note=54, velocity=127, time=64),
    Message('note_off', channel=3, note=61, velocity=127, time=0),
    Message('note_on', channel=3, note=54, velocity=127, time=32),
    Message('note_on', channel=3, note=61, velocity=127, time=0),
    Message('note_off', channel=3, note=54, velocity=127, time=64),
    Message('note_off', channel=3, note=61, velocity=127, time=0),
    Message('note_on', channel=3, note=55, velocity=127, time=32),
    Message('note_on', channel=3, note=62, velocity=127, time=0),
    Message('note_off', channel=3, note=55, velocity=127, time=64),
    Message('note_off', channel=3, note=62, velocity=127, time=0),
    Message('note_on', channel=3, note=55, velocity=127, time=32),
    Message('note_on', channel=3, note=62, velocity=127, time=0),
    Message('note_off', channel=3, note=55, velocity=127, time=64),
    Message('note_off', channel=3, note=62, velocity=127, time=0),
    Message('note_on', channel=3, note=52, velocity=127, time=32),
    Message('note_on', channel=3, note=59, velocity=127, time=0),
    Message('note_off', channel=3, note=52, velocity=127, time=64),
    Message('note_off', channel=3, note=59, velocity=127, time=0),
    Message('note_on', channel=3, note=52, velocity=127, time=32),
    Message('note_on', channel=3, note=59, velocity=127, time=0),
    Message('note_off', channel=3, note=52, velocity=127, time=64),
    Message('note_off', channel=3, note=59, velocity=127, time=0),
    Message('note_on', channel=3, note=54, velocity=127, time=32),
    Message('note_on', channel=3, note=61, velocity=127, time=0),
    Message('note_off', channel=3, note=54, velocity=127, time=64),
    Message('note_off', channel=3, note=61, velocity=127, time=0),
    Message('note_on', channel=3, note=54, velocity=127, time=32),
    Message('note_on', channel=3, note=61, velocity=127, time=0),
    Message('note_off', channel=3, note=54, velocity=127, time=64),
    Message('note_off', channel=3, note=61, velocity=127, time=0),
    Message('note_on', channel=3, note=55, velocity=127, time=32),
    Message('note_on', channel=3, note=62, velocity=127, time=0),
    Message('note_off', channel=3, note=55, velocity=127, time=64),
    Message('note_off', channel=3, note=62, velocity=127, time=0),
    Message('note_on', channel=3, note=52, velocity=127, time=32),
    Message('note_on', channel=3, note=59, velocity=127, time=0),
    Message('note_off', channel=3, note=52, velocity=127, time=64),
    Message('note_off', channel=3, note=59, velocity=127, time=0),
    Message('note_on', channel=3, note=59, velocity=127, time=32),
    Message('note_on', channel=3, note=66, velocity=127, time=0),
    Message('note_on', channel=3, note=71, velocity=127, time=0),
    Message('note_off', channel=3, note=59, velocity=127, time=256),
    Message('note_off', channel=3, note=66, velocity=127, time=0),
    Message('note_off', channel=3, note=71, velocity=127, time=0),
    Message('note_on', channel=3, note=59, velocity=127, time=32),
    Message('note_on', channel=3, note=66, velocity=127, time=0),
    Message('note_off', channel=3, note=59, velocity=127, time=64),
    Message('note_off', channel=3, note=66, velocity=127, time=0),
    Message('note_on', channel=3, note=66, velocity=127, time=32),
    Message('note_on', channel=3, note=59, velocity=127, time=0),
    Message('note_off', channel=3, note=66, velocity=127, time=64),
    Message('note_off', channel=3, note=59, velocity=127, time=0),
    Message('note_on', channel=3, note=66, velocity=127, time=32),
    Message('note_on', channel=3, note=59, velocity=127, time=0),
    Message('note_off', channel=3, note=66, velocity=127, time=64),
    Message('note_off', channel=3, note=59, velocity=127, time=0),
    Message('note_on', channel=3, note=54, velocity=127, time=32),
    Message('note_on', channel=3, note=61, velocity=127, time=0),
    Message('note_off', channel=3, note=54, velocity=127, time=64),
    Message('note_off', channel=3, note=61, velocity=127, time=0),
    Message('note_on', channel=3, note=54, velocity=127, time=32),
    Message('note_on', channel=3, note=61, velocity=127, time=0),
    Message('note_off', channel=3, note=54, velocity=127, time=64),
    Message('note_off', channel=3, note=61, velocity=127, time=0),
    Message('note_on', channel=3, note=55, velocity=127, time=32),
    Message('note_on', channel=3, note=62, velocity=127, time=0),
    Message('note_off', channel=3, note=55, velocity=127, time=64),
    Message('note_off', channel=3, note=62, velocity=127, time=0),
    Message('note_on', channel=3, note=55, velocity=127, time=32),
    Message('note_on', channel=3, note=62, velocity=127, time=0),
    Message('note_off', channel=3, note=55, velocity=127, time=64),
    Message('note_off', channel=3, note=62, velocity=127, time=0),
    Message('note_on', channel=3, note=52, velocity=127, time=32),
    Message('note_on', channel=3, note=59, velocity=127, time=0),
    Message('note_off', channel=3, note=52, velocity=127, time=64),
    Message('note_off', channel=3, note=59, velocity=127, time=0),
    Message('note_on', channel=3, note=52, velocity=127, time=32),
    Message('note_on', channel=3, note=59, velocity=127, time=0),
    Message('note_off', channel=3, note=52, velocity=127, time=64),
    Message('note_off', channel=3, note=59, velocity=127, time=0),
    Message('note_on', channel=3, note=54, velocity=127, time=32),
    Message('note_on', channel=3, note=61, velocity=127, time=0),
    Message('note_off', channel=3, note=54, velocity=127, time=64),
    Message('note_off', channel=3, note=61, velocity=127, time=0),
    Message('note_on', channel=3, note=54, velocity=127, time=32),
    Message('note_on', channel=3, note=61, velocity=127, time=0),
    Message('note_off', channel=3, note=54, velocity=127, time=64),
    Message('note_off', channel=3, note=61, velocity=127, time=0),
    Message('note_on', channel=3, note=55, velocity=127, time=32),
    Message('note_on', channel=3, note=62, velocity=127, time=0),
    Message('note_off', channel=3, note=55, velocity=127, time=64),
    Message('note_off', channel=3, note=62, velocity=127, time=0),
    Message('note_on', channel=3, note=52, velocity=127, time=32),
    Message('note_on', channel=3, note=59, velocity=127, time=0),
    Message('note_off', channel=3, note=52, velocity=127, time=64),
    Message('note_off', channel=3, note=59, velocity=127, time=0),
    Message('note_on', channel=3, note=59, velocity=127, time=32),
    Message('note_on', channel=3, note=66, velocity=127, time=0),
    Message('note_on', channel=3, note=71, velocity=127, time=0),
    Message('note_off', channel=3, note=59, velocity=127, time=256),
    Message('note_off', channel=3, note=66, velocity=127, time=0),
    Message('note_off', channel=3, note=71, velocity=127, time=0),
    Message('note_on', channel=3, note=59, velocity=127, time=32),
    Message('note_on', channel=3, note=66, velocity=127, time=0),
    Message('note_off', channel=3, note=59, velocity=127, time=64),
    Message('note_off', channel=3, note=66, velocity=127, time=0),
    Message('note_on', channel=3, note=66, velocity=127, time=32),
    Message('note_on', channel=3, note=59, velocity=127, time=0),
    Message('note_off', channel=3, note=66, velocity=127, time=64),
    Message('note_off', channel=3, note=59, velocity=127, time=0),
    Message('note_on', channel=3, note=66, velocity=127, time=32),
    Message('note_on', channel=3, note=59, velocity=127, time=0),
    Message('note_off', channel=3, note=66, velocity=127, time=64),
    Message('note_off', channel=3, note=59, velocity=127, time=0),
    Message('note_on', channel=3, note=54, velocity=127, time=32),
    Message('note_on', channel=3, note=61, velocity=127, time=0),
    Message('note_off', channel=3, note=54, velocity=127, time=64),
    Message('note_off', channel=3, note=61, velocity=127, time=0),
    Message('note_on', channel=3, note=54, velocity=127, time=32),
    Message('note_on', channel=3, note=61, velocity=127, time=0),
    Message('note_off', channel=3, note=54, velocity=127, time=64),
    Message('note_off', channel=3, note=61, velocity=127, time=0),
    Message('note_on', channel=3, note=55, velocity=127, time=32),
    Message('note_on', channel=3, note=62, velocity=127, time=0),
    Message('note_off', channel=3, note=55, velocity=127, time=64),
    Message('note_off', channel=3, note=62, velocity=127, time=0),
    Message('note_on', channel=3, note=55, velocity=127, time=32),
    Message('note_on', channel=3, note=62, velocity=127, time=0),
    Message('note_off', channel=3, note=55, velocity=127, time=64),
    Message('note_off', channel=3, note=62, velocity=127, time=0),
    Message('note_on', channel=3, note=52, velocity=127, time=32),
    Message('note_on', channel=3, note=59, velocity=127, time=0),
    Message('note_off', channel=3, note=52, velocity=127, time=64),
    Message('note_off', channel=3, note=59, velocity=127, time=0),
    Message('note_on', channel=3, note=52, velocity=127, time=32),
    Message('note_on', channel=3, note=59, velocity=127, time=0),
    Message('note_off', channel=3, note=52, velocity=127, time=64),
    Message('note_off', channel=3, note=59, velocity=127, time=0),
    Message('note_on', channel=3, note=54, velocity=127, time=32),
    Message('note_on', channel=3, note=61, velocity=127, time=0),
    Message('note_off', channel=3, note=54, velocity=127, time=64),
    Message('note_off', channel=3, note=61, velocity=127, time=0),
    Message('note_on', channel=3, note=54, velocity=127, time=32),
    Message('note_on', channel=3, note=61, velocity=127, time=0),
    Message('note_off', channel=3, note=54, velocity=127, time=64),
    Message('note_off', channel=3, note=61, velocity=127, time=0),
    Message('note_on', channel=3, note=55, velocity=127, time=32),
    Message('note_on', channel=3, note=62, velocity=127, time=0),
    Message('note_off', channel=3, note=55, velocity=127, time=64),
    Message('note_off', channel=3, note=62, velocity=127, time=0),
    Message('note_on', channel=3, note=52, velocity=127, time=32),
    Message('note_on', channel=3, note=59, velocity=127, time=0),
    Message('note_off', channel=3, note=52, velocity=127, time=64),
    Message('note_off', channel=3, note=59, velocity=127, time=0),
    Message('note_on', channel=3, note=59, velocity=127, time=32),
    Message('note_on', channel=3, note=66, velocity=127, time=0),
    Message('note_on', channel=3, note=71, velocity=127, time=0),
    Message('note_off', channel=3, note=59, velocity=127, time=256),
    Message('note_off', channel=3, note=66, velocity=127, time=0),
    Message('note_off', channel=3, note=71, velocity=127, time=0),
    Message('note_on', channel=3, note=59, velocity=127, time=32),
    Message('note_on', channel=3, note=66, velocity=127, time=0),
    Message('note_off', channel=3, note=59, velocity=127, time=64),
    Message('note_off', channel=3, note=66, velocity=127, time=0),
    Message('note_on', channel=3, note=66, velocity=127, time=32),
    Message('note_on', channel=3, note=59, velocity=127, time=0),
    Message('note_off', channel=3, note=66, velocity=127, time=64),
    Message('note_off', channel=3, note=59, velocity=127, time=0),
    Message('note_on', channel=3, note=66, velocity=127, time=32),
    Message('note_on', channel=3, note=59, velocity=127, time=0),
    Message('note_off', channel=3, note=66, velocity=127, time=64),
    Message('note_off', channel=3, note=59, velocity=127, time=0),
    Message('note_on', channel=3, note=54, velocity=127, time=32),
    Message('note_on', channel=3, note=61, velocity=127, time=0),
    Message('note_off', channel=3, note=54, velocity=127, time=64),
    Message('note_off', channel=3, note=61, velocity=127, time=0),
    Message('note_on', channel=3, note=54, velocity=127, time=32),
    Message('note_on', channel=3, note=61, velocity=127, time=0),
    Message('note_off', channel=3, note=54, velocity=127, time=64),
    Message('note_off', channel=3, note=61, velocity=127, time=0),
    Message('note_on', channel=3, note=55, velocity=127, time=32),
    Message('note_on', channel=3, note=62, velocity=127, time=0),
    Message('note_off', channel=3, note=55, velocity=127, time=64),
    Message('note_off', channel=3, note=62, velocity=127, time=0),
    Message('note_on', channel=3, note=55, velocity=127, time=32),
    Message('note_on', channel=3, note=62, velocity=127, time=0),
    Message('note_off', channel=3, note=55, velocity=127, time=64),
    Message('note_off', channel=3, note=62, velocity=127, time=0),
    Message('note_on', channel=3, note=52, velocity=127, time=32),
    Message('note_on', channel=3, note=59, velocity=127, time=0),
    Message('note_off', channel=3, note=52, velocity=127, time=64),
    Message('note_off', channel=3, note=59, velocity=127, time=0),
    Message('note_on', channel=3, note=52, velocity=127, time=32),
    Message('note_on', channel=3, note=59, velocity=127, time=0),
    Message('note_off', channel=3, note=52, velocity=127, time=64),
    Message('note_off', channel=3, note=59, velocity=127, time=0),
    Message('note_on', channel=3, note=54, velocity=127, time=32),
    Message('note_on', channel=3, note=61, velocity=127, time=0),
    Message('note_off', channel=3, note=54, velocity=127, time=64),
    Message('note_off', channel=3, note=61, velocity=127, time=0),
    Message('note_on', channel=3, note=54, velocity=127, time=32),
    Message('note_on', channel=3, note=61, velocity=127, time=0),
    Message('note_off', channel=3, note=54, velocity=127, time=64),
    Message('note_off', channel=3, note=61, velocity=127, time=0),
    Message('note_on', channel=3, note=55, velocity=127, time=32),
    Message('note_on', channel=3, note=62, velocity=127, time=0),
    Message('note_off', channel=3, note=55, velocity=127, time=64),
    Message('note_off', channel=3, note=62, velocity=127, time=0),
    Message('note_on', channel=3, note=52, velocity=127, time=32),
    Message('note_on', channel=3, note=59, velocity=127, time=0),
    Message('note_off', channel=3, note=52, velocity=127, time=64),
    Message('note_off', channel=3, note=59, velocity=127, time=0),
    Message('note_on', channel=3, note=59, velocity=127, time=32),
    Message('note_on', channel=3, note=66, velocity=127, time=0),
    Message('note_on', channel=3, note=71, velocity=127, time=0),
    Message('note_off', channel=3, note=59, velocity=127, time=256),
    Message('note_off', channel=3, note=66, velocity=127, time=0),
    Message('note_off', channel=3, note=71, velocity=127, time=0),
    Message('note_on', channel=3, note=59, velocity=127, time=32),
    Message('note_on', channel=3, note=66, velocity=127, time=0),
    Message('note_off', channel=3, note=59, velocity=127, time=64),
    Message('note_off', channel=3, note=66, velocity=127, time=0),
    Message('note_on', channel=3, note=66, velocity=127, time=32),
    Message('note_on', channel=3, note=59, velocity=127, time=0),
    Message('note_off', channel=3, note=66, velocity=127, time=64),
    Message('note_off', channel=3, note=59, velocity=127, time=0),
    Message('note_on', channel=3, note=66, velocity=127, time=32),
    Message('note_on', channel=3, note=59, velocity=127, time=0),
    Message('note_off', channel=3, note=66, velocity=127, time=64),
    Message('note_off', channel=3, note=59, velocity=127, time=0),
    Message('note_on', channel=3, note=54, velocity=127, time=32),
    Message('note_on', channel=3, note=61, velocity=127, time=0),
    Message('note_off', channel=3, note=54, velocity=127, time=64),
    Message('note_off', channel=3, note=61, velocity=127, time=0),
    Message('note_on', channel=3, note=54, velocity=127, time=32),
    Message('note_on', channel=3, note=61, velocity=127, time=0),
    Message('note_off', channel=3, note=54, velocity=127, time=64),
    Message('note_off', channel=3, note=61, velocity=127, time=0),
    Message('note_on', channel=3, note=55, velocity=127, time=32),
    Message('note_on', channel=3, note=62, velocity=127, time=0),
    Message('note_off', channel=3, note=55, velocity=127, time=64),
    Message('note_off', channel=3, note=62, velocity=127, time=0),
    Message('note_on', channel=3, note=55, velocity=127, time=32),
    Message('note_on', channel=3, note=62, velocity=127, time=0),
    Message('note_off', channel=3, note=55, velocity=127, time=64),
    Message('note_off', channel=3, note=62, velocity=127, time=0),
    Message('note_on', channel=3, note=52, velocity=127, time=32),
    Message('note_on', channel=3, note=59, velocity=127, time=0),
    Message('note_off', channel=3, note=52, velocity=127, time=64),
    Message('note_off', channel=3, note=59, velocity=127, time=0),
    Message('note_on', channel=3, note=52, velocity=127, time=32),
    Message('note_on', channel=3, note=59, velocity=127, time=0),
    Message('note_off', channel=3, note=52, velocity=127, time=64),
    Message('note_off', channel=3, note=59, velocity=127, time=0),
    Message('note_on', channel=3, note=54, velocity=127, time=32),
    Message('note_on', channel=3, note=61, velocity=127, time=0),
    Message('note_off', channel=3, note=54, velocity=127, time=64),
    Message('note_off', channel=3, note=61, velocity=127, time=0),
    Message('note_on', channel=3, note=54, velocity=127, time=32),
    Message('note_on', channel=3, note=61, velocity=127, time=0),
    Message('note_off', channel=3, note=54, velocity=127, time=64),
    Message('note_off', channel=3, note=61, velocity=127, time=0),
    Message('note_on', channel=3, note=55, velocity=127, time=32),
    Message('note_on', channel=3, note=62, velocity=127, time=0),
    Message('note_off', channel=3, note=55, velocity=127, time=64),
    Message('note_off', channel=3, note=62, velocity=127, time=0),
    Message('note_on', channel=3, note=52, velocity=127, time=32),
    Message('note_on', channel=3, note=59, velocity=127, time=0),
    Message('note_off', channel=3, note=52, velocity=127, time=64),
    Message('note_off', channel=3, note=59, velocity=127, time=0),
    Message('note_on', channel=3, note=57, velocity=127, time=32),
    Message('note_on', channel=3, note=64, velocity=127, time=0),
    Message('note_on', channel=3, note=69, velocity=127, time=0),
    Message('note_off', channel=3, note=57, velocity=127, time=256),
    Message('note_off', channel=3, note=64, velocity=127, time=0),
    Message('note_off', channel=3, note=69, velocity=127, time=0),
    Message('note_on', channel=3, note=64, velocity=127, time=32),
    Message('note_on', channel=3, note=57, velocity=127, time=0),
    Message('note_off', channel=3, note=64, velocity=127, time=64),
    Message('note_off', channel=3, note=57, velocity=127, time=0),
    Message('note_on', channel=3, note=64, velocity=127, time=32),
    Message('note_on', channel=3, note=57, velocity=127, time=0),
    Message('note_off', channel=3, note=64, velocity=127, time=64),
    Message('note_off', channel=3, note=57, velocity=127, time=0),
    Message('note_on', channel=3, note=64, velocity=127, time=32),
    Message('note_on', channel=3, note=57, velocity=127, time=0),
    Message('note_off', channel=3, note=64, velocity=127, time=64),
    Message('note_off', channel=3, note=57, velocity=127, time=0),
    Message('note_on', channel=3, note=52, velocity=127, time=32),
    Message('note_on', channel=3, note=59, velocity=127, time=0),
    Message('note_off', channel=3, note=52, velocity=127, time=64),
    Message('note_off', channel=3, note=59, velocity=127, time=0),
    Message('note_on', channel=3, note=53, velocity=127, time=128),
    Message('note_on', channel=3, note=60, velocity=127, time=0),
    Message('note_off', channel=3, note=53, velocity=127, time=64),
    Message('note_off', channel=3, note=60, velocity=127, time=0),
    Message('note_on', channel=3, note=55, velocity=127, time=128),
    Message('note_on', channel=3, note=62, velocity=127, time=0),
    Message('note_off', channel=3, note=55, velocity=127, time=64),
    Message('note_off', channel=3, note=62, velocity=127, time=0),
    Message('note_on', channel=3, note=57, velocity=127, time=128),
    Message('note_on', channel=3, note=64, velocity=127, time=0),
    Message('note_off', channel=3, note=57, velocity=127, time=64),
    Message('note_off', channel=3, note=64, velocity=127, time=0),
    Message('note_on', channel=3, note=60, velocity=127, time=128),
    Message('note_on', channel=3, note=67, velocity=127, time=0),
    Message('note_off', channel=3, note=60, velocity=127, time=64),
    Message('note_off', channel=3, note=67, velocity=127, time=0),
    Message('note_on', channel=3, note=67, velocity=127, time=128),
    Message('note_on', channel=3, note=60, velocity=127, time=0),
    Message('note_off', channel=3, note=67, velocity=127, time=64),
    Message('note_off', channel=3, note=60, velocity=127, time=0),
    Message('note_on', channel=3, note=57, velocity=127, time=32),
    Message('note_on', channel=3, note=69, velocity=127, time=0),
    Message('note_on', channel=3, note=64, velocity=127, time=0),
    Message('note_off', channel=3, note=57, velocity=127, time=128),
    Message('note_off', channel=3, note=69, velocity=127, time=0),
    Message('note_off', channel=3, note=64, velocity=127, time=0),
    Message('note_on', channel=3, note=64, velocity=127, time=64),
    Message('note_on', channel=3, note=57, velocity=127, time=0),
    Message('note_off', channel=3, note=64, velocity=127, time=64),
    Message('note_off', channel=3, note=57, velocity=127, time=0),
    Message('note_on', channel=3, note=64, velocity=127, time=32),
    Message('note_on', channel=3, note=57, velocity=127, time=0),
    Message('note_off', channel=3, note=64, velocity=127, time=64),
    Message('note_off', channel=3, note=57, velocity=127, time=0),
    Message('note_on', channel=3, note=64, velocity=127, time=32),
    Message('note_on', channel=3, note=57, velocity=127, time=0),
    Message('note_off', channel=3, note=64, velocity=127, time=64),
    Message('note_off', channel=3, note=57, velocity=127, time=0),
    Message('note_on', channel=3, note=52, velocity=127, time=32),
    Message('note_on', channel=3, note=59, velocity=127, time=0),
    Message('note_off', channel=3, note=52, velocity=127, time=64),
    Message('note_off', channel=3, note=59, velocity=127, time=0),
    Message('note_on', channel=3, note=53, velocity=127, time=128),
    Message('note_on', channel=3, note=60, velocity=127, time=0),
    Message('note_off', channel=3, note=53, velocity=127, time=64),
    Message('note_off', channel=3, note=60, velocity=127, time=0),
    Message('note_on', channel=3, note=55, velocity=127, time=128),
    Message('note_on', channel=3, note=62, velocity=127, time=0),
    Message('note_off', channel=3, note=55, velocity=127, time=64),
    Message('note_off', channel=3, note=62, velocity=127, time=0),
    Message('note_on', channel=3, note=57, velocity=127, time=128),
    Message('note_on', channel=3, note=64, velocity=127, time=0),
    Message('note_off', channel=3, note=57, velocity=127, time=64),
    Message('note_off', channel=3, note=64, velocity=127, time=0),
    Message('note_on', channel=3, note=60, velocity=127, time=128),
    Message('note_on', channel=3, note=67, velocity=127, time=0),
    Message('note_off', channel=3, note=60, velocity=127, time=64),
    Message('note_off', channel=3, note=67, velocity=127, time=0),
    Message('note_on', channel=3, note=60, velocity=127, time=128),
    Message('note_on', channel=3, note=67, velocity=127, time=0),
    Message('note_off', channel=3, note=60, velocity=127, time=64),
    Message('note_off', channel=3, note=67, velocity=127, time=0),
    Message('note_on', channel=3, note=59, velocity=127, time=32),
    Message('note_on', channel=3, note=66, velocity=127, time=0),
    Message('note_on', channel=3, note=71, velocity=127, time=0),
    Message('note_off', channel=3, note=59, velocity=127, time=128),
    Message('note_off', channel=3, note=66, velocity=127, time=0),
    Message('note_off', channel=3, note=71, velocity=127, time=0),
    Message('note_on', channel=3, note=59, velocity=127, time=64),
    Message('note_on', channel=3, note=66, velocity=127, time=0),
    Message('note_off', channel=3, note=59, velocity=127, time=64),
    Message('note_off', channel=3, note=66, velocity=127, time=0),
    Message('note_on', channel=3, note=66, velocity=127, time=32),
    Message('note_on', channel=3, note=59, velocity=127, time=0),
    Message('note_off', channel=3, note=66, velocity=127, time=64),
    Message('note_off', channel=3, note=59, velocity=127, time=0),
    Message('note_on', channel=3, note=66, velocity=127, time=32),
    Message('note_on', channel=3, note=59, velocity=127, time=0),
    Message('note_off', channel=3, note=66, velocity=127, time=64),
    Message('note_off', channel=3, note=59, velocity=127, time=0),
    Message('note_on', channel=3, note=54, velocity=127, time=32),
    Message('note_on', channel=3, note=61, velocity=127, time=0),
    Message('note_off', channel=3, note=54, velocity=127, time=64),
    Message('note_off', channel=3, note=61, velocity=127, time=0),
    Message('note_on', channel=3, note=54, velocity=127, time=32),
    Message('note_on', channel=3, note=61, velocity=127, time=0),
    Message('note_off', channel=3, note=54, velocity=127, time=64),
    Message('note_off', channel=3, note=61, velocity=127, time=0),
    Message('note_on', channel=3, note=55, velocity=127, time=32),
    Message('note_on', channel=3, note=62, velocity=127, time=0),
    Message('note_off', channel=3, note=55, velocity=127, time=64),
    Message('note_off', channel=3, note=62, velocity=127, time=0),
    Message('note_on', channel=3, note=55, velocity=127, time=32),
    Message('note_on', channel=3, note=62, velocity=127, time=0),
    Message('note_off', channel=3, note=55, velocity=127, time=64),
    Message('note_off', channel=3, note=62, velocity=127, time=0),
    Message('note_on', channel=3, note=52, velocity=127, time=32),
    Message('note_on', channel=3, note=59, velocity=127, time=0),
    Message('note_off', channel=3, note=52, velocity=127, time=64),
    Message('note_off', channel=3, note=59, velocity=127, time=0),
    Message('note_on', channel=3, note=52, velocity=127, time=32),
    Message('note_on', channel=3, note=59, velocity=127, time=0),
    Message('note_off', channel=3, note=52, velocity=127, time=64),
    Message('note_off', channel=3, note=59, velocity=127, time=0),
    Message('note_on', channel=3, note=54, velocity=127, time=32),
    Message('note_on', channel=3, note=61, velocity=127, time=0),
    Message('note_off', channel=3, note=54, velocity=127, time=64),
    Message('note_off', channel=3, note=61, velocity=127, time=0),
    Message('note_on', channel=3, note=54, velocity=127, time=32),
    Message('note_on', channel=3, note=61, velocity=127, time=0),
    Message('note_off', channel=3, note=54, velocity=127, time=64),
    Message('note_off', channel=3, note=61, velocity=127, time=0),
    Message('note_on', channel=3, note=55, velocity=127, time=32),
    Message('note_on', channel=3, note=62, velocity=127, time=0),
    Message('note_off', channel=3, note=55, velocity=127, time=64),
    Message('note_off', channel=3, note=62, velocity=127, time=0),
    Message('note_on', channel=3, note=52, velocity=127, time=32),
    Message('note_on', channel=3, note=59, velocity=127, time=0),
    Message('note_off', channel=3, note=52, velocity=127, time=64),
    Message('note_off', channel=3, note=59, velocity=127, time=0),
    Message('note_on', channel=3, note=59, velocity=127, time=32),
    Message('note_on', channel=3, note=66, velocity=127, time=0),
    Message('note_on', channel=3, note=71, velocity=127, time=0),
    Message('note_off', channel=3, note=59, velocity=127, time=256),
    Message('note_off', channel=3, note=66, velocity=127, time=0),
    Message('note_off', channel=3, note=71, velocity=127, time=0),
    Message('note_on', channel=3, note=59, velocity=127, time=32),
    Message('note_on', channel=3, note=66, velocity=127, time=0),
    Message('note_off', channel=3, note=59, velocity=127, time=64),
    Message('note_off', channel=3, note=66, velocity=127, time=0),
    Message('note_on', channel=3, note=66, velocity=127, time=32),
    Message('note_on', channel=3, note=59, velocity=127, time=0),
    Message('note_off', channel=3, note=66, velocity=127, time=64),
    Message('note_off', channel=3, note=59, velocity=127, time=0),
    Message('note_on', channel=3, note=66, velocity=127, time=32),
    Message('note_on', channel=3, note=59, velocity=127, time=0),
    Message('note_off', channel=3, note=66, velocity=127, time=64),
    Message('note_off', channel=3, note=59, velocity=127, time=0),
    Message('note_on', channel=3, note=54, velocity=127, time=32),
    Message('note_on', channel=3, note=61, velocity=127, time=0),
    Message('note_off', channel=3, note=54, velocity=127, time=64),
    Message('note_off', channel=3, note=61, velocity=127, time=0),
    Message('note_on', channel=3, note=54, velocity=127, time=32),
    Message('note_on', channel=3, note=61, velocity=127, time=0),
    Message('note_off', channel=3, note=54, velocity=127, time=64),
    Message('note_off', channel=3, note=61, velocity=127, time=0),
    Message('note_on', channel=3, note=55, velocity=127, time=32),
    Message('note_on', channel=3, note=62, velocity=127, time=0),
    Message('note_off', channel=3, note=55, velocity=127, time=64),
    Message('note_off', channel=3, note=62, velocity=127, time=0),
    Message('note_on', channel=3, note=55, velocity=127, time=32),
    Message('note_on', channel=3, note=62, velocity=127, time=0),
    Message('note_off', channel=3, note=55, velocity=127, time=64),
    Message('note_off', channel=3, note=62, velocity=127, time=0),
    Message('note_on', channel=3, note=52, velocity=127, time=32),
    Message('note_on', channel=3, note=59, velocity=127, time=0),
    Message('note_off', channel=3, note=52, velocity=127, time=64),
    Message('note_off', channel=3, note=59, velocity=127, time=0),
    Message('note_on', channel=3, note=52, velocity=127, time=32),
    Message('note_on', channel=3, note=59, velocity=127, time=0),
    Message('note_off', channel=3, note=52, velocity=127, time=64),
    Message('note_off', channel=3, note=59, velocity=127, time=0),
    Message('note_on', channel=3, note=54, velocity=127, time=32),
    Message('note_on', channel=3, note=61, velocity=127, time=0),
    Message('note_off', channel=3, note=54, velocity=127, time=64),
    Message('note_off', channel=3, note=61, velocity=127, time=0),
    Message('note_on', channel=3, note=54, velocity=127, time=32),
    Message('note_on', channel=3, note=61, velocity=127, time=0),
    Message('note_off', channel=3, note=54, velocity=127, time=64),
    Message('note_off', channel=3, note=61, velocity=127, time=0),
    Message('note_on', channel=3, note=55, velocity=127, time=32),
    Message('note_on', channel=3, note=62, velocity=127, time=0),
    Message('note_off', channel=3, note=55, velocity=127, time=64),
    Message('note_off', channel=3, note=62, velocity=127, time=0),
    Message('note_on', channel=3, note=52, velocity=127, time=32),
    Message('note_on', channel=3, note=59, velocity=127, time=0),
    Message('note_off', channel=3, note=52, velocity=127, time=64),
    Message('note_off', channel=3, note=59, velocity=127, time=0),
    Message('note_on', channel=3, note=71, velocity=127, time=32),
    Message('note_on', channel=3, note=66, velocity=127, time=0),
    Message('note_on', channel=3, note=59, velocity=127, time=0),
    Message('note_off', channel=3, note=71, velocity=127, time=352),
    Message('note_off', channel=3, note=66, velocity=127, time=8),
    Message('note_off', channel=3, note=59, velocity=127, time=0),
    Message('note_on', channel=3, note=54, velocity=127, time=216),
    Message('note_on', channel=3, note=61, velocity=127, time=0),
    Message('note_on', channel=3, note=66, velocity=127, time=0),
    Message('note_off', channel=3, note=54, velocity=127, time=64),
    Message('note_off', channel=3, note=61, velocity=127, time=0),
    Message('note_off', channel=3, note=66, velocity=127, time=0),
    Message('note_on', channel=3, note=55, velocity=127, time=128),
    Message('note_on', channel=3, note=62, velocity=127, time=0),
    Message('note_on', channel=3, note=67, velocity=127, time=0),
    Message('note_off', channel=3, note=55, velocity=127, time=192),
    Message('note_off', channel=3, note=62, velocity=127, time=0),
    Message('note_off', channel=3, note=67, velocity=127, time=0),
    Message('note_on', channel=3, note=52, velocity=127, time=0),
    Message('note_off', channel=3, note=52, velocity=127, time=64),
    Message('note_on', channel=3, note=54, velocity=127, time=32),
    Message('note_off', channel=3, note=54, velocity=127, time=64),
    Message('note_on', channel=3, note=55, velocity=127, time=32),
    Message('note_off', channel=3, note=55, velocity=127, time=64),
    Message('note_on', channel=3, note=55, velocity=127, time=32),
    Message('note_off', channel=3, note=55, velocity=127, time=64),
    Message('note_on', channel=3, note=54, velocity=127, time=32),
    Message('note_off', channel=3, note=54, velocity=127, time=64),
    Message('note_on', channel=3, note=53, velocity=127, time=32),
    Message('note_off', channel=3, note=53, velocity=127, time=64),
    Message('note_on', channel=3, note=52, velocity=127, time=32),
    Message('note_on', channel=3, note=59, velocity=127, time=0),
    Message('note_on', channel=3, note=64, velocity=127, time=0),
    Message('note_off', channel=3, note=52, velocity=127, time=360),
    Message('note_off', channel=3, note=59, velocity=127, time=24),
    Message('note_off', channel=3, note=64, velocity=127, time=0),
    Message('note_on', channel=3, note=55, velocity=127, time=192),
    Message('note_on', channel=3, note=62, velocity=127, time=0),
    Message('note_on', channel=3, note=67, velocity=127, time=0),
    Message('note_off', channel=3, note=55, velocity=127, time=64),
    Message('note_off', channel=3, note=62, velocity=127, time=0),
    Message('note_off', channel=3, note=67, velocity=127, time=0),
    Message('note_on', channel=3, note=67, velocity=127, time=128),
    Message('note_on', channel=3, note=62, velocity=127, time=0),
    Message('note_on', channel=3, note=55, velocity=127, time=0),
    Message('note_off', channel=3, note=67, velocity=127, time=64),
    Message('note_off', channel=3, note=62, velocity=127, time=0),
    Message('note_off', channel=3, note=55, velocity=127, time=0),
    Message('note_on', channel=3, note=54, velocity=127, time=32),
    Message('note_on', channel=3, note=61, velocity=127, time=0),
    Message('note_on', channel=3, note=66, velocity=127, time=0),
    Message('note_off', channel=3, note=54, velocity=127, time=256),
    Message('note_off', channel=3, note=61, velocity=127, time=0),
    Message('note_off', channel=3, note=66, velocity=127, time=0),
    Message('note_on', channel=3, note=62, velocity=127, time=224),
    Message('note_on', channel=3, note=69, velocity=127, time=0),
    Message('note_on', channel=3, note=74, velocity=127, time=0),
    Message('note_off', channel=3, note=62, velocity=127, time=64),
    Message('note_off', channel=3, note=69, velocity=127, time=0),
    Message('note_off', channel=3, note=74, velocity=127, time=0),
    Message('note_on', channel=3, note=62, velocity=127, time=128),
    Message('note_on', channel=3, note=69, velocity=127, time=0),
    Message('note_on', channel=3, note=74, velocity=127, time=0),
    Message('note_off', channel=3, note=62, velocity=127, time=64),
    Message('note_off', channel=3, note=69, velocity=127, time=0),
    Message('note_off', channel=3, note=74, velocity=127, time=0),
    Message('note_on', channel=3, note=59, velocity=127, time=32),
    Message('note_on', channel=3, note=66, velocity=127, time=0),
    Message('note_on', channel=3, note=71, velocity=127, time=0),
    Message('note_off', channel=3, note=59, velocity=127, time=256),
    Message('note_off', channel=3, note=66, velocity=127, time=0),
    Message('note_off', channel=3, note=71, velocity=127, time=0),
    Message('note_on', channel=3, note=54, velocity=127, time=224),
    Message('note_on', channel=3, note=61, velocity=127, time=0),
    Message('note_on', channel=3, note=66, velocity=127, time=0),
    Message('note_off', channel=3, note=54, velocity=127, time=64),
    Message('note_off', channel=3, note=61, velocity=127, time=0),
    Message('note_off', channel=3, note=66, velocity=127, time=0),
    Message('note_on', channel=3, note=55, velocity=127, time=128),
    Message('note_on', channel=3, note=62, velocity=127, time=0),
    Message('note_on', channel=3, note=67, velocity=127, time=0),
    Message('note_off', channel=3, note=55, velocity=127, time=192),
    Message('note_off', channel=3, note=62, velocity=127, time=0),
    Message('note_off', channel=3, note=67, velocity=127, time=0),
    Message('note_on', channel=3, note=52, velocity=127, time=0),
    Message('note_off', channel=3, note=52, velocity=127, time=64),
    Message('note_on', channel=3, note=54, velocity=127, time=32),
    Message('note_off', channel=3, note=54, velocity=127, time=64),
    Message('note_on', channel=3, note=55, velocity=127, time=32),
    Message('note_off', channel=3, note=55, velocity=127, time=64),
    Message('note_on', channel=3, note=55, velocity=127, time=32),
    Message('note_off', channel=3, note=55, velocity=127, time=64),
    Message('note_on', channel=3, note=54, velocity=127, time=32),
    Message('note_off', channel=3, note=54, velocity=127, time=64),
    Message('note_on', channel=3, note=53, velocity=127, time=32),
    Message('note_off', channel=3, note=53, velocity=127, time=64),
    Message('note_on', channel=3, note=52, velocity=127, time=32),
    Message('note_on', channel=3, note=59, velocity=127, time=0),
    Message('note_on', channel=3, note=64, velocity=127, time=0),
    Message('note_off', channel=3, note=52, velocity=127, time=360),
    Message('note_off', channel=3, note=59, velocity=127, time=24),
    Message('note_off', channel=3, note=64, velocity=127, time=0),
    Message('note_on', channel=3, note=55, velocity=127, time=192),
    Message('note_on', channel=3, note=62, velocity=127, time=0),
    Message('note_on', channel=3, note=67, velocity=127, time=0),
    Message('note_off', channel=3, note=55, velocity=127, time=64),
    Message('note_off', channel=3, note=62, velocity=127, time=0),
    Message('note_off', channel=3, note=67, velocity=127, time=0),
    Message('note_on', channel=3, note=67, velocity=127, time=128),
    Message('note_on', channel=3, note=62, velocity=127, time=0),
    Message('note_on', channel=3, note=55, velocity=127, time=0),
    Message('note_off', channel=3, note=67, velocity=127, time=64),
    Message('note_off', channel=3, note=62, velocity=127, time=0),
    Message('note_off', channel=3, note=55, velocity=127, time=0),
    Message('note_on', channel=3, note=54, velocity=127, time=32),
    Message('note_on', channel=3, note=61, velocity=127, time=0),
    Message('note_on', channel=3, note=66, velocity=127, time=0),
    Message('note_off', channel=3, note=54, velocity=127, time=256),
    Message('note_off', channel=3, note=61, velocity=127, time=0),
    Message('note_off', channel=3, note=66, velocity=127, time=0),
    Message('note_on', channel=3, note=62, velocity=127, time=224),
    Message('note_on', channel=3, note=69, velocity=127, time=0),
    Message('note_on', channel=3, note=74, velocity=127, time=0),
    Message('note_off', channel=3, note=62, velocity=127, time=64),
    Message('note_off', channel=3, note=69, velocity=127, time=0),
    Message('note_off', channel=3, note=74, velocity=127, time=0),
    Message('note_on', channel=3, note=62, velocity=127, time=128),
    Message('note_on', channel=3, note=69, velocity=127, time=0),
    Message('note_on', channel=3, note=74, velocity=127, time=0),
    Message('note_off', channel=3, note=62, velocity=127, time=64),
    Message('note_off', channel=3, note=69, velocity=127, time=0),
    Message('note_off', channel=3, note=74, velocity=127, time=0),
    Message('note_on', channel=3, note=59, velocity=127, time=32),
    Message('note_on', channel=3, note=66, velocity=127, time=0),
    Message('note_on', channel=3, note=71, velocity=127, time=0),
    Message('note_off', channel=3, note=59, velocity=127, time=256),
    Message('note_off', channel=3, note=66, velocity=127, time=0),
    Message('note_off', channel=3, note=71, velocity=127, time=0),
    Message('note_on', channel=3, note=54, velocity=127, time=224),
    Message('note_on', channel=3, note=61, velocity=127, time=0),
    Message('note_on', channel=3, note=66, velocity=127, time=0),
    Message('note_off', channel=3, note=54, velocity=127, time=64),
    Message('note_off', channel=3, note=61, velocity=127, time=0),
    Message('note_off', channel=3, note=66, velocity=127, time=0),
    Message('note_on', channel=3, note=55, velocity=127, time=128),
    Message('note_on', channel=3, note=62, velocity=127, time=0),
    Message('note_on', channel=3, note=67, velocity=127, time=0),
    Message('note_off', channel=3, note=55, velocity=127, time=192),
    Message('note_off', channel=3, note=62, velocity=127, time=0),
    Message('note_off', channel=3, note=67, velocity=127, time=0),
    Message('note_on', channel=3, note=52, velocity=127, time=0),
    Message('note_off', channel=3, note=52, velocity=127, time=64),
    Message('note_on', channel=3, note=54, velocity=127, time=32),
    Message('note_off', channel=3, note=54, velocity=127, time=64),
    Message('note_on', channel=3, note=55, velocity=127, time=32),
    Message('note_off', channel=3, note=55, velocity=127, time=64),
    Message('note_on', channel=3, note=55, velocity=127, time=32),
    Message('note_off', channel=3, note=55, velocity=127, time=64),
    Message('note_on', channel=3, note=54, velocity=127, time=32),
    Message('note_off', channel=3, note=54, velocity=127, time=64),
    Message('note_on', channel=3, note=53, velocity=127, time=32),
    Message('note_off', channel=3, note=53, velocity=127, time=64),
    Message('note_on', channel=3, note=52, velocity=127, time=32),
    Message('note_on', channel=3, note=59, velocity=127, time=0),
    Message('note_on', channel=3, note=64, velocity=127, time=0),
    Message('note_off', channel=3, note=52, velocity=127, time=360),
    Message('note_off', channel=3, note=59, velocity=127, time=24),
    Message('note_off', channel=3, note=64, velocity=127, time=0),
    Message('note_on', channel=3, note=55, velocity=127, time=192),
    Message('note_on', channel=3, note=62, velocity=127, time=0),
    Message('note_on', channel=3, note=67, velocity=127, time=0),
    Message('note_off', channel=3, note=55, velocity=127, time=64),
    Message('note_off', channel=3, note=62, velocity=127, time=0),
    Message('note_off', channel=3, note=67, velocity=127, time=0),
    Message('note_on', channel=3, note=67, velocity=127, time=128),
    Message('note_on', channel=3, note=62, velocity=127, time=0),
    Message('note_on', channel=3, note=55, velocity=127, time=0),
    Message('note_off', channel=3, note=67, velocity=127, time=64),
    Message('note_off', channel=3, note=62, velocity=127, time=0),
    Message('note_off', channel=3, note=55, velocity=127, time=0),
    Message('note_on', channel=3, note=54, velocity=127, time=32),
    Message('note_on', channel=3, note=61, velocity=127, time=0),
    Message('note_on', channel=3, note=66, velocity=127, time=0),
    Message('note_off', channel=3, note=54, velocity=127, time=256),
    Message('note_off', channel=3, note=61, velocity=127, time=0),
    Message('note_off', channel=3, note=66, velocity=127, time=0),
    Message('note_on', channel=3, note=62, velocity=127, time=224),
    Message('note_on', channel=3, note=69, velocity=127, time=0),
    Message('note_on', channel=3, note=74, velocity=127, time=0),
    Message('note_off', channel=3, note=62, velocity=127, time=64),
    Message('note_off', channel=3, note=69, velocity=127, time=0),
    Message('note_off', channel=3, note=74, velocity=127, time=0),
    Message('note_on', channel=3, note=62, velocity=127, time=128),
    Message('note_on', channel=3, note=69, velocity=127, time=0),
    Message('note_on', channel=3, note=74, velocity=127, time=0),
    Message('note_off', channel=3, note=62, velocity=127, time=64),
    Message('note_off', channel=3, note=69, velocity=127, time=0),
    Message('note_off', channel=3, note=74, velocity=127, time=0),
    Message('note_on', channel=3, note=59, velocity=127, time=32),
    Message('note_on', channel=3, note=66, velocity=127, time=0),
    Message('note_on', channel=3, note=71, velocity=127, time=0),
    Message('note_off', channel=3, note=59, velocity=127, time=256),
    Message('note_off', channel=3, note=66, velocity=127, time=0),
    Message('note_off', channel=3, note=71, velocity=127, time=0),
    Message('note_on', channel=3, note=54, velocity=127, time=224),
    Message('note_on', channel=3, note=61, velocity=127, time=0),
    Message('note_on', channel=3, note=66, velocity=127, time=0),
    Message('note_off', channel=3, note=54, velocity=127, time=64),
    Message('note_off', channel=3, note=61, velocity=127, time=0),
    Message('note_off', channel=3, note=66, velocity=127, time=0),
    Message('note_on', channel=3, note=55, velocity=127, time=128),
    Message('note_on', channel=3, note=62, velocity=127, time=0),
    Message('note_on', channel=3, note=67, velocity=127, time=0),
    Message('note_off', channel=3, note=55, velocity=127, time=192),
    Message('note_off', channel=3, note=62, velocity=127, time=0),
    Message('note_off', channel=3, note=67, velocity=127, time=0),
    Message('note_on', channel=3, note=52, velocity=127, time=0),
    Message('note_off', channel=3, note=52, velocity=127, time=64),
    Message('note_on', channel=3, note=54, velocity=127, time=32),
    Message('note_off', channel=3, note=54, velocity=127, time=64),
    Message('note_on', channel=3, note=55, velocity=127, time=32),
    Message('note_off', channel=3, note=55, velocity=127, time=64),
    Message('note_on', channel=3, note=55, velocity=127, time=32),
    Message('note_off', channel=3, note=55, velocity=127, time=64),
    Message('note_on', channel=3, note=54, velocity=127, time=32),
    Message('note_off', channel=3, note=54, velocity=127, time=64),
    Message('note_on', channel=3, note=53, velocity=127, time=32),
    Message('note_off', channel=3, note=53, velocity=127, time=64),
    Message('note_on', channel=3, note=52, velocity=127, time=32),
    Message('note_on', channel=3, note=59, velocity=127, time=0),
    Message('note_on', channel=3, note=64, velocity=127, time=0),
    Message('note_off', channel=3, note=52, velocity=127, time=360),
    Message('note_off', channel=3, note=59, velocity=127, time=24),
    Message('note_off', channel=3, note=64, velocity=127, time=0),
    Message('note_on', channel=3, note=55, velocity=127, time=192),
    Message('note_on', channel=3, note=62, velocity=127, time=0),
    Message('note_on', channel=3, note=67, velocity=127, time=0),
    Message('note_off', channel=3, note=55, velocity=127, time=64),
    Message('note_off', channel=3, note=62, velocity=127, time=0),
    Message('note_off', channel=3, note=67, velocity=127, time=0),
    Message('note_on', channel=3, note=55, velocity=127, time=128),
    Message('note_on', channel=3, note=62, velocity=127, time=0),
    Message('note_on', channel=3, note=67, velocity=127, time=0),
    Message('note_off', channel=3, note=55, velocity=127, time=64),
    Message('note_off', channel=3, note=62, velocity=127, time=0),
    Message('note_off', channel=3, note=67, velocity=127, time=0),
    Message('note_on', channel=3, note=54, velocity=127, time=32),
    Message('note_on', channel=3, note=61, velocity=127, time=0),
    Message('note_on', channel=3, note=66, velocity=127, time=0),
    Message('note_off', channel=3, note=54, velocity=127, time=128),
    Message('note_off', channel=3, note=61, velocity=127, time=0),
    Message('note_off', channel=3, note=66, velocity=127, time=0),
    Message('note_on', channel=3, note=62, velocity=127, time=64),
    Message('note_off', channel=3, note=62, velocity=127, time=128),
    Message('note_on', channel=3, note=61, velocity=127, time=64),
    Message('note_off', channel=3, note=61, velocity=127, time=64),
    Message('note_on', channel=3, note=57, velocity=127, time=32),
    Message('note_off', channel=3, note=57, velocity=127, time=64),
    Message('note_on', channel=3, note=58, velocity=127, time=32),
    Message('note_off', channel=3, note=58, velocity=127, time=64),
    Message('note_on', channel=3, note=71, velocity=127, time=32),
    Message('note_on', channel=3, note=66, velocity=127, time=0),
    Message('note_on', channel=3, note=59, velocity=127, time=0),
    Message('note_off', channel=3, note=71, velocity=127, time=212),
    Message('note_off', channel=3, note=66, velocity=127, time=44),
    Message('note_off', channel=3, note=59, velocity=127, time=0),
    Message('note_on', channel=3, note=54, velocity=127, time=320),
    Message('note_on', channel=3, note=61, velocity=127, time=0),
    Message('note_on', channel=3, note=66, velocity=127, time=0),
    Message('note_off', channel=3, note=54, velocity=127, time=64),
    Message('note_off', channel=3, note=61, velocity=127, time=0),
    Message('note_off', channel=3, note=66, velocity=127, time=0),
    Message('note_on', channel=3, note=67, velocity=127, time=128),
    Message('note_on', channel=3, note=62, velocity=127, time=0),
    Message('note_on', channel=3, note=55, velocity=127, time=0),
    Message('note_off', channel=3, note=67, velocity=127, time=222),
    Message('note_off', channel=3, note=62, velocity=127, time=34),
    Message('note_off', channel=3, note=55, velocity=127, time=0),
    Message('note_on', channel=3, note=59, velocity=127, time=608),
    Message('note_on', channel=3, note=66, velocity=127, time=0),
    Message('note_on', channel=3, note=71, velocity=127, time=0),
    Message('note_off', channel=3, note=59, velocity=127, time=128),
    Message('note_off', channel=3, note=66, velocity=127, time=0),
    Message('note_off', channel=3, note=71, velocity=127, time=0),
    Message('note_on', channel=3, note=54, velocity=127, time=352),
    Message('note_on', channel=3, note=61, velocity=127, time=0),
    Message('note_on', channel=3, note=66, velocity=127, time=0),
    Message('note_off', channel=3, note=54, velocity=127, time=64),
    Message('note_off', channel=3, note=61, velocity=127, time=0),
    Message('note_off', channel=3, note=66, velocity=127, time=0),
    Message('note_on', channel=3, note=67, velocity=127, time=128),
    Message('note_on', channel=3, note=62, velocity=127, time=0),
    Message('note_on', channel=3, note=55, velocity=127, time=0),
    Message('note_off', channel=3, note=67, velocity=127, time=222),
    Message('note_off', channel=3, note=62, velocity=127, time=34),
    Message('note_off', channel=3, note=55, velocity=127, time=0),
    Message('note_on', channel=3, note=62, velocity=127, time=320),
    Message('note_on', channel=3, note=69, velocity=127, time=0),
    Message('note_on', channel=3, note=74, velocity=127, time=0),
    Message('note_off', channel=3, note=62, velocity=127, time=64),
    Message('note_off', channel=3, note=69, velocity=127, time=0),
    Message('note_off', channel=3, note=74, velocity=127, time=0),
    Message('note_on', channel=3, note=71, velocity=127, time=128),
    Message('note_on', channel=3, note=66, velocity=127, time=0),
    Message('note_on', channel=3, note=59, velocity=127, time=0),
    Message('note_off', channel=3, note=71, velocity=127, time=222),
    Message('note_off', channel=3, note=66, velocity=127, time=34),
    Message('note_off', channel=3, note=59, velocity=127, time=0),
    Message('note_on', channel=3, note=54, velocity=127, time=320),
    Message('note_on', channel=3, note=61, velocity=127, time=0),
    Message('note_on', channel=3, note=66, velocity=127, time=0),
    Message('note_off', channel=3, note=54, velocity=127, time=64),
    Message('note_off', channel=3, note=61, velocity=127, time=0),
    Message('note_off', channel=3, note=66, velocity=127, time=0),
    Message('note_on', channel=3, note=67, velocity=127, time=128),
    Message('note_on', channel=3, note=62, velocity=127, time=0),
    Message('note_on', channel=3, note=55, velocity=127, time=0),
    Message('note_off', channel=3, note=67, velocity=127, time=222),
    Message('note_off', channel=3, note=62, velocity=127, time=34),
    Message('note_off', channel=3, note=55, velocity=127, time=0),
    Message('note_on', channel=3, note=71, velocity=127, time=608),
    Message('note_on', channel=3, note=66, velocity=127, time=0),
    Message('note_on', channel=3, note=59, velocity=127, time=0),
    Message('note_off', channel=3, note=71, velocity=127, time=128),
    Message('note_off', channel=3, note=66, velocity=127, time=0),
    Message('note_off', channel=3, note=59, velocity=127, time=0),
    Message('note_on', channel=3, note=54, velocity=127, time=352),
    Message('note_on', channel=3, note=61, velocity=127, time=0),
    Message('note_on', channel=3, note=66, velocity=127, time=0),
    Message('note_off', channel=3, note=54, velocity=127, time=64),
    Message('note_off', channel=3, note=61, velocity=127, time=0),
    Message('note_off', channel=3, note=66, velocity=127, time=0),
    Message('note_on', channel=3, note=67, velocity=127, time=128),
    Message('note_on', channel=3, note=62, velocity=127, time=0),
    Message('note_on', channel=3, note=55, velocity=127, time=0),
    Message('note_off', channel=3, note=67, velocity=127, time=222),
    Message('note_off', channel=3, note=62, velocity=127, time=34),
    Message('note_off', channel=3, note=55, velocity=127, time=0),
    Message('note_on', channel=3, note=62, velocity=127, time=320),
    Message('note_on', channel=3, note=69, velocity=127, time=0),
    Message('note_on', channel=3, note=74, velocity=127, time=0),
    Message('note_off', channel=3, note=62, velocity=127, time=64),
    Message('note_off', channel=3, note=69, velocity=127, time=0),
    Message('note_off', channel=3, note=74, velocity=127, time=0),
    Message('note_on', channel=3, note=69, velocity=127, time=128),
    Message('note_on', channel=3, note=64, velocity=127, time=0),
    Message('note_on', channel=3, note=57, velocity=127, time=0),
    Message('note_off', channel=3, note=69, velocity=127, time=222),
    Message('note_off', channel=3, note=64, velocity=127, time=34),
    Message('note_off', channel=3, note=57, velocity=127, time=0),
    Message('note_on', channel=3, note=52, velocity=127, time=320),
    Message('note_on', channel=3, note=59, velocity=127, time=0),
    Message('note_on', channel=3, note=64, velocity=127, time=0),
    Message('note_off', channel=3, note=52, velocity=127, time=64),
    Message('note_off', channel=3, note=59, velocity=127, time=0),
    Message('note_off', channel=3, note=64, velocity=127, time=0),
    Message('note_on', channel=3, note=65, velocity=127, time=128),
    Message('note_on', channel=3, note=60, velocity=127, time=0),
    Message('note_on', channel=3, note=53, velocity=127, time=0),
    Message('note_off', channel=3, note=65, velocity=127, time=222),
    Message('note_off', channel=3, note=60, velocity=127, time=34),
    Message('note_off', channel=3, note=53, velocity=127, time=0),
    Message('note_on', channel=3, note=57, velocity=127, time=608),
    Message('note_on', channel=3, note=64, velocity=127, time=0),
    Message('note_on', channel=3, note=69, velocity=127, time=0),
    Message('note_off', channel=3, note=57, velocity=127, time=128),
    Message('note_off', channel=3, note=64, velocity=127, time=0),
    Message('note_off', channel=3, note=69, velocity=127, time=0),
    Message('note_on', channel=3, note=52, velocity=127, time=352),
    Message('note_on', channel=3, note=59, velocity=127, time=0),
    Message('note_on', channel=3, note=64, velocity=127, time=0),
    Message('note_off', channel=3, note=52, velocity=127, time=64),
    Message('note_off', channel=3, note=59, velocity=127, time=0),
    Message('note_off', channel=3, note=64, velocity=127, time=0),
    Message('note_on', channel=3, note=65, velocity=127, time=128),
    Message('note_on', channel=3, note=60, velocity=127, time=0),
    Message('note_on', channel=3, note=53, velocity=127, time=0),
    Message('note_off', channel=3, note=65, velocity=127, time=222),
    Message('note_off', channel=3, note=60, velocity=127, time=34),
    Message('note_off', channel=3, note=53, velocity=127, time=0),
    Message('note_on', channel=3, note=60, velocity=127, time=320),
    Message('note_on', channel=3, note=67, velocity=127, time=0),
    Message('note_on', channel=3, note=72, velocity=127, time=0),
    Message('note_off', channel=3, note=60, velocity=127, time=64),
    Message('note_off', channel=3, note=67, velocity=127, time=0),
    Message('note_off', channel=3, note=72, velocity=127, time=0),
    Message('note_on', channel=3, note=71, velocity=127, time=128),
    Message('note_on', channel=3, note=66, velocity=127, time=0),
    Message('note_on', channel=3, note=59, velocity=127, time=0),
    Message('note_off', channel=3, note=71, velocity=127, time=222),
    Message('note_off', channel=3, note=66, velocity=127, time=34),
    Message('note_off', channel=3, note=59, velocity=127, time=0),
    Message('note_on', channel=3, note=54, velocity=127, time=320),
    Message('note_on', channel=3, note=61, velocity=127, time=0),
    Message('note_on', channel=3, note=66, velocity=127, time=0),
    Message('note_off', channel=3, note=54, velocity=127, time=64),
    Message('note_off', channel=3, note=61, velocity=127, time=0),
    Message('note_off', channel=3, note=66, velocity=127, time=0),
    Message('note_on', channel=3, note=67, velocity=127, time=128),
    Message('note_on', channel=3, note=62, velocity=127, time=0),
    Message('note_on', channel=3, note=55, velocity=127, time=0),
    Message('note_off', channel=3, note=67, velocity=127, time=222),
    Message('note_off', channel=3, note=62, velocity=127, time=34),
    Message('note_off', channel=3, note=55, velocity=127, time=0),
    Message('note_on', channel=3, note=71, velocity=127, time=608),
    Message('note_on', channel=3, note=66, velocity=127, time=0),
    Message('note_on', channel=3, note=59, velocity=127, time=0),
    Message('note_off', channel=3, note=71, velocity=127, time=128),
    Message('note_off', channel=3, note=66, velocity=127, time=0),
    Message('note_off', channel=3, note=59, velocity=127, time=0),
    Message('note_on', channel=3, note=54, velocity=127, time=352),
    Message('note_on', channel=3, note=61, velocity=127, time=0),
    Message('note_on', channel=3, note=66, velocity=127, time=0),
    Message('note_off', channel=3, note=54, velocity=127, time=64),
    Message('note_off', channel=3, note=61, velocity=127, time=0),
    Message('note_off', channel=3, note=66, velocity=127, time=0),
    Message('note_on', channel=3, note=67, velocity=127, time=128),
    Message('note_on', channel=3, note=62, velocity=127, time=0),
    Message('note_on', channel=3, note=55, velocity=127, time=0),
    Message('note_off', channel=3, note=67, velocity=127, time=222),
    Message('note_off', channel=3, note=62, velocity=127, time=34),
    Message('note_off', channel=3, note=55, velocity=127, time=0),
    Message('note_on', channel=3, note=62, velocity=127, time=320),
    Message('note_on', channel=3, note=69, velocity=127, time=0),
    Message('note_on', channel=3, note=74, velocity=127, time=0),
    Message('note_off', channel=3, note=62, velocity=127, time=64),
    Message('note_off', channel=3, note=69, velocity=127, time=0),
    Message('note_off', channel=3, note=74, velocity=127, time=0),
    Message('note_on', channel=3, note=59, velocity=127, time=128),
    Message('note_on', channel=3, note=66, velocity=127, time=0),
    Message('note_on', channel=3, note=71, velocity=127, time=0),
    Message('note_off', channel=3, note=59, velocity=127, time=64),
    Message('note_off', channel=3, note=66, velocity=127, time=0),
    Message('note_off', channel=3, note=71, velocity=127, time=0),
    Message('note_on', channel=3, note=59, velocity=127, time=1472),
    Message('note_off', channel=3, note=59, velocity=127, time=192),
    Message('note_on', channel=3, note=59, velocity=127, time=0),
    Message('note_off', channel=3, note=59, velocity=127, time=64),
    Message('note_on', channel=3, note=61, velocity=127, time=32),
    Message('note_off', channel=3, note=61, velocity=127, time=64),
    Message('note_on', channel=3, note=62, velocity=127, time=32),
    Message('note_off', channel=3, note=62, velocity=127, time=64),
    Message('note_on', channel=3, note=64, velocity=127, time=32),
    Message('note_on', channel=3, note=65, velocity=127, time=22),
    Message('note_off', channel=3, note=64, velocity=127, time=6),
    Message('note_off', channel=3, note=65, velocity=127, time=58),
    Message('note_on', channel=3, note=64, velocity=127, time=10),
    Message('note_off', channel=3, note=64, velocity=127, time=64),
    Message('note_on', channel=3, note=62, velocity=127, time=32),
    Message('note_off', channel=3, note=62, velocity=127, time=64),
    Message('note_on', channel=3, note=64, velocity=127, time=32),
    Message('note_off', channel=3, note=64, velocity=127, time=64),
    Message('note_on', channel=3, note=65, velocity=127, time=32),
    Message('note_off', channel=3, note=65, velocity=127, time=64),
    Message('note_on', channel=3, note=66, velocity=127, time=32),
    Message('note_off', channel=3, note=66, velocity=127, time=64),
    Message('note_on', channel=3, note=69, velocity=127, time=32),
    Message('note_off', channel=3, note=69, velocity=127, time=64),
    Message('note_on', channel=3, note=66, velocity=127, time=32),
    Message('note_off', channel=3, note=66, velocity=127, time=64),
    Message('note_on', channel=3, note=71, velocity=127, time=32),
    Message('note_off', channel=3, note=71, velocity=127, time=64),
    Message('note_on', channel=3, note=69, velocity=127, time=32),
    Message('note_off', channel=3, note=69, velocity=127, time=64),
    Message('note_on', channel=3, note=74, velocity=127, time=32),
    Message('note_off', channel=3, note=74, velocity=127, time=64),
    Message('note_on', channel=3, note=59, velocity=127, time=32),
    Message('note_off', channel=3, note=59, velocity=127, time=192),
    Message('note_on', channel=3, note=59, velocity=127, time=0),
    Message('note_off', channel=3, note=59, velocity=127, time=64),
    Message('note_on', channel=3, note=61, velocity=127, time=32),
    Message('note_off', channel=3, note=61, velocity=127, time=64),
    Message('note_on', channel=3, note=62, velocity=127, time=32),
    Message('note_off', channel=3, note=62, velocity=127, time=64),
    Message('note_on', channel=3, note=64, velocity=127, time=32),
    Message('note_on', channel=3, note=65, velocity=127, time=22),
    Message('note_off', channel=3, note=64, velocity=127, time=6),
    Message('note_off', channel=3, note=65, velocity=127, time=58),
    Message('note_on', channel=3, note=64, velocity=127, time=10),
    Message('note_off', channel=3, note=64, velocity=127, time=64),
    Message('note_on', channel=3, note=62, velocity=127, time=32),
    Message('note_off', channel=3, note=62, velocity=127, time=64),
    Message('note_on', channel=3, note=64, velocity=127, time=32),
    Message('note_off', channel=3, note=64, velocity=127, time=64),
    Message('note_on', channel=3, note=65, velocity=127, time=32),
    Message('note_off', channel=3, note=65, velocity=127, time=64),
    Message('note_on', channel=3, note=66, velocity=127, time=32),
    Message('note_off', channel=3, note=66, velocity=127, time=64),
    Message('note_on', channel=3, note=69, velocity=127, time=32),
    Message('note_off', channel=3, note=69, velocity=127, time=64),
    Message('note_on', channel=3, note=66, velocity=127, time=32),
    Message('note_off', channel=3, note=66, velocity=127, time=64),
    Message('note_on', channel=3, note=71, velocity=127, time=32),
    Message('note_off', channel=3, note=71, velocity=127, time=64),
    Message('note_on', channel=3, note=69, velocity=127, time=32),
    Message('note_off', channel=3, note=69, velocity=127, time=64),
    Message('note_on', channel=3, note=66, velocity=127, time=32),
    Message('note_off', channel=3, note=66, velocity=127, time=64),
    Message('note_on', channel=3, note=59, velocity=127, time=32),
    Message('note_off', channel=3, note=59, velocity=127, time=192),
    Message('note_on', channel=3, note=59, velocity=127, time=0),
    Message('note_off', channel=3, note=59, velocity=127, time=64),
    Message('note_on', channel=3, note=61, velocity=127, time=32),
    Message('note_off', channel=3, note=61, velocity=127, time=64),
    Message('note_on', channel=3, note=62, velocity=127, time=32),
    Message('note_off', channel=3, note=62, velocity=127, time=64),
    Message('note_on', channel=3, note=64, velocity=127, time=32),
    Message('note_on', channel=3, note=65, velocity=127, time=22),
    Message('note_off', channel=3, note=64, velocity=127, time=6),
    Message('note_off', channel=3, note=65, velocity=127, time=58),
    Message('note_on', channel=3, note=64, velocity=127, time=10),
    Message('note_off', channel=3, note=64, velocity=127, time=64),
    Message('note_on', channel=3, note=62, velocity=127, time=32),
    Message('note_off', channel=3, note=62, velocity=127, time=64),
    Message('note_on', channel=3, note=64, velocity=127, time=32),
    Message('note_off', channel=3, note=64, velocity=127, time=64),
    Message('note_on', channel=3, note=65, velocity=127, time=32),
    Message('note_off', channel=3, note=65, velocity=127, time=64),
    Message('note_on', channel=3, note=66, velocity=127, time=32),
    Message('note_off', channel=3, note=66, velocity=127, time=64),
    Message('note_on', channel=3, note=69, velocity=127, time=32),
    Message('note_off', channel=3, note=69, velocity=127, time=64),
    Message('note_on', channel=3, note=66, velocity=127, time=32),
    Message('note_off', channel=3, note=66, velocity=127, time=64),
    Message('note_on', channel=3, note=71, velocity=127, time=32),
    Message('note_off', channel=3, note=71, velocity=127, time=64),
    Message('note_on', channel=3, note=69, velocity=127, time=32),
    Message('note_off', channel=3, note=69, velocity=127, time=64),
    Message('note_on', channel=3, note=74, velocity=127, time=32),
    Message('note_off', channel=3, note=74, velocity=127, time=64),
    Message('note_on', channel=3, note=59, velocity=127, time=32),
    Message('note_off', channel=3, note=59, velocity=127, time=192),
    Message('note_on', channel=3, note=59, velocity=127, time=0),
    Message('note_off', channel=3, note=59, velocity=127, time=64),
    Message('note_on', channel=3, note=61, velocity=127, time=32),
    Message('note_off', channel=3, note=61, velocity=127, time=64),
    Message('note_on', channel=3, note=62, velocity=127, time=32),
    Message('note_off', channel=3, note=62, velocity=127, time=64),
    Message('note_on', channel=3, note=64, velocity=127, time=32),
    Message('note_on', channel=3, note=65, velocity=127, time=22),
    Message('note_off', channel=3, note=64, velocity=127, time=6),
    Message('note_off', channel=3, note=65, velocity=127, time=58),
    Message('note_on', channel=3, note=64, velocity=127, time=10),
    Message('note_off', channel=3, note=64, velocity=127, time=64),
    Message('note_on', channel=3, note=62, velocity=127, time=32),
    Message('note_off', channel=3, note=62, velocity=127, time=64),
    Message('note_on', channel=3, note=64, velocity=127, time=32),
    Message('note_off', channel=3, note=64, velocity=127, time=64),
    Message('note_on', channel=3, note=65, velocity=127, time=32),
    Message('note_off', channel=3, note=65, velocity=127, time=64),
    Message('note_on', channel=3, note=66, velocity=127, time=32),
    Message('note_off', channel=3, note=66, velocity=127, time=64),
    Message('note_on', channel=3, note=69, velocity=127, time=32),
    Message('note_off', channel=3, note=69, velocity=127, time=64),
    Message('note_on', channel=3, note=66, velocity=127, time=32),
    Message('note_off', channel=3, note=66, velocity=127, time=64),
    Message('note_on', channel=3, note=71, velocity=127, time=32),
    Message('note_off', channel=3, note=71, velocity=127, time=64),
    Message('note_on', channel=3, note=69, velocity=127, time=32),
    Message('note_off', channel=3, note=69, velocity=127, time=64),
    Message('note_on', channel=3, note=66, velocity=127, time=32),
    Message('note_off', channel=3, note=66, velocity=127, time=64),
    Message('note_on', channel=3, note=59, velocity=127, time=32),
    Message('note_off', channel=3, note=59, velocity=127, time=192),
    Message('note_on', channel=3, note=59, velocity=127, time=0),
    Message('note_off', channel=3, note=59, velocity=127, time=64),
    Message('note_on', channel=3, note=61, velocity=127, time=32),
    Message('note_off', channel=3, note=61, velocity=127, time=64),
    Message('note_on', channel=3, note=62, velocity=127, time=32),
    Message('note_off', channel=3, note=62, velocity=127, time=64),
    Message('note_on', channel=3, note=64, velocity=127, time=32),
    Message('note_on', channel=3, note=65, velocity=127, time=22),
    Message('note_off', channel=3, note=64, velocity=127, time=6),
    Message('note_off', channel=3, note=65, velocity=127, time=58),
    Message('note_on', channel=3, note=64, velocity=127, time=10),
    Message('note_off', channel=3, note=64, velocity=127, time=64),
    Message('note_on', channel=3, note=62, velocity=127, time=32),
    Message('note_off', channel=3, note=62, velocity=127, time=64),
    Message('note_on', channel=3, note=64, velocity=127, time=32),
    Message('note_off', channel=3, note=64, velocity=127, time=64),
    Message('note_on', channel=3, note=65, velocity=127, time=32),
    Message('note_off', channel=3, note=65, velocity=127, time=64),
    Message('note_on', channel=3, note=66, velocity=127, time=32),
    Message('note_off', channel=3, note=66, velocity=127, time=64),
    Message('note_on', channel=3, note=69, velocity=127, time=32),
    Message('note_off', channel=3, note=69, velocity=127, time=64),
    Message('note_on', channel=3, note=66, velocity=127, time=32),
    Message('note_off', channel=3, note=66, velocity=127, time=64),
    Message('note_on', channel=3, note=71, velocity=127, time=32),
    Message('note_off', channel=3, note=71, velocity=127, time=64),
    Message('note_on', channel=3, note=69, velocity=127, time=32),
    Message('note_off', channel=3, note=69, velocity=127, time=64),
    Message('note_on', channel=3, note=74, velocity=127, time=32),
    Message('note_off', channel=3, note=74, velocity=127, time=64),
    Message('note_on', channel=3, note=59, velocity=127, time=32),
    Message('note_off', channel=3, note=59, velocity=127, time=192),
    Message('note_on', channel=3, note=59, velocity=127, time=0),
    Message('note_off', channel=3, note=59, velocity=127, time=64),
    Message('note_on', channel=3, note=61, velocity=127, time=32),
    Message('note_off', channel=3, note=61, velocity=127, time=64),
    Message('note_on', channel=3, note=62, velocity=127, time=32),
    Message('note_off', channel=3, note=62, velocity=127, time=64),
    Message('note_on', channel=3, note=64, velocity=127, time=32),
    Message('note_on', channel=3, note=65, velocity=127, time=22),
    Message('note_off', channel=3, note=64, velocity=127, time=6),
    Message('note_off', channel=3, note=65, velocity=127, time=58),
    Message('note_on', channel=3, note=64, velocity=127, time=10),
    Message('note_off', channel=3, note=64, velocity=127, time=64),
    Message('note_on', channel=3, note=62, velocity=127, time=32),
    Message('note_off', channel=3, note=62, velocity=127, time=64),
    Message('note_on', channel=3, note=64, velocity=127, time=32),
    Message('note_off', channel=3, note=64, velocity=127, time=64),
    Message('note_on', channel=3, note=65, velocity=127, time=32),
    Message('note_off', channel=3, note=65, velocity=127, time=64),
    Message('note_on', channel=3, note=66, velocity=127, time=32),
    Message('note_off', channel=3, note=66, velocity=127, time=64),
    Message('note_on', channel=3, note=69, velocity=127, time=32),
    Message('note_off', channel=3, note=69, velocity=127, time=64),
    Message('note_on', channel=3, note=66, velocity=127, time=32),
    Message('note_off', channel=3, note=66, velocity=127, time=64),
    Message('note_on', channel=3, note=71, velocity=127, time=32),
    Message('note_off', channel=3, note=71, velocity=127, time=64),
    Message('note_on', channel=3, note=69, velocity=127, time=32),
    Message('note_off', channel=3, note=69, velocity=127, time=64),
    Message('note_on', channel=3, note=66, velocity=127, time=32),
    Message('note_off', channel=3, note=66, velocity=127, time=64),
    Message('note_on', channel=3, note=59, velocity=127, time=32),
    Message('note_off', channel=3, note=59, velocity=127, time=192),
    Message('note_on', channel=3, note=59, velocity=127, time=0),
    Message('note_off', channel=3, note=59, velocity=127, time=64),
    Message('note_on', channel=3, note=61, velocity=127, time=32),
    Message('note_off', channel=3, note=61, velocity=127, time=64),
    Message('note_on', channel=3, note=62, velocity=127, time=32),
    Message('note_off', channel=3, note=62, velocity=127, time=64),
    Message('note_on', channel=3, note=64, velocity=127, time=32),
    Message('note_on', channel=3, note=65, velocity=127, time=22),
    Message('note_off', channel=3, note=64, velocity=127, time=6),
    Message('note_off', channel=3, note=65, velocity=127, time=58),
    Message('note_on', channel=3, note=64, velocity=127, time=10),
    Message('note_off', channel=3, note=64, velocity=127, time=64),
    Message('note_on', channel=3, note=62, velocity=127, time=32),
    Message('note_off', channel=3, note=62, velocity=127, time=64),
    Message('note_on', channel=3, note=64, velocity=127, time=32),
    Message('note_off', channel=3, note=64, velocity=127, time=64),
    Message('note_on', channel=3, note=65, velocity=127, time=32),
    Message('note_off', channel=3, note=65, velocity=127, time=64),
    Message('note_on', channel=3, note=66, velocity=127, time=32),
    Message('note_off', channel=3, note=66, velocity=127, time=64),
    Message('note_on', channel=3, note=69, velocity=127, time=32),
    Message('note_off', channel=3, note=69, velocity=127, time=64),
    Message('note_on', channel=3, note=66, velocity=127, time=32),
    Message('note_off', channel=3, note=66, velocity=127, time=64),
    Message('note_on', channel=3, note=71, velocity=127, time=32),
    Message('note_off', channel=3, note=71, velocity=127, time=64),
    Message('note_on', channel=3, note=69, velocity=127, time=32),
    Message('note_off', channel=3, note=69, velocity=127, time=64),
    Message('note_on', channel=3, note=74, velocity=127, time=32),
    Message('note_off', channel=3, note=74, velocity=127, time=64),
    Message('note_on', channel=3, note=59, velocity=127, time=32),
    Message('note_off', channel=3, note=59, velocity=127, time=192),
    Message('note_on', channel=3, note=59, velocity=127, time=0),
    Message('note_off', channel=3, note=59, velocity=127, time=64),
    Message('note_on', channel=3, note=61, velocity=127, time=32),
    Message('note_off', channel=3, note=61, velocity=127, time=64),
    Message('note_on', channel=3, note=62, velocity=127, time=32),
    Message('note_off', channel=3, note=62, velocity=127, time=64),
    Message('note_on', channel=3, note=64, velocity=127, time=32),
    Message('note_on', channel=3, note=65, velocity=127, time=22),
    Message('note_off', channel=3, note=64, velocity=127, time=6),
    Message('note_off', channel=3, note=65, velocity=127, time=58),
    Message('note_on', channel=3, note=64, velocity=127, time=10),
    Message('note_off', channel=3, note=64, velocity=127, time=64),
    Message('note_on', channel=3, note=62, velocity=127, time=32),
    Message('note_off', channel=3, note=62, velocity=127, time=64),
    Message('note_on', channel=3, note=64, velocity=127, time=32),
    Message('note_off', channel=3, note=64, velocity=127, time=64),
    Message('note_on', channel=3, note=65, velocity=127, time=32),
    Message('note_off', channel=3, note=65, velocity=127, time=64),
    Message('note_on', channel=3, note=66, velocity=127, time=32),
    Message('note_off', channel=3, note=66, velocity=127, time=64),
    Message('note_on', channel=3, note=69, velocity=127, time=32),
    Message('note_off', channel=3, note=69, velocity=127, time=64),
    Message('note_on', channel=3, note=66, velocity=127, time=32),
    Message('note_off', channel=3, note=66, velocity=127, time=64),
    Message('note_on', channel=3, note=71, velocity=127, time=32),
    Message('note_off', channel=3, note=71, velocity=127, time=64),
    Message('note_on', channel=3, note=69, velocity=127, time=32),
    Message('note_off', channel=3, note=69, velocity=127, time=64),
    Message('note_on', channel=3, note=66, velocity=127, time=32),
    Message('note_off', channel=3, note=66, velocity=127, time=64),
    Message('note_on', channel=3, note=59, velocity=127, time=32),
    Message('note_off', channel=3, note=59, velocity=127, time=192),
    Message('note_on', channel=3, note=59, velocity=127, time=0),
    Message('note_off', channel=3, note=59, velocity=127, time=64),
    Message('note_on', channel=3, note=61, velocity=127, time=32),
    Message('note_off', channel=3, note=61, velocity=127, time=64),
    Message('note_on', channel=3, note=62, velocity=127, time=32),
    Message('note_off', channel=3, note=62, velocity=127, time=64),
    Message('note_on', channel=3, note=64, velocity=127, time=32),
    Message('note_on', channel=3, note=65, velocity=127, time=22),
    Message('note_off', channel=3, note=64, velocity=127, time=6),
    Message('note_off', channel=3, note=65, velocity=127, time=58),
    Message('note_on', channel=3, note=64, velocity=127, time=10),
    Message('note_off', channel=3, note=64, velocity=127, time=64),
    Message('note_on', channel=3, note=62, velocity=127, time=32),
    Message('note_off', channel=3, note=62, velocity=127, time=64),
    Message('note_on', channel=3, note=64, velocity=127, time=32),
    Message('note_off', channel=3, note=64, velocity=127, time=64),
    Message('note_on', channel=3, note=65, velocity=127, time=32),
    Message('note_off', channel=3, note=65, velocity=127, time=64),
    Message('note_on', channel=3, note=66, velocity=127, time=32),
    Message('note_off', channel=3, note=66, velocity=127, time=64),
    Message('note_on', channel=3, note=69, velocity=127, time=32),
    Message('note_off', channel=3, note=69, velocity=127, time=64),
    Message('note_on', channel=3, note=66, velocity=127, time=32),
    Message('note_off', channel=3, note=66, velocity=127, time=64),
    Message('note_on', channel=3, note=71, velocity=127, time=32),
    Message('note_off', channel=3, note=71, velocity=127, time=64),
    Message('note_on', channel=3, note=69, velocity=127, time=32),
    Message('note_off', channel=3, note=69, velocity=127, time=64),
    Message('note_on', channel=3, note=74, velocity=127, time=32),
    Message('note_off', channel=3, note=74, velocity=127, time=64),
    Message('note_on', channel=3, note=59, velocity=127, time=32),
    Message('note_off', channel=3, note=59, velocity=127, time=192),
    Message('note_on', channel=3, note=59, velocity=127, time=0),
    Message('note_off', channel=3, note=59, velocity=127, time=64),
    Message('note_on', channel=3, note=61, velocity=127, time=32),
    Message('note_off', channel=3, note=61, velocity=127, time=64),
    Message('note_on', channel=3, note=62, velocity=127, time=32),
    Message('note_off', channel=3, note=62, velocity=127, time=64),
    Message('note_on', channel=3, note=64, velocity=127, time=32),
    Message('note_on', channel=3, note=65, velocity=127, time=22),
    Message('note_off', channel=3, note=64, velocity=127, time=6),
    Message('note_off', channel=3, note=65, velocity=127, time=58),
    Message('note_on', channel=3, note=64, velocity=127, time=10),
    Message('note_off', channel=3, note=64, velocity=127, time=64),
    Message('note_on', channel=3, note=62, velocity=127, time=32),
    Message('note_off', channel=3, note=62, velocity=127, time=64),
    Message('note_on', channel=3, note=64, velocity=127, time=32),
    Message('note_off', channel=3, note=64, velocity=127, time=64),
    Message('note_on', channel=3, note=65, velocity=127, time=32),
    Message('note_off', channel=3, note=65, velocity=127, time=64),
    Message('note_on', channel=3, note=66, velocity=127, time=32),
    Message('note_off', channel=3, note=66, velocity=127, time=64),
    Message('note_on', channel=3, note=69, velocity=127, time=32),
    Message('note_off', channel=3, note=69, velocity=127, time=64),
    Message('note_on', channel=3, note=66, velocity=127, time=32),
    Message('note_off', channel=3, note=66, velocity=127, time=64),
    Message('note_on', channel=3, note=71, velocity=127, time=32),
    Message('note_off', channel=3, note=71, velocity=127, time=64),
    Message('note_on', channel=3, note=69, velocity=127, time=32),
    Message('note_off', channel=3, note=69, velocity=127, time=64),
    Message('note_on', channel=3, note=66, velocity=127, time=32),
    Message('note_off', channel=3, note=66, velocity=127, time=64),
    Message('note_on', channel=3, note=59, velocity=127, time=32),
    Message('note_off', channel=3, note=59, velocity=127, time=192),
    Message('note_on', channel=3, note=59, velocity=127, time=0),
    Message('note_off', channel=3, note=59, velocity=127, time=64),
    Message('note_on', channel=3, note=61, velocity=127, time=32),
    Message('note_off', channel=3, note=61, velocity=127, time=64),
    Message('note_on', channel=3, note=62, velocity=127, time=32),
    Message('note_off', channel=3, note=62, velocity=127, time=64),
    Message('note_on', channel=3, note=64, velocity=127, time=32),
    Message('note_on', channel=3, note=65, velocity=127, time=22),
    Message('note_off', channel=3, note=64, velocity=127, time=6),
    Message('note_off', channel=3, note=65, velocity=127, time=58),
    Message('note_on', channel=3, note=64, velocity=127, time=10),
    Message('note_off', channel=3, note=64, velocity=127, time=64),
    Message('note_on', channel=3, note=62, velocity=127, time=32),
    Message('note_off', channel=3, note=62, velocity=127, time=64),
    Message('note_on', channel=3, note=64, velocity=127, time=32),
    Message('note_off', channel=3, note=64, velocity=127, time=64),
    Message('note_on', channel=3, note=65, velocity=127, time=32),
    Message('note_off', channel=3, note=65, velocity=127, time=64),
    Message('note_on', channel=3, note=66, velocity=127, time=32),
    Message('note_off', channel=3, note=66, velocity=127, time=64),
    Message('note_on', channel=3, note=69, velocity=127, time=32),
    Message('note_off', channel=3, note=69, velocity=127, time=64),
    Message('note_on', channel=3, note=66, velocity=127, time=32),
    Message('note_off', channel=3, note=66, velocity=127, time=64),
    Message('note_on', channel=3, note=71, velocity=127, time=32),
    Message('note_off', channel=3, note=71, velocity=127, time=64),
    Message('note_on', channel=3, note=69, velocity=127, time=32),
    Message('note_off', channel=3, note=69, velocity=127, time=64),
    Message('note_on', channel=3, note=74, velocity=127, time=32),
    Message('note_off', channel=3, note=74, velocity=127, time=64),
    Message('note_on', channel=3, note=59, velocity=127, time=32),
    Message('note_off', channel=3, note=59, velocity=127, time=192),
    Message('note_on', channel=3, note=59, velocity=127, time=0),
    Message('note_off', channel=3, note=59, velocity=127, time=64),
    Message('note_on', channel=3, note=61, velocity=127, time=32),
    Message('note_off', channel=3, note=61, velocity=127, time=64),
    Message('note_on', channel=3, note=62, velocity=127, time=32),
    Message('note_off', channel=3, note=62, velocity=127, time=64),
    Message('note_on', channel=3, note=64, velocity=127, time=32),
    Message('note_on', channel=3, note=65, velocity=127, time=22),
    Message('note_off', channel=3, note=64, velocity=127, time=6),
    Message('note_off', channel=3, note=65, velocity=127, time=58),
    Message('note_on', channel=3, note=64, velocity=127, time=10),
    Message('note_off', channel=3, note=64, velocity=127, time=64),
    Message('note_on', channel=3, note=62, velocity=127, time=32),
    Message('note_off', channel=3, note=62, velocity=127, time=64),
    Message('note_on', channel=3, note=64, velocity=127, time=32),
    Message('note_off', channel=3, note=64, velocity=127, time=64),
    Message('note_on', channel=3, note=65, velocity=127, time=32),
    Message('note_off', channel=3, note=65, velocity=127, time=64),
    Message('note_on', channel=3, note=66, velocity=127, time=32),
    Message('note_off', channel=3, note=66, velocity=127, time=64),
    Message('note_on', channel=3, note=69, velocity=127, time=32),
    Message('note_off', channel=3, note=69, velocity=127, time=64),
    Message('note_on', channel=3, note=66, velocity=127, time=32),
    Message('note_off', channel=3, note=66, velocity=127, time=64),
    Message('note_on', channel=3, note=71, velocity=127, time=32),
    Message('note_off', channel=3, note=71, velocity=127, time=64),
    Message('note_on', channel=3, note=69, velocity=127, time=32),
    Message('note_off', channel=3, note=69, velocity=127, time=64),
    Message('note_on', channel=3, note=66, velocity=127, time=32),
    Message('note_off', channel=3, note=66, velocity=127, time=64),
    Message('note_on', channel=3, note=59, velocity=127, time=32),
    Message('note_off', channel=3, note=59, velocity=127, time=192),
    Message('note_on', channel=3, note=59, velocity=127, time=0),
    Message('note_off', channel=3, note=59, velocity=127, time=64),
    Message('note_on', channel=3, note=61, velocity=127, time=32),
    Message('note_off', channel=3, note=61, velocity=127, time=64),
    Message('note_on', channel=3, note=62, velocity=127, time=32),
    Message('note_off', channel=3, note=62, velocity=127, time=64),
    Message('note_on', channel=3, note=64, velocity=127, time=32),
    Message('note_on', channel=3, note=65, velocity=127, time=22),
    Message('note_off', channel=3, note=64, velocity=127, time=6),
    Message('note_off', channel=3, note=65, velocity=127, time=58),
    Message('note_on', channel=3, note=64, velocity=127, time=10),
    Message('note_off', channel=3, note=64, velocity=127, time=64),
    Message('note_on', channel=3, note=62, velocity=127, time=32),
    Message('note_off', channel=3, note=62, velocity=127, time=64),
    Message('note_on', channel=3, note=64, velocity=127, time=32),
    Message('note_off', channel=3, note=64, velocity=127, time=64),
    Message('note_on', channel=3, note=65, velocity=127, time=32),
    Message('note_off', channel=3, note=65, velocity=127, time=64),
    Message('note_on', channel=3, note=66, velocity=127, time=32),
    Message('note_off', channel=3, note=66, velocity=127, time=64),
    Message('note_on', channel=3, note=69, velocity=127, time=32),
    Message('note_off', channel=3, note=69, velocity=127, time=64),
    Message('note_on', channel=3, note=66, velocity=127, time=32),
    Message('note_off', channel=3, note=66, velocity=127, time=64),
    Message('note_on', channel=3, note=71, velocity=127, time=32),
    Message('note_off', channel=3, note=71, velocity=127, time=64),
    Message('note_on', channel=3, note=69, velocity=127, time=32),
    Message('note_off', channel=3, note=69, velocity=127, time=64),
    Message('note_on', channel=3, note=74, velocity=127, time=32),
    Message('note_off', channel=3, note=74, velocity=127, time=64),
    Message('note_on', channel=3, note=59, velocity=127, time=32),
    Message('note_off', channel=3, note=59, velocity=127, time=192),
    Message('note_on', channel=3, note=59, velocity=127, time=0),
    Message('note_off', channel=3, note=59, velocity=127, time=64),
    Message('note_on', channel=3, note=61, velocity=127, time=32),
    Message('note_off', channel=3, note=61, velocity=127, time=64),
    Message('note_on', channel=3, note=62, velocity=127, time=32),
    Message('note_off', channel=3, note=62, velocity=127, time=64),
    Message('note_on', channel=3, note=64, velocity=127, time=32),
    Message('note_on', channel=3, note=65, velocity=127, time=22),
    Message('note_off', channel=3, note=64, velocity=127, time=6),
    Message('note_off', channel=3, note=65, velocity=127, time=58),
    Message('note_on', channel=3, note=64, velocity=127, time=10),
    Message('note_off', channel=3, note=64, velocity=127, time=64),
    Message('note_on', channel=3, note=62, velocity=127, time=32),
    Message('note_off', channel=3, note=62, velocity=127, time=64),
    Message('note_on', channel=3, note=64, velocity=127, time=32),
    Message('note_off', channel=3, note=64, velocity=127, time=64),
    Message('note_on', channel=3, note=65, velocity=127, time=32),
    Message('note_off', channel=3, note=65, velocity=127, time=64),
    Message('note_on', channel=3, note=66, velocity=127, time=32),
    Message('note_off', channel=3, note=66, velocity=127, time=64),
    Message('note_on', channel=3, note=69, velocity=127, time=32),
    Message('note_off', channel=3, note=69, velocity=127, time=64),
    Message('note_on', channel=3, note=66, velocity=127, time=32),
    Message('note_off', channel=3, note=66, velocity=127, time=64),
    Message('note_on', channel=3, note=71, velocity=127, time=32),
    Message('note_off', channel=3, note=71, velocity=127, time=64),
    Message('note_on', channel=3, note=69, velocity=127, time=32),
    Message('note_off', channel=3, note=69, velocity=127, time=64),
    Message('note_on', channel=3, note=66, velocity=127, time=32),
    Message('note_off', channel=3, note=66, velocity=127, time=64),
    Message('note_on', channel=3, note=59, velocity=127, time=32),
    Message('note_off', channel=3, note=59, velocity=127, time=192),
    Message('note_on', channel=3, note=59, velocity=127, time=0),
    Message('note_off', channel=3, note=59, velocity=127, time=64),
    Message('note_on', channel=3, note=61, velocity=127, time=32),
    Message('note_off', channel=3, note=61, velocity=127, time=64),
    Message('note_on', channel=3, note=62, velocity=127, time=32),
    Message('note_off', channel=3, note=62, velocity=127, time=64),
    Message('note_on', channel=3, note=64, velocity=127, time=32),
    Message('note_on', channel=3, note=65, velocity=127, time=22),
    Message('note_off', channel=3, note=64, velocity=127, time=6),
    Message('note_off', channel=3, note=65, velocity=127, time=58),
    Message('note_on', channel=3, note=64, velocity=127, time=10),
    Message('note_off', channel=3, note=64, velocity=127, time=64),
    Message('note_on', channel=3, note=62, velocity=127, time=32),
    Message('note_off', channel=3, note=62, velocity=127, time=64),
    Message('note_on', channel=3, note=64, velocity=127, time=32),
    Message('note_off', channel=3, note=64, velocity=127, time=64),
    Message('note_on', channel=3, note=65, velocity=127, time=32),
    Message('note_off', channel=3, note=65, velocity=127, time=64),
    Message('note_on', channel=3, note=66, velocity=127, time=32),
    Message('note_off', channel=3, note=66, velocity=127, time=64),
    Message('note_on', channel=3, note=69, velocity=127, time=32),
    Message('note_off', channel=3, note=69, velocity=127, time=64),
    Message('note_on', channel=3, note=66, velocity=127, time=32),
    Message('note_off', channel=3, note=66, velocity=127, time=64),
    Message('note_on', channel=3, note=71, velocity=127, time=32),
    Message('note_off', channel=3, note=71, velocity=127, time=64),
    Message('note_on', channel=3, note=69, velocity=127, time=32),
    Message('note_off', channel=3, note=69, velocity=127, time=64),
    Message('note_on', channel=3, note=74, velocity=127, time=32),
    Message('note_off', channel=3, note=74, velocity=127, time=64),
    Message('note_on', channel=3, note=59, velocity=127, time=32),
    Message('note_off', channel=3, note=59, velocity=127, time=192),
    Message('note_on', channel=3, note=59, velocity=127, time=0),
    Message('note_off', channel=3, note=59, velocity=127, time=64),
    Message('note_on', channel=3, note=61, velocity=127, time=32),
    Message('note_off', channel=3, note=61, velocity=127, time=64),
    Message('note_on', channel=3, note=62, velocity=127, time=32),
    Message('note_off', channel=3, note=62, velocity=127, time=64),
    Message('note_on', channel=3, note=64, velocity=127, time=32),
    Message('note_on', channel=3, note=65, velocity=127, time=22),
    Message('note_off', channel=3, note=64, velocity=127, time=6),
    Message('note_off', channel=3, note=65, velocity=127, time=58),
    Message('note_on', channel=3, note=64, velocity=127, time=10),
    Message('note_off', channel=3, note=64, velocity=127, time=64),
    Message('note_on', channel=3, note=62, velocity=127, time=32),
    Message('note_off', channel=3, note=62, velocity=127, time=64),
    Message('note_on', channel=3, note=64, velocity=127, time=32),
    Message('note_off', channel=3, note=64, velocity=127, time=64),
    Message('note_on', channel=3, note=65, velocity=127, time=32),
    Message('note_off', channel=3, note=65, velocity=127, time=64),
    Message('note_on', channel=3, note=66, velocity=127, time=32),
    Message('note_off', channel=3, note=66, velocity=127, time=64),
    Message('note_on', channel=3, note=69, velocity=127, time=32),
    Message('note_off', channel=3, note=69, velocity=127, time=64),
    Message('note_on', channel=3, note=66, velocity=127, time=32),
    Message('note_off', channel=3, note=66, velocity=127, time=64),
    Message('note_on', channel=3, note=71, velocity=127, time=32),
    Message('note_off', channel=3, note=71, velocity=127, time=64),
    Message('note_on', channel=3, note=69, velocity=127, time=32),
    Message('note_off', channel=3, note=69, velocity=127, time=64),
    Message('note_on', channel=3, note=66, velocity=127, time=32),
    Message('note_off', channel=3, note=66, velocity=127, time=64),
    Message('note_on', channel=3, note=59, velocity=127, time=32),
    Message('note_off', channel=3, note=59, velocity=127, time=192),
    Message('note_on', channel=3, note=59, velocity=127, time=0),
    Message('note_off', channel=3, note=59, velocity=127, time=64),
    Message('note_on', channel=3, note=62, velocity=127, time=32),
    Message('note_off', channel=3, note=62, velocity=127, time=64),
    Message('note_on', channel=3, note=59, velocity=127, time=32),
    Message('note_off', channel=3, note=59, velocity=127, time=64),
    Message('note_on', channel=3, note=64, velocity=127, time=32),
    Message('note_off', channel=3, note=64, velocity=127, time=64),
    Message('note_on', channel=3, note=62, velocity=127, time=32),
    Message('note_off', channel=3, note=62, velocity=127, time=64),
    Message('note_on', channel=3, note=57, velocity=127, time=32),
    Message('note_off', channel=3, note=57, velocity=127, time=64),
    Message('note_on', channel=3, note=59, velocity=127, time=32),
    Message('note_off', channel=3, note=59, velocity=127, time=192),
    Message('note_on', channel=3, note=59, velocity=127, time=0),
    Message('note_off', channel=3, note=59, velocity=127, time=64),
    Message('note_on', channel=3, note=64, velocity=127, time=32),
    Message('note_off', channel=3, note=64, velocity=127, time=64),
    Message('note_on', channel=3, note=59, velocity=127, time=32),
    Message('note_off', channel=3, note=59, velocity=127, time=64),
    Message('note_on', channel=3, note=59, velocity=127, time=32),
    Message('note_off', channel=3, note=59, velocity=127, time=64),
    Message('note_on', channel=3, note=62, velocity=127, time=32),
    Message('note_off', channel=3, note=62, velocity=127, time=64),
    Message('note_on', channel=3, note=64, velocity=127, time=32),
    Message('note_off', channel=3, note=64, velocity=127, time=64),
    Message('note_on', channel=3, note=59, velocity=127, time=32),
    Message('note_off', channel=3, note=59, velocity=127, time=192),
    Message('note_on', channel=3, note=59, velocity=127, time=0),
    Message('note_off', channel=3, note=59, velocity=127, time=64),
    Message('note_on', channel=3, note=62, velocity=127, time=32),
    Message('note_off', channel=3, note=62, velocity=127, time=64),
    Message('note_on', channel=3, note=59, velocity=127, time=32),
    Message('note_off', channel=3, note=59, velocity=127, time=64),
    Message('note_on', channel=3, note=64, velocity=127, time=32),
    Message('note_off', channel=3, note=64, velocity=127, time=64),
    Message('note_on', channel=3, note=62, velocity=127, time=32),
    Message('note_off', channel=3, note=62, velocity=127, time=64),
    Message('note_on', channel=3, note=57, velocity=127, time=32),
    Message('note_off', channel=3, note=57, velocity=127, time=64),
    Message('note_on', channel=3, note=59, velocity=127, time=32),
    Message('note_off', channel=3, note=59, velocity=127, time=192),
    Message('note_on', channel=3, note=59, velocity=127, time=0),
    Message('note_off', channel=3, note=59, velocity=127, time=64),
    Message('note_on', channel=3, note=64, velocity=127, time=32),
    Message('note_off', channel=3, note=64, velocity=127, time=64),
    Message('note_on', channel=3, note=59, velocity=127, time=32),
    Message('note_off', channel=3, note=59, velocity=127, time=64),
    Message('note_on', channel=3, note=59, velocity=127, time=32),
    Message('note_off', channel=3, note=59, velocity=127, time=64),
    Message('note_on', channel=3, note=62, velocity=127, time=32),
    Message('note_off', channel=3, note=62, velocity=127, time=64),
    Message('note_on', channel=3, note=64, velocity=127, time=32),
    Message('note_off', channel=3, note=64, velocity=127, time=64),
    Message('note_on', channel=3, note=59, velocity=127, time=32),
    Message('note_off', channel=3, note=59, velocity=127, time=192),
    Message('note_on', channel=3, note=59, velocity=127, time=0),
    Message('note_off', channel=3, note=59, velocity=127, time=64),
    Message('note_on', channel=3, note=62, velocity=127, time=32),
    Message('note_off', channel=3, note=62, velocity=127, time=64),
    Message('note_on', channel=3, note=59, velocity=127, time=32),
    Message('note_off', channel=3, note=59, velocity=127, time=64),
    Message('note_on', channel=3, note=64, velocity=127, time=32),
    Message('note_off', channel=3, note=64, velocity=127, time=64),
    Message('note_on', channel=3, note=62, velocity=127, time=32),
    Message('note_off', channel=3, note=62, velocity=127, time=64),
    Message('note_on', channel=3, note=57, velocity=127, time=32),
    Message('note_off', channel=3, note=57, velocity=127, time=64),
    Message('note_on', channel=3, note=59, velocity=127, time=32),
    Message('note_off', channel=3, note=59, velocity=127, time=192),
    Message('note_on', channel=3, note=59, velocity=127, time=0),
    Message('note_off', channel=3, note=59, velocity=127, time=64),
    Message('note_on', channel=3, note=64, velocity=127, time=32),
    Message('note_off', channel=3, note=64, velocity=127, time=64),
    Message('note_on', channel=3, note=59, velocity=127, time=32),
    Message('note_off', channel=3, note=59, velocity=127, time=64),
    Message('note_on', channel=3, note=59, velocity=127, time=32),
    Message('note_off', channel=3, note=59, velocity=127, time=64),
    Message('note_on', channel=3, note=62, velocity=127, time=32),
    Message('note_off', channel=3, note=62, velocity=127, time=64),
    Message('note_on', channel=3, note=64, velocity=127, time=32),
    Message('note_off', channel=3, note=64, velocity=127, time=64),
    Message('note_on', channel=3, note=59, velocity=127, time=32),
    Message('note_off', channel=3, note=59, velocity=127, time=192),
    Message('note_on', channel=3, note=59, velocity=127, time=0),
    Message('note_off', channel=3, note=59, velocity=127, time=64),
    Message('note_on', channel=3, note=62, velocity=127, time=32),
    Message('note_off', channel=3, note=62, velocity=127, time=64),
    Message('note_on', channel=3, note=59, velocity=127, time=32),
    Message('note_off', channel=3, note=59, velocity=127, time=64),
    Message('note_on', channel=3, note=64, velocity=127, time=32),
    Message('note_off', channel=3, note=64, velocity=127, time=64),
    Message('note_on', channel=3, note=62, velocity=127, time=32),
    Message('note_off', channel=3, note=62, velocity=127, time=64),
    Message('note_on', channel=3, note=57, velocity=127, time=32),
    Message('note_off', channel=3, note=57, velocity=127, time=64),
    Message('note_on', channel=3, note=59, velocity=127, time=32),
    Message('note_off', channel=3, note=59, velocity=127, time=192),
    Message('note_on', channel=3, note=59, velocity=127, time=0),
    Message('note_off', channel=3, note=59, velocity=127, time=64),
    Message('note_on', channel=3, note=64, velocity=127, time=32),
    Message('note_off', channel=3, note=64, velocity=127, time=64),
    Message('note_on', channel=3, note=59, velocity=127, time=32),
    Message('note_off', channel=3, note=59, velocity=127, time=64),
    Message('note_on', channel=3, note=59, velocity=127, time=32),
    Message('note_off', channel=3, note=59, velocity=127, time=64),
    Message('note_on', channel=3, note=62, velocity=127, time=32),
    Message('note_off', channel=3, note=62, velocity=127, time=64),
    Message('note_on', channel=3, note=64, velocity=127, time=32),
    Message('note_off', channel=3, note=64, velocity=127, time=64),
    Message('note_on', channel=3, note=59, velocity=127, time=32),
    Message('note_off', channel=3, note=59, velocity=127, time=192),
    Message('note_on', channel=3, note=59, velocity=127, time=0),
    Message('note_off', channel=3, note=59, velocity=127, time=64),
    Message('note_on', channel=3, note=62, velocity=127, time=32),
    Message('note_off', channel=3, note=62, velocity=127, time=64),
    Message('note_on', channel=3, note=59, velocity=127, time=32),
    Message('note_off', channel=3, note=59, velocity=127, time=64),
    Message('note_on', channel=3, note=64, velocity=127, time=32),
    Message('note_off', channel=3, note=64, velocity=127, time=64),
    Message('note_on', channel=3, note=62, velocity=127, time=32),
    Message('note_off', channel=3, note=62, velocity=127, time=64),
    Message('note_on', channel=3, note=57, velocity=127, time=32),
    Message('note_off', channel=3, note=57, velocity=127, time=64),
    Message('note_on', channel=3, note=59, velocity=127, time=32),
    Message('note_off', channel=3, note=59, velocity=127, time=192),
    Message('note_on', channel=3, note=59, velocity=127, time=0),
    Message('note_off', channel=3, note=59, velocity=127, time=64),
    Message('note_on', channel=3, note=64, velocity=127, time=32),
    Message('note_off', channel=3, note=64, velocity=127, time=64),
    Message('note_on', channel=3, note=59, velocity=127, time=32),
    Message('note_off', channel=3, note=59, velocity=127, time=64),
    Message('note_on', channel=3, note=59, velocity=127, time=32),
    Message('note_off', channel=3, note=59, velocity=127, time=64),
    Message('note_on', channel=3, note=62, velocity=127, time=32),
    Message('note_off', channel=3, note=62, velocity=127, time=64),
    Message('note_on', channel=3, note=64, velocity=127, time=32),
    Message('note_off', channel=3, note=64, velocity=127, time=64),
    Message('note_on', channel=3, note=59, velocity=127, time=32),
    Message('note_off', channel=3, note=59, velocity=127, time=192),
    Message('note_on', channel=3, note=59, velocity=127, time=0),
    Message('note_off', channel=3, note=59, velocity=127, time=64),
    Message('note_on', channel=3, note=62, velocity=127, time=32),
    Message('note_off', channel=3, note=62, velocity=127, time=64),
    Message('note_on', channel=3, note=59, velocity=127, time=32),
    Message('note_off', channel=3, note=59, velocity=127, time=64),
    Message('note_on', channel=3, note=64, velocity=127, time=32),
    Message('note_off', channel=3, note=64, velocity=127, time=64),
    Message('note_on', channel=3, note=62, velocity=127, time=32),
    Message('note_off', channel=3, note=62, velocity=127, time=64),
    Message('note_on', channel=3, note=57, velocity=127, time=32),
    Message('note_off', channel=3, note=57, velocity=127, time=64),
    Message('note_on', channel=3, note=59, velocity=127, time=32),
    Message('note_off', channel=3, note=59, velocity=127, time=192),
    Message('note_on', channel=3, note=59, velocity=127, time=0),
    Message('note_off', channel=3, note=59, velocity=127, time=64),
    Message('note_on', channel=3, note=64, velocity=127, time=32),
    Message('note_off', channel=3, note=64, velocity=127, time=64),
    Message('note_on', channel=3, note=59, velocity=127, time=32),
    Message('note_off', channel=3, note=59, velocity=127, time=64),
    Message('note_on', channel=3, note=59, velocity=127, time=32),
    Message('note_off', channel=3, note=59, velocity=127, time=64),
    Message('note_on', channel=3, note=62, velocity=127, time=32),
    Message('note_off', channel=3, note=62, velocity=127, time=64),
    Message('note_on', channel=3, note=64, velocity=127, time=32),
    Message('note_off', channel=3, note=64, velocity=127, time=64),
    Message('note_on', channel=3, note=59, velocity=127, time=32),
    Message('note_off', channel=3, note=59, velocity=127, time=192),
    Message('note_on', channel=3, note=59, velocity=127, time=0),
    Message('note_off', channel=3, note=59, velocity=127, time=64),
    Message('note_on', channel=3, note=62, velocity=127, time=32),
    Message('note_off', channel=3, note=62, velocity=127, time=64),
    Message('note_on', channel=3, note=59, velocity=127, time=32),
    Message('note_off', channel=3, note=59, velocity=127, time=64),
    Message('note_on', channel=3, note=64, velocity=127, time=32),
    Message('note_off', channel=3, note=64, velocity=127, time=64),
    Message('note_on', channel=3, note=62, velocity=127, time=32),
    Message('note_off', channel=3, note=62, velocity=127, time=64),
    Message('note_on', channel=3, note=57, velocity=127, time=32),
    Message('note_off', channel=3, note=57, velocity=127, time=64),
    Message('note_on', channel=3, note=59, velocity=127, time=32),
    Message('note_off', channel=3, note=59, velocity=127, time=192),
    Message('note_on', channel=3, note=59, velocity=127, time=0),
    Message('note_off', channel=3, note=59, velocity=127, time=64),
    Message('note_on', channel=3, note=64, velocity=127, time=32),
    Message('note_off', channel=3, note=64, velocity=127, time=64),
    Message('note_on', channel=3, note=59, velocity=127, time=32),
    Message('note_off', channel=3, note=59, velocity=127, time=64),
    Message('note_on', channel=3, note=59, velocity=127, time=32),
    Message('note_off', channel=3, note=59, velocity=127, time=64),
    Message('note_on', channel=3, note=62, velocity=127, time=32),
    Message('note_off', channel=3, note=62, velocity=127, time=64),
    Message('note_on', channel=3, note=64, velocity=127, time=32),
    Message('note_off', channel=3, note=64, velocity=127, time=64),
    Message('note_on', channel=3, note=59, velocity=127, time=32),
    Message('note_off', channel=3, note=59, velocity=127, time=192),
    Message('note_on', channel=3, note=59, velocity=127, time=0),
    Message('note_off', channel=3, note=59, velocity=127, time=64),
    Message('note_on', channel=3, note=62, velocity=127, time=32),
    Message('note_off', channel=3, note=62, velocity=127, time=64),
    Message('note_on', channel=3, note=59, velocity=127, time=32),
    Message('note_off', channel=3, note=59, velocity=127, time=64),
    Message('note_on', channel=3, note=64, velocity=127, time=32),
    Message('note_off', channel=3, note=64, velocity=127, time=64),
    Message('note_on', channel=3, note=62, velocity=127, time=32),
    Message('note_off', channel=3, note=62, velocity=127, time=64),
    Message('note_on', channel=3, note=57, velocity=127, time=32),
    Message('note_off', channel=3, note=57, velocity=127, time=64),
    Message('note_on', channel=3, note=59, velocity=127, time=32),
    Message('note_off', channel=3, note=59, velocity=127, time=192),
    Message('note_on', channel=3, note=59, velocity=127, time=0),
    Message('note_off', channel=3, note=59, velocity=127, time=64),
    Message('note_on', channel=3, note=64, velocity=127, time=32),
    Message('note_off', channel=3, note=64, velocity=127, time=64),
    Message('note_on', channel=3, note=59, velocity=127, time=32),
    Message('note_off', channel=3, note=59, velocity=127, time=64),
    Message('note_on', channel=3, note=59, velocity=127, time=32),
    Message('note_off', channel=3, note=59, velocity=127, time=64),
    Message('note_on', channel=3, note=62, velocity=127, time=32),
    Message('note_off', channel=3, note=62, velocity=127, time=64),
    Message('note_on', channel=3, note=64, velocity=127, time=32),
    Message('note_off', channel=3, note=64, velocity=127, time=64),
    Message('note_on', channel=3, note=59, velocity=127, time=32),
    Message('note_on', channel=3, note=66, velocity=127, time=0),
    Message('note_on', channel=3, note=71, velocity=127, time=0),
    Message('note_off', channel=3, note=59, velocity=127, time=256),
    Message('note_off', channel=3, note=66, velocity=127, time=0),
    Message('note_off', channel=3, note=71, velocity=127, time=0),
    Message('note_on', channel=3, note=59, velocity=127, time=32),
    Message('note_on', channel=3, note=66, velocity=127, time=0),
    Message('note_off', channel=3, note=59, velocity=127, time=64),
    Message('note_off', channel=3, note=66, velocity=127, time=0),
    Message('note_on', channel=3, note=59, velocity=127, time=32),
    Message('note_on', channel=3, note=66, velocity=127, time=0),
    Message('note_off', channel=3, note=59, velocity=127, time=64),
    Message('note_off', channel=3, note=66, velocity=127, time=0),
    Message('note_on', channel=3, note=59, velocity=127, time=32),
    Message('note_on', channel=3, note=66, velocity=127, time=0),
    Message('note_off', channel=3, note=59, velocity=127, time=64),
    Message('note_off', channel=3, note=66, velocity=127, time=0),
    Message('note_on', channel=3, note=59, velocity=127, time=32),
    Message('note_on', channel=3, note=66, velocity=127, time=0),
    Message('note_off', channel=3, note=59, velocity=127, time=64),
    Message('note_off', channel=3, note=66, velocity=127, time=0),
    Message('note_on', channel=3, note=59, velocity=127, time=32),
    Message('note_on', channel=3, note=66, velocity=127, time=0),
    Message('note_off', channel=3, note=59, velocity=127, time=64),
    Message('note_off', channel=3, note=66, velocity=127, time=0),
    Message('note_on', channel=3, note=59, velocity=127, time=32),
    Message('note_on', channel=3, note=66, velocity=127, time=0),
    Message('note_off', channel=3, note=59, velocity=127, time=64),
    Message('note_off', channel=3, note=66, velocity=127, time=0),
    Message('note_on', channel=3, note=59, velocity=127, time=32),
    Message('note_on', channel=3, note=66, velocity=127, time=0),
    Message('note_off', channel=3, note=59, velocity=127, time=64),
    Message('note_off', channel=3, note=66, velocity=127, time=0),
    Message('note_on', channel=3, note=59, velocity=127, time=32),
    Message('note_on', channel=3, note=66, velocity=127, time=0),
    Message('note_off', channel=3, note=59, velocity=127, time=64),
    Message('note_off', channel=3, note=66, velocity=127, time=0),
    Message('note_on', channel=3, note=59, velocity=127, time=32),
    Message('note_on', channel=3, note=66, velocity=127, time=0),
    Message('note_off', channel=3, note=59, velocity=127, time=64),
    Message('note_off', channel=3, note=66, velocity=127, time=0),
    Message('note_on', channel=3, note=59, velocity=127, time=32),
    Message('note_on', channel=3, note=66, velocity=127, time=0),
    Message('note_off', channel=3, note=59, velocity=127, time=64),
    Message('note_off', channel=3, note=66, velocity=127, time=0),
    Message('note_on', channel=3, note=59, velocity=127, time=32),
    Message('note_on', channel=3, note=66, velocity=127, time=0),
    Message('note_on', channel=3, note=71, velocity=127, time=0),
    Message('note_off', channel=3, note=59, velocity=127, time=64),
    Message('note_off', channel=3, note=66, velocity=127, time=0),
    Message('note_off', channel=3, note=71, velocity=127, time=0),
    Message('note_on', channel=3, note=59, velocity=127, time=32),
    Message('note_on', channel=3, note=66, velocity=127, time=0),
    Message('note_on', channel=3, note=71, velocity=127, time=0),
    Message('note_off', channel=3, note=59, velocity=127, time=64),
    Message('note_off', channel=3, note=66, velocity=127, time=0),
    Message('note_off', channel=3, note=71, velocity=127, time=0),
    Message('note_on', channel=3, note=55, velocity=127, time=128),
    Message('note_on', channel=3, note=67, velocity=127, time=0),
    Message('note_on', channel=3, note=62, velocity=127, time=0),
    Message('note_off', channel=3, note=55, velocity=127, time=256),
    Message('note_off', channel=3, note=67, velocity=127, time=0),
    Message('note_off', channel=3, note=62, velocity=127, time=0),
    Message('note_on', channel=3, note=55, velocity=127, time=32),
    Message('note_on', channel=3, note=62, velocity=127, time=0),
    Message('note_off', channel=3, note=55, velocity=127, time=64),
    Message('note_off', channel=3, note=62, velocity=127, time=0),
    Message('note_on', channel=3, note=55, velocity=127, time=32),
    Message('note_on', channel=3, note=62, velocity=127, time=0),
    Message('note_off', channel=3, note=55, velocity=127, time=64),
    Message('note_off', channel=3, note=62, velocity=127, time=0),
    Message('note_on', channel=3, note=55, velocity=127, time=32),
    Message('note_on', channel=3, note=62, velocity=127, time=0),
    Message('note_off', channel=3, note=55, velocity=127, time=64),
    Message('note_off', channel=3, note=62, velocity=127, time=0),
    Message('note_on', channel=3, note=55, velocity=127, time=32),
    Message('note_on', channel=3, note=62, velocity=127, time=0),
    Message('note_off', channel=3, note=55, velocity=127, time=64),
    Message('note_off', channel=3, note=62, velocity=127, time=0),
    Message('note_on', channel=3, note=55, velocity=127, time=32),
    Message('note_on', channel=3, note=62, velocity=127, time=0),
    Message('note_off', channel=3, note=55, velocity=127, time=64),
    Message('note_off', channel=3, note=62, velocity=127, time=0),
    Message('note_on', channel=3, note=55, velocity=127, time=32),
    Message('note_on', channel=3, note=62, velocity=127, time=0),
    Message('note_off', channel=3, note=55, velocity=127, time=64),
    Message('note_off', channel=3, note=62, velocity=127, time=0),
    Message('note_on', channel=3, note=55, velocity=127, time=32),
    Message('note_on', channel=3, note=62, velocity=127, time=0),
    Message('note_off', channel=3, note=55, velocity=127, time=64),
    Message('note_off', channel=3, note=62, velocity=127, time=0),
    Message('note_on', channel=3, note=55, velocity=127, time=32),
    Message('note_on', channel=3, note=62, velocity=127, time=0),
    Message('note_off', channel=3, note=55, velocity=127, time=64),
    Message('note_off', channel=3, note=62, velocity=127, time=0),
    Message('note_on', channel=3, note=55, velocity=127, time=32),
    Message('note_on', channel=3, note=62, velocity=127, time=0),
    Message('note_off', channel=3, note=55, velocity=127, time=64),
    Message('note_off', channel=3, note=62, velocity=127, time=0),
    Message('note_on', channel=3, note=55, velocity=127, time=32),
    Message('note_on', channel=3, note=62, velocity=127, time=0),
    Message('note_off', channel=3, note=55, velocity=127, time=64),
    Message('note_off', channel=3, note=62, velocity=127, time=0),
    Message('note_on', channel=3, note=55, velocity=127, time=32),
    Message('note_on', channel=3, note=62, velocity=127, time=0),
    Message('note_on', channel=3, note=67, velocity=127, time=0),
    Message('note_off', channel=3, note=55, velocity=127, time=64),
    Message('note_off', channel=3, note=62, velocity=127, time=0),
    Message('note_off', channel=3, note=67, velocity=127, time=0),
    Message('note_on', channel=3, note=55, velocity=127, time=32),
    Message('note_on', channel=3, note=62, velocity=127, time=0),
    Message('note_on', channel=3, note=67, velocity=127, time=0),
    Message('note_off', channel=3, note=55, velocity=127, time=64),
    Message('note_off', channel=3, note=62, velocity=127, time=0),
    Message('note_off', channel=3, note=67, velocity=127, time=0),
    Message('note_on', channel=3, note=59, velocity=127, time=128),
    Message('note_on', channel=3, note=64, velocity=127, time=0),
    Message('note_on', channel=3, note=52, velocity=127, time=0),
    Message('note_off', channel=3, note=59, velocity=127, time=256),
    Message('note_off', channel=3, note=64, velocity=127, time=0),
    Message('note_off', channel=3, note=52, velocity=127, time=0),
    Message('note_on', channel=3, note=52, velocity=127, time=32),
    Message('note_on', channel=3, note=59, velocity=127, time=0),
    Message('note_off', channel=3, note=52, velocity=127, time=64),
    Message('note_off', channel=3, note=59, velocity=127, time=0),
    Message('note_on', channel=3, note=52, velocity=127, time=32),
    Message('note_on', channel=3, note=59, velocity=127, time=0),
    Message('note_off', channel=3, note=52, velocity=127, time=64),
    Message('note_off', channel=3, note=59, velocity=127, time=0),
    Message('note_on', channel=3, note=52, velocity=127, time=32),
    Message('note_on', channel=3, note=59, velocity=127, time=0),
    Message('note_off', channel=3, note=52, velocity=127, time=64),
    Message('note_off', channel=3, note=59, velocity=127, time=0),
    Message('note_on', channel=3, note=52, velocity=127, time=32),
    Message('note_on', channel=3, note=59, velocity=127, time=0),
    Message('note_off', channel=3, note=52, velocity=127, time=64),
    Message('note_off', channel=3, note=59, velocity=127, time=0),
    Message('note_on', channel=3, note=52, velocity=127, time=32),
    Message('note_on', channel=3, note=59, velocity=127, time=0),
    Message('note_off', channel=3, note=52, velocity=127, time=64),
    Message('note_off', channel=3, note=59, velocity=127, time=0),
    Message('note_on', channel=3, note=52, velocity=127, time=32),
    Message('note_on', channel=3, note=59, velocity=127, time=0),
    Message('note_off', channel=3, note=52, velocity=127, time=64),
    Message('note_off', channel=3, note=59, velocity=127, time=0),
    Message('note_on', channel=3, note=52, velocity=127, time=32),
    Message('note_on', channel=3, note=59, velocity=127, time=0),
    Message('note_off', channel=3, note=52, velocity=127, time=64),
    Message('note_off', channel=3, note=59, velocity=127, time=0),
    Message('note_on', channel=3, note=52, velocity=127, time=32),
    Message('note_on', channel=3, note=59, velocity=127, time=0),
    Message('note_off', channel=3, note=52, velocity=127, time=64),
    Message('note_off', channel=3, note=59, velocity=127, time=0),
    Message('note_on', channel=3, note=52, velocity=127, time=32),
    Message('note_on', channel=3, note=59, velocity=127, time=0),
    Message('note_off', channel=3, note=52, velocity=127, time=64),
    Message('note_off', channel=3, note=59, velocity=127, time=0),
    Message('note_on', channel=3, note=52, velocity=127, time=32),
    Message('note_on', channel=3, note=59, velocity=127, time=0),
    Message('note_off', channel=3, note=52, velocity=127, time=64),
    Message('note_off', channel=3, note=59, velocity=127, time=0),
    Message('note_on', channel=3, note=52, velocity=127, time=32),
    Message('note_on', channel=3, note=59, velocity=127, time=0),
    Message('note_on', channel=3, note=64, velocity=127, time=0),
    Message('note_off', channel=3, note=52, velocity=127, time=64),
    Message('note_off', channel=3, note=59, velocity=127, time=0),
    Message('note_off', channel=3, note=64, velocity=127, time=0),
    Message('note_on', channel=3, note=52, velocity=127, time=32),
    Message('note_on', channel=3, note=59, velocity=127, time=0),
    Message('note_on', channel=3, note=64, velocity=127, time=0),
    Message('note_off', channel=3, note=52, velocity=127, time=64),
    Message('note_off', channel=3, note=59, velocity=127, time=0),
    Message('note_off', channel=3, note=64, velocity=127, time=0),
    Message('note_on', channel=3, note=54, velocity=127, time=128),
    Message('note_on', channel=3, note=66, velocity=127, time=0),
    Message('note_on', channel=3, note=61, velocity=127, time=0),
    Message('note_off', channel=3, note=54, velocity=127, time=256),
    Message('note_off', channel=3, note=66, velocity=127, time=0),
    Message('note_off', channel=3, note=61, velocity=127, time=0),
    Message('note_on', channel=3, note=54, velocity=127, time=32),
    Message('note_on', channel=3, note=61, velocity=127, time=0),
    Message('note_off', channel=3, note=54, velocity=127, time=64),
    Message('note_off', channel=3, note=61, velocity=127, time=0),
    Message('note_on', channel=3, note=61, velocity=127, time=32),
    Message('note_on', channel=3, note=54, velocity=127, time=0),
    Message('note_off', channel=3, note=61, velocity=127, time=64),
    Message('note_off', channel=3, note=54, velocity=127, time=0),
    Message('note_on', channel=3, note=54, velocity=127, time=32),
    Message('note_on', channel=3, note=61, velocity=127, time=0),
    Message('note_off', channel=3, note=54, velocity=127, time=64),
    Message('note_off', channel=3, note=61, velocity=127, time=0),
    Message('note_on', channel=3, note=61, velocity=127, time=32),
    Message('note_on', channel=3, note=54, velocity=127, time=0),
    Message('note_off', channel=3, note=61, velocity=127, time=64),
    Message('note_off', channel=3, note=54, velocity=127, time=0),
    Message('note_on', channel=3, note=54, velocity=127, time=32),
    Message('note_on', channel=3, note=61, velocity=127, time=0),
    Message('note_off', channel=3, note=54, velocity=127, time=64),
    Message('note_off', channel=3, note=61, velocity=127, time=0),
    Message('note_on', channel=3, note=57, velocity=127, time=32),
    Message('note_on', channel=3, note=64, velocity=127, time=0),
    Message('note_on', channel=3, note=69, velocity=127, time=0),
    Message('note_off', channel=3, note=57, velocity=127, time=256),
    Message('note_off', channel=3, note=64, velocity=127, time=0),
    Message('note_off', channel=3, note=69, velocity=127, time=0),
    Message('note_on', channel=3, note=57, velocity=127, time=32),
    Message('note_on', channel=3, note=64, velocity=127, time=0),
    Message('note_off', channel=3, note=57, velocity=127, time=64),
    Message('note_off', channel=3, note=64, velocity=127, time=0),
    Message('note_on', channel=3, note=57, velocity=127, time=32),
    Message('note_on', channel=3, note=64, velocity=127, time=0),
    Message('note_off', channel=3, note=57, velocity=127, time=64),
    Message('note_off', channel=3, note=64, velocity=127, time=0),
    Message('note_on', channel=3, note=57, velocity=127, time=32),
    Message('note_on', channel=3, note=64, velocity=127, time=0),
    Message('note_off', channel=3, note=57, velocity=127, time=64),
    Message('note_off', channel=3, note=64, velocity=127, time=0),
    Message('note_on', channel=3, note=58, velocity=127, time=32),
    Message('note_on', channel=3, note=65, velocity=127, time=0),
    Message('note_on', channel=3, note=70, velocity=127, time=0),
    Message('note_off', channel=3, note=58, velocity=127, time=64),
    Message('note_off', channel=3, note=65, velocity=127, time=0),
    Message('note_off', channel=3, note=70, velocity=127, time=0),
    Message('note_on', channel=3, note=59, velocity=127, time=128),
    Message('note_on', channel=3, note=66, velocity=127, time=0),
    Message('note_on', channel=3, note=71, velocity=127, time=0),
    Message('note_off', channel=3, note=59, velocity=127, time=256),
    Message('note_off', channel=3, note=66, velocity=127, time=0),
    Message('note_off', channel=3, note=71, velocity=127, time=0),
    Message('note_on', channel=3, note=59, velocity=127, time=32),
    Message('note_on', channel=3, note=66, velocity=127, time=0),
    Message('note_off', channel=3, note=59, velocity=127, time=64),
    Message('note_off', channel=3, note=66, velocity=127, time=0),
    Message('note_on', channel=3, note=59, velocity=127, time=32),
    Message('note_on', channel=3, note=66, velocity=127, time=0),
    Message('note_off', channel=3, note=59, velocity=127, time=64),
    Message('note_off', channel=3, note=66, velocity=127, time=0),
    Message('note_on', channel=3, note=59, velocity=127, time=32),
    Message('note_on', channel=3, note=66, velocity=127, time=0),
    Message('note_off', channel=3, note=59, velocity=127, time=64),
    Message('note_off', channel=3, note=66, velocity=127, time=0),
    Message('note_on', channel=3, note=59, velocity=127, time=32),
    Message('note_on', channel=3, note=66, velocity=127, time=0),
    Message('note_off', channel=3, note=59, velocity=127, time=64),
    Message('note_off', channel=3, note=66, velocity=127, time=0),
    Message('note_on', channel=3, note=59, velocity=127, time=32),
    Message('note_on', channel=3, note=66, velocity=127, time=0),
    Message('note_off', channel=3, note=59, velocity=127, time=64),
    Message('note_off', channel=3, note=66, velocity=127, time=0),
    Message('note_on', channel=3, note=59, velocity=127, time=32),
    Message('note_on', channel=3, note=66, velocity=127, time=0),
    Message('note_off', channel=3, note=59, velocity=127, time=64),
    Message('note_off', channel=3, note=66, velocity=127, time=0),
    Message('note_on', channel=3, note=59, velocity=127, time=32),
    Message('note_on', channel=3, note=66, velocity=127, time=0),
    Message('note_off', channel=3, note=59, velocity=127, time=64),
    Message('note_off', channel=3, note=66, velocity=127, time=0),
    Message('note_on', channel=3, note=59, velocity=127, time=32),
    Message('note_on', channel=3, note=66, velocity=127, time=0),
    Message('note_off', channel=3, note=59, velocity=127, time=64),
    Message('note_off', channel=3, note=66, velocity=127, time=0),
    Message('note_on', channel=3, note=59, velocity=127, time=32),
    Message('note_on', channel=3, note=66, velocity=127, time=0),
    Message('note_off', channel=3, note=59, velocity=127, time=64),
    Message('note_off', channel=3, note=66, velocity=127, time=0),
    Message('note_on', channel=3, note=59, velocity=127, time=32),
    Message('note_on', channel=3, note=66, velocity=127, time=0),
    Message('note_off', channel=3, note=59, velocity=127, time=64),
    Message('note_off', channel=3, note=66, velocity=127, time=0),
    Message('note_on', channel=3, note=59, velocity=127, time=32),
    Message('note_on', channel=3, note=66, velocity=127, time=0),
    Message('note_on', channel=3, note=71, velocity=127, time=0),
    Message('note_off', channel=3, note=59, velocity=127, time=64),
    Message('note_off', channel=3, note=66, velocity=127, time=0),
    Message('note_off', channel=3, note=71, velocity=127, time=0),
    Message('note_on', channel=3, note=59, velocity=127, time=32),
    Message('note_on', channel=3, note=66, velocity=127, time=0),
    Message('note_on', channel=3, note=71, velocity=127, time=0),
    Message('note_off', channel=3, note=59, velocity=127, time=64),
    Message('note_off', channel=3, note=66, velocity=127, time=0),
    Message('note_off', channel=3, note=71, velocity=127, time=0),
    Message('note_on', channel=3, note=55, velocity=127, time=128),
    Message('note_on', channel=3, note=67, velocity=127, time=0),
    Message('note_on', channel=3, note=62, velocity=127, time=0),
    Message('note_off', channel=3, note=55, velocity=127, time=256),
    Message('note_off', channel=3, note=67, velocity=127, time=0),
    Message('note_off', channel=3, note=62, velocity=127, time=0),
    Message('note_on', channel=3, note=55, velocity=127, time=32),
    Message('note_on', channel=3, note=62, velocity=127, time=0),
    Message('note_off', channel=3, note=55, velocity=127, time=64),
    Message('note_off', channel=3, note=62, velocity=127, time=0),
    Message('note_on', channel=3, note=55, velocity=127, time=32),
    Message('note_on', channel=3, note=62, velocity=127, time=0),
    Message('note_off', channel=3, note=55, velocity=127, time=64),
    Message('note_off', channel=3, note=62, velocity=127, time=0),
    Message('note_on', channel=3, note=55, velocity=127, time=32),
    Message('note_on', channel=3, note=62, velocity=127, time=0),
    Message('note_off', channel=3, note=55, velocity=127, time=64),
    Message('note_off', channel=3, note=62, velocity=127, time=0),
    Message('note_on', channel=3, note=55, velocity=127, time=32),
    Message('note_on', channel=3, note=62, velocity=127, time=0),
    Message('note_off', channel=3, note=55, velocity=127, time=64),
    Message('note_off', channel=3, note=62, velocity=127, time=0),
    Message('note_on', channel=3, note=55, velocity=127, time=32),
    Message('note_on', channel=3, note=62, velocity=127, time=0),
    Message('note_off', channel=3, note=55, velocity=127, time=64),
    Message('note_off', channel=3, note=62, velocity=127, time=0),
    Message('note_on', channel=3, note=55, velocity=127, time=32),
    Message('note_on', channel=3, note=62, velocity=127, time=0),
    Message('note_off', channel=3, note=55, velocity=127, time=64),
    Message('note_off', channel=3, note=62, velocity=127, time=0),
    Message('note_on', channel=3, note=55, velocity=127, time=32),
    Message('note_on', channel=3, note=62, velocity=127, time=0),
    Message('note_off', channel=3, note=55, velocity=127, time=64),
    Message('note_off', channel=3, note=62, velocity=127, time=0),
    Message('note_on', channel=3, note=55, velocity=127, time=32),
    Message('note_on', channel=3, note=62, velocity=127, time=0),
    Message('note_off', channel=3, note=55, velocity=127, time=64),
    Message('note_off', channel=3, note=62, velocity=127, time=0),
    Message('note_on', channel=3, note=55, velocity=127, time=32),
    Message('note_on', channel=3, note=62, velocity=127, time=0),
    Message('note_off', channel=3, note=55, velocity=127, time=64),
    Message('note_off', channel=3, note=62, velocity=127, time=0),
    Message('note_on', channel=3, note=55, velocity=127, time=32),
    Message('note_on', channel=3, note=62, velocity=127, time=0),
    Message('note_off', channel=3, note=55, velocity=127, time=64),
    Message('note_off', channel=3, note=62, velocity=127, time=0),
    Message('note_on', channel=3, note=55, velocity=127, time=32),
    Message('note_on', channel=3, note=62, velocity=127, time=0),
    Message('note_on', channel=3, note=67, velocity=127, time=0),
    Message('note_off', channel=3, note=55, velocity=127, time=64),
    Message('note_off', channel=3, note=62, velocity=127, time=0),
    Message('note_off', channel=3, note=67, velocity=127, time=0),
    Message('note_on', channel=3, note=55, velocity=127, time=32),
    Message('note_on', channel=3, note=62, velocity=127, time=0),
    Message('note_on', channel=3, note=67, velocity=127, time=0),
    Message('note_off', channel=3, note=55, velocity=127, time=64),
    Message('note_off', channel=3, note=62, velocity=127, time=0),
    Message('note_off', channel=3, note=67, velocity=127, time=0),
    Message('note_on', channel=3, note=59, velocity=127, time=128),
    Message('note_on', channel=3, note=64, velocity=127, time=0),
    Message('note_on', channel=3, note=52, velocity=127, time=0),
    Message('note_off', channel=3, note=59, velocity=127, time=256),
    Message('note_off', channel=3, note=64, velocity=127, time=0),
    Message('note_off', channel=3, note=52, velocity=127, time=0),
    Message('note_on', channel=3, note=52, velocity=127, time=32),
    Message('note_on', channel=3, note=59, velocity=127, time=0),
    Message('note_off', channel=3, note=52, velocity=127, time=64),
    Message('note_off', channel=3, note=59, velocity=127, time=0),
    Message('note_on', channel=3, note=52, velocity=127, time=32),
    Message('note_on', channel=3, note=59, velocity=127, time=0),
    Message('note_off', channel=3, note=52, velocity=127, time=64),
    Message('note_off', channel=3, note=59, velocity=127, time=0),
    Message('note_on', channel=3, note=52, velocity=127, time=32),
    Message('note_on', channel=3, note=59, velocity=127, time=0),
    Message('note_off', channel=3, note=52, velocity=127, time=64),
    Message('note_off', channel=3, note=59, velocity=127, time=0),
    Message('note_on', channel=3, note=52, velocity=127, time=32),
    Message('note_on', channel=3, note=59, velocity=127, time=0),
    Message('note_off', channel=3, note=52, velocity=127, time=64),
    Message('note_off', channel=3, note=59, velocity=127, time=0),
    Message('note_on', channel=3, note=52, velocity=127, time=32),
    Message('note_on', channel=3, note=59, velocity=127, time=0),
    Message('note_off', channel=3, note=52, velocity=127, time=64),
    Message('note_off', channel=3, note=59, velocity=127, time=0),
    Message('note_on', channel=3, note=52, velocity=127, time=32),
    Message('note_on', channel=3, note=59, velocity=127, time=0),
    Message('note_off', channel=3, note=52, velocity=127, time=64),
    Message('note_off', channel=3, note=59, velocity=127, time=0),
    Message('note_on', channel=3, note=52, velocity=127, time=32),
    Message('note_on', channel=3, note=59, velocity=127, time=0),
    Message('note_off', channel=3, note=52, velocity=127, time=64),
    Message('note_off', channel=3, note=59, velocity=127, time=0),
    Message('note_on', channel=3, note=52, velocity=127, time=32),
    Message('note_on', channel=3, note=59, velocity=127, time=0),
    Message('note_off', channel=3, note=52, velocity=127, time=64),
    Message('note_off', channel=3, note=59, velocity=127, time=0),
    Message('note_on', channel=3, note=52, velocity=127, time=32),
    Message('note_on', channel=3, note=59, velocity=127, time=0),
    Message('note_off', channel=3, note=52, velocity=127, time=64),
    Message('note_off', channel=3, note=59, velocity=127, time=0),
    Message('note_on', channel=3, note=52, velocity=127, time=32),
    Message('note_on', channel=3, note=59, velocity=127, time=0),
    Message('note_off', channel=3, note=52, velocity=127, time=64),
    Message('note_off', channel=3, note=59, velocity=127, time=0),
    Message('note_on', channel=3, note=52, velocity=127, time=32),
    Message('note_on', channel=3, note=59, velocity=127, time=0),
    Message('note_on', channel=3, note=64, velocity=127, time=0),
    Message('note_off', channel=3, note=52, velocity=127, time=64),
    Message('note_off', channel=3, note=59, velocity=127, time=0),
    Message('note_off', channel=3, note=64, velocity=127, time=0),
    Message('note_on', channel=3, note=52, velocity=127, time=32),
    Message('note_on', channel=3, note=59, velocity=127, time=0),
    Message('note_on', channel=3, note=64, velocity=127, time=0),
    Message('note_off', channel=3, note=52, velocity=127, time=64),
    Message('note_off', channel=3, note=59, velocity=127, time=0),
    Message('note_off', channel=3, note=64, velocity=127, time=0),
    Message('note_on', channel=3, note=54, velocity=127, time=128),
    Message('note_on', channel=3, note=66, velocity=127, time=0),
    Message('note_on', channel=3, note=61, velocity=127, time=0),
    Message('note_off', channel=3, note=54, velocity=127, time=256),
    Message('note_off', channel=3, note=66, velocity=127, time=0),
    Message('note_off', channel=3, note=61, velocity=127, time=0),
    Message('note_on', channel=3, note=54, velocity=127, time=32),
    Message('note_on', channel=3, note=61, velocity=127, time=0),
    Message('note_off', channel=3, note=54, velocity=127, time=64),
    Message('note_off', channel=3, note=61, velocity=127, time=0),
    Message('note_on', channel=3, note=61, velocity=127, time=32),
    Message('note_on', channel=3, note=54, velocity=127, time=0),
    Message('note_off', channel=3, note=61, velocity=127, time=64),
    Message('note_off', channel=3, note=54, velocity=127, time=0),
    Message('note_on', channel=3, note=54, velocity=127, time=32),
    Message('note_on', channel=3, note=61, velocity=127, time=0),
    Message('note_off', channel=3, note=54, velocity=127, time=64),
    Message('note_off', channel=3, note=61, velocity=127, time=0),
    Message('note_on', channel=3, note=61, velocity=127, time=32),
    Message('note_on', channel=3, note=54, velocity=127, time=0),
    Message('note_off', channel=3, note=61, velocity=127, time=64),
    Message('note_off', channel=3, note=54, velocity=127, time=0),
    Message('note_on', channel=3, note=54, velocity=127, time=32),
    Message('note_on', channel=3, note=61, velocity=127, time=0),
    Message('note_off', channel=3, note=54, velocity=127, time=64),
    Message('note_off', channel=3, note=61, velocity=127, time=0),
    Message('note_on', channel=3, note=57, velocity=127, time=32),
    Message('note_on', channel=3, note=64, velocity=127, time=0),
    Message('note_on', channel=3, note=69, velocity=127, time=0),
    Message('note_off', channel=3, note=57, velocity=127, time=256),
    Message('note_off', channel=3, note=64, velocity=127, time=0),
    Message('note_off', channel=3, note=69, velocity=127, time=0),
    Message('note_on', channel=3, note=57, velocity=127, time=32),
    Message('note_on', channel=3, note=64, velocity=127, time=0),
    Message('note_off', channel=3, note=57, velocity=127, time=64),
    Message('note_off', channel=3, note=64, velocity=127, time=0),
    Message('note_on', channel=3, note=57, velocity=127, time=32),
    Message('note_on', channel=3, note=64, velocity=127, time=0),
    Message('note_off', channel=3, note=57, velocity=127, time=64),
    Message('note_off', channel=3, note=64, velocity=127, time=0),
    Message('note_on', channel=3, note=57, velocity=127, time=32),
    Message('note_on', channel=3, note=64, velocity=127, time=0),
    Message('note_off', channel=3, note=57, velocity=127, time=64),
    Message('note_off', channel=3, note=64, velocity=127, time=0),
    Message('note_on', channel=3, note=58, velocity=127, time=32),
    Message('note_on', channel=3, note=65, velocity=127, time=0),
    Message('note_on', channel=3, note=70, velocity=127, time=0),
    Message('note_off', channel=3, note=58, velocity=127, time=64),
    Message('note_off', channel=3, note=65, velocity=127, time=0),
    Message('note_off', channel=3, note=70, velocity=127, time=0),
    Message('note_on', channel=3, note=59, velocity=127, time=128),
    Message('note_on', channel=3, note=66, velocity=127, time=0),
    Message('note_on', channel=3, note=71, velocity=127, time=0),
    Message('note_off', channel=3, note=59, velocity=127, time=256),
    Message('note_off', channel=3, note=66, velocity=127, time=0),
    Message('note_off', channel=3, note=71, velocity=127, time=0),
    Message('note_on', channel=3, note=59, velocity=127, time=32),
    Message('note_on', channel=3, note=66, velocity=127, time=0),
    Message('note_off', channel=3, note=59, velocity=127, time=64),
    Message('note_off', channel=3, note=66, velocity=127, time=0),
    Message('note_on', channel=3, note=59, velocity=127, time=32),
    Message('note_on', channel=3, note=66, velocity=127, time=0),
    Message('note_off', channel=3, note=59, velocity=127, time=64),
    Message('note_off', channel=3, note=66, velocity=127, time=0),
    Message('note_on', channel=3, note=59, velocity=127, time=32),
    Message('note_on', channel=3, note=66, velocity=127, time=0),
    Message('note_off', channel=3, note=59, velocity=127, time=64),
    Message('note_off', channel=3, note=66, velocity=127, time=0),
    Message('note_on', channel=3, note=59, velocity=127, time=32),
    Message('note_on', channel=3, note=66, velocity=127, time=0),
    Message('note_off', channel=3, note=59, velocity=127, time=64),
    Message('note_off', channel=3, note=66, velocity=127, time=0),
    Message('note_on', channel=3, note=59, velocity=127, time=32),
    Message('note_on', channel=3, note=66, velocity=127, time=0),
    Message('note_off', channel=3, note=59, velocity=127, time=64),
    Message('note_off', channel=3, note=66, velocity=127, time=0),
    Message('note_on', channel=3, note=59, velocity=127, time=32),
    Message('note_on', channel=3, note=66, velocity=127, time=0),
    Message('note_off', channel=3, note=59, velocity=127, time=64),
    Message('note_off', channel=3, note=66, velocity=127, time=0),
    Message('note_on', channel=3, note=59, velocity=127, time=32),
    Message('note_on', channel=3, note=66, velocity=127, time=0),
    Message('note_off', channel=3, note=59, velocity=127, time=64),
    Message('note_off', channel=3, note=66, velocity=127, time=0),
    Message('note_on', channel=3, note=59, velocity=127, time=32),
    Message('note_on', channel=3, note=66, velocity=127, time=0),
    Message('note_off', channel=3, note=59, velocity=127, time=64),
    Message('note_off', channel=3, note=66, velocity=127, time=0),
    Message('note_on', channel=3, note=59, velocity=127, time=32),
    Message('note_on', channel=3, note=66, velocity=127, time=0),
    Message('note_off', channel=3, note=59, velocity=127, time=64),
    Message('note_off', channel=3, note=66, velocity=127, time=0),
    Message('note_on', channel=3, note=59, velocity=127, time=32),
    Message('note_on', channel=3, note=66, velocity=127, time=0),
    Message('note_off', channel=3, note=59, velocity=127, time=64),
    Message('note_off', channel=3, note=66, velocity=127, time=0),
    Message('note_on', channel=3, note=59, velocity=127, time=32),
    Message('note_on', channel=3, note=66, velocity=127, time=0),
    Message('note_on', channel=3, note=71, velocity=127, time=0),
    Message('note_off', channel=3, note=59, velocity=127, time=64),
    Message('note_off', channel=3, note=66, velocity=127, time=0),
    Message('note_off', channel=3, note=71, velocity=127, time=0),
    Message('note_on', channel=3, note=59, velocity=127, time=32),
    Message('note_on', channel=3, note=66, velocity=127, time=0),
    Message('note_on', channel=3, note=71, velocity=127, time=0),
    Message('note_off', channel=3, note=59, velocity=127, time=64),
    Message('note_off', channel=3, note=66, velocity=127, time=0),
    Message('note_off', channel=3, note=71, velocity=127, time=0),
    Message('note_on', channel=3, note=55, velocity=127, time=128),
    Message('note_on', channel=3, note=67, velocity=127, time=0),
    Message('note_on', channel=3, note=62, velocity=127, time=0),
    Message('note_off', channel=3, note=55, velocity=127, time=256),
    Message('note_off', channel=3, note=67, velocity=127, time=0),
    Message('note_off', channel=3, note=62, velocity=127, time=0),
    Message('note_on', channel=3, note=55, velocity=127, time=32),
    Message('note_on', channel=3, note=62, velocity=127, time=0),
    Message('note_off', channel=3, note=55, velocity=127, time=64),
    Message('note_off', channel=3, note=62, velocity=127, time=0),
    Message('note_on', channel=3, note=55, velocity=127, time=32),
    Message('note_on', channel=3, note=62, velocity=127, time=0),
    Message('note_off', channel=3, note=55, velocity=127, time=64),
    Message('note_off', channel=3, note=62, velocity=127, time=0),
    Message('note_on', channel=3, note=55, velocity=127, time=32),
    Message('note_on', channel=3, note=62, velocity=127, time=0),
    Message('note_off', channel=3, note=55, velocity=127, time=64),
    Message('note_off', channel=3, note=62, velocity=127, time=0),
    Message('note_on', channel=3, note=55, velocity=127, time=32),
    Message('note_on', channel=3, note=62, velocity=127, time=0),
    Message('note_off', channel=3, note=55, velocity=127, time=64),
    Message('note_off', channel=3, note=62, velocity=127, time=0),
    Message('note_on', channel=3, note=55, velocity=127, time=32),
    Message('note_on', channel=3, note=62, velocity=127, time=0),
    Message('note_off', channel=3, note=55, velocity=127, time=64),
    Message('note_off', channel=3, note=62, velocity=127, time=0),
    Message('note_on', channel=3, note=55, velocity=127, time=32),
    Message('note_on', channel=3, note=62, velocity=127, time=0),
    Message('note_off', channel=3, note=55, velocity=127, time=64),
    Message('note_off', channel=3, note=62, velocity=127, time=0),
    Message('note_on', channel=3, note=55, velocity=127, time=32),
    Message('note_on', channel=3, note=62, velocity=127, time=0),
    Message('note_off', channel=3, note=55, velocity=127, time=64),
    Message('note_off', channel=3, note=62, velocity=127, time=0),
    Message('note_on', channel=3, note=55, velocity=127, time=32),
    Message('note_on', channel=3, note=62, velocity=127, time=0),
    Message('note_off', channel=3, note=55, velocity=127, time=64),
    Message('note_off', channel=3, note=62, velocity=127, time=0),
    Message('note_on', channel=3, note=55, velocity=127, time=32),
    Message('note_on', channel=3, note=62, velocity=127, time=0),
    Message('note_off', channel=3, note=55, velocity=127, time=64),
    Message('note_off', channel=3, note=62, velocity=127, time=0),
    Message('note_on', channel=3, note=55, velocity=127, time=32),
    Message('note_on', channel=3, note=62, velocity=127, time=0),
    Message('note_off', channel=3, note=55, velocity=127, time=64),
    Message('note_off', channel=3, note=62, velocity=127, time=0),
    Message('note_on', channel=3, note=55, velocity=127, time=32),
    Message('note_on', channel=3, note=62, velocity=127, time=0),
    Message('note_on', channel=3, note=67, velocity=127, time=0),
    Message('note_off', channel=3, note=55, velocity=127, time=64),
    Message('note_off', channel=3, note=62, velocity=127, time=0),
    Message('note_off', channel=3, note=67, velocity=127, time=0),
    Message('note_on', channel=3, note=55, velocity=127, time=32),
    Message('note_on', channel=3, note=62, velocity=127, time=0),
    Message('note_on', channel=3, note=67, velocity=127, time=0),
    Message('note_off', channel=3, note=55, velocity=127, time=64),
    Message('note_off', channel=3, note=62, velocity=127, time=0),
    Message('note_off', channel=3, note=67, velocity=127, time=0),
    Message('note_on', channel=3, note=59, velocity=127, time=128),
    Message('note_on', channel=3, note=64, velocity=127, time=0),
    Message('note_on', channel=3, note=52, velocity=127, time=0),
    Message('note_off', channel=3, note=59, velocity=127, time=256),
    Message('note_off', channel=3, note=64, velocity=127, time=0),
    Message('note_off', channel=3, note=52, velocity=127, time=0),
    Message('note_on', channel=3, note=52, velocity=127, time=32),
    Message('note_on', channel=3, note=59, velocity=127, time=0),
    Message('note_off', channel=3, note=52, velocity=127, time=64),
    Message('note_off', channel=3, note=59, velocity=127, time=0),
    Message('note_on', channel=3, note=52, velocity=127, time=32),
    Message('note_on', channel=3, note=59, velocity=127, time=0),
    Message('note_off', channel=3, note=52, velocity=127, time=64),
    Message('note_off', channel=3, note=59, velocity=127, time=0),
    Message('note_on', channel=3, note=52, velocity=127, time=32),
    Message('note_on', channel=3, note=59, velocity=127, time=0),
    Message('note_off', channel=3, note=52, velocity=127, time=64),
    Message('note_off', channel=3, note=59, velocity=127, time=0),
    Message('note_on', channel=3, note=52, velocity=127, time=32),
    Message('note_on', channel=3, note=59, velocity=127, time=0),
    Message('note_off', channel=3, note=52, velocity=127, time=64),
    Message('note_off', channel=3, note=59, velocity=127, time=0),
    Message('note_on', channel=3, note=52, velocity=127, time=32),
    Message('note_on', channel=3, note=59, velocity=127, time=0),
    Message('note_off', channel=3, note=52, velocity=127, time=64),
    Message('note_off', channel=3, note=59, velocity=127, time=0),
    Message('note_on', channel=3, note=52, velocity=127, time=32),
    Message('note_on', channel=3, note=59, velocity=127, time=0),
    Message('note_off', channel=3, note=52, velocity=127, time=64),
    Message('note_off', channel=3, note=59, velocity=127, time=0),
    Message('note_on', channel=3, note=52, velocity=127, time=32),
    Message('note_on', channel=3, note=59, velocity=127, time=0),
    Message('note_off', channel=3, note=52, velocity=127, time=64),
    Message('note_off', channel=3, note=59, velocity=127, time=0),
    Message('note_on', channel=3, note=52, velocity=127, time=32),
    Message('note_on', channel=3, note=59, velocity=127, time=0),
    Message('note_off', channel=3, note=52, velocity=127, time=64),
    Message('note_off', channel=3, note=59, velocity=127, time=0),
    Message('note_on', channel=3, note=52, velocity=127, time=32),
    Message('note_on', channel=3, note=59, velocity=127, time=0),
    Message('note_off', channel=3, note=52, velocity=127, time=64),
    Message('note_off', channel=3, note=59, velocity=127, time=0),
    Message('note_on', channel=3, note=52, velocity=127, time=32),
    Message('note_on', channel=3, note=59, velocity=127, time=0),
    Message('note_off', channel=3, note=52, velocity=127, time=64),
    Message('note_off', channel=3, note=59, velocity=127, time=0),
    Message('note_on', channel=3, note=52, velocity=127, time=32),
    Message('note_on', channel=3, note=59, velocity=127, time=0),
    Message('note_on', channel=3, note=64, velocity=127, time=0),
    Message('note_off', channel=3, note=52, velocity=127, time=64),
    Message('note_off', channel=3, note=59, velocity=127, time=0),
    Message('note_off', channel=3, note=64, velocity=127, time=0),
    Message('note_on', channel=3, note=52, velocity=127, time=32),
    Message('note_on', channel=3, note=59, velocity=127, time=0),
    Message('note_on', channel=3, note=64, velocity=127, time=0),
    Message('note_off', channel=3, note=52, velocity=127, time=64),
    Message('note_off', channel=3, note=59, velocity=127, time=0),
    Message('note_off', channel=3, note=64, velocity=127, time=0),
    Message('note_on', channel=3, note=54, velocity=127, time=128),
    Message('note_on', channel=3, note=66, velocity=127, time=0),
    Message('note_on', channel=3, note=61, velocity=127, time=0),
    Message('note_off', channel=3, note=54, velocity=127, time=256),
    Message('note_off', channel=3, note=66, velocity=127, time=0),
    Message('note_off', channel=3, note=61, velocity=127, time=0),
    Message('note_on', channel=3, note=54, velocity=127, time=32),
    Message('note_on', channel=3, note=61, velocity=127, time=0),
    Message('note_off', channel=3, note=54, velocity=127, time=64),
    Message('note_off', channel=3, note=61, velocity=127, time=0),
    Message('note_on', channel=3, note=61, velocity=127, time=32),
    Message('note_on', channel=3, note=54, velocity=127, time=0),
    Message('note_off', channel=3, note=61, velocity=127, time=64),
    Message('note_off', channel=3, note=54, velocity=127, time=0),
    Message('note_on', channel=3, note=54, velocity=127, time=32),
    Message('note_on', channel=3, note=61, velocity=127, time=0),
    Message('note_off', channel=3, note=54, velocity=127, time=64),
    Message('note_off', channel=3, note=61, velocity=127, time=0),
    Message('note_on', channel=3, note=61, velocity=127, time=32),
    Message('note_on', channel=3, note=54, velocity=127, time=0),
    Message('note_off', channel=3, note=61, velocity=127, time=64),
    Message('note_off', channel=3, note=54, velocity=127, time=0),
    Message('note_on', channel=3, note=54, velocity=127, time=32),
    Message('note_on', channel=3, note=61, velocity=127, time=0),
    Message('note_off', channel=3, note=54, velocity=127, time=64),
    Message('note_off', channel=3, note=61, velocity=127, time=0),
    Message('note_on', channel=3, note=57, velocity=127, time=32),
    Message('note_on', channel=3, note=64, velocity=127, time=0),
    Message('note_on', channel=3, note=69, velocity=127, time=0),
    Message('note_off', channel=3, note=57, velocity=127, time=256),
    Message('note_off', channel=3, note=64, velocity=127, time=0),
    Message('note_off', channel=3, note=69, velocity=127, time=0),
    Message('note_on', channel=3, note=57, velocity=127, time=32),
    Message('note_on', channel=3, note=64, velocity=127, time=0),
    Message('note_off', channel=3, note=57, velocity=127, time=64),
    Message('note_off', channel=3, note=64, velocity=127, time=0),
    Message('note_on', channel=3, note=57, velocity=127, time=32),
    Message('note_on', channel=3, note=64, velocity=127, time=0),
    Message('note_off', channel=3, note=57, velocity=127, time=64),
    Message('note_off', channel=3, note=64, velocity=127, time=0),
    Message('note_on', channel=3, note=57, velocity=127, time=32),
    Message('note_on', channel=3, note=64, velocity=127, time=0),
    Message('note_off', channel=3, note=57, velocity=127, time=64),
    Message('note_off', channel=3, note=64, velocity=127, time=0),
    Message('note_on', channel=3, note=58, velocity=127, time=32),
    Message('note_on', channel=3, note=65, velocity=127, time=0),
    Message('note_on', channel=3, note=70, velocity=127, time=0),
    Message('note_off', channel=3, note=58, velocity=127, time=64),
    Message('note_off', channel=3, note=65, velocity=127, time=0),
    Message('note_off', channel=3, note=70, velocity=127, time=0),
    Message('note_on', channel=3, note=59, velocity=127, time=128),
    Message('note_on', channel=3, note=66, velocity=127, time=0),
    Message('note_on', channel=3, note=71, velocity=127, time=0),
    Message('note_off', channel=3, note=59, velocity=127, time=256),
    Message('note_off', channel=3, note=66, velocity=127, time=0),
    Message('note_off', channel=3, note=71, velocity=127, time=0),
    Message('note_on', channel=3, note=59, velocity=127, time=32),
    Message('note_on', channel=3, note=66, velocity=127, time=0),
    Message('note_off', channel=3, note=59, velocity=127, time=64),
    Message('note_off', channel=3, note=66, velocity=127, time=0),
    Message('note_on', channel=3, note=59, velocity=127, time=32),
    Message('note_on', channel=3, note=66, velocity=127, time=0),
    Message('note_off', channel=3, note=59, velocity=127, time=64),
    Message('note_off', channel=3, note=66, velocity=127, time=0),
    Message('note_on', channel=3, note=59, velocity=127, time=32),
    Message('note_on', channel=3, note=66, velocity=127, time=0),
    Message('note_off', channel=3, note=59, velocity=127, time=64),
    Message('note_off', channel=3, note=66, velocity=127, time=0),
    Message('note_on', channel=3, note=59, velocity=127, time=32),
    Message('note_on', channel=3, note=66, velocity=127, time=0),
    Message('note_off', channel=3, note=59, velocity=127, time=64),
    Message('note_off', channel=3, note=66, velocity=127, time=0),
    Message('note_on', channel=3, note=59, velocity=127, time=32),
    Message('note_on', channel=3, note=66, velocity=127, time=0),
    Message('note_off', channel=3, note=59, velocity=127, time=64),
    Message('note_off', channel=3, note=66, velocity=127, time=0),
    Message('note_on', channel=3, note=59, velocity=127, time=32),
    Message('note_on', channel=3, note=66, velocity=127, time=0),
    Message('note_off', channel=3, note=59, velocity=127, time=64),
    Message('note_off', channel=3, note=66, velocity=127, time=0),
    Message('note_on', channel=3, note=59, velocity=127, time=32),
    Message('note_on', channel=3, note=66, velocity=127, time=0),
    Message('note_off', channel=3, note=59, velocity=127, time=64),
    Message('note_off', channel=3, note=66, velocity=127, time=0),
    Message('note_on', channel=3, note=59, velocity=127, time=32),
    Message('note_on', channel=3, note=66, velocity=127, time=0),
    Message('note_off', channel=3, note=59, velocity=127, time=64),
    Message('note_off', channel=3, note=66, velocity=127, time=0),
    Message('note_on', channel=3, note=59, velocity=127, time=32),
    Message('note_on', channel=3, note=66, velocity=127, time=0),
    Message('note_off', channel=3, note=59, velocity=127, time=64),
    Message('note_off', channel=3, note=66, velocity=127, time=0),
    Message('note_on', channel=3, note=59, velocity=127, time=32),
    Message('note_on', channel=3, note=66, velocity=127, time=0),
    Message('note_off', channel=3, note=59, velocity=127, time=64),
    Message('note_off', channel=3, note=66, velocity=127, time=0),
    Message('note_on', channel=3, note=59, velocity=127, time=32),
    Message('note_on', channel=3, note=66, velocity=127, time=0),
    Message('note_on', channel=3, note=71, velocity=127, time=0),
    Message('note_off', channel=3, note=59, velocity=127, time=64),
    Message('note_off', channel=3, note=66, velocity=127, time=0),
    Message('note_off', channel=3, note=71, velocity=127, time=0),
    Message('note_on', channel=3, note=59, velocity=127, time=32),
    Message('note_on', channel=3, note=66, velocity=127, time=0),
    Message('note_on', channel=3, note=71, velocity=127, time=0),
    Message('note_off', channel=3, note=59, velocity=127, time=64),
    Message('note_off', channel=3, note=66, velocity=127, time=0),
    Message('note_off', channel=3, note=71, velocity=127, time=0),
    Message('note_on', channel=3, note=55, velocity=127, time=128),
    Message('note_on', channel=3, note=67, velocity=127, time=0),
    Message('note_on', channel=3, note=62, velocity=127, time=0),
    Message('note_off', channel=3, note=55, velocity=127, time=256),
    Message('note_off', channel=3, note=67, velocity=127, time=0),
    Message('note_off', channel=3, note=62, velocity=127, time=0),
    Message('note_on', channel=3, note=55, velocity=127, time=32),
    Message('note_on', channel=3, note=62, velocity=127, time=0),
    Message('note_off', channel=3, note=55, velocity=127, time=64),
    Message('note_off', channel=3, note=62, velocity=127, time=0),
    Message('note_on', channel=3, note=55, velocity=127, time=32),
    Message('note_on', channel=3, note=62, velocity=127, time=0),
    Message('note_off', channel=3, note=55, velocity=127, time=64),
    Message('note_off', channel=3, note=62, velocity=127, time=0),
    Message('note_on', channel=3, note=55, velocity=127, time=32),
    Message('note_on', channel=3, note=62, velocity=127, time=0),
    Message('note_off', channel=3, note=55, velocity=127, time=64),
    Message('note_off', channel=3, note=62, velocity=127, time=0),
    Message('note_on', channel=3, note=55, velocity=127, time=32),
    Message('note_on', channel=3, note=62, velocity=127, time=0),
    Message('note_off', channel=3, note=55, velocity=127, time=64),
    Message('note_off', channel=3, note=62, velocity=127, time=0),
    Message('note_on', channel=3, note=55, velocity=127, time=32),
    Message('note_on', channel=3, note=62, velocity=127, time=0),
    Message('note_off', channel=3, note=55, velocity=127, time=64),
    Message('note_off', channel=3, note=62, velocity=127, time=0),
    Message('note_on', channel=3, note=55, velocity=127, time=32),
    Message('note_on', channel=3, note=62, velocity=127, time=0),
    Message('note_off', channel=3, note=55, velocity=127, time=64),
    Message('note_off', channel=3, note=62, velocity=127, time=0),
    Message('note_on', channel=3, note=55, velocity=127, time=32),
    Message('note_on', channel=3, note=62, velocity=127, time=0),
    Message('note_off', channel=3, note=55, velocity=127, time=64),
    Message('note_off', channel=3, note=62, velocity=127, time=0),
    Message('note_on', channel=3, note=55, velocity=127, time=32),
    Message('note_on', channel=3, note=62, velocity=127, time=0),
    Message('note_off', channel=3, note=55, velocity=127, time=64),
    Message('note_off', channel=3, note=62, velocity=127, time=0),
    Message('note_on', channel=3, note=55, velocity=127, time=32),
    Message('note_on', channel=3, note=62, velocity=127, time=0),
    Message('note_off', channel=3, note=55, velocity=127, time=64),
    Message('note_off', channel=3, note=62, velocity=127, time=0),
    Message('note_on', channel=3, note=55, velocity=127, time=32),
    Message('note_on', channel=3, note=62, velocity=127, time=0),
    Message('note_off', channel=3, note=55, velocity=127, time=64),
    Message('note_off', channel=3, note=62, velocity=127, time=0),
    Message('note_on', channel=3, note=55, velocity=127, time=32),
    Message('note_on', channel=3, note=62, velocity=127, time=0),
    Message('note_on', channel=3, note=67, velocity=127, time=0),
    Message('note_off', channel=3, note=55, velocity=127, time=64),
    Message('note_off', channel=3, note=62, velocity=127, time=0),
    Message('note_off', channel=3, note=67, velocity=127, time=0),
    Message('note_on', channel=3, note=55, velocity=127, time=32),
    Message('note_on', channel=3, note=62, velocity=127, time=0),
    Message('note_on', channel=3, note=67, velocity=127, time=0),
    Message('note_off', channel=3, note=55, velocity=127, time=64),
    Message('note_off', channel=3, note=62, velocity=127, time=0),
    Message('note_off', channel=3, note=67, velocity=127, time=0),
    Message('note_on', channel=3, note=59, velocity=127, time=128),
    Message('note_on', channel=3, note=64, velocity=127, time=0),
    Message('note_on', channel=3, note=52, velocity=127, time=0),
    Message('note_off', channel=3, note=59, velocity=127, time=256),
    Message('note_off', channel=3, note=64, velocity=127, time=0),
    Message('note_off', channel=3, note=52, velocity=127, time=0),
    Message('note_on', channel=3, note=52, velocity=127, time=32),
    Message('note_on', channel=3, note=59, velocity=127, time=0),
    Message('note_off', channel=3, note=52, velocity=127, time=64),
    Message('note_off', channel=3, note=59, velocity=127, time=0),
    Message('note_on', channel=3, note=52, velocity=127, time=32),
    Message('note_on', channel=3, note=59, velocity=127, time=0),
    Message('note_off', channel=3, note=52, velocity=127, time=64),
    Message('note_off', channel=3, note=59, velocity=127, time=0),
    Message('note_on', channel=3, note=52, velocity=127, time=32),
    Message('note_on', channel=3, note=59, velocity=127, time=0),
    Message('note_off', channel=3, note=52, velocity=127, time=64),
    Message('note_off', channel=3, note=59, velocity=127, time=0),
    Message('note_on', channel=3, note=52, velocity=127, time=32),
    Message('note_on', channel=3, note=59, velocity=127, time=0),
    Message('note_off', channel=3, note=52, velocity=127, time=64),
    Message('note_off', channel=3, note=59, velocity=127, time=0),
    Message('note_on', channel=3, note=52, velocity=127, time=32),
    Message('note_on', channel=3, note=59, velocity=127, time=0),
    Message('note_off', channel=3, note=52, velocity=127, time=64),
    Message('note_off', channel=3, note=59, velocity=127, time=0),
    Message('note_on', channel=3, note=52, velocity=127, time=32),
    Message('note_on', channel=3, note=59, velocity=127, time=0),
    Message('note_off', channel=3, note=52, velocity=127, time=64),
    Message('note_off', channel=3, note=59, velocity=127, time=0),
    Message('note_on', channel=3, note=52, velocity=127, time=32),
    Message('note_on', channel=3, note=59, velocity=127, time=0),
    Message('note_off', channel=3, note=52, velocity=127, time=64),
    Message('note_off', channel=3, note=59, velocity=127, time=0),
    Message('note_on', channel=3, note=52, velocity=127, time=32),
    Message('note_on', channel=3, note=59, velocity=127, time=0),
    Message('note_off', channel=3, note=52, velocity=127, time=64),
    Message('note_off', channel=3, note=59, velocity=127, time=0),
    Message('note_on', channel=3, note=52, velocity=127, time=32),
    Message('note_on', channel=3, note=59, velocity=127, time=0),
    Message('note_off', channel=3, note=52, velocity=127, time=64),
    Message('note_off', channel=3, note=59, velocity=127, time=0),
    Message('note_on', channel=3, note=52, velocity=127, time=32),
    Message('note_on', channel=3, note=59, velocity=127, time=0),
    Message('note_off', channel=3, note=52, velocity=127, time=64),
    Message('note_off', channel=3, note=59, velocity=127, time=0),
    Message('note_on', channel=3, note=52, velocity=127, time=32),
    Message('note_on', channel=3, note=59, velocity=127, time=0),
    Message('note_on', channel=3, note=64, velocity=127, time=0),
    Message('note_off', channel=3, note=52, velocity=127, time=64),
    Message('note_off', channel=3, note=59, velocity=127, time=0),
    Message('note_off', channel=3, note=64, velocity=127, time=0),
    Message('note_on', channel=3, note=52, velocity=127, time=32),
    Message('note_on', channel=3, note=59, velocity=127, time=0),
    Message('note_on', channel=3, note=64, velocity=127, time=0),
    Message('note_off', channel=3, note=52, velocity=127, time=64),
    Message('note_off', channel=3, note=59, velocity=127, time=0),
    Message('note_off', channel=3, note=64, velocity=127, time=0),
    Message('note_on', channel=3, note=54, velocity=127, time=128),
    Message('note_on', channel=3, note=66, velocity=127, time=0),
    Message('note_on', channel=3, note=61, velocity=127, time=0),
    Message('note_off', channel=3, note=54, velocity=127, time=256),
    Message('note_off', channel=3, note=66, velocity=127, time=0),
    Message('note_off', channel=3, note=61, velocity=127, time=0),
    Message('note_on', channel=3, note=54, velocity=127, time=32),
    Message('note_on', channel=3, note=61, velocity=127, time=0),
    Message('note_off', channel=3, note=54, velocity=127, time=64),
    Message('note_off', channel=3, note=61, velocity=127, time=0),
    Message('note_on', channel=3, note=61, velocity=127, time=32),
    Message('note_on', channel=3, note=54, velocity=127, time=0),
    Message('note_off', channel=3, note=61, velocity=127, time=64),
    Message('note_off', channel=3, note=54, velocity=127, time=0),
    Message('note_on', channel=3, note=54, velocity=127, time=32),
    Message('note_on', channel=3, note=61, velocity=127, time=0),
    Message('note_off', channel=3, note=54, velocity=127, time=64),
    Message('note_off', channel=3, note=61, velocity=127, time=0),
    Message('note_on', channel=3, note=61, velocity=127, time=32),
    Message('note_on', channel=3, note=54, velocity=127, time=0),
    Message('note_off', channel=3, note=61, velocity=127, time=64),
    Message('note_off', channel=3, note=54, velocity=127, time=0),
    Message('note_on', channel=3, note=54, velocity=127, time=32),
    Message('note_on', channel=3, note=61, velocity=127, time=0),
    Message('note_off', channel=3, note=54, velocity=127, time=64),
    Message('note_off', channel=3, note=61, velocity=127, time=0),
    Message('note_on', channel=3, note=57, velocity=127, time=32),
    Message('note_on', channel=3, note=64, velocity=127, time=0),
    Message('note_on', channel=3, note=69, velocity=127, time=0),
    Message('note_off', channel=3, note=57, velocity=127, time=256),
    Message('note_off', channel=3, note=64, velocity=127, time=0),
    Message('note_off', channel=3, note=69, velocity=127, time=0),
    Message('note_on', channel=3, note=57, velocity=127, time=32),
    Message('note_on', channel=3, note=64, velocity=127, time=0),
    Message('note_off', channel=3, note=57, velocity=127, time=64),
    Message('note_off', channel=3, note=64, velocity=127, time=0),
    Message('note_on', channel=3, note=57, velocity=127, time=32),
    Message('note_on', channel=3, note=64, velocity=127, time=0),
    Message('note_off', channel=3, note=57, velocity=127, time=64),
    Message('note_off', channel=3, note=64, velocity=127, time=0),
    Message('note_on', channel=3, note=57, velocity=127, time=32),
    Message('note_on', channel=3, note=64, velocity=127, time=0),
    Message('note_off', channel=3, note=57, velocity=127, time=64),
    Message('note_off', channel=3, note=64, velocity=127, time=0),
    Message('note_on', channel=3, note=58, velocity=127, time=32),
    Message('note_on', channel=3, note=65, velocity=127, time=0),
    Message('note_on', channel=3, note=70, velocity=127, time=0),
    Message('note_off', channel=3, note=58, velocity=127, time=64),
    Message('note_off', channel=3, note=65, velocity=127, time=0),
    Message('note_off', channel=3, note=70, velocity=127, time=0),
    Message('note_on', channel=3, note=59, velocity=127, time=128),
    Message('note_on', channel=3, note=66, velocity=127, time=0),
    Message('note_on', channel=3, note=71, velocity=127, time=0),
    Message('note_off', channel=3, note=59, velocity=127, time=256),
    Message('note_off', channel=3, note=66, velocity=127, time=0),
    Message('note_off', channel=3, note=71, velocity=127, time=0),
    Message('note_on', channel=3, note=59, velocity=127, time=32),
    Message('note_on', channel=3, note=66, velocity=127, time=0),
    Message('note_off', channel=3, note=59, velocity=127, time=64),
    Message('note_off', channel=3, note=66, velocity=127, time=0),
    Message('note_on', channel=3, note=59, velocity=127, time=32),
    Message('note_on', channel=3, note=66, velocity=127, time=0),
    Message('note_off', channel=3, note=59, velocity=127, time=64),
    Message('note_off', channel=3, note=66, velocity=127, time=0),
    Message('note_on', channel=3, note=59, velocity=127, time=32),
    Message('note_on', channel=3, note=66, velocity=127, time=0),
    Message('note_off', channel=3, note=59, velocity=127, time=64),
    Message('note_off', channel=3, note=66, velocity=127, time=0),
    Message('note_on', channel=3, note=59, velocity=127, time=32),
    Message('note_on', channel=3, note=66, velocity=127, time=0),
    Message('note_off', channel=3, note=59, velocity=127, time=64),
    Message('note_off', channel=3, note=66, velocity=127, time=0),
    Message('note_on', channel=3, note=59, velocity=127, time=32),
    Message('note_on', channel=3, note=66, velocity=127, time=0),
    Message('note_off', channel=3, note=59, velocity=127, time=64),
    Message('note_off', channel=3, note=66, velocity=127, time=0),
    Message('note_on', channel=3, note=59, velocity=127, time=32),
    Message('note_on', channel=3, note=66, velocity=127, time=0),
    Message('note_off', channel=3, note=59, velocity=127, time=64),
    Message('note_off', channel=3, note=66, velocity=127, time=0),
    Message('note_on', channel=3, note=59, velocity=127, time=32),
    Message('note_on', channel=3, note=66, velocity=127, time=0),
    Message('note_off', channel=3, note=59, velocity=127, time=64),
    Message('note_off', channel=3, note=66, velocity=127, time=0),
    Message('note_on', channel=3, note=59, velocity=127, time=32),
    Message('note_on', channel=3, note=66, velocity=127, time=0),
    Message('note_off', channel=3, note=59, velocity=127, time=64),
    Message('note_off', channel=3, note=66, velocity=127, time=0),
    Message('note_on', channel=3, note=59, velocity=127, time=32),
    Message('note_on', channel=3, note=66, velocity=127, time=0),
    Message('note_off', channel=3, note=59, velocity=127, time=64),
    Message('note_off', channel=3, note=66, velocity=127, time=0),
    Message('note_on', channel=3, note=59, velocity=127, time=32),
    Message('note_on', channel=3, note=66, velocity=127, time=0),
    Message('note_off', channel=3, note=59, velocity=127, time=64),
    Message('note_off', channel=3, note=66, velocity=127, time=0),
    Message('note_on', channel=3, note=59, velocity=127, time=32),
    Message('note_on', channel=3, note=66, velocity=127, time=0),
    Message('note_on', channel=3, note=71, velocity=127, time=0),
    Message('note_off', channel=3, note=59, velocity=127, time=64),
    Message('note_off', channel=3, note=66, velocity=127, time=0),
    Message('note_off', channel=3, note=71, velocity=127, time=0),
    Message('note_on', channel=3, note=59, velocity=127, time=32),
    Message('note_on', channel=3, note=66, velocity=127, time=0),
    Message('note_on', channel=3, note=71, velocity=127, time=0),
    Message('note_off', channel=3, note=59, velocity=127, time=64),
    Message('note_off', channel=3, note=66, velocity=127, time=0),
    Message('note_off', channel=3, note=71, velocity=127, time=0),
    Message('note_on', channel=3, note=55, velocity=127, time=128),
    Message('note_on', channel=3, note=67, velocity=127, time=0),
    Message('note_on', channel=3, note=62, velocity=127, time=0),
    Message('note_off', channel=3, note=55, velocity=127, time=256),
    Message('note_off', channel=3, note=67, velocity=127, time=0),
    Message('note_off', channel=3, note=62, velocity=127, time=0),
    Message('note_on', channel=3, note=55, velocity=127, time=32),
    Message('note_on', channel=3, note=62, velocity=127, time=0),
    Message('note_off', channel=3, note=55, velocity=127, time=64),
    Message('note_off', channel=3, note=62, velocity=127, time=0),
    Message('note_on', channel=3, note=55, velocity=127, time=32),
    Message('note_on', channel=3, note=62, velocity=127, time=0),
    Message('note_off', channel=3, note=55, velocity=127, time=64),
    Message('note_off', channel=3, note=62, velocity=127, time=0),
    Message('note_on', channel=3, note=55, velocity=127, time=32),
    Message('note_on', channel=3, note=62, velocity=127, time=0),
    Message('note_off', channel=3, note=55, velocity=127, time=64),
    Message('note_off', channel=3, note=62, velocity=127, time=0),
    Message('note_on', channel=3, note=55, velocity=127, time=32),
    Message('note_on', channel=3, note=62, velocity=127, time=0),
    Message('note_off', channel=3, note=55, velocity=127, time=64),
    Message('note_off', channel=3, note=62, velocity=127, time=0),
    Message('note_on', channel=3, note=55, velocity=127, time=32),
    Message('note_on', channel=3, note=62, velocity=127, time=0),
    Message('note_off', channel=3, note=55, velocity=127, time=64),
    Message('note_off', channel=3, note=62, velocity=127, time=0),
    Message('note_on', channel=3, note=55, velocity=127, time=32),
    Message('note_on', channel=3, note=62, velocity=127, time=0),
    Message('note_off', channel=3, note=55, velocity=127, time=64),
    Message('note_off', channel=3, note=62, velocity=127, time=0),
    Message('note_on', channel=3, note=55, velocity=127, time=32),
    Message('note_on', channel=3, note=62, velocity=127, time=0),
    Message('note_off', channel=3, note=55, velocity=127, time=64),
    Message('note_off', channel=3, note=62, velocity=127, time=0),
    Message('note_on', channel=3, note=55, velocity=127, time=32),
    Message('note_on', channel=3, note=62, velocity=127, time=0),
    Message('note_off', channel=3, note=55, velocity=127, time=64),
    Message('note_off', channel=3, note=62, velocity=127, time=0),
    Message('note_on', channel=3, note=55, velocity=127, time=32),
    Message('note_on', channel=3, note=62, velocity=127, time=0),
    Message('note_off', channel=3, note=55, velocity=127, time=64),
    Message('note_off', channel=3, note=62, velocity=127, time=0),
    Message('note_on', channel=3, note=55, velocity=127, time=32),
    Message('note_on', channel=3, note=62, velocity=127, time=0),
    Message('note_off', channel=3, note=55, velocity=127, time=64),
    Message('note_off', channel=3, note=62, velocity=127, time=0),
    Message('note_on', channel=3, note=55, velocity=127, time=32),
    Message('note_on', channel=3, note=62, velocity=127, time=0),
    Message('note_on', channel=3, note=67, velocity=127, time=0),
    Message('note_off', channel=3, note=55, velocity=127, time=64),
    Message('note_off', channel=3, note=62, velocity=127, time=0),
    Message('note_off', channel=3, note=67, velocity=127, time=0),
    Message('note_on', channel=3, note=55, velocity=127, time=32),
    Message('note_on', channel=3, note=62, velocity=127, time=0),
    Message('note_on', channel=3, note=67, velocity=127, time=0),
    Message('note_off', channel=3, note=55, velocity=127, time=64),
    Message('note_off', channel=3, note=62, velocity=127, time=0),
    Message('note_off', channel=3, note=67, velocity=127, time=0),
    Message('note_on', channel=3, note=59, velocity=127, time=128),
    Message('note_on', channel=3, note=64, velocity=127, time=0),
    Message('note_on', channel=3, note=52, velocity=127, time=0),
    Message('note_off', channel=3, note=59, velocity=127, time=250),
    Message('note_off', channel=3, note=64, velocity=127, time=0),
    Message('note_off', channel=3, note=52, velocity=127, time=0),
    Message('note_on', channel=3, note=52, velocity=127, time=32),
    Message('note_on', channel=3, note=59, velocity=127, time=0),
    Message('note_off', channel=3, note=52, velocity=127, time=64),
    Message('note_off', channel=3, note=59, velocity=127, time=0),
    Message('note_on', channel=3, note=52, velocity=127, time=32),
    Message('note_on', channel=3, note=59, velocity=127, time=0),
    Message('note_off', channel=3, note=52, velocity=127, time=64),
    Message('note_off', channel=3, note=59, velocity=127, time=0),
    Message('note_on', channel=3, note=52, velocity=127, time=32),
    Message('note_on', channel=3, note=59, velocity=127, time=0),
    Message('note_off', channel=3, note=52, velocity=127, time=64),
    Message('note_off', channel=3, note=59, velocity=127, time=0),
    Message('note_on', channel=3, note=52, velocity=127, time=32),
    Message('note_on', channel=3, note=59, velocity=127, time=0),
    Message('note_off', channel=3, note=52, velocity=127, time=64),
    Message('note_off', channel=3, note=59, velocity=127, time=0),
    Message('note_on', channel=3, note=52, velocity=127, time=32),
    Message('note_on', channel=3, note=59, velocity=127, time=0),
    Message('note_off', channel=3, note=52, velocity=127, time=64),
    Message('note_off', channel=3, note=59, velocity=127, time=0),
    Message('note_on', channel=3, note=52, velocity=127, time=32),
    Message('note_on', channel=3, note=59, velocity=127, time=0),
    Message('note_off', channel=3, note=52, velocity=127, time=64),
    Message('note_off', channel=3, note=59, velocity=127, time=0),
    Message('note_on', channel=3, note=52, velocity=127, time=32),
    Message('note_on', channel=3, note=59, velocity=127, time=0),
    Message('note_off', channel=3, note=52, velocity=127, time=64),
    Message('note_off', channel=3, note=59, velocity=127, time=0),
    Message('note_on', channel=3, note=52, velocity=127, time=32),
    Message('note_on', channel=3, note=59, velocity=127, time=0),
    Message('note_off', channel=3, note=52, velocity=127, time=64),
    Message('note_off', channel=3, note=59, velocity=127, time=0),
    Message('note_on', channel=3, note=52, velocity=127, time=32),
    Message('note_on', channel=3, note=59, velocity=127, time=0),
    Message('note_off', channel=3, note=52, velocity=127, time=64),
    Message('note_off', channel=3, note=59, velocity=127, time=0),
    Message('note_on', channel=3, note=52, velocity=127, time=32),
    Message('note_on', channel=3, note=59, velocity=127, time=0),
    Message('note_off', channel=3, note=52, velocity=127, time=64),
    Message('note_off', channel=3, note=59, velocity=127, time=0),
    Message('note_on', channel=3, note=52, velocity=127, time=32),
    Message('note_on', channel=3, note=59, velocity=127, time=0),
    Message('note_on', channel=3, note=64, velocity=127, time=0),
    Message('note_off', channel=3, note=52, velocity=127, time=64),
    Message('note_off', channel=3, note=59, velocity=127, time=0),
    Message('note_off', channel=3, note=64, velocity=127, time=0),
    Message('note_on', channel=3, note=52, velocity=127, time=32),
    Message('note_on', channel=3, note=59, velocity=127, time=0),
    Message('note_on', channel=3, note=64, velocity=127, time=0),
    Message('note_off', channel=3, note=52, velocity=127, time=64),
    Message('note_off', channel=3, note=59, velocity=127, time=0),
    Message('note_off', channel=3, note=64, velocity=127, time=0),
    Message('note_on', channel=3, note=54, velocity=127, time=128),
    Message('note_on', channel=3, note=66, velocity=127, time=0),
    Message('note_on', channel=3, note=61, velocity=127, time=0),
    Message('note_off', channel=3, note=54, velocity=127, time=256),
    Message('note_off', channel=3, note=66, velocity=127, time=0),
    Message('note_off', channel=3, note=61, velocity=127, time=0),
    Message('note_on', channel=3, note=54, velocity=127, time=32),
    Message('note_on', channel=3, note=61, velocity=127, time=0),
    Message('note_off', channel=3, note=54, velocity=127, time=64),
    Message('note_off', channel=3, note=61, velocity=127, time=0),
    Message('note_on', channel=3, note=61, velocity=127, time=32),
    Message('note_on', channel=3, note=54, velocity=127, time=0),
    Message('note_off', channel=3, note=61, velocity=127, time=64),
    Message('note_off', channel=3, note=54, velocity=127, time=0),
    Message('note_on', channel=3, note=54, velocity=127, time=32),
    Message('note_on', channel=3, note=61, velocity=127, time=0),
    Message('note_off', channel=3, note=54, velocity=127, time=64),
    Message('note_off', channel=3, note=61, velocity=127, time=0),
    Message('note_on', channel=3, note=61, velocity=127, time=32),
    Message('note_on', channel=3, note=54, velocity=127, time=0),
    Message('note_off', channel=3, note=61, velocity=127, time=64),
    Message('note_off', channel=3, note=54, velocity=127, time=0),
    Message('note_on', channel=3, note=54, velocity=127, time=32),
    Message('note_on', channel=3, note=61, velocity=127, time=0),
    Message('note_off', channel=3, note=54, velocity=127, time=64),
    Message('note_off', channel=3, note=61, velocity=127, time=0),
    Message('note_on', channel=3, note=57, velocity=127, time=32),
    Message('note_on', channel=3, note=64, velocity=127, time=0),
    Message('note_on', channel=3, note=69, velocity=127, time=0),
    Message('note_off', channel=3, note=57, velocity=127, time=256),
    Message('note_off', channel=3, note=64, velocity=127, time=0),
    Message('note_off', channel=3, note=69, velocity=127, time=0),
    Message('note_on', channel=3, note=57, velocity=127, time=32),
    Message('note_on', channel=3, note=64, velocity=127, time=0),
    Message('note_off', channel=3, note=57, velocity=127, time=64),
    Message('note_off', channel=3, note=64, velocity=127, time=0),
    Message('note_on', channel=3, note=57, velocity=127, time=32),
    Message('note_on', channel=3, note=64, velocity=127, time=0),
    Message('note_off', channel=3, note=57, velocity=127, time=64),
    Message('note_off', channel=3, note=64, velocity=127, time=0),
    Message('note_on', channel=3, note=57, velocity=127, time=32),
    Message('note_on', channel=3, note=64, velocity=127, time=0),
    Message('note_off', channel=3, note=57, velocity=127, time=64),
    Message('note_off', channel=3, note=64, velocity=127, time=0),
    Message('note_on', channel=3, note=58, velocity=127, time=32),
    Message('note_on', channel=3, note=65, velocity=127, time=0),
    Message('note_on', channel=3, note=70, velocity=127, time=0),
    Message('note_off', channel=3, note=58, velocity=127, time=64),
    Message('note_off', channel=3, note=65, velocity=127, time=0),
    Message('note_off', channel=3, note=70, velocity=127, time=0),
    Message('note_on', channel=3, note=59, velocity=127, time=128),
    Message('note_on', channel=3, note=66, velocity=127, time=0),
    Message('note_on', channel=3, note=71, velocity=127, time=0),
    Message('note_off', channel=3, note=59, velocity=127, time=256),
    Message('note_off', channel=3, note=66, velocity=127, time=0),
    Message('note_off', channel=3, note=71, velocity=127, time=0),
    Message('note_on', channel=3, note=59, velocity=127, time=32),
    Message('note_on', channel=3, note=66, velocity=127, time=0),
    Message('note_off', channel=3, note=59, velocity=127, time=64),
    Message('note_off', channel=3, note=66, velocity=127, time=0),
    Message('note_on', channel=3, note=59, velocity=127, time=32),
    Message('note_on', channel=3, note=66, velocity=127, time=0),
    Message('note_off', channel=3, note=59, velocity=127, time=64),
    Message('note_off', channel=3, note=66, velocity=127, time=0),
    Message('note_on', channel=3, note=59, velocity=127, time=32),
    Message('note_on', channel=3, note=66, velocity=127, time=0),
    Message('note_off', channel=3, note=59, velocity=127, time=64),
    Message('note_off', channel=3, note=66, velocity=127, time=0),
    Message('note_on', channel=3, note=59, velocity=127, time=32),
    Message('note_on', channel=3, note=66, velocity=127, time=0),
    Message('note_off', channel=3, note=59, velocity=127, time=64),
    Message('note_off', channel=3, note=66, velocity=127, time=0),
    Message('note_on', channel=3, note=59, velocity=127, time=32),
    Message('note_on', channel=3, note=66, velocity=127, time=0),
    Message('note_off', channel=3, note=59, velocity=127, time=64),
    Message('note_off', channel=3, note=66, velocity=127, time=0),
    Message('note_on', channel=3, note=59, velocity=127, time=32),
    Message('note_on', channel=3, note=66, velocity=127, time=0),
    Message('note_off', channel=3, note=59, velocity=127, time=64),
    Message('note_off', channel=3, note=66, velocity=127, time=0),
    Message('note_on', channel=3, note=59, velocity=127, time=32),
    Message('note_on', channel=3, note=66, velocity=127, time=0),
    Message('note_off', channel=3, note=59, velocity=127, time=64),
    Message('note_off', channel=3, note=66, velocity=127, time=0),
    Message('note_on', channel=3, note=59, velocity=127, time=32),
    Message('note_on', channel=3, note=66, velocity=127, time=0),
    Message('note_off', channel=3, note=59, velocity=127, time=64),
    Message('note_off', channel=3, note=66, velocity=127, time=0),
    Message('note_on', channel=3, note=59, velocity=127, time=32),
    Message('note_on', channel=3, note=66, velocity=127, time=0),
    Message('note_off', channel=3, note=59, velocity=127, time=64),
    Message('note_off', channel=3, note=66, velocity=127, time=0),
    Message('note_on', channel=3, note=59, velocity=127, time=32),
    Message('note_on', channel=3, note=66, velocity=127, time=0),
    Message('note_off', channel=3, note=59, velocity=127, time=64),
    Message('note_off', channel=3, note=66, velocity=127, time=0),
    Message('note_on', channel=3, note=59, velocity=127, time=32),
    Message('note_on', channel=3, note=66, velocity=127, time=0),
    Message('note_on', channel=3, note=71, velocity=127, time=0),
    Message('note_off', channel=3, note=59, velocity=127, time=64),
    Message('note_off', channel=3, note=66, velocity=127, time=0),
    Message('note_off', channel=3, note=71, velocity=127, time=0),
    Message('note_on', channel=3, note=59, velocity=127, time=32),
    Message('note_on', channel=3, note=66, velocity=127, time=0),
    Message('note_on', channel=3, note=71, velocity=127, time=0),
    Message('note_off', channel=3, note=59, velocity=127, time=64),
    Message('note_off', channel=3, note=66, velocity=127, time=0),
    Message('note_off', channel=3, note=71, velocity=127, time=0),
    Message('note_on', channel=3, note=55, velocity=127, time=128),
    Message('note_on', channel=3, note=67, velocity=127, time=0),
    Message('note_on', channel=3, note=62, velocity=127, time=0),
    Message('note_off', channel=3, note=55, velocity=127, time=256),
    Message('note_off', channel=3, note=67, velocity=127, time=0),
    Message('note_off', channel=3, note=62, velocity=127, time=0),
    Message('note_on', channel=3, note=55, velocity=127, time=32),
    Message('note_on', channel=3, note=62, velocity=127, time=0),
    Message('note_off', channel=3, note=55, velocity=127, time=64),
    Message('note_off', channel=3, note=62, velocity=127, time=0),
    Message('note_on', channel=3, note=55, velocity=127, time=32),
    Message('note_on', channel=3, note=62, velocity=127, time=0),
    Message('note_off', channel=3, note=55, velocity=127, time=64),
    Message('note_off', channel=3, note=62, velocity=127, time=0),
    Message('note_on', channel=3, note=55, velocity=127, time=32),
    Message('note_on', channel=3, note=62, velocity=127, time=0),
    Message('note_off', channel=3, note=55, velocity=127, time=64),
    Message('note_off', channel=3, note=62, velocity=127, time=0),
    Message('note_on', channel=3, note=55, velocity=127, time=32),
    Message('note_on', channel=3, note=62, velocity=127, time=0),
    Message('note_off', channel=3, note=55, velocity=127, time=64),
    Message('note_off', channel=3, note=62, velocity=127, time=0),
    Message('note_on', channel=3, note=55, velocity=127, time=32),
    Message('note_on', channel=3, note=62, velocity=127, time=0),
    Message('note_off', channel=3, note=55, velocity=127, time=64),
    Message('note_off', channel=3, note=62, velocity=127, time=0),
    Message('note_on', channel=3, note=55, velocity=127, time=32),
    Message('note_on', channel=3, note=62, velocity=127, time=0),
    Message('note_off', channel=3, note=55, velocity=127, time=64),
    Message('note_off', channel=3, note=62, velocity=127, time=0),
    Message('note_on', channel=3, note=55, velocity=127, time=32),
    Message('note_on', channel=3, note=62, velocity=127, time=0),
    Message('note_off', channel=3, note=55, velocity=127, time=64),
    Message('note_off', channel=3, note=62, velocity=127, time=0),
    Message('note_on', channel=3, note=55, velocity=127, time=32),
    Message('note_on', channel=3, note=62, velocity=127, time=0),
    Message('note_off', channel=3, note=55, velocity=127, time=64),
    Message('note_off', channel=3, note=62, velocity=127, time=0),
    Message('note_on', channel=3, note=55, velocity=127, time=32),
    Message('note_on', channel=3, note=62, velocity=127, time=0),
    Message('note_off', channel=3, note=55, velocity=127, time=64),
    Message('note_off', channel=3, note=62, velocity=127, time=0),
    Message('note_on', channel=3, note=55, velocity=127, time=32),
    Message('note_on', channel=3, note=62, velocity=127, time=0),
    Message('note_off', channel=3, note=55, velocity=127, time=64),
    Message('note_off', channel=3, note=62, velocity=127, time=0),
    Message('note_on', channel=3, note=55, velocity=127, time=32),
    Message('note_on', channel=3, note=62, velocity=127, time=0),
    Message('note_on', channel=3, note=67, velocity=127, time=0),
    Message('note_off', channel=3, note=55, velocity=127, time=64),
    Message('note_off', channel=3, note=62, velocity=127, time=0),
    Message('note_off', channel=3, note=67, velocity=127, time=0),
    Message('note_on', channel=3, note=55, velocity=127, time=32),
    Message('note_on', channel=3, note=62, velocity=127, time=0),
    Message('note_on', channel=3, note=67, velocity=127, time=0),
    Message('note_off', channel=3, note=55, velocity=127, time=64),
    Message('note_off', channel=3, note=62, velocity=127, time=0),
    Message('note_off', channel=3, note=67, velocity=127, time=0),
    Message('note_on', channel=3, note=59, velocity=127, time=128),
    Message('note_on', channel=3, note=64, velocity=127, time=0),
    Message('note_on', channel=3, note=52, velocity=127, time=0),
    Message('note_off', channel=3, note=59, velocity=127, time=256),
    Message('note_off', channel=3, note=64, velocity=127, time=0),
    Message('note_off', channel=3, note=52, velocity=127, time=0),
    Message('note_on', channel=3, note=52, velocity=127, time=32),
    Message('note_on', channel=3, note=59, velocity=127, time=0),
    Message('note_off', channel=3, note=52, velocity=127, time=64),
    Message('note_off', channel=3, note=59, velocity=127, time=0),
    Message('note_on', channel=3, note=52, velocity=127, time=32),
    Message('note_on', channel=3, note=59, velocity=127, time=0),
    Message('note_off', channel=3, note=52, velocity=127, time=64),
    Message('note_off', channel=3, note=59, velocity=127, time=0),
    Message('note_on', channel=3, note=52, velocity=127, time=32),
    Message('note_on', channel=3, note=59, velocity=127, time=0),
    Message('note_off', channel=3, note=52, velocity=127, time=64),
    Message('note_off', channel=3, note=59, velocity=127, time=0),
    Message('note_on', channel=3, note=52, velocity=127, time=32),
    Message('note_on', channel=3, note=59, velocity=127, time=0),
    Message('note_off', channel=3, note=52, velocity=127, time=64),
    Message('note_off', channel=3, note=59, velocity=127, time=0),
    Message('note_on', channel=3, note=52, velocity=127, time=32),
    Message('note_on', channel=3, note=59, velocity=127, time=0),
    Message('note_off', channel=3, note=52, velocity=127, time=64),
    Message('note_off', channel=3, note=59, velocity=127, time=0),
    Message('note_on', channel=3, note=52, velocity=127, time=32),
    Message('note_on', channel=3, note=59, velocity=127, time=0),
    Message('note_off', channel=3, note=52, velocity=127, time=64),
    Message('note_off', channel=3, note=59, velocity=127, time=0),
    Message('note_on', channel=3, note=52, velocity=127, time=32),
    Message('note_on', channel=3, note=59, velocity=127, time=0),
    Message('note_off', channel=3, note=52, velocity=127, time=64),
    Message('note_off', channel=3, note=59, velocity=127, time=0),
    Message('note_on', channel=3, note=52, velocity=127, time=32),
    Message('note_on', channel=3, note=59, velocity=127, time=0),
    Message('note_off', channel=3, note=52, velocity=127, time=64),
    Message('note_off', channel=3, note=59, velocity=127, time=0),
    Message('note_on', channel=3, note=52, velocity=127, time=32),
    Message('note_on', channel=3, note=59, velocity=127, time=0),
    Message('note_off', channel=3, note=52, velocity=127, time=64),
    Message('note_off', channel=3, note=59, velocity=127, time=0),
    Message('note_on', channel=3, note=52, velocity=127, time=32),
    Message('note_on', channel=3, note=59, velocity=127, time=0),
    Message('note_off', channel=3, note=52, velocity=127, time=64),
    Message('note_off', channel=3, note=59, velocity=127, time=0),
    Message('note_on', channel=3, note=52, velocity=127, time=32),
    Message('note_on', channel=3, note=59, velocity=127, time=0),
    Message('note_on', channel=3, note=64, velocity=127, time=0),
    Message('note_off', channel=3, note=52, velocity=127, time=64),
    Message('note_off', channel=3, note=59, velocity=127, time=0),
    Message('note_off', channel=3, note=64, velocity=127, time=0),
    Message('note_on', channel=3, note=52, velocity=127, time=32),
    Message('note_on', channel=3, note=59, velocity=127, time=0),
    Message('note_on', channel=3, note=64, velocity=127, time=0),
    Message('note_off', channel=3, note=52, velocity=127, time=64),
    Message('note_off', channel=3, note=59, velocity=127, time=0),
    Message('note_off', channel=3, note=64, velocity=127, time=0),
    Message('note_on', channel=3, note=54, velocity=127, time=128),
    Message('note_on', channel=3, note=66, velocity=127, time=0),
    Message('note_on', channel=3, note=61, velocity=127, time=0),
    Message('note_off', channel=3, note=54, velocity=127, time=256),
    Message('note_off', channel=3, note=66, velocity=127, time=0),
    Message('note_off', channel=3, note=61, velocity=127, time=0),
    Message('note_on', channel=3, note=54, velocity=127, time=32),
    Message('note_on', channel=3, note=61, velocity=127, time=0),
    Message('note_off', channel=3, note=54, velocity=127, time=64),
    Message('note_off', channel=3, note=61, velocity=127, time=0),
    Message('note_on', channel=3, note=61, velocity=127, time=32),
    Message('note_on', channel=3, note=54, velocity=127, time=0),
    Message('note_off', channel=3, note=61, velocity=127, time=64),
    Message('note_off', channel=3, note=54, velocity=127, time=0),
    Message('note_on', channel=3, note=54, velocity=127, time=32),
    Message('note_on', channel=3, note=61, velocity=127, time=0),
    Message('note_off', channel=3, note=54, velocity=127, time=64),
    Message('note_off', channel=3, note=61, velocity=127, time=0),
    Message('note_on', channel=3, note=61, velocity=127, time=32),
    Message('note_on', channel=3, note=54, velocity=127, time=0),
    Message('note_off', channel=3, note=61, velocity=127, time=64),
    Message('note_off', channel=3, note=54, velocity=127, time=0),
    Message('note_on', channel=3, note=54, velocity=127, time=32),
    Message('note_on', channel=3, note=61, velocity=127, time=0),
    Message('note_off', channel=3, note=54, velocity=127, time=64),
    Message('note_off', channel=3, note=61, velocity=127, time=0),
    Message('note_on', channel=3, note=57, velocity=127, time=32),
    Message('note_on', channel=3, note=64, velocity=127, time=0),
    Message('note_on', channel=3, note=69, velocity=127, time=0),
    Message('note_off', channel=3, note=57, velocity=127, time=256),
    Message('note_off', channel=3, note=64, velocity=127, time=0),
    Message('note_off', channel=3, note=69, velocity=127, time=0),
    Message('note_on', channel=3, note=57, velocity=127, time=32),
    Message('note_on', channel=3, note=64, velocity=127, time=0),
    Message('note_off', channel=3, note=57, velocity=127, time=64),
    Message('note_off', channel=3, note=64, velocity=127, time=0),
    Message('note_on', channel=3, note=57, velocity=127, time=32),
    Message('note_on', channel=3, note=64, velocity=127, time=0),
    Message('note_off', channel=3, note=57, velocity=127, time=64),
    Message('note_off', channel=3, note=64, velocity=127, time=0),
    Message('note_on', channel=3, note=57, velocity=127, time=32),
    Message('note_on', channel=3, note=64, velocity=127, time=0),
    Message('note_off', channel=3, note=57, velocity=127, time=64),
    Message('note_off', channel=3, note=64, velocity=127, time=0),
    Message('note_on', channel=3, note=58, velocity=127, time=32),
    Message('note_on', channel=3, note=65, velocity=127, time=0),
    Message('note_on', channel=3, note=70, velocity=127, time=0),
    Message('note_off', channel=3, note=58, velocity=127, time=64),
    Message('note_off', channel=3, note=65, velocity=127, time=0),
    Message('note_off', channel=3, note=70, velocity=127, time=0),
    Message('note_on', channel=3, note=59, velocity=127, time=128),
    Message('note_on', channel=3, note=66, velocity=127, time=0),
    Message('note_on', channel=3, note=71, velocity=127, time=0),
    Message('note_off', channel=3, note=59, velocity=127, time=256),
    Message('note_off', channel=3, note=66, velocity=127, time=0),
    Message('note_off', channel=3, note=71, velocity=127, time=0),
    Message('note_on', channel=3, note=71, velocity=127, time=32),
    Message('note_on', channel=3, note=66, velocity=127, time=0),
    Message('note_off', channel=3, note=71, velocity=127, time=64),
    Message('note_off', channel=3, note=66, velocity=127, time=0),
    Message('note_on', channel=3, note=59, velocity=127, time=32),
    Message('note_off', channel=3, note=59, velocity=127, time=64),
    Message('note_on', channel=3, note=59, velocity=127, time=32),
    Message('note_off', channel=3, note=59, velocity=127, time=64),
    Message('note_on', channel=3, note=66, velocity=127, time=32),
    Message('note_on', channel=3, note=61, velocity=127, time=0),
    Message('note_off', channel=3, note=66, velocity=127, time=64),
    Message('note_off', channel=3, note=61, velocity=127, time=0),
    Message('note_on', channel=3, note=59, velocity=127, time=32),
    Message('note_off', channel=3, note=59, velocity=127, time=64),
    Message('note_on', channel=3, note=59, velocity=127, time=32),
    Message('note_off', channel=3, note=59, velocity=127, time=64),
    Message('note_on', channel=3, note=71, velocity=127, time=32),
    Message('note_on', channel=3, note=66, velocity=127, time=0),
    Message('note_off', channel=3, note=71, velocity=127, time=64),
    Message('note_off', channel=3, note=66, velocity=127, time=0),
    Message('note_on', channel=3, note=59, velocity=127, time=32),
    Message('note_off', channel=3, note=59, velocity=127, time=64),
    Message('note_on', channel=3, note=59, velocity=127, time=32),
    Message('note_off', channel=3, note=59, velocity=127, time=64),
    Message('note_on', channel=3, note=69, velocity=127, time=32),
    Message('note_on', channel=3, note=64, velocity=127, time=0),
    Message('note_off', channel=3, note=69, velocity=127, time=64),
    Message('note_off', channel=3, note=64, velocity=127, time=0),
    Message('note_on', channel=3, note=59, velocity=127, time=32),
    Message('note_off', channel=3, note=59, velocity=127, time=64),
    Message('note_on', channel=3, note=69, velocity=127, time=32),
    Message('note_on', channel=3, note=64, velocity=127, time=0),
    Message('note_off', channel=3, note=69, velocity=127, time=64),
    Message('note_off', channel=3, note=64, velocity=127, time=0),
    Message('note_on', channel=3, note=71, velocity=127, time=32),
    Message('note_on', channel=3, note=66, velocity=127, time=0),
    Message('note_off', channel=3, note=71, velocity=127, time=64),
    Message('note_off', channel=3, note=66, velocity=127, time=0),
    Message('note_on', channel=3, note=55, velocity=127, time=32),
    Message('note_off', channel=3, note=55, velocity=127, time=192),
    Message('note_on', channel=3, note=55, velocity=127, time=0),
    Message('note_off', channel=3, note=55, velocity=127, time=64),
    Message('note_on', channel=3, note=71, velocity=127, time=32),
    Message('note_on', channel=3, note=66, velocity=127, time=0),
    Message('note_off', channel=3, note=71, velocity=127, time=64),
    Message('note_off', channel=3, note=66, velocity=127, time=0),
    Message('note_on', channel=3, note=55, velocity=127, time=32),
    Message('note_off', channel=3, note=55, velocity=127, time=64),
    Message('note_on', channel=3, note=55, velocity=127, time=32),
    Message('note_off', channel=3, note=55, velocity=127, time=64),
    Message('note_on', channel=3, note=61, velocity=127, time=32),
    Message('note_on', channel=3, note=66, velocity=127, time=0),
    Message('note_off', channel=3, note=61, velocity=127, time=64),
    Message('note_off', channel=3, note=66, velocity=127, time=0),
    Message('note_on', channel=3, note=55, velocity=127, time=32),
    Message('note_off', channel=3, note=55, velocity=127, time=64),
    Message('note_on', channel=3, note=55, velocity=127, time=32),
    Message('note_off', channel=3, note=55, velocity=127, time=64),
    Message('note_on', channel=3, note=71, velocity=127, time=32),
    Message('note_on', channel=3, note=66, velocity=127, time=0),
    Message('note_off', channel=3, note=71, velocity=127, time=64),
    Message('note_off', channel=3, note=66, velocity=127, time=0),
    Message('note_on', channel=3, note=55, velocity=127, time=32),
    Message('note_off', channel=3, note=55, velocity=127, time=64),
    Message('note_on', channel=3, note=55, velocity=127, time=32),
    Message('note_off', channel=3, note=55, velocity=127, time=64),
    Message('note_on', channel=3, note=69, velocity=127, time=32),
    Message('note_on', channel=3, note=64, velocity=127, time=0),
    Message('note_off', channel=3, note=69, velocity=127, time=64),
    Message('note_off', channel=3, note=64, velocity=127, time=0),
    Message('note_on', channel=3, note=55, velocity=127, time=32),
    Message('note_off', channel=3, note=55, velocity=127, time=64),
    Message('note_on', channel=3, note=64, velocity=127, time=32),
    Message('note_on', channel=3, note=69, velocity=127, time=0),
    Message('note_off', channel=3, note=64, velocity=127, time=64),
    Message('note_off', channel=3, note=69, velocity=127, time=0),
    Message('note_on', channel=3, note=71, velocity=127, time=32),
    Message('note_on', channel=3, note=66, velocity=127, time=0),
    Message('note_off', channel=3, note=71, velocity=127, time=64),
    Message('note_off', channel=3, note=66, velocity=127, time=0),
    Message('note_on', channel=3, note=52, velocity=127, time=32),
    Message('note_off', channel=3, note=52, velocity=127, time=156),
    Message('note_on', channel=3, note=52, velocity=127, time=36),
    Message('note_off', channel=3, note=52, velocity=127, time=64),
    Message('note_on', channel=3, note=71, velocity=127, time=32),
    Message('note_on', channel=3, note=66, velocity=127, time=0),
    Message('note_off', channel=3, note=71, velocity=127, time=64),
    Message('note_off', channel=3, note=66, velocity=127, time=0),
    Message('note_on', channel=3, note=52, velocity=127, time=32),
    Message('note_off', channel=3, note=52, velocity=127, time=64),
    Message('note_on', channel=3, note=52, velocity=127, time=32),
    Message('note_off', channel=3, note=52, velocity=127, time=64),
    Message('note_on', channel=3, note=66, velocity=127, time=32),
    Message('note_on', channel=3, note=61, velocity=127, time=0),
    Message('note_off', channel=3, note=66, velocity=127, time=64),
    Message('note_off', channel=3, note=61, velocity=127, time=0),
    Message('note_on', channel=3, note=52, velocity=127, time=32),
    Message('note_off', channel=3, note=52, velocity=127, time=64),
    Message('note_on', channel=3, note=52, velocity=127, time=32),
    Message('note_off', channel=3, note=52, velocity=127, time=64),
    Message('note_on', channel=3, note=66, velocity=127, time=32),
    Message('note_on', channel=3, note=71, velocity=127, time=0),
    Message('note_off', channel=3, note=66, velocity=127, time=64),
    Message('note_off', channel=3, note=71, velocity=127, time=0),
    Message('note_on', channel=3, note=52, velocity=127, time=32),
    Message('note_off', channel=3, note=52, velocity=127, time=64),
    Message('note_on', channel=3, note=52, velocity=127, time=32),
    Message('note_off', channel=3, note=52, velocity=127, time=64),
    Message('note_on', channel=3, note=64, velocity=127, time=32),
    Message('note_on', channel=3, note=69, velocity=127, time=0),
    Message('note_off', channel=3, note=64, velocity=127, time=64),
    Message('note_off', channel=3, note=69, velocity=127, time=0),
    Message('note_on', channel=3, note=52, velocity=127, time=32),
    Message('note_off', channel=3, note=52, velocity=127, time=64),
    Message('note_on', channel=3, note=64, velocity=127, time=32),
    Message('note_on', channel=3, note=69, velocity=127, time=0),
    Message('note_off', channel=3, note=64, velocity=127, time=64),
    Message('note_off', channel=3, note=69, velocity=127, time=0),
    Message('note_on', channel=3, note=66, velocity=127, time=32),
    Message('note_on', channel=3, note=71, velocity=127, time=0),
    Message('note_off', channel=3, note=66, velocity=127, time=64),
    Message('note_off', channel=3, note=71, velocity=127, time=0),
    Message('note_on', channel=3, note=54, velocity=127, time=32),
    Message('note_off', channel=3, note=54, velocity=127, time=148),
    Message('note_on', channel=3, note=54, velocity=127, time=44),
    Message('note_off', channel=3, note=54, velocity=127, time=64),
    Message('note_on', channel=3, note=66, velocity=127, time=32),
    Message('note_on', channel=3, note=71, velocity=127, time=0),
    Message('note_off', channel=3, note=66, velocity=127, time=64),
    Message('note_off', channel=3, note=71, velocity=127, time=0),
    Message('note_on', channel=3, note=54, velocity=127, time=32),
    Message('note_off', channel=3, note=54, velocity=127, time=64),
    Message('note_on', channel=3, note=54, velocity=127, time=32),
    Message('note_off', channel=3, note=54, velocity=127, time=64),
    Message('note_on', channel=3, note=61, velocity=127, time=32),
    Message('note_on', channel=3, note=66, velocity=127, time=0),
    Message('note_off', channel=3, note=61, velocity=127, time=64),
    Message('note_off', channel=3, note=66, velocity=127, time=0),
    Message('note_on', channel=3, note=54, velocity=127, time=32),
    Message('note_off', channel=3, note=54, velocity=127, time=64),
    Message('note_on', channel=3, note=57, velocity=127, time=32),
    Message('note_off', channel=3, note=57, velocity=127, time=192),
    Message('note_on', channel=3, note=57, velocity=127, time=0),
    Message('note_off', channel=3, note=57, velocity=127, time=64),
    Message('note_on', channel=3, note=66, velocity=127, time=32),
    Message('note_on', channel=3, note=71, velocity=127, time=0),
    Message('note_off', channel=3, note=66, velocity=127, time=64),
    Message('note_off', channel=3, note=71, velocity=127, time=0),
    Message('note_on', channel=3, note=57, velocity=127, time=32),
    Message('note_off', channel=3, note=57, velocity=127, time=64),
    Message('note_on', channel=3, note=57, velocity=127, time=32),
    Message('note_off', channel=3, note=57, velocity=127, time=64),
    Message('note_on', channel=3, note=58, velocity=127, time=32),
    Message('note_off', channel=3, note=58, velocity=127, time=64),
    Message('note_on', channel=3, note=59, velocity=127, time=128),
    Message('note_off', channel=3, note=59, velocity=127, time=192),
    Message('note_on', channel=3, note=59, velocity=127, time=0),
    Message('note_off', channel=3, note=59, velocity=127, time=64),
    Message('note_on', channel=3, note=71, velocity=127, time=32),
    Message('note_on', channel=3, note=66, velocity=127, time=0),
    Message('note_off', channel=3, note=71, velocity=127, time=64),
    Message('note_off', channel=3, note=66, velocity=127, time=0),
    Message('note_on', channel=3, note=59, velocity=127, time=32),
    Message('note_off', channel=3, note=59, velocity=127, time=64),
    Message('note_on', channel=3, note=59, velocity=127, time=32),
    Message('note_off', channel=3, note=59, velocity=127, time=64),
    Message('note_on', channel=3, note=66, velocity=127, time=32),
    Message('note_on', channel=3, note=61, velocity=127, time=0),
    Message('note_off', channel=3, note=66, velocity=127, time=64),
    Message('note_off', channel=3, note=61, velocity=127, time=0),
    Message('note_on', channel=3, note=59, velocity=127, time=32),
    Message('note_off', channel=3, note=59, velocity=127, time=64),
    Message('note_on', channel=3, note=59, velocity=127, time=32),
    Message('note_off', channel=3, note=59, velocity=127, time=64),
    Message('note_on', channel=3, note=71, velocity=127, time=32),
    Message('note_on', channel=3, note=66, velocity=127, time=0),
    Message('note_off', channel=3, note=71, velocity=127, time=64),
    Message('note_off', channel=3, note=66, velocity=127, time=0),
    Message('note_on', channel=3, note=59, velocity=127, time=32),
    Message('note_off', channel=3, note=59, velocity=127, time=64),
    Message('note_on', channel=3, note=59, velocity=127, time=32),
    Message('note_off', channel=3, note=59, velocity=127, time=64),
    Message('note_on', channel=3, note=69, velocity=127, time=32),
    Message('note_on', channel=3, note=64, velocity=127, time=0),
    Message('note_off', channel=3, note=69, velocity=127, time=64),
    Message('note_off', channel=3, note=64, velocity=127, time=0),
    Message('note_on', channel=3, note=59, velocity=127, time=32),
    Message('note_off', channel=3, note=59, velocity=127, time=64),
    Message('note_on', channel=3, note=69, velocity=127, time=32),
    Message('note_on', channel=3, note=64, velocity=127, time=0),
    Message('note_off', channel=3, note=69, velocity=127, time=64),
    Message('note_off', channel=3, note=64, velocity=127, time=0),
    Message('note_on', channel=3, note=71, velocity=127, time=32),
    Message('note_on', channel=3, note=66, velocity=127, time=0),
    Message('note_off', channel=3, note=71, velocity=127, time=64),
    Message('note_off', channel=3, note=66, velocity=127, time=0),
    Message('note_on', channel=3, note=55, velocity=127, time=32),
    Message('note_off', channel=3, note=55, velocity=127, time=192),
    Message('note_on', channel=3, note=55, velocity=127, time=0),
    Message('note_off', channel=3, note=55, velocity=127, time=64),
    Message('note_on', channel=3, note=71, velocity=127, time=32),
    Message('note_on', channel=3, note=66, velocity=127, time=0),
    Message('note_off', channel=3, note=71, velocity=127, time=64),
    Message('note_off', channel=3, note=66, velocity=127, time=0),
    Message('note_on', channel=3, note=55, velocity=127, time=32),
    Message('note_off', channel=3, note=55, velocity=127, time=64),
    Message('note_on', channel=3, note=55, velocity=127, time=32),
    Message('note_off', channel=3, note=55, velocity=127, time=64),
    Message('note_on', channel=3, note=61, velocity=127, time=32),
    Message('note_on', channel=3, note=66, velocity=127, time=0),
    Message('note_off', channel=3, note=61, velocity=127, time=64),
    Message('note_off', channel=3, note=66, velocity=127, time=0),
    Message('note_on', channel=3, note=55, velocity=127, time=32),
    Message('note_off', channel=3, note=55, velocity=127, time=64),
    Message('note_on', channel=3, note=55, velocity=127, time=32),
    Message('note_off', channel=3, note=55, velocity=127, time=64),
    Message('note_on', channel=3, note=71, velocity=127, time=32),
    Message('note_on', channel=3, note=66, velocity=127, time=0),
    Message('note_off', channel=3, note=71, velocity=127, time=64),
    Message('note_off', channel=3, note=66, velocity=127, time=0),
    Message('note_on', channel=3, note=55, velocity=127, time=32),
    Message('note_off', channel=3, note=55, velocity=127, time=64),
    Message('note_on', channel=3, note=55, velocity=127, time=32),
    Message('note_off', channel=3, note=55, velocity=127, time=64),
    Message('note_on', channel=3, note=69, velocity=127, time=32),
    Message('note_on', channel=3, note=64, velocity=127, time=0),
    Message('note_off', channel=3, note=69, velocity=127, time=64),
    Message('note_off', channel=3, note=64, velocity=127, time=0),
    Message('note_on', channel=3, note=55, velocity=127, time=32),
    Message('note_off', channel=3, note=55, velocity=127, time=64),
    Message('note_on', channel=3, note=64, velocity=127, time=32),
    Message('note_on', channel=3, note=69, velocity=127, time=0),
    Message('note_off', channel=3, note=64, velocity=127, time=64),
    Message('note_off', channel=3, note=69, velocity=127, time=0),
    Message('note_on', channel=3, note=71, velocity=127, time=32),
    Message('note_on', channel=3, note=66, velocity=127, time=0),
    Message('note_off', channel=3, note=71, velocity=127, time=64),
    Message('note_off', channel=3, note=66, velocity=127, time=0),
    Message('note_on', channel=3, note=52, velocity=127, time=32),
    Message('note_off', channel=3, note=52, velocity=127, time=156),
    Message('note_on', channel=3, note=52, velocity=127, time=36),
    Message('note_off', channel=3, note=52, velocity=127, time=64),
    Message('note_on', channel=3, note=71, velocity=127, time=32),
    Message('note_on', channel=3, note=66, velocity=127, time=0),
    Message('note_off', channel=3, note=71, velocity=127, time=64),
    Message('note_off', channel=3, note=66, velocity=127, time=0),
    Message('note_on', channel=3, note=52, velocity=127, time=32),
    Message('note_off', channel=3, note=52, velocity=127, time=64),
    Message('note_on', channel=3, note=52, velocity=127, time=32),
    Message('note_off', channel=3, note=52, velocity=127, time=64),
    Message('note_on', channel=3, note=66, velocity=127, time=32),
    Message('note_on', channel=3, note=61, velocity=127, time=0),
    Message('note_off', channel=3, note=66, velocity=127, time=64),
    Message('note_off', channel=3, note=61, velocity=127, time=0),
    Message('note_on', channel=3, note=52, velocity=127, time=32),
    Message('note_off', channel=3, note=52, velocity=127, time=64),
    Message('note_on', channel=3, note=52, velocity=127, time=32),
    Message('note_off', channel=3, note=52, velocity=127, time=64),
    Message('note_on', channel=3, note=66, velocity=127, time=32),
    Message('note_on', channel=3, note=71, velocity=127, time=0),
    Message('note_off', channel=3, note=66, velocity=127, time=64),
    Message('note_off', channel=3, note=71, velocity=127, time=0),
    Message('note_on', channel=3, note=52, velocity=127, time=32),
    Message('note_off', channel=3, note=52, velocity=127, time=64),
    Message('note_on', channel=3, note=52, velocity=127, time=32),
    Message('note_off', channel=3, note=52, velocity=127, time=64),
    Message('note_on', channel=3, note=64, velocity=127, time=32),
    Message('note_on', channel=3, note=69, velocity=127, time=0),
    Message('note_off', channel=3, note=64, velocity=127, time=64),
    Message('note_off', channel=3, note=69, velocity=127, time=0),
    Message('note_on', channel=3, note=52, velocity=127, time=32),
    Message('note_off', channel=3, note=52, velocity=127, time=64),
    Message('note_on', channel=3, note=64, velocity=127, time=32),
    Message('note_on', channel=3, note=69, velocity=127, time=0),
    Message('note_off', channel=3, note=64, velocity=127, time=64),
    Message('note_off', channel=3, note=69, velocity=127, time=0),
    Message('note_on', channel=3, note=66, velocity=127, time=32),
    Message('note_on', channel=3, note=71, velocity=127, time=0),
    Message('note_off', channel=3, note=66, velocity=127, time=64),
    Message('note_off', channel=3, note=71, velocity=127, time=0),
    Message('note_on', channel=3, note=54, velocity=127, time=32),
    Message('note_off', channel=3, note=54, velocity=127, time=148),
    Message('note_on', channel=3, note=54, velocity=127, time=44),
    Message('note_off', channel=3, note=54, velocity=127, time=64),
    Message('note_on', channel=3, note=66, velocity=127, time=32),
    Message('note_on', channel=3, note=71, velocity=127, time=0),
    Message('note_off', channel=3, note=66, velocity=127, time=64),
    Message('note_off', channel=3, note=71, velocity=127, time=0),
    Message('note_on', channel=3, note=54, velocity=127, time=32),
    Message('note_off', channel=3, note=54, velocity=127, time=64),
    Message('note_on', channel=3, note=54, velocity=127, time=32),
    Message('note_off', channel=3, note=54, velocity=127, time=64),
    Message('note_on', channel=3, note=61, velocity=127, time=32),
    Message('note_on', channel=3, note=66, velocity=127, time=0),
    Message('note_off', channel=3, note=61, velocity=127, time=64),
    Message('note_off', channel=3, note=66, velocity=127, time=0),
    Message('note_on', channel=3, note=54, velocity=127, time=32),
    Message('note_off', channel=3, note=54, velocity=127, time=64),
    Message('note_on', channel=3, note=57, velocity=127, time=32),
    Message('note_off', channel=3, note=57, velocity=127, time=192),
    Message('note_on', channel=3, note=57, velocity=127, time=0),
    Message('note_off', channel=3, note=57, velocity=127, time=64),
    Message('note_on', channel=3, note=66, velocity=127, time=32),
    Message('note_on', channel=3, note=71, velocity=127, time=0),
    Message('note_off', channel=3, note=66, velocity=127, time=64),
    Message('note_off', channel=3, note=71, velocity=127, time=0),
    Message('note_on', channel=3, note=57, velocity=127, time=32),
    Message('note_off', channel=3, note=57, velocity=127, time=64),
    Message('note_on', channel=3, note=57, velocity=127, time=32),
    Message('note_off', channel=3, note=57, velocity=127, time=64),
    Message('note_on', channel=3, note=58, velocity=127, time=32),
    Message('note_off', channel=3, note=58, velocity=127, time=64),
    Message('note_on', channel=3, note=59, velocity=127, time=128),
    Message('note_off', channel=3, note=59, velocity=127, time=192),
    Message('note_on', channel=3, note=49, velocity=127, time=4),
    Message('note_off', channel=3, note=49, velocity=127, time=64),
    Message('note_on', channel=3, note=50, velocity=127, time=32),
    Message('note_off', channel=3, note=50, velocity=127, time=64),
    Message('note_on', channel=3, note=57, velocity=127, time=28),
    Message('note_off', channel=3, note=57, velocity=127, time=64),
    Message('note_on', channel=3, note=59, velocity=127, time=32),
    Message('note_off', channel=3, note=59, velocity=127, time=64),
    Message('note_on', channel=3, note=62, velocity=127, time=32),
    Message('note_off', channel=3, note=62, velocity=127, time=64),
    Message('note_on', channel=3, note=59, velocity=127, time=32),
    Message('note_off', channel=3, note=59, velocity=127, time=64),
    Message('note_on', channel=3, note=57, velocity=127, time=32),
    Message('note_off', channel=3, note=57, velocity=127, time=64),
    Message('note_on', channel=3, note=59, velocity=127, time=32),
    Message('note_off', channel=3, note=59, velocity=127, time=128),
    Message('note_on', channel=3, note=52, velocity=127, time=64),
    Message('note_off', channel=3, note=52, velocity=127, time=64),
    Message('note_on', channel=3, note=54, velocity=127, time=32),
    Message('note_off', channel=3, note=54, velocity=127, time=64),
    Message('note_on', channel=3, note=57, velocity=127, time=32),
    Message('note_off', channel=3, note=57, velocity=127, time=64),
    Message('note_on', channel=3, note=59, velocity=127, time=32),
    Message('note_off', channel=3, note=59, velocity=127, time=64),
    Message('note_on', channel=3, note=62, velocity=127, time=32),
    Message('note_off', channel=3, note=62, velocity=127, time=64),
    Message('note_on', channel=3, note=59, velocity=127, time=32),
    Message('note_off', channel=3, note=59, velocity=127, time=192),
    Message('note_on', channel=3, note=52, velocity=127, time=0),
    Message('note_off', channel=3, note=52, velocity=127, time=64),
    Message('note_on', channel=3, note=54, velocity=127, time=32),
    Message('note_off', channel=3, note=54, velocity=127, time=64),
    Message('note_on', channel=3, note=57, velocity=127, time=32),
    Message('note_off', channel=3, note=57, velocity=127, time=64),
    Message('note_on', channel=3, note=59, velocity=127, time=32),
    Message('note_off', channel=3, note=59, velocity=127, time=64),
    Message('note_on', channel=3, note=62, velocity=127, time=32),
    Message('note_off', channel=3, note=62, velocity=127, time=64),
    Message('note_on', channel=3, note=59, velocity=127, time=32),
    Message('note_off', channel=3, note=59, velocity=127, time=64),
    Message('note_on', channel=3, note=57, velocity=127, time=32),
    Message('note_off', channel=3, note=57, velocity=127, time=64),
    Message('note_on', channel=3, note=59, velocity=127, time=32),
    Message('note_off', channel=3, note=59, velocity=127, time=128),
    Message('note_on', channel=3, note=52, velocity=127, time=64),
    Message('note_off', channel=3, note=52, velocity=127, time=64),
    Message('note_on', channel=3, note=54, velocity=127, time=32),
    Message('note_off', channel=3, note=54, velocity=127, time=64),
    Message('note_on', channel=3, note=57, velocity=127, time=32),
    Message('note_off', channel=3, note=57, velocity=127, time=64),
    Message('note_on', channel=3, note=59, velocity=127, time=32),
    Message('note_off', channel=3, note=59, velocity=127, time=64),
    Message('note_on', channel=3, note=62, velocity=127, time=32),
    Message('note_off', channel=3, note=62, velocity=127, time=64),
    Message('note_on', channel=3, note=59, velocity=127, time=32),
    Message('note_on', channel=3, note=52, velocity=127, time=192),
    Message('note_off', channel=3, note=59, velocity=127, time=2),
    Message('note_off', channel=3, note=52, velocity=127, time=62),
    Message('note_on', channel=3, note=54, velocity=127, time=32),
    Message('note_off', channel=3, note=54, velocity=127, time=64),
    Message('note_on', channel=3, note=57, velocity=127, time=32),
    Message('note_off', channel=3, note=57, velocity=127, time=64),
    Message('note_on', channel=3, note=59, velocity=127, time=32),
    Message('note_off', channel=3, note=59, velocity=127, time=64),
    Message('note_on', channel=3, note=62, velocity=127, time=32),
    Message('note_off', channel=3, note=62, velocity=127, time=64),
    Message('note_on', channel=3, note=59, velocity=127, time=32),
    Message('note_off', channel=3, note=59, velocity=127, time=64),
    Message('note_on', channel=3, note=57, velocity=127, time=32),
    Message('note_off', channel=3, note=57, velocity=127, time=64),
    Message('note_on', channel=3, note=59, velocity=127, time=32),
    Message('note_off', channel=3, note=59, velocity=127, time=128),
    Message('note_on', channel=3, note=52, velocity=127, time=64),
    Message('note_off', channel=3, note=52, velocity=127, time=64),
    Message('note_on', channel=3, note=54, velocity=127, time=32),
    Message('note_off', channel=3, note=54, velocity=127, time=64),
    Message('note_on', channel=3, note=57, velocity=127, time=32),
    Message('note_off', channel=3, note=57, velocity=127, time=64),
    Message('note_on', channel=3, note=59, velocity=127, time=32),
    Message('note_off', channel=3, note=59, velocity=127, time=64),
    Message('note_on', channel=3, note=62, velocity=127, time=32),
    Message('note_off', channel=3, note=62, velocity=127, time=64),
    Message('note_on', channel=3, note=59, velocity=127, time=32),
    Message('note_on', channel=3, note=52, velocity=127, time=192),
    Message('note_off', channel=3, note=59, velocity=127, time=2),
    Message('note_off', channel=3, note=52, velocity=127, time=62),
    Message('note_on', channel=3, note=54, velocity=127, time=32),
    Message('note_off', channel=3, note=54, velocity=127, time=64),
    Message('note_on', channel=3, note=57, velocity=127, time=32),
    Message('note_off', channel=3, note=57, velocity=127, time=64),
    Message('note_on', channel=3, note=59, velocity=127, time=32),
    Message('note_off', channel=3, note=59, velocity=127, time=64),
    Message('note_on', channel=3, note=62, velocity=127, time=32),
    Message('note_off', channel=3, note=62, velocity=127, time=64),
    Message('note_on', channel=3, note=59, velocity=127, time=32),
    Message('note_off', channel=3, note=59, velocity=127, time=64),
    Message('note_on', channel=3, note=57, velocity=127, time=32),
    Message('note_off', channel=3, note=57, velocity=127, time=64),
    Message('note_on', channel=3, note=59, velocity=127, time=32),
    Message('note_off', channel=3, note=59, velocity=127, time=128),
    Message('note_on', channel=3, note=52, velocity=127, time=64),
    Message('note_off', channel=3, note=52, velocity=127, time=64),
    Message('note_on', channel=3, note=54, velocity=127, time=32),
    Message('note_off', channel=3, note=54, velocity=127, time=64),
    Message('note_on', channel=3, note=57, velocity=127, time=32),
    Message('note_off', channel=3, note=57, velocity=127, time=64),
    Message('note_on', channel=3, note=59, velocity=127, time=32),
    Message('note_off', channel=3, note=59, velocity=127, time=64),
    Message('note_on', channel=3, note=62, velocity=127, time=32),
    Message('note_off', channel=3, note=62, velocity=127, time=64),
    Message('note_on', channel=3, note=59, velocity=127, time=32),
    Message('note_off', channel=3, note=59, velocity=127, time=194),
    Message('note_on', channel=3, note=52, velocity=127, time=2),
    Message('note_off', channel=3, note=52, velocity=127, time=64),
    Message('note_on', channel=3, note=54, velocity=127, time=32),
    Message('note_off', channel=3, note=54, velocity=127, time=64),
    Message('note_on', channel=3, note=57, velocity=127, time=32),
    Message('note_off', channel=3, note=57, velocity=127, time=64),
    Message('note_on', channel=3, note=59, velocity=127, time=32),
    Message('note_off', channel=3, note=59, velocity=127, time=64),
    Message('note_on', channel=3, note=62, velocity=127, time=32),
    Message('note_off', channel=3, note=62, velocity=127, time=64),
    Message('note_on', channel=3, note=59, velocity=127, time=32),
    Message('note_off', channel=3, note=59, velocity=127, time=64),
    Message('note_on', channel=3, note=57, velocity=127, time=32),
    Message('note_off', channel=3, note=57, velocity=127, time=64),
    Message('note_on', channel=3, note=59, velocity=127, time=32),
    Message('note_off', channel=3, note=59, velocity=127, time=128),
    Message('note_on', channel=3, note=52, velocity=127, time=64),
    Message('note_off', channel=3, note=52, velocity=127, time=64),
    Message('note_on', channel=3, note=54, velocity=127, time=32),
    Message('note_off', channel=3, note=54, velocity=127, time=64),
    Message('note_on', channel=3, note=57, velocity=127, time=32),
    Message('note_off', channel=3, note=57, velocity=127, time=64),
    Message('note_on', channel=3, note=59, velocity=127, time=32),
    Message('note_off', channel=3, note=59, velocity=127, time=64),
    Message('note_on', channel=3, note=62, velocity=127, time=32),
    Message('note_off', channel=3, note=62, velocity=127, time=64),
    Message('note_on', channel=3, note=59, velocity=127, time=32),
    Message('note_on', channel=3, note=52, velocity=127, time=192),
    Message('note_off', channel=3, note=59, velocity=127, time=2),
    Message('note_off', channel=3, note=52, velocity=127, time=62),
    Message('note_on', channel=3, note=54, velocity=127, time=32),
    Message('note_off', channel=3, note=54, velocity=127, time=64),
    Message('note_on', channel=3, note=57, velocity=127, time=32),
    Message('note_off', channel=3, note=57, velocity=127, time=64),
    Message('note_on', channel=3, note=59, velocity=127, time=32),
    Message('note_off', channel=3, note=59, velocity=127, time=64),
    Message('note_on', channel=3, note=62, velocity=127, time=32),
    Message('note_off', channel=3, note=62, velocity=127, time=64),
    Message('note_on', channel=3, note=59, velocity=127, time=32),
    Message('note_off', channel=3, note=59, velocity=127, time=64),
    Message('note_on', channel=3, note=57, velocity=127, time=32),
    Message('note_off', channel=3, note=57, velocity=127, time=64),
    Message('note_on', channel=3, note=59, velocity=127, time=32),
    Message('note_off', channel=3, note=59, velocity=127, time=128),
    Message('note_on', channel=3, note=52, velocity=127, time=64),
    Message('note_off', channel=3, note=52, velocity=127, time=64),
    Message('note_on', channel=3, note=54, velocity=127, time=32),
    Message('note_off', channel=3, note=54, velocity=127, time=64),
    Message('note_on', channel=3, note=57, velocity=127, time=32),
    Message('note_off', channel=3, note=57, velocity=127, time=64),
    Message('note_on', channel=3, note=59, velocity=127, time=32),
    Message('note_off', channel=3, note=59, velocity=127, time=64),
    Message('note_on', channel=3, note=62, velocity=127, time=32),
    Message('note_off', channel=3, note=62, velocity=127, time=64),
    Message('note_on', channel=3, note=59, velocity=127, time=32),
    Message('note_on', channel=3, note=52, velocity=127, time=192),
    Message('note_off', channel=3, note=59, velocity=127, time=2),
    Message('note_off', channel=3, note=52, velocity=127, time=62),
    Message('note_on', channel=3, note=54, velocity=127, time=32),
    Message('note_off', channel=3, note=54, velocity=127, time=64),
    Message('note_on', channel=3, note=57, velocity=127, time=32),
    Message('note_off', channel=3, note=57, velocity=127, time=64),
    Message('note_on', channel=3, note=59, velocity=127, time=32),
    Message('note_off', channel=3, note=59, velocity=127, time=64),
    Message('note_on', channel=3, note=62, velocity=127, time=32),
    Message('note_off', channel=3, note=62, velocity=127, time=64),
    Message('note_on', channel=3, note=59, velocity=127, time=32),
    Message('note_off', channel=3, note=59, velocity=127, time=64),
    Message('note_on', channel=3, note=57, velocity=127, time=32),
    Message('note_off', channel=3, note=57, velocity=127, time=64),
    Message('note_on', channel=3, note=59, velocity=127, time=32),
    Message('note_off', channel=3, note=59, velocity=127, time=128),
    Message('note_on', channel=3, note=52, velocity=127, time=64),
    Message('note_off', channel=3, note=52, velocity=127, time=64),
    Message('note_on', channel=3, note=54, velocity=127, time=32),
    Message('note_off', channel=3, note=54, velocity=127, time=64),
    Message('note_on', channel=3, note=57, velocity=127, time=32),
    Message('note_off', channel=3, note=57, velocity=127, time=64),
    Message('note_on', channel=3, note=59, velocity=127, time=32),
    Message('note_off', channel=3, note=59, velocity=127, time=64),
    Message('note_on', channel=3, note=62, velocity=127, time=32),
    Message('note_off', channel=3, note=62, velocity=127, time=64),
    Message('note_on', channel=3, note=59, velocity=127, time=32),
    Message('note_on', channel=3, note=52, velocity=127, time=192),
    Message('note_off', channel=3, note=59, velocity=127, time=2),
    Message('note_off', channel=3, note=52, velocity=127, time=62),
    Message('note_on', channel=3, note=54, velocity=127, time=32),
    Message('note_off', channel=3, note=54, velocity=127, time=64),
    Message('note_on', channel=3, note=57, velocity=127, time=32),
    Message('note_off', channel=3, note=57, velocity=127, time=64),
    Message('note_on', channel=3, note=59, velocity=127, time=32),
    Message('note_off', channel=3, note=59, velocity=127, time=64),
    Message('note_on', channel=3, note=62, velocity=127, time=32),
    Message('note_off', channel=3, note=62, velocity=127, time=64),
    Message('note_on', channel=3, note=59, velocity=127, time=32),
    Message('note_off', channel=3, note=59, velocity=127, time=64),
    Message('note_on', channel=3, note=57, velocity=127, time=32),
    Message('note_off', channel=3, note=57, velocity=127, time=64),
    Message('note_on', channel=3, note=59, velocity=127, time=32),
    Message('note_off', channel=3, note=59, velocity=127, time=128),
    Message('note_on', channel=3, note=52, velocity=127, time=64),
    Message('note_off', channel=3, note=52, velocity=127, time=64),
    Message('note_on', channel=3, note=54, velocity=127, time=32),
    Message('note_off', channel=3, note=54, velocity=127, time=64),
    Message('note_on', channel=3, note=57, velocity=127, time=32),
    Message('note_off', channel=3, note=57, velocity=127, time=64),
    Message('note_on', channel=3, note=59, velocity=127, time=32),
    Message('note_off', channel=3, note=59, velocity=127, time=64),
    Message('note_on', channel=3, note=62, velocity=127, time=32),
    Message('note_off', channel=3, note=62, velocity=127, time=64),
    Message('note_on', channel=3, note=59, velocity=127, time=32),
    Message('note_on', channel=3, note=52, velocity=127, time=192),
    Message('note_off', channel=3, note=59, velocity=127, time=2),
    Message('note_off', channel=3, note=52, velocity=127, time=62),
    Message('note_on', channel=3, note=54, velocity=127, time=32),
    Message('note_off', channel=3, note=54, velocity=127, time=64),
    Message('note_on', channel=3, note=57, velocity=127, time=32),
    Message('note_off', channel=3, note=57, velocity=127, time=64),
    Message('note_on', channel=3, note=59, velocity=127, time=32),
    Message('note_off', channel=3, note=59, velocity=127, time=64),
    Message('note_on', channel=3, note=62, velocity=127, time=32),
    Message('note_off', channel=3, note=62, velocity=127, time=64),
    Message('note_on', channel=3, note=59, velocity=127, time=32),
    Message('note_off', channel=3, note=59, velocity=127, time=64),
    Message('note_on', channel=3, note=57, velocity=127, time=32),
    Message('note_off', channel=3, note=57, velocity=127, time=64),
    Message('note_on', channel=3, note=59, velocity=127, time=32),
    Message('note_off', channel=3, note=59, velocity=127, time=128),
    Message('note_on', channel=3, note=52, velocity=127, time=64),
    Message('note_off', channel=3, note=52, velocity=127, time=64),
    Message('note_on', channel=3, note=54, velocity=127, time=32),
    Message('note_off', channel=3, note=54, velocity=127, time=64),
    Message('note_on', channel=3, note=57, velocity=127, time=32),
    Message('note_off', channel=3, note=57, velocity=127, time=64),
    Message('note_on', channel=3, note=59, velocity=127, time=32),
    Message('note_off', channel=3, note=59, velocity=127, time=64),
    Message('note_on', channel=3, note=62, velocity=127, time=32),
    Message('note_off', channel=3, note=62, velocity=127, time=64),
    Message('note_on', channel=3, note=59, velocity=127, time=32),
    Message('note_on', channel=3, note=52, velocity=127, time=192),
    Message('note_off', channel=3, note=59, velocity=127, time=2),
    Message('note_off', channel=3, note=52, velocity=127, time=62),
    Message('note_on', channel=3, note=54, velocity=127, time=32),
    Message('note_off', channel=3, note=54, velocity=127, time=64),
    Message('note_on', channel=3, note=57, velocity=127, time=32),
    Message('note_off', channel=3, note=57, velocity=127, time=64),
    Message('note_on', channel=3, note=59, velocity=127, time=32),
    Message('note_off', channel=3, note=59, velocity=127, time=64),
    Message('note_on', channel=3, note=62, velocity=127, time=32),
    Message('note_off', channel=3, note=62, velocity=127, time=64),
    Message('note_on', channel=3, note=59, velocity=127, time=32),
    Message('note_off', channel=3, note=59, velocity=127, time=64),
    Message('note_on', channel=3, note=57, velocity=127, time=32),
    Message('note_off', channel=3, note=57, velocity=127, time=64),
    Message('note_on', channel=3, note=59, velocity=127, time=32),
    Message('note_off', channel=3, note=59, velocity=127, time=128),
    Message('note_on', channel=3, note=52, velocity=127, time=64),
    Message('note_off', channel=3, note=52, velocity=127, time=64),
    Message('note_on', channel=3, note=54, velocity=127, time=32),
    Message('note_off', channel=3, note=54, velocity=127, time=64),
    Message('note_on', channel=3, note=57, velocity=127, time=32),
    Message('note_off', channel=3, note=57, velocity=127, time=64),
    Message('note_on', channel=3, note=59, velocity=127, time=32),
    Message('note_off', channel=3, note=59, velocity=127, time=64),
    Message('note_on', channel=3, note=62, velocity=127, time=32),
    Message('note_off', channel=3, note=62, velocity=127, time=64),
    Message('note_on', channel=3, note=59, velocity=127, time=32),
    Message('note_on', channel=3, note=52, velocity=127, time=192),
    Message('note_off', channel=3, note=59, velocity=127, time=2),
    Message('note_off', channel=3, note=52, velocity=127, time=62),
    Message('note_on', channel=3, note=54, velocity=127, time=32),
    Message('note_off', channel=3, note=54, velocity=127, time=64),
    Message('note_on', channel=3, note=57, velocity=127, time=32),
    Message('note_off', channel=3, note=57, velocity=127, time=64),
    Message('note_on', channel=3, note=59, velocity=127, time=32),
    Message('note_off', channel=3, note=59, velocity=127, time=64),
    Message('note_on', channel=3, note=62, velocity=127, time=32),
    Message('note_off', channel=3, note=62, velocity=127, time=64),
    Message('note_on', channel=3, note=59, velocity=127, time=32),
    Message('note_off', channel=3, note=59, velocity=127, time=64),
    Message('note_on', channel=3, note=57, velocity=127, time=32),
    Message('note_off', channel=3, note=57, velocity=127, time=64),
    Message('note_on', channel=3, note=59, velocity=127, time=32),
    Message('note_off', channel=3, note=59, velocity=127, time=128),
    Message('note_on', channel=3, note=52, velocity=127, time=64),
    Message('note_off', channel=3, note=52, velocity=127, time=64),
    Message('note_on', channel=3, note=54, velocity=127, time=32),
    Message('note_off', channel=3, note=54, velocity=127, time=64),
    Message('note_on', channel=3, note=57, velocity=127, time=32),
    Message('note_off', channel=3, note=57, velocity=127, time=64),
    Message('note_on', channel=3, note=59, velocity=127, time=32),
    Message('note_off', channel=3, note=59, velocity=127, time=64),
    Message('note_on', channel=3, note=62, velocity=127, time=32),
    Message('note_off', channel=3, note=62, velocity=127, time=64),
    Message('note_on', channel=3, note=59, velocity=127, time=32),
    Message('note_on', channel=3, note=52, velocity=127, time=192),
    Message('note_off', channel=3, note=59, velocity=127, time=2),
    Message('note_off', channel=3, note=52, velocity=127, time=62),
    Message('note_on', channel=3, note=54, velocity=127, time=32),
    Message('note_off', channel=3, note=54, velocity=127, time=64),
    Message('note_on', channel=3, note=57, velocity=127, time=32),
    Message('note_off', channel=3, note=57, velocity=127, time=64),
    Message('note_on', channel=3, note=59, velocity=127, time=32),
    Message('note_off', channel=3, note=59, velocity=127, time=64),
    Message('note_on', channel=3, note=62, velocity=127, time=32),
    Message('note_off', channel=3, note=62, velocity=127, time=64),
    Message('note_on', channel=3, note=59, velocity=127, time=32),
    Message('note_off', channel=3, note=59, velocity=127, time=64),
    Message('note_on', channel=3, note=57, velocity=127, time=32),
    Message('note_off', channel=3, note=57, velocity=127, time=64),
    Message('note_on', channel=3, note=59, velocity=127, time=32),
    Message('note_off', channel=3, note=59, velocity=127, time=128),
    Message('note_on', channel=3, note=52, velocity=127, time=64),
    Message('note_off', channel=3, note=52, velocity=127, time=64),
    Message('note_on', channel=3, note=54, velocity=127, time=32),
    Message('note_off', channel=3, note=54, velocity=127, time=64),
    Message('note_on', channel=3, note=57, velocity=127, time=32),
    Message('note_off', channel=3, note=57, velocity=127, time=64),
    Message('note_on', channel=3, note=59, velocity=127, time=32),
    Message('note_off', channel=3, note=59, velocity=127, time=64),
    Message('note_on', channel=3, note=62, velocity=127, time=32),
    Message('note_off', channel=3, note=62, velocity=127, time=64),
    Message('note_on', channel=3, note=60, velocity=127, time=32),
    Message('note_on', channel=3, note=52, velocity=127, time=192),
    Message('note_off', channel=3, note=60, velocity=127, time=2),
    Message('note_off', channel=3, note=52, velocity=127, time=62),
    Message('note_on', channel=3, note=55, velocity=127, time=32),
    Message('note_off', channel=3, note=55, velocity=127, time=64),
    Message('note_on', channel=3, note=57, velocity=127, time=32),
    Message('note_off', channel=3, note=57, velocity=127, time=64),
    Message('note_on', channel=3, note=60, velocity=127, time=32),
    Message('note_off', channel=3, note=60, velocity=127, time=64),
    Message('note_on', channel=3, note=62, velocity=127, time=32),
    Message('note_off', channel=3, note=62, velocity=127, time=64),
    Message('note_on', channel=3, note=60, velocity=127, time=32),
    Message('note_off', channel=3, note=60, velocity=127, time=64),
    Message('note_on', channel=3, note=57, velocity=127, time=32),
    Message('note_off', channel=3, note=57, velocity=127, time=64),
    Message('note_on', channel=3, note=60, velocity=127, time=32),
    Message('note_off', channel=3, note=60, velocity=127, time=128),
    Message('note_on', channel=3, note=52, velocity=127, time=64),
    Message('note_off', channel=3, note=52, velocity=127, time=64),
    Message('note_on', channel=3, note=55, velocity=127, time=32),
    Message('note_off', channel=3, note=55, velocity=127, time=64),
    Message('note_on', channel=3, note=57, velocity=127, time=32),
    Message('note_off', channel=3, note=57, velocity=127, time=64),
    Message('note_on', channel=3, note=60, velocity=127, time=32),
    Message('note_off', channel=3, note=60, velocity=127, time=64),
    Message('note_on', channel=3, note=62, velocity=127, time=32),
    Message('note_off', channel=3, note=62, velocity=127, time=64),
    Message('note_on', channel=3, note=59, velocity=127, time=32),
    Message('note_off', channel=3, note=59, velocity=127, time=192),
    Message('note_on', channel=3, note=52, velocity=127, time=0),
    Message('note_off', channel=3, note=52, velocity=127, time=64),
    Message('note_on', channel=3, note=54, velocity=127, time=32),
    Message('note_off', channel=3, note=54, velocity=127, time=64),
    Message('note_on', channel=3, note=57, velocity=127, time=32),
    Message('note_off', channel=3, note=57, velocity=127, time=64),
    Message('note_on', channel=3, note=59, velocity=127, time=32),
    Message('note_off', channel=3, note=59, velocity=127, time=64),
    Message('note_on', channel=3, note=62, velocity=127, time=32),
    Message('note_off', channel=3, note=62, velocity=127, time=64),
    Message('note_on', channel=3, note=59, velocity=127, time=32),
    Message('note_off', channel=3, note=59, velocity=127, time=64),
    Message('note_on', channel=3, note=57, velocity=127, time=32),
    Message('note_off', channel=3, note=57, velocity=127, time=64),
    Message('note_on', channel=3, note=59, velocity=127, time=32),
    Message('note_off', channel=3, note=59, velocity=127, time=128),
    Message('note_on', channel=3, note=52, velocity=127, time=64),
    Message('note_off', channel=3, note=52, velocity=127, time=64),
    Message('note_on', channel=3, note=54, velocity=127, time=32),
    Message('note_off', channel=3, note=54, velocity=127, time=64),
    Message('note_on', channel=3, note=57, velocity=127, time=32),
    Message('note_off', channel=3, note=57, velocity=127, time=64),
    Message('note_on', channel=3, note=59, velocity=127, time=32),
    Message('note_off', channel=3, note=59, velocity=127, time=64),
    Message('note_on', channel=3, note=62, velocity=127, time=32),
    Message('note_off', channel=3, note=62, velocity=127, time=64),
    Message('note_on', channel=3, note=60, velocity=127, time=32),
    Message('note_off', channel=3, note=60, velocity=127, time=192),
    Message('note_on', channel=3, note=52, velocity=127, time=0),
    Message('note_off', channel=3, note=52, velocity=127, time=64),
    Message('note_on', channel=3, note=55, velocity=127, time=32),
    Message('note_off', channel=3, note=55, velocity=127, time=64),
    Message('note_on', channel=3, note=57, velocity=127, time=32),
    Message('note_off', channel=3, note=57, velocity=127, time=64),
    Message('note_on', channel=3, note=60, velocity=127, time=32),
    Message('note_off', channel=3, note=60, velocity=127, time=64),
    Message('note_on', channel=3, note=62, velocity=127, time=32),
    Message('note_off', channel=3, note=62, velocity=127, time=64),
    Message('note_on', channel=3, note=60, velocity=127, time=34),
    Message('note_off', channel=3, note=60, velocity=127, time=64),
    Message('note_on', channel=3, note=57, velocity=127, time=32),
    Message('note_off', channel=3, note=57, velocity=127, time=64),
    Message('note_on', channel=3, note=60, velocity=127, time=32),
    Message('note_off', channel=3, note=60, velocity=127, time=128),
    Message('note_on', channel=3, note=52, velocity=127, time=64),
    Message('note_off', channel=3, note=52, velocity=127, time=64),
    Message('note_on', channel=3, note=55, velocity=127, time=32),
    Message('note_off', channel=3, note=55, velocity=127, time=64),
    Message('note_on', channel=3, note=57, velocity=127, time=32),
    Message('note_off', channel=3, note=57, velocity=127, time=64),
    Message('note_on', channel=3, note=60, velocity=127, time=32),
    Message('note_off', channel=3, note=60, velocity=127, time=64),
    Message('note_on', channel=3, note=62, velocity=127, time=32),
    Message('note_off', channel=3, note=62, velocity=127, time=64),
    Message('note_on', channel=3, note=59, velocity=127, time=32),
    Message('note_on', channel=3, note=52, velocity=127, time=190),
    Message('note_off', channel=3, note=59, velocity=127, time=2),
    Message('note_off', channel=3, note=52, velocity=127, time=62),
    Message('note_on', channel=3, note=54, velocity=127, time=32),
    Message('note_off', channel=3, note=54, velocity=127, time=64),
    Message('note_on', channel=3, note=57, velocity=127, time=32),
    Message('note_off', channel=3, note=57, velocity=127, time=64),
    Message('note_on', channel=3, note=59, velocity=127, time=32),
    Message('note_off', channel=3, note=59, velocity=127, time=64),
    Message('note_on', channel=3, note=62, velocity=127, time=32),
    Message('note_off', channel=3, note=62, velocity=127, time=64),
    Message('note_on', channel=3, note=59, velocity=127, time=32),
    Message('note_off', channel=3, note=59, velocity=127, time=64),
    Message('note_on', channel=3, note=57, velocity=127, time=32),
    Message('note_off', channel=3, note=57, velocity=127, time=64),
    Message('note_on', channel=3, note=59, velocity=127, time=32),
    Message('note_off', channel=3, note=59, velocity=127, time=128),
    Message('note_on', channel=3, note=52, velocity=127, time=64),
    Message('note_off', channel=3, note=52, velocity=127, time=64),
    Message('note_on', channel=3, note=54, velocity=127, time=32),
    Message('note_off', channel=3, note=54, velocity=127, time=64),
    Message('note_on', channel=3, note=57, velocity=127, time=32),
    Message('note_off', channel=3, note=57, velocity=127, time=64),
    Message('note_on', channel=3, note=59, velocity=127, time=32),
    Message('note_off', channel=3, note=59, velocity=127, time=64),
    Message('note_on', channel=3, note=62, velocity=127, time=32),
    Message('note_off', channel=3, note=62, velocity=127, time=64),
    Message('note_on', channel=3, note=59, velocity=127, time=34),
    Message('note_on', channel=3, note=71, velocity=127, time=0),
    Message('note_on', channel=3, note=66, velocity=127, time=0),
    Message('note_off', channel=3, note=59, velocity=127, time=256),
    Message('note_off', channel=3, note=71, velocity=127, time=0),
    Message('note_off', channel=3, note=66, velocity=127, time=0),
    Message('note_on', channel=3, note=54, velocity=127, time=224),
    Message('note_on', channel=3, note=61, velocity=127, time=0),
    Message('note_on', channel=3, note=66, velocity=127, time=0),
    Message('note_off', channel=3, note=54, velocity=127, time=64),
    Message('note_off', channel=3, note=61, velocity=127, time=0),
    Message('note_off', channel=3, note=66, velocity=127, time=0),
    Message('note_on', channel=3, note=54, velocity=127, time=32),
    Message('note_on', channel=3, note=61, velocity=127, time=0),
    Message('note_on', channel=3, note=66, velocity=127, time=0),
    Message('note_off', channel=3, note=54, velocity=127, time=64),
    Message('note_off', channel=3, note=61, velocity=127, time=0),
    Message('note_off', channel=3, note=66, velocity=127, time=0),
    Message('note_on', channel=3, note=55, velocity=127, time=128),
    Message('note_on', channel=3, note=62, velocity=127, time=0),
    Message('note_on', channel=3, note=67, velocity=127, time=0),
    Message('note_off', channel=3, note=55, velocity=127, time=256),
    Message('note_off', channel=3, note=62, velocity=127, time=0),
    Message('note_off', channel=3, note=67, velocity=127, time=0),
    Message('note_on', channel=3, note=57, velocity=127, time=224),
    Message('note_on', channel=3, note=64, velocity=127, time=0),
    Message('note_on', channel=3, note=69, velocity=127, time=0),
    Message('note_off', channel=3, note=57, velocity=127, time=64),
    Message('note_off', channel=3, note=64, velocity=127, time=0),
    Message('note_off', channel=3, note=69, velocity=127, time=0),
    Message('note_on', channel=3, note=57, velocity=127, time=32),
    Message('note_on', channel=3, note=69, velocity=127, time=0),
    Message('note_on', channel=3, note=64, velocity=127, time=0),
    Message('note_off', channel=3, note=57, velocity=127, time=64),
    Message('note_off', channel=3, note=69, velocity=127, time=0),
    Message('note_off', channel=3, note=64, velocity=127, time=0),
    Message('note_on', channel=3, note=52, velocity=127, time=128),
    Message('note_on', channel=3, note=62, velocity=127, time=0),
    Message('note_on', channel=3, note=59, velocity=127, time=0),
    Message('note_off', channel=3, note=52, velocity=127, time=256),
    Message('note_off', channel=3, note=62, velocity=127, time=0),
    Message('note_off', channel=3, note=59, velocity=127, time=0),
    Message('note_on', channel=3, note=61, velocity=127, time=224),
    Message('note_on', channel=3, note=54, velocity=127, time=0),
    Message('note_on', channel=3, note=66, velocity=127, time=0),
    Message('note_off', channel=3, note=61, velocity=127, time=64),
    Message('note_off', channel=3, note=54, velocity=127, time=0),
    Message('note_off', channel=3, note=66, velocity=127, time=0),
    Message('note_on', channel=3, note=54, velocity=127, time=32),
    Message('note_on', channel=3, note=66, velocity=127, time=0),
    Message('note_on', channel=3, note=61, velocity=127, time=0),
    Message('note_off', channel=3, note=54, velocity=127, time=64),
    Message('note_off', channel=3, note=66, velocity=127, time=0),
    Message('note_off', channel=3, note=61, velocity=127, time=0),
    Message('note_on', channel=3, note=55, velocity=127, time=128),
    Message('note_on', channel=3, note=62, velocity=127, time=0),
    Message('note_on', channel=3, note=67, velocity=127, time=0),
    Message('note_on', channel=3, note=57, velocity=127, time=192),
    Message('note_on', channel=3, note=69, velocity=127, time=0),
    Message('note_on', channel=3, note=64, velocity=127, time=0),
    Message('note_off', channel=3, note=55, velocity=127, time=64),
    Message('note_off', channel=3, note=62, velocity=127, time=0),
    Message('note_off', channel=3, note=67, velocity=127, time=0),
    Message('note_off', channel=3, note=57, velocity=127, time=0),
    Message('note_off', channel=3, note=69, velocity=127, time=0),
    Message('note_off', channel=3, note=64, velocity=127, time=0),
    Message('note_on', channel=3, note=69, velocity=127, time=32),
    Message('note_on', channel=3, note=57, velocity=127, time=0),
    Message('note_on', channel=3, note=64, velocity=127, time=0),
    Message('note_off', channel=3, note=69, velocity=127, time=64),
    Message('note_off', channel=3, note=57, velocity=127, time=0),
    Message('note_off', channel=3, note=64, velocity=127, time=0),
    Message('note_on', channel=3, note=57, velocity=127, time=32),
    Message('note_on', channel=3, note=64, velocity=127, time=0),
    Message('note_on', channel=3, note=69, velocity=127, time=0),
    Message('note_off', channel=3, note=57, velocity=127, time=128),
    Message('note_off', channel=3, note=64, velocity=127, time=0),
    Message('note_off', channel=3, note=69, velocity=127, time=0),
    Message('note_on', channel=3, note=59, velocity=127, time=64),
    Message('note_on', channel=3, note=71, velocity=127, time=0),
    Message('note_on', channel=3, note=66, velocity=127, time=0),
    Message('note_off', channel=3, note=59, velocity=127, time=64),
    Message('note_off', channel=3, note=71, velocity=127, time=0),
    Message('note_off', channel=3, note=66, velocity=127, time=0),
    Message('note_on', channel=3, note=66, velocity=127, time=32),
    Message('note_on', channel=3, note=59, velocity=127, time=0),
    Message('note_on', channel=3, note=71, velocity=127, time=0),
    Message('note_off', channel=3, note=66, velocity=127, time=64),
    Message('note_off', channel=3, note=59, velocity=127, time=0),
    Message('note_off', channel=3, note=71, velocity=127, time=0),
    Message('note_on', channel=3, note=59, velocity=127, time=32),
    Message('note_on', channel=3, note=71, velocity=127, time=0),
    Message('note_on', channel=3, note=66, velocity=127, time=0),
    Message('note_off', channel=3, note=59, velocity=127, time=256),
    Message('note_off', channel=3, note=71, velocity=127, time=0),
    Message('note_off', channel=3, note=66, velocity=127, time=0),
    Message('note_on', channel=3, note=61, velocity=127, time=224),
    Message('note_on', channel=3, note=54, velocity=127, time=0),
    Message('note_on', channel=3, note=66, velocity=127, time=0),
    Message('note_off', channel=3, note=61, velocity=127, time=64),
    Message('note_off', channel=3, note=54, velocity=127, time=0),
    Message('note_off', channel=3, note=66, velocity=127, time=0),
    Message('note_on', channel=3, note=54, velocity=127, time=32),
    Message('note_on', channel=3, note=61, velocity=127, time=0),
    Message('note_on', channel=3, note=66, velocity=127, time=0),
    Message('note_off', channel=3, note=54, velocity=127, time=64),
    Message('note_off', channel=3, note=61, velocity=127, time=0),
    Message('note_off', channel=3, note=66, velocity=127, time=0),
    Message('note_on', channel=3, note=62, velocity=127, time=128),
    Message('note_on', channel=3, note=55, velocity=127, time=0),
    Message('note_on', channel=3, note=67, velocity=127, time=0),
    Message('note_off', channel=3, note=62, velocity=127, time=256),
    Message('note_off', channel=3, note=55, velocity=127, time=0),
    Message('note_off', channel=3, note=67, velocity=127, time=0),
    Message('note_on', channel=3, note=64, velocity=127, time=224),
    Message('note_on', channel=3, note=57, velocity=127, time=0),
    Message('note_on', channel=3, note=69, velocity=127, time=0),
    Message('note_off', channel=3, note=64, velocity=127, time=64),
    Message('note_off', channel=3, note=57, velocity=127, time=0),
    Message('note_off', channel=3, note=69, velocity=127, time=0),
    Message('note_on', channel=3, note=57, velocity=127, time=32),
    Message('note_on', channel=3, note=64, velocity=127, time=0),
    Message('note_on', channel=3, note=69, velocity=127, time=0),
    Message('note_off', channel=3, note=57, velocity=127, time=64),
    Message('note_off', channel=3, note=64, velocity=127, time=0),
    Message('note_off', channel=3, note=69, velocity=127, time=0),
    Message('note_on', channel=3, note=69, velocity=127, time=128),
    Message('note_on', channel=3, note=74, velocity=127, time=0),
    Message('note_on', channel=3, note=62, velocity=127, time=0),
    Message('note_off', channel=3, note=69, velocity=127, time=358),
    Message('note_off', channel=3, note=74, velocity=127, time=10),
    Message('note_off', channel=3, note=62, velocity=127, time=2),
    Message('note_on', channel=3, note=60, velocity=127, time=110),
    Message('note_on', channel=3, note=67, velocity=127, time=0),
    Message('note_on', channel=3, note=72, velocity=127, time=0),
    Message('note_off', channel=3, note=60, velocity=127, time=256),
    Message('note_off', channel=3, note=67, velocity=127, time=0),
    Message('note_off', channel=3, note=72, velocity=127, time=0),
    Message('note_on', channel=3, note=64, velocity=127, time=126),
    Message('note_off', channel=3, note=64, velocity=127, time=64),
    Message('note_on', channel=3, note=65, velocity=127, time=0),
    Message('note_off', channel=3, note=65, velocity=127, time=64),
    Message('note_on', channel=3, note=64, velocity=127, time=0),
    Message('note_off', channel=3, note=64, velocity=127, time=64),
    Message('note_on', channel=3, note=62, velocity=127, time=0),
    Message('note_off', channel=3, note=62, velocity=127, time=64),
    Message('note_on', channel=3, note=64, velocity=127, time=0),
    Message('note_off', channel=3, note=64, velocity=127, time=64),
    Message('note_on', channel=3, note=62, velocity=127, time=0),
    Message('note_off', channel=3, note=62, velocity=127, time=64),
    Message('note_on', channel=3, note=61, velocity=127, time=0),
    Message('note_off', channel=3, note=61, velocity=127, time=64),
    Message('note_on', channel=3, note=62, velocity=127, time=0),
    Message('note_off', channel=3, note=62, velocity=127, time=64),
    Message('note_on', channel=3, note=61, velocity=127, time=0),
    Message('note_off', channel=3, note=61, velocity=127, time=64),
    Message('note_on', channel=3, note=59, velocity=127, time=0),
    Message('note_on', channel=3, note=61, velocity=127, time=60),
    Message('note_off', channel=3, note=59, velocity=127, time=36),
    Message('note_on', channel=3, note=71, velocity=127, time=0),
    Message('note_on', channel=3, note=66, velocity=127, time=0),
    Message('note_on', channel=3, note=59, velocity=127, time=0),
    Message('note_off', channel=3, note=61, velocity=127, time=60),
    Message('note_off', channel=3, note=71, velocity=127, time=36),
    Message('note_off', channel=3, note=66, velocity=127, time=0),
    Message('note_off', channel=3, note=59, velocity=127, time=0),
    MetaMessage('end_of_track', time=500)]),
  MidiTrack([
    MetaMessage('track_name', name='Bass: Channel 4', time=0),
    MetaMessage('device_name', name='None', time=0),
    Message('note_on', channel=4, note=35, velocity=127, time=0),
    Message('control_change', channel=4, control=7, value=127, time=0),
    Message('control_change', channel=4, control=10, value=67, time=0),
    Message('program_change', channel=4, program=33, time=0),
    Message('control_change', channel=4, control=0, value=0, time=0),
    Message('control_change', channel=4, control=46, value=118, time=0),
    Message('note_off', channel=4, note=35, velocity=127, time=128),
    Message('note_on', channel=4, note=35, velocity=127, time=1120),
    Message('note_off', channel=4, note=35, velocity=127, time=64),
    Message('note_on', channel=4, note=35, velocity=127, time=32),
    Message('note_off', channel=4, note=35, velocity=127, time=64),
    Message('note_on', channel=4, note=35, velocity=127, time=32),
    Message('note_off', channel=4, note=35, velocity=127, time=64),
    Message('note_on', channel=4, note=35, velocity=127, time=1472),
    Message('note_off', channel=4, note=35, velocity=127, time=64),
    Message('note_on', channel=4, note=35, velocity=127, time=1280),
    Message('note_off', channel=4, note=35, velocity=127, time=64),
    Message('note_on', channel=4, note=35, velocity=127, time=32),
    Message('note_off', channel=4, note=35, velocity=127, time=64),
    Message('note_on', channel=4, note=35, velocity=127, time=32),
    Message('note_off', channel=4, note=35, velocity=127, time=64),
    Message('note_on', channel=4, note=35, velocity=127, time=1472),
    Message('note_off', channel=4, note=35, velocity=127, time=64),
    Message('note_on', channel=4, note=35, velocity=127, time=1280),
    Message('note_off', channel=4, note=35, velocity=127, time=64),
    Message('note_on', channel=4, note=35, velocity=127, time=32),
    Message('note_off', channel=4, note=35, velocity=127, time=64),
    Message('note_on', channel=4, note=35, velocity=127, time=32),
    Message('note_off', channel=4, note=35, velocity=127, time=64),
    Message('note_on', channel=4, note=35, velocity=127, time=1472),
    Message('note_off', channel=4, note=35, velocity=127, time=64),
    Message('note_on', channel=4, note=47, velocity=127, time=1472),
    Message('note_off', channel=4, note=47, velocity=127, time=192),
    Message('note_on', channel=4, note=42, velocity=127, time=0),
    Message('note_off', channel=4, note=42, velocity=127, time=192),
    Message('note_on', channel=4, note=45, velocity=127, time=96),
    Message('note_off', channel=4, note=45, velocity=127, time=64),
    Message('note_on', channel=4, note=40, velocity=127, time=32),
    Message('note_off', channel=4, note=40, velocity=127, time=192),
    Message('note_on', channel=4, note=40, velocity=100, time=96),
    Message('note_off', channel=4, note=40, velocity=100, time=64),
    Message('note_on', channel=4, note=42, velocity=100, time=0),
    Message('note_off', channel=4, note=42, velocity=100, time=64),
    Message('note_on', channel=4, note=40, velocity=100, time=0),
    Message('note_off', channel=4, note=40, velocity=100, time=64),
    Message('note_on', channel=4, note=38, velocity=100, time=0),
    Message('note_off', channel=4, note=38, velocity=100, time=64),
    Message('note_on', channel=4, note=40, velocity=100, time=0),
    Message('note_off', channel=4, note=40, velocity=100, time=64),
    Message('note_on', channel=4, note=37, velocity=100, time=0),
    Message('note_off', channel=4, note=37, velocity=100, time=64),
    Message('note_on', channel=4, note=38, velocity=100, time=0),
    Message('note_off', channel=4, note=38, velocity=100, time=64),
    Message('note_on', channel=4, note=37, velocity=100, time=0),
    Message('note_off', channel=4, note=37, velocity=100, time=64),
    Message('note_on', channel=4, note=36, velocity=100, time=0),
    Message('note_off', channel=4, note=36, velocity=100, time=64),
    Message('note_on', channel=4, note=33, velocity=100, time=0),
    Message('note_on', channel=4, note=35, velocity=100, time=60),
    Message('note_off', channel=4, note=33, velocity=100, time=36),
    Message('note_on', channel=4, note=33, velocity=100, time=0),
    Message('note_off', channel=4, note=35, velocity=100, time=60),
    Message('note_off', channel=4, note=33, velocity=100, time=228),
    Message('note_on', channel=4, note=35, velocity=127, time=0),
    Message('note_off', channel=4, note=35, velocity=127, time=64),
    Message('note_on', channel=4, note=35, velocity=127, time=32),
    Message('note_off', channel=4, note=35, velocity=127, time=64),
    Message('note_on', channel=4, note=35, velocity=127, time=32),
    Message('note_off', channel=4, note=35, velocity=127, time=64),
    Message('note_on', channel=4, note=30, velocity=127, time=32),
    Message('note_off', channel=4, note=30, velocity=127, time=64),
    Message('note_on', channel=4, note=30, velocity=127, time=32),
    Message('note_off', channel=4, note=30, velocity=127, time=64),
    Message('note_on', channel=4, note=31, velocity=127, time=32),
    Message('note_off', channel=4, note=31, velocity=127, time=64),
    Message('note_on', channel=4, note=31, velocity=127, time=32),
    Message('note_off', channel=4, note=31, velocity=127, time=64),
    Message('note_on', channel=4, note=28, velocity=127, time=32),
    Message('note_off', channel=4, note=28, velocity=127, time=64),
    Message('note_on', channel=4, note=28, velocity=127, time=32),
    Message('note_off', channel=4, note=28, velocity=127, time=64),
    Message('note_on', channel=4, note=30, velocity=127, time=32),
    Message('note_off', channel=4, note=30, velocity=127, time=64),
    Message('note_on', channel=4, note=30, velocity=127, time=32),
    Message('note_off', channel=4, note=30, velocity=127, time=64),
    Message('note_on', channel=4, note=31, velocity=127, time=32),
    Message('note_off', channel=4, note=31, velocity=127, time=64),
    Message('note_on', channel=4, note=28, velocity=127, time=32),
    Message('note_off', channel=4, note=28, velocity=127, time=64),
    Message('note_on', channel=4, note=35, velocity=127, time=32),
    Message('note_off', channel=4, note=35, velocity=127, time=256),
    Message('note_on', channel=4, note=35, velocity=127, time=32),
    Message('note_off', channel=4, note=35, velocity=127, time=64),
    Message('note_on', channel=4, note=35, velocity=127, time=32),
    Message('note_off', channel=4, note=35, velocity=127, time=64),
    Message('note_on', channel=4, note=35, velocity=127, time=32),
    Message('note_off', channel=4, note=35, velocity=127, time=64),
    Message('note_on', channel=4, note=30, velocity=127, time=32),
    Message('note_off', channel=4, note=30, velocity=127, time=64),
    Message('note_on', channel=4, note=30, velocity=127, time=32),
    Message('note_off', channel=4, note=30, velocity=127, time=64),
    Message('note_on', channel=4, note=31, velocity=127, time=32),
    Message('note_off', channel=4, note=31, velocity=127, time=64),
    Message('note_on', channel=4, note=31, velocity=127, time=32),
    Message('note_off', channel=4, note=31, velocity=127, time=64),
    Message('note_on', channel=4, note=28, velocity=127, time=32),
    Message('note_off', channel=4, note=28, velocity=127, time=64),
    Message('note_on', channel=4, note=28, velocity=127, time=32),
    Message('note_off', channel=4, note=28, velocity=127, time=64),
    Message('note_on', channel=4, note=30, velocity=127, time=32),
    Message('note_off', channel=4, note=30, velocity=127, time=64),
    Message('note_on', channel=4, note=30, velocity=127, time=32),
    Message('note_off', channel=4, note=30, velocity=127, time=64),
    Message('note_on', channel=4, note=31, velocity=127, time=32),
    Message('note_off', channel=4, note=31, velocity=127, time=64),
    Message('note_on', channel=4, note=28, velocity=127, time=32),
    Message('note_off', channel=4, note=28, velocity=127, time=64),
    Message('note_on', channel=4, note=35, velocity=127, time=32),
    Message('note_off', channel=4, note=35, velocity=127, time=256),
    Message('note_on', channel=4, note=35, velocity=127, time=32),
    Message('note_off', channel=4, note=35, velocity=127, time=64),
    Message('note_on', channel=4, note=35, velocity=127, time=32),
    Message('note_off', channel=4, note=35, velocity=127, time=64),
    Message('note_on', channel=4, note=35, velocity=127, time=32),
    Message('note_off', channel=4, note=35, velocity=127, time=64),
    Message('note_on', channel=4, note=30, velocity=127, time=32),
    Message('note_off', channel=4, note=30, velocity=127, time=64),
    Message('note_on', channel=4, note=30, velocity=127, time=32),
    Message('note_off', channel=4, note=30, velocity=127, time=64),
    Message('note_on', channel=4, note=31, velocity=127, time=32),
    Message('note_off', channel=4, note=31, velocity=127, time=64),
    Message('note_on', channel=4, note=31, velocity=127, time=32),
    Message('note_off', channel=4, note=31, velocity=127, time=64),
    Message('note_on', channel=4, note=28, velocity=127, time=32),
    Message('note_off', channel=4, note=28, velocity=127, time=64),
    Message('note_on', channel=4, note=28, velocity=127, time=32),
    Message('note_off', channel=4, note=28, velocity=127, time=64),
    Message('note_on', channel=4, note=30, velocity=127, time=32),
    Message('note_off', channel=4, note=30, velocity=127, time=64),
    Message('note_on', channel=4, note=30, velocity=127, time=32),
    Message('note_off', channel=4, note=30, velocity=127, time=64),
    Message('note_on', channel=4, note=31, velocity=127, time=32),
    Message('note_off', channel=4, note=31, velocity=127, time=64),
    Message('note_on', channel=4, note=28, velocity=127, time=32),
    Message('note_off', channel=4, note=28, velocity=127, time=64),
    Message('note_on', channel=4, note=35, velocity=127, time=32),
    Message('note_off', channel=4, note=35, velocity=127, time=256),
    Message('note_on', channel=4, note=35, velocity=127, time=32),
    Message('note_off', channel=4, note=35, velocity=127, time=64),
    Message('note_on', channel=4, note=35, velocity=127, time=32),
    Message('note_off', channel=4, note=35, velocity=127, time=64),
    Message('note_on', channel=4, note=35, velocity=127, time=32),
    Message('note_off', channel=4, note=35, velocity=127, time=64),
    Message('note_on', channel=4, note=30, velocity=127, time=32),
    Message('note_off', channel=4, note=30, velocity=127, time=64),
    Message('note_on', channel=4, note=30, velocity=127, time=32),
    Message('note_off', channel=4, note=30, velocity=127, time=64),
    Message('note_on', channel=4, note=31, velocity=127, time=32),
    Message('note_off', channel=4, note=31, velocity=127, time=64),
    Message('note_on', channel=4, note=31, velocity=127, time=32),
    Message('note_off', channel=4, note=31, velocity=127, time=64),
    Message('note_on', channel=4, note=28, velocity=127, time=32),
    Message('note_off', channel=4, note=28, velocity=127, time=64),
    Message('note_on', channel=4, note=28, velocity=127, time=32),
    Message('note_off', channel=4, note=28, velocity=127, time=64),
    Message('note_on', channel=4, note=30, velocity=127, time=32),
    Message('note_off', channel=4, note=30, velocity=127, time=64),
    Message('note_on', channel=4, note=30, velocity=127, time=32),
    Message('note_off', channel=4, note=30, velocity=127, time=64),
    Message('note_on', channel=4, note=31, velocity=127, time=32),
    Message('note_off', channel=4, note=31, velocity=127, time=64),
    Message('note_on', channel=4, note=28, velocity=127, time=32),
    Message('note_off', channel=4, note=28, velocity=127, time=64),
    Message('note_on', channel=4, note=35, velocity=127, time=32),
    Message('note_off', channel=4, note=35, velocity=127, time=256),
    Message('note_on', channel=4, note=35, velocity=127, time=32),
    Message('note_off', channel=4, note=35, velocity=127, time=64),
    Message('note_on', channel=4, note=35, velocity=127, time=32),
    Message('note_off', channel=4, note=35, velocity=127, time=64),
    Message('note_on', channel=4, note=35, velocity=127, time=32),
    Message('note_off', channel=4, note=35, velocity=127, time=64),
    Message('note_on', channel=4, note=30, velocity=127, time=32),
    Message('note_off', channel=4, note=30, velocity=127, time=64),
    Message('note_on', channel=4, note=30, velocity=127, time=32),
    Message('note_off', channel=4, note=30, velocity=127, time=64),
    Message('note_on', channel=4, note=31, velocity=127, time=32),
    Message('note_off', channel=4, note=31, velocity=127, time=64),
    Message('note_on', channel=4, note=31, velocity=127, time=32),
    Message('note_off', channel=4, note=31, velocity=127, time=64),
    Message('note_on', channel=4, note=28, velocity=127, time=32),
    Message('note_off', channel=4, note=28, velocity=127, time=64),
    Message('note_on', channel=4, note=28, velocity=127, time=32),
    Message('note_off', channel=4, note=28, velocity=127, time=64),
    Message('note_on', channel=4, note=30, velocity=127, time=32),
    Message('note_off', channel=4, note=30, velocity=127, time=64),
    Message('note_on', channel=4, note=30, velocity=127, time=32),
    Message('note_off', channel=4, note=30, velocity=127, time=64),
    Message('note_on', channel=4, note=31, velocity=127, time=32),
    Message('note_off', channel=4, note=31, velocity=127, time=64),
    Message('note_on', channel=4, note=28, velocity=127, time=32),
    Message('note_off', channel=4, note=28, velocity=127, time=64),
    Message('note_on', channel=4, note=35, velocity=127, time=32),
    Message('note_off', channel=4, note=35, velocity=127, time=256),
    Message('note_on', channel=4, note=35, velocity=127, time=32),
    Message('note_off', channel=4, note=35, velocity=127, time=64),
    Message('note_on', channel=4, note=35, velocity=127, time=32),
    Message('note_off', channel=4, note=35, velocity=127, time=64),
    Message('note_on', channel=4, note=35, velocity=127, time=32),
    Message('note_off', channel=4, note=35, velocity=127, time=64),
    Message('note_on', channel=4, note=30, velocity=127, time=32),
    Message('note_off', channel=4, note=30, velocity=127, time=64),
    Message('note_on', channel=4, note=30, velocity=127, time=32),
    Message('note_off', channel=4, note=30, velocity=127, time=64),
    Message('note_on', channel=4, note=31, velocity=127, time=32),
    Message('note_off', channel=4, note=31, velocity=127, time=64),
    Message('note_on', channel=4, note=31, velocity=127, time=32),
    Message('note_off', channel=4, note=31, velocity=127, time=64),
    Message('note_on', channel=4, note=28, velocity=127, time=32),
    Message('note_off', channel=4, note=28, velocity=127, time=64),
    Message('note_on', channel=4, note=28, velocity=127, time=32),
    Message('note_off', channel=4, note=28, velocity=127, time=64),
    Message('note_on', channel=4, note=30, velocity=127, time=32),
    Message('note_off', channel=4, note=30, velocity=127, time=64),
    Message('note_on', channel=4, note=30, velocity=127, time=32),
    Message('note_off', channel=4, note=30, velocity=127, time=64),
    Message('note_on', channel=4, note=31, velocity=127, time=32),
    Message('note_off', channel=4, note=31, velocity=127, time=64),
    Message('note_on', channel=4, note=28, velocity=127, time=32),
    Message('note_off', channel=4, note=28, velocity=127, time=64),
    Message('note_on', channel=4, note=33, velocity=127, time=32),
    Message('note_off', channel=4, note=33, velocity=127, time=256),
    Message('note_on', channel=4, note=33, velocity=127, time=32),
    Message('note_off', channel=4, note=33, velocity=127, time=64),
    Message('note_on', channel=4, note=33, velocity=127, time=32),
    Message('note_off', channel=4, note=33, velocity=127, time=64),
    Message('note_on', channel=4, note=33, velocity=127, time=32),
    Message('note_off', channel=4, note=33, velocity=127, time=64),
    Message('note_on', channel=4, note=28, velocity=127, time=32),
    Message('note_off', channel=4, note=28, velocity=127, time=64),
    Message('note_on', channel=4, note=29, velocity=127, time=128),
    Message('note_off', channel=4, note=29, velocity=127, time=64),
    Message('note_on', channel=4, note=31, velocity=127, time=128),
    Message('note_off', channel=4, note=31, velocity=127, time=64),
    Message('note_on', channel=4, note=33, velocity=127, time=128),
    Message('note_off', channel=4, note=33, velocity=127, time=64),
    Message('note_on', channel=4, note=36, velocity=127, time=128),
    Message('note_off', channel=4, note=36, velocity=127, time=64),
    Message('note_on', channel=4, note=36, velocity=127, time=128),
    Message('note_off', channel=4, note=36, velocity=127, time=64),
    Message('note_on', channel=4, note=33, velocity=127, time=32),
    Message('note_off', channel=4, note=33, velocity=127, time=128),
    Message('note_on', channel=4, note=33, velocity=127, time=64),
    Message('note_off', channel=4, note=33, velocity=127, time=64),
    Message('note_on', channel=4, note=33, velocity=127, time=32),
    Message('note_off', channel=4, note=33, velocity=127, time=64),
    Message('note_on', channel=4, note=33, velocity=127, time=32),
    Message('note_off', channel=4, note=33, velocity=127, time=64),
    Message('note_on', channel=4, note=28, velocity=127, time=32),
    Message('note_off', channel=4, note=28, velocity=127, time=64),
    Message('note_on', channel=4, note=29, velocity=127, time=128),
    Message('note_off', channel=4, note=29, velocity=127, time=64),
    Message('note_on', channel=4, note=31, velocity=127, time=128),
    Message('note_off', channel=4, note=31, velocity=127, time=64),
    Message('note_on', channel=4, note=33, velocity=127, time=128),
    Message('note_off', channel=4, note=33, velocity=127, time=64),
    Message('note_on', channel=4, note=36, velocity=127, time=128),
    Message('note_off', channel=4, note=36, velocity=127, time=64),
    Message('note_on', channel=4, note=36, velocity=127, time=128),
    Message('note_off', channel=4, note=36, velocity=127, time=64),
    Message('note_on', channel=4, note=35, velocity=127, time=32),
    Message('note_off', channel=4, note=35, velocity=127, time=128),
    Message('note_on', channel=4, note=35, velocity=127, time=64),
    Message('note_off', channel=4, note=35, velocity=127, time=64),
    Message('note_on', channel=4, note=35, velocity=127, time=32),
    Message('note_off', channel=4, note=35, velocity=127, time=64),
    Message('note_on', channel=4, note=35, velocity=127, time=32),
    Message('note_off', channel=4, note=35, velocity=127, time=64),
    Message('note_on', channel=4, note=30, velocity=127, time=32),
    Message('note_off', channel=4, note=30, velocity=127, time=64),
    Message('note_on', channel=4, note=30, velocity=127, time=32),
    Message('note_off', channel=4, note=30, velocity=127, time=64),
    Message('note_on', channel=4, note=31, velocity=127, time=32),
    Message('note_off', channel=4, note=31, velocity=127, time=64),
    Message('note_on', channel=4, note=31, velocity=127, time=32),
    Message('note_off', channel=4, note=31, velocity=127, time=64),
    Message('note_on', channel=4, note=28, velocity=127, time=32),
    Message('note_off', channel=4, note=28, velocity=127, time=64),
    Message('note_on', channel=4, note=28, velocity=127, time=32),
    Message('note_off', channel=4, note=28, velocity=127, time=64),
    Message('note_on', channel=4, note=30, velocity=127, time=32),
    Message('note_off', channel=4, note=30, velocity=127, time=64),
    Message('note_on', channel=4, note=30, velocity=127, time=32),
    Message('note_off', channel=4, note=30, velocity=127, time=64),
    Message('note_on', channel=4, note=31, velocity=127, time=32),
    Message('note_off', channel=4, note=31, velocity=127, time=64),
    Message('note_on', channel=4, note=28, velocity=127, time=32),
    Message('note_off', channel=4, note=28, velocity=127, time=64),
    Message('note_on', channel=4, note=35, velocity=127, time=32),
    Message('note_off', channel=4, note=35, velocity=127, time=256),
    Message('note_on', channel=4, note=35, velocity=127, time=32),
    Message('note_off', channel=4, note=35, velocity=127, time=64),
    Message('note_on', channel=4, note=35, velocity=127, time=32),
    Message('note_off', channel=4, note=35, velocity=127, time=64),
    Message('note_on', channel=4, note=35, velocity=127, time=32),
    Message('note_off', channel=4, note=35, velocity=127, time=64),
    Message('note_on', channel=4, note=30, velocity=127, time=32),
    Message('note_off', channel=4, note=30, velocity=127, time=64),
    Message('note_on', channel=4, note=30, velocity=127, time=32),
    Message('note_off', channel=4, note=30, velocity=127, time=64),
    Message('note_on', channel=4, note=31, velocity=127, time=32),
    Message('note_off', channel=4, note=31, velocity=127, time=64),
    Message('note_on', channel=4, note=31, velocity=127, time=32),
    Message('note_off', channel=4, note=31, velocity=127, time=64),
    Message('note_on', channel=4, note=28, velocity=127, time=32),
    Message('note_off', channel=4, note=28, velocity=127, time=64),
    Message('note_on', channel=4, note=28, velocity=127, time=32),
    Message('note_off', channel=4, note=28, velocity=127, time=64),
    Message('note_on', channel=4, note=30, velocity=127, time=32),
    Message('note_off', channel=4, note=30, velocity=127, time=64),
    Message('note_on', channel=4, note=30, velocity=127, time=32),
    Message('note_off', channel=4, note=30, velocity=127, time=64),
    Message('note_on', channel=4, note=31, velocity=127, time=32),
    Message('note_off', channel=4, note=31, velocity=127, time=64),
    Message('note_on', channel=4, note=28, velocity=127, time=32),
    Message('note_off', channel=4, note=28, velocity=127, time=64),
    Message('note_on', channel=4, note=35, velocity=127, time=32),
    Message('note_off', channel=4, note=35, velocity=127, time=360),
    Message('note_on', channel=4, note=30, velocity=127, time=216),
    Message('note_off', channel=4, note=30, velocity=127, time=64),
    Message('note_on', channel=4, note=31, velocity=127, time=128),
    Message('note_off', channel=4, note=31, velocity=127, time=192),
    Message('note_on', channel=4, note=26, velocity=127, time=0),
    Message('note_off', channel=4, note=26, velocity=127, time=64),
    Message('note_on', channel=4, note=30, velocity=127, time=32),
    Message('note_off', channel=4, note=30, velocity=127, time=64),
    Message('note_on', channel=4, note=31, velocity=127, time=32),
    Message('note_off', channel=4, note=31, velocity=127, time=64),
    Message('note_on', channel=4, note=31, velocity=127, time=32),
    Message('note_off', channel=4, note=31, velocity=127, time=64),
    Message('note_on', channel=4, note=30, velocity=127, time=32),
    Message('note_off', channel=4, note=30, velocity=127, time=64),
    Message('note_on', channel=4, note=29, velocity=127, time=32),
    Message('note_off', channel=4, note=29, velocity=127, time=64),
    Message('note_on', channel=4, note=28, velocity=127, time=32),
    Message('note_off', channel=4, note=28, velocity=127, time=356),
    Message('note_on', channel=4, note=31, velocity=127, time=220),
    Message('note_off', channel=4, note=31, velocity=127, time=64),
    Message('note_on', channel=4, note=31, velocity=127, time=128),
    Message('note_off', channel=4, note=31, velocity=127, time=64),
    Message('note_on', channel=4, note=30, velocity=127, time=32),
    Message('note_off', channel=4, note=30, velocity=127, time=256),
    Message('note_on', channel=4, note=38, velocity=127, time=224),
    Message('note_off', channel=4, note=38, velocity=127, time=64),
    Message('note_on', channel=4, note=38, velocity=127, time=128),
    Message('note_off', channel=4, note=38, velocity=127, time=64),
    Message('note_on', channel=4, note=35, velocity=127, time=32),
    Message('note_off', channel=4, note=35, velocity=127, time=256),
    Message('note_on', channel=4, note=30, velocity=127, time=224),
    Message('note_off', channel=4, note=30, velocity=127, time=64),
    Message('note_on', channel=4, note=31, velocity=127, time=128),
    Message('note_off', channel=4, note=31, velocity=127, time=192),
    Message('note_on', channel=4, note=26, velocity=127, time=0),
    Message('note_off', channel=4, note=26, velocity=127, time=64),
    Message('note_on', channel=4, note=30, velocity=127, time=32),
    Message('note_off', channel=4, note=30, velocity=127, time=64),
    Message('note_on', channel=4, note=31, velocity=127, time=32),
    Message('note_off', channel=4, note=31, velocity=127, time=64),
    Message('note_on', channel=4, note=31, velocity=127, time=32),
    Message('note_off', channel=4, note=31, velocity=127, time=64),
    Message('note_on', channel=4, note=30, velocity=127, time=32),
    Message('note_off', channel=4, note=30, velocity=127, time=64),
    Message('note_on', channel=4, note=29, velocity=127, time=32),
    Message('note_off', channel=4, note=29, velocity=127, time=64),
    Message('note_on', channel=4, note=28, velocity=127, time=32),
    Message('note_off', channel=4, note=28, velocity=127, time=356),
    Message('note_on', channel=4, note=31, velocity=127, time=220),
    Message('note_off', channel=4, note=31, velocity=127, time=64),
    Message('note_on', channel=4, note=31, velocity=127, time=128),
    Message('note_off', channel=4, note=31, velocity=127, time=64),
    Message('note_on', channel=4, note=30, velocity=127, time=32),
    Message('note_off', channel=4, note=30, velocity=127, time=256),
    Message('note_on', channel=4, note=38, velocity=127, time=224),
    Message('note_off', channel=4, note=38, velocity=127, time=64),
    Message('note_on', channel=4, note=38, velocity=127, time=128),
    Message('note_off', channel=4, note=38, velocity=127, time=64),
    Message('note_on', channel=4, note=35, velocity=127, time=32),
    Message('note_off', channel=4, note=35, velocity=127, time=256),
    Message('note_on', channel=4, note=30, velocity=127, time=224),
    Message('note_off', channel=4, note=30, velocity=127, time=64),
    Message('note_on', channel=4, note=31, velocity=127, time=128),
    Message('note_off', channel=4, note=31, velocity=127, time=192),
    Message('note_on', channel=4, note=26, velocity=127, time=0),
    Message('note_off', channel=4, note=26, velocity=127, time=64),
    Message('note_on', channel=4, note=30, velocity=127, time=32),
    Message('note_off', channel=4, note=30, velocity=127, time=64),
    Message('note_on', channel=4, note=31, velocity=127, time=32),
    Message('note_off', channel=4, note=31, velocity=127, time=64),
    Message('note_on', channel=4, note=31, velocity=127, time=32),
    Message('note_off', channel=4, note=31, velocity=127, time=64),
    Message('note_on', channel=4, note=30, velocity=127, time=32),
    Message('note_off', channel=4, note=30, velocity=127, time=64),
    Message('note_on', channel=4, note=29, velocity=127, time=32),
    Message('note_off', channel=4, note=29, velocity=127, time=64),
    Message('note_on', channel=4, note=28, velocity=127, time=32),
    Message('note_off', channel=4, note=28, velocity=127, time=356),
    Message('note_on', channel=4, note=31, velocity=127, time=220),
    Message('note_off', channel=4, note=31, velocity=127, time=64),
    Message('note_on', channel=4, note=31, velocity=127, time=128),
    Message('note_off', channel=4, note=31, velocity=127, time=64),
    Message('note_on', channel=4, note=30, velocity=127, time=32),
    Message('note_off', channel=4, note=30, velocity=127, time=256),
    Message('note_on', channel=4, note=38, velocity=127, time=224),
    Message('note_off', channel=4, note=38, velocity=127, time=64),
    Message('note_on', channel=4, note=38, velocity=127, time=128),
    Message('note_off', channel=4, note=38, velocity=127, time=64),
    Message('note_on', channel=4, note=35, velocity=127, time=32),
    Message('note_off', channel=4, note=35, velocity=127, time=256),
    Message('note_on', channel=4, note=30, velocity=127, time=224),
    Message('note_off', channel=4, note=30, velocity=127, time=64),
    Message('note_on', channel=4, note=31, velocity=127, time=128),
    Message('note_off', channel=4, note=31, velocity=127, time=192),
    Message('note_on', channel=4, note=26, velocity=127, time=0),
    Message('note_off', channel=4, note=26, velocity=127, time=64),
    Message('note_on', channel=4, note=30, velocity=127, time=32),
    Message('note_off', channel=4, note=30, velocity=127, time=64),
    Message('note_on', channel=4, note=31, velocity=127, time=32),
    Message('note_off', channel=4, note=31, velocity=127, time=64),
    Message('note_on', channel=4, note=31, velocity=127, time=32),
    Message('note_off', channel=4, note=31, velocity=127, time=64),
    Message('note_on', channel=4, note=30, velocity=127, time=32),
    Message('note_off', channel=4, note=30, velocity=127, time=64),
    Message('note_on', channel=4, note=29, velocity=127, time=32),
    Message('note_off', channel=4, note=29, velocity=127, time=64),
    Message('note_on', channel=4, note=28, velocity=127, time=32),
    Message('note_off', channel=4, note=28, velocity=127, time=356),
    Message('note_on', channel=4, note=31, velocity=127, time=220),
    Message('note_off', channel=4, note=31, velocity=127, time=64),
    Message('note_on', channel=4, note=31, velocity=127, time=128),
    Message('note_off', channel=4, note=31, velocity=127, time=64),
    Message('note_on', channel=4, note=30, velocity=127, time=32),
    Message('note_off', channel=4, note=30, velocity=127, time=128),
    Message('note_on', channel=4, note=38, velocity=127, time=64),
    Message('note_off', channel=4, note=38, velocity=127, time=128),
    Message('note_on', channel=4, note=37, velocity=127, time=64),
    Message('note_off', channel=4, note=37, velocity=127, time=64),
    Message('note_on', channel=4, note=33, velocity=127, time=32),
    Message('note_off', channel=4, note=33, velocity=127, time=64),
    Message('note_on', channel=4, note=34, velocity=127, time=32),
    Message('note_off', channel=4, note=34, velocity=127, time=64),
    Message('note_on', channel=4, note=35, velocity=127, time=32),
    Message('note_off', channel=4, note=35, velocity=127, time=256),
    Message('note_on', channel=4, note=35, velocity=127, time=32),
    Message('note_off', channel=4, note=35, velocity=127, time=64),
    Message('note_on', channel=4, note=35, velocity=127, time=32),
    Message('note_off', channel=4, note=35, velocity=127, time=64),
    Message('note_on', channel=4, note=35, velocity=127, time=32),
    Message('note_off', channel=4, note=35, velocity=127, time=64),
    Message('note_on', channel=4, note=30, velocity=127, time=32),
    Message('note_off', channel=4, note=30, velocity=127, time=64),
    Message('note_on', channel=4, note=30, velocity=127, time=32),
    Message('note_off', channel=4, note=30, velocity=127, time=64),
    Message('note_on', channel=4, note=31, velocity=127, time=32),
    Message('note_off', channel=4, note=31, velocity=127, time=64),
    Message('note_on', channel=4, note=31, velocity=127, time=32),
    Message('note_off', channel=4, note=31, velocity=127, time=64),
    Message('note_on', channel=4, note=28, velocity=127, time=32),
    Message('note_off', channel=4, note=28, velocity=127, time=64),
    Message('note_on', channel=4, note=28, velocity=127, time=32),
    Message('note_off', channel=4, note=28, velocity=127, time=64),
    Message('note_on', channel=4, note=30, velocity=127, time=32),
    Message('note_off', channel=4, note=30, velocity=127, time=64),
    Message('note_on', channel=4, note=30, velocity=127, time=32),
    Message('note_off', channel=4, note=30, velocity=127, time=64),
    Message('note_on', channel=4, note=31, velocity=127, time=32),
    Message('note_off', channel=4, note=31, velocity=127, time=64),
    Message('note_on', channel=4, note=28, velocity=127, time=32),
    Message('note_off', channel=4, note=28, velocity=127, time=64),
    Message('note_on', channel=4, note=35, velocity=127, time=32),
    Message('note_off', channel=4, note=35, velocity=127, time=256),
    Message('note_on', channel=4, note=35, velocity=127, time=32),
    Message('note_off', channel=4, note=35, velocity=127, time=64),
    Message('note_on', channel=4, note=35, velocity=127, time=32),
    Message('note_off', channel=4, note=35, velocity=127, time=64),
    Message('note_on', channel=4, note=35, velocity=127, time=32),
    Message('note_off', channel=4, note=35, velocity=127, time=64),
    Message('note_on', channel=4, note=30, velocity=127, time=32),
    Message('note_off', channel=4, note=30, velocity=127, time=64),
    Message('note_on', channel=4, note=30, velocity=127, time=32),
    Message('note_off', channel=4, note=30, velocity=127, time=64),
    Message('note_on', channel=4, note=31, velocity=127, time=32),
    Message('note_off', channel=4, note=31, velocity=127, time=64),
    Message('note_on', channel=4, note=31, velocity=127, time=32),
    Message('note_off', channel=4, note=31, velocity=127, time=64),
    Message('note_on', channel=4, note=28, velocity=127, time=32),
    Message('note_off', channel=4, note=28, velocity=127, time=64),
    Message('note_on', channel=4, note=28, velocity=127, time=32),
    Message('note_off', channel=4, note=28, velocity=127, time=64),
    Message('note_on', channel=4, note=30, velocity=127, time=32),
    Message('note_off', channel=4, note=30, velocity=127, time=64),
    Message('note_on', channel=4, note=30, velocity=127, time=32),
    Message('note_off', channel=4, note=30, velocity=127, time=64),
    Message('note_on', channel=4, note=31, velocity=127, time=32),
    Message('note_off', channel=4, note=31, velocity=127, time=64),
    Message('note_on', channel=4, note=28, velocity=127, time=32),
    Message('note_off', channel=4, note=28, velocity=127, time=64),
    Message('note_on', channel=4, note=35, velocity=127, time=32),
    Message('note_off', channel=4, note=35, velocity=127, time=256),
    Message('note_on', channel=4, note=35, velocity=127, time=32),
    Message('note_off', channel=4, note=35, velocity=127, time=64),
    Message('note_on', channel=4, note=35, velocity=127, time=32),
    Message('note_off', channel=4, note=35, velocity=127, time=64),
    Message('note_on', channel=4, note=35, velocity=127, time=32),
    Message('note_off', channel=4, note=35, velocity=127, time=64),
    Message('note_on', channel=4, note=30, velocity=127, time=32),
    Message('note_off', channel=4, note=30, velocity=127, time=64),
    Message('note_on', channel=4, note=30, velocity=127, time=32),
    Message('note_off', channel=4, note=30, velocity=127, time=64),
    Message('note_on', channel=4, note=31, velocity=127, time=32),
    Message('note_off', channel=4, note=31, velocity=127, time=64),
    Message('note_on', channel=4, note=31, velocity=127, time=32),
    Message('note_off', channel=4, note=31, velocity=127, time=64),
    Message('note_on', channel=4, note=28, velocity=127, time=32),
    Message('note_off', channel=4, note=28, velocity=127, time=64),
    Message('note_on', channel=4, note=28, velocity=127, time=32),
    Message('note_off', channel=4, note=28, velocity=127, time=64),
    Message('note_on', channel=4, note=30, velocity=127, time=32),
    Message('note_off', channel=4, note=30, velocity=127, time=64),
    Message('note_on', channel=4, note=30, velocity=127, time=32),
    Message('note_off', channel=4, note=30, velocity=127, time=64),
    Message('note_on', channel=4, note=31, velocity=127, time=32),
    Message('note_off', channel=4, note=31, velocity=127, time=64),
    Message('note_on', channel=4, note=28, velocity=127, time=32),
    Message('note_off', channel=4, note=28, velocity=127, time=64),
    Message('note_on', channel=4, note=35, velocity=127, time=32),
    Message('note_off', channel=4, note=35, velocity=127, time=256),
    Message('note_on', channel=4, note=35, velocity=127, time=32),
    Message('note_off', channel=4, note=35, velocity=127, time=64),
    Message('note_on', channel=4, note=35, velocity=127, time=32),
    Message('note_off', channel=4, note=35, velocity=127, time=64),
    Message('note_on', channel=4, note=35, velocity=127, time=32),
    Message('note_off', channel=4, note=35, velocity=127, time=64),
    Message('note_on', channel=4, note=30, velocity=127, time=32),
    Message('note_off', channel=4, note=30, velocity=127, time=64),
    Message('note_on', channel=4, note=30, velocity=127, time=32),
    Message('note_off', channel=4, note=30, velocity=127, time=64),
    Message('note_on', channel=4, note=31, velocity=127, time=32),
    Message('note_off', channel=4, note=31, velocity=127, time=64),
    Message('note_on', channel=4, note=31, velocity=127, time=32),
    Message('note_off', channel=4, note=31, velocity=127, time=64),
    Message('note_on', channel=4, note=28, velocity=127, time=32),
    Message('note_off', channel=4, note=28, velocity=127, time=64),
    Message('note_on', channel=4, note=28, velocity=127, time=32),
    Message('note_off', channel=4, note=28, velocity=127, time=64),
    Message('note_on', channel=4, note=30, velocity=127, time=32),
    Message('note_off', channel=4, note=30, velocity=127, time=64),
    Message('note_on', channel=4, note=30, velocity=127, time=32),
    Message('note_off', channel=4, note=30, velocity=127, time=64),
    Message('note_on', channel=4, note=31, velocity=127, time=32),
    Message('note_off', channel=4, note=31, velocity=127, time=64),
    Message('note_on', channel=4, note=28, velocity=127, time=32),
    Message('note_off', channel=4, note=28, velocity=127, time=64),
    Message('note_on', channel=4, note=35, velocity=127, time=32),
    Message('note_off', channel=4, note=35, velocity=127, time=256),
    Message('note_on', channel=4, note=35, velocity=127, time=32),
    Message('note_off', channel=4, note=35, velocity=127, time=64),
    Message('note_on', channel=4, note=35, velocity=127, time=32),
    Message('note_off', channel=4, note=35, velocity=127, time=64),
    Message('note_on', channel=4, note=35, velocity=127, time=32),
    Message('note_off', channel=4, note=35, velocity=127, time=64),
    Message('note_on', channel=4, note=30, velocity=127, time=32),
    Message('note_off', channel=4, note=30, velocity=127, time=64),
    Message('note_on', channel=4, note=30, velocity=127, time=32),
    Message('note_off', channel=4, note=30, velocity=127, time=64),
    Message('note_on', channel=4, note=31, velocity=127, time=32),
    Message('note_off', channel=4, note=31, velocity=127, time=64),
    Message('note_on', channel=4, note=31, velocity=127, time=32),
    Message('note_off', channel=4, note=31, velocity=127, time=64),
    Message('note_on', channel=4, note=28, velocity=127, time=32),
    Message('note_off', channel=4, note=28, velocity=127, time=64),
    Message('note_on', channel=4, note=28, velocity=127, time=32),
    Message('note_off', channel=4, note=28, velocity=127, time=64),
    Message('note_on', channel=4, note=30, velocity=127, time=32),
    Message('note_off', channel=4, note=30, velocity=127, time=64),
    Message('note_on', channel=4, note=30, velocity=127, time=32),
    Message('note_off', channel=4, note=30, velocity=127, time=64),
    Message('note_on', channel=4, note=31, velocity=127, time=32),
    Message('note_off', channel=4, note=31, velocity=127, time=64),
    Message('note_on', channel=4, note=28, velocity=127, time=32),
    Message('note_off', channel=4, note=28, velocity=127, time=64),
    Message('note_on', channel=4, note=35, velocity=127, time=32),
    Message('note_off', channel=4, note=35, velocity=127, time=256),
    Message('note_on', channel=4, note=35, velocity=127, time=32),
    Message('note_off', channel=4, note=35, velocity=127, time=64),
    Message('note_on', channel=4, note=35, velocity=127, time=32),
    Message('note_off', channel=4, note=35, velocity=127, time=64),
    Message('note_on', channel=4, note=35, velocity=127, time=32),
    Message('note_off', channel=4, note=35, velocity=127, time=64),
    Message('note_on', channel=4, note=30, velocity=127, time=32),
    Message('note_off', channel=4, note=30, velocity=127, time=64),
    Message('note_on', channel=4, note=30, velocity=127, time=32),
    Message('note_off', channel=4, note=30, velocity=127, time=64),
    Message('note_on', channel=4, note=31, velocity=127, time=32),
    Message('note_off', channel=4, note=31, velocity=127, time=64),
    Message('note_on', channel=4, note=31, velocity=127, time=32),
    Message('note_off', channel=4, note=31, velocity=127, time=64),
    Message('note_on', channel=4, note=28, velocity=127, time=32),
    Message('note_off', channel=4, note=28, velocity=127, time=64),
    Message('note_on', channel=4, note=28, velocity=127, time=32),
    Message('note_off', channel=4, note=28, velocity=127, time=64),
    Message('note_on', channel=4, note=30, velocity=127, time=32),
    Message('note_off', channel=4, note=30, velocity=127, time=64),
    Message('note_on', channel=4, note=30, velocity=127, time=32),
    Message('note_off', channel=4, note=30, velocity=127, time=64),
    Message('note_on', channel=4, note=31, velocity=127, time=32),
    Message('note_off', channel=4, note=31, velocity=127, time=64),
    Message('note_on', channel=4, note=28, velocity=127, time=32),
    Message('note_off', channel=4, note=28, velocity=127, time=64),
    Message('note_on', channel=4, note=33, velocity=127, time=32),
    Message('note_off', channel=4, note=33, velocity=127, time=256),
    Message('note_on', channel=4, note=33, velocity=127, time=32),
    Message('note_off', channel=4, note=33, velocity=127, time=64),
    Message('note_on', channel=4, note=33, velocity=127, time=32),
    Message('note_off', channel=4, note=33, velocity=127, time=64),
    Message('note_on', channel=4, note=33, velocity=127, time=32),
    Message('note_off', channel=4, note=33, velocity=127, time=64),
    Message('note_on', channel=4, note=28, velocity=127, time=32),
    Message('note_off', channel=4, note=28, velocity=127, time=64),
    Message('note_on', channel=4, note=29, velocity=127, time=128),
    Message('note_off', channel=4, note=29, velocity=127, time=64),
    Message('note_on', channel=4, note=31, velocity=127, time=128),
    Message('note_off', channel=4, note=31, velocity=127, time=64),
    Message('note_on', channel=4, note=33, velocity=127, time=128),
    Message('note_off', channel=4, note=33, velocity=127, time=64),
    Message('note_on', channel=4, note=36, velocity=127, time=128),
    Message('note_off', channel=4, note=36, velocity=127, time=64),
    Message('note_on', channel=4, note=36, velocity=127, time=128),
    Message('note_off', channel=4, note=36, velocity=127, time=64),
    Message('note_on', channel=4, note=33, velocity=127, time=32),
    Message('note_off', channel=4, note=33, velocity=127, time=128),
    Message('note_on', channel=4, note=33, velocity=127, time=64),
    Message('note_off', channel=4, note=33, velocity=127, time=64),
    Message('note_on', channel=4, note=33, velocity=127, time=32),
    Message('note_off', channel=4, note=33, velocity=127, time=64),
    Message('note_on', channel=4, note=33, velocity=127, time=32),
    Message('note_off', channel=4, note=33, velocity=127, time=64),
    Message('note_on', channel=4, note=28, velocity=127, time=32),
    Message('note_off', channel=4, note=28, velocity=127, time=64),
    Message('note_on', channel=4, note=29, velocity=127, time=128),
    Message('note_off', channel=4, note=29, velocity=127, time=64),
    Message('note_on', channel=4, note=31, velocity=127, time=128),
    Message('note_off', channel=4, note=31, velocity=127, time=64),
    Message('note_on', channel=4, note=33, velocity=127, time=128),
    Message('note_off', channel=4, note=33, velocity=127, time=64),
    Message('note_on', channel=4, note=36, velocity=127, time=128),
    Message('note_off', channel=4, note=36, velocity=127, time=64),
    Message('note_on', channel=4, note=36, velocity=127, time=128),
    Message('note_off', channel=4, note=36, velocity=127, time=64),
    Message('note_on', channel=4, note=35, velocity=127, time=32),
    Message('note_off', channel=4, note=35, velocity=127, time=128),
    Message('note_on', channel=4, note=35, velocity=127, time=64),
    Message('note_off', channel=4, note=35, velocity=127, time=64),
    Message('note_on', channel=4, note=35, velocity=127, time=32),
    Message('note_off', channel=4, note=35, velocity=127, time=64),
    Message('note_on', channel=4, note=35, velocity=127, time=32),
    Message('note_off', channel=4, note=35, velocity=127, time=64),
    Message('note_on', channel=4, note=30, velocity=127, time=32),
    Message('note_off', channel=4, note=30, velocity=127, time=64),
    Message('note_on', channel=4, note=30, velocity=127, time=32),
    Message('note_off', channel=4, note=30, velocity=127, time=64),
    Message('note_on', channel=4, note=31, velocity=127, time=32),
    Message('note_off', channel=4, note=31, velocity=127, time=64),
    Message('note_on', channel=4, note=31, velocity=127, time=32),
    Message('note_off', channel=4, note=31, velocity=127, time=64),
    Message('note_on', channel=4, note=28, velocity=127, time=32),
    Message('note_off', channel=4, note=28, velocity=127, time=64),
    Message('note_on', channel=4, note=28, velocity=127, time=32),
    Message('note_off', channel=4, note=28, velocity=127, time=64),
    Message('note_on', channel=4, note=30, velocity=127, time=32),
    Message('note_off', channel=4, note=30, velocity=127, time=64),
    Message('note_on', channel=4, note=30, velocity=127, time=32),
    Message('note_off', channel=4, note=30, velocity=127, time=64),
    Message('note_on', channel=4, note=31, velocity=127, time=32),
    Message('note_off', channel=4, note=31, velocity=127, time=64),
    Message('note_on', channel=4, note=28, velocity=127, time=32),
    Message('note_off', channel=4, note=28, velocity=127, time=64),
    Message('note_on', channel=4, note=35, velocity=127, time=32),
    Message('note_off', channel=4, note=35, velocity=127, time=256),
    Message('note_on', channel=4, note=35, velocity=127, time=32),
    Message('note_off', channel=4, note=35, velocity=127, time=64),
    Message('note_on', channel=4, note=35, velocity=127, time=32),
    Message('note_off', channel=4, note=35, velocity=127, time=64),
    Message('note_on', channel=4, note=35, velocity=127, time=32),
    Message('note_off', channel=4, note=35, velocity=127, time=64),
    Message('note_on', channel=4, note=30, velocity=127, time=32),
    Message('note_off', channel=4, note=30, velocity=127, time=64),
    Message('note_on', channel=4, note=30, velocity=127, time=32),
    Message('note_off', channel=4, note=30, velocity=127, time=64),
    Message('note_on', channel=4, note=31, velocity=127, time=32),
    Message('note_off', channel=4, note=31, velocity=127, time=64),
    Message('note_on', channel=4, note=31, velocity=127, time=32),
    Message('note_off', channel=4, note=31, velocity=127, time=64),
    Message('note_on', channel=4, note=28, velocity=127, time=32),
    Message('note_off', channel=4, note=28, velocity=127, time=64),
    Message('note_on', channel=4, note=28, velocity=127, time=32),
    Message('note_off', channel=4, note=28, velocity=127, time=64),
    Message('note_on', channel=4, note=30, velocity=127, time=32),
    Message('note_off', channel=4, note=30, velocity=127, time=64),
    Message('note_on', channel=4, note=30, velocity=127, time=32),
    Message('note_off', channel=4, note=30, velocity=127, time=64),
    Message('note_on', channel=4, note=31, velocity=127, time=32),
    Message('note_off', channel=4, note=31, velocity=127, time=64),
    Message('note_on', channel=4, note=28, velocity=127, time=32),
    Message('note_off', channel=4, note=28, velocity=127, time=64),
    Message('note_on', channel=4, note=35, velocity=127, time=32),
    Message('note_off', channel=4, note=35, velocity=127, time=360),
    Message('note_on', channel=4, note=30, velocity=127, time=216),
    Message('note_off', channel=4, note=30, velocity=127, time=64),
    Message('note_on', channel=4, note=31, velocity=127, time=128),
    Message('note_off', channel=4, note=31, velocity=127, time=192),
    Message('note_on', channel=4, note=26, velocity=127, time=0),
    Message('note_off', channel=4, note=26, velocity=127, time=64),
    Message('note_on', channel=4, note=30, velocity=127, time=32),
    Message('note_off', channel=4, note=30, velocity=127, time=64),
    Message('note_on', channel=4, note=31, velocity=127, time=32),
    Message('note_off', channel=4, note=31, velocity=127, time=64),
    Message('note_on', channel=4, note=31, velocity=127, time=32),
    Message('note_off', channel=4, note=31, velocity=127, time=64),
    Message('note_on', channel=4, note=30, velocity=127, time=32),
    Message('note_off', channel=4, note=30, velocity=127, time=64),
    Message('note_on', channel=4, note=29, velocity=127, time=32),
    Message('note_off', channel=4, note=29, velocity=127, time=64),
    Message('note_on', channel=4, note=28, velocity=127, time=32),
    Message('note_off', channel=4, note=28, velocity=127, time=356),
    Message('note_on', channel=4, note=31, velocity=127, time=220),
    Message('note_off', channel=4, note=31, velocity=127, time=64),
    Message('note_on', channel=4, note=31, velocity=127, time=128),
    Message('note_off', channel=4, note=31, velocity=127, time=64),
    Message('note_on', channel=4, note=30, velocity=127, time=32),
    Message('note_off', channel=4, note=30, velocity=127, time=256),
    Message('note_on', channel=4, note=38, velocity=127, time=224),
    Message('note_off', channel=4, note=38, velocity=127, time=64),
    Message('note_on', channel=4, note=38, velocity=127, time=128),
    Message('note_off', channel=4, note=38, velocity=127, time=64),
    Message('note_on', channel=4, note=35, velocity=127, time=32),
    Message('note_off', channel=4, note=35, velocity=127, time=256),
    Message('note_on', channel=4, note=30, velocity=127, time=224),
    Message('note_off', channel=4, note=30, velocity=127, time=64),
    Message('note_on', channel=4, note=31, velocity=127, time=128),
    Message('note_off', channel=4, note=31, velocity=127, time=192),
    Message('note_on', channel=4, note=26, velocity=127, time=0),
    Message('note_off', channel=4, note=26, velocity=127, time=64),
    Message('note_on', channel=4, note=30, velocity=127, time=32),
    Message('note_off', channel=4, note=30, velocity=127, time=64),
    Message('note_on', channel=4, note=31, velocity=127, time=32),
    Message('note_off', channel=4, note=31, velocity=127, time=64),
    Message('note_on', channel=4, note=31, velocity=127, time=32),
    Message('note_off', channel=4, note=31, velocity=127, time=64),
    Message('note_on', channel=4, note=30, velocity=127, time=32),
    Message('note_off', channel=4, note=30, velocity=127, time=64),
    Message('note_on', channel=4, note=29, velocity=127, time=32),
    Message('note_off', channel=4, note=29, velocity=127, time=64),
    Message('note_on', channel=4, note=28, velocity=127, time=32),
    Message('note_off', channel=4, note=28, velocity=127, time=356),
    Message('note_on', channel=4, note=31, velocity=127, time=220),
    Message('note_off', channel=4, note=31, velocity=127, time=64),
    Message('note_on', channel=4, note=31, velocity=127, time=128),
    Message('note_off', channel=4, note=31, velocity=127, time=64),
    Message('note_on', channel=4, note=30, velocity=127, time=32),
    Message('note_off', channel=4, note=30, velocity=127, time=256),
    Message('note_on', channel=4, note=38, velocity=127, time=224),
    Message('note_off', channel=4, note=38, velocity=127, time=64),
    Message('note_on', channel=4, note=38, velocity=127, time=128),
    Message('note_off', channel=4, note=38, velocity=127, time=64),
    Message('note_on', channel=4, note=35, velocity=127, time=32),
    Message('note_off', channel=4, note=35, velocity=127, time=256),
    Message('note_on', channel=4, note=30, velocity=127, time=224),
    Message('note_off', channel=4, note=30, velocity=127, time=64),
    Message('note_on', channel=4, note=31, velocity=127, time=128),
    Message('note_off', channel=4, note=31, velocity=127, time=192),
    Message('note_on', channel=4, note=26, velocity=127, time=0),
    Message('note_off', channel=4, note=26, velocity=127, time=64),
    Message('note_on', channel=4, note=30, velocity=127, time=32),
    Message('note_off', channel=4, note=30, velocity=127, time=64),
    Message('note_on', channel=4, note=31, velocity=127, time=32),
    Message('note_off', channel=4, note=31, velocity=127, time=64),
    Message('note_on', channel=4, note=31, velocity=127, time=32),
    Message('note_off', channel=4, note=31, velocity=127, time=64),
    Message('note_on', channel=4, note=30, velocity=127, time=32),
    Message('note_off', channel=4, note=30, velocity=127, time=64),
    Message('note_on', channel=4, note=29, velocity=127, time=32),
    Message('note_off', channel=4, note=29, velocity=127, time=64),
    Message('note_on', channel=4, note=28, velocity=127, time=32),
    Message('note_off', channel=4, note=28, velocity=127, time=356),
    Message('note_on', channel=4, note=31, velocity=127, time=220),
    Message('note_off', channel=4, note=31, velocity=127, time=64),
    Message('note_on', channel=4, note=31, velocity=127, time=128),
    Message('note_off', channel=4, note=31, velocity=127, time=64),
    Message('note_on', channel=4, note=30, velocity=127, time=32),
    Message('note_off', channel=4, note=30, velocity=127, time=256),
    Message('note_on', channel=4, note=38, velocity=127, time=224),
    Message('note_off', channel=4, note=38, velocity=127, time=64),
    Message('note_on', channel=4, note=38, velocity=127, time=128),
    Message('note_off', channel=4, note=38, velocity=127, time=64),
    Message('note_on', channel=4, note=35, velocity=127, time=32),
    Message('note_off', channel=4, note=35, velocity=127, time=256),
    Message('note_on', channel=4, note=30, velocity=127, time=224),
    Message('note_off', channel=4, note=30, velocity=127, time=64),
    Message('note_on', channel=4, note=31, velocity=127, time=128),
    Message('note_off', channel=4, note=31, velocity=127, time=192),
    Message('note_on', channel=4, note=26, velocity=127, time=0),
    Message('note_off', channel=4, note=26, velocity=127, time=64),
    Message('note_on', channel=4, note=30, velocity=127, time=32),
    Message('note_off', channel=4, note=30, velocity=127, time=64),
    Message('note_on', channel=4, note=31, velocity=127, time=32),
    Message('note_off', channel=4, note=31, velocity=127, time=64),
    Message('note_on', channel=4, note=31, velocity=127, time=32),
    Message('note_off', channel=4, note=31, velocity=127, time=64),
    Message('note_on', channel=4, note=30, velocity=127, time=32),
    Message('note_off', channel=4, note=30, velocity=127, time=64),
    Message('note_on', channel=4, note=29, velocity=127, time=32),
    Message('note_off', channel=4, note=29, velocity=127, time=64),
    Message('note_on', channel=4, note=28, velocity=127, time=32),
    Message('note_off', channel=4, note=28, velocity=127, time=356),
    Message('note_on', channel=4, note=31, velocity=127, time=220),
    Message('note_off', channel=4, note=31, velocity=127, time=64),
    Message('note_on', channel=4, note=31, velocity=127, time=128),
    Message('note_off', channel=4, note=31, velocity=127, time=64),
    Message('note_on', channel=4, note=30, velocity=127, time=32),
    Message('note_off', channel=4, note=30, velocity=127, time=128),
    Message('note_on', channel=4, note=38, velocity=127, time=64),
    Message('note_off', channel=4, note=38, velocity=127, time=128),
    Message('note_on', channel=4, note=37, velocity=127, time=64),
    Message('note_off', channel=4, note=37, velocity=127, time=64),
    Message('note_on', channel=4, note=33, velocity=127, time=32),
    Message('note_off', channel=4, note=33, velocity=127, time=64),
    Message('note_on', channel=4, note=34, velocity=127, time=32),
    Message('note_off', channel=4, note=34, velocity=127, time=64),
    Message('note_on', channel=4, note=35, velocity=127, time=32),
    Message('note_off', channel=4, note=35, velocity=127, time=214),
    Message('note_on', channel=4, note=30, velocity=127, time=362),
    Message('note_off', channel=4, note=30, velocity=127, time=64),
    Message('note_on', channel=4, note=31, velocity=127, time=128),
    Message('note_off', channel=4, note=31, velocity=127, time=222),
    Message('note_on', channel=4, note=35, velocity=127, time=642),
    Message('note_off', channel=4, note=35, velocity=127, time=128),
    Message('note_on', channel=4, note=30, velocity=127, time=352),
    Message('note_off', channel=4, note=30, velocity=127, time=64),
    Message('note_on', channel=4, note=31, velocity=127, time=128),
    Message('note_off', channel=4, note=31, velocity=127, time=222),
    Message('note_on', channel=4, note=38, velocity=127, time=354),
    Message('note_off', channel=4, note=38, velocity=127, time=64),
    Message('note_on', channel=4, note=35, velocity=127, time=128),
    Message('note_off', channel=4, note=35, velocity=127, time=222),
    Message('note_on', channel=4, note=30, velocity=127, time=354),
    Message('note_off', channel=4, note=30, velocity=127, time=64),
    Message('note_on', channel=4, note=31, velocity=127, time=128),
    Message('note_off', channel=4, note=31, velocity=127, time=222),
    Message('note_on', channel=4, note=35, velocity=127, time=642),
    Message('note_off', channel=4, note=35, velocity=127, time=128),
    Message('note_on', channel=4, note=30, velocity=127, time=352),
    Message('note_off', channel=4, note=30, velocity=127, time=64),
    Message('note_on', channel=4, note=31, velocity=127, time=128),
    Message('note_off', channel=4, note=31, velocity=127, time=222),
    Message('note_on', channel=4, note=38, velocity=127, time=354),
    Message('note_off', channel=4, note=38, velocity=127, time=64),
    Message('note_on', channel=4, note=33, velocity=127, time=128),
    Message('note_off', channel=4, note=33, velocity=127, time=222),
    Message('note_on', channel=4, note=28, velocity=127, time=354),
    Message('note_off', channel=4, note=28, velocity=127, time=64),
    Message('note_on', channel=4, note=29, velocity=127, time=128),
    Message('note_off', channel=4, note=29, velocity=127, time=222),
    Message('note_on', channel=4, note=33, velocity=127, time=642),
    Message('note_off', channel=4, note=33, velocity=127, time=128),
    Message('note_on', channel=4, note=28, velocity=127, time=352),
    Message('note_off', channel=4, note=28, velocity=127, time=64),
    Message('note_on', channel=4, note=29, velocity=127, time=128),
    Message('note_off', channel=4, note=29, velocity=127, time=222),
    Message('note_on', channel=4, note=36, velocity=127, time=354),
    Message('note_off', channel=4, note=36, velocity=127, time=64),
    Message('note_on', channel=4, note=35, velocity=127, time=128),
    Message('note_off', channel=4, note=35, velocity=127, time=222),
    Message('note_on', channel=4, note=30, velocity=127, time=354),
    Message('note_off', channel=4, note=30, velocity=127, time=64),
    Message('note_on', channel=4, note=31, velocity=127, time=128),
    Message('note_off', channel=4, note=31, velocity=127, time=222),
    Message('note_on', channel=4, note=35, velocity=127, time=642),
    Message('note_off', channel=4, note=35, velocity=127, time=128),
    Message('note_on', channel=4, note=30, velocity=127, time=352),
    Message('note_off', channel=4, note=30, velocity=127, time=64),
    Message('note_on', channel=4, note=31, velocity=127, time=128),
    Message('note_off', channel=4, note=31, velocity=127, time=222),
    Message('note_on', channel=4, note=38, velocity=127, time=354),
    Message('note_off', channel=4, note=38, velocity=127, time=64),
    Message('note_on', channel=4, note=35, velocity=127, time=128),
    Message('note_off', channel=4, note=35, velocity=127, time=64),
    Message('note_on', channel=4, note=35, velocity=127, time=1472),
    Message('note_off', channel=4, note=35, velocity=127, time=64),
    Message('note_on', channel=4, note=31, velocity=127, time=1472),
    Message('note_off', channel=4, note=31, velocity=127, time=64),
    Message('note_on', channel=4, note=28, velocity=127, time=1472),
    Message('note_off', channel=4, note=28, velocity=127, time=64),
    Message('note_on', channel=4, note=30, velocity=127, time=1472),
    Message('note_off', channel=4, note=30, velocity=127, time=64),
    Message('note_on', channel=4, note=33, velocity=127, time=704),
    Message('note_off', channel=4, note=33, velocity=127, time=64),
    Message('note_on', channel=4, note=33, velocity=127, time=512),
    Message('note_off', channel=4, note=33, velocity=127, time=64),
    Message('note_on', channel=4, note=35, velocity=127, time=128),
    Message('note_off', channel=4, note=35, velocity=127, time=64),
    Message('note_on', channel=4, note=31, velocity=127, time=1472),
    Message('note_off', channel=4, note=31, velocity=127, time=64),
    Message('note_on', channel=4, note=28, velocity=127, time=1280),
    Message('note_off', channel=4, note=28, velocity=127, time=64),
    Message('note_on', channel=4, note=28, velocity=127, time=32),
    Message('note_off', channel=4, note=28, velocity=127, time=64),
    Message('note_on', channel=4, note=28, velocity=127, time=32),
    Message('note_off', channel=4, note=28, velocity=127, time=64),
    Message('note_on', channel=4, note=30, velocity=127, time=1472),
    Message('note_off', channel=4, note=30, velocity=127, time=64),
    Message('note_on', channel=4, note=33, velocity=127, time=704),
    Message('note_off', channel=4, note=33, velocity=127, time=64),
    Message('note_on', channel=4, note=33, velocity=127, time=512),
    Message('note_off', channel=4, note=33, velocity=127, time=64),
    Message('note_on', channel=4, note=34, velocity=127, time=32),
    Message('note_off', channel=4, note=34, velocity=127, time=64),
    Message('note_on', channel=4, note=35, velocity=127, time=32),
    Message('note_off', channel=4, note=35, velocity=127, time=168),
    Message('note_on', channel=4, note=35, velocity=127, time=24),
    Message('note_off', channel=4, note=35, velocity=127, time=64),
    Message('note_on', channel=4, note=35, velocity=127, time=32),
    Message('note_off', channel=4, note=35, velocity=127, time=64),
    Message('note_on', channel=4, note=35, velocity=127, time=32),
    Message('note_off', channel=4, note=35, velocity=127, time=64),
    Message('note_on', channel=4, note=35, velocity=127, time=32),
    Message('note_off', channel=4, note=35, velocity=127, time=64),
    Message('note_on', channel=4, note=35, velocity=127, time=32),
    Message('note_off', channel=4, note=35, velocity=127, time=64),
    Message('note_on', channel=4, note=35, velocity=127, time=32),
    Message('note_off', channel=4, note=35, velocity=127, time=64),
    Message('note_on', channel=4, note=35, velocity=127, time=32),
    Message('note_off', channel=4, note=35, velocity=127, time=64),
    Message('note_on', channel=4, note=35, velocity=127, time=32),
    Message('note_off', channel=4, note=35, velocity=127, time=64),
    Message('note_on', channel=4, note=35, velocity=127, time=32),
    Message('note_off', channel=4, note=35, velocity=127, time=64),
    Message('note_on', channel=4, note=35, velocity=127, time=32),
    Message('note_off', channel=4, note=35, velocity=127, time=64),
    Message('note_on', channel=4, note=35, velocity=127, time=32),
    Message('note_off', channel=4, note=35, velocity=127, time=64),
    Message('note_on', channel=4, note=35, velocity=127, time=32),
    Message('note_off', channel=4, note=35, velocity=127, time=64),
    Message('note_on', channel=4, note=35, velocity=127, time=32),
    Message('note_off', channel=4, note=35, velocity=127, time=64),
    Message('note_on', channel=4, note=35, velocity=127, time=32),
    Message('note_off', channel=4, note=35, velocity=127, time=64),
    Message('note_on', channel=4, note=31, velocity=127, time=32),
    Message('note_off', channel=4, note=31, velocity=127, time=192),
    Message('note_on', channel=4, note=31, velocity=127, time=0),
    Message('note_off', channel=4, note=31, velocity=127, time=64),
    Message('note_on', channel=4, note=31, velocity=127, time=32),
    Message('note_off', channel=4, note=31, velocity=127, time=64),
    Message('note_on', channel=4, note=31, velocity=127, time=32),
    Message('note_off', channel=4, note=31, velocity=127, time=64),
    Message('note_on', channel=4, note=31, velocity=127, time=32),
    Message('note_off', channel=4, note=31, velocity=127, time=64),
    Message('note_on', channel=4, note=31, velocity=127, time=32),
    Message('note_off', channel=4, note=31, velocity=127, time=64),
    Message('note_on', channel=4, note=31, velocity=127, time=32),
    Message('note_off', channel=4, note=31, velocity=127, time=64),
    Message('note_on', channel=4, note=31, velocity=127, time=32),
    Message('note_off', channel=4, note=31, velocity=127, time=64),
    Message('note_on', channel=4, note=31, velocity=127, time=32),
    Message('note_off', channel=4, note=31, velocity=127, time=64),
    Message('note_on', channel=4, note=31, velocity=127, time=32),
    Message('note_off', channel=4, note=31, velocity=127, time=64),
    Message('note_on', channel=4, note=31, velocity=127, time=32),
    Message('note_off', channel=4, note=31, velocity=127, time=64),
    Message('note_on', channel=4, note=31, velocity=127, time=32),
    Message('note_off', channel=4, note=31, velocity=127, time=64),
    Message('note_on', channel=4, note=31, velocity=127, time=32),
    Message('note_off', channel=4, note=31, velocity=127, time=64),
    Message('note_on', channel=4, note=31, velocity=127, time=32),
    Message('note_off', channel=4, note=31, velocity=127, time=64),
    Message('note_on', channel=4, note=31, velocity=127, time=32),
    Message('note_off', channel=4, note=31, velocity=127, time=64),
    Message('note_on', channel=4, note=28, velocity=127, time=32),
    Message('note_off', channel=4, note=28, velocity=127, time=192),
    Message('note_on', channel=4, note=28, velocity=127, time=0),
    Message('note_off', channel=4, note=28, velocity=127, time=64),
    Message('note_on', channel=4, note=28, velocity=127, time=32),
    Message('note_off', channel=4, note=28, velocity=127, time=64),
    Message('note_on', channel=4, note=28, velocity=127, time=32),
    Message('note_off', channel=4, note=28, velocity=127, time=64),
    Message('note_on', channel=4, note=28, velocity=127, time=32),
    Message('note_off', channel=4, note=28, velocity=127, time=64),
    Message('note_on', channel=4, note=28, velocity=127, time=32),
    Message('note_off', channel=4, note=28, velocity=127, time=64),
    Message('note_on', channel=4, note=28, velocity=127, time=32),
    Message('note_off', channel=4, note=28, velocity=127, time=64),
    Message('note_on', channel=4, note=28, velocity=127, time=32),
    Message('note_off', channel=4, note=28, velocity=127, time=64),
    Message('note_on', channel=4, note=28, velocity=127, time=32),
    Message('note_off', channel=4, note=28, velocity=127, time=64),
    Message('note_on', channel=4, note=28, velocity=127, time=32),
    Message('note_off', channel=4, note=28, velocity=127, time=64),
    Message('note_on', channel=4, note=28, velocity=127, time=32),
    Message('note_off', channel=4, note=28, velocity=127, time=64),
    Message('note_on', channel=4, note=28, velocity=127, time=32),
    Message('note_off', channel=4, note=28, velocity=127, time=64),
    Message('note_on', channel=4, note=28, velocity=127, time=32),
    Message('note_off', channel=4, note=28, velocity=127, time=64),
    Message('note_on', channel=4, note=28, velocity=127, time=32),
    Message('note_off', channel=4, note=28, velocity=127, time=64),
    Message('note_on', channel=4, note=28, velocity=127, time=32),
    Message('note_off', channel=4, note=28, velocity=127, time=64),
    Message('note_on', channel=4, note=30, velocity=127, time=32),
    Message('note_off', channel=4, note=30, velocity=127, time=192),
    Message('note_on', channel=4, note=30, velocity=127, time=0),
    Message('note_off', channel=4, note=30, velocity=127, time=64),
    Message('note_on', channel=4, note=30, velocity=127, time=32),
    Message('note_off', channel=4, note=30, velocity=127, time=64),
    Message('note_on', channel=4, note=30, velocity=127, time=32),
    Message('note_off', channel=4, note=30, velocity=127, time=64),
    Message('note_on', channel=4, note=30, velocity=127, time=32),
    Message('note_off', channel=4, note=30, velocity=127, time=64),
    Message('note_on', channel=4, note=30, velocity=127, time=32),
    Message('note_off', channel=4, note=30, velocity=127, time=64),
    Message('note_on', channel=4, note=30, velocity=127, time=32),
    Message('note_off', channel=4, note=30, velocity=127, time=64),
    Message('note_on', channel=4, note=33, velocity=127, time=32),
    Message('note_off', channel=4, note=33, velocity=127, time=192),
    Message('note_on', channel=4, note=33, velocity=127, time=0),
    Message('note_off', channel=4, note=33, velocity=127, time=64),
    Message('note_on', channel=4, note=33, velocity=127, time=32),
    Message('note_off', channel=4, note=33, velocity=127, time=64),
    Message('note_on', channel=4, note=33, velocity=127, time=32),
    Message('note_off', channel=4, note=33, velocity=127, time=64),
    Message('note_on', channel=4, note=33, velocity=127, time=32),
    Message('note_off', channel=4, note=33, velocity=127, time=64),
    Message('note_on', channel=4, note=34, velocity=127, time=32),
    Message('note_off', channel=4, note=34, velocity=127, time=64),
    Message('note_on', channel=4, note=35, velocity=127, time=128),
    Message('note_off', channel=4, note=35, velocity=127, time=192),
    Message('note_on', channel=4, note=35, velocity=127, time=0),
    Message('note_off', channel=4, note=35, velocity=127, time=64),
    Message('note_on', channel=4, note=35, velocity=127, time=32),
    Message('note_off', channel=4, note=35, velocity=127, time=64),
    Message('note_on', channel=4, note=35, velocity=127, time=32),
    Message('note_off', channel=4, note=35, velocity=127, time=64),
    Message('note_on', channel=4, note=35, velocity=127, time=32),
    Message('note_off', channel=4, note=35, velocity=127, time=64),
    Message('note_on', channel=4, note=35, velocity=127, time=32),
    Message('note_off', channel=4, note=35, velocity=127, time=64),
    Message('note_on', channel=4, note=35, velocity=127, time=32),
    Message('note_off', channel=4, note=35, velocity=127, time=64),
    Message('note_on', channel=4, note=35, velocity=127, time=32),
    Message('note_off', channel=4, note=35, velocity=127, time=64),
    Message('note_on', channel=4, note=35, velocity=127, time=32),
    Message('note_off', channel=4, note=35, velocity=127, time=64),
    Message('note_on', channel=4, note=35, velocity=127, time=32),
    Message('note_off', channel=4, note=35, velocity=127, time=64),
    Message('note_on', channel=4, note=35, velocity=127, time=32),
    Message('note_off', channel=4, note=35, velocity=127, time=64),
    Message('note_on', channel=4, note=35, velocity=127, time=32),
    Message('note_off', channel=4, note=35, velocity=127, time=64),
    Message('note_on', channel=4, note=35, velocity=127, time=32),
    Message('note_off', channel=4, note=35, velocity=127, time=64),
    Message('note_on', channel=4, note=35, velocity=127, time=32),
    Message('note_off', channel=4, note=35, velocity=127, time=64),
    Message('note_on', channel=4, note=35, velocity=127, time=32),
    Message('note_off', channel=4, note=35, velocity=127, time=64),
    Message('note_on', channel=4, note=31, velocity=127, time=32),
    Message('note_off', channel=4, note=31, velocity=127, time=192),
    Message('note_on', channel=4, note=31, velocity=127, time=0),
    Message('note_off', channel=4, note=31, velocity=127, time=64),
    Message('note_on', channel=4, note=31, velocity=127, time=32),
    Message('note_off', channel=4, note=31, velocity=127, time=64),
    Message('note_on', channel=4, note=31, velocity=127, time=32),
    Message('note_off', channel=4, note=31, velocity=127, time=64),
    Message('note_on', channel=4, note=31, velocity=127, time=32),
    Message('note_off', channel=4, note=31, velocity=127, time=64),
    Message('note_on', channel=4, note=31, velocity=127, time=32),
    Message('note_off', channel=4, note=31, velocity=127, time=64),
    Message('note_on', channel=4, note=31, velocity=127, time=32),
    Message('note_off', channel=4, note=31, velocity=127, time=64),
    Message('note_on', channel=4, note=31, velocity=127, time=32),
    Message('note_off', channel=4, note=31, velocity=127, time=64),
    Message('note_on', channel=4, note=31, velocity=127, time=32),
    Message('note_off', channel=4, note=31, velocity=127, time=64),
    Message('note_on', channel=4, note=31, velocity=127, time=32),
    Message('note_off', channel=4, note=31, velocity=127, time=64),
    Message('note_on', channel=4, note=31, velocity=127, time=32),
    Message('note_off', channel=4, note=31, velocity=127, time=64),
    Message('note_on', channel=4, note=31, velocity=127, time=32),
    Message('note_off', channel=4, note=31, velocity=127, time=64),
    Message('note_on', channel=4, note=31, velocity=127, time=32),
    Message('note_off', channel=4, note=31, velocity=127, time=64),
    Message('note_on', channel=4, note=31, velocity=127, time=32),
    Message('note_off', channel=4, note=31, velocity=127, time=64),
    Message('note_on', channel=4, note=31, velocity=127, time=32),
    Message('note_off', channel=4, note=31, velocity=127, time=64),
    Message('note_on', channel=4, note=28, velocity=127, time=32),
    Message('note_off', channel=4, note=28, velocity=127, time=192),
    Message('note_on', channel=4, note=28, velocity=127, time=0),
    Message('note_off', channel=4, note=28, velocity=127, time=64),
    Message('note_on', channel=4, note=28, velocity=127, time=32),
    Message('note_off', channel=4, note=28, velocity=127, time=64),
    Message('note_on', channel=4, note=28, velocity=127, time=32),
    Message('note_off', channel=4, note=28, velocity=127, time=64),
    Message('note_on', channel=4, note=28, velocity=127, time=32),
    Message('note_off', channel=4, note=28, velocity=127, time=64),
    Message('note_on', channel=4, note=28, velocity=127, time=32),
    Message('note_off', channel=4, note=28, velocity=127, time=64),
    Message('note_on', channel=4, note=28, velocity=127, time=32),
    Message('note_off', channel=4, note=28, velocity=127, time=64),
    Message('note_on', channel=4, note=28, velocity=127, time=32),
    Message('note_off', channel=4, note=28, velocity=127, time=64),
    Message('note_on', channel=4, note=28, velocity=127, time=32),
    Message('note_off', channel=4, note=28, velocity=127, time=64),
    Message('note_on', channel=4, note=28, velocity=127, time=32),
    Message('note_off', channel=4, note=28, velocity=127, time=64),
    Message('note_on', channel=4, note=28, velocity=127, time=32),
    Message('note_off', channel=4, note=28, velocity=127, time=64),
    Message('note_on', channel=4, note=28, velocity=127, time=32),
    Message('note_off', channel=4, note=28, velocity=127, time=64),
    Message('note_on', channel=4, note=28, velocity=127, time=32),
    Message('note_off', channel=4, note=28, velocity=127, time=64),
    Message('note_on', channel=4, note=28, velocity=127, time=32),
    Message('note_off', channel=4, note=28, velocity=127, time=64),
    Message('note_on', channel=4, note=28, velocity=127, time=32),
    Message('note_off', channel=4, note=28, velocity=127, time=64),
    Message('note_on', channel=4, note=30, velocity=127, time=32),
    Message('note_off', channel=4, note=30, velocity=127, time=192),
    Message('note_on', channel=4, note=30, velocity=127, time=0),
    Message('note_off', channel=4, note=30, velocity=127, time=64),
    Message('note_on', channel=4, note=30, velocity=127, time=32),
    Message('note_off', channel=4, note=30, velocity=127, time=64),
    Message('note_on', channel=4, note=30, velocity=127, time=32),
    Message('note_off', channel=4, note=30, velocity=127, time=64),
    Message('note_on', channel=4, note=30, velocity=127, time=32),
    Message('note_off', channel=4, note=30, velocity=127, time=64),
    Message('note_on', channel=4, note=30, velocity=127, time=32),
    Message('note_off', channel=4, note=30, velocity=127, time=64),
    Message('note_on', channel=4, note=30, velocity=127, time=32),
    Message('note_off', channel=4, note=30, velocity=127, time=64),
    Message('note_on', channel=4, note=33, velocity=127, time=32),
    Message('note_off', channel=4, note=33, velocity=127, time=192),
    Message('note_on', channel=4, note=33, velocity=127, time=0),
    Message('note_off', channel=4, note=33, velocity=127, time=64),
    Message('note_on', channel=4, note=33, velocity=127, time=32),
    Message('note_off', channel=4, note=33, velocity=127, time=64),
    Message('note_on', channel=4, note=33, velocity=127, time=32),
    Message('note_off', channel=4, note=33, velocity=127, time=64),
    Message('note_on', channel=4, note=33, velocity=127, time=32),
    Message('note_off', channel=4, note=33, velocity=127, time=64),
    Message('note_on', channel=4, note=34, velocity=127, time=32),
    Message('note_off', channel=4, note=34, velocity=127, time=64),
    Message('note_on', channel=4, note=35, velocity=127, time=128),
    Message('note_off', channel=4, note=35, velocity=127, time=192),
    Message('note_on', channel=4, note=35, velocity=127, time=0),
    Message('note_off', channel=4, note=35, velocity=127, time=64),
    Message('note_on', channel=4, note=35, velocity=127, time=32),
    Message('note_off', channel=4, note=35, velocity=127, time=64),
    Message('note_on', channel=4, note=35, velocity=127, time=32),
    Message('note_off', channel=4, note=35, velocity=127, time=64),
    Message('note_on', channel=4, note=35, velocity=127, time=32),
    Message('note_off', channel=4, note=35, velocity=127, time=64),
    Message('note_on', channel=4, note=35, velocity=127, time=32),
    Message('note_off', channel=4, note=35, velocity=127, time=64),
    Message('note_on', channel=4, note=35, velocity=127, time=32),
    Message('note_off', channel=4, note=35, velocity=127, time=64),
    Message('note_on', channel=4, note=35, velocity=127, time=32),
    Message('note_off', channel=4, note=35, velocity=127, time=64),
    Message('note_on', channel=4, note=35, velocity=127, time=32),
    Message('note_off', channel=4, note=35, velocity=127, time=64),
    Message('note_on', channel=4, note=35, velocity=127, time=32),
    Message('note_off', channel=4, note=35, velocity=127, time=64),
    Message('note_on', channel=4, note=35, velocity=127, time=32),
    Message('note_off', channel=4, note=35, velocity=127, time=64),
    Message('note_on', channel=4, note=35, velocity=127, time=32),
    Message('note_off', channel=4, note=35, velocity=127, time=64),
    Message('note_on', channel=4, note=35, velocity=127, time=32),
    Message('note_off', channel=4, note=35, velocity=127, time=64),
    Message('note_on', channel=4, note=35, velocity=127, time=32),
    Message('note_off', channel=4, note=35, velocity=127, time=64),
    Message('note_on', channel=4, note=35, velocity=127, time=32),
    Message('note_off', channel=4, note=35, velocity=127, time=64),
    Message('note_on', channel=4, note=31, velocity=127, time=32),
    Message('note_off', channel=4, note=31, velocity=127, time=192),
    Message('note_on', channel=4, note=31, velocity=127, time=0),
    Message('note_off', channel=4, note=31, velocity=127, time=64),
    Message('note_on', channel=4, note=31, velocity=127, time=32),
    Message('note_off', channel=4, note=31, velocity=127, time=64),
    Message('note_on', channel=4, note=31, velocity=127, time=32),
    Message('note_off', channel=4, note=31, velocity=127, time=64),
    Message('note_on', channel=4, note=31, velocity=127, time=32),
    Message('note_off', channel=4, note=31, velocity=127, time=64),
    Message('note_on', channel=4, note=31, velocity=127, time=32),
    Message('note_off', channel=4, note=31, velocity=127, time=64),
    Message('note_on', channel=4, note=31, velocity=127, time=32),
    Message('note_off', channel=4, note=31, velocity=127, time=64),
    Message('note_on', channel=4, note=31, velocity=127, time=32),
    Message('note_off', channel=4, note=31, velocity=127, time=64),
    Message('note_on', channel=4, note=31, velocity=127, time=32),
    Message('note_off', channel=4, note=31, velocity=127, time=64),
    Message('note_on', channel=4, note=31, velocity=127, time=32),
    Message('note_off', channel=4, note=31, velocity=127, time=64),
    Message('note_on', channel=4, note=31, velocity=127, time=32),
    Message('note_off', channel=4, note=31, velocity=127, time=64),
    Message('note_on', channel=4, note=31, velocity=127, time=32),
    Message('note_off', channel=4, note=31, velocity=127, time=64),
    Message('note_on', channel=4, note=31, velocity=127, time=32),
    Message('note_off', channel=4, note=31, velocity=127, time=64),
    Message('note_on', channel=4, note=31, velocity=127, time=32),
    Message('note_off', channel=4, note=31, velocity=127, time=64),
    Message('note_on', channel=4, note=31, velocity=127, time=32),
    Message('note_off', channel=4, note=31, velocity=127, time=64),
    Message('note_on', channel=4, note=28, velocity=127, time=32),
    Message('note_off', channel=4, note=28, velocity=127, time=192),
    Message('note_on', channel=4, note=28, velocity=127, time=0),
    Message('note_off', channel=4, note=28, velocity=127, time=64),
    Message('note_on', channel=4, note=28, velocity=127, time=32),
    Message('note_off', channel=4, note=28, velocity=127, time=64),
    Message('note_on', channel=4, note=28, velocity=127, time=32),
    Message('note_off', channel=4, note=28, velocity=127, time=64),
    Message('note_on', channel=4, note=28, velocity=127, time=32),
    Message('note_off', channel=4, note=28, velocity=127, time=64),
    Message('note_on', channel=4, note=28, velocity=127, time=32),
    Message('note_off', channel=4, note=28, velocity=127, time=64),
    Message('note_on', channel=4, note=28, velocity=127, time=32),
    Message('note_off', channel=4, note=28, velocity=127, time=64),
    Message('note_on', channel=4, note=28, velocity=127, time=32),
    Message('note_off', channel=4, note=28, velocity=127, time=64),
    Message('note_on', channel=4, note=28, velocity=127, time=32),
    Message('note_off', channel=4, note=28, velocity=127, time=64),
    Message('note_on', channel=4, note=28, velocity=127, time=32),
    Message('note_off', channel=4, note=28, velocity=127, time=64),
    Message('note_on', channel=4, note=28, velocity=127, time=32),
    Message('note_off', channel=4, note=28, velocity=127, time=64),
    Message('note_on', channel=4, note=28, velocity=127, time=32),
    Message('note_off', channel=4, note=28, velocity=127, time=64),
    Message('note_on', channel=4, note=28, velocity=127, time=32),
    Message('note_off', channel=4, note=28, velocity=127, time=64),
    Message('note_on', channel=4, note=28, velocity=127, time=32),
    Message('note_off', channel=4, note=28, velocity=127, time=64),
    Message('note_on', channel=4, note=28, velocity=127, time=32),
    Message('note_off', channel=4, note=28, velocity=127, time=64),
    Message('note_on', channel=4, note=30, velocity=127, time=32),
    Message('note_off', channel=4, note=30, velocity=127, time=192),
    Message('note_on', channel=4, note=30, velocity=127, time=0),
    Message('note_off', channel=4, note=30, velocity=127, time=64),
    Message('note_on', channel=4, note=30, velocity=127, time=32),
    Message('note_off', channel=4, note=30, velocity=127, time=64),
    Message('note_on', channel=4, note=30, velocity=127, time=32),
    Message('note_off', channel=4, note=30, velocity=127, time=64),
    Message('note_on', channel=4, note=30, velocity=127, time=32),
    Message('note_off', channel=4, note=30, velocity=127, time=64),
    Message('note_on', channel=4, note=30, velocity=127, time=32),
    Message('note_off', channel=4, note=30, velocity=127, time=64),
    Message('note_on', channel=4, note=30, velocity=127, time=32),
    Message('note_off', channel=4, note=30, velocity=127, time=64),
    Message('note_on', channel=4, note=33, velocity=127, time=32),
    Message('note_off', channel=4, note=33, velocity=127, time=192),
    Message('note_on', channel=4, note=33, velocity=127, time=0),
    Message('note_off', channel=4, note=33, velocity=127, time=64),
    Message('note_on', channel=4, note=33, velocity=127, time=32),
    Message('note_off', channel=4, note=33, velocity=127, time=64),
    Message('note_on', channel=4, note=33, velocity=127, time=32),
    Message('note_off', channel=4, note=33, velocity=127, time=64),
    Message('note_on', channel=4, note=33, velocity=127, time=32),
    Message('note_off', channel=4, note=33, velocity=127, time=64),
    Message('note_on', channel=4, note=34, velocity=127, time=32),
    Message('note_off', channel=4, note=34, velocity=127, time=64),
    Message('note_on', channel=4, note=35, velocity=127, time=128),
    Message('note_off', channel=4, note=35, velocity=127, time=192),
    Message('note_on', channel=4, note=35, velocity=127, time=0),
    Message('note_off', channel=4, note=35, velocity=127, time=64),
    Message('note_on', channel=4, note=35, velocity=127, time=32),
    Message('note_off', channel=4, note=35, velocity=127, time=64),
    Message('note_on', channel=4, note=35, velocity=127, time=32),
    Message('note_off', channel=4, note=35, velocity=127, time=64),
    Message('note_on', channel=4, note=35, velocity=127, time=32),
    Message('note_off', channel=4, note=35, velocity=127, time=64),
    Message('note_on', channel=4, note=35, velocity=127, time=32),
    Message('note_off', channel=4, note=35, velocity=127, time=64),
    Message('note_on', channel=4, note=35, velocity=127, time=32),
    Message('note_off', channel=4, note=35, velocity=127, time=64),
    Message('note_on', channel=4, note=35, velocity=127, time=32),
    Message('note_off', channel=4, note=35, velocity=127, time=64),
    Message('note_on', channel=4, note=35, velocity=127, time=32),
    Message('note_off', channel=4, note=35, velocity=127, time=64),
    Message('note_on', channel=4, note=35, velocity=127, time=32),
    Message('note_off', channel=4, note=35, velocity=127, time=64),
    Message('note_on', channel=4, note=35, velocity=127, time=32),
    Message('note_off', channel=4, note=35, velocity=127, time=64),
    Message('note_on', channel=4, note=35, velocity=127, time=32),
    Message('note_off', channel=4, note=35, velocity=127, time=64),
    Message('note_on', channel=4, note=35, velocity=127, time=32),
    Message('note_off', channel=4, note=35, velocity=127, time=64),
    Message('note_on', channel=4, note=35, velocity=127, time=32),
    Message('note_off', channel=4, note=35, velocity=127, time=64),
    Message('note_on', channel=4, note=35, velocity=127, time=32),
    Message('note_off', channel=4, note=35, velocity=127, time=64),
    Message('note_on', channel=4, note=31, velocity=127, time=32),
    Message('note_off', channel=4, note=31, velocity=127, time=192),
    Message('note_on', channel=4, note=31, velocity=127, time=0),
    Message('note_off', channel=4, note=31, velocity=127, time=64),
    Message('note_on', channel=4, note=31, velocity=127, time=32),
    Message('note_off', channel=4, note=31, velocity=127, time=64),
    Message('note_on', channel=4, note=31, velocity=127, time=32),
    Message('note_off', channel=4, note=31, velocity=127, time=64),
    Message('note_on', channel=4, note=31, velocity=127, time=32),
    Message('note_off', channel=4, note=31, velocity=127, time=64),
    Message('note_on', channel=4, note=31, velocity=127, time=32),
    Message('note_off', channel=4, note=31, velocity=127, time=64),
    Message('note_on', channel=4, note=31, velocity=127, time=32),
    Message('note_off', channel=4, note=31, velocity=127, time=64),
    Message('note_on', channel=4, note=31, velocity=127, time=32),
    Message('note_off', channel=4, note=31, velocity=127, time=64),
    Message('note_on', channel=4, note=31, velocity=127, time=32),
    Message('note_off', channel=4, note=31, velocity=127, time=64),
    Message('note_on', channel=4, note=31, velocity=127, time=32),
    Message('note_off', channel=4, note=31, velocity=127, time=64),
    Message('note_on', channel=4, note=31, velocity=127, time=32),
    Message('note_off', channel=4, note=31, velocity=127, time=64),
    Message('note_on', channel=4, note=31, velocity=127, time=32),
    Message('note_off', channel=4, note=31, velocity=127, time=64),
    Message('note_on', channel=4, note=31, velocity=127, time=32),
    Message('note_off', channel=4, note=31, velocity=127, time=64),
    Message('note_on', channel=4, note=31, velocity=127, time=32),
    Message('note_off', channel=4, note=31, velocity=127, time=64),
    Message('note_on', channel=4, note=31, velocity=127, time=32),
    Message('note_off', channel=4, note=31, velocity=127, time=64),
    Message('note_on', channel=4, note=28, velocity=127, time=32),
    Message('note_off', channel=4, note=28, velocity=127, time=192),
    Message('note_on', channel=4, note=28, velocity=127, time=0),
    Message('note_off', channel=4, note=28, velocity=127, time=64),
    Message('note_on', channel=4, note=28, velocity=127, time=32),
    Message('note_off', channel=4, note=28, velocity=127, time=64),
    Message('note_on', channel=4, note=28, velocity=127, time=32),
    Message('note_off', channel=4, note=28, velocity=127, time=64),
    Message('note_on', channel=4, note=28, velocity=127, time=32),
    Message('note_off', channel=4, note=28, velocity=127, time=64),
    Message('note_on', channel=4, note=28, velocity=127, time=32),
    Message('note_off', channel=4, note=28, velocity=127, time=64),
    Message('note_on', channel=4, note=28, velocity=127, time=32),
    Message('note_off', channel=4, note=28, velocity=127, time=64),
    Message('note_on', channel=4, note=28, velocity=127, time=32),
    Message('note_off', channel=4, note=28, velocity=127, time=64),
    Message('note_on', channel=4, note=28, velocity=127, time=32),
    Message('note_off', channel=4, note=28, velocity=127, time=64),
    Message('note_on', channel=4, note=28, velocity=127, time=32),
    Message('note_off', channel=4, note=28, velocity=127, time=64),
    Message('note_on', channel=4, note=28, velocity=127, time=32),
    Message('note_off', channel=4, note=28, velocity=127, time=64),
    Message('note_on', channel=4, note=28, velocity=127, time=32),
    Message('note_off', channel=4, note=28, velocity=127, time=64),
    Message('note_on', channel=4, note=28, velocity=127, time=32),
    Message('note_off', channel=4, note=28, velocity=127, time=64),
    Message('note_on', channel=4, note=28, velocity=127, time=32),
    Message('note_off', channel=4, note=28, velocity=127, time=64),
    Message('note_on', channel=4, note=28, velocity=127, time=32),
    Message('note_off', channel=4, note=28, velocity=127, time=64),
    Message('note_on', channel=4, note=30, velocity=127, time=32),
    Message('note_off', channel=4, note=30, velocity=127, time=192),
    Message('note_on', channel=4, note=30, velocity=127, time=0),
    Message('note_off', channel=4, note=30, velocity=127, time=64),
    Message('note_on', channel=4, note=30, velocity=127, time=32),
    Message('note_off', channel=4, note=30, velocity=127, time=64),
    Message('note_on', channel=4, note=30, velocity=127, time=32),
    Message('note_off', channel=4, note=30, velocity=127, time=64),
    Message('note_on', channel=4, note=30, velocity=127, time=32),
    Message('note_off', channel=4, note=30, velocity=127, time=64),
    Message('note_on', channel=4, note=30, velocity=127, time=32),
    Message('note_off', channel=4, note=30, velocity=127, time=64),
    Message('note_on', channel=4, note=30, velocity=127, time=32),
    Message('note_off', channel=4, note=30, velocity=127, time=64),
    Message('note_on', channel=4, note=33, velocity=127, time=32),
    Message('note_off', channel=4, note=33, velocity=127, time=192),
    Message('note_on', channel=4, note=33, velocity=127, time=0),
    Message('note_off', channel=4, note=33, velocity=127, time=64),
    Message('note_on', channel=4, note=33, velocity=127, time=32),
    Message('note_off', channel=4, note=33, velocity=127, time=64),
    Message('note_on', channel=4, note=33, velocity=127, time=32),
    Message('note_off', channel=4, note=33, velocity=127, time=64),
    Message('note_on', channel=4, note=33, velocity=127, time=32),
    Message('note_off', channel=4, note=33, velocity=127, time=64),
    Message('note_on', channel=4, note=34, velocity=127, time=32),
    Message('note_off', channel=4, note=34, velocity=127, time=64),
    Message('note_on', channel=4, note=35, velocity=127, time=128),
    Message('note_on', channel=4, note=35, velocity=127, time=192),
    Message('note_off', channel=4, note=35, velocity=127, time=64),
    Message('note_off', channel=4, note=35, velocity=127, time=0),
    Message('note_on', channel=4, note=35, velocity=127, time=32),
    Message('note_off', channel=4, note=35, velocity=127, time=64),
    Message('note_on', channel=4, note=35, velocity=127, time=32),
    Message('note_off', channel=4, note=35, velocity=127, time=64),
    Message('note_on', channel=4, note=35, velocity=127, time=32),
    Message('note_off', channel=4, note=35, velocity=127, time=64),
    Message('note_on', channel=4, note=35, velocity=127, time=32),
    Message('note_off', channel=4, note=35, velocity=127, time=64),
    Message('note_on', channel=4, note=35, velocity=127, time=32),
    Message('note_off', channel=4, note=35, velocity=127, time=64),
    Message('note_on', channel=4, note=35, velocity=127, time=32),
    Message('note_off', channel=4, note=35, velocity=127, time=64),
    Message('note_on', channel=4, note=35, velocity=127, time=32),
    Message('note_off', channel=4, note=35, velocity=127, time=64),
    Message('note_on', channel=4, note=35, velocity=127, time=32),
    Message('note_off', channel=4, note=35, velocity=127, time=64),
    Message('note_on', channel=4, note=35, velocity=127, time=32),
    Message('note_off', channel=4, note=35, velocity=127, time=64),
    Message('note_on', channel=4, note=35, velocity=127, time=32),
    Message('note_off', channel=4, note=35, velocity=127, time=64),
    Message('note_on', channel=4, note=35, velocity=127, time=32),
    Message('note_off', channel=4, note=35, velocity=127, time=64),
    Message('note_on', channel=4, note=35, velocity=127, time=32),
    Message('note_off', channel=4, note=35, velocity=127, time=64),
    Message('note_on', channel=4, note=31, velocity=127, time=128),
    Message('note_off', channel=4, note=31, velocity=127, time=192),
    Message('note_on', channel=4, note=31, velocity=127, time=0),
    Message('note_off', channel=4, note=31, velocity=127, time=64),
    Message('note_on', channel=4, note=31, velocity=127, time=32),
    Message('note_off', channel=4, note=31, velocity=127, time=64),
    Message('note_on', channel=4, note=31, velocity=127, time=32),
    Message('note_off', channel=4, note=31, velocity=127, time=64),
    Message('note_on', channel=4, note=31, velocity=127, time=32),
    Message('note_off', channel=4, note=31, velocity=127, time=64),
    Message('note_on', channel=4, note=31, velocity=127, time=32),
    Message('note_off', channel=4, note=31, velocity=127, time=64),
    Message('note_on', channel=4, note=31, velocity=127, time=32),
    Message('note_off', channel=4, note=31, velocity=127, time=64),
    Message('note_on', channel=4, note=31, velocity=127, time=32),
    Message('note_off', channel=4, note=31, velocity=127, time=64),
    Message('note_on', channel=4, note=31, velocity=127, time=32),
    Message('note_off', channel=4, note=31, velocity=127, time=64),
    Message('note_on', channel=4, note=31, velocity=127, time=32),
    Message('note_off', channel=4, note=31, velocity=127, time=64),
    Message('note_on', channel=4, note=31, velocity=127, time=32),
    Message('note_off', channel=4, note=31, velocity=127, time=64),
    Message('note_on', channel=4, note=31, velocity=127, time=32),
    Message('note_off', channel=4, note=31, velocity=127, time=64),
    Message('note_on', channel=4, note=31, velocity=127, time=32),
    Message('note_off', channel=4, note=31, velocity=127, time=64),
    Message('note_on', channel=4, note=31, velocity=127, time=32),
    Message('note_off', channel=4, note=31, velocity=127, time=64),
    Message('note_on', channel=4, note=28, velocity=127, time=128),
    Message('note_on', channel=4, note=28, velocity=127, time=192),
    Message('note_off', channel=4, note=28, velocity=127, time=64),
    Message('note_off', channel=4, note=28, velocity=127, time=0),
    Message('note_on', channel=4, note=28, velocity=127, time=32),
    Message('note_off', channel=4, note=28, velocity=127, time=64),
    Message('note_on', channel=4, note=28, velocity=127, time=32),
    Message('note_off', channel=4, note=28, velocity=127, time=64),
    Message('note_on', channel=4, note=28, velocity=127, time=32),
    Message('note_off', channel=4, note=28, velocity=127, time=64),
    Message('note_on', channel=4, note=28, velocity=127, time=32),
    Message('note_off', channel=4, note=28, velocity=127, time=64),
    Message('note_on', channel=4, note=28, velocity=127, time=32),
    Message('note_off', channel=4, note=28, velocity=127, time=64),
    Message('note_on', channel=4, note=28, velocity=127, time=32),
    Message('note_off', channel=4, note=28, velocity=127, time=64),
    Message('note_on', channel=4, note=28, velocity=127, time=32),
    Message('note_off', channel=4, note=28, velocity=127, time=64),
    Message('note_on', channel=4, note=28, velocity=127, time=32),
    Message('note_off', channel=4, note=28, velocity=127, time=64),
    Message('note_on', channel=4, note=28, velocity=127, time=32),
    Message('note_off', channel=4, note=28, velocity=127, time=64),
    Message('note_on', channel=4, note=28, velocity=127, time=32),
    Message('note_off', channel=4, note=28, velocity=127, time=64),
    Message('note_on', channel=4, note=28, velocity=127, time=32),
    Message('note_off', channel=4, note=28, velocity=127, time=64),
    Message('note_on', channel=4, note=28, velocity=127, time=32),
    Message('note_off', channel=4, note=28, velocity=127, time=64),
    Message('note_on', channel=4, note=30, velocity=127, time=128),
    Message('note_on', channel=4, note=30, velocity=127, time=192),
    Message('note_off', channel=4, note=30, velocity=127, time=64),
    Message('note_off', channel=4, note=30, velocity=127, time=0),
    Message('note_on', channel=4, note=30, velocity=127, time=32),
    Message('note_off', channel=4, note=30, velocity=127, time=64),
    Message('note_on', channel=4, note=30, velocity=127, time=32),
    Message('note_off', channel=4, note=30, velocity=127, time=64),
    Message('note_on', channel=4, note=30, velocity=127, time=32),
    Message('note_off', channel=4, note=30, velocity=127, time=64),
    Message('note_on', channel=4, note=30, velocity=127, time=32),
    Message('note_off', channel=4, note=30, velocity=127, time=64),
    Message('note_on', channel=4, note=30, velocity=127, time=32),
    Message('note_off', channel=4, note=30, velocity=127, time=64),
    Message('note_on', channel=4, note=33, velocity=127, time=32),
    Message('note_off', channel=4, note=33, velocity=127, time=192),
    Message('note_on', channel=4, note=33, velocity=127, time=0),
    Message('note_off', channel=4, note=33, velocity=127, time=64),
    Message('note_on', channel=4, note=33, velocity=127, time=32),
    Message('note_off', channel=4, note=33, velocity=127, time=64),
    Message('note_on', channel=4, note=33, velocity=127, time=32),
    Message('note_off', channel=4, note=33, velocity=127, time=64),
    Message('note_on', channel=4, note=33, velocity=127, time=32),
    Message('note_off', channel=4, note=33, velocity=127, time=64),
    Message('note_on', channel=4, note=34, velocity=127, time=32),
    Message('note_off', channel=4, note=34, velocity=127, time=64),
    Message('note_on', channel=4, note=35, velocity=127, time=128),
    Message('note_off', channel=4, note=35, velocity=127, time=192),
    Message('note_on', channel=4, note=35, velocity=127, time=0),
    Message('note_off', channel=4, note=35, velocity=127, time=64),
    Message('note_on', channel=4, note=35, velocity=127, time=32),
    Message('note_off', channel=4, note=35, velocity=127, time=64),
    Message('note_on', channel=4, note=35, velocity=127, time=32),
    Message('note_off', channel=4, note=35, velocity=127, time=64),
    Message('note_on', channel=4, note=35, velocity=127, time=32),
    Message('note_off', channel=4, note=35, velocity=127, time=64),
    Message('note_on', channel=4, note=35, velocity=127, time=32),
    Message('note_off', channel=4, note=35, velocity=127, time=64),
    Message('note_on', channel=4, note=35, velocity=127, time=32),
    Message('note_off', channel=4, note=35, velocity=127, time=64),
    Message('note_on', channel=4, note=35, velocity=127, time=32),
    Message('note_off', channel=4, note=35, velocity=127, time=64),
    Message('note_on', channel=4, note=35, velocity=127, time=32),
    Message('note_off', channel=4, note=35, velocity=127, time=64),
    Message('note_on', channel=4, note=35, velocity=127, time=32),
    Message('note_off', channel=4, note=35, velocity=127, time=64),
    Message('note_on', channel=4, note=35, velocity=127, time=32),
    Message('note_off', channel=4, note=35, velocity=127, time=64),
    Message('note_on', channel=4, note=35, velocity=127, time=32),
    Message('note_off', channel=4, note=35, velocity=127, time=64),
    Message('note_on', channel=4, note=35, velocity=127, time=32),
    Message('note_off', channel=4, note=35, velocity=127, time=64),
    Message('note_on', channel=4, note=35, velocity=127, time=32),
    Message('note_off', channel=4, note=35, velocity=127, time=64),
    Message('note_on', channel=4, note=31, velocity=127, time=128),
    Message('note_off', channel=4, note=31, velocity=127, time=192),
    Message('note_on', channel=4, note=31, velocity=127, time=0),
    Message('note_off', channel=4, note=31, velocity=127, time=64),
    Message('note_on', channel=4, note=31, velocity=127, time=32),
    Message('note_off', channel=4, note=31, velocity=127, time=64),
    Message('note_on', channel=4, note=31, velocity=127, time=32),
    Message('note_off', channel=4, note=31, velocity=127, time=64),
    Message('note_on', channel=4, note=31, velocity=127, time=32),
    Message('note_off', channel=4, note=31, velocity=127, time=64),
    Message('note_on', channel=4, note=31, velocity=127, time=32),
    Message('note_off', channel=4, note=31, velocity=127, time=64),
    Message('note_on', channel=4, note=31, velocity=127, time=32),
    Message('note_off', channel=4, note=31, velocity=127, time=64),
    Message('note_on', channel=4, note=31, velocity=127, time=32),
    Message('note_off', channel=4, note=31, velocity=127, time=64),
    Message('note_on', channel=4, note=31, velocity=127, time=32),
    Message('note_off', channel=4, note=31, velocity=127, time=64),
    Message('note_on', channel=4, note=31, velocity=127, time=32),
    Message('note_off', channel=4, note=31, velocity=127, time=64),
    Message('note_on', channel=4, note=31, velocity=127, time=32),
    Message('note_off', channel=4, note=31, velocity=127, time=64),
    Message('note_on', channel=4, note=31, velocity=127, time=32),
    Message('note_off', channel=4, note=31, velocity=127, time=64),
    Message('note_on', channel=4, note=31, velocity=127, time=32),
    Message('note_off', channel=4, note=31, velocity=127, time=64),
    Message('note_on', channel=4, note=31, velocity=127, time=32),
    Message('note_off', channel=4, note=31, velocity=127, time=64),
    Message('note_on', channel=4, note=28, velocity=127, time=128),
    Message('note_on', channel=4, note=28, velocity=127, time=192),
    Message('note_off', channel=4, note=28, velocity=127, time=64),
    Message('note_off', channel=4, note=28, velocity=127, time=0),
    Message('note_on', channel=4, note=28, velocity=127, time=32),
    Message('note_off', channel=4, note=28, velocity=127, time=64),
    Message('note_on', channel=4, note=28, velocity=127, time=32),
    Message('note_off', channel=4, note=28, velocity=127, time=64),
    Message('note_on', channel=4, note=28, velocity=127, time=32),
    Message('note_off', channel=4, note=28, velocity=127, time=64),
    Message('note_on', channel=4, note=28, velocity=127, time=32),
    Message('note_off', channel=4, note=28, velocity=127, time=64),
    Message('note_on', channel=4, note=28, velocity=127, time=32),
    Message('note_off', channel=4, note=28, velocity=127, time=64),
    Message('note_on', channel=4, note=28, velocity=127, time=32),
    Message('note_off', channel=4, note=28, velocity=127, time=64),
    Message('note_on', channel=4, note=28, velocity=127, time=32),
    Message('note_off', channel=4, note=28, velocity=127, time=64),
    Message('note_on', channel=4, note=28, velocity=127, time=32),
    Message('note_off', channel=4, note=28, velocity=127, time=64),
    Message('note_on', channel=4, note=28, velocity=127, time=32),
    Message('note_off', channel=4, note=28, velocity=127, time=64),
    Message('note_on', channel=4, note=28, velocity=127, time=32),
    Message('note_off', channel=4, note=28, velocity=127, time=64),
    Message('note_on', channel=4, note=28, velocity=127, time=32),
    Message('note_off', channel=4, note=28, velocity=127, time=64),
    Message('note_on', channel=4, note=28, velocity=127, time=32),
    Message('note_off', channel=4, note=28, velocity=127, time=64),
    Message('note_on', channel=4, note=30, velocity=127, time=128),
    Message('note_on', channel=4, note=30, velocity=127, time=192),
    Message('note_off', channel=4, note=30, velocity=127, time=64),
    Message('note_off', channel=4, note=30, velocity=127, time=0),
    Message('note_on', channel=4, note=30, velocity=127, time=32),
    Message('note_off', channel=4, note=30, velocity=127, time=64),
    Message('note_on', channel=4, note=30, velocity=127, time=32),
    Message('note_off', channel=4, note=30, velocity=127, time=64),
    Message('note_on', channel=4, note=30, velocity=127, time=32),
    Message('note_off', channel=4, note=30, velocity=127, time=64),
    Message('note_on', channel=4, note=30, velocity=127, time=32),
    Message('note_off', channel=4, note=30, velocity=127, time=64),
    Message('note_on', channel=4, note=30, velocity=127, time=32),
    Message('note_off', channel=4, note=30, velocity=127, time=64),
    Message('note_on', channel=4, note=33, velocity=127, time=32),
    Message('note_off', channel=4, note=33, velocity=127, time=192),
    Message('note_on', channel=4, note=33, velocity=127, time=0),
    Message('note_off', channel=4, note=33, velocity=127, time=64),
    Message('note_on', channel=4, note=33, velocity=127, time=32),
    Message('note_off', channel=4, note=33, velocity=127, time=64),
    Message('note_on', channel=4, note=33, velocity=127, time=32),
    Message('note_off', channel=4, note=33, velocity=127, time=64),
    Message('note_on', channel=4, note=33, velocity=127, time=32),
    Message('note_off', channel=4, note=33, velocity=127, time=64),
    Message('note_on', channel=4, note=34, velocity=127, time=32),
    Message('note_off', channel=4, note=34, velocity=127, time=64),
    Message('note_on', channel=4, note=35, velocity=127, time=128),
    Message('note_on', channel=4, note=35, velocity=127, time=96),
    Message('note_off', channel=4, note=35, velocity=127, time=64),
    Message('note_off', channel=4, note=35, velocity=127, time=32),
    Message('note_on', channel=4, note=35, velocity=127, time=0),
    Message('note_off', channel=4, note=35, velocity=127, time=64),
    Message('note_on', channel=4, note=35, velocity=127, time=32),
    Message('note_off', channel=4, note=35, velocity=127, time=64),
    Message('note_on', channel=4, note=35, velocity=127, time=32),
    Message('note_off', channel=4, note=35, velocity=127, time=64),
    Message('note_on', channel=4, note=35, velocity=127, time=32),
    Message('note_off', channel=4, note=35, velocity=127, time=64),
    Message('note_on', channel=4, note=35, velocity=127, time=32),
    Message('note_off', channel=4, note=35, velocity=127, time=64),
    Message('note_on', channel=4, note=35, velocity=127, time=32),
    Message('note_off', channel=4, note=35, velocity=127, time=64),
    Message('note_on', channel=4, note=35, velocity=127, time=32),
    Message('note_off', channel=4, note=35, velocity=127, time=64),
    Message('note_on', channel=4, note=35, velocity=127, time=32),
    Message('note_off', channel=4, note=35, velocity=127, time=64),
    Message('note_on', channel=4, note=35, velocity=127, time=32),
    Message('note_off', channel=4, note=35, velocity=127, time=64),
    Message('note_on', channel=4, note=35, velocity=127, time=32),
    Message('note_off', channel=4, note=35, velocity=127, time=64),
    Message('note_on', channel=4, note=35, velocity=127, time=32),
    Message('note_off', channel=4, note=35, velocity=127, time=64),
    Message('note_on', channel=4, note=35, velocity=127, time=32),
    Message('note_off', channel=4, note=35, velocity=127, time=64),
    Message('note_on', channel=4, note=35, velocity=127, time=32),
    Message('note_off', channel=4, note=35, velocity=127, time=64),
    Message('note_on', channel=4, note=31, velocity=127, time=128),
    Message('note_off', channel=4, note=31, velocity=127, time=192),
    Message('note_on', channel=4, note=31, velocity=127, time=0),
    Message('note_off', channel=4, note=31, velocity=127, time=64),
    Message('note_on', channel=4, note=31, velocity=127, time=32),
    Message('note_off', channel=4, note=31, velocity=127, time=64),
    Message('note_on', channel=4, note=31, velocity=127, time=32),
    Message('note_off', channel=4, note=31, velocity=127, time=64),
    Message('note_on', channel=4, note=31, velocity=127, time=32),
    Message('note_off', channel=4, note=31, velocity=127, time=64),
    Message('note_on', channel=4, note=31, velocity=127, time=32),
    Message('note_off', channel=4, note=31, velocity=127, time=64),
    Message('note_on', channel=4, note=31, velocity=127, time=32),
    Message('note_off', channel=4, note=31, velocity=127, time=64),
    Message('note_on', channel=4, note=31, velocity=127, time=32),
    Message('note_off', channel=4, note=31, velocity=127, time=64),
    Message('note_on', channel=4, note=31, velocity=127, time=32),
    Message('note_off', channel=4, note=31, velocity=127, time=64),
    Message('note_on', channel=4, note=31, velocity=127, time=32),
    Message('note_off', channel=4, note=31, velocity=127, time=64),
    Message('note_on', channel=4, note=31, velocity=127, time=32),
    Message('note_off', channel=4, note=31, velocity=127, time=64),
    Message('note_on', channel=4, note=31, velocity=127, time=32),
    Message('note_off', channel=4, note=31, velocity=127, time=64),
    Message('note_on', channel=4, note=31, velocity=127, time=32),
    Message('note_off', channel=4, note=31, velocity=127, time=64),
    Message('note_on', channel=4, note=31, velocity=127, time=32),
    Message('note_off', channel=4, note=31, velocity=127, time=64),
    Message('note_on', channel=4, note=28, velocity=127, time=128),
    Message('note_on', channel=4, note=28, velocity=127, time=192),
    Message('note_off', channel=4, note=28, velocity=127, time=64),
    Message('note_off', channel=4, note=28, velocity=127, time=0),
    Message('note_on', channel=4, note=28, velocity=127, time=32),
    Message('note_off', channel=4, note=28, velocity=127, time=64),
    Message('note_on', channel=4, note=28, velocity=127, time=32),
    Message('note_off', channel=4, note=28, velocity=127, time=64),
    Message('note_on', channel=4, note=28, velocity=127, time=32),
    Message('note_off', channel=4, note=28, velocity=127, time=64),
    Message('note_on', channel=4, note=28, velocity=127, time=32),
    Message('note_off', channel=4, note=28, velocity=127, time=64),
    Message('note_on', channel=4, note=28, velocity=127, time=32),
    Message('note_off', channel=4, note=28, velocity=127, time=64),
    Message('note_on', channel=4, note=28, velocity=127, time=32),
    Message('note_off', channel=4, note=28, velocity=127, time=64),
    Message('note_on', channel=4, note=28, velocity=127, time=32),
    Message('note_off', channel=4, note=28, velocity=127, time=64),
    Message('note_on', channel=4, note=28, velocity=127, time=32),
    Message('note_off', channel=4, note=28, velocity=127, time=64),
    Message('note_on', channel=4, note=28, velocity=127, time=32),
    Message('note_off', channel=4, note=28, velocity=127, time=64),
    Message('note_on', channel=4, note=28, velocity=127, time=32),
    Message('note_off', channel=4, note=28, velocity=127, time=64),
    Message('note_on', channel=4, note=28, velocity=127, time=32),
    Message('note_off', channel=4, note=28, velocity=127, time=64),
    Message('note_on', channel=4, note=28, velocity=127, time=32),
    Message('note_off', channel=4, note=28, velocity=127, time=64),
    Message('note_on', channel=4, note=30, velocity=127, time=128),
    Message('note_on', channel=4, note=30, velocity=127, time=192),
    Message('note_off', channel=4, note=30, velocity=127, time=64),
    Message('note_off', channel=4, note=30, velocity=127, time=0),
    Message('note_on', channel=4, note=30, velocity=127, time=32),
    Message('note_off', channel=4, note=30, velocity=127, time=64),
    Message('note_on', channel=4, note=30, velocity=127, time=32),
    Message('note_off', channel=4, note=30, velocity=127, time=64),
    Message('note_on', channel=4, note=30, velocity=127, time=32),
    Message('note_off', channel=4, note=30, velocity=127, time=64),
    Message('note_on', channel=4, note=30, velocity=127, time=32),
    Message('note_off', channel=4, note=30, velocity=127, time=64),
    Message('note_on', channel=4, note=30, velocity=127, time=32),
    Message('note_off', channel=4, note=30, velocity=127, time=64),
    Message('note_on', channel=4, note=33, velocity=127, time=32),
    Message('note_off', channel=4, note=33, velocity=127, time=192),
    Message('note_on', channel=4, note=33, velocity=127, time=0),
    Message('note_off', channel=4, note=33, velocity=127, time=64),
    Message('note_on', channel=4, note=33, velocity=127, time=32),
    Message('note_off', channel=4, note=33, velocity=127, time=64),
    Message('note_on', channel=4, note=33, velocity=127, time=32),
    Message('note_off', channel=4, note=33, velocity=127, time=64),
    Message('note_on', channel=4, note=33, velocity=127, time=32),
    Message('note_off', channel=4, note=33, velocity=127, time=64),
    Message('note_on', channel=4, note=34, velocity=127, time=32),
    Message('note_off', channel=4, note=34, velocity=127, time=64),
    Message('note_on', channel=4, note=35, velocity=127, time=128),
    Message('note_off', channel=4, note=35, velocity=127, time=192),
    Message('note_on', channel=4, note=35, velocity=127, time=0),
    Message('note_off', channel=4, note=35, velocity=127, time=64),
    Message('note_on', channel=4, note=35, velocity=127, time=32),
    Message('note_off', channel=4, note=35, velocity=127, time=64),
    Message('note_on', channel=4, note=35, velocity=127, time=32),
    Message('note_off', channel=4, note=35, velocity=127, time=64),
    Message('note_on', channel=4, note=35, velocity=127, time=32),
    Message('note_off', channel=4, note=35, velocity=127, time=64),
    Message('note_on', channel=4, note=35, velocity=127, time=32),
    Message('note_off', channel=4, note=35, velocity=127, time=64),
    Message('note_on', channel=4, note=35, velocity=127, time=32),
    Message('note_off', channel=4, note=35, velocity=127, time=64),
    Message('note_on', channel=4, note=35, velocity=127, time=32),
    Message('note_off', channel=4, note=35, velocity=127, time=64),
    Message('note_on', channel=4, note=35, velocity=127, time=32),
    Message('note_off', channel=4, note=35, velocity=127, time=64),
    Message('note_on', channel=4, note=35, velocity=127, time=32),
    Message('note_off', channel=4, note=35, velocity=127, time=64),
    Message('note_on', channel=4, note=35, velocity=127, time=32),
    Message('note_off', channel=4, note=35, velocity=127, time=64),
    Message('note_on', channel=4, note=35, velocity=127, time=32),
    Message('note_off', channel=4, note=35, velocity=127, time=64),
    Message('note_on', channel=4, note=35, velocity=127, time=32),
    Message('note_off', channel=4, note=35, velocity=127, time=64),
    Message('note_on', channel=4, note=35, velocity=127, time=32),
    Message('note_off', channel=4, note=35, velocity=127, time=64),
    Message('note_on', channel=4, note=31, velocity=127, time=128),
    Message('note_off', channel=4, note=31, velocity=127, time=192),
    Message('note_on', channel=4, note=31, velocity=127, time=0),
    Message('note_off', channel=4, note=31, velocity=127, time=64),
    Message('note_on', channel=4, note=31, velocity=127, time=32),
    Message('note_off', channel=4, note=31, velocity=127, time=64),
    Message('note_on', channel=4, note=31, velocity=127, time=32),
    Message('note_off', channel=4, note=31, velocity=127, time=64),
    Message('note_on', channel=4, note=31, velocity=127, time=32),
    Message('note_off', channel=4, note=31, velocity=127, time=64),
    Message('note_on', channel=4, note=31, velocity=127, time=32),
    Message('note_off', channel=4, note=31, velocity=127, time=64),
    Message('note_on', channel=4, note=31, velocity=127, time=32),
    Message('note_off', channel=4, note=31, velocity=127, time=64),
    Message('note_on', channel=4, note=31, velocity=127, time=32),
    Message('note_off', channel=4, note=31, velocity=127, time=64),
    Message('note_on', channel=4, note=31, velocity=127, time=32),
    Message('note_off', channel=4, note=31, velocity=127, time=64),
    Message('note_on', channel=4, note=31, velocity=127, time=32),
    Message('note_off', channel=4, note=31, velocity=127, time=64),
    Message('note_on', channel=4, note=31, velocity=127, time=32),
    Message('note_off', channel=4, note=31, velocity=127, time=64),
    Message('note_on', channel=4, note=31, velocity=127, time=32),
    Message('note_off', channel=4, note=31, velocity=127, time=64),
    Message('note_on', channel=4, note=31, velocity=127, time=32),
    Message('note_off', channel=4, note=31, velocity=127, time=64),
    Message('note_on', channel=4, note=31, velocity=127, time=32),
    Message('note_off', channel=4, note=31, velocity=127, time=64),
    Message('note_on', channel=4, note=28, velocity=127, time=128),
    Message('note_on', channel=4, note=28, velocity=127, time=192),
    Message('note_off', channel=4, note=28, velocity=127, time=64),
    Message('note_off', channel=4, note=28, velocity=127, time=0),
    Message('note_on', channel=4, note=28, velocity=127, time=32),
    Message('note_off', channel=4, note=28, velocity=127, time=64),
    Message('note_on', channel=4, note=28, velocity=127, time=32),
    Message('note_off', channel=4, note=28, velocity=127, time=64),
    Message('note_on', channel=4, note=28, velocity=127, time=32),
    Message('note_off', channel=4, note=28, velocity=127, time=64),
    Message('note_on', channel=4, note=28, velocity=127, time=32),
    Message('note_off', channel=4, note=28, velocity=127, time=64),
    Message('note_on', channel=4, note=28, velocity=127, time=32),
    Message('note_off', channel=4, note=28, velocity=127, time=64),
    Message('note_on', channel=4, note=28, velocity=127, time=32),
    Message('note_off', channel=4, note=28, velocity=127, time=64),
    Message('note_on', channel=4, note=28, velocity=127, time=32),
    Message('note_off', channel=4, note=28, velocity=127, time=64),
    Message('note_on', channel=4, note=28, velocity=127, time=32),
    Message('note_off', channel=4, note=28, velocity=127, time=64),
    Message('note_on', channel=4, note=28, velocity=127, time=32),
    Message('note_off', channel=4, note=28, velocity=127, time=64),
    Message('note_on', channel=4, note=28, velocity=127, time=32),
    Message('note_off', channel=4, note=28, velocity=127, time=64),
    Message('note_on', channel=4, note=28, velocity=127, time=32),
    Message('note_off', channel=4, note=28, velocity=127, time=64),
    Message('note_on', channel=4, note=28, velocity=127, time=32),
    Message('note_off', channel=4, note=28, velocity=127, time=64),
    Message('note_on', channel=4, note=30, velocity=127, time=128),
    Message('note_on', channel=4, note=30, velocity=127, time=192),
    Message('note_off', channel=4, note=30, velocity=127, time=64),
    Message('note_off', channel=4, note=30, velocity=127, time=0),
    Message('note_on', channel=4, note=30, velocity=127, time=32),
    Message('note_off', channel=4, note=30, velocity=127, time=64),
    Message('note_on', channel=4, note=30, velocity=127, time=32),
    Message('note_off', channel=4, note=30, velocity=127, time=64),
    Message('note_on', channel=4, note=30, velocity=127, time=32),
    Message('note_off', channel=4, note=30, velocity=127, time=64),
    Message('note_on', channel=4, note=30, velocity=127, time=32),
    Message('note_off', channel=4, note=30, velocity=127, time=64),
    Message('note_on', channel=4, note=30, velocity=127, time=32),
    Message('note_off', channel=4, note=30, velocity=127, time=64),
    Message('note_on', channel=4, note=33, velocity=127, time=32),
    Message('note_off', channel=4, note=33, velocity=127, time=192),
    Message('note_on', channel=4, note=33, velocity=127, time=0),
    Message('note_off', channel=4, note=33, velocity=127, time=64),
    Message('note_on', channel=4, note=33, velocity=127, time=32),
    Message('note_off', channel=4, note=33, velocity=127, time=64),
    Message('note_on', channel=4, note=33, velocity=127, time=32),
    Message('note_off', channel=4, note=33, velocity=127, time=64),
    Message('note_on', channel=4, note=33, velocity=127, time=32),
    Message('note_off', channel=4, note=33, velocity=127, time=64),
    Message('note_on', channel=4, note=34, velocity=127, time=32),
    Message('note_off', channel=4, note=34, velocity=127, time=64),
    Message('note_on', channel=4, note=35, velocity=127, time=128),
    Message('note_off', channel=4, note=35, velocity=127, time=192),
    Message('note_on', channel=4, note=35, velocity=127, time=0),
    Message('note_off', channel=4, note=35, velocity=127, time=64),
    Message('note_on', channel=4, note=35, velocity=127, time=32),
    Message('note_off', channel=4, note=35, velocity=127, time=64),
    Message('note_on', channel=4, note=35, velocity=127, time=32),
    Message('note_off', channel=4, note=35, velocity=127, time=64),
    Message('note_on', channel=4, note=35, velocity=127, time=32),
    Message('note_off', channel=4, note=35, velocity=127, time=64),
    Message('note_on', channel=4, note=35, velocity=127, time=32),
    Message('note_off', channel=4, note=35, velocity=127, time=64),
    Message('note_on', channel=4, note=35, velocity=127, time=32),
    Message('note_off', channel=4, note=35, velocity=127, time=64),
    Message('note_on', channel=4, note=35, velocity=127, time=32),
    Message('note_off', channel=4, note=35, velocity=127, time=64),
    Message('note_on', channel=4, note=35, velocity=127, time=32),
    Message('note_off', channel=4, note=35, velocity=127, time=64),
    Message('note_on', channel=4, note=35, velocity=127, time=32),
    Message('note_off', channel=4, note=35, velocity=127, time=64),
    Message('note_on', channel=4, note=35, velocity=127, time=32),
    Message('note_off', channel=4, note=35, velocity=127, time=64),
    Message('note_on', channel=4, note=35, velocity=127, time=32),
    Message('note_off', channel=4, note=35, velocity=127, time=64),
    Message('note_on', channel=4, note=35, velocity=127, time=32),
    Message('note_off', channel=4, note=35, velocity=127, time=64),
    Message('note_on', channel=4, note=35, velocity=127, time=32),
    Message('note_off', channel=4, note=35, velocity=127, time=64),
    Message('note_on', channel=4, note=31, velocity=127, time=128),
    Message('note_off', channel=4, note=31, velocity=127, time=192),
    Message('note_on', channel=4, note=31, velocity=127, time=0),
    Message('note_off', channel=4, note=31, velocity=127, time=64),
    Message('note_on', channel=4, note=31, velocity=127, time=32),
    Message('note_off', channel=4, note=31, velocity=127, time=64),
    Message('note_on', channel=4, note=31, velocity=127, time=32),
    Message('note_off', channel=4, note=31, velocity=127, time=64),
    Message('note_on', channel=4, note=31, velocity=127, time=32),
    Message('note_off', channel=4, note=31, velocity=127, time=64),
    Message('note_on', channel=4, note=31, velocity=127, time=32),
    Message('note_off', channel=4, note=31, velocity=127, time=64),
    Message('note_on', channel=4, note=31, velocity=127, time=32),
    Message('note_off', channel=4, note=31, velocity=127, time=64),
    Message('note_on', channel=4, note=31, velocity=127, time=32),
    Message('note_off', channel=4, note=31, velocity=127, time=64),
    Message('note_on', channel=4, note=31, velocity=127, time=32),
    Message('note_off', channel=4, note=31, velocity=127, time=64),
    Message('note_on', channel=4, note=31, velocity=127, time=32),
    Message('note_off', channel=4, note=31, velocity=127, time=64),
    Message('note_on', channel=4, note=31, velocity=127, time=32),
    Message('note_off', channel=4, note=31, velocity=127, time=64),
    Message('note_on', channel=4, note=31, velocity=127, time=32),
    Message('note_off', channel=4, note=31, velocity=127, time=64),
    Message('note_on', channel=4, note=31, velocity=127, time=32),
    Message('note_off', channel=4, note=31, velocity=127, time=64),
    Message('note_on', channel=4, note=31, velocity=127, time=32),
    Message('note_off', channel=4, note=31, velocity=127, time=64),
    Message('note_on', channel=4, note=28, velocity=127, time=128),
    Message('note_on', channel=4, note=28, velocity=127, time=192),
    Message('note_off', channel=4, note=28, velocity=127, time=64),
    Message('note_off', channel=4, note=28, velocity=127, time=0),
    Message('note_on', channel=4, note=28, velocity=127, time=32),
    Message('note_off', channel=4, note=28, velocity=127, time=64),
    Message('note_on', channel=4, note=28, velocity=127, time=32),
    Message('note_off', channel=4, note=28, velocity=127, time=64),
    Message('note_on', channel=4, note=28, velocity=127, time=32),
    Message('note_off', channel=4, note=28, velocity=127, time=64),
    Message('note_on', channel=4, note=28, velocity=127, time=32),
    Message('note_off', channel=4, note=28, velocity=127, time=64),
    Message('note_on', channel=4, note=28, velocity=127, time=32),
    Message('note_off', channel=4, note=28, velocity=127, time=64),
    Message('note_on', channel=4, note=28, velocity=127, time=32),
    Message('note_off', channel=4, note=28, velocity=127, time=64),
    Message('note_on', channel=4, note=28, velocity=127, time=32),
    Message('note_off', channel=4, note=28, velocity=127, time=64),
    Message('note_on', channel=4, note=28, velocity=127, time=32),
    Message('note_off', channel=4, note=28, velocity=127, time=64),
    Message('note_on', channel=4, note=28, velocity=127, time=32),
    Message('note_off', channel=4, note=28, velocity=127, time=64),
    Message('note_on', channel=4, note=28, velocity=127, time=32),
    Message('note_off', channel=4, note=28, velocity=127, time=64),
    Message('note_on', channel=4, note=28, velocity=127, time=32),
    Message('note_off', channel=4, note=28, velocity=127, time=64),
    Message('note_on', channel=4, note=28, velocity=127, time=32),
    Message('note_off', channel=4, note=28, velocity=127, time=64),
    Message('note_on', channel=4, note=30, velocity=127, time=128),
    Message('note_on', channel=4, note=30, velocity=127, time=192),
    Message('note_off', channel=4, note=30, velocity=127, time=64),
    Message('note_off', channel=4, note=30, velocity=127, time=0),
    Message('note_on', channel=4, note=30, velocity=127, time=32),
    Message('note_off', channel=4, note=30, velocity=127, time=64),
    Message('note_on', channel=4, note=30, velocity=127, time=32),
    Message('note_off', channel=4, note=30, velocity=127, time=64),
    Message('note_on', channel=4, note=30, velocity=127, time=32),
    Message('note_off', channel=4, note=30, velocity=127, time=64),
    Message('note_on', channel=4, note=30, velocity=127, time=32),
    Message('note_off', channel=4, note=30, velocity=127, time=64),
    Message('note_on', channel=4, note=30, velocity=127, time=32),
    Message('note_off', channel=4, note=30, velocity=127, time=64),
    Message('note_on', channel=4, note=33, velocity=127, time=32),
    Message('note_off', channel=4, note=33, velocity=127, time=192),
    Message('note_on', channel=4, note=33, velocity=127, time=0),
    Message('note_off', channel=4, note=33, velocity=127, time=64),
    Message('note_on', channel=4, note=33, velocity=127, time=32),
    Message('note_off', channel=4, note=33, velocity=127, time=64),
    Message('note_on', channel=4, note=33, velocity=127, time=32),
    Message('note_off', channel=4, note=33, velocity=127, time=64),
    Message('note_on', channel=4, note=33, velocity=127, time=32),
    Message('note_off', channel=4, note=33, velocity=127, time=64),
    Message('note_on', channel=4, note=34, velocity=127, time=32),
    Message('note_off', channel=4, note=34, velocity=127, time=64),
    Message('note_on', channel=4, note=35, velocity=127, time=128),
    Message('note_off', channel=4, note=35, velocity=127, time=192),
    Message('note_on', channel=4, note=35, velocity=127, time=0),
    Message('note_off', channel=4, note=35, velocity=127, time=64),
    Message('note_on', channel=4, note=35, velocity=127, time=32),
    Message('note_off', channel=4, note=35, velocity=127, time=64),
    Message('note_on', channel=4, note=35, velocity=127, time=32),
    Message('note_off', channel=4, note=35, velocity=127, time=64),
    Message('note_on', channel=4, note=35, velocity=127, time=32),
    Message('note_off', channel=4, note=35, velocity=127, time=64),
    Message('note_on', channel=4, note=35, velocity=127, time=32),
    Message('note_off', channel=4, note=35, velocity=127, time=64),
    Message('note_on', channel=4, note=35, velocity=127, time=32),
    Message('note_off', channel=4, note=35, velocity=127, time=64),
    Message('note_on', channel=4, note=35, velocity=127, time=32),
    Message('note_off', channel=4, note=35, velocity=127, time=64),
    Message('note_on', channel=4, note=35, velocity=127, time=32),
    Message('note_off', channel=4, note=35, velocity=127, time=64),
    Message('note_on', channel=4, note=35, velocity=127, time=32),
    Message('note_off', channel=4, note=35, velocity=127, time=64),
    Message('note_on', channel=4, note=35, velocity=127, time=32),
    Message('note_off', channel=4, note=35, velocity=127, time=64),
    Message('note_on', channel=4, note=35, velocity=127, time=32),
    Message('note_off', channel=4, note=35, velocity=127, time=64),
    Message('note_on', channel=4, note=35, velocity=127, time=32),
    Message('note_off', channel=4, note=35, velocity=127, time=64),
    Message('note_on', channel=4, note=35, velocity=127, time=32),
    Message('note_off', channel=4, note=35, velocity=127, time=64),
    Message('note_on', channel=4, note=31, velocity=127, time=128),
    Message('note_off', channel=4, note=31, velocity=127, time=192),
    Message('note_on', channel=4, note=31, velocity=127, time=0),
    Message('note_off', channel=4, note=31, velocity=127, time=64),
    Message('note_on', channel=4, note=31, velocity=127, time=32),
    Message('note_off', channel=4, note=31, velocity=127, time=64),
    Message('note_on', channel=4, note=31, velocity=127, time=32),
    Message('note_off', channel=4, note=31, velocity=127, time=64),
    Message('note_on', channel=4, note=31, velocity=127, time=32),
    Message('note_off', channel=4, note=31, velocity=127, time=64),
    Message('note_on', channel=4, note=31, velocity=127, time=32),
    Message('note_off', channel=4, note=31, velocity=127, time=64),
    Message('note_on', channel=4, note=31, velocity=127, time=32),
    Message('note_off', channel=4, note=31, velocity=127, time=64),
    Message('note_on', channel=4, note=31, velocity=127, time=32),
    Message('note_off', channel=4, note=31, velocity=127, time=64),
    Message('note_on', channel=4, note=31, velocity=127, time=32),
    Message('note_off', channel=4, note=31, velocity=127, time=64),
    Message('note_on', channel=4, note=31, velocity=127, time=32),
    Message('note_off', channel=4, note=31, velocity=127, time=64),
    Message('note_on', channel=4, note=31, velocity=127, time=32),
    Message('note_off', channel=4, note=31, velocity=127, time=64),
    Message('note_on', channel=4, note=31, velocity=127, time=32),
    Message('note_off', channel=4, note=31, velocity=127, time=64),
    Message('note_on', channel=4, note=31, velocity=127, time=32),
    Message('note_off', channel=4, note=31, velocity=127, time=64),
    Message('note_on', channel=4, note=31, velocity=127, time=32),
    Message('note_off', channel=4, note=31, velocity=127, time=64),
    Message('note_on', channel=4, note=28, velocity=127, time=128),
    Message('note_on', channel=4, note=28, velocity=127, time=192),
    Message('note_off', channel=4, note=28, velocity=127, time=64),
    Message('note_off', channel=4, note=28, velocity=127, time=0),
    Message('note_on', channel=4, note=28, velocity=127, time=32),
    Message('note_off', channel=4, note=28, velocity=127, time=64),
    Message('note_on', channel=4, note=28, velocity=127, time=32),
    Message('note_off', channel=4, note=28, velocity=127, time=64),
    Message('note_on', channel=4, note=28, velocity=127, time=32),
    Message('note_off', channel=4, note=28, velocity=127, time=64),
    Message('note_on', channel=4, note=28, velocity=127, time=32),
    Message('note_off', channel=4, note=28, velocity=127, time=64),
    Message('note_on', channel=4, note=28, velocity=127, time=32),
    Message('note_off', channel=4, note=28, velocity=127, time=64),
    Message('note_on', channel=4, note=28, velocity=127, time=32),
    Message('note_off', channel=4, note=28, velocity=127, time=64),
    Message('note_on', channel=4, note=28, velocity=127, time=32),
    Message('note_off', channel=4, note=28, velocity=127, time=64),
    Message('note_on', channel=4, note=28, velocity=127, time=32),
    Message('note_off', channel=4, note=28, velocity=127, time=64),
    Message('note_on', channel=4, note=28, velocity=127, time=32),
    Message('note_off', channel=4, note=28, velocity=127, time=64),
    Message('note_on', channel=4, note=28, velocity=127, time=32),
    Message('control_change', channel=4, control=0, value=60, time=0),
    Message('note_off', channel=4, note=28, velocity=127, time=64),
    Message('note_on', channel=4, note=28, velocity=127, time=32),
    Message('note_off', channel=4, note=28, velocity=127, time=64),
    Message('note_on', channel=4, note=28, velocity=127, time=32),
    Message('note_off', channel=4, note=28, velocity=127, time=64),
    Message('note_on', channel=4, note=30, velocity=127, time=128),
    Message('note_on', channel=4, note=30, velocity=127, time=192),
    Message('note_off', channel=4, note=30, velocity=127, time=64),
    Message('note_off', channel=4, note=30, velocity=127, time=0),
    Message('note_on', channel=4, note=30, velocity=127, time=32),
    Message('note_off', channel=4, note=30, velocity=127, time=64),
    Message('note_on', channel=4, note=30, velocity=127, time=32),
    Message('note_off', channel=4, note=30, velocity=127, time=64),
    Message('note_on', channel=4, note=30, velocity=127, time=32),
    Message('note_off', channel=4, note=30, velocity=127, time=64),
    Message('note_on', channel=4, note=30, velocity=127, time=32),
    Message('note_off', channel=4, note=30, velocity=127, time=64),
    Message('note_on', channel=4, note=30, velocity=127, time=32),
    Message('note_off', channel=4, note=30, velocity=127, time=64),
    Message('note_on', channel=4, note=33, velocity=127, time=32),
    Message('note_off', channel=4, note=33, velocity=127, time=192),
    Message('note_on', channel=4, note=33, velocity=127, time=0),
    Message('note_off', channel=4, note=33, velocity=127, time=64),
    Message('note_on', channel=4, note=33, velocity=127, time=32),
    Message('note_off', channel=4, note=33, velocity=127, time=64),
    Message('note_on', channel=4, note=33, velocity=127, time=32),
    Message('note_off', channel=4, note=33, velocity=127, time=64),
    Message('note_on', channel=4, note=33, velocity=127, time=32),
    Message('note_off', channel=4, note=33, velocity=127, time=64),
    Message('note_on', channel=4, note=34, velocity=127, time=32),
    Message('note_off', channel=4, note=34, velocity=127, time=64),
    Message('note_on', channel=4, note=35, velocity=127, time=128),
    Message('note_off', channel=4, note=35, velocity=127, time=192),
    Message('note_on', channel=4, note=35, velocity=127, time=0),
    Message('note_off', channel=4, note=35, velocity=127, time=64),
    Message('note_on', channel=4, note=35, velocity=127, time=32),
    Message('note_off', channel=4, note=35, velocity=127, time=64),
    Message('note_on', channel=4, note=35, velocity=127, time=32),
    Message('note_off', channel=4, note=35, velocity=127, time=64),
    Message('note_on', channel=4, note=35, velocity=127, time=32),
    Message('note_off', channel=4, note=35, velocity=127, time=64),
    Message('note_on', channel=4, note=35, velocity=127, time=32),
    Message('note_off', channel=4, note=35, velocity=127, time=64),
    Message('note_on', channel=4, note=35, velocity=127, time=32),
    Message('note_off', channel=4, note=35, velocity=127, time=64),
    Message('note_on', channel=4, note=35, velocity=127, time=32),
    Message('note_off', channel=4, note=35, velocity=127, time=64),
    Message('note_on', channel=4, note=35, velocity=127, time=32),
    Message('note_off', channel=4, note=35, velocity=127, time=64),
    Message('note_on', channel=4, note=35, velocity=127, time=32),
    Message('note_off', channel=4, note=35, velocity=127, time=64),
    Message('note_on', channel=4, note=35, velocity=127, time=32),
    Message('note_off', channel=4, note=35, velocity=127, time=64),
    Message('note_on', channel=4, note=35, velocity=127, time=32),
    Message('note_off', channel=4, note=35, velocity=127, time=64),
    Message('note_on', channel=4, note=35, velocity=127, time=32),
    Message('note_off', channel=4, note=35, velocity=127, time=64),
    Message('note_on', channel=4, note=35, velocity=127, time=32),
    Message('note_off', channel=4, note=35, velocity=127, time=64),
    Message('note_on', channel=4, note=31, velocity=127, time=128),
    Message('note_off', channel=4, note=31, velocity=127, time=192),
    Message('note_on', channel=4, note=31, velocity=127, time=0),
    Message('note_off', channel=4, note=31, velocity=127, time=64),
    Message('note_on', channel=4, note=31, velocity=127, time=32),
    Message('note_off', channel=4, note=31, velocity=127, time=64),
    Message('note_on', channel=4, note=31, velocity=127, time=32),
    Message('note_off', channel=4, note=31, velocity=127, time=64),
    Message('note_on', channel=4, note=31, velocity=127, time=32),
    Message('note_off', channel=4, note=31, velocity=127, time=64),
    Message('note_on', channel=4, note=31, velocity=127, time=32),
    Message('note_off', channel=4, note=31, velocity=127, time=64),
    Message('note_on', channel=4, note=31, velocity=127, time=32),
    Message('note_off', channel=4, note=31, velocity=127, time=64),
    Message('note_on', channel=4, note=31, velocity=127, time=32),
    Message('note_off', channel=4, note=31, velocity=127, time=64),
    Message('note_on', channel=4, note=31, velocity=127, time=32),
    Message('note_off', channel=4, note=31, velocity=127, time=64),
    Message('note_on', channel=4, note=31, velocity=127, time=32),
    Message('note_off', channel=4, note=31, velocity=127, time=64),
    Message('note_on', channel=4, note=31, velocity=127, time=32),
    Message('note_off', channel=4, note=31, velocity=127, time=64),
    Message('note_on', channel=4, note=31, velocity=127, time=32),
    Message('note_off', channel=4, note=31, velocity=127, time=64),
    Message('note_on', channel=4, note=31, velocity=127, time=32),
    Message('note_off', channel=4, note=31, velocity=127, time=64),
    Message('note_on', channel=4, note=31, velocity=127, time=32),
    Message('note_off', channel=4, note=31, velocity=127, time=64),
    Message('note_on', channel=4, note=28, velocity=127, time=128),
    Message('note_off', channel=4, note=28, velocity=127, time=192),
    Message('note_on', channel=4, note=28, velocity=127, time=0),
    Message('note_off', channel=4, note=28, velocity=127, time=64),
    Message('note_on', channel=4, note=28, velocity=127, time=32),
    Message('note_off', channel=4, note=28, velocity=127, time=64),
    Message('note_on', channel=4, note=28, velocity=127, time=32),
    Message('note_off', channel=4, note=28, velocity=127, time=64),
    Message('note_on', channel=4, note=28, velocity=127, time=32),
    Message('note_off', channel=4, note=28, velocity=127, time=64),
    Message('note_on', channel=4, note=28, velocity=127, time=32),
    Message('note_off', channel=4, note=28, velocity=127, time=64),
    Message('note_on', channel=4, note=28, velocity=127, time=32),
    Message('note_off', channel=4, note=28, velocity=127, time=64),
    Message('note_on', channel=4, note=28, velocity=127, time=32),
    Message('note_off', channel=4, note=28, velocity=127, time=64),
    Message('note_on', channel=4, note=28, velocity=127, time=32),
    Message('note_off', channel=4, note=28, velocity=127, time=64),
    Message('note_on', channel=4, note=28, velocity=127, time=32),
    Message('note_off', channel=4, note=28, velocity=127, time=64),
    Message('note_on', channel=4, note=28, velocity=127, time=32),
    Message('note_off', channel=4, note=28, velocity=127, time=64),
    Message('note_on', channel=4, note=28, velocity=127, time=32),
    Message('note_off', channel=4, note=28, velocity=127, time=64),
    Message('note_on', channel=4, note=28, velocity=127, time=32),
    Message('note_off', channel=4, note=28, velocity=127, time=64),
    Message('note_on', channel=4, note=28, velocity=127, time=32),
    Message('note_off', channel=4, note=28, velocity=127, time=64),
    Message('note_on', channel=4, note=30, velocity=127, time=128),
    Message('note_off', channel=4, note=30, velocity=127, time=192),
    Message('note_on', channel=4, note=30, velocity=127, time=0),
    Message('note_off', channel=4, note=30, velocity=127, time=64),
    Message('note_on', channel=4, note=30, velocity=127, time=32),
    Message('note_off', channel=4, note=30, velocity=127, time=64),
    Message('note_on', channel=4, note=30, velocity=127, time=32),
    Message('note_off', channel=4, note=30, velocity=127, time=64),
    Message('note_on', channel=4, note=30, velocity=127, time=32),
    Message('note_off', channel=4, note=30, velocity=127, time=64),
    Message('note_on', channel=4, note=30, velocity=127, time=32),
    Message('note_off', channel=4, note=30, velocity=127, time=64),
    Message('note_on', channel=4, note=33, velocity=127, time=128),
    Message('note_off', channel=4, note=33, velocity=127, time=192),
    Message('note_on', channel=4, note=33, velocity=127, time=0),
    Message('note_off', channel=4, note=33, velocity=127, time=64),
    Message('note_on', channel=4, note=33, velocity=127, time=32),
    Message('note_off', channel=4, note=33, velocity=127, time=64),
    Message('note_on', channel=4, note=33, velocity=127, time=32),
    Message('note_off', channel=4, note=33, velocity=127, time=64),
    Message('note_on', channel=4, note=33, velocity=127, time=32),
    Message('note_off', channel=4, note=33, velocity=127, time=64),
    Message('note_on', channel=4, note=34, velocity=127, time=32),
    Message('note_off', channel=4, note=34, velocity=127, time=64),
    Message('note_on', channel=4, note=35, velocity=127, time=128),
    Message('note_off', channel=4, note=35, velocity=127, time=192),
    Message('note_on', channel=4, note=35, velocity=127, time=0),
    Message('note_off', channel=4, note=35, velocity=127, time=64),
    Message('note_on', channel=4, note=35, velocity=127, time=32),
    Message('note_off', channel=4, note=35, velocity=127, time=64),
    Message('note_on', channel=4, note=35, velocity=127, time=32),
    Message('note_off', channel=4, note=35, velocity=127, time=64),
    Message('note_on', channel=4, note=35, velocity=127, time=32),
    Message('note_off', channel=4, note=35, velocity=127, time=64),
    Message('note_on', channel=4, note=35, velocity=127, time=32),
    Message('note_off', channel=4, note=35, velocity=127, time=64),
    Message('note_on', channel=4, note=35, velocity=127, time=32),
    Message('note_off', channel=4, note=35, velocity=127, time=64),
    Message('note_on', channel=4, note=35, velocity=127, time=32),
    Message('note_off', channel=4, note=35, velocity=127, time=64),
    Message('note_on', channel=4, note=35, velocity=127, time=32),
    Message('note_off', channel=4, note=35, velocity=127, time=64),
    Message('note_on', channel=4, note=35, velocity=127, time=32),
    Message('note_off', channel=4, note=35, velocity=127, time=64),
    Message('note_on', channel=4, note=35, velocity=127, time=32),
    Message('note_off', channel=4, note=35, velocity=127, time=64),
    Message('note_on', channel=4, note=35, velocity=127, time=32),
    Message('note_off', channel=4, note=35, velocity=127, time=64),
    Message('note_on', channel=4, note=35, velocity=127, time=32),
    Message('note_off', channel=4, note=35, velocity=127, time=64),
    Message('note_on', channel=4, note=35, velocity=127, time=32),
    Message('note_off', channel=4, note=35, velocity=127, time=64),
    Message('note_on', channel=4, note=31, velocity=127, time=128),
    Message('note_off', channel=4, note=31, velocity=127, time=192),
    Message('note_on', channel=4, note=31, velocity=127, time=0),
    Message('note_off', channel=4, note=31, velocity=127, time=64),
    Message('note_on', channel=4, note=31, velocity=127, time=32),
    Message('note_off', channel=4, note=31, velocity=127, time=64),
    Message('note_on', channel=4, note=31, velocity=127, time=32),
    Message('note_off', channel=4, note=31, velocity=127, time=64),
    Message('note_on', channel=4, note=31, velocity=127, time=32),
    Message('note_off', channel=4, note=31, velocity=127, time=64),
    Message('note_on', channel=4, note=31, velocity=127, time=32),
    Message('note_off', channel=4, note=31, velocity=127, time=64),
    Message('note_on', channel=4, note=31, velocity=127, time=32),
    Message('note_off', channel=4, note=31, velocity=127, time=64),
    Message('note_on', channel=4, note=31, velocity=127, time=32),
    Message('note_off', channel=4, note=31, velocity=127, time=64),
    Message('note_on', channel=4, note=31, velocity=127, time=32),
    Message('note_off', channel=4, note=31, velocity=127, time=64),
    Message('note_on', channel=4, note=31, velocity=127, time=32),
    Message('note_off', channel=4, note=31, velocity=127, time=64),
    Message('note_on', channel=4, note=31, velocity=127, time=32),
    Message('note_off', channel=4, note=31, velocity=127, time=64),
    Message('note_on', channel=4, note=31, velocity=127, time=32),
    Message('note_off', channel=4, note=31, velocity=127, time=64),
    Message('note_on', channel=4, note=31, velocity=127, time=32),
    Message('note_off', channel=4, note=31, velocity=127, time=64),
    Message('note_on', channel=4, note=31, velocity=127, time=32),
    Message('note_off', channel=4, note=31, velocity=127, time=64),
    Message('note_on', channel=4, note=28, velocity=127, time=128),
    Message('note_off', channel=4, note=28, velocity=127, time=192),
    Message('note_on', channel=4, note=28, velocity=127, time=0),
    Message('note_off', channel=4, note=28, velocity=127, time=64),
    Message('note_on', channel=4, note=28, velocity=127, time=32),
    Message('note_off', channel=4, note=28, velocity=127, time=64),
    Message('note_on', channel=4, note=28, velocity=127, time=32),
    Message('note_off', channel=4, note=28, velocity=127, time=64),
    Message('note_on', channel=4, note=28, velocity=127, time=32),
    Message('note_off', channel=4, note=28, velocity=127, time=64),
    Message('note_on', channel=4, note=28, velocity=127, time=32),
    Message('note_off', channel=4, note=28, velocity=127, time=64),
    Message('note_on', channel=4, note=28, velocity=127, time=32),
    Message('note_off', channel=4, note=28, velocity=127, time=64),
    Message('note_on', channel=4, note=28, velocity=127, time=32),
    Message('note_off', channel=4, note=28, velocity=127, time=64),
    Message('note_on', channel=4, note=28, velocity=127, time=32),
    Message('note_off', channel=4, note=28, velocity=127, time=64),
    Message('note_on', channel=4, note=28, velocity=127, time=32),
    Message('note_off', channel=4, note=28, velocity=127, time=64),
    Message('note_on', channel=4, note=28, velocity=127, time=32),
    Message('note_off', channel=4, note=28, velocity=127, time=64),
    Message('note_on', channel=4, note=28, velocity=127, time=32),
    Message('note_off', channel=4, note=28, velocity=127, time=64),
    Message('note_on', channel=4, note=28, velocity=127, time=32),
    Message('note_off', channel=4, note=28, velocity=127, time=64),
    Message('note_on', channel=4, note=28, velocity=127, time=32),
    Message('note_off', channel=4, note=28, velocity=127, time=64),
    Message('note_on', channel=4, note=30, velocity=127, time=128),
    Message('note_off', channel=4, note=30, velocity=127, time=192),
    Message('note_on', channel=4, note=30, velocity=127, time=0),
    Message('note_off', channel=4, note=30, velocity=127, time=64),
    Message('note_on', channel=4, note=30, velocity=127, time=32),
    Message('note_off', channel=4, note=30, velocity=127, time=64),
    Message('note_on', channel=4, note=30, velocity=127, time=32),
    Message('note_off', channel=4, note=30, velocity=127, time=64),
    Message('note_on', channel=4, note=30, velocity=127, time=32),
    Message('note_off', channel=4, note=30, velocity=127, time=64),
    Message('note_on', channel=4, note=30, velocity=127, time=32),
    Message('note_off', channel=4, note=30, velocity=127, time=64),
    Message('note_on', channel=4, note=33, velocity=127, time=128),
    Message('note_off', channel=4, note=33, velocity=127, time=192),
    Message('note_on', channel=4, note=33, velocity=127, time=0),
    Message('note_off', channel=4, note=33, velocity=127, time=64),
    Message('note_on', channel=4, note=33, velocity=127, time=32),
    Message('note_off', channel=4, note=33, velocity=127, time=64),
    Message('note_on', channel=4, note=33, velocity=127, time=32),
    Message('note_off', channel=4, note=33, velocity=127, time=64),
    Message('note_on', channel=4, note=33, velocity=127, time=32),
    Message('note_off', channel=4, note=33, velocity=127, time=64),
    Message('note_on', channel=4, note=34, velocity=127, time=32),
    Message('note_off', channel=4, note=34, velocity=127, time=64),
    Message('note_on', channel=4, note=35, velocity=127, time=128),
    Message('note_off', channel=4, note=35, velocity=127, time=192),
    Message('note_on', channel=4, note=28, velocity=127, time=0),
    Message('note_off', channel=4, note=28, velocity=127, time=64),
    Message('note_on', channel=4, note=30, velocity=127, time=32),
    Message('note_off', channel=4, note=30, velocity=127, time=64),
    Message('note_on', channel=4, note=33, velocity=127, time=32),
    Message('note_off', channel=4, note=33, velocity=127, time=64),
    Message('note_on', channel=4, note=35, velocity=127, time=32),
    Message('note_off', channel=4, note=35, velocity=127, time=64),
    Message('note_on', channel=4, note=38, velocity=127, time=32),
    Message('note_off', channel=4, note=38, velocity=127, time=64),
    Message('note_on', channel=4, note=35, velocity=127, time=32),
    Message('note_off', channel=4, note=35, velocity=127, time=64),
    Message('note_on', channel=4, note=33, velocity=127, time=32),
    Message('note_off', channel=4, note=33, velocity=127, time=64),
    Message('note_on', channel=4, note=35, velocity=127, time=32),
    Message('note_off', channel=4, note=35, velocity=127, time=128),
    Message('note_on', channel=4, note=28, velocity=127, time=64),
    Message('note_off', channel=4, note=28, velocity=127, time=64),
    Message('note_on', channel=4, note=30, velocity=127, time=32),
    Message('note_off', channel=4, note=30, velocity=127, time=64),
    Message('note_on', channel=4, note=33, velocity=127, time=32),
    Message('note_off', channel=4, note=33, velocity=127, time=64),
    Message('note_on', channel=4, note=35, velocity=127, time=32),
    Message('note_off', channel=4, note=35, velocity=127, time=64),
    Message('note_on', channel=4, note=38, velocity=127, time=32),
    Message('note_off', channel=4, note=38, velocity=127, time=64),
    Message('note_on', channel=4, note=35, velocity=127, time=32),
    Message('note_off', channel=4, note=35, velocity=127, time=192),
    Message('note_on', channel=4, note=28, velocity=127, time=0),
    Message('note_off', channel=4, note=28, velocity=127, time=64),
    Message('note_on', channel=4, note=30, velocity=127, time=32),
    Message('note_off', channel=4, note=30, velocity=127, time=64),
    Message('note_on', channel=4, note=33, velocity=127, time=32),
    Message('note_off', channel=4, note=33, velocity=127, time=64),
    Message('note_on', channel=4, note=35, velocity=127, time=32),
    Message('note_off', channel=4, note=35, velocity=127, time=64),
    Message('note_on', channel=4, note=38, velocity=127, time=32),
    Message('note_off', channel=4, note=38, velocity=127, time=64),
    Message('note_on', channel=4, note=35, velocity=127, time=32),
    Message('note_off', channel=4, note=35, velocity=127, time=64),
    Message('note_on', channel=4, note=33, velocity=127, time=32),
    Message('note_off', channel=4, note=33, velocity=127, time=64),
    Message('note_on', channel=4, note=35, velocity=127, time=32),
    Message('note_off', channel=4, note=35, velocity=127, time=128),
    Message('note_on', channel=4, note=28, velocity=127, time=64),
    Message('note_off', channel=4, note=28, velocity=127, time=64),
    Message('note_on', channel=4, note=30, velocity=127, time=32),
    Message('note_off', channel=4, note=30, velocity=127, time=64),
    Message('note_on', channel=4, note=33, velocity=127, time=32),
    Message('note_off', channel=4, note=33, velocity=127, time=64),
    Message('note_on', channel=4, note=35, velocity=127, time=32),
    Message('note_off', channel=4, note=35, velocity=127, time=64),
    Message('note_on', channel=4, note=38, velocity=127, time=32),
    Message('note_off', channel=4, note=38, velocity=127, time=64),
    Message('note_on', channel=4, note=35, velocity=127, time=32),
    Message('note_on', channel=4, note=28, velocity=127, time=192),
    Message('note_off', channel=4, note=35, velocity=127, time=2),
    Message('note_off', channel=4, note=28, velocity=127, time=62),
    Message('note_on', channel=4, note=30, velocity=127, time=32),
    Message('note_off', channel=4, note=30, velocity=127, time=64),
    Message('note_on', channel=4, note=33, velocity=127, time=32),
    Message('note_off', channel=4, note=33, velocity=127, time=64),
    Message('note_on', channel=4, note=35, velocity=127, time=32),
    Message('note_off', channel=4, note=35, velocity=127, time=64),
    Message('note_on', channel=4, note=38, velocity=127, time=32),
    Message('note_off', channel=4, note=38, velocity=127, time=64),
    Message('note_on', channel=4, note=35, velocity=127, time=32),
    Message('note_off', channel=4, note=35, velocity=127, time=64),
    Message('note_on', channel=4, note=33, velocity=127, time=32),
    Message('note_off', channel=4, note=33, velocity=127, time=64),
    Message('note_on', channel=4, note=35, velocity=127, time=32),
    Message('note_off', channel=4, note=35, velocity=127, time=128),
    Message('note_on', channel=4, note=28, velocity=127, time=64),
    Message('note_off', channel=4, note=28, velocity=127, time=64),
    Message('note_on', channel=4, note=30, velocity=127, time=32),
    Message('note_off', channel=4, note=30, velocity=127, time=64),
    Message('note_on', channel=4, note=33, velocity=127, time=32),
    Message('note_off', channel=4, note=33, velocity=127, time=64),
    Message('note_on', channel=4, note=35, velocity=127, time=32),
    Message('note_off', channel=4, note=35, velocity=127, time=64),
    Message('note_on', channel=4, note=38, velocity=127, time=32),
    Message('note_off', channel=4, note=38, velocity=127, time=64),
    Message('note_on', channel=4, note=35, velocity=127, time=32),
    Message('note_on', channel=4, note=28, velocity=127, time=192),
    Message('note_off', channel=4, note=35, velocity=127, time=2),
    Message('note_off', channel=4, note=28, velocity=127, time=62),
    Message('note_on', channel=4, note=30, velocity=127, time=32),
    Message('note_off', channel=4, note=30, velocity=127, time=64),
    Message('note_on', channel=4, note=33, velocity=127, time=32),
    Message('note_off', channel=4, note=33, velocity=127, time=64),
    Message('note_on', channel=4, note=35, velocity=127, time=32),
    Message('note_off', channel=4, note=35, velocity=127, time=64),
    Message('note_on', channel=4, note=38, velocity=127, time=32),
    Message('note_off', channel=4, note=38, velocity=127, time=64),
    Message('note_on', channel=4, note=35, velocity=127, time=32),
    Message('note_off', channel=4, note=35, velocity=127, time=64),
    Message('note_on', channel=4, note=33, velocity=127, time=32),
    Message('note_off', channel=4, note=33, velocity=127, time=64),
    Message('note_on', channel=4, note=35, velocity=127, time=32),
    Message('note_off', channel=4, note=35, velocity=127, time=128),
    Message('note_on', channel=4, note=28, velocity=127, time=64),
    Message('note_off', channel=4, note=28, velocity=127, time=64),
    Message('note_on', channel=4, note=30, velocity=127, time=32),
    Message('note_off', channel=4, note=30, velocity=127, time=64),
    Message('note_on', channel=4, note=33, velocity=127, time=32),
    Message('note_off', channel=4, note=33, velocity=127, time=64),
    Message('note_on', channel=4, note=35, velocity=127, time=32),
    Message('note_off', channel=4, note=35, velocity=127, time=64),
    Message('note_on', channel=4, note=38, velocity=127, time=32),
    Message('note_off', channel=4, note=38, velocity=127, time=64),
    Message('note_on', channel=4, note=35, velocity=127, time=32),
    Message('note_on', channel=4, note=35, velocity=127, time=192),
    Message('note_off', channel=4, note=35, velocity=127, time=2),
    Message('note_off', channel=4, note=35, velocity=127, time=62),
    Message('note_on', channel=4, note=35, velocity=127, time=32),
    Message('note_off', channel=4, note=35, velocity=127, time=64),
    Message('note_on', channel=4, note=35, velocity=127, time=32),
    Message('note_off', channel=4, note=35, velocity=127, time=64),
    Message('note_on', channel=4, note=35, velocity=127, time=32),
    Message('note_off', channel=4, note=35, velocity=127, time=64),
    Message('note_on', channel=4, note=35, velocity=127, time=32),
    Message('note_off', channel=4, note=35, velocity=127, time=64),
    Message('note_on', channel=4, note=35, velocity=127, time=32),
    Message('note_off', channel=4, note=35, velocity=127, time=64),
    Message('note_on', channel=4, note=35, velocity=127, time=32),
    Message('note_off', channel=4, note=35, velocity=127, time=64),
    Message('note_on', channel=4, note=35, velocity=127, time=32),
    Message('note_off', channel=4, note=35, velocity=127, time=64),
    Message('note_on', channel=4, note=35, velocity=127, time=32),
    Message('note_off', channel=4, note=35, velocity=127, time=64),
    Message('note_on', channel=4, note=35, velocity=127, time=32),
    Message('note_off', channel=4, note=35, velocity=127, time=64),
    Message('note_on', channel=4, note=35, velocity=127, time=32),
    Message('note_off', channel=4, note=35, velocity=127, time=64),
    Message('note_on', channel=4, note=35, velocity=127, time=32),
    Message('note_off', channel=4, note=35, velocity=127, time=64),
    Message('note_on', channel=4, note=35, velocity=127, time=32),
    Message('note_off', channel=4, note=35, velocity=127, time=64),
    Message('note_on', channel=4, note=35, velocity=127, time=32),
    Message('note_off', channel=4, note=35, velocity=127, time=64),
    Message('note_on', channel=4, note=38, velocity=127, time=32),
    Message('note_off', channel=4, note=38, velocity=127, time=168),
    Message('note_on', channel=4, note=38, velocity=127, time=24),
    Message('note_off', channel=4, note=38, velocity=127, time=64),
    Message('note_on', channel=4, note=38, velocity=127, time=32),
    Message('note_off', channel=4, note=38, velocity=127, time=64),
    Message('note_on', channel=4, note=38, velocity=127, time=32),
    Message('note_off', channel=4, note=38, velocity=127, time=64),
    Message('note_on', channel=4, note=38, velocity=127, time=32),
    Message('note_off', channel=4, note=38, velocity=127, time=64),
    Message('note_on', channel=4, note=38, velocity=127, time=32),
    Message('note_off', channel=4, note=38, velocity=127, time=64),
    Message('note_on', channel=4, note=38, velocity=127, time=32),
    Message('note_off', channel=4, note=38, velocity=127, time=64),
    Message('note_on', channel=4, note=38, velocity=127, time=32),
    Message('note_off', channel=4, note=38, velocity=127, time=64),
    Message('note_on', channel=4, note=38, velocity=127, time=32),
    Message('note_off', channel=4, note=38, velocity=127, time=64),
    Message('note_on', channel=4, note=38, velocity=127, time=32),
    Message('note_off', channel=4, note=38, velocity=127, time=64),
    Message('note_on', channel=4, note=38, velocity=127, time=32),
    Message('note_off', channel=4, note=38, velocity=127, time=64),
    Message('note_on', channel=4, note=38, velocity=127, time=32),
    Message('note_off', channel=4, note=38, velocity=127, time=64),
    Message('note_on', channel=4, note=38, velocity=127, time=32),
    Message('note_off', channel=4, note=38, velocity=127, time=64),
    Message('note_on', channel=4, note=38, velocity=127, time=32),
    Message('note_off', channel=4, note=38, velocity=127, time=64),
    Message('note_on', channel=4, note=38, velocity=127, time=32),
    Message('note_off', channel=4, note=38, velocity=127, time=64),
    Message('note_on', channel=4, note=40, velocity=127, time=32),
    Message('note_off', channel=4, note=40, velocity=127, time=192),
    Message('note_on', channel=4, note=40, velocity=127, time=0),
    Message('note_off', channel=4, note=40, velocity=127, time=64),
    Message('note_on', channel=4, note=40, velocity=127, time=32),
    Message('note_off', channel=4, note=40, velocity=127, time=64),
    Message('note_on', channel=4, note=40, velocity=127, time=32),
    Message('note_off', channel=4, note=40, velocity=127, time=64),
    Message('note_on', channel=4, note=40, velocity=127, time=32),
    Message('note_off', channel=4, note=40, velocity=127, time=64),
    Message('note_on', channel=4, note=40, velocity=127, time=32),
    Message('note_off', channel=4, note=40, velocity=127, time=64),
    Message('note_on', channel=4, note=40, velocity=127, time=32),
    Message('note_off', channel=4, note=40, velocity=127, time=64),
    Message('note_on', channel=4, note=40, velocity=127, time=32),
    Message('note_off', channel=4, note=40, velocity=127, time=64),
    Message('note_on', channel=4, note=40, velocity=127, time=32),
    Message('note_off', channel=4, note=40, velocity=127, time=64),
    Message('note_on', channel=4, note=40, velocity=127, time=32),
    Message('note_off', channel=4, note=40, velocity=127, time=64),
    Message('note_on', channel=4, note=40, velocity=127, time=32),
    Message('note_off', channel=4, note=40, velocity=127, time=64),
    Message('note_on', channel=4, note=40, velocity=127, time=32),
    Message('note_off', channel=4, note=40, velocity=127, time=64),
    Message('note_on', channel=4, note=40, velocity=127, time=32),
    Message('note_off', channel=4, note=40, velocity=127, time=64),
    Message('note_on', channel=4, note=40, velocity=127, time=32),
    Message('note_off', channel=4, note=40, velocity=127, time=64),
    Message('note_on', channel=4, note=42, velocity=127, time=32),
    Message('note_off', channel=4, note=42, velocity=127, time=64),
    Message('note_on', channel=4, note=43, velocity=127, time=32),
    Message('note_off', channel=4, note=43, velocity=127, time=192),
    Message('note_on', channel=4, note=43, velocity=127, time=0),
    Message('note_off', channel=4, note=43, velocity=127, time=64),
    Message('note_on', channel=4, note=43, velocity=127, time=32),
    Message('note_off', channel=4, note=43, velocity=127, time=64),
    Message('note_on', channel=4, note=43, velocity=127, time=32),
    Message('note_off', channel=4, note=43, velocity=127, time=64),
    Message('note_on', channel=4, note=43, velocity=127, time=32),
    Message('note_off', channel=4, note=43, velocity=127, time=64),
    Message('note_on', channel=4, note=42, velocity=127, time=32),
    Message('note_off', channel=4, note=42, velocity=127, time=64),
    Message('note_on', channel=4, note=43, velocity=127, time=32),
    Message('note_off', channel=4, note=43, velocity=127, time=64),
    Message('note_on', channel=4, note=45, velocity=127, time=32),
    Message('note_off', channel=4, note=45, velocity=127, time=192),
    Message('note_on', channel=4, note=45, velocity=127, time=0),
    Message('note_off', channel=4, note=45, velocity=127, time=64),
    Message('note_on', channel=4, note=45, velocity=127, time=32),
    Message('note_off', channel=4, note=45, velocity=127, time=64),
    Message('note_on', channel=4, note=45, velocity=127, time=32),
    Message('note_off', channel=4, note=45, velocity=127, time=64),
    Message('note_on', channel=4, note=45, velocity=127, time=32),
    Message('note_off', channel=4, note=45, velocity=127, time=64),
    Message('note_on', channel=4, note=47, velocity=127, time=32),
    Message('note_off', channel=4, note=47, velocity=127, time=64),
    Message('note_on', channel=4, note=50, velocity=127, time=32),
    Message('note_off', channel=4, note=50, velocity=127, time=64),
    Message('note_on', channel=4, note=47, velocity=127, time=32),
    Message('note_off', channel=4, note=47, velocity=127, time=192),
    Message('note_on', channel=4, note=47, velocity=127, time=0),
    Message('note_off', channel=4, note=47, velocity=127, time=64),
    Message('note_on', channel=4, note=47, velocity=127, time=32),
    Message('note_off', channel=4, note=47, velocity=127, time=64),
    Message('note_on', channel=4, note=47, velocity=127, time=32),
    Message('note_off', channel=4, note=47, velocity=127, time=64),
    Message('note_on', channel=4, note=47, velocity=127, time=32),
    Message('note_off', channel=4, note=47, velocity=127, time=64),
    Message('note_on', channel=4, note=47, velocity=127, time=32),
    Message('note_off', channel=4, note=47, velocity=127, time=64),
    Message('note_on', channel=4, note=47, velocity=127, time=32),
    Message('note_off', channel=4, note=47, velocity=127, time=64),
    Message('note_on', channel=4, note=47, velocity=127, time=32),
    Message('note_off', channel=4, note=47, velocity=127, time=64),
    Message('note_on', channel=4, note=47, velocity=127, time=32),
    Message('note_off', channel=4, note=47, velocity=127, time=64),
    Message('note_on', channel=4, note=47, velocity=127, time=32),
    Message('note_off', channel=4, note=47, velocity=127, time=64),
    Message('note_on', channel=4, note=47, velocity=127, time=32),
    Message('note_off', channel=4, note=47, velocity=127, time=64),
    Message('note_on', channel=4, note=47, velocity=127, time=32),
    Message('note_off', channel=4, note=47, velocity=127, time=64),
    Message('note_on', channel=4, note=47, velocity=127, time=32),
    Message('note_off', channel=4, note=47, velocity=127, time=64),
    Message('note_on', channel=4, note=47, velocity=127, time=32),
    Message('note_off', channel=4, note=47, velocity=127, time=64),
    Message('note_on', channel=4, note=47, velocity=127, time=32),
    Message('note_off', channel=4, note=47, velocity=127, time=64),
    Message('note_on', channel=4, note=50, velocity=127, time=32),
    Message('note_off', channel=4, note=50, velocity=127, time=192),
    Message('note_on', channel=4, note=50, velocity=127, time=0),
    Message('note_off', channel=4, note=50, velocity=127, time=64),
    Message('note_on', channel=4, note=50, velocity=127, time=32),
    Message('note_off', channel=4, note=50, velocity=127, time=64),
    Message('note_on', channel=4, note=50, velocity=127, time=32),
    Message('note_off', channel=4, note=50, velocity=127, time=64),
    Message('note_on', channel=4, note=50, velocity=127, time=32),
    Message('note_off', channel=4, note=50, velocity=127, time=64),
    Message('note_on', channel=4, note=50, velocity=127, time=32),
    Message('note_off', channel=4, note=50, velocity=127, time=64),
    Message('note_on', channel=4, note=50, velocity=127, time=32),
    Message('note_off', channel=4, note=50, velocity=127, time=64),
    Message('note_on', channel=4, note=50, velocity=127, time=32),
    Message('note_off', channel=4, note=50, velocity=127, time=64),
    Message('note_on', channel=4, note=50, velocity=127, time=32),
    Message('note_off', channel=4, note=50, velocity=127, time=64),
    Message('note_on', channel=4, note=50, velocity=127, time=32),
    Message('note_off', channel=4, note=50, velocity=127, time=64),
    Message('note_on', channel=4, note=50, velocity=127, time=32),
    Message('note_off', channel=4, note=50, velocity=127, time=64),
    Message('note_on', channel=4, note=50, velocity=127, time=32),
    Message('note_off', channel=4, note=50, velocity=127, time=64),
    Message('note_on', channel=4, note=50, velocity=127, time=32),
    Message('note_off', channel=4, note=50, velocity=127, time=64),
    Message('note_on', channel=4, note=50, velocity=127, time=32),
    Message('note_off', channel=4, note=50, velocity=127, time=64),
    Message('note_on', channel=4, note=50, velocity=127, time=32),
    Message('note_off', channel=4, note=50, velocity=127, time=64),
    Message('note_on', channel=4, note=52, velocity=127, time=32),
    Message('note_off', channel=4, note=52, velocity=127, time=192),
    Message('note_on', channel=4, note=52, velocity=127, time=0),
    Message('note_off', channel=4, note=52, velocity=127, time=64),
    Message('note_on', channel=4, note=52, velocity=127, time=32),
    Message('note_off', channel=4, note=52, velocity=127, time=64),
    Message('note_on', channel=4, note=52, velocity=127, time=32),
    Message('note_off', channel=4, note=52, velocity=127, time=64),
    Message('note_on', channel=4, note=52, velocity=127, time=32),
    Message('note_off', channel=4, note=52, velocity=127, time=64),
    Message('note_on', channel=4, note=52, velocity=127, time=32),
    Message('note_off', channel=4, note=52, velocity=127, time=64),
    Message('note_on', channel=4, note=52, velocity=127, time=32),
    Message('note_off', channel=4, note=52, velocity=127, time=64),
    Message('note_on', channel=4, note=52, velocity=127, time=32),
    Message('note_off', channel=4, note=52, velocity=127, time=64),
    Message('note_on', channel=4, note=52, velocity=127, time=32),
    Message('note_off', channel=4, note=52, velocity=127, time=64),
    Message('note_on', channel=4, note=52, velocity=127, time=32),
    Message('note_off', channel=4, note=52, velocity=127, time=64),
    Message('note_on', channel=4, note=52, velocity=127, time=32),
    Message('note_off', channel=4, note=52, velocity=127, time=64),
    Message('note_on', channel=4, note=52, velocity=127, time=32),
    Message('note_off', channel=4, note=52, velocity=127, time=64),
    Message('note_on', channel=4, note=50, velocity=127, time=32),
    Message('note_off', channel=4, note=50, velocity=127, time=64),
    Message('note_on', channel=4, note=50, velocity=127, time=32),
    Message('note_off', channel=4, note=50, velocity=127, time=64),
    Message('note_on', channel=4, note=52, velocity=127, time=32),
    Message('note_off', channel=4, note=52, velocity=127, time=64),
    Message('note_on', channel=4, note=55, velocity=127, time=32),
    Message('note_off', channel=4, note=55, velocity=127, time=192),
    Message('note_on', channel=4, note=55, velocity=127, time=0),
    Message('note_off', channel=4, note=55, velocity=127, time=64),
    Message('note_on', channel=4, note=55, velocity=127, time=32),
    Message('note_off', channel=4, note=55, velocity=127, time=64),
    Message('note_on', channel=4, note=55, velocity=127, time=32),
    Message('note_off', channel=4, note=55, velocity=127, time=64),
    Message('note_on', channel=4, note=50, velocity=127, time=32),
    Message('note_off', channel=4, note=50, velocity=127, time=64),
    Message('note_on', channel=4, note=50, velocity=127, time=32),
    Message('note_off', channel=4, note=50, velocity=127, time=64),
    Message('note_on', channel=4, note=52, velocity=127, time=32),
    Message('note_off', channel=4, note=52, velocity=127, time=64),
    Message('note_on', channel=4, note=57, velocity=127, time=32),
    Message('note_on', channel=4, note=57, velocity=127, time=192),
    Message('note_off', channel=4, note=57, velocity=127, time=32),
    Message('note_off', channel=4, note=57, velocity=127, time=32),
    Message('note_on', channel=4, note=57, velocity=127, time=32),
    Message('note_off', channel=4, note=57, velocity=127, time=64),
    Message('note_on', channel=4, note=57, velocity=127, time=32),
    Message('note_off', channel=4, note=57, velocity=127, time=64),
    Message('note_on', channel=4, note=33, velocity=127, time=32),
    Message('note_off', channel=4, note=33, velocity=127, time=64),
    Message('note_on', channel=4, note=35, velocity=127, time=32),
    Message('note_off', channel=4, note=35, velocity=127, time=64),
    Message('note_on', channel=4, note=38, velocity=127, time=32),
    Message('note_off', channel=4, note=38, velocity=127, time=64),
    Message('note_on', channel=4, note=36, velocity=127, time=32),
    Message('note_off', channel=4, note=36, velocity=127, time=192),
    Message('note_on', channel=4, note=28, velocity=127, time=0),
    Message('note_off', channel=4, note=28, velocity=127, time=64),
    Message('note_on', channel=4, note=31, velocity=127, time=32),
    Message('note_off', channel=4, note=31, velocity=127, time=64),
    Message('note_on', channel=4, note=33, velocity=127, time=32),
    Message('note_off', channel=4, note=33, velocity=127, time=64),
    Message('note_on', channel=4, note=36, velocity=127, time=32),
    Message('note_off', channel=4, note=36, velocity=127, time=64),
    Message('note_on', channel=4, note=38, velocity=127, time=32),
    Message('note_off', channel=4, note=38, velocity=127, time=64),
    Message('note_on', channel=4, note=36, velocity=127, time=32),
    Message('note_off', channel=4, note=36, velocity=127, time=64),
    Message('note_on', channel=4, note=33, velocity=127, time=32),
    Message('note_off', channel=4, note=33, velocity=127, time=64),
    Message('note_on', channel=4, note=36, velocity=127, time=32),
    Message('note_off', channel=4, note=36, velocity=127, time=128),
    Message('note_on', channel=4, note=28, velocity=127, time=64),
    Message('note_off', channel=4, note=28, velocity=127, time=64),
    Message('note_on', channel=4, note=31, velocity=127, time=32),
    Message('note_off', channel=4, note=31, velocity=127, time=64),
    Message('note_on', channel=4, note=33, velocity=127, time=32),
    Message('note_off', channel=4, note=33, velocity=127, time=64),
    Message('note_on', channel=4, note=36, velocity=127, time=32),
    Message('note_off', channel=4, note=36, velocity=127, time=64),
    Message('note_on', channel=4, note=38, velocity=127, time=32),
    Message('note_off', channel=4, note=38, velocity=127, time=64),
    Message('note_on', channel=4, note=35, velocity=127, time=32),
    Message('note_off', channel=4, note=35, velocity=127, time=192),
    Message('note_on', channel=4, note=28, velocity=127, time=0),
    Message('note_off', channel=4, note=28, velocity=127, time=64),
    Message('note_on', channel=4, note=30, velocity=127, time=32),
    Message('note_off', channel=4, note=30, velocity=127, time=64),
    Message('note_on', channel=4, note=33, velocity=127, time=32),
    Message('note_off', channel=4, note=33, velocity=127, time=64),
    Message('note_on', channel=4, note=35, velocity=127, time=32),
    Message('note_off', channel=4, note=35, velocity=127, time=64),
    Message('note_on', channel=4, note=38, velocity=127, time=32),
    Message('note_off', channel=4, note=38, velocity=127, time=64),
    Message('note_on', channel=4, note=35, velocity=127, time=32),
    Message('note_off', channel=4, note=35, velocity=127, time=64),
    Message('note_on', channel=4, note=33, velocity=127, time=32),
    Message('note_off', channel=4, note=33, velocity=127, time=64),
    Message('note_on', channel=4, note=35, velocity=127, time=32),
    Message('note_off', channel=4, note=35, velocity=127, time=128),
    Message('note_on', channel=4, note=28, velocity=127, time=64),
    Message('note_off', channel=4, note=28, velocity=127, time=64),
    Message('note_on', channel=4, note=30, velocity=127, time=32),
    Message('note_off', channel=4, note=30, velocity=127, time=64),
    Message('note_on', channel=4, note=33, velocity=127, time=32),
    Message('note_off', channel=4, note=33, velocity=127, time=64),
    Message('note_on', channel=4, note=35, velocity=127, time=32),
    Message('note_off', channel=4, note=35, velocity=127, time=64),
    Message('note_on', channel=4, note=38, velocity=127, time=32),
    Message('note_off', channel=4, note=38, velocity=127, time=64),
    Message('note_on', channel=4, note=36, velocity=127, time=32),
    Message('note_off', channel=4, note=36, velocity=127, time=192),
    Message('note_on', channel=4, note=28, velocity=127, time=0),
    Message('note_off', channel=4, note=28, velocity=127, time=64),
    Message('note_on', channel=4, note=31, velocity=127, time=32),
    Message('note_off', channel=4, note=31, velocity=127, time=64),
    Message('note_on', channel=4, note=33, velocity=127, time=32),
    Message('note_off', channel=4, note=33, velocity=127, time=64),
    Message('note_on', channel=4, note=36, velocity=127, time=32),
    Message('note_off', channel=4, note=36, velocity=127, time=64),
    Message('note_on', channel=4, note=38, velocity=127, time=32),
    Message('note_off', channel=4, note=38, velocity=127, time=64),
    Message('note_on', channel=4, note=36, velocity=127, time=32),
    Message('note_off', channel=4, note=36, velocity=127, time=64),
    Message('note_on', channel=4, note=33, velocity=127, time=32),
    Message('note_off', channel=4, note=33, velocity=127, time=64),
    Message('note_on', channel=4, note=36, velocity=127, time=32),
    Message('note_off', channel=4, note=36, velocity=127, time=128),
    Message('note_on', channel=4, note=28, velocity=127, time=64),
    Message('note_off', channel=4, note=28, velocity=127, time=64),
    Message('note_on', channel=4, note=31, velocity=127, time=32),
    Message('note_off', channel=4, note=31, velocity=127, time=64),
    Message('note_on', channel=4, note=33, velocity=127, time=32),
    Message('note_off', channel=4, note=33, velocity=127, time=64),
    Message('note_on', channel=4, note=36, velocity=127, time=32),
    Message('note_off', channel=4, note=36, velocity=127, time=64),
    Message('note_on', channel=4, note=38, velocity=127, time=32),
    Message('note_off', channel=4, note=38, velocity=127, time=64),
    Message('note_on', channel=4, note=35, velocity=127, time=32),
    Message('note_off', channel=4, note=35, velocity=127, time=192),
    Message('note_on', channel=4, note=28, velocity=127, time=0),
    Message('note_off', channel=4, note=28, velocity=127, time=64),
    Message('note_on', channel=4, note=30, velocity=127, time=32),
    Message('note_off', channel=4, note=30, velocity=127, time=64),
    Message('note_on', channel=4, note=33, velocity=127, time=32),
    Message('note_off', channel=4, note=33, velocity=127, time=64),
    Message('note_on', channel=4, note=35, velocity=127, time=32),
    Message('note_off', channel=4, note=35, velocity=127, time=64),
    Message('note_on', channel=4, note=38, velocity=127, time=32),
    Message('note_off', channel=4, note=38, velocity=127, time=64),
    Message('note_on', channel=4, note=35, velocity=127, time=32),
    Message('note_off', channel=4, note=35, velocity=127, time=64),
    Message('note_on', channel=4, note=33, velocity=127, time=32),
    Message('note_off', channel=4, note=33, velocity=127, time=64),
    Message('note_on', channel=4, note=35, velocity=127, time=32),
    Message('note_off', channel=4, note=35, velocity=127, time=128),
    Message('note_on', channel=4, note=28, velocity=127, time=64),
    Message('note_off', channel=4, note=28, velocity=127, time=64),
    Message('note_on', channel=4, note=30, velocity=127, time=32),
    Message('note_off', channel=4, note=30, velocity=127, time=64),
    Message('note_on', channel=4, note=33, velocity=127, time=32),
    Message('note_off', channel=4, note=33, velocity=127, time=64),
    Message('note_on', channel=4, note=35, velocity=127, time=32),
    Message('note_off', channel=4, note=35, velocity=127, time=64),
    Message('note_on', channel=4, note=38, velocity=127, time=32),
    Message('note_off', channel=4, note=38, velocity=127, time=64),
    Message('note_on', channel=4, note=35, velocity=127, time=32),
    Message('note_off', channel=4, note=35, velocity=127, time=256),
    Message('note_on', channel=4, note=30, velocity=127, time=224),
    Message('note_off', channel=4, note=30, velocity=127, time=64),
    Message('note_on', channel=4, note=30, velocity=127, time=32),
    Message('note_off', channel=4, note=30, velocity=127, time=64),
    Message('note_on', channel=4, note=31, velocity=127, time=128),
    Message('note_off', channel=4, note=31, velocity=127, time=256),
    Message('note_on', channel=4, note=33, velocity=127, time=224),
    Message('note_off', channel=4, note=33, velocity=127, time=64),
    Message('note_on', channel=4, note=33, velocity=127, time=32),
    Message('note_off', channel=4, note=33, velocity=127, time=64),
    Message('note_on', channel=4, note=28, velocity=127, time=128),
    Message('note_off', channel=4, note=28, velocity=127, time=256),
    Message('note_on', channel=4, note=30, velocity=127, time=224),
    Message('note_off', channel=4, note=30, velocity=127, time=64),
    Message('note_on', channel=4, note=30, velocity=127, time=32),
    Message('note_off', channel=4, note=30, velocity=127, time=64),
    Message('note_on', channel=4, note=31, velocity=127, time=128),
    Message('note_on', channel=4, note=33, velocity=127, time=192),
    Message('note_off', channel=4, note=31, velocity=127, time=64),
    Message('note_off', channel=4, note=33, velocity=127, time=0),
    Message('note_on', channel=4, note=33, velocity=127, time=32),
    Message('note_off', channel=4, note=33, velocity=127, time=64),
    Message('note_on', channel=4, note=33, velocity=127, time=32),
    Message('note_off', channel=4, note=33, velocity=127, time=128),
    Message('note_on', channel=4, note=35, velocity=127, time=64),
    Message('note_off', channel=4, note=35, velocity=127, time=64),
    Message('note_on', channel=4, note=35, velocity=127, time=32),
    Message('note_off', channel=4, note=35, velocity=127, time=64),
    Message('note_on', channel=4, note=35, velocity=127, time=32),
    Message('note_off', channel=4, note=35, velocity=127, time=256),
    Message('note_on', channel=4, note=30, velocity=127, time=224),
    Message('note_off', channel=4, note=30, velocity=127, time=64),
    Message('note_on', channel=4, note=30, velocity=127, time=32),
    Message('note_off', channel=4, note=30, velocity=127, time=64),
    Message('note_on', channel=4, note=31, velocity=127, time=128),
    Message('note_off', channel=4, note=31, velocity=127, time=256),
    Message('note_on', channel=4, note=33, velocity=127, time=224),
    Message('note_off', channel=4, note=33, velocity=127, time=64),
    Message('note_on', channel=4, note=33, velocity=127, time=32),
    Message('note_off', channel=4, note=33, velocity=127, time=64),
    Message('note_on', channel=4, note=47, velocity=127, time=128),
    Message('note_off', channel=4, note=47, velocity=127, time=192),
    Message('note_on', channel=4, note=42, velocity=127, time=0),
    Message('note_off', channel=4, note=42, velocity=127, time=64),
    Message('note_on', channel=4, note=43, velocity=127, time=32),
    Message('note_off', channel=4, note=43, velocity=127, time=64),
    Message('note_on', channel=4, note=50, velocity=127, time=32),
    Message('note_off', channel=4, note=50, velocity=127, time=64),
    Message('note_on', channel=4, note=45, velocity=127, time=32),
    Message('note_off', channel=4, note=45, velocity=127, time=64),
    Message('note_on', channel=4, note=40, velocity=127, time=32),
    Message('note_off', channel=4, note=40, velocity=127, time=64),
    Message('note_on', channel=4, note=42, velocity=127, time=32),
    Message('note_off', channel=4, note=42, velocity=127, time=64),
    Message('note_on', channel=4, note=43, velocity=127, time=32),
    Message('note_off', channel=4, note=43, velocity=127, time=64),
    Message('note_on', channel=4, note=40, velocity=100, time=32),
    Message('note_off', channel=4, note=40, velocity=100, time=64),
    Message('note_on', channel=4, note=41, velocity=100, time=0),
    Message('note_off', channel=4, note=41, velocity=100, time=64),
    Message('note_on', channel=4, note=40, velocity=100, time=0),
    Message('note_off', channel=4, note=40, velocity=100, time=64),
    Message('note_on', channel=4, note=38, velocity=100, time=0),
    Message('note_off', channel=4, note=38, velocity=100, time=64),
    Message('note_on', channel=4, note=40, velocity=100, time=0),
    Message('note_off', channel=4, note=40, velocity=100, time=64),
    Message('note_on', channel=4, note=38, velocity=100, time=0),
    Message('note_off', channel=4, note=38, velocity=100, time=64),
    Message('note_on', channel=4, note=37, velocity=100, time=0),
    Message('note_off', channel=4, note=37, velocity=100, time=64),
    Message('note_on', channel=4, note=38, velocity=100, time=0),
    Message('note_off', channel=4, note=38, velocity=100, time=64),
    Message('note_on', channel=4, note=37, velocity=100, time=0),
    Message('note_off', channel=4, note=37, velocity=100, time=64),
    Message('note_on', channel=4, note=35, velocity=100, time=0),
    Message('note_on', channel=4, note=36, velocity=100, time=60),
    Message('note_off', channel=4, note=35, velocity=100, time=36),
    Message('note_on', channel=4, note=35, velocity=100, time=0),
    Message('note_off', channel=4, note=36, velocity=100, time=60),
    Message('note_off', channel=4, note=35, velocity=100, time=36),
    MetaMessage('end_of_track', time=500)]),
  MidiTrack([
    MetaMessage('track_name', name='Drums: Channel 9', time=0),
    MetaMessage('device_name', name='None', time=0),
    Message('note_on', channel=9, note=36, velocity=127, time=0),
    Message('control_change', channel=9, control=7, value=127, time=0),
    Message('program_change', channel=9, program=118, time=0),
    Message('control_change', channel=9, control=0, value=0, time=0),
    Message('note_off', channel=9, note=36, velocity=127, time=128),
    Message('note_on', channel=9, note=36, velocity=127, time=1120),
    Message('note_off', channel=9, note=36, velocity=127, time=64),
    Message('note_on', channel=9, note=36, velocity=127, time=32),
    Message('note_off', channel=9, note=36, velocity=127, time=64),
    Message('note_on', channel=9, note=36, velocity=127, time=32),
    Message('note_off', channel=9, note=36, velocity=127, time=64),
    Message('note_on', channel=9, note=36, velocity=127, time=1280),
    Message('note_off', channel=9, note=36, velocity=127, time=32),
    Message('note_on', channel=9, note=36, velocity=127, time=16),
    Message('note_off', channel=9, note=36, velocity=127, time=32),
    Message('note_on', channel=9, note=38, velocity=127, time=16),
    Message('note_on', channel=9, note=38, velocity=127, time=20),
    Message('note_off', channel=9, note=38, velocity=127, time=44),
    Message('note_off', channel=9, note=38, velocity=127, time=20),
    Message('note_on', channel=9, note=36, velocity=127, time=12),
    Message('note_off', channel=9, note=36, velocity=127, time=64),
    Message('note_on', channel=9, note=36, velocity=127, time=1280),
    Message('note_off', channel=9, note=36, velocity=127, time=64),
    Message('note_on', channel=9, note=36, velocity=127, time=32),
    Message('note_off', channel=9, note=36, velocity=127, time=64),
    Message('note_on', channel=9, note=36, velocity=127, time=32),
    Message('note_off', channel=9, note=36, velocity=127, time=64),
    Message('note_on', channel=9, note=36, velocity=127, time=1280),
    Message('note_off', channel=9, note=36, velocity=127, time=32),
    Message('note_on', channel=9, note=36, velocity=127, time=16),
    Message('note_off', channel=9, note=36, velocity=127, time=32),
    Message('note_on', channel=9, note=38, velocity=127, time=16),
    Message('note_on', channel=9, note=38, velocity=127, time=20),
    Message('note_off', channel=9, note=38, velocity=127, time=44),
    Message('note_off', channel=9, note=38, velocity=127, time=20),
    Message('note_on', channel=9, note=36, velocity=127, time=12),
    Message('note_off', channel=9, note=36, velocity=127, time=64),
    Message('note_on', channel=9, note=36, velocity=127, time=1280),
    Message('note_off', channel=9, note=36, velocity=127, time=64),
    Message('note_on', channel=9, note=36, velocity=127, time=32),
    Message('note_off', channel=9, note=36, velocity=127, time=64),
    Message('note_on', channel=9, note=36, velocity=127, time=32),
    Message('note_off', channel=9, note=36, velocity=127, time=64),
    Message('note_on', channel=9, note=36, velocity=127, time=1280),
    Message('note_off', channel=9, note=36, velocity=127, time=32),
    Message('note_on', channel=9, note=36, velocity=127, time=16),
    Message('note_off', channel=9, note=36, velocity=127, time=32),
    Message('note_on', channel=9, note=38, velocity=127, time=16),
    Message('note_on', channel=9, note=38, velocity=127, time=20),
    Message('note_off', channel=9, note=38, velocity=127, time=44),
    Message('note_off', channel=9, note=38, velocity=127, time=20),
    Message('note_on', channel=9, note=36, velocity=127, time=12),
    Message('note_off', channel=9, note=36, velocity=127, time=64),
    Message('note_on', channel=9, note=38, velocity=127, time=1472),
    Message('note_off', channel=9, note=38, velocity=127, time=64),
    Message('note_on', channel=9, note=38, velocity=127, time=128),
    Message('note_off', channel=9, note=38, velocity=127, time=64),
    Message('note_on', channel=9, note=38, velocity=127, time=32),
    Message('note_off', channel=9, note=38, velocity=127, time=64),
    Message('note_on', channel=9, note=45, velocity=127, time=416),
    Message('note_off', channel=9, note=45, velocity=127, time=64),
    Message('note_on', channel=9, note=45, velocity=127, time=320),
    Message('note_off', channel=9, note=45, velocity=127, time=64),
    Message('note_on', channel=9, note=45, velocity=127, time=32),
    Message('note_off', channel=9, note=45, velocity=127, time=64),
    Message('note_on', channel=9, note=45, velocity=127, time=32),
    Message('note_off', channel=9, note=45, velocity=127, time=64),
    Message('note_on', channel=9, note=41, velocity=127, time=32),
    Message('note_off', channel=9, note=41, velocity=127, time=64),
    Message('note_on', channel=9, note=36, velocity=127, time=32),
    Message('note_off', channel=9, note=36, velocity=127, time=64),
    Message('note_on', channel=9, note=36, velocity=127, time=128),
    Message('note_off', channel=9, note=36, velocity=127, time=64),
    Message('note_on', channel=9, note=38, velocity=127, time=32),
    Message('note_on', channel=9, note=42, velocity=127, time=0),
    Message('note_off', channel=9, note=38, velocity=127, time=64),
    Message('note_off', channel=9, note=42, velocity=127, time=0),
    Message('note_on', channel=9, note=42, velocity=127, time=32),
    Message('note_on', channel=9, note=36, velocity=127, time=0),
    Message('note_off', channel=9, note=42, velocity=127, time=64),
    Message('note_off', channel=9, note=36, velocity=127, time=0),
    Message('note_on', channel=9, note=42, velocity=127, time=32),
    Message('note_on', channel=9, note=36, velocity=127, time=0),
    Message('note_off', channel=9, note=42, velocity=127, time=64),
    Message('note_off', channel=9, note=36, velocity=127, time=0),
    Message('note_on', channel=9, note=42, velocity=127, time=32),
    Message('note_on', channel=9, note=36, velocity=127, time=0),
    Message('note_off', channel=9, note=42, velocity=127, time=64),
    Message('note_off', channel=9, note=36, velocity=127, time=0),
    Message('note_on', channel=9, note=42, velocity=127, time=32),
    Message('note_on', channel=9, note=38, velocity=127, time=0),
    Message('note_off', channel=9, note=42, velocity=127, time=64),
    Message('note_off', channel=9, note=38, velocity=127, time=0),
    Message('note_on', channel=9, note=42, velocity=127, time=32),
    Message('note_on', channel=9, note=36, velocity=127, time=0),
    Message('note_off', channel=9, note=42, velocity=127, time=64),
    Message('note_off', channel=9, note=36, velocity=127, time=0),
    Message('note_on', channel=9, note=41, velocity=127, time=32),
    Message('note_off', channel=9, note=41, velocity=127, time=64),
    Message('note_on', channel=9, note=41, velocity=127, time=32),
    Message('note_on', channel=9, note=36, velocity=127, time=0),
    Message('note_off', channel=9, note=41, velocity=127, time=64),
    Message('note_off', channel=9, note=36, velocity=127, time=0),
    Message('note_on', channel=9, note=41, velocity=127, time=32),
    Message('note_on', channel=9, note=38, velocity=127, time=0),
    Message('note_off', channel=9, note=41, velocity=127, time=64),
    Message('note_off', channel=9, note=38, velocity=127, time=0),
    Message('note_on', channel=9, note=41, velocity=127, time=32),
    Message('note_on', channel=9, note=36, velocity=127, time=0),
    Message('note_off', channel=9, note=41, velocity=127, time=64),
    Message('note_off', channel=9, note=36, velocity=127, time=0),
    Message('note_on', channel=9, note=41, velocity=127, time=32),
    Message('note_off', channel=9, note=41, velocity=127, time=64),
    Message('note_on', channel=9, note=41, velocity=127, time=32),
    Message('note_on', channel=9, note=36, velocity=127, time=0),
    Message('note_off', channel=9, note=41, velocity=127, time=64),
    Message('note_off', channel=9, note=36, velocity=127, time=0),
    Message('note_on', channel=9, note=38, velocity=127, time=32),
    Message('note_off', channel=9, note=38, velocity=127, time=64),
    Message('note_on', channel=9, note=36, velocity=127, time=32),
    Message('note_off', channel=9, note=36, velocity=127, time=64),
    Message('note_on', channel=9, note=36, velocity=127, time=128),
    Message('note_off', channel=9, note=36, velocity=127, time=64),
    Message('note_on', channel=9, note=38, velocity=127, time=32),
    Message('note_on', channel=9, note=42, velocity=127, time=0),
    Message('note_off', channel=9, note=38, velocity=127, time=64),
    Message('note_off', channel=9, note=42, velocity=127, time=0),
    Message('note_on', channel=9, note=42, velocity=127, time=32),
    Message('note_on', channel=9, note=36, velocity=127, time=0),
    Message('note_off', channel=9, note=42, velocity=127, time=64),
    Message('note_off', channel=9, note=36, velocity=127, time=0),
    Message('note_on', channel=9, note=42, velocity=127, time=32),
    Message('note_on', channel=9, note=36, velocity=127, time=0),
    Message('note_off', channel=9, note=42, velocity=127, time=64),
    Message('note_off', channel=9, note=36, velocity=127, time=0),
    Message('note_on', channel=9, note=42, velocity=127, time=32),
    Message('note_on', channel=9, note=36, velocity=127, time=0),
    Message('note_off', channel=9, note=42, velocity=127, time=64),
    Message('note_off', channel=9, note=36, velocity=127, time=0),
    Message('note_on', channel=9, note=42, velocity=127, time=32),
    Message('note_on', channel=9, note=38, velocity=127, time=0),
    Message('note_off', channel=9, note=42, velocity=127, time=64),
    Message('note_off', channel=9, note=38, velocity=127, time=0),
    Message('note_on', channel=9, note=42, velocity=127, time=32),
    Message('note_on', channel=9, note=36, velocity=127, time=0),
    Message('note_off', channel=9, note=42, velocity=127, time=64),
    Message('note_off', channel=9, note=36, velocity=127, time=0),
    Message('note_on', channel=9, note=41, velocity=127, time=32),
    Message('note_off', channel=9, note=41, velocity=127, time=64),
    Message('note_on', channel=9, note=41, velocity=127, time=32),
    Message('note_on', channel=9, note=36, velocity=127, time=0),
    Message('note_off', channel=9, note=41, velocity=127, time=64),
    Message('note_off', channel=9, note=36, velocity=127, time=0),
    Message('note_on', channel=9, note=41, velocity=127, time=32),
    Message('note_on', channel=9, note=38, velocity=127, time=0),
    Message('note_off', channel=9, note=41, velocity=127, time=64),
    Message('note_off', channel=9, note=38, velocity=127, time=0),
    Message('note_on', channel=9, note=41, velocity=127, time=32),
    Message('note_on', channel=9, note=36, velocity=127, time=0),
    Message('note_off', channel=9, note=41, velocity=127, time=64),
    Message('note_off', channel=9, note=36, velocity=127, time=0),
    Message('note_on', channel=9, note=41, velocity=127, time=32),
    Message('note_off', channel=9, note=41, velocity=127, time=64),
    Message('note_on', channel=9, note=41, velocity=127, time=32),
    Message('note_on', channel=9, note=36, velocity=127, time=0),
    Message('note_off', channel=9, note=41, velocity=127, time=64),
    Message('note_off', channel=9, note=36, velocity=127, time=0),
    Message('note_on', channel=9, note=38, velocity=127, time=32),
    Message('note_off', channel=9, note=38, velocity=127, time=64),
    Message('note_on', channel=9, note=36, velocity=127, time=32),
    Message('note_off', channel=9, note=36, velocity=127, time=64),
    Message('note_on', channel=9, note=36, velocity=127, time=128),
    Message('note_off', channel=9, note=36, velocity=127, time=64),
    Message('note_on', channel=9, note=38, velocity=127, time=32),
    Message('note_on', channel=9, note=42, velocity=127, time=0),
    Message('note_off', channel=9, note=38, velocity=127, time=64),
    Message('note_off', channel=9, note=42, velocity=127, time=0),
    Message('note_on', channel=9, note=42, velocity=127, time=32),
    Message('note_on', channel=9, note=36, velocity=127, time=0),
    Message('note_off', channel=9, note=42, velocity=127, time=64),
    Message('note_off', channel=9, note=36, velocity=127, time=0),
    Message('note_on', channel=9, note=42, velocity=127, time=32),
    Message('note_on', channel=9, note=36, velocity=127, time=0),
    Message('note_off', channel=9, note=42, velocity=127, time=64),
    Message('note_off', channel=9, note=36, velocity=127, time=0),
    Message('note_on', channel=9, note=42, velocity=127, time=32),
    Message('note_on', channel=9, note=36, velocity=127, time=0),
    Message('note_off', channel=9, note=42, velocity=127, time=64),
    Message('note_off', channel=9, note=36, velocity=127, time=0),
    Message('note_on', channel=9, note=42, velocity=127, time=32),
    Message('note_on', channel=9, note=38, velocity=127, time=0),
    Message('note_off', channel=9, note=42, velocity=127, time=64),
    Message('note_off', channel=9, note=38, velocity=127, time=0),
    Message('note_on', channel=9, note=42, velocity=127, time=32),
    Message('note_on', channel=9, note=36, velocity=127, time=0),
    Message('note_off', channel=9, note=42, velocity=127, time=64),
    Message('note_off', channel=9, note=36, velocity=127, time=0),
    Message('note_on', channel=9, note=41, velocity=127, time=32),
    Message('note_off', channel=9, note=41, velocity=127, time=64),
    Message('note_on', channel=9, note=41, velocity=127, time=32),
    Message('note_on', channel=9, note=36, velocity=127, time=0),
    Message('note_off', channel=9, note=41, velocity=127, time=64),
    Message('note_off', channel=9, note=36, velocity=127, time=0),
    Message('note_on', channel=9, note=41, velocity=127, time=32),
    Message('note_on', channel=9, note=38, velocity=127, time=0),
    Message('note_off', channel=9, note=41, velocity=127, time=64),
    Message('note_off', channel=9, note=38, velocity=127, time=0),
    Message('note_on', channel=9, note=41, velocity=127, time=32),
    Message('note_on', channel=9, note=36, velocity=127, time=0),
    Message('note_off', channel=9, note=41, velocity=127, time=64),
    Message('note_off', channel=9, note=36, velocity=127, time=0),
    Message('note_on', channel=9, note=41, velocity=127, time=32),
    Message('note_off', channel=9, note=41, velocity=127, time=64),
    Message('note_on', channel=9, note=41, velocity=127, time=32),
    Message('note_on', channel=9, note=36, velocity=127, time=0),
    Message('note_off', channel=9, note=41, velocity=127, time=64),
    Message('note_off', channel=9, note=36, velocity=127, time=0),
    Message('note_on', channel=9, note=38, velocity=127, time=32),
    Message('note_off', channel=9, note=38, velocity=127, time=64),
    Message('note_on', channel=9, note=36, velocity=127, time=32),
    Message('note_off', channel=9, note=36, velocity=127, time=64),
    Message('note_on', channel=9, note=36, velocity=127, time=128),
    Message('note_off', channel=9, note=36, velocity=127, time=64),
    Message('note_on', channel=9, note=38, velocity=127, time=32),
    Message('note_on', channel=9, note=42, velocity=127, time=0),
    Message('note_off', channel=9, note=38, velocity=127, time=64),
    Message('note_off', channel=9, note=42, velocity=127, time=0),
    Message('note_on', channel=9, note=42, velocity=127, time=32),
    Message('note_on', channel=9, note=36, velocity=127, time=0),
    Message('note_off', channel=9, note=42, velocity=127, time=64),
    Message('note_off', channel=9, note=36, velocity=127, time=0),
    Message('note_on', channel=9, note=42, velocity=127, time=32),
    Message('note_on', channel=9, note=36, velocity=127, time=0),
    Message('note_off', channel=9, note=42, velocity=127, time=64),
    Message('note_off', channel=9, note=36, velocity=127, time=0),
    Message('note_on', channel=9, note=42, velocity=127, time=32),
    Message('note_on', channel=9, note=36, velocity=127, time=0),
    Message('note_off', channel=9, note=42, velocity=127, time=64),
    Message('note_off', channel=9, note=36, velocity=127, time=0),
    Message('note_on', channel=9, note=42, velocity=127, time=32),
    Message('note_on', channel=9, note=38, velocity=127, time=0),
    Message('note_off', channel=9, note=42, velocity=127, time=64),
    Message('note_off', channel=9, note=38, velocity=127, time=0),
    Message('note_on', channel=9, note=42, velocity=127, time=32),
    Message('note_on', channel=9, note=36, velocity=127, time=0),
    Message('note_off', channel=9, note=42, velocity=127, time=64),
    Message('note_off', channel=9, note=36, velocity=127, time=0),
    Message('note_on', channel=9, note=41, velocity=127, time=32),
    Message('note_off', channel=9, note=41, velocity=127, time=64),
    Message('note_on', channel=9, note=41, velocity=127, time=32),
    Message('note_on', channel=9, note=36, velocity=127, time=0),
    Message('note_off', channel=9, note=41, velocity=127, time=64),
    Message('note_off', channel=9, note=36, velocity=127, time=0),
    Message('note_on', channel=9, note=41, velocity=127, time=32),
    Message('note_on', channel=9, note=38, velocity=127, time=0),
    Message('note_off', channel=9, note=41, velocity=127, time=64),
    Message('note_off', channel=9, note=38, velocity=127, time=0),
    Message('note_on', channel=9, note=41, velocity=127, time=32),
    Message('note_on', channel=9, note=36, velocity=127, time=0),
    Message('note_off', channel=9, note=41, velocity=127, time=64),
    Message('note_off', channel=9, note=36, velocity=127, time=0),
    Message('note_on', channel=9, note=41, velocity=127, time=32),
    Message('note_off', channel=9, note=41, velocity=127, time=64),
    Message('note_on', channel=9, note=41, velocity=127, time=32),
    Message('note_on', channel=9, note=36, velocity=127, time=0),
    Message('note_off', channel=9, note=41, velocity=127, time=64),
    Message('note_off', channel=9, note=36, velocity=127, time=0),
    Message('note_on', channel=9, note=38, velocity=127, time=32),
    Message('note_off', channel=9, note=38, velocity=127, time=64),
    Message('note_on', channel=9, note=36, velocity=127, time=32),
    Message('note_off', channel=9, note=36, velocity=127, time=64),
    Message('note_on', channel=9, note=36, velocity=127, time=128),
    Message('note_off', channel=9, note=36, velocity=127, time=64),
    Message('note_on', channel=9, note=38, velocity=127, time=32),
    Message('note_on', channel=9, note=42, velocity=127, time=0),
    Message('note_off', channel=9, note=38, velocity=127, time=64),
    Message('note_off', channel=9, note=42, velocity=127, time=0),
    Message('note_on', channel=9, note=42, velocity=127, time=32),
    Message('note_on', channel=9, note=36, velocity=127, time=0),
    Message('note_off', channel=9, note=42, velocity=127, time=64),
    Message('note_off', channel=9, note=36, velocity=127, time=0),
    Message('note_on', channel=9, note=42, velocity=127, time=32),
    Message('note_on', channel=9, note=36, velocity=127, time=0),
    Message('note_off', channel=9, note=42, velocity=127, time=64),
    Message('note_off', channel=9, note=36, velocity=127, time=0),
    Message('note_on', channel=9, note=42, velocity=127, time=32),
    Message('note_on', channel=9, note=36, velocity=127, time=0),
    Message('note_off', channel=9, note=42, velocity=127, time=64),
    Message('note_off', channel=9, note=36, velocity=127, time=0),
    Message('note_on', channel=9, note=42, velocity=127, time=32),
    Message('note_on', channel=9, note=38, velocity=127, time=0),
    Message('note_off', channel=9, note=42, velocity=127, time=64),
    Message('note_off', channel=9, note=38, velocity=127, time=0),
    Message('note_on', channel=9, note=42, velocity=127, time=32),
    Message('note_on', channel=9, note=36, velocity=127, time=0),
    Message('note_off', channel=9, note=42, velocity=127, time=64),
    Message('note_off', channel=9, note=36, velocity=127, time=0),
    Message('note_on', channel=9, note=41, velocity=127, time=32),
    Message('note_off', channel=9, note=41, velocity=127, time=64),
    Message('note_on', channel=9, note=41, velocity=127, time=32),
    Message('note_on', channel=9, note=36, velocity=127, time=0),
    Message('note_off', channel=9, note=41, velocity=127, time=64),
    Message('note_off', channel=9, note=36, velocity=127, time=0),
    Message('note_on', channel=9, note=41, velocity=127, time=32),
    Message('note_on', channel=9, note=38, velocity=127, time=0),
    Message('note_off', channel=9, note=41, velocity=127, time=64),
    Message('note_off', channel=9, note=38, velocity=127, time=0),
    Message('note_on', channel=9, note=41, velocity=127, time=32),
    Message('note_on', channel=9, note=36, velocity=127, time=0),
    Message('note_off', channel=9, note=41, velocity=127, time=64),
    Message('note_off', channel=9, note=36, velocity=127, time=0),
    Message('note_on', channel=9, note=41, velocity=127, time=32),
    Message('note_off', channel=9, note=41, velocity=127, time=64),
    Message('note_on', channel=9, note=41, velocity=127, time=32),
    Message('note_on', channel=9, note=36, velocity=127, time=0),
    Message('note_off', channel=9, note=41, velocity=127, time=64),
    Message('note_off', channel=9, note=36, velocity=127, time=0),
    Message('note_on', channel=9, note=38, velocity=127, time=32),
    Message('note_off', channel=9, note=38, velocity=127, time=64),
    Message('note_on', channel=9, note=36, velocity=127, time=32),
    Message('note_off', channel=9, note=36, velocity=127, time=64),
    Message('note_on', channel=9, note=36, velocity=127, time=128),
    Message('note_off', channel=9, note=36, velocity=127, time=64),
    Message('note_on', channel=9, note=38, velocity=127, time=32),
    Message('note_on', channel=9, note=42, velocity=127, time=0),
    Message('note_off', channel=9, note=38, velocity=127, time=64),
    Message('note_off', channel=9, note=42, velocity=127, time=0),
    Message('note_on', channel=9, note=42, velocity=127, time=32),
    Message('note_on', channel=9, note=36, velocity=127, time=0),
    Message('note_off', channel=9, note=42, velocity=127, time=64),
    Message('note_off', channel=9, note=36, velocity=127, time=0),
    Message('note_on', channel=9, note=42, velocity=127, time=32),
    Message('note_on', channel=9, note=36, velocity=127, time=0),
    Message('note_off', channel=9, note=42, velocity=127, time=64),
    Message('note_off', channel=9, note=36, velocity=127, time=0),
    Message('note_on', channel=9, note=42, velocity=127, time=32),
    Message('note_on', channel=9, note=36, velocity=127, time=0),
    Message('note_off', channel=9, note=42, velocity=127, time=64),
    Message('note_off', channel=9, note=36, velocity=127, time=0),
    Message('note_on', channel=9, note=42, velocity=127, time=32),
    Message('note_on', channel=9, note=38, velocity=127, time=0),
    Message('note_off', channel=9, note=42, velocity=127, time=64),
    Message('note_off', channel=9, note=38, velocity=127, time=0),
    Message('note_on', channel=9, note=42, velocity=127, time=32),
    Message('note_on', channel=9, note=36, velocity=127, time=0),
    Message('note_off', channel=9, note=42, velocity=127, time=64),
    Message('note_off', channel=9, note=36, velocity=127, time=0),
    Message('note_on', channel=9, note=41, velocity=127, time=32),
    Message('note_off', channel=9, note=41, velocity=127, time=64),
    Message('note_on', channel=9, note=41, velocity=127, time=32),
    Message('note_on', channel=9, note=36, velocity=127, time=0),
    Message('note_off', channel=9, note=41, velocity=127, time=64),
    Message('note_off', channel=9, note=36, velocity=127, time=0),
    Message('note_on', channel=9, note=41, velocity=127, time=32),
    Message('note_on', channel=9, note=38, velocity=127, time=0),
    Message('note_off', channel=9, note=41, velocity=127, time=64),
    Message('note_off', channel=9, note=38, velocity=127, time=0),
    Message('note_on', channel=9, note=41, velocity=127, time=32),
    Message('note_on', channel=9, note=36, velocity=127, time=0),
    Message('note_off', channel=9, note=41, velocity=127, time=64),
    Message('note_off', channel=9, note=36, velocity=127, time=0),
    Message('note_on', channel=9, note=41, velocity=127, time=32),
    Message('note_off', channel=9, note=41, velocity=127, time=64),
    Message('note_on', channel=9, note=41, velocity=127, time=32),
    Message('note_on', channel=9, note=36, velocity=127, time=0),
    Message('note_off', channel=9, note=41, velocity=127, time=64),
    Message('note_off', channel=9, note=36, velocity=127, time=0),
    Message('note_on', channel=9, note=38, velocity=127, time=32),
    Message('note_off', channel=9, note=38, velocity=127, time=64),
    Message('note_on', channel=9, note=36, velocity=127, time=32),
    Message('note_off', channel=9, note=36, velocity=127, time=64),
    Message('note_on', channel=9, note=36, velocity=127, time=128),
    Message('note_off', channel=9, note=36, velocity=127, time=64),
    Message('note_on', channel=9, note=38, velocity=127, time=32),
    Message('note_on', channel=9, note=42, velocity=127, time=0),
    Message('note_off', channel=9, note=38, velocity=127, time=64),
    Message('note_off', channel=9, note=42, velocity=127, time=0),
    Message('note_on', channel=9, note=42, velocity=127, time=32),
    Message('note_on', channel=9, note=36, velocity=127, time=0),
    Message('note_off', channel=9, note=42, velocity=127, time=64),
    Message('note_off', channel=9, note=36, velocity=127, time=0),
    Message('note_on', channel=9, note=42, velocity=127, time=32),
    Message('note_on', channel=9, note=36, velocity=127, time=0),
    Message('note_off', channel=9, note=42, velocity=127, time=64),
    Message('note_off', channel=9, note=36, velocity=127, time=0),
    Message('note_on', channel=9, note=42, velocity=127, time=32),
    Message('note_on', channel=9, note=36, velocity=127, time=0),
    Message('note_off', channel=9, note=42, velocity=127, time=64),
    Message('note_off', channel=9, note=36, velocity=127, time=0),
    Message('note_on', channel=9, note=42, velocity=127, time=32),
    Message('note_on', channel=9, note=38, velocity=127, time=0),
    Message('note_off', channel=9, note=42, velocity=127, time=64),
    Message('note_off', channel=9, note=38, velocity=127, time=0),
    Message('note_on', channel=9, note=42, velocity=127, time=32),
    Message('note_on', channel=9, note=36, velocity=127, time=0),
    Message('note_off', channel=9, note=42, velocity=127, time=64),
    Message('note_off', channel=9, note=36, velocity=127, time=0),
    Message('note_on', channel=9, note=41, velocity=127, time=32),
    Message('note_off', channel=9, note=41, velocity=127, time=64),
    Message('note_on', channel=9, note=41, velocity=127, time=32),
    Message('note_on', channel=9, note=36, velocity=127, time=0),
    Message('note_off', channel=9, note=41, velocity=127, time=64),
    Message('note_off', channel=9, note=36, velocity=127, time=0),
    Message('note_on', channel=9, note=41, velocity=127, time=32),
    Message('note_on', channel=9, note=38, velocity=127, time=0),
    Message('note_off', channel=9, note=41, velocity=127, time=64),
    Message('note_off', channel=9, note=38, velocity=127, time=0),
    Message('note_on', channel=9, note=41, velocity=127, time=32),
    Message('note_on', channel=9, note=36, velocity=127, time=0),
    Message('note_off', channel=9, note=41, velocity=127, time=64),
    Message('note_off', channel=9, note=36, velocity=127, time=0),
    Message('note_on', channel=9, note=41, velocity=127, time=32),
    Message('note_off', channel=9, note=41, velocity=127, time=64),
    Message('note_on', channel=9, note=36, velocity=127, time=32),
    Message('note_off', channel=9, note=36, velocity=127, time=64),
    Message('note_on', channel=9, note=36, velocity=127, time=128),
    Message('note_off', channel=9, note=36, velocity=127, time=64),
    Message('note_on', channel=9, note=36, velocity=127, time=32),
    Message('note_on', channel=9, note=36, velocity=127, time=96),
    Message('note_off', channel=9, note=36, velocity=127, time=32),
    Message('note_off', channel=9, note=36, velocity=127, time=32),
    Message('note_on', channel=9, note=38, velocity=127, time=32),
    Message('note_on', channel=9, note=42, velocity=127, time=0),
    Message('note_off', channel=9, note=38, velocity=127, time=64),
    Message('note_off', channel=9, note=42, velocity=127, time=0),
    Message('note_on', channel=9, note=42, velocity=127, time=32),
    Message('note_on', channel=9, note=36, velocity=127, time=0),
    Message('note_off', channel=9, note=42, velocity=127, time=64),
    Message('note_off', channel=9, note=36, velocity=127, time=0),
    Message('note_on', channel=9, note=42, velocity=127, time=32),
    Message('note_on', channel=9, note=36, velocity=127, time=0),
    Message('note_off', channel=9, note=42, velocity=127, time=64),
    Message('note_off', channel=9, note=36, velocity=127, time=0),
    Message('note_on', channel=9, note=42, velocity=127, time=32),
    Message('note_on', channel=9, note=36, velocity=127, time=0),
    Message('note_off', channel=9, note=42, velocity=127, time=64),
    Message('note_off', channel=9, note=36, velocity=127, time=0),
    Message('note_on', channel=9, note=42, velocity=127, time=32),
    Message('note_on', channel=9, note=38, velocity=127, time=0),
    Message('note_off', channel=9, note=42, velocity=127, time=64),
    Message('note_off', channel=9, note=38, velocity=127, time=0),
    Message('note_on', channel=9, note=42, velocity=127, time=32),
    Message('note_on', channel=9, note=36, velocity=127, time=0),
    Message('note_off', channel=9, note=42, velocity=127, time=64),
    Message('note_off', channel=9, note=36, velocity=127, time=0),
    Message('note_on', channel=9, note=41, velocity=127, time=32),
    Message('note_off', channel=9, note=41, velocity=127, time=64),
    Message('note_on', channel=9, note=41, velocity=127, time=32),
    Message('note_on', channel=9, note=36, velocity=127, time=0),
    Message('note_off', channel=9, note=41, velocity=127, time=64),
    Message('note_off', channel=9, note=36, velocity=127, time=0),
    Message('note_on', channel=9, note=41, velocity=127, time=32),
    Message('note_on', channel=9, note=38, velocity=127, time=0),
    Message('note_off', channel=9, note=41, velocity=127, time=64),
    Message('note_off', channel=9, note=38, velocity=127, time=0),
    Message('note_on', channel=9, note=41, velocity=127, time=32),
    Message('note_on', channel=9, note=36, velocity=127, time=0),
    Message('note_off', channel=9, note=41, velocity=127, time=64),
    Message('note_off', channel=9, note=36, velocity=127, time=0),
    Message('note_on', channel=9, note=41, velocity=127, time=32),
    Message('note_off', channel=9, note=41, velocity=127, time=64),
    Message('note_on', channel=9, note=36, velocity=127, time=32),
    Message('note_off', channel=9, note=36, velocity=127, time=64),
    Message('note_on', channel=9, note=36, velocity=127, time=128),
    Message('note_off', channel=9, note=36, velocity=127, time=64),
    Message('note_on', channel=9, note=36, velocity=127, time=32),
    Message('note_on', channel=9, note=36, velocity=127, time=96),
    Message('note_off', channel=9, note=36, velocity=127, time=32),
    Message('note_off', channel=9, note=36, velocity=127, time=32),
    Message('note_on', channel=9, note=38, velocity=127, time=32),
    Message('note_on', channel=9, note=42, velocity=127, time=0),
    Message('note_off', channel=9, note=38, velocity=127, time=64),
    Message('note_off', channel=9, note=42, velocity=127, time=0),
    Message('note_on', channel=9, note=42, velocity=127, time=32),
    Message('note_on', channel=9, note=36, velocity=127, time=0),
    Message('note_off', channel=9, note=42, velocity=127, time=64),
    Message('note_off', channel=9, note=36, velocity=127, time=0),
    Message('note_on', channel=9, note=42, velocity=127, time=32),
    Message('note_on', channel=9, note=36, velocity=127, time=0),
    Message('note_off', channel=9, note=42, velocity=127, time=64),
    Message('note_off', channel=9, note=36, velocity=127, time=0),
    Message('note_on', channel=9, note=42, velocity=127, time=32),
    Message('note_on', channel=9, note=36, velocity=127, time=0),
    Message('note_off', channel=9, note=42, velocity=127, time=64),
    Message('note_off', channel=9, note=36, velocity=127, time=0),
    Message('note_on', channel=9, note=42, velocity=127, time=32),
    Message('note_on', channel=9, note=38, velocity=127, time=0),
    Message('note_off', channel=9, note=42, velocity=127, time=64),
    Message('note_off', channel=9, note=38, velocity=127, time=0),
    Message('note_on', channel=9, note=42, velocity=127, time=32),
    Message('note_on', channel=9, note=36, velocity=127, time=0),
    Message('note_off', channel=9, note=42, velocity=127, time=64),
    Message('note_off', channel=9, note=36, velocity=127, time=0),
    Message('note_on', channel=9, note=41, velocity=127, time=32),
    Message('note_off', channel=9, note=41, velocity=127, time=64),
    Message('note_on', channel=9, note=41, velocity=127, time=32),
    Message('note_on', channel=9, note=36, velocity=127, time=0),
    Message('note_off', channel=9, note=41, velocity=127, time=64),
    Message('note_off', channel=9, note=36, velocity=127, time=0),
    Message('note_on', channel=9, note=41, velocity=127, time=32),
    Message('note_on', channel=9, note=38, velocity=127, time=0),
    Message('note_off', channel=9, note=41, velocity=127, time=64),
    Message('note_off', channel=9, note=38, velocity=127, time=0),
    Message('note_on', channel=9, note=41, velocity=127, time=32),
    Message('note_on', channel=9, note=36, velocity=127, time=0),
    Message('note_off', channel=9, note=41, velocity=127, time=64),
    Message('note_off', channel=9, note=36, velocity=127, time=0),
    Message('note_on', channel=9, note=41, velocity=127, time=32),
    Message('note_off', channel=9, note=41, velocity=127, time=64),
    Message('note_on', channel=9, note=41, velocity=127, time=32),
    Message('note_on', channel=9, note=36, velocity=127, time=0),
    Message('note_off', channel=9, note=41, velocity=127, time=64),
    Message('note_off', channel=9, note=36, velocity=127, time=0),
    Message('note_on', channel=9, note=38, velocity=127, time=32),
    Message('note_off', channel=9, note=38, velocity=127, time=64),
    Message('note_on', channel=9, note=36, velocity=127, time=32),
    Message('note_off', channel=9, note=36, velocity=127, time=64),
    Message('note_on', channel=9, note=36, velocity=127, time=128),
    Message('note_off', channel=9, note=36, velocity=127, time=64),
    Message('note_on', channel=9, note=38, velocity=127, time=32),
    Message('note_on', channel=9, note=42, velocity=127, time=0),
    Message('note_off', channel=9, note=38, velocity=127, time=64),
    Message('note_off', channel=9, note=42, velocity=127, time=0),
    Message('note_on', channel=9, note=42, velocity=127, time=32),
    Message('note_on', channel=9, note=36, velocity=127, time=0),
    Message('note_off', channel=9, note=42, velocity=127, time=64),
    Message('note_off', channel=9, note=36, velocity=127, time=0),
    Message('note_on', channel=9, note=42, velocity=127, time=32),
    Message('note_on', channel=9, note=36, velocity=127, time=0),
    Message('note_off', channel=9, note=42, velocity=127, time=64),
    Message('note_off', channel=9, note=36, velocity=127, time=0),
    Message('note_on', channel=9, note=42, velocity=127, time=32),
    Message('note_on', channel=9, note=36, velocity=127, time=0),
    Message('note_off', channel=9, note=42, velocity=127, time=64),
    Message('note_off', channel=9, note=36, velocity=127, time=0),
    Message('note_on', channel=9, note=42, velocity=127, time=32),
    Message('note_on', channel=9, note=38, velocity=127, time=0),
    Message('note_off', channel=9, note=42, velocity=127, time=64),
    Message('note_off', channel=9, note=38, velocity=127, time=0),
    Message('note_on', channel=9, note=42, velocity=127, time=32),
    Message('note_on', channel=9, note=36, velocity=127, time=0),
    Message('note_off', channel=9, note=42, velocity=127, time=64),
    Message('note_off', channel=9, note=36, velocity=127, time=0),
    Message('note_on', channel=9, note=41, velocity=127, time=32),
    Message('note_off', channel=9, note=41, velocity=127, time=64),
    Message('note_on', channel=9, note=38, velocity=127, time=32),
    Message('note_off', channel=9, note=38, velocity=127, time=32),
    Message('note_on', channel=9, note=38, velocity=127, time=16),
    Message('note_off', channel=9, note=38, velocity=127, time=32),
    Message('note_on', channel=9, note=38, velocity=127, time=16),
    Message('note_off', channel=9, note=38, velocity=127, time=64),
    Message('note_on', channel=9, note=36, velocity=127, time=416),
    Message('note_off', channel=9, note=36, velocity=127, time=64),
    Message('note_on', channel=9, note=36, velocity=127, time=224),
    Message('note_off', channel=9, note=36, velocity=127, time=64),
    Message('note_on', channel=9, note=36, velocity=127, time=32),
    Message('note_off', channel=9, note=36, velocity=127, time=64),
    Message('note_on', channel=9, note=38, velocity=127, time=32),
    Message('note_off', channel=9, note=38, velocity=127, time=64),
    Message('note_on', channel=9, note=36, velocity=127, time=32),
    Message('note_off', channel=9, note=36, velocity=127, time=64),
    Message('note_on', channel=9, note=36, velocity=127, time=128),
    Message('note_off', channel=9, note=36, velocity=127, time=64),
    Message('note_on', channel=9, note=36, velocity=127, time=128),
    Message('note_off', channel=9, note=36, velocity=127, time=64),
    Message('note_on', channel=9, note=36, velocity=127, time=32),
    Message('note_off', channel=9, note=36, velocity=127, time=64),
    Message('note_on', channel=9, note=36, velocity=127, time=32),
    Message('note_off', channel=9, note=36, velocity=127, time=64),
    Message('note_on', channel=9, note=38, velocity=127, time=32),
    Message('note_off', channel=9, note=38, velocity=127, time=64),
    Message('note_on', channel=9, note=36, velocity=127, time=32),
    Message('note_off', channel=9, note=36, velocity=127, time=64),
    Message('note_on', channel=9, note=36, velocity=127, time=32),
    Message('note_off', channel=9, note=36, velocity=127, time=64),
    Message('note_on', channel=9, note=36, velocity=127, time=32),
    Message('note_off', channel=9, note=36, velocity=127, time=64),
    Message('note_on', channel=9, note=38, velocity=127, time=416),
    Message('note_off', channel=9, note=38, velocity=127, time=64),
    Message('note_on', channel=9, note=36, velocity=127, time=32),
    Message('note_off', channel=9, note=36, velocity=127, time=64),
    Message('note_on', channel=9, note=36, velocity=127, time=128),
    Message('note_off', channel=9, note=36, velocity=127, time=64),
    Message('note_on', channel=9, note=36, velocity=127, time=32),
    Message('note_off', channel=9, note=36, velocity=127, time=128),
    Message('note_on', channel=9, note=38, velocity=127, time=256),
    Message('note_on', channel=9, note=38, velocity=127, time=20),
    Message('note_off', channel=9, note=38, velocity=127, time=44),
    Message('note_off', channel=9, note=38, velocity=127, time=20),
    Message('note_on', channel=9, note=36, velocity=127, time=12),
    Message('note_off', channel=9, note=36, velocity=127, time=64),
    Message('note_on', channel=9, note=36, velocity=127, time=128),
    Message('note_off', channel=9, note=36, velocity=127, time=64),
    Message('note_on', channel=9, note=36, velocity=127, time=32),
    Message('note_off', channel=9, note=36, velocity=127, time=128),
    Message('note_on', channel=9, note=36, velocity=127, time=64),
    Message('note_off', channel=9, note=36, velocity=127, time=64),
    Message('note_on', channel=9, note=36, velocity=127, time=32),
    Message('note_off', channel=9, note=36, velocity=127, time=64),
    Message('note_on', channel=9, note=38, velocity=127, time=32),
    Message('note_off', channel=9, note=38, velocity=127, time=64),
    Message('note_on', channel=9, note=36, velocity=127, time=32),
    Message('note_off', channel=9, note=36, velocity=127, time=64),
    Message('note_on', channel=9, note=36, velocity=127, time=128),
    Message('note_off', channel=9, note=36, velocity=127, time=64),
    Message('note_on', channel=9, note=36, velocity=127, time=128),
    Message('note_off', channel=9, note=36, velocity=127, time=64),
    Message('note_on', channel=9, note=36, velocity=127, time=32),
    Message('note_off', channel=9, note=36, velocity=127, time=64),
    Message('note_on', channel=9, note=36, velocity=127, time=32),
    Message('note_off', channel=9, note=36, velocity=127, time=64),
    Message('note_on', channel=9, note=38, velocity=127, time=32),
    Message('note_off', channel=9, note=38, velocity=127, time=64),
    Message('note_on', channel=9, note=36, velocity=127, time=32),
    Message('note_off', channel=9, note=36, velocity=127, time=64),
    Message('note_on', channel=9, note=36, velocity=127, time=32),
    Message('note_off', channel=9, note=36, velocity=127, time=64),
    Message('note_on', channel=9, note=36, velocity=127, time=32),
    Message('note_off', channel=9, note=36, velocity=127, time=64),
    Message('note_on', channel=9, note=38, velocity=127, time=416),
    Message('note_off', channel=9, note=38, velocity=127, time=64),
    Message('note_on', channel=9, note=36, velocity=127, time=32),
    Message('note_off', channel=9, note=36, velocity=127, time=64),
    Message('note_on', channel=9, note=36, velocity=127, time=128),
    Message('note_off', channel=9, note=36, velocity=127, time=64),
    Message('note_on', channel=9, note=36, velocity=127, time=32),
    Message('note_off', channel=9, note=36, velocity=127, time=128),
    Message('note_on', channel=9, note=38, velocity=127, time=256),
    Message('note_on', channel=9, note=38, velocity=127, time=20),
    Message('note_off', channel=9, note=38, velocity=127, time=44),
    Message('note_off', channel=9, note=38, velocity=127, time=20),
    Message('note_on', channel=9, note=36, velocity=127, time=12),
    Message('note_off', channel=9, note=36, velocity=127, time=64),
    Message('note_on', channel=9, note=36, velocity=127, time=128),
    Message('note_off', channel=9, note=36, velocity=127, time=64),
    Message('note_on', channel=9, note=36, velocity=127, time=32),
    Message('note_off', channel=9, note=36, velocity=127, time=128),
    Message('note_on', channel=9, note=36, velocity=127, time=64),
    Message('note_off', channel=9, note=36, velocity=127, time=64),
    Message('note_on', channel=9, note=36, velocity=127, time=32),
    Message('note_off', channel=9, note=36, velocity=127, time=64),
    Message('note_on', channel=9, note=38, velocity=127, time=32),
    Message('note_off', channel=9, note=38, velocity=127, time=64),
    Message('note_on', channel=9, note=36, velocity=127, time=32),
    Message('note_off', channel=9, note=36, velocity=127, time=64),
    Message('note_on', channel=9, note=36, velocity=127, time=128),
    Message('note_off', channel=9, note=36, velocity=127, time=64),
    Message('note_on', channel=9, note=36, velocity=127, time=128),
    Message('note_off', channel=9, note=36, velocity=127, time=64),
    Message('note_on', channel=9, note=36, velocity=127, time=32),
    Message('note_off', channel=9, note=36, velocity=127, time=64),
    Message('note_on', channel=9, note=36, velocity=127, time=32),
    Message('note_off', channel=9, note=36, velocity=127, time=64),
    Message('note_on', channel=9, note=38, velocity=127, time=32),
    Message('note_off', channel=9, note=38, velocity=127, time=64),
    Message('note_on', channel=9, note=36, velocity=127, time=32),
    Message('note_off', channel=9, note=36, velocity=127, time=64),
    Message('note_on', channel=9, note=36, velocity=127, time=32),
    Message('note_off', channel=9, note=36, velocity=127, time=64),
    Message('note_on', channel=9, note=36, velocity=127, time=32),
    Message('note_off', channel=9, note=36, velocity=127, time=64),
    Message('note_on', channel=9, note=38, velocity=127, time=416),
    Message('note_off', channel=9, note=38, velocity=127, time=64),
    Message('note_on', channel=9, note=36, velocity=127, time=32),
    Message('note_off', channel=9, note=36, velocity=127, time=64),
    Message('note_on', channel=9, note=36, velocity=127, time=128),
    Message('note_off', channel=9, note=36, velocity=127, time=64),
    Message('note_on', channel=9, note=36, velocity=127, time=32),
    Message('note_off', channel=9, note=36, velocity=127, time=128),
    Message('note_on', channel=9, note=38, velocity=127, time=256),
    Message('note_on', channel=9, note=38, velocity=127, time=20),
    Message('note_off', channel=9, note=38, velocity=127, time=44),
    Message('note_off', channel=9, note=38, velocity=127, time=20),
    Message('note_on', channel=9, note=36, velocity=127, time=12),
    Message('note_off', channel=9, note=36, velocity=127, time=64),
    Message('note_on', channel=9, note=36, velocity=127, time=128),
    Message('note_off', channel=9, note=36, velocity=127, time=64),
    Message('note_on', channel=9, note=36, velocity=127, time=32),
    Message('note_off', channel=9, note=36, velocity=127, time=128),
    Message('note_on', channel=9, note=36, velocity=127, time=64),
    Message('note_off', channel=9, note=36, velocity=127, time=64),
    Message('note_on', channel=9, note=36, velocity=127, time=32),
    Message('note_off', channel=9, note=36, velocity=127, time=64),
    Message('note_on', channel=9, note=38, velocity=127, time=32),
    Message('note_off', channel=9, note=38, velocity=127, time=64),
    Message('note_on', channel=9, note=36, velocity=127, time=32),
    Message('note_off', channel=9, note=36, velocity=127, time=64),
    Message('note_on', channel=9, note=36, velocity=127, time=128),
    Message('note_off', channel=9, note=36, velocity=127, time=64),
    Message('note_on', channel=9, note=36, velocity=127, time=128),
    Message('note_off', channel=9, note=36, velocity=127, time=64),
    Message('note_on', channel=9, note=36, velocity=127, time=32),
    Message('note_off', channel=9, note=36, velocity=127, time=64),
    Message('note_on', channel=9, note=36, velocity=127, time=32),
    Message('note_off', channel=9, note=36, velocity=127, time=64),
    Message('note_on', channel=9, note=38, velocity=127, time=32),
    Message('note_off', channel=9, note=38, velocity=127, time=64),
    Message('note_on', channel=9, note=36, velocity=127, time=32),
    Message('note_off', channel=9, note=36, velocity=127, time=64),
    Message('note_on', channel=9, note=36, velocity=127, time=32),
    Message('note_off', channel=9, note=36, velocity=127, time=64),
    Message('note_on', channel=9, note=36, velocity=127, time=32),
    Message('note_off', channel=9, note=36, velocity=127, time=64),
    Message('note_on', channel=9, note=38, velocity=127, time=416),
    Message('note_on', channel=9, note=36, velocity=127, time=96),
    Message('note_off', channel=9, note=38, velocity=127, time=32),
    Message('note_off', channel=9, note=36, velocity=127, time=32),
    Message('note_on', channel=9, note=36, velocity=127, time=128),
    Message('note_off', channel=9, note=36, velocity=127, time=64),
    Message('note_on', channel=9, note=36, velocity=127, time=32),
    Message('note_off', channel=9, note=36, velocity=127, time=128),
    Message('note_on', channel=9, note=38, velocity=127, time=64),
    Message('note_off', channel=9, note=38, velocity=127, time=32),
    Message('note_on', channel=9, note=38, velocity=127, time=16),
    Message('note_off', channel=9, note=38, velocity=127, time=32),
    Message('note_on', channel=9, note=38, velocity=127, time=16),
    Message('note_off', channel=9, note=38, velocity=127, time=64),
    Message('note_on', channel=9, note=45, velocity=127, time=224),
    Message('note_off', channel=9, note=45, velocity=127, time=64),
    Message('note_on', channel=9, note=36, velocity=127, time=32),
    Message('note_off', channel=9, note=36, velocity=127, time=64),
    Message('note_on', channel=9, note=36, velocity=127, time=128),
    Message('note_off', channel=9, note=36, velocity=127, time=64),
    Message('note_on', channel=9, note=38, velocity=127, time=32),
    Message('note_on', channel=9, note=42, velocity=127, time=0),
    Message('note_off', channel=9, note=38, velocity=127, time=64),
    Message('note_off', channel=9, note=42, velocity=127, time=0),
    Message('note_on', channel=9, note=42, velocity=127, time=32),
    Message('note_on', channel=9, note=36, velocity=127, time=0),
    Message('note_off', channel=9, note=42, velocity=127, time=64),
    Message('note_off', channel=9, note=36, velocity=127, time=0),
    Message('note_on', channel=9, note=42, velocity=127, time=32),
    Message('note_on', channel=9, note=36, velocity=127, time=0),
    Message('note_off', channel=9, note=42, velocity=127, time=64),
    Message('note_off', channel=9, note=36, velocity=127, time=0),
    Message('note_on', channel=9, note=42, velocity=127, time=32),
    Message('note_on', channel=9, note=36, velocity=127, time=0),
    Message('note_off', channel=9, note=42, velocity=127, time=64),
    Message('note_off', channel=9, note=36, velocity=127, time=0),
    Message('note_on', channel=9, note=42, velocity=127, time=32),
    Message('note_on', channel=9, note=38, velocity=127, time=0),
    Message('note_off', channel=9, note=42, velocity=127, time=64),
    Message('note_off', channel=9, note=38, velocity=127, time=0),
    Message('note_on', channel=9, note=42, velocity=127, time=32),
    Message('note_on', channel=9, note=36, velocity=127, time=0),
    Message('note_off', channel=9, note=42, velocity=127, time=64),
    Message('note_off', channel=9, note=36, velocity=127, time=0),
    Message('note_on', channel=9, note=41, velocity=127, time=32),
    Message('note_off', channel=9, note=41, velocity=127, time=64),
    Message('note_on', channel=9, note=41, velocity=127, time=32),
    Message('note_on', channel=9, note=36, velocity=127, time=0),
    Message('note_off', channel=9, note=41, velocity=127, time=64),
    Message('note_off', channel=9, note=36, velocity=127, time=0),
    Message('note_on', channel=9, note=41, velocity=127, time=32),
    Message('note_on', channel=9, note=38, velocity=127, time=0),
    Message('note_off', channel=9, note=41, velocity=127, time=64),
    Message('note_off', channel=9, note=38, velocity=127, time=0),
    Message('note_on', channel=9, note=41, velocity=127, time=32),
    Message('note_on', channel=9, note=36, velocity=127, time=0),
    Message('note_off', channel=9, note=41, velocity=127, time=64),
    Message('note_off', channel=9, note=36, velocity=127, time=0),
    Message('note_on', channel=9, note=41, velocity=127, time=32),
    Message('note_off', channel=9, note=41, velocity=127, time=64),
    Message('note_on', channel=9, note=41, velocity=127, time=32),
    Message('note_on', channel=9, note=36, velocity=127, time=0),
    Message('note_off', channel=9, note=41, velocity=127, time=64),
    Message('note_off', channel=9, note=36, velocity=127, time=0),
    Message('note_on', channel=9, note=38, velocity=127, time=32),
    Message('note_off', channel=9, note=38, velocity=127, time=64),
    Message('note_on', channel=9, note=36, velocity=127, time=32),
    Message('note_off', channel=9, note=36, velocity=127, time=64),
    Message('note_on', channel=9, note=36, velocity=127, time=128),
    Message('note_off', channel=9, note=36, velocity=127, time=64),
    Message('note_on', channel=9, note=38, velocity=127, time=32),
    Message('note_on', channel=9, note=42, velocity=127, time=0),
    Message('note_off', channel=9, note=38, velocity=127, time=64),
    Message('note_off', channel=9, note=42, velocity=127, time=0),
    Message('note_on', channel=9, note=42, velocity=127, time=32),
    Message('note_on', channel=9, note=36, velocity=127, time=0),
    Message('note_off', channel=9, note=42, velocity=127, time=64),
    Message('note_off', channel=9, note=36, velocity=127, time=0),
    Message('note_on', channel=9, note=42, velocity=127, time=32),
    Message('note_on', channel=9, note=36, velocity=127, time=0),
    Message('note_off', channel=9, note=42, velocity=127, time=64),
    Message('note_off', channel=9, note=36, velocity=127, time=0),
    Message('note_on', channel=9, note=42, velocity=127, time=32),
    Message('note_on', channel=9, note=36, velocity=127, time=0),
    Message('note_off', channel=9, note=42, velocity=127, time=64),
    Message('note_off', channel=9, note=36, velocity=127, time=0),
    Message('note_on', channel=9, note=42, velocity=127, time=32),
    Message('note_on', channel=9, note=38, velocity=127, time=0),
    Message('note_off', channel=9, note=42, velocity=127, time=64),
    Message('note_off', channel=9, note=38, velocity=127, time=0),
    Message('note_on', channel=9, note=42, velocity=127, time=32),
    Message('note_on', channel=9, note=36, velocity=127, time=0),
    Message('note_off', channel=9, note=42, velocity=127, time=64),
    Message('note_off', channel=9, note=36, velocity=127, time=0),
    Message('note_on', channel=9, note=41, velocity=127, time=32),
    Message('note_off', channel=9, note=41, velocity=127, time=64),
    Message('note_on', channel=9, note=41, velocity=127, time=32),
    Message('note_on', channel=9, note=36, velocity=127, time=0),
    Message('note_off', channel=9, note=41, velocity=127, time=64),
    Message('note_off', channel=9, note=36, velocity=127, time=0),
    Message('note_on', channel=9, note=41, velocity=127, time=32),
    Message('note_on', channel=9, note=38, velocity=127, time=0),
    Message('note_off', channel=9, note=41, velocity=127, time=64),
    Message('note_off', channel=9, note=38, velocity=127, time=0),
    Message('note_on', channel=9, note=41, velocity=127, time=32),
    Message('note_on', channel=9, note=36, velocity=127, time=0),
    Message('note_off', channel=9, note=41, velocity=127, time=64),
    Message('note_off', channel=9, note=36, velocity=127, time=0),
    Message('note_on', channel=9, note=41, velocity=127, time=32),
    Message('note_off', channel=9, note=41, velocity=127, time=64),
    Message('note_on', channel=9, note=41, velocity=127, time=32),
    Message('note_on', channel=9, note=36, velocity=127, time=0),
    Message('note_off', channel=9, note=41, velocity=127, time=64),
    Message('note_off', channel=9, note=36, velocity=127, time=0),
    Message('note_on', channel=9, note=38, velocity=127, time=32),
    Message('note_off', channel=9, note=38, velocity=127, time=64),
    Message('note_on', channel=9, note=36, velocity=127, time=32),
    Message('note_off', channel=9, note=36, velocity=127, time=64),
    Message('note_on', channel=9, note=36, velocity=127, time=128),
    Message('note_off', channel=9, note=36, velocity=127, time=64),
    Message('note_on', channel=9, note=38, velocity=127, time=32),
    Message('note_on', channel=9, note=42, velocity=127, time=0),
    Message('note_off', channel=9, note=38, velocity=127, time=64),
    Message('note_off', channel=9, note=42, velocity=127, time=0),
    Message('note_on', channel=9, note=42, velocity=127, time=32),
    Message('note_on', channel=9, note=36, velocity=127, time=0),
    Message('note_off', channel=9, note=42, velocity=127, time=64),
    Message('note_off', channel=9, note=36, velocity=127, time=0),
    Message('note_on', channel=9, note=42, velocity=127, time=32),
    Message('note_on', channel=9, note=36, velocity=127, time=0),
    Message('note_off', channel=9, note=42, velocity=127, time=64),
    Message('note_off', channel=9, note=36, velocity=127, time=0),
    Message('note_on', channel=9, note=42, velocity=127, time=32),
    Message('note_on', channel=9, note=36, velocity=127, time=0),
    Message('note_off', channel=9, note=42, velocity=127, time=64),
    Message('note_off', channel=9, note=36, velocity=127, time=0),
    Message('note_on', channel=9, note=42, velocity=127, time=32),
    Message('note_on', channel=9, note=38, velocity=127, time=0),
    Message('note_off', channel=9, note=42, velocity=127, time=64),
    Message('note_off', channel=9, note=38, velocity=127, time=0),
    Message('note_on', channel=9, note=42, velocity=127, time=32),
    Message('note_on', channel=9, note=36, velocity=127, time=0),
    Message('note_off', channel=9, note=42, velocity=127, time=64),
    Message('note_off', channel=9, note=36, velocity=127, time=0),
    Message('note_on', channel=9, note=41, velocity=127, time=32),
    Message('note_off', channel=9, note=41, velocity=127, time=64),
    Message('note_on', channel=9, note=41, velocity=127, time=32),
    Message('note_on', channel=9, note=36, velocity=127, time=0),
    Message('note_off', channel=9, note=41, velocity=127, time=64),
    Message('note_off', channel=9, note=36, velocity=127, time=0),
    Message('note_on', channel=9, note=41, velocity=127, time=32),
    Message('note_on', channel=9, note=38, velocity=127, time=0),
    Message('note_off', channel=9, note=41, velocity=127, time=64),
    Message('note_off', channel=9, note=38, velocity=127, time=0),
    Message('note_on', channel=9, note=41, velocity=127, time=32),
    Message('note_on', channel=9, note=36, velocity=127, time=0),
    Message('note_off', channel=9, note=41, velocity=127, time=64),
    Message('note_off', channel=9, note=36, velocity=127, time=0),
    Message('note_on', channel=9, note=41, velocity=127, time=32),
    Message('note_off', channel=9, note=41, velocity=127, time=64),
    Message('note_on', channel=9, note=41, velocity=127, time=32),
    Message('note_on', channel=9, note=36, velocity=127, time=0),
    Message('note_off', channel=9, note=41, velocity=127, time=64),
    Message('note_off', channel=9, note=36, velocity=127, time=0),
    Message('note_on', channel=9, note=38, velocity=127, time=32),
    Message('note_off', channel=9, note=38, velocity=127, time=64),
    Message('note_on', channel=9, note=36, velocity=127, time=32),
    Message('note_off', channel=9, note=36, velocity=127, time=64),
    Message('note_on', channel=9, note=36, velocity=127, time=128),
    Message('note_off', channel=9, note=36, velocity=127, time=64),
    Message('note_on', channel=9, note=38, velocity=127, time=32),
    Message('note_on', channel=9, note=42, velocity=127, time=0),
    Message('note_off', channel=9, note=38, velocity=127, time=64),
    Message('note_off', channel=9, note=42, velocity=127, time=0),
    Message('note_on', channel=9, note=42, velocity=127, time=32),
    Message('note_on', channel=9, note=36, velocity=127, time=0),
    Message('note_off', channel=9, note=42, velocity=127, time=64),
    Message('note_off', channel=9, note=36, velocity=127, time=0),
    Message('note_on', channel=9, note=42, velocity=127, time=32),
    Message('note_on', channel=9, note=36, velocity=127, time=0),
    Message('note_off', channel=9, note=42, velocity=127, time=64),
    Message('note_off', channel=9, note=36, velocity=127, time=0),
    Message('note_on', channel=9, note=42, velocity=127, time=32),
    Message('note_on', channel=9, note=36, velocity=127, time=0),
    Message('note_off', channel=9, note=42, velocity=127, time=64),
    Message('note_off', channel=9, note=36, velocity=127, time=0),
    Message('note_on', channel=9, note=42, velocity=127, time=32),
    Message('note_on', channel=9, note=38, velocity=127, time=0),
    Message('note_off', channel=9, note=42, velocity=127, time=64),
    Message('note_off', channel=9, note=38, velocity=127, time=0),
    Message('note_on', channel=9, note=42, velocity=127, time=32),
    Message('note_on', channel=9, note=36, velocity=127, time=0),
    Message('note_off', channel=9, note=42, velocity=127, time=64),
    Message('note_off', channel=9, note=36, velocity=127, time=0),
    Message('note_on', channel=9, note=41, velocity=127, time=32),
    Message('note_off', channel=9, note=41, velocity=127, time=64),
    Message('note_on', channel=9, note=41, velocity=127, time=32),
    Message('note_on', channel=9, note=36, velocity=127, time=0),
    Message('note_off', channel=9, note=41, velocity=127, time=64),
    Message('note_off', channel=9, note=36, velocity=127, time=0),
    Message('note_on', channel=9, note=41, velocity=127, time=32),
    Message('note_on', channel=9, note=38, velocity=127, time=0),
    Message('note_off', channel=9, note=41, velocity=127, time=64),
    Message('note_off', channel=9, note=38, velocity=127, time=0),
    Message('note_on', channel=9, note=41, velocity=127, time=32),
    Message('note_on', channel=9, note=36, velocity=127, time=0),
    Message('note_off', channel=9, note=41, velocity=127, time=64),
    Message('note_off', channel=9, note=36, velocity=127, time=0),
    Message('note_on', channel=9, note=41, velocity=127, time=32),
    Message('note_off', channel=9, note=41, velocity=127, time=64),
    Message('note_on', channel=9, note=41, velocity=127, time=32),
    Message('note_on', channel=9, note=36, velocity=127, time=0),
    Message('note_off', channel=9, note=41, velocity=127, time=64),
    Message('note_off', channel=9, note=36, velocity=127, time=0),
    Message('note_on', channel=9, note=38, velocity=127, time=32),
    Message('note_off', channel=9, note=38, velocity=127, time=64),
    Message('note_on', channel=9, note=36, velocity=127, time=32),
    Message('note_off', channel=9, note=36, velocity=127, time=64),
    Message('note_on', channel=9, note=36, velocity=127, time=128),
    Message('note_off', channel=9, note=36, velocity=127, time=64),
    Message('note_on', channel=9, note=38, velocity=127, time=32),
    Message('note_on', channel=9, note=42, velocity=127, time=0),
    Message('note_off', channel=9, note=38, velocity=127, time=64),
    Message('note_off', channel=9, note=42, velocity=127, time=0),
    Message('note_on', channel=9, note=42, velocity=127, time=32),
    Message('note_on', channel=9, note=36, velocity=127, time=0),
    Message('note_off', channel=9, note=42, velocity=127, time=64),
    Message('note_off', channel=9, note=36, velocity=127, time=0),
    Message('note_on', channel=9, note=42, velocity=127, time=32),
    Message('note_on', channel=9, note=36, velocity=127, time=0),
    Message('note_off', channel=9, note=42, velocity=127, time=64),
    Message('note_off', channel=9, note=36, velocity=127, time=0),
    Message('note_on', channel=9, note=42, velocity=127, time=32),
    Message('note_on', channel=9, note=36, velocity=127, time=0),
    Message('note_off', channel=9, note=42, velocity=127, time=64),
    Message('note_off', channel=9, note=36, velocity=127, time=0),
    Message('note_on', channel=9, note=42, velocity=127, time=32),
    Message('note_on', channel=9, note=38, velocity=127, time=0),
    Message('note_off', channel=9, note=42, velocity=127, time=64),
    Message('note_off', channel=9, note=38, velocity=127, time=0),
    Message('note_on', channel=9, note=42, velocity=127, time=32),
    Message('note_on', channel=9, note=36, velocity=127, time=0),
    Message('note_off', channel=9, note=42, velocity=127, time=64),
    Message('note_off', channel=9, note=36, velocity=127, time=0),
    Message('note_on', channel=9, note=41, velocity=127, time=32),
    Message('note_off', channel=9, note=41, velocity=127, time=64),
    Message('note_on', channel=9, note=41, velocity=127, time=32),
    Message('note_on', channel=9, note=36, velocity=127, time=0),
    Message('note_off', channel=9, note=41, velocity=127, time=64),
    Message('note_off', channel=9, note=36, velocity=127, time=0),
    Message('note_on', channel=9, note=41, velocity=127, time=32),
    Message('note_on', channel=9, note=38, velocity=127, time=0),
    Message('note_off', channel=9, note=41, velocity=127, time=64),
    Message('note_off', channel=9, note=38, velocity=127, time=0),
    Message('note_on', channel=9, note=41, velocity=127, time=32),
    Message('note_on', channel=9, note=36, velocity=127, time=0),
    Message('note_off', channel=9, note=41, velocity=127, time=64),
    Message('note_off', channel=9, note=36, velocity=127, time=0),
    Message('note_on', channel=9, note=41, velocity=127, time=32),
    Message('note_off', channel=9, note=41, velocity=127, time=64),
    Message('note_on', channel=9, note=41, velocity=127, time=32),
    Message('note_on', channel=9, note=36, velocity=127, time=0),
    Message('note_off', channel=9, note=41, velocity=127, time=64),
    Message('note_off', channel=9, note=36, velocity=127, time=0),
    Message('note_on', channel=9, note=38, velocity=127, time=32),
    Message('note_off', channel=9, note=38, velocity=127, time=64),
    Message('note_on', channel=9, note=36, velocity=127, time=32),
    Message('note_off', channel=9, note=36, velocity=127, time=64),
    Message('note_on', channel=9, note=36, velocity=127, time=128),
    Message('note_off', channel=9, note=36, velocity=127, time=64),
    Message('note_on', channel=9, note=38, velocity=127, time=32),
    Message('note_on', channel=9, note=42, velocity=127, time=0),
    Message('note_off', channel=9, note=38, velocity=127, time=64),
    Message('note_off', channel=9, note=42, velocity=127, time=0),
    Message('note_on', channel=9, note=42, velocity=127, time=32),
    Message('note_on', channel=9, note=36, velocity=127, time=0),
    Message('note_off', channel=9, note=42, velocity=127, time=64),
    Message('note_off', channel=9, note=36, velocity=127, time=0),
    Message('note_on', channel=9, note=42, velocity=127, time=32),
    Message('note_on', channel=9, note=36, velocity=127, time=0),
    Message('note_off', channel=9, note=42, velocity=127, time=64),
    Message('note_off', channel=9, note=36, velocity=127, time=0),
    Message('note_on', channel=9, note=42, velocity=127, time=32),
    Message('note_on', channel=9, note=36, velocity=127, time=0),
    Message('note_off', channel=9, note=42, velocity=127, time=64),
    Message('note_off', channel=9, note=36, velocity=127, time=0),
    Message('note_on', channel=9, note=42, velocity=127, time=32),
    Message('note_on', channel=9, note=38, velocity=127, time=0),
    Message('note_off', channel=9, note=42, velocity=127, time=64),
    Message('note_off', channel=9, note=38, velocity=127, time=0),
    Message('note_on', channel=9, note=42, velocity=127, time=32),
    Message('note_on', channel=9, note=36, velocity=127, time=0),
    Message('note_off', channel=9, note=42, velocity=127, time=64),
    Message('note_off', channel=9, note=36, velocity=127, time=0),
    Message('note_on', channel=9, note=41, velocity=127, time=32),
    Message('note_off', channel=9, note=41, velocity=127, time=64),
    Message('note_on', channel=9, note=41, velocity=127, time=32),
    Message('note_on', channel=9, note=36, velocity=127, time=0),
    Message('note_off', channel=9, note=41, velocity=127, time=64),
    Message('note_off', channel=9, note=36, velocity=127, time=0),
    Message('note_on', channel=9, note=41, velocity=127, time=32),
    Message('note_on', channel=9, note=38, velocity=127, time=0),
    Message('note_off', channel=9, note=41, velocity=127, time=64),
    Message('note_off', channel=9, note=38, velocity=127, time=0),
    Message('note_on', channel=9, note=41, velocity=127, time=32),
    Message('note_on', channel=9, note=36, velocity=127, time=0),
    Message('note_off', channel=9, note=41, velocity=127, time=64),
    Message('note_off', channel=9, note=36, velocity=127, time=0),
    Message('note_on', channel=9, note=41, velocity=127, time=32),
    Message('note_off', channel=9, note=41, velocity=127, time=64),
    Message('note_on', channel=9, note=41, velocity=127, time=32),
    Message('note_on', channel=9, note=36, velocity=127, time=0),
    Message('note_off', channel=9, note=41, velocity=127, time=64),
    Message('note_off', channel=9, note=36, velocity=127, time=0),
    Message('note_on', channel=9, note=38, velocity=127, time=32),
    Message('note_off', channel=9, note=38, velocity=127, time=64),
    Message('note_on', channel=9, note=36, velocity=127, time=32),
    Message('note_off', channel=9, note=36, velocity=127, time=64),
    Message('note_on', channel=9, note=36, velocity=127, time=128),
    Message('note_off', channel=9, note=36, velocity=127, time=64),
    Message('note_on', channel=9, note=38, velocity=127, time=32),
    Message('note_on', channel=9, note=42, velocity=127, time=0),
    Message('note_off', channel=9, note=38, velocity=127, time=64),
    Message('note_off', channel=9, note=42, velocity=127, time=0),
    Message('note_on', channel=9, note=42, velocity=127, time=32),
    Message('note_on', channel=9, note=36, velocity=127, time=0),
    Message('note_off', channel=9, note=42, velocity=127, time=64),
    Message('note_off', channel=9, note=36, velocity=127, time=0),
    Message('note_on', channel=9, note=42, velocity=127, time=32),
    Message('note_on', channel=9, note=36, velocity=127, time=0),
    Message('note_off', channel=9, note=42, velocity=127, time=64),
    Message('note_off', channel=9, note=36, velocity=127, time=0),
    Message('note_on', channel=9, note=42, velocity=127, time=32),
    Message('note_on', channel=9, note=36, velocity=127, time=0),
    Message('note_off', channel=9, note=42, velocity=127, time=64),
    Message('note_off', channel=9, note=36, velocity=127, time=0),
    Message('note_on', channel=9, note=42, velocity=127, time=32),
    Message('note_on', channel=9, note=38, velocity=127, time=0),
    Message('note_off', channel=9, note=42, velocity=127, time=64),
    Message('note_off', channel=9, note=38, velocity=127, time=0),
    Message('note_on', channel=9, note=42, velocity=127, time=32),
    Message('note_on', channel=9, note=36, velocity=127, time=0),
    Message('note_off', channel=9, note=42, velocity=127, time=64),
    Message('note_off', channel=9, note=36, velocity=127, time=0),
    Message('note_on', channel=9, note=41, velocity=127, time=32),
    Message('note_off', channel=9, note=41, velocity=127, time=64),
    Message('note_on', channel=9, note=41, velocity=127, time=32),
    Message('note_on', channel=9, note=36, velocity=127, time=0),
    Message('note_off', channel=9, note=41, velocity=127, time=64),
    Message('note_off', channel=9, note=36, velocity=127, time=0),
    Message('note_on', channel=9, note=41, velocity=127, time=32),
    Message('note_on', channel=9, note=38, velocity=127, time=0),
    Message('note_off', channel=9, note=41, velocity=127, time=64),
    Message('note_off', channel=9, note=38, velocity=127, time=0),
    Message('note_on', channel=9, note=41, velocity=127, time=32),
    Message('note_on', channel=9, note=36, velocity=127, time=0),
    Message('note_off', channel=9, note=41, velocity=127, time=64),
    Message('note_off', channel=9, note=36, velocity=127, time=0),
    Message('note_on', channel=9, note=41, velocity=127, time=32),
    Message('note_off', channel=9, note=41, velocity=127, time=64),
    Message('note_on', channel=9, note=36, velocity=127, time=32),
    Message('note_off', channel=9, note=36, velocity=127, time=64),
    Message('note_on', channel=9, note=36, velocity=127, time=128),
    Message('note_off', channel=9, note=36, velocity=127, time=64),
    Message('note_on', channel=9, note=36, velocity=127, time=32),
    Message('note_on', channel=9, note=36, velocity=127, time=96),
    Message('note_off', channel=9, note=36, velocity=127, time=32),
    Message('note_off', channel=9, note=36, velocity=127, time=32),
    Message('note_on', channel=9, note=38, velocity=127, time=32),
    Message('note_on', channel=9, note=42, velocity=127, time=0),
    Message('note_off', channel=9, note=38, velocity=127, time=64),
    Message('note_off', channel=9, note=42, velocity=127, time=0),
    Message('note_on', channel=9, note=42, velocity=127, time=32),
    Message('note_on', channel=9, note=36, velocity=127, time=0),
    Message('note_off', channel=9, note=42, velocity=127, time=64),
    Message('note_off', channel=9, note=36, velocity=127, time=0),
    Message('note_on', channel=9, note=42, velocity=127, time=32),
    Message('note_on', channel=9, note=36, velocity=127, time=0),
    Message('note_off', channel=9, note=42, velocity=127, time=64),
    Message('note_off', channel=9, note=36, velocity=127, time=0),
    Message('note_on', channel=9, note=42, velocity=127, time=32),
    Message('note_on', channel=9, note=36, velocity=127, time=0),
    Message('note_off', channel=9, note=42, velocity=127, time=64),
    Message('note_off', channel=9, note=36, velocity=127, time=0),
    Message('note_on', channel=9, note=42, velocity=127, time=32),
    Message('note_on', channel=9, note=38, velocity=127, time=0),
    Message('note_off', channel=9, note=42, velocity=127, time=64),
    Message('note_off', channel=9, note=38, velocity=127, time=0),
    Message('note_on', channel=9, note=42, velocity=127, time=32),
    Message('note_on', channel=9, note=36, velocity=127, time=0),
    Message('note_off', channel=9, note=42, velocity=127, time=64),
    Message('note_off', channel=9, note=36, velocity=127, time=0),
    Message('note_on', channel=9, note=41, velocity=127, time=32),
    Message('note_off', channel=9, note=41, velocity=127, time=64),
    Message('note_on', channel=9, note=41, velocity=127, time=32),
    Message('note_on', channel=9, note=36, velocity=127, time=0),
    Message('note_off', channel=9, note=41, velocity=127, time=64),
    Message('note_off', channel=9, note=36, velocity=127, time=0),
    Message('note_on', channel=9, note=41, velocity=127, time=32),
    Message('note_on', channel=9, note=38, velocity=127, time=0),
    Message('note_off', channel=9, note=41, velocity=127, time=64),
    Message('note_off', channel=9, note=38, velocity=127, time=0),
    Message('note_on', channel=9, note=41, velocity=127, time=32),
    Message('note_on', channel=9, note=36, velocity=127, time=0),
    Message('note_off', channel=9, note=41, velocity=127, time=64),
    Message('note_off', channel=9, note=36, velocity=127, time=0),
    Message('note_on', channel=9, note=41, velocity=127, time=32),
    Message('note_off', channel=9, note=41, velocity=127, time=64),
    Message('note_on', channel=9, note=36, velocity=127, time=32),
    Message('note_off', channel=9, note=36, velocity=127, time=64),
    Message('note_on', channel=9, note=36, velocity=127, time=128),
    Message('note_off', channel=9, note=36, velocity=127, time=64),
    Message('note_on', channel=9, note=36, velocity=127, time=32),
    Message('note_on', channel=9, note=36, velocity=127, time=96),
    Message('note_off', channel=9, note=36, velocity=127, time=32),
    Message('note_off', channel=9, note=36, velocity=127, time=32),
    Message('note_on', channel=9, note=38, velocity=127, time=32),
    Message('note_on', channel=9, note=42, velocity=127, time=0),
    Message('note_off', channel=9, note=38, velocity=127, time=64),
    Message('note_off', channel=9, note=42, velocity=127, time=0),
    Message('note_on', channel=9, note=42, velocity=127, time=32),
    Message('note_on', channel=9, note=36, velocity=127, time=0),
    Message('note_off', channel=9, note=42, velocity=127, time=64),
    Message('note_off', channel=9, note=36, velocity=127, time=0),
    Message('note_on', channel=9, note=42, velocity=127, time=32),
    Message('note_on', channel=9, note=36, velocity=127, time=0),
    Message('note_off', channel=9, note=42, velocity=127, time=64),
    Message('note_off', channel=9, note=36, velocity=127, time=0),
    Message('note_on', channel=9, note=42, velocity=127, time=32),
    Message('note_on', channel=9, note=36, velocity=127, time=0),
    Message('note_off', channel=9, note=42, velocity=127, time=64),
    Message('note_off', channel=9, note=36, velocity=127, time=0),
    Message('note_on', channel=9, note=42, velocity=127, time=32),
    Message('note_on', channel=9, note=38, velocity=127, time=0),
    Message('note_off', channel=9, note=42, velocity=127, time=64),
    Message('note_off', channel=9, note=38, velocity=127, time=0),
    Message('note_on', channel=9, note=42, velocity=127, time=32),
    Message('note_on', channel=9, note=36, velocity=127, time=0),
    Message('note_off', channel=9, note=42, velocity=127, time=64),
    Message('note_off', channel=9, note=36, velocity=127, time=0),
    Message('note_on', channel=9, note=41, velocity=127, time=32),
    Message('note_off', channel=9, note=41, velocity=127, time=64),
    Message('note_on', channel=9, note=41, velocity=127, time=32),
    Message('note_on', channel=9, note=36, velocity=127, time=0),
    Message('note_off', channel=9, note=41, velocity=127, time=64),
    Message('note_off', channel=9, note=36, velocity=127, time=0),
    Message('note_on', channel=9, note=41, velocity=127, time=32),
    Message('note_on', channel=9, note=38, velocity=127, time=0),
    Message('note_off', channel=9, note=41, velocity=127, time=64),
    Message('note_off', channel=9, note=38, velocity=127, time=0),
    Message('note_on', channel=9, note=41, velocity=127, time=32),
    Message('note_on', channel=9, note=36, velocity=127, time=0),
    Message('note_off', channel=9, note=41, velocity=127, time=64),
    Message('note_off', channel=9, note=36, velocity=127, time=0),
    Message('note_on', channel=9, note=41, velocity=127, time=32),
    Message('note_off', channel=9, note=41, velocity=127, time=64),
    Message('note_on', channel=9, note=41, velocity=127, time=32),
    Message('note_on', channel=9, note=36, velocity=127, time=0),
    Message('note_off', channel=9, note=41, velocity=127, time=64),
    Message('note_off', channel=9, note=36, velocity=127, time=0),
    Message('note_on', channel=9, note=38, velocity=127, time=32),
    Message('note_off', channel=9, note=38, velocity=127, time=64),
    Message('note_on', channel=9, note=36, velocity=127, time=32),
    Message('note_off', channel=9, note=36, velocity=127, time=64),
    Message('note_on', channel=9, note=36, velocity=127, time=128),
    Message('note_off', channel=9, note=36, velocity=127, time=64),
    Message('note_on', channel=9, note=38, velocity=127, time=32),
    Message('note_on', channel=9, note=42, velocity=127, time=0),
    Message('note_off', channel=9, note=38, velocity=127, time=64),
    Message('note_off', channel=9, note=42, velocity=127, time=0),
    Message('note_on', channel=9, note=42, velocity=127, time=32),
    Message('note_on', channel=9, note=36, velocity=127, time=0),
    Message('note_off', channel=9, note=42, velocity=127, time=64),
    Message('note_off', channel=9, note=36, velocity=127, time=0),
    Message('note_on', channel=9, note=42, velocity=127, time=32),
    Message('note_on', channel=9, note=36, velocity=127, time=0),
    Message('note_off', channel=9, note=42, velocity=127, time=64),
    Message('note_off', channel=9, note=36, velocity=127, time=0),
    Message('note_on', channel=9, note=42, velocity=127, time=32),
    Message('note_on', channel=9, note=36, velocity=127, time=0),
    Message('note_off', channel=9, note=42, velocity=127, time=64),
    Message('note_off', channel=9, note=36, velocity=127, time=0),
    Message('note_on', channel=9, note=42, velocity=127, time=32),
    Message('note_on', channel=9, note=38, velocity=127, time=0),
    Message('note_off', channel=9, note=42, velocity=127, time=64),
    Message('note_off', channel=9, note=38, velocity=127, time=0),
    Message('note_on', channel=9, note=42, velocity=127, time=32),
    Message('note_on', channel=9, note=36, velocity=127, time=0),
    Message('note_off', channel=9, note=42, velocity=127, time=64),
    Message('note_off', channel=9, note=36, velocity=127, time=0),
    Message('note_on', channel=9, note=41, velocity=127, time=32),
    Message('note_off', channel=9, note=41, velocity=127, time=64),
    Message('note_on', channel=9, note=38, velocity=127, time=32),
    Message('note_off', channel=9, note=38, velocity=127, time=32),
    Message('note_on', channel=9, note=38, velocity=127, time=16),
    Message('note_off', channel=9, note=38, velocity=127, time=32),
    Message('note_on', channel=9, note=38, velocity=127, time=16),
    Message('note_off', channel=9, note=38, velocity=127, time=64),
    Message('note_on', channel=9, note=36, velocity=127, time=416),
    Message('note_off', channel=9, note=36, velocity=127, time=64),
    Message('note_on', channel=9, note=36, velocity=127, time=224),
    Message('note_off', channel=9, note=36, velocity=127, time=64),
    Message('note_on', channel=9, note=36, velocity=127, time=32),
    Message('note_off', channel=9, note=36, velocity=127, time=64),
    Message('note_on', channel=9, note=38, velocity=127, time=32),
    Message('note_off', channel=9, note=38, velocity=127, time=64),
    Message('note_on', channel=9, note=36, velocity=127, time=32),
    Message('note_off', channel=9, note=36, velocity=127, time=64),
    Message('note_on', channel=9, note=36, velocity=127, time=128),
    Message('note_off', channel=9, note=36, velocity=127, time=64),
    Message('note_on', channel=9, note=36, velocity=127, time=128),
    Message('note_off', channel=9, note=36, velocity=127, time=64),
    Message('note_on', channel=9, note=36, velocity=127, time=32),
    Message('note_off', channel=9, note=36, velocity=127, time=64),
    Message('note_on', channel=9, note=36, velocity=127, time=32),
    Message('note_off', channel=9, note=36, velocity=127, time=64),
    Message('note_on', channel=9, note=38, velocity=127, time=32),
    Message('note_off', channel=9, note=38, velocity=127, time=64),
    Message('note_on', channel=9, note=36, velocity=127, time=32),
    Message('note_off', channel=9, note=36, velocity=127, time=64),
    Message('note_on', channel=9, note=36, velocity=127, time=32),
    Message('note_off', channel=9, note=36, velocity=127, time=64),
    Message('note_on', channel=9, note=36, velocity=127, time=32),
    Message('note_off', channel=9, note=36, velocity=127, time=64),
    Message('note_on', channel=9, note=38, velocity=127, time=416),
    Message('note_off', channel=9, note=38, velocity=127, time=64),
    Message('note_on', channel=9, note=36, velocity=127, time=32),
    Message('note_off', channel=9, note=36, velocity=127, time=64),
    Message('note_on', channel=9, note=36, velocity=127, time=128),
    Message('note_off', channel=9, note=36, velocity=127, time=64),
    Message('note_on', channel=9, note=36, velocity=127, time=32),
    Message('note_off', channel=9, note=36, velocity=127, time=128),
    Message('note_on', channel=9, note=38, velocity=127, time=256),
    Message('note_on', channel=9, note=38, velocity=127, time=20),
    Message('note_off', channel=9, note=38, velocity=127, time=44),
    Message('note_off', channel=9, note=38, velocity=127, time=20),
    Message('note_on', channel=9, note=36, velocity=127, time=12),
    Message('note_off', channel=9, note=36, velocity=127, time=64),
    Message('note_on', channel=9, note=36, velocity=127, time=128),
    Message('note_off', channel=9, note=36, velocity=127, time=64),
    Message('note_on', channel=9, note=36, velocity=127, time=32),
    Message('note_off', channel=9, note=36, velocity=127, time=128),
    Message('note_on', channel=9, note=36, velocity=127, time=64),
    Message('note_off', channel=9, note=36, velocity=127, time=64),
    Message('note_on', channel=9, note=36, velocity=127, time=32),
    Message('note_off', channel=9, note=36, velocity=127, time=64),
    Message('note_on', channel=9, note=38, velocity=127, time=32),
    Message('note_off', channel=9, note=38, velocity=127, time=64),
    Message('note_on', channel=9, note=36, velocity=127, time=32),
    Message('note_off', channel=9, note=36, velocity=127, time=64),
    Message('note_on', channel=9, note=36, velocity=127, time=128),
    Message('note_off', channel=9, note=36, velocity=127, time=64),
    Message('note_on', channel=9, note=36, velocity=127, time=128),
    Message('note_off', channel=9, note=36, velocity=127, time=64),
    Message('note_on', channel=9, note=36, velocity=127, time=32),
    Message('note_off', channel=9, note=36, velocity=127, time=64),
    Message('note_on', channel=9, note=36, velocity=127, time=32),
    Message('note_off', channel=9, note=36, velocity=127, time=64),
    Message('note_on', channel=9, note=38, velocity=127, time=32),
    Message('note_off', channel=9, note=38, velocity=127, time=64),
    Message('note_on', channel=9, note=36, velocity=127, time=32),
    Message('note_off', channel=9, note=36, velocity=127, time=64),
    Message('note_on', channel=9, note=36, velocity=127, time=32),
    Message('note_off', channel=9, note=36, velocity=127, time=64),
    Message('note_on', channel=9, note=36, velocity=127, time=32),
    Message('note_off', channel=9, note=36, velocity=127, time=64),
    Message('note_on', channel=9, note=38, velocity=127, time=416),
    Message('note_off', channel=9, note=38, velocity=127, time=64),
    Message('note_on', channel=9, note=36, velocity=127, time=32),
    Message('note_off', channel=9, note=36, velocity=127, time=64),
    Message('note_on', channel=9, note=36, velocity=127, time=128),
    Message('note_off', channel=9, note=36, velocity=127, time=64),
    Message('note_on', channel=9, note=36, velocity=127, time=32),
    Message('note_off', channel=9, note=36, velocity=127, time=128),
    Message('note_on', channel=9, note=38, velocity=127, time=256),
    Message('note_on', channel=9, note=38, velocity=127, time=20),
    Message('note_off', channel=9, note=38, velocity=127, time=44),
    Message('note_off', channel=9, note=38, velocity=127, time=20),
    Message('note_on', channel=9, note=36, velocity=127, time=12),
    Message('note_off', channel=9, note=36, velocity=127, time=64),
    Message('note_on', channel=9, note=36, velocity=127, time=128),
    Message('note_off', channel=9, note=36, velocity=127, time=64),
    Message('note_on', channel=9, note=36, velocity=127, time=32),
    Message('note_off', channel=9, note=36, velocity=127, time=128),
    Message('note_on', channel=9, note=36, velocity=127, time=64),
    Message('note_off', channel=9, note=36, velocity=127, time=64),
    Message('note_on', channel=9, note=36, velocity=127, time=32),
    Message('note_off', channel=9, note=36, velocity=127, time=64),
    Message('note_on', channel=9, note=38, velocity=127, time=32),
    Message('note_off', channel=9, note=38, velocity=127, time=64),
    Message('note_on', channel=9, note=36, velocity=127, time=32),
    Message('note_off', channel=9, note=36, velocity=127, time=64),
    Message('note_on', channel=9, note=36, velocity=127, time=128),
    Message('note_off', channel=9, note=36, velocity=127, time=64),
    Message('note_on', channel=9, note=36, velocity=127, time=128),
    Message('note_off', channel=9, note=36, velocity=127, time=64),
    Message('note_on', channel=9, note=36, velocity=127, time=32),
    Message('note_off', channel=9, note=36, velocity=127, time=64),
    Message('note_on', channel=9, note=36, velocity=127, time=32),
    Message('note_off', channel=9, note=36, velocity=127, time=64),
    Message('note_on', channel=9, note=38, velocity=127, time=32),
    Message('note_off', channel=9, note=38, velocity=127, time=64),
    Message('note_on', channel=9, note=36, velocity=127, time=32),
    Message('note_off', channel=9, note=36, velocity=127, time=64),
    Message('note_on', channel=9, note=36, velocity=127, time=32),
    Message('note_off', channel=9, note=36, velocity=127, time=64),
    Message('note_on', channel=9, note=36, velocity=127, time=32),
    Message('note_off', channel=9, note=36, velocity=127, time=64),
    Message('note_on', channel=9, note=38, velocity=127, time=416),
    Message('note_off', channel=9, note=38, velocity=127, time=64),
    Message('note_on', channel=9, note=36, velocity=127, time=32),
    Message('note_off', channel=9, note=36, velocity=127, time=64),
    Message('note_on', channel=9, note=36, velocity=127, time=128),
    Message('note_off', channel=9, note=36, velocity=127, time=64),
    Message('note_on', channel=9, note=36, velocity=127, time=32),
    Message('note_off', channel=9, note=36, velocity=127, time=128),
    Message('note_on', channel=9, note=38, velocity=127, time=256),
    Message('note_on', channel=9, note=38, velocity=127, time=20),
    Message('note_off', channel=9, note=38, velocity=127, time=44),
    Message('note_off', channel=9, note=38, velocity=127, time=20),
    Message('note_on', channel=9, note=36, velocity=127, time=12),
    Message('note_off', channel=9, note=36, velocity=127, time=64),
    Message('note_on', channel=9, note=36, velocity=127, time=128),
    Message('note_off', channel=9, note=36, velocity=127, time=64),
    Message('note_on', channel=9, note=36, velocity=127, time=32),
    Message('note_off', channel=9, note=36, velocity=127, time=128),
    Message('note_on', channel=9, note=36, velocity=127, time=64),
    Message('note_off', channel=9, note=36, velocity=127, time=64),
    Message('note_on', channel=9, note=36, velocity=127, time=32),
    Message('note_off', channel=9, note=36, velocity=127, time=64),
    Message('note_on', channel=9, note=38, velocity=127, time=32),
    Message('note_off', channel=9, note=38, velocity=127, time=64),
    Message('note_on', channel=9, note=36, velocity=127, time=32),
    Message('note_off', channel=9, note=36, velocity=127, time=64),
    Message('note_on', channel=9, note=36, velocity=127, time=128),
    Message('note_off', channel=9, note=36, velocity=127, time=64),
    Message('note_on', channel=9, note=36, velocity=127, time=128),
    Message('note_off', channel=9, note=36, velocity=127, time=64),
    Message('note_on', channel=9, note=36, velocity=127, time=32),
    Message('note_off', channel=9, note=36, velocity=127, time=64),
    Message('note_on', channel=9, note=36, velocity=127, time=32),
    Message('note_off', channel=9, note=36, velocity=127, time=64),
    Message('note_on', channel=9, note=38, velocity=127, time=32),
    Message('note_off', channel=9, note=38, velocity=127, time=64),
    Message('note_on', channel=9, note=36, velocity=127, time=32),
    Message('note_off', channel=9, note=36, velocity=127, time=64),
    Message('note_on', channel=9, note=36, velocity=127, time=32),
    Message('note_off', channel=9, note=36, velocity=127, time=64),
    Message('note_on', channel=9, note=36, velocity=127, time=32),
    Message('note_off', channel=9, note=36, velocity=127, time=64),
    Message('note_on', channel=9, note=38, velocity=127, time=416),
    Message('note_on', channel=9, note=36, velocity=127, time=96),
    Message('note_off', channel=9, note=38, velocity=127, time=32),
    Message('note_off', channel=9, note=36, velocity=127, time=32),
    Message('note_on', channel=9, note=36, velocity=127, time=128),
    Message('note_off', channel=9, note=36, velocity=127, time=64),
    Message('note_on', channel=9, note=36, velocity=127, time=32),
    Message('note_off', channel=9, note=36, velocity=127, time=128),
    Message('note_on', channel=9, note=38, velocity=127, time=64),
    Message('note_off', channel=9, note=38, velocity=127, time=32),
    Message('note_on', channel=9, note=38, velocity=127, time=16),
    Message('note_off', channel=9, note=38, velocity=127, time=32),
    Message('note_on', channel=9, note=38, velocity=127, time=16),
    Message('note_off', channel=9, note=38, velocity=127, time=64),
    Message('note_on', channel=9, note=45, velocity=127, time=224),
    Message('note_off', channel=9, note=45, velocity=127, time=64),
    Message('note_on', channel=9, note=36, velocity=127, time=32),
    Message('note_off', channel=9, note=36, velocity=127, time=64),
    Message('note_on', channel=9, note=36, velocity=127, time=128),
    Message('note_off', channel=9, note=36, velocity=127, time=64),
    Message('note_on', channel=9, note=42, velocity=127, time=32),
    Message('note_on', channel=9, note=38, velocity=127, time=0),
    Message('note_off', channel=9, note=42, velocity=127, time=64),
    Message('note_off', channel=9, note=38, velocity=127, time=0),
    Message('note_on', channel=9, note=42, velocity=127, time=32),
    Message('note_off', channel=9, note=42, velocity=127, time=64),
    Message('note_on', channel=9, note=42, velocity=127, time=32),
    Message('note_off', channel=9, note=42, velocity=127, time=64),
    Message('note_on', channel=9, note=42, velocity=127, time=32),
    Message('note_on', channel=9, note=36, velocity=127, time=0),
    Message('note_off', channel=9, note=42, velocity=127, time=64),
    Message('note_off', channel=9, note=36, velocity=127, time=0),
    Message('note_on', channel=9, note=42, velocity=127, time=32),
    Message('note_on', channel=9, note=38, velocity=127, time=0),
    Message('note_off', channel=9, note=42, velocity=127, time=64),
    Message('note_off', channel=9, note=38, velocity=127, time=0),
    Message('note_on', channel=9, note=42, velocity=127, time=32),
    Message('note_on', channel=9, note=36, velocity=127, time=0),
    Message('note_off', channel=9, note=42, velocity=127, time=64),
    Message('note_off', channel=9, note=36, velocity=127, time=0),
    Message('note_on', channel=9, note=42, velocity=127, time=32),
    Message('note_off', channel=9, note=42, velocity=127, time=64),
    Message('note_on', channel=9, note=42, velocity=127, time=32),
    Message('note_off', channel=9, note=42, velocity=127, time=64),
    Message('note_on', channel=9, note=42, velocity=127, time=32),
    Message('note_on', channel=9, note=38, velocity=127, time=0),
    Message('note_off', channel=9, note=42, velocity=127, time=64),
    Message('note_off', channel=9, note=38, velocity=127, time=0),
    Message('note_on', channel=9, note=42, velocity=127, time=32),
    Message('note_off', channel=9, note=42, velocity=127, time=64),
    Message('note_on', channel=9, note=36, velocity=127, time=32),
    Message('note_on', channel=9, note=42, velocity=127, time=0),
    Message('note_off', channel=9, note=36, velocity=127, time=32),
    Message('note_on', channel=9, note=36, velocity=127, time=16),
    Message('note_off', channel=9, note=42, velocity=127, time=16),
    Message('note_off', channel=9, note=36, velocity=127, time=16),
    Message('note_on', channel=9, note=42, velocity=127, time=16),
    Message('note_on', channel=9, note=36, velocity=127, time=0),
    Message('note_off', channel=9, note=42, velocity=127, time=64),
    Message('note_off', channel=9, note=36, velocity=127, time=0),
    Message('note_on', channel=9, note=42, velocity=127, time=32),
    Message('note_on', channel=9, note=38, velocity=127, time=0),
    Message('note_off', channel=9, note=42, velocity=127, time=64),
    Message('note_off', channel=9, note=38, velocity=127, time=0),
    Message('note_on', channel=9, note=42, velocity=127, time=32),
    Message('note_off', channel=9, note=42, velocity=127, time=64),
    Message('note_on', channel=9, note=36, velocity=127, time=32),
    Message('note_off', channel=9, note=36, velocity=127, time=128),
    Message('note_on', channel=9, note=42, velocity=127, time=64),
    Message('note_on', channel=9, note=38, velocity=127, time=0),
    Message('note_off', channel=9, note=42, velocity=127, time=64),
    Message('note_off', channel=9, note=38, velocity=127, time=0),
    Message('note_on', channel=9, note=42, velocity=127, time=32),
    Message('note_off', channel=9, note=42, velocity=127, time=64),
    Message('note_on', channel=9, note=42, velocity=127, time=32),
    Message('note_off', channel=9, note=42, velocity=127, time=64),
    Message('note_on', channel=9, note=42, velocity=127, time=32),
    Message('note_on', channel=9, note=36, velocity=127, time=0),
    Message('note_off', channel=9, note=42, velocity=127, time=64),
    Message('note_off', channel=9, note=36, velocity=127, time=0),
    Message('note_on', channel=9, note=42, velocity=127, time=32),
    Message('note_on', channel=9, note=38, velocity=127, time=0),
    Message('note_off', channel=9, note=42, velocity=127, time=64),
    Message('note_off', channel=9, note=38, velocity=127, time=0),
    Message('note_on', channel=9, note=42, velocity=127, time=32),
    Message('note_on', channel=9, note=36, velocity=127, time=0),
    Message('note_off', channel=9, note=42, velocity=127, time=64),
    Message('note_off', channel=9, note=36, velocity=127, time=0),
    Message('note_on', channel=9, note=42, velocity=127, time=32),
    Message('note_off', channel=9, note=42, velocity=127, time=64),
    Message('note_on', channel=9, note=42, velocity=127, time=32),
    Message('note_off', channel=9, note=42, velocity=127, time=64),
    Message('note_on', channel=9, note=42, velocity=127, time=32),
    Message('note_on', channel=9, note=38, velocity=127, time=0),
    Message('note_off', channel=9, note=42, velocity=127, time=64),
    Message('note_off', channel=9, note=38, velocity=127, time=0),
    Message('note_on', channel=9, note=42, velocity=127, time=32),
    Message('note_off', channel=9, note=42, velocity=127, time=64),
    Message('note_on', channel=9, note=42, velocity=127, time=32),
    Message('note_off', channel=9, note=42, velocity=127, time=64),
    Message('note_on', channel=9, note=42, velocity=127, time=32),
    Message('note_on', channel=9, note=36, velocity=127, time=0),
    Message('note_off', channel=9, note=42, velocity=127, time=64),
    Message('note_off', channel=9, note=36, velocity=127, time=0),
    Message('note_on', channel=9, note=38, velocity=127, time=32),
    Message('note_off', channel=9, note=38, velocity=127, time=64),
    Message('note_on', channel=9, note=36, velocity=127, time=32),
    Message('note_off', channel=9, note=36, velocity=127, time=64),
    Message('note_on', channel=9, note=36, velocity=127, time=128),
    Message('note_off', channel=9, note=36, velocity=127, time=64),
    Message('note_on', channel=9, note=42, velocity=127, time=32),
    Message('note_on', channel=9, note=38, velocity=127, time=0),
    Message('note_off', channel=9, note=42, velocity=127, time=64),
    Message('note_off', channel=9, note=38, velocity=127, time=0),
    Message('note_on', channel=9, note=42, velocity=127, time=32),
    Message('note_off', channel=9, note=42, velocity=127, time=64),
    Message('note_on', channel=9, note=42, velocity=127, time=32),
    Message('note_off', channel=9, note=42, velocity=127, time=64),
    Message('note_on', channel=9, note=42, velocity=127, time=32),
    Message('note_on', channel=9, note=36, velocity=127, time=0),
    Message('note_off', channel=9, note=42, velocity=127, time=64),
    Message('note_off', channel=9, note=36, velocity=127, time=0),
    Message('note_on', channel=9, note=42, velocity=127, time=32),
    Message('note_on', channel=9, note=38, velocity=127, time=0),
    Message('note_off', channel=9, note=42, velocity=127, time=64),
    Message('note_off', channel=9, note=38, velocity=127, time=0),
    Message('note_on', channel=9, note=42, velocity=127, time=32),
    Message('note_on', channel=9, note=36, velocity=127, time=0),
    Message('note_off', channel=9, note=42, velocity=127, time=64),
    Message('note_off', channel=9, note=36, velocity=127, time=0),
    Message('note_on', channel=9, note=42, velocity=127, time=32),
    Message('note_off', channel=9, note=42, velocity=127, time=64),
    Message('note_on', channel=9, note=42, velocity=127, time=32),
    Message('note_off', channel=9, note=42, velocity=127, time=64),
    Message('note_on', channel=9, note=42, velocity=127, time=32),
    Message('note_on', channel=9, note=38, velocity=127, time=0),
    Message('note_off', channel=9, note=42, velocity=127, time=64),
    Message('note_off', channel=9, note=38, velocity=127, time=0),
    Message('note_on', channel=9, note=42, velocity=127, time=32),
    Message('note_off', channel=9, note=42, velocity=127, time=64),
    Message('note_on', channel=9, note=36, velocity=127, time=32),
    Message('note_on', channel=9, note=42, velocity=127, time=0),
    Message('note_off', channel=9, note=36, velocity=127, time=32),
    Message('note_on', channel=9, note=36, velocity=127, time=16),
    Message('note_off', channel=9, note=42, velocity=127, time=16),
    Message('note_off', channel=9, note=36, velocity=127, time=16),
    Message('note_on', channel=9, note=42, velocity=127, time=16),
    Message('note_on', channel=9, note=36, velocity=127, time=0),
    Message('note_off', channel=9, note=42, velocity=127, time=64),
    Message('note_off', channel=9, note=36, velocity=127, time=0),
    Message('note_on', channel=9, note=42, velocity=127, time=32),
    Message('note_on', channel=9, note=38, velocity=127, time=0),
    Message('note_off', channel=9, note=42, velocity=127, time=64),
    Message('note_off', channel=9, note=38, velocity=127, time=0),
    Message('note_on', channel=9, note=42, velocity=127, time=32),
    Message('note_off', channel=9, note=42, velocity=127, time=64),
    Message('note_on', channel=9, note=36, velocity=127, time=32),
    Message('note_off', channel=9, note=36, velocity=127, time=128),
    Message('note_on', channel=9, note=42, velocity=127, time=64),
    Message('note_on', channel=9, note=38, velocity=127, time=0),
    Message('note_off', channel=9, note=42, velocity=127, time=64),
    Message('note_off', channel=9, note=38, velocity=127, time=0),
    Message('note_on', channel=9, note=42, velocity=127, time=32),
    Message('note_off', channel=9, note=42, velocity=127, time=64),
    Message('note_on', channel=9, note=42, velocity=127, time=32),
    Message('note_off', channel=9, note=42, velocity=127, time=64),
    Message('note_on', channel=9, note=42, velocity=127, time=32),
    Message('note_on', channel=9, note=36, velocity=127, time=0),
    Message('note_off', channel=9, note=42, velocity=127, time=64),
    Message('note_off', channel=9, note=36, velocity=127, time=0),
    Message('note_on', channel=9, note=42, velocity=127, time=32),
    Message('note_on', channel=9, note=38, velocity=127, time=0),
    Message('note_off', channel=9, note=42, velocity=127, time=64),
    Message('note_off', channel=9, note=38, velocity=127, time=0),
    Message('note_on', channel=9, note=42, velocity=127, time=32),
    Message('note_on', channel=9, note=36, velocity=127, time=0),
    Message('note_off', channel=9, note=42, velocity=127, time=64),
    Message('note_off', channel=9, note=36, velocity=127, time=0),
    Message('note_on', channel=9, note=42, velocity=127, time=32),
    Message('note_off', channel=9, note=42, velocity=127, time=64),
    Message('note_on', channel=9, note=42, velocity=127, time=32),
    Message('note_off', channel=9, note=42, velocity=127, time=64),
    Message('note_on', channel=9, note=42, velocity=127, time=32),
    Message('note_on', channel=9, note=38, velocity=127, time=0),
    Message('note_off', channel=9, note=42, velocity=127, time=64),
    Message('note_off', channel=9, note=38, velocity=127, time=0),
    Message('note_on', channel=9, note=42, velocity=127, time=32),
    Message('note_off', channel=9, note=42, velocity=127, time=64),
    Message('note_on', channel=9, note=42, velocity=127, time=32),
    Message('note_off', channel=9, note=42, velocity=127, time=64),
    Message('note_on', channel=9, note=42, velocity=127, time=32),
    Message('note_on', channel=9, note=36, velocity=127, time=0),
    Message('note_off', channel=9, note=42, velocity=127, time=64),
    Message('note_off', channel=9, note=36, velocity=127, time=0),
    Message('note_on', channel=9, note=38, velocity=127, time=32),
    Message('note_off', channel=9, note=38, velocity=127, time=64),
    Message('note_on', channel=9, note=36, velocity=127, time=32),
    Message('note_off', channel=9, note=36, velocity=127, time=64),
    Message('note_on', channel=9, note=36, velocity=127, time=128),
    Message('note_off', channel=9, note=36, velocity=127, time=64),
    Message('note_on', channel=9, note=42, velocity=127, time=32),
    Message('note_on', channel=9, note=38, velocity=127, time=0),
    Message('note_off', channel=9, note=42, velocity=127, time=64),
    Message('note_off', channel=9, note=38, velocity=127, time=0),
    Message('note_on', channel=9, note=42, velocity=127, time=32),
    Message('note_off', channel=9, note=42, velocity=127, time=64),
    Message('note_on', channel=9, note=42, velocity=127, time=32),
    Message('note_off', channel=9, note=42, velocity=127, time=64),
    Message('note_on', channel=9, note=42, velocity=127, time=32),
    Message('note_on', channel=9, note=36, velocity=127, time=0),
    Message('note_off', channel=9, note=42, velocity=127, time=64),
    Message('note_off', channel=9, note=36, velocity=127, time=0),
    Message('note_on', channel=9, note=42, velocity=127, time=32),
    Message('note_on', channel=9, note=38, velocity=127, time=0),
    Message('note_off', channel=9, note=42, velocity=127, time=64),
    Message('note_off', channel=9, note=38, velocity=127, time=0),
    Message('note_on', channel=9, note=42, velocity=127, time=32),
    Message('note_on', channel=9, note=36, velocity=127, time=0),
    Message('note_off', channel=9, note=42, velocity=127, time=64),
    Message('note_off', channel=9, note=36, velocity=127, time=0),
    Message('note_on', channel=9, note=42, velocity=127, time=32),
    Message('note_off', channel=9, note=42, velocity=127, time=64),
    Message('note_on', channel=9, note=42, velocity=127, time=32),
    Message('note_off', channel=9, note=42, velocity=127, time=64),
    Message('note_on', channel=9, note=42, velocity=127, time=32),
    Message('note_on', channel=9, note=38, velocity=127, time=0),
    Message('note_off', channel=9, note=42, velocity=127, time=64),
    Message('note_off', channel=9, note=38, velocity=127, time=0),
    Message('note_on', channel=9, note=42, velocity=127, time=32),
    Message('note_off', channel=9, note=42, velocity=127, time=64),
    Message('note_on', channel=9, note=36, velocity=127, time=32),
    Message('note_on', channel=9, note=42, velocity=127, time=0),
    Message('note_off', channel=9, note=36, velocity=127, time=32),
    Message('note_on', channel=9, note=36, velocity=127, time=16),
    Message('note_off', channel=9, note=42, velocity=127, time=16),
    Message('note_off', channel=9, note=36, velocity=127, time=16),
    Message('note_on', channel=9, note=42, velocity=127, time=16),
    Message('note_on', channel=9, note=36, velocity=127, time=0),
    Message('note_off', channel=9, note=42, velocity=127, time=64),
    Message('note_off', channel=9, note=36, velocity=127, time=0),
    Message('note_on', channel=9, note=42, velocity=127, time=32),
    Message('note_on', channel=9, note=38, velocity=127, time=0),
    Message('note_off', channel=9, note=42, velocity=127, time=64),
    Message('note_off', channel=9, note=38, velocity=127, time=0),
    Message('note_on', channel=9, note=42, velocity=127, time=32),
    Message('note_off', channel=9, note=42, velocity=127, time=64),
    Message('note_on', channel=9, note=36, velocity=127, time=32),
    Message('note_off', channel=9, note=36, velocity=127, time=128),
    Message('note_on', channel=9, note=42, velocity=127, time=64),
    Message('note_on', channel=9, note=38, velocity=127, time=0),
    Message('note_off', channel=9, note=42, velocity=127, time=64),
    Message('note_off', channel=9, note=38, velocity=127, time=0),
    Message('note_on', channel=9, note=42, velocity=127, time=32),
    Message('note_off', channel=9, note=42, velocity=127, time=64),
    Message('note_on', channel=9, note=42, velocity=127, time=32),
    Message('note_off', channel=9, note=42, velocity=127, time=64),
    Message('note_on', channel=9, note=42, velocity=127, time=32),
    Message('note_on', channel=9, note=36, velocity=127, time=0),
    Message('note_off', channel=9, note=42, velocity=127, time=64),
    Message('note_off', channel=9, note=36, velocity=127, time=0),
    Message('note_on', channel=9, note=42, velocity=127, time=32),
    Message('note_on', channel=9, note=38, velocity=127, time=0),
    Message('note_off', channel=9, note=42, velocity=127, time=64),
    Message('note_off', channel=9, note=38, velocity=127, time=0),
    Message('note_on', channel=9, note=42, velocity=127, time=32),
    Message('note_on', channel=9, note=36, velocity=127, time=0),
    Message('note_off', channel=9, note=42, velocity=127, time=64),
    Message('note_off', channel=9, note=36, velocity=127, time=0),
    Message('note_on', channel=9, note=42, velocity=127, time=32),
    Message('note_off', channel=9, note=42, velocity=127, time=64),
    Message('note_on', channel=9, note=42, velocity=127, time=32),
    Message('note_off', channel=9, note=42, velocity=127, time=64),
    Message('note_on', channel=9, note=42, velocity=127, time=32),
    Message('note_on', channel=9, note=38, velocity=127, time=0),
    Message('note_off', channel=9, note=42, velocity=127, time=64),
    Message('note_off', channel=9, note=38, velocity=127, time=0),
    Message('note_on', channel=9, note=42, velocity=127, time=32),
    Message('note_off', channel=9, note=42, velocity=127, time=64),
    Message('note_on', channel=9, note=42, velocity=127, time=32),
    Message('note_off', channel=9, note=42, velocity=127, time=64),
    Message('note_on', channel=9, note=42, velocity=127, time=32),
    Message('note_on', channel=9, note=36, velocity=127, time=0),
    Message('note_off', channel=9, note=42, velocity=127, time=64),
    Message('note_off', channel=9, note=36, velocity=127, time=0),
    Message('note_on', channel=9, note=38, velocity=127, time=32),
    Message('note_off', channel=9, note=38, velocity=127, time=64),
    Message('note_on', channel=9, note=36, velocity=127, time=32),
    Message('note_off', channel=9, note=36, velocity=127, time=64),
    Message('note_on', channel=9, note=36, velocity=127, time=128),
    Message('note_off', channel=9, note=36, velocity=127, time=64),
    Message('note_on', channel=9, note=42, velocity=127, time=32),
    Message('note_on', channel=9, note=38, velocity=127, time=0),
    Message('note_off', channel=9, note=42, velocity=127, time=64),
    Message('note_off', channel=9, note=38, velocity=127, time=0),
    Message('note_on', channel=9, note=42, velocity=127, time=32),
    Message('note_off', channel=9, note=42, velocity=127, time=64),
    Message('note_on', channel=9, note=42, velocity=127, time=32),
    Message('note_off', channel=9, note=42, velocity=127, time=64),
    Message('note_on', channel=9, note=42, velocity=127, time=32),
    Message('note_on', channel=9, note=36, velocity=127, time=0),
    Message('note_off', channel=9, note=42, velocity=127, time=64),
    Message('note_off', channel=9, note=36, velocity=127, time=0),
    Message('note_on', channel=9, note=42, velocity=127, time=32),
    Message('note_on', channel=9, note=38, velocity=127, time=0),
    Message('note_off', channel=9, note=42, velocity=127, time=64),
    Message('note_off', channel=9, note=38, velocity=127, time=0),
    Message('note_on', channel=9, note=42, velocity=127, time=32),
    Message('note_on', channel=9, note=36, velocity=127, time=0),
    Message('note_off', channel=9, note=42, velocity=127, time=64),
    Message('note_off', channel=9, note=36, velocity=127, time=0),
    Message('note_on', channel=9, note=42, velocity=127, time=32),
    Message('note_off', channel=9, note=42, velocity=127, time=64),
    Message('note_on', channel=9, note=42, velocity=127, time=32),
    Message('note_off', channel=9, note=42, velocity=127, time=64),
    Message('note_on', channel=9, note=42, velocity=127, time=32),
    Message('note_on', channel=9, note=38, velocity=127, time=0),
    Message('note_off', channel=9, note=42, velocity=127, time=64),
    Message('note_off', channel=9, note=38, velocity=127, time=0),
    Message('note_on', channel=9, note=42, velocity=127, time=32),
    Message('note_off', channel=9, note=42, velocity=127, time=64),
    Message('note_on', channel=9, note=36, velocity=127, time=32),
    Message('note_on', channel=9, note=42, velocity=127, time=0),
    Message('note_off', channel=9, note=36, velocity=127, time=32),
    Message('note_on', channel=9, note=36, velocity=127, time=16),
    Message('note_off', channel=9, note=42, velocity=127, time=16),
    Message('note_off', channel=9, note=36, velocity=127, time=16),
    Message('note_on', channel=9, note=42, velocity=127, time=16),
    Message('note_on', channel=9, note=36, velocity=127, time=0),
    Message('note_off', channel=9, note=42, velocity=127, time=64),
    Message('note_off', channel=9, note=36, velocity=127, time=0),
    Message('note_on', channel=9, note=42, velocity=127, time=32),
    Message('note_on', channel=9, note=38, velocity=127, time=0),
    Message('note_off', channel=9, note=42, velocity=127, time=64),
    Message('note_off', channel=9, note=38, velocity=127, time=0),
    Message('note_on', channel=9, note=42, velocity=127, time=32),
    Message('note_off', channel=9, note=42, velocity=127, time=64),
    Message('note_on', channel=9, note=36, velocity=127, time=32),
    Message('note_off', channel=9, note=36, velocity=127, time=128),
    Message('note_on', channel=9, note=42, velocity=127, time=64),
    Message('note_on', channel=9, note=38, velocity=127, time=0),
    Message('note_off', channel=9, note=42, velocity=127, time=64),
    Message('note_off', channel=9, note=38, velocity=127, time=0),
    Message('note_on', channel=9, note=42, velocity=127, time=32),
    Message('note_off', channel=9, note=42, velocity=127, time=64),
    Message('note_on', channel=9, note=42, velocity=127, time=32),
    Message('note_off', channel=9, note=42, velocity=127, time=64),
    Message('note_on', channel=9, note=42, velocity=127, time=32),
    Message('note_on', channel=9, note=36, velocity=127, time=0),
    Message('note_off', channel=9, note=42, velocity=127, time=64),
    Message('note_off', channel=9, note=36, velocity=127, time=0),
    Message('note_on', channel=9, note=42, velocity=127, time=32),
    Message('note_on', channel=9, note=38, velocity=127, time=0),
    Message('note_off', channel=9, note=42, velocity=127, time=64),
    Message('note_off', channel=9, note=38, velocity=127, time=0),
    Message('note_on', channel=9, note=42, velocity=127, time=32),
    Message('note_on', channel=9, note=36, velocity=127, time=0),
    Message('note_off', channel=9, note=42, velocity=127, time=64),
    Message('note_off', channel=9, note=36, velocity=127, time=0),
    Message('note_on', channel=9, note=42, velocity=127, time=32),
    Message('note_off', channel=9, note=42, velocity=127, time=64),
    Message('note_on', channel=9, note=42, velocity=127, time=32),
    Message('note_off', channel=9, note=42, velocity=127, time=64),
    Message('note_on', channel=9, note=42, velocity=127, time=32),
    Message('note_on', channel=9, note=38, velocity=127, time=0),
    Message('note_off', channel=9, note=42, velocity=127, time=64),
    Message('note_off', channel=9, note=38, velocity=127, time=0),
    Message('note_on', channel=9, note=42, velocity=127, time=32),
    Message('note_off', channel=9, note=42, velocity=127, time=64),
    Message('note_on', channel=9, note=42, velocity=127, time=32),
    Message('note_off', channel=9, note=42, velocity=127, time=64),
    Message('note_on', channel=9, note=42, velocity=127, time=32),
    Message('note_on', channel=9, note=36, velocity=127, time=0),
    Message('note_off', channel=9, note=42, velocity=127, time=64),
    Message('note_off', channel=9, note=36, velocity=127, time=0),
    Message('note_on', channel=9, note=38, velocity=127, time=32),
    Message('note_off', channel=9, note=38, velocity=127, time=64),
    Message('note_on', channel=9, note=42, velocity=127, time=32),
    Message('note_off', channel=9, note=42, velocity=127, time=64),
    Message('note_on', channel=9, note=38, velocity=127, time=32),
    Message('note_off', channel=9, note=38, velocity=127, time=32),
    Message('note_on', channel=9, note=38, velocity=127, time=16),
    Message('note_off', channel=9, note=38, velocity=127, time=32),
    Message('note_on', channel=9, note=36, velocity=127, time=16),
    Message('note_off', channel=9, note=36, velocity=127, time=32),
    Message('note_on', channel=9, note=36, velocity=127, time=16),
    Message('note_off', channel=9, note=36, velocity=127, time=32),
    Message('note_on', channel=9, note=36, velocity=127, time=112),
    Message('note_off', channel=9, note=36, velocity=127, time=32),
    Message('note_on', channel=9, note=36, velocity=127, time=16),
    Message('note_off', channel=9, note=36, velocity=127, time=32),
    Message('note_on', channel=9, note=36, velocity=127, time=112),
    Message('note_off', channel=9, note=36, velocity=127, time=32),
    Message('note_on', channel=9, note=36, velocity=127, time=16),
    Message('note_off', channel=9, note=36, velocity=127, time=32),
    Message('note_on', channel=9, note=36, velocity=127, time=112),
    Message('note_off', channel=9, note=36, velocity=127, time=32),
    Message('note_on', channel=9, note=36, velocity=127, time=16),
    Message('note_off', channel=9, note=36, velocity=127, time=32),
    Message('note_on', channel=9, note=45, velocity=127, time=16),
    Message('note_off', channel=9, note=45, velocity=127, time=32),
    Message('note_on', channel=9, note=45, velocity=127, time=16),
    Message('note_off', channel=9, note=45, velocity=127, time=32),
    Message('note_on', channel=9, note=36, velocity=127, time=16),
    Message('note_off', channel=9, note=36, velocity=127, time=32),
    Message('note_on', channel=9, note=36, velocity=127, time=16),
    Message('note_off', channel=9, note=36, velocity=127, time=32),
    Message('note_on', channel=9, note=41, velocity=127, time=16),
    Message('note_off', channel=9, note=41, velocity=127, time=32),
    Message('note_on', channel=9, note=41, velocity=127, time=16),
    Message('note_off', channel=9, note=41, velocity=127, time=32),
    Message('note_on', channel=9, note=36, velocity=127, time=16),
    Message('note_off', channel=9, note=36, velocity=127, time=32),
    Message('note_on', channel=9, note=36, velocity=127, time=16),
    Message('note_off', channel=9, note=36, velocity=127, time=32),
    Message('note_on', channel=9, note=38, velocity=127, time=16),
    Message('note_on', channel=9, note=38, velocity=127, time=20),
    Message('note_off', channel=9, note=38, velocity=127, time=44),
    Message('note_off', channel=9, note=38, velocity=127, time=20),
    Message('note_on', channel=9, note=36, velocity=127, time=12),
    Message('note_off', channel=9, note=36, velocity=127, time=64),
    Message('note_on', channel=9, note=36, velocity=127, time=32),
    Message('note_off', channel=9, note=36, velocity=127, time=64),
    Message('note_on', channel=9, note=36, velocity=127, time=32),
    Message('note_off', channel=9, note=36, velocity=127, time=64),
    Message('note_on', channel=9, note=36, velocity=127, time=1472),
    Message('note_off', channel=9, note=36, velocity=127, time=64),
    Message('note_on', channel=9, note=36, velocity=127, time=1472),
    Message('note_off', channel=9, note=36, velocity=127, time=64),
    Message('note_on', channel=9, note=36, velocity=127, time=1472),
    Message('note_off', channel=9, note=36, velocity=127, time=64),
    Message('note_on', channel=9, note=36, velocity=127, time=704),
    Message('note_off', channel=9, note=36, velocity=127, time=64),
    Message('note_on', channel=9, note=38, velocity=127, time=416),
    Message('note_on', channel=9, note=38, velocity=127, time=20),
    Message('note_off', channel=9, note=38, velocity=127, time=44),
    Message('note_off', channel=9, note=38, velocity=127, time=20),
    Message('note_on', channel=9, note=36, velocity=127, time=12),
    Message('note_off', channel=9, note=36, velocity=127, time=64),
    Message('note_on', channel=9, note=36, velocity=127, time=128),
    Message('note_off', channel=9, note=36, velocity=127, time=64),
    Message('note_on', channel=9, note=36, velocity=127, time=1472),
    Message('note_off', channel=9, note=36, velocity=127, time=64),
    Message('note_on', channel=9, note=36, velocity=127, time=1280),
    Message('note_off', channel=9, note=36, velocity=127, time=64),
    Message('note_on', channel=9, note=36, velocity=127, time=32),
    Message('note_off', channel=9, note=36, velocity=127, time=64),
    Message('note_on', channel=9, note=36, velocity=127, time=32),
    Message('note_off', channel=9, note=36, velocity=127, time=64),
    Message('note_on', channel=9, note=36, velocity=127, time=1472),
    Message('note_off', channel=9, note=36, velocity=127, time=64),
    Message('note_on', channel=9, note=36, velocity=127, time=704),
    Message('note_off', channel=9, note=36, velocity=127, time=64),
    Message('note_on', channel=9, note=38, velocity=127, time=416),
    Message('note_on', channel=9, note=38, velocity=127, time=20),
    Message('note_off', channel=9, note=38, velocity=127, time=44),
    Message('note_off', channel=9, note=38, velocity=127, time=20),
    Message('note_on', channel=9, note=36, velocity=127, time=12),
    Message('note_off', channel=9, note=36, velocity=127, time=64),
    Message('note_on', channel=9, note=36, velocity=127, time=32),
    Message('note_off', channel=9, note=36, velocity=127, time=64),
    Message('note_on', channel=9, note=36, velocity=127, time=32),
    Message('note_off', channel=9, note=36, velocity=127, time=64),
    Message('note_on', channel=9, note=36, velocity=127, time=224),
    Message('note_on', channel=9, note=42, velocity=127, time=0),
    Message('note_off', channel=9, note=36, velocity=127, time=64),
    Message('note_on', channel=9, note=36, velocity=127, time=32),
    Message('note_off', channel=9, note=42, velocity=127, time=32),
    Message('note_off', channel=9, note=36, velocity=127, time=32),
    Message('note_on', channel=9, note=38, velocity=127, time=32),
    Message('note_on', channel=9, note=42, velocity=127, time=0),
    Message('note_off', channel=9, note=38, velocity=127, time=64),
    Message('note_off', channel=9, note=42, velocity=127, time=64),
    Message('note_on', channel=9, note=42, velocity=127, time=64),
    Message('note_off', channel=9, note=42, velocity=127, time=128),
    Message('note_on', channel=9, note=36, velocity=127, time=64),
    Message('note_on', channel=9, note=42, velocity=127, time=0),
    Message('note_off', channel=9, note=36, velocity=127, time=64),
    Message('note_on', channel=9, note=36, velocity=127, time=32),
    Message('note_off', channel=9, note=42, velocity=127, time=32),
    Message('note_off', channel=9, note=36, velocity=127, time=32),
    Message('note_on', channel=9, note=42, velocity=127, time=32),
    Message('note_on', channel=9, note=36, velocity=127, time=96),
    Message('note_off', channel=9, note=42, velocity=127, time=32),
    Message('note_off', channel=9, note=36, velocity=127, time=32),
    Message('note_on', channel=9, note=42, velocity=127, time=32),
    Message('note_on', channel=9, note=38, velocity=127, time=0),
    Message('note_off', channel=9, note=42, velocity=127, time=128),
    Message('note_off', channel=9, note=38, velocity=127, time=0),
    Message('note_on', channel=9, note=42, velocity=127, time=64),
    Message('note_off', channel=9, note=42, velocity=127, time=64),
    Message('note_on', channel=9, note=36, velocity=127, time=32),
    Message('note_off', channel=9, note=36, velocity=127, time=64),
    Message('note_on', channel=9, note=36, velocity=127, time=224),
    Message('note_on', channel=9, note=42, velocity=127, time=0),
    Message('note_off', channel=9, note=36, velocity=127, time=64),
    Message('note_on', channel=9, note=36, velocity=127, time=32),
    Message('note_off', channel=9, note=42, velocity=127, time=32),
    Message('note_off', channel=9, note=36, velocity=127, time=32),
    Message('note_on', channel=9, note=38, velocity=127, time=32),
    Message('note_on', channel=9, note=42, velocity=127, time=0),
    Message('note_off', channel=9, note=38, velocity=127, time=64),
    Message('note_off', channel=9, note=42, velocity=127, time=64),
    Message('note_on', channel=9, note=42, velocity=127, time=64),
    Message('note_off', channel=9, note=42, velocity=127, time=128),
    Message('note_on', channel=9, note=36, velocity=127, time=64),
    Message('note_on', channel=9, note=42, velocity=127, time=0),
    Message('note_off', channel=9, note=36, velocity=127, time=64),
    Message('note_on', channel=9, note=36, velocity=127, time=32),
    Message('note_off', channel=9, note=42, velocity=127, time=32),
    Message('note_off', channel=9, note=36, velocity=127, time=32),
    Message('note_on', channel=9, note=42, velocity=127, time=32),
    Message('note_on', channel=9, note=36, velocity=127, time=96),
    Message('note_off', channel=9, note=42, velocity=127, time=32),
    Message('note_off', channel=9, note=36, velocity=127, time=32),
    Message('note_on', channel=9, note=42, velocity=127, time=32),
    Message('note_on', channel=9, note=38, velocity=127, time=0),
    Message('note_off', channel=9, note=42, velocity=127, time=128),
    Message('note_off', channel=9, note=38, velocity=127, time=0),
    Message('note_on', channel=9, note=42, velocity=127, time=64),
    Message('note_off', channel=9, note=42, velocity=127, time=64),
    Message('note_on', channel=9, note=36, velocity=127, time=32),
    Message('note_off', channel=9, note=36, velocity=127, time=64),
    Message('note_on', channel=9, note=36, velocity=127, time=224),
    Message('note_on', channel=9, note=42, velocity=127, time=0),
    Message('note_off', channel=9, note=36, velocity=127, time=64),
    Message('note_on', channel=9, note=36, velocity=127, time=32),
    Message('note_off', channel=9, note=42, velocity=127, time=32),
    Message('note_off', channel=9, note=36, velocity=127, time=32),
    Message('note_on', channel=9, note=38, velocity=127, time=32),
    Message('note_on', channel=9, note=42, velocity=127, time=0),
    Message('note_off', channel=9, note=38, velocity=127, time=64),
    Message('note_off', channel=9, note=42, velocity=127, time=64),
    Message('note_on', channel=9, note=42, velocity=127, time=64),
    Message('note_off', channel=9, note=42, velocity=127, time=128),
    Message('note_on', channel=9, note=36, velocity=127, time=64),
    Message('note_on', channel=9, note=42, velocity=127, time=0),
    Message('note_off', channel=9, note=36, velocity=127, time=64),
    Message('note_on', channel=9, note=36, velocity=127, time=32),
    Message('note_off', channel=9, note=42, velocity=127, time=32),
    Message('note_off', channel=9, note=36, velocity=127, time=32),
    Message('note_on', channel=9, note=42, velocity=127, time=32),
    Message('note_on', channel=9, note=36, velocity=127, time=96),
    Message('note_off', channel=9, note=42, velocity=127, time=32),
    Message('note_off', channel=9, note=36, velocity=127, time=32),
    Message('note_on', channel=9, note=42, velocity=127, time=32),
    Message('note_on', channel=9, note=38, velocity=127, time=0),
    Message('note_off', channel=9, note=42, velocity=127, time=128),
    Message('note_off', channel=9, note=38, velocity=127, time=0),
    Message('note_on', channel=9, note=42, velocity=127, time=64),
    Message('note_off', channel=9, note=42, velocity=127, time=64),
    Message('note_on', channel=9, note=36, velocity=127, time=32),
    Message('note_off', channel=9, note=36, velocity=127, time=64),
    Message('note_on', channel=9, note=36, velocity=127, time=704),
    Message('note_off', channel=9, note=36, velocity=127, time=64),
    Message('note_on', channel=9, note=45, velocity=127, time=320),
    Message('note_off', channel=9, note=45, velocity=127, time=64),
    Message('note_on', channel=9, note=45, velocity=127, time=32),
    Message('note_off', channel=9, note=45, velocity=127, time=64),
    Message('note_on', channel=9, note=36, velocity=127, time=32),
    Message('note_off', channel=9, note=36, velocity=127, time=64),
    Message('note_on', channel=9, note=36, velocity=127, time=128),
    Message('note_off', channel=9, note=36, velocity=127, time=64),
    Message('note_on', channel=9, note=36, velocity=127, time=128),
    Message('note_off', channel=9, note=36, velocity=127, time=64),
    Message('note_on', channel=9, note=38, velocity=127, time=32),
    Message('note_off', channel=9, note=38, velocity=127, time=64),
    Message('note_on', channel=9, note=36, velocity=127, time=128),
    Message('note_off', channel=9, note=36, velocity=127, time=64),
    Message('note_on', channel=9, note=36, velocity=127, time=32),
    Message('note_off', channel=9, note=36, velocity=127, time=64),
    Message('note_on', channel=9, note=38, velocity=127, time=32),
    Message('note_off', channel=9, note=38, velocity=127, time=64),
    Message('note_on', channel=9, note=36, velocity=127, time=128),
    Message('note_off', channel=9, note=36, velocity=127, time=64),
    Message('note_on', channel=9, note=36, velocity=127, time=32),
    Message('note_off', channel=9, note=36, velocity=127, time=64),
    Message('note_on', channel=9, note=38, velocity=127, time=32),
    Message('note_off', channel=9, note=38, velocity=127, time=64),
    Message('note_on', channel=9, note=36, velocity=127, time=128),
    Message('note_off', channel=9, note=36, velocity=127, time=64),
    Message('note_on', channel=9, note=36, velocity=127, time=32),
    Message('note_off', channel=9, note=36, velocity=127, time=64),
    Message('note_on', channel=9, note=38, velocity=127, time=32),
    Message('note_off', channel=9, note=38, velocity=127, time=64),
    Message('note_on', channel=9, note=36, velocity=127, time=32),
    Message('note_off', channel=9, note=36, velocity=127, time=64),
    Message('note_on', channel=9, note=36, velocity=127, time=128),
    Message('note_off', channel=9, note=36, velocity=127, time=64),
    Message('note_on', channel=9, note=38, velocity=127, time=32),
    Message('note_off', channel=9, note=38, velocity=127, time=64),
    Message('note_on', channel=9, note=36, velocity=127, time=128),
    Message('note_off', channel=9, note=36, velocity=127, time=64),
    Message('note_on', channel=9, note=36, velocity=127, time=32),
    Message('note_off', channel=9, note=36, velocity=127, time=64),
    Message('note_on', channel=9, note=38, velocity=127, time=32),
    Message('note_off', channel=9, note=38, velocity=127, time=64),
    Message('note_on', channel=9, note=36, velocity=127, time=128),
    Message('note_off', channel=9, note=36, velocity=127, time=64),
    Message('note_on', channel=9, note=36, velocity=127, time=32),
    Message('note_off', channel=9, note=36, velocity=127, time=64),
    Message('note_on', channel=9, note=38, velocity=127, time=32),
    Message('note_off', channel=9, note=38, velocity=127, time=64),
    Message('note_on', channel=9, note=36, velocity=127, time=128),
    Message('note_off', channel=9, note=36, velocity=127, time=64),
    Message('note_on', channel=9, note=36, velocity=127, time=32),
    Message('note_off', channel=9, note=36, velocity=127, time=64),
    Message('note_on', channel=9, note=38, velocity=127, time=32),
    Message('note_off', channel=9, note=38, velocity=127, time=64),
    Message('note_on', channel=9, note=36, velocity=127, time=32),
    Message('note_off', channel=9, note=36, velocity=127, time=64),
    Message('note_on', channel=9, note=36, velocity=127, time=128),
    Message('note_off', channel=9, note=36, velocity=127, time=64),
    Message('note_on', channel=9, note=38, velocity=127, time=32),
    Message('note_off', channel=9, note=38, velocity=127, time=64),
    Message('note_on', channel=9, note=36, velocity=127, time=128),
    Message('note_off', channel=9, note=36, velocity=127, time=64),
    Message('note_on', channel=9, note=36, velocity=127, time=32),
    Message('note_off', channel=9, note=36, velocity=127, time=64),
    Message('note_on', channel=9, note=38, velocity=127, time=32),
    Message('note_off', channel=9, note=38, velocity=127, time=64),
    Message('note_on', channel=9, note=36, velocity=127, time=128),
    Message('note_off', channel=9, note=36, velocity=127, time=64),
    Message('note_on', channel=9, note=36, velocity=127, time=32),
    Message('note_off', channel=9, note=36, velocity=127, time=64),
    Message('note_on', channel=9, note=38, velocity=127, time=32),
    Message('note_off', channel=9, note=38, velocity=127, time=64),
    Message('note_on', channel=9, note=36, velocity=127, time=128),
    Message('note_off', channel=9, note=36, velocity=127, time=64),
    Message('note_on', channel=9, note=36, velocity=127, time=32),
    Message('note_off', channel=9, note=36, velocity=127, time=64),
    Message('note_on', channel=9, note=38, velocity=127, time=32),
    Message('note_off', channel=9, note=38, velocity=127, time=64),
    Message('note_on', channel=9, note=36, velocity=127, time=32),
    Message('note_off', channel=9, note=36, velocity=127, time=64),
    Message('note_on', channel=9, note=36, velocity=127, time=128),
    Message('note_off', channel=9, note=36, velocity=127, time=64),
    Message('note_on', channel=9, note=38, velocity=127, time=32),
    Message('note_off', channel=9, note=38, velocity=127, time=64),
    Message('note_on', channel=9, note=36, velocity=127, time=128),
    Message('note_off', channel=9, note=36, velocity=127, time=64),
    Message('note_on', channel=9, note=36, velocity=127, time=32),
    Message('note_off', channel=9, note=36, velocity=127, time=64),
    Message('note_on', channel=9, note=38, velocity=127, time=32),
    Message('note_off', channel=9, note=38, velocity=127, time=64),
    Message('note_on', channel=9, note=36, velocity=127, time=32),
    Message('note_off', channel=9, note=36, velocity=127, time=64),
    Message('note_on', channel=9, note=36, velocity=127, time=128),
    Message('note_off', channel=9, note=36, velocity=127, time=64),
    Message('note_on', channel=9, note=38, velocity=127, time=32),
    Message('note_off', channel=9, note=38, velocity=127, time=64),
    Message('note_on', channel=9, note=36, velocity=127, time=128),
    Message('note_off', channel=9, note=36, velocity=127, time=64),
    Message('note_on', channel=9, note=36, velocity=127, time=32),
    Message('note_off', channel=9, note=36, velocity=127, time=64),
    Message('note_on', channel=9, note=38, velocity=127, time=32),
    Message('note_off', channel=9, note=38, velocity=127, time=64),
    Message('note_on', channel=9, note=36, velocity=127, time=32),
    Message('note_off', channel=9, note=36, velocity=127, time=64),
    Message('note_on', channel=9, note=36, velocity=127, time=128),
    Message('note_off', channel=9, note=36, velocity=127, time=64),
    Message('note_on', channel=9, note=38, velocity=127, time=32),
    Message('note_off', channel=9, note=38, velocity=127, time=64),
    Message('note_on', channel=9, note=36, velocity=127, time=128),
    Message('note_off', channel=9, note=36, velocity=127, time=64),
    Message('note_on', channel=9, note=36, velocity=127, time=32),
    Message('note_off', channel=9, note=36, velocity=127, time=64),
    Message('note_on', channel=9, note=38, velocity=127, time=32),
    Message('note_off', channel=9, note=38, velocity=127, time=64),
    Message('note_on', channel=9, note=36, velocity=127, time=128),
    Message('note_off', channel=9, note=36, velocity=127, time=64),
    Message('note_on', channel=9, note=36, velocity=127, time=32),
    Message('note_off', channel=9, note=36, velocity=127, time=64),
    Message('note_on', channel=9, note=38, velocity=127, time=32),
    Message('note_off', channel=9, note=38, velocity=127, time=64),
    Message('note_on', channel=9, note=36, velocity=127, time=128),
    Message('note_off', channel=9, note=36, velocity=127, time=64),
    Message('note_on', channel=9, note=36, velocity=127, time=32),
    Message('note_off', channel=9, note=36, velocity=127, time=64),
    Message('note_on', channel=9, note=38, velocity=127, time=32),
    Message('note_off', channel=9, note=38, velocity=127, time=64),
    Message('note_on', channel=9, note=36, velocity=127, time=32),
    Message('note_off', channel=9, note=36, velocity=127, time=64),
    Message('note_on', channel=9, note=36, velocity=127, time=128),
    Message('note_off', channel=9, note=36, velocity=127, time=64),
    Message('note_on', channel=9, note=38, velocity=127, time=32),
    Message('note_off', channel=9, note=38, velocity=127, time=64),
    Message('note_on', channel=9, note=36, velocity=127, time=128),
    Message('note_off', channel=9, note=36, velocity=127, time=64),
    Message('note_on', channel=9, note=36, velocity=127, time=32),
    Message('note_off', channel=9, note=36, velocity=127, time=64),
    Message('note_on', channel=9, note=38, velocity=127, time=32),
    Message('note_off', channel=9, note=38, velocity=127, time=64),
    Message('note_on', channel=9, note=36, velocity=127, time=128),
    Message('note_off', channel=9, note=36, velocity=127, time=64),
    Message('note_on', channel=9, note=36, velocity=127, time=32),
    Message('note_off', channel=9, note=36, velocity=127, time=64),
    Message('note_on', channel=9, note=38, velocity=127, time=32),
    Message('note_off', channel=9, note=38, velocity=127, time=64),
    Message('note_on', channel=9, note=36, velocity=127, time=128),
    Message('note_off', channel=9, note=36, velocity=127, time=64),
    Message('note_on', channel=9, note=36, velocity=127, time=32),
    Message('note_off', channel=9, note=36, velocity=127, time=64),
    Message('note_on', channel=9, note=38, velocity=127, time=32),
    Message('note_off', channel=9, note=38, velocity=127, time=64),
    Message('note_on', channel=9, note=36, velocity=127, time=32),
    Message('note_off', channel=9, note=36, velocity=127, time=64),
    Message('note_on', channel=9, note=36, velocity=127, time=128),
    Message('note_off', channel=9, note=36, velocity=127, time=64),
    Message('note_on', channel=9, note=38, velocity=127, time=32),
    Message('note_off', channel=9, note=38, velocity=127, time=64),
    Message('note_on', channel=9, note=36, velocity=127, time=128),
    Message('note_off', channel=9, note=36, velocity=127, time=64),
    Message('note_on', channel=9, note=36, velocity=127, time=32),
    Message('note_off', channel=9, note=36, velocity=127, time=64),
    Message('note_on', channel=9, note=38, velocity=127, time=32),
    Message('note_off', channel=9, note=38, velocity=127, time=64),
    Message('note_on', channel=9, note=36, velocity=127, time=128),
    Message('note_off', channel=9, note=36, velocity=127, time=64),
    Message('note_on', channel=9, note=36, velocity=127, time=32),
    Message('note_off', channel=9, note=36, velocity=127, time=64),
    Message('note_on', channel=9, note=38, velocity=127, time=32),
    Message('note_off', channel=9, note=38, velocity=127, time=64),
    Message('note_on', channel=9, note=36, velocity=127, time=128),
    Message('note_off', channel=9, note=36, velocity=127, time=64),
    Message('note_on', channel=9, note=36, velocity=127, time=32),
    Message('note_off', channel=9, note=36, velocity=127, time=64),
    Message('note_on', channel=9, note=38, velocity=127, time=32),
    Message('note_off', channel=9, note=38, velocity=127, time=64),
    Message('note_on', channel=9, note=36, velocity=127, time=32),
    Message('note_off', channel=9, note=36, velocity=127, time=64),
    Message('note_on', channel=9, note=36, velocity=127, time=128),
    Message('note_off', channel=9, note=36, velocity=127, time=64),
    Message('note_on', channel=9, note=38, velocity=127, time=32),
    Message('note_off', channel=9, note=38, velocity=127, time=64),
    Message('note_on', channel=9, note=36, velocity=127, time=128),
    Message('note_off', channel=9, note=36, velocity=127, time=64),
    Message('note_on', channel=9, note=36, velocity=127, time=32),
    Message('note_off', channel=9, note=36, velocity=127, time=64),
    Message('note_on', channel=9, note=38, velocity=127, time=32),
    Message('note_off', channel=9, note=38, velocity=127, time=64),
    Message('note_on', channel=9, note=36, velocity=127, time=128),
    Message('note_off', channel=9, note=36, velocity=127, time=64),
    Message('note_on', channel=9, note=36, velocity=127, time=32),
    Message('note_off', channel=9, note=36, velocity=127, time=64),
    Message('note_on', channel=9, note=38, velocity=127, time=32),
    Message('note_off', channel=9, note=38, velocity=127, time=64),
    Message('note_on', channel=9, note=36, velocity=127, time=128),
    Message('note_off', channel=9, note=36, velocity=127, time=64),
    Message('note_on', channel=9, note=36, velocity=127, time=32),
    Message('note_off', channel=9, note=36, velocity=127, time=64),
    Message('note_on', channel=9, note=38, velocity=127, time=32),
    Message('note_off', channel=9, note=38, velocity=127, time=64),
    Message('note_on', channel=9, note=36, velocity=127, time=32),
    Message('note_off', channel=9, note=36, velocity=127, time=64),
    Message('note_on', channel=9, note=36, velocity=127, time=128),
    Message('note_off', channel=9, note=36, velocity=127, time=64),
    Message('note_on', channel=9, note=38, velocity=127, time=32),
    Message('note_off', channel=9, note=38, velocity=127, time=64),
    Message('note_on', channel=9, note=36, velocity=127, time=128),
    Message('note_off', channel=9, note=36, velocity=127, time=64),
    Message('note_on', channel=9, note=36, velocity=127, time=32),
    Message('note_off', channel=9, note=36, velocity=127, time=64),
    Message('note_on', channel=9, note=38, velocity=127, time=32),
    Message('note_off', channel=9, note=38, velocity=127, time=64),
    Message('note_on', channel=9, note=36, velocity=127, time=128),
    Message('note_off', channel=9, note=36, velocity=127, time=64),
    Message('note_on', channel=9, note=36, velocity=127, time=32),
    Message('note_off', channel=9, note=36, velocity=127, time=64),
    Message('note_on', channel=9, note=38, velocity=127, time=32),
    Message('note_off', channel=9, note=38, velocity=127, time=64),
    Message('note_on', channel=9, note=36, velocity=127, time=128),
    Message('note_off', channel=9, note=36, velocity=127, time=64),
    Message('note_on', channel=9, note=36, velocity=127, time=32),
    Message('note_off', channel=9, note=36, velocity=127, time=64),
    Message('note_on', channel=9, note=38, velocity=127, time=32),
    Message('note_off', channel=9, note=38, velocity=127, time=64),
    Message('note_on', channel=9, note=36, velocity=127, time=32),
    Message('note_off', channel=9, note=36, velocity=127, time=64),
    Message('note_on', channel=9, note=36, velocity=127, time=128),
    Message('note_off', channel=9, note=36, velocity=127, time=64),
    Message('note_on', channel=9, note=38, velocity=127, time=32),
    Message('note_off', channel=9, note=38, velocity=127, time=64),
    Message('note_on', channel=9, note=36, velocity=127, time=128),
    Message('note_off', channel=9, note=36, velocity=127, time=64),
    Message('note_on', channel=9, note=36, velocity=127, time=32),
    Message('note_off', channel=9, note=36, velocity=127, time=64),
    Message('note_on', channel=9, note=38, velocity=127, time=32),
    Message('note_off', channel=9, note=38, velocity=127, time=64),
    Message('note_on', channel=9, note=36, velocity=127, time=128),
    Message('note_off', channel=9, note=36, velocity=127, time=64),
    Message('note_on', channel=9, note=36, velocity=127, time=32),
    Message('note_off', channel=9, note=36, velocity=127, time=64),
    Message('note_on', channel=9, note=38, velocity=127, time=32),
    Message('note_off', channel=9, note=38, velocity=127, time=64),
    Message('note_on', channel=9, note=36, velocity=127, time=128),
    Message('note_off', channel=9, note=36, velocity=127, time=64),
    Message('note_on', channel=9, note=36, velocity=127, time=32),
    Message('note_off', channel=9, note=36, velocity=127, time=64),
    Message('note_on', channel=9, note=38, velocity=127, time=32),
    Message('note_off', channel=9, note=38, velocity=127, time=64),
    Message('note_on', channel=9, note=36, velocity=127, time=32),
    Message('note_off', channel=9, note=36, velocity=127, time=64),
    Message('note_on', channel=9, note=36, velocity=127, time=128),
    Message('note_off', channel=9, note=36, velocity=127, time=64),
    Message('note_on', channel=9, note=38, velocity=127, time=32),
    Message('note_off', channel=9, note=38, velocity=127, time=64),
    Message('note_on', channel=9, note=36, velocity=127, time=128),
    Message('note_off', channel=9, note=36, velocity=127, time=64),
    Message('note_on', channel=9, note=36, velocity=127, time=32),
    Message('note_off', channel=9, note=36, velocity=127, time=64),
    Message('note_on', channel=9, note=38, velocity=127, time=32),
    Message('note_off', channel=9, note=38, velocity=127, time=64),
    Message('note_on', channel=9, note=36, velocity=127, time=128),
    Message('note_off', channel=9, note=36, velocity=127, time=64),
    Message('note_on', channel=9, note=36, velocity=127, time=32),
    Message('note_off', channel=9, note=36, velocity=127, time=64),
    Message('note_on', channel=9, note=38, velocity=127, time=32),
    Message('note_off', channel=9, note=38, velocity=127, time=64),
    Message('note_on', channel=9, note=36, velocity=127, time=128),
    Message('note_off', channel=9, note=36, velocity=127, time=64),
    Message('note_on', channel=9, note=36, velocity=127, time=32),
    Message('note_off', channel=9, note=36, velocity=127, time=64),
    Message('note_on', channel=9, note=38, velocity=127, time=32),
    Message('note_off', channel=9, note=38, velocity=127, time=64),
    Message('note_on', channel=9, note=36, velocity=127, time=32),
    Message('note_off', channel=9, note=36, velocity=127, time=64),
    Message('note_on', channel=9, note=36, velocity=127, time=704),
    Message('note_off', channel=9, note=36, velocity=127, time=64),
    Message('note_on', channel=9, note=45, velocity=127, time=320),
    Message('note_off', channel=9, note=45, velocity=127, time=64),
    Message('note_on', channel=9, note=45, velocity=127, time=32),
    Message('note_off', channel=9, note=45, velocity=127, time=64),
    Message('note_on', channel=9, note=36, velocity=127, time=32),
    Message('note_off', channel=9, note=36, velocity=127, time=64),
    Message('note_on', channel=9, note=36, velocity=127, time=128),
    Message('note_off', channel=9, note=36, velocity=127, time=64),
    Message('note_on', channel=9, note=36, velocity=127, time=128),
    Message('note_off', channel=9, note=36, velocity=127, time=64),
    Message('note_on', channel=9, note=38, velocity=127, time=32),
    Message('note_off', channel=9, note=38, velocity=127, time=64),
    Message('note_on', channel=9, note=36, velocity=127, time=128),
    Message('note_off', channel=9, note=36, velocity=127, time=64),
    Message('note_on', channel=9, note=36, velocity=127, time=32),
    Message('note_off', channel=9, note=36, velocity=127, time=64),
    Message('note_on', channel=9, note=38, velocity=127, time=32),
    Message('note_off', channel=9, note=38, velocity=127, time=64),
    Message('note_on', channel=9, note=36, velocity=127, time=128),
    Message('note_off', channel=9, note=36, velocity=127, time=64),
    Message('note_on', channel=9, note=36, velocity=127, time=32),
    Message('note_off', channel=9, note=36, velocity=127, time=64),
    Message('note_on', channel=9, note=38, velocity=127, time=32),
    Message('note_off', channel=9, note=38, velocity=127, time=128),
    Message('note_on', channel=9, note=36, velocity=127, time=64),
    Message('note_off', channel=9, note=36, velocity=127, time=64),
    Message('note_on', channel=9, note=36, velocity=127, time=32),
    Message('note_off', channel=9, note=36, velocity=127, time=64),
    Message('note_on', channel=9, note=38, velocity=127, time=32),
    Message('note_off', channel=9, note=38, velocity=127, time=64),
    Message('note_on', channel=9, note=36, velocity=127, time=32),
    Message('note_off', channel=9, note=36, velocity=127, time=64),
    Message('note_on', channel=9, note=36, velocity=127, time=128),
    Message('note_off', channel=9, note=36, velocity=127, time=64),
    Message('note_on', channel=9, note=38, velocity=127, time=32),
    Message('note_off', channel=9, note=38, velocity=127, time=64),
    Message('note_on', channel=9, note=36, velocity=127, time=128),
    Message('note_off', channel=9, note=36, velocity=127, time=64),
    Message('note_on', channel=9, note=36, velocity=127, time=32),
    Message('note_off', channel=9, note=36, velocity=127, time=64),
    Message('note_on', channel=9, note=38, velocity=127, time=32),
    Message('note_off', channel=9, note=38, velocity=127, time=64),
    Message('note_on', channel=9, note=36, velocity=127, time=128),
    Message('note_off', channel=9, note=36, velocity=127, time=64),
    Message('note_on', channel=9, note=36, velocity=127, time=32),
    Message('note_off', channel=9, note=36, velocity=127, time=64),
    Message('note_on', channel=9, note=38, velocity=127, time=32),
    Message('note_off', channel=9, note=38, velocity=127, time=128),
    Message('note_on', channel=9, note=36, velocity=127, time=64),
    Message('note_off', channel=9, note=36, velocity=127, time=64),
    Message('note_on', channel=9, note=36, velocity=127, time=32),
    Message('note_off', channel=9, note=36, velocity=127, time=64),
    Message('note_on', channel=9, note=38, velocity=127, time=32),
    Message('note_off', channel=9, note=38, velocity=127, time=64),
    Message('note_on', channel=9, note=36, velocity=127, time=32),
    Message('note_off', channel=9, note=36, velocity=127, time=64),
    Message('note_on', channel=9, note=36, velocity=127, time=128),
    Message('note_off', channel=9, note=36, velocity=127, time=64),
    Message('note_on', channel=9, note=38, velocity=127, time=32),
    Message('note_off', channel=9, note=38, velocity=127, time=64),
    Message('note_on', channel=9, note=36, velocity=127, time=128),
    Message('note_off', channel=9, note=36, velocity=127, time=64),
    Message('note_on', channel=9, note=36, velocity=127, time=32),
    Message('note_off', channel=9, note=36, velocity=127, time=64),
    Message('note_on', channel=9, note=38, velocity=127, time=32),
    Message('note_off', channel=9, note=38, velocity=127, time=64),
    Message('note_on', channel=9, note=36, velocity=127, time=128),
    Message('note_off', channel=9, note=36, velocity=127, time=64),
    Message('note_on', channel=9, note=36, velocity=127, time=32),
    Message('note_off', channel=9, note=36, velocity=127, time=64),
    Message('note_on', channel=9, note=38, velocity=127, time=32),
    Message('note_off', channel=9, note=38, velocity=127, time=128),
    Message('note_on', channel=9, note=36, velocity=127, time=64),
    Message('note_off', channel=9, note=36, velocity=127, time=64),
    Message('note_on', channel=9, note=36, velocity=127, time=32),
    Message('note_off', channel=9, note=36, velocity=127, time=64),
    Message('note_on', channel=9, note=38, velocity=127, time=32),
    Message('note_off', channel=9, note=38, velocity=127, time=64),
    Message('note_on', channel=9, note=36, velocity=127, time=32),
    Message('note_off', channel=9, note=36, velocity=127, time=64),
    Message('note_on', channel=9, note=36, velocity=127, time=128),
    Message('note_off', channel=9, note=36, velocity=127, time=64),
    Message('note_on', channel=9, note=38, velocity=127, time=32),
    Message('note_off', channel=9, note=38, velocity=127, time=64),
    Message('note_on', channel=9, note=36, velocity=127, time=128),
    Message('note_off', channel=9, note=36, velocity=127, time=64),
    Message('note_on', channel=9, note=36, velocity=127, time=32),
    Message('note_off', channel=9, note=36, velocity=127, time=64),
    Message('note_on', channel=9, note=38, velocity=127, time=32),
    Message('note_off', channel=9, note=38, velocity=127, time=64),
    Message('note_on', channel=9, note=36, velocity=127, time=224),
    Message('note_off', channel=9, note=36, velocity=127, time=64),
    Message('note_on', channel=9, note=38, velocity=127, time=32),
    Message('note_on', channel=9, note=36, velocity=127, time=96),
    Message('note_off', channel=9, note=38, velocity=127, time=32),
    Message('note_off', channel=9, note=36, velocity=127, time=32),
    Message('note_on', channel=9, note=38, velocity=127, time=32),
    Message('note_off', channel=9, note=38, velocity=127, time=64),
    Message('note_on', channel=9, note=36, velocity=127, time=32),
    Message('note_off', channel=9, note=36, velocity=127, time=64),
    Message('note_on', channel=9, note=36, velocity=127, time=128),
    Message('note_off', channel=9, note=36, velocity=127, time=64),
    Message('note_on', channel=9, note=36, velocity=127, time=128),
    Message('note_off', channel=9, note=36, velocity=127, time=64),
    Message('note_on', channel=9, note=38, velocity=127, time=32),
    Message('note_off', channel=9, note=38, velocity=127, time=64),
    Message('note_on', channel=9, note=36, velocity=127, time=128),
    Message('note_off', channel=9, note=36, velocity=127, time=64),
    Message('note_on', channel=9, note=36, velocity=127, time=32),
    Message('note_off', channel=9, note=36, velocity=127, time=64),
    Message('note_on', channel=9, note=38, velocity=127, time=32),
    Message('note_off', channel=9, note=38, velocity=127, time=64),
    Message('note_on', channel=9, note=36, velocity=127, time=128),
    Message('note_off', channel=9, note=36, velocity=127, time=64),
    Message('note_on', channel=9, note=36, velocity=127, time=32),
    Message('note_off', channel=9, note=36, velocity=127, time=64),
    Message('note_on', channel=9, note=38, velocity=127, time=32),
    Message('note_off', channel=9, note=38, velocity=127, time=128),
    Message('note_on', channel=9, note=36, velocity=127, time=64),
    Message('note_off', channel=9, note=36, velocity=127, time=64),
    Message('note_on', channel=9, note=36, velocity=127, time=32),
    Message('note_off', channel=9, note=36, velocity=127, time=64),
    Message('note_on', channel=9, note=38, velocity=127, time=32),
    Message('note_off', channel=9, note=38, velocity=127, time=64),
    Message('note_on', channel=9, note=36, velocity=127, time=32),
    Message('note_off', channel=9, note=36, velocity=127, time=64),
    Message('note_on', channel=9, note=36, velocity=127, time=128),
    Message('note_off', channel=9, note=36, velocity=127, time=64),
    Message('note_on', channel=9, note=38, velocity=127, time=32),
    Message('note_off', channel=9, note=38, velocity=127, time=64),
    Message('note_on', channel=9, note=36, velocity=127, time=128),
    Message('note_off', channel=9, note=36, velocity=127, time=64),
    Message('note_on', channel=9, note=36, velocity=127, time=32),
    Message('note_off', channel=9, note=36, velocity=127, time=64),
    Message('note_on', channel=9, note=38, velocity=127, time=32),
    Message('note_off', channel=9, note=38, velocity=127, time=64),
    Message('note_on', channel=9, note=36, velocity=127, time=128),
    Message('note_off', channel=9, note=36, velocity=127, time=64),
    Message('note_on', channel=9, note=36, velocity=127, time=32),
    Message('note_off', channel=9, note=36, velocity=127, time=64),
    Message('note_on', channel=9, note=38, velocity=127, time=32),
    Message('note_off', channel=9, note=38, velocity=127, time=128),
    Message('note_on', channel=9, note=36, velocity=127, time=64),
    Message('note_off', channel=9, note=36, velocity=127, time=64),
    Message('note_on', channel=9, note=36, velocity=127, time=32),
    Message('note_off', channel=9, note=36, velocity=127, time=64),
    Message('note_on', channel=9, note=38, velocity=127, time=32),
    Message('note_off', channel=9, note=38, velocity=127, time=64),
    Message('note_on', channel=9, note=36, velocity=127, time=32),
    Message('note_off', channel=9, note=36, velocity=127, time=64),
    Message('note_on', channel=9, note=36, velocity=127, time=128),
    Message('note_off', channel=9, note=36, velocity=127, time=64),
    Message('note_on', channel=9, note=38, velocity=127, time=32),
    Message('note_off', channel=9, note=38, velocity=127, time=64),
    Message('note_on', channel=9, note=36, velocity=127, time=128),
    Message('note_off', channel=9, note=36, velocity=127, time=64),
    Message('note_on', channel=9, note=36, velocity=127, time=32),
    Message('note_off', channel=9, note=36, velocity=127, time=64),
    Message('note_on', channel=9, note=38, velocity=127, time=32),
    Message('note_off', channel=9, note=38, velocity=127, time=64),
    Message('note_on', channel=9, note=36, velocity=127, time=128),
    Message('note_off', channel=9, note=36, velocity=127, time=64),
    Message('note_on', channel=9, note=36, velocity=127, time=32),
    Message('note_off', channel=9, note=36, velocity=127, time=64),
    Message('note_on', channel=9, note=38, velocity=127, time=32),
    Message('note_off', channel=9, note=38, velocity=127, time=128),
    Message('note_on', channel=9, note=36, velocity=127, time=64),
    Message('note_off', channel=9, note=36, velocity=127, time=64),
    Message('note_on', channel=9, note=36, velocity=127, time=32),
    Message('note_off', channel=9, note=36, velocity=127, time=64),
    Message('note_on', channel=9, note=38, velocity=127, time=32),
    Message('note_off', channel=9, note=38, velocity=127, time=64),
    Message('note_on', channel=9, note=36, velocity=127, time=32),
    Message('note_off', channel=9, note=36, velocity=127, time=64),
    Message('note_on', channel=9, note=36, velocity=127, time=128),
    Message('note_off', channel=9, note=36, velocity=127, time=64),
    Message('note_on', channel=9, note=38, velocity=127, time=32),
    Message('note_off', channel=9, note=38, velocity=127, time=64),
    Message('note_on', channel=9, note=36, velocity=127, time=128),
    Message('note_off', channel=9, note=36, velocity=127, time=64),
    Message('note_on', channel=9, note=36, velocity=127, time=32),
    Message('note_off', channel=9, note=36, velocity=127, time=64),
    Message('note_on', channel=9, note=38, velocity=127, time=32),
    Message('note_off', channel=9, note=38, velocity=127, time=64),
    Message('note_on', channel=9, note=36, velocity=127, time=32),
    Message('note_off', channel=9, note=36, velocity=127, time=64),
    Message('note_on', channel=9, note=36, velocity=127, time=128),
    Message('note_off', channel=9, note=36, velocity=127, time=64),
    Message('note_on', channel=9, note=38, velocity=127, time=32),
    Message('note_on', channel=9, note=36, velocity=127, time=96),
    Message('note_off', channel=9, note=38, velocity=127, time=32),
    Message('note_off', channel=9, note=36, velocity=127, time=32),
    Message('note_on', channel=9, note=38, velocity=127, time=32),
    Message('note_off', channel=9, note=38, velocity=127, time=64),
    Message('note_on', channel=9, note=36, velocity=127, time=32),
    Message('note_off', channel=9, note=36, velocity=127, time=64),
    Message('note_on', channel=9, note=36, velocity=127, time=128),
    Message('note_off', channel=9, note=36, velocity=127, time=64),
    Message('note_on', channel=9, note=36, velocity=127, time=128),
    Message('note_off', channel=9, note=36, velocity=127, time=64),
    Message('note_on', channel=9, note=38, velocity=127, time=32),
    Message('note_off', channel=9, note=38, velocity=127, time=64),
    Message('note_on', channel=9, note=36, velocity=127, time=128),
    Message('note_off', channel=9, note=36, velocity=127, time=64),
    Message('note_on', channel=9, note=36, velocity=127, time=32),
    Message('note_off', channel=9, note=36, velocity=127, time=64),
    Message('note_on', channel=9, note=38, velocity=127, time=32),
    Message('note_off', channel=9, note=38, velocity=127, time=64),
    Message('note_on', channel=9, note=36, velocity=127, time=128),
    Message('note_off', channel=9, note=36, velocity=127, time=64),
    Message('note_on', channel=9, note=36, velocity=127, time=32),
    Message('note_off', channel=9, note=36, velocity=127, time=64),
    Message('note_on', channel=9, note=38, velocity=127, time=32),
    Message('note_off', channel=9, note=38, velocity=127, time=128),
    Message('note_on', channel=9, note=36, velocity=127, time=64),
    Message('note_off', channel=9, note=36, velocity=127, time=64),
    Message('note_on', channel=9, note=36, velocity=127, time=32),
    Message('note_off', channel=9, note=36, velocity=127, time=64),
    Message('note_on', channel=9, note=38, velocity=127, time=32),
    Message('note_off', channel=9, note=38, velocity=127, time=64),
    Message('note_on', channel=9, note=36, velocity=127, time=32),
    Message('note_off', channel=9, note=36, velocity=127, time=64),
    Message('note_on', channel=9, note=36, velocity=127, time=128),
    Message('note_off', channel=9, note=36, velocity=127, time=64),
    Message('note_on', channel=9, note=38, velocity=127, time=32),
    Message('note_off', channel=9, note=38, velocity=127, time=64),
    Message('note_on', channel=9, note=36, velocity=127, time=128),
    Message('note_off', channel=9, note=36, velocity=127, time=64),
    Message('note_on', channel=9, note=36, velocity=127, time=32),
    Message('note_off', channel=9, note=36, velocity=127, time=64),
    Message('note_on', channel=9, note=38, velocity=127, time=32),
    Message('note_off', channel=9, note=38, velocity=127, time=64),
    Message('note_on', channel=9, note=36, velocity=127, time=128),
    Message('note_off', channel=9, note=36, velocity=127, time=64),
    Message('note_on', channel=9, note=36, velocity=127, time=32),
    Message('note_off', channel=9, note=36, velocity=127, time=64),
    Message('note_on', channel=9, note=38, velocity=127, time=32),
    Message('note_off', channel=9, note=38, velocity=127, time=128),
    Message('note_on', channel=9, note=36, velocity=127, time=64),
    Message('note_off', channel=9, note=36, velocity=127, time=64),
    Message('note_on', channel=9, note=36, velocity=127, time=32),
    Message('note_off', channel=9, note=36, velocity=127, time=64),
    Message('note_on', channel=9, note=38, velocity=127, time=32),
    Message('note_off', channel=9, note=38, velocity=127, time=64),
    Message('note_on', channel=9, note=36, velocity=127, time=32),
    Message('note_off', channel=9, note=36, velocity=127, time=64),
    Message('note_on', channel=9, note=36, velocity=127, time=128),
    Message('note_off', channel=9, note=36, velocity=127, time=64),
    Message('note_on', channel=9, note=38, velocity=127, time=32),
    Message('note_off', channel=9, note=38, velocity=127, time=64),
    Message('note_on', channel=9, note=36, velocity=127, time=128),
    Message('note_off', channel=9, note=36, velocity=127, time=64),
    Message('note_on', channel=9, note=36, velocity=127, time=32),
    Message('note_off', channel=9, note=36, velocity=127, time=64),
    Message('note_on', channel=9, note=38, velocity=127, time=32),
    Message('note_off', channel=9, note=38, velocity=127, time=64),
    Message('note_on', channel=9, note=36, velocity=127, time=128),
    Message('note_off', channel=9, note=36, velocity=127, time=64),
    Message('note_on', channel=9, note=36, velocity=127, time=32),
    Message('note_off', channel=9, note=36, velocity=127, time=64),
    Message('note_on', channel=9, note=38, velocity=127, time=32),
    Message('note_off', channel=9, note=38, velocity=127, time=128),
    Message('note_on', channel=9, note=36, velocity=127, time=64),
    Message('note_off', channel=9, note=36, velocity=127, time=64),
    Message('note_on', channel=9, note=36, velocity=127, time=32),
    Message('note_off', channel=9, note=36, velocity=127, time=64),
    Message('note_on', channel=9, note=38, velocity=127, time=32),
    Message('note_off', channel=9, note=38, velocity=127, time=64),
    Message('note_on', channel=9, note=36, velocity=127, time=32),
    Message('note_off', channel=9, note=36, velocity=127, time=64),
    Message('note_on', channel=9, note=36, velocity=127, time=128),
    Message('note_off', channel=9, note=36, velocity=127, time=64),
    Message('note_on', channel=9, note=38, velocity=127, time=32),
    Message('note_off', channel=9, note=38, velocity=127, time=64),
    Message('note_on', channel=9, note=36, velocity=127, time=128),
    Message('note_off', channel=9, note=36, velocity=127, time=64),
    Message('note_on', channel=9, note=36, velocity=127, time=32),
    Message('note_off', channel=9, note=36, velocity=127, time=64),
    Message('note_on', channel=9, note=38, velocity=127, time=32),
    Message('note_off', channel=9, note=38, velocity=127, time=64),
    Message('note_on', channel=9, note=36, velocity=127, time=224),
    Message('note_off', channel=9, note=36, velocity=127, time=64),
    Message('note_on', channel=9, note=38, velocity=127, time=32),
    Message('note_on', channel=9, note=36, velocity=127, time=96),
    Message('note_off', channel=9, note=38, velocity=127, time=32),
    Message('note_off', channel=9, note=36, velocity=127, time=32),
    Message('note_on', channel=9, note=38, velocity=127, time=32),
    Message('note_off', channel=9, note=38, velocity=127, time=64),
    Message('note_on', channel=9, note=36, velocity=127, time=32),
    Message('note_off', channel=9, note=36, velocity=127, time=64),
    Message('note_on', channel=9, note=36, velocity=127, time=128),
    Message('note_off', channel=9, note=36, velocity=127, time=64),
    Message('note_on', channel=9, note=36, velocity=127, time=128),
    Message('note_off', channel=9, note=36, velocity=127, time=64),
    Message('note_on', channel=9, note=38, velocity=127, time=32),
    Message('note_off', channel=9, note=38, velocity=127, time=64),
    Message('note_on', channel=9, note=36, velocity=127, time=128),
    Message('note_off', channel=9, note=36, velocity=127, time=64),
    Message('note_on', channel=9, note=36, velocity=127, time=32),
    Message('note_off', channel=9, note=36, velocity=127, time=64),
    Message('note_on', channel=9, note=38, velocity=127, time=32),
    Message('note_off', channel=9, note=38, velocity=127, time=64),
    Message('note_on', channel=9, note=36, velocity=127, time=128),
    Message('note_off', channel=9, note=36, velocity=127, time=64),
    Message('note_on', channel=9, note=36, velocity=127, time=32),
    Message('note_off', channel=9, note=36, velocity=127, time=64),
    Message('note_on', channel=9, note=38, velocity=127, time=32),
    Message('note_off', channel=9, note=38, velocity=127, time=128),
    Message('note_on', channel=9, note=36, velocity=127, time=64),
    Message('note_off', channel=9, note=36, velocity=127, time=64),
    Message('note_on', channel=9, note=36, velocity=127, time=32),
    Message('note_off', channel=9, note=36, velocity=127, time=64),
    Message('note_on', channel=9, note=38, velocity=127, time=32),
    Message('note_off', channel=9, note=38, velocity=127, time=64),
    Message('note_on', channel=9, note=36, velocity=127, time=32),
    Message('note_off', channel=9, note=36, velocity=127, time=64),
    Message('note_on', channel=9, note=36, velocity=127, time=128),
    Message('note_off', channel=9, note=36, velocity=127, time=64),
    Message('note_on', channel=9, note=38, velocity=127, time=32),
    Message('note_off', channel=9, note=38, velocity=127, time=64),
    Message('note_on', channel=9, note=36, velocity=127, time=128),
    Message('note_off', channel=9, note=36, velocity=127, time=64),
    Message('note_on', channel=9, note=36, velocity=127, time=32),
    Message('note_off', channel=9, note=36, velocity=127, time=64),
    Message('note_on', channel=9, note=38, velocity=127, time=32),
    Message('note_off', channel=9, note=38, velocity=127, time=64),
    Message('note_on', channel=9, note=36, velocity=127, time=128),
    Message('note_off', channel=9, note=36, velocity=127, time=64),
    Message('note_on', channel=9, note=36, velocity=127, time=32),
    Message('note_off', channel=9, note=36, velocity=127, time=64),
    Message('note_on', channel=9, note=38, velocity=127, time=32),
    Message('note_off', channel=9, note=38, velocity=127, time=128),
    Message('note_on', channel=9, note=36, velocity=127, time=64),
    Message('note_off', channel=9, note=36, velocity=127, time=64),
    Message('note_on', channel=9, note=36, velocity=127, time=32),
    Message('note_off', channel=9, note=36, velocity=127, time=64),
    Message('note_on', channel=9, note=38, velocity=127, time=32),
    Message('note_off', channel=9, note=38, velocity=127, time=64),
    Message('note_on', channel=9, note=36, velocity=127, time=32),
    Message('note_off', channel=9, note=36, velocity=127, time=64),
    Message('note_on', channel=9, note=36, velocity=127, time=128),
    Message('note_off', channel=9, note=36, velocity=127, time=64),
    Message('note_on', channel=9, note=38, velocity=127, time=32),
    Message('note_off', channel=9, note=38, velocity=127, time=64),
    Message('note_on', channel=9, note=36, velocity=127, time=128),
    Message('note_off', channel=9, note=36, velocity=127, time=64),
    Message('note_on', channel=9, note=36, velocity=127, time=32),
    Message('note_off', channel=9, note=36, velocity=127, time=64),
    Message('note_on', channel=9, note=38, velocity=127, time=32),
    Message('note_off', channel=9, note=38, velocity=127, time=64),
    Message('note_on', channel=9, note=36, velocity=127, time=128),
    Message('note_off', channel=9, note=36, velocity=127, time=64),
    Message('note_on', channel=9, note=36, velocity=127, time=32),
    Message('note_off', channel=9, note=36, velocity=127, time=64),
    Message('note_on', channel=9, note=38, velocity=127, time=32),
    Message('note_off', channel=9, note=38, velocity=127, time=128),
    Message('note_on', channel=9, note=36, velocity=127, time=64),
    Message('note_off', channel=9, note=36, velocity=127, time=64),
    Message('note_on', channel=9, note=36, velocity=127, time=32),
    Message('note_off', channel=9, note=36, velocity=127, time=64),
    Message('note_on', channel=9, note=38, velocity=127, time=32),
    Message('note_off', channel=9, note=38, velocity=127, time=64),
    Message('note_on', channel=9, note=36, velocity=127, time=32),
    Message('note_off', channel=9, note=36, velocity=127, time=64),
    Message('note_on', channel=9, note=36, velocity=127, time=128),
    Message('note_off', channel=9, note=36, velocity=127, time=64),
    Message('note_on', channel=9, note=38, velocity=127, time=32),
    Message('note_off', channel=9, note=38, velocity=127, time=64),
    Message('note_on', channel=9, note=36, velocity=127, time=128),
    Message('note_off', channel=9, note=36, velocity=127, time=64),
    Message('note_on', channel=9, note=36, velocity=127, time=32),
    Message('note_off', channel=9, note=36, velocity=127, time=64),
    Message('note_on', channel=9, note=38, velocity=127, time=32),
    Message('note_off', channel=9, note=38, velocity=127, time=64),
    Message('note_on', channel=9, note=36, velocity=127, time=224),
    Message('note_off', channel=9, note=36, velocity=127, time=64),
    Message('note_on', channel=9, note=38, velocity=127, time=32),
    Message('note_on', channel=9, note=36, velocity=127, time=96),
    Message('note_off', channel=9, note=38, velocity=127, time=32),
    Message('note_off', channel=9, note=36, velocity=127, time=32),
    Message('note_on', channel=9, note=38, velocity=127, time=32),
    Message('note_off', channel=9, note=38, velocity=127, time=64),
    Message('note_on', channel=9, note=36, velocity=127, time=32),
    Message('note_off', channel=9, note=36, velocity=127, time=64),
    Message('note_on', channel=9, note=36, velocity=127, time=128),
    Message('note_off', channel=9, note=36, velocity=127, time=64),
    Message('note_on', channel=9, note=36, velocity=127, time=128),
    Message('note_off', channel=9, note=36, velocity=127, time=64),
    Message('note_on', channel=9, note=38, velocity=127, time=32),
    Message('note_off', channel=9, note=38, velocity=127, time=64),
    Message('note_on', channel=9, note=36, velocity=127, time=128),
    Message('note_off', channel=9, note=36, velocity=127, time=64),
    Message('note_on', channel=9, note=36, velocity=127, time=32),
    Message('note_off', channel=9, note=36, velocity=127, time=64),
    Message('note_on', channel=9, note=38, velocity=127, time=32),
    Message('note_off', channel=9, note=38, velocity=127, time=64),
    Message('note_on', channel=9, note=36, velocity=127, time=128),
    Message('note_off', channel=9, note=36, velocity=127, time=64),
    Message('note_on', channel=9, note=36, velocity=127, time=32),
    Message('note_off', channel=9, note=36, velocity=127, time=64),
    Message('note_on', channel=9, note=38, velocity=127, time=32),
    Message('note_off', channel=9, note=38, velocity=127, time=128),
    Message('note_on', channel=9, note=36, velocity=127, time=64),
    Message('note_off', channel=9, note=36, velocity=127, time=64),
    Message('note_on', channel=9, note=36, velocity=127, time=32),
    Message('note_off', channel=9, note=36, velocity=127, time=64),
    Message('note_on', channel=9, note=38, velocity=127, time=32),
    Message('note_off', channel=9, note=38, velocity=127, time=64),
    Message('note_on', channel=9, note=36, velocity=127, time=32),
    Message('note_off', channel=9, note=36, velocity=127, time=64),
    Message('note_on', channel=9, note=36, velocity=127, time=128),
    Message('note_off', channel=9, note=36, velocity=127, time=64),
    Message('note_on', channel=9, note=38, velocity=127, time=32),
    Message('note_off', channel=9, note=38, velocity=127, time=64),
    Message('note_on', channel=9, note=36, velocity=127, time=128),
    Message('note_off', channel=9, note=36, velocity=127, time=64),
    Message('note_on', channel=9, note=36, velocity=127, time=32),
    Message('note_off', channel=9, note=36, velocity=127, time=64),
    Message('note_on', channel=9, note=38, velocity=127, time=32),
    Message('note_off', channel=9, note=38, velocity=127, time=64),
    Message('note_on', channel=9, note=36, velocity=127, time=128),
    Message('note_off', channel=9, note=36, velocity=127, time=64),
    Message('note_on', channel=9, note=36, velocity=127, time=32),
    Message('note_off', channel=9, note=36, velocity=127, time=64),
    Message('note_on', channel=9, note=38, velocity=127, time=32),
    Message('note_off', channel=9, note=38, velocity=127, time=128),
    Message('note_on', channel=9, note=36, velocity=127, time=64),
    Message('note_off', channel=9, note=36, velocity=127, time=64),
    Message('note_on', channel=9, note=36, velocity=127, time=32),
    Message('note_off', channel=9, note=36, velocity=127, time=64),
    Message('note_on', channel=9, note=38, velocity=127, time=32),
    Message('note_off', channel=9, note=38, velocity=127, time=64),
    Message('note_on', channel=9, note=36, velocity=127, time=32),
    Message('note_off', channel=9, note=36, velocity=127, time=64),
    Message('note_on', channel=9, note=36, velocity=127, time=128),
    Message('note_off', channel=9, note=36, velocity=127, time=64),
    Message('note_on', channel=9, note=38, velocity=127, time=32),
    Message('note_off', channel=9, note=38, velocity=127, time=64),
    Message('note_on', channel=9, note=36, velocity=127, time=128),
    Message('note_off', channel=9, note=36, velocity=127, time=64),
    Message('note_on', channel=9, note=36, velocity=127, time=32),
    Message('note_off', channel=9, note=36, velocity=127, time=64),
    Message('note_on', channel=9, note=38, velocity=127, time=32),
    Message('note_off', channel=9, note=38, velocity=127, time=64),
    Message('note_on', channel=9, note=36, velocity=127, time=128),
    Message('note_off', channel=9, note=36, velocity=127, time=64),
    Message('note_on', channel=9, note=36, velocity=127, time=32),
    Message('note_off', channel=9, note=36, velocity=127, time=64),
    Message('note_on', channel=9, note=38, velocity=127, time=32),
    Message('note_off', channel=9, note=38, velocity=127, time=128),
    Message('note_on', channel=9, note=36, velocity=127, time=64),
    Message('note_off', channel=9, note=36, velocity=127, time=64),
    Message('note_on', channel=9, note=36, velocity=127, time=32),
    Message('note_off', channel=9, note=36, velocity=127, time=64),
    Message('note_on', channel=9, note=38, velocity=127, time=32),
    Message('note_off', channel=9, note=38, velocity=127, time=64),
    Message('note_on', channel=9, note=36, velocity=127, time=32),
    Message('note_off', channel=9, note=36, velocity=127, time=64),
    Message('note_on', channel=9, note=36, velocity=127, time=128),
    Message('note_off', channel=9, note=36, velocity=127, time=64),
    Message('note_on', channel=9, note=38, velocity=127, time=32),
    Message('note_off', channel=9, note=38, velocity=127, time=64),
    Message('note_on', channel=9, note=36, velocity=127, time=128),
    Message('note_off', channel=9, note=36, velocity=127, time=64),
    Message('note_on', channel=9, note=36, velocity=127, time=32),
    Message('note_off', channel=9, note=36, velocity=127, time=64),
    Message('note_on', channel=9, note=38, velocity=127, time=32),
    Message('note_off', channel=9, note=38, velocity=127, time=64),
    Message('note_on', channel=9, note=36, velocity=127, time=224),
    Message('note_off', channel=9, note=36, velocity=127, time=64),
    Message('note_on', channel=9, note=38, velocity=127, time=32),
    Message('note_on', channel=9, note=36, velocity=127, time=96),
    Message('note_off', channel=9, note=38, velocity=127, time=32),
    Message('note_off', channel=9, note=36, velocity=127, time=32),
    Message('note_on', channel=9, note=38, velocity=127, time=32),
    Message('note_off', channel=9, note=38, velocity=127, time=64),
    Message('note_on', channel=9, note=36, velocity=127, time=32),
    Message('note_off', channel=9, note=36, velocity=127, time=64),
    Message('note_on', channel=9, note=36, velocity=127, time=128),
    Message('note_off', channel=9, note=36, velocity=127, time=64),
    Message('note_on', channel=9, note=36, velocity=127, time=128),
    Message('note_off', channel=9, note=36, velocity=127, time=64),
    Message('note_on', channel=9, note=38, velocity=127, time=32),
    Message('note_off', channel=9, note=38, velocity=127, time=64),
    Message('note_on', channel=9, note=36, velocity=127, time=128),
    Message('note_off', channel=9, note=36, velocity=127, time=64),
    Message('note_on', channel=9, note=36, velocity=127, time=32),
    Message('note_off', channel=9, note=36, velocity=127, time=64),
    Message('note_on', channel=9, note=38, velocity=127, time=32),
    Message('note_off', channel=9, note=38, velocity=127, time=64),
    Message('note_on', channel=9, note=36, velocity=127, time=128),
    Message('note_off', channel=9, note=36, velocity=127, time=64),
    Message('note_on', channel=9, note=36, velocity=127, time=32),
    Message('note_off', channel=9, note=36, velocity=127, time=64),
    Message('note_on', channel=9, note=38, velocity=127, time=32),
    Message('note_off', channel=9, note=38, velocity=127, time=128),
    Message('note_on', channel=9, note=36, velocity=127, time=64),
    Message('note_off', channel=9, note=36, velocity=127, time=64),
    Message('note_on', channel=9, note=36, velocity=127, time=32),
    Message('note_off', channel=9, note=36, velocity=127, time=64),
    Message('note_on', channel=9, note=38, velocity=127, time=32),
    Message('note_off', channel=9, note=38, velocity=127, time=64),
    Message('note_on', channel=9, note=36, velocity=127, time=32),
    Message('note_off', channel=9, note=36, velocity=127, time=64),
    Message('note_on', channel=9, note=36, velocity=127, time=128),
    Message('note_off', channel=9, note=36, velocity=127, time=64),
    Message('note_on', channel=9, note=38, velocity=127, time=32),
    Message('note_off', channel=9, note=38, velocity=127, time=64),
    Message('note_on', channel=9, note=36, velocity=127, time=128),
    Message('note_off', channel=9, note=36, velocity=127, time=64),
    Message('note_on', channel=9, note=36, velocity=127, time=32),
    Message('note_off', channel=9, note=36, velocity=127, time=64),
    Message('note_on', channel=9, note=38, velocity=127, time=32),
    Message('note_off', channel=9, note=38, velocity=127, time=64),
    Message('note_on', channel=9, note=36, velocity=127, time=128),
    Message('note_off', channel=9, note=36, velocity=127, time=64),
    Message('note_on', channel=9, note=36, velocity=127, time=32),
    Message('note_off', channel=9, note=36, velocity=127, time=64),
    Message('note_on', channel=9, note=38, velocity=127, time=32),
    Message('note_off', channel=9, note=38, velocity=127, time=128),
    Message('note_on', channel=9, note=36, velocity=127, time=64),
    Message('note_off', channel=9, note=36, velocity=127, time=64),
    Message('note_on', channel=9, note=36, velocity=127, time=32),
    Message('note_off', channel=9, note=36, velocity=127, time=64),
    Message('note_on', channel=9, note=38, velocity=127, time=32),
    Message('note_off', channel=9, note=38, velocity=127, time=64),
    Message('note_on', channel=9, note=36, velocity=127, time=32),
    Message('note_off', channel=9, note=36, velocity=127, time=64),
    Message('note_on', channel=9, note=36, velocity=127, time=128),
    Message('note_off', channel=9, note=36, velocity=127, time=64),
    Message('note_on', channel=9, note=38, velocity=127, time=32),
    Message('note_off', channel=9, note=38, velocity=127, time=64),
    Message('note_on', channel=9, note=36, velocity=127, time=128),
    Message('note_off', channel=9, note=36, velocity=127, time=64),
    Message('note_on', channel=9, note=36, velocity=127, time=32),
    Message('note_off', channel=9, note=36, velocity=127, time=64),
    Message('note_on', channel=9, note=38, velocity=127, time=32),
    Message('note_off', channel=9, note=38, velocity=127, time=64),
    Message('note_on', channel=9, note=36, velocity=127, time=128),
    Message('note_off', channel=9, note=36, velocity=127, time=64),
    Message('note_on', channel=9, note=36, velocity=127, time=32),
    Message('note_off', channel=9, note=36, velocity=127, time=64),
    Message('note_on', channel=9, note=38, velocity=127, time=32),
    Message('note_off', channel=9, note=38, velocity=127, time=128),
    Message('note_on', channel=9, note=36, velocity=127, time=64),
    Message('note_off', channel=9, note=36, velocity=127, time=64),
    Message('note_on', channel=9, note=36, velocity=127, time=32),
    Message('note_off', channel=9, note=36, velocity=127, time=64),
    Message('note_on', channel=9, note=38, velocity=127, time=32),
    Message('note_off', channel=9, note=38, velocity=127, time=64),
    Message('note_on', channel=9, note=36, velocity=127, time=32),
    Message('note_off', channel=9, note=36, velocity=127, time=64),
    Message('note_on', channel=9, note=36, velocity=127, time=128),
    Message('note_off', channel=9, note=36, velocity=127, time=64),
    Message('note_on', channel=9, note=38, velocity=127, time=32),
    Message('note_off', channel=9, note=38, velocity=127, time=64),
    Message('note_on', channel=9, note=36, velocity=127, time=128),
    Message('note_off', channel=9, note=36, velocity=127, time=64),
    Message('note_on', channel=9, note=36, velocity=127, time=32),
    Message('note_off', channel=9, note=36, velocity=127, time=64),
    Message('note_on', channel=9, note=38, velocity=127, time=32),
    Message('note_off', channel=9, note=38, velocity=127, time=64),
    Message('note_on', channel=9, note=36, velocity=127, time=224),
    Message('note_off', channel=9, note=36, velocity=127, time=64),
    Message('note_on', channel=9, note=38, velocity=127, time=32),
    Message('note_on', channel=9, note=36, velocity=127, time=96),
    Message('note_off', channel=9, note=38, velocity=127, time=32),
    Message('note_off', channel=9, note=36, velocity=127, time=32),
    Message('note_on', channel=9, note=38, velocity=127, time=32),
    Message('note_off', channel=9, note=38, velocity=127, time=64),
    Message('note_on', channel=9, note=36, velocity=127, time=32),
    Message('note_off', channel=9, note=36, velocity=127, time=64),
    Message('note_on', channel=9, note=36, velocity=127, time=128),
    Message('note_off', channel=9, note=36, velocity=127, time=64),
    Message('note_on', channel=9, note=36, velocity=127, time=128),
    Message('note_off', channel=9, note=36, velocity=127, time=64),
    Message('note_on', channel=9, note=38, velocity=127, time=32),
    Message('note_off', channel=9, note=38, velocity=127, time=64),
    Message('note_on', channel=9, note=36, velocity=127, time=32),
    Message('note_off', channel=9, note=36, velocity=127, time=64),
    Message('note_on', channel=9, note=36, velocity=127, time=32),
    Message('note_off', channel=9, note=36, velocity=127, time=64),
    Message('note_on', channel=9, note=38, velocity=127, time=32),
    Message('note_off', channel=9, note=38, velocity=127, time=64),
    Message('note_on', channel=9, note=36, velocity=127, time=32),
    Message('note_off', channel=9, note=36, velocity=127, time=64),
    Message('note_on', channel=9, note=36, velocity=127, time=32),
    Message('note_off', channel=9, note=36, velocity=127, time=64),
    Message('note_on', channel=9, note=38, velocity=127, time=32),
    Message('note_off', channel=9, note=38, velocity=127, time=64),
    Message('note_on', channel=9, note=36, velocity=127, time=32),
    Message('note_off', channel=9, note=36, velocity=127, time=64),
    Message('note_on', channel=9, note=36, velocity=127, time=32),
    Message('note_off', channel=9, note=36, velocity=127, time=64),
    Message('note_on', channel=9, note=38, velocity=127, time=32),
    Message('note_off', channel=9, note=38, velocity=127, time=64),
    Message('note_on', channel=9, note=36, velocity=127, time=32),
    Message('note_off', channel=9, note=36, velocity=127, time=64),
    Message('note_on', channel=9, note=36, velocity=127, time=32),
    Message('note_off', channel=9, note=36, velocity=127, time=64),
    Message('note_on', channel=9, note=38, velocity=127, time=32),
    Message('note_off', channel=9, note=38, velocity=127, time=64),
    Message('note_on', channel=9, note=36, velocity=127, time=32),
    Message('note_off', channel=9, note=36, velocity=127, time=64),
    Message('note_on', channel=9, note=36, velocity=127, time=128),
    Message('note_off', channel=9, note=36, velocity=127, time=64),
    Message('note_on', channel=9, note=38, velocity=127, time=32),
    Message('note_off', channel=9, note=38, velocity=127, time=64),
    Message('note_on', channel=9, note=36, velocity=127, time=32),
    Message('note_off', channel=9, note=36, velocity=127, time=64),
    Message('note_on', channel=9, note=36, velocity=127, time=32),
    Message('note_off', channel=9, note=36, velocity=127, time=64),
    Message('note_on', channel=9, note=38, velocity=127, time=32),
    Message('note_off', channel=9, note=38, velocity=127, time=64),
    Message('note_on', channel=9, note=36, velocity=127, time=32),
    Message('note_off', channel=9, note=36, velocity=127, time=64),
    Message('note_on', channel=9, note=36, velocity=127, time=32),
    Message('note_off', channel=9, note=36, velocity=127, time=64),
    Message('note_on', channel=9, note=38, velocity=127, time=32),
    Message('note_off', channel=9, note=38, velocity=127, time=64),
    Message('note_on', channel=9, note=36, velocity=127, time=32),
    Message('note_off', channel=9, note=36, velocity=127, time=64),
    Message('note_on', channel=9, note=36, velocity=127, time=32),
    Message('note_off', channel=9, note=36, velocity=127, time=64),
    Message('note_on', channel=9, note=38, velocity=127, time=32),
    Message('note_off', channel=9, note=38, velocity=127, time=64),
    Message('note_on', channel=9, note=36, velocity=127, time=32),
    Message('note_off', channel=9, note=36, velocity=127, time=64),
    Message('note_on', channel=9, note=36, velocity=127, time=32),
    Message('note_off', channel=9, note=36, velocity=127, time=64),
    Message('note_on', channel=9, note=38, velocity=127, time=32),
    Message('note_off', channel=9, note=38, velocity=127, time=64),
    Message('note_on', channel=9, note=36, velocity=127, time=32),
    Message('note_off', channel=9, note=36, velocity=127, time=64),
    Message('note_on', channel=9, note=36, velocity=127, time=128),
    Message('note_off', channel=9, note=36, velocity=127, time=64),
    Message('note_on', channel=9, note=38, velocity=127, time=32),
    Message('note_off', channel=9, note=38, velocity=127, time=64),
    Message('note_on', channel=9, note=36, velocity=127, time=32),
    Message('note_off', channel=9, note=36, velocity=127, time=64),
    Message('note_on', channel=9, note=36, velocity=127, time=32),
    Message('note_off', channel=9, note=36, velocity=127, time=64),
    Message('note_on', channel=9, note=38, velocity=127, time=32),
    Message('note_off', channel=9, note=38, velocity=127, time=64),
    Message('note_on', channel=9, note=36, velocity=127, time=32),
    Message('note_off', channel=9, note=36, velocity=127, time=64),
    Message('note_on', channel=9, note=36, velocity=127, time=32),
    Message('note_off', channel=9, note=36, velocity=127, time=64),
    Message('note_on', channel=9, note=38, velocity=127, time=32),
    Message('note_off', channel=9, note=38, velocity=127, time=64),
    Message('note_on', channel=9, note=36, velocity=127, time=32),
    Message('note_off', channel=9, note=36, velocity=127, time=64),
    Message('note_on', channel=9, note=36, velocity=127, time=32),
    Message('note_off', channel=9, note=36, velocity=127, time=64),
    Message('note_on', channel=9, note=38, velocity=127, time=32),
    Message('note_off', channel=9, note=38, velocity=127, time=64),
    Message('note_on', channel=9, note=36, velocity=127, time=32),
    Message('note_off', channel=9, note=36, velocity=127, time=64),
    Message('note_on', channel=9, note=36, velocity=127, time=32),
    Message('note_off', channel=9, note=36, velocity=127, time=64),
    Message('note_on', channel=9, note=38, velocity=127, time=32),
    Message('note_off', channel=9, note=38, velocity=127, time=64),
    Message('note_on', channel=9, note=36, velocity=127, time=32),
    Message('note_off', channel=9, note=36, velocity=127, time=64),
    Message('note_on', channel=9, note=36, velocity=127, time=128),
    Message('note_off', channel=9, note=36, velocity=127, time=64),
    Message('note_on', channel=9, note=38, velocity=127, time=32),
    Message('note_off', channel=9, note=38, velocity=127, time=64),
    Message('note_on', channel=9, note=36, velocity=127, time=32),
    Message('note_off', channel=9, note=36, velocity=127, time=64),
    Message('note_on', channel=9, note=38, velocity=127, time=32),
    Message('note_off', channel=9, note=38, velocity=127, time=64),
    Message('note_on', channel=9, note=36, velocity=127, time=32),
    Message('note_off', channel=9, note=36, velocity=127, time=64),
    Message('note_on', channel=9, note=38, velocity=127, time=32),
    Message('note_off', channel=9, note=38, velocity=127, time=64),
    Message('note_on', channel=9, note=36, velocity=127, time=32),
    Message('note_off', channel=9, note=36, velocity=127, time=64),
    Message('note_on', channel=9, note=36, velocity=127, time=128),
    Message('note_off', channel=9, note=36, velocity=127, time=64),
    Message('note_on', channel=9, note=38, velocity=127, time=32),
    Message('note_off', channel=9, note=38, velocity=127, time=64),
    Message('note_on', channel=9, note=36, velocity=127, time=32),
    Message('note_off', channel=9, note=36, velocity=127, time=64),
    Message('note_on', channel=9, note=38, velocity=127, time=32),
    Message('note_off', channel=9, note=38, velocity=127, time=64),
    Message('note_on', channel=9, note=36, velocity=127, time=32),
    Message('note_off', channel=9, note=36, velocity=127, time=64),
    Message('note_on', channel=9, note=36, velocity=127, time=128),
    Message('note_off', channel=9, note=36, velocity=127, time=64),
    Message('note_on', channel=9, note=36, velocity=127, time=128),
    Message('note_off', channel=9, note=36, velocity=127, time=64),
    Message('note_on', channel=9, note=38, velocity=127, time=32),
    Message('note_off', channel=9, note=38, velocity=127, time=64),
    Message('note_on', channel=9, note=36, velocity=127, time=32),
    Message('note_off', channel=9, note=36, velocity=127, time=64),
    Message('note_on', channel=9, note=36, velocity=127, time=32),
    Message('note_off', channel=9, note=36, velocity=127, time=64),
    Message('note_on', channel=9, note=38, velocity=127, time=32),
    Message('note_off', channel=9, note=38, velocity=127, time=64),
    Message('note_on', channel=9, note=36, velocity=127, time=32),
    Message('note_off', channel=9, note=36, velocity=127, time=64),
    Message('note_on', channel=9, note=36, velocity=127, time=32),
    Message('note_off', channel=9, note=36, velocity=127, time=64),
    Message('note_on', channel=9, note=38, velocity=127, time=32),
    Message('note_off', channel=9, note=38, velocity=127, time=64),
    Message('note_on', channel=9, note=36, velocity=127, time=32),
    Message('note_off', channel=9, note=36, velocity=127, time=64),
    Message('note_on', channel=9, note=36, velocity=127, time=32),
    Message('note_off', channel=9, note=36, velocity=127, time=64),
    Message('note_on', channel=9, note=38, velocity=127, time=32),
    Message('note_off', channel=9, note=38, velocity=127, time=64),
    Message('note_on', channel=9, note=36, velocity=127, time=32),
    Message('note_off', channel=9, note=36, velocity=127, time=64),
    Message('note_on', channel=9, note=36, velocity=127, time=32),
    Message('note_off', channel=9, note=36, velocity=127, time=64),
    Message('note_on', channel=9, note=38, velocity=127, time=32),
    Message('note_off', channel=9, note=38, velocity=127, time=64),
    Message('note_on', channel=9, note=36, velocity=127, time=32),
    Message('note_off', channel=9, note=36, velocity=127, time=64),
    Message('note_on', channel=9, note=36, velocity=127, time=128),
    Message('note_off', channel=9, note=36, velocity=127, time=64),
    Message('note_on', channel=9, note=38, velocity=127, time=32),
    Message('note_off', channel=9, note=38, velocity=127, time=64),
    Message('note_on', channel=9, note=36, velocity=127, time=32),
    Message('note_off', channel=9, note=36, velocity=127, time=64),
    Message('note_on', channel=9, note=36, velocity=127, time=32),
    Message('note_off', channel=9, note=36, velocity=127, time=64),
    Message('note_on', channel=9, note=38, velocity=127, time=32),
    Message('note_off', channel=9, note=38, velocity=127, time=64),
    Message('note_on', channel=9, note=36, velocity=127, time=32),
    Message('note_off', channel=9, note=36, velocity=127, time=64),
    Message('note_on', channel=9, note=36, velocity=127, time=32),
    Message('note_off', channel=9, note=36, velocity=127, time=64),
    Message('note_on', channel=9, note=38, velocity=127, time=32),
    Message('note_off', channel=9, note=38, velocity=127, time=64),
    Message('note_on', channel=9, note=36, velocity=127, time=32),
    Message('note_off', channel=9, note=36, velocity=127, time=64),
    Message('note_on', channel=9, note=36, velocity=127, time=32),
    Message('note_off', channel=9, note=36, velocity=127, time=64),
    Message('note_on', channel=9, note=38, velocity=127, time=32),
    Message('note_off', channel=9, note=38, velocity=127, time=64),
    Message('note_on', channel=9, note=36, velocity=127, time=32),
    Message('note_off', channel=9, note=36, velocity=127, time=64),
    Message('note_on', channel=9, note=36, velocity=127, time=32),
    Message('note_off', channel=9, note=36, velocity=127, time=64),
    Message('note_on', channel=9, note=38, velocity=127, time=32),
    Message('note_off', channel=9, note=38, velocity=127, time=64),
    Message('note_on', channel=9, note=36, velocity=127, time=32),
    Message('note_off', channel=9, note=36, velocity=127, time=64),
    Message('note_on', channel=9, note=36, velocity=127, time=128),
    Message('note_off', channel=9, note=36, velocity=127, time=64),
    Message('note_on', channel=9, note=38, velocity=127, time=32),
    Message('note_off', channel=9, note=38, velocity=127, time=64),
    Message('note_on', channel=9, note=36, velocity=127, time=32),
    Message('note_off', channel=9, note=36, velocity=127, time=64),
    Message('note_on', channel=9, note=36, velocity=127, time=32),
    Message('note_off', channel=9, note=36, velocity=127, time=64),
    Message('note_on', channel=9, note=38, velocity=127, time=32),
    Message('note_off', channel=9, note=38, velocity=127, time=64),
    Message('note_on', channel=9, note=36, velocity=127, time=32),
    Message('note_off', channel=9, note=36, velocity=127, time=64),
    Message('note_on', channel=9, note=36, velocity=127, time=32),
    Message('note_off', channel=9, note=36, velocity=127, time=64),
    Message('note_on', channel=9, note=38, velocity=127, time=32),
    Message('note_off', channel=9, note=38, velocity=127, time=64),
    Message('note_on', channel=9, note=36, velocity=127, time=32),
    Message('note_off', channel=9, note=36, velocity=127, time=64),
    Message('note_on', channel=9, note=36, velocity=127, time=32),
    Message('note_off', channel=9, note=36, velocity=127, time=64),
    Message('note_on', channel=9, note=38, velocity=127, time=32),
    Message('note_off', channel=9, note=38, velocity=127, time=64),
    Message('note_on', channel=9, note=36, velocity=127, time=32),
    Message('note_off', channel=9, note=36, velocity=127, time=64),
    Message('note_on', channel=9, note=36, velocity=127, time=32),
    Message('note_off', channel=9, note=36, velocity=127, time=64),
    Message('note_on', channel=9, note=38, velocity=127, time=32),
    Message('note_off', channel=9, note=38, velocity=127, time=64),
    Message('note_on', channel=9, note=36, velocity=127, time=32),
    Message('note_off', channel=9, note=36, velocity=127, time=64),
    Message('note_on', channel=9, note=36, velocity=127, time=128),
    Message('note_off', channel=9, note=36, velocity=127, time=64),
    Message('note_on', channel=9, note=38, velocity=127, time=32),
    Message('note_off', channel=9, note=38, velocity=127, time=64),
    Message('note_on', channel=9, note=36, velocity=127, time=32),
    Message('note_off', channel=9, note=36, velocity=127, time=64),
    Message('note_on', channel=9, note=38, velocity=127, time=32),
    Message('note_off', channel=9, note=38, velocity=127, time=64),
    Message('note_on', channel=9, note=36, velocity=127, time=32),
    Message('note_off', channel=9, note=36, velocity=127, time=64),
    Message('note_on', channel=9, note=38, velocity=127, time=32),
    Message('note_off', channel=9, note=38, velocity=127, time=64),
    Message('note_on', channel=9, note=36, velocity=127, time=32),
    Message('note_off', channel=9, note=36, velocity=127, time=64),
    Message('note_on', channel=9, note=36, velocity=127, time=128),
    Message('note_off', channel=9, note=36, velocity=127, time=64),
    Message('note_on', channel=9, note=38, velocity=127, time=32),
    Message('note_off', channel=9, note=38, velocity=127, time=64),
    Message('note_on', channel=9, note=36, velocity=127, time=32),
    Message('note_off', channel=9, note=36, velocity=127, time=64),
    Message('note_on', channel=9, note=38, velocity=127, time=32),
    Message('note_off', channel=9, note=38, velocity=127, time=64),
    Message('note_on', channel=9, note=36, velocity=127, time=32),
    Message('note_off', channel=9, note=36, velocity=127, time=64),
    Message('note_on', channel=9, note=36, velocity=127, time=128),
    Message('note_off', channel=9, note=36, velocity=127, time=64),
    Message('note_on', channel=9, note=36, velocity=127, time=32),
    Message('note_off', channel=9, note=36, velocity=127, time=64),
    Message('note_on', channel=9, note=38, velocity=127, time=32),
    Message('note_on', channel=9, note=42, velocity=127, time=0),
    Message('note_off', channel=9, note=38, velocity=127, time=64),
    Message('note_off', channel=9, note=42, velocity=127, time=0),
    Message('note_on', channel=9, note=42, velocity=127, time=32),
    Message('note_on', channel=9, note=36, velocity=127, time=0),
    Message('note_off', channel=9, note=42, velocity=127, time=64),
    Message('note_off', channel=9, note=36, velocity=127, time=0),
    Message('note_on', channel=9, note=42, velocity=127, time=32),
    Message('note_on', channel=9, note=36, velocity=127, time=0),
    Message('note_off', channel=9, note=42, velocity=127, time=64),
    Message('note_off', channel=9, note=36, velocity=127, time=0),
    Message('note_on', channel=9, note=42, velocity=127, time=32),
    Message('note_off', channel=9, note=42, velocity=127, time=64),
    Message('note_on', channel=9, note=42, velocity=127, time=32),
    Message('note_on', channel=9, note=38, velocity=127, time=0),
    Message('note_off', channel=9, note=42, velocity=127, time=64),
    Message('note_off', channel=9, note=38, velocity=127, time=0),
    Message('note_on', channel=9, note=42, velocity=127, time=32),
    Message('note_off', channel=9, note=42, velocity=127, time=64),
    Message('note_on', channel=9, note=42, velocity=127, time=32),
    Message('note_off', channel=9, note=42, velocity=127, time=64),
    Message('note_on', channel=9, note=36, velocity=127, time=32),
    Message('note_on', channel=9, note=42, velocity=127, time=0),
    Message('note_off', channel=9, note=36, velocity=127, time=64),
    Message('note_off', channel=9, note=42, velocity=127, time=0),
    Message('note_on', channel=9, note=42, velocity=127, time=32),
    Message('note_off', channel=9, note=42, velocity=127, time=64),
    Message('note_on', channel=9, note=42, velocity=127, time=32),
    Message('note_on', channel=9, note=38, velocity=127, time=0),
    Message('note_off', channel=9, note=42, velocity=127, time=64),
    Message('note_off', channel=9, note=38, velocity=127, time=0),
    Message('note_on', channel=9, note=42, velocity=127, time=32),
    Message('note_off', channel=9, note=42, velocity=127, time=64),
    Message('note_on', channel=9, note=42, velocity=127, time=32),
    Message('note_on', channel=9, note=36, velocity=127, time=0),
    Message('note_off', channel=9, note=42, velocity=127, time=64),
    Message('note_off', channel=9, note=36, velocity=127, time=0),
    Message('note_on', channel=9, note=42, velocity=127, time=32),
    Message('note_on', channel=9, note=36, velocity=127, time=0),
    Message('note_off', channel=9, note=42, velocity=127, time=64),
    Message('note_off', channel=9, note=36, velocity=127, time=0),
    Message('note_on', channel=9, note=42, velocity=127, time=32),
    Message('note_on', channel=9, note=38, velocity=127, time=0),
    Message('note_off', channel=9, note=42, velocity=127, time=64),
    Message('note_off', channel=9, note=38, velocity=127, time=0),
    Message('note_on', channel=9, note=42, velocity=127, time=32),
    Message('note_on', channel=9, note=36, velocity=127, time=0),
    Message('note_off', channel=9, note=42, velocity=127, time=64),
    Message('note_off', channel=9, note=36, velocity=127, time=0),
    Message('note_on', channel=9, note=42, velocity=127, time=32),
    Message('note_off', channel=9, note=42, velocity=127, time=64),
    Message('note_on', channel=9, note=42, velocity=127, time=32),
    Message('note_on', channel=9, note=36, velocity=127, time=0),
    Message('note_off', channel=9, note=42, velocity=127, time=64),
    Message('note_off', channel=9, note=36, velocity=127, time=0),
    Message('note_on', channel=9, note=42, velocity=127, time=32),
    Message('note_on', channel=9, note=38, velocity=127, time=0),
    Message('note_off', channel=9, note=42, velocity=127, time=64),
    Message('note_off', channel=9, note=38, velocity=127, time=0),
    Message('note_on', channel=9, note=42, velocity=127, time=32),
    Message('note_off', channel=9, note=42, velocity=127, time=64),
    Message('note_on', channel=9, note=42, velocity=127, time=32),
    Message('note_on', channel=9, note=36, velocity=127, time=0),
    Message('note_off', channel=9, note=42, velocity=127, time=64),
    Message('note_off', channel=9, note=36, velocity=127, time=0),
    Message('note_on', channel=9, note=42, velocity=127, time=32),
    Message('note_on', channel=9, note=36, velocity=127, time=0),
    Message('note_off', channel=9, note=42, velocity=127, time=64),
    Message('note_off', channel=9, note=36, velocity=127, time=0),
    Message('note_on', channel=9, note=42, velocity=127, time=32),
    Message('note_on', channel=9, note=38, velocity=127, time=0),
    Message('note_off', channel=9, note=42, velocity=127, time=64),
    Message('note_off', channel=9, note=38, velocity=127, time=0),
    Message('note_on', channel=9, note=42, velocity=127, time=32),
    Message('note_on', channel=9, note=36, velocity=127, time=0),
    Message('note_off', channel=9, note=42, velocity=127, time=64),
    Message('note_off', channel=9, note=36, velocity=127, time=0),
    Message('note_on', channel=9, note=36, velocity=127, time=32),
    Message('note_on', channel=9, note=42, velocity=127, time=0),
    Message('note_off', channel=9, note=36, velocity=127, time=64),
    Message('note_off', channel=9, note=42, velocity=127, time=0),
    Message('note_on', channel=9, note=42, velocity=127, time=32),
    Message('note_off', channel=9, note=42, velocity=127, time=64),
    Message('note_on', channel=9, note=42, velocity=127, time=32),
    Message('note_on', channel=9, note=38, velocity=127, time=0),
    Message('note_off', channel=9, note=42, velocity=127, time=64),
    Message('note_off', channel=9, note=38, velocity=127, time=0),
    Message('note_on', channel=9, note=42, velocity=127, time=32),
    Message('note_off', channel=9, note=42, velocity=127, time=64),
    Message('note_on', channel=9, note=42, velocity=127, time=32),
    Message('note_on', channel=9, note=36, velocity=127, time=0),
    Message('note_off', channel=9, note=42, velocity=127, time=64),
    Message('note_off', channel=9, note=36, velocity=127, time=0),
    Message('note_on', channel=9, note=42, velocity=127, time=32),
    Message('note_on', channel=9, note=36, velocity=127, time=0),
    Message('note_off', channel=9, note=42, velocity=127, time=64),
    Message('note_off', channel=9, note=36, velocity=127, time=0),
    Message('note_on', channel=9, note=42, velocity=127, time=32),
    Message('note_on', channel=9, note=38, velocity=127, time=0),
    Message('note_off', channel=9, note=42, velocity=127, time=64),
    Message('note_off', channel=9, note=38, velocity=127, time=0),
    Message('note_on', channel=9, note=42, velocity=127, time=32),
    Message('note_on', channel=9, note=36, velocity=127, time=0),
    Message('note_off', channel=9, note=42, velocity=127, time=64),
    Message('note_off', channel=9, note=36, velocity=127, time=0),
    Message('note_on', channel=9, note=42, velocity=127, time=32),
    Message('note_off', channel=9, note=42, velocity=127, time=64),
    Message('note_on', channel=9, note=42, velocity=127, time=32),
    Message('note_on', channel=9, note=36, velocity=127, time=0),
    Message('note_off', channel=9, note=42, velocity=127, time=64),
    Message('note_off', channel=9, note=36, velocity=127, time=0),
    Message('note_on', channel=9, note=42, velocity=127, time=32),
    Message('note_on', channel=9, note=38, velocity=127, time=0),
    Message('note_off', channel=9, note=42, velocity=127, time=64),
    Message('note_off', channel=9, note=38, velocity=127, time=0),
    Message('note_on', channel=9, note=42, velocity=127, time=32),
    Message('note_on', channel=9, note=36, velocity=127, time=0),
    Message('note_off', channel=9, note=42, velocity=127, time=64),
    Message('note_off', channel=9, note=36, velocity=127, time=0),
    Message('note_on', channel=9, note=42, velocity=127, time=32),
    Message('note_on', channel=9, note=36, velocity=127, time=0),
    Message('note_off', channel=9, note=42, velocity=127, time=64),
    Message('note_off', channel=9, note=36, velocity=127, time=0),
    Message('note_on', channel=9, note=42, velocity=127, time=32),
    Message('note_on', channel=9, note=36, velocity=127, time=0),
    Message('note_off', channel=9, note=42, velocity=127, time=64),
    Message('note_off', channel=9, note=36, velocity=127, time=0),
    Message('note_on', channel=9, note=42, velocity=127, time=32),
    Message('note_on', channel=9, note=38, velocity=127, time=0),
    Message('note_off', channel=9, note=42, velocity=127, time=64),
    Message('note_off', channel=9, note=38, velocity=127, time=0),
    Message('note_on', channel=9, note=42, velocity=127, time=32),
    Message('note_on', channel=9, note=36, velocity=127, time=0),
    Message('note_off', channel=9, note=42, velocity=127, time=64),
    Message('note_off', channel=9, note=36, velocity=127, time=0),
    Message('note_on', channel=9, note=36, velocity=127, time=32),
    Message('note_on', channel=9, note=42, velocity=127, time=0),
    Message('note_off', channel=9, note=36, velocity=127, time=64),
    Message('note_off', channel=9, note=42, velocity=127, time=0),
    Message('note_on', channel=9, note=42, velocity=127, time=32),
    Message('note_off', channel=9, note=42, velocity=127, time=64),
    Message('note_on', channel=9, note=42, velocity=127, time=32),
    Message('note_on', channel=9, note=38, velocity=127, time=0),
    Message('note_off', channel=9, note=42, velocity=127, time=64),
    Message('note_off', channel=9, note=38, velocity=127, time=0),
    Message('note_on', channel=9, note=42, velocity=127, time=32),
    Message('note_off', channel=9, note=42, velocity=127, time=64),
    Message('note_on', channel=9, note=42, velocity=127, time=32),
    Message('note_on', channel=9, note=36, velocity=127, time=0),
    Message('note_off', channel=9, note=42, velocity=127, time=64),
    Message('note_off', channel=9, note=36, velocity=127, time=0),
    Message('note_on', channel=9, note=42, velocity=127, time=32),
    Message('note_on', channel=9, note=36, velocity=127, time=0),
    Message('note_off', channel=9, note=42, velocity=127, time=64),
    Message('note_off', channel=9, note=36, velocity=127, time=0),
    Message('note_on', channel=9, note=42, velocity=127, time=32),
    Message('note_on', channel=9, note=38, velocity=127, time=0),
    Message('note_off', channel=9, note=42, velocity=127, time=64),
    Message('note_off', channel=9, note=38, velocity=127, time=0),
    Message('note_on', channel=9, note=42, velocity=127, time=32),
    Message('note_on', channel=9, note=36, velocity=127, time=0),
    Message('note_off', channel=9, note=42, velocity=127, time=64),
    Message('note_off', channel=9, note=36, velocity=127, time=0),
    Message('note_on', channel=9, note=42, velocity=127, time=32),
    Message('note_off', channel=9, note=42, velocity=127, time=64),
    Message('note_on', channel=9, note=42, velocity=127, time=32),
    Message('note_on', channel=9, note=36, velocity=127, time=0),
    Message('note_off', channel=9, note=42, velocity=127, time=64),
    Message('note_off', channel=9, note=36, velocity=127, time=0),
    Message('note_on', channel=9, note=42, velocity=127, time=32),
    Message('note_on', channel=9, note=38, velocity=127, time=0),
    Message('note_off', channel=9, note=42, velocity=127, time=64),
    Message('note_off', channel=9, note=38, velocity=127, time=0),
    Message('note_on', channel=9, note=42, velocity=127, time=32),
    Message('note_on', channel=9, note=36, velocity=127, time=0),
    Message('note_off', channel=9, note=42, velocity=127, time=64),
    Message('note_off', channel=9, note=36, velocity=127, time=0),
    Message('note_on', channel=9, note=42, velocity=127, time=32),
    Message('note_on', channel=9, note=36, velocity=127, time=0),
    Message('note_off', channel=9, note=42, velocity=127, time=64),
    Message('note_off', channel=9, note=36, velocity=127, time=0),
    Message('note_on', channel=9, note=42, velocity=127, time=32),
    Message('note_on', channel=9, note=36, velocity=127, time=0),
    Message('note_off', channel=9, note=42, velocity=127, time=64),
    Message('note_off', channel=9, note=36, velocity=127, time=0),
    Message('note_on', channel=9, note=42, velocity=127, time=32),
    Message('note_on', channel=9, note=38, velocity=127, time=0),
    Message('note_off', channel=9, note=42, velocity=127, time=64),
    Message('note_off', channel=9, note=38, velocity=127, time=0),
    Message('note_on', channel=9, note=42, velocity=127, time=32),
    Message('note_on', channel=9, note=36, velocity=127, time=0),
    Message('note_off', channel=9, note=42, velocity=127, time=64),
    Message('note_off', channel=9, note=36, velocity=127, time=0),
    Message('note_on', channel=9, note=36, velocity=127, time=32),
    Message('note_on', channel=9, note=42, velocity=127, time=0),
    Message('note_off', channel=9, note=36, velocity=127, time=64),
    Message('note_off', channel=9, note=42, velocity=127, time=0),
    Message('note_on', channel=9, note=42, velocity=127, time=32),
    Message('note_off', channel=9, note=42, velocity=127, time=64),
    Message('note_on', channel=9, note=42, velocity=127, time=32),
    Message('note_on', channel=9, note=38, velocity=127, time=0),
    Message('note_off', channel=9, note=42, velocity=127, time=64),
    Message('note_off', channel=9, note=38, velocity=127, time=0),
    Message('note_on', channel=9, note=42, velocity=127, time=32),
    Message('note_off', channel=9, note=42, velocity=127, time=64),
    Message('note_on', channel=9, note=42, velocity=127, time=32),
    Message('note_on', channel=9, note=36, velocity=127, time=0),
    Message('note_off', channel=9, note=42, velocity=127, time=64),
    Message('note_off', channel=9, note=36, velocity=127, time=0),
    Message('note_on', channel=9, note=38, velocity=127, time=32),
    Message('note_off', channel=9, note=38, velocity=127, time=32),
    Message('note_on', channel=9, note=38, velocity=127, time=16),
    Message('note_off', channel=9, note=38, velocity=127, time=32),
    Message('note_on', channel=9, note=38, velocity=127, time=16),
    Message('note_off', channel=9, note=38, velocity=127, time=64),
    Message('note_on', channel=9, note=36, velocity=127, time=32),
    Message('note_off', channel=9, note=36, velocity=127, time=64),
    Message('note_on', channel=9, note=36, velocity=127, time=128),
    Message('note_off', channel=9, note=36, velocity=127, time=64),
    Message('note_on', channel=9, note=42, velocity=127, time=32),
    Message('note_on', channel=9, note=38, velocity=127, time=0),
    Message('note_off', channel=9, note=42, velocity=127, time=64),
    Message('note_off', channel=9, note=38, velocity=127, time=0),
    Message('note_on', channel=9, note=42, velocity=127, time=32),
    Message('note_on', channel=9, note=36, velocity=127, time=0),
    Message('note_off', channel=9, note=42, velocity=127, time=64),
    Message('note_off', channel=9, note=36, velocity=127, time=0),
    Message('note_on', channel=9, note=42, velocity=127, time=32),
    Message('note_on', channel=9, note=38, velocity=127, time=0),
    Message('note_off', channel=9, note=42, velocity=127, time=64),
    Message('note_off', channel=9, note=38, velocity=127, time=0),
    Message('note_on', channel=9, note=42, velocity=127, time=32),
    Message('note_on', channel=9, note=36, velocity=127, time=0),
    Message('note_off', channel=9, note=42, velocity=127, time=64),
    Message('note_off', channel=9, note=36, velocity=127, time=0),
    Message('note_on', channel=9, note=42, velocity=127, time=32),
    Message('note_on', channel=9, note=38, velocity=127, time=0),
    Message('note_off', channel=9, note=42, velocity=127, time=64),
    Message('note_off', channel=9, note=38, velocity=127, time=0),
    Message('note_on', channel=9, note=42, velocity=127, time=32),
    Message('note_on', channel=9, note=36, velocity=127, time=0),
    Message('note_off', channel=9, note=42, velocity=127, time=64),
    Message('note_off', channel=9, note=36, velocity=127, time=0),
    Message('note_on', channel=9, note=42, velocity=127, time=32),
    Message('note_on', channel=9, note=38, velocity=127, time=0),
    Message('note_off', channel=9, note=42, velocity=127, time=64),
    Message('note_off', channel=9, note=38, velocity=127, time=0),
    Message('note_on', channel=9, note=36, velocity=127, time=32),
    Message('note_on', channel=9, note=42, velocity=127, time=0),
    Message('note_off', channel=9, note=36, velocity=127, time=64),
    Message('note_off', channel=9, note=42, velocity=127, time=0),
    Message('note_on', channel=9, note=42, velocity=127, time=32),
    Message('note_on', channel=9, note=38, velocity=127, time=0),
    Message('note_off', channel=9, note=42, velocity=127, time=64),
    Message('note_off', channel=9, note=38, velocity=127, time=0),
    Message('note_on', channel=9, note=42, velocity=127, time=32),
    Message('note_on', channel=9, note=36, velocity=127, time=0),
    Message('note_off', channel=9, note=42, velocity=127, time=64),
    Message('note_off', channel=9, note=36, velocity=127, time=0),
    Message('note_on', channel=9, note=42, velocity=127, time=32),
    Message('note_on', channel=9, note=38, velocity=127, time=0),
    Message('note_off', channel=9, note=42, velocity=127, time=64),
    Message('note_off', channel=9, note=38, velocity=127, time=0),
    Message('note_on', channel=9, note=42, velocity=127, time=32),
    Message('note_on', channel=9, note=36, velocity=127, time=0),
    Message('note_off', channel=9, note=42, velocity=127, time=64),
    Message('note_off', channel=9, note=36, velocity=127, time=0),
    Message('note_on', channel=9, note=42, velocity=127, time=32),
    Message('note_on', channel=9, note=38, velocity=127, time=0),
    Message('note_off', channel=9, note=42, velocity=127, time=64),
    Message('note_off', channel=9, note=38, velocity=127, time=0),
    Message('note_on', channel=9, note=42, velocity=127, time=32),
    Message('note_on', channel=9, note=36, velocity=127, time=0),
    Message('note_off', channel=9, note=42, velocity=127, time=64),
    Message('note_off', channel=9, note=36, velocity=127, time=0),
    Message('note_on', channel=9, note=42, velocity=127, time=32),
    Message('note_on', channel=9, note=38, velocity=127, time=0),
    Message('note_off', channel=9, note=42, velocity=127, time=64),
    Message('note_off', channel=9, note=38, velocity=127, time=0),
    Message('note_on', channel=9, note=36, velocity=127, time=32),
    Message('note_on', channel=9, note=42, velocity=127, time=0),
    Message('note_off', channel=9, note=36, velocity=127, time=64),
    Message('note_off', channel=9, note=42, velocity=127, time=0),
    Message('note_on', channel=9, note=42, velocity=127, time=32),
    Message('note_on', channel=9, note=38, velocity=127, time=0),
    Message('note_off', channel=9, note=42, velocity=127, time=64),
    Message('note_off', channel=9, note=38, velocity=127, time=0),
    Message('note_on', channel=9, note=42, velocity=127, time=32),
    Message('note_on', channel=9, note=36, velocity=127, time=0),
    Message('note_off', channel=9, note=42, velocity=127, time=64),
    Message('note_off', channel=9, note=36, velocity=127, time=0),
    Message('note_on', channel=9, note=42, velocity=127, time=32),
    Message('note_on', channel=9, note=38, velocity=127, time=0),
    Message('note_off', channel=9, note=42, velocity=127, time=64),
    Message('note_off', channel=9, note=38, velocity=127, time=0),
    Message('note_on', channel=9, note=42, velocity=127, time=32),
    Message('note_on', channel=9, note=36, velocity=127, time=0),
    Message('note_off', channel=9, note=42, velocity=127, time=64),
    Message('note_off', channel=9, note=36, velocity=127, time=0),
    Message('note_on', channel=9, note=42, velocity=127, time=32),
    Message('note_on', channel=9, note=38, velocity=127, time=0),
    Message('note_off', channel=9, note=42, velocity=127, time=64),
    Message('note_off', channel=9, note=38, velocity=127, time=0),
    Message('note_on', channel=9, note=42, velocity=127, time=32),
    Message('note_on', channel=9, note=36, velocity=127, time=0),
    Message('note_off', channel=9, note=42, velocity=127, time=64),
    Message('note_off', channel=9, note=36, velocity=127, time=0),
    Message('note_on', channel=9, note=42, velocity=127, time=32),
    Message('note_on', channel=9, note=38, velocity=127, time=0),
    Message('note_off', channel=9, note=42, velocity=127, time=64),
    Message('note_off', channel=9, note=38, velocity=127, time=0),
    Message('note_on', channel=9, note=36, velocity=127, time=32),
    Message('note_on', channel=9, note=42, velocity=127, time=0),
    Message('note_off', channel=9, note=36, velocity=127, time=64),
    Message('note_off', channel=9, note=42, velocity=127, time=0),
    Message('note_on', channel=9, note=42, velocity=127, time=32),
    Message('note_on', channel=9, note=38, velocity=127, time=0),
    Message('note_off', channel=9, note=42, velocity=127, time=64),
    Message('note_off', channel=9, note=38, velocity=127, time=0),
    Message('note_on', channel=9, note=42, velocity=127, time=32),
    Message('note_on', channel=9, note=36, velocity=127, time=0),
    Message('note_off', channel=9, note=42, velocity=127, time=64),
    Message('note_off', channel=9, note=36, velocity=127, time=0),
    Message('note_on', channel=9, note=42, velocity=127, time=32),
    Message('note_on', channel=9, note=38, velocity=127, time=0),
    Message('note_off', channel=9, note=42, velocity=127, time=64),
    Message('note_off', channel=9, note=38, velocity=127, time=0),
    Message('note_on', channel=9, note=42, velocity=127, time=32),
    Message('note_on', channel=9, note=36, velocity=127, time=0),
    Message('note_off', channel=9, note=42, velocity=127, time=64),
    Message('note_off', channel=9, note=36, velocity=127, time=0),
    Message('note_on', channel=9, note=42, velocity=127, time=32),
    Message('note_on', channel=9, note=38, velocity=127, time=0),
    Message('note_off', channel=9, note=42, velocity=127, time=64),
    Message('note_off', channel=9, note=38, velocity=127, time=0),
    Message('note_on', channel=9, note=42, velocity=127, time=32),
    Message('note_on', channel=9, note=36, velocity=127, time=0),
    Message('note_off', channel=9, note=42, velocity=127, time=64),
    Message('note_off', channel=9, note=36, velocity=127, time=0),
    Message('note_on', channel=9, note=42, velocity=127, time=32),
    Message('note_on', channel=9, note=38, velocity=127, time=0),
    Message('note_off', channel=9, note=42, velocity=127, time=64),
    Message('note_off', channel=9, note=38, velocity=127, time=0),
    Message('note_on', channel=9, note=36, velocity=127, time=32),
    Message('note_on', channel=9, note=42, velocity=127, time=0),
    Message('note_off', channel=9, note=36, velocity=127, time=64),
    Message('note_off', channel=9, note=42, velocity=127, time=0),
    Message('note_on', channel=9, note=42, velocity=127, time=32),
    Message('note_on', channel=9, note=38, velocity=127, time=0),
    Message('note_off', channel=9, note=42, velocity=127, time=64),
    Message('note_off', channel=9, note=38, velocity=127, time=0),
    Message('note_on', channel=9, note=42, velocity=127, time=32),
    Message('note_on', channel=9, note=36, velocity=127, time=0),
    Message('note_off', channel=9, note=42, velocity=127, time=64),
    Message('note_off', channel=9, note=36, velocity=127, time=0),
    Message('note_on', channel=9, note=42, velocity=127, time=32),
    Message('note_on', channel=9, note=38, velocity=127, time=0),
    Message('note_off', channel=9, note=42, velocity=127, time=64),
    Message('note_off', channel=9, note=38, velocity=127, time=0),
    Message('note_on', channel=9, note=42, velocity=127, time=32),
    Message('note_on', channel=9, note=36, velocity=127, time=0),
    Message('note_off', channel=9, note=42, velocity=127, time=64),
    Message('note_off', channel=9, note=36, velocity=127, time=0),
    Message('note_on', channel=9, note=42, velocity=127, time=32),
    Message('note_on', channel=9, note=38, velocity=127, time=0),
    Message('note_off', channel=9, note=42, velocity=127, time=64),
    Message('note_off', channel=9, note=38, velocity=127, time=0),
    Message('note_on', channel=9, note=42, velocity=127, time=32),
    Message('note_on', channel=9, note=36, velocity=127, time=0),
    Message('note_off', channel=9, note=42, velocity=127, time=64),
    Message('note_off', channel=9, note=36, velocity=127, time=0),
    Message('note_on', channel=9, note=42, velocity=127, time=32),
    Message('note_on', channel=9, note=38, velocity=127, time=0),
    Message('note_off', channel=9, note=42, velocity=127, time=64),
    Message('note_off', channel=9, note=38, velocity=127, time=0),
    Message('note_on', channel=9, note=36, velocity=127, time=32),
    Message('note_on', channel=9, note=42, velocity=127, time=0),
    Message('note_off', channel=9, note=36, velocity=127, time=64),
    Message('note_off', channel=9, note=42, velocity=127, time=0),
    Message('note_on', channel=9, note=42, velocity=127, time=32),
    Message('note_on', channel=9, note=38, velocity=127, time=0),
    Message('note_off', channel=9, note=42, velocity=127, time=64),
    Message('note_off', channel=9, note=38, velocity=127, time=0),
    Message('note_on', channel=9, note=42, velocity=127, time=32),
    Message('note_on', channel=9, note=36, velocity=127, time=0),
    Message('note_off', channel=9, note=42, velocity=127, time=64),
    Message('note_off', channel=9, note=36, velocity=127, time=0),
    Message('note_on', channel=9, note=42, velocity=127, time=32),
    Message('note_on', channel=9, note=38, velocity=127, time=0),
    Message('note_off', channel=9, note=42, velocity=127, time=64),
    Message('note_off', channel=9, note=38, velocity=127, time=0),
    Message('note_on', channel=9, note=42, velocity=127, time=32),
    Message('note_on', channel=9, note=36, velocity=127, time=0),
    Message('note_off', channel=9, note=42, velocity=127, time=64),
    Message('note_off', channel=9, note=36, velocity=127, time=0),
    Message('note_on', channel=9, note=42, velocity=127, time=32),
    Message('note_on', channel=9, note=38, velocity=127, time=0),
    Message('note_off', channel=9, note=42, velocity=127, time=64),
    Message('note_off', channel=9, note=38, velocity=127, time=0),
    Message('note_on', channel=9, note=42, velocity=127, time=32),
    Message('note_on', channel=9, note=36, velocity=127, time=0),
    Message('note_off', channel=9, note=42, velocity=127, time=64),
    Message('note_off', channel=9, note=36, velocity=127, time=0),
    Message('note_on', channel=9, note=42, velocity=127, time=32),
    Message('note_on', channel=9, note=38, velocity=127, time=0),
    Message('note_off', channel=9, note=42, velocity=127, time=64),
    Message('note_off', channel=9, note=38, velocity=127, time=0),
    Message('note_on', channel=9, note=36, velocity=127, time=32),
    Message('note_on', channel=9, note=42, velocity=127, time=0),
    Message('note_off', channel=9, note=36, velocity=127, time=64),
    Message('note_off', channel=9, note=42, velocity=127, time=0),
    Message('note_on', channel=9, note=42, velocity=127, time=32),
    Message('note_on', channel=9, note=38, velocity=127, time=0),
    Message('note_off', channel=9, note=42, velocity=127, time=64),
    Message('note_off', channel=9, note=38, velocity=127, time=0),
    Message('note_on', channel=9, note=42, velocity=127, time=32),
    Message('note_on', channel=9, note=36, velocity=127, time=0),
    Message('note_off', channel=9, note=42, velocity=127, time=64),
    Message('note_off', channel=9, note=36, velocity=127, time=0),
    Message('note_on', channel=9, note=42, velocity=127, time=32),
    Message('note_on', channel=9, note=38, velocity=127, time=0),
    Message('note_off', channel=9, note=42, velocity=127, time=64),
    Message('note_off', channel=9, note=38, velocity=127, time=0),
    Message('note_on', channel=9, note=42, velocity=127, time=32),
    Message('note_on', channel=9, note=36, velocity=127, time=0),
    Message('note_off', channel=9, note=42, velocity=127, time=64),
    Message('note_off', channel=9, note=36, velocity=127, time=0),
    Message('note_on', channel=9, note=42, velocity=127, time=32),
    Message('note_on', channel=9, note=38, velocity=127, time=0),
    Message('note_off', channel=9, note=42, velocity=127, time=64),
    Message('note_off', channel=9, note=38, velocity=127, time=0),
    Message('note_on', channel=9, note=42, velocity=127, time=32),
    Message('note_on', channel=9, note=36, velocity=127, time=0),
    Message('note_off', channel=9, note=42, velocity=127, time=64),
    Message('note_off', channel=9, note=36, velocity=127, time=0),
    Message('note_on', channel=9, note=42, velocity=127, time=32),
    Message('note_on', channel=9, note=38, velocity=127, time=0),
    Message('note_off', channel=9, note=42, velocity=127, time=64),
    Message('note_off', channel=9, note=38, velocity=127, time=0),
    Message('note_on', channel=9, note=36, velocity=127, time=32),
    Message('note_on', channel=9, note=42, velocity=127, time=0),
    Message('note_off', channel=9, note=36, velocity=127, time=64),
    Message('note_off', channel=9, note=42, velocity=127, time=0),
    Message('note_on', channel=9, note=42, velocity=127, time=32),
    Message('note_on', channel=9, note=38, velocity=127, time=0),
    Message('note_off', channel=9, note=42, velocity=127, time=64),
    Message('note_off', channel=9, note=38, velocity=127, time=0),
    Message('note_on', channel=9, note=42, velocity=127, time=32),
    Message('note_on', channel=9, note=36, velocity=127, time=0),
    Message('note_off', channel=9, note=42, velocity=127, time=64),
    Message('note_off', channel=9, note=36, velocity=127, time=0),
    Message('note_on', channel=9, note=42, velocity=127, time=32),
    Message('note_on', channel=9, note=38, velocity=127, time=0),
    Message('note_off', channel=9, note=42, velocity=127, time=64),
    Message('note_off', channel=9, note=38, velocity=127, time=0),
    Message('note_on', channel=9, note=42, velocity=127, time=32),
    Message('note_on', channel=9, note=36, velocity=127, time=0),
    Message('note_off', channel=9, note=42, velocity=127, time=64),
    Message('note_off', channel=9, note=36, velocity=127, time=0),
    Message('note_on', channel=9, note=42, velocity=127, time=32),
    Message('note_on', channel=9, note=38, velocity=127, time=0),
    Message('note_off', channel=9, note=42, velocity=127, time=64),
    Message('note_off', channel=9, note=38, velocity=127, time=0),
    Message('note_on', channel=9, note=42, velocity=127, time=32),
    Message('note_on', channel=9, note=36, velocity=127, time=0),
    Message('note_off', channel=9, note=42, velocity=127, time=64),
    Message('note_off', channel=9, note=36, velocity=127, time=0),
    Message('note_on', channel=9, note=42, velocity=127, time=32),
    Message('note_on', channel=9, note=38, velocity=127, time=0),
    Message('note_off', channel=9, note=42, velocity=127, time=64),
    Message('note_off', channel=9, note=38, velocity=127, time=0),
    Message('note_on', channel=9, note=36, velocity=127, time=32),
    Message('note_on', channel=9, note=42, velocity=127, time=0),
    Message('note_off', channel=9, note=36, velocity=127, time=64),
    Message('note_off', channel=9, note=42, velocity=127, time=0),
    Message('note_on', channel=9, note=42, velocity=127, time=32),
    Message('note_on', channel=9, note=38, velocity=127, time=0),
    Message('note_off', channel=9, note=42, velocity=127, time=64),
    Message('note_off', channel=9, note=38, velocity=127, time=0),
    Message('note_on', channel=9, note=42, velocity=127, time=32),
    Message('note_on', channel=9, note=36, velocity=127, time=0),
    Message('note_off', channel=9, note=42, velocity=127, time=64),
    Message('note_off', channel=9, note=36, velocity=127, time=0),
    Message('note_on', channel=9, note=42, velocity=127, time=32),
    Message('note_on', channel=9, note=38, velocity=127, time=0),
    Message('note_off', channel=9, note=42, velocity=127, time=64),
    Message('note_off', channel=9, note=38, velocity=127, time=0),
    Message('note_on', channel=9, note=42, velocity=127, time=32),
    Message('note_on', channel=9, note=36, velocity=127, time=0),
    Message('note_off', channel=9, note=42, velocity=127, time=64),
    Message('note_off', channel=9, note=36, velocity=127, time=0),
    Message('note_on', channel=9, note=42, velocity=127, time=32),
    Message('note_on', channel=9, note=38, velocity=127, time=0),
    Message('note_off', channel=9, note=42, velocity=127, time=64),
    Message('note_off', channel=9, note=38, velocity=127, time=0),
    Message('note_on', channel=9, note=42, velocity=127, time=32),
    Message('note_on', channel=9, note=36, velocity=127, time=0),
    Message('note_off', channel=9, note=42, velocity=127, time=64),
    Message('note_off', channel=9, note=36, velocity=127, time=0),
    Message('note_on', channel=9, note=42, velocity=127, time=32),
    Message('note_on', channel=9, note=38, velocity=127, time=0),
    Message('note_off', channel=9, note=42, velocity=127, time=64),
    Message('note_off', channel=9, note=38, velocity=127, time=0),
    Message('note_on', channel=9, note=36, velocity=127, time=32),
    Message('note_on', channel=9, note=42, velocity=127, time=0),
    Message('note_off', channel=9, note=36, velocity=127, time=64),
    Message('note_off', channel=9, note=42, velocity=127, time=0),
    Message('note_on', channel=9, note=42, velocity=127, time=32),
    Message('note_on', channel=9, note=38, velocity=127, time=0),
    Message('note_off', channel=9, note=42, velocity=127, time=64),
    Message('note_off', channel=9, note=38, velocity=127, time=0),
    Message('note_on', channel=9, note=42, velocity=127, time=32),
    Message('note_on', channel=9, note=36, velocity=127, time=0),
    Message('note_off', channel=9, note=42, velocity=127, time=64),
    Message('note_off', channel=9, note=36, velocity=127, time=0),
    Message('note_on', channel=9, note=42, velocity=127, time=32),
    Message('note_on', channel=9, note=38, velocity=127, time=0),
    Message('note_off', channel=9, note=42, velocity=127, time=64),
    Message('note_off', channel=9, note=38, velocity=127, time=0),
    Message('note_on', channel=9, note=42, velocity=127, time=32),
    Message('note_on', channel=9, note=36, velocity=127, time=0),
    Message('note_off', channel=9, note=42, velocity=127, time=64),
    Message('note_off', channel=9, note=36, velocity=127, time=0),
    Message('note_on', channel=9, note=42, velocity=127, time=32),
    Message('note_on', channel=9, note=38, velocity=127, time=0),
    Message('note_off', channel=9, note=42, velocity=127, time=64),
    Message('note_off', channel=9, note=38, velocity=127, time=0),
    Message('note_on', channel=9, note=42, velocity=127, time=32),
    Message('note_on', channel=9, note=36, velocity=127, time=0),
    Message('note_off', channel=9, note=42, velocity=127, time=64),
    Message('note_off', channel=9, note=36, velocity=127, time=0),
    Message('note_on', channel=9, note=42, velocity=127, time=32),
    Message('note_on', channel=9, note=38, velocity=127, time=0),
    Message('note_off', channel=9, note=42, velocity=127, time=64),
    Message('note_off', channel=9, note=38, velocity=127, time=0),
    Message('note_on', channel=9, note=36, velocity=127, time=32),
    Message('note_on', channel=9, note=42, velocity=127, time=0),
    Message('note_off', channel=9, note=36, velocity=127, time=64),
    Message('note_off', channel=9, note=42, velocity=127, time=0),
    Message('note_on', channel=9, note=42, velocity=127, time=32),
    Message('note_on', channel=9, note=38, velocity=127, time=0),
    Message('note_off', channel=9, note=42, velocity=127, time=64),
    Message('note_off', channel=9, note=38, velocity=127, time=0),
    Message('note_on', channel=9, note=42, velocity=127, time=32),
    Message('note_on', channel=9, note=36, velocity=127, time=0),
    Message('note_off', channel=9, note=42, velocity=127, time=64),
    Message('note_off', channel=9, note=36, velocity=127, time=0),
    Message('note_on', channel=9, note=42, velocity=127, time=32),
    Message('note_on', channel=9, note=38, velocity=127, time=0),
    Message('note_off', channel=9, note=42, velocity=127, time=64),
    Message('note_off', channel=9, note=38, velocity=127, time=0),
    Message('note_on', channel=9, note=42, velocity=127, time=32),
    Message('note_on', channel=9, note=36, velocity=127, time=0),
    Message('note_off', channel=9, note=42, velocity=127, time=64),
    Message('note_off', channel=9, note=36, velocity=127, time=0),
    Message('note_on', channel=9, note=42, velocity=127, time=32),
    Message('note_on', channel=9, note=38, velocity=127, time=0),
    Message('note_off', channel=9, note=42, velocity=127, time=64),
    Message('note_off', channel=9, note=38, velocity=127, time=0),
    Message('note_on', channel=9, note=42, velocity=127, time=32),
    Message('note_on', channel=9, note=36, velocity=127, time=0),
    Message('note_off', channel=9, note=42, velocity=127, time=64),
    Message('note_off', channel=9, note=36, velocity=127, time=0),
    Message('note_on', channel=9, note=42, velocity=127, time=32),
    Message('note_on', channel=9, note=38, velocity=127, time=0),
    Message('note_off', channel=9, note=42, velocity=127, time=64),
    Message('note_off', channel=9, note=38, velocity=127, time=0),
    Message('note_on', channel=9, note=36, velocity=127, time=32),
    Message('note_on', channel=9, note=42, velocity=127, time=0),
    Message('note_off', channel=9, note=36, velocity=127, time=64),
    Message('note_off', channel=9, note=42, velocity=127, time=0),
    Message('note_on', channel=9, note=42, velocity=127, time=32),
    Message('note_on', channel=9, note=38, velocity=127, time=0),
    Message('note_off', channel=9, note=42, velocity=127, time=64),
    Message('note_off', channel=9, note=38, velocity=127, time=0),
    Message('note_on', channel=9, note=42, velocity=127, time=32),
    Message('note_on', channel=9, note=36, velocity=127, time=0),
    Message('note_off', channel=9, note=42, velocity=127, time=64),
    Message('note_off', channel=9, note=36, velocity=127, time=0),
    Message('note_on', channel=9, note=42, velocity=127, time=32),
    Message('note_on', channel=9, note=38, velocity=127, time=0),
    Message('note_off', channel=9, note=42, velocity=127, time=64),
    Message('note_off', channel=9, note=38, velocity=127, time=0),
    Message('note_on', channel=9, note=42, velocity=127, time=32),
    Message('note_on', channel=9, note=36, velocity=127, time=0),
    Message('note_off', channel=9, note=42, velocity=127, time=64),
    Message('note_off', channel=9, note=36, velocity=127, time=0),
    Message('note_on', channel=9, note=42, velocity=127, time=32),
    Message('note_on', channel=9, note=38, velocity=127, time=0),
    Message('note_off', channel=9, note=42, velocity=127, time=64),
    Message('note_off', channel=9, note=38, velocity=127, time=0),
    Message('note_on', channel=9, note=42, velocity=127, time=32),
    Message('note_on', channel=9, note=36, velocity=127, time=0),
    Message('note_off', channel=9, note=42, velocity=127, time=64),
    Message('note_off', channel=9, note=36, velocity=127, time=0),
    Message('note_on', channel=9, note=42, velocity=127, time=32),
    Message('note_on', channel=9, note=38, velocity=127, time=0),
    Message('note_off', channel=9, note=42, velocity=127, time=64),
    Message('note_off', channel=9, note=38, velocity=127, time=0),
    Message('note_on', channel=9, note=36, velocity=127, time=32),
    Message('note_on', channel=9, note=42, velocity=127, time=0),
    Message('note_off', channel=9, note=36, velocity=127, time=64),
    Message('note_off', channel=9, note=42, velocity=127, time=0),
    Message('note_on', channel=9, note=42, velocity=127, time=32),
    Message('note_on', channel=9, note=38, velocity=127, time=0),
    Message('note_off', channel=9, note=42, velocity=127, time=64),
    Message('note_off', channel=9, note=38, velocity=127, time=0),
    Message('note_on', channel=9, note=42, velocity=127, time=32),
    Message('note_on', channel=9, note=36, velocity=127, time=0),
    Message('note_off', channel=9, note=42, velocity=127, time=64),
    Message('note_off', channel=9, note=36, velocity=127, time=0),
    Message('note_on', channel=9, note=42, velocity=127, time=32),
    Message('note_on', channel=9, note=38, velocity=127, time=0),
    Message('note_off', channel=9, note=42, velocity=127, time=64),
    Message('note_off', channel=9, note=38, velocity=127, time=0),
    Message('note_on', channel=9, note=42, velocity=127, time=32),
    Message('note_on', channel=9, note=36, velocity=127, time=0),
    Message('note_off', channel=9, note=42, velocity=127, time=64),
    Message('note_off', channel=9, note=36, velocity=127, time=0),
    Message('note_on', channel=9, note=42, velocity=127, time=32),
    Message('note_on', channel=9, note=38, velocity=127, time=0),
    Message('note_off', channel=9, note=42, velocity=127, time=64),
    Message('note_off', channel=9, note=38, velocity=127, time=0),
    Message('note_on', channel=9, note=42, velocity=127, time=32),
    Message('note_on', channel=9, note=36, velocity=127, time=0),
    Message('note_off', channel=9, note=42, velocity=127, time=64),
    Message('note_off', channel=9, note=36, velocity=127, time=0),
    Message('note_on', channel=9, note=42, velocity=127, time=32),
    Message('note_on', channel=9, note=38, velocity=127, time=0),
    Message('note_off', channel=9, note=42, velocity=127, time=64),
    Message('note_off', channel=9, note=38, velocity=127, time=0),
    Message('note_on', channel=9, note=36, velocity=127, time=32),
    Message('note_on', channel=9, note=42, velocity=127, time=0),
    Message('note_off', channel=9, note=36, velocity=127, time=64),
    Message('note_off', channel=9, note=42, velocity=127, time=0),
    Message('note_on', channel=9, note=42, velocity=127, time=32),
    Message('note_on', channel=9, note=38, velocity=127, time=0),
    Message('note_off', channel=9, note=42, velocity=127, time=64),
    Message('note_off', channel=9, note=38, velocity=127, time=0),
    Message('note_on', channel=9, note=42, velocity=127, time=32),
    Message('note_on', channel=9, note=36, velocity=127, time=0),
    Message('note_off', channel=9, note=42, velocity=127, time=64),
    Message('note_off', channel=9, note=36, velocity=127, time=0),
    Message('note_on', channel=9, note=42, velocity=127, time=32),
    Message('note_on', channel=9, note=38, velocity=127, time=0),
    Message('note_off', channel=9, note=42, velocity=127, time=64),
    Message('note_off', channel=9, note=38, velocity=127, time=0),
    Message('note_on', channel=9, note=42, velocity=127, time=32),
    Message('note_on', channel=9, note=36, velocity=127, time=0),
    Message('note_off', channel=9, note=42, velocity=127, time=64),
    Message('note_off', channel=9, note=36, velocity=127, time=0),
    Message('note_on', channel=9, note=42, velocity=127, time=32),
    Message('note_on', channel=9, note=38, velocity=127, time=0),
    Message('note_off', channel=9, note=42, velocity=127, time=64),
    Message('note_off', channel=9, note=38, velocity=127, time=0),
    Message('note_on', channel=9, note=42, velocity=127, time=32),
    Message('note_on', channel=9, note=36, velocity=127, time=0),
    Message('note_off', channel=9, note=42, velocity=127, time=64),
    Message('note_off', channel=9, note=36, velocity=127, time=0),
    Message('note_on', channel=9, note=42, velocity=127, time=32),
    Message('note_on', channel=9, note=38, velocity=127, time=0),
    Message('note_off', channel=9, note=42, velocity=127, time=64),
    Message('note_off', channel=9, note=38, velocity=127, time=0),
    Message('note_on', channel=9, note=36, velocity=127, time=32),
    Message('note_on', channel=9, note=42, velocity=127, time=0),
    Message('note_off', channel=9, note=36, velocity=127, time=64),
    Message('note_off', channel=9, note=42, velocity=127, time=0),
    Message('note_on', channel=9, note=42, velocity=127, time=32),
    Message('note_on', channel=9, note=38, velocity=127, time=0),
    Message('note_off', channel=9, note=42, velocity=127, time=64),
    Message('note_off', channel=9, note=38, velocity=127, time=0),
    Message('note_on', channel=9, note=42, velocity=127, time=32),
    Message('note_on', channel=9, note=36, velocity=127, time=0),
    Message('note_off', channel=9, note=42, velocity=127, time=64),
    Message('note_off', channel=9, note=36, velocity=127, time=0),
    Message('note_on', channel=9, note=42, velocity=127, time=32),
    Message('note_on', channel=9, note=38, velocity=127, time=0),
    Message('note_off', channel=9, note=42, velocity=127, time=64),
    Message('note_off', channel=9, note=38, velocity=127, time=0),
    Message('note_on', channel=9, note=42, velocity=127, time=32),
    Message('note_on', channel=9, note=36, velocity=127, time=0),
    Message('note_off', channel=9, note=42, velocity=127, time=64),
    Message('note_off', channel=9, note=36, velocity=127, time=0),
    Message('note_on', channel=9, note=42, velocity=127, time=32),
    Message('note_on', channel=9, note=38, velocity=127, time=0),
    Message('note_off', channel=9, note=42, velocity=127, time=64),
    Message('note_off', channel=9, note=38, velocity=127, time=0),
    Message('note_on', channel=9, note=42, velocity=127, time=32),
    Message('note_on', channel=9, note=36, velocity=127, time=0),
    Message('note_off', channel=9, note=42, velocity=127, time=64),
    Message('note_off', channel=9, note=36, velocity=127, time=0),
    Message('note_on', channel=9, note=42, velocity=127, time=32),
    Message('note_on', channel=9, note=38, velocity=127, time=0),
    Message('note_off', channel=9, note=42, velocity=127, time=64),
    Message('note_off', channel=9, note=38, velocity=127, time=0),
    Message('note_on', channel=9, note=42, velocity=127, time=32),
    Message('note_on', channel=9, note=36, velocity=127, time=0),
    Message('note_off', channel=9, note=42, velocity=127, time=64),
    Message('note_off', channel=9, note=36, velocity=127, time=0),
    Message('note_on', channel=9, note=42, velocity=127, time=32),
    Message('note_off', channel=9, note=42, velocity=127, time=64),
    Message('note_on', channel=9, note=42, velocity=127, time=32),
    Message('note_on', channel=9, note=36, velocity=127, time=0),
    Message('note_off', channel=9, note=42, velocity=127, time=64),
    Message('note_off', channel=9, note=36, velocity=127, time=0),
    Message('note_on', channel=9, note=38, velocity=127, time=32),
    Message('note_off', channel=9, note=38, velocity=127, time=64),
    Message('note_on', channel=9, note=38, velocity=127, time=32),
    Message('note_off', channel=9, note=38, velocity=127, time=64),
    Message('note_on', channel=9, note=38, velocity=127, time=32),
    Message('note_off', channel=9, note=38, velocity=127, time=64),
    Message('note_on', channel=9, note=36, velocity=127, time=32),
    Message('note_off', channel=9, note=36, velocity=127, time=64),
    Message('note_on', channel=9, note=36, velocity=127, time=32),
    Message('note_off', channel=9, note=36, velocity=127, time=64),
    Message('note_on', channel=9, note=42, velocity=127, time=32),
    Message('note_off', channel=9, note=42, velocity=127, time=64),
    Message('note_on', channel=9, note=42, velocity=127, time=32),
    Message('note_on', channel=9, note=38, velocity=127, time=0),
    Message('note_off', channel=9, note=42, velocity=127, time=64),
    Message('note_off', channel=9, note=38, velocity=127, time=0),
    Message('note_on', channel=9, note=42, velocity=127, time=32),
    Message('note_off', channel=9, note=42, velocity=127, time=64),
    Message('note_on', channel=9, note=42, velocity=127, time=32),
    Message('note_on', channel=9, note=36, velocity=127, time=0),
    Message('note_off', channel=9, note=42, velocity=127, time=64),
    Message('note_off', channel=9, note=36, velocity=127, time=0),
    Message('note_on', channel=9, note=42, velocity=127, time=32),
    Message('note_on', channel=9, note=36, velocity=127, time=0),
    Message('note_off', channel=9, note=42, velocity=127, time=64),
    Message('note_off', channel=9, note=36, velocity=127, time=0),
    Message('note_on', channel=9, note=38, velocity=127, time=32),
    Message('note_on', channel=9, note=42, velocity=127, time=0),
    Message('note_off', channel=9, note=38, velocity=127, time=64),
    Message('note_off', channel=9, note=42, velocity=127, time=0),
    Message('note_on', channel=9, note=42, velocity=127, time=32),
    Message('note_off', channel=9, note=42, velocity=127, time=64),
    Message('note_on', channel=9, note=42, velocity=127, time=32),
    Message('note_on', channel=9, note=36, velocity=127, time=0),
    Message('note_off', channel=9, note=42, velocity=127, time=64),
    Message('note_off', channel=9, note=36, velocity=127, time=0),
    Message('note_on', channel=9, note=42, velocity=127, time=32),
    Message('note_off', channel=9, note=42, velocity=127, time=64),
    Message('note_on', channel=9, note=42, velocity=127, time=32),
    Message('note_on', channel=9, note=38, velocity=127, time=0),
    Message('note_off', channel=9, note=42, velocity=127, time=64),
    Message('note_off', channel=9, note=38, velocity=127, time=0),
    Message('note_on', channel=9, note=42, velocity=127, time=32),
    Message('note_on', channel=9, note=36, velocity=127, time=0),
    Message('note_off', channel=9, note=42, velocity=127, time=64),
    Message('note_off', channel=9, note=36, velocity=127, time=0),
    Message('note_on', channel=9, note=42, velocity=127, time=32),
    Message('note_on', channel=9, note=36, velocity=127, time=0),
    Message('note_off', channel=9, note=42, velocity=127, time=64),
    Message('note_off', channel=9, note=36, velocity=127, time=0),
    Message('note_on', channel=9, note=42, velocity=127, time=32),
    Message('note_off', channel=9, note=42, velocity=127, time=64),
    Message('note_on', channel=9, note=38, velocity=127, time=32),
    Message('note_off', channel=9, note=38, velocity=127, time=64),
    Message('note_on', channel=9, note=36, velocity=127, time=32),
    Message('note_off', channel=9, note=36, velocity=127, time=64),
    Message('note_on', channel=9, note=36, velocity=127, time=128),
    Message('note_off', channel=9, note=36, velocity=127, time=64),
    Message('note_on', channel=9, note=42, velocity=127, time=32),
    Message('note_on', channel=9, note=38, velocity=127, time=0),
    Message('note_off', channel=9, note=42, velocity=127, time=64),
    Message('note_off', channel=9, note=38, velocity=127, time=0),
    Message('note_on', channel=9, note=42, velocity=127, time=32),
    Message('note_off', channel=9, note=42, velocity=127, time=64),
    Message('note_on', channel=9, note=42, velocity=127, time=32),
    Message('note_on', channel=9, note=36, velocity=127, time=0),
    Message('note_off', channel=9, note=42, velocity=127, time=64),
    Message('note_off', channel=9, note=36, velocity=127, time=0),
    Message('note_on', channel=9, note=42, velocity=127, time=32),
    Message('note_on', channel=9, note=36, velocity=127, time=0),
    Message('note_off', channel=9, note=42, velocity=127, time=64),
    Message('note_off', channel=9, note=36, velocity=127, time=0),
    Message('note_on', channel=9, note=42, velocity=127, time=32),
    Message('note_on', channel=9, note=38, velocity=127, time=0),
    Message('note_off', channel=9, note=42, velocity=127, time=64),
    Message('note_off', channel=9, note=38, velocity=127, time=0),
    Message('note_on', channel=9, note=36, velocity=127, time=32),
    Message('note_on', channel=9, note=42, velocity=127, time=0),
    Message('note_off', channel=9, note=36, velocity=127, time=64),
    Message('note_off', channel=9, note=42, velocity=127, time=0),
    Message('note_on', channel=9, note=42, velocity=127, time=32),
    Message('note_on', channel=9, note=36, velocity=127, time=0),
    Message('note_off', channel=9, note=42, velocity=127, time=64),
    Message('note_off', channel=9, note=36, velocity=127, time=0),
    Message('note_on', channel=9, note=42, velocity=127, time=32),
    Message('note_off', channel=9, note=42, velocity=127, time=64),
    Message('note_on', channel=9, note=42, velocity=127, time=32),
    Message('note_on', channel=9, note=38, velocity=127, time=0),
    Message('note_off', channel=9, note=42, velocity=127, time=64),
    Message('note_off', channel=9, note=38, velocity=127, time=0),
    Message('note_on', channel=9, note=42, velocity=127, time=32),
    Message('note_off', channel=9, note=42, velocity=127, time=64),
    Message('note_on', channel=9, note=42, velocity=127, time=32),
    Message('note_on', channel=9, note=36, velocity=127, time=0),
    Message('note_off', channel=9, note=42, velocity=127, time=64),
    Message('note_off', channel=9, note=36, velocity=127, time=0),
    Message('note_on', channel=9, note=42, velocity=127, time=32),
    Message('note_on', channel=9, note=36, velocity=127, time=0),
    Message('note_off', channel=9, note=42, velocity=127, time=64),
    Message('note_off', channel=9, note=36, velocity=127, time=0),
    Message('note_on', channel=9, note=38, velocity=127, time=32),
    Message('note_off', channel=9, note=38, velocity=127, time=64),
    Message('note_on', channel=9, note=36, velocity=127, time=32),
    Message('note_off', channel=9, note=36, velocity=127, time=64),
    Message('note_on', channel=9, note=36, velocity=127, time=128),
    Message('note_off', channel=9, note=36, velocity=127, time=64),
    Message('note_on', channel=9, note=42, velocity=127, time=32),
    Message('note_on', channel=9, note=38, velocity=127, time=0),
    Message('note_off', channel=9, note=42, velocity=127, time=64),
    Message('note_off', channel=9, note=38, velocity=127, time=0),
    Message('note_on', channel=9, note=42, velocity=127, time=32),
    Message('note_on', channel=9, note=36, velocity=127, time=0),
    Message('note_off', channel=9, note=42, velocity=127, time=64),
    Message('note_off', channel=9, note=36, velocity=127, time=0),
    Message('note_on', channel=9, note=42, velocity=127, time=32),
    Message('note_on', channel=9, note=38, velocity=127, time=0),
    Message('note_off', channel=9, note=42, velocity=127, time=64),
    Message('note_off', channel=9, note=38, velocity=127, time=0),
    Message('note_on', channel=9, note=42, velocity=127, time=32),
    Message('note_on', channel=9, note=36, velocity=127, time=0),
    Message('note_off', channel=9, note=42, velocity=127, time=64),
    Message('note_off', channel=9, note=36, velocity=127, time=0),
    Message('note_on', channel=9, note=42, velocity=127, time=32),
    Message('note_on', channel=9, note=38, velocity=127, time=0),
    Message('note_off', channel=9, note=42, velocity=127, time=64),
    Message('note_off', channel=9, note=38, velocity=127, time=0),
    Message('note_on', channel=9, note=42, velocity=127, time=32),
    Message('note_on', channel=9, note=36, velocity=127, time=0),
    Message('note_off', channel=9, note=42, velocity=127, time=64),
    Message('note_off', channel=9, note=36, velocity=127, time=0),
    Message('note_on', channel=9, note=42, velocity=127, time=32),
    Message('note_on', channel=9, note=38, velocity=127, time=0),
    Message('note_off', channel=9, note=42, velocity=127, time=64),
    Message('note_off', channel=9, note=38, velocity=127, time=0),
    Message('note_on', channel=9, note=36, velocity=127, time=32),
    Message('note_on', channel=9, note=42, velocity=127, time=0),
    Message('note_off', channel=9, note=36, velocity=127, time=64),
    Message('note_off', channel=9, note=42, velocity=127, time=0),
    Message('note_on', channel=9, note=42, velocity=127, time=32),
    Message('note_on', channel=9, note=38, velocity=127, time=0),
    Message('note_off', channel=9, note=42, velocity=127, time=64),
    Message('note_off', channel=9, note=38, velocity=127, time=0),
    Message('note_on', channel=9, note=42, velocity=127, time=32),
    Message('note_on', channel=9, note=36, velocity=127, time=0),
    Message('note_off', channel=9, note=42, velocity=127, time=64),
    Message('note_off', channel=9, note=36, velocity=127, time=0),
    Message('note_on', channel=9, note=42, velocity=127, time=32),
    Message('note_on', channel=9, note=38, velocity=127, time=0),
    Message('note_off', channel=9, note=42, velocity=127, time=64),
    Message('note_off', channel=9, note=38, velocity=127, time=0),
    Message('note_on', channel=9, note=42, velocity=127, time=32),
    Message('note_on', channel=9, note=36, velocity=127, time=0),
    Message('note_off', channel=9, note=42, velocity=127, time=64),
    Message('note_off', channel=9, note=36, velocity=127, time=0),
    Message('note_on', channel=9, note=42, velocity=127, time=32),
    Message('note_on', channel=9, note=38, velocity=127, time=0),
    Message('note_off', channel=9, note=42, velocity=127, time=64),
    Message('note_off', channel=9, note=38, velocity=127, time=0),
    Message('note_on', channel=9, note=42, velocity=127, time=32),
    Message('note_on', channel=9, note=36, velocity=127, time=0),
    Message('note_off', channel=9, note=42, velocity=127, time=64),
    Message('note_off', channel=9, note=36, velocity=127, time=0),
    Message('note_on', channel=9, note=42, velocity=127, time=32),
    Message('note_on', channel=9, note=38, velocity=127, time=0),
    Message('note_off', channel=9, note=42, velocity=127, time=64),
    Message('note_off', channel=9, note=38, velocity=127, time=0),
    Message('note_on', channel=9, note=36, velocity=127, time=32),
    Message('note_on', channel=9, note=42, velocity=127, time=0),
    Message('note_off', channel=9, note=36, velocity=127, time=64),
    Message('note_off', channel=9, note=42, velocity=127, time=0),
    Message('note_on', channel=9, note=42, velocity=127, time=32),
    Message('note_on', channel=9, note=38, velocity=127, time=0),
    Message('note_off', channel=9, note=42, velocity=127, time=64),
    Message('note_off', channel=9, note=38, velocity=127, time=0),
    Message('note_on', channel=9, note=42, velocity=127, time=32),
    Message('note_on', channel=9, note=36, velocity=127, time=0),
    Message('note_off', channel=9, note=42, velocity=127, time=64),
    Message('note_off', channel=9, note=36, velocity=127, time=0),
    Message('note_on', channel=9, note=42, velocity=127, time=32),
    Message('note_on', channel=9, note=38, velocity=127, time=0),
    Message('note_off', channel=9, note=42, velocity=127, time=64),
    Message('note_off', channel=9, note=38, velocity=127, time=0),
    Message('note_on', channel=9, note=42, velocity=127, time=32),
    Message('note_on', channel=9, note=36, velocity=127, time=0),
    Message('note_off', channel=9, note=42, velocity=127, time=64),
    Message('note_off', channel=9, note=36, velocity=127, time=0),
    Message('note_on', channel=9, note=42, velocity=127, time=32),
    Message('note_on', channel=9, note=38, velocity=127, time=0),
    Message('note_off', channel=9, note=42, velocity=127, time=64),
    Message('note_off', channel=9, note=38, velocity=127, time=0),
    Message('note_on', channel=9, note=42, velocity=127, time=32),
    Message('note_on', channel=9, note=36, velocity=127, time=0),
    Message('note_off', channel=9, note=42, velocity=127, time=64),
    Message('note_off', channel=9, note=36, velocity=127, time=0),
    Message('note_on', channel=9, note=42, velocity=127, time=32),
    Message('note_on', channel=9, note=38, velocity=127, time=0),
    Message('note_off', channel=9, note=42, velocity=127, time=64),
    Message('note_off', channel=9, note=38, velocity=127, time=0),
    Message('note_on', channel=9, note=36, velocity=127, time=32),
    Message('note_on', channel=9, note=42, velocity=127, time=0),
    Message('note_off', channel=9, note=36, velocity=127, time=64),
    Message('note_off', channel=9, note=42, velocity=127, time=0),
    Message('note_on', channel=9, note=42, velocity=127, time=32),
    Message('note_on', channel=9, note=38, velocity=127, time=0),
    Message('note_off', channel=9, note=42, velocity=127, time=64),
    Message('note_off', channel=9, note=38, velocity=127, time=0),
    Message('note_on', channel=9, note=42, velocity=127, time=32),
    Message('note_on', channel=9, note=36, velocity=127, time=0),
    Message('note_off', channel=9, note=42, velocity=127, time=64),
    Message('note_off', channel=9, note=36, velocity=127, time=0),
    Message('note_on', channel=9, note=42, velocity=127, time=32),
    Message('note_on', channel=9, note=38, velocity=127, time=0),
    Message('note_off', channel=9, note=42, velocity=127, time=64),
    Message('note_off', channel=9, note=38, velocity=127, time=0),
    Message('note_on', channel=9, note=42, velocity=127, time=32),
    Message('note_on', channel=9, note=36, velocity=127, time=0),
    Message('note_off', channel=9, note=42, velocity=127, time=64),
    Message('note_off', channel=9, note=36, velocity=127, time=0),
    Message('note_on', channel=9, note=38, velocity=127, time=32),
    Message('note_off', channel=9, note=38, velocity=127, time=64),
    Message('note_on', channel=9, note=36, velocity=127, time=32),
    Message('note_off', channel=9, note=36, velocity=127, time=64),
    Message('note_on', channel=9, note=36, velocity=127, time=128),
    Message('note_off', channel=9, note=36, velocity=127, time=64),
    Message('note_on', channel=9, note=38, velocity=127, time=32),
    Message('note_on', channel=9, note=42, velocity=127, time=0),
    Message('note_off', channel=9, note=38, velocity=127, time=64),
    Message('note_off', channel=9, note=42, velocity=127, time=0),
    Message('note_on', channel=9, note=42, velocity=127, time=32),
    Message('note_off', channel=9, note=42, velocity=127, time=64),
    Message('note_on', channel=9, note=42, velocity=127, time=32),
    Message('note_on', channel=9, note=36, velocity=127, time=0),
    Message('note_off', channel=9, note=42, velocity=127, time=64),
    Message('note_off', channel=9, note=36, velocity=127, time=0),
    Message('note_on', channel=9, note=42, velocity=127, time=32),
    Message('note_on', channel=9, note=36, velocity=127, time=0),
    Message('note_off', channel=9, note=42, velocity=127, time=64),
    Message('note_off', channel=9, note=36, velocity=127, time=0),
    Message('note_on', channel=9, note=38, velocity=127, time=32),
    Message('note_off', channel=9, note=38, velocity=127, time=64),
    Message('note_on', channel=9, note=36, velocity=127, time=32),
    Message('note_off', channel=9, note=36, velocity=127, time=64),
    Message('note_on', channel=9, note=36, velocity=127, time=128),
    Message('note_off', channel=9, note=36, velocity=127, time=64),
    Message('note_on', channel=9, note=38, velocity=127, time=32),
    Message('note_on', channel=9, note=42, velocity=127, time=0),
    Message('note_off', channel=9, note=38, velocity=127, time=64),
    Message('note_off', channel=9, note=42, velocity=127, time=0),
    Message('note_on', channel=9, note=42, velocity=127, time=32),
    Message('note_off', channel=9, note=42, velocity=127, time=64),
    Message('note_on', channel=9, note=42, velocity=127, time=32),
    Message('note_on', channel=9, note=36, velocity=127, time=0),
    Message('note_off', channel=9, note=42, velocity=127, time=64),
    Message('note_off', channel=9, note=36, velocity=127, time=0),
    Message('note_on', channel=9, note=42, velocity=127, time=32),
    Message('note_on', channel=9, note=36, velocity=127, time=0),
    Message('note_off', channel=9, note=42, velocity=127, time=64),
    Message('note_off', channel=9, note=36, velocity=127, time=0),
    Message('note_on', channel=9, note=38, velocity=127, time=32),
    Message('note_off', channel=9, note=38, velocity=127, time=64),
    Message('note_on', channel=9, note=36, velocity=127, time=32),
    Message('note_off', channel=9, note=36, velocity=127, time=64),
    Message('note_on', channel=9, note=36, velocity=127, time=128),
    Message('note_off', channel=9, note=36, velocity=127, time=64),
    Message('note_on', channel=9, note=38, velocity=127, time=32),
    Message('note_on', channel=9, note=42, velocity=127, time=0),
    Message('note_off', channel=9, note=38, velocity=127, time=64),
    Message('note_off', channel=9, note=42, velocity=127, time=0),
    Message('note_on', channel=9, note=42, velocity=127, time=32),
    Message('note_off', channel=9, note=42, velocity=127, time=64),
    Message('note_on', channel=9, note=42, velocity=127, time=32),
    Message('note_on', channel=9, note=36, velocity=127, time=0),
    Message('note_off', channel=9, note=42, velocity=127, time=64),
    Message('note_off', channel=9, note=36, velocity=127, time=0),
    Message('note_on', channel=9, note=42, velocity=127, time=32),
    Message('note_on', channel=9, note=36, velocity=127, time=0),
    Message('note_off', channel=9, note=42, velocity=127, time=64),
    Message('note_off', channel=9, note=36, velocity=127, time=0),
    Message('note_on', channel=9, note=38, velocity=127, time=32),
    Message('note_off', channel=9, note=38, velocity=127, time=64),
    Message('note_on', channel=9, note=36, velocity=127, time=32),
    Message('note_off', channel=9, note=36, velocity=127, time=64),
    Message('note_on', channel=9, note=36, velocity=127, time=128),
    Message('note_on', channel=9, note=42, velocity=127, time=0),
    Message('note_off', channel=9, note=36, velocity=127, time=64),
    Message('note_off', channel=9, note=42, velocity=127, time=0),
    Message('note_on', channel=9, note=38, velocity=127, time=32),
    Message('note_off', channel=9, note=38, velocity=127, time=64),
    Message('note_on', channel=9, note=36, velocity=127, time=32),
    Message('note_off', channel=9, note=36, velocity=127, time=64),
    Message('note_on', channel=9, note=36, velocity=127, time=128),
    Message('note_on', channel=9, note=42, velocity=127, time=0),
    Message('note_off', channel=9, note=36, velocity=127, time=64),
    Message('note_off', channel=9, note=42, velocity=127, time=0),
    Message('note_on', channel=9, note=38, velocity=127, time=32),
    Message('note_off', channel=9, note=38, velocity=127, time=64),
    Message('note_on', channel=9, note=36, velocity=127, time=32),
    Message('note_off', channel=9, note=36, velocity=127, time=64),
    Message('note_on', channel=9, note=36, velocity=127, time=128),
    Message('note_off', channel=9, note=36, velocity=127, time=64),
    Message('note_on', channel=9, note=38, velocity=127, time=32),
    Message('note_on', channel=9, note=42, velocity=127, time=0),
    Message('note_off', channel=9, note=38, velocity=127, time=64),
    Message('note_off', channel=9, note=42, velocity=127, time=0),
    Message('note_on', channel=9, note=42, velocity=127, time=32),
    Message('note_off', channel=9, note=42, velocity=127, time=64),
    Message('note_on', channel=9, note=42, velocity=127, time=32),
    Message('note_on', channel=9, note=36, velocity=127, time=0),
    Message('note_off', channel=9, note=42, velocity=127, time=64),
    Message('note_off', channel=9, note=36, velocity=127, time=0),
    Message('note_on', channel=9, note=42, velocity=127, time=32),
    Message('note_on', channel=9, note=36, velocity=127, time=0),
    Message('note_off', channel=9, note=42, velocity=127, time=64),
    Message('note_off', channel=9, note=36, velocity=127, time=0),
    Message('note_on', channel=9, note=38, velocity=127, time=32),
    Message('note_off', channel=9, note=38, velocity=127, time=64),
    Message('note_on', channel=9, note=36, velocity=127, time=32),
    Message('note_off', channel=9, note=36, velocity=127, time=64),
    Message('note_on', channel=9, note=36, velocity=127, time=128),
    Message('note_off', channel=9, note=36, velocity=127, time=64),
    Message('note_on', channel=9, note=38, velocity=127, time=32),
    Message('note_on', channel=9, note=42, velocity=127, time=0),
    Message('note_off', channel=9, note=38, velocity=127, time=64),
    Message('note_off', channel=9, note=42, velocity=127, time=0),
    Message('note_on', channel=9, note=42, velocity=127, time=32),
    Message('note_off', channel=9, note=42, velocity=127, time=64),
    Message('note_on', channel=9, note=42, velocity=127, time=32),
    Message('note_on', channel=9, note=36, velocity=127, time=0),
    Message('note_off', channel=9, note=42, velocity=127, time=64),
    Message('note_off', channel=9, note=36, velocity=127, time=0),
    Message('note_on', channel=9, note=42, velocity=127, time=32),
    Message('note_on', channel=9, note=36, velocity=127, time=0),
    Message('note_off', channel=9, note=42, velocity=127, time=64),
    Message('note_off', channel=9, note=36, velocity=127, time=0),
    Message('note_on', channel=9, note=38, velocity=127, time=32),
    Message('note_off', channel=9, note=38, velocity=127, time=64),
    Message('note_on', channel=9, note=36, velocity=127, time=32),
    Message('note_off', channel=9, note=36, velocity=127, time=64),
    Message('note_on', channel=9, note=38, velocity=127, time=128),
    Message('note_off', channel=9, note=38, velocity=127, time=64),
    Message('note_on', channel=9, note=38, velocity=127, time=32),
    Message('note_off', channel=9, note=38, velocity=127, time=64),
    Message('note_on', channel=9, note=45, velocity=127, time=416),
    Message('note_off', channel=9, note=45, velocity=127, time=64),
    Message('note_on', channel=9, note=38, velocity=127, time=32),
    Message('note_off', channel=9, note=38, velocity=127, time=32),
    Message('note_on', channel=9, note=43, velocity=127, time=16),
    Message('note_off', channel=9, note=43, velocity=127, time=32),
    Message('note_on', channel=9, note=36, velocity=127, time=16),
    Message('note_off', channel=9, note=36, velocity=127, time=64),
    Message('note_on', channel=9, note=38, velocity=127, time=32),
    Message('note_off', channel=9, note=38, velocity=127, time=32),
    Message('note_on', channel=9, note=43, velocity=127, time=16),
    Message('note_off', channel=9, note=43, velocity=127, time=32),
    Message('note_on', channel=9, note=36, velocity=127, time=16),
    Message('note_off', channel=9, note=36, velocity=127, time=64),
    Message('note_on', channel=9, note=38, velocity=127, time=32),
    Message('note_off', channel=9, note=38, velocity=127, time=32),
    Message('note_on', channel=9, note=43, velocity=127, time=16),
    Message('note_off', channel=9, note=43, velocity=127, time=32),
    Message('note_on', channel=9, note=36, velocity=127, time=16),
    Message('note_off', channel=9, note=36, velocity=127, time=64),
    Message('note_on', channel=9, note=38, velocity=127, time=32),
    Message('note_off', channel=9, note=38, velocity=127, time=64),
    Message('note_on', channel=9, note=36, velocity=127, time=32),
    Message('note_off', channel=9, note=36, velocity=127, time=64),
    MetaMessage('end_of_track', time=500)]),
  MidiTrack([
    MetaMessage('track_name', name='xtra-Drums: Channel 9', time=0),
    MetaMessage('device_name', name='None', time=0),
    Message('note_on', channel=9, note=57, velocity=100, time=0),
    Message('control_change', channel=9, control=7, value=127, time=0),
    Message('program_change', channel=9, program=118, time=0),
    Message('control_change', channel=9, control=0, value=0, time=0),
    Message('note_off', channel=9, note=57, velocity=100, time=128),
    Message('note_on', channel=9, note=57, velocity=100, time=1120),
    Message('note_off', channel=9, note=57, velocity=100, time=64),
    Message('note_on', channel=9, note=57, velocity=100, time=32),
    Message('note_off', channel=9, note=57, velocity=100, time=64),
    Message('note_on', channel=9, note=57, velocity=100, time=32),
    Message('note_off', channel=9, note=57, velocity=100, time=64),
    Message('note_on', channel=9, note=57, velocity=100, time=1472),
    Message('note_off', channel=9, note=57, velocity=100, time=64),
    Message('note_on', channel=9, note=57, velocity=100, time=1280),
    Message('note_off', channel=9, note=57, velocity=100, time=64),
    Message('note_on', channel=9, note=57, velocity=100, time=32),
    Message('note_off', channel=9, note=57, velocity=100, time=64),
    Message('note_on', channel=9, note=57, velocity=100, time=32),
    Message('note_off', channel=9, note=57, velocity=100, time=64),
    Message('note_on', channel=9, note=57, velocity=100, time=1472),
    Message('note_off', channel=9, note=57, velocity=100, time=64),
    Message('note_on', channel=9, note=57, velocity=100, time=1280),
    Message('note_off', channel=9, note=57, velocity=100, time=64),
    Message('note_on', channel=9, note=57, velocity=100, time=32),
    Message('note_off', channel=9, note=57, velocity=100, time=64),
    Message('note_on', channel=9, note=57, velocity=100, time=32),
    Message('note_off', channel=9, note=57, velocity=100, time=64),
    Message('note_on', channel=9, note=57, velocity=100, time=1472),
    Message('note_off', channel=9, note=57, velocity=100, time=64),
    Message('note_on', channel=9, note=57, velocity=100, time=1472),
    Message('note_off', channel=9, note=57, velocity=100, time=64),
    Message('note_on', channel=9, note=50, velocity=100, time=320),
    Message('note_off', channel=9, note=50, velocity=100, time=64),
    Message('note_on', channel=9, note=50, velocity=100, time=32),
    Message('note_off', channel=9, note=50, velocity=100, time=64),
    Message('note_on', channel=9, note=48, velocity=100, time=32),
    Message('note_off', channel=9, note=48, velocity=100, time=64),
    Message('note_on', channel=9, note=48, velocity=100, time=32),
    Message('note_off', channel=9, note=48, velocity=100, time=64),
    Message('note_on', channel=9, note=48, velocity=100, time=128),
    Message('note_off', channel=9, note=48, velocity=100, time=32),
    Message('note_on', channel=9, note=48, velocity=100, time=16),
    Message('note_off', channel=9, note=48, velocity=100, time=32),
    Message('note_on', channel=9, note=48, velocity=100, time=16),
    Message('note_off', channel=9, note=48, velocity=100, time=64),
    Message('note_on', channel=9, note=48, velocity=100, time=32),
    Message('note_off', channel=9, note=48, velocity=100, time=64),
    Message('note_on', channel=9, note=57, velocity=100, time=416),
    Message('note_off', channel=9, note=57, velocity=100, time=64),
    Message('note_on', channel=9, note=57, velocity=100, time=1472),
    Message('note_off', channel=9, note=57, velocity=100, time=64),
    Message('note_on', channel=9, note=57, velocity=100, time=1472),
    Message('note_off', channel=9, note=57, velocity=100, time=64),
    Message('note_on', channel=9, note=57, velocity=100, time=1472),
    Message('note_off', channel=9, note=57, velocity=100, time=64),
    Message('note_on', channel=9, note=57, velocity=100, time=1472),
    Message('note_off', channel=9, note=57, velocity=100, time=64),
    Message('note_on', channel=9, note=57, velocity=100, time=1472),
    Message('note_off', channel=9, note=57, velocity=100, time=64),
    Message('note_on', channel=9, note=57, velocity=100, time=1472),
    Message('note_off', channel=9, note=57, velocity=100, time=64),
    Message('note_on', channel=9, note=57, velocity=100, time=1280),
    Message('note_off', channel=9, note=57, velocity=100, time=64),
    Message('note_on', channel=9, note=57, velocity=100, time=128),
    Message('note_off', channel=9, note=57, velocity=100, time=64),
    Message('note_on', channel=9, note=57, velocity=100, time=32),
    Message('note_off', channel=9, note=57, velocity=100, time=128),
    Message('note_on', channel=9, note=57, velocity=100, time=1120),
    Message('note_off', channel=9, note=57, velocity=100, time=64),
    Message('note_on', channel=9, note=57, velocity=100, time=128),
    Message('note_off', channel=9, note=57, velocity=100, time=64),
    Message('note_on', channel=9, note=57, velocity=100, time=32),
    Message('note_off', channel=9, note=57, velocity=100, time=128),
    Message('note_on', channel=9, note=57, velocity=100, time=1312),
    Message('note_off', channel=9, note=57, velocity=100, time=64),
    Message('note_on', channel=9, note=50, velocity=100, time=1088),
    Message('note_off', channel=9, note=50, velocity=100, time=64),
    Message('note_on', channel=9, note=50, velocity=100, time=32),
    Message('note_off', channel=9, note=50, velocity=100, time=64),
    Message('note_on', channel=9, note=48, velocity=100, time=32),
    Message('note_off', channel=9, note=48, velocity=100, time=64),
    Message('note_on', channel=9, note=48, velocity=100, time=32),
    Message('note_off', channel=9, note=48, velocity=100, time=64),
    Message('note_on', channel=9, note=57, velocity=100, time=32),
    Message('note_off', channel=9, note=57, velocity=100, time=64),
    Message('note_on', channel=9, note=51, velocity=100, time=224),
    Message('note_off', channel=9, note=51, velocity=100, time=128),
    Message('note_on', channel=9, note=51, velocity=100, time=64),
    Message('note_off', channel=9, note=51, velocity=100, time=128),
    Message('note_on', channel=9, note=51, velocity=100, time=64),
    Message('note_off', channel=9, note=51, velocity=100, time=128),
    Message('note_on', channel=9, note=51, velocity=100, time=64),
    Message('note_off', channel=9, note=51, velocity=100, time=128),
    Message('note_on', channel=9, note=51, velocity=100, time=64),
    Message('note_off', channel=9, note=51, velocity=100, time=128),
    Message('note_on', channel=9, note=51, velocity=100, time=64),
    Message('note_off', channel=9, note=51, velocity=100, time=128),
    Message('note_on', channel=9, note=51, velocity=100, time=64),
    Message('note_off', channel=9, note=51, velocity=100, time=64),
    Message('note_on', channel=9, note=57, velocity=100, time=32),
    Message('note_off', channel=9, note=57, velocity=100, time=64),
    Message('note_on', channel=9, note=51, velocity=100, time=32),
    Message('note_off', channel=9, note=51, velocity=100, time=128),
    Message('note_on', channel=9, note=51, velocity=100, time=64),
    Message('note_off', channel=9, note=51, velocity=100, time=128),
    Message('note_on', channel=9, note=51, velocity=100, time=64),
    Message('note_off', channel=9, note=51, velocity=100, time=128),
    Message('note_on', channel=9, note=51, velocity=100, time=64),
    Message('note_off', channel=9, note=51, velocity=100, time=128),
    Message('note_on', channel=9, note=51, velocity=100, time=64),
    Message('note_off', channel=9, note=51, velocity=100, time=128),
    Message('note_on', channel=9, note=51, velocity=100, time=64),
    Message('note_off', channel=9, note=51, velocity=100, time=128),
    Message('note_on', channel=9, note=57, velocity=100, time=160),
    Message('note_off', channel=9, note=57, velocity=100, time=64),
    Message('note_on', channel=9, note=57, velocity=100, time=128),
    Message('note_off', channel=9, note=57, velocity=100, time=64),
    Message('note_on', channel=9, note=57, velocity=100, time=32),
    Message('note_off', channel=9, note=57, velocity=100, time=128),
    Message('note_on', channel=9, note=51, velocity=100, time=64),
    Message('note_off', channel=9, note=51, velocity=100, time=128),
    Message('note_on', channel=9, note=51, velocity=100, time=64),
    Message('note_off', channel=9, note=51, velocity=100, time=128),
    Message('note_on', channel=9, note=51, velocity=100, time=64),
    Message('note_off', channel=9, note=51, velocity=100, time=128),
    Message('note_on', channel=9, note=51, velocity=100, time=64),
    Message('note_off', channel=9, note=51, velocity=100, time=128),
    Message('note_on', channel=9, note=51, velocity=100, time=64),
    Message('note_off', channel=9, note=51, velocity=100, time=128),
    Message('note_on', channel=9, note=51, velocity=100, time=64),
    Message('note_off', channel=9, note=51, velocity=100, time=128),
    Message('note_on', channel=9, note=51, velocity=100, time=64),
    Message('note_off', channel=9, note=51, velocity=100, time=64),
    Message('note_on', channel=9, note=57, velocity=100, time=32),
    Message('note_off', channel=9, note=57, velocity=100, time=64),
    Message('note_on', channel=9, note=51, velocity=100, time=32),
    Message('note_off', channel=9, note=51, velocity=100, time=128),
    Message('note_on', channel=9, note=51, velocity=100, time=64),
    Message('note_off', channel=9, note=51, velocity=100, time=128),
    Message('note_on', channel=9, note=51, velocity=100, time=64),
    Message('note_off', channel=9, note=51, velocity=100, time=128),
    Message('note_on', channel=9, note=51, velocity=100, time=64),
    Message('note_off', channel=9, note=51, velocity=100, time=128),
    Message('note_on', channel=9, note=51, velocity=100, time=64),
    Message('note_off', channel=9, note=51, velocity=100, time=128),
    Message('note_on', channel=9, note=51, velocity=100, time=64),
    Message('note_off', channel=9, note=51, velocity=100, time=128),
    Message('note_on', channel=9, note=57, velocity=100, time=160),
    Message('note_off', channel=9, note=57, velocity=100, time=64),
    Message('note_on', channel=9, note=57, velocity=100, time=128),
    Message('note_off', channel=9, note=57, velocity=100, time=64),
    Message('note_on', channel=9, note=57, velocity=100, time=32),
    Message('note_off', channel=9, note=57, velocity=100, time=128),
    Message('note_on', channel=9, note=51, velocity=100, time=64),
    Message('note_off', channel=9, note=51, velocity=100, time=128),
    Message('note_on', channel=9, note=51, velocity=100, time=64),
    Message('note_off', channel=9, note=51, velocity=100, time=128),
    Message('note_on', channel=9, note=51, velocity=100, time=64),
    Message('note_off', channel=9, note=51, velocity=100, time=128),
    Message('note_on', channel=9, note=51, velocity=100, time=64),
    Message('note_off', channel=9, note=51, velocity=100, time=128),
    Message('note_on', channel=9, note=51, velocity=100, time=64),
    Message('note_off', channel=9, note=51, velocity=100, time=128),
    Message('note_on', channel=9, note=51, velocity=100, time=64),
    Message('note_off', channel=9, note=51, velocity=100, time=128),
    Message('note_on', channel=9, note=51, velocity=100, time=64),
    Message('note_off', channel=9, note=51, velocity=100, time=64),
    Message('note_on', channel=9, note=57, velocity=100, time=32),
    Message('note_off', channel=9, note=57, velocity=100, time=64),
    Message('note_on', channel=9, note=51, velocity=100, time=32),
    Message('note_off', channel=9, note=51, velocity=100, time=128),
    Message('note_on', channel=9, note=51, velocity=100, time=64),
    Message('note_off', channel=9, note=51, velocity=100, time=128),
    Message('note_on', channel=9, note=51, velocity=100, time=64),
    Message('note_off', channel=9, note=51, velocity=100, time=128),
    Message('note_on', channel=9, note=51, velocity=100, time=64),
    Message('note_off', channel=9, note=51, velocity=100, time=128),
    Message('note_on', channel=9, note=51, velocity=100, time=64),
    Message('note_off', channel=9, note=51, velocity=100, time=128),
    Message('note_on', channel=9, note=51, velocity=100, time=64),
    Message('note_off', channel=9, note=51, velocity=100, time=128),
    Message('note_on', channel=9, note=57, velocity=100, time=160),
    Message('note_off', channel=9, note=57, velocity=100, time=64),
    Message('note_on', channel=9, note=57, velocity=100, time=128),
    Message('note_off', channel=9, note=57, velocity=100, time=64),
    Message('note_on', channel=9, note=57, velocity=100, time=32),
    Message('note_off', channel=9, note=57, velocity=100, time=128),
    Message('note_on', channel=9, note=51, velocity=100, time=64),
    Message('note_off', channel=9, note=51, velocity=100, time=128),
    Message('note_on', channel=9, note=51, velocity=100, time=64),
    Message('note_off', channel=9, note=51, velocity=100, time=128),
    Message('note_on', channel=9, note=51, velocity=100, time=64),
    Message('note_off', channel=9, note=51, velocity=100, time=128),
    Message('note_on', channel=9, note=51, velocity=100, time=64),
    Message('note_off', channel=9, note=51, velocity=100, time=128),
    Message('note_on', channel=9, note=51, velocity=100, time=64),
    Message('note_off', channel=9, note=51, velocity=100, time=128),
    Message('note_on', channel=9, note=51, velocity=100, time=64),
    Message('note_off', channel=9, note=51, velocity=100, time=128),
    Message('note_on', channel=9, note=51, velocity=100, time=64),
    Message('note_off', channel=9, note=51, velocity=100, time=64),
    Message('note_on', channel=9, note=57, velocity=100, time=32),
    Message('note_off', channel=9, note=57, velocity=100, time=64),
    Message('note_on', channel=9, note=51, velocity=100, time=32),
    Message('note_off', channel=9, note=51, velocity=100, time=128),
    Message('note_on', channel=9, note=51, velocity=100, time=64),
    Message('note_off', channel=9, note=51, velocity=100, time=128),
    Message('note_on', channel=9, note=51, velocity=100, time=64),
    Message('note_off', channel=9, note=51, velocity=100, time=128),
    Message('note_on', channel=9, note=51, velocity=100, time=64),
    Message('note_off', channel=9, note=51, velocity=100, time=128),
    Message('note_on', channel=9, note=51, velocity=100, time=64),
    Message('note_off', channel=9, note=51, velocity=100, time=128),
    Message('note_on', channel=9, note=50, velocity=100, time=256),
    Message('note_off', channel=9, note=50, velocity=100, time=64),
    Message('note_on', channel=9, note=48, velocity=100, time=32),
    Message('note_off', channel=9, note=48, velocity=100, time=64),
    Message('note_on', channel=9, note=57, velocity=100, time=128),
    Message('note_off', channel=9, note=57, velocity=100, time=64),
    Message('note_on', channel=9, note=57, velocity=100, time=1472),
    Message('note_off', channel=9, note=57, velocity=100, time=64),
    Message('note_on', channel=9, note=57, velocity=100, time=1472),
    Message('note_off', channel=9, note=57, velocity=100, time=64),
    Message('note_on', channel=9, note=57, velocity=100, time=1472),
    Message('note_off', channel=9, note=57, velocity=100, time=64),
    Message('note_on', channel=9, note=57, velocity=100, time=1472),
    Message('note_off', channel=9, note=57, velocity=100, time=64),
    Message('note_on', channel=9, note=57, velocity=100, time=1472),
    Message('note_off', channel=9, note=57, velocity=100, time=64),
    Message('note_on', channel=9, note=57, velocity=100, time=1472),
    Message('note_off', channel=9, note=57, velocity=100, time=64),
    Message('note_on', channel=9, note=57, velocity=100, time=1280),
    Message('note_off', channel=9, note=57, velocity=100, time=64),
    Message('note_on', channel=9, note=57, velocity=100, time=128),
    Message('note_off', channel=9, note=57, velocity=100, time=64),
    Message('note_on', channel=9, note=57, velocity=100, time=32),
    Message('note_off', channel=9, note=57, velocity=100, time=128),
    Message('note_on', channel=9, note=57, velocity=100, time=1120),
    Message('note_off', channel=9, note=57, velocity=100, time=64),
    Message('note_on', channel=9, note=57, velocity=100, time=128),
    Message('note_off', channel=9, note=57, velocity=100, time=64),
    Message('note_on', channel=9, note=57, velocity=100, time=32),
    Message('note_off', channel=9, note=57, velocity=100, time=128),
    Message('note_on', channel=9, note=57, velocity=100, time=1312),
    Message('note_off', channel=9, note=57, velocity=100, time=64),
    Message('note_on', channel=9, note=50, velocity=100, time=1088),
    Message('note_off', channel=9, note=50, velocity=100, time=64),
    Message('note_on', channel=9, note=50, velocity=100, time=32),
    Message('note_off', channel=9, note=50, velocity=100, time=64),
    Message('note_on', channel=9, note=48, velocity=100, time=32),
    Message('note_off', channel=9, note=48, velocity=100, time=64),
    Message('note_on', channel=9, note=48, velocity=100, time=32),
    Message('note_off', channel=9, note=48, velocity=100, time=64),
    Message('note_on', channel=9, note=57, velocity=100, time=32),
    Message('note_off', channel=9, note=57, velocity=100, time=64),
    Message('note_on', channel=9, note=51, velocity=100, time=224),
    Message('note_off', channel=9, note=51, velocity=100, time=128),
    Message('note_on', channel=9, note=51, velocity=100, time=64),
    Message('note_off', channel=9, note=51, velocity=100, time=128),
    Message('note_on', channel=9, note=51, velocity=100, time=64),
    Message('note_off', channel=9, note=51, velocity=100, time=128),
    Message('note_on', channel=9, note=51, velocity=100, time=64),
    Message('note_off', channel=9, note=51, velocity=100, time=128),
    Message('note_on', channel=9, note=51, velocity=100, time=64),
    Message('note_off', channel=9, note=51, velocity=100, time=128),
    Message('note_on', channel=9, note=51, velocity=100, time=64),
    Message('note_off', channel=9, note=51, velocity=100, time=128),
    Message('note_on', channel=9, note=51, velocity=100, time=64),
    Message('note_off', channel=9, note=51, velocity=100, time=64),
    Message('note_on', channel=9, note=57, velocity=100, time=32),
    Message('note_off', channel=9, note=57, velocity=100, time=64),
    Message('note_on', channel=9, note=51, velocity=100, time=32),
    Message('note_off', channel=9, note=51, velocity=100, time=128),
    Message('note_on', channel=9, note=51, velocity=100, time=64),
    Message('note_off', channel=9, note=51, velocity=100, time=128),
    Message('note_on', channel=9, note=51, velocity=100, time=64),
    Message('note_off', channel=9, note=51, velocity=100, time=128),
    Message('note_on', channel=9, note=51, velocity=100, time=64),
    Message('note_off', channel=9, note=51, velocity=100, time=128),
    Message('note_on', channel=9, note=51, velocity=100, time=64),
    Message('note_off', channel=9, note=51, velocity=100, time=128),
    Message('note_on', channel=9, note=51, velocity=100, time=64),
    Message('note_off', channel=9, note=51, velocity=100, time=128),
    Message('note_on', channel=9, note=57, velocity=100, time=160),
    Message('note_off', channel=9, note=57, velocity=100, time=64),
    Message('note_on', channel=9, note=57, velocity=100, time=128),
    Message('note_off', channel=9, note=57, velocity=100, time=64),
    Message('note_on', channel=9, note=57, velocity=100, time=32),
    Message('note_off', channel=9, note=57, velocity=100, time=128),
    Message('note_on', channel=9, note=51, velocity=100, time=64),
    Message('note_off', channel=9, note=51, velocity=100, time=128),
    Message('note_on', channel=9, note=51, velocity=100, time=64),
    Message('note_off', channel=9, note=51, velocity=100, time=128),
    Message('note_on', channel=9, note=51, velocity=100, time=64),
    Message('note_off', channel=9, note=51, velocity=100, time=128),
    Message('note_on', channel=9, note=51, velocity=100, time=64),
    Message('note_off', channel=9, note=51, velocity=100, time=128),
    Message('note_on', channel=9, note=51, velocity=100, time=64),
    Message('note_off', channel=9, note=51, velocity=100, time=128),
    Message('note_on', channel=9, note=51, velocity=100, time=64),
    Message('note_off', channel=9, note=51, velocity=100, time=128),
    Message('note_on', channel=9, note=51, velocity=100, time=64),
    Message('note_off', channel=9, note=51, velocity=100, time=64),
    Message('note_on', channel=9, note=57, velocity=100, time=32),
    Message('note_off', channel=9, note=57, velocity=100, time=64),
    Message('note_on', channel=9, note=51, velocity=100, time=32),
    Message('note_off', channel=9, note=51, velocity=100, time=128),
    Message('note_on', channel=9, note=51, velocity=100, time=64),
    Message('note_off', channel=9, note=51, velocity=100, time=128),
    Message('note_on', channel=9, note=51, velocity=100, time=64),
    Message('note_off', channel=9, note=51, velocity=100, time=128),
    Message('note_on', channel=9, note=51, velocity=100, time=64),
    Message('note_off', channel=9, note=51, velocity=100, time=128),
    Message('note_on', channel=9, note=51, velocity=100, time=64),
    Message('note_off', channel=9, note=51, velocity=100, time=128),
    Message('note_on', channel=9, note=51, velocity=100, time=64),
    Message('note_off', channel=9, note=51, velocity=100, time=128),
    Message('note_on', channel=9, note=57, velocity=100, time=160),
    Message('note_off', channel=9, note=57, velocity=100, time=64),
    Message('note_on', channel=9, note=57, velocity=100, time=128),
    Message('note_off', channel=9, note=57, velocity=100, time=64),
    Message('note_on', channel=9, note=57, velocity=100, time=32),
    Message('note_off', channel=9, note=57, velocity=100, time=128),
    Message('note_on', channel=9, note=51, velocity=100, time=64),
    Message('note_off', channel=9, note=51, velocity=100, time=128),
    Message('note_on', channel=9, note=51, velocity=100, time=64),
    Message('note_off', channel=9, note=51, velocity=100, time=128),
    Message('note_on', channel=9, note=51, velocity=100, time=64),
    Message('note_off', channel=9, note=51, velocity=100, time=128),
    Message('note_on', channel=9, note=51, velocity=100, time=64),
    Message('note_off', channel=9, note=51, velocity=100, time=128),
    Message('note_on', channel=9, note=51, velocity=100, time=64),
    Message('note_off', channel=9, note=51, velocity=100, time=128),
    Message('note_on', channel=9, note=51, velocity=100, time=64),
    Message('note_off', channel=9, note=51, velocity=100, time=128),
    Message('note_on', channel=9, note=51, velocity=100, time=64),
    Message('note_off', channel=9, note=51, velocity=100, time=64),
    Message('note_on', channel=9, note=57, velocity=100, time=32),
    Message('note_off', channel=9, note=57, velocity=100, time=64),
    Message('note_on', channel=9, note=51, velocity=100, time=32),
    Message('note_off', channel=9, note=51, velocity=100, time=128),
    Message('note_on', channel=9, note=51, velocity=100, time=64),
    Message('note_off', channel=9, note=51, velocity=100, time=128),
    Message('note_on', channel=9, note=51, velocity=100, time=64),
    Message('note_off', channel=9, note=51, velocity=100, time=128),
    Message('note_on', channel=9, note=51, velocity=100, time=64),
    Message('note_off', channel=9, note=51, velocity=100, time=128),
    Message('note_on', channel=9, note=51, velocity=100, time=64),
    Message('note_off', channel=9, note=51, velocity=100, time=128),
    Message('note_on', channel=9, note=51, velocity=100, time=64),
    Message('note_off', channel=9, note=51, velocity=100, time=128),
    Message('note_on', channel=9, note=57, velocity=100, time=160),
    Message('note_off', channel=9, note=57, velocity=100, time=64),
    Message('note_on', channel=9, note=57, velocity=100, time=128),
    Message('note_off', channel=9, note=57, velocity=100, time=64),
    Message('note_on', channel=9, note=57, velocity=100, time=32),
    Message('note_off', channel=9, note=57, velocity=100, time=128),
    Message('note_on', channel=9, note=51, velocity=100, time=64),
    Message('note_off', channel=9, note=51, velocity=100, time=128),
    Message('note_on', channel=9, note=51, velocity=100, time=64),
    Message('note_off', channel=9, note=51, velocity=100, time=128),
    Message('note_on', channel=9, note=51, velocity=100, time=64),
    Message('note_off', channel=9, note=51, velocity=100, time=128),
    Message('note_on', channel=9, note=51, velocity=100, time=64),
    Message('note_off', channel=9, note=51, velocity=100, time=128),
    Message('note_on', channel=9, note=51, velocity=100, time=64),
    Message('note_off', channel=9, note=51, velocity=100, time=128),
    Message('note_on', channel=9, note=51, velocity=100, time=64),
    Message('note_off', channel=9, note=51, velocity=100, time=128),
    Message('note_on', channel=9, note=51, velocity=100, time=64),
    Message('note_off', channel=9, note=51, velocity=100, time=64),
    Message('note_on', channel=9, note=57, velocity=100, time=32),
    Message('note_off', channel=9, note=57, velocity=100, time=64),
    Message('note_on', channel=9, note=51, velocity=100, time=32),
    Message('note_off', channel=9, note=51, velocity=100, time=128),
    Message('note_on', channel=9, note=51, velocity=100, time=64),
    Message('note_off', channel=9, note=51, velocity=100, time=128),
    Message('note_on', channel=9, note=51, velocity=100, time=64),
    Message('note_off', channel=9, note=51, velocity=100, time=128),
    Message('note_on', channel=9, note=51, velocity=100, time=64),
    Message('note_off', channel=9, note=51, velocity=100, time=128),
    Message('note_on', channel=9, note=51, velocity=100, time=64),
    Message('note_off', channel=9, note=51, velocity=100, time=128),
    Message('note_on', channel=9, note=50, velocity=100, time=256),
    Message('note_off', channel=9, note=50, velocity=100, time=64),
    Message('note_on', channel=9, note=48, velocity=100, time=32),
    Message('note_off', channel=9, note=48, velocity=100, time=64),
    Message('note_on', channel=9, note=57, velocity=100, time=128),
    Message('note_off', channel=9, note=57, velocity=100, time=64),
    Message('note_on', channel=9, note=57, velocity=100, time=1568),
    Message('note_off', channel=9, note=57, velocity=100, time=128),
    Message('note_on', channel=9, note=57, velocity=100, time=1312),
    Message('note_off', channel=9, note=57, velocity=100, time=64),
    Message('note_on', channel=9, note=57, velocity=100, time=1568),
    Message('note_off', channel=9, note=57, velocity=100, time=128),
    Message('note_on', channel=9, note=57, velocity=100, time=1312),
    Message('note_off', channel=9, note=57, velocity=100, time=64),
    Message('note_on', channel=9, note=57, velocity=100, time=1568),
    Message('note_off', channel=9, note=57, velocity=100, time=128),
    Message('note_on', channel=9, note=57, velocity=100, time=1312),
    Message('note_off', channel=9, note=57, velocity=100, time=64),
    Message('note_on', channel=9, note=57, velocity=100, time=1568),
    Message('note_off', channel=9, note=57, velocity=100, time=128),
    Message('note_on', channel=9, note=50, velocity=100, time=1600),
    Message('note_off', channel=9, note=50, velocity=100, time=32),
    Message('note_on', channel=9, note=50, velocity=100, time=16),
    Message('note_off', channel=9, note=50, velocity=100, time=32),
    Message('note_on', channel=9, note=48, velocity=100, time=112),
    Message('note_off', channel=9, note=48, velocity=100, time=32),
    Message('note_on', channel=9, note=48, velocity=100, time=16),
    Message('note_off', channel=9, note=48, velocity=100, time=32),
    Message('note_on', channel=9, note=47, velocity=100, time=112),
    Message('note_off', channel=9, note=47, velocity=100, time=32),
    Message('note_on', channel=9, note=47, velocity=100, time=16),
    Message('note_off', channel=9, note=47, velocity=100, time=32),
    Message('note_on', channel=9, note=57, velocity=100, time=784),
    Message('note_off', channel=9, note=57, velocity=100, time=64),
    Message('note_on', channel=9, note=57, velocity=100, time=1472),
    Message('note_off', channel=9, note=57, velocity=100, time=64),
    Message('note_on', channel=9, note=57, velocity=100, time=1472),
    Message('note_off', channel=9, note=57, velocity=100, time=64),
    Message('note_on', channel=9, note=57, velocity=100, time=1472),
    Message('note_off', channel=9, note=57, velocity=100, time=64),
    Message('note_on', channel=9, note=57, velocity=100, time=704),
    Message('note_off', channel=9, note=57, velocity=100, time=64),
    Message('note_on', channel=9, note=57, velocity=100, time=512),
    Message('note_off', channel=9, note=57, velocity=100, time=64),
    Message('note_on', channel=9, note=57, velocity=100, time=128),
    Message('note_off', channel=9, note=57, velocity=100, time=64),
    Message('note_on', channel=9, note=57, velocity=100, time=1472),
    Message('note_off', channel=9, note=57, velocity=100, time=64),
    Message('note_on', channel=9, note=57, velocity=100, time=1280),
    Message('note_off', channel=9, note=57, velocity=100, time=64),
    Message('note_on', channel=9, note=57, velocity=100, time=32),
    Message('note_off', channel=9, note=57, velocity=100, time=64),
    Message('note_on', channel=9, note=57, velocity=100, time=32),
    Message('note_off', channel=9, note=57, velocity=100, time=64),
    Message('note_on', channel=9, note=57, velocity=100, time=1472),
    Message('note_off', channel=9, note=57, velocity=100, time=64),
    Message('note_on', channel=9, note=57, velocity=100, time=704),
    Message('note_off', channel=9, note=57, velocity=100, time=64),
    Message('note_on', channel=9, note=57, velocity=100, time=512),
    Message('note_off', channel=9, note=57, velocity=100, time=64),
    Message('note_on', channel=9, note=57, velocity=100, time=32),
    Message('note_off', channel=9, note=57, velocity=100, time=64),
    Message('note_on', channel=9, note=57, velocity=100, time=32),
    Message('note_off', channel=9, note=57, velocity=100, time=64),
    Message('note_on', channel=9, note=57, velocity=100, time=1472),
    Message('note_off', channel=9, note=57, velocity=100, time=64),
    Message('note_on', channel=9, note=57, velocity=100, time=1472),
    Message('note_off', channel=9, note=57, velocity=100, time=64),
    Message('note_on', channel=9, note=57, velocity=100, time=1472),
    Message('note_off', channel=9, note=57, velocity=100, time=64),
    Message('note_on', channel=9, note=50, velocity=100, time=128),
    Message('note_off', channel=9, note=50, velocity=100, time=64),
    Message('note_on', channel=9, note=50, velocity=100, time=32),
    Message('note_off', channel=9, note=50, velocity=100, time=64),
    Message('note_on', channel=9, note=48, velocity=100, time=32),
    Message('note_off', channel=9, note=48, velocity=100, time=64),
    Message('note_on', channel=9, note=48, velocity=100, time=32),
    Message('note_off', channel=9, note=48, velocity=100, time=64),
    Message('note_on', channel=9, note=47, velocity=100, time=32),
    Message('note_off', channel=9, note=47, velocity=100, time=64),
    Message('note_on', channel=9, note=47, velocity=100, time=32),
    Message('note_off', channel=9, note=47, velocity=100, time=64),
    Message('note_on', channel=9, note=57, velocity=100, time=32),
    Message('note_off', channel=9, note=57, velocity=100, time=64),
    Message('note_on', channel=9, note=48, velocity=100, time=128),
    Message('note_off', channel=9, note=48, velocity=100, time=64),
    Message('note_on', channel=9, note=48, velocity=100, time=32),
    Message('note_off', channel=9, note=48, velocity=100, time=64),
    Message('note_on', channel=9, note=57, velocity=100, time=224),
    Message('note_off', channel=9, note=57, velocity=100, time=64),
    Message('note_on', channel=9, note=57, velocity=100, time=128),
    Message('note_off', channel=9, note=57, velocity=100, time=64),
    Message('note_on', channel=9, note=51, velocity=100, time=224),
    Message('note_off', channel=9, note=51, velocity=100, time=128),
    Message('note_on', channel=9, note=51, velocity=100, time=64),
    Message('note_off', channel=9, note=51, velocity=100, time=128),
    Message('note_on', channel=9, note=51, velocity=100, time=64),
    Message('note_off', channel=9, note=51, velocity=100, time=128),
    Message('note_on', channel=9, note=51, velocity=100, time=64),
    Message('note_off', channel=9, note=51, velocity=100, time=128),
    Message('note_on', channel=9, note=51, velocity=100, time=64),
    Message('note_off', channel=9, note=51, velocity=100, time=128),
    Message('note_on', channel=9, note=51, velocity=100, time=64),
    Message('note_on', channel=9, note=51, velocity=100, time=96),
    Message('note_off', channel=9, note=51, velocity=100, time=32),
    Message('note_off', channel=9, note=51, velocity=100, time=32),
    Message('note_on', channel=9, note=57, velocity=100, time=128),
    Message('note_off', channel=9, note=57, velocity=100, time=64),
    Message('note_on', channel=9, note=51, velocity=100, time=224),
    Message('note_off', channel=9, note=51, velocity=100, time=128),
    Message('note_on', channel=9, note=51, velocity=100, time=64),
    Message('note_off', channel=9, note=51, velocity=100, time=128),
    Message('note_on', channel=9, note=51, velocity=100, time=64),
    Message('note_off', channel=9, note=51, velocity=100, time=128),
    Message('note_on', channel=9, note=51, velocity=100, time=64),
    Message('note_off', channel=9, note=51, velocity=100, time=128),
    Message('note_on', channel=9, note=51, velocity=100, time=64),
    Message('note_off', channel=9, note=51, velocity=100, time=128),
    Message('note_on', channel=9, note=51, velocity=100, time=64),
    Message('note_on', channel=9, note=51, velocity=100, time=96),
    Message('note_off', channel=9, note=51, velocity=100, time=32),
    Message('note_off', channel=9, note=51, velocity=100, time=32),
    Message('note_on', channel=9, note=57, velocity=100, time=128),
    Message('note_off', channel=9, note=57, velocity=100, time=64),
    Message('note_on', channel=9, note=51, velocity=100, time=224),
    Message('note_off', channel=9, note=51, velocity=100, time=128),
    Message('note_on', channel=9, note=51, velocity=100, time=64),
    Message('note_off', channel=9, note=51, velocity=100, time=128),
    Message('note_on', channel=9, note=51, velocity=100, time=64),
    Message('note_off', channel=9, note=51, velocity=100, time=128),
    Message('note_on', channel=9, note=51, velocity=100, time=64),
    Message('note_off', channel=9, note=51, velocity=100, time=128),
    Message('note_on', channel=9, note=51, velocity=100, time=64),
    Message('note_off', channel=9, note=51, velocity=100, time=128),
    Message('note_on', channel=9, note=51, velocity=100, time=64),
    Message('note_on', channel=9, note=51, velocity=100, time=96),
    Message('note_off', channel=9, note=51, velocity=100, time=32),
    Message('note_off', channel=9, note=51, velocity=100, time=32),
    Message('note_on', channel=9, note=57, velocity=100, time=128),
    Message('note_off', channel=9, note=57, velocity=100, time=64),
    Message('note_on', channel=9, note=51, velocity=100, time=224),
    Message('note_off', channel=9, note=51, velocity=100, time=128),
    Message('note_on', channel=9, note=51, velocity=100, time=64),
    Message('note_off', channel=9, note=51, velocity=100, time=64),
    Message('note_on', channel=9, note=51, velocity=100, time=32),
    Message('note_off', channel=9, note=51, velocity=100, time=64),
    Message('note_on', channel=9, note=57, velocity=100, time=128),
    Message('note_off', channel=9, note=57, velocity=100, time=64),
    Message('note_on', channel=9, note=51, velocity=100, time=224),
    Message('note_off', channel=9, note=51, velocity=100, time=128),
    Message('note_on', channel=9, note=51, velocity=100, time=64),
    Message('note_off', channel=9, note=51, velocity=100, time=64),
    Message('note_on', channel=9, note=51, velocity=100, time=32),
    Message('note_off', channel=9, note=51, velocity=100, time=64),
    Message('note_on', channel=9, note=57, velocity=100, time=128),
    Message('note_off', channel=9, note=57, velocity=100, time=64),
    Message('note_on', channel=9, note=51, velocity=100, time=224),
    Message('note_off', channel=9, note=51, velocity=100, time=128),
    Message('note_on', channel=9, note=51, velocity=100, time=64),
    Message('note_off', channel=9, note=51, velocity=100, time=128),
    Message('note_on', channel=9, note=51, velocity=100, time=64),
    Message('note_off', channel=9, note=51, velocity=100, time=128),
    Message('note_on', channel=9, note=51, velocity=100, time=64),
    Message('note_off', channel=9, note=51, velocity=100, time=128),
    Message('note_on', channel=9, note=51, velocity=100, time=64),
    Message('note_off', channel=9, note=51, velocity=100, time=128),
    Message('note_on', channel=9, note=51, velocity=100, time=64),
    Message('note_off', channel=9, note=51, velocity=100, time=64),
    Message('note_on', channel=9, note=51, velocity=100, time=32),
    Message('note_off', channel=9, note=51, velocity=100, time=64),
    Message('note_on', channel=9, note=57, velocity=100, time=128),
    Message('note_off', channel=9, note=57, velocity=100, time=64),
    Message('note_on', channel=9, note=51, velocity=100, time=224),
    Message('note_off', channel=9, note=51, velocity=100, time=128),
    Message('note_on', channel=9, note=51, velocity=100, time=64),
    Message('note_off', channel=9, note=51, velocity=100, time=128),
    Message('note_on', channel=9, note=51, velocity=100, time=64),
    Message('note_off', channel=9, note=51, velocity=100, time=128),
    Message('note_on', channel=9, note=51, velocity=100, time=64),
    Message('note_off', channel=9, note=51, velocity=100, time=128),
    Message('note_on', channel=9, note=51, velocity=100, time=64),
    Message('note_off', channel=9, note=51, velocity=100, time=128),
    Message('note_on', channel=9, note=51, velocity=100, time=64),
    Message('note_off', channel=9, note=51, velocity=100, time=64),
    Message('note_on', channel=9, note=51, velocity=100, time=32),
    Message('note_off', channel=9, note=51, velocity=100, time=64),
    Message('note_on', channel=9, note=57, velocity=100, time=128),
    Message('note_off', channel=9, note=57, velocity=100, time=64),
    Message('note_on', channel=9, note=51, velocity=100, time=224),
    Message('note_off', channel=9, note=51, velocity=100, time=128),
    Message('note_on', channel=9, note=51, velocity=100, time=64),
    Message('note_off', channel=9, note=51, velocity=100, time=128),
    Message('note_on', channel=9, note=51, velocity=100, time=64),
    Message('note_off', channel=9, note=51, velocity=100, time=128),
    Message('note_on', channel=9, note=51, velocity=100, time=64),
    Message('note_off', channel=9, note=51, velocity=100, time=128),
    Message('note_on', channel=9, note=51, velocity=100, time=64),
    Message('note_off', channel=9, note=51, velocity=100, time=128),
    Message('note_on', channel=9, note=51, velocity=100, time=64),
    Message('note_off', channel=9, note=51, velocity=100, time=64),
    Message('note_on', channel=9, note=51, velocity=100, time=32),
    Message('note_off', channel=9, note=51, velocity=100, time=64),
    Message('note_on', channel=9, note=57, velocity=100, time=128),
    Message('note_off', channel=9, note=57, velocity=100, time=64),
    Message('note_on', channel=9, note=51, velocity=100, time=224),
    Message('note_off', channel=9, note=51, velocity=100, time=128),
    Message('note_on', channel=9, note=51, velocity=100, time=64),
    Message('note_off', channel=9, note=51, velocity=100, time=128),
    Message('note_on', channel=9, note=51, velocity=100, time=64),
    Message('note_off', channel=9, note=51, velocity=100, time=128),
    Message('note_on', channel=9, note=51, velocity=100, time=64),
    Message('note_off', channel=9, note=51, velocity=100, time=128),
    Message('note_on', channel=9, note=51, velocity=100, time=64),
    Message('note_off', channel=9, note=51, velocity=100, time=128),
    Message('note_on', channel=9, note=51, velocity=100, time=64),
    Message('note_off', channel=9, note=51, velocity=100, time=64),
    Message('note_on', channel=9, note=51, velocity=100, time=32),
    Message('note_off', channel=9, note=51, velocity=100, time=64),
    Message('note_on', channel=9, note=57, velocity=100, time=128),
    Message('note_off', channel=9, note=57, velocity=100, time=64),
    Message('note_on', channel=9, note=51, velocity=100, time=224),
    Message('note_off', channel=9, note=51, velocity=100, time=128),
    Message('note_on', channel=9, note=51, velocity=100, time=64),
    Message('note_off', channel=9, note=51, velocity=100, time=128),
    Message('note_on', channel=9, note=51, velocity=100, time=64),
    Message('note_off', channel=9, note=51, velocity=100, time=128),
    Message('note_on', channel=9, note=51, velocity=100, time=64),
    Message('note_off', channel=9, note=51, velocity=100, time=128),
    Message('note_on', channel=9, note=51, velocity=100, time=64),
    Message('note_off', channel=9, note=51, velocity=100, time=128),
    Message('note_on', channel=9, note=51, velocity=100, time=64),
    Message('note_off', channel=9, note=51, velocity=100, time=64),
    Message('note_on', channel=9, note=51, velocity=100, time=32),
    Message('note_off', channel=9, note=51, velocity=100, time=64),
    Message('note_on', channel=9, note=57, velocity=100, time=128),
    Message('note_off', channel=9, note=57, velocity=100, time=64),
    Message('note_on', channel=9, note=51, velocity=100, time=224),
    Message('note_off', channel=9, note=51, velocity=100, time=128),
    Message('note_on', channel=9, note=51, velocity=100, time=64),
    Message('note_off', channel=9, note=51, velocity=100, time=128),
    Message('note_on', channel=9, note=51, velocity=100, time=64),
    Message('note_off', channel=9, note=51, velocity=100, time=128),
    Message('note_on', channel=9, note=51, velocity=100, time=64),
    Message('note_off', channel=9, note=51, velocity=100, time=128),
    Message('note_on', channel=9, note=51, velocity=100, time=64),
    Message('note_off', channel=9, note=51, velocity=100, time=128),
    Message('note_on', channel=9, note=51, velocity=100, time=64),
    Message('note_off', channel=9, note=51, velocity=100, time=64),
    Message('note_on', channel=9, note=51, velocity=100, time=32),
    Message('note_off', channel=9, note=51, velocity=100, time=64),
    Message('note_on', channel=9, note=57, velocity=100, time=128),
    Message('note_off', channel=9, note=57, velocity=100, time=64),
    Message('note_on', channel=9, note=51, velocity=100, time=224),
    Message('note_off', channel=9, note=51, velocity=100, time=128),
    Message('note_on', channel=9, note=51, velocity=100, time=64),
    Message('note_off', channel=9, note=51, velocity=100, time=128),
    Message('note_on', channel=9, note=51, velocity=100, time=64),
    Message('note_off', channel=9, note=51, velocity=100, time=128),
    Message('note_on', channel=9, note=51, velocity=100, time=64),
    Message('note_off', channel=9, note=51, velocity=100, time=128),
    Message('note_on', channel=9, note=51, velocity=100, time=64),
    Message('note_off', channel=9, note=51, velocity=100, time=128),
    Message('note_on', channel=9, note=51, velocity=100, time=64),
    Message('note_off', channel=9, note=51, velocity=100, time=64),
    Message('note_on', channel=9, note=51, velocity=100, time=32),
    Message('note_off', channel=9, note=51, velocity=100, time=64),
    Message('note_on', channel=9, note=57, velocity=100, time=128),
    Message('note_off', channel=9, note=57, velocity=100, time=64),
    Message('note_on', channel=9, note=50, velocity=100, time=128),
    Message('note_off', channel=9, note=50, velocity=100, time=64),
    Message('note_on', channel=9, note=50, velocity=100, time=32),
    Message('note_off', channel=9, note=50, velocity=100, time=64),
    Message('note_on', channel=9, note=48, velocity=100, time=32),
    Message('note_off', channel=9, note=48, velocity=100, time=64),
    Message('note_on', channel=9, note=48, velocity=100, time=32),
    Message('note_off', channel=9, note=48, velocity=100, time=64),
    Message('note_on', channel=9, note=47, velocity=100, time=32),
    Message('note_off', channel=9, note=47, velocity=100, time=64),
    Message('note_on', channel=9, note=47, velocity=100, time=32),
    Message('note_off', channel=9, note=47, velocity=100, time=64),
    Message('note_on', channel=9, note=57, velocity=100, time=32),
    Message('note_off', channel=9, note=57, velocity=100, time=64),
    Message('note_on', channel=9, note=47, velocity=100, time=128),
    Message('note_off', channel=9, note=47, velocity=100, time=64),
    Message('note_on', channel=9, note=47, velocity=100, time=32),
    Message('note_off', channel=9, note=47, velocity=100, time=64),
    Message('note_on', channel=9, note=57, velocity=100, time=224),
    Message('note_off', channel=9, note=57, velocity=100, time=64),
    Message('note_on', channel=9, note=57, velocity=100, time=128),
    Message('note_off', channel=9, note=57, velocity=100, time=64),
    Message('note_on', channel=9, note=51, velocity=100, time=224),
    Message('note_off', channel=9, note=51, velocity=100, time=128),
    Message('note_on', channel=9, note=51, velocity=100, time=64),
    Message('note_off', channel=9, note=51, velocity=100, time=128),
    Message('note_on', channel=9, note=51, velocity=100, time=64),
    Message('note_off', channel=9, note=51, velocity=100, time=128),
    Message('note_on', channel=9, note=51, velocity=100, time=64),
    Message('note_off', channel=9, note=51, velocity=100, time=128),
    Message('note_on', channel=9, note=51, velocity=100, time=64),
    Message('note_off', channel=9, note=51, velocity=100, time=128),
    Message('note_on', channel=9, note=51, velocity=100, time=64),
    Message('note_off', channel=9, note=51, velocity=100, time=64),
    Message('note_on', channel=9, note=51, velocity=100, time=32),
    Message('note_off', channel=9, note=51, velocity=100, time=64),
    Message('note_on', channel=9, note=57, velocity=100, time=128),
    Message('note_off', channel=9, note=57, velocity=100, time=64),
    Message('note_on', channel=9, note=51, velocity=100, time=224),
    Message('note_off', channel=9, note=51, velocity=100, time=128),
    Message('note_on', channel=9, note=51, velocity=100, time=64),
    Message('note_off', channel=9, note=51, velocity=100, time=128),
    Message('note_on', channel=9, note=51, velocity=100, time=64),
    Message('note_off', channel=9, note=51, velocity=100, time=128),
    Message('note_on', channel=9, note=51, velocity=100, time=64),
    Message('note_off', channel=9, note=51, velocity=100, time=128),
    Message('note_on', channel=9, note=51, velocity=100, time=64),
    Message('note_off', channel=9, note=51, velocity=100, time=128),
    Message('note_on', channel=9, note=51, velocity=100, time=64),
    Message('note_off', channel=9, note=51, velocity=100, time=64),
    Message('note_on', channel=9, note=51, velocity=100, time=32),
    Message('note_off', channel=9, note=51, velocity=100, time=64),
    Message('note_on', channel=9, note=57, velocity=100, time=128),
    Message('note_off', channel=9, note=57, velocity=100, time=64),
    Message('note_on', channel=9, note=51, velocity=100, time=224),
    Message('note_off', channel=9, note=51, velocity=100, time=128),
    Message('note_on', channel=9, note=51, velocity=100, time=64),
    Message('note_off', channel=9, note=51, velocity=100, time=128),
    Message('note_on', channel=9, note=51, velocity=100, time=64),
    Message('note_off', channel=9, note=51, velocity=100, time=128),
    Message('note_on', channel=9, note=51, velocity=100, time=64),
    Message('note_off', channel=9, note=51, velocity=100, time=128),
    Message('note_on', channel=9, note=51, velocity=100, time=64),
    Message('note_off', channel=9, note=51, velocity=100, time=128),
    Message('note_on', channel=9, note=51, velocity=100, time=64),
    Message('note_off', channel=9, note=51, velocity=100, time=64),
    Message('note_on', channel=9, note=51, velocity=100, time=32),
    Message('note_off', channel=9, note=51, velocity=100, time=64),
    Message('note_on', channel=9, note=57, velocity=100, time=128),
    Message('note_off', channel=9, note=57, velocity=100, time=64),
    Message('note_on', channel=9, note=51, velocity=100, time=224),
    Message('note_off', channel=9, note=51, velocity=100, time=128),
    Message('note_on', channel=9, note=51, velocity=100, time=64),
    Message('note_off', channel=9, note=51, velocity=100, time=128),
    Message('note_on', channel=9, note=51, velocity=100, time=64),
    Message('note_off', channel=9, note=51, velocity=100, time=128),
    Message('note_on', channel=9, note=51, velocity=100, time=256),
    Message('note_off', channel=9, note=51, velocity=100, time=128),
    Message('note_on', channel=9, note=51, velocity=100, time=64),
    Message('note_off', channel=9, note=51, velocity=100, time=64),
    Message('note_on', channel=9, note=57, velocity=100, time=32),
    Message('note_off', channel=9, note=57, velocity=100, time=64),
    Message('note_on', channel=9, note=57, velocity=100, time=128),
    Message('note_off', channel=9, note=57, velocity=100, time=64),
    Message('note_on', channel=9, note=51, velocity=100, time=224),
    Message('note_off', channel=9, note=51, velocity=100, time=128),
    Message('note_on', channel=9, note=51, velocity=100, time=64),
    Message('note_off', channel=9, note=51, velocity=100, time=128),
    Message('note_on', channel=9, note=51, velocity=100, time=64),
    Message('note_off', channel=9, note=51, velocity=100, time=128),
    Message('note_on', channel=9, note=51, velocity=100, time=64),
    Message('note_off', channel=9, note=51, velocity=100, time=128),
    Message('note_on', channel=9, note=51, velocity=100, time=64),
    Message('note_off', channel=9, note=51, velocity=100, time=128),
    Message('note_on', channel=9, note=51, velocity=100, time=64),
    Message('note_off', channel=9, note=51, velocity=100, time=64),
    Message('note_on', channel=9, note=51, velocity=100, time=32),
    Message('note_off', channel=9, note=51, velocity=100, time=64),
    Message('note_on', channel=9, note=57, velocity=100, time=128),
    Message('note_off', channel=9, note=57, velocity=100, time=64),
    Message('note_on', channel=9, note=51, velocity=100, time=224),
    Message('note_off', channel=9, note=51, velocity=100, time=128),
    Message('note_on', channel=9, note=51, velocity=100, time=64),
    Message('note_off', channel=9, note=51, velocity=100, time=128),
    Message('note_on', channel=9, note=51, velocity=100, time=64),
    Message('note_off', channel=9, note=51, velocity=100, time=128),
    Message('note_on', channel=9, note=51, velocity=100, time=64),
    Message('note_off', channel=9, note=51, velocity=100, time=128),
    Message('note_on', channel=9, note=51, velocity=100, time=64),
    Message('note_off', channel=9, note=51, velocity=100, time=128),
    Message('note_on', channel=9, note=51, velocity=100, time=64),
    Message('note_off', channel=9, note=51, velocity=100, time=64),
    Message('note_on', channel=9, note=51, velocity=100, time=32),
    Message('note_off', channel=9, note=51, velocity=100, time=64),
    Message('note_on', channel=9, note=57, velocity=100, time=128),
    Message('note_off', channel=9, note=57, velocity=100, time=64),
    Message('note_on', channel=9, note=51, velocity=100, time=224),
    Message('note_off', channel=9, note=51, velocity=100, time=128),
    Message('note_on', channel=9, note=51, velocity=100, time=64),
    Message('note_off', channel=9, note=51, velocity=100, time=128),
    Message('note_on', channel=9, note=51, velocity=100, time=64),
    Message('note_off', channel=9, note=51, velocity=100, time=128),
    Message('note_on', channel=9, note=51, velocity=100, time=64),
    Message('note_off', channel=9, note=51, velocity=100, time=128),
    Message('note_on', channel=9, note=51, velocity=100, time=64),
    Message('note_off', channel=9, note=51, velocity=100, time=128),
    Message('note_on', channel=9, note=51, velocity=100, time=64),
    Message('note_off', channel=9, note=51, velocity=100, time=64),
    Message('note_on', channel=9, note=51, velocity=100, time=32),
    Message('note_off', channel=9, note=51, velocity=100, time=64),
    Message('note_on', channel=9, note=57, velocity=100, time=128),
    Message('note_off', channel=9, note=57, velocity=100, time=64),
    Message('note_on', channel=9, note=51, velocity=100, time=224),
    Message('note_off', channel=9, note=51, velocity=100, time=128),
    Message('note_on', channel=9, note=51, velocity=100, time=64),
    Message('note_off', channel=9, note=51, velocity=100, time=128),
    Message('note_on', channel=9, note=51, velocity=100, time=64),
    Message('note_on', channel=9, note=57, velocity=100, time=96),
    Message('note_off', channel=9, note=51, velocity=100, time=32),
    Message('note_off', channel=9, note=57, velocity=100, time=32),
    Message('note_on', channel=9, note=51, velocity=100, time=224),
    Message('note_off', channel=9, note=51, velocity=100, time=128),
    Message('note_on', channel=9, note=51, velocity=100, time=64),
    Message('note_off', channel=9, note=51, velocity=100, time=64),
    Message('note_on', channel=9, note=57, velocity=100, time=32),
    Message('note_off', channel=9, note=57, velocity=100, time=64),
    Message('note_on', channel=9, note=57, velocity=100, time=128),
    Message('note_off', channel=9, note=57, velocity=100, time=64),
    Message('note_on', channel=9, note=51, velocity=100, time=224),
    Message('note_off', channel=9, note=51, velocity=100, time=128),
    Message('note_on', channel=9, note=51, velocity=100, time=64),
    Message('note_off', channel=9, note=51, velocity=100, time=128),
    Message('note_on', channel=9, note=51, velocity=100, time=64),
    Message('note_off', channel=9, note=51, velocity=100, time=128),
    Message('note_on', channel=9, note=51, velocity=100, time=64),
    Message('note_off', channel=9, note=51, velocity=100, time=128),
    Message('note_on', channel=9, note=51, velocity=100, time=64),
    Message('note_off', channel=9, note=51, velocity=100, time=128),
    Message('note_on', channel=9, note=51, velocity=100, time=64),
    Message('note_off', channel=9, note=51, velocity=100, time=64),
    Message('note_on', channel=9, note=51, velocity=100, time=32),
    Message('note_off', channel=9, note=51, velocity=100, time=64),
    Message('note_on', channel=9, note=57, velocity=100, time=128),
    Message('note_off', channel=9, note=57, velocity=100, time=64),
    Message('note_on', channel=9, note=51, velocity=100, time=224),
    Message('note_off', channel=9, note=51, velocity=100, time=128),
    Message('note_on', channel=9, note=51, velocity=100, time=64),
    Message('note_off', channel=9, note=51, velocity=100, time=128),
    Message('note_on', channel=9, note=51, velocity=100, time=64),
    Message('note_off', channel=9, note=51, velocity=100, time=128),
    Message('note_on', channel=9, note=51, velocity=100, time=64),
    Message('note_off', channel=9, note=51, velocity=100, time=128),
    Message('note_on', channel=9, note=51, velocity=100, time=64),
    Message('note_off', channel=9, note=51, velocity=100, time=128),
    Message('note_on', channel=9, note=51, velocity=100, time=64),
    Message('note_off', channel=9, note=51, velocity=100, time=64),
    Message('note_on', channel=9, note=51, velocity=100, time=32),
    Message('note_off', channel=9, note=51, velocity=100, time=64),
    Message('note_on', channel=9, note=57, velocity=100, time=128),
    Message('note_off', channel=9, note=57, velocity=100, time=64),
    Message('note_on', channel=9, note=51, velocity=100, time=224),
    Message('note_off', channel=9, note=51, velocity=100, time=128),
    Message('note_on', channel=9, note=51, velocity=100, time=64),
    Message('note_off', channel=9, note=51, velocity=100, time=128),
    Message('note_on', channel=9, note=51, velocity=100, time=64),
    Message('note_off', channel=9, note=51, velocity=100, time=128),
    Message('note_on', channel=9, note=51, velocity=100, time=64),
    Message('note_off', channel=9, note=51, velocity=100, time=128),
    Message('note_on', channel=9, note=51, velocity=100, time=64),
    Message('note_off', channel=9, note=51, velocity=100, time=128),
    Message('note_on', channel=9, note=51, velocity=100, time=64),
    Message('note_off', channel=9, note=51, velocity=100, time=64),
    Message('note_on', channel=9, note=51, velocity=100, time=32),
    Message('note_off', channel=9, note=51, velocity=100, time=64),
    Message('note_on', channel=9, note=57, velocity=100, time=128),
    Message('note_off', channel=9, note=57, velocity=100, time=64),
    Message('note_on', channel=9, note=51, velocity=100, time=224),
    Message('note_off', channel=9, note=51, velocity=100, time=128),
    Message('note_on', channel=9, note=51, velocity=100, time=64),
    Message('note_off', channel=9, note=51, velocity=100, time=128),
    Message('note_on', channel=9, note=51, velocity=100, time=64),
    Message('note_off', channel=9, note=51, velocity=100, time=128),
    Message('note_on', channel=9, note=51, velocity=100, time=256),
    Message('note_off', channel=9, note=51, velocity=100, time=128),
    Message('note_on', channel=9, note=51, velocity=100, time=64),
    Message('note_off', channel=9, note=51, velocity=100, time=64),
    Message('note_on', channel=9, note=57, velocity=100, time=32),
    Message('note_off', channel=9, note=57, velocity=100, time=64),
    Message('note_on', channel=9, note=57, velocity=100, time=128),
    Message('note_off', channel=9, note=57, velocity=100, time=64),
    Message('note_on', channel=9, note=51, velocity=100, time=224),
    Message('note_off', channel=9, note=51, velocity=100, time=128),
    Message('note_on', channel=9, note=51, velocity=100, time=64),
    Message('note_off', channel=9, note=51, velocity=100, time=128),
    Message('note_on', channel=9, note=51, velocity=100, time=64),
    Message('note_off', channel=9, note=51, velocity=100, time=128),
    Message('note_on', channel=9, note=51, velocity=100, time=64),
    Message('note_off', channel=9, note=51, velocity=100, time=128),
    Message('note_on', channel=9, note=51, velocity=100, time=64),
    Message('note_off', channel=9, note=51, velocity=100, time=128),
    Message('note_on', channel=9, note=51, velocity=100, time=64),
    Message('note_off', channel=9, note=51, velocity=100, time=64),
    Message('note_on', channel=9, note=51, velocity=100, time=32),
    Message('note_off', channel=9, note=51, velocity=100, time=64),
    Message('note_on', channel=9, note=57, velocity=100, time=128),
    Message('note_off', channel=9, note=57, velocity=100, time=64),
    Message('note_on', channel=9, note=51, velocity=100, time=224),
    Message('note_off', channel=9, note=51, velocity=100, time=128),
    Message('note_on', channel=9, note=51, velocity=100, time=64),
    Message('note_off', channel=9, note=51, velocity=100, time=128),
    Message('note_on', channel=9, note=51, velocity=100, time=64),
    Message('note_off', channel=9, note=51, velocity=100, time=128),
    Message('note_on', channel=9, note=51, velocity=100, time=64),
    Message('note_off', channel=9, note=51, velocity=100, time=128),
    Message('note_on', channel=9, note=51, velocity=100, time=64),
    Message('note_off', channel=9, note=51, velocity=100, time=128),
    Message('note_on', channel=9, note=51, velocity=100, time=64),
    Message('note_off', channel=9, note=51, velocity=100, time=64),
    Message('note_on', channel=9, note=51, velocity=100, time=32),
    Message('note_off', channel=9, note=51, velocity=100, time=64),
    Message('note_on', channel=9, note=57, velocity=100, time=128),
    Message('note_off', channel=9, note=57, velocity=100, time=64),
    Message('note_on', channel=9, note=51, velocity=100, time=224),
    Message('note_off', channel=9, note=51, velocity=100, time=128),
    Message('note_on', channel=9, note=51, velocity=100, time=64),
    Message('note_off', channel=9, note=51, velocity=100, time=128),
    Message('note_on', channel=9, note=51, velocity=100, time=64),
    Message('note_off', channel=9, note=51, velocity=100, time=128),
    Message('note_on', channel=9, note=51, velocity=100, time=64),
    Message('note_off', channel=9, note=51, velocity=100, time=128),
    Message('note_on', channel=9, note=51, velocity=100, time=64),
    Message('note_off', channel=9, note=51, velocity=100, time=128),
    Message('note_on', channel=9, note=51, velocity=100, time=64),
    Message('note_off', channel=9, note=51, velocity=100, time=64),
    Message('note_on', channel=9, note=51, velocity=100, time=32),
    Message('note_off', channel=9, note=51, velocity=100, time=64),
    Message('note_on', channel=9, note=57, velocity=100, time=128),
    Message('note_off', channel=9, note=57, velocity=100, time=64),
    Message('note_on', channel=9, note=51, velocity=100, time=224),
    Message('note_off', channel=9, note=51, velocity=100, time=128),
    Message('note_on', channel=9, note=51, velocity=100, time=64),
    Message('note_off', channel=9, note=51, velocity=100, time=128),
    Message('note_on', channel=9, note=51, velocity=100, time=64),
    Message('note_off', channel=9, note=51, velocity=100, time=128),
    Message('note_on', channel=9, note=51, velocity=100, time=256),
    Message('note_off', channel=9, note=51, velocity=100, time=128),
    Message('note_on', channel=9, note=51, velocity=100, time=64),
    Message('note_off', channel=9, note=51, velocity=100, time=64),
    Message('note_on', channel=9, note=57, velocity=100, time=32),
    Message('note_off', channel=9, note=57, velocity=100, time=64),
    Message('note_on', channel=9, note=57, velocity=100, time=128),
    Message('note_off', channel=9, note=57, velocity=100, time=64),
    Message('note_on', channel=9, note=51, velocity=100, time=224),
    Message('note_off', channel=9, note=51, velocity=100, time=128),
    Message('note_on', channel=9, note=51, velocity=100, time=64),
    Message('note_off', channel=9, note=51, velocity=100, time=128),
    Message('note_on', channel=9, note=51, velocity=100, time=64),
    Message('note_off', channel=9, note=51, velocity=100, time=128),
    Message('note_on', channel=9, note=51, velocity=100, time=64),
    Message('note_off', channel=9, note=51, velocity=100, time=128),
    Message('note_on', channel=9, note=51, velocity=100, time=64),
    Message('note_off', channel=9, note=51, velocity=100, time=128),
    Message('note_on', channel=9, note=51, velocity=100, time=64),
    Message('note_off', channel=9, note=51, velocity=100, time=64),
    Message('note_on', channel=9, note=51, velocity=100, time=32),
    Message('note_off', channel=9, note=51, velocity=100, time=64),
    Message('note_on', channel=9, note=57, velocity=100, time=128),
    Message('note_off', channel=9, note=57, velocity=100, time=64),
    Message('note_on', channel=9, note=51, velocity=100, time=224),
    Message('note_off', channel=9, note=51, velocity=100, time=128),
    Message('note_on', channel=9, note=51, velocity=100, time=64),
    Message('note_off', channel=9, note=51, velocity=100, time=128),
    Message('note_on', channel=9, note=51, velocity=100, time=64),
    Message('note_off', channel=9, note=51, velocity=100, time=128),
    Message('note_on', channel=9, note=51, velocity=100, time=64),
    Message('note_off', channel=9, note=51, velocity=100, time=128),
    Message('note_on', channel=9, note=51, velocity=100, time=64),
    Message('note_off', channel=9, note=51, velocity=100, time=128),
    Message('note_on', channel=9, note=51, velocity=100, time=64),
    Message('note_off', channel=9, note=51, velocity=100, time=64),
    Message('note_on', channel=9, note=51, velocity=100, time=32),
    Message('note_off', channel=9, note=51, velocity=100, time=64),
    Message('note_on', channel=9, note=57, velocity=100, time=128),
    Message('note_off', channel=9, note=57, velocity=100, time=64),
    Message('note_on', channel=9, note=51, velocity=100, time=224),
    Message('note_off', channel=9, note=51, velocity=100, time=128),
    Message('note_on', channel=9, note=51, velocity=100, time=64),
    Message('note_off', channel=9, note=51, velocity=100, time=128),
    Message('note_on', channel=9, note=51, velocity=100, time=64),
    Message('note_off', channel=9, note=51, velocity=100, time=128),
    Message('note_on', channel=9, note=51, velocity=100, time=64),
    Message('note_off', channel=9, note=51, velocity=100, time=128),
    Message('note_on', channel=9, note=51, velocity=100, time=64),
    Message('note_off', channel=9, note=51, velocity=100, time=128),
    Message('note_on', channel=9, note=51, velocity=100, time=64),
    Message('note_off', channel=9, note=51, velocity=100, time=64),
    Message('note_on', channel=9, note=51, velocity=100, time=32),
    Message('note_off', channel=9, note=51, velocity=100, time=64),
    Message('note_on', channel=9, note=57, velocity=100, time=128),
    Message('note_off', channel=9, note=57, velocity=100, time=64),
    Message('note_on', channel=9, note=51, velocity=100, time=224),
    Message('note_off', channel=9, note=51, velocity=100, time=128),
    Message('note_on', channel=9, note=51, velocity=100, time=64),
    Message('note_off', channel=9, note=51, velocity=100, time=128),
    Message('note_on', channel=9, note=51, velocity=100, time=64),
    Message('note_off', channel=9, note=51, velocity=100, time=128),
    Message('note_on', channel=9, note=51, velocity=100, time=256),
    Message('note_off', channel=9, note=51, velocity=100, time=128),
    Message('note_on', channel=9, note=51, velocity=100, time=64),
    Message('note_off', channel=9, note=51, velocity=100, time=64),
    Message('note_on', channel=9, note=57, velocity=100, time=32),
    Message('note_off', channel=9, note=57, velocity=100, time=64),
    Message('note_on', channel=9, note=57, velocity=100, time=128),
    Message('note_off', channel=9, note=57, velocity=100, time=64),
    Message('note_on', channel=9, note=51, velocity=100, time=224),
    Message('note_off', channel=9, note=51, velocity=100, time=128),
    Message('note_on', channel=9, note=51, velocity=100, time=64),
    Message('note_off', channel=9, note=51, velocity=100, time=128),
    Message('note_on', channel=9, note=51, velocity=100, time=64),
    Message('note_off', channel=9, note=51, velocity=100, time=128),
    Message('note_on', channel=9, note=51, velocity=100, time=64),
    Message('note_off', channel=9, note=51, velocity=100, time=128),
    Message('note_on', channel=9, note=51, velocity=100, time=64),
    Message('note_off', channel=9, note=51, velocity=100, time=128),
    Message('note_on', channel=9, note=51, velocity=100, time=64),
    Message('note_off', channel=9, note=51, velocity=100, time=64),
    Message('note_on', channel=9, note=51, velocity=100, time=32),
    Message('note_off', channel=9, note=51, velocity=100, time=64),
    Message('note_on', channel=9, note=57, velocity=100, time=128),
    Message('note_off', channel=9, note=57, velocity=100, time=64),
    Message('note_on', channel=9, note=51, velocity=100, time=224),
    Message('note_off', channel=9, note=51, velocity=100, time=128),
    Message('note_on', channel=9, note=51, velocity=100, time=64),
    Message('note_off', channel=9, note=51, velocity=100, time=128),
    Message('note_on', channel=9, note=51, velocity=100, time=64),
    Message('note_off', channel=9, note=51, velocity=100, time=128),
    Message('note_on', channel=9, note=51, velocity=100, time=64),
    Message('note_off', channel=9, note=51, velocity=100, time=128),
    Message('note_on', channel=9, note=51, velocity=100, time=64),
    Message('note_off', channel=9, note=51, velocity=100, time=128),
    Message('note_on', channel=9, note=51, velocity=100, time=64),
    Message('note_off', channel=9, note=51, velocity=100, time=64),
    Message('note_on', channel=9, note=51, velocity=100, time=32),
    Message('note_off', channel=9, note=51, velocity=100, time=64),
    Message('note_on', channel=9, note=57, velocity=100, time=128),
    Message('note_off', channel=9, note=57, velocity=100, time=64),
    Message('note_on', channel=9, note=51, velocity=100, time=224),
    Message('note_off', channel=9, note=51, velocity=100, time=128),
    Message('note_on', channel=9, note=51, velocity=100, time=64),
    Message('note_off', channel=9, note=51, velocity=100, time=128),
    Message('note_on', channel=9, note=51, velocity=100, time=64),
    Message('note_off', channel=9, note=51, velocity=100, time=128),
    Message('note_on', channel=9, note=51, velocity=100, time=64),
    Message('note_off', channel=9, note=51, velocity=100, time=128),
    Message('note_on', channel=9, note=51, velocity=100, time=64),
    Message('note_off', channel=9, note=51, velocity=100, time=128),
    Message('note_on', channel=9, note=51, velocity=100, time=64),
    Message('note_off', channel=9, note=51, velocity=100, time=64),
    Message('note_on', channel=9, note=51, velocity=100, time=32),
    Message('note_off', channel=9, note=51, velocity=100, time=64),
    Message('note_on', channel=9, note=57, velocity=100, time=128),
    Message('note_off', channel=9, note=57, velocity=100, time=64),
    Message('note_on', channel=9, note=51, velocity=100, time=224),
    Message('note_off', channel=9, note=51, velocity=100, time=128),
    Message('note_on', channel=9, note=51, velocity=100, time=64),
    Message('note_off', channel=9, note=51, velocity=100, time=128),
    Message('note_on', channel=9, note=51, velocity=100, time=64),
    Message('note_off', channel=9, note=51, velocity=100, time=128),
    Message('note_on', channel=9, note=51, velocity=100, time=256),
    Message('note_off', channel=9, note=51, velocity=100, time=128),
    Message('note_on', channel=9, note=51, velocity=100, time=64),
    Message('note_off', channel=9, note=51, velocity=100, time=64),
    Message('note_on', channel=9, note=57, velocity=100, time=32),
    Message('note_off', channel=9, note=57, velocity=100, time=64),
    Message('note_on', channel=9, note=57, velocity=100, time=128),
    Message('note_off', channel=9, note=57, velocity=100, time=64),
    Message('note_on', channel=9, note=51, velocity=100, time=224),
    Message('note_off', channel=9, note=51, velocity=100, time=128),
    Message('note_on', channel=9, note=51, velocity=100, time=64),
    Message('note_off', channel=9, note=51, velocity=100, time=128),
    Message('note_on', channel=9, note=51, velocity=100, time=64),
    Message('note_off', channel=9, note=51, velocity=100, time=128),
    Message('note_on', channel=9, note=51, velocity=100, time=64),
    Message('note_off', channel=9, note=51, velocity=100, time=128),
    Message('note_on', channel=9, note=51, velocity=100, time=64),
    Message('note_off', channel=9, note=51, velocity=100, time=128),
    Message('note_on', channel=9, note=51, velocity=100, time=64),
    Message('note_off', channel=9, note=51, velocity=100, time=128),
    Message('note_on', channel=9, note=51, velocity=100, time=64),
    Message('note_on', channel=9, note=57, velocity=100, time=96),
    Message('note_off', channel=9, note=51, velocity=100, time=32),
    Message('note_off', channel=9, note=57, velocity=100, time=32),
    Message('note_on', channel=9, note=51, velocity=100, time=224),
    Message('note_off', channel=9, note=51, velocity=100, time=128),
    Message('note_on', channel=9, note=51, velocity=100, time=64),
    Message('note_off', channel=9, note=51, velocity=100, time=128),
    Message('note_on', channel=9, note=51, velocity=100, time=64),
    Message('note_off', channel=9, note=51, velocity=100, time=128),
    Message('note_on', channel=9, note=51, velocity=100, time=64),
    Message('note_off', channel=9, note=51, velocity=100, time=128),
    Message('note_on', channel=9, note=51, velocity=100, time=64),
    Message('note_off', channel=9, note=51, velocity=100, time=128),
    Message('note_on', channel=9, note=51, velocity=100, time=64),
    Message('note_off', channel=9, note=51, velocity=100, time=128),
    Message('note_on', channel=9, note=51, velocity=100, time=64),
    Message('note_on', channel=9, note=57, velocity=100, time=96),
    Message('note_off', channel=9, note=51, velocity=100, time=32),
    Message('note_off', channel=9, note=57, velocity=100, time=32),
    Message('note_on', channel=9, note=51, velocity=100, time=224),
    Message('note_off', channel=9, note=51, velocity=100, time=128),
    Message('note_on', channel=9, note=51, velocity=100, time=64),
    Message('note_off', channel=9, note=51, velocity=100, time=128),
    Message('note_on', channel=9, note=51, velocity=100, time=64),
    Message('note_off', channel=9, note=51, velocity=100, time=128),
    Message('note_on', channel=9, note=51, velocity=100, time=64),
    Message('note_off', channel=9, note=51, velocity=100, time=128),
    Message('note_on', channel=9, note=51, velocity=100, time=64),
    Message('note_off', channel=9, note=51, velocity=100, time=128),
    Message('note_on', channel=9, note=51, velocity=100, time=64),
    Message('note_off', channel=9, note=51, velocity=100, time=128),
    Message('note_on', channel=9, note=51, velocity=100, time=64),
    Message('note_on', channel=9, note=57, velocity=100, time=96),
    Message('note_off', channel=9, note=51, velocity=100, time=32),
    Message('note_off', channel=9, note=57, velocity=100, time=32),
    Message('note_on', channel=9, note=51, velocity=100, time=224),
    Message('note_off', channel=9, note=51, velocity=100, time=128),
    Message('note_on', channel=9, note=51, velocity=100, time=64),
    Message('note_off', channel=9, note=51, velocity=100, time=128),
    Message('note_on', channel=9, note=57, velocity=100, time=160),
    Message('note_off', channel=9, note=57, velocity=100, time=32),
    Message('note_on', channel=9, note=50, velocity=100, time=256),
    Message('note_off', channel=9, note=50, velocity=100, time=128),
    Message('note_on', channel=9, note=57, velocity=100, time=160),
    Message('note_off', channel=9, note=57, velocity=100, time=64),
    Message('note_on', channel=9, note=57, velocity=100, time=128),
    Message('note_off', channel=9, note=57, velocity=100, time=64),
    Message('note_on', channel=9, note=51, velocity=100, time=224),
    Message('note_off', channel=9, note=51, velocity=100, time=128),
    Message('note_on', channel=9, note=51, velocity=100, time=64),
    Message('note_off', channel=9, note=51, velocity=100, time=128),
    Message('note_on', channel=9, note=51, velocity=100, time=64),
    Message('note_off', channel=9, note=51, velocity=100, time=128),
    Message('note_on', channel=9, note=51, velocity=100, time=64),
    Message('note_off', channel=9, note=51, velocity=100, time=128),
    Message('note_on', channel=9, note=51, velocity=100, time=64),
    Message('note_off', channel=9, note=51, velocity=100, time=128),
    Message('note_on', channel=9, note=51, velocity=100, time=64),
    Message('note_off', channel=9, note=51, velocity=100, time=128),
    Message('note_on', channel=9, note=51, velocity=100, time=64),
    Message('note_on', channel=9, note=57, velocity=100, time=96),
    Message('note_off', channel=9, note=51, velocity=100, time=32),
    Message('note_off', channel=9, note=57, velocity=100, time=32),
    Message('note_on', channel=9, note=51, velocity=100, time=224),
    Message('note_off', channel=9, note=51, velocity=100, time=128),
    Message('note_on', channel=9, note=51, velocity=100, time=64),
    Message('note_off', channel=9, note=51, velocity=100, time=128),
    Message('note_on', channel=9, note=51, velocity=100, time=64),
    Message('note_off', channel=9, note=51, velocity=100, time=128),
    Message('note_on', channel=9, note=51, velocity=100, time=64),
    Message('note_off', channel=9, note=51, velocity=100, time=128),
    Message('note_on', channel=9, note=51, velocity=100, time=64),
    Message('note_off', channel=9, note=51, velocity=100, time=128),
    Message('note_on', channel=9, note=51, velocity=100, time=64),
    Message('note_off', channel=9, note=51, velocity=100, time=128),
    Message('note_on', channel=9, note=51, velocity=100, time=64),
    Message('note_on', channel=9, note=57, velocity=100, time=96),
    Message('note_off', channel=9, note=51, velocity=100, time=32),
    Message('note_off', channel=9, note=57, velocity=100, time=32),
    Message('note_on', channel=9, note=51, velocity=100, time=224),
    Message('note_off', channel=9, note=51, velocity=100, time=128),
    Message('note_on', channel=9, note=51, velocity=100, time=64),
    Message('note_off', channel=9, note=51, velocity=100, time=128),
    Message('note_on', channel=9, note=51, velocity=100, time=64),
    Message('note_off', channel=9, note=51, velocity=100, time=128),
    Message('note_on', channel=9, note=51, velocity=100, time=64),
    Message('note_off', channel=9, note=51, velocity=100, time=128),
    Message('note_on', channel=9, note=51, velocity=100, time=64),
    Message('note_off', channel=9, note=51, velocity=100, time=128),
    Message('note_on', channel=9, note=51, velocity=100, time=64),
    Message('note_off', channel=9, note=51, velocity=100, time=128),
    Message('note_on', channel=9, note=51, velocity=100, time=64),
    Message('note_on', channel=9, note=57, velocity=100, time=96),
    Message('note_off', channel=9, note=51, velocity=100, time=32),
    Message('note_off', channel=9, note=57, velocity=100, time=32),
    Message('note_on', channel=9, note=51, velocity=100, time=224),
    Message('note_off', channel=9, note=51, velocity=100, time=128),
    Message('note_on', channel=9, note=51, velocity=100, time=64),
    Message('note_off', channel=9, note=51, velocity=100, time=128),
    Message('note_on', channel=9, note=57, velocity=100, time=160),
    Message('note_off', channel=9, note=57, velocity=100, time=32),
    Message('note_on', channel=9, note=50, velocity=100, time=256),
    Message('note_off', channel=9, note=50, velocity=100, time=128),
    Message('note_on', channel=9, note=57, velocity=100, time=160),
    Message('note_off', channel=9, note=57, velocity=100, time=64),
    Message('note_on', channel=9, note=57, velocity=100, time=128),
    Message('note_off', channel=9, note=57, velocity=100, time=64),
    Message('note_on', channel=9, note=57, velocity=100, time=6080),
    Message('note_off', channel=9, note=57, velocity=100, time=64),
    Message('note_on', channel=9, note=57, velocity=100, time=12224),
    Message('note_off', channel=9, note=57, velocity=100, time=64),
    Message('note_on', channel=9, note=57, velocity=100, time=1472),
    Message('note_off', channel=9, note=57, velocity=100, time=64),
    Message('note_on', channel=9, note=57, velocity=100, time=1472),
    Message('note_off', channel=9, note=57, velocity=100, time=64),
    Message('note_on', channel=9, note=57, velocity=100, time=3008),
    Message('note_off', channel=9, note=57, velocity=100, time=64),
    Message('note_on', channel=9, note=57, velocity=100, time=704),
    Message('note_off', channel=9, note=57, velocity=100, time=64),
    Message('note_on', channel=9, note=57, velocity=100, time=704),
    Message('note_off', channel=9, note=57, velocity=100, time=64),
    Message('note_on', channel=9, note=57, velocity=100, time=704),
    Message('note_off', channel=9, note=57, velocity=100, time=64),
    Message('note_on', channel=9, note=57, velocity=100, time=320),
    Message('note_off', channel=9, note=57, velocity=100, time=64),
    Message('note_on', channel=9, note=57, velocity=100, time=320),
    Message('note_off', channel=9, note=57, velocity=100, time=64),
    Message('note_on', channel=9, note=57, velocity=100, time=704),
    Message('note_off', channel=9, note=57, velocity=100, time=64),
    Message('note_on', channel=9, note=57, velocity=100, time=704),
    Message('note_off', channel=9, note=57, velocity=100, time=64),
    Message('note_on', channel=9, note=50, velocity=100, time=320),
    Message('note_off', channel=9, note=50, velocity=100, time=64),
    Message('note_on', channel=9, note=50, velocity=100, time=32),
    Message('note_off', channel=9, note=50, velocity=100, time=64),
    Message('note_on', channel=9, note=48, velocity=100, time=32),
    Message('note_off', channel=9, note=48, velocity=100, time=64),
    Message('note_on', channel=9, note=48, velocity=100, time=32),
    Message('note_off', channel=9, note=48, velocity=100, time=64),
    Message('note_on', channel=9, note=57, velocity=100, time=800),
    Message('note_off', channel=9, note=57, velocity=100, time=64),
    MetaMessage('end_of_track', time=500)]),
  MidiTrack([
    MetaMessage('track_name', name='Harm Guitar: Channel 1', time=0),
    MetaMessage('device_name', name='None', time=0),
    Message('control_change', channel=1, control=7, value=127, time=0),
    Message('program_change', channel=1, program=30, time=0),
    Message('control_change', channel=1, control=0, value=0, time=0),
    Message('note_on', channel=1, note=59, velocity=102, time=192),
    Message('note_off', channel=1, note=59, velocity=102, time=64),
    Message('note_on', channel=1, note=59, velocity=102, time=32),
    Message('note_off', channel=1, note=59, velocity=102, time=64),
    Message('note_on', channel=1, note=59, velocity=102, time=32),
    Message('note_off', channel=1, note=59, velocity=102, time=64),
    Message('note_on', channel=1, note=59, velocity=102, time=32),
    Message('note_off', channel=1, note=59, velocity=102, time=64),
    Message('note_on', channel=1, note=59, velocity=102, time=32),
    Message('note_off', channel=1, note=59, velocity=102, time=64),
    Message('note_on', channel=1, note=59, velocity=102, time=32),
    Message('note_off', channel=1, note=59, velocity=102, time=64),
    Message('note_on', channel=1, note=69, velocity=102, time=32),
    Message('note_off', channel=1, note=69, velocity=102, time=64),
    Message('note_on', channel=1, note=59, velocity=102, time=32),
    Message('note_off', channel=1, note=59, velocity=102, time=64),
    Message('note_on', channel=1, note=59, velocity=102, time=32),
    Message('note_off', channel=1, note=59, velocity=102, time=64),
    Message('note_on', channel=1, note=74, velocity=102, time=32),
    Message('note_off', channel=1, note=74, velocity=102, time=64),
    Message('note_on', channel=1, note=59, velocity=102, time=32),
    Message('note_off', channel=1, note=59, velocity=102, time=64),
    Message('note_on', channel=1, note=59, velocity=102, time=512),
    Message('note_off', channel=1, note=59, velocity=102, time=64),
    Message('note_on', channel=1, note=59, velocity=102, time=32),
    Message('note_off', channel=1, note=59, velocity=102, time=64),
    Message('note_on', channel=1, note=59, velocity=102, time=32),
    Message('note_off', channel=1, note=59, velocity=102, time=64),
    Message('note_on', channel=1, note=59, velocity=102, time=32),
    Message('note_off', channel=1, note=59, velocity=102, time=64),
    Message('note_on', channel=1, note=59, velocity=102, time=32),
    Message('note_off', channel=1, note=59, velocity=102, time=64),
    Message('note_on', channel=1, note=59, velocity=102, time=32),
    Message('note_off', channel=1, note=59, velocity=102, time=64),
    Message('note_on', channel=1, note=69, velocity=102, time=32),
    Message('note_off', channel=1, note=69, velocity=102, time=64),
    Message('note_on', channel=1, note=59, velocity=102, time=32),
    Message('note_off', channel=1, note=59, velocity=102, time=64),
    Message('note_on', channel=1, note=59, velocity=102, time=32),
    Message('note_off', channel=1, note=59, velocity=102, time=64),
    Message('note_on', channel=1, note=74, velocity=102, time=32),
    Message('note_off', channel=1, note=74, velocity=102, time=64),
    Message('note_on', channel=1, note=59, velocity=102, time=32),
    Message('note_off', channel=1, note=59, velocity=102, time=64),
    Message('note_on', channel=1, note=59, velocity=102, time=32),
    Message('note_off', channel=1, note=59, velocity=102, time=64),
    Message('note_on', channel=1, note=69, velocity=102, time=32),
    Message('note_off', channel=1, note=69, velocity=102, time=64),
    Message('note_on', channel=1, note=59, velocity=102, time=320),
    Message('note_off', channel=1, note=59, velocity=102, time=64),
    Message('note_on', channel=1, note=59, velocity=102, time=32),
    Message('note_off', channel=1, note=59, velocity=102, time=64),
    Message('note_on', channel=1, note=59, velocity=102, time=32),
    Message('note_off', channel=1, note=59, velocity=102, time=64),
    Message('note_on', channel=1, note=59, velocity=102, time=32),
    Message('note_off', channel=1, note=59, velocity=102, time=64),
    Message('note_on', channel=1, note=59, velocity=102, time=32),
    Message('note_off', channel=1, note=59, velocity=102, time=64),
    Message('note_on', channel=1, note=59, velocity=102, time=32),
    Message('note_off', channel=1, note=59, velocity=102, time=64),
    Message('note_on', channel=1, note=69, velocity=102, time=32),
    Message('note_off', channel=1, note=69, velocity=102, time=64),
    Message('note_on', channel=1, note=59, velocity=102, time=32),
    Message('note_off', channel=1, note=59, velocity=102, time=64),
    Message('note_on', channel=1, note=59, velocity=102, time=32),
    Message('note_off', channel=1, note=59, velocity=102, time=64),
    Message('note_on', channel=1, note=74, velocity=102, time=32),
    Message('note_off', channel=1, note=74, velocity=102, time=64),
    Message('note_on', channel=1, note=59, velocity=102, time=32),
    Message('note_off', channel=1, note=59, velocity=102, time=64),
    Message('note_on', channel=1, note=59, velocity=102, time=512),
    Message('note_off', channel=1, note=59, velocity=102, time=64),
    Message('note_on', channel=1, note=59, velocity=102, time=32),
    Message('note_off', channel=1, note=59, velocity=102, time=64),
    Message('note_on', channel=1, note=59, velocity=102, time=32),
    Message('note_off', channel=1, note=59, velocity=102, time=64),
    Message('note_on', channel=1, note=59, velocity=102, time=32),
    Message('note_off', channel=1, note=59, velocity=102, time=64),
    Message('note_on', channel=1, note=59, velocity=102, time=32),
    Message('note_off', channel=1, note=59, velocity=102, time=64),
    Message('note_on', channel=1, note=59, velocity=102, time=32),
    Message('note_off', channel=1, note=59, velocity=102, time=64),
    Message('note_on', channel=1, note=69, velocity=102, time=32),
    Message('note_off', channel=1, note=69, velocity=102, time=64),
    Message('note_on', channel=1, note=59, velocity=102, time=32),
    Message('note_off', channel=1, note=59, velocity=102, time=64),
    Message('note_on', channel=1, note=59, velocity=102, time=32),
    Message('note_off', channel=1, note=59, velocity=102, time=64),
    Message('note_on', channel=1, note=74, velocity=102, time=32),
    Message('note_off', channel=1, note=74, velocity=102, time=64),
    Message('note_on', channel=1, note=59, velocity=102, time=32),
    Message('note_off', channel=1, note=59, velocity=102, time=64),
    MetaMessage('end_of_track', time=500)]),
  MidiTrack([
    MetaMessage('track_name', name='Tornado of souls: Channel 1', time=0),
    MetaMessage('device_name', name='None', time=0),
    Message('control_change', channel=1, control=7, value=127, time=0),
    Message('program_change', channel=1, program=30, time=0),
    MetaMessage('end_of_track', time=500)]),
  MidiTrack([
    MetaMessage('track_name', name='by Megadeth: Channel 1', time=0),
    MetaMessage('device_name', name='None', time=0),
    Message('control_change', channel=1, control=7, value=127, time=0),
    Message('program_change', channel=1, program=30, time=0),
    MetaMessage('end_of_track', time=500)]),
  MidiTrack([
    MetaMessage('track_name', name='1996, Joddy Ari Krisnadi: Channel 1', time=0),
    MetaMessage('device_name', name='None', time=0),
    Message('control_change', channel=1, control=7, value=127, time=0),
    Message('program_change', channel=1, program=30, time=0),
    MetaMessage('end_of_track', time=500)])
])
