MidiFile(type=0, ticks_per_beat=96, tracks=[
  MidiTrack([
    MetaMessage('sequencer_specific', data=(0, 0, 65), time=0),
    MetaMessage('track_name', name='Come Together', time=0),
    MetaMessage('copyright', text='(C)1993 by Edirol   ', time=0),
    MetaMessage('time_signature', numerator=4, denominator=4, clocks_per_click=24, notated_32nd_notes_per_beat=8, time=0),
    MetaMessage('set_tempo', tempo=705882, time=0),
    Message('sysex', data=(65, 16, 66, 18, 64, 0, 127, 0, 65), time=0),
    Message('control_change', channel=0, control=121, value=0, time=80),
    Message('control_change', channel=1, control=121, value=0, time=1),
    Message('control_change', channel=2, control=121, value=0, time=1),
    Message('control_change', channel=3, control=121, value=0, time=1),
    Message('control_change', channel=4, control=121, value=0, time=1),
    Message('control_change', channel=5, control=121, value=0, time=1),
    Message('control_change', channel=6, control=121, value=0, time=1),
    Message('control_change', channel=7, control=121, value=0, time=1),
    Message('control_change', channel=8, control=121, value=0, time=1),
    Message('control_change', channel=9, control=121, value=0, time=1),
    Message('control_change', channel=0, control=0, value=0, time=7),
    Message('control_change', channel=0, control=32, value=0, time=1),
    Message('program_change', channel=0, program=5, time=1),
    Message('control_change', channel=0, control=7, value=110, time=1),
    Message('control_change', channel=0, control=10, value=94, time=0),
    Message('control_change', channel=0, control=11, value=127, time=0),
    Message('control_change', channel=0, control=91, value=70, time=1),
    Message('control_change', channel=0, control=93, value=120, time=0),
    Message('control_change', channel=1, control=0, value=0, time=1),
    Message('control_change', channel=1, control=32, value=0, time=1),
    Message('program_change', channel=1, program=33, time=1),
    Message('control_change', channel=1, control=7, value=110, time=1),
    Message('control_change', channel=1, control=10, value=64, time=0),
    Message('control_change', channel=1, control=11, value=120, time=0),
    Message('control_change', channel=1, control=91, value=50, time=1),
    Message('control_change', channel=1, control=93, value=70, time=0),
    Message('control_change', channel=2, control=0, value=0, time=1),
    Message('control_change', channel=2, control=32, value=0, time=1),
    Message('program_change', channel=2, program=30, time=1),
    Message('control_change', channel=2, control=7, value=110, time=1),
    Message('control_change', channel=2, control=10, value=44, time=0),
    Message('control_change', channel=2, control=11, value=90, time=0),
    Message('control_change', channel=2, control=91, value=127, time=1),
    Message('control_change', channel=2, control=93, value=70, time=0),
    Message('control_change', channel=3, control=0, value=0, time=1),
    Message('control_change', channel=3, control=32, value=0, time=1),
    Message('program_change', channel=3, program=66, time=1),
    Message('control_change', channel=3, control=7, value=110, time=1),
    Message('control_change', channel=3, control=10, value=64, time=0),
    Message('control_change', channel=3, control=11, value=127, time=0),
    Message('control_change', channel=3, control=91, value=127, time=1),
    Message('control_change', channel=3, control=93, value=40, time=0),
    Message('control_change', channel=4, control=0, value=0, time=1),
    Message('control_change', channel=4, control=32, value=0, time=1),
    Message('program_change', channel=4, program=29, time=1),
    Message('control_change', channel=4, control=7, value=110, time=1),
    Message('control_change', channel=4, control=10, value=24, time=0),
    Message('control_change', channel=4, control=11, value=110, time=0),
    Message('control_change', channel=4, control=91, value=127, time=1),
    Message('control_change', channel=4, control=93, value=50, time=0),
    Message('control_change', channel=5, control=0, value=0, time=1),
    Message('control_change', channel=5, control=32, value=0, time=1),
    Message('program_change', channel=5, program=62, time=1),
    Message('control_change', channel=5, control=7, value=110, time=1),
    Message('control_change', channel=5, control=10, value=114, time=0),
    Message('control_change', channel=5, control=11, value=127, time=0),
    Message('control_change', channel=5, control=91, value=127, time=1),
    Message('control_change', channel=5, control=93, value=127, time=0),
    Message('control_change', channel=6, control=0, value=0, time=1),
    Message('control_change', channel=6, control=32, value=0, time=1),
    Message('program_change', channel=6, program=11, time=1),
    Message('control_change', channel=6, control=7, value=110, time=1),
    Message('control_change', channel=6, control=10, value=44, time=0),
    Message('control_change', channel=6, control=11, value=95, time=0),
    Message('control_change', channel=6, control=91, value=127, time=1),
    Message('control_change', channel=6, control=93, value=80, time=0),
    Message('control_change', channel=7, control=0, value=0, time=1),
    Message('control_change', channel=7, control=32, value=0, time=1),
    Message('program_change', channel=7, program=29, time=1),
    Message('control_change', channel=7, control=7, value=110, time=1),
    Message('control_change', channel=7, control=10, value=124, time=0),
    Message('control_change', channel=7, control=11, value=120, time=0),
    Message('control_change', channel=7, control=91, value=127, time=1),
    Message('control_change', channel=7, control=93, value=80, time=0),
    Message('control_change', channel=8, control=0, value=0, time=1),
    Message('control_change', channel=8, control=32, value=0, time=1),
    Message('program_change', channel=8, program=17, time=1),
    Message('control_change', channel=8, control=7, value=110, time=1),
    Message('control_change', channel=8, control=10, value=64, time=0),
    Message('control_change', channel=8, control=11, value=60, time=0),
    Message('control_change', channel=8, control=93, value=127, time=1),
    Message('control_change', channel=9, control=0, value=0, time=1),
    Message('control_change', channel=9, control=32, value=0, time=1),
    Message('program_change', channel=9, program=0, time=1),
    Message('control_change', channel=9, control=7, value=110, time=1),
    Message('control_change', channel=9, control=10, value=64, time=0),
    Message('control_change', channel=9, control=11, value=120, time=0),
    Message('control_change', channel=9, control=91, value=127, time=1),
    Message('control_change', channel=9, control=93, value=20, time=0),
    Message('note_on', channel=1, note=26, velocity=125, time=239),
    Message('note_on', channel=9, note=35, velocity=127, time=0),
    Message('note_on', channel=9, note=49, velocity=126, time=0),
    Message('note_off', channel=9, note=35, velocity=64, time=0),
    Message('note_off', channel=9, note=49, velocity=64, time=0),
    Message('note_off', channel=1, note=26, velocity=64, time=24),
    Message('note_on', channel=1, note=26, velocity=126, time=24),
    Message('note_on', channel=9, note=35, velocity=127, time=0),
    Message('note_off', channel=9, note=35, velocity=64, time=0),
    Message('note_on', channel=0, note=55, velocity=89, time=48),
    Message('note_on', channel=1, note=31, velocity=126, time=0),
    Message('note_on', channel=2, note=55, velocity=110, time=0),
    Message('note_on', channel=9, note=46, velocity=126, time=0),
    Message('note_off', channel=1, note=26, velocity=64, time=0),
    Message('note_off', channel=9, note=46, velocity=64, time=0),
    Message('note_on', channel=9, note=46, velocity=122, time=16),
    Message('note_off', channel=9, note=46, velocity=64, time=0),
    Message('pitchwheel', channel=0, pitch=0, time=4),
    Message('pitchwheel', channel=2, pitch=0, time=0),
    Message('pitchwheel', channel=0, pitch=2805, time=4),
    Message('pitchwheel', channel=2, pitch=2805, time=0),
    Message('pitchwheel', channel=1, pitch=3373, time=2),
    Message('pitchwheel', channel=0, pitch=4930, time=2),
    Message('pitchwheel', channel=2, pitch=4930, time=0),
    Message('pitchwheel', channel=1, pitch=8191, time=2),
    Message('pitchwheel', channel=0, pitch=6800, time=2),
    Message('pitchwheel', channel=2, pitch=6800, time=0),
    Message('note_on', channel=9, note=46, velocity=124, time=0),
    Message('note_off', channel=9, note=46, velocity=64, time=0),
    Message('pitchwheel', channel=0, pitch=8191, time=4),
    Message('pitchwheel', channel=2, pitch=8191, time=0),
    Message('note_on', channel=0, note=60, velocity=89, time=12),
    Message('note_on', channel=0, note=65, velocity=89, time=0),
    Message('note_off', channel=1, note=31, velocity=64, time=0),
    Message('note_on', channel=1, note=41, velocity=126, time=0),
    Message('note_on', channel=2, note=60, velocity=97, time=0),
    Message('note_on', channel=2, note=65, velocity=91, time=0),
    Message('pitchwheel', channel=0, pitch=0, time=1),
    Message('pitchwheel', channel=2, pitch=0, time=0),
    Message('pitchwheel', channel=1, pitch=111, time=0),
    Message('note_off', channel=0, note=55, velocity=64, time=5),
    Message('note_off', channel=2, note=55, velocity=64, time=0),
    Message('pitchwheel', channel=1, pitch=0, time=0),
    Message('note_on', channel=9, note=48, velocity=99, time=42),
    Message('note_off', channel=9, note=48, velocity=64, time=0),
    Message('note_on', channel=9, note=48, velocity=100, time=16),
    Message('note_off', channel=9, note=48, velocity=64, time=0),
    Message('note_on', channel=9, note=48, velocity=102, time=16),
    Message('note_off', channel=9, note=48, velocity=64, time=0),
    Message('control_change', channel=0, control=1, value=23, time=11),
    Message('control_change', channel=2, control=1, value=23, time=0),
    Message('note_on', channel=9, note=48, velocity=102, time=5),
    Message('note_off', channel=9, note=48, velocity=64, time=0),
    Message('control_change', channel=0, control=1, value=53, time=3),
    Message('control_change', channel=2, control=1, value=53, time=0),
    Message('control_change', channel=0, control=1, value=107, time=9),
    Message('control_change', channel=2, control=1, value=107, time=0),
    Message('note_on', channel=9, note=48, velocity=103, time=3),
    Message('note_off', channel=9, note=48, velocity=64, time=1),
    Message('control_change', channel=0, control=1, value=127, time=4),
    Message('control_change', channel=2, control=1, value=127, time=0),
    Message('note_on', channel=9, note=48, velocity=103, time=12),
    Message('note_off', channel=9, note=48, velocity=64, time=0),
    Message('note_on', channel=9, note=45, velocity=104, time=15),
    Message('note_on', channel=1, note=38, velocity=126, time=1),
    Message('note_off', channel=9, note=45, velocity=64, time=0),
    Message('note_off', channel=1, note=41, velocity=64, time=7),
    Message('note_on', channel=9, note=45, velocity=104, time=8),
    Message('note_off', channel=9, note=45, velocity=64, time=1),
    Message('note_on', channel=9, note=45, velocity=105, time=15),
    Message('note_off', channel=9, note=45, velocity=64, time=1),
    Message('control_change', channel=0, control=1, value=111, time=10),
    Message('control_change', channel=2, control=1, value=111, time=0),
    Message('note_on', channel=9, note=43, velocity=108, time=5),
    Message('note_off', channel=9, note=43, velocity=64, time=1),
    Message('control_change', channel=0, control=1, value=107, time=2),
    Message('control_change', channel=2, control=1, value=107, time=0),
    Message('control_change', channel=0, control=1, value=127, time=9),
    Message('control_change', channel=2, control=1, value=127, time=0),
    Message('note_on', channel=9, note=43, velocity=112, time=5),
    Message('note_off', channel=9, note=43, velocity=64, time=0),
    Message('control_change', channel=0, control=1, value=95, time=5),
    Message('control_change', channel=2, control=1, value=95, time=0),
    Message('control_change', channel=0, control=1, value=127, time=8),
    Message('control_change', channel=2, control=1, value=127, time=0),
    Message('note_on', channel=9, note=43, velocity=116, time=3),
    Message('note_off', channel=9, note=43, velocity=64, time=0),
    Message('note_off', channel=0, note=60, velocity=64, time=4),
    Message('note_off', channel=2, note=60, velocity=64, time=0),
    Message('note_off', channel=0, note=65, velocity=64, time=2),
    Message('note_off', channel=2, note=65, velocity=64, time=0),
    Message('control_change', channel=0, control=1, value=107, time=1),
    Message('control_change', channel=2, control=1, value=107, time=0),
    Message('note_off', channel=1, note=38, velocity=64, time=2),
    Message('control_change', channel=0, control=1, value=0, time=7),
    Message('note_on', channel=1, note=26, velocity=126, time=0),
    Message('control_change', channel=2, control=1, value=0, time=0),
    Message('note_on', channel=9, note=35, velocity=127, time=0),
    Message('note_off', channel=9, note=35, velocity=64, time=0),
    Message('note_off', channel=1, note=26, velocity=64, time=16),
    Message('note_on', channel=1, note=26, velocity=126, time=32),
    Message('note_on', channel=9, note=35, velocity=127, time=0),
    Message('note_off', channel=9, note=35, velocity=64, time=0),
    Message('note_off', channel=1, note=26, velocity=64, time=39),
    Message('note_on', channel=0, note=55, velocity=89, time=9),
    Message('note_on', channel=1, note=31, velocity=126, time=0),
    Message('note_on', channel=2, note=55, velocity=100, time=0),
    Message('note_on', channel=9, note=46, velocity=126, time=0),
    Message('note_off', channel=9, note=46, velocity=64, time=0),
    Message('note_on', channel=9, note=46, velocity=126, time=16),
    Message('note_off', channel=9, note=46, velocity=64, time=0),
    Message('pitchwheel', channel=0, pitch=2465, time=12),
    Message('pitchwheel', channel=2, pitch=2465, time=0),
    Message('pitchwheel', channel=1, pitch=8191, time=1),
    Message('pitchwheel', channel=0, pitch=5780, time=3),
    Message('pitchwheel', channel=2, pitch=5780, time=0),
    Message('note_on', channel=9, note=46, velocity=125, time=0),
    Message('note_off', channel=9, note=46, velocity=64, time=0),
    Message('pitchwheel', channel=0, pitch=8191, time=4),
    Message('pitchwheel', channel=2, pitch=8191, time=0),
    Message('pitchwheel', channel=0, pitch=0, time=8),
    Message('pitchwheel', channel=2, pitch=0, time=0),
    Message('pitchwheel', channel=1, pitch=0, time=2),
    Message('note_on', channel=0, note=60, velocity=89, time=2),
    Message('note_on', channel=0, note=65, velocity=89, time=0),
    Message('note_on', channel=1, note=41, velocity=126, time=0),
    Message('note_on', channel=2, note=60, velocity=94, time=0),
    Message('note_on', channel=2, note=65, velocity=94, time=0),
    Message('note_off', channel=1, note=31, velocity=64, time=1),
    Message('note_off', channel=0, note=55, velocity=64, time=4),
    Message('note_off', channel=2, note=55, velocity=64, time=0),
    Message('note_on', channel=9, note=48, velocity=99, time=43),
    Message('note_off', channel=9, note=48, velocity=64, time=0),
    Message('note_on', channel=9, note=48, velocity=102, time=15),
    Message('note_off', channel=9, note=48, velocity=64, time=1),
    Message('note_on', channel=9, note=48, velocity=102, time=15),
    Message('note_off', channel=9, note=48, velocity=64, time=1),
    Message('note_on', channel=9, note=48, velocity=102, time=15),
    Message('note_off', channel=9, note=48, velocity=64, time=1),
    Message('note_on', channel=9, note=48, velocity=102, time=15),
    Message('note_off', channel=9, note=48, velocity=64, time=1),
    Message('control_change', channel=0, control=1, value=27, time=10),
    Message('control_change', channel=2, control=1, value=27, time=0),
    Message('note_on', channel=9, note=48, velocity=102, time=5),
    Message('note_off', channel=9, note=48, velocity=64, time=1),
    Message('control_change', channel=0, control=1, value=48, time=2),
    Message('control_change', channel=2, control=1, value=48, time=0),
    Message('control_change', channel=0, control=1, value=70, time=8),
    Message('control_change', channel=2, control=1, value=70, time=0),
    Message('note_on', channel=1, note=38, velocity=126, time=6),
    Message('note_off', channel=1, note=41, velocity=64, time=0),
    Message('note_on', channel=9, note=45, velocity=102, time=0),
    Message('note_off', channel=9, note=45, velocity=64, time=0),
    Message('control_change', channel=0, control=1, value=101, time=3),
    Message('control_change', channel=2, control=1, value=101, time=0),
    Message('note_on', channel=9, note=45, velocity=102, time=12),
    Message('note_off', channel=9, note=45, velocity=64, time=1),
    Message('control_change', channel=0, control=1, value=111, time=3),
    Message('control_change', channel=2, control=1, value=111, time=0),
    Message('note_on', channel=9, note=45, velocity=102, time=12),
    Message('note_off', channel=9, note=45, velocity=64, time=1),
    Message('control_change', channel=0, control=1, value=118, time=6),
    Message('control_change', channel=2, control=1, value=118, time=0),
    Message('note_on', channel=9, note=43, velocity=102, time=9),
    Message('note_off', channel=9, note=43, velocity=64, time=1),
    Message('control_change', channel=0, control=1, value=114, time=4),
    Message('control_change', channel=2, control=1, value=114, time=0),
    Message('note_on', channel=9, note=43, velocity=102, time=12),
    Message('control_change', channel=0, control=1, value=125, time=0),
    Message('control_change', channel=2, control=1, value=125, time=0),
    Message('note_off', channel=9, note=43, velocity=64, time=0),
    Message('note_off', channel=0, note=65, velocity=64, time=14),
    Message('note_off', channel=2, note=65, velocity=64, time=0),
    Message('control_change', channel=0, control=1, value=107, time=1),
    Message('control_change', channel=2, control=1, value=107, time=0),
    Message('note_on', channel=9, note=43, velocity=108, time=0),
    Message('note_off', channel=9, note=43, velocity=64, time=1),
    Message('note_off', channel=0, note=60, velocity=64, time=2),
    Message('note_off', channel=2, note=60, velocity=64, time=0),
    Message('control_change', channel=0, control=1, value=95, time=5),
    Message('control_change', channel=2, control=1, value=95, time=0),
    Message('note_off', channel=1, note=38, velocity=64, time=1),
    Message('control_change', channel=0, control=1, value=0, time=7),
    Message('control_change', channel=2, control=1, value=0, time=0),
    Message('note_on', channel=1, note=26, velocity=126, time=1),
    Message('note_on', channel=9, note=35, velocity=127, time=0),
    Message('note_off', channel=9, note=35, velocity=64, time=0),
    Message('note_off', channel=1, note=26, velocity=64, time=16),
    Message('note_on', channel=1, note=26, velocity=126, time=32),
    Message('note_on', channel=9, note=35, velocity=127, time=0),
    Message('note_off', channel=9, note=35, velocity=64, time=0),
    Message('note_off', channel=1, note=26, velocity=64, time=39),
    Message('note_on', channel=0, note=55, velocity=89, time=9),
    Message('note_on', channel=1, note=31, velocity=126, time=0),
    Message('note_on', channel=2, note=55, velocity=100, time=0),
    Message('note_on', channel=9, note=46, velocity=126, time=0),
    Message('note_off', channel=9, note=46, velocity=64, time=0),
    Message('note_on', channel=9, note=46, velocity=119, time=16),
    Message('note_off', channel=9, note=46, velocity=64, time=0),
    Message('pitchwheel', channel=0, pitch=2380, time=13),
    Message('pitchwheel', channel=1, pitch=5718, time=0),
    Message('pitchwheel', channel=2, pitch=2380, time=0),
    Message('note_on', channel=9, note=46, velocity=125, time=3),
    Message('note_off', channel=9, note=46, velocity=64, time=0),
    Message('pitchwheel', channel=1, pitch=8191, time=1),
    Message('pitchwheel', channel=0, pitch=5355, time=0),
    Message('pitchwheel', channel=2, pitch=5355, time=0),
    Message('pitchwheel', channel=0, pitch=8191, time=4),
    Message('pitchwheel', channel=2, pitch=8191, time=0),
    Message('pitchwheel', channel=0, pitch=0, time=5),
    Message('pitchwheel', channel=2, pitch=0, time=0),
    Message('pitchwheel', channel=1, pitch=6135, time=1),
    Message('pitchwheel', channel=1, pitch=0, time=4),
    Message('note_off', channel=1, note=31, velocity=64, time=0),
    Message('note_on', channel=0, note=60, velocity=89, time=1),
    Message('note_on', channel=0, note=65, velocity=89, time=0),
    Message('note_on', channel=1, note=41, velocity=126, time=0),
    Message('note_on', channel=2, note=60, velocity=91, time=0),
    Message('note_on', channel=2, note=65, velocity=94, time=0),
    Message('note_off', channel=0, note=55, velocity=64, time=7),
    Message('note_off', channel=2, note=55, velocity=64, time=0),
    Message('note_on', channel=9, note=48, velocity=108, time=41),
    Message('note_off', channel=9, note=48, velocity=64, time=0),
    Message('note_on', channel=9, note=48, velocity=108, time=15),
    Message('note_off', channel=9, note=48, velocity=64, time=1),
    Message('note_on', channel=9, note=48, velocity=108, time=16),
    Message('note_off', channel=9, note=48, velocity=64, time=0),
    Message('note_on', channel=9, note=48, velocity=109, time=15),
    Message('note_off', channel=9, note=48, velocity=64, time=1),
    Message('note_on', channel=9, note=48, velocity=111, time=16),
    Message('note_off', channel=9, note=48, velocity=64, time=0),
    Message('control_change', channel=0, control=1, value=33, time=5),
    Message('control_change', channel=2, control=1, value=33, time=0),
    Message('control_change', channel=0, control=1, value=75, time=9),
    Message('control_change', channel=2, control=1, value=75, time=0),
    Message('note_on', channel=9, note=45, velocity=113, time=2),
    Message('note_off', channel=9, note=45, velocity=64, time=0),
    Message('control_change', channel=0, control=1, value=98, time=6),
    Message('control_change', channel=2, control=1, value=98, time=0),
    Message('note_on', channel=9, note=45, velocity=115, time=9),
    Message('note_on', channel=1, note=38, velocity=126, time=1),
    Message('note_off', channel=9, note=45, velocity=64, time=0),
    Message('control_change', channel=0, control=1, value=114, time=0),
    Message('control_change', channel=2, control=1, value=114, time=0),
    Message('note_off', channel=1, note=41, velocity=64, time=4),
    Message('control_change', channel=0, control=1, value=127, time=6),
    Message('control_change', channel=2, control=1, value=127, time=0),
    Message('note_on', channel=9, note=45, velocity=116, time=6),
    Message('note_off', channel=9, note=45, velocity=64, time=0),
    Message('note_on', channel=9, note=45, velocity=116, time=15),
    Message('note_off', channel=9, note=45, velocity=64, time=1),
    Message('note_on', channel=9, note=43, velocity=116, time=16),
    Message('note_off', channel=9, note=43, velocity=64, time=0),
    Message('note_on', channel=9, note=43, velocity=116, time=15),
    Message('note_off', channel=9, note=43, velocity=64, time=1),
    Message('note_on', channel=9, note=43, velocity=116, time=16),
    Message('note_off', channel=9, note=43, velocity=64, time=0),
    Message('note_off', channel=0, note=60, velocity=64, time=6),
    Message('note_off', channel=2, note=60, velocity=64, time=0),
    Message('note_off', channel=0, note=65, velocity=64, time=2),
    Message('note_off', channel=2, note=65, velocity=64, time=0),
    Message('note_off', channel=1, note=38, velocity=64, time=1),
    Message('control_change', channel=0, control=1, value=104, time=2),
    Message('control_change', channel=2, control=1, value=104, time=0),
    Message('note_on', channel=1, note=26, velocity=126, time=5),
    Message('note_on', channel=9, note=35, velocity=127, time=0),
    Message('note_off', channel=9, note=35, velocity=64, time=0),
    Message('control_change', channel=0, control=1, value=0, time=3),
    Message('control_change', channel=2, control=1, value=0, time=0),
    Message('note_off', channel=1, note=26, velocity=64, time=12),
    Message('note_on', channel=1, note=26, velocity=126, time=33),
    Message('note_on', channel=9, note=35, velocity=127, time=0),
    Message('note_off', channel=9, note=35, velocity=64, time=0),
    Message('note_off', channel=1, note=26, velocity=64, time=42),
    Message('note_on', channel=0, note=55, velocity=89, time=6),
    Message('note_on', channel=1, note=31, velocity=126, time=0),
    Message('note_on', channel=2, note=55, velocity=107, time=0),
    Message('note_on', channel=9, note=46, velocity=126, time=0),
    Message('note_off', channel=9, note=46, velocity=64, time=0),
    Message('note_on', channel=9, note=46, velocity=125, time=16),
    Message('note_off', channel=9, note=46, velocity=64, time=0),
    Message('pitchwheel', channel=1, pitch=1349, time=5),
    Message('pitchwheel', channel=1, pitch=8191, time=4),
    Message('pitchwheel', channel=0, pitch=2380, time=2),
    Message('pitchwheel', channel=2, pitch=2380, time=0),
    Message('pitchwheel', channel=0, pitch=5525, time=4),
    Message('pitchwheel', channel=2, pitch=5525, time=0),
    Message('note_on', channel=9, note=46, velocity=122, time=1),
    Message('note_off', channel=9, note=46, velocity=64, time=0),
    Message('pitchwheel', channel=0, pitch=8191, time=3),
    Message('pitchwheel', channel=2, pitch=8191, time=0),
    Message('pitchwheel', channel=1, pitch=7581, time=6),
    Message('pitchwheel', channel=0, pitch=0, time=2),
    Message('pitchwheel', channel=2, pitch=0, time=0),
    Message('pitchwheel', channel=1, pitch=0, time=3),
    Message('note_on', channel=0, note=60, velocity=89, time=2),
    Message('note_on', channel=0, note=65, velocity=89, time=0),
    Message('note_on', channel=1, note=41, velocity=126, time=0),
    Message('note_on', channel=2, note=60, velocity=96, time=0),
    Message('note_on', channel=2, note=65, velocity=97, time=0),
    Message('note_off', channel=1, note=31, velocity=64, time=1),
    Message('note_off', channel=0, note=55, velocity=64, time=6),
    Message('note_off', channel=2, note=55, velocity=64, time=0),
    Message('note_on', channel=9, note=48, velocity=105, time=40),
    Message('note_off', channel=9, note=48, velocity=64, time=1),
    Message('note_on', channel=9, note=48, velocity=108, time=16),
    Message('note_off', channel=9, note=48, velocity=64, time=0),
    Message('note_on', channel=9, note=48, velocity=110, time=15),
    Message('note_off', channel=9, note=48, velocity=64, time=1),
    Message('control_change', channel=0, control=1, value=19, time=8),
    Message('control_change', channel=2, control=1, value=19, time=0),
    Message('note_on', channel=9, note=48, velocity=112, time=7),
    Message('note_off', channel=9, note=48, velocity=64, time=1),
    Message('control_change', channel=0, control=1, value=39, time=0),
    Message('control_change', channel=2, control=1, value=39, time=0),
    Message('control_change', channel=0, control=1, value=64, time=9),
    Message('control_change', channel=2, control=1, value=64, time=0),
    Message('note_on', channel=9, note=48, velocity=114, time=7),
    Message('note_off', channel=9, note=48, velocity=64, time=0),
    Message('control_change', channel=0, control=1, value=111, time=1),
    Message('control_change', channel=2, control=1, value=111, time=0),
    Message('control_change', channel=0, control=1, value=121, time=8),
    Message('control_change', channel=2, control=1, value=121, time=0),
    Message('note_on', channel=9, note=48, velocity=116, time=7),
    Message('note_off', channel=9, note=48, velocity=64, time=0),
    Message('control_change', channel=0, control=1, value=127, time=14),
    Message('control_change', channel=2, control=1, value=127, time=0),
    Message('note_on', channel=1, note=38, velocity=126, time=2),
    Message('note_on', channel=9, note=45, velocity=116, time=0),
    Message('note_off', channel=9, note=45, velocity=64, time=0),
    Message('note_off', channel=1, note=41, velocity=64, time=5),
    Message('note_on', channel=9, note=45, velocity=116, time=10),
    Message('note_off', channel=9, note=45, velocity=64, time=1),
    Message('note_on', channel=9, note=45, velocity=116, time=15),
    Message('note_off', channel=9, note=45, velocity=64, time=1),
    Message('note_on', channel=9, note=43, velocity=116, time=16),
    Message('note_off', channel=9, note=43, velocity=64, time=0),
    Message('note_on', channel=9, note=43, velocity=116, time=15),
    Message('note_off', channel=9, note=43, velocity=64, time=1),
    Message('control_change', channel=0, control=1, value=125, time=2),
    Message('control_change', channel=2, control=1, value=125, time=0),
    Message('note_off', channel=0, note=60, velocity=64, time=4),
    Message('note_off', channel=1, note=38, velocity=64, time=0),
    Message('note_off', channel=2, note=60, velocity=64, time=0),
    Message('note_off', channel=0, note=65, velocity=64, time=3),
    Message('note_off', channel=2, note=65, velocity=64, time=0),
    Message('control_change', channel=0, control=1, value=82, time=1),
    Message('control_change', channel=2, control=1, value=82, time=0),
    Message('note_on', channel=9, note=43, velocity=116, time=5),
    Message('note_off', channel=9, note=43, velocity=64, time=1),
    Message('control_change', channel=0, control=1, value=0, time=2),
    Message('control_change', channel=2, control=1, value=0, time=0),
    Message('note_on', channel=0, note=50, velocity=89, time=14),
    Message('note_on', channel=0, note=57, velocity=89, time=0),
    Message('note_on', channel=1, note=26, velocity=125, time=0),
    Message('control_change', channel=8, control=91, value=0, time=0),
    Message('note_on', channel=8, note=50, velocity=127, time=0),
    Message('note_on', channel=8, note=62, velocity=127, time=0),
    Message('note_on', channel=9, note=35, velocity=120, time=0),
    Message('note_on', channel=9, note=40, velocity=120, time=0),
    Message('note_on', channel=9, note=49, velocity=110, time=0),
    Message('note_off', channel=9, note=35, velocity=64, time=0),
    Message('note_off', channel=9, note=40, velocity=64, time=0),
    Message('note_off', channel=9, note=49, velocity=64, time=0),
    Message('note_off', channel=1, note=26, velocity=64, time=24),
    Message('note_on', channel=1, note=26, velocity=126, time=24),
    Message('note_on', channel=3, note=65, velocity=100, time=0),
    Message('note_on', channel=6, note=72, velocity=127, time=0),
    Message('note_on', channel=6, note=77, velocity=126, time=0),
    Message('note_on', channel=9, note=35, velocity=109, time=0),
    Message('note_on', channel=9, note=44, velocity=75, time=0),
    Message('note_off', channel=9, note=35, velocity=64, time=0),
    Message('note_off', channel=9, note=44, velocity=64, time=0),
    Message('note_off', channel=0, note=50, velocity=64, time=41),
    Message('note_on', channel=1, note=31, velocity=126, time=7),
    Message('note_off', channel=8, note=50, velocity=64, time=0),
    Message('note_on', channel=8, note=50, velocity=107, time=0),
    Message('note_on', channel=8, note=59, velocity=127, time=0),
    Message('note_off', channel=8, note=62, velocity=64, time=0),
    Message('note_on', channel=9, note=40, velocity=127, time=0),
    Message('note_on', channel=9, note=44, velocity=103, time=0),
    Message('note_off', channel=1, note=26, velocity=64, time=0),
    Message('note_off', channel=9, note=40, velocity=64, time=0),
    Message('note_off', channel=9, note=44, velocity=64, time=0),
    Message('note_off', channel=0, note=57, velocity=64, time=2),
    Message('note_on', channel=0, note=59, velocity=89, time=0),
    Message('note_on', channel=0, note=50, velocity=89, time=1),
    Message('control_change', channel=3, control=1, value=30, time=2),
    Message('control_change', channel=3, control=1, value=111, time=9),
    Message('control_change', channel=3, control=1, value=127, time=8),
    Message('pitchwheel', channel=1, pitch=3373, time=4),
    Message('pitchwheel', channel=1, pitch=8191, time=4),
    Message('note_off', channel=6, note=72, velocity=64, time=5),
    Message('note_off', channel=6, note=77, velocity=64, time=6),
    Message('note_off', channel=1, note=31, velocity=64, time=7),
    Message('note_on', channel=1, note=41, velocity=126, time=0),
    Message('note_on', channel=3, note=62, velocity=90, time=0),
    Message('note_on', channel=6, note=74, velocity=125, time=0),
    Message('note_on', channel=8, note=69, velocity=123, time=0),
    Message('note_on', channel=9, note=44, velocity=67, time=0),
    Message('note_off', channel=9, note=44, velocity=64, time=0),
    Message('pitchwheel', channel=1, pitch=111, time=1),
    Message('control_change', channel=3, control=1, value=0, time=0),
    Message('note_off', channel=3, note=65, velocity=64, time=2),
    Message('pitchwheel', channel=1, pitch=0, time=3),
    Message('note_off', channel=3, note=62, velocity=64, time=8),
    Message('note_off', channel=8, note=69, velocity=64, time=9),
    Message('note_off', channel=6, note=74, velocity=64, time=1),
    Message('note_off', channel=0, note=50, velocity=64, time=18),
    Message('note_on', channel=3, note=65, velocity=92, time=6),
    Message('note_on', channel=6, note=72, velocity=127, time=0),
    Message('note_on', channel=6, note=77, velocity=126, time=0),
    Message('note_off', channel=8, note=50, velocity=64, time=0),
    Message('note_on', channel=8, note=50, velocity=109, time=0),
    Message('note_on', channel=8, note=57, velocity=113, time=0),
    Message('note_off', channel=8, note=59, velocity=64, time=0),
    Message('note_on', channel=9, note=35, velocity=120, time=0),
    Message('note_on', channel=9, note=40, velocity=120, time=0),
    Message('note_on', channel=9, note=44, velocity=99, time=0),
    Message('note_off', channel=9, note=35, velocity=64, time=0),
    Message('note_off', channel=9, note=40, velocity=64, time=0),
    Message('note_off', channel=9, note=44, velocity=64, time=0),
    Message('note_on', channel=0, note=57, velocity=89, time=1),
    Message('note_on', channel=0, note=50, velocity=89, time=1),
    Message('note_off', channel=0, note=59, velocity=64, time=2),
    Message('note_off', channel=6, note=72, velocity=64, time=35),
    Message('note_on', channel=3, note=62, velocity=83, time=9),
    Message('note_off', channel=3, note=65, velocity=64, time=0),
    Message('note_on', channel=6, note=74, velocity=111, time=0),
    Message('note_on', channel=8, note=69, velocity=107, time=0),
    Message('note_on', channel=9, note=35, velocity=122, time=0),
    Message('note_on', channel=9, note=44, velocity=64, time=0),
    Message('note_off', channel=9, note=35, velocity=64, time=0),
    Message('note_off', channel=9, note=44, velocity=64, time=0),
    Message('note_off', channel=6, note=77, velocity=64, time=1),
    Message('note_off', channel=3, note=62, velocity=64, time=12),
    Message('note_off', channel=8, note=69, velocity=64, time=0),
    Message('note_off', channel=6, note=74, velocity=64, time=1),
    Message('note_off', channel=0, note=50, velocity=64, time=21),
    Message('note_on', channel=0, note=50, velocity=89, time=12),
    Message('note_on', channel=1, note=38, velocity=126, time=1),
    Message('note_on', channel=3, note=60, velocity=95, time=0),
    Message('note_on', channel=6, note=72, velocity=127, time=0),
    Message('note_off', channel=8, note=50, velocity=64, time=0),
    Message('note_on', channel=8, note=50, velocity=111, time=0),
    Message('note_off', channel=8, note=57, velocity=64, time=0),
    Message('note_on', channel=8, note=59, velocity=127, time=0),
    Message('note_on', channel=8, note=67, velocity=127, time=0),
    Message('note_on', channel=9, note=40, velocity=127, time=0),
    Message('note_on', channel=9, note=44, velocity=105, time=0),
    Message('note_off', channel=0, note=57, velocity=64, time=0),
    Message('note_on', channel=0, note=59, velocity=89, time=0),
    Message('note_off', channel=9, note=40, velocity=64, time=0),
    Message('note_off', channel=9, note=44, velocity=64, time=0),
    Message('note_off', channel=1, note=41, velocity=64, time=7),
    Message('note_off', channel=3, note=60, velocity=64, time=12),
    Message('note_off', channel=8, note=67, velocity=64, time=6),
    Message('note_off', channel=6, note=72, velocity=64, time=15),
    Message('note_on', channel=3, note=62, velocity=100, time=8),
    Message('note_on', channel=6, note=74, velocity=127, time=0),
    Message('note_on', channel=8, note=69, velocity=127, time=0),
    Message('note_on', channel=9, note=44, velocity=77, time=0),
    Message('note_off', channel=9, note=44, velocity=64, time=0),
    Message('note_off', channel=6, note=74, velocity=64, time=25),
    Message('note_off', channel=8, note=69, velocity=64, time=1),
    Message('control_change', channel=3, control=1, value=11, time=13),
    Message('note_off', channel=0, note=50, velocity=64, time=1),
    Message('note_off', channel=1, note=38, velocity=64, time=1),
    Message('note_off', channel=3, note=62, velocity=64, time=0),
    Message('control_change', channel=3, control=1, value=1, time=6),
    Message('note_on', channel=1, note=26, velocity=126, time=1),
    Message('note_off', channel=8, note=50, velocity=64, time=0),
    Message('note_on', channel=8, note=50, velocity=116, time=0),
    Message('note_on', channel=8, note=57, velocity=127, time=0),
    Message('note_off', channel=8, note=59, velocity=64, time=0),
    Message('note_on', channel=9, note=35, velocity=118, time=0),
    Message('note_on', channel=9, note=40, velocity=125, time=0),
    Message('note_on', channel=9, note=44, velocity=107, time=0),
    Message('note_off', channel=9, note=35, velocity=64, time=0),
    Message('note_off', channel=9, note=40, velocity=64, time=0),
    Message('note_off', channel=9, note=44, velocity=64, time=0),
    Message('note_on', channel=0, note=57, velocity=89, time=1),
    Message('note_on', channel=0, note=50, velocity=89, time=0),
    Message('note_off', channel=0, note=59, velocity=64, time=3),
    Message('control_change', channel=3, control=1, value=127, time=4),
    Message('note_off', channel=1, note=26, velocity=64, time=8),
    Message('control_change', channel=3, control=1, value=0, time=6),
    Message('note_on', channel=1, note=26, velocity=126, time=26),
    Message('note_on', channel=3, note=65, velocity=103, time=0),
    Message('note_on', channel=6, note=72, velocity=127, time=0),
    Message('note_on', channel=6, note=77, velocity=126, time=0),
    Message('note_on', channel=9, note=35, velocity=114, time=0),
    Message('note_on', channel=9, note=44, velocity=83, time=0),
    Message('note_off', channel=9, note=35, velocity=64, time=0),
    Message('note_off', channel=9, note=44, velocity=64, time=0),
    Message('control_change', channel=3, control=1, value=8, time=37),
    Message('note_off', channel=0, note=50, velocity=64, time=1),
    Message('note_off', channel=1, note=26, velocity=64, time=1),
    Message('control_change', channel=3, control=1, value=31, time=6),
    Message('note_on', channel=0, note=50, velocity=89, time=3),
    Message('note_on', channel=1, note=31, velocity=126, time=0),
    Message('note_off', channel=8, note=50, velocity=64, time=0),
    Message('note_on', channel=8, note=50, velocity=103, time=0),
    Message('note_off', channel=8, note=57, velocity=64, time=0),
    Message('note_on', channel=8, note=59, velocity=127, time=0),
    Message('note_on', channel=9, note=40, velocity=127, time=0),
    Message('note_on', channel=9, note=44, velocity=109, time=0),
    Message('note_off', channel=0, note=57, velocity=64, time=0),
    Message('note_off', channel=9, note=40, velocity=64, time=0),
    Message('note_off', channel=9, note=44, velocity=64, time=0),
    Message('note_on', channel=0, note=59, velocity=89, time=1),
    Message('control_change', channel=3, control=1, value=17, time=5),
    Message('control_change', channel=3, control=1, value=68, time=8),
    Message('control_change', channel=3, control=1, value=127, time=8),
    Message('pitchwheel', channel=1, pitch=8191, time=7),
    Message('pitchwheel', channel=1, pitch=0, time=17),
    Message('note_off', channel=3, note=65, velocity=64, time=1),
    Message('note_off', channel=6, note=72, velocity=64, time=0),
    Message('note_on', channel=1, note=41, velocity=126, time=1),
    Message('note_on', channel=3, note=62, velocity=93, time=0),
    Message('note_on', channel=6, note=74, velocity=113, time=0),
    Message('note_on', channel=8, note=69, velocity=113, time=0),
    Message('note_on', channel=9, note=44, velocity=77, time=0),
    Message('note_off', channel=9, note=44, velocity=64, time=0),
    Message('note_off', channel=1, note=31, velocity=64, time=1),
    Message('note_off', channel=6, note=77, velocity=64, time=5),
    Message('control_change', channel=3, control=1, value=0, time=2),
    Message('note_off', channel=3, note=62, velocity=64, time=7),
    Message('note_off', channel=8, note=69, velocity=64, time=22),
    Message('note_off', channel=0, note=50, velocity=64, time=4),
    Message('note_off', channel=6, note=74, velocity=64, time=1),
    Message('note_on', channel=3, note=65, velocity=95, time=6),
    Message('note_on', channel=6, note=72, velocity=127, time=0),
    Message('note_on', channel=6, note=77, velocity=123, time=0),
    Message('note_off', channel=8, note=50, velocity=64, time=0),
    Message('note_on', channel=8, note=50, velocity=118, time=0),
    Message('note_on', channel=8, note=57, velocity=125, time=0),
    Message('note_off', channel=8, note=59, velocity=64, time=0),
    Message('note_on', channel=9, note=35, velocity=120, time=0),
    Message('note_on', channel=9, note=40, velocity=116, time=0),
    Message('note_on', channel=9, note=44, velocity=119, time=0),
    Message('note_on', channel=0, note=57, velocity=89, time=0),
    Message('note_off', channel=9, note=35, velocity=64, time=0),
    Message('note_off', channel=9, note=40, velocity=64, time=0),
    Message('note_off', channel=9, note=44, velocity=64, time=0),
    Message('note_on', channel=0, note=50, velocity=89, time=2),
    Message('note_off', channel=0, note=59, velocity=64, time=3),
    Message('note_off', channel=6, note=72, velocity=64, time=37),
    Message('note_off', channel=3, note=65, velocity=64, time=5),
    Message('note_on', channel=3, note=62, velocity=97, time=1),
    Message('note_on', channel=6, note=74, velocity=107, time=0),
    Message('note_on', channel=8, note=69, velocity=103, time=0),
    Message('note_on', channel=9, note=35, velocity=127, time=0),
    Message('note_on', channel=9, note=44, velocity=77, time=0),
    Message('note_off', channel=9, note=35, velocity=64, time=0),
    Message('note_off', channel=9, note=44, velocity=64, time=0),
    Message('note_off', channel=6, note=77, velocity=64, time=1),
    Message('note_off', channel=3, note=62, velocity=64, time=10),
    Message('note_off', channel=8, note=69, velocity=64, time=7),
    Message('note_off', channel=6, note=74, velocity=64, time=3),
    Message('note_off', channel=0, note=50, velocity=64, time=18),
    Message('note_on', channel=0, note=50, velocity=89, time=9),
    Message('note_on', channel=1, note=38, velocity=126, time=0),
    Message('note_off', channel=1, note=41, velocity=64, time=0),
    Message('note_on', channel=3, note=60, velocity=97, time=0),
    Message('note_on', channel=6, note=72, velocity=123, time=0),
    Message('note_off', channel=8, note=50, velocity=64, time=0),
    Message('note_on', channel=8, note=50, velocity=103, time=0),
    Message('note_off', channel=8, note=57, velocity=64, time=0),
    Message('note_on', channel=8, note=59, velocity=123, time=0),
    Message('note_on', channel=8, note=67, velocity=126, time=0),
    Message('note_on', channel=9, note=40, velocity=127, time=0),
    Message('note_on', channel=9, note=44, velocity=116, time=0),
    Message('note_on', channel=0, note=59, velocity=89, time=0),
    Message('note_off', channel=9, note=40, velocity=64, time=0),
    Message('note_off', channel=9, note=44, velocity=64, time=0),
    Message('note_off', channel=0, note=57, velocity=64, time=1),
    Message('note_off', channel=3, note=60, velocity=64, time=10),
    Message('note_off', channel=8, note=67, velocity=64, time=7),
    Message('note_off', channel=6, note=72, velocity=64, time=25),
    Message('note_on', channel=3, note=62, velocity=98, time=5),
    Message('note_on', channel=6, note=74, velocity=113, time=0),
    Message('note_on', channel=8, note=69, velocity=113, time=0),
    Message('note_on', channel=9, note=44, velocity=87, time=0),
    Message('note_off', channel=9, note=44, velocity=64, time=0),
    Message('note_off', channel=8, note=69, velocity=64, time=20),
    Message('note_off', channel=6, note=74, velocity=64, time=3),
    Message('control_change', channel=3, control=1, value=125, time=12),
    Message('note_off', channel=0, note=50, velocity=64, time=3),
    Message('note_off', channel=1, note=38, velocity=64, time=2),
    Message('control_change', channel=3, control=1, value=0, time=5),
    Message('note_on', channel=0, note=57, velocity=89, time=2),
    Message('note_on', channel=1, note=26, velocity=126, time=1),
    Message('note_off', channel=8, note=50, velocity=64, time=0),
    Message('note_on', channel=8, note=50, velocity=113, time=0),
    Message('note_on', channel=8, note=57, velocity=125, time=0),
    Message('note_off', channel=8, note=59, velocity=64, time=0),
    Message('note_on', channel=9, note=35, velocity=127, time=0),
    Message('note_on', channel=9, note=40, velocity=125, time=0),
    Message('note_on', channel=9, note=44, velocity=113, time=0),
    Message('note_off', channel=9, note=35, velocity=64, time=0),
    Message('note_off', channel=9, note=40, velocity=64, time=0),
    Message('note_off', channel=9, note=44, velocity=64, time=0),
    Message('note_on', channel=0, note=50, velocity=89, time=1),
    Message('note_off', channel=3, note=62, velocity=64, time=2),
    Message('note_off', channel=0, note=59, velocity=64, time=1),
    Message('control_change', channel=3, control=1, value=127, time=4),
    Message('note_off', channel=1, note=26, velocity=64, time=8),
    Message('control_change', channel=3, control=1, value=0, time=4),
    Message('note_on', channel=1, note=26, velocity=126, time=28),
    Message('note_on', channel=3, note=65, velocity=102, time=0),
    Message('note_on', channel=6, note=72, velocity=127, time=0),
    Message('note_on', channel=6, note=77, velocity=127, time=0),
    Message('note_on', channel=9, note=35, velocity=127, time=0),
    Message('note_on', channel=9, note=44, velocity=83, time=0),
    Message('note_off', channel=9, note=35, velocity=64, time=0),
    Message('note_off', channel=9, note=44, velocity=64, time=0),
    Message('note_off', channel=0, note=50, velocity=64, time=35),
    Message('note_off', channel=1, note=26, velocity=64, time=4),
    Message('note_on', channel=0, note=50, velocity=89, time=6),
    Message('note_off', channel=0, note=57, velocity=64, time=1),
    Message('note_on', channel=0, note=59, velocity=89, time=0),
    Message('note_on', channel=1, note=31, velocity=126, time=2),
    Message('note_off', channel=8, note=50, velocity=64, time=0),
    Message('note_on', channel=8, note=50, velocity=118, time=0),
    Message('note_off', channel=8, note=57, velocity=64, time=0),
    Message('note_on', channel=8, note=59, velocity=125, time=0),
    Message('note_on', channel=9, note=40, velocity=127, time=0),
    Message('note_on', channel=9, note=44, velocity=116, time=0),
    Message('note_off', channel=9, note=40, velocity=64, time=0),
    Message('note_off', channel=9, note=44, velocity=64, time=0),
    Message('control_change', channel=3, control=1, value=12, time=6),
    Message('control_change', channel=3, control=1, value=2, time=8),
    Message('control_change', channel=3, control=1, value=127, time=9),
    Message('pitchwheel', channel=1, pitch=5718, time=6),
    Message('pitchwheel', channel=1, pitch=8191, time=4),
    Message('note_off', channel=3, note=65, velocity=64, time=9),
    Message('pitchwheel', channel=1, pitch=6135, time=1),
    Message('note_off', channel=6, note=72, velocity=64, time=2),
    Message('control_change', channel=3, control=1, value=0, time=0),
    Message('pitchwheel', channel=1, pitch=0, time=2),
    Message('note_off', channel=1, note=31, velocity=64, time=0),
    Message('note_on', channel=1, note=41, velocity=126, time=1),
    Message('note_on', channel=3, note=62, velocity=86, time=0),
    Message('note_on', channel=6, note=74, velocity=109, time=0),
    Message('note_on', channel=8, note=69, velocity=109, time=0),
    Message('note_on', channel=9, note=44, velocity=66, time=0),
    Message('note_off', channel=9, note=44, velocity=64, time=0),
    Message('note_off', channel=6, note=77, velocity=64, time=2),
    Message('note_off', channel=8, note=69, velocity=64, time=12),
    Message('note_off', channel=3, note=62, velocity=64, time=9),
    Message('note_off', channel=6, note=74, velocity=64, time=2),
    Message('note_off', channel=0, note=50, velocity=64, time=12),
    Message('note_on', channel=0, note=57, velocity=89, time=9),
    Message('note_on', channel=0, note=50, velocity=89, time=1),
    Message('note_on', channel=3, note=65, velocity=99, time=1),
    Message('note_on', channel=6, note=72, velocity=127, time=0),
    Message('note_on', channel=6, note=77, velocity=121, time=0),
    Message('note_off', channel=8, note=50, velocity=64, time=0),
    Message('note_on', channel=8, note=50, velocity=113, time=0),
    Message('note_on', channel=8, note=57, velocity=125, time=0),
    Message('note_off', channel=8, note=59, velocity=64, time=0),
    Message('note_on', channel=9, note=35, velocity=127, time=0),
    Message('note_on', channel=9, note=40, velocity=125, time=0),
    Message('note_on', channel=9, note=44, velocity=116, time=0),
    Message('note_off', channel=9, note=35, velocity=64, time=0),
    Message('note_off', channel=9, note=40, velocity=64, time=0),
    Message('note_off', channel=9, note=44, velocity=64, time=0),
    Message('note_off', channel=0, note=59, velocity=64, time=3),
    Message('note_off', channel=6, note=72, velocity=64, time=41),
    Message('note_on', channel=3, note=62, velocity=92, time=4),
    Message('note_on', channel=6, note=74, velocity=109, time=0),
    Message('note_on', channel=8, note=69, velocity=99, time=0),
    Message('note_on', channel=9, note=35, velocity=127, time=0),
    Message('note_on', channel=9, note=44, velocity=81, time=0),
    Message('note_off', channel=9, note=35, velocity=64, time=0),
    Message('note_off', channel=9, note=44, velocity=64, time=0),
    Message('note_off', channel=3, note=65, velocity=64, time=1),
    Message('note_off', channel=6, note=77, velocity=64, time=1),
    Message('note_off', channel=3, note=62, velocity=64, time=11),
    Message('note_off', channel=8, note=69, velocity=64, time=2),
    Message('note_off', channel=6, note=74, velocity=64, time=7),
    Message('note_off', channel=0, note=50, velocity=64, time=14),
    Message('note_on', channel=0, note=59, velocity=89, time=8),
    Message('note_on', channel=0, note=50, velocity=89, time=2),
    Message('note_off', channel=0, note=57, velocity=64, time=0),
    Message('note_on', channel=1, note=38, velocity=126, time=2),
    Message('note_on', channel=3, note=60, velocity=102, time=0),
    Message('note_on', channel=6, note=72, velocity=127, time=0),
    Message('note_off', channel=8, note=50, velocity=64, time=0),
    Message('note_on', channel=8, note=50, velocity=98, time=0),
    Message('note_off', channel=8, note=57, velocity=64, time=0),
    Message('note_on', channel=8, note=59, velocity=118, time=0),
    Message('note_on', channel=8, note=67, velocity=126, time=0),
    Message('note_on', channel=9, note=40, velocity=127, time=0),
    Message('note_on', channel=9, note=44, velocity=103, time=0),
    Message('note_off', channel=9, note=40, velocity=64, time=0),
    Message('note_off', channel=9, note=44, velocity=64, time=0),
    Message('note_off', channel=1, note=41, velocity=64, time=4),
    Message('note_off', channel=3, note=60, velocity=64, time=7),
    Message('note_off', channel=8, note=67, velocity=64, time=6),
    Message('note_off', channel=6, note=72, velocity=64, time=20),
    Message('note_on', channel=3, note=62, velocity=94, time=11),
    Message('note_on', channel=6, note=74, velocity=116, time=0),
    Message('note_on', channel=8, note=69, velocity=118, time=0),
    Message('note_on', channel=9, note=44, velocity=69, time=0),
    Message('note_off', channel=9, note=44, velocity=64, time=0),
    Message('note_off', channel=8, note=69, velocity=64, time=21),
    Message('note_off', channel=6, note=74, velocity=64, time=3),
    Message('control_change', channel=3, control=1, value=3, time=11),
    Message('note_off', channel=0, note=50, velocity=64, time=2),
    Message('note_off', channel=1, note=38, velocity=64, time=4),
    Message('control_change', channel=3, control=1, value=127, time=2),
    Message('note_on', channel=0, note=57, velocity=89, time=2),
    Message('note_off', channel=3, note=62, velocity=64, time=0),
    Message('note_on', channel=1, note=26, velocity=126, time=3),
    Message('note_off', channel=8, note=50, velocity=64, time=0),
    Message('note_on', channel=8, note=50, velocity=126, time=0),
    Message('note_on', channel=8, note=57, velocity=121, time=0),
    Message('note_off', channel=8, note=59, velocity=64, time=0),
    Message('note_on', channel=9, note=35, velocity=127, time=0),
    Message('note_on', channel=9, note=40, velocity=127, time=0),
    Message('note_on', channel=9, note=44, velocity=97, time=0),
    Message('note_on', channel=0, note=50, velocity=89, time=0),
    Message('note_off', channel=9, note=35, velocity=64, time=0),
    Message('note_off', channel=9, note=40, velocity=64, time=0),
    Message('note_off', channel=9, note=44, velocity=64, time=0),
    Message('note_off', channel=0, note=59, velocity=64, time=4),
    Message('control_change', channel=3, control=1, value=0, time=4),
    Message('note_off', channel=1, note=26, velocity=64, time=7),
    Message('note_on', channel=1, note=26, velocity=126, time=33),
    Message('note_on', channel=3, note=65, velocity=104, time=0),
    Message('note_on', channel=6, note=72, velocity=127, time=0),
    Message('note_on', channel=6, note=77, velocity=125, time=0),
    Message('note_on', channel=9, note=35, velocity=118, time=0),
    Message('note_on', channel=9, note=44, velocity=76, time=0),
    Message('note_off', channel=9, note=35, velocity=64, time=0),
    Message('note_off', channel=9, note=44, velocity=64, time=0),
    Message('note_off', channel=0, note=50, velocity=64, time=34),
    Message('note_off', channel=1, note=26, velocity=64, time=8),
    Message('note_on', channel=0, note=50, velocity=89, time=5),
    Message('note_on', channel=1, note=31, velocity=126, time=1),
    Message('note_off', channel=8, note=50, velocity=64, time=0),
    Message('note_on', channel=8, note=50, velocity=111, time=0),
    Message('note_off', channel=8, note=57, velocity=64, time=0),
    Message('note_on', channel=8, note=59, velocity=125, time=0),
    Message('note_on', channel=9, note=40, velocity=127, time=0),
    Message('note_on', channel=9, note=44, velocity=109, time=0),
    Message('note_on', channel=0, note=59, velocity=89, time=0),
    Message('note_off', channel=9, note=40, velocity=64, time=0),
    Message('note_off', channel=9, note=44, velocity=64, time=0),
    Message('note_off', channel=0, note=57, velocity=64, time=3),
    Message('control_change', channel=3, control=1, value=127, time=15),
    Message('pitchwheel', channel=1, pitch=1349, time=3),
    Message('pitchwheel', channel=1, pitch=8191, time=4),
    Message('control_change', channel=3, control=1, value=107, time=10),
    Message('note_off', channel=6, note=72, velocity=64, time=5),
    Message('pitchwheel', channel=1, pitch=7581, time=1),
    Message('control_change', channel=3, control=1, value=0, time=3),
    Message('pitchwheel', channel=1, pitch=0, time=2),
    Message('note_off', channel=3, note=65, velocity=64, time=0),
    Message('note_off', channel=6, note=77, velocity=64, time=1),
    Message('note_on', channel=1, note=41, velocity=126, time=1),
    Message('note_on', channel=3, note=62, velocity=96, time=0),
    Message('note_on', channel=6, note=74, velocity=111, time=0),
    Message('note_on', channel=8, note=69, velocity=111, time=0),
    Message('note_on', channel=9, note=44, velocity=53, time=0),
    Message('note_off', channel=9, note=44, velocity=64, time=0),
    Message('note_off', channel=1, note=31, velocity=64, time=1),
    Message('note_off', channel=3, note=62, velocity=64, time=16),
    Message('note_off', channel=8, note=69, velocity=64, time=1),
    Message('note_off', channel=6, note=74, velocity=64, time=5),
    Message('note_off', channel=0, note=50, velocity=64, time=17),
    Message('note_on', channel=0, note=57, velocity=89, time=7),
    Message('note_on', channel=3, note=65, velocity=97, time=1),
    Message('note_on', channel=6, note=72, velocity=127, time=0),
    Message('note_on', channel=6, note=77, velocity=126, time=0),
    Message('note_off', channel=8, note=50, velocity=64, time=0),
    Message('note_on', channel=8, note=50, velocity=113, time=0),
    Message('note_on', channel=8, note=57, velocity=125, time=0),
    Message('note_off', channel=8, note=59, velocity=64, time=0),
    Message('note_on', channel=9, note=35, velocity=127, time=0),
    Message('note_on', channel=9, note=40, velocity=127, time=0),
    Message('note_on', channel=9, note=44, velocity=109, time=0),
    Message('note_off', channel=9, note=35, velocity=64, time=0),
    Message('note_off', channel=9, note=40, velocity=64, time=0),
    Message('note_off', channel=9, note=44, velocity=64, time=0),
    Message('note_on', channel=0, note=50, velocity=89, time=3),
    Message('note_off', channel=0, note=59, velocity=64, time=1),
    Message('note_off', channel=6, note=72, velocity=64, time=39),
    Message('note_on', channel=3, note=62, velocity=94, time=5),
    Message('note_on', channel=6, note=74, velocity=105, time=0),
    Message('note_on', channel=8, note=69, velocity=100, time=0),
    Message('note_on', channel=9, note=35, velocity=120, time=0),
    Message('note_on', channel=9, note=44, velocity=69, time=0),
    Message('note_off', channel=9, note=35, velocity=64, time=0),
    Message('note_off', channel=9, note=44, velocity=64, time=0),
    Message('note_off', channel=6, note=77, velocity=64, time=3),
    Message('note_off', channel=3, note=65, velocity=64, time=1),
    Message('note_off', channel=3, note=62, velocity=64, time=7),
    Message('note_off', channel=8, note=69, velocity=64, time=3),
    Message('note_off', channel=6, note=74, velocity=64, time=2),
    Message('note_off', channel=0, note=50, velocity=64, time=23),
    Message('note_on', channel=1, note=38, velocity=126, time=9),
    Message('note_on', channel=3, note=60, velocity=98, time=0),
    Message('note_on', channel=6, note=72, velocity=125, time=0),
    Message('note_off', channel=8, note=50, velocity=64, time=0),
    Message('note_on', channel=8, note=50, velocity=120, time=0),
    Message('note_off', channel=8, note=57, velocity=64, time=0),
    Message('note_on', channel=8, note=59, velocity=123, time=0),
    Message('note_on', channel=8, note=67, velocity=123, time=0),
    Message('note_on', channel=9, note=40, velocity=127, time=0),
    Message('note_on', channel=9, note=44, velocity=116, time=0),
    Message('note_off', channel=9, note=40, velocity=64, time=0),
    Message('note_off', channel=9, note=44, velocity=64, time=0),
    Message('note_on', channel=0, note=50, velocity=89, time=1),
    Message('note_on', channel=0, note=59, velocity=89, time=0),
    Message('note_off', channel=0, note=57, velocity=64, time=1),
    Message('note_off', channel=1, note=41, velocity=64, time=3),
    Message('note_off', channel=8, note=67, velocity=64, time=15),
    Message('note_off', channel=3, note=60, velocity=64, time=19),
    Message('note_off', channel=6, note=72, velocity=64, time=2),
    Message('note_on', channel=3, note=62, velocity=102, time=7),
    Message('note_on', channel=6, note=74, velocity=121, time=0),
    Message('note_on', channel=8, note=69, velocity=125, time=0),
    Message('note_on', channel=9, note=44, velocity=76, time=0),
    Message('note_off', channel=9, note=44, velocity=64, time=0),
    Message('note_off', channel=0, note=59, velocity=64, time=15),
    Message('note_off', channel=3, note=62, velocity=64, time=4),
    Message('note_off', channel=1, note=38, velocity=64, time=3),
    Message('note_off', channel=0, note=50, velocity=64, time=4),
    Message('note_off', channel=8, note=69, velocity=64, time=16),
    Message('note_off', channel=6, note=74, velocity=64, time=4),
    Message('note_on', channel=0, note=45, velocity=89, time=2),
    Message('note_on', channel=0, note=52, velocity=89, time=0),
    Message('note_on', channel=1, note=21, velocity=124, time=0),
    Message('note_on', channel=2, note=45, velocity=106, time=0),
    Message('note_on', channel=2, note=52, velocity=94, time=0),
    Message('note_off', channel=8, note=50, velocity=64, time=0),
    Message('note_on', channel=8, note=57, velocity=127, time=0),
    Message('note_off', channel=8, note=59, velocity=64, time=0),
    Message('note_on', channel=8, note=64, velocity=127, time=0),
    Message('note_on', channel=9, note=35, velocity=127, time=0),
    Message('note_on', channel=9, note=40, velocity=125, time=0),
    Message('note_on', channel=9, note=49, velocity=103, time=0),
    Message('note_off', channel=9, note=35, velocity=64, time=0),
    Message('note_off', channel=9, note=40, velocity=64, time=0),
    Message('note_off', channel=9, note=49, velocity=64, time=0),
    Message('note_off', channel=2, note=45, velocity=64, time=26),
    Message('note_off', channel=1, note=21, velocity=64, time=1),
    Message('note_off', channel=2, note=52, velocity=64, time=1),
    Message('note_on', channel=1, note=21, velocity=126, time=20),
    Message('note_on', channel=2, note=45, velocity=57, time=0),
    Message('note_on', channel=2, note=52, velocity=71, time=0),
    Message('note_on', channel=3, note=62, velocity=97, time=0),
    Message('pitchwheel', channel=3, pitch=2465, time=0),
    Message('note_on', channel=6, note=76, velocity=127, time=0),
    Message('note_on', channel=8, note=69, velocity=127, time=0),
    Message('note_on', channel=9, note=35, velocity=127, time=0),
    Message('note_on', channel=9, note=44, velocity=83, time=0),
    Message('note_off', channel=9, note=35, velocity=64, time=0),
    Message('note_off', channel=9, note=44, velocity=64, time=0),
    Message('pitchwheel', channel=3, pitch=5185, time=4),
    Message('pitchwheel', channel=3, pitch=6630, time=4),
    Message('pitchwheel', channel=3, pitch=7650, time=4),
    Message('pitchwheel', channel=3, pitch=8191, time=5),
    Message('note_off', channel=2, note=52, velocity=64, time=0),
    Message('note_off', channel=2, note=45, velocity=64, time=10),
    Message('note_off', channel=0, note=45, velocity=64, time=5),
    Message('note_off', channel=0, note=52, velocity=64, time=8),
    Message('note_off', channel=1, note=21, velocity=64, time=5),
    Message('note_on', channel=0, note=45, velocity=89, time=3),
    Message('note_on', channel=0, note=54, velocity=89, time=0),
    Message('note_on', channel=1, note=26, velocity=122, time=0),
    Message('note_on', channel=2, note=45, velocity=108, time=0),
    Message('note_on', channel=2, note=54, velocity=108, time=0),
    Message('note_on', channel=8, note=66, velocity=114, time=0),
    Message('note_on', channel=9, note=40, velocity=127, time=0),
    Message('note_on', channel=9, note=44, velocity=116, time=0),
    Message('note_off', channel=9, note=40, velocity=64, time=0),
    Message('note_off', channel=9, note=44, velocity=64, time=0),
    Message('note_off', channel=8, note=64, velocity=64, time=9),
    Message('pitchwheel', channel=1, pitch=8191, time=18),
    Message('note_off', channel=2, note=45, velocity=64, time=4),
    Message('pitchwheel', channel=3, pitch=7650, time=9),
    Message('note_off', channel=2, note=54, velocity=64, time=0),
    Message('pitchwheel', channel=1, pitch=7131, time=3),
    Message('pitchwheel', channel=3, pitch=5525, time=1),
    Message('note_on', channel=0, note=52, velocity=89, time=4),
    Message('note_on', channel=1, note=33, velocity=115, time=0),
    Message('pitchwheel', channel=1, pitch=0, time=0),
    Message('note_on', channel=2, note=45, velocity=81, time=0),
    Message('note_on', channel=2, note=52, velocity=52, time=0),
    Message('note_off', channel=3, note=62, velocity=64, time=0),
    Message('note_on', channel=9, note=44, velocity=59, time=0),
    Message('pitchwheel', channel=3, pitch=3400, time=0),
    Message('note_off', channel=9, note=44, velocity=64, time=0),
    Message('note_off', channel=1, note=26, velocity=64, time=3),
    Message('pitchwheel', channel=3, pitch=1955, time=1),
    Message('pitchwheel', channel=3, pitch=0, time=4),
    Message('note_off', channel=2, note=45, velocity=64, time=10),
    Message('note_off', channel=2, note=52, velocity=64, time=1),
    Message('note_off', channel=8, note=57, velocity=64, time=15),
    Message('note_off', channel=8, note=66, velocity=64, time=6),
    Message('note_off', channel=0, note=54, velocity=64, time=4),
    Message('pitchwheel', channel=3, pitch=595, time=0),
    Message('note_off', channel=0, note=45, velocity=64, time=0),
    Message('note_on', channel=0, note=45, velocity=89, time=4),
    Message('note_off', channel=0, note=52, velocity=64, time=0),
    Message('note_on', channel=0, note=52, velocity=89, time=0),
    Message('note_on', channel=2, note=45, velocity=108, time=0),
    Message('note_on', channel=2, note=52, velocity=106, time=0),
    Message('note_on', channel=3, note=62, velocity=116, time=0),
    Message('note_on', channel=8, note=57, velocity=121, time=0),
    Message('note_on', channel=8, note=64, velocity=123, time=0),
    Message('note_on', channel=9, note=35, velocity=127, time=0),
    Message('note_on', channel=9, note=40, velocity=125, time=0),
    Message('note_on', channel=9, note=44, velocity=116, time=0),
    Message('pitchwheel', channel=3, pitch=1105, time=0),
    Message('note_off', channel=9, note=35, velocity=64, time=0),
    Message('note_off', channel=9, note=40, velocity=64, time=0),
    Message('note_off', channel=9, note=44, velocity=64, time=0),
    Message('pitchwheel', channel=3, pitch=1700, time=4),
    Message('pitchwheel', channel=3, pitch=2380, time=4),
    Message('pitchwheel', channel=3, pitch=3910, time=5),
    Message('pitchwheel', channel=3, pitch=5950, time=4),
    Message('pitchwheel', channel=3, pitch=8191, time=4),
    Message('note_off', channel=2, note=45, velocity=64, time=2),
    Message('note_off', channel=2, note=52, velocity=64, time=1),
    Message('note_on', channel=2, note=45, velocity=97, time=24),
    Message('note_on', channel=2, note=52, velocity=90, time=0),
    Message('note_on', channel=9, note=35, velocity=127, time=0),
    Message('note_on', channel=9, note=44, velocity=40, time=0),
    Message('note_off', channel=9, note=35, velocity=64, time=0),
    Message('note_off', channel=9, note=44, velocity=64, time=0),
    Message('note_off', channel=2, note=45, velocity=64, time=24),
    Message('note_off', channel=2, note=52, velocity=64, time=0),
    Message('note_off', channel=8, note=57, velocity=64, time=7),
    Message('pitchwheel', channel=3, pitch=8160, time=11),
    Message('note_off', channel=1, note=33, velocity=64, time=2),
    Message('pitchwheel', channel=3, pitch=6205, time=2),
    Message('note_off', channel=0, note=52, velocity=64, time=2),
    Message('note_on', channel=0, note=54, velocity=89, time=0),
    Message('note_on', channel=1, note=28, velocity=115, time=0),
    Message('note_on', channel=2, note=45, velocity=108, time=0),
    Message('note_on', channel=2, note=54, velocity=108, time=0),
    Message('note_on', channel=8, note=57, velocity=116, time=0),
    Message('note_on', channel=8, note=66, velocity=126, time=0),
    Message('note_on', channel=9, note=40, velocity=127, time=0),
    Message('note_on', channel=9, note=44, velocity=105, time=0),
    Message('note_off', channel=9, note=40, velocity=64, time=0),
    Message('note_off', channel=9, note=44, velocity=64, time=0),
    Message('pitchwheel', channel=3, pitch=3230, time=2),
    Message('note_off', channel=8, note=64, velocity=64, time=4),
    Message('pitchwheel', channel=3, pitch=1700, time=0),
    Message('note_off', channel=3, note=62, velocity=64, time=6),
    Message('pitchwheel', channel=3, pitch=1020, time=1),
    Message('pitchwheel', channel=3, pitch=0, time=4),
    Message('note_off', channel=2, note=45, velocity=64, time=15),
    Message('note_off', channel=2, note=54, velocity=64, time=7),
    Message('pitchwheel', channel=3, pitch=0, time=5),
    Message('note_on', channel=2, note=45, velocity=86, time=4),
    Message('note_on', channel=2, note=52, velocity=70, time=0),
    Message('note_on', channel=3, note=62, velocity=116, time=0),
    Message('note_on', channel=9, note=44, velocity=83, time=0),
    Message('pitchwheel', channel=3, pitch=510, time=0),
    Message('note_off', channel=9, note=44, velocity=64, time=0),
    Message('pitchwheel', channel=3, pitch=1870, time=4),
    Message('pitchwheel', channel=3, pitch=3995, time=4),
    Message('pitchwheel', channel=3, pitch=6630, time=5),
    Message('pitchwheel', channel=3, pitch=8191, time=4),
    Message('note_off', channel=2, note=52, velocity=64, time=3),
    Message('note_off', channel=2, note=45, velocity=64, time=2),
    Message('note_off', channel=0, note=45, velocity=64, time=17),
    Message('note_off', channel=8, note=57, velocity=64, time=1),
    Message('note_off', channel=1, note=28, velocity=64, time=4),
    Message('note_on', channel=0, note=45, velocity=89, time=4),
    Message('note_on', channel=0, note=52, velocity=89, time=0),
    Message('note_on', channel=1, note=21, velocity=120, time=0),
    Message('note_on', channel=2, note=45, velocity=108, time=0),
    Message('note_on', channel=2, note=52, velocity=106, time=0),
    Message('note_on', channel=8, note=57, velocity=123, time=0),
    Message('note_on', channel=8, note=64, velocity=123, time=0),
    Message('note_on', channel=9, note=35, velocity=127, time=0),
    Message('note_on', channel=9, note=40, velocity=127, time=0),
    Message('note_on', channel=9, note=44, velocity=116, time=0),
    Message('note_off', channel=9, note=35, velocity=64, time=0),
    Message('note_off', channel=9, note=40, velocity=64, time=0),
    Message('note_off', channel=9, note=44, velocity=64, time=0),
    Message('note_off', channel=0, note=54, velocity=64, time=2),
    Message('note_off', channel=8, note=66, velocity=64, time=0),
    Message('note_off', channel=1, note=21, velocity=64, time=20),
    Message('note_off', channel=2, note=52, velocity=64, time=3),
    Message('note_off', channel=2, note=45, velocity=64, time=3),
    Message('pitchwheel', channel=3, pitch=7480, time=16),
    Message('note_on', channel=1, note=21, velocity=125, time=4),
    Message('note_on', channel=2, note=45, velocity=92, time=0),
    Message('note_on', channel=2, note=52, velocity=94, time=0),
    Message('note_on', channel=9, note=35, velocity=118, time=0),
    Message('note_on', channel=9, note=44, velocity=84, time=0),
    Message('pitchwheel', channel=3, pitch=6205, time=0),
    Message('note_off', channel=9, note=35, velocity=64, time=0),
    Message('note_off', channel=9, note=44, velocity=64, time=0),
    Message('pitchwheel', channel=3, pitch=4335, time=4),
    Message('pitchwheel', channel=3, pitch=0, time=5),
    Message('note_off', channel=3, note=62, velocity=64, time=5),
    Message('note_off', channel=2, note=52, velocity=64, time=8),
    Message('note_off', channel=2, note=45, velocity=64, time=4),
    Message('note_off', channel=8, note=57, velocity=64, time=2),
    Message('pitchwheel', channel=3, pitch=1530, time=10),
    Message('note_off', channel=0, note=45, velocity=64, time=3),
    Message('pitchwheel', channel=3, pitch=1870, time=1),
    Message('note_off', channel=1, note=21, velocity=64, time=3),
    Message('pitchwheel', channel=3, pitch=2295, time=1),
    Message('note_on', channel=0, note=45, velocity=89, time=2),
    Message('note_on', channel=0, note=54, velocity=89, time=0),
    Message('note_on', channel=1, note=26, velocity=112, time=0),
    Message('note_on', channel=2, note=45, velocity=108, time=0),
    Message('note_on', channel=2, note=54, velocity=107, time=0),
    Message('note_on', channel=3, note=62, velocity=99, time=0),
    Message('note_on', channel=8, note=57, velocity=116, time=0),
    Message('note_on', channel=8, note=66, velocity=126, time=0),
    Message('note_on', channel=9, note=40, velocity=127, time=0),
    Message('note_on', channel=9, note=44, velocity=116, time=0),
    Message('note_off', channel=9, note=40, velocity=64, time=0),
    Message('note_off', channel=9, note=44, velocity=64, time=0),
    Message('note_off', channel=0, note=52, velocity=64, time=2),
    Message('pitchwheel', channel=3, pitch=1955, time=0),
    Message('note_off', channel=8, note=64, velocity=64, time=1),
    Message('pitchwheel', channel=3, pitch=2975, time=3),
    Message('pitchwheel', channel=3, pitch=4335, time=5),
    Message('pitchwheel', channel=3, pitch=6205, time=4),
    Message('pitchwheel', channel=3, pitch=8075, time=4),
    Message('pitchwheel', channel=1, pitch=1477, time=2),
    Message('pitchwheel', channel=3, pitch=8191, time=2),
    Message('pitchwheel', channel=1, pitch=8191, time=2),
    Message('note_off', channel=2, note=45, velocity=64, time=7),
    Message('note_off', channel=2, note=54, velocity=64, time=6),
    Message('note_off', channel=0, note=45, velocity=64, time=1),
    Message('pitchwheel', channel=1, pitch=4883, time=7),
    Message('note_on', channel=0, note=45, velocity=89, time=2),
    Message('note_on', channel=0, note=52, velocity=89, time=0),
    Message('note_on', channel=1, note=33, velocity=110, time=0),
    Message('note_on', channel=2, note=45, velocity=94, time=0),
    Message('note_on', channel=2, note=52, velocity=84, time=0),
    Message('note_on', channel=9, note=44, velocity=67, time=0),
    Message('note_off', channel=9, note=44, velocity=64, time=0),
    Message('note_off', channel=1, note=26, velocity=64, time=1),
    Message('pitchwheel', channel=1, pitch=0, time=0),
    Message('note_off', channel=0, note=54, velocity=64, time=17),
    Message('note_off', channel=2, note=52, velocity=64, time=4),
    Message('note_off', channel=2, note=45, velocity=64, time=0),
    Message('note_off', channel=8, note=57, velocity=64, time=12),
    Message('note_off', channel=0, note=45, velocity=64, time=8),
    Message('note_off', channel=0, note=52, velocity=64, time=1),
    Message('note_on', channel=0, note=45, velocity=89, time=5),
    Message('note_on', channel=0, note=52, velocity=89, time=0),
    Message('note_on', channel=2, note=45, velocity=108, time=0),
    Message('note_on', channel=2, note=52, velocity=107, time=0),
    Message('note_on', channel=8, note=57, velocity=121, time=0),
    Message('note_on', channel=8, note=64, velocity=123, time=0),
    Message('note_off', channel=8, note=66, velocity=64, time=0),
    Message('note_on', channel=9, note=35, velocity=127, time=0),
    Message('note_on', channel=9, note=40, velocity=127, time=0),
    Message('note_on', channel=9, note=44, velocity=103, time=0),
    Message('control_change', channel=3, control=1, value=18, time=0),
    Message('note_off', channel=9, note=35, velocity=64, time=0),
    Message('note_off', channel=9, note=40, velocity=64, time=0),
    Message('note_off', channel=9, note=44, velocity=64, time=0),
    Message('control_change', channel=3, control=1, value=104, time=8),
    Message('control_change', channel=3, control=1, value=79, time=9),
    Message('control_change', channel=3, control=1, value=0, time=8),
    Message('note_off', channel=2, note=52, velocity=64, time=4),
    Message('note_off', channel=2, note=45, velocity=64, time=2),
    Message('pitchwheel', channel=3, pitch=7905, time=5),
    Message('pitchwheel', channel=3, pitch=7480, time=4),
    Message('pitchwheel', channel=3, pitch=6800, time=4),
    Message('note_on', channel=2, note=45, velocity=92, time=4),
    Message('note_on', channel=2, note=52, velocity=84, time=0),
    Message('note_on', channel=9, note=35, velocity=120, time=0),
    Message('note_on', channel=9, note=44, velocity=72, time=0),
    Message('pitchwheel', channel=3, pitch=6035, time=0),
    Message('note_off', channel=9, note=35, velocity=64, time=0),
    Message('note_off', channel=9, note=44, velocity=64, time=0),
    Message('pitchwheel', channel=3, pitch=5270, time=4),
    Message('pitchwheel', channel=3, pitch=4505, time=4),
    Message('pitchwheel', channel=3, pitch=3910, time=5),
    Message('pitchwheel', channel=3, pitch=3400, time=4),
    Message('note_off', channel=8, note=57, velocity=64, time=1),
    Message('pitchwheel', channel=3, pitch=3060, time=3),
    Message('note_off', channel=2, note=52, velocity=64, time=1),
    Message('note_off', channel=2, note=45, velocity=64, time=2),
    Message('pitchwheel', channel=3, pitch=2805, time=3),
    Message('pitchwheel', channel=3, pitch=2550, time=5),
    Message('pitchwheel', channel=3, pitch=1870, time=4),
    Message('pitchwheel', channel=3, pitch=850, time=4),
    Message('pitchwheel', channel=3, pitch=0, time=4),
    Message('note_off', channel=8, note=64, velocity=64, time=1),
    Message('note_on', channel=0, note=54, velocity=89, time=3),
    Message('note_on', channel=1, note=28, velocity=120, time=0),
    Message('note_on', channel=2, note=45, velocity=108, time=0),
    Message('note_on', channel=2, note=54, velocity=104, time=0),
    Message('note_on', channel=8, note=57, velocity=107, time=0),
    Message('note_on', channel=8, note=66, velocity=127, time=0),
    Message('note_on', channel=9, note=40, velocity=127, time=0),
    Message('note_on', channel=9, note=44, velocity=122, time=0),
    Message('note_off', channel=9, note=40, velocity=64, time=0),
    Message('note_off', channel=9, note=44, velocity=64, time=0),
    Message('note_off', channel=0, note=52, velocity=64, time=3),
    Message('note_off', channel=1, note=33, velocity=64, time=0),
    Message('note_off', channel=3, note=62, velocity=64, time=2),
    Message('note_off', channel=8, note=57, velocity=64, time=16),
    Message('note_off', channel=2, note=45, velocity=64, time=15),
    Message('note_off', channel=8, note=69, velocity=64, time=0),
    Message('note_off', channel=6, note=76, velocity=64, time=6),
    Message('note_off', channel=2, note=54, velocity=64, time=1),
    Message('note_on', channel=0, note=52, velocity=89, time=5),
    Message('note_on', channel=2, note=45, velocity=104, time=0),
    Message('note_on', channel=2, note=52, velocity=76, time=0),
    Message('note_on', channel=8, note=57, velocity=121, time=0),
    Message('note_on', channel=8, note=64, velocity=123, time=0),
    Message('note_on', channel=9, note=46, velocity=81, time=0),
    Message('note_off', channel=9, note=46, velocity=64, time=0),
    Message('note_off', channel=0, note=54, velocity=64, time=2),
    Message('note_off', channel=2, note=52, velocity=64, time=14),
    Message('note_off', channel=2, note=45, velocity=64, time=1),
    Message('note_off', channel=0, note=45, velocity=64, time=12),
    Message('note_off', channel=8, note=66, velocity=64, time=1),
    Message('note_off', channel=8, note=57, velocity=64, time=7),
    Message('note_off', channel=8, note=64, velocity=64, time=4),
    Message('note_off', channel=1, note=28, velocity=64, time=1),
    Message('note_off', channel=0, note=52, velocity=64, time=3),
    Message('note_on', channel=0, note=43, velocity=89, time=3),
    Message('note_on', channel=0, note=50, velocity=89, time=0),
    Message('note_on', channel=0, note=52, velocity=89, time=0),
    Message('note_on', channel=1, note=19, velocity=126, time=0),
    Message('note_on', channel=2, note=43, velocity=108, time=0),
    Message('note_on', channel=2, note=50, velocity=108, time=0),
    Message('note_on', channel=2, note=55, velocity=108, time=0),
    Message('note_on', channel=3, note=65, velocity=125, time=0),
    Message('note_on', channel=9, note=35, velocity=123, time=0),
    Message('note_on', channel=9, note=44, velocity=125, time=0),
    Message('note_off', channel=9, note=35, velocity=64, time=0),
    Message('note_off', channel=9, note=44, velocity=64, time=0),
    Message('note_on', channel=6, note=77, velocity=127, time=1),
    Message('note_on', channel=6, note=82, velocity=127, time=1),
    Message('note_on', channel=6, note=86, velocity=127, time=0),
    Message('note_on', channel=6, note=91, velocity=127, time=1),
    Message('note_on', channel=8, note=55, velocity=127, time=0),
    Message('note_on', channel=8, note=64, velocity=127, time=0),
    Message('note_on', channel=8, note=62, velocity=127, time=1),
    Message('note_on', channel=8, note=61, velocity=114, time=0),
    Message('note_on', channel=8, note=65, velocity=123, time=0),
    Message('note_on', channel=8, note=58, velocity=90, time=1),
    Message('note_off', channel=0, note=52, velocity=64, time=0),
    Message('note_on', channel=6, note=83, velocity=127, time=1),
    Message('note_off', channel=8, note=65, velocity=64, time=0),
    Message('note_off', channel=6, note=82, velocity=64, time=1),
    Message('note_off', channel=8, note=58, velocity=64, time=1),
    Message('note_off', channel=8, note=61, velocity=64, time=3),
    Message('note_off', channel=3, note=65, velocity=64, time=16),
    Message('note_off', channel=8, note=64, velocity=64, time=4),
    Message('note_off', channel=1, note=19, velocity=64, time=2),
    Message('note_off', channel=0, note=43, velocity=64, time=5),
    Message('note_off', channel=0, note=50, velocity=64, time=4),
    Message('note_on', channel=3, note=65, velocity=80, time=6),
    Message('note_off', channel=6, note=91, velocity=64, time=10),
    Message('note_off', channel=6, note=86, velocity=64, time=3),
    Message('note_off', channel=6, note=83, velocity=64, time=3),
    Message('note_off', channel=8, note=62, velocity=64, time=0),
    Message('note_off', channel=2, note=50, velocity=64, time=1),
    Message('note_off', channel=2, note=43, velocity=64, time=1),
    Message('note_off', channel=8, note=55, velocity=64, time=0),
    Message('note_off', channel=2, note=55, velocity=64, time=2),
    Message('note_off', channel=3, note=65, velocity=64, time=0),
    Message('note_on', channel=9, note=35, velocity=102, time=4),
    Message('note_off', channel=9, note=35, velocity=64, time=0),
    Message('note_on', channel=6, note=76, velocity=82, time=1),
    Message('note_off', channel=6, note=77, velocity=64, time=1),
    Message('note_off', channel=6, note=76, velocity=64, time=3),
    Message('note_on', channel=6, note=74, velocity=76, time=3),
    Message('note_off', channel=6, note=74, velocity=64, time=2),
    Message('note_on', channel=6, note=72, velocity=92, time=1),
    Message('note_off', channel=6, note=72, velocity=64, time=3),
    Message('note_on', channel=8, note=71, velocity=96, time=0),
    Message('note_off', channel=8, note=71, velocity=64, time=3),
    Message('note_on', channel=8, note=69, velocity=90, time=2),
    Message('note_off', channel=8, note=69, velocity=64, time=3),
    Message('note_on', channel=8, note=67, velocity=93, time=0),
    Message('note_on', channel=3, note=65, velocity=94, time=2),
    Message('note_on', channel=9, note=35, velocity=127, time=0),
    Message('note_off', channel=9, note=35, velocity=64, time=0),
    Message('note_off', channel=8, note=67, velocity=64, time=1),
    Message('note_on', channel=8, note=65, velocity=89, time=1),
    Message('note_off', channel=8, note=65, velocity=64, time=3),
    Message('note_on', channel=8, note=64, velocity=85, time=1),
    Message('note_off', channel=8, note=64, velocity=64, time=2),
    Message('note_on', channel=8, note=62, velocity=89, time=1),
    Message('note_off', channel=8, note=62, velocity=64, time=2),
    Message('note_on', channel=8, note=60, velocity=74, time=2),
    Message('note_off', channel=8, note=60, velocity=64, time=2),
    Message('note_on', channel=8, note=59, velocity=76, time=1),
    Message('note_off', channel=8, note=59, velocity=64, time=2),
    Message('note_off', channel=3, note=65, velocity=64, time=2),
    Message('note_on', channel=3, note=65, velocity=99, time=28),
    Message('note_off', channel=3, note=65, velocity=64, time=19),
    Message('note_on', channel=3, note=65, velocity=113, time=29),
    Message('note_on', channel=9, note=35, velocity=125, time=0),
    Message('note_off', channel=9, note=35, velocity=64, time=0),
    Message('note_off', channel=3, note=65, velocity=64, time=18),
    Message('note_on', channel=3, note=65, velocity=120, time=30),
    Message('note_off', channel=3, note=65, velocity=64, time=17),
    Message('note_on', channel=9, note=35, velocity=110, time=7),
    Message('note_off', channel=9, note=35, velocity=64, time=0),
    Message('note_on', channel=3, note=65, velocity=121, time=24),
    Message('note_on', channel=9, note=35, velocity=125, time=0),
    Message('note_off', channel=9, note=35, velocity=64, time=0),
    Message('note_off', channel=3, note=65, velocity=64, time=47),
    Message('note_on', channel=3, note=62, velocity=113, time=1),
    Message('note_off', channel=3, note=62, velocity=64, time=14),
    Message('note_on', channel=3, note=65, velocity=124, time=34),
    Message('note_on', channel=9, note=35, velocity=125, time=0),
    Message('note_off', channel=9, note=35, velocity=64, time=0),
    Message('note_off', channel=3, note=65, velocity=64, time=16),
    Message('note_on', channel=3, note=65, velocity=124, time=32),
    Message('note_on', channel=9, note=35, velocity=102, time=24),
    Message('note_off', channel=9, note=35, velocity=64, time=0),
    Message('note_on', channel=3, note=62, velocity=105, time=24),
    Message('note_on', channel=9, note=35, velocity=127, time=0),
    Message('note_off', channel=9, note=35, velocity=64, time=0),
    Message('note_off', channel=3, note=65, velocity=64, time=1),
    Message('note_off', channel=3, note=62, velocity=64, time=16),
    Message('note_on', channel=3, note=63, velocity=118, time=31),
    Message('pitchwheel', channel=3, pitch=-2721, time=2),
    Message('pitchwheel', channel=3, pitch=-681, time=4),
    Message('pitchwheel', channel=3, pitch=850, time=4),
    Message('pitchwheel', channel=3, pitch=3825, time=5),
    Message('pitchwheel', channel=3, pitch=5610, time=4),
    Message('pitchwheel', channel=3, pitch=7055, time=4),
    Message('pitchwheel', channel=3, pitch=8191, time=4),
    Message('note_on', channel=9, note=35, velocity=127, time=21),
    Message('note_off', channel=9, note=35, velocity=64, time=0),
    Message('note_on', channel=9, note=35, velocity=102, time=72),
    Message('note_off', channel=9, note=35, velocity=64, time=0),
    Message('note_on', channel=9, note=35, velocity=127, time=24),
    Message('note_off', channel=9, note=35, velocity=64, time=0),
    Message('pitchwheel', channel=3, pitch=7735, time=21),
    Message('pitchwheel', channel=3, pitch=7055, time=6),
    Message('pitchwheel', channel=3, pitch=6545, time=6),
    Message('pitchwheel', channel=3, pitch=5865, time=7),
    Message('pitchwheel', channel=3, pitch=5100, time=6),
    Message('pitchwheel', channel=3, pitch=4335, time=4),
    Message('pitchwheel', channel=3, pitch=3230, time=4),
    Message('pitchwheel', channel=3, pitch=850, time=4),
    Message('pitchwheel', channel=3, pitch=-1106, time=5),
    Message('pitchwheel', channel=3, pitch=-3316, time=4),
    Message('pitchwheel', channel=3, pitch=-4506, time=4),
    Message('note_off', channel=3, note=63, velocity=64, time=3),
    Message('pitchwheel', channel=3, pitch=-5101, time=1),
    Message('pitchwheel', channel=3, pitch=0, time=4),
    Message('note_on', channel=1, note=26, velocity=125, time=19),
    Message('note_on', channel=9, note=35, velocity=127, time=0),
    Message('note_on', channel=9, note=49, velocity=126, time=0),
    Message('note_off', channel=9, note=35, velocity=64, time=0),
    Message('note_off', channel=9, note=49, velocity=64, time=0),
    Message('note_off', channel=1, note=26, velocity=64, time=24),
    Message('note_on', channel=1, note=26, velocity=126, time=24),
    Message('note_on', channel=9, note=35, velocity=127, time=0),
    Message('note_off', channel=9, note=35, velocity=64, time=0),
    Message('note_on', channel=0, note=55, velocity=89, time=46),
    Message('note_on', channel=2, note=55, velocity=110, time=0),
    Message('note_on', channel=1, note=31, velocity=126, time=2),
    Message('note_on', channel=9, note=46, velocity=126, time=0),
    Message('note_off', channel=1, note=26, velocity=64, time=0),
    Message('note_off', channel=9, note=46, velocity=64, time=0),
    Message('note_on', channel=9, note=46, velocity=122, time=16),
    Message('note_off', channel=9, note=46, velocity=64, time=0),
    Message('pitchwheel', channel=0, pitch=0, time=2),
    Message('pitchwheel', channel=2, pitch=0, time=0),
    Message('pitchwheel', channel=0, pitch=2805, time=4),
    Message('pitchwheel', channel=2, pitch=2805, time=0),
    Message('pitchwheel', channel=0, pitch=4930, time=4),
    Message('pitchwheel', channel=2, pitch=4930, time=0),
    Message('pitchwheel', channel=1, pitch=3373, time=0),
    Message('pitchwheel', channel=0, pitch=6800, time=4),
    Message('pitchwheel', channel=1, pitch=8191, time=0),
    Message('pitchwheel', channel=2, pitch=6800, time=0),
    Message('note_on', channel=9, note=46, velocity=124, time=2),
    Message('note_off', channel=9, note=46, velocity=64, time=0),
    Message('pitchwheel', channel=0, pitch=8191, time=2),
    Message('pitchwheel', channel=2, pitch=8191, time=0),
    Message('note_on', channel=0, note=60, velocity=89, time=12),
    Message('note_on', channel=0, note=65, velocity=89, time=0),
    Message('note_on', channel=2, note=60, velocity=97, time=0),
    Message('note_on', channel=2, note=65, velocity=91, time=0),
    Message('pitchwheel', channel=0, pitch=0, time=1),
    Message('pitchwheel', channel=2, pitch=0, time=0),
    Message('note_off', channel=1, note=31, velocity=64, time=1),
    Message('note_on', channel=1, note=41, velocity=126, time=0),
    Message('pitchwheel', channel=1, pitch=111, time=1),
    Message('note_off', channel=0, note=55, velocity=64, time=3),
    Message('note_off', channel=2, note=55, velocity=64, time=0),
    Message('pitchwheel', channel=1, pitch=0, time=2),
    Message('note_on', channel=9, note=48, velocity=108, time=41),
    Message('note_off', channel=9, note=48, velocity=64, time=1),
    Message('note_on', channel=9, note=48, velocity=108, time=16),
    Message('note_off', channel=9, note=48, velocity=64, time=0),
    Message('note_on', channel=9, note=48, velocity=108, time=15),
    Message('note_off', channel=9, note=48, velocity=64, time=1),
    Message('control_change', channel=0, control=1, value=23, time=9),
    Message('control_change', channel=2, control=1, value=23, time=0),
    Message('note_on', channel=9, note=48, velocity=108, time=7),
    Message('note_off', channel=9, note=48, velocity=64, time=0),
    Message('control_change', channel=0, control=1, value=53, time=1),
    Message('control_change', channel=2, control=1, value=53, time=0),
    Message('control_change', channel=0, control=1, value=107, time=9),
    Message('control_change', channel=2, control=1, value=107, time=0),
    Message('note_on', channel=9, note=48, velocity=109, time=5),
    Message('note_off', channel=9, note=48, velocity=64, time=1),
    Message('control_change', channel=0, control=1, value=127, time=2),
    Message('control_change', channel=2, control=1, value=127, time=0),
    Message('note_on', channel=9, note=48, velocity=109, time=13),
    Message('note_off', channel=9, note=48, velocity=64, time=1),
    Message('note_on', channel=1, note=38, velocity=126, time=16),
    Message('note_on', channel=9, note=45, velocity=110, time=0),
    Message('note_off', channel=9, note=45, velocity=64, time=0),
    Message('note_off', channel=1, note=41, velocity=64, time=7),
    Message('note_on', channel=9, note=45, velocity=110, time=8),
    Message('note_off', channel=9, note=45, velocity=64, time=1),
    Message('note_on', channel=9, note=45, velocity=111, time=16),
    Message('note_off', channel=9, note=45, velocity=64, time=0),
    Message('control_change', channel=0, control=1, value=111, time=8),
    Message('control_change', channel=2, control=1, value=111, time=0),
    Message('note_on', channel=9, note=43, velocity=111, time=7),
    Message('note_off', channel=9, note=43, velocity=64, time=1),
    Message('control_change', channel=0, control=1, value=107, time=0),
    Message('control_change', channel=2, control=1, value=107, time=0),
    Message('control_change', channel=0, control=1, value=127, time=9),
    Message('control_change', channel=2, control=1, value=127, time=0),
    Message('note_on', channel=9, note=43, velocity=111, time=6),
    Message('note_off', channel=9, note=43, velocity=64, time=1),
    Message('control_change', channel=0, control=1, value=95, time=3),
    Message('control_change', channel=2, control=1, value=95, time=0),
    Message('control_change', channel=0, control=1, value=127, time=8),
    Message('control_change', channel=2, control=1, value=127, time=0),
    Message('note_on', channel=9, note=43, velocity=111, time=5),
    Message('note_off', channel=9, note=43, velocity=64, time=0),
    Message('note_off', channel=0, note=60, velocity=64, time=2),
    Message('note_off', channel=2, note=60, velocity=64, time=0),
    Message('note_off', channel=0, note=65, velocity=64, time=2),
    Message('note_off', channel=2, note=65, velocity=64, time=0),
    Message('control_change', channel=0, control=1, value=107, time=1),
    Message('control_change', channel=2, control=1, value=107, time=0),
    Message('note_off', channel=1, note=38, velocity=64, time=4),
    Message('control_change', channel=0, control=1, value=0, time=5),
    Message('control_change', channel=2, control=1, value=0, time=0),
    Message('note_on', channel=1, note=26, velocity=126, time=2),
    Message('note_on', channel=9, note=35, velocity=127, time=0),
    Message('note_off', channel=9, note=35, velocity=64, time=0),
    Message('note_off', channel=1, note=26, velocity=64, time=16),
    Message('note_on', channel=1, note=26, velocity=126, time=32),
    Message('note_on', channel=9, note=35, velocity=127, time=0),
    Message('note_off', channel=9, note=35, velocity=64, time=0),
    Message('note_off', channel=1, note=26, velocity=64, time=39),
    Message('note_on', channel=0, note=55, velocity=89, time=7),
    Message('note_on', channel=2, note=55, velocity=100, time=0),
    Message('note_on', channel=1, note=31, velocity=126, time=2),
    Message('note_on', channel=9, note=46, velocity=126, time=0),
    Message('note_off', channel=9, note=46, velocity=64, time=0),
    Message('note_on', channel=9, note=46, velocity=126, time=16),
    Message('note_off', channel=9, note=46, velocity=64, time=0),
    Message('pitchwheel', channel=0, pitch=2465, time=10),
    Message('pitchwheel', channel=2, pitch=2465, time=0),
    Message('pitchwheel', channel=1, pitch=8191, time=3),
    Message('pitchwheel', channel=0, pitch=5780, time=1),
    Message('pitchwheel', channel=2, pitch=5780, time=0),
    Message('note_on', channel=9, note=46, velocity=125, time=2),
    Message('note_off', channel=9, note=46, velocity=64, time=0),
    Message('pitchwheel', channel=0, pitch=8191, time=2),
    Message('pitchwheel', channel=2, pitch=8191, time=0),
    Message('pitchwheel', channel=0, pitch=0, time=8),
    Message('pitchwheel', channel=2, pitch=0, time=0),
    Message('note_on', channel=0, note=60, velocity=89, time=4),
    Message('note_on', channel=0, note=65, velocity=89, time=0),
    Message('note_on', channel=2, note=60, velocity=94, time=0),
    Message('note_on', channel=2, note=65, velocity=94, time=0),
    Message('pitchwheel', channel=1, pitch=0, time=0),
    Message('note_on', channel=1, note=41, velocity=126, time=2),
    Message('note_off', channel=1, note=31, velocity=64, time=1),
    Message('note_off', channel=0, note=55, velocity=64, time=2),
    Message('note_off', channel=2, note=55, velocity=64, time=0),
    Message('note_on', channel=9, note=48, velocity=116, time=45),
    Message('note_off', channel=9, note=48, velocity=64, time=0),
    Message('note_on', channel=9, note=48, velocity=116, time=16),
    Message('note_off', channel=9, note=48, velocity=64, time=0),
    Message('note_on', channel=9, note=48, velocity=116, time=16),
    Message('note_off', channel=9, note=48, velocity=64, time=0),
    Message('note_on', channel=9, note=48, velocity=116, time=15),
    Message('note_off', channel=9, note=48, velocity=64, time=1),
    Message('note_on', channel=9, note=48, velocity=116, time=15),
    Message('note_off', channel=9, note=48, velocity=64, time=1),
    Message('control_change', channel=0, control=1, value=27, time=8),
    Message('control_change', channel=2, control=1, value=27, time=0),
    Message('note_on', channel=9, note=48, velocity=116, time=8),
    Message('control_change', channel=0, control=1, value=48, time=0),
    Message('control_change', channel=2, control=1, value=48, time=0),
    Message('note_off', channel=9, note=48, velocity=64, time=0),
    Message('control_change', channel=0, control=1, value=70, time=8),
    Message('control_change', channel=2, control=1, value=70, time=0),
    Message('note_on', channel=1, note=38, velocity=126, time=8),
    Message('note_off', channel=1, note=41, velocity=64, time=0),
    Message('note_on', channel=9, note=45, velocity=116, time=0),
    Message('note_off', channel=9, note=45, velocity=64, time=0),
    Message('control_change', channel=0, control=1, value=101, time=1),
    Message('control_change', channel=2, control=1, value=101, time=0),
    Message('note_on', channel=9, note=45, velocity=116, time=15),
    Message('note_off', channel=9, note=45, velocity=64, time=0),
    Message('control_change', channel=0, control=1, value=111, time=1),
    Message('control_change', channel=2, control=1, value=111, time=0),
    Message('note_on', channel=9, note=45, velocity=116, time=15),
    Message('note_off', channel=9, note=45, velocity=64, time=0),
    Message('control_change', channel=0, control=1, value=118, time=4),
    Message('control_change', channel=2, control=1, value=118, time=0),
    Message('note_on', channel=9, note=43, velocity=116, time=12),
    Message('note_off', channel=9, note=43, velocity=64, time=0),
    Message('control_change', channel=0, control=1, value=114, time=2),
    Message('control_change', channel=2, control=1, value=114, time=0),
    Message('control_change', channel=0, control=1, value=125, time=12),
    Message('control_change', channel=2, control=1, value=125, time=0),
    Message('note_on', channel=9, note=43, velocity=116, time=1),
    Message('note_off', channel=9, note=43, velocity=64, time=1),
    Message('note_off', channel=0, note=65, velocity=64, time=12),
    Message('note_off', channel=2, note=65, velocity=64, time=0),
    Message('control_change', channel=0, control=1, value=107, time=1),
    Message('control_change', channel=2, control=1, value=107, time=0),
    Message('note_on', channel=9, note=43, velocity=116, time=2),
    Message('note_off', channel=0, note=60, velocity=64, time=1),
    Message('note_off', channel=2, note=60, velocity=64, time=0),
    Message('note_off', channel=9, note=43, velocity=64, time=0),
    Message('control_change', channel=0, control=1, value=95, time=5),
    Message('control_change', channel=2, control=1, value=95, time=0),
    Message('note_off', channel=1, note=38, velocity=64, time=3),
    Message('control_change', channel=0, control=1, value=0, time=5),
    Message('control_change', channel=2, control=1, value=0, time=0),
    Message('note_on', channel=1, note=26, velocity=126, time=3),
    Message('note_on', channel=9, note=35, velocity=127, time=0),
    Message('note_off', channel=9, note=35, velocity=64, time=0),
    Message('note_off', channel=1, note=26, velocity=64, time=16),
    Message('note_on', channel=1, note=26, velocity=126, time=32),
    Message('note_on', channel=9, note=35, velocity=127, time=0),
    Message('note_off', channel=9, note=35, velocity=64, time=0),
    Message('note_off', channel=1, note=26, velocity=64, time=39),
    Message('note_on', channel=0, note=55, velocity=89, time=7),
    Message('note_on', channel=2, note=55, velocity=100, time=0),
    Message('note_on', channel=1, note=31, velocity=126, time=2),
    Message('note_on', channel=9, note=46, velocity=126, time=0),
    Message('note_off', channel=9, note=46, velocity=64, time=0),
    Message('note_on', channel=9, note=46, velocity=119, time=16),
    Message('note_off', channel=9, note=46, velocity=64, time=0),
    Message('pitchwheel', channel=0, pitch=2380, time=11),
    Message('pitchwheel', channel=2, pitch=2380, time=0),
    Message('pitchwheel', channel=1, pitch=5718, time=2),
    Message('pitchwheel', channel=0, pitch=5355, time=2),
    Message('pitchwheel', channel=2, pitch=5355, time=0),
    Message('note_on', channel=9, note=46, velocity=125, time=1),
    Message('note_off', channel=9, note=46, velocity=64, time=0),
    Message('pitchwheel', channel=1, pitch=8191, time=1),
    Message('pitchwheel', channel=0, pitch=8191, time=2),
    Message('pitchwheel', channel=2, pitch=8191, time=0),
    Message('pitchwheel', channel=0, pitch=0, time=5),
    Message('pitchwheel', channel=2, pitch=0, time=0),
    Message('pitchwheel', channel=1, pitch=6135, time=3),
    Message('note_on', channel=0, note=60, velocity=89, time=3),
    Message('note_on', channel=0, note=65, velocity=89, time=0),
    Message('note_on', channel=2, note=60, velocity=91, time=0),
    Message('note_on', channel=2, note=65, velocity=94, time=0),
    Message('pitchwheel', channel=1, pitch=0, time=1),
    Message('note_off', channel=1, note=31, velocity=64, time=0),
    Message('note_on', channel=1, note=41, velocity=126, time=1),
    Message('note_off', channel=0, note=55, velocity=64, time=5),
    Message('note_off', channel=2, note=55, velocity=64, time=0),
    Message('note_on', channel=9, note=48, velocity=116, time=42),
    Message('note_off', channel=9, note=48, velocity=64, time=1),
    Message('note_on', channel=9, note=48, velocity=116, time=15),
    Message('note_off', channel=9, note=48, velocity=64, time=1),
    Message('note_on', channel=9, note=48, velocity=116, time=16),
    Message('note_off', channel=9, note=48, velocity=64, time=0),
    Message('note_on', channel=9, note=48, velocity=116, time=15),
    Message('note_off', channel=9, note=48, velocity=64, time=1),
    Message('note_on', channel=9, note=48, velocity=116, time=16),
    Message('note_off', channel=9, note=48, velocity=64, time=0),
    Message('control_change', channel=0, control=1, value=33, time=3),
    Message('control_change', channel=2, control=1, value=33, time=0),
    Message('control_change', channel=0, control=1, value=75, time=9),
    Message('control_change', channel=2, control=1, value=75, time=0),
    Message('note_on', channel=9, note=45, velocity=116, time=3),
    Message('note_off', channel=9, note=45, velocity=64, time=1),
    Message('control_change', channel=0, control=1, value=98, time=4),
    Message('control_change', channel=2, control=1, value=98, time=0),
    Message('control_change', channel=0, control=1, value=114, time=10),
    Message('control_change', channel=2, control=1, value=114, time=0),
    Message('note_on', channel=1, note=38, velocity=126, time=2),
    Message('note_on', channel=9, note=45, velocity=116, time=0),
    Message('note_off', channel=9, note=45, velocity=64, time=0),
    Message('note_off', channel=1, note=41, velocity=64, time=4),
    Message('control_change', channel=0, control=1, value=127, time=4),
    Message('control_change', channel=2, control=1, value=127, time=0),
    Message('note_on', channel=9, note=45, velocity=116, time=7),
    Message('note_off', channel=9, note=45, velocity=64, time=1),
    Message('note_on', channel=9, note=45, velocity=116, time=15),
    Message('note_off', channel=9, note=45, velocity=64, time=1),
    Message('note_on', channel=9, note=43, velocity=116, time=15),
    Message('note_off', channel=9, note=43, velocity=64, time=1),
    Message('note_on', channel=9, note=43, velocity=116, time=16),
    Message('note_off', channel=9, note=43, velocity=64, time=0),
    Message('note_on', channel=9, note=43, velocity=116, time=15),
    Message('note_off', channel=9, note=43, velocity=64, time=1),
    Message('note_off', channel=0, note=60, velocity=64, time=4),
    Message('note_off', channel=2, note=60, velocity=64, time=0),
    Message('note_off', channel=0, note=65, velocity=64, time=2),
    Message('note_off', channel=2, note=65, velocity=64, time=0),
    Message('control_change', channel=0, control=1, value=104, time=3),
    Message('control_change', channel=2, control=1, value=104, time=0),
    Message('note_off', channel=1, note=38, velocity=64, time=0),
    Message('note_on', channel=1, note=26, velocity=126, time=7),
    Message('note_on', channel=9, note=35, velocity=127, time=0),
    Message('note_off', channel=9, note=35, velocity=64, time=0),
    Message('control_change', channel=0, control=1, value=0, time=1),
    Message('control_change', channel=2, control=1, value=0, time=0),
    Message('note_off', channel=1, note=26, velocity=64, time=14),
    Message('note_on', channel=1, note=26, velocity=126, time=33),
    Message('note_on', channel=9, note=35, velocity=127, time=0),
    Message('note_off', channel=9, note=35, velocity=64, time=0),
    Message('note_off', channel=1, note=26, velocity=64, time=42),
    Message('note_on', channel=0, note=55, velocity=89, time=4),
    Message('note_on', channel=2, note=55, velocity=107, time=0),
    Message('note_on', channel=1, note=31, velocity=126, time=2),
    Message('note_on', channel=9, note=46, velocity=126, time=0),
    Message('note_off', channel=9, note=46, velocity=64, time=0),
    Message('note_on', channel=9, note=46, velocity=125, time=16),
    Message('note_off', channel=9, note=46, velocity=64, time=0),
    Message('pitchwheel', channel=1, pitch=1349, time=5),
    Message('pitchwheel', channel=0, pitch=2380, time=4),
    Message('pitchwheel', channel=1, pitch=8191, time=0),
    Message('pitchwheel', channel=2, pitch=2380, time=0),
    Message('pitchwheel', channel=0, pitch=5525, time=4),
    Message('pitchwheel', channel=2, pitch=5525, time=0),
    Message('note_on', channel=9, note=46, velocity=122, time=3),
    Message('note_off', channel=9, note=46, velocity=64, time=0),
    Message('pitchwheel', channel=0, pitch=8191, time=1),
    Message('pitchwheel', channel=2, pitch=8191, time=0),
    Message('pitchwheel', channel=0, pitch=0, time=8),
    Message('pitchwheel', channel=1, pitch=7581, time=0),
    Message('pitchwheel', channel=2, pitch=0, time=0),
    Message('note_on', channel=0, note=60, velocity=89, time=5),
    Message('note_on', channel=0, note=65, velocity=89, time=0),
    Message('pitchwheel', channel=1, pitch=0, time=0),
    Message('note_on', channel=2, note=60, velocity=96, time=0),
    Message('note_on', channel=2, note=65, velocity=97, time=0),
    Message('note_on', channel=1, note=41, velocity=126, time=2),
    Message('note_off', channel=1, note=31, velocity=64, time=1),
    Message('note_off', channel=0, note=55, velocity=64, time=4),
    Message('note_off', channel=2, note=55, velocity=64, time=0),
    Message('note_on', channel=9, note=48, velocity=116, time=42),
    Message('note_off', channel=9, note=48, velocity=64, time=1),
    Message('note_on', channel=9, note=48, velocity=116, time=16),
    Message('note_off', channel=9, note=48, velocity=64, time=0),
    Message('note_on', channel=9, note=48, velocity=116, time=15),
    Message('note_off', channel=9, note=48, velocity=64, time=1),
    Message('control_change', channel=0, control=1, value=19, time=6),
    Message('control_change', channel=2, control=1, value=19, time=0),
    Message('control_change', channel=0, control=1, value=39, time=8),
    Message('control_change', channel=2, control=1, value=39, time=0),
    Message('note_on', channel=9, note=48, velocity=116, time=2),
    Message('note_off', channel=9, note=48, velocity=64, time=0),
    Message('control_change', channel=0, control=1, value=64, time=7),
    Message('control_change', channel=2, control=1, value=64, time=0),
    Message('control_change', channel=0, control=1, value=111, time=8),
    Message('control_change', channel=2, control=1, value=111, time=0),
    Message('note_on', channel=9, note=48, velocity=116, time=1),
    Message('note_off', channel=9, note=48, velocity=64, time=0),
    Message('control_change', channel=0, control=1, value=121, time=7),
    Message('control_change', channel=2, control=1, value=121, time=0),
    Message('note_on', channel=9, note=48, velocity=116, time=9),
    Message('note_off', channel=9, note=48, velocity=64, time=0),
    Message('control_change', channel=0, control=1, value=127, time=12),
    Message('control_change', channel=2, control=1, value=127, time=0),
    Message('note_on', channel=9, note=45, velocity=116, time=3),
    Message('note_on', channel=1, note=38, velocity=126, time=1),
    Message('note_off', channel=9, note=45, velocity=64, time=0),
    Message('note_off', channel=1, note=41, velocity=64, time=5),
    Message('note_on', channel=9, note=45, velocity=116, time=11),
    Message('note_off', channel=9, note=45, velocity=64, time=0),
    Message('note_on', channel=9, note=45, velocity=116, time=15),
    Message('note_off', channel=9, note=45, velocity=64, time=1),
    Message('note_on', channel=9, note=43, velocity=116, time=16),
    Message('note_off', channel=9, note=43, velocity=64, time=0),
    Message('control_change', channel=0, control=1, value=125, time=16),
    Message('control_change', channel=2, control=1, value=125, time=0),
    Message('note_on', channel=9, note=43, velocity=116, time=0),
    Message('note_off', channel=9, note=43, velocity=64, time=0),
    Message('note_off', channel=0, note=60, velocity=64, time=4),
    Message('note_off', channel=2, note=60, velocity=64, time=0),
    Message('note_off', channel=1, note=38, velocity=64, time=2),
    Message('note_off', channel=0, note=65, velocity=64, time=1),
    Message('note_off', channel=2, note=65, velocity=64, time=0),
    Message('control_change', channel=0, control=1, value=82, time=1),
    Message('control_change', channel=2, control=1, value=82, time=0),
    Message('note_on', channel=9, note=43, velocity=116, time=7),
    Message('note_off', channel=9, note=43, velocity=64, time=1),
    Message('control_change', channel=0, control=1, value=0, time=0),
    Message('control_change', channel=2, control=1, value=0, time=0),
    Message('note_on', channel=6, note=74, velocity=127, time=14),
    Message('note_on', channel=8, note=62, velocity=127, time=0),
    Message('note_on', channel=0, note=50, velocity=89, time=2),
    Message('note_on', channel=0, note=57, velocity=89, time=0),
    Message('note_on', channel=1, note=26, velocity=125, time=0),
    Message('note_on', channel=9, note=35, velocity=120, time=0),
    Message('note_on', channel=9, note=40, velocity=120, time=0),
    Message('note_on', channel=9, note=49, velocity=110, time=0),
    Message('note_off', channel=9, note=35, velocity=64, time=0),
    Message('note_off', channel=9, note=40, velocity=64, time=0),
    Message('note_off', channel=9, note=49, velocity=64, time=0),
    Message('note_off', channel=1, note=26, velocity=64, time=24),
    Message('note_on', channel=3, note=77, velocity=100, time=22),
    Message('note_on', channel=6, note=84, velocity=127, time=0),
    Message('note_on', channel=6, note=89, velocity=126, time=0),
    Message('note_on', channel=1, note=26, velocity=126, time=2),
    Message('note_on', channel=9, note=35, velocity=109, time=0),
    Message('note_on', channel=9, note=44, velocity=75, time=0),
    Message('note_off', channel=9, note=35, velocity=64, time=0),
    Message('note_off', channel=9, note=44, velocity=64, time=0),
    Message('note_on', channel=5, note=72, velocity=96, time=1),
    Message('control_change', channel=5, control=1, value=1, time=26),
    Message('control_change', channel=5, control=1, value=17, time=8),
    Message('note_off', channel=0, note=50, velocity=64, time=6),
    Message('control_change', channel=5, control=1, value=59, time=3),
    Message('note_off', channel=6, note=74, velocity=64, time=2),
    Message('note_off', channel=8, note=62, velocity=64, time=0),
    Message('note_on', channel=8, note=62, velocity=107, time=0),
    Message('note_on', channel=8, note=71, velocity=127, time=0),
    Message('note_on', channel=1, note=31, velocity=126, time=2),
    Message('note_on', channel=9, note=40, velocity=127, time=0),
    Message('note_on', channel=9, note=44, velocity=103, time=0),
    Message('note_off', channel=1, note=26, velocity=64, time=0),
    Message('note_off', channel=9, note=40, velocity=64, time=0),
    Message('note_off', channel=9, note=44, velocity=64, time=0),
    Message('note_off', channel=0, note=57, velocity=64, time=2),
    Message('note_on', channel=0, note=59, velocity=89, time=0),
    Message('note_on', channel=0, note=50, velocity=89, time=1),
    Message('control_change', channel=3, control=1, value=30, time=0),
    Message('control_change', channel=5, control=1, value=111, time=2),
    Message('control_change', channel=3, control=1, value=111, time=7),
    Message('control_change', channel=5, control=1, value=127, time=2),
    Message('control_change', channel=3, control=1, value=127, time=6),
    Message('pitchwheel', channel=1, pitch=3373, time=6),
    Message('pitchwheel', channel=1, pitch=8191, time=4),
    Message('note_off', channel=6, note=84, velocity=64, time=3),
    Message('control_change', channel=5, control=1, value=80, time=1),
    Message('note_off', channel=6, note=89, velocity=64, time=5),
    Message('control_change', channel=5, control=1, value=0, time=3),
    Message('note_on', channel=3, note=74, velocity=90, time=4),
    Message('note_on', channel=6, note=81, velocity=123, time=0),
    Message('note_on', channel=6, note=86, velocity=125, time=0),
    Message('control_change', channel=3, control=1, value=0, time=1),
    Message('note_off', channel=1, note=31, velocity=64, time=1),
    Message('note_on', channel=1, note=41, velocity=126, time=0),
    Message('note_on', channel=9, note=44, velocity=67, time=0),
    Message('note_off', channel=9, note=44, velocity=64, time=0),
    Message('note_off', channel=3, note=77, velocity=64, time=1),
    Message('pitchwheel', channel=1, pitch=111, time=0),
    Message('note_on', channel=5, note=69, velocity=85, time=1),
    Message('note_off', channel=5, note=72, velocity=64, time=2),
    Message('pitchwheel', channel=1, pitch=0, time=2),
    Message('note_off', channel=3, note=74, velocity=64, time=6),
    Message('note_off', channel=5, note=69, velocity=64, time=0),
    Message('note_off', channel=6, note=81, velocity=64, time=9),
    Message('note_off', channel=6, note=86, velocity=64, time=1),
    Message('note_off', channel=0, note=50, velocity=64, time=20),
    Message('note_on', channel=3, note=77, velocity=92, time=4),
    Message('note_on', channel=6, note=84, velocity=127, time=0),
    Message('note_on', channel=6, note=89, velocity=126, time=0),
    Message('note_off', channel=8, note=62, velocity=64, time=0),
    Message('note_on', channel=8, note=62, velocity=109, time=0),
    Message('note_on', channel=8, note=69, velocity=113, time=0),
    Message('note_off', channel=8, note=71, velocity=64, time=0),
    Message('note_on', channel=9, note=35, velocity=120, time=2),
    Message('note_on', channel=9, note=40, velocity=120, time=0),
    Message('note_on', channel=9, note=44, velocity=99, time=0),
    Message('note_off', channel=9, note=35, velocity=64, time=0),
    Message('note_off', channel=9, note=40, velocity=64, time=0),
    Message('note_off', channel=9, note=44, velocity=64, time=0),
    Message('note_on', channel=0, note=57, velocity=89, time=1),
    Message('note_on', channel=5, note=72, velocity=83, time=0),
    Message('note_on', channel=0, note=50, velocity=89, time=1),
    Message('note_off', channel=0, note=59, velocity=64, time=2),
    Message('note_off', channel=6, note=84, velocity=64, time=33),
    Message('note_on', channel=3, note=74, velocity=83, time=9),
    Message('note_off', channel=3, note=77, velocity=64, time=0),
    Message('note_on', channel=6, note=81, velocity=107, time=0),
    Message('note_on', channel=6, note=86, velocity=111, time=0),
    Message('note_on', channel=5, note=69, velocity=83, time=1),
    Message('note_off', channel=6, note=89, velocity=64, time=0),
    Message('note_on', channel=9, note=35, velocity=122, time=1),
    Message('note_on', channel=9, note=44, velocity=64, time=0),
    Message('note_off', channel=9, note=35, velocity=64, time=0),
    Message('note_off', channel=9, note=44, velocity=64, time=0),
    Message('note_off', channel=5, note=72, velocity=64, time=2),
    Message('note_off', channel=5, note=69, velocity=64, time=8),
    Message('note_off', channel=3, note=74, velocity=64, time=1),
    Message('note_off', channel=6, note=81, velocity=64, time=0),
    Message('note_off', channel=6, note=86, velocity=64, time=1),
    Message('note_off', channel=0, note=50, velocity=64, time=23),
    Message('note_on', channel=5, note=67, velocity=64, time=8),
    Message('note_on', channel=3, note=72, velocity=95, time=3),
    Message('note_on', channel=6, note=79, velocity=127, time=0),
    Message('note_on', channel=6, note=84, velocity=127, time=0),
    Message('note_off', channel=8, note=62, velocity=64, time=0),
    Message('note_on', channel=8, note=62, velocity=111, time=0),
    Message('note_off', channel=8, note=69, velocity=64, time=0),
    Message('note_on', channel=8, note=71, velocity=127, time=0),
    Message('note_on', channel=0, note=50, velocity=89, time=1),
    Message('note_on', channel=1, note=38, velocity=126, time=1),
    Message('note_on', channel=9, note=40, velocity=127, time=0),
    Message('note_on', channel=9, note=44, velocity=105, time=0),
    Message('note_off', channel=0, note=57, velocity=64, time=0),
    Message('note_on', channel=0, note=59, velocity=89, time=0),
    Message('note_off', channel=9, note=40, velocity=64, time=0),
    Message('note_off', channel=9, note=44, velocity=64, time=0),
    Message('note_off', channel=1, note=41, velocity=64, time=7),
    Message('note_off', channel=5, note=67, velocity=64, time=5),
    Message('note_off', channel=3, note=72, velocity=64, time=5),
    Message('note_off', channel=6, note=79, velocity=64, time=6),
    Message('note_off', channel=6, note=84, velocity=64, time=15),
    Message('note_on', channel=5, note=69, velocity=83, time=5),
    Message('note_on', channel=3, note=74, velocity=100, time=3),
    Message('note_on', channel=6, note=81, velocity=127, time=0),
    Message('note_on', channel=6, note=86, velocity=127, time=0),
    Message('note_on', channel=9, note=44, velocity=77, time=2),
    Message('note_off', channel=9, note=44, velocity=64, time=0),
    Message('control_change', channel=5, control=1, value=97, time=21),
    Message('note_off', channel=6, note=86, velocity=64, time=2),
    Message('note_off', channel=6, note=81, velocity=64, time=1),
    Message('control_change', channel=5, control=1, value=126, time=5),
    Message('control_change', channel=3, control=1, value=11, time=8),
    Message('note_off', channel=3, note=74, velocity=64, time=2),
    Message('note_off', channel=0, note=50, velocity=64, time=1),
    Message('note_off', channel=1, note=38, velocity=64, time=1),
    Message('control_change', channel=5, control=1, value=61, time=1),
    Message('control_change', channel=3, control=1, value=1, time=3),
    Message('note_off', channel=8, note=62, velocity=64, time=1),
    Message('note_on', channel=8, note=62, velocity=116, time=0),
    Message('note_on', channel=8, note=69, velocity=127, time=0),
    Message('note_off', channel=8, note=71, velocity=64, time=0),
    Message('note_on', channel=1, note=26, velocity=126, time=2),
    Message('note_on', channel=9, note=35, velocity=118, time=0),
    Message('note_on', channel=9, note=40, velocity=125, time=0),
    Message('note_on', channel=9, note=44, velocity=107, time=0),
    Message('note_off', channel=9, note=35, velocity=64, time=0),
    Message('note_off', channel=9, note=40, velocity=64, time=0),
    Message('note_off', channel=9, note=44, velocity=64, time=0),
    Message('note_on', channel=0, note=57, velocity=89, time=1),
    Message('note_on', channel=0, note=50, velocity=89, time=0),
    Message('control_change', channel=5, control=1, value=62, time=2),
    Message('note_off', channel=0, note=59, velocity=64, time=1),
    Message('control_change', channel=3, control=1, value=127, time=2),
    Message('note_off', channel=5, note=69, velocity=64, time=0),
    Message('control_change', channel=5, control=1, value=85, time=5),
    Message('note_off', channel=1, note=26, velocity=64, time=5),
    Message('control_change', channel=5, control=1, value=0, time=2),
    Message('control_change', channel=3, control=1, value=0, time=2),
    Message('note_on', channel=3, note=77, velocity=103, time=26),
    Message('note_on', channel=6, note=84, velocity=127, time=0),
    Message('note_on', channel=6, note=89, velocity=126, time=0),
    Message('note_on', channel=1, note=26, velocity=126, time=2),
    Message('note_on', channel=5, note=72, velocity=71, time=0),
    Message('note_on', channel=9, note=35, velocity=114, time=0),
    Message('note_on', channel=9, note=44, velocity=83, time=0),
    Message('note_off', channel=9, note=35, velocity=64, time=0),
    Message('note_off', channel=9, note=44, velocity=64, time=0),
    Message('control_change', channel=3, control=1, value=8, time=35),
    Message('note_off', channel=0, note=50, velocity=64, time=3),
    Message('note_off', channel=1, note=26, velocity=64, time=1),
    Message('control_change', channel=5, control=1, value=5, time=1),
    Message('control_change', channel=3, control=1, value=31, time=3),
    Message('note_off', channel=8, note=62, velocity=64, time=3),
    Message('note_on', channel=8, note=62, velocity=103, time=0),
    Message('note_off', channel=8, note=69, velocity=64, time=0),
    Message('note_on', channel=8, note=71, velocity=127, time=0),
    Message('note_on', channel=0, note=50, velocity=89, time=2),
    Message('note_on', channel=1, note=31, velocity=126, time=0),
    Message('note_on', channel=9, note=40, velocity=127, time=0),
    Message('note_on', channel=9, note=44, velocity=109, time=0),
    Message('note_off', channel=0, note=57, velocity=64, time=0),
    Message('note_off', channel=9, note=40, velocity=64, time=0),
    Message('note_off', channel=9, note=44, velocity=64, time=0),
    Message('note_on', channel=0, note=59, velocity=89, time=1),
    Message('control_change', channel=5, control=1, value=33, time=0),
    Message('control_change', channel=3, control=1, value=17, time=3),
    Message('control_change', channel=5, control=1, value=107, time=6),
    Message('control_change', channel=3, control=1, value=68, time=2),
    Message('control_change', channel=5, control=1, value=127, time=7),
    Message('control_change', channel=3, control=1, value=127, time=1),
    Message('pitchwheel', channel=1, pitch=8191, time=9),
    Message('note_off', channel=3, note=77, velocity=64, time=16),
    Message('control_change', channel=5, control=1, value=0, time=0),
    Message('note_off', channel=6, note=84, velocity=64, time=0),
    Message('note_on', channel=3, note=74, velocity=93, time=1),
    Message('note_on', channel=6, note=81, velocity=113, time=0),
    Message('note_on', channel=6, note=86, velocity=113, time=0),
    Message('pitchwheel', channel=1, pitch=0, time=0),
    Message('note_on', channel=1, note=41, velocity=126, time=2),
    Message('note_on', channel=9, note=44, velocity=77, time=0),
    Message('note_off', channel=9, note=44, velocity=64, time=0),
    Message('note_off', channel=1, note=31, velocity=64, time=1),
    Message('note_on', channel=5, note=69, velocity=85, time=2),
    Message('note_off', channel=6, note=89, velocity=64, time=1),
    Message('note_off', channel=5, note=72, velocity=64, time=1),
    Message('control_change', channel=3, control=1, value=0, time=1),
    Message('note_off', channel=3, note=74, velocity=64, time=7),
    Message('note_off', channel=5, note=69, velocity=64, time=3),
    Message('note_off', channel=6, note=81, velocity=64, time=19),
    Message('note_off', channel=6, note=86, velocity=64, time=5),
    Message('note_off', channel=0, note=50, velocity=64, time=1),
    Message('note_on', channel=3, note=77, velocity=95, time=5),
    Message('note_on', channel=6, note=84, velocity=127, time=0),
    Message('note_on', channel=6, note=89, velocity=123, time=0),
    Message('note_off', channel=8, note=62, velocity=64, time=0),
    Message('note_on', channel=8, note=62, velocity=118, time=0),
    Message('note_on', channel=8, note=69, velocity=125, time=0),
    Message('note_off', channel=8, note=71, velocity=64, time=0),
    Message('note_on', channel=5, note=72, velocity=46, time=1),
    Message('note_on', channel=9, note=35, velocity=120, time=1),
    Message('note_on', channel=9, note=40, velocity=116, time=0),
    Message('note_on', channel=9, note=44, velocity=119, time=0),
    Message('note_on', channel=0, note=57, velocity=89, time=0),
    Message('note_off', channel=9, note=35, velocity=64, time=0),
    Message('note_off', channel=9, note=40, velocity=64, time=0),
    Message('note_off', channel=9, note=44, velocity=64, time=0),
    Message('note_on', channel=0, note=50, velocity=89, time=2),
    Message('note_off', channel=0, note=59, velocity=64, time=3),
    Message('control_change', channel=5, control=1, value=1, time=23),
    Message('control_change', channel=5, control=1, value=76, time=10),
    Message('note_off', channel=6, note=84, velocity=64, time=2),
    Message('note_off', channel=3, note=77, velocity=64, time=5),
    Message('note_on', channel=3, note=74, velocity=97, time=1),
    Message('note_on', channel=6, note=81, velocity=103, time=0),
    Message('note_on', channel=6, note=86, velocity=107, time=0),
    Message('control_change', channel=5, control=1, value=0, time=1),
    Message('note_off', channel=6, note=89, velocity=64, time=0),
    Message('note_on', channel=5, note=69, velocity=77, time=1),
    Message('note_on', channel=9, note=35, velocity=127, time=0),
    Message('note_on', channel=9, note=44, velocity=77, time=0),
    Message('note_off', channel=9, note=35, velocity=64, time=0),
    Message('note_off', channel=9, note=44, velocity=64, time=0),
    Message('note_off', channel=5, note=72, velocity=64, time=5),
    Message('note_off', channel=3, note=74, velocity=64, time=4),
    Message('note_off', channel=5, note=69, velocity=64, time=4),
    Message('note_off', channel=6, note=81, velocity=64, time=3),
    Message('note_off', channel=6, note=86, velocity=64, time=3),
    Message('note_off', channel=0, note=50, velocity=64, time=20),
    Message('note_on', channel=5, note=67, velocity=70, time=5),
    Message('note_on', channel=3, note=72, velocity=97, time=2),
    Message('note_on', channel=6, note=79, velocity=126, time=0),
    Message('note_on', channel=6, note=84, velocity=123, time=0),
    Message('note_off', channel=8, note=62, velocity=64, time=0),
    Message('note_on', channel=8, note=62, velocity=103, time=0),
    Message('note_off', channel=8, note=69, velocity=64, time=0),
    Message('note_on', channel=8, note=71, velocity=123, time=0),
    Message('note_on', channel=0, note=50, velocity=89, time=2),
    Message('note_on', channel=1, note=38, velocity=126, time=0),
    Message('note_off', channel=1, note=41, velocity=64, time=0),
    Message('note_on', channel=9, note=40, velocity=127, time=0),
    Message('note_on', channel=9, note=44, velocity=116, time=0),
    Message('note_on', channel=0, note=59, velocity=89, time=0),
    Message('note_off', channel=9, note=40, velocity=64, time=0),
    Message('note_off', channel=9, note=44, velocity=64, time=0),
    Message('note_off', channel=0, note=57, velocity=64, time=1),
    Message('note_off', channel=3, note=72, velocity=64, time=8),
    Message('note_off', channel=5, note=67, velocity=64, time=4),
    Message('note_off', channel=6, note=79, velocity=64, time=3),
    Message('note_off', channel=6, note=84, velocity=64, time=25),
    Message('note_on', channel=5, note=69, velocity=87, time=4),
    Message('note_on', channel=3, note=74, velocity=98, time=1),
    Message('note_on', channel=6, note=81, velocity=113, time=0),
    Message('note_on', channel=6, note=86, velocity=113, time=0),
    Message('note_on', channel=9, note=44, velocity=87, time=2),
    Message('note_off', channel=9, note=44, velocity=64, time=0),
    Message('note_off', channel=5, note=69, velocity=64, time=17),
    Message('note_off', channel=6, note=81, velocity=64, time=1),
    Message('note_off', channel=6, note=86, velocity=64, time=3),
    Message('control_change', channel=3, control=1, value=125, time=12),
    Message('note_off', channel=0, note=50, velocity=64, time=5),
    Message('note_off', channel=1, note=38, velocity=64, time=2),
    Message('control_change', channel=3, control=1, value=0, time=3),
    Message('note_off', channel=8, note=62, velocity=64, time=3),
    Message('note_on', channel=8, note=62, velocity=113, time=0),
    Message('note_on', channel=8, note=69, velocity=125, time=0),
    Message('note_off', channel=8, note=71, velocity=64, time=0),
    Message('note_on', channel=0, note=57, velocity=89, time=1),
    Message('note_on', channel=1, note=26, velocity=126, time=1),
    Message('note_on', channel=9, note=35, velocity=127, time=0),
    Message('note_on', channel=9, note=40, velocity=125, time=0),
    Message('note_on', channel=9, note=44, velocity=113, time=0),
    Message('note_off', channel=9, note=35, velocity=64, time=0),
    Message('note_off', channel=9, note=40, velocity=64, time=0),
    Message('note_off', channel=9, note=44, velocity=64, time=0),
    Message('note_off', channel=3, note=74, velocity=64, time=1),
    Message('note_on', channel=0, note=50, velocity=89, time=0),
    Message('note_off', channel=0, note=59, velocity=64, time=3),
    Message('control_change', channel=3, control=1, value=127, time=2),
    Message('note_off', channel=1, note=26, velocity=64, time=10),
    Message('control_change', channel=3, control=1, value=0, time=2),
    Message('note_on', channel=3, note=77, velocity=102, time=28),
    Message('note_on', channel=6, note=84, velocity=127, time=0),
    Message('note_on', channel=6, note=89, velocity=127, time=0),
    Message('note_on', channel=1, note=26, velocity=126, time=2),
    Message('note_on', channel=9, note=35, velocity=127, time=0),
    Message('note_on', channel=9, note=44, velocity=83, time=0),
    Message('note_on', channel=5, note=72, velocity=91, time=0),
    Message('note_off', channel=9, note=35, velocity=64, time=0),
    Message('note_off', channel=9, note=44, velocity=64, time=0),
    Message('control_change', channel=5, control=1, value=2, time=27),
    Message('note_off', channel=0, note=50, velocity=64, time=8),
    Message('control_change', channel=5, control=1, value=33, time=1),
    Message('note_off', channel=1, note=26, velocity=64, time=3),
    Message('note_on', channel=0, note=50, velocity=89, time=6),
    Message('control_change', channel=5, control=1, value=47, time=0),
    Message('note_off', channel=0, note=57, velocity=64, time=1),
    Message('note_off', channel=8, note=62, velocity=64, time=0),
    Message('note_on', channel=8, note=62, velocity=118, time=0),
    Message('note_off', channel=8, note=69, velocity=64, time=0),
    Message('note_on', channel=8, note=71, velocity=125, time=0),
    Message('note_on', channel=0, note=59, velocity=89, time=0),
    Message('note_on', channel=1, note=31, velocity=126, time=2),
    Message('note_on', channel=9, note=40, velocity=127, time=0),
    Message('note_on', channel=9, note=44, velocity=116, time=0),
    Message('note_off', channel=9, note=40, velocity=64, time=0),
    Message('note_off', channel=9, note=44, velocity=64, time=0),
    Message('control_change', channel=3, control=1, value=12, time=4),
    Message('control_change', channel=5, control=1, value=83, time=2),
    Message('control_change', channel=3, control=1, value=2, time=6),
    Message('control_change', channel=5, control=1, value=116, time=5),
    Message('control_change', channel=3, control=1, value=127, time=4),
    Message('control_change', channel=5, control=1, value=116, time=3),
    Message('pitchwheel', channel=1, pitch=5718, time=5),
    Message('pitchwheel', channel=1, pitch=8191, time=4),
    Message('control_change', channel=5, control=1, value=0, time=0),
    Message('note_off', channel=3, note=77, velocity=64, time=7),
    Message('note_off', channel=5, note=72, velocity=64, time=2),
    Message('pitchwheel', channel=1, pitch=6135, time=1),
    Message('note_off', channel=6, note=84, velocity=64, time=0),
    Message('control_change', channel=3, control=1, value=0, time=0),
    Message('note_on', channel=5, note=69, velocity=73, time=1),
    Message('note_on', channel=3, note=74, velocity=86, time=2),
    Message('note_on', channel=6, note=81, velocity=109, time=0),
    Message('note_on', channel=6, note=86, velocity=109, time=0),
    Message('pitchwheel', channel=1, pitch=0, time=1),
    Message('note_off', channel=1, note=31, velocity=64, time=0),
    Message('note_on', channel=1, note=41, velocity=126, time=1),
    Message('note_on', channel=9, note=44, velocity=66, time=0),
    Message('note_off', channel=6, note=89, velocity=64, time=0),
    Message('note_off', channel=9, note=44, velocity=64, time=0),
    Message('note_off', channel=5, note=69, velocity=64, time=9),
    Message('note_off', channel=6, note=81, velocity=64, time=3),
    Message('note_off', channel=3, note=74, velocity=64, time=9),
    Message('note_off', channel=6, note=86, velocity=64, time=2),
    Message('note_off', channel=0, note=50, velocity=64, time=14),
    Message('note_on', channel=5, note=72, velocity=89, time=8),
    Message('note_on', channel=0, note=57, velocity=89, time=1),
    Message('note_on', channel=3, note=77, velocity=99, time=0),
    Message('note_on', channel=6, note=84, velocity=127, time=0),
    Message('note_on', channel=6, note=89, velocity=121, time=0),
    Message('note_off', channel=8, note=62, velocity=64, time=0),
    Message('note_on', channel=8, note=62, velocity=113, time=0),
    Message('note_on', channel=8, note=69, velocity=125, time=0),
    Message('note_off', channel=8, note=71, velocity=64, time=0),
    Message('note_on', channel=0, note=50, velocity=89, time=1),
    Message('note_on', channel=9, note=35, velocity=127, time=1),
    Message('note_on', channel=9, note=40, velocity=125, time=0),
    Message('note_on', channel=9, note=44, velocity=116, time=0),
    Message('note_off', channel=9, note=35, velocity=64, time=0),
    Message('note_off', channel=9, note=40, velocity=64, time=0),
    Message('note_off', channel=9, note=44, velocity=64, time=0),
    Message('note_off', channel=0, note=59, velocity=64, time=3),
    Message('control_change', channel=5, control=1, value=1, time=10),
    Message('control_change', channel=5, control=1, value=21, time=8),
    Message('control_change', channel=5, control=1, value=95, time=8),
    Message('control_change', channel=5, control=1, value=91, time=8),
    Message('note_off', channel=6, note=84, velocity=64, time=5),
    Message('control_change', channel=5, control=1, value=0, time=3),
    Message('note_on', channel=3, note=74, velocity=92, time=1),
    Message('note_on', channel=6, note=81, velocity=99, time=0),
    Message('note_on', channel=6, note=86, velocity=109, time=0),
    Message('note_on', channel=5, note=69, velocity=83, time=0),
    Message('note_off', channel=3, note=77, velocity=64, time=1),
    Message('note_off', channel=6, note=89, velocity=64, time=1),
    Message('note_on', channel=9, note=35, velocity=127, time=0),
    Message('note_on', channel=9, note=44, velocity=81, time=0),
    Message('note_off', channel=9, note=35, velocity=64, time=0),
    Message('note_off', channel=9, note=44, velocity=64, time=0),
    Message('note_off', channel=5, note=72, velocity=64, time=4),
    Message('note_off', channel=3, note=74, velocity=64, time=7),
    Message('note_off', channel=5, note=69, velocity=64, time=0),
    Message('note_off', channel=6, note=81, velocity=64, time=2),
    Message('note_off', channel=6, note=86, velocity=64, time=7),
    Message('note_off', channel=0, note=50, velocity=64, time=16),
    Message('note_on', channel=5, note=67, velocity=64, time=6),
    Message('note_on', channel=0, note=59, velocity=89, time=2),
    Message('note_on', channel=0, note=50, velocity=89, time=2),
    Message('note_on', channel=3, note=72, velocity=102, time=0),
    Message('note_on', channel=6, note=79, velocity=126, time=0),
    Message('note_on', channel=6, note=84, velocity=127, time=0),
    Message('note_off', channel=8, note=62, velocity=64, time=0),
    Message('note_on', channel=8, note=62, velocity=98, time=0),
    Message('note_off', channel=8, note=69, velocity=64, time=0),
    Message('note_on', channel=8, note=71, velocity=118, time=0),
    Message('note_off', channel=0, note=57, velocity=64, time=0),
    Message('note_on', channel=1, note=38, velocity=126, time=2),
    Message('note_on', channel=9, note=40, velocity=127, time=0),
    Message('note_on', channel=9, note=44, velocity=103, time=0),
    Message('note_off', channel=9, note=40, velocity=64, time=0),
    Message('note_off', channel=9, note=44, velocity=64, time=0),
    Message('note_off', channel=1, note=41, velocity=64, time=4),
    Message('note_off', channel=3, note=72, velocity=64, time=5),
    Message('note_off', channel=5, note=67, velocity=64, time=1),
    Message('note_off', channel=6, note=79, velocity=64, time=5),
    Message('note_off', channel=6, note=84, velocity=64, time=20),
    Message('note_on', channel=3, note=74, velocity=94, time=11),
    Message('note_on', channel=6, note=81, velocity=118, time=0),
    Message('note_on', channel=6, note=86, velocity=116, time=0),
    Message('note_on', channel=5, note=69, velocity=94, time=1),
    Message('note_on', channel=9, note=44, velocity=69, time=1),
    Message('note_off', channel=9, note=44, velocity=64, time=0),
    Message('note_off', channel=6, note=81, velocity=64, time=19),
    Message('note_off', channel=5, note=69, velocity=64, time=1),
    Message('note_off', channel=6, note=86, velocity=64, time=2),
    Message('control_change', channel=3, control=1, value=3, time=11),
    Message('note_off', channel=0, note=50, velocity=64, time=4),
    Message('note_off', channel=1, note=38, velocity=64, time=4),
    Message('control_change', channel=3, control=1, value=127, time=0),
    Message('note_off', channel=3, note=74, velocity=64, time=2),
    Message('note_on', channel=0, note=57, velocity=89, time=2),
    Message('note_off', channel=8, note=62, velocity=64, time=1),
    Message('note_on', channel=8, note=62, velocity=126, time=0),
    Message('note_on', channel=8, note=69, velocity=121, time=0),
    Message('note_off', channel=8, note=71, velocity=64, time=0),
    Message('note_on', channel=1, note=26, velocity=126, time=2),
    Message('note_on', channel=9, note=35, velocity=127, time=0),
    Message('note_on', channel=9, note=40, velocity=127, time=0),
    Message('note_on', channel=9, note=44, velocity=97, time=0),
    Message('note_on', channel=0, note=50, velocity=89, time=0),
    Message('note_off', channel=9, note=35, velocity=64, time=0),
    Message('note_off', channel=9, note=40, velocity=64, time=0),
    Message('note_off', channel=9, note=44, velocity=64, time=0),
    Message('note_off', channel=0, note=59, velocity=64, time=4),
    Message('control_change', channel=3, control=1, value=0, time=2),
    Message('note_off', channel=1, note=26, velocity=64, time=9),
    Message('note_on', channel=3, note=77, velocity=104, time=31),
    Message('note_on', channel=6, note=84, velocity=127, time=0),
    Message('note_on', channel=6, note=89, velocity=125, time=0),
    Message('note_on', channel=1, note=26, velocity=126, time=2),
    Message('note_on', channel=9, note=35, velocity=118, time=0),
    Message('note_on', channel=9, note=44, velocity=76, time=0),
    Message('note_off', channel=9, note=35, velocity=64, time=0),
    Message('note_off', channel=9, note=44, velocity=64, time=0),
    Message('note_on', channel=5, note=72, velocity=94, time=2),
    Message('note_off', channel=0, note=50, velocity=64, time=32),
    Message('note_off', channel=1, note=26, velocity=64, time=8),
    Message('note_off', channel=8, note=62, velocity=64, time=4),
    Message('note_on', channel=8, note=62, velocity=111, time=0),
    Message('note_off', channel=8, note=69, velocity=64, time=0),
    Message('note_on', channel=8, note=71, velocity=125, time=0),
    Message('note_on', channel=0, note=50, velocity=89, time=1),
    Message('control_change', channel=5, control=1, value=9, time=0),
    Message('note_on', channel=1, note=31, velocity=126, time=1),
    Message('note_on', channel=9, note=40, velocity=127, time=0),
    Message('note_on', channel=9, note=44, velocity=109, time=0),
    Message('note_on', channel=0, note=59, velocity=89, time=0),
    Message('note_off', channel=9, note=40, velocity=64, time=0),
    Message('note_off', channel=9, note=44, velocity=64, time=0),
    Message('note_off', channel=0, note=57, velocity=64, time=3),
    Message('control_change', channel=5, control=1, value=53, time=4),
    Message('control_change', channel=3, control=1, value=127, time=9),
    Message('control_change', channel=5, control=1, value=119, time=0),
    Message('pitchwheel', channel=1, pitch=1349, time=5),
    Message('control_change', channel=5, control=1, value=126, time=3),
    Message('pitchwheel', channel=1, pitch=8191, time=1),
    Message('control_change', channel=3, control=1, value=107, time=8),
    Message('control_change', channel=5, control=1, value=102, time=5),
    Message('note_off', channel=6, note=84, velocity=64, time=0),
    Message('pitchwheel', channel=1, pitch=7581, time=3),
    Message('control_change', channel=3, control=1, value=0, time=1),
    Message('note_off', channel=3, note=77, velocity=64, time=2),
    Message('note_off', channel=6, note=89, velocity=64, time=1),
    Message('pitchwheel', channel=1, pitch=0, time=1),
    Message('note_on', channel=3, note=74, velocity=96, time=0),
    Message('control_change', channel=5, control=1, value=0, time=0),
    Message('note_on', channel=6, note=81, velocity=111, time=0),
    Message('note_on', channel=6, note=86, velocity=111, time=0),
    Message('note_on', channel=1, note=41, velocity=126, time=2),
    Message('note_on', channel=9, note=44, velocity=53, time=0),
    Message('note_off', channel=9, note=44, velocity=64, time=0),
    Message('note_off', channel=1, note=31, velocity=64, time=1),
    Message('note_on', channel=5, note=69, velocity=85, time=2),
    Message('note_off', channel=5, note=72, velocity=64, time=2),
    Message('note_off', channel=3, note=74, velocity=64, time=10),
    Message('note_off', channel=6, note=81, velocity=64, time=1),
    Message('note_off', channel=5, note=69, velocity=64, time=1),
    Message('note_off', channel=6, note=86, velocity=64, time=4),
    Message('note_off', channel=0, note=50, velocity=64, time=19),
    Message('note_on', channel=3, note=77, velocity=97, time=6),
    Message('note_on', channel=6, note=84, velocity=127, time=0),
    Message('note_on', channel=6, note=89, velocity=126, time=0),
    Message('note_off', channel=8, note=62, velocity=64, time=0),
    Message('note_on', channel=8, note=62, velocity=113, time=0),
    Message('note_on', channel=8, note=69, velocity=125, time=0),
    Message('note_off', channel=8, note=71, velocity=64, time=0),
    Message('note_on', channel=0, note=57, velocity=89, time=1),
    Message('note_on', channel=9, note=35, velocity=127, time=1),
    Message('note_on', channel=9, note=40, velocity=127, time=0),
    Message('note_on', channel=9, note=44, velocity=109, time=0),
    Message('note_off', channel=9, note=35, velocity=64, time=0),
    Message('note_off', channel=9, note=40, velocity=64, time=0),
    Message('note_off', channel=9, note=44, velocity=64, time=0),
    Message('note_on', channel=5, note=72, velocity=85, time=1),
    Message('note_on', channel=0, note=50, velocity=89, time=2),
    Message('note_off', channel=0, note=59, velocity=64, time=1),
    Message('note_off', channel=6, note=84, velocity=64, time=37),
    Message('note_on', channel=5, note=69, velocity=83, time=2),
    Message('note_on', channel=3, note=74, velocity=94, time=3),
    Message('note_on', channel=6, note=81, velocity=100, time=0),
    Message('note_on', channel=6, note=86, velocity=105, time=0),
    Message('note_off', channel=5, note=72, velocity=64, time=1),
    Message('note_on', channel=9, note=35, velocity=120, time=1),
    Message('note_on', channel=9, note=44, velocity=69, time=0),
    Message('note_off', channel=9, note=35, velocity=64, time=0),
    Message('note_off', channel=9, note=44, velocity=64, time=0),
    Message('note_off', channel=6, note=89, velocity=64, time=1),
    Message('note_off', channel=3, note=77, velocity=64, time=1),
    Message('note_off', channel=3, note=74, velocity=64, time=7),
    Message('note_off', channel=5, note=69, velocity=64, time=0),
    Message('note_off', channel=6, note=81, velocity=64, time=3),
    Message('note_off', channel=6, note=86, velocity=64, time=2),
    Message('note_off', channel=0, note=50, velocity=64, time=25),
    Message('note_on', channel=3, note=72, velocity=98, time=7),
    Message('note_on', channel=6, note=79, velocity=123, time=0),
    Message('note_on', channel=6, note=84, velocity=125, time=0),
    Message('note_off', channel=8, note=62, velocity=64, time=0),
    Message('note_on', channel=8, note=62, velocity=120, time=0),
    Message('note_off', channel=8, note=69, velocity=64, time=0),
    Message('note_on', channel=8, note=71, velocity=123, time=0),
    Message('note_on', channel=1, note=38, velocity=126, time=2),
    Message('note_on', channel=5, note=67, velocity=81, time=0),
    Message('note_on', channel=9, note=40, velocity=127, time=0),
    Message('note_on', channel=9, note=44, velocity=116, time=0),
    Message('note_off', channel=9, note=40, velocity=64, time=0),
    Message('note_off', channel=9, note=44, velocity=64, time=0),
    Message('note_on', channel=0, note=50, velocity=89, time=1),
    Message('note_on', channel=0, note=59, velocity=89, time=0),
    Message('note_off', channel=0, note=57, velocity=64, time=1),
    Message('note_off', channel=1, note=41, velocity=64, time=3),
    Message('note_off', channel=6, note=79, velocity=64, time=13),
    Message('note_off', channel=5, note=67, velocity=64, time=3),
    Message('note_off', channel=3, note=72, velocity=64, time=16),
    Message('note_off', channel=6, note=84, velocity=64, time=2),
    Message('note_on', channel=5, note=69, velocity=91, time=6),
    Message('note_on', channel=3, note=74, velocity=102, time=1),
    Message('note_on', channel=6, note=81, velocity=125, time=0),
    Message('note_on', channel=6, note=86, velocity=121, time=0),
    Message('note_on', channel=9, note=44, velocity=76, time=2),
    Message('note_off', channel=9, note=44, velocity=64, time=0),
    Message('note_off', channel=0, note=59, velocity=64, time=15),
    Message('note_off', channel=3, note=74, velocity=64, time=2),
    Message('note_off', channel=5, note=69, velocity=64, time=0),
    Message('note_off', channel=1, note=38, velocity=64, time=5),
    Message('note_off', channel=0, note=50, velocity=64, time=4),
    Message('note_off', channel=6, note=81, velocity=64, time=14),
    Message('note_off', channel=6, note=86, velocity=64, time=4),
    Message('note_on', channel=8, note=57, velocity=127, time=2),
    Message('note_off', channel=8, note=62, velocity=64, time=0),
    Message('note_on', channel=8, note=64, velocity=127, time=0),
    Message('note_off', channel=8, note=71, velocity=64, time=0),
    Message('note_on', channel=0, note=45, velocity=89, time=2),
    Message('note_on', channel=0, note=52, velocity=89, time=0),
    Message('note_on', channel=1, note=21, velocity=124, time=0),
    Message('note_on', channel=9, note=35, velocity=127, time=0),
    Message('note_on', channel=9, note=40, velocity=125, time=0),
    Message('note_on', channel=9, note=49, velocity=103, time=0),
    Message('note_off', channel=9, note=35, velocity=64, time=0),
    Message('note_off', channel=9, note=40, velocity=64, time=0),
    Message('note_off', channel=9, note=49, velocity=64, time=0),
    Message('note_off', channel=1, note=21, velocity=64, time=27),
    Message('note_on', channel=5, note=71, velocity=105, time=17),
    Message('note_on', channel=6, note=88, velocity=111, time=0),
    Message('note_on', channel=6, note=79, velocity=125, time=1),
    Message('note_on', channel=6, note=85, velocity=123, time=0),
    Message('note_on', channel=3, note=74, velocity=97, time=1),
    Message('pitchwheel', channel=3, pitch=2465, time=0),
    Message('note_on', channel=1, note=21, velocity=126, time=2),
    Message('note_on', channel=9, note=35, velocity=127, time=0),
    Message('note_on', channel=9, note=44, velocity=83, time=0),
    Message('note_off', channel=9, note=35, velocity=64, time=0),
    Message('note_off', channel=9, note=44, velocity=64, time=0),
    Message('pitchwheel', channel=5, pitch=1220, time=1),
    Message('pitchwheel', channel=3, pitch=5185, time=1),
    Message('pitchwheel', channel=5, pitch=4850, time=4),
    Message('pitchwheel', channel=3, pitch=6630, time=0),
    Message('pitchwheel', channel=5, pitch=6617, time=3),
    Message('pitchwheel', channel=3, pitch=7650, time=1),
    Message('pitchwheel', channel=5, pitch=8191, time=4),
    Message('pitchwheel', channel=3, pitch=8191, time=1),
    Message('note_off', channel=0, note=45, velocity=64, time=17),
    Message('note_off', channel=0, note=52, velocity=64, time=8),
    Message('note_off', channel=1, note=21, velocity=64, time=5),
    Message('note_off', channel=8, note=57, velocity=64, time=1),
    Message('note_on', channel=8, note=57, velocity=127, time=0),
    Message('note_on', channel=8, note=66, velocity=127, time=0),
    Message('note_on', channel=0, note=45, velocity=89, time=2),
    Message('note_on', channel=0, note=54, velocity=89, time=0),
    Message('note_on', channel=1, note=26, velocity=122, time=0),
    Message('note_on', channel=9, note=40, velocity=127, time=0),
    Message('note_on', channel=9, note=44, velocity=116, time=0),
    Message('note_off', channel=9, note=40, velocity=64, time=0),
    Message('note_off', channel=9, note=44, velocity=64, time=0),
    Message('note_off', channel=8, note=64, velocity=64, time=5),
    Message('pitchwheel', channel=1, pitch=8191, time=22),
    Message('pitchwheel', channel=3, pitch=7650, time=11),
    Message('pitchwheel', channel=3, pitch=5525, time=4),
    Message('note_on', channel=6, note=78, velocity=106, time=1),
    Message('pitchwheel', channel=1, pitch=7131, time=0),
    Message('note_off', channel=6, note=85, velocity=64, time=0),
    Message('note_on', channel=6, note=87, velocity=84, time=1),
    Message('note_off', channel=6, note=79, velocity=64, time=0),
    Message('note_on', channel=6, note=84, velocity=99, time=0),
    Message('note_off', channel=3, note=74, velocity=64, time=2),
    Message('pitchwheel', channel=3, pitch=3400, time=0),
    Message('note_on', channel=0, note=52, velocity=89, time=2),
    Message('note_on', channel=1, note=33, velocity=115, time=0),
    Message('pitchwheel', channel=1, pitch=0, time=0),
    Message('note_off', channel=5, note=71, velocity=64, time=0),
    Message('note_on', channel=9, note=44, velocity=59, time=0),
    Message('note_off', channel=9, note=44, velocity=64, time=0),
    Message('note_off', channel=6, note=88, velocity=64, time=1),
    Message('pitchwheel', channel=5, pitch=6971, time=1),
    Message('pitchwheel', channel=3, pitch=1955, time=0),
    Message('note_off', channel=1, note=26, velocity=64, time=1),
    Message('pitchwheel', channel=5, pitch=3051, time=3),
    Message('pitchwheel', channel=3, pitch=0, time=0),
    Message('pitchwheel', channel=5, pitch=1028, time=5),
    Message('pitchwheel', channel=5, pitch=417, time=4),
    Message('pitchwheel', channel=5, pitch=128, time=8),
    Message('pitchwheel', channel=5, pitch=0, time=4),
    Message('note_off', channel=6, note=84, velocity=64, time=10),
    Message('note_off', channel=6, note=87, velocity=64, time=2),
    Message('pitchwheel', channel=3, pitch=595, time=3),
    Message('note_on', channel=6, note=88, velocity=118, time=1),
    Message('note_on', channel=5, note=71, velocity=103, time=0),
    Message('note_on', channel=6, note=85, velocity=114, time=0),
    Message('note_off', channel=8, note=66, velocity=64, time=0),
    Message('note_off', channel=0, note=54, velocity=64, time=1),
    Message('note_on', channel=6, note=79, velocity=111, time=0),
    Message('note_off', channel=0, note=45, velocity=64, time=0),
    Message('note_off', channel=6, note=78, velocity=64, time=0),
    Message('note_on', channel=3, note=74, velocity=116, time=2),
    Message('note_off', channel=8, note=57, velocity=64, time=0),
    Message('note_on', channel=8, note=57, velocity=127, time=0),
    Message('note_on', channel=8, note=64, velocity=127, time=0),
    Message('pitchwheel', channel=3, pitch=1105, time=0),
    Message('note_on', channel=0, note=45, velocity=89, time=2),
    Message('note_off', channel=0, note=52, velocity=64, time=0),
    Message('note_on', channel=0, note=52, velocity=89, time=0),
    Message('note_on', channel=9, note=35, velocity=127, time=0),
    Message('note_on', channel=9, note=40, velocity=125, time=0),
    Message('note_on', channel=9, note=44, velocity=116, time=0),
    Message('note_off', channel=9, note=35, velocity=64, time=0),
    Message('note_off', channel=9, note=40, velocity=64, time=0),
    Message('note_off', channel=9, note=44, velocity=64, time=0),
    Message('pitchwheel', channel=5, pitch=1028, time=1),
    Message('pitchwheel', channel=3, pitch=1700, time=1),
    Message('pitchwheel', channel=5, pitch=4208, time=4),
    Message('pitchwheel', channel=3, pitch=2380, time=0),
    Message('pitchwheel', channel=5, pitch=6328, time=4),
    Message('pitchwheel', channel=3, pitch=3910, time=1),
    Message('pitchwheel', channel=5, pitch=6649, time=3),
    Message('pitchwheel', channel=3, pitch=5950, time=1),
    Message('pitchwheel', channel=5, pitch=6714, time=2),
    Message('pitchwheel', channel=3, pitch=8191, time=2),
    Message('pitchwheel', channel=5, pitch=6746, time=4),
    Message('pitchwheel', channel=5, pitch=6906, time=4),
    Message('pitchwheel', channel=5, pitch=7131, time=4),
    Message('pitchwheel', channel=5, pitch=7517, time=3),
    Message('pitchwheel', channel=5, pitch=7774, time=4),
    Message('pitchwheel', channel=5, pitch=8063, time=5),
    Message('note_on', channel=9, note=35, velocity=127, time=5),
    Message('note_on', channel=9, note=44, velocity=40, time=0),
    Message('pitchwheel', channel=5, pitch=8191, time=0),
    Message('note_off', channel=9, note=35, velocity=64, time=0),
    Message('note_off', channel=9, note=44, velocity=64, time=0),
    Message('pitchwheel', channel=3, pitch=8160, time=40),
    Message('note_off', channel=1, note=33, velocity=64, time=4),
    Message('pitchwheel', channel=3, pitch=6205, time=0),
    Message('pitchwheel', channel=5, pitch=7677, time=0),
    Message('note_off', channel=8, note=57, velocity=64, time=2),
    Message('note_on', channel=8, note=57, velocity=127, time=0),
    Message('note_on', channel=8, note=66, velocity=127, time=0),
    Message('note_off', channel=0, note=52, velocity=64, time=2),
    Message('note_on', channel=0, note=54, velocity=89, time=0),
    Message('note_on', channel=1, note=28, velocity=115, time=0),
    Message('note_on', channel=9, note=40, velocity=127, time=0),
    Message('note_on', channel=9, note=44, velocity=105, time=0),
    Message('pitchwheel', channel=3, pitch=3230, time=0),
    Message('note_off', channel=9, note=40, velocity=64, time=0),
    Message('note_off', channel=9, note=44, velocity=64, time=0),
    Message('pitchwheel', channel=5, pitch=5943, time=1),
    Message('note_on', channel=6, note=78, velocity=110, time=0),
    Message('note_off', channel=6, note=85, velocity=64, time=0),
    Message('note_off', channel=8, note=64, velocity=64, time=1),
    Message('note_off', channel=6, note=79, velocity=64, time=0),
    Message('note_on', channel=6, note=84, velocity=72, time=0),
    Message('note_on', channel=6, note=87, velocity=102, time=1),
    Message('pitchwheel', channel=3, pitch=1700, time=1),
    Message('pitchwheel', channel=5, pitch=2313, time=1),
    Message('note_off', channel=5, note=71, velocity=64, time=0),
    Message('note_off', channel=6, note=88, velocity=64, time=3),
    Message('pitchwheel', channel=5, pitch=0, time=1),
    Message('note_off', channel=3, note=74, velocity=64, time=1),
    Message('pitchwheel', channel=3, pitch=1020, time=1),
    Message('pitchwheel', channel=3, pitch=0, time=4),
    Message('pitchwheel', channel=3, pitch=0, time=27),
    Message('note_on', channel=5, note=71, velocity=101, time=1),
    Message('note_off', channel=6, note=87, velocity=64, time=1),
    Message('note_off', channel=6, note=84, velocity=64, time=1),
    Message('note_on', channel=3, note=74, velocity=116, time=1),
    Message('pitchwheel', channel=3, pitch=510, time=0),
    Message('note_on', channel=9, note=44, velocity=83, time=2),
    Message('note_off', channel=9, note=44, velocity=64, time=0),
    Message('note_on', channel=6, note=88, velocity=118, time=1),
    Message('note_off', channel=6, note=78, velocity=64, time=1),
    Message('note_on', channel=6, note=79, velocity=121, time=0),
    Message('note_on', channel=6, note=85, velocity=123, time=0),
    Message('pitchwheel', channel=3, pitch=1870, time=0),
    Message('pitchwheel', channel=5, pitch=64, time=3),
    Message('pitchwheel', channel=3, pitch=3995, time=1),
    Message('pitchwheel', channel=5, pitch=1381, time=3),
    Message('pitchwheel', channel=3, pitch=6630, time=2),
    Message('pitchwheel', channel=5, pitch=3951, time=2),
    Message('pitchwheel', channel=3, pitch=8191, time=2),
    Message('pitchwheel', channel=5, pitch=5172, time=2),
    Message('pitchwheel', channel=5, pitch=6071, time=5),
    Message('pitchwheel', channel=5, pitch=6521, time=3),
    Message('pitchwheel', channel=5, pitch=6842, time=4),
    Message('pitchwheel', channel=5, pitch=7067, time=4),
    Message('pitchwheel', channel=5, pitch=7163, time=4),
    Message('note_off', channel=0, note=45, velocity=64, time=2),
    Message('pitchwheel', channel=5, pitch=7292, time=1),
    Message('note_off', channel=8, note=57, velocity=64, time=2),
    Message('note_off', channel=8, note=66, velocity=64, time=0),
    Message('note_off', channel=1, note=28, velocity=64, time=2),
    Message('pitchwheel', channel=5, pitch=7420, time=1),
    Message('note_on', channel=8, note=57, velocity=127, time=1),
    Message('note_on', channel=8, note=64, velocity=127, time=0),
    Message('note_on', channel=0, note=45, velocity=89, time=2),
    Message('note_on', channel=0, note=52, velocity=89, time=0),
    Message('note_on', channel=1, note=21, velocity=120, time=0),
    Message('note_on', channel=9, note=35, velocity=127, time=0),
    Message('note_on', channel=9, note=40, velocity=127, time=0),
    Message('note_on', channel=9, note=44, velocity=116, time=0),
    Message('note_off', channel=9, note=35, velocity=64, time=0),
    Message('note_off', channel=9, note=40, velocity=64, time=0),
    Message('note_off', channel=9, note=44, velocity=64, time=0),
    Message('pitchwheel', channel=5, pitch=7581, time=1),
    Message('note_off', channel=0, note=54, velocity=64, time=1),
    Message('pitchwheel', channel=5, pitch=7645, time=4),
    Message('pitchwheel', channel=5, pitch=7806, time=4),
    Message('pitchwheel', channel=5, pitch=7870, time=5),
    Message('pitchwheel', channel=5, pitch=7902, time=3),
    Message('note_off', channel=1, note=21, velocity=64, time=4),
    Message('pitchwheel', channel=5, pitch=7870, time=3),
    Message('pitchwheel', channel=5, pitch=7774, time=12),
    Message('note_off', channel=6, note=88, velocity=64, time=2),
    Message('pitchwheel', channel=5, pitch=7581, time=1),
    Message('pitchwheel', channel=3, pitch=7480, time=2),
    Message('pitchwheel', channel=5, pitch=7099, time=2),
    Message('note_off', channel=6, note=79, velocity=64, time=0),
    Message('note_off', channel=6, note=85, velocity=64, time=0),
    Message('note_on', channel=6, note=78, velocity=106, time=1),
    Message('note_on', channel=6, note=84, velocity=99, time=0),
    Message('note_on', channel=6, note=87, velocity=82, time=1),
    Message('pitchwheel', channel=3, pitch=6205, time=0),
    Message('note_on', channel=1, note=21, velocity=125, time=2),
    Message('note_on', channel=9, note=35, velocity=118, time=0),
    Message('note_on', channel=9, note=44, velocity=84, time=0),
    Message('note_off', channel=9, note=35, velocity=64, time=0),
    Message('note_off', channel=9, note=44, velocity=64, time=0),
    Message('pitchwheel', channel=5, pitch=4336, time=2),
    Message('pitchwheel', channel=3, pitch=4335, time=0),
    Message('pitchwheel', channel=3, pitch=0, time=5),
    Message('pitchwheel', channel=5, pitch=1959, time=0),
    Message('note_off', channel=5, note=71, velocity=64, time=1),
    Message('pitchwheel', channel=5, pitch=0, time=3),
    Message('note_off', channel=3, note=74, velocity=64, time=1),
    Message('pitchwheel', channel=3, pitch=1530, time=24),
    Message('note_off', channel=6, note=84, velocity=64, time=2),
    Message('note_off', channel=6, note=87, velocity=64, time=1),
    Message('pitchwheel', channel=3, pitch=1870, time=1),
    Message('note_off', channel=0, note=45, velocity=64, time=1),
    Message('note_off', channel=6, note=78, velocity=64, time=1),
    Message('note_on', channel=6, note=88, velocity=118, time=1),
    Message('note_on', channel=6, note=79, velocity=126, time=1),
    Message('pitchwheel', channel=3, pitch=2295, time=0),
    Message('note_on', channel=6, note=85, velocity=126, time=0),
    Message('note_on', channel=5, note=71, velocity=96, time=1),
    Message('note_off', channel=1, note=21, velocity=64, time=0),
    Message('note_on', channel=3, note=74, velocity=99, time=1),
    Message('note_off', channel=8, note=57, velocity=64, time=0),
    Message('note_on', channel=8, note=57, velocity=127, time=0),
    Message('note_on', channel=8, note=66, velocity=127, time=0),
    Message('note_on', channel=0, note=45, velocity=89, time=2),
    Message('note_on', channel=0, note=54, velocity=89, time=0),
    Message('note_on', channel=1, note=26, velocity=112, time=0),
    Message('note_on', channel=9, note=40, velocity=127, time=0),
    Message('note_on', channel=9, note=44, velocity=116, time=0),
    Message('pitchwheel', channel=3, pitch=1955, time=0),
    Message('note_off', channel=9, note=40, velocity=64, time=0),
    Message('note_off', channel=9, note=44, velocity=64, time=0),
    Message('note_off', channel=0, note=52, velocity=64, time=2),
    Message('pitchwheel', channel=3, pitch=2975, time=2),
    Message('note_off', channel=8, note=64, velocity=64, time=2),
    Message('pitchwheel', channel=5, pitch=2859, time=1),
    Message('pitchwheel', channel=3, pitch=4335, time=2),
    Message('pitchwheel', channel=5, pitch=5236, time=2),
    Message('pitchwheel', channel=3, pitch=6205, time=2),
    Message('pitchwheel', channel=5, pitch=5943, time=2),
    Message('pitchwheel', channel=3, pitch=8075, time=2),
    Message('pitchwheel', channel=5, pitch=6039, time=2),
    Message('pitchwheel', channel=1, pitch=1477, time=2),
    Message('pitchwheel', channel=3, pitch=8191, time=0),
    Message('pitchwheel', channel=1, pitch=8191, time=4),
    Message('pitchwheel', channel=5, pitch=6135, time=5),
    Message('pitchwheel', channel=5, pitch=6489, time=4),
    Message('pitchwheel', channel=5, pitch=6746, time=4),
    Message('note_off', channel=0, note=45, velocity=64, time=1),
    Message('pitchwheel', channel=5, pitch=7453, time=3),
    Message('pitchwheel', channel=1, pitch=4883, time=4),
    Message('pitchwheel', channel=5, pitch=7902, time=0),
    Message('note_on', channel=0, note=45, velocity=89, time=2),
    Message('note_on', channel=0, note=52, velocity=89, time=0),
    Message('note_on', channel=1, note=33, velocity=110, time=0),
    Message('note_on', channel=9, note=44, velocity=67, time=0),
    Message('note_off', channel=9, note=44, velocity=64, time=0),
    Message('note_off', channel=1, note=26, velocity=64, time=1),
    Message('pitchwheel', channel=1, pitch=0, time=0),
    Message('pitchwheel', channel=5, pitch=8191, time=2),
    Message('note_off', channel=0, note=54, velocity=64, time=15),
    Message('note_off', channel=0, note=45, velocity=64, time=24),
    Message('note_off', channel=0, note=52, velocity=64, time=1),
    Message('note_off', channel=8, note=66, velocity=64, time=2),
    Message('note_off', channel=8, note=57, velocity=64, time=1),
    Message('note_on', channel=8, note=57, velocity=127, time=0),
    Message('note_on', channel=8, note=64, velocity=127, time=0),
    Message('control_change', channel=3, control=1, value=18, time=0),
    Message('note_on', channel=0, note=45, velocity=89, time=2),
    Message('note_on', channel=0, note=52, velocity=89, time=0),
    Message('note_on', channel=9, note=35, velocity=127, time=0),
    Message('note_on', channel=9, note=40, velocity=127, time=0),
    Message('note_on', channel=9, note=44, velocity=103, time=0),
    Message('note_off', channel=9, note=35, velocity=64, time=0),
    Message('note_off', channel=9, note=40, velocity=64, time=0),
    Message('note_off', channel=9, note=44, velocity=64, time=0),
    Message('control_change', channel=3, control=1, value=104, time=6),
    Message('control_change', channel=3, control=1, value=79, time=9),
    Message('control_change', channel=3, control=1, value=0, time=8),
    Message('pitchwheel', channel=3, pitch=7905, time=11),
    Message('pitchwheel', channel=3, pitch=7480, time=4),
    Message('pitchwheel', channel=3, pitch=6800, time=4),
    Message('pitchwheel', channel=3, pitch=6035, time=4),
    Message('note_on', channel=9, note=35, velocity=120, time=2),
    Message('note_on', channel=9, note=44, velocity=72, time=0),
    Message('note_off', channel=9, note=35, velocity=64, time=0),
    Message('note_off', channel=9, note=44, velocity=64, time=0),
    Message('pitchwheel', channel=3, pitch=5270, time=2),
    Message('pitchwheel', channel=5, pitch=8095, time=3),
    Message('pitchwheel', channel=3, pitch=4505, time=1),
    Message('pitchwheel', channel=5, pitch=7999, time=2),
    Message('pitchwheel', channel=3, pitch=3910, time=3),
    Message('pitchwheel', channel=5, pitch=7870, time=1),
    Message('pitchwheel', channel=3, pitch=3400, time=3),
    Message('pitchwheel', channel=5, pitch=7806, time=2),
    Message('pitchwheel', channel=3, pitch=3060, time=2),
    Message('pitchwheel', channel=5, pitch=7613, time=4),
    Message('pitchwheel', channel=3, pitch=2805, time=2),
    Message('pitchwheel', channel=5, pitch=7581, time=1),
    Message('pitchwheel', channel=3, pitch=2550, time=4),
    Message('pitchwheel', channel=5, pitch=7324, time=0),
    Message('pitchwheel', channel=3, pitch=1870, time=4),
    Message('pitchwheel', channel=5, pitch=6746, time=0),
    Message('pitchwheel', channel=3, pitch=850, time=4),
    Message('pitchwheel', channel=5, pitch=5782, time=1),
    Message('pitchwheel', channel=3, pitch=0, time=3),
    Message('pitchwheel', channel=5, pitch=4401, time=1),
    Message('note_off', channel=8, note=57, velocity=64, time=3),
    Message('note_on', channel=8, note=57, velocity=127, time=0),
    Message('note_off', channel=8, note=64, velocity=64, time=0),
    Message('note_on', channel=8, note=66, velocity=127, time=0),
    Message('pitchwheel', channel=5, pitch=2666, time=1),
    Message('note_on', channel=0, note=54, velocity=89, time=1),
    Message('note_on', channel=1, note=28, velocity=120, time=0),
    Message('note_on', channel=9, note=40, velocity=127, time=0),
    Message('note_on', channel=9, note=44, velocity=122, time=0),
    Message('note_off', channel=9, note=40, velocity=64, time=0),
    Message('note_off', channel=9, note=44, velocity=64, time=0),
    Message('note_off', channel=0, note=52, velocity=64, time=3),
    Message('pitchwheel', channel=5, pitch=738, time=0),
    Message('note_off', channel=1, note=33, velocity=64, time=0),
    Message('note_off', channel=3, note=74, velocity=64, time=0),
    Message('pitchwheel', channel=5, pitch=0, time=3),
    Message('note_off', channel=5, note=71, velocity=64, time=10),
    Message('note_off', channel=8, note=57, velocity=64, time=30),
    Message('note_on', channel=8, note=57, velocity=127, time=0),
    Message('note_on', channel=8, note=64, velocity=127, time=0),
    Message('note_on', channel=0, note=52, velocity=89, time=2),
    Message('note_on', channel=9, note=46, velocity=81, time=0),
    Message('note_off', channel=9, note=46, velocity=64, time=0),
    Message('note_off', channel=0, note=54, velocity=64, time=2),
    Message('note_off', channel=8, note=66, velocity=64, time=3),
    Message('note_off', channel=0, note=45, velocity=64, time=24),
    Message('note_off', channel=6, note=88, velocity=64, time=1),
    Message('note_off', channel=6, note=79, velocity=64, time=5),
    Message('note_off', channel=6, note=85, velocity=64, time=2),
    Message('note_off', channel=1, note=28, velocity=64, time=5),
    Message('note_on', channel=6, note=86, velocity=127, time=2),
    Message('note_off', channel=0, note=52, velocity=64, time=1),
    Message('note_on', channel=6, note=77, velocity=127, time=0),
    Message('note_on', channel=6, note=79, velocity=127, time=0),
    Message('note_on', channel=6, note=89, velocity=127, time=0),
    Message('note_on', channel=3, note=77, velocity=125, time=1),
    Message('note_on', channel=8, note=55, velocity=127, time=0),
    Message('note_off', channel=8, note=57, velocity=64, time=0),
    Message('note_on', channel=8, note=62, velocity=127, time=0),
    Message('note_on', channel=8, note=67, velocity=127, time=0),
    Message('note_off', channel=8, note=64, velocity=64, time=0),
    Message('note_on', channel=6, note=83, velocity=127, time=1),
    Message('note_on', channel=0, note=43, velocity=89, time=1),
    Message('note_on', channel=0, note=50, velocity=89, time=0),
    Message('note_on', channel=0, note=52, velocity=89, time=0),
    Message('note_on', channel=1, note=19, velocity=126, time=0),
    Message('note_on', channel=9, note=35, velocity=123, time=0),
    Message('note_on', channel=9, note=44, velocity=125, time=0),
    Message('note_off', channel=9, note=35, velocity=64, time=0),
    Message('note_off', channel=9, note=44, velocity=64, time=0),
    Message('note_off', channel=0, note=52, velocity=64, time=5),
    Message('note_off', channel=3, note=77, velocity=64, time=20),
    Message('note_off', channel=1, note=19, velocity=64, time=8),
    Message('note_off', channel=0, note=43, velocity=64, time=5),
    Message('note_off', channel=6, note=79, velocity=64, time=1),
    Message('note_off', channel=6, note=77, velocity=64, time=2),
    Message('note_off', channel=6, note=89, velocity=64, time=0),
    Message('note_off', channel=8, note=55, velocity=64, time=0),
    Message('note_off', channel=0, note=50, velocity=64, time=1),
    Message('note_off', channel=8, note=62, velocity=64, time=1),
    Message('note_off', channel=8, note=67, velocity=64, time=0),
    Message('note_off', channel=6, note=83, velocity=64, time=2),
    Message('note_on', channel=3, note=77, velocity=80, time=1),
    Message('note_off', channel=6, note=86, velocity=64, time=0),
    Message('note_on', channel=6, note=81, velocity=72, time=6),
    Message('note_on', channel=6, note=79, velocity=93, time=4),
    Message('note_off', channel=6, note=81, velocity=64, time=0),
    Message('note_on', channel=6, note=77, velocity=100, time=5),
    Message('note_off', channel=6, note=79, velocity=64, time=1),
    Message('note_off', channel=6, note=77, velocity=64, time=3),
    Message('note_off', channel=3, note=77, velocity=64, time=1),
    Message('note_on', channel=6, note=76, velocity=87, time=0),
    Message('note_off', channel=6, note=76, velocity=64, time=3),
    Message('note_on', channel=6, note=74, velocity=85, time=2),
    Message('note_on', channel=9, note=35, velocity=102, time=1),
    Message('note_off', channel=9, note=35, velocity=64, time=0),
    Message('note_off', channel=6, note=74, velocity=64, time=2),
    Message('note_on', channel=6, note=72, velocity=85, time=1),
    Message('note_off', channel=6, note=72, velocity=64, time=3),
    Message('note_on', channel=3, note=77, velocity=94, time=16),
    Message('note_on', channel=9, note=35, velocity=127, time=2),
    Message('note_off', channel=9, note=35, velocity=64, time=0),
    Message('note_off', channel=3, note=77, velocity=64, time=18),
    Message('note_on', channel=3, note=77, velocity=99, time=28),
    Message('note_off', channel=3, note=77, velocity=64, time=19),
    Message('note_on', channel=3, note=77, velocity=113, time=29),
    Message('note_on', channel=9, note=35, velocity=125, time=2),
    Message('note_off', channel=9, note=35, velocity=64, time=0),
    Message('note_off', channel=3, note=77, velocity=64, time=16),
    Message('note_on', channel=3, note=77, velocity=120, time=30),
    Message('note_off', channel=3, note=77, velocity=64, time=17),
    Message('note_on', channel=9, note=35, velocity=110, time=9),
    Message('note_off', channel=9, note=35, velocity=64, time=0),
    Message('note_on', channel=3, note=77, velocity=121, time=22),
    Message('note_on', channel=9, note=35, velocity=125, time=2),
    Message('note_off', channel=9, note=35, velocity=64, time=0),
    Message('note_off', channel=3, note=77, velocity=64, time=45),
    Message('note_on', channel=3, note=74, velocity=113, time=1),
    Message('note_off', channel=3, note=74, velocity=64, time=14),
    Message('note_on', channel=3, note=77, velocity=99, time=33),
    Message('note_off', channel=3, note=77, velocity=64, time=2),
    Message('note_on', channel=3, note=77, velocity=90, time=0),
    Message('note_on', channel=9, note=35, velocity=125, time=1),
    Message('note_off', channel=9, note=35, velocity=64, time=0),
    Message('note_off', channel=3, note=77, velocity=64, time=15),
    Message('note_on', channel=3, note=77, velocity=86, time=30),
    Message('note_on', channel=9, note=35, velocity=102, time=27),
    Message('note_off', channel=9, note=35, velocity=64, time=0),
    Message('note_off', channel=3, note=77, velocity=64, time=23),
    Message('note_on', channel=9, note=35, velocity=127, time=1),
    Message('note_off', channel=9, note=35, velocity=64, time=0),
    Message('note_on', channel=3, note=74, velocity=87, time=2),
    Message('note_off', channel=3, note=74, velocity=64, time=12),
    Message('note_on', channel=3, note=77, velocity=103, time=37),
    Message('note_on', channel=9, note=35, velocity=127, time=45),
    Message('note_off', channel=9, note=35, velocity=64, time=0),
    Message('pitchwheel', channel=3, pitch=-171, time=42),
    Message('pitchwheel', channel=3, pitch=-851, time=4),
    Message('pitchwheel', channel=3, pitch=-1701, time=4),
    Message('pitchwheel', channel=3, pitch=-2551, time=4),
    Message('pitchwheel', channel=3, pitch=-3146, time=4),
    Message('pitchwheel', channel=3, pitch=-3741, time=5),
    Message('note_off', channel=3, note=77, velocity=64, time=0),
    Message('pitchwheel', channel=3, pitch=-4251, time=4),
    Message('pitchwheel', channel=3, pitch=0, time=4),
    Message('note_on', channel=9, note=35, velocity=102, time=1),
    Message('note_off', channel=9, note=35, velocity=64, time=0),
    Message('note_on', channel=3, note=74, velocity=93, time=18),
    Message('note_on', channel=9, note=35, velocity=127, time=6),
    Message('note_off', channel=9, note=35, velocity=64, time=0),
    Message('note_off', channel=3, note=74, velocity=64, time=13),
    Message('note_on', channel=3, note=74, velocity=102, time=29),
    Message('note_on', channel=0, note=47, velocity=89, time=52),
    Message('note_on', channel=0, note=54, velocity=89, time=0),
    Message('note_on', channel=2, note=47, velocity=126, time=0),
    Message('note_on', channel=2, note=54, velocity=104, time=0),
    Message('note_on', channel=2, note=59, velocity=105, time=0),
    Message('note_on', channel=3, note=81, velocity=126, time=0),
    Message('note_on', channel=5, note=81, velocity=101, time=0),
    Message('note_on', channel=6, note=74, velocity=127, time=0),
    Message('note_on', channel=6, note=78, velocity=127, time=0),
    Message('note_on', channel=6, note=83, velocity=126, time=0),
    Message('note_on', channel=8, note=59, velocity=121, time=0),
    Message('note_on', channel=8, note=71, velocity=127, time=0),
    Message('note_on', channel=9, note=35, velocity=127, time=0),
    Message('note_off', channel=9, note=35, velocity=64, time=1),
    Message('note_on', channel=9, note=49, velocity=122, time=0),
    Message('note_off', channel=3, note=74, velocity=64, time=1),
    Message('note_off', channel=9, note=49, velocity=64, time=0),
    Message('note_on', channel=1, note=23, velocity=126, time=1),
    Message('pitchwheel', channel=3, pitch=-3374, time=2),
    Message('pitchwheel', channel=3, pitch=-5719, time=4),
    Message('pitchwheel', channel=3, pitch=0, time=4),
    Message('note_off', channel=2, note=47, velocity=64, time=18),
    Message('note_off', channel=1, note=23, velocity=64, time=9),
    Message('note_off', channel=2, note=54, velocity=64, time=0),
    Message('note_off', channel=5, note=81, velocity=64, time=4),
    Message('note_off', channel=0, note=47, velocity=64, time=1),
    Message('note_off', channel=0, note=54, velocity=64, time=0),
    Message('note_on', channel=0, note=47, velocity=89, time=3),
    Message('note_on', channel=0, note=54, velocity=89, time=0),
    Message('note_on', channel=1, note=23, velocity=126, time=0),
    Message('note_on', channel=2, note=47, velocity=109, time=0),
    Message('note_on', channel=2, note=54, velocity=64, time=0),
    Message('note_on', channel=3, note=78, velocity=126, time=0),
    Message('note_on', channel=5, note=76, velocity=105, time=0),
    Message('note_on', channel=9, note=44, velocity=113, time=0),
    Message('note_off', channel=9, note=44, velocity=64, time=0),
    Message('note_off', channel=3, note=81, velocity=64, time=2),
    Message('pitchwheel', channel=5, pitch=3662, time=2),
    Message('pitchwheel', channel=5, pitch=8191, time=4),
    Message('note_off', channel=0, note=47, velocity=64, time=25),
    Message('note_off', channel=0, note=54, velocity=64, time=6),
    Message('note_off', channel=2, note=59, velocity=64, time=1),
    Message('note_off', channel=1, note=23, velocity=64, time=4),
    Message('note_off', channel=2, note=47, velocity=64, time=3),
    Message('note_on', channel=0, note=47, velocity=89, time=1),
    Message('note_on', channel=0, note=54, velocity=89, time=0),
    Message('note_on', channel=1, note=23, velocity=126, time=0),
    Message('note_on', channel=2, note=47, velocity=126, time=0),
    Message('note_on', channel=2, note=59, velocity=99, time=0),
    Message('note_on', channel=9, note=40, velocity=127, time=0),
    Message('note_on', channel=9, note=44, velocity=126, time=0),
    Message('note_off', channel=9, note=40, velocity=64, time=0),
    Message('note_off', channel=9, note=44, velocity=64, time=0),
    Message('control_change', channel=5, control=1, value=13, time=1),
    Message('control_change', channel=5, control=1, value=21, time=9),
    Message('control_change', channel=5, control=1, value=24, time=9),
    Message('control_change', channel=5, control=1, value=36, time=12),
    Message('control_change', channel=3, control=1, value=15, time=1),
    Message('note_off', channel=1, note=23, velocity=64, time=2),
    Message('note_off', channel=0, note=47, velocity=64, time=1),
    Message('note_off', channel=0, note=54, velocity=64, time=1),
    Message('note_off', channel=2, note=59, velocity=64, time=0),
    Message('control_change', channel=5, control=1, value=50, time=3),
    Message('note_off', channel=2, note=47, velocity=64, time=0),
    Message('control_change', channel=3, control=1, value=69, time=0),
    Message('note_off', channel=2, note=54, velocity=64, time=1),
    Message('control_change', channel=5, control=1, value=71, time=7),
    Message('note_on', channel=0, note=47, velocity=89, time=1),
    Message('note_on', channel=0, note=51, velocity=89, time=0),
    Message('note_on', channel=0, note=54, velocity=89, time=0),
    Message('note_on', channel=1, note=23, velocity=126, time=0),
    Message('note_on', channel=2, note=47, velocity=116, time=0),
    Message('note_on', channel=2, note=54, velocity=110, time=0),
    Message('note_on', channel=2, note=59, velocity=103, time=0),
    Message('note_on', channel=9, note=35, velocity=116, time=0),
    Message('note_on', channel=9, note=44, velocity=116, time=0),
    Message('control_change', channel=3, control=1, value=108, time=0),
    Message('note_off', channel=9, note=35, velocity=64, time=0),
    Message('note_off', channel=9, note=44, velocity=64, time=0),
    Message('note_off', channel=0, note=51, velocity=64, time=3),
    Message('control_change', channel=5, control=1, value=98, time=5),
    Message('control_change', channel=3, control=1, value=127, time=1),
    Message('control_change', channel=5, control=1, value=116, time=10),
    Message('control_change', channel=5, control=1, value=124, time=9),
    Message('note_off', channel=0, note=47, velocity=64, time=4),
    Message('note_off', channel=1, note=23, velocity=64, time=3),
    Message('note_off', channel=0, note=54, velocity=64, time=0),
    Message('control_change', channel=5, control=1, value=126, time=6),
    Message('note_off', channel=2, note=47, velocity=64, time=1),
    Message('note_off', channel=2, note=54, velocity=64, time=3),
    Message('note_on', channel=0, note=47, velocity=89, time=3),
    Message('note_on', channel=0, note=54, velocity=89, time=0),
    Message('note_on', channel=1, note=23, velocity=126, time=0),
    Message('note_on', channel=2, note=47, velocity=126, time=0),
    Message('note_on', channel=2, note=54, velocity=51, time=0),
    Message('note_on', channel=9, note=35, velocity=127, time=0),
    Message('note_on', channel=9, note=44, velocity=126, time=0),
    Message('note_off', channel=9, note=35, velocity=64, time=0),
    Message('note_off', channel=9, note=44, velocity=64, time=0),
    Message('control_change', channel=6, control=64, value=127, time=3),
    Message('control_change', channel=8, control=64, value=127, time=0),
    Message('control_change', channel=5, control=1, value=124, time=3),
    Message('control_change', channel=5, control=1, value=125, time=9),
    Message('control_change', channel=5, control=1, value=112, time=13),
    Message('note_off', channel=0, note=47, velocity=64, time=1),
    Message('note_off', channel=0, note=54, velocity=64, time=6),
    Message('note_off', channel=1, note=23, velocity=64, time=2),
    Message('control_change', channel=5, control=1, value=76, time=0),
    Message('note_off', channel=2, note=54, velocity=64, time=3),
    Message('note_off', channel=2, note=59, velocity=64, time=1),
    Message('note_off', channel=2, note=47, velocity=64, time=1),
    Message('control_change', channel=5, control=1, value=64, time=3),
    Message('note_on', channel=0, note=47, velocity=89, time=3),
    Message('note_on', channel=0, note=54, velocity=89, time=0),
    Message('note_on', channel=1, note=23, velocity=126, time=0),
    Message('note_on', channel=2, note=47, velocity=125, time=0),
    Message('note_on', channel=2, note=54, velocity=117, time=0),
    Message('note_on', channel=2, note=59, velocity=100, time=0),
    Message('note_on', channel=9, note=44, velocity=126, time=0),
    Message('note_off', channel=9, note=44, velocity=64, time=0),
    Message('control_change', channel=5, control=1, value=62, time=5),
    Message('control_change', channel=3, control=1, value=116, time=2),
    Message('control_change', channel=5, control=1, value=44, time=5),
    Message('control_change', channel=3, control=1, value=126, time=7),
    Message('control_change', channel=5, control=1, value=15, time=2),
    Message('control_change', channel=3, control=1, value=127, time=7),
    Message('control_change', channel=5, control=1, value=0, time=1),
    Message('note_off', channel=0, note=47, velocity=64, time=1),
    Message('note_off', channel=0, note=54, velocity=64, time=5),
    Message('note_off', channel=1, note=23, velocity=64, time=1),
    Message('note_off', channel=3, note=78, velocity=64, time=1),
    Message('note_off', channel=8, note=71, velocity=64, time=0),
    Message('note_off', channel=2, note=59, velocity=64, time=1),
    Message('note_off', channel=2, note=54, velocity=64, time=1),
    Message('note_off', channel=2, note=47, velocity=64, time=1),
    Message('control_change', channel=3, control=1, value=80, time=1),
    Message('note_off', channel=5, note=76, velocity=64, time=1),
    Message('pitchwheel', channel=3, pitch=-450, time=1),
    Message('pitchwheel', channel=5, pitch=2184, time=3),
    Message('pitchwheel', channel=3, pitch=-8192, time=1),
    Message('note_on', channel=0, note=47, velocity=89, time=1),
    Message('note_on', channel=0, note=51, velocity=89, time=0),
    Message('note_on', channel=0, note=54, velocity=89, time=0),
    Message('note_on', channel=1, note=23, velocity=126, time=0),
    Message('note_on', channel=2, note=47, velocity=127, time=0),
    Message('note_on', channel=2, note=54, velocity=117, time=0),
    Message('note_on', channel=2, note=59, velocity=111, time=0),
    Message('note_on', channel=3, note=78, velocity=126, time=0),
    Message('note_on', channel=5, note=76, velocity=104, time=0),
    Message('note_on', channel=6, note=81, velocity=105, time=0),
    Message('note_on', channel=8, note=57, velocity=121, time=0),
    Message('note_on', channel=8, note=69, velocity=127, time=0),
    Message('note_on', channel=9, note=40, velocity=127, time=0),
    Message('note_on', channel=9, note=44, velocity=126, time=0),
    Message('note_off', channel=9, note=40, velocity=64, time=0),
    Message('note_off', channel=9, note=44, velocity=64, time=0),
    Message('control_change', channel=3, control=1, value=0, time=1),
    Message('pitchwheel', channel=5, pitch=0, time=1),
    Message('note_off', channel=0, note=51, velocity=64, time=1),
    Message('pitchwheel', channel=3, pitch=0, time=3),
    Message('pitchwheel', channel=5, pitch=8191, time=2),
    Message('note_off', channel=8, note=59, velocity=64, time=1),
    Message('control_change', channel=6, control=64, value=0, time=2),
    Message('control_change', channel=8, control=64, value=0, time=0),
    Message('note_off', channel=6, note=78, velocity=64, time=1),
    Message('control_change', channel=6, control=64, value=127, time=17),
    Message('control_change', channel=8, control=64, value=127, time=0),
    Message('note_off', channel=2, note=47, velocity=64, time=13),
    Message('note_off', channel=1, note=23, velocity=64, time=0),
    Message('control_change', channel=5, control=1, value=2, time=1),
    Message('note_on', channel=0, note=45, velocity=89, time=5),
    Message('note_on', channel=1, note=21, velocity=126, time=0),
    Message('note_on', channel=2, note=45, velocity=126, time=0),
    Message('note_on', channel=2, note=47, velocity=109, time=0),
    Message('note_on', channel=2, note=52, velocity=113, time=0),
    Message('note_on', channel=2, note=57, velocity=109, time=0),
    Message('note_on', channel=9, note=35, velocity=127, time=0),
    Message('note_on', channel=9, note=44, velocity=116, time=0),
    Message('note_off', channel=9, note=35, velocity=64, time=0),
    Message('note_off', channel=9, note=44, velocity=64, time=0),
    Message('control_change', channel=5, control=1, value=14, time=3),
    Message('note_off', channel=2, note=54, velocity=64, time=2),
    Message('note_off', channel=2, note=47, velocity=64, time=3),
    Message('note_off', channel=2, note=59, velocity=64, time=1),
    Message('control_change', channel=5, control=1, value=18, time=2),
    Message('control_change', channel=5, control=1, value=12, time=8),
    Message('control_change', channel=5, control=1, value=0, time=7),
    Message('note_off', channel=0, note=47, velocity=64, time=2),
    Message('note_off', channel=8, note=69, velocity=64, time=8),
    Message('note_off', channel=2, note=52, velocity=64, time=3),
    Message('note_off', channel=1, note=21, velocity=64, time=1),
    Message('note_off', channel=0, note=45, velocity=64, time=2),
    Message('note_off', channel=0, note=54, velocity=64, time=0),
    Message('note_off', channel=2, note=45, velocity=64, time=0),
    Message('note_off', channel=2, note=57, velocity=64, time=1),
    Message('pitchwheel', channel=5, pitch=5493, time=4),
    Message('note_on', channel=0, note=43, velocity=89, time=1),
    Message('note_on', channel=0, note=47, velocity=89, time=0),
    Message('note_on', channel=0, note=50, velocity=89, time=0),
    Message('note_on', channel=0, note=55, velocity=89, time=0),
    Message('note_on', channel=1, note=19, velocity=126, time=0),
    Message('note_on', channel=2, note=43, velocity=127, time=0),
    Message('note_on', channel=2, note=50, velocity=111, time=0),
    Message('note_on', channel=2, note=55, velocity=113, time=0),
    Message('note_on', channel=3, note=76, velocity=126, time=0),
    Message('note_on', channel=6, note=79, velocity=113, time=0),
    Message('note_on', channel=8, note=55, velocity=113, time=0),
    Message('note_on', channel=8, note=65, velocity=116, time=0),
    Message('note_on', channel=8, note=67, velocity=127, time=0),
    Message('note_on', channel=9, note=35, velocity=127, time=0),
    Message('note_on', channel=9, note=44, velocity=126, time=0),
    Message('pitchwheel', channel=3, pitch=-8192, time=0),
    Message('note_off', channel=8, note=57, velocity=64, time=0),
    Message('note_off', channel=9, note=35, velocity=64, time=0),
    Message('note_off', channel=9, note=44, velocity=64, time=0),
    Message('note_off', channel=3, note=78, velocity=64, time=1),
    Message('note_off', channel=8, note=65, velocity=64, time=1),
    Message('pitchwheel', channel=5, pitch=0, time=1),
    Message('note_off', channel=6, note=81, velocity=64, time=4),
    Message('pitchwheel', channel=3, pitch=0, time=1),
    Message('control_change', channel=6, control=64, value=0, time=1),
    Message('control_change', channel=8, control=64, value=0, time=0),
    Message('note_on', channel=3, note=74, velocity=95, time=15),
    Message('note_on', channel=5, note=74, velocity=101, time=0),
    Message('note_off', channel=3, note=76, velocity=64, time=1),
    Message('note_off', channel=5, note=76, velocity=64, time=4),
    Message('note_off', channel=0, note=47, velocity=64, time=2),
    Message('note_off', channel=0, note=50, velocity=64, time=4),
    Message('note_off', channel=0, note=55, velocity=64, time=1),
    Message('note_off', channel=0, note=43, velocity=64, time=4),
    Message('note_off', channel=1, note=19, velocity=64, time=1),
    Message('note_off', channel=2, note=43, velocity=64, time=0),
    Message('note_off', channel=2, note=55, velocity=64, time=3),
    Message('note_off', channel=5, note=74, velocity=64, time=1),
    Message('note_on', channel=0, note=43, velocity=89, time=3),
    Message('note_on', channel=0, note=47, velocity=89, time=0),
    Message('note_on', channel=0, note=50, velocity=89, time=0),
    Message('note_on', channel=0, note=55, velocity=89, time=0),
    Message('note_on', channel=1, note=19, velocity=126, time=0),
    Message('note_on', channel=2, note=43, velocity=116, time=0),
    Message('note_on', channel=2, note=55, velocity=121, time=0),
    Message('note_on', channel=3, note=71, velocity=126, time=0),
    Message('note_on', channel=5, note=71, velocity=87, time=0),
    Message('note_on', channel=9, note=35, velocity=107, time=0),
    Message('note_on', channel=9, note=44, velocity=116, time=0),
    Message('note_off', channel=9, note=35, velocity=64, time=0),
    Message('note_off', channel=9, note=44, velocity=64, time=0),
    Message('note_off', channel=3, note=74, velocity=64, time=2),
    Message('note_off', channel=0, note=47, velocity=64, time=24),
    Message('control_change', channel=5, control=1, value=1, time=0),
    Message('note_off', channel=0, note=50, velocity=64, time=3),
    Message('note_off', channel=1, note=19, velocity=64, time=2),
    Message('note_off', channel=0, note=55, velocity=64, time=2),
    Message('note_off', channel=0, note=43, velocity=64, time=1),
    Message('control_change', channel=5, control=1, value=32, time=1),
    Message('note_off', channel=2, note=50, velocity=64, time=5),
    Message('control_change', channel=3, control=1, value=25, time=1),
    Message('note_off', channel=2, note=43, velocity=64, time=1),
    Message('note_off', channel=2, note=55, velocity=64, time=1),
    Message('control_change', channel=5, control=1, value=102, time=1),
    Message('control_change', channel=6, control=64, value=127, time=0),
    Message('control_change', channel=8, control=64, value=127, time=0),
    Message('note_on', channel=0, note=43, velocity=89, time=4),
    Message('note_on', channel=0, note=47, velocity=89, time=0),
    Message('note_on', channel=0, note=50, velocity=89, time=0),
    Message('note_on', channel=0, note=55, velocity=89, time=0),
    Message('note_on', channel=1, note=19, velocity=126, time=0),
    Message('note_on', channel=2, note=43, velocity=127, time=0),
    Message('note_on', channel=2, note=50, velocity=116, time=0),
    Message('note_on', channel=2, note=55, velocity=121, time=0),
    Message('note_on', channel=9, note=40, velocity=127, time=0),
    Message('note_on', channel=9, note=44, velocity=126, time=0),
    Message('note_off', channel=9, note=40, velocity=64, time=0),
    Message('note_off', channel=9, note=44, velocity=64, time=0),
    Message('control_change', channel=3, control=1, value=91, time=1),
    Message('control_change', channel=5, control=1, value=127, time=4),
    Message('control_change', channel=3, control=1, value=127, time=5),
    Message('note_off', channel=8, note=67, velocity=64, time=9),
    Message('note_off', channel=0, note=47, velocity=64, time=5),
    Message('note_off', channel=0, note=50, velocity=64, time=4),
    Message('note_off', channel=2, note=50, velocity=64, time=1),
    Message('note_off', channel=0, note=55, velocity=64, time=2),
    Message('note_off', channel=1, note=19, velocity=64, time=2),
    Message('note_off', channel=6, note=79, velocity=64, time=0),
    Message('note_off', channel=6, note=74, velocity=64, time=1),
    Message('note_off', channel=0, note=43, velocity=64, time=5),
    Message('note_off', channel=2, note=43, velocity=64, time=2),
    Message('note_off', channel=2, note=55, velocity=64, time=2),
    Message('note_off', channel=6, note=83, velocity=64, time=1),
    Message('note_on', channel=0, note=43, velocity=89, time=4),
    Message('note_on', channel=0, note=47, velocity=89, time=0),
    Message('note_on', channel=0, note=50, velocity=89, time=0),
    Message('note_on', channel=0, note=55, velocity=89, time=0),
    Message('note_on', channel=1, note=19, velocity=126, time=0),
    Message('note_on', channel=2, note=43, velocity=113, time=0),
    Message('note_on', channel=2, note=45, velocity=125, time=0),
    Message('note_on', channel=2, note=50, velocity=123, time=0),
    Message('note_on', channel=2, note=55, velocity=121, time=0),
    Message('note_on', channel=9, note=35, velocity=127, time=0),
    Message('note_on', channel=9, note=44, velocity=126, time=0),
    Message('note_off', channel=9, note=35, velocity=64, time=0),
    Message('note_off', channel=9, note=44, velocity=64, time=0),
    Message('note_off', channel=8, note=55, velocity=64, time=2),
    Message('note_off', channel=2, note=45, velocity=64, time=13),
    Message('note_off', channel=0, note=55, velocity=64, time=16),
    Message('note_off', channel=0, note=47, velocity=64, time=7),
    Message('note_off', channel=2, note=50, velocity=64, time=1),
    Message('note_off', channel=0, note=50, velocity=64, time=1),
    Message('note_off', channel=3, note=71, velocity=64, time=1),
    Message('note_off', channel=2, note=43, velocity=64, time=1),
    Message('note_off', channel=2, note=55, velocity=64, time=0),
    Message('note_off', channel=1, note=19, velocity=64, time=3),
    Message('control_change', channel=3, control=1, value=0, time=2),
    Message('note_on', channel=9, note=43, velocity=116, time=0),
    Message('note_off', channel=0, note=43, velocity=64, time=1),
    Message('note_on', channel=0, note=45, velocity=89, time=0),
    Message('note_on', channel=0, note=52, velocity=89, time=0),
    Message('note_on', channel=0, note=57, velocity=89, time=0),
    Message('note_on', channel=1, note=21, velocity=126, time=0),
    Message('note_on', channel=2, note=45, velocity=127, time=0),
    Message('note_on', channel=2, note=52, velocity=127, time=0),
    Message('note_on', channel=2, note=57, velocity=127, time=0),
    Message('note_on', channel=6, note=81, velocity=127, time=0),
    Message('note_on', channel=8, note=45, velocity=127, time=0),
    Message('note_on', channel=8, note=57, velocity=127, time=0),
    Message('note_on', channel=9, note=35, velocity=127, time=0),
    Message('note_off', channel=9, note=43, velocity=64, time=0),
    Message('control_change', channel=5, control=1, value=0, time=0),
    Message('note_off', channel=9, note=35, velocity=64, time=0),
    Message('note_off', channel=5, note=71, velocity=64, time=1),
    Message('pitchwheel', channel=5, pitch=0, time=4),
    Message('control_change', channel=6, control=64, value=0, time=5),
    Message('control_change', channel=8, control=64, value=0, time=0),
    Message('note_off', channel=0, note=52, velocity=64, time=26),
    Message('note_off', channel=0, note=45, velocity=64, time=1),
    Message('note_off', channel=2, note=45, velocity=64, time=2),
    Message('note_off', channel=8, note=57, velocity=64, time=1),
    Message('note_off', channel=1, note=21, velocity=64, time=0),
    Message('note_off', channel=6, note=81, velocity=64, time=0),
    Message('note_off', channel=8, note=45, velocity=64, time=1),
    Message('note_off', channel=0, note=57, velocity=64, time=0),
    Message('note_off', channel=2, note=52, velocity=64, time=3),
    Message('note_off', channel=2, note=57, velocity=64, time=1),
    Message('note_on', channel=3, note=71, velocity=126, time=51),
    Message('note_off', channel=3, note=71, velocity=64, time=39),
    Message('note_on', channel=3, note=74, velocity=126, time=9),
    Message('note_off', channel=3, note=74, velocity=64, time=17),
    Message('note_on', channel=3, note=74, velocity=126, time=7),
    Message('note_off', channel=3, note=74, velocity=64, time=22),
    Message('note_on', channel=1, note=26, velocity=125, time=2),
    Message('note_on', channel=9, note=35, velocity=127, time=0),
    Message('note_on', channel=9, note=49, velocity=126, time=0),
    Message('note_off', channel=9, note=35, velocity=64, time=0),
    Message('note_off', channel=9, note=49, velocity=64, time=0),
    Message('note_off', channel=1, note=26, velocity=64, time=24),
    Message('note_on', channel=1, note=26, velocity=126, time=24),
    Message('note_on', channel=9, note=35, velocity=127, time=0),
    Message('note_off', channel=9, note=35, velocity=64, time=0),
    Message('note_on', channel=0, note=55, velocity=89, time=48),
    Message('note_on', channel=1, note=31, velocity=126, time=0),
    Message('note_on', channel=2, note=55, velocity=110, time=0),
    Message('note_on', channel=9, note=46, velocity=126, time=0),
    Message('note_off', channel=1, note=26, velocity=64, time=0),
    Message('note_off', channel=9, note=46, velocity=64, time=0),
    Message('note_on', channel=9, note=46, velocity=122, time=16),
    Message('note_off', channel=9, note=46, velocity=64, time=0),
    Message('pitchwheel', channel=0, pitch=0, time=4),
    Message('pitchwheel', channel=2, pitch=0, time=0),
    Message('pitchwheel', channel=0, pitch=2805, time=4),
    Message('pitchwheel', channel=2, pitch=2805, time=0),
    Message('pitchwheel', channel=1, pitch=3373, time=2),
    Message('pitchwheel', channel=0, pitch=4930, time=2),
    Message('pitchwheel', channel=2, pitch=4930, time=0),
    Message('pitchwheel', channel=1, pitch=8191, time=2),
    Message('pitchwheel', channel=0, pitch=6800, time=2),
    Message('pitchwheel', channel=2, pitch=6800, time=0),
    Message('note_on', channel=9, note=46, velocity=124, time=0),
    Message('note_off', channel=9, note=46, velocity=64, time=0),
    Message('pitchwheel', channel=0, pitch=8191, time=4),
    Message('pitchwheel', channel=2, pitch=8191, time=0),
    Message('note_on', channel=0, note=60, velocity=89, time=12),
    Message('note_on', channel=0, note=65, velocity=89, time=0),
    Message('note_off', channel=1, note=31, velocity=64, time=0),
    Message('note_on', channel=1, note=41, velocity=126, time=0),
    Message('note_on', channel=2, note=60, velocity=97, time=0),
    Message('note_on', channel=2, note=65, velocity=91, time=0),
    Message('pitchwheel', channel=0, pitch=0, time=1),
    Message('pitchwheel', channel=2, pitch=0, time=0),
    Message('pitchwheel', channel=1, pitch=111, time=0),
    Message('note_off', channel=0, note=55, velocity=64, time=5),
    Message('note_off', channel=2, note=55, velocity=64, time=0),
    Message('pitchwheel', channel=1, pitch=0, time=0),
    Message('note_on', channel=9, note=48, velocity=108, time=42),
    Message('note_off', channel=9, note=48, velocity=64, time=0),
    Message('note_on', channel=9, note=48, velocity=111, time=15),
    Message('note_off', channel=9, note=48, velocity=64, time=1),
    Message('note_on', channel=9, note=48, velocity=112, time=15),
    Message('note_off', channel=9, note=48, velocity=64, time=1),
    Message('control_change', channel=0, control=1, value=23, time=11),
    Message('control_change', channel=2, control=1, value=23, time=0),
    Message('note_on', channel=9, note=48, velocity=114, time=4),
    Message('note_off', channel=9, note=48, velocity=64, time=1),
    Message('control_change', channel=0, control=1, value=53, time=3),
    Message('control_change', channel=2, control=1, value=53, time=0),
    Message('control_change', channel=0, control=1, value=107, time=9),
    Message('control_change', channel=2, control=1, value=107, time=0),
    Message('note_on', channel=9, note=48, velocity=116, time=3),
    Message('note_off', channel=9, note=48, velocity=64, time=1),
    Message('control_change', channel=0, control=1, value=127, time=4),
    Message('control_change', channel=2, control=1, value=127, time=0),
    Message('note_on', channel=9, note=48, velocity=116, time=12),
    Message('note_off', channel=9, note=48, velocity=64, time=0),
    Message('note_on', channel=9, note=45, velocity=116, time=15),
    Message('note_on', channel=1, note=38, velocity=126, time=1),
    Message('note_off', channel=9, note=45, velocity=64, time=0),
    Message('note_off', channel=1, note=41, velocity=64, time=7),
    Message('note_on', channel=9, note=45, velocity=116, time=8),
    Message('note_off', channel=9, note=45, velocity=64, time=1),
    Message('note_on', channel=9, note=45, velocity=116, time=15),
    Message('note_off', channel=9, note=45, velocity=64, time=1),
    Message('control_change', channel=0, control=1, value=111, time=10),
    Message('control_change', channel=2, control=1, value=111, time=0),
    Message('note_on', channel=9, note=43, velocity=116, time=6),
    Message('note_off', channel=9, note=43, velocity=64, time=0),
    Message('control_change', channel=0, control=1, value=107, time=2),
    Message('control_change', channel=2, control=1, value=107, time=0),
    Message('control_change', channel=0, control=1, value=127, time=9),
    Message('control_change', channel=2, control=1, value=127, time=0),
    Message('note_on', channel=9, note=43, velocity=116, time=5),
    Message('note_off', channel=9, note=43, velocity=64, time=0),
    Message('control_change', channel=0, control=1, value=95, time=5),
    Message('control_change', channel=2, control=1, value=95, time=0),
    Message('control_change', channel=0, control=1, value=127, time=8),
    Message('control_change', channel=2, control=1, value=127, time=0),
    Message('note_on', channel=9, note=43, velocity=116, time=3),
    Message('note_off', channel=9, note=43, velocity=64, time=0),
    Message('note_off', channel=0, note=60, velocity=64, time=4),
    Message('note_off', channel=2, note=60, velocity=64, time=0),
    Message('note_off', channel=0, note=65, velocity=64, time=2),
    Message('note_off', channel=2, note=65, velocity=64, time=0),
    Message('control_change', channel=0, control=1, value=107, time=1),
    Message('control_change', channel=2, control=1, value=107, time=0),
    Message('note_off', channel=1, note=38, velocity=64, time=2),
    Message('control_change', channel=0, control=1, value=0, time=7),
    Message('note_on', channel=1, note=26, velocity=126, time=0),
    Message('control_change', channel=2, control=1, value=0, time=0),
    Message('note_on', channel=9, note=35, velocity=127, time=0),
    Message('note_off', channel=9, note=35, velocity=64, time=0),
    Message('note_off', channel=1, note=26, velocity=64, time=16),
    Message('note_on', channel=1, note=26, velocity=126, time=32),
    Message('note_on', channel=9, note=35, velocity=127, time=0),
    Message('note_off', channel=9, note=35, velocity=64, time=0),
    Message('note_off', channel=1, note=26, velocity=64, time=39),
    Message('note_on', channel=0, note=55, velocity=89, time=9),
    Message('note_on', channel=1, note=31, velocity=126, time=0),
    Message('note_on', channel=2, note=55, velocity=100, time=0),
    Message('note_on', channel=9, note=46, velocity=126, time=0),
    Message('note_off', channel=9, note=46, velocity=64, time=0),
    Message('note_on', channel=9, note=46, velocity=126, time=16),
    Message('note_off', channel=9, note=46, velocity=64, time=0),
    Message('pitchwheel', channel=0, pitch=2465, time=12),
    Message('pitchwheel', channel=2, pitch=2465, time=0),
    Message('pitchwheel', channel=1, pitch=8191, time=1),
    Message('pitchwheel', channel=0, pitch=5780, time=3),
    Message('pitchwheel', channel=2, pitch=5780, time=0),
    Message('note_on', channel=9, note=46, velocity=125, time=0),
    Message('note_off', channel=9, note=46, velocity=64, time=0),
    Message('pitchwheel', channel=0, pitch=8191, time=4),
    Message('pitchwheel', channel=2, pitch=8191, time=0),
    Message('pitchwheel', channel=0, pitch=0, time=8),
    Message('pitchwheel', channel=2, pitch=0, time=0),
    Message('pitchwheel', channel=1, pitch=0, time=2),
    Message('note_on', channel=0, note=60, velocity=89, time=2),
    Message('note_on', channel=0, note=65, velocity=89, time=0),
    Message('note_on', channel=1, note=41, velocity=126, time=0),
    Message('note_on', channel=2, note=60, velocity=94, time=0),
    Message('note_on', channel=2, note=65, velocity=94, time=0),
    Message('note_off', channel=1, note=31, velocity=64, time=1),
    Message('note_off', channel=0, note=55, velocity=64, time=4),
    Message('note_off', channel=2, note=55, velocity=64, time=0),
    Message('note_on', channel=9, note=48, velocity=116, time=42),
    Message('note_off', channel=9, note=48, velocity=64, time=1),
    Message('note_on', channel=9, note=48, velocity=116, time=16),
    Message('note_off', channel=9, note=48, velocity=64, time=0),
    Message('note_on', channel=9, note=48, velocity=116, time=16),
    Message('note_off', channel=9, note=48, velocity=64, time=0),
    Message('note_on', channel=9, note=48, velocity=115, time=16),
    Message('note_off', channel=9, note=48, velocity=64, time=0),
    Message('note_on', channel=9, note=48, velocity=114, time=15),
    Message('note_off', channel=9, note=48, velocity=64, time=1),
    Message('control_change', channel=0, control=1, value=27, time=10),
    Message('control_change', channel=2, control=1, value=27, time=0),
    Message('note_on', channel=9, note=48, velocity=113, time=6),
    Message('note_off', channel=9, note=48, velocity=64, time=0),
    Message('control_change', channel=0, control=1, value=48, time=2),
    Message('control_change', channel=2, control=1, value=48, time=0),
    Message('control_change', channel=0, control=1, value=70, time=8),
    Message('control_change', channel=2, control=1, value=70, time=0),
    Message('note_on', channel=1, note=38, velocity=126, time=6),
    Message('note_off', channel=1, note=41, velocity=64, time=0),
    Message('note_on', channel=9, note=45, velocity=112, time=0),
    Message('note_off', channel=9, note=45, velocity=64, time=0),
    Message('control_change', channel=0, control=1, value=101, time=3),
    Message('control_change', channel=2, control=1, value=101, time=0),
    Message('note_on', channel=9, note=45, velocity=111, time=13),
    Message('note_off', channel=9, note=45, velocity=64, time=0),
    Message('control_change', channel=0, control=1, value=111, time=3),
    Message('control_change', channel=2, control=1, value=111, time=0),
    Message('note_on', channel=9, note=45, velocity=110, time=13),
    Message('note_off', channel=9, note=45, velocity=64, time=0),
    Message('control_change', channel=0, control=1, value=118, time=6),
    Message('control_change', channel=2, control=1, value=118, time=0),
    Message('note_on', channel=9, note=43, velocity=109, time=10),
    Message('note_off', channel=9, note=43, velocity=64, time=0),
    Message('control_change', channel=0, control=1, value=114, time=4),
    Message('control_change', channel=2, control=1, value=114, time=0),
    Message('note_on', channel=9, note=43, velocity=108, time=12),
    Message('control_change', channel=0, control=1, value=125, time=0),
    Message('control_change', channel=2, control=1, value=125, time=0),
    Message('note_off', channel=9, note=43, velocity=64, time=0),
    Message('note_off', channel=0, note=65, velocity=64, time=14),
    Message('note_off', channel=2, note=65, velocity=64, time=0),
    Message('control_change', channel=0, control=1, value=107, time=1),
    Message('control_change', channel=2, control=1, value=107, time=0),
    Message('note_on', channel=9, note=43, velocity=96, time=0),
    Message('note_off', channel=9, note=43, velocity=64, time=1),
    Message('note_off', channel=0, note=60, velocity=64, time=2),
    Message('note_off', channel=2, note=60, velocity=64, time=0),
    Message('control_change', channel=0, control=1, value=95, time=5),
    Message('control_change', channel=2, control=1, value=95, time=0),
    Message('note_off', channel=1, note=38, velocity=64, time=1),
    Message('control_change', channel=0, control=1, value=0, time=7),
    Message('control_change', channel=2, control=1, value=0, time=0),
    Message('note_on', channel=1, note=26, velocity=126, time=1),
    Message('note_on', channel=9, note=35, velocity=127, time=0),
    Message('note_off', channel=9, note=35, velocity=64, time=0),
    Message('note_off', channel=1, note=26, velocity=64, time=16),
    Message('note_on', channel=1, note=26, velocity=126, time=32),
    Message('note_on', channel=9, note=35, velocity=127, time=0),
    Message('note_off', channel=9, note=35, velocity=64, time=0),
    Message('note_off', channel=1, note=26, velocity=64, time=39),
    Message('note_on', channel=0, note=55, velocity=89, time=9),
    Message('note_on', channel=1, note=31, velocity=126, time=0),
    Message('note_on', channel=2, note=55, velocity=100, time=0),
    Message('note_on', channel=9, note=46, velocity=126, time=0),
    Message('note_off', channel=9, note=46, velocity=64, time=0),
    Message('note_on', channel=9, note=46, velocity=119, time=16),
    Message('note_off', channel=9, note=46, velocity=64, time=0),
    Message('pitchwheel', channel=0, pitch=2380, time=13),
    Message('pitchwheel', channel=1, pitch=5718, time=0),
    Message('pitchwheel', channel=2, pitch=2380, time=0),
    Message('note_on', channel=9, note=46, velocity=125, time=3),
    Message('note_off', channel=9, note=46, velocity=64, time=0),
    Message('pitchwheel', channel=1, pitch=8191, time=1),
    Message('pitchwheel', channel=0, pitch=5355, time=0),
    Message('pitchwheel', channel=2, pitch=5355, time=0),
    Message('pitchwheel', channel=0, pitch=8191, time=4),
    Message('pitchwheel', channel=2, pitch=8191, time=0),
    Message('pitchwheel', channel=0, pitch=0, time=5),
    Message('pitchwheel', channel=2, pitch=0, time=0),
    Message('pitchwheel', channel=1, pitch=6135, time=1),
    Message('pitchwheel', channel=1, pitch=0, time=4),
    Message('note_off', channel=1, note=31, velocity=64, time=0),
    Message('note_on', channel=0, note=60, velocity=89, time=1),
    Message('note_on', channel=0, note=65, velocity=89, time=0),
    Message('note_on', channel=1, note=41, velocity=126, time=0),
    Message('note_on', channel=2, note=60, velocity=91, time=0),
    Message('note_on', channel=2, note=65, velocity=94, time=0),
    Message('note_off', channel=0, note=55, velocity=64, time=7),
    Message('note_off', channel=2, note=55, velocity=64, time=0),
    Message('note_on', channel=9, note=48, velocity=105, time=41),
    Message('note_off', channel=9, note=48, velocity=64, time=0),
    Message('note_on', channel=9, note=48, velocity=111, time=15),
    Message('note_off', channel=9, note=48, velocity=64, time=1),
    Message('note_on', channel=9, note=48, velocity=111, time=15),
    Message('note_off', channel=9, note=48, velocity=64, time=1),
    Message('note_on', channel=9, note=48, velocity=112, time=15),
    Message('note_off', channel=9, note=48, velocity=64, time=1),
    Message('note_on', channel=9, note=48, velocity=114, time=15),
    Message('note_off', channel=9, note=48, velocity=64, time=1),
    Message('control_change', channel=0, control=1, value=33, time=5),
    Message('control_change', channel=2, control=1, value=33, time=0),
    Message('control_change', channel=0, control=1, value=75, time=9),
    Message('control_change', channel=2, control=1, value=75, time=0),
    Message('note_on', channel=9, note=45, velocity=116, time=2),
    Message('note_off', channel=9, note=45, velocity=64, time=0),
    Message('control_change', channel=0, control=1, value=98, time=6),
    Message('control_change', channel=2, control=1, value=98, time=0),
    Message('note_on', channel=9, note=45, velocity=116, time=9),
    Message('note_on', channel=1, note=38, velocity=126, time=1),
    Message('note_off', channel=9, note=45, velocity=64, time=0),
    Message('control_change', channel=0, control=1, value=114, time=0),
    Message('control_change', channel=2, control=1, value=114, time=0),
    Message('note_off', channel=1, note=41, velocity=64, time=4),
    Message('control_change', channel=0, control=1, value=127, time=6),
    Message('control_change', channel=2, control=1, value=127, time=0),
    Message('note_on', channel=9, note=45, velocity=116, time=5),
    Message('note_off', channel=9, note=45, velocity=64, time=1),
    Message('note_on', channel=9, note=45, velocity=116, time=16),
    Message('note_off', channel=9, note=45, velocity=64, time=0),
    Message('note_on', channel=9, note=43, velocity=116, time=15),
    Message('note_off', channel=9, note=43, velocity=64, time=1),
    Message('note_on', channel=9, note=43, velocity=116, time=16),
    Message('note_off', channel=9, note=43, velocity=64, time=0),
    Message('note_on', channel=9, note=43, velocity=116, time=16),
    Message('note_off', channel=9, note=43, velocity=64, time=0),
    Message('note_off', channel=0, note=60, velocity=64, time=6),
    Message('note_off', channel=2, note=60, velocity=64, time=0),
    Message('note_off', channel=0, note=65, velocity=64, time=2),
    Message('note_off', channel=2, note=65, velocity=64, time=0),
    Message('note_off', channel=1, note=38, velocity=64, time=1),
    Message('control_change', channel=0, control=1, value=104, time=2),
    Message('control_change', channel=2, control=1, value=104, time=0),
    Message('note_on', channel=1, note=26, velocity=126, time=5),
    Message('note_on', channel=9, note=35, velocity=127, time=0),
    Message('note_off', channel=9, note=35, velocity=64, time=0),
    Message('control_change', channel=0, control=1, value=0, time=3),
    Message('control_change', channel=2, control=1, value=0, time=0),
    Message('note_off', channel=1, note=26, velocity=64, time=12),
    Message('note_on', channel=1, note=26, velocity=126, time=33),
    Message('note_on', channel=9, note=35, velocity=127, time=0),
    Message('note_off', channel=9, note=35, velocity=64, time=0),
    Message('note_off', channel=1, note=26, velocity=64, time=42),
    Message('note_on', channel=0, note=55, velocity=89, time=6),
    Message('note_on', channel=1, note=31, velocity=126, time=0),
    Message('note_on', channel=2, note=55, velocity=107, time=0),
    Message('note_on', channel=9, note=46, velocity=126, time=0),
    Message('note_off', channel=9, note=46, velocity=64, time=0),
    Message('note_on', channel=9, note=46, velocity=125, time=16),
    Message('note_off', channel=9, note=46, velocity=64, time=0),
    Message('pitchwheel', channel=1, pitch=1349, time=5),
    Message('pitchwheel', channel=1, pitch=8191, time=4),
    Message('pitchwheel', channel=0, pitch=2380, time=2),
    Message('pitchwheel', channel=2, pitch=2380, time=0),
    Message('pitchwheel', channel=0, pitch=5525, time=4),
    Message('pitchwheel', channel=2, pitch=5525, time=0),
    Message('note_on', channel=9, note=46, velocity=122, time=1),
    Message('note_off', channel=9, note=46, velocity=64, time=0),
    Message('pitchwheel', channel=0, pitch=8191, time=3),
    Message('pitchwheel', channel=2, pitch=8191, time=0),
    Message('pitchwheel', channel=1, pitch=7581, time=6),
    Message('pitchwheel', channel=0, pitch=0, time=2),
    Message('pitchwheel', channel=2, pitch=0, time=0),
    Message('pitchwheel', channel=1, pitch=0, time=3),
    Message('note_on', channel=0, note=60, velocity=89, time=2),
    Message('note_on', channel=0, note=65, velocity=89, time=0),
    Message('note_on', channel=1, note=41, velocity=126, time=0),
    Message('note_on', channel=2, note=60, velocity=96, time=0),
    Message('note_on', channel=2, note=65, velocity=97, time=0),
    Message('note_off', channel=1, note=31, velocity=64, time=1),
    Message('note_off', channel=0, note=55, velocity=64, time=6),
    Message('note_off', channel=2, note=55, velocity=64, time=0),
    Message('note_on', channel=9, note=48, velocity=116, time=41),
    Message('note_off', channel=9, note=48, velocity=64, time=0),
    Message('note_on', channel=9, note=48, velocity=116, time=15),
    Message('note_off', channel=9, note=48, velocity=64, time=1),
    Message('note_on', channel=9, note=48, velocity=116, time=15),
    Message('note_off', channel=9, note=48, velocity=64, time=1),
    Message('control_change', channel=0, control=1, value=19, time=8),
    Message('control_change', channel=2, control=1, value=19, time=0),
    Message('note_on', channel=9, note=48, velocity=116, time=8),
    Message('control_change', channel=0, control=1, value=39, time=0),
    Message('control_change', channel=2, control=1, value=39, time=0),
    Message('note_off', channel=9, note=48, velocity=64, time=0),
    Message('control_change', channel=0, control=1, value=64, time=9),
    Message('control_change', channel=2, control=1, value=64, time=0),
    Message('note_on', channel=9, note=48, velocity=116, time=6),
    Message('note_off', channel=9, note=48, velocity=64, time=1),
    Message('control_change', channel=0, control=1, value=111, time=1),
    Message('control_change', channel=2, control=1, value=111, time=0),
    Message('control_change', channel=0, control=1, value=121, time=8),
    Message('control_change', channel=2, control=1, value=121, time=0),
    Message('note_on', channel=9, note=48, velocity=116, time=7),
    Message('note_off', channel=9, note=48, velocity=64, time=0),
    Message('control_change', channel=0, control=1, value=127, time=14),
    Message('control_change', channel=2, control=1, value=127, time=0),
    Message('note_on', channel=9, note=45, velocity=116, time=1),
    Message('note_on', channel=1, note=38, velocity=126, time=1),
    Message('note_off', channel=9, note=45, velocity=64, time=0),
    Message('note_off', channel=1, note=41, velocity=64, time=5),
    Message('note_on', channel=9, note=45, velocity=116, time=11),
    Message('note_off', channel=9, note=45, velocity=64, time=0),
    Message('note_on', channel=9, note=45, velocity=116, time=15),
    Message('note_off', channel=9, note=45, velocity=64, time=1),
    Message('note_on', channel=9, note=43, velocity=116, time=16),
    Message('note_off', channel=9, note=43, velocity=64, time=0),
    Message('note_on', channel=9, note=43, velocity=114, time=15),
    Message('note_off', channel=9, note=43, velocity=64, time=1),
    Message('control_change', channel=0, control=1, value=125, time=2),
    Message('control_change', channel=2, control=1, value=125, time=0),
    Message('note_off', channel=0, note=60, velocity=64, time=4),
    Message('note_off', channel=1, note=38, velocity=64, time=0),
    Message('note_off', channel=2, note=60, velocity=64, time=0),
    Message('note_off', channel=0, note=65, velocity=64, time=3),
    Message('note_off', channel=2, note=65, velocity=64, time=0),
    Message('control_change', channel=0, control=1, value=82, time=1),
    Message('control_change', channel=2, control=1, value=82, time=0),
    Message('note_on', channel=9, note=43, velocity=111, time=6),
    Message('note_off', channel=9, note=43, velocity=64, time=0),
    Message('control_change', channel=0, control=1, value=0, time=2),
    Message('control_change', channel=2, control=1, value=0, time=0),
    Message('note_on', channel=8, note=50, velocity=127, time=14),
    Message('note_on', channel=8, note=62, velocity=127, time=0),
    Message('note_on', channel=0, note=50, velocity=89, time=2),
    Message('note_on', channel=0, note=57, velocity=89, time=0),
    Message('note_on', channel=1, note=26, velocity=125, time=0),
    Message('note_on', channel=9, note=35, velocity=120, time=0),
    Message('note_on', channel=9, note=40, velocity=120, time=0),
    Message('note_on', channel=9, note=49, velocity=110, time=0),
    Message('note_off', channel=9, note=35, velocity=64, time=0),
    Message('note_off', channel=9, note=40, velocity=64, time=0),
    Message('note_off', channel=9, note=49, velocity=64, time=0),
    Message('note_off', channel=1, note=26, velocity=64, time=24),
    Message('note_on', channel=3, note=77, velocity=100, time=22),
    Message('note_on', channel=6, note=72, velocity=127, time=0),
    Message('note_on', channel=6, note=77, velocity=126, time=0),
    Message('note_on', channel=1, note=26, velocity=126, time=2),
    Message('note_on', channel=9, note=35, velocity=109, time=0),
    Message('note_on', channel=9, note=44, velocity=75, time=0),
    Message('note_off', channel=9, note=35, velocity=64, time=0),
    Message('note_off', channel=9, note=44, velocity=64, time=0),
    Message('note_on', channel=5, note=72, velocity=96, time=1),
    Message('control_change', channel=5, control=1, value=1, time=26),
    Message('control_change', channel=5, control=1, value=17, time=8),
    Message('note_off', channel=0, note=50, velocity=64, time=6),
    Message('control_change', channel=5, control=1, value=59, time=3),
    Message('note_off', channel=8, note=50, velocity=64, time=2),
    Message('note_on', channel=8, note=50, velocity=107, time=0),
    Message('note_on', channel=8, note=59, velocity=127, time=0),
    Message('note_off', channel=8, note=62, velocity=64, time=0),
    Message('note_on', channel=1, note=31, velocity=126, time=2),
    Message('note_on', channel=9, note=40, velocity=127, time=0),
    Message('note_on', channel=9, note=44, velocity=103, time=0),
    Message('note_off', channel=1, note=26, velocity=64, time=0),
    Message('note_off', channel=9, note=40, velocity=64, time=0),
    Message('note_off', channel=9, note=44, velocity=64, time=0),
    Message('note_off', channel=0, note=57, velocity=64, time=2),
    Message('note_on', channel=0, note=59, velocity=89, time=0),
    Message('note_on', channel=0, note=50, velocity=89, time=1),
    Message('control_change', channel=3, control=1, value=30, time=0),
    Message('control_change', channel=5, control=1, value=111, time=2),
    Message('control_change', channel=3, control=1, value=111, time=7),
    Message('control_change', channel=5, control=1, value=127, time=2),
    Message('control_change', channel=3, control=1, value=127, time=6),
    Message('pitchwheel', channel=1, pitch=3373, time=6),
    Message('pitchwheel', channel=1, pitch=8191, time=4),
    Message('note_off', channel=6, note=72, velocity=64, time=3),
    Message('control_change', channel=5, control=1, value=80, time=1),
    Message('note_off', channel=6, note=77, velocity=64, time=5),
    Message('control_change', channel=5, control=1, value=0, time=3),
    Message('note_on', channel=3, note=74, velocity=90, time=4),
    Message('note_on', channel=6, note=74, velocity=125, time=0),
    Message('note_on', channel=8, note=69, velocity=123, time=0),
    Message('control_change', channel=3, control=1, value=0, time=1),
    Message('note_off', channel=1, note=31, velocity=64, time=1),
    Message('note_on', channel=1, note=41, velocity=126, time=0),
    Message('note_on', channel=9, note=44, velocity=67, time=0),
    Message('note_off', channel=9, note=44, velocity=64, time=0),
    Message('note_off', channel=3, note=77, velocity=64, time=1),
    Message('pitchwheel', channel=1, pitch=111, time=0),
    Message('note_on', channel=5, note=69, velocity=85, time=1),
    Message('note_off', channel=5, note=72, velocity=64, time=2),
    Message('pitchwheel', channel=1, pitch=0, time=2),
    Message('note_off', channel=3, note=74, velocity=64, time=6),
    Message('note_off', channel=5, note=69, velocity=64, time=0),
    Message('note_off', channel=8, note=69, velocity=64, time=9),
    Message('note_off', channel=6, note=74, velocity=64, time=1),
    Message('note_off', channel=0, note=50, velocity=64, time=20),
    Message('note_on', channel=3, note=77, velocity=92, time=4),
    Message('note_on', channel=6, note=72, velocity=127, time=0),
    Message('note_on', channel=6, note=77, velocity=126, time=0),
    Message('note_off', channel=8, note=50, velocity=64, time=0),
    Message('note_on', channel=8, note=50, velocity=109, time=0),
    Message('note_on', channel=8, note=57, velocity=113, time=0),
    Message('note_off', channel=8, note=59, velocity=64, time=0),
    Message('note_on', channel=9, note=35, velocity=120, time=2),
    Message('note_on', channel=9, note=40, velocity=120, time=0),
    Message('note_on', channel=9, note=44, velocity=99, time=0),
    Message('note_off', channel=9, note=35, velocity=64, time=0),
    Message('note_off', channel=9, note=40, velocity=64, time=0),
    Message('note_off', channel=9, note=44, velocity=64, time=0),
    Message('note_on', channel=0, note=57, velocity=89, time=1),
    Message('note_on', channel=5, note=72, velocity=83, time=0),
    Message('note_on', channel=0, note=50, velocity=89, time=1),
    Message('note_off', channel=0, note=59, velocity=64, time=2),
    Message('note_off', channel=6, note=72, velocity=64, time=33),
    Message('note_on', channel=3, note=74, velocity=83, time=9),
    Message('note_off', channel=3, note=77, velocity=64, time=0),
    Message('note_on', channel=6, note=74, velocity=111, time=0),
    Message('note_on', channel=8, note=69, velocity=107, time=0),
    Message('note_on', channel=5, note=69, velocity=83, time=1),
    Message('note_off', channel=6, note=77, velocity=64, time=0),
    Message('note_on', channel=9, note=35, velocity=122, time=1),
    Message('note_on', channel=9, note=44, velocity=64, time=0),
    Message('note_off', channel=9, note=35, velocity=64, time=0),
    Message('note_off', channel=9, note=44, velocity=64, time=0),
    Message('note_off', channel=5, note=72, velocity=64, time=2),
    Message('note_off', channel=5, note=69, velocity=64, time=8),
    Message('note_off', channel=3, note=74, velocity=64, time=1),
    Message('note_off', channel=8, note=69, velocity=64, time=0),
    Message('note_off', channel=6, note=74, velocity=64, time=1),
    Message('note_off', channel=0, note=50, velocity=64, time=23),
    Message('note_on', channel=5, note=67, velocity=64, time=8),
    Message('note_on', channel=3, note=72, velocity=95, time=3),
    Message('note_on', channel=6, note=72, velocity=127, time=0),
    Message('note_off', channel=8, note=50, velocity=64, time=0),
    Message('note_on', channel=8, note=50, velocity=111, time=0),
    Message('note_off', channel=8, note=57, velocity=64, time=0),
    Message('note_on', channel=8, note=59, velocity=127, time=0),
    Message('note_on', channel=8, note=67, velocity=127, time=0),
    Message('note_on', channel=0, note=50, velocity=89, time=1),
    Message('note_on', channel=1, note=38, velocity=126, time=1),
    Message('note_on', channel=9, note=40, velocity=127, time=0),
    Message('note_on', channel=9, note=44, velocity=105, time=0),
    Message('note_off', channel=0, note=57, velocity=64, time=0),
    Message('note_on', channel=0, note=59, velocity=89, time=0),
    Message('note_off', channel=9, note=40, velocity=64, time=0),
    Message('note_off', channel=9, note=44, velocity=64, time=0),
    Message('note_off', channel=1, note=41, velocity=64, time=7),
    Message('note_off', channel=5, note=67, velocity=64, time=5),
    Message('note_off', channel=3, note=72, velocity=64, time=5),
    Message('note_off', channel=8, note=67, velocity=64, time=6),
    Message('note_off', channel=6, note=72, velocity=64, time=15),
    Message('note_on', channel=5, note=69, velocity=83, time=5),
    Message('note_on', channel=3, note=74, velocity=100, time=3),
    Message('note_on', channel=6, note=74, velocity=127, time=0),
    Message('note_on', channel=8, note=69, velocity=127, time=0),
    Message('note_on', channel=9, note=44, velocity=77, time=2),
    Message('note_off', channel=9, note=44, velocity=64, time=0),
    Message('control_change', channel=5, control=1, value=97, time=21),
    Message('note_off', channel=6, note=74, velocity=64, time=2),
    Message('note_off', channel=8, note=69, velocity=64, time=1),
    Message('control_change', channel=5, control=1, value=126, time=5),
    Message('control_change', channel=3, control=1, value=11, time=8),
    Message('note_off', channel=3, note=74, velocity=64, time=2),
    Message('note_off', channel=0, note=50, velocity=64, time=1),
    Message('note_off', channel=1, note=38, velocity=64, time=1),
    Message('control_change', channel=5, control=1, value=61, time=1),
    Message('control_change', channel=3, control=1, value=1, time=3),
    Message('note_off', channel=8, note=50, velocity=64, time=1),
    Message('note_on', channel=8, note=50, velocity=116, time=0),
    Message('note_on', channel=8, note=57, velocity=127, time=0),
    Message('note_off', channel=8, note=59, velocity=64, time=0),
    Message('note_on', channel=1, note=26, velocity=126, time=2),
    Message('note_on', channel=9, note=35, velocity=118, time=0),
    Message('note_on', channel=9, note=40, velocity=125, time=0),
    Message('note_on', channel=9, note=44, velocity=107, time=0),
    Message('note_off', channel=9, note=35, velocity=64, time=0),
    Message('note_off', channel=9, note=40, velocity=64, time=0),
    Message('note_off', channel=9, note=44, velocity=64, time=0),
    Message('note_on', channel=0, note=57, velocity=89, time=1),
    Message('note_on', channel=0, note=50, velocity=89, time=0),
    Message('control_change', channel=5, control=1, value=62, time=2),
    Message('note_off', channel=0, note=59, velocity=64, time=1),
    Message('control_change', channel=3, control=1, value=127, time=2),
    Message('note_off', channel=5, note=69, velocity=64, time=0),
    Message('control_change', channel=5, control=1, value=85, time=5),
    Message('note_off', channel=1, note=26, velocity=64, time=5),
    Message('control_change', channel=5, control=1, value=0, time=2),
    Message('control_change', channel=3, control=1, value=0, time=2),
    Message('note_on', channel=3, note=77, velocity=103, time=26),
    Message('note_on', channel=6, note=72, velocity=127, time=0),
    Message('note_on', channel=6, note=77, velocity=126, time=0),
    Message('note_on', channel=1, note=26, velocity=126, time=2),
    Message('note_on', channel=5, note=72, velocity=71, time=0),
    Message('note_on', channel=9, note=35, velocity=114, time=0),
    Message('note_on', channel=9, note=44, velocity=83, time=0),
    Message('note_off', channel=9, note=35, velocity=64, time=0),
    Message('note_off', channel=9, note=44, velocity=64, time=0),
    Message('control_change', channel=3, control=1, value=8, time=35),
    Message('note_off', channel=0, note=50, velocity=64, time=3),
    Message('note_off', channel=1, note=26, velocity=64, time=1),
    Message('control_change', channel=5, control=1, value=5, time=1),
    Message('control_change', channel=3, control=1, value=31, time=3),
    Message('note_off', channel=8, note=50, velocity=64, time=3),
    Message('note_on', channel=8, note=50, velocity=103, time=0),
    Message('note_off', channel=8, note=57, velocity=64, time=0),
    Message('note_on', channel=8, note=59, velocity=127, time=0),
    Message('note_on', channel=0, note=50, velocity=89, time=2),
    Message('note_on', channel=1, note=31, velocity=126, time=0),
    Message('note_on', channel=9, note=40, velocity=127, time=0),
    Message('note_on', channel=9, note=44, velocity=109, time=0),
    Message('note_off', channel=0, note=57, velocity=64, time=0),
    Message('note_off', channel=9, note=40, velocity=64, time=0),
    Message('note_off', channel=9, note=44, velocity=64, time=0),
    Message('note_on', channel=0, note=59, velocity=89, time=1),
    Message('control_change', channel=5, control=1, value=33, time=0),
    Message('control_change', channel=3, control=1, value=17, time=3),
    Message('control_change', channel=5, control=1, value=107, time=6),
    Message('control_change', channel=3, control=1, value=68, time=2),
    Message('control_change', channel=5, control=1, value=127, time=7),
    Message('control_change', channel=3, control=1, value=127, time=1),
    Message('pitchwheel', channel=1, pitch=8191, time=9),
    Message('note_off', channel=3, note=77, velocity=64, time=16),
    Message('control_change', channel=5, control=1, value=0, time=0),
    Message('note_off', channel=6, note=72, velocity=64, time=0),
    Message('note_on', channel=3, note=74, velocity=93, time=1),
    Message('note_on', channel=6, note=74, velocity=113, time=0),
    Message('note_on', channel=8, note=69, velocity=113, time=0),
    Message('pitchwheel', channel=1, pitch=0, time=0),
    Message('note_on', channel=1, note=41, velocity=126, time=2),
    Message('note_on', channel=9, note=44, velocity=77, time=0),
    Message('note_off', channel=9, note=44, velocity=64, time=0),
    Message('note_off', channel=1, note=31, velocity=64, time=1),
    Message('note_on', channel=5, note=69, velocity=85, time=2),
    Message('note_off', channel=6, note=77, velocity=64, time=1),
    Message('note_off', channel=5, note=72, velocity=64, time=1),
    Message('control_change', channel=3, control=1, value=0, time=1),
    Message('note_off', channel=3, note=74, velocity=64, time=7),
    Message('note_off', channel=5, note=69, velocity=64, time=3),
    Message('note_off', channel=8, note=69, velocity=64, time=19),
    Message('note_off', channel=6, note=74, velocity=64, time=5),
    Message('note_off', channel=0, note=50, velocity=64, time=1),
    Message('note_on', channel=3, note=77, velocity=95, time=5),
    Message('note_on', channel=6, note=72, velocity=127, time=0),
    Message('note_on', channel=6, note=77, velocity=123, time=0),
    Message('note_off', channel=8, note=50, velocity=64, time=0),
    Message('note_on', channel=8, note=50, velocity=118, time=0),
    Message('note_on', channel=8, note=57, velocity=125, time=0),
    Message('note_off', channel=8, note=59, velocity=64, time=0),
    Message('note_on', channel=5, note=72, velocity=46, time=1),
    Message('note_on', channel=9, note=35, velocity=120, time=1),
    Message('note_on', channel=9, note=40, velocity=116, time=0),
    Message('note_on', channel=9, note=44, velocity=119, time=0),
    Message('note_on', channel=0, note=57, velocity=89, time=0),
    Message('note_off', channel=9, note=35, velocity=64, time=0),
    Message('note_off', channel=9, note=40, velocity=64, time=0),
    Message('note_off', channel=9, note=44, velocity=64, time=0),
    Message('note_on', channel=0, note=50, velocity=89, time=2),
    Message('note_off', channel=0, note=59, velocity=64, time=3),
    Message('control_change', channel=5, control=1, value=1, time=23),
    Message('control_change', channel=5, control=1, value=76, time=10),
    Message('note_off', channel=6, note=72, velocity=64, time=2),
    Message('note_off', channel=3, note=77, velocity=64, time=5),
    Message('note_on', channel=3, note=74, velocity=97, time=1),
    Message('note_on', channel=6, note=74, velocity=107, time=0),
    Message('note_on', channel=8, note=69, velocity=103, time=0),
    Message('control_change', channel=5, control=1, value=0, time=1),
    Message('note_off', channel=6, note=77, velocity=64, time=0),
    Message('note_on', channel=5, note=69, velocity=77, time=1),
    Message('note_on', channel=9, note=35, velocity=127, time=0),
    Message('note_on', channel=9, note=44, velocity=77, time=0),
    Message('note_off', channel=9, note=35, velocity=64, time=0),
    Message('note_off', channel=9, note=44, velocity=64, time=0),
    Message('note_off', channel=5, note=72, velocity=64, time=5),
    Message('note_off', channel=3, note=74, velocity=64, time=4),
    Message('note_off', channel=5, note=69, velocity=64, time=4),
    Message('note_off', channel=8, note=69, velocity=64, time=3),
    Message('note_off', channel=6, note=74, velocity=64, time=3),
    Message('note_off', channel=0, note=50, velocity=64, time=20),
    Message('note_on', channel=5, note=67, velocity=70, time=5),
    Message('note_on', channel=3, note=72, velocity=97, time=2),
    Message('note_on', channel=6, note=72, velocity=123, time=0),
    Message('note_off', channel=8, note=50, velocity=64, time=0),
    Message('note_on', channel=8, note=50, velocity=103, time=0),
    Message('note_off', channel=8, note=57, velocity=64, time=0),
    Message('note_on', channel=8, note=59, velocity=123, time=0),
    Message('note_on', channel=8, note=67, velocity=126, time=0),
    Message('note_on', channel=0, note=50, velocity=89, time=2),
    Message('note_on', channel=1, note=38, velocity=126, time=0),
    Message('note_off', channel=1, note=41, velocity=64, time=0),
    Message('note_on', channel=9, note=40, velocity=127, time=0),
    Message('note_on', channel=9, note=44, velocity=116, time=0),
    Message('note_on', channel=0, note=59, velocity=89, time=0),
    Message('note_off', channel=9, note=40, velocity=64, time=0),
    Message('note_off', channel=9, note=44, velocity=64, time=0),
    Message('note_off', channel=0, note=57, velocity=64, time=1),
    Message('note_off', channel=3, note=72, velocity=64, time=8),
    Message('note_off', channel=5, note=67, velocity=64, time=4),
    Message('note_off', channel=8, note=67, velocity=64, time=3),
    Message('note_off', channel=6, note=72, velocity=64, time=25),
    Message('note_on', channel=5, note=69, velocity=87, time=4),
    Message('note_on', channel=3, note=74, velocity=98, time=1),
    Message('note_on', channel=6, note=74, velocity=113, time=0),
    Message('note_on', channel=8, note=69, velocity=113, time=0),
    Message('note_on', channel=9, note=44, velocity=87, time=2),
    Message('note_off', channel=9, note=44, velocity=64, time=0),
    Message('note_off', channel=5, note=69, velocity=64, time=17),
    Message('note_off', channel=8, note=69, velocity=64, time=1),
    Message('note_off', channel=6, note=74, velocity=64, time=3),
    Message('control_change', channel=3, control=1, value=125, time=12),
    Message('note_off', channel=0, note=50, velocity=64, time=5),
    Message('note_off', channel=1, note=38, velocity=64, time=2),
    Message('control_change', channel=3, control=1, value=0, time=3),
    Message('note_off', channel=8, note=50, velocity=64, time=3),
    Message('note_on', channel=8, note=50, velocity=113, time=0),
    Message('note_on', channel=8, note=57, velocity=125, time=0),
    Message('note_off', channel=8, note=59, velocity=64, time=0),
    Message('note_on', channel=0, note=57, velocity=89, time=1),
    Message('note_on', channel=1, note=26, velocity=126, time=1),
    Message('note_on', channel=9, note=35, velocity=127, time=0),
    Message('note_on', channel=9, note=40, velocity=125, time=0),
    Message('note_on', channel=9, note=44, velocity=113, time=0),
    Message('note_off', channel=9, note=35, velocity=64, time=0),
    Message('note_off', channel=9, note=40, velocity=64, time=0),
    Message('note_off', channel=9, note=44, velocity=64, time=0),
    Message('note_off', channel=3, note=74, velocity=64, time=1),
    Message('note_on', channel=0, note=50, velocity=89, time=0),
    Message('note_off', channel=0, note=59, velocity=64, time=3),
    Message('control_change', channel=3, control=1, value=127, time=2),
    Message('note_off', channel=1, note=26, velocity=64, time=10),
    Message('control_change', channel=3, control=1, value=0, time=2),
    Message('note_on', channel=3, note=77, velocity=102, time=28),
    Message('note_on', channel=6, note=72, velocity=127, time=0),
    Message('note_on', channel=6, note=77, velocity=127, time=0),
    Message('note_on', channel=1, note=26, velocity=126, time=2),
    Message('note_on', channel=9, note=35, velocity=127, time=0),
    Message('note_on', channel=9, note=44, velocity=83, time=0),
    Message('note_on', channel=5, note=72, velocity=91, time=0),
    Message('note_off', channel=9, note=35, velocity=64, time=0),
    Message('note_off', channel=9, note=44, velocity=64, time=0),
    Message('control_change', channel=5, control=1, value=2, time=27),
    Message('note_off', channel=0, note=50, velocity=64, time=8),
    Message('control_change', channel=5, control=1, value=33, time=1),
    Message('note_off', channel=1, note=26, velocity=64, time=3),
    Message('note_on', channel=0, note=50, velocity=89, time=6),
    Message('control_change', channel=5, control=1, value=47, time=0),
    Message('note_off', channel=0, note=57, velocity=64, time=1),
    Message('note_off', channel=8, note=50, velocity=64, time=0),
    Message('note_on', channel=8, note=50, velocity=118, time=0),
    Message('note_off', channel=8, note=57, velocity=64, time=0),
    Message('note_on', channel=8, note=59, velocity=125, time=0),
    Message('note_on', channel=0, note=59, velocity=89, time=0),
    Message('note_on', channel=1, note=31, velocity=126, time=2),
    Message('note_on', channel=9, note=40, velocity=127, time=0),
    Message('note_on', channel=9, note=44, velocity=116, time=0),
    Message('note_off', channel=9, note=40, velocity=64, time=0),
    Message('note_off', channel=9, note=44, velocity=64, time=0),
    Message('control_change', channel=3, control=1, value=12, time=4),
    Message('control_change', channel=5, control=1, value=83, time=2),
    Message('control_change', channel=3, control=1, value=2, time=6),
    Message('control_change', channel=5, control=1, value=116, time=5),
    Message('control_change', channel=3, control=1, value=127, time=4),
    Message('control_change', channel=5, control=1, value=116, time=3),
    Message('pitchwheel', channel=1, pitch=5718, time=5),
    Message('pitchwheel', channel=1, pitch=8191, time=4),
    Message('control_change', channel=5, control=1, value=0, time=0),
    Message('note_off', channel=3, note=77, velocity=64, time=7),
    Message('note_off', channel=5, note=72, velocity=64, time=2),
    Message('pitchwheel', channel=1, pitch=6135, time=1),
    Message('note_off', channel=6, note=72, velocity=64, time=0),
    Message('control_change', channel=3, control=1, value=0, time=0),
    Message('note_on', channel=5, note=69, velocity=73, time=1),
    Message('note_on', channel=3, note=74, velocity=86, time=2),
    Message('note_on', channel=6, note=74, velocity=109, time=0),
    Message('note_on', channel=8, note=69, velocity=109, time=0),
    Message('pitchwheel', channel=1, pitch=0, time=1),
    Message('note_off', channel=1, note=31, velocity=64, time=0),
    Message('note_on', channel=1, note=41, velocity=126, time=1),
    Message('note_on', channel=9, note=44, velocity=66, time=0),
    Message('note_off', channel=6, note=77, velocity=64, time=0),
    Message('note_off', channel=9, note=44, velocity=64, time=0),
    Message('note_off', channel=5, note=69, velocity=64, time=9),
    Message('note_off', channel=8, note=69, velocity=64, time=3),
    Message('note_off', channel=3, note=74, velocity=64, time=9),
    Message('note_off', channel=6, note=74, velocity=64, time=2),
    Message('note_off', channel=0, note=50, velocity=64, time=14),
    Message('note_on', channel=5, note=72, velocity=89, time=8),
    Message('note_on', channel=0, note=57, velocity=89, time=1),
    Message('note_on', channel=3, note=77, velocity=99, time=0),
    Message('note_on', channel=6, note=72, velocity=127, time=0),
    Message('note_on', channel=6, note=77, velocity=121, time=0),
    Message('note_off', channel=8, note=50, velocity=64, time=0),
    Message('note_on', channel=8, note=50, velocity=113, time=0),
    Message('note_on', channel=8, note=57, velocity=125, time=0),
    Message('note_off', channel=8, note=59, velocity=64, time=0),
    Message('note_on', channel=0, note=50, velocity=89, time=1),
    Message('note_on', channel=9, note=35, velocity=127, time=1),
    Message('note_on', channel=9, note=40, velocity=125, time=0),
    Message('note_on', channel=9, note=44, velocity=116, time=0),
    Message('note_off', channel=9, note=35, velocity=64, time=0),
    Message('note_off', channel=9, note=40, velocity=64, time=0),
    Message('note_off', channel=9, note=44, velocity=64, time=0),
    Message('note_off', channel=0, note=59, velocity=64, time=3),
    Message('control_change', channel=5, control=1, value=1, time=10),
    Message('control_change', channel=5, control=1, value=21, time=8),
    Message('control_change', channel=5, control=1, value=95, time=8),
    Message('control_change', channel=5, control=1, value=91, time=8),
    Message('note_off', channel=6, note=72, velocity=64, time=5),
    Message('control_change', channel=5, control=1, value=0, time=3),
    Message('note_on', channel=3, note=74, velocity=92, time=1),
    Message('note_on', channel=6, note=74, velocity=109, time=0),
    Message('note_on', channel=8, note=69, velocity=99, time=0),
    Message('note_on', channel=5, note=69, velocity=83, time=0),
    Message('note_off', channel=3, note=77, velocity=64, time=1),
    Message('note_off', channel=6, note=77, velocity=64, time=1),
    Message('note_on', channel=9, note=35, velocity=127, time=0),
    Message('note_on', channel=9, note=44, velocity=81, time=0),
    Message('note_off', channel=9, note=35, velocity=64, time=0),
    Message('note_off', channel=9, note=44, velocity=64, time=0),
    Message('note_off', channel=5, note=72, velocity=64, time=4),
    Message('note_off', channel=3, note=74, velocity=64, time=7),
    Message('note_off', channel=5, note=69, velocity=64, time=0),
    Message('note_off', channel=8, note=69, velocity=64, time=2),
    Message('note_off', channel=6, note=74, velocity=64, time=7),
    Message('note_off', channel=0, note=50, velocity=64, time=16),
    Message('note_on', channel=5, note=67, velocity=64, time=6),
    Message('note_on', channel=0, note=59, velocity=89, time=2),
    Message('note_on', channel=0, note=50, velocity=89, time=2),
    Message('note_on', channel=3, note=72, velocity=102, time=0),
    Message('note_on', channel=6, note=72, velocity=127, time=0),
    Message('note_off', channel=8, note=50, velocity=64, time=0),
    Message('note_on', channel=8, note=50, velocity=98, time=0),
    Message('note_off', channel=8, note=57, velocity=64, time=0),
    Message('note_on', channel=8, note=59, velocity=118, time=0),
    Message('note_on', channel=8, note=67, velocity=126, time=0),
    Message('note_off', channel=0, note=57, velocity=64, time=0),
    Message('note_on', channel=1, note=38, velocity=126, time=2),
    Message('note_on', channel=9, note=40, velocity=127, time=0),
    Message('note_on', channel=9, note=44, velocity=103, time=0),
    Message('note_off', channel=9, note=40, velocity=64, time=0),
    Message('note_off', channel=9, note=44, velocity=64, time=0),
    Message('note_off', channel=1, note=41, velocity=64, time=4),
    Message('note_off', channel=3, note=72, velocity=64, time=5),
    Message('note_off', channel=5, note=67, velocity=64, time=1),
    Message('note_off', channel=8, note=67, velocity=64, time=5),
    Message('note_off', channel=6, note=72, velocity=64, time=20),
    Message('note_on', channel=3, note=74, velocity=94, time=11),
    Message('note_on', channel=6, note=74, velocity=116, time=0),
    Message('note_on', channel=8, note=69, velocity=118, time=0),
    Message('note_on', channel=5, note=69, velocity=94, time=1),
    Message('note_on', channel=9, note=44, velocity=69, time=1),
    Message('note_off', channel=9, note=44, velocity=64, time=0),
    Message('note_off', channel=8, note=69, velocity=64, time=19),
    Message('note_off', channel=5, note=69, velocity=64, time=1),
    Message('note_off', channel=6, note=74, velocity=64, time=2),
    Message('control_change', channel=3, control=1, value=3, time=11),
    Message('note_off', channel=0, note=50, velocity=64, time=4),
    Message('note_off', channel=1, note=38, velocity=64, time=4),
    Message('control_change', channel=3, control=1, value=127, time=0),
    Message('note_off', channel=3, note=74, velocity=64, time=2),
    Message('note_on', channel=0, note=57, velocity=89, time=2),
    Message('note_off', channel=8, note=50, velocity=64, time=1),
    Message('note_on', channel=8, note=50, velocity=126, time=0),
    Message('note_on', channel=8, note=57, velocity=121, time=0),
    Message('note_off', channel=8, note=59, velocity=64, time=0),
    Message('note_on', channel=1, note=26, velocity=126, time=2),
    Message('note_on', channel=9, note=35, velocity=127, time=0),
    Message('note_on', channel=9, note=40, velocity=127, time=0),
    Message('note_on', channel=9, note=44, velocity=97, time=0),
    Message('note_on', channel=0, note=50, velocity=89, time=0),
    Message('note_off', channel=9, note=35, velocity=64, time=0),
    Message('note_off', channel=9, note=40, velocity=64, time=0),
    Message('note_off', channel=9, note=44, velocity=64, time=0),
    Message('note_off', channel=0, note=59, velocity=64, time=4),
    Message('control_change', channel=3, control=1, value=0, time=2),
    Message('note_off', channel=1, note=26, velocity=64, time=9),
    Message('note_on', channel=3, note=77, velocity=104, time=31),
    Message('note_on', channel=6, note=72, velocity=127, time=0),
    Message('note_on', channel=6, note=77, velocity=125, time=0),
    Message('note_on', channel=1, note=26, velocity=126, time=2),
    Message('note_on', channel=9, note=35, velocity=118, time=0),
    Message('note_on', channel=9, note=44, velocity=76, time=0),
    Message('note_off', channel=9, note=35, velocity=64, time=0),
    Message('note_off', channel=9, note=44, velocity=64, time=0),
    Message('note_on', channel=5, note=72, velocity=94, time=2),
    Message('note_off', channel=0, note=50, velocity=64, time=32),
    Message('note_off', channel=1, note=26, velocity=64, time=8),
    Message('note_off', channel=8, note=50, velocity=64, time=4),
    Message('note_on', channel=8, note=50, velocity=111, time=0),
    Message('note_off', channel=8, note=57, velocity=64, time=0),
    Message('note_on', channel=8, note=59, velocity=125, time=0),
    Message('note_on', channel=0, note=50, velocity=89, time=1),
    Message('control_change', channel=5, control=1, value=9, time=0),
    Message('note_on', channel=1, note=31, velocity=126, time=1),
    Message('note_on', channel=9, note=40, velocity=127, time=0),
    Message('note_on', channel=9, note=44, velocity=109, time=0),
    Message('note_on', channel=0, note=59, velocity=89, time=0),
    Message('note_off', channel=9, note=40, velocity=64, time=0),
    Message('note_off', channel=9, note=44, velocity=64, time=0),
    Message('note_off', channel=0, note=57, velocity=64, time=3),
    Message('control_change', channel=5, control=1, value=53, time=4),
    Message('control_change', channel=3, control=1, value=127, time=9),
    Message('control_change', channel=5, control=1, value=119, time=0),
    Message('pitchwheel', channel=1, pitch=1349, time=5),
    Message('control_change', channel=5, control=1, value=126, time=3),
    Message('pitchwheel', channel=1, pitch=8191, time=1),
    Message('control_change', channel=3, control=1, value=107, time=8),
    Message('control_change', channel=5, control=1, value=102, time=5),
    Message('note_off', channel=6, note=72, velocity=64, time=0),
    Message('pitchwheel', channel=1, pitch=7581, time=3),
    Message('control_change', channel=3, control=1, value=0, time=1),
    Message('note_off', channel=3, note=77, velocity=64, time=2),
    Message('note_off', channel=6, note=77, velocity=64, time=1),
    Message('pitchwheel', channel=1, pitch=0, time=1),
    Message('note_on', channel=3, note=74, velocity=96, time=0),
    Message('control_change', channel=5, control=1, value=0, time=0),
    Message('note_on', channel=6, note=74, velocity=111, time=0),
    Message('note_on', channel=8, note=69, velocity=111, time=0),
    Message('note_on', channel=1, note=41, velocity=126, time=2),
    Message('note_on', channel=9, note=44, velocity=53, time=0),
    Message('note_off', channel=9, note=44, velocity=64, time=0),
    Message('note_off', channel=1, note=31, velocity=64, time=1),
    Message('note_on', channel=5, note=69, velocity=85, time=2),
    Message('note_off', channel=5, note=72, velocity=64, time=2),
    Message('note_off', channel=3, note=74, velocity=64, time=10),
    Message('note_off', channel=8, note=69, velocity=64, time=1),
    Message('note_off', channel=5, note=69, velocity=64, time=1),
    Message('note_off', channel=6, note=74, velocity=64, time=4),
    Message('note_off', channel=0, note=50, velocity=64, time=19),
    Message('note_on', channel=3, note=77, velocity=97, time=6),
    Message('note_on', channel=6, note=72, velocity=127, time=0),
    Message('note_on', channel=6, note=77, velocity=126, time=0),
    Message('note_off', channel=8, note=50, velocity=64, time=0),
    Message('note_on', channel=8, note=50, velocity=113, time=0),
    Message('note_on', channel=8, note=57, velocity=125, time=0),
    Message('note_off', channel=8, note=59, velocity=64, time=0),
    Message('note_on', channel=0, note=57, velocity=89, time=1),
    Message('note_on', channel=9, note=35, velocity=127, time=1),
    Message('note_on', channel=9, note=40, velocity=127, time=0),
    Message('note_on', channel=9, note=44, velocity=109, time=0),
    Message('note_off', channel=9, note=35, velocity=64, time=0),
    Message('note_off', channel=9, note=40, velocity=64, time=0),
    Message('note_off', channel=9, note=44, velocity=64, time=0),
    Message('note_on', channel=5, note=72, velocity=85, time=1),
    Message('note_on', channel=0, note=50, velocity=89, time=2),
    Message('note_off', channel=0, note=59, velocity=64, time=1),
    Message('note_off', channel=6, note=72, velocity=64, time=37),
    Message('note_on', channel=5, note=69, velocity=83, time=2),
    Message('note_on', channel=3, note=74, velocity=94, time=3),
    Message('note_on', channel=6, note=74, velocity=105, time=0),
    Message('note_on', channel=8, note=69, velocity=100, time=0),
    Message('note_off', channel=5, note=72, velocity=64, time=1),
    Message('note_on', channel=9, note=35, velocity=120, time=1),
    Message('note_on', channel=9, note=44, velocity=69, time=0),
    Message('note_off', channel=9, note=35, velocity=64, time=0),
    Message('note_off', channel=9, note=44, velocity=64, time=0),
    Message('note_off', channel=6, note=77, velocity=64, time=1),
    Message('note_off', channel=3, note=77, velocity=64, time=1),
    Message('note_off', channel=3, note=74, velocity=64, time=7),
    Message('note_off', channel=5, note=69, velocity=64, time=0),
    Message('note_off', channel=8, note=69, velocity=64, time=3),
    Message('note_off', channel=6, note=74, velocity=64, time=2),
    Message('note_off', channel=0, note=50, velocity=64, time=25),
    Message('note_on', channel=3, note=72, velocity=98, time=7),
    Message('note_on', channel=6, note=72, velocity=125, time=0),
    Message('note_off', channel=8, note=50, velocity=64, time=0),
    Message('note_on', channel=8, note=50, velocity=120, time=0),
    Message('note_off', channel=8, note=57, velocity=64, time=0),
    Message('note_on', channel=8, note=59, velocity=123, time=0),
    Message('note_on', channel=8, note=67, velocity=123, time=0),
    Message('note_on', channel=1, note=38, velocity=126, time=2),
    Message('note_on', channel=5, note=67, velocity=81, time=0),
    Message('note_on', channel=9, note=40, velocity=127, time=0),
    Message('note_on', channel=9, note=44, velocity=116, time=0),
    Message('note_off', channel=9, note=40, velocity=64, time=0),
    Message('note_off', channel=9, note=44, velocity=64, time=0),
    Message('note_on', channel=0, note=50, velocity=89, time=1),
    Message('note_on', channel=0, note=59, velocity=89, time=0),
    Message('note_off', channel=0, note=57, velocity=64, time=1),
    Message('note_off', channel=1, note=41, velocity=64, time=3),
    Message('note_off', channel=8, note=67, velocity=64, time=13),
    Message('note_off', channel=5, note=67, velocity=64, time=3),
    Message('note_off', channel=3, note=72, velocity=64, time=16),
    Message('note_off', channel=6, note=72, velocity=64, time=2),
    Message('note_on', channel=5, note=69, velocity=91, time=6),
    Message('note_on', channel=3, note=74, velocity=102, time=1),
    Message('note_on', channel=6, note=74, velocity=121, time=0),
    Message('note_on', channel=8, note=69, velocity=125, time=0),
    Message('note_on', channel=9, note=44, velocity=76, time=2),
    Message('note_off', channel=9, note=44, velocity=64, time=0),
    Message('note_off', channel=0, note=59, velocity=64, time=15),
    Message('note_off', channel=3, note=74, velocity=64, time=2),
    Message('note_off', channel=5, note=69, velocity=64, time=0),
    Message('note_off', channel=1, note=38, velocity=64, time=5),
    Message('note_off', channel=0, note=50, velocity=64, time=4),
    Message('note_off', channel=8, note=69, velocity=64, time=14),
    Message('note_off', channel=6, note=74, velocity=64, time=4),
    Message('note_off', channel=8, note=50, velocity=64, time=2),
    Message('note_on', channel=8, note=57, velocity=127, time=0),
    Message('note_off', channel=8, note=59, velocity=64, time=0),
    Message('note_on', channel=8, note=64, velocity=127, time=0),
    Message('note_on', channel=0, note=45, velocity=89, time=2),
    Message('note_on', channel=0, note=52, velocity=89, time=0),
    Message('note_on', channel=1, note=21, velocity=124, time=0),
    Message('note_on', channel=9, note=35, velocity=127, time=0),
    Message('note_on', channel=9, note=40, velocity=125, time=0),
    Message('note_on', channel=9, note=49, velocity=103, time=0),
    Message('note_off', channel=9, note=35, velocity=64, time=0),
    Message('note_off', channel=9, note=40, velocity=64, time=0),
    Message('note_off', channel=9, note=49, velocity=64, time=0),
    Message('note_off', channel=1, note=21, velocity=64, time=27),
    Message('note_on', channel=5, note=71, velocity=105, time=17),
    Message('note_on', channel=3, note=74, velocity=97, time=2),
    Message('pitchwheel', channel=3, pitch=2465, time=0),
    Message('note_on', channel=6, note=76, velocity=127, time=0),
    Message('note_on', channel=8, note=69, velocity=127, time=0),
    Message('note_on', channel=1, note=21, velocity=126, time=2),
    Message('note_on', channel=9, note=35, velocity=127, time=0),
    Message('note_on', channel=9, note=44, velocity=83, time=0),
    Message('note_off', channel=9, note=35, velocity=64, time=0),
    Message('note_off', channel=9, note=44, velocity=64, time=0),
    Message('pitchwheel', channel=5, pitch=1220, time=1),
    Message('pitchwheel', channel=3, pitch=5185, time=1),
    Message('pitchwheel', channel=5, pitch=4850, time=4),
    Message('pitchwheel', channel=3, pitch=6630, time=0),
    Message('pitchwheel', channel=5, pitch=6617, time=3),
    Message('pitchwheel', channel=3, pitch=7650, time=1),
    Message('pitchwheel', channel=5, pitch=8191, time=4),
    Message('pitchwheel', channel=3, pitch=8191, time=1),
    Message('note_off', channel=0, note=45, velocity=64, time=17),
    Message('note_off', channel=0, note=52, velocity=64, time=8),
    Message('note_off', channel=1, note=21, velocity=64, time=5),
    Message('note_on', channel=8, note=66, velocity=114, time=1),
    Message('note_on', channel=0, note=45, velocity=89, time=2),
    Message('note_on', channel=0, note=54, velocity=89, time=0),
    Message('note_on', channel=1, note=26, velocity=122, time=0),
    Message('note_on', channel=9, note=40, velocity=127, time=0),
    Message('note_on', channel=9, note=44, velocity=116, time=0),
    Message('note_off', channel=9, note=40, velocity=64, time=0),
    Message('note_off', channel=9, note=44, velocity=64, time=0),
    Message('note_off', channel=8, note=64, velocity=64, time=7),
    Message('pitchwheel', channel=1, pitch=8191, time=20),
    Message('pitchwheel', channel=3, pitch=7650, time=11),
    Message('pitchwheel', channel=3, pitch=5525, time=4),
    Message('pitchwheel', channel=1, pitch=7131, time=1),
    Message('note_off', channel=3, note=74, velocity=64, time=3),
    Message('pitchwheel', channel=3, pitch=3400, time=0),
    Message('note_on', channel=0, note=52, velocity=89, time=2),
    Message('note_on', channel=1, note=33, velocity=115, time=0),
    Message('pitchwheel', channel=1, pitch=0, time=0),
    Message('note_off', channel=5, note=71, velocity=64, time=0),
    Message('note_on', channel=9, note=44, velocity=59, time=0),
    Message('note_off', channel=9, note=44, velocity=64, time=0),
    Message('pitchwheel', channel=5, pitch=6971, time=2),
    Message('pitchwheel', channel=3, pitch=1955, time=0),
    Message('note_off', channel=1, note=26, velocity=64, time=1),
    Message('pitchwheel', channel=5, pitch=3051, time=3),
    Message('pitchwheel', channel=3, pitch=0, time=0),
    Message('pitchwheel', channel=5, pitch=1028, time=5),
    Message('pitchwheel', channel=5, pitch=417, time=4),
    Message('pitchwheel', channel=5, pitch=128, time=8),
    Message('pitchwheel', channel=5, pitch=0, time=4),
    Message('note_off', channel=8, note=57, velocity=64, time=5),
    Message('note_off', channel=8, note=66, velocity=64, time=6),
    Message('pitchwheel', channel=3, pitch=595, time=4),
    Message('note_on', channel=5, note=71, velocity=103, time=1),
    Message('note_off', channel=0, note=54, velocity=64, time=1),
    Message('note_off', channel=0, note=45, velocity=64, time=0),
    Message('note_on', channel=3, note=74, velocity=116, time=2),
    Message('note_on', channel=8, note=57, velocity=121, time=0),
    Message('note_on', channel=8, note=64, velocity=123, time=0),
    Message('pitchwheel', channel=3, pitch=1105, time=0),
    Message('note_on', channel=0, note=45, velocity=89, time=2),
    Message('note_off', channel=0, note=52, velocity=64, time=0),
    Message('note_on', channel=0, note=52, velocity=89, time=0),
    Message('note_on', channel=9, note=35, velocity=127, time=0),
    Message('note_on', channel=9, note=40, velocity=125, time=0),
    Message('note_on', channel=9, note=44, velocity=116, time=0),
    Message('note_off', channel=9, note=35, velocity=64, time=0),
    Message('note_off', channel=9, note=40, velocity=64, time=0),
    Message('note_off', channel=9, note=44, velocity=64, time=0),
    Message('pitchwheel', channel=5, pitch=1028, time=1),
    Message('pitchwheel', channel=3, pitch=1700, time=1),
    Message('pitchwheel', channel=5, pitch=4208, time=4),
    Message('pitchwheel', channel=3, pitch=2380, time=0),
    Message('pitchwheel', channel=5, pitch=6328, time=4),
    Message('pitchwheel', channel=3, pitch=3910, time=1),
    Message('pitchwheel', channel=5, pitch=6649, time=3),
    Message('pitchwheel', channel=3, pitch=5950, time=1),
    Message('pitchwheel', channel=5, pitch=6714, time=2),
    Message('pitchwheel', channel=3, pitch=8191, time=2),
    Message('pitchwheel', channel=5, pitch=6746, time=4),
    Message('pitchwheel', channel=5, pitch=6906, time=4),
    Message('pitchwheel', channel=5, pitch=7131, time=4),
    Message('pitchwheel', channel=5, pitch=7517, time=3),
    Message('pitchwheel', channel=5, pitch=7774, time=4),
    Message('pitchwheel', channel=5, pitch=8063, time=5),
    Message('note_on', channel=9, note=35, velocity=127, time=5),
    Message('note_on', channel=9, note=44, velocity=40, time=0),
    Message('pitchwheel', channel=5, pitch=8191, time=0),
    Message('note_off', channel=9, note=35, velocity=64, time=0),
    Message('note_off', channel=9, note=44, velocity=64, time=0),
    Message('note_off', channel=8, note=57, velocity=64, time=29),
    Message('pitchwheel', channel=3, pitch=8160, time=11),
    Message('note_off', channel=1, note=33, velocity=64, time=4),
    Message('pitchwheel', channel=3, pitch=6205, time=0),
    Message('pitchwheel', channel=5, pitch=7677, time=0),
    Message('note_on', channel=8, note=57, velocity=116, time=2),
    Message('note_on', channel=8, note=66, velocity=126, time=0),
    Message('note_off', channel=0, note=52, velocity=64, time=2),
    Message('note_on', channel=0, note=54, velocity=89, time=0),
    Message('note_on', channel=1, note=28, velocity=115, time=0),
    Message('note_on', channel=9, note=40, velocity=127, time=0),
    Message('note_on', channel=9, note=44, velocity=105, time=0),
    Message('pitchwheel', channel=3, pitch=3230, time=0),
    Message('note_off', channel=9, note=40, velocity=64, time=0),
    Message('note_off', channel=9, note=44, velocity=64, time=0),
    Message('pitchwheel', channel=5, pitch=5943, time=1),
    Message('note_off', channel=8, note=64, velocity=64, time=3),
    Message('pitchwheel', channel=3, pitch=1700, time=0),
    Message('pitchwheel', channel=5, pitch=2313, time=1),
    Message('note_off', channel=5, note=71, velocity=64, time=0),
    Message('pitchwheel', channel=5, pitch=0, time=4),
    Message('note_off', channel=3, note=74, velocity=64, time=1),
    Message('pitchwheel', channel=3, pitch=1020, time=1),
    Message('pitchwheel', channel=3, pitch=0, time=4),
    Message('pitchwheel', channel=3, pitch=0, time=27),
    Message('note_on', channel=5, note=71, velocity=101, time=1),
    Message('note_on', channel=3, note=74, velocity=116, time=3),
    Message('pitchwheel', channel=3, pitch=510, time=0),
    Message('note_on', channel=9, note=44, velocity=83, time=2),
    Message('note_off', channel=9, note=44, velocity=64, time=0),
    Message('pitchwheel', channel=3, pitch=1870, time=2),
    Message('pitchwheel', channel=5, pitch=64, time=3),
    Message('pitchwheel', channel=3, pitch=3995, time=1),
    Message('pitchwheel', channel=5, pitch=1381, time=3),
    Message('pitchwheel', channel=3, pitch=6630, time=2),
    Message('pitchwheel', channel=5, pitch=3951, time=2),
    Message('pitchwheel', channel=3, pitch=8191, time=2),
    Message('pitchwheel', channel=5, pitch=5172, time=2),
    Message('pitchwheel', channel=5, pitch=6071, time=5),
    Message('pitchwheel', channel=5, pitch=6521, time=3),
    Message('pitchwheel', channel=5, pitch=6842, time=4),
    Message('pitchwheel', channel=5, pitch=7067, time=4),
    Message('pitchwheel', channel=5, pitch=7163, time=4),
    Message('note_off', channel=8, note=57, velocity=64, time=1),
    Message('note_off', channel=0, note=45, velocity=64, time=1),
    Message('pitchwheel', channel=5, pitch=7292, time=1),
    Message('note_off', channel=1, note=28, velocity=64, time=4),
    Message('pitchwheel', channel=5, pitch=7420, time=1),
    Message('note_on', channel=8, note=57, velocity=123, time=1),
    Message('note_on', channel=8, note=64, velocity=123, time=0),
    Message('note_on', channel=0, note=45, velocity=89, time=2),
    Message('note_on', channel=0, note=52, velocity=89, time=0),
    Message('note_on', channel=1, note=21, velocity=120, time=0),
    Message('note_on', channel=9, note=35, velocity=127, time=0),
    Message('note_on', channel=9, note=40, velocity=127, time=0),
    Message('note_on', channel=9, note=44, velocity=116, time=0),
    Message('note_off', channel=8, note=66, velocity=64, time=0),
    Message('note_off', channel=9, note=35, velocity=64, time=0),
    Message('note_off', channel=9, note=40, velocity=64, time=0),
    Message('note_off', channel=9, note=44, velocity=64, time=0),
    Message('pitchwheel', channel=5, pitch=7581, time=1),
    Message('note_off', channel=0, note=54, velocity=64, time=1),
    Message('pitchwheel', channel=5, pitch=7645, time=4),
    Message('pitchwheel', channel=5, pitch=7806, time=4),
    Message('pitchwheel', channel=5, pitch=7870, time=5),
    Message('pitchwheel', channel=5, pitch=7902, time=3),
    Message('note_off', channel=1, note=21, velocity=64, time=4),
    Message('pitchwheel', channel=5, pitch=7870, time=3),
    Message('pitchwheel', channel=5, pitch=7774, time=12),
    Message('pitchwheel', channel=5, pitch=7581, time=3),
    Message('pitchwheel', channel=3, pitch=7480, time=2),
    Message('pitchwheel', channel=5, pitch=7099, time=2),
    Message('pitchwheel', channel=3, pitch=6205, time=2),
    Message('note_on', channel=1, note=21, velocity=125, time=2),
    Message('note_on', channel=9, note=35, velocity=118, time=0),
    Message('note_on', channel=9, note=44, velocity=84, time=0),
    Message('note_off', channel=9, note=35, velocity=64, time=0),
    Message('note_off', channel=9, note=44, velocity=64, time=0),
    Message('pitchwheel', channel=5, pitch=4336, time=2),
    Message('pitchwheel', channel=3, pitch=4335, time=0),
    Message('pitchwheel', channel=3, pitch=0, time=5),
    Message('pitchwheel', channel=5, pitch=1959, time=0),
    Message('note_off', channel=5, note=71, velocity=64, time=1),
    Message('pitchwheel', channel=5, pitch=0, time=3),
    Message('note_off', channel=3, note=74, velocity=64, time=1),
    Message('note_off', channel=8, note=57, velocity=64, time=14),
    Message('pitchwheel', channel=3, pitch=1530, time=10),
    Message('pitchwheel', channel=3, pitch=1870, time=4),
    Message('note_off', channel=0, note=45, velocity=64, time=1),
    Message('pitchwheel', channel=3, pitch=2295, time=3),
    Message('note_on', channel=5, note=71, velocity=96, time=1),
    Message('note_off', channel=1, note=21, velocity=64, time=0),
    Message('note_on', channel=3, note=74, velocity=99, time=1),
    Message('note_on', channel=8, note=57, velocity=116, time=0),
    Message('note_on', channel=8, note=66, velocity=126, time=0),
    Message('note_on', channel=0, note=45, velocity=89, time=2),
    Message('note_on', channel=0, note=54, velocity=89, time=0),
    Message('note_on', channel=1, note=26, velocity=112, time=0),
    Message('note_on', channel=9, note=40, velocity=127, time=0),
    Message('note_on', channel=9, note=44, velocity=116, time=0),
    Message('pitchwheel', channel=3, pitch=1955, time=0),
    Message('note_off', channel=9, note=40, velocity=64, time=0),
    Message('note_off', channel=9, note=44, velocity=64, time=0),
    Message('note_off', channel=8, note=64, velocity=64, time=1),
    Message('note_off', channel=0, note=52, velocity=64, time=1),
    Message('pitchwheel', channel=3, pitch=2975, time=2),
    Message('pitchwheel', channel=5, pitch=2859, time=3),
    Message('pitchwheel', channel=3, pitch=4335, time=2),
    Message('pitchwheel', channel=5, pitch=5236, time=2),
    Message('pitchwheel', channel=3, pitch=6205, time=2),
    Message('pitchwheel', channel=5, pitch=5943, time=2),
    Message('pitchwheel', channel=3, pitch=8075, time=2),
    Message('pitchwheel', channel=5, pitch=6039, time=2),
    Message('pitchwheel', channel=1, pitch=1477, time=2),
    Message('pitchwheel', channel=3, pitch=8191, time=0),
    Message('pitchwheel', channel=1, pitch=8191, time=4),
    Message('pitchwheel', channel=5, pitch=6135, time=5),
    Message('pitchwheel', channel=5, pitch=6489, time=4),
    Message('pitchwheel', channel=5, pitch=6746, time=4),
    Message('note_off', channel=0, note=45, velocity=64, time=1),
    Message('pitchwheel', channel=5, pitch=7453, time=3),
    Message('pitchwheel', channel=1, pitch=4883, time=4),
    Message('pitchwheel', channel=5, pitch=7902, time=0),
    Message('note_on', channel=0, note=45, velocity=89, time=2),
    Message('note_on', channel=0, note=52, velocity=89, time=0),
    Message('note_on', channel=1, note=33, velocity=110, time=0),
    Message('note_on', channel=9, note=44, velocity=67, time=0),
    Message('note_off', channel=9, note=44, velocity=64, time=0),
    Message('note_off', channel=1, note=26, velocity=64, time=1),
    Message('pitchwheel', channel=1, pitch=0, time=0),
    Message('pitchwheel', channel=5, pitch=8191, time=2),
    Message('note_off', channel=0, note=54, velocity=64, time=15),
    Message('note_off', channel=8, note=57, velocity=64, time=14),
    Message('note_off', channel=0, note=45, velocity=64, time=10),
    Message('note_off', channel=0, note=52, velocity=64, time=1),
    Message('note_on', channel=8, note=57, velocity=121, time=3),
    Message('note_on', channel=8, note=64, velocity=123, time=0),
    Message('note_off', channel=8, note=66, velocity=64, time=0),
    Message('control_change', channel=3, control=1, value=18, time=0),
    Message('note_on', channel=0, note=45, velocity=89, time=2),
    Message('note_on', channel=0, note=52, velocity=89, time=0),
    Message('note_on', channel=9, note=35, velocity=127, time=0),
    Message('note_on', channel=9, note=40, velocity=127, time=0),
    Message('note_on', channel=9, note=44, velocity=103, time=0),
    Message('note_off', channel=9, note=35, velocity=64, time=0),
    Message('note_off', channel=9, note=40, velocity=64, time=0),
    Message('note_off', channel=9, note=44, velocity=64, time=0),
    Message('control_change', channel=3, control=1, value=104, time=6),
    Message('control_change', channel=3, control=1, value=79, time=9),
    Message('control_change', channel=3, control=1, value=0, time=8),
    Message('pitchwheel', channel=3, pitch=7905, time=11),
    Message('pitchwheel', channel=3, pitch=7480, time=4),
    Message('pitchwheel', channel=3, pitch=6800, time=4),
    Message('pitchwheel', channel=3, pitch=6035, time=4),
    Message('note_on', channel=9, note=35, velocity=120, time=2),
    Message('note_on', channel=9, note=44, velocity=72, time=0),
    Message('note_off', channel=9, note=35, velocity=64, time=0),
    Message('note_off', channel=9, note=44, velocity=64, time=0),
    Message('pitchwheel', channel=3, pitch=5270, time=2),
    Message('pitchwheel', channel=5, pitch=8095, time=3),
    Message('pitchwheel', channel=3, pitch=4505, time=1),
    Message('pitchwheel', channel=5, pitch=7999, time=2),
    Message('pitchwheel', channel=3, pitch=3910, time=3),
    Message('pitchwheel', channel=5, pitch=7870, time=1),
    Message('pitchwheel', channel=3, pitch=3400, time=3),
    Message('note_off', channel=8, note=57, velocity=64, time=1),
    Message('pitchwheel', channel=5, pitch=7806, time=1),
    Message('pitchwheel', channel=3, pitch=3060, time=2),
    Message('pitchwheel', channel=5, pitch=7613, time=4),
    Message('pitchwheel', channel=3, pitch=2805, time=2),
    Message('pitchwheel', channel=5, pitch=7581, time=1),
    Message('pitchwheel', channel=3, pitch=2550, time=4),
    Message('pitchwheel', channel=5, pitch=7324, time=0),
    Message('pitchwheel', channel=3, pitch=1870, time=4),
    Message('pitchwheel', channel=5, pitch=6746, time=0),
    Message('pitchwheel', channel=3, pitch=850, time=4),
    Message('pitchwheel', channel=5, pitch=5782, time=1),
    Message('pitchwheel', channel=3, pitch=0, time=3),
    Message('note_off', channel=8, note=64, velocity=64, time=1),
    Message('pitchwheel', channel=5, pitch=4401, time=0),
    Message('note_on', channel=8, note=57, velocity=107, time=3),
    Message('note_on', channel=8, note=66, velocity=127, time=0),
    Message('pitchwheel', channel=5, pitch=2666, time=1),
    Message('note_on', channel=0, note=54, velocity=89, time=1),
    Message('note_on', channel=1, note=28, velocity=120, time=0),
    Message('note_on', channel=9, note=40, velocity=127, time=0),
    Message('note_on', channel=9, note=44, velocity=122, time=0),
    Message('note_off', channel=9, note=40, velocity=64, time=0),
    Message('note_off', channel=9, note=44, velocity=64, time=0),
    Message('note_off', channel=0, note=52, velocity=64, time=3),
    Message('pitchwheel', channel=5, pitch=738, time=0),
    Message('note_off', channel=1, note=33, velocity=64, time=0),
    Message('note_off', channel=3, note=74, velocity=64, time=0),
    Message('pitchwheel', channel=5, pitch=0, time=3),
    Message('note_off', channel=5, note=71, velocity=64, time=10),
    Message('note_off', channel=8, note=57, velocity=64, time=3),
    Message('note_off', channel=8, note=69, velocity=64, time=15),
    Message('note_off', channel=6, note=76, velocity=64, time=6),
    Message('note_on', channel=8, note=57, velocity=121, time=6),
    Message('note_on', channel=8, note=64, velocity=123, time=0),
    Message('note_on', channel=0, note=52, velocity=89, time=2),
    Message('note_on', channel=9, note=46, velocity=81, time=0),
    Message('note_off', channel=9, note=46, velocity=64, time=0),
    Message('note_off', channel=0, note=54, velocity=64, time=2),
    Message('note_off', channel=8, note=66, velocity=64, time=26),
    Message('note_off', channel=0, note=45, velocity=64, time=1),
    Message('note_off', channel=8, note=57, velocity=64, time=6),
    Message('note_off', channel=8, note=64, velocity=64, time=4),
    Message('note_off', channel=1, note=28, velocity=64, time=3),
    Message('note_off', channel=0, note=52, velocity=64, time=3),
    Message('note_on', channel=3, note=77, velocity=125, time=1),
    Message('note_on', channel=6, note=77, velocity=127, time=1),
    Message('note_on', channel=0, note=43, velocity=89, time=1),
    Message('note_on', channel=0, note=50, velocity=89, time=0),
    Message('note_on', channel=0, note=52, velocity=89, time=0),
    Message('note_on', channel=1, note=19, velocity=126, time=0),
    Message('note_on', channel=6, note=82, velocity=127, time=0),
    Message('note_on', channel=9, note=35, velocity=123, time=0),
    Message('note_on', channel=9, note=44, velocity=125, time=0),
    Message('note_on', channel=6, note=86, velocity=127, time=0),
    Message('note_off', channel=9, note=35, velocity=64, time=0),
    Message('note_off', channel=9, note=44, velocity=64, time=0),
    Message('note_on', channel=6, note=91, velocity=127, time=1),
    Message('note_on', channel=8, note=55, velocity=127, time=0),
    Message('note_on', channel=8, note=64, velocity=127, time=0),
    Message('note_on', channel=8, note=62, velocity=127, time=1),
    Message('note_on', channel=8, note=61, velocity=114, time=0),
    Message('note_on', channel=8, note=65, velocity=123, time=0),
    Message('note_on', channel=8, note=58, velocity=90, time=1),
    Message('note_on', channel=6, note=83, velocity=127, time=1),
    Message('note_off', channel=8, note=65, velocity=64, time=0),
    Message('note_off', channel=0, note=52, velocity=64, time=1),
    Message('note_off', channel=6, note=82, velocity=64, time=0),
    Message('note_off', channel=8, note=58, velocity=64, time=1),
    Message('note_off', channel=8, note=61, velocity=64, time=3),
    Message('note_off', channel=3, note=77, velocity=64, time=16),
    Message('note_off', channel=8, note=64, velocity=64, time=4),
    Message('note_off', channel=1, note=19, velocity=64, time=4),
    Message('note_off', channel=0, note=43, velocity=64, time=5),
    Message('note_off', channel=0, note=50, velocity=64, time=4),
    Message('note_on', channel=3, note=77, velocity=80, time=4),
    Message('note_off', channel=6, note=91, velocity=64, time=10),
    Message('note_off', channel=6, note=86, velocity=64, time=3),
    Message('note_off', channel=6, note=83, velocity=64, time=3),
    Message('note_off', channel=8, note=62, velocity=64, time=0),
    Message('note_off', channel=8, note=55, velocity=64, time=2),
    Message('note_off', channel=3, note=77, velocity=64, time=2),
    Message('note_on', channel=6, note=76, velocity=82, time=5),
    Message('note_on', channel=9, note=35, velocity=102, time=1),
    Message('note_off', channel=6, note=77, velocity=64, time=0),
    Message('note_off', channel=9, note=35, velocity=64, time=0),
    Message('note_off', channel=6, note=76, velocity=64, time=3),
    Message('note_on', channel=6, note=74, velocity=76, time=3),
    Message('note_off', channel=6, note=74, velocity=64, time=2),
    Message('note_on', channel=6, note=72, velocity=92, time=1),
    Message('note_off', channel=6, note=72, velocity=64, time=3),
    Message('note_on', channel=8, note=71, velocity=96, time=0),
    Message('note_off', channel=8, note=71, velocity=64, time=3),
    Message('note_on', channel=8, note=69, velocity=90, time=2),
    Message('note_off', channel=8, note=69, velocity=64, time=3),
    Message('note_on', channel=8, note=67, velocity=93, time=0),
    Message('note_on', channel=3, note=77, velocity=94, time=2),
    Message('note_off', channel=8, note=67, velocity=64, time=1),
    Message('note_on', channel=9, note=35, velocity=127, time=1),
    Message('note_on', channel=8, note=65, velocity=89, time=0),
    Message('note_off', channel=9, note=35, velocity=64, time=0),
    Message('note_off', channel=8, note=65, velocity=64, time=3),
    Message('note_on', channel=8, note=64, velocity=85, time=1),
    Message('note_off', channel=8, note=64, velocity=64, time=2),
    Message('note_on', channel=8, note=62, velocity=89, time=1),
    Message('note_off', channel=8, note=62, velocity=64, time=2),
    Message('note_on', channel=8, note=60, velocity=74, time=2),
    Message('note_off', channel=8, note=60, velocity=64, time=2),
    Message('note_on', channel=8, note=59, velocity=76, time=1),
    Message('note_off', channel=8, note=59, velocity=64, time=2),
    Message('note_off', channel=3, note=77, velocity=64, time=2),
    Message('note_on', channel=3, note=77, velocity=99, time=28),
    Message('note_off', channel=3, note=77, velocity=64, time=19),
    Message('note_on', channel=3, note=77, velocity=113, time=29),
    Message('note_on', channel=9, note=35, velocity=125, time=2),
    Message('note_off', channel=9, note=35, velocity=64, time=0),
    Message('note_off', channel=3, note=77, velocity=64, time=16),
    Message('note_on', channel=3, note=77, velocity=120, time=30),
    Message('note_off', channel=3, note=77, velocity=64, time=17),
    Message('note_on', channel=9, note=35, velocity=110, time=9),
    Message('note_off', channel=9, note=35, velocity=64, time=0),
    Message('note_on', channel=3, note=77, velocity=121, time=22),
    Message('note_on', channel=9, note=35, velocity=125, time=2),
    Message('note_off', channel=9, note=35, velocity=64, time=0),
    Message('note_off', channel=3, note=77, velocity=64, time=45),
    Message('note_on', channel=3, note=74, velocity=113, time=1),
    Message('note_off', channel=3, note=74, velocity=64, time=14),
    Message('note_on', channel=8, note=67, velocity=74, time=13),
    Message('note_off', channel=8, note=67, velocity=64, time=5),
    Message('note_on', channel=6, note=73, velocity=127, time=13),
    Message('note_on', channel=6, note=77, velocity=125, time=0),
    Message('note_on', channel=3, note=77, velocity=99, time=2),
    Message('note_off', channel=3, note=77, velocity=64, time=2),
    Message('note_on', channel=3, note=77, velocity=90, time=0),
    Message('note_on', channel=9, note=35, velocity=125, time=1),
    Message('note_off', channel=9, note=35, velocity=64, time=0),
    Message('note_on', channel=6, note=74, velocity=127, time=1),
    Message('note_off', channel=6, note=73, velocity=64, time=1),
    Message('note_off', channel=3, note=77, velocity=64, time=13),
    Message('note_off', channel=6, note=77, velocity=64, time=11),
    Message('note_off', channel=6, note=74, velocity=64, time=2),
    Message('note_on', channel=3, note=77, velocity=86, time=17),
    Message('note_on', channel=6, note=77, velocity=127, time=3),
    Message('note_on', channel=6, note=73, velocity=127, time=1),
    Message('note_off', channel=6, note=73, velocity=64, time=11),
    Message('note_on', channel=6, note=74, velocity=89, time=1),
    Message('note_on', channel=9, note=35, velocity=102, time=11),
    Message('note_off', channel=9, note=35, velocity=64, time=0),
    Message('note_off', channel=6, note=74, velocity=64, time=9),
    Message('note_off', channel=6, note=77, velocity=64, time=4),
    Message('note_on', channel=6, note=72, velocity=127, time=10),
    Message('note_on', channel=6, note=76, velocity=127, time=0),
    Message('note_off', channel=3, note=77, velocity=64, time=0),
    Message('note_on', channel=9, note=35, velocity=127, time=1),
    Message('note_off', channel=9, note=35, velocity=64, time=0),
    Message('note_on', channel=3, note=74, velocity=87, time=2),
    Message('note_off', channel=3, note=74, velocity=64, time=12),
    Message('note_off', channel=6, note=72, velocity=64, time=8),
    Message('note_off', channel=6, note=76, velocity=64, time=3),
    Message('note_on', channel=8, note=70, velocity=127, time=24),
    Message('note_on', channel=8, note=65, velocity=127, time=1),
    Message('note_on', channel=6, note=74, velocity=127, time=0),
    Message('note_on', channel=3, note=77, velocity=103, time=1),
    Message('note_on', channel=8, note=71, velocity=127, time=5),
    Message('note_off', channel=8, note=70, velocity=64, time=1),
    Message('note_on', channel=9, note=35, velocity=127, time=39),
    Message('note_off', channel=9, note=35, velocity=64, time=0),
    Message('pitchwheel', channel=3, pitch=-171, time=42),
    Message('pitchwheel', channel=3, pitch=-851, time=4),
    Message('pitchwheel', channel=3, pitch=-1701, time=4),
    Message('pitchwheel', channel=3, pitch=-2551, time=4),
    Message('pitchwheel', channel=3, pitch=-3146, time=4),
    Message('pitchwheel', channel=3, pitch=-3741, time=5),
    Message('note_off', channel=3, note=77, velocity=64, time=0),
    Message('pitchwheel', channel=3, pitch=-4251, time=4),
    Message('pitchwheel', channel=3, pitch=0, time=4),
    Message('note_on', channel=9, note=35, velocity=102, time=1),
    Message('note_off', channel=9, note=35, velocity=64, time=0),
    Message('note_on', channel=3, note=74, velocity=93, time=18),
    Message('note_on', channel=9, note=35, velocity=127, time=6),
    Message('note_off', channel=9, note=35, velocity=64, time=0),
    Message('note_off', channel=3, note=74, velocity=64, time=13),
    Message('note_on', channel=3, note=74, velocity=102, time=29),
    Message('note_off', channel=8, note=65, velocity=64, time=38),
    Message('note_on', channel=0, note=47, velocity=89, time=14),
    Message('note_on', channel=0, note=54, velocity=89, time=0),
    Message('note_on', channel=2, note=47, velocity=126, time=0),
    Message('note_on', channel=2, note=54, velocity=104, time=0),
    Message('note_on', channel=2, note=59, velocity=105, time=0),
    Message('note_on', channel=3, note=81, velocity=126, time=0),
    Message('note_on', channel=5, note=81, velocity=101, time=0),
    Message('note_on', channel=9, note=35, velocity=127, time=0),
    Message('note_off', channel=9, note=35, velocity=64, time=1),
    Message('note_on', channel=8, note=47, velocity=113, time=0),
    Message('note_on', channel=8, note=59, velocity=118, time=0),
    Message('note_on', channel=9, note=49, velocity=122, time=0),
    Message('note_off', channel=3, note=74, velocity=64, time=1),
    Message('note_on', channel=6, note=78, velocity=110, time=0),
    Message('note_off', channel=9, note=49, velocity=64, time=0),
    Message('note_on', channel=1, note=23, velocity=126, time=1),
    Message('pitchwheel', channel=3, pitch=-3374, time=2),
    Message('pitchwheel', channel=3, pitch=-5719, time=4),
    Message('pitchwheel', channel=3, pitch=0, time=4),
    Message('note_off', channel=2, note=47, velocity=64, time=18),
    Message('note_off', channel=1, note=23, velocity=64, time=9),
    Message('note_off', channel=2, note=54, velocity=64, time=0),
    Message('note_off', channel=5, note=81, velocity=64, time=4),
    Message('note_off', channel=0, note=47, velocity=64, time=1),
    Message('note_off', channel=0, note=54, velocity=64, time=0),
    Message('note_on', channel=0, note=47, velocity=89, time=3),
    Message('note_on', channel=0, note=54, velocity=89, time=0),
    Message('note_on', channel=1, note=23, velocity=126, time=0),
    Message('note_on', channel=2, note=47, velocity=109, time=0),
    Message('note_on', channel=2, note=54, velocity=64, time=0),
    Message('note_on', channel=3, note=78, velocity=126, time=0),
    Message('note_on', channel=5, note=76, velocity=105, time=0),
    Message('note_on', channel=9, note=44, velocity=113, time=0),
    Message('note_off', channel=9, note=44, velocity=64, time=0),
    Message('note_off', channel=3, note=81, velocity=64, time=2),
    Message('pitchwheel', channel=5, pitch=3662, time=2),
    Message('pitchwheel', channel=5, pitch=8191, time=4),
    Message('note_off', channel=0, note=47, velocity=64, time=25),
    Message('note_off', channel=0, note=54, velocity=64, time=6),
    Message('note_off', channel=2, note=59, velocity=64, time=1),
    Message('note_off', channel=1, note=23, velocity=64, time=4),
    Message('note_off', channel=2, note=47, velocity=64, time=3),
    Message('note_on', channel=0, note=47, velocity=89, time=1),
    Message('note_on', channel=0, note=54, velocity=89, time=0),
    Message('note_on', channel=1, note=23, velocity=126, time=0),
    Message('note_on', channel=2, note=47, velocity=126, time=0),
    Message('note_on', channel=2, note=59, velocity=99, time=0),
    Message('note_on', channel=9, note=40, velocity=127, time=0),
    Message('note_on', channel=9, note=44, velocity=126, time=0),
    Message('note_off', channel=9, note=40, velocity=64, time=0),
    Message('note_off', channel=9, note=44, velocity=64, time=0),
    Message('control_change', channel=5, control=1, value=13, time=1),
    Message('control_change', channel=5, control=1, value=21, time=9),
    Message('control_change', channel=5, control=1, value=24, time=9),
    Message('control_change', channel=5, control=1, value=36, time=12),
    Message('control_change', channel=3, control=1, value=15, time=1),
    Message('note_off', channel=1, note=23, velocity=64, time=2),
    Message('note_off', channel=0, note=47, velocity=64, time=1),
    Message('note_off', channel=0, note=54, velocity=64, time=1),
    Message('note_off', channel=2, note=59, velocity=64, time=0),
    Message('control_change', channel=5, control=1, value=50, time=3),
    Message('note_off', channel=2, note=47, velocity=64, time=0),
    Message('control_change', channel=3, control=1, value=69, time=0),
    Message('note_off', channel=2, note=54, velocity=64, time=1),
    Message('control_change', channel=5, control=1, value=71, time=7),
    Message('note_on', channel=0, note=47, velocity=89, time=1),
    Message('note_on', channel=0, note=51, velocity=89, time=0),
    Message('note_on', channel=0, note=54, velocity=89, time=0),
    Message('note_on', channel=1, note=23, velocity=126, time=0),
    Message('note_on', channel=2, note=47, velocity=116, time=0),
    Message('note_on', channel=2, note=54, velocity=110, time=0),
    Message('note_on', channel=2, note=59, velocity=103, time=0),
    Message('note_on', channel=9, note=35, velocity=116, time=0),
    Message('note_on', channel=9, note=44, velocity=116, time=0),
    Message('control_change', channel=3, control=1, value=108, time=0),
    Message('note_off', channel=9, note=35, velocity=64, time=0),
    Message('note_off', channel=9, note=44, velocity=64, time=0),
    Message('note_off', channel=0, note=51, velocity=64, time=3),
    Message('control_change', channel=5, control=1, value=98, time=5),
    Message('control_change', channel=3, control=1, value=127, time=1),
    Message('control_change', channel=5, control=1, value=116, time=10),
    Message('control_change', channel=5, control=1, value=124, time=9),
    Message('note_off', channel=0, note=47, velocity=64, time=4),
    Message('note_off', channel=1, note=23, velocity=64, time=3),
    Message('note_off', channel=0, note=54, velocity=64, time=0),
    Message('control_change', channel=5, control=1, value=126, time=6),
    Message('note_off', channel=2, note=47, velocity=64, time=1),
    Message('note_off', channel=2, note=54, velocity=64, time=3),
    Message('note_on', channel=0, note=47, velocity=89, time=3),
    Message('note_on', channel=0, note=54, velocity=89, time=0),
    Message('note_on', channel=1, note=23, velocity=126, time=0),
    Message('note_on', channel=2, note=47, velocity=126, time=0),
    Message('note_on', channel=2, note=54, velocity=51, time=0),
    Message('note_on', channel=9, note=35, velocity=127, time=0),
    Message('note_on', channel=9, note=44, velocity=126, time=0),
    Message('note_off', channel=9, note=35, velocity=64, time=0),
    Message('note_off', channel=9, note=44, velocity=64, time=0),
    Message('control_change', channel=5, control=1, value=124, time=6),
    Message('control_change', channel=5, control=1, value=125, time=9),
    Message('control_change', channel=5, control=1, value=112, time=13),
    Message('note_off', channel=0, note=47, velocity=64, time=1),
    Message('note_off', channel=0, note=54, velocity=64, time=6),
    Message('note_off', channel=1, note=23, velocity=64, time=2),
    Message('control_change', channel=5, control=1, value=76, time=0),
    Message('note_off', channel=2, note=54, velocity=64, time=3),
    Message('note_off', channel=2, note=59, velocity=64, time=1),
    Message('note_off', channel=2, note=47, velocity=64, time=1),
    Message('control_change', channel=5, control=1, value=64, time=3),
    Message('note_on', channel=0, note=47, velocity=89, time=3),
    Message('note_on', channel=0, note=54, velocity=89, time=0),
    Message('note_on', channel=1, note=23, velocity=126, time=0),
    Message('note_on', channel=2, note=47, velocity=125, time=0),
    Message('note_on', channel=2, note=54, velocity=117, time=0),
    Message('note_on', channel=2, note=59, velocity=100, time=0),
    Message('note_on', channel=9, note=44, velocity=126, time=0),
    Message('note_off', channel=9, note=44, velocity=64, time=0),
    Message('control_change', channel=5, control=1, value=62, time=5),
    Message('control_change', channel=3, control=1, value=116, time=2),
    Message('control_change', channel=5, control=1, value=44, time=5),
    Message('control_change', channel=3, control=1, value=126, time=7),
    Message('control_change', channel=5, control=1, value=15, time=2),
    Message('control_change', channel=3, control=1, value=127, time=7),
    Message('control_change', channel=5, control=1, value=0, time=1),
    Message('note_off', channel=0, note=47, velocity=64, time=1),
    Message('note_off', channel=0, note=54, velocity=64, time=5),
    Message('note_off', channel=1, note=23, velocity=64, time=1),
    Message('note_off', channel=3, note=78, velocity=64, time=1),
    Message('note_off', channel=2, note=59, velocity=64, time=1),
    Message('note_off', channel=2, note=54, velocity=64, time=1),
    Message('note_off', channel=2, note=47, velocity=64, time=1),
    Message('control_change', channel=3, control=1, value=80, time=1),
    Message('note_off', channel=5, note=76, velocity=64, time=1),
    Message('pitchwheel', channel=3, pitch=-450, time=1),
    Message('pitchwheel', channel=5, pitch=2184, time=3),
    Message('pitchwheel', channel=3, pitch=-8192, time=1),
    Message('note_on', channel=0, note=47, velocity=89, time=1),
    Message('note_on', channel=0, note=51, velocity=89, time=0),
    Message('note_on', channel=0, note=54, velocity=89, time=0),
    Message('note_on', channel=1, note=23, velocity=126, time=0),
    Message('note_on', channel=2, note=47, velocity=127, time=0),
    Message('note_on', channel=2, note=54, velocity=117, time=0),
    Message('note_on', channel=2, note=59, velocity=111, time=0),
    Message('note_on', channel=3, note=78, velocity=126, time=0),
    Message('note_on', channel=5, note=76, velocity=104, time=0),
    Message('note_on', channel=9, note=40, velocity=127, time=0),
    Message('note_on', channel=9, note=44, velocity=126, time=0),
    Message('note_off', channel=9, note=40, velocity=64, time=0),
    Message('note_off', channel=9, note=44, velocity=64, time=0),
    Message('control_change', channel=3, control=1, value=0, time=1),
    Message('pitchwheel', channel=5, pitch=0, time=1),
    Message('note_off', channel=0, note=51, velocity=64, time=1),
    Message('note_on', channel=8, note=45, velocity=99, time=2),
    Message('pitchwheel', channel=3, pitch=0, time=1),
    Message('note_off', channel=8, note=59, velocity=64, time=1),
    Message('pitchwheel', channel=5, pitch=8191, time=1),
    Message('note_on', channel=8, note=57, velocity=127, time=3),
    Message('note_off', channel=8, note=47, velocity=64, time=2),
    Message('note_off', channel=2, note=47, velocity=64, time=29),
    Message('note_off', channel=1, note=23, velocity=64, time=0),
    Message('control_change', channel=5, control=1, value=2, time=1),
    Message('note_on', channel=0, note=45, velocity=89, time=5),
    Message('note_on', channel=1, note=21, velocity=126, time=0),
    Message('note_on', channel=2, note=45, velocity=126, time=0),
    Message('note_on', channel=2, note=47, velocity=109, time=0),
    Message('note_on', channel=2, note=52, velocity=113, time=0),
    Message('note_on', channel=2, note=57, velocity=109, time=0),
    Message('note_on', channel=9, note=35, velocity=127, time=0),
    Message('note_on', channel=9, note=44, velocity=116, time=0),
    Message('note_off', channel=9, note=35, velocity=64, time=0),
    Message('note_off', channel=9, note=44, velocity=64, time=0),
    Message('control_change', channel=5, control=1, value=14, time=3),
    Message('note_off', channel=2, note=54, velocity=64, time=2),
    Message('note_off', channel=2, note=47, velocity=64, time=3),
    Message('note_off', channel=2, note=59, velocity=64, time=1),
    Message('control_change', channel=5, control=1, value=18, time=2),
    Message('control_change', channel=5, control=1, value=12, time=8),
    Message('control_change', channel=5, control=1, value=0, time=7),
    Message('note_off', channel=0, note=47, velocity=64, time=2),
    Message('note_off', channel=2, note=52, velocity=64, time=11),
    Message('note_off', channel=1, note=21, velocity=64, time=1),
    Message('note_off', channel=0, note=45, velocity=64, time=2),
    Message('note_off', channel=0, note=54, velocity=64, time=0),
    Message('note_off', channel=2, note=45, velocity=64, time=0),
    Message('note_off', channel=2, note=57, velocity=64, time=1),
    Message('note_off', channel=6, note=78, velocity=64, time=4),
    Message('pitchwheel', channel=5, pitch=5493, time=0),
    Message('note_on', channel=0, note=43, velocity=89, time=1),
    Message('note_on', channel=0, note=47, velocity=89, time=0),
    Message('note_on', channel=0, note=50, velocity=89, time=0),
    Message('note_on', channel=0, note=55, velocity=89, time=0),
    Message('note_on', channel=1, note=19, velocity=126, time=0),
    Message('note_on', channel=2, note=43, velocity=127, time=0),
    Message('note_on', channel=2, note=50, velocity=111, time=0),
    Message('note_on', channel=2, note=55, velocity=113, time=0),
    Message('note_on', channel=3, note=76, velocity=126, time=0),
    Message('note_off', channel=8, note=57, velocity=64, time=0),
    Message('note_on', channel=9, note=35, velocity=127, time=0),
    Message('note_on', channel=9, note=44, velocity=126, time=0),
    Message('pitchwheel', channel=3, pitch=-8192, time=0),
    Message('note_off', channel=9, note=35, velocity=64, time=0),
    Message('note_off', channel=9, note=44, velocity=64, time=0),
    Message('note_off', channel=3, note=78, velocity=64, time=1),
    Message('note_off', channel=8, note=45, velocity=64, time=0),
    Message('pitchwheel', channel=5, pitch=0, time=2),
    Message('note_on', channel=6, note=79, velocity=126, time=2),
    Message('note_on', channel=8, note=55, velocity=126, time=1),
    Message('note_on', channel=8, note=43, velocity=123, time=1),
    Message('pitchwheel', channel=3, pitch=0, time=1),
    Message('note_on', channel=6, note=76, velocity=79, time=1),
    Message('note_off', channel=6, note=76, velocity=64, time=3),
    Message('note_on', channel=3, note=74, velocity=95, time=12),
    Message('note_on', channel=5, note=74, velocity=101, time=0),
    Message('note_off', channel=3, note=76, velocity=64, time=1),
    Message('note_off', channel=5, note=76, velocity=64, time=4),
    Message('note_off', channel=0, note=47, velocity=64, time=2),
    Message('note_off', channel=0, note=50, velocity=64, time=4),
    Message('note_off', channel=0, note=55, velocity=64, time=1),
    Message('note_off', channel=0, note=43, velocity=64, time=4),
    Message('note_off', channel=1, note=19, velocity=64, time=1),
    Message('note_off', channel=2, note=43, velocity=64, time=0),
    Message('note_off', channel=2, note=55, velocity=64, time=3),
    Message('note_off', channel=5, note=74, velocity=64, time=1),
    Message('note_on', channel=0, note=43, velocity=89, time=3),
    Message('note_on', channel=0, note=47, velocity=89, time=0),
    Message('note_on', channel=0, note=50, velocity=89, time=0),
    Message('note_on', channel=0, note=55, velocity=89, time=0),
    Message('note_on', channel=1, note=19, velocity=126, time=0),
    Message('note_on', channel=2, note=43, velocity=116, time=0),
    Message('note_on', channel=2, note=55, velocity=121, time=0),
    Message('note_on', channel=3, note=71, velocity=126, time=0),
    Message('note_on', channel=5, note=71, velocity=87, time=0),
    Message('note_on', channel=9, note=35, velocity=107, time=0),
    Message('note_on', channel=9, note=44, velocity=116, time=0),
    Message('note_off', channel=9, note=35, velocity=64, time=0),
    Message('note_off', channel=9, note=44, velocity=64, time=0),
    Message('note_off', channel=3, note=74, velocity=64, time=2),
    Message('note_off', channel=0, note=47, velocity=64, time=24),
    Message('control_change', channel=5, control=1, value=1, time=0),
    Message('note_off', channel=0, note=50, velocity=64, time=3),
    Message('note_off', channel=1, note=19, velocity=64, time=2),
    Message('note_off', channel=0, note=55, velocity=64, time=2),
    Message('note_off', channel=0, note=43, velocity=64, time=1),
    Message('control_change', channel=5, control=1, value=32, time=1),
    Message('note_off', channel=2, note=50, velocity=64, time=5),
    Message('control_change', channel=3, control=1, value=25, time=1),
    Message('note_off', channel=2, note=43, velocity=64, time=1),
    Message('note_off', channel=2, note=55, velocity=64, time=1),
    Message('control_change', channel=5, control=1, value=102, time=1),
    Message('note_on', channel=0, note=43, velocity=89, time=4),
    Message('note_on', channel=0, note=47, velocity=89, time=0),
    Message('note_on', channel=0, note=50, velocity=89, time=0),
    Message('note_on', channel=0, note=55, velocity=89, time=0),
    Message('note_on', channel=1, note=19, velocity=126, time=0),
    Message('note_on', channel=2, note=43, velocity=127, time=0),
    Message('note_on', channel=2, note=50, velocity=116, time=0),
    Message('note_on', channel=2, note=55, velocity=121, time=0),
    Message('note_on', channel=9, note=40, velocity=127, time=0),
    Message('note_on', channel=9, note=44, velocity=126, time=0),
    Message('note_off', channel=9, note=40, velocity=64, time=0),
    Message('note_off', channel=9, note=44, velocity=64, time=0),
    Message('control_change', channel=3, control=1, value=91, time=1),
    Message('control_change', channel=5, control=1, value=127, time=4),
    Message('control_change', channel=3, control=1, value=127, time=5),
    Message('note_off', channel=0, note=47, velocity=64, time=14),
    Message('note_off', channel=0, note=50, velocity=64, time=4),
    Message('note_off', channel=2, note=50, velocity=64, time=1),
    Message('note_off', channel=0, note=55, velocity=64, time=2),
    Message('note_off', channel=1, note=19, velocity=64, time=2),
    Message('note_off', channel=0, note=43, velocity=64, time=6),
    Message('note_off', channel=2, note=43, velocity=64, time=2),
    Message('note_off', channel=2, note=55, velocity=64, time=2),
    Message('note_on', channel=0, note=43, velocity=89, time=5),
    Message('note_on', channel=0, note=47, velocity=89, time=0),
    Message('note_on', channel=0, note=50, velocity=89, time=0),
    Message('note_on', channel=0, note=55, velocity=89, time=0),
    Message('note_on', channel=1, note=19, velocity=126, time=0),
    Message('note_on', channel=2, note=43, velocity=113, time=0),
    Message('note_on', channel=2, note=45, velocity=125, time=0),
    Message('note_on', channel=2, note=50, velocity=123, time=0),
    Message('note_on', channel=2, note=55, velocity=121, time=0),
    Message('note_on', channel=9, note=35, velocity=127, time=0),
    Message('note_on', channel=9, note=44, velocity=126, time=0),
    Message('note_off', channel=9, note=35, velocity=64, time=0),
    Message('note_off', channel=9, note=44, velocity=64, time=0),
    Message('note_off', channel=2, note=45, velocity=64, time=15),
    Message('note_off', channel=8, note=71, velocity=64, time=14),
    Message('note_off', channel=0, note=55, velocity=64, time=2),
    Message('note_off', channel=6, note=79, velocity=64, time=3),
    Message('note_off', channel=0, note=47, velocity=64, time=4),
    Message('note_off', channel=2, note=50, velocity=64, time=1),
    Message('note_off', channel=0, note=50, velocity=64, time=1),
    Message('note_off', channel=8, note=43, velocity=64, time=1),
    Message('note_off', channel=3, note=71, velocity=64, time=0),
    Message('note_off', channel=2, note=43, velocity=64, time=1),
    Message('note_off', channel=2, note=55, velocity=64, time=0),
    Message('note_off', channel=8, note=55, velocity=64, time=1),
    Message('note_off', channel=1, note=19, velocity=64, time=2),
    Message('note_off', channel=6, note=74, velocity=64, time=1),
    Message('control_change', channel=3, control=1, value=0, time=1),
    Message('note_off', channel=0, note=43, velocity=64, time=1),
    Message('note_on', channel=0, note=45, velocity=89, time=0),
    Message('note_on', channel=0, note=52, velocity=89, time=0),
    Message('note_on', channel=0, note=57, velocity=89, time=0),
    Message('note_on', channel=1, note=21, velocity=126, time=0),
    Message('note_on', channel=2, note=45, velocity=127, time=0),
    Message('note_on', channel=2, note=52, velocity=127, time=0),
    Message('note_on', channel=2, note=57, velocity=127, time=0),
    Message('note_on', channel=9, note=35, velocity=127, time=0),
    Message('note_on', channel=9, note=43, velocity=116, time=0),
    Message('control_change', channel=5, control=1, value=0, time=0),
    Message('note_off', channel=9, note=35, velocity=64, time=0),
    Message('note_off', channel=9, note=43, velocity=64, time=0),
    Message('note_off', channel=5, note=71, velocity=64, time=1),
    Message('note_on', channel=8, note=45, velocity=125, time=2),
    Message('note_on', channel=6, note=81, velocity=127, time=1),
    Message('note_on', channel=8, note=69, velocity=127, time=0),
    Message('pitchwheel', channel=5, pitch=0, time=1),
    Message('note_on', channel=8, note=57, velocity=127, time=0),
    Message('note_on', channel=6, note=74, velocity=127, time=0),
    Message('note_on', channel=6, note=76, velocity=127, time=0),
    Message('note_on', channel=6, note=77, velocity=73, time=3),
    Message('note_off', channel=6, note=77, velocity=64, time=2),
    Message('note_off', channel=6, note=74, velocity=64, time=2),
    Message('note_off', channel=0, note=52, velocity=64, time=24),
    Message('note_off', channel=0, note=45, velocity=64, time=1),
    Message('note_off', channel=8, note=57, velocity=64, time=0),
    Message('note_off', channel=8, note=69, velocity=64, time=0),
    Message('note_off', channel=6, note=81, velocity=64, time=1),
    Message('note_off', channel=2, note=45, velocity=64, time=1),
    Message('note_off', channel=6, note=76, velocity=64, time=0),
    Message('note_off', channel=1, note=21, velocity=64, time=1),
    Message('note_off', channel=0, note=57, velocity=64, time=1),
    Message('note_off', channel=8, note=45, velocity=64, time=1),
    Message('note_off', channel=2, note=52, velocity=64, time=2),
    Message('note_off', channel=2, note=57, velocity=64, time=1),
    Message('note_on', channel=3, note=71, velocity=126, time=51),
    Message('note_off', channel=3, note=71, velocity=64, time=39),
    Message('note_on', channel=3, note=74, velocity=126, time=9),
    Message('note_off', channel=3, note=74, velocity=64, time=17),
    Message('note_on', channel=3, note=74, velocity=126, time=7),
    Message('note_off', channel=3, note=74, velocity=64, time=22),
    Message('note_on', channel=1, note=26, velocity=125, time=2),
    Message('note_on', channel=9, note=35, velocity=127, time=0),
    Message('note_on', channel=9, note=49, velocity=126, time=0),
    Message('note_off', channel=9, note=35, velocity=64, time=0),
    Message('note_off', channel=9, note=49, velocity=64, time=0),
    Message('note_off', channel=1, note=26, velocity=64, time=24),
    Message('note_on', channel=1, note=26, velocity=126, time=24),
    Message('note_on', channel=9, note=35, velocity=127, time=0),
    Message('note_off', channel=9, note=35, velocity=64, time=0),
    Message('note_on', channel=0, note=55, velocity=89, time=48),
    Message('note_on', channel=1, note=31, velocity=126, time=0),
    Message('note_on', channel=2, note=55, velocity=110, time=0),
    Message('note_on', channel=9, note=46, velocity=126, time=0),
    Message('note_off', channel=1, note=26, velocity=64, time=0),
    Message('note_off', channel=9, note=46, velocity=64, time=0),
    Message('note_on', channel=9, note=46, velocity=122, time=16),
    Message('note_off', channel=9, note=46, velocity=64, time=0),
    Message('pitchwheel', channel=0, pitch=0, time=4),
    Message('pitchwheel', channel=2, pitch=0, time=0),
    Message('pitchwheel', channel=0, pitch=2805, time=4),
    Message('pitchwheel', channel=2, pitch=2805, time=0),
    Message('pitchwheel', channel=1, pitch=3373, time=2),
    Message('pitchwheel', channel=0, pitch=4930, time=2),
    Message('pitchwheel', channel=2, pitch=4930, time=0),
    Message('pitchwheel', channel=1, pitch=8191, time=2),
    Message('pitchwheel', channel=0, pitch=6800, time=2),
    Message('pitchwheel', channel=2, pitch=6800, time=0),
    Message('note_on', channel=9, note=46, velocity=124, time=0),
    Message('note_off', channel=9, note=46, velocity=64, time=0),
    Message('pitchwheel', channel=0, pitch=8191, time=4),
    Message('pitchwheel', channel=2, pitch=8191, time=0),
    Message('note_on', channel=0, note=60, velocity=89, time=12),
    Message('note_on', channel=0, note=65, velocity=89, time=0),
    Message('note_off', channel=1, note=31, velocity=64, time=0),
    Message('note_on', channel=1, note=41, velocity=126, time=0),
    Message('note_on', channel=2, note=60, velocity=97, time=0),
    Message('note_on', channel=2, note=65, velocity=91, time=0),
    Message('pitchwheel', channel=0, pitch=0, time=1),
    Message('pitchwheel', channel=2, pitch=0, time=0),
    Message('pitchwheel', channel=1, pitch=111, time=0),
    Message('note_off', channel=0, note=55, velocity=64, time=5),
    Message('note_off', channel=2, note=55, velocity=64, time=0),
    Message('pitchwheel', channel=1, pitch=0, time=0),
    Message('note_on', channel=9, note=48, velocity=105, time=41),
    Message('note_off', channel=9, note=48, velocity=64, time=1),
    Message('note_on', channel=9, note=48, velocity=105, time=16),
    Message('note_off', channel=9, note=48, velocity=64, time=0),
    Message('note_on', channel=9, note=48, velocity=105, time=15),
    Message('note_off', channel=9, note=48, velocity=64, time=1),
    Message('control_change', channel=0, control=1, value=23, time=11),
    Message('control_change', channel=2, control=1, value=23, time=0),
    Message('note_on', channel=9, note=48, velocity=105, time=5),
    Message('note_off', channel=9, note=48, velocity=64, time=0),
    Message('control_change', channel=0, control=1, value=53, time=3),
    Message('control_change', channel=2, control=1, value=53, time=0),
    Message('control_change', channel=0, control=1, value=107, time=9),
    Message('control_change', channel=2, control=1, value=107, time=0),
    Message('note_on', channel=9, note=48, velocity=105, time=4),
    Message('note_off', channel=9, note=48, velocity=64, time=0),
    Message('control_change', channel=0, control=1, value=127, time=4),
    Message('control_change', channel=2, control=1, value=127, time=0),
    Message('note_on', channel=9, note=48, velocity=105, time=11),
    Message('note_off', channel=9, note=48, velocity=64, time=1),
    Message('note_on', channel=1, note=38, velocity=126, time=16),
    Message('note_on', channel=9, note=45, velocity=106, time=0),
    Message('note_off', channel=9, note=45, velocity=64, time=0),
    Message('note_off', channel=1, note=41, velocity=64, time=7),
    Message('note_on', channel=9, note=45, velocity=106, time=8),
    Message('note_off', channel=9, note=45, velocity=64, time=1),
    Message('note_on', channel=9, note=45, velocity=106, time=16),
    Message('note_off', channel=9, note=45, velocity=64, time=0),
    Message('control_change', channel=0, control=1, value=111, time=10),
    Message('control_change', channel=2, control=1, value=111, time=0),
    Message('note_on', channel=9, note=43, velocity=107, time=6),
    Message('note_off', channel=9, note=43, velocity=64, time=0),
    Message('control_change', channel=0, control=1, value=107, time=2),
    Message('control_change', channel=2, control=1, value=107, time=0),
    Message('control_change', channel=0, control=1, value=127, time=9),
    Message('control_change', channel=2, control=1, value=127, time=0),
    Message('note_on', channel=9, note=43, velocity=107, time=5),
    Message('note_off', channel=9, note=43, velocity=64, time=0),
    Message('control_change', channel=0, control=1, value=95, time=5),
    Message('control_change', channel=2, control=1, value=95, time=0),
    Message('control_change', channel=0, control=1, value=127, time=8),
    Message('control_change', channel=2, control=1, value=127, time=0),
    Message('note_on', channel=9, note=43, velocity=116, time=3),
    Message('note_off', channel=9, note=43, velocity=64, time=0),
    Message('note_off', channel=0, note=60, velocity=64, time=4),
    Message('note_off', channel=2, note=60, velocity=64, time=0),
    Message('note_off', channel=0, note=65, velocity=64, time=2),
    Message('note_off', channel=2, note=65, velocity=64, time=0),
    Message('control_change', channel=0, control=1, value=107, time=1),
    Message('control_change', channel=2, control=1, value=107, time=0),
    Message('note_off', channel=1, note=38, velocity=64, time=2),
    Message('control_change', channel=0, control=1, value=0, time=7),
    Message('note_on', channel=1, note=26, velocity=126, time=0),
    Message('control_change', channel=2, control=1, value=0, time=0),
    Message('note_on', channel=9, note=35, velocity=127, time=0),
    Message('note_off', channel=9, note=35, velocity=64, time=0),
    Message('note_off', channel=1, note=26, velocity=64, time=16),
    Message('note_on', channel=1, note=26, velocity=126, time=32),
    Message('note_on', channel=9, note=35, velocity=127, time=0),
    Message('note_off', channel=9, note=35, velocity=64, time=0),
    Message('note_off', channel=1, note=26, velocity=64, time=39),
    Message('note_on', channel=0, note=55, velocity=89, time=9),
    Message('note_on', channel=1, note=31, velocity=126, time=0),
    Message('note_on', channel=2, note=55, velocity=100, time=0),
    Message('note_on', channel=9, note=46, velocity=126, time=0),
    Message('note_off', channel=9, note=46, velocity=64, time=0),
    Message('note_on', channel=9, note=46, velocity=126, time=16),
    Message('note_off', channel=9, note=46, velocity=64, time=0),
    Message('pitchwheel', channel=0, pitch=2465, time=12),
    Message('pitchwheel', channel=2, pitch=2465, time=0),
    Message('pitchwheel', channel=1, pitch=8191, time=1),
    Message('pitchwheel', channel=0, pitch=5780, time=3),
    Message('pitchwheel', channel=2, pitch=5780, time=0),
    Message('note_on', channel=9, note=46, velocity=125, time=0),
    Message('note_off', channel=9, note=46, velocity=64, time=0),
    Message('pitchwheel', channel=0, pitch=8191, time=4),
    Message('pitchwheel', channel=2, pitch=8191, time=0),
    Message('pitchwheel', channel=0, pitch=0, time=8),
    Message('pitchwheel', channel=2, pitch=0, time=0),
    Message('pitchwheel', channel=1, pitch=0, time=2),
    Message('note_on', channel=0, note=60, velocity=89, time=2),
    Message('note_on', channel=0, note=65, velocity=89, time=0),
    Message('note_on', channel=1, note=41, velocity=126, time=0),
    Message('note_on', channel=2, note=60, velocity=94, time=0),
    Message('note_on', channel=2, note=65, velocity=94, time=0),
    Message('note_off', channel=1, note=31, velocity=64, time=1),
    Message('note_off', channel=0, note=55, velocity=64, time=4),
    Message('note_off', channel=2, note=55, velocity=64, time=0),
    Message('note_on', channel=9, note=48, velocity=116, time=43),
    Message('note_off', channel=9, note=48, velocity=64, time=0),
    Message('note_on', channel=9, note=48, velocity=116, time=15),
    Message('note_off', channel=9, note=48, velocity=64, time=1),
    Message('note_on', channel=9, note=48, velocity=116, time=16),
    Message('note_off', channel=9, note=48, velocity=64, time=0),
    Message('note_on', channel=9, note=48, velocity=116, time=16),
    Message('note_off', channel=9, note=48, velocity=64, time=0),
    Message('note_on', channel=9, note=48, velocity=116, time=15),
    Message('note_off', channel=9, note=48, velocity=64, time=1),
    Message('control_change', channel=0, control=1, value=27, time=10),
    Message('control_change', channel=2, control=1, value=27, time=0),
    Message('note_on', channel=9, note=48, velocity=116, time=6),
    Message('note_off', channel=9, note=48, velocity=64, time=0),
    Message('control_change', channel=0, control=1, value=48, time=2),
    Message('control_change', channel=2, control=1, value=48, time=0),
    Message('control_change', channel=0, control=1, value=70, time=8),
    Message('control_change', channel=2, control=1, value=70, time=0),
    Message('note_on', channel=9, note=45, velocity=116, time=5),
    Message('note_on', channel=1, note=38, velocity=126, time=1),
    Message('note_off', channel=1, note=41, velocity=64, time=0),
    Message('note_off', channel=9, note=45, velocity=64, time=0),
    Message('control_change', channel=0, control=1, value=101, time=3),
    Message('control_change', channel=2, control=1, value=101, time=0),
    Message('note_on', channel=9, note=45, velocity=116, time=13),
    Message('note_off', channel=9, note=45, velocity=64, time=0),
    Message('control_change', channel=0, control=1, value=111, time=3),
    Message('control_change', channel=2, control=1, value=111, time=0),
    Message('note_on', channel=9, note=45, velocity=116, time=12),
    Message('note_off', channel=9, note=45, velocity=64, time=1),
    Message('control_change', channel=0, control=1, value=118, time=6),
    Message('control_change', channel=2, control=1, value=118, time=0),
    Message('note_on', channel=9, note=43, velocity=116, time=9),
    Message('note_off', channel=9, note=43, velocity=64, time=1),
    Message('control_change', channel=0, control=1, value=114, time=4),
    Message('control_change', channel=2, control=1, value=114, time=0),
    Message('note_on', channel=9, note=43, velocity=116, time=12),
    Message('control_change', channel=0, control=1, value=125, time=0),
    Message('control_change', channel=2, control=1, value=125, time=0),
    Message('note_off', channel=9, note=43, velocity=64, time=0),
    Message('note_off', channel=0, note=65, velocity=64, time=14),
    Message('note_off', channel=2, note=65, velocity=64, time=0),
    Message('control_change', channel=0, control=1, value=107, time=1),
    Message('control_change', channel=2, control=1, value=107, time=0),
    Message('note_on', channel=9, note=43, velocity=116, time=0),
    Message('note_off', channel=9, note=43, velocity=64, time=1),
    Message('note_off', channel=0, note=60, velocity=64, time=2),
    Message('note_off', channel=2, note=60, velocity=64, time=0),
    Message('control_change', channel=0, control=1, value=95, time=5),
    Message('control_change', channel=2, control=1, value=95, time=0),
    Message('note_off', channel=1, note=38, velocity=64, time=1),
    Message('control_change', channel=0, control=1, value=0, time=7),
    Message('control_change', channel=2, control=1, value=0, time=0),
    Message('note_on', channel=1, note=26, velocity=126, time=1),
    Message('note_on', channel=9, note=35, velocity=127, time=0),
    Message('note_off', channel=9, note=35, velocity=64, time=0),
    Message('note_off', channel=1, note=26, velocity=64, time=16),
    Message('note_on', channel=1, note=26, velocity=126, time=32),
    Message('note_on', channel=9, note=35, velocity=127, time=0),
    Message('note_off', channel=9, note=35, velocity=64, time=0),
    Message('note_off', channel=1, note=26, velocity=64, time=39),
    Message('note_on', channel=0, note=55, velocity=89, time=9),
    Message('note_on', channel=1, note=31, velocity=126, time=0),
    Message('note_on', channel=2, note=55, velocity=100, time=0),
    Message('note_on', channel=9, note=46, velocity=126, time=0),
    Message('note_off', channel=9, note=46, velocity=64, time=0),
    Message('note_on', channel=9, note=46, velocity=119, time=16),
    Message('note_off', channel=9, note=46, velocity=64, time=0),
    Message('pitchwheel', channel=0, pitch=2380, time=13),
    Message('pitchwheel', channel=1, pitch=5718, time=0),
    Message('pitchwheel', channel=2, pitch=2380, time=0),
    Message('note_on', channel=9, note=46, velocity=125, time=3),
    Message('note_off', channel=9, note=46, velocity=64, time=0),
    Message('pitchwheel', channel=1, pitch=8191, time=1),
    Message('pitchwheel', channel=0, pitch=5355, time=0),
    Message('pitchwheel', channel=2, pitch=5355, time=0),
    Message('pitchwheel', channel=0, pitch=8191, time=4),
    Message('pitchwheel', channel=2, pitch=8191, time=0),
    Message('pitchwheel', channel=0, pitch=0, time=5),
    Message('pitchwheel', channel=2, pitch=0, time=0),
    Message('pitchwheel', channel=1, pitch=6135, time=1),
    Message('pitchwheel', channel=1, pitch=0, time=4),
    Message('note_off', channel=1, note=31, velocity=64, time=0),
    Message('note_on', channel=0, note=60, velocity=89, time=1),
    Message('note_on', channel=0, note=65, velocity=89, time=0),
    Message('note_on', channel=1, note=41, velocity=126, time=0),
    Message('note_on', channel=2, note=60, velocity=91, time=0),
    Message('note_on', channel=2, note=65, velocity=94, time=0),
    Message('note_off', channel=0, note=55, velocity=64, time=7),
    Message('note_off', channel=2, note=55, velocity=64, time=0),
    Message('note_on', channel=9, note=48, velocity=116, time=40),
    Message('note_off', channel=9, note=48, velocity=64, time=1),
    Message('note_on', channel=9, note=48, velocity=116, time=16),
    Message('note_off', channel=9, note=48, velocity=64, time=0),
    Message('note_on', channel=9, note=48, velocity=116, time=16),
    Message('note_off', channel=9, note=48, velocity=64, time=0),
    Message('note_on', channel=9, note=48, velocity=116, time=16),
    Message('note_off', channel=9, note=48, velocity=64, time=0),
    Message('note_on', channel=9, note=48, velocity=116, time=15),
    Message('note_off', channel=9, note=48, velocity=64, time=1),
    Message('control_change', channel=0, control=1, value=33, time=5),
    Message('control_change', channel=2, control=1, value=33, time=0),
    Message('control_change', channel=0, control=1, value=75, time=9),
    Message('control_change', channel=2, control=1, value=75, time=0),
    Message('note_on', channel=9, note=45, velocity=116, time=1),
    Message('note_off', channel=9, note=45, velocity=64, time=1),
    Message('control_change', channel=0, control=1, value=98, time=6),
    Message('control_change', channel=2, control=1, value=98, time=0),
    Message('note_on', channel=9, note=45, velocity=116, time=9),
    Message('note_on', channel=1, note=38, velocity=126, time=1),
    Message('note_off', channel=9, note=45, velocity=64, time=0),
    Message('control_change', channel=0, control=1, value=114, time=0),
    Message('control_change', channel=2, control=1, value=114, time=0),
    Message('note_off', channel=1, note=41, velocity=64, time=4),
    Message('control_change', channel=0, control=1, value=127, time=6),
    Message('control_change', channel=2, control=1, value=127, time=0),
    Message('note_on', channel=9, note=45, velocity=116, time=5),
    Message('note_off', channel=9, note=45, velocity=64, time=1),
    Message('note_on', channel=9, note=45, velocity=116, time=16),
    Message('note_off', channel=9, note=45, velocity=64, time=0),
    Message('note_on', channel=9, note=43, velocity=116, time=15),
    Message('note_off', channel=9, note=43, velocity=64, time=1),
    Message('note_on', channel=9, note=43, velocity=116, time=16),
    Message('note_off', channel=9, note=43, velocity=64, time=0),
    Message('note_on', channel=9, note=43, velocity=116, time=15),
    Message('note_off', channel=9, note=43, velocity=64, time=1),
    Message('note_off', channel=0, note=60, velocity=64, time=6),
    Message('note_off', channel=2, note=60, velocity=64, time=0),
    Message('note_off', channel=0, note=65, velocity=64, time=2),
    Message('note_off', channel=2, note=65, velocity=64, time=0),
    Message('note_off', channel=1, note=38, velocity=64, time=1),
    Message('control_change', channel=0, control=1, value=104, time=2),
    Message('control_change', channel=2, control=1, value=104, time=0),
    Message('note_on', channel=1, note=26, velocity=126, time=5),
    Message('note_on', channel=9, note=35, velocity=127, time=0),
    Message('note_off', channel=9, note=35, velocity=64, time=0),
    Message('control_change', channel=0, control=1, value=0, time=3),
    Message('control_change', channel=2, control=1, value=0, time=0),
    Message('note_off', channel=1, note=26, velocity=64, time=12),
    Message('note_on', channel=1, note=26, velocity=126, time=33),
    Message('note_on', channel=9, note=35, velocity=127, time=0),
    Message('note_off', channel=9, note=35, velocity=64, time=0),
    Message('note_off', channel=1, note=26, velocity=64, time=42),
    Message('note_on', channel=0, note=55, velocity=89, time=6),
    Message('note_on', channel=1, note=31, velocity=126, time=0),
    Message('note_on', channel=2, note=55, velocity=107, time=0),
    Message('note_on', channel=9, note=46, velocity=126, time=0),
    Message('note_off', channel=9, note=46, velocity=64, time=0),
    Message('note_on', channel=9, note=46, velocity=125, time=16),
    Message('note_off', channel=9, note=46, velocity=64, time=0),
    Message('pitchwheel', channel=1, pitch=1349, time=5),
    Message('pitchwheel', channel=1, pitch=8191, time=4),
    Message('pitchwheel', channel=0, pitch=2380, time=2),
    Message('pitchwheel', channel=2, pitch=2380, time=0),
    Message('pitchwheel', channel=0, pitch=5525, time=4),
    Message('pitchwheel', channel=2, pitch=5525, time=0),
    Message('note_on', channel=9, note=46, velocity=122, time=1),
    Message('note_off', channel=9, note=46, velocity=64, time=0),
    Message('pitchwheel', channel=0, pitch=8191, time=3),
    Message('pitchwheel', channel=2, pitch=8191, time=0),
    Message('pitchwheel', channel=1, pitch=7581, time=6),
    Message('pitchwheel', channel=0, pitch=0, time=2),
    Message('pitchwheel', channel=2, pitch=0, time=0),
    Message('pitchwheel', channel=1, pitch=0, time=3),
    Message('note_on', channel=0, note=60, velocity=89, time=2),
    Message('note_on', channel=0, note=65, velocity=89, time=0),
    Message('note_on', channel=1, note=41, velocity=126, time=0),
    Message('note_on', channel=2, note=60, velocity=96, time=0),
    Message('note_on', channel=2, note=65, velocity=97, time=0),
    Message('note_off', channel=1, note=31, velocity=64, time=1),
    Message('note_off', channel=0, note=55, velocity=64, time=6),
    Message('note_off', channel=2, note=55, velocity=64, time=0),
    Message('note_on', channel=9, note=35, velocity=90, time=17),
    Message('note_off', channel=9, note=35, velocity=64, time=0),
    Message('note_on', channel=9, note=40, velocity=119, time=24),
    Message('note_off', channel=9, note=40, velocity=64, time=0),
    Message('note_on', channel=4, note=67, velocity=125, time=7),
    Message('note_on', channel=9, note=40, velocity=127, time=1),
    Message('note_off', channel=9, note=40, velocity=64, time=1),
    Message('note_on', channel=9, note=35, velocity=127, time=15),
    Message('note_off', channel=9, note=35, velocity=64, time=0),
    Message('note_on', channel=4, note=68, velocity=125, time=3),
    Message('note_off', channel=4, note=67, velocity=64, time=4),
    Message('control_change', channel=0, control=1, value=19, time=9),
    Message('control_change', channel=2, control=1, value=19, time=0),
    Message('note_on', channel=9, note=42, velocity=80, time=8),
    Message('control_change', channel=0, control=1, value=39, time=0),
    Message('control_change', channel=2, control=1, value=39, time=0),
    Message('note_off', channel=9, note=42, velocity=64, time=0),
    Message('note_off', channel=4, note=68, velocity=64, time=3),
    Message('note_on', channel=4, note=69, velocity=125, time=1),
    Message('note_on', channel=7, note=67, velocity=80, time=3),
    Message('control_change', channel=0, control=1, value=64, time=2),
    Message('control_change', channel=2, control=1, value=64, time=0),
    Message('control_change', channel=0, control=1, value=111, time=8),
    Message('control_change', channel=2, control=1, value=111, time=0),
    Message('note_on', channel=9, note=40, velocity=119, time=7),
    Message('note_off', channel=9, note=40, velocity=64, time=0),
    Message('control_change', channel=0, control=1, value=121, time=1),
    Message('control_change', channel=2, control=1, value=121, time=0),
    Message('note_on', channel=4, note=72, velocity=125, time=0),
    Message('note_on', channel=7, note=68, velocity=80, time=2),
    Message('note_off', channel=4, note=69, velocity=64, time=4),
    Message('note_off', channel=7, note=67, velocity=64, time=0),
    Message('control_change', channel=0, control=1, value=127, time=15),
    Message('control_change', channel=2, control=1, value=127, time=0),
    Message('note_on', channel=1, note=38, velocity=126, time=2),
    Message('note_on', channel=9, note=40, velocity=127, time=0),
    Message('note_off', channel=9, note=40, velocity=64, time=0),
    Message('note_off', channel=7, note=68, velocity=64, time=3),
    Message('note_on', channel=4, note=69, velocity=125, time=0),
    Message('note_on', channel=7, note=69, velocity=80, time=1),
    Message('note_off', channel=1, note=41, velocity=64, time=1),
    Message('note_off', channel=4, note=72, velocity=64, time=1),
    Message('note_on', channel=9, note=43, velocity=115, time=17),
    Message('note_off', channel=9, note=43, velocity=64, time=1),
    Message('note_on', channel=4, note=67, velocity=125, time=1),
    Message('note_on', channel=7, note=72, velocity=80, time=0),
    Message('note_off', channel=4, note=69, velocity=64, time=4),
    Message('note_off', channel=7, note=69, velocity=64, time=2),
    Message('note_on', channel=4, note=72, velocity=125, time=17),
    Message('note_on', channel=9, note=41, velocity=89, time=0),
    Message('note_on', channel=9, note=42, velocity=89, time=0),
    Message('note_off', channel=9, note=41, velocity=64, time=0),
    Message('note_off', channel=9, note=42, velocity=64, time=0),
    Message('pitchwheel', channel=4, pitch=-2636, time=1),
    Message('note_on', channel=7, note=69, velocity=80, time=2),
    Message('pitchwheel', channel=4, pitch=-1531, time=2),
    Message('note_off', channel=7, note=72, velocity=64, time=1),
    Message('pitchwheel', channel=4, pitch=0, time=2),
    Message('pitchwheel', channel=4, pitch=2210, time=6),
    Message('control_change', channel=0, control=1, value=125, time=4),
    Message('control_change', channel=2, control=1, value=125, time=0),
    Message('pitchwheel', channel=4, pitch=4675, time=0),
    Message('pitchwheel', channel=4, pitch=7395, time=3),
    Message('note_off', channel=0, note=60, velocity=64, time=1),
    Message('note_off', channel=1, note=38, velocity=64, time=0),
    Message('note_off', channel=2, note=60, velocity=64, time=0),
    Message('note_on', channel=9, note=35, velocity=125, time=2),
    Message('note_on', channel=9, note=52, velocity=115, time=0),
    Message('note_off', channel=9, note=35, velocity=64, time=0),
    Message('note_off', channel=9, note=52, velocity=64, time=0),
    Message('note_off', channel=0, note=65, velocity=64, time=1),
    Message('note_off', channel=2, note=65, velocity=64, time=0),
    Message('pitchwheel', channel=4, pitch=0, time=0),
    Message('note_on', channel=7, note=67, velocity=80, time=0),
    Message('control_change', channel=0, control=1, value=82, time=1),
    Message('control_change', channel=2, control=1, value=82, time=0),
    Message('note_off', channel=7, note=69, velocity=64, time=3),
    Message('control_change', channel=0, control=1, value=0, time=5),
    Message('control_change', channel=2, control=1, value=0, time=0),
    Message('note_on', channel=0, note=50, velocity=89, time=14),
    Message('note_on', channel=0, note=57, velocity=89, time=0),
    Message('note_on', channel=1, note=26, velocity=125, time=0),
    Message('note_on', channel=7, note=72, velocity=80, time=0),
    Message('note_on', channel=8, note=62, velocity=107, time=0),
    Message('note_on', channel=8, note=69, velocity=107, time=0),
    Message('note_on', channel=9, note=35, velocity=127, time=0),
    Message('note_on', channel=9, note=49, velocity=126, time=0),
    Message('note_off', channel=9, note=35, velocity=64, time=0),
    Message('note_off', channel=9, note=49, velocity=64, time=0),
    Message('note_on', channel=4, note=69, velocity=125, time=4),
    Message('note_off', channel=4, note=72, velocity=64, time=6),
    Message('note_off', channel=0, note=50, velocity=64, time=13),
    Message('note_off', channel=1, note=26, velocity=64, time=1),
    Message('note_off', channel=4, note=67, velocity=64, time=2),
    Message('note_off', channel=0, note=57, velocity=64, time=2),
    Message('note_on', channel=0, note=50, velocity=89, time=20),
    Message('note_on', channel=0, note=57, velocity=89, time=0),
    Message('note_on', channel=1, note=26, velocity=126, time=0),
    Message('note_on', channel=6, note=72, velocity=126, time=0),
    Message('note_on', channel=6, note=77, velocity=116, time=0),
    Message('note_on', channel=9, note=42, velocity=99, time=0),
    Message('note_on', channel=9, note=51, velocity=113, time=0),
    Message('note_off', channel=9, note=42, velocity=64, time=0),
    Message('note_off', channel=9, note=51, velocity=64, time=0),
    Message('note_on', channel=7, note=69, velocity=80, time=4),
    Message('note_off', channel=7, note=72, velocity=64, time=6),
    Message('note_off', channel=6, note=72, velocity=64, time=1),
    Message('control_change', channel=4, control=1, value=95, time=2),
    Message('note_off', channel=6, note=77, velocity=64, time=0),
    Message('control_change', channel=4, control=1, value=114, time=8),
    Message('note_off', channel=7, note=67, velocity=64, time=5),
    Message('note_off', channel=0, note=50, velocity=64, time=3),
    Message('control_change', channel=4, control=1, value=125, time=1),
    Message('note_off', channel=0, note=57, velocity=64, time=6),
    Message('control_change', channel=4, control=1, value=90, time=10),
    Message('note_on', channel=0, note=50, velocity=89, time=2),
    Message('note_on', channel=0, note=59, velocity=89, time=0),
    Message('note_on', channel=1, note=31, velocity=126, time=0),
    Message('note_off', channel=8, note=62, velocity=64, time=0),
    Message('note_on', channel=8, note=62, velocity=111, time=0),
    Message('note_off', channel=8, note=69, velocity=64, time=0),
    Message('note_on', channel=8, note=71, velocity=107, time=0),
    Message('note_on', channel=9, note=40, velocity=127, time=0),
    Message('note_on', channel=9, note=51, velocity=126, time=0),
    Message('note_on', channel=9, note=53, velocity=126, time=0),
    Message('note_off', channel=1, note=26, velocity=64, time=0),
    Message('note_off', channel=9, note=40, velocity=64, time=0),
    Message('note_off', channel=9, note=51, velocity=64, time=0),
    Message('note_off', channel=9, note=53, velocity=64, time=0),
    Message('control_change', channel=4, control=1, value=45, time=7),
    Message('control_change', channel=4, control=1, value=101, time=8),
    Message('control_change', channel=4, control=1, value=125, time=7),
    Message('pitchwheel', channel=1, pitch=3373, time=4),
    Message('pitchwheel', channel=1, pitch=8191, time=4),
    Message('control_change', channel=4, control=1, value=125, time=1),
    Message('note_off', channel=0, note=50, velocity=64, time=6),
    Message('control_change', channel=4, control=1, value=52, time=2),
    Message('note_off', channel=0, note=59, velocity=64, time=6),
    Message('control_change', channel=4, control=1, value=0, time=1),
    Message('note_on', channel=4, note=72, velocity=125, time=1),
    Message('note_on', channel=0, note=50, velocity=89, time=1),
    Message('note_on', channel=0, note=57, velocity=89, time=0),
    Message('note_off', channel=1, note=31, velocity=64, time=0),
    Message('note_on', channel=1, note=41, velocity=126, time=0),
    Message('note_on', channel=4, note=77, velocity=125, time=0),
    Message('note_on', channel=6, note=72, velocity=116, time=0),
    Message('note_on', channel=6, note=77, velocity=99, time=0),
    Message('note_on', channel=9, note=42, velocity=93, time=0),
    Message('note_on', channel=9, note=51, velocity=126, time=0),
    Message('note_off', channel=9, note=42, velocity=64, time=0),
    Message('note_off', channel=9, note=51, velocity=64, time=0),
    Message('pitchwheel', channel=1, pitch=111, time=1),
    Message('note_off', channel=4, note=69, velocity=64, time=1),
    Message('pitchwheel', channel=1, pitch=0, time=4),
    Message('note_off', channel=6, note=72, velocity=64, time=1),
    Message('note_off', channel=6, note=77, velocity=64, time=2),
    Message('note_off', channel=0, note=50, velocity=64, time=18),
    Message('note_off', channel=0, note=57, velocity=64, time=1),
    Message('control_change', channel=4, control=1, value=23, time=1),
    Message('control_change', channel=4, control=1, value=127, time=8),
    Message('note_on', channel=7, note=72, velocity=80, time=10),
    Message('note_on', channel=0, note=50, velocity=89, time=1),
    Message('note_on', channel=0, note=57, velocity=89, time=0),
    Message('note_on', channel=7, note=77, velocity=80, time=0),
    Message('note_off', channel=8, note=62, velocity=64, time=0),
    Message('note_on', channel=8, note=62, velocity=89, time=0),
    Message('note_on', channel=8, note=69, velocity=116, time=0),
    Message('note_off', channel=8, note=71, velocity=64, time=0),
    Message('note_on', channel=9, note=35, velocity=127, time=0),
    Message('note_on', channel=9, note=51, velocity=126, time=0),
    Message('note_off', channel=9, note=35, velocity=64, time=0),
    Message('note_off', channel=9, note=51, velocity=64, time=0),
    Message('note_off', channel=7, note=69, velocity=64, time=2),
    Message('control_change', channel=4, control=1, value=64, time=5),
    Message('control_change', channel=4, control=1, value=98, time=9),
    Message('control_change', channel=4, control=1, value=121, time=7),
    Message('note_off', channel=0, note=50, velocity=64, time=6),
    Message('note_off', channel=0, note=57, velocity=64, time=2),
    Message('control_change', channel=4, control=1, value=114, time=2),
    Message('control_change', channel=4, control=1, value=0, time=14),
    Message('note_on', channel=0, note=50, velocity=89, time=1),
    Message('note_on', channel=0, note=57, velocity=89, time=0),
    Message('note_on', channel=6, note=72, velocity=84, time=0),
    Message('note_on', channel=9, note=35, velocity=127, time=0),
    Message('note_on', channel=9, note=42, velocity=113, time=0),
    Message('note_on', channel=9, note=51, velocity=126, time=0),
    Message('note_off', channel=9, note=35, velocity=64, time=0),
    Message('note_off', channel=9, note=42, velocity=64, time=0),
    Message('note_off', channel=9, note=51, velocity=64, time=0),
    Message('note_off', channel=6, note=72, velocity=64, time=4),
    Message('note_off', channel=4, note=72, velocity=64, time=1),
    Message('note_off', channel=4, note=77, velocity=64, time=0),
    Message('note_on', channel=4, note=74, velocity=125, time=1),
    Message('note_off', channel=4, note=74, velocity=64, time=12),
    Message('note_off', channel=0, note=50, velocity=64, time=9),
    Message('note_off', channel=0, note=57, velocity=64, time=0),
    Message('note_on', channel=0, note=50, velocity=89, time=21),
    Message('note_on', channel=0, note=59, velocity=89, time=0),
    Message('note_on', channel=1, note=38, velocity=126, time=0),
    Message('note_on', channel=6, note=72, velocity=127, time=0),
    Message('note_on', channel=6, note=77, velocity=126, time=0),
    Message('note_off', channel=8, note=62, velocity=64, time=0),
    Message('note_on', channel=8, note=62, velocity=113, time=0),
    Message('note_off', channel=8, note=69, velocity=64, time=0),
    Message('note_on', channel=8, note=71, velocity=121, time=0),
    Message('note_on', channel=9, note=40, velocity=127, time=0),
    Message('note_on', channel=9, note=51, velocity=126, time=0),
    Message('note_on', channel=9, note=53, velocity=126, time=0),
    Message('note_off', channel=9, note=40, velocity=64, time=0),
    Message('note_off', channel=9, note=51, velocity=64, time=0),
    Message('note_off', channel=9, note=53, velocity=64, time=0),
    Message('note_off', channel=7, note=72, velocity=64, time=5),
    Message('note_off', channel=7, note=77, velocity=64, time=0),
    Message('note_on', channel=7, note=74, velocity=80, time=1),
    Message('note_off', channel=1, note=41, velocity=64, time=1),
    Message('note_off', channel=7, note=74, velocity=64, time=11),
    Message('note_off', channel=0, note=50, velocity=64, time=9),
    Message('note_off', channel=0, note=59, velocity=64, time=6),
    Message('note_on', channel=4, note=77, velocity=125, time=12),
    Message('note_on', channel=4, note=72, velocity=125, time=1),
    Message('note_off', channel=6, note=72, velocity=64, time=1),
    Message('note_on', channel=0, note=50, velocity=89, time=1),
    Message('note_on', channel=0, note=57, velocity=89, time=0),
    Message('note_on', channel=6, note=74, velocity=105, time=0),
    Message('note_on', channel=9, note=42, velocity=89, time=0),
    Message('note_on', channel=9, note=51, velocity=126, time=0),
    Message('note_off', channel=9, note=42, velocity=64, time=0),
    Message('note_off', channel=9, note=51, velocity=64, time=0),
    Message('note_off', channel=6, note=77, velocity=64, time=3),
    Message('pitchwheel', channel=4, pitch=935, time=1),
    Message('pitchwheel', channel=4, pitch=1955, time=4),
    Message('note_off', channel=6, note=74, velocity=64, time=0),
    Message('pitchwheel', channel=4, pitch=2720, time=3),
    Message('pitchwheel', channel=4, pitch=3485, time=4),
    Message('pitchwheel', channel=4, pitch=4930, time=4),
    Message('pitchwheel', channel=4, pitch=6205, time=3),
    Message('note_off', channel=0, note=50, velocity=64, time=4),
    Message('note_off', channel=0, note=57, velocity=64, time=0),
    Message('pitchwheel', channel=4, pitch=7395, time=0),
    Message('pitchwheel', channel=4, pitch=8191, time=4),
    Message('note_off', channel=1, note=38, velocity=64, time=11),
    Message('note_on', channel=7, note=77, velocity=80, time=4),
    Message('note_on', channel=7, note=72, velocity=80, time=1),
    Message('pitchwheel', channel=4, pitch=0, time=0),
    Message('note_on', channel=0, note=50, velocity=89, time=2),
    Message('note_on', channel=0, note=57, velocity=89, time=0),
    Message('note_on', channel=1, note=26, velocity=126, time=0),
    Message('note_off', channel=8, note=62, velocity=64, time=0),
    Message('note_on', channel=8, note=62, velocity=100, time=0),
    Message('note_on', channel=8, note=69, velocity=109, time=0),
    Message('note_off', channel=8, note=71, velocity=64, time=0),
    Message('note_on', channel=9, note=35, velocity=127, time=0),
    Message('note_on', channel=9, note=51, velocity=126, time=0),
    Message('note_off', channel=9, note=35, velocity=64, time=0),
    Message('note_off', channel=9, note=51, velocity=64, time=0),
    Message('note_off', channel=1, note=26, velocity=64, time=16),
    Message('note_off', channel=0, note=50, velocity=64, time=9),
    Message('note_off', channel=0, note=57, velocity=64, time=1),
    Message('control_change', channel=4, control=1, value=127, time=14),
    Message('note_on', channel=0, note=50, velocity=89, time=8),
    Message('note_on', channel=0, note=57, velocity=89, time=0),
    Message('note_on', channel=1, note=26, velocity=126, time=0),
    Message('note_on', channel=6, note=72, velocity=126, time=0),
    Message('note_on', channel=6, note=77, velocity=111, time=0),
    Message('note_on', channel=9, note=42, velocity=87, time=0),
    Message('note_on', channel=9, note=51, velocity=126, time=0),
    Message('note_off', channel=9, note=42, velocity=64, time=0),
    Message('note_off', channel=9, note=51, velocity=64, time=0),
    Message('control_change', channel=4, control=1, value=125, time=3),
    Message('note_off', channel=6, note=72, velocity=64, time=4),
    Message('note_off', channel=6, note=77, velocity=64, time=3),
    Message('control_change', channel=4, control=1, value=98, time=2),
    Message('control_change', channel=4, control=1, value=101, time=8),
    Message('note_off', channel=0, note=50, velocity=64, time=3),
    Message('note_off', channel=0, note=57, velocity=64, time=3),
    Message('control_change', channel=4, control=1, value=0, time=1),
    Message('note_off', channel=1, note=26, velocity=64, time=12),
    Message('note_off', channel=4, note=72, velocity=64, time=5),
    Message('note_off', channel=4, note=77, velocity=64, time=2),
    Message('note_on', channel=4, note=69, velocity=125, time=1),
    Message('note_on', channel=4, note=74, velocity=125, time=0),
    Message('note_on', channel=0, note=50, velocity=89, time=1),
    Message('note_on', channel=0, note=59, velocity=89, time=0),
    Message('note_on', channel=1, note=31, velocity=126, time=0),
    Message('note_off', channel=8, note=62, velocity=64, time=0),
    Message('note_on', channel=8, note=62, velocity=103, time=0),
    Message('note_off', channel=8, note=69, velocity=64, time=0),
    Message('note_on', channel=8, note=71, velocity=107, time=0),
    Message('note_on', channel=9, note=40, velocity=127, time=0),
    Message('note_on', channel=9, note=51, velocity=126, time=0),
    Message('note_on', channel=9, note=53, velocity=126, time=0),
    Message('note_off', channel=9, note=40, velocity=64, time=0),
    Message('note_off', channel=9, note=51, velocity=64, time=0),
    Message('note_off', channel=9, note=53, velocity=64, time=0),
    Message('note_off', channel=4, note=69, velocity=64, time=13),
    Message('note_off', channel=4, note=74, velocity=64, time=6),
    Message('note_off', channel=0, note=50, velocity=64, time=5),
    Message('note_off', channel=0, note=59, velocity=64, time=1),
    Message('pitchwheel', channel=1, pitch=8191, time=4),
    Message('note_on', channel=4, note=72, velocity=125, time=3),
    Message('note_off', channel=4, note=72, velocity=64, time=5),
    Message('note_off', channel=7, note=72, velocity=64, time=7),
    Message('note_off', channel=7, note=77, velocity=64, time=2),
    Message('pitchwheel', channel=1, pitch=0, time=0),
    Message('note_on', channel=7, note=69, velocity=80, time=1),
    Message('note_on', channel=7, note=74, velocity=80, time=0),
    Message('note_on', channel=0, note=50, velocity=89, time=1),
    Message('note_on', channel=0, note=57, velocity=89, time=0),
    Message('note_on', channel=1, note=41, velocity=126, time=0),
    Message('note_on', channel=6, note=72, velocity=127, time=0),
    Message('note_on', channel=6, note=77, velocity=100, time=0),
    Message('note_on', channel=9, note=42, velocity=73, time=0),
    Message('note_on', channel=9, note=51, velocity=126, time=0),
    Message('note_off', channel=9, note=42, velocity=64, time=0),
    Message('note_off', channel=9, note=51, velocity=64, time=0),
    Message('note_off', channel=1, note=31, velocity=64, time=1),
    Message('note_off', channel=6, note=72, velocity=64, time=7),
    Message('note_off', channel=6, note=77, velocity=64, time=2),
    Message('note_off', channel=7, note=69, velocity=64, time=3),
    Message('note_off', channel=7, note=74, velocity=64, time=6),
    Message('note_off', channel=0, note=57, velocity=64, time=5),
    Message('note_off', channel=0, note=50, velocity=64, time=0),
    Message('note_on', channel=7, note=72, velocity=80, time=8),
    Message('note_off', channel=7, note=72, velocity=64, time=5),
    Message('note_on', channel=4, note=72, velocity=125, time=10),
    Message('note_on', channel=4, note=77, velocity=125, time=0),
    Message('note_on', channel=0, note=50, velocity=89, time=1),
    Message('note_on', channel=0, note=57, velocity=89, time=0),
    Message('note_off', channel=8, note=62, velocity=64, time=0),
    Message('note_on', channel=8, note=62, velocity=107, time=0),
    Message('note_on', channel=8, note=69, velocity=113, time=0),
    Message('note_off', channel=8, note=71, velocity=64, time=0),
    Message('note_on', channel=9, note=35, velocity=127, time=0),
    Message('note_on', channel=9, note=51, velocity=126, time=0),
    Message('note_off', channel=9, note=35, velocity=64, time=0),
    Message('note_off', channel=9, note=51, velocity=64, time=0),
    Message('note_off', channel=0, note=50, velocity=64, time=24),
    Message('note_off', channel=0, note=57, velocity=64, time=2),
    Message('note_off', channel=4, note=77, velocity=64, time=19),
    Message('note_off', channel=4, note=72, velocity=64, time=1),
    Message('note_on', channel=7, note=72, velocity=80, time=1),
    Message('note_on', channel=7, note=77, velocity=80, time=0),
    Message('note_on', channel=0, note=50, velocity=89, time=1),
    Message('note_on', channel=0, note=57, velocity=89, time=0),
    Message('note_on', channel=4, note=74, velocity=125, time=0),
    Message('note_on', channel=6, note=72, velocity=113, time=0),
    Message('note_on', channel=9, note=35, velocity=127, time=0),
    Message('note_on', channel=9, note=42, velocity=93, time=0),
    Message('note_on', channel=9, note=51, velocity=126, time=0),
    Message('note_off', channel=9, note=35, velocity=64, time=0),
    Message('note_off', channel=9, note=42, velocity=64, time=0),
    Message('note_off', channel=9, note=51, velocity=64, time=0),
    Message('note_on', channel=4, note=79, velocity=125, time=1),
    Message('note_off', channel=6, note=72, velocity=64, time=5),
    Message('note_off', channel=0, note=50, velocity=64, time=17),
    Message('note_off', channel=0, note=57, velocity=64, time=2),
    Message('pitchwheel', channel=4, pitch=850, time=19),
    Message('note_off', channel=7, note=77, velocity=64, time=1),
    Message('note_off', channel=7, note=72, velocity=64, time=1),
    Message('note_on', channel=0, note=50, velocity=89, time=2),
    Message('note_on', channel=0, note=59, velocity=89, time=0),
    Message('note_on', channel=1, note=38, velocity=126, time=0),
    Message('note_off', channel=1, note=41, velocity=64, time=0),
    Message('pitchwheel', channel=4, pitch=1870, time=0),
    Message('note_on', channel=6, note=72, velocity=127, time=0),
    Message('note_on', channel=6, note=77, velocity=125, time=0),
    Message('note_on', channel=7, note=74, velocity=80, time=0),
    Message('note_off', channel=8, note=62, velocity=64, time=0),
    Message('note_on', channel=8, note=62, velocity=109, time=0),
    Message('note_off', channel=8, note=69, velocity=64, time=0),
    Message('note_on', channel=8, note=71, velocity=123, time=0),
    Message('note_on', channel=9, note=40, velocity=127, time=0),
    Message('note_on', channel=9, note=51, velocity=126, time=0),
    Message('note_on', channel=9, note=53, velocity=126, time=0),
    Message('note_off', channel=9, note=40, velocity=64, time=0),
    Message('note_off', channel=9, note=51, velocity=64, time=0),
    Message('note_off', channel=9, note=53, velocity=64, time=0),
    Message('note_on', channel=7, note=79, velocity=80, time=1),
    Message('pitchwheel', channel=4, pitch=2720, time=3),
    Message('pitchwheel', channel=4, pitch=3740, time=3),
    Message('pitchwheel', channel=4, pitch=4845, time=4),
    Message('pitchwheel', channel=4, pitch=5525, time=4),
    Message('pitchwheel', channel=4, pitch=5780, time=3),
    Message('pitchwheel', channel=4, pitch=5525, time=4),
    Message('note_off', channel=0, note=59, velocity=64, time=2),
    Message('pitchwheel', channel=4, pitch=4845, time=2),
    Message('note_off', channel=0, note=50, velocity=64, time=1),
    Message('pitchwheel', channel=4, pitch=0, time=2),
    Message('note_off', channel=6, note=72, velocity=64, time=17),
    Message('note_on', channel=0, note=50, velocity=89, time=2),
    Message('note_on', channel=0, note=57, velocity=89, time=0),
    Message('note_on', channel=6, note=74, velocity=109, time=0),
    Message('note_on', channel=9, note=42, velocity=85, time=0),
    Message('note_on', channel=9, note=51, velocity=126, time=0),
    Message('note_off', channel=9, note=42, velocity=64, time=0),
    Message('note_off', channel=9, note=51, velocity=64, time=0),
    Message('note_off', channel=6, note=77, velocity=64, time=2),
    Message('note_on', channel=4, note=72, velocity=125, time=1),
    Message('note_on', channel=4, note=77, velocity=125, time=1),
    Message('note_off', channel=4, note=74, velocity=64, time=1),
    Message('note_off', channel=6, note=74, velocity=64, time=3),
    Message('note_off', channel=4, note=79, velocity=64, time=2),
    Message('note_off', channel=4, note=77, velocity=64, time=13),
    Message('note_off', channel=0, note=57, velocity=64, time=2),
    Message('note_on', channel=4, note=74, velocity=125, time=0),
    Message('note_off', channel=0, note=50, velocity=64, time=1),
    Message('note_off', channel=4, note=72, velocity=64, time=5),
    Message('note_off', channel=1, note=38, velocity=64, time=9),
    Message('note_on', channel=4, note=77, velocity=125, time=5),
    Message('note_on', channel=4, note=72, velocity=125, time=2),
    Message('note_on', channel=0, note=50, velocity=89, time=1),
    Message('note_on', channel=0, note=57, velocity=89, time=0),
    Message('note_on', channel=1, note=26, velocity=126, time=0),
    Message('note_off', channel=8, note=62, velocity=64, time=0),
    Message('note_on', channel=8, note=62, velocity=111, time=0),
    Message('note_on', channel=8, note=69, velocity=111, time=0),
    Message('note_off', channel=8, note=71, velocity=64, time=0),
    Message('note_on', channel=9, note=35, velocity=127, time=0),
    Message('note_on', channel=9, note=51, velocity=126, time=0),
    Message('note_off', channel=9, note=35, velocity=64, time=0),
    Message('note_off', channel=9, note=51, velocity=64, time=0),
    Message('note_off', channel=4, note=74, velocity=64, time=1),
    Message('note_on', channel=7, note=72, velocity=80, time=2),
    Message('note_on', channel=7, note=77, velocity=80, time=1),
    Message('note_off', channel=7, note=74, velocity=64, time=1),
    Message('note_off', channel=7, note=79, velocity=64, time=5),
    Message('note_off', channel=1, note=26, velocity=64, time=6),
    Message('note_off', channel=7, note=77, velocity=64, time=7),
    Message('note_on', channel=7, note=74, velocity=80, time=2),
    Message('note_off', channel=0, note=50, velocity=64, time=1),
    Message('note_off', channel=0, note=57, velocity=64, time=0),
    Message('control_change', channel=4, control=1, value=127, time=4),
    Message('note_off', channel=7, note=72, velocity=64, time=1),
    Message('note_on', channel=7, note=77, velocity=80, time=14),
    Message('note_on', channel=7, note=72, velocity=80, time=2),
    Message('note_on', channel=0, note=50, velocity=89, time=1),
    Message('note_on', channel=0, note=57, velocity=89, time=0),
    Message('note_on', channel=1, note=26, velocity=126, time=0),
    Message('note_on', channel=6, note=72, velocity=127, time=0),
    Message('note_on', channel=6, note=77, velocity=123, time=0),
    Message('note_on', channel=9, note=42, velocity=89, time=0),
    Message('note_on', channel=9, note=51, velocity=119, time=0),
    Message('note_off', channel=9, note=42, velocity=64, time=0),
    Message('note_off', channel=9, note=51, velocity=64, time=0),
    Message('note_off', channel=7, note=74, velocity=64, time=1),
    Message('control_change', channel=4, control=1, value=0, time=1),
    Message('note_off', channel=6, note=72, velocity=64, time=8),
    Message('note_off', channel=6, note=77, velocity=64, time=0),
    Message('pitchwheel', channel=4, pitch=1275, time=13),
    Message('note_off', channel=0, note=50, velocity=64, time=1),
    Message('note_off', channel=0, note=57, velocity=64, time=2),
    Message('pitchwheel', channel=4, pitch=1615, time=0),
    Message('pitchwheel', channel=4, pitch=2210, time=4),
    Message('pitchwheel', channel=4, pitch=3315, time=4),
    Message('pitchwheel', channel=4, pitch=4250, time=3),
    Message('note_off', channel=1, note=26, velocity=64, time=2),
    Message('pitchwheel', channel=4, pitch=5355, time=2),
    Message('pitchwheel', channel=4, pitch=6545, time=4),
    Message('note_on', channel=0, note=50, velocity=89, time=3),
    Message('note_on', channel=0, note=59, velocity=89, time=0),
    Message('note_on', channel=1, note=31, velocity=126, time=0),
    Message('note_off', channel=8, note=62, velocity=64, time=0),
    Message('note_on', channel=8, note=62, velocity=100, time=0),
    Message('note_off', channel=8, note=69, velocity=64, time=0),
    Message('note_on', channel=8, note=71, velocity=113, time=0),
    Message('note_on', channel=9, note=40, velocity=127, time=0),
    Message('note_on', channel=9, note=51, velocity=126, time=0),
    Message('note_on', channel=9, note=53, velocity=126, time=0),
    Message('pitchwheel', channel=4, pitch=7310, time=0),
    Message('note_off', channel=9, note=40, velocity=64, time=0),
    Message('note_off', channel=9, note=51, velocity=64, time=0),
    Message('note_off', channel=9, note=53, velocity=64, time=0),
    Message('pitchwheel', channel=4, pitch=7990, time=4),
    Message('pitchwheel', channel=4, pitch=0, time=4),
    Message('note_off', channel=4, note=72, velocity=64, time=3),
    Message('note_off', channel=4, note=77, velocity=64, time=2),
    Message('note_off', channel=0, note=50, velocity=64, time=15),
    Message('pitchwheel', channel=1, pitch=5718, time=1),
    Message('note_off', channel=0, note=59, velocity=64, time=1),
    Message('pitchwheel', channel=1, pitch=8191, time=3),
    Message('pitchwheel', channel=1, pitch=6135, time=10),
    Message('pitchwheel', channel=1, pitch=0, time=4),
    Message('note_off', channel=1, note=31, velocity=64, time=0),
    Message('note_on', channel=0, note=50, velocity=89, time=1),
    Message('note_on', channel=0, note=57, velocity=89, time=0),
    Message('note_on', channel=1, note=41, velocity=126, time=0),
    Message('note_on', channel=6, note=72, velocity=126, time=0),
    Message('note_on', channel=6, note=77, velocity=121, time=0),
    Message('note_on', channel=9, note=42, velocity=83, time=0),
    Message('note_on', channel=9, note=51, velocity=119, time=0),
    Message('note_off', channel=9, note=42, velocity=64, time=0),
    Message('note_off', channel=9, note=51, velocity=64, time=0),
    Message('note_off', channel=6, note=72, velocity=64, time=8),
    Message('note_off', channel=6, note=77, velocity=64, time=2),
    Message('note_off', channel=7, note=72, velocity=64, time=1),
    Message('note_off', channel=7, note=77, velocity=64, time=2),
    Message('note_off', channel=0, note=57, velocity=64, time=12),
    Message('note_off', channel=0, note=50, velocity=64, time=2),
    Message('pitchwheel', channel=4, pitch=-6971, time=6),
    Message('pitchwheel', channel=4, pitch=-7226, time=5),
    Message('pitchwheel', channel=4, pitch=-7481, time=4),
    Message('note_on', channel=4, note=69, velocity=125, time=5),
    Message('note_on', channel=0, note=50, velocity=89, time=1),
    Message('note_on', channel=0, note=57, velocity=89, time=0),
    Message('note_off', channel=8, note=62, velocity=64, time=0),
    Message('note_on', channel=8, note=62, velocity=113, time=0),
    Message('note_on', channel=8, note=69, velocity=116, time=0),
    Message('note_off', channel=8, note=71, velocity=64, time=0),
    Message('note_on', channel=9, note=35, velocity=127, time=0),
    Message('note_on', channel=9, note=51, velocity=126, time=0),
    Message('note_off', channel=9, note=35, velocity=64, time=0),
    Message('note_off', channel=9, note=51, velocity=64, time=0),
    Message('pitchwheel', channel=4, pitch=-6801, time=8),
    Message('pitchwheel', channel=4, pitch=-6121, time=4),
    Message('pitchwheel', channel=4, pitch=-5186, time=4),
    Message('pitchwheel', channel=4, pitch=-3401, time=3),
    Message('pitchwheel', channel=4, pitch=-1446, time=4),
    Message('note_off', channel=0, note=50, velocity=64, time=2),
    Message('note_off', channel=0, note=57, velocity=64, time=0),
    Message('pitchwheel', channel=4, pitch=0, time=2),
    Message('note_on', channel=7, note=69, velocity=80, time=20),
    Message('note_on', channel=0, note=50, velocity=89, time=1),
    Message('note_on', channel=0, note=57, velocity=89, time=0),
    Message('note_on', channel=6, note=72, velocity=109, time=0),
    Message('note_on', channel=6, note=77, velocity=85, time=0),
    Message('note_on', channel=9, note=35, velocity=127, time=0),
    Message('note_on', channel=9, note=42, velocity=81, time=0),
    Message('note_on', channel=9, note=51, velocity=126, time=0),
    Message('note_off', channel=9, note=35, velocity=64, time=0),
    Message('note_off', channel=9, note=42, velocity=64, time=0),
    Message('note_off', channel=9, note=51, velocity=64, time=0),
    Message('note_on', channel=4, note=77, velocity=125, time=1),
    Message('note_off', channel=4, note=69, velocity=64, time=3),
    Message('note_off', channel=6, note=72, velocity=64, time=2),
    Message('note_off', channel=6, note=77, velocity=64, time=2),
    Message('note_off', channel=0, note=50, velocity=64, time=13),
    Message('note_off', channel=0, note=57, velocity=64, time=1),
    Message('note_on', channel=4, note=74, velocity=125, time=2),
    Message('note_off', channel=4, note=77, velocity=64, time=5),
    Message('note_on', channel=9, note=40, velocity=127, time=15),
    Message('note_off', channel=9, note=40, velocity=64, time=1),
    Message('pitchwheel', channel=4, pitch=-3741, time=0),
    Message('note_on', channel=4, note=77, velocity=125, time=1),
    Message('note_on', channel=0, note=50, velocity=89, time=2),
    Message('note_on', channel=0, note=59, velocity=89, time=0),
    Message('note_on', channel=1, note=38, velocity=126, time=0),
    Message('note_on', channel=6, note=72, velocity=127, time=0),
    Message('note_on', channel=6, note=77, velocity=127, time=0),
    Message('note_off', channel=8, note=62, velocity=64, time=0),
    Message('note_on', channel=8, note=62, velocity=99, time=0),
    Message('note_off', channel=8, note=69, velocity=64, time=0),
    Message('note_on', channel=8, note=71, velocity=121, time=0),
    Message('note_on', channel=9, note=51, velocity=126, time=0),
    Message('note_on', channel=9, note=53, velocity=126, time=0),
    Message('note_off', channel=9, note=51, velocity=64, time=0),
    Message('note_off', channel=9, note=53, velocity=64, time=0),
    Message('pitchwheel', channel=4, pitch=-2126, time=1),
    Message('note_on', channel=4, note=69, velocity=125, time=0),
    Message('note_on', channel=7, note=77, velocity=80, time=0),
    Message('note_off', channel=4, note=74, velocity=64, time=0),
    Message('note_on', channel=4, note=71, velocity=125, time=1),
    Message('note_on', channel=9, note=40, velocity=108, time=1),
    Message('note_off', channel=1, note=41, velocity=64, time=1),
    Message('note_off', channel=9, note=40, velocity=64, time=0),
    Message('note_off', channel=7, note=69, velocity=64, time=0),
    Message('pitchwheel', channel=4, pitch=0, time=1),
    Message('note_off', channel=4, note=71, velocity=64, time=1),
    Message('note_on', channel=4, note=74, velocity=125, time=16),
    Message('note_on', channel=7, note=74, velocity=80, time=2),
    Message('note_on', channel=4, note=68, velocity=125, time=1),
    Message('note_off', channel=0, note=50, velocity=64, time=1),
    Message('note_off', channel=4, note=77, velocity=64, time=3),
    Message('note_off', channel=7, note=77, velocity=64, time=0),
    Message('note_off', channel=0, note=59, velocity=64, time=1),
    Message('note_off', channel=4, note=69, velocity=64, time=0),
    Message('note_on', channel=4, note=67, velocity=125, time=12),
    Message('note_on', channel=4, note=72, velocity=125, time=2),
    Message('note_on', channel=7, note=77, velocity=80, time=2),
    Message('note_off', channel=6, note=72, velocity=64, time=0),
    Message('note_off', channel=4, note=74, velocity=64, time=1),
    Message('note_on', channel=0, note=50, velocity=89, time=1),
    Message('note_on', channel=0, note=57, velocity=89, time=0),
    Message('note_off', channel=4, note=68, velocity=64, time=0),
    Message('note_on', channel=6, note=74, velocity=111, time=0),
    Message('note_on', channel=9, note=42, velocity=81, time=0),
    Message('note_on', channel=9, note=51, velocity=126, time=0),
    Message('note_off', channel=9, note=42, velocity=64, time=0),
    Message('note_off', channel=9, note=51, velocity=64, time=0),
    Message('note_on', channel=7, note=69, velocity=80, time=1),
    Message('note_off', channel=7, note=74, velocity=64, time=0),
    Message('note_on', channel=7, note=71, velocity=80, time=1),
    Message('note_off', channel=6, note=77, velocity=64, time=0),
    Message('note_off', channel=7, note=71, velocity=64, time=4),
    Message('note_off', channel=6, note=74, velocity=64, time=2),
    Message('control_change', channel=4, control=1, value=127, time=13),
    Message('note_on', channel=7, note=74, velocity=80, time=1),
    Message('note_off', channel=0, note=50, velocity=64, time=1),
    Message('note_off', channel=4, note=67, velocity=64, time=0),
    Message('note_off', channel=0, note=57, velocity=64, time=1),
    Message('note_on', channel=4, note=65, velocity=125, time=0),
    Message('note_on', channel=7, note=68, velocity=80, time=1),
    Message('note_off', channel=7, note=77, velocity=64, time=4),
    Message('note_off', channel=7, note=69, velocity=64, time=1),
    Message('note_off', channel=1, note=38, velocity=64, time=11),
    Message('note_on', channel=7, note=67, velocity=80, time=1),
    Message('note_on', channel=7, note=72, velocity=80, time=2),
    Message('note_off', channel=7, note=74, velocity=64, time=3),
    Message('note_on', channel=0, note=50, velocity=89, time=1),
    Message('note_on', channel=0, note=57, velocity=89, time=0),
    Message('note_on', channel=1, note=26, velocity=126, time=0),
    Message('note_off', channel=7, note=68, velocity=64, time=0),
    Message('note_off', channel=8, note=62, velocity=64, time=0),
    Message('note_on', channel=8, note=62, velocity=103, time=0),
    Message('note_on', channel=8, note=69, velocity=111, time=0),
    Message('note_off', channel=8, note=71, velocity=64, time=0),
    Message('note_on', channel=9, note=35, velocity=127, time=0),
    Message('note_on', channel=9, note=51, velocity=126, time=0),
    Message('note_off', channel=9, note=35, velocity=64, time=0),
    Message('note_off', channel=9, note=51, velocity=64, time=0),
    Message('note_on', channel=4, note=67, velocity=125, time=1),
    Message('pitchwheel', channel=4, pitch=-5441, time=2),
    Message('note_off', channel=4, note=65, velocity=64, time=1),
    Message('pitchwheel', channel=4, pitch=-4591, time=3),
    Message('pitchwheel', channel=4, pitch=-3741, time=4),
    Message('note_off', channel=4, note=72, velocity=64, time=0),
    Message('pitchwheel', channel=4, pitch=-2721, time=3),
    Message('note_off', channel=1, note=26, velocity=64, time=1),
    Message('control_change', channel=4, control=1, value=0, time=0),
    Message('pitchwheel', channel=4, pitch=-1616, time=3),
    Message('pitchwheel', channel=4, pitch=-766, time=4),
    Message('note_off', channel=7, note=67, velocity=64, time=1),
    Message('note_on', channel=7, note=65, velocity=80, time=1),
    Message('note_off', channel=0, note=50, velocity=64, time=1),
    Message('note_off', channel=0, note=57, velocity=64, time=0),
    Message('pitchwheel', channel=4, pitch=0, time=0),
    Message('pitchwheel', channel=4, pitch=255, time=6),
    Message('pitchwheel', channel=4, pitch=850, time=4),
    Message('pitchwheel', channel=4, pitch=1360, time=3),
    Message('pitchwheel', channel=4, pitch=1615, time=4),
    Message('note_on', channel=9, note=42, velocity=85, time=2),
    Message('note_off', channel=9, note=42, velocity=64, time=1),
    Message('note_on', channel=0, note=50, velocity=89, time=3),
    Message('note_on', channel=0, note=57, velocity=89, time=0),
    Message('note_on', channel=1, note=26, velocity=126, time=0),
    Message('pitchwheel', channel=4, pitch=1870, time=0),
    Message('note_on', channel=6, note=72, velocity=127, time=0),
    Message('note_on', channel=6, note=77, velocity=118, time=0),
    Message('note_on', channel=7, note=67, velocity=80, time=1),
    Message('pitchwheel', channel=4, pitch=2125, time=2),
    Message('note_on', channel=9, note=42, velocity=126, time=0),
    Message('note_off', channel=7, note=65, velocity=64, time=1),
    Message('note_off', channel=9, note=42, velocity=64, time=0),
    Message('pitchwheel', channel=4, pitch=2465, time=3),
    Message('pitchwheel', channel=4, pitch=2805, time=3),
    Message('note_off', channel=6, note=72, velocity=64, time=0),
    Message('note_off', channel=6, note=77, velocity=64, time=1),
    Message('note_off', channel=7, note=72, velocity=64, time=0),
    Message('pitchwheel', channel=4, pitch=3060, time=5),
    Message('note_off', channel=0, note=50, velocity=64, time=7),
    Message('note_on', channel=9, note=40, velocity=127, time=1),
    Message('note_off', channel=9, note=40, velocity=64, time=0),
    Message('note_off', channel=0, note=57, velocity=64, time=2),
    Message('pitchwheel', channel=4, pitch=2635, time=12),
    Message('note_off', channel=1, note=26, velocity=64, time=4),
    Message('pitchwheel', channel=4, pitch=0, time=0),
    Message('note_on', channel=0, note=50, velocity=89, time=6),
    Message('note_on', channel=0, note=59, velocity=89, time=0),
    Message('note_on', channel=1, note=31, velocity=126, time=0),
    Message('note_off', channel=8, note=62, velocity=64, time=0),
    Message('note_on', channel=8, note=62, velocity=103, time=0),
    Message('note_off', channel=8, note=69, velocity=64, time=0),
    Message('note_on', channel=8, note=71, velocity=107, time=0),
    Message('note_on', channel=9, note=40, velocity=127, time=0),
    Message('note_on', channel=9, note=53, velocity=126, time=0),
    Message('note_off', channel=9, note=40, velocity=64, time=0),
    Message('note_off', channel=9, note=53, velocity=64, time=0),
    Message('note_on', channel=4, note=65, velocity=125, time=8),
    Message('note_off', channel=4, note=67, velocity=64, time=4),
    Message('note_off', channel=0, note=50, velocity=64, time=9),
    Message('pitchwheel', channel=1, pitch=1349, time=0),
    Message('note_on', channel=4, note=62, velocity=125, time=3),
    Message('note_on', channel=9, note=35, velocity=127, time=0),
    Message('note_off', channel=9, note=35, velocity=64, time=0),
    Message('pitchwheel', channel=1, pitch=8191, time=1),
    Message('note_off', channel=4, note=65, velocity=64, time=0),
    Message('note_off', channel=0, note=59, velocity=64, time=4),
    Message('note_off', channel=4, note=62, velocity=64, time=8),
    Message('pitchwheel', channel=1, pitch=7581, time=4),
    Message('pitchwheel', channel=1, pitch=0, time=5),
    Message('note_on', channel=0, note=50, velocity=89, time=2),
    Message('note_on', channel=0, note=57, velocity=89, time=0),
    Message('note_on', channel=1, note=41, velocity=126, time=0),
    Message('note_on', channel=6, note=74, velocity=127, time=0),
    Message('note_on', channel=6, note=77, velocity=118, time=0),
    Message('note_on', channel=9, note=42, velocity=126, time=0),
    Message('note_on', channel=9, note=43, velocity=52, time=0),
    Message('note_off', channel=9, note=42, velocity=64, time=0),
    Message('note_off', channel=9, note=43, velocity=64, time=0),
    Message('note_off', channel=1, note=31, velocity=64, time=1),
    Message('note_on', channel=7, note=65, velocity=80, time=7),
    Message('note_off', channel=6, note=74, velocity=64, time=2),
    Message('note_off', channel=6, note=77, velocity=64, time=2),
    Message('note_off', channel=7, note=67, velocity=64, time=0),
    Message('note_off', channel=0, note=50, velocity=64, time=9),
    Message('note_off', channel=0, note=57, velocity=64, time=2),
    Message('note_on', channel=7, note=62, velocity=80, time=1),
    Message('note_on', channel=9, note=35, velocity=127, time=0),
    Message('note_off', channel=9, note=35, velocity=64, time=0),
    Message('note_off', channel=7, note=65, velocity=64, time=1),
    Message('note_off', channel=7, note=62, velocity=64, time=12),
    Message('note_on', channel=4, note=72, velocity=125, time=8),
    Message('note_on', channel=0, note=50, velocity=89, time=3),
    Message('note_on', channel=0, note=57, velocity=89, time=0),
    Message('pitchwheel', channel=4, pitch=255, time=0),
    Message('note_off', channel=8, note=62, velocity=64, time=0),
    Message('note_on', channel=8, note=62, velocity=111, time=0),
    Message('note_on', channel=8, note=69, velocity=111, time=0),
    Message('note_off', channel=8, note=71, velocity=64, time=0),
    Message('pitchwheel', channel=4, pitch=1785, time=4),
    Message('pitchwheel', channel=4, pitch=3060, time=4),
    Message('pitchwheel', channel=4, pitch=3995, time=5),
    Message('pitchwheel', channel=4, pitch=5015, time=4),
    Message('pitchwheel', channel=4, pitch=6205, time=4),
    Message('note_off', channel=0, note=50, velocity=64, time=2),
    Message('note_on', channel=6, note=72, velocity=127, time=1),
    Message('note_on', channel=6, note=77, velocity=116, time=0),
    Message('note_on', channel=9, note=40, velocity=127, time=0),
    Message('note_off', channel=0, note=57, velocity=64, time=0),
    Message('note_off', channel=9, note=40, velocity=64, time=0),
    Message('pitchwheel', channel=4, pitch=7140, time=1),
    Message('pitchwheel', channel=4, pitch=7820, time=4),
    Message('note_off', channel=6, note=72, velocity=64, time=4),
    Message('pitchwheel', channel=4, pitch=8191, time=0),
    Message('note_off', channel=4, note=72, velocity=64, time=1),
    Message('note_off', channel=6, note=77, velocity=64, time=2),
    Message('note_on', channel=7, note=72, velocity=80, time=9),
    Message('note_on', channel=0, note=50, velocity=89, time=3),
    Message('note_on', channel=0, note=57, velocity=89, time=0),
    Message('note_on', channel=9, note=40, velocity=122, time=0),
    Message('note_on', channel=9, note=42, velocity=126, time=0),
    Message('note_on', channel=9, note=44, velocity=125, time=0),
    Message('note_off', channel=9, note=40, velocity=64, time=0),
    Message('note_off', channel=9, note=42, velocity=64, time=0),
    Message('note_off', channel=9, note=44, velocity=64, time=0),
    Message('note_on', channel=4, note=72, velocity=125, time=2),
    Message('pitchwheel', channel=4, pitch=0, time=8),
    Message('note_off', channel=4, note=72, velocity=64, time=4),
    Message('note_off', channel=0, note=50, velocity=64, time=8),
    Message('note_on', channel=4, note=72, velocity=125, time=2),
    Message('note_on', channel=9, note=35, velocity=127, time=0),
    Message('note_off', channel=9, note=35, velocity=64, time=0),
    Message('note_off', channel=0, note=57, velocity=64, time=3),
    Message('pitchwheel', channel=4, pitch=1275, time=0),
    Message('pitchwheel', channel=4, pitch=3655, time=4),
    Message('note_off', channel=7, note=72, velocity=64, time=3),
    Message('pitchwheel', channel=4, pitch=4930, time=1),
    Message('pitchwheel', channel=4, pitch=5610, time=5),
    Message('pitchwheel', channel=4, pitch=6375, time=4),
    Message('note_on', channel=0, note=50, velocity=89, time=4),
    Message('note_on', channel=0, note=59, velocity=89, time=0),
    Message('note_on', channel=1, note=38, velocity=126, time=0),
    Message('pitchwheel', channel=4, pitch=7310, time=0),
    Message('note_on', channel=6, note=74, velocity=127, time=0),
    Message('note_on', channel=6, note=77, velocity=125, time=0),
    Message('note_off', channel=8, note=62, velocity=64, time=0),
    Message('note_off', channel=8, note=69, velocity=64, time=0),
    Message('note_on', channel=8, note=71, velocity=109, time=0),
    Message('note_on', channel=9, note=40, velocity=127, time=0),
    Message('note_off', channel=9, note=40, velocity=64, time=0),
    Message('note_on', channel=7, note=72, velocity=80, time=2),
    Message('pitchwheel', channel=4, pitch=8191, time=2),
    Message('note_off', channel=1, note=41, velocity=64, time=1),
    Message('note_off', channel=4, note=72, velocity=64, time=1),
    Message('note_off', channel=7, note=72, velocity=64, time=8),
    Message('note_off', channel=0, note=50, velocity=64, time=7),
    Message('note_on', channel=9, note=43, velocity=115, time=2),
    Message('note_on', channel=4, note=72, velocity=125, time=1),
    Message('note_on', channel=7, note=72, velocity=80, time=0),
    Message('note_off', channel=9, note=43, velocity=64, time=0),
    Message('pitchwheel', channel=4, pitch=0, time=9),
    Message('note_off', channel=4, note=72, velocity=64, time=3),
    Message('note_off', channel=0, note=59, velocity=64, time=5),
    Message('note_off', channel=6, note=74, velocity=64, time=6),
    Message('note_on', channel=9, note=45, velocity=88, time=0),
    Message('note_on', channel=0, note=50, velocity=89, time=1),
    Message('note_on', channel=0, note=57, velocity=89, time=0),
    Message('note_on', channel=4, note=72, velocity=125, time=0),
    Message('note_on', channel=6, note=72, velocity=121, time=0),
    Message('note_on', channel=9, note=42, velocity=125, time=0),
    Message('note_off', channel=9, note=45, velocity=64, time=0),
    Message('pitchwheel', channel=4, pitch=-256, time=0),
    Message('note_off', channel=9, note=42, velocity=64, time=0),
    Message('pitchwheel', channel=4, pitch=1785, time=4),
    Message('note_off', channel=7, note=72, velocity=64, time=2),
    Message('pitchwheel', channel=4, pitch=5780, time=2),
    Message('pitchwheel', channel=4, pitch=7395, time=5),
    Message('note_off', channel=0, note=57, velocity=64, time=3),
    Message('pitchwheel', channel=4, pitch=8191, time=1),
    Message('note_off', channel=0, note=50, velocity=64, time=2),
    Message('note_off', channel=1, note=38, velocity=64, time=3),
    Message('note_on', channel=7, note=72, velocity=80, time=2),
    Message('note_on', channel=9, note=35, velocity=127, time=0),
    Message('note_off', channel=9, note=35, velocity=64, time=0),
    Message('note_off', channel=4, note=72, velocity=64, time=10),
    Message('note_off', channel=7, note=72, velocity=64, time=2),
    Message('pitchwheel', channel=4, pitch=0, time=6),
    Message('note_off', channel=6, note=77, velocity=64, time=0),
    Message('note_off', channel=6, note=72, velocity=64, time=0),
    Message('note_on', channel=0, note=45, velocity=89, time=6),
    Message('note_on', channel=0, note=52, velocity=89, time=0),
    Message('note_on', channel=1, note=21, velocity=126, time=0),
    Message('note_on', channel=4, note=76, velocity=118, time=0),
    Message('note_on', channel=4, note=81, velocity=114, time=0),
    Message('pitchwheel', channel=4, pitch=-6631, time=0),
    Message('note_on', channel=7, note=72, velocity=80, time=0),
    Message('note_on', channel=8, note=57, velocity=118, time=0),
    Message('note_on', channel=8, note=64, velocity=118, time=0),
    Message('note_off', channel=8, note=71, velocity=64, time=0),
    Message('note_on', channel=9, note=35, velocity=127, time=0),
    Message('note_on', channel=9, note=49, velocity=126, time=0),
    Message('note_off', channel=9, note=35, velocity=64, time=0),
    Message('note_off', channel=9, note=49, velocity=64, time=0),
    Message('pitchwheel', channel=4, pitch=-5356, time=9),
    Message('pitchwheel', channel=4, pitch=-3401, time=3),
    Message('pitchwheel', channel=4, pitch=-1021, time=5),
    Message('pitchwheel', channel=4, pitch=-596, time=4),
    Message('note_off', channel=0, note=45, velocity=64, time=1),
    Message('note_off', channel=1, note=21, velocity=64, time=2),
    Message('pitchwheel', channel=4, pitch=-341, time=0),
    Message('note_off', channel=0, note=52, velocity=64, time=2),
    Message('pitchwheel', channel=4, pitch=-86, time=2),
    Message('pitchwheel', channel=4, pitch=0, time=5),
    Message('note_off', channel=7, note=72, velocity=64, time=1),
    Message('note_on', channel=4, note=74, velocity=104, time=13),
    Message('note_on', channel=0, note=43, velocity=89, time=1),
    Message('note_on', channel=0, note=45, velocity=89, time=0),
    Message('note_on', channel=0, note=52, velocity=89, time=0),
    Message('note_on', channel=1, note=21, velocity=108, time=0),
    Message('note_on', channel=6, note=74, velocity=100, time=0),
    Message('note_on', channel=6, note=76, velocity=89, time=0),
    Message('note_on', channel=7, note=76, velocity=73, time=0),
    Message('note_on', channel=7, note=81, velocity=69, time=0),
    Message('note_on', channel=8, note=69, velocity=103, time=0),
    Message('note_on', channel=9, note=42, velocity=99, time=0),
    Message('note_on', channel=9, note=51, velocity=113, time=0),
    Message('note_off', channel=9, note=42, velocity=64, time=0),
    Message('note_off', channel=9, note=51, velocity=64, time=0),
    Message('note_off', channel=4, note=76, velocity=64, time=4),
    Message('note_off', channel=6, note=74, velocity=64, time=1),
    Message('note_off', channel=0, note=43, velocity=64, time=5),
    Message('note_off', channel=4, note=81, velocity=64, time=4),
    Message('note_off', channel=0, note=45, velocity=64, time=3),
    Message('note_off', channel=4, note=74, velocity=64, time=4),
    Message('note_on', channel=4, note=72, velocity=107, time=1),
    Message('note_off', channel=0, note=52, velocity=64, time=2),
    Message('note_on', channel=7, note=74, velocity=59, time=23),
    Message('note_off', channel=1, note=21, velocity=64, time=0),
    Message('note_on', channel=0, note=45, velocity=89, time=1),
    Message('note_on', channel=0, note=54, velocity=89, time=0),
    Message('note_on', channel=1, note=26, velocity=110, time=0),
    Message('note_off', channel=8, note=57, velocity=64, time=0),
    Message('note_on', channel=8, note=57, velocity=80, time=0),
    Message('note_off', channel=8, note=64, velocity=64, time=0),
    Message('note_on', channel=8, note=66, velocity=126, time=0),
    Message('note_on', channel=9, note=40, velocity=127, time=0),
    Message('note_on', channel=9, note=51, velocity=126, time=0),
    Message('note_on', channel=9, note=53, velocity=126, time=0),
    Message('note_off', channel=9, note=40, velocity=64, time=0),
    Message('note_off', channel=9, note=51, velocity=64, time=0),
    Message('note_off', channel=9, note=53, velocity=64, time=0),
    Message('note_on', channel=4, note=69, velocity=108, time=2),
    Message('note_off', channel=4, note=72, velocity=64, time=0),
    Message('note_off', channel=7, note=76, velocity=64, time=2),
    Message('note_off', channel=7, note=81, velocity=64, time=10),
    Message('note_off', channel=4, note=69, velocity=64, time=4),
    Message('pitchwheel', channel=1, pitch=2505, time=2),
    Message('note_off', channel=7, note=74, velocity=64, time=1),
    Message('note_on', channel=7, note=72, velocity=62, time=1),
    Message('note_off', channel=0, note=45, velocity=64, time=2),
    Message('pitchwheel', channel=1, pitch=8191, time=1),
    Message('note_off', channel=0, note=54, velocity=64, time=1),
    Message('pitchwheel', channel=1, pitch=7324, time=14),
    Message('pitchwheel', channel=1, pitch=1766, time=4),
    Message('note_on', channel=4, note=76, velocity=107, time=1),
    Message('note_on', channel=4, note=81, velocity=110, time=1),
    Message('pitchwheel', channel=1, pitch=0, time=1),
    Message('note_on', channel=0, note=45, velocity=89, time=1),
    Message('note_on', channel=0, note=52, velocity=89, time=0),
    Message('note_on', channel=1, note=33, velocity=117, time=0),
    Message('note_on', channel=9, note=42, velocity=93, time=0),
    Message('note_on', channel=9, note=51, velocity=126, time=0),
    Message('note_off', channel=9, note=42, velocity=64, time=0),
    Message('note_off', channel=9, note=51, velocity=64, time=0),
    Message('note_off', channel=1, note=26, velocity=64, time=1),
    Message('pitchwheel', channel=4, pitch=-7141, time=0),
    Message('note_on', channel=7, note=69, velocity=63, time=1),
    Message('note_off', channel=7, note=72, velocity=64, time=0),
    Message('pitchwheel', channel=4, pitch=-7396, time=3),
    Message('pitchwheel', channel=4, pitch=-6716, time=5),
    Message('pitchwheel', channel=4, pitch=-5016, time=3),
    Message('pitchwheel', channel=4, pitch=-2381, time=5),
    Message('note_off', channel=7, note=69, velocity=64, time=0),
    Message('note_off', channel=0, note=45, velocity=64, time=2),
    Message('pitchwheel', channel=4, pitch=-1276, time=2),
    Message('note_off', channel=0, note=52, velocity=64, time=3),
    Message('pitchwheel', channel=4, pitch=-766, time=2),
    Message('pitchwheel', channel=4, pitch=0, time=5),
    Message('note_on', channel=7, note=76, velocity=62, time=13),
    Message('note_on', channel=7, note=81, velocity=65, time=1),
    Message('note_on', channel=4, note=74, velocity=108, time=1),
    Message('note_on', channel=0, note=45, velocity=89, time=1),
    Message('note_on', channel=0, note=52, velocity=89, time=0),
    Message('note_off', channel=8, note=57, velocity=64, time=0),
    Message('note_on', channel=8, note=57, velocity=109, time=0),
    Message('note_on', channel=8, note=64, velocity=111, time=0),
    Message('note_off', channel=8, note=66, velocity=64, time=0),
    Message('note_on', channel=9, note=35, velocity=127, time=0),
    Message('note_on', channel=9, note=51, velocity=126, time=0),
    Message('note_off', channel=9, note=35, velocity=64, time=0),
    Message('note_off', channel=9, note=51, velocity=64, time=0),
    Message('note_off', channel=4, note=76, velocity=64, time=3),
    Message('note_off', channel=4, note=81, velocity=64, time=2),
    Message('note_off', channel=0, note=45, velocity=64, time=16),
    Message('note_off', channel=4, note=74, velocity=64, time=0),
    Message('note_on', channel=4, note=72, velocity=103, time=1),
    Message('note_off', channel=0, note=52, velocity=64, time=2),
    Message('note_on', channel=7, note=74, velocity=63, time=23),
    Message('note_on', channel=0, note=45, velocity=89, time=1),
    Message('note_on', channel=0, note=52, velocity=89, time=0),
    Message('note_on', channel=4, note=69, velocity=113, time=0),
    Message('note_on', channel=9, note=35, velocity=127, time=0),
    Message('note_on', channel=9, note=42, velocity=113, time=0),
    Message('note_on', channel=9, note=51, velocity=126, time=0),
    Message('note_off', channel=9, note=35, velocity=64, time=0),
    Message('note_off', channel=9, note=42, velocity=64, time=0),
    Message('note_off', channel=9, note=51, velocity=64, time=0),
    Message('note_off', channel=4, note=72, velocity=64, time=2),
    Message('note_off', channel=7, note=76, velocity=64, time=1),
    Message('note_off', channel=7, note=81, velocity=64, time=2),
    Message('note_off', channel=7, note=74, velocity=64, time=16),
    Message('note_on', channel=7, note=72, velocity=58, time=1),
    Message('note_off', channel=0, note=45, velocity=64, time=3),
    Message('note_off', channel=0, note=52, velocity=64, time=0),
    Message('note_off', channel=4, note=69, velocity=64, time=19),
    Message('note_on', channel=0, note=45, velocity=89, time=4),
    Message('note_on', channel=0, note=54, velocity=89, time=0),
    Message('note_on', channel=1, note=28, velocity=106, time=0),
    Message('note_on', channel=7, note=69, velocity=68, time=0),
    Message('note_off', channel=8, note=57, velocity=64, time=0),
    Message('note_on', channel=8, note=57, velocity=111, time=0),
    Message('note_off', channel=8, note=64, velocity=64, time=0),
    Message('note_on', channel=8, note=66, velocity=120, time=0),
    Message('note_on', channel=9, note=40, velocity=127, time=0),
    Message('note_on', channel=9, note=51, velocity=126, time=0),
    Message('note_on', channel=9, note=53, velocity=126, time=0),
    Message('note_off', channel=9, note=40, velocity=64, time=0),
    Message('note_off', channel=9, note=51, velocity=64, time=0),
    Message('note_off', channel=9, note=53, velocity=64, time=0),
    Message('note_on', channel=4, note=76, velocity=111, time=1),
    Message('note_off', channel=1, note=33, velocity=64, time=1),
    Message('note_on', channel=4, note=81, velocity=110, time=0),
    Message('note_off', channel=7, note=72, velocity=64, time=0),
    Message('pitchwheel', channel=4, pitch=-8192, time=6),
    Message('pitchwheel', channel=4, pitch=-7736, time=6),
    Message('pitchwheel', channel=4, pitch=-7226, time=4),
    Message('note_off', channel=0, note=45, velocity=64, time=3),
    Message('pitchwheel', channel=4, pitch=-6291, time=2),
    Message('note_off', channel=0, note=54, velocity=64, time=3),
    Message('pitchwheel', channel=4, pitch=-5271, time=0),
    Message('pitchwheel', channel=4, pitch=-3146, time=5),
    Message('pitchwheel', channel=4, pitch=-1956, time=5),
    Message('pitchwheel', channel=4, pitch=0, time=4),
    Message('note_off', channel=7, note=69, velocity=64, time=4),
    Message('note_on', channel=4, note=74, velocity=103, time=3),
    Message('note_on', channel=0, note=45, velocity=89, time=1),
    Message('note_on', channel=0, note=52, velocity=89, time=0),
    Message('note_on', channel=9, note=42, velocity=89, time=0),
    Message('note_on', channel=9, note=51, velocity=126, time=0),
    Message('note_off', channel=9, note=42, velocity=64, time=0),
    Message('note_off', channel=9, note=51, velocity=64, time=0),
    Message('note_on', channel=7, note=76, velocity=66, time=1),
    Message('note_on', channel=7, note=81, velocity=65, time=1),
    Message('note_off', channel=4, note=81, velocity=64, time=1),
    Message('note_off', channel=4, note=76, velocity=64, time=0),
    Message('note_off', channel=4, note=74, velocity=64, time=18),
    Message('note_off', channel=0, note=45, velocity=64, time=0),
    Message('note_on', channel=4, note=72, velocity=105, time=0),
    Message('note_off', channel=0, note=52, velocity=64, time=1),
    Message('note_off', channel=1, note=28, velocity=64, time=19),
    Message('note_on', channel=7, note=74, velocity=58, time=6),
    Message('note_on', channel=0, note=45, velocity=89, time=1),
    Message('note_on', channel=0, note=52, velocity=89, time=0),
    Message('note_on', channel=1, note=21, velocity=98, time=0),
    Message('note_off', channel=8, note=57, velocity=64, time=0),
    Message('note_on', channel=8, note=57, velocity=111, time=0),
    Message('note_on', channel=8, note=64, velocity=116, time=0),
    Message('note_off', channel=8, note=66, velocity=64, time=0),
    Message('note_on', channel=9, note=35, velocity=127, time=0),
    Message('note_on', channel=9, note=51, velocity=126, time=0),
    Message('note_off', channel=9, note=35, velocity=64, time=0),
    Message('note_off', channel=9, note=51, velocity=64, time=0),
    Message('note_on', channel=4, note=69, velocity=115, time=1),
    Message('note_off', channel=4, note=72, velocity=64, time=1),
    Message('note_off', channel=7, note=81, velocity=64, time=1),
    Message('note_off', channel=7, note=76, velocity=64, time=0),
    Message('note_off', channel=1, note=21, velocity=64, time=16),
    Message('note_off', channel=0, note=45, velocity=64, time=2),
    Message('note_off', channel=7, note=74, velocity=64, time=0),
    Message('note_on', channel=7, note=72, velocity=60, time=0),
    Message('note_off', channel=0, note=52, velocity=64, time=4),
    Message('note_off', channel=4, note=69, velocity=64, time=14),
    Message('note_on', channel=4, note=76, velocity=110, time=5),
    Message('pitchwheel', channel=4, pitch=-8192, time=1),
    Message('note_on', channel=4, note=81, velocity=109, time=0),
    Message('note_on', channel=0, note=45, velocity=89, time=3),
    Message('note_on', channel=0, note=52, velocity=89, time=0),
    Message('note_on', channel=1, note=21, velocity=95, time=0),
    Message('note_on', channel=9, note=42, velocity=87, time=0),
    Message('note_on', channel=9, note=51, velocity=126, time=0),
    Message('note_off', channel=9, note=42, velocity=64, time=0),
    Message('note_off', channel=9, note=51, velocity=64, time=0),
    Message('note_on', channel=7, note=69, velocity=70, time=1),
    Message('note_off', channel=7, note=72, velocity=64, time=1),
    Message('pitchwheel', channel=4, pitch=-7906, time=1),
    Message('pitchwheel', channel=4, pitch=-6971, time=4),
    Message('pitchwheel', channel=4, pitch=-5186, time=3),
    Message('pitchwheel', channel=4, pitch=-2551, time=5),
    Message('pitchwheel', channel=4, pitch=-1786, time=4),
    Message('note_off', channel=0, note=45, velocity=64, time=3),
    Message('pitchwheel', channel=4, pitch=-1531, time=0),
    Message('note_off', channel=0, note=52, velocity=64, time=2),
    Message('pitchwheel', channel=4, pitch=0, time=7),
    Message('note_off', channel=7, note=69, velocity=64, time=8),
    Message('note_on', channel=7, note=76, velocity=65, time=5),
    Message('note_on', channel=4, note=74, velocity=107, time=1),
    Message('note_on', channel=7, note=81, velocity=64, time=0),
    Message('note_on', channel=0, note=45, velocity=89, time=3),
    Message('note_on', channel=0, note=54, velocity=89, time=0),
    Message('note_on', channel=1, note=26, velocity=112, time=0),
    Message('note_off', channel=4, note=76, velocity=64, time=0),
    Message('note_off', channel=4, note=81, velocity=64, time=0),
    Message('note_off', channel=8, note=57, velocity=64, time=0),
    Message('note_on', channel=8, note=57, velocity=103, time=0),
    Message('note_off', channel=8, note=64, velocity=64, time=0),
    Message('note_on', channel=8, note=66, velocity=120, time=0),
    Message('note_on', channel=9, note=40, velocity=127, time=0),
    Message('note_on', channel=9, note=51, velocity=126, time=0),
    Message('note_on', channel=9, note=53, velocity=126, time=0),
    Message('note_off', channel=9, note=40, velocity=64, time=0),
    Message('note_off', channel=9, note=51, velocity=64, time=0),
    Message('note_off', channel=9, note=53, velocity=64, time=0),
    Message('note_off', channel=1, note=21, velocity=64, time=3),
    Message('note_off', channel=4, note=74, velocity=64, time=17),
    Message('note_on', channel=4, note=72, velocity=107, time=0),
    Message('note_off', channel=0, note=45, velocity=64, time=3),
    Message('pitchwheel', channel=1, pitch=1799, time=0),
    Message('pitchwheel', channel=1, pitch=8191, time=4),
    Message('note_off', channel=0, note=54, velocity=64, time=1),
    Message('pitchwheel', channel=1, pitch=5943, time=14),
    Message('note_on', channel=4, note=69, velocity=110, time=2),
    Message('note_on', channel=7, note=74, velocity=62, time=1),
    Message('pitchwheel', channel=1, pitch=0, time=1),
    Message('note_off', channel=4, note=72, velocity=64, time=1),
    Message('note_on', channel=0, note=45, velocity=89, time=1),
    Message('note_on', channel=0, note=52, velocity=89, time=0),
    Message('note_on', channel=1, note=33, velocity=112, time=0),
    Message('note_off', channel=7, note=76, velocity=64, time=0),
    Message('note_off', channel=7, note=81, velocity=64, time=0),
    Message('note_on', channel=9, note=42, velocity=73, time=0),
    Message('note_on', channel=9, note=51, velocity=126, time=0),
    Message('note_off', channel=9, note=42, velocity=64, time=0),
    Message('note_off', channel=9, note=51, velocity=64, time=0),
    Message('note_off', channel=1, note=26, velocity=64, time=7),
    Message('note_off', channel=0, note=45, velocity=64, time=12),
    Message('note_off', channel=7, note=74, velocity=64, time=1),
    Message('note_on', channel=7, note=72, velocity=62, time=0),
    Message('note_off', channel=0, note=52, velocity=64, time=4),
    Message('note_off', channel=4, note=69, velocity=64, time=20),
    Message('note_on', channel=7, note=69, velocity=65, time=0),
    Message('note_off', channel=7, note=72, velocity=64, time=3),
    Message('note_on', channel=0, note=45, velocity=89, time=1),
    Message('note_on', channel=0, note=52, velocity=89, time=0),
    Message('note_off', channel=8, note=57, velocity=64, time=0),
    Message('note_on', channel=8, note=57, velocity=111, time=0),
    Message('note_on', channel=8, note=64, velocity=116, time=0),
    Message('note_off', channel=8, note=66, velocity=64, time=0),
    Message('note_on', channel=9, note=35, velocity=127, time=0),
    Message('note_on', channel=9, note=51, velocity=126, time=0),
    Message('note_on', channel=4, note=76, velocity=108, time=0),
    Message('note_off', channel=9, note=35, velocity=64, time=0),
    Message('note_off', channel=9, note=51, velocity=64, time=0),
    Message('note_on', channel=4, note=81, velocity=104, time=2),
    Message('note_off', channel=6, note=76, velocity=64, time=11),
    Message('note_off', channel=0, note=45, velocity=64, time=8),
    Message('note_off', channel=0, note=52, velocity=64, time=3),
    Message('note_off', channel=4, note=81, velocity=64, time=12),
    Message('note_off', channel=7, note=69, velocity=64, time=8),
    Message('note_off', channel=4, note=76, velocity=64, time=0),
    Message('note_on', channel=0, note=45, velocity=89, time=4),
    Message('note_on', channel=0, note=52, velocity=89, time=0),
    Message('note_on', channel=6, note=75, velocity=127, time=0),
    Message('note_on', channel=6, note=76, velocity=126, time=0),
    Message('note_on', channel=6, note=78, velocity=84, time=0),
    Message('note_on', channel=6, note=79, velocity=125, time=0),
    Message('note_on', channel=9, note=35, velocity=127, time=0),
    Message('note_on', channel=9, note=42, velocity=93, time=0),
    Message('note_on', channel=9, note=51, velocity=126, time=0),
    Message('note_on', channel=7, note=76, velocity=63, time=0),
    Message('note_off', channel=9, note=35, velocity=64, time=0),
    Message('note_off', channel=9, note=42, velocity=64, time=0),
    Message('note_off', channel=9, note=51, velocity=64, time=0),
    Message('note_on', channel=7, note=81, velocity=59, time=2),
    Message('note_off', channel=6, note=78, velocity=64, time=1),
    Message('note_on', channel=4, note=69, velocity=101, time=2),
    Message('note_off', channel=6, note=75, velocity=64, time=0),
    Message('note_off', channel=4, note=69, velocity=64, time=10),
    Message('note_off', channel=0, note=45, velocity=64, time=2),
    Message('note_off', channel=6, note=76, velocity=64, time=6),
    Message('note_off', channel=0, note=52, velocity=64, time=2),
    Message('note_off', channel=8, note=69, velocity=64, time=1),
    Message('note_on', channel=4, note=74, velocity=113, time=3),
    Message('note_on', channel=4, note=81, velocity=118, time=3),
    Message('note_off', channel=6, note=79, velocity=64, time=2),
    Message('note_off', channel=7, note=81, velocity=64, time=2),
    Message('note_off', channel=7, note=76, velocity=64, time=8),
    Message('note_on', channel=0, note=45, velocity=89, time=4),
    Message('note_on', channel=0, note=54, velocity=89, time=0),
    Message('note_on', channel=1, note=28, velocity=112, time=0),
    Message('note_on', channel=6, note=74, velocity=126, time=0),
    Message('note_on', channel=6, note=78, velocity=127, time=0),
    Message('note_off', channel=8, note=57, velocity=64, time=0),
    Message('note_on', channel=8, note=57, velocity=103, time=0),
    Message('note_off', channel=8, note=64, velocity=64, time=0),
    Message('note_on', channel=8, note=66, velocity=114, time=0),
    Message('note_on', channel=9, note=40, velocity=127, time=0),
    Message('note_on', channel=9, note=51, velocity=126, time=0),
    Message('note_on', channel=9, note=53, velocity=126, time=0),
    Message('note_off', channel=1, note=33, velocity=64, time=0),
    Message('note_off', channel=9, note=40, velocity=64, time=0),
    Message('note_off', channel=9, note=51, velocity=64, time=0),
    Message('note_off', channel=9, note=53, velocity=64, time=0),
    Message('note_on', channel=7, note=69, velocity=56, time=5),
    Message('note_off', channel=4, note=74, velocity=64, time=9),
    Message('note_off', channel=6, note=74, velocity=64, time=0),
    Message('note_off', channel=7, note=69, velocity=64, time=1),
    Message('note_off', channel=4, note=81, velocity=64, time=0),
    Message('note_off', channel=0, note=45, velocity=64, time=3),
    Message('note_on', channel=4, note=69, velocity=93, time=5),
    Message('note_on', channel=6, note=74, velocity=109, time=1),
    Message('note_off', channel=0, note=54, velocity=64, time=2),
    Message('note_off', channel=6, note=78, velocity=64, time=3),
    Message('note_on', channel=7, note=74, velocity=68, time=0),
    Message('note_off', channel=4, note=69, velocity=64, time=0),
    Message('note_on', channel=7, note=81, velocity=73, time=3),
    Message('note_off', channel=6, note=74, velocity=64, time=10),
    Message('note_on', channel=0, note=45, velocity=89, time=6),
    Message('note_on', channel=0, note=52, velocity=89, time=0),
    Message('note_on', channel=4, note=76, velocity=107, time=0),
    Message('note_on', channel=6, note=72, velocity=103, time=0),
    Message('note_on', channel=9, note=42, velocity=85, time=0),
    Message('note_on', channel=9, note=51, velocity=126, time=0),
    Message('note_on', channel=4, note=81, velocity=106, time=0),
    Message('note_off', channel=9, note=42, velocity=64, time=0),
    Message('note_off', channel=9, note=51, velocity=64, time=0),
    Message('note_off', channel=1, note=28, velocity=64, time=6),
    Message('note_off', channel=7, note=74, velocity=64, time=8),
    Message('note_off', channel=7, note=81, velocity=64, time=1),
    Message('note_off', channel=0, note=45, velocity=64, time=3),
    Message('note_off', channel=6, note=72, velocity=64, time=2),
    Message('note_off', channel=0, note=52, velocity=64, time=3),
    Message('note_on', channel=7, note=69, velocity=48, time=0),
    Message('note_off', channel=4, note=81, velocity=64, time=1),
    Message('note_on', channel=6, note=73, velocity=123, time=0),
    Message('note_off', channel=4, note=76, velocity=64, time=2),
    Message('note_off', channel=7, note=69, velocity=64, time=3),
    Message('note_off', channel=6, note=73, velocity=64, time=13),
    Message('note_on', channel=0, note=45, velocity=89, time=6),
    Message('note_on', channel=0, note=52, velocity=89, time=0),
    Message('note_on', channel=1, note=21, velocity=126, time=0),
    Message('note_on', channel=7, note=76, velocity=62, time=0),
    Message('note_off', channel=8, note=57, velocity=64, time=0),
    Message('note_on', channel=8, note=57, velocity=111, time=0),
    Message('note_on', channel=8, note=64, velocity=118, time=0),
    Message('note_off', channel=8, note=66, velocity=64, time=0),
    Message('note_on', channel=9, note=35, velocity=127, time=0),
    Message('note_on', channel=9, note=49, velocity=126, time=0),
    Message('note_on', channel=4, note=76, velocity=122, time=0),
    Message('note_on', channel=4, note=81, velocity=116, time=0),
    Message('note_on', channel=7, note=81, velocity=61, time=0),
    Message('note_off', channel=9, note=35, velocity=64, time=0),
    Message('note_off', channel=9, note=49, velocity=64, time=0),
    Message('pitchwheel', channel=4, pitch=-8192, time=3),
    Message('pitchwheel', channel=4, pitch=-7991, time=7),
    Message('pitchwheel', channel=4, pitch=-6801, time=4),
    Message('pitchwheel', channel=4, pitch=-4591, time=5),
    Message('note_off', channel=0, note=45, velocity=64, time=2),
    Message('pitchwheel', channel=4, pitch=-3486, time=1),
    Message('note_off', channel=1, note=21, velocity=64, time=2),
    Message('note_off', channel=7, note=81, velocity=64, time=0),
    Message('note_off', channel=0, note=52, velocity=64, time=0),
    Message('pitchwheel', channel=4, pitch=-2976, time=2),
    Message('note_off', channel=7, note=76, velocity=64, time=0),
    Message('pitchwheel', channel=4, pitch=-2381, time=5),
    Message('pitchwheel', channel=4, pitch=0, time=3),
    Message('note_on', channel=4, note=74, velocity=104, time=8),
    Message('note_off', channel=4, note=76, velocity=64, time=5),
    Message('note_on', channel=0, note=45, velocity=89, time=1),
    Message('note_on', channel=0, note=52, velocity=89, time=0),
    Message('note_on', channel=1, note=21, velocity=108, time=0),
    Message('note_on', channel=9, note=42, velocity=99, time=0),
    Message('note_on', channel=9, note=51, velocity=113, time=0),
    Message('note_on', channel=7, note=76, velocity=77, time=0),
    Message('note_on', channel=7, note=81, velocity=71, time=0),
    Message('note_off', channel=9, note=42, velocity=64, time=0),
    Message('note_off', channel=9, note=51, velocity=64, time=0),
    Message('note_off', channel=4, note=81, velocity=64, time=10),
    Message('note_off', channel=4, note=74, velocity=64, time=9),
    Message('note_on', channel=4, note=72, velocity=98, time=2),
    Message('note_off', channel=0, note=45, velocity=64, time=4),
    Message('note_off', channel=0, note=52, velocity=64, time=4),
    Message('note_on', channel=7, note=74, velocity=59, time=13),
    Message('note_on', channel=4, note=69, velocity=112, time=5),
    Message('note_off', channel=7, note=76, velocity=64, time=0),
    Message('note_off', channel=1, note=21, velocity=64, time=0),
    Message('note_on', channel=0, note=45, velocity=89, time=1),
    Message('note_on', channel=0, note=54, velocity=89, time=0),
    Message('note_on', channel=1, note=26, velocity=110, time=0),
    Message('note_off', channel=4, note=72, velocity=64, time=0),
    Message('note_on', channel=6, note=76, velocity=127, time=0),
    Message('note_off', channel=8, note=57, velocity=64, time=0),
    Message('note_on', channel=8, note=57, velocity=127, time=0),
    Message('note_off', channel=8, note=64, velocity=64, time=0),
    Message('note_on', channel=8, note=66, velocity=127, time=0),
    Message('note_on', channel=8, note=69, velocity=127, time=0),
    Message('note_on', channel=9, note=40, velocity=127, time=0),
    Message('note_on', channel=9, note=51, velocity=126, time=0),
    Message('note_on', channel=9, note=53, velocity=126, time=0),
    Message('note_off', channel=9, note=40, velocity=64, time=0),
    Message('note_off', channel=9, note=51, velocity=64, time=0),
    Message('note_off', channel=9, note=53, velocity=64, time=0),
    Message('note_off', channel=7, note=81, velocity=64, time=10),
    Message('note_off', channel=7, note=74, velocity=64, time=9),
    Message('pitchwheel', channel=1, pitch=2505, time=1),
    Message('note_on', channel=7, note=72, velocity=53, time=1),
    Message('note_off', channel=0, note=45, velocity=64, time=3),
    Message('pitchwheel', channel=1, pitch=8191, time=1),
    Message('note_off', channel=0, note=54, velocity=64, time=4),
    Message('pitchwheel', channel=1, pitch=7324, time=11),
    Message('note_off', channel=4, note=69, velocity=64, time=2),
    Message('pitchwheel', channel=1, pitch=1766, time=2),
    Message('note_on', channel=7, note=69, velocity=67, time=3),
    Message('pitchwheel', channel=1, pitch=0, time=0),
    Message('note_on', channel=0, note=45, velocity=89, time=1),
    Message('note_on', channel=0, note=52, velocity=89, time=0),
    Message('note_on', channel=1, note=33, velocity=117, time=0),
    Message('note_on', channel=4, note=76, velocity=107, time=0),
    Message('note_off', channel=7, note=72, velocity=64, time=0),
    Message('note_on', channel=9, note=42, velocity=93, time=0),
    Message('note_on', channel=9, note=51, velocity=126, time=0),
    Message('note_off', channel=9, note=42, velocity=64, time=0),
    Message('note_off', channel=9, note=51, velocity=64, time=0),
    Message('note_on', channel=4, note=81, velocity=110, time=1),
    Message('note_off', channel=1, note=26, velocity=64, time=0),
    Message('pitchwheel', channel=4, pitch=-8192, time=7),
    Message('pitchwheel', channel=4, pitch=-6546, time=8),
    Message('pitchwheel', channel=4, pitch=-4931, time=4),
    Message('note_off', channel=0, note=45, velocity=64, time=3),
    Message('note_off', channel=0, note=52, velocity=64, time=0),
    Message('pitchwheel', channel=4, pitch=-3061, time=0),
    Message('pitchwheel', channel=4, pitch=-2041, time=4),
    Message('pitchwheel', channel=4, pitch=0, time=5),
    Message('note_off', channel=7, note=69, velocity=64, time=10),
    Message('note_on', channel=0, note=45, velocity=89, time=6),
    Message('note_on', channel=0, note=52, velocity=89, time=0),
    Message('note_on', channel=7, note=76, velocity=62, time=0),
    Message('note_off', channel=8, note=57, velocity=64, time=0),
    Message('note_on', channel=8, note=57, velocity=125, time=0),
    Message('note_on', channel=8, note=64, velocity=125, time=0),
    Message('note_off', channel=8, note=66, velocity=64, time=0),
    Message('note_on', channel=9, note=35, velocity=127, time=0),
    Message('note_on', channel=9, note=51, velocity=126, time=0),
    Message('note_off', channel=9, note=35, velocity=64, time=0),
    Message('note_off', channel=9, note=51, velocity=64, time=0),
    Message('note_on', channel=7, note=81, velocity=65, time=1),
    Message('note_on', channel=4, note=74, velocity=106, time=0),
    Message('note_off', channel=4, note=76, velocity=64, time=5),
    Message('note_off', channel=4, note=81, velocity=64, time=0),
    Message('note_off', channel=4, note=74, velocity=64, time=17),
    Message('note_on', channel=4, note=72, velocity=102, time=0),
    Message('note_off', channel=0, note=45, velocity=64, time=1),
    Message('note_off', channel=0, note=52, velocity=64, time=0),
    Message('note_on', channel=0, note=45, velocity=89, time=24),
    Message('note_on', channel=0, note=52, velocity=89, time=0),
    Message('note_on', channel=9, note=35, velocity=127, time=0),
    Message('note_on', channel=9, note=42, velocity=113, time=0),
    Message('note_on', channel=9, note=51, velocity=126, time=0),
    Message('note_off', channel=9, note=35, velocity=64, time=0),
    Message('note_off', channel=9, note=42, velocity=64, time=0),
    Message('note_off', channel=9, note=51, velocity=64, time=0),
    Message('note_on', channel=4, note=69, velocity=110, time=1),
    Message('note_on', channel=7, note=74, velocity=61, time=0),
    Message('note_off', channel=4, note=72, velocity=64, time=3),
    Message('note_off', channel=7, note=76, velocity=64, time=2),
    Message('note_off', channel=7, note=81, velocity=64, time=0),
    Message('note_off', channel=7, note=74, velocity=64, time=17),
    Message('note_on', channel=7, note=72, velocity=57, time=0),
    Message('note_off', channel=0, note=45, velocity=64, time=1),
    Message('note_off', channel=0, note=52, velocity=64, time=7),
    Message('note_off', channel=4, note=69, velocity=64, time=9),
    Message('note_on', channel=4, note=76, velocity=107, time=7),
    Message('note_on', channel=0, note=45, velocity=89, time=1),
    Message('note_on', channel=0, note=54, velocity=89, time=0),
    Message('note_on', channel=1, note=28, velocity=106, time=0),
    Message('note_on', channel=4, note=81, velocity=109, time=0),
    Message('note_off', channel=8, note=57, velocity=64, time=0),
    Message('note_on', channel=8, note=57, velocity=126, time=0),
    Message('note_off', channel=8, note=64, velocity=64, time=0),
    Message('note_on', channel=8, note=66, velocity=126, time=0),
    Message('note_on', channel=9, note=40, velocity=127, time=0),
    Message('note_on', channel=9, note=51, velocity=126, time=0),
    Message('note_on', channel=9, note=53, velocity=126, time=0),
    Message('pitchwheel', channel=4, pitch=-8192, time=0),
    Message('note_off', channel=9, note=40, velocity=64, time=0),
    Message('note_off', channel=9, note=51, velocity=64, time=0),
    Message('note_off', channel=9, note=53, velocity=64, time=0),
    Message('note_on', channel=7, note=69, velocity=65, time=1),
    Message('note_off', channel=1, note=33, velocity=64, time=1),
    Message('pitchwheel', channel=4, pitch=-7991, time=2),
    Message('note_off', channel=7, note=72, velocity=64, time=0),
    Message('pitchwheel', channel=4, pitch=-6886, time=3),
    Message('pitchwheel', channel=4, pitch=-5696, time=5),
    Message('pitchwheel', channel=4, pitch=-5101, time=5),
    Message('pitchwheel', channel=4, pitch=-4081, time=4),
    Message('pitchwheel', channel=4, pitch=-2551, time=3),
    Message('note_off', channel=0, note=45, velocity=64, time=3),
    Message('note_off', channel=0, note=54, velocity=64, time=1),
    Message('pitchwheel', channel=4, pitch=-1446, time=0),
    Message('pitchwheel', channel=4, pitch=-1021, time=3),
    Message('pitchwheel', channel=4, pitch=0, time=5),
    Message('note_off', channel=7, note=69, velocity=64, time=4),
    Message('note_off', channel=4, note=81, velocity=64, time=7),
    Message('note_on', channel=7, note=76, velocity=62, time=0),
    Message('note_on', channel=4, note=74, velocity=101, time=0),
    Message('note_on', channel=0, note=45, velocity=89, time=1),
    Message('note_on', channel=0, note=52, velocity=89, time=0),
    Message('note_on', channel=7, note=81, velocity=64, time=0),
    Message('note_on', channel=9, note=42, velocity=89, time=0),
    Message('note_on', channel=9, note=51, velocity=126, time=0),
    Message('note_off', channel=9, note=42, velocity=64, time=0),
    Message('note_off', channel=9, note=51, velocity=64, time=0),
    Message('note_off', channel=4, note=76, velocity=64, time=2),
    Message('note_off', channel=4, note=74, velocity=64, time=17),
    Message('note_on', channel=4, note=72, velocity=106, time=2),
    Message('note_off', channel=0, note=45, velocity=64, time=3),
    Message('note_off', channel=0, note=52, velocity=64, time=2),
    Message('note_off', channel=1, note=28, velocity=64, time=15),
    Message('note_off', channel=4, note=72, velocity=64, time=0),
    Message('note_on', channel=4, note=69, velocity=106, time=2),
    Message('note_on', channel=4, note=76, velocity=111, time=2),
    Message('note_off', channel=7, note=81, velocity=64, time=2),
    Message('note_on', channel=7, note=74, velocity=56, time=0),
    Message('note_on', channel=0, note=45, velocity=89, time=1),
    Message('note_on', channel=0, note=52, velocity=89, time=0),
    Message('note_on', channel=1, note=21, velocity=98, time=0),
    Message('note_on', channel=6, note=74, velocity=127, time=0),
    Message('note_on', channel=6, note=79, velocity=127, time=0),
    Message('note_off', channel=8, note=57, velocity=64, time=0),
    Message('note_on', channel=8, note=57, velocity=127, time=0),
    Message('note_on', channel=8, note=64, velocity=127, time=0),
    Message('note_off', channel=8, note=66, velocity=64, time=0),
    Message('note_on', channel=9, note=35, velocity=127, time=0),
    Message('note_on', channel=9, note=51, velocity=126, time=0),
    Message('note_off', channel=9, note=35, velocity=64, time=0),
    Message('note_off', channel=9, note=51, velocity=64, time=0),
    Message('note_off', channel=7, note=76, velocity=64, time=2),
    Message('note_off', channel=6, note=76, velocity=64, time=2),
    Message('note_off', channel=1, note=21, velocity=64, time=15),
    Message('note_off', channel=7, note=74, velocity=64, time=0),
    Message('pitchwheel', channel=4, pitch=-7311, time=1),
    Message('note_on', channel=7, note=72, velocity=61, time=1),
    Message('pitchwheel', channel=4, pitch=-6206, time=3),
    Message('note_off', channel=0, note=45, velocity=64, time=0),
    Message('note_off', channel=0, note=52, velocity=64, time=2),
    Message('pitchwheel', channel=4, pitch=-4336, time=1),
    Message('pitchwheel', channel=4, pitch=-2721, time=4),
    Message('pitchwheel', channel=4, pitch=-1446, time=3),
    Message('note_off', channel=7, note=72, velocity=64, time=7),
    Message('pitchwheel', channel=4, pitch=0, time=2),
    Message('note_on', channel=7, note=69, velocity=61, time=0),
    Message('note_on', channel=7, note=76, velocity=66, time=2),
    Message('note_on', channel=0, note=45, velocity=89, time=3),
    Message('note_on', channel=0, note=52, velocity=89, time=0),
    Message('note_on', channel=1, note=21, velocity=95, time=0),
    Message('note_on', channel=9, note=42, velocity=87, time=0),
    Message('note_on', channel=9, note=51, velocity=126, time=0),
    Message('note_off', channel=9, note=42, velocity=64, time=0),
    Message('note_off', channel=9, note=51, velocity=64, time=0),
    Message('note_off', channel=4, note=76, velocity=64, time=8),
    Message('note_off', channel=0, note=45, velocity=64, time=11),
    Message('note_on', channel=4, note=74, velocity=125, time=5),
    Message('note_on', channel=4, note=79, velocity=125, time=0),
    Message('note_off', channel=0, note=52, velocity=64, time=4),
    Message('note_off', channel=4, note=69, velocity=64, time=3),
    Message('pitchwheel', channel=4, pitch=-8161, time=15),
    Message('note_on', channel=0, note=45, velocity=89, time=2),
    Message('note_on', channel=0, note=54, velocity=89, time=0),
    Message('note_on', channel=1, note=26, velocity=112, time=0),
    Message('note_off', channel=8, note=57, velocity=64, time=0),
    Message('note_on', channel=8, note=57, velocity=127, time=0),
    Message('note_off', channel=8, note=64, velocity=64, time=0),
    Message('note_on', channel=8, note=66, velocity=127, time=0),
    Message('note_on', channel=9, note=40, velocity=127, time=0),
    Message('note_on', channel=9, note=51, velocity=126, time=0),
    Message('note_on', channel=9, note=53, velocity=126, time=0),
    Message('note_off', channel=9, note=40, velocity=64, time=0),
    Message('note_off', channel=9, note=51, velocity=64, time=0),
    Message('note_off', channel=9, note=53, velocity=64, time=0),
    Message('note_off', channel=1, note=21, velocity=64, time=3),
    Message('pitchwheel', channel=4, pitch=-4336, time=0),
    Message('pitchwheel', channel=4, pitch=-1786, time=3),
    Message('note_off', channel=7, note=76, velocity=64, time=2),
    Message('pitchwheel', channel=4, pitch=0, time=2),
    Message('note_off', channel=0, note=45, velocity=64, time=8),
    Message('pitchwheel', channel=1, pitch=1799, time=5),
    Message('note_off', channel=4, note=74, velocity=64, time=1),
    Message('note_on', channel=7, note=74, velocity=80, time=0),
    Message('note_on', channel=7, note=79, velocity=80, time=0),
    Message('note_on', channel=4, note=69, velocity=115, time=1),
    Message('note_off', channel=4, note=79, velocity=64, time=0),
    Message('pitchwheel', channel=1, pitch=8191, time=2),
    Message('note_off', channel=0, note=54, velocity=64, time=2),
    Message('note_off', channel=7, note=69, velocity=64, time=2),
    Message('pitchwheel', channel=1, pitch=5943, time=11),
    Message('pitchwheel', channel=1, pitch=0, time=4),
    Message('note_on', channel=0, note=45, velocity=89, time=2),
    Message('note_on', channel=0, note=52, velocity=89, time=0),
    Message('note_on', channel=1, note=33, velocity=112, time=0),
    Message('note_on', channel=9, note=42, velocity=73, time=0),
    Message('note_on', channel=9, note=51, velocity=126, time=0),
    Message('note_off', channel=9, note=42, velocity=64, time=0),
    Message('note_off', channel=9, note=51, velocity=64, time=0),
    Message('note_on', channel=4, note=76, velocity=125, time=2),
    Message('note_off', channel=1, note=26, velocity=64, time=5),
    Message('note_off', channel=0, note=45, velocity=64, time=16),
    Message('note_off', channel=7, note=74, velocity=64, time=1),
    Message('pitchwheel', channel=4, pitch=-6886, time=1),
    Message('note_on', channel=7, note=69, velocity=70, time=0),
    Message('note_off', channel=7, note=79, velocity=64, time=0),
    Message('note_off', channel=0, note=52, velocity=64, time=2),
    Message('pitchwheel', channel=4, pitch=-4081, time=1),
    Message('pitchwheel', channel=4, pitch=-1191, time=4),
    Message('pitchwheel', channel=4, pitch=0, time=3),
    Message('pitchwheel', channel=4, pitch=170, time=7),
    Message('note_off', channel=4, note=69, velocity=64, time=3),
    Message('pitchwheel', channel=4, pitch=0, time=0),
    Message('note_on', channel=0, note=45, velocity=89, time=3),
    Message('note_on', channel=0, note=52, velocity=89, time=0),
    Message('note_off', channel=8, note=57, velocity=64, time=0),
    Message('note_on', channel=8, note=57, velocity=127, time=0),
    Message('note_on', channel=8, note=64, velocity=127, time=0),
    Message('note_off', channel=8, note=66, velocity=64, time=0),
    Message('note_on', channel=9, note=35, velocity=127, time=0),
    Message('note_on', channel=9, note=51, velocity=126, time=0),
    Message('note_off', channel=9, note=35, velocity=64, time=0),
    Message('note_off', channel=9, note=51, velocity=64, time=0),
    Message('note_on', channel=4, note=69, velocity=105, time=2),
    Message('note_on', channel=7, note=76, velocity=80, time=0),
    Message('note_off', channel=4, note=76, velocity=64, time=5),
    Message('note_off', channel=0, note=45, velocity=64, time=15),
    Message('note_on', channel=4, note=79, velocity=116, time=1),
    Message('note_on', channel=4, note=74, velocity=112, time=1),
    Message('note_off', channel=0, note=52, velocity=64, time=3),
    Message('note_off', channel=4, note=69, velocity=64, time=0),
    Message('note_off', channel=7, note=69, velocity=64, time=18),
    Message('pitchwheel', channel=4, pitch=-7056, time=2),
    Message('note_on', channel=0, note=45, velocity=89, time=1),
    Message('note_on', channel=0, note=52, velocity=89, time=0),
    Message('note_on', channel=9, note=35, velocity=127, time=0),
    Message('note_on', channel=9, note=42, velocity=93, time=0),
    Message('note_on', channel=9, note=51, velocity=126, time=0),
    Message('note_off', channel=9, note=35, velocity=64, time=0),
    Message('note_off', channel=9, note=42, velocity=64, time=0),
    Message('note_off', channel=9, note=51, velocity=64, time=0),
    Message('note_on', channel=7, note=69, velocity=60, time=2),
    Message('pitchwheel', channel=4, pitch=-3316, time=2),
    Message('note_off', channel=7, note=76, velocity=64, time=3),
    Message('pitchwheel', channel=4, pitch=0, time=2),
    Message('pitchwheel', channel=4, pitch=170, time=5),
    Message('pitchwheel', channel=4, pitch=0, time=4),
    Message('note_off', channel=0, note=45, velocity=64, time=2),
    Message('note_on', channel=7, note=79, velocity=71, time=3),
    Message('note_on', channel=4, note=69, velocity=108, time=1),
    Message('note_off', channel=4, note=79, velocity=64, time=0),
    Message('note_on', channel=7, note=74, velocity=67, time=0),
    Message('note_off', channel=4, note=74, velocity=64, time=1),
    Message('note_off', channel=0, note=52, velocity=64, time=1),
    Message('note_off', channel=7, note=69, velocity=64, time=1),
    Message('note_on', channel=4, note=76, velocity=109, time=18),
    Message('note_on', channel=0, note=45, velocity=89, time=3),
    Message('note_on', channel=0, note=54, velocity=89, time=0),
    Message('note_on', channel=1, note=28, velocity=112, time=0),
    Message('note_off', channel=8, note=57, velocity=64, time=0),
    Message('note_on', channel=8, note=57, velocity=32, time=0),
    Message('note_off', channel=8, note=64, velocity=64, time=0),
    Message('note_on', channel=8, note=66, velocity=114, time=0),
    Message('note_on', channel=9, note=40, velocity=127, time=0),
    Message('note_on', channel=9, note=51, velocity=126, time=0),
    Message('note_on', channel=9, note=53, velocity=126, time=0),
    Message('note_off', channel=1, note=33, velocity=64, time=0),
    Message('note_off', channel=9, note=40, velocity=64, time=0),
    Message('note_off', channel=9, note=51, velocity=64, time=0),
    Message('note_off', channel=9, note=53, velocity=64, time=0),
    Message('note_off', channel=4, note=69, velocity=64, time=2),
    Message('note_off', channel=0, note=45, velocity=64, time=14),
    Message('pitchwheel', channel=4, pitch=-4591, time=5),
    Message('note_off', channel=0, note=54, velocity=64, time=2),
    Message('note_on', channel=0, note=52, velocity=89, time=1),
    Message('note_on', channel=7, note=69, velocity=63, time=0),
    Message('note_off', channel=7, note=79, velocity=64, time=0),
    Message('note_off', channel=7, note=74, velocity=64, time=1),
    Message('pitchwheel', channel=4, pitch=0, time=1),
    Message('pitchwheel', channel=4, pitch=510, time=5),
    Message('pitchwheel', channel=4, pitch=0, time=5),
    Message('note_on', channel=7, note=76, velocity=64, time=9),
    Message('note_on', channel=0, note=45, velocity=89, time=3),
    Message('note_on', channel=0, note=47, velocity=89, time=0),
    Message('note_on', channel=9, note=42, velocity=85, time=0),
    Message('note_on', channel=9, note=51, velocity=126, time=0),
    Message('note_on', channel=4, note=74, velocity=120, time=0),
    Message('note_off', channel=9, note=42, velocity=64, time=0),
    Message('note_off', channel=9, note=51, velocity=64, time=0),
    Message('note_off', channel=7, note=69, velocity=64, time=2),
    Message('note_off', channel=0, note=47, velocity=64, time=1),
    Message('note_off', channel=4, note=76, velocity=64, time=1),
    Message('note_off', channel=1, note=28, velocity=64, time=2),
    Message('note_off', channel=4, note=74, velocity=64, time=11),
    Message('note_off', channel=0, note=45, velocity=64, time=3),
    Message('note_off', channel=0, note=52, velocity=64, time=1),
    Message('note_on', channel=4, note=69, velocity=112, time=0),
    Message('note_off', channel=4, note=69, velocity=64, time=4),
    Message('note_off', channel=6, note=74, velocity=64, time=22),
    Message('note_on', channel=1, note=26, velocity=125, time=1),
    Message('pitchwheel', channel=4, pitch=-8192, time=0),
    Message('note_on', channel=4, note=84, velocity=114, time=0),
    Message('note_on', channel=4, note=89, velocity=108, time=0),
    Message('note_on', channel=8, note=50, velocity=127, time=0),
    Message('note_off', channel=8, note=57, velocity=64, time=0),
    Message('note_off', channel=8, note=66, velocity=64, time=0),
    Message('note_on', channel=9, note=35, velocity=127, time=0),
    Message('note_on', channel=9, note=49, velocity=118, time=0),
    Message('note_on', channel=7, note=74, velocity=75, time=0),
    Message('note_off', channel=9, note=35, velocity=64, time=0),
    Message('note_off', channel=9, note=49, velocity=64, time=0),
    Message('note_off', channel=8, note=69, velocity=64, time=1),
    Message('note_off', channel=6, note=79, velocity=64, time=2),
    Message('note_off', channel=7, note=76, velocity=64, time=1),
    Message('note_off', channel=7, note=74, velocity=64, time=13),
    Message('note_on', channel=7, note=69, velocity=67, time=4),
    Message('note_off', channel=1, note=26, velocity=64, time=3),
    Message('note_off', channel=7, note=69, velocity=64, time=1),
    Message('pitchwheel', channel=4, pitch=-7991, time=0),
    Message('pitchwheel', channel=4, pitch=-7396, time=4),
    Message('pitchwheel', channel=4, pitch=-7056, time=3),
    Message('pitchwheel', channel=4, pitch=-6716, time=4),
    Message('pitchwheel', channel=4, pitch=-6206, time=6),
    Message('pitchwheel', channel=4, pitch=-5866, time=4),
    Message('note_on', channel=1, note=26, velocity=126, time=2),
    Message('note_on', channel=7, note=84, velocity=69, time=0),
    Message('note_on', channel=7, note=89, velocity=63, time=0),
    Message('pitchwheel', channel=4, pitch=-5186, time=3),
    Message('pitchwheel', channel=4, pitch=-4761, time=3),
    Message('pitchwheel', channel=4, pitch=-4421, time=4),
    Message('pitchwheel', channel=4, pitch=-4166, time=5),
    Message('pitchwheel', channel=4, pitch=-3911, time=3),
    Message('pitchwheel', channel=4, pitch=-3656, time=4),
    Message('pitchwheel', channel=4, pitch=-3401, time=3),
    Message('pitchwheel', channel=4, pitch=-3061, time=4),
    Message('pitchwheel', channel=4, pitch=-2551, time=6),
    Message('pitchwheel', channel=4, pitch=-2296, time=4),
    Message('pitchwheel', channel=4, pitch=-1956, time=3),
    Message('pitchwheel', channel=4, pitch=-1616, time=4),
    Message('note_on', channel=1, note=31, velocity=126, time=2),
    Message('note_on', channel=9, note=44, velocity=125, time=0),
    Message('note_off', channel=1, note=26, velocity=64, time=0),
    Message('note_off', channel=9, note=44, velocity=64, time=0),
    Message('pitchwheel', channel=4, pitch=-1106, time=4),
    Message('pitchwheel', channel=4, pitch=-851, time=4),
    Message('pitchwheel', channel=4, pitch=-596, time=3),
    Message('pitchwheel', channel=4, pitch=-341, time=4),
    Message('pitchwheel', channel=4, pitch=-86, time=5),
    Message('pitchwheel', channel=1, pitch=3373, time=6),
    Message('pitchwheel', channel=4, pitch=0, time=1),
    Message('pitchwheel', channel=1, pitch=8191, time=3),
    Message('note_off', channel=1, note=31, velocity=64, time=18),
    Message('note_on', channel=1, note=41, velocity=126, time=0),
    Message('pitchwheel', channel=1, pitch=111, time=1),
    Message('pitchwheel', channel=1, pitch=0, time=5),
    Message('control_change', channel=4, control=1, value=11, time=8),
    Message('control_change', channel=4, control=1, value=33, time=9),
    Message('control_change', channel=4, control=1, value=75, time=8),
    Message('control_change', channel=4, control=1, value=87, time=9),
    Message('note_on', channel=9, note=44, velocity=116, time=8),
    Message('control_change', channel=4, control=1, value=101, time=0),
    Message('note_off', channel=9, note=44, velocity=64, time=0),
    Message('control_change', channel=4, control=1, value=111, time=11),
    Message('control_change', channel=4, control=1, value=125, time=8),
    Message('control_change', channel=4, control=1, value=127, time=17),
    Message('note_on', channel=1, note=38, velocity=126, time=60),
    Message('note_on', channel=9, note=44, velocity=119, time=0),
    Message('note_off', channel=9, note=44, velocity=64, time=0),
    Message('note_on', channel=6, note=86, velocity=75, time=6),
    Message('note_off', channel=1, note=41, velocity=64, time=1),
    Message('note_on', channel=6, note=84, velocity=109, time=1),
    Message('note_off', channel=6, note=86, velocity=64, time=1),
    Message('note_on', channel=6, note=83, velocity=121, time=1),
    Message('note_off', channel=6, note=84, velocity=64, time=0),
    Message('note_off', channel=6, note=83, velocity=64, time=2),
    Message('note_on', channel=6, note=81, velocity=111, time=0),
    Message('note_off', channel=6, note=81, velocity=64, time=2),
    Message('note_on', channel=6, note=79, velocity=121, time=1),
    Message('note_off', channel=6, note=79, velocity=64, time=1),
    Message('note_on', channel=6, note=77, velocity=118, time=1),
    Message('note_off', channel=6, note=77, velocity=64, time=2),
    Message('note_on', channel=6, note=76, velocity=123, time=0),
    Message('note_off', channel=6, note=76, velocity=64, time=2),
    Message('note_on', channel=6, note=74, velocity=116, time=1),
    Message('note_on', channel=6, note=77, velocity=87, time=0),
    Message('note_off', channel=6, note=74, velocity=64, time=2),
    Message('note_on', channel=6, note=72, velocity=123, time=0),
    Message('note_off', channel=6, note=77, velocity=64, time=1),
    Message('note_off', channel=6, note=72, velocity=64, time=1),
    Message('note_on', channel=6, note=74, velocity=82, time=1),
    Message('note_on', channel=8, note=71, velocity=121, time=1),
    Message('control_change', channel=4, control=1, value=125, time=1),
    Message('note_off', channel=8, note=71, velocity=64, time=0),
    Message('note_off', channel=6, note=74, velocity=64, time=1),
    Message('note_on', channel=8, note=69, velocity=123, time=0),
    Message('note_off', channel=8, note=69, velocity=64, time=2),
    Message('note_on', channel=8, note=67, velocity=121, time=1),
    Message('note_off', channel=8, note=67, velocity=64, time=2),
    Message('note_on', channel=8, note=65, velocity=126, time=1),
    Message('control_change', channel=4, control=1, value=127, time=2),
    Message('note_on', channel=8, note=64, velocity=125, time=1),
    Message('note_off', channel=8, note=65, velocity=64, time=0),
    Message('note_on', channel=8, note=62, velocity=121, time=3),
    Message('note_off', channel=8, note=64, velocity=64, time=1),
    Message('note_off', channel=8, note=50, velocity=64, time=3),
    Message('note_on', channel=8, note=60, velocity=116, time=0),
    Message('control_change', channel=4, control=1, value=121, time=0),
    Message('note_off', channel=8, note=62, velocity=64, time=0),
    Message('note_on', channel=8, note=59, velocity=123, time=3),
    Message('note_off', channel=8, note=60, velocity=64, time=1),
    Message('note_on', channel=8, note=57, velocity=123, time=3),
    Message('note_off', channel=8, note=59, velocity=64, time=0),
    Message('control_change', channel=4, control=1, value=121, time=3),
    Message('note_on', channel=8, note=55, velocity=118, time=0),
    Message('note_off', channel=8, note=57, velocity=64, time=1),
    Message('note_on', channel=8, note=53, velocity=121, time=3),
    Message('note_off', channel=8, note=55, velocity=64, time=1),
    Message('note_on', channel=8, note=52, velocity=121, time=3),
    Message('control_change', channel=4, control=1, value=101, time=1),
    Message('note_off', channel=8, note=53, velocity=64, time=0),
    Message('note_on', channel=8, note=50, velocity=118, time=4),
    Message('note_off', channel=8, note=52, velocity=64, time=0),
    Message('control_change', channel=4, control=1, value=127, time=4),
    Message('note_on', channel=8, note=48, velocity=121, time=0),
    Message('note_off', channel=8, note=50, velocity=64, time=0),
    Message('note_off', channel=8, note=48, velocity=64, time=4),
    Message('note_on', channel=8, note=47, velocity=116, time=1),
    Message('note_off', channel=8, note=47, velocity=64, time=3),
    Message('note_on', channel=8, note=45, velocity=113, time=1),
    Message('control_change', channel=4, control=1, value=118, time=3),
    Message('note_off', channel=8, note=45, velocity=64, time=0),
    Message('note_on', channel=8, note=43, velocity=109, time=2),
    Message('note_off', channel=1, note=38, velocity=64, time=2),
    Message('note_off', channel=8, note=43, velocity=64, time=1),
    Message('control_change', channel=4, control=1, value=127, time=4),
    Message('note_on', channel=1, note=26, velocity=126, time=2),
    Message('note_on', channel=2, note=50, velocity=89, time=0),
    Message('note_off', channel=4, note=89, velocity=64, time=0),
    Message('note_on', channel=9, note=44, velocity=122, time=0),
    Message('note_off', channel=4, note=84, velocity=64, time=0),
    Message('note_off', channel=9, note=44, velocity=64, time=0),
    Message('note_off', channel=1, note=26, velocity=64, time=16),
    Message('note_off', channel=2, note=50, velocity=64, time=2),
    Message('note_on', channel=1, note=26, velocity=126, time=30),
    Message('note_on', channel=2, note=50, velocity=95, time=0),
    Message('note_off', channel=7, note=89, velocity=64, time=0),
    Message('note_off', channel=7, note=84, velocity=64, time=0),
    Message('note_off', channel=2, note=50, velocity=64, time=24),
    Message('note_off', channel=1, note=26, velocity=64, time=15),
    Message('note_on', channel=1, note=31, velocity=126, time=9),
    Message('note_on', channel=2, note=55, velocity=111, time=0),
    Message('note_on', channel=9, note=44, velocity=124, time=0),
    Message('note_off', channel=9, note=44, velocity=64, time=0),
    Message('pitchwheel', channel=2, pitch=2409, time=21),
    Message('pitchwheel', channel=2, pitch=8191, time=3),
    Message('pitchwheel', channel=1, pitch=8191, time=5),
    Message('pitchwheel', channel=2, pitch=7902, time=14),
    Message('pitchwheel', channel=1, pitch=0, time=3),
    Message('note_off', channel=2, note=55, velocity=64, time=0),
    Message('pitchwheel', channel=2, pitch=0, time=1),
    Message('note_on', channel=1, note=41, velocity=126, time=1),
    Message('note_on', channel=2, note=60, velocity=111, time=0),
    Message('note_on', channel=2, note=65, velocity=105, time=0),
    Message('note_on', channel=9, note=40, velocity=127, time=0),
    Message('note_off', channel=9, note=40, velocity=64, time=0),
    Message('note_off', channel=1, note=31, velocity=64, time=1),
    Message('note_on', channel=9, note=40, velocity=127, time=7),
    Message('note_off', channel=9, note=40, velocity=64, time=1),
    Message('note_on', channel=9, note=35, velocity=127, time=15),
    Message('note_off', channel=9, note=35, velocity=64, time=0),
    Message('control_change', channel=2, control=1, value=3, time=20),
    Message('note_on', channel=9, note=44, velocity=126, time=4),
    Message('note_off', channel=9, note=44, velocity=64, time=0),
    Message('control_change', channel=2, control=1, value=59, time=4),
    Message('control_change', channel=2, control=1, value=109, time=7),
    Message('control_change', channel=2, control=1, value=127, time=9),
    Message('control_change', channel=2, control=1, value=126, time=62),
    Message('pitchwheel', channel=2, pitch=-97, time=7),
    Message('note_off', channel=2, note=60, velocity=64, time=1),
    Message('control_change', channel=2, control=1, value=0, time=1),
    Message('pitchwheel', channel=2, pitch=-3020, time=2),
    Message('note_off', channel=2, note=65, velocity=64, time=1),
    Message('note_on', channel=9, note=43, velocity=116, time=1),
    Message('note_on', channel=1, note=38, velocity=126, time=1),
    Message('note_off', channel=1, note=41, velocity=64, time=0),
    Message('note_on', channel=2, note=62, velocity=123, time=0),
    Message('note_off', channel=9, note=43, velocity=64, time=0),
    Message('note_on', channel=9, note=44, velocity=126, time=0),
    Message('note_off', channel=9, note=44, velocity=64, time=0),
    Message('pitchwheel', channel=2, pitch=0, time=2),
    Message('note_on', channel=9, note=35, velocity=127, time=46),
    Message('note_off', channel=9, note=35, velocity=64, time=0),
    Message('control_change', channel=2, control=1, value=115, time=1),
    Message('note_on', channel=9, note=41, velocity=126, time=1),
    Message('note_off', channel=9, note=41, velocity=64, time=0),
    Message('control_change', channel=2, control=1, value=127, time=6),
    Message('note_off', channel=2, note=62, velocity=64, time=30),
    Message('note_off', channel=1, note=38, velocity=64, time=2),
    Message('control_change', channel=2, control=1, value=26, time=4),
    Message('note_on', channel=6, note=74, velocity=127, time=4),
    Message('note_on', channel=8, note=62, velocity=127, time=0),
    Message('note_on', channel=0, note=50, velocity=89, time=2),
    Message('note_on', channel=0, note=57, velocity=89, time=0),
    Message('note_on', channel=1, note=26, velocity=125, time=0),
    Message('note_on', channel=9, note=35, velocity=120, time=0),
    Message('note_on', channel=9, note=40, velocity=120, time=0),
    Message('note_on', channel=9, note=49, velocity=110, time=0),
    Message('note_off', channel=9, note=35, velocity=64, time=0),
    Message('note_off', channel=9, note=40, velocity=64, time=0),
    Message('note_off', channel=9, note=49, velocity=64, time=0),
    Message('note_off', channel=1, note=26, velocity=64, time=24),
    Message('note_on', channel=3, note=77, velocity=100, time=22),
    Message('note_on', channel=6, note=84, velocity=127, time=0),
    Message('note_on', channel=6, note=89, velocity=126, time=0),
    Message('note_on', channel=1, note=26, velocity=126, time=2),
    Message('note_on', channel=9, note=35, velocity=109, time=0),
    Message('note_on', channel=9, note=44, velocity=75, time=0),
    Message('note_off', channel=9, note=35, velocity=64, time=0),
    Message('note_off', channel=9, note=44, velocity=64, time=0),
    Message('note_on', channel=5, note=72, velocity=96, time=1),
    Message('control_change', channel=5, control=1, value=1, time=26),
    Message('control_change', channel=5, control=1, value=17, time=8),
    Message('note_off', channel=0, note=50, velocity=64, time=6),
    Message('control_change', channel=5, control=1, value=59, time=3),
    Message('note_off', channel=6, note=74, velocity=64, time=2),
    Message('note_off', channel=8, note=62, velocity=64, time=0),
    Message('note_on', channel=8, note=62, velocity=107, time=0),
    Message('note_on', channel=8, note=71, velocity=127, time=0),
    Message('note_on', channel=1, note=31, velocity=126, time=2),
    Message('note_on', channel=9, note=40, velocity=127, time=0),
    Message('note_on', channel=9, note=44, velocity=103, time=0),
    Message('note_off', channel=1, note=26, velocity=64, time=0),
    Message('note_off', channel=9, note=40, velocity=64, time=0),
    Message('note_off', channel=9, note=44, velocity=64, time=0),
    Message('note_off', channel=0, note=57, velocity=64, time=2),
    Message('note_on', channel=0, note=59, velocity=89, time=0),
    Message('note_on', channel=0, note=50, velocity=89, time=1),
    Message('control_change', channel=3, control=1, value=30, time=0),
    Message('control_change', channel=5, control=1, value=111, time=2),
    Message('control_change', channel=3, control=1, value=111, time=7),
    Message('control_change', channel=5, control=1, value=127, time=2),
    Message('control_change', channel=3, control=1, value=127, time=6),
    Message('pitchwheel', channel=1, pitch=3373, time=6),
    Message('pitchwheel', channel=1, pitch=8191, time=4),
    Message('note_off', channel=6, note=84, velocity=64, time=3),
    Message('control_change', channel=5, control=1, value=80, time=1),
    Message('note_off', channel=6, note=89, velocity=64, time=5),
    Message('control_change', channel=5, control=1, value=0, time=3),
    Message('note_on', channel=3, note=74, velocity=90, time=4),
    Message('note_on', channel=6, note=81, velocity=123, time=0),
    Message('note_on', channel=6, note=86, velocity=125, time=0),
    Message('control_change', channel=3, control=1, value=0, time=1),
    Message('note_off', channel=1, note=31, velocity=64, time=1),
    Message('note_on', channel=1, note=41, velocity=126, time=0),
    Message('note_on', channel=9, note=44, velocity=67, time=0),
    Message('note_off', channel=9, note=44, velocity=64, time=0),
    Message('note_off', channel=3, note=77, velocity=64, time=1),
    Message('pitchwheel', channel=1, pitch=111, time=0),
    Message('note_on', channel=5, note=69, velocity=85, time=1),
    Message('note_off', channel=5, note=72, velocity=64, time=2),
    Message('pitchwheel', channel=1, pitch=0, time=2),
    Message('note_off', channel=3, note=74, velocity=64, time=6),
    Message('note_off', channel=5, note=69, velocity=64, time=0),
    Message('note_off', channel=6, note=81, velocity=64, time=9),
    Message('note_off', channel=6, note=86, velocity=64, time=1),
    Message('note_off', channel=0, note=50, velocity=64, time=20),
    Message('note_on', channel=3, note=77, velocity=92, time=4),
    Message('note_on', channel=6, note=84, velocity=127, time=0),
    Message('note_on', channel=6, note=89, velocity=126, time=0),
    Message('note_off', channel=8, note=62, velocity=64, time=0),
    Message('note_on', channel=8, note=62, velocity=109, time=0),
    Message('note_on', channel=8, note=69, velocity=113, time=0),
    Message('note_off', channel=8, note=71, velocity=64, time=0),
    Message('note_on', channel=9, note=35, velocity=120, time=2),
    Message('note_on', channel=9, note=40, velocity=120, time=0),
    Message('note_on', channel=9, note=44, velocity=99, time=0),
    Message('note_off', channel=9, note=35, velocity=64, time=0),
    Message('note_off', channel=9, note=40, velocity=64, time=0),
    Message('note_off', channel=9, note=44, velocity=64, time=0),
    Message('note_on', channel=0, note=57, velocity=89, time=1),
    Message('note_on', channel=5, note=72, velocity=83, time=0),
    Message('note_on', channel=0, note=50, velocity=89, time=1),
    Message('note_off', channel=0, note=59, velocity=64, time=2),
    Message('note_off', channel=6, note=84, velocity=64, time=33),
    Message('note_on', channel=3, note=74, velocity=83, time=9),
    Message('note_off', channel=3, note=77, velocity=64, time=0),
    Message('note_on', channel=6, note=81, velocity=107, time=0),
    Message('note_on', channel=6, note=86, velocity=111, time=0),
    Message('note_on', channel=5, note=69, velocity=83, time=1),
    Message('note_off', channel=6, note=89, velocity=64, time=0),
    Message('note_on', channel=9, note=35, velocity=122, time=1),
    Message('note_on', channel=9, note=44, velocity=64, time=0),
    Message('note_off', channel=9, note=35, velocity=64, time=0),
    Message('note_off', channel=9, note=44, velocity=64, time=0),
    Message('note_off', channel=5, note=72, velocity=64, time=2),
    Message('note_off', channel=5, note=69, velocity=64, time=8),
    Message('note_off', channel=3, note=74, velocity=64, time=1),
    Message('note_off', channel=6, note=81, velocity=64, time=0),
    Message('note_off', channel=6, note=86, velocity=64, time=1),
    Message('note_off', channel=0, note=50, velocity=64, time=23),
    Message('note_on', channel=5, note=67, velocity=64, time=8),
    Message('note_on', channel=3, note=72, velocity=95, time=3),
    Message('note_on', channel=6, note=79, velocity=127, time=0),
    Message('note_on', channel=6, note=84, velocity=127, time=0),
    Message('note_off', channel=8, note=62, velocity=64, time=0),
    Message('note_on', channel=8, note=62, velocity=111, time=0),
    Message('note_off', channel=8, note=69, velocity=64, time=0),
    Message('note_on', channel=8, note=71, velocity=127, time=0),
    Message('note_on', channel=0, note=50, velocity=89, time=1),
    Message('note_on', channel=1, note=38, velocity=126, time=1),
    Message('note_on', channel=9, note=40, velocity=127, time=0),
    Message('note_on', channel=9, note=44, velocity=105, time=0),
    Message('note_off', channel=0, note=57, velocity=64, time=0),
    Message('note_on', channel=0, note=59, velocity=89, time=0),
    Message('note_off', channel=9, note=40, velocity=64, time=0),
    Message('note_off', channel=9, note=44, velocity=64, time=0),
    Message('note_off', channel=1, note=41, velocity=64, time=7),
    Message('note_off', channel=5, note=67, velocity=64, time=5),
    Message('note_off', channel=3, note=72, velocity=64, time=5),
    Message('note_off', channel=6, note=79, velocity=64, time=6),
    Message('note_off', channel=6, note=84, velocity=64, time=15),
    Message('note_on', channel=5, note=69, velocity=83, time=5),
    Message('note_on', channel=3, note=74, velocity=100, time=3),
    Message('note_on', channel=6, note=81, velocity=127, time=0),
    Message('note_on', channel=6, note=86, velocity=127, time=0),
    Message('note_on', channel=9, note=44, velocity=77, time=2),
    Message('note_off', channel=9, note=44, velocity=64, time=0),
    Message('control_change', channel=5, control=1, value=97, time=21),
    Message('note_off', channel=6, note=86, velocity=64, time=2),
    Message('note_off', channel=6, note=81, velocity=64, time=1),
    Message('control_change', channel=5, control=1, value=126, time=5),
    Message('control_change', channel=3, control=1, value=11, time=8),
    Message('note_off', channel=3, note=74, velocity=64, time=2),
    Message('note_off', channel=0, note=50, velocity=64, time=1),
    Message('note_off', channel=1, note=38, velocity=64, time=1),
    Message('control_change', channel=5, control=1, value=61, time=1),
    Message('control_change', channel=3, control=1, value=1, time=3),
    Message('note_off', channel=8, note=62, velocity=64, time=1),
    Message('note_on', channel=8, note=62, velocity=116, time=0),
    Message('note_on', channel=8, note=69, velocity=127, time=0),
    Message('note_off', channel=8, note=71, velocity=64, time=0),
    Message('note_on', channel=1, note=26, velocity=126, time=2),
    Message('note_on', channel=9, note=35, velocity=118, time=0),
    Message('note_on', channel=9, note=40, velocity=125, time=0),
    Message('note_on', channel=9, note=44, velocity=107, time=0),
    Message('note_off', channel=9, note=35, velocity=64, time=0),
    Message('note_off', channel=9, note=40, velocity=64, time=0),
    Message('note_off', channel=9, note=44, velocity=64, time=0),
    Message('note_on', channel=0, note=57, velocity=89, time=1),
    Message('note_on', channel=0, note=50, velocity=89, time=0),
    Message('control_change', channel=5, control=1, value=62, time=2),
    Message('note_off', channel=0, note=59, velocity=64, time=1),
    Message('control_change', channel=3, control=1, value=127, time=2),
    Message('note_off', channel=5, note=69, velocity=64, time=0),
    Message('control_change', channel=5, control=1, value=85, time=5),
    Message('note_off', channel=1, note=26, velocity=64, time=5),
    Message('control_change', channel=5, control=1, value=0, time=2),
    Message('control_change', channel=3, control=1, value=0, time=2),
    Message('note_on', channel=3, note=77, velocity=103, time=26),
    Message('note_on', channel=6, note=84, velocity=127, time=0),
    Message('note_on', channel=6, note=89, velocity=126, time=0),
    Message('note_on', channel=1, note=26, velocity=126, time=2),
    Message('note_on', channel=5, note=72, velocity=71, time=0),
    Message('note_on', channel=9, note=35, velocity=114, time=0),
    Message('note_on', channel=9, note=44, velocity=83, time=0),
    Message('note_off', channel=9, note=35, velocity=64, time=0),
    Message('note_off', channel=9, note=44, velocity=64, time=0),
    Message('control_change', channel=3, control=1, value=8, time=35),
    Message('note_off', channel=0, note=50, velocity=64, time=3),
    Message('note_off', channel=1, note=26, velocity=64, time=1),
    Message('control_change', channel=5, control=1, value=5, time=1),
    Message('control_change', channel=3, control=1, value=31, time=3),
    Message('note_off', channel=8, note=62, velocity=64, time=3),
    Message('note_on', channel=8, note=62, velocity=103, time=0),
    Message('note_off', channel=8, note=69, velocity=64, time=0),
    Message('note_on', channel=8, note=71, velocity=127, time=0),
    Message('note_on', channel=0, note=50, velocity=89, time=2),
    Message('note_on', channel=1, note=31, velocity=126, time=0),
    Message('note_on', channel=9, note=40, velocity=127, time=0),
    Message('note_on', channel=9, note=44, velocity=109, time=0),
    Message('note_off', channel=0, note=57, velocity=64, time=0),
    Message('note_off', channel=9, note=40, velocity=64, time=0),
    Message('note_off', channel=9, note=44, velocity=64, time=0),
    Message('note_on', channel=0, note=59, velocity=89, time=1),
    Message('control_change', channel=5, control=1, value=33, time=0),
    Message('control_change', channel=3, control=1, value=17, time=3),
    Message('control_change', channel=5, control=1, value=107, time=6),
    Message('control_change', channel=3, control=1, value=68, time=2),
    Message('control_change', channel=5, control=1, value=127, time=7),
    Message('control_change', channel=3, control=1, value=127, time=1),
    Message('pitchwheel', channel=1, pitch=8191, time=9),
    Message('note_off', channel=3, note=77, velocity=64, time=16),
    Message('control_change', channel=5, control=1, value=0, time=0),
    Message('note_off', channel=6, note=84, velocity=64, time=0),
    Message('note_on', channel=3, note=74, velocity=93, time=1),
    Message('note_on', channel=6, note=81, velocity=113, time=0),
    Message('note_on', channel=6, note=86, velocity=113, time=0),
    Message('pitchwheel', channel=1, pitch=0, time=0),
    Message('note_on', channel=1, note=41, velocity=126, time=2),
    Message('note_on', channel=9, note=44, velocity=77, time=0),
    Message('note_off', channel=9, note=44, velocity=64, time=0),
    Message('note_off', channel=1, note=31, velocity=64, time=1),
    Message('note_on', channel=5, note=69, velocity=85, time=2),
    Message('note_off', channel=6, note=89, velocity=64, time=1),
    Message('note_off', channel=5, note=72, velocity=64, time=1),
    Message('control_change', channel=3, control=1, value=0, time=1),
    Message('note_off', channel=3, note=74, velocity=64, time=7),
    Message('note_off', channel=5, note=69, velocity=64, time=3),
    Message('note_off', channel=6, note=81, velocity=64, time=19),
    Message('note_off', channel=6, note=86, velocity=64, time=5),
    Message('note_off', channel=0, note=50, velocity=64, time=1),
    Message('note_on', channel=3, note=77, velocity=95, time=5),
    Message('note_on', channel=6, note=84, velocity=127, time=0),
    Message('note_on', channel=6, note=89, velocity=123, time=0),
    Message('note_off', channel=8, note=62, velocity=64, time=0),
    Message('note_on', channel=8, note=62, velocity=118, time=0),
    Message('note_on', channel=8, note=69, velocity=125, time=0),
    Message('note_off', channel=8, note=71, velocity=64, time=0),
    Message('note_on', channel=5, note=72, velocity=46, time=1),
    Message('note_on', channel=9, note=35, velocity=120, time=1),
    Message('note_on', channel=9, note=40, velocity=116, time=0),
    Message('note_on', channel=9, note=44, velocity=119, time=0),
    Message('note_on', channel=0, note=57, velocity=89, time=0),
    Message('note_off', channel=9, note=35, velocity=64, time=0),
    Message('note_off', channel=9, note=40, velocity=64, time=0),
    Message('note_off', channel=9, note=44, velocity=64, time=0),
    Message('note_on', channel=0, note=50, velocity=89, time=2),
    Message('note_off', channel=0, note=59, velocity=64, time=3),
    Message('control_change', channel=5, control=1, value=1, time=23),
    Message('control_change', channel=5, control=1, value=76, time=10),
    Message('note_off', channel=6, note=84, velocity=64, time=2),
    Message('note_off', channel=3, note=77, velocity=64, time=5),
    Message('note_on', channel=3, note=74, velocity=97, time=1),
    Message('note_on', channel=6, note=81, velocity=103, time=0),
    Message('note_on', channel=6, note=86, velocity=107, time=0),
    Message('control_change', channel=5, control=1, value=0, time=1),
    Message('note_off', channel=6, note=89, velocity=64, time=0),
    Message('note_on', channel=5, note=69, velocity=77, time=1),
    Message('note_on', channel=9, note=35, velocity=127, time=0),
    Message('note_on', channel=9, note=44, velocity=77, time=0),
    Message('note_off', channel=9, note=35, velocity=64, time=0),
    Message('note_off', channel=9, note=44, velocity=64, time=0),
    Message('note_off', channel=5, note=72, velocity=64, time=5),
    Message('note_off', channel=3, note=74, velocity=64, time=4),
    Message('note_off', channel=5, note=69, velocity=64, time=4),
    Message('note_off', channel=6, note=81, velocity=64, time=3),
    Message('note_off', channel=6, note=86, velocity=64, time=3),
    Message('note_off', channel=0, note=50, velocity=64, time=20),
    Message('note_on', channel=5, note=67, velocity=70, time=5),
    Message('note_on', channel=3, note=72, velocity=97, time=2),
    Message('note_on', channel=6, note=79, velocity=126, time=0),
    Message('note_on', channel=6, note=84, velocity=123, time=0),
    Message('note_off', channel=8, note=62, velocity=64, time=0),
    Message('note_on', channel=8, note=62, velocity=103, time=0),
    Message('note_off', channel=8, note=69, velocity=64, time=0),
    Message('note_on', channel=8, note=71, velocity=123, time=0),
    Message('note_on', channel=0, note=50, velocity=89, time=2),
    Message('note_on', channel=1, note=38, velocity=126, time=0),
    Message('note_off', channel=1, note=41, velocity=64, time=0),
    Message('note_on', channel=9, note=40, velocity=127, time=0),
    Message('note_on', channel=9, note=44, velocity=116, time=0),
    Message('note_on', channel=0, note=59, velocity=89, time=0),
    Message('note_off', channel=9, note=40, velocity=64, time=0),
    Message('note_off', channel=9, note=44, velocity=64, time=0),
    Message('note_off', channel=0, note=57, velocity=64, time=1),
    Message('note_off', channel=3, note=72, velocity=64, time=8),
    Message('note_off', channel=5, note=67, velocity=64, time=4),
    Message('note_off', channel=6, note=79, velocity=64, time=3),
    Message('note_off', channel=6, note=84, velocity=64, time=25),
    Message('note_on', channel=5, note=69, velocity=87, time=4),
    Message('note_on', channel=3, note=74, velocity=98, time=1),
    Message('note_on', channel=6, note=81, velocity=113, time=0),
    Message('note_on', channel=6, note=86, velocity=113, time=0),
    Message('note_on', channel=9, note=44, velocity=87, time=2),
    Message('note_off', channel=9, note=44, velocity=64, time=0),
    Message('note_off', channel=5, note=69, velocity=64, time=17),
    Message('note_off', channel=6, note=81, velocity=64, time=1),
    Message('note_off', channel=6, note=86, velocity=64, time=3),
    Message('control_change', channel=3, control=1, value=125, time=12),
    Message('note_off', channel=0, note=50, velocity=64, time=5),
    Message('note_off', channel=1, note=38, velocity=64, time=2),
    Message('control_change', channel=3, control=1, value=0, time=3),
    Message('note_off', channel=8, note=62, velocity=64, time=3),
    Message('note_on', channel=8, note=62, velocity=113, time=0),
    Message('note_on', channel=8, note=69, velocity=125, time=0),
    Message('note_off', channel=8, note=71, velocity=64, time=0),
    Message('note_on', channel=0, note=57, velocity=89, time=1),
    Message('note_on', channel=1, note=26, velocity=126, time=1),
    Message('note_on', channel=9, note=35, velocity=127, time=0),
    Message('note_on', channel=9, note=40, velocity=125, time=0),
    Message('note_on', channel=9, note=44, velocity=113, time=0),
    Message('note_off', channel=9, note=35, velocity=64, time=0),
    Message('note_off', channel=9, note=40, velocity=64, time=0),
    Message('note_off', channel=9, note=44, velocity=64, time=0),
    Message('note_off', channel=3, note=74, velocity=64, time=1),
    Message('note_on', channel=0, note=50, velocity=89, time=0),
    Message('note_off', channel=0, note=59, velocity=64, time=3),
    Message('control_change', channel=3, control=1, value=127, time=2),
    Message('note_off', channel=1, note=26, velocity=64, time=10),
    Message('control_change', channel=3, control=1, value=0, time=2),
    Message('note_on', channel=3, note=77, velocity=102, time=28),
    Message('note_on', channel=6, note=84, velocity=127, time=0),
    Message('note_on', channel=6, note=89, velocity=127, time=0),
    Message('note_on', channel=1, note=26, velocity=126, time=2),
    Message('note_on', channel=9, note=35, velocity=127, time=0),
    Message('note_on', channel=9, note=44, velocity=83, time=0),
    Message('note_on', channel=5, note=72, velocity=91, time=0),
    Message('note_off', channel=9, note=35, velocity=64, time=0),
    Message('note_off', channel=9, note=44, velocity=64, time=0),
    Message('control_change', channel=5, control=1, value=2, time=27),
    Message('note_off', channel=0, note=50, velocity=64, time=8),
    Message('control_change', channel=5, control=1, value=33, time=1),
    Message('note_off', channel=1, note=26, velocity=64, time=3),
    Message('note_on', channel=0, note=50, velocity=89, time=6),
    Message('control_change', channel=5, control=1, value=47, time=0),
    Message('note_off', channel=0, note=57, velocity=64, time=1),
    Message('note_off', channel=8, note=62, velocity=64, time=0),
    Message('note_on', channel=8, note=62, velocity=118, time=0),
    Message('note_off', channel=8, note=69, velocity=64, time=0),
    Message('note_on', channel=8, note=71, velocity=125, time=0),
    Message('note_on', channel=0, note=59, velocity=89, time=0),
    Message('note_on', channel=1, note=31, velocity=126, time=2),
    Message('note_on', channel=9, note=40, velocity=127, time=0),
    Message('note_on', channel=9, note=44, velocity=116, time=0),
    Message('note_off', channel=9, note=40, velocity=64, time=0),
    Message('note_off', channel=9, note=44, velocity=64, time=0),
    Message('control_change', channel=3, control=1, value=12, time=4),
    Message('control_change', channel=5, control=1, value=83, time=2),
    Message('control_change', channel=3, control=1, value=2, time=6),
    Message('control_change', channel=5, control=1, value=116, time=5),
    Message('control_change', channel=3, control=1, value=127, time=4),
    Message('control_change', channel=5, control=1, value=116, time=3),
    Message('pitchwheel', channel=1, pitch=5718, time=5),
    Message('pitchwheel', channel=1, pitch=8191, time=4),
    Message('control_change', channel=5, control=1, value=0, time=0),
    Message('note_off', channel=3, note=77, velocity=64, time=7),
    Message('note_off', channel=5, note=72, velocity=64, time=2),
    Message('pitchwheel', channel=1, pitch=6135, time=1),
    Message('note_off', channel=6, note=84, velocity=64, time=0),
    Message('control_change', channel=3, control=1, value=0, time=0),
    Message('note_on', channel=5, note=69, velocity=73, time=1),
    Message('note_on', channel=3, note=74, velocity=86, time=2),
    Message('note_on', channel=6, note=81, velocity=109, time=0),
    Message('note_on', channel=6, note=86, velocity=109, time=0),
    Message('pitchwheel', channel=1, pitch=0, time=1),
    Message('note_off', channel=1, note=31, velocity=64, time=0),
    Message('note_on', channel=1, note=41, velocity=126, time=1),
    Message('note_on', channel=9, note=44, velocity=66, time=0),
    Message('note_off', channel=6, note=89, velocity=64, time=0),
    Message('note_off', channel=9, note=44, velocity=64, time=0),
    Message('note_off', channel=5, note=69, velocity=64, time=9),
    Message('note_off', channel=6, note=81, velocity=64, time=3),
    Message('note_off', channel=3, note=74, velocity=64, time=9),
    Message('note_off', channel=6, note=86, velocity=64, time=2),
    Message('note_off', channel=0, note=50, velocity=64, time=14),
    Message('note_on', channel=5, note=72, velocity=89, time=8),
    Message('note_on', channel=0, note=57, velocity=89, time=1),
    Message('note_on', channel=3, note=77, velocity=99, time=0),
    Message('note_on', channel=6, note=84, velocity=127, time=0),
    Message('note_on', channel=6, note=89, velocity=121, time=0),
    Message('note_off', channel=8, note=62, velocity=64, time=0),
    Message('note_on', channel=8, note=62, velocity=113, time=0),
    Message('note_on', channel=8, note=69, velocity=125, time=0),
    Message('note_off', channel=8, note=71, velocity=64, time=0),
    Message('note_on', channel=0, note=50, velocity=89, time=1),
    Message('note_on', channel=9, note=35, velocity=127, time=1),
    Message('note_on', channel=9, note=40, velocity=125, time=0),
    Message('note_on', channel=9, note=44, velocity=116, time=0),
    Message('note_off', channel=9, note=35, velocity=64, time=0),
    Message('note_off', channel=9, note=40, velocity=64, time=0),
    Message('note_off', channel=9, note=44, velocity=64, time=0),
    Message('note_off', channel=0, note=59, velocity=64, time=3),
    Message('control_change', channel=5, control=1, value=1, time=10),
    Message('control_change', channel=5, control=1, value=21, time=8),
    Message('control_change', channel=5, control=1, value=95, time=8),
    Message('control_change', channel=5, control=1, value=91, time=8),
    Message('note_off', channel=6, note=84, velocity=64, time=5),
    Message('control_change', channel=5, control=1, value=0, time=3),
    Message('note_on', channel=3, note=74, velocity=92, time=1),
    Message('note_on', channel=6, note=81, velocity=99, time=0),
    Message('note_on', channel=6, note=86, velocity=109, time=0),
    Message('note_on', channel=5, note=69, velocity=83, time=0),
    Message('note_off', channel=3, note=77, velocity=64, time=1),
    Message('note_off', channel=6, note=89, velocity=64, time=1),
    Message('note_on', channel=9, note=35, velocity=127, time=0),
    Message('note_on', channel=9, note=44, velocity=81, time=0),
    Message('note_off', channel=9, note=35, velocity=64, time=0),
    Message('note_off', channel=9, note=44, velocity=64, time=0),
    Message('note_off', channel=5, note=72, velocity=64, time=4),
    Message('note_off', channel=3, note=74, velocity=64, time=7),
    Message('note_off', channel=5, note=69, velocity=64, time=0),
    Message('note_off', channel=6, note=81, velocity=64, time=2),
    Message('note_off', channel=6, note=86, velocity=64, time=7),
    Message('note_off', channel=0, note=50, velocity=64, time=16),
    Message('note_on', channel=5, note=67, velocity=64, time=6),
    Message('note_on', channel=0, note=59, velocity=89, time=2),
    Message('note_on', channel=0, note=50, velocity=89, time=2),
    Message('note_on', channel=3, note=72, velocity=102, time=0),
    Message('note_on', channel=6, note=79, velocity=126, time=0),
    Message('note_on', channel=6, note=84, velocity=127, time=0),
    Message('note_off', channel=8, note=62, velocity=64, time=0),
    Message('note_on', channel=8, note=62, velocity=98, time=0),
    Message('note_off', channel=8, note=69, velocity=64, time=0),
    Message('note_on', channel=8, note=71, velocity=118, time=0),
    Message('note_off', channel=0, note=57, velocity=64, time=0),
    Message('note_on', channel=1, note=38, velocity=126, time=2),
    Message('note_on', channel=9, note=40, velocity=127, time=0),
    Message('note_on', channel=9, note=44, velocity=103, time=0),
    Message('note_off', channel=9, note=40, velocity=64, time=0),
    Message('note_off', channel=9, note=44, velocity=64, time=0),
    Message('note_off', channel=1, note=41, velocity=64, time=4),
    Message('note_off', channel=3, note=72, velocity=64, time=5),
    Message('note_off', channel=5, note=67, velocity=64, time=1),
    Message('note_off', channel=6, note=79, velocity=64, time=5),
    Message('note_off', channel=6, note=84, velocity=64, time=20),
    Message('note_on', channel=3, note=74, velocity=94, time=11),
    Message('note_on', channel=6, note=81, velocity=118, time=0),
    Message('note_on', channel=6, note=86, velocity=116, time=0),
    Message('note_on', channel=5, note=69, velocity=94, time=1),
    Message('note_on', channel=9, note=44, velocity=69, time=1),
    Message('note_off', channel=9, note=44, velocity=64, time=0),
    Message('note_off', channel=6, note=81, velocity=64, time=19),
    Message('note_off', channel=5, note=69, velocity=64, time=1),
    Message('note_off', channel=6, note=86, velocity=64, time=2),
    Message('control_change', channel=3, control=1, value=3, time=11),
    Message('note_off', channel=0, note=50, velocity=64, time=4),
    Message('note_off', channel=1, note=38, velocity=64, time=4),
    Message('control_change', channel=3, control=1, value=127, time=0),
    Message('note_off', channel=3, note=74, velocity=64, time=2),
    Message('note_on', channel=0, note=57, velocity=89, time=2),
    Message('note_off', channel=8, note=62, velocity=64, time=1),
    Message('note_on', channel=8, note=62, velocity=126, time=0),
    Message('note_on', channel=8, note=69, velocity=121, time=0),
    Message('note_off', channel=8, note=71, velocity=64, time=0),
    Message('note_on', channel=1, note=26, velocity=126, time=2),
    Message('note_on', channel=9, note=35, velocity=127, time=0),
    Message('note_on', channel=9, note=40, velocity=127, time=0),
    Message('note_on', channel=9, note=44, velocity=97, time=0),
    Message('note_on', channel=0, note=50, velocity=89, time=0),
    Message('note_off', channel=9, note=35, velocity=64, time=0),
    Message('note_off', channel=9, note=40, velocity=64, time=0),
    Message('note_off', channel=9, note=44, velocity=64, time=0),
    Message('note_off', channel=0, note=59, velocity=64, time=4),
    Message('control_change', channel=3, control=1, value=0, time=2),
    Message('note_off', channel=1, note=26, velocity=64, time=9),
    Message('note_on', channel=3, note=77, velocity=104, time=31),
    Message('note_on', channel=6, note=84, velocity=127, time=0),
    Message('note_on', channel=6, note=89, velocity=125, time=0),
    Message('note_on', channel=1, note=26, velocity=126, time=2),
    Message('note_on', channel=9, note=35, velocity=118, time=0),
    Message('note_on', channel=9, note=44, velocity=76, time=0),
    Message('note_off', channel=9, note=35, velocity=64, time=0),
    Message('note_off', channel=9, note=44, velocity=64, time=0),
    Message('note_on', channel=5, note=72, velocity=94, time=2),
    Message('note_off', channel=0, note=50, velocity=64, time=32),
    Message('note_off', channel=1, note=26, velocity=64, time=8),
    Message('note_off', channel=8, note=62, velocity=64, time=4),
    Message('note_on', channel=8, note=62, velocity=111, time=0),
    Message('note_off', channel=8, note=69, velocity=64, time=0),
    Message('note_on', channel=8, note=71, velocity=125, time=0),
    Message('note_on', channel=0, note=50, velocity=89, time=1),
    Message('control_change', channel=5, control=1, value=9, time=0),
    Message('note_on', channel=1, note=31, velocity=126, time=1),
    Message('note_on', channel=9, note=40, velocity=127, time=0),
    Message('note_on', channel=9, note=44, velocity=109, time=0),
    Message('note_on', channel=0, note=59, velocity=89, time=0),
    Message('note_off', channel=9, note=40, velocity=64, time=0),
    Message('note_off', channel=9, note=44, velocity=64, time=0),
    Message('note_off', channel=0, note=57, velocity=64, time=3),
    Message('control_change', channel=5, control=1, value=53, time=4),
    Message('control_change', channel=3, control=1, value=127, time=9),
    Message('control_change', channel=5, control=1, value=119, time=0),
    Message('pitchwheel', channel=1, pitch=1349, time=5),
    Message('control_change', channel=5, control=1, value=126, time=3),
    Message('pitchwheel', channel=1, pitch=8191, time=1),
    Message('control_change', channel=3, control=1, value=107, time=8),
    Message('control_change', channel=5, control=1, value=102, time=5),
    Message('note_off', channel=6, note=84, velocity=64, time=0),
    Message('pitchwheel', channel=1, pitch=7581, time=3),
    Message('control_change', channel=3, control=1, value=0, time=1),
    Message('note_off', channel=3, note=77, velocity=64, time=2),
    Message('note_off', channel=6, note=89, velocity=64, time=1),
    Message('pitchwheel', channel=1, pitch=0, time=1),
    Message('note_on', channel=3, note=74, velocity=96, time=0),
    Message('control_change', channel=5, control=1, value=0, time=0),
    Message('note_on', channel=6, note=81, velocity=111, time=0),
    Message('note_on', channel=6, note=86, velocity=111, time=0),
    Message('note_on', channel=1, note=41, velocity=126, time=2),
    Message('note_on', channel=9, note=44, velocity=53, time=0),
    Message('note_off', channel=9, note=44, velocity=64, time=0),
    Message('note_off', channel=1, note=31, velocity=64, time=1),
    Message('note_on', channel=5, note=69, velocity=85, time=2),
    Message('note_off', channel=5, note=72, velocity=64, time=2),
    Message('note_off', channel=3, note=74, velocity=64, time=10),
    Message('note_off', channel=6, note=81, velocity=64, time=1),
    Message('note_off', channel=5, note=69, velocity=64, time=1),
    Message('note_off', channel=6, note=86, velocity=64, time=4),
    Message('note_off', channel=0, note=50, velocity=64, time=19),
    Message('note_on', channel=3, note=77, velocity=97, time=6),
    Message('note_on', channel=6, note=84, velocity=127, time=0),
    Message('note_on', channel=6, note=89, velocity=126, time=0),
    Message('note_off', channel=8, note=62, velocity=64, time=0),
    Message('note_on', channel=8, note=62, velocity=113, time=0),
    Message('note_on', channel=8, note=69, velocity=125, time=0),
    Message('note_off', channel=8, note=71, velocity=64, time=0),
    Message('note_on', channel=0, note=57, velocity=89, time=1),
    Message('note_on', channel=9, note=35, velocity=127, time=1),
    Message('note_on', channel=9, note=40, velocity=127, time=0),
    Message('note_on', channel=9, note=44, velocity=109, time=0),
    Message('note_off', channel=9, note=35, velocity=64, time=0),
    Message('note_off', channel=9, note=40, velocity=64, time=0),
    Message('note_off', channel=9, note=44, velocity=64, time=0),
    Message('note_on', channel=5, note=72, velocity=85, time=1),
    Message('note_on', channel=0, note=50, velocity=89, time=2),
    Message('note_off', channel=0, note=59, velocity=64, time=1),
    Message('note_off', channel=6, note=84, velocity=64, time=37),
    Message('note_on', channel=5, note=69, velocity=83, time=2),
    Message('note_on', channel=3, note=74, velocity=94, time=3),
    Message('note_on', channel=6, note=81, velocity=100, time=0),
    Message('note_on', channel=6, note=86, velocity=105, time=0),
    Message('note_off', channel=5, note=72, velocity=64, time=1),
    Message('note_on', channel=9, note=35, velocity=120, time=1),
    Message('note_on', channel=9, note=44, velocity=69, time=0),
    Message('note_off', channel=9, note=35, velocity=64, time=0),
    Message('note_off', channel=9, note=44, velocity=64, time=0),
    Message('note_off', channel=6, note=89, velocity=64, time=1),
    Message('note_off', channel=3, note=77, velocity=64, time=1),
    Message('note_off', channel=3, note=74, velocity=64, time=7),
    Message('note_off', channel=5, note=69, velocity=64, time=0),
    Message('note_off', channel=6, note=81, velocity=64, time=3),
    Message('note_off', channel=6, note=86, velocity=64, time=2),
    Message('note_off', channel=0, note=50, velocity=64, time=25),
    Message('note_on', channel=3, note=72, velocity=98, time=7),
    Message('note_on', channel=6, note=79, velocity=123, time=0),
    Message('note_on', channel=6, note=84, velocity=125, time=0),
    Message('note_off', channel=8, note=62, velocity=64, time=0),
    Message('note_on', channel=8, note=62, velocity=120, time=0),
    Message('note_off', channel=8, note=69, velocity=64, time=0),
    Message('note_on', channel=8, note=71, velocity=123, time=0),
    Message('note_on', channel=1, note=38, velocity=126, time=2),
    Message('note_on', channel=5, note=67, velocity=81, time=0),
    Message('note_on', channel=9, note=40, velocity=127, time=0),
    Message('note_on', channel=9, note=44, velocity=116, time=0),
    Message('note_off', channel=9, note=40, velocity=64, time=0),
    Message('note_off', channel=9, note=44, velocity=64, time=0),
    Message('note_on', channel=0, note=50, velocity=89, time=1),
    Message('note_on', channel=0, note=59, velocity=89, time=0),
    Message('note_off', channel=0, note=57, velocity=64, time=1),
    Message('note_off', channel=1, note=41, velocity=64, time=3),
    Message('note_off', channel=6, note=79, velocity=64, time=13),
    Message('note_off', channel=5, note=67, velocity=64, time=3),
    Message('note_off', channel=3, note=72, velocity=64, time=16),
    Message('note_off', channel=6, note=84, velocity=64, time=2),
    Message('note_on', channel=5, note=69, velocity=91, time=6),
    Message('note_on', channel=3, note=74, velocity=102, time=1),
    Message('note_on', channel=6, note=81, velocity=125, time=0),
    Message('note_on', channel=6, note=86, velocity=121, time=0),
    Message('note_on', channel=9, note=44, velocity=76, time=2),
    Message('note_off', channel=9, note=44, velocity=64, time=0),
    Message('note_off', channel=0, note=59, velocity=64, time=15),
    Message('note_off', channel=3, note=74, velocity=64, time=2),
    Message('note_off', channel=5, note=69, velocity=64, time=0),
    Message('note_off', channel=1, note=38, velocity=64, time=5),
    Message('note_off', channel=0, note=50, velocity=64, time=4),
    Message('note_off', channel=6, note=81, velocity=64, time=14),
    Message('note_off', channel=6, note=86, velocity=64, time=4),
    Message('note_on', channel=8, note=57, velocity=127, time=2),
    Message('note_off', channel=8, note=62, velocity=64, time=0),
    Message('note_on', channel=8, note=64, velocity=127, time=0),
    Message('note_off', channel=8, note=71, velocity=64, time=0),
    Message('note_on', channel=0, note=45, velocity=89, time=2),
    Message('note_on', channel=0, note=52, velocity=89, time=0),
    Message('note_on', channel=1, note=21, velocity=124, time=0),
    Message('note_on', channel=9, note=35, velocity=127, time=0),
    Message('note_on', channel=9, note=40, velocity=125, time=0),
    Message('note_on', channel=9, note=49, velocity=103, time=0),
    Message('note_off', channel=9, note=35, velocity=64, time=0),
    Message('note_off', channel=9, note=40, velocity=64, time=0),
    Message('note_off', channel=9, note=49, velocity=64, time=0),
    Message('note_off', channel=1, note=21, velocity=64, time=27),
    Message('note_on', channel=5, note=71, velocity=105, time=17),
    Message('note_on', channel=6, note=88, velocity=111, time=0),
    Message('note_on', channel=6, note=79, velocity=125, time=1),
    Message('note_on', channel=6, note=85, velocity=123, time=0),
    Message('note_on', channel=3, note=74, velocity=97, time=1),
    Message('pitchwheel', channel=3, pitch=2465, time=0),
    Message('note_on', channel=1, note=21, velocity=126, time=2),
    Message('note_on', channel=9, note=35, velocity=127, time=0),
    Message('note_on', channel=9, note=44, velocity=83, time=0),
    Message('note_off', channel=9, note=35, velocity=64, time=0),
    Message('note_off', channel=9, note=44, velocity=64, time=0),
    Message('pitchwheel', channel=5, pitch=1220, time=1),
    Message('pitchwheel', channel=3, pitch=5185, time=1),
    Message('pitchwheel', channel=5, pitch=4850, time=4),
    Message('pitchwheel', channel=3, pitch=6630, time=0),
    Message('pitchwheel', channel=5, pitch=6617, time=3),
    Message('pitchwheel', channel=3, pitch=7650, time=1),
    Message('pitchwheel', channel=5, pitch=8191, time=4),
    Message('pitchwheel', channel=3, pitch=8191, time=1),
    Message('note_off', channel=0, note=45, velocity=64, time=17),
    Message('note_off', channel=0, note=52, velocity=64, time=8),
    Message('note_off', channel=1, note=21, velocity=64, time=5),
    Message('note_off', channel=8, note=57, velocity=64, time=1),
    Message('note_on', channel=8, note=57, velocity=127, time=0),
    Message('note_on', channel=8, note=66, velocity=127, time=0),
    Message('note_on', channel=0, note=45, velocity=89, time=2),
    Message('note_on', channel=0, note=54, velocity=89, time=0),
    Message('note_on', channel=1, note=26, velocity=122, time=0),
    Message('note_on', channel=9, note=40, velocity=127, time=0),
    Message('note_on', channel=9, note=44, velocity=116, time=0),
    Message('note_off', channel=9, note=40, velocity=64, time=0),
    Message('note_off', channel=9, note=44, velocity=64, time=0),
    Message('note_off', channel=8, note=64, velocity=64, time=5),
    Message('pitchwheel', channel=1, pitch=8191, time=22),
    Message('pitchwheel', channel=3, pitch=7650, time=11),
    Message('pitchwheel', channel=3, pitch=5525, time=4),
    Message('note_on', channel=6, note=78, velocity=106, time=1),
    Message('pitchwheel', channel=1, pitch=7131, time=0),
    Message('note_off', channel=6, note=85, velocity=64, time=0),
    Message('note_on', channel=6, note=87, velocity=84, time=1),
    Message('note_off', channel=6, note=79, velocity=64, time=0),
    Message('note_on', channel=6, note=84, velocity=99, time=0),
    Message('note_off', channel=3, note=74, velocity=64, time=2),
    Message('pitchwheel', channel=3, pitch=3400, time=0),
    Message('note_on', channel=0, note=52, velocity=89, time=2),
    Message('note_on', channel=1, note=33, velocity=115, time=0),
    Message('pitchwheel', channel=1, pitch=0, time=0),
    Message('note_off', channel=5, note=71, velocity=64, time=0),
    Message('note_on', channel=9, note=44, velocity=59, time=0),
    Message('note_off', channel=9, note=44, velocity=64, time=0),
    Message('note_off', channel=6, note=88, velocity=64, time=1),
    Message('pitchwheel', channel=5, pitch=6971, time=1),
    Message('pitchwheel', channel=3, pitch=1955, time=0),
    Message('note_off', channel=1, note=26, velocity=64, time=1),
    Message('pitchwheel', channel=5, pitch=3051, time=3),
    Message('pitchwheel', channel=3, pitch=0, time=0),
    Message('pitchwheel', channel=5, pitch=1028, time=5),
    Message('pitchwheel', channel=5, pitch=417, time=4),
    Message('pitchwheel', channel=5, pitch=128, time=8),
    Message('pitchwheel', channel=5, pitch=0, time=4),
    Message('note_off', channel=6, note=84, velocity=64, time=10),
    Message('note_off', channel=6, note=87, velocity=64, time=2),
    Message('pitchwheel', channel=3, pitch=595, time=3),
    Message('note_on', channel=6, note=88, velocity=118, time=1),
    Message('note_on', channel=5, note=71, velocity=103, time=0),
    Message('note_on', channel=6, note=85, velocity=114, time=0),
    Message('note_off', channel=8, note=66, velocity=64, time=0),
    Message('note_off', channel=0, note=54, velocity=64, time=1),
    Message('note_on', channel=6, note=79, velocity=111, time=0),
    Message('note_off', channel=0, note=45, velocity=64, time=0),
    Message('note_off', channel=6, note=78, velocity=64, time=0),
    Message('note_on', channel=3, note=74, velocity=116, time=2),
    Message('note_off', channel=8, note=57, velocity=64, time=0),
    Message('note_on', channel=8, note=57, velocity=127, time=0),
    Message('note_on', channel=8, note=64, velocity=127, time=0),
    Message('pitchwheel', channel=3, pitch=1105, time=0),
    Message('note_on', channel=0, note=45, velocity=89, time=2),
    Message('note_off', channel=0, note=52, velocity=64, time=0),
    Message('note_on', channel=0, note=52, velocity=89, time=0),
    Message('note_on', channel=9, note=35, velocity=127, time=0),
    Message('note_on', channel=9, note=40, velocity=125, time=0),
    Message('note_on', channel=9, note=44, velocity=116, time=0),
    Message('note_off', channel=9, note=35, velocity=64, time=0),
    Message('note_off', channel=9, note=40, velocity=64, time=0),
    Message('note_off', channel=9, note=44, velocity=64, time=0),
    Message('pitchwheel', channel=5, pitch=1028, time=1),
    Message('pitchwheel', channel=3, pitch=1700, time=1),
    Message('pitchwheel', channel=5, pitch=4208, time=4),
    Message('pitchwheel', channel=3, pitch=2380, time=0),
    Message('pitchwheel', channel=5, pitch=6328, time=4),
    Message('pitchwheel', channel=3, pitch=3910, time=1),
    Message('pitchwheel', channel=5, pitch=6649, time=3),
    Message('pitchwheel', channel=3, pitch=5950, time=1),
    Message('pitchwheel', channel=5, pitch=6714, time=2),
    Message('pitchwheel', channel=3, pitch=8191, time=2),
    Message('pitchwheel', channel=5, pitch=6746, time=4),
    Message('pitchwheel', channel=5, pitch=6906, time=4),
    Message('pitchwheel', channel=5, pitch=7131, time=4),
    Message('pitchwheel', channel=5, pitch=7517, time=3),
    Message('pitchwheel', channel=5, pitch=7774, time=4),
    Message('pitchwheel', channel=5, pitch=8063, time=5),
    Message('note_on', channel=9, note=35, velocity=127, time=5),
    Message('note_on', channel=9, note=44, velocity=40, time=0),
    Message('pitchwheel', channel=5, pitch=8191, time=0),
    Message('note_off', channel=9, note=35, velocity=64, time=0),
    Message('note_off', channel=9, note=44, velocity=64, time=0),
    Message('pitchwheel', channel=3, pitch=8160, time=40),
    Message('note_off', channel=1, note=33, velocity=64, time=4),
    Message('pitchwheel', channel=3, pitch=6205, time=0),
    Message('pitchwheel', channel=5, pitch=7677, time=0),
    Message('note_off', channel=8, note=57, velocity=64, time=2),
    Message('note_on', channel=8, note=57, velocity=127, time=0),
    Message('note_on', channel=8, note=66, velocity=127, time=0),
    Message('note_off', channel=0, note=52, velocity=64, time=2),
    Message('note_on', channel=0, note=54, velocity=89, time=0),
    Message('note_on', channel=1, note=28, velocity=115, time=0),
    Message('note_on', channel=9, note=40, velocity=127, time=0),
    Message('note_on', channel=9, note=44, velocity=105, time=0),
    Message('pitchwheel', channel=3, pitch=3230, time=0),
    Message('note_off', channel=9, note=40, velocity=64, time=0),
    Message('note_off', channel=9, note=44, velocity=64, time=0),
    Message('pitchwheel', channel=5, pitch=5943, time=1),
    Message('note_on', channel=6, note=78, velocity=110, time=0),
    Message('note_off', channel=6, note=85, velocity=64, time=0),
    Message('note_off', channel=8, note=64, velocity=64, time=1),
    Message('note_off', channel=6, note=79, velocity=64, time=0),
    Message('note_on', channel=6, note=84, velocity=72, time=0),
    Message('note_on', channel=6, note=87, velocity=102, time=1),
    Message('pitchwheel', channel=3, pitch=1700, time=1),
    Message('pitchwheel', channel=5, pitch=2313, time=1),
    Message('note_off', channel=5, note=71, velocity=64, time=0),
    Message('note_off', channel=6, note=88, velocity=64, time=3),
    Message('pitchwheel', channel=5, pitch=0, time=1),
    Message('note_off', channel=3, note=74, velocity=64, time=1),
    Message('pitchwheel', channel=3, pitch=1020, time=1),
    Message('pitchwheel', channel=3, pitch=0, time=4),
    Message('pitchwheel', channel=3, pitch=0, time=27),
    Message('note_on', channel=5, note=71, velocity=101, time=1),
    Message('note_off', channel=6, note=87, velocity=64, time=1),
    Message('note_off', channel=6, note=84, velocity=64, time=1),
    Message('note_on', channel=3, note=74, velocity=116, time=1),
    Message('pitchwheel', channel=3, pitch=510, time=0),
    Message('note_on', channel=9, note=44, velocity=83, time=2),
    Message('note_off', channel=9, note=44, velocity=64, time=0),
    Message('note_on', channel=6, note=88, velocity=118, time=1),
    Message('note_off', channel=6, note=78, velocity=64, time=1),
    Message('note_on', channel=6, note=79, velocity=121, time=0),
    Message('note_on', channel=6, note=85, velocity=123, time=0),
    Message('pitchwheel', channel=3, pitch=1870, time=0),
    Message('pitchwheel', channel=5, pitch=64, time=3),
    Message('pitchwheel', channel=3, pitch=3995, time=1),
    Message('pitchwheel', channel=5, pitch=1381, time=3),
    Message('pitchwheel', channel=3, pitch=6630, time=2),
    Message('pitchwheel', channel=5, pitch=3951, time=2),
    Message('pitchwheel', channel=3, pitch=8191, time=2),
    Message('pitchwheel', channel=5, pitch=5172, time=2),
    Message('pitchwheel', channel=5, pitch=6071, time=5),
    Message('pitchwheel', channel=5, pitch=6521, time=3),
    Message('pitchwheel', channel=5, pitch=6842, time=4),
    Message('pitchwheel', channel=5, pitch=7067, time=4),
    Message('pitchwheel', channel=5, pitch=7163, time=4),
    Message('note_off', channel=0, note=45, velocity=64, time=2),
    Message('pitchwheel', channel=5, pitch=7292, time=1),
    Message('note_off', channel=8, note=57, velocity=64, time=2),
    Message('note_off', channel=8, note=66, velocity=64, time=0),
    Message('note_off', channel=1, note=28, velocity=64, time=2),
    Message('pitchwheel', channel=5, pitch=7420, time=1),
    Message('note_on', channel=8, note=57, velocity=127, time=1),
    Message('note_on', channel=8, note=64, velocity=127, time=0),
    Message('note_on', channel=0, note=45, velocity=89, time=2),
    Message('note_on', channel=0, note=52, velocity=89, time=0),
    Message('note_on', channel=1, note=21, velocity=120, time=0),
    Message('note_on', channel=9, note=35, velocity=127, time=0),
    Message('note_on', channel=9, note=40, velocity=127, time=0),
    Message('note_on', channel=9, note=44, velocity=116, time=0),
    Message('note_off', channel=9, note=35, velocity=64, time=0),
    Message('note_off', channel=9, note=40, velocity=64, time=0),
    Message('note_off', channel=9, note=44, velocity=64, time=0),
    Message('pitchwheel', channel=5, pitch=7581, time=1),
    Message('note_off', channel=0, note=54, velocity=64, time=1),
    Message('pitchwheel', channel=5, pitch=7645, time=4),
    Message('pitchwheel', channel=5, pitch=7806, time=4),
    Message('pitchwheel', channel=5, pitch=7870, time=5),
    Message('pitchwheel', channel=5, pitch=7902, time=3),
    Message('note_off', channel=1, note=21, velocity=64, time=4),
    Message('pitchwheel', channel=5, pitch=7870, time=3),
    Message('pitchwheel', channel=5, pitch=7774, time=12),
    Message('note_off', channel=6, note=88, velocity=64, time=2),
    Message('pitchwheel', channel=5, pitch=7581, time=1),
    Message('pitchwheel', channel=3, pitch=7480, time=2),
    Message('pitchwheel', channel=5, pitch=7099, time=2),
    Message('note_off', channel=6, note=79, velocity=64, time=0),
    Message('note_off', channel=6, note=85, velocity=64, time=0),
    Message('note_on', channel=6, note=78, velocity=106, time=1),
    Message('note_on', channel=6, note=84, velocity=99, time=0),
    Message('note_on', channel=6, note=87, velocity=82, time=1),
    Message('pitchwheel', channel=3, pitch=6205, time=0),
    Message('note_on', channel=1, note=21, velocity=125, time=2),
    Message('note_on', channel=9, note=35, velocity=118, time=0),
    Message('note_on', channel=9, note=44, velocity=84, time=0),
    Message('note_off', channel=9, note=35, velocity=64, time=0),
    Message('note_off', channel=9, note=44, velocity=64, time=0),
    Message('pitchwheel', channel=5, pitch=4336, time=2),
    Message('pitchwheel', channel=3, pitch=4335, time=0),
    Message('pitchwheel', channel=3, pitch=0, time=5),
    Message('pitchwheel', channel=5, pitch=1959, time=0),
    Message('note_off', channel=5, note=71, velocity=64, time=1),
    Message('pitchwheel', channel=5, pitch=0, time=3),
    Message('note_off', channel=3, note=74, velocity=64, time=1),
    Message('pitchwheel', channel=3, pitch=1530, time=24),
    Message('note_off', channel=6, note=84, velocity=64, time=2),
    Message('note_off', channel=6, note=87, velocity=64, time=1),
    Message('pitchwheel', channel=3, pitch=1870, time=1),
    Message('note_off', channel=0, note=45, velocity=64, time=1),
    Message('note_off', channel=6, note=78, velocity=64, time=1),
    Message('note_on', channel=6, note=88, velocity=118, time=1),
    Message('note_on', channel=6, note=79, velocity=126, time=1),
    Message('pitchwheel', channel=3, pitch=2295, time=0),
    Message('note_on', channel=6, note=85, velocity=126, time=0),
    Message('note_on', channel=5, note=71, velocity=96, time=1),
    Message('note_off', channel=1, note=21, velocity=64, time=0),
    Message('note_on', channel=3, note=74, velocity=99, time=1),
    Message('note_off', channel=8, note=57, velocity=64, time=0),
    Message('note_on', channel=8, note=57, velocity=127, time=0),
    Message('note_on', channel=8, note=66, velocity=127, time=0),
    Message('note_on', channel=0, note=45, velocity=89, time=2),
    Message('note_on', channel=0, note=54, velocity=89, time=0),
    Message('note_on', channel=1, note=26, velocity=112, time=0),
    Message('note_on', channel=9, note=40, velocity=127, time=0),
    Message('note_on', channel=9, note=44, velocity=116, time=0),
    Message('pitchwheel', channel=3, pitch=1955, time=0),
    Message('note_off', channel=9, note=40, velocity=64, time=0),
    Message('note_off', channel=9, note=44, velocity=64, time=0),
    Message('note_off', channel=0, note=52, velocity=64, time=2),
    Message('pitchwheel', channel=3, pitch=2975, time=2),
    Message('note_off', channel=8, note=64, velocity=64, time=2),
    Message('pitchwheel', channel=5, pitch=2859, time=1),
    Message('pitchwheel', channel=3, pitch=4335, time=2),
    Message('pitchwheel', channel=5, pitch=5236, time=2),
    Message('pitchwheel', channel=3, pitch=6205, time=2),
    Message('pitchwheel', channel=5, pitch=5943, time=2),
    Message('pitchwheel', channel=3, pitch=8075, time=2),
    Message('pitchwheel', channel=5, pitch=6039, time=2),
    Message('pitchwheel', channel=1, pitch=1477, time=2),
    Message('pitchwheel', channel=3, pitch=8191, time=0),
    Message('pitchwheel', channel=1, pitch=8191, time=4),
    Message('pitchwheel', channel=5, pitch=6135, time=5),
    Message('pitchwheel', channel=5, pitch=6489, time=4),
    Message('pitchwheel', channel=5, pitch=6746, time=4),
    Message('note_off', channel=0, note=45, velocity=64, time=1),
    Message('pitchwheel', channel=5, pitch=7453, time=3),
    Message('pitchwheel', channel=1, pitch=4883, time=4),
    Message('pitchwheel', channel=5, pitch=7902, time=0),
    Message('note_on', channel=0, note=45, velocity=89, time=2),
    Message('note_on', channel=0, note=52, velocity=89, time=0),
    Message('note_on', channel=1, note=33, velocity=110, time=0),
    Message('note_on', channel=9, note=44, velocity=67, time=0),
    Message('note_off', channel=9, note=44, velocity=64, time=0),
    Message('note_off', channel=1, note=26, velocity=64, time=1),
    Message('pitchwheel', channel=1, pitch=0, time=0),
    Message('pitchwheel', channel=5, pitch=8191, time=2),
    Message('note_off', channel=0, note=54, velocity=64, time=15),
    Message('note_off', channel=0, note=45, velocity=64, time=24),
    Message('note_off', channel=0, note=52, velocity=64, time=1),
    Message('note_off', channel=8, note=66, velocity=64, time=2),
    Message('note_off', channel=8, note=57, velocity=64, time=1),
    Message('note_on', channel=8, note=57, velocity=127, time=0),
    Message('note_on', channel=8, note=64, velocity=127, time=0),
    Message('control_change', channel=3, control=1, value=18, time=0),
    Message('note_on', channel=0, note=45, velocity=89, time=2),
    Message('note_on', channel=0, note=52, velocity=89, time=0),
    Message('note_on', channel=9, note=35, velocity=127, time=0),
    Message('note_on', channel=9, note=40, velocity=127, time=0),
    Message('note_on', channel=9, note=44, velocity=103, time=0),
    Message('note_off', channel=9, note=35, velocity=64, time=0),
    Message('note_off', channel=9, note=40, velocity=64, time=0),
    Message('note_off', channel=9, note=44, velocity=64, time=0),
    Message('control_change', channel=3, control=1, value=104, time=6),
    Message('control_change', channel=3, control=1, value=79, time=9),
    Message('control_change', channel=3, control=1, value=0, time=8),
    Message('pitchwheel', channel=3, pitch=7905, time=11),
    Message('pitchwheel', channel=3, pitch=7480, time=4),
    Message('pitchwheel', channel=3, pitch=6800, time=4),
    Message('pitchwheel', channel=3, pitch=6035, time=4),
    Message('note_on', channel=9, note=35, velocity=120, time=2),
    Message('note_on', channel=9, note=44, velocity=72, time=0),
    Message('note_off', channel=9, note=35, velocity=64, time=0),
    Message('note_off', channel=9, note=44, velocity=64, time=0),
    Message('pitchwheel', channel=3, pitch=5270, time=2),
    Message('pitchwheel', channel=5, pitch=8095, time=3),
    Message('pitchwheel', channel=3, pitch=4505, time=1),
    Message('pitchwheel', channel=5, pitch=7999, time=2),
    Message('pitchwheel', channel=3, pitch=3910, time=3),
    Message('pitchwheel', channel=5, pitch=7870, time=1),
    Message('pitchwheel', channel=3, pitch=3400, time=3),
    Message('pitchwheel', channel=5, pitch=7806, time=2),
    Message('pitchwheel', channel=3, pitch=3060, time=2),
    Message('pitchwheel', channel=5, pitch=7613, time=4),
    Message('pitchwheel', channel=3, pitch=2805, time=2),
    Message('pitchwheel', channel=5, pitch=7581, time=1),
    Message('pitchwheel', channel=3, pitch=2550, time=4),
    Message('pitchwheel', channel=5, pitch=7324, time=0),
    Message('pitchwheel', channel=3, pitch=1870, time=4),
    Message('pitchwheel', channel=5, pitch=6746, time=0),
    Message('pitchwheel', channel=3, pitch=850, time=4),
    Message('pitchwheel', channel=5, pitch=5782, time=1),
    Message('pitchwheel', channel=3, pitch=0, time=3),
    Message('pitchwheel', channel=5, pitch=4401, time=1),
    Message('note_off', channel=8, note=57, velocity=64, time=3),
    Message('note_on', channel=8, note=57, velocity=127, time=0),
    Message('note_off', channel=8, note=64, velocity=64, time=0),
    Message('note_on', channel=8, note=66, velocity=127, time=0),
    Message('pitchwheel', channel=5, pitch=2666, time=1),
    Message('note_on', channel=0, note=54, velocity=89, time=1),
    Message('note_on', channel=1, note=28, velocity=120, time=0),
    Message('note_on', channel=9, note=40, velocity=127, time=0),
    Message('note_on', channel=9, note=44, velocity=122, time=0),
    Message('note_off', channel=9, note=40, velocity=64, time=0),
    Message('note_off', channel=9, note=44, velocity=64, time=0),
    Message('note_off', channel=0, note=52, velocity=64, time=3),
    Message('pitchwheel', channel=5, pitch=738, time=0),
    Message('note_off', channel=1, note=33, velocity=64, time=0),
    Message('note_off', channel=3, note=74, velocity=64, time=0),
    Message('pitchwheel', channel=5, pitch=0, time=3),
    Message('note_off', channel=5, note=71, velocity=64, time=10),
    Message('note_off', channel=8, note=57, velocity=64, time=30),
    Message('note_on', channel=8, note=57, velocity=127, time=0),
    Message('note_on', channel=8, note=64, velocity=127, time=0),
    Message('note_on', channel=0, note=52, velocity=89, time=2),
    Message('note_on', channel=9, note=46, velocity=81, time=0),
    Message('note_off', channel=9, note=46, velocity=64, time=0),
    Message('note_off', channel=0, note=54, velocity=64, time=2),
    Message('note_off', channel=8, note=66, velocity=64, time=3),
    Message('note_off', channel=0, note=45, velocity=64, time=24),
    Message('note_off', channel=6, note=88, velocity=64, time=1),
    Message('note_off', channel=6, note=79, velocity=64, time=5),
    Message('note_off', channel=6, note=85, velocity=64, time=2),
    Message('note_off', channel=1, note=28, velocity=64, time=5),
    Message('note_on', channel=6, note=86, velocity=127, time=2),
    Message('note_off', channel=0, note=52, velocity=64, time=1),
    Message('note_on', channel=6, note=77, velocity=127, time=0),
    Message('note_on', channel=6, note=79, velocity=127, time=0),
    Message('note_on', channel=6, note=89, velocity=127, time=0),
    Message('note_on', channel=3, note=77, velocity=125, time=1),
    Message('note_on', channel=8, note=55, velocity=127, time=0),
    Message('note_off', channel=8, note=57, velocity=64, time=0),
    Message('note_on', channel=8, note=62, velocity=127, time=0),
    Message('note_on', channel=8, note=67, velocity=127, time=0),
    Message('note_off', channel=8, note=64, velocity=64, time=0),
    Message('note_on', channel=6, note=83, velocity=127, time=1),
    Message('note_on', channel=0, note=43, velocity=89, time=1),
    Message('note_on', channel=0, note=50, velocity=89, time=0),
    Message('note_on', channel=0, note=52, velocity=89, time=0),
    Message('note_on', channel=1, note=19, velocity=126, time=0),
    Message('note_on', channel=9, note=35, velocity=123, time=0),
    Message('note_on', channel=9, note=44, velocity=125, time=0),
    Message('note_off', channel=9, note=35, velocity=64, time=0),
    Message('note_off', channel=9, note=44, velocity=64, time=0),
    Message('note_off', channel=0, note=52, velocity=64, time=5),
    Message('note_off', channel=3, note=77, velocity=64, time=20),
    Message('note_off', channel=1, note=19, velocity=64, time=8),
    Message('note_off', channel=0, note=43, velocity=64, time=5),
    Message('note_off', channel=6, note=79, velocity=64, time=1),
    Message('note_off', channel=6, note=77, velocity=64, time=2),
    Message('note_off', channel=6, note=89, velocity=64, time=0),
    Message('note_off', channel=8, note=55, velocity=64, time=0),
    Message('note_off', channel=0, note=50, velocity=64, time=1),
    Message('note_off', channel=8, note=62, velocity=64, time=1),
    Message('note_off', channel=8, note=67, velocity=64, time=0),
    Message('note_off', channel=6, note=83, velocity=64, time=2),
    Message('note_on', channel=3, note=77, velocity=80, time=1),
    Message('note_off', channel=6, note=86, velocity=64, time=0),
    Message('note_on', channel=6, note=81, velocity=72, time=6),
    Message('note_on', channel=6, note=79, velocity=93, time=4),
    Message('note_off', channel=6, note=81, velocity=64, time=0),
    Message('note_on', channel=6, note=77, velocity=100, time=5),
    Message('note_off', channel=6, note=79, velocity=64, time=1),
    Message('note_off', channel=6, note=77, velocity=64, time=3),
    Message('note_off', channel=3, note=77, velocity=64, time=1),
    Message('note_on', channel=6, note=76, velocity=87, time=0),
    Message('note_off', channel=6, note=76, velocity=64, time=3),
    Message('note_on', channel=6, note=74, velocity=85, time=2),
    Message('note_on', channel=9, note=35, velocity=102, time=1),
    Message('note_off', channel=9, note=35, velocity=64, time=0),
    Message('note_off', channel=6, note=74, velocity=64, time=2),
    Message('note_on', channel=6, note=72, velocity=85, time=1),
    Message('note_off', channel=6, note=72, velocity=64, time=3),
    Message('note_on', channel=3, note=77, velocity=94, time=16),
    Message('note_on', channel=9, note=35, velocity=127, time=2),
    Message('note_off', channel=9, note=35, velocity=64, time=0),
    Message('note_off', channel=3, note=77, velocity=64, time=18),
    Message('note_on', channel=3, note=77, velocity=99, time=28),
    Message('note_off', channel=3, note=77, velocity=64, time=19),
    Message('note_on', channel=3, note=77, velocity=113, time=29),
    Message('note_on', channel=9, note=35, velocity=125, time=2),
    Message('note_off', channel=9, note=35, velocity=64, time=0),
    Message('note_off', channel=3, note=77, velocity=64, time=16),
    Message('note_on', channel=3, note=77, velocity=120, time=30),
    Message('note_off', channel=3, note=77, velocity=64, time=17),
    Message('note_on', channel=9, note=35, velocity=110, time=9),
    Message('note_off', channel=9, note=35, velocity=64, time=0),
    Message('note_on', channel=3, note=77, velocity=121, time=22),
    Message('note_on', channel=9, note=35, velocity=125, time=2),
    Message('note_off', channel=9, note=35, velocity=64, time=0),
    Message('note_off', channel=3, note=77, velocity=64, time=45),
    Message('note_on', channel=3, note=74, velocity=113, time=1),
    Message('note_off', channel=3, note=74, velocity=64, time=14),
    Message('note_on', channel=3, note=77, velocity=99, time=33),
    Message('note_off', channel=3, note=77, velocity=64, time=2),
    Message('note_on', channel=3, note=77, velocity=90, time=0),
    Message('note_on', channel=9, note=35, velocity=125, time=1),
    Message('note_off', channel=9, note=35, velocity=64, time=0),
    Message('note_off', channel=3, note=77, velocity=64, time=15),
    Message('note_on', channel=3, note=77, velocity=86, time=30),
    Message('note_on', channel=9, note=35, velocity=102, time=27),
    Message('note_off', channel=9, note=35, velocity=64, time=0),
    Message('note_off', channel=3, note=77, velocity=64, time=23),
    Message('note_on', channel=9, note=35, velocity=127, time=1),
    Message('note_off', channel=9, note=35, velocity=64, time=0),
    Message('note_on', channel=3, note=74, velocity=87, time=2),
    Message('note_off', channel=3, note=74, velocity=64, time=12),
    Message('note_on', channel=3, note=77, velocity=103, time=37),
    Message('note_on', channel=9, note=35, velocity=127, time=45),
    Message('note_off', channel=9, note=35, velocity=64, time=0),
    Message('pitchwheel', channel=3, pitch=-171, time=42),
    Message('pitchwheel', channel=3, pitch=-851, time=4),
    Message('pitchwheel', channel=3, pitch=-1701, time=4),
    Message('pitchwheel', channel=3, pitch=-2551, time=4),
    Message('pitchwheel', channel=3, pitch=-3146, time=4),
    Message('pitchwheel', channel=3, pitch=-3741, time=5),
    Message('note_off', channel=3, note=77, velocity=64, time=0),
    Message('pitchwheel', channel=3, pitch=-4251, time=4),
    Message('pitchwheel', channel=3, pitch=0, time=4),
    Message('note_on', channel=9, note=35, velocity=102, time=1),
    Message('note_off', channel=9, note=35, velocity=64, time=0),
    Message('note_on', channel=3, note=74, velocity=93, time=18),
    Message('note_on', channel=9, note=35, velocity=127, time=6),
    Message('note_off', channel=9, note=35, velocity=64, time=0),
    Message('note_off', channel=3, note=74, velocity=64, time=13),
    Message('note_on', channel=3, note=74, velocity=102, time=29),
    Message('note_on', channel=0, note=47, velocity=89, time=52),
    Message('note_on', channel=0, note=54, velocity=89, time=0),
    Message('note_on', channel=2, note=47, velocity=126, time=0),
    Message('note_on', channel=2, note=54, velocity=104, time=0),
    Message('note_on', channel=2, note=59, velocity=105, time=0),
    Message('note_on', channel=3, note=81, velocity=126, time=0),
    Message('note_on', channel=5, note=81, velocity=101, time=0),
    Message('note_on', channel=6, note=74, velocity=127, time=0),
    Message('note_on', channel=6, note=78, velocity=127, time=0),
    Message('note_on', channel=6, note=83, velocity=126, time=0),
    Message('note_on', channel=8, note=59, velocity=121, time=0),
    Message('note_on', channel=8, note=71, velocity=127, time=0),
    Message('note_on', channel=9, note=35, velocity=127, time=0),
    Message('note_off', channel=9, note=35, velocity=64, time=1),
    Message('note_on', channel=9, note=49, velocity=122, time=0),
    Message('note_off', channel=3, note=74, velocity=64, time=1),
    Message('note_off', channel=9, note=49, velocity=64, time=0),
    Message('note_on', channel=1, note=23, velocity=126, time=1),
    Message('pitchwheel', channel=3, pitch=-3374, time=2),
    Message('pitchwheel', channel=3, pitch=-5719, time=4),
    Message('pitchwheel', channel=3, pitch=0, time=4),
    Message('note_off', channel=2, note=47, velocity=64, time=18),
    Message('note_off', channel=1, note=23, velocity=64, time=9),
    Message('note_off', channel=2, note=54, velocity=64, time=0),
    Message('note_off', channel=5, note=81, velocity=64, time=4),
    Message('note_off', channel=0, note=47, velocity=64, time=1),
    Message('note_off', channel=0, note=54, velocity=64, time=0),
    Message('note_on', channel=0, note=47, velocity=89, time=3),
    Message('note_on', channel=0, note=54, velocity=89, time=0),
    Message('note_on', channel=1, note=23, velocity=126, time=0),
    Message('note_on', channel=2, note=47, velocity=109, time=0),
    Message('note_on', channel=2, note=54, velocity=64, time=0),
    Message('note_on', channel=3, note=78, velocity=126, time=0),
    Message('note_on', channel=5, note=76, velocity=105, time=0),
    Message('note_on', channel=9, note=44, velocity=113, time=0),
    Message('note_off', channel=9, note=44, velocity=64, time=0),
    Message('note_off', channel=3, note=81, velocity=64, time=2),
    Message('pitchwheel', channel=5, pitch=3662, time=2),
    Message('pitchwheel', channel=5, pitch=8191, time=4),
    Message('note_off', channel=0, note=47, velocity=64, time=25),
    Message('note_off', channel=0, note=54, velocity=64, time=6),
    Message('note_off', channel=2, note=59, velocity=64, time=1),
    Message('note_off', channel=1, note=23, velocity=64, time=4),
    Message('note_off', channel=2, note=47, velocity=64, time=3),
    Message('note_on', channel=0, note=47, velocity=89, time=1),
    Message('note_on', channel=0, note=54, velocity=89, time=0),
    Message('note_on', channel=1, note=23, velocity=126, time=0),
    Message('note_on', channel=2, note=47, velocity=126, time=0),
    Message('note_on', channel=2, note=59, velocity=99, time=0),
    Message('note_on', channel=9, note=40, velocity=127, time=0),
    Message('note_on', channel=9, note=44, velocity=126, time=0),
    Message('note_off', channel=9, note=40, velocity=64, time=0),
    Message('note_off', channel=9, note=44, velocity=64, time=0),
    Message('control_change', channel=5, control=1, value=13, time=1),
    Message('control_change', channel=5, control=1, value=21, time=9),
    Message('control_change', channel=5, control=1, value=24, time=9),
    Message('control_change', channel=5, control=1, value=36, time=12),
    Message('control_change', channel=3, control=1, value=15, time=1),
    Message('note_off', channel=1, note=23, velocity=64, time=2),
    Message('note_off', channel=0, note=47, velocity=64, time=1),
    Message('note_off', channel=0, note=54, velocity=64, time=1),
    Message('note_off', channel=2, note=59, velocity=64, time=0),
    Message('control_change', channel=5, control=1, value=50, time=3),
    Message('note_off', channel=2, note=47, velocity=64, time=0),
    Message('control_change', channel=3, control=1, value=69, time=0),
    Message('note_off', channel=2, note=54, velocity=64, time=1),
    Message('control_change', channel=5, control=1, value=71, time=7),
    Message('note_on', channel=0, note=47, velocity=89, time=1),
    Message('note_on', channel=0, note=51, velocity=89, time=0),
    Message('note_on', channel=0, note=54, velocity=89, time=0),
    Message('note_on', channel=1, note=23, velocity=126, time=0),
    Message('note_on', channel=2, note=47, velocity=116, time=0),
    Message('note_on', channel=2, note=54, velocity=110, time=0),
    Message('note_on', channel=2, note=59, velocity=103, time=0),
    Message('note_on', channel=9, note=35, velocity=116, time=0),
    Message('note_on', channel=9, note=44, velocity=116, time=0),
    Message('control_change', channel=3, control=1, value=108, time=0),
    Message('note_off', channel=9, note=35, velocity=64, time=0),
    Message('note_off', channel=9, note=44, velocity=64, time=0),
    Message('note_off', channel=0, note=51, velocity=64, time=3),
    Message('control_change', channel=5, control=1, value=98, time=5),
    Message('control_change', channel=3, control=1, value=127, time=1),
    Message('control_change', channel=5, control=1, value=116, time=10),
    Message('control_change', channel=5, control=1, value=124, time=9),
    Message('note_off', channel=0, note=47, velocity=64, time=4),
    Message('note_off', channel=1, note=23, velocity=64, time=3),
    Message('note_off', channel=0, note=54, velocity=64, time=0),
    Message('control_change', channel=5, control=1, value=126, time=6),
    Message('note_off', channel=2, note=47, velocity=64, time=1),
    Message('note_off', channel=2, note=54, velocity=64, time=3),
    Message('note_on', channel=0, note=47, velocity=89, time=3),
    Message('note_on', channel=0, note=54, velocity=89, time=0),
    Message('note_on', channel=1, note=23, velocity=126, time=0),
    Message('note_on', channel=2, note=47, velocity=126, time=0),
    Message('note_on', channel=2, note=54, velocity=51, time=0),
    Message('note_on', channel=9, note=35, velocity=127, time=0),
    Message('note_on', channel=9, note=44, velocity=126, time=0),
    Message('note_off', channel=9, note=35, velocity=64, time=0),
    Message('note_off', channel=9, note=44, velocity=64, time=0),
    Message('control_change', channel=6, control=64, value=127, time=3),
    Message('control_change', channel=8, control=64, value=127, time=0),
    Message('control_change', channel=5, control=1, value=124, time=3),
    Message('control_change', channel=5, control=1, value=125, time=9),
    Message('control_change', channel=5, control=1, value=112, time=13),
    Message('note_off', channel=0, note=47, velocity=64, time=1),
    Message('note_off', channel=0, note=54, velocity=64, time=6),
    Message('note_off', channel=1, note=23, velocity=64, time=2),
    Message('control_change', channel=5, control=1, value=76, time=0),
    Message('note_off', channel=2, note=54, velocity=64, time=3),
    Message('note_off', channel=2, note=59, velocity=64, time=1),
    Message('note_off', channel=2, note=47, velocity=64, time=1),
    Message('control_change', channel=5, control=1, value=64, time=3),
    Message('note_on', channel=0, note=47, velocity=89, time=3),
    Message('note_on', channel=0, note=54, velocity=89, time=0),
    Message('note_on', channel=1, note=23, velocity=126, time=0),
    Message('note_on', channel=2, note=47, velocity=125, time=0),
    Message('note_on', channel=2, note=54, velocity=117, time=0),
    Message('note_on', channel=2, note=59, velocity=100, time=0),
    Message('note_on', channel=9, note=44, velocity=126, time=0),
    Message('note_off', channel=9, note=44, velocity=64, time=0),
    Message('control_change', channel=5, control=1, value=62, time=5),
    Message('control_change', channel=3, control=1, value=116, time=2),
    Message('control_change', channel=5, control=1, value=44, time=5),
    Message('control_change', channel=3, control=1, value=126, time=7),
    Message('control_change', channel=5, control=1, value=15, time=2),
    Message('control_change', channel=3, control=1, value=127, time=7),
    Message('control_change', channel=5, control=1, value=0, time=1),
    Message('note_off', channel=0, note=47, velocity=64, time=1),
    Message('note_off', channel=0, note=54, velocity=64, time=5),
    Message('note_off', channel=1, note=23, velocity=64, time=1),
    Message('note_off', channel=3, note=78, velocity=64, time=1),
    Message('note_off', channel=8, note=71, velocity=64, time=0),
    Message('note_off', channel=2, note=59, velocity=64, time=1),
    Message('note_off', channel=2, note=54, velocity=64, time=1),
    Message('note_off', channel=2, note=47, velocity=64, time=1),
    Message('control_change', channel=3, control=1, value=80, time=1),
    Message('note_off', channel=5, note=76, velocity=64, time=1),
    Message('pitchwheel', channel=3, pitch=-450, time=1),
    Message('pitchwheel', channel=5, pitch=2184, time=3),
    Message('pitchwheel', channel=3, pitch=-8192, time=1),
    Message('note_on', channel=0, note=47, velocity=89, time=1),
    Message('note_on', channel=0, note=51, velocity=89, time=0),
    Message('note_on', channel=0, note=54, velocity=89, time=0),
    Message('note_on', channel=1, note=23, velocity=126, time=0),
    Message('note_on', channel=2, note=47, velocity=127, time=0),
    Message('note_on', channel=2, note=54, velocity=117, time=0),
    Message('note_on', channel=2, note=59, velocity=111, time=0),
    Message('note_on', channel=3, note=78, velocity=126, time=0),
    Message('note_on', channel=5, note=76, velocity=104, time=0),
    Message('note_on', channel=6, note=81, velocity=105, time=0),
    Message('note_on', channel=8, note=57, velocity=121, time=0),
    Message('note_on', channel=8, note=69, velocity=127, time=0),
    Message('note_on', channel=9, note=40, velocity=127, time=0),
    Message('note_on', channel=9, note=44, velocity=126, time=0),
    Message('note_off', channel=9, note=40, velocity=64, time=0),
    Message('note_off', channel=9, note=44, velocity=64, time=0),
    Message('control_change', channel=3, control=1, value=0, time=1),
    Message('pitchwheel', channel=5, pitch=0, time=1),
    Message('note_off', channel=0, note=51, velocity=64, time=1),
    Message('pitchwheel', channel=3, pitch=0, time=3),
    Message('pitchwheel', channel=5, pitch=8191, time=2),
    Message('note_off', channel=8, note=59, velocity=64, time=1),
    Message('control_change', channel=6, control=64, value=0, time=2),
    Message('control_change', channel=8, control=64, value=0, time=0),
    Message('note_off', channel=6, note=78, velocity=64, time=1),
    Message('control_change', channel=6, control=64, value=127, time=17),
    Message('control_change', channel=8, control=64, value=127, time=0),
    Message('note_off', channel=2, note=47, velocity=64, time=13),
    Message('note_off', channel=1, note=23, velocity=64, time=0),
    Message('control_change', channel=5, control=1, value=2, time=1),
    Message('note_on', channel=0, note=45, velocity=89, time=5),
    Message('note_on', channel=1, note=21, velocity=126, time=0),
    Message('note_on', channel=2, note=45, velocity=126, time=0),
    Message('note_on', channel=2, note=47, velocity=109, time=0),
    Message('note_on', channel=2, note=52, velocity=113, time=0),
    Message('note_on', channel=2, note=57, velocity=109, time=0),
    Message('note_on', channel=9, note=35, velocity=127, time=0),
    Message('note_on', channel=9, note=44, velocity=116, time=0),
    Message('note_off', channel=9, note=35, velocity=64, time=0),
    Message('note_off', channel=9, note=44, velocity=64, time=0),
    Message('control_change', channel=5, control=1, value=14, time=3),
    Message('note_off', channel=2, note=54, velocity=64, time=2),
    Message('note_off', channel=2, note=47, velocity=64, time=3),
    Message('note_off', channel=2, note=59, velocity=64, time=1),
    Message('control_change', channel=5, control=1, value=18, time=2),
    Message('control_change', channel=5, control=1, value=12, time=8),
    Message('control_change', channel=5, control=1, value=0, time=7),
    Message('note_off', channel=0, note=47, velocity=64, time=2),
    Message('note_off', channel=8, note=69, velocity=64, time=8),
    Message('note_off', channel=2, note=52, velocity=64, time=3),
    Message('note_off', channel=1, note=21, velocity=64, time=1),
    Message('note_off', channel=0, note=45, velocity=64, time=2),
    Message('note_off', channel=0, note=54, velocity=64, time=0),
    Message('note_off', channel=2, note=45, velocity=64, time=0),
    Message('note_off', channel=2, note=57, velocity=64, time=1),
    Message('pitchwheel', channel=5, pitch=5493, time=4),
    Message('note_on', channel=0, note=43, velocity=89, time=1),
    Message('note_on', channel=0, note=47, velocity=89, time=0),
    Message('note_on', channel=0, note=50, velocity=89, time=0),
    Message('note_on', channel=0, note=55, velocity=89, time=0),
    Message('note_on', channel=1, note=19, velocity=126, time=0),
    Message('note_on', channel=2, note=43, velocity=127, time=0),
    Message('note_on', channel=2, note=50, velocity=111, time=0),
    Message('note_on', channel=2, note=55, velocity=113, time=0),
    Message('note_on', channel=3, note=76, velocity=126, time=0),
    Message('note_on', channel=6, note=79, velocity=113, time=0),
    Message('note_on', channel=8, note=55, velocity=113, time=0),
    Message('note_on', channel=8, note=65, velocity=116, time=0),
    Message('note_on', channel=8, note=67, velocity=127, time=0),
    Message('note_on', channel=9, note=35, velocity=127, time=0),
    Message('note_on', channel=9, note=44, velocity=126, time=0),
    Message('pitchwheel', channel=3, pitch=-8192, time=0),
    Message('note_off', channel=8, note=57, velocity=64, time=0),
    Message('note_off', channel=9, note=35, velocity=64, time=0),
    Message('note_off', channel=9, note=44, velocity=64, time=0),
    Message('note_off', channel=3, note=78, velocity=64, time=1),
    Message('note_off', channel=8, note=65, velocity=64, time=1),
    Message('pitchwheel', channel=5, pitch=0, time=1),
    Message('note_off', channel=6, note=81, velocity=64, time=4),
    Message('pitchwheel', channel=3, pitch=0, time=1),
    Message('control_change', channel=6, control=64, value=0, time=1),
    Message('control_change', channel=8, control=64, value=0, time=0),
    Message('note_on', channel=3, note=74, velocity=95, time=15),
    Message('note_on', channel=5, note=74, velocity=101, time=0),
    Message('note_off', channel=3, note=76, velocity=64, time=1),
    Message('note_off', channel=5, note=76, velocity=64, time=4),
    Message('note_off', channel=0, note=47, velocity=64, time=2),
    Message('note_off', channel=0, note=50, velocity=64, time=4),
    Message('note_off', channel=0, note=55, velocity=64, time=1),
    Message('note_off', channel=0, note=43, velocity=64, time=4),
    Message('note_off', channel=1, note=19, velocity=64, time=1),
    Message('note_off', channel=2, note=43, velocity=64, time=0),
    Message('note_off', channel=2, note=55, velocity=64, time=3),
    Message('note_off', channel=5, note=74, velocity=64, time=1),
    Message('note_on', channel=0, note=43, velocity=89, time=3),
    Message('note_on', channel=0, note=47, velocity=89, time=0),
    Message('note_on', channel=0, note=50, velocity=89, time=0),
    Message('note_on', channel=0, note=55, velocity=89, time=0),
    Message('note_on', channel=1, note=19, velocity=126, time=0),
    Message('note_on', channel=2, note=43, velocity=116, time=0),
    Message('note_on', channel=2, note=55, velocity=121, time=0),
    Message('note_on', channel=3, note=71, velocity=126, time=0),
    Message('note_on', channel=5, note=71, velocity=87, time=0),
    Message('note_on', channel=9, note=35, velocity=107, time=0),
    Message('note_on', channel=9, note=44, velocity=116, time=0),
    Message('note_off', channel=9, note=35, velocity=64, time=0),
    Message('note_off', channel=9, note=44, velocity=64, time=0),
    Message('note_off', channel=3, note=74, velocity=64, time=2),
    Message('note_off', channel=0, note=47, velocity=64, time=24),
    Message('control_change', channel=5, control=1, value=1, time=0),
    Message('note_off', channel=0, note=50, velocity=64, time=3),
    Message('note_off', channel=1, note=19, velocity=64, time=2),
    Message('note_off', channel=0, note=55, velocity=64, time=2),
    Message('note_off', channel=0, note=43, velocity=64, time=1),
    Message('control_change', channel=5, control=1, value=32, time=1),
    Message('note_off', channel=2, note=50, velocity=64, time=5),
    Message('control_change', channel=3, control=1, value=25, time=1),
    Message('note_off', channel=2, note=43, velocity=64, time=1),
    Message('note_off', channel=2, note=55, velocity=64, time=1),
    Message('control_change', channel=5, control=1, value=102, time=1),
    Message('control_change', channel=6, control=64, value=127, time=0),
    Message('control_change', channel=8, control=64, value=127, time=0),
    Message('note_on', channel=0, note=43, velocity=89, time=4),
    Message('note_on', channel=0, note=47, velocity=89, time=0),
    Message('note_on', channel=0, note=50, velocity=89, time=0),
    Message('note_on', channel=0, note=55, velocity=89, time=0),
    Message('note_on', channel=1, note=19, velocity=126, time=0),
    Message('note_on', channel=2, note=43, velocity=127, time=0),
    Message('note_on', channel=2, note=50, velocity=116, time=0),
    Message('note_on', channel=2, note=55, velocity=121, time=0),
    Message('note_on', channel=9, note=40, velocity=127, time=0),
    Message('note_on', channel=9, note=44, velocity=126, time=0),
    Message('note_off', channel=9, note=40, velocity=64, time=0),
    Message('note_off', channel=9, note=44, velocity=64, time=0),
    Message('control_change', channel=3, control=1, value=91, time=1),
    Message('control_change', channel=5, control=1, value=127, time=4),
    Message('control_change', channel=3, control=1, value=127, time=5),
    Message('note_off', channel=8, note=67, velocity=64, time=9),
    Message('note_off', channel=0, note=47, velocity=64, time=5),
    Message('note_off', channel=0, note=50, velocity=64, time=4),
    Message('note_off', channel=2, note=50, velocity=64, time=1),
    Message('note_off', channel=0, note=55, velocity=64, time=2),
    Message('note_off', channel=1, note=19, velocity=64, time=2),
    Message('note_off', channel=6, note=79, velocity=64, time=0),
    Message('note_off', channel=6, note=74, velocity=64, time=1),
    Message('note_off', channel=0, note=43, velocity=64, time=5),
    Message('note_off', channel=2, note=43, velocity=64, time=2),
    Message('note_off', channel=2, note=55, velocity=64, time=2),
    Message('note_off', channel=6, note=83, velocity=64, time=1),
    Message('note_on', channel=0, note=43, velocity=89, time=4),
    Message('note_on', channel=0, note=47, velocity=89, time=0),
    Message('note_on', channel=0, note=50, velocity=89, time=0),
    Message('note_on', channel=0, note=55, velocity=89, time=0),
    Message('note_on', channel=1, note=19, velocity=126, time=0),
    Message('note_on', channel=2, note=43, velocity=113, time=0),
    Message('note_on', channel=2, note=45, velocity=125, time=0),
    Message('note_on', channel=2, note=50, velocity=123, time=0),
    Message('note_on', channel=2, note=55, velocity=121, time=0),
    Message('note_on', channel=9, note=35, velocity=127, time=0),
    Message('note_on', channel=9, note=44, velocity=126, time=0),
    Message('note_off', channel=9, note=35, velocity=64, time=0),
    Message('note_off', channel=9, note=44, velocity=64, time=0),
    Message('note_off', channel=8, note=55, velocity=64, time=2),
    Message('note_off', channel=2, note=45, velocity=64, time=13),
    Message('note_off', channel=0, note=55, velocity=64, time=16),
    Message('note_off', channel=0, note=47, velocity=64, time=7),
    Message('note_off', channel=2, note=50, velocity=64, time=1),
    Message('note_off', channel=0, note=50, velocity=64, time=1),
    Message('note_off', channel=3, note=71, velocity=64, time=1),
    Message('note_off', channel=2, note=43, velocity=64, time=1),
    Message('note_off', channel=2, note=55, velocity=64, time=0),
    Message('note_off', channel=1, note=19, velocity=64, time=3),
    Message('control_change', channel=3, control=1, value=0, time=2),
    Message('note_on', channel=9, note=43, velocity=116, time=0),
    Message('note_off', channel=0, note=43, velocity=64, time=1),
    Message('note_on', channel=0, note=45, velocity=89, time=0),
    Message('note_on', channel=0, note=52, velocity=89, time=0),
    Message('note_on', channel=0, note=57, velocity=89, time=0),
    Message('note_on', channel=1, note=21, velocity=126, time=0),
    Message('note_on', channel=2, note=45, velocity=127, time=0),
    Message('note_on', channel=2, note=52, velocity=127, time=0),
    Message('note_on', channel=2, note=57, velocity=127, time=0),
    Message('note_on', channel=6, note=81, velocity=127, time=0),
    Message('note_on', channel=8, note=45, velocity=127, time=0),
    Message('note_on', channel=8, note=57, velocity=127, time=0),
    Message('note_on', channel=9, note=35, velocity=127, time=0),
    Message('note_off', channel=9, note=43, velocity=64, time=0),
    Message('control_change', channel=5, control=1, value=0, time=0),
    Message('note_off', channel=9, note=35, velocity=64, time=0),
    Message('note_off', channel=5, note=71, velocity=64, time=1),
    Message('pitchwheel', channel=5, pitch=0, time=4),
    Message('control_change', channel=6, control=64, value=0, time=5),
    Message('control_change', channel=8, control=64, value=0, time=0),
    Message('note_off', channel=0, note=52, velocity=64, time=26),
    Message('note_off', channel=0, note=45, velocity=64, time=1),
    Message('note_off', channel=2, note=45, velocity=64, time=2),
    Message('note_off', channel=8, note=57, velocity=64, time=1),
    Message('note_off', channel=1, note=21, velocity=64, time=0),
    Message('note_off', channel=6, note=81, velocity=64, time=0),
    Message('note_off', channel=8, note=45, velocity=64, time=1),
    Message('note_off', channel=0, note=57, velocity=64, time=0),
    Message('note_off', channel=2, note=52, velocity=64, time=3),
    Message('note_off', channel=2, note=57, velocity=64, time=1),
    Message('note_on', channel=3, note=71, velocity=126, time=51),
    Message('note_off', channel=3, note=71, velocity=64, time=39),
    Message('note_on', channel=3, note=74, velocity=126, time=9),
    Message('note_off', channel=3, note=74, velocity=64, time=17),
    Message('note_on', channel=3, note=74, velocity=126, time=7),
    Message('note_off', channel=3, note=74, velocity=64, time=22),
    Message('note_on', channel=1, note=26, velocity=125, time=2),
    Message('note_on', channel=9, note=35, velocity=127, time=0),
    Message('note_on', channel=9, note=49, velocity=126, time=0),
    Message('note_off', channel=9, note=35, velocity=64, time=0),
    Message('note_off', channel=9, note=49, velocity=64, time=0),
    Message('note_off', channel=1, note=26, velocity=64, time=24),
    Message('note_on', channel=1, note=26, velocity=126, time=24),
    Message('note_on', channel=9, note=35, velocity=127, time=0),
    Message('note_off', channel=9, note=35, velocity=64, time=0),
    Message('note_on', channel=0, note=55, velocity=89, time=48),
    Message('note_on', channel=1, note=31, velocity=126, time=0),
    Message('note_on', channel=2, note=55, velocity=110, time=0),
    Message('note_on', channel=9, note=46, velocity=126, time=0),
    Message('note_off', channel=1, note=26, velocity=64, time=0),
    Message('note_off', channel=9, note=46, velocity=64, time=0),
    Message('note_on', channel=9, note=46, velocity=122, time=16),
    Message('note_off', channel=9, note=46, velocity=64, time=0),
    Message('pitchwheel', channel=0, pitch=0, time=4),
    Message('pitchwheel', channel=2, pitch=0, time=0),
    Message('pitchwheel', channel=0, pitch=2805, time=4),
    Message('pitchwheel', channel=2, pitch=2805, time=0),
    Message('pitchwheel', channel=1, pitch=3373, time=2),
    Message('pitchwheel', channel=0, pitch=4930, time=2),
    Message('pitchwheel', channel=2, pitch=4930, time=0),
    Message('pitchwheel', channel=1, pitch=8191, time=2),
    Message('pitchwheel', channel=0, pitch=6800, time=2),
    Message('pitchwheel', channel=2, pitch=6800, time=0),
    Message('note_on', channel=9, note=46, velocity=124, time=0),
    Message('note_off', channel=9, note=46, velocity=64, time=0),
    Message('pitchwheel', channel=0, pitch=8191, time=4),
    Message('pitchwheel', channel=2, pitch=8191, time=0),
    Message('note_on', channel=0, note=60, velocity=89, time=12),
    Message('note_on', channel=0, note=65, velocity=89, time=0),
    Message('note_off', channel=1, note=31, velocity=64, time=0),
    Message('note_on', channel=1, note=41, velocity=126, time=0),
    Message('note_on', channel=2, note=60, velocity=97, time=0),
    Message('note_on', channel=2, note=65, velocity=91, time=0),
    Message('pitchwheel', channel=0, pitch=0, time=1),
    Message('pitchwheel', channel=2, pitch=0, time=0),
    Message('pitchwheel', channel=1, pitch=111, time=0),
    Message('note_off', channel=0, note=55, velocity=64, time=5),
    Message('note_off', channel=2, note=55, velocity=64, time=0),
    Message('pitchwheel', channel=1, pitch=0, time=0),
    Message('note_on', channel=9, note=45, velocity=116, time=42),
    Message('note_off', channel=9, note=45, velocity=64, time=0),
    Message('note_on', channel=9, note=48, velocity=116, time=15),
    Message('note_off', channel=9, note=48, velocity=64, time=1),
    Message('note_on', channel=9, note=48, velocity=116, time=16),
    Message('note_off', channel=9, note=48, velocity=64, time=0),
    Message('control_change', channel=0, control=1, value=23, time=11),
    Message('control_change', channel=2, control=1, value=23, time=0),
    Message('note_on', channel=9, note=48, velocity=116, time=4),
    Message('note_off', channel=9, note=48, velocity=64, time=1),
    Message('control_change', channel=0, control=1, value=53, time=3),
    Message('control_change', channel=2, control=1, value=53, time=0),
    Message('control_change', channel=0, control=1, value=107, time=9),
    Message('control_change', channel=2, control=1, value=107, time=0),
    Message('note_on', channel=9, note=48, velocity=116, time=3),
    Message('note_off', channel=9, note=48, velocity=64, time=1),
    Message('control_change', channel=0, control=1, value=127, time=4),
    Message('control_change', channel=2, control=1, value=127, time=0),
    Message('note_on', channel=9, note=48, velocity=116, time=12),
    Message('note_off', channel=9, note=48, velocity=64, time=0),
    Message('note_on', channel=9, note=45, velocity=116, time=15),
    Message('note_on', channel=1, note=38, velocity=126, time=1),
    Message('note_off', channel=9, note=45, velocity=64, time=0),
    Message('note_off', channel=1, note=41, velocity=64, time=7),
    Message('note_on', channel=9, note=45, velocity=116, time=9),
    Message('note_off', channel=9, note=45, velocity=64, time=0),
    Message('note_on', channel=9, note=45, velocity=116, time=15),
    Message('note_off', channel=9, note=45, velocity=64, time=1),
    Message('control_change', channel=0, control=1, value=111, time=10),
    Message('control_change', channel=2, control=1, value=111, time=0),
    Message('note_on', channel=9, note=43, velocity=116, time=6),
    Message('note_off', channel=9, note=43, velocity=64, time=0),
    Message('control_change', channel=0, control=1, value=107, time=2),
    Message('control_change', channel=2, control=1, value=107, time=0),
    Message('control_change', channel=0, control=1, value=127, time=9),
    Message('control_change', channel=2, control=1, value=127, time=0),
    Message('note_on', channel=9, note=43, velocity=116, time=4),
    Message('note_off', channel=9, note=43, velocity=64, time=1),
    Message('control_change', channel=0, control=1, value=95, time=5),
    Message('control_change', channel=2, control=1, value=95, time=0),
    Message('control_change', channel=0, control=1, value=127, time=8),
    Message('control_change', channel=2, control=1, value=127, time=0),
    Message('note_on', channel=9, note=43, velocity=116, time=2),
    Message('note_off', channel=9, note=43, velocity=64, time=1),
    Message('note_off', channel=0, note=60, velocity=64, time=4),
    Message('note_off', channel=2, note=60, velocity=64, time=0),
    Message('note_off', channel=0, note=65, velocity=64, time=2),
    Message('note_off', channel=2, note=65, velocity=64, time=0),
    Message('control_change', channel=0, control=1, value=107, time=1),
    Message('control_change', channel=2, control=1, value=107, time=0),
    Message('note_off', channel=1, note=38, velocity=64, time=2),
    Message('control_change', channel=0, control=1, value=0, time=7),
    Message('note_on', channel=1, note=26, velocity=126, time=0),
    Message('control_change', channel=2, control=1, value=0, time=0),
    Message('note_on', channel=9, note=35, velocity=127, time=0),
    Message('note_off', channel=9, note=35, velocity=64, time=0),
    Message('note_off', channel=1, note=26, velocity=64, time=16),
    Message('note_on', channel=1, note=26, velocity=126, time=32),
    Message('note_on', channel=9, note=35, velocity=127, time=0),
    Message('note_off', channel=9, note=35, velocity=64, time=0),
    Message('note_off', channel=1, note=26, velocity=64, time=39),
    Message('note_on', channel=0, note=55, velocity=89, time=9),
    Message('note_on', channel=1, note=31, velocity=126, time=0),
    Message('note_on', channel=2, note=55, velocity=100, time=0),
    Message('note_on', channel=9, note=46, velocity=126, time=0),
    Message('note_off', channel=9, note=46, velocity=64, time=0),
    Message('note_on', channel=9, note=46, velocity=126, time=16),
    Message('note_off', channel=9, note=46, velocity=64, time=0),
    Message('pitchwheel', channel=0, pitch=2465, time=12),
    Message('pitchwheel', channel=2, pitch=2465, time=0),
    Message('pitchwheel', channel=1, pitch=8191, time=1),
    Message('pitchwheel', channel=0, pitch=5780, time=3),
    Message('pitchwheel', channel=2, pitch=5780, time=0),
    Message('note_on', channel=9, note=46, velocity=125, time=0),
    Message('note_off', channel=9, note=46, velocity=64, time=0),
    Message('pitchwheel', channel=0, pitch=8191, time=4),
    Message('pitchwheel', channel=2, pitch=8191, time=0),
    Message('pitchwheel', channel=0, pitch=0, time=8),
    Message('pitchwheel', channel=2, pitch=0, time=0),
    Message('pitchwheel', channel=1, pitch=0, time=2),
    Message('note_on', channel=0, note=60, velocity=89, time=2),
    Message('note_on', channel=0, note=65, velocity=89, time=0),
    Message('note_on', channel=1, note=41, velocity=126, time=0),
    Message('note_on', channel=2, note=60, velocity=94, time=0),
    Message('note_on', channel=2, note=65, velocity=94, time=0),
    Message('note_off', channel=1, note=31, velocity=64, time=1),
    Message('note_off', channel=0, note=55, velocity=64, time=4),
    Message('note_off', channel=2, note=55, velocity=64, time=0),
    Message('note_on', channel=9, note=48, velocity=116, time=43),
    Message('note_off', channel=9, note=48, velocity=64, time=0),
    Message('note_on', channel=9, note=48, velocity=116, time=15),
    Message('note_off', channel=9, note=48, velocity=64, time=1),
    Message('note_on', channel=9, note=48, velocity=116, time=15),
    Message('note_off', channel=9, note=48, velocity=64, time=1),
    Message('note_on', channel=9, note=48, velocity=116, time=15),
    Message('note_off', channel=9, note=48, velocity=64, time=1),
    Message('note_on', channel=9, note=48, velocity=116, time=15),
    Message('note_off', channel=9, note=48, velocity=64, time=1),
    Message('control_change', channel=0, control=1, value=27, time=10),
    Message('control_change', channel=2, control=1, value=27, time=0),
    Message('note_on', channel=9, note=48, velocity=116, time=6),
    Message('note_off', channel=9, note=48, velocity=64, time=0),
    Message('control_change', channel=0, control=1, value=48, time=2),
    Message('control_change', channel=2, control=1, value=48, time=0),
    Message('control_change', channel=0, control=1, value=70, time=8),
    Message('control_change', channel=2, control=1, value=70, time=0),
    Message('note_on', channel=1, note=38, velocity=126, time=6),
    Message('note_off', channel=1, note=41, velocity=64, time=0),
    Message('note_on', channel=9, note=45, velocity=116, time=0),
    Message('note_off', channel=9, note=45, velocity=64, time=0),
    Message('control_change', channel=0, control=1, value=101, time=3),
    Message('control_change', channel=2, control=1, value=101, time=0),
    Message('note_on', channel=9, note=45, velocity=116, time=12),
    Message('note_off', channel=9, note=45, velocity=64, time=1),
    Message('control_change', channel=0, control=1, value=111, time=3),
    Message('control_change', channel=2, control=1, value=111, time=0),
    Message('note_on', channel=9, note=45, velocity=116, time=13),
    Message('note_off', channel=9, note=45, velocity=64, time=0),
    Message('control_change', channel=0, control=1, value=118, time=6),
    Message('control_change', channel=2, control=1, value=118, time=0),
    Message('note_on', channel=9, note=43, velocity=116, time=9),
    Message('note_off', channel=9, note=43, velocity=64, time=1),
    Message('control_change', channel=0, control=1, value=114, time=4),
    Message('control_change', channel=2, control=1, value=114, time=0),
    Message('note_on', channel=9, note=43, velocity=116, time=12),
    Message('control_change', channel=0, control=1, value=125, time=0),
    Message('control_change', channel=2, control=1, value=125, time=0),
    Message('note_off', channel=9, note=43, velocity=64, time=0),
    Message('note_off', channel=0, note=65, velocity=64, time=14),
    Message('note_off', channel=2, note=65, velocity=64, time=0),
    Message('control_change', channel=0, control=1, value=107, time=1),
    Message('control_change', channel=2, control=1, value=107, time=0),
    Message('note_on', channel=9, note=43, velocity=116, time=0),
    Message('note_off', channel=9, note=43, velocity=64, time=1),
    Message('note_off', channel=0, note=60, velocity=64, time=2),
    Message('note_off', channel=2, note=60, velocity=64, time=0),
    Message('control_change', channel=0, control=1, value=95, time=5),
    Message('control_change', channel=2, control=1, value=95, time=0),
    Message('note_off', channel=1, note=38, velocity=64, time=1),
    Message('control_change', channel=0, control=1, value=0, time=7),
    Message('control_change', channel=2, control=1, value=0, time=0),
    Message('note_on', channel=1, note=26, velocity=126, time=1),
    Message('note_on', channel=9, note=35, velocity=127, time=0),
    Message('note_off', channel=9, note=35, velocity=64, time=0),
    Message('note_off', channel=1, note=26, velocity=64, time=16),
    Message('note_on', channel=1, note=26, velocity=126, time=32),
    Message('note_on', channel=9, note=35, velocity=127, time=0),
    Message('note_off', channel=9, note=35, velocity=64, time=0),
    Message('note_off', channel=1, note=26, velocity=64, time=39),
    Message('note_on', channel=0, note=55, velocity=89, time=9),
    Message('note_on', channel=1, note=31, velocity=126, time=0),
    Message('note_on', channel=2, note=55, velocity=100, time=0),
    Message('note_on', channel=9, note=46, velocity=126, time=0),
    Message('note_off', channel=9, note=46, velocity=64, time=0),
    Message('note_on', channel=9, note=46, velocity=119, time=16),
    Message('note_off', channel=9, note=46, velocity=64, time=0),
    Message('pitchwheel', channel=0, pitch=2380, time=13),
    Message('pitchwheel', channel=1, pitch=5718, time=0),
    Message('pitchwheel', channel=2, pitch=2380, time=0),
    Message('note_on', channel=9, note=46, velocity=125, time=3),
    Message('note_off', channel=9, note=46, velocity=64, time=0),
    Message('pitchwheel', channel=1, pitch=8191, time=1),
    Message('pitchwheel', channel=0, pitch=5355, time=0),
    Message('pitchwheel', channel=2, pitch=5355, time=0),
    Message('pitchwheel', channel=0, pitch=8191, time=4),
    Message('pitchwheel', channel=2, pitch=8191, time=0),
    Message('pitchwheel', channel=0, pitch=0, time=5),
    Message('pitchwheel', channel=2, pitch=0, time=0),
    Message('pitchwheel', channel=1, pitch=6135, time=1),
    Message('pitchwheel', channel=1, pitch=0, time=4),
    Message('note_off', channel=1, note=31, velocity=64, time=0),
    Message('note_on', channel=0, note=60, velocity=89, time=1),
    Message('note_on', channel=0, note=65, velocity=89, time=0),
    Message('note_on', channel=1, note=41, velocity=126, time=0),
    Message('note_on', channel=2, note=60, velocity=91, time=0),
    Message('note_on', channel=2, note=65, velocity=94, time=0),
    Message('note_off', channel=0, note=55, velocity=64, time=7),
    Message('note_off', channel=2, note=55, velocity=64, time=0),
    Message('note_on', channel=9, note=48, velocity=116, time=41),
    Message('note_off', channel=9, note=48, velocity=64, time=0),
    Message('note_on', channel=9, note=48, velocity=116, time=16),
    Message('note_off', channel=9, note=48, velocity=64, time=0),
    Message('note_on', channel=9, note=48, velocity=116, time=15),
    Message('note_off', channel=9, note=48, velocity=64, time=1),
    Message('note_on', channel=9, note=48, velocity=116, time=15),
    Message('note_off', channel=9, note=48, velocity=64, time=1),
    Message('note_on', channel=9, note=48, velocity=116, time=16),
    Message('note_off', channel=9, note=48, velocity=64, time=0),
    Message('control_change', channel=0, control=1, value=33, time=5),
    Message('control_change', channel=2, control=1, value=33, time=0),
    Message('control_change', channel=0, control=1, value=75, time=9),
    Message('control_change', channel=2, control=1, value=75, time=0),
    Message('note_on', channel=9, note=45, velocity=116, time=2),
    Message('note_off', channel=9, note=45, velocity=64, time=0),
    Message('control_change', channel=0, control=1, value=98, time=6),
    Message('control_change', channel=2, control=1, value=98, time=0),
    Message('note_on', channel=9, note=45, velocity=116, time=9),
    Message('note_on', channel=1, note=38, velocity=126, time=1),
    Message('note_off', channel=9, note=45, velocity=64, time=0),
    Message('control_change', channel=0, control=1, value=114, time=0),
    Message('control_change', channel=2, control=1, value=114, time=0),
    Message('note_off', channel=1, note=41, velocity=64, time=4),
    Message('control_change', channel=0, control=1, value=127, time=6),
    Message('control_change', channel=2, control=1, value=127, time=0),
    Message('note_on', channel=9, note=45, velocity=116, time=5),
    Message('note_off', channel=9, note=45, velocity=64, time=1),
    Message('note_on', channel=9, note=45, velocity=116, time=15),
    Message('note_off', channel=9, note=45, velocity=64, time=1),
    Message('note_on', channel=9, note=43, velocity=116, time=15),
    Message('note_off', channel=9, note=43, velocity=64, time=1),
    Message('note_on', channel=9, note=43, velocity=116, time=16),
    Message('note_off', channel=9, note=43, velocity=64, time=0),
    Message('note_on', channel=9, note=43, velocity=116, time=15),
    Message('note_off', channel=9, note=43, velocity=64, time=1),
    Message('note_off', channel=0, note=60, velocity=64, time=6),
    Message('note_off', channel=2, note=60, velocity=64, time=0),
    Message('note_off', channel=0, note=65, velocity=64, time=2),
    Message('note_off', channel=2, note=65, velocity=64, time=0),
    Message('note_off', channel=1, note=38, velocity=64, time=1),
    Message('control_change', channel=0, control=1, value=104, time=2),
    Message('control_change', channel=2, control=1, value=104, time=0),
    Message('note_on', channel=1, note=26, velocity=126, time=5),
    Message('note_on', channel=9, note=35, velocity=127, time=0),
    Message('note_off', channel=9, note=35, velocity=64, time=0),
    Message('control_change', channel=0, control=1, value=0, time=3),
    Message('control_change', channel=2, control=1, value=0, time=0),
    Message('note_off', channel=1, note=26, velocity=64, time=12),
    Message('note_on', channel=1, note=26, velocity=126, time=33),
    Message('note_on', channel=9, note=35, velocity=127, time=0),
    Message('note_off', channel=9, note=35, velocity=64, time=0),
    Message('note_off', channel=1, note=26, velocity=64, time=42),
    Message('note_on', channel=0, note=55, velocity=89, time=6),
    Message('note_on', channel=1, note=31, velocity=126, time=0),
    Message('note_on', channel=2, note=55, velocity=107, time=0),
    Message('note_on', channel=9, note=46, velocity=126, time=0),
    Message('note_off', channel=9, note=46, velocity=64, time=0),
    Message('note_on', channel=9, note=46, velocity=125, time=16),
    Message('note_off', channel=9, note=46, velocity=64, time=0),
    Message('pitchwheel', channel=1, pitch=1349, time=5),
    Message('pitchwheel', channel=1, pitch=8191, time=4),
    Message('pitchwheel', channel=0, pitch=2380, time=2),
    Message('pitchwheel', channel=2, pitch=2380, time=0),
    Message('pitchwheel', channel=0, pitch=5525, time=4),
    Message('pitchwheel', channel=2, pitch=5525, time=0),
    Message('note_on', channel=9, note=46, velocity=122, time=1),
    Message('note_off', channel=9, note=46, velocity=64, time=0),
    Message('pitchwheel', channel=0, pitch=8191, time=3),
    Message('pitchwheel', channel=2, pitch=8191, time=0),
    Message('pitchwheel', channel=1, pitch=7581, time=6),
    Message('pitchwheel', channel=0, pitch=0, time=2),
    Message('pitchwheel', channel=2, pitch=0, time=0),
    Message('pitchwheel', channel=1, pitch=0, time=3),
    Message('note_on', channel=0, note=60, velocity=89, time=2),
    Message('note_on', channel=0, note=65, velocity=89, time=0),
    Message('note_on', channel=1, note=41, velocity=126, time=0),
    Message('note_on', channel=2, note=60, velocity=96, time=0),
    Message('note_on', channel=2, note=65, velocity=97, time=0),
    Message('note_off', channel=1, note=31, velocity=64, time=1),
    Message('note_off', channel=0, note=55, velocity=64, time=6),
    Message('note_off', channel=2, note=55, velocity=64, time=0),
    Message('note_on', channel=9, note=35, velocity=90, time=17),
    Message('note_off', channel=9, note=35, velocity=64, time=0),
    Message('note_on', channel=9, note=40, velocity=119, time=24),
    Message('note_off', channel=9, note=40, velocity=64, time=0),
    Message('note_on', channel=9, note=40, velocity=127, time=8),
    Message('note_off', channel=9, note=40, velocity=64, time=1),
    Message('note_on', channel=9, note=35, velocity=127, time=15),
    Message('note_off', channel=9, note=35, velocity=64, time=0),
    Message('control_change', channel=0, control=1, value=19, time=16),
    Message('control_change', channel=2, control=1, value=19, time=0),
    Message('note_on', channel=9, note=42, velocity=80, time=8),
    Message('control_change', channel=0, control=1, value=39, time=0),
    Message('control_change', channel=2, control=1, value=39, time=0),
    Message('note_off', channel=9, note=42, velocity=64, time=0),
    Message('control_change', channel=0, control=1, value=64, time=9),
    Message('control_change', channel=2, control=1, value=64, time=0),
    Message('control_change', channel=0, control=1, value=111, time=8),
    Message('control_change', channel=2, control=1, value=111, time=0),
    Message('note_on', channel=9, note=40, velocity=119, time=7),
    Message('note_off', channel=9, note=40, velocity=64, time=0),
    Message('control_change', channel=0, control=1, value=121, time=1),
    Message('control_change', channel=2, control=1, value=121, time=0),
    Message('control_change', channel=0, control=1, value=127, time=21),
    Message('control_change', channel=2, control=1, value=127, time=0),
    Message('note_on', channel=1, note=38, velocity=126, time=2),
    Message('note_on', channel=9, note=40, velocity=127, time=0),
    Message('note_off', channel=9, note=40, velocity=64, time=0),
    Message('note_off', channel=1, note=41, velocity=64, time=5),
    Message('note_on', channel=9, note=43, velocity=115, time=18),
    Message('note_off', channel=9, note=43, velocity=64, time=1),
    Message('note_on', channel=9, note=41, velocity=89, time=24),
    Message('note_on', channel=9, note=42, velocity=89, time=0),
    Message('note_off', channel=9, note=41, velocity=64, time=0),
    Message('note_off', channel=9, note=42, velocity=64, time=0),
    Message('control_change', channel=0, control=1, value=125, time=18),
    Message('note_off', channel=0, note=60, velocity=64, time=4),
    Message('note_off', channel=1, note=38, velocity=64, time=0),
    Message('note_off', channel=2, note=60, velocity=64, time=0),
    Message('control_change', channel=2, control=1, value=92, time=2),
    Message('note_on', channel=9, note=35, velocity=125, time=0),
    Message('note_on', channel=9, note=49, velocity=115, time=0),
    Message('note_off', channel=9, note=35, velocity=64, time=0),
    Message('note_off', channel=9, note=49, velocity=64, time=0),
    Message('note_off', channel=0, note=65, velocity=64, time=1),
    Message('note_off', channel=2, note=65, velocity=64, time=0),
    Message('control_change', channel=0, control=1, value=82, time=1),
    Message('control_change', channel=2, control=1, value=1, time=6),
    Message('control_change', channel=0, control=1, value=0, time=2),
    Message('note_on', channel=0, note=50, velocity=89, time=14),
    Message('note_on', channel=0, note=57, velocity=89, time=0),
    Message('note_on', channel=1, note=26, velocity=89, time=0),
    Message('note_on', channel=8, note=62, velocity=113, time=0),
    Message('note_on', channel=8, note=69, velocity=118, time=0),
    Message('note_on', channel=9, note=35, velocity=127, time=0),
    Message('note_on', channel=9, note=57, velocity=126, time=0),
    Message('note_off', channel=9, note=35, velocity=64, time=0),
    Message('note_off', channel=9, note=57, velocity=64, time=0),
    Message('note_off', channel=0, note=50, velocity=64, time=23),
    Message('note_off', channel=1, note=26, velocity=64, time=0),
    Message('note_off', channel=0, note=57, velocity=64, time=5),
    Message('control_change', channel=4, control=1, value=0, time=10),
    Message('pitchwheel', channel=4, pitch=0, time=3),
    Message('note_on', channel=4, note=64, velocity=125, time=6),
    Message('note_on', channel=0, note=50, velocity=89, time=1),
    Message('note_on', channel=0, note=57, velocity=89, time=0),
    Message('note_on', channel=1, note=26, velocity=104, time=0),
    Message('note_on', channel=6, note=72, velocity=121, time=0),
    Message('note_on', channel=6, note=77, velocity=116, time=0),
    Message('note_on', channel=9, note=42, velocity=99, time=0),
    Message('note_on', channel=9, note=51, velocity=113, time=0),
    Message('note_off', channel=9, note=42, velocity=64, time=0),
    Message('note_off', channel=9, note=51, velocity=64, time=0),
    Message('pitchwheel', channel=4, pitch=192, time=21),
    Message('pitchwheel', channel=4, pitch=803, time=4),
    Message('note_off', channel=6, note=72, velocity=64, time=0),
    Message('pitchwheel', channel=4, pitch=1188, time=3),
    Message('note_off', channel=0, note=50, velocity=64, time=1),
    Message('note_off', channel=6, note=77, velocity=64, time=0),
    Message('pitchwheel', channel=4, pitch=1927, time=4),
    Message('note_off', channel=0, note=57, velocity=64, time=3),
    Message('pitchwheel', channel=4, pitch=2891, time=0),
    Message('pitchwheel', channel=4, pitch=3919, time=5),
    Message('note_off', channel=1, note=26, velocity=64, time=2),
    Message('pitchwheel', channel=4, pitch=4722, time=2),
    Message('note_on', channel=7, note=64, velocity=80, time=2),
    Message('note_on', channel=0, note=50, velocity=89, time=1),
    Message('note_on', channel=0, note=59, velocity=89, time=0),
    Message('note_on', channel=1, note=38, velocity=126, time=0),
    Message('note_off', channel=8, note=62, velocity=64, time=0),
    Message('note_on', channel=8, note=62, velocity=127, time=0),
    Message('note_off', channel=8, note=69, velocity=64, time=0),
    Message('note_on', channel=8, note=71, velocity=127, time=0),
    Message('note_on', channel=9, note=40, velocity=127, time=0),
    Message('note_on', channel=9, note=51, velocity=126, time=0),
    Message('note_on', channel=9, note=53, velocity=126, time=0),
    Message('note_off', channel=9, note=40, velocity=64, time=0),
    Message('note_off', channel=9, note=51, velocity=64, time=0),
    Message('note_off', channel=9, note=53, velocity=64, time=0),
    Message('pitchwheel', channel=4, pitch=5075, time=2),
    Message('pitchwheel', channel=4, pitch=5075, time=4),
    Message('note_off', channel=4, note=64, velocity=64, time=2),
    Message('pitchwheel', channel=4, pitch=4561, time=2),
    Message('pitchwheel', channel=4, pitch=2280, time=4),
    Message('pitchwheel', channel=4, pitch=0, time=5),
    Message('note_on', channel=4, note=64, velocity=124, time=6),
    Message('note_off', channel=0, note=50, velocity=64, time=12),
    Message('note_off', channel=1, note=38, velocity=64, time=5),
    Message('note_off', channel=0, note=59, velocity=64, time=3),
    Message('pitchwheel', channel=4, pitch=289, time=1),
    Message('note_on', channel=0, note=50, velocity=89, time=2),
    Message('note_on', channel=0, note=57, velocity=89, time=0),
    Message('note_on', channel=1, note=26, velocity=98, time=0),
    Message('note_on', channel=6, note=72, velocity=127, time=0),
    Message('note_on', channel=6, note=77, velocity=127, time=0),
    Message('note_on', channel=9, note=42, velocity=93, time=0),
    Message('note_on', channel=9, note=51, velocity=126, time=0),
    Message('note_off', channel=9, note=42, velocity=64, time=0),
    Message('note_off', channel=9, note=51, velocity=64, time=0),
    Message('pitchwheel', channel=4, pitch=803, time=1),
    Message('pitchwheel', channel=4, pitch=1895, time=4),
    Message('note_off', channel=7, note=64, velocity=64, time=3),
    Message('pitchwheel', channel=4, pitch=2505, time=1),
    Message('note_off', channel=6, note=72, velocity=64, time=4),
    Message('pitchwheel', channel=4, pitch=2859, time=1),
    Message('note_off', channel=6, note=77, velocity=64, time=1),
    Message('pitchwheel', channel=4, pitch=3180, time=4),
    Message('pitchwheel', channel=4, pitch=3501, time=5),
    Message('note_off', channel=1, note=26, velocity=64, time=0),
    Message('note_on', channel=7, note=64, velocity=79, time=1),
    Message('note_off', channel=0, note=50, velocity=64, time=2),
    Message('pitchwheel', channel=4, pitch=3822, time=1),
    Message('note_off', channel=0, note=57, velocity=64, time=0),
    Message('note_off', channel=4, note=64, velocity=64, time=2),
    Message('pitchwheel', channel=4, pitch=4304, time=2),
    Message('pitchwheel', channel=4, pitch=4626, time=3),
    Message('pitchwheel', channel=4, pitch=4593, time=4),
    Message('pitchwheel', channel=4, pitch=2473, time=4),
    Message('note_on', channel=4, note=64, velocity=125, time=2),
    Message('pitchwheel', channel=4, pitch=0, time=1),
    Message('note_on', channel=0, note=50, velocity=89, time=2),
    Message('note_on', channel=0, note=57, velocity=89, time=0),
    Message('note_on', channel=1, note=26, velocity=106, time=0),
    Message('note_off', channel=8, note=62, velocity=64, time=0),
    Message('note_on', channel=8, note=62, velocity=127, time=0),
    Message('note_on', channel=8, note=69, velocity=127, time=0),
    Message('note_off', channel=8, note=71, velocity=64, time=0),
    Message('note_on', channel=9, note=35, velocity=127, time=0),
    Message('note_on', channel=9, note=51, velocity=126, time=0),
    Message('note_off', channel=9, note=35, velocity=64, time=0),
    Message('note_off', channel=9, note=51, velocity=64, time=0),
    Message('note_off', channel=1, note=26, velocity=64, time=28),
    Message('note_off', channel=0, note=50, velocity=64, time=1),
    Message('note_off', channel=7, note=64, velocity=64, time=1),
    Message('note_off', channel=0, note=57, velocity=64, time=1),
    Message('note_on', channel=7, note=64, velocity=80, time=14),
    Message('note_on', channel=0, note=50, velocity=89, time=3),
    Message('note_on', channel=0, note=57, velocity=89, time=0),
    Message('note_on', channel=1, note=26, velocity=112, time=0),
    Message('note_on', channel=6, note=72, velocity=127, time=0),
    Message('note_on', channel=6, note=77, velocity=127, time=0),
    Message('note_on', channel=9, note=35, velocity=127, time=0),
    Message('note_on', channel=9, note=42, velocity=113, time=0),
    Message('note_on', channel=9, note=51, velocity=126, time=0),
    Message('note_off', channel=9, note=35, velocity=64, time=0),
    Message('note_off', channel=9, note=42, velocity=64, time=0),
    Message('note_off', channel=9, note=51, velocity=64, time=0),
    Message('pitchwheel', channel=4, pitch=1927, time=5),
    Message('pitchwheel', channel=4, pitch=3180, time=4),
    Message('note_off', channel=6, note=77, velocity=64, time=1),
    Message('note_off', channel=6, note=72, velocity=64, time=1),
    Message('pitchwheel', channel=4, pitch=0, time=2),
    Message('note_on', channel=4, note=62, velocity=118, time=8),
    Message('note_off', channel=4, note=64, velocity=64, time=0),
    Message('note_off', channel=0, note=50, velocity=64, time=6),
    Message('note_off', channel=0, note=57, velocity=64, time=0),
    Message('note_off', channel=1, note=26, velocity=64, time=20),
    Message('note_on', channel=0, note=50, velocity=89, time=1),
    Message('note_on', channel=0, note=59, velocity=89, time=0),
    Message('note_on', channel=1, note=31, velocity=104, time=0),
    Message('note_on', channel=6, note=74, velocity=127, time=0),
    Message('note_on', channel=6, note=77, velocity=127, time=0),
    Message('note_off', channel=8, note=62, velocity=64, time=0),
    Message('note_on', channel=8, note=62, velocity=127, time=0),
    Message('note_off', channel=8, note=69, velocity=64, time=0),
    Message('note_on', channel=8, note=71, velocity=127, time=0),
    Message('note_on', channel=9, note=40, velocity=127, time=0),
    Message('note_on', channel=9, note=51, velocity=126, time=0),
    Message('note_on', channel=9, note=53, velocity=126, time=0),
    Message('note_off', channel=9, note=40, velocity=64, time=0),
    Message('note_off', channel=9, note=51, velocity=64, time=0),
    Message('note_off', channel=9, note=53, velocity=64, time=0),
    Message('note_off', channel=1, note=31, velocity=64, time=20),
    Message('note_on', channel=7, note=62, velocity=73, time=1),
    Message('note_off', channel=7, note=64, velocity=64, time=0),
    Message('note_on', channel=1, note=33, velocity=106, time=3),
    Message('note_off', channel=0, note=50, velocity=64, time=3),
    Message('note_off', channel=0, note=59, velocity=64, time=6),
    Message('note_off', channel=4, note=62, velocity=64, time=7),
    Message('note_on', channel=4, note=72, velocity=125, time=1),
    Message('note_off', channel=6, note=74, velocity=64, time=1),
    Message('note_off', channel=1, note=33, velocity=64, time=2),
    Message('pitchwheel', channel=4, pitch=706, time=2),
    Message('note_on', channel=0, note=50, velocity=89, time=2),
    Message('note_on', channel=0, note=57, velocity=89, time=0),
    Message('note_on', channel=1, note=36, velocity=122, time=0),
    Message('note_on', channel=6, note=72, velocity=105, time=0),
    Message('note_on', channel=9, note=42, velocity=89, time=0),
    Message('note_on', channel=9, note=51, velocity=126, time=0),
    Message('note_off', channel=9, note=42, velocity=64, time=0),
    Message('note_off', channel=9, note=51, velocity=64, time=0),
    Message('pitchwheel', channel=4, pitch=2570, time=2),
    Message('note_off', channel=6, note=77, velocity=64, time=3),
    Message('pitchwheel', channel=4, pitch=3662, time=1),
    Message('note_off', channel=6, note=72, velocity=64, time=4),
    Message('pitchwheel', channel=4, pitch=3598, time=3),
    Message('pitchwheel', channel=4, pitch=4401, time=4),
    Message('pitchwheel', channel=4, pitch=4850, time=4),
    Message('pitchwheel', channel=4, pitch=5557, time=4),
    Message('note_off', channel=0, note=50, velocity=64, time=1),
    Message('note_off', channel=0, note=57, velocity=64, time=0),
    Message('pitchwheel', channel=4, pitch=5878, time=4),
    Message('pitchwheel', channel=4, pitch=6425, time=3),
    Message('pitchwheel', channel=4, pitch=6746, time=4),
    Message('note_off', channel=7, note=62, velocity=64, time=3),
    Message('pitchwheel', channel=4, pitch=6971, time=1),
    Message('note_on', channel=7, note=72, velocity=80, time=0),
    Message('note_off', channel=1, note=36, velocity=64, time=3),
    Message('pitchwheel', channel=4, pitch=7131, time=1),
    Message('note_on', channel=0, note=50, velocity=89, time=3),
    Message('note_on', channel=0, note=57, velocity=89, time=0),
    Message('note_on', channel=1, note=26, velocity=120, time=0),
    Message('note_off', channel=8, note=62, velocity=64, time=0),
    Message('note_on', channel=8, note=62, velocity=103, time=0),
    Message('note_on', channel=8, note=69, velocity=109, time=0),
    Message('note_off', channel=8, note=71, velocity=64, time=0),
    Message('note_on', channel=9, note=35, velocity=127, time=0),
    Message('note_on', channel=9, note=51, velocity=126, time=0),
    Message('note_off', channel=9, note=35, velocity=64, time=0),
    Message('note_off', channel=9, note=51, velocity=64, time=0),
    Message('pitchwheel', channel=4, pitch=7388, time=2),
    Message('pitchwheel', channel=4, pitch=7517, time=4),
    Message('pitchwheel', channel=4, pitch=7613, time=5),
    Message('pitchwheel', channel=4, pitch=7774, time=4),
    Message('pitchwheel', channel=4, pitch=7999, time=6),
    Message('note_off', channel=0, note=50, velocity=64, time=4),
    Message('pitchwheel', channel=4, pitch=8095, time=0),
    Message('note_off', channel=0, note=57, velocity=64, time=1),
    Message('pitchwheel', channel=4, pitch=8191, time=3),
    Message('note_off', channel=1, note=26, velocity=64, time=7),
    Message('note_on', channel=0, note=50, velocity=89, time=12),
    Message('note_on', channel=0, note=57, velocity=89, time=0),
    Message('note_on', channel=1, note=26, velocity=110, time=0),
    Message('note_on', channel=6, note=72, velocity=125, time=0),
    Message('note_on', channel=6, note=77, velocity=109, time=0),
    Message('note_on', channel=9, note=42, velocity=87, time=0),
    Message('note_on', channel=9, note=51, velocity=126, time=0),
    Message('note_off', channel=9, note=42, velocity=64, time=0),
    Message('note_off', channel=9, note=51, velocity=64, time=0),
    Message('note_off', channel=6, note=72, velocity=64, time=9),
    Message('note_off', channel=6, note=77, velocity=64, time=2),
    Message('note_off', channel=0, note=50, velocity=64, time=12),
    Message('note_off', channel=0, note=57, velocity=64, time=3),
    Message('note_off', channel=1, note=26, velocity=64, time=21),
    Message('note_on', channel=0, note=50, velocity=89, time=1),
    Message('note_on', channel=0, note=59, velocity=89, time=0),
    Message('note_on', channel=1, note=38, velocity=126, time=0),
    Message('note_off', channel=8, note=62, velocity=64, time=0),
    Message('note_on', channel=8, note=62, velocity=56, time=0),
    Message('note_off', channel=8, note=69, velocity=64, time=0),
    Message('note_on', channel=8, note=71, velocity=111, time=0),
    Message('note_on', channel=9, note=40, velocity=127, time=0),
    Message('note_on', channel=9, note=51, velocity=126, time=0),
    Message('note_on', channel=9, note=53, velocity=126, time=0),
    Message('note_off', channel=9, note=40, velocity=64, time=0),
    Message('note_off', channel=9, note=51, velocity=64, time=0),
    Message('note_off', channel=9, note=53, velocity=64, time=0),
    Message('control_change', channel=4, control=1, value=8, time=18),
    Message('note_off', channel=0, note=50, velocity=64, time=6),
    Message('note_off', channel=0, note=59, velocity=64, time=1),
    Message('control_change', channel=4, control=1, value=26, time=2),
    Message('control_change', channel=4, control=1, value=67, time=7),
    Message('control_change', channel=4, control=1, value=119, time=8),
    Message('note_on', channel=0, note=50, velocity=89, time=6),
    Message('note_on', channel=0, note=57, velocity=89, time=0),
    Message('note_on', channel=1, note=26, velocity=104, time=0),
    Message('note_on', channel=6, note=72, velocity=127, time=0),
    Message('note_on', channel=6, note=77, velocity=118, time=0),
    Message('note_on', channel=9, note=42, velocity=73, time=0),
    Message('note_on', channel=9, note=51, velocity=126, time=0),
    Message('note_off', channel=9, note=42, velocity=64, time=0),
    Message('note_off', channel=9, note=51, velocity=64, time=0),
    Message('control_change', channel=4, control=1, value=126, time=2),
    Message('note_off', channel=1, note=26, velocity=64, time=3),
    Message('note_off', channel=6, note=72, velocity=64, time=4),
    Message('note_off', channel=6, note=77, velocity=64, time=1),
    Message('control_change', channel=4, control=1, value=127, time=2),
    Message('note_off', channel=0, note=57, velocity=64, time=12),
    Message('note_off', channel=0, note=50, velocity=64, time=0),
    Message('note_off', channel=1, note=38, velocity=64, time=3),
    Message('note_on', channel=0, note=50, velocity=89, time=21),
    Message('note_on', channel=0, note=57, velocity=89, time=0),
    Message('note_on', channel=1, note=26, velocity=110, time=0),
    Message('note_off', channel=8, note=62, velocity=64, time=0),
    Message('note_on', channel=8, note=62, velocity=113, time=0),
    Message('note_on', channel=8, note=69, velocity=116, time=0),
    Message('note_off', channel=8, note=71, velocity=64, time=0),
    Message('note_on', channel=9, note=35, velocity=127, time=0),
    Message('note_on', channel=9, note=51, velocity=126, time=0),
    Message('note_off', channel=9, note=35, velocity=64, time=0),
    Message('note_off', channel=9, note=51, velocity=64, time=0),
    Message('note_off', channel=0, note=50, velocity=64, time=24),
    Message('note_off', channel=0, note=57, velocity=64, time=2),
    Message('note_off', channel=1, note=26, velocity=64, time=0),
    Message('note_on', channel=0, note=50, velocity=89, time=22),
    Message('note_on', channel=0, note=57, velocity=89, time=0),
    Message('note_on', channel=1, note=26, velocity=99, time=0),
    Message('note_on', channel=6, note=72, velocity=109, time=0),
    Message('note_on', channel=6, note=77, velocity=98, time=0),
    Message('note_on', channel=9, note=35, velocity=127, time=0),
    Message('note_on', channel=9, note=42, velocity=93, time=0),
    Message('note_on', channel=9, note=51, velocity=126, time=0),
    Message('note_off', channel=9, note=35, velocity=64, time=0),
    Message('note_off', channel=9, note=42, velocity=64, time=0),
    Message('note_off', channel=9, note=51, velocity=64, time=0),
    Message('note_off', channel=6, note=72, velocity=64, time=8),
    Message('note_off', channel=6, note=77, velocity=64, time=1),
    Message('note_off', channel=0, note=50, velocity=64, time=14),
    Message('note_off', channel=0, note=57, velocity=64, time=2),
    Message('note_off', channel=1, note=26, velocity=64, time=21),
    Message('note_on', channel=0, note=50, velocity=89, time=2),
    Message('note_on', channel=0, note=59, velocity=89, time=0),
    Message('note_on', channel=1, note=31, velocity=108, time=0),
    Message('note_on', channel=3, note=72, velocity=91, time=0),
    Message('note_on', channel=5, note=77, velocity=91, time=0),
    Message('note_on', channel=6, note=74, velocity=127, time=0),
    Message('note_on', channel=6, note=77, velocity=126, time=0),
    Message('note_off', channel=8, note=62, velocity=64, time=0),
    Message('note_on', channel=8, note=62, velocity=89, time=0),
    Message('note_off', channel=8, note=69, velocity=64, time=0),
    Message('note_on', channel=8, note=71, velocity=123, time=0),
    Message('note_on', channel=9, note=40, velocity=127, time=0),
    Message('note_on', channel=9, note=51, velocity=126, time=0),
    Message('note_on', channel=9, note=53, velocity=126, time=0),
    Message('note_off', channel=9, note=40, velocity=64, time=0),
    Message('note_off', channel=9, note=51, velocity=64, time=0),
    Message('note_off', channel=9, note=53, velocity=64, time=0),
    Message('note_off', channel=1, note=31, velocity=64, time=22),
    Message('note_on', channel=1, note=33, velocity=78, time=2),
    Message('note_off', channel=0, note=59, velocity=64, time=0),
    Message('note_off', channel=0, note=50, velocity=64, time=3),
    Message('note_off', channel=3, note=72, velocity=64, time=0),
    Message('note_off', channel=5, note=77, velocity=64, time=0),
    Message('note_off', channel=1, note=33, velocity=64, time=17),
    Message('note_off', channel=6, note=74, velocity=64, time=1),
    Message('note_on', channel=0, note=50, velocity=89, time=3),
    Message('note_on', channel=0, note=57, velocity=89, time=0),
    Message('note_on', channel=1, note=29, velocity=110, time=0),
    Message('note_on', channel=3, note=72, velocity=94, time=0),
    Message('note_on', channel=5, note=77, velocity=94, time=0),
    Message('note_on', channel=6, note=72, velocity=111, time=0),
    Message('note_on', channel=9, note=42, velocity=85, time=0),
    Message('note_on', channel=9, note=51, velocity=126, time=0),
    Message('note_off', channel=9, note=42, velocity=64, time=0),
    Message('note_off', channel=9, note=51, velocity=64, time=0),
    Message('control_change', channel=4, control=1, value=111, time=1),
    Message('note_off', channel=6, note=77, velocity=64, time=1),
    Message('note_off', channel=4, note=72, velocity=64, time=2),
    Message('note_off', channel=6, note=72, velocity=64, time=3),
    Message('control_change', channel=4, control=1, value=0, time=1),
    Message('pitchwheel', channel=4, pitch=6103, time=6),
    Message('pitchwheel', channel=4, pitch=0, time=4),
    Message('note_on', channel=3, note=71, velocity=106, time=6),
    Message('note_on', channel=5, note=76, velocity=106, time=0),
    Message('note_off', channel=0, note=57, velocity=64, time=1),
    Message('note_off', channel=0, note=50, velocity=64, time=1),
    Message('note_off', channel=3, note=72, velocity=64, time=1),
    Message('note_off', channel=5, note=77, velocity=64, time=0),
    Message('note_off', channel=1, note=29, velocity=64, time=16),
    Message('note_on', channel=0, note=50, velocity=89, time=5),
    Message('note_on', channel=0, note=57, velocity=89, time=0),
    Message('note_on', channel=1, note=26, velocity=122, time=0),
    Message('note_off', channel=8, note=62, velocity=64, time=0),
    Message('note_on', channel=8, note=62, velocity=99, time=0),
    Message('note_on', channel=8, note=69, velocity=109, time=0),
    Message('note_off', channel=8, note=71, velocity=64, time=0),
    Message('note_on', channel=9, note=35, velocity=127, time=0),
    Message('note_on', channel=9, note=51, velocity=126, time=0),
    Message('note_off', channel=9, note=35, velocity=64, time=0),
    Message('note_off', channel=9, note=51, velocity=64, time=0),
    Message('note_off', channel=3, note=71, velocity=64, time=2),
    Message('note_off', channel=5, note=76, velocity=64, time=0),
    Message('note_off', channel=7, note=72, velocity=64, time=2),
    Message('note_on', channel=3, note=69, velocity=108, time=20),
    Message('note_on', channel=5, note=74, velocity=108, time=0),
    Message('note_off', channel=0, note=50, velocity=64, time=2),
    Message('note_off', channel=0, note=57, velocity=64, time=0),
    Message('note_off', channel=1, note=26, velocity=64, time=6),
    Message('note_on', channel=0, note=50, velocity=89, time=16),
    Message('note_on', channel=0, note=57, velocity=89, time=0),
    Message('note_on', channel=1, note=26, velocity=117, time=0),
    Message('note_on', channel=6, note=72, velocity=126, time=0),
    Message('note_on', channel=6, note=77, velocity=113, time=0),
    Message('note_on', channel=9, note=42, velocity=89, time=0),
    Message('note_on', channel=9, note=51, velocity=119, time=0),
    Message('note_off', channel=9, note=42, velocity=64, time=0),
    Message('note_off', channel=9, note=51, velocity=64, time=0),
    Message('note_off', channel=6, note=72, velocity=64, time=9),
    Message('note_off', channel=6, note=77, velocity=64, time=2),
    Message('note_off', channel=0, note=50, velocity=64, time=13),
    Message('note_off', channel=0, note=57, velocity=64, time=2),
    Message('note_on', channel=0, note=50, velocity=89, time=22),
    Message('note_on', channel=0, note=59, velocity=89, time=0),
    Message('note_on', channel=1, note=38, velocity=126, time=0),
    Message('note_off', channel=8, note=62, velocity=64, time=0),
    Message('note_on', channel=8, note=62, velocity=89, time=0),
    Message('note_off', channel=8, note=69, velocity=64, time=0),
    Message('note_on', channel=8, note=71, velocity=103, time=0),
    Message('note_on', channel=9, note=40, velocity=127, time=0),
    Message('note_on', channel=9, note=51, velocity=126, time=0),
    Message('note_on', channel=9, note=53, velocity=126, time=0),
    Message('note_on', channel=4, note=77, velocity=87, time=0),
    Message('note_off', channel=9, note=40, velocity=64, time=0),
    Message('note_off', channel=9, note=51, velocity=64, time=0),
    Message('note_off', channel=9, note=53, velocity=64, time=0),
    Message('note_off', channel=1, note=26, velocity=64, time=2),
    Message('control_change', channel=3, control=1, value=12, time=15),
    Message('control_change', channel=5, control=1, value=12, time=0),
    Message('note_off', channel=4, note=77, velocity=64, time=4),
    Message('note_on', channel=4, note=74, velocity=101, time=3),
    Message('control_change', channel=3, control=1, value=25, time=1),
    Message('control_change', channel=5, control=1, value=25, time=0),
    Message('note_off', channel=0, note=50, velocity=64, time=3),
    Message('note_off', channel=0, note=59, velocity=64, time=2),
    Message('control_change', channel=3, control=1, value=32, time=4),
    Message('control_change', channel=5, control=1, value=32, time=0),
    Message('note_off', channel=1, note=38, velocity=64, time=4),
    Message('note_off', channel=4, note=74, velocity=64, time=1),
    Message('control_change', channel=3, control=1, value=35, time=2),
    Message('control_change', channel=5, control=1, value=35, time=0),
    Message('note_on', channel=0, note=50, velocity=89, time=7),
    Message('note_on', channel=0, note=57, velocity=89, time=0),
    Message('note_on', channel=1, note=26, velocity=92, time=0),
    Message('note_on', channel=6, note=72, velocity=123, time=0),
    Message('note_on', channel=6, note=77, velocity=109, time=0),
    Message('note_on', channel=9, note=42, velocity=83, time=0),
    Message('note_on', channel=9, note=51, velocity=119, time=0),
    Message('note_on', channel=7, note=77, velocity=42, time=0),
    Message('note_off', channel=9, note=42, velocity=64, time=0),
    Message('note_off', channel=9, note=51, velocity=64, time=0),
    Message('control_change', channel=3, control=1, value=56, time=2),
    Message('control_change', channel=5, control=1, value=56, time=0),
    Message('control_change', channel=3, control=1, value=92, time=7),
    Message('control_change', channel=5, control=1, value=92, time=0),
    Message('note_off', channel=6, note=72, velocity=64, time=1),
    Message('note_off', channel=6, note=77, velocity=64, time=2),
    Message('control_change', channel=3, control=1, value=111, time=5),
    Message('control_change', channel=5, control=1, value=111, time=0),
    Message('note_off', channel=7, note=77, velocity=64, time=4),
    Message('note_off', channel=1, note=26, velocity=64, time=2),
    Message('note_on', channel=4, note=77, velocity=120, time=0),
    Message('note_on', channel=7, note=74, velocity=56, time=1),
    Message('note_off', channel=0, note=57, velocity=64, time=1),
    Message('control_change', channel=3, control=1, value=118, time=0),
    Message('control_change', channel=5, control=1, value=118, time=0),
    Message('note_off', channel=0, note=50, velocity=64, time=2),
    Message('control_change', channel=3, control=1, value=125, time=6),
    Message('control_change', channel=5, control=1, value=125, time=0),
    Message('note_off', channel=7, note=74, velocity=64, time=6),
    Message('control_change', channel=3, control=1, value=127, time=2),
    Message('control_change', channel=5, control=1, value=127, time=0),
    Message('note_off', channel=4, note=77, velocity=64, time=5),
    Message('note_on', channel=0, note=50, velocity=89, time=2),
    Message('note_on', channel=0, note=57, velocity=89, time=0),
    Message('note_on', channel=1, note=26, velocity=112, time=0),
    Message('note_off', channel=8, note=62, velocity=64, time=0),
    Message('note_on', channel=8, note=62, velocity=103, time=0),
    Message('note_on', channel=8, note=69, velocity=111, time=0),
    Message('note_off', channel=8, note=71, velocity=64, time=0),
    Message('note_on', channel=9, note=35, velocity=127, time=0),
    Message('note_on', channel=9, note=51, velocity=126, time=0),
    Message('note_off', channel=9, note=35, velocity=64, time=0),
    Message('note_off', channel=9, note=51, velocity=64, time=0),
    Message('note_on', channel=4, note=74, velocity=102, time=2),
    Message('note_off', channel=4, note=74, velocity=64, time=14),
    Message('note_on', channel=7, note=77, velocity=75, time=7),
    Message('note_off', channel=0, note=50, velocity=64, time=2),
    Message('note_off', channel=0, note=57, velocity=64, time=0),
    Message('note_off', channel=1, note=26, velocity=64, time=4),
    Message('note_off', channel=7, note=77, velocity=64, time=17),
    Message('note_on', channel=0, note=50, velocity=89, time=2),
    Message('note_on', channel=0, note=57, velocity=89, time=0),
    Message('note_on', channel=1, note=26, velocity=110, time=0),
    Message('note_on', channel=4, note=77, velocity=113, time=0),
    Message('note_on', channel=6, note=72, velocity=107, time=0),
    Message('note_on', channel=6, note=77, velocity=95, time=0),
    Message('note_on', channel=9, note=35, velocity=127, time=0),
    Message('note_on', channel=9, note=42, velocity=81, time=0),
    Message('note_on', channel=9, note=51, velocity=126, time=0),
    Message('note_off', channel=9, note=35, velocity=64, time=0),
    Message('note_off', channel=9, note=42, velocity=64, time=0),
    Message('note_off', channel=9, note=51, velocity=64, time=0),
    Message('note_on', channel=7, note=74, velocity=57, time=2),
    Message('note_off', channel=6, note=77, velocity=64, time=6),
    Message('note_off', channel=6, note=72, velocity=64, time=1),
    Message('note_off', channel=7, note=74, velocity=64, time=7),
    Message('note_off', channel=4, note=77, velocity=64, time=3),
    Message('note_off', channel=0, note=50, velocity=64, time=2),
    Message('note_off', channel=0, note=57, velocity=64, time=1),
    Message('note_on', channel=4, note=74, velocity=96, time=5),
    Message('note_off', channel=4, note=74, velocity=64, time=10),
    Message('note_off', channel=3, note=69, velocity=64, time=3),
    Message('note_off', channel=5, note=74, velocity=64, time=0),
    Message('pitchwheel', channel=3, pitch=-1286, time=4),
    Message('pitchwheel', channel=5, pitch=-1286, time=0),
    Message('note_off', channel=1, note=26, velocity=64, time=3),
    Message('note_on', channel=0, note=50, velocity=89, time=1),
    Message('note_on', channel=0, note=59, velocity=89, time=0),
    Message('note_on', channel=1, note=31, velocity=120, time=0),
    Message('note_on', channel=6, note=74, velocity=127, time=0),
    Message('note_on', channel=6, note=77, velocity=125, time=0),
    Message('note_on', channel=7, note=77, velocity=68, time=0),
    Message('note_off', channel=8, note=62, velocity=64, time=0),
    Message('note_on', channel=8, note=62, velocity=103, time=0),
    Message('note_off', channel=8, note=69, velocity=64, time=0),
    Message('note_on', channel=8, note=71, velocity=113, time=0),
    Message('note_on', channel=9, note=40, velocity=108, time=0),
    Message('note_on', channel=9, note=51, velocity=126, time=0),
    Message('note_on', channel=9, note=53, velocity=126, time=0),
    Message('note_off', channel=9, note=40, velocity=64, time=0),
    Message('note_off', channel=9, note=51, velocity=64, time=0),
    Message('note_off', channel=9, note=53, velocity=64, time=0),
    Message('control_change', channel=3, control=1, value=0, time=2),
    Message('pitchwheel', channel=3, pitch=-8192, time=0),
    Message('control_change', channel=5, control=1, value=0, time=0),
    Message('pitchwheel', channel=5, pitch=-8192, time=0),
    Message('pitchwheel', channel=3, pitch=-7614, time=4),
    Message('pitchwheel', channel=5, pitch=-7614, time=0),
    Message('pitchwheel', channel=3, pitch=0, time=4),
    Message('pitchwheel', channel=5, pitch=0, time=0),
    Message('note_off', channel=1, note=31, velocity=64, time=9),
    Message('note_off', channel=7, note=77, velocity=64, time=0),
    Message('note_on', channel=4, note=77, velocity=108, time=4),
    Message('note_on', channel=1, note=33, velocity=115, time=1),
    Message('note_off', channel=0, note=50, velocity=64, time=2),
    Message('note_on', channel=7, note=74, velocity=51, time=1),
    Message('note_off', channel=0, note=59, velocity=64, time=3),
    Message('pitchwheel', channel=4, pitch=-739, time=4),
    Message('note_off', channel=7, note=74, velocity=64, time=3),
    Message('pitchwheel', channel=4, pitch=-4594, time=1),
    Message('pitchwheel', channel=4, pitch=-8192, time=4),
    Message('note_off', channel=4, note=77, velocity=64, time=2),
    Message('note_on', channel=4, note=74, velocity=115, time=1),
    Message('note_on', channel=0, note=50, velocity=89, time=3),
    Message('note_on', channel=0, note=57, velocity=89, time=0),
    Message('note_on', channel=1, note=36, velocity=115, time=0),
    Message('note_on', channel=6, note=72, velocity=116, time=0),
    Message('note_on', channel=9, note=42, velocity=81, time=0),
    Message('note_on', channel=9, note=51, velocity=126, time=0),
    Message('pitchwheel', channel=4, pitch=-5815, time=0),
    Message('note_off', channel=6, note=74, velocity=64, time=0),
    Message('note_off', channel=9, note=42, velocity=64, time=0),
    Message('note_off', channel=9, note=51, velocity=64, time=0),
    Message('note_off', channel=1, note=33, velocity=64, time=1),
    Message('note_off', channel=6, note=77, velocity=64, time=2),
    Message('pitchwheel', channel=4, pitch=0, time=1),
    Message('note_off', channel=6, note=72, velocity=64, time=4),
    Message('note_off', channel=0, note=50, velocity=64, time=15),
    Message('note_on', channel=7, note=77, velocity=63, time=0),
    Message('note_off', channel=0, note=57, velocity=64, time=1),
    Message('note_off', channel=1, note=36, velocity=64, time=20),
    Message('note_off', channel=7, note=77, velocity=64, time=0),
    Message('note_on', channel=7, note=74, velocity=70, time=1),
    Message('note_on', channel=0, note=50, velocity=89, time=3),
    Message('note_on', channel=0, note=57, velocity=89, time=0),
    Message('note_on', channel=1, note=26, velocity=112, time=0),
    Message('note_off', channel=8, note=62, velocity=64, time=0),
    Message('note_on', channel=8, note=62, velocity=103, time=0),
    Message('note_on', channel=8, note=69, velocity=111, time=0),
    Message('note_off', channel=8, note=71, velocity=64, time=0),
    Message('note_on', channel=9, note=35, velocity=127, time=0),
    Message('note_on', channel=9, note=51, velocity=126, time=0),
    Message('note_off', channel=9, note=35, velocity=64, time=0),
    Message('note_off', channel=9, note=51, velocity=64, time=0),
    Message('control_change', channel=4, control=1, value=24, time=19),
    Message('note_off', channel=0, note=50, velocity=64, time=6),
    Message('note_off', channel=0, note=57, velocity=64, time=0),
    Message('control_change', channel=4, control=1, value=72, time=2),
    Message('control_change', channel=4, control=1, value=117, time=8),
    Message('note_off', channel=1, note=26, velocity=64, time=1),
    Message('control_change', channel=4, control=1, value=126, time=6),
    Message('note_on', channel=9, note=42, velocity=85, time=2),
    Message('note_off', channel=9, note=42, velocity=64, time=1),
    Message('note_on', channel=0, note=50, velocity=89, time=3),
    Message('note_on', channel=0, note=57, velocity=89, time=0),
    Message('note_on', channel=1, note=26, velocity=115, time=0),
    Message('note_on', channel=6, note=72, velocity=111, time=0),
    Message('note_on', channel=6, note=77, velocity=99, time=0),
    Message('note_on', channel=9, note=42, velocity=126, time=4),
    Message('note_off', channel=9, note=42, velocity=64, time=0),
    Message('note_off', channel=6, note=72, velocity=64, time=3),
    Message('note_off', channel=6, note=77, velocity=64, time=2),
    Message('control_change', channel=4, control=1, value=127, time=11),
    Message('note_off', channel=0, note=50, velocity=64, time=3),
    Message('note_on', channel=9, note=40, velocity=127, time=1),
    Message('note_off', channel=9, note=40, velocity=64, time=0),
    Message('note_off', channel=0, note=57, velocity=64, time=2),
    Message('note_off', channel=1, note=26, velocity=64, time=21),
    Message('note_on', channel=0, note=50, velocity=89, time=1),
    Message('note_on', channel=0, note=59, velocity=89, time=0),
    Message('note_on', channel=1, note=38, velocity=126, time=0),
    Message('note_off', channel=8, note=62, velocity=64, time=0),
    Message('note_on', channel=8, note=62, velocity=107, time=0),
    Message('note_off', channel=8, note=69, velocity=64, time=0),
    Message('note_on', channel=8, note=71, velocity=100, time=0),
    Message('note_on', channel=9, note=40, velocity=127, time=0),
    Message('note_on', channel=9, note=53, velocity=126, time=0),
    Message('note_off', channel=9, note=40, velocity=64, time=0),
    Message('note_off', channel=9, note=53, velocity=64, time=0),
    Message('note_off', channel=0, note=50, velocity=64, time=21),
    Message('note_on', channel=9, note=35, velocity=127, time=3),
    Message('note_off', channel=9, note=35, velocity=64, time=0),
    Message('note_off', channel=0, note=59, velocity=64, time=5),
    Message('note_off', channel=1, note=38, velocity=64, time=9),
    Message('control_change', channel=4, control=1, value=125, time=2),
    Message('note_on', channel=0, note=50, velocity=89, time=8),
    Message('note_on', channel=0, note=57, velocity=89, time=0),
    Message('note_on', channel=1, note=26, velocity=112, time=0),
    Message('note_on', channel=6, note=72, velocity=125, time=0),
    Message('note_on', channel=6, note=77, velocity=111, time=0),
    Message('note_on', channel=9, note=42, velocity=126, time=0),
    Message('note_on', channel=9, note=43, velocity=52, time=0),
    Message('note_off', channel=9, note=42, velocity=64, time=0),
    Message('note_off', channel=9, note=43, velocity=64, time=0),
    Message('control_change', channel=4, control=1, value=94, time=1),
    Message('control_change', channel=4, control=1, value=42, time=8),
    Message('note_off', channel=6, note=72, velocity=64, time=1),
    Message('note_off', channel=6, note=77, velocity=64, time=2),
    Message('control_change', channel=4, control=1, value=13, time=6),
    Message('note_off', channel=0, note=50, velocity=64, time=3),
    Message('note_off', channel=0, note=57, velocity=64, time=2),
    Message('note_on', channel=9, note=35, velocity=127, time=1),
    Message('note_off', channel=9, note=35, velocity=64, time=0),
    Message('control_change', channel=4, control=1, value=23, time=2),
    Message('control_change', channel=4, control=1, value=29, time=11),
    Message('note_on', channel=4, note=77, velocity=119, time=8),
    Message('control_change', channel=4, control=1, value=0, time=1),
    Message('note_off', channel=4, note=74, velocity=64, time=1),
    Message('note_on', channel=0, note=50, velocity=89, time=1),
    Message('note_on', channel=0, note=57, velocity=89, time=0),
    Message('note_on', channel=1, note=31, velocity=106, time=0),
    Message('note_off', channel=8, note=62, velocity=64, time=0),
    Message('note_on', channel=8, note=62, velocity=92, time=0),
    Message('note_on', channel=8, note=69, velocity=109, time=0),
    Message('note_off', channel=8, note=71, velocity=64, time=0),
    Message('note_off', channel=1, note=26, velocity=64, time=1),
    Message('pitchwheel', channel=4, pitch=-2892, time=2),
    Message('pitchwheel', channel=4, pitch=-5108, time=4),
    Message('pitchwheel', channel=4, pitch=-3213, time=5),
    Message('pitchwheel', channel=4, pitch=0, time=4),
    Message('note_off', channel=0, note=50, velocity=64, time=7),
    Message('note_off', channel=1, note=31, velocity=64, time=0),
    Message('note_on', channel=4, note=74, velocity=86, time=0),
    Message('note_on', channel=1, note=33, velocity=110, time=1),
    Message('note_on', channel=9, note=40, velocity=127, time=0),
    Message('note_off', channel=0, note=57, velocity=64, time=0),
    Message('note_off', channel=9, note=40, velocity=64, time=0),
    Message('note_off', channel=4, note=77, velocity=64, time=1),
    Message('note_off', channel=4, note=74, velocity=64, time=12),
    Message('note_off', channel=1, note=33, velocity=64, time=8),
    Message('note_on', channel=7, note=77, velocity=74, time=0),
    Message('note_off', channel=7, note=74, velocity=64, time=2),
    Message('note_on', channel=0, note=50, velocity=89, time=1),
    Message('note_on', channel=0, note=57, velocity=89, time=0),
    Message('note_on', channel=1, note=36, velocity=106, time=0),
    Message('note_on', channel=6, note=80, velocity=127, time=0),
    Message('note_on', channel=6, note=81, velocity=127, time=0),
    Message('note_on', channel=6, note=84, velocity=126, time=0),
    Message('note_on', channel=9, note=40, velocity=122, time=0),
    Message('note_on', channel=9, note=42, velocity=126, time=0),
    Message('note_on', channel=9, note=44, velocity=125, time=0),
    Message('note_off', channel=9, note=40, velocity=64, time=0),
    Message('note_off', channel=9, note=42, velocity=64, time=0),
    Message('note_off', channel=9, note=44, velocity=64, time=0),
    Message('note_off', channel=6, note=80, velocity=64, time=5),
    Message('note_off', channel=0, note=50, velocity=64, time=17),
    Message('note_on', channel=7, note=74, velocity=41, time=1),
    Message('note_on', channel=9, note=35, velocity=127, time=1),
    Message('note_off', channel=9, note=35, velocity=64, time=0),
    Message('note_off', channel=7, note=77, velocity=64, time=1),
    Message('note_off', channel=6, note=81, velocity=64, time=1),
    Message('note_off', channel=0, note=57, velocity=64, time=1),
    Message('note_off', channel=6, note=84, velocity=64, time=8),
    Message('note_off', channel=7, note=74, velocity=64, time=2),
    Message('note_off', channel=1, note=36, velocity=64, time=8),
    Message('note_on', channel=0, note=50, velocity=89, time=3),
    Message('note_on', channel=0, note=59, velocity=89, time=0),
    Message('note_on', channel=1, note=29, velocity=110, time=0),
    Message('note_on', channel=3, note=72, velocity=110, time=0),
    Message('note_on', channel=5, note=77, velocity=110, time=0),
    Message('note_on', channel=6, note=79, velocity=127, time=0),
    Message('note_on', channel=6, note=83, velocity=127, time=0),
    Message('note_off', channel=8, note=62, velocity=64, time=0),
    Message('note_on', channel=8, note=62, velocity=87, time=0),
    Message('note_off', channel=8, note=69, velocity=64, time=0),
    Message('note_on', channel=8, note=71, velocity=105, time=0),
    Message('note_on', channel=9, note=40, velocity=127, time=0),
    Message('note_off', channel=9, note=40, velocity=64, time=0),
    Message('note_off', channel=6, note=79, velocity=64, time=16),
    Message('note_off', channel=0, note=50, velocity=64, time=5),
    Message('note_off', channel=1, note=29, velocity=64, time=2),
    Message('note_off', channel=6, note=83, velocity=64, time=0),
    Message('note_on', channel=9, note=43, velocity=115, time=0),
    Message('note_on', channel=1, note=31, velocity=110, time=1),
    Message('note_on', channel=6, note=77, velocity=103, time=0),
    Message('note_on', channel=6, note=81, velocity=103, time=0),
    Message('note_off', channel=9, note=43, velocity=64, time=0),
    Message('note_off', channel=3, note=72, velocity=64, time=7),
    Message('note_off', channel=5, note=77, velocity=64, time=0),
    Message('note_off', channel=6, note=77, velocity=64, time=0),
    Message('note_off', channel=6, note=81, velocity=64, time=1),
    Message('note_off', channel=0, note=59, velocity=64, time=9),
    Message('note_off', channel=1, note=31, velocity=64, time=6),
    Message('note_on', channel=0, note=50, velocity=89, time=1),
    Message('note_on', channel=0, note=57, velocity=89, time=0),
    Message('note_on', channel=1, note=33, velocity=124, time=0),
    Message('note_on', channel=3, note=72, velocity=91, time=0),
    Message('note_on', channel=5, note=77, velocity=91, time=0),
    Message('note_on', channel=6, note=74, velocity=125, time=0),
    Message('note_on', channel=6, note=77, velocity=121, time=0),
    Message('note_on', channel=9, note=42, velocity=125, time=0),
    Message('note_on', channel=9, note=45, velocity=88, time=0),
    Message('note_off', channel=9, note=42, velocity=64, time=0),
    Message('note_off', channel=9, note=45, velocity=64, time=0),
    Message('note_off', channel=0, note=57, velocity=64, time=16),
    Message('pitchwheel', channel=3, pitch=-1350, time=3),
    Message('pitchwheel', channel=5, pitch=-1350, time=0),
    Message('note_off', channel=0, note=50, velocity=64, time=0),
    Message('pitchwheel', channel=3, pitch=-8192, time=4),
    Message('pitchwheel', channel=5, pitch=-8192, time=0),
    Message('note_on', channel=3, note=71, velocity=108, time=1),
    Message('note_on', channel=5, note=76, velocity=108, time=0),
    Message('note_off', channel=6, note=74, velocity=64, time=0),
    Message('note_on', channel=9, note=35, velocity=127, time=0),
    Message('note_off', channel=9, note=35, velocity=64, time=0),
    Message('note_off', channel=6, note=77, velocity=64, time=3),
    Message('note_off', channel=3, note=72, velocity=64, time=3),
    Message('pitchwheel', channel=3, pitch=0, time=0),
    Message('note_off', channel=5, note=77, velocity=64, time=0),
    Message('pitchwheel', channel=5, pitch=0, time=0),
    Message('note_off', channel=1, note=33, velocity=64, time=16),
    Message('note_on', channel=0, note=50, velocity=89, time=2),
    Message('note_on', channel=0, note=57, velocity=89, time=0),
    Message('note_on', channel=1, note=26, velocity=89, time=0),
    Message('note_off', channel=8, note=62, velocity=64, time=0),
    Message('note_on', channel=8, note=62, velocity=113, time=0),
    Message('note_on', channel=8, note=69, velocity=116, time=0),
    Message('note_off', channel=8, note=71, velocity=64, time=0),
    Message('note_on', channel=9, note=35, velocity=127, time=0),
    Message('note_on', channel=9, note=49, velocity=126, time=0),
    Message('note_off', channel=9, note=35, velocity=64, time=0),
    Message('note_off', channel=9, note=49, velocity=64, time=0),
    Message('pitchwheel', channel=3, pitch=-193, time=20),
    Message('pitchwheel', channel=5, pitch=-193, time=0),
    Message('note_off', channel=0, note=50, velocity=64, time=3),
    Message('note_off', channel=1, note=26, velocity=64, time=0),
    Message('note_on', channel=3, note=69, velocity=115, time=1),
    Message('note_on', channel=5, note=74, velocity=115, time=0),
    Message('note_off', channel=3, note=71, velocity=64, time=0),
    Message('note_off', channel=5, note=76, velocity=64, time=0),
    Message('pitchwheel', channel=3, pitch=-5879, time=1),
    Message('pitchwheel', channel=5, pitch=-5879, time=0),
    Message('note_off', channel=0, note=57, velocity=64, time=3),
    Message('pitchwheel', channel=3, pitch=-6490, time=2),
    Message('pitchwheel', channel=5, pitch=-6490, time=0),
    Message('pitchwheel', channel=3, pitch=0, time=3),
    Message('pitchwheel', channel=5, pitch=0, time=0),
    Message('note_on', channel=0, note=50, velocity=89, time=15),
    Message('note_on', channel=0, note=57, velocity=89, time=0),
    Message('note_on', channel=1, note=26, velocity=104, time=0),
    Message('note_on', channel=6, note=72, velocity=123, time=0),
    Message('note_on', channel=6, note=77, velocity=109, time=0),
    Message('note_on', channel=9, note=42, velocity=99, time=0),
    Message('note_on', channel=9, note=51, velocity=113, time=0),
    Message('note_off', channel=9, note=42, velocity=64, time=0),
    Message('note_off', channel=9, note=51, velocity=64, time=0),
    Message('note_off', channel=6, note=72, velocity=64, time=9),
    Message('note_off', channel=6, note=77, velocity=64, time=1),
    Message('note_off', channel=0, note=50, velocity=64, time=19),
    Message('note_off', channel=0, note=57, velocity=64, time=7),
    Message('note_off', channel=1, note=26, velocity=64, time=7),
    Message('note_on', channel=0, note=50, velocity=89, time=5),
    Message('note_on', channel=0, note=59, velocity=89, time=0),
    Message('note_on', channel=1, note=38, velocity=126, time=0),
    Message('note_off', channel=8, note=62, velocity=64, time=0),
    Message('note_on', channel=8, note=62, velocity=98, time=0),
    Message('note_off', channel=8, note=69, velocity=64, time=0),
    Message('note_on', channel=8, note=71, velocity=113, time=0),
    Message('note_on', channel=9, note=40, velocity=127, time=0),
    Message('note_on', channel=9, note=51, velocity=126, time=0),
    Message('note_on', channel=9, note=53, velocity=126, time=0),
    Message('note_off', channel=9, note=40, velocity=64, time=0),
    Message('note_off', channel=9, note=51, velocity=64, time=0),
    Message('note_off', channel=9, note=53, velocity=64, time=0),
    Message('control_change', channel=3, control=1, value=9, time=15),
    Message('control_change', channel=5, control=1, value=9, time=0),
    Message('control_change', channel=3, control=1, value=35, time=8),
    Message('control_change', channel=5, control=1, value=35, time=0),
    Message('control_change', channel=3, control=1, value=66, time=8),
    Message('control_change', channel=5, control=1, value=66, time=0),
    Message('note_off', channel=0, note=50, velocity=64, time=6),
    Message('control_change', channel=3, control=1, value=106, time=3),
    Message('control_change', channel=5, control=1, value=106, time=0),
    Message('note_off', channel=1, note=38, velocity=64, time=2),
    Message('note_off', channel=0, note=59, velocity=64, time=3),
    Message('note_on', channel=0, note=50, velocity=89, time=3),
    Message('note_on', channel=0, note=57, velocity=89, time=0),
    Message('note_on', channel=1, note=26, velocity=98, time=0),
    Message('note_on', channel=6, note=72, velocity=123, time=0),
    Message('note_on', channel=6, note=77, velocity=109, time=0),
    Message('note_on', channel=9, note=42, velocity=93, time=0),
    Message('note_on', channel=9, note=51, velocity=126, time=0),
    Message('note_off', channel=9, note=42, velocity=64, time=0),
    Message('note_off', channel=9, note=51, velocity=64, time=0),
    Message('control_change', channel=3, control=1, value=127, time=1),
    Message('control_change', channel=5, control=1, value=127, time=0),
    Message('note_off', channel=6, note=72, velocity=64, time=8),
    Message('note_off', channel=6, note=77, velocity=64, time=2),
    Message('note_off', channel=1, note=26, velocity=64, time=13),
    Message('note_off', channel=0, note=50, velocity=64, time=3),
    Message('note_off', channel=0, note=57, velocity=64, time=1),
    Message('note_on', channel=0, note=50, velocity=89, time=20),
    Message('note_on', channel=0, note=57, velocity=89, time=0),
    Message('note_on', channel=1, note=26, velocity=106, time=0),
    Message('note_on', channel=4, note=72, velocity=125, time=0),
    Message('note_off', channel=8, note=62, velocity=64, time=0),
    Message('note_on', channel=8, note=62, velocity=107, time=0),
    Message('note_on', channel=8, note=69, velocity=109, time=0),
    Message('note_off', channel=8, note=71, velocity=64, time=0),
    Message('note_on', channel=9, note=35, velocity=127, time=0),
    Message('note_on', channel=9, note=51, velocity=126, time=0),
    Message('note_off', channel=9, note=35, velocity=64, time=0),
    Message('note_off', channel=9, note=51, velocity=64, time=0),
    Message('note_on', channel=4, note=74, velocity=108, time=24),
    Message('note_off', channel=4, note=72, velocity=64, time=1),
    Message('note_off', channel=1, note=26, velocity=64, time=3),
    Message('note_off', channel=3, note=69, velocity=64, time=0),
    Message('note_off', channel=5, note=74, velocity=64, time=0),
    Message('note_off', channel=0, note=50, velocity=64, time=1),
    Message('control_change', channel=3, control=1, value=0, time=2),
    Message('control_change', channel=5, control=1, value=0, time=0),
    Message('note_off', channel=0, note=57, velocity=64, time=0),
    Message('note_off', channel=4, note=74, velocity=64, time=6),
    Message('note_on', channel=0, note=50, velocity=89, time=11),
    Message('note_on', channel=0, note=57, velocity=89, time=0),
    Message('note_on', channel=1, note=26, velocity=112, time=0),
    Message('note_on', channel=6, note=72, velocity=123, time=0),
    Message('note_on', channel=6, note=77, velocity=109, time=0),
    Message('note_on', channel=7, note=72, velocity=80, time=0),
    Message('note_on', channel=9, note=35, velocity=127, time=0),
    Message('note_on', channel=9, note=42, velocity=113, time=0),
    Message('note_on', channel=9, note=51, velocity=126, time=0),
    Message('note_off', channel=9, note=35, velocity=64, time=0),
    Message('note_off', channel=9, note=42, velocity=64, time=0),
    Message('note_off', channel=9, note=51, velocity=64, time=0),
    Message('note_off', channel=6, note=72, velocity=64, time=9),
    Message('note_off', channel=6, note=77, velocity=64, time=2),
    Message('note_on', channel=4, note=69, velocity=106, time=13),
    Message('note_on', channel=7, note=74, velocity=63, time=0),
    Message('note_off', channel=7, note=72, velocity=64, time=1),
    Message('note_off', channel=0, note=50, velocity=64, time=2),
    Message('note_off', channel=0, note=57, velocity=64, time=0),
    Message('note_off', channel=7, note=74, velocity=64, time=10),
    Message('note_off', channel=1, note=26, velocity=64, time=10),
    Message('note_on', channel=0, note=50, velocity=89, time=1),
    Message('note_on', channel=0, note=59, velocity=89, time=0),
    Message('note_on', channel=1, note=31, velocity=104, time=0),
    Message('note_on', channel=4, note=72, velocity=110, time=0),
    Message('note_on', channel=6, note=74, velocity=127, time=0),
    Message('note_on', channel=6, note=77, velocity=123, time=0),
    Message('note_off', channel=8, note=62, velocity=64, time=0),
    Message('note_on', channel=8, note=62, velocity=72, time=0),
    Message('note_off', channel=8, note=69, velocity=64, time=0),
    Message('note_on', channel=8, note=71, velocity=105, time=0),
    Message('note_on', channel=9, note=40, velocity=127, time=0),
    Message('note_on', channel=9, note=51, velocity=126, time=0),
    Message('note_on', channel=9, note=53, velocity=126, time=0),
    Message('note_off', channel=9, note=40, velocity=64, time=0),
    Message('note_off', channel=9, note=51, velocity=64, time=0),
    Message('note_off', channel=9, note=53, velocity=64, time=0),
    Message('note_off', channel=4, note=69, velocity=64, time=3),
    Message('note_off', channel=4, note=72, velocity=64, time=16),
    Message('note_off', channel=1, note=31, velocity=64, time=1),
    Message('note_on', channel=1, note=33, velocity=106, time=4),
    Message('note_on', channel=4, note=77, velocity=122, time=0),
    Message('note_on', channel=7, note=69, velocity=61, time=0),
    Message('note_off', channel=0, note=50, velocity=64, time=3),
    Message('note_off', channel=0, note=59, velocity=64, time=6),
    Message('pitchwheel', channel=4, pitch=2602, time=3),
    Message('pitchwheel', channel=4, pitch=8191, time=4),
    Message('note_off', channel=1, note=33, velocity=64, time=4),
    Message('note_on', channel=0, note=50, velocity=89, time=4),
    Message('note_on', channel=0, note=57, velocity=89, time=0),
    Message('note_on', channel=1, note=36, velocity=122, time=0),
    Message('note_on', channel=6, note=72, velocity=109, time=0),
    Message('note_off', channel=6, note=74, velocity=64, time=0),
    Message('note_on', channel=7, note=72, velocity=65, time=0),
    Message('note_on', channel=9, note=42, velocity=89, time=0),
    Message('note_on', channel=9, note=51, velocity=126, time=0),
    Message('note_off', channel=9, note=42, velocity=64, time=0),
    Message('note_off', channel=9, note=51, velocity=64, time=0),
    Message('note_off', channel=7, note=69, velocity=64, time=3),
    Message('pitchwheel', channel=4, pitch=6714, time=3),
    Message('note_off', channel=6, note=77, velocity=64, time=1),
    Message('pitchwheel', channel=4, pitch=0, time=2),
    Message('note_off', channel=6, note=72, velocity=64, time=2),
    Message('note_off', channel=7, note=72, velocity=64, time=8),
    Message('note_on', channel=4, note=74, velocity=108, time=5),
    Message('note_on', channel=7, note=77, velocity=77, time=0),
    Message('note_off', channel=4, note=77, velocity=64, time=1),
    Message('note_off', channel=0, note=50, velocity=64, time=1),
    Message('note_off', channel=0, note=57, velocity=64, time=0),
    Message('note_off', channel=1, note=36, velocity=64, time=18),
    Message('note_on', channel=0, note=50, velocity=89, time=4),
    Message('note_on', channel=0, note=57, velocity=89, time=0),
    Message('note_on', channel=1, note=26, velocity=120, time=0),
    Message('note_off', channel=8, note=62, velocity=64, time=0),
    Message('note_on', channel=8, note=62, velocity=100, time=0),
    Message('note_on', channel=8, note=69, velocity=116, time=0),
    Message('note_off', channel=8, note=71, velocity=64, time=0),
    Message('note_on', channel=9, note=35, velocity=127, time=0),
    Message('note_on', channel=9, note=51, velocity=126, time=0),
    Message('note_off', channel=9, note=35, velocity=64, time=0),
    Message('note_off', channel=9, note=51, velocity=64, time=0),
    Message('note_on', channel=7, note=74, velocity=63, time=24),
    Message('note_off', channel=7, note=77, velocity=64, time=1),
    Message('note_off', channel=0, note=50, velocity=64, time=0),
    Message('note_off', channel=0, note=57, velocity=64, time=1),
    Message('control_change', channel=4, control=1, value=46, time=1),
    Message('control_change', channel=4, control=1, value=97, time=8),
    Message('note_off', channel=1, note=26, velocity=64, time=1),
    Message('control_change', channel=4, control=1, value=110, time=7),
    Message('note_on', channel=0, note=50, velocity=89, time=5),
    Message('note_on', channel=0, note=57, velocity=89, time=0),
    Message('note_on', channel=1, note=26, velocity=110, time=0),
    Message('note_on', channel=6, note=72, velocity=127, time=0),
    Message('note_on', channel=6, note=77, velocity=109, time=0),
    Message('note_on', channel=9, note=42, velocity=87, time=0),
    Message('note_on', channel=9, note=51, velocity=126, time=0),
    Message('note_off', channel=9, note=42, velocity=64, time=0),
    Message('note_off', channel=9, note=51, velocity=64, time=0),
    Message('control_change', channel=4, control=1, value=127, time=4),
    Message('note_off', channel=6, note=72, velocity=64, time=5),
    Message('note_off', channel=6, note=77, velocity=64, time=2),
    Message('note_off', channel=0, note=50, velocity=64, time=12),
    Message('note_off', channel=0, note=57, velocity=64, time=3),
    Message('control_change', channel=4, control=1, value=126, time=10),
    Message('control_change', channel=4, control=1, value=76, time=9),
    Message('note_off', channel=1, note=26, velocity=64, time=2),
    Message('note_on', channel=0, note=50, velocity=89, time=1),
    Message('note_on', channel=0, note=59, velocity=89, time=0),
    Message('note_on', channel=1, note=38, velocity=126, time=0),
    Message('note_off', channel=8, note=62, velocity=64, time=0),
    Message('note_on', channel=8, note=62, velocity=105, time=0),
    Message('note_off', channel=8, note=69, velocity=64, time=0),
    Message('note_on', channel=8, note=71, velocity=105, time=0),
    Message('note_on', channel=9, note=40, velocity=127, time=0),
    Message('note_on', channel=9, note=51, velocity=126, time=0),
    Message('note_on', channel=9, note=53, velocity=126, time=0),
    Message('note_off', channel=9, note=40, velocity=64, time=0),
    Message('note_off', channel=9, note=51, velocity=64, time=0),
    Message('note_off', channel=9, note=53, velocity=64, time=0),
    Message('control_change', channel=4, control=1, value=38, time=5),
    Message('control_change', channel=4, control=1, value=20, time=7),
    Message('control_change', channel=4, control=1, value=0, time=8),
    Message('note_off', channel=0, note=50, velocity=64, time=4),
    Message('note_off', channel=0, note=59, velocity=64, time=1),
    Message('note_on', channel=0, note=50, velocity=89, time=23),
    Message('note_on', channel=0, note=57, velocity=89, time=0),
    Message('note_on', channel=1, note=26, velocity=104, time=0),
    Message('note_on', channel=6, note=72, velocity=125, time=0),
    Message('note_on', channel=6, note=77, velocity=111, time=0),
    Message('note_on', channel=9, note=42, velocity=73, time=0),
    Message('note_on', channel=9, note=51, velocity=126, time=0),
    Message('note_off', channel=9, note=42, velocity=64, time=0),
    Message('note_off', channel=9, note=51, velocity=64, time=0),
    Message('note_off', channel=1, note=26, velocity=64, time=5),
    Message('note_off', channel=6, note=72, velocity=64, time=7),
    Message('note_off', channel=6, note=77, velocity=64, time=2),
    Message('note_off', channel=0, note=57, velocity=64, time=10),
    Message('note_off', channel=0, note=50, velocity=64, time=0),
    Message('note_off', channel=1, note=38, velocity=64, time=3),
    Message('pitchwheel', channel=4, pitch=-193, time=20),
    Message('note_on', channel=0, note=50, velocity=89, time=1),
    Message('note_on', channel=0, note=57, velocity=89, time=0),
    Message('note_on', channel=1, note=26, velocity=110, time=0),
    Message('note_on', channel=4, note=77, velocity=114, time=0),
    Message('note_off', channel=8, note=62, velocity=64, time=0),
    Message('note_on', channel=8, note=62, velocity=98, time=0),
    Message('note_on', channel=8, note=69, velocity=113, time=0),
    Message('note_off', channel=8, note=71, velocity=64, time=0),
    Message('note_on', channel=9, note=35, velocity=127, time=0),
    Message('note_on', channel=9, note=51, velocity=126, time=0),
    Message('note_off', channel=9, note=35, velocity=64, time=0),
    Message('note_off', channel=9, note=51, velocity=64, time=0),
    Message('pitchwheel', channel=4, pitch=-1253, time=2),
    Message('note_off', channel=4, note=74, velocity=64, time=5),
    Message('pitchwheel', channel=4, pitch=-1735, time=0),
    Message('pitchwheel', channel=4, pitch=0, time=4),
    Message('note_on', channel=4, note=74, velocity=88, time=13),
    Message('note_off', channel=0, note=50, velocity=64, time=0),
    Message('note_off', channel=0, note=57, velocity=64, time=2),
    Message('note_off', channel=1, note=26, velocity=64, time=0),
    Message('note_off', channel=4, note=77, velocity=64, time=1),
    Message('note_off', channel=4, note=74, velocity=64, time=10),
    Message('note_on', channel=0, note=50, velocity=89, time=11),
    Message('note_on', channel=0, note=57, velocity=89, time=0),
    Message('note_on', channel=1, note=26, velocity=99, time=0),
    Message('note_on', channel=6, note=72, velocity=118, time=0),
    Message('note_on', channel=6, note=77, velocity=107, time=0),
    Message('note_on', channel=7, note=77, velocity=69, time=0),
    Message('note_on', channel=9, note=35, velocity=127, time=0),
    Message('note_on', channel=9, note=42, velocity=93, time=0),
    Message('note_on', channel=9, note=51, velocity=126, time=0),
    Message('note_off', channel=9, note=35, velocity=64, time=0),
    Message('note_off', channel=9, note=42, velocity=64, time=0),
    Message('note_off', channel=9, note=51, velocity=64, time=0),
    Message('note_off', channel=7, note=74, velocity=64, time=7),
    Message('note_off', channel=6, note=72, velocity=64, time=4),
    Message('note_off', channel=6, note=77, velocity=64, time=1),
    Message('note_off', channel=0, note=50, velocity=64, time=11),
    Message('note_on', channel=4, note=77, velocity=99, time=1),
    Message('note_on', channel=7, note=74, velocity=43, time=0),
    Message('note_off', channel=0, note=57, velocity=64, time=1),
    Message('note_off', channel=7, note=77, velocity=64, time=2),
    Message('note_off', channel=7, note=74, velocity=64, time=10),
    Message('note_off', channel=4, note=77, velocity=64, time=0),
    Message('note_off', channel=1, note=26, velocity=64, time=9),
    Message('note_on', channel=0, note=50, velocity=89, time=2),
    Message('note_on', channel=0, note=59, velocity=89, time=0),
    Message('note_on', channel=1, note=31, velocity=108, time=0),
    Message('note_off', channel=8, note=62, velocity=64, time=0),
    Message('note_on', channel=8, note=62, velocity=100, time=0),
    Message('note_off', channel=8, note=69, velocity=64, time=0),
    Message('note_on', channel=8, note=71, velocity=105, time=0),
    Message('note_on', channel=9, note=40, velocity=127, time=0),
    Message('note_on', channel=9, note=51, velocity=126, time=0),
    Message('note_on', channel=9, note=53, velocity=126, time=0),
    Message('note_off', channel=9, note=40, velocity=64, time=0),
    Message('note_off', channel=9, note=51, velocity=64, time=0),
    Message('note_off', channel=9, note=53, velocity=64, time=0),
    Message('note_off', channel=1, note=31, velocity=64, time=22),
    Message('note_on', channel=1, note=33, velocity=78, time=2),
    Message('note_on', channel=7, note=77, velocity=54, time=0),
    Message('note_off', channel=0, note=59, velocity=64, time=0),
    Message('note_off', channel=0, note=50, velocity=64, time=3),
    Message('note_off', channel=7, note=77, velocity=64, time=10),
    Message('note_off', channel=1, note=33, velocity=64, time=7),
    Message('note_on', channel=0, note=50, velocity=89, time=4),
    Message('note_on', channel=0, note=57, velocity=89, time=0),
    Message('note_on', channel=1, note=29, velocity=110, time=0),
    Message('note_on', channel=6, note=74, velocity=125, time=0),
    Message('note_on', channel=6, note=77, velocity=118, time=0),
    Message('note_on', channel=9, note=42, velocity=85, time=0),
    Message('note_on', channel=9, note=51, velocity=126, time=0),
    Message('note_off', channel=9, note=42, velocity=64, time=0),
    Message('note_off', channel=9, note=51, velocity=64, time=0),
    Message('note_off', channel=0, note=57, velocity=64, time=25),
    Message('note_off', channel=0, note=50, velocity=64, time=1),
    Message('note_off', channel=1, note=29, velocity=64, time=17),
    Message('note_off', channel=6, note=74, velocity=64, time=1),
    Message('note_off', channel=6, note=77, velocity=64, time=2),
    Message('note_on', channel=0, note=50, velocity=89, time=2),
    Message('note_on', channel=0, note=57, velocity=89, time=0),
    Message('note_on', channel=1, note=26, velocity=122, time=0),
    Message('note_off', channel=8, note=62, velocity=64, time=0),
    Message('note_on', channel=8, note=62, velocity=105, time=0),
    Message('note_on', channel=8, note=69, velocity=116, time=0),
    Message('note_off', channel=8, note=71, velocity=64, time=0),
    Message('note_on', channel=9, note=35, velocity=127, time=0),
    Message('note_on', channel=9, note=49, velocity=126, time=0),
    Message('note_off', channel=9, note=35, velocity=64, time=0),
    Message('note_off', channel=9, note=49, velocity=64, time=0),
    Message('note_off', channel=0, note=50, velocity=64, time=26),
    Message('note_off', channel=0, note=57, velocity=64, time=0),
    Message('note_off', channel=1, note=26, velocity=64, time=6),
    Message('note_on', channel=0, note=50, velocity=89, time=16),
    Message('note_on', channel=0, note=57, velocity=89, time=0),
    Message('note_on', channel=1, note=26, velocity=117, time=0),
    Message('note_on', channel=6, note=72, velocity=118, time=0),
    Message('note_on', channel=6, note=77, velocity=109, time=0),
    Message('note_on', channel=9, note=42, velocity=99, time=0),
    Message('note_on', channel=9, note=51, velocity=113, time=0),
    Message('note_off', channel=9, note=42, velocity=64, time=0),
    Message('note_off', channel=9, note=51, velocity=64, time=0),
    Message('note_off', channel=6, note=72, velocity=64, time=9),
    Message('note_off', channel=6, note=77, velocity=64, time=2),
    Message('note_off', channel=0, note=50, velocity=64, time=13),
    Message('note_off', channel=0, note=57, velocity=64, time=2),
    Message('note_on', channel=0, note=50, velocity=89, time=22),
    Message('note_on', channel=0, note=59, velocity=89, time=0),
    Message('note_on', channel=1, note=38, velocity=126, time=0),
    Message('note_off', channel=8, note=62, velocity=64, time=0),
    Message('note_on', channel=8, note=62, velocity=125, time=0),
    Message('note_off', channel=8, note=69, velocity=64, time=0),
    Message('note_on', channel=8, note=71, velocity=125, time=0),
    Message('note_on', channel=9, note=40, velocity=127, time=0),
    Message('note_on', channel=9, note=51, velocity=126, time=0),
    Message('note_on', channel=9, note=53, velocity=126, time=0),
    Message('note_off', channel=9, note=40, velocity=64, time=0),
    Message('note_off', channel=9, note=51, velocity=64, time=0),
    Message('note_off', channel=9, note=53, velocity=64, time=0),
    Message('note_off', channel=1, note=26, velocity=64, time=2),
    Message('note_off', channel=0, note=50, velocity=64, time=26),
    Message('note_off', channel=0, note=59, velocity=64, time=2),
    Message('note_off', channel=1, note=38, velocity=64, time=8),
    Message('note_on', channel=0, note=50, velocity=89, time=10),
    Message('note_on', channel=0, note=57, velocity=89, time=0),
    Message('note_on', channel=1, note=26, velocity=92, time=0),
    Message('note_on', channel=6, note=72, velocity=125, time=0),
    Message('note_on', channel=6, note=77, velocity=125, time=0),
    Message('note_on', channel=9, note=42, velocity=93, time=0),
    Message('note_on', channel=9, note=51, velocity=126, time=0),
    Message('note_off', channel=9, note=42, velocity=64, time=0),
    Message('note_off', channel=9, note=51, velocity=64, time=0),
    Message('note_off', channel=6, note=72, velocity=64, time=13),
    Message('note_off', channel=6, note=77, velocity=64, time=2),
    Message('note_off', channel=1, note=26, velocity=64, time=8),
    Message('note_off', channel=0, note=57, velocity=64, time=2),
    Message('note_off', channel=0, note=50, velocity=64, time=2),
    Message('note_on', channel=0, note=50, velocity=89, time=21),
    Message('note_on', channel=0, note=57, velocity=89, time=0),
    Message('note_on', channel=1, note=26, velocity=112, time=0),
    Message('note_off', channel=8, note=62, velocity=64, time=0),
    Message('note_on', channel=8, note=62, velocity=125, time=0),
    Message('note_on', channel=8, note=69, velocity=125, time=0),
    Message('note_off', channel=8, note=71, velocity=64, time=0),
    Message('note_on', channel=9, note=35, velocity=127, time=0),
    Message('note_on', channel=9, note=51, velocity=126, time=0),
    Message('note_off', channel=9, note=35, velocity=64, time=0),
    Message('note_off', channel=9, note=51, velocity=64, time=0),
    Message('note_off', channel=0, note=50, velocity=64, time=25),
    Message('note_off', channel=0, note=57, velocity=64, time=0),
    Message('note_off', channel=1, note=26, velocity=64, time=4),
    Message('note_on', channel=0, note=50, velocity=89, time=19),
    Message('note_on', channel=0, note=57, velocity=89, time=0),
    Message('note_on', channel=1, note=26, velocity=110, time=0),
    Message('note_on', channel=6, note=72, velocity=127, time=0),
    Message('note_on', channel=6, note=77, velocity=127, time=0),
    Message('note_on', channel=9, note=35, velocity=127, time=0),
    Message('note_on', channel=9, note=42, velocity=113, time=0),
    Message('note_on', channel=9, note=51, velocity=126, time=0),
    Message('note_off', channel=9, note=35, velocity=64, time=0),
    Message('note_off', channel=9, note=42, velocity=64, time=0),
    Message('note_off', channel=9, note=51, velocity=64, time=0),
    Message('note_off', channel=6, note=72, velocity=64, time=10),
    Message('note_off', channel=6, note=77, velocity=64, time=3),
    Message('note_off', channel=0, note=50, velocity=64, time=8),
    Message('note_off', channel=0, note=57, velocity=64, time=1),
    Message('note_off', channel=1, note=26, velocity=64, time=25),
    Message('note_on', channel=0, note=50, velocity=89, time=1),
    Message('note_on', channel=0, note=59, velocity=89, time=0),
    Message('note_on', channel=1, note=31, velocity=120, time=0),
    Message('note_on', channel=3, note=72, velocity=102, time=0),
    Message('note_on', channel=5, note=77, velocity=102, time=0),
    Message('note_on', channel=6, note=86, velocity=127, time=0),
    Message('note_off', channel=8, note=62, velocity=64, time=0),
    Message('note_on', channel=8, note=62, velocity=127, time=0),
    Message('note_off', channel=8, note=69, velocity=64, time=0),
    Message('note_on', channel=8, note=71, velocity=127, time=0),
    Message('note_on', channel=9, note=40, velocity=127, time=0),
    Message('note_on', channel=9, note=51, velocity=126, time=0),
    Message('note_on', channel=9, note=53, velocity=126, time=0),
    Message('note_off', channel=9, note=40, velocity=64, time=0),
    Message('note_off', channel=9, note=51, velocity=64, time=0),
    Message('note_off', channel=9, note=53, velocity=64, time=0),
    Message('note_off', channel=1, note=31, velocity=64, time=19),
    Message('note_on', channel=9, note=45, velocity=106, time=4),
    Message('note_on', channel=1, note=33, velocity=115, time=1),
    Message('note_on', channel=6, note=84, velocity=109, time=0),
    Message('note_off', channel=9, note=45, velocity=64, time=0),
    Message('note_off', channel=0, note=50, velocity=64, time=2),
    Message('note_off', channel=6, note=86, velocity=64, time=2),
    Message('note_off', channel=0, note=59, velocity=64, time=2),
    Message('note_off', channel=3, note=72, velocity=64, time=3),
    Message('note_off', channel=5, note=77, velocity=64, time=0),
    Message('note_off', channel=6, note=84, velocity=64, time=14),
    Message('note_on', channel=9, note=45, velocity=100, time=0),
    Message('note_on', channel=0, note=50, velocity=89, time=1),
    Message('note_on', channel=0, note=57, velocity=89, time=0),
    Message('note_on', channel=1, note=36, velocity=115, time=0),
    Message('note_on', channel=3, note=72, velocity=104, time=0),
    Message('note_on', channel=5, note=77, velocity=104, time=0),
    Message('note_on', channel=6, note=81, velocity=105, time=0),
    Message('note_on', channel=8, note=69, velocity=116, time=0),
    Message('note_on', channel=9, note=42, velocity=89, time=0),
    Message('note_off', channel=9, note=45, velocity=64, time=0),
    Message('note_on', channel=9, note=51, velocity=126, time=0),
    Message('note_off', channel=8, note=62, velocity=64, time=0),
    Message('note_off', channel=9, note=42, velocity=64, time=0),
    Message('note_off', channel=9, note=51, velocity=64, time=0),
    Message('note_off', channel=1, note=33, velocity=64, time=1),
    Message('note_off', channel=8, note=71, velocity=64, time=5),
    Message('note_off', channel=6, note=81, velocity=64, time=16),
    Message('note_off', channel=0, note=50, velocity=64, time=1),
    Message('note_off', channel=0, note=57, velocity=64, time=1),
    Message('note_on', channel=3, note=71, velocity=108, time=0),
    Message('note_on', channel=5, note=76, velocity=108, time=0),
    Message('note_on', channel=6, note=77, velocity=107, time=0),
    Message('note_on', channel=9, note=46, velocity=124, time=0),
    Message('note_off', channel=9, note=46, velocity=64, time=0),
    Message('note_off', channel=3, note=72, velocity=64, time=3),
    Message('note_off', channel=5, note=77, velocity=64, time=0),
    Message('note_off', channel=6, note=77, velocity=64, time=5),
    Message('note_off', channel=8, note=69, velocity=64, time=7),
    Message('note_off', channel=1, note=36, velocity=64, time=5),
    Message('note_on', channel=8, note=50, velocity=127, time=4),
    Message('note_on', channel=8, note=62, velocity=126, time=0),
    Message('note_on', channel=9, note=40, velocity=127, time=0),
    Message('note_on', channel=9, note=44, velocity=31, time=0),
    Message('note_off', channel=9, note=40, velocity=64, time=0),
    Message('note_off', channel=9, note=44, velocity=64, time=0),
    Message('note_off', channel=3, note=71, velocity=64, time=5),
    Message('note_off', channel=5, note=76, velocity=64, time=0),
    Message('note_on', channel=9, note=40, velocity=127, time=0),
    Message('note_off', channel=9, note=40, velocity=64, time=0),
    Message('note_on', channel=3, note=69, velocity=106, time=19),
    Message('note_on', channel=5, note=74, velocity=106, time=0),
    Message('note_off', channel=8, note=50, velocity=64, time=7),
    Message('note_off', channel=8, note=62, velocity=64, time=1),
    Message('control_change', channel=3, control=1, value=2, time=29),
    Message('control_change', channel=5, control=1, value=2, time=0),
    Message('control_change', channel=3, control=1, value=27, time=8),
    Message('control_change', channel=5, control=1, value=27, time=0),
    Message('control_change', channel=3, control=1, value=79, time=8),
    Message('control_change', channel=5, control=1, value=79, time=0),
    Message('control_change', channel=3, control=1, value=117, time=8),
    Message('control_change', channel=5, control=1, value=117, time=0),
    Message('control_change', channel=3, control=1, value=126, time=8),
    Message('control_change', channel=5, control=1, value=126, time=0),
    Message('control_change', channel=3, control=1, value=127, time=15),
    Message('control_change', channel=5, control=1, value=127, time=0),
    Message('note_off', channel=3, note=69, velocity=64, time=103),
    Message('note_off', channel=5, note=74, velocity=64, time=0),
    Message('control_change', channel=3, control=1, value=118, time=12),
    Message('control_change', channel=5, control=1, value=118, time=0),
    Message('control_change', channel=3, control=1, value=4, time=8),
    Message('control_change', channel=5, control=1, value=4, time=0),
    Message('control_change', channel=0, control=120, value=0, time=153),
    Message('control_change', channel=0, control=123, value=0, time=1),
    Message('control_change', channel=1, control=120, value=0, time=1),
    Message('control_change', channel=1, control=123, value=0, time=1),
    Message('control_change', channel=2, control=120, value=0, time=1),
    Message('control_change', channel=2, control=123, value=0, time=1),
    Message('control_change', channel=3, control=120, value=0, time=1),
    Message('control_change', channel=3, control=123, value=0, time=1),
    Message('control_change', channel=4, control=120, value=0, time=1),
    Message('control_change', channel=4, control=123, value=0, time=1),
    Message('control_change', channel=5, control=120, value=0, time=1),
    Message('control_change', channel=5, control=123, value=0, time=1),
    Message('control_change', channel=6, control=120, value=0, time=1),
    Message('control_change', channel=6, control=123, value=0, time=1),
    Message('control_change', channel=7, control=120, value=0, time=1),
    Message('control_change', channel=7, control=123, value=0, time=1),
    Message('control_change', channel=8, control=120, value=0, time=1),
    Message('control_change', channel=8, control=123, value=0, time=1),
    Message('control_change', channel=9, control=120, value=0, time=1),
    Message('control_change', channel=9, control=123, value=0, time=1),
    MetaMessage('end_of_track', time=0)])
])
