MidiFile(type=1, ticks_per_beat=384, tracks=[
  MidiTrack([
    MetaMessage('smpte_offset', frame_rate=25, hours=32, minutes=0, seconds=3, frames=0, sub_frames=0, time=0),
    MetaMessage('time_signature', numerator=4, denominator=4, clocks_per_click=24, notated_32nd_notes_per_beat=8, time=0),
    MetaMessage('key_signature', key='C', time=0),
    MetaMessage('set_tempo', tempo=750000, time=0),
    MetaMessage('end_of_track', time=0)]),
  MidiTrack([
    MetaMessage('midi_port', port=0, time=0),
    MetaMessage('track_name', name='Clean Guitar', time=0),
    Message('control_change', channel=0, control=0, value=0, time=0),
    Message('control_change', channel=0, control=32, value=0, time=0),
    Message('program_change', channel=0, program=27, time=0),
    Message('note_on', channel=0, note=65, velocity=100, time=0),
    Message('note_on', channel=0, note=68, velocity=100, time=0),
    Message('note_on', channel=0, note=68, velocity=0, time=192),
    Message('note_on', channel=0, note=65, velocity=0, time=0),
    Message('note_on', channel=0, note=60, velocity=100, time=0),
    Message('note_on', channel=0, note=60, velocity=0, time=192),
    Message('note_on', channel=0, note=65, velocity=100, time=0),
    Message('note_on', channel=0, note=68, velocity=100, time=0),
    Message('note_on', channel=0, note=68, velocity=0, time=192),
    Message('note_on', channel=0, note=65, velocity=0, time=0),
    Message('note_on', channel=0, note=60, velocity=100, time=0),
    Message('note_on', channel=0, note=60, velocity=0, time=192),
    Message('note_on', channel=0, note=63, velocity=100, time=0),
    Message('note_on', channel=0, note=67, velocity=100, time=0),
    Message('note_on', channel=0, note=67, velocity=0, time=192),
    Message('note_on', channel=0, note=63, velocity=0, time=0),
    Message('note_on', channel=0, note=60, velocity=100, time=0),
    Message('note_on', channel=0, note=60, velocity=0, time=192),
    Message('note_on', channel=0, note=63, velocity=100, time=0),
    Message('note_on', channel=0, note=67, velocity=100, time=0),
    Message('note_on', channel=0, note=67, velocity=0, time=192),
    Message('note_on', channel=0, note=63, velocity=0, time=0),
    Message('note_on', channel=0, note=60, velocity=100, time=0),
    Message('note_on', channel=0, note=60, velocity=0, time=192),
    Message('note_on', channel=0, note=60, velocity=100, time=0),
    Message('note_on', channel=0, note=62, velocity=100, time=0),
    Message('note_on', channel=0, note=68, velocity=100, time=0),
    Message('note_on', channel=0, note=68, velocity=0, time=384),
    Message('note_on', channel=0, note=62, velocity=0, time=0),
    Message('note_on', channel=0, note=60, velocity=0, time=0),
    Message('note_on', channel=0, note=62, velocity=100, time=0),
    Message('note_on', channel=0, note=68, velocity=100, time=0),
    Message('note_on', channel=0, note=68, velocity=0, time=192),
    Message('note_on', channel=0, note=62, velocity=0, time=0),
    Message('note_on', channel=0, note=60, velocity=100, time=0),
    Message('note_on', channel=0, note=60, velocity=0, time=192),
    Message('note_on', channel=0, note=61, velocity=100, time=0),
    Message('note_on', channel=0, note=67, velocity=100, time=0),
    Message('note_on', channel=0, note=67, velocity=0, time=192),
    Message('note_on', channel=0, note=61, velocity=0, time=0),
    Message('note_on', channel=0, note=60, velocity=100, time=0),
    Message('note_on', channel=0, note=60, velocity=0, time=192),
    Message('note_on', channel=0, note=61, velocity=100, time=0),
    Message('note_on', channel=0, note=67, velocity=100, time=0),
    Message('note_on', channel=0, note=67, velocity=0, time=192),
    Message('note_on', channel=0, note=61, velocity=0, time=0),
    Message('note_on', channel=0, note=60, velocity=100, time=0),
    Message('note_on', channel=0, note=60, velocity=0, time=192),
    Message('note_on', channel=0, note=65, velocity=100, time=0),
    Message('note_on', channel=0, note=68, velocity=100, time=0),
    Message('note_on', channel=0, note=68, velocity=0, time=192),
    Message('note_on', channel=0, note=65, velocity=0, time=0),
    Message('note_on', channel=0, note=60, velocity=100, time=0),
    Message('note_on', channel=0, note=60, velocity=0, time=192),
    Message('note_on', channel=0, note=65, velocity=100, time=0),
    Message('note_on', channel=0, note=68, velocity=100, time=0),
    Message('note_on', channel=0, note=68, velocity=0, time=384),
    Message('note_on', channel=0, note=65, velocity=0, time=0),
    Message('note_on', channel=0, note=65, velocity=100, time=0),
    Message('note_on', channel=0, note=70, velocity=100, time=0),
    Message('note_on', channel=0, note=70, velocity=0, time=192),
    Message('note_on', channel=0, note=65, velocity=0, time=0),
    Message('note_on', channel=0, note=60, velocity=100, time=0),
    Message('note_on', channel=0, note=60, velocity=0, time=192),
    Message('note_on', channel=0, note=65, velocity=100, time=0),
    Message('note_on', channel=0, note=70, velocity=100, time=0),
    Message('note_on', channel=0, note=70, velocity=0, time=192),
    Message('note_on', channel=0, note=65, velocity=0, time=0),
    Message('note_on', channel=0, note=60, velocity=100, time=0),
    Message('note_on', channel=0, note=60, velocity=0, time=192),
    Message('note_on', channel=0, note=65, velocity=100, time=0),
    Message('note_on', channel=0, note=72, velocity=100, time=0),
    Message('note_on', channel=0, note=72, velocity=0, time=192),
    Message('note_on', channel=0, note=65, velocity=0, time=0),
    Message('note_on', channel=0, note=60, velocity=100, time=0),
    Message('note_on', channel=0, note=60, velocity=0, time=192),
    Message('note_on', channel=0, note=65, velocity=100, time=0),
    Message('note_on', channel=0, note=72, velocity=100, time=0),
    Message('note_on', channel=0, note=72, velocity=0, time=192),
    Message('note_on', channel=0, note=65, velocity=0, time=0),
    Message('note_on', channel=0, note=60, velocity=100, time=0),
    Message('note_on', channel=0, note=60, velocity=0, time=192),
    Message('note_on', channel=0, note=65, velocity=100, time=0),
    Message('note_on', channel=0, note=72, velocity=100, time=0),
    Message('note_on', channel=0, note=72, velocity=0, time=768),
    Message('note_on', channel=0, note=65, velocity=0, time=0),
    Message('note_on', channel=0, note=65, velocity=100, time=0),
    Message('note_on', channel=0, note=68, velocity=100, time=0),
    Message('note_on', channel=0, note=68, velocity=0, time=192),
    Message('note_on', channel=0, note=65, velocity=0, time=0),
    Message('note_on', channel=0, note=60, velocity=100, time=0),
    Message('note_on', channel=0, note=60, velocity=0, time=192),
    Message('note_on', channel=0, note=65, velocity=100, time=0),
    Message('note_on', channel=0, note=68, velocity=100, time=0),
    Message('note_on', channel=0, note=68, velocity=0, time=192),
    Message('note_on', channel=0, note=65, velocity=0, time=0),
    Message('note_on', channel=0, note=60, velocity=100, time=0),
    Message('note_on', channel=0, note=60, velocity=0, time=192),
    Message('note_on', channel=0, note=63, velocity=100, time=0),
    Message('note_on', channel=0, note=67, velocity=100, time=0),
    Message('note_on', channel=0, note=67, velocity=0, time=192),
    Message('note_on', channel=0, note=63, velocity=0, time=0),
    Message('note_on', channel=0, note=60, velocity=100, time=0),
    Message('note_on', channel=0, note=60, velocity=0, time=192),
    Message('note_on', channel=0, note=63, velocity=100, time=0),
    Message('note_on', channel=0, note=67, velocity=100, time=0),
    Message('note_on', channel=0, note=67, velocity=0, time=192),
    Message('note_on', channel=0, note=63, velocity=0, time=0),
    Message('note_on', channel=0, note=60, velocity=100, time=0),
    Message('note_on', channel=0, note=60, velocity=0, time=192),
    Message('note_on', channel=0, note=60, velocity=100, time=0),
    Message('note_on', channel=0, note=62, velocity=100, time=0),
    Message('note_on', channel=0, note=68, velocity=100, time=0),
    Message('note_on', channel=0, note=68, velocity=0, time=384),
    Message('note_on', channel=0, note=62, velocity=0, time=0),
    Message('note_on', channel=0, note=60, velocity=0, time=0),
    Message('note_on', channel=0, note=61, velocity=100, time=0),
    Message('note_on', channel=0, note=68, velocity=100, time=0),
    Message('note_on', channel=0, note=68, velocity=0, time=192),
    Message('note_on', channel=0, note=61, velocity=0, time=0),
    Message('note_on', channel=0, note=60, velocity=100, time=0),
    Message('note_on', channel=0, note=60, velocity=0, time=192),
    Message('note_on', channel=0, note=67, velocity=100, time=0),
    Message('note_on', channel=0, note=61, velocity=100, time=0),
    Message('note_on', channel=0, note=61, velocity=0, time=192),
    Message('note_on', channel=0, note=67, velocity=0, time=0),
    Message('note_on', channel=0, note=60, velocity=100, time=0),
    Message('note_on', channel=0, note=60, velocity=0, time=192),
    Message('note_on', channel=0, note=61, velocity=100, time=0),
    Message('note_on', channel=0, note=67, velocity=100, time=0),
    Message('note_on', channel=0, note=67, velocity=0, time=192),
    Message('note_on', channel=0, note=61, velocity=0, time=0),
    Message('note_on', channel=0, note=60, velocity=100, time=0),
    Message('note_on', channel=0, note=60, velocity=0, time=192),
    Message('note_on', channel=0, note=65, velocity=100, time=0),
    Message('note_on', channel=0, note=68, velocity=100, time=0),
    Message('note_on', channel=0, note=68, velocity=0, time=192),
    Message('note_on', channel=0, note=65, velocity=0, time=0),
    Message('note_on', channel=0, note=60, velocity=100, time=0),
    Message('note_on', channel=0, note=60, velocity=0, time=192),
    Message('note_on', channel=0, note=65, velocity=100, time=0),
    Message('note_on', channel=0, note=68, velocity=100, time=0),
    Message('note_on', channel=0, note=68, velocity=0, time=384),
    Message('note_on', channel=0, note=65, velocity=0, time=0),
    Message('note_on', channel=0, note=65, velocity=100, time=0),
    Message('note_on', channel=0, note=70, velocity=100, time=0),
    Message('note_on', channel=0, note=70, velocity=0, time=192),
    Message('note_on', channel=0, note=65, velocity=0, time=0),
    Message('note_on', channel=0, note=60, velocity=100, time=0),
    Message('note_on', channel=0, note=60, velocity=0, time=192),
    Message('note_on', channel=0, note=65, velocity=100, time=0),
    Message('note_on', channel=0, note=70, velocity=100, time=0),
    Message('note_on', channel=0, note=70, velocity=0, time=192),
    Message('note_on', channel=0, note=65, velocity=0, time=0),
    Message('note_on', channel=0, note=60, velocity=100, time=0),
    Message('note_on', channel=0, note=60, velocity=0, time=192),
    Message('note_on', channel=0, note=65, velocity=100, time=0),
    Message('note_on', channel=0, note=72, velocity=100, time=0),
    Message('note_on', channel=0, note=72, velocity=0, time=384),
    Message('note_on', channel=0, note=65, velocity=0, time=0),
    Message('note_on', channel=0, note=65, velocity=100, time=0),
    Message('note_on', channel=0, note=72, velocity=100, time=0),
    Message('note_on', channel=0, note=72, velocity=0, time=384),
    Message('note_on', channel=0, note=65, velocity=0, time=0),
    Message('note_on', channel=0, note=60, velocity=100, time=0),
    Message('note_on', channel=0, note=65, velocity=100, time=0),
    Message('note_on', channel=0, note=70, velocity=100, time=0),
    Message('note_on', channel=0, note=70, velocity=0, time=192),
    Message('note_on', channel=0, note=65, velocity=0, time=0),
    Message('note_on', channel=0, note=60, velocity=0, time=0),
    Message('note_on', channel=0, note=65, velocity=100, time=0),
    Message('note_on', channel=0, note=68, velocity=100, time=8),
    Message('note_on', channel=0, note=65, velocity=0, time=376),
    Message('note_on', channel=0, note=65, velocity=100, time=0),
    Message('note_on', channel=0, note=70, velocity=100, time=0),
    Message('note_on', channel=0, note=68, velocity=0, time=8),
    Message('note_on', channel=0, note=70, velocity=0, time=184),
    Message('note_on', channel=0, note=65, velocity=0, time=0),
    Message('note_on', channel=0, note=68, velocity=100, time=0),
    Message('note_on', channel=0, note=72, velocity=100, time=0),
    Message('note_on', channel=0, note=72, velocity=0, time=384),
    Message('note_on', channel=0, note=68, velocity=0, time=0),
    Message('note_on', channel=0, note=68, velocity=100, time=0),
    Message('note_on', channel=0, note=72, velocity=100, time=0),
    Message('note_on', channel=0, note=72, velocity=0, time=384),
    Message('note_on', channel=0, note=68, velocity=0, time=0),
    Message('note_on', channel=0, note=68, velocity=100, time=0),
    Message('note_on', channel=0, note=72, velocity=100, time=0),
    Message('note_on', channel=0, note=72, velocity=0, time=192),
    Message('note_on', channel=0, note=68, velocity=0, time=0),
    Message('note_on', channel=0, note=65, velocity=100, time=8),
    Message('note_on', channel=0, note=70, velocity=100, time=0),
    Message('note_on', channel=0, note=65, velocity=100, time=376),
    Message('note_on', channel=0, note=70, velocity=0, time=8),
    Message('note_on', channel=0, note=65, velocity=0, time=184),
    Message('note_on', channel=0, note=65, velocity=0, time=0),
    Message('note_on', channel=0, note=61, velocity=100, time=0),
    Message('note_on', channel=0, note=61, velocity=0, time=192),
    Message('note_on', channel=0, note=60, velocity=100, time=0),
    Message('note_on', channel=0, note=61, velocity=100, time=180),
    Message('note_on', channel=0, note=60, velocity=0, time=12),
    Message('note_on', channel=0, note=61, velocity=0, time=180),
    Message('note_on', channel=0, note=60, velocity=100, time=12),
    Message('note_on', channel=0, note=60, velocity=0, time=192),
    Message('note_on', channel=0, note=61, velocity=100, time=0),
    Message('note_on', channel=0, note=61, velocity=0, time=192),
    Message('note_on', channel=0, note=60, velocity=100, time=0),
    Message('note_on', channel=0, note=60, velocity=0, time=192),
    Message('note_on', channel=0, note=61, velocity=100, time=0),
    Message('note_on', channel=0, note=61, velocity=0, time=192),
    Message('note_on', channel=0, note=60, velocity=100, time=0),
    Message('note_on', channel=0, note=60, velocity=0, time=192),
    Message('note_on', channel=0, note=61, velocity=120, time=0),
    Message('note_on', channel=0, note=61, velocity=0, time=96),
    Message('note_on', channel=0, note=60, velocity=120, time=0),
    Message('note_on', channel=0, note=60, velocity=0, time=96),
    Message('note_on', channel=0, note=58, velocity=120, time=0),
    Message('note_on', channel=0, note=58, velocity=0, time=92),
    Message('note_on', channel=0, note=60, velocity=120, time=4),
    Message('note_on', channel=0, note=60, velocity=0, time=96),
    Message('note_on', channel=0, note=61, velocity=120, time=0),
    Message('note_on', channel=0, note=61, velocity=0, time=92),
    Message('note_on', channel=0, note=64, velocity=120, time=4),
    Message('note_on', channel=0, note=64, velocity=0, time=96),
    Message('note_on', channel=0, note=65, velocity=120, time=0),
    Message('note_on', channel=0, note=65, velocity=0, time=96),
    Message('note_on', channel=0, note=67, velocity=120, time=0),
    Message('note_on', channel=0, note=67, velocity=0, time=92),
    Message('note_on', channel=0, note=65, velocity=120, time=4),
    Message('note_on', channel=0, note=65, velocity=0, time=96),
    Message('note_on', channel=0, note=67, velocity=120, time=0),
    Message('note_on', channel=0, note=67, velocity=0, time=96),
    Message('note_on', channel=0, note=68, velocity=120, time=0),
    Message('note_on', channel=0, note=68, velocity=0, time=92),
    Message('note_on', channel=0, note=67, velocity=120, time=4),
    Message('note_on', channel=0, note=67, velocity=0, time=96),
    Message('note_on', channel=0, note=68, velocity=120, time=0),
    Message('note_on', channel=0, note=68, velocity=0, time=96),
    Message('note_on', channel=0, note=70, velocity=120, time=0),
    Message('note_on', channel=0, note=70, velocity=0, time=92),
    Message('note_on', channel=0, note=68, velocity=120, time=4),
    Message('note_on', channel=0, note=68, velocity=0, time=48),
    Message('note_on', channel=0, note=70, velocity=120, time=0),
    Message('note_on', channel=0, note=70, velocity=0, time=48),
    Message('note_on', channel=0, note=68, velocity=120, time=0),
    Message('note_on', channel=0, note=68, velocity=0, time=92),
    Message('note_on', channel=0, note=67, velocity=120, time=4),
    Message('note_on', channel=0, note=67, velocity=0, time=48),
    Message('note_on', channel=0, note=68, velocity=120, time=0),
    Message('note_on', channel=0, note=68, velocity=0, time=48),
    Message('note_on', channel=0, note=67, velocity=120, time=0),
    Message('note_on', channel=0, note=67, velocity=0, time=48),
    Message('note_on', channel=0, note=65, velocity=120, time=0),
    Message('note_on', channel=0, note=65, velocity=0, time=44),
    Message('note_on', channel=0, note=65, velocity=120, time=4),
    Message('note_on', channel=0, note=65, velocity=0, time=48),
    Message('note_on', channel=0, note=67, velocity=120, time=0),
    Message('note_on', channel=0, note=67, velocity=0, time=48),
    Message('note_on', channel=0, note=65, velocity=120, time=0),
    Message('note_on', channel=0, note=65, velocity=0, time=48),
    Message('note_on', channel=0, note=63, velocity=120, time=0),
    Message('note_on', channel=0, note=63, velocity=0, time=44),
    Message('note_on', channel=0, note=63, velocity=120, time=4),
    Message('note_on', channel=0, note=63, velocity=0, time=48),
    Message('note_on', channel=0, note=65, velocity=120, time=0),
    Message('note_on', channel=0, note=65, velocity=0, time=48),
    Message('note_on', channel=0, note=63, velocity=120, time=0),
    Message('note_on', channel=0, note=63, velocity=0, time=48),
    Message('note_on', channel=0, note=61, velocity=120, time=0),
    Message('note_on', channel=0, note=61, velocity=0, time=44),
    Message('note_on', channel=0, note=61, velocity=120, time=4),
    Message('note_on', channel=0, note=61, velocity=0, time=96),
    Message('note_on', channel=0, note=60, velocity=120, time=0),
    Message('note_on', channel=0, note=60, velocity=0, time=96),
    Message('note_on', channel=0, note=72, velocity=120, time=0),
    Message('note_on', channel=0, note=72, velocity=0, time=476),
    Message('note_on', channel=0, note=65, velocity=100, time=292),
    Message('note_on', channel=0, note=68, velocity=100, time=0),
    Message('note_on', channel=0, note=68, velocity=0, time=192),
    Message('note_on', channel=0, note=65, velocity=0, time=0),
    Message('note_on', channel=0, note=60, velocity=100, time=0),
    Message('note_on', channel=0, note=60, velocity=0, time=192),
    Message('note_on', channel=0, note=65, velocity=100, time=0),
    Message('note_on', channel=0, note=68, velocity=100, time=0),
    Message('note_on', channel=0, note=68, velocity=0, time=192),
    Message('note_on', channel=0, note=65, velocity=0, time=0),
    Message('note_on', channel=0, note=60, velocity=100, time=0),
    Message('note_on', channel=0, note=60, velocity=0, time=192),
    Message('note_on', channel=0, note=63, velocity=100, time=0),
    Message('note_on', channel=0, note=67, velocity=100, time=0),
    Message('note_on', channel=0, note=67, velocity=0, time=192),
    Message('note_on', channel=0, note=63, velocity=0, time=0),
    Message('note_on', channel=0, note=60, velocity=100, time=0),
    Message('note_on', channel=0, note=60, velocity=0, time=192),
    Message('note_on', channel=0, note=63, velocity=100, time=0),
    Message('note_on', channel=0, note=67, velocity=100, time=0),
    Message('note_on', channel=0, note=67, velocity=0, time=192),
    Message('note_on', channel=0, note=63, velocity=0, time=0),
    Message('note_on', channel=0, note=60, velocity=100, time=0),
    Message('note_on', channel=0, note=60, velocity=0, time=192),
    Message('note_on', channel=0, note=62, velocity=100, time=0),
    Message('note_on', channel=0, note=68, velocity=100, time=0),
    Message('note_on', channel=0, note=68, velocity=0, time=192),
    Message('note_on', channel=0, note=62, velocity=0, time=0),
    Message('note_on', channel=0, note=60, velocity=100, time=0),
    Message('note_on', channel=0, note=60, velocity=0, time=192),
    Message('note_on', channel=0, note=63, velocity=100, time=0),
    Message('note_on', channel=0, note=68, velocity=100, time=0),
    Message('note_on', channel=0, note=68, velocity=0, time=192),
    Message('note_on', channel=0, note=63, velocity=0, time=0),
    Message('note_on', channel=0, note=60, velocity=100, time=0),
    Message('note_on', channel=0, note=60, velocity=0, time=192),
    Message('note_on', channel=0, note=61, velocity=100, time=0),
    Message('note_on', channel=0, note=67, velocity=100, time=0),
    Message('note_on', channel=0, note=67, velocity=0, time=192),
    Message('note_on', channel=0, note=61, velocity=0, time=0),
    Message('note_on', channel=0, note=60, velocity=100, time=0),
    Message('note_on', channel=0, note=60, velocity=0, time=192),
    Message('note_on', channel=0, note=61, velocity=100, time=0),
    Message('note_on', channel=0, note=67, velocity=100, time=0),
    Message('note_on', channel=0, note=67, velocity=0, time=192),
    Message('note_on', channel=0, note=61, velocity=0, time=0),
    Message('note_on', channel=0, note=60, velocity=100, time=0),
    Message('note_on', channel=0, note=60, velocity=0, time=192),
    Message('note_on', channel=0, note=65, velocity=100, time=0),
    Message('note_on', channel=0, note=68, velocity=100, time=0),
    Message('note_on', channel=0, note=68, velocity=0, time=192),
    Message('note_on', channel=0, note=65, velocity=0, time=0),
    Message('note_on', channel=0, note=60, velocity=100, time=0),
    Message('note_on', channel=0, note=60, velocity=0, time=192),
    Message('note_on', channel=0, note=65, velocity=100, time=0),
    Message('note_on', channel=0, note=68, velocity=100, time=0),
    Message('note_on', channel=0, note=68, velocity=0, time=192),
    Message('note_on', channel=0, note=65, velocity=0, time=0),
    Message('note_on', channel=0, note=60, velocity=100, time=0),
    Message('note_on', channel=0, note=60, velocity=0, time=192),
    Message('note_on', channel=0, note=63, velocity=100, time=0),
    Message('note_on', channel=0, note=67, velocity=100, time=0),
    Message('note_on', channel=0, note=67, velocity=0, time=192),
    Message('note_on', channel=0, note=63, velocity=0, time=0),
    Message('note_on', channel=0, note=60, velocity=100, time=0),
    Message('note_on', channel=0, note=60, velocity=0, time=192),
    Message('note_on', channel=0, note=63, velocity=100, time=0),
    Message('note_on', channel=0, note=67, velocity=100, time=0),
    Message('note_on', channel=0, note=67, velocity=0, time=192),
    Message('note_on', channel=0, note=63, velocity=0, time=0),
    Message('note_on', channel=0, note=60, velocity=100, time=0),
    Message('note_on', channel=0, note=60, velocity=0, time=192),
    Message('note_on', channel=0, note=62, velocity=100, time=0),
    Message('note_on', channel=0, note=68, velocity=100, time=0),
    Message('note_on', channel=0, note=68, velocity=0, time=192),
    Message('note_on', channel=0, note=62, velocity=0, time=0),
    Message('note_on', channel=0, note=60, velocity=100, time=0),
    Message('note_on', channel=0, note=60, velocity=0, time=192),
    Message('note_on', channel=0, note=63, velocity=100, time=0),
    Message('note_on', channel=0, note=68, velocity=100, time=0),
    Message('note_on', channel=0, note=68, velocity=0, time=192),
    Message('note_on', channel=0, note=63, velocity=0, time=0),
    Message('note_on', channel=0, note=60, velocity=100, time=0),
    Message('note_on', channel=0, note=60, velocity=0, time=192),
    Message('note_on', channel=0, note=61, velocity=100, time=0),
    Message('note_on', channel=0, note=67, velocity=100, time=0),
    Message('note_on', channel=0, note=67, velocity=0, time=192),
    Message('note_on', channel=0, note=61, velocity=0, time=0),
    Message('note_on', channel=0, note=60, velocity=100, time=0),
    Message('note_on', channel=0, note=60, velocity=0, time=192),
    Message('note_on', channel=0, note=61, velocity=100, time=0),
    Message('note_on', channel=0, note=67, velocity=100, time=0),
    Message('note_on', channel=0, note=67, velocity=0, time=192),
    Message('note_on', channel=0, note=61, velocity=0, time=0),
    Message('note_on', channel=0, note=60, velocity=100, time=0),
    Message('note_on', channel=0, note=60, velocity=0, time=192),
    Message('note_on', channel=0, note=65, velocity=100, time=0),
    Message('note_on', channel=0, note=68, velocity=100, time=0),
    Message('note_on', channel=0, note=68, velocity=0, time=192),
    Message('note_on', channel=0, note=65, velocity=0, time=0),
    Message('note_on', channel=0, note=60, velocity=100, time=0),
    Message('note_on', channel=0, note=60, velocity=0, time=192),
    Message('note_on', channel=0, note=65, velocity=100, time=0),
    Message('note_on', channel=0, note=68, velocity=100, time=0),
    Message('note_on', channel=0, note=68, velocity=0, time=192),
    Message('note_on', channel=0, note=65, velocity=0, time=0),
    Message('note_on', channel=0, note=60, velocity=100, time=0),
    Message('note_on', channel=0, note=60, velocity=0, time=192),
    Message('note_on', channel=0, note=63, velocity=100, time=0),
    Message('note_on', channel=0, note=67, velocity=100, time=0),
    Message('note_on', channel=0, note=67, velocity=0, time=192),
    Message('note_on', channel=0, note=63, velocity=0, time=0),
    Message('note_on', channel=0, note=60, velocity=100, time=0),
    Message('note_on', channel=0, note=60, velocity=0, time=192),
    Message('note_on', channel=0, note=63, velocity=100, time=0),
    Message('note_on', channel=0, note=67, velocity=100, time=0),
    Message('note_on', channel=0, note=67, velocity=0, time=192),
    Message('note_on', channel=0, note=63, velocity=0, time=0),
    Message('note_on', channel=0, note=60, velocity=100, time=0),
    Message('note_on', channel=0, note=60, velocity=0, time=192),
    Message('note_on', channel=0, note=62, velocity=100, time=0),
    Message('note_on', channel=0, note=68, velocity=100, time=0),
    Message('note_on', channel=0, note=68, velocity=0, time=192),
    Message('note_on', channel=0, note=62, velocity=0, time=0),
    Message('note_on', channel=0, note=60, velocity=100, time=0),
    Message('note_on', channel=0, note=60, velocity=0, time=192),
    Message('note_on', channel=0, note=62, velocity=100, time=0),
    Message('note_on', channel=0, note=68, velocity=100, time=0),
    Message('note_on', channel=0, note=68, velocity=0, time=192),
    Message('note_on', channel=0, note=62, velocity=0, time=0),
    Message('note_on', channel=0, note=60, velocity=100, time=0),
    Message('note_on', channel=0, note=60, velocity=0, time=192),
    Message('note_on', channel=0, note=61, velocity=100, time=0),
    Message('note_on', channel=0, note=67, velocity=100, time=0),
    Message('note_on', channel=0, note=67, velocity=0, time=192),
    Message('note_on', channel=0, note=61, velocity=0, time=0),
    Message('note_on', channel=0, note=60, velocity=100, time=0),
    Message('note_on', channel=0, note=60, velocity=0, time=192),
    Message('note_on', channel=0, note=61, velocity=100, time=0),
    Message('note_on', channel=0, note=67, velocity=100, time=0),
    Message('note_on', channel=0, note=67, velocity=0, time=192),
    Message('note_on', channel=0, note=61, velocity=0, time=0),
    Message('note_on', channel=0, note=60, velocity=100, time=0),
    Message('note_on', channel=0, note=60, velocity=0, time=192),
    Message('note_on', channel=0, note=65, velocity=100, time=0),
    Message('note_on', channel=0, note=68, velocity=100, time=0),
    Message('note_on', channel=0, note=68, velocity=0, time=192),
    Message('note_on', channel=0, note=65, velocity=0, time=0),
    Message('note_on', channel=0, note=60, velocity=100, time=0),
    Message('note_on', channel=0, note=60, velocity=0, time=192),
    Message('note_on', channel=0, note=65, velocity=100, time=0),
    Message('note_on', channel=0, note=68, velocity=100, time=0),
    Message('note_on', channel=0, note=68, velocity=0, time=192),
    Message('note_on', channel=0, note=65, velocity=0, time=0),
    Message('note_on', channel=0, note=60, velocity=100, time=0),
    Message('note_on', channel=0, note=60, velocity=0, time=192),
    Message('note_on', channel=0, note=63, velocity=100, time=0),
    Message('note_on', channel=0, note=67, velocity=100, time=0),
    Message('note_on', channel=0, note=67, velocity=0, time=192),
    Message('note_on', channel=0, note=63, velocity=0, time=0),
    Message('note_on', channel=0, note=60, velocity=100, time=0),
    Message('note_on', channel=0, note=60, velocity=0, time=192),
    Message('note_on', channel=0, note=63, velocity=100, time=0),
    Message('note_on', channel=0, note=67, velocity=100, time=0),
    Message('note_on', channel=0, note=67, velocity=0, time=192),
    Message('note_on', channel=0, note=63, velocity=0, time=0),
    Message('note_on', channel=0, note=60, velocity=100, time=0),
    Message('note_on', channel=0, note=60, velocity=0, time=192),
    Message('note_on', channel=0, note=62, velocity=100, time=0),
    Message('note_on', channel=0, note=68, velocity=100, time=0),
    Message('note_on', channel=0, note=68, velocity=0, time=192),
    Message('note_on', channel=0, note=62, velocity=0, time=0),
    Message('note_on', channel=0, note=60, velocity=100, time=0),
    Message('note_on', channel=0, note=60, velocity=0, time=192),
    Message('note_on', channel=0, note=62, velocity=100, time=0),
    Message('note_on', channel=0, note=68, velocity=100, time=0),
    Message('note_on', channel=0, note=68, velocity=0, time=192),
    Message('note_on', channel=0, note=62, velocity=0, time=0),
    Message('note_on', channel=0, note=60, velocity=100, time=0),
    Message('note_on', channel=0, note=60, velocity=0, time=192),
    Message('note_on', channel=0, note=61, velocity=100, time=0),
    Message('note_on', channel=0, note=67, velocity=100, time=0),
    Message('note_on', channel=0, note=67, velocity=0, time=192),
    Message('note_on', channel=0, note=61, velocity=0, time=0),
    Message('note_on', channel=0, note=60, velocity=100, time=0),
    Message('note_on', channel=0, note=60, velocity=0, time=192),
    Message('note_on', channel=0, note=61, velocity=100, time=0),
    Message('note_on', channel=0, note=67, velocity=100, time=0),
    Message('note_on', channel=0, note=67, velocity=0, time=192),
    Message('note_on', channel=0, note=61, velocity=0, time=0),
    Message('note_on', channel=0, note=60, velocity=100, time=0),
    Message('note_on', channel=0, note=60, velocity=0, time=192),
    Message('note_on', channel=0, note=65, velocity=100, time=0),
    Message('note_on', channel=0, note=68, velocity=100, time=0),
    Message('note_on', channel=0, note=68, velocity=0, time=192),
    Message('note_on', channel=0, note=65, velocity=0, time=0),
    Message('note_on', channel=0, note=60, velocity=100, time=0),
    Message('note_on', channel=0, note=60, velocity=0, time=192),
    Message('note_on', channel=0, note=65, velocity=100, time=0),
    Message('note_on', channel=0, note=68, velocity=100, time=0),
    Message('note_on', channel=0, note=68, velocity=0, time=192),
    Message('note_on', channel=0, note=65, velocity=0, time=0),
    Message('note_on', channel=0, note=60, velocity=100, time=0),
    Message('note_on', channel=0, note=60, velocity=0, time=192),
    Message('note_on', channel=0, note=65, velocity=100, time=0),
    Message('note_on', channel=0, note=67, velocity=100, time=0),
    Message('note_on', channel=0, note=67, velocity=0, time=192),
    Message('note_on', channel=0, note=65, velocity=0, time=0),
    Message('note_on', channel=0, note=60, velocity=100, time=0),
    Message('note_on', channel=0, note=60, velocity=0, time=192),
    Message('note_on', channel=0, note=64, velocity=100, time=0),
    Message('note_on', channel=0, note=67, velocity=100, time=0),
    Message('note_on', channel=0, note=67, velocity=0, time=192),
    Message('note_on', channel=0, note=64, velocity=0, time=0),
    Message('note_on', channel=0, note=60, velocity=100, time=0),
    Message('note_on', channel=0, note=60, velocity=0, time=192),
    Message('note_on', channel=0, note=65, velocity=100, time=0),
    Message('note_on', channel=0, note=68, velocity=100, time=0),
    Message('note_on', channel=0, note=68, velocity=0, time=192),
    Message('note_on', channel=0, note=65, velocity=0, time=0),
    Message('note_on', channel=0, note=60, velocity=100, time=0),
    Message('note_on', channel=0, note=60, velocity=0, time=192),
    Message('note_on', channel=0, note=65, velocity=100, time=0),
    Message('note_on', channel=0, note=68, velocity=100, time=0),
    Message('note_on', channel=0, note=68, velocity=0, time=192),
    Message('note_on', channel=0, note=65, velocity=0, time=0),
    Message('note_on', channel=0, note=60, velocity=100, time=0),
    Message('note_on', channel=0, note=60, velocity=0, time=192),
    Message('note_on', channel=0, note=65, velocity=100, time=0),
    Message('note_on', channel=0, note=67, velocity=100, time=0),
    Message('note_on', channel=0, note=67, velocity=0, time=192),
    Message('note_on', channel=0, note=65, velocity=0, time=0),
    Message('note_on', channel=0, note=60, velocity=100, time=0),
    Message('note_on', channel=0, note=60, velocity=0, time=192),
    Message('note_on', channel=0, note=65, velocity=100, time=0),
    Message('note_on', channel=0, note=67, velocity=100, time=0),
    Message('note_on', channel=0, note=67, velocity=0, time=192),
    Message('note_on', channel=0, note=65, velocity=0, time=0),
    Message('note_on', channel=0, note=60, velocity=100, time=0),
    Message('note_on', channel=0, note=60, velocity=0, time=192),
    Message('note_on', channel=0, note=61, velocity=100, time=0),
    Message('note_on', channel=0, note=61, velocity=0, time=192),
    Message('note_on', channel=0, note=60, velocity=100, time=0),
    Message('note_on', channel=0, note=60, velocity=0, time=192),
    Message('note_on', channel=0, note=61, velocity=100, time=0),
    Message('note_on', channel=0, note=61, velocity=0, time=192),
    Message('note_on', channel=0, note=60, velocity=100, time=0),
    Message('note_on', channel=0, note=60, velocity=0, time=192),
    Message('note_on', channel=0, note=61, velocity=100, time=0),
    Message('note_on', channel=0, note=61, velocity=0, time=192),
    Message('note_on', channel=0, note=60, velocity=100, time=0),
    Message('note_on', channel=0, note=60, velocity=0, time=192),
    Message('note_on', channel=0, note=61, velocity=100, time=0),
    Message('note_on', channel=0, note=61, velocity=0, time=192),
    Message('note_on', channel=0, note=60, velocity=100, time=0),
    Message('note_on', channel=0, note=60, velocity=0, time=192),
    Message('note_on', channel=0, note=61, velocity=100, time=0),
    Message('note_on', channel=0, note=61, velocity=0, time=192),
    Message('note_on', channel=0, note=60, velocity=100, time=0),
    Message('note_on', channel=0, note=60, velocity=0, time=192),
    Message('note_on', channel=0, note=61, velocity=100, time=0),
    Message('note_on', channel=0, note=61, velocity=0, time=192),
    Message('note_on', channel=0, note=60, velocity=100, time=0),
    Message('note_on', channel=0, note=60, velocity=0, time=192),
    Message('note_on', channel=0, note=61, velocity=100, time=0),
    Message('note_on', channel=0, note=61, velocity=0, time=192),
    Message('note_on', channel=0, note=60, velocity=100, time=0),
    Message('note_on', channel=0, note=60, velocity=0, time=192),
    Message('note_on', channel=0, note=61, velocity=100, time=0),
    Message('note_on', channel=0, note=61, velocity=0, time=192),
    Message('note_on', channel=0, note=60, velocity=100, time=0),
    Message('note_on', channel=0, note=60, velocity=0, time=192),
    Message('note_on', channel=0, note=53, velocity=100, time=0),
    Message('note_on', channel=0, note=60, velocity=100, time=0),
    Message('note_on', channel=0, note=65, velocity=100, time=0),
    Message('note_on', channel=0, note=65, velocity=0, time=576),
    Message('note_on', channel=0, note=60, velocity=0, time=0),
    Message('note_on', channel=0, note=53, velocity=0, time=0),
    Message('note_on', channel=0, note=53, velocity=100, time=0),
    Message('note_on', channel=0, note=60, velocity=100, time=0),
    Message('note_on', channel=0, note=65, velocity=100, time=0),
    Message('note_on', channel=0, note=65, velocity=0, time=192),
    Message('note_on', channel=0, note=60, velocity=0, time=0),
    Message('note_on', channel=0, note=53, velocity=0, time=0),
    Message('note_on', channel=0, note=51, velocity=100, time=0),
    Message('note_on', channel=0, note=58, velocity=100, time=0),
    Message('note_on', channel=0, note=58, velocity=0, time=576),
    Message('note_on', channel=0, note=51, velocity=0, time=0),
    Message('note_on', channel=0, note=51, velocity=100, time=0),
    Message('note_on', channel=0, note=58, velocity=100, time=0),
    Message('note_on', channel=0, note=58, velocity=0, time=192),
    Message('note_on', channel=0, note=51, velocity=0, time=0),
    Message('note_on', channel=0, note=49, velocity=100, time=0),
    Message('note_on', channel=0, note=56, velocity=100, time=0),
    Message('note_on', channel=0, note=56, velocity=0, time=576),
    Message('note_on', channel=0, note=49, velocity=0, time=0),
    Message('note_on', channel=0, note=49, velocity=100, time=0),
    Message('note_on', channel=0, note=56, velocity=100, time=0),
    Message('note_on', channel=0, note=56, velocity=0, time=192),
    Message('note_on', channel=0, note=49, velocity=0, time=0),
    Message('note_on', channel=0, note=51, velocity=100, time=0),
    Message('note_on', channel=0, note=58, velocity=100, time=0),
    Message('note_on', channel=0, note=58, velocity=0, time=576),
    Message('note_on', channel=0, note=51, velocity=0, time=0),
    Message('note_on', channel=0, note=51, velocity=100, time=0),
    Message('note_on', channel=0, note=58, velocity=100, time=0),
    Message('note_on', channel=0, note=58, velocity=0, time=192),
    Message('note_on', channel=0, note=51, velocity=0, time=0),
    Message('note_on', channel=0, note=60, velocity=100, time=0),
    Message('note_on', channel=0, note=53, velocity=100, time=180),
    Message('note_on', channel=0, note=60, velocity=0, time=12),
    Message('note_on', channel=0, note=53, velocity=0, time=372),
    Message('note_on', channel=0, note=53, velocity=100, time=12),
    Message('note_on', channel=0, note=60, velocity=100, time=0),
    Message('note_on', channel=0, note=60, velocity=0, time=192),
    Message('note_on', channel=0, note=53, velocity=0, time=0),
    Message('note_on', channel=0, note=51, velocity=100, time=0),
    Message('note_on', channel=0, note=58, velocity=100, time=0),
    Message('note_on', channel=0, note=58, velocity=0, time=576),
    Message('note_on', channel=0, note=51, velocity=0, time=0),
    Message('note_on', channel=0, note=51, velocity=100, time=0),
    Message('note_on', channel=0, note=58, velocity=100, time=0),
    Message('note_on', channel=0, note=58, velocity=0, time=192),
    Message('note_on', channel=0, note=51, velocity=0, time=0),
    Message('note_on', channel=0, note=49, velocity=100, time=0),
    Message('note_on', channel=0, note=56, velocity=100, time=0),
    Message('note_on', channel=0, note=56, velocity=0, time=576),
    Message('note_on', channel=0, note=49, velocity=0, time=0),
    Message('note_on', channel=0, note=49, velocity=100, time=0),
    Message('note_on', channel=0, note=56, velocity=100, time=0),
    Message('note_on', channel=0, note=56, velocity=0, time=192),
    Message('note_on', channel=0, note=49, velocity=0, time=0),
    Message('note_on', channel=0, note=51, velocity=100, time=0),
    Message('note_on', channel=0, note=58, velocity=100, time=0),
    Message('note_on', channel=0, note=58, velocity=0, time=192),
    Message('note_on', channel=0, note=51, velocity=0, time=0),
    Message('note_on', channel=0, note=63, velocity=100, time=20),
    Message('note_on', channel=0, note=65, velocity=100, time=32),
    Message('note_on', channel=0, note=58, velocity=100, time=332),
    Message('note_on', channel=0, note=63, velocity=0, time=20),
    Message('note_on', channel=0, note=65, velocity=0, time=32),
    Message('note_on', channel=0, note=58, velocity=0, time=140),
    Message('note_on', channel=0, note=65, velocity=100, time=0),
    Message('note_on', channel=0, note=68, velocity=100, time=0),
    Message('note_on', channel=0, note=68, velocity=0, time=192),
    Message('note_on', channel=0, note=65, velocity=0, time=0),
    Message('note_on', channel=0, note=60, velocity=100, time=0),
    Message('note_on', channel=0, note=60, velocity=0, time=192),
    Message('note_on', channel=0, note=65, velocity=100, time=0),
    Message('note_on', channel=0, note=68, velocity=100, time=0),
    Message('note_on', channel=0, note=68, velocity=0, time=192),
    Message('note_on', channel=0, note=65, velocity=0, time=0),
    Message('note_on', channel=0, note=60, velocity=100, time=0),
    Message('note_on', channel=0, note=60, velocity=0, time=192),
    Message('note_on', channel=0, note=63, velocity=100, time=0),
    Message('note_on', channel=0, note=67, velocity=100, time=0),
    Message('note_on', channel=0, note=67, velocity=0, time=192),
    Message('note_on', channel=0, note=63, velocity=0, time=0),
    Message('note_on', channel=0, note=60, velocity=100, time=0),
    Message('note_on', channel=0, note=60, velocity=0, time=192),
    Message('note_on', channel=0, note=63, velocity=100, time=0),
    Message('note_on', channel=0, note=67, velocity=100, time=0),
    Message('note_on', channel=0, note=67, velocity=0, time=192),
    Message('note_on', channel=0, note=63, velocity=0, time=0),
    Message('note_on', channel=0, note=60, velocity=100, time=0),
    Message('note_on', channel=0, note=60, velocity=0, time=192),
    Message('note_on', channel=0, note=60, velocity=100, time=0),
    Message('note_on', channel=0, note=62, velocity=100, time=0),
    Message('note_on', channel=0, note=68, velocity=100, time=0),
    Message('note_on', channel=0, note=68, velocity=0, time=384),
    Message('note_on', channel=0, note=62, velocity=0, time=0),
    Message('note_on', channel=0, note=60, velocity=0, time=0),
    Message('note_on', channel=0, note=62, velocity=100, time=0),
    Message('note_on', channel=0, note=68, velocity=100, time=0),
    Message('note_on', channel=0, note=68, velocity=0, time=192),
    Message('note_on', channel=0, note=62, velocity=0, time=0),
    Message('note_on', channel=0, note=60, velocity=100, time=0),
    Message('note_on', channel=0, note=60, velocity=0, time=192),
    Message('note_on', channel=0, note=67, velocity=100, time=0),
    Message('note_on', channel=0, note=61, velocity=100, time=0),
    Message('note_on', channel=0, note=61, velocity=0, time=192),
    Message('note_on', channel=0, note=67, velocity=0, time=0),
    Message('note_on', channel=0, note=60, velocity=100, time=0),
    Message('note_on', channel=0, note=60, velocity=0, time=192),
    Message('note_on', channel=0, note=67, velocity=100, time=0),
    Message('note_on', channel=0, note=61, velocity=100, time=0),
    Message('note_on', channel=0, note=61, velocity=0, time=192),
    Message('note_on', channel=0, note=67, velocity=0, time=0),
    Message('note_on', channel=0, note=60, velocity=100, time=0),
    Message('note_on', channel=0, note=60, velocity=0, time=192),
    Message('control_change', channel=0, control=64, value=127, time=0),
    Message('note_on', channel=0, note=65, velocity=100, time=0),
    Message('note_on', channel=0, note=68, velocity=100, time=0),
    Message('note_on', channel=0, note=68, velocity=0, time=192),
    Message('note_on', channel=0, note=65, velocity=0, time=0),
    Message('note_on', channel=0, note=60, velocity=100, time=0),
    Message('note_on', channel=0, note=60, velocity=0, time=192),
    Message('note_on', channel=0, note=65, velocity=100, time=0),
    Message('note_on', channel=0, note=68, velocity=100, time=0),
    Message('note_on', channel=0, note=68, velocity=0, time=384),
    Message('note_on', channel=0, note=65, velocity=0, time=0),
    Message('note_on', channel=0, note=65, velocity=100, time=0),
    Message('note_on', channel=0, note=70, velocity=100, time=0),
    Message('note_on', channel=0, note=70, velocity=0, time=192),
    Message('note_on', channel=0, note=65, velocity=0, time=0),
    Message('note_on', channel=0, note=60, velocity=100, time=0),
    Message('note_on', channel=0, note=60, velocity=0, time=192),
    Message('note_on', channel=0, note=65, velocity=100, time=0),
    Message('note_on', channel=0, note=70, velocity=100, time=0),
    Message('note_on', channel=0, note=70, velocity=0, time=192),
    Message('note_on', channel=0, note=65, velocity=0, time=0),
    Message('note_on', channel=0, note=60, velocity=100, time=0),
    Message('note_on', channel=0, note=60, velocity=0, time=192),
    Message('note_on', channel=0, note=65, velocity=100, time=0),
    Message('note_on', channel=0, note=72, velocity=100, time=0),
    Message('note_on', channel=0, note=72, velocity=0, time=192),
    Message('note_on', channel=0, note=65, velocity=0, time=0),
    Message('note_on', channel=0, note=60, velocity=100, time=0),
    Message('note_on', channel=0, note=60, velocity=0, time=192),
    Message('note_on', channel=0, note=65, velocity=100, time=0),
    Message('note_on', channel=0, note=72, velocity=100, time=0),
    Message('note_on', channel=0, note=72, velocity=0, time=192),
    Message('note_on', channel=0, note=65, velocity=0, time=0),
    Message('note_on', channel=0, note=60, velocity=100, time=0),
    Message('note_on', channel=0, note=60, velocity=0, time=192),
    Message('note_on', channel=0, note=65, velocity=100, time=0),
    Message('note_on', channel=0, note=72, velocity=100, time=0),
    Message('note_on', channel=0, note=72, velocity=0, time=768),
    Message('note_on', channel=0, note=65, velocity=0, time=0),
    Message('note_on', channel=0, note=65, velocity=100, time=0),
    Message('note_on', channel=0, note=68, velocity=100, time=0),
    Message('note_on', channel=0, note=68, velocity=0, time=192),
    Message('note_on', channel=0, note=65, velocity=0, time=0),
    Message('note_on', channel=0, note=60, velocity=100, time=0),
    Message('note_on', channel=0, note=60, velocity=0, time=192),
    Message('note_on', channel=0, note=65, velocity=100, time=0),
    Message('note_on', channel=0, note=68, velocity=100, time=0),
    Message('note_on', channel=0, note=68, velocity=0, time=192),
    Message('note_on', channel=0, note=65, velocity=0, time=0),
    Message('note_on', channel=0, note=60, velocity=100, time=0),
    Message('note_on', channel=0, note=60, velocity=0, time=192),
    Message('note_on', channel=0, note=63, velocity=100, time=0),
    Message('note_on', channel=0, note=67, velocity=100, time=0),
    Message('note_on', channel=0, note=67, velocity=0, time=192),
    Message('note_on', channel=0, note=63, velocity=0, time=0),
    Message('note_on', channel=0, note=60, velocity=100, time=0),
    Message('note_on', channel=0, note=60, velocity=0, time=192),
    Message('note_on', channel=0, note=63, velocity=100, time=0),
    Message('note_on', channel=0, note=67, velocity=100, time=0),
    Message('note_on', channel=0, note=67, velocity=0, time=192),
    Message('note_on', channel=0, note=63, velocity=0, time=0),
    Message('note_on', channel=0, note=60, velocity=100, time=0),
    Message('note_on', channel=0, note=60, velocity=0, time=192),
    Message('note_on', channel=0, note=62, velocity=100, time=0),
    Message('note_on', channel=0, note=68, velocity=100, time=0),
    Message('note_on', channel=0, note=65, velocity=120, time=0),
    Message('note_on', channel=0, note=65, velocity=0, time=192),
    Message('note_on', channel=0, note=68, velocity=0, time=0),
    Message('note_on', channel=0, note=62, velocity=0, time=0),
    Message('note_on', channel=0, note=60, velocity=100, time=0),
    Message('note_on', channel=0, note=60, velocity=0, time=192),
    Message('note_on', channel=0, note=63, velocity=100, time=0),
    Message('note_on', channel=0, note=68, velocity=100, time=0),
    Message('note_on', channel=0, note=65, velocity=120, time=0),
    Message('note_on', channel=0, note=65, velocity=0, time=192),
    Message('note_on', channel=0, note=68, velocity=0, time=0),
    Message('note_on', channel=0, note=63, velocity=0, time=0),
    Message('note_on', channel=0, note=60, velocity=100, time=0),
    Message('note_on', channel=0, note=60, velocity=0, time=192),
    Message('note_on', channel=0, note=61, velocity=100, time=0),
    Message('note_on', channel=0, note=67, velocity=100, time=0),
    Message('note_on', channel=0, note=65, velocity=120, time=0),
    Message('note_on', channel=0, note=65, velocity=0, time=192),
    Message('note_on', channel=0, note=67, velocity=0, time=0),
    Message('note_on', channel=0, note=61, velocity=0, time=0),
    Message('note_on', channel=0, note=60, velocity=100, time=0),
    Message('note_on', channel=0, note=60, velocity=0, time=192),
    Message('note_on', channel=0, note=61, velocity=100, time=0),
    Message('note_on', channel=0, note=67, velocity=100, time=0),
    Message('note_on', channel=0, note=65, velocity=120, time=0),
    Message('note_on', channel=0, note=65, velocity=0, time=192),
    Message('note_on', channel=0, note=67, velocity=0, time=0),
    Message('note_on', channel=0, note=61, velocity=0, time=0),
    Message('note_on', channel=0, note=60, velocity=100, time=0),
    Message('note_on', channel=0, note=60, velocity=0, time=192),
    Message('note_on', channel=0, note=65, velocity=100, time=0),
    Message('note_on', channel=0, note=68, velocity=100, time=0),
    Message('note_on', channel=0, note=68, velocity=0, time=192),
    Message('note_on', channel=0, note=65, velocity=0, time=0),
    Message('note_on', channel=0, note=60, velocity=100, time=0),
    Message('note_on', channel=0, note=60, velocity=0, time=192),
    Message('note_on', channel=0, note=65, velocity=100, time=0),
    Message('note_on', channel=0, note=68, velocity=100, time=0),
    Message('note_on', channel=0, note=68, velocity=0, time=192),
    Message('note_on', channel=0, note=65, velocity=0, time=0),
    Message('note_on', channel=0, note=60, velocity=100, time=0),
    Message('note_on', channel=0, note=60, velocity=0, time=192),
    Message('note_on', channel=0, note=63, velocity=100, time=0),
    Message('note_on', channel=0, note=67, velocity=100, time=0),
    Message('note_on', channel=0, note=67, velocity=0, time=192),
    Message('note_on', channel=0, note=63, velocity=0, time=0),
    Message('note_on', channel=0, note=60, velocity=100, time=0),
    Message('note_on', channel=0, note=60, velocity=0, time=192),
    Message('note_on', channel=0, note=63, velocity=100, time=0),
    Message('note_on', channel=0, note=67, velocity=100, time=0),
    Message('note_on', channel=0, note=67, velocity=0, time=192),
    Message('note_on', channel=0, note=63, velocity=0, time=0),
    Message('note_on', channel=0, note=60, velocity=100, time=0),
    Message('note_on', channel=0, note=60, velocity=0, time=192),
    Message('note_on', channel=0, note=62, velocity=100, time=0),
    Message('note_on', channel=0, note=68, velocity=100, time=0),
    Message('note_on', channel=0, note=65, velocity=120, time=0),
    Message('note_on', channel=0, note=65, velocity=0, time=192),
    Message('note_on', channel=0, note=68, velocity=0, time=0),
    Message('note_on', channel=0, note=62, velocity=0, time=0),
    Message('note_on', channel=0, note=60, velocity=100, time=0),
    Message('note_on', channel=0, note=60, velocity=0, time=192),
    Message('note_on', channel=0, note=63, velocity=100, time=0),
    Message('note_on', channel=0, note=68, velocity=100, time=0),
    Message('note_on', channel=0, note=65, velocity=120, time=0),
    Message('note_on', channel=0, note=65, velocity=0, time=192),
    Message('note_on', channel=0, note=68, velocity=0, time=0),
    Message('note_on', channel=0, note=63, velocity=0, time=0),
    Message('note_on', channel=0, note=60, velocity=100, time=0),
    Message('note_on', channel=0, note=60, velocity=0, time=192),
    Message('note_on', channel=0, note=61, velocity=100, time=0),
    Message('note_on', channel=0, note=67, velocity=100, time=0),
    Message('note_on', channel=0, note=65, velocity=120, time=0),
    Message('note_on', channel=0, note=65, velocity=0, time=192),
    Message('note_on', channel=0, note=67, velocity=0, time=0),
    Message('note_on', channel=0, note=61, velocity=0, time=0),
    Message('note_on', channel=0, note=60, velocity=100, time=0),
    Message('note_on', channel=0, note=60, velocity=0, time=192),
    Message('note_on', channel=0, note=61, velocity=100, time=0),
    Message('note_on', channel=0, note=67, velocity=100, time=0),
    Message('note_on', channel=0, note=65, velocity=120, time=0),
    Message('note_on', channel=0, note=65, velocity=0, time=192),
    Message('note_on', channel=0, note=67, velocity=0, time=0),
    Message('note_on', channel=0, note=61, velocity=0, time=0),
    Message('note_on', channel=0, note=60, velocity=100, time=0),
    Message('note_on', channel=0, note=60, velocity=0, time=192),
    Message('note_on', channel=0, note=65, velocity=100, time=0),
    Message('note_on', channel=0, note=68, velocity=100, time=0),
    Message('note_on', channel=0, note=68, velocity=0, time=192),
    Message('note_on', channel=0, note=65, velocity=0, time=0),
    Message('note_on', channel=0, note=60, velocity=100, time=0),
    Message('note_on', channel=0, note=60, velocity=0, time=192),
    Message('note_on', channel=0, note=65, velocity=100, time=0),
    Message('note_on', channel=0, note=68, velocity=100, time=0),
    Message('note_on', channel=0, note=68, velocity=0, time=192),
    Message('note_on', channel=0, note=65, velocity=0, time=0),
    Message('note_on', channel=0, note=60, velocity=100, time=0),
    Message('note_on', channel=0, note=60, velocity=0, time=192),
    Message('note_on', channel=0, note=63, velocity=100, time=0),
    Message('note_on', channel=0, note=67, velocity=100, time=0),
    Message('note_on', channel=0, note=67, velocity=0, time=192),
    Message('note_on', channel=0, note=63, velocity=0, time=0),
    Message('note_on', channel=0, note=60, velocity=100, time=0),
    Message('note_on', channel=0, note=60, velocity=0, time=192),
    Message('note_on', channel=0, note=63, velocity=100, time=0),
    Message('note_on', channel=0, note=67, velocity=100, time=0),
    Message('note_on', channel=0, note=67, velocity=0, time=192),
    Message('note_on', channel=0, note=63, velocity=0, time=0),
    Message('note_on', channel=0, note=60, velocity=100, time=0),
    Message('note_on', channel=0, note=60, velocity=0, time=192),
    Message('note_on', channel=0, note=62, velocity=100, time=0),
    Message('note_on', channel=0, note=68, velocity=100, time=0),
    Message('note_on', channel=0, note=65, velocity=120, time=0),
    Message('note_on', channel=0, note=65, velocity=0, time=192),
    Message('note_on', channel=0, note=68, velocity=0, time=0),
    Message('note_on', channel=0, note=62, velocity=0, time=0),
    Message('note_on', channel=0, note=60, velocity=100, time=0),
    Message('note_on', channel=0, note=60, velocity=0, time=192),
    Message('note_on', channel=0, note=62, velocity=100, time=0),
    Message('note_on', channel=0, note=68, velocity=100, time=0),
    Message('note_on', channel=0, note=65, velocity=120, time=0),
    Message('note_on', channel=0, note=65, velocity=0, time=192),
    Message('note_on', channel=0, note=68, velocity=0, time=0),
    Message('note_on', channel=0, note=62, velocity=0, time=0),
    Message('note_on', channel=0, note=60, velocity=100, time=0),
    Message('note_on', channel=0, note=60, velocity=0, time=192),
    Message('note_on', channel=0, note=61, velocity=100, time=0),
    Message('note_on', channel=0, note=67, velocity=100, time=0),
    Message('note_on', channel=0, note=65, velocity=120, time=0),
    Message('note_on', channel=0, note=65, velocity=0, time=192),
    Message('note_on', channel=0, note=67, velocity=0, time=0),
    Message('note_on', channel=0, note=61, velocity=0, time=0),
    Message('note_on', channel=0, note=60, velocity=100, time=0),
    Message('note_on', channel=0, note=60, velocity=0, time=192),
    Message('note_on', channel=0, note=61, velocity=100, time=0),
    Message('note_on', channel=0, note=67, velocity=100, time=0),
    Message('note_on', channel=0, note=65, velocity=120, time=0),
    Message('note_on', channel=0, note=65, velocity=0, time=192),
    Message('note_on', channel=0, note=67, velocity=0, time=0),
    Message('note_on', channel=0, note=61, velocity=0, time=0),
    Message('note_on', channel=0, note=60, velocity=100, time=0),
    Message('note_on', channel=0, note=60, velocity=0, time=192),
    Message('note_on', channel=0, note=65, velocity=100, time=0),
    Message('note_on', channel=0, note=68, velocity=100, time=0),
    Message('note_on', channel=0, note=68, velocity=0, time=192),
    Message('note_on', channel=0, note=65, velocity=0, time=0),
    Message('note_on', channel=0, note=60, velocity=100, time=0),
    Message('note_on', channel=0, note=60, velocity=0, time=192),
    Message('note_on', channel=0, note=65, velocity=100, time=0),
    Message('note_on', channel=0, note=68, velocity=100, time=0),
    Message('note_on', channel=0, note=68, velocity=0, time=192),
    Message('note_on', channel=0, note=65, velocity=0, time=0),
    Message('note_on', channel=0, note=60, velocity=100, time=0),
    Message('note_on', channel=0, note=60, velocity=0, time=192),
    Message('note_on', channel=0, note=63, velocity=100, time=0),
    Message('note_on', channel=0, note=67, velocity=100, time=0),
    Message('note_on', channel=0, note=67, velocity=0, time=192),
    Message('note_on', channel=0, note=63, velocity=0, time=0),
    Message('note_on', channel=0, note=60, velocity=100, time=0),
    Message('note_on', channel=0, note=60, velocity=0, time=192),
    Message('note_on', channel=0, note=63, velocity=100, time=0),
    Message('note_on', channel=0, note=67, velocity=100, time=0),
    Message('note_on', channel=0, note=67, velocity=0, time=192),
    Message('note_on', channel=0, note=63, velocity=0, time=0),
    Message('note_on', channel=0, note=60, velocity=100, time=0),
    Message('note_on', channel=0, note=60, velocity=0, time=192),
    Message('note_on', channel=0, note=62, velocity=100, time=0),
    Message('note_on', channel=0, note=68, velocity=100, time=0),
    Message('note_on', channel=0, note=65, velocity=120, time=0),
    Message('note_on', channel=0, note=65, velocity=0, time=192),
    Message('note_on', channel=0, note=68, velocity=0, time=0),
    Message('note_on', channel=0, note=62, velocity=0, time=0),
    Message('note_on', channel=0, note=60, velocity=100, time=0),
    Message('note_on', channel=0, note=60, velocity=0, time=192),
    Message('note_on', channel=0, note=62, velocity=100, time=0),
    Message('note_on', channel=0, note=68, velocity=100, time=0),
    Message('note_on', channel=0, note=65, velocity=120, time=0),
    Message('note_on', channel=0, note=65, velocity=0, time=192),
    Message('note_on', channel=0, note=68, velocity=0, time=0),
    Message('note_on', channel=0, note=62, velocity=0, time=0),
    Message('note_on', channel=0, note=60, velocity=100, time=0),
    Message('note_on', channel=0, note=60, velocity=0, time=192),
    Message('note_on', channel=0, note=61, velocity=100, time=0),
    Message('note_on', channel=0, note=67, velocity=100, time=0),
    Message('note_on', channel=0, note=65, velocity=120, time=0),
    Message('note_on', channel=0, note=65, velocity=0, time=192),
    Message('note_on', channel=0, note=67, velocity=0, time=0),
    Message('note_on', channel=0, note=61, velocity=0, time=0),
    Message('note_on', channel=0, note=60, velocity=100, time=0),
    Message('note_on', channel=0, note=60, velocity=0, time=192),
    Message('note_on', channel=0, note=61, velocity=100, time=0),
    Message('note_on', channel=0, note=67, velocity=100, time=0),
    Message('note_on', channel=0, note=65, velocity=120, time=0),
    Message('note_on', channel=0, note=65, velocity=0, time=192),
    Message('note_on', channel=0, note=67, velocity=0, time=0),
    Message('note_on', channel=0, note=61, velocity=0, time=0),
    Message('note_on', channel=0, note=60, velocity=100, time=0),
    Message('note_on', channel=0, note=60, velocity=0, time=192),
    Message('note_on', channel=0, note=53, velocity=100, time=0),
    Message('note_on', channel=0, note=60, velocity=100, time=0),
    Message('note_on', channel=0, note=65, velocity=100, time=0),
    Message('note_on', channel=0, note=65, velocity=0, time=576),
    Message('note_on', channel=0, note=60, velocity=0, time=0),
    Message('note_on', channel=0, note=53, velocity=0, time=0),
    Message('note_on', channel=0, note=53, velocity=100, time=0),
    Message('note_on', channel=0, note=60, velocity=100, time=0),
    Message('note_on', channel=0, note=65, velocity=100, time=0),
    Message('note_on', channel=0, note=65, velocity=0, time=192),
    Message('note_on', channel=0, note=60, velocity=0, time=0),
    Message('note_on', channel=0, note=53, velocity=0, time=0),
    Message('note_on', channel=0, note=51, velocity=100, time=0),
    Message('note_on', channel=0, note=58, velocity=100, time=0),
    Message('note_on', channel=0, note=58, velocity=0, time=576),
    Message('note_on', channel=0, note=51, velocity=0, time=0),
    Message('note_on', channel=0, note=51, velocity=100, time=0),
    Message('note_on', channel=0, note=58, velocity=100, time=0),
    Message('note_on', channel=0, note=58, velocity=0, time=192),
    Message('note_on', channel=0, note=51, velocity=0, time=0),
    Message('note_on', channel=0, note=49, velocity=100, time=0),
    Message('note_on', channel=0, note=56, velocity=100, time=0),
    Message('note_on', channel=0, note=56, velocity=0, time=576),
    Message('note_on', channel=0, note=49, velocity=0, time=0),
    Message('note_on', channel=0, note=49, velocity=100, time=0),
    Message('note_on', channel=0, note=56, velocity=100, time=0),
    Message('note_on', channel=0, note=56, velocity=0, time=192),
    Message('note_on', channel=0, note=49, velocity=0, time=0),
    Message('note_on', channel=0, note=58, velocity=100, time=0),
    Message('note_on', channel=0, note=51, velocity=100, time=0),
    Message('note_on', channel=0, note=51, velocity=0, time=576),
    Message('note_on', channel=0, note=58, velocity=0, time=0),
    Message('note_on', channel=0, note=58, velocity=100, time=0),
    Message('note_on', channel=0, note=51, velocity=100, time=0),
    Message('note_on', channel=0, note=51, velocity=0, time=192),
    Message('note_on', channel=0, note=58, velocity=0, time=0),
    Message('note_on', channel=0, note=53, velocity=100, time=0),
    Message('note_on', channel=0, note=60, velocity=100, time=0),
    Message('note_on', channel=0, note=65, velocity=100, time=0),
    Message('note_on', channel=0, note=65, velocity=0, time=576),
    Message('note_on', channel=0, note=60, velocity=0, time=0),
    Message('note_on', channel=0, note=53, velocity=0, time=0),
    Message('note_on', channel=0, note=53, velocity=100, time=0),
    Message('note_on', channel=0, note=60, velocity=100, time=0),
    Message('note_on', channel=0, note=65, velocity=100, time=0),
    Message('note_on', channel=0, note=65, velocity=0, time=192),
    Message('note_on', channel=0, note=60, velocity=0, time=0),
    Message('note_on', channel=0, note=53, velocity=0, time=0),
    Message('note_on', channel=0, note=51, velocity=100, time=0),
    Message('note_on', channel=0, note=58, velocity=100, time=0),
    Message('note_on', channel=0, note=58, velocity=0, time=576),
    Message('note_on', channel=0, note=51, velocity=0, time=0),
    Message('note_on', channel=0, note=51, velocity=100, time=0),
    Message('note_on', channel=0, note=58, velocity=100, time=0),
    Message('note_on', channel=0, note=58, velocity=0, time=192),
    Message('note_on', channel=0, note=51, velocity=0, time=0),
    Message('note_on', channel=0, note=49, velocity=100, time=0),
    Message('note_on', channel=0, note=56, velocity=100, time=0),
    Message('note_on', channel=0, note=56, velocity=0, time=576),
    Message('note_on', channel=0, note=49, velocity=0, time=0),
    Message('note_on', channel=0, note=49, velocity=100, time=0),
    Message('note_on', channel=0, note=56, velocity=100, time=0),
    Message('note_on', channel=0, note=56, velocity=0, time=192),
    Message('note_on', channel=0, note=49, velocity=0, time=0),
    Message('note_on', channel=0, note=58, velocity=100, time=0),
    Message('note_on', channel=0, note=51, velocity=100, time=0),
    Message('note_on', channel=0, note=51, velocity=0, time=576),
    Message('note_on', channel=0, note=58, velocity=0, time=0),
    Message('note_on', channel=0, note=58, velocity=100, time=0),
    Message('note_on', channel=0, note=51, velocity=100, time=0),
    Message('note_on', channel=0, note=58, velocity=100, time=96),
    Message('note_on', channel=0, note=58, velocity=0, time=96),
    Message('note_on', channel=0, note=51, velocity=0, time=0),
    Message('note_on', channel=0, note=58, velocity=0, time=0),
    Message('note_on', channel=0, note=61, velocity=100, time=0),
    Message('note_on', channel=0, note=61, velocity=0, time=192),
    Message('note_on', channel=0, note=60, velocity=100, time=0),
    Message('note_on', channel=0, note=60, velocity=0, time=192),
    Message('note_on', channel=0, note=61, velocity=100, time=0),
    Message('note_on', channel=0, note=61, velocity=0, time=192),
    Message('note_on', channel=0, note=60, velocity=100, time=0),
    Message('note_on', channel=0, note=60, velocity=0, time=192),
    Message('note_on', channel=0, note=61, velocity=100, time=0),
    Message('note_on', channel=0, note=61, velocity=0, time=192),
    Message('note_on', channel=0, note=60, velocity=100, time=0),
    Message('note_on', channel=0, note=60, velocity=0, time=192),
    Message('note_on', channel=0, note=61, velocity=100, time=0),
    Message('note_on', channel=0, note=61, velocity=0, time=192),
    Message('note_on', channel=0, note=60, velocity=100, time=0),
    Message('note_on', channel=0, note=60, velocity=0, time=192),
    Message('note_on', channel=0, note=61, velocity=100, time=0),
    Message('note_on', channel=0, note=61, velocity=0, time=192),
    Message('note_on', channel=0, note=60, velocity=100, time=0),
    Message('note_on', channel=0, note=60, velocity=0, time=192),
    Message('note_on', channel=0, note=61, velocity=100, time=0),
    Message('note_on', channel=0, note=61, velocity=0, time=192),
    Message('note_on', channel=0, note=60, velocity=100, time=0),
    Message('note_on', channel=0, note=60, velocity=0, time=192),
    Message('note_on', channel=0, note=61, velocity=100, time=0),
    Message('note_on', channel=0, note=61, velocity=0, time=192),
    Message('note_on', channel=0, note=60, velocity=100, time=0),
    Message('note_on', channel=0, note=60, velocity=0, time=192),
    Message('note_on', channel=0, note=61, velocity=100, time=0),
    Message('note_on', channel=0, note=61, velocity=0, time=192),
    Message('note_on', channel=0, note=60, velocity=100, time=0),
    Message('note_on', channel=0, note=60, velocity=0, time=192),
    Message('note_on', channel=0, note=60, velocity=100, time=0),
    Message('note_on', channel=0, note=60, velocity=0, time=96),
    Message('note_on', channel=0, note=68, velocity=100, time=0),
    Message('note_on', channel=0, note=68, velocity=0, time=96),
    Message('note_on', channel=0, note=65, velocity=100, time=0),
    Message('note_on', channel=0, note=65, velocity=0, time=96),
    Message('note_on', channel=0, note=60, velocity=100, time=0),
    Message('note_on', channel=0, note=60, velocity=0, time=96),
    Message('note_on', channel=0, note=68, velocity=100, time=0),
    Message('note_on', channel=0, note=68, velocity=0, time=96),
    Message('note_on', channel=0, note=65, velocity=100, time=0),
    Message('note_on', channel=0, note=65, velocity=0, time=96),
    Message('note_on', channel=0, note=60, velocity=100, time=0),
    Message('note_on', channel=0, note=60, velocity=0, time=96),
    Message('note_on', channel=0, note=70, velocity=100, time=0),
    Message('note_on', channel=0, note=70, velocity=0, time=96),
    Message('note_on', channel=0, note=65, velocity=100, time=0),
    Message('note_on', channel=0, note=65, velocity=0, time=96),
    Message('note_on', channel=0, note=60, velocity=100, time=0),
    Message('note_on', channel=0, note=60, velocity=0, time=96),
    Message('note_on', channel=0, note=70, velocity=100, time=0),
    Message('note_on', channel=0, note=70, velocity=0, time=96),
    Message('note_on', channel=0, note=65, velocity=100, time=0),
    Message('note_on', channel=0, note=65, velocity=0, time=96),
    Message('note_on', channel=0, note=60, velocity=100, time=0),
    Message('note_on', channel=0, note=60, velocity=0, time=96),
    Message('note_on', channel=0, note=70, velocity=100, time=0),
    Message('note_on', channel=0, note=70, velocity=0, time=96),
    Message('note_on', channel=0, note=65, velocity=100, time=0),
    Message('note_on', channel=0, note=65, velocity=0, time=96),
    Message('note_on', channel=0, note=60, velocity=100, time=0),
    Message('note_on', channel=0, note=60, velocity=0, time=96),
    Message('note_on', channel=0, note=72, velocity=100, time=0),
    Message('note_on', channel=0, note=72, velocity=0, time=96),
    Message('note_on', channel=0, note=65, velocity=100, time=0),
    Message('note_on', channel=0, note=65, velocity=0, time=96),
    Message('note_on', channel=0, note=60, velocity=100, time=0),
    Message('note_on', channel=0, note=60, velocity=0, time=96),
    Message('note_on', channel=0, note=72, velocity=100, time=0),
    Message('note_on', channel=0, note=72, velocity=0, time=96),
    Message('note_on', channel=0, note=65, velocity=100, time=0),
    Message('note_on', channel=0, note=65, velocity=0, time=96),
    Message('note_on', channel=0, note=60, velocity=100, time=0),
    Message('note_on', channel=0, note=60, velocity=0, time=96),
    Message('note_on', channel=0, note=72, velocity=100, time=0),
    Message('note_on', channel=0, note=74, velocity=100, time=144),
    Message('note_on', channel=0, note=74, velocity=0, time=20),
    Message('note_on', channel=0, note=76, velocity=100, time=4),
    Message('note_on', channel=0, note=76, velocity=0, time=20),
    Message('note_on', channel=0, note=72, velocity=0, time=0),
    Message('note_on', channel=0, note=77, velocity=100, time=4),
    Message('note_on', channel=0, note=77, velocity=0, time=576),
    Message('note_on', channel=0, note=72, velocity=100, time=192),
    Message('note_on', channel=0, note=72, velocity=0, time=192),
    Message('note_on', channel=0, note=65, velocity=100, time=0),
    Message('note_on', channel=0, note=72, velocity=100, time=88),
    Message('note_on', channel=0, note=65, velocity=0, time=8),
    Message('note_on', channel=0, note=72, velocity=0, time=184),
    Message('note_on', channel=0, note=65, velocity=100, time=0),
    Message('note_on', channel=0, note=65, velocity=0, time=288),
    Message('note_on', channel=0, note=65, velocity=100, time=8),
    Message('note_on', channel=0, note=72, velocity=100, time=88),
    Message('note_on', channel=0, note=65, velocity=0, time=8),
    Message('note_on', channel=0, note=72, velocity=0, time=184),
    Message('note_on', channel=0, note=65, velocity=100, time=0),
    Message('note_on', channel=0, note=65, velocity=0, time=192),
    Message('note_on', channel=0, note=65, velocity=100, time=8),
    Message('note_on', channel=0, note=65, velocity=0, time=192),
    Message('note_on', channel=0, note=60, velocity=100, time=20),
    Message('note_on', channel=0, note=65, velocity=100, time=84),
    Message('note_on', channel=0, note=60, velocity=0, time=12),
    Message('note_on', channel=0, note=65, velocity=100, time=160),
    Message('note_on', channel=0, note=65, velocity=0, time=20),
    Message('note_on', channel=0, note=65, velocity=0, time=76),
    Message('note_on', channel=0, note=72, velocity=100, time=32),
    Message('note_on', channel=0, note=67, velocity=100, time=172),
    Message('note_on', channel=0, note=72, velocity=0, time=20),
    Message('note_on', channel=0, note=67, velocity=100, time=160),
    Message('note_on', channel=0, note=67, velocity=0, time=12),
    Message('note_on', channel=0, note=67, velocity=0, time=84),
    Message('note_on', channel=0, note=67, velocity=100, time=52),
    Message('note_on', channel=0, note=68, velocity=100, time=320),
    Message('note_on', channel=0, note=67, velocity=0, time=64),
    Message('note_on', channel=0, note=68, velocity=0, time=320),
    Message('note_on', channel=0, note=60, velocity=100, time=24),
    Message('note_on', channel=0, note=60, velocity=0, time=96),
    Message('note_on', channel=0, note=68, velocity=100, time=0),
    Message('note_on', channel=0, note=68, velocity=0, time=96),
    Message('note_on', channel=0, note=68, velocity=100, time=192),
    Message('note_on', channel=0, note=68, velocity=0, time=96),
    Message('note_on', channel=0, note=65, velocity=100, time=0),
    Message('note_on', channel=0, note=65, velocity=0, time=96),
    Message('note_on', channel=0, note=60, velocity=100, time=0),
    Message('note_on', channel=0, note=60, velocity=0, time=96),
    Message('note_on', channel=0, note=68, velocity=100, time=0),
    Message('note_on', channel=0, note=68, velocity=0, time=96),
    Message('note_on', channel=0, note=65, velocity=100, time=0),
    Message('note_on', channel=0, note=65, velocity=0, time=96),
    Message('note_on', channel=0, note=60, velocity=100, time=0),
    Message('note_on', channel=0, note=60, velocity=0, time=96),
    Message('note_on', channel=0, note=70, velocity=100, time=0),
    Message('note_on', channel=0, note=70, velocity=0, time=96),
    Message('note_on', channel=0, note=60, velocity=100, time=96),
    Message('note_on', channel=0, note=60, velocity=0, time=96),
    Message('note_on', channel=0, note=70, velocity=100, time=0),
    Message('note_on', channel=0, note=70, velocity=0, time=96),
    Message('note_on', channel=0, note=65, velocity=100, time=0),
    Message('note_on', channel=0, note=65, velocity=0, time=96),
    Message('note_on', channel=0, note=60, velocity=100, time=0),
    Message('note_on', channel=0, note=60, velocity=0, time=96),
    Message('note_on', channel=0, note=72, velocity=100, time=0),
    Message('note_on', channel=0, note=72, velocity=0, time=96),
    Message('note_on', channel=0, note=65, velocity=100, time=0),
    Message('note_on', channel=0, note=65, velocity=0, time=96),
    Message('note_on', channel=0, note=60, velocity=100, time=0),
    Message('note_on', channel=0, note=60, velocity=0, time=96),
    Message('note_on', channel=0, note=72, velocity=100, time=0),
    Message('note_on', channel=0, note=72, velocity=0, time=96),
    Message('note_on', channel=0, note=65, velocity=100, time=0),
    Message('note_on', channel=0, note=65, velocity=0, time=96),
    Message('note_on', channel=0, note=60, velocity=100, time=0),
    Message('note_on', channel=0, note=60, velocity=0, time=96),
    Message('note_on', channel=0, note=72, velocity=100, time=0),
    Message('note_on', channel=0, note=74, velocity=100, time=144),
    Message('note_on', channel=0, note=74, velocity=0, time=20),
    Message('note_on', channel=0, note=76, velocity=100, time=4),
    Message('note_on', channel=0, note=76, velocity=0, time=20),
    Message('note_on', channel=0, note=72, velocity=0, time=0),
    Message('note_on', channel=0, note=77, velocity=100, time=4),
    Message('note_on', channel=0, note=77, velocity=0, time=576),
    Message('note_on', channel=0, note=72, velocity=100, time=192),
    Message('note_on', channel=0, note=65, velocity=100, time=180),
    Message('note_on', channel=0, note=72, velocity=0, time=12),
    Message('note_on', channel=0, note=65, velocity=0, time=84),
    Message('note_on', channel=0, note=72, velocity=100, time=16),
    Message('note_on', channel=0, note=65, velocity=100, time=180),
    Message('note_on', channel=0, note=72, velocity=0, time=12),
    Message('note_on', channel=0, note=65, velocity=0, time=276),
    Message('note_on', channel=0, note=65, velocity=100, time=12),
    Message('note_on', channel=0, note=65, velocity=0, time=96),
    Message('note_on', channel=0, note=72, velocity=100, time=0),
    Message('note_on', channel=0, note=72, velocity=0, time=192),
    Message('note_on', channel=0, note=65, velocity=100, time=0),
    Message('note_on', channel=0, note=65, velocity=100, time=284),
    Message('note_on', channel=0, note=65, velocity=0, time=192),
    Message('note_on', channel=0, note=65, velocity=0, time=0),
    Message('note_on', channel=0, note=65, velocity=100, time=0),
    Message('note_on', channel=0, note=53, velocity=100, time=20),
    Message('note_on', channel=0, note=60, velocity=100, time=20),
    Message('note_on', channel=0, note=65, velocity=0, time=536),
    Message('note_on', channel=0, note=53, velocity=100, time=0),
    Message('note_on', channel=0, note=60, velocity=100, time=0),
    Message('note_on', channel=0, note=65, velocity=100, time=0),
    Message('note_on', channel=0, note=53, velocity=0, time=20),
    Message('note_on', channel=0, note=60, velocity=0, time=20),
    Message('note_on', channel=0, note=60, velocity=0, time=152),
    Message('note_on', channel=0, note=53, velocity=0, time=0),
    Message('note_on', channel=0, note=65, velocity=0, time=0),
    Message('note_on', channel=0, note=51, velocity=100, time=0),
    Message('note_on', channel=0, note=58, velocity=100, time=0),
    Message('note_on', channel=0, note=58, velocity=0, time=576),
    Message('note_on', channel=0, note=51, velocity=0, time=0),
    Message('note_on', channel=0, note=51, velocity=100, time=0),
    Message('note_on', channel=0, note=58, velocity=100, time=0),
    Message('note_on', channel=0, note=58, velocity=0, time=192),
    Message('note_on', channel=0, note=51, velocity=0, time=0),
    Message('note_on', channel=0, note=49, velocity=100, time=0),
    Message('note_on', channel=0, note=56, velocity=100, time=0),
    Message('note_on', channel=0, note=56, velocity=0, time=576),
    Message('note_on', channel=0, note=49, velocity=0, time=0),
    Message('note_on', channel=0, note=49, velocity=100, time=0),
    Message('note_on', channel=0, note=56, velocity=100, time=0),
    Message('note_on', channel=0, note=56, velocity=0, time=192),
    Message('note_on', channel=0, note=49, velocity=0, time=0),
    Message('note_on', channel=0, note=51, velocity=100, time=0),
    Message('note_on', channel=0, note=58, velocity=100, time=0),
    Message('note_on', channel=0, note=58, velocity=0, time=576),
    Message('note_on', channel=0, note=51, velocity=0, time=0),
    Message('note_on', channel=0, note=51, velocity=100, time=0),
    Message('note_on', channel=0, note=58, velocity=100, time=0),
    Message('note_on', channel=0, note=58, velocity=0, time=192),
    Message('note_on', channel=0, note=51, velocity=0, time=0),
    Message('note_on', channel=0, note=65, velocity=100, time=0),
    Message('note_on', channel=0, note=53, velocity=100, time=20),
    Message('note_on', channel=0, note=60, velocity=100, time=20),
    Message('note_on', channel=0, note=65, velocity=0, time=536),
    Message('note_on', channel=0, note=53, velocity=100, time=0),
    Message('note_on', channel=0, note=60, velocity=100, time=0),
    Message('note_on', channel=0, note=65, velocity=100, time=0),
    Message('note_on', channel=0, note=53, velocity=0, time=20),
    Message('note_on', channel=0, note=60, velocity=0, time=20),
    Message('note_on', channel=0, note=60, velocity=0, time=152),
    Message('note_on', channel=0, note=53, velocity=0, time=0),
    Message('note_on', channel=0, note=65, velocity=0, time=0),
    Message('note_on', channel=0, note=51, velocity=100, time=0),
    Message('note_on', channel=0, note=58, velocity=100, time=0),
    Message('note_on', channel=0, note=58, velocity=0, time=576),
    Message('note_on', channel=0, note=51, velocity=0, time=0),
    Message('note_on', channel=0, note=51, velocity=100, time=0),
    Message('note_on', channel=0, note=58, velocity=100, time=0),
    Message('note_on', channel=0, note=58, velocity=0, time=192),
    Message('note_on', channel=0, note=51, velocity=0, time=0),
    Message('note_on', channel=0, note=49, velocity=100, time=0),
    Message('note_on', channel=0, note=56, velocity=100, time=0),
    Message('note_on', channel=0, note=56, velocity=0, time=576),
    Message('note_on', channel=0, note=49, velocity=0, time=0),
    Message('note_on', channel=0, note=49, velocity=100, time=0),
    Message('note_on', channel=0, note=56, velocity=100, time=0),
    Message('note_on', channel=0, note=56, velocity=0, time=192),
    Message('note_on', channel=0, note=49, velocity=0, time=0),
    Message('note_on', channel=0, note=51, velocity=100, time=0),
    Message('note_on', channel=0, note=58, velocity=100, time=0),
    Message('note_on', channel=0, note=58, velocity=0, time=576),
    Message('note_on', channel=0, note=51, velocity=0, time=0),
    Message('note_on', channel=0, note=51, velocity=100, time=0),
    Message('note_on', channel=0, note=58, velocity=100, time=0),
    Message('note_on', channel=0, note=58, velocity=100, time=96),
    Message('note_on', channel=0, note=58, velocity=0, time=96),
    Message('note_on', channel=0, note=58, velocity=0, time=0),
    Message('note_on', channel=0, note=51, velocity=0, time=0),
    Message('note_on', channel=0, note=60, velocity=100, time=0),
    Message('note_on', channel=0, note=60, velocity=0, time=384),
    Message('note_on', channel=0, note=60, velocity=100, time=0),
    Message('note_on', channel=0, note=60, velocity=0, time=384),
    Message('note_on', channel=0, note=63, velocity=100, time=0),
    Message('note_on', channel=0, note=63, velocity=0, time=96),
    Message('note_on', channel=0, note=64, velocity=100, time=0),
    Message('note_on', channel=0, note=64, velocity=0, time=96),
    Message('note_on', channel=0, note=60, velocity=100, time=0),
    Message('note_on', channel=0, note=60, velocity=0, time=96),
    Message('note_on', channel=0, note=60, velocity=100, time=0),
    Message('note_on', channel=0, note=60, velocity=0, time=96),
    Message('note_on', channel=0, note=65, velocity=100, time=0),
    Message('note_on', channel=0, note=65, velocity=0, time=96),
    Message('note_on', channel=0, note=63, velocity=100, time=0),
    Message('note_on', channel=0, note=63, velocity=0, time=96),
    Message('note_on', channel=0, note=60, velocity=100, time=0),
    Message('note_on', channel=0, note=60, velocity=0, time=96),
    Message('note_on', channel=0, note=63, velocity=100, time=0),
    Message('note_on', channel=0, note=63, velocity=0, time=96),
    Message('note_on', channel=0, note=65, velocity=100, time=0),
    Message('note_on', channel=0, note=65, velocity=0, time=96),
    Message('note_on', channel=0, note=67, velocity=100, time=0),
    Message('note_on', channel=0, note=67, velocity=0, time=96),
    Message('note_on', channel=0, note=72, velocity=100, time=0),
    Message('note_on', channel=0, note=72, velocity=0, time=96),
    Message('note_on', channel=0, note=67, velocity=100, time=0),
    Message('note_on', channel=0, note=67, velocity=0, time=96),
    Message('note_on', channel=0, note=70, velocity=100, time=0),
    Message('note_on', channel=0, note=70, velocity=0, time=96),
    Message('note_on', channel=0, note=67, velocity=100, time=0),
    Message('note_on', channel=0, note=67, velocity=0, time=96),
    Message('note_on', channel=0, note=65, velocity=100, time=0),
    Message('note_on', channel=0, note=65, velocity=0, time=96),
    Message('note_on', channel=0, note=63, velocity=100, time=0),
    Message('note_on', channel=0, note=63, velocity=0, time=96),
    Message('note_on', channel=0, note=48, velocity=100, time=0),
    Message('note_on', channel=0, note=48, velocity=0, time=96),
    Message('note_on', channel=0, note=60, velocity=100, time=0),
    Message('note_on', channel=0, note=60, velocity=0, time=96),
    Message('note_on', channel=0, note=63, velocity=100, time=0),
    Message('note_on', channel=0, note=63, velocity=0, time=96),
    Message('note_on', channel=0, note=66, velocity=100, time=0),
    Message('note_on', channel=0, note=66, velocity=0, time=96),
    Message('note_on', channel=0, note=67, velocity=100, time=0),
    Message('note_on', channel=0, note=67, velocity=0, time=96),
    Message('note_on', channel=0, note=63, velocity=100, time=0),
    Message('note_on', channel=0, note=63, velocity=0, time=96),
    Message('note_on', channel=0, note=70, velocity=100, time=0),
    Message('note_on', channel=0, note=70, velocity=0, time=96),
    Message('note_on', channel=0, note=72, velocity=100, time=0),
    Message('note_on', channel=0, note=72, velocity=0, time=96),
    Message('note_on', channel=0, note=72, velocity=100, time=0),
    Message('note_on', channel=0, note=72, velocity=0, time=192),
    Message('note_on', channel=0, note=53, velocity=100, time=384),
    Message('note_on', channel=0, note=53, velocity=0, time=96),
    Message('note_on', channel=0, note=55, velocity=100, time=0),
    Message('note_on', channel=0, note=55, velocity=0, time=96),
    Message('note_on', channel=0, note=55, velocity=100, time=0),
    Message('note_on', channel=0, note=55, velocity=0, time=576),
    Message('note_on', channel=0, note=55, velocity=100, time=0),
    Message('note_on', channel=0, note=55, velocity=0, time=192),
    Message('note_on', channel=0, note=56, velocity=100, time=0),
    Message('note_on', channel=0, note=56, velocity=0, time=576),
    Message('note_on', channel=0, note=56, velocity=100, time=0),
    Message('note_on', channel=0, note=56, velocity=0, time=192),
    Message('note_on', channel=0, note=58, velocity=100, time=0),
    Message('note_on', channel=0, note=58, velocity=0, time=384),
    Message('note_on', channel=0, note=58, velocity=100, time=0),
    Message('note_on', channel=0, note=63, velocity=100, time=0),
    Message('note_on', channel=0, note=67, velocity=100, time=0),
    Message('note_on', channel=0, note=67, velocity=0, time=384),
    Message('note_on', channel=0, note=63, velocity=0, time=0),
    Message('note_on', channel=0, note=58, velocity=0, time=0),
    Message('note_on', channel=0, note=65, velocity=100, time=0),
    Message('note_on', channel=0, note=77, velocity=100, time=0),
    Message('note_on', channel=0, note=77, velocity=0, time=384),
    Message('note_on', channel=0, note=65, velocity=0, time=0),
    Message('note_on', channel=0, note=65, velocity=100, time=0),
    Message('note_on', channel=0, note=77, velocity=100, time=0),
    Message('note_on', channel=0, note=77, velocity=0, time=384),
    Message('note_on', channel=0, note=65, velocity=0, time=0),
    Message('note_on', channel=0, note=65, velocity=100, time=0),
    Message('note_on', channel=0, note=77, velocity=100, time=0),
    Message('note_on', channel=0, note=77, velocity=0, time=384),
    Message('note_on', channel=0, note=65, velocity=0, time=0),
    Message('note_on', channel=0, note=65, velocity=100, time=0),
    Message('note_on', channel=0, note=77, velocity=100, time=0),
    Message('note_on', channel=0, note=77, velocity=0, time=384),
    Message('note_on', channel=0, note=65, velocity=0, time=0),
    Message('note_on', channel=0, note=77, velocity=100, time=0),
    Message('note_on', channel=0, note=77, velocity=0, time=96),
    Message('note_on', channel=0, note=75, velocity=100, time=20),
    Message('note_on', channel=0, note=72, velocity=100, time=172),
    Message('note_on', channel=0, note=75, velocity=0, time=20),
    Message('note_on', channel=0, note=72, velocity=0, time=76),
    Message('note_on', channel=0, note=70, velocity=100, time=0),
    Message('note_on', channel=0, note=70, velocity=0, time=192),
    Message('note_on', channel=0, note=68, velocity=100, time=0),
    Message('note_on', channel=0, note=68, velocity=0, time=96),
    Message('note_on', channel=0, note=65, velocity=100, time=0),
    Message('note_on', channel=0, note=65, velocity=0, time=96),
    Message('note_on', channel=0, note=63, velocity=100, time=96),
    Message('note_on', channel=0, note=63, velocity=0, time=96),
    Message('note_on', channel=0, note=60, velocity=100, time=0),
    Message('note_on', channel=0, note=60, velocity=0, time=96),
    Message('note_on', channel=0, note=59, velocity=100, time=0),
    Message('note_on', channel=0, note=59, velocity=0, time=96),
    Message('note_on', channel=0, note=58, velocity=100, time=0),
    Message('note_on', channel=0, note=58, velocity=0, time=96),
    Message('note_on', channel=0, note=56, velocity=100, time=0),
    Message('note_on', channel=0, note=56, velocity=0, time=96),
    Message('note_on', channel=0, note=53, velocity=100, time=0),
    Message('note_on', channel=0, note=53, velocity=0, time=192),
    Message('note_on', channel=0, note=53, velocity=100, time=0),
    Message('note_on', channel=0, note=53, velocity=0, time=576),
    Message('note_on', channel=0, note=53, velocity=100, time=0),
    Message('note_on', channel=0, note=53, velocity=0, time=96),
    Message('note_on', channel=0, note=55, velocity=100, time=0),
    Message('note_on', channel=0, note=55, velocity=0, time=96),
    Message('note_on', channel=0, note=55, velocity=100, time=0),
    Message('note_on', channel=0, note=55, velocity=0, time=576),
    Message('note_on', channel=0, note=55, velocity=100, time=0),
    Message('note_on', channel=0, note=55, velocity=0, time=192),
    Message('note_on', channel=0, note=56, velocity=100, time=0),
    Message('note_on', channel=0, note=61, velocity=100, time=0),
    Message('note_on', channel=0, note=61, velocity=0, time=576),
    Message('note_on', channel=0, note=56, velocity=0, time=0),
    Message('note_on', channel=0, note=56, velocity=100, time=0),
    Message('note_on', channel=0, note=61, velocity=100, time=0),
    Message('note_on', channel=0, note=61, velocity=0, time=192),
    Message('note_on', channel=0, note=56, velocity=0, time=0),
    Message('note_on', channel=0, note=58, velocity=100, time=0),
    Message('note_on', channel=0, note=63, velocity=100, time=0),
    Message('note_on', channel=0, note=63, velocity=0, time=576),
    Message('note_on', channel=0, note=58, velocity=0, time=0),
    Message('note_on', channel=0, note=58, velocity=100, time=0),
    Message('note_on', channel=0, note=63, velocity=100, time=0),
    Message('note_on', channel=0, note=63, velocity=0, time=192),
    Message('note_on', channel=0, note=58, velocity=0, time=0),
    Message('note_on', channel=0, note=53, velocity=100, time=0),
    Message('note_on', channel=0, note=53, velocity=0, time=96),
    Message('note_on', channel=0, note=51, velocity=100, time=0),
    Message('note_on', channel=0, note=51, velocity=0, time=96),
    Message('note_on', channel=0, note=48, velocity=100, time=0),
    Message('note_on', channel=0, note=48, velocity=0, time=96),
    Message('note_on', channel=0, note=51, velocity=100, time=0),
    Message('note_on', channel=0, note=51, velocity=0, time=96),
    Message('note_on', channel=0, note=53, velocity=100, time=0),
    Message('note_on', channel=0, note=53, velocity=0, time=96),
    Message('note_on', channel=0, note=56, velocity=100, time=8),
    Message('note_on', channel=0, note=53, velocity=100, time=184),
    Message('note_on', channel=0, note=56, velocity=0, time=8),
    Message('note_on', channel=0, note=53, velocity=0, time=88),
    Message('note_on', channel=0, note=58, velocity=100, time=0),
    Message('note_on', channel=0, note=58, velocity=0, time=96),
    Message('note_on', channel=0, note=56, velocity=100, time=0),
    Message('note_on', channel=0, note=56, velocity=0, time=96),
    Message('note_on', channel=0, note=53, velocity=100, time=0),
    Message('note_on', channel=0, note=53, velocity=0, time=96),
    Message('note_on', channel=0, note=56, velocity=100, time=0),
    Message('note_on', channel=0, note=56, velocity=0, time=96),
    Message('note_on', channel=0, note=60, velocity=100, time=0),
    Message('note_on', channel=0, note=60, velocity=0, time=96),
    Message('note_on', channel=0, note=63, velocity=100, time=0),
    Message('note_on', channel=0, note=63, velocity=0, time=96),
    Message('note_on', channel=0, note=63, velocity=100, time=0),
    Message('note_on', channel=0, note=63, velocity=0, time=96),
    Message('note_on', channel=0, note=60, velocity=100, time=0),
    Message('note_on', channel=0, note=60, velocity=0, time=96),
    Message('note_on', channel=0, note=65, velocity=100, time=0),
    Message('note_on', channel=0, note=65, velocity=0, time=96),
    Message('note_on', channel=0, note=68, velocity=100, time=0),
    Message('note_on', channel=0, note=63, velocity=100, time=0),
    Message('note_on', channel=0, note=63, velocity=0, time=96),
    Message('note_on', channel=0, note=68, velocity=0, time=0),
    Message('note_on', channel=0, note=68, velocity=100, time=0),
    Message('note_on', channel=0, note=63, velocity=100, time=0),
    Message('note_on', channel=0, note=63, velocity=0, time=96),
    Message('note_on', channel=0, note=68, velocity=0, time=0),
    Message('note_on', channel=0, note=63, velocity=100, time=0),
    Message('note_on', channel=0, note=63, velocity=0, time=96),
    Message('note_on', channel=0, note=65, velocity=100, time=0),
    Message('note_on', channel=0, note=65, velocity=0, time=96),
    Message('note_on', channel=0, note=68, velocity=100, time=0),
    Message('note_on', channel=0, note=63, velocity=100, time=0),
    Message('note_on', channel=0, note=63, velocity=0, time=96),
    Message('note_on', channel=0, note=68, velocity=0, time=0),
    Message('note_on', channel=0, note=68, velocity=100, time=0),
    Message('note_on', channel=0, note=63, velocity=100, time=0),
    Message('note_on', channel=0, note=63, velocity=0, time=96),
    Message('note_on', channel=0, note=68, velocity=0, time=0),
    Message('note_on', channel=0, note=70, velocity=100, time=0),
    Message('note_on', channel=0, note=65, velocity=100, time=0),
    Message('note_on', channel=0, note=65, velocity=0, time=96),
    Message('note_on', channel=0, note=70, velocity=0, time=0),
    Message('note_on', channel=0, note=68, velocity=100, time=0),
    Message('note_on', channel=0, note=63, velocity=100, time=0),
    Message('note_on', channel=0, note=63, velocity=0, time=96),
    Message('note_on', channel=0, note=68, velocity=0, time=0),
    Message('note_on', channel=0, note=70, velocity=100, time=0),
    Message('note_on', channel=0, note=65, velocity=100, time=0),
    Message('note_on', channel=0, note=65, velocity=0, time=96),
    Message('note_on', channel=0, note=70, velocity=0, time=0),
    Message('note_on', channel=0, note=70, velocity=100, time=0),
    Message('note_on', channel=0, note=65, velocity=100, time=0),
    Message('note_on', channel=0, note=65, velocity=0, time=96),
    Message('note_on', channel=0, note=70, velocity=0, time=0),
    Message('note_on', channel=0, note=71, velocity=100, time=0),
    Message('note_on', channel=0, note=66, velocity=100, time=0),
    Message('note_on', channel=0, note=66, velocity=0, time=96),
    Message('note_on', channel=0, note=71, velocity=0, time=0),
    Message('note_on', channel=0, note=68, velocity=100, time=0),
    Message('note_on', channel=0, note=71, velocity=100, time=0),
    Message('note_on', channel=0, note=71, velocity=0, time=96),
    Message('note_on', channel=0, note=68, velocity=0, time=0),
    Message('note_on', channel=0, note=72, velocity=100, time=0),
    Message('note_on', channel=0, note=72, velocity=0, time=96),
    Message('note_on', channel=0, note=72, velocity=100, time=0),
    Message('note_on', channel=0, note=72, velocity=0, time=192),
    Message('note_on', channel=0, note=46, velocity=100, time=0),
    Message('note_on', channel=0, note=53, velocity=100, time=0),
    Message('note_on', channel=0, note=53, velocity=0, time=576),
    Message('note_on', channel=0, note=46, velocity=0, time=0),
    Message('note_on', channel=0, note=46, velocity=100, time=0),
    Message('note_on', channel=0, note=53, velocity=100, time=0),
    Message('note_on', channel=0, note=53, velocity=0, time=192),
    Message('note_on', channel=0, note=46, velocity=0, time=0),
    Message('note_on', channel=0, note=43, velocity=100, time=0),
    Message('note_on', channel=0, note=48, velocity=100, time=0),
    Message('note_on', channel=0, note=48, velocity=0, time=576),
    Message('note_on', channel=0, note=43, velocity=0, time=0),
    Message('note_on', channel=0, note=43, velocity=100, time=0),
    Message('note_on', channel=0, note=48, velocity=100, time=0),
    Message('note_on', channel=0, note=48, velocity=0, time=192),
    Message('note_on', channel=0, note=43, velocity=0, time=0),
    Message('note_on', channel=0, note=44, velocity=100, time=0),
    Message('note_on', channel=0, note=49, velocity=100, time=0),
    Message('note_on', channel=0, note=49, velocity=0, time=576),
    Message('note_on', channel=0, note=44, velocity=0, time=0),
    Message('note_on', channel=0, note=44, velocity=100, time=0),
    Message('note_on', channel=0, note=49, velocity=100, time=0),
    Message('note_on', channel=0, note=49, velocity=0, time=96),
    Message('note_on', channel=0, note=44, velocity=0, time=0),
    Message('note_on', channel=0, note=46, velocity=100, time=0),
    Message('note_on', channel=0, note=51, velocity=100, time=0),
    Message('note_on', channel=0, note=51, velocity=0, time=96),
    Message('note_on', channel=0, note=46, velocity=0, time=0),
    Message('note_on', channel=0, note=46, velocity=100, time=0),
    Message('note_on', channel=0, note=51, velocity=100, time=0),
    Message('note_on', channel=0, note=51, velocity=0, time=576),
    Message('note_on', channel=0, note=46, velocity=0, time=0),
    Message('note_on', channel=0, note=46, velocity=100, time=0),
    Message('note_on', channel=0, note=51, velocity=100, time=0),
    Message('note_on', channel=0, note=51, velocity=0, time=192),
    Message('note_on', channel=0, note=46, velocity=0, time=0),
    Message('note_on', channel=0, note=48, velocity=100, time=0),
    Message('note_on', channel=0, note=53, velocity=100, time=0),
    Message('note_on', channel=0, note=53, velocity=0, time=576),
    Message('note_on', channel=0, note=48, velocity=0, time=0),
    Message('note_on', channel=0, note=48, velocity=100, time=0),
    Message('note_on', channel=0, note=53, velocity=100, time=0),
    Message('note_on', channel=0, note=53, velocity=0, time=96),
    Message('note_on', channel=0, note=48, velocity=0, time=0),
    Message('note_on', channel=0, note=49, velocity=100, time=0),
    Message('note_on', channel=0, note=55, velocity=100, time=0),
    Message('note_on', channel=0, note=55, velocity=0, time=96),
    Message('note_on', channel=0, note=49, velocity=0, time=0),
    Message('note_on', channel=0, note=49, velocity=100, time=0),
    Message('note_on', channel=0, note=55, velocity=100, time=0),
    Message('note_on', channel=0, note=55, velocity=0, time=576),
    Message('note_on', channel=0, note=49, velocity=0, time=0),
    Message('note_on', channel=0, note=49, velocity=100, time=0),
    Message('note_on', channel=0, note=55, velocity=100, time=0),
    Message('note_on', channel=0, note=55, velocity=0, time=192),
    Message('note_on', channel=0, note=49, velocity=0, time=0),
    Message('note_on', channel=0, note=51, velocity=100, time=0),
    Message('note_on', channel=0, note=56, velocity=100, time=0),
    Message('note_on', channel=0, note=56, velocity=0, time=576),
    Message('note_on', channel=0, note=51, velocity=0, time=0),
    Message('note_on', channel=0, note=51, velocity=100, time=0),
    Message('note_on', channel=0, note=56, velocity=100, time=0),
    Message('note_on', channel=0, note=56, velocity=0, time=192),
    Message('note_on', channel=0, note=51, velocity=0, time=0),
    Message('note_on', channel=0, note=53, velocity=100, time=0),
    Message('note_on', channel=0, note=58, velocity=100, time=0),
    Message('note_on', channel=0, note=58, velocity=0, time=576),
    Message('note_on', channel=0, note=53, velocity=0, time=0),
    Message('note_on', channel=0, note=53, velocity=100, time=0),
    Message('note_on', channel=0, note=65, velocity=100, time=0),
    Message('note_on', channel=0, note=65, velocity=0, time=192),
    Message('note_on', channel=0, note=53, velocity=0, time=0),
    Message('note_on', channel=0, note=48, velocity=100, time=0),
    Message('note_on', channel=0, note=55, velocity=100, time=0),
    Message('note_on', channel=0, note=60, velocity=100, time=0),
    Message('note_on', channel=0, note=60, velocity=0, time=192),
    Message('note_on', channel=0, note=55, velocity=0, time=0),
    Message('note_on', channel=0, note=48, velocity=0, time=0),
    Message('note_on', channel=0, note=48, velocity=100, time=0),
    Message('note_on', channel=0, note=55, velocity=100, time=0),
    Message('note_on', channel=0, note=60, velocity=100, time=0),
    Message('note_on', channel=0, note=60, velocity=0, time=192),
    Message('note_on', channel=0, note=55, velocity=0, time=0),
    Message('note_on', channel=0, note=48, velocity=0, time=0),
    Message('note_on', channel=0, note=48, velocity=100, time=0),
    Message('note_on', channel=0, note=55, velocity=100, time=0),
    Message('note_on', channel=0, note=60, velocity=100, time=0),
    Message('note_on', channel=0, note=60, velocity=0, time=192),
    Message('note_on', channel=0, note=55, velocity=0, time=0),
    Message('note_on', channel=0, note=48, velocity=0, time=0),
    Message('note_on', channel=0, note=48, velocity=100, time=0),
    Message('note_on', channel=0, note=55, velocity=100, time=0),
    Message('note_on', channel=0, note=60, velocity=100, time=0),
    Message('note_on', channel=0, note=60, velocity=0, time=192),
    Message('note_on', channel=0, note=55, velocity=0, time=0),
    Message('note_on', channel=0, note=48, velocity=0, time=0),
    Message('note_on', channel=0, note=48, velocity=100, time=0),
    Message('note_on', channel=0, note=55, velocity=100, time=0),
    Message('note_on', channel=0, note=60, velocity=100, time=0),
    Message('note_on', channel=0, note=60, velocity=0, time=192),
    Message('note_on', channel=0, note=55, velocity=0, time=0),
    Message('note_on', channel=0, note=48, velocity=0, time=0),
    Message('note_on', channel=0, note=48, velocity=100, time=0),
    Message('note_on', channel=0, note=55, velocity=100, time=0),
    Message('note_on', channel=0, note=60, velocity=100, time=0),
    Message('note_on', channel=0, note=60, velocity=0, time=192),
    Message('note_on', channel=0, note=55, velocity=0, time=0),
    Message('note_on', channel=0, note=48, velocity=0, time=0),
    Message('note_on', channel=0, note=48, velocity=100, time=0),
    Message('note_on', channel=0, note=55, velocity=100, time=0),
    Message('note_on', channel=0, note=60, velocity=100, time=0),
    Message('note_on', channel=0, note=60, velocity=0, time=192),
    Message('note_on', channel=0, note=55, velocity=0, time=0),
    Message('note_on', channel=0, note=48, velocity=0, time=0),
    Message('note_on', channel=0, note=48, velocity=100, time=0),
    Message('note_on', channel=0, note=55, velocity=100, time=0),
    Message('note_on', channel=0, note=60, velocity=100, time=0),
    Message('note_on', channel=0, note=60, velocity=0, time=192),
    Message('note_on', channel=0, note=55, velocity=0, time=0),
    Message('note_on', channel=0, note=48, velocity=0, time=0),
    Message('note_on', channel=0, note=48, velocity=100, time=0),
    Message('note_on', channel=0, note=55, velocity=100, time=0),
    Message('note_on', channel=0, note=60, velocity=100, time=0),
    Message('note_on', channel=0, note=60, velocity=0, time=192),
    Message('note_on', channel=0, note=55, velocity=0, time=0),
    Message('note_on', channel=0, note=48, velocity=0, time=0),
    Message('note_on', channel=0, note=48, velocity=100, time=0),
    Message('note_on', channel=0, note=55, velocity=100, time=0),
    Message('note_on', channel=0, note=60, velocity=100, time=0),
    Message('note_on', channel=0, note=60, velocity=0, time=192),
    Message('note_on', channel=0, note=55, velocity=0, time=0),
    Message('note_on', channel=0, note=48, velocity=0, time=0),
    Message('note_on', channel=0, note=48, velocity=100, time=0),
    Message('note_on', channel=0, note=55, velocity=100, time=0),
    Message('note_on', channel=0, note=60, velocity=100, time=0),
    Message('note_on', channel=0, note=60, velocity=0, time=192),
    Message('note_on', channel=0, note=55, velocity=0, time=0),
    Message('note_on', channel=0, note=48, velocity=0, time=0),
    Message('note_on', channel=0, note=48, velocity=100, time=0),
    Message('note_on', channel=0, note=55, velocity=100, time=0),
    Message('note_on', channel=0, note=60, velocity=100, time=0),
    Message('note_on', channel=0, note=60, velocity=0, time=192),
    Message('note_on', channel=0, note=55, velocity=0, time=0),
    Message('note_on', channel=0, note=48, velocity=0, time=0),
    Message('note_on', channel=0, note=48, velocity=100, time=0),
    Message('note_on', channel=0, note=55, velocity=100, time=0),
    Message('note_on', channel=0, note=60, velocity=100, time=0),
    Message('note_on', channel=0, note=60, velocity=0, time=192),
    Message('note_on', channel=0, note=55, velocity=0, time=0),
    Message('note_on', channel=0, note=48, velocity=0, time=0),
    Message('note_on', channel=0, note=48, velocity=100, time=0),
    Message('note_on', channel=0, note=55, velocity=100, time=0),
    Message('note_on', channel=0, note=60, velocity=100, time=0),
    Message('note_on', channel=0, note=60, velocity=0, time=192),
    Message('note_on', channel=0, note=55, velocity=0, time=0),
    Message('note_on', channel=0, note=48, velocity=0, time=0),
    Message('note_on', channel=0, note=48, velocity=100, time=0),
    Message('note_on', channel=0, note=55, velocity=100, time=0),
    Message('note_on', channel=0, note=60, velocity=100, time=0),
    Message('note_on', channel=0, note=60, velocity=0, time=192),
    Message('note_on', channel=0, note=55, velocity=0, time=0),
    Message('note_on', channel=0, note=48, velocity=0, time=0),
    Message('note_on', channel=0, note=48, velocity=100, time=0),
    Message('note_on', channel=0, note=55, velocity=100, time=0),
    Message('note_on', channel=0, note=60, velocity=100, time=0),
    Message('note_on', channel=0, note=60, velocity=0, time=192),
    Message('note_on', channel=0, note=55, velocity=0, time=0),
    Message('note_on', channel=0, note=48, velocity=0, time=0),
    Message('note_on', channel=0, note=53, velocity=100, time=0),
    Message('note_on', channel=0, note=60, velocity=100, time=0),
    Message('note_on', channel=0, note=65, velocity=100, time=0),
    Message('note_on', channel=0, note=65, velocity=0, time=576),
    Message('note_on', channel=0, note=60, velocity=0, time=0),
    Message('note_on', channel=0, note=53, velocity=0, time=0),
    Message('note_on', channel=0, note=53, velocity=100, time=0),
    Message('note_on', channel=0, note=60, velocity=100, time=0),
    Message('note_on', channel=0, note=65, velocity=100, time=0),
    Message('note_on', channel=0, note=65, velocity=0, time=192),
    Message('note_on', channel=0, note=60, velocity=0, time=0),
    Message('note_on', channel=0, note=53, velocity=0, time=0),
    Message('note_on', channel=0, note=51, velocity=100, time=0),
    Message('note_on', channel=0, note=58, velocity=100, time=0),
    Message('note_on', channel=0, note=58, velocity=0, time=576),
    Message('note_on', channel=0, note=51, velocity=0, time=0),
    Message('note_on', channel=0, note=51, velocity=100, time=0),
    Message('note_on', channel=0, note=58, velocity=100, time=0),
    Message('note_on', channel=0, note=58, velocity=0, time=192),
    Message('note_on', channel=0, note=51, velocity=0, time=0),
    Message('note_on', channel=0, note=49, velocity=100, time=0),
    Message('note_on', channel=0, note=56, velocity=100, time=0),
    Message('note_on', channel=0, note=56, velocity=0, time=576),
    Message('note_on', channel=0, note=49, velocity=0, time=0),
    Message('note_on', channel=0, note=49, velocity=100, time=0),
    Message('note_on', channel=0, note=56, velocity=100, time=0),
    Message('note_on', channel=0, note=56, velocity=0, time=192),
    Message('note_on', channel=0, note=49, velocity=0, time=0),
    Message('note_on', channel=0, note=51, velocity=100, time=0),
    Message('note_on', channel=0, note=58, velocity=100, time=0),
    Message('note_on', channel=0, note=58, velocity=0, time=576),
    Message('note_on', channel=0, note=51, velocity=0, time=0),
    Message('note_on', channel=0, note=51, velocity=100, time=0),
    Message('note_on', channel=0, note=58, velocity=100, time=0),
    Message('note_on', channel=0, note=58, velocity=0, time=192),
    Message('note_on', channel=0, note=51, velocity=0, time=0),
    Message('note_on', channel=0, note=60, velocity=100, time=0),
    Message('note_on', channel=0, note=53, velocity=100, time=184),
    Message('note_on', channel=0, note=60, velocity=0, time=8),
    Message('note_on', channel=0, note=53, velocity=0, time=376),
    Message('note_on', channel=0, note=53, velocity=100, time=8),
    Message('note_on', channel=0, note=60, velocity=100, time=0),
    Message('note_on', channel=0, note=60, velocity=0, time=192),
    Message('note_on', channel=0, note=53, velocity=0, time=0),
    Message('note_on', channel=0, note=51, velocity=100, time=0),
    Message('note_on', channel=0, note=58, velocity=100, time=0),
    Message('note_on', channel=0, note=58, velocity=0, time=576),
    Message('note_on', channel=0, note=51, velocity=0, time=0),
    Message('note_on', channel=0, note=58, velocity=100, time=0),
    Message('note_on', channel=0, note=51, velocity=100, time=0),
    Message('note_on', channel=0, note=51, velocity=0, time=192),
    Message('note_on', channel=0, note=58, velocity=0, time=0),
    Message('note_on', channel=0, note=49, velocity=100, time=0),
    Message('note_on', channel=0, note=56, velocity=100, time=0),
    Message('note_on', channel=0, note=56, velocity=0, time=576),
    Message('note_on', channel=0, note=49, velocity=0, time=0),
    Message('note_on', channel=0, note=56, velocity=100, time=8),
    Message('note_on', channel=0, note=49, velocity=100, time=12),
    Message('note_on', channel=0, note=58, velocity=100, time=172),
    Message('note_on', channel=0, note=51, velocity=100, time=0),
    Message('note_on', channel=0, note=56, velocity=0, time=8),
    Message('note_on', channel=0, note=49, velocity=0, time=12),
    Message('note_on', channel=0, note=63, velocity=100, time=160),
    Message('note_on', channel=0, note=58, velocity=0, time=12),
    Message('note_on', channel=0, note=51, velocity=0, time=0),
    Message('note_on', channel=0, note=65, velocity=100, time=20),
    Message('note_on', channel=0, note=63, velocity=0, time=352),
    Message('note_on', channel=0, note=58, velocity=100, time=0),
    Message('note_on', channel=0, note=65, velocity=0, time=32),
    Message('note_on', channel=0, note=58, velocity=0, time=160),
    Message('note_on', channel=0, note=53, velocity=100, time=12),
    Message('note_on', channel=0, note=60, velocity=100, time=0),
    Message('note_on', channel=0, note=65, velocity=100, time=0),
    Message('note_on', channel=0, note=65, velocity=0, time=576),
    Message('note_on', channel=0, note=60, velocity=0, time=0),
    Message('note_on', channel=0, note=53, velocity=0, time=0),
    Message('note_on', channel=0, note=53, velocity=100, time=0),
    Message('note_on', channel=0, note=60, velocity=100, time=0),
    Message('note_on', channel=0, note=65, velocity=100, time=0),
    Message('note_on', channel=0, note=65, velocity=0, time=192),
    Message('note_on', channel=0, note=60, velocity=0, time=0),
    Message('note_on', channel=0, note=53, velocity=0, time=0),
    Message('note_on', channel=0, note=51, velocity=100, time=0),
    Message('note_on', channel=0, note=58, velocity=100, time=0),
    Message('note_on', channel=0, note=58, velocity=0, time=576),
    Message('note_on', channel=0, note=51, velocity=0, time=0),
    Message('note_on', channel=0, note=51, velocity=100, time=0),
    Message('note_on', channel=0, note=58, velocity=100, time=0),
    Message('note_on', channel=0, note=58, velocity=0, time=192),
    Message('note_on', channel=0, note=51, velocity=0, time=0),
    Message('note_on', channel=0, note=49, velocity=100, time=0),
    Message('note_on', channel=0, note=56, velocity=100, time=0),
    Message('note_on', channel=0, note=56, velocity=0, time=576),
    Message('note_on', channel=0, note=49, velocity=0, time=0),
    Message('note_on', channel=0, note=49, velocity=100, time=0),
    Message('note_on', channel=0, note=56, velocity=100, time=0),
    Message('note_on', channel=0, note=56, velocity=0, time=192),
    Message('note_on', channel=0, note=49, velocity=0, time=0),
    Message('note_on', channel=0, note=51, velocity=100, time=0),
    Message('note_on', channel=0, note=58, velocity=100, time=0),
    Message('note_on', channel=0, note=58, velocity=0, time=576),
    Message('note_on', channel=0, note=51, velocity=0, time=0),
    Message('note_on', channel=0, note=51, velocity=100, time=0),
    Message('note_on', channel=0, note=58, velocity=100, time=0),
    Message('note_on', channel=0, note=58, velocity=0, time=192),
    Message('note_on', channel=0, note=51, velocity=0, time=0),
    Message('note_on', channel=0, note=60, velocity=100, time=0),
    Message('note_on', channel=0, note=60, velocity=0, time=96),
    Message('note_on', channel=0, note=53, velocity=100, time=0),
    Message('note_on', channel=0, note=53, velocity=0, time=96),
    Message('note_on', channel=0, note=53, velocity=100, time=0),
    Message('note_on', channel=0, note=53, velocity=0, time=96),
    Message('note_on', channel=0, note=53, velocity=100, time=0),
    Message('note_on', channel=0, note=53, velocity=0, time=96),
    Message('note_on', channel=0, note=53, velocity=100, time=0),
    Message('note_on', channel=0, note=53, velocity=0, time=384),
    Message('note_on', channel=0, note=60, velocity=100, time=0),
    Message('note_on', channel=0, note=60, velocity=0, time=96),
    Message('note_on', channel=0, note=55, velocity=100, time=0),
    Message('note_on', channel=0, note=55, velocity=0, time=96),
    Message('note_on', channel=0, note=55, velocity=100, time=0),
    Message('note_on', channel=0, note=55, velocity=0, time=96),
    Message('note_on', channel=0, note=55, velocity=100, time=0),
    Message('note_on', channel=0, note=55, velocity=0, time=96),
    Message('note_on', channel=0, note=55, velocity=100, time=0),
    Message('note_on', channel=0, note=55, velocity=0, time=384),
    Message('note_on', channel=0, note=60, velocity=100, time=0),
    Message('note_on', channel=0, note=60, velocity=0, time=96),
    Message('note_on', channel=0, note=56, velocity=100, time=0),
    Message('note_on', channel=0, note=56, velocity=0, time=96),
    Message('note_on', channel=0, note=56, velocity=100, time=0),
    Message('note_on', channel=0, note=56, velocity=0, time=96),
    Message('note_on', channel=0, note=56, velocity=100, time=0),
    Message('note_on', channel=0, note=56, velocity=0, time=96),
    Message('note_on', channel=0, note=56, velocity=100, time=0),
    Message('note_on', channel=0, note=56, velocity=0, time=384),
    Message('note_on', channel=0, note=60, velocity=100, time=0),
    Message('note_on', channel=0, note=60, velocity=0, time=96),
    Message('note_on', channel=0, note=58, velocity=100, time=0),
    Message('note_on', channel=0, note=58, velocity=0, time=96),
    Message('note_on', channel=0, note=58, velocity=100, time=0),
    Message('note_on', channel=0, note=58, velocity=0, time=96),
    Message('note_on', channel=0, note=58, velocity=100, time=0),
    Message('note_on', channel=0, note=58, velocity=0, time=96),
    Message('note_on', channel=0, note=58, velocity=100, time=0),
    Message('note_on', channel=0, note=58, velocity=0, time=288),
    Message('note_on', channel=0, note=58, velocity=100, time=0),
    Message('note_on', channel=0, note=58, velocity=0, time=96),
    Message('note_on', channel=0, note=60, velocity=100, time=0),
    Message('control_change', channel=0, control=7, value=121, time=128),
    Message('control_change', channel=0, control=7, value=122, time=48),
    Message('control_change', channel=0, control=7, value=123, time=0),
    Message('control_change', channel=0, control=7, value=124, time=160),
    Message('control_change', channel=0, control=7, value=126, time=16),
    Message('control_change', channel=0, control=7, value=127, time=16),
    Message('note_on', channel=0, note=60, velocity=0, time=4240),
    MetaMessage('end_of_track', time=0)]),
  MidiTrack([
    MetaMessage('midi_port', port=0, time=0),
    MetaMessage('track_name', name='Heavy Guitar', time=0),
    Message('control_change', channel=1, control=0, value=0, time=0),
    Message('control_change', channel=1, control=32, value=0, time=0),
    Message('program_change', channel=1, program=30, time=0),
    Message('control_change', channel=1, control=7, value=127, time=0),
    Message('note_on', channel=1, note=55, velocity=120, time=33792),
    Message('note_on', channel=1, note=52, velocity=120, time=0),
    Message('note_on', channel=1, note=48, velocity=120, time=0),
    Message('note_on', channel=1, note=48, velocity=0, time=384),
    Message('note_on', channel=1, note=52, velocity=0, time=0),
    Message('note_on', channel=1, note=55, velocity=0, time=0),
    Message('note_on', channel=1, note=55, velocity=120, time=0),
    Message('note_on', channel=1, note=52, velocity=120, time=0),
    Message('note_on', channel=1, note=48, velocity=120, time=0),
    Message('note_on', channel=1, note=48, velocity=0, time=384),
    Message('note_on', channel=1, note=52, velocity=0, time=0),
    Message('note_on', channel=1, note=55, velocity=0, time=0),
    Message('note_on', channel=1, note=56, velocity=120, time=0),
    Message('note_on', channel=1, note=53, velocity=120, time=0),
    Message('note_on', channel=1, note=49, velocity=120, time=0),
    Message('note_on', channel=1, note=49, velocity=0, time=384),
    Message('note_on', channel=1, note=53, velocity=0, time=0),
    Message('note_on', channel=1, note=56, velocity=0, time=0),
    Message('note_on', channel=1, note=56, velocity=120, time=0),
    Message('note_on', channel=1, note=53, velocity=120, time=0),
    Message('note_on', channel=1, note=49, velocity=120, time=0),
    Message('note_on', channel=1, note=49, velocity=0, time=384),
    Message('note_on', channel=1, note=53, velocity=0, time=0),
    Message('note_on', channel=1, note=56, velocity=0, time=0),
    Message('note_on', channel=1, note=57, velocity=120, time=0),
    Message('note_on', channel=1, note=54, velocity=120, time=0),
    Message('note_on', channel=1, note=50, velocity=120, time=0),
    Message('note_on', channel=1, note=50, velocity=0, time=384),
    Message('note_on', channel=1, note=54, velocity=0, time=0),
    Message('note_on', channel=1, note=57, velocity=0, time=0),
    Message('note_on', channel=1, note=57, velocity=120, time=0),
    Message('note_on', channel=1, note=54, velocity=120, time=0),
    Message('note_on', channel=1, note=50, velocity=120, time=0),
    Message('note_on', channel=1, note=50, velocity=0, time=384),
    Message('note_on', channel=1, note=54, velocity=0, time=0),
    Message('note_on', channel=1, note=57, velocity=0, time=0),
    Message('note_on', channel=1, note=58, velocity=120, time=0),
    Message('note_on', channel=1, note=55, velocity=120, time=0),
    Message('note_on', channel=1, note=52, velocity=120, time=0),
    Message('note_on', channel=1, note=52, velocity=0, time=384),
    Message('note_on', channel=1, note=55, velocity=0, time=0),
    Message('note_on', channel=1, note=58, velocity=0, time=0),
    Message('note_on', channel=1, note=58, velocity=120, time=0),
    Message('note_on', channel=1, note=55, velocity=120, time=0),
    Message('note_on', channel=1, note=52, velocity=120, time=0),
    Message('note_on', channel=1, note=52, velocity=0, time=96),
    Message('note_on', channel=1, note=55, velocity=0, time=0),
    Message('note_on', channel=1, note=58, velocity=0, time=0),
    Message('note_on', channel=1, note=58, velocity=120, time=0),
    Message('note_on', channel=1, note=55, velocity=120, time=0),
    Message('note_on', channel=1, note=52, velocity=120, time=0),
    Message('note_on', channel=1, note=52, velocity=0, time=96),
    Message('note_on', channel=1, note=55, velocity=0, time=0),
    Message('note_on', channel=1, note=58, velocity=0, time=0),
    Message('note_on', channel=1, note=58, velocity=120, time=0),
    Message('note_on', channel=1, note=55, velocity=120, time=0),
    Message('note_on', channel=1, note=52, velocity=120, time=0),
    Message('note_on', channel=1, note=52, velocity=0, time=192),
    Message('note_on', channel=1, note=55, velocity=0, time=0),
    Message('note_on', channel=1, note=58, velocity=0, time=0),
    Message('note_on', channel=1, note=41, velocity=106, time=0),
    Message('note_on', channel=1, note=48, velocity=106, time=0),
    Message('note_on', channel=1, note=53, velocity=106, time=0),
    Message('note_on', channel=1, note=53, velocity=0, time=384),
    Message('note_on', channel=1, note=48, velocity=0, time=0),
    Message('note_on', channel=1, note=41, velocity=0, time=0),
    Message('note_on', channel=1, note=41, velocity=106, time=0),
    Message('note_on', channel=1, note=48, velocity=106, time=0),
    Message('note_on', channel=1, note=53, velocity=106, time=0),
    Message('note_on', channel=1, note=53, velocity=0, time=384),
    Message('note_on', channel=1, note=48, velocity=0, time=0),
    Message('note_on', channel=1, note=41, velocity=0, time=0),
    Message('note_on', channel=1, note=39, velocity=106, time=0),
    Message('note_on', channel=1, note=46, velocity=106, time=0),
    Message('note_on', channel=1, note=51, velocity=106, time=0),
    Message('note_on', channel=1, note=51, velocity=0, time=192),
    Message('note_on', channel=1, note=46, velocity=0, time=0),
    Message('note_on', channel=1, note=39, velocity=0, time=0),
    Message('note_on', channel=1, note=39, velocity=106, time=0),
    Message('note_on', channel=1, note=39, velocity=0, time=192),
    Message('note_on', channel=1, note=39, velocity=106, time=0),
    Message('note_on', channel=1, note=46, velocity=106, time=0),
    Message('note_on', channel=1, note=51, velocity=106, time=0),
    Message('note_on', channel=1, note=53, velocity=106, time=0),
    Message('note_on', channel=1, note=58, velocity=106, time=0),
    Message('note_on', channel=1, note=58, velocity=0, time=192),
    Message('note_on', channel=1, note=51, velocity=0, time=0),
    Message('note_on', channel=1, note=39, velocity=0, time=0),
    Message('note_on', channel=1, note=46, velocity=0, time=0),
    Message('note_on', channel=1, note=53, velocity=0, time=0),
    Message('note_on', channel=1, note=39, velocity=106, time=0),
    Message('note_on', channel=1, note=46, velocity=106, time=0),
    Message('note_on', channel=1, note=51, velocity=106, time=0),
    Message('note_on', channel=1, note=53, velocity=106, time=0),
    Message('note_on', channel=1, note=58, velocity=106, time=0),
    Message('note_on', channel=1, note=58, velocity=0, time=192),
    Message('note_on', channel=1, note=51, velocity=0, time=0),
    Message('note_on', channel=1, note=39, velocity=0, time=0),
    Message('note_on', channel=1, note=46, velocity=0, time=0),
    Message('note_on', channel=1, note=53, velocity=0, time=0),
    Message('note_on', channel=1, note=37, velocity=106, time=0),
    Message('note_on', channel=1, note=44, velocity=106, time=0),
    Message('note_on', channel=1, note=49, velocity=106, time=0),
    Message('note_on', channel=1, note=49, velocity=0, time=192),
    Message('note_on', channel=1, note=44, velocity=0, time=0),
    Message('note_on', channel=1, note=37, velocity=0, time=0),
    Message('note_on', channel=1, note=37, velocity=106, time=0),
    Message('note_on', channel=1, note=37, velocity=0, time=192),
    Message('note_on', channel=1, note=37, velocity=106, time=0),
    Message('note_on', channel=1, note=44, velocity=106, time=0),
    Message('note_on', channel=1, note=49, velocity=106, time=0),
    Message('note_on', channel=1, note=53, velocity=106, time=0),
    Message('note_on', channel=1, note=53, velocity=0, time=192),
    Message('note_on', channel=1, note=37, velocity=0, time=0),
    Message('note_on', channel=1, note=44, velocity=0, time=0),
    Message('note_on', channel=1, note=49, velocity=0, time=0),
    Message('note_on', channel=1, note=37, velocity=106, time=0),
    Message('note_on', channel=1, note=44, velocity=106, time=0),
    Message('note_on', channel=1, note=49, velocity=106, time=0),
    Message('note_on', channel=1, note=49, velocity=0, time=192),
    Message('note_on', channel=1, note=44, velocity=0, time=0),
    Message('note_on', channel=1, note=37, velocity=0, time=0),
    Message('note_on', channel=1, note=39, velocity=106, time=0),
    Message('note_on', channel=1, note=46, velocity=106, time=0),
    Message('note_on', channel=1, note=51, velocity=106, time=0),
    Message('note_on', channel=1, note=51, velocity=0, time=192),
    Message('note_on', channel=1, note=46, velocity=0, time=0),
    Message('note_on', channel=1, note=39, velocity=0, time=0),
    Message('note_on', channel=1, note=39, velocity=106, time=0),
    Message('note_on', channel=1, note=39, velocity=0, time=192),
    Message('note_on', channel=1, note=39, velocity=106, time=0),
    Message('note_on', channel=1, note=46, velocity=106, time=0),
    Message('note_on', channel=1, note=51, velocity=106, time=0),
    Message('note_on', channel=1, note=53, velocity=106, time=0),
    Message('note_on', channel=1, note=58, velocity=106, time=0),
    Message('note_on', channel=1, note=58, velocity=0, time=192),
    Message('note_on', channel=1, note=51, velocity=0, time=0),
    Message('note_on', channel=1, note=39, velocity=0, time=0),
    Message('note_on', channel=1, note=46, velocity=0, time=0),
    Message('note_on', channel=1, note=53, velocity=0, time=0),
    Message('note_on', channel=1, note=39, velocity=106, time=0),
    Message('note_on', channel=1, note=46, velocity=106, time=0),
    Message('note_on', channel=1, note=51, velocity=106, time=0),
    Message('note_on', channel=1, note=53, velocity=106, time=0),
    Message('note_on', channel=1, note=58, velocity=106, time=0),
    Message('note_on', channel=1, note=58, velocity=0, time=192),
    Message('note_on', channel=1, note=51, velocity=0, time=0),
    Message('note_on', channel=1, note=39, velocity=0, time=0),
    Message('note_on', channel=1, note=46, velocity=0, time=0),
    Message('note_on', channel=1, note=53, velocity=0, time=0),
    Message('note_on', channel=1, note=41, velocity=106, time=0),
    Message('note_on', channel=1, note=48, velocity=106, time=0),
    Message('note_on', channel=1, note=53, velocity=106, time=0),
    Message('note_on', channel=1, note=53, velocity=0, time=384),
    Message('note_on', channel=1, note=48, velocity=0, time=0),
    Message('note_on', channel=1, note=41, velocity=0, time=0),
    Message('note_on', channel=1, note=41, velocity=106, time=0),
    Message('note_on', channel=1, note=48, velocity=106, time=0),
    Message('note_on', channel=1, note=53, velocity=106, time=0),
    Message('note_on', channel=1, note=53, velocity=0, time=384),
    Message('note_on', channel=1, note=48, velocity=0, time=0),
    Message('note_on', channel=1, note=41, velocity=0, time=0),
    Message('note_on', channel=1, note=39, velocity=106, time=0),
    Message('note_on', channel=1, note=46, velocity=106, time=0),
    Message('note_on', channel=1, note=51, velocity=106, time=0),
    Message('note_on', channel=1, note=51, velocity=0, time=192),
    Message('note_on', channel=1, note=46, velocity=0, time=0),
    Message('note_on', channel=1, note=39, velocity=0, time=0),
    Message('note_on', channel=1, note=39, velocity=106, time=0),
    Message('note_on', channel=1, note=39, velocity=0, time=192),
    Message('note_on', channel=1, note=39, velocity=106, time=0),
    Message('note_on', channel=1, note=46, velocity=106, time=0),
    Message('note_on', channel=1, note=51, velocity=106, time=0),
    Message('note_on', channel=1, note=53, velocity=106, time=0),
    Message('note_on', channel=1, note=58, velocity=106, time=0),
    Message('note_on', channel=1, note=58, velocity=0, time=384),
    Message('note_on', channel=1, note=51, velocity=0, time=0),
    Message('note_on', channel=1, note=39, velocity=0, time=0),
    Message('note_on', channel=1, note=46, velocity=0, time=0),
    Message('note_on', channel=1, note=53, velocity=0, time=0),
    Message('note_on', channel=1, note=37, velocity=106, time=0),
    Message('note_on', channel=1, note=44, velocity=106, time=0),
    Message('note_on', channel=1, note=49, velocity=106, time=0),
    Message('note_on', channel=1, note=49, velocity=0, time=384),
    Message('note_on', channel=1, note=44, velocity=0, time=0),
    Message('note_on', channel=1, note=37, velocity=0, time=0),
    Message('note_on', channel=1, note=37, velocity=106, time=0),
    Message('note_on', channel=1, note=44, velocity=106, time=0),
    Message('note_on', channel=1, note=49, velocity=106, time=0),
    Message('note_on', channel=1, note=49, velocity=0, time=192),
    Message('note_on', channel=1, note=44, velocity=0, time=0),
    Message('note_on', channel=1, note=37, velocity=0, time=0),
    Message('note_on', channel=1, note=37, velocity=106, time=0),
    Message('note_on', channel=1, note=37, velocity=0, time=192),
    Message('note_on', channel=1, note=39, velocity=106, time=0),
    Message('note_on', channel=1, note=46, velocity=106, time=0),
    Message('note_on', channel=1, note=51, velocity=106, time=0),
    Message('note_on', channel=1, note=51, velocity=0, time=192),
    Message('note_on', channel=1, note=46, velocity=0, time=0),
    Message('note_on', channel=1, note=39, velocity=0, time=0),
    Message('note_on', channel=1, note=39, velocity=106, time=0),
    Message('note_on', channel=1, note=39, velocity=0, time=192),
    Message('note_on', channel=1, note=39, velocity=106, time=0),
    Message('note_on', channel=1, note=46, velocity=106, time=0),
    Message('note_on', channel=1, note=51, velocity=106, time=0),
    Message('note_on', channel=1, note=53, velocity=106, time=0),
    Message('note_on', channel=1, note=58, velocity=106, time=0),
    Message('note_on', channel=1, note=58, velocity=0, time=384),
    Message('note_on', channel=1, note=51, velocity=0, time=0),
    Message('note_on', channel=1, note=39, velocity=0, time=0),
    Message('note_on', channel=1, note=46, velocity=0, time=0),
    Message('note_on', channel=1, note=53, velocity=0, time=0),
    Message('note_on', channel=1, note=41, velocity=106, time=2304),
    Message('note_on', channel=1, note=41, velocity=0, time=96),
    Message('note_on', channel=1, note=43, velocity=106, time=0),
    Message('note_on', channel=1, note=43, velocity=0, time=96),
    Message('note_on', channel=1, note=44, velocity=106, time=0),
    Message('note_on', channel=1, note=44, velocity=0, time=96),
    Message('note_on', channel=1, note=46, velocity=106, time=0),
    Message('note_on', channel=1, note=46, velocity=0, time=96),
    Message('note_on', channel=1, note=47, velocity=106, time=0),
    Message('note_on', channel=1, note=47, velocity=0, time=96),
    Message('note_on', channel=1, note=48, velocity=106, time=0),
    Message('note_on', channel=1, note=48, velocity=0, time=96),
    Message('note_on', channel=1, note=56, velocity=106, time=0),
    Message('note_on', channel=1, note=56, velocity=0, time=96),
    Message('note_on', channel=1, note=53, velocity=106, time=0),
    Message('note_on', channel=1, note=53, velocity=0, time=96),
    Message('note_on', channel=1, note=53, velocity=106, time=0),
    Message('note_on', channel=1, note=53, velocity=0, time=3072),
    Message('note_on', channel=1, note=41, velocity=106, time=12288),
    Message('note_on', channel=1, note=48, velocity=106, time=0),
    Message('note_on', channel=1, note=53, velocity=106, time=0),
    Message('note_on', channel=1, note=53, velocity=0, time=384),
    Message('note_on', channel=1, note=48, velocity=0, time=0),
    Message('note_on', channel=1, note=41, velocity=0, time=0),
    Message('note_on', channel=1, note=41, velocity=106, time=0),
    Message('note_on', channel=1, note=48, velocity=106, time=0),
    Message('note_on', channel=1, note=53, velocity=106, time=0),
    Message('note_on', channel=1, note=53, velocity=0, time=384),
    Message('note_on', channel=1, note=48, velocity=0, time=0),
    Message('note_on', channel=1, note=41, velocity=0, time=0),
    Message('note_on', channel=1, note=39, velocity=106, time=0),
    Message('note_on', channel=1, note=46, velocity=106, time=0),
    Message('note_on', channel=1, note=51, velocity=106, time=0),
    Message('note_on', channel=1, note=51, velocity=0, time=192),
    Message('note_on', channel=1, note=46, velocity=0, time=0),
    Message('note_on', channel=1, note=39, velocity=0, time=0),
    Message('note_on', channel=1, note=39, velocity=106, time=0),
    Message('note_on', channel=1, note=39, velocity=0, time=192),
    Message('note_on', channel=1, note=39, velocity=106, time=0),
    Message('note_on', channel=1, note=46, velocity=106, time=0),
    Message('note_on', channel=1, note=51, velocity=106, time=0),
    Message('note_on', channel=1, note=53, velocity=106, time=0),
    Message('note_on', channel=1, note=58, velocity=106, time=0),
    Message('note_on', channel=1, note=58, velocity=0, time=384),
    Message('note_on', channel=1, note=51, velocity=0, time=0),
    Message('note_on', channel=1, note=39, velocity=0, time=0),
    Message('note_on', channel=1, note=46, velocity=0, time=0),
    Message('note_on', channel=1, note=53, velocity=0, time=0),
    Message('note_on', channel=1, note=37, velocity=106, time=0),
    Message('note_on', channel=1, note=44, velocity=106, time=0),
    Message('note_on', channel=1, note=49, velocity=106, time=0),
    Message('note_on', channel=1, note=49, velocity=0, time=192),
    Message('note_on', channel=1, note=44, velocity=0, time=0),
    Message('note_on', channel=1, note=37, velocity=0, time=0),
    Message('note_on', channel=1, note=37, velocity=106, time=0),
    Message('note_on', channel=1, note=37, velocity=0, time=192),
    Message('note_on', channel=1, note=37, velocity=106, time=0),
    Message('note_on', channel=1, note=44, velocity=106, time=0),
    Message('note_on', channel=1, note=49, velocity=106, time=0),
    Message('note_on', channel=1, note=53, velocity=106, time=0),
    Message('note_on', channel=1, note=53, velocity=0, time=192),
    Message('note_on', channel=1, note=37, velocity=0, time=0),
    Message('note_on', channel=1, note=44, velocity=0, time=0),
    Message('note_on', channel=1, note=49, velocity=0, time=0),
    Message('note_on', channel=1, note=37, velocity=106, time=0),
    Message('note_on', channel=1, note=44, velocity=106, time=0),
    Message('note_on', channel=1, note=49, velocity=106, time=0),
    Message('note_on', channel=1, note=49, velocity=0, time=192),
    Message('note_on', channel=1, note=44, velocity=0, time=0),
    Message('note_on', channel=1, note=37, velocity=0, time=0),
    Message('note_on', channel=1, note=39, velocity=106, time=0),
    Message('note_on', channel=1, note=46, velocity=106, time=0),
    Message('note_on', channel=1, note=51, velocity=106, time=0),
    Message('note_on', channel=1, note=51, velocity=0, time=192),
    Message('note_on', channel=1, note=46, velocity=0, time=0),
    Message('note_on', channel=1, note=39, velocity=0, time=0),
    Message('note_on', channel=1, note=39, velocity=106, time=0),
    Message('note_on', channel=1, note=39, velocity=0, time=192),
    Message('note_on', channel=1, note=39, velocity=106, time=0),
    Message('note_on', channel=1, note=46, velocity=106, time=0),
    Message('note_on', channel=1, note=51, velocity=106, time=0),
    Message('note_on', channel=1, note=53, velocity=106, time=0),
    Message('note_on', channel=1, note=58, velocity=106, time=0),
    Message('note_on', channel=1, note=58, velocity=0, time=384),
    Message('note_on', channel=1, note=51, velocity=0, time=0),
    Message('note_on', channel=1, note=39, velocity=0, time=0),
    Message('note_on', channel=1, note=46, velocity=0, time=0),
    Message('note_on', channel=1, note=53, velocity=0, time=0),
    Message('note_on', channel=1, note=48, velocity=106, time=0),
    Message('note_on', channel=1, note=48, velocity=0, time=96),
    Message('note_on', channel=1, note=41, velocity=106, time=0),
    Message('note_on', channel=1, note=41, velocity=0, time=96),
    Message('note_on', channel=1, note=41, velocity=106, time=0),
    Message('note_on', channel=1, note=41, velocity=0, time=96),
    Message('note_on', channel=1, note=41, velocity=106, time=0),
    Message('note_on', channel=1, note=41, velocity=0, time=96),
    Message('note_on', channel=1, note=41, velocity=106, time=0),
    Message('note_on', channel=1, note=41, velocity=0, time=384),
    Message('note_on', channel=1, note=48, velocity=106, time=0),
    Message('note_on', channel=1, note=48, velocity=0, time=96),
    Message('note_on', channel=1, note=43, velocity=106, time=0),
    Message('note_on', channel=1, note=43, velocity=0, time=96),
    Message('note_on', channel=1, note=43, velocity=106, time=0),
    Message('note_on', channel=1, note=43, velocity=0, time=96),
    Message('note_on', channel=1, note=43, velocity=106, time=0),
    Message('note_on', channel=1, note=43, velocity=0, time=96),
    Message('note_on', channel=1, note=43, velocity=106, time=0),
    Message('note_on', channel=1, note=43, velocity=0, time=384),
    Message('note_on', channel=1, note=48, velocity=106, time=0),
    Message('note_on', channel=1, note=48, velocity=0, time=96),
    Message('note_on', channel=1, note=44, velocity=106, time=0),
    Message('note_on', channel=1, note=44, velocity=0, time=96),
    Message('note_on', channel=1, note=44, velocity=106, time=0),
    Message('note_on', channel=1, note=44, velocity=0, time=96),
    Message('note_on', channel=1, note=44, velocity=106, time=0),
    Message('note_on', channel=1, note=44, velocity=0, time=96),
    Message('note_on', channel=1, note=44, velocity=106, time=0),
    Message('note_on', channel=1, note=44, velocity=0, time=384),
    Message('note_on', channel=1, note=48, velocity=106, time=0),
    Message('note_on', channel=1, note=48, velocity=0, time=96),
    Message('note_on', channel=1, note=46, velocity=106, time=0),
    Message('note_on', channel=1, note=46, velocity=0, time=96),
    Message('note_on', channel=1, note=46, velocity=106, time=0),
    Message('note_on', channel=1, note=46, velocity=0, time=96),
    Message('note_on', channel=1, note=46, velocity=106, time=0),
    Message('note_on', channel=1, note=46, velocity=0, time=96),
    Message('note_on', channel=1, note=46, velocity=106, time=0),
    Message('note_on', channel=1, note=46, velocity=0, time=384),
    Message('note_on', channel=1, note=48, velocity=106, time=0),
    Message('note_on', channel=1, note=55, velocity=120, time=0),
    Message('note_on', channel=1, note=52, velocity=120, time=0),
    Message('note_on', channel=1, note=48, velocity=120, time=0),
    Message('note_on', channel=1, note=52, velocity=0, time=384),
    Message('note_on', channel=1, note=48, velocity=0, time=0),
    Message('note_on', channel=1, note=55, velocity=0, time=0),
    Message('note_on', channel=1, note=55, velocity=120, time=0),
    Message('note_on', channel=1, note=52, velocity=120, time=0),
    Message('note_on', channel=1, note=48, velocity=120, time=0),
    Message('note_on', channel=1, note=52, velocity=0, time=384),
    Message('note_on', channel=1, note=48, velocity=0, time=0),
    Message('note_on', channel=1, note=55, velocity=0, time=0),
    Message('note_on', channel=1, note=56, velocity=120, time=0),
    Message('note_on', channel=1, note=53, velocity=120, time=0),
    Message('note_on', channel=1, note=49, velocity=120, time=0),
    Message('note_on', channel=1, note=49, velocity=0, time=384),
    Message('note_on', channel=1, note=53, velocity=0, time=0),
    Message('note_on', channel=1, note=56, velocity=0, time=0),
    Message('note_on', channel=1, note=56, velocity=120, time=0),
    Message('note_on', channel=1, note=53, velocity=120, time=0),
    Message('note_on', channel=1, note=49, velocity=120, time=0),
    Message('note_on', channel=1, note=49, velocity=0, time=384),
    Message('note_on', channel=1, note=53, velocity=0, time=0),
    Message('note_on', channel=1, note=56, velocity=0, time=0),
    Message('note_on', channel=1, note=57, velocity=120, time=0),
    Message('note_on', channel=1, note=54, velocity=120, time=0),
    Message('note_on', channel=1, note=50, velocity=120, time=0),
    Message('note_on', channel=1, note=50, velocity=0, time=384),
    Message('note_on', channel=1, note=54, velocity=0, time=0),
    Message('note_on', channel=1, note=57, velocity=0, time=0),
    Message('note_on', channel=1, note=57, velocity=120, time=0),
    Message('note_on', channel=1, note=54, velocity=120, time=0),
    Message('note_on', channel=1, note=50, velocity=120, time=0),
    Message('note_on', channel=1, note=50, velocity=0, time=384),
    Message('note_on', channel=1, note=54, velocity=0, time=0),
    Message('note_on', channel=1, note=57, velocity=0, time=0),
    Message('note_on', channel=1, note=58, velocity=120, time=0),
    Message('note_on', channel=1, note=55, velocity=120, time=0),
    Message('note_on', channel=1, note=52, velocity=120, time=0),
    Message('note_on', channel=1, note=52, velocity=0, time=384),
    Message('note_on', channel=1, note=55, velocity=0, time=0),
    Message('note_on', channel=1, note=58, velocity=0, time=0),
    Message('note_on', channel=1, note=58, velocity=120, time=0),
    Message('note_on', channel=1, note=55, velocity=120, time=0),
    Message('note_on', channel=1, note=52, velocity=120, time=0),
    Message('note_on', channel=1, note=52, velocity=0, time=96),
    Message('note_on', channel=1, note=55, velocity=0, time=0),
    Message('note_on', channel=1, note=58, velocity=0, time=0),
    Message('note_on', channel=1, note=58, velocity=120, time=0),
    Message('note_on', channel=1, note=55, velocity=120, time=0),
    Message('note_on', channel=1, note=52, velocity=120, time=0),
    Message('note_on', channel=1, note=52, velocity=0, time=96),
    Message('note_on', channel=1, note=55, velocity=0, time=0),
    Message('note_on', channel=1, note=58, velocity=0, time=0),
    Message('note_on', channel=1, note=58, velocity=120, time=0),
    Message('note_on', channel=1, note=55, velocity=120, time=0),
    Message('note_on', channel=1, note=52, velocity=120, time=0),
    Message('note_on', channel=1, note=52, velocity=0, time=192),
    Message('note_on', channel=1, note=48, velocity=0, time=0),
    Message('note_on', channel=1, note=58, velocity=0, time=0),
    Message('note_on', channel=1, note=55, velocity=0, time=0),
    Message('note_on', channel=1, note=41, velocity=106, time=10752),
    Message('note_on', channel=1, note=48, velocity=106, time=0),
    Message('note_on', channel=1, note=53, velocity=106, time=0),
    Message('note_on', channel=1, note=53, velocity=0, time=384),
    Message('note_on', channel=1, note=48, velocity=0, time=0),
    Message('note_on', channel=1, note=41, velocity=0, time=0),
    Message('note_on', channel=1, note=41, velocity=106, time=0),
    Message('note_on', channel=1, note=48, velocity=106, time=0),
    Message('note_on', channel=1, note=53, velocity=106, time=0),
    Message('note_on', channel=1, note=53, velocity=0, time=384),
    Message('note_on', channel=1, note=48, velocity=0, time=0),
    Message('note_on', channel=1, note=41, velocity=0, time=0),
    Message('note_on', channel=1, note=39, velocity=106, time=0),
    Message('note_on', channel=1, note=46, velocity=106, time=0),
    Message('note_on', channel=1, note=51, velocity=106, time=0),
    Message('note_on', channel=1, note=51, velocity=0, time=192),
    Message('note_on', channel=1, note=46, velocity=0, time=0),
    Message('note_on', channel=1, note=39, velocity=0, time=0),
    Message('note_on', channel=1, note=39, velocity=106, time=0),
    Message('note_on', channel=1, note=39, velocity=0, time=192),
    Message('note_on', channel=1, note=39, velocity=106, time=0),
    Message('note_on', channel=1, note=46, velocity=106, time=0),
    Message('note_on', channel=1, note=51, velocity=106, time=0),
    Message('note_on', channel=1, note=53, velocity=106, time=0),
    Message('note_on', channel=1, note=58, velocity=106, time=0),
    Message('note_on', channel=1, note=58, velocity=0, time=384),
    Message('note_on', channel=1, note=51, velocity=0, time=0),
    Message('note_on', channel=1, note=39, velocity=0, time=0),
    Message('note_on', channel=1, note=46, velocity=0, time=0),
    Message('note_on', channel=1, note=53, velocity=0, time=0),
    Message('note_on', channel=1, note=37, velocity=106, time=0),
    Message('note_on', channel=1, note=44, velocity=106, time=0),
    Message('note_on', channel=1, note=49, velocity=106, time=0),
    Message('note_on', channel=1, note=49, velocity=0, time=192),
    Message('note_on', channel=1, note=44, velocity=0, time=0),
    Message('note_on', channel=1, note=37, velocity=0, time=0),
    Message('note_on', channel=1, note=37, velocity=106, time=0),
    Message('note_on', channel=1, note=37, velocity=0, time=192),
    Message('note_on', channel=1, note=37, velocity=106, time=0),
    Message('note_on', channel=1, note=44, velocity=106, time=0),
    Message('note_on', channel=1, note=49, velocity=106, time=0),
    Message('note_on', channel=1, note=53, velocity=106, time=0),
    Message('note_on', channel=1, note=53, velocity=0, time=192),
    Message('note_on', channel=1, note=37, velocity=0, time=0),
    Message('note_on', channel=1, note=44, velocity=0, time=0),
    Message('note_on', channel=1, note=49, velocity=0, time=0),
    Message('note_on', channel=1, note=37, velocity=106, time=0),
    Message('note_on', channel=1, note=44, velocity=106, time=0),
    Message('note_on', channel=1, note=49, velocity=106, time=0),
    Message('note_on', channel=1, note=49, velocity=0, time=192),
    Message('note_on', channel=1, note=44, velocity=0, time=0),
    Message('note_on', channel=1, note=37, velocity=0, time=0),
    Message('note_on', channel=1, note=39, velocity=106, time=0),
    Message('note_on', channel=1, note=46, velocity=106, time=0),
    Message('note_on', channel=1, note=51, velocity=106, time=0),
    Message('note_on', channel=1, note=51, velocity=0, time=192),
    Message('note_on', channel=1, note=46, velocity=0, time=0),
    Message('note_on', channel=1, note=39, velocity=0, time=0),
    Message('note_on', channel=1, note=39, velocity=106, time=0),
    Message('note_on', channel=1, note=39, velocity=0, time=192),
    Message('note_on', channel=1, note=39, velocity=106, time=0),
    Message('note_on', channel=1, note=46, velocity=106, time=0),
    Message('note_on', channel=1, note=51, velocity=106, time=0),
    Message('note_on', channel=1, note=53, velocity=106, time=0),
    Message('note_on', channel=1, note=58, velocity=106, time=0),
    Message('note_on', channel=1, note=58, velocity=0, time=384),
    Message('note_on', channel=1, note=51, velocity=0, time=0),
    Message('note_on', channel=1, note=39, velocity=0, time=0),
    Message('note_on', channel=1, note=46, velocity=0, time=0),
    Message('note_on', channel=1, note=53, velocity=0, time=0),
    Message('note_on', channel=1, note=48, velocity=106, time=0),
    Message('note_on', channel=1, note=48, velocity=0, time=96),
    Message('note_on', channel=1, note=41, velocity=106, time=0),
    Message('note_on', channel=1, note=41, velocity=0, time=96),
    Message('note_on', channel=1, note=41, velocity=106, time=0),
    Message('note_on', channel=1, note=41, velocity=0, time=96),
    Message('note_on', channel=1, note=41, velocity=106, time=0),
    Message('note_on', channel=1, note=41, velocity=0, time=96),
    Message('note_on', channel=1, note=41, velocity=106, time=0),
    Message('note_on', channel=1, note=41, velocity=0, time=384),
    Message('note_on', channel=1, note=48, velocity=106, time=0),
    Message('note_on', channel=1, note=48, velocity=0, time=96),
    Message('note_on', channel=1, note=43, velocity=106, time=0),
    Message('note_on', channel=1, note=43, velocity=0, time=96),
    Message('note_on', channel=1, note=43, velocity=106, time=0),
    Message('note_on', channel=1, note=43, velocity=0, time=96),
    Message('note_on', channel=1, note=43, velocity=106, time=0),
    Message('note_on', channel=1, note=43, velocity=0, time=96),
    Message('note_on', channel=1, note=43, velocity=106, time=0),
    Message('note_on', channel=1, note=43, velocity=0, time=384),
    Message('note_on', channel=1, note=48, velocity=106, time=0),
    Message('note_on', channel=1, note=48, velocity=0, time=96),
    Message('note_on', channel=1, note=44, velocity=106, time=0),
    Message('note_on', channel=1, note=44, velocity=0, time=96),
    Message('note_on', channel=1, note=44, velocity=106, time=0),
    Message('note_on', channel=1, note=44, velocity=0, time=96),
    Message('note_on', channel=1, note=44, velocity=106, time=0),
    Message('note_on', channel=1, note=44, velocity=0, time=96),
    Message('note_on', channel=1, note=44, velocity=106, time=0),
    Message('note_on', channel=1, note=44, velocity=0, time=384),
    Message('note_on', channel=1, note=48, velocity=106, time=0),
    Message('note_on', channel=1, note=48, velocity=0, time=96),
    Message('note_on', channel=1, note=46, velocity=106, time=0),
    Message('note_on', channel=1, note=46, velocity=0, time=96),
    Message('note_on', channel=1, note=46, velocity=106, time=0),
    Message('note_on', channel=1, note=46, velocity=0, time=96),
    Message('note_on', channel=1, note=46, velocity=106, time=0),
    Message('note_on', channel=1, note=46, velocity=0, time=96),
    Message('note_on', channel=1, note=46, velocity=106, time=0),
    Message('note_on', channel=1, note=46, velocity=0, time=288),
    Message('note_on', channel=1, note=46, velocity=106, time=0),
    Message('note_on', channel=1, note=46, velocity=0, time=96),
    Message('note_on', channel=1, note=49, velocity=106, time=0),
    Message('note_on', channel=1, note=55, velocity=120, time=0),
    Message('note_on', channel=1, note=52, velocity=120, time=0),
    Message('note_on', channel=1, note=48, velocity=120, time=0),
    Message('note_on', channel=1, note=49, velocity=0, time=192),
    Message('note_on', channel=1, note=48, velocity=106, time=0),
    Message('note_on', channel=1, note=48, velocity=0, time=192),
    Message('note_on', channel=1, note=48, velocity=0, time=0),
    Message('note_on', channel=1, note=52, velocity=0, time=0),
    Message('note_on', channel=1, note=55, velocity=0, time=0),
    Message('note_on', channel=1, note=49, velocity=106, time=0),
    Message('note_on', channel=1, note=55, velocity=120, time=0),
    Message('note_on', channel=1, note=52, velocity=120, time=0),
    Message('note_on', channel=1, note=48, velocity=120, time=0),
    Message('note_on', channel=1, note=49, velocity=0, time=192),
    Message('note_on', channel=1, note=48, velocity=106, time=0),
    Message('note_on', channel=1, note=48, velocity=0, time=192),
    Message('note_on', channel=1, note=48, velocity=0, time=0),
    Message('note_on', channel=1, note=52, velocity=0, time=0),
    Message('note_on', channel=1, note=55, velocity=0, time=0),
    Message('note_on', channel=1, note=49, velocity=106, time=0),
    Message('note_on', channel=1, note=56, velocity=120, time=0),
    Message('note_on', channel=1, note=53, velocity=120, time=0),
    Message('note_on', channel=1, note=49, velocity=120, time=0),
    Message('note_on', channel=1, note=49, velocity=0, time=192),
    Message('note_on', channel=1, note=48, velocity=106, time=0),
    Message('note_on', channel=1, note=48, velocity=0, time=192),
    Message('note_on', channel=1, note=49, velocity=0, time=0),
    Message('note_on', channel=1, note=53, velocity=0, time=0),
    Message('note_on', channel=1, note=56, velocity=0, time=0),
    Message('note_on', channel=1, note=49, velocity=106, time=0),
    Message('note_on', channel=1, note=56, velocity=120, time=0),
    Message('note_on', channel=1, note=53, velocity=120, time=0),
    Message('note_on', channel=1, note=49, velocity=120, time=0),
    Message('note_on', channel=1, note=49, velocity=0, time=192),
    Message('note_on', channel=1, note=48, velocity=106, time=0),
    Message('note_on', channel=1, note=48, velocity=0, time=192),
    Message('note_on', channel=1, note=49, velocity=0, time=0),
    Message('note_on', channel=1, note=53, velocity=0, time=0),
    Message('note_on', channel=1, note=56, velocity=0, time=0),
    Message('note_on', channel=1, note=49, velocity=106, time=0),
    Message('note_on', channel=1, note=57, velocity=120, time=0),
    Message('note_on', channel=1, note=54, velocity=120, time=0),
    Message('note_on', channel=1, note=50, velocity=120, time=0),
    Message('note_on', channel=1, note=49, velocity=0, time=192),
    Message('note_on', channel=1, note=48, velocity=106, time=0),
    Message('note_on', channel=1, note=48, velocity=0, time=192),
    Message('note_on', channel=1, note=50, velocity=0, time=0),
    Message('note_on', channel=1, note=54, velocity=0, time=0),
    Message('note_on', channel=1, note=57, velocity=0, time=0),
    Message('note_on', channel=1, note=49, velocity=106, time=0),
    Message('note_on', channel=1, note=57, velocity=120, time=0),
    Message('note_on', channel=1, note=54, velocity=120, time=0),
    Message('note_on', channel=1, note=50, velocity=120, time=0),
    Message('note_on', channel=1, note=49, velocity=0, time=192),
    Message('note_on', channel=1, note=48, velocity=106, time=0),
    Message('note_on', channel=1, note=48, velocity=0, time=192),
    Message('note_on', channel=1, note=50, velocity=0, time=0),
    Message('note_on', channel=1, note=54, velocity=0, time=0),
    Message('note_on', channel=1, note=57, velocity=0, time=0),
    Message('note_on', channel=1, note=49, velocity=106, time=0),
    Message('note_on', channel=1, note=58, velocity=120, time=0),
    Message('note_on', channel=1, note=55, velocity=120, time=0),
    Message('note_on', channel=1, note=52, velocity=120, time=0),
    Message('note_on', channel=1, note=49, velocity=0, time=192),
    Message('note_on', channel=1, note=48, velocity=106, time=0),
    Message('note_on', channel=1, note=48, velocity=0, time=192),
    Message('note_on', channel=1, note=52, velocity=0, time=0),
    Message('note_on', channel=1, note=55, velocity=0, time=0),
    Message('note_on', channel=1, note=58, velocity=0, time=0),
    Message('note_on', channel=1, note=49, velocity=106, time=0),
    Message('note_on', channel=1, note=58, velocity=120, time=0),
    Message('note_on', channel=1, note=55, velocity=120, time=0),
    Message('note_on', channel=1, note=52, velocity=120, time=0),
    Message('note_on', channel=1, note=52, velocity=0, time=96),
    Message('note_on', channel=1, note=55, velocity=0, time=0),
    Message('note_on', channel=1, note=58, velocity=0, time=0),
    Message('note_on', channel=1, note=58, velocity=120, time=0),
    Message('note_on', channel=1, note=55, velocity=120, time=0),
    Message('note_on', channel=1, note=52, velocity=120, time=0),
    Message('note_on', channel=1, note=52, velocity=0, time=96),
    Message('note_on', channel=1, note=49, velocity=0, time=0),
    Message('note_on', channel=1, note=58, velocity=0, time=0),
    Message('note_on', channel=1, note=55, velocity=0, time=0),
    Message('note_on', channel=1, note=48, velocity=106, time=0),
    Message('note_on', channel=1, note=58, velocity=120, time=0),
    Message('note_on', channel=1, note=55, velocity=120, time=0),
    Message('note_on', channel=1, note=52, velocity=120, time=0),
    Message('note_on', channel=1, note=52, velocity=0, time=192),
    Message('note_on', channel=1, note=48, velocity=0, time=0),
    Message('note_on', channel=1, note=58, velocity=0, time=0),
    Message('note_on', channel=1, note=55, velocity=0, time=0),
    Message('note_on', channel=1, note=46, velocity=106, time=0),
    Message('note_on', channel=1, note=53, velocity=106, time=0),
    Message('note_on', channel=1, note=53, velocity=0, time=576),
    Message('note_on', channel=1, note=46, velocity=0, time=0),
    Message('note_on', channel=1, note=46, velocity=106, time=0),
    Message('note_on', channel=1, note=53, velocity=106, time=0),
    Message('note_on', channel=1, note=53, velocity=0, time=192),
    Message('note_on', channel=1, note=46, velocity=0, time=0),
    Message('note_on', channel=1, note=48, velocity=106, time=0),
    Message('note_on', channel=1, note=55, velocity=106, time=0),
    Message('note_on', channel=1, note=55, velocity=0, time=384),
    Message('note_on', channel=1, note=48, velocity=0, time=0),
    Message('note_on', channel=1, note=48, velocity=106, time=0),
    Message('note_on', channel=1, note=55, velocity=106, time=0),
    Message('note_on', channel=1, note=55, velocity=0, time=192),
    Message('note_on', channel=1, note=48, velocity=0, time=0),
    Message('note_on', channel=1, note=48, velocity=106, time=0),
    Message('note_on', channel=1, note=55, velocity=106, time=0),
    Message('note_on', channel=1, note=55, velocity=0, time=192),
    Message('note_on', channel=1, note=48, velocity=0, time=0),
    Message('note_on', channel=1, note=49, velocity=106, time=0),
    Message('note_on', channel=1, note=56, velocity=106, time=0),
    Message('note_on', channel=1, note=61, velocity=106, time=0),
    Message('note_on', channel=1, note=61, velocity=0, time=576),
    Message('note_on', channel=1, note=56, velocity=0, time=0),
    Message('note_on', channel=1, note=49, velocity=0, time=0),
    Message('note_on', channel=1, note=49, velocity=106, time=0),
    Message('note_on', channel=1, note=56, velocity=106, time=0),
    Message('note_on', channel=1, note=61, velocity=106, time=0),
    Message('note_on', channel=1, note=61, velocity=0, time=192),
    Message('note_on', channel=1, note=56, velocity=0, time=0),
    Message('note_on', channel=1, note=49, velocity=0, time=0),
    Message('note_on', channel=1, note=51, velocity=106, time=0),
    Message('note_on', channel=1, note=58, velocity=106, time=0),
    Message('note_on', channel=1, note=63, velocity=106, time=0),
    Message('note_on', channel=1, note=63, velocity=0, time=768),
    Message('note_on', channel=1, note=58, velocity=0, time=0),
    Message('note_on', channel=1, note=51, velocity=0, time=0),
    Message('note_on', channel=1, note=41, velocity=106, time=0),
    Message('note_on', channel=1, note=48, velocity=106, time=0),
    Message('note_on', channel=1, note=53, velocity=106, time=0),
    Message('note_on', channel=1, note=53, velocity=0, time=384),
    Message('note_on', channel=1, note=48, velocity=0, time=0),
    Message('note_on', channel=1, note=41, velocity=0, time=0),
    Message('note_on', channel=1, note=41, velocity=106, time=0),
    Message('note_on', channel=1, note=48, velocity=106, time=0),
    Message('note_on', channel=1, note=53, velocity=106, time=0),
    Message('note_on', channel=1, note=53, velocity=0, time=384),
    Message('note_on', channel=1, note=48, velocity=0, time=0),
    Message('note_on', channel=1, note=41, velocity=0, time=0),
    Message('note_on', channel=1, note=41, velocity=106, time=0),
    Message('note_on', channel=1, note=48, velocity=106, time=0),
    Message('note_on', channel=1, note=53, velocity=106, time=0),
    Message('note_on', channel=1, note=53, velocity=0, time=384),
    Message('note_on', channel=1, note=48, velocity=0, time=0),
    Message('note_on', channel=1, note=41, velocity=0, time=0),
    Message('note_on', channel=1, note=41, velocity=106, time=0),
    Message('note_on', channel=1, note=48, velocity=106, time=0),
    Message('note_on', channel=1, note=53, velocity=106, time=0),
    Message('note_on', channel=1, note=53, velocity=0, time=384),
    Message('note_on', channel=1, note=48, velocity=0, time=0),
    Message('note_on', channel=1, note=41, velocity=0, time=0),
    Message('note_on', channel=1, note=41, velocity=106, time=0),
    Message('note_on', channel=1, note=48, velocity=106, time=0),
    Message('note_on', channel=1, note=53, velocity=106, time=0),
    Message('note_on', channel=1, note=53, velocity=0, time=384),
    Message('note_on', channel=1, note=48, velocity=0, time=0),
    Message('note_on', channel=1, note=41, velocity=0, time=0),
    Message('note_on', channel=1, note=41, velocity=106, time=0),
    Message('note_on', channel=1, note=48, velocity=106, time=0),
    Message('note_on', channel=1, note=53, velocity=106, time=0),
    Message('note_on', channel=1, note=53, velocity=0, time=384),
    Message('note_on', channel=1, note=48, velocity=0, time=0),
    Message('note_on', channel=1, note=41, velocity=0, time=0),
    Message('note_on', channel=1, note=41, velocity=106, time=0),
    Message('note_on', channel=1, note=48, velocity=106, time=0),
    Message('note_on', channel=1, note=53, velocity=106, time=0),
    Message('note_on', channel=1, note=53, velocity=0, time=384),
    Message('note_on', channel=1, note=48, velocity=0, time=0),
    Message('note_on', channel=1, note=41, velocity=0, time=0),
    Message('note_on', channel=1, note=41, velocity=106, time=0),
    Message('note_on', channel=1, note=48, velocity=106, time=0),
    Message('note_on', channel=1, note=53, velocity=106, time=0),
    Message('note_on', channel=1, note=53, velocity=0, time=384),
    Message('note_on', channel=1, note=48, velocity=0, time=0),
    Message('note_on', channel=1, note=41, velocity=0, time=0),
    Message('note_on', channel=1, note=46, velocity=106, time=0),
    Message('note_on', channel=1, note=53, velocity=106, time=0),
    Message('note_on', channel=1, note=53, velocity=0, time=576),
    Message('note_on', channel=1, note=46, velocity=0, time=0),
    Message('note_on', channel=1, note=46, velocity=106, time=0),
    Message('note_on', channel=1, note=53, velocity=106, time=0),
    Message('note_on', channel=1, note=53, velocity=0, time=192),
    Message('note_on', channel=1, note=46, velocity=0, time=0),
    Message('note_on', channel=1, note=48, velocity=106, time=0),
    Message('note_on', channel=1, note=55, velocity=106, time=0),
    Message('note_on', channel=1, note=55, velocity=0, time=384),
    Message('note_on', channel=1, note=48, velocity=0, time=0),
    Message('note_on', channel=1, note=48, velocity=106, time=0),
    Message('note_on', channel=1, note=55, velocity=106, time=0),
    Message('note_on', channel=1, note=55, velocity=0, time=192),
    Message('note_on', channel=1, note=48, velocity=0, time=0),
    Message('note_on', channel=1, note=48, velocity=106, time=0),
    Message('note_on', channel=1, note=55, velocity=106, time=0),
    Message('note_on', channel=1, note=55, velocity=0, time=192),
    Message('note_on', channel=1, note=48, velocity=0, time=0),
    Message('note_on', channel=1, note=49, velocity=106, time=0),
    Message('note_on', channel=1, note=56, velocity=106, time=0),
    Message('note_on', channel=1, note=61, velocity=106, time=0),
    Message('note_on', channel=1, note=61, velocity=0, time=576),
    Message('note_on', channel=1, note=56, velocity=0, time=0),
    Message('note_on', channel=1, note=49, velocity=0, time=0),
    Message('note_on', channel=1, note=49, velocity=106, time=0),
    Message('note_on', channel=1, note=56, velocity=106, time=0),
    Message('note_on', channel=1, note=61, velocity=106, time=0),
    Message('note_on', channel=1, note=61, velocity=0, time=192),
    Message('note_on', channel=1, note=56, velocity=0, time=0),
    Message('note_on', channel=1, note=49, velocity=0, time=0),
    Message('note_on', channel=1, note=51, velocity=106, time=0),
    Message('note_on', channel=1, note=58, velocity=106, time=0),
    Message('note_on', channel=1, note=63, velocity=106, time=0),
    Message('note_on', channel=1, note=63, velocity=0, time=768),
    Message('note_on', channel=1, note=58, velocity=0, time=0),
    Message('note_on', channel=1, note=51, velocity=0, time=0),
    Message('note_on', channel=1, note=41, velocity=106, time=0),
    Message('note_on', channel=1, note=48, velocity=106, time=0),
    Message('note_on', channel=1, note=53, velocity=106, time=0),
    Message('note_on', channel=1, note=53, velocity=0, time=384),
    Message('note_on', channel=1, note=48, velocity=0, time=0),
    Message('note_on', channel=1, note=41, velocity=0, time=0),
    Message('note_on', channel=1, note=41, velocity=106, time=0),
    Message('note_on', channel=1, note=48, velocity=106, time=0),
    Message('note_on', channel=1, note=53, velocity=106, time=0),
    Message('note_on', channel=1, note=53, velocity=0, time=384),
    Message('note_on', channel=1, note=48, velocity=0, time=0),
    Message('note_on', channel=1, note=41, velocity=0, time=0),
    Message('note_on', channel=1, note=41, velocity=106, time=0),
    Message('note_on', channel=1, note=48, velocity=106, time=0),
    Message('note_on', channel=1, note=53, velocity=106, time=0),
    Message('note_on', channel=1, note=53, velocity=0, time=384),
    Message('note_on', channel=1, note=48, velocity=0, time=0),
    Message('note_on', channel=1, note=41, velocity=0, time=0),
    Message('note_on', channel=1, note=41, velocity=106, time=0),
    Message('note_on', channel=1, note=48, velocity=106, time=0),
    Message('note_on', channel=1, note=53, velocity=106, time=0),
    Message('note_on', channel=1, note=53, velocity=0, time=384),
    Message('note_on', channel=1, note=48, velocity=0, time=0),
    Message('note_on', channel=1, note=41, velocity=0, time=0),
    Message('note_on', channel=1, note=41, velocity=106, time=0),
    Message('note_on', channel=1, note=48, velocity=106, time=0),
    Message('note_on', channel=1, note=53, velocity=106, time=0),
    Message('note_on', channel=1, note=53, velocity=0, time=384),
    Message('note_on', channel=1, note=48, velocity=0, time=0),
    Message('note_on', channel=1, note=41, velocity=0, time=0),
    Message('note_on', channel=1, note=41, velocity=106, time=0),
    Message('note_on', channel=1, note=48, velocity=106, time=0),
    Message('note_on', channel=1, note=53, velocity=106, time=0),
    Message('note_on', channel=1, note=53, velocity=0, time=384),
    Message('note_on', channel=1, note=48, velocity=0, time=0),
    Message('note_on', channel=1, note=41, velocity=0, time=0),
    Message('note_on', channel=1, note=41, velocity=106, time=0),
    Message('note_on', channel=1, note=48, velocity=106, time=0),
    Message('note_on', channel=1, note=53, velocity=106, time=0),
    Message('note_on', channel=1, note=53, velocity=0, time=384),
    Message('note_on', channel=1, note=48, velocity=0, time=0),
    Message('note_on', channel=1, note=41, velocity=0, time=0),
    Message('note_on', channel=1, note=41, velocity=106, time=0),
    Message('note_on', channel=1, note=48, velocity=106, time=0),
    Message('note_on', channel=1, note=53, velocity=106, time=0),
    Message('note_on', channel=1, note=53, velocity=0, time=384),
    Message('note_on', channel=1, note=48, velocity=0, time=0),
    Message('note_on', channel=1, note=41, velocity=0, time=0),
    Message('note_on', channel=1, note=46, velocity=106, time=0),
    Message('note_on', channel=1, note=53, velocity=106, time=0),
    Message('note_on', channel=1, note=53, velocity=0, time=576),
    Message('note_on', channel=1, note=46, velocity=0, time=0),
    Message('note_on', channel=1, note=46, velocity=106, time=0),
    Message('note_on', channel=1, note=53, velocity=106, time=0),
    Message('note_on', channel=1, note=53, velocity=0, time=192),
    Message('note_on', channel=1, note=46, velocity=0, time=0),
    Message('note_on', channel=1, note=48, velocity=106, time=0),
    Message('note_on', channel=1, note=55, velocity=106, time=0),
    Message('note_on', channel=1, note=55, velocity=0, time=384),
    Message('note_on', channel=1, note=48, velocity=0, time=0),
    Message('note_on', channel=1, note=48, velocity=106, time=0),
    Message('note_on', channel=1, note=55, velocity=106, time=0),
    Message('note_on', channel=1, note=55, velocity=0, time=192),
    Message('note_on', channel=1, note=48, velocity=0, time=0),
    Message('note_on', channel=1, note=48, velocity=106, time=0),
    Message('note_on', channel=1, note=55, velocity=106, time=0),
    Message('note_on', channel=1, note=55, velocity=0, time=192),
    Message('note_on', channel=1, note=48, velocity=0, time=0),
    Message('note_on', channel=1, note=49, velocity=106, time=0),
    Message('note_on', channel=1, note=56, velocity=106, time=0),
    Message('note_on', channel=1, note=61, velocity=106, time=0),
    Message('note_on', channel=1, note=61, velocity=0, time=576),
    Message('note_on', channel=1, note=56, velocity=0, time=0),
    Message('note_on', channel=1, note=49, velocity=0, time=0),
    Message('note_on', channel=1, note=49, velocity=106, time=0),
    Message('note_on', channel=1, note=56, velocity=106, time=0),
    Message('note_on', channel=1, note=61, velocity=106, time=0),
    Message('note_on', channel=1, note=61, velocity=0, time=192),
    Message('note_on', channel=1, note=56, velocity=0, time=0),
    Message('note_on', channel=1, note=49, velocity=0, time=0),
    Message('note_on', channel=1, note=51, velocity=106, time=0),
    Message('note_on', channel=1, note=58, velocity=106, time=0),
    Message('note_on', channel=1, note=63, velocity=106, time=0),
    Message('note_on', channel=1, note=63, velocity=0, time=768),
    Message('note_on', channel=1, note=58, velocity=0, time=0),
    Message('note_on', channel=1, note=51, velocity=0, time=0),
    Message('note_on', channel=1, note=41, velocity=106, time=0),
    Message('note_on', channel=1, note=48, velocity=106, time=0),
    Message('note_on', channel=1, note=48, velocity=0, time=576),
    Message('note_on', channel=1, note=41, velocity=0, time=0),
    Message('note_on', channel=1, note=41, velocity=106, time=0),
    Message('note_on', channel=1, note=48, velocity=106, time=0),
    Message('note_on', channel=1, note=48, velocity=0, time=192),
    Message('note_on', channel=1, note=41, velocity=0, time=0),
    Message('note_on', channel=1, note=43, velocity=106, time=0),
    Message('note_on', channel=1, note=49, velocity=106, time=0),
    Message('note_on', channel=1, note=49, velocity=0, time=576),
    Message('note_on', channel=1, note=43, velocity=0, time=0),
    Message('note_on', channel=1, note=43, velocity=106, time=0),
    Message('note_on', channel=1, note=49, velocity=106, time=0),
    Message('note_on', channel=1, note=49, velocity=0, time=192),
    Message('note_on', channel=1, note=43, velocity=0, time=0),
    Message('note_on', channel=1, note=44, velocity=106, time=0),
    Message('note_on', channel=1, note=51, velocity=106, time=0),
    Message('note_on', channel=1, note=51, velocity=0, time=576),
    Message('note_on', channel=1, note=44, velocity=0, time=0),
    Message('note_on', channel=1, note=44, velocity=106, time=0),
    Message('note_on', channel=1, note=51, velocity=106, time=0),
    Message('note_on', channel=1, note=51, velocity=0, time=192),
    Message('note_on', channel=1, note=44, velocity=0, time=0),
    Message('note_on', channel=1, note=46, velocity=106, time=0),
    Message('note_on', channel=1, note=53, velocity=106, time=0),
    Message('note_on', channel=1, note=53, velocity=0, time=768),
    Message('note_on', channel=1, note=46, velocity=0, time=0),
    Message('note_on', channel=1, note=55, velocity=120, time=0),
    Message('note_on', channel=1, note=52, velocity=120, time=0),
    Message('note_on', channel=1, note=48, velocity=120, time=0),
    Message('note_on', channel=1, note=48, velocity=0, time=384),
    Message('note_on', channel=1, note=52, velocity=0, time=0),
    Message('note_on', channel=1, note=55, velocity=0, time=0),
    Message('note_on', channel=1, note=55, velocity=120, time=0),
    Message('note_on', channel=1, note=52, velocity=120, time=0),
    Message('note_on', channel=1, note=48, velocity=120, time=0),
    Message('note_on', channel=1, note=48, velocity=0, time=384),
    Message('note_on', channel=1, note=52, velocity=0, time=0),
    Message('note_on', channel=1, note=55, velocity=0, time=0),
    Message('note_on', channel=1, note=56, velocity=120, time=0),
    Message('note_on', channel=1, note=53, velocity=120, time=0),
    Message('note_on', channel=1, note=49, velocity=120, time=0),
    Message('note_on', channel=1, note=49, velocity=0, time=384),
    Message('note_on', channel=1, note=53, velocity=0, time=0),
    Message('note_on', channel=1, note=56, velocity=0, time=0),
    Message('note_on', channel=1, note=56, velocity=120, time=0),
    Message('note_on', channel=1, note=53, velocity=120, time=0),
    Message('note_on', channel=1, note=49, velocity=120, time=0),
    Message('note_on', channel=1, note=49, velocity=0, time=384),
    Message('note_on', channel=1, note=53, velocity=0, time=0),
    Message('note_on', channel=1, note=56, velocity=0, time=0),
    Message('note_on', channel=1, note=57, velocity=120, time=0),
    Message('note_on', channel=1, note=54, velocity=120, time=0),
    Message('note_on', channel=1, note=50, velocity=120, time=0),
    Message('note_on', channel=1, note=50, velocity=0, time=384),
    Message('note_on', channel=1, note=54, velocity=0, time=0),
    Message('note_on', channel=1, note=57, velocity=0, time=0),
    Message('note_on', channel=1, note=57, velocity=120, time=0),
    Message('note_on', channel=1, note=54, velocity=120, time=0),
    Message('note_on', channel=1, note=50, velocity=120, time=0),
    Message('note_on', channel=1, note=50, velocity=0, time=384),
    Message('note_on', channel=1, note=54, velocity=0, time=0),
    Message('note_on', channel=1, note=57, velocity=0, time=0),
    Message('note_on', channel=1, note=58, velocity=120, time=0),
    Message('note_on', channel=1, note=55, velocity=120, time=0),
    Message('note_on', channel=1, note=52, velocity=120, time=0),
    Message('note_on', channel=1, note=52, velocity=0, time=384),
    Message('note_on', channel=1, note=55, velocity=0, time=0),
    Message('note_on', channel=1, note=58, velocity=0, time=0),
    Message('note_on', channel=1, note=58, velocity=120, time=0),
    Message('note_on', channel=1, note=55, velocity=120, time=0),
    Message('note_on', channel=1, note=52, velocity=120, time=0),
    Message('note_on', channel=1, note=52, velocity=0, time=96),
    Message('note_on', channel=1, note=55, velocity=0, time=0),
    Message('note_on', channel=1, note=58, velocity=0, time=0),
    Message('note_on', channel=1, note=58, velocity=120, time=0),
    Message('note_on', channel=1, note=55, velocity=120, time=0),
    Message('note_on', channel=1, note=52, velocity=120, time=0),
    Message('note_on', channel=1, note=52, velocity=0, time=96),
    Message('note_on', channel=1, note=55, velocity=0, time=0),
    Message('note_on', channel=1, note=58, velocity=0, time=0),
    Message('note_on', channel=1, note=58, velocity=120, time=0),
    Message('note_on', channel=1, note=55, velocity=120, time=0),
    Message('note_on', channel=1, note=52, velocity=120, time=0),
    Message('note_on', channel=1, note=52, velocity=0, time=192),
    Message('note_on', channel=1, note=55, velocity=0, time=0),
    Message('note_on', channel=1, note=58, velocity=0, time=0),
    Message('note_on', channel=1, note=41, velocity=106, time=0),
    Message('note_on', channel=1, note=48, velocity=106, time=0),
    Message('note_on', channel=1, note=53, velocity=106, time=0),
    Message('note_on', channel=1, note=56, velocity=106, time=0),
    Message('note_on', channel=1, note=56, velocity=0, time=384),
    Message('note_on', channel=1, note=41, velocity=0, time=0),
    Message('note_on', channel=1, note=48, velocity=0, time=0),
    Message('note_on', channel=1, note=53, velocity=0, time=0),
    Message('note_on', channel=1, note=41, velocity=106, time=0),
    Message('note_on', channel=1, note=48, velocity=106, time=0),
    Message('note_on', channel=1, note=53, velocity=106, time=0),
    Message('note_on', channel=1, note=56, velocity=106, time=0),
    Message('note_on', channel=1, note=56, velocity=0, time=384),
    Message('note_on', channel=1, note=41, velocity=0, time=0),
    Message('note_on', channel=1, note=48, velocity=0, time=0),
    Message('note_on', channel=1, note=53, velocity=0, time=0),
    Message('note_on', channel=1, note=39, velocity=106, time=0),
    Message('note_on', channel=1, note=46, velocity=106, time=0),
    Message('note_on', channel=1, note=51, velocity=106, time=0),
    Message('note_on', channel=1, note=51, velocity=0, time=384),
    Message('note_on', channel=1, note=46, velocity=0, time=0),
    Message('note_on', channel=1, note=39, velocity=0, time=0),
    Message('note_on', channel=1, note=39, velocity=106, time=0),
    Message('note_on', channel=1, note=46, velocity=106, time=0),
    Message('note_on', channel=1, note=51, velocity=106, time=0),
    Message('note_on', channel=1, note=55, velocity=106, time=0),
    Message('note_on', channel=1, note=55, velocity=0, time=384),
    Message('note_on', channel=1, note=39, velocity=0, time=0),
    Message('note_on', channel=1, note=46, velocity=0, time=0),
    Message('note_on', channel=1, note=51, velocity=0, time=0),
    Message('note_on', channel=1, note=37, velocity=106, time=0),
    Message('note_on', channel=1, note=44, velocity=106, time=0),
    Message('note_on', channel=1, note=49, velocity=106, time=0),
    Message('note_on', channel=1, note=53, velocity=106, time=0),
    Message('note_on', channel=1, note=53, velocity=0, time=384),
    Message('note_on', channel=1, note=37, velocity=0, time=0),
    Message('note_on', channel=1, note=44, velocity=0, time=0),
    Message('note_on', channel=1, note=49, velocity=0, time=0),
    Message('note_on', channel=1, note=37, velocity=106, time=0),
    Message('note_on', channel=1, note=44, velocity=106, time=0),
    Message('note_on', channel=1, note=49, velocity=106, time=0),
    Message('note_on', channel=1, note=53, velocity=106, time=0),
    Message('note_on', channel=1, note=53, velocity=0, time=384),
    Message('note_on', channel=1, note=37, velocity=0, time=0),
    Message('note_on', channel=1, note=44, velocity=0, time=0),
    Message('note_on', channel=1, note=49, velocity=0, time=0),
    Message('note_on', channel=1, note=39, velocity=106, time=0),
    Message('note_on', channel=1, note=39, velocity=0, time=192),
    Message('note_on', channel=1, note=39, velocity=106, time=0),
    Message('note_on', channel=1, note=39, velocity=0, time=192),
    Message('note_on', channel=1, note=39, velocity=106, time=0),
    Message('note_on', channel=1, note=46, velocity=106, time=0),
    Message('note_on', channel=1, note=51, velocity=106, time=0),
    Message('note_on', channel=1, note=53, velocity=106, time=0),
    Message('note_on', channel=1, note=58, velocity=106, time=0),
    Message('note_on', channel=1, note=58, velocity=0, time=384),
    Message('note_on', channel=1, note=51, velocity=0, time=0),
    Message('note_on', channel=1, note=39, velocity=0, time=0),
    Message('note_on', channel=1, note=46, velocity=0, time=0),
    Message('note_on', channel=1, note=53, velocity=0, time=0),
    Message('note_on', channel=1, note=41, velocity=106, time=0),
    Message('note_on', channel=1, note=48, velocity=106, time=0),
    Message('note_on', channel=1, note=53, velocity=106, time=0),
    Message('note_on', channel=1, note=53, velocity=0, time=192),
    Message('note_on', channel=1, note=48, velocity=0, time=0),
    Message('note_on', channel=1, note=41, velocity=0, time=0),
    Message('note_on', channel=1, note=41, velocity=106, time=0),
    Message('note_on', channel=1, note=41, velocity=0, time=192),
    Message('note_on', channel=1, note=41, velocity=106, time=0),
    Message('note_on', channel=1, note=48, velocity=106, time=0),
    Message('note_on', channel=1, note=53, velocity=106, time=0),
    Message('note_on', channel=1, note=56, velocity=106, time=0),
    Message('note_on', channel=1, note=56, velocity=0, time=384),
    Message('note_on', channel=1, note=41, velocity=0, time=0),
    Message('note_on', channel=1, note=48, velocity=0, time=0),
    Message('note_on', channel=1, note=53, velocity=0, time=0),
    Message('note_on', channel=1, note=39, velocity=106, time=0),
    Message('note_on', channel=1, note=46, velocity=106, time=0),
    Message('note_on', channel=1, note=51, velocity=106, time=0),
    Message('note_on', channel=1, note=51, velocity=0, time=192),
    Message('note_on', channel=1, note=46, velocity=0, time=0),
    Message('note_on', channel=1, note=39, velocity=0, time=0),
    Message('note_on', channel=1, note=39, velocity=106, time=0),
    Message('note_on', channel=1, note=39, velocity=0, time=192),
    Message('note_on', channel=1, note=39, velocity=106, time=0),
    Message('note_on', channel=1, note=46, velocity=106, time=0),
    Message('note_on', channel=1, note=51, velocity=106, time=0),
    Message('note_on', channel=1, note=53, velocity=106, time=0),
    Message('note_on', channel=1, note=58, velocity=106, time=0),
    Message('note_on', channel=1, note=58, velocity=0, time=192),
    Message('note_on', channel=1, note=51, velocity=0, time=0),
    Message('note_on', channel=1, note=39, velocity=0, time=0),
    Message('note_on', channel=1, note=46, velocity=0, time=0),
    Message('note_on', channel=1, note=53, velocity=0, time=0),
    Message('note_on', channel=1, note=39, velocity=106, time=0),
    Message('note_on', channel=1, note=46, velocity=106, time=0),
    Message('note_on', channel=1, note=51, velocity=106, time=0),
    Message('note_on', channel=1, note=51, velocity=0, time=192),
    Message('note_on', channel=1, note=46, velocity=0, time=0),
    Message('note_on', channel=1, note=39, velocity=0, time=0),
    Message('note_on', channel=1, note=37, velocity=106, time=0),
    Message('note_on', channel=1, note=44, velocity=106, time=0),
    Message('note_on', channel=1, note=49, velocity=106, time=0),
    Message('note_on', channel=1, note=53, velocity=106, time=0),
    Message('note_on', channel=1, note=53, velocity=0, time=576),
    Message('note_on', channel=1, note=37, velocity=0, time=0),
    Message('note_on', channel=1, note=44, velocity=0, time=0),
    Message('note_on', channel=1, note=49, velocity=0, time=0),
    Message('note_on', channel=1, note=37, velocity=106, time=0),
    Message('note_on', channel=1, note=44, velocity=106, time=0),
    Message('note_on', channel=1, note=49, velocity=106, time=0),
    Message('note_on', channel=1, note=53, velocity=106, time=0),
    Message('note_on', channel=1, note=53, velocity=0, time=192),
    Message('note_on', channel=1, note=37, velocity=0, time=0),
    Message('note_on', channel=1, note=44, velocity=0, time=0),
    Message('note_on', channel=1, note=49, velocity=0, time=0),
    Message('note_on', channel=1, note=39, velocity=106, time=0),
    Message('note_on', channel=1, note=46, velocity=106, time=0),
    Message('note_on', channel=1, note=51, velocity=106, time=0),
    Message('note_on', channel=1, note=53, velocity=106, time=0),
    Message('note_on', channel=1, note=58, velocity=106, time=0),
    Message('note_on', channel=1, note=58, velocity=0, time=192),
    Message('note_on', channel=1, note=51, velocity=0, time=0),
    Message('note_on', channel=1, note=39, velocity=0, time=0),
    Message('note_on', channel=1, note=46, velocity=0, time=0),
    Message('note_on', channel=1, note=53, velocity=0, time=0),
    Message('note_on', channel=1, note=39, velocity=106, time=0),
    Message('note_on', channel=1, note=39, velocity=0, time=192),
    Message('note_on', channel=1, note=39, velocity=106, time=0),
    Message('note_on', channel=1, note=46, velocity=106, time=0),
    Message('note_on', channel=1, note=53, velocity=106, time=0),
    Message('note_on', channel=1, note=58, velocity=106, time=0),
    Message('note_on', channel=1, note=58, velocity=0, time=384),
    Message('note_on', channel=1, note=39, velocity=0, time=0),
    Message('note_on', channel=1, note=46, velocity=0, time=0),
    Message('note_on', channel=1, note=53, velocity=0, time=0),
    Message('note_on', channel=1, note=41, velocity=106, time=0),
    Message('note_on', channel=1, note=48, velocity=106, time=0),
    Message('note_on', channel=1, note=48, velocity=0, time=192),
    Message('note_on', channel=1, note=41, velocity=0, time=0),
    Message('note_on', channel=1, note=41, velocity=106, time=0),
    Message('note_on', channel=1, note=41, velocity=0, time=192),
    Message('note_on', channel=1, note=41, velocity=106, time=0),
    Message('note_on', channel=1, note=48, velocity=106, time=0),
    Message('note_on', channel=1, note=53, velocity=106, time=0),
    Message('note_on', channel=1, note=56, velocity=106, time=0),
    Message('note_on', channel=1, note=56, velocity=0, time=384),
    Message('note_on', channel=1, note=41, velocity=0, time=0),
    Message('note_on', channel=1, note=48, velocity=0, time=0),
    Message('note_on', channel=1, note=53, velocity=0, time=0),
    Message('note_on', channel=1, note=39, velocity=106, time=0),
    Message('note_on', channel=1, note=46, velocity=106, time=0),
    Message('note_on', channel=1, note=46, velocity=0, time=192),
    Message('note_on', channel=1, note=39, velocity=0, time=0),
    Message('note_on', channel=1, note=39, velocity=106, time=0),
    Message('note_on', channel=1, note=39, velocity=0, time=192),
    Message('note_on', channel=1, note=39, velocity=106, time=0),
    Message('note_on', channel=1, note=46, velocity=106, time=0),
    Message('note_on', channel=1, note=51, velocity=106, time=0),
    Message('note_on', channel=1, note=53, velocity=106, time=0),
    Message('note_on', channel=1, note=58, velocity=106, time=0),
    Message('note_on', channel=1, note=58, velocity=0, time=192),
    Message('note_on', channel=1, note=51, velocity=0, time=0),
    Message('note_on', channel=1, note=39, velocity=0, time=0),
    Message('note_on', channel=1, note=46, velocity=0, time=0),
    Message('note_on', channel=1, note=53, velocity=0, time=0),
    Message('note_on', channel=1, note=39, velocity=106, time=0),
    Message('note_on', channel=1, note=46, velocity=106, time=0),
    Message('note_on', channel=1, note=51, velocity=106, time=0),
    Message('note_on', channel=1, note=51, velocity=0, time=192),
    Message('note_on', channel=1, note=46, velocity=0, time=0),
    Message('note_on', channel=1, note=39, velocity=0, time=0),
    Message('note_on', channel=1, note=37, velocity=106, time=0),
    Message('note_on', channel=1, note=44, velocity=106, time=0),
    Message('note_on', channel=1, note=49, velocity=106, time=0),
    Message('note_on', channel=1, note=53, velocity=106, time=0),
    Message('note_on', channel=1, note=53, velocity=0, time=384),
    Message('note_on', channel=1, note=37, velocity=0, time=0),
    Message('note_on', channel=1, note=44, velocity=0, time=0),
    Message('note_on', channel=1, note=49, velocity=0, time=0),
    Message('note_on', channel=1, note=37, velocity=106, time=0),
    Message('note_on', channel=1, note=44, velocity=106, time=0),
    Message('note_on', channel=1, note=49, velocity=106, time=0),
    Message('note_on', channel=1, note=53, velocity=106, time=0),
    Message('note_on', channel=1, note=53, velocity=0, time=192),
    Message('note_on', channel=1, note=37, velocity=0, time=0),
    Message('note_on', channel=1, note=44, velocity=0, time=0),
    Message('note_on', channel=1, note=49, velocity=0, time=0),
    Message('note_on', channel=1, note=37, velocity=106, time=0),
    Message('note_on', channel=1, note=44, velocity=106, time=0),
    Message('note_on', channel=1, note=49, velocity=106, time=0),
    Message('note_on', channel=1, note=53, velocity=106, time=0),
    Message('control_change', channel=1, control=7, value=126, time=176),
    Message('note_on', channel=1, note=53, velocity=0, time=16),
    Message('note_on', channel=1, note=37, velocity=0, time=0),
    Message('note_on', channel=1, note=44, velocity=0, time=0),
    Message('note_on', channel=1, note=49, velocity=0, time=0),
    Message('note_on', channel=1, note=39, velocity=106, time=0),
    Message('note_on', channel=1, note=46, velocity=106, time=0),
    Message('note_on', channel=1, note=51, velocity=106, time=0),
    Message('note_on', channel=1, note=53, velocity=106, time=0),
    Message('note_on', channel=1, note=58, velocity=106, time=0),
    Message('control_change', channel=1, control=7, value=127, time=144),
    Message('note_on', channel=1, note=58, velocity=0, time=48),
    Message('note_on', channel=1, note=51, velocity=0, time=0),
    Message('note_on', channel=1, note=39, velocity=0, time=0),
    Message('note_on', channel=1, note=46, velocity=0, time=0),
    Message('note_on', channel=1, note=53, velocity=0, time=0),
    Message('note_on', channel=1, note=39, velocity=106, time=0),
    Message('note_on', channel=1, note=39, velocity=0, time=192),
    Message('note_on', channel=1, note=39, velocity=106, time=0),
    Message('note_on', channel=1, note=46, velocity=106, time=0),
    Message('note_on', channel=1, note=51, velocity=106, time=0),
    Message('note_on', channel=1, note=53, velocity=106, time=0),
    Message('note_on', channel=1, note=58, velocity=106, time=0),
    Message('note_on', channel=1, note=58, velocity=0, time=192),
    Message('note_on', channel=1, note=51, velocity=0, time=0),
    Message('note_on', channel=1, note=39, velocity=0, time=0),
    Message('note_on', channel=1, note=46, velocity=0, time=0),
    Message('note_on', channel=1, note=53, velocity=0, time=0),
    Message('note_on', channel=1, note=41, velocity=106, time=192),
    Message('note_on', channel=1, note=41, velocity=0, time=576),
    Message('note_on', channel=1, note=41, velocity=106, time=0),
    Message('note_on', channel=1, note=41, velocity=0, time=192),
    Message('note_on', channel=1, note=39, velocity=106, time=0),
    Message('note_on', channel=1, note=39, velocity=0, time=576),
    Message('note_on', channel=1, note=39, velocity=106, time=0),
    Message('note_on', channel=1, note=39, velocity=0, time=192),
    Message('note_on', channel=1, note=38, velocity=106, time=0),
    Message('note_on', channel=1, note=38, velocity=0, time=576),
    Message('note_on', channel=1, note=38, velocity=106, time=0),
    Message('note_on', channel=1, note=38, velocity=0, time=192),
    Message('note_on', channel=1, note=37, velocity=106, time=0),
    Message('note_on', channel=1, note=37, velocity=0, time=576),
    Message('note_on', channel=1, note=37, velocity=106, time=0),
    Message('note_on', channel=1, note=37, velocity=0, time=192),
    Message('note_on', channel=1, note=49, velocity=106, time=0),
    Message('note_on', channel=1, note=36, velocity=106, time=0),
    Message('note_on', channel=1, note=49, velocity=0, time=192),
    Message('note_on', channel=1, note=48, velocity=106, time=0),
    Message('note_on', channel=1, note=48, velocity=0, time=192),
    Message('note_on', channel=1, note=49, velocity=106, time=0),
    Message('note_on', channel=1, note=49, velocity=0, time=192),
    Message('note_on', channel=1, note=48, velocity=106, time=0),
    Message('note_on', channel=1, note=48, velocity=0, time=192),
    Message('note_on', channel=1, note=49, velocity=106, time=0),
    Message('note_on', channel=1, note=49, velocity=0, time=192),
    Message('note_on', channel=1, note=48, velocity=106, time=0),
    Message('note_on', channel=1, note=48, velocity=0, time=192),
    Message('note_on', channel=1, note=49, velocity=106, time=0),
    Message('note_on', channel=1, note=49, velocity=0, time=192),
    Message('note_on', channel=1, note=48, velocity=106, time=0),
    Message('note_on', channel=1, note=48, velocity=0, time=192),
    Message('note_on', channel=1, note=49, velocity=106, time=0),
    Message('note_on', channel=1, note=49, velocity=0, time=192),
    Message('note_on', channel=1, note=48, velocity=106, time=0),
    Message('note_on', channel=1, note=48, velocity=0, time=192),
    Message('note_on', channel=1, note=49, velocity=106, time=0),
    Message('note_on', channel=1, note=49, velocity=0, time=192),
    Message('note_on', channel=1, note=48, velocity=106, time=0),
    Message('note_on', channel=1, note=48, velocity=0, time=192),
    Message('note_on', channel=1, note=49, velocity=106, time=0),
    Message('note_on', channel=1, note=49, velocity=0, time=192),
    Message('note_on', channel=1, note=48, velocity=106, time=0),
    Message('note_on', channel=1, note=48, velocity=0, time=192),
    Message('note_on', channel=1, note=49, velocity=106, time=0),
    Message('note_on', channel=1, note=49, velocity=0, time=192),
    Message('note_on', channel=1, note=48, velocity=106, time=0),
    Message('note_on', channel=1, note=48, velocity=0, time=192),
    Message('note_on', channel=1, note=36, velocity=0, time=1536),
    MetaMessage('end_of_track', time=0)]),
  MidiTrack([
    MetaMessage('midi_port', port=0, time=0),
    MetaMessage('track_name', name='Bass', time=0),
    Message('control_change', channel=2, control=0, value=0, time=0),
    Message('control_change', channel=2, control=32, value=0, time=0),
    Message('program_change', channel=2, program=35, time=0),
    Message('control_change', channel=2, control=7, value=127, time=0),
    Message('note_on', channel=2, note=41, velocity=78, time=6144),
    Message('note_on', channel=2, note=41, velocity=0, time=576),
    Message('note_on', channel=2, note=41, velocity=78, time=0),
    Message('note_on', channel=2, note=41, velocity=0, time=192),
    Message('note_on', channel=2, note=39, velocity=78, time=0),
    Message('note_on', channel=2, note=39, velocity=0, time=576),
    Message('note_on', channel=2, note=39, velocity=78, time=0),
    Message('note_on', channel=2, note=39, velocity=0, time=192),
    Message('note_on', channel=2, note=38, velocity=78, time=0),
    Message('note_on', channel=2, note=38, velocity=0, time=576),
    Message('note_on', channel=2, note=38, velocity=78, time=0),
    Message('note_on', channel=2, note=38, velocity=0, time=192),
    Message('note_on', channel=2, note=37, velocity=78, time=0),
    Message('note_on', channel=2, note=37, velocity=0, time=576),
    Message('note_on', channel=2, note=37, velocity=78, time=0),
    Message('note_on', channel=2, note=37, velocity=0, time=192),
    Message('note_on', channel=2, note=41, velocity=78, time=0),
    Message('note_on', channel=2, note=41, velocity=0, time=576),
    Message('note_on', channel=2, note=41, velocity=78, time=0),
    Message('note_on', channel=2, note=41, velocity=0, time=192),
    Message('note_on', channel=2, note=41, velocity=78, time=0),
    Message('note_on', channel=2, note=41, velocity=0, time=576),
    Message('note_on', channel=2, note=41, velocity=78, time=0),
    Message('note_on', channel=2, note=41, velocity=0, time=96),
    Message('note_on', channel=2, note=41, velocity=78, time=0),
    Message('note_on', channel=2, note=41, velocity=0, time=96),
    Message('note_on', channel=2, note=41, velocity=78, time=0),
    Message('note_on', channel=2, note=41, velocity=0, time=576),
    Message('note_on', channel=2, note=41, velocity=78, time=0),
    Message('note_on', channel=2, note=41, velocity=0, time=192),
    Message('note_on', channel=2, note=41, velocity=78, time=0),
    Message('note_on', channel=2, note=41, velocity=0, time=192),
    Message('note_on', channel=2, note=41, velocity=78, time=24),
    Message('note_on', channel=2, note=41, velocity=78, time=364),
    Message('note_on', channel=2, note=41, velocity=0, time=20),
    Message('note_on', channel=2, note=34, velocity=78, time=168),
    Message('note_on', channel=2, note=41, velocity=0, time=4),
    Message('note_on', channel=2, note=34, velocity=0, time=764),
    Message('note_on', channel=2, note=34, velocity=78, time=0),
    Message('note_on', channel=2, note=34, velocity=0, time=192),
    Message('note_on', channel=2, note=34, velocity=78, time=0),
    Message('note_on', channel=2, note=34, velocity=0, time=384),
    Message('note_on', channel=2, note=34, velocity=78, time=0),
    Message('note_on', channel=2, note=34, velocity=0, time=192),
    Message('note_on', channel=2, note=39, velocity=78, time=0),
    Message('note_on', channel=2, note=39, velocity=0, time=576),
    Message('note_on', channel=2, note=39, velocity=78, time=0),
    Message('note_on', channel=2, note=39, velocity=0, time=192),
    Message('note_on', channel=2, note=40, velocity=78, time=0),
    Message('note_on', channel=2, note=40, velocity=0, time=576),
    Message('note_on', channel=2, note=40, velocity=78, time=0),
    Message('note_on', channel=2, note=40, velocity=0, time=192),
    Message('note_on', channel=2, note=41, velocity=78, time=0),
    Message('note_on', channel=2, note=41, velocity=0, time=3072),
    Message('note_on', channel=2, note=41, velocity=78, time=0),
    Message('note_on', channel=2, note=41, velocity=0, time=1536),
    Message('note_on', channel=2, note=29, velocity=78, time=0),
    Message('note_on', channel=2, note=29, velocity=0, time=1152),
    Message('note_on', channel=2, note=34, velocity=78, time=192),
    Message('note_on', channel=2, note=34, velocity=0, time=96),
    Message('note_on', channel=2, note=36, velocity=78, time=0),
    Message('note_on', channel=2, note=36, velocity=0, time=96),
    Message('note_on', channel=2, note=41, velocity=78, time=0),
    Message('note_on', channel=2, note=41, velocity=0, time=1536),
    Message('note_on', channel=2, note=29, velocity=78, time=0),
    Message('note_on', channel=2, note=29, velocity=0, time=1152),
    Message('note_on', channel=2, note=34, velocity=78, time=192),
    Message('note_on', channel=2, note=34, velocity=0, time=96),
    Message('note_on', channel=2, note=36, velocity=78, time=0),
    Message('note_on', channel=2, note=36, velocity=0, time=96),
    Message('note_on', channel=2, note=41, velocity=78, time=0),
    Message('note_on', channel=2, note=41, velocity=0, time=1536),
    Message('note_on', channel=2, note=29, velocity=78, time=0),
    Message('note_on', channel=2, note=29, velocity=0, time=1152),
    Message('note_on', channel=2, note=34, velocity=78, time=192),
    Message('note_on', channel=2, note=34, velocity=0, time=96),
    Message('note_on', channel=2, note=36, velocity=78, time=0),
    Message('note_on', channel=2, note=36, velocity=0, time=96),
    Message('note_on', channel=2, note=41, velocity=78, time=0),
    Message('note_on', channel=2, note=41, velocity=0, time=1536),
    Message('note_on', channel=2, note=29, velocity=78, time=0),
    Message('note_on', channel=2, note=29, velocity=0, time=1152),
    Message('note_on', channel=2, note=33, velocity=78, time=288),
    Message('note_on', channel=2, note=33, velocity=0, time=96),
    Message('note_on', channel=2, note=38, velocity=78, time=0),
    Message('note_on', channel=2, note=38, velocity=0, time=576),
    Message('note_on', channel=2, note=38, velocity=78, time=0),
    Message('note_on', channel=2, note=38, velocity=0, time=192),
    Message('note_on', channel=2, note=36, velocity=78, time=0),
    Message('note_on', channel=2, note=36, velocity=0, time=576),
    Message('note_on', channel=2, note=36, velocity=78, time=0),
    Message('note_on', channel=2, note=36, velocity=0, time=192),
    Message('note_on', channel=2, note=38, velocity=78, time=0),
    Message('note_on', channel=2, note=38, velocity=0, time=576),
    Message('note_on', channel=2, note=38, velocity=78, time=0),
    Message('note_on', channel=2, note=38, velocity=0, time=192),
    Message('note_on', channel=2, note=37, velocity=78, time=0),
    Message('note_on', channel=2, note=37, velocity=0, time=576),
    Message('note_on', channel=2, note=37, velocity=78, time=0),
    Message('note_on', channel=2, note=37, velocity=0, time=192),
    Message('note_on', channel=2, note=36, velocity=78, time=0),
    Message('note_on', channel=2, note=36, velocity=0, time=192),
    Message('note_on', channel=2, note=36, velocity=78, time=0),
    Message('note_on', channel=2, note=36, velocity=0, time=192),
    Message('note_on', channel=2, note=36, velocity=78, time=0),
    Message('note_on', channel=2, note=36, velocity=0, time=192),
    Message('note_on', channel=2, note=36, velocity=78, time=0),
    Message('note_on', channel=2, note=36, velocity=0, time=192),
    Message('note_on', channel=2, note=36, velocity=78, time=0),
    Message('note_on', channel=2, note=36, velocity=0, time=192),
    Message('note_on', channel=2, note=36, velocity=78, time=0),
    Message('note_on', channel=2, note=36, velocity=0, time=192),
    Message('note_on', channel=2, note=36, velocity=78, time=0),
    Message('note_on', channel=2, note=36, velocity=0, time=192),
    Message('note_on', channel=2, note=36, velocity=78, time=0),
    Message('note_on', channel=2, note=36, velocity=0, time=192),
    Message('note_on', channel=2, note=36, velocity=78, time=0),
    Message('note_on', channel=2, note=36, velocity=0, time=192),
    Message('note_on', channel=2, note=36, velocity=78, time=0),
    Message('note_on', channel=2, note=36, velocity=0, time=192),
    Message('note_on', channel=2, note=36, velocity=78, time=0),
    Message('note_on', channel=2, note=36, velocity=0, time=192),
    Message('note_on', channel=2, note=36, velocity=78, time=0),
    Message('note_on', channel=2, note=36, velocity=0, time=192),
    Message('note_on', channel=2, note=36, velocity=78, time=0),
    Message('note_on', channel=2, note=36, velocity=0, time=192),
    Message('note_on', channel=2, note=36, velocity=78, time=0),
    Message('note_on', channel=2, note=36, velocity=0, time=192),
    Message('note_on', channel=2, note=36, velocity=78, time=0),
    Message('note_on', channel=2, note=36, velocity=0, time=192),
    Message('note_on', channel=2, note=36, velocity=78, time=0),
    Message('note_on', channel=2, note=36, velocity=0, time=192),
    Message('note_on', channel=2, note=41, velocity=78, time=0),
    Message('note_on', channel=2, note=41, velocity=0, time=576),
    Message('note_on', channel=2, note=41, velocity=78, time=0),
    Message('note_on', channel=2, note=41, velocity=0, time=192),
    Message('note_on', channel=2, note=39, velocity=78, time=0),
    Message('note_on', channel=2, note=39, velocity=0, time=576),
    Message('note_on', channel=2, note=39, velocity=78, time=0),
    Message('note_on', channel=2, note=39, velocity=0, time=192),
    Message('note_on', channel=2, note=37, velocity=78, time=0),
    Message('note_on', channel=2, note=37, velocity=0, time=576),
    Message('note_on', channel=2, note=37, velocity=78, time=0),
    Message('note_on', channel=2, note=37, velocity=0, time=192),
    Message('note_on', channel=2, note=39, velocity=78, time=0),
    Message('note_on', channel=2, note=39, velocity=0, time=576),
    Message('note_on', channel=2, note=39, velocity=78, time=0),
    Message('note_on', channel=2, note=39, velocity=0, time=192),
    Message('note_on', channel=2, note=41, velocity=78, time=0),
    Message('note_on', channel=2, note=41, velocity=0, time=576),
    Message('note_on', channel=2, note=41, velocity=78, time=0),
    Message('note_on', channel=2, note=41, velocity=0, time=192),
    Message('note_on', channel=2, note=39, velocity=78, time=0),
    Message('note_on', channel=2, note=39, velocity=0, time=576),
    Message('note_on', channel=2, note=39, velocity=78, time=0),
    Message('note_on', channel=2, note=39, velocity=0, time=192),
    Message('note_on', channel=2, note=37, velocity=78, time=0),
    Message('note_on', channel=2, note=37, velocity=0, time=576),
    Message('note_on', channel=2, note=37, velocity=78, time=0),
    Message('note_on', channel=2, note=37, velocity=0, time=192),
    Message('note_on', channel=2, note=39, velocity=78, time=0),
    Message('note_on', channel=2, note=39, velocity=0, time=576),
    Message('note_on', channel=2, note=39, velocity=78, time=0),
    Message('note_on', channel=2, note=39, velocity=0, time=192),
    Message('note_on', channel=2, note=41, velocity=78, time=0),
    Message('note_on', channel=2, note=41, velocity=0, time=1536),
    Message('note_on', channel=2, note=29, velocity=78, time=3072),
    Message('note_on', channel=2, note=29, velocity=0, time=1536),
    Message('note_on', channel=2, note=41, velocity=78, time=0),
    Message('note_on', channel=2, note=41, velocity=0, time=1536),
    Message('note_on', channel=2, note=29, velocity=78, time=0),
    Message('note_on', channel=2, note=29, velocity=0, time=1152),
    Message('note_on', channel=2, note=34, velocity=78, time=192),
    Message('note_on', channel=2, note=34, velocity=0, time=96),
    Message('note_on', channel=2, note=36, velocity=78, time=0),
    Message('note_on', channel=2, note=36, velocity=0, time=96),
    Message('note_on', channel=2, note=41, velocity=78, time=0),
    Message('note_on', channel=2, note=41, velocity=0, time=1536),
    Message('note_on', channel=2, note=29, velocity=78, time=0),
    Message('note_on', channel=2, note=29, velocity=0, time=1152),
    Message('note_on', channel=2, note=34, velocity=78, time=192),
    Message('note_on', channel=2, note=34, velocity=0, time=96),
    Message('note_on', channel=2, note=36, velocity=78, time=0),
    Message('note_on', channel=2, note=36, velocity=0, time=96),
    Message('note_on', channel=2, note=41, velocity=78, time=0),
    Message('note_on', channel=2, note=41, velocity=0, time=1536),
    Message('note_on', channel=2, note=29, velocity=78, time=0),
    Message('note_on', channel=2, note=29, velocity=0, time=1152),
    Message('note_on', channel=2, note=34, velocity=78, time=192),
    Message('note_on', channel=2, note=34, velocity=0, time=96),
    Message('note_on', channel=2, note=36, velocity=78, time=0),
    Message('note_on', channel=2, note=36, velocity=0, time=96),
    Message('note_on', channel=2, note=41, velocity=78, time=0),
    Message('note_on', channel=2, note=41, velocity=0, time=1536),
    Message('note_on', channel=2, note=29, velocity=78, time=0),
    Message('note_on', channel=2, note=29, velocity=0, time=576),
    Message('note_on', channel=2, note=36, velocity=78, time=0),
    Message('note_on', channel=2, note=36, velocity=0, time=192),
    Message('note_on', channel=2, note=29, velocity=78, time=0),
    Message('note_on', channel=2, note=29, velocity=0, time=192),
    Message('note_on', channel=2, note=31, velocity=78, time=0),
    Message('note_on', channel=2, note=31, velocity=0, time=192),
    Message('note_on', channel=2, note=32, velocity=78, time=0),
    Message('note_on', channel=2, note=32, velocity=0, time=192),
    Message('note_on', channel=2, note=36, velocity=78, time=0),
    Message('note_on', channel=2, note=36, velocity=0, time=96),
    Message('note_on', channel=2, note=37, velocity=78, time=0),
    Message('note_on', channel=2, note=37, velocity=0, time=96),
    Message('note_on', channel=2, note=41, velocity=78, time=0),
    Message('note_on', channel=2, note=41, velocity=0, time=576),
    Message('note_on', channel=2, note=41, velocity=78, time=0),
    Message('note_on', channel=2, note=41, velocity=0, time=192),
    Message('note_on', channel=2, note=39, velocity=78, time=0),
    Message('note_on', channel=2, note=39, velocity=0, time=576),
    Message('note_on', channel=2, note=39, velocity=78, time=0),
    Message('note_on', channel=2, note=39, velocity=0, time=192),
    Message('note_on', channel=2, note=37, velocity=78, time=0),
    Message('note_on', channel=2, note=37, velocity=0, time=576),
    Message('note_on', channel=2, note=37, velocity=78, time=0),
    Message('note_on', channel=2, note=37, velocity=0, time=192),
    Message('note_on', channel=2, note=39, velocity=78, time=0),
    Message('note_on', channel=2, note=39, velocity=0, time=384),
    Message('note_on', channel=2, note=39, velocity=78, time=96),
    Message('note_on', channel=2, note=39, velocity=0, time=96),
    Message('note_on', channel=2, note=39, velocity=78, time=96),
    Message('note_on', channel=2, note=39, velocity=0, time=96),
    Message('note_on', channel=2, note=41, velocity=78, time=0),
    Message('note_on', channel=2, note=41, velocity=0, time=576),
    Message('note_on', channel=2, note=41, velocity=78, time=0),
    Message('note_on', channel=2, note=41, velocity=0, time=192),
    Message('note_on', channel=2, note=39, velocity=78, time=0),
    Message('note_on', channel=2, note=39, velocity=0, time=576),
    Message('note_on', channel=2, note=39, velocity=78, time=0),
    Message('note_on', channel=2, note=39, velocity=0, time=192),
    Message('note_on', channel=2, note=38, velocity=78, time=0),
    Message('note_on', channel=2, note=38, velocity=0, time=576),
    Message('note_on', channel=2, note=38, velocity=78, time=0),
    Message('note_on', channel=2, note=38, velocity=0, time=192),
    Message('note_on', channel=2, note=37, velocity=78, time=0),
    Message('note_on', channel=2, note=37, velocity=0, time=576),
    Message('note_on', channel=2, note=37, velocity=78, time=0),
    Message('note_on', channel=2, note=37, velocity=0, time=192),
    Message('note_on', channel=2, note=36, velocity=78, time=0),
    Message('note_on', channel=2, note=36, velocity=0, time=192),
    Message('note_on', channel=2, note=36, velocity=78, time=0),
    Message('note_on', channel=2, note=36, velocity=0, time=192),
    Message('note_on', channel=2, note=36, velocity=78, time=0),
    Message('note_on', channel=2, note=36, velocity=0, time=192),
    Message('note_on', channel=2, note=36, velocity=78, time=0),
    Message('note_on', channel=2, note=36, velocity=0, time=192),
    Message('note_on', channel=2, note=36, velocity=78, time=0),
    Message('note_on', channel=2, note=36, velocity=0, time=192),
    Message('note_on', channel=2, note=36, velocity=78, time=0),
    Message('note_on', channel=2, note=36, velocity=0, time=192),
    Message('note_on', channel=2, note=36, velocity=78, time=0),
    Message('note_on', channel=2, note=36, velocity=0, time=192),
    Message('note_on', channel=2, note=36, velocity=78, time=0),
    Message('note_on', channel=2, note=36, velocity=0, time=192),
    Message('note_on', channel=2, note=36, velocity=78, time=0),
    Message('note_on', channel=2, note=36, velocity=0, time=192),
    Message('note_on', channel=2, note=36, velocity=78, time=0),
    Message('note_on', channel=2, note=36, velocity=0, time=192),
    Message('note_on', channel=2, note=36, velocity=78, time=0),
    Message('note_on', channel=2, note=36, velocity=0, time=192),
    Message('note_on', channel=2, note=36, velocity=78, time=0),
    Message('note_on', channel=2, note=36, velocity=0, time=192),
    Message('note_on', channel=2, note=36, velocity=78, time=0),
    Message('note_on', channel=2, note=36, velocity=0, time=192),
    Message('note_on', channel=2, note=36, velocity=78, time=0),
    Message('note_on', channel=2, note=36, velocity=0, time=192),
    Message('note_on', channel=2, note=36, velocity=78, time=0),
    Message('note_on', channel=2, note=36, velocity=0, time=192),
    Message('note_on', channel=2, note=36, velocity=78, time=0),
    Message('note_on', channel=2, note=36, velocity=0, time=192),
    Message('note_on', channel=2, note=41, velocity=78, time=0),
    Message('note_on', channel=2, note=41, velocity=0, time=576),
    Message('note_on', channel=2, note=41, velocity=78, time=0),
    Message('note_on', channel=2, note=41, velocity=0, time=192),
    Message('note_on', channel=2, note=41, velocity=78, time=0),
    Message('note_on', channel=2, note=41, velocity=0, time=576),
    Message('note_on', channel=2, note=41, velocity=78, time=0),
    Message('note_on', channel=2, note=41, velocity=0, time=96),
    Message('note_on', channel=2, note=41, velocity=78, time=0),
    Message('note_on', channel=2, note=41, velocity=0, time=96),
    Message('note_on', channel=2, note=41, velocity=78, time=0),
    Message('note_on', channel=2, note=41, velocity=0, time=768),
    Message('note_on', channel=2, note=34, velocity=78, time=0),
    Message('note_on', channel=2, note=34, velocity=0, time=768),
    Message('note_on', channel=2, note=39, velocity=78, time=0),
    Message('note_on', channel=2, note=39, velocity=0, time=576),
    Message('note_on', channel=2, note=39, velocity=78, time=0),
    Message('note_on', channel=2, note=39, velocity=0, time=192),
    Message('note_on', channel=2, note=40, velocity=78, time=0),
    Message('note_on', channel=2, note=40, velocity=0, time=576),
    Message('note_on', channel=2, note=40, velocity=78, time=0),
    Message('note_on', channel=2, note=40, velocity=0, time=192),
    Message('note_on', channel=2, note=41, velocity=78, time=0),
    Message('note_on', channel=2, note=41, velocity=0, time=768),
    Message('note_on', channel=2, note=41, velocity=78, time=0),
    Message('note_on', channel=2, note=41, velocity=0, time=768),
    Message('note_on', channel=2, note=41, velocity=78, time=0),
    Message('note_on', channel=2, note=41, velocity=0, time=576),
    Message('note_on', channel=2, note=41, velocity=78, time=0),
    Message('note_on', channel=2, note=41, velocity=0, time=192),
    Message('note_on', channel=2, note=41, velocity=78, time=0),
    Message('note_on', channel=2, note=41, velocity=0, time=576),
    Message('note_on', channel=2, note=41, velocity=78, time=0),
    Message('note_on', channel=2, note=41, velocity=0, time=96),
    Message('note_on', channel=2, note=41, velocity=78, time=0),
    Message('note_on', channel=2, note=41, velocity=0, time=96),
    Message('note_on', channel=2, note=41, velocity=78, time=20),
    Message('note_on', channel=2, note=41, velocity=0, time=768),
    Message('note_on', channel=2, note=34, velocity=78, time=20),
    Message('note_on', channel=2, note=39, velocity=78, time=728),
    Message('note_on', channel=2, note=34, velocity=0, time=40),
    Message('note_on', channel=2, note=39, velocity=0, time=728),
    Message('note_on', channel=2, note=40, velocity=78, time=0),
    Message('note_on', channel=2, note=40, velocity=0, time=768),
    Message('note_on', channel=2, note=41, velocity=78, time=0),
    Message('note_on', channel=2, note=41, velocity=0, time=576),
    Message('note_on', channel=2, note=41, velocity=78, time=0),
    Message('note_on', channel=2, note=41, velocity=0, time=192),
    Message('note_on', channel=2, note=39, velocity=78, time=0),
    Message('note_on', channel=2, note=39, velocity=0, time=576),
    Message('note_on', channel=2, note=39, velocity=78, time=0),
    Message('note_on', channel=2, note=39, velocity=0, time=192),
    Message('note_on', channel=2, note=37, velocity=78, time=0),
    Message('note_on', channel=2, note=37, velocity=0, time=576),
    Message('note_on', channel=2, note=37, velocity=78, time=0),
    Message('note_on', channel=2, note=37, velocity=0, time=192),
    Message('note_on', channel=2, note=39, velocity=78, time=0),
    Message('note_on', channel=2, note=39, velocity=0, time=384),
    Message('note_on', channel=2, note=39, velocity=78, time=0),
    Message('note_on', channel=2, note=39, velocity=0, time=96),
    Message('note_on', channel=2, note=36, velocity=78, time=0),
    Message('note_on', channel=2, note=36, velocity=0, time=96),
    Message('note_on', channel=2, note=39, velocity=78, time=0),
    Message('note_on', channel=2, note=39, velocity=0, time=96),
    Message('note_on', channel=2, note=40, velocity=78, time=0),
    Message('note_on', channel=2, note=40, velocity=0, time=96),
    Message('note_on', channel=2, note=41, velocity=78, time=0),
    Message('note_on', channel=2, note=41, velocity=0, time=576),
    Message('note_on', channel=2, note=41, velocity=78, time=0),
    Message('note_on', channel=2, note=41, velocity=0, time=192),
    Message('note_on', channel=2, note=39, velocity=78, time=0),
    Message('note_on', channel=2, note=39, velocity=0, time=576),
    Message('note_on', channel=2, note=39, velocity=78, time=0),
    Message('note_on', channel=2, note=39, velocity=0, time=192),
    Message('note_on', channel=2, note=38, velocity=78, time=0),
    Message('note_on', channel=2, note=38, velocity=0, time=576),
    Message('note_on', channel=2, note=38, velocity=78, time=0),
    Message('note_on', channel=2, note=38, velocity=0, time=192),
    Message('note_on', channel=2, note=37, velocity=78, time=0),
    Message('note_on', channel=2, note=37, velocity=0, time=576),
    Message('note_on', channel=2, note=37, velocity=78, time=0),
    Message('note_on', channel=2, note=37, velocity=0, time=192),
    Message('note_on', channel=2, note=36, velocity=78, time=0),
    Message('note_on', channel=2, note=36, velocity=0, time=192),
    Message('note_on', channel=2, note=36, velocity=78, time=0),
    Message('note_on', channel=2, note=36, velocity=0, time=192),
    Message('note_on', channel=2, note=36, velocity=78, time=0),
    Message('note_on', channel=2, note=36, velocity=0, time=192),
    Message('note_on', channel=2, note=36, velocity=78, time=0),
    Message('note_on', channel=2, note=36, velocity=0, time=192),
    Message('note_on', channel=2, note=36, velocity=78, time=0),
    Message('note_on', channel=2, note=36, velocity=0, time=192),
    Message('note_on', channel=2, note=36, velocity=78, time=0),
    Message('note_on', channel=2, note=36, velocity=0, time=192),
    Message('note_on', channel=2, note=36, velocity=78, time=0),
    Message('note_on', channel=2, note=36, velocity=0, time=192),
    Message('note_on', channel=2, note=36, velocity=78, time=0),
    Message('note_on', channel=2, note=36, velocity=0, time=192),
    Message('note_on', channel=2, note=36, velocity=78, time=0),
    Message('note_on', channel=2, note=36, velocity=0, time=192),
    Message('note_on', channel=2, note=36, velocity=78, time=0),
    Message('note_on', channel=2, note=36, velocity=0, time=192),
    Message('note_on', channel=2, note=36, velocity=78, time=0),
    Message('note_on', channel=2, note=36, velocity=0, time=192),
    Message('note_on', channel=2, note=36, velocity=78, time=0),
    Message('note_on', channel=2, note=36, velocity=0, time=192),
    Message('note_on', channel=2, note=36, velocity=78, time=0),
    Message('note_on', channel=2, note=36, velocity=0, time=192),
    Message('note_on', channel=2, note=36, velocity=78, time=0),
    Message('note_on', channel=2, note=36, velocity=0, time=192),
    Message('note_on', channel=2, note=36, velocity=78, time=0),
    Message('note_on', channel=2, note=36, velocity=0, time=192),
    Message('note_on', channel=2, note=36, velocity=78, time=0),
    Message('note_on', channel=2, note=36, velocity=0, time=192),
    Message('note_on', channel=2, note=34, velocity=78, time=0),
    Message('note_on', channel=2, note=34, velocity=0, time=576),
    Message('note_on', channel=2, note=34, velocity=78, time=0),
    Message('note_on', channel=2, note=34, velocity=0, time=192),
    Message('note_on', channel=2, note=36, velocity=78, time=0),
    Message('note_on', channel=2, note=36, velocity=0, time=576),
    Message('note_on', channel=2, note=36, velocity=78, time=0),
    Message('note_on', channel=2, note=36, velocity=0, time=192),
    Message('note_on', channel=2, note=37, velocity=78, time=0),
    Message('note_on', channel=2, note=37, velocity=0, time=576),
    Message('note_on', channel=2, note=37, velocity=78, time=0),
    Message('note_on', channel=2, note=37, velocity=0, time=192),
    Message('note_on', channel=2, note=39, velocity=78, time=0),
    Message('note_on', channel=2, note=39, velocity=0, time=576),
    Message('note_on', channel=2, note=39, velocity=78, time=0),
    Message('note_on', channel=2, note=39, velocity=0, time=192),
    Message('note_on', channel=2, note=41, velocity=78, time=0),
    Message('note_on', channel=2, note=41, velocity=0, time=384),
    Message('note_on', channel=2, note=41, velocity=78, time=0),
    Message('note_on', channel=2, note=41, velocity=0, time=384),
    Message('note_on', channel=2, note=41, velocity=78, time=0),
    Message('note_on', channel=2, note=41, velocity=0, time=384),
    Message('note_on', channel=2, note=41, velocity=78, time=0),
    Message('note_on', channel=2, note=41, velocity=0, time=96),
    Message('note_on', channel=2, note=36, velocity=78, time=0),
    Message('note_on', channel=2, note=36, velocity=0, time=96),
    Message('note_on', channel=2, note=37, velocity=78, time=0),
    Message('note_on', channel=2, note=37, velocity=0, time=96),
    Message('note_on', channel=2, note=32, velocity=78, time=0),
    Message('note_on', channel=2, note=32, velocity=0, time=96),
    Message('note_on', channel=2, note=29, velocity=78, time=0),
    Message('note_on', channel=2, note=29, velocity=0, time=384),
    Message('note_on', channel=2, note=29, velocity=78, time=0),
    Message('note_on', channel=2, note=29, velocity=0, time=384),
    Message('note_on', channel=2, note=29, velocity=78, time=0),
    Message('note_on', channel=2, note=29, velocity=0, time=384),
    Message('note_on', channel=2, note=29, velocity=78, time=0),
    Message('note_on', channel=2, note=29, velocity=0, time=384),
    Message('note_on', channel=2, note=34, velocity=78, time=0),
    Message('note_on', channel=2, note=34, velocity=0, time=576),
    Message('note_on', channel=2, note=34, velocity=78, time=0),
    Message('note_on', channel=2, note=34, velocity=0, time=192),
    Message('note_on', channel=2, note=36, velocity=78, time=0),
    Message('note_on', channel=2, note=36, velocity=0, time=576),
    Message('note_on', channel=2, note=36, velocity=78, time=0),
    Message('note_on', channel=2, note=36, velocity=0, time=192),
    Message('note_on', channel=2, note=37, velocity=78, time=0),
    Message('note_on', channel=2, note=37, velocity=0, time=576),
    Message('note_on', channel=2, note=37, velocity=78, time=0),
    Message('note_on', channel=2, note=37, velocity=0, time=192),
    Message('note_on', channel=2, note=39, velocity=78, time=0),
    Message('note_on', channel=2, note=39, velocity=0, time=576),
    Message('note_on', channel=2, note=39, velocity=78, time=0),
    Message('note_on', channel=2, note=39, velocity=0, time=192),
    Message('note_on', channel=2, note=41, velocity=78, time=0),
    Message('note_on', channel=2, note=41, velocity=0, time=96),
    Message('note_on', channel=2, note=39, velocity=78, time=0),
    Message('note_on', channel=2, note=39, velocity=0, time=96),
    Message('note_on', channel=2, note=36, velocity=78, time=0),
    Message('note_on', channel=2, note=36, velocity=0, time=96),
    Message('note_on', channel=2, note=39, velocity=78, time=0),
    Message('note_on', channel=2, note=39, velocity=0, time=96),
    Message('note_on', channel=2, note=41, velocity=78, time=0),
    Message('note_on', channel=2, note=41, velocity=0, time=96),
    Message('note_on', channel=2, note=44, velocity=78, time=0),
    Message('note_on', channel=2, note=44, velocity=0, time=288),
    Message('note_on', channel=2, note=41, velocity=78, time=0),
    Message('note_on', channel=2, note=41, velocity=0, time=96),
    Message('note_on', channel=2, note=39, velocity=78, time=0),
    Message('note_on', channel=2, note=39, velocity=0, time=96),
    Message('note_on', channel=2, note=36, velocity=78, time=0),
    Message('note_on', channel=2, note=36, velocity=0, time=96),
    Message('note_on', channel=2, note=39, velocity=78, time=0),
    Message('note_on', channel=2, note=39, velocity=0, time=96),
    Message('note_on', channel=2, note=41, velocity=78, time=0),
    Message('note_on', channel=2, note=41, velocity=0, time=96),
    Message('note_on', channel=2, note=44, velocity=78, time=0),
    Message('note_on', channel=2, note=44, velocity=0, time=288),
    Message('note_on', channel=2, note=41, velocity=78, time=0),
    Message('note_on', channel=2, note=41, velocity=0, time=96),
    Message('note_on', channel=2, note=41, velocity=78, time=0),
    Message('note_on', channel=2, note=41, velocity=0, time=96),
    Message('note_on', channel=2, note=41, velocity=78, time=0),
    Message('note_on', channel=2, note=41, velocity=0, time=96),
    Message('note_on', channel=2, note=41, velocity=78, time=0),
    Message('note_on', channel=2, note=41, velocity=0, time=96),
    Message('note_on', channel=2, note=41, velocity=78, time=0),
    Message('note_on', channel=2, note=41, velocity=0, time=96),
    Message('note_on', channel=2, note=41, velocity=78, time=0),
    Message('note_on', channel=2, note=41, velocity=0, time=96),
    Message('note_on', channel=2, note=41, velocity=78, time=0),
    Message('note_on', channel=2, note=41, velocity=0, time=96),
    Message('note_on', channel=2, note=41, velocity=78, time=0),
    Message('note_on', channel=2, note=41, velocity=0, time=96),
    Message('note_on', channel=2, note=53, velocity=78, time=0),
    Message('note_on', channel=2, note=53, velocity=0, time=96),
    Message('note_on', channel=2, note=53, velocity=78, time=0),
    Message('note_on', channel=2, note=53, velocity=0, time=96),
    Message('note_on', channel=2, note=53, velocity=78, time=0),
    Message('note_on', channel=2, note=53, velocity=0, time=96),
    Message('note_on', channel=2, note=53, velocity=78, time=0),
    Message('note_on', channel=2, note=53, velocity=0, time=96),
    Message('note_on', channel=2, note=53, velocity=78, time=0),
    Message('note_on', channel=2, note=53, velocity=0, time=96),
    Message('note_on', channel=2, note=53, velocity=78, time=0),
    Message('note_on', channel=2, note=53, velocity=0, time=96),
    Message('note_on', channel=2, note=53, velocity=78, time=0),
    Message('note_on', channel=2, note=53, velocity=0, time=192),
    Message('note_on', channel=2, note=34, velocity=78, time=0),
    Message('note_on', channel=2, note=34, velocity=0, time=576),
    Message('note_on', channel=2, note=34, velocity=78, time=0),
    Message('note_on', channel=2, note=34, velocity=0, time=192),
    Message('note_on', channel=2, note=36, velocity=78, time=0),
    Message('note_on', channel=2, note=36, velocity=0, time=576),
    Message('note_on', channel=2, note=36, velocity=78, time=0),
    Message('note_on', channel=2, note=36, velocity=0, time=192),
    Message('note_on', channel=2, note=37, velocity=78, time=0),
    Message('note_on', channel=2, note=37, velocity=0, time=576),
    Message('note_on', channel=2, note=37, velocity=78, time=0),
    Message('note_on', channel=2, note=37, velocity=0, time=192),
    Message('note_on', channel=2, note=39, velocity=78, time=0),
    Message('note_on', channel=2, note=39, velocity=0, time=768),
    Message('note_on', channel=2, note=29, velocity=78, time=0),
    Message('note_on', channel=2, note=29, velocity=0, time=576),
    Message('note_on', channel=2, note=29, velocity=78, time=0),
    Message('note_on', channel=2, note=29, velocity=0, time=192),
    Message('note_on', channel=2, note=31, velocity=78, time=0),
    Message('note_on', channel=2, note=31, velocity=0, time=576),
    Message('note_on', channel=2, note=31, velocity=78, time=0),
    Message('note_on', channel=2, note=31, velocity=0, time=192),
    Message('note_on', channel=2, note=32, velocity=78, time=0),
    Message('note_on', channel=2, note=32, velocity=0, time=576),
    Message('note_on', channel=2, note=32, velocity=78, time=0),
    Message('note_on', channel=2, note=32, velocity=0, time=192),
    Message('note_on', channel=2, note=34, velocity=78, time=0),
    Message('note_on', channel=2, note=34, velocity=0, time=576),
    Message('note_on', channel=2, note=34, velocity=78, time=0),
    Message('note_on', channel=2, note=34, velocity=0, time=192),
    Message('note_on', channel=2, note=36, velocity=78, time=0),
    Message('note_on', channel=2, note=36, velocity=0, time=192),
    Message('note_on', channel=2, note=36, velocity=78, time=0),
    Message('note_on', channel=2, note=36, velocity=0, time=192),
    Message('note_on', channel=2, note=36, velocity=78, time=0),
    Message('note_on', channel=2, note=36, velocity=0, time=192),
    Message('note_on', channel=2, note=36, velocity=78, time=0),
    Message('note_on', channel=2, note=36, velocity=0, time=192),
    Message('note_on', channel=2, note=36, velocity=78, time=0),
    Message('note_on', channel=2, note=36, velocity=0, time=192),
    Message('note_on', channel=2, note=36, velocity=78, time=0),
    Message('note_on', channel=2, note=36, velocity=0, time=192),
    Message('note_on', channel=2, note=36, velocity=78, time=0),
    Message('note_on', channel=2, note=36, velocity=0, time=192),
    Message('note_on', channel=2, note=36, velocity=78, time=0),
    Message('note_on', channel=2, note=36, velocity=0, time=192),
    Message('note_on', channel=2, note=36, velocity=78, time=0),
    Message('note_on', channel=2, note=36, velocity=0, time=192),
    Message('note_on', channel=2, note=36, velocity=78, time=0),
    Message('note_on', channel=2, note=36, velocity=0, time=192),
    Message('note_on', channel=2, note=36, velocity=78, time=0),
    Message('note_on', channel=2, note=36, velocity=0, time=192),
    Message('note_on', channel=2, note=36, velocity=78, time=0),
    Message('note_on', channel=2, note=36, velocity=0, time=192),
    Message('note_on', channel=2, note=36, velocity=78, time=0),
    Message('note_on', channel=2, note=36, velocity=0, time=192),
    Message('note_on', channel=2, note=36, velocity=78, time=0),
    Message('note_on', channel=2, note=36, velocity=0, time=192),
    Message('note_on', channel=2, note=36, velocity=78, time=0),
    Message('note_on', channel=2, note=36, velocity=0, time=192),
    Message('note_on', channel=2, note=36, velocity=78, time=0),
    Message('note_on', channel=2, note=36, velocity=0, time=192),
    Message('note_on', channel=2, note=41, velocity=78, time=0),
    Message('note_on', channel=2, note=41, velocity=0, time=576),
    Message('note_on', channel=2, note=41, velocity=78, time=0),
    Message('note_on', channel=2, note=41, velocity=0, time=192),
    Message('note_on', channel=2, note=39, velocity=78, time=0),
    Message('note_on', channel=2, note=39, velocity=0, time=576),
    Message('note_on', channel=2, note=39, velocity=78, time=0),
    Message('note_on', channel=2, note=39, velocity=0, time=192),
    Message('note_on', channel=2, note=37, velocity=78, time=0),
    Message('note_on', channel=2, note=44, velocity=78, time=0),
    Message('note_on', channel=2, note=44, velocity=0, time=576),
    Message('note_on', channel=2, note=37, velocity=0, time=0),
    Message('note_on', channel=2, note=37, velocity=78, time=0),
    Message('note_on', channel=2, note=37, velocity=0, time=192),
    Message('note_on', channel=2, note=39, velocity=78, time=0),
    Message('note_on', channel=2, note=39, velocity=0, time=576),
    Message('note_on', channel=2, note=39, velocity=78, time=0),
    Message('note_on', channel=2, note=39, velocity=0, time=192),
    Message('note_on', channel=2, note=41, velocity=78, time=0),
    Message('note_on', channel=2, note=41, velocity=0, time=576),
    Message('note_on', channel=2, note=41, velocity=78, time=0),
    Message('note_on', channel=2, note=41, velocity=0, time=192),
    Message('note_on', channel=2, note=39, velocity=78, time=0),
    Message('note_on', channel=2, note=39, velocity=0, time=576),
    Message('note_on', channel=2, note=39, velocity=78, time=0),
    Message('note_on', channel=2, note=39, velocity=0, time=192),
    Message('note_on', channel=2, note=37, velocity=78, time=0),
    Message('note_on', channel=2, note=44, velocity=78, time=0),
    Message('note_on', channel=2, note=44, velocity=0, time=576),
    Message('note_on', channel=2, note=37, velocity=0, time=0),
    Message('note_on', channel=2, note=37, velocity=78, time=0),
    Message('note_on', channel=2, note=37, velocity=0, time=192),
    Message('note_on', channel=2, note=39, velocity=78, time=0),
    Message('note_on', channel=2, note=39, velocity=0, time=576),
    Message('note_on', channel=2, note=39, velocity=78, time=0),
    Message('note_on', channel=2, note=39, velocity=0, time=192),
    Message('note_on', channel=2, note=41, velocity=78, time=0),
    Message('note_on', channel=2, note=41, velocity=0, time=576),
    Message('note_on', channel=2, note=41, velocity=78, time=0),
    Message('note_on', channel=2, note=41, velocity=0, time=192),
    Message('note_on', channel=2, note=39, velocity=78, time=0),
    Message('note_on', channel=2, note=39, velocity=0, time=576),
    Message('note_on', channel=2, note=39, velocity=78, time=0),
    Message('note_on', channel=2, note=39, velocity=0, time=192),
    Message('note_on', channel=2, note=37, velocity=78, time=0),
    Message('note_on', channel=2, note=44, velocity=78, time=0),
    Message('note_on', channel=2, note=44, velocity=0, time=576),
    Message('note_on', channel=2, note=37, velocity=0, time=0),
    Message('note_on', channel=2, note=37, velocity=78, time=0),
    Message('note_on', channel=2, note=37, velocity=0, time=192),
    Message('note_on', channel=2, note=39, velocity=78, time=0),
    Message('note_on', channel=2, note=39, velocity=0, time=576),
    Message('note_on', channel=2, note=39, velocity=78, time=0),
    Message('note_on', channel=2, note=39, velocity=0, time=192),
    Message('note_on', channel=2, note=41, velocity=78, time=0),
    Message('note_on', channel=2, note=41, velocity=0, time=576),
    Message('note_on', channel=2, note=41, velocity=78, time=0),
    Message('note_on', channel=2, note=41, velocity=0, time=192),
    Message('note_on', channel=2, note=39, velocity=78, time=0),
    Message('note_on', channel=2, note=39, velocity=0, time=576),
    Message('note_on', channel=2, note=39, velocity=78, time=0),
    Message('note_on', channel=2, note=39, velocity=0, time=192),
    Message('note_on', channel=2, note=38, velocity=78, time=0),
    Message('note_on', channel=2, note=38, velocity=0, time=576),
    Message('note_on', channel=2, note=38, velocity=78, time=0),
    Message('note_on', channel=2, note=38, velocity=0, time=192),
    Message('note_on', channel=2, note=37, velocity=78, time=0),
    Message('note_on', channel=2, note=37, velocity=0, time=768),
    Message('note_on', channel=2, note=36, velocity=78, time=0),
    Message('note_on', channel=2, note=36, velocity=0, time=192),
    Message('note_on', channel=2, note=36, velocity=78, time=0),
    Message('note_on', channel=2, note=36, velocity=0, time=192),
    Message('note_on', channel=2, note=36, velocity=78, time=0),
    Message('note_on', channel=2, note=36, velocity=0, time=192),
    Message('note_on', channel=2, note=36, velocity=78, time=0),
    Message('note_on', channel=2, note=36, velocity=0, time=192),
    Message('note_on', channel=2, note=36, velocity=78, time=0),
    Message('note_on', channel=2, note=36, velocity=0, time=192),
    Message('note_on', channel=2, note=36, velocity=78, time=0),
    Message('note_on', channel=2, note=36, velocity=0, time=192),
    Message('note_on', channel=2, note=36, velocity=78, time=0),
    Message('note_on', channel=2, note=36, velocity=0, time=192),
    Message('note_on', channel=2, note=36, velocity=78, time=0),
    Message('note_on', channel=2, note=36, velocity=0, time=192),
    Message('note_on', channel=2, note=36, velocity=78, time=0),
    Message('note_on', channel=2, note=36, velocity=0, time=192),
    Message('note_on', channel=2, note=36, velocity=78, time=0),
    Message('note_on', channel=2, note=36, velocity=0, time=192),
    Message('note_on', channel=2, note=36, velocity=78, time=0),
    Message('note_on', channel=2, note=36, velocity=0, time=192),
    Message('note_on', channel=2, note=36, velocity=78, time=0),
    Message('note_on', channel=2, note=36, velocity=0, time=192),
    Message('note_on', channel=2, note=36, velocity=78, time=0),
    Message('note_on', channel=2, note=36, velocity=0, time=192),
    Message('note_on', channel=2, note=36, velocity=78, time=0),
    Message('note_on', channel=2, note=36, velocity=0, time=192),
    Message('note_on', channel=2, note=36, velocity=78, time=0),
    Message('note_on', channel=2, note=36, velocity=0, time=192),
    Message('note_on', channel=2, note=36, velocity=78, time=0),
    Message('note_on', channel=2, note=36, velocity=0, time=192),
    Message('note_on', channel=2, note=24, velocity=78, time=0),
    Message('note_on', channel=2, note=36, velocity=78, time=0),
    Message('note_on', channel=2, note=36, velocity=0, time=1536),
    Message('note_on', channel=2, note=24, velocity=0, time=0),
    MetaMessage('end_of_track', time=0)]),
  MidiTrack([
    MetaMessage('midi_port', port=0, time=0),
    MetaMessage('track_name', name='Vocals', time=0),
    Message('control_change', channel=3, control=0, value=0, time=0),
    Message('control_change', channel=3, control=32, value=0, time=0),
    Message('program_change', channel=3, program=17, time=0),
    Message('pitchwheel', channel=3, pitch=0, time=6144),
    Message('note_on', channel=3, note=71, velocity=127, time=12672),
    Message('note_on', channel=3, note=71, velocity=0, time=288),
    Message('note_on', channel=3, note=72, velocity=127, time=0),
    Message('note_on', channel=3, note=72, velocity=0, time=96),
    Message('note_on', channel=3, note=77, velocity=127, time=0),
    Message('note_on', channel=3, note=77, velocity=0, time=480),
    Message('note_on', channel=3, note=72, velocity=127, time=0),
    Message('note_on', channel=3, note=72, velocity=0, time=96),
    Message('note_on', channel=3, note=68, velocity=127, time=0),
    Message('note_on', channel=3, note=68, velocity=0, time=192),
    Message('note_on', channel=3, note=72, velocity=127, time=0),
    Message('note_on', channel=3, note=72, velocity=0, time=384),
    Message('note_on', channel=3, note=71, velocity=127, time=0),
    Message('note_on', channel=3, note=71, velocity=0, time=192),
    Message('note_on', channel=3, note=72, velocity=127, time=0),
    Message('note_on', channel=3, note=72, velocity=0, time=96),
    Message('note_on', channel=3, note=71, velocity=127, time=0),
    Message('note_on', channel=3, note=71, velocity=0, time=288),
    Message('note_on', channel=3, note=68, velocity=127, time=0),
    Message('note_on', channel=3, note=68, velocity=0, time=384),
    Message('note_on', channel=3, note=72, velocity=127, time=576),
    Message('note_on', channel=3, note=72, velocity=0, time=192),
    Message('note_on', channel=3, note=72, velocity=127, time=0),
    Message('note_on', channel=3, note=72, velocity=0, time=192),
    Message('note_on', channel=3, note=77, velocity=127, time=0),
    Message('note_on', channel=3, note=77, velocity=0, time=576),
    Message('note_on', channel=3, note=72, velocity=127, time=0),
    Message('note_on', channel=3, note=72, velocity=0, time=96),
    Message('note_on', channel=3, note=68, velocity=127, time=0),
    Message('note_on', channel=3, note=68, velocity=0, time=96),
    Message('note_on', channel=3, note=72, velocity=127, time=0),
    Message('note_on', channel=3, note=72, velocity=0, time=384),
    Message('note_on', channel=3, note=70, velocity=127, time=0),
    Message('note_on', channel=3, note=70, velocity=0, time=96),
    Message('note_on', channel=3, note=72, velocity=127, time=0),
    Message('note_on', channel=3, note=72, velocity=0, time=192),
    Message('note_on', channel=3, note=70, velocity=127, time=0),
    Message('note_on', channel=3, note=70, velocity=0, time=192),
    Message('note_on', channel=3, note=68, velocity=127, time=0),
    Message('note_on', channel=3, note=68, velocity=0, time=96),
    Message('note_on', channel=3, note=70, velocity=127, time=0),
    Message('note_on', channel=3, note=70, velocity=0, time=384),
    Message('note_on', channel=3, note=72, velocity=127, time=1152),
    Message('note_on', channel=3, note=72, velocity=0, time=96),
    Message('note_on', channel=3, note=68, velocity=127, time=0),
    Message('note_on', channel=3, note=68, velocity=0, time=288),
    Message('note_on', channel=3, note=70, velocity=127, time=0),
    Message('note_on', channel=3, note=70, velocity=0, time=96),
    Message('note_on', channel=3, note=65, velocity=127, time=0),
    Message('note_on', channel=3, note=65, velocity=0, time=864),
    Message('note_on', channel=3, note=79, velocity=127, time=768),
    Message('note_on', channel=3, note=79, velocity=0, time=384),
    Message('note_on', channel=3, note=77, velocity=127, time=0),
    Message('note_on', channel=3, note=77, velocity=0, time=384),
    Message('note_on', channel=3, note=75, velocity=127, time=0),
    Message('note_on', channel=3, note=75, velocity=0, time=384),
    Message('note_on', channel=3, note=72, velocity=127, time=192),
    Message('note_on', channel=3, note=72, velocity=0, time=96),
    Message('note_on', channel=3, note=70, velocity=127, time=0),
    Message('note_on', channel=3, note=70, velocity=0, time=96),
    Message('note_on', channel=3, note=68, velocity=127, time=0),
    Message('note_on', channel=3, note=68, velocity=0, time=384),
    Message('note_on', channel=3, note=70, velocity=127, time=0),
    Message('note_on', channel=3, note=70, velocity=0, time=192),
    Message('note_on', channel=3, note=72, velocity=127, time=0),
    Message('note_on', channel=3, note=72, velocity=0, time=96),
    Message('note_on', channel=3, note=68, velocity=127, time=0),
    Message('note_on', channel=3, note=68, velocity=0, time=192),
    Message('note_on', channel=3, note=63, velocity=127, time=0),
    Message('note_on', channel=3, note=63, velocity=0, time=96),
    Message('note_on', channel=3, note=65, velocity=127, time=0),
    Message('note_on', channel=3, note=65, velocity=0, time=576),
    Message('note_on', channel=3, note=65, velocity=127, time=192),
    Message('note_on', channel=3, note=65, velocity=0, time=96),
    Message('note_on', channel=3, note=67, velocity=127, time=0),
    Message('note_on', channel=3, note=67, velocity=0, time=96),
    Message('note_on', channel=3, note=68, velocity=127, time=0),
    Message('note_on', channel=3, note=68, velocity=0, time=192),
    Message('note_on', channel=3, note=70, velocity=127, time=0),
    Message('note_on', channel=3, note=70, velocity=0, time=96),
    Message('note_on', channel=3, note=72, velocity=127, time=0),
    Message('note_on', channel=3, note=72, velocity=0, time=480),
    Message('note_on', channel=3, note=80, velocity=127, time=384),
    Message('note_on', channel=3, note=80, velocity=0, time=96),
    Message('note_on', channel=3, note=80, velocity=127, time=0),
    Message('note_on', channel=3, note=80, velocity=0, time=96),
    Message('note_on', channel=3, note=80, velocity=127, time=0),
    Message('note_on', channel=3, note=80, velocity=0, time=96),
    Message('note_on', channel=3, note=80, velocity=127, time=0),
    Message('note_on', channel=3, note=80, velocity=0, time=96),
    Message('note_on', channel=3, note=79, velocity=127, time=0),
    Message('note_on', channel=3, note=79, velocity=0, time=96),
    Message('note_on', channel=3, note=77, velocity=127, time=0),
    Message('note_on', channel=3, note=77, velocity=0, time=96),
    Message('note_on', channel=3, note=77, velocity=127, time=0),
    Message('note_on', channel=3, note=77, velocity=0, time=96),
    Message('note_on', channel=3, note=77, velocity=127, time=0),
    Message('note_on', channel=3, note=77, velocity=0, time=192),
    Message('note_on', channel=3, note=75, velocity=127, time=0),
    Message('note_on', channel=3, note=75, velocity=0, time=96),
    Message('note_on', channel=3, note=75, velocity=127, time=0),
    Message('note_on', channel=3, note=75, velocity=0, time=96),
    Message('note_on', channel=3, note=72, velocity=127, time=0),
    Message('note_on', channel=3, note=72, velocity=0, time=96),
    Message('note_on', channel=3, note=70, velocity=127, time=0),
    Message('note_on', channel=3, note=70, velocity=0, time=192),
    Message('note_on', channel=3, note=68, velocity=127, time=0),
    Message('note_on', channel=3, note=68, velocity=0, time=96),
    Message('note_on', channel=3, note=72, velocity=127, time=0),
    Message('note_on', channel=3, note=72, velocity=0, time=2400),
    Message('note_on', channel=3, note=77, velocity=127, time=864),
    Message('note_on', channel=3, note=77, velocity=0, time=288),
    Message('note_on', channel=3, note=75, velocity=127, time=0),
    Message('note_on', channel=3, note=75, velocity=0, time=384),
    Message('note_on', channel=3, note=77, velocity=127, time=0),
    Message('note_on', channel=3, note=77, velocity=0, time=96),
    Message('note_on', channel=3, note=77, velocity=127, time=0),
    Message('note_on', channel=3, note=77, velocity=0, time=192),
    Message('note_on', channel=3, note=75, velocity=127, time=0),
    Message('note_on', channel=3, note=75, velocity=0, time=96),
    Message('note_on', channel=3, note=72, velocity=127, time=0),
    Message('note_on', channel=3, note=72, velocity=0, time=384),
    Message('note_on', channel=3, note=77, velocity=127, time=0),
    Message('note_on', channel=3, note=77, velocity=0, time=96),
    Message('note_on', channel=3, note=75, velocity=127, time=0),
    Message('note_on', channel=3, note=75, velocity=0, time=192),
    Message('note_on', channel=3, note=77, velocity=127, time=0),
    Message('note_on', channel=3, note=77, velocity=0, time=96),
    Message('note_on', channel=3, note=75, velocity=127, time=0),
    Message('note_on', channel=3, note=75, velocity=0, time=192),
    Message('note_on', channel=3, note=75, velocity=127, time=0),
    Message('note_on', channel=3, note=75, velocity=0, time=96),
    Message('note_on', channel=3, note=77, velocity=127, time=0),
    Message('note_on', channel=3, note=77, velocity=0, time=96),
    Message('note_on', channel=3, note=75, velocity=127, time=0),
    Message('note_on', channel=3, note=75, velocity=0, time=192),
    Message('note_on', channel=3, note=75, velocity=127, time=0),
    Message('note_on', channel=3, note=75, velocity=0, time=96),
    Message('note_on', channel=3, note=77, velocity=127, time=0),
    Message('note_on', channel=3, note=77, velocity=0, time=96),
    Message('note_on', channel=3, note=75, velocity=127, time=0),
    Message('note_on', channel=3, note=75, velocity=0, time=192),
    Message('note_on', channel=3, note=77, velocity=127, time=288),
    Message('note_on', channel=3, note=77, velocity=0, time=288),
    Message('note_on', channel=3, note=75, velocity=127, time=0),
    Message('note_on', channel=3, note=75, velocity=0, time=288),
    Message('note_on', channel=3, note=75, velocity=127, time=0),
    Message('note_on', channel=3, note=75, velocity=0, time=96),
    Message('note_on', channel=3, note=77, velocity=127, time=0),
    Message('note_on', channel=3, note=77, velocity=0, time=96),
    Message('note_on', channel=3, note=75, velocity=127, time=0),
    Message('note_on', channel=3, note=75, velocity=0, time=96),
    Message('note_on', channel=3, note=77, velocity=127, time=0),
    Message('note_on', channel=3, note=77, velocity=0, time=96),
    Message('note_on', channel=3, note=75, velocity=127, time=0),
    Message('note_on', channel=3, note=75, velocity=0, time=96),
    Message('note_on', channel=3, note=72, velocity=127, time=0),
    Message('note_on', channel=3, note=72, velocity=0, time=384),
    Message('note_on', channel=3, note=77, velocity=127, time=0),
    Message('note_on', channel=3, note=77, velocity=0, time=96),
    Message('note_on', channel=3, note=75, velocity=127, time=0),
    Message('note_on', channel=3, note=75, velocity=0, time=192),
    Message('note_on', channel=3, note=72, velocity=127, time=0),
    Message('note_on', channel=3, note=72, velocity=0, time=96),
    Message('note_on', channel=3, note=70, velocity=127, time=0),
    Message('note_on', channel=3, note=70, velocity=0, time=192),
    Message('note_on', channel=3, note=68, velocity=127, time=0),
    Message('note_on', channel=3, note=68, velocity=0, time=96),
    Message('note_on', channel=3, note=70, velocity=127, time=0),
    Message('note_on', channel=3, note=70, velocity=0, time=192),
    Message('note_on', channel=3, note=68, velocity=127, time=0),
    Message('note_on', channel=3, note=68, velocity=0, time=96),
    Message('note_on', channel=3, note=70, velocity=127, time=0),
    Message('note_on', channel=3, note=70, velocity=0, time=288),
    Message('note_on', channel=3, note=68, velocity=127, time=0),
    Message('note_on', channel=3, note=68, velocity=0, time=96),
    Message('note_on', channel=3, note=70, velocity=127, time=0),
    Message('note_on', channel=3, note=70, velocity=0, time=96),
    Message('note_on', channel=3, note=65, velocity=127, time=0),
    Message('note_on', channel=3, note=65, velocity=0, time=1632),
    Message('note_on', channel=3, note=72, velocity=127, time=4896),
    Message('note_on', channel=3, note=72, velocity=0, time=288),
    Message('note_on', channel=3, note=72, velocity=127, time=0),
    Message('note_on', channel=3, note=72, velocity=0, time=192),
    Message('note_on', channel=3, note=77, velocity=127, time=0),
    Message('note_on', channel=3, note=77, velocity=0, time=576),
    Message('note_on', channel=3, note=68, velocity=127, time=0),
    Message('note_on', channel=3, note=68, velocity=0, time=192),
    Message('note_on', channel=3, note=72, velocity=127, time=0),
    Message('note_on', channel=3, note=72, velocity=0, time=384),
    Message('note_on', channel=3, note=70, velocity=127, time=0),
    Message('note_on', channel=3, note=70, velocity=0, time=96),
    Message('note_on', channel=3, note=72, velocity=127, time=0),
    Message('note_on', channel=3, note=72, velocity=0, time=192),
    Message('note_on', channel=3, note=70, velocity=127, time=0),
    Message('note_on', channel=3, note=70, velocity=0, time=288),
    Message('note_on', channel=3, note=68, velocity=127, time=0),
    Message('note_on', channel=3, note=68, velocity=0, time=384),
    Message('note_on', channel=3, note=70, velocity=127, time=576),
    Message('note_on', channel=3, note=70, velocity=0, time=96),
    Message('note_on', channel=3, note=72, velocity=127, time=0),
    Message('note_on', channel=3, note=72, velocity=0, time=288),
    Message('note_on', channel=3, note=77, velocity=127, time=0),
    Message('note_on', channel=3, note=77, velocity=0, time=576),
    Message('note_on', channel=3, note=68, velocity=127, time=0),
    Message('note_on', channel=3, note=68, velocity=0, time=192),
    Message('note_on', channel=3, note=72, velocity=127, time=0),
    Message('note_on', channel=3, note=72, velocity=0, time=384),
    Message('note_on', channel=3, note=70, velocity=127, time=0),
    Message('note_on', channel=3, note=70, velocity=0, time=192),
    Message('note_on', channel=3, note=72, velocity=127, time=0),
    Message('note_on', channel=3, note=72, velocity=0, time=96),
    Message('note_on', channel=3, note=70, velocity=127, time=0),
    Message('note_on', channel=3, note=70, velocity=0, time=288),
    Message('note_on', channel=3, note=70, velocity=127, time=0),
    Message('note_on', channel=3, note=70, velocity=0, time=576),
    Message('note_on', channel=3, note=70, velocity=127, time=960),
    Message('note_on', channel=3, note=70, velocity=0, time=96),
    Message('note_on', channel=3, note=68, velocity=127, time=0),
    Message('note_on', channel=3, note=68, velocity=0, time=288),
    Message('note_on', channel=3, note=70, velocity=127, time=0),
    Message('note_on', channel=3, note=70, velocity=0, time=192),
    Message('note_on', channel=3, note=65, velocity=127, time=0),
    Message('note_on', channel=3, note=65, velocity=0, time=1536),
    Message('note_on', channel=3, note=79, velocity=127, time=384),
    Message('note_on', channel=3, note=79, velocity=0, time=192),
    Message('note_on', channel=3, note=80, velocity=127, time=0),
    Message('note_on', channel=3, note=80, velocity=0, time=192),
    Message('note_on', channel=3, note=80, velocity=127, time=0),
    Message('note_on', channel=3, note=80, velocity=0, time=96),
    Message('note_on', channel=3, note=79, velocity=127, time=0),
    Message('note_on', channel=3, note=79, velocity=0, time=96),
    Message('note_on', channel=3, note=77, velocity=127, time=0),
    Message('note_on', channel=3, note=77, velocity=0, time=192),
    Message('note_on', channel=3, note=77, velocity=127, time=576),
    Message('note_on', channel=3, note=77, velocity=0, time=192),
    Message('note_on', channel=3, note=79, velocity=127, time=0),
    Message('note_on', channel=3, note=79, velocity=0, time=192),
    Message('note_on', channel=3, note=80, velocity=127, time=0),
    Message('note_on', channel=3, note=80, velocity=0, time=96),
    Message('note_on', channel=3, note=79, velocity=127, time=0),
    Message('note_on', channel=3, note=79, velocity=0, time=192),
    Message('note_on', channel=3, note=80, velocity=127, time=0),
    Message('note_on', channel=3, note=80, velocity=0, time=96),
    Message('note_on', channel=3, note=77, velocity=127, time=0),
    Message('note_on', channel=3, note=77, velocity=0, time=576),
    Message('note_on', channel=3, note=80, velocity=127, time=192),
    Message('note_on', channel=3, note=80, velocity=0, time=192),
    Message('note_on', channel=3, note=79, velocity=127, time=0),
    Message('note_on', channel=3, note=79, velocity=0, time=96),
    Message('note_on', channel=3, note=77, velocity=127, time=0),
    Message('note_on', channel=3, note=77, velocity=0, time=288),
    Message('note_on', channel=3, note=79, velocity=127, time=0),
    Message('note_on', channel=3, note=79, velocity=0, time=192),
    Message('note_on', channel=3, note=79, velocity=127, time=0),
    Message('note_on', channel=3, note=79, velocity=0, time=96),
    Message('note_on', channel=3, note=80, velocity=127, time=0),
    Message('note_on', channel=3, note=80, velocity=0, time=96),
    Message('note_on', channel=3, note=79, velocity=127, time=0),
    Message('note_on', channel=3, note=79, velocity=0, time=96),
    Message('note_on', channel=3, note=77, velocity=127, time=0),
    Message('note_on', channel=3, note=77, velocity=0, time=96),
    Message('note_on', channel=3, note=80, velocity=127, time=192),
    Message('note_on', channel=3, note=80, velocity=0, time=192),
    Message('note_on', channel=3, note=77, velocity=127, time=0),
    Message('note_on', channel=3, note=77, velocity=0, time=96),
    Message('note_on', channel=3, note=75, velocity=127, time=0),
    Message('note_on', channel=3, note=75, velocity=0, time=96),
    Message('note_on', channel=3, note=77, velocity=127, time=0),
    Message('note_on', channel=3, note=77, velocity=0, time=192),
    Message('note_on', channel=3, note=75, velocity=127, time=0),
    Message('note_on', channel=3, note=75, velocity=0, time=96),
    Message('note_on', channel=3, note=77, velocity=127, time=0),
    Message('note_on', channel=3, note=77, velocity=0, time=96),
    Message('note_on', channel=3, note=75, velocity=127, time=0),
    Message('note_on', channel=3, note=75, velocity=0, time=96),
    Message('note_on', channel=3, note=77, velocity=127, time=0),
    Message('note_on', channel=3, note=77, velocity=0, time=96),
    Message('note_on', channel=3, note=75, velocity=127, time=0),
    Message('note_on', channel=3, note=75, velocity=0, time=96),
    Message('note_on', channel=3, note=77, velocity=127, time=0),
    Message('note_on', channel=3, note=77, velocity=0, time=192),
    Message('note_on', channel=3, note=75, velocity=127, time=0),
    Message('note_on', channel=3, note=75, velocity=0, time=96),
    Message('note_on', channel=3, note=77, velocity=127, time=0),
    Message('note_on', channel=3, note=77, velocity=0, time=192),
    Message('note_on', channel=3, note=80, velocity=127, time=192),
    Message('note_on', channel=3, note=80, velocity=0, time=192),
    Message('note_on', channel=3, note=79, velocity=127, time=0),
    Message('note_on', channel=3, note=79, velocity=0, time=96),
    Message('note_on', channel=3, note=77, velocity=127, time=0),
    Message('note_on', channel=3, note=77, velocity=0, time=96),
    Message('note_on', channel=3, note=79, velocity=127, time=0),
    Message('note_on', channel=3, note=79, velocity=0, time=96),
    Message('note_on', channel=3, note=77, velocity=127, time=0),
    Message('note_on', channel=3, note=77, velocity=0, time=96),
    Message('note_on', channel=3, note=79, velocity=127, time=0),
    Message('note_on', channel=3, note=79, velocity=0, time=96),
    Message('note_on', channel=3, note=79, velocity=127, time=0),
    Message('note_on', channel=3, note=79, velocity=0, time=192),
    Message('note_on', channel=3, note=80, velocity=127, time=0),
    Message('note_on', channel=3, note=80, velocity=0, time=96),
    Message('note_on', channel=3, note=79, velocity=127, time=0),
    Message('note_on', channel=3, note=79, velocity=0, time=96),
    Message('note_on', channel=3, note=77, velocity=127, time=0),
    Message('note_on', channel=3, note=77, velocity=0, time=96),
    Message('note_on', channel=3, note=80, velocity=127, time=192),
    Message('note_on', channel=3, note=80, velocity=0, time=96),
    Message('note_on', channel=3, note=80, velocity=127, time=0),
    Message('note_on', channel=3, note=80, velocity=0, time=96),
    Message('note_on', channel=3, note=80, velocity=127, time=0),
    Message('note_on', channel=3, note=80, velocity=0, time=96),
    Message('note_on', channel=3, note=80, velocity=127, time=0),
    Message('note_on', channel=3, note=80, velocity=0, time=96),
    Message('note_on', channel=3, note=79, velocity=127, time=0),
    Message('note_on', channel=3, note=79, velocity=0, time=96),
    Message('note_on', channel=3, note=77, velocity=127, time=0),
    Message('note_on', channel=3, note=77, velocity=0, time=192),
    Message('note_on', channel=3, note=79, velocity=127, time=0),
    Message('note_on', channel=3, note=79, velocity=0, time=96),
    Message('note_on', channel=3, note=80, velocity=127, time=0),
    Message('note_on', channel=3, note=80, velocity=0, time=96),
    Message('note_on', channel=3, note=80, velocity=127, time=0),
    Message('note_on', channel=3, note=80, velocity=0, time=96),
    Message('note_on', channel=3, note=79, velocity=127, time=0),
    Message('note_on', channel=3, note=79, velocity=0, time=96),
    Message('note_on', channel=3, note=77, velocity=127, time=0),
    Message('note_on', channel=3, note=77, velocity=0, time=96),
    Message('note_on', channel=3, note=79, velocity=127, time=0),
    Message('note_on', channel=3, note=79, velocity=0, time=96),
    Message('note_on', channel=3, note=77, velocity=127, time=0),
    Message('note_on', channel=3, note=77, velocity=0, time=96),
    Message('note_on', channel=3, note=77, velocity=127, time=0),
    Message('note_on', channel=3, note=77, velocity=0, time=96),
    Message('note_on', channel=3, note=79, velocity=127, time=0),
    Message('note_on', channel=3, note=79, velocity=0, time=768),
    Message('note_on', channel=3, note=75, velocity=127, time=0),
    Message('note_on', channel=3, note=75, velocity=0, time=288),
    Message('note_on', channel=3, note=72, velocity=127, time=0),
    Message('note_on', channel=3, note=72, velocity=0, time=96),
    Message('note_on', channel=3, note=70, velocity=127, time=0),
    Message('note_on', channel=3, note=70, velocity=0, time=96),
    Message('note_on', channel=3, note=72, velocity=127, time=0),
    Message('note_on', channel=3, note=72, velocity=0, time=1152),
    Message('note_on', channel=3, note=80, velocity=127, time=20928),
    Message('note_on', channel=3, note=80, velocity=0, time=192),
    Message('note_on', channel=3, note=79, velocity=127, time=0),
    Message('note_on', channel=3, note=79, velocity=0, time=96),
    Message('note_on', channel=3, note=77, velocity=127, time=0),
    Message('note_on', channel=3, note=77, velocity=0, time=288),
    Message('note_on', channel=3, note=80, velocity=127, time=192),
    Message('note_on', channel=3, note=80, velocity=0, time=192),
    Message('note_on', channel=3, note=79, velocity=127, time=0),
    Message('note_on', channel=3, note=79, velocity=0, time=96),
    Message('note_on', channel=3, note=77, velocity=127, time=0),
    Message('note_on', channel=3, note=77, velocity=0, time=288),
    Message('note_on', channel=3, note=80, velocity=127, time=192),
    Message('note_on', channel=3, note=80, velocity=0, time=192),
    Message('note_on', channel=3, note=79, velocity=127, time=0),
    Message('note_on', channel=3, note=79, velocity=0, time=96),
    Message('note_on', channel=3, note=77, velocity=127, time=0),
    Message('note_on', channel=3, note=77, velocity=0, time=288),
    Message('note_on', channel=3, note=80, velocity=127, time=0),
    Message('note_on', channel=3, note=80, velocity=0, time=96),
    Message('note_on', channel=3, note=80, velocity=127, time=0),
    Message('note_on', channel=3, note=80, velocity=0, time=96),
    Message('note_on', channel=3, note=79, velocity=127, time=0),
    Message('note_on', channel=3, note=79, velocity=0, time=96),
    Message('note_on', channel=3, note=77, velocity=127, time=0),
    Message('note_on', channel=3, note=77, velocity=0, time=96),
    Message('note_on', channel=3, note=77, velocity=127, time=0),
    Message('note_on', channel=3, note=77, velocity=0, time=192),
    Message('note_on', channel=3, note=77, velocity=127, time=0),
    Message('note_on', channel=3, note=77, velocity=0, time=192),
    Message('note_on', channel=3, note=80, velocity=127, time=0),
    Message('note_on', channel=3, note=80, velocity=0, time=768),
    Message('note_on', channel=3, note=77, velocity=127, time=0),
    Message('note_on', channel=3, note=77, velocity=0, time=768),
    Message('note_on', channel=3, note=80, velocity=127, time=1728),
    Message('note_on', channel=3, note=80, velocity=0, time=192),
    Message('note_on', channel=3, note=79, velocity=127, time=0),
    Message('note_on', channel=3, note=79, velocity=0, time=96),
    Message('note_on', channel=3, note=77, velocity=127, time=0),
    Message('note_on', channel=3, note=77, velocity=0, time=288),
    Message('note_on', channel=3, note=80, velocity=127, time=192),
    Message('note_on', channel=3, note=80, velocity=0, time=192),
    Message('note_on', channel=3, note=79, velocity=127, time=0),
    Message('note_on', channel=3, note=79, velocity=0, time=96),
    Message('note_on', channel=3, note=77, velocity=127, time=0),
    Message('note_on', channel=3, note=77, velocity=0, time=288),
    Message('note_on', channel=3, note=80, velocity=127, time=192),
    Message('note_on', channel=3, note=80, velocity=0, time=192),
    Message('note_on', channel=3, note=79, velocity=127, time=0),
    Message('note_on', channel=3, note=79, velocity=0, time=96),
    Message('note_on', channel=3, note=77, velocity=127, time=0),
    Message('note_on', channel=3, note=77, velocity=0, time=288),
    Message('note_on', channel=3, note=80, velocity=127, time=0),
    Message('note_on', channel=3, note=80, velocity=0, time=96),
    Message('note_on', channel=3, note=80, velocity=127, time=0),
    Message('note_on', channel=3, note=80, velocity=0, time=96),
    Message('note_on', channel=3, note=79, velocity=127, time=0),
    Message('note_on', channel=3, note=79, velocity=0, time=96),
    Message('note_on', channel=3, note=77, velocity=127, time=0),
    Message('note_on', channel=3, note=77, velocity=0, time=96),
    Message('note_on', channel=3, note=77, velocity=127, time=0),
    Message('note_on', channel=3, note=77, velocity=0, time=192),
    Message('note_on', channel=3, note=77, velocity=127, time=0),
    Message('note_on', channel=3, note=77, velocity=0, time=192),
    Message('note_on', channel=3, note=77, velocity=127, time=192),
    Message('note_on', channel=3, note=77, velocity=0, time=192),
    Message('note_on', channel=3, note=80, velocity=127, time=2880),
    Message('note_on', channel=3, note=80, velocity=0, time=192),
    Message('note_on', channel=3, note=79, velocity=127, time=0),
    Message('note_on', channel=3, note=79, velocity=0, time=96),
    Message('note_on', channel=3, note=77, velocity=127, time=0),
    Message('note_on', channel=3, note=77, velocity=0, time=288),
    Message('note_on', channel=3, note=80, velocity=127, time=192),
    Message('note_on', channel=3, note=80, velocity=0, time=192),
    Message('note_on', channel=3, note=79, velocity=127, time=0),
    Message('note_on', channel=3, note=79, velocity=0, time=96),
    Message('note_on', channel=3, note=77, velocity=127, time=0),
    Message('note_on', channel=3, note=77, velocity=0, time=288),
    Message('note_on', channel=3, note=80, velocity=127, time=192),
    Message('note_on', channel=3, note=80, velocity=0, time=192),
    Message('note_on', channel=3, note=79, velocity=127, time=0),
    Message('note_on', channel=3, note=79, velocity=0, time=96),
    Message('note_on', channel=3, note=77, velocity=127, time=0),
    Message('note_on', channel=3, note=77, velocity=0, time=288),
    Message('note_on', channel=3, note=80, velocity=127, time=192),
    Message('note_on', channel=3, note=80, velocity=0, time=192),
    Message('note_on', channel=3, note=79, velocity=127, time=0),
    Message('note_on', channel=3, note=79, velocity=0, time=96),
    Message('note_on', channel=3, note=77, velocity=127, time=0),
    Message('note_on', channel=3, note=77, velocity=0, time=288),
    Message('note_on', channel=3, note=92, velocity=127, time=192),
    Message('note_on', channel=3, note=92, velocity=0, time=192),
    Message('note_on', channel=3, note=91, velocity=127, time=0),
    Message('note_on', channel=3, note=91, velocity=0, time=96),
    Message('note_on', channel=3, note=89, velocity=127, time=0),
    Message('note_on', channel=3, note=89, velocity=0, time=288),
    Message('note_on', channel=3, note=92, velocity=127, time=192),
    Message('note_on', channel=3, note=92, velocity=0, time=192),
    Message('note_on', channel=3, note=91, velocity=127, time=0),
    Message('note_on', channel=3, note=91, velocity=0, time=96),
    Message('note_on', channel=3, note=89, velocity=127, time=0),
    Message('note_on', channel=3, note=89, velocity=0, time=288),
    Message('note_on', channel=3, note=92, velocity=127, time=192),
    Message('note_on', channel=3, note=92, velocity=0, time=192),
    Message('note_on', channel=3, note=91, velocity=127, time=0),
    Message('note_on', channel=3, note=91, velocity=0, time=96),
    Message('note_on', channel=3, note=89, velocity=127, time=0),
    Message('note_on', channel=3, note=89, velocity=0, time=288),
    Message('note_on', channel=3, note=92, velocity=127, time=192),
    Message('note_on', channel=3, note=92, velocity=0, time=576),
    Message('note_on', channel=3, note=91, velocity=127, time=0),
    Message('note_on', channel=3, note=91, velocity=0, time=192),
    Message('note_on', channel=3, note=92, velocity=127, time=0),
    Message('note_on', channel=3, note=92, velocity=0, time=192),
    Message('note_on', channel=3, note=91, velocity=127, time=0),
    Message('note_on', channel=3, note=91, velocity=0, time=192),
    Message('note_on', channel=3, note=92, velocity=127, time=0),
    Message('note_on', channel=3, note=92, velocity=0, time=192),
    Message('note_on', channel=3, note=91, velocity=127, time=0),
    Message('note_on', channel=3, note=91, velocity=0, time=192),
    Message('note_on', channel=3, note=92, velocity=127, time=0),
    Message('note_on', channel=3, note=92, velocity=0, time=192),
    Message('note_on', channel=3, note=91, velocity=127, time=0),
    Message('note_on', channel=3, note=91, velocity=0, time=192),
    Message('note_on', channel=3, note=92, velocity=127, time=0),
    Message('note_on', channel=3, note=92, velocity=0, time=192),
    Message('note_on', channel=3, note=91, velocity=127, time=0),
    Message('note_on', channel=3, note=91, velocity=0, time=192),
    Message('note_on', channel=3, note=92, velocity=127, time=0),
    Message('note_on', channel=3, note=92, velocity=0, time=192),
    Message('note_on', channel=3, note=91, velocity=127, time=0),
    Message('note_on', channel=3, note=91, velocity=0, time=192),
    Message('note_on', channel=3, note=92, velocity=127, time=0),
    Message('note_on', channel=3, note=92, velocity=0, time=192),
    Message('note_on', channel=3, note=91, velocity=127, time=0),
    Message('note_on', channel=3, note=91, velocity=0, time=192),
    Message('note_on', channel=3, note=92, velocity=127, time=0),
    Message('note_on', channel=3, note=92, velocity=0, time=192),
    Message('note_on', channel=3, note=91, velocity=127, time=0),
    Message('note_on', channel=3, note=91, velocity=0, time=192),
    Message('note_on', channel=3, note=92, velocity=127, time=0),
    Message('note_on', channel=3, note=92, velocity=0, time=192),
    Message('note_on', channel=3, note=80, velocity=127, time=192),
    Message('note_on', channel=3, note=80, velocity=0, time=192),
    Message('note_on', channel=3, note=79, velocity=127, time=0),
    Message('note_on', channel=3, note=79, velocity=0, time=96),
    Message('note_on', channel=3, note=77, velocity=127, time=0),
    Message('note_on', channel=3, note=77, velocity=0, time=288),
    Message('note_on', channel=3, note=79, velocity=127, time=0),
    Message('note_on', channel=3, note=79, velocity=0, time=192),
    Message('note_on', channel=3, note=79, velocity=127, time=0),
    Message('note_on', channel=3, note=79, velocity=0, time=96),
    Message('note_on', channel=3, note=80, velocity=127, time=0),
    Message('note_on', channel=3, note=80, velocity=0, time=96),
    Message('note_on', channel=3, note=79, velocity=127, time=0),
    Message('note_on', channel=3, note=79, velocity=0, time=96),
    Message('note_on', channel=3, note=77, velocity=127, time=0),
    Message('note_on', channel=3, note=77, velocity=0, time=96),
    Message('note_on', channel=3, note=80, velocity=127, time=192),
    Message('note_on', channel=3, note=80, velocity=0, time=192),
    Message('note_on', channel=3, note=77, velocity=127, time=0),
    Message('note_on', channel=3, note=77, velocity=0, time=96),
    Message('note_on', channel=3, note=75, velocity=127, time=0),
    Message('note_on', channel=3, note=75, velocity=0, time=96),
    Message('note_on', channel=3, note=77, velocity=127, time=0),
    Message('note_on', channel=3, note=77, velocity=0, time=192),
    Message('note_on', channel=3, note=75, velocity=127, time=0),
    Message('note_on', channel=3, note=75, velocity=0, time=96),
    Message('note_on', channel=3, note=77, velocity=127, time=0),
    Message('note_on', channel=3, note=77, velocity=0, time=288),
    Message('note_on', channel=3, note=75, velocity=127, time=0),
    Message('note_on', channel=3, note=75, velocity=0, time=96),
    Message('note_on', channel=3, note=77, velocity=127, time=0),
    Message('note_on', channel=3, note=77, velocity=0, time=96),
    Message('note_on', channel=3, note=75, velocity=127, time=0),
    Message('note_on', channel=3, note=75, velocity=0, time=96),
    Message('note_on', channel=3, note=77, velocity=127, time=0),
    Message('note_on', channel=3, note=77, velocity=0, time=96),
    Message('note_on', channel=3, note=75, velocity=127, time=0),
    Message('note_on', channel=3, note=75, velocity=0, time=96),
    Message('note_on', channel=3, note=77, velocity=127, time=0),
    Message('note_on', channel=3, note=77, velocity=0, time=96),
    Message('note_on', channel=3, note=80, velocity=127, time=192),
    Message('note_on', channel=3, note=80, velocity=0, time=192),
    Message('note_on', channel=3, note=79, velocity=127, time=0),
    Message('note_on', channel=3, note=79, velocity=0, time=96),
    Message('note_on', channel=3, note=77, velocity=127, time=0),
    Message('note_on', channel=3, note=77, velocity=0, time=96),
    Message('note_on', channel=3, note=79, velocity=127, time=0),
    Message('note_on', channel=3, note=79, velocity=0, time=96),
    Message('note_on', channel=3, note=77, velocity=127, time=0),
    Message('note_on', channel=3, note=77, velocity=0, time=96),
    Message('note_on', channel=3, note=79, velocity=127, time=0),
    Message('note_on', channel=3, note=79, velocity=0, time=96),
    Message('note_on', channel=3, note=79, velocity=127, time=0),
    Message('note_on', channel=3, note=79, velocity=0, time=192),
    Message('note_on', channel=3, note=80, velocity=127, time=0),
    Message('note_on', channel=3, note=80, velocity=0, time=96),
    Message('note_on', channel=3, note=79, velocity=127, time=0),
    Message('note_on', channel=3, note=79, velocity=0, time=96),
    Message('note_on', channel=3, note=77, velocity=127, time=0),
    Message('note_on', channel=3, note=77, velocity=0, time=96),
    Message('note_on', channel=3, note=80, velocity=127, time=192),
    Message('note_on', channel=3, note=80, velocity=0, time=96),
    Message('note_on', channel=3, note=80, velocity=127, time=0),
    Message('note_on', channel=3, note=80, velocity=0, time=96),
    Message('note_on', channel=3, note=77, velocity=127, time=0),
    Message('note_on', channel=3, note=77, velocity=0, time=96),
    Message('note_on', channel=3, note=80, velocity=127, time=0),
    Message('note_on', channel=3, note=80, velocity=0, time=96),
    Message('note_on', channel=3, note=79, velocity=127, time=0),
    Message('note_on', channel=3, note=79, velocity=0, time=96),
    Message('note_on', channel=3, note=80, velocity=127, time=0),
    Message('note_on', channel=3, note=80, velocity=0, time=192),
    Message('note_on', channel=3, note=79, velocity=127, time=0),
    Message('note_on', channel=3, note=79, velocity=0, time=96),
    Message('note_on', channel=3, note=80, velocity=127, time=0),
    Message('note_on', channel=3, note=80, velocity=0, time=192),
    Message('note_on', channel=3, note=80, velocity=127, time=0),
    Message('note_on', channel=3, note=80, velocity=0, time=96),
    Message('note_on', channel=3, note=77, velocity=127, time=0),
    Message('note_on', channel=3, note=77, velocity=0, time=96),
    Message('note_on', channel=3, note=77, velocity=127, time=0),
    Message('note_on', channel=3, note=77, velocity=0, time=96),
    Message('note_on', channel=3, note=77, velocity=127, time=0),
    Message('note_on', channel=3, note=77, velocity=0, time=96),
    Message('note_on', channel=3, note=75, velocity=127, time=0),
    Message('note_on', channel=3, note=75, velocity=0, time=96),
    Message('note_on', channel=3, note=77, velocity=127, time=0),
    Message('note_on', channel=3, note=77, velocity=0, time=96),
    Message('note_on', channel=3, note=80, velocity=127, time=192),
    Message('note_on', channel=3, note=80, velocity=0, time=192),
    Message('note_on', channel=3, note=79, velocity=127, time=0),
    Message('note_on', channel=3, note=79, velocity=0, time=96),
    Message('note_on', channel=3, note=77, velocity=127, time=0),
    Message('note_on', channel=3, note=77, velocity=0, time=288),
    Message('note_on', channel=3, note=79, velocity=127, time=0),
    Message('note_on', channel=3, note=79, velocity=0, time=192),
    Message('note_on', channel=3, note=79, velocity=127, time=0),
    Message('note_on', channel=3, note=79, velocity=0, time=96),
    Message('note_on', channel=3, note=80, velocity=127, time=0),
    Message('note_on', channel=3, note=80, velocity=0, time=96),
    Message('note_on', channel=3, note=79, velocity=127, time=0),
    Message('note_on', channel=3, note=79, velocity=0, time=96),
    Message('note_on', channel=3, note=77, velocity=127, time=0),
    Message('note_on', channel=3, note=77, velocity=0, time=96),
    Message('note_on', channel=3, note=80, velocity=127, time=192),
    Message('note_on', channel=3, note=80, velocity=0, time=192),
    Message('note_on', channel=3, note=77, velocity=127, time=0),
    Message('note_on', channel=3, note=77, velocity=0, time=96),
    Message('note_on', channel=3, note=75, velocity=127, time=0),
    Message('note_on', channel=3, note=75, velocity=0, time=96),
    Message('note_on', channel=3, note=77, velocity=127, time=0),
    Message('note_on', channel=3, note=77, velocity=0, time=192),
    Message('note_on', channel=3, note=75, velocity=127, time=0),
    Message('note_on', channel=3, note=75, velocity=0, time=96),
    Message('note_on', channel=3, note=77, velocity=127, time=0),
    Message('note_on', channel=3, note=77, velocity=0, time=288),
    Message('note_on', channel=3, note=75, velocity=127, time=0),
    Message('note_on', channel=3, note=75, velocity=0, time=96),
    Message('note_on', channel=3, note=77, velocity=127, time=0),
    Message('note_on', channel=3, note=77, velocity=0, time=96),
    Message('note_on', channel=3, note=75, velocity=127, time=0),
    Message('note_on', channel=3, note=75, velocity=0, time=96),
    Message('note_on', channel=3, note=77, velocity=127, time=0),
    Message('note_on', channel=3, note=77, velocity=0, time=96),
    Message('note_on', channel=3, note=75, velocity=127, time=0),
    Message('note_on', channel=3, note=75, velocity=0, time=96),
    Message('note_on', channel=3, note=77, velocity=127, time=0),
    Message('note_on', channel=3, note=77, velocity=0, time=96),
    Message('note_on', channel=3, note=80, velocity=127, time=192),
    Message('note_on', channel=3, note=80, velocity=0, time=192),
    Message('note_on', channel=3, note=79, velocity=127, time=0),
    Message('note_on', channel=3, note=79, velocity=0, time=96),
    Message('note_on', channel=3, note=77, velocity=127, time=0),
    Message('note_on', channel=3, note=77, velocity=0, time=96),
    Message('note_on', channel=3, note=79, velocity=127, time=0),
    Message('note_on', channel=3, note=79, velocity=0, time=96),
    Message('note_on', channel=3, note=77, velocity=127, time=0),
    Message('note_on', channel=3, note=77, velocity=0, time=96),
    Message('note_on', channel=3, note=79, velocity=127, time=0),
    Message('note_on', channel=3, note=79, velocity=0, time=96),
    Message('note_on', channel=3, note=79, velocity=127, time=0),
    Message('note_on', channel=3, note=79, velocity=0, time=192),
    Message('note_on', channel=3, note=80, velocity=127, time=0),
    Message('note_on', channel=3, note=80, velocity=0, time=96),
    Message('note_on', channel=3, note=79, velocity=127, time=0),
    Message('note_on', channel=3, note=79, velocity=0, time=96),
    Message('note_on', channel=3, note=77, velocity=127, time=0),
    Message('note_on', channel=3, note=77, velocity=0, time=96),
    Message('note_on', channel=3, note=80, velocity=127, time=192),
    Message('note_on', channel=3, note=80, velocity=0, time=96),
    Message('note_on', channel=3, note=80, velocity=127, time=0),
    Message('note_on', channel=3, note=80, velocity=0, time=96),
    Message('note_on', channel=3, note=80, velocity=127, time=0),
    Message('note_on', channel=3, note=80, velocity=0, time=96),
    Message('note_on', channel=3, note=80, velocity=127, time=0),
    Message('note_on', channel=3, note=80, velocity=0, time=192),
    Message('note_on', channel=3, note=77, velocity=127, time=0),
    Message('note_on', channel=3, note=77, velocity=0, time=192),
    Message('note_on', channel=3, note=77, velocity=127, time=0),
    Message('note_on', channel=3, note=77, velocity=0, time=96),
    Message('note_on', channel=3, note=80, velocity=127, time=0),
    Message('note_on', channel=3, note=80, velocity=0, time=96),
    Message('note_on', channel=3, note=80, velocity=127, time=0),
    Message('note_on', channel=3, note=80, velocity=0, time=96),
    Message('note_on', channel=3, note=79, velocity=127, time=0),
    Message('note_on', channel=3, note=79, velocity=0, time=96),
    Message('note_on', channel=3, note=77, velocity=127, time=0),
    Message('note_on', channel=3, note=77, velocity=0, time=96),
    Message('note_on', channel=3, note=79, velocity=127, time=0),
    Message('note_on', channel=3, note=79, velocity=0, time=96),
    Message('note_on', channel=3, note=79, velocity=127, time=0),
    Message('note_on', channel=3, note=79, velocity=0, time=192),
    Message('note_on', channel=3, note=77, velocity=127, time=0),
    Message('note_on', channel=3, note=77, velocity=0, time=96),
    Message('note_on', channel=3, note=79, velocity=127, time=0),
    Message('note_on', channel=3, note=79, velocity=0, time=768),
    MetaMessage('end_of_track', time=0)]),
  MidiTrack([
    MetaMessage('midi_port', port=0, time=0),
    MetaMessage('track_name', name='Ending Organ', time=0),
    Message('control_change', channel=4, control=0, value=0, time=0),
    Message('control_change', channel=4, control=32, value=0, time=0),
    Message('program_change', channel=4, program=18, time=0),
    Message('note_on', channel=4, note=67, velocity=120, time=127488),
    Message('note_on', channel=4, note=65, velocity=120, time=0),
    Message('note_on', channel=4, note=61, velocity=120, time=0),
    Message('note_on', channel=4, note=61, velocity=0, time=192),
    Message('note_on', channel=4, note=65, velocity=0, time=0),
    Message('note_on', channel=4, note=67, velocity=0, time=0),
    Message('note_on', channel=4, note=60, velocity=120, time=0),
    Message('note_on', channel=4, note=60, velocity=0, time=192),
    Message('note_on', channel=4, note=67, velocity=120, time=0),
    Message('note_on', channel=4, note=65, velocity=120, time=0),
    Message('note_on', channel=4, note=61, velocity=120, time=0),
    Message('note_on', channel=4, note=61, velocity=0, time=192),
    Message('note_on', channel=4, note=65, velocity=0, time=0),
    Message('note_on', channel=4, note=67, velocity=0, time=0),
    Message('note_on', channel=4, note=60, velocity=120, time=0),
    Message('note_on', channel=4, note=60, velocity=0, time=192),
    Message('note_on', channel=4, note=67, velocity=120, time=0),
    Message('note_on', channel=4, note=65, velocity=120, time=0),
    Message('note_on', channel=4, note=61, velocity=120, time=0),
    Message('note_on', channel=4, note=61, velocity=0, time=192),
    Message('note_on', channel=4, note=65, velocity=0, time=0),
    Message('note_on', channel=4, note=67, velocity=0, time=0),
    Message('note_on', channel=4, note=60, velocity=120, time=0),
    Message('note_on', channel=4, note=60, velocity=0, time=192),
    Message('note_on', channel=4, note=67, velocity=120, time=0),
    Message('note_on', channel=4, note=65, velocity=120, time=0),
    Message('note_on', channel=4, note=61, velocity=120, time=0),
    Message('note_on', channel=4, note=61, velocity=0, time=192),
    Message('note_on', channel=4, note=65, velocity=0, time=0),
    Message('note_on', channel=4, note=67, velocity=0, time=0),
    Message('note_on', channel=4, note=60, velocity=120, time=0),
    Message('note_on', channel=4, note=60, velocity=0, time=192),
    Message('note_on', channel=4, note=67, velocity=120, time=0),
    Message('note_on', channel=4, note=65, velocity=120, time=0),
    Message('note_on', channel=4, note=61, velocity=120, time=0),
    Message('note_on', channel=4, note=61, velocity=0, time=192),
    Message('note_on', channel=4, note=65, velocity=0, time=0),
    Message('note_on', channel=4, note=67, velocity=0, time=0),
    Message('note_on', channel=4, note=60, velocity=120, time=0),
    Message('note_on', channel=4, note=60, velocity=0, time=192),
    Message('note_on', channel=4, note=67, velocity=120, time=0),
    Message('note_on', channel=4, note=65, velocity=120, time=0),
    Message('note_on', channel=4, note=61, velocity=120, time=0),
    Message('note_on', channel=4, note=61, velocity=0, time=192),
    Message('note_on', channel=4, note=65, velocity=0, time=0),
    Message('note_on', channel=4, note=67, velocity=0, time=0),
    Message('note_on', channel=4, note=60, velocity=120, time=0),
    Message('note_on', channel=4, note=60, velocity=0, time=192),
    Message('note_on', channel=4, note=67, velocity=120, time=0),
    Message('note_on', channel=4, note=65, velocity=120, time=0),
    Message('note_on', channel=4, note=61, velocity=120, time=0),
    Message('note_on', channel=4, note=61, velocity=0, time=192),
    Message('note_on', channel=4, note=65, velocity=0, time=0),
    Message('note_on', channel=4, note=67, velocity=0, time=0),
    Message('note_on', channel=4, note=60, velocity=120, time=0),
    Message('note_on', channel=4, note=60, velocity=0, time=192),
    Message('note_on', channel=4, note=67, velocity=120, time=0),
    Message('note_on', channel=4, note=65, velocity=120, time=0),
    Message('note_on', channel=4, note=61, velocity=120, time=0),
    Message('note_on', channel=4, note=61, velocity=0, time=192),
    Message('note_on', channel=4, note=65, velocity=0, time=0),
    Message('note_on', channel=4, note=67, velocity=0, time=0),
    Message('note_on', channel=4, note=60, velocity=120, time=0),
    Message('note_on', channel=4, note=60, velocity=0, time=192),
    Message('note_on', channel=4, note=67, velocity=120, time=0),
    Message('note_on', channel=4, note=65, velocity=120, time=0),
    Message('note_on', channel=4, note=61, velocity=120, time=0),
    Message('note_on', channel=4, note=61, velocity=0, time=192),
    Message('note_on', channel=4, note=65, velocity=0, time=0),
    Message('note_on', channel=4, note=67, velocity=0, time=0),
    Message('note_on', channel=4, note=60, velocity=120, time=0),
    Message('note_on', channel=4, note=60, velocity=0, time=192),
    Message('note_on', channel=4, note=67, velocity=120, time=0),
    Message('note_on', channel=4, note=65, velocity=120, time=0),
    Message('note_on', channel=4, note=61, velocity=120, time=0),
    Message('note_on', channel=4, note=61, velocity=0, time=192),
    Message('note_on', channel=4, note=65, velocity=0, time=0),
    Message('note_on', channel=4, note=67, velocity=0, time=0),
    Message('note_on', channel=4, note=60, velocity=120, time=0),
    Message('note_on', channel=4, note=60, velocity=0, time=192),
    Message('note_on', channel=4, note=67, velocity=120, time=0),
    Message('note_on', channel=4, note=65, velocity=120, time=0),
    Message('note_on', channel=4, note=61, velocity=120, time=0),
    Message('note_on', channel=4, note=61, velocity=0, time=192),
    Message('note_on', channel=4, note=65, velocity=0, time=0),
    Message('note_on', channel=4, note=67, velocity=0, time=0),
    Message('note_on', channel=4, note=60, velocity=120, time=0),
    Message('note_on', channel=4, note=60, velocity=0, time=192),
    Message('note_on', channel=4, note=67, velocity=120, time=0),
    Message('note_on', channel=4, note=65, velocity=120, time=0),
    Message('note_on', channel=4, note=61, velocity=120, time=0),
    Message('note_on', channel=4, note=61, velocity=0, time=192),
    Message('note_on', channel=4, note=65, velocity=0, time=0),
    Message('note_on', channel=4, note=67, velocity=0, time=0),
    Message('note_on', channel=4, note=60, velocity=120, time=0),
    Message('note_on', channel=4, note=60, velocity=0, time=192),
    Message('note_on', channel=4, note=67, velocity=119, time=0),
    Message('note_on', channel=4, note=65, velocity=119, time=0),
    Message('note_on', channel=4, note=61, velocity=119, time=0),
    Message('note_on', channel=4, note=61, velocity=0, time=192),
    Message('note_on', channel=4, note=65, velocity=0, time=0),
    Message('note_on', channel=4, note=67, velocity=0, time=0),
    Message('note_on', channel=4, note=60, velocity=116, time=0),
    Message('note_on', channel=4, note=60, velocity=0, time=192),
    Message('note_on', channel=4, note=67, velocity=114, time=0),
    Message('note_on', channel=4, note=65, velocity=114, time=0),
    Message('note_on', channel=4, note=61, velocity=114, time=0),
    Message('note_on', channel=4, note=61, velocity=0, time=192),
    Message('note_on', channel=4, note=65, velocity=0, time=0),
    Message('note_on', channel=4, note=67, velocity=0, time=0),
    Message('note_on', channel=4, note=60, velocity=88, time=0),
    Message('note_on', channel=4, note=60, velocity=0, time=192),
    Message('note_on', channel=4, note=67, velocity=63, time=0),
    Message('note_on', channel=4, note=65, velocity=63, time=0),
    Message('note_on', channel=4, note=61, velocity=63, time=0),
    Message('note_on', channel=4, note=61, velocity=0, time=192),
    Message('note_on', channel=4, note=65, velocity=0, time=0),
    Message('note_on', channel=4, note=67, velocity=0, time=0),
    Message('note_on', channel=4, note=60, velocity=38, time=0),
    Message('note_on', channel=4, note=60, velocity=0, time=192),
    Message('note_on', channel=4, note=67, velocity=25, time=0),
    Message('note_on', channel=4, note=65, velocity=12, time=0),
    Message('note_on', channel=4, note=61, velocity=12, time=0),
    Message('note_on', channel=4, note=61, velocity=0, time=192),
    Message('note_on', channel=4, note=65, velocity=0, time=0),
    Message('note_on', channel=4, note=67, velocity=0, time=0),
    Message('note_on', channel=4, note=60, velocity=12, time=0),
    Message('note_on', channel=4, note=60, velocity=0, time=192),
    MetaMessage('end_of_track', time=0)]),
  MidiTrack([
    MetaMessage('midi_port', port=0, time=0),
    MetaMessage('track_name', name='Drums', time=0),
    Message('control_change', channel=9, control=0, value=0, time=0),
    Message('control_change', channel=9, control=32, value=0, time=0),
    Message('program_change', channel=9, program=0, time=0),
    Message('control_change', channel=9, control=7, value=127, time=0),
    Message('note_on', channel=9, note=59, velocity=127, time=18432),
    Message('note_on', channel=9, note=59, velocity=0, time=256),
    Message('note_on', channel=9, note=59, velocity=127, time=128),
    Message('note_on', channel=9, note=59, velocity=0, time=256),
    Message('note_on', channel=9, note=59, velocity=127, time=128),
    Message('note_on', channel=9, note=59, velocity=0, time=256),
    Message('note_on', channel=9, note=59, velocity=127, time=128),
    Message('note_on', channel=9, note=59, velocity=0, time=256),
    Message('note_on', channel=9, note=59, velocity=127, time=128),
    Message('note_on', channel=9, note=59, velocity=0, time=256),
    Message('note_on', channel=9, note=59, velocity=127, time=128),
    Message('note_on', channel=9, note=59, velocity=0, time=256),
    Message('note_on', channel=9, note=59, velocity=127, time=128),
    Message('note_on', channel=9, note=59, velocity=0, time=256),
    Message('note_on', channel=9, note=59, velocity=127, time=128),
    Message('note_on', channel=9, note=59, velocity=0, time=256),
    Message('note_on', channel=9, note=59, velocity=127, time=128),
    Message('note_on', channel=9, note=59, velocity=0, time=256),
    Message('note_on', channel=9, note=59, velocity=127, time=128),
    Message('note_on', channel=9, note=59, velocity=0, time=256),
    Message('note_on', channel=9, note=59, velocity=127, time=128),
    Message('note_on', channel=9, note=59, velocity=0, time=256),
    Message('note_on', channel=9, note=59, velocity=127, time=128),
    Message('note_on', channel=9, note=59, velocity=0, time=256),
    Message('note_on', channel=9, note=59, velocity=127, time=128),
    Message('note_on', channel=9, note=59, velocity=0, time=256),
    Message('note_on', channel=9, note=59, velocity=127, time=128),
    Message('note_on', channel=9, note=59, velocity=0, time=256),
    Message('note_on', channel=9, note=59, velocity=127, time=128),
    Message('note_on', channel=9, note=59, velocity=0, time=256),
    Message('note_on', channel=9, note=59, velocity=127, time=128),
    Message('note_on', channel=9, note=59, velocity=0, time=256),
    Message('note_on', channel=9, note=59, velocity=127, time=128),
    Message('note_on', channel=9, note=59, velocity=0, time=256),
    Message('note_on', channel=9, note=59, velocity=127, time=128),
    Message('note_on', channel=9, note=59, velocity=0, time=256),
    Message('note_on', channel=9, note=59, velocity=127, time=128),
    Message('note_on', channel=9, note=59, velocity=0, time=256),
    Message('note_on', channel=9, note=59, velocity=127, time=128),
    Message('note_on', channel=9, note=59, velocity=0, time=256),
    Message('note_on', channel=9, note=59, velocity=127, time=128),
    Message('note_on', channel=9, note=59, velocity=0, time=256),
    Message('note_on', channel=9, note=59, velocity=127, time=128),
    Message('note_on', channel=9, note=59, velocity=0, time=256),
    Message('note_on', channel=9, note=59, velocity=127, time=128),
    Message('note_on', channel=9, note=59, velocity=0, time=256),
    Message('note_on', channel=9, note=59, velocity=127, time=128),
    Message('note_on', channel=9, note=59, velocity=0, time=256),
    Message('note_on', channel=9, note=59, velocity=127, time=128),
    Message('note_on', channel=9, note=59, velocity=0, time=256),
    Message('note_on', channel=9, note=59, velocity=127, time=128),
    Message('note_on', channel=9, note=59, velocity=0, time=256),
    Message('note_on', channel=9, note=59, velocity=127, time=128),
    Message('note_on', channel=9, note=59, velocity=0, time=256),
    Message('note_on', channel=9, note=59, velocity=127, time=128),
    Message('note_on', channel=9, note=59, velocity=0, time=256),
    Message('note_on', channel=9, note=59, velocity=127, time=128),
    Message('note_on', channel=9, note=59, velocity=0, time=256),
    Message('note_on', channel=9, note=59, velocity=127, time=128),
    Message('note_on', channel=9, note=59, velocity=0, time=256),
    Message('note_on', channel=9, note=59, velocity=127, time=128),
    Message('note_on', channel=9, note=59, velocity=0, time=256),
    Message('note_on', channel=9, note=59, velocity=127, time=128),
    Message('note_on', channel=9, note=59, velocity=0, time=256),
    Message('note_on', channel=9, note=59, velocity=127, time=128),
    Message('note_on', channel=9, note=59, velocity=0, time=256),
    Message('note_on', channel=9, note=59, velocity=127, time=128),
    Message('note_on', channel=9, note=59, velocity=0, time=256),
    Message('note_on', channel=9, note=59, velocity=127, time=128),
    Message('note_on', channel=9, note=59, velocity=0, time=256),
    Message('note_on', channel=9, note=59, velocity=127, time=128),
    Message('note_on', channel=9, note=59, velocity=0, time=256),
    Message('note_on', channel=9, note=59, velocity=127, time=128),
    Message('note_on', channel=9, note=59, velocity=0, time=256),
    Message('note_on', channel=9, note=59, velocity=127, time=128),
    Message('note_on', channel=9, note=59, velocity=0, time=256),
    Message('note_on', channel=9, note=59, velocity=127, time=128),
    Message('note_on', channel=9, note=59, velocity=0, time=256),
    Message('note_on', channel=9, note=59, velocity=127, time=128),
    Message('note_on', channel=9, note=59, velocity=0, time=256),
    Message('note_on', channel=9, note=35, velocity=127, time=128),
    Message('note_on', channel=9, note=47, velocity=127, time=0),
    Message('note_on', channel=9, note=45, velocity=127, time=0),
    Message('note_on', channel=9, note=45, velocity=0, time=128),
    Message('note_on', channel=9, note=47, velocity=0, time=0),
    Message('note_on', channel=9, note=35, velocity=0, time=0),
    Message('note_on', channel=9, note=35, velocity=127, time=64),
    Message('note_on', channel=9, note=45, velocity=127, time=0),
    Message('note_on', channel=9, note=45, velocity=0, time=128),
    Message('note_on', channel=9, note=35, velocity=0, time=0),
    Message('note_on', channel=9, note=35, velocity=127, time=64),
    Message('note_on', channel=9, note=47, velocity=127, time=0),
    Message('note_on', channel=9, note=45, velocity=127, time=0),
    Message('note_on', channel=9, note=45, velocity=0, time=128),
    Message('note_on', channel=9, note=47, velocity=0, time=0),
    Message('note_on', channel=9, note=35, velocity=0, time=0),
    Message('note_on', channel=9, note=35, velocity=127, time=64),
    Message('note_on', channel=9, note=45, velocity=127, time=0),
    Message('note_on', channel=9, note=45, velocity=0, time=128),
    Message('note_on', channel=9, note=35, velocity=0, time=0),
    Message('note_on', channel=9, note=35, velocity=127, time=64),
    Message('note_on', channel=9, note=47, velocity=127, time=0),
    Message('note_on', channel=9, note=45, velocity=127, time=0),
    Message('note_on', channel=9, note=45, velocity=0, time=128),
    Message('note_on', channel=9, note=47, velocity=0, time=0),
    Message('note_on', channel=9, note=35, velocity=0, time=0),
    Message('note_on', channel=9, note=35, velocity=127, time=64),
    Message('note_on', channel=9, note=45, velocity=127, time=0),
    Message('note_on', channel=9, note=45, velocity=0, time=128),
    Message('note_on', channel=9, note=35, velocity=0, time=0),
    Message('note_on', channel=9, note=35, velocity=127, time=64),
    Message('note_on', channel=9, note=47, velocity=127, time=0),
    Message('note_on', channel=9, note=45, velocity=127, time=0),
    Message('note_on', channel=9, note=45, velocity=0, time=128),
    Message('note_on', channel=9, note=47, velocity=0, time=0),
    Message('note_on', channel=9, note=35, velocity=0, time=0),
    Message('note_on', channel=9, note=35, velocity=127, time=64),
    Message('note_on', channel=9, note=45, velocity=127, time=0),
    Message('note_on', channel=9, note=45, velocity=0, time=128),
    Message('note_on', channel=9, note=35, velocity=0, time=0),
    Message('note_on', channel=9, note=35, velocity=127, time=64),
    Message('note_on', channel=9, note=47, velocity=127, time=0),
    Message('note_on', channel=9, note=45, velocity=127, time=0),
    Message('note_on', channel=9, note=45, velocity=0, time=128),
    Message('note_on', channel=9, note=47, velocity=0, time=0),
    Message('note_on', channel=9, note=35, velocity=0, time=0),
    Message('note_on', channel=9, note=35, velocity=127, time=64),
    Message('note_on', channel=9, note=45, velocity=127, time=0),
    Message('note_on', channel=9, note=45, velocity=0, time=128),
    Message('note_on', channel=9, note=35, velocity=0, time=0),
    Message('note_on', channel=9, note=35, velocity=127, time=64),
    Message('note_on', channel=9, note=47, velocity=127, time=0),
    Message('note_on', channel=9, note=45, velocity=127, time=0),
    Message('note_on', channel=9, note=45, velocity=0, time=128),
    Message('note_on', channel=9, note=47, velocity=0, time=0),
    Message('note_on', channel=9, note=35, velocity=0, time=0),
    Message('note_on', channel=9, note=35, velocity=127, time=64),
    Message('note_on', channel=9, note=45, velocity=127, time=0),
    Message('note_on', channel=9, note=45, velocity=0, time=128),
    Message('note_on', channel=9, note=35, velocity=0, time=0),
    Message('note_on', channel=9, note=35, velocity=127, time=64),
    Message('note_on', channel=9, note=47, velocity=127, time=0),
    Message('note_on', channel=9, note=45, velocity=127, time=0),
    Message('note_on', channel=9, note=45, velocity=0, time=128),
    Message('note_on', channel=9, note=47, velocity=0, time=0),
    Message('note_on', channel=9, note=35, velocity=0, time=0),
    Message('note_on', channel=9, note=35, velocity=127, time=64),
    Message('note_on', channel=9, note=45, velocity=127, time=0),
    Message('note_on', channel=9, note=45, velocity=0, time=128),
    Message('note_on', channel=9, note=35, velocity=0, time=0),
    Message('note_on', channel=9, note=35, velocity=127, time=64),
    Message('note_on', channel=9, note=47, velocity=127, time=0),
    Message('note_on', channel=9, note=45, velocity=127, time=0),
    Message('note_on', channel=9, note=45, velocity=0, time=128),
    Message('note_on', channel=9, note=47, velocity=0, time=0),
    Message('note_on', channel=9, note=35, velocity=0, time=0),
    Message('note_on', channel=9, note=35, velocity=127, time=64),
    Message('note_on', channel=9, note=45, velocity=127, time=0),
    Message('note_on', channel=9, note=45, velocity=0, time=128),
    Message('note_on', channel=9, note=35, velocity=0, time=0),
    Message('note_on', channel=9, note=42, velocity=127, time=64),
    Message('note_on', channel=9, note=35, velocity=127, time=0),
    Message('note_on', channel=9, note=57, velocity=127, time=0),
    Message('note_on', channel=9, note=35, velocity=0, time=256),
    Message('note_on', channel=9, note=42, velocity=0, time=0),
    Message('note_on', channel=9, note=42, velocity=127, time=128),
    Message('note_on', channel=9, note=38, velocity=127, time=0),
    Message('note_on', channel=9, note=38, velocity=0, time=256),
    Message('note_on', channel=9, note=42, velocity=0, time=0),
    Message('note_on', channel=9, note=42, velocity=127, time=128),
    Message('note_on', channel=9, note=35, velocity=127, time=0),
    Message('note_on', channel=9, note=35, velocity=0, time=256),
    Message('note_on', channel=9, note=42, velocity=0, time=0),
    Message('note_on', channel=9, note=57, velocity=0, time=4),
    Message('note_on', channel=9, note=42, velocity=127, time=124),
    Message('note_on', channel=9, note=38, velocity=127, time=0),
    Message('note_on', channel=9, note=35, velocity=127, time=192),
    Message('note_on', channel=9, note=38, velocity=0, time=64),
    Message('note_on', channel=9, note=42, velocity=0, time=0),
    Message('note_on', channel=9, note=35, velocity=0, time=64),
    Message('note_on', channel=9, note=42, velocity=127, time=64),
    Message('note_on', channel=9, note=35, velocity=127, time=0),
    Message('note_on', channel=9, note=35, velocity=0, time=256),
    Message('note_on', channel=9, note=42, velocity=0, time=0),
    Message('note_on', channel=9, note=42, velocity=127, time=128),
    Message('note_on', channel=9, note=38, velocity=127, time=0),
    Message('note_on', channel=9, note=35, velocity=127, time=192),
    Message('note_on', channel=9, note=38, velocity=0, time=64),
    Message('note_on', channel=9, note=42, velocity=0, time=0),
    Message('note_on', channel=9, note=35, velocity=0, time=64),
    Message('note_on', channel=9, note=42, velocity=127, time=64),
    Message('note_on', channel=9, note=35, velocity=127, time=0),
    Message('note_on', channel=9, note=35, velocity=0, time=256),
    Message('note_on', channel=9, note=42, velocity=0, time=0),
    Message('note_on', channel=9, note=42, velocity=127, time=128),
    Message('note_on', channel=9, note=38, velocity=127, time=0),
    Message('note_on', channel=9, note=35, velocity=127, time=192),
    Message('note_on', channel=9, note=38, velocity=0, time=64),
    Message('note_on', channel=9, note=42, velocity=0, time=0),
    Message('note_on', channel=9, note=35, velocity=0, time=64),
    Message('note_on', channel=9, note=42, velocity=127, time=64),
    Message('note_on', channel=9, note=35, velocity=127, time=0),
    Message('note_on', channel=9, note=35, velocity=0, time=256),
    Message('note_on', channel=9, note=42, velocity=0, time=0),
    Message('note_on', channel=9, note=42, velocity=127, time=128),
    Message('note_on', channel=9, note=38, velocity=127, time=0),
    Message('note_on', channel=9, note=38, velocity=0, time=256),
    Message('note_on', channel=9, note=42, velocity=0, time=0),
    Message('note_on', channel=9, note=42, velocity=127, time=128),
    Message('note_on', channel=9, note=35, velocity=127, time=0),
    Message('note_on', channel=9, note=35, velocity=0, time=256),
    Message('note_on', channel=9, note=42, velocity=0, time=0),
    Message('note_on', channel=9, note=42, velocity=127, time=128),
    Message('note_on', channel=9, note=38, velocity=127, time=0),
    Message('note_on', channel=9, note=35, velocity=127, time=192),
    Message('note_on', channel=9, note=38, velocity=0, time=64),
    Message('note_on', channel=9, note=42, velocity=0, time=0),
    Message('note_on', channel=9, note=35, velocity=0, time=64),
    Message('note_on', channel=9, note=42, velocity=127, time=64),
    Message('note_on', channel=9, note=35, velocity=127, time=0),
    Message('note_on', channel=9, note=35, velocity=0, time=256),
    Message('note_on', channel=9, note=42, velocity=0, time=0),
    Message('note_on', channel=9, note=42, velocity=127, time=128),
    Message('note_on', channel=9, note=38, velocity=127, time=0),
    Message('note_on', channel=9, note=35, velocity=127, time=192),
    Message('note_on', channel=9, note=38, velocity=0, time=64),
    Message('note_on', channel=9, note=42, velocity=0, time=0),
    Message('note_on', channel=9, note=35, velocity=0, time=64),
    Message('note_on', channel=9, note=42, velocity=127, time=64),
    Message('note_on', channel=9, note=35, velocity=127, time=0),
    Message('note_on', channel=9, note=35, velocity=0, time=256),
    Message('note_on', channel=9, note=42, velocity=0, time=0),
    Message('note_on', channel=9, note=42, velocity=127, time=128),
    Message('note_on', channel=9, note=38, velocity=127, time=0),
    Message('note_on', channel=9, note=35, velocity=127, time=192),
    Message('note_on', channel=9, note=38, velocity=0, time=64),
    Message('note_on', channel=9, note=42, velocity=0, time=0),
    Message('note_on', channel=9, note=35, velocity=0, time=64),
    Message('note_on', channel=9, note=59, velocity=127, time=64),
    Message('note_on', channel=9, note=59, velocity=0, time=256),
    Message('note_on', channel=9, note=59, velocity=127, time=128),
    Message('note_on', channel=9, note=59, velocity=0, time=256),
    Message('note_on', channel=9, note=59, velocity=127, time=128),
    Message('note_on', channel=9, note=59, velocity=0, time=256),
    Message('note_on', channel=9, note=59, velocity=127, time=128),
    Message('note_on', channel=9, note=59, velocity=0, time=256),
    Message('note_on', channel=9, note=59, velocity=127, time=128),
    Message('note_on', channel=9, note=59, velocity=0, time=256),
    Message('note_on', channel=9, note=59, velocity=127, time=128),
    Message('note_on', channel=9, note=59, velocity=0, time=256),
    Message('note_on', channel=9, note=59, velocity=127, time=128),
    Message('note_on', channel=9, note=59, velocity=0, time=256),
    Message('note_on', channel=9, note=59, velocity=127, time=128),
    Message('note_on', channel=9, note=59, velocity=0, time=256),
    Message('note_on', channel=9, note=59, velocity=127, time=128),
    Message('note_on', channel=9, note=59, velocity=0, time=256),
    Message('note_on', channel=9, note=59, velocity=127, time=128),
    Message('note_on', channel=9, note=59, velocity=0, time=256),
    Message('note_on', channel=9, note=59, velocity=127, time=128),
    Message('note_on', channel=9, note=59, velocity=0, time=256),
    Message('note_on', channel=9, note=59, velocity=127, time=128),
    Message('note_on', channel=9, note=59, velocity=0, time=256),
    Message('note_on', channel=9, note=59, velocity=127, time=128),
    Message('note_on', channel=9, note=59, velocity=0, time=256),
    Message('note_on', channel=9, note=59, velocity=127, time=128),
    Message('note_on', channel=9, note=59, velocity=0, time=256),
    Message('note_on', channel=9, note=59, velocity=127, time=128),
    Message('note_on', channel=9, note=59, velocity=0, time=256),
    Message('note_on', channel=9, note=59, velocity=127, time=512),
    Message('note_on', channel=9, note=59, velocity=0, time=256),
    Message('note_on', channel=9, note=59, velocity=127, time=128),
    Message('note_on', channel=9, note=59, velocity=0, time=256),
    Message('note_on', channel=9, note=59, velocity=127, time=128),
    Message('note_on', channel=9, note=59, velocity=0, time=256),
    Message('note_on', channel=9, note=59, velocity=127, time=128),
    Message('note_on', channel=9, note=59, velocity=0, time=256),
    Message('note_on', channel=9, note=59, velocity=127, time=128),
    Message('note_on', channel=9, note=59, velocity=0, time=256),
    Message('note_on', channel=9, note=59, velocity=127, time=128),
    Message('note_on', channel=9, note=59, velocity=0, time=256),
    Message('note_on', channel=9, note=59, velocity=127, time=128),
    Message('note_on', channel=9, note=59, velocity=0, time=256),
    Message('note_on', channel=9, note=59, velocity=127, time=128),
    Message('note_on', channel=9, note=59, velocity=0, time=256),
    Message('note_on', channel=9, note=59, velocity=127, time=128),
    Message('note_on', channel=9, note=59, velocity=0, time=256),
    Message('note_on', channel=9, note=59, velocity=127, time=128),
    Message('note_on', channel=9, note=59, velocity=0, time=256),
    Message('note_on', channel=9, note=59, velocity=127, time=128),
    Message('note_on', channel=9, note=59, velocity=0, time=256),
    Message('note_on', channel=9, note=59, velocity=127, time=128),
    Message('note_on', channel=9, note=59, velocity=0, time=256),
    Message('note_on', channel=9, note=59, velocity=127, time=128),
    Message('note_on', channel=9, note=59, velocity=0, time=256),
    Message('note_on', channel=9, note=59, velocity=127, time=128),
    Message('note_on', channel=9, note=59, velocity=0, time=256),
    Message('note_on', channel=9, note=59, velocity=127, time=128),
    Message('note_on', channel=9, note=59, velocity=0, time=256),
    Message('note_on', channel=9, note=59, velocity=127, time=128),
    Message('note_on', channel=9, note=59, velocity=0, time=256),
    Message('note_on', channel=9, note=59, velocity=127, time=128),
    Message('note_on', channel=9, note=59, velocity=0, time=256),
    Message('note_on', channel=9, note=59, velocity=127, time=128),
    Message('note_on', channel=9, note=59, velocity=0, time=256),
    Message('note_on', channel=9, note=59, velocity=127, time=128),
    Message('note_on', channel=9, note=59, velocity=0, time=256),
    Message('note_on', channel=9, note=59, velocity=127, time=128),
    Message('note_on', channel=9, note=59, velocity=0, time=256),
    Message('note_on', channel=9, note=59, velocity=127, time=128),
    Message('note_on', channel=9, note=59, velocity=0, time=256),
    Message('note_on', channel=9, note=59, velocity=127, time=128),
    Message('note_on', channel=9, note=59, velocity=0, time=256),
    Message('note_on', channel=9, note=59, velocity=127, time=128),
    Message('note_on', channel=9, note=59, velocity=0, time=256),
    Message('note_on', channel=9, note=59, velocity=127, time=128),
    Message('note_on', channel=9, note=59, velocity=0, time=256),
    Message('note_on', channel=9, note=59, velocity=127, time=128),
    Message('note_on', channel=9, note=59, velocity=0, time=256),
    Message('note_on', channel=9, note=59, velocity=127, time=128),
    Message('note_on', channel=9, note=59, velocity=0, time=256),
    Message('note_on', channel=9, note=59, velocity=127, time=128),
    Message('note_on', channel=9, note=59, velocity=0, time=256),
    Message('note_on', channel=9, note=59, velocity=127, time=128),
    Message('note_on', channel=9, note=59, velocity=0, time=256),
    Message('note_on', channel=9, note=59, velocity=127, time=128),
    Message('note_on', channel=9, note=59, velocity=0, time=256),
    Message('note_on', channel=9, note=59, velocity=127, time=128),
    Message('note_on', channel=9, note=59, velocity=0, time=256),
    Message('note_on', channel=9, note=48, velocity=127, time=32),
    Message('note_on', channel=9, note=38, velocity=127, time=0),
    Message('note_on', channel=9, note=38, velocity=0, time=64),
    Message('note_on', channel=9, note=48, velocity=0, time=0),
    Message('note_on', channel=9, note=59, velocity=127, time=32),
    Message('note_on', channel=9, note=47, velocity=127, time=0),
    Message('note_on', channel=9, note=35, velocity=127, time=0),
    Message('note_on', channel=9, note=40, velocity=127, time=0),
    Message('note_on', channel=9, note=40, velocity=0, time=128),
    Message('note_on', channel=9, note=35, velocity=0, time=0),
    Message('note_on', channel=9, note=47, velocity=0, time=0),
    Message('note_on', channel=9, note=45, velocity=127, time=64),
    Message('note_on', channel=9, note=35, velocity=127, time=0),
    Message('note_on', channel=9, note=38, velocity=127, time=0),
    Message('note_on', channel=9, note=59, velocity=0, time=64),
    Message('note_on', channel=9, note=45, velocity=0, time=64),
    Message('note_on', channel=9, note=35, velocity=0, time=0),
    Message('note_on', channel=9, note=38, velocity=0, time=0),
    Message('note_on', channel=9, note=59, velocity=127, time=64),
    Message('note_on', channel=9, note=47, velocity=127, time=0),
    Message('note_on', channel=9, note=40, velocity=127, time=0),
    Message('note_on', channel=9, note=35, velocity=127, time=0),
    Message('note_on', channel=9, note=35, velocity=0, time=64),
    Message('note_on', channel=9, note=35, velocity=127, time=32),
    Message('note_on', channel=9, note=40, velocity=0, time=32),
    Message('note_on', channel=9, note=47, velocity=0, time=0),
    Message('note_on', channel=9, note=35, velocity=0, time=32),
    Message('note_on', channel=9, note=45, velocity=127, time=32),
    Message('note_on', channel=9, note=35, velocity=127, time=0),
    Message('note_on', channel=9, note=38, velocity=127, time=0),
    Message('note_on', channel=9, note=59, velocity=0, time=64),
    Message('note_on', channel=9, note=45, velocity=0, time=64),
    Message('note_on', channel=9, note=35, velocity=0, time=0),
    Message('note_on', channel=9, note=38, velocity=0, time=0),
    Message('note_on', channel=9, note=42, velocity=127, time=64),
    Message('note_on', channel=9, note=35, velocity=127, time=0),
    Message('note_on', channel=9, note=57, velocity=127, time=0),
    Message('note_on', channel=9, note=35, velocity=0, time=256),
    Message('note_on', channel=9, note=42, velocity=0, time=0),
    Message('note_on', channel=9, note=42, velocity=127, time=128),
    Message('note_on', channel=9, note=38, velocity=127, time=0),
    Message('note_on', channel=9, note=38, velocity=0, time=256),
    Message('note_on', channel=9, note=42, velocity=0, time=0),
    Message('note_on', channel=9, note=42, velocity=127, time=128),
    Message('note_on', channel=9, note=35, velocity=127, time=0),
    Message('note_on', channel=9, note=35, velocity=0, time=256),
    Message('note_on', channel=9, note=42, velocity=0, time=0),
    Message('note_on', channel=9, note=57, velocity=0, time=4),
    Message('note_on', channel=9, note=42, velocity=127, time=124),
    Message('note_on', channel=9, note=38, velocity=127, time=0),
    Message('note_on', channel=9, note=35, velocity=127, time=192),
    Message('note_on', channel=9, note=38, velocity=0, time=64),
    Message('note_on', channel=9, note=42, velocity=0, time=0),
    Message('note_on', channel=9, note=35, velocity=0, time=64),
    Message('note_on', channel=9, note=42, velocity=127, time=64),
    Message('note_on', channel=9, note=35, velocity=127, time=0),
    Message('note_on', channel=9, note=35, velocity=0, time=256),
    Message('note_on', channel=9, note=42, velocity=0, time=0),
    Message('note_on', channel=9, note=42, velocity=127, time=128),
    Message('note_on', channel=9, note=38, velocity=127, time=0),
    Message('note_on', channel=9, note=35, velocity=127, time=192),
    Message('note_on', channel=9, note=38, velocity=0, time=64),
    Message('note_on', channel=9, note=42, velocity=0, time=0),
    Message('note_on', channel=9, note=35, velocity=0, time=64),
    Message('note_on', channel=9, note=42, velocity=127, time=64),
    Message('note_on', channel=9, note=35, velocity=127, time=0),
    Message('note_on', channel=9, note=35, velocity=0, time=256),
    Message('note_on', channel=9, note=42, velocity=0, time=0),
    Message('note_on', channel=9, note=42, velocity=127, time=128),
    Message('note_on', channel=9, note=38, velocity=127, time=0),
    Message('note_on', channel=9, note=35, velocity=127, time=192),
    Message('note_on', channel=9, note=38, velocity=0, time=64),
    Message('note_on', channel=9, note=42, velocity=0, time=0),
    Message('note_on', channel=9, note=35, velocity=0, time=64),
    Message('note_on', channel=9, note=42, velocity=127, time=64),
    Message('note_on', channel=9, note=35, velocity=127, time=0),
    Message('note_on', channel=9, note=49, velocity=127, time=0),
    Message('note_on', channel=9, note=35, velocity=0, time=256),
    Message('note_on', channel=9, note=42, velocity=0, time=0),
    Message('note_on', channel=9, note=42, velocity=127, time=128),
    Message('note_on', channel=9, note=38, velocity=127, time=0),
    Message('note_on', channel=9, note=38, velocity=0, time=256),
    Message('note_on', channel=9, note=42, velocity=0, time=0),
    Message('note_on', channel=9, note=42, velocity=127, time=128),
    Message('note_on', channel=9, note=35, velocity=127, time=0),
    Message('note_on', channel=9, note=35, velocity=0, time=256),
    Message('note_on', channel=9, note=42, velocity=0, time=0),
    Message('note_on', channel=9, note=49, velocity=0, time=4),
    Message('note_on', channel=9, note=42, velocity=127, time=124),
    Message('note_on', channel=9, note=38, velocity=127, time=0),
    Message('note_on', channel=9, note=35, velocity=127, time=192),
    Message('note_on', channel=9, note=38, velocity=0, time=64),
    Message('note_on', channel=9, note=42, velocity=0, time=0),
    Message('note_on', channel=9, note=35, velocity=0, time=64),
    Message('note_on', channel=9, note=42, velocity=127, time=64),
    Message('note_on', channel=9, note=35, velocity=127, time=0),
    Message('note_on', channel=9, note=57, velocity=127, time=0),
    Message('note_on', channel=9, note=35, velocity=0, time=256),
    Message('note_on', channel=9, note=42, velocity=0, time=0),
    Message('note_on', channel=9, note=42, velocity=127, time=128),
    Message('note_on', channel=9, note=38, velocity=127, time=0),
    Message('note_on', channel=9, note=35, velocity=127, time=192),
    Message('note_on', channel=9, note=38, velocity=0, time=64),
    Message('note_on', channel=9, note=42, velocity=0, time=0),
    Message('note_on', channel=9, note=35, velocity=0, time=64),
    Message('note_on', channel=9, note=42, velocity=127, time=64),
    Message('note_on', channel=9, note=35, velocity=127, time=0),
    Message('note_on', channel=9, note=35, velocity=0, time=256),
    Message('note_on', channel=9, note=42, velocity=0, time=0),
    Message('note_on', channel=9, note=57, velocity=0, time=4),
    Message('note_on', channel=9, note=42, velocity=127, time=124),
    Message('note_on', channel=9, note=38, velocity=127, time=0),
    Message('note_on', channel=9, note=35, velocity=127, time=192),
    Message('note_on', channel=9, note=38, velocity=0, time=64),
    Message('note_on', channel=9, note=42, velocity=0, time=0),
    Message('note_on', channel=9, note=35, velocity=0, time=64),
    Message('note_on', channel=9, note=35, velocity=127, time=64),
    Message('note_on', channel=9, note=47, velocity=127, time=0),
    Message('note_on', channel=9, note=45, velocity=127, time=0),
    Message('note_on', channel=9, note=45, velocity=0, time=128),
    Message('note_on', channel=9, note=47, velocity=0, time=0),
    Message('note_on', channel=9, note=35, velocity=0, time=0),
    Message('note_on', channel=9, note=35, velocity=127, time=64),
    Message('note_on', channel=9, note=45, velocity=127, time=0),
    Message('note_on', channel=9, note=45, velocity=0, time=128),
    Message('note_on', channel=9, note=35, velocity=0, time=0),
    Message('note_on', channel=9, note=35, velocity=127, time=64),
    Message('note_on', channel=9, note=47, velocity=127, time=0),
    Message('note_on', channel=9, note=45, velocity=127, time=0),
    Message('note_on', channel=9, note=45, velocity=0, time=128),
    Message('note_on', channel=9, note=47, velocity=0, time=0),
    Message('note_on', channel=9, note=35, velocity=0, time=0),
    Message('note_on', channel=9, note=35, velocity=127, time=64),
    Message('note_on', channel=9, note=45, velocity=127, time=0),
    Message('note_on', channel=9, note=45, velocity=0, time=128),
    Message('note_on', channel=9, note=35, velocity=0, time=0),
    Message('note_on', channel=9, note=35, velocity=127, time=64),
    Message('note_on', channel=9, note=47, velocity=127, time=0),
    Message('note_on', channel=9, note=45, velocity=127, time=0),
    Message('note_on', channel=9, note=45, velocity=0, time=128),
    Message('note_on', channel=9, note=47, velocity=0, time=0),
    Message('note_on', channel=9, note=35, velocity=0, time=0),
    Message('note_on', channel=9, note=35, velocity=127, time=64),
    Message('note_on', channel=9, note=45, velocity=127, time=0),
    Message('note_on', channel=9, note=45, velocity=0, time=128),
    Message('note_on', channel=9, note=35, velocity=0, time=0),
    Message('note_on', channel=9, note=35, velocity=127, time=64),
    Message('note_on', channel=9, note=47, velocity=127, time=0),
    Message('note_on', channel=9, note=45, velocity=127, time=0),
    Message('note_on', channel=9, note=45, velocity=0, time=128),
    Message('note_on', channel=9, note=47, velocity=0, time=0),
    Message('note_on', channel=9, note=35, velocity=0, time=0),
    Message('note_on', channel=9, note=35, velocity=127, time=64),
    Message('note_on', channel=9, note=45, velocity=127, time=0),
    Message('note_on', channel=9, note=45, velocity=0, time=128),
    Message('note_on', channel=9, note=35, velocity=0, time=0),
    Message('note_on', channel=9, note=35, velocity=127, time=64),
    Message('note_on', channel=9, note=47, velocity=127, time=0),
    Message('note_on', channel=9, note=45, velocity=127, time=0),
    Message('note_on', channel=9, note=45, velocity=0, time=128),
    Message('note_on', channel=9, note=47, velocity=0, time=0),
    Message('note_on', channel=9, note=35, velocity=0, time=0),
    Message('note_on', channel=9, note=35, velocity=127, time=64),
    Message('note_on', channel=9, note=45, velocity=127, time=0),
    Message('note_on', channel=9, note=45, velocity=0, time=128),
    Message('note_on', channel=9, note=35, velocity=0, time=0),
    Message('note_on', channel=9, note=35, velocity=127, time=64),
    Message('note_on', channel=9, note=47, velocity=127, time=0),
    Message('note_on', channel=9, note=45, velocity=127, time=0),
    Message('note_on', channel=9, note=45, velocity=0, time=128),
    Message('note_on', channel=9, note=47, velocity=0, time=0),
    Message('note_on', channel=9, note=35, velocity=0, time=0),
    Message('note_on', channel=9, note=35, velocity=127, time=64),
    Message('note_on', channel=9, note=45, velocity=127, time=0),
    Message('note_on', channel=9, note=45, velocity=0, time=128),
    Message('note_on', channel=9, note=35, velocity=0, time=0),
    Message('note_on', channel=9, note=35, velocity=127, time=64),
    Message('note_on', channel=9, note=47, velocity=127, time=0),
    Message('note_on', channel=9, note=45, velocity=127, time=0),
    Message('note_on', channel=9, note=45, velocity=0, time=128),
    Message('note_on', channel=9, note=47, velocity=0, time=0),
    Message('note_on', channel=9, note=35, velocity=0, time=0),
    Message('note_on', channel=9, note=35, velocity=127, time=64),
    Message('note_on', channel=9, note=45, velocity=127, time=0),
    Message('note_on', channel=9, note=45, velocity=0, time=128),
    Message('note_on', channel=9, note=35, velocity=0, time=0),
    Message('note_on', channel=9, note=35, velocity=127, time=64),
    Message('note_on', channel=9, note=47, velocity=127, time=0),
    Message('note_on', channel=9, note=45, velocity=127, time=0),
    Message('note_on', channel=9, note=45, velocity=0, time=128),
    Message('note_on', channel=9, note=47, velocity=0, time=0),
    Message('note_on', channel=9, note=35, velocity=0, time=0),
    Message('note_on', channel=9, note=35, velocity=127, time=64),
    Message('note_on', channel=9, note=45, velocity=127, time=0),
    Message('note_on', channel=9, note=45, velocity=0, time=128),
    Message('note_on', channel=9, note=35, velocity=0, time=0),
    Message('note_on', channel=9, note=59, velocity=127, time=64),
    Message('note_on', channel=9, note=59, velocity=0, time=256),
    Message('note_on', channel=9, note=59, velocity=127, time=128),
    Message('note_on', channel=9, note=59, velocity=0, time=256),
    Message('note_on', channel=9, note=59, velocity=127, time=128),
    Message('note_on', channel=9, note=59, velocity=0, time=256),
    Message('note_on', channel=9, note=59, velocity=127, time=128),
    Message('note_on', channel=9, note=59, velocity=0, time=256),
    Message('note_on', channel=9, note=59, velocity=127, time=128),
    Message('note_on', channel=9, note=59, velocity=0, time=256),
    Message('note_on', channel=9, note=59, velocity=127, time=128),
    Message('note_on', channel=9, note=59, velocity=0, time=256),
    Message('note_on', channel=9, note=59, velocity=127, time=128),
    Message('note_on', channel=9, note=59, velocity=0, time=256),
    Message('note_on', channel=9, note=59, velocity=127, time=128),
    Message('note_on', channel=9, note=59, velocity=0, time=256),
    Message('note_on', channel=9, note=59, velocity=127, time=128),
    Message('note_on', channel=9, note=59, velocity=0, time=256),
    Message('note_on', channel=9, note=59, velocity=127, time=128),
    Message('note_on', channel=9, note=59, velocity=0, time=256),
    Message('note_on', channel=9, note=59, velocity=127, time=128),
    Message('note_on', channel=9, note=59, velocity=0, time=256),
    Message('note_on', channel=9, note=59, velocity=127, time=128),
    Message('note_on', channel=9, note=59, velocity=0, time=256),
    Message('note_on', channel=9, note=59, velocity=127, time=128),
    Message('note_on', channel=9, note=59, velocity=0, time=256),
    Message('note_on', channel=9, note=59, velocity=127, time=128),
    Message('note_on', channel=9, note=59, velocity=0, time=256),
    Message('note_on', channel=9, note=59, velocity=127, time=128),
    Message('note_on', channel=9, note=59, velocity=0, time=256),
    Message('note_on', channel=9, note=59, velocity=127, time=128),
    Message('note_on', channel=9, note=59, velocity=0, time=256),
    Message('note_on', channel=9, note=59, velocity=127, time=128),
    Message('note_on', channel=9, note=59, velocity=0, time=256),
    Message('note_on', channel=9, note=59, velocity=127, time=128),
    Message('note_on', channel=9, note=59, velocity=0, time=256),
    Message('note_on', channel=9, note=59, velocity=127, time=128),
    Message('note_on', channel=9, note=59, velocity=0, time=256),
    Message('note_on', channel=9, note=59, velocity=127, time=128),
    Message('note_on', channel=9, note=59, velocity=0, time=256),
    Message('note_on', channel=9, note=59, velocity=127, time=128),
    Message('note_on', channel=9, note=59, velocity=0, time=256),
    Message('note_on', channel=9, note=59, velocity=127, time=128),
    Message('note_on', channel=9, note=59, velocity=0, time=256),
    Message('note_on', channel=9, note=59, velocity=127, time=128),
    Message('note_on', channel=9, note=59, velocity=0, time=256),
    Message('note_on', channel=9, note=59, velocity=127, time=128),
    Message('note_on', channel=9, note=59, velocity=0, time=256),
    Message('note_on', channel=9, note=59, velocity=127, time=128),
    Message('note_on', channel=9, note=59, velocity=0, time=256),
    Message('note_on', channel=9, note=59, velocity=127, time=128),
    Message('note_on', channel=9, note=59, velocity=0, time=256),
    Message('note_on', channel=9, note=59, velocity=127, time=128),
    Message('note_on', channel=9, note=59, velocity=0, time=256),
    Message('note_on', channel=9, note=59, velocity=127, time=128),
    Message('note_on', channel=9, note=35, velocity=127, time=192),
    Message('note_on', channel=9, note=59, velocity=0, time=64),
    Message('note_on', channel=9, note=35, velocity=0, time=64),
    Message('note_on', channel=9, note=42, velocity=127, time=64),
    Message('note_on', channel=9, note=35, velocity=127, time=0),
    Message('note_on', channel=9, note=57, velocity=127, time=0),
    Message('note_on', channel=9, note=35, velocity=0, time=256),
    Message('note_on', channel=9, note=42, velocity=0, time=0),
    Message('note_on', channel=9, note=42, velocity=127, time=128),
    Message('note_on', channel=9, note=38, velocity=127, time=0),
    Message('note_on', channel=9, note=38, velocity=0, time=256),
    Message('note_on', channel=9, note=42, velocity=0, time=0),
    Message('note_on', channel=9, note=42, velocity=127, time=128),
    Message('note_on', channel=9, note=35, velocity=127, time=0),
    Message('note_on', channel=9, note=35, velocity=0, time=256),
    Message('note_on', channel=9, note=42, velocity=0, time=0),
    Message('note_on', channel=9, note=57, velocity=0, time=4),
    Message('note_on', channel=9, note=42, velocity=127, time=124),
    Message('note_on', channel=9, note=38, velocity=127, time=0),
    Message('note_on', channel=9, note=35, velocity=127, time=192),
    Message('note_on', channel=9, note=38, velocity=0, time=64),
    Message('note_on', channel=9, note=42, velocity=0, time=0),
    Message('note_on', channel=9, note=35, velocity=0, time=64),
    Message('note_on', channel=9, note=42, velocity=127, time=64),
    Message('note_on', channel=9, note=35, velocity=127, time=0),
    Message('note_on', channel=9, note=35, velocity=0, time=256),
    Message('note_on', channel=9, note=42, velocity=0, time=0),
    Message('note_on', channel=9, note=42, velocity=127, time=128),
    Message('note_on', channel=9, note=38, velocity=127, time=0),
    Message('note_on', channel=9, note=35, velocity=127, time=192),
    Message('note_on', channel=9, note=38, velocity=0, time=64),
    Message('note_on', channel=9, note=42, velocity=0, time=0),
    Message('note_on', channel=9, note=35, velocity=0, time=64),
    Message('note_on', channel=9, note=42, velocity=127, time=64),
    Message('note_on', channel=9, note=35, velocity=127, time=0),
    Message('note_on', channel=9, note=35, velocity=0, time=256),
    Message('note_on', channel=9, note=42, velocity=0, time=0),
    Message('note_on', channel=9, note=42, velocity=127, time=128),
    Message('note_on', channel=9, note=38, velocity=127, time=0),
    Message('note_on', channel=9, note=35, velocity=127, time=192),
    Message('note_on', channel=9, note=38, velocity=0, time=64),
    Message('note_on', channel=9, note=42, velocity=0, time=0),
    Message('note_on', channel=9, note=35, velocity=0, time=64),
    Message('note_on', channel=9, note=42, velocity=127, time=64),
    Message('note_on', channel=9, note=35, velocity=127, time=0),
    Message('note_on', channel=9, note=49, velocity=127, time=0),
    Message('note_on', channel=9, note=35, velocity=0, time=256),
    Message('note_on', channel=9, note=42, velocity=0, time=0),
    Message('note_on', channel=9, note=42, velocity=127, time=128),
    Message('note_on', channel=9, note=38, velocity=127, time=0),
    Message('note_on', channel=9, note=38, velocity=0, time=256),
    Message('note_on', channel=9, note=42, velocity=0, time=0),
    Message('note_on', channel=9, note=42, velocity=127, time=128),
    Message('note_on', channel=9, note=35, velocity=127, time=0),
    Message('note_on', channel=9, note=35, velocity=0, time=256),
    Message('note_on', channel=9, note=42, velocity=0, time=0),
    Message('note_on', channel=9, note=49, velocity=0, time=4),
    Message('note_on', channel=9, note=42, velocity=127, time=124),
    Message('note_on', channel=9, note=38, velocity=127, time=0),
    Message('note_on', channel=9, note=35, velocity=127, time=192),
    Message('note_on', channel=9, note=38, velocity=0, time=64),
    Message('note_on', channel=9, note=42, velocity=0, time=0),
    Message('note_on', channel=9, note=35, velocity=0, time=64),
    Message('note_on', channel=9, note=42, velocity=127, time=64),
    Message('note_on', channel=9, note=35, velocity=127, time=0),
    Message('note_on', channel=9, note=57, velocity=127, time=0),
    Message('note_on', channel=9, note=35, velocity=0, time=256),
    Message('note_on', channel=9, note=42, velocity=0, time=0),
    Message('note_on', channel=9, note=42, velocity=127, time=128),
    Message('note_on', channel=9, note=38, velocity=127, time=0),
    Message('note_on', channel=9, note=35, velocity=127, time=192),
    Message('note_on', channel=9, note=38, velocity=0, time=64),
    Message('note_on', channel=9, note=42, velocity=0, time=0),
    Message('note_on', channel=9, note=35, velocity=0, time=64),
    Message('note_on', channel=9, note=42, velocity=127, time=64),
    Message('note_on', channel=9, note=35, velocity=127, time=0),
    Message('note_on', channel=9, note=35, velocity=0, time=256),
    Message('note_on', channel=9, note=42, velocity=0, time=0),
    Message('note_on', channel=9, note=57, velocity=0, time=4),
    Message('note_on', channel=9, note=42, velocity=127, time=124),
    Message('note_on', channel=9, note=38, velocity=127, time=0),
    Message('note_on', channel=9, note=35, velocity=127, time=192),
    Message('note_on', channel=9, note=38, velocity=0, time=64),
    Message('note_on', channel=9, note=42, velocity=0, time=0),
    Message('note_on', channel=9, note=35, velocity=0, time=64),
    Message('note_on', channel=9, note=35, velocity=127, time=64),
    Message('note_on', channel=9, note=47, velocity=127, time=0),
    Message('note_on', channel=9, note=45, velocity=127, time=0),
    Message('note_on', channel=9, note=45, velocity=0, time=128),
    Message('note_on', channel=9, note=47, velocity=0, time=0),
    Message('note_on', channel=9, note=35, velocity=0, time=0),
    Message('note_on', channel=9, note=35, velocity=127, time=64),
    Message('note_on', channel=9, note=45, velocity=127, time=0),
    Message('note_on', channel=9, note=45, velocity=0, time=128),
    Message('note_on', channel=9, note=35, velocity=0, time=0),
    Message('note_on', channel=9, note=35, velocity=127, time=64),
    Message('note_on', channel=9, note=47, velocity=127, time=0),
    Message('note_on', channel=9, note=45, velocity=127, time=0),
    Message('note_on', channel=9, note=45, velocity=0, time=128),
    Message('note_on', channel=9, note=47, velocity=0, time=0),
    Message('note_on', channel=9, note=35, velocity=0, time=0),
    Message('note_on', channel=9, note=35, velocity=127, time=64),
    Message('note_on', channel=9, note=45, velocity=127, time=0),
    Message('note_on', channel=9, note=45, velocity=0, time=128),
    Message('note_on', channel=9, note=35, velocity=0, time=0),
    Message('note_on', channel=9, note=35, velocity=127, time=64),
    Message('note_on', channel=9, note=47, velocity=127, time=0),
    Message('note_on', channel=9, note=45, velocity=127, time=0),
    Message('note_on', channel=9, note=45, velocity=0, time=128),
    Message('note_on', channel=9, note=47, velocity=0, time=0),
    Message('note_on', channel=9, note=35, velocity=0, time=0),
    Message('note_on', channel=9, note=35, velocity=127, time=64),
    Message('note_on', channel=9, note=45, velocity=127, time=0),
    Message('note_on', channel=9, note=45, velocity=0, time=128),
    Message('note_on', channel=9, note=35, velocity=0, time=0),
    Message('note_on', channel=9, note=35, velocity=127, time=64),
    Message('note_on', channel=9, note=47, velocity=127, time=0),
    Message('note_on', channel=9, note=45, velocity=127, time=0),
    Message('note_on', channel=9, note=45, velocity=0, time=128),
    Message('note_on', channel=9, note=47, velocity=0, time=0),
    Message('note_on', channel=9, note=35, velocity=0, time=0),
    Message('note_on', channel=9, note=35, velocity=127, time=64),
    Message('note_on', channel=9, note=45, velocity=127, time=0),
    Message('note_on', channel=9, note=45, velocity=0, time=128),
    Message('note_on', channel=9, note=35, velocity=0, time=0),
    Message('note_on', channel=9, note=35, velocity=127, time=64),
    Message('note_on', channel=9, note=47, velocity=127, time=0),
    Message('note_on', channel=9, note=45, velocity=127, time=0),
    Message('note_on', channel=9, note=45, velocity=0, time=128),
    Message('note_on', channel=9, note=47, velocity=0, time=0),
    Message('note_on', channel=9, note=35, velocity=0, time=0),
    Message('note_on', channel=9, note=35, velocity=127, time=64),
    Message('note_on', channel=9, note=45, velocity=127, time=0),
    Message('note_on', channel=9, note=45, velocity=0, time=128),
    Message('note_on', channel=9, note=35, velocity=0, time=0),
    Message('note_on', channel=9, note=35, velocity=127, time=64),
    Message('note_on', channel=9, note=47, velocity=127, time=0),
    Message('note_on', channel=9, note=45, velocity=127, time=0),
    Message('note_on', channel=9, note=45, velocity=0, time=128),
    Message('note_on', channel=9, note=47, velocity=0, time=0),
    Message('note_on', channel=9, note=35, velocity=0, time=0),
    Message('note_on', channel=9, note=35, velocity=127, time=64),
    Message('note_on', channel=9, note=45, velocity=127, time=0),
    Message('note_on', channel=9, note=45, velocity=0, time=128),
    Message('note_on', channel=9, note=35, velocity=0, time=0),
    Message('note_on', channel=9, note=35, velocity=127, time=64),
    Message('note_on', channel=9, note=47, velocity=127, time=0),
    Message('note_on', channel=9, note=45, velocity=127, time=0),
    Message('note_on', channel=9, note=45, velocity=0, time=128),
    Message('note_on', channel=9, note=47, velocity=0, time=0),
    Message('note_on', channel=9, note=35, velocity=0, time=0),
    Message('note_on', channel=9, note=35, velocity=127, time=64),
    Message('note_on', channel=9, note=45, velocity=127, time=0),
    Message('note_on', channel=9, note=45, velocity=0, time=128),
    Message('note_on', channel=9, note=35, velocity=0, time=0),
    Message('note_on', channel=9, note=35, velocity=127, time=64),
    Message('note_on', channel=9, note=47, velocity=127, time=0),
    Message('note_on', channel=9, note=45, velocity=127, time=0),
    Message('note_on', channel=9, note=45, velocity=0, time=128),
    Message('note_on', channel=9, note=47, velocity=0, time=0),
    Message('note_on', channel=9, note=35, velocity=0, time=0),
    Message('note_on', channel=9, note=35, velocity=127, time=64),
    Message('note_on', channel=9, note=45, velocity=127, time=0),
    Message('note_on', channel=9, note=45, velocity=0, time=128),
    Message('note_on', channel=9, note=35, velocity=0, time=0),
    Message('note_on', channel=9, note=42, velocity=127, time=64),
    Message('note_on', channel=9, note=35, velocity=127, time=0),
    Message('note_on', channel=9, note=35, velocity=0, time=256),
    Message('note_on', channel=9, note=42, velocity=0, time=0),
    Message('note_on', channel=9, note=42, velocity=127, time=128),
    Message('note_on', channel=9, note=38, velocity=127, time=0),
    Message('note_on', channel=9, note=38, velocity=0, time=256),
    Message('note_on', channel=9, note=42, velocity=0, time=0),
    Message('note_on', channel=9, note=42, velocity=127, time=128),
    Message('note_on', channel=9, note=35, velocity=127, time=0),
    Message('note_on', channel=9, note=35, velocity=0, time=256),
    Message('note_on', channel=9, note=42, velocity=0, time=0),
    Message('note_on', channel=9, note=42, velocity=127, time=128),
    Message('note_on', channel=9, note=38, velocity=127, time=0),
    Message('note_on', channel=9, note=35, velocity=127, time=192),
    Message('note_on', channel=9, note=38, velocity=0, time=64),
    Message('note_on', channel=9, note=42, velocity=0, time=0),
    Message('note_on', channel=9, note=35, velocity=0, time=64),
    Message('note_on', channel=9, note=42, velocity=127, time=64),
    Message('note_on', channel=9, note=35, velocity=127, time=0),
    Message('note_on', channel=9, note=35, velocity=0, time=256),
    Message('note_on', channel=9, note=42, velocity=0, time=0),
    Message('note_on', channel=9, note=42, velocity=127, time=128),
    Message('note_on', channel=9, note=38, velocity=127, time=0),
    Message('note_on', channel=9, note=35, velocity=127, time=192),
    Message('note_on', channel=9, note=38, velocity=0, time=64),
    Message('note_on', channel=9, note=42, velocity=0, time=0),
    Message('note_on', channel=9, note=35, velocity=0, time=64),
    Message('note_on', channel=9, note=42, velocity=127, time=64),
    Message('note_on', channel=9, note=35, velocity=127, time=0),
    Message('note_on', channel=9, note=35, velocity=0, time=256),
    Message('note_on', channel=9, note=42, velocity=0, time=0),
    Message('note_on', channel=9, note=42, velocity=127, time=128),
    Message('note_on', channel=9, note=38, velocity=127, time=0),
    Message('note_on', channel=9, note=35, velocity=127, time=192),
    Message('note_on', channel=9, note=38, velocity=0, time=64),
    Message('note_on', channel=9, note=42, velocity=0, time=0),
    Message('note_on', channel=9, note=35, velocity=0, time=64),
    Message('note_on', channel=9, note=42, velocity=127, time=64),
    Message('note_on', channel=9, note=35, velocity=127, time=0),
    Message('note_on', channel=9, note=57, velocity=127, time=0),
    Message('note_on', channel=9, note=38, velocity=127, time=0),
    Message('note_on', channel=9, note=38, velocity=0, time=256),
    Message('note_on', channel=9, note=42, velocity=0, time=0),
    Message('note_on', channel=9, note=35, velocity=0, time=0),
    Message('note_on', channel=9, note=57, velocity=0, time=0),
    Message('note_on', channel=9, note=42, velocity=127, time=128),
    Message('note_on', channel=9, note=38, velocity=127, time=0),
    Message('note_on', channel=9, note=35, velocity=127, time=0),
    Message('note_on', channel=9, note=57, velocity=127, time=0),
    Message('note_on', channel=9, note=57, velocity=0, time=256),
    Message('note_on', channel=9, note=42, velocity=0, time=0),
    Message('note_on', channel=9, note=38, velocity=0, time=0),
    Message('note_on', channel=9, note=35, velocity=0, time=0),
    Message('note_on', channel=9, note=42, velocity=127, time=128),
    Message('note_on', channel=9, note=35, velocity=127, time=0),
    Message('note_on', channel=9, note=38, velocity=127, time=0),
    Message('note_on', channel=9, note=57, velocity=127, time=0),
    Message('note_on', channel=9, note=57, velocity=0, time=256),
    Message('note_on', channel=9, note=42, velocity=0, time=0),
    Message('note_on', channel=9, note=35, velocity=0, time=0),
    Message('note_on', channel=9, note=38, velocity=0, time=0),
    Message('note_on', channel=9, note=42, velocity=127, time=128),
    Message('note_on', channel=9, note=38, velocity=127, time=0),
    Message('note_on', channel=9, note=35, velocity=127, time=0),
    Message('note_on', channel=9, note=57, velocity=127, time=0),
    Message('note_on', channel=9, note=57, velocity=0, time=256),
    Message('note_on', channel=9, note=42, velocity=0, time=0),
    Message('note_on', channel=9, note=38, velocity=0, time=0),
    Message('note_on', channel=9, note=35, velocity=0, time=0),
    Message('note_on', channel=9, note=42, velocity=127, time=128),
    Message('note_on', channel=9, note=35, velocity=127, time=0),
    Message('note_on', channel=9, note=57, velocity=127, time=0),
    Message('note_on', channel=9, note=38, velocity=127, time=0),
    Message('note_on', channel=9, note=38, velocity=0, time=256),
    Message('note_on', channel=9, note=42, velocity=0, time=0),
    Message('note_on', channel=9, note=35, velocity=0, time=0),
    Message('note_on', channel=9, note=57, velocity=0, time=0),
    Message('note_on', channel=9, note=42, velocity=127, time=128),
    Message('note_on', channel=9, note=38, velocity=127, time=0),
    Message('note_on', channel=9, note=38, velocity=0, time=256),
    Message('note_on', channel=9, note=42, velocity=0, time=0),
    Message('note_on', channel=9, note=42, velocity=127, time=128),
    Message('note_on', channel=9, note=35, velocity=127, time=0),
    Message('note_on', channel=9, note=35, velocity=0, time=256),
    Message('note_on', channel=9, note=42, velocity=0, time=0),
    Message('note_on', channel=9, note=42, velocity=127, time=128),
    Message('note_on', channel=9, note=38, velocity=127, time=0),
    Message('note_on', channel=9, note=38, velocity=0, time=256),
    Message('note_on', channel=9, note=42, velocity=0, time=0),
    Message('note_on', channel=9, note=42, velocity=127, time=128),
    Message('note_on', channel=9, note=35, velocity=127, time=0),
    Message('note_on', channel=9, note=35, velocity=0, time=256),
    Message('note_on', channel=9, note=42, velocity=0, time=0),
    Message('note_on', channel=9, note=42, velocity=127, time=128),
    Message('note_on', channel=9, note=38, velocity=127, time=0),
    Message('note_on', channel=9, note=38, velocity=0, time=256),
    Message('note_on', channel=9, note=42, velocity=0, time=0),
    Message('note_on', channel=9, note=42, velocity=127, time=128),
    Message('note_on', channel=9, note=35, velocity=127, time=0),
    Message('note_on', channel=9, note=35, velocity=0, time=256),
    Message('note_on', channel=9, note=42, velocity=0, time=0),
    Message('note_on', channel=9, note=42, velocity=127, time=128),
    Message('note_on', channel=9, note=38, velocity=127, time=0),
    Message('note_on', channel=9, note=35, velocity=127, time=192),
    Message('note_on', channel=9, note=38, velocity=0, time=64),
    Message('note_on', channel=9, note=42, velocity=0, time=0),
    Message('note_on', channel=9, note=35, velocity=0, time=64),
    Message('note_on', channel=9, note=42, velocity=127, time=64),
    Message('note_on', channel=9, note=35, velocity=127, time=0),
    Message('note_on', channel=9, note=35, velocity=0, time=256),
    Message('note_on', channel=9, note=42, velocity=0, time=0),
    Message('note_on', channel=9, note=42, velocity=127, time=128),
    Message('note_on', channel=9, note=38, velocity=127, time=0),
    Message('note_on', channel=9, note=35, velocity=127, time=192),
    Message('note_on', channel=9, note=38, velocity=0, time=64),
    Message('note_on', channel=9, note=42, velocity=0, time=0),
    Message('note_on', channel=9, note=35, velocity=0, time=64),
    Message('note_on', channel=9, note=42, velocity=127, time=64),
    Message('note_on', channel=9, note=35, velocity=127, time=0),
    Message('note_on', channel=9, note=35, velocity=0, time=256),
    Message('note_on', channel=9, note=42, velocity=0, time=0),
    Message('note_on', channel=9, note=42, velocity=127, time=128),
    Message('note_on', channel=9, note=38, velocity=127, time=0),
    Message('note_on', channel=9, note=35, velocity=127, time=192),
    Message('note_on', channel=9, note=38, velocity=0, time=64),
    Message('note_on', channel=9, note=42, velocity=0, time=0),
    Message('note_on', channel=9, note=35, velocity=0, time=64),
    Message('note_on', channel=9, note=42, velocity=127, time=64),
    Message('note_on', channel=9, note=35, velocity=127, time=0),
    Message('note_on', channel=9, note=49, velocity=127, time=0),
    Message('note_on', channel=9, note=35, velocity=0, time=256),
    Message('note_on', channel=9, note=42, velocity=0, time=0),
    Message('note_on', channel=9, note=42, velocity=127, time=128),
    Message('note_on', channel=9, note=38, velocity=127, time=0),
    Message('note_on', channel=9, note=38, velocity=0, time=256),
    Message('note_on', channel=9, note=42, velocity=0, time=0),
    Message('note_on', channel=9, note=42, velocity=127, time=128),
    Message('note_on', channel=9, note=35, velocity=127, time=0),
    Message('note_on', channel=9, note=35, velocity=0, time=256),
    Message('note_on', channel=9, note=42, velocity=0, time=0),
    Message('note_on', channel=9, note=49, velocity=0, time=4),
    Message('note_on', channel=9, note=42, velocity=127, time=124),
    Message('note_on', channel=9, note=38, velocity=127, time=0),
    Message('note_on', channel=9, note=35, velocity=127, time=192),
    Message('note_on', channel=9, note=38, velocity=0, time=64),
    Message('note_on', channel=9, note=42, velocity=0, time=0),
    Message('note_on', channel=9, note=35, velocity=0, time=64),
    Message('note_on', channel=9, note=42, velocity=127, time=64),
    Message('note_on', channel=9, note=35, velocity=127, time=0),
    Message('note_on', channel=9, note=35, velocity=0, time=256),
    Message('note_on', channel=9, note=42, velocity=0, time=0),
    Message('note_on', channel=9, note=42, velocity=127, time=128),
    Message('note_on', channel=9, note=38, velocity=127, time=0),
    Message('note_on', channel=9, note=35, velocity=127, time=192),
    Message('note_on', channel=9, note=38, velocity=0, time=64),
    Message('note_on', channel=9, note=42, velocity=0, time=0),
    Message('note_on', channel=9, note=35, velocity=0, time=64),
    Message('note_on', channel=9, note=42, velocity=127, time=64),
    Message('note_on', channel=9, note=35, velocity=127, time=0),
    Message('note_on', channel=9, note=35, velocity=0, time=256),
    Message('note_on', channel=9, note=42, velocity=0, time=0),
    Message('note_on', channel=9, note=42, velocity=127, time=128),
    Message('note_on', channel=9, note=38, velocity=127, time=0),
    Message('note_on', channel=9, note=35, velocity=127, time=192),
    Message('note_on', channel=9, note=57, velocity=127, time=0),
    Message('note_on', channel=9, note=38, velocity=0, time=64),
    Message('note_on', channel=9, note=42, velocity=0, time=0),
    Message('note_on', channel=9, note=35, velocity=0, time=64),
    Message('note_on', channel=9, note=57, velocity=0, time=0),
    Message('note_on', channel=9, note=42, velocity=127, time=64),
    Message('note_on', channel=9, note=35, velocity=127, time=0),
    Message('note_on', channel=9, note=49, velocity=127, time=0),
    Message('note_on', channel=9, note=35, velocity=0, time=256),
    Message('note_on', channel=9, note=42, velocity=0, time=0),
    Message('note_on', channel=9, note=42, velocity=127, time=128),
    Message('note_on', channel=9, note=38, velocity=127, time=0),
    Message('note_on', channel=9, note=35, velocity=127, time=192),
    Message('note_on', channel=9, note=38, velocity=0, time=64),
    Message('note_on', channel=9, note=42, velocity=0, time=0),
    Message('note_on', channel=9, note=35, velocity=0, time=64),
    Message('note_on', channel=9, note=42, velocity=127, time=64),
    Message('note_on', channel=9, note=35, velocity=127, time=0),
    Message('note_on', channel=9, note=35, velocity=0, time=256),
    Message('note_on', channel=9, note=42, velocity=0, time=0),
    Message('note_on', channel=9, note=49, velocity=0, time=4),
    Message('note_on', channel=9, note=42, velocity=127, time=124),
    Message('note_on', channel=9, note=38, velocity=127, time=0),
    Message('note_on', channel=9, note=38, velocity=0, time=256),
    Message('note_on', channel=9, note=42, velocity=0, time=0),
    Message('note_on', channel=9, note=42, velocity=127, time=128),
    Message('note_on', channel=9, note=35, velocity=127, time=0),
    Message('note_on', channel=9, note=35, velocity=0, time=256),
    Message('note_on', channel=9, note=42, velocity=0, time=0),
    Message('note_on', channel=9, note=42, velocity=127, time=128),
    Message('note_on', channel=9, note=38, velocity=127, time=0),
    Message('note_on', channel=9, note=35, velocity=127, time=192),
    Message('note_on', channel=9, note=38, velocity=0, time=64),
    Message('note_on', channel=9, note=42, velocity=0, time=0),
    Message('note_on', channel=9, note=35, velocity=0, time=64),
    Message('note_on', channel=9, note=42, velocity=127, time=64),
    Message('note_on', channel=9, note=35, velocity=127, time=0),
    Message('note_on', channel=9, note=35, velocity=0, time=256),
    Message('note_on', channel=9, note=42, velocity=0, time=0),
    Message('note_on', channel=9, note=42, velocity=127, time=128),
    Message('note_on', channel=9, note=38, velocity=127, time=0),
    Message('note_on', channel=9, note=35, velocity=127, time=192),
    Message('note_on', channel=9, note=38, velocity=127, time=0),
    Message('note_on', channel=9, note=38, velocity=0, time=64),
    Message('note_on', channel=9, note=42, velocity=0, time=0),
    Message('note_on', channel=9, note=38, velocity=0, time=0),
    Message('note_on', channel=9, note=38, velocity=127, time=32),
    Message('note_on', channel=9, note=35, velocity=0, time=32),
    Message('note_on', channel=9, note=38, velocity=0, time=32),
    Message('note_on', channel=9, note=42, velocity=127, time=32),
    Message('note_on', channel=9, note=35, velocity=127, time=0),
    Message('note_on', channel=9, note=49, velocity=127, time=0),
    Message('note_on', channel=9, note=35, velocity=0, time=256),
    Message('note_on', channel=9, note=42, velocity=0, time=0),
    Message('note_on', channel=9, note=42, velocity=127, time=128),
    Message('note_on', channel=9, note=38, velocity=127, time=0),
    Message('note_on', channel=9, note=38, velocity=0, time=256),
    Message('note_on', channel=9, note=42, velocity=0, time=0),
    Message('note_on', channel=9, note=42, velocity=127, time=128),
    Message('note_on', channel=9, note=35, velocity=127, time=0),
    Message('note_on', channel=9, note=49, velocity=127, time=0),
    Message('note_on', channel=9, note=35, velocity=0, time=256),
    Message('note_on', channel=9, note=42, velocity=0, time=0),
    Message('note_on', channel=9, note=49, velocity=0, time=4),
    Message('note_on', channel=9, note=42, velocity=127, time=124),
    Message('note_on', channel=9, note=38, velocity=127, time=0),
    Message('note_on', channel=9, note=49, velocity=0, time=128),
    Message('note_on', channel=9, note=35, velocity=127, time=64),
    Message('note_on', channel=9, note=38, velocity=0, time=64),
    Message('note_on', channel=9, note=42, velocity=0, time=0),
    Message('note_on', channel=9, note=35, velocity=0, time=64),
    Message('note_on', channel=9, note=42, velocity=127, time=64),
    Message('note_on', channel=9, note=35, velocity=127, time=0),
    Message('note_on', channel=9, note=49, velocity=127, time=0),
    Message('note_on', channel=9, note=35, velocity=0, time=256),
    Message('note_on', channel=9, note=42, velocity=0, time=0),
    Message('note_on', channel=9, note=42, velocity=127, time=128),
    Message('note_on', channel=9, note=38, velocity=127, time=0),
    Message('note_on', channel=9, note=49, velocity=0, time=128),
    Message('note_on', channel=9, note=35, velocity=127, time=64),
    Message('note_on', channel=9, note=38, velocity=0, time=64),
    Message('note_on', channel=9, note=42, velocity=0, time=0),
    Message('note_on', channel=9, note=35, velocity=0, time=64),
    Message('note_on', channel=9, note=42, velocity=127, time=64),
    Message('note_on', channel=9, note=35, velocity=127, time=0),
    Message('note_on', channel=9, note=49, velocity=127, time=0),
    Message('note_on', channel=9, note=35, velocity=0, time=256),
    Message('note_on', channel=9, note=42, velocity=0, time=0),
    Message('note_on', channel=9, note=42, velocity=127, time=128),
    Message('note_on', channel=9, note=38, velocity=127, time=0),
    Message('note_on', channel=9, note=49, velocity=0, time=128),
    Message('note_on', channel=9, note=35, velocity=127, time=64),
    Message('note_on', channel=9, note=38, velocity=0, time=64),
    Message('note_on', channel=9, note=42, velocity=0, time=0),
    Message('note_on', channel=9, note=35, velocity=0, time=64),
    Message('note_on', channel=9, note=35, velocity=127, time=64),
    Message('note_on', channel=9, note=47, velocity=127, time=0),
    Message('note_on', channel=9, note=45, velocity=127, time=0),
    Message('note_on', channel=9, note=38, velocity=127, time=0),
    Message('note_on', channel=9, note=57, velocity=127, time=0),
    Message('note_on', channel=9, note=49, velocity=127, time=0),
    Message('note_on', channel=9, note=45, velocity=0, time=128),
    Message('note_on', channel=9, note=35, velocity=0, time=0),
    Message('note_on', channel=9, note=47, velocity=0, time=0),
    Message('note_on', channel=9, note=35, velocity=127, time=64),
    Message('note_on', channel=9, note=45, velocity=127, time=0),
    Message('note_on', channel=9, note=38, velocity=127, time=0),
    Message('note_on', channel=9, note=45, velocity=0, time=128),
    Message('note_on', channel=9, note=35, velocity=0, time=0),
    Message('note_on', channel=9, note=38, velocity=0, time=0),
    Message('note_on', channel=9, note=35, velocity=127, time=64),
    Message('note_on', channel=9, note=47, velocity=127, time=0),
    Message('note_on', channel=9, note=45, velocity=127, time=0),
    Message('note_on', channel=9, note=38, velocity=127, time=0),
    Message('note_on', channel=9, note=45, velocity=0, time=128),
    Message('note_on', channel=9, note=35, velocity=0, time=0),
    Message('note_on', channel=9, note=38, velocity=0, time=0),
    Message('note_on', channel=9, note=47, velocity=0, time=0),
    Message('note_on', channel=9, note=35, velocity=127, time=64),
    Message('note_on', channel=9, note=45, velocity=127, time=0),
    Message('note_on', channel=9, note=38, velocity=127, time=0),
    Message('note_on', channel=9, note=45, velocity=0, time=128),
    Message('note_on', channel=9, note=35, velocity=0, time=0),
    Message('note_on', channel=9, note=38, velocity=0, time=0),
    Message('note_on', channel=9, note=35, velocity=127, time=64),
    Message('note_on', channel=9, note=47, velocity=127, time=0),
    Message('note_on', channel=9, note=45, velocity=127, time=0),
    Message('note_on', channel=9, note=38, velocity=127, time=0),
    Message('note_on', channel=9, note=45, velocity=0, time=128),
    Message('note_on', channel=9, note=35, velocity=0, time=0),
    Message('note_on', channel=9, note=38, velocity=0, time=0),
    Message('note_on', channel=9, note=47, velocity=0, time=0),
    Message('note_on', channel=9, note=35, velocity=127, time=64),
    Message('note_on', channel=9, note=45, velocity=127, time=0),
    Message('note_on', channel=9, note=38, velocity=127, time=0),
    Message('note_on', channel=9, note=49, velocity=0, time=68),
    Message('note_on', channel=9, note=57, velocity=0, time=0),
    Message('note_on', channel=9, note=38, velocity=0, time=0),
    Message('note_on', channel=9, note=35, velocity=0, time=60),
    Message('note_on', channel=9, note=45, velocity=0, time=0),
    Message('note_on', channel=9, note=38, velocity=0, time=0),
    Message('note_on', channel=9, note=35, velocity=127, time=64),
    Message('note_on', channel=9, note=47, velocity=127, time=0),
    Message('note_on', channel=9, note=45, velocity=127, time=0),
    Message('note_on', channel=9, note=38, velocity=127, time=0),
    Message('note_on', channel=9, note=38, velocity=0, time=128),
    Message('note_on', channel=9, note=35, velocity=0, time=0),
    Message('note_on', channel=9, note=47, velocity=0, time=0),
    Message('note_on', channel=9, note=45, velocity=0, time=0),
    Message('note_on', channel=9, note=35, velocity=127, time=64),
    Message('note_on', channel=9, note=45, velocity=127, time=0),
    Message('note_on', channel=9, note=38, velocity=127, time=0),
    Message('note_on', channel=9, note=38, velocity=0, time=128),
    Message('note_on', channel=9, note=45, velocity=0, time=0),
    Message('note_on', channel=9, note=35, velocity=0, time=0),
    Message('note_on', channel=9, note=35, velocity=127, time=64),
    Message('note_on', channel=9, note=47, velocity=127, time=0),
    Message('note_on', channel=9, note=45, velocity=127, time=0),
    Message('note_on', channel=9, note=38, velocity=127, time=0),
    Message('note_on', channel=9, note=38, velocity=0, time=128),
    Message('note_on', channel=9, note=35, velocity=0, time=0),
    Message('note_on', channel=9, note=47, velocity=0, time=0),
    Message('note_on', channel=9, note=45, velocity=0, time=0),
    Message('note_on', channel=9, note=35, velocity=127, time=64),
    Message('note_on', channel=9, note=45, velocity=127, time=0),
    Message('note_on', channel=9, note=38, velocity=127, time=0),
    Message('note_on', channel=9, note=38, velocity=0, time=128),
    Message('note_on', channel=9, note=45, velocity=0, time=0),
    Message('note_on', channel=9, note=35, velocity=0, time=0),
    Message('note_on', channel=9, note=35, velocity=127, time=64),
    Message('note_on', channel=9, note=47, velocity=127, time=0),
    Message('note_on', channel=9, note=45, velocity=127, time=0),
    Message('note_on', channel=9, note=38, velocity=127, time=0),
    Message('note_on', channel=9, note=38, velocity=0, time=128),
    Message('note_on', channel=9, note=35, velocity=0, time=0),
    Message('note_on', channel=9, note=47, velocity=0, time=0),
    Message('note_on', channel=9, note=45, velocity=0, time=0),
    Message('note_on', channel=9, note=35, velocity=127, time=64),
    Message('note_on', channel=9, note=45, velocity=127, time=0),
    Message('note_on', channel=9, note=38, velocity=127, time=0),
    Message('note_on', channel=9, note=38, velocity=0, time=128),
    Message('note_on', channel=9, note=45, velocity=0, time=0),
    Message('note_on', channel=9, note=35, velocity=0, time=0),
    Message('note_on', channel=9, note=35, velocity=127, time=64),
    Message('note_on', channel=9, note=47, velocity=127, time=0),
    Message('note_on', channel=9, note=45, velocity=127, time=0),
    Message('note_on', channel=9, note=38, velocity=127, time=0),
    Message('note_on', channel=9, note=38, velocity=0, time=128),
    Message('note_on', channel=9, note=35, velocity=0, time=0),
    Message('note_on', channel=9, note=47, velocity=0, time=0),
    Message('note_on', channel=9, note=45, velocity=0, time=0),
    Message('note_on', channel=9, note=35, velocity=127, time=64),
    Message('note_on', channel=9, note=45, velocity=127, time=0),
    Message('note_on', channel=9, note=38, velocity=127, time=0),
    Message('note_on', channel=9, note=38, velocity=0, time=128),
    Message('note_on', channel=9, note=45, velocity=0, time=0),
    Message('note_on', channel=9, note=35, velocity=0, time=0),
    Message('note_on', channel=9, note=35, velocity=127, time=64),
    Message('note_on', channel=9, note=47, velocity=127, time=0),
    Message('note_on', channel=9, note=45, velocity=127, time=0),
    Message('note_on', channel=9, note=38, velocity=127, time=0),
    Message('note_on', channel=9, note=38, velocity=0, time=128),
    Message('note_on', channel=9, note=35, velocity=0, time=0),
    Message('note_on', channel=9, note=47, velocity=0, time=0),
    Message('note_on', channel=9, note=45, velocity=0, time=0),
    Message('note_on', channel=9, note=35, velocity=127, time=64),
    Message('note_on', channel=9, note=45, velocity=127, time=0),
    Message('note_on', channel=9, note=38, velocity=127, time=0),
    Message('note_on', channel=9, note=38, velocity=0, time=128),
    Message('note_on', channel=9, note=45, velocity=0, time=0),
    Message('note_on', channel=9, note=35, velocity=0, time=0),
    Message('note_on', channel=9, note=42, velocity=127, time=64),
    Message('note_on', channel=9, note=35, velocity=127, time=0),
    Message('note_on', channel=9, note=57, velocity=127, time=0),
    Message('note_on', channel=9, note=38, velocity=127, time=0),
    Message('note_on', channel=9, note=38, velocity=0, time=256),
    Message('note_on', channel=9, note=42, velocity=0, time=0),
    Message('note_on', channel=9, note=35, velocity=0, time=0),
    Message('note_on', channel=9, note=42, velocity=127, time=128),
    Message('note_on', channel=9, note=38, velocity=127, time=0),
    Message('note_on', channel=9, note=38, velocity=0, time=256),
    Message('note_on', channel=9, note=42, velocity=0, time=0),
    Message('note_on', channel=9, note=42, velocity=127, time=128),
    Message('note_on', channel=9, note=35, velocity=127, time=0),
    Message('note_on', channel=9, note=35, velocity=0, time=256),
    Message('note_on', channel=9, note=42, velocity=0, time=0),
    Message('note_on', channel=9, note=57, velocity=0, time=4),
    Message('note_on', channel=9, note=42, velocity=127, time=124),
    Message('note_on', channel=9, note=38, velocity=127, time=0),
    Message('note_on', channel=9, note=35, velocity=127, time=192),
    Message('note_on', channel=9, note=38, velocity=0, time=64),
    Message('note_on', channel=9, note=42, velocity=0, time=0),
    Message('note_on', channel=9, note=35, velocity=0, time=64),
    Message('note_on', channel=9, note=42, velocity=127, time=64),
    Message('note_on', channel=9, note=35, velocity=127, time=0),
    Message('note_on', channel=9, note=35, velocity=0, time=256),
    Message('note_on', channel=9, note=42, velocity=0, time=0),
    Message('note_on', channel=9, note=42, velocity=127, time=128),
    Message('note_on', channel=9, note=38, velocity=127, time=0),
    Message('note_on', channel=9, note=35, velocity=127, time=192),
    Message('note_on', channel=9, note=38, velocity=0, time=64),
    Message('note_on', channel=9, note=42, velocity=0, time=0),
    Message('note_on', channel=9, note=35, velocity=0, time=64),
    Message('note_on', channel=9, note=42, velocity=127, time=64),
    Message('note_on', channel=9, note=35, velocity=127, time=0),
    Message('note_on', channel=9, note=35, velocity=0, time=256),
    Message('note_on', channel=9, note=42, velocity=0, time=0),
    Message('note_on', channel=9, note=42, velocity=127, time=128),
    Message('note_on', channel=9, note=38, velocity=127, time=0),
    Message('note_on', channel=9, note=35, velocity=127, time=192),
    Message('note_on', channel=9, note=38, velocity=0, time=64),
    Message('note_on', channel=9, note=42, velocity=0, time=0),
    Message('note_on', channel=9, note=35, velocity=0, time=64),
    Message('note_on', channel=9, note=42, velocity=127, time=64),
    Message('note_on', channel=9, note=35, velocity=127, time=0),
    Message('note_on', channel=9, note=49, velocity=127, time=0),
    Message('note_on', channel=9, note=35, velocity=0, time=256),
    Message('note_on', channel=9, note=42, velocity=0, time=0),
    Message('note_on', channel=9, note=42, velocity=127, time=128),
    Message('note_on', channel=9, note=38, velocity=127, time=0),
    Message('note_on', channel=9, note=38, velocity=0, time=256),
    Message('note_on', channel=9, note=42, velocity=0, time=0),
    Message('note_on', channel=9, note=42, velocity=127, time=128),
    Message('note_on', channel=9, note=35, velocity=127, time=0),
    Message('note_on', channel=9, note=35, velocity=0, time=256),
    Message('note_on', channel=9, note=42, velocity=0, time=0),
    Message('note_on', channel=9, note=49, velocity=0, time=4),
    Message('note_on', channel=9, note=42, velocity=127, time=124),
    Message('note_on', channel=9, note=38, velocity=127, time=0),
    Message('note_on', channel=9, note=35, velocity=127, time=192),
    Message('note_on', channel=9, note=38, velocity=0, time=64),
    Message('note_on', channel=9, note=42, velocity=0, time=0),
    Message('note_on', channel=9, note=35, velocity=0, time=64),
    Message('note_on', channel=9, note=42, velocity=127, time=64),
    Message('note_on', channel=9, note=35, velocity=127, time=0),
    Message('note_on', channel=9, note=35, velocity=0, time=256),
    Message('note_on', channel=9, note=42, velocity=0, time=0),
    Message('note_on', channel=9, note=42, velocity=127, time=128),
    Message('note_on', channel=9, note=38, velocity=127, time=0),
    Message('note_on', channel=9, note=35, velocity=127, time=192),
    Message('note_on', channel=9, note=38, velocity=0, time=64),
    Message('note_on', channel=9, note=42, velocity=0, time=0),
    Message('note_on', channel=9, note=35, velocity=0, time=64),
    Message('note_on', channel=9, note=42, velocity=127, time=64),
    Message('note_on', channel=9, note=35, velocity=127, time=0),
    Message('note_on', channel=9, note=35, velocity=0, time=256),
    Message('note_on', channel=9, note=42, velocity=0, time=0),
    Message('note_on', channel=9, note=42, velocity=127, time=128),
    Message('note_on', channel=9, note=38, velocity=127, time=0),
    Message('note_on', channel=9, note=35, velocity=127, time=192),
    Message('note_on', channel=9, note=38, velocity=0, time=64),
    Message('note_on', channel=9, note=42, velocity=0, time=0),
    Message('note_on', channel=9, note=35, velocity=0, time=64),
    Message('note_on', channel=9, note=42, velocity=127, time=64),
    Message('note_on', channel=9, note=35, velocity=127, time=0),
    Message('note_on', channel=9, note=57, velocity=127, time=0),
    Message('note_on', channel=9, note=35, velocity=0, time=256),
    Message('note_on', channel=9, note=42, velocity=0, time=0),
    Message('note_on', channel=9, note=42, velocity=127, time=128),
    Message('note_on', channel=9, note=38, velocity=127, time=0),
    Message('note_on', channel=9, note=38, velocity=0, time=256),
    Message('note_on', channel=9, note=42, velocity=0, time=0),
    Message('note_on', channel=9, note=42, velocity=127, time=128),
    Message('note_on', channel=9, note=35, velocity=127, time=0),
    Message('note_on', channel=9, note=49, velocity=127, time=0),
    Message('note_on', channel=9, note=35, velocity=0, time=256),
    Message('note_on', channel=9, note=42, velocity=0, time=0),
    Message('note_on', channel=9, note=57, velocity=0, time=4),
    Message('note_on', channel=9, note=42, velocity=127, time=124),
    Message('note_on', channel=9, note=38, velocity=127, time=0),
    Message('note_on', channel=9, note=49, velocity=0, time=128),
    Message('note_on', channel=9, note=35, velocity=127, time=64),
    Message('note_on', channel=9, note=38, velocity=0, time=64),
    Message('note_on', channel=9, note=42, velocity=0, time=0),
    Message('note_on', channel=9, note=35, velocity=0, time=64),
    Message('note_on', channel=9, note=42, velocity=127, time=64),
    Message('note_on', channel=9, note=35, velocity=127, time=0),
    Message('note_on', channel=9, note=57, velocity=127, time=0),
    Message('note_on', channel=9, note=35, velocity=0, time=256),
    Message('note_on', channel=9, note=42, velocity=0, time=0),
    Message('note_on', channel=9, note=42, velocity=127, time=128),
    Message('note_on', channel=9, note=38, velocity=127, time=0),
    Message('note_on', channel=9, note=57, velocity=0, time=128),
    Message('note_on', channel=9, note=35, velocity=127, time=64),
    Message('note_on', channel=9, note=38, velocity=0, time=64),
    Message('note_on', channel=9, note=42, velocity=0, time=0),
    Message('note_on', channel=9, note=35, velocity=0, time=64),
    Message('note_on', channel=9, note=42, velocity=127, time=64),
    Message('note_on', channel=9, note=35, velocity=127, time=0),
    Message('note_on', channel=9, note=57, velocity=127, time=0),
    Message('note_on', channel=9, note=35, velocity=0, time=256),
    Message('note_on', channel=9, note=42, velocity=0, time=0),
    Message('note_on', channel=9, note=42, velocity=127, time=128),
    Message('note_on', channel=9, note=38, velocity=127, time=0),
    Message('note_on', channel=9, note=57, velocity=0, time=128),
    Message('note_on', channel=9, note=35, velocity=127, time=64),
    Message('note_on', channel=9, note=38, velocity=0, time=64),
    Message('note_on', channel=9, note=42, velocity=0, time=0),
    Message('note_on', channel=9, note=35, velocity=0, time=64),
    Message('note_on', channel=9, note=42, velocity=127, time=64),
    Message('note_on', channel=9, note=35, velocity=127, time=0),
    Message('note_on', channel=9, note=57, velocity=127, time=0),
    Message('note_on', channel=9, note=35, velocity=0, time=256),
    Message('note_on', channel=9, note=42, velocity=0, time=0),
    Message('note_on', channel=9, note=42, velocity=127, time=128),
    Message('note_on', channel=9, note=38, velocity=127, time=0),
    Message('note_on', channel=9, note=57, velocity=0, time=128),
    Message('note_on', channel=9, note=38, velocity=0, time=128),
    Message('note_on', channel=9, note=42, velocity=0, time=0),
    Message('note_on', channel=9, note=42, velocity=127, time=128),
    Message('note_on', channel=9, note=35, velocity=127, time=0),
    Message('note_on', channel=9, note=49, velocity=127, time=0),
    Message('note_on', channel=9, note=35, velocity=0, time=256),
    Message('note_on', channel=9, note=42, velocity=0, time=0),
    Message('note_on', channel=9, note=42, velocity=127, time=128),
    Message('note_on', channel=9, note=38, velocity=127, time=0),
    Message('note_on', channel=9, note=49, velocity=0, time=128),
    Message('note_on', channel=9, note=35, velocity=127, time=64),
    Message('note_on', channel=9, note=38, velocity=0, time=64),
    Message('note_on', channel=9, note=42, velocity=0, time=0),
    Message('note_on', channel=9, note=35, velocity=0, time=64),
    Message('note_on', channel=9, note=42, velocity=127, time=64),
    Message('note_on', channel=9, note=35, velocity=127, time=0),
    Message('note_on', channel=9, note=57, velocity=127, time=0),
    Message('note_on', channel=9, note=35, velocity=0, time=256),
    Message('note_on', channel=9, note=42, velocity=0, time=0),
    Message('note_on', channel=9, note=42, velocity=127, time=128),
    Message('note_on', channel=9, note=38, velocity=127, time=0),
    Message('note_on', channel=9, note=57, velocity=0, time=128),
    Message('note_on', channel=9, note=35, velocity=127, time=64),
    Message('note_on', channel=9, note=38, velocity=0, time=64),
    Message('note_on', channel=9, note=42, velocity=0, time=0),
    Message('note_on', channel=9, note=35, velocity=0, time=64),
    Message('note_on', channel=9, note=42, velocity=127, time=64),
    Message('note_on', channel=9, note=35, velocity=127, time=0),
    Message('note_on', channel=9, note=49, velocity=127, time=0),
    Message('note_on', channel=9, note=35, velocity=0, time=256),
    Message('note_on', channel=9, note=42, velocity=0, time=0),
    Message('note_on', channel=9, note=42, velocity=127, time=128),
    Message('note_on', channel=9, note=38, velocity=127, time=0),
    Message('note_on', channel=9, note=49, velocity=0, time=128),
    Message('note_on', channel=9, note=35, velocity=127, time=64),
    Message('note_on', channel=9, note=38, velocity=0, time=64),
    Message('note_on', channel=9, note=42, velocity=0, time=0),
    Message('note_on', channel=9, note=35, velocity=0, time=64),
    Message('note_on', channel=9, note=35, velocity=127, time=64),
    Message('note_on', channel=9, note=47, velocity=127, time=0),
    Message('note_on', channel=9, note=45, velocity=127, time=0),
    Message('note_on', channel=9, note=38, velocity=127, time=0),
    Message('note_on', channel=9, note=57, velocity=127, time=0),
    Message('note_on', channel=9, note=49, velocity=127, time=0),
    Message('note_on', channel=9, note=45, velocity=0, time=128),
    Message('note_on', channel=9, note=35, velocity=0, time=0),
    Message('note_on', channel=9, note=47, velocity=0, time=0),
    Message('note_on', channel=9, note=35, velocity=127, time=64),
    Message('note_on', channel=9, note=45, velocity=127, time=0),
    Message('note_on', channel=9, note=38, velocity=127, time=0),
    Message('note_on', channel=9, note=45, velocity=0, time=128),
    Message('note_on', channel=9, note=35, velocity=0, time=0),
    Message('note_on', channel=9, note=38, velocity=0, time=0),
    Message('note_on', channel=9, note=35, velocity=127, time=64),
    Message('note_on', channel=9, note=47, velocity=127, time=0),
    Message('note_on', channel=9, note=45, velocity=127, time=0),
    Message('note_on', channel=9, note=38, velocity=127, time=0),
    Message('note_on', channel=9, note=45, velocity=0, time=128),
    Message('note_on', channel=9, note=35, velocity=0, time=0),
    Message('note_on', channel=9, note=38, velocity=0, time=0),
    Message('note_on', channel=9, note=47, velocity=0, time=0),
    Message('note_on', channel=9, note=35, velocity=127, time=64),
    Message('note_on', channel=9, note=45, velocity=127, time=0),
    Message('note_on', channel=9, note=38, velocity=127, time=0),
    Message('note_on', channel=9, note=45, velocity=0, time=128),
    Message('note_on', channel=9, note=35, velocity=0, time=0),
    Message('note_on', channel=9, note=38, velocity=0, time=0),
    Message('note_on', channel=9, note=35, velocity=127, time=64),
    Message('note_on', channel=9, note=47, velocity=127, time=0),
    Message('note_on', channel=9, note=45, velocity=127, time=0),
    Message('note_on', channel=9, note=38, velocity=127, time=0),
    Message('note_on', channel=9, note=45, velocity=0, time=128),
    Message('note_on', channel=9, note=35, velocity=0, time=0),
    Message('note_on', channel=9, note=38, velocity=0, time=0),
    Message('note_on', channel=9, note=47, velocity=0, time=0),
    Message('note_on', channel=9, note=35, velocity=127, time=64),
    Message('note_on', channel=9, note=45, velocity=127, time=0),
    Message('note_on', channel=9, note=38, velocity=127, time=0),
    Message('note_on', channel=9, note=49, velocity=0, time=68),
    Message('note_on', channel=9, note=57, velocity=0, time=0),
    Message('note_on', channel=9, note=38, velocity=0, time=0),
    Message('note_on', channel=9, note=35, velocity=0, time=60),
    Message('note_on', channel=9, note=45, velocity=0, time=0),
    Message('note_on', channel=9, note=38, velocity=0, time=0),
    Message('note_on', channel=9, note=35, velocity=127, time=64),
    Message('note_on', channel=9, note=47, velocity=127, time=0),
    Message('note_on', channel=9, note=45, velocity=127, time=0),
    Message('note_on', channel=9, note=38, velocity=127, time=0),
    Message('note_on', channel=9, note=38, velocity=0, time=128),
    Message('note_on', channel=9, note=35, velocity=0, time=0),
    Message('note_on', channel=9, note=47, velocity=0, time=0),
    Message('note_on', channel=9, note=45, velocity=0, time=0),
    Message('note_on', channel=9, note=35, velocity=127, time=64),
    Message('note_on', channel=9, note=45, velocity=127, time=0),
    Message('note_on', channel=9, note=38, velocity=127, time=0),
    Message('note_on', channel=9, note=38, velocity=0, time=128),
    Message('note_on', channel=9, note=45, velocity=0, time=0),
    Message('note_on', channel=9, note=35, velocity=0, time=0),
    Message('note_on', channel=9, note=35, velocity=127, time=64),
    Message('note_on', channel=9, note=47, velocity=127, time=0),
    Message('note_on', channel=9, note=45, velocity=127, time=0),
    Message('note_on', channel=9, note=38, velocity=127, time=0),
    Message('note_on', channel=9, note=38, velocity=0, time=128),
    Message('note_on', channel=9, note=35, velocity=0, time=0),
    Message('note_on', channel=9, note=47, velocity=0, time=0),
    Message('note_on', channel=9, note=45, velocity=0, time=0),
    Message('note_on', channel=9, note=35, velocity=127, time=64),
    Message('note_on', channel=9, note=45, velocity=127, time=0),
    Message('note_on', channel=9, note=38, velocity=127, time=0),
    Message('note_on', channel=9, note=38, velocity=0, time=128),
    Message('note_on', channel=9, note=45, velocity=0, time=0),
    Message('note_on', channel=9, note=35, velocity=0, time=0),
    Message('note_on', channel=9, note=35, velocity=127, time=64),
    Message('note_on', channel=9, note=47, velocity=127, time=0),
    Message('note_on', channel=9, note=45, velocity=127, time=0),
    Message('note_on', channel=9, note=38, velocity=127, time=0),
    Message('note_on', channel=9, note=38, velocity=0, time=128),
    Message('note_on', channel=9, note=35, velocity=0, time=0),
    Message('note_on', channel=9, note=47, velocity=0, time=0),
    Message('note_on', channel=9, note=45, velocity=0, time=0),
    Message('note_on', channel=9, note=35, velocity=127, time=64),
    Message('note_on', channel=9, note=45, velocity=127, time=0),
    Message('note_on', channel=9, note=38, velocity=127, time=0),
    Message('note_on', channel=9, note=38, velocity=0, time=128),
    Message('note_on', channel=9, note=45, velocity=0, time=0),
    Message('note_on', channel=9, note=35, velocity=0, time=0),
    Message('note_on', channel=9, note=35, velocity=127, time=64),
    Message('note_on', channel=9, note=47, velocity=127, time=0),
    Message('note_on', channel=9, note=45, velocity=127, time=0),
    Message('note_on', channel=9, note=38, velocity=127, time=0),
    Message('note_on', channel=9, note=38, velocity=0, time=128),
    Message('note_on', channel=9, note=35, velocity=0, time=0),
    Message('note_on', channel=9, note=47, velocity=0, time=0),
    Message('note_on', channel=9, note=45, velocity=0, time=0),
    Message('note_on', channel=9, note=35, velocity=127, time=64),
    Message('note_on', channel=9, note=45, velocity=127, time=0),
    Message('note_on', channel=9, note=38, velocity=127, time=0),
    Message('note_on', channel=9, note=38, velocity=0, time=128),
    Message('note_on', channel=9, note=45, velocity=0, time=0),
    Message('note_on', channel=9, note=35, velocity=0, time=0),
    Message('note_on', channel=9, note=35, velocity=127, time=64),
    Message('note_on', channel=9, note=47, velocity=127, time=0),
    Message('note_on', channel=9, note=45, velocity=127, time=0),
    Message('note_on', channel=9, note=38, velocity=127, time=0),
    Message('note_on', channel=9, note=38, velocity=0, time=128),
    Message('note_on', channel=9, note=35, velocity=0, time=0),
    Message('note_on', channel=9, note=47, velocity=0, time=0),
    Message('note_on', channel=9, note=45, velocity=0, time=0),
    Message('note_on', channel=9, note=35, velocity=127, time=64),
    Message('note_on', channel=9, note=45, velocity=127, time=0),
    Message('note_on', channel=9, note=38, velocity=127, time=0),
    Message('note_on', channel=9, note=38, velocity=0, time=128),
    Message('note_on', channel=9, note=45, velocity=0, time=0),
    Message('note_on', channel=9, note=35, velocity=0, time=0),
    Message('note_on', channel=9, note=52, velocity=127, time=64),
    Message('note_on', channel=9, note=52, velocity=0, time=1028),
    MetaMessage('end_of_track', time=0)])
])
