MidiFile(type=1, ticks_per_beat=96, tracks=[
  MidiTrack([
    MetaMessage('time_signature', numerator=4, denominator=4, clocks_per_click=24, notated_32nd_notes_per_beat=8, time=0),
    MetaMessage('end_of_track', time=0)]),
  MidiTrack([
    MetaMessage('set_tempo', tempo=833333, time=0),
    MetaMessage('end_of_track', time=0)]),
  MidiTrack([
    MetaMessage('track_name', name='Voice', time=0),
    Message('control_change', channel=0, control=10, value=64, time=0),
    Message('control_change', channel=0, control=7, value=100, time=0),
    Message('pitchwheel', channel=0, pitch=0, time=0),
    Message('control_change', channel=0, control=101, value=0, time=0),
    Message('control_change', channel=0, control=100, value=0, time=0),
    Message('control_change', channel=0, control=6, value=12, time=0),
    Message('control_change', channel=0, control=10, value=64, time=0),
    Message('control_change', channel=0, control=7, value=100, time=0),
    Message('pitchwheel', channel=0, pitch=0, time=0),
    Message('program_change', channel=0, program=73, time=0),
    Message('control_change', channel=0, control=101, value=0, time=0),
    Message('control_change', channel=0, control=100, value=0, time=0),
    Message('control_change', channel=0, control=6, value=12, time=0),
    Message('control_change', channel=0, control=10, value=64, time=0),
    Message('control_change', channel=0, control=7, value=100, time=0),
    Message('pitchwheel', channel=0, pitch=0, time=0),
    Message('program_change', channel=0, program=73, time=0),
    Message('control_change', channel=0, control=101, value=0, time=0),
    Message('control_change', channel=0, control=100, value=0, time=0),
    Message('control_change', channel=0, control=6, value=12, time=0),
    Message('control_change', channel=0, control=10, value=64, time=0),
    Message('control_change', channel=0, control=7, value=100, time=0),
    Message('pitchwheel', channel=0, pitch=0, time=0),
    Message('program_change', channel=0, program=73, time=0),
    Message('note_on', channel=0, note=74, velocity=100, time=3168),
    Message('note_off', channel=0, note=74, velocity=64, time=84),
    Message('note_on', channel=0, note=74, velocity=100, time=12),
    Message('note_off', channel=0, note=74, velocity=64, time=132),
    Message('note_on', channel=0, note=71, velocity=100, time=12),
    Message('note_off', channel=0, note=71, velocity=64, time=36),
    Message('note_on', channel=0, note=71, velocity=100, time=12),
    Message('note_off', channel=0, note=71, velocity=64, time=180),
    Message('note_on', channel=0, note=76, velocity=100, time=300),
    Message('note_off', channel=0, note=76, velocity=64, time=96),
    Message('note_on', channel=0, note=78, velocity=100, time=0),
    Message('note_off', channel=0, note=78, velocity=64, time=48),
    Message('note_on', channel=0, note=79, velocity=100, time=0),
    Message('note_off', channel=0, note=79, velocity=64, time=144),
    Message('note_on', channel=0, note=76, velocity=100, time=0),
    Message('note_off', channel=0, note=76, velocity=64, time=192),
    Message('note_on', channel=0, note=74, velocity=100, time=288),
    Message('note_off', channel=0, note=74, velocity=64, time=84),
    Message('note_on', channel=0, note=74, velocity=100, time=12),
    Message('note_off', channel=0, note=74, velocity=64, time=132),
    Message('note_on', channel=0, note=71, velocity=100, time=12),
    Message('note_off', channel=0, note=71, velocity=64, time=36),
    Message('note_on', channel=0, note=71, velocity=100, time=12),
    Message('note_off', channel=0, note=71, velocity=64, time=180),
    Message('note_on', channel=0, note=71, velocity=100, time=108),
    Message('note_off', channel=0, note=71, velocity=64, time=48),
    Message('note_on', channel=0, note=72, velocity=100, time=0),
    Message('note_off', channel=0, note=72, velocity=64, time=24),
    Message('note_on', channel=0, note=71, velocity=100, time=0),
    Message('note_off', channel=0, note=71, velocity=64, time=72),
    Message('note_on', channel=0, note=72, velocity=100, time=0),
    Message('note_off', channel=0, note=72, velocity=64, time=24),
    Message('note_on', channel=0, note=71, velocity=100, time=0),
    Message('note_off', channel=0, note=71, velocity=64, time=72),
    Message('note_on', channel=0, note=72, velocity=100, time=0),
    Message('note_off', channel=0, note=72, velocity=64, time=24),
    Message('note_on', channel=0, note=71, velocity=100, time=0),
    Message('note_off', channel=0, note=71, velocity=64, time=72),
    Message('note_on', channel=0, note=72, velocity=100, time=0),
    Message('note_off', channel=0, note=72, velocity=64, time=24),
    Message('note_on', channel=0, note=71, velocity=100, time=0),
    Message('note_off', channel=0, note=71, velocity=64, time=72),
    Message('note_on', channel=0, note=67, velocity=100, time=0),
    Message('note_off', channel=0, note=67, velocity=64, time=48),
    Message('note_on', channel=0, note=67, velocity=100, time=0),
    Message('note_off', channel=0, note=67, velocity=64, time=48),
    Message('note_on', channel=0, note=66, velocity=100, time=0),
    Message('note_off', channel=0, note=66, velocity=64, time=48),
    Message('control_change', channel=0, control=101, value=0, time=288),
    Message('control_change', channel=0, control=100, value=0, time=0),
    Message('control_change', channel=0, control=6, value=12, time=0),
    Message('control_change', channel=0, control=10, value=64, time=0),
    Message('control_change', channel=0, control=7, value=100, time=0),
    Message('pitchwheel', channel=0, pitch=0, time=0),
    Message('program_change', channel=0, program=73, time=0),
    Message('control_change', channel=0, control=101, value=0, time=36),
    Message('control_change', channel=0, control=100, value=0, time=0),
    Message('control_change', channel=0, control=6, value=12, time=0),
    Message('control_change', channel=0, control=10, value=64, time=0),
    Message('control_change', channel=0, control=7, value=100, time=0),
    Message('pitchwheel', channel=0, pitch=0, time=0),
    Message('program_change', channel=0, program=73, time=0),
    MetaMessage('end_of_track', time=0)]),
  MidiTrack([
    MetaMessage('track_name', name='Chords', time=0),
    Message('control_change', channel=2, control=10, value=64, time=0),
    Message('control_change', channel=2, control=7, value=100, time=0),
    Message('pitchwheel', channel=2, pitch=0, time=0),
    Message('control_change', channel=2, control=101, value=0, time=0),
    Message('control_change', channel=2, control=100, value=0, time=0),
    Message('control_change', channel=2, control=6, value=12, time=0),
    Message('control_change', channel=2, control=10, value=64, time=0),
    Message('control_change', channel=2, control=7, value=100, time=0),
    Message('pitchwheel', channel=2, pitch=0, time=0),
    Message('program_change', channel=2, program=0, time=0),
    Message('control_change', channel=2, control=101, value=0, time=0),
    Message('control_change', channel=2, control=100, value=0, time=0),
    Message('control_change', channel=2, control=6, value=12, time=0),
    Message('control_change', channel=2, control=10, value=64, time=0),
    Message('control_change', channel=2, control=7, value=100, time=0),
    Message('pitchwheel', channel=2, pitch=0, time=0),
    Message('program_change', channel=2, program=0, time=0),
    Message('note_on', channel=2, note=76, velocity=100, time=0),
    Message('control_change', channel=2, control=101, value=0, time=0),
    Message('control_change', channel=2, control=100, value=0, time=0),
    Message('control_change', channel=2, control=6, value=12, time=0),
    Message('control_change', channel=2, control=10, value=64, time=0),
    Message('control_change', channel=2, control=7, value=100, time=0),
    Message('pitchwheel', channel=2, pitch=0, time=0),
    Message('program_change', channel=2, program=0, time=0),
    Message('note_off', channel=2, note=76, velocity=64, time=48),
    Message('note_on', channel=2, note=71, velocity=100, time=0),
    Message('note_off', channel=2, note=71, velocity=64, time=48),
    Message('note_on', channel=2, note=78, velocity=100, time=0),
    Message('note_off', channel=2, note=78, velocity=64, time=48),
    Message('note_on', channel=2, note=71, velocity=100, time=0),
    Message('note_off', channel=2, note=71, velocity=64, time=48),
    Message('note_on', channel=2, note=79, velocity=100, time=0),
    Message('note_off', channel=2, note=79, velocity=64, time=48),
    Message('note_on', channel=2, note=71, velocity=100, time=0),
    Message('note_off', channel=2, note=71, velocity=64, time=48),
    Message('note_on', channel=2, note=83, velocity=100, time=0),
    Message('note_off', channel=2, note=83, velocity=64, time=48),
    Message('note_on', channel=2, note=71, velocity=100, time=0),
    Message('note_off', channel=2, note=71, velocity=64, time=48),
    Message('note_on', channel=2, note=76, velocity=100, time=0),
    Message('note_off', channel=2, note=76, velocity=64, time=48),
    Message('note_on', channel=2, note=72, velocity=100, time=0),
    Message('note_off', channel=2, note=72, velocity=64, time=48),
    Message('note_on', channel=2, note=78, velocity=100, time=0),
    Message('note_off', channel=2, note=78, velocity=64, time=48),
    Message('note_on', channel=2, note=72, velocity=100, time=0),
    Message('note_off', channel=2, note=72, velocity=64, time=48),
    Message('note_on', channel=2, note=79, velocity=100, time=0),
    Message('note_off', channel=2, note=79, velocity=64, time=48),
    Message('note_on', channel=2, note=72, velocity=100, time=0),
    Message('note_off', channel=2, note=72, velocity=64, time=48),
    Message('note_on', channel=2, note=83, velocity=100, time=0),
    Message('note_off', channel=2, note=83, velocity=64, time=48),
    Message('note_on', channel=2, note=72, velocity=100, time=0),
    Message('note_off', channel=2, note=72, velocity=64, time=48),
    Message('note_on', channel=2, note=76, velocity=100, time=0),
    Message('note_off', channel=2, note=76, velocity=64, time=48),
    Message('note_on', channel=2, note=73, velocity=100, time=0),
    Message('note_off', channel=2, note=73, velocity=64, time=48),
    Message('note_on', channel=2, note=78, velocity=100, time=0),
    Message('note_off', channel=2, note=78, velocity=64, time=48),
    Message('note_on', channel=2, note=73, velocity=100, time=0),
    Message('note_off', channel=2, note=73, velocity=64, time=48),
    Message('note_on', channel=2, note=79, velocity=100, time=0),
    Message('note_off', channel=2, note=79, velocity=64, time=48),
    Message('note_on', channel=2, note=73, velocity=100, time=0),
    Message('note_off', channel=2, note=73, velocity=64, time=48),
    Message('note_on', channel=2, note=83, velocity=100, time=0),
    Message('note_off', channel=2, note=83, velocity=64, time=48),
    Message('note_on', channel=2, note=73, velocity=100, time=0),
    Message('note_off', channel=2, note=73, velocity=64, time=48),
    Message('note_on', channel=2, note=75, velocity=100, time=0),
    Message('note_off', channel=2, note=75, velocity=64, time=48),
    Message('note_on', channel=2, note=71, velocity=100, time=0),
    Message('note_off', channel=2, note=71, velocity=64, time=48),
    Message('note_on', channel=2, note=76, velocity=100, time=0),
    Message('note_off', channel=2, note=76, velocity=64, time=48),
    Message('note_on', channel=2, note=71, velocity=100, time=0),
    Message('note_off', channel=2, note=71, velocity=64, time=48),
    Message('note_on', channel=2, note=78, velocity=100, time=0),
    Message('note_off', channel=2, note=78, velocity=64, time=48),
    Message('note_on', channel=2, note=76, velocity=100, time=144),
    Message('note_off', channel=2, note=76, velocity=64, time=48),
    Message('note_on', channel=2, note=71, velocity=100, time=0),
    Message('note_off', channel=2, note=71, velocity=64, time=48),
    Message('note_on', channel=2, note=78, velocity=100, time=0),
    Message('note_off', channel=2, note=78, velocity=64, time=48),
    Message('note_on', channel=2, note=71, velocity=100, time=0),
    Message('note_off', channel=2, note=71, velocity=64, time=48),
    Message('note_on', channel=2, note=79, velocity=100, time=0),
    Message('note_off', channel=2, note=79, velocity=64, time=48),
    Message('note_on', channel=2, note=71, velocity=100, time=0),
    Message('note_off', channel=2, note=71, velocity=64, time=48),
    Message('note_on', channel=2, note=83, velocity=100, time=0),
    Message('note_off', channel=2, note=83, velocity=64, time=48),
    Message('note_on', channel=2, note=71, velocity=100, time=0),
    Message('note_off', channel=2, note=71, velocity=64, time=48),
    Message('note_on', channel=2, note=76, velocity=100, time=0),
    Message('note_off', channel=2, note=76, velocity=64, time=48),
    Message('note_on', channel=2, note=72, velocity=100, time=0),
    Message('note_off', channel=2, note=72, velocity=64, time=48),
    Message('note_on', channel=2, note=78, velocity=100, time=0),
    Message('note_off', channel=2, note=78, velocity=64, time=48),
    Message('note_on', channel=2, note=72, velocity=100, time=0),
    Message('note_off', channel=2, note=72, velocity=64, time=48),
    Message('note_on', channel=2, note=79, velocity=100, time=0),
    Message('note_off', channel=2, note=79, velocity=64, time=48),
    Message('note_on', channel=2, note=72, velocity=100, time=0),
    Message('note_off', channel=2, note=72, velocity=64, time=48),
    Message('note_on', channel=2, note=83, velocity=100, time=0),
    Message('note_off', channel=2, note=83, velocity=64, time=48),
    Message('note_on', channel=2, note=72, velocity=100, time=0),
    Message('note_off', channel=2, note=72, velocity=64, time=48),
    Message('note_on', channel=2, note=76, velocity=100, time=0),
    Message('note_off', channel=2, note=76, velocity=64, time=48),
    Message('note_on', channel=2, note=73, velocity=100, time=0),
    Message('note_off', channel=2, note=73, velocity=64, time=48),
    Message('note_on', channel=2, note=78, velocity=100, time=0),
    Message('note_off', channel=2, note=78, velocity=64, time=48),
    Message('note_on', channel=2, note=73, velocity=100, time=0),
    Message('note_off', channel=2, note=73, velocity=64, time=48),
    Message('note_on', channel=2, note=79, velocity=100, time=0),
    Message('note_off', channel=2, note=79, velocity=64, time=48),
    Message('note_on', channel=2, note=73, velocity=100, time=0),
    Message('note_off', channel=2, note=73, velocity=64, time=48),
    Message('note_on', channel=2, note=83, velocity=100, time=0),
    Message('note_off', channel=2, note=83, velocity=64, time=48),
    Message('note_on', channel=2, note=73, velocity=100, time=0),
    Message('note_off', channel=2, note=73, velocity=64, time=48),
    Message('note_on', channel=2, note=66, velocity=100, time=384),
    Message('note_on', channel=2, note=64, velocity=100, time=0),
    Message('note_on', channel=2, note=59, velocity=100, time=0),
    Message('note_on', channel=2, note=52, velocity=100, time=0),
    Message('note_off', channel=2, note=66, velocity=64, time=192),
    Message('note_off', channel=2, note=64, velocity=64, time=0),
    Message('note_off', channel=2, note=59, velocity=64, time=0),
    Message('note_off', channel=2, note=52, velocity=64, time=0),
    Message('note_on', channel=2, note=64, velocity=100, time=0),
    Message('note_on', channel=2, note=55, velocity=100, time=0),
    Message('note_on', channel=2, note=59, velocity=100, time=0),
    Message('note_on', channel=2, note=48, velocity=100, time=0),
    Message('note_off', channel=2, note=48, velocity=64, time=192),
    Message('note_off', channel=2, note=59, velocity=64, time=0),
    Message('note_off', channel=2, note=55, velocity=64, time=0),
    Message('note_off', channel=2, note=64, velocity=64, time=0),
    Message('note_on', channel=2, note=64, velocity=100, time=0),
    Message('note_on', channel=2, note=59, velocity=100, time=0),
    Message('note_on', channel=2, note=52, velocity=100, time=0),
    Message('note_on', channel=2, note=45, velocity=100, time=0),
    Message('note_off', channel=2, note=45, velocity=64, time=384),
    Message('note_off', channel=2, note=52, velocity=64, time=0),
    Message('note_off', channel=2, note=59, velocity=64, time=0),
    Message('note_off', channel=2, note=64, velocity=64, time=0),
    Message('note_on', channel=2, note=66, velocity=100, time=0),
    Message('note_on', channel=2, note=64, velocity=100, time=0),
    Message('note_on', channel=2, note=59, velocity=100, time=0),
    Message('note_on', channel=2, note=52, velocity=100, time=0),
    Message('note_off', channel=2, note=52, velocity=64, time=192),
    Message('note_off', channel=2, note=59, velocity=64, time=0),
    Message('note_off', channel=2, note=64, velocity=64, time=0),
    Message('note_off', channel=2, note=66, velocity=64, time=0),
    Message('note_on', channel=2, note=64, velocity=100, time=0),
    Message('note_on', channel=2, note=55, velocity=100, time=0),
    Message('note_on', channel=2, note=59, velocity=100, time=0),
    Message('note_on', channel=2, note=48, velocity=100, time=0),
    Message('note_off', channel=2, note=48, velocity=64, time=192),
    Message('note_off', channel=2, note=59, velocity=64, time=0),
    Message('note_off', channel=2, note=55, velocity=64, time=0),
    Message('note_off', channel=2, note=64, velocity=64, time=0),
    Message('note_on', channel=2, note=71, velocity=100, time=0),
    Message('note_on', channel=2, note=64, velocity=100, time=0),
    Message('note_on', channel=2, note=59, velocity=100, time=0),
    Message('note_on', channel=2, note=52, velocity=100, time=0),
    Message('note_on', channel=2, note=45, velocity=100, time=0),
    Message('note_off', channel=2, note=45, velocity=64, time=384),
    Message('note_off', channel=2, note=52, velocity=64, time=0),
    Message('note_off', channel=2, note=59, velocity=64, time=0),
    Message('note_off', channel=2, note=64, velocity=64, time=0),
    Message('note_off', channel=2, note=71, velocity=64, time=0),
    Message('note_on', channel=2, note=66, velocity=100, time=0),
    Message('note_on', channel=2, note=64, velocity=100, time=0),
    Message('note_on', channel=2, note=59, velocity=100, time=0),
    Message('note_on', channel=2, note=52, velocity=100, time=0),
    Message('note_off', channel=2, note=52, velocity=64, time=192),
    Message('note_off', channel=2, note=59, velocity=64, time=0),
    Message('note_off', channel=2, note=64, velocity=64, time=0),
    Message('note_off', channel=2, note=66, velocity=64, time=0),
    Message('note_on', channel=2, note=64, velocity=100, time=0),
    Message('note_on', channel=2, note=55, velocity=100, time=0),
    Message('note_on', channel=2, note=59, velocity=100, time=0),
    Message('note_on', channel=2, note=48, velocity=100, time=0),
    Message('note_off', channel=2, note=48, velocity=64, time=192),
    Message('note_off', channel=2, note=59, velocity=64, time=0),
    Message('note_off', channel=2, note=55, velocity=64, time=0),
    Message('note_off', channel=2, note=64, velocity=64, time=0),
    Message('note_on', channel=2, note=64, velocity=100, time=0),
    Message('note_on', channel=2, note=59, velocity=100, time=0),
    Message('note_on', channel=2, note=52, velocity=100, time=0),
    Message('note_on', channel=2, note=45, velocity=100, time=0),
    Message('note_off', channel=2, note=45, velocity=64, time=384),
    Message('note_off', channel=2, note=52, velocity=64, time=0),
    Message('note_off', channel=2, note=59, velocity=64, time=0),
    Message('note_off', channel=2, note=64, velocity=64, time=0),
    Message('note_on', channel=2, note=60, velocity=100, time=0),
    Message('note_off', channel=2, note=60, velocity=64, time=48),
    Message('note_on', channel=2, note=48, velocity=100, time=0),
    Message('note_off', channel=2, note=48, velocity=64, time=48),
    Message('note_on', channel=2, note=64, velocity=100, time=0),
    Message('note_off', channel=2, note=64, velocity=64, time=48),
    Message('note_on', channel=2, note=48, velocity=100, time=0),
    Message('note_off', channel=2, note=48, velocity=64, time=48),
    Message('note_on', channel=2, note=66, velocity=100, time=0),
    Message('note_off', channel=2, note=66, velocity=64, time=48),
    Message('note_on', channel=2, note=48, velocity=100, time=0),
    Message('note_off', channel=2, note=48, velocity=64, time=48),
    Message('note_on', channel=2, note=67, velocity=100, time=0),
    Message('note_off', channel=2, note=67, velocity=64, time=48),
    Message('note_on', channel=2, note=48, velocity=100, time=0),
    Message('note_off', channel=2, note=48, velocity=64, time=48),
    Message('note_on', channel=2, note=47, velocity=100, time=0),
    Message('note_off', channel=2, note=47, velocity=64, time=383),
    Message('control_change', channel=2, control=101, value=0, time=1),
    Message('control_change', channel=2, control=100, value=0, time=0),
    Message('control_change', channel=2, control=6, value=12, time=0),
    Message('control_change', channel=2, control=10, value=64, time=0),
    Message('control_change', channel=2, control=7, value=100, time=0),
    Message('pitchwheel', channel=2, pitch=0, time=0),
    Message('program_change', channel=2, program=0, time=0),
    Message('control_change', channel=2, control=101, value=0, time=36),
    Message('control_change', channel=2, control=100, value=0, time=0),
    Message('control_change', channel=2, control=6, value=12, time=0),
    Message('control_change', channel=2, control=10, value=64, time=0),
    Message('control_change', channel=2, control=7, value=100, time=0),
    Message('pitchwheel', channel=2, pitch=0, time=0),
    Message('program_change', channel=2, program=0, time=0),
    MetaMessage('end_of_track', time=0)]),
  MidiTrack([
    MetaMessage('track_name', name='Pad', time=0),
    Message('control_change', channel=3, control=10, value=64, time=0),
    Message('control_change', channel=3, control=7, value=100, time=0),
    Message('pitchwheel', channel=3, pitch=0, time=0),
    Message('control_change', channel=3, control=101, value=0, time=0),
    Message('control_change', channel=3, control=100, value=0, time=0),
    Message('control_change', channel=3, control=6, value=12, time=0),
    Message('control_change', channel=3, control=10, value=64, time=0),
    Message('control_change', channel=3, control=7, value=100, time=0),
    Message('pitchwheel', channel=3, pitch=0, time=0),
    Message('program_change', channel=3, program=89, time=0),
    Message('control_change', channel=3, control=101, value=0, time=0),
    Message('control_change', channel=3, control=100, value=0, time=0),
    Message('control_change', channel=3, control=6, value=12, time=0),
    Message('control_change', channel=3, control=10, value=64, time=0),
    Message('control_change', channel=3, control=7, value=100, time=0),
    Message('pitchwheel', channel=3, pitch=0, time=0),
    Message('program_change', channel=3, program=89, time=0),
    Message('control_change', channel=3, control=101, value=0, time=0),
    Message('control_change', channel=3, control=100, value=0, time=0),
    Message('control_change', channel=3, control=6, value=12, time=0),
    Message('control_change', channel=3, control=10, value=64, time=0),
    Message('control_change', channel=3, control=7, value=100, time=0),
    Message('pitchwheel', channel=3, pitch=0, time=0),
    Message('program_change', channel=3, program=89, time=0),
    Message('note_on', channel=3, note=79, velocity=100, time=1536),
    Message('note_on', channel=3, note=76, velocity=100, time=0),
    Message('note_on', channel=3, note=71, velocity=100, time=0),
    Message('note_off', channel=3, note=79, velocity=64, time=384),
    Message('note_off', channel=3, note=76, velocity=64, time=0),
    Message('note_off', channel=3, note=71, velocity=64, time=0),
    Message('note_on', channel=3, note=79, velocity=100, time=0),
    Message('note_on', channel=3, note=76, velocity=100, time=0),
    Message('note_on', channel=3, note=72, velocity=100, time=0),
    Message('note_off', channel=3, note=72, velocity=64, time=384),
    Message('note_off', channel=3, note=76, velocity=64, time=0),
    Message('note_off', channel=3, note=79, velocity=64, time=0),
    Message('note_on', channel=3, note=76, velocity=100, time=0),
    Message('note_on', channel=3, note=81, velocity=100, time=0),
    Message('note_on', channel=3, note=73, velocity=100, time=0),
    Message('note_off', channel=3, note=73, velocity=64, time=384),
    Message('note_off', channel=3, note=81, velocity=64, time=0),
    Message('note_off', channel=3, note=76, velocity=64, time=0),
    Message('note_on', channel=3, note=71, velocity=100, time=0),
    Message('note_on', channel=3, note=75, velocity=100, time=0),
    Message('note_on', channel=3, note=78, velocity=100, time=0),
    Message('note_off', channel=3, note=78, velocity=64, time=288),
    Message('note_off', channel=3, note=75, velocity=64, time=0),
    Message('note_off', channel=3, note=71, velocity=64, time=0),
    Message('control_change', channel=3, control=101, value=0, time=3168),
    Message('control_change', channel=3, control=100, value=0, time=0),
    Message('control_change', channel=3, control=6, value=12, time=0),
    Message('control_change', channel=3, control=10, value=64, time=0),
    Message('control_change', channel=3, control=7, value=100, time=0),
    Message('pitchwheel', channel=3, pitch=0, time=0),
    Message('program_change', channel=3, program=89, time=0),
    Message('control_change', channel=3, control=101, value=0, time=36),
    Message('control_change', channel=3, control=100, value=0, time=0),
    Message('control_change', channel=3, control=6, value=12, time=0),
    Message('control_change', channel=3, control=10, value=64, time=0),
    Message('control_change', channel=3, control=7, value=100, time=0),
    Message('pitchwheel', channel=3, pitch=0, time=0),
    Message('program_change', channel=3, program=89, time=0),
    MetaMessage('end_of_track', time=0)]),
  MidiTrack([
    MetaMessage('track_name', name='Billie Eilish - No Time To Die (James Bond)', time=0),
    Message('control_change', channel=15, control=10, value=64, time=0),
    Message('control_change', channel=15, control=7, value=100, time=0),
    Message('pitchwheel', channel=15, pitch=0, time=0),
    Message('control_change', channel=15, control=101, value=0, time=0),
    Message('control_change', channel=15, control=100, value=0, time=0),
    Message('control_change', channel=15, control=6, value=12, time=0),
    Message('control_change', channel=15, control=10, value=64, time=0),
    Message('control_change', channel=15, control=7, value=100, time=0),
    Message('pitchwheel', channel=15, pitch=0, time=0),
    Message('control_change', channel=15, control=101, value=0, time=0),
    Message('control_change', channel=15, control=100, value=0, time=0),
    Message('control_change', channel=15, control=6, value=12, time=0),
    Message('control_change', channel=15, control=10, value=64, time=0),
    Message('control_change', channel=15, control=7, value=100, time=0),
    Message('pitchwheel', channel=15, pitch=0, time=0),
    Message('control_change', channel=15, control=101, value=0, time=0),
    Message('control_change', channel=15, control=100, value=0, time=0),
    Message('control_change', channel=15, control=6, value=12, time=0),
    Message('control_change', channel=15, control=10, value=64, time=0),
    Message('control_change', channel=15, control=7, value=100, time=0),
    Message('pitchwheel', channel=15, pitch=0, time=0),
    Message('control_change', channel=15, control=101, value=0, time=6144),
    Message('control_change', channel=15, control=100, value=0, time=0),
    Message('control_change', channel=15, control=6, value=12, time=0),
    Message('control_change', channel=15, control=10, value=64, time=0),
    Message('control_change', channel=15, control=7, value=100, time=0),
    Message('pitchwheel', channel=15, pitch=0, time=0),
    Message('control_change', channel=15, control=101, value=0, time=36),
    Message('control_change', channel=15, control=100, value=0, time=0),
    Message('control_change', channel=15, control=6, value=12, time=0),
    Message('control_change', channel=15, control=10, value=64, time=0),
    Message('control_change', channel=15, control=7, value=100, time=0),
    Message('pitchwheel', channel=15, pitch=0, time=0),
    MetaMessage('end_of_track', time=0)]),
  MidiTrack([
    MetaMessage('track_name', name='Carlo Prato', time=0),
    Message('control_change', channel=0, control=10, value=64, time=0),
    Message('control_change', channel=0, control=7, value=100, time=0),
    Message('pitchwheel', channel=0, pitch=0, time=0),
    Message('control_change', channel=0, control=101, value=0, time=0),
    Message('control_change', channel=0, control=100, value=0, time=0),
    Message('control_change', channel=0, control=6, value=12, time=0),
    Message('control_change', channel=0, control=10, value=64, time=0),
    Message('control_change', channel=0, control=7, value=100, time=0),
    Message('pitchwheel', channel=0, pitch=0, time=0),
    Message('control_change', channel=0, control=101, value=0, time=0),
    Message('control_change', channel=0, control=100, value=0, time=0),
    Message('control_change', channel=0, control=6, value=12, time=0),
    Message('control_change', channel=0, control=10, value=64, time=0),
    Message('control_change', channel=0, control=7, value=100, time=0),
    Message('pitchwheel', channel=0, pitch=0, time=0),
    Message('control_change', channel=0, control=101, value=0, time=0),
    Message('control_change', channel=0, control=100, value=0, time=0),
    Message('control_change', channel=0, control=6, value=12, time=0),
    Message('control_change', channel=0, control=10, value=64, time=0),
    Message('control_change', channel=0, control=7, value=100, time=0),
    Message('pitchwheel', channel=0, pitch=0, time=0),
    Message('control_change', channel=0, control=101, value=0, time=6144),
    Message('control_change', channel=0, control=100, value=0, time=0),
    Message('control_change', channel=0, control=6, value=12, time=0),
    Message('control_change', channel=0, control=10, value=64, time=0),
    Message('control_change', channel=0, control=7, value=100, time=0),
    Message('pitchwheel', channel=0, pitch=0, time=0),
    Message('control_change', channel=0, control=101, value=0, time=36),
    Message('control_change', channel=0, control=100, value=0, time=0),
    Message('control_change', channel=0, control=6, value=12, time=0),
    Message('control_change', channel=0, control=10, value=64, time=0),
    Message('control_change', channel=0, control=7, value=100, time=0),
    Message('pitchwheel', channel=0, pitch=0, time=0),
    MetaMessage('end_of_track', time=0)]),
  MidiTrack([
    MetaMessage('track_name', name='cprato.com', time=0),
    Message('control_change', channel=0, control=10, value=64, time=0),
    Message('control_change', channel=0, control=7, value=100, time=0),
    Message('pitchwheel', channel=0, pitch=0, time=0),
    Message('control_change', channel=0, control=101, value=0, time=0),
    Message('control_change', channel=0, control=100, value=0, time=0),
    Message('control_change', channel=0, control=6, value=12, time=0),
    Message('control_change', channel=0, control=10, value=64, time=0),
    Message('control_change', channel=0, control=7, value=100, time=0),
    Message('pitchwheel', channel=0, pitch=0, time=0),
    Message('control_change', channel=0, control=101, value=0, time=0),
    Message('control_change', channel=0, control=100, value=0, time=0),
    Message('control_change', channel=0, control=6, value=12, time=0),
    Message('control_change', channel=0, control=10, value=64, time=0),
    Message('control_change', channel=0, control=7, value=100, time=0),
    Message('pitchwheel', channel=0, pitch=0, time=0),
    Message('control_change', channel=0, control=101, value=0, time=0),
    Message('control_change', channel=0, control=100, value=0, time=0),
    Message('control_change', channel=0, control=6, value=12, time=0),
    Message('control_change', channel=0, control=10, value=64, time=0),
    Message('control_change', channel=0, control=7, value=100, time=0),
    Message('pitchwheel', channel=0, pitch=0, time=0),
    Message('control_change', channel=0, control=101, value=0, time=6144),
    Message('control_change', channel=0, control=100, value=0, time=0),
    Message('control_change', channel=0, control=6, value=12, time=0),
    Message('control_change', channel=0, control=10, value=64, time=0),
    Message('control_change', channel=0, control=7, value=100, time=0),
    Message('pitchwheel', channel=0, pitch=0, time=0),
    Message('control_change', channel=0, control=101, value=0, time=36),
    Message('control_change', channel=0, control=100, value=0, time=0),
    Message('control_change', channel=0, control=6, value=12, time=0),
    Message('control_change', channel=0, control=10, value=64, time=0),
    Message('control_change', channel=0, control=7, value=100, time=0),
    Message('pitchwheel', channel=0, pitch=0, time=0),
    MetaMessage('end_of_track', time=0)])
])
