MidiFile(type=1, ticks_per_beat=120, tracks=[
  MidiTrack([
    MetaMessage('sequencer_specific', data=(0, 0, 91, 35, 2, 0, 3, 0, 51, 0), time=0),
    MetaMessage('track_name', name='WinJammer Demo', time=0),
    MetaMessage('instrument_name', name='Hotel California', time=0),
    MetaMessage('midi_port', port=0, time=0),
    MetaMessage('set_tempo', tempo=810810, time=0),
    MetaMessage('key_signature', key='C', time=0),
    MetaMessage('time_signature', numerator=4, denominator=4, clocks_per_click=24, notated_32nd_notes_per_beat=8, time=0),
    MetaMessage('end_of_track', time=0)]),
  MidiTrack([
    MetaMessage('track_name', name='WinJammer Demo', time=0),
    MetaMessage('instrument_name', name='by the Eagles', time=0),
    MetaMessage('midi_port', port=0, time=0),
    Message('control_change', channel=0, control=7, value=90, time=0),
    Message('program_change', channel=0, program=25, time=0),
    Message('note_on', channel=0, note=42, velocity=60, time=0),
    Message('note_on', channel=0, note=47, velocity=60, time=0),
    Message('note_on', channel=0, note=54, velocity=60, time=0),
    Message('note_on', channel=0, note=59, velocity=60, time=0),
    Message('note_on', channel=0, note=62, velocity=60, time=0),
    Message('note_on', channel=0, note=66, velocity=60, time=0),
    Message('note_on', channel=0, note=42, velocity=0, time=239),
    Message('note_on', channel=0, note=47, velocity=0, time=0),
    Message('note_on', channel=0, note=54, velocity=0, time=0),
    Message('note_on', channel=0, note=59, velocity=0, time=0),
    Message('note_on', channel=0, note=62, velocity=0, time=0),
    Message('note_on', channel=0, note=66, velocity=0, time=0),
    Message('note_on', channel=0, note=42, velocity=60, time=241),
    Message('note_on', channel=0, note=49, velocity=60, time=0),
    Message('note_on', channel=0, note=54, velocity=60, time=0),
    Message('note_on', channel=0, note=58, velocity=60, time=0),
    Message('note_on', channel=0, note=61, velocity=60, time=0),
    Message('note_on', channel=0, note=66, velocity=60, time=0),
    Message('note_on', channel=0, note=42, velocity=0, time=239),
    Message('note_on', channel=0, note=49, velocity=0, time=0),
    Message('note_on', channel=0, note=54, velocity=0, time=0),
    Message('note_on', channel=0, note=58, velocity=0, time=0),
    Message('note_on', channel=0, note=61, velocity=0, time=0),
    Message('note_on', channel=0, note=66, velocity=0, time=0),
    Message('note_on', channel=0, note=40, velocity=60, time=241),
    Message('note_on', channel=0, note=45, velocity=60, time=0),
    Message('note_on', channel=0, note=52, velocity=60, time=0),
    Message('note_on', channel=0, note=57, velocity=60, time=0),
    Message('note_on', channel=0, note=61, velocity=60, time=0),
    Message('note_on', channel=0, note=64, velocity=60, time=0),
    Message('note_on', channel=0, note=40, velocity=0, time=239),
    Message('note_on', channel=0, note=45, velocity=0, time=0),
    Message('note_on', channel=0, note=52, velocity=0, time=0),
    Message('note_on', channel=0, note=57, velocity=0, time=0),
    Message('note_on', channel=0, note=61, velocity=0, time=0),
    Message('note_on', channel=0, note=64, velocity=0, time=0),
    Message('note_on', channel=0, note=57, velocity=60, time=1),
    Message('note_on', channel=0, note=57, velocity=0, time=119),
    Message('note_on', channel=0, note=52, velocity=60, time=1),
    Message('note_on', channel=0, note=52, velocity=0, time=119),
    Message('note_on', channel=0, note=40, velocity=60, time=1),
    Message('note_on', channel=0, note=47, velocity=60, time=0),
    Message('note_on', channel=0, note=52, velocity=60, time=0),
    Message('note_on', channel=0, note=56, velocity=60, time=0),
    Message('note_on', channel=0, note=59, velocity=60, time=0),
    Message('note_on', channel=0, note=64, velocity=60, time=0),
    Message('note_on', channel=0, note=40, velocity=0, time=239),
    Message('note_on', channel=0, note=47, velocity=0, time=0),
    Message('note_on', channel=0, note=52, velocity=0, time=0),
    Message('note_on', channel=0, note=56, velocity=0, time=0),
    Message('note_on', channel=0, note=59, velocity=0, time=0),
    Message('note_on', channel=0, note=64, velocity=0, time=0),
    Message('note_on', channel=0, note=43, velocity=60, time=241),
    Message('note_on', channel=0, note=50, velocity=60, time=0),
    Message('note_on', channel=0, note=55, velocity=60, time=0),
    Message('note_on', channel=0, note=59, velocity=60, time=0),
    Message('note_on', channel=0, note=62, velocity=60, time=0),
    Message('note_on', channel=0, note=67, velocity=60, time=0),
    Message('note_on', channel=0, note=43, velocity=0, time=239),
    Message('note_on', channel=0, note=50, velocity=0, time=0),
    Message('note_on', channel=0, note=55, velocity=0, time=0),
    Message('note_on', channel=0, note=59, velocity=0, time=0),
    Message('note_on', channel=0, note=62, velocity=0, time=0),
    Message('note_on', channel=0, note=67, velocity=0, time=0),
    Message('note_on', channel=0, note=55, velocity=60, time=61),
    Message('note_on', channel=0, note=55, velocity=0, time=59),
    Message('note_on', channel=0, note=57, velocity=60, time=1),
    Message('note_on', channel=0, note=57, velocity=0, time=59),
    Message('note_on', channel=0, note=62, velocity=60, time=1),
    Message('note_on', channel=0, note=62, velocity=0, time=59),
    Message('note_on', channel=0, note=45, velocity=60, time=1),
    Message('note_on', channel=0, note=50, velocity=60, time=0),
    Message('note_on', channel=0, note=57, velocity=60, time=0),
    Message('note_on', channel=0, note=62, velocity=60, time=0),
    Message('note_on', channel=0, note=66, velocity=60, time=0),
    Message('note_on', channel=0, note=69, velocity=60, time=0),
    Message('note_on', channel=0, note=45, velocity=0, time=239),
    Message('note_on', channel=0, note=50, velocity=0, time=0),
    Message('note_on', channel=0, note=57, velocity=0, time=0),
    Message('note_on', channel=0, note=62, velocity=0, time=0),
    Message('note_on', channel=0, note=66, velocity=0, time=0),
    Message('note_on', channel=0, note=69, velocity=0, time=0),
    Message('note_on', channel=0, note=66, velocity=60, time=1),
    Message('note_on', channel=0, note=66, velocity=0, time=119),
    Message('note_on', channel=0, note=62, velocity=60, time=1),
    Message('note_on', channel=0, note=62, velocity=0, time=119),
    Message('note_on', channel=0, note=40, velocity=60, time=1),
    Message('note_on', channel=0, note=47, velocity=60, time=0),
    Message('note_on', channel=0, note=52, velocity=60, time=0),
    Message('note_on', channel=0, note=55, velocity=60, time=0),
    Message('note_on', channel=0, note=59, velocity=60, time=0),
    Message('note_on', channel=0, note=64, velocity=60, time=0),
    Message('note_on', channel=0, note=40, velocity=0, time=239),
    Message('note_on', channel=0, note=47, velocity=0, time=0),
    Message('note_on', channel=0, note=52, velocity=0, time=0),
    Message('note_on', channel=0, note=55, velocity=0, time=0),
    Message('note_on', channel=0, note=59, velocity=0, time=0),
    Message('note_on', channel=0, note=64, velocity=0, time=0),
    Message('note_on', channel=0, note=54, velocity=60, time=61),
    Message('note_on', channel=0, note=54, velocity=0, time=29),
    Message('note_on', channel=0, note=55, velocity=60, time=1),
    Message('note_on', channel=0, note=55, velocity=0, time=29),
    Message('note_on', channel=0, note=54, velocity=60, time=1),
    Message('note_on', channel=0, note=54, velocity=0, time=119),
    Message('note_on', channel=0, note=42, velocity=60, time=1),
    Message('note_on', channel=0, note=49, velocity=60, time=0),
    Message('note_on', channel=0, note=54, velocity=60, time=0),
    Message('note_on', channel=0, note=58, velocity=60, time=0),
    Message('note_on', channel=0, note=61, velocity=60, time=0),
    Message('note_on', channel=0, note=66, velocity=60, time=0),
    Message('note_on', channel=0, note=42, velocity=0, time=239),
    Message('note_on', channel=0, note=49, velocity=0, time=0),
    Message('note_on', channel=0, note=54, velocity=0, time=0),
    Message('note_on', channel=0, note=58, velocity=0, time=0),
    Message('note_on', channel=0, note=61, velocity=0, time=0),
    Message('note_on', channel=0, note=66, velocity=0, time=0),
    Message('note_on', channel=0, note=50, velocity=60, time=241),
    Message('note_on', channel=0, note=50, velocity=0, time=119),
    Message('note_on', channel=0, note=52, velocity=60, time=121),
    Message('note_on', channel=0, note=52, velocity=0, time=119),
    Message('note_on', channel=0, note=54, velocity=60, time=1),
    Message('note_on', channel=0, note=54, velocity=0, time=119),
    Message('note_on', channel=0, note=42, velocity=60, time=1),
    Message('note_on', channel=0, note=42, velocity=0, time=179),
    Message('note_on', channel=0, note=50, velocity=60, time=1),
    Message('note_on', channel=0, note=50, velocity=0, time=59),
    Message('note_on', channel=0, note=49, velocity=60, time=1),
    Message('note_on', channel=0, note=49, velocity=0, time=239),
    Message('note_on', channel=0, note=49, velocity=60, time=1),
    Message('note_on', channel=0, note=49, velocity=0, time=239),
    Message('note_on', channel=0, note=50, velocity=60, time=1),
    Message('note_on', channel=0, note=50, velocity=0, time=119),
    Message('note_on', channel=0, note=52, velocity=60, time=1),
    Message('note_on', channel=0, note=52, velocity=0, time=119),
    Message('note_on', channel=0, note=40, velocity=60, time=1),
    Message('note_on', channel=0, note=40, velocity=0, time=239),
    Message('note_on', channel=0, note=52, velocity=60, time=1),
    Message('note_on', channel=0, note=52, velocity=0, time=239),
    Message('note_on', channel=0, note=55, velocity=60, time=1),
    Message('note_on', channel=0, note=59, velocity=60, time=0),
    Message('note_on', channel=0, note=43, velocity=60, time=0),
    Message('note_on', channel=0, note=50, velocity=60, time=0),
    Message('note_on', channel=0, note=62, velocity=60, time=0),
    Message('note_on', channel=0, note=67, velocity=60, time=0),
    Message('note_on', channel=0, note=55, velocity=0, time=239),
    Message('note_on', channel=0, note=59, velocity=0, time=0),
    Message('note_on', channel=0, note=43, velocity=0, time=0),
    Message('note_on', channel=0, note=50, velocity=0, time=0),
    Message('note_on', channel=0, note=62, velocity=0, time=0),
    Message('note_on', channel=0, note=67, velocity=0, time=0),
    Message('note_on', channel=0, note=49, velocity=60, time=1),
    Message('note_on', channel=0, note=49, velocity=0, time=119),
    Message('note_on', channel=0, note=50, velocity=60, time=1),
    Message('note_on', channel=0, note=50, velocity=0, time=119),
    Message('note_on', channel=0, note=45, velocity=60, time=1),
    Message('note_on', channel=0, note=50, velocity=60, time=0),
    Message('note_on', channel=0, note=57, velocity=60, time=0),
    Message('note_on', channel=0, note=62, velocity=60, time=0),
    Message('note_on', channel=0, note=66, velocity=60, time=0),
    Message('note_on', channel=0, note=69, velocity=60, time=0),
    Message('note_on', channel=0, note=45, velocity=0, time=239),
    Message('note_on', channel=0, note=50, velocity=0, time=0),
    Message('note_on', channel=0, note=57, velocity=0, time=0),
    Message('note_on', channel=0, note=62, velocity=0, time=0),
    Message('note_on', channel=0, note=66, velocity=0, time=0),
    Message('note_on', channel=0, note=69, velocity=0, time=0),
    Message('note_on', channel=0, note=40, velocity=60, time=241),
    Message('note_on', channel=0, note=47, velocity=60, time=0),
    Message('note_on', channel=0, note=52, velocity=60, time=0),
    Message('note_on', channel=0, note=55, velocity=60, time=0),
    Message('note_on', channel=0, note=59, velocity=60, time=0),
    Message('note_on', channel=0, note=64, velocity=60, time=0),
    Message('note_on', channel=0, note=40, velocity=0, time=239),
    Message('note_on', channel=0, note=47, velocity=0, time=0),
    Message('note_on', channel=0, note=52, velocity=0, time=0),
    Message('note_on', channel=0, note=55, velocity=0, time=0),
    Message('note_on', channel=0, note=59, velocity=0, time=0),
    Message('note_on', channel=0, note=64, velocity=0, time=0),
    Message('note_on', channel=0, note=54, velocity=60, time=121),
    Message('note_on', channel=0, note=54, velocity=0, time=119),
    Message('note_on', channel=0, note=42, velocity=60, time=1),
    Message('note_on', channel=0, note=49, velocity=60, time=0),
    Message('note_on', channel=0, note=54, velocity=60, time=0),
    Message('note_on', channel=0, note=58, velocity=60, time=0),
    Message('note_on', channel=0, note=61, velocity=60, time=0),
    Message('note_on', channel=0, note=66, velocity=60, time=0),
    Message('note_on', channel=0, note=42, velocity=0, time=239),
    Message('note_on', channel=0, note=49, velocity=0, time=0),
    Message('note_on', channel=0, note=54, velocity=0, time=0),
    Message('note_on', channel=0, note=58, velocity=0, time=0),
    Message('note_on', channel=0, note=61, velocity=0, time=0),
    Message('note_on', channel=0, note=66, velocity=0, time=0),
    Message('control_change', channel=0, control=7, value=80, time=241),
    Message('note_on', channel=0, note=54, velocity=60, time=0),
    Message('note_on', channel=0, note=47, velocity=60, time=0),
    Message('note_on', channel=0, note=42, velocity=60, time=0),
    Message('note_on', channel=0, note=59, velocity=60, time=0),
    Message('note_on', channel=0, note=62, velocity=60, time=0),
    Message('note_on', channel=0, note=66, velocity=60, time=0),
    Message('note_on', channel=0, note=54, velocity=0, time=59),
    Message('note_on', channel=0, note=47, velocity=0, time=0),
    Message('note_on', channel=0, note=42, velocity=0, time=0),
    Message('note_on', channel=0, note=59, velocity=0, time=0),
    Message('note_on', channel=0, note=62, velocity=0, time=0),
    Message('note_on', channel=0, note=66, velocity=0, time=0),
    Message('note_on', channel=0, note=66, velocity=60, time=1),
    Message('note_on', channel=0, note=59, velocity=60, time=0),
    Message('note_on', channel=0, note=62, velocity=60, time=0),
    Message('note_on', channel=0, note=54, velocity=60, time=0),
    Message('note_on', channel=0, note=47, velocity=60, time=0),
    Message('note_on', channel=0, note=42, velocity=60, time=0),
    Message('note_on', channel=0, note=66, velocity=0, time=29),
    Message('note_on', channel=0, note=59, velocity=0, time=0),
    Message('note_on', channel=0, note=62, velocity=0, time=0),
    Message('note_on', channel=0, note=54, velocity=0, time=0),
    Message('note_on', channel=0, note=47, velocity=0, time=0),
    Message('note_on', channel=0, note=42, velocity=0, time=0),
    Message('note_on', channel=0, note=66, velocity=60, time=1),
    Message('note_on', channel=0, note=59, velocity=60, time=0),
    Message('note_on', channel=0, note=62, velocity=60, time=0),
    Message('note_on', channel=0, note=54, velocity=60, time=0),
    Message('note_on', channel=0, note=47, velocity=60, time=0),
    Message('note_on', channel=0, note=42, velocity=60, time=0),
    Message('note_on', channel=0, note=66, velocity=0, time=29),
    Message('note_on', channel=0, note=59, velocity=0, time=0),
    Message('note_on', channel=0, note=62, velocity=0, time=0),
    Message('note_on', channel=0, note=54, velocity=0, time=0),
    Message('note_on', channel=0, note=47, velocity=0, time=0),
    Message('note_on', channel=0, note=42, velocity=0, time=0),
    Message('note_on', channel=0, note=66, velocity=60, time=1),
    Message('note_on', channel=0, note=62, velocity=60, time=0),
    Message('note_on', channel=0, note=59, velocity=60, time=0),
    Message('note_on', channel=0, note=54, velocity=60, time=0),
    Message('note_on', channel=0, note=47, velocity=60, time=0),
    Message('note_on', channel=0, note=42, velocity=60, time=0),
    Message('note_on', channel=0, note=66, velocity=0, time=59),
    Message('note_on', channel=0, note=62, velocity=0, time=0),
    Message('note_on', channel=0, note=59, velocity=0, time=0),
    Message('note_on', channel=0, note=54, velocity=0, time=0),
    Message('note_on', channel=0, note=47, velocity=0, time=0),
    Message('note_on', channel=0, note=42, velocity=0, time=0),
    Message('note_on', channel=0, note=66, velocity=60, time=1),
    Message('note_on', channel=0, note=62, velocity=60, time=0),
    Message('note_on', channel=0, note=59, velocity=60, time=0),
    Message('note_on', channel=0, note=54, velocity=60, time=0),
    Message('note_on', channel=0, note=47, velocity=60, time=0),
    Message('note_on', channel=0, note=42, velocity=60, time=0),
    Message('note_on', channel=0, note=66, velocity=0, time=29),
    Message('note_on', channel=0, note=62, velocity=0, time=0),
    Message('note_on', channel=0, note=59, velocity=0, time=0),
    Message('note_on', channel=0, note=54, velocity=0, time=0),
    Message('note_on', channel=0, note=47, velocity=0, time=0),
    Message('note_on', channel=0, note=42, velocity=0, time=0),
    Message('note_on', channel=0, note=66, velocity=60, time=1),
    Message('note_on', channel=0, note=62, velocity=60, time=0),
    Message('note_on', channel=0, note=59, velocity=60, time=0),
    Message('note_on', channel=0, note=54, velocity=60, time=0),
    Message('note_on', channel=0, note=47, velocity=60, time=0),
    Message('note_on', channel=0, note=42, velocity=60, time=0),
    Message('note_on', channel=0, note=66, velocity=0, time=29),
    Message('note_on', channel=0, note=62, velocity=0, time=0),
    Message('note_on', channel=0, note=59, velocity=0, time=0),
    Message('note_on', channel=0, note=54, velocity=0, time=0),
    Message('note_on', channel=0, note=47, velocity=0, time=0),
    Message('note_on', channel=0, note=42, velocity=0, time=0),
    Message('note_on', channel=0, note=66, velocity=60, time=1),
    Message('note_on', channel=0, note=62, velocity=60, time=0),
    Message('note_on', channel=0, note=59, velocity=60, time=0),
    Message('note_on', channel=0, note=54, velocity=60, time=0),
    Message('note_on', channel=0, note=47, velocity=60, time=0),
    Message('note_on', channel=0, note=42, velocity=60, time=0),
    Message('note_on', channel=0, note=66, velocity=0, time=29),
    Message('note_on', channel=0, note=62, velocity=0, time=0),
    Message('note_on', channel=0, note=59, velocity=0, time=0),
    Message('note_on', channel=0, note=54, velocity=0, time=0),
    Message('note_on', channel=0, note=47, velocity=0, time=0),
    Message('note_on', channel=0, note=42, velocity=0, time=0),
    Message('note_on', channel=0, note=66, velocity=60, time=1),
    Message('note_on', channel=0, note=62, velocity=60, time=0),
    Message('note_on', channel=0, note=59, velocity=60, time=0),
    Message('note_on', channel=0, note=54, velocity=60, time=0),
    Message('note_on', channel=0, note=47, velocity=60, time=0),
    Message('note_on', channel=0, note=42, velocity=60, time=0),
    Message('note_on', channel=0, note=66, velocity=0, time=29),
    Message('note_on', channel=0, note=62, velocity=0, time=0),
    Message('note_on', channel=0, note=59, velocity=0, time=0),
    Message('note_on', channel=0, note=54, velocity=0, time=0),
    Message('note_on', channel=0, note=47, velocity=0, time=0),
    Message('note_on', channel=0, note=42, velocity=0, time=0),
    Message('note_on', channel=0, note=66, velocity=60, time=1),
    Message('note_on', channel=0, note=62, velocity=60, time=0),
    Message('note_on', channel=0, note=59, velocity=60, time=0),
    Message('note_on', channel=0, note=54, velocity=60, time=0),
    Message('note_on', channel=0, note=47, velocity=60, time=0),
    Message('note_on', channel=0, note=42, velocity=60, time=0),
    Message('note_on', channel=0, note=66, velocity=0, time=29),
    Message('note_on', channel=0, note=62, velocity=0, time=0),
    Message('note_on', channel=0, note=59, velocity=0, time=0),
    Message('note_on', channel=0, note=54, velocity=0, time=0),
    Message('note_on', channel=0, note=47, velocity=0, time=0),
    Message('note_on', channel=0, note=42, velocity=0, time=0),
    Message('note_on', channel=0, note=66, velocity=60, time=1),
    Message('note_on', channel=0, note=62, velocity=60, time=0),
    Message('note_on', channel=0, note=59, velocity=60, time=0),
    Message('note_on', channel=0, note=54, velocity=60, time=0),
    Message('note_on', channel=0, note=47, velocity=60, time=0),
    Message('note_on', channel=0, note=42, velocity=60, time=0),
    Message('note_on', channel=0, note=66, velocity=0, time=59),
    Message('note_on', channel=0, note=62, velocity=0, time=0),
    Message('note_on', channel=0, note=59, velocity=0, time=0),
    Message('note_on', channel=0, note=54, velocity=0, time=0),
    Message('note_on', channel=0, note=47, velocity=0, time=0),
    Message('note_on', channel=0, note=42, velocity=0, time=0),
    Message('note_on', channel=0, note=66, velocity=60, time=1),
    Message('note_on', channel=0, note=62, velocity=60, time=0),
    Message('note_on', channel=0, note=59, velocity=60, time=0),
    Message('note_on', channel=0, note=54, velocity=60, time=0),
    Message('note_on', channel=0, note=47, velocity=60, time=0),
    Message('note_on', channel=0, note=42, velocity=60, time=0),
    Message('note_on', channel=0, note=66, velocity=0, time=29),
    Message('note_on', channel=0, note=62, velocity=0, time=0),
    Message('note_on', channel=0, note=59, velocity=0, time=0),
    Message('note_on', channel=0, note=54, velocity=0, time=0),
    Message('note_on', channel=0, note=47, velocity=0, time=0),
    Message('note_on', channel=0, note=42, velocity=0, time=0),
    Message('note_on', channel=0, note=66, velocity=60, time=1),
    Message('note_on', channel=0, note=62, velocity=60, time=0),
    Message('note_on', channel=0, note=59, velocity=60, time=0),
    Message('note_on', channel=0, note=54, velocity=60, time=0),
    Message('note_on', channel=0, note=47, velocity=60, time=0),
    Message('note_on', channel=0, note=42, velocity=60, time=0),
    Message('note_on', channel=0, note=66, velocity=0, time=59),
    Message('note_on', channel=0, note=62, velocity=0, time=0),
    Message('note_on', channel=0, note=59, velocity=0, time=0),
    Message('note_on', channel=0, note=54, velocity=0, time=0),
    Message('note_on', channel=0, note=47, velocity=0, time=0),
    Message('note_on', channel=0, note=42, velocity=0, time=0),
    Message('note_on', channel=0, note=42, velocity=60, time=1),
    Message('note_on', channel=0, note=49, velocity=60, time=0),
    Message('note_on', channel=0, note=54, velocity=60, time=0),
    Message('note_on', channel=0, note=58, velocity=60, time=0),
    Message('note_on', channel=0, note=61, velocity=60, time=0),
    Message('note_on', channel=0, note=66, velocity=60, time=0),
    Message('note_on', channel=0, note=42, velocity=0, time=59),
    Message('note_on', channel=0, note=49, velocity=0, time=0),
    Message('note_on', channel=0, note=54, velocity=0, time=0),
    Message('note_on', channel=0, note=58, velocity=0, time=0),
    Message('note_on', channel=0, note=61, velocity=0, time=0),
    Message('note_on', channel=0, note=66, velocity=0, time=0),
    Message('note_on', channel=0, note=66, velocity=60, time=1),
    Message('note_on', channel=0, note=61, velocity=60, time=0),
    Message('note_on', channel=0, note=58, velocity=60, time=0),
    Message('note_on', channel=0, note=54, velocity=60, time=0),
    Message('note_on', channel=0, note=49, velocity=60, time=0),
    Message('note_on', channel=0, note=42, velocity=60, time=0),
    Message('note_on', channel=0, note=66, velocity=0, time=29),
    Message('note_on', channel=0, note=61, velocity=0, time=0),
    Message('note_on', channel=0, note=58, velocity=0, time=0),
    Message('note_on', channel=0, note=54, velocity=0, time=0),
    Message('note_on', channel=0, note=49, velocity=0, time=0),
    Message('note_on', channel=0, note=42, velocity=0, time=0),
    Message('note_on', channel=0, note=66, velocity=60, time=1),
    Message('note_on', channel=0, note=61, velocity=60, time=0),
    Message('note_on', channel=0, note=58, velocity=60, time=0),
    Message('note_on', channel=0, note=54, velocity=60, time=0),
    Message('note_on', channel=0, note=49, velocity=60, time=0),
    Message('note_on', channel=0, note=42, velocity=60, time=0),
    Message('note_on', channel=0, note=66, velocity=0, time=29),
    Message('note_on', channel=0, note=61, velocity=0, time=0),
    Message('note_on', channel=0, note=58, velocity=0, time=0),
    Message('note_on', channel=0, note=54, velocity=0, time=0),
    Message('note_on', channel=0, note=49, velocity=0, time=0),
    Message('note_on', channel=0, note=42, velocity=0, time=0),
    Message('note_on', channel=0, note=66, velocity=60, time=1),
    Message('note_on', channel=0, note=58, velocity=60, time=0),
    Message('note_on', channel=0, note=61, velocity=60, time=0),
    Message('note_on', channel=0, note=54, velocity=60, time=0),
    Message('note_on', channel=0, note=49, velocity=60, time=0),
    Message('note_on', channel=0, note=42, velocity=60, time=0),
    Message('note_on', channel=0, note=66, velocity=0, time=59),
    Message('note_on', channel=0, note=58, velocity=0, time=0),
    Message('note_on', channel=0, note=61, velocity=0, time=0),
    Message('note_on', channel=0, note=54, velocity=0, time=0),
    Message('note_on', channel=0, note=49, velocity=0, time=0),
    Message('note_on', channel=0, note=42, velocity=0, time=0),
    Message('note_on', channel=0, note=66, velocity=60, time=1),
    Message('note_on', channel=0, note=61, velocity=60, time=0),
    Message('note_on', channel=0, note=58, velocity=60, time=0),
    Message('note_on', channel=0, note=54, velocity=60, time=0),
    Message('note_on', channel=0, note=49, velocity=60, time=0),
    Message('note_on', channel=0, note=42, velocity=60, time=0),
    Message('note_on', channel=0, note=66, velocity=0, time=29),
    Message('note_on', channel=0, note=61, velocity=0, time=0),
    Message('note_on', channel=0, note=58, velocity=0, time=0),
    Message('note_on', channel=0, note=54, velocity=0, time=0),
    Message('note_on', channel=0, note=49, velocity=0, time=0),
    Message('note_on', channel=0, note=42, velocity=0, time=0),
    Message('note_on', channel=0, note=66, velocity=60, time=1),
    Message('note_on', channel=0, note=61, velocity=60, time=0),
    Message('note_on', channel=0, note=58, velocity=60, time=0),
    Message('note_on', channel=0, note=54, velocity=60, time=0),
    Message('note_on', channel=0, note=49, velocity=60, time=0),
    Message('note_on', channel=0, note=42, velocity=60, time=0),
    Message('note_on', channel=0, note=66, velocity=0, time=29),
    Message('note_on', channel=0, note=61, velocity=0, time=0),
    Message('note_on', channel=0, note=58, velocity=0, time=0),
    Message('note_on', channel=0, note=54, velocity=0, time=0),
    Message('note_on', channel=0, note=49, velocity=0, time=0),
    Message('note_on', channel=0, note=42, velocity=0, time=0),
    Message('note_on', channel=0, note=66, velocity=60, time=1),
    Message('note_on', channel=0, note=61, velocity=60, time=0),
    Message('note_on', channel=0, note=58, velocity=60, time=0),
    Message('note_on', channel=0, note=54, velocity=60, time=0),
    Message('note_on', channel=0, note=49, velocity=60, time=0),
    Message('note_on', channel=0, note=42, velocity=60, time=0),
    Message('note_on', channel=0, note=66, velocity=0, time=179),
    Message('note_on', channel=0, note=61, velocity=0, time=0),
    Message('note_on', channel=0, note=58, velocity=0, time=0),
    Message('note_on', channel=0, note=54, velocity=0, time=0),
    Message('note_on', channel=0, note=49, velocity=0, time=0),
    Message('note_on', channel=0, note=42, velocity=0, time=0),
    Message('note_on', channel=0, note=66, velocity=60, time=1),
    Message('note_on', channel=0, note=61, velocity=60, time=0),
    Message('note_on', channel=0, note=58, velocity=60, time=0),
    Message('note_on', channel=0, note=54, velocity=60, time=0),
    Message('note_on', channel=0, note=49, velocity=60, time=0),
    Message('note_on', channel=0, note=42, velocity=60, time=0),
    Message('note_on', channel=0, note=66, velocity=0, time=29),
    Message('note_on', channel=0, note=61, velocity=0, time=0),
    Message('note_on', channel=0, note=58, velocity=0, time=0),
    Message('note_on', channel=0, note=54, velocity=0, time=0),
    Message('note_on', channel=0, note=49, velocity=0, time=0),
    Message('note_on', channel=0, note=42, velocity=0, time=0),
    Message('note_on', channel=0, note=66, velocity=60, time=1),
    Message('note_on', channel=0, note=61, velocity=60, time=0),
    Message('note_on', channel=0, note=58, velocity=60, time=0),
    Message('note_on', channel=0, note=54, velocity=60, time=0),
    Message('note_on', channel=0, note=49, velocity=60, time=0),
    Message('note_on', channel=0, note=42, velocity=60, time=0),
    Message('note_on', channel=0, note=66, velocity=0, time=29),
    Message('note_on', channel=0, note=61, velocity=0, time=0),
    Message('note_on', channel=0, note=58, velocity=0, time=0),
    Message('note_on', channel=0, note=54, velocity=0, time=0),
    Message('note_on', channel=0, note=49, velocity=0, time=0),
    Message('note_on', channel=0, note=42, velocity=0, time=0),
    Message('note_on', channel=0, note=40, velocity=60, time=1),
    Message('note_on', channel=0, note=45, velocity=60, time=0),
    Message('note_on', channel=0, note=52, velocity=60, time=0),
    Message('note_on', channel=0, note=57, velocity=60, time=0),
    Message('note_on', channel=0, note=61, velocity=60, time=0),
    Message('note_on', channel=0, note=64, velocity=60, time=0),
    Message('note_on', channel=0, note=40, velocity=0, time=59),
    Message('note_on', channel=0, note=45, velocity=0, time=0),
    Message('note_on', channel=0, note=52, velocity=0, time=0),
    Message('note_on', channel=0, note=57, velocity=0, time=0),
    Message('note_on', channel=0, note=61, velocity=0, time=0),
    Message('note_on', channel=0, note=64, velocity=0, time=0),
    Message('note_on', channel=0, note=64, velocity=60, time=1),
    Message('note_on', channel=0, note=61, velocity=60, time=0),
    Message('note_on', channel=0, note=57, velocity=60, time=0),
    Message('note_on', channel=0, note=52, velocity=60, time=0),
    Message('note_on', channel=0, note=45, velocity=60, time=0),
    Message('note_on', channel=0, note=40, velocity=60, time=0),
    Message('note_on', channel=0, note=64, velocity=0, time=29),
    Message('note_on', channel=0, note=61, velocity=0, time=0),
    Message('note_on', channel=0, note=57, velocity=0, time=0),
    Message('note_on', channel=0, note=52, velocity=0, time=0),
    Message('note_on', channel=0, note=45, velocity=0, time=0),
    Message('note_on', channel=0, note=40, velocity=0, time=0),
    Message('note_on', channel=0, note=64, velocity=60, time=1),
    Message('note_on', channel=0, note=61, velocity=60, time=0),
    Message('note_on', channel=0, note=57, velocity=60, time=0),
    Message('note_on', channel=0, note=52, velocity=60, time=0),
    Message('note_on', channel=0, note=45, velocity=60, time=0),
    Message('note_on', channel=0, note=40, velocity=60, time=0),
    Message('note_on', channel=0, note=64, velocity=0, time=29),
    Message('note_on', channel=0, note=61, velocity=0, time=0),
    Message('note_on', channel=0, note=57, velocity=0, time=0),
    Message('note_on', channel=0, note=52, velocity=0, time=0),
    Message('note_on', channel=0, note=45, velocity=0, time=0),
    Message('note_on', channel=0, note=40, velocity=0, time=0),
    Message('note_on', channel=0, note=64, velocity=60, time=1),
    Message('note_on', channel=0, note=61, velocity=60, time=0),
    Message('note_on', channel=0, note=57, velocity=60, time=0),
    Message('note_on', channel=0, note=52, velocity=60, time=0),
    Message('note_on', channel=0, note=45, velocity=60, time=0),
    Message('note_on', channel=0, note=40, velocity=60, time=0),
    Message('note_on', channel=0, note=64, velocity=0, time=59),
    Message('note_on', channel=0, note=61, velocity=0, time=0),
    Message('note_on', channel=0, note=57, velocity=0, time=0),
    Message('note_on', channel=0, note=52, velocity=0, time=0),
    Message('note_on', channel=0, note=45, velocity=0, time=0),
    Message('note_on', channel=0, note=40, velocity=0, time=0),
    Message('note_on', channel=0, note=64, velocity=60, time=1),
    Message('note_on', channel=0, note=61, velocity=60, time=0),
    Message('note_on', channel=0, note=57, velocity=60, time=0),
    Message('note_on', channel=0, note=52, velocity=60, time=0),
    Message('note_on', channel=0, note=45, velocity=60, time=0),
    Message('note_on', channel=0, note=40, velocity=60, time=0),
    Message('note_on', channel=0, note=64, velocity=0, time=29),
    Message('note_on', channel=0, note=61, velocity=0, time=0),
    Message('note_on', channel=0, note=57, velocity=0, time=0),
    Message('note_on', channel=0, note=52, velocity=0, time=0),
    Message('note_on', channel=0, note=45, velocity=0, time=0),
    Message('note_on', channel=0, note=40, velocity=0, time=0),
    Message('note_on', channel=0, note=64, velocity=60, time=1),
    Message('note_on', channel=0, note=61, velocity=60, time=0),
    Message('note_on', channel=0, note=57, velocity=60, time=0),
    Message('note_on', channel=0, note=52, velocity=60, time=0),
    Message('note_on', channel=0, note=45, velocity=60, time=0),
    Message('note_on', channel=0, note=40, velocity=60, time=0),
    Message('note_on', channel=0, note=64, velocity=0, time=29),
    Message('note_on', channel=0, note=61, velocity=0, time=0),
    Message('note_on', channel=0, note=57, velocity=0, time=0),
    Message('note_on', channel=0, note=52, velocity=0, time=0),
    Message('note_on', channel=0, note=45, velocity=0, time=0),
    Message('note_on', channel=0, note=40, velocity=0, time=0),
    Message('note_on', channel=0, note=64, velocity=60, time=1),
    Message('note_on', channel=0, note=61, velocity=60, time=0),
    Message('note_on', channel=0, note=57, velocity=60, time=0),
    Message('note_on', channel=0, note=52, velocity=60, time=0),
    Message('note_on', channel=0, note=45, velocity=60, time=0),
    Message('note_on', channel=0, note=40, velocity=60, time=0),
    Message('note_on', channel=0, note=64, velocity=0, time=29),
    Message('note_on', channel=0, note=61, velocity=0, time=0),
    Message('note_on', channel=0, note=57, velocity=0, time=0),
    Message('note_on', channel=0, note=52, velocity=0, time=0),
    Message('note_on', channel=0, note=45, velocity=0, time=0),
    Message('note_on', channel=0, note=40, velocity=0, time=0),
    Message('note_on', channel=0, note=64, velocity=60, time=1),
    Message('note_on', channel=0, note=61, velocity=60, time=0),
    Message('note_on', channel=0, note=57, velocity=60, time=0),
    Message('note_on', channel=0, note=52, velocity=60, time=0),
    Message('note_on', channel=0, note=45, velocity=60, time=0),
    Message('note_on', channel=0, note=40, velocity=60, time=0),
    Message('note_on', channel=0, note=64, velocity=0, time=29),
    Message('note_on', channel=0, note=61, velocity=0, time=0),
    Message('note_on', channel=0, note=57, velocity=0, time=0),
    Message('note_on', channel=0, note=52, velocity=0, time=0),
    Message('note_on', channel=0, note=45, velocity=0, time=0),
    Message('note_on', channel=0, note=40, velocity=0, time=0),
    Message('note_on', channel=0, note=64, velocity=60, time=1),
    Message('note_on', channel=0, note=61, velocity=60, time=0),
    Message('note_on', channel=0, note=57, velocity=60, time=0),
    Message('note_on', channel=0, note=52, velocity=60, time=0),
    Message('note_on', channel=0, note=45, velocity=60, time=0),
    Message('note_on', channel=0, note=40, velocity=60, time=0),
    Message('note_on', channel=0, note=64, velocity=0, time=29),
    Message('note_on', channel=0, note=61, velocity=0, time=0),
    Message('note_on', channel=0, note=57, velocity=0, time=0),
    Message('note_on', channel=0, note=52, velocity=0, time=0),
    Message('note_on', channel=0, note=45, velocity=0, time=0),
    Message('note_on', channel=0, note=40, velocity=0, time=0),
    Message('note_on', channel=0, note=64, velocity=60, time=1),
    Message('note_on', channel=0, note=61, velocity=60, time=0),
    Message('note_on', channel=0, note=57, velocity=60, time=0),
    Message('note_on', channel=0, note=52, velocity=60, time=0),
    Message('note_on', channel=0, note=45, velocity=60, time=0),
    Message('note_on', channel=0, note=40, velocity=60, time=0),
    Message('note_on', channel=0, note=64, velocity=0, time=59),
    Message('note_on', channel=0, note=61, velocity=0, time=0),
    Message('note_on', channel=0, note=57, velocity=0, time=0),
    Message('note_on', channel=0, note=52, velocity=0, time=0),
    Message('note_on', channel=0, note=45, velocity=0, time=0),
    Message('note_on', channel=0, note=40, velocity=0, time=0),
    Message('note_on', channel=0, note=64, velocity=60, time=1),
    Message('note_on', channel=0, note=61, velocity=60, time=0),
    Message('note_on', channel=0, note=57, velocity=60, time=0),
    Message('note_on', channel=0, note=52, velocity=60, time=0),
    Message('note_on', channel=0, note=45, velocity=60, time=0),
    Message('note_on', channel=0, note=40, velocity=60, time=0),
    Message('note_on', channel=0, note=64, velocity=0, time=29),
    Message('note_on', channel=0, note=61, velocity=0, time=0),
    Message('note_on', channel=0, note=57, velocity=0, time=0),
    Message('note_on', channel=0, note=52, velocity=0, time=0),
    Message('note_on', channel=0, note=45, velocity=0, time=0),
    Message('note_on', channel=0, note=40, velocity=0, time=0),
    Message('note_on', channel=0, note=64, velocity=60, time=1),
    Message('note_on', channel=0, note=61, velocity=60, time=0),
    Message('note_on', channel=0, note=57, velocity=60, time=0),
    Message('note_on', channel=0, note=52, velocity=60, time=0),
    Message('note_on', channel=0, note=45, velocity=60, time=0),
    Message('note_on', channel=0, note=40, velocity=60, time=0),
    Message('note_on', channel=0, note=64, velocity=0, time=59),
    Message('note_on', channel=0, note=61, velocity=0, time=0),
    Message('note_on', channel=0, note=57, velocity=0, time=0),
    Message('note_on', channel=0, note=52, velocity=0, time=0),
    Message('note_on', channel=0, note=45, velocity=0, time=0),
    Message('note_on', channel=0, note=40, velocity=0, time=0),
    Message('note_on', channel=0, note=40, velocity=60, time=1),
    Message('note_on', channel=0, note=47, velocity=60, time=0),
    Message('note_on', channel=0, note=52, velocity=60, time=0),
    Message('note_on', channel=0, note=56, velocity=60, time=0),
    Message('note_on', channel=0, note=59, velocity=60, time=0),
    Message('note_on', channel=0, note=64, velocity=60, time=0),
    Message('note_on', channel=0, note=40, velocity=0, time=59),
    Message('note_on', channel=0, note=47, velocity=0, time=0),
    Message('note_on', channel=0, note=52, velocity=0, time=0),
    Message('note_on', channel=0, note=56, velocity=0, time=0),
    Message('note_on', channel=0, note=59, velocity=0, time=0),
    Message('note_on', channel=0, note=64, velocity=0, time=0),
    Message('note_on', channel=0, note=64, velocity=60, time=1),
    Message('note_on', channel=0, note=59, velocity=60, time=0),
    Message('note_on', channel=0, note=56, velocity=60, time=0),
    Message('note_on', channel=0, note=52, velocity=60, time=0),
    Message('note_on', channel=0, note=47, velocity=60, time=0),
    Message('note_on', channel=0, note=40, velocity=60, time=0),
    Message('note_on', channel=0, note=64, velocity=0, time=29),
    Message('note_on', channel=0, note=59, velocity=0, time=0),
    Message('note_on', channel=0, note=56, velocity=0, time=0),
    Message('note_on', channel=0, note=52, velocity=0, time=0),
    Message('note_on', channel=0, note=47, velocity=0, time=0),
    Message('note_on', channel=0, note=40, velocity=0, time=0),
    Message('note_on', channel=0, note=64, velocity=60, time=1),
    Message('note_on', channel=0, note=59, velocity=60, time=0),
    Message('note_on', channel=0, note=56, velocity=60, time=0),
    Message('note_on', channel=0, note=52, velocity=60, time=0),
    Message('note_on', channel=0, note=47, velocity=60, time=0),
    Message('note_on', channel=0, note=40, velocity=60, time=0),
    Message('note_on', channel=0, note=64, velocity=0, time=29),
    Message('note_on', channel=0, note=59, velocity=0, time=0),
    Message('note_on', channel=0, note=56, velocity=0, time=0),
    Message('note_on', channel=0, note=52, velocity=0, time=0),
    Message('note_on', channel=0, note=47, velocity=0, time=0),
    Message('note_on', channel=0, note=40, velocity=0, time=0),
    Message('note_on', channel=0, note=64, velocity=60, time=1),
    Message('note_on', channel=0, note=59, velocity=60, time=0),
    Message('note_on', channel=0, note=56, velocity=60, time=0),
    Message('note_on', channel=0, note=52, velocity=60, time=0),
    Message('note_on', channel=0, note=47, velocity=60, time=0),
    Message('note_on', channel=0, note=40, velocity=60, time=0),
    Message('note_on', channel=0, note=64, velocity=0, time=59),
    Message('note_on', channel=0, note=59, velocity=0, time=0),
    Message('note_on', channel=0, note=56, velocity=0, time=0),
    Message('note_on', channel=0, note=52, velocity=0, time=0),
    Message('note_on', channel=0, note=47, velocity=0, time=0),
    Message('note_on', channel=0, note=40, velocity=0, time=0),
    Message('note_on', channel=0, note=64, velocity=60, time=1),
    Message('note_on', channel=0, note=59, velocity=60, time=0),
    Message('note_on', channel=0, note=56, velocity=60, time=0),
    Message('note_on', channel=0, note=52, velocity=60, time=0),
    Message('note_on', channel=0, note=47, velocity=60, time=0),
    Message('note_on', channel=0, note=40, velocity=60, time=0),
    Message('note_on', channel=0, note=64, velocity=0, time=29),
    Message('note_on', channel=0, note=59, velocity=0, time=0),
    Message('note_on', channel=0, note=56, velocity=0, time=0),
    Message('note_on', channel=0, note=52, velocity=0, time=0),
    Message('note_on', channel=0, note=47, velocity=0, time=0),
    Message('note_on', channel=0, note=40, velocity=0, time=0),
    Message('note_on', channel=0, note=64, velocity=60, time=1),
    Message('note_on', channel=0, note=59, velocity=60, time=0),
    Message('note_on', channel=0, note=56, velocity=60, time=0),
    Message('note_on', channel=0, note=52, velocity=60, time=0),
    Message('note_on', channel=0, note=47, velocity=60, time=0),
    Message('note_on', channel=0, note=40, velocity=60, time=0),
    Message('note_on', channel=0, note=64, velocity=0, time=29),
    Message('note_on', channel=0, note=59, velocity=0, time=0),
    Message('note_on', channel=0, note=56, velocity=0, time=0),
    Message('note_on', channel=0, note=52, velocity=0, time=0),
    Message('note_on', channel=0, note=47, velocity=0, time=0),
    Message('note_on', channel=0, note=40, velocity=0, time=0),
    Message('note_on', channel=0, note=64, velocity=60, time=1),
    Message('note_on', channel=0, note=59, velocity=60, time=0),
    Message('note_on', channel=0, note=56, velocity=60, time=0),
    Message('note_on', channel=0, note=52, velocity=60, time=0),
    Message('note_on', channel=0, note=47, velocity=60, time=0),
    Message('note_on', channel=0, note=40, velocity=60, time=0),
    Message('note_on', channel=0, note=64, velocity=0, time=239),
    Message('note_on', channel=0, note=59, velocity=0, time=0),
    Message('note_on', channel=0, note=56, velocity=0, time=0),
    Message('note_on', channel=0, note=52, velocity=0, time=0),
    Message('note_on', channel=0, note=47, velocity=0, time=0),
    Message('note_on', channel=0, note=40, velocity=0, time=0),
    Message('note_on', channel=0, note=43, velocity=60, time=1),
    Message('note_on', channel=0, note=50, velocity=60, time=0),
    Message('note_on', channel=0, note=55, velocity=60, time=0),
    Message('note_on', channel=0, note=59, velocity=60, time=0),
    Message('note_on', channel=0, note=62, velocity=60, time=0),
    Message('note_on', channel=0, note=67, velocity=60, time=0),
    Message('note_on', channel=0, note=43, velocity=0, time=59),
    Message('note_on', channel=0, note=50, velocity=0, time=0),
    Message('note_on', channel=0, note=55, velocity=0, time=0),
    Message('note_on', channel=0, note=59, velocity=0, time=0),
    Message('note_on', channel=0, note=62, velocity=0, time=0),
    Message('note_on', channel=0, note=67, velocity=0, time=0),
    Message('note_on', channel=0, note=67, velocity=60, time=1),
    Message('note_on', channel=0, note=62, velocity=60, time=0),
    Message('note_on', channel=0, note=59, velocity=60, time=0),
    Message('note_on', channel=0, note=55, velocity=60, time=0),
    Message('note_on', channel=0, note=50, velocity=60, time=0),
    Message('note_on', channel=0, note=43, velocity=60, time=0),
    Message('note_on', channel=0, note=67, velocity=0, time=29),
    Message('note_on', channel=0, note=62, velocity=0, time=0),
    Message('note_on', channel=0, note=59, velocity=0, time=0),
    Message('note_on', channel=0, note=55, velocity=0, time=0),
    Message('note_on', channel=0, note=50, velocity=0, time=0),
    Message('note_on', channel=0, note=43, velocity=0, time=0),
    Message('note_on', channel=0, note=67, velocity=60, time=1),
    Message('note_on', channel=0, note=62, velocity=60, time=0),
    Message('note_on', channel=0, note=59, velocity=60, time=0),
    Message('note_on', channel=0, note=55, velocity=60, time=0),
    Message('note_on', channel=0, note=50, velocity=60, time=0),
    Message('note_on', channel=0, note=43, velocity=60, time=0),
    Message('note_on', channel=0, note=67, velocity=0, time=29),
    Message('note_on', channel=0, note=62, velocity=0, time=0),
    Message('note_on', channel=0, note=59, velocity=0, time=0),
    Message('note_on', channel=0, note=55, velocity=0, time=0),
    Message('note_on', channel=0, note=50, velocity=0, time=0),
    Message('note_on', channel=0, note=43, velocity=0, time=0),
    Message('note_on', channel=0, note=67, velocity=60, time=1),
    Message('note_on', channel=0, note=62, velocity=60, time=0),
    Message('note_on', channel=0, note=59, velocity=60, time=0),
    Message('note_on', channel=0, note=55, velocity=60, time=0),
    Message('note_on', channel=0, note=50, velocity=60, time=0),
    Message('note_on', channel=0, note=43, velocity=60, time=0),
    Message('note_on', channel=0, note=67, velocity=0, time=59),
    Message('note_on', channel=0, note=62, velocity=0, time=0),
    Message('note_on', channel=0, note=59, velocity=0, time=0),
    Message('note_on', channel=0, note=55, velocity=0, time=0),
    Message('note_on', channel=0, note=50, velocity=0, time=0),
    Message('note_on', channel=0, note=43, velocity=0, time=0),
    Message('note_on', channel=0, note=67, velocity=60, time=1),
    Message('note_on', channel=0, note=62, velocity=60, time=0),
    Message('note_on', channel=0, note=59, velocity=60, time=0),
    Message('note_on', channel=0, note=55, velocity=60, time=0),
    Message('note_on', channel=0, note=50, velocity=60, time=0),
    Message('note_on', channel=0, note=43, velocity=60, time=0),
    Message('note_on', channel=0, note=67, velocity=0, time=29),
    Message('note_on', channel=0, note=62, velocity=0, time=0),
    Message('note_on', channel=0, note=59, velocity=0, time=0),
    Message('note_on', channel=0, note=55, velocity=0, time=0),
    Message('note_on', channel=0, note=50, velocity=0, time=0),
    Message('note_on', channel=0, note=43, velocity=0, time=0),
    Message('note_on', channel=0, note=67, velocity=60, time=1),
    Message('note_on', channel=0, note=62, velocity=60, time=0),
    Message('note_on', channel=0, note=59, velocity=60, time=0),
    Message('note_on', channel=0, note=55, velocity=60, time=0),
    Message('note_on', channel=0, note=50, velocity=60, time=0),
    Message('note_on', channel=0, note=43, velocity=60, time=0),
    Message('note_on', channel=0, note=67, velocity=0, time=29),
    Message('note_on', channel=0, note=62, velocity=0, time=0),
    Message('note_on', channel=0, note=59, velocity=0, time=0),
    Message('note_on', channel=0, note=55, velocity=0, time=0),
    Message('note_on', channel=0, note=50, velocity=0, time=0),
    Message('note_on', channel=0, note=43, velocity=0, time=0),
    Message('note_on', channel=0, note=67, velocity=60, time=1),
    Message('note_on', channel=0, note=62, velocity=60, time=0),
    Message('note_on', channel=0, note=59, velocity=60, time=0),
    Message('note_on', channel=0, note=55, velocity=60, time=0),
    Message('note_on', channel=0, note=50, velocity=60, time=0),
    Message('note_on', channel=0, note=43, velocity=60, time=0),
    Message('note_on', channel=0, note=67, velocity=0, time=29),
    Message('note_on', channel=0, note=62, velocity=0, time=0),
    Message('note_on', channel=0, note=59, velocity=0, time=0),
    Message('note_on', channel=0, note=55, velocity=0, time=0),
    Message('note_on', channel=0, note=50, velocity=0, time=0),
    Message('note_on', channel=0, note=43, velocity=0, time=0),
    Message('note_on', channel=0, note=67, velocity=60, time=1),
    Message('note_on', channel=0, note=62, velocity=60, time=0),
    Message('note_on', channel=0, note=59, velocity=60, time=0),
    Message('note_on', channel=0, note=55, velocity=60, time=0),
    Message('note_on', channel=0, note=50, velocity=60, time=0),
    Message('note_on', channel=0, note=43, velocity=60, time=0),
    Message('note_on', channel=0, note=67, velocity=0, time=29),
    Message('note_on', channel=0, note=62, velocity=0, time=0),
    Message('note_on', channel=0, note=59, velocity=0, time=0),
    Message('note_on', channel=0, note=55, velocity=0, time=0),
    Message('note_on', channel=0, note=50, velocity=0, time=0),
    Message('note_on', channel=0, note=43, velocity=0, time=0),
    Message('note_on', channel=0, note=67, velocity=60, time=1),
    Message('note_on', channel=0, note=62, velocity=60, time=0),
    Message('note_on', channel=0, note=59, velocity=60, time=0),
    Message('note_on', channel=0, note=55, velocity=60, time=0),
    Message('note_on', channel=0, note=50, velocity=60, time=0),
    Message('note_on', channel=0, note=43, velocity=60, time=0),
    Message('note_on', channel=0, note=67, velocity=0, time=29),
    Message('note_on', channel=0, note=62, velocity=0, time=0),
    Message('note_on', channel=0, note=59, velocity=0, time=0),
    Message('note_on', channel=0, note=55, velocity=0, time=0),
    Message('note_on', channel=0, note=50, velocity=0, time=0),
    Message('note_on', channel=0, note=43, velocity=0, time=0),
    Message('note_on', channel=0, note=67, velocity=60, time=1),
    Message('note_on', channel=0, note=62, velocity=60, time=0),
    Message('note_on', channel=0, note=59, velocity=60, time=0),
    Message('note_on', channel=0, note=55, velocity=60, time=0),
    Message('note_on', channel=0, note=50, velocity=60, time=0),
    Message('note_on', channel=0, note=43, velocity=60, time=0),
    Message('note_on', channel=0, note=67, velocity=0, time=59),
    Message('note_on', channel=0, note=62, velocity=0, time=0),
    Message('note_on', channel=0, note=59, velocity=0, time=0),
    Message('note_on', channel=0, note=55, velocity=0, time=0),
    Message('note_on', channel=0, note=50, velocity=0, time=0),
    Message('note_on', channel=0, note=43, velocity=0, time=0),
    Message('note_on', channel=0, note=67, velocity=60, time=1),
    Message('note_on', channel=0, note=62, velocity=60, time=0),
    Message('note_on', channel=0, note=59, velocity=60, time=0),
    Message('note_on', channel=0, note=55, velocity=60, time=0),
    Message('note_on', channel=0, note=50, velocity=60, time=0),
    Message('note_on', channel=0, note=43, velocity=60, time=0),
    Message('note_on', channel=0, note=67, velocity=0, time=29),
    Message('note_on', channel=0, note=62, velocity=0, time=0),
    Message('note_on', channel=0, note=59, velocity=0, time=0),
    Message('note_on', channel=0, note=55, velocity=0, time=0),
    Message('note_on', channel=0, note=50, velocity=0, time=0),
    Message('note_on', channel=0, note=43, velocity=0, time=0),
    Message('note_on', channel=0, note=67, velocity=60, time=1),
    Message('note_on', channel=0, note=62, velocity=60, time=0),
    Message('note_on', channel=0, note=59, velocity=60, time=0),
    Message('note_on', channel=0, note=55, velocity=60, time=0),
    Message('note_on', channel=0, note=50, velocity=60, time=0),
    Message('note_on', channel=0, note=43, velocity=60, time=0),
    Message('note_on', channel=0, note=67, velocity=0, time=59),
    Message('note_on', channel=0, note=62, velocity=0, time=0),
    Message('note_on', channel=0, note=59, velocity=0, time=0),
    Message('note_on', channel=0, note=55, velocity=0, time=0),
    Message('note_on', channel=0, note=50, velocity=0, time=0),
    Message('note_on', channel=0, note=43, velocity=0, time=0),
    Message('note_on', channel=0, note=45, velocity=60, time=1),
    Message('note_on', channel=0, note=50, velocity=60, time=0),
    Message('note_on', channel=0, note=57, velocity=60, time=0),
    Message('note_on', channel=0, note=62, velocity=60, time=0),
    Message('note_on', channel=0, note=66, velocity=60, time=0),
    Message('note_on', channel=0, note=69, velocity=60, time=0),
    Message('note_on', channel=0, note=45, velocity=0, time=59),
    Message('note_on', channel=0, note=50, velocity=0, time=0),
    Message('note_on', channel=0, note=57, velocity=0, time=0),
    Message('note_on', channel=0, note=62, velocity=0, time=0),
    Message('note_on', channel=0, note=66, velocity=0, time=0),
    Message('note_on', channel=0, note=69, velocity=0, time=0),
    Message('note_on', channel=0, note=69, velocity=60, time=1),
    Message('note_on', channel=0, note=66, velocity=60, time=0),
    Message('note_on', channel=0, note=62, velocity=60, time=0),
    Message('note_on', channel=0, note=57, velocity=60, time=0),
    Message('note_on', channel=0, note=50, velocity=60, time=0),
    Message('note_on', channel=0, note=45, velocity=60, time=0),
    Message('note_on', channel=0, note=69, velocity=0, time=29),
    Message('note_on', channel=0, note=66, velocity=0, time=0),
    Message('note_on', channel=0, note=62, velocity=0, time=0),
    Message('note_on', channel=0, note=57, velocity=0, time=0),
    Message('note_on', channel=0, note=50, velocity=0, time=0),
    Message('note_on', channel=0, note=45, velocity=0, time=0),
    Message('note_on', channel=0, note=69, velocity=60, time=1),
    Message('note_on', channel=0, note=66, velocity=60, time=0),
    Message('note_on', channel=0, note=62, velocity=60, time=0),
    Message('note_on', channel=0, note=57, velocity=60, time=0),
    Message('note_on', channel=0, note=50, velocity=60, time=0),
    Message('note_on', channel=0, note=45, velocity=60, time=0),
    Message('note_on', channel=0, note=69, velocity=0, time=29),
    Message('note_on', channel=0, note=66, velocity=0, time=0),
    Message('note_on', channel=0, note=62, velocity=0, time=0),
    Message('note_on', channel=0, note=57, velocity=0, time=0),
    Message('note_on', channel=0, note=50, velocity=0, time=0),
    Message('note_on', channel=0, note=45, velocity=0, time=0),
    Message('note_on', channel=0, note=69, velocity=60, time=1),
    Message('note_on', channel=0, note=66, velocity=60, time=0),
    Message('note_on', channel=0, note=62, velocity=60, time=0),
    Message('note_on', channel=0, note=57, velocity=60, time=0),
    Message('note_on', channel=0, note=50, velocity=60, time=0),
    Message('note_on', channel=0, note=45, velocity=60, time=0),
    Message('note_on', channel=0, note=69, velocity=0, time=29),
    Message('note_on', channel=0, note=66, velocity=0, time=0),
    Message('note_on', channel=0, note=62, velocity=0, time=0),
    Message('note_on', channel=0, note=57, velocity=0, time=0),
    Message('note_on', channel=0, note=50, velocity=0, time=0),
    Message('note_on', channel=0, note=45, velocity=0, time=0),
    Message('note_on', channel=0, note=69, velocity=60, time=1),
    Message('note_on', channel=0, note=66, velocity=60, time=0),
    Message('note_on', channel=0, note=62, velocity=60, time=0),
    Message('note_on', channel=0, note=57, velocity=60, time=0),
    Message('note_on', channel=0, note=50, velocity=60, time=0),
    Message('note_on', channel=0, note=45, velocity=60, time=0),
    Message('note_on', channel=0, note=69, velocity=0, time=59),
    Message('note_on', channel=0, note=66, velocity=0, time=0),
    Message('note_on', channel=0, note=62, velocity=0, time=0),
    Message('note_on', channel=0, note=57, velocity=0, time=0),
    Message('note_on', channel=0, note=50, velocity=0, time=0),
    Message('note_on', channel=0, note=45, velocity=0, time=0),
    Message('note_on', channel=0, note=69, velocity=60, time=1),
    Message('note_on', channel=0, note=66, velocity=60, time=0),
    Message('note_on', channel=0, note=62, velocity=60, time=0),
    Message('note_on', channel=0, note=57, velocity=60, time=0),
    Message('note_on', channel=0, note=50, velocity=60, time=0),
    Message('note_on', channel=0, note=45, velocity=60, time=0),
    Message('note_on', channel=0, note=69, velocity=0, time=29),
    Message('note_on', channel=0, note=66, velocity=0, time=0),
    Message('note_on', channel=0, note=62, velocity=0, time=0),
    Message('note_on', channel=0, note=57, velocity=0, time=0),
    Message('note_on', channel=0, note=50, velocity=0, time=0),
    Message('note_on', channel=0, note=45, velocity=0, time=0),
    Message('note_on', channel=0, note=69, velocity=60, time=1),
    Message('note_on', channel=0, note=66, velocity=60, time=0),
    Message('note_on', channel=0, note=62, velocity=60, time=0),
    Message('note_on', channel=0, note=57, velocity=60, time=0),
    Message('note_on', channel=0, note=50, velocity=60, time=0),
    Message('note_on', channel=0, note=45, velocity=60, time=0),
    Message('note_on', channel=0, note=69, velocity=0, time=239),
    Message('note_on', channel=0, note=66, velocity=0, time=0),
    Message('note_on', channel=0, note=62, velocity=0, time=0),
    Message('note_on', channel=0, note=57, velocity=0, time=0),
    Message('note_on', channel=0, note=50, velocity=0, time=0),
    Message('note_on', channel=0, note=45, velocity=0, time=0),
    Message('note_on', channel=0, note=40, velocity=60, time=1),
    Message('note_on', channel=0, note=47, velocity=60, time=0),
    Message('note_on', channel=0, note=52, velocity=60, time=0),
    Message('note_on', channel=0, note=55, velocity=60, time=0),
    Message('note_on', channel=0, note=59, velocity=60, time=0),
    Message('note_on', channel=0, note=64, velocity=60, time=0),
    Message('note_on', channel=0, note=40, velocity=0, time=59),
    Message('note_on', channel=0, note=47, velocity=0, time=0),
    Message('note_on', channel=0, note=52, velocity=0, time=0),
    Message('note_on', channel=0, note=55, velocity=0, time=0),
    Message('note_on', channel=0, note=59, velocity=0, time=0),
    Message('note_on', channel=0, note=64, velocity=0, time=0),
    Message('note_on', channel=0, note=64, velocity=60, time=1),
    Message('note_on', channel=0, note=59, velocity=60, time=0),
    Message('note_on', channel=0, note=55, velocity=60, time=0),
    Message('note_on', channel=0, note=52, velocity=60, time=0),
    Message('note_on', channel=0, note=47, velocity=60, time=0),
    Message('note_on', channel=0, note=40, velocity=60, time=0),
    Message('note_on', channel=0, note=64, velocity=0, time=29),
    Message('note_on', channel=0, note=59, velocity=0, time=0),
    Message('note_on', channel=0, note=55, velocity=0, time=0),
    Message('note_on', channel=0, note=52, velocity=0, time=0),
    Message('note_on', channel=0, note=47, velocity=0, time=0),
    Message('note_on', channel=0, note=40, velocity=0, time=0),
    Message('note_on', channel=0, note=64, velocity=60, time=1),
    Message('note_on', channel=0, note=59, velocity=60, time=0),
    Message('note_on', channel=0, note=55, velocity=60, time=0),
    Message('note_on', channel=0, note=52, velocity=60, time=0),
    Message('note_on', channel=0, note=47, velocity=60, time=0),
    Message('note_on', channel=0, note=40, velocity=60, time=0),
    Message('note_on', channel=0, note=64, velocity=0, time=29),
    Message('note_on', channel=0, note=59, velocity=0, time=0),
    Message('note_on', channel=0, note=55, velocity=0, time=0),
    Message('note_on', channel=0, note=52, velocity=0, time=0),
    Message('note_on', channel=0, note=47, velocity=0, time=0),
    Message('note_on', channel=0, note=40, velocity=0, time=0),
    Message('note_on', channel=0, note=64, velocity=60, time=1),
    Message('note_on', channel=0, note=59, velocity=60, time=0),
    Message('note_on', channel=0, note=55, velocity=60, time=0),
    Message('note_on', channel=0, note=52, velocity=60, time=0),
    Message('note_on', channel=0, note=47, velocity=60, time=0),
    Message('note_on', channel=0, note=40, velocity=60, time=0),
    Message('note_on', channel=0, note=64, velocity=0, time=29),
    Message('note_on', channel=0, note=59, velocity=0, time=0),
    Message('note_on', channel=0, note=55, velocity=0, time=0),
    Message('note_on', channel=0, note=52, velocity=0, time=0),
    Message('note_on', channel=0, note=47, velocity=0, time=0),
    Message('note_on', channel=0, note=40, velocity=0, time=0),
    Message('note_on', channel=0, note=64, velocity=60, time=1),
    Message('note_on', channel=0, note=59, velocity=60, time=0),
    Message('note_on', channel=0, note=55, velocity=60, time=0),
    Message('note_on', channel=0, note=52, velocity=60, time=0),
    Message('note_on', channel=0, note=47, velocity=60, time=0),
    Message('note_on', channel=0, note=40, velocity=60, time=0),
    Message('note_on', channel=0, note=64, velocity=0, time=29),
    Message('note_on', channel=0, note=59, velocity=0, time=0),
    Message('note_on', channel=0, note=55, velocity=0, time=0),
    Message('note_on', channel=0, note=52, velocity=0, time=0),
    Message('note_on', channel=0, note=47, velocity=0, time=0),
    Message('note_on', channel=0, note=40, velocity=0, time=0),
    Message('note_on', channel=0, note=64, velocity=60, time=1),
    Message('note_on', channel=0, note=59, velocity=60, time=0),
    Message('note_on', channel=0, note=55, velocity=60, time=0),
    Message('note_on', channel=0, note=52, velocity=60, time=0),
    Message('note_on', channel=0, note=47, velocity=60, time=0),
    Message('note_on', channel=0, note=40, velocity=60, time=0),
    Message('note_on', channel=0, note=64, velocity=0, time=59),
    Message('note_on', channel=0, note=59, velocity=0, time=0),
    Message('note_on', channel=0, note=55, velocity=0, time=0),
    Message('note_on', channel=0, note=52, velocity=0, time=0),
    Message('note_on', channel=0, note=47, velocity=0, time=0),
    Message('note_on', channel=0, note=40, velocity=0, time=0),
    Message('note_on', channel=0, note=64, velocity=60, time=1),
    Message('note_on', channel=0, note=59, velocity=60, time=0),
    Message('note_on', channel=0, note=55, velocity=60, time=0),
    Message('note_on', channel=0, note=52, velocity=60, time=0),
    Message('note_on', channel=0, note=47, velocity=60, time=0),
    Message('note_on', channel=0, note=40, velocity=60, time=0),
    Message('note_on', channel=0, note=64, velocity=0, time=59),
    Message('note_on', channel=0, note=59, velocity=0, time=0),
    Message('note_on', channel=0, note=55, velocity=0, time=0),
    Message('note_on', channel=0, note=52, velocity=0, time=0),
    Message('note_on', channel=0, note=47, velocity=0, time=0),
    Message('note_on', channel=0, note=40, velocity=0, time=0),
    Message('note_on', channel=0, note=64, velocity=60, time=1),
    Message('note_on', channel=0, note=59, velocity=60, time=0),
    Message('note_on', channel=0, note=55, velocity=60, time=0),
    Message('note_on', channel=0, note=52, velocity=60, time=0),
    Message('note_on', channel=0, note=47, velocity=60, time=0),
    Message('note_on', channel=0, note=40, velocity=60, time=0),
    Message('note_on', channel=0, note=64, velocity=0, time=59),
    Message('note_on', channel=0, note=59, velocity=0, time=0),
    Message('note_on', channel=0, note=55, velocity=0, time=0),
    Message('note_on', channel=0, note=52, velocity=0, time=0),
    Message('note_on', channel=0, note=47, velocity=0, time=0),
    Message('note_on', channel=0, note=40, velocity=0, time=0),
    Message('note_on', channel=0, note=64, velocity=60, time=1),
    Message('note_on', channel=0, note=59, velocity=60, time=0),
    Message('note_on', channel=0, note=55, velocity=60, time=0),
    Message('note_on', channel=0, note=52, velocity=60, time=0),
    Message('note_on', channel=0, note=47, velocity=60, time=0),
    Message('note_on', channel=0, note=40, velocity=60, time=0),
    Message('note_on', channel=0, note=64, velocity=0, time=29),
    Message('note_on', channel=0, note=59, velocity=0, time=0),
    Message('note_on', channel=0, note=55, velocity=0, time=0),
    Message('note_on', channel=0, note=52, velocity=0, time=0),
    Message('note_on', channel=0, note=47, velocity=0, time=0),
    Message('note_on', channel=0, note=40, velocity=0, time=0),
    Message('note_on', channel=0, note=64, velocity=60, time=1),
    Message('note_on', channel=0, note=59, velocity=60, time=0),
    Message('note_on', channel=0, note=55, velocity=60, time=0),
    Message('note_on', channel=0, note=52, velocity=60, time=0),
    Message('note_on', channel=0, note=47, velocity=60, time=0),
    Message('note_on', channel=0, note=40, velocity=60, time=0),
    Message('note_on', channel=0, note=64, velocity=0, time=29),
    Message('note_on', channel=0, note=59, velocity=0, time=0),
    Message('note_on', channel=0, note=55, velocity=0, time=0),
    Message('note_on', channel=0, note=52, velocity=0, time=0),
    Message('note_on', channel=0, note=47, velocity=0, time=0),
    Message('note_on', channel=0, note=40, velocity=0, time=0),
    Message('note_on', channel=0, note=64, velocity=60, time=1),
    Message('note_on', channel=0, note=59, velocity=60, time=0),
    Message('note_on', channel=0, note=55, velocity=60, time=0),
    Message('note_on', channel=0, note=52, velocity=60, time=0),
    Message('note_on', channel=0, note=47, velocity=60, time=0),
    Message('note_on', channel=0, note=40, velocity=60, time=0),
    Message('note_on', channel=0, note=64, velocity=0, time=59),
    Message('note_on', channel=0, note=59, velocity=0, time=0),
    Message('note_on', channel=0, note=55, velocity=0, time=0),
    Message('note_on', channel=0, note=52, velocity=0, time=0),
    Message('note_on', channel=0, note=47, velocity=0, time=0),
    Message('note_on', channel=0, note=40, velocity=0, time=0),
    Message('note_on', channel=0, note=42, velocity=60, time=1),
    Message('note_on', channel=0, note=49, velocity=60, time=0),
    Message('note_on', channel=0, note=54, velocity=60, time=0),
    Message('note_on', channel=0, note=58, velocity=60, time=0),
    Message('note_on', channel=0, note=61, velocity=60, time=0),
    Message('note_on', channel=0, note=66, velocity=60, time=0),
    Message('note_on', channel=0, note=42, velocity=0, time=59),
    Message('note_on', channel=0, note=49, velocity=0, time=0),
    Message('note_on', channel=0, note=54, velocity=0, time=0),
    Message('note_on', channel=0, note=58, velocity=0, time=0),
    Message('note_on', channel=0, note=61, velocity=0, time=0),
    Message('note_on', channel=0, note=66, velocity=0, time=0),
    Message('note_on', channel=0, note=66, velocity=60, time=1),
    Message('note_on', channel=0, note=61, velocity=60, time=0),
    Message('note_on', channel=0, note=58, velocity=60, time=0),
    Message('note_on', channel=0, note=54, velocity=60, time=0),
    Message('note_on', channel=0, note=49, velocity=60, time=0),
    Message('note_on', channel=0, note=42, velocity=60, time=0),
    Message('note_on', channel=0, note=66, velocity=0, time=29),
    Message('note_on', channel=0, note=61, velocity=0, time=0),
    Message('note_on', channel=0, note=58, velocity=0, time=0),
    Message('note_on', channel=0, note=54, velocity=0, time=0),
    Message('note_on', channel=0, note=49, velocity=0, time=0),
    Message('note_on', channel=0, note=42, velocity=0, time=0),
    Message('note_on', channel=0, note=66, velocity=60, time=1),
    Message('note_on', channel=0, note=61, velocity=60, time=0),
    Message('note_on', channel=0, note=58, velocity=60, time=0),
    Message('note_on', channel=0, note=54, velocity=60, time=0),
    Message('note_on', channel=0, note=49, velocity=60, time=0),
    Message('note_on', channel=0, note=42, velocity=60, time=0),
    Message('note_on', channel=0, note=66, velocity=0, time=29),
    Message('note_on', channel=0, note=61, velocity=0, time=0),
    Message('note_on', channel=0, note=58, velocity=0, time=0),
    Message('note_on', channel=0, note=54, velocity=0, time=0),
    Message('note_on', channel=0, note=49, velocity=0, time=0),
    Message('note_on', channel=0, note=42, velocity=0, time=0),
    Message('note_on', channel=0, note=66, velocity=60, time=1),
    Message('note_on', channel=0, note=61, velocity=60, time=0),
    Message('note_on', channel=0, note=58, velocity=60, time=0),
    Message('note_on', channel=0, note=54, velocity=60, time=0),
    Message('note_on', channel=0, note=49, velocity=60, time=0),
    Message('note_on', channel=0, note=42, velocity=60, time=0),
    Message('note_on', channel=0, note=66, velocity=0, time=29),
    Message('note_on', channel=0, note=61, velocity=0, time=0),
    Message('note_on', channel=0, note=58, velocity=0, time=0),
    Message('note_on', channel=0, note=54, velocity=0, time=0),
    Message('note_on', channel=0, note=49, velocity=0, time=0),
    Message('note_on', channel=0, note=42, velocity=0, time=0),
    Message('note_on', channel=0, note=66, velocity=60, time=1),
    Message('note_on', channel=0, note=61, velocity=60, time=0),
    Message('note_on', channel=0, note=58, velocity=60, time=0),
    Message('note_on', channel=0, note=54, velocity=60, time=0),
    Message('note_on', channel=0, note=49, velocity=60, time=0),
    Message('note_on', channel=0, note=42, velocity=60, time=0),
    Message('note_on', channel=0, note=66, velocity=0, time=59),
    Message('note_on', channel=0, note=61, velocity=0, time=0),
    Message('note_on', channel=0, note=58, velocity=0, time=0),
    Message('note_on', channel=0, note=54, velocity=0, time=0),
    Message('note_on', channel=0, note=49, velocity=0, time=0),
    Message('note_on', channel=0, note=42, velocity=0, time=0),
    Message('note_on', channel=0, note=66, velocity=60, time=1),
    Message('note_on', channel=0, note=61, velocity=60, time=0),
    Message('note_on', channel=0, note=58, velocity=60, time=0),
    Message('note_on', channel=0, note=54, velocity=60, time=0),
    Message('note_on', channel=0, note=49, velocity=60, time=0),
    Message('note_on', channel=0, note=42, velocity=60, time=0),
    Message('note_on', channel=0, note=66, velocity=0, time=29),
    Message('note_on', channel=0, note=61, velocity=0, time=0),
    Message('note_on', channel=0, note=58, velocity=0, time=0),
    Message('note_on', channel=0, note=54, velocity=0, time=0),
    Message('note_on', channel=0, note=49, velocity=0, time=0),
    Message('note_on', channel=0, note=42, velocity=0, time=0),
    Message('note_on', channel=0, note=66, velocity=60, time=1),
    Message('note_on', channel=0, note=61, velocity=60, time=0),
    Message('note_on', channel=0, note=58, velocity=60, time=0),
    Message('note_on', channel=0, note=54, velocity=60, time=0),
    Message('note_on', channel=0, note=49, velocity=60, time=0),
    Message('note_on', channel=0, note=42, velocity=60, time=0),
    Message('note_on', channel=0, note=66, velocity=0, time=239),
    Message('note_on', channel=0, note=61, velocity=0, time=0),
    Message('note_on', channel=0, note=58, velocity=0, time=0),
    Message('note_on', channel=0, note=54, velocity=0, time=0),
    Message('note_on', channel=0, note=49, velocity=0, time=0),
    Message('note_on', channel=0, note=42, velocity=0, time=0),
    Message('note_on', channel=0, note=54, velocity=60, time=1),
    Message('note_on', channel=0, note=47, velocity=60, time=0),
    Message('note_on', channel=0, note=42, velocity=60, time=0),
    Message('note_on', channel=0, note=59, velocity=60, time=0),
    Message('note_on', channel=0, note=62, velocity=60, time=0),
    Message('note_on', channel=0, note=66, velocity=60, time=0),
    Message('note_on', channel=0, note=54, velocity=0, time=59),
    Message('note_on', channel=0, note=47, velocity=0, time=0),
    Message('note_on', channel=0, note=42, velocity=0, time=0),
    Message('note_on', channel=0, note=59, velocity=0, time=0),
    Message('note_on', channel=0, note=62, velocity=0, time=0),
    Message('note_on', channel=0, note=66, velocity=0, time=0),
    Message('note_on', channel=0, note=66, velocity=60, time=1),
    Message('note_on', channel=0, note=59, velocity=60, time=0),
    Message('note_on', channel=0, note=62, velocity=60, time=0),
    Message('note_on', channel=0, note=54, velocity=60, time=0),
    Message('note_on', channel=0, note=47, velocity=60, time=0),
    Message('note_on', channel=0, note=42, velocity=60, time=0),
    Message('note_on', channel=0, note=66, velocity=0, time=29),
    Message('note_on', channel=0, note=59, velocity=0, time=0),
    Message('note_on', channel=0, note=62, velocity=0, time=0),
    Message('note_on', channel=0, note=54, velocity=0, time=0),
    Message('note_on', channel=0, note=47, velocity=0, time=0),
    Message('note_on', channel=0, note=42, velocity=0, time=0),
    Message('note_on', channel=0, note=66, velocity=60, time=1),
    Message('note_on', channel=0, note=59, velocity=60, time=0),
    Message('note_on', channel=0, note=62, velocity=60, time=0),
    Message('note_on', channel=0, note=54, velocity=60, time=0),
    Message('note_on', channel=0, note=47, velocity=60, time=0),
    Message('note_on', channel=0, note=42, velocity=60, time=0),
    Message('note_on', channel=0, note=66, velocity=0, time=29),
    Message('note_on', channel=0, note=59, velocity=0, time=0),
    Message('note_on', channel=0, note=62, velocity=0, time=0),
    Message('note_on', channel=0, note=54, velocity=0, time=0),
    Message('note_on', channel=0, note=47, velocity=0, time=0),
    Message('note_on', channel=0, note=42, velocity=0, time=0),
    Message('note_on', channel=0, note=66, velocity=60, time=1),
    Message('note_on', channel=0, note=62, velocity=60, time=0),
    Message('note_on', channel=0, note=59, velocity=60, time=0),
    Message('note_on', channel=0, note=54, velocity=60, time=0),
    Message('note_on', channel=0, note=47, velocity=60, time=0),
    Message('note_on', channel=0, note=42, velocity=60, time=0),
    Message('note_on', channel=0, note=66, velocity=0, time=59),
    Message('note_on', channel=0, note=62, velocity=0, time=0),
    Message('note_on', channel=0, note=59, velocity=0, time=0),
    Message('note_on', channel=0, note=54, velocity=0, time=0),
    Message('note_on', channel=0, note=47, velocity=0, time=0),
    Message('note_on', channel=0, note=42, velocity=0, time=0),
    Message('note_on', channel=0, note=66, velocity=60, time=1),
    Message('note_on', channel=0, note=62, velocity=60, time=0),
    Message('note_on', channel=0, note=59, velocity=60, time=0),
    Message('note_on', channel=0, note=54, velocity=60, time=0),
    Message('note_on', channel=0, note=47, velocity=60, time=0),
    Message('note_on', channel=0, note=42, velocity=60, time=0),
    Message('note_on', channel=0, note=66, velocity=0, time=29),
    Message('note_on', channel=0, note=62, velocity=0, time=0),
    Message('note_on', channel=0, note=59, velocity=0, time=0),
    Message('note_on', channel=0, note=54, velocity=0, time=0),
    Message('note_on', channel=0, note=47, velocity=0, time=0),
    Message('note_on', channel=0, note=42, velocity=0, time=0),
    Message('note_on', channel=0, note=66, velocity=60, time=1),
    Message('note_on', channel=0, note=62, velocity=60, time=0),
    Message('note_on', channel=0, note=59, velocity=60, time=0),
    Message('note_on', channel=0, note=54, velocity=60, time=0),
    Message('note_on', channel=0, note=47, velocity=60, time=0),
    Message('note_on', channel=0, note=42, velocity=60, time=0),
    Message('note_on', channel=0, note=66, velocity=0, time=29),
    Message('note_on', channel=0, note=62, velocity=0, time=0),
    Message('note_on', channel=0, note=59, velocity=0, time=0),
    Message('note_on', channel=0, note=54, velocity=0, time=0),
    Message('note_on', channel=0, note=47, velocity=0, time=0),
    Message('note_on', channel=0, note=42, velocity=0, time=0),
    Message('note_on', channel=0, note=66, velocity=60, time=1),
    Message('note_on', channel=0, note=62, velocity=60, time=0),
    Message('note_on', channel=0, note=59, velocity=60, time=0),
    Message('note_on', channel=0, note=54, velocity=60, time=0),
    Message('note_on', channel=0, note=47, velocity=60, time=0),
    Message('note_on', channel=0, note=42, velocity=60, time=0),
    Message('note_on', channel=0, note=66, velocity=0, time=29),
    Message('note_on', channel=0, note=62, velocity=0, time=0),
    Message('note_on', channel=0, note=59, velocity=0, time=0),
    Message('note_on', channel=0, note=54, velocity=0, time=0),
    Message('note_on', channel=0, note=47, velocity=0, time=0),
    Message('note_on', channel=0, note=42, velocity=0, time=0),
    Message('note_on', channel=0, note=66, velocity=60, time=1),
    Message('note_on', channel=0, note=62, velocity=60, time=0),
    Message('note_on', channel=0, note=59, velocity=60, time=0),
    Message('note_on', channel=0, note=54, velocity=60, time=0),
    Message('note_on', channel=0, note=47, velocity=60, time=0),
    Message('note_on', channel=0, note=42, velocity=60, time=0),
    Message('note_on', channel=0, note=66, velocity=0, time=29),
    Message('note_on', channel=0, note=62, velocity=0, time=0),
    Message('note_on', channel=0, note=59, velocity=0, time=0),
    Message('note_on', channel=0, note=54, velocity=0, time=0),
    Message('note_on', channel=0, note=47, velocity=0, time=0),
    Message('note_on', channel=0, note=42, velocity=0, time=0),
    Message('note_on', channel=0, note=66, velocity=60, time=1),
    Message('note_on', channel=0, note=62, velocity=60, time=0),
    Message('note_on', channel=0, note=59, velocity=60, time=0),
    Message('note_on', channel=0, note=54, velocity=60, time=0),
    Message('note_on', channel=0, note=47, velocity=60, time=0),
    Message('note_on', channel=0, note=42, velocity=60, time=0),
    Message('note_on', channel=0, note=66, velocity=0, time=29),
    Message('note_on', channel=0, note=62, velocity=0, time=0),
    Message('note_on', channel=0, note=59, velocity=0, time=0),
    Message('note_on', channel=0, note=54, velocity=0, time=0),
    Message('note_on', channel=0, note=47, velocity=0, time=0),
    Message('note_on', channel=0, note=42, velocity=0, time=0),
    Message('note_on', channel=0, note=66, velocity=60, time=1),
    Message('note_on', channel=0, note=62, velocity=60, time=0),
    Message('note_on', channel=0, note=59, velocity=60, time=0),
    Message('note_on', channel=0, note=54, velocity=60, time=0),
    Message('note_on', channel=0, note=47, velocity=60, time=0),
    Message('note_on', channel=0, note=42, velocity=60, time=0),
    Message('note_on', channel=0, note=66, velocity=0, time=59),
    Message('note_on', channel=0, note=62, velocity=0, time=0),
    Message('note_on', channel=0, note=59, velocity=0, time=0),
    Message('note_on', channel=0, note=54, velocity=0, time=0),
    Message('note_on', channel=0, note=47, velocity=0, time=0),
    Message('note_on', channel=0, note=42, velocity=0, time=0),
    Message('note_on', channel=0, note=66, velocity=60, time=1),
    Message('note_on', channel=0, note=62, velocity=60, time=0),
    Message('note_on', channel=0, note=59, velocity=60, time=0),
    Message('note_on', channel=0, note=54, velocity=60, time=0),
    Message('note_on', channel=0, note=47, velocity=60, time=0),
    Message('note_on', channel=0, note=42, velocity=60, time=0),
    Message('note_on', channel=0, note=66, velocity=0, time=29),
    Message('note_on', channel=0, note=62, velocity=0, time=0),
    Message('note_on', channel=0, note=59, velocity=0, time=0),
    Message('note_on', channel=0, note=54, velocity=0, time=0),
    Message('note_on', channel=0, note=47, velocity=0, time=0),
    Message('note_on', channel=0, note=42, velocity=0, time=0),
    Message('note_on', channel=0, note=66, velocity=60, time=1),
    Message('note_on', channel=0, note=62, velocity=60, time=0),
    Message('note_on', channel=0, note=59, velocity=60, time=0),
    Message('note_on', channel=0, note=54, velocity=60, time=0),
    Message('note_on', channel=0, note=47, velocity=60, time=0),
    Message('note_on', channel=0, note=42, velocity=60, time=0),
    Message('note_on', channel=0, note=66, velocity=0, time=59),
    Message('note_on', channel=0, note=62, velocity=0, time=0),
    Message('note_on', channel=0, note=59, velocity=0, time=0),
    Message('note_on', channel=0, note=54, velocity=0, time=0),
    Message('note_on', channel=0, note=47, velocity=0, time=0),
    Message('note_on', channel=0, note=42, velocity=0, time=0),
    Message('note_on', channel=0, note=42, velocity=60, time=1),
    Message('note_on', channel=0, note=49, velocity=60, time=0),
    Message('note_on', channel=0, note=54, velocity=60, time=0),
    Message('note_on', channel=0, note=58, velocity=60, time=0),
    Message('note_on', channel=0, note=61, velocity=60, time=0),
    Message('note_on', channel=0, note=66, velocity=60, time=0),
    Message('note_on', channel=0, note=42, velocity=0, time=59),
    Message('note_on', channel=0, note=49, velocity=0, time=0),
    Message('note_on', channel=0, note=54, velocity=0, time=0),
    Message('note_on', channel=0, note=58, velocity=0, time=0),
    Message('note_on', channel=0, note=61, velocity=0, time=0),
    Message('note_on', channel=0, note=66, velocity=0, time=0),
    Message('note_on', channel=0, note=66, velocity=60, time=1),
    Message('note_on', channel=0, note=61, velocity=60, time=0),
    Message('note_on', channel=0, note=58, velocity=60, time=0),
    Message('note_on', channel=0, note=54, velocity=60, time=0),
    Message('note_on', channel=0, note=49, velocity=60, time=0),
    Message('note_on', channel=0, note=42, velocity=60, time=0),
    Message('note_on', channel=0, note=66, velocity=0, time=29),
    Message('note_on', channel=0, note=61, velocity=0, time=0),
    Message('note_on', channel=0, note=58, velocity=0, time=0),
    Message('note_on', channel=0, note=54, velocity=0, time=0),
    Message('note_on', channel=0, note=49, velocity=0, time=0),
    Message('note_on', channel=0, note=42, velocity=0, time=0),
    Message('note_on', channel=0, note=66, velocity=60, time=1),
    Message('note_on', channel=0, note=61, velocity=60, time=0),
    Message('note_on', channel=0, note=58, velocity=60, time=0),
    Message('note_on', channel=0, note=54, velocity=60, time=0),
    Message('note_on', channel=0, note=49, velocity=60, time=0),
    Message('note_on', channel=0, note=42, velocity=60, time=0),
    Message('note_on', channel=0, note=66, velocity=0, time=29),
    Message('note_on', channel=0, note=61, velocity=0, time=0),
    Message('note_on', channel=0, note=58, velocity=0, time=0),
    Message('note_on', channel=0, note=54, velocity=0, time=0),
    Message('note_on', channel=0, note=49, velocity=0, time=0),
    Message('note_on', channel=0, note=42, velocity=0, time=0),
    Message('note_on', channel=0, note=66, velocity=60, time=1),
    Message('note_on', channel=0, note=58, velocity=60, time=0),
    Message('note_on', channel=0, note=61, velocity=60, time=0),
    Message('note_on', channel=0, note=54, velocity=60, time=0),
    Message('note_on', channel=0, note=49, velocity=60, time=0),
    Message('note_on', channel=0, note=42, velocity=60, time=0),
    Message('note_on', channel=0, note=66, velocity=0, time=59),
    Message('note_on', channel=0, note=58, velocity=0, time=0),
    Message('note_on', channel=0, note=61, velocity=0, time=0),
    Message('note_on', channel=0, note=54, velocity=0, time=0),
    Message('note_on', channel=0, note=49, velocity=0, time=0),
    Message('note_on', channel=0, note=42, velocity=0, time=0),
    Message('note_on', channel=0, note=66, velocity=60, time=1),
    Message('note_on', channel=0, note=61, velocity=60, time=0),
    Message('note_on', channel=0, note=58, velocity=60, time=0),
    Message('note_on', channel=0, note=54, velocity=60, time=0),
    Message('note_on', channel=0, note=49, velocity=60, time=0),
    Message('note_on', channel=0, note=42, velocity=60, time=0),
    Message('note_on', channel=0, note=66, velocity=0, time=29),
    Message('note_on', channel=0, note=61, velocity=0, time=0),
    Message('note_on', channel=0, note=58, velocity=0, time=0),
    Message('note_on', channel=0, note=54, velocity=0, time=0),
    Message('note_on', channel=0, note=49, velocity=0, time=0),
    Message('note_on', channel=0, note=42, velocity=0, time=0),
    Message('note_on', channel=0, note=66, velocity=60, time=1),
    Message('note_on', channel=0, note=61, velocity=60, time=0),
    Message('note_on', channel=0, note=58, velocity=60, time=0),
    Message('note_on', channel=0, note=54, velocity=60, time=0),
    Message('note_on', channel=0, note=49, velocity=60, time=0),
    Message('note_on', channel=0, note=42, velocity=60, time=0),
    Message('note_on', channel=0, note=66, velocity=0, time=29),
    Message('note_on', channel=0, note=61, velocity=0, time=0),
    Message('note_on', channel=0, note=58, velocity=0, time=0),
    Message('note_on', channel=0, note=54, velocity=0, time=0),
    Message('note_on', channel=0, note=49, velocity=0, time=0),
    Message('note_on', channel=0, note=42, velocity=0, time=0),
    Message('note_on', channel=0, note=66, velocity=60, time=1),
    Message('note_on', channel=0, note=61, velocity=60, time=0),
    Message('note_on', channel=0, note=58, velocity=60, time=0),
    Message('note_on', channel=0, note=54, velocity=60, time=0),
    Message('note_on', channel=0, note=49, velocity=60, time=0),
    Message('note_on', channel=0, note=42, velocity=60, time=0),
    Message('note_on', channel=0, note=66, velocity=0, time=179),
    Message('note_on', channel=0, note=61, velocity=0, time=0),
    Message('note_on', channel=0, note=58, velocity=0, time=0),
    Message('note_on', channel=0, note=54, velocity=0, time=0),
    Message('note_on', channel=0, note=49, velocity=0, time=0),
    Message('note_on', channel=0, note=42, velocity=0, time=0),
    Message('note_on', channel=0, note=66, velocity=60, time=1),
    Message('note_on', channel=0, note=61, velocity=60, time=0),
    Message('note_on', channel=0, note=58, velocity=60, time=0),
    Message('note_on', channel=0, note=54, velocity=60, time=0),
    Message('note_on', channel=0, note=49, velocity=60, time=0),
    Message('note_on', channel=0, note=42, velocity=60, time=0),
    Message('note_on', channel=0, note=66, velocity=0, time=29),
    Message('note_on', channel=0, note=61, velocity=0, time=0),
    Message('note_on', channel=0, note=58, velocity=0, time=0),
    Message('note_on', channel=0, note=54, velocity=0, time=0),
    Message('note_on', channel=0, note=49, velocity=0, time=0),
    Message('note_on', channel=0, note=42, velocity=0, time=0),
    Message('note_on', channel=0, note=66, velocity=60, time=1),
    Message('note_on', channel=0, note=61, velocity=60, time=0),
    Message('note_on', channel=0, note=58, velocity=60, time=0),
    Message('note_on', channel=0, note=54, velocity=60, time=0),
    Message('note_on', channel=0, note=49, velocity=60, time=0),
    Message('note_on', channel=0, note=42, velocity=60, time=0),
    Message('note_on', channel=0, note=66, velocity=0, time=29),
    Message('note_on', channel=0, note=61, velocity=0, time=0),
    Message('note_on', channel=0, note=58, velocity=0, time=0),
    Message('note_on', channel=0, note=54, velocity=0, time=0),
    Message('note_on', channel=0, note=49, velocity=0, time=0),
    Message('note_on', channel=0, note=42, velocity=0, time=0),
    Message('note_on', channel=0, note=40, velocity=60, time=1),
    Message('note_on', channel=0, note=45, velocity=60, time=0),
    Message('note_on', channel=0, note=52, velocity=60, time=0),
    Message('note_on', channel=0, note=57, velocity=60, time=0),
    Message('note_on', channel=0, note=61, velocity=60, time=0),
    Message('note_on', channel=0, note=64, velocity=60, time=0),
    Message('note_on', channel=0, note=40, velocity=0, time=59),
    Message('note_on', channel=0, note=45, velocity=0, time=0),
    Message('note_on', channel=0, note=52, velocity=0, time=0),
    Message('note_on', channel=0, note=57, velocity=0, time=0),
    Message('note_on', channel=0, note=61, velocity=0, time=0),
    Message('note_on', channel=0, note=64, velocity=0, time=0),
    Message('note_on', channel=0, note=64, velocity=60, time=1),
    Message('note_on', channel=0, note=61, velocity=60, time=0),
    Message('note_on', channel=0, note=57, velocity=60, time=0),
    Message('note_on', channel=0, note=52, velocity=60, time=0),
    Message('note_on', channel=0, note=45, velocity=60, time=0),
    Message('note_on', channel=0, note=40, velocity=60, time=0),
    Message('note_on', channel=0, note=64, velocity=0, time=29),
    Message('note_on', channel=0, note=61, velocity=0, time=0),
    Message('note_on', channel=0, note=57, velocity=0, time=0),
    Message('note_on', channel=0, note=52, velocity=0, time=0),
    Message('note_on', channel=0, note=45, velocity=0, time=0),
    Message('note_on', channel=0, note=40, velocity=0, time=0),
    Message('note_on', channel=0, note=64, velocity=60, time=1),
    Message('note_on', channel=0, note=61, velocity=60, time=0),
    Message('note_on', channel=0, note=57, velocity=60, time=0),
    Message('note_on', channel=0, note=52, velocity=60, time=0),
    Message('note_on', channel=0, note=45, velocity=60, time=0),
    Message('note_on', channel=0, note=40, velocity=60, time=0),
    Message('note_on', channel=0, note=64, velocity=0, time=29),
    Message('note_on', channel=0, note=61, velocity=0, time=0),
    Message('note_on', channel=0, note=57, velocity=0, time=0),
    Message('note_on', channel=0, note=52, velocity=0, time=0),
    Message('note_on', channel=0, note=45, velocity=0, time=0),
    Message('note_on', channel=0, note=40, velocity=0, time=0),
    Message('note_on', channel=0, note=64, velocity=60, time=1),
    Message('note_on', channel=0, note=61, velocity=60, time=0),
    Message('note_on', channel=0, note=57, velocity=60, time=0),
    Message('note_on', channel=0, note=52, velocity=60, time=0),
    Message('note_on', channel=0, note=45, velocity=60, time=0),
    Message('note_on', channel=0, note=40, velocity=60, time=0),
    Message('note_on', channel=0, note=64, velocity=0, time=59),
    Message('note_on', channel=0, note=61, velocity=0, time=0),
    Message('note_on', channel=0, note=57, velocity=0, time=0),
    Message('note_on', channel=0, note=52, velocity=0, time=0),
    Message('note_on', channel=0, note=45, velocity=0, time=0),
    Message('note_on', channel=0, note=40, velocity=0, time=0),
    Message('note_on', channel=0, note=64, velocity=60, time=1),
    Message('note_on', channel=0, note=61, velocity=60, time=0),
    Message('note_on', channel=0, note=57, velocity=60, time=0),
    Message('note_on', channel=0, note=52, velocity=60, time=0),
    Message('note_on', channel=0, note=45, velocity=60, time=0),
    Message('note_on', channel=0, note=40, velocity=60, time=0),
    Message('note_on', channel=0, note=64, velocity=0, time=29),
    Message('note_on', channel=0, note=61, velocity=0, time=0),
    Message('note_on', channel=0, note=57, velocity=0, time=0),
    Message('note_on', channel=0, note=52, velocity=0, time=0),
    Message('note_on', channel=0, note=45, velocity=0, time=0),
    Message('note_on', channel=0, note=40, velocity=0, time=0),
    Message('note_on', channel=0, note=64, velocity=60, time=1),
    Message('note_on', channel=0, note=61, velocity=60, time=0),
    Message('note_on', channel=0, note=57, velocity=60, time=0),
    Message('note_on', channel=0, note=52, velocity=60, time=0),
    Message('note_on', channel=0, note=45, velocity=60, time=0),
    Message('note_on', channel=0, note=40, velocity=60, time=0),
    Message('note_on', channel=0, note=64, velocity=0, time=29),
    Message('note_on', channel=0, note=61, velocity=0, time=0),
    Message('note_on', channel=0, note=57, velocity=0, time=0),
    Message('note_on', channel=0, note=52, velocity=0, time=0),
    Message('note_on', channel=0, note=45, velocity=0, time=0),
    Message('note_on', channel=0, note=40, velocity=0, time=0),
    Message('note_on', channel=0, note=64, velocity=60, time=1),
    Message('note_on', channel=0, note=61, velocity=60, time=0),
    Message('note_on', channel=0, note=57, velocity=60, time=0),
    Message('note_on', channel=0, note=52, velocity=60, time=0),
    Message('note_on', channel=0, note=45, velocity=60, time=0),
    Message('note_on', channel=0, note=40, velocity=60, time=0),
    Message('note_on', channel=0, note=64, velocity=0, time=29),
    Message('note_on', channel=0, note=61, velocity=0, time=0),
    Message('note_on', channel=0, note=57, velocity=0, time=0),
    Message('note_on', channel=0, note=52, velocity=0, time=0),
    Message('note_on', channel=0, note=45, velocity=0, time=0),
    Message('note_on', channel=0, note=40, velocity=0, time=0),
    Message('note_on', channel=0, note=64, velocity=60, time=1),
    Message('note_on', channel=0, note=61, velocity=60, time=0),
    Message('note_on', channel=0, note=57, velocity=60, time=0),
    Message('note_on', channel=0, note=52, velocity=60, time=0),
    Message('note_on', channel=0, note=45, velocity=60, time=0),
    Message('note_on', channel=0, note=40, velocity=60, time=0),
    Message('note_on', channel=0, note=64, velocity=0, time=29),
    Message('note_on', channel=0, note=61, velocity=0, time=0),
    Message('note_on', channel=0, note=57, velocity=0, time=0),
    Message('note_on', channel=0, note=52, velocity=0, time=0),
    Message('note_on', channel=0, note=45, velocity=0, time=0),
    Message('note_on', channel=0, note=40, velocity=0, time=0),
    Message('note_on', channel=0, note=64, velocity=60, time=1),
    Message('note_on', channel=0, note=61, velocity=60, time=0),
    Message('note_on', channel=0, note=57, velocity=60, time=0),
    Message('note_on', channel=0, note=52, velocity=60, time=0),
    Message('note_on', channel=0, note=45, velocity=60, time=0),
    Message('note_on', channel=0, note=40, velocity=60, time=0),
    Message('note_on', channel=0, note=64, velocity=0, time=29),
    Message('note_on', channel=0, note=61, velocity=0, time=0),
    Message('note_on', channel=0, note=57, velocity=0, time=0),
    Message('note_on', channel=0, note=52, velocity=0, time=0),
    Message('note_on', channel=0, note=45, velocity=0, time=0),
    Message('note_on', channel=0, note=40, velocity=0, time=0),
    Message('note_on', channel=0, note=64, velocity=60, time=1),
    Message('note_on', channel=0, note=61, velocity=60, time=0),
    Message('note_on', channel=0, note=57, velocity=60, time=0),
    Message('note_on', channel=0, note=52, velocity=60, time=0),
    Message('note_on', channel=0, note=45, velocity=60, time=0),
    Message('note_on', channel=0, note=40, velocity=60, time=0),
    Message('note_on', channel=0, note=64, velocity=0, time=59),
    Message('note_on', channel=0, note=61, velocity=0, time=0),
    Message('note_on', channel=0, note=57, velocity=0, time=0),
    Message('note_on', channel=0, note=52, velocity=0, time=0),
    Message('note_on', channel=0, note=45, velocity=0, time=0),
    Message('note_on', channel=0, note=40, velocity=0, time=0),
    Message('note_on', channel=0, note=64, velocity=60, time=1),
    Message('note_on', channel=0, note=61, velocity=60, time=0),
    Message('note_on', channel=0, note=57, velocity=60, time=0),
    Message('note_on', channel=0, note=52, velocity=60, time=0),
    Message('note_on', channel=0, note=45, velocity=60, time=0),
    Message('note_on', channel=0, note=40, velocity=60, time=0),
    Message('note_on', channel=0, note=64, velocity=0, time=29),
    Message('note_on', channel=0, note=61, velocity=0, time=0),
    Message('note_on', channel=0, note=57, velocity=0, time=0),
    Message('note_on', channel=0, note=52, velocity=0, time=0),
    Message('note_on', channel=0, note=45, velocity=0, time=0),
    Message('note_on', channel=0, note=40, velocity=0, time=0),
    Message('note_on', channel=0, note=64, velocity=60, time=1),
    Message('note_on', channel=0, note=61, velocity=60, time=0),
    Message('note_on', channel=0, note=57, velocity=60, time=0),
    Message('note_on', channel=0, note=52, velocity=60, time=0),
    Message('note_on', channel=0, note=45, velocity=60, time=0),
    Message('note_on', channel=0, note=40, velocity=60, time=0),
    Message('note_on', channel=0, note=64, velocity=0, time=59),
    Message('note_on', channel=0, note=61, velocity=0, time=0),
    Message('note_on', channel=0, note=57, velocity=0, time=0),
    Message('note_on', channel=0, note=52, velocity=0, time=0),
    Message('note_on', channel=0, note=45, velocity=0, time=0),
    Message('note_on', channel=0, note=40, velocity=0, time=0),
    Message('note_on', channel=0, note=40, velocity=60, time=1),
    Message('note_on', channel=0, note=47, velocity=60, time=0),
    Message('note_on', channel=0, note=52, velocity=60, time=0),
    Message('note_on', channel=0, note=56, velocity=60, time=0),
    Message('note_on', channel=0, note=59, velocity=60, time=0),
    Message('note_on', channel=0, note=64, velocity=60, time=0),
    Message('note_on', channel=0, note=40, velocity=0, time=59),
    Message('note_on', channel=0, note=47, velocity=0, time=0),
    Message('note_on', channel=0, note=52, velocity=0, time=0),
    Message('note_on', channel=0, note=56, velocity=0, time=0),
    Message('note_on', channel=0, note=59, velocity=0, time=0),
    Message('note_on', channel=0, note=64, velocity=0, time=0),
    Message('note_on', channel=0, note=64, velocity=60, time=1),
    Message('note_on', channel=0, note=59, velocity=60, time=0),
    Message('note_on', channel=0, note=56, velocity=60, time=0),
    Message('note_on', channel=0, note=52, velocity=60, time=0),
    Message('note_on', channel=0, note=47, velocity=60, time=0),
    Message('note_on', channel=0, note=40, velocity=60, time=0),
    Message('note_on', channel=0, note=64, velocity=0, time=29),
    Message('note_on', channel=0, note=59, velocity=0, time=0),
    Message('note_on', channel=0, note=56, velocity=0, time=0),
    Message('note_on', channel=0, note=52, velocity=0, time=0),
    Message('note_on', channel=0, note=47, velocity=0, time=0),
    Message('note_on', channel=0, note=40, velocity=0, time=0),
    Message('note_on', channel=0, note=64, velocity=60, time=1),
    Message('note_on', channel=0, note=59, velocity=60, time=0),
    Message('note_on', channel=0, note=56, velocity=60, time=0),
    Message('note_on', channel=0, note=52, velocity=60, time=0),
    Message('note_on', channel=0, note=47, velocity=60, time=0),
    Message('note_on', channel=0, note=40, velocity=60, time=0),
    Message('note_on', channel=0, note=64, velocity=0, time=29),
    Message('note_on', channel=0, note=59, velocity=0, time=0),
    Message('note_on', channel=0, note=56, velocity=0, time=0),
    Message('note_on', channel=0, note=52, velocity=0, time=0),
    Message('note_on', channel=0, note=47, velocity=0, time=0),
    Message('note_on', channel=0, note=40, velocity=0, time=0),
    Message('note_on', channel=0, note=64, velocity=60, time=1),
    Message('note_on', channel=0, note=59, velocity=60, time=0),
    Message('note_on', channel=0, note=56, velocity=60, time=0),
    Message('note_on', channel=0, note=52, velocity=60, time=0),
    Message('note_on', channel=0, note=47, velocity=60, time=0),
    Message('note_on', channel=0, note=40, velocity=60, time=0),
    Message('note_on', channel=0, note=64, velocity=0, time=59),
    Message('note_on', channel=0, note=59, velocity=0, time=0),
    Message('note_on', channel=0, note=56, velocity=0, time=0),
    Message('note_on', channel=0, note=52, velocity=0, time=0),
    Message('note_on', channel=0, note=47, velocity=0, time=0),
    Message('note_on', channel=0, note=40, velocity=0, time=0),
    Message('note_on', channel=0, note=64, velocity=60, time=1),
    Message('note_on', channel=0, note=59, velocity=60, time=0),
    Message('note_on', channel=0, note=56, velocity=60, time=0),
    Message('note_on', channel=0, note=52, velocity=60, time=0),
    Message('note_on', channel=0, note=47, velocity=60, time=0),
    Message('note_on', channel=0, note=40, velocity=60, time=0),
    Message('note_on', channel=0, note=64, velocity=0, time=29),
    Message('note_on', channel=0, note=59, velocity=0, time=0),
    Message('note_on', channel=0, note=56, velocity=0, time=0),
    Message('note_on', channel=0, note=52, velocity=0, time=0),
    Message('note_on', channel=0, note=47, velocity=0, time=0),
    Message('note_on', channel=0, note=40, velocity=0, time=0),
    Message('note_on', channel=0, note=64, velocity=60, time=1),
    Message('note_on', channel=0, note=59, velocity=60, time=0),
    Message('note_on', channel=0, note=56, velocity=60, time=0),
    Message('note_on', channel=0, note=52, velocity=60, time=0),
    Message('note_on', channel=0, note=47, velocity=60, time=0),
    Message('note_on', channel=0, note=40, velocity=60, time=0),
    Message('note_on', channel=0, note=64, velocity=0, time=29),
    Message('note_on', channel=0, note=59, velocity=0, time=0),
    Message('note_on', channel=0, note=56, velocity=0, time=0),
    Message('note_on', channel=0, note=52, velocity=0, time=0),
    Message('note_on', channel=0, note=47, velocity=0, time=0),
    Message('note_on', channel=0, note=40, velocity=0, time=0),
    Message('note_on', channel=0, note=64, velocity=60, time=1),
    Message('note_on', channel=0, note=59, velocity=60, time=0),
    Message('note_on', channel=0, note=56, velocity=60, time=0),
    Message('note_on', channel=0, note=52, velocity=60, time=0),
    Message('note_on', channel=0, note=47, velocity=60, time=0),
    Message('note_on', channel=0, note=40, velocity=60, time=0),
    Message('note_on', channel=0, note=64, velocity=0, time=239),
    Message('note_on', channel=0, note=59, velocity=0, time=0),
    Message('note_on', channel=0, note=56, velocity=0, time=0),
    Message('note_on', channel=0, note=52, velocity=0, time=0),
    Message('note_on', channel=0, note=47, velocity=0, time=0),
    Message('note_on', channel=0, note=40, velocity=0, time=0),
    Message('note_on', channel=0, note=43, velocity=60, time=1),
    Message('note_on', channel=0, note=50, velocity=60, time=0),
    Message('note_on', channel=0, note=55, velocity=60, time=0),
    Message('note_on', channel=0, note=59, velocity=60, time=0),
    Message('note_on', channel=0, note=62, velocity=60, time=0),
    Message('note_on', channel=0, note=67, velocity=60, time=0),
    Message('note_on', channel=0, note=43, velocity=0, time=59),
    Message('note_on', channel=0, note=50, velocity=0, time=0),
    Message('note_on', channel=0, note=55, velocity=0, time=0),
    Message('note_on', channel=0, note=59, velocity=0, time=0),
    Message('note_on', channel=0, note=62, velocity=0, time=0),
    Message('note_on', channel=0, note=67, velocity=0, time=0),
    Message('note_on', channel=0, note=67, velocity=60, time=1),
    Message('note_on', channel=0, note=62, velocity=60, time=0),
    Message('note_on', channel=0, note=59, velocity=60, time=0),
    Message('note_on', channel=0, note=55, velocity=60, time=0),
    Message('note_on', channel=0, note=50, velocity=60, time=0),
    Message('note_on', channel=0, note=43, velocity=60, time=0),
    Message('note_on', channel=0, note=67, velocity=0, time=29),
    Message('note_on', channel=0, note=62, velocity=0, time=0),
    Message('note_on', channel=0, note=59, velocity=0, time=0),
    Message('note_on', channel=0, note=55, velocity=0, time=0),
    Message('note_on', channel=0, note=50, velocity=0, time=0),
    Message('note_on', channel=0, note=43, velocity=0, time=0),
    Message('note_on', channel=0, note=67, velocity=60, time=1),
    Message('note_on', channel=0, note=62, velocity=60, time=0),
    Message('note_on', channel=0, note=59, velocity=60, time=0),
    Message('note_on', channel=0, note=55, velocity=60, time=0),
    Message('note_on', channel=0, note=50, velocity=60, time=0),
    Message('note_on', channel=0, note=43, velocity=60, time=0),
    Message('note_on', channel=0, note=67, velocity=0, time=29),
    Message('note_on', channel=0, note=62, velocity=0, time=0),
    Message('note_on', channel=0, note=59, velocity=0, time=0),
    Message('note_on', channel=0, note=55, velocity=0, time=0),
    Message('note_on', channel=0, note=50, velocity=0, time=0),
    Message('note_on', channel=0, note=43, velocity=0, time=0),
    Message('note_on', channel=0, note=67, velocity=60, time=1),
    Message('note_on', channel=0, note=62, velocity=60, time=0),
    Message('note_on', channel=0, note=59, velocity=60, time=0),
    Message('note_on', channel=0, note=55, velocity=60, time=0),
    Message('note_on', channel=0, note=50, velocity=60, time=0),
    Message('note_on', channel=0, note=43, velocity=60, time=0),
    Message('note_on', channel=0, note=67, velocity=0, time=59),
    Message('note_on', channel=0, note=62, velocity=0, time=0),
    Message('note_on', channel=0, note=59, velocity=0, time=0),
    Message('note_on', channel=0, note=55, velocity=0, time=0),
    Message('note_on', channel=0, note=50, velocity=0, time=0),
    Message('note_on', channel=0, note=43, velocity=0, time=0),
    Message('note_on', channel=0, note=67, velocity=60, time=1),
    Message('note_on', channel=0, note=62, velocity=60, time=0),
    Message('note_on', channel=0, note=59, velocity=60, time=0),
    Message('note_on', channel=0, note=55, velocity=60, time=0),
    Message('note_on', channel=0, note=50, velocity=60, time=0),
    Message('note_on', channel=0, note=43, velocity=60, time=0),
    Message('note_on', channel=0, note=67, velocity=0, time=29),
    Message('note_on', channel=0, note=62, velocity=0, time=0),
    Message('note_on', channel=0, note=59, velocity=0, time=0),
    Message('note_on', channel=0, note=55, velocity=0, time=0),
    Message('note_on', channel=0, note=50, velocity=0, time=0),
    Message('note_on', channel=0, note=43, velocity=0, time=0),
    Message('note_on', channel=0, note=67, velocity=60, time=1),
    Message('note_on', channel=0, note=62, velocity=60, time=0),
    Message('note_on', channel=0, note=59, velocity=60, time=0),
    Message('note_on', channel=0, note=55, velocity=60, time=0),
    Message('note_on', channel=0, note=50, velocity=60, time=0),
    Message('note_on', channel=0, note=43, velocity=60, time=0),
    Message('note_on', channel=0, note=67, velocity=0, time=29),
    Message('note_on', channel=0, note=62, velocity=0, time=0),
    Message('note_on', channel=0, note=59, velocity=0, time=0),
    Message('note_on', channel=0, note=55, velocity=0, time=0),
    Message('note_on', channel=0, note=50, velocity=0, time=0),
    Message('note_on', channel=0, note=43, velocity=0, time=0),
    Message('note_on', channel=0, note=67, velocity=60, time=1),
    Message('note_on', channel=0, note=62, velocity=60, time=0),
    Message('note_on', channel=0, note=59, velocity=60, time=0),
    Message('note_on', channel=0, note=55, velocity=60, time=0),
    Message('note_on', channel=0, note=50, velocity=60, time=0),
    Message('note_on', channel=0, note=43, velocity=60, time=0),
    Message('note_on', channel=0, note=67, velocity=0, time=29),
    Message('note_on', channel=0, note=62, velocity=0, time=0),
    Message('note_on', channel=0, note=59, velocity=0, time=0),
    Message('note_on', channel=0, note=55, velocity=0, time=0),
    Message('note_on', channel=0, note=50, velocity=0, time=0),
    Message('note_on', channel=0, note=43, velocity=0, time=0),
    Message('note_on', channel=0, note=67, velocity=60, time=1),
    Message('note_on', channel=0, note=62, velocity=60, time=0),
    Message('note_on', channel=0, note=59, velocity=60, time=0),
    Message('note_on', channel=0, note=55, velocity=60, time=0),
    Message('note_on', channel=0, note=50, velocity=60, time=0),
    Message('note_on', channel=0, note=43, velocity=60, time=0),
    Message('note_on', channel=0, note=67, velocity=0, time=29),
    Message('note_on', channel=0, note=62, velocity=0, time=0),
    Message('note_on', channel=0, note=59, velocity=0, time=0),
    Message('note_on', channel=0, note=55, velocity=0, time=0),
    Message('note_on', channel=0, note=50, velocity=0, time=0),
    Message('note_on', channel=0, note=43, velocity=0, time=0),
    Message('note_on', channel=0, note=67, velocity=60, time=1),
    Message('note_on', channel=0, note=62, velocity=60, time=0),
    Message('note_on', channel=0, note=59, velocity=60, time=0),
    Message('note_on', channel=0, note=55, velocity=60, time=0),
    Message('note_on', channel=0, note=50, velocity=60, time=0),
    Message('note_on', channel=0, note=43, velocity=60, time=0),
    Message('note_on', channel=0, note=67, velocity=0, time=29),
    Message('note_on', channel=0, note=62, velocity=0, time=0),
    Message('note_on', channel=0, note=59, velocity=0, time=0),
    Message('note_on', channel=0, note=55, velocity=0, time=0),
    Message('note_on', channel=0, note=50, velocity=0, time=0),
    Message('note_on', channel=0, note=43, velocity=0, time=0),
    Message('note_on', channel=0, note=67, velocity=60, time=1),
    Message('note_on', channel=0, note=62, velocity=60, time=0),
    Message('note_on', channel=0, note=59, velocity=60, time=0),
    Message('note_on', channel=0, note=55, velocity=60, time=0),
    Message('note_on', channel=0, note=50, velocity=60, time=0),
    Message('note_on', channel=0, note=43, velocity=60, time=0),
    Message('note_on', channel=0, note=67, velocity=0, time=59),
    Message('note_on', channel=0, note=62, velocity=0, time=0),
    Message('note_on', channel=0, note=59, velocity=0, time=0),
    Message('note_on', channel=0, note=55, velocity=0, time=0),
    Message('note_on', channel=0, note=50, velocity=0, time=0),
    Message('note_on', channel=0, note=43, velocity=0, time=0),
    Message('note_on', channel=0, note=67, velocity=60, time=1),
    Message('note_on', channel=0, note=62, velocity=60, time=0),
    Message('note_on', channel=0, note=59, velocity=60, time=0),
    Message('note_on', channel=0, note=55, velocity=60, time=0),
    Message('note_on', channel=0, note=50, velocity=60, time=0),
    Message('note_on', channel=0, note=43, velocity=60, time=0),
    Message('note_on', channel=0, note=67, velocity=0, time=29),
    Message('note_on', channel=0, note=62, velocity=0, time=0),
    Message('note_on', channel=0, note=59, velocity=0, time=0),
    Message('note_on', channel=0, note=55, velocity=0, time=0),
    Message('note_on', channel=0, note=50, velocity=0, time=0),
    Message('note_on', channel=0, note=43, velocity=0, time=0),
    Message('note_on', channel=0, note=67, velocity=60, time=1),
    Message('note_on', channel=0, note=62, velocity=60, time=0),
    Message('note_on', channel=0, note=59, velocity=60, time=0),
    Message('note_on', channel=0, note=55, velocity=60, time=0),
    Message('note_on', channel=0, note=50, velocity=60, time=0),
    Message('note_on', channel=0, note=43, velocity=60, time=0),
    Message('note_on', channel=0, note=67, velocity=0, time=59),
    Message('note_on', channel=0, note=62, velocity=0, time=0),
    Message('note_on', channel=0, note=59, velocity=0, time=0),
    Message('note_on', channel=0, note=55, velocity=0, time=0),
    Message('note_on', channel=0, note=50, velocity=0, time=0),
    Message('note_on', channel=0, note=43, velocity=0, time=0),
    Message('note_on', channel=0, note=45, velocity=60, time=1),
    Message('note_on', channel=0, note=50, velocity=60, time=0),
    Message('note_on', channel=0, note=57, velocity=60, time=0),
    Message('note_on', channel=0, note=62, velocity=60, time=0),
    Message('note_on', channel=0, note=66, velocity=60, time=0),
    Message('note_on', channel=0, note=69, velocity=60, time=0),
    Message('note_on', channel=0, note=45, velocity=0, time=59),
    Message('note_on', channel=0, note=50, velocity=0, time=0),
    Message('note_on', channel=0, note=57, velocity=0, time=0),
    Message('note_on', channel=0, note=62, velocity=0, time=0),
    Message('note_on', channel=0, note=66, velocity=0, time=0),
    Message('note_on', channel=0, note=69, velocity=0, time=0),
    Message('note_on', channel=0, note=69, velocity=60, time=1),
    Message('note_on', channel=0, note=66, velocity=60, time=0),
    Message('note_on', channel=0, note=62, velocity=60, time=0),
    Message('note_on', channel=0, note=57, velocity=60, time=0),
    Message('note_on', channel=0, note=50, velocity=60, time=0),
    Message('note_on', channel=0, note=45, velocity=60, time=0),
    Message('note_on', channel=0, note=69, velocity=0, time=29),
    Message('note_on', channel=0, note=66, velocity=0, time=0),
    Message('note_on', channel=0, note=62, velocity=0, time=0),
    Message('note_on', channel=0, note=57, velocity=0, time=0),
    Message('note_on', channel=0, note=50, velocity=0, time=0),
    Message('note_on', channel=0, note=45, velocity=0, time=0),
    Message('note_on', channel=0, note=69, velocity=60, time=1),
    Message('note_on', channel=0, note=66, velocity=60, time=0),
    Message('note_on', channel=0, note=62, velocity=60, time=0),
    Message('note_on', channel=0, note=57, velocity=60, time=0),
    Message('note_on', channel=0, note=50, velocity=60, time=0),
    Message('note_on', channel=0, note=45, velocity=60, time=0),
    Message('note_on', channel=0, note=69, velocity=0, time=29),
    Message('note_on', channel=0, note=66, velocity=0, time=0),
    Message('note_on', channel=0, note=62, velocity=0, time=0),
    Message('note_on', channel=0, note=57, velocity=0, time=0),
    Message('note_on', channel=0, note=50, velocity=0, time=0),
    Message('note_on', channel=0, note=45, velocity=0, time=0),
    Message('note_on', channel=0, note=69, velocity=60, time=1),
    Message('note_on', channel=0, note=66, velocity=60, time=0),
    Message('note_on', channel=0, note=62, velocity=60, time=0),
    Message('note_on', channel=0, note=57, velocity=60, time=0),
    Message('note_on', channel=0, note=50, velocity=60, time=0),
    Message('note_on', channel=0, note=45, velocity=60, time=0),
    Message('note_on', channel=0, note=69, velocity=0, time=29),
    Message('note_on', channel=0, note=66, velocity=0, time=0),
    Message('note_on', channel=0, note=62, velocity=0, time=0),
    Message('note_on', channel=0, note=57, velocity=0, time=0),
    Message('note_on', channel=0, note=50, velocity=0, time=0),
    Message('note_on', channel=0, note=45, velocity=0, time=0),
    Message('note_on', channel=0, note=69, velocity=60, time=1),
    Message('note_on', channel=0, note=66, velocity=60, time=0),
    Message('note_on', channel=0, note=62, velocity=60, time=0),
    Message('note_on', channel=0, note=57, velocity=60, time=0),
    Message('note_on', channel=0, note=50, velocity=60, time=0),
    Message('note_on', channel=0, note=45, velocity=60, time=0),
    Message('note_on', channel=0, note=69, velocity=0, time=59),
    Message('note_on', channel=0, note=66, velocity=0, time=0),
    Message('note_on', channel=0, note=62, velocity=0, time=0),
    Message('note_on', channel=0, note=57, velocity=0, time=0),
    Message('note_on', channel=0, note=50, velocity=0, time=0),
    Message('note_on', channel=0, note=45, velocity=0, time=0),
    Message('note_on', channel=0, note=69, velocity=60, time=1),
    Message('note_on', channel=0, note=66, velocity=60, time=0),
    Message('note_on', channel=0, note=62, velocity=60, time=0),
    Message('note_on', channel=0, note=57, velocity=60, time=0),
    Message('note_on', channel=0, note=50, velocity=60, time=0),
    Message('note_on', channel=0, note=45, velocity=60, time=0),
    Message('note_on', channel=0, note=69, velocity=0, time=29),
    Message('note_on', channel=0, note=66, velocity=0, time=0),
    Message('note_on', channel=0, note=62, velocity=0, time=0),
    Message('note_on', channel=0, note=57, velocity=0, time=0),
    Message('note_on', channel=0, note=50, velocity=0, time=0),
    Message('note_on', channel=0, note=45, velocity=0, time=0),
    Message('note_on', channel=0, note=69, velocity=60, time=1),
    Message('note_on', channel=0, note=66, velocity=60, time=0),
    Message('note_on', channel=0, note=62, velocity=60, time=0),
    Message('note_on', channel=0, note=57, velocity=60, time=0),
    Message('note_on', channel=0, note=50, velocity=60, time=0),
    Message('note_on', channel=0, note=45, velocity=60, time=0),
    Message('note_on', channel=0, note=69, velocity=0, time=239),
    Message('note_on', channel=0, note=66, velocity=0, time=0),
    Message('note_on', channel=0, note=62, velocity=0, time=0),
    Message('note_on', channel=0, note=57, velocity=0, time=0),
    Message('note_on', channel=0, note=50, velocity=0, time=0),
    Message('note_on', channel=0, note=45, velocity=0, time=0),
    Message('note_on', channel=0, note=40, velocity=60, time=1),
    Message('note_on', channel=0, note=47, velocity=60, time=0),
    Message('note_on', channel=0, note=52, velocity=60, time=0),
    Message('note_on', channel=0, note=55, velocity=60, time=0),
    Message('note_on', channel=0, note=59, velocity=60, time=0),
    Message('note_on', channel=0, note=64, velocity=60, time=0),
    Message('note_on', channel=0, note=40, velocity=0, time=59),
    Message('note_on', channel=0, note=47, velocity=0, time=0),
    Message('note_on', channel=0, note=52, velocity=0, time=0),
    Message('note_on', channel=0, note=55, velocity=0, time=0),
    Message('note_on', channel=0, note=59, velocity=0, time=0),
    Message('note_on', channel=0, note=64, velocity=0, time=0),
    Message('note_on', channel=0, note=64, velocity=60, time=1),
    Message('note_on', channel=0, note=59, velocity=60, time=0),
    Message('note_on', channel=0, note=55, velocity=60, time=0),
    Message('note_on', channel=0, note=52, velocity=60, time=0),
    Message('note_on', channel=0, note=47, velocity=60, time=0),
    Message('note_on', channel=0, note=40, velocity=60, time=0),
    Message('note_on', channel=0, note=64, velocity=0, time=29),
    Message('note_on', channel=0, note=59, velocity=0, time=0),
    Message('note_on', channel=0, note=55, velocity=0, time=0),
    Message('note_on', channel=0, note=52, velocity=0, time=0),
    Message('note_on', channel=0, note=47, velocity=0, time=0),
    Message('note_on', channel=0, note=40, velocity=0, time=0),
    Message('note_on', channel=0, note=64, velocity=60, time=1),
    Message('note_on', channel=0, note=59, velocity=60, time=0),
    Message('note_on', channel=0, note=55, velocity=60, time=0),
    Message('note_on', channel=0, note=52, velocity=60, time=0),
    Message('note_on', channel=0, note=47, velocity=60, time=0),
    Message('note_on', channel=0, note=40, velocity=60, time=0),
    Message('note_on', channel=0, note=64, velocity=0, time=29),
    Message('note_on', channel=0, note=59, velocity=0, time=0),
    Message('note_on', channel=0, note=55, velocity=0, time=0),
    Message('note_on', channel=0, note=52, velocity=0, time=0),
    Message('note_on', channel=0, note=47, velocity=0, time=0),
    Message('note_on', channel=0, note=40, velocity=0, time=0),
    Message('note_on', channel=0, note=64, velocity=60, time=1),
    Message('note_on', channel=0, note=59, velocity=60, time=0),
    Message('note_on', channel=0, note=55, velocity=60, time=0),
    Message('note_on', channel=0, note=52, velocity=60, time=0),
    Message('note_on', channel=0, note=47, velocity=60, time=0),
    Message('note_on', channel=0, note=40, velocity=60, time=0),
    Message('note_on', channel=0, note=64, velocity=0, time=29),
    Message('note_on', channel=0, note=59, velocity=0, time=0),
    Message('note_on', channel=0, note=55, velocity=0, time=0),
    Message('note_on', channel=0, note=52, velocity=0, time=0),
    Message('note_on', channel=0, note=47, velocity=0, time=0),
    Message('note_on', channel=0, note=40, velocity=0, time=0),
    Message('note_on', channel=0, note=64, velocity=60, time=1),
    Message('note_on', channel=0, note=59, velocity=60, time=0),
    Message('note_on', channel=0, note=55, velocity=60, time=0),
    Message('note_on', channel=0, note=52, velocity=60, time=0),
    Message('note_on', channel=0, note=47, velocity=60, time=0),
    Message('note_on', channel=0, note=40, velocity=60, time=0),
    Message('note_on', channel=0, note=64, velocity=0, time=29),
    Message('note_on', channel=0, note=59, velocity=0, time=0),
    Message('note_on', channel=0, note=55, velocity=0, time=0),
    Message('note_on', channel=0, note=52, velocity=0, time=0),
    Message('note_on', channel=0, note=47, velocity=0, time=0),
    Message('note_on', channel=0, note=40, velocity=0, time=0),
    Message('note_on', channel=0, note=64, velocity=60, time=1),
    Message('note_on', channel=0, note=59, velocity=60, time=0),
    Message('note_on', channel=0, note=55, velocity=60, time=0),
    Message('note_on', channel=0, note=52, velocity=60, time=0),
    Message('note_on', channel=0, note=47, velocity=60, time=0),
    Message('note_on', channel=0, note=40, velocity=60, time=0),
    Message('note_on', channel=0, note=64, velocity=0, time=59),
    Message('note_on', channel=0, note=59, velocity=0, time=0),
    Message('note_on', channel=0, note=55, velocity=0, time=0),
    Message('note_on', channel=0, note=52, velocity=0, time=0),
    Message('note_on', channel=0, note=47, velocity=0, time=0),
    Message('note_on', channel=0, note=40, velocity=0, time=0),
    Message('note_on', channel=0, note=64, velocity=60, time=1),
    Message('note_on', channel=0, note=59, velocity=60, time=0),
    Message('note_on', channel=0, note=55, velocity=60, time=0),
    Message('note_on', channel=0, note=52, velocity=60, time=0),
    Message('note_on', channel=0, note=47, velocity=60, time=0),
    Message('note_on', channel=0, note=40, velocity=60, time=0),
    Message('note_on', channel=0, note=64, velocity=0, time=59),
    Message('note_on', channel=0, note=59, velocity=0, time=0),
    Message('note_on', channel=0, note=55, velocity=0, time=0),
    Message('note_on', channel=0, note=52, velocity=0, time=0),
    Message('note_on', channel=0, note=47, velocity=0, time=0),
    Message('note_on', channel=0, note=40, velocity=0, time=0),
    Message('note_on', channel=0, note=64, velocity=60, time=1),
    Message('note_on', channel=0, note=59, velocity=60, time=0),
    Message('note_on', channel=0, note=55, velocity=60, time=0),
    Message('note_on', channel=0, note=52, velocity=60, time=0),
    Message('note_on', channel=0, note=47, velocity=60, time=0),
    Message('note_on', channel=0, note=40, velocity=60, time=0),
    Message('note_on', channel=0, note=64, velocity=0, time=59),
    Message('note_on', channel=0, note=59, velocity=0, time=0),
    Message('note_on', channel=0, note=55, velocity=0, time=0),
    Message('note_on', channel=0, note=52, velocity=0, time=0),
    Message('note_on', channel=0, note=47, velocity=0, time=0),
    Message('note_on', channel=0, note=40, velocity=0, time=0),
    Message('note_on', channel=0, note=64, velocity=60, time=1),
    Message('note_on', channel=0, note=59, velocity=60, time=0),
    Message('note_on', channel=0, note=55, velocity=60, time=0),
    Message('note_on', channel=0, note=52, velocity=60, time=0),
    Message('note_on', channel=0, note=47, velocity=60, time=0),
    Message('note_on', channel=0, note=40, velocity=60, time=0),
    Message('note_on', channel=0, note=64, velocity=0, time=29),
    Message('note_on', channel=0, note=59, velocity=0, time=0),
    Message('note_on', channel=0, note=55, velocity=0, time=0),
    Message('note_on', channel=0, note=52, velocity=0, time=0),
    Message('note_on', channel=0, note=47, velocity=0, time=0),
    Message('note_on', channel=0, note=40, velocity=0, time=0),
    Message('note_on', channel=0, note=64, velocity=60, time=1),
    Message('note_on', channel=0, note=59, velocity=60, time=0),
    Message('note_on', channel=0, note=55, velocity=60, time=0),
    Message('note_on', channel=0, note=52, velocity=60, time=0),
    Message('note_on', channel=0, note=47, velocity=60, time=0),
    Message('note_on', channel=0, note=40, velocity=60, time=0),
    Message('note_on', channel=0, note=64, velocity=0, time=29),
    Message('note_on', channel=0, note=59, velocity=0, time=0),
    Message('note_on', channel=0, note=55, velocity=0, time=0),
    Message('note_on', channel=0, note=52, velocity=0, time=0),
    Message('note_on', channel=0, note=47, velocity=0, time=0),
    Message('note_on', channel=0, note=40, velocity=0, time=0),
    Message('note_on', channel=0, note=64, velocity=60, time=1),
    Message('note_on', channel=0, note=59, velocity=60, time=0),
    Message('note_on', channel=0, note=55, velocity=60, time=0),
    Message('note_on', channel=0, note=52, velocity=60, time=0),
    Message('note_on', channel=0, note=47, velocity=60, time=0),
    Message('note_on', channel=0, note=40, velocity=60, time=0),
    Message('note_on', channel=0, note=64, velocity=0, time=59),
    Message('note_on', channel=0, note=59, velocity=0, time=0),
    Message('note_on', channel=0, note=55, velocity=0, time=0),
    Message('note_on', channel=0, note=52, velocity=0, time=0),
    Message('note_on', channel=0, note=47, velocity=0, time=0),
    Message('note_on', channel=0, note=40, velocity=0, time=0),
    Message('note_on', channel=0, note=42, velocity=60, time=1),
    Message('note_on', channel=0, note=49, velocity=60, time=0),
    Message('note_on', channel=0, note=54, velocity=60, time=0),
    Message('note_on', channel=0, note=58, velocity=60, time=0),
    Message('note_on', channel=0, note=61, velocity=60, time=0),
    Message('note_on', channel=0, note=66, velocity=60, time=0),
    Message('note_on', channel=0, note=42, velocity=0, time=59),
    Message('note_on', channel=0, note=49, velocity=0, time=0),
    Message('note_on', channel=0, note=54, velocity=0, time=0),
    Message('note_on', channel=0, note=58, velocity=0, time=0),
    Message('note_on', channel=0, note=61, velocity=0, time=0),
    Message('note_on', channel=0, note=66, velocity=0, time=0),
    Message('note_on', channel=0, note=66, velocity=60, time=1),
    Message('note_on', channel=0, note=61, velocity=60, time=0),
    Message('note_on', channel=0, note=58, velocity=60, time=0),
    Message('note_on', channel=0, note=54, velocity=60, time=0),
    Message('note_on', channel=0, note=49, velocity=60, time=0),
    Message('note_on', channel=0, note=42, velocity=60, time=0),
    Message('note_on', channel=0, note=66, velocity=0, time=29),
    Message('note_on', channel=0, note=61, velocity=0, time=0),
    Message('note_on', channel=0, note=58, velocity=0, time=0),
    Message('note_on', channel=0, note=54, velocity=0, time=0),
    Message('note_on', channel=0, note=49, velocity=0, time=0),
    Message('note_on', channel=0, note=42, velocity=0, time=0),
    Message('note_on', channel=0, note=66, velocity=60, time=1),
    Message('note_on', channel=0, note=61, velocity=60, time=0),
    Message('note_on', channel=0, note=58, velocity=60, time=0),
    Message('note_on', channel=0, note=54, velocity=60, time=0),
    Message('note_on', channel=0, note=49, velocity=60, time=0),
    Message('note_on', channel=0, note=42, velocity=60, time=0),
    Message('note_on', channel=0, note=66, velocity=0, time=29),
    Message('note_on', channel=0, note=61, velocity=0, time=0),
    Message('note_on', channel=0, note=58, velocity=0, time=0),
    Message('note_on', channel=0, note=54, velocity=0, time=0),
    Message('note_on', channel=0, note=49, velocity=0, time=0),
    Message('note_on', channel=0, note=42, velocity=0, time=0),
    Message('note_on', channel=0, note=66, velocity=60, time=1),
    Message('note_on', channel=0, note=61, velocity=60, time=0),
    Message('note_on', channel=0, note=58, velocity=60, time=0),
    Message('note_on', channel=0, note=54, velocity=60, time=0),
    Message('note_on', channel=0, note=49, velocity=60, time=0),
    Message('note_on', channel=0, note=42, velocity=60, time=0),
    Message('note_on', channel=0, note=66, velocity=0, time=29),
    Message('note_on', channel=0, note=61, velocity=0, time=0),
    Message('note_on', channel=0, note=58, velocity=0, time=0),
    Message('note_on', channel=0, note=54, velocity=0, time=0),
    Message('note_on', channel=0, note=49, velocity=0, time=0),
    Message('note_on', channel=0, note=42, velocity=0, time=0),
    Message('note_on', channel=0, note=66, velocity=60, time=1),
    Message('note_on', channel=0, note=61, velocity=60, time=0),
    Message('note_on', channel=0, note=58, velocity=60, time=0),
    Message('note_on', channel=0, note=54, velocity=60, time=0),
    Message('note_on', channel=0, note=49, velocity=60, time=0),
    Message('note_on', channel=0, note=42, velocity=60, time=0),
    Message('note_on', channel=0, note=66, velocity=0, time=59),
    Message('note_on', channel=0, note=61, velocity=0, time=0),
    Message('note_on', channel=0, note=58, velocity=0, time=0),
    Message('note_on', channel=0, note=54, velocity=0, time=0),
    Message('note_on', channel=0, note=49, velocity=0, time=0),
    Message('note_on', channel=0, note=42, velocity=0, time=0),
    Message('note_on', channel=0, note=66, velocity=60, time=1),
    Message('note_on', channel=0, note=61, velocity=60, time=0),
    Message('note_on', channel=0, note=58, velocity=60, time=0),
    Message('note_on', channel=0, note=54, velocity=60, time=0),
    Message('note_on', channel=0, note=49, velocity=60, time=0),
    Message('note_on', channel=0, note=42, velocity=60, time=0),
    Message('note_on', channel=0, note=66, velocity=0, time=29),
    Message('note_on', channel=0, note=61, velocity=0, time=0),
    Message('note_on', channel=0, note=58, velocity=0, time=0),
    Message('note_on', channel=0, note=54, velocity=0, time=0),
    Message('note_on', channel=0, note=49, velocity=0, time=0),
    Message('note_on', channel=0, note=42, velocity=0, time=0),
    Message('note_on', channel=0, note=66, velocity=60, time=1),
    Message('note_on', channel=0, note=61, velocity=60, time=0),
    Message('note_on', channel=0, note=58, velocity=60, time=0),
    Message('note_on', channel=0, note=54, velocity=60, time=0),
    Message('note_on', channel=0, note=49, velocity=60, time=0),
    Message('note_on', channel=0, note=42, velocity=60, time=0),
    Message('note_on', channel=0, note=66, velocity=0, time=239),
    Message('note_on', channel=0, note=61, velocity=0, time=0),
    Message('note_on', channel=0, note=58, velocity=0, time=0),
    Message('note_on', channel=0, note=54, velocity=0, time=0),
    Message('note_on', channel=0, note=49, velocity=0, time=0),
    Message('note_on', channel=0, note=42, velocity=0, time=0),
    Message('control_change', channel=0, control=7, value=90, time=1),
    Message('note_on', channel=0, note=59, velocity=60, time=0),
    Message('note_on', channel=0, note=55, velocity=60, time=0),
    Message('note_on', channel=0, note=50, velocity=60, time=0),
    Message('note_on', channel=0, note=59, velocity=0, time=239),
    Message('note_on', channel=0, note=55, velocity=0, time=0),
    Message('note_on', channel=0, note=50, velocity=0, time=0),
    Message('note_on', channel=0, note=59, velocity=60, time=1),
    Message('note_on', channel=0, note=55, velocity=60, time=0),
    Message('note_on', channel=0, note=50, velocity=60, time=0),
    Message('note_on', channel=0, note=59, velocity=0, time=239),
    Message('note_on', channel=0, note=55, velocity=0, time=0),
    Message('note_on', channel=0, note=50, velocity=0, time=0),
    Message('note_on', channel=0, note=50, velocity=60, time=1),
    Message('note_on', channel=0, note=54, velocity=60, time=0),
    Message('note_on', channel=0, note=57, velocity=60, time=0),
    Message('note_on', channel=0, note=50, velocity=0, time=239),
    Message('note_on', channel=0, note=54, velocity=0, time=0),
    Message('note_on', channel=0, note=57, velocity=0, time=0),
    Message('note_on', channel=0, note=57, velocity=60, time=1),
    Message('note_on', channel=0, note=54, velocity=60, time=0),
    Message('note_on', channel=0, note=50, velocity=60, time=0),
    Message('note_on', channel=0, note=57, velocity=0, time=239),
    Message('note_on', channel=0, note=54, velocity=0, time=0),
    Message('note_on', channel=0, note=50, velocity=0, time=0),
    Message('note_on', channel=0, note=49, velocity=60, time=1),
    Message('note_on', channel=0, note=54, velocity=60, time=0),
    Message('note_on', channel=0, note=58, velocity=60, time=0),
    Message('note_on', channel=0, note=49, velocity=0, time=239),
    Message('note_on', channel=0, note=54, velocity=0, time=0),
    Message('note_on', channel=0, note=58, velocity=0, time=0),
    Message('note_on', channel=0, note=58, velocity=60, time=1),
    Message('note_on', channel=0, note=54, velocity=60, time=0),
    Message('note_on', channel=0, note=49, velocity=60, time=0),
    Message('note_on', channel=0, note=58, velocity=0, time=239),
    Message('note_on', channel=0, note=54, velocity=0, time=0),
    Message('note_on', channel=0, note=49, velocity=0, time=0),
    Message('note_on', channel=0, note=50, velocity=60, time=1),
    Message('note_on', channel=0, note=54, velocity=60, time=0),
    Message('note_on', channel=0, note=59, velocity=60, time=0),
    Message('note_on', channel=0, note=50, velocity=0, time=239),
    Message('note_on', channel=0, note=54, velocity=0, time=0),
    Message('note_on', channel=0, note=59, velocity=0, time=0),
    Message('note_on', channel=0, note=59, velocity=60, time=1),
    Message('note_on', channel=0, note=54, velocity=60, time=0),
    Message('note_on', channel=0, note=50, velocity=60, time=0),
    Message('note_on', channel=0, note=59, velocity=0, time=239),
    Message('note_on', channel=0, note=54, velocity=0, time=0),
    Message('note_on', channel=0, note=50, velocity=0, time=0),
    Message('note_on', channel=0, note=59, velocity=60, time=1),
    Message('note_on', channel=0, note=55, velocity=60, time=0),
    Message('note_on', channel=0, note=50, velocity=60, time=0),
    Message('note_on', channel=0, note=59, velocity=0, time=239),
    Message('note_on', channel=0, note=55, velocity=0, time=0),
    Message('note_on', channel=0, note=50, velocity=0, time=0),
    Message('note_on', channel=0, note=59, velocity=60, time=1),
    Message('note_on', channel=0, note=55, velocity=60, time=0),
    Message('note_on', channel=0, note=50, velocity=60, time=0),
    Message('note_on', channel=0, note=59, velocity=0, time=239),
    Message('note_on', channel=0, note=55, velocity=0, time=0),
    Message('note_on', channel=0, note=50, velocity=0, time=0),
    Message('note_on', channel=0, note=50, velocity=60, time=1),
    Message('note_on', channel=0, note=54, velocity=60, time=0),
    Message('note_on', channel=0, note=57, velocity=60, time=0),
    Message('note_on', channel=0, note=50, velocity=0, time=239),
    Message('note_on', channel=0, note=54, velocity=0, time=0),
    Message('note_on', channel=0, note=57, velocity=0, time=0),
    Message('note_on', channel=0, note=57, velocity=60, time=1),
    Message('note_on', channel=0, note=54, velocity=60, time=0),
    Message('note_on', channel=0, note=50, velocity=60, time=0),
    Message('note_on', channel=0, note=57, velocity=0, time=239),
    Message('note_on', channel=0, note=54, velocity=0, time=0),
    Message('note_on', channel=0, note=50, velocity=0, time=0),
    Message('note_on', channel=0, note=52, velocity=60, time=1),
    Message('note_on', channel=0, note=55, velocity=60, time=0),
    Message('note_on', channel=0, note=59, velocity=60, time=0),
    Message('note_on', channel=0, note=52, velocity=0, time=239),
    Message('note_on', channel=0, note=55, velocity=0, time=0),
    Message('note_on', channel=0, note=59, velocity=0, time=0),
    Message('note_on', channel=0, note=59, velocity=60, time=1),
    Message('note_on', channel=0, note=55, velocity=60, time=0),
    Message('note_on', channel=0, note=52, velocity=60, time=0),
    Message('note_on', channel=0, note=59, velocity=0, time=239),
    Message('note_on', channel=0, note=55, velocity=0, time=0),
    Message('note_on', channel=0, note=52, velocity=0, time=0),
    Message('note_on', channel=0, note=49, velocity=60, time=1),
    Message('note_on', channel=0, note=54, velocity=60, time=0),
    Message('note_on', channel=0, note=58, velocity=60, time=0),
    Message('note_on', channel=0, note=49, velocity=0, time=479),
    Message('note_on', channel=0, note=54, velocity=0, time=0),
    Message('note_on', channel=0, note=58, velocity=0, time=0),
    Message('control_change', channel=0, control=7, value=80, time=1),
    Message('note_on', channel=0, note=54, velocity=60, time=0),
    Message('note_on', channel=0, note=47, velocity=60, time=0),
    Message('note_on', channel=0, note=42, velocity=60, time=0),
    Message('note_on', channel=0, note=59, velocity=60, time=0),
    Message('note_on', channel=0, note=62, velocity=60, time=0),
    Message('note_on', channel=0, note=66, velocity=60, time=0),
    Message('note_on', channel=0, note=54, velocity=0, time=59),
    Message('note_on', channel=0, note=47, velocity=0, time=0),
    Message('note_on', channel=0, note=42, velocity=0, time=0),
    Message('note_on', channel=0, note=59, velocity=0, time=0),
    Message('note_on', channel=0, note=62, velocity=0, time=0),
    Message('note_on', channel=0, note=66, velocity=0, time=0),
    Message('note_on', channel=0, note=66, velocity=60, time=1),
    Message('note_on', channel=0, note=59, velocity=60, time=0),
    Message('note_on', channel=0, note=62, velocity=60, time=0),
    Message('note_on', channel=0, note=54, velocity=60, time=0),
    Message('note_on', channel=0, note=47, velocity=60, time=0),
    Message('note_on', channel=0, note=42, velocity=60, time=0),
    Message('note_on', channel=0, note=66, velocity=0, time=29),
    Message('note_on', channel=0, note=59, velocity=0, time=0),
    Message('note_on', channel=0, note=62, velocity=0, time=0),
    Message('note_on', channel=0, note=54, velocity=0, time=0),
    Message('note_on', channel=0, note=47, velocity=0, time=0),
    Message('note_on', channel=0, note=42, velocity=0, time=0),
    Message('note_on', channel=0, note=66, velocity=60, time=1),
    Message('note_on', channel=0, note=59, velocity=60, time=0),
    Message('note_on', channel=0, note=62, velocity=60, time=0),
    Message('note_on', channel=0, note=54, velocity=60, time=0),
    Message('note_on', channel=0, note=47, velocity=60, time=0),
    Message('note_on', channel=0, note=42, velocity=60, time=0),
    Message('note_on', channel=0, note=66, velocity=0, time=29),
    Message('note_on', channel=0, note=59, velocity=0, time=0),
    Message('note_on', channel=0, note=62, velocity=0, time=0),
    Message('note_on', channel=0, note=54, velocity=0, time=0),
    Message('note_on', channel=0, note=47, velocity=0, time=0),
    Message('note_on', channel=0, note=42, velocity=0, time=0),
    Message('note_on', channel=0, note=66, velocity=60, time=1),
    Message('note_on', channel=0, note=62, velocity=60, time=0),
    Message('note_on', channel=0, note=59, velocity=60, time=0),
    Message('note_on', channel=0, note=54, velocity=60, time=0),
    Message('note_on', channel=0, note=47, velocity=60, time=0),
    Message('note_on', channel=0, note=42, velocity=60, time=0),
    Message('note_on', channel=0, note=66, velocity=0, time=59),
    Message('note_on', channel=0, note=62, velocity=0, time=0),
    Message('note_on', channel=0, note=59, velocity=0, time=0),
    Message('note_on', channel=0, note=54, velocity=0, time=0),
    Message('note_on', channel=0, note=47, velocity=0, time=0),
    Message('note_on', channel=0, note=42, velocity=0, time=0),
    Message('note_on', channel=0, note=66, velocity=60, time=1),
    Message('note_on', channel=0, note=62, velocity=60, time=0),
    Message('note_on', channel=0, note=59, velocity=60, time=0),
    Message('note_on', channel=0, note=54, velocity=60, time=0),
    Message('note_on', channel=0, note=47, velocity=60, time=0),
    Message('note_on', channel=0, note=42, velocity=60, time=0),
    Message('note_on', channel=0, note=66, velocity=0, time=29),
    Message('note_on', channel=0, note=62, velocity=0, time=0),
    Message('note_on', channel=0, note=59, velocity=0, time=0),
    Message('note_on', channel=0, note=54, velocity=0, time=0),
    Message('note_on', channel=0, note=47, velocity=0, time=0),
    Message('note_on', channel=0, note=42, velocity=0, time=0),
    Message('note_on', channel=0, note=66, velocity=60, time=1),
    Message('note_on', channel=0, note=62, velocity=60, time=0),
    Message('note_on', channel=0, note=59, velocity=60, time=0),
    Message('note_on', channel=0, note=54, velocity=60, time=0),
    Message('note_on', channel=0, note=47, velocity=60, time=0),
    Message('note_on', channel=0, note=42, velocity=60, time=0),
    Message('note_on', channel=0, note=66, velocity=0, time=29),
    Message('note_on', channel=0, note=62, velocity=0, time=0),
    Message('note_on', channel=0, note=59, velocity=0, time=0),
    Message('note_on', channel=0, note=54, velocity=0, time=0),
    Message('note_on', channel=0, note=47, velocity=0, time=0),
    Message('note_on', channel=0, note=42, velocity=0, time=0),
    Message('note_on', channel=0, note=66, velocity=60, time=1),
    Message('note_on', channel=0, note=62, velocity=60, time=0),
    Message('note_on', channel=0, note=59, velocity=60, time=0),
    Message('note_on', channel=0, note=54, velocity=60, time=0),
    Message('note_on', channel=0, note=47, velocity=60, time=0),
    Message('note_on', channel=0, note=42, velocity=60, time=0),
    Message('note_on', channel=0, note=66, velocity=0, time=29),
    Message('note_on', channel=0, note=62, velocity=0, time=0),
    Message('note_on', channel=0, note=59, velocity=0, time=0),
    Message('note_on', channel=0, note=54, velocity=0, time=0),
    Message('note_on', channel=0, note=47, velocity=0, time=0),
    Message('note_on', channel=0, note=42, velocity=0, time=0),
    Message('note_on', channel=0, note=66, velocity=60, time=1),
    Message('note_on', channel=0, note=62, velocity=60, time=0),
    Message('note_on', channel=0, note=59, velocity=60, time=0),
    Message('note_on', channel=0, note=54, velocity=60, time=0),
    Message('note_on', channel=0, note=47, velocity=60, time=0),
    Message('note_on', channel=0, note=42, velocity=60, time=0),
    Message('note_on', channel=0, note=66, velocity=0, time=29),
    Message('note_on', channel=0, note=62, velocity=0, time=0),
    Message('note_on', channel=0, note=59, velocity=0, time=0),
    Message('note_on', channel=0, note=54, velocity=0, time=0),
    Message('note_on', channel=0, note=47, velocity=0, time=0),
    Message('note_on', channel=0, note=42, velocity=0, time=0),
    Message('note_on', channel=0, note=66, velocity=60, time=1),
    Message('note_on', channel=0, note=62, velocity=60, time=0),
    Message('note_on', channel=0, note=59, velocity=60, time=0),
    Message('note_on', channel=0, note=54, velocity=60, time=0),
    Message('note_on', channel=0, note=47, velocity=60, time=0),
    Message('note_on', channel=0, note=42, velocity=60, time=0),
    Message('note_on', channel=0, note=66, velocity=0, time=29),
    Message('note_on', channel=0, note=62, velocity=0, time=0),
    Message('note_on', channel=0, note=59, velocity=0, time=0),
    Message('note_on', channel=0, note=54, velocity=0, time=0),
    Message('note_on', channel=0, note=47, velocity=0, time=0),
    Message('note_on', channel=0, note=42, velocity=0, time=0),
    Message('note_on', channel=0, note=66, velocity=60, time=1),
    Message('note_on', channel=0, note=62, velocity=60, time=0),
    Message('note_on', channel=0, note=59, velocity=60, time=0),
    Message('note_on', channel=0, note=54, velocity=60, time=0),
    Message('note_on', channel=0, note=47, velocity=60, time=0),
    Message('note_on', channel=0, note=42, velocity=60, time=0),
    Message('note_on', channel=0, note=66, velocity=0, time=59),
    Message('note_on', channel=0, note=62, velocity=0, time=0),
    Message('note_on', channel=0, note=59, velocity=0, time=0),
    Message('note_on', channel=0, note=54, velocity=0, time=0),
    Message('note_on', channel=0, note=47, velocity=0, time=0),
    Message('note_on', channel=0, note=42, velocity=0, time=0),
    Message('note_on', channel=0, note=66, velocity=60, time=1),
    Message('note_on', channel=0, note=62, velocity=60, time=0),
    Message('note_on', channel=0, note=59, velocity=60, time=0),
    Message('note_on', channel=0, note=54, velocity=60, time=0),
    Message('note_on', channel=0, note=47, velocity=60, time=0),
    Message('note_on', channel=0, note=42, velocity=60, time=0),
    Message('note_on', channel=0, note=66, velocity=0, time=29),
    Message('note_on', channel=0, note=62, velocity=0, time=0),
    Message('note_on', channel=0, note=59, velocity=0, time=0),
    Message('note_on', channel=0, note=54, velocity=0, time=0),
    Message('note_on', channel=0, note=47, velocity=0, time=0),
    Message('note_on', channel=0, note=42, velocity=0, time=0),
    Message('note_on', channel=0, note=66, velocity=60, time=1),
    Message('note_on', channel=0, note=62, velocity=60, time=0),
    Message('note_on', channel=0, note=59, velocity=60, time=0),
    Message('note_on', channel=0, note=54, velocity=60, time=0),
    Message('note_on', channel=0, note=47, velocity=60, time=0),
    Message('note_on', channel=0, note=42, velocity=60, time=0),
    Message('note_on', channel=0, note=66, velocity=0, time=59),
    Message('note_on', channel=0, note=62, velocity=0, time=0),
    Message('note_on', channel=0, note=59, velocity=0, time=0),
    Message('note_on', channel=0, note=54, velocity=0, time=0),
    Message('note_on', channel=0, note=47, velocity=0, time=0),
    Message('note_on', channel=0, note=42, velocity=0, time=0),
    Message('note_on', channel=0, note=42, velocity=60, time=1),
    Message('note_on', channel=0, note=49, velocity=60, time=0),
    Message('note_on', channel=0, note=54, velocity=60, time=0),
    Message('note_on', channel=0, note=58, velocity=60, time=0),
    Message('note_on', channel=0, note=61, velocity=60, time=0),
    Message('note_on', channel=0, note=66, velocity=60, time=0),
    Message('note_on', channel=0, note=42, velocity=0, time=59),
    Message('note_on', channel=0, note=49, velocity=0, time=0),
    Message('note_on', channel=0, note=54, velocity=0, time=0),
    Message('note_on', channel=0, note=58, velocity=0, time=0),
    Message('note_on', channel=0, note=61, velocity=0, time=0),
    Message('note_on', channel=0, note=66, velocity=0, time=0),
    Message('note_on', channel=0, note=66, velocity=60, time=1),
    Message('note_on', channel=0, note=61, velocity=60, time=0),
    Message('note_on', channel=0, note=58, velocity=60, time=0),
    Message('note_on', channel=0, note=54, velocity=60, time=0),
    Message('note_on', channel=0, note=49, velocity=60, time=0),
    Message('note_on', channel=0, note=42, velocity=60, time=0),
    Message('note_on', channel=0, note=66, velocity=0, time=29),
    Message('note_on', channel=0, note=61, velocity=0, time=0),
    Message('note_on', channel=0, note=58, velocity=0, time=0),
    Message('note_on', channel=0, note=54, velocity=0, time=0),
    Message('note_on', channel=0, note=49, velocity=0, time=0),
    Message('note_on', channel=0, note=42, velocity=0, time=0),
    Message('note_on', channel=0, note=66, velocity=60, time=1),
    Message('note_on', channel=0, note=61, velocity=60, time=0),
    Message('note_on', channel=0, note=58, velocity=60, time=0),
    Message('note_on', channel=0, note=54, velocity=60, time=0),
    Message('note_on', channel=0, note=49, velocity=60, time=0),
    Message('note_on', channel=0, note=42, velocity=60, time=0),
    Message('note_on', channel=0, note=66, velocity=0, time=29),
    Message('note_on', channel=0, note=61, velocity=0, time=0),
    Message('note_on', channel=0, note=58, velocity=0, time=0),
    Message('note_on', channel=0, note=54, velocity=0, time=0),
    Message('note_on', channel=0, note=49, velocity=0, time=0),
    Message('note_on', channel=0, note=42, velocity=0, time=0),
    Message('note_on', channel=0, note=66, velocity=60, time=1),
    Message('note_on', channel=0, note=58, velocity=60, time=0),
    Message('note_on', channel=0, note=61, velocity=60, time=0),
    Message('note_on', channel=0, note=54, velocity=60, time=0),
    Message('note_on', channel=0, note=49, velocity=60, time=0),
    Message('note_on', channel=0, note=42, velocity=60, time=0),
    Message('note_on', channel=0, note=66, velocity=0, time=59),
    Message('note_on', channel=0, note=58, velocity=0, time=0),
    Message('note_on', channel=0, note=61, velocity=0, time=0),
    Message('note_on', channel=0, note=54, velocity=0, time=0),
    Message('note_on', channel=0, note=49, velocity=0, time=0),
    Message('note_on', channel=0, note=42, velocity=0, time=0),
    Message('note_on', channel=0, note=66, velocity=60, time=1),
    Message('note_on', channel=0, note=61, velocity=60, time=0),
    Message('note_on', channel=0, note=58, velocity=60, time=0),
    Message('note_on', channel=0, note=54, velocity=60, time=0),
    Message('note_on', channel=0, note=49, velocity=60, time=0),
    Message('note_on', channel=0, note=42, velocity=60, time=0),
    Message('note_on', channel=0, note=66, velocity=0, time=29),
    Message('note_on', channel=0, note=61, velocity=0, time=0),
    Message('note_on', channel=0, note=58, velocity=0, time=0),
    Message('note_on', channel=0, note=54, velocity=0, time=0),
    Message('note_on', channel=0, note=49, velocity=0, time=0),
    Message('note_on', channel=0, note=42, velocity=0, time=0),
    Message('note_on', channel=0, note=66, velocity=60, time=1),
    Message('note_on', channel=0, note=61, velocity=60, time=0),
    Message('note_on', channel=0, note=58, velocity=60, time=0),
    Message('note_on', channel=0, note=54, velocity=60, time=0),
    Message('note_on', channel=0, note=49, velocity=60, time=0),
    Message('note_on', channel=0, note=42, velocity=60, time=0),
    Message('note_on', channel=0, note=66, velocity=0, time=29),
    Message('note_on', channel=0, note=61, velocity=0, time=0),
    Message('note_on', channel=0, note=58, velocity=0, time=0),
    Message('note_on', channel=0, note=54, velocity=0, time=0),
    Message('note_on', channel=0, note=49, velocity=0, time=0),
    Message('note_on', channel=0, note=42, velocity=0, time=0),
    Message('note_on', channel=0, note=66, velocity=60, time=1),
    Message('note_on', channel=0, note=61, velocity=60, time=0),
    Message('note_on', channel=0, note=58, velocity=60, time=0),
    Message('note_on', channel=0, note=54, velocity=60, time=0),
    Message('note_on', channel=0, note=49, velocity=60, time=0),
    Message('note_on', channel=0, note=42, velocity=60, time=0),
    Message('note_on', channel=0, note=66, velocity=0, time=179),
    Message('note_on', channel=0, note=61, velocity=0, time=0),
    Message('note_on', channel=0, note=58, velocity=0, time=0),
    Message('note_on', channel=0, note=54, velocity=0, time=0),
    Message('note_on', channel=0, note=49, velocity=0, time=0),
    Message('note_on', channel=0, note=42, velocity=0, time=0),
    Message('note_on', channel=0, note=66, velocity=60, time=1),
    Message('note_on', channel=0, note=61, velocity=60, time=0),
    Message('note_on', channel=0, note=58, velocity=60, time=0),
    Message('note_on', channel=0, note=54, velocity=60, time=0),
    Message('note_on', channel=0, note=49, velocity=60, time=0),
    Message('note_on', channel=0, note=42, velocity=60, time=0),
    Message('note_on', channel=0, note=66, velocity=0, time=29),
    Message('note_on', channel=0, note=61, velocity=0, time=0),
    Message('note_on', channel=0, note=58, velocity=0, time=0),
    Message('note_on', channel=0, note=54, velocity=0, time=0),
    Message('note_on', channel=0, note=49, velocity=0, time=0),
    Message('note_on', channel=0, note=42, velocity=0, time=0),
    Message('note_on', channel=0, note=66, velocity=60, time=1),
    Message('note_on', channel=0, note=61, velocity=60, time=0),
    Message('note_on', channel=0, note=58, velocity=60, time=0),
    Message('note_on', channel=0, note=54, velocity=60, time=0),
    Message('note_on', channel=0, note=49, velocity=60, time=0),
    Message('note_on', channel=0, note=42, velocity=60, time=0),
    Message('note_on', channel=0, note=66, velocity=0, time=29),
    Message('note_on', channel=0, note=61, velocity=0, time=0),
    Message('note_on', channel=0, note=58, velocity=0, time=0),
    Message('note_on', channel=0, note=54, velocity=0, time=0),
    Message('note_on', channel=0, note=49, velocity=0, time=0),
    Message('note_on', channel=0, note=42, velocity=0, time=0),
    Message('note_on', channel=0, note=40, velocity=60, time=1),
    Message('note_on', channel=0, note=45, velocity=60, time=0),
    Message('note_on', channel=0, note=52, velocity=60, time=0),
    Message('note_on', channel=0, note=57, velocity=60, time=0),
    Message('note_on', channel=0, note=61, velocity=60, time=0),
    Message('note_on', channel=0, note=64, velocity=60, time=0),
    Message('note_on', channel=0, note=40, velocity=0, time=59),
    Message('note_on', channel=0, note=45, velocity=0, time=0),
    Message('note_on', channel=0, note=52, velocity=0, time=0),
    Message('note_on', channel=0, note=57, velocity=0, time=0),
    Message('note_on', channel=0, note=61, velocity=0, time=0),
    Message('note_on', channel=0, note=64, velocity=0, time=0),
    Message('note_on', channel=0, note=64, velocity=60, time=1),
    Message('note_on', channel=0, note=61, velocity=60, time=0),
    Message('note_on', channel=0, note=57, velocity=60, time=0),
    Message('note_on', channel=0, note=52, velocity=60, time=0),
    Message('note_on', channel=0, note=45, velocity=60, time=0),
    Message('note_on', channel=0, note=40, velocity=60, time=0),
    Message('note_on', channel=0, note=64, velocity=0, time=29),
    Message('note_on', channel=0, note=61, velocity=0, time=0),
    Message('note_on', channel=0, note=57, velocity=0, time=0),
    Message('note_on', channel=0, note=52, velocity=0, time=0),
    Message('note_on', channel=0, note=45, velocity=0, time=0),
    Message('note_on', channel=0, note=40, velocity=0, time=0),
    Message('note_on', channel=0, note=64, velocity=60, time=1),
    Message('note_on', channel=0, note=61, velocity=60, time=0),
    Message('note_on', channel=0, note=57, velocity=60, time=0),
    Message('note_on', channel=0, note=52, velocity=60, time=0),
    Message('note_on', channel=0, note=45, velocity=60, time=0),
    Message('note_on', channel=0, note=40, velocity=60, time=0),
    Message('note_on', channel=0, note=64, velocity=0, time=29),
    Message('note_on', channel=0, note=61, velocity=0, time=0),
    Message('note_on', channel=0, note=57, velocity=0, time=0),
    Message('note_on', channel=0, note=52, velocity=0, time=0),
    Message('note_on', channel=0, note=45, velocity=0, time=0),
    Message('note_on', channel=0, note=40, velocity=0, time=0),
    Message('note_on', channel=0, note=64, velocity=60, time=1),
    Message('note_on', channel=0, note=61, velocity=60, time=0),
    Message('note_on', channel=0, note=57, velocity=60, time=0),
    Message('note_on', channel=0, note=52, velocity=60, time=0),
    Message('note_on', channel=0, note=45, velocity=60, time=0),
    Message('note_on', channel=0, note=40, velocity=60, time=0),
    Message('note_on', channel=0, note=64, velocity=0, time=59),
    Message('note_on', channel=0, note=61, velocity=0, time=0),
    Message('note_on', channel=0, note=57, velocity=0, time=0),
    Message('note_on', channel=0, note=52, velocity=0, time=0),
    Message('note_on', channel=0, note=45, velocity=0, time=0),
    Message('note_on', channel=0, note=40, velocity=0, time=0),
    Message('note_on', channel=0, note=64, velocity=60, time=1),
    Message('note_on', channel=0, note=61, velocity=60, time=0),
    Message('note_on', channel=0, note=57, velocity=60, time=0),
    Message('note_on', channel=0, note=52, velocity=60, time=0),
    Message('note_on', channel=0, note=45, velocity=60, time=0),
    Message('note_on', channel=0, note=40, velocity=60, time=0),
    Message('note_on', channel=0, note=64, velocity=0, time=29),
    Message('note_on', channel=0, note=61, velocity=0, time=0),
    Message('note_on', channel=0, note=57, velocity=0, time=0),
    Message('note_on', channel=0, note=52, velocity=0, time=0),
    Message('note_on', channel=0, note=45, velocity=0, time=0),
    Message('note_on', channel=0, note=40, velocity=0, time=0),
    Message('note_on', channel=0, note=64, velocity=60, time=1),
    Message('note_on', channel=0, note=61, velocity=60, time=0),
    Message('note_on', channel=0, note=57, velocity=60, time=0),
    Message('note_on', channel=0, note=52, velocity=60, time=0),
    Message('note_on', channel=0, note=45, velocity=60, time=0),
    Message('note_on', channel=0, note=40, velocity=60, time=0),
    Message('note_on', channel=0, note=64, velocity=0, time=29),
    Message('note_on', channel=0, note=61, velocity=0, time=0),
    Message('note_on', channel=0, note=57, velocity=0, time=0),
    Message('note_on', channel=0, note=52, velocity=0, time=0),
    Message('note_on', channel=0, note=45, velocity=0, time=0),
    Message('note_on', channel=0, note=40, velocity=0, time=0),
    Message('note_on', channel=0, note=64, velocity=60, time=1),
    Message('note_on', channel=0, note=61, velocity=60, time=0),
    Message('note_on', channel=0, note=57, velocity=60, time=0),
    Message('note_on', channel=0, note=52, velocity=60, time=0),
    Message('note_on', channel=0, note=45, velocity=60, time=0),
    Message('note_on', channel=0, note=40, velocity=60, time=0),
    Message('note_on', channel=0, note=64, velocity=0, time=29),
    Message('note_on', channel=0, note=61, velocity=0, time=0),
    Message('note_on', channel=0, note=57, velocity=0, time=0),
    Message('note_on', channel=0, note=52, velocity=0, time=0),
    Message('note_on', channel=0, note=45, velocity=0, time=0),
    Message('note_on', channel=0, note=40, velocity=0, time=0),
    Message('note_on', channel=0, note=64, velocity=60, time=1),
    Message('note_on', channel=0, note=61, velocity=60, time=0),
    Message('note_on', channel=0, note=57, velocity=60, time=0),
    Message('note_on', channel=0, note=52, velocity=60, time=0),
    Message('note_on', channel=0, note=45, velocity=60, time=0),
    Message('note_on', channel=0, note=40, velocity=60, time=0),
    Message('note_on', channel=0, note=64, velocity=0, time=29),
    Message('note_on', channel=0, note=61, velocity=0, time=0),
    Message('note_on', channel=0, note=57, velocity=0, time=0),
    Message('note_on', channel=0, note=52, velocity=0, time=0),
    Message('note_on', channel=0, note=45, velocity=0, time=0),
    Message('note_on', channel=0, note=40, velocity=0, time=0),
    Message('note_on', channel=0, note=64, velocity=60, time=1),
    Message('note_on', channel=0, note=61, velocity=60, time=0),
    Message('note_on', channel=0, note=57, velocity=60, time=0),
    Message('note_on', channel=0, note=52, velocity=60, time=0),
    Message('note_on', channel=0, note=45, velocity=60, time=0),
    Message('note_on', channel=0, note=40, velocity=60, time=0),
    Message('note_on', channel=0, note=64, velocity=0, time=29),
    Message('note_on', channel=0, note=61, velocity=0, time=0),
    Message('note_on', channel=0, note=57, velocity=0, time=0),
    Message('note_on', channel=0, note=52, velocity=0, time=0),
    Message('note_on', channel=0, note=45, velocity=0, time=0),
    Message('note_on', channel=0, note=40, velocity=0, time=0),
    Message('note_on', channel=0, note=64, velocity=60, time=1),
    Message('note_on', channel=0, note=61, velocity=60, time=0),
    Message('note_on', channel=0, note=57, velocity=60, time=0),
    Message('note_on', channel=0, note=52, velocity=60, time=0),
    Message('note_on', channel=0, note=45, velocity=60, time=0),
    Message('note_on', channel=0, note=40, velocity=60, time=0),
    Message('note_on', channel=0, note=64, velocity=0, time=59),
    Message('note_on', channel=0, note=61, velocity=0, time=0),
    Message('note_on', channel=0, note=57, velocity=0, time=0),
    Message('note_on', channel=0, note=52, velocity=0, time=0),
    Message('note_on', channel=0, note=45, velocity=0, time=0),
    Message('note_on', channel=0, note=40, velocity=0, time=0),
    Message('note_on', channel=0, note=64, velocity=60, time=1),
    Message('note_on', channel=0, note=61, velocity=60, time=0),
    Message('note_on', channel=0, note=57, velocity=60, time=0),
    Message('note_on', channel=0, note=52, velocity=60, time=0),
    Message('note_on', channel=0, note=45, velocity=60, time=0),
    Message('note_on', channel=0, note=40, velocity=60, time=0),
    Message('note_on', channel=0, note=64, velocity=0, time=29),
    Message('note_on', channel=0, note=61, velocity=0, time=0),
    Message('note_on', channel=0, note=57, velocity=0, time=0),
    Message('note_on', channel=0, note=52, velocity=0, time=0),
    Message('note_on', channel=0, note=45, velocity=0, time=0),
    Message('note_on', channel=0, note=40, velocity=0, time=0),
    Message('note_on', channel=0, note=64, velocity=60, time=1),
    Message('note_on', channel=0, note=61, velocity=60, time=0),
    Message('note_on', channel=0, note=57, velocity=60, time=0),
    Message('note_on', channel=0, note=52, velocity=60, time=0),
    Message('note_on', channel=0, note=45, velocity=60, time=0),
    Message('note_on', channel=0, note=40, velocity=60, time=0),
    Message('note_on', channel=0, note=64, velocity=0, time=59),
    Message('note_on', channel=0, note=61, velocity=0, time=0),
    Message('note_on', channel=0, note=57, velocity=0, time=0),
    Message('note_on', channel=0, note=52, velocity=0, time=0),
    Message('note_on', channel=0, note=45, velocity=0, time=0),
    Message('note_on', channel=0, note=40, velocity=0, time=0),
    Message('note_on', channel=0, note=40, velocity=60, time=1),
    Message('note_on', channel=0, note=47, velocity=60, time=0),
    Message('note_on', channel=0, note=52, velocity=60, time=0),
    Message('note_on', channel=0, note=56, velocity=60, time=0),
    Message('note_on', channel=0, note=59, velocity=60, time=0),
    Message('note_on', channel=0, note=64, velocity=60, time=0),
    Message('note_on', channel=0, note=40, velocity=0, time=59),
    Message('note_on', channel=0, note=47, velocity=0, time=0),
    Message('note_on', channel=0, note=52, velocity=0, time=0),
    Message('note_on', channel=0, note=56, velocity=0, time=0),
    Message('note_on', channel=0, note=59, velocity=0, time=0),
    Message('note_on', channel=0, note=64, velocity=0, time=0),
    Message('note_on', channel=0, note=64, velocity=60, time=1),
    Message('note_on', channel=0, note=59, velocity=60, time=0),
    Message('note_on', channel=0, note=56, velocity=60, time=0),
    Message('note_on', channel=0, note=52, velocity=60, time=0),
    Message('note_on', channel=0, note=47, velocity=60, time=0),
    Message('note_on', channel=0, note=40, velocity=60, time=0),
    Message('note_on', channel=0, note=64, velocity=0, time=29),
    Message('note_on', channel=0, note=59, velocity=0, time=0),
    Message('note_on', channel=0, note=56, velocity=0, time=0),
    Message('note_on', channel=0, note=52, velocity=0, time=0),
    Message('note_on', channel=0, note=47, velocity=0, time=0),
    Message('note_on', channel=0, note=40, velocity=0, time=0),
    Message('note_on', channel=0, note=64, velocity=60, time=1),
    Message('note_on', channel=0, note=59, velocity=60, time=0),
    Message('note_on', channel=0, note=56, velocity=60, time=0),
    Message('note_on', channel=0, note=52, velocity=60, time=0),
    Message('note_on', channel=0, note=47, velocity=60, time=0),
    Message('note_on', channel=0, note=40, velocity=60, time=0),
    Message('note_on', channel=0, note=64, velocity=0, time=29),
    Message('note_on', channel=0, note=59, velocity=0, time=0),
    Message('note_on', channel=0, note=56, velocity=0, time=0),
    Message('note_on', channel=0, note=52, velocity=0, time=0),
    Message('note_on', channel=0, note=47, velocity=0, time=0),
    Message('note_on', channel=0, note=40, velocity=0, time=0),
    Message('note_on', channel=0, note=64, velocity=60, time=1),
    Message('note_on', channel=0, note=59, velocity=60, time=0),
    Message('note_on', channel=0, note=56, velocity=60, time=0),
    Message('note_on', channel=0, note=52, velocity=60, time=0),
    Message('note_on', channel=0, note=47, velocity=60, time=0),
    Message('note_on', channel=0, note=40, velocity=60, time=0),
    Message('note_on', channel=0, note=64, velocity=0, time=59),
    Message('note_on', channel=0, note=59, velocity=0, time=0),
    Message('note_on', channel=0, note=56, velocity=0, time=0),
    Message('note_on', channel=0, note=52, velocity=0, time=0),
    Message('note_on', channel=0, note=47, velocity=0, time=0),
    Message('note_on', channel=0, note=40, velocity=0, time=0),
    Message('note_on', channel=0, note=64, velocity=60, time=1),
    Message('note_on', channel=0, note=59, velocity=60, time=0),
    Message('note_on', channel=0, note=56, velocity=60, time=0),
    Message('note_on', channel=0, note=52, velocity=60, time=0),
    Message('note_on', channel=0, note=47, velocity=60, time=0),
    Message('note_on', channel=0, note=40, velocity=60, time=0),
    Message('note_on', channel=0, note=64, velocity=0, time=29),
    Message('note_on', channel=0, note=59, velocity=0, time=0),
    Message('note_on', channel=0, note=56, velocity=0, time=0),
    Message('note_on', channel=0, note=52, velocity=0, time=0),
    Message('note_on', channel=0, note=47, velocity=0, time=0),
    Message('note_on', channel=0, note=40, velocity=0, time=0),
    Message('note_on', channel=0, note=64, velocity=60, time=1),
    Message('note_on', channel=0, note=59, velocity=60, time=0),
    Message('note_on', channel=0, note=56, velocity=60, time=0),
    Message('note_on', channel=0, note=52, velocity=60, time=0),
    Message('note_on', channel=0, note=47, velocity=60, time=0),
    Message('note_on', channel=0, note=40, velocity=60, time=0),
    Message('note_on', channel=0, note=64, velocity=0, time=29),
    Message('note_on', channel=0, note=59, velocity=0, time=0),
    Message('note_on', channel=0, note=56, velocity=0, time=0),
    Message('note_on', channel=0, note=52, velocity=0, time=0),
    Message('note_on', channel=0, note=47, velocity=0, time=0),
    Message('note_on', channel=0, note=40, velocity=0, time=0),
    Message('note_on', channel=0, note=64, velocity=60, time=1),
    Message('note_on', channel=0, note=59, velocity=60, time=0),
    Message('note_on', channel=0, note=56, velocity=60, time=0),
    Message('note_on', channel=0, note=52, velocity=60, time=0),
    Message('note_on', channel=0, note=47, velocity=60, time=0),
    Message('note_on', channel=0, note=40, velocity=60, time=0),
    Message('note_on', channel=0, note=64, velocity=0, time=239),
    Message('note_on', channel=0, note=59, velocity=0, time=0),
    Message('note_on', channel=0, note=56, velocity=0, time=0),
    Message('note_on', channel=0, note=52, velocity=0, time=0),
    Message('note_on', channel=0, note=47, velocity=0, time=0),
    Message('note_on', channel=0, note=40, velocity=0, time=0),
    Message('note_on', channel=0, note=43, velocity=60, time=1),
    Message('note_on', channel=0, note=50, velocity=60, time=0),
    Message('note_on', channel=0, note=55, velocity=60, time=0),
    Message('note_on', channel=0, note=59, velocity=60, time=0),
    Message('note_on', channel=0, note=62, velocity=60, time=0),
    Message('note_on', channel=0, note=67, velocity=60, time=0),
    Message('note_on', channel=0, note=43, velocity=0, time=59),
    Message('note_on', channel=0, note=50, velocity=0, time=0),
    Message('note_on', channel=0, note=55, velocity=0, time=0),
    Message('note_on', channel=0, note=59, velocity=0, time=0),
    Message('note_on', channel=0, note=62, velocity=0, time=0),
    Message('note_on', channel=0, note=67, velocity=0, time=0),
    Message('note_on', channel=0, note=67, velocity=60, time=1),
    Message('note_on', channel=0, note=62, velocity=60, time=0),
    Message('note_on', channel=0, note=59, velocity=60, time=0),
    Message('note_on', channel=0, note=55, velocity=60, time=0),
    Message('note_on', channel=0, note=50, velocity=60, time=0),
    Message('note_on', channel=0, note=43, velocity=60, time=0),
    Message('note_on', channel=0, note=67, velocity=0, time=29),
    Message('note_on', channel=0, note=62, velocity=0, time=0),
    Message('note_on', channel=0, note=59, velocity=0, time=0),
    Message('note_on', channel=0, note=55, velocity=0, time=0),
    Message('note_on', channel=0, note=50, velocity=0, time=0),
    Message('note_on', channel=0, note=43, velocity=0, time=0),
    Message('note_on', channel=0, note=67, velocity=60, time=1),
    Message('note_on', channel=0, note=62, velocity=60, time=0),
    Message('note_on', channel=0, note=59, velocity=60, time=0),
    Message('note_on', channel=0, note=55, velocity=60, time=0),
    Message('note_on', channel=0, note=50, velocity=60, time=0),
    Message('note_on', channel=0, note=43, velocity=60, time=0),
    Message('note_on', channel=0, note=67, velocity=0, time=29),
    Message('note_on', channel=0, note=62, velocity=0, time=0),
    Message('note_on', channel=0, note=59, velocity=0, time=0),
    Message('note_on', channel=0, note=55, velocity=0, time=0),
    Message('note_on', channel=0, note=50, velocity=0, time=0),
    Message('note_on', channel=0, note=43, velocity=0, time=0),
    Message('note_on', channel=0, note=67, velocity=60, time=1),
    Message('note_on', channel=0, note=62, velocity=60, time=0),
    Message('note_on', channel=0, note=59, velocity=60, time=0),
    Message('note_on', channel=0, note=55, velocity=60, time=0),
    Message('note_on', channel=0, note=50, velocity=60, time=0),
    Message('note_on', channel=0, note=43, velocity=60, time=0),
    Message('note_on', channel=0, note=67, velocity=0, time=59),
    Message('note_on', channel=0, note=62, velocity=0, time=0),
    Message('note_on', channel=0, note=59, velocity=0, time=0),
    Message('note_on', channel=0, note=55, velocity=0, time=0),
    Message('note_on', channel=0, note=50, velocity=0, time=0),
    Message('note_on', channel=0, note=43, velocity=0, time=0),
    Message('note_on', channel=0, note=67, velocity=60, time=1),
    Message('note_on', channel=0, note=62, velocity=60, time=0),
    Message('note_on', channel=0, note=59, velocity=60, time=0),
    Message('note_on', channel=0, note=55, velocity=60, time=0),
    Message('note_on', channel=0, note=50, velocity=60, time=0),
    Message('note_on', channel=0, note=43, velocity=60, time=0),
    Message('note_on', channel=0, note=67, velocity=0, time=29),
    Message('note_on', channel=0, note=62, velocity=0, time=0),
    Message('note_on', channel=0, note=59, velocity=0, time=0),
    Message('note_on', channel=0, note=55, velocity=0, time=0),
    Message('note_on', channel=0, note=50, velocity=0, time=0),
    Message('note_on', channel=0, note=43, velocity=0, time=0),
    Message('note_on', channel=0, note=67, velocity=60, time=1),
    Message('note_on', channel=0, note=62, velocity=60, time=0),
    Message('note_on', channel=0, note=59, velocity=60, time=0),
    Message('note_on', channel=0, note=55, velocity=60, time=0),
    Message('note_on', channel=0, note=50, velocity=60, time=0),
    Message('note_on', channel=0, note=43, velocity=60, time=0),
    Message('note_on', channel=0, note=67, velocity=0, time=29),
    Message('note_on', channel=0, note=62, velocity=0, time=0),
    Message('note_on', channel=0, note=59, velocity=0, time=0),
    Message('note_on', channel=0, note=55, velocity=0, time=0),
    Message('note_on', channel=0, note=50, velocity=0, time=0),
    Message('note_on', channel=0, note=43, velocity=0, time=0),
    Message('note_on', channel=0, note=67, velocity=60, time=1),
    Message('note_on', channel=0, note=62, velocity=60, time=0),
    Message('note_on', channel=0, note=59, velocity=60, time=0),
    Message('note_on', channel=0, note=55, velocity=60, time=0),
    Message('note_on', channel=0, note=50, velocity=60, time=0),
    Message('note_on', channel=0, note=43, velocity=60, time=0),
    Message('note_on', channel=0, note=67, velocity=0, time=29),
    Message('note_on', channel=0, note=62, velocity=0, time=0),
    Message('note_on', channel=0, note=59, velocity=0, time=0),
    Message('note_on', channel=0, note=55, velocity=0, time=0),
    Message('note_on', channel=0, note=50, velocity=0, time=0),
    Message('note_on', channel=0, note=43, velocity=0, time=0),
    Message('note_on', channel=0, note=67, velocity=60, time=1),
    Message('note_on', channel=0, note=62, velocity=60, time=0),
    Message('note_on', channel=0, note=59, velocity=60, time=0),
    Message('note_on', channel=0, note=55, velocity=60, time=0),
    Message('note_on', channel=0, note=50, velocity=60, time=0),
    Message('note_on', channel=0, note=43, velocity=60, time=0),
    Message('note_on', channel=0, note=67, velocity=0, time=29),
    Message('note_on', channel=0, note=62, velocity=0, time=0),
    Message('note_on', channel=0, note=59, velocity=0, time=0),
    Message('note_on', channel=0, note=55, velocity=0, time=0),
    Message('note_on', channel=0, note=50, velocity=0, time=0),
    Message('note_on', channel=0, note=43, velocity=0, time=0),
    Message('note_on', channel=0, note=67, velocity=60, time=1),
    Message('note_on', channel=0, note=62, velocity=60, time=0),
    Message('note_on', channel=0, note=59, velocity=60, time=0),
    Message('note_on', channel=0, note=55, velocity=60, time=0),
    Message('note_on', channel=0, note=50, velocity=60, time=0),
    Message('note_on', channel=0, note=43, velocity=60, time=0),
    Message('note_on', channel=0, note=67, velocity=0, time=29),
    Message('note_on', channel=0, note=62, velocity=0, time=0),
    Message('note_on', channel=0, note=59, velocity=0, time=0),
    Message('note_on', channel=0, note=55, velocity=0, time=0),
    Message('note_on', channel=0, note=50, velocity=0, time=0),
    Message('note_on', channel=0, note=43, velocity=0, time=0),
    Message('note_on', channel=0, note=67, velocity=60, time=1),
    Message('note_on', channel=0, note=62, velocity=60, time=0),
    Message('note_on', channel=0, note=59, velocity=60, time=0),
    Message('note_on', channel=0, note=55, velocity=60, time=0),
    Message('note_on', channel=0, note=50, velocity=60, time=0),
    Message('note_on', channel=0, note=43, velocity=60, time=0),
    Message('note_on', channel=0, note=67, velocity=0, time=59),
    Message('note_on', channel=0, note=62, velocity=0, time=0),
    Message('note_on', channel=0, note=59, velocity=0, time=0),
    Message('note_on', channel=0, note=55, velocity=0, time=0),
    Message('note_on', channel=0, note=50, velocity=0, time=0),
    Message('note_on', channel=0, note=43, velocity=0, time=0),
    Message('note_on', channel=0, note=67, velocity=60, time=1),
    Message('note_on', channel=0, note=62, velocity=60, time=0),
    Message('note_on', channel=0, note=59, velocity=60, time=0),
    Message('note_on', channel=0, note=55, velocity=60, time=0),
    Message('note_on', channel=0, note=50, velocity=60, time=0),
    Message('note_on', channel=0, note=43, velocity=60, time=0),
    Message('note_on', channel=0, note=67, velocity=0, time=29),
    Message('note_on', channel=0, note=62, velocity=0, time=0),
    Message('note_on', channel=0, note=59, velocity=0, time=0),
    Message('note_on', channel=0, note=55, velocity=0, time=0),
    Message('note_on', channel=0, note=50, velocity=0, time=0),
    Message('note_on', channel=0, note=43, velocity=0, time=0),
    Message('note_on', channel=0, note=67, velocity=60, time=1),
    Message('note_on', channel=0, note=62, velocity=60, time=0),
    Message('note_on', channel=0, note=59, velocity=60, time=0),
    Message('note_on', channel=0, note=55, velocity=60, time=0),
    Message('note_on', channel=0, note=50, velocity=60, time=0),
    Message('note_on', channel=0, note=43, velocity=60, time=0),
    Message('note_on', channel=0, note=67, velocity=0, time=59),
    Message('note_on', channel=0, note=62, velocity=0, time=0),
    Message('note_on', channel=0, note=59, velocity=0, time=0),
    Message('note_on', channel=0, note=55, velocity=0, time=0),
    Message('note_on', channel=0, note=50, velocity=0, time=0),
    Message('note_on', channel=0, note=43, velocity=0, time=0),
    Message('note_on', channel=0, note=45, velocity=60, time=1),
    Message('note_on', channel=0, note=50, velocity=60, time=0),
    Message('note_on', channel=0, note=57, velocity=60, time=0),
    Message('note_on', channel=0, note=62, velocity=60, time=0),
    Message('note_on', channel=0, note=66, velocity=60, time=0),
    Message('note_on', channel=0, note=69, velocity=60, time=0),
    Message('note_on', channel=0, note=45, velocity=0, time=59),
    Message('note_on', channel=0, note=50, velocity=0, time=0),
    Message('note_on', channel=0, note=57, velocity=0, time=0),
    Message('note_on', channel=0, note=62, velocity=0, time=0),
    Message('note_on', channel=0, note=66, velocity=0, time=0),
    Message('note_on', channel=0, note=69, velocity=0, time=0),
    Message('note_on', channel=0, note=69, velocity=60, time=1),
    Message('note_on', channel=0, note=66, velocity=60, time=0),
    Message('note_on', channel=0, note=62, velocity=60, time=0),
    Message('note_on', channel=0, note=57, velocity=60, time=0),
    Message('note_on', channel=0, note=50, velocity=60, time=0),
    Message('note_on', channel=0, note=45, velocity=60, time=0),
    Message('note_on', channel=0, note=69, velocity=0, time=29),
    Message('note_on', channel=0, note=66, velocity=0, time=0),
    Message('note_on', channel=0, note=62, velocity=0, time=0),
    Message('note_on', channel=0, note=57, velocity=0, time=0),
    Message('note_on', channel=0, note=50, velocity=0, time=0),
    Message('note_on', channel=0, note=45, velocity=0, time=0),
    Message('note_on', channel=0, note=69, velocity=60, time=1),
    Message('note_on', channel=0, note=66, velocity=60, time=0),
    Message('note_on', channel=0, note=62, velocity=60, time=0),
    Message('note_on', channel=0, note=57, velocity=60, time=0),
    Message('note_on', channel=0, note=50, velocity=60, time=0),
    Message('note_on', channel=0, note=45, velocity=60, time=0),
    Message('note_on', channel=0, note=69, velocity=0, time=29),
    Message('note_on', channel=0, note=66, velocity=0, time=0),
    Message('note_on', channel=0, note=62, velocity=0, time=0),
    Message('note_on', channel=0, note=57, velocity=0, time=0),
    Message('note_on', channel=0, note=50, velocity=0, time=0),
    Message('note_on', channel=0, note=45, velocity=0, time=0),
    Message('note_on', channel=0, note=69, velocity=60, time=1),
    Message('note_on', channel=0, note=66, velocity=60, time=0),
    Message('note_on', channel=0, note=62, velocity=60, time=0),
    Message('note_on', channel=0, note=57, velocity=60, time=0),
    Message('note_on', channel=0, note=50, velocity=60, time=0),
    Message('note_on', channel=0, note=45, velocity=60, time=0),
    Message('note_on', channel=0, note=69, velocity=0, time=29),
    Message('note_on', channel=0, note=66, velocity=0, time=0),
    Message('note_on', channel=0, note=62, velocity=0, time=0),
    Message('note_on', channel=0, note=57, velocity=0, time=0),
    Message('note_on', channel=0, note=50, velocity=0, time=0),
    Message('note_on', channel=0, note=45, velocity=0, time=0),
    Message('note_on', channel=0, note=69, velocity=60, time=1),
    Message('note_on', channel=0, note=66, velocity=60, time=0),
    Message('note_on', channel=0, note=62, velocity=60, time=0),
    Message('note_on', channel=0, note=57, velocity=60, time=0),
    Message('note_on', channel=0, note=50, velocity=60, time=0),
    Message('note_on', channel=0, note=45, velocity=60, time=0),
    Message('note_on', channel=0, note=69, velocity=0, time=59),
    Message('note_on', channel=0, note=66, velocity=0, time=0),
    Message('note_on', channel=0, note=62, velocity=0, time=0),
    Message('note_on', channel=0, note=57, velocity=0, time=0),
    Message('note_on', channel=0, note=50, velocity=0, time=0),
    Message('note_on', channel=0, note=45, velocity=0, time=0),
    Message('note_on', channel=0, note=69, velocity=60, time=1),
    Message('note_on', channel=0, note=66, velocity=60, time=0),
    Message('note_on', channel=0, note=62, velocity=60, time=0),
    Message('note_on', channel=0, note=57, velocity=60, time=0),
    Message('note_on', channel=0, note=50, velocity=60, time=0),
    Message('note_on', channel=0, note=45, velocity=60, time=0),
    Message('note_on', channel=0, note=69, velocity=0, time=29),
    Message('note_on', channel=0, note=66, velocity=0, time=0),
    Message('note_on', channel=0, note=62, velocity=0, time=0),
    Message('note_on', channel=0, note=57, velocity=0, time=0),
    Message('note_on', channel=0, note=50, velocity=0, time=0),
    Message('note_on', channel=0, note=45, velocity=0, time=0),
    Message('note_on', channel=0, note=69, velocity=60, time=1),
    Message('note_on', channel=0, note=66, velocity=60, time=0),
    Message('note_on', channel=0, note=62, velocity=60, time=0),
    Message('note_on', channel=0, note=57, velocity=60, time=0),
    Message('note_on', channel=0, note=50, velocity=60, time=0),
    Message('note_on', channel=0, note=45, velocity=60, time=0),
    Message('note_on', channel=0, note=69, velocity=0, time=239),
    Message('note_on', channel=0, note=66, velocity=0, time=0),
    Message('note_on', channel=0, note=62, velocity=0, time=0),
    Message('note_on', channel=0, note=57, velocity=0, time=0),
    Message('note_on', channel=0, note=50, velocity=0, time=0),
    Message('note_on', channel=0, note=45, velocity=0, time=0),
    Message('note_on', channel=0, note=40, velocity=60, time=1),
    Message('note_on', channel=0, note=47, velocity=60, time=0),
    Message('note_on', channel=0, note=52, velocity=60, time=0),
    Message('note_on', channel=0, note=55, velocity=60, time=0),
    Message('note_on', channel=0, note=59, velocity=60, time=0),
    Message('note_on', channel=0, note=64, velocity=60, time=0),
    Message('note_on', channel=0, note=40, velocity=0, time=59),
    Message('note_on', channel=0, note=47, velocity=0, time=0),
    Message('note_on', channel=0, note=52, velocity=0, time=0),
    Message('note_on', channel=0, note=55, velocity=0, time=0),
    Message('note_on', channel=0, note=59, velocity=0, time=0),
    Message('note_on', channel=0, note=64, velocity=0, time=0),
    Message('note_on', channel=0, note=64, velocity=60, time=1),
    Message('note_on', channel=0, note=59, velocity=60, time=0),
    Message('note_on', channel=0, note=55, velocity=60, time=0),
    Message('note_on', channel=0, note=52, velocity=60, time=0),
    Message('note_on', channel=0, note=47, velocity=60, time=0),
    Message('note_on', channel=0, note=40, velocity=60, time=0),
    Message('note_on', channel=0, note=64, velocity=0, time=29),
    Message('note_on', channel=0, note=59, velocity=0, time=0),
    Message('note_on', channel=0, note=55, velocity=0, time=0),
    Message('note_on', channel=0, note=52, velocity=0, time=0),
    Message('note_on', channel=0, note=47, velocity=0, time=0),
    Message('note_on', channel=0, note=40, velocity=0, time=0),
    Message('note_on', channel=0, note=64, velocity=60, time=1),
    Message('note_on', channel=0, note=59, velocity=60, time=0),
    Message('note_on', channel=0, note=55, velocity=60, time=0),
    Message('note_on', channel=0, note=52, velocity=60, time=0),
    Message('note_on', channel=0, note=47, velocity=60, time=0),
    Message('note_on', channel=0, note=40, velocity=60, time=0),
    Message('note_on', channel=0, note=64, velocity=0, time=29),
    Message('note_on', channel=0, note=59, velocity=0, time=0),
    Message('note_on', channel=0, note=55, velocity=0, time=0),
    Message('note_on', channel=0, note=52, velocity=0, time=0),
    Message('note_on', channel=0, note=47, velocity=0, time=0),
    Message('note_on', channel=0, note=40, velocity=0, time=0),
    Message('note_on', channel=0, note=64, velocity=60, time=1),
    Message('note_on', channel=0, note=59, velocity=60, time=0),
    Message('note_on', channel=0, note=55, velocity=60, time=0),
    Message('note_on', channel=0, note=52, velocity=60, time=0),
    Message('note_on', channel=0, note=47, velocity=60, time=0),
    Message('note_on', channel=0, note=40, velocity=60, time=0),
    Message('note_on', channel=0, note=64, velocity=0, time=29),
    Message('note_on', channel=0, note=59, velocity=0, time=0),
    Message('note_on', channel=0, note=55, velocity=0, time=0),
    Message('note_on', channel=0, note=52, velocity=0, time=0),
    Message('note_on', channel=0, note=47, velocity=0, time=0),
    Message('note_on', channel=0, note=40, velocity=0, time=0),
    Message('note_on', channel=0, note=64, velocity=60, time=1),
    Message('note_on', channel=0, note=59, velocity=60, time=0),
    Message('note_on', channel=0, note=55, velocity=60, time=0),
    Message('note_on', channel=0, note=52, velocity=60, time=0),
    Message('note_on', channel=0, note=47, velocity=60, time=0),
    Message('note_on', channel=0, note=40, velocity=60, time=0),
    Message('note_on', channel=0, note=64, velocity=0, time=29),
    Message('note_on', channel=0, note=59, velocity=0, time=0),
    Message('note_on', channel=0, note=55, velocity=0, time=0),
    Message('note_on', channel=0, note=52, velocity=0, time=0),
    Message('note_on', channel=0, note=47, velocity=0, time=0),
    Message('note_on', channel=0, note=40, velocity=0, time=0),
    Message('note_on', channel=0, note=64, velocity=60, time=1),
    Message('note_on', channel=0, note=59, velocity=60, time=0),
    Message('note_on', channel=0, note=55, velocity=60, time=0),
    Message('note_on', channel=0, note=52, velocity=60, time=0),
    Message('note_on', channel=0, note=47, velocity=60, time=0),
    Message('note_on', channel=0, note=40, velocity=60, time=0),
    Message('note_on', channel=0, note=64, velocity=0, time=59),
    Message('note_on', channel=0, note=59, velocity=0, time=0),
    Message('note_on', channel=0, note=55, velocity=0, time=0),
    Message('note_on', channel=0, note=52, velocity=0, time=0),
    Message('note_on', channel=0, note=47, velocity=0, time=0),
    Message('note_on', channel=0, note=40, velocity=0, time=0),
    Message('note_on', channel=0, note=64, velocity=60, time=1),
    Message('note_on', channel=0, note=59, velocity=60, time=0),
    Message('note_on', channel=0, note=55, velocity=60, time=0),
    Message('note_on', channel=0, note=52, velocity=60, time=0),
    Message('note_on', channel=0, note=47, velocity=60, time=0),
    Message('note_on', channel=0, note=40, velocity=60, time=0),
    Message('note_on', channel=0, note=64, velocity=0, time=59),
    Message('note_on', channel=0, note=59, velocity=0, time=0),
    Message('note_on', channel=0, note=55, velocity=0, time=0),
    Message('note_on', channel=0, note=52, velocity=0, time=0),
    Message('note_on', channel=0, note=47, velocity=0, time=0),
    Message('note_on', channel=0, note=40, velocity=0, time=0),
    Message('note_on', channel=0, note=64, velocity=60, time=1),
    Message('note_on', channel=0, note=59, velocity=60, time=0),
    Message('note_on', channel=0, note=55, velocity=60, time=0),
    Message('note_on', channel=0, note=52, velocity=60, time=0),
    Message('note_on', channel=0, note=47, velocity=60, time=0),
    Message('note_on', channel=0, note=40, velocity=60, time=0),
    Message('note_on', channel=0, note=64, velocity=0, time=59),
    Message('note_on', channel=0, note=59, velocity=0, time=0),
    Message('note_on', channel=0, note=55, velocity=0, time=0),
    Message('note_on', channel=0, note=52, velocity=0, time=0),
    Message('note_on', channel=0, note=47, velocity=0, time=0),
    Message('note_on', channel=0, note=40, velocity=0, time=0),
    Message('note_on', channel=0, note=64, velocity=60, time=1),
    Message('note_on', channel=0, note=59, velocity=60, time=0),
    Message('note_on', channel=0, note=55, velocity=60, time=0),
    Message('note_on', channel=0, note=52, velocity=60, time=0),
    Message('note_on', channel=0, note=47, velocity=60, time=0),
    Message('note_on', channel=0, note=40, velocity=60, time=0),
    Message('note_on', channel=0, note=64, velocity=0, time=29),
    Message('note_on', channel=0, note=59, velocity=0, time=0),
    Message('note_on', channel=0, note=55, velocity=0, time=0),
    Message('note_on', channel=0, note=52, velocity=0, time=0),
    Message('note_on', channel=0, note=47, velocity=0, time=0),
    Message('note_on', channel=0, note=40, velocity=0, time=0),
    Message('note_on', channel=0, note=64, velocity=60, time=1),
    Message('note_on', channel=0, note=59, velocity=60, time=0),
    Message('note_on', channel=0, note=55, velocity=60, time=0),
    Message('note_on', channel=0, note=52, velocity=60, time=0),
    Message('note_on', channel=0, note=47, velocity=60, time=0),
    Message('note_on', channel=0, note=40, velocity=60, time=0),
    Message('note_on', channel=0, note=64, velocity=0, time=29),
    Message('note_on', channel=0, note=59, velocity=0, time=0),
    Message('note_on', channel=0, note=55, velocity=0, time=0),
    Message('note_on', channel=0, note=52, velocity=0, time=0),
    Message('note_on', channel=0, note=47, velocity=0, time=0),
    Message('note_on', channel=0, note=40, velocity=0, time=0),
    Message('note_on', channel=0, note=64, velocity=60, time=1),
    Message('note_on', channel=0, note=59, velocity=60, time=0),
    Message('note_on', channel=0, note=55, velocity=60, time=0),
    Message('note_on', channel=0, note=52, velocity=60, time=0),
    Message('note_on', channel=0, note=47, velocity=60, time=0),
    Message('note_on', channel=0, note=40, velocity=60, time=0),
    Message('note_on', channel=0, note=64, velocity=0, time=59),
    Message('note_on', channel=0, note=59, velocity=0, time=0),
    Message('note_on', channel=0, note=55, velocity=0, time=0),
    Message('note_on', channel=0, note=52, velocity=0, time=0),
    Message('note_on', channel=0, note=47, velocity=0, time=0),
    Message('note_on', channel=0, note=40, velocity=0, time=0),
    Message('note_on', channel=0, note=42, velocity=60, time=1),
    Message('note_on', channel=0, note=49, velocity=60, time=0),
    Message('note_on', channel=0, note=54, velocity=60, time=0),
    Message('note_on', channel=0, note=58, velocity=60, time=0),
    Message('note_on', channel=0, note=61, velocity=60, time=0),
    Message('note_on', channel=0, note=66, velocity=60, time=0),
    Message('note_on', channel=0, note=42, velocity=0, time=59),
    Message('note_on', channel=0, note=49, velocity=0, time=0),
    Message('note_on', channel=0, note=54, velocity=0, time=0),
    Message('note_on', channel=0, note=58, velocity=0, time=0),
    Message('note_on', channel=0, note=61, velocity=0, time=0),
    Message('note_on', channel=0, note=66, velocity=0, time=0),
    Message('note_on', channel=0, note=66, velocity=60, time=1),
    Message('note_on', channel=0, note=61, velocity=60, time=0),
    Message('note_on', channel=0, note=58, velocity=60, time=0),
    Message('note_on', channel=0, note=54, velocity=60, time=0),
    Message('note_on', channel=0, note=49, velocity=60, time=0),
    Message('note_on', channel=0, note=42, velocity=60, time=0),
    Message('note_on', channel=0, note=66, velocity=0, time=29),
    Message('note_on', channel=0, note=61, velocity=0, time=0),
    Message('note_on', channel=0, note=58, velocity=0, time=0),
    Message('note_on', channel=0, note=54, velocity=0, time=0),
    Message('note_on', channel=0, note=49, velocity=0, time=0),
    Message('note_on', channel=0, note=42, velocity=0, time=0),
    Message('note_on', channel=0, note=66, velocity=60, time=1),
    Message('note_on', channel=0, note=61, velocity=60, time=0),
    Message('note_on', channel=0, note=58, velocity=60, time=0),
    Message('note_on', channel=0, note=54, velocity=60, time=0),
    Message('note_on', channel=0, note=49, velocity=60, time=0),
    Message('note_on', channel=0, note=42, velocity=60, time=0),
    Message('note_on', channel=0, note=66, velocity=0, time=29),
    Message('note_on', channel=0, note=61, velocity=0, time=0),
    Message('note_on', channel=0, note=58, velocity=0, time=0),
    Message('note_on', channel=0, note=54, velocity=0, time=0),
    Message('note_on', channel=0, note=49, velocity=0, time=0),
    Message('note_on', channel=0, note=42, velocity=0, time=0),
    Message('note_on', channel=0, note=66, velocity=60, time=1),
    Message('note_on', channel=0, note=61, velocity=60, time=0),
    Message('note_on', channel=0, note=58, velocity=60, time=0),
    Message('note_on', channel=0, note=54, velocity=60, time=0),
    Message('note_on', channel=0, note=49, velocity=60, time=0),
    Message('note_on', channel=0, note=42, velocity=60, time=0),
    Message('note_on', channel=0, note=66, velocity=0, time=29),
    Message('note_on', channel=0, note=61, velocity=0, time=0),
    Message('note_on', channel=0, note=58, velocity=0, time=0),
    Message('note_on', channel=0, note=54, velocity=0, time=0),
    Message('note_on', channel=0, note=49, velocity=0, time=0),
    Message('note_on', channel=0, note=42, velocity=0, time=0),
    Message('note_on', channel=0, note=66, velocity=60, time=1),
    Message('note_on', channel=0, note=61, velocity=60, time=0),
    Message('note_on', channel=0, note=58, velocity=60, time=0),
    Message('note_on', channel=0, note=54, velocity=60, time=0),
    Message('note_on', channel=0, note=49, velocity=60, time=0),
    Message('note_on', channel=0, note=42, velocity=60, time=0),
    Message('note_on', channel=0, note=66, velocity=0, time=59),
    Message('note_on', channel=0, note=61, velocity=0, time=0),
    Message('note_on', channel=0, note=58, velocity=0, time=0),
    Message('note_on', channel=0, note=54, velocity=0, time=0),
    Message('note_on', channel=0, note=49, velocity=0, time=0),
    Message('note_on', channel=0, note=42, velocity=0, time=0),
    Message('note_on', channel=0, note=66, velocity=60, time=1),
    Message('note_on', channel=0, note=61, velocity=60, time=0),
    Message('note_on', channel=0, note=58, velocity=60, time=0),
    Message('note_on', channel=0, note=54, velocity=60, time=0),
    Message('note_on', channel=0, note=49, velocity=60, time=0),
    Message('note_on', channel=0, note=42, velocity=60, time=0),
    Message('note_on', channel=0, note=66, velocity=0, time=29),
    Message('note_on', channel=0, note=61, velocity=0, time=0),
    Message('note_on', channel=0, note=58, velocity=0, time=0),
    Message('note_on', channel=0, note=54, velocity=0, time=0),
    Message('note_on', channel=0, note=49, velocity=0, time=0),
    Message('note_on', channel=0, note=42, velocity=0, time=0),
    Message('note_on', channel=0, note=66, velocity=60, time=1),
    Message('note_on', channel=0, note=61, velocity=60, time=0),
    Message('note_on', channel=0, note=58, velocity=60, time=0),
    Message('note_on', channel=0, note=54, velocity=60, time=0),
    Message('note_on', channel=0, note=49, velocity=60, time=0),
    Message('note_on', channel=0, note=42, velocity=60, time=0),
    Message('note_on', channel=0, note=66, velocity=0, time=239),
    Message('note_on', channel=0, note=61, velocity=0, time=0),
    Message('note_on', channel=0, note=58, velocity=0, time=0),
    Message('note_on', channel=0, note=54, velocity=0, time=0),
    Message('note_on', channel=0, note=49, velocity=0, time=0),
    Message('note_on', channel=0, note=42, velocity=0, time=0),
    Message('note_on', channel=0, note=54, velocity=60, time=1),
    Message('note_on', channel=0, note=47, velocity=60, time=0),
    Message('note_on', channel=0, note=42, velocity=60, time=0),
    Message('note_on', channel=0, note=59, velocity=60, time=0),
    Message('note_on', channel=0, note=62, velocity=60, time=0),
    Message('note_on', channel=0, note=66, velocity=60, time=0),
    Message('note_on', channel=0, note=54, velocity=0, time=59),
    Message('note_on', channel=0, note=47, velocity=0, time=0),
    Message('note_on', channel=0, note=42, velocity=0, time=0),
    Message('note_on', channel=0, note=59, velocity=0, time=0),
    Message('note_on', channel=0, note=62, velocity=0, time=0),
    Message('note_on', channel=0, note=66, velocity=0, time=0),
    Message('note_on', channel=0, note=66, velocity=60, time=1),
    Message('note_on', channel=0, note=59, velocity=60, time=0),
    Message('note_on', channel=0, note=62, velocity=60, time=0),
    Message('note_on', channel=0, note=54, velocity=60, time=0),
    Message('note_on', channel=0, note=47, velocity=60, time=0),
    Message('note_on', channel=0, note=42, velocity=60, time=0),
    Message('note_on', channel=0, note=66, velocity=0, time=29),
    Message('note_on', channel=0, note=59, velocity=0, time=0),
    Message('note_on', channel=0, note=62, velocity=0, time=0),
    Message('note_on', channel=0, note=54, velocity=0, time=0),
    Message('note_on', channel=0, note=47, velocity=0, time=0),
    Message('note_on', channel=0, note=42, velocity=0, time=0),
    Message('note_on', channel=0, note=66, velocity=60, time=1),
    Message('note_on', channel=0, note=59, velocity=60, time=0),
    Message('note_on', channel=0, note=62, velocity=60, time=0),
    Message('note_on', channel=0, note=54, velocity=60, time=0),
    Message('note_on', channel=0, note=47, velocity=60, time=0),
    Message('note_on', channel=0, note=42, velocity=60, time=0),
    Message('note_on', channel=0, note=66, velocity=0, time=29),
    Message('note_on', channel=0, note=59, velocity=0, time=0),
    Message('note_on', channel=0, note=62, velocity=0, time=0),
    Message('note_on', channel=0, note=54, velocity=0, time=0),
    Message('note_on', channel=0, note=47, velocity=0, time=0),
    Message('note_on', channel=0, note=42, velocity=0, time=0),
    Message('note_on', channel=0, note=66, velocity=60, time=1),
    Message('note_on', channel=0, note=62, velocity=60, time=0),
    Message('note_on', channel=0, note=59, velocity=60, time=0),
    Message('note_on', channel=0, note=54, velocity=60, time=0),
    Message('note_on', channel=0, note=47, velocity=60, time=0),
    Message('note_on', channel=0, note=42, velocity=60, time=0),
    Message('note_on', channel=0, note=66, velocity=0, time=59),
    Message('note_on', channel=0, note=62, velocity=0, time=0),
    Message('note_on', channel=0, note=59, velocity=0, time=0),
    Message('note_on', channel=0, note=54, velocity=0, time=0),
    Message('note_on', channel=0, note=47, velocity=0, time=0),
    Message('note_on', channel=0, note=42, velocity=0, time=0),
    Message('note_on', channel=0, note=66, velocity=60, time=1),
    Message('note_on', channel=0, note=62, velocity=60, time=0),
    Message('note_on', channel=0, note=59, velocity=60, time=0),
    Message('note_on', channel=0, note=54, velocity=60, time=0),
    Message('note_on', channel=0, note=47, velocity=60, time=0),
    Message('note_on', channel=0, note=42, velocity=60, time=0),
    Message('note_on', channel=0, note=66, velocity=0, time=29),
    Message('note_on', channel=0, note=62, velocity=0, time=0),
    Message('note_on', channel=0, note=59, velocity=0, time=0),
    Message('note_on', channel=0, note=54, velocity=0, time=0),
    Message('note_on', channel=0, note=47, velocity=0, time=0),
    Message('note_on', channel=0, note=42, velocity=0, time=0),
    Message('note_on', channel=0, note=66, velocity=60, time=1),
    Message('note_on', channel=0, note=62, velocity=60, time=0),
    Message('note_on', channel=0, note=59, velocity=60, time=0),
    Message('note_on', channel=0, note=54, velocity=60, time=0),
    Message('note_on', channel=0, note=47, velocity=60, time=0),
    Message('note_on', channel=0, note=42, velocity=60, time=0),
    Message('note_on', channel=0, note=66, velocity=0, time=29),
    Message('note_on', channel=0, note=62, velocity=0, time=0),
    Message('note_on', channel=0, note=59, velocity=0, time=0),
    Message('note_on', channel=0, note=54, velocity=0, time=0),
    Message('note_on', channel=0, note=47, velocity=0, time=0),
    Message('note_on', channel=0, note=42, velocity=0, time=0),
    Message('note_on', channel=0, note=66, velocity=60, time=1),
    Message('note_on', channel=0, note=62, velocity=60, time=0),
    Message('note_on', channel=0, note=59, velocity=60, time=0),
    Message('note_on', channel=0, note=54, velocity=60, time=0),
    Message('note_on', channel=0, note=47, velocity=60, time=0),
    Message('note_on', channel=0, note=42, velocity=60, time=0),
    Message('note_on', channel=0, note=66, velocity=0, time=29),
    Message('note_on', channel=0, note=62, velocity=0, time=0),
    Message('note_on', channel=0, note=59, velocity=0, time=0),
    Message('note_on', channel=0, note=54, velocity=0, time=0),
    Message('note_on', channel=0, note=47, velocity=0, time=0),
    Message('note_on', channel=0, note=42, velocity=0, time=0),
    Message('note_on', channel=0, note=66, velocity=60, time=1),
    Message('note_on', channel=0, note=62, velocity=60, time=0),
    Message('note_on', channel=0, note=59, velocity=60, time=0),
    Message('note_on', channel=0, note=54, velocity=60, time=0),
    Message('note_on', channel=0, note=47, velocity=60, time=0),
    Message('note_on', channel=0, note=42, velocity=60, time=0),
    Message('note_on', channel=0, note=66, velocity=0, time=29),
    Message('note_on', channel=0, note=62, velocity=0, time=0),
    Message('note_on', channel=0, note=59, velocity=0, time=0),
    Message('note_on', channel=0, note=54, velocity=0, time=0),
    Message('note_on', channel=0, note=47, velocity=0, time=0),
    Message('note_on', channel=0, note=42, velocity=0, time=0),
    Message('note_on', channel=0, note=66, velocity=60, time=1),
    Message('note_on', channel=0, note=62, velocity=60, time=0),
    Message('note_on', channel=0, note=59, velocity=60, time=0),
    Message('note_on', channel=0, note=54, velocity=60, time=0),
    Message('note_on', channel=0, note=47, velocity=60, time=0),
    Message('note_on', channel=0, note=42, velocity=60, time=0),
    Message('note_on', channel=0, note=66, velocity=0, time=29),
    Message('note_on', channel=0, note=62, velocity=0, time=0),
    Message('note_on', channel=0, note=59, velocity=0, time=0),
    Message('note_on', channel=0, note=54, velocity=0, time=0),
    Message('note_on', channel=0, note=47, velocity=0, time=0),
    Message('note_on', channel=0, note=42, velocity=0, time=0),
    Message('note_on', channel=0, note=66, velocity=60, time=1),
    Message('note_on', channel=0, note=62, velocity=60, time=0),
    Message('note_on', channel=0, note=59, velocity=60, time=0),
    Message('note_on', channel=0, note=54, velocity=60, time=0),
    Message('note_on', channel=0, note=47, velocity=60, time=0),
    Message('note_on', channel=0, note=42, velocity=60, time=0),
    Message('note_on', channel=0, note=66, velocity=0, time=59),
    Message('note_on', channel=0, note=62, velocity=0, time=0),
    Message('note_on', channel=0, note=59, velocity=0, time=0),
    Message('note_on', channel=0, note=54, velocity=0, time=0),
    Message('note_on', channel=0, note=47, velocity=0, time=0),
    Message('note_on', channel=0, note=42, velocity=0, time=0),
    Message('note_on', channel=0, note=66, velocity=60, time=1),
    Message('note_on', channel=0, note=62, velocity=60, time=0),
    Message('note_on', channel=0, note=59, velocity=60, time=0),
    Message('note_on', channel=0, note=54, velocity=60, time=0),
    Message('note_on', channel=0, note=47, velocity=60, time=0),
    Message('note_on', channel=0, note=42, velocity=60, time=0),
    Message('note_on', channel=0, note=66, velocity=0, time=29),
    Message('note_on', channel=0, note=62, velocity=0, time=0),
    Message('note_on', channel=0, note=59, velocity=0, time=0),
    Message('note_on', channel=0, note=54, velocity=0, time=0),
    Message('note_on', channel=0, note=47, velocity=0, time=0),
    Message('note_on', channel=0, note=42, velocity=0, time=0),
    Message('note_on', channel=0, note=66, velocity=60, time=1),
    Message('note_on', channel=0, note=62, velocity=60, time=0),
    Message('note_on', channel=0, note=59, velocity=60, time=0),
    Message('note_on', channel=0, note=54, velocity=60, time=0),
    Message('note_on', channel=0, note=47, velocity=60, time=0),
    Message('note_on', channel=0, note=42, velocity=60, time=0),
    Message('note_on', channel=0, note=66, velocity=0, time=59),
    Message('note_on', channel=0, note=62, velocity=0, time=0),
    Message('note_on', channel=0, note=59, velocity=0, time=0),
    Message('note_on', channel=0, note=54, velocity=0, time=0),
    Message('note_on', channel=0, note=47, velocity=0, time=0),
    Message('note_on', channel=0, note=42, velocity=0, time=0),
    Message('note_on', channel=0, note=42, velocity=60, time=1),
    Message('note_on', channel=0, note=49, velocity=60, time=0),
    Message('note_on', channel=0, note=54, velocity=60, time=0),
    Message('note_on', channel=0, note=58, velocity=60, time=0),
    Message('note_on', channel=0, note=61, velocity=60, time=0),
    Message('note_on', channel=0, note=66, velocity=60, time=0),
    Message('note_on', channel=0, note=42, velocity=0, time=59),
    Message('note_on', channel=0, note=49, velocity=0, time=0),
    Message('note_on', channel=0, note=54, velocity=0, time=0),
    Message('note_on', channel=0, note=58, velocity=0, time=0),
    Message('note_on', channel=0, note=61, velocity=0, time=0),
    Message('note_on', channel=0, note=66, velocity=0, time=0),
    Message('note_on', channel=0, note=66, velocity=60, time=1),
    Message('note_on', channel=0, note=61, velocity=60, time=0),
    Message('note_on', channel=0, note=58, velocity=60, time=0),
    Message('note_on', channel=0, note=54, velocity=60, time=0),
    Message('note_on', channel=0, note=49, velocity=60, time=0),
    Message('note_on', channel=0, note=42, velocity=60, time=0),
    Message('note_on', channel=0, note=66, velocity=0, time=29),
    Message('note_on', channel=0, note=61, velocity=0, time=0),
    Message('note_on', channel=0, note=58, velocity=0, time=0),
    Message('note_on', channel=0, note=54, velocity=0, time=0),
    Message('note_on', channel=0, note=49, velocity=0, time=0),
    Message('note_on', channel=0, note=42, velocity=0, time=0),
    Message('note_on', channel=0, note=66, velocity=60, time=1),
    Message('note_on', channel=0, note=61, velocity=60, time=0),
    Message('note_on', channel=0, note=58, velocity=60, time=0),
    Message('note_on', channel=0, note=54, velocity=60, time=0),
    Message('note_on', channel=0, note=49, velocity=60, time=0),
    Message('note_on', channel=0, note=42, velocity=60, time=0),
    Message('note_on', channel=0, note=66, velocity=0, time=29),
    Message('note_on', channel=0, note=61, velocity=0, time=0),
    Message('note_on', channel=0, note=58, velocity=0, time=0),
    Message('note_on', channel=0, note=54, velocity=0, time=0),
    Message('note_on', channel=0, note=49, velocity=0, time=0),
    Message('note_on', channel=0, note=42, velocity=0, time=0),
    Message('note_on', channel=0, note=66, velocity=60, time=1),
    Message('note_on', channel=0, note=58, velocity=60, time=0),
    Message('note_on', channel=0, note=61, velocity=60, time=0),
    Message('note_on', channel=0, note=54, velocity=60, time=0),
    Message('note_on', channel=0, note=49, velocity=60, time=0),
    Message('note_on', channel=0, note=42, velocity=60, time=0),
    Message('note_on', channel=0, note=66, velocity=0, time=59),
    Message('note_on', channel=0, note=58, velocity=0, time=0),
    Message('note_on', channel=0, note=61, velocity=0, time=0),
    Message('note_on', channel=0, note=54, velocity=0, time=0),
    Message('note_on', channel=0, note=49, velocity=0, time=0),
    Message('note_on', channel=0, note=42, velocity=0, time=0),
    Message('note_on', channel=0, note=66, velocity=60, time=1),
    Message('note_on', channel=0, note=61, velocity=60, time=0),
    Message('note_on', channel=0, note=58, velocity=60, time=0),
    Message('note_on', channel=0, note=54, velocity=60, time=0),
    Message('note_on', channel=0, note=49, velocity=60, time=0),
    Message('note_on', channel=0, note=42, velocity=60, time=0),
    Message('note_on', channel=0, note=66, velocity=0, time=29),
    Message('note_on', channel=0, note=61, velocity=0, time=0),
    Message('note_on', channel=0, note=58, velocity=0, time=0),
    Message('note_on', channel=0, note=54, velocity=0, time=0),
    Message('note_on', channel=0, note=49, velocity=0, time=0),
    Message('note_on', channel=0, note=42, velocity=0, time=0),
    Message('note_on', channel=0, note=66, velocity=60, time=1),
    Message('note_on', channel=0, note=61, velocity=60, time=0),
    Message('note_on', channel=0, note=58, velocity=60, time=0),
    Message('note_on', channel=0, note=54, velocity=60, time=0),
    Message('note_on', channel=0, note=49, velocity=60, time=0),
    Message('note_on', channel=0, note=42, velocity=60, time=0),
    Message('note_on', channel=0, note=66, velocity=0, time=29),
    Message('note_on', channel=0, note=61, velocity=0, time=0),
    Message('note_on', channel=0, note=58, velocity=0, time=0),
    Message('note_on', channel=0, note=54, velocity=0, time=0),
    Message('note_on', channel=0, note=49, velocity=0, time=0),
    Message('note_on', channel=0, note=42, velocity=0, time=0),
    Message('note_on', channel=0, note=66, velocity=60, time=1),
    Message('note_on', channel=0, note=61, velocity=60, time=0),
    Message('note_on', channel=0, note=58, velocity=60, time=0),
    Message('note_on', channel=0, note=54, velocity=60, time=0),
    Message('note_on', channel=0, note=49, velocity=60, time=0),
    Message('note_on', channel=0, note=42, velocity=60, time=0),
    Message('note_on', channel=0, note=66, velocity=0, time=179),
    Message('note_on', channel=0, note=61, velocity=0, time=0),
    Message('note_on', channel=0, note=58, velocity=0, time=0),
    Message('note_on', channel=0, note=54, velocity=0, time=0),
    Message('note_on', channel=0, note=49, velocity=0, time=0),
    Message('note_on', channel=0, note=42, velocity=0, time=0),
    Message('note_on', channel=0, note=66, velocity=60, time=1),
    Message('note_on', channel=0, note=61, velocity=60, time=0),
    Message('note_on', channel=0, note=58, velocity=60, time=0),
    Message('note_on', channel=0, note=54, velocity=60, time=0),
    Message('note_on', channel=0, note=49, velocity=60, time=0),
    Message('note_on', channel=0, note=42, velocity=60, time=0),
    Message('note_on', channel=0, note=66, velocity=0, time=29),
    Message('note_on', channel=0, note=61, velocity=0, time=0),
    Message('note_on', channel=0, note=58, velocity=0, time=0),
    Message('note_on', channel=0, note=54, velocity=0, time=0),
    Message('note_on', channel=0, note=49, velocity=0, time=0),
    Message('note_on', channel=0, note=42, velocity=0, time=0),
    Message('note_on', channel=0, note=66, velocity=60, time=1),
    Message('note_on', channel=0, note=61, velocity=60, time=0),
    Message('note_on', channel=0, note=58, velocity=60, time=0),
    Message('note_on', channel=0, note=54, velocity=60, time=0),
    Message('note_on', channel=0, note=49, velocity=60, time=0),
    Message('note_on', channel=0, note=42, velocity=60, time=0),
    Message('note_on', channel=0, note=66, velocity=0, time=29),
    Message('note_on', channel=0, note=61, velocity=0, time=0),
    Message('note_on', channel=0, note=58, velocity=0, time=0),
    Message('note_on', channel=0, note=54, velocity=0, time=0),
    Message('note_on', channel=0, note=49, velocity=0, time=0),
    Message('note_on', channel=0, note=42, velocity=0, time=0),
    Message('note_on', channel=0, note=40, velocity=60, time=1),
    Message('note_on', channel=0, note=45, velocity=60, time=0),
    Message('note_on', channel=0, note=52, velocity=60, time=0),
    Message('note_on', channel=0, note=57, velocity=60, time=0),
    Message('note_on', channel=0, note=61, velocity=60, time=0),
    Message('note_on', channel=0, note=64, velocity=60, time=0),
    Message('note_on', channel=0, note=40, velocity=0, time=59),
    Message('note_on', channel=0, note=45, velocity=0, time=0),
    Message('note_on', channel=0, note=52, velocity=0, time=0),
    Message('note_on', channel=0, note=57, velocity=0, time=0),
    Message('note_on', channel=0, note=61, velocity=0, time=0),
    Message('note_on', channel=0, note=64, velocity=0, time=0),
    Message('note_on', channel=0, note=64, velocity=60, time=1),
    Message('note_on', channel=0, note=61, velocity=60, time=0),
    Message('note_on', channel=0, note=57, velocity=60, time=0),
    Message('note_on', channel=0, note=52, velocity=60, time=0),
    Message('note_on', channel=0, note=45, velocity=60, time=0),
    Message('note_on', channel=0, note=40, velocity=60, time=0),
    Message('note_on', channel=0, note=64, velocity=0, time=29),
    Message('note_on', channel=0, note=61, velocity=0, time=0),
    Message('note_on', channel=0, note=57, velocity=0, time=0),
    Message('note_on', channel=0, note=52, velocity=0, time=0),
    Message('note_on', channel=0, note=45, velocity=0, time=0),
    Message('note_on', channel=0, note=40, velocity=0, time=0),
    Message('note_on', channel=0, note=64, velocity=60, time=1),
    Message('note_on', channel=0, note=61, velocity=60, time=0),
    Message('note_on', channel=0, note=57, velocity=60, time=0),
    Message('note_on', channel=0, note=52, velocity=60, time=0),
    Message('note_on', channel=0, note=45, velocity=60, time=0),
    Message('note_on', channel=0, note=40, velocity=60, time=0),
    Message('note_on', channel=0, note=64, velocity=0, time=29),
    Message('note_on', channel=0, note=61, velocity=0, time=0),
    Message('note_on', channel=0, note=57, velocity=0, time=0),
    Message('note_on', channel=0, note=52, velocity=0, time=0),
    Message('note_on', channel=0, note=45, velocity=0, time=0),
    Message('note_on', channel=0, note=40, velocity=0, time=0),
    Message('note_on', channel=0, note=64, velocity=60, time=1),
    Message('note_on', channel=0, note=61, velocity=60, time=0),
    Message('note_on', channel=0, note=57, velocity=60, time=0),
    Message('note_on', channel=0, note=52, velocity=60, time=0),
    Message('note_on', channel=0, note=45, velocity=60, time=0),
    Message('note_on', channel=0, note=40, velocity=60, time=0),
    Message('note_on', channel=0, note=64, velocity=0, time=59),
    Message('note_on', channel=0, note=61, velocity=0, time=0),
    Message('note_on', channel=0, note=57, velocity=0, time=0),
    Message('note_on', channel=0, note=52, velocity=0, time=0),
    Message('note_on', channel=0, note=45, velocity=0, time=0),
    Message('note_on', channel=0, note=40, velocity=0, time=0),
    Message('note_on', channel=0, note=64, velocity=60, time=1),
    Message('note_on', channel=0, note=61, velocity=60, time=0),
    Message('note_on', channel=0, note=57, velocity=60, time=0),
    Message('note_on', channel=0, note=52, velocity=60, time=0),
    Message('note_on', channel=0, note=45, velocity=60, time=0),
    Message('note_on', channel=0, note=40, velocity=60, time=0),
    Message('note_on', channel=0, note=64, velocity=0, time=29),
    Message('note_on', channel=0, note=61, velocity=0, time=0),
    Message('note_on', channel=0, note=57, velocity=0, time=0),
    Message('note_on', channel=0, note=52, velocity=0, time=0),
    Message('note_on', channel=0, note=45, velocity=0, time=0),
    Message('note_on', channel=0, note=40, velocity=0, time=0),
    Message('note_on', channel=0, note=64, velocity=60, time=1),
    Message('note_on', channel=0, note=61, velocity=60, time=0),
    Message('note_on', channel=0, note=57, velocity=60, time=0),
    Message('note_on', channel=0, note=52, velocity=60, time=0),
    Message('note_on', channel=0, note=45, velocity=60, time=0),
    Message('note_on', channel=0, note=40, velocity=60, time=0),
    Message('note_on', channel=0, note=64, velocity=0, time=29),
    Message('note_on', channel=0, note=61, velocity=0, time=0),
    Message('note_on', channel=0, note=57, velocity=0, time=0),
    Message('note_on', channel=0, note=52, velocity=0, time=0),
    Message('note_on', channel=0, note=45, velocity=0, time=0),
    Message('note_on', channel=0, note=40, velocity=0, time=0),
    Message('note_on', channel=0, note=64, velocity=60, time=1),
    Message('note_on', channel=0, note=61, velocity=60, time=0),
    Message('note_on', channel=0, note=57, velocity=60, time=0),
    Message('note_on', channel=0, note=52, velocity=60, time=0),
    Message('note_on', channel=0, note=45, velocity=60, time=0),
    Message('note_on', channel=0, note=40, velocity=60, time=0),
    Message('note_on', channel=0, note=64, velocity=0, time=29),
    Message('note_on', channel=0, note=61, velocity=0, time=0),
    Message('note_on', channel=0, note=57, velocity=0, time=0),
    Message('note_on', channel=0, note=52, velocity=0, time=0),
    Message('note_on', channel=0, note=45, velocity=0, time=0),
    Message('note_on', channel=0, note=40, velocity=0, time=0),
    Message('note_on', channel=0, note=64, velocity=60, time=1),
    Message('note_on', channel=0, note=61, velocity=60, time=0),
    Message('note_on', channel=0, note=57, velocity=60, time=0),
    Message('note_on', channel=0, note=52, velocity=60, time=0),
    Message('note_on', channel=0, note=45, velocity=60, time=0),
    Message('note_on', channel=0, note=40, velocity=60, time=0),
    Message('note_on', channel=0, note=64, velocity=0, time=29),
    Message('note_on', channel=0, note=61, velocity=0, time=0),
    Message('note_on', channel=0, note=57, velocity=0, time=0),
    Message('note_on', channel=0, note=52, velocity=0, time=0),
    Message('note_on', channel=0, note=45, velocity=0, time=0),
    Message('note_on', channel=0, note=40, velocity=0, time=0),
    Message('note_on', channel=0, note=64, velocity=60, time=1),
    Message('note_on', channel=0, note=61, velocity=60, time=0),
    Message('note_on', channel=0, note=57, velocity=60, time=0),
    Message('note_on', channel=0, note=52, velocity=60, time=0),
    Message('note_on', channel=0, note=45, velocity=60, time=0),
    Message('note_on', channel=0, note=40, velocity=60, time=0),
    Message('note_on', channel=0, note=64, velocity=0, time=29),
    Message('note_on', channel=0, note=61, velocity=0, time=0),
    Message('note_on', channel=0, note=57, velocity=0, time=0),
    Message('note_on', channel=0, note=52, velocity=0, time=0),
    Message('note_on', channel=0, note=45, velocity=0, time=0),
    Message('note_on', channel=0, note=40, velocity=0, time=0),
    Message('note_on', channel=0, note=64, velocity=60, time=1),
    Message('note_on', channel=0, note=61, velocity=60, time=0),
    Message('note_on', channel=0, note=57, velocity=60, time=0),
    Message('note_on', channel=0, note=52, velocity=60, time=0),
    Message('note_on', channel=0, note=45, velocity=60, time=0),
    Message('note_on', channel=0, note=40, velocity=60, time=0),
    Message('note_on', channel=0, note=64, velocity=0, time=59),
    Message('note_on', channel=0, note=61, velocity=0, time=0),
    Message('note_on', channel=0, note=57, velocity=0, time=0),
    Message('note_on', channel=0, note=52, velocity=0, time=0),
    Message('note_on', channel=0, note=45, velocity=0, time=0),
    Message('note_on', channel=0, note=40, velocity=0, time=0),
    Message('note_on', channel=0, note=64, velocity=60, time=1),
    Message('note_on', channel=0, note=61, velocity=60, time=0),
    Message('note_on', channel=0, note=57, velocity=60, time=0),
    Message('note_on', channel=0, note=52, velocity=60, time=0),
    Message('note_on', channel=0, note=45, velocity=60, time=0),
    Message('note_on', channel=0, note=40, velocity=60, time=0),
    Message('note_on', channel=0, note=64, velocity=0, time=29),
    Message('note_on', channel=0, note=61, velocity=0, time=0),
    Message('note_on', channel=0, note=57, velocity=0, time=0),
    Message('note_on', channel=0, note=52, velocity=0, time=0),
    Message('note_on', channel=0, note=45, velocity=0, time=0),
    Message('note_on', channel=0, note=40, velocity=0, time=0),
    Message('note_on', channel=0, note=64, velocity=60, time=1),
    Message('note_on', channel=0, note=61, velocity=60, time=0),
    Message('note_on', channel=0, note=57, velocity=60, time=0),
    Message('note_on', channel=0, note=52, velocity=60, time=0),
    Message('note_on', channel=0, note=45, velocity=60, time=0),
    Message('note_on', channel=0, note=40, velocity=60, time=0),
    Message('note_on', channel=0, note=64, velocity=0, time=59),
    Message('note_on', channel=0, note=61, velocity=0, time=0),
    Message('note_on', channel=0, note=57, velocity=0, time=0),
    Message('note_on', channel=0, note=52, velocity=0, time=0),
    Message('note_on', channel=0, note=45, velocity=0, time=0),
    Message('note_on', channel=0, note=40, velocity=0, time=0),
    Message('note_on', channel=0, note=40, velocity=60, time=1),
    Message('note_on', channel=0, note=47, velocity=60, time=0),
    Message('note_on', channel=0, note=52, velocity=60, time=0),
    Message('note_on', channel=0, note=56, velocity=60, time=0),
    Message('note_on', channel=0, note=59, velocity=60, time=0),
    Message('note_on', channel=0, note=64, velocity=60, time=0),
    Message('note_on', channel=0, note=40, velocity=0, time=59),
    Message('note_on', channel=0, note=47, velocity=0, time=0),
    Message('note_on', channel=0, note=52, velocity=0, time=0),
    Message('note_on', channel=0, note=56, velocity=0, time=0),
    Message('note_on', channel=0, note=59, velocity=0, time=0),
    Message('note_on', channel=0, note=64, velocity=0, time=0),
    Message('note_on', channel=0, note=64, velocity=60, time=1),
    Message('note_on', channel=0, note=59, velocity=60, time=0),
    Message('note_on', channel=0, note=56, velocity=60, time=0),
    Message('note_on', channel=0, note=52, velocity=60, time=0),
    Message('note_on', channel=0, note=47, velocity=60, time=0),
    Message('note_on', channel=0, note=40, velocity=60, time=0),
    Message('note_on', channel=0, note=64, velocity=0, time=29),
    Message('note_on', channel=0, note=59, velocity=0, time=0),
    Message('note_on', channel=0, note=56, velocity=0, time=0),
    Message('note_on', channel=0, note=52, velocity=0, time=0),
    Message('note_on', channel=0, note=47, velocity=0, time=0),
    Message('note_on', channel=0, note=40, velocity=0, time=0),
    Message('note_on', channel=0, note=64, velocity=60, time=1),
    Message('note_on', channel=0, note=59, velocity=60, time=0),
    Message('note_on', channel=0, note=56, velocity=60, time=0),
    Message('note_on', channel=0, note=52, velocity=60, time=0),
    Message('note_on', channel=0, note=47, velocity=60, time=0),
    Message('note_on', channel=0, note=40, velocity=60, time=0),
    Message('note_on', channel=0, note=64, velocity=0, time=29),
    Message('note_on', channel=0, note=59, velocity=0, time=0),
    Message('note_on', channel=0, note=56, velocity=0, time=0),
    Message('note_on', channel=0, note=52, velocity=0, time=0),
    Message('note_on', channel=0, note=47, velocity=0, time=0),
    Message('note_on', channel=0, note=40, velocity=0, time=0),
    Message('note_on', channel=0, note=64, velocity=60, time=1),
    Message('note_on', channel=0, note=59, velocity=60, time=0),
    Message('note_on', channel=0, note=56, velocity=60, time=0),
    Message('note_on', channel=0, note=52, velocity=60, time=0),
    Message('note_on', channel=0, note=47, velocity=60, time=0),
    Message('note_on', channel=0, note=40, velocity=60, time=0),
    Message('note_on', channel=0, note=64, velocity=0, time=59),
    Message('note_on', channel=0, note=59, velocity=0, time=0),
    Message('note_on', channel=0, note=56, velocity=0, time=0),
    Message('note_on', channel=0, note=52, velocity=0, time=0),
    Message('note_on', channel=0, note=47, velocity=0, time=0),
    Message('note_on', channel=0, note=40, velocity=0, time=0),
    Message('note_on', channel=0, note=64, velocity=60, time=1),
    Message('note_on', channel=0, note=59, velocity=60, time=0),
    Message('note_on', channel=0, note=56, velocity=60, time=0),
    Message('note_on', channel=0, note=52, velocity=60, time=0),
    Message('note_on', channel=0, note=47, velocity=60, time=0),
    Message('note_on', channel=0, note=40, velocity=60, time=0),
    Message('note_on', channel=0, note=64, velocity=0, time=29),
    Message('note_on', channel=0, note=59, velocity=0, time=0),
    Message('note_on', channel=0, note=56, velocity=0, time=0),
    Message('note_on', channel=0, note=52, velocity=0, time=0),
    Message('note_on', channel=0, note=47, velocity=0, time=0),
    Message('note_on', channel=0, note=40, velocity=0, time=0),
    Message('note_on', channel=0, note=64, velocity=60, time=1),
    Message('note_on', channel=0, note=59, velocity=60, time=0),
    Message('note_on', channel=0, note=56, velocity=60, time=0),
    Message('note_on', channel=0, note=52, velocity=60, time=0),
    Message('note_on', channel=0, note=47, velocity=60, time=0),
    Message('note_on', channel=0, note=40, velocity=60, time=0),
    Message('note_on', channel=0, note=64, velocity=0, time=29),
    Message('note_on', channel=0, note=59, velocity=0, time=0),
    Message('note_on', channel=0, note=56, velocity=0, time=0),
    Message('note_on', channel=0, note=52, velocity=0, time=0),
    Message('note_on', channel=0, note=47, velocity=0, time=0),
    Message('note_on', channel=0, note=40, velocity=0, time=0),
    Message('note_on', channel=0, note=64, velocity=60, time=1),
    Message('note_on', channel=0, note=59, velocity=60, time=0),
    Message('note_on', channel=0, note=56, velocity=60, time=0),
    Message('note_on', channel=0, note=52, velocity=60, time=0),
    Message('note_on', channel=0, note=47, velocity=60, time=0),
    Message('note_on', channel=0, note=40, velocity=60, time=0),
    Message('note_on', channel=0, note=64, velocity=0, time=239),
    Message('note_on', channel=0, note=59, velocity=0, time=0),
    Message('note_on', channel=0, note=56, velocity=0, time=0),
    Message('note_on', channel=0, note=52, velocity=0, time=0),
    Message('note_on', channel=0, note=47, velocity=0, time=0),
    Message('note_on', channel=0, note=40, velocity=0, time=0),
    Message('note_on', channel=0, note=43, velocity=60, time=1),
    Message('note_on', channel=0, note=50, velocity=60, time=0),
    Message('note_on', channel=0, note=55, velocity=60, time=0),
    Message('note_on', channel=0, note=59, velocity=60, time=0),
    Message('note_on', channel=0, note=62, velocity=60, time=0),
    Message('note_on', channel=0, note=67, velocity=60, time=0),
    Message('note_on', channel=0, note=43, velocity=0, time=59),
    Message('note_on', channel=0, note=50, velocity=0, time=0),
    Message('note_on', channel=0, note=55, velocity=0, time=0),
    Message('note_on', channel=0, note=59, velocity=0, time=0),
    Message('note_on', channel=0, note=62, velocity=0, time=0),
    Message('note_on', channel=0, note=67, velocity=0, time=0),
    Message('note_on', channel=0, note=67, velocity=60, time=1),
    Message('note_on', channel=0, note=62, velocity=60, time=0),
    Message('note_on', channel=0, note=59, velocity=60, time=0),
    Message('note_on', channel=0, note=55, velocity=60, time=0),
    Message('note_on', channel=0, note=50, velocity=60, time=0),
    Message('note_on', channel=0, note=43, velocity=60, time=0),
    Message('note_on', channel=0, note=67, velocity=0, time=29),
    Message('note_on', channel=0, note=62, velocity=0, time=0),
    Message('note_on', channel=0, note=59, velocity=0, time=0),
    Message('note_on', channel=0, note=55, velocity=0, time=0),
    Message('note_on', channel=0, note=50, velocity=0, time=0),
    Message('note_on', channel=0, note=43, velocity=0, time=0),
    Message('note_on', channel=0, note=67, velocity=60, time=1),
    Message('note_on', channel=0, note=62, velocity=60, time=0),
    Message('note_on', channel=0, note=59, velocity=60, time=0),
    Message('note_on', channel=0, note=55, velocity=60, time=0),
    Message('note_on', channel=0, note=50, velocity=60, time=0),
    Message('note_on', channel=0, note=43, velocity=60, time=0),
    Message('note_on', channel=0, note=67, velocity=0, time=29),
    Message('note_on', channel=0, note=62, velocity=0, time=0),
    Message('note_on', channel=0, note=59, velocity=0, time=0),
    Message('note_on', channel=0, note=55, velocity=0, time=0),
    Message('note_on', channel=0, note=50, velocity=0, time=0),
    Message('note_on', channel=0, note=43, velocity=0, time=0),
    Message('note_on', channel=0, note=67, velocity=60, time=1),
    Message('note_on', channel=0, note=62, velocity=60, time=0),
    Message('note_on', channel=0, note=59, velocity=60, time=0),
    Message('note_on', channel=0, note=55, velocity=60, time=0),
    Message('note_on', channel=0, note=50, velocity=60, time=0),
    Message('note_on', channel=0, note=43, velocity=60, time=0),
    Message('note_on', channel=0, note=67, velocity=0, time=59),
    Message('note_on', channel=0, note=62, velocity=0, time=0),
    Message('note_on', channel=0, note=59, velocity=0, time=0),
    Message('note_on', channel=0, note=55, velocity=0, time=0),
    Message('note_on', channel=0, note=50, velocity=0, time=0),
    Message('note_on', channel=0, note=43, velocity=0, time=0),
    Message('note_on', channel=0, note=67, velocity=60, time=1),
    Message('note_on', channel=0, note=62, velocity=60, time=0),
    Message('note_on', channel=0, note=59, velocity=60, time=0),
    Message('note_on', channel=0, note=55, velocity=60, time=0),
    Message('note_on', channel=0, note=50, velocity=60, time=0),
    Message('note_on', channel=0, note=43, velocity=60, time=0),
    Message('note_on', channel=0, note=67, velocity=0, time=29),
    Message('note_on', channel=0, note=62, velocity=0, time=0),
    Message('note_on', channel=0, note=59, velocity=0, time=0),
    Message('note_on', channel=0, note=55, velocity=0, time=0),
    Message('note_on', channel=0, note=50, velocity=0, time=0),
    Message('note_on', channel=0, note=43, velocity=0, time=0),
    Message('note_on', channel=0, note=67, velocity=60, time=1),
    Message('note_on', channel=0, note=62, velocity=60, time=0),
    Message('note_on', channel=0, note=59, velocity=60, time=0),
    Message('note_on', channel=0, note=55, velocity=60, time=0),
    Message('note_on', channel=0, note=50, velocity=60, time=0),
    Message('note_on', channel=0, note=43, velocity=60, time=0),
    Message('note_on', channel=0, note=67, velocity=0, time=29),
    Message('note_on', channel=0, note=62, velocity=0, time=0),
    Message('note_on', channel=0, note=59, velocity=0, time=0),
    Message('note_on', channel=0, note=55, velocity=0, time=0),
    Message('note_on', channel=0, note=50, velocity=0, time=0),
    Message('note_on', channel=0, note=43, velocity=0, time=0),
    Message('note_on', channel=0, note=67, velocity=60, time=1),
    Message('note_on', channel=0, note=62, velocity=60, time=0),
    Message('note_on', channel=0, note=59, velocity=60, time=0),
    Message('note_on', channel=0, note=55, velocity=60, time=0),
    Message('note_on', channel=0, note=50, velocity=60, time=0),
    Message('note_on', channel=0, note=43, velocity=60, time=0),
    Message('note_on', channel=0, note=67, velocity=0, time=29),
    Message('note_on', channel=0, note=62, velocity=0, time=0),
    Message('note_on', channel=0, note=59, velocity=0, time=0),
    Message('note_on', channel=0, note=55, velocity=0, time=0),
    Message('note_on', channel=0, note=50, velocity=0, time=0),
    Message('note_on', channel=0, note=43, velocity=0, time=0),
    Message('note_on', channel=0, note=67, velocity=60, time=1),
    Message('note_on', channel=0, note=62, velocity=60, time=0),
    Message('note_on', channel=0, note=59, velocity=60, time=0),
    Message('note_on', channel=0, note=55, velocity=60, time=0),
    Message('note_on', channel=0, note=50, velocity=60, time=0),
    Message('note_on', channel=0, note=43, velocity=60, time=0),
    Message('note_on', channel=0, note=67, velocity=0, time=29),
    Message('note_on', channel=0, note=62, velocity=0, time=0),
    Message('note_on', channel=0, note=59, velocity=0, time=0),
    Message('note_on', channel=0, note=55, velocity=0, time=0),
    Message('note_on', channel=0, note=50, velocity=0, time=0),
    Message('note_on', channel=0, note=43, velocity=0, time=0),
    Message('note_on', channel=0, note=67, velocity=60, time=1),
    Message('note_on', channel=0, note=62, velocity=60, time=0),
    Message('note_on', channel=0, note=59, velocity=60, time=0),
    Message('note_on', channel=0, note=55, velocity=60, time=0),
    Message('note_on', channel=0, note=50, velocity=60, time=0),
    Message('note_on', channel=0, note=43, velocity=60, time=0),
    Message('note_on', channel=0, note=67, velocity=0, time=29),
    Message('note_on', channel=0, note=62, velocity=0, time=0),
    Message('note_on', channel=0, note=59, velocity=0, time=0),
    Message('note_on', channel=0, note=55, velocity=0, time=0),
    Message('note_on', channel=0, note=50, velocity=0, time=0),
    Message('note_on', channel=0, note=43, velocity=0, time=0),
    Message('note_on', channel=0, note=67, velocity=60, time=1),
    Message('note_on', channel=0, note=62, velocity=60, time=0),
    Message('note_on', channel=0, note=59, velocity=60, time=0),
    Message('note_on', channel=0, note=55, velocity=60, time=0),
    Message('note_on', channel=0, note=50, velocity=60, time=0),
    Message('note_on', channel=0, note=43, velocity=60, time=0),
    Message('note_on', channel=0, note=67, velocity=0, time=59),
    Message('note_on', channel=0, note=62, velocity=0, time=0),
    Message('note_on', channel=0, note=59, velocity=0, time=0),
    Message('note_on', channel=0, note=55, velocity=0, time=0),
    Message('note_on', channel=0, note=50, velocity=0, time=0),
    Message('note_on', channel=0, note=43, velocity=0, time=0),
    Message('note_on', channel=0, note=67, velocity=60, time=1),
    Message('note_on', channel=0, note=62, velocity=60, time=0),
    Message('note_on', channel=0, note=59, velocity=60, time=0),
    Message('note_on', channel=0, note=55, velocity=60, time=0),
    Message('note_on', channel=0, note=50, velocity=60, time=0),
    Message('note_on', channel=0, note=43, velocity=60, time=0),
    Message('note_on', channel=0, note=67, velocity=0, time=29),
    Message('note_on', channel=0, note=62, velocity=0, time=0),
    Message('note_on', channel=0, note=59, velocity=0, time=0),
    Message('note_on', channel=0, note=55, velocity=0, time=0),
    Message('note_on', channel=0, note=50, velocity=0, time=0),
    Message('note_on', channel=0, note=43, velocity=0, time=0),
    Message('note_on', channel=0, note=67, velocity=60, time=1),
    Message('note_on', channel=0, note=62, velocity=60, time=0),
    Message('note_on', channel=0, note=59, velocity=60, time=0),
    Message('note_on', channel=0, note=55, velocity=60, time=0),
    Message('note_on', channel=0, note=50, velocity=60, time=0),
    Message('note_on', channel=0, note=43, velocity=60, time=0),
    Message('note_on', channel=0, note=67, velocity=0, time=59),
    Message('note_on', channel=0, note=62, velocity=0, time=0),
    Message('note_on', channel=0, note=59, velocity=0, time=0),
    Message('note_on', channel=0, note=55, velocity=0, time=0),
    Message('note_on', channel=0, note=50, velocity=0, time=0),
    Message('note_on', channel=0, note=43, velocity=0, time=0),
    Message('note_on', channel=0, note=45, velocity=60, time=1),
    Message('note_on', channel=0, note=50, velocity=60, time=0),
    Message('note_on', channel=0, note=57, velocity=60, time=0),
    Message('note_on', channel=0, note=62, velocity=60, time=0),
    Message('note_on', channel=0, note=66, velocity=60, time=0),
    Message('note_on', channel=0, note=69, velocity=60, time=0),
    Message('note_on', channel=0, note=45, velocity=0, time=59),
    Message('note_on', channel=0, note=50, velocity=0, time=0),
    Message('note_on', channel=0, note=57, velocity=0, time=0),
    Message('note_on', channel=0, note=62, velocity=0, time=0),
    Message('note_on', channel=0, note=66, velocity=0, time=0),
    Message('note_on', channel=0, note=69, velocity=0, time=0),
    Message('note_on', channel=0, note=69, velocity=60, time=1),
    Message('note_on', channel=0, note=66, velocity=60, time=0),
    Message('note_on', channel=0, note=62, velocity=60, time=0),
    Message('note_on', channel=0, note=57, velocity=60, time=0),
    Message('note_on', channel=0, note=50, velocity=60, time=0),
    Message('note_on', channel=0, note=45, velocity=60, time=0),
    Message('note_on', channel=0, note=69, velocity=0, time=29),
    Message('note_on', channel=0, note=66, velocity=0, time=0),
    Message('note_on', channel=0, note=62, velocity=0, time=0),
    Message('note_on', channel=0, note=57, velocity=0, time=0),
    Message('note_on', channel=0, note=50, velocity=0, time=0),
    Message('note_on', channel=0, note=45, velocity=0, time=0),
    Message('note_on', channel=0, note=69, velocity=60, time=1),
    Message('note_on', channel=0, note=66, velocity=60, time=0),
    Message('note_on', channel=0, note=62, velocity=60, time=0),
    Message('note_on', channel=0, note=57, velocity=60, time=0),
    Message('note_on', channel=0, note=50, velocity=60, time=0),
    Message('note_on', channel=0, note=45, velocity=60, time=0),
    Message('note_on', channel=0, note=69, velocity=0, time=29),
    Message('note_on', channel=0, note=66, velocity=0, time=0),
    Message('note_on', channel=0, note=62, velocity=0, time=0),
    Message('note_on', channel=0, note=57, velocity=0, time=0),
    Message('note_on', channel=0, note=50, velocity=0, time=0),
    Message('note_on', channel=0, note=45, velocity=0, time=0),
    Message('note_on', channel=0, note=69, velocity=60, time=1),
    Message('note_on', channel=0, note=66, velocity=60, time=0),
    Message('note_on', channel=0, note=62, velocity=60, time=0),
    Message('note_on', channel=0, note=57, velocity=60, time=0),
    Message('note_on', channel=0, note=50, velocity=60, time=0),
    Message('note_on', channel=0, note=45, velocity=60, time=0),
    Message('note_on', channel=0, note=69, velocity=0, time=29),
    Message('note_on', channel=0, note=66, velocity=0, time=0),
    Message('note_on', channel=0, note=62, velocity=0, time=0),
    Message('note_on', channel=0, note=57, velocity=0, time=0),
    Message('note_on', channel=0, note=50, velocity=0, time=0),
    Message('note_on', channel=0, note=45, velocity=0, time=0),
    Message('note_on', channel=0, note=69, velocity=60, time=1),
    Message('note_on', channel=0, note=66, velocity=60, time=0),
    Message('note_on', channel=0, note=62, velocity=60, time=0),
    Message('note_on', channel=0, note=57, velocity=60, time=0),
    Message('note_on', channel=0, note=50, velocity=60, time=0),
    Message('note_on', channel=0, note=45, velocity=60, time=0),
    Message('note_on', channel=0, note=69, velocity=0, time=59),
    Message('note_on', channel=0, note=66, velocity=0, time=0),
    Message('note_on', channel=0, note=62, velocity=0, time=0),
    Message('note_on', channel=0, note=57, velocity=0, time=0),
    Message('note_on', channel=0, note=50, velocity=0, time=0),
    Message('note_on', channel=0, note=45, velocity=0, time=0),
    Message('note_on', channel=0, note=69, velocity=60, time=1),
    Message('note_on', channel=0, note=66, velocity=60, time=0),
    Message('note_on', channel=0, note=62, velocity=60, time=0),
    Message('note_on', channel=0, note=57, velocity=60, time=0),
    Message('note_on', channel=0, note=50, velocity=60, time=0),
    Message('note_on', channel=0, note=45, velocity=60, time=0),
    Message('note_on', channel=0, note=69, velocity=0, time=29),
    Message('note_on', channel=0, note=66, velocity=0, time=0),
    Message('note_on', channel=0, note=62, velocity=0, time=0),
    Message('note_on', channel=0, note=57, velocity=0, time=0),
    Message('note_on', channel=0, note=50, velocity=0, time=0),
    Message('note_on', channel=0, note=45, velocity=0, time=0),
    Message('note_on', channel=0, note=69, velocity=60, time=1),
    Message('note_on', channel=0, note=66, velocity=60, time=0),
    Message('note_on', channel=0, note=62, velocity=60, time=0),
    Message('note_on', channel=0, note=57, velocity=60, time=0),
    Message('note_on', channel=0, note=50, velocity=60, time=0),
    Message('note_on', channel=0, note=45, velocity=60, time=0),
    Message('note_on', channel=0, note=69, velocity=0, time=239),
    Message('note_on', channel=0, note=66, velocity=0, time=0),
    Message('note_on', channel=0, note=62, velocity=0, time=0),
    Message('note_on', channel=0, note=57, velocity=0, time=0),
    Message('note_on', channel=0, note=50, velocity=0, time=0),
    Message('note_on', channel=0, note=45, velocity=0, time=0),
    Message('note_on', channel=0, note=40, velocity=60, time=1),
    Message('note_on', channel=0, note=47, velocity=60, time=0),
    Message('note_on', channel=0, note=52, velocity=60, time=0),
    Message('note_on', channel=0, note=55, velocity=60, time=0),
    Message('note_on', channel=0, note=59, velocity=60, time=0),
    Message('note_on', channel=0, note=64, velocity=60, time=0),
    Message('note_on', channel=0, note=40, velocity=0, time=59),
    Message('note_on', channel=0, note=47, velocity=0, time=0),
    Message('note_on', channel=0, note=52, velocity=0, time=0),
    Message('note_on', channel=0, note=55, velocity=0, time=0),
    Message('note_on', channel=0, note=59, velocity=0, time=0),
    Message('note_on', channel=0, note=64, velocity=0, time=0),
    Message('note_on', channel=0, note=64, velocity=60, time=1),
    Message('note_on', channel=0, note=59, velocity=60, time=0),
    Message('note_on', channel=0, note=55, velocity=60, time=0),
    Message('note_on', channel=0, note=52, velocity=60, time=0),
    Message('note_on', channel=0, note=47, velocity=60, time=0),
    Message('note_on', channel=0, note=40, velocity=60, time=0),
    Message('note_on', channel=0, note=64, velocity=0, time=29),
    Message('note_on', channel=0, note=59, velocity=0, time=0),
    Message('note_on', channel=0, note=55, velocity=0, time=0),
    Message('note_on', channel=0, note=52, velocity=0, time=0),
    Message('note_on', channel=0, note=47, velocity=0, time=0),
    Message('note_on', channel=0, note=40, velocity=0, time=0),
    Message('note_on', channel=0, note=64, velocity=60, time=1),
    Message('note_on', channel=0, note=59, velocity=60, time=0),
    Message('note_on', channel=0, note=55, velocity=60, time=0),
    Message('note_on', channel=0, note=52, velocity=60, time=0),
    Message('note_on', channel=0, note=47, velocity=60, time=0),
    Message('note_on', channel=0, note=40, velocity=60, time=0),
    Message('note_on', channel=0, note=64, velocity=0, time=29),
    Message('note_on', channel=0, note=59, velocity=0, time=0),
    Message('note_on', channel=0, note=55, velocity=0, time=0),
    Message('note_on', channel=0, note=52, velocity=0, time=0),
    Message('note_on', channel=0, note=47, velocity=0, time=0),
    Message('note_on', channel=0, note=40, velocity=0, time=0),
    Message('note_on', channel=0, note=64, velocity=60, time=1),
    Message('note_on', channel=0, note=59, velocity=60, time=0),
    Message('note_on', channel=0, note=55, velocity=60, time=0),
    Message('note_on', channel=0, note=52, velocity=60, time=0),
    Message('note_on', channel=0, note=47, velocity=60, time=0),
    Message('note_on', channel=0, note=40, velocity=60, time=0),
    Message('note_on', channel=0, note=64, velocity=0, time=29),
    Message('note_on', channel=0, note=59, velocity=0, time=0),
    Message('note_on', channel=0, note=55, velocity=0, time=0),
    Message('note_on', channel=0, note=52, velocity=0, time=0),
    Message('note_on', channel=0, note=47, velocity=0, time=0),
    Message('note_on', channel=0, note=40, velocity=0, time=0),
    Message('note_on', channel=0, note=64, velocity=60, time=1),
    Message('note_on', channel=0, note=59, velocity=60, time=0),
    Message('note_on', channel=0, note=55, velocity=60, time=0),
    Message('note_on', channel=0, note=52, velocity=60, time=0),
    Message('note_on', channel=0, note=47, velocity=60, time=0),
    Message('note_on', channel=0, note=40, velocity=60, time=0),
    Message('note_on', channel=0, note=64, velocity=0, time=29),
    Message('note_on', channel=0, note=59, velocity=0, time=0),
    Message('note_on', channel=0, note=55, velocity=0, time=0),
    Message('note_on', channel=0, note=52, velocity=0, time=0),
    Message('note_on', channel=0, note=47, velocity=0, time=0),
    Message('note_on', channel=0, note=40, velocity=0, time=0),
    Message('note_on', channel=0, note=64, velocity=60, time=1),
    Message('note_on', channel=0, note=59, velocity=60, time=0),
    Message('note_on', channel=0, note=55, velocity=60, time=0),
    Message('note_on', channel=0, note=52, velocity=60, time=0),
    Message('note_on', channel=0, note=47, velocity=60, time=0),
    Message('note_on', channel=0, note=40, velocity=60, time=0),
    Message('note_on', channel=0, note=64, velocity=0, time=59),
    Message('note_on', channel=0, note=59, velocity=0, time=0),
    Message('note_on', channel=0, note=55, velocity=0, time=0),
    Message('note_on', channel=0, note=52, velocity=0, time=0),
    Message('note_on', channel=0, note=47, velocity=0, time=0),
    Message('note_on', channel=0, note=40, velocity=0, time=0),
    Message('note_on', channel=0, note=64, velocity=60, time=1),
    Message('note_on', channel=0, note=59, velocity=60, time=0),
    Message('note_on', channel=0, note=55, velocity=60, time=0),
    Message('note_on', channel=0, note=52, velocity=60, time=0),
    Message('note_on', channel=0, note=47, velocity=60, time=0),
    Message('note_on', channel=0, note=40, velocity=60, time=0),
    Message('note_on', channel=0, note=64, velocity=0, time=59),
    Message('note_on', channel=0, note=59, velocity=0, time=0),
    Message('note_on', channel=0, note=55, velocity=0, time=0),
    Message('note_on', channel=0, note=52, velocity=0, time=0),
    Message('note_on', channel=0, note=47, velocity=0, time=0),
    Message('note_on', channel=0, note=40, velocity=0, time=0),
    Message('note_on', channel=0, note=64, velocity=60, time=1),
    Message('note_on', channel=0, note=59, velocity=60, time=0),
    Message('note_on', channel=0, note=55, velocity=60, time=0),
    Message('note_on', channel=0, note=52, velocity=60, time=0),
    Message('note_on', channel=0, note=47, velocity=60, time=0),
    Message('note_on', channel=0, note=40, velocity=60, time=0),
    Message('note_on', channel=0, note=64, velocity=0, time=59),
    Message('note_on', channel=0, note=59, velocity=0, time=0),
    Message('note_on', channel=0, note=55, velocity=0, time=0),
    Message('note_on', channel=0, note=52, velocity=0, time=0),
    Message('note_on', channel=0, note=47, velocity=0, time=0),
    Message('note_on', channel=0, note=40, velocity=0, time=0),
    Message('note_on', channel=0, note=64, velocity=60, time=1),
    Message('note_on', channel=0, note=59, velocity=60, time=0),
    Message('note_on', channel=0, note=55, velocity=60, time=0),
    Message('note_on', channel=0, note=52, velocity=60, time=0),
    Message('note_on', channel=0, note=47, velocity=60, time=0),
    Message('note_on', channel=0, note=40, velocity=60, time=0),
    Message('note_on', channel=0, note=64, velocity=0, time=29),
    Message('note_on', channel=0, note=59, velocity=0, time=0),
    Message('note_on', channel=0, note=55, velocity=0, time=0),
    Message('note_on', channel=0, note=52, velocity=0, time=0),
    Message('note_on', channel=0, note=47, velocity=0, time=0),
    Message('note_on', channel=0, note=40, velocity=0, time=0),
    Message('note_on', channel=0, note=64, velocity=60, time=1),
    Message('note_on', channel=0, note=59, velocity=60, time=0),
    Message('note_on', channel=0, note=55, velocity=60, time=0),
    Message('note_on', channel=0, note=52, velocity=60, time=0),
    Message('note_on', channel=0, note=47, velocity=60, time=0),
    Message('note_on', channel=0, note=40, velocity=60, time=0),
    Message('note_on', channel=0, note=64, velocity=0, time=29),
    Message('note_on', channel=0, note=59, velocity=0, time=0),
    Message('note_on', channel=0, note=55, velocity=0, time=0),
    Message('note_on', channel=0, note=52, velocity=0, time=0),
    Message('note_on', channel=0, note=47, velocity=0, time=0),
    Message('note_on', channel=0, note=40, velocity=0, time=0),
    Message('note_on', channel=0, note=64, velocity=60, time=1),
    Message('note_on', channel=0, note=59, velocity=60, time=0),
    Message('note_on', channel=0, note=55, velocity=60, time=0),
    Message('note_on', channel=0, note=52, velocity=60, time=0),
    Message('note_on', channel=0, note=47, velocity=60, time=0),
    Message('note_on', channel=0, note=40, velocity=60, time=0),
    Message('note_on', channel=0, note=64, velocity=0, time=59),
    Message('note_on', channel=0, note=59, velocity=0, time=0),
    Message('note_on', channel=0, note=55, velocity=0, time=0),
    Message('note_on', channel=0, note=52, velocity=0, time=0),
    Message('note_on', channel=0, note=47, velocity=0, time=0),
    Message('note_on', channel=0, note=40, velocity=0, time=0),
    Message('note_on', channel=0, note=42, velocity=60, time=1),
    Message('note_on', channel=0, note=49, velocity=60, time=0),
    Message('note_on', channel=0, note=54, velocity=60, time=0),
    Message('note_on', channel=0, note=58, velocity=60, time=0),
    Message('note_on', channel=0, note=61, velocity=60, time=0),
    Message('note_on', channel=0, note=66, velocity=60, time=0),
    Message('note_on', channel=0, note=42, velocity=0, time=59),
    Message('note_on', channel=0, note=49, velocity=0, time=0),
    Message('note_on', channel=0, note=54, velocity=0, time=0),
    Message('note_on', channel=0, note=58, velocity=0, time=0),
    Message('note_on', channel=0, note=61, velocity=0, time=0),
    Message('note_on', channel=0, note=66, velocity=0, time=0),
    Message('note_on', channel=0, note=66, velocity=60, time=1),
    Message('note_on', channel=0, note=61, velocity=60, time=0),
    Message('note_on', channel=0, note=58, velocity=60, time=0),
    Message('note_on', channel=0, note=54, velocity=60, time=0),
    Message('note_on', channel=0, note=49, velocity=60, time=0),
    Message('note_on', channel=0, note=42, velocity=60, time=0),
    Message('note_on', channel=0, note=66, velocity=0, time=29),
    Message('note_on', channel=0, note=61, velocity=0, time=0),
    Message('note_on', channel=0, note=58, velocity=0, time=0),
    Message('note_on', channel=0, note=54, velocity=0, time=0),
    Message('note_on', channel=0, note=49, velocity=0, time=0),
    Message('note_on', channel=0, note=42, velocity=0, time=0),
    Message('note_on', channel=0, note=66, velocity=60, time=1),
    Message('note_on', channel=0, note=61, velocity=60, time=0),
    Message('note_on', channel=0, note=58, velocity=60, time=0),
    Message('note_on', channel=0, note=54, velocity=60, time=0),
    Message('note_on', channel=0, note=49, velocity=60, time=0),
    Message('note_on', channel=0, note=42, velocity=60, time=0),
    Message('note_on', channel=0, note=66, velocity=0, time=29),
    Message('note_on', channel=0, note=61, velocity=0, time=0),
    Message('note_on', channel=0, note=58, velocity=0, time=0),
    Message('note_on', channel=0, note=54, velocity=0, time=0),
    Message('note_on', channel=0, note=49, velocity=0, time=0),
    Message('note_on', channel=0, note=42, velocity=0, time=0),
    Message('note_on', channel=0, note=66, velocity=60, time=1),
    Message('note_on', channel=0, note=61, velocity=60, time=0),
    Message('note_on', channel=0, note=58, velocity=60, time=0),
    Message('note_on', channel=0, note=54, velocity=60, time=0),
    Message('note_on', channel=0, note=49, velocity=60, time=0),
    Message('note_on', channel=0, note=42, velocity=60, time=0),
    Message('note_on', channel=0, note=66, velocity=0, time=29),
    Message('note_on', channel=0, note=61, velocity=0, time=0),
    Message('note_on', channel=0, note=58, velocity=0, time=0),
    Message('note_on', channel=0, note=54, velocity=0, time=0),
    Message('note_on', channel=0, note=49, velocity=0, time=0),
    Message('note_on', channel=0, note=42, velocity=0, time=0),
    Message('note_on', channel=0, note=66, velocity=60, time=1),
    Message('note_on', channel=0, note=61, velocity=60, time=0),
    Message('note_on', channel=0, note=58, velocity=60, time=0),
    Message('note_on', channel=0, note=54, velocity=60, time=0),
    Message('note_on', channel=0, note=49, velocity=60, time=0),
    Message('note_on', channel=0, note=42, velocity=60, time=0),
    Message('note_on', channel=0, note=66, velocity=0, time=59),
    Message('note_on', channel=0, note=61, velocity=0, time=0),
    Message('note_on', channel=0, note=58, velocity=0, time=0),
    Message('note_on', channel=0, note=54, velocity=0, time=0),
    Message('note_on', channel=0, note=49, velocity=0, time=0),
    Message('note_on', channel=0, note=42, velocity=0, time=0),
    Message('note_on', channel=0, note=66, velocity=60, time=1),
    Message('note_on', channel=0, note=61, velocity=60, time=0),
    Message('note_on', channel=0, note=58, velocity=60, time=0),
    Message('note_on', channel=0, note=54, velocity=60, time=0),
    Message('note_on', channel=0, note=49, velocity=60, time=0),
    Message('note_on', channel=0, note=42, velocity=60, time=0),
    Message('note_on', channel=0, note=66, velocity=0, time=29),
    Message('note_on', channel=0, note=61, velocity=0, time=0),
    Message('note_on', channel=0, note=58, velocity=0, time=0),
    Message('note_on', channel=0, note=54, velocity=0, time=0),
    Message('note_on', channel=0, note=49, velocity=0, time=0),
    Message('note_on', channel=0, note=42, velocity=0, time=0),
    Message('note_on', channel=0, note=66, velocity=60, time=1),
    Message('note_on', channel=0, note=61, velocity=60, time=0),
    Message('note_on', channel=0, note=58, velocity=60, time=0),
    Message('note_on', channel=0, note=54, velocity=60, time=0),
    Message('note_on', channel=0, note=49, velocity=60, time=0),
    Message('note_on', channel=0, note=42, velocity=60, time=0),
    Message('note_on', channel=0, note=66, velocity=0, time=239),
    Message('note_on', channel=0, note=61, velocity=0, time=0),
    Message('note_on', channel=0, note=58, velocity=0, time=0),
    Message('note_on', channel=0, note=54, velocity=0, time=0),
    Message('note_on', channel=0, note=49, velocity=0, time=0),
    Message('note_on', channel=0, note=42, velocity=0, time=0),
    Message('control_change', channel=0, control=7, value=90, time=1),
    Message('note_on', channel=0, note=59, velocity=60, time=0),
    Message('note_on', channel=0, note=55, velocity=60, time=0),
    Message('note_on', channel=0, note=50, velocity=60, time=0),
    Message('note_on', channel=0, note=59, velocity=0, time=239),
    Message('note_on', channel=0, note=55, velocity=0, time=0),
    Message('note_on', channel=0, note=50, velocity=0, time=0),
    Message('note_on', channel=0, note=59, velocity=60, time=1),
    Message('note_on', channel=0, note=55, velocity=60, time=0),
    Message('note_on', channel=0, note=50, velocity=60, time=0),
    Message('note_on', channel=0, note=59, velocity=0, time=239),
    Message('note_on', channel=0, note=55, velocity=0, time=0),
    Message('note_on', channel=0, note=50, velocity=0, time=0),
    Message('note_on', channel=0, note=50, velocity=60, time=1),
    Message('note_on', channel=0, note=54, velocity=60, time=0),
    Message('note_on', channel=0, note=57, velocity=60, time=0),
    Message('note_on', channel=0, note=50, velocity=0, time=239),
    Message('note_on', channel=0, note=54, velocity=0, time=0),
    Message('note_on', channel=0, note=57, velocity=0, time=0),
    Message('note_on', channel=0, note=57, velocity=60, time=1),
    Message('note_on', channel=0, note=54, velocity=60, time=0),
    Message('note_on', channel=0, note=50, velocity=60, time=0),
    Message('note_on', channel=0, note=57, velocity=0, time=239),
    Message('note_on', channel=0, note=54, velocity=0, time=0),
    Message('note_on', channel=0, note=50, velocity=0, time=0),
    Message('note_on', channel=0, note=49, velocity=60, time=1),
    Message('note_on', channel=0, note=54, velocity=60, time=0),
    Message('note_on', channel=0, note=58, velocity=60, time=0),
    Message('note_on', channel=0, note=49, velocity=0, time=239),
    Message('note_on', channel=0, note=54, velocity=0, time=0),
    Message('note_on', channel=0, note=58, velocity=0, time=0),
    Message('note_on', channel=0, note=58, velocity=60, time=1),
    Message('note_on', channel=0, note=54, velocity=60, time=0),
    Message('note_on', channel=0, note=49, velocity=60, time=0),
    Message('note_on', channel=0, note=58, velocity=0, time=239),
    Message('note_on', channel=0, note=54, velocity=0, time=0),
    Message('note_on', channel=0, note=49, velocity=0, time=0),
    Message('note_on', channel=0, note=50, velocity=60, time=1),
    Message('note_on', channel=0, note=54, velocity=60, time=0),
    Message('note_on', channel=0, note=59, velocity=60, time=0),
    Message('note_on', channel=0, note=50, velocity=0, time=239),
    Message('note_on', channel=0, note=54, velocity=0, time=0),
    Message('note_on', channel=0, note=59, velocity=0, time=0),
    Message('note_on', channel=0, note=59, velocity=60, time=1),
    Message('note_on', channel=0, note=54, velocity=60, time=0),
    Message('note_on', channel=0, note=50, velocity=60, time=0),
    Message('note_on', channel=0, note=59, velocity=0, time=239),
    Message('note_on', channel=0, note=54, velocity=0, time=0),
    Message('note_on', channel=0, note=50, velocity=0, time=0),
    Message('note_on', channel=0, note=59, velocity=60, time=1),
    Message('note_on', channel=0, note=55, velocity=60, time=0),
    Message('note_on', channel=0, note=50, velocity=60, time=0),
    Message('note_on', channel=0, note=59, velocity=0, time=239),
    Message('note_on', channel=0, note=55, velocity=0, time=0),
    Message('note_on', channel=0, note=50, velocity=0, time=0),
    Message('note_on', channel=0, note=59, velocity=60, time=1),
    Message('note_on', channel=0, note=55, velocity=60, time=0),
    Message('note_on', channel=0, note=50, velocity=60, time=0),
    Message('note_on', channel=0, note=59, velocity=0, time=239),
    Message('note_on', channel=0, note=55, velocity=0, time=0),
    Message('note_on', channel=0, note=50, velocity=0, time=0),
    Message('note_on', channel=0, note=50, velocity=60, time=1),
    Message('note_on', channel=0, note=54, velocity=60, time=0),
    Message('note_on', channel=0, note=57, velocity=60, time=0),
    Message('note_on', channel=0, note=50, velocity=0, time=239),
    Message('note_on', channel=0, note=54, velocity=0, time=0),
    Message('note_on', channel=0, note=57, velocity=0, time=0),
    Message('note_on', channel=0, note=57, velocity=60, time=1),
    Message('note_on', channel=0, note=54, velocity=60, time=0),
    Message('note_on', channel=0, note=50, velocity=60, time=0),
    Message('note_on', channel=0, note=57, velocity=0, time=239),
    Message('note_on', channel=0, note=54, velocity=0, time=0),
    Message('note_on', channel=0, note=50, velocity=0, time=0),
    Message('note_on', channel=0, note=52, velocity=60, time=1),
    Message('note_on', channel=0, note=55, velocity=60, time=0),
    Message('note_on', channel=0, note=59, velocity=60, time=0),
    Message('note_on', channel=0, note=52, velocity=0, time=239),
    Message('note_on', channel=0, note=55, velocity=0, time=0),
    Message('note_on', channel=0, note=59, velocity=0, time=0),
    Message('note_on', channel=0, note=59, velocity=60, time=1),
    Message('note_on', channel=0, note=55, velocity=60, time=0),
    Message('note_on', channel=0, note=52, velocity=60, time=0),
    Message('note_on', channel=0, note=59, velocity=0, time=239),
    Message('note_on', channel=0, note=55, velocity=0, time=0),
    Message('note_on', channel=0, note=52, velocity=0, time=0),
    Message('note_on', channel=0, note=49, velocity=60, time=1),
    Message('note_on', channel=0, note=54, velocity=60, time=0),
    Message('note_on', channel=0, note=58, velocity=60, time=0),
    Message('note_on', channel=0, note=49, velocity=0, time=479),
    Message('note_on', channel=0, note=54, velocity=0, time=0),
    Message('note_on', channel=0, note=58, velocity=0, time=0),
    Message('note_on', channel=0, note=42, velocity=60, time=1),
    Message('note_on', channel=0, note=47, velocity=60, time=0),
    Message('note_on', channel=0, note=54, velocity=60, time=0),
    Message('note_on', channel=0, note=59, velocity=60, time=0),
    Message('note_on', channel=0, note=62, velocity=60, time=0),
    Message('note_on', channel=0, note=66, velocity=60, time=0),
    Message('note_on', channel=0, note=42, velocity=0, time=239),
    Message('note_on', channel=0, note=47, velocity=0, time=0),
    Message('note_on', channel=0, note=54, velocity=0, time=0),
    Message('note_on', channel=0, note=59, velocity=0, time=0),
    Message('note_on', channel=0, note=62, velocity=0, time=0),
    Message('note_on', channel=0, note=66, velocity=0, time=0),
    Message('note_on', channel=0, note=42, velocity=60, time=241),
    Message('note_on', channel=0, note=49, velocity=60, time=0),
    Message('note_on', channel=0, note=54, velocity=60, time=0),
    Message('note_on', channel=0, note=58, velocity=60, time=0),
    Message('note_on', channel=0, note=61, velocity=60, time=0),
    Message('note_on', channel=0, note=66, velocity=60, time=0),
    Message('note_on', channel=0, note=42, velocity=0, time=239),
    Message('note_on', channel=0, note=49, velocity=0, time=0),
    Message('note_on', channel=0, note=54, velocity=0, time=0),
    Message('note_on', channel=0, note=58, velocity=0, time=0),
    Message('note_on', channel=0, note=61, velocity=0, time=0),
    Message('note_on', channel=0, note=66, velocity=0, time=0),
    Message('note_on', channel=0, note=40, velocity=60, time=241),
    Message('note_on', channel=0, note=45, velocity=60, time=0),
    Message('note_on', channel=0, note=52, velocity=60, time=0),
    Message('note_on', channel=0, note=57, velocity=60, time=0),
    Message('note_on', channel=0, note=61, velocity=60, time=0),
    Message('note_on', channel=0, note=64, velocity=60, time=0),
    Message('note_on', channel=0, note=40, velocity=0, time=239),
    Message('note_on', channel=0, note=45, velocity=0, time=0),
    Message('note_on', channel=0, note=52, velocity=0, time=0),
    Message('note_on', channel=0, note=57, velocity=0, time=0),
    Message('note_on', channel=0, note=61, velocity=0, time=0),
    Message('note_on', channel=0, note=64, velocity=0, time=0),
    Message('note_on', channel=0, note=57, velocity=60, time=1),
    Message('note_on', channel=0, note=57, velocity=0, time=119),
    Message('note_on', channel=0, note=52, velocity=60, time=1),
    Message('note_on', channel=0, note=52, velocity=0, time=119),
    Message('note_on', channel=0, note=40, velocity=60, time=1),
    Message('note_on', channel=0, note=47, velocity=60, time=0),
    Message('note_on', channel=0, note=52, velocity=60, time=0),
    Message('note_on', channel=0, note=56, velocity=60, time=0),
    Message('note_on', channel=0, note=59, velocity=60, time=0),
    Message('note_on', channel=0, note=64, velocity=60, time=0),
    Message('note_on', channel=0, note=40, velocity=0, time=239),
    Message('note_on', channel=0, note=47, velocity=0, time=0),
    Message('note_on', channel=0, note=52, velocity=0, time=0),
    Message('note_on', channel=0, note=56, velocity=0, time=0),
    Message('note_on', channel=0, note=59, velocity=0, time=0),
    Message('note_on', channel=0, note=64, velocity=0, time=0),
    Message('note_on', channel=0, note=43, velocity=60, time=241),
    Message('note_on', channel=0, note=50, velocity=60, time=0),
    Message('note_on', channel=0, note=55, velocity=60, time=0),
    Message('note_on', channel=0, note=59, velocity=60, time=0),
    Message('note_on', channel=0, note=62, velocity=60, time=0),
    Message('note_on', channel=0, note=67, velocity=60, time=0),
    Message('note_on', channel=0, note=43, velocity=0, time=239),
    Message('note_on', channel=0, note=50, velocity=0, time=0),
    Message('note_on', channel=0, note=55, velocity=0, time=0),
    Message('note_on', channel=0, note=59, velocity=0, time=0),
    Message('note_on', channel=0, note=62, velocity=0, time=0),
    Message('note_on', channel=0, note=67, velocity=0, time=0),
    Message('note_on', channel=0, note=55, velocity=60, time=61),
    Message('note_on', channel=0, note=55, velocity=0, time=59),
    Message('note_on', channel=0, note=57, velocity=60, time=1),
    Message('note_on', channel=0, note=57, velocity=0, time=59),
    Message('note_on', channel=0, note=62, velocity=60, time=1),
    Message('note_on', channel=0, note=62, velocity=0, time=59),
    Message('note_on', channel=0, note=45, velocity=60, time=1),
    Message('note_on', channel=0, note=50, velocity=60, time=0),
    Message('note_on', channel=0, note=57, velocity=60, time=0),
    Message('note_on', channel=0, note=62, velocity=60, time=0),
    Message('note_on', channel=0, note=66, velocity=60, time=0),
    Message('note_on', channel=0, note=69, velocity=60, time=0),
    Message('note_on', channel=0, note=45, velocity=0, time=239),
    Message('note_on', channel=0, note=50, velocity=0, time=0),
    Message('note_on', channel=0, note=57, velocity=0, time=0),
    Message('note_on', channel=0, note=62, velocity=0, time=0),
    Message('note_on', channel=0, note=66, velocity=0, time=0),
    Message('note_on', channel=0, note=69, velocity=0, time=0),
    Message('note_on', channel=0, note=66, velocity=60, time=1),
    Message('note_on', channel=0, note=66, velocity=0, time=119),
    Message('note_on', channel=0, note=62, velocity=60, time=1),
    Message('note_on', channel=0, note=62, velocity=0, time=119),
    Message('note_on', channel=0, note=40, velocity=60, time=1),
    Message('note_on', channel=0, note=47, velocity=60, time=0),
    Message('note_on', channel=0, note=52, velocity=60, time=0),
    Message('note_on', channel=0, note=55, velocity=60, time=0),
    Message('note_on', channel=0, note=59, velocity=60, time=0),
    Message('note_on', channel=0, note=64, velocity=60, time=0),
    Message('note_on', channel=0, note=40, velocity=0, time=239),
    Message('note_on', channel=0, note=47, velocity=0, time=0),
    Message('note_on', channel=0, note=52, velocity=0, time=0),
    Message('note_on', channel=0, note=55, velocity=0, time=0),
    Message('note_on', channel=0, note=59, velocity=0, time=0),
    Message('note_on', channel=0, note=64, velocity=0, time=0),
    Message('note_on', channel=0, note=54, velocity=60, time=61),
    Message('note_on', channel=0, note=54, velocity=0, time=29),
    Message('note_on', channel=0, note=55, velocity=60, time=1),
    Message('note_on', channel=0, note=55, velocity=0, time=29),
    Message('note_on', channel=0, note=54, velocity=60, time=1),
    Message('note_on', channel=0, note=54, velocity=0, time=119),
    Message('note_on', channel=0, note=42, velocity=60, time=1),
    Message('note_on', channel=0, note=49, velocity=60, time=0),
    Message('note_on', channel=0, note=54, velocity=60, time=0),
    Message('note_on', channel=0, note=58, velocity=60, time=0),
    Message('note_on', channel=0, note=61, velocity=60, time=0),
    Message('note_on', channel=0, note=66, velocity=60, time=0),
    Message('note_on', channel=0, note=42, velocity=0, time=239),
    Message('note_on', channel=0, note=49, velocity=0, time=0),
    Message('note_on', channel=0, note=54, velocity=0, time=0),
    Message('note_on', channel=0, note=58, velocity=0, time=0),
    Message('note_on', channel=0, note=61, velocity=0, time=0),
    Message('note_on', channel=0, note=66, velocity=0, time=0),
    Message('note_on', channel=0, note=54, velocity=60, time=241),
    Message('note_on', channel=0, note=47, velocity=60, time=0),
    Message('note_on', channel=0, note=42, velocity=60, time=0),
    Message('note_on', channel=0, note=59, velocity=60, time=0),
    Message('note_on', channel=0, note=62, velocity=60, time=0),
    Message('note_on', channel=0, note=66, velocity=60, time=0),
    Message('note_on', channel=0, note=54, velocity=0, time=59),
    Message('note_on', channel=0, note=47, velocity=0, time=0),
    Message('note_on', channel=0, note=42, velocity=0, time=0),
    Message('note_on', channel=0, note=59, velocity=0, time=0),
    Message('note_on', channel=0, note=62, velocity=0, time=0),
    Message('note_on', channel=0, note=66, velocity=0, time=0),
    Message('note_on', channel=0, note=66, velocity=60, time=1),
    Message('note_on', channel=0, note=59, velocity=60, time=0),
    Message('note_on', channel=0, note=62, velocity=60, time=0),
    Message('note_on', channel=0, note=54, velocity=60, time=0),
    Message('note_on', channel=0, note=47, velocity=60, time=0),
    Message('note_on', channel=0, note=42, velocity=60, time=0),
    Message('note_on', channel=0, note=66, velocity=0, time=29),
    Message('note_on', channel=0, note=59, velocity=0, time=0),
    Message('note_on', channel=0, note=62, velocity=0, time=0),
    Message('note_on', channel=0, note=54, velocity=0, time=0),
    Message('note_on', channel=0, note=47, velocity=0, time=0),
    Message('note_on', channel=0, note=42, velocity=0, time=0),
    Message('note_on', channel=0, note=66, velocity=60, time=1),
    Message('note_on', channel=0, note=59, velocity=60, time=0),
    Message('note_on', channel=0, note=62, velocity=60, time=0),
    Message('note_on', channel=0, note=54, velocity=60, time=0),
    Message('note_on', channel=0, note=47, velocity=60, time=0),
    Message('note_on', channel=0, note=42, velocity=60, time=0),
    Message('note_on', channel=0, note=66, velocity=0, time=29),
    Message('note_on', channel=0, note=59, velocity=0, time=0),
    Message('note_on', channel=0, note=62, velocity=0, time=0),
    Message('note_on', channel=0, note=54, velocity=0, time=0),
    Message('note_on', channel=0, note=47, velocity=0, time=0),
    Message('note_on', channel=0, note=42, velocity=0, time=0),
    Message('note_on', channel=0, note=66, velocity=60, time=1),
    Message('note_on', channel=0, note=62, velocity=60, time=0),
    Message('note_on', channel=0, note=59, velocity=60, time=0),
    Message('note_on', channel=0, note=54, velocity=60, time=0),
    Message('note_on', channel=0, note=47, velocity=60, time=0),
    Message('note_on', channel=0, note=42, velocity=60, time=0),
    Message('note_on', channel=0, note=66, velocity=0, time=59),
    Message('note_on', channel=0, note=62, velocity=0, time=0),
    Message('note_on', channel=0, note=59, velocity=0, time=0),
    Message('note_on', channel=0, note=54, velocity=0, time=0),
    Message('note_on', channel=0, note=47, velocity=0, time=0),
    Message('note_on', channel=0, note=42, velocity=0, time=0),
    Message('note_on', channel=0, note=66, velocity=60, time=1),
    Message('note_on', channel=0, note=62, velocity=60, time=0),
    Message('note_on', channel=0, note=59, velocity=60, time=0),
    Message('note_on', channel=0, note=54, velocity=60, time=0),
    Message('note_on', channel=0, note=47, velocity=60, time=0),
    Message('note_on', channel=0, note=42, velocity=60, time=0),
    Message('note_on', channel=0, note=66, velocity=0, time=29),
    Message('note_on', channel=0, note=62, velocity=0, time=0),
    Message('note_on', channel=0, note=59, velocity=0, time=0),
    Message('note_on', channel=0, note=54, velocity=0, time=0),
    Message('note_on', channel=0, note=47, velocity=0, time=0),
    Message('note_on', channel=0, note=42, velocity=0, time=0),
    Message('note_on', channel=0, note=66, velocity=60, time=1),
    Message('note_on', channel=0, note=62, velocity=60, time=0),
    Message('note_on', channel=0, note=59, velocity=60, time=0),
    Message('note_on', channel=0, note=54, velocity=60, time=0),
    Message('note_on', channel=0, note=47, velocity=60, time=0),
    Message('note_on', channel=0, note=42, velocity=60, time=0),
    Message('note_on', channel=0, note=66, velocity=0, time=29),
    Message('note_on', channel=0, note=62, velocity=0, time=0),
    Message('note_on', channel=0, note=59, velocity=0, time=0),
    Message('note_on', channel=0, note=54, velocity=0, time=0),
    Message('note_on', channel=0, note=47, velocity=0, time=0),
    Message('note_on', channel=0, note=42, velocity=0, time=0),
    Message('note_on', channel=0, note=66, velocity=60, time=1),
    Message('note_on', channel=0, note=62, velocity=60, time=0),
    Message('note_on', channel=0, note=59, velocity=60, time=0),
    Message('note_on', channel=0, note=54, velocity=60, time=0),
    Message('note_on', channel=0, note=47, velocity=60, time=0),
    Message('note_on', channel=0, note=42, velocity=60, time=0),
    Message('note_on', channel=0, note=66, velocity=0, time=29),
    Message('note_on', channel=0, note=62, velocity=0, time=0),
    Message('note_on', channel=0, note=59, velocity=0, time=0),
    Message('note_on', channel=0, note=54, velocity=0, time=0),
    Message('note_on', channel=0, note=47, velocity=0, time=0),
    Message('note_on', channel=0, note=42, velocity=0, time=0),
    Message('note_on', channel=0, note=66, velocity=60, time=1),
    Message('note_on', channel=0, note=62, velocity=60, time=0),
    Message('note_on', channel=0, note=59, velocity=60, time=0),
    Message('note_on', channel=0, note=54, velocity=60, time=0),
    Message('note_on', channel=0, note=47, velocity=60, time=0),
    Message('note_on', channel=0, note=42, velocity=60, time=0),
    Message('note_on', channel=0, note=66, velocity=0, time=29),
    Message('note_on', channel=0, note=62, velocity=0, time=0),
    Message('note_on', channel=0, note=59, velocity=0, time=0),
    Message('note_on', channel=0, note=54, velocity=0, time=0),
    Message('note_on', channel=0, note=47, velocity=0, time=0),
    Message('note_on', channel=0, note=42, velocity=0, time=0),
    Message('note_on', channel=0, note=66, velocity=60, time=1),
    Message('note_on', channel=0, note=62, velocity=60, time=0),
    Message('note_on', channel=0, note=59, velocity=60, time=0),
    Message('note_on', channel=0, note=54, velocity=60, time=0),
    Message('note_on', channel=0, note=47, velocity=60, time=0),
    Message('note_on', channel=0, note=42, velocity=60, time=0),
    Message('note_on', channel=0, note=66, velocity=0, time=29),
    Message('note_on', channel=0, note=62, velocity=0, time=0),
    Message('note_on', channel=0, note=59, velocity=0, time=0),
    Message('note_on', channel=0, note=54, velocity=0, time=0),
    Message('note_on', channel=0, note=47, velocity=0, time=0),
    Message('note_on', channel=0, note=42, velocity=0, time=0),
    Message('note_on', channel=0, note=66, velocity=60, time=1),
    Message('note_on', channel=0, note=62, velocity=60, time=0),
    Message('note_on', channel=0, note=59, velocity=60, time=0),
    Message('note_on', channel=0, note=54, velocity=60, time=0),
    Message('note_on', channel=0, note=47, velocity=60, time=0),
    Message('note_on', channel=0, note=42, velocity=60, time=0),
    Message('note_on', channel=0, note=66, velocity=0, time=59),
    Message('note_on', channel=0, note=62, velocity=0, time=0),
    Message('note_on', channel=0, note=59, velocity=0, time=0),
    Message('note_on', channel=0, note=54, velocity=0, time=0),
    Message('note_on', channel=0, note=47, velocity=0, time=0),
    Message('note_on', channel=0, note=42, velocity=0, time=0),
    Message('note_on', channel=0, note=66, velocity=60, time=1),
    Message('note_on', channel=0, note=62, velocity=60, time=0),
    Message('note_on', channel=0, note=59, velocity=60, time=0),
    Message('note_on', channel=0, note=54, velocity=60, time=0),
    Message('note_on', channel=0, note=47, velocity=60, time=0),
    Message('note_on', channel=0, note=42, velocity=60, time=0),
    Message('note_on', channel=0, note=66, velocity=0, time=29),
    Message('note_on', channel=0, note=62, velocity=0, time=0),
    Message('note_on', channel=0, note=59, velocity=0, time=0),
    Message('note_on', channel=0, note=54, velocity=0, time=0),
    Message('note_on', channel=0, note=47, velocity=0, time=0),
    Message('note_on', channel=0, note=42, velocity=0, time=0),
    Message('note_on', channel=0, note=66, velocity=60, time=1),
    Message('note_on', channel=0, note=62, velocity=60, time=0),
    Message('note_on', channel=0, note=59, velocity=60, time=0),
    Message('note_on', channel=0, note=54, velocity=60, time=0),
    Message('note_on', channel=0, note=47, velocity=60, time=0),
    Message('note_on', channel=0, note=42, velocity=60, time=0),
    Message('note_on', channel=0, note=66, velocity=0, time=59),
    Message('note_on', channel=0, note=62, velocity=0, time=0),
    Message('note_on', channel=0, note=59, velocity=0, time=0),
    Message('note_on', channel=0, note=54, velocity=0, time=0),
    Message('note_on', channel=0, note=47, velocity=0, time=0),
    Message('note_on', channel=0, note=42, velocity=0, time=0),
    Message('note_on', channel=0, note=42, velocity=60, time=1),
    Message('note_on', channel=0, note=49, velocity=60, time=0),
    Message('note_on', channel=0, note=54, velocity=60, time=0),
    Message('note_on', channel=0, note=58, velocity=60, time=0),
    Message('note_on', channel=0, note=61, velocity=60, time=0),
    Message('note_on', channel=0, note=66, velocity=60, time=0),
    Message('note_on', channel=0, note=42, velocity=0, time=59),
    Message('note_on', channel=0, note=49, velocity=0, time=0),
    Message('note_on', channel=0, note=54, velocity=0, time=0),
    Message('note_on', channel=0, note=58, velocity=0, time=0),
    Message('note_on', channel=0, note=61, velocity=0, time=0),
    Message('note_on', channel=0, note=66, velocity=0, time=0),
    Message('note_on', channel=0, note=66, velocity=60, time=1),
    Message('note_on', channel=0, note=61, velocity=60, time=0),
    Message('note_on', channel=0, note=58, velocity=60, time=0),
    Message('note_on', channel=0, note=54, velocity=60, time=0),
    Message('note_on', channel=0, note=49, velocity=60, time=0),
    Message('note_on', channel=0, note=42, velocity=60, time=0),
    Message('note_on', channel=0, note=66, velocity=0, time=29),
    Message('note_on', channel=0, note=61, velocity=0, time=0),
    Message('note_on', channel=0, note=58, velocity=0, time=0),
    Message('note_on', channel=0, note=54, velocity=0, time=0),
    Message('note_on', channel=0, note=49, velocity=0, time=0),
    Message('note_on', channel=0, note=42, velocity=0, time=0),
    Message('note_on', channel=0, note=66, velocity=60, time=1),
    Message('note_on', channel=0, note=61, velocity=60, time=0),
    Message('note_on', channel=0, note=58, velocity=60, time=0),
    Message('note_on', channel=0, note=54, velocity=60, time=0),
    Message('note_on', channel=0, note=49, velocity=60, time=0),
    Message('note_on', channel=0, note=42, velocity=60, time=0),
    Message('note_on', channel=0, note=66, velocity=0, time=29),
    Message('note_on', channel=0, note=61, velocity=0, time=0),
    Message('note_on', channel=0, note=58, velocity=0, time=0),
    Message('note_on', channel=0, note=54, velocity=0, time=0),
    Message('note_on', channel=0, note=49, velocity=0, time=0),
    Message('note_on', channel=0, note=42, velocity=0, time=0),
    Message('note_on', channel=0, note=66, velocity=60, time=1),
    Message('note_on', channel=0, note=58, velocity=60, time=0),
    Message('note_on', channel=0, note=61, velocity=60, time=0),
    Message('note_on', channel=0, note=54, velocity=60, time=0),
    Message('note_on', channel=0, note=49, velocity=60, time=0),
    Message('note_on', channel=0, note=42, velocity=60, time=0),
    Message('note_on', channel=0, note=66, velocity=0, time=59),
    Message('note_on', channel=0, note=58, velocity=0, time=0),
    Message('note_on', channel=0, note=61, velocity=0, time=0),
    Message('note_on', channel=0, note=54, velocity=0, time=0),
    Message('note_on', channel=0, note=49, velocity=0, time=0),
    Message('note_on', channel=0, note=42, velocity=0, time=0),
    Message('note_on', channel=0, note=66, velocity=60, time=1),
    Message('note_on', channel=0, note=61, velocity=60, time=0),
    Message('note_on', channel=0, note=58, velocity=60, time=0),
    Message('note_on', channel=0, note=54, velocity=60, time=0),
    Message('note_on', channel=0, note=49, velocity=60, time=0),
    Message('note_on', channel=0, note=42, velocity=60, time=0),
    Message('note_on', channel=0, note=66, velocity=0, time=29),
    Message('note_on', channel=0, note=61, velocity=0, time=0),
    Message('note_on', channel=0, note=58, velocity=0, time=0),
    Message('note_on', channel=0, note=54, velocity=0, time=0),
    Message('note_on', channel=0, note=49, velocity=0, time=0),
    Message('note_on', channel=0, note=42, velocity=0, time=0),
    Message('note_on', channel=0, note=66, velocity=60, time=1),
    Message('note_on', channel=0, note=61, velocity=60, time=0),
    Message('note_on', channel=0, note=58, velocity=60, time=0),
    Message('note_on', channel=0, note=54, velocity=60, time=0),
    Message('note_on', channel=0, note=49, velocity=60, time=0),
    Message('note_on', channel=0, note=42, velocity=60, time=0),
    Message('note_on', channel=0, note=66, velocity=0, time=29),
    Message('note_on', channel=0, note=61, velocity=0, time=0),
    Message('note_on', channel=0, note=58, velocity=0, time=0),
    Message('note_on', channel=0, note=54, velocity=0, time=0),
    Message('note_on', channel=0, note=49, velocity=0, time=0),
    Message('note_on', channel=0, note=42, velocity=0, time=0),
    Message('note_on', channel=0, note=66, velocity=60, time=1),
    Message('note_on', channel=0, note=61, velocity=60, time=0),
    Message('note_on', channel=0, note=58, velocity=60, time=0),
    Message('note_on', channel=0, note=54, velocity=60, time=0),
    Message('note_on', channel=0, note=49, velocity=60, time=0),
    Message('note_on', channel=0, note=42, velocity=60, time=0),
    Message('note_on', channel=0, note=66, velocity=0, time=179),
    Message('note_on', channel=0, note=61, velocity=0, time=0),
    Message('note_on', channel=0, note=58, velocity=0, time=0),
    Message('note_on', channel=0, note=54, velocity=0, time=0),
    Message('note_on', channel=0, note=49, velocity=0, time=0),
    Message('note_on', channel=0, note=42, velocity=0, time=0),
    Message('note_on', channel=0, note=66, velocity=60, time=1),
    Message('note_on', channel=0, note=61, velocity=60, time=0),
    Message('note_on', channel=0, note=58, velocity=60, time=0),
    Message('note_on', channel=0, note=54, velocity=60, time=0),
    Message('note_on', channel=0, note=49, velocity=60, time=0),
    Message('note_on', channel=0, note=42, velocity=60, time=0),
    Message('note_on', channel=0, note=66, velocity=0, time=29),
    Message('note_on', channel=0, note=61, velocity=0, time=0),
    Message('note_on', channel=0, note=58, velocity=0, time=0),
    Message('note_on', channel=0, note=54, velocity=0, time=0),
    Message('note_on', channel=0, note=49, velocity=0, time=0),
    Message('note_on', channel=0, note=42, velocity=0, time=0),
    Message('note_on', channel=0, note=66, velocity=60, time=1),
    Message('note_on', channel=0, note=61, velocity=60, time=0),
    Message('note_on', channel=0, note=58, velocity=60, time=0),
    Message('note_on', channel=0, note=54, velocity=60, time=0),
    Message('note_on', channel=0, note=49, velocity=60, time=0),
    Message('note_on', channel=0, note=42, velocity=60, time=0),
    Message('note_on', channel=0, note=66, velocity=0, time=29),
    Message('note_on', channel=0, note=61, velocity=0, time=0),
    Message('note_on', channel=0, note=58, velocity=0, time=0),
    Message('note_on', channel=0, note=54, velocity=0, time=0),
    Message('note_on', channel=0, note=49, velocity=0, time=0),
    Message('note_on', channel=0, note=42, velocity=0, time=0),
    Message('note_on', channel=0, note=40, velocity=60, time=1),
    Message('note_on', channel=0, note=45, velocity=60, time=0),
    Message('note_on', channel=0, note=52, velocity=60, time=0),
    Message('note_on', channel=0, note=57, velocity=60, time=0),
    Message('note_on', channel=0, note=61, velocity=60, time=0),
    Message('note_on', channel=0, note=64, velocity=60, time=0),
    Message('note_on', channel=0, note=40, velocity=0, time=59),
    Message('note_on', channel=0, note=45, velocity=0, time=0),
    Message('note_on', channel=0, note=52, velocity=0, time=0),
    Message('note_on', channel=0, note=57, velocity=0, time=0),
    Message('note_on', channel=0, note=61, velocity=0, time=0),
    Message('note_on', channel=0, note=64, velocity=0, time=0),
    Message('note_on', channel=0, note=64, velocity=60, time=1),
    Message('note_on', channel=0, note=61, velocity=60, time=0),
    Message('note_on', channel=0, note=57, velocity=60, time=0),
    Message('note_on', channel=0, note=52, velocity=60, time=0),
    Message('note_on', channel=0, note=45, velocity=60, time=0),
    Message('note_on', channel=0, note=40, velocity=60, time=0),
    Message('note_on', channel=0, note=64, velocity=0, time=29),
    Message('note_on', channel=0, note=61, velocity=0, time=0),
    Message('note_on', channel=0, note=57, velocity=0, time=0),
    Message('note_on', channel=0, note=52, velocity=0, time=0),
    Message('note_on', channel=0, note=45, velocity=0, time=0),
    Message('note_on', channel=0, note=40, velocity=0, time=0),
    Message('note_on', channel=0, note=64, velocity=60, time=1),
    Message('note_on', channel=0, note=61, velocity=60, time=0),
    Message('note_on', channel=0, note=57, velocity=60, time=0),
    Message('note_on', channel=0, note=52, velocity=60, time=0),
    Message('note_on', channel=0, note=45, velocity=60, time=0),
    Message('note_on', channel=0, note=40, velocity=60, time=0),
    Message('note_on', channel=0, note=64, velocity=0, time=29),
    Message('note_on', channel=0, note=61, velocity=0, time=0),
    Message('note_on', channel=0, note=57, velocity=0, time=0),
    Message('note_on', channel=0, note=52, velocity=0, time=0),
    Message('note_on', channel=0, note=45, velocity=0, time=0),
    Message('note_on', channel=0, note=40, velocity=0, time=0),
    Message('note_on', channel=0, note=64, velocity=60, time=1),
    Message('note_on', channel=0, note=61, velocity=60, time=0),
    Message('note_on', channel=0, note=57, velocity=60, time=0),
    Message('note_on', channel=0, note=52, velocity=60, time=0),
    Message('note_on', channel=0, note=45, velocity=60, time=0),
    Message('note_on', channel=0, note=40, velocity=60, time=0),
    Message('note_on', channel=0, note=64, velocity=0, time=59),
    Message('note_on', channel=0, note=61, velocity=0, time=0),
    Message('note_on', channel=0, note=57, velocity=0, time=0),
    Message('note_on', channel=0, note=52, velocity=0, time=0),
    Message('note_on', channel=0, note=45, velocity=0, time=0),
    Message('note_on', channel=0, note=40, velocity=0, time=0),
    Message('note_on', channel=0, note=64, velocity=60, time=1),
    Message('note_on', channel=0, note=61, velocity=60, time=0),
    Message('note_on', channel=0, note=57, velocity=60, time=0),
    Message('note_on', channel=0, note=52, velocity=60, time=0),
    Message('note_on', channel=0, note=45, velocity=60, time=0),
    Message('note_on', channel=0, note=40, velocity=60, time=0),
    Message('note_on', channel=0, note=64, velocity=0, time=29),
    Message('note_on', channel=0, note=61, velocity=0, time=0),
    Message('note_on', channel=0, note=57, velocity=0, time=0),
    Message('note_on', channel=0, note=52, velocity=0, time=0),
    Message('note_on', channel=0, note=45, velocity=0, time=0),
    Message('note_on', channel=0, note=40, velocity=0, time=0),
    Message('note_on', channel=0, note=64, velocity=60, time=1),
    Message('note_on', channel=0, note=61, velocity=60, time=0),
    Message('note_on', channel=0, note=57, velocity=60, time=0),
    Message('note_on', channel=0, note=52, velocity=60, time=0),
    Message('note_on', channel=0, note=45, velocity=60, time=0),
    Message('note_on', channel=0, note=40, velocity=60, time=0),
    Message('note_on', channel=0, note=64, velocity=0, time=29),
    Message('note_on', channel=0, note=61, velocity=0, time=0),
    Message('note_on', channel=0, note=57, velocity=0, time=0),
    Message('note_on', channel=0, note=52, velocity=0, time=0),
    Message('note_on', channel=0, note=45, velocity=0, time=0),
    Message('note_on', channel=0, note=40, velocity=0, time=0),
    Message('note_on', channel=0, note=64, velocity=60, time=1),
    Message('note_on', channel=0, note=61, velocity=60, time=0),
    Message('note_on', channel=0, note=57, velocity=60, time=0),
    Message('note_on', channel=0, note=52, velocity=60, time=0),
    Message('note_on', channel=0, note=45, velocity=60, time=0),
    Message('note_on', channel=0, note=40, velocity=60, time=0),
    Message('note_on', channel=0, note=64, velocity=0, time=29),
    Message('note_on', channel=0, note=61, velocity=0, time=0),
    Message('note_on', channel=0, note=57, velocity=0, time=0),
    Message('note_on', channel=0, note=52, velocity=0, time=0),
    Message('note_on', channel=0, note=45, velocity=0, time=0),
    Message('note_on', channel=0, note=40, velocity=0, time=0),
    Message('note_on', channel=0, note=64, velocity=60, time=1),
    Message('note_on', channel=0, note=61, velocity=60, time=0),
    Message('note_on', channel=0, note=57, velocity=60, time=0),
    Message('note_on', channel=0, note=52, velocity=60, time=0),
    Message('note_on', channel=0, note=45, velocity=60, time=0),
    Message('note_on', channel=0, note=40, velocity=60, time=0),
    Message('note_on', channel=0, note=64, velocity=0, time=29),
    Message('note_on', channel=0, note=61, velocity=0, time=0),
    Message('note_on', channel=0, note=57, velocity=0, time=0),
    Message('note_on', channel=0, note=52, velocity=0, time=0),
    Message('note_on', channel=0, note=45, velocity=0, time=0),
    Message('note_on', channel=0, note=40, velocity=0, time=0),
    Message('note_on', channel=0, note=64, velocity=60, time=1),
    Message('note_on', channel=0, note=61, velocity=60, time=0),
    Message('note_on', channel=0, note=57, velocity=60, time=0),
    Message('note_on', channel=0, note=52, velocity=60, time=0),
    Message('note_on', channel=0, note=45, velocity=60, time=0),
    Message('note_on', channel=0, note=40, velocity=60, time=0),
    Message('note_on', channel=0, note=64, velocity=0, time=29),
    Message('note_on', channel=0, note=61, velocity=0, time=0),
    Message('note_on', channel=0, note=57, velocity=0, time=0),
    Message('note_on', channel=0, note=52, velocity=0, time=0),
    Message('note_on', channel=0, note=45, velocity=0, time=0),
    Message('note_on', channel=0, note=40, velocity=0, time=0),
    Message('note_on', channel=0, note=64, velocity=60, time=1),
    Message('note_on', channel=0, note=61, velocity=60, time=0),
    Message('note_on', channel=0, note=57, velocity=60, time=0),
    Message('note_on', channel=0, note=52, velocity=60, time=0),
    Message('note_on', channel=0, note=45, velocity=60, time=0),
    Message('note_on', channel=0, note=40, velocity=60, time=0),
    Message('note_on', channel=0, note=64, velocity=0, time=59),
    Message('note_on', channel=0, note=61, velocity=0, time=0),
    Message('note_on', channel=0, note=57, velocity=0, time=0),
    Message('note_on', channel=0, note=52, velocity=0, time=0),
    Message('note_on', channel=0, note=45, velocity=0, time=0),
    Message('note_on', channel=0, note=40, velocity=0, time=0),
    Message('note_on', channel=0, note=64, velocity=60, time=1),
    Message('note_on', channel=0, note=61, velocity=60, time=0),
    Message('note_on', channel=0, note=57, velocity=60, time=0),
    Message('note_on', channel=0, note=52, velocity=60, time=0),
    Message('note_on', channel=0, note=45, velocity=60, time=0),
    Message('note_on', channel=0, note=40, velocity=60, time=0),
    Message('note_on', channel=0, note=64, velocity=0, time=29),
    Message('note_on', channel=0, note=61, velocity=0, time=0),
    Message('note_on', channel=0, note=57, velocity=0, time=0),
    Message('note_on', channel=0, note=52, velocity=0, time=0),
    Message('note_on', channel=0, note=45, velocity=0, time=0),
    Message('note_on', channel=0, note=40, velocity=0, time=0),
    Message('note_on', channel=0, note=64, velocity=60, time=1),
    Message('note_on', channel=0, note=61, velocity=60, time=0),
    Message('note_on', channel=0, note=57, velocity=60, time=0),
    Message('note_on', channel=0, note=52, velocity=60, time=0),
    Message('note_on', channel=0, note=45, velocity=60, time=0),
    Message('note_on', channel=0, note=40, velocity=60, time=0),
    Message('note_on', channel=0, note=64, velocity=0, time=59),
    Message('note_on', channel=0, note=61, velocity=0, time=0),
    Message('note_on', channel=0, note=57, velocity=0, time=0),
    Message('note_on', channel=0, note=52, velocity=0, time=0),
    Message('note_on', channel=0, note=45, velocity=0, time=0),
    Message('note_on', channel=0, note=40, velocity=0, time=0),
    Message('note_on', channel=0, note=40, velocity=60, time=1),
    Message('note_on', channel=0, note=47, velocity=60, time=0),
    Message('note_on', channel=0, note=52, velocity=60, time=0),
    Message('note_on', channel=0, note=56, velocity=60, time=0),
    Message('note_on', channel=0, note=59, velocity=60, time=0),
    Message('note_on', channel=0, note=64, velocity=60, time=0),
    Message('note_on', channel=0, note=40, velocity=0, time=59),
    Message('note_on', channel=0, note=47, velocity=0, time=0),
    Message('note_on', channel=0, note=52, velocity=0, time=0),
    Message('note_on', channel=0, note=56, velocity=0, time=0),
    Message('note_on', channel=0, note=59, velocity=0, time=0),
    Message('note_on', channel=0, note=64, velocity=0, time=0),
    Message('note_on', channel=0, note=64, velocity=60, time=1),
    Message('note_on', channel=0, note=59, velocity=60, time=0),
    Message('note_on', channel=0, note=56, velocity=60, time=0),
    Message('note_on', channel=0, note=52, velocity=60, time=0),
    Message('note_on', channel=0, note=47, velocity=60, time=0),
    Message('note_on', channel=0, note=40, velocity=60, time=0),
    Message('note_on', channel=0, note=64, velocity=0, time=29),
    Message('note_on', channel=0, note=59, velocity=0, time=0),
    Message('note_on', channel=0, note=56, velocity=0, time=0),
    Message('note_on', channel=0, note=52, velocity=0, time=0),
    Message('note_on', channel=0, note=47, velocity=0, time=0),
    Message('note_on', channel=0, note=40, velocity=0, time=0),
    Message('note_on', channel=0, note=64, velocity=60, time=1),
    Message('note_on', channel=0, note=59, velocity=60, time=0),
    Message('note_on', channel=0, note=56, velocity=60, time=0),
    Message('note_on', channel=0, note=52, velocity=60, time=0),
    Message('note_on', channel=0, note=47, velocity=60, time=0),
    Message('note_on', channel=0, note=40, velocity=60, time=0),
    Message('note_on', channel=0, note=64, velocity=0, time=29),
    Message('note_on', channel=0, note=59, velocity=0, time=0),
    Message('note_on', channel=0, note=56, velocity=0, time=0),
    Message('note_on', channel=0, note=52, velocity=0, time=0),
    Message('note_on', channel=0, note=47, velocity=0, time=0),
    Message('note_on', channel=0, note=40, velocity=0, time=0),
    Message('note_on', channel=0, note=64, velocity=60, time=1),
    Message('note_on', channel=0, note=59, velocity=60, time=0),
    Message('note_on', channel=0, note=56, velocity=60, time=0),
    Message('note_on', channel=0, note=52, velocity=60, time=0),
    Message('note_on', channel=0, note=47, velocity=60, time=0),
    Message('note_on', channel=0, note=40, velocity=60, time=0),
    Message('note_on', channel=0, note=64, velocity=0, time=59),
    Message('note_on', channel=0, note=59, velocity=0, time=0),
    Message('note_on', channel=0, note=56, velocity=0, time=0),
    Message('note_on', channel=0, note=52, velocity=0, time=0),
    Message('note_on', channel=0, note=47, velocity=0, time=0),
    Message('note_on', channel=0, note=40, velocity=0, time=0),
    Message('note_on', channel=0, note=64, velocity=60, time=1),
    Message('note_on', channel=0, note=59, velocity=60, time=0),
    Message('note_on', channel=0, note=56, velocity=60, time=0),
    Message('note_on', channel=0, note=52, velocity=60, time=0),
    Message('note_on', channel=0, note=47, velocity=60, time=0),
    Message('note_on', channel=0, note=40, velocity=60, time=0),
    Message('note_on', channel=0, note=64, velocity=0, time=29),
    Message('note_on', channel=0, note=59, velocity=0, time=0),
    Message('note_on', channel=0, note=56, velocity=0, time=0),
    Message('note_on', channel=0, note=52, velocity=0, time=0),
    Message('note_on', channel=0, note=47, velocity=0, time=0),
    Message('note_on', channel=0, note=40, velocity=0, time=0),
    Message('note_on', channel=0, note=64, velocity=60, time=1),
    Message('note_on', channel=0, note=59, velocity=60, time=0),
    Message('note_on', channel=0, note=56, velocity=60, time=0),
    Message('note_on', channel=0, note=52, velocity=60, time=0),
    Message('note_on', channel=0, note=47, velocity=60, time=0),
    Message('note_on', channel=0, note=40, velocity=60, time=0),
    Message('note_on', channel=0, note=64, velocity=0, time=29),
    Message('note_on', channel=0, note=59, velocity=0, time=0),
    Message('note_on', channel=0, note=56, velocity=0, time=0),
    Message('note_on', channel=0, note=52, velocity=0, time=0),
    Message('note_on', channel=0, note=47, velocity=0, time=0),
    Message('note_on', channel=0, note=40, velocity=0, time=0),
    Message('note_on', channel=0, note=64, velocity=60, time=1),
    Message('note_on', channel=0, note=59, velocity=60, time=0),
    Message('note_on', channel=0, note=56, velocity=60, time=0),
    Message('note_on', channel=0, note=52, velocity=60, time=0),
    Message('note_on', channel=0, note=47, velocity=60, time=0),
    Message('note_on', channel=0, note=40, velocity=60, time=0),
    Message('note_on', channel=0, note=64, velocity=0, time=239),
    Message('note_on', channel=0, note=59, velocity=0, time=0),
    Message('note_on', channel=0, note=56, velocity=0, time=0),
    Message('note_on', channel=0, note=52, velocity=0, time=0),
    Message('note_on', channel=0, note=47, velocity=0, time=0),
    Message('note_on', channel=0, note=40, velocity=0, time=0),
    Message('note_on', channel=0, note=43, velocity=60, time=1),
    Message('note_on', channel=0, note=50, velocity=60, time=0),
    Message('note_on', channel=0, note=55, velocity=60, time=0),
    Message('note_on', channel=0, note=59, velocity=60, time=0),
    Message('note_on', channel=0, note=62, velocity=60, time=0),
    Message('note_on', channel=0, note=67, velocity=60, time=0),
    Message('note_on', channel=0, note=43, velocity=0, time=59),
    Message('note_on', channel=0, note=50, velocity=0, time=0),
    Message('note_on', channel=0, note=55, velocity=0, time=0),
    Message('note_on', channel=0, note=59, velocity=0, time=0),
    Message('note_on', channel=0, note=62, velocity=0, time=0),
    Message('note_on', channel=0, note=67, velocity=0, time=0),
    Message('note_on', channel=0, note=67, velocity=60, time=1),
    Message('note_on', channel=0, note=62, velocity=60, time=0),
    Message('note_on', channel=0, note=59, velocity=60, time=0),
    Message('note_on', channel=0, note=55, velocity=60, time=0),
    Message('note_on', channel=0, note=50, velocity=60, time=0),
    Message('note_on', channel=0, note=43, velocity=60, time=0),
    Message('note_on', channel=0, note=67, velocity=0, time=29),
    Message('note_on', channel=0, note=62, velocity=0, time=0),
    Message('note_on', channel=0, note=59, velocity=0, time=0),
    Message('note_on', channel=0, note=55, velocity=0, time=0),
    Message('note_on', channel=0, note=50, velocity=0, time=0),
    Message('note_on', channel=0, note=43, velocity=0, time=0),
    Message('note_on', channel=0, note=67, velocity=60, time=1),
    Message('note_on', channel=0, note=62, velocity=60, time=0),
    Message('note_on', channel=0, note=59, velocity=60, time=0),
    Message('note_on', channel=0, note=55, velocity=60, time=0),
    Message('note_on', channel=0, note=50, velocity=60, time=0),
    Message('note_on', channel=0, note=43, velocity=60, time=0),
    Message('note_on', channel=0, note=67, velocity=0, time=29),
    Message('note_on', channel=0, note=62, velocity=0, time=0),
    Message('note_on', channel=0, note=59, velocity=0, time=0),
    Message('note_on', channel=0, note=55, velocity=0, time=0),
    Message('note_on', channel=0, note=50, velocity=0, time=0),
    Message('note_on', channel=0, note=43, velocity=0, time=0),
    Message('note_on', channel=0, note=67, velocity=60, time=1),
    Message('note_on', channel=0, note=62, velocity=60, time=0),
    Message('note_on', channel=0, note=59, velocity=60, time=0),
    Message('note_on', channel=0, note=55, velocity=60, time=0),
    Message('note_on', channel=0, note=50, velocity=60, time=0),
    Message('note_on', channel=0, note=43, velocity=60, time=0),
    Message('note_on', channel=0, note=67, velocity=0, time=59),
    Message('note_on', channel=0, note=62, velocity=0, time=0),
    Message('note_on', channel=0, note=59, velocity=0, time=0),
    Message('note_on', channel=0, note=55, velocity=0, time=0),
    Message('note_on', channel=0, note=50, velocity=0, time=0),
    Message('note_on', channel=0, note=43, velocity=0, time=0),
    Message('note_on', channel=0, note=67, velocity=60, time=1),
    Message('note_on', channel=0, note=62, velocity=60, time=0),
    Message('note_on', channel=0, note=59, velocity=60, time=0),
    Message('note_on', channel=0, note=55, velocity=60, time=0),
    Message('note_on', channel=0, note=50, velocity=60, time=0),
    Message('note_on', channel=0, note=43, velocity=60, time=0),
    Message('note_on', channel=0, note=67, velocity=0, time=29),
    Message('note_on', channel=0, note=62, velocity=0, time=0),
    Message('note_on', channel=0, note=59, velocity=0, time=0),
    Message('note_on', channel=0, note=55, velocity=0, time=0),
    Message('note_on', channel=0, note=50, velocity=0, time=0),
    Message('note_on', channel=0, note=43, velocity=0, time=0),
    Message('note_on', channel=0, note=67, velocity=60, time=1),
    Message('note_on', channel=0, note=62, velocity=60, time=0),
    Message('note_on', channel=0, note=59, velocity=60, time=0),
    Message('note_on', channel=0, note=55, velocity=60, time=0),
    Message('note_on', channel=0, note=50, velocity=60, time=0),
    Message('note_on', channel=0, note=43, velocity=60, time=0),
    Message('note_on', channel=0, note=67, velocity=0, time=29),
    Message('note_on', channel=0, note=62, velocity=0, time=0),
    Message('note_on', channel=0, note=59, velocity=0, time=0),
    Message('note_on', channel=0, note=55, velocity=0, time=0),
    Message('note_on', channel=0, note=50, velocity=0, time=0),
    Message('note_on', channel=0, note=43, velocity=0, time=0),
    Message('note_on', channel=0, note=67, velocity=60, time=1),
    Message('note_on', channel=0, note=62, velocity=60, time=0),
    Message('note_on', channel=0, note=59, velocity=60, time=0),
    Message('note_on', channel=0, note=55, velocity=60, time=0),
    Message('note_on', channel=0, note=50, velocity=60, time=0),
    Message('note_on', channel=0, note=43, velocity=60, time=0),
    Message('note_on', channel=0, note=67, velocity=0, time=29),
    Message('note_on', channel=0, note=62, velocity=0, time=0),
    Message('note_on', channel=0, note=59, velocity=0, time=0),
    Message('note_on', channel=0, note=55, velocity=0, time=0),
    Message('note_on', channel=0, note=50, velocity=0, time=0),
    Message('note_on', channel=0, note=43, velocity=0, time=0),
    Message('note_on', channel=0, note=67, velocity=60, time=1),
    Message('note_on', channel=0, note=62, velocity=60, time=0),
    Message('note_on', channel=0, note=59, velocity=60, time=0),
    Message('note_on', channel=0, note=55, velocity=60, time=0),
    Message('note_on', channel=0, note=50, velocity=60, time=0),
    Message('note_on', channel=0, note=43, velocity=60, time=0),
    Message('note_on', channel=0, note=67, velocity=0, time=29),
    Message('note_on', channel=0, note=62, velocity=0, time=0),
    Message('note_on', channel=0, note=59, velocity=0, time=0),
    Message('note_on', channel=0, note=55, velocity=0, time=0),
    Message('note_on', channel=0, note=50, velocity=0, time=0),
    Message('note_on', channel=0, note=43, velocity=0, time=0),
    Message('note_on', channel=0, note=67, velocity=60, time=1),
    Message('note_on', channel=0, note=62, velocity=60, time=0),
    Message('note_on', channel=0, note=59, velocity=60, time=0),
    Message('note_on', channel=0, note=55, velocity=60, time=0),
    Message('note_on', channel=0, note=50, velocity=60, time=0),
    Message('note_on', channel=0, note=43, velocity=60, time=0),
    Message('note_on', channel=0, note=67, velocity=0, time=29),
    Message('note_on', channel=0, note=62, velocity=0, time=0),
    Message('note_on', channel=0, note=59, velocity=0, time=0),
    Message('note_on', channel=0, note=55, velocity=0, time=0),
    Message('note_on', channel=0, note=50, velocity=0, time=0),
    Message('note_on', channel=0, note=43, velocity=0, time=0),
    Message('note_on', channel=0, note=67, velocity=60, time=1),
    Message('note_on', channel=0, note=62, velocity=60, time=0),
    Message('note_on', channel=0, note=59, velocity=60, time=0),
    Message('note_on', channel=0, note=55, velocity=60, time=0),
    Message('note_on', channel=0, note=50, velocity=60, time=0),
    Message('note_on', channel=0, note=43, velocity=60, time=0),
    Message('note_on', channel=0, note=67, velocity=0, time=59),
    Message('note_on', channel=0, note=62, velocity=0, time=0),
    Message('note_on', channel=0, note=59, velocity=0, time=0),
    Message('note_on', channel=0, note=55, velocity=0, time=0),
    Message('note_on', channel=0, note=50, velocity=0, time=0),
    Message('note_on', channel=0, note=43, velocity=0, time=0),
    Message('note_on', channel=0, note=67, velocity=60, time=1),
    Message('note_on', channel=0, note=62, velocity=60, time=0),
    Message('note_on', channel=0, note=59, velocity=60, time=0),
    Message('note_on', channel=0, note=55, velocity=60, time=0),
    Message('note_on', channel=0, note=50, velocity=60, time=0),
    Message('note_on', channel=0, note=43, velocity=60, time=0),
    Message('note_on', channel=0, note=67, velocity=0, time=29),
    Message('note_on', channel=0, note=62, velocity=0, time=0),
    Message('note_on', channel=0, note=59, velocity=0, time=0),
    Message('note_on', channel=0, note=55, velocity=0, time=0),
    Message('note_on', channel=0, note=50, velocity=0, time=0),
    Message('note_on', channel=0, note=43, velocity=0, time=0),
    Message('note_on', channel=0, note=67, velocity=60, time=1),
    Message('note_on', channel=0, note=62, velocity=60, time=0),
    Message('note_on', channel=0, note=59, velocity=60, time=0),
    Message('note_on', channel=0, note=55, velocity=60, time=0),
    Message('note_on', channel=0, note=50, velocity=60, time=0),
    Message('note_on', channel=0, note=43, velocity=60, time=0),
    Message('note_on', channel=0, note=67, velocity=0, time=59),
    Message('note_on', channel=0, note=62, velocity=0, time=0),
    Message('note_on', channel=0, note=59, velocity=0, time=0),
    Message('note_on', channel=0, note=55, velocity=0, time=0),
    Message('note_on', channel=0, note=50, velocity=0, time=0),
    Message('note_on', channel=0, note=43, velocity=0, time=0),
    Message('note_on', channel=0, note=45, velocity=60, time=1),
    Message('note_on', channel=0, note=50, velocity=60, time=0),
    Message('note_on', channel=0, note=57, velocity=60, time=0),
    Message('note_on', channel=0, note=62, velocity=60, time=0),
    Message('note_on', channel=0, note=66, velocity=60, time=0),
    Message('note_on', channel=0, note=69, velocity=60, time=0),
    Message('note_on', channel=0, note=45, velocity=0, time=59),
    Message('note_on', channel=0, note=50, velocity=0, time=0),
    Message('note_on', channel=0, note=57, velocity=0, time=0),
    Message('note_on', channel=0, note=62, velocity=0, time=0),
    Message('note_on', channel=0, note=66, velocity=0, time=0),
    Message('note_on', channel=0, note=69, velocity=0, time=0),
    Message('note_on', channel=0, note=69, velocity=60, time=1),
    Message('note_on', channel=0, note=66, velocity=60, time=0),
    Message('note_on', channel=0, note=62, velocity=60, time=0),
    Message('note_on', channel=0, note=57, velocity=60, time=0),
    Message('note_on', channel=0, note=50, velocity=60, time=0),
    Message('note_on', channel=0, note=45, velocity=60, time=0),
    Message('note_on', channel=0, note=69, velocity=0, time=29),
    Message('note_on', channel=0, note=66, velocity=0, time=0),
    Message('note_on', channel=0, note=62, velocity=0, time=0),
    Message('note_on', channel=0, note=57, velocity=0, time=0),
    Message('note_on', channel=0, note=50, velocity=0, time=0),
    Message('note_on', channel=0, note=45, velocity=0, time=0),
    Message('note_on', channel=0, note=69, velocity=60, time=1),
    Message('note_on', channel=0, note=66, velocity=60, time=0),
    Message('note_on', channel=0, note=62, velocity=60, time=0),
    Message('note_on', channel=0, note=57, velocity=60, time=0),
    Message('note_on', channel=0, note=50, velocity=60, time=0),
    Message('note_on', channel=0, note=45, velocity=60, time=0),
    Message('note_on', channel=0, note=69, velocity=0, time=29),
    Message('note_on', channel=0, note=66, velocity=0, time=0),
    Message('note_on', channel=0, note=62, velocity=0, time=0),
    Message('note_on', channel=0, note=57, velocity=0, time=0),
    Message('note_on', channel=0, note=50, velocity=0, time=0),
    Message('note_on', channel=0, note=45, velocity=0, time=0),
    Message('note_on', channel=0, note=69, velocity=60, time=1),
    Message('note_on', channel=0, note=66, velocity=60, time=0),
    Message('note_on', channel=0, note=62, velocity=60, time=0),
    Message('note_on', channel=0, note=57, velocity=60, time=0),
    Message('note_on', channel=0, note=50, velocity=60, time=0),
    Message('note_on', channel=0, note=45, velocity=60, time=0),
    Message('note_on', channel=0, note=69, velocity=0, time=29),
    Message('note_on', channel=0, note=66, velocity=0, time=0),
    Message('note_on', channel=0, note=62, velocity=0, time=0),
    Message('note_on', channel=0, note=57, velocity=0, time=0),
    Message('note_on', channel=0, note=50, velocity=0, time=0),
    Message('note_on', channel=0, note=45, velocity=0, time=0),
    Message('note_on', channel=0, note=69, velocity=60, time=1),
    Message('note_on', channel=0, note=66, velocity=60, time=0),
    Message('note_on', channel=0, note=62, velocity=60, time=0),
    Message('note_on', channel=0, note=57, velocity=60, time=0),
    Message('note_on', channel=0, note=50, velocity=60, time=0),
    Message('note_on', channel=0, note=45, velocity=60, time=0),
    Message('note_on', channel=0, note=69, velocity=0, time=59),
    Message('note_on', channel=0, note=66, velocity=0, time=0),
    Message('note_on', channel=0, note=62, velocity=0, time=0),
    Message('note_on', channel=0, note=57, velocity=0, time=0),
    Message('note_on', channel=0, note=50, velocity=0, time=0),
    Message('note_on', channel=0, note=45, velocity=0, time=0),
    Message('note_on', channel=0, note=69, velocity=60, time=1),
    Message('note_on', channel=0, note=66, velocity=60, time=0),
    Message('note_on', channel=0, note=62, velocity=60, time=0),
    Message('note_on', channel=0, note=57, velocity=60, time=0),
    Message('note_on', channel=0, note=50, velocity=60, time=0),
    Message('note_on', channel=0, note=45, velocity=60, time=0),
    Message('note_on', channel=0, note=69, velocity=0, time=29),
    Message('note_on', channel=0, note=66, velocity=0, time=0),
    Message('note_on', channel=0, note=62, velocity=0, time=0),
    Message('note_on', channel=0, note=57, velocity=0, time=0),
    Message('note_on', channel=0, note=50, velocity=0, time=0),
    Message('note_on', channel=0, note=45, velocity=0, time=0),
    Message('note_on', channel=0, note=69, velocity=60, time=1),
    Message('note_on', channel=0, note=66, velocity=60, time=0),
    Message('note_on', channel=0, note=62, velocity=60, time=0),
    Message('note_on', channel=0, note=57, velocity=60, time=0),
    Message('note_on', channel=0, note=50, velocity=60, time=0),
    Message('note_on', channel=0, note=45, velocity=60, time=0),
    Message('note_on', channel=0, note=69, velocity=0, time=239),
    Message('note_on', channel=0, note=66, velocity=0, time=0),
    Message('note_on', channel=0, note=62, velocity=0, time=0),
    Message('note_on', channel=0, note=57, velocity=0, time=0),
    Message('note_on', channel=0, note=50, velocity=0, time=0),
    Message('note_on', channel=0, note=45, velocity=0, time=0),
    Message('note_on', channel=0, note=40, velocity=60, time=1),
    Message('note_on', channel=0, note=47, velocity=60, time=0),
    Message('note_on', channel=0, note=52, velocity=60, time=0),
    Message('note_on', channel=0, note=55, velocity=60, time=0),
    Message('note_on', channel=0, note=59, velocity=60, time=0),
    Message('note_on', channel=0, note=64, velocity=60, time=0),
    Message('note_on', channel=0, note=40, velocity=0, time=59),
    Message('note_on', channel=0, note=47, velocity=0, time=0),
    Message('note_on', channel=0, note=52, velocity=0, time=0),
    Message('note_on', channel=0, note=55, velocity=0, time=0),
    Message('note_on', channel=0, note=59, velocity=0, time=0),
    Message('note_on', channel=0, note=64, velocity=0, time=0),
    Message('note_on', channel=0, note=64, velocity=60, time=1),
    Message('note_on', channel=0, note=59, velocity=60, time=0),
    Message('note_on', channel=0, note=55, velocity=60, time=0),
    Message('note_on', channel=0, note=52, velocity=60, time=0),
    Message('note_on', channel=0, note=47, velocity=60, time=0),
    Message('note_on', channel=0, note=40, velocity=60, time=0),
    Message('note_on', channel=0, note=64, velocity=0, time=29),
    Message('note_on', channel=0, note=59, velocity=0, time=0),
    Message('note_on', channel=0, note=55, velocity=0, time=0),
    Message('note_on', channel=0, note=52, velocity=0, time=0),
    Message('note_on', channel=0, note=47, velocity=0, time=0),
    Message('note_on', channel=0, note=40, velocity=0, time=0),
    Message('note_on', channel=0, note=64, velocity=60, time=1),
    Message('note_on', channel=0, note=59, velocity=60, time=0),
    Message('note_on', channel=0, note=55, velocity=60, time=0),
    Message('note_on', channel=0, note=52, velocity=60, time=0),
    Message('note_on', channel=0, note=47, velocity=60, time=0),
    Message('note_on', channel=0, note=40, velocity=60, time=0),
    Message('note_on', channel=0, note=64, velocity=0, time=29),
    Message('note_on', channel=0, note=59, velocity=0, time=0),
    Message('note_on', channel=0, note=55, velocity=0, time=0),
    Message('note_on', channel=0, note=52, velocity=0, time=0),
    Message('note_on', channel=0, note=47, velocity=0, time=0),
    Message('note_on', channel=0, note=40, velocity=0, time=0),
    Message('note_on', channel=0, note=64, velocity=60, time=1),
    Message('note_on', channel=0, note=59, velocity=60, time=0),
    Message('note_on', channel=0, note=55, velocity=60, time=0),
    Message('note_on', channel=0, note=52, velocity=60, time=0),
    Message('note_on', channel=0, note=47, velocity=60, time=0),
    Message('note_on', channel=0, note=40, velocity=60, time=0),
    Message('note_on', channel=0, note=64, velocity=0, time=29),
    Message('note_on', channel=0, note=59, velocity=0, time=0),
    Message('note_on', channel=0, note=55, velocity=0, time=0),
    Message('note_on', channel=0, note=52, velocity=0, time=0),
    Message('note_on', channel=0, note=47, velocity=0, time=0),
    Message('note_on', channel=0, note=40, velocity=0, time=0),
    Message('note_on', channel=0, note=64, velocity=60, time=1),
    Message('note_on', channel=0, note=59, velocity=60, time=0),
    Message('note_on', channel=0, note=55, velocity=60, time=0),
    Message('note_on', channel=0, note=52, velocity=60, time=0),
    Message('note_on', channel=0, note=47, velocity=60, time=0),
    Message('note_on', channel=0, note=40, velocity=60, time=0),
    Message('note_on', channel=0, note=64, velocity=0, time=29),
    Message('note_on', channel=0, note=59, velocity=0, time=0),
    Message('note_on', channel=0, note=55, velocity=0, time=0),
    Message('note_on', channel=0, note=52, velocity=0, time=0),
    Message('note_on', channel=0, note=47, velocity=0, time=0),
    Message('note_on', channel=0, note=40, velocity=0, time=0),
    Message('note_on', channel=0, note=64, velocity=60, time=1),
    Message('note_on', channel=0, note=59, velocity=60, time=0),
    Message('note_on', channel=0, note=55, velocity=60, time=0),
    Message('note_on', channel=0, note=52, velocity=60, time=0),
    Message('note_on', channel=0, note=47, velocity=60, time=0),
    Message('note_on', channel=0, note=40, velocity=60, time=0),
    Message('note_on', channel=0, note=64, velocity=0, time=59),
    Message('note_on', channel=0, note=59, velocity=0, time=0),
    Message('note_on', channel=0, note=55, velocity=0, time=0),
    Message('note_on', channel=0, note=52, velocity=0, time=0),
    Message('note_on', channel=0, note=47, velocity=0, time=0),
    Message('note_on', channel=0, note=40, velocity=0, time=0),
    Message('note_on', channel=0, note=64, velocity=60, time=1),
    Message('note_on', channel=0, note=59, velocity=60, time=0),
    Message('note_on', channel=0, note=55, velocity=60, time=0),
    Message('note_on', channel=0, note=52, velocity=60, time=0),
    Message('note_on', channel=0, note=47, velocity=60, time=0),
    Message('note_on', channel=0, note=40, velocity=60, time=0),
    Message('note_on', channel=0, note=64, velocity=0, time=59),
    Message('note_on', channel=0, note=59, velocity=0, time=0),
    Message('note_on', channel=0, note=55, velocity=0, time=0),
    Message('note_on', channel=0, note=52, velocity=0, time=0),
    Message('note_on', channel=0, note=47, velocity=0, time=0),
    Message('note_on', channel=0, note=40, velocity=0, time=0),
    Message('note_on', channel=0, note=64, velocity=60, time=1),
    Message('note_on', channel=0, note=59, velocity=60, time=0),
    Message('note_on', channel=0, note=55, velocity=60, time=0),
    Message('note_on', channel=0, note=52, velocity=60, time=0),
    Message('note_on', channel=0, note=47, velocity=60, time=0),
    Message('note_on', channel=0, note=40, velocity=60, time=0),
    Message('note_on', channel=0, note=64, velocity=0, time=59),
    Message('note_on', channel=0, note=59, velocity=0, time=0),
    Message('note_on', channel=0, note=55, velocity=0, time=0),
    Message('note_on', channel=0, note=52, velocity=0, time=0),
    Message('note_on', channel=0, note=47, velocity=0, time=0),
    Message('note_on', channel=0, note=40, velocity=0, time=0),
    Message('note_on', channel=0, note=64, velocity=60, time=1),
    Message('note_on', channel=0, note=59, velocity=60, time=0),
    Message('note_on', channel=0, note=55, velocity=60, time=0),
    Message('note_on', channel=0, note=52, velocity=60, time=0),
    Message('note_on', channel=0, note=47, velocity=60, time=0),
    Message('note_on', channel=0, note=40, velocity=60, time=0),
    Message('note_on', channel=0, note=64, velocity=0, time=29),
    Message('note_on', channel=0, note=59, velocity=0, time=0),
    Message('note_on', channel=0, note=55, velocity=0, time=0),
    Message('note_on', channel=0, note=52, velocity=0, time=0),
    Message('note_on', channel=0, note=47, velocity=0, time=0),
    Message('note_on', channel=0, note=40, velocity=0, time=0),
    Message('note_on', channel=0, note=64, velocity=60, time=1),
    Message('note_on', channel=0, note=59, velocity=60, time=0),
    Message('note_on', channel=0, note=55, velocity=60, time=0),
    Message('note_on', channel=0, note=52, velocity=60, time=0),
    Message('note_on', channel=0, note=47, velocity=60, time=0),
    Message('note_on', channel=0, note=40, velocity=60, time=0),
    Message('note_on', channel=0, note=64, velocity=0, time=29),
    Message('note_on', channel=0, note=59, velocity=0, time=0),
    Message('note_on', channel=0, note=55, velocity=0, time=0),
    Message('note_on', channel=0, note=52, velocity=0, time=0),
    Message('note_on', channel=0, note=47, velocity=0, time=0),
    Message('note_on', channel=0, note=40, velocity=0, time=0),
    Message('note_on', channel=0, note=64, velocity=60, time=1),
    Message('note_on', channel=0, note=59, velocity=60, time=0),
    Message('note_on', channel=0, note=55, velocity=60, time=0),
    Message('note_on', channel=0, note=52, velocity=60, time=0),
    Message('note_on', channel=0, note=47, velocity=60, time=0),
    Message('note_on', channel=0, note=40, velocity=60, time=0),
    Message('note_on', channel=0, note=64, velocity=0, time=59),
    Message('note_on', channel=0, note=59, velocity=0, time=0),
    Message('note_on', channel=0, note=55, velocity=0, time=0),
    Message('note_on', channel=0, note=52, velocity=0, time=0),
    Message('note_on', channel=0, note=47, velocity=0, time=0),
    Message('note_on', channel=0, note=40, velocity=0, time=0),
    Message('note_on', channel=0, note=42, velocity=60, time=1),
    Message('note_on', channel=0, note=49, velocity=60, time=0),
    Message('note_on', channel=0, note=54, velocity=60, time=0),
    Message('note_on', channel=0, note=58, velocity=60, time=0),
    Message('note_on', channel=0, note=61, velocity=60, time=0),
    Message('note_on', channel=0, note=66, velocity=60, time=0),
    Message('note_on', channel=0, note=42, velocity=0, time=59),
    Message('note_on', channel=0, note=49, velocity=0, time=0),
    Message('note_on', channel=0, note=54, velocity=0, time=0),
    Message('note_on', channel=0, note=58, velocity=0, time=0),
    Message('note_on', channel=0, note=61, velocity=0, time=0),
    Message('note_on', channel=0, note=66, velocity=0, time=0),
    Message('note_on', channel=0, note=66, velocity=60, time=1),
    Message('note_on', channel=0, note=61, velocity=60, time=0),
    Message('note_on', channel=0, note=58, velocity=60, time=0),
    Message('note_on', channel=0, note=54, velocity=60, time=0),
    Message('note_on', channel=0, note=49, velocity=60, time=0),
    Message('note_on', channel=0, note=42, velocity=60, time=0),
    Message('note_on', channel=0, note=66, velocity=0, time=29),
    Message('note_on', channel=0, note=61, velocity=0, time=0),
    Message('note_on', channel=0, note=58, velocity=0, time=0),
    Message('note_on', channel=0, note=54, velocity=0, time=0),
    Message('note_on', channel=0, note=49, velocity=0, time=0),
    Message('note_on', channel=0, note=42, velocity=0, time=0),
    Message('note_on', channel=0, note=66, velocity=60, time=1),
    Message('note_on', channel=0, note=61, velocity=60, time=0),
    Message('note_on', channel=0, note=58, velocity=60, time=0),
    Message('note_on', channel=0, note=54, velocity=60, time=0),
    Message('note_on', channel=0, note=49, velocity=60, time=0),
    Message('note_on', channel=0, note=42, velocity=60, time=0),
    Message('note_on', channel=0, note=66, velocity=0, time=29),
    Message('note_on', channel=0, note=61, velocity=0, time=0),
    Message('note_on', channel=0, note=58, velocity=0, time=0),
    Message('note_on', channel=0, note=54, velocity=0, time=0),
    Message('note_on', channel=0, note=49, velocity=0, time=0),
    Message('note_on', channel=0, note=42, velocity=0, time=0),
    Message('note_on', channel=0, note=66, velocity=60, time=1),
    Message('note_on', channel=0, note=61, velocity=60, time=0),
    Message('note_on', channel=0, note=58, velocity=60, time=0),
    Message('note_on', channel=0, note=54, velocity=60, time=0),
    Message('note_on', channel=0, note=49, velocity=60, time=0),
    Message('note_on', channel=0, note=42, velocity=60, time=0),
    Message('note_on', channel=0, note=66, velocity=0, time=29),
    Message('note_on', channel=0, note=61, velocity=0, time=0),
    Message('note_on', channel=0, note=58, velocity=0, time=0),
    Message('note_on', channel=0, note=54, velocity=0, time=0),
    Message('note_on', channel=0, note=49, velocity=0, time=0),
    Message('note_on', channel=0, note=42, velocity=0, time=0),
    Message('note_on', channel=0, note=66, velocity=60, time=1),
    Message('note_on', channel=0, note=61, velocity=60, time=0),
    Message('note_on', channel=0, note=58, velocity=60, time=0),
    Message('note_on', channel=0, note=54, velocity=60, time=0),
    Message('note_on', channel=0, note=49, velocity=60, time=0),
    Message('note_on', channel=0, note=42, velocity=60, time=0),
    Message('note_on', channel=0, note=66, velocity=0, time=59),
    Message('note_on', channel=0, note=61, velocity=0, time=0),
    Message('note_on', channel=0, note=58, velocity=0, time=0),
    Message('note_on', channel=0, note=54, velocity=0, time=0),
    Message('note_on', channel=0, note=49, velocity=0, time=0),
    Message('note_on', channel=0, note=42, velocity=0, time=0),
    Message('note_on', channel=0, note=66, velocity=60, time=1),
    Message('note_on', channel=0, note=61, velocity=60, time=0),
    Message('note_on', channel=0, note=58, velocity=60, time=0),
    Message('note_on', channel=0, note=54, velocity=60, time=0),
    Message('note_on', channel=0, note=49, velocity=60, time=0),
    Message('note_on', channel=0, note=42, velocity=60, time=0),
    Message('note_on', channel=0, note=66, velocity=0, time=29),
    Message('note_on', channel=0, note=61, velocity=0, time=0),
    Message('note_on', channel=0, note=58, velocity=0, time=0),
    Message('note_on', channel=0, note=54, velocity=0, time=0),
    Message('note_on', channel=0, note=49, velocity=0, time=0),
    Message('note_on', channel=0, note=42, velocity=0, time=0),
    Message('note_on', channel=0, note=66, velocity=60, time=1),
    Message('note_on', channel=0, note=61, velocity=60, time=0),
    Message('note_on', channel=0, note=58, velocity=60, time=0),
    Message('note_on', channel=0, note=54, velocity=60, time=0),
    Message('note_on', channel=0, note=49, velocity=60, time=0),
    Message('note_on', channel=0, note=42, velocity=60, time=0),
    Message('note_on', channel=0, note=66, velocity=0, time=239),
    Message('note_on', channel=0, note=61, velocity=0, time=0),
    Message('note_on', channel=0, note=58, velocity=0, time=0),
    Message('note_on', channel=0, note=54, velocity=0, time=0),
    Message('note_on', channel=0, note=49, velocity=0, time=0),
    Message('note_on', channel=0, note=42, velocity=0, time=0),
    Message('note_on', channel=0, note=62, velocity=60, time=1),
    Message('note_on', channel=0, note=59, velocity=60, time=0),
    Message('note_on', channel=0, note=42, velocity=60, time=0),
    Message('note_on', channel=0, note=47, velocity=60, time=0),
    Message('note_on', channel=0, note=66, velocity=60, time=0),
    Message('note_on', channel=0, note=54, velocity=60, time=0),
    Message('note_on', channel=0, note=62, velocity=0, time=29),
    Message('note_on', channel=0, note=59, velocity=0, time=0),
    Message('note_on', channel=0, note=42, velocity=0, time=0),
    Message('note_on', channel=0, note=47, velocity=0, time=0),
    Message('note_on', channel=0, note=66, velocity=0, time=0),
    Message('note_on', channel=0, note=54, velocity=0, time=0),
    Message('note_on', channel=0, note=59, velocity=60, time=1),
    Message('note_on', channel=0, note=42, velocity=60, time=0),
    Message('note_on', channel=0, note=62, velocity=60, time=0),
    Message('note_on', channel=0, note=54, velocity=60, time=0),
    Message('note_on', channel=0, note=47, velocity=60, time=0),
    Message('note_on', channel=0, note=66, velocity=60, time=0),
    Message('note_on', channel=0, note=59, velocity=0, time=59),
    Message('note_on', channel=0, note=42, velocity=0, time=0),
    Message('note_on', channel=0, note=62, velocity=0, time=0),
    Message('note_on', channel=0, note=54, velocity=0, time=0),
    Message('note_on', channel=0, note=47, velocity=0, time=0),
    Message('note_on', channel=0, note=66, velocity=0, time=0),
    Message('note_on', channel=0, note=47, velocity=60, time=1),
    Message('note_on', channel=0, note=42, velocity=60, time=0),
    Message('note_on', channel=0, note=54, velocity=60, time=0),
    Message('note_on', channel=0, note=59, velocity=60, time=0),
    Message('note_on', channel=0, note=66, velocity=60, time=0),
    Message('note_on', channel=0, note=62, velocity=60, time=0),
    Message('note_on', channel=0, note=47, velocity=0, time=29),
    Message('note_on', channel=0, note=42, velocity=0, time=0),
    Message('note_on', channel=0, note=54, velocity=0, time=0),
    Message('note_on', channel=0, note=59, velocity=0, time=0),
    Message('note_on', channel=0, note=66, velocity=0, time=0),
    Message('note_on', channel=0, note=62, velocity=0, time=0),
    Message('note_on', channel=0, note=59, velocity=60, time=1),
    Message('note_on', channel=0, note=47, velocity=60, time=0),
    Message('note_on', channel=0, note=66, velocity=60, time=0),
    Message('note_on', channel=0, note=54, velocity=60, time=0),
    Message('note_on', channel=0, note=42, velocity=60, time=0),
    Message('note_on', channel=0, note=62, velocity=60, time=0),
    Message('note_on', channel=0, note=59, velocity=0, time=59),
    Message('note_on', channel=0, note=47, velocity=0, time=0),
    Message('note_on', channel=0, note=66, velocity=0, time=0),
    Message('note_on', channel=0, note=54, velocity=0, time=0),
    Message('note_on', channel=0, note=42, velocity=0, time=0),
    Message('note_on', channel=0, note=62, velocity=0, time=0),
    Message('note_on', channel=0, note=42, velocity=60, time=1),
    Message('note_on', channel=0, note=59, velocity=60, time=0),
    Message('note_on', channel=0, note=66, velocity=60, time=0),
    Message('note_on', channel=0, note=54, velocity=60, time=0),
    Message('note_on', channel=0, note=62, velocity=60, time=0),
    Message('note_on', channel=0, note=47, velocity=60, time=0),
    Message('note_on', channel=0, note=42, velocity=0, time=29),
    Message('note_on', channel=0, note=59, velocity=0, time=0),
    Message('note_on', channel=0, note=66, velocity=0, time=0),
    Message('note_on', channel=0, note=54, velocity=0, time=0),
    Message('note_on', channel=0, note=62, velocity=0, time=0),
    Message('note_on', channel=0, note=47, velocity=0, time=0),
    Message('note_on', channel=0, note=62, velocity=60, time=1),
    Message('note_on', channel=0, note=47, velocity=60, time=0),
    Message('note_on', channel=0, note=66, velocity=60, time=0),
    Message('note_on', channel=0, note=42, velocity=60, time=0),
    Message('note_on', channel=0, note=59, velocity=60, time=0),
    Message('note_on', channel=0, note=54, velocity=60, time=0),
    Message('note_on', channel=0, note=62, velocity=0, time=59),
    Message('note_on', channel=0, note=47, velocity=0, time=0),
    Message('note_on', channel=0, note=66, velocity=0, time=0),
    Message('note_on', channel=0, note=42, velocity=0, time=0),
    Message('note_on', channel=0, note=59, velocity=0, time=0),
    Message('note_on', channel=0, note=54, velocity=0, time=0),
    Message('note_on', channel=0, note=66, velocity=60, time=1),
    Message('note_on', channel=0, note=59, velocity=60, time=0),
    Message('note_on', channel=0, note=42, velocity=60, time=0),
    Message('note_on', channel=0, note=62, velocity=60, time=0),
    Message('note_on', channel=0, note=54, velocity=60, time=0),
    Message('note_on', channel=0, note=47, velocity=60, time=0),
    Message('note_on', channel=0, note=66, velocity=0, time=29),
    Message('note_on', channel=0, note=59, velocity=0, time=0),
    Message('note_on', channel=0, note=42, velocity=0, time=0),
    Message('note_on', channel=0, note=62, velocity=0, time=0),
    Message('note_on', channel=0, note=54, velocity=0, time=0),
    Message('note_on', channel=0, note=47, velocity=0, time=0),
    Message('note_on', channel=0, note=59, velocity=60, time=1),
    Message('note_on', channel=0, note=42, velocity=60, time=0),
    Message('note_on', channel=0, note=54, velocity=60, time=0),
    Message('note_on', channel=0, note=66, velocity=60, time=0),
    Message('note_on', channel=0, note=62, velocity=60, time=0),
    Message('note_on', channel=0, note=47, velocity=60, time=0),
    Message('note_on', channel=0, note=59, velocity=0, time=59),
    Message('note_on', channel=0, note=42, velocity=0, time=0),
    Message('note_on', channel=0, note=54, velocity=0, time=0),
    Message('note_on', channel=0, note=66, velocity=0, time=0),
    Message('note_on', channel=0, note=62, velocity=0, time=0),
    Message('note_on', channel=0, note=47, velocity=0, time=0),
    Message('note_on', channel=0, note=59, velocity=60, time=1),
    Message('note_on', channel=0, note=62, velocity=60, time=0),
    Message('note_on', channel=0, note=47, velocity=60, time=0),
    Message('note_on', channel=0, note=66, velocity=60, time=0),
    Message('note_on', channel=0, note=42, velocity=60, time=0),
    Message('note_on', channel=0, note=54, velocity=60, time=0),
    Message('note_on', channel=0, note=59, velocity=0, time=59),
    Message('note_on', channel=0, note=62, velocity=0, time=0),
    Message('note_on', channel=0, note=47, velocity=0, time=0),
    Message('note_on', channel=0, note=66, velocity=0, time=0),
    Message('note_on', channel=0, note=42, velocity=0, time=0),
    Message('note_on', channel=0, note=54, velocity=0, time=0),
    Message('note_on', channel=0, note=47, velocity=60, time=1),
    Message('note_on', channel=0, note=42, velocity=60, time=0),
    Message('note_on', channel=0, note=59, velocity=60, time=0),
    Message('note_on', channel=0, note=66, velocity=60, time=0),
    Message('note_on', channel=0, note=54, velocity=60, time=0),
    Message('note_on', channel=0, note=62, velocity=60, time=0),
    Message('note_on', channel=0, note=47, velocity=0, time=59),
    Message('note_on', channel=0, note=42, velocity=0, time=0),
    Message('note_on', channel=0, note=59, velocity=0, time=0),
    Message('note_on', channel=0, note=66, velocity=0, time=0),
    Message('note_on', channel=0, note=54, velocity=0, time=0),
    Message('note_on', channel=0, note=62, velocity=0, time=0),
    Message('note_on', channel=0, note=61, velocity=60, time=1),
    Message('note_on', channel=0, note=58, velocity=60, time=0),
    Message('note_on', channel=0, note=54, velocity=60, time=0),
    Message('note_on', channel=0, note=42, velocity=60, time=0),
    Message('note_on', channel=0, note=49, velocity=60, time=0),
    Message('note_on', channel=0, note=66, velocity=60, time=0),
    Message('note_on', channel=0, note=61, velocity=0, time=29),
    Message('note_on', channel=0, note=58, velocity=0, time=0),
    Message('note_on', channel=0, note=54, velocity=0, time=0),
    Message('note_on', channel=0, note=42, velocity=0, time=0),
    Message('note_on', channel=0, note=49, velocity=0, time=0),
    Message('note_on', channel=0, note=66, velocity=0, time=0),
    Message('note_on', channel=0, note=58, velocity=60, time=1),
    Message('note_on', channel=0, note=42, velocity=60, time=0),
    Message('note_on', channel=0, note=49, velocity=60, time=0),
    Message('note_on', channel=0, note=61, velocity=60, time=0),
    Message('note_on', channel=0, note=54, velocity=60, time=0),
    Message('note_on', channel=0, note=66, velocity=60, time=0),
    Message('note_on', channel=0, note=58, velocity=0, time=59),
    Message('note_on', channel=0, note=42, velocity=0, time=0),
    Message('note_on', channel=0, note=49, velocity=0, time=0),
    Message('note_on', channel=0, note=61, velocity=0, time=0),
    Message('note_on', channel=0, note=54, velocity=0, time=0),
    Message('note_on', channel=0, note=66, velocity=0, time=0),
    Message('note_on', channel=0, note=66, velocity=60, time=1),
    Message('note_on', channel=0, note=58, velocity=60, time=0),
    Message('note_on', channel=0, note=49, velocity=60, time=0),
    Message('note_on', channel=0, note=54, velocity=60, time=0),
    Message('note_on', channel=0, note=42, velocity=60, time=0),
    Message('note_on', channel=0, note=61, velocity=60, time=0),
    Message('note_on', channel=0, note=66, velocity=0, time=29),
    Message('note_on', channel=0, note=58, velocity=0, time=0),
    Message('note_on', channel=0, note=49, velocity=0, time=0),
    Message('note_on', channel=0, note=54, velocity=0, time=0),
    Message('note_on', channel=0, note=42, velocity=0, time=0),
    Message('note_on', channel=0, note=61, velocity=0, time=0),
    Message('note_on', channel=0, note=42, velocity=60, time=1),
    Message('note_on', channel=0, note=61, velocity=60, time=0),
    Message('note_on', channel=0, note=54, velocity=60, time=0),
    Message('note_on', channel=0, note=49, velocity=60, time=0),
    Message('note_on', channel=0, note=58, velocity=60, time=0),
    Message('note_on', channel=0, note=66, velocity=60, time=0),
    Message('note_on', channel=0, note=42, velocity=0, time=59),
    Message('note_on', channel=0, note=61, velocity=0, time=0),
    Message('note_on', channel=0, note=54, velocity=0, time=0),
    Message('note_on', channel=0, note=49, velocity=0, time=0),
    Message('note_on', channel=0, note=58, velocity=0, time=0),
    Message('note_on', channel=0, note=66, velocity=0, time=0),
    Message('note_on', channel=0, note=42, velocity=60, time=1),
    Message('note_on', channel=0, note=54, velocity=60, time=0),
    Message('note_on', channel=0, note=58, velocity=60, time=0),
    Message('note_on', channel=0, note=49, velocity=60, time=0),
    Message('note_on', channel=0, note=66, velocity=60, time=0),
    Message('note_on', channel=0, note=61, velocity=60, time=0),
    Message('note_on', channel=0, note=42, velocity=0, time=29),
    Message('note_on', channel=0, note=54, velocity=0, time=0),
    Message('note_on', channel=0, note=58, velocity=0, time=0),
    Message('note_on', channel=0, note=49, velocity=0, time=0),
    Message('note_on', channel=0, note=66, velocity=0, time=0),
    Message('note_on', channel=0, note=61, velocity=0, time=0),
    Message('note_on', channel=0, note=66, velocity=60, time=1),
    Message('note_on', channel=0, note=61, velocity=60, time=0),
    Message('note_on', channel=0, note=58, velocity=60, time=0),
    Message('note_on', channel=0, note=49, velocity=60, time=0),
    Message('note_on', channel=0, note=42, velocity=60, time=0),
    Message('note_on', channel=0, note=54, velocity=60, time=0),
    Message('note_on', channel=0, note=66, velocity=0, time=59),
    Message('note_on', channel=0, note=61, velocity=0, time=0),
    Message('note_on', channel=0, note=58, velocity=0, time=0),
    Message('note_on', channel=0, note=49, velocity=0, time=0),
    Message('note_on', channel=0, note=42, velocity=0, time=0),
    Message('note_on', channel=0, note=54, velocity=0, time=0),
    Message('note_on', channel=0, note=54, velocity=60, time=1),
    Message('note_on', channel=0, note=49, velocity=60, time=0),
    Message('note_on', channel=0, note=61, velocity=60, time=0),
    Message('note_on', channel=0, note=66, velocity=60, time=0),
    Message('note_on', channel=0, note=42, velocity=60, time=0),
    Message('note_on', channel=0, note=58, velocity=60, time=0),
    Message('note_on', channel=0, note=54, velocity=0, time=29),
    Message('note_on', channel=0, note=49, velocity=0, time=0),
    Message('note_on', channel=0, note=61, velocity=0, time=0),
    Message('note_on', channel=0, note=66, velocity=0, time=0),
    Message('note_on', channel=0, note=42, velocity=0, time=0),
    Message('note_on', channel=0, note=58, velocity=0, time=0),
    Message('note_on', channel=0, note=58, velocity=60, time=1),
    Message('note_on', channel=0, note=49, velocity=60, time=0),
    Message('note_on', channel=0, note=61, velocity=60, time=0),
    Message('note_on', channel=0, note=54, velocity=60, time=0),
    Message('note_on', channel=0, note=42, velocity=60, time=0),
    Message('note_on', channel=0, note=66, velocity=60, time=0),
    Message('note_on', channel=0, note=58, velocity=0, time=59),
    Message('note_on', channel=0, note=49, velocity=0, time=0),
    Message('note_on', channel=0, note=61, velocity=0, time=0),
    Message('note_on', channel=0, note=54, velocity=0, time=0),
    Message('note_on', channel=0, note=42, velocity=0, time=0),
    Message('note_on', channel=0, note=66, velocity=0, time=0),
    Message('note_on', channel=0, note=58, velocity=60, time=1),
    Message('note_on', channel=0, note=66, velocity=60, time=0),
    Message('note_on', channel=0, note=61, velocity=60, time=0),
    Message('note_on', channel=0, note=49, velocity=60, time=0),
    Message('note_on', channel=0, note=42, velocity=60, time=0),
    Message('note_on', channel=0, note=54, velocity=60, time=0),
    Message('note_on', channel=0, note=58, velocity=0, time=59),
    Message('note_on', channel=0, note=66, velocity=0, time=0),
    Message('note_on', channel=0, note=61, velocity=0, time=0),
    Message('note_on', channel=0, note=49, velocity=0, time=0),
    Message('note_on', channel=0, note=42, velocity=0, time=0),
    Message('note_on', channel=0, note=54, velocity=0, time=0),
    Message('note_on', channel=0, note=66, velocity=60, time=1),
    Message('note_on', channel=0, note=49, velocity=60, time=0),
    Message('note_on', channel=0, note=42, velocity=60, time=0),
    Message('note_on', channel=0, note=58, velocity=60, time=0),
    Message('note_on', channel=0, note=54, velocity=60, time=0),
    Message('note_on', channel=0, note=61, velocity=60, time=0),
    Message('note_on', channel=0, note=66, velocity=0, time=59),
    Message('note_on', channel=0, note=49, velocity=0, time=0),
    Message('note_on', channel=0, note=42, velocity=0, time=0),
    Message('note_on', channel=0, note=58, velocity=0, time=0),
    Message('note_on', channel=0, note=54, velocity=0, time=0),
    Message('note_on', channel=0, note=61, velocity=0, time=0),
    Message('note_on', channel=0, note=61, velocity=60, time=1),
    Message('note_on', channel=0, note=57, velocity=60, time=0),
    Message('note_on', channel=0, note=40, velocity=60, time=0),
    Message('note_on', channel=0, note=45, velocity=60, time=0),
    Message('note_on', channel=0, note=64, velocity=60, time=0),
    Message('note_on', channel=0, note=52, velocity=60, time=0),
    Message('note_on', channel=0, note=61, velocity=0, time=29),
    Message('note_on', channel=0, note=57, velocity=0, time=0),
    Message('note_on', channel=0, note=40, velocity=0, time=0),
    Message('note_on', channel=0, note=45, velocity=0, time=0),
    Message('note_on', channel=0, note=64, velocity=0, time=0),
    Message('note_on', channel=0, note=52, velocity=0, time=0),
    Message('note_on', channel=0, note=57, velocity=60, time=1),
    Message('note_on', channel=0, note=40, velocity=60, time=0),
    Message('note_on', channel=0, note=61, velocity=60, time=0),
    Message('note_on', channel=0, note=52, velocity=60, time=0),
    Message('note_on', channel=0, note=45, velocity=60, time=0),
    Message('note_on', channel=0, note=64, velocity=60, time=0),
    Message('note_on', channel=0, note=57, velocity=0, time=59),
    Message('note_on', channel=0, note=40, velocity=0, time=0),
    Message('note_on', channel=0, note=61, velocity=0, time=0),
    Message('note_on', channel=0, note=52, velocity=0, time=0),
    Message('note_on', channel=0, note=45, velocity=0, time=0),
    Message('note_on', channel=0, note=64, velocity=0, time=0),
    Message('note_on', channel=0, note=45, velocity=60, time=1),
    Message('note_on', channel=0, note=40, velocity=60, time=0),
    Message('note_on', channel=0, note=52, velocity=60, time=0),
    Message('note_on', channel=0, note=57, velocity=60, time=0),
    Message('note_on', channel=0, note=64, velocity=60, time=0),
    Message('note_on', channel=0, note=61, velocity=60, time=0),
    Message('note_on', channel=0, note=45, velocity=0, time=29),
    Message('note_on', channel=0, note=40, velocity=0, time=0),
    Message('note_on', channel=0, note=52, velocity=0, time=0),
    Message('note_on', channel=0, note=57, velocity=0, time=0),
    Message('note_on', channel=0, note=64, velocity=0, time=0),
    Message('note_on', channel=0, note=61, velocity=0, time=0),
    Message('note_on', channel=0, note=57, velocity=60, time=1),
    Message('note_on', channel=0, note=45, velocity=60, time=0),
    Message('note_on', channel=0, note=64, velocity=60, time=0),
    Message('note_on', channel=0, note=52, velocity=60, time=0),
    Message('note_on', channel=0, note=40, velocity=60, time=0),
    Message('note_on', channel=0, note=61, velocity=60, time=0),
    Message('note_on', channel=0, note=57, velocity=0, time=59),
    Message('note_on', channel=0, note=45, velocity=0, time=0),
    Message('note_on', channel=0, note=64, velocity=0, time=0),
    Message('note_on', channel=0, note=52, velocity=0, time=0),
    Message('note_on', channel=0, note=40, velocity=0, time=0),
    Message('note_on', channel=0, note=61, velocity=0, time=0),
    Message('note_on', channel=0, note=40, velocity=60, time=1),
    Message('note_on', channel=0, note=57, velocity=60, time=0),
    Message('note_on', channel=0, note=64, velocity=60, time=0),
    Message('note_on', channel=0, note=52, velocity=60, time=0),
    Message('note_on', channel=0, note=61, velocity=60, time=0),
    Message('note_on', channel=0, note=45, velocity=60, time=0),
    Message('note_on', channel=0, note=40, velocity=0, time=29),
    Message('note_on', channel=0, note=57, velocity=0, time=0),
    Message('note_on', channel=0, note=64, velocity=0, time=0),
    Message('note_on', channel=0, note=52, velocity=0, time=0),
    Message('note_on', channel=0, note=61, velocity=0, time=0),
    Message('note_on', channel=0, note=45, velocity=0, time=0),
    Message('note_on', channel=0, note=61, velocity=60, time=1),
    Message('note_on', channel=0, note=45, velocity=60, time=0),
    Message('note_on', channel=0, note=64, velocity=60, time=0),
    Message('note_on', channel=0, note=40, velocity=60, time=0),
    Message('note_on', channel=0, note=57, velocity=60, time=0),
    Message('note_on', channel=0, note=52, velocity=60, time=0),
    Message('note_on', channel=0, note=61, velocity=0, time=59),
    Message('note_on', channel=0, note=45, velocity=0, time=0),
    Message('note_on', channel=0, note=64, velocity=0, time=0),
    Message('note_on', channel=0, note=40, velocity=0, time=0),
    Message('note_on', channel=0, note=57, velocity=0, time=0),
    Message('note_on', channel=0, note=52, velocity=0, time=0),
    Message('note_on', channel=0, note=64, velocity=60, time=1),
    Message('note_on', channel=0, note=57, velocity=60, time=0),
    Message('note_on', channel=0, note=40, velocity=60, time=0),
    Message('note_on', channel=0, note=61, velocity=60, time=0),
    Message('note_on', channel=0, note=52, velocity=60, time=0),
    Message('note_on', channel=0, note=45, velocity=60, time=0),
    Message('note_on', channel=0, note=64, velocity=0, time=29),
    Message('note_on', channel=0, note=57, velocity=0, time=0),
    Message('note_on', channel=0, note=40, velocity=0, time=0),
    Message('note_on', channel=0, note=61, velocity=0, time=0),
    Message('note_on', channel=0, note=52, velocity=0, time=0),
    Message('note_on', channel=0, note=45, velocity=0, time=0),
    Message('note_on', channel=0, note=57, velocity=60, time=1),
    Message('note_on', channel=0, note=40, velocity=60, time=0),
    Message('note_on', channel=0, note=52, velocity=60, time=0),
    Message('note_on', channel=0, note=64, velocity=60, time=0),
    Message('note_on', channel=0, note=61, velocity=60, time=0),
    Message('note_on', channel=0, note=45, velocity=60, time=0),
    Message('note_on', channel=0, note=57, velocity=0, time=59),
    Message('note_on', channel=0, note=40, velocity=0, time=0),
    Message('note_on', channel=0, note=52, velocity=0, time=0),
    Message('note_on', channel=0, note=64, velocity=0, time=0),
    Message('note_on', channel=0, note=61, velocity=0, time=0),
    Message('note_on', channel=0, note=45, velocity=0, time=0),
    Message('note_on', channel=0, note=57, velocity=60, time=1),
    Message('note_on', channel=0, note=61, velocity=60, time=0),
    Message('note_on', channel=0, note=45, velocity=60, time=0),
    Message('note_on', channel=0, note=64, velocity=60, time=0),
    Message('note_on', channel=0, note=40, velocity=60, time=0),
    Message('note_on', channel=0, note=52, velocity=60, time=0),
    Message('note_on', channel=0, note=57, velocity=0, time=59),
    Message('note_on', channel=0, note=61, velocity=0, time=0),
    Message('note_on', channel=0, note=45, velocity=0, time=0),
    Message('note_on', channel=0, note=64, velocity=0, time=0),
    Message('note_on', channel=0, note=40, velocity=0, time=0),
    Message('note_on', channel=0, note=52, velocity=0, time=0),
    Message('note_on', channel=0, note=45, velocity=60, time=1),
    Message('note_on', channel=0, note=40, velocity=60, time=0),
    Message('note_on', channel=0, note=57, velocity=60, time=0),
    Message('note_on', channel=0, note=64, velocity=60, time=0),
    Message('note_on', channel=0, note=52, velocity=60, time=0),
    Message('note_on', channel=0, note=61, velocity=60, time=0),
    Message('note_on', channel=0, note=45, velocity=0, time=59),
    Message('note_on', channel=0, note=40, velocity=0, time=0),
    Message('note_on', channel=0, note=57, velocity=0, time=0),
    Message('note_on', channel=0, note=64, velocity=0, time=0),
    Message('note_on', channel=0, note=52, velocity=0, time=0),
    Message('note_on', channel=0, note=61, velocity=0, time=0),
    Message('note_on', channel=0, note=59, velocity=60, time=1),
    Message('note_on', channel=0, note=56, velocity=60, time=0),
    Message('note_on', channel=0, note=52, velocity=60, time=0),
    Message('note_on', channel=0, note=40, velocity=60, time=0),
    Message('note_on', channel=0, note=47, velocity=60, time=0),
    Message('note_on', channel=0, note=64, velocity=60, time=0),
    Message('note_on', channel=0, note=59, velocity=0, time=29),
    Message('note_on', channel=0, note=56, velocity=0, time=0),
    Message('note_on', channel=0, note=52, velocity=0, time=0),
    Message('note_on', channel=0, note=40, velocity=0, time=0),
    Message('note_on', channel=0, note=47, velocity=0, time=0),
    Message('note_on', channel=0, note=64, velocity=0, time=0),
    Message('note_on', channel=0, note=56, velocity=60, time=1),
    Message('note_on', channel=0, note=40, velocity=60, time=0),
    Message('note_on', channel=0, note=47, velocity=60, time=0),
    Message('note_on', channel=0, note=59, velocity=60, time=0),
    Message('note_on', channel=0, note=52, velocity=60, time=0),
    Message('note_on', channel=0, note=64, velocity=60, time=0),
    Message('note_on', channel=0, note=56, velocity=0, time=59),
    Message('note_on', channel=0, note=40, velocity=0, time=0),
    Message('note_on', channel=0, note=47, velocity=0, time=0),
    Message('note_on', channel=0, note=59, velocity=0, time=0),
    Message('note_on', channel=0, note=52, velocity=0, time=0),
    Message('note_on', channel=0, note=64, velocity=0, time=0),
    Message('note_on', channel=0, note=64, velocity=60, time=1),
    Message('note_on', channel=0, note=56, velocity=60, time=0),
    Message('note_on', channel=0, note=47, velocity=60, time=0),
    Message('note_on', channel=0, note=52, velocity=60, time=0),
    Message('note_on', channel=0, note=40, velocity=60, time=0),
    Message('note_on', channel=0, note=59, velocity=60, time=0),
    Message('note_on', channel=0, note=64, velocity=0, time=29),
    Message('note_on', channel=0, note=56, velocity=0, time=0),
    Message('note_on', channel=0, note=47, velocity=0, time=0),
    Message('note_on', channel=0, note=52, velocity=0, time=0),
    Message('note_on', channel=0, note=40, velocity=0, time=0),
    Message('note_on', channel=0, note=59, velocity=0, time=0),
    Message('note_on', channel=0, note=40, velocity=60, time=1),
    Message('note_on', channel=0, note=59, velocity=60, time=0),
    Message('note_on', channel=0, note=52, velocity=60, time=0),
    Message('note_on', channel=0, note=47, velocity=60, time=0),
    Message('note_on', channel=0, note=56, velocity=60, time=0),
    Message('note_on', channel=0, note=64, velocity=60, time=0),
    Message('note_on', channel=0, note=40, velocity=0, time=59),
    Message('note_on', channel=0, note=59, velocity=0, time=0),
    Message('note_on', channel=0, note=52, velocity=0, time=0),
    Message('note_on', channel=0, note=47, velocity=0, time=0),
    Message('note_on', channel=0, note=56, velocity=0, time=0),
    Message('note_on', channel=0, note=64, velocity=0, time=0),
    Message('note_on', channel=0, note=40, velocity=60, time=1),
    Message('note_on', channel=0, note=52, velocity=60, time=0),
    Message('note_on', channel=0, note=56, velocity=60, time=0),
    Message('note_on', channel=0, note=47, velocity=60, time=0),
    Message('note_on', channel=0, note=64, velocity=60, time=0),
    Message('note_on', channel=0, note=59, velocity=60, time=0),
    Message('note_on', channel=0, note=40, velocity=0, time=29),
    Message('note_on', channel=0, note=52, velocity=0, time=0),
    Message('note_on', channel=0, note=56, velocity=0, time=0),
    Message('note_on', channel=0, note=47, velocity=0, time=0),
    Message('note_on', channel=0, note=64, velocity=0, time=0),
    Message('note_on', channel=0, note=59, velocity=0, time=0),
    Message('note_on', channel=0, note=64, velocity=60, time=1),
    Message('note_on', channel=0, note=59, velocity=60, time=0),
    Message('note_on', channel=0, note=56, velocity=60, time=0),
    Message('note_on', channel=0, note=47, velocity=60, time=0),
    Message('note_on', channel=0, note=40, velocity=60, time=0),
    Message('note_on', channel=0, note=52, velocity=60, time=0),
    Message('note_on', channel=0, note=64, velocity=0, time=59),
    Message('note_on', channel=0, note=59, velocity=0, time=0),
    Message('note_on', channel=0, note=56, velocity=0, time=0),
    Message('note_on', channel=0, note=47, velocity=0, time=0),
    Message('note_on', channel=0, note=40, velocity=0, time=0),
    Message('note_on', channel=0, note=52, velocity=0, time=0),
    Message('note_on', channel=0, note=52, velocity=60, time=1),
    Message('note_on', channel=0, note=47, velocity=60, time=0),
    Message('note_on', channel=0, note=59, velocity=60, time=0),
    Message('note_on', channel=0, note=64, velocity=60, time=0),
    Message('note_on', channel=0, note=40, velocity=60, time=0),
    Message('note_on', channel=0, note=56, velocity=60, time=0),
    Message('note_on', channel=0, note=52, velocity=0, time=29),
    Message('note_on', channel=0, note=47, velocity=0, time=0),
    Message('note_on', channel=0, note=59, velocity=0, time=0),
    Message('note_on', channel=0, note=64, velocity=0, time=0),
    Message('note_on', channel=0, note=40, velocity=0, time=0),
    Message('note_on', channel=0, note=56, velocity=0, time=0),
    Message('note_on', channel=0, note=56, velocity=60, time=1),
    Message('note_on', channel=0, note=47, velocity=60, time=0),
    Message('note_on', channel=0, note=59, velocity=60, time=0),
    Message('note_on', channel=0, note=52, velocity=60, time=0),
    Message('note_on', channel=0, note=40, velocity=60, time=0),
    Message('note_on', channel=0, note=64, velocity=60, time=0),
    Message('note_on', channel=0, note=56, velocity=0, time=59),
    Message('note_on', channel=0, note=47, velocity=0, time=0),
    Message('note_on', channel=0, note=59, velocity=0, time=0),
    Message('note_on', channel=0, note=52, velocity=0, time=0),
    Message('note_on', channel=0, note=40, velocity=0, time=0),
    Message('note_on', channel=0, note=64, velocity=0, time=0),
    Message('note_on', channel=0, note=56, velocity=60, time=1),
    Message('note_on', channel=0, note=64, velocity=60, time=0),
    Message('note_on', channel=0, note=59, velocity=60, time=0),
    Message('note_on', channel=0, note=47, velocity=60, time=0),
    Message('note_on', channel=0, note=40, velocity=60, time=0),
    Message('note_on', channel=0, note=52, velocity=60, time=0),
    Message('note_on', channel=0, note=56, velocity=0, time=59),
    Message('note_on', channel=0, note=64, velocity=0, time=0),
    Message('note_on', channel=0, note=59, velocity=0, time=0),
    Message('note_on', channel=0, note=47, velocity=0, time=0),
    Message('note_on', channel=0, note=40, velocity=0, time=0),
    Message('note_on', channel=0, note=52, velocity=0, time=0),
    Message('note_on', channel=0, note=64, velocity=60, time=1),
    Message('note_on', channel=0, note=47, velocity=60, time=0),
    Message('note_on', channel=0, note=40, velocity=60, time=0),
    Message('note_on', channel=0, note=56, velocity=60, time=0),
    Message('note_on', channel=0, note=52, velocity=60, time=0),
    Message('note_on', channel=0, note=59, velocity=60, time=0),
    Message('note_on', channel=0, note=64, velocity=0, time=59),
    Message('note_on', channel=0, note=47, velocity=0, time=0),
    Message('note_on', channel=0, note=40, velocity=0, time=0),
    Message('note_on', channel=0, note=56, velocity=0, time=0),
    Message('note_on', channel=0, note=52, velocity=0, time=0),
    Message('note_on', channel=0, note=59, velocity=0, time=0),
    Message('note_on', channel=0, note=62, velocity=60, time=1),
    Message('note_on', channel=0, note=59, velocity=60, time=0),
    Message('note_on', channel=0, note=43, velocity=60, time=0),
    Message('note_on', channel=0, note=47, velocity=60, time=0),
    Message('note_on', channel=0, note=67, velocity=60, time=0),
    Message('note_on', channel=0, note=55, velocity=60, time=0),
    Message('note_on', channel=0, note=62, velocity=0, time=29),
    Message('note_on', channel=0, note=59, velocity=0, time=0),
    Message('note_on', channel=0, note=43, velocity=0, time=0),
    Message('note_on', channel=0, note=47, velocity=0, time=0),
    Message('note_on', channel=0, note=67, velocity=0, time=0),
    Message('note_on', channel=0, note=55, velocity=0, time=0),
    Message('note_on', channel=0, note=59, velocity=60, time=1),
    Message('note_on', channel=0, note=43, velocity=60, time=0),
    Message('note_on', channel=0, note=62, velocity=60, time=0),
    Message('note_on', channel=0, note=55, velocity=60, time=0),
    Message('note_on', channel=0, note=47, velocity=60, time=0),
    Message('note_on', channel=0, note=67, velocity=60, time=0),
    Message('note_on', channel=0, note=59, velocity=0, time=59),
    Message('note_on', channel=0, note=43, velocity=0, time=0),
    Message('note_on', channel=0, note=62, velocity=0, time=0),
    Message('note_on', channel=0, note=55, velocity=0, time=0),
    Message('note_on', channel=0, note=47, velocity=0, time=0),
    Message('note_on', channel=0, note=67, velocity=0, time=0),
    Message('note_on', channel=0, note=47, velocity=60, time=1),
    Message('note_on', channel=0, note=43, velocity=60, time=0),
    Message('note_on', channel=0, note=55, velocity=60, time=0),
    Message('note_on', channel=0, note=59, velocity=60, time=0),
    Message('note_on', channel=0, note=67, velocity=60, time=0),
    Message('note_on', channel=0, note=62, velocity=60, time=0),
    Message('note_on', channel=0, note=47, velocity=0, time=29),
    Message('note_on', channel=0, note=43, velocity=0, time=0),
    Message('note_on', channel=0, note=55, velocity=0, time=0),
    Message('note_on', channel=0, note=59, velocity=0, time=0),
    Message('note_on', channel=0, note=67, velocity=0, time=0),
    Message('note_on', channel=0, note=62, velocity=0, time=0),
    Message('note_on', channel=0, note=59, velocity=60, time=1),
    Message('note_on', channel=0, note=47, velocity=60, time=0),
    Message('note_on', channel=0, note=67, velocity=60, time=0),
    Message('note_on', channel=0, note=55, velocity=60, time=0),
    Message('note_on', channel=0, note=43, velocity=60, time=0),
    Message('note_on', channel=0, note=62, velocity=60, time=0),
    Message('note_on', channel=0, note=59, velocity=0, time=59),
    Message('note_on', channel=0, note=47, velocity=0, time=0),
    Message('note_on', channel=0, note=67, velocity=0, time=0),
    Message('note_on', channel=0, note=55, velocity=0, time=0),
    Message('note_on', channel=0, note=43, velocity=0, time=0),
    Message('note_on', channel=0, note=62, velocity=0, time=0),
    Message('note_on', channel=0, note=43, velocity=60, time=1),
    Message('note_on', channel=0, note=59, velocity=60, time=0),
    Message('note_on', channel=0, note=67, velocity=60, time=0),
    Message('note_on', channel=0, note=55, velocity=60, time=0),
    Message('note_on', channel=0, note=62, velocity=60, time=0),
    Message('note_on', channel=0, note=47, velocity=60, time=0),
    Message('note_on', channel=0, note=43, velocity=0, time=29),
    Message('note_on', channel=0, note=59, velocity=0, time=0),
    Message('note_on', channel=0, note=67, velocity=0, time=0),
    Message('note_on', channel=0, note=55, velocity=0, time=0),
    Message('note_on', channel=0, note=62, velocity=0, time=0),
    Message('note_on', channel=0, note=47, velocity=0, time=0),
    Message('note_on', channel=0, note=62, velocity=60, time=1),
    Message('note_on', channel=0, note=47, velocity=60, time=0),
    Message('note_on', channel=0, note=67, velocity=60, time=0),
    Message('note_on', channel=0, note=43, velocity=60, time=0),
    Message('note_on', channel=0, note=59, velocity=60, time=0),
    Message('note_on', channel=0, note=55, velocity=60, time=0),
    Message('note_on', channel=0, note=62, velocity=0, time=59),
    Message('note_on', channel=0, note=47, velocity=0, time=0),
    Message('note_on', channel=0, note=67, velocity=0, time=0),
    Message('note_on', channel=0, note=43, velocity=0, time=0),
    Message('note_on', channel=0, note=59, velocity=0, time=0),
    Message('note_on', channel=0, note=55, velocity=0, time=0),
    Message('note_on', channel=0, note=67, velocity=60, time=1),
    Message('note_on', channel=0, note=59, velocity=60, time=0),
    Message('note_on', channel=0, note=43, velocity=60, time=0),
    Message('note_on', channel=0, note=62, velocity=60, time=0),
    Message('note_on', channel=0, note=55, velocity=60, time=0),
    Message('note_on', channel=0, note=47, velocity=60, time=0),
    Message('note_on', channel=0, note=67, velocity=0, time=29),
    Message('note_on', channel=0, note=59, velocity=0, time=0),
    Message('note_on', channel=0, note=43, velocity=0, time=0),
    Message('note_on', channel=0, note=62, velocity=0, time=0),
    Message('note_on', channel=0, note=55, velocity=0, time=0),
    Message('note_on', channel=0, note=47, velocity=0, time=0),
    Message('note_on', channel=0, note=59, velocity=60, time=1),
    Message('note_on', channel=0, note=43, velocity=60, time=0),
    Message('note_on', channel=0, note=55, velocity=60, time=0),
    Message('note_on', channel=0, note=67, velocity=60, time=0),
    Message('note_on', channel=0, note=62, velocity=60, time=0),
    Message('note_on', channel=0, note=47, velocity=60, time=0),
    Message('note_on', channel=0, note=59, velocity=0, time=59),
    Message('note_on', channel=0, note=43, velocity=0, time=0),
    Message('note_on', channel=0, note=55, velocity=0, time=0),
    Message('note_on', channel=0, note=67, velocity=0, time=0),
    Message('note_on', channel=0, note=62, velocity=0, time=0),
    Message('note_on', channel=0, note=47, velocity=0, time=0),
    Message('note_on', channel=0, note=59, velocity=60, time=1),
    Message('note_on', channel=0, note=62, velocity=60, time=0),
    Message('note_on', channel=0, note=47, velocity=60, time=0),
    Message('note_on', channel=0, note=67, velocity=60, time=0),
    Message('note_on', channel=0, note=43, velocity=60, time=0),
    Message('note_on', channel=0, note=55, velocity=60, time=0),
    Message('note_on', channel=0, note=59, velocity=0, time=59),
    Message('note_on', channel=0, note=62, velocity=0, time=0),
    Message('note_on', channel=0, note=47, velocity=0, time=0),
    Message('note_on', channel=0, note=67, velocity=0, time=0),
    Message('note_on', channel=0, note=43, velocity=0, time=0),
    Message('note_on', channel=0, note=55, velocity=0, time=0),
    Message('note_on', channel=0, note=47, velocity=60, time=1),
    Message('note_on', channel=0, note=43, velocity=60, time=0),
    Message('note_on', channel=0, note=59, velocity=60, time=0),
    Message('note_on', channel=0, note=67, velocity=60, time=0),
    Message('note_on', channel=0, note=55, velocity=60, time=0),
    Message('note_on', channel=0, note=62, velocity=60, time=0),
    Message('note_on', channel=0, note=47, velocity=0, time=59),
    Message('note_on', channel=0, note=43, velocity=0, time=0),
    Message('note_on', channel=0, note=59, velocity=0, time=0),
    Message('note_on', channel=0, note=67, velocity=0, time=0),
    Message('note_on', channel=0, note=55, velocity=0, time=0),
    Message('note_on', channel=0, note=62, velocity=0, time=0),
    Message('note_on', channel=0, note=66, velocity=60, time=1),
    Message('note_on', channel=0, note=62, velocity=60, time=0),
    Message('note_on', channel=0, note=57, velocity=60, time=0),
    Message('note_on', channel=0, note=45, velocity=60, time=0),
    Message('note_on', channel=0, note=50, velocity=60, time=0),
    Message('note_on', channel=0, note=69, velocity=60, time=0),
    Message('note_on', channel=0, note=66, velocity=0, time=29),
    Message('note_on', channel=0, note=62, velocity=0, time=0),
    Message('note_on', channel=0, note=57, velocity=0, time=0),
    Message('note_on', channel=0, note=45, velocity=0, time=0),
    Message('note_on', channel=0, note=50, velocity=0, time=0),
    Message('note_on', channel=0, note=69, velocity=0, time=0),
    Message('note_on', channel=0, note=62, velocity=60, time=1),
    Message('note_on', channel=0, note=45, velocity=60, time=0),
    Message('note_on', channel=0, note=50, velocity=60, time=0),
    Message('note_on', channel=0, note=66, velocity=60, time=0),
    Message('note_on', channel=0, note=57, velocity=60, time=0),
    Message('note_on', channel=0, note=69, velocity=60, time=0),
    Message('note_on', channel=0, note=62, velocity=0, time=59),
    Message('note_on', channel=0, note=45, velocity=0, time=0),
    Message('note_on', channel=0, note=50, velocity=0, time=0),
    Message('note_on', channel=0, note=66, velocity=0, time=0),
    Message('note_on', channel=0, note=57, velocity=0, time=0),
    Message('note_on', channel=0, note=69, velocity=0, time=0),
    Message('note_on', channel=0, note=69, velocity=60, time=1),
    Message('note_on', channel=0, note=62, velocity=60, time=0),
    Message('note_on', channel=0, note=50, velocity=60, time=0),
    Message('note_on', channel=0, note=57, velocity=60, time=0),
    Message('note_on', channel=0, note=45, velocity=60, time=0),
    Message('note_on', channel=0, note=66, velocity=60, time=0),
    Message('note_on', channel=0, note=69, velocity=0, time=29),
    Message('note_on', channel=0, note=62, velocity=0, time=0),
    Message('note_on', channel=0, note=50, velocity=0, time=0),
    Message('note_on', channel=0, note=57, velocity=0, time=0),
    Message('note_on', channel=0, note=45, velocity=0, time=0),
    Message('note_on', channel=0, note=66, velocity=0, time=0),
    Message('note_on', channel=0, note=45, velocity=60, time=1),
    Message('note_on', channel=0, note=66, velocity=60, time=0),
    Message('note_on', channel=0, note=57, velocity=60, time=0),
    Message('note_on', channel=0, note=50, velocity=60, time=0),
    Message('note_on', channel=0, note=62, velocity=60, time=0),
    Message('note_on', channel=0, note=69, velocity=60, time=0),
    Message('note_on', channel=0, note=45, velocity=0, time=59),
    Message('note_on', channel=0, note=66, velocity=0, time=0),
    Message('note_on', channel=0, note=57, velocity=0, time=0),
    Message('note_on', channel=0, note=50, velocity=0, time=0),
    Message('note_on', channel=0, note=62, velocity=0, time=0),
    Message('note_on', channel=0, note=69, velocity=0, time=0),
    Message('note_on', channel=0, note=45, velocity=60, time=1),
    Message('note_on', channel=0, note=57, velocity=60, time=0),
    Message('note_on', channel=0, note=62, velocity=60, time=0),
    Message('note_on', channel=0, note=50, velocity=60, time=0),
    Message('note_on', channel=0, note=69, velocity=60, time=0),
    Message('note_on', channel=0, note=66, velocity=60, time=0),
    Message('note_on', channel=0, note=45, velocity=0, time=29),
    Message('note_on', channel=0, note=57, velocity=0, time=0),
    Message('note_on', channel=0, note=62, velocity=0, time=0),
    Message('note_on', channel=0, note=50, velocity=0, time=0),
    Message('note_on', channel=0, note=69, velocity=0, time=0),
    Message('note_on', channel=0, note=66, velocity=0, time=0),
    Message('note_on', channel=0, note=69, velocity=60, time=1),
    Message('note_on', channel=0, note=66, velocity=60, time=0),
    Message('note_on', channel=0, note=62, velocity=60, time=0),
    Message('note_on', channel=0, note=50, velocity=60, time=0),
    Message('note_on', channel=0, note=45, velocity=60, time=0),
    Message('note_on', channel=0, note=57, velocity=60, time=0),
    Message('note_on', channel=0, note=69, velocity=0, time=59),
    Message('note_on', channel=0, note=66, velocity=0, time=0),
    Message('note_on', channel=0, note=62, velocity=0, time=0),
    Message('note_on', channel=0, note=50, velocity=0, time=0),
    Message('note_on', channel=0, note=45, velocity=0, time=0),
    Message('note_on', channel=0, note=57, velocity=0, time=0),
    Message('note_on', channel=0, note=57, velocity=60, time=1),
    Message('note_on', channel=0, note=50, velocity=60, time=0),
    Message('note_on', channel=0, note=66, velocity=60, time=0),
    Message('note_on', channel=0, note=69, velocity=60, time=0),
    Message('note_on', channel=0, note=45, velocity=60, time=0),
    Message('note_on', channel=0, note=62, velocity=60, time=0),
    Message('note_on', channel=0, note=57, velocity=0, time=29),
    Message('note_on', channel=0, note=50, velocity=0, time=0),
    Message('note_on', channel=0, note=66, velocity=0, time=0),
    Message('note_on', channel=0, note=69, velocity=0, time=0),
    Message('note_on', channel=0, note=45, velocity=0, time=0),
    Message('note_on', channel=0, note=62, velocity=0, time=0),
    Message('note_on', channel=0, note=62, velocity=60, time=1),
    Message('note_on', channel=0, note=50, velocity=60, time=0),
    Message('note_on', channel=0, note=66, velocity=60, time=0),
    Message('note_on', channel=0, note=57, velocity=60, time=0),
    Message('note_on', channel=0, note=45, velocity=60, time=0),
    Message('note_on', channel=0, note=69, velocity=60, time=0),
    Message('note_on', channel=0, note=62, velocity=0, time=59),
    Message('note_on', channel=0, note=50, velocity=0, time=0),
    Message('note_on', channel=0, note=66, velocity=0, time=0),
    Message('note_on', channel=0, note=57, velocity=0, time=0),
    Message('note_on', channel=0, note=45, velocity=0, time=0),
    Message('note_on', channel=0, note=69, velocity=0, time=0),
    Message('note_on', channel=0, note=62, velocity=60, time=1),
    Message('note_on', channel=0, note=69, velocity=60, time=0),
    Message('note_on', channel=0, note=66, velocity=60, time=0),
    Message('note_on', channel=0, note=50, velocity=60, time=0),
    Message('note_on', channel=0, note=45, velocity=60, time=0),
    Message('note_on', channel=0, note=57, velocity=60, time=0),
    Message('note_on', channel=0, note=62, velocity=0, time=59),
    Message('note_on', channel=0, note=69, velocity=0, time=0),
    Message('note_on', channel=0, note=66, velocity=0, time=0),
    Message('note_on', channel=0, note=50, velocity=0, time=0),
    Message('note_on', channel=0, note=45, velocity=0, time=0),
    Message('note_on', channel=0, note=57, velocity=0, time=0),
    Message('note_on', channel=0, note=69, velocity=60, time=1),
    Message('note_on', channel=0, note=50, velocity=60, time=0),
    Message('note_on', channel=0, note=45, velocity=60, time=0),
    Message('note_on', channel=0, note=62, velocity=60, time=0),
    Message('note_on', channel=0, note=57, velocity=60, time=0),
    Message('note_on', channel=0, note=66, velocity=60, time=0),
    Message('note_on', channel=0, note=69, velocity=0, time=59),
    Message('note_on', channel=0, note=50, velocity=0, time=0),
    Message('note_on', channel=0, note=45, velocity=0, time=0),
    Message('note_on', channel=0, note=62, velocity=0, time=0),
    Message('note_on', channel=0, note=57, velocity=0, time=0),
    Message('note_on', channel=0, note=66, velocity=0, time=0),
    Message('note_on', channel=0, note=59, velocity=60, time=1),
    Message('note_on', channel=0, note=55, velocity=60, time=0),
    Message('note_on', channel=0, note=40, velocity=60, time=0),
    Message('note_on', channel=0, note=45, velocity=60, time=0),
    Message('note_on', channel=0, note=64, velocity=60, time=0),
    Message('note_on', channel=0, note=52, velocity=60, time=0),
    Message('note_on', channel=0, note=59, velocity=0, time=29),
    Message('note_on', channel=0, note=55, velocity=0, time=0),
    Message('note_on', channel=0, note=40, velocity=0, time=0),
    Message('note_on', channel=0, note=45, velocity=0, time=0),
    Message('note_on', channel=0, note=64, velocity=0, time=0),
    Message('note_on', channel=0, note=52, velocity=0, time=0),
    Message('note_on', channel=0, note=55, velocity=60, time=1),
    Message('note_on', channel=0, note=40, velocity=60, time=0),
    Message('note_on', channel=0, note=59, velocity=60, time=0),
    Message('note_on', channel=0, note=52, velocity=60, time=0),
    Message('note_on', channel=0, note=45, velocity=60, time=0),
    Message('note_on', channel=0, note=64, velocity=60, time=0),
    Message('note_on', channel=0, note=55, velocity=0, time=59),
    Message('note_on', channel=0, note=40, velocity=0, time=0),
    Message('note_on', channel=0, note=59, velocity=0, time=0),
    Message('note_on', channel=0, note=52, velocity=0, time=0),
    Message('note_on', channel=0, note=45, velocity=0, time=0),
    Message('note_on', channel=0, note=64, velocity=0, time=0),
    Message('note_on', channel=0, note=45, velocity=60, time=1),
    Message('note_on', channel=0, note=40, velocity=60, time=0),
    Message('note_on', channel=0, note=52, velocity=60, time=0),
    Message('note_on', channel=0, note=55, velocity=60, time=0),
    Message('note_on', channel=0, note=64, velocity=60, time=0),
    Message('note_on', channel=0, note=59, velocity=60, time=0),
    Message('note_on', channel=0, note=45, velocity=0, time=29),
    Message('note_on', channel=0, note=40, velocity=0, time=0),
    Message('note_on', channel=0, note=52, velocity=0, time=0),
    Message('note_on', channel=0, note=55, velocity=0, time=0),
    Message('note_on', channel=0, note=64, velocity=0, time=0),
    Message('note_on', channel=0, note=59, velocity=0, time=0),
    Message('note_on', channel=0, note=55, velocity=60, time=1),
    Message('note_on', channel=0, note=45, velocity=60, time=0),
    Message('note_on', channel=0, note=64, velocity=60, time=0),
    Message('note_on', channel=0, note=52, velocity=60, time=0),
    Message('note_on', channel=0, note=40, velocity=60, time=0),
    Message('note_on', channel=0, note=59, velocity=60, time=0),
    Message('note_on', channel=0, note=55, velocity=0, time=59),
    Message('note_on', channel=0, note=45, velocity=0, time=0),
    Message('note_on', channel=0, note=64, velocity=0, time=0),
    Message('note_on', channel=0, note=52, velocity=0, time=0),
    Message('note_on', channel=0, note=40, velocity=0, time=0),
    Message('note_on', channel=0, note=59, velocity=0, time=0),
    Message('note_on', channel=0, note=40, velocity=60, time=1),
    Message('note_on', channel=0, note=55, velocity=60, time=0),
    Message('note_on', channel=0, note=64, velocity=60, time=0),
    Message('note_on', channel=0, note=52, velocity=60, time=0),
    Message('note_on', channel=0, note=59, velocity=60, time=0),
    Message('note_on', channel=0, note=45, velocity=60, time=0),
    Message('note_on', channel=0, note=40, velocity=0, time=29),
    Message('note_on', channel=0, note=55, velocity=0, time=0),
    Message('note_on', channel=0, note=64, velocity=0, time=0),
    Message('note_on', channel=0, note=52, velocity=0, time=0),
    Message('note_on', channel=0, note=59, velocity=0, time=0),
    Message('note_on', channel=0, note=45, velocity=0, time=0),
    Message('note_on', channel=0, note=59, velocity=60, time=1),
    Message('note_on', channel=0, note=45, velocity=60, time=0),
    Message('note_on', channel=0, note=64, velocity=60, time=0),
    Message('note_on', channel=0, note=40, velocity=60, time=0),
    Message('note_on', channel=0, note=55, velocity=60, time=0),
    Message('note_on', channel=0, note=52, velocity=60, time=0),
    Message('note_on', channel=0, note=59, velocity=0, time=59),
    Message('note_on', channel=0, note=45, velocity=0, time=0),
    Message('note_on', channel=0, note=64, velocity=0, time=0),
    Message('note_on', channel=0, note=40, velocity=0, time=0),
    Message('note_on', channel=0, note=55, velocity=0, time=0),
    Message('note_on', channel=0, note=52, velocity=0, time=0),
    Message('note_on', channel=0, note=64, velocity=60, time=1),
    Message('note_on', channel=0, note=55, velocity=60, time=0),
    Message('note_on', channel=0, note=40, velocity=60, time=0),
    Message('note_on', channel=0, note=59, velocity=60, time=0),
    Message('note_on', channel=0, note=52, velocity=60, time=0),
    Message('note_on', channel=0, note=45, velocity=60, time=0),
    Message('note_on', channel=0, note=64, velocity=0, time=29),
    Message('note_on', channel=0, note=55, velocity=0, time=0),
    Message('note_on', channel=0, note=40, velocity=0, time=0),
    Message('note_on', channel=0, note=59, velocity=0, time=0),
    Message('note_on', channel=0, note=52, velocity=0, time=0),
    Message('note_on', channel=0, note=45, velocity=0, time=0),
    Message('note_on', channel=0, note=55, velocity=60, time=1),
    Message('note_on', channel=0, note=40, velocity=60, time=0),
    Message('note_on', channel=0, note=52, velocity=60, time=0),
    Message('note_on', channel=0, note=64, velocity=60, time=0),
    Message('note_on', channel=0, note=59, velocity=60, time=0),
    Message('note_on', channel=0, note=45, velocity=60, time=0),
    Message('note_on', channel=0, note=55, velocity=0, time=59),
    Message('note_on', channel=0, note=40, velocity=0, time=0),
    Message('note_on', channel=0, note=52, velocity=0, time=0),
    Message('note_on', channel=0, note=64, velocity=0, time=0),
    Message('note_on', channel=0, note=59, velocity=0, time=0),
    Message('note_on', channel=0, note=45, velocity=0, time=0),
    Message('note_on', channel=0, note=55, velocity=60, time=1),
    Message('note_on', channel=0, note=59, velocity=60, time=0),
    Message('note_on', channel=0, note=45, velocity=60, time=0),
    Message('note_on', channel=0, note=64, velocity=60, time=0),
    Message('note_on', channel=0, note=40, velocity=60, time=0),
    Message('note_on', channel=0, note=52, velocity=60, time=0),
    Message('note_on', channel=0, note=55, velocity=0, time=59),
    Message('note_on', channel=0, note=59, velocity=0, time=0),
    Message('note_on', channel=0, note=45, velocity=0, time=0),
    Message('note_on', channel=0, note=64, velocity=0, time=0),
    Message('note_on', channel=0, note=40, velocity=0, time=0),
    Message('note_on', channel=0, note=52, velocity=0, time=0),
    Message('note_on', channel=0, note=45, velocity=60, time=1),
    Message('note_on', channel=0, note=40, velocity=60, time=0),
    Message('note_on', channel=0, note=55, velocity=60, time=0),
    Message('note_on', channel=0, note=64, velocity=60, time=0),
    Message('note_on', channel=0, note=52, velocity=60, time=0),
    Message('note_on', channel=0, note=59, velocity=60, time=0),
    Message('note_on', channel=0, note=45, velocity=0, time=59),
    Message('note_on', channel=0, note=40, velocity=0, time=0),
    Message('note_on', channel=0, note=55, velocity=0, time=0),
    Message('note_on', channel=0, note=64, velocity=0, time=0),
    Message('note_on', channel=0, note=52, velocity=0, time=0),
    Message('note_on', channel=0, note=59, velocity=0, time=0),
    Message('note_on', channel=0, note=61, velocity=60, time=1),
    Message('note_on', channel=0, note=58, velocity=60, time=0),
    Message('note_on', channel=0, note=54, velocity=60, time=0),
    Message('note_on', channel=0, note=42, velocity=60, time=0),
    Message('note_on', channel=0, note=49, velocity=60, time=0),
    Message('note_on', channel=0, note=66, velocity=60, time=0),
    Message('note_on', channel=0, note=61, velocity=0, time=29),
    Message('note_on', channel=0, note=58, velocity=0, time=0),
    Message('note_on', channel=0, note=54, velocity=0, time=0),
    Message('note_on', channel=0, note=42, velocity=0, time=0),
    Message('note_on', channel=0, note=49, velocity=0, time=0),
    Message('note_on', channel=0, note=66, velocity=0, time=0),
    Message('note_on', channel=0, note=58, velocity=60, time=1),
    Message('note_on', channel=0, note=42, velocity=60, time=0),
    Message('note_on', channel=0, note=49, velocity=60, time=0),
    Message('note_on', channel=0, note=61, velocity=60, time=0),
    Message('note_on', channel=0, note=54, velocity=60, time=0),
    Message('note_on', channel=0, note=66, velocity=60, time=0),
    Message('note_on', channel=0, note=58, velocity=0, time=59),
    Message('note_on', channel=0, note=42, velocity=0, time=0),
    Message('note_on', channel=0, note=49, velocity=0, time=0),
    Message('note_on', channel=0, note=61, velocity=0, time=0),
    Message('note_on', channel=0, note=54, velocity=0, time=0),
    Message('note_on', channel=0, note=66, velocity=0, time=0),
    Message('note_on', channel=0, note=66, velocity=60, time=1),
    Message('note_on', channel=0, note=58, velocity=60, time=0),
    Message('note_on', channel=0, note=49, velocity=60, time=0),
    Message('note_on', channel=0, note=54, velocity=60, time=0),
    Message('note_on', channel=0, note=42, velocity=60, time=0),
    Message('note_on', channel=0, note=61, velocity=60, time=0),
    Message('note_on', channel=0, note=66, velocity=0, time=29),
    Message('note_on', channel=0, note=58, velocity=0, time=0),
    Message('note_on', channel=0, note=49, velocity=0, time=0),
    Message('note_on', channel=0, note=54, velocity=0, time=0),
    Message('note_on', channel=0, note=42, velocity=0, time=0),
    Message('note_on', channel=0, note=61, velocity=0, time=0),
    Message('note_on', channel=0, note=42, velocity=60, time=1),
    Message('note_on', channel=0, note=61, velocity=60, time=0),
    Message('note_on', channel=0, note=54, velocity=60, time=0),
    Message('note_on', channel=0, note=49, velocity=60, time=0),
    Message('note_on', channel=0, note=58, velocity=60, time=0),
    Message('note_on', channel=0, note=66, velocity=60, time=0),
    Message('note_on', channel=0, note=42, velocity=0, time=59),
    Message('note_on', channel=0, note=61, velocity=0, time=0),
    Message('note_on', channel=0, note=54, velocity=0, time=0),
    Message('note_on', channel=0, note=49, velocity=0, time=0),
    Message('note_on', channel=0, note=58, velocity=0, time=0),
    Message('note_on', channel=0, note=66, velocity=0, time=0),
    Message('note_on', channel=0, note=42, velocity=60, time=1),
    Message('note_on', channel=0, note=54, velocity=60, time=0),
    Message('note_on', channel=0, note=58, velocity=60, time=0),
    Message('note_on', channel=0, note=49, velocity=60, time=0),
    Message('note_on', channel=0, note=66, velocity=60, time=0),
    Message('note_on', channel=0, note=61, velocity=60, time=0),
    Message('note_on', channel=0, note=42, velocity=0, time=29),
    Message('note_on', channel=0, note=54, velocity=0, time=0),
    Message('note_on', channel=0, note=58, velocity=0, time=0),
    Message('note_on', channel=0, note=49, velocity=0, time=0),
    Message('note_on', channel=0, note=66, velocity=0, time=0),
    Message('note_on', channel=0, note=61, velocity=0, time=0),
    Message('note_on', channel=0, note=66, velocity=60, time=1),
    Message('note_on', channel=0, note=61, velocity=60, time=0),
    Message('note_on', channel=0, note=58, velocity=60, time=0),
    Message('note_on', channel=0, note=49, velocity=60, time=0),
    Message('note_on', channel=0, note=42, velocity=60, time=0),
    Message('note_on', channel=0, note=54, velocity=60, time=0),
    Message('note_on', channel=0, note=66, velocity=0, time=59),
    Message('note_on', channel=0, note=61, velocity=0, time=0),
    Message('note_on', channel=0, note=58, velocity=0, time=0),
    Message('note_on', channel=0, note=49, velocity=0, time=0),
    Message('note_on', channel=0, note=42, velocity=0, time=0),
    Message('note_on', channel=0, note=54, velocity=0, time=0),
    Message('note_on', channel=0, note=54, velocity=60, time=1),
    Message('note_on', channel=0, note=49, velocity=60, time=0),
    Message('note_on', channel=0, note=61, velocity=60, time=0),
    Message('note_on', channel=0, note=66, velocity=60, time=0),
    Message('note_on', channel=0, note=42, velocity=60, time=0),
    Message('note_on', channel=0, note=58, velocity=60, time=0),
    Message('note_on', channel=0, note=54, velocity=0, time=29),
    Message('note_on', channel=0, note=49, velocity=0, time=0),
    Message('note_on', channel=0, note=61, velocity=0, time=0),
    Message('note_on', channel=0, note=66, velocity=0, time=0),
    Message('note_on', channel=0, note=42, velocity=0, time=0),
    Message('note_on', channel=0, note=58, velocity=0, time=0),
    Message('note_on', channel=0, note=58, velocity=60, time=1),
    Message('note_on', channel=0, note=49, velocity=60, time=0),
    Message('note_on', channel=0, note=61, velocity=60, time=0),
    Message('note_on', channel=0, note=54, velocity=60, time=0),
    Message('note_on', channel=0, note=42, velocity=60, time=0),
    Message('note_on', channel=0, note=66, velocity=60, time=0),
    Message('note_on', channel=0, note=58, velocity=0, time=59),
    Message('note_on', channel=0, note=49, velocity=0, time=0),
    Message('note_on', channel=0, note=61, velocity=0, time=0),
    Message('note_on', channel=0, note=54, velocity=0, time=0),
    Message('note_on', channel=0, note=42, velocity=0, time=0),
    Message('note_on', channel=0, note=66, velocity=0, time=0),
    Message('note_on', channel=0, note=58, velocity=60, time=1),
    Message('note_on', channel=0, note=66, velocity=60, time=0),
    Message('note_on', channel=0, note=61, velocity=60, time=0),
    Message('note_on', channel=0, note=49, velocity=60, time=0),
    Message('note_on', channel=0, note=42, velocity=60, time=0),
    Message('note_on', channel=0, note=54, velocity=60, time=0),
    Message('note_on', channel=0, note=58, velocity=0, time=59),
    Message('note_on', channel=0, note=66, velocity=0, time=0),
    Message('note_on', channel=0, note=61, velocity=0, time=0),
    Message('note_on', channel=0, note=49, velocity=0, time=0),
    Message('note_on', channel=0, note=42, velocity=0, time=0),
    Message('note_on', channel=0, note=54, velocity=0, time=0),
    Message('note_on', channel=0, note=66, velocity=60, time=1),
    Message('note_on', channel=0, note=49, velocity=60, time=0),
    Message('note_on', channel=0, note=42, velocity=60, time=0),
    Message('note_on', channel=0, note=58, velocity=60, time=0),
    Message('note_on', channel=0, note=54, velocity=60, time=0),
    Message('note_on', channel=0, note=61, velocity=60, time=0),
    Message('note_on', channel=0, note=66, velocity=0, time=59),
    Message('note_on', channel=0, note=49, velocity=0, time=0),
    Message('note_on', channel=0, note=42, velocity=0, time=0),
    Message('note_on', channel=0, note=58, velocity=0, time=0),
    Message('note_on', channel=0, note=54, velocity=0, time=0),
    Message('note_on', channel=0, note=61, velocity=0, time=0),
    Message('note_on', channel=0, note=62, velocity=60, time=1),
    Message('note_on', channel=0, note=59, velocity=60, time=0),
    Message('note_on', channel=0, note=42, velocity=60, time=0),
    Message('note_on', channel=0, note=47, velocity=60, time=0),
    Message('note_on', channel=0, note=66, velocity=60, time=0),
    Message('note_on', channel=0, note=54, velocity=60, time=0),
    Message('note_on', channel=0, note=62, velocity=0, time=29),
    Message('note_on', channel=0, note=59, velocity=0, time=0),
    Message('note_on', channel=0, note=42, velocity=0, time=0),
    Message('note_on', channel=0, note=47, velocity=0, time=0),
    Message('note_on', channel=0, note=66, velocity=0, time=0),
    Message('note_on', channel=0, note=54, velocity=0, time=0),
    Message('note_on', channel=0, note=59, velocity=60, time=1),
    Message('note_on', channel=0, note=42, velocity=60, time=0),
    Message('note_on', channel=0, note=62, velocity=60, time=0),
    Message('note_on', channel=0, note=54, velocity=60, time=0),
    Message('note_on', channel=0, note=47, velocity=60, time=0),
    Message('note_on', channel=0, note=66, velocity=60, time=0),
    Message('note_on', channel=0, note=59, velocity=0, time=59),
    Message('note_on', channel=0, note=42, velocity=0, time=0),
    Message('note_on', channel=0, note=62, velocity=0, time=0),
    Message('note_on', channel=0, note=54, velocity=0, time=0),
    Message('note_on', channel=0, note=47, velocity=0, time=0),
    Message('note_on', channel=0, note=66, velocity=0, time=0),
    Message('note_on', channel=0, note=47, velocity=60, time=1),
    Message('note_on', channel=0, note=42, velocity=60, time=0),
    Message('note_on', channel=0, note=54, velocity=60, time=0),
    Message('note_on', channel=0, note=59, velocity=60, time=0),
    Message('note_on', channel=0, note=66, velocity=60, time=0),
    Message('note_on', channel=0, note=62, velocity=60, time=0),
    Message('note_on', channel=0, note=47, velocity=0, time=29),
    Message('note_on', channel=0, note=42, velocity=0, time=0),
    Message('note_on', channel=0, note=54, velocity=0, time=0),
    Message('note_on', channel=0, note=59, velocity=0, time=0),
    Message('note_on', channel=0, note=66, velocity=0, time=0),
    Message('note_on', channel=0, note=62, velocity=0, time=0),
    Message('note_on', channel=0, note=59, velocity=60, time=1),
    Message('note_on', channel=0, note=47, velocity=60, time=0),
    Message('note_on', channel=0, note=66, velocity=60, time=0),
    Message('note_on', channel=0, note=54, velocity=60, time=0),
    Message('note_on', channel=0, note=42, velocity=60, time=0),
    Message('note_on', channel=0, note=62, velocity=60, time=0),
    Message('note_on', channel=0, note=59, velocity=0, time=59),
    Message('note_on', channel=0, note=47, velocity=0, time=0),
    Message('note_on', channel=0, note=66, velocity=0, time=0),
    Message('note_on', channel=0, note=54, velocity=0, time=0),
    Message('note_on', channel=0, note=42, velocity=0, time=0),
    Message('note_on', channel=0, note=62, velocity=0, time=0),
    Message('note_on', channel=0, note=42, velocity=60, time=1),
    Message('note_on', channel=0, note=59, velocity=60, time=0),
    Message('note_on', channel=0, note=66, velocity=60, time=0),
    Message('note_on', channel=0, note=54, velocity=60, time=0),
    Message('note_on', channel=0, note=62, velocity=60, time=0),
    Message('note_on', channel=0, note=47, velocity=60, time=0),
    Message('note_on', channel=0, note=42, velocity=0, time=29),
    Message('note_on', channel=0, note=59, velocity=0, time=0),
    Message('note_on', channel=0, note=66, velocity=0, time=0),
    Message('note_on', channel=0, note=54, velocity=0, time=0),
    Message('note_on', channel=0, note=62, velocity=0, time=0),
    Message('note_on', channel=0, note=47, velocity=0, time=0),
    Message('note_on', channel=0, note=62, velocity=60, time=1),
    Message('note_on', channel=0, note=47, velocity=60, time=0),
    Message('note_on', channel=0, note=66, velocity=60, time=0),
    Message('note_on', channel=0, note=42, velocity=60, time=0),
    Message('note_on', channel=0, note=59, velocity=60, time=0),
    Message('note_on', channel=0, note=54, velocity=60, time=0),
    Message('note_on', channel=0, note=62, velocity=0, time=59),
    Message('note_on', channel=0, note=47, velocity=0, time=0),
    Message('note_on', channel=0, note=66, velocity=0, time=0),
    Message('note_on', channel=0, note=42, velocity=0, time=0),
    Message('note_on', channel=0, note=59, velocity=0, time=0),
    Message('note_on', channel=0, note=54, velocity=0, time=0),
    Message('note_on', channel=0, note=66, velocity=60, time=1),
    Message('note_on', channel=0, note=59, velocity=60, time=0),
    Message('note_on', channel=0, note=42, velocity=60, time=0),
    Message('note_on', channel=0, note=62, velocity=60, time=0),
    Message('note_on', channel=0, note=54, velocity=60, time=0),
    Message('note_on', channel=0, note=47, velocity=60, time=0),
    Message('note_on', channel=0, note=66, velocity=0, time=29),
    Message('note_on', channel=0, note=59, velocity=0, time=0),
    Message('note_on', channel=0, note=42, velocity=0, time=0),
    Message('note_on', channel=0, note=62, velocity=0, time=0),
    Message('note_on', channel=0, note=54, velocity=0, time=0),
    Message('note_on', channel=0, note=47, velocity=0, time=0),
    Message('note_on', channel=0, note=59, velocity=60, time=1),
    Message('note_on', channel=0, note=42, velocity=60, time=0),
    Message('note_on', channel=0, note=54, velocity=60, time=0),
    Message('note_on', channel=0, note=66, velocity=60, time=0),
    Message('note_on', channel=0, note=62, velocity=60, time=0),
    Message('note_on', channel=0, note=47, velocity=60, time=0),
    Message('note_on', channel=0, note=59, velocity=0, time=59),
    Message('note_on', channel=0, note=42, velocity=0, time=0),
    Message('note_on', channel=0, note=54, velocity=0, time=0),
    Message('note_on', channel=0, note=66, velocity=0, time=0),
    Message('note_on', channel=0, note=62, velocity=0, time=0),
    Message('note_on', channel=0, note=47, velocity=0, time=0),
    Message('note_on', channel=0, note=59, velocity=60, time=1),
    Message('note_on', channel=0, note=62, velocity=60, time=0),
    Message('note_on', channel=0, note=47, velocity=60, time=0),
    Message('note_on', channel=0, note=66, velocity=60, time=0),
    Message('note_on', channel=0, note=42, velocity=60, time=0),
    Message('note_on', channel=0, note=54, velocity=60, time=0),
    Message('note_on', channel=0, note=59, velocity=0, time=59),
    Message('note_on', channel=0, note=62, velocity=0, time=0),
    Message('note_on', channel=0, note=47, velocity=0, time=0),
    Message('note_on', channel=0, note=66, velocity=0, time=0),
    Message('note_on', channel=0, note=42, velocity=0, time=0),
    Message('note_on', channel=0, note=54, velocity=0, time=0),
    Message('note_on', channel=0, note=47, velocity=60, time=1),
    Message('note_on', channel=0, note=42, velocity=60, time=0),
    Message('note_on', channel=0, note=59, velocity=60, time=0),
    Message('note_on', channel=0, note=66, velocity=60, time=0),
    Message('note_on', channel=0, note=54, velocity=60, time=0),
    Message('note_on', channel=0, note=62, velocity=60, time=0),
    Message('note_on', channel=0, note=47, velocity=0, time=59),
    Message('note_on', channel=0, note=42, velocity=0, time=0),
    Message('note_on', channel=0, note=59, velocity=0, time=0),
    Message('note_on', channel=0, note=66, velocity=0, time=0),
    Message('note_on', channel=0, note=54, velocity=0, time=0),
    Message('note_on', channel=0, note=62, velocity=0, time=0),
    Message('note_on', channel=0, note=61, velocity=60, time=1),
    Message('note_on', channel=0, note=58, velocity=60, time=0),
    Message('note_on', channel=0, note=54, velocity=60, time=0),
    Message('note_on', channel=0, note=42, velocity=60, time=0),
    Message('note_on', channel=0, note=49, velocity=60, time=0),
    Message('note_on', channel=0, note=66, velocity=60, time=0),
    Message('note_on', channel=0, note=61, velocity=0, time=29),
    Message('note_on', channel=0, note=58, velocity=0, time=0),
    Message('note_on', channel=0, note=54, velocity=0, time=0),
    Message('note_on', channel=0, note=42, velocity=0, time=0),
    Message('note_on', channel=0, note=49, velocity=0, time=0),
    Message('note_on', channel=0, note=66, velocity=0, time=0),
    Message('note_on', channel=0, note=58, velocity=60, time=1),
    Message('note_on', channel=0, note=42, velocity=60, time=0),
    Message('note_on', channel=0, note=49, velocity=60, time=0),
    Message('note_on', channel=0, note=61, velocity=60, time=0),
    Message('note_on', channel=0, note=54, velocity=60, time=0),
    Message('note_on', channel=0, note=66, velocity=60, time=0),
    Message('note_on', channel=0, note=58, velocity=0, time=59),
    Message('note_on', channel=0, note=42, velocity=0, time=0),
    Message('note_on', channel=0, note=49, velocity=0, time=0),
    Message('note_on', channel=0, note=61, velocity=0, time=0),
    Message('note_on', channel=0, note=54, velocity=0, time=0),
    Message('note_on', channel=0, note=66, velocity=0, time=0),
    Message('note_on', channel=0, note=66, velocity=60, time=1),
    Message('note_on', channel=0, note=58, velocity=60, time=0),
    Message('note_on', channel=0, note=49, velocity=60, time=0),
    Message('note_on', channel=0, note=54, velocity=60, time=0),
    Message('note_on', channel=0, note=42, velocity=60, time=0),
    Message('note_on', channel=0, note=61, velocity=60, time=0),
    Message('note_on', channel=0, note=66, velocity=0, time=29),
    Message('note_on', channel=0, note=58, velocity=0, time=0),
    Message('note_on', channel=0, note=49, velocity=0, time=0),
    Message('note_on', channel=0, note=54, velocity=0, time=0),
    Message('note_on', channel=0, note=42, velocity=0, time=0),
    Message('note_on', channel=0, note=61, velocity=0, time=0),
    Message('note_on', channel=0, note=42, velocity=60, time=1),
    Message('note_on', channel=0, note=61, velocity=60, time=0),
    Message('note_on', channel=0, note=54, velocity=60, time=0),
    Message('note_on', channel=0, note=49, velocity=60, time=0),
    Message('note_on', channel=0, note=58, velocity=60, time=0),
    Message('note_on', channel=0, note=66, velocity=60, time=0),
    Message('note_on', channel=0, note=42, velocity=0, time=59),
    Message('note_on', channel=0, note=61, velocity=0, time=0),
    Message('note_on', channel=0, note=54, velocity=0, time=0),
    Message('note_on', channel=0, note=49, velocity=0, time=0),
    Message('note_on', channel=0, note=58, velocity=0, time=0),
    Message('note_on', channel=0, note=66, velocity=0, time=0),
    Message('note_on', channel=0, note=42, velocity=60, time=1),
    Message('note_on', channel=0, note=54, velocity=60, time=0),
    Message('note_on', channel=0, note=58, velocity=60, time=0),
    Message('note_on', channel=0, note=49, velocity=60, time=0),
    Message('note_on', channel=0, note=66, velocity=60, time=0),
    Message('note_on', channel=0, note=61, velocity=60, time=0),
    Message('note_on', channel=0, note=42, velocity=0, time=29),
    Message('note_on', channel=0, note=54, velocity=0, time=0),
    Message('note_on', channel=0, note=58, velocity=0, time=0),
    Message('note_on', channel=0, note=49, velocity=0, time=0),
    Message('note_on', channel=0, note=66, velocity=0, time=0),
    Message('note_on', channel=0, note=61, velocity=0, time=0),
    Message('note_on', channel=0, note=66, velocity=60, time=1),
    Message('note_on', channel=0, note=61, velocity=60, time=0),
    Message('note_on', channel=0, note=58, velocity=60, time=0),
    Message('note_on', channel=0, note=49, velocity=60, time=0),
    Message('note_on', channel=0, note=42, velocity=60, time=0),
    Message('note_on', channel=0, note=54, velocity=60, time=0),
    Message('note_on', channel=0, note=66, velocity=0, time=59),
    Message('note_on', channel=0, note=61, velocity=0, time=0),
    Message('note_on', channel=0, note=58, velocity=0, time=0),
    Message('note_on', channel=0, note=49, velocity=0, time=0),
    Message('note_on', channel=0, note=42, velocity=0, time=0),
    Message('note_on', channel=0, note=54, velocity=0, time=0),
    Message('note_on', channel=0, note=54, velocity=60, time=1),
    Message('note_on', channel=0, note=49, velocity=60, time=0),
    Message('note_on', channel=0, note=61, velocity=60, time=0),
    Message('note_on', channel=0, note=66, velocity=60, time=0),
    Message('note_on', channel=0, note=42, velocity=60, time=0),
    Message('note_on', channel=0, note=58, velocity=60, time=0),
    Message('note_on', channel=0, note=54, velocity=0, time=29),
    Message('note_on', channel=0, note=49, velocity=0, time=0),
    Message('note_on', channel=0, note=61, velocity=0, time=0),
    Message('note_on', channel=0, note=66, velocity=0, time=0),
    Message('note_on', channel=0, note=42, velocity=0, time=0),
    Message('note_on', channel=0, note=58, velocity=0, time=0),
    Message('note_on', channel=0, note=58, velocity=60, time=1),
    Message('note_on', channel=0, note=49, velocity=60, time=0),
    Message('note_on', channel=0, note=61, velocity=60, time=0),
    Message('note_on', channel=0, note=54, velocity=60, time=0),
    Message('note_on', channel=0, note=42, velocity=60, time=0),
    Message('note_on', channel=0, note=66, velocity=60, time=0),
    Message('note_on', channel=0, note=58, velocity=0, time=59),
    Message('note_on', channel=0, note=49, velocity=0, time=0),
    Message('note_on', channel=0, note=61, velocity=0, time=0),
    Message('note_on', channel=0, note=54, velocity=0, time=0),
    Message('note_on', channel=0, note=42, velocity=0, time=0),
    Message('note_on', channel=0, note=66, velocity=0, time=0),
    Message('note_on', channel=0, note=58, velocity=60, time=1),
    Message('note_on', channel=0, note=66, velocity=60, time=0),
    Message('note_on', channel=0, note=61, velocity=60, time=0),
    Message('note_on', channel=0, note=49, velocity=60, time=0),
    Message('note_on', channel=0, note=42, velocity=60, time=0),
    Message('note_on', channel=0, note=54, velocity=60, time=0),
    Message('note_on', channel=0, note=58, velocity=0, time=59),
    Message('note_on', channel=0, note=66, velocity=0, time=0),
    Message('note_on', channel=0, note=61, velocity=0, time=0),
    Message('note_on', channel=0, note=49, velocity=0, time=0),
    Message('note_on', channel=0, note=42, velocity=0, time=0),
    Message('note_on', channel=0, note=54, velocity=0, time=0),
    Message('note_on', channel=0, note=66, velocity=60, time=1),
    Message('note_on', channel=0, note=49, velocity=60, time=0),
    Message('note_on', channel=0, note=42, velocity=60, time=0),
    Message('note_on', channel=0, note=58, velocity=60, time=0),
    Message('note_on', channel=0, note=54, velocity=60, time=0),
    Message('note_on', channel=0, note=61, velocity=60, time=0),
    Message('note_on', channel=0, note=66, velocity=0, time=59),
    Message('note_on', channel=0, note=49, velocity=0, time=0),
    Message('note_on', channel=0, note=42, velocity=0, time=0),
    Message('note_on', channel=0, note=58, velocity=0, time=0),
    Message('note_on', channel=0, note=54, velocity=0, time=0),
    Message('note_on', channel=0, note=61, velocity=0, time=0),
    Message('note_on', channel=0, note=61, velocity=60, time=1),
    Message('note_on', channel=0, note=57, velocity=60, time=0),
    Message('note_on', channel=0, note=40, velocity=60, time=0),
    Message('note_on', channel=0, note=45, velocity=60, time=0),
    Message('note_on', channel=0, note=64, velocity=60, time=0),
    Message('note_on', channel=0, note=52, velocity=60, time=0),
    Message('note_on', channel=0, note=61, velocity=0, time=29),
    Message('note_on', channel=0, note=57, velocity=0, time=0),
    Message('note_on', channel=0, note=40, velocity=0, time=0),
    Message('note_on', channel=0, note=45, velocity=0, time=0),
    Message('note_on', channel=0, note=64, velocity=0, time=0),
    Message('note_on', channel=0, note=52, velocity=0, time=0),
    Message('note_on', channel=0, note=57, velocity=60, time=1),
    Message('note_on', channel=0, note=40, velocity=60, time=0),
    Message('note_on', channel=0, note=61, velocity=60, time=0),
    Message('note_on', channel=0, note=52, velocity=60, time=0),
    Message('note_on', channel=0, note=45, velocity=60, time=0),
    Message('note_on', channel=0, note=64, velocity=60, time=0),
    Message('note_on', channel=0, note=57, velocity=0, time=59),
    Message('note_on', channel=0, note=40, velocity=0, time=0),
    Message('note_on', channel=0, note=61, velocity=0, time=0),
    Message('note_on', channel=0, note=52, velocity=0, time=0),
    Message('note_on', channel=0, note=45, velocity=0, time=0),
    Message('note_on', channel=0, note=64, velocity=0, time=0),
    Message('note_on', channel=0, note=45, velocity=60, time=1),
    Message('note_on', channel=0, note=40, velocity=60, time=0),
    Message('note_on', channel=0, note=52, velocity=60, time=0),
    Message('note_on', channel=0, note=57, velocity=60, time=0),
    Message('note_on', channel=0, note=64, velocity=60, time=0),
    Message('note_on', channel=0, note=61, velocity=60, time=0),
    Message('note_on', channel=0, note=45, velocity=0, time=29),
    Message('note_on', channel=0, note=40, velocity=0, time=0),
    Message('note_on', channel=0, note=52, velocity=0, time=0),
    Message('note_on', channel=0, note=57, velocity=0, time=0),
    Message('note_on', channel=0, note=64, velocity=0, time=0),
    Message('note_on', channel=0, note=61, velocity=0, time=0),
    Message('note_on', channel=0, note=57, velocity=60, time=1),
    Message('note_on', channel=0, note=45, velocity=60, time=0),
    Message('note_on', channel=0, note=64, velocity=60, time=0),
    Message('note_on', channel=0, note=52, velocity=60, time=0),
    Message('note_on', channel=0, note=40, velocity=60, time=0),
    Message('note_on', channel=0, note=61, velocity=60, time=0),
    Message('note_on', channel=0, note=57, velocity=0, time=59),
    Message('note_on', channel=0, note=45, velocity=0, time=0),
    Message('note_on', channel=0, note=64, velocity=0, time=0),
    Message('note_on', channel=0, note=52, velocity=0, time=0),
    Message('note_on', channel=0, note=40, velocity=0, time=0),
    Message('note_on', channel=0, note=61, velocity=0, time=0),
    Message('note_on', channel=0, note=40, velocity=60, time=1),
    Message('note_on', channel=0, note=57, velocity=60, time=0),
    Message('note_on', channel=0, note=64, velocity=60, time=0),
    Message('note_on', channel=0, note=52, velocity=60, time=0),
    Message('note_on', channel=0, note=61, velocity=60, time=0),
    Message('note_on', channel=0, note=45, velocity=60, time=0),
    Message('note_on', channel=0, note=40, velocity=0, time=29),
    Message('note_on', channel=0, note=57, velocity=0, time=0),
    Message('note_on', channel=0, note=64, velocity=0, time=0),
    Message('note_on', channel=0, note=52, velocity=0, time=0),
    Message('note_on', channel=0, note=61, velocity=0, time=0),
    Message('note_on', channel=0, note=45, velocity=0, time=0),
    Message('note_on', channel=0, note=61, velocity=60, time=1),
    Message('note_on', channel=0, note=45, velocity=60, time=0),
    Message('note_on', channel=0, note=64, velocity=60, time=0),
    Message('note_on', channel=0, note=40, velocity=60, time=0),
    Message('note_on', channel=0, note=57, velocity=60, time=0),
    Message('note_on', channel=0, note=52, velocity=60, time=0),
    Message('note_on', channel=0, note=61, velocity=0, time=59),
    Message('note_on', channel=0, note=45, velocity=0, time=0),
    Message('note_on', channel=0, note=64, velocity=0, time=0),
    Message('note_on', channel=0, note=40, velocity=0, time=0),
    Message('note_on', channel=0, note=57, velocity=0, time=0),
    Message('note_on', channel=0, note=52, velocity=0, time=0),
    Message('note_on', channel=0, note=64, velocity=60, time=1),
    Message('note_on', channel=0, note=57, velocity=60, time=0),
    Message('note_on', channel=0, note=40, velocity=60, time=0),
    Message('note_on', channel=0, note=61, velocity=60, time=0),
    Message('note_on', channel=0, note=52, velocity=60, time=0),
    Message('note_on', channel=0, note=45, velocity=60, time=0),
    Message('note_on', channel=0, note=64, velocity=0, time=29),
    Message('note_on', channel=0, note=57, velocity=0, time=0),
    Message('note_on', channel=0, note=40, velocity=0, time=0),
    Message('note_on', channel=0, note=61, velocity=0, time=0),
    Message('note_on', channel=0, note=52, velocity=0, time=0),
    Message('note_on', channel=0, note=45, velocity=0, time=0),
    Message('note_on', channel=0, note=57, velocity=60, time=1),
    Message('note_on', channel=0, note=40, velocity=60, time=0),
    Message('note_on', channel=0, note=52, velocity=60, time=0),
    Message('note_on', channel=0, note=64, velocity=60, time=0),
    Message('note_on', channel=0, note=61, velocity=60, time=0),
    Message('note_on', channel=0, note=45, velocity=60, time=0),
    Message('note_on', channel=0, note=57, velocity=0, time=59),
    Message('note_on', channel=0, note=40, velocity=0, time=0),
    Message('note_on', channel=0, note=52, velocity=0, time=0),
    Message('note_on', channel=0, note=64, velocity=0, time=0),
    Message('note_on', channel=0, note=61, velocity=0, time=0),
    Message('note_on', channel=0, note=45, velocity=0, time=0),
    Message('note_on', channel=0, note=57, velocity=60, time=1),
    Message('note_on', channel=0, note=61, velocity=60, time=0),
    Message('note_on', channel=0, note=45, velocity=60, time=0),
    Message('note_on', channel=0, note=64, velocity=60, time=0),
    Message('note_on', channel=0, note=40, velocity=60, time=0),
    Message('note_on', channel=0, note=52, velocity=60, time=0),
    Message('note_on', channel=0, note=57, velocity=0, time=59),
    Message('note_on', channel=0, note=61, velocity=0, time=0),
    Message('note_on', channel=0, note=45, velocity=0, time=0),
    Message('note_on', channel=0, note=64, velocity=0, time=0),
    Message('note_on', channel=0, note=40, velocity=0, time=0),
    Message('note_on', channel=0, note=52, velocity=0, time=0),
    Message('note_on', channel=0, note=45, velocity=60, time=1),
    Message('note_on', channel=0, note=40, velocity=60, time=0),
    Message('note_on', channel=0, note=57, velocity=60, time=0),
    Message('note_on', channel=0, note=64, velocity=60, time=0),
    Message('note_on', channel=0, note=52, velocity=60, time=0),
    Message('note_on', channel=0, note=61, velocity=60, time=0),
    Message('note_on', channel=0, note=45, velocity=0, time=59),
    Message('note_on', channel=0, note=40, velocity=0, time=0),
    Message('note_on', channel=0, note=57, velocity=0, time=0),
    Message('note_on', channel=0, note=64, velocity=0, time=0),
    Message('note_on', channel=0, note=52, velocity=0, time=0),
    Message('note_on', channel=0, note=61, velocity=0, time=0),
    Message('note_on', channel=0, note=59, velocity=60, time=1),
    Message('note_on', channel=0, note=56, velocity=60, time=0),
    Message('note_on', channel=0, note=52, velocity=60, time=0),
    Message('note_on', channel=0, note=40, velocity=60, time=0),
    Message('note_on', channel=0, note=47, velocity=60, time=0),
    Message('note_on', channel=0, note=64, velocity=60, time=0),
    Message('note_on', channel=0, note=59, velocity=0, time=29),
    Message('note_on', channel=0, note=56, velocity=0, time=0),
    Message('note_on', channel=0, note=52, velocity=0, time=0),
    Message('note_on', channel=0, note=40, velocity=0, time=0),
    Message('note_on', channel=0, note=47, velocity=0, time=0),
    Message('note_on', channel=0, note=64, velocity=0, time=0),
    Message('note_on', channel=0, note=56, velocity=60, time=1),
    Message('note_on', channel=0, note=40, velocity=60, time=0),
    Message('note_on', channel=0, note=47, velocity=60, time=0),
    Message('note_on', channel=0, note=59, velocity=60, time=0),
    Message('note_on', channel=0, note=52, velocity=60, time=0),
    Message('note_on', channel=0, note=64, velocity=60, time=0),
    Message('note_on', channel=0, note=56, velocity=0, time=59),
    Message('note_on', channel=0, note=40, velocity=0, time=0),
    Message('note_on', channel=0, note=47, velocity=0, time=0),
    Message('note_on', channel=0, note=59, velocity=0, time=0),
    Message('note_on', channel=0, note=52, velocity=0, time=0),
    Message('note_on', channel=0, note=64, velocity=0, time=0),
    Message('note_on', channel=0, note=64, velocity=60, time=1),
    Message('note_on', channel=0, note=56, velocity=60, time=0),
    Message('note_on', channel=0, note=47, velocity=60, time=0),
    Message('note_on', channel=0, note=52, velocity=60, time=0),
    Message('note_on', channel=0, note=40, velocity=60, time=0),
    Message('note_on', channel=0, note=59, velocity=60, time=0),
    Message('note_on', channel=0, note=64, velocity=0, time=29),
    Message('note_on', channel=0, note=56, velocity=0, time=0),
    Message('note_on', channel=0, note=47, velocity=0, time=0),
    Message('note_on', channel=0, note=52, velocity=0, time=0),
    Message('note_on', channel=0, note=40, velocity=0, time=0),
    Message('note_on', channel=0, note=59, velocity=0, time=0),
    Message('note_on', channel=0, note=40, velocity=60, time=1),
    Message('note_on', channel=0, note=59, velocity=60, time=0),
    Message('note_on', channel=0, note=52, velocity=60, time=0),
    Message('note_on', channel=0, note=47, velocity=60, time=0),
    Message('note_on', channel=0, note=56, velocity=60, time=0),
    Message('note_on', channel=0, note=64, velocity=60, time=0),
    Message('note_on', channel=0, note=40, velocity=0, time=59),
    Message('note_on', channel=0, note=59, velocity=0, time=0),
    Message('note_on', channel=0, note=52, velocity=0, time=0),
    Message('note_on', channel=0, note=47, velocity=0, time=0),
    Message('note_on', channel=0, note=56, velocity=0, time=0),
    Message('note_on', channel=0, note=64, velocity=0, time=0),
    Message('note_on', channel=0, note=40, velocity=60, time=1),
    Message('note_on', channel=0, note=52, velocity=60, time=0),
    Message('note_on', channel=0, note=56, velocity=60, time=0),
    Message('note_on', channel=0, note=47, velocity=60, time=0),
    Message('note_on', channel=0, note=64, velocity=60, time=0),
    Message('note_on', channel=0, note=59, velocity=60, time=0),
    Message('note_on', channel=0, note=40, velocity=0, time=29),
    Message('note_on', channel=0, note=52, velocity=0, time=0),
    Message('note_on', channel=0, note=56, velocity=0, time=0),
    Message('note_on', channel=0, note=47, velocity=0, time=0),
    Message('note_on', channel=0, note=64, velocity=0, time=0),
    Message('note_on', channel=0, note=59, velocity=0, time=0),
    Message('note_on', channel=0, note=64, velocity=60, time=1),
    Message('note_on', channel=0, note=59, velocity=60, time=0),
    Message('note_on', channel=0, note=56, velocity=60, time=0),
    Message('note_on', channel=0, note=47, velocity=60, time=0),
    Message('note_on', channel=0, note=40, velocity=60, time=0),
    Message('note_on', channel=0, note=52, velocity=60, time=0),
    Message('note_on', channel=0, note=64, velocity=0, time=59),
    Message('note_on', channel=0, note=59, velocity=0, time=0),
    Message('note_on', channel=0, note=56, velocity=0, time=0),
    Message('note_on', channel=0, note=47, velocity=0, time=0),
    Message('note_on', channel=0, note=40, velocity=0, time=0),
    Message('note_on', channel=0, note=52, velocity=0, time=0),
    Message('note_on', channel=0, note=52, velocity=60, time=1),
    Message('note_on', channel=0, note=47, velocity=60, time=0),
    Message('note_on', channel=0, note=59, velocity=60, time=0),
    Message('note_on', channel=0, note=64, velocity=60, time=0),
    Message('note_on', channel=0, note=40, velocity=60, time=0),
    Message('note_on', channel=0, note=56, velocity=60, time=0),
    Message('note_on', channel=0, note=52, velocity=0, time=29),
    Message('note_on', channel=0, note=47, velocity=0, time=0),
    Message('note_on', channel=0, note=59, velocity=0, time=0),
    Message('note_on', channel=0, note=64, velocity=0, time=0),
    Message('note_on', channel=0, note=40, velocity=0, time=0),
    Message('note_on', channel=0, note=56, velocity=0, time=0),
    Message('note_on', channel=0, note=56, velocity=60, time=1),
    Message('note_on', channel=0, note=47, velocity=60, time=0),
    Message('note_on', channel=0, note=59, velocity=60, time=0),
    Message('note_on', channel=0, note=52, velocity=60, time=0),
    Message('note_on', channel=0, note=40, velocity=60, time=0),
    Message('note_on', channel=0, note=64, velocity=60, time=0),
    Message('note_on', channel=0, note=56, velocity=0, time=59),
    Message('note_on', channel=0, note=47, velocity=0, time=0),
    Message('note_on', channel=0, note=59, velocity=0, time=0),
    Message('note_on', channel=0, note=52, velocity=0, time=0),
    Message('note_on', channel=0, note=40, velocity=0, time=0),
    Message('note_on', channel=0, note=64, velocity=0, time=0),
    Message('note_on', channel=0, note=56, velocity=60, time=1),
    Message('note_on', channel=0, note=64, velocity=60, time=0),
    Message('note_on', channel=0, note=59, velocity=60, time=0),
    Message('note_on', channel=0, note=47, velocity=60, time=0),
    Message('note_on', channel=0, note=40, velocity=60, time=0),
    Message('note_on', channel=0, note=52, velocity=60, time=0),
    Message('note_on', channel=0, note=56, velocity=0, time=59),
    Message('note_on', channel=0, note=64, velocity=0, time=0),
    Message('note_on', channel=0, note=59, velocity=0, time=0),
    Message('note_on', channel=0, note=47, velocity=0, time=0),
    Message('note_on', channel=0, note=40, velocity=0, time=0),
    Message('note_on', channel=0, note=52, velocity=0, time=0),
    Message('note_on', channel=0, note=64, velocity=60, time=1),
    Message('note_on', channel=0, note=47, velocity=60, time=0),
    Message('note_on', channel=0, note=40, velocity=60, time=0),
    Message('note_on', channel=0, note=56, velocity=60, time=0),
    Message('note_on', channel=0, note=52, velocity=60, time=0),
    Message('note_on', channel=0, note=59, velocity=60, time=0),
    Message('note_on', channel=0, note=64, velocity=0, time=59),
    Message('note_on', channel=0, note=47, velocity=0, time=0),
    Message('note_on', channel=0, note=40, velocity=0, time=0),
    Message('note_on', channel=0, note=56, velocity=0, time=0),
    Message('note_on', channel=0, note=52, velocity=0, time=0),
    Message('note_on', channel=0, note=59, velocity=0, time=0),
    Message('note_on', channel=0, note=62, velocity=60, time=1),
    Message('note_on', channel=0, note=59, velocity=60, time=0),
    Message('note_on', channel=0, note=43, velocity=60, time=0),
    Message('note_on', channel=0, note=47, velocity=60, time=0),
    Message('note_on', channel=0, note=67, velocity=60, time=0),
    Message('note_on', channel=0, note=55, velocity=60, time=0),
    Message('note_on', channel=0, note=62, velocity=0, time=29),
    Message('note_on', channel=0, note=59, velocity=0, time=0),
    Message('note_on', channel=0, note=43, velocity=0, time=0),
    Message('note_on', channel=0, note=47, velocity=0, time=0),
    Message('note_on', channel=0, note=67, velocity=0, time=0),
    Message('note_on', channel=0, note=55, velocity=0, time=0),
    Message('note_on', channel=0, note=59, velocity=60, time=1),
    Message('note_on', channel=0, note=43, velocity=60, time=0),
    Message('note_on', channel=0, note=62, velocity=60, time=0),
    Message('note_on', channel=0, note=55, velocity=60, time=0),
    Message('note_on', channel=0, note=47, velocity=60, time=0),
    Message('note_on', channel=0, note=67, velocity=60, time=0),
    Message('note_on', channel=0, note=59, velocity=0, time=59),
    Message('note_on', channel=0, note=43, velocity=0, time=0),
    Message('note_on', channel=0, note=62, velocity=0, time=0),
    Message('note_on', channel=0, note=55, velocity=0, time=0),
    Message('note_on', channel=0, note=47, velocity=0, time=0),
    Message('note_on', channel=0, note=67, velocity=0, time=0),
    Message('note_on', channel=0, note=47, velocity=60, time=1),
    Message('note_on', channel=0, note=43, velocity=60, time=0),
    Message('note_on', channel=0, note=55, velocity=60, time=0),
    Message('note_on', channel=0, note=59, velocity=60, time=0),
    Message('note_on', channel=0, note=67, velocity=60, time=0),
    Message('note_on', channel=0, note=62, velocity=60, time=0),
    Message('note_on', channel=0, note=47, velocity=0, time=29),
    Message('note_on', channel=0, note=43, velocity=0, time=0),
    Message('note_on', channel=0, note=55, velocity=0, time=0),
    Message('note_on', channel=0, note=59, velocity=0, time=0),
    Message('note_on', channel=0, note=67, velocity=0, time=0),
    Message('note_on', channel=0, note=62, velocity=0, time=0),
    Message('note_on', channel=0, note=59, velocity=60, time=1),
    Message('note_on', channel=0, note=47, velocity=60, time=0),
    Message('note_on', channel=0, note=67, velocity=60, time=0),
    Message('note_on', channel=0, note=55, velocity=60, time=0),
    Message('note_on', channel=0, note=43, velocity=60, time=0),
    Message('note_on', channel=0, note=62, velocity=60, time=0),
    Message('note_on', channel=0, note=59, velocity=0, time=59),
    Message('note_on', channel=0, note=47, velocity=0, time=0),
    Message('note_on', channel=0, note=67, velocity=0, time=0),
    Message('note_on', channel=0, note=55, velocity=0, time=0),
    Message('note_on', channel=0, note=43, velocity=0, time=0),
    Message('note_on', channel=0, note=62, velocity=0, time=0),
    Message('note_on', channel=0, note=43, velocity=60, time=1),
    Message('note_on', channel=0, note=59, velocity=60, time=0),
    Message('note_on', channel=0, note=67, velocity=60, time=0),
    Message('note_on', channel=0, note=55, velocity=60, time=0),
    Message('note_on', channel=0, note=62, velocity=60, time=0),
    Message('note_on', channel=0, note=47, velocity=60, time=0),
    Message('note_on', channel=0, note=43, velocity=0, time=29),
    Message('note_on', channel=0, note=59, velocity=0, time=0),
    Message('note_on', channel=0, note=67, velocity=0, time=0),
    Message('note_on', channel=0, note=55, velocity=0, time=0),
    Message('note_on', channel=0, note=62, velocity=0, time=0),
    Message('note_on', channel=0, note=47, velocity=0, time=0),
    Message('note_on', channel=0, note=62, velocity=60, time=1),
    Message('note_on', channel=0, note=47, velocity=60, time=0),
    Message('note_on', channel=0, note=67, velocity=60, time=0),
    Message('note_on', channel=0, note=43, velocity=60, time=0),
    Message('note_on', channel=0, note=59, velocity=60, time=0),
    Message('note_on', channel=0, note=55, velocity=60, time=0),
    Message('note_on', channel=0, note=62, velocity=0, time=59),
    Message('note_on', channel=0, note=47, velocity=0, time=0),
    Message('note_on', channel=0, note=67, velocity=0, time=0),
    Message('note_on', channel=0, note=43, velocity=0, time=0),
    Message('note_on', channel=0, note=59, velocity=0, time=0),
    Message('note_on', channel=0, note=55, velocity=0, time=0),
    Message('note_on', channel=0, note=67, velocity=60, time=1),
    Message('note_on', channel=0, note=59, velocity=60, time=0),
    Message('note_on', channel=0, note=43, velocity=60, time=0),
    Message('note_on', channel=0, note=62, velocity=60, time=0),
    Message('note_on', channel=0, note=55, velocity=60, time=0),
    Message('note_on', channel=0, note=47, velocity=60, time=0),
    Message('note_on', channel=0, note=67, velocity=0, time=29),
    Message('note_on', channel=0, note=59, velocity=0, time=0),
    Message('note_on', channel=0, note=43, velocity=0, time=0),
    Message('note_on', channel=0, note=62, velocity=0, time=0),
    Message('note_on', channel=0, note=55, velocity=0, time=0),
    Message('note_on', channel=0, note=47, velocity=0, time=0),
    Message('note_on', channel=0, note=59, velocity=60, time=1),
    Message('note_on', channel=0, note=43, velocity=60, time=0),
    Message('note_on', channel=0, note=55, velocity=60, time=0),
    Message('note_on', channel=0, note=67, velocity=60, time=0),
    Message('note_on', channel=0, note=62, velocity=60, time=0),
    Message('note_on', channel=0, note=47, velocity=60, time=0),
    Message('note_on', channel=0, note=59, velocity=0, time=59),
    Message('note_on', channel=0, note=43, velocity=0, time=0),
    Message('note_on', channel=0, note=55, velocity=0, time=0),
    Message('note_on', channel=0, note=67, velocity=0, time=0),
    Message('note_on', channel=0, note=62, velocity=0, time=0),
    Message('note_on', channel=0, note=47, velocity=0, time=0),
    Message('note_on', channel=0, note=59, velocity=60, time=1),
    Message('note_on', channel=0, note=62, velocity=60, time=0),
    Message('note_on', channel=0, note=47, velocity=60, time=0),
    Message('note_on', channel=0, note=67, velocity=60, time=0),
    Message('note_on', channel=0, note=43, velocity=60, time=0),
    Message('note_on', channel=0, note=55, velocity=60, time=0),
    Message('note_on', channel=0, note=59, velocity=0, time=59),
    Message('note_on', channel=0, note=62, velocity=0, time=0),
    Message('note_on', channel=0, note=47, velocity=0, time=0),
    Message('note_on', channel=0, note=67, velocity=0, time=0),
    Message('note_on', channel=0, note=43, velocity=0, time=0),
    Message('note_on', channel=0, note=55, velocity=0, time=0),
    Message('note_on', channel=0, note=47, velocity=60, time=1),
    Message('note_on', channel=0, note=43, velocity=60, time=0),
    Message('note_on', channel=0, note=59, velocity=60, time=0),
    Message('note_on', channel=0, note=67, velocity=60, time=0),
    Message('note_on', channel=0, note=55, velocity=60, time=0),
    Message('note_on', channel=0, note=62, velocity=60, time=0),
    Message('note_on', channel=0, note=47, velocity=0, time=59),
    Message('note_on', channel=0, note=43, velocity=0, time=0),
    Message('note_on', channel=0, note=59, velocity=0, time=0),
    Message('note_on', channel=0, note=67, velocity=0, time=0),
    Message('note_on', channel=0, note=55, velocity=0, time=0),
    Message('note_on', channel=0, note=62, velocity=0, time=0),
    Message('note_on', channel=0, note=66, velocity=60, time=1),
    Message('note_on', channel=0, note=62, velocity=60, time=0),
    Message('note_on', channel=0, note=57, velocity=60, time=0),
    Message('note_on', channel=0, note=45, velocity=60, time=0),
    Message('note_on', channel=0, note=50, velocity=60, time=0),
    Message('note_on', channel=0, note=69, velocity=60, time=0),
    Message('note_on', channel=0, note=66, velocity=0, time=29),
    Message('note_on', channel=0, note=62, velocity=0, time=0),
    Message('note_on', channel=0, note=57, velocity=0, time=0),
    Message('note_on', channel=0, note=45, velocity=0, time=0),
    Message('note_on', channel=0, note=50, velocity=0, time=0),
    Message('note_on', channel=0, note=69, velocity=0, time=0),
    Message('note_on', channel=0, note=62, velocity=60, time=1),
    Message('note_on', channel=0, note=45, velocity=60, time=0),
    Message('note_on', channel=0, note=50, velocity=60, time=0),
    Message('note_on', channel=0, note=66, velocity=60, time=0),
    Message('note_on', channel=0, note=57, velocity=60, time=0),
    Message('note_on', channel=0, note=69, velocity=60, time=0),
    Message('note_on', channel=0, note=62, velocity=0, time=59),
    Message('note_on', channel=0, note=45, velocity=0, time=0),
    Message('note_on', channel=0, note=50, velocity=0, time=0),
    Message('note_on', channel=0, note=66, velocity=0, time=0),
    Message('note_on', channel=0, note=57, velocity=0, time=0),
    Message('note_on', channel=0, note=69, velocity=0, time=0),
    Message('note_on', channel=0, note=69, velocity=60, time=1),
    Message('note_on', channel=0, note=62, velocity=60, time=0),
    Message('note_on', channel=0, note=50, velocity=60, time=0),
    Message('note_on', channel=0, note=57, velocity=60, time=0),
    Message('note_on', channel=0, note=45, velocity=60, time=0),
    Message('note_on', channel=0, note=66, velocity=60, time=0),
    Message('note_on', channel=0, note=69, velocity=0, time=29),
    Message('note_on', channel=0, note=62, velocity=0, time=0),
    Message('note_on', channel=0, note=50, velocity=0, time=0),
    Message('note_on', channel=0, note=57, velocity=0, time=0),
    Message('note_on', channel=0, note=45, velocity=0, time=0),
    Message('note_on', channel=0, note=66, velocity=0, time=0),
    Message('note_on', channel=0, note=45, velocity=60, time=1),
    Message('note_on', channel=0, note=66, velocity=60, time=0),
    Message('note_on', channel=0, note=57, velocity=60, time=0),
    Message('note_on', channel=0, note=50, velocity=60, time=0),
    Message('note_on', channel=0, note=62, velocity=60, time=0),
    Message('note_on', channel=0, note=69, velocity=60, time=0),
    Message('note_on', channel=0, note=45, velocity=0, time=59),
    Message('note_on', channel=0, note=66, velocity=0, time=0),
    Message('note_on', channel=0, note=57, velocity=0, time=0),
    Message('note_on', channel=0, note=50, velocity=0, time=0),
    Message('note_on', channel=0, note=62, velocity=0, time=0),
    Message('note_on', channel=0, note=69, velocity=0, time=0),
    Message('note_on', channel=0, note=45, velocity=60, time=1),
    Message('note_on', channel=0, note=57, velocity=60, time=0),
    Message('note_on', channel=0, note=62, velocity=60, time=0),
    Message('note_on', channel=0, note=50, velocity=60, time=0),
    Message('note_on', channel=0, note=69, velocity=60, time=0),
    Message('note_on', channel=0, note=66, velocity=60, time=0),
    Message('note_on', channel=0, note=45, velocity=0, time=29),
    Message('note_on', channel=0, note=57, velocity=0, time=0),
    Message('note_on', channel=0, note=62, velocity=0, time=0),
    Message('note_on', channel=0, note=50, velocity=0, time=0),
    Message('note_on', channel=0, note=69, velocity=0, time=0),
    Message('note_on', channel=0, note=66, velocity=0, time=0),
    Message('note_on', channel=0, note=69, velocity=60, time=1),
    Message('note_on', channel=0, note=66, velocity=60, time=0),
    Message('note_on', channel=0, note=62, velocity=60, time=0),
    Message('note_on', channel=0, note=50, velocity=60, time=0),
    Message('note_on', channel=0, note=45, velocity=60, time=0),
    Message('note_on', channel=0, note=57, velocity=60, time=0),
    Message('note_on', channel=0, note=69, velocity=0, time=59),
    Message('note_on', channel=0, note=66, velocity=0, time=0),
    Message('note_on', channel=0, note=62, velocity=0, time=0),
    Message('note_on', channel=0, note=50, velocity=0, time=0),
    Message('note_on', channel=0, note=45, velocity=0, time=0),
    Message('note_on', channel=0, note=57, velocity=0, time=0),
    Message('note_on', channel=0, note=57, velocity=60, time=1),
    Message('note_on', channel=0, note=50, velocity=60, time=0),
    Message('note_on', channel=0, note=66, velocity=60, time=0),
    Message('note_on', channel=0, note=69, velocity=60, time=0),
    Message('note_on', channel=0, note=45, velocity=60, time=0),
    Message('note_on', channel=0, note=62, velocity=60, time=0),
    Message('note_on', channel=0, note=57, velocity=0, time=29),
    Message('note_on', channel=0, note=50, velocity=0, time=0),
    Message('note_on', channel=0, note=66, velocity=0, time=0),
    Message('note_on', channel=0, note=69, velocity=0, time=0),
    Message('note_on', channel=0, note=45, velocity=0, time=0),
    Message('note_on', channel=0, note=62, velocity=0, time=0),
    Message('note_on', channel=0, note=62, velocity=60, time=1),
    Message('note_on', channel=0, note=50, velocity=60, time=0),
    Message('note_on', channel=0, note=66, velocity=60, time=0),
    Message('note_on', channel=0, note=57, velocity=60, time=0),
    Message('note_on', channel=0, note=45, velocity=60, time=0),
    Message('note_on', channel=0, note=69, velocity=60, time=0),
    Message('note_on', channel=0, note=62, velocity=0, time=59),
    Message('note_on', channel=0, note=50, velocity=0, time=0),
    Message('note_on', channel=0, note=66, velocity=0, time=0),
    Message('note_on', channel=0, note=57, velocity=0, time=0),
    Message('note_on', channel=0, note=45, velocity=0, time=0),
    Message('note_on', channel=0, note=69, velocity=0, time=0),
    Message('note_on', channel=0, note=62, velocity=60, time=1),
    Message('note_on', channel=0, note=69, velocity=60, time=0),
    Message('note_on', channel=0, note=66, velocity=60, time=0),
    Message('note_on', channel=0, note=50, velocity=60, time=0),
    Message('note_on', channel=0, note=45, velocity=60, time=0),
    Message('note_on', channel=0, note=57, velocity=60, time=0),
    Message('note_on', channel=0, note=62, velocity=0, time=59),
    Message('note_on', channel=0, note=69, velocity=0, time=0),
    Message('note_on', channel=0, note=66, velocity=0, time=0),
    Message('note_on', channel=0, note=50, velocity=0, time=0),
    Message('note_on', channel=0, note=45, velocity=0, time=0),
    Message('note_on', channel=0, note=57, velocity=0, time=0),
    Message('note_on', channel=0, note=69, velocity=60, time=1),
    Message('note_on', channel=0, note=50, velocity=60, time=0),
    Message('note_on', channel=0, note=45, velocity=60, time=0),
    Message('note_on', channel=0, note=62, velocity=60, time=0),
    Message('note_on', channel=0, note=57, velocity=60, time=0),
    Message('note_on', channel=0, note=66, velocity=60, time=0),
    Message('note_on', channel=0, note=69, velocity=0, time=59),
    Message('note_on', channel=0, note=50, velocity=0, time=0),
    Message('note_on', channel=0, note=45, velocity=0, time=0),
    Message('note_on', channel=0, note=62, velocity=0, time=0),
    Message('note_on', channel=0, note=57, velocity=0, time=0),
    Message('note_on', channel=0, note=66, velocity=0, time=0),
    Message('note_on', channel=0, note=59, velocity=60, time=1),
    Message('note_on', channel=0, note=55, velocity=60, time=0),
    Message('note_on', channel=0, note=40, velocity=60, time=0),
    Message('note_on', channel=0, note=45, velocity=60, time=0),
    Message('note_on', channel=0, note=64, velocity=60, time=0),
    Message('note_on', channel=0, note=52, velocity=60, time=0),
    Message('note_on', channel=0, note=59, velocity=0, time=29),
    Message('note_on', channel=0, note=55, velocity=0, time=0),
    Message('note_on', channel=0, note=40, velocity=0, time=0),
    Message('note_on', channel=0, note=45, velocity=0, time=0),
    Message('note_on', channel=0, note=64, velocity=0, time=0),
    Message('note_on', channel=0, note=52, velocity=0, time=0),
    Message('note_on', channel=0, note=55, velocity=60, time=1),
    Message('note_on', channel=0, note=40, velocity=60, time=0),
    Message('note_on', channel=0, note=59, velocity=60, time=0),
    Message('note_on', channel=0, note=52, velocity=60, time=0),
    Message('note_on', channel=0, note=45, velocity=60, time=0),
    Message('note_on', channel=0, note=64, velocity=60, time=0),
    Message('note_on', channel=0, note=55, velocity=0, time=59),
    Message('note_on', channel=0, note=40, velocity=0, time=0),
    Message('note_on', channel=0, note=59, velocity=0, time=0),
    Message('note_on', channel=0, note=52, velocity=0, time=0),
    Message('note_on', channel=0, note=45, velocity=0, time=0),
    Message('note_on', channel=0, note=64, velocity=0, time=0),
    Message('note_on', channel=0, note=45, velocity=60, time=1),
    Message('note_on', channel=0, note=40, velocity=60, time=0),
    Message('note_on', channel=0, note=52, velocity=60, time=0),
    Message('note_on', channel=0, note=55, velocity=60, time=0),
    Message('note_on', channel=0, note=64, velocity=60, time=0),
    Message('note_on', channel=0, note=59, velocity=60, time=0),
    Message('note_on', channel=0, note=45, velocity=0, time=29),
    Message('note_on', channel=0, note=40, velocity=0, time=0),
    Message('note_on', channel=0, note=52, velocity=0, time=0),
    Message('note_on', channel=0, note=55, velocity=0, time=0),
    Message('note_on', channel=0, note=64, velocity=0, time=0),
    Message('note_on', channel=0, note=59, velocity=0, time=0),
    Message('note_on', channel=0, note=55, velocity=60, time=1),
    Message('note_on', channel=0, note=45, velocity=60, time=0),
    Message('note_on', channel=0, note=64, velocity=60, time=0),
    Message('note_on', channel=0, note=52, velocity=60, time=0),
    Message('note_on', channel=0, note=40, velocity=60, time=0),
    Message('note_on', channel=0, note=59, velocity=60, time=0),
    Message('note_on', channel=0, note=55, velocity=0, time=59),
    Message('note_on', channel=0, note=45, velocity=0, time=0),
    Message('note_on', channel=0, note=64, velocity=0, time=0),
    Message('note_on', channel=0, note=52, velocity=0, time=0),
    Message('note_on', channel=0, note=40, velocity=0, time=0),
    Message('note_on', channel=0, note=59, velocity=0, time=0),
    Message('note_on', channel=0, note=40, velocity=60, time=1),
    Message('note_on', channel=0, note=55, velocity=60, time=0),
    Message('note_on', channel=0, note=64, velocity=60, time=0),
    Message('note_on', channel=0, note=52, velocity=60, time=0),
    Message('note_on', channel=0, note=59, velocity=60, time=0),
    Message('note_on', channel=0, note=45, velocity=60, time=0),
    Message('note_on', channel=0, note=40, velocity=0, time=29),
    Message('note_on', channel=0, note=55, velocity=0, time=0),
    Message('note_on', channel=0, note=64, velocity=0, time=0),
    Message('note_on', channel=0, note=52, velocity=0, time=0),
    Message('note_on', channel=0, note=59, velocity=0, time=0),
    Message('note_on', channel=0, note=45, velocity=0, time=0),
    Message('note_on', channel=0, note=59, velocity=60, time=1),
    Message('note_on', channel=0, note=45, velocity=60, time=0),
    Message('note_on', channel=0, note=64, velocity=60, time=0),
    Message('note_on', channel=0, note=40, velocity=60, time=0),
    Message('note_on', channel=0, note=55, velocity=60, time=0),
    Message('note_on', channel=0, note=52, velocity=60, time=0),
    Message('note_on', channel=0, note=59, velocity=0, time=59),
    Message('note_on', channel=0, note=45, velocity=0, time=0),
    Message('note_on', channel=0, note=64, velocity=0, time=0),
    Message('note_on', channel=0, note=40, velocity=0, time=0),
    Message('note_on', channel=0, note=55, velocity=0, time=0),
    Message('note_on', channel=0, note=52, velocity=0, time=0),
    Message('note_on', channel=0, note=64, velocity=60, time=1),
    Message('note_on', channel=0, note=55, velocity=60, time=0),
    Message('note_on', channel=0, note=40, velocity=60, time=0),
    Message('note_on', channel=0, note=59, velocity=60, time=0),
    Message('note_on', channel=0, note=52, velocity=60, time=0),
    Message('note_on', channel=0, note=45, velocity=60, time=0),
    Message('note_on', channel=0, note=64, velocity=0, time=29),
    Message('note_on', channel=0, note=55, velocity=0, time=0),
    Message('note_on', channel=0, note=40, velocity=0, time=0),
    Message('note_on', channel=0, note=59, velocity=0, time=0),
    Message('note_on', channel=0, note=52, velocity=0, time=0),
    Message('note_on', channel=0, note=45, velocity=0, time=0),
    Message('note_on', channel=0, note=55, velocity=60, time=1),
    Message('note_on', channel=0, note=40, velocity=60, time=0),
    Message('note_on', channel=0, note=52, velocity=60, time=0),
    Message('note_on', channel=0, note=64, velocity=60, time=0),
    Message('note_on', channel=0, note=59, velocity=60, time=0),
    Message('note_on', channel=0, note=45, velocity=60, time=0),
    Message('note_on', channel=0, note=55, velocity=0, time=59),
    Message('note_on', channel=0, note=40, velocity=0, time=0),
    Message('note_on', channel=0, note=52, velocity=0, time=0),
    Message('note_on', channel=0, note=64, velocity=0, time=0),
    Message('note_on', channel=0, note=59, velocity=0, time=0),
    Message('note_on', channel=0, note=45, velocity=0, time=0),
    Message('note_on', channel=0, note=55, velocity=60, time=1),
    Message('note_on', channel=0, note=59, velocity=60, time=0),
    Message('note_on', channel=0, note=45, velocity=60, time=0),
    Message('note_on', channel=0, note=64, velocity=60, time=0),
    Message('note_on', channel=0, note=40, velocity=60, time=0),
    Message('note_on', channel=0, note=52, velocity=60, time=0),
    Message('note_on', channel=0, note=55, velocity=0, time=59),
    Message('note_on', channel=0, note=59, velocity=0, time=0),
    Message('note_on', channel=0, note=45, velocity=0, time=0),
    Message('note_on', channel=0, note=64, velocity=0, time=0),
    Message('note_on', channel=0, note=40, velocity=0, time=0),
    Message('note_on', channel=0, note=52, velocity=0, time=0),
    Message('note_on', channel=0, note=45, velocity=60, time=1),
    Message('note_on', channel=0, note=40, velocity=60, time=0),
    Message('note_on', channel=0, note=55, velocity=60, time=0),
    Message('note_on', channel=0, note=64, velocity=60, time=0),
    Message('note_on', channel=0, note=52, velocity=60, time=0),
    Message('note_on', channel=0, note=59, velocity=60, time=0),
    Message('note_on', channel=0, note=45, velocity=0, time=59),
    Message('note_on', channel=0, note=40, velocity=0, time=0),
    Message('note_on', channel=0, note=55, velocity=0, time=0),
    Message('note_on', channel=0, note=64, velocity=0, time=0),
    Message('note_on', channel=0, note=52, velocity=0, time=0),
    Message('note_on', channel=0, note=59, velocity=0, time=0),
    Message('note_on', channel=0, note=61, velocity=60, time=1),
    Message('note_on', channel=0, note=58, velocity=60, time=0),
    Message('note_on', channel=0, note=54, velocity=60, time=0),
    Message('note_on', channel=0, note=42, velocity=60, time=0),
    Message('note_on', channel=0, note=49, velocity=60, time=0),
    Message('note_on', channel=0, note=66, velocity=60, time=0),
    Message('note_on', channel=0, note=61, velocity=0, time=29),
    Message('note_on', channel=0, note=58, velocity=0, time=0),
    Message('note_on', channel=0, note=54, velocity=0, time=0),
    Message('note_on', channel=0, note=42, velocity=0, time=0),
    Message('note_on', channel=0, note=49, velocity=0, time=0),
    Message('note_on', channel=0, note=66, velocity=0, time=0),
    Message('note_on', channel=0, note=58, velocity=60, time=1),
    Message('note_on', channel=0, note=42, velocity=60, time=0),
    Message('note_on', channel=0, note=49, velocity=60, time=0),
    Message('note_on', channel=0, note=61, velocity=60, time=0),
    Message('note_on', channel=0, note=54, velocity=60, time=0),
    Message('note_on', channel=0, note=66, velocity=60, time=0),
    Message('note_on', channel=0, note=58, velocity=0, time=59),
    Message('note_on', channel=0, note=42, velocity=0, time=0),
    Message('note_on', channel=0, note=49, velocity=0, time=0),
    Message('note_on', channel=0, note=61, velocity=0, time=0),
    Message('note_on', channel=0, note=54, velocity=0, time=0),
    Message('note_on', channel=0, note=66, velocity=0, time=0),
    Message('note_on', channel=0, note=66, velocity=60, time=1),
    Message('note_on', channel=0, note=58, velocity=60, time=0),
    Message('note_on', channel=0, note=49, velocity=60, time=0),
    Message('note_on', channel=0, note=54, velocity=60, time=0),
    Message('note_on', channel=0, note=42, velocity=60, time=0),
    Message('note_on', channel=0, note=61, velocity=60, time=0),
    Message('note_on', channel=0, note=66, velocity=0, time=29),
    Message('note_on', channel=0, note=58, velocity=0, time=0),
    Message('note_on', channel=0, note=49, velocity=0, time=0),
    Message('note_on', channel=0, note=54, velocity=0, time=0),
    Message('note_on', channel=0, note=42, velocity=0, time=0),
    Message('note_on', channel=0, note=61, velocity=0, time=0),
    Message('note_on', channel=0, note=42, velocity=60, time=1),
    Message('note_on', channel=0, note=61, velocity=60, time=0),
    Message('note_on', channel=0, note=54, velocity=60, time=0),
    Message('note_on', channel=0, note=49, velocity=60, time=0),
    Message('note_on', channel=0, note=58, velocity=60, time=0),
    Message('note_on', channel=0, note=66, velocity=60, time=0),
    Message('note_on', channel=0, note=42, velocity=0, time=59),
    Message('note_on', channel=0, note=61, velocity=0, time=0),
    Message('note_on', channel=0, note=54, velocity=0, time=0),
    Message('note_on', channel=0, note=49, velocity=0, time=0),
    Message('note_on', channel=0, note=58, velocity=0, time=0),
    Message('note_on', channel=0, note=66, velocity=0, time=0),
    Message('note_on', channel=0, note=42, velocity=60, time=1),
    Message('note_on', channel=0, note=54, velocity=60, time=0),
    Message('note_on', channel=0, note=58, velocity=60, time=0),
    Message('note_on', channel=0, note=49, velocity=60, time=0),
    Message('note_on', channel=0, note=66, velocity=60, time=0),
    Message('note_on', channel=0, note=61, velocity=60, time=0),
    Message('note_on', channel=0, note=42, velocity=0, time=29),
    Message('note_on', channel=0, note=54, velocity=0, time=0),
    Message('note_on', channel=0, note=58, velocity=0, time=0),
    Message('note_on', channel=0, note=49, velocity=0, time=0),
    Message('note_on', channel=0, note=66, velocity=0, time=0),
    Message('note_on', channel=0, note=61, velocity=0, time=0),
    Message('note_on', channel=0, note=66, velocity=60, time=1),
    Message('note_on', channel=0, note=61, velocity=60, time=0),
    Message('note_on', channel=0, note=58, velocity=60, time=0),
    Message('note_on', channel=0, note=49, velocity=60, time=0),
    Message('note_on', channel=0, note=42, velocity=60, time=0),
    Message('note_on', channel=0, note=54, velocity=60, time=0),
    Message('note_on', channel=0, note=66, velocity=0, time=59),
    Message('note_on', channel=0, note=61, velocity=0, time=0),
    Message('note_on', channel=0, note=58, velocity=0, time=0),
    Message('note_on', channel=0, note=49, velocity=0, time=0),
    Message('note_on', channel=0, note=42, velocity=0, time=0),
    Message('note_on', channel=0, note=54, velocity=0, time=0),
    Message('note_on', channel=0, note=54, velocity=60, time=1),
    Message('note_on', channel=0, note=49, velocity=60, time=0),
    Message('note_on', channel=0, note=61, velocity=60, time=0),
    Message('note_on', channel=0, note=66, velocity=60, time=0),
    Message('note_on', channel=0, note=42, velocity=60, time=0),
    Message('note_on', channel=0, note=58, velocity=60, time=0),
    Message('note_on', channel=0, note=54, velocity=0, time=29),
    Message('note_on', channel=0, note=49, velocity=0, time=0),
    Message('note_on', channel=0, note=61, velocity=0, time=0),
    Message('note_on', channel=0, note=66, velocity=0, time=0),
    Message('note_on', channel=0, note=42, velocity=0, time=0),
    Message('note_on', channel=0, note=58, velocity=0, time=0),
    Message('note_on', channel=0, note=58, velocity=60, time=1),
    Message('note_on', channel=0, note=49, velocity=60, time=0),
    Message('note_on', channel=0, note=61, velocity=60, time=0),
    Message('note_on', channel=0, note=54, velocity=60, time=0),
    Message('note_on', channel=0, note=42, velocity=60, time=0),
    Message('note_on', channel=0, note=66, velocity=60, time=0),
    Message('note_on', channel=0, note=58, velocity=0, time=59),
    Message('note_on', channel=0, note=49, velocity=0, time=0),
    Message('note_on', channel=0, note=61, velocity=0, time=0),
    Message('note_on', channel=0, note=54, velocity=0, time=0),
    Message('note_on', channel=0, note=42, velocity=0, time=0),
    Message('note_on', channel=0, note=66, velocity=0, time=0),
    Message('note_on', channel=0, note=58, velocity=60, time=1),
    Message('note_on', channel=0, note=66, velocity=60, time=0),
    Message('note_on', channel=0, note=61, velocity=60, time=0),
    Message('note_on', channel=0, note=49, velocity=60, time=0),
    Message('note_on', channel=0, note=42, velocity=60, time=0),
    Message('note_on', channel=0, note=54, velocity=60, time=0),
    Message('note_on', channel=0, note=58, velocity=0, time=59),
    Message('note_on', channel=0, note=66, velocity=0, time=0),
    Message('note_on', channel=0, note=61, velocity=0, time=0),
    Message('note_on', channel=0, note=49, velocity=0, time=0),
    Message('note_on', channel=0, note=42, velocity=0, time=0),
    Message('note_on', channel=0, note=54, velocity=0, time=0),
    Message('note_on', channel=0, note=66, velocity=60, time=1),
    Message('note_on', channel=0, note=49, velocity=60, time=0),
    Message('note_on', channel=0, note=42, velocity=60, time=0),
    Message('note_on', channel=0, note=58, velocity=60, time=0),
    Message('note_on', channel=0, note=54, velocity=60, time=0),
    Message('note_on', channel=0, note=61, velocity=60, time=0),
    Message('note_on', channel=0, note=66, velocity=0, time=59),
    Message('note_on', channel=0, note=49, velocity=0, time=0),
    Message('note_on', channel=0, note=42, velocity=0, time=0),
    Message('note_on', channel=0, note=58, velocity=0, time=0),
    Message('note_on', channel=0, note=54, velocity=0, time=0),
    Message('note_on', channel=0, note=61, velocity=0, time=0),
    Message('note_on', channel=0, note=62, velocity=60, time=1),
    Message('note_on', channel=0, note=59, velocity=60, time=0),
    Message('note_on', channel=0, note=42, velocity=60, time=0),
    Message('note_on', channel=0, note=47, velocity=60, time=0),
    Message('note_on', channel=0, note=66, velocity=60, time=0),
    Message('note_on', channel=0, note=54, velocity=60, time=0),
    Message('note_on', channel=0, note=62, velocity=0, time=29),
    Message('note_on', channel=0, note=59, velocity=0, time=0),
    Message('note_on', channel=0, note=42, velocity=0, time=0),
    Message('note_on', channel=0, note=47, velocity=0, time=0),
    Message('note_on', channel=0, note=66, velocity=0, time=0),
    Message('note_on', channel=0, note=54, velocity=0, time=0),
    Message('note_on', channel=0, note=59, velocity=60, time=1),
    Message('note_on', channel=0, note=42, velocity=60, time=0),
    Message('note_on', channel=0, note=62, velocity=60, time=0),
    Message('note_on', channel=0, note=54, velocity=60, time=0),
    Message('note_on', channel=0, note=47, velocity=60, time=0),
    Message('note_on', channel=0, note=66, velocity=60, time=0),
    Message('note_on', channel=0, note=59, velocity=0, time=59),
    Message('note_on', channel=0, note=42, velocity=0, time=0),
    Message('note_on', channel=0, note=62, velocity=0, time=0),
    Message('note_on', channel=0, note=54, velocity=0, time=0),
    Message('note_on', channel=0, note=47, velocity=0, time=0),
    Message('note_on', channel=0, note=66, velocity=0, time=0),
    Message('note_on', channel=0, note=47, velocity=60, time=1),
    Message('note_on', channel=0, note=42, velocity=60, time=0),
    Message('note_on', channel=0, note=54, velocity=60, time=0),
    Message('note_on', channel=0, note=59, velocity=60, time=0),
    Message('note_on', channel=0, note=66, velocity=60, time=0),
    Message('note_on', channel=0, note=62, velocity=60, time=0),
    Message('note_on', channel=0, note=47, velocity=0, time=29),
    Message('note_on', channel=0, note=42, velocity=0, time=0),
    Message('note_on', channel=0, note=54, velocity=0, time=0),
    Message('note_on', channel=0, note=59, velocity=0, time=0),
    Message('note_on', channel=0, note=66, velocity=0, time=0),
    Message('note_on', channel=0, note=62, velocity=0, time=0),
    Message('note_on', channel=0, note=59, velocity=60, time=1),
    Message('note_on', channel=0, note=47, velocity=60, time=0),
    Message('note_on', channel=0, note=66, velocity=60, time=0),
    Message('note_on', channel=0, note=54, velocity=60, time=0),
    Message('note_on', channel=0, note=42, velocity=60, time=0),
    Message('note_on', channel=0, note=62, velocity=60, time=0),
    Message('note_on', channel=0, note=59, velocity=0, time=59),
    Message('note_on', channel=0, note=47, velocity=0, time=0),
    Message('note_on', channel=0, note=66, velocity=0, time=0),
    Message('note_on', channel=0, note=54, velocity=0, time=0),
    Message('note_on', channel=0, note=42, velocity=0, time=0),
    Message('note_on', channel=0, note=62, velocity=0, time=0),
    Message('note_on', channel=0, note=42, velocity=60, time=1),
    Message('note_on', channel=0, note=59, velocity=60, time=0),
    Message('note_on', channel=0, note=66, velocity=60, time=0),
    Message('note_on', channel=0, note=54, velocity=60, time=0),
    Message('note_on', channel=0, note=62, velocity=60, time=0),
    Message('note_on', channel=0, note=47, velocity=60, time=0),
    Message('note_on', channel=0, note=42, velocity=0, time=29),
    Message('note_on', channel=0, note=59, velocity=0, time=0),
    Message('note_on', channel=0, note=66, velocity=0, time=0),
    Message('note_on', channel=0, note=54, velocity=0, time=0),
    Message('note_on', channel=0, note=62, velocity=0, time=0),
    Message('note_on', channel=0, note=47, velocity=0, time=0),
    Message('note_on', channel=0, note=62, velocity=60, time=1),
    Message('note_on', channel=0, note=47, velocity=60, time=0),
    Message('note_on', channel=0, note=66, velocity=60, time=0),
    Message('note_on', channel=0, note=42, velocity=60, time=0),
    Message('note_on', channel=0, note=59, velocity=60, time=0),
    Message('note_on', channel=0, note=54, velocity=60, time=0),
    Message('note_on', channel=0, note=62, velocity=0, time=59),
    Message('note_on', channel=0, note=47, velocity=0, time=0),
    Message('note_on', channel=0, note=66, velocity=0, time=0),
    Message('note_on', channel=0, note=42, velocity=0, time=0),
    Message('note_on', channel=0, note=59, velocity=0, time=0),
    Message('note_on', channel=0, note=54, velocity=0, time=0),
    Message('note_on', channel=0, note=66, velocity=60, time=1),
    Message('note_on', channel=0, note=59, velocity=60, time=0),
    Message('note_on', channel=0, note=42, velocity=60, time=0),
    Message('note_on', channel=0, note=62, velocity=60, time=0),
    Message('note_on', channel=0, note=54, velocity=60, time=0),
    Message('note_on', channel=0, note=47, velocity=60, time=0),
    Message('note_on', channel=0, note=66, velocity=0, time=29),
    Message('note_on', channel=0, note=59, velocity=0, time=0),
    Message('note_on', channel=0, note=42, velocity=0, time=0),
    Message('note_on', channel=0, note=62, velocity=0, time=0),
    Message('note_on', channel=0, note=54, velocity=0, time=0),
    Message('note_on', channel=0, note=47, velocity=0, time=0),
    Message('note_on', channel=0, note=59, velocity=60, time=1),
    Message('note_on', channel=0, note=42, velocity=60, time=0),
    Message('note_on', channel=0, note=54, velocity=60, time=0),
    Message('note_on', channel=0, note=66, velocity=60, time=0),
    Message('note_on', channel=0, note=62, velocity=60, time=0),
    Message('note_on', channel=0, note=47, velocity=60, time=0),
    Message('note_on', channel=0, note=59, velocity=0, time=59),
    Message('note_on', channel=0, note=42, velocity=0, time=0),
    Message('note_on', channel=0, note=54, velocity=0, time=0),
    Message('note_on', channel=0, note=66, velocity=0, time=0),
    Message('note_on', channel=0, note=62, velocity=0, time=0),
    Message('note_on', channel=0, note=47, velocity=0, time=0),
    Message('note_on', channel=0, note=59, velocity=60, time=1),
    Message('note_on', channel=0, note=62, velocity=60, time=0),
    Message('note_on', channel=0, note=47, velocity=60, time=0),
    Message('note_on', channel=0, note=66, velocity=60, time=0),
    Message('note_on', channel=0, note=42, velocity=60, time=0),
    Message('note_on', channel=0, note=54, velocity=60, time=0),
    Message('note_on', channel=0, note=59, velocity=0, time=59),
    Message('note_on', channel=0, note=62, velocity=0, time=0),
    Message('note_on', channel=0, note=47, velocity=0, time=0),
    Message('note_on', channel=0, note=66, velocity=0, time=0),
    Message('note_on', channel=0, note=42, velocity=0, time=0),
    Message('note_on', channel=0, note=54, velocity=0, time=0),
    Message('note_on', channel=0, note=47, velocity=60, time=1),
    Message('note_on', channel=0, note=42, velocity=60, time=0),
    Message('note_on', channel=0, note=59, velocity=60, time=0),
    Message('note_on', channel=0, note=66, velocity=60, time=0),
    Message('note_on', channel=0, note=54, velocity=60, time=0),
    Message('note_on', channel=0, note=62, velocity=60, time=0),
    Message('note_on', channel=0, note=47, velocity=0, time=59),
    Message('note_on', channel=0, note=42, velocity=0, time=0),
    Message('note_on', channel=0, note=59, velocity=0, time=0),
    Message('note_on', channel=0, note=66, velocity=0, time=0),
    Message('note_on', channel=0, note=54, velocity=0, time=0),
    Message('note_on', channel=0, note=62, velocity=0, time=0),
    Message('note_on', channel=0, note=61, velocity=60, time=1),
    Message('note_on', channel=0, note=58, velocity=60, time=0),
    Message('note_on', channel=0, note=54, velocity=60, time=0),
    Message('note_on', channel=0, note=42, velocity=60, time=0),
    Message('note_on', channel=0, note=49, velocity=60, time=0),
    Message('note_on', channel=0, note=66, velocity=60, time=0),
    Message('note_on', channel=0, note=61, velocity=0, time=29),
    Message('note_on', channel=0, note=58, velocity=0, time=0),
    Message('note_on', channel=0, note=54, velocity=0, time=0),
    Message('note_on', channel=0, note=42, velocity=0, time=0),
    Message('note_on', channel=0, note=49, velocity=0, time=0),
    Message('note_on', channel=0, note=66, velocity=0, time=0),
    Message('note_on', channel=0, note=58, velocity=60, time=1),
    Message('note_on', channel=0, note=42, velocity=60, time=0),
    Message('note_on', channel=0, note=49, velocity=60, time=0),
    Message('note_on', channel=0, note=61, velocity=60, time=0),
    Message('note_on', channel=0, note=54, velocity=60, time=0),
    Message('note_on', channel=0, note=66, velocity=60, time=0),
    Message('note_on', channel=0, note=58, velocity=0, time=59),
    Message('note_on', channel=0, note=42, velocity=0, time=0),
    Message('note_on', channel=0, note=49, velocity=0, time=0),
    Message('note_on', channel=0, note=61, velocity=0, time=0),
    Message('note_on', channel=0, note=54, velocity=0, time=0),
    Message('note_on', channel=0, note=66, velocity=0, time=0),
    Message('note_on', channel=0, note=66, velocity=60, time=1),
    Message('note_on', channel=0, note=58, velocity=60, time=0),
    Message('note_on', channel=0, note=49, velocity=60, time=0),
    Message('note_on', channel=0, note=54, velocity=60, time=0),
    Message('note_on', channel=0, note=42, velocity=60, time=0),
    Message('note_on', channel=0, note=61, velocity=60, time=0),
    Message('note_on', channel=0, note=66, velocity=0, time=29),
    Message('note_on', channel=0, note=58, velocity=0, time=0),
    Message('note_on', channel=0, note=49, velocity=0, time=0),
    Message('note_on', channel=0, note=54, velocity=0, time=0),
    Message('note_on', channel=0, note=42, velocity=0, time=0),
    Message('note_on', channel=0, note=61, velocity=0, time=0),
    Message('note_on', channel=0, note=42, velocity=60, time=1),
    Message('note_on', channel=0, note=61, velocity=60, time=0),
    Message('note_on', channel=0, note=54, velocity=60, time=0),
    Message('note_on', channel=0, note=49, velocity=60, time=0),
    Message('note_on', channel=0, note=58, velocity=60, time=0),
    Message('note_on', channel=0, note=66, velocity=60, time=0),
    Message('note_on', channel=0, note=42, velocity=0, time=59),
    Message('note_on', channel=0, note=61, velocity=0, time=0),
    Message('note_on', channel=0, note=54, velocity=0, time=0),
    Message('note_on', channel=0, note=49, velocity=0, time=0),
    Message('note_on', channel=0, note=58, velocity=0, time=0),
    Message('note_on', channel=0, note=66, velocity=0, time=0),
    Message('note_on', channel=0, note=42, velocity=60, time=1),
    Message('note_on', channel=0, note=54, velocity=60, time=0),
    Message('note_on', channel=0, note=58, velocity=60, time=0),
    Message('note_on', channel=0, note=49, velocity=60, time=0),
    Message('note_on', channel=0, note=66, velocity=60, time=0),
    Message('note_on', channel=0, note=61, velocity=60, time=0),
    Message('note_on', channel=0, note=42, velocity=0, time=29),
    Message('note_on', channel=0, note=54, velocity=0, time=0),
    Message('note_on', channel=0, note=58, velocity=0, time=0),
    Message('note_on', channel=0, note=49, velocity=0, time=0),
    Message('note_on', channel=0, note=66, velocity=0, time=0),
    Message('note_on', channel=0, note=61, velocity=0, time=0),
    Message('note_on', channel=0, note=66, velocity=60, time=1),
    Message('note_on', channel=0, note=61, velocity=60, time=0),
    Message('note_on', channel=0, note=58, velocity=60, time=0),
    Message('note_on', channel=0, note=49, velocity=60, time=0),
    Message('note_on', channel=0, note=42, velocity=60, time=0),
    Message('note_on', channel=0, note=54, velocity=60, time=0),
    Message('note_on', channel=0, note=66, velocity=0, time=59),
    Message('note_on', channel=0, note=61, velocity=0, time=0),
    Message('note_on', channel=0, note=58, velocity=0, time=0),
    Message('note_on', channel=0, note=49, velocity=0, time=0),
    Message('note_on', channel=0, note=42, velocity=0, time=0),
    Message('note_on', channel=0, note=54, velocity=0, time=0),
    Message('note_on', channel=0, note=54, velocity=60, time=1),
    Message('note_on', channel=0, note=49, velocity=60, time=0),
    Message('note_on', channel=0, note=61, velocity=60, time=0),
    Message('note_on', channel=0, note=66, velocity=60, time=0),
    Message('note_on', channel=0, note=42, velocity=60, time=0),
    Message('note_on', channel=0, note=58, velocity=60, time=0),
    Message('note_on', channel=0, note=54, velocity=0, time=29),
    Message('note_on', channel=0, note=49, velocity=0, time=0),
    Message('note_on', channel=0, note=61, velocity=0, time=0),
    Message('note_on', channel=0, note=66, velocity=0, time=0),
    Message('note_on', channel=0, note=42, velocity=0, time=0),
    Message('note_on', channel=0, note=58, velocity=0, time=0),
    Message('note_on', channel=0, note=58, velocity=60, time=1),
    Message('note_on', channel=0, note=49, velocity=60, time=0),
    Message('note_on', channel=0, note=61, velocity=60, time=0),
    Message('note_on', channel=0, note=54, velocity=60, time=0),
    Message('note_on', channel=0, note=42, velocity=60, time=0),
    Message('note_on', channel=0, note=66, velocity=60, time=0),
    Message('note_on', channel=0, note=58, velocity=0, time=59),
    Message('note_on', channel=0, note=49, velocity=0, time=0),
    Message('note_on', channel=0, note=61, velocity=0, time=0),
    Message('note_on', channel=0, note=54, velocity=0, time=0),
    Message('note_on', channel=0, note=42, velocity=0, time=0),
    Message('note_on', channel=0, note=66, velocity=0, time=0),
    Message('note_on', channel=0, note=58, velocity=60, time=1),
    Message('note_on', channel=0, note=66, velocity=60, time=0),
    Message('note_on', channel=0, note=61, velocity=60, time=0),
    Message('note_on', channel=0, note=49, velocity=60, time=0),
    Message('note_on', channel=0, note=42, velocity=60, time=0),
    Message('note_on', channel=0, note=54, velocity=60, time=0),
    Message('note_on', channel=0, note=58, velocity=0, time=59),
    Message('note_on', channel=0, note=66, velocity=0, time=0),
    Message('note_on', channel=0, note=61, velocity=0, time=0),
    Message('note_on', channel=0, note=49, velocity=0, time=0),
    Message('note_on', channel=0, note=42, velocity=0, time=0),
    Message('note_on', channel=0, note=54, velocity=0, time=0),
    Message('note_on', channel=0, note=66, velocity=60, time=1),
    Message('note_on', channel=0, note=49, velocity=60, time=0),
    Message('note_on', channel=0, note=42, velocity=60, time=0),
    Message('note_on', channel=0, note=58, velocity=60, time=0),
    Message('note_on', channel=0, note=54, velocity=60, time=0),
    Message('note_on', channel=0, note=61, velocity=60, time=0),
    Message('note_on', channel=0, note=66, velocity=0, time=59),
    Message('note_on', channel=0, note=49, velocity=0, time=0),
    Message('note_on', channel=0, note=42, velocity=0, time=0),
    Message('note_on', channel=0, note=58, velocity=0, time=0),
    Message('note_on', channel=0, note=54, velocity=0, time=0),
    Message('note_on', channel=0, note=61, velocity=0, time=0),
    Message('note_on', channel=0, note=61, velocity=60, time=1),
    Message('note_on', channel=0, note=57, velocity=60, time=0),
    Message('note_on', channel=0, note=40, velocity=60, time=0),
    Message('note_on', channel=0, note=45, velocity=60, time=0),
    Message('note_on', channel=0, note=64, velocity=60, time=0),
    Message('note_on', channel=0, note=52, velocity=60, time=0),
    Message('note_on', channel=0, note=61, velocity=0, time=29),
    Message('note_on', channel=0, note=57, velocity=0, time=0),
    Message('note_on', channel=0, note=40, velocity=0, time=0),
    Message('note_on', channel=0, note=45, velocity=0, time=0),
    Message('note_on', channel=0, note=64, velocity=0, time=0),
    Message('note_on', channel=0, note=52, velocity=0, time=0),
    Message('note_on', channel=0, note=57, velocity=60, time=1),
    Message('note_on', channel=0, note=40, velocity=60, time=0),
    Message('note_on', channel=0, note=61, velocity=60, time=0),
    Message('note_on', channel=0, note=52, velocity=60, time=0),
    Message('note_on', channel=0, note=45, velocity=60, time=0),
    Message('note_on', channel=0, note=64, velocity=60, time=0),
    Message('note_on', channel=0, note=57, velocity=0, time=59),
    Message('note_on', channel=0, note=40, velocity=0, time=0),
    Message('note_on', channel=0, note=61, velocity=0, time=0),
    Message('note_on', channel=0, note=52, velocity=0, time=0),
    Message('note_on', channel=0, note=45, velocity=0, time=0),
    Message('note_on', channel=0, note=64, velocity=0, time=0),
    Message('note_on', channel=0, note=45, velocity=60, time=1),
    Message('note_on', channel=0, note=40, velocity=60, time=0),
    Message('note_on', channel=0, note=52, velocity=60, time=0),
    Message('note_on', channel=0, note=57, velocity=60, time=0),
    Message('note_on', channel=0, note=64, velocity=60, time=0),
    Message('note_on', channel=0, note=61, velocity=60, time=0),
    Message('note_on', channel=0, note=45, velocity=0, time=29),
    Message('note_on', channel=0, note=40, velocity=0, time=0),
    Message('note_on', channel=0, note=52, velocity=0, time=0),
    Message('note_on', channel=0, note=57, velocity=0, time=0),
    Message('note_on', channel=0, note=64, velocity=0, time=0),
    Message('note_on', channel=0, note=61, velocity=0, time=0),
    Message('note_on', channel=0, note=57, velocity=60, time=1),
    Message('note_on', channel=0, note=45, velocity=60, time=0),
    Message('note_on', channel=0, note=64, velocity=60, time=0),
    Message('note_on', channel=0, note=52, velocity=60, time=0),
    Message('note_on', channel=0, note=40, velocity=60, time=0),
    Message('note_on', channel=0, note=61, velocity=60, time=0),
    Message('note_on', channel=0, note=57, velocity=0, time=59),
    Message('note_on', channel=0, note=45, velocity=0, time=0),
    Message('note_on', channel=0, note=64, velocity=0, time=0),
    Message('note_on', channel=0, note=52, velocity=0, time=0),
    Message('note_on', channel=0, note=40, velocity=0, time=0),
    Message('note_on', channel=0, note=61, velocity=0, time=0),
    Message('note_on', channel=0, note=40, velocity=60, time=1),
    Message('note_on', channel=0, note=57, velocity=60, time=0),
    Message('note_on', channel=0, note=64, velocity=60, time=0),
    Message('note_on', channel=0, note=52, velocity=60, time=0),
    Message('note_on', channel=0, note=61, velocity=60, time=0),
    Message('note_on', channel=0, note=45, velocity=60, time=0),
    Message('note_on', channel=0, note=40, velocity=0, time=29),
    Message('note_on', channel=0, note=57, velocity=0, time=0),
    Message('note_on', channel=0, note=64, velocity=0, time=0),
    Message('note_on', channel=0, note=52, velocity=0, time=0),
    Message('note_on', channel=0, note=61, velocity=0, time=0),
    Message('note_on', channel=0, note=45, velocity=0, time=0),
    Message('note_on', channel=0, note=61, velocity=60, time=1),
    Message('note_on', channel=0, note=45, velocity=60, time=0),
    Message('note_on', channel=0, note=64, velocity=60, time=0),
    Message('note_on', channel=0, note=40, velocity=60, time=0),
    Message('note_on', channel=0, note=57, velocity=60, time=0),
    Message('note_on', channel=0, note=52, velocity=60, time=0),
    Message('note_on', channel=0, note=61, velocity=0, time=59),
    Message('note_on', channel=0, note=45, velocity=0, time=0),
    Message('note_on', channel=0, note=64, velocity=0, time=0),
    Message('note_on', channel=0, note=40, velocity=0, time=0),
    Message('note_on', channel=0, note=57, velocity=0, time=0),
    Message('note_on', channel=0, note=52, velocity=0, time=0),
    Message('note_on', channel=0, note=64, velocity=60, time=1),
    Message('note_on', channel=0, note=57, velocity=60, time=0),
    Message('note_on', channel=0, note=40, velocity=60, time=0),
    Message('note_on', channel=0, note=61, velocity=60, time=0),
    Message('note_on', channel=0, note=52, velocity=60, time=0),
    Message('note_on', channel=0, note=45, velocity=60, time=0),
    Message('note_on', channel=0, note=64, velocity=0, time=29),
    Message('note_on', channel=0, note=57, velocity=0, time=0),
    Message('note_on', channel=0, note=40, velocity=0, time=0),
    Message('note_on', channel=0, note=61, velocity=0, time=0),
    Message('note_on', channel=0, note=52, velocity=0, time=0),
    Message('note_on', channel=0, note=45, velocity=0, time=0),
    Message('note_on', channel=0, note=57, velocity=60, time=1),
    Message('note_on', channel=0, note=40, velocity=60, time=0),
    Message('note_on', channel=0, note=52, velocity=60, time=0),
    Message('note_on', channel=0, note=64, velocity=60, time=0),
    Message('note_on', channel=0, note=61, velocity=60, time=0),
    Message('note_on', channel=0, note=45, velocity=60, time=0),
    Message('note_on', channel=0, note=57, velocity=0, time=59),
    Message('note_on', channel=0, note=40, velocity=0, time=0),
    Message('note_on', channel=0, note=52, velocity=0, time=0),
    Message('note_on', channel=0, note=64, velocity=0, time=0),
    Message('note_on', channel=0, note=61, velocity=0, time=0),
    Message('note_on', channel=0, note=45, velocity=0, time=0),
    Message('note_on', channel=0, note=57, velocity=60, time=1),
    Message('note_on', channel=0, note=61, velocity=60, time=0),
    Message('note_on', channel=0, note=45, velocity=60, time=0),
    Message('note_on', channel=0, note=64, velocity=60, time=0),
    Message('note_on', channel=0, note=40, velocity=60, time=0),
    Message('note_on', channel=0, note=52, velocity=60, time=0),
    Message('note_on', channel=0, note=57, velocity=0, time=59),
    Message('note_on', channel=0, note=61, velocity=0, time=0),
    Message('note_on', channel=0, note=45, velocity=0, time=0),
    Message('note_on', channel=0, note=64, velocity=0, time=0),
    Message('note_on', channel=0, note=40, velocity=0, time=0),
    Message('note_on', channel=0, note=52, velocity=0, time=0),
    Message('note_on', channel=0, note=45, velocity=60, time=1),
    Message('note_on', channel=0, note=40, velocity=60, time=0),
    Message('note_on', channel=0, note=57, velocity=60, time=0),
    Message('note_on', channel=0, note=64, velocity=60, time=0),
    Message('note_on', channel=0, note=52, velocity=60, time=0),
    Message('note_on', channel=0, note=61, velocity=60, time=0),
    Message('note_on', channel=0, note=45, velocity=0, time=59),
    Message('note_on', channel=0, note=40, velocity=0, time=0),
    Message('note_on', channel=0, note=57, velocity=0, time=0),
    Message('note_on', channel=0, note=64, velocity=0, time=0),
    Message('note_on', channel=0, note=52, velocity=0, time=0),
    Message('note_on', channel=0, note=61, velocity=0, time=0),
    Message('note_on', channel=0, note=59, velocity=60, time=1),
    Message('note_on', channel=0, note=56, velocity=60, time=0),
    Message('note_on', channel=0, note=52, velocity=60, time=0),
    Message('note_on', channel=0, note=40, velocity=60, time=0),
    Message('note_on', channel=0, note=47, velocity=60, time=0),
    Message('note_on', channel=0, note=64, velocity=60, time=0),
    Message('note_on', channel=0, note=59, velocity=0, time=29),
    Message('note_on', channel=0, note=56, velocity=0, time=0),
    Message('note_on', channel=0, note=52, velocity=0, time=0),
    Message('note_on', channel=0, note=40, velocity=0, time=0),
    Message('note_on', channel=0, note=47, velocity=0, time=0),
    Message('note_on', channel=0, note=64, velocity=0, time=0),
    Message('note_on', channel=0, note=56, velocity=60, time=1),
    Message('note_on', channel=0, note=40, velocity=60, time=0),
    Message('note_on', channel=0, note=47, velocity=60, time=0),
    Message('note_on', channel=0, note=59, velocity=60, time=0),
    Message('note_on', channel=0, note=52, velocity=60, time=0),
    Message('note_on', channel=0, note=64, velocity=60, time=0),
    Message('note_on', channel=0, note=56, velocity=0, time=59),
    Message('note_on', channel=0, note=40, velocity=0, time=0),
    Message('note_on', channel=0, note=47, velocity=0, time=0),
    Message('note_on', channel=0, note=59, velocity=0, time=0),
    Message('note_on', channel=0, note=52, velocity=0, time=0),
    Message('note_on', channel=0, note=64, velocity=0, time=0),
    Message('note_on', channel=0, note=64, velocity=60, time=1),
    Message('note_on', channel=0, note=56, velocity=60, time=0),
    Message('note_on', channel=0, note=47, velocity=60, time=0),
    Message('note_on', channel=0, note=52, velocity=60, time=0),
    Message('note_on', channel=0, note=40, velocity=60, time=0),
    Message('note_on', channel=0, note=59, velocity=60, time=0),
    Message('note_on', channel=0, note=64, velocity=0, time=29),
    Message('note_on', channel=0, note=56, velocity=0, time=0),
    Message('note_on', channel=0, note=47, velocity=0, time=0),
    Message('note_on', channel=0, note=52, velocity=0, time=0),
    Message('note_on', channel=0, note=40, velocity=0, time=0),
    Message('note_on', channel=0, note=59, velocity=0, time=0),
    Message('note_on', channel=0, note=40, velocity=60, time=1),
    Message('note_on', channel=0, note=59, velocity=60, time=0),
    Message('note_on', channel=0, note=52, velocity=60, time=0),
    Message('note_on', channel=0, note=47, velocity=60, time=0),
    Message('note_on', channel=0, note=56, velocity=60, time=0),
    Message('note_on', channel=0, note=64, velocity=60, time=0),
    Message('note_on', channel=0, note=40, velocity=0, time=59),
    Message('note_on', channel=0, note=59, velocity=0, time=0),
    Message('note_on', channel=0, note=52, velocity=0, time=0),
    Message('note_on', channel=0, note=47, velocity=0, time=0),
    Message('note_on', channel=0, note=56, velocity=0, time=0),
    Message('note_on', channel=0, note=64, velocity=0, time=0),
    Message('note_on', channel=0, note=40, velocity=60, time=1),
    Message('note_on', channel=0, note=52, velocity=60, time=0),
    Message('note_on', channel=0, note=56, velocity=60, time=0),
    Message('note_on', channel=0, note=47, velocity=60, time=0),
    Message('note_on', channel=0, note=64, velocity=60, time=0),
    Message('note_on', channel=0, note=59, velocity=60, time=0),
    Message('note_on', channel=0, note=40, velocity=0, time=29),
    Message('note_on', channel=0, note=52, velocity=0, time=0),
    Message('note_on', channel=0, note=56, velocity=0, time=0),
    Message('note_on', channel=0, note=47, velocity=0, time=0),
    Message('note_on', channel=0, note=64, velocity=0, time=0),
    Message('note_on', channel=0, note=59, velocity=0, time=0),
    Message('note_on', channel=0, note=64, velocity=60, time=1),
    Message('note_on', channel=0, note=59, velocity=60, time=0),
    Message('note_on', channel=0, note=56, velocity=60, time=0),
    Message('note_on', channel=0, note=47, velocity=60, time=0),
    Message('note_on', channel=0, note=40, velocity=60, time=0),
    Message('note_on', channel=0, note=52, velocity=60, time=0),
    Message('note_on', channel=0, note=64, velocity=0, time=59),
    Message('note_on', channel=0, note=59, velocity=0, time=0),
    Message('note_on', channel=0, note=56, velocity=0, time=0),
    Message('note_on', channel=0, note=47, velocity=0, time=0),
    Message('note_on', channel=0, note=40, velocity=0, time=0),
    Message('note_on', channel=0, note=52, velocity=0, time=0),
    Message('note_on', channel=0, note=52, velocity=60, time=1),
    Message('note_on', channel=0, note=47, velocity=60, time=0),
    Message('note_on', channel=0, note=59, velocity=60, time=0),
    Message('note_on', channel=0, note=64, velocity=60, time=0),
    Message('note_on', channel=0, note=40, velocity=60, time=0),
    Message('note_on', channel=0, note=56, velocity=60, time=0),
    Message('note_on', channel=0, note=52, velocity=0, time=29),
    Message('note_on', channel=0, note=47, velocity=0, time=0),
    Message('note_on', channel=0, note=59, velocity=0, time=0),
    Message('note_on', channel=0, note=64, velocity=0, time=0),
    Message('note_on', channel=0, note=40, velocity=0, time=0),
    Message('note_on', channel=0, note=56, velocity=0, time=0),
    Message('note_on', channel=0, note=56, velocity=60, time=1),
    Message('note_on', channel=0, note=47, velocity=60, time=0),
    Message('note_on', channel=0, note=59, velocity=60, time=0),
    Message('note_on', channel=0, note=52, velocity=60, time=0),
    Message('note_on', channel=0, note=40, velocity=60, time=0),
    Message('note_on', channel=0, note=64, velocity=60, time=0),
    Message('note_on', channel=0, note=56, velocity=0, time=59),
    Message('note_on', channel=0, note=47, velocity=0, time=0),
    Message('note_on', channel=0, note=59, velocity=0, time=0),
    Message('note_on', channel=0, note=52, velocity=0, time=0),
    Message('note_on', channel=0, note=40, velocity=0, time=0),
    Message('note_on', channel=0, note=64, velocity=0, time=0),
    Message('note_on', channel=0, note=56, velocity=60, time=1),
    Message('note_on', channel=0, note=64, velocity=60, time=0),
    Message('note_on', channel=0, note=59, velocity=60, time=0),
    Message('note_on', channel=0, note=47, velocity=60, time=0),
    Message('note_on', channel=0, note=40, velocity=60, time=0),
    Message('note_on', channel=0, note=52, velocity=60, time=0),
    Message('note_on', channel=0, note=56, velocity=0, time=59),
    Message('note_on', channel=0, note=64, velocity=0, time=0),
    Message('note_on', channel=0, note=59, velocity=0, time=0),
    Message('note_on', channel=0, note=47, velocity=0, time=0),
    Message('note_on', channel=0, note=40, velocity=0, time=0),
    Message('note_on', channel=0, note=52, velocity=0, time=0),
    Message('note_on', channel=0, note=64, velocity=60, time=1),
    Message('note_on', channel=0, note=47, velocity=60, time=0),
    Message('note_on', channel=0, note=40, velocity=60, time=0),
    Message('note_on', channel=0, note=56, velocity=60, time=0),
    Message('note_on', channel=0, note=52, velocity=60, time=0),
    Message('note_on', channel=0, note=59, velocity=60, time=0),
    Message('note_on', channel=0, note=64, velocity=0, time=59),
    Message('note_on', channel=0, note=47, velocity=0, time=0),
    Message('note_on', channel=0, note=40, velocity=0, time=0),
    Message('note_on', channel=0, note=56, velocity=0, time=0),
    Message('note_on', channel=0, note=52, velocity=0, time=0),
    Message('note_on', channel=0, note=59, velocity=0, time=0),
    Message('note_on', channel=0, note=62, velocity=60, time=1),
    Message('note_on', channel=0, note=59, velocity=60, time=0),
    Message('note_on', channel=0, note=43, velocity=60, time=0),
    Message('note_on', channel=0, note=47, velocity=60, time=0),
    Message('note_on', channel=0, note=67, velocity=60, time=0),
    Message('note_on', channel=0, note=55, velocity=60, time=0),
    Message('note_on', channel=0, note=62, velocity=0, time=29),
    Message('note_on', channel=0, note=59, velocity=0, time=0),
    Message('note_on', channel=0, note=43, velocity=0, time=0),
    Message('note_on', channel=0, note=47, velocity=0, time=0),
    Message('note_on', channel=0, note=67, velocity=0, time=0),
    Message('note_on', channel=0, note=55, velocity=0, time=0),
    Message('note_on', channel=0, note=59, velocity=60, time=1),
    Message('note_on', channel=0, note=43, velocity=60, time=0),
    Message('note_on', channel=0, note=62, velocity=60, time=0),
    Message('note_on', channel=0, note=55, velocity=60, time=0),
    Message('note_on', channel=0, note=47, velocity=60, time=0),
    Message('note_on', channel=0, note=67, velocity=60, time=0),
    Message('note_on', channel=0, note=59, velocity=0, time=59),
    Message('note_on', channel=0, note=43, velocity=0, time=0),
    Message('note_on', channel=0, note=62, velocity=0, time=0),
    Message('note_on', channel=0, note=55, velocity=0, time=0),
    Message('note_on', channel=0, note=47, velocity=0, time=0),
    Message('note_on', channel=0, note=67, velocity=0, time=0),
    Message('note_on', channel=0, note=47, velocity=60, time=1),
    Message('note_on', channel=0, note=43, velocity=60, time=0),
    Message('note_on', channel=0, note=55, velocity=60, time=0),
    Message('note_on', channel=0, note=59, velocity=60, time=0),
    Message('note_on', channel=0, note=67, velocity=60, time=0),
    Message('note_on', channel=0, note=62, velocity=60, time=0),
    Message('note_on', channel=0, note=47, velocity=0, time=29),
    Message('note_on', channel=0, note=43, velocity=0, time=0),
    Message('note_on', channel=0, note=55, velocity=0, time=0),
    Message('note_on', channel=0, note=59, velocity=0, time=0),
    Message('note_on', channel=0, note=67, velocity=0, time=0),
    Message('note_on', channel=0, note=62, velocity=0, time=0),
    Message('note_on', channel=0, note=59, velocity=60, time=1),
    Message('note_on', channel=0, note=47, velocity=60, time=0),
    Message('note_on', channel=0, note=67, velocity=60, time=0),
    Message('note_on', channel=0, note=55, velocity=60, time=0),
    Message('note_on', channel=0, note=43, velocity=60, time=0),
    Message('note_on', channel=0, note=62, velocity=60, time=0),
    Message('note_on', channel=0, note=59, velocity=0, time=59),
    Message('note_on', channel=0, note=47, velocity=0, time=0),
    Message('note_on', channel=0, note=67, velocity=0, time=0),
    Message('note_on', channel=0, note=55, velocity=0, time=0),
    Message('note_on', channel=0, note=43, velocity=0, time=0),
    Message('note_on', channel=0, note=62, velocity=0, time=0),
    Message('note_on', channel=0, note=43, velocity=60, time=1),
    Message('note_on', channel=0, note=59, velocity=60, time=0),
    Message('note_on', channel=0, note=67, velocity=60, time=0),
    Message('note_on', channel=0, note=55, velocity=60, time=0),
    Message('note_on', channel=0, note=62, velocity=60, time=0),
    Message('note_on', channel=0, note=47, velocity=60, time=0),
    Message('note_on', channel=0, note=43, velocity=0, time=29),
    Message('note_on', channel=0, note=59, velocity=0, time=0),
    Message('note_on', channel=0, note=67, velocity=0, time=0),
    Message('note_on', channel=0, note=55, velocity=0, time=0),
    Message('note_on', channel=0, note=62, velocity=0, time=0),
    Message('note_on', channel=0, note=47, velocity=0, time=0),
    Message('note_on', channel=0, note=62, velocity=60, time=1),
    Message('note_on', channel=0, note=47, velocity=60, time=0),
    Message('note_on', channel=0, note=67, velocity=60, time=0),
    Message('note_on', channel=0, note=43, velocity=60, time=0),
    Message('note_on', channel=0, note=59, velocity=60, time=0),
    Message('note_on', channel=0, note=55, velocity=60, time=0),
    Message('note_on', channel=0, note=62, velocity=0, time=59),
    Message('note_on', channel=0, note=47, velocity=0, time=0),
    Message('note_on', channel=0, note=67, velocity=0, time=0),
    Message('note_on', channel=0, note=43, velocity=0, time=0),
    Message('note_on', channel=0, note=59, velocity=0, time=0),
    Message('note_on', channel=0, note=55, velocity=0, time=0),
    Message('note_on', channel=0, note=67, velocity=60, time=1),
    Message('note_on', channel=0, note=59, velocity=60, time=0),
    Message('note_on', channel=0, note=43, velocity=60, time=0),
    Message('note_on', channel=0, note=62, velocity=60, time=0),
    Message('note_on', channel=0, note=55, velocity=60, time=0),
    Message('note_on', channel=0, note=47, velocity=60, time=0),
    Message('note_on', channel=0, note=67, velocity=0, time=29),
    Message('note_on', channel=0, note=59, velocity=0, time=0),
    Message('note_on', channel=0, note=43, velocity=0, time=0),
    Message('note_on', channel=0, note=62, velocity=0, time=0),
    Message('note_on', channel=0, note=55, velocity=0, time=0),
    Message('note_on', channel=0, note=47, velocity=0, time=0),
    Message('note_on', channel=0, note=59, velocity=60, time=1),
    Message('note_on', channel=0, note=43, velocity=60, time=0),
    Message('note_on', channel=0, note=55, velocity=60, time=0),
    Message('note_on', channel=0, note=67, velocity=60, time=0),
    Message('note_on', channel=0, note=62, velocity=60, time=0),
    Message('note_on', channel=0, note=47, velocity=60, time=0),
    Message('note_on', channel=0, note=59, velocity=0, time=59),
    Message('note_on', channel=0, note=43, velocity=0, time=0),
    Message('note_on', channel=0, note=55, velocity=0, time=0),
    Message('note_on', channel=0, note=67, velocity=0, time=0),
    Message('note_on', channel=0, note=62, velocity=0, time=0),
    Message('note_on', channel=0, note=47, velocity=0, time=0),
    Message('note_on', channel=0, note=59, velocity=60, time=1),
    Message('note_on', channel=0, note=62, velocity=60, time=0),
    Message('note_on', channel=0, note=47, velocity=60, time=0),
    Message('note_on', channel=0, note=67, velocity=60, time=0),
    Message('note_on', channel=0, note=43, velocity=60, time=0),
    Message('note_on', channel=0, note=55, velocity=60, time=0),
    Message('note_on', channel=0, note=59, velocity=0, time=59),
    Message('note_on', channel=0, note=62, velocity=0, time=0),
    Message('note_on', channel=0, note=47, velocity=0, time=0),
    Message('note_on', channel=0, note=67, velocity=0, time=0),
    Message('note_on', channel=0, note=43, velocity=0, time=0),
    Message('note_on', channel=0, note=55, velocity=0, time=0),
    Message('note_on', channel=0, note=47, velocity=60, time=1),
    Message('note_on', channel=0, note=43, velocity=60, time=0),
    Message('note_on', channel=0, note=59, velocity=60, time=0),
    Message('note_on', channel=0, note=67, velocity=60, time=0),
    Message('note_on', channel=0, note=55, velocity=60, time=0),
    Message('note_on', channel=0, note=62, velocity=60, time=0),
    Message('note_on', channel=0, note=47, velocity=0, time=59),
    Message('note_on', channel=0, note=43, velocity=0, time=0),
    Message('note_on', channel=0, note=59, velocity=0, time=0),
    Message('note_on', channel=0, note=67, velocity=0, time=0),
    Message('note_on', channel=0, note=55, velocity=0, time=0),
    Message('note_on', channel=0, note=62, velocity=0, time=0),
    Message('note_on', channel=0, note=66, velocity=60, time=1),
    Message('note_on', channel=0, note=62, velocity=60, time=0),
    Message('note_on', channel=0, note=57, velocity=60, time=0),
    Message('note_on', channel=0, note=45, velocity=60, time=0),
    Message('note_on', channel=0, note=50, velocity=60, time=0),
    Message('note_on', channel=0, note=69, velocity=60, time=0),
    Message('note_on', channel=0, note=66, velocity=0, time=29),
    Message('note_on', channel=0, note=62, velocity=0, time=0),
    Message('note_on', channel=0, note=57, velocity=0, time=0),
    Message('note_on', channel=0, note=45, velocity=0, time=0),
    Message('note_on', channel=0, note=50, velocity=0, time=0),
    Message('note_on', channel=0, note=69, velocity=0, time=0),
    Message('note_on', channel=0, note=62, velocity=60, time=1),
    Message('note_on', channel=0, note=45, velocity=60, time=0),
    Message('note_on', channel=0, note=50, velocity=60, time=0),
    Message('note_on', channel=0, note=66, velocity=60, time=0),
    Message('note_on', channel=0, note=57, velocity=60, time=0),
    Message('note_on', channel=0, note=69, velocity=60, time=0),
    Message('note_on', channel=0, note=62, velocity=0, time=59),
    Message('note_on', channel=0, note=45, velocity=0, time=0),
    Message('note_on', channel=0, note=50, velocity=0, time=0),
    Message('note_on', channel=0, note=66, velocity=0, time=0),
    Message('note_on', channel=0, note=57, velocity=0, time=0),
    Message('note_on', channel=0, note=69, velocity=0, time=0),
    Message('note_on', channel=0, note=69, velocity=60, time=1),
    Message('note_on', channel=0, note=62, velocity=60, time=0),
    Message('note_on', channel=0, note=50, velocity=60, time=0),
    Message('note_on', channel=0, note=57, velocity=60, time=0),
    Message('note_on', channel=0, note=45, velocity=60, time=0),
    Message('note_on', channel=0, note=66, velocity=60, time=0),
    Message('note_on', channel=0, note=69, velocity=0, time=29),
    Message('note_on', channel=0, note=62, velocity=0, time=0),
    Message('note_on', channel=0, note=50, velocity=0, time=0),
    Message('note_on', channel=0, note=57, velocity=0, time=0),
    Message('note_on', channel=0, note=45, velocity=0, time=0),
    Message('note_on', channel=0, note=66, velocity=0, time=0),
    Message('note_on', channel=0, note=45, velocity=60, time=1),
    Message('note_on', channel=0, note=66, velocity=60, time=0),
    Message('note_on', channel=0, note=57, velocity=60, time=0),
    Message('note_on', channel=0, note=50, velocity=60, time=0),
    Message('note_on', channel=0, note=62, velocity=60, time=0),
    Message('note_on', channel=0, note=69, velocity=60, time=0),
    Message('note_on', channel=0, note=45, velocity=0, time=59),
    Message('note_on', channel=0, note=66, velocity=0, time=0),
    Message('note_on', channel=0, note=57, velocity=0, time=0),
    Message('note_on', channel=0, note=50, velocity=0, time=0),
    Message('note_on', channel=0, note=62, velocity=0, time=0),
    Message('note_on', channel=0, note=69, velocity=0, time=0),
    Message('note_on', channel=0, note=45, velocity=60, time=1),
    Message('note_on', channel=0, note=57, velocity=60, time=0),
    Message('note_on', channel=0, note=62, velocity=60, time=0),
    Message('note_on', channel=0, note=50, velocity=60, time=0),
    Message('note_on', channel=0, note=69, velocity=60, time=0),
    Message('note_on', channel=0, note=66, velocity=60, time=0),
    Message('note_on', channel=0, note=45, velocity=0, time=29),
    Message('note_on', channel=0, note=57, velocity=0, time=0),
    Message('note_on', channel=0, note=62, velocity=0, time=0),
    Message('note_on', channel=0, note=50, velocity=0, time=0),
    Message('note_on', channel=0, note=69, velocity=0, time=0),
    Message('note_on', channel=0, note=66, velocity=0, time=0),
    Message('note_on', channel=0, note=69, velocity=60, time=1),
    Message('note_on', channel=0, note=66, velocity=60, time=0),
    Message('note_on', channel=0, note=62, velocity=60, time=0),
    Message('note_on', channel=0, note=50, velocity=60, time=0),
    Message('note_on', channel=0, note=45, velocity=60, time=0),
    Message('note_on', channel=0, note=57, velocity=60, time=0),
    Message('note_on', channel=0, note=69, velocity=0, time=59),
    Message('note_on', channel=0, note=66, velocity=0, time=0),
    Message('note_on', channel=0, note=62, velocity=0, time=0),
    Message('note_on', channel=0, note=50, velocity=0, time=0),
    Message('note_on', channel=0, note=45, velocity=0, time=0),
    Message('note_on', channel=0, note=57, velocity=0, time=0),
    Message('note_on', channel=0, note=57, velocity=60, time=1),
    Message('note_on', channel=0, note=50, velocity=60, time=0),
    Message('note_on', channel=0, note=66, velocity=60, time=0),
    Message('note_on', channel=0, note=69, velocity=60, time=0),
    Message('note_on', channel=0, note=45, velocity=60, time=0),
    Message('note_on', channel=0, note=62, velocity=60, time=0),
    Message('note_on', channel=0, note=57, velocity=0, time=29),
    Message('note_on', channel=0, note=50, velocity=0, time=0),
    Message('note_on', channel=0, note=66, velocity=0, time=0),
    Message('note_on', channel=0, note=69, velocity=0, time=0),
    Message('note_on', channel=0, note=45, velocity=0, time=0),
    Message('note_on', channel=0, note=62, velocity=0, time=0),
    Message('note_on', channel=0, note=62, velocity=60, time=1),
    Message('note_on', channel=0, note=50, velocity=60, time=0),
    Message('note_on', channel=0, note=66, velocity=60, time=0),
    Message('note_on', channel=0, note=57, velocity=60, time=0),
    Message('note_on', channel=0, note=45, velocity=60, time=0),
    Message('note_on', channel=0, note=69, velocity=60, time=0),
    Message('note_on', channel=0, note=62, velocity=0, time=59),
    Message('note_on', channel=0, note=50, velocity=0, time=0),
    Message('note_on', channel=0, note=66, velocity=0, time=0),
    Message('note_on', channel=0, note=57, velocity=0, time=0),
    Message('note_on', channel=0, note=45, velocity=0, time=0),
    Message('note_on', channel=0, note=69, velocity=0, time=0),
    Message('note_on', channel=0, note=62, velocity=60, time=1),
    Message('note_on', channel=0, note=69, velocity=60, time=0),
    Message('note_on', channel=0, note=66, velocity=60, time=0),
    Message('note_on', channel=0, note=50, velocity=60, time=0),
    Message('note_on', channel=0, note=45, velocity=60, time=0),
    Message('note_on', channel=0, note=57, velocity=60, time=0),
    Message('note_on', channel=0, note=62, velocity=0, time=59),
    Message('note_on', channel=0, note=69, velocity=0, time=0),
    Message('note_on', channel=0, note=66, velocity=0, time=0),
    Message('note_on', channel=0, note=50, velocity=0, time=0),
    Message('note_on', channel=0, note=45, velocity=0, time=0),
    Message('note_on', channel=0, note=57, velocity=0, time=0),
    Message('note_on', channel=0, note=69, velocity=60, time=1),
    Message('note_on', channel=0, note=50, velocity=60, time=0),
    Message('note_on', channel=0, note=45, velocity=60, time=0),
    Message('note_on', channel=0, note=62, velocity=60, time=0),
    Message('note_on', channel=0, note=57, velocity=60, time=0),
    Message('note_on', channel=0, note=66, velocity=60, time=0),
    Message('note_on', channel=0, note=69, velocity=0, time=59),
    Message('note_on', channel=0, note=50, velocity=0, time=0),
    Message('note_on', channel=0, note=45, velocity=0, time=0),
    Message('note_on', channel=0, note=62, velocity=0, time=0),
    Message('note_on', channel=0, note=57, velocity=0, time=0),
    Message('note_on', channel=0, note=66, velocity=0, time=0),
    Message('note_on', channel=0, note=59, velocity=60, time=1),
    Message('note_on', channel=0, note=55, velocity=60, time=0),
    Message('note_on', channel=0, note=40, velocity=60, time=0),
    Message('note_on', channel=0, note=45, velocity=60, time=0),
    Message('note_on', channel=0, note=64, velocity=60, time=0),
    Message('note_on', channel=0, note=52, velocity=60, time=0),
    Message('note_on', channel=0, note=59, velocity=0, time=29),
    Message('note_on', channel=0, note=55, velocity=0, time=0),
    Message('note_on', channel=0, note=40, velocity=0, time=0),
    Message('note_on', channel=0, note=45, velocity=0, time=0),
    Message('note_on', channel=0, note=64, velocity=0, time=0),
    Message('note_on', channel=0, note=52, velocity=0, time=0),
    Message('note_on', channel=0, note=55, velocity=60, time=1),
    Message('note_on', channel=0, note=40, velocity=60, time=0),
    Message('note_on', channel=0, note=59, velocity=60, time=0),
    Message('note_on', channel=0, note=52, velocity=60, time=0),
    Message('note_on', channel=0, note=45, velocity=60, time=0),
    Message('note_on', channel=0, note=64, velocity=60, time=0),
    Message('note_on', channel=0, note=55, velocity=0, time=59),
    Message('note_on', channel=0, note=40, velocity=0, time=0),
    Message('note_on', channel=0, note=59, velocity=0, time=0),
    Message('note_on', channel=0, note=52, velocity=0, time=0),
    Message('note_on', channel=0, note=45, velocity=0, time=0),
    Message('note_on', channel=0, note=64, velocity=0, time=0),
    Message('note_on', channel=0, note=45, velocity=60, time=1),
    Message('note_on', channel=0, note=40, velocity=60, time=0),
    Message('note_on', channel=0, note=52, velocity=60, time=0),
    Message('note_on', channel=0, note=55, velocity=60, time=0),
    Message('note_on', channel=0, note=64, velocity=60, time=0),
    Message('note_on', channel=0, note=59, velocity=60, time=0),
    Message('note_on', channel=0, note=45, velocity=0, time=29),
    Message('note_on', channel=0, note=40, velocity=0, time=0),
    Message('note_on', channel=0, note=52, velocity=0, time=0),
    Message('note_on', channel=0, note=55, velocity=0, time=0),
    Message('note_on', channel=0, note=64, velocity=0, time=0),
    Message('note_on', channel=0, note=59, velocity=0, time=0),
    Message('note_on', channel=0, note=55, velocity=60, time=1),
    Message('note_on', channel=0, note=45, velocity=60, time=0),
    Message('note_on', channel=0, note=64, velocity=60, time=0),
    Message('note_on', channel=0, note=52, velocity=60, time=0),
    Message('note_on', channel=0, note=40, velocity=60, time=0),
    Message('note_on', channel=0, note=59, velocity=60, time=0),
    Message('note_on', channel=0, note=55, velocity=0, time=59),
    Message('note_on', channel=0, note=45, velocity=0, time=0),
    Message('note_on', channel=0, note=64, velocity=0, time=0),
    Message('note_on', channel=0, note=52, velocity=0, time=0),
    Message('note_on', channel=0, note=40, velocity=0, time=0),
    Message('note_on', channel=0, note=59, velocity=0, time=0),
    Message('note_on', channel=0, note=40, velocity=60, time=1),
    Message('note_on', channel=0, note=55, velocity=60, time=0),
    Message('note_on', channel=0, note=64, velocity=60, time=0),
    Message('note_on', channel=0, note=52, velocity=60, time=0),
    Message('note_on', channel=0, note=59, velocity=60, time=0),
    Message('note_on', channel=0, note=45, velocity=60, time=0),
    Message('note_on', channel=0, note=40, velocity=0, time=29),
    Message('note_on', channel=0, note=55, velocity=0, time=0),
    Message('note_on', channel=0, note=64, velocity=0, time=0),
    Message('note_on', channel=0, note=52, velocity=0, time=0),
    Message('note_on', channel=0, note=59, velocity=0, time=0),
    Message('note_on', channel=0, note=45, velocity=0, time=0),
    Message('note_on', channel=0, note=59, velocity=60, time=1),
    Message('note_on', channel=0, note=45, velocity=60, time=0),
    Message('note_on', channel=0, note=64, velocity=60, time=0),
    Message('note_on', channel=0, note=40, velocity=60, time=0),
    Message('note_on', channel=0, note=55, velocity=60, time=0),
    Message('note_on', channel=0, note=52, velocity=60, time=0),
    Message('note_on', channel=0, note=59, velocity=0, time=59),
    Message('note_on', channel=0, note=45, velocity=0, time=0),
    Message('note_on', channel=0, note=64, velocity=0, time=0),
    Message('note_on', channel=0, note=40, velocity=0, time=0),
    Message('note_on', channel=0, note=55, velocity=0, time=0),
    Message('note_on', channel=0, note=52, velocity=0, time=0),
    Message('note_on', channel=0, note=64, velocity=60, time=1),
    Message('note_on', channel=0, note=55, velocity=60, time=0),
    Message('note_on', channel=0, note=40, velocity=60, time=0),
    Message('note_on', channel=0, note=59, velocity=60, time=0),
    Message('note_on', channel=0, note=52, velocity=60, time=0),
    Message('note_on', channel=0, note=45, velocity=60, time=0),
    Message('note_on', channel=0, note=64, velocity=0, time=29),
    Message('note_on', channel=0, note=55, velocity=0, time=0),
    Message('note_on', channel=0, note=40, velocity=0, time=0),
    Message('note_on', channel=0, note=59, velocity=0, time=0),
    Message('note_on', channel=0, note=52, velocity=0, time=0),
    Message('note_on', channel=0, note=45, velocity=0, time=0),
    Message('note_on', channel=0, note=55, velocity=60, time=1),
    Message('note_on', channel=0, note=40, velocity=60, time=0),
    Message('note_on', channel=0, note=52, velocity=60, time=0),
    Message('note_on', channel=0, note=64, velocity=60, time=0),
    Message('note_on', channel=0, note=59, velocity=60, time=0),
    Message('note_on', channel=0, note=45, velocity=60, time=0),
    Message('note_on', channel=0, note=55, velocity=0, time=59),
    Message('note_on', channel=0, note=40, velocity=0, time=0),
    Message('note_on', channel=0, note=52, velocity=0, time=0),
    Message('note_on', channel=0, note=64, velocity=0, time=0),
    Message('note_on', channel=0, note=59, velocity=0, time=0),
    Message('note_on', channel=0, note=45, velocity=0, time=0),
    Message('note_on', channel=0, note=55, velocity=60, time=1),
    Message('note_on', channel=0, note=59, velocity=60, time=0),
    Message('note_on', channel=0, note=45, velocity=60, time=0),
    Message('note_on', channel=0, note=64, velocity=60, time=0),
    Message('note_on', channel=0, note=40, velocity=60, time=0),
    Message('note_on', channel=0, note=52, velocity=60, time=0),
    Message('note_on', channel=0, note=55, velocity=0, time=59),
    Message('note_on', channel=0, note=59, velocity=0, time=0),
    Message('note_on', channel=0, note=45, velocity=0, time=0),
    Message('note_on', channel=0, note=64, velocity=0, time=0),
    Message('note_on', channel=0, note=40, velocity=0, time=0),
    Message('note_on', channel=0, note=52, velocity=0, time=0),
    Message('note_on', channel=0, note=45, velocity=60, time=1),
    Message('note_on', channel=0, note=40, velocity=60, time=0),
    Message('note_on', channel=0, note=55, velocity=60, time=0),
    Message('note_on', channel=0, note=64, velocity=60, time=0),
    Message('note_on', channel=0, note=52, velocity=60, time=0),
    Message('note_on', channel=0, note=59, velocity=60, time=0),
    Message('note_on', channel=0, note=45, velocity=0, time=59),
    Message('note_on', channel=0, note=40, velocity=0, time=0),
    Message('note_on', channel=0, note=55, velocity=0, time=0),
    Message('note_on', channel=0, note=64, velocity=0, time=0),
    Message('note_on', channel=0, note=52, velocity=0, time=0),
    Message('note_on', channel=0, note=59, velocity=0, time=0),
    Message('note_on', channel=0, note=61, velocity=60, time=1),
    Message('note_on', channel=0, note=58, velocity=60, time=0),
    Message('note_on', channel=0, note=54, velocity=60, time=0),
    Message('note_on', channel=0, note=42, velocity=60, time=0),
    Message('note_on', channel=0, note=49, velocity=60, time=0),
    Message('note_on', channel=0, note=66, velocity=60, time=0),
    Message('note_on', channel=0, note=61, velocity=0, time=29),
    Message('note_on', channel=0, note=58, velocity=0, time=0),
    Message('note_on', channel=0, note=54, velocity=0, time=0),
    Message('note_on', channel=0, note=42, velocity=0, time=0),
    Message('note_on', channel=0, note=49, velocity=0, time=0),
    Message('note_on', channel=0, note=66, velocity=0, time=0),
    Message('note_on', channel=0, note=58, velocity=60, time=1),
    Message('note_on', channel=0, note=42, velocity=60, time=0),
    Message('note_on', channel=0, note=49, velocity=60, time=0),
    Message('note_on', channel=0, note=61, velocity=60, time=0),
    Message('note_on', channel=0, note=54, velocity=60, time=0),
    Message('note_on', channel=0, note=66, velocity=60, time=0),
    Message('note_on', channel=0, note=58, velocity=0, time=59),
    Message('note_on', channel=0, note=42, velocity=0, time=0),
    Message('note_on', channel=0, note=49, velocity=0, time=0),
    Message('note_on', channel=0, note=61, velocity=0, time=0),
    Message('note_on', channel=0, note=54, velocity=0, time=0),
    Message('note_on', channel=0, note=66, velocity=0, time=0),
    Message('note_on', channel=0, note=66, velocity=60, time=1),
    Message('note_on', channel=0, note=58, velocity=60, time=0),
    Message('note_on', channel=0, note=49, velocity=60, time=0),
    Message('note_on', channel=0, note=54, velocity=60, time=0),
    Message('note_on', channel=0, note=42, velocity=60, time=0),
    Message('note_on', channel=0, note=61, velocity=60, time=0),
    Message('note_on', channel=0, note=66, velocity=0, time=29),
    Message('note_on', channel=0, note=58, velocity=0, time=0),
    Message('note_on', channel=0, note=49, velocity=0, time=0),
    Message('note_on', channel=0, note=54, velocity=0, time=0),
    Message('note_on', channel=0, note=42, velocity=0, time=0),
    Message('note_on', channel=0, note=61, velocity=0, time=0),
    Message('note_on', channel=0, note=42, velocity=60, time=1),
    Message('note_on', channel=0, note=61, velocity=60, time=0),
    Message('note_on', channel=0, note=54, velocity=60, time=0),
    Message('note_on', channel=0, note=49, velocity=60, time=0),
    Message('note_on', channel=0, note=58, velocity=60, time=0),
    Message('note_on', channel=0, note=66, velocity=60, time=0),
    Message('note_on', channel=0, note=42, velocity=0, time=59),
    Message('note_on', channel=0, note=61, velocity=0, time=0),
    Message('note_on', channel=0, note=54, velocity=0, time=0),
    Message('note_on', channel=0, note=49, velocity=0, time=0),
    Message('note_on', channel=0, note=58, velocity=0, time=0),
    Message('note_on', channel=0, note=66, velocity=0, time=0),
    Message('note_on', channel=0, note=42, velocity=60, time=1),
    Message('note_on', channel=0, note=54, velocity=60, time=0),
    Message('note_on', channel=0, note=58, velocity=60, time=0),
    Message('note_on', channel=0, note=49, velocity=60, time=0),
    Message('note_on', channel=0, note=66, velocity=60, time=0),
    Message('note_on', channel=0, note=61, velocity=60, time=0),
    Message('note_on', channel=0, note=42, velocity=0, time=29),
    Message('note_on', channel=0, note=54, velocity=0, time=0),
    Message('note_on', channel=0, note=58, velocity=0, time=0),
    Message('note_on', channel=0, note=49, velocity=0, time=0),
    Message('note_on', channel=0, note=66, velocity=0, time=0),
    Message('note_on', channel=0, note=61, velocity=0, time=0),
    Message('note_on', channel=0, note=66, velocity=60, time=1),
    Message('note_on', channel=0, note=61, velocity=60, time=0),
    Message('note_on', channel=0, note=58, velocity=60, time=0),
    Message('note_on', channel=0, note=49, velocity=60, time=0),
    Message('note_on', channel=0, note=42, velocity=60, time=0),
    Message('note_on', channel=0, note=54, velocity=60, time=0),
    Message('note_on', channel=0, note=66, velocity=0, time=59),
    Message('note_on', channel=0, note=61, velocity=0, time=0),
    Message('note_on', channel=0, note=58, velocity=0, time=0),
    Message('note_on', channel=0, note=49, velocity=0, time=0),
    Message('note_on', channel=0, note=42, velocity=0, time=0),
    Message('note_on', channel=0, note=54, velocity=0, time=0),
    Message('note_on', channel=0, note=54, velocity=60, time=1),
    Message('note_on', channel=0, note=49, velocity=60, time=0),
    Message('note_on', channel=0, note=61, velocity=60, time=0),
    Message('note_on', channel=0, note=66, velocity=60, time=0),
    Message('note_on', channel=0, note=42, velocity=60, time=0),
    Message('note_on', channel=0, note=58, velocity=60, time=0),
    Message('note_on', channel=0, note=54, velocity=0, time=29),
    Message('note_on', channel=0, note=49, velocity=0, time=0),
    Message('note_on', channel=0, note=61, velocity=0, time=0),
    Message('note_on', channel=0, note=66, velocity=0, time=0),
    Message('note_on', channel=0, note=42, velocity=0, time=0),
    Message('note_on', channel=0, note=58, velocity=0, time=0),
    Message('note_on', channel=0, note=58, velocity=60, time=1),
    Message('note_on', channel=0, note=49, velocity=60, time=0),
    Message('note_on', channel=0, note=61, velocity=60, time=0),
    Message('note_on', channel=0, note=54, velocity=60, time=0),
    Message('note_on', channel=0, note=42, velocity=60, time=0),
    Message('note_on', channel=0, note=66, velocity=60, time=0),
    Message('note_on', channel=0, note=58, velocity=0, time=59),
    Message('note_on', channel=0, note=49, velocity=0, time=0),
    Message('note_on', channel=0, note=61, velocity=0, time=0),
    Message('note_on', channel=0, note=54, velocity=0, time=0),
    Message('note_on', channel=0, note=42, velocity=0, time=0),
    Message('note_on', channel=0, note=66, velocity=0, time=0),
    Message('note_on', channel=0, note=58, velocity=60, time=1),
    Message('note_on', channel=0, note=66, velocity=60, time=0),
    Message('note_on', channel=0, note=61, velocity=60, time=0),
    Message('note_on', channel=0, note=49, velocity=60, time=0),
    Message('note_on', channel=0, note=42, velocity=60, time=0),
    Message('note_on', channel=0, note=54, velocity=60, time=0),
    Message('note_on', channel=0, note=58, velocity=0, time=59),
    Message('note_on', channel=0, note=66, velocity=0, time=0),
    Message('note_on', channel=0, note=61, velocity=0, time=0),
    Message('note_on', channel=0, note=49, velocity=0, time=0),
    Message('note_on', channel=0, note=42, velocity=0, time=0),
    Message('note_on', channel=0, note=54, velocity=0, time=0),
    Message('note_on', channel=0, note=66, velocity=60, time=1),
    Message('note_on', channel=0, note=49, velocity=60, time=0),
    Message('note_on', channel=0, note=42, velocity=60, time=0),
    Message('note_on', channel=0, note=58, velocity=60, time=0),
    Message('note_on', channel=0, note=54, velocity=60, time=0),
    Message('note_on', channel=0, note=61, velocity=60, time=0),
    Message('note_on', channel=0, note=66, velocity=0, time=59),
    Message('note_on', channel=0, note=49, velocity=0, time=0),
    Message('note_on', channel=0, note=42, velocity=0, time=0),
    Message('note_on', channel=0, note=58, velocity=0, time=0),
    Message('note_on', channel=0, note=54, velocity=0, time=0),
    Message('note_on', channel=0, note=61, velocity=0, time=0),
    Message('note_on', channel=0, note=62, velocity=60, time=1),
    Message('note_on', channel=0, note=59, velocity=60, time=0),
    Message('note_on', channel=0, note=42, velocity=60, time=0),
    Message('note_on', channel=0, note=47, velocity=60, time=0),
    Message('note_on', channel=0, note=66, velocity=60, time=0),
    Message('note_on', channel=0, note=54, velocity=60, time=0),
    Message('note_on', channel=0, note=62, velocity=0, time=29),
    Message('note_on', channel=0, note=59, velocity=0, time=0),
    Message('note_on', channel=0, note=42, velocity=0, time=0),
    Message('note_on', channel=0, note=47, velocity=0, time=0),
    Message('note_on', channel=0, note=66, velocity=0, time=0),
    Message('note_on', channel=0, note=54, velocity=0, time=0),
    Message('note_on', channel=0, note=59, velocity=60, time=1),
    Message('note_on', channel=0, note=42, velocity=60, time=0),
    Message('note_on', channel=0, note=62, velocity=60, time=0),
    Message('note_on', channel=0, note=54, velocity=60, time=0),
    Message('note_on', channel=0, note=47, velocity=60, time=0),
    Message('note_on', channel=0, note=66, velocity=60, time=0),
    Message('note_on', channel=0, note=59, velocity=0, time=59),
    Message('note_on', channel=0, note=42, velocity=0, time=0),
    Message('note_on', channel=0, note=62, velocity=0, time=0),
    Message('note_on', channel=0, note=54, velocity=0, time=0),
    Message('note_on', channel=0, note=47, velocity=0, time=0),
    Message('note_on', channel=0, note=66, velocity=0, time=0),
    Message('note_on', channel=0, note=47, velocity=60, time=1),
    Message('note_on', channel=0, note=42, velocity=60, time=0),
    Message('note_on', channel=0, note=54, velocity=60, time=0),
    Message('note_on', channel=0, note=59, velocity=60, time=0),
    Message('note_on', channel=0, note=66, velocity=60, time=0),
    Message('note_on', channel=0, note=62, velocity=60, time=0),
    Message('note_on', channel=0, note=47, velocity=0, time=29),
    Message('note_on', channel=0, note=42, velocity=0, time=0),
    Message('note_on', channel=0, note=54, velocity=0, time=0),
    Message('note_on', channel=0, note=59, velocity=0, time=0),
    Message('note_on', channel=0, note=66, velocity=0, time=0),
    Message('note_on', channel=0, note=62, velocity=0, time=0),
    Message('note_on', channel=0, note=59, velocity=60, time=1),
    Message('note_on', channel=0, note=47, velocity=60, time=0),
    Message('note_on', channel=0, note=66, velocity=60, time=0),
    Message('note_on', channel=0, note=54, velocity=60, time=0),
    Message('note_on', channel=0, note=42, velocity=60, time=0),
    Message('note_on', channel=0, note=62, velocity=60, time=0),
    Message('note_on', channel=0, note=59, velocity=0, time=59),
    Message('note_on', channel=0, note=47, velocity=0, time=0),
    Message('note_on', channel=0, note=66, velocity=0, time=0),
    Message('note_on', channel=0, note=54, velocity=0, time=0),
    Message('note_on', channel=0, note=42, velocity=0, time=0),
    Message('note_on', channel=0, note=62, velocity=0, time=0),
    Message('note_on', channel=0, note=42, velocity=60, time=1),
    Message('note_on', channel=0, note=59, velocity=60, time=0),
    Message('note_on', channel=0, note=66, velocity=60, time=0),
    Message('note_on', channel=0, note=54, velocity=60, time=0),
    Message('note_on', channel=0, note=62, velocity=60, time=0),
    Message('note_on', channel=0, note=47, velocity=60, time=0),
    Message('note_on', channel=0, note=42, velocity=0, time=29),
    Message('note_on', channel=0, note=59, velocity=0, time=0),
    Message('note_on', channel=0, note=66, velocity=0, time=0),
    Message('note_on', channel=0, note=54, velocity=0, time=0),
    Message('note_on', channel=0, note=62, velocity=0, time=0),
    Message('note_on', channel=0, note=47, velocity=0, time=0),
    Message('note_on', channel=0, note=62, velocity=60, time=1),
    Message('note_on', channel=0, note=47, velocity=60, time=0),
    Message('note_on', channel=0, note=66, velocity=60, time=0),
    Message('note_on', channel=0, note=42, velocity=60, time=0),
    Message('note_on', channel=0, note=59, velocity=60, time=0),
    Message('note_on', channel=0, note=54, velocity=60, time=0),
    Message('note_on', channel=0, note=62, velocity=0, time=59),
    Message('note_on', channel=0, note=47, velocity=0, time=0),
    Message('note_on', channel=0, note=66, velocity=0, time=0),
    Message('note_on', channel=0, note=42, velocity=0, time=0),
    Message('note_on', channel=0, note=59, velocity=0, time=0),
    Message('note_on', channel=0, note=54, velocity=0, time=0),
    Message('note_on', channel=0, note=66, velocity=60, time=1),
    Message('note_on', channel=0, note=59, velocity=60, time=0),
    Message('note_on', channel=0, note=42, velocity=60, time=0),
    Message('note_on', channel=0, note=62, velocity=60, time=0),
    Message('note_on', channel=0, note=54, velocity=60, time=0),
    Message('note_on', channel=0, note=47, velocity=60, time=0),
    Message('note_on', channel=0, note=66, velocity=0, time=29),
    Message('note_on', channel=0, note=59, velocity=0, time=0),
    Message('note_on', channel=0, note=42, velocity=0, time=0),
    Message('note_on', channel=0, note=62, velocity=0, time=0),
    Message('note_on', channel=0, note=54, velocity=0, time=0),
    Message('note_on', channel=0, note=47, velocity=0, time=0),
    Message('note_on', channel=0, note=59, velocity=60, time=1),
    Message('note_on', channel=0, note=42, velocity=60, time=0),
    Message('note_on', channel=0, note=54, velocity=60, time=0),
    Message('note_on', channel=0, note=66, velocity=60, time=0),
    Message('note_on', channel=0, note=62, velocity=60, time=0),
    Message('note_on', channel=0, note=47, velocity=60, time=0),
    Message('note_on', channel=0, note=59, velocity=0, time=59),
    Message('note_on', channel=0, note=42, velocity=0, time=0),
    Message('note_on', channel=0, note=54, velocity=0, time=0),
    Message('note_on', channel=0, note=66, velocity=0, time=0),
    Message('note_on', channel=0, note=62, velocity=0, time=0),
    Message('note_on', channel=0, note=47, velocity=0, time=0),
    Message('note_on', channel=0, note=59, velocity=60, time=1),
    Message('note_on', channel=0, note=62, velocity=60, time=0),
    Message('note_on', channel=0, note=47, velocity=60, time=0),
    Message('note_on', channel=0, note=66, velocity=60, time=0),
    Message('note_on', channel=0, note=42, velocity=60, time=0),
    Message('note_on', channel=0, note=54, velocity=60, time=0),
    Message('note_on', channel=0, note=59, velocity=0, time=59),
    Message('note_on', channel=0, note=62, velocity=0, time=0),
    Message('note_on', channel=0, note=47, velocity=0, time=0),
    Message('note_on', channel=0, note=66, velocity=0, time=0),
    Message('note_on', channel=0, note=42, velocity=0, time=0),
    Message('note_on', channel=0, note=54, velocity=0, time=0),
    Message('note_on', channel=0, note=47, velocity=60, time=1),
    Message('note_on', channel=0, note=42, velocity=60, time=0),
    Message('note_on', channel=0, note=59, velocity=60, time=0),
    Message('note_on', channel=0, note=66, velocity=60, time=0),
    Message('note_on', channel=0, note=54, velocity=60, time=0),
    Message('note_on', channel=0, note=62, velocity=60, time=0),
    Message('note_on', channel=0, note=47, velocity=0, time=59),
    Message('note_on', channel=0, note=42, velocity=0, time=0),
    Message('note_on', channel=0, note=59, velocity=0, time=0),
    Message('note_on', channel=0, note=66, velocity=0, time=0),
    Message('note_on', channel=0, note=54, velocity=0, time=0),
    Message('note_on', channel=0, note=62, velocity=0, time=0),
    Message('note_on', channel=0, note=61, velocity=60, time=1),
    Message('note_on', channel=0, note=58, velocity=60, time=0),
    Message('note_on', channel=0, note=54, velocity=60, time=0),
    Message('note_on', channel=0, note=42, velocity=60, time=0),
    Message('note_on', channel=0, note=49, velocity=60, time=0),
    Message('note_on', channel=0, note=66, velocity=60, time=0),
    Message('note_on', channel=0, note=61, velocity=0, time=29),
    Message('note_on', channel=0, note=58, velocity=0, time=0),
    Message('note_on', channel=0, note=54, velocity=0, time=0),
    Message('note_on', channel=0, note=42, velocity=0, time=0),
    Message('note_on', channel=0, note=49, velocity=0, time=0),
    Message('note_on', channel=0, note=66, velocity=0, time=0),
    Message('note_on', channel=0, note=58, velocity=60, time=1),
    Message('note_on', channel=0, note=42, velocity=60, time=0),
    Message('note_on', channel=0, note=49, velocity=60, time=0),
    Message('note_on', channel=0, note=61, velocity=60, time=0),
    Message('note_on', channel=0, note=54, velocity=60, time=0),
    Message('note_on', channel=0, note=66, velocity=60, time=0),
    Message('note_on', channel=0, note=58, velocity=0, time=59),
    Message('note_on', channel=0, note=42, velocity=0, time=0),
    Message('note_on', channel=0, note=49, velocity=0, time=0),
    Message('note_on', channel=0, note=61, velocity=0, time=0),
    Message('note_on', channel=0, note=54, velocity=0, time=0),
    Message('note_on', channel=0, note=66, velocity=0, time=0),
    Message('note_on', channel=0, note=66, velocity=60, time=1),
    Message('note_on', channel=0, note=58, velocity=60, time=0),
    Message('note_on', channel=0, note=49, velocity=60, time=0),
    Message('note_on', channel=0, note=54, velocity=60, time=0),
    Message('note_on', channel=0, note=42, velocity=60, time=0),
    Message('note_on', channel=0, note=61, velocity=60, time=0),
    Message('note_on', channel=0, note=66, velocity=0, time=29),
    Message('note_on', channel=0, note=58, velocity=0, time=0),
    Message('note_on', channel=0, note=49, velocity=0, time=0),
    Message('note_on', channel=0, note=54, velocity=0, time=0),
    Message('note_on', channel=0, note=42, velocity=0, time=0),
    Message('note_on', channel=0, note=61, velocity=0, time=0),
    Message('note_on', channel=0, note=42, velocity=60, time=1),
    Message('note_on', channel=0, note=61, velocity=60, time=0),
    Message('note_on', channel=0, note=54, velocity=60, time=0),
    Message('note_on', channel=0, note=49, velocity=60, time=0),
    Message('note_on', channel=0, note=58, velocity=60, time=0),
    Message('note_on', channel=0, note=66, velocity=60, time=0),
    Message('note_on', channel=0, note=42, velocity=0, time=59),
    Message('note_on', channel=0, note=61, velocity=0, time=0),
    Message('note_on', channel=0, note=54, velocity=0, time=0),
    Message('note_on', channel=0, note=49, velocity=0, time=0),
    Message('note_on', channel=0, note=58, velocity=0, time=0),
    Message('note_on', channel=0, note=66, velocity=0, time=0),
    Message('note_on', channel=0, note=42, velocity=60, time=1),
    Message('note_on', channel=0, note=54, velocity=60, time=0),
    Message('note_on', channel=0, note=58, velocity=60, time=0),
    Message('note_on', channel=0, note=49, velocity=60, time=0),
    Message('note_on', channel=0, note=66, velocity=60, time=0),
    Message('note_on', channel=0, note=61, velocity=60, time=0),
    Message('note_on', channel=0, note=42, velocity=0, time=29),
    Message('note_on', channel=0, note=54, velocity=0, time=0),
    Message('note_on', channel=0, note=58, velocity=0, time=0),
    Message('note_on', channel=0, note=49, velocity=0, time=0),
    Message('note_on', channel=0, note=66, velocity=0, time=0),
    Message('note_on', channel=0, note=61, velocity=0, time=0),
    Message('note_on', channel=0, note=66, velocity=60, time=1),
    Message('note_on', channel=0, note=61, velocity=60, time=0),
    Message('note_on', channel=0, note=58, velocity=60, time=0),
    Message('note_on', channel=0, note=49, velocity=60, time=0),
    Message('note_on', channel=0, note=42, velocity=60, time=0),
    Message('note_on', channel=0, note=54, velocity=60, time=0),
    Message('note_on', channel=0, note=66, velocity=0, time=59),
    Message('note_on', channel=0, note=61, velocity=0, time=0),
    Message('note_on', channel=0, note=58, velocity=0, time=0),
    Message('note_on', channel=0, note=49, velocity=0, time=0),
    Message('note_on', channel=0, note=42, velocity=0, time=0),
    Message('note_on', channel=0, note=54, velocity=0, time=0),
    Message('note_on', channel=0, note=54, velocity=60, time=1),
    Message('note_on', channel=0, note=49, velocity=60, time=0),
    Message('note_on', channel=0, note=61, velocity=60, time=0),
    Message('note_on', channel=0, note=66, velocity=60, time=0),
    Message('note_on', channel=0, note=42, velocity=60, time=0),
    Message('note_on', channel=0, note=58, velocity=60, time=0),
    Message('note_on', channel=0, note=54, velocity=0, time=29),
    Message('note_on', channel=0, note=49, velocity=0, time=0),
    Message('note_on', channel=0, note=61, velocity=0, time=0),
    Message('note_on', channel=0, note=66, velocity=0, time=0),
    Message('note_on', channel=0, note=42, velocity=0, time=0),
    Message('note_on', channel=0, note=58, velocity=0, time=0),
    Message('note_on', channel=0, note=58, velocity=60, time=1),
    Message('note_on', channel=0, note=49, velocity=60, time=0),
    Message('note_on', channel=0, note=61, velocity=60, time=0),
    Message('note_on', channel=0, note=54, velocity=60, time=0),
    Message('note_on', channel=0, note=42, velocity=60, time=0),
    Message('note_on', channel=0, note=66, velocity=60, time=0),
    Message('note_on', channel=0, note=58, velocity=0, time=59),
    Message('note_on', channel=0, note=49, velocity=0, time=0),
    Message('note_on', channel=0, note=61, velocity=0, time=0),
    Message('note_on', channel=0, note=54, velocity=0, time=0),
    Message('note_on', channel=0, note=42, velocity=0, time=0),
    Message('note_on', channel=0, note=66, velocity=0, time=0),
    Message('note_on', channel=0, note=58, velocity=60, time=1),
    Message('note_on', channel=0, note=66, velocity=60, time=0),
    Message('note_on', channel=0, note=61, velocity=60, time=0),
    Message('note_on', channel=0, note=49, velocity=60, time=0),
    Message('note_on', channel=0, note=42, velocity=60, time=0),
    Message('note_on', channel=0, note=54, velocity=60, time=0),
    Message('note_on', channel=0, note=58, velocity=0, time=59),
    Message('note_on', channel=0, note=66, velocity=0, time=0),
    Message('note_on', channel=0, note=61, velocity=0, time=0),
    Message('note_on', channel=0, note=49, velocity=0, time=0),
    Message('note_on', channel=0, note=42, velocity=0, time=0),
    Message('note_on', channel=0, note=54, velocity=0, time=0),
    Message('note_on', channel=0, note=66, velocity=60, time=1),
    Message('note_on', channel=0, note=49, velocity=60, time=0),
    Message('note_on', channel=0, note=42, velocity=60, time=0),
    Message('note_on', channel=0, note=58, velocity=60, time=0),
    Message('note_on', channel=0, note=54, velocity=60, time=0),
    Message('note_on', channel=0, note=61, velocity=60, time=0),
    Message('note_on', channel=0, note=66, velocity=0, time=59),
    Message('note_on', channel=0, note=49, velocity=0, time=0),
    Message('note_on', channel=0, note=42, velocity=0, time=0),
    Message('note_on', channel=0, note=58, velocity=0, time=0),
    Message('note_on', channel=0, note=54, velocity=0, time=0),
    Message('note_on', channel=0, note=61, velocity=0, time=0),
    Message('note_on', channel=0, note=61, velocity=60, time=1),
    Message('note_on', channel=0, note=57, velocity=60, time=0),
    Message('note_on', channel=0, note=40, velocity=60, time=0),
    Message('note_on', channel=0, note=45, velocity=60, time=0),
    Message('note_on', channel=0, note=64, velocity=60, time=0),
    Message('note_on', channel=0, note=52, velocity=60, time=0),
    Message('note_on', channel=0, note=61, velocity=0, time=29),
    Message('note_on', channel=0, note=57, velocity=0, time=0),
    Message('note_on', channel=0, note=40, velocity=0, time=0),
    Message('note_on', channel=0, note=45, velocity=0, time=0),
    Message('note_on', channel=0, note=64, velocity=0, time=0),
    Message('note_on', channel=0, note=52, velocity=0, time=0),
    Message('note_on', channel=0, note=57, velocity=60, time=1),
    Message('note_on', channel=0, note=40, velocity=60, time=0),
    Message('note_on', channel=0, note=61, velocity=60, time=0),
    Message('note_on', channel=0, note=52, velocity=60, time=0),
    Message('note_on', channel=0, note=45, velocity=60, time=0),
    Message('note_on', channel=0, note=64, velocity=60, time=0),
    Message('note_on', channel=0, note=57, velocity=0, time=59),
    Message('note_on', channel=0, note=40, velocity=0, time=0),
    Message('note_on', channel=0, note=61, velocity=0, time=0),
    Message('note_on', channel=0, note=52, velocity=0, time=0),
    Message('note_on', channel=0, note=45, velocity=0, time=0),
    Message('note_on', channel=0, note=64, velocity=0, time=0),
    Message('note_on', channel=0, note=45, velocity=60, time=1),
    Message('note_on', channel=0, note=40, velocity=60, time=0),
    Message('note_on', channel=0, note=52, velocity=60, time=0),
    Message('note_on', channel=0, note=57, velocity=60, time=0),
    Message('note_on', channel=0, note=64, velocity=60, time=0),
    Message('note_on', channel=0, note=61, velocity=60, time=0),
    Message('note_on', channel=0, note=45, velocity=0, time=29),
    Message('note_on', channel=0, note=40, velocity=0, time=0),
    Message('note_on', channel=0, note=52, velocity=0, time=0),
    Message('note_on', channel=0, note=57, velocity=0, time=0),
    Message('note_on', channel=0, note=64, velocity=0, time=0),
    Message('note_on', channel=0, note=61, velocity=0, time=0),
    Message('note_on', channel=0, note=57, velocity=60, time=1),
    Message('note_on', channel=0, note=45, velocity=60, time=0),
    Message('note_on', channel=0, note=64, velocity=60, time=0),
    Message('note_on', channel=0, note=52, velocity=60, time=0),
    Message('note_on', channel=0, note=40, velocity=60, time=0),
    Message('note_on', channel=0, note=61, velocity=60, time=0),
    Message('note_on', channel=0, note=57, velocity=0, time=59),
    Message('note_on', channel=0, note=45, velocity=0, time=0),
    Message('note_on', channel=0, note=64, velocity=0, time=0),
    Message('note_on', channel=0, note=52, velocity=0, time=0),
    Message('note_on', channel=0, note=40, velocity=0, time=0),
    Message('note_on', channel=0, note=61, velocity=0, time=0),
    Message('note_on', channel=0, note=40, velocity=60, time=1),
    Message('note_on', channel=0, note=57, velocity=60, time=0),
    Message('note_on', channel=0, note=64, velocity=60, time=0),
    Message('note_on', channel=0, note=52, velocity=60, time=0),
    Message('note_on', channel=0, note=61, velocity=60, time=0),
    Message('note_on', channel=0, note=45, velocity=60, time=0),
    Message('note_on', channel=0, note=40, velocity=0, time=29),
    Message('note_on', channel=0, note=57, velocity=0, time=0),
    Message('note_on', channel=0, note=64, velocity=0, time=0),
    Message('note_on', channel=0, note=52, velocity=0, time=0),
    Message('note_on', channel=0, note=61, velocity=0, time=0),
    Message('note_on', channel=0, note=45, velocity=0, time=0),
    Message('note_on', channel=0, note=61, velocity=60, time=1),
    Message('note_on', channel=0, note=45, velocity=60, time=0),
    Message('note_on', channel=0, note=64, velocity=60, time=0),
    Message('note_on', channel=0, note=40, velocity=60, time=0),
    Message('note_on', channel=0, note=57, velocity=60, time=0),
    Message('note_on', channel=0, note=52, velocity=60, time=0),
    Message('note_on', channel=0, note=61, velocity=0, time=59),
    Message('note_on', channel=0, note=45, velocity=0, time=0),
    Message('note_on', channel=0, note=64, velocity=0, time=0),
    Message('note_on', channel=0, note=40, velocity=0, time=0),
    Message('note_on', channel=0, note=57, velocity=0, time=0),
    Message('note_on', channel=0, note=52, velocity=0, time=0),
    Message('note_on', channel=0, note=64, velocity=60, time=1),
    Message('note_on', channel=0, note=57, velocity=60, time=0),
    Message('note_on', channel=0, note=40, velocity=60, time=0),
    Message('note_on', channel=0, note=61, velocity=60, time=0),
    Message('note_on', channel=0, note=52, velocity=60, time=0),
    Message('note_on', channel=0, note=45, velocity=60, time=0),
    Message('note_on', channel=0, note=64, velocity=0, time=29),
    Message('note_on', channel=0, note=57, velocity=0, time=0),
    Message('note_on', channel=0, note=40, velocity=0, time=0),
    Message('note_on', channel=0, note=61, velocity=0, time=0),
    Message('note_on', channel=0, note=52, velocity=0, time=0),
    Message('note_on', channel=0, note=45, velocity=0, time=0),
    Message('note_on', channel=0, note=57, velocity=60, time=1),
    Message('note_on', channel=0, note=40, velocity=60, time=0),
    Message('note_on', channel=0, note=52, velocity=60, time=0),
    Message('note_on', channel=0, note=64, velocity=60, time=0),
    Message('note_on', channel=0, note=61, velocity=60, time=0),
    Message('note_on', channel=0, note=45, velocity=60, time=0),
    Message('note_on', channel=0, note=57, velocity=0, time=59),
    Message('note_on', channel=0, note=40, velocity=0, time=0),
    Message('note_on', channel=0, note=52, velocity=0, time=0),
    Message('note_on', channel=0, note=64, velocity=0, time=0),
    Message('note_on', channel=0, note=61, velocity=0, time=0),
    Message('note_on', channel=0, note=45, velocity=0, time=0),
    Message('note_on', channel=0, note=57, velocity=60, time=1),
    Message('note_on', channel=0, note=61, velocity=60, time=0),
    Message('note_on', channel=0, note=45, velocity=60, time=0),
    Message('note_on', channel=0, note=64, velocity=60, time=0),
    Message('note_on', channel=0, note=40, velocity=60, time=0),
    Message('note_on', channel=0, note=52, velocity=60, time=0),
    Message('note_on', channel=0, note=57, velocity=0, time=59),
    Message('note_on', channel=0, note=61, velocity=0, time=0),
    Message('note_on', channel=0, note=45, velocity=0, time=0),
    Message('note_on', channel=0, note=64, velocity=0, time=0),
    Message('note_on', channel=0, note=40, velocity=0, time=0),
    Message('note_on', channel=0, note=52, velocity=0, time=0),
    Message('note_on', channel=0, note=45, velocity=60, time=1),
    Message('note_on', channel=0, note=40, velocity=60, time=0),
    Message('note_on', channel=0, note=57, velocity=60, time=0),
    Message('note_on', channel=0, note=64, velocity=60, time=0),
    Message('note_on', channel=0, note=52, velocity=60, time=0),
    Message('note_on', channel=0, note=61, velocity=60, time=0),
    Message('note_on', channel=0, note=45, velocity=0, time=59),
    Message('note_on', channel=0, note=40, velocity=0, time=0),
    Message('note_on', channel=0, note=57, velocity=0, time=0),
    Message('note_on', channel=0, note=64, velocity=0, time=0),
    Message('note_on', channel=0, note=52, velocity=0, time=0),
    Message('note_on', channel=0, note=61, velocity=0, time=0),
    Message('note_on', channel=0, note=59, velocity=60, time=1),
    Message('note_on', channel=0, note=56, velocity=60, time=0),
    Message('note_on', channel=0, note=52, velocity=60, time=0),
    Message('note_on', channel=0, note=40, velocity=60, time=0),
    Message('note_on', channel=0, note=47, velocity=60, time=0),
    Message('note_on', channel=0, note=64, velocity=60, time=0),
    Message('note_on', channel=0, note=59, velocity=0, time=29),
    Message('note_on', channel=0, note=56, velocity=0, time=0),
    Message('note_on', channel=0, note=52, velocity=0, time=0),
    Message('note_on', channel=0, note=40, velocity=0, time=0),
    Message('note_on', channel=0, note=47, velocity=0, time=0),
    Message('note_on', channel=0, note=64, velocity=0, time=0),
    Message('note_on', channel=0, note=56, velocity=60, time=1),
    Message('note_on', channel=0, note=40, velocity=60, time=0),
    Message('note_on', channel=0, note=47, velocity=60, time=0),
    Message('note_on', channel=0, note=59, velocity=60, time=0),
    Message('note_on', channel=0, note=52, velocity=60, time=0),
    Message('note_on', channel=0, note=64, velocity=60, time=0),
    Message('note_on', channel=0, note=56, velocity=0, time=59),
    Message('note_on', channel=0, note=40, velocity=0, time=0),
    Message('note_on', channel=0, note=47, velocity=0, time=0),
    Message('note_on', channel=0, note=59, velocity=0, time=0),
    Message('note_on', channel=0, note=52, velocity=0, time=0),
    Message('note_on', channel=0, note=64, velocity=0, time=0),
    Message('note_on', channel=0, note=64, velocity=60, time=1),
    Message('note_on', channel=0, note=56, velocity=60, time=0),
    Message('note_on', channel=0, note=47, velocity=60, time=0),
    Message('note_on', channel=0, note=52, velocity=60, time=0),
    Message('note_on', channel=0, note=40, velocity=60, time=0),
    Message('note_on', channel=0, note=59, velocity=60, time=0),
    Message('note_on', channel=0, note=64, velocity=0, time=29),
    Message('note_on', channel=0, note=56, velocity=0, time=0),
    Message('note_on', channel=0, note=47, velocity=0, time=0),
    Message('note_on', channel=0, note=52, velocity=0, time=0),
    Message('note_on', channel=0, note=40, velocity=0, time=0),
    Message('note_on', channel=0, note=59, velocity=0, time=0),
    Message('note_on', channel=0, note=40, velocity=60, time=1),
    Message('note_on', channel=0, note=59, velocity=60, time=0),
    Message('note_on', channel=0, note=52, velocity=60, time=0),
    Message('note_on', channel=0, note=47, velocity=60, time=0),
    Message('note_on', channel=0, note=56, velocity=60, time=0),
    Message('note_on', channel=0, note=64, velocity=60, time=0),
    Message('note_on', channel=0, note=40, velocity=0, time=59),
    Message('note_on', channel=0, note=59, velocity=0, time=0),
    Message('note_on', channel=0, note=52, velocity=0, time=0),
    Message('note_on', channel=0, note=47, velocity=0, time=0),
    Message('note_on', channel=0, note=56, velocity=0, time=0),
    Message('note_on', channel=0, note=64, velocity=0, time=0),
    Message('note_on', channel=0, note=40, velocity=60, time=1),
    Message('note_on', channel=0, note=52, velocity=60, time=0),
    Message('note_on', channel=0, note=56, velocity=60, time=0),
    Message('note_on', channel=0, note=47, velocity=60, time=0),
    Message('note_on', channel=0, note=64, velocity=60, time=0),
    Message('note_on', channel=0, note=59, velocity=60, time=0),
    Message('note_on', channel=0, note=40, velocity=0, time=29),
    Message('note_on', channel=0, note=52, velocity=0, time=0),
    Message('note_on', channel=0, note=56, velocity=0, time=0),
    Message('note_on', channel=0, note=47, velocity=0, time=0),
    Message('note_on', channel=0, note=64, velocity=0, time=0),
    Message('note_on', channel=0, note=59, velocity=0, time=0),
    Message('note_on', channel=0, note=64, velocity=60, time=1),
    Message('note_on', channel=0, note=59, velocity=60, time=0),
    Message('note_on', channel=0, note=56, velocity=60, time=0),
    Message('note_on', channel=0, note=47, velocity=60, time=0),
    Message('note_on', channel=0, note=40, velocity=60, time=0),
    Message('note_on', channel=0, note=52, velocity=60, time=0),
    Message('note_on', channel=0, note=64, velocity=0, time=59),
    Message('note_on', channel=0, note=59, velocity=0, time=0),
    Message('note_on', channel=0, note=56, velocity=0, time=0),
    Message('note_on', channel=0, note=47, velocity=0, time=0),
    Message('note_on', channel=0, note=40, velocity=0, time=0),
    Message('note_on', channel=0, note=52, velocity=0, time=0),
    Message('note_on', channel=0, note=52, velocity=60, time=1),
    Message('note_on', channel=0, note=47, velocity=60, time=0),
    Message('note_on', channel=0, note=59, velocity=60, time=0),
    Message('note_on', channel=0, note=64, velocity=60, time=0),
    Message('note_on', channel=0, note=40, velocity=60, time=0),
    Message('note_on', channel=0, note=56, velocity=60, time=0),
    Message('note_on', channel=0, note=52, velocity=0, time=29),
    Message('note_on', channel=0, note=47, velocity=0, time=0),
    Message('note_on', channel=0, note=59, velocity=0, time=0),
    Message('note_on', channel=0, note=64, velocity=0, time=0),
    Message('note_on', channel=0, note=40, velocity=0, time=0),
    Message('note_on', channel=0, note=56, velocity=0, time=0),
    Message('note_on', channel=0, note=56, velocity=60, time=1),
    Message('note_on', channel=0, note=47, velocity=60, time=0),
    Message('note_on', channel=0, note=59, velocity=60, time=0),
    Message('note_on', channel=0, note=52, velocity=60, time=0),
    Message('note_on', channel=0, note=40, velocity=60, time=0),
    Message('note_on', channel=0, note=64, velocity=60, time=0),
    Message('note_on', channel=0, note=56, velocity=0, time=59),
    Message('note_on', channel=0, note=47, velocity=0, time=0),
    Message('note_on', channel=0, note=59, velocity=0, time=0),
    Message('note_on', channel=0, note=52, velocity=0, time=0),
    Message('note_on', channel=0, note=40, velocity=0, time=0),
    Message('note_on', channel=0, note=64, velocity=0, time=0),
    Message('note_on', channel=0, note=56, velocity=60, time=1),
    Message('note_on', channel=0, note=64, velocity=60, time=0),
    Message('note_on', channel=0, note=59, velocity=60, time=0),
    Message('note_on', channel=0, note=47, velocity=60, time=0),
    Message('note_on', channel=0, note=40, velocity=60, time=0),
    Message('note_on', channel=0, note=52, velocity=60, time=0),
    Message('note_on', channel=0, note=56, velocity=0, time=59),
    Message('note_on', channel=0, note=64, velocity=0, time=0),
    Message('note_on', channel=0, note=59, velocity=0, time=0),
    Message('note_on', channel=0, note=47, velocity=0, time=0),
    Message('note_on', channel=0, note=40, velocity=0, time=0),
    Message('note_on', channel=0, note=52, velocity=0, time=0),
    Message('note_on', channel=0, note=64, velocity=60, time=1),
    Message('note_on', channel=0, note=47, velocity=60, time=0),
    Message('note_on', channel=0, note=40, velocity=60, time=0),
    Message('note_on', channel=0, note=56, velocity=60, time=0),
    Message('note_on', channel=0, note=52, velocity=60, time=0),
    Message('note_on', channel=0, note=59, velocity=60, time=0),
    Message('note_on', channel=0, note=64, velocity=0, time=59),
    Message('note_on', channel=0, note=47, velocity=0, time=0),
    Message('note_on', channel=0, note=40, velocity=0, time=0),
    Message('note_on', channel=0, note=56, velocity=0, time=0),
    Message('note_on', channel=0, note=52, velocity=0, time=0),
    Message('note_on', channel=0, note=59, velocity=0, time=0),
    Message('note_on', channel=0, note=62, velocity=60, time=1),
    Message('note_on', channel=0, note=59, velocity=60, time=0),
    Message('note_on', channel=0, note=43, velocity=60, time=0),
    Message('note_on', channel=0, note=47, velocity=60, time=0),
    Message('note_on', channel=0, note=67, velocity=60, time=0),
    Message('note_on', channel=0, note=55, velocity=60, time=0),
    Message('note_on', channel=0, note=62, velocity=0, time=29),
    Message('note_on', channel=0, note=59, velocity=0, time=0),
    Message('note_on', channel=0, note=43, velocity=0, time=0),
    Message('note_on', channel=0, note=47, velocity=0, time=0),
    Message('note_on', channel=0, note=67, velocity=0, time=0),
    Message('note_on', channel=0, note=55, velocity=0, time=0),
    Message('note_on', channel=0, note=59, velocity=60, time=1),
    Message('note_on', channel=0, note=43, velocity=60, time=0),
    Message('note_on', channel=0, note=62, velocity=60, time=0),
    Message('note_on', channel=0, note=55, velocity=60, time=0),
    Message('note_on', channel=0, note=47, velocity=60, time=0),
    Message('note_on', channel=0, note=67, velocity=60, time=0),
    Message('note_on', channel=0, note=59, velocity=0, time=59),
    Message('note_on', channel=0, note=43, velocity=0, time=0),
    Message('note_on', channel=0, note=62, velocity=0, time=0),
    Message('note_on', channel=0, note=55, velocity=0, time=0),
    Message('note_on', channel=0, note=47, velocity=0, time=0),
    Message('note_on', channel=0, note=67, velocity=0, time=0),
    Message('note_on', channel=0, note=47, velocity=60, time=1),
    Message('note_on', channel=0, note=43, velocity=60, time=0),
    Message('note_on', channel=0, note=55, velocity=60, time=0),
    Message('note_on', channel=0, note=59, velocity=60, time=0),
    Message('note_on', channel=0, note=67, velocity=60, time=0),
    Message('note_on', channel=0, note=62, velocity=60, time=0),
    Message('note_on', channel=0, note=47, velocity=0, time=29),
    Message('note_on', channel=0, note=43, velocity=0, time=0),
    Message('note_on', channel=0, note=55, velocity=0, time=0),
    Message('note_on', channel=0, note=59, velocity=0, time=0),
    Message('note_on', channel=0, note=67, velocity=0, time=0),
    Message('note_on', channel=0, note=62, velocity=0, time=0),
    Message('note_on', channel=0, note=59, velocity=60, time=1),
    Message('note_on', channel=0, note=47, velocity=60, time=0),
    Message('note_on', channel=0, note=67, velocity=60, time=0),
    Message('note_on', channel=0, note=55, velocity=60, time=0),
    Message('note_on', channel=0, note=43, velocity=60, time=0),
    Message('note_on', channel=0, note=62, velocity=60, time=0),
    Message('note_on', channel=0, note=59, velocity=0, time=59),
    Message('note_on', channel=0, note=47, velocity=0, time=0),
    Message('note_on', channel=0, note=67, velocity=0, time=0),
    Message('note_on', channel=0, note=55, velocity=0, time=0),
    Message('note_on', channel=0, note=43, velocity=0, time=0),
    Message('note_on', channel=0, note=62, velocity=0, time=0),
    Message('note_on', channel=0, note=43, velocity=60, time=1),
    Message('note_on', channel=0, note=59, velocity=60, time=0),
    Message('note_on', channel=0, note=67, velocity=60, time=0),
    Message('note_on', channel=0, note=55, velocity=60, time=0),
    Message('note_on', channel=0, note=62, velocity=60, time=0),
    Message('note_on', channel=0, note=47, velocity=60, time=0),
    Message('note_on', channel=0, note=43, velocity=0, time=29),
    Message('note_on', channel=0, note=59, velocity=0, time=0),
    Message('note_on', channel=0, note=67, velocity=0, time=0),
    Message('note_on', channel=0, note=55, velocity=0, time=0),
    Message('note_on', channel=0, note=62, velocity=0, time=0),
    Message('note_on', channel=0, note=47, velocity=0, time=0),
    Message('note_on', channel=0, note=62, velocity=60, time=1),
    Message('note_on', channel=0, note=47, velocity=60, time=0),
    Message('note_on', channel=0, note=67, velocity=60, time=0),
    Message('note_on', channel=0, note=43, velocity=60, time=0),
    Message('note_on', channel=0, note=59, velocity=60, time=0),
    Message('note_on', channel=0, note=55, velocity=60, time=0),
    Message('note_on', channel=0, note=62, velocity=0, time=59),
    Message('note_on', channel=0, note=47, velocity=0, time=0),
    Message('note_on', channel=0, note=67, velocity=0, time=0),
    Message('note_on', channel=0, note=43, velocity=0, time=0),
    Message('note_on', channel=0, note=59, velocity=0, time=0),
    Message('note_on', channel=0, note=55, velocity=0, time=0),
    Message('note_on', channel=0, note=67, velocity=60, time=1),
    Message('note_on', channel=0, note=59, velocity=60, time=0),
    Message('note_on', channel=0, note=43, velocity=60, time=0),
    Message('note_on', channel=0, note=62, velocity=60, time=0),
    Message('note_on', channel=0, note=55, velocity=60, time=0),
    Message('note_on', channel=0, note=47, velocity=60, time=0),
    Message('note_on', channel=0, note=67, velocity=0, time=29),
    Message('note_on', channel=0, note=59, velocity=0, time=0),
    Message('note_on', channel=0, note=43, velocity=0, time=0),
    Message('note_on', channel=0, note=62, velocity=0, time=0),
    Message('note_on', channel=0, note=55, velocity=0, time=0),
    Message('note_on', channel=0, note=47, velocity=0, time=0),
    Message('note_on', channel=0, note=59, velocity=60, time=1),
    Message('note_on', channel=0, note=43, velocity=60, time=0),
    Message('note_on', channel=0, note=55, velocity=60, time=0),
    Message('note_on', channel=0, note=67, velocity=60, time=0),
    Message('note_on', channel=0, note=62, velocity=60, time=0),
    Message('note_on', channel=0, note=47, velocity=60, time=0),
    Message('note_on', channel=0, note=59, velocity=0, time=59),
    Message('note_on', channel=0, note=43, velocity=0, time=0),
    Message('note_on', channel=0, note=55, velocity=0, time=0),
    Message('note_on', channel=0, note=67, velocity=0, time=0),
    Message('note_on', channel=0, note=62, velocity=0, time=0),
    Message('note_on', channel=0, note=47, velocity=0, time=0),
    Message('note_on', channel=0, note=59, velocity=60, time=1),
    Message('note_on', channel=0, note=62, velocity=60, time=0),
    Message('note_on', channel=0, note=47, velocity=60, time=0),
    Message('note_on', channel=0, note=67, velocity=60, time=0),
    Message('note_on', channel=0, note=43, velocity=60, time=0),
    Message('note_on', channel=0, note=55, velocity=60, time=0),
    Message('note_on', channel=0, note=59, velocity=0, time=59),
    Message('note_on', channel=0, note=62, velocity=0, time=0),
    Message('note_on', channel=0, note=47, velocity=0, time=0),
    Message('note_on', channel=0, note=67, velocity=0, time=0),
    Message('note_on', channel=0, note=43, velocity=0, time=0),
    Message('note_on', channel=0, note=55, velocity=0, time=0),
    Message('note_on', channel=0, note=47, velocity=60, time=1),
    Message('note_on', channel=0, note=43, velocity=60, time=0),
    Message('note_on', channel=0, note=59, velocity=60, time=0),
    Message('note_on', channel=0, note=67, velocity=60, time=0),
    Message('note_on', channel=0, note=55, velocity=60, time=0),
    Message('note_on', channel=0, note=62, velocity=60, time=0),
    Message('note_on', channel=0, note=47, velocity=0, time=59),
    Message('note_on', channel=0, note=43, velocity=0, time=0),
    Message('note_on', channel=0, note=59, velocity=0, time=0),
    Message('note_on', channel=0, note=67, velocity=0, time=0),
    Message('note_on', channel=0, note=55, velocity=0, time=0),
    Message('note_on', channel=0, note=62, velocity=0, time=0),
    Message('note_on', channel=0, note=66, velocity=60, time=1),
    Message('note_on', channel=0, note=62, velocity=60, time=0),
    Message('note_on', channel=0, note=57, velocity=60, time=0),
    Message('note_on', channel=0, note=45, velocity=60, time=0),
    Message('note_on', channel=0, note=50, velocity=60, time=0),
    Message('note_on', channel=0, note=69, velocity=60, time=0),
    Message('note_on', channel=0, note=66, velocity=0, time=29),
    Message('note_on', channel=0, note=62, velocity=0, time=0),
    Message('note_on', channel=0, note=57, velocity=0, time=0),
    Message('note_on', channel=0, note=45, velocity=0, time=0),
    Message('note_on', channel=0, note=50, velocity=0, time=0),
    Message('note_on', channel=0, note=69, velocity=0, time=0),
    Message('note_on', channel=0, note=62, velocity=60, time=1),
    Message('note_on', channel=0, note=45, velocity=60, time=0),
    Message('note_on', channel=0, note=50, velocity=60, time=0),
    Message('note_on', channel=0, note=66, velocity=60, time=0),
    Message('note_on', channel=0, note=57, velocity=60, time=0),
    Message('note_on', channel=0, note=69, velocity=60, time=0),
    Message('note_on', channel=0, note=62, velocity=0, time=59),
    Message('note_on', channel=0, note=45, velocity=0, time=0),
    Message('note_on', channel=0, note=50, velocity=0, time=0),
    Message('note_on', channel=0, note=66, velocity=0, time=0),
    Message('note_on', channel=0, note=57, velocity=0, time=0),
    Message('note_on', channel=0, note=69, velocity=0, time=0),
    Message('note_on', channel=0, note=69, velocity=60, time=1),
    Message('note_on', channel=0, note=62, velocity=60, time=0),
    Message('note_on', channel=0, note=50, velocity=60, time=0),
    Message('note_on', channel=0, note=57, velocity=60, time=0),
    Message('note_on', channel=0, note=45, velocity=60, time=0),
    Message('note_on', channel=0, note=66, velocity=60, time=0),
    Message('note_on', channel=0, note=69, velocity=0, time=29),
    Message('note_on', channel=0, note=62, velocity=0, time=0),
    Message('note_on', channel=0, note=50, velocity=0, time=0),
    Message('note_on', channel=0, note=57, velocity=0, time=0),
    Message('note_on', channel=0, note=45, velocity=0, time=0),
    Message('note_on', channel=0, note=66, velocity=0, time=0),
    Message('note_on', channel=0, note=45, velocity=60, time=1),
    Message('note_on', channel=0, note=66, velocity=60, time=0),
    Message('note_on', channel=0, note=57, velocity=60, time=0),
    Message('note_on', channel=0, note=50, velocity=60, time=0),
    Message('note_on', channel=0, note=62, velocity=60, time=0),
    Message('note_on', channel=0, note=69, velocity=60, time=0),
    Message('note_on', channel=0, note=45, velocity=0, time=59),
    Message('note_on', channel=0, note=66, velocity=0, time=0),
    Message('note_on', channel=0, note=57, velocity=0, time=0),
    Message('note_on', channel=0, note=50, velocity=0, time=0),
    Message('note_on', channel=0, note=62, velocity=0, time=0),
    Message('note_on', channel=0, note=69, velocity=0, time=0),
    Message('note_on', channel=0, note=45, velocity=60, time=1),
    Message('note_on', channel=0, note=57, velocity=60, time=0),
    Message('note_on', channel=0, note=62, velocity=60, time=0),
    Message('note_on', channel=0, note=50, velocity=60, time=0),
    Message('note_on', channel=0, note=69, velocity=60, time=0),
    Message('note_on', channel=0, note=66, velocity=60, time=0),
    Message('note_on', channel=0, note=45, velocity=0, time=29),
    Message('note_on', channel=0, note=57, velocity=0, time=0),
    Message('note_on', channel=0, note=62, velocity=0, time=0),
    Message('note_on', channel=0, note=50, velocity=0, time=0),
    Message('note_on', channel=0, note=69, velocity=0, time=0),
    Message('note_on', channel=0, note=66, velocity=0, time=0),
    Message('note_on', channel=0, note=69, velocity=60, time=1),
    Message('note_on', channel=0, note=66, velocity=60, time=0),
    Message('note_on', channel=0, note=62, velocity=60, time=0),
    Message('note_on', channel=0, note=50, velocity=60, time=0),
    Message('note_on', channel=0, note=45, velocity=60, time=0),
    Message('note_on', channel=0, note=57, velocity=60, time=0),
    Message('note_on', channel=0, note=69, velocity=0, time=59),
    Message('note_on', channel=0, note=66, velocity=0, time=0),
    Message('note_on', channel=0, note=62, velocity=0, time=0),
    Message('note_on', channel=0, note=50, velocity=0, time=0),
    Message('note_on', channel=0, note=45, velocity=0, time=0),
    Message('note_on', channel=0, note=57, velocity=0, time=0),
    Message('note_on', channel=0, note=57, velocity=60, time=1),
    Message('note_on', channel=0, note=50, velocity=60, time=0),
    Message('note_on', channel=0, note=66, velocity=60, time=0),
    Message('note_on', channel=0, note=69, velocity=60, time=0),
    Message('note_on', channel=0, note=45, velocity=60, time=0),
    Message('note_on', channel=0, note=62, velocity=60, time=0),
    Message('note_on', channel=0, note=57, velocity=0, time=29),
    Message('note_on', channel=0, note=50, velocity=0, time=0),
    Message('note_on', channel=0, note=66, velocity=0, time=0),
    Message('note_on', channel=0, note=69, velocity=0, time=0),
    Message('note_on', channel=0, note=45, velocity=0, time=0),
    Message('note_on', channel=0, note=62, velocity=0, time=0),
    Message('note_on', channel=0, note=62, velocity=60, time=1),
    Message('note_on', channel=0, note=50, velocity=60, time=0),
    Message('note_on', channel=0, note=66, velocity=60, time=0),
    Message('note_on', channel=0, note=57, velocity=60, time=0),
    Message('note_on', channel=0, note=45, velocity=60, time=0),
    Message('note_on', channel=0, note=69, velocity=60, time=0),
    Message('note_on', channel=0, note=62, velocity=0, time=59),
    Message('note_on', channel=0, note=50, velocity=0, time=0),
    Message('note_on', channel=0, note=66, velocity=0, time=0),
    Message('note_on', channel=0, note=57, velocity=0, time=0),
    Message('note_on', channel=0, note=45, velocity=0, time=0),
    Message('note_on', channel=0, note=69, velocity=0, time=0),
    Message('note_on', channel=0, note=62, velocity=60, time=1),
    Message('note_on', channel=0, note=69, velocity=60, time=0),
    Message('note_on', channel=0, note=66, velocity=60, time=0),
    Message('note_on', channel=0, note=50, velocity=60, time=0),
    Message('note_on', channel=0, note=45, velocity=60, time=0),
    Message('note_on', channel=0, note=57, velocity=60, time=0),
    Message('note_on', channel=0, note=62, velocity=0, time=59),
    Message('note_on', channel=0, note=69, velocity=0, time=0),
    Message('note_on', channel=0, note=66, velocity=0, time=0),
    Message('note_on', channel=0, note=50, velocity=0, time=0),
    Message('note_on', channel=0, note=45, velocity=0, time=0),
    Message('note_on', channel=0, note=57, velocity=0, time=0),
    Message('note_on', channel=0, note=69, velocity=60, time=1),
    Message('note_on', channel=0, note=50, velocity=60, time=0),
    Message('note_on', channel=0, note=45, velocity=60, time=0),
    Message('note_on', channel=0, note=62, velocity=60, time=0),
    Message('note_on', channel=0, note=57, velocity=60, time=0),
    Message('note_on', channel=0, note=66, velocity=60, time=0),
    Message('note_on', channel=0, note=69, velocity=0, time=59),
    Message('note_on', channel=0, note=50, velocity=0, time=0),
    Message('note_on', channel=0, note=45, velocity=0, time=0),
    Message('note_on', channel=0, note=62, velocity=0, time=0),
    Message('note_on', channel=0, note=57, velocity=0, time=0),
    Message('note_on', channel=0, note=66, velocity=0, time=0),
    Message('note_on', channel=0, note=59, velocity=60, time=1),
    Message('note_on', channel=0, note=55, velocity=60, time=0),
    Message('note_on', channel=0, note=40, velocity=60, time=0),
    Message('note_on', channel=0, note=45, velocity=60, time=0),
    Message('note_on', channel=0, note=64, velocity=60, time=0),
    Message('note_on', channel=0, note=52, velocity=60, time=0),
    Message('note_on', channel=0, note=59, velocity=0, time=29),
    Message('note_on', channel=0, note=55, velocity=0, time=0),
    Message('note_on', channel=0, note=40, velocity=0, time=0),
    Message('note_on', channel=0, note=45, velocity=0, time=0),
    Message('note_on', channel=0, note=64, velocity=0, time=0),
    Message('note_on', channel=0, note=52, velocity=0, time=0),
    Message('note_on', channel=0, note=55, velocity=60, time=1),
    Message('note_on', channel=0, note=40, velocity=60, time=0),
    Message('note_on', channel=0, note=59, velocity=60, time=0),
    Message('note_on', channel=0, note=52, velocity=60, time=0),
    Message('note_on', channel=0, note=45, velocity=60, time=0),
    Message('note_on', channel=0, note=64, velocity=60, time=0),
    Message('note_on', channel=0, note=55, velocity=0, time=59),
    Message('note_on', channel=0, note=40, velocity=0, time=0),
    Message('note_on', channel=0, note=59, velocity=0, time=0),
    Message('note_on', channel=0, note=52, velocity=0, time=0),
    Message('note_on', channel=0, note=45, velocity=0, time=0),
    Message('note_on', channel=0, note=64, velocity=0, time=0),
    Message('note_on', channel=0, note=45, velocity=60, time=1),
    Message('note_on', channel=0, note=40, velocity=60, time=0),
    Message('note_on', channel=0, note=52, velocity=60, time=0),
    Message('note_on', channel=0, note=55, velocity=60, time=0),
    Message('note_on', channel=0, note=64, velocity=60, time=0),
    Message('note_on', channel=0, note=59, velocity=60, time=0),
    Message('note_on', channel=0, note=45, velocity=0, time=29),
    Message('note_on', channel=0, note=40, velocity=0, time=0),
    Message('note_on', channel=0, note=52, velocity=0, time=0),
    Message('note_on', channel=0, note=55, velocity=0, time=0),
    Message('note_on', channel=0, note=64, velocity=0, time=0),
    Message('note_on', channel=0, note=59, velocity=0, time=0),
    Message('note_on', channel=0, note=55, velocity=60, time=1),
    Message('note_on', channel=0, note=45, velocity=60, time=0),
    Message('note_on', channel=0, note=64, velocity=60, time=0),
    Message('note_on', channel=0, note=52, velocity=60, time=0),
    Message('note_on', channel=0, note=40, velocity=60, time=0),
    Message('note_on', channel=0, note=59, velocity=60, time=0),
    Message('note_on', channel=0, note=55, velocity=0, time=59),
    Message('note_on', channel=0, note=45, velocity=0, time=0),
    Message('note_on', channel=0, note=64, velocity=0, time=0),
    Message('note_on', channel=0, note=52, velocity=0, time=0),
    Message('note_on', channel=0, note=40, velocity=0, time=0),
    Message('note_on', channel=0, note=59, velocity=0, time=0),
    Message('note_on', channel=0, note=40, velocity=60, time=1),
    Message('note_on', channel=0, note=55, velocity=60, time=0),
    Message('note_on', channel=0, note=64, velocity=60, time=0),
    Message('note_on', channel=0, note=52, velocity=60, time=0),
    Message('note_on', channel=0, note=59, velocity=60, time=0),
    Message('note_on', channel=0, note=45, velocity=60, time=0),
    Message('note_on', channel=0, note=40, velocity=0, time=29),
    Message('note_on', channel=0, note=55, velocity=0, time=0),
    Message('note_on', channel=0, note=64, velocity=0, time=0),
    Message('note_on', channel=0, note=52, velocity=0, time=0),
    Message('note_on', channel=0, note=59, velocity=0, time=0),
    Message('note_on', channel=0, note=45, velocity=0, time=0),
    Message('note_on', channel=0, note=59, velocity=60, time=1),
    Message('note_on', channel=0, note=45, velocity=60, time=0),
    Message('note_on', channel=0, note=64, velocity=60, time=0),
    Message('note_on', channel=0, note=40, velocity=60, time=0),
    Message('note_on', channel=0, note=55, velocity=60, time=0),
    Message('note_on', channel=0, note=52, velocity=60, time=0),
    Message('note_on', channel=0, note=59, velocity=0, time=59),
    Message('note_on', channel=0, note=45, velocity=0, time=0),
    Message('note_on', channel=0, note=64, velocity=0, time=0),
    Message('note_on', channel=0, note=40, velocity=0, time=0),
    Message('note_on', channel=0, note=55, velocity=0, time=0),
    Message('note_on', channel=0, note=52, velocity=0, time=0),
    Message('note_on', channel=0, note=64, velocity=60, time=1),
    Message('note_on', channel=0, note=55, velocity=60, time=0),
    Message('note_on', channel=0, note=40, velocity=60, time=0),
    Message('note_on', channel=0, note=59, velocity=60, time=0),
    Message('note_on', channel=0, note=52, velocity=60, time=0),
    Message('note_on', channel=0, note=45, velocity=60, time=0),
    Message('note_on', channel=0, note=64, velocity=0, time=29),
    Message('note_on', channel=0, note=55, velocity=0, time=0),
    Message('note_on', channel=0, note=40, velocity=0, time=0),
    Message('note_on', channel=0, note=59, velocity=0, time=0),
    Message('note_on', channel=0, note=52, velocity=0, time=0),
    Message('note_on', channel=0, note=45, velocity=0, time=0),
    Message('note_on', channel=0, note=55, velocity=60, time=1),
    Message('note_on', channel=0, note=40, velocity=60, time=0),
    Message('note_on', channel=0, note=52, velocity=60, time=0),
    Message('note_on', channel=0, note=64, velocity=60, time=0),
    Message('note_on', channel=0, note=59, velocity=60, time=0),
    Message('note_on', channel=0, note=45, velocity=60, time=0),
    Message('note_on', channel=0, note=55, velocity=0, time=59),
    Message('note_on', channel=0, note=40, velocity=0, time=0),
    Message('note_on', channel=0, note=52, velocity=0, time=0),
    Message('note_on', channel=0, note=64, velocity=0, time=0),
    Message('note_on', channel=0, note=59, velocity=0, time=0),
    Message('note_on', channel=0, note=45, velocity=0, time=0),
    Message('note_on', channel=0, note=55, velocity=60, time=1),
    Message('note_on', channel=0, note=59, velocity=60, time=0),
    Message('note_on', channel=0, note=45, velocity=60, time=0),
    Message('note_on', channel=0, note=64, velocity=60, time=0),
    Message('note_on', channel=0, note=40, velocity=60, time=0),
    Message('note_on', channel=0, note=52, velocity=60, time=0),
    Message('note_on', channel=0, note=55, velocity=0, time=59),
    Message('note_on', channel=0, note=59, velocity=0, time=0),
    Message('note_on', channel=0, note=45, velocity=0, time=0),
    Message('note_on', channel=0, note=64, velocity=0, time=0),
    Message('note_on', channel=0, note=40, velocity=0, time=0),
    Message('note_on', channel=0, note=52, velocity=0, time=0),
    Message('note_on', channel=0, note=45, velocity=60, time=1),
    Message('note_on', channel=0, note=40, velocity=60, time=0),
    Message('note_on', channel=0, note=55, velocity=60, time=0),
    Message('note_on', channel=0, note=64, velocity=60, time=0),
    Message('note_on', channel=0, note=52, velocity=60, time=0),
    Message('note_on', channel=0, note=59, velocity=60, time=0),
    Message('note_on', channel=0, note=45, velocity=0, time=59),
    Message('note_on', channel=0, note=40, velocity=0, time=0),
    Message('note_on', channel=0, note=55, velocity=0, time=0),
    Message('note_on', channel=0, note=64, velocity=0, time=0),
    Message('note_on', channel=0, note=52, velocity=0, time=0),
    Message('note_on', channel=0, note=59, velocity=0, time=0),
    Message('note_on', channel=0, note=61, velocity=60, time=1),
    Message('note_on', channel=0, note=58, velocity=60, time=0),
    Message('note_on', channel=0, note=54, velocity=60, time=0),
    Message('note_on', channel=0, note=42, velocity=60, time=0),
    Message('note_on', channel=0, note=49, velocity=60, time=0),
    Message('note_on', channel=0, note=66, velocity=60, time=0),
    Message('note_on', channel=0, note=61, velocity=0, time=29),
    Message('note_on', channel=0, note=58, velocity=0, time=0),
    Message('note_on', channel=0, note=54, velocity=0, time=0),
    Message('note_on', channel=0, note=42, velocity=0, time=0),
    Message('note_on', channel=0, note=49, velocity=0, time=0),
    Message('note_on', channel=0, note=66, velocity=0, time=0),
    Message('note_on', channel=0, note=58, velocity=60, time=1),
    Message('note_on', channel=0, note=42, velocity=60, time=0),
    Message('note_on', channel=0, note=49, velocity=60, time=0),
    Message('note_on', channel=0, note=61, velocity=60, time=0),
    Message('note_on', channel=0, note=54, velocity=60, time=0),
    Message('note_on', channel=0, note=66, velocity=60, time=0),
    Message('note_on', channel=0, note=58, velocity=0, time=59),
    Message('note_on', channel=0, note=42, velocity=0, time=0),
    Message('note_on', channel=0, note=49, velocity=0, time=0),
    Message('note_on', channel=0, note=61, velocity=0, time=0),
    Message('note_on', channel=0, note=54, velocity=0, time=0),
    Message('note_on', channel=0, note=66, velocity=0, time=0),
    Message('note_on', channel=0, note=66, velocity=60, time=1),
    Message('note_on', channel=0, note=58, velocity=60, time=0),
    Message('note_on', channel=0, note=49, velocity=60, time=0),
    Message('note_on', channel=0, note=54, velocity=60, time=0),
    Message('note_on', channel=0, note=42, velocity=60, time=0),
    Message('note_on', channel=0, note=61, velocity=60, time=0),
    Message('note_on', channel=0, note=66, velocity=0, time=29),
    Message('note_on', channel=0, note=58, velocity=0, time=0),
    Message('note_on', channel=0, note=49, velocity=0, time=0),
    Message('note_on', channel=0, note=54, velocity=0, time=0),
    Message('note_on', channel=0, note=42, velocity=0, time=0),
    Message('note_on', channel=0, note=61, velocity=0, time=0),
    Message('note_on', channel=0, note=42, velocity=60, time=1),
    Message('note_on', channel=0, note=61, velocity=60, time=0),
    Message('note_on', channel=0, note=54, velocity=60, time=0),
    Message('note_on', channel=0, note=49, velocity=60, time=0),
    Message('note_on', channel=0, note=58, velocity=60, time=0),
    Message('note_on', channel=0, note=66, velocity=60, time=0),
    Message('note_on', channel=0, note=42, velocity=0, time=59),
    Message('note_on', channel=0, note=61, velocity=0, time=0),
    Message('note_on', channel=0, note=54, velocity=0, time=0),
    Message('note_on', channel=0, note=49, velocity=0, time=0),
    Message('note_on', channel=0, note=58, velocity=0, time=0),
    Message('note_on', channel=0, note=66, velocity=0, time=0),
    Message('note_on', channel=0, note=42, velocity=60, time=1),
    Message('note_on', channel=0, note=54, velocity=60, time=0),
    Message('note_on', channel=0, note=58, velocity=60, time=0),
    Message('note_on', channel=0, note=49, velocity=60, time=0),
    Message('note_on', channel=0, note=66, velocity=60, time=0),
    Message('note_on', channel=0, note=61, velocity=60, time=0),
    Message('note_on', channel=0, note=42, velocity=0, time=29),
    Message('note_on', channel=0, note=54, velocity=0, time=0),
    Message('note_on', channel=0, note=58, velocity=0, time=0),
    Message('note_on', channel=0, note=49, velocity=0, time=0),
    Message('note_on', channel=0, note=66, velocity=0, time=0),
    Message('note_on', channel=0, note=61, velocity=0, time=0),
    Message('note_on', channel=0, note=66, velocity=60, time=1),
    Message('note_on', channel=0, note=61, velocity=60, time=0),
    Message('note_on', channel=0, note=58, velocity=60, time=0),
    Message('note_on', channel=0, note=49, velocity=60, time=0),
    Message('note_on', channel=0, note=42, velocity=60, time=0),
    Message('note_on', channel=0, note=54, velocity=60, time=0),
    Message('note_on', channel=0, note=66, velocity=0, time=59),
    Message('note_on', channel=0, note=61, velocity=0, time=0),
    Message('note_on', channel=0, note=58, velocity=0, time=0),
    Message('note_on', channel=0, note=49, velocity=0, time=0),
    Message('note_on', channel=0, note=42, velocity=0, time=0),
    Message('note_on', channel=0, note=54, velocity=0, time=0),
    Message('note_on', channel=0, note=54, velocity=60, time=1),
    Message('note_on', channel=0, note=49, velocity=60, time=0),
    Message('note_on', channel=0, note=61, velocity=60, time=0),
    Message('note_on', channel=0, note=66, velocity=60, time=0),
    Message('note_on', channel=0, note=42, velocity=60, time=0),
    Message('note_on', channel=0, note=58, velocity=60, time=0),
    Message('note_on', channel=0, note=54, velocity=0, time=29),
    Message('note_on', channel=0, note=49, velocity=0, time=0),
    Message('note_on', channel=0, note=61, velocity=0, time=0),
    Message('note_on', channel=0, note=66, velocity=0, time=0),
    Message('note_on', channel=0, note=42, velocity=0, time=0),
    Message('note_on', channel=0, note=58, velocity=0, time=0),
    Message('note_on', channel=0, note=58, velocity=60, time=1),
    Message('note_on', channel=0, note=49, velocity=60, time=0),
    Message('note_on', channel=0, note=61, velocity=60, time=0),
    Message('note_on', channel=0, note=54, velocity=60, time=0),
    Message('note_on', channel=0, note=42, velocity=60, time=0),
    Message('note_on', channel=0, note=66, velocity=60, time=0),
    Message('note_on', channel=0, note=58, velocity=0, time=59),
    Message('note_on', channel=0, note=49, velocity=0, time=0),
    Message('note_on', channel=0, note=61, velocity=0, time=0),
    Message('note_on', channel=0, note=54, velocity=0, time=0),
    Message('note_on', channel=0, note=42, velocity=0, time=0),
    Message('note_on', channel=0, note=66, velocity=0, time=0),
    Message('note_on', channel=0, note=58, velocity=60, time=1),
    Message('note_on', channel=0, note=66, velocity=60, time=0),
    Message('note_on', channel=0, note=61, velocity=60, time=0),
    Message('note_on', channel=0, note=49, velocity=60, time=0),
    Message('note_on', channel=0, note=42, velocity=60, time=0),
    Message('note_on', channel=0, note=54, velocity=60, time=0),
    Message('note_on', channel=0, note=58, velocity=0, time=59),
    Message('note_on', channel=0, note=66, velocity=0, time=0),
    Message('note_on', channel=0, note=61, velocity=0, time=0),
    Message('note_on', channel=0, note=49, velocity=0, time=0),
    Message('note_on', channel=0, note=42, velocity=0, time=0),
    Message('note_on', channel=0, note=54, velocity=0, time=0),
    Message('note_on', channel=0, note=66, velocity=60, time=1),
    Message('note_on', channel=0, note=49, velocity=60, time=0),
    Message('note_on', channel=0, note=42, velocity=60, time=0),
    Message('note_on', channel=0, note=58, velocity=60, time=0),
    Message('note_on', channel=0, note=54, velocity=60, time=0),
    Message('note_on', channel=0, note=61, velocity=60, time=0),
    Message('note_on', channel=0, note=66, velocity=0, time=59),
    Message('note_on', channel=0, note=49, velocity=0, time=0),
    Message('note_on', channel=0, note=42, velocity=0, time=0),
    Message('note_on', channel=0, note=58, velocity=0, time=0),
    Message('note_on', channel=0, note=54, velocity=0, time=0),
    Message('note_on', channel=0, note=61, velocity=0, time=0),
    Message('note_on', channel=0, note=62, velocity=60, time=1),
    Message('note_on', channel=0, note=59, velocity=60, time=0),
    Message('note_on', channel=0, note=42, velocity=60, time=0),
    Message('note_on', channel=0, note=47, velocity=60, time=0),
    Message('note_on', channel=0, note=66, velocity=60, time=0),
    Message('note_on', channel=0, note=54, velocity=60, time=0),
    Message('note_on', channel=0, note=62, velocity=0, time=29),
    Message('note_on', channel=0, note=59, velocity=0, time=0),
    Message('note_on', channel=0, note=42, velocity=0, time=0),
    Message('note_on', channel=0, note=47, velocity=0, time=0),
    Message('note_on', channel=0, note=66, velocity=0, time=0),
    Message('note_on', channel=0, note=54, velocity=0, time=0),
    Message('note_on', channel=0, note=59, velocity=60, time=1),
    Message('note_on', channel=0, note=42, velocity=60, time=0),
    Message('note_on', channel=0, note=62, velocity=60, time=0),
    Message('note_on', channel=0, note=54, velocity=60, time=0),
    Message('note_on', channel=0, note=47, velocity=60, time=0),
    Message('note_on', channel=0, note=66, velocity=60, time=0),
    Message('note_on', channel=0, note=59, velocity=0, time=59),
    Message('note_on', channel=0, note=42, velocity=0, time=0),
    Message('note_on', channel=0, note=62, velocity=0, time=0),
    Message('note_on', channel=0, note=54, velocity=0, time=0),
    Message('note_on', channel=0, note=47, velocity=0, time=0),
    Message('note_on', channel=0, note=66, velocity=0, time=0),
    Message('note_on', channel=0, note=47, velocity=60, time=1),
    Message('note_on', channel=0, note=42, velocity=60, time=0),
    Message('note_on', channel=0, note=54, velocity=60, time=0),
    Message('note_on', channel=0, note=59, velocity=60, time=0),
    Message('note_on', channel=0, note=66, velocity=60, time=0),
    Message('note_on', channel=0, note=62, velocity=60, time=0),
    Message('note_on', channel=0, note=47, velocity=0, time=29),
    Message('note_on', channel=0, note=42, velocity=0, time=0),
    Message('note_on', channel=0, note=54, velocity=0, time=0),
    Message('note_on', channel=0, note=59, velocity=0, time=0),
    Message('note_on', channel=0, note=66, velocity=0, time=0),
    Message('note_on', channel=0, note=62, velocity=0, time=0),
    Message('note_on', channel=0, note=59, velocity=60, time=1),
    Message('note_on', channel=0, note=47, velocity=60, time=0),
    Message('note_on', channel=0, note=66, velocity=60, time=0),
    Message('note_on', channel=0, note=54, velocity=60, time=0),
    Message('note_on', channel=0, note=42, velocity=60, time=0),
    Message('note_on', channel=0, note=62, velocity=60, time=0),
    Message('control_change', channel=0, control=7, value=90, time=0),
    Message('note_on', channel=0, note=59, velocity=0, time=59),
    Message('note_on', channel=0, note=47, velocity=0, time=0),
    Message('note_on', channel=0, note=66, velocity=0, time=0),
    Message('note_on', channel=0, note=54, velocity=0, time=0),
    Message('note_on', channel=0, note=42, velocity=0, time=0),
    Message('note_on', channel=0, note=62, velocity=0, time=0),
    Message('note_on', channel=0, note=59, velocity=60, time=1),
    Message('note_on', channel=0, note=42, velocity=60, time=0),
    Message('note_on', channel=0, note=54, velocity=60, time=0),
    Message('note_on', channel=0, note=62, velocity=60, time=0),
    Message('note_on', channel=0, note=47, velocity=60, time=0),
    Message('note_on', channel=0, note=66, velocity=60, time=0),
    Message('note_on', channel=0, note=59, velocity=0, time=29),
    Message('note_on', channel=0, note=42, velocity=0, time=0),
    Message('note_on', channel=0, note=54, velocity=0, time=0),
    Message('note_on', channel=0, note=62, velocity=0, time=0),
    Message('note_on', channel=0, note=47, velocity=0, time=0),
    Message('note_on', channel=0, note=66, velocity=0, time=0),
    Message('note_on', channel=0, note=62, velocity=60, time=1),
    Message('note_on', channel=0, note=66, velocity=60, time=0),
    Message('note_on', channel=0, note=42, velocity=60, time=0),
    Message('note_on', channel=0, note=59, velocity=60, time=0),
    Message('note_on', channel=0, note=47, velocity=60, time=0),
    Message('note_on', channel=0, note=54, velocity=60, time=0),
    Message('control_change', channel=0, control=7, value=87, time=30),
    Message('note_on', channel=0, note=62, velocity=0, time=29),
    Message('note_on', channel=0, note=66, velocity=0, time=0),
    Message('note_on', channel=0, note=42, velocity=0, time=0),
    Message('note_on', channel=0, note=59, velocity=0, time=0),
    Message('note_on', channel=0, note=47, velocity=0, time=0),
    Message('note_on', channel=0, note=54, velocity=0, time=0),
    Message('note_on', channel=0, note=42, velocity=60, time=1),
    Message('note_on', channel=0, note=62, velocity=60, time=0),
    Message('note_on', channel=0, note=54, velocity=60, time=0),
    Message('note_on', channel=0, note=59, velocity=60, time=0),
    Message('note_on', channel=0, note=66, velocity=60, time=0),
    Message('note_on', channel=0, note=47, velocity=60, time=0),
    Message('note_on', channel=0, note=42, velocity=0, time=29),
    Message('note_on', channel=0, note=62, velocity=0, time=0),
    Message('note_on', channel=0, note=54, velocity=0, time=0),
    Message('note_on', channel=0, note=59, velocity=0, time=0),
    Message('note_on', channel=0, note=66, velocity=0, time=0),
    Message('note_on', channel=0, note=47, velocity=0, time=0),
    Message('note_on', channel=0, note=54, velocity=60, time=1),
    Message('note_on', channel=0, note=42, velocity=60, time=0),
    Message('note_on', channel=0, note=59, velocity=60, time=0),
    Message('note_on', channel=0, note=47, velocity=60, time=0),
    Message('note_on', channel=0, note=66, velocity=60, time=0),
    Message('note_on', channel=0, note=62, velocity=60, time=0),
    Message('note_on', channel=0, note=54, velocity=0, time=59),
    Message('note_on', channel=0, note=42, velocity=0, time=0),
    Message('note_on', channel=0, note=59, velocity=0, time=0),
    Message('note_on', channel=0, note=47, velocity=0, time=0),
    Message('note_on', channel=0, note=66, velocity=0, time=0),
    Message('note_on', channel=0, note=62, velocity=0, time=0),
    Message('note_on', channel=0, note=59, velocity=60, time=1),
    Message('note_on', channel=0, note=62, velocity=60, time=0),
    Message('note_on', channel=0, note=42, velocity=60, time=0),
    Message('note_on', channel=0, note=54, velocity=60, time=0),
    Message('note_on', channel=0, note=47, velocity=60, time=0),
    Message('note_on', channel=0, note=66, velocity=60, time=0),
    Message('control_change', channel=0, control=7, value=84, time=0),
    Message('note_on', channel=0, note=59, velocity=0, time=59),
    Message('note_on', channel=0, note=62, velocity=0, time=0),
    Message('note_on', channel=0, note=42, velocity=0, time=0),
    Message('note_on', channel=0, note=54, velocity=0, time=0),
    Message('note_on', channel=0, note=47, velocity=0, time=0),
    Message('note_on', channel=0, note=66, velocity=0, time=0),
    Message('note_on', channel=0, note=66, velocity=60, time=1),
    Message('note_on', channel=0, note=54, velocity=60, time=0),
    Message('note_on', channel=0, note=62, velocity=60, time=0),
    Message('note_on', channel=0, note=47, velocity=60, time=0),
    Message('note_on', channel=0, note=42, velocity=60, time=0),
    Message('note_on', channel=0, note=59, velocity=60, time=0),
    Message('note_on', channel=0, note=66, velocity=0, time=59),
    Message('note_on', channel=0, note=54, velocity=0, time=0),
    Message('note_on', channel=0, note=62, velocity=0, time=0),
    Message('note_on', channel=0, note=47, velocity=0, time=0),
    Message('note_on', channel=0, note=42, velocity=0, time=0),
    Message('note_on', channel=0, note=59, velocity=0, time=0),
    Message('note_on', channel=0, note=42, velocity=60, time=1),
    Message('note_on', channel=0, note=61, velocity=60, time=0),
    Message('note_on', channel=0, note=58, velocity=60, time=0),
    Message('note_on', channel=0, note=54, velocity=60, time=0),
    Message('control_change', channel=0, control=7, value=81, time=0),
    Message('note_on', channel=0, note=66, velocity=60, time=0),
    Message('note_on', channel=0, note=49, velocity=60, time=0),
    Message('note_on', channel=0, note=42, velocity=0, time=29),
    Message('note_on', channel=0, note=61, velocity=0, time=0),
    Message('note_on', channel=0, note=58, velocity=0, time=0),
    Message('note_on', channel=0, note=54, velocity=0, time=0),
    Message('note_on', channel=0, note=66, velocity=0, time=0),
    Message('note_on', channel=0, note=49, velocity=0, time=0),
    Message('note_on', channel=0, note=49, velocity=60, time=1),
    Message('note_on', channel=0, note=66, velocity=60, time=0),
    Message('note_on', channel=0, note=42, velocity=60, time=0),
    Message('note_on', channel=0, note=61, velocity=60, time=0),
    Message('note_on', channel=0, note=54, velocity=60, time=0),
    Message('note_on', channel=0, note=58, velocity=60, time=0),
    Message('note_on', channel=0, note=49, velocity=0, time=59),
    Message('note_on', channel=0, note=66, velocity=0, time=0),
    Message('note_on', channel=0, note=42, velocity=0, time=0),
    Message('note_on', channel=0, note=61, velocity=0, time=0),
    Message('note_on', channel=0, note=54, velocity=0, time=0),
    Message('note_on', channel=0, note=58, velocity=0, time=0),
    Message('note_on', channel=0, note=66, velocity=60, time=1),
    Message('note_on', channel=0, note=61, velocity=60, time=0),
    Message('note_on', channel=0, note=42, velocity=60, time=0),
    Message('note_on', channel=0, note=58, velocity=60, time=0),
    Message('note_on', channel=0, note=49, velocity=60, time=0),
    Message('note_on', channel=0, note=54, velocity=60, time=0),
    Message('note_on', channel=0, note=66, velocity=0, time=29),
    Message('note_on', channel=0, note=61, velocity=0, time=0),
    Message('note_on', channel=0, note=42, velocity=0, time=0),
    Message('note_on', channel=0, note=58, velocity=0, time=0),
    Message('note_on', channel=0, note=49, velocity=0, time=0),
    Message('note_on', channel=0, note=54, velocity=0, time=0),
    Message('note_on', channel=0, note=42, velocity=60, time=1),
    Message('note_on', channel=0, note=61, velocity=60, time=0),
    Message('note_on', channel=0, note=54, velocity=60, time=0),
    Message('note_on', channel=0, note=49, velocity=60, time=0),
    Message('note_on', channel=0, note=58, velocity=60, time=0),
    Message('control_change', channel=0, control=7, value=78, time=0),
    Message('note_on', channel=0, note=66, velocity=60, time=0),
    Message('note_on', channel=0, note=42, velocity=0, time=59),
    Message('note_on', channel=0, note=61, velocity=0, time=0),
    Message('note_on', channel=0, note=54, velocity=0, time=0),
    Message('note_on', channel=0, note=49, velocity=0, time=0),
    Message('note_on', channel=0, note=58, velocity=0, time=0),
    Message('note_on', channel=0, note=66, velocity=0, time=0),
    Message('note_on', channel=0, note=61, velocity=60, time=1),
    Message('note_on', channel=0, note=54, velocity=60, time=0),
    Message('note_on', channel=0, note=58, velocity=60, time=0),
    Message('note_on', channel=0, note=66, velocity=60, time=0),
    Message('note_on', channel=0, note=42, velocity=60, time=0),
    Message('note_on', channel=0, note=49, velocity=60, time=0),
    Message('note_on', channel=0, note=61, velocity=0, time=29),
    Message('note_on', channel=0, note=54, velocity=0, time=0),
    Message('note_on', channel=0, note=58, velocity=0, time=0),
    Message('note_on', channel=0, note=66, velocity=0, time=0),
    Message('note_on', channel=0, note=42, velocity=0, time=0),
    Message('note_on', channel=0, note=49, velocity=0, time=0),
    Message('note_on', channel=0, note=61, velocity=60, time=1),
    Message('note_on', channel=0, note=66, velocity=60, time=0),
    Message('note_on', channel=0, note=54, velocity=60, time=0),
    Message('note_on', channel=0, note=49, velocity=60, time=0),
    Message('note_on', channel=0, note=58, velocity=60, time=0),
    Message('note_on', channel=0, note=42, velocity=60, time=0),
    Message('control_change', channel=0, control=7, value=75, time=30),
    Message('note_on', channel=0, note=61, velocity=0, time=29),
    Message('note_on', channel=0, note=66, velocity=0, time=0),
    Message('note_on', channel=0, note=54, velocity=0, time=0),
    Message('note_on', channel=0, note=49, velocity=0, time=0),
    Message('note_on', channel=0, note=58, velocity=0, time=0),
    Message('note_on', channel=0, note=42, velocity=0, time=0),
    Message('note_on', channel=0, note=61, velocity=60, time=1),
    Message('note_on', channel=0, note=66, velocity=60, time=0),
    Message('note_on', channel=0, note=42, velocity=60, time=0),
    Message('note_on', channel=0, note=58, velocity=60, time=0),
    Message('note_on', channel=0, note=49, velocity=60, time=0),
    Message('note_on', channel=0, note=54, velocity=60, time=0),
    Message('note_on', channel=0, note=61, velocity=0, time=29),
    Message('note_on', channel=0, note=66, velocity=0, time=0),
    Message('note_on', channel=0, note=42, velocity=0, time=0),
    Message('note_on', channel=0, note=58, velocity=0, time=0),
    Message('note_on', channel=0, note=49, velocity=0, time=0),
    Message('note_on', channel=0, note=54, velocity=0, time=0),
    Message('note_on', channel=0, note=58, velocity=60, time=1),
    Message('note_on', channel=0, note=61, velocity=60, time=0),
    Message('note_on', channel=0, note=54, velocity=60, time=0),
    Message('note_on', channel=0, note=42, velocity=60, time=0),
    Message('note_on', channel=0, note=49, velocity=60, time=0),
    Message('note_on', channel=0, note=66, velocity=60, time=0),
    Message('note_on', channel=0, note=58, velocity=0, time=59),
    Message('note_on', channel=0, note=61, velocity=0, time=0),
    Message('note_on', channel=0, note=54, velocity=0, time=0),
    Message('note_on', channel=0, note=42, velocity=0, time=0),
    Message('note_on', channel=0, note=49, velocity=0, time=0),
    Message('note_on', channel=0, note=66, velocity=0, time=0),
    Message('note_on', channel=0, note=66, velocity=60, time=1),
    Message('note_on', channel=0, note=49, velocity=60, time=0),
    Message('note_on', channel=0, note=61, velocity=60, time=0),
    Message('note_on', channel=0, note=58, velocity=60, time=0),
    Message('control_change', channel=0, control=7, value=72, time=0),
    Message('note_on', channel=0, note=54, velocity=60, time=0),
    Message('note_on', channel=0, note=42, velocity=60, time=0),
    Message('note_on', channel=0, note=66, velocity=0, time=59),
    Message('note_on', channel=0, note=49, velocity=0, time=0),
    Message('note_on', channel=0, note=61, velocity=0, time=0),
    Message('note_on', channel=0, note=58, velocity=0, time=0),
    Message('note_on', channel=0, note=54, velocity=0, time=0),
    Message('note_on', channel=0, note=42, velocity=0, time=0),
    Message('note_on', channel=0, note=49, velocity=60, time=1),
    Message('note_on', channel=0, note=66, velocity=60, time=0),
    Message('note_on', channel=0, note=61, velocity=60, time=0),
    Message('note_on', channel=0, note=54, velocity=60, time=0),
    Message('note_on', channel=0, note=58, velocity=60, time=0),
    Message('note_on', channel=0, note=42, velocity=60, time=0),
    Message('note_on', channel=0, note=49, velocity=0, time=59),
    Message('note_on', channel=0, note=66, velocity=0, time=0),
    Message('note_on', channel=0, note=61, velocity=0, time=0),
    Message('note_on', channel=0, note=54, velocity=0, time=0),
    Message('note_on', channel=0, note=58, velocity=0, time=0),
    Message('note_on', channel=0, note=42, velocity=0, time=0),
    Message('note_on', channel=0, note=57, velocity=60, time=1),
    Message('note_on', channel=0, note=61, velocity=60, time=0),
    Message('control_change', channel=0, control=7, value=69, time=0),
    Message('note_on', channel=0, note=52, velocity=60, time=0),
    Message('note_on', channel=0, note=40, velocity=60, time=0),
    Message('note_on', channel=0, note=45, velocity=60, time=0),
    Message('note_on', channel=0, note=64, velocity=60, time=0),
    Message('note_on', channel=0, note=57, velocity=0, time=29),
    Message('note_on', channel=0, note=61, velocity=0, time=0),
    Message('note_on', channel=0, note=52, velocity=0, time=0),
    Message('note_on', channel=0, note=40, velocity=0, time=0),
    Message('note_on', channel=0, note=45, velocity=0, time=0),
    Message('note_on', channel=0, note=64, velocity=0, time=0),
    Message('note_on', channel=0, note=45, velocity=60, time=1),
    Message('note_on', channel=0, note=57, velocity=60, time=0),
    Message('note_on', channel=0, note=40, velocity=60, time=0),
    Message('note_on', channel=0, note=61, velocity=60, time=0),
    Message('note_on', channel=0, note=52, velocity=60, time=0),
    Message('note_on', channel=0, note=64, velocity=60, time=0),
    Message('note_on', channel=0, note=45, velocity=0, time=59),
    Message('note_on', channel=0, note=57, velocity=0, time=0),
    Message('note_on', channel=0, note=40, velocity=0, time=0),
    Message('note_on', channel=0, note=61, velocity=0, time=0),
    Message('note_on', channel=0, note=52, velocity=0, time=0),
    Message('note_on', channel=0, note=64, velocity=0, time=0),
    Message('note_on', channel=0, note=52, velocity=60, time=1),
    Message('note_on', channel=0, note=40, velocity=60, time=0),
    Message('note_on', channel=0, note=45, velocity=60, time=0),
    Message('note_on', channel=0, note=61, velocity=60, time=0),
    Message('note_on', channel=0, note=64, velocity=60, time=0),
    Message('note_on', channel=0, note=57, velocity=60, time=0),
    Message('note_on', channel=0, note=52, velocity=0, time=29),
    Message('note_on', channel=0, note=40, velocity=0, time=0),
    Message('note_on', channel=0, note=45, velocity=0, time=0),
    Message('note_on', channel=0, note=61, velocity=0, time=0),
    Message('note_on', channel=0, note=64, velocity=0, time=0),
    Message('note_on', channel=0, note=57, velocity=0, time=0),
    Message('note_on', channel=0, note=64, velocity=60, time=1),
    Message('note_on', channel=0, note=45, velocity=60, time=0),
    Message('note_on', channel=0, note=57, velocity=60, time=0),
    Message('control_change', channel=0, control=7, value=66, time=0),
    Message('note_on', channel=0, note=52, velocity=60, time=0),
    Message('note_on', channel=0, note=40, velocity=60, time=0),
    Message('note_on', channel=0, note=61, velocity=60, time=0),
    Message('note_on', channel=0, note=64, velocity=0, time=59),
    Message('note_on', channel=0, note=45, velocity=0, time=0),
    Message('note_on', channel=0, note=57, velocity=0, time=0),
    Message('note_on', channel=0, note=52, velocity=0, time=0),
    Message('note_on', channel=0, note=40, velocity=0, time=0),
    Message('note_on', channel=0, note=61, velocity=0, time=0),
    Message('note_on', channel=0, note=40, velocity=60, time=1),
    Message('note_on', channel=0, note=57, velocity=60, time=0),
    Message('note_on', channel=0, note=64, velocity=60, time=0),
    Message('note_on', channel=0, note=52, velocity=60, time=0),
    Message('note_on', channel=0, note=61, velocity=60, time=0),
    Message('note_on', channel=0, note=45, velocity=60, time=0),
    Message('note_on', channel=0, note=40, velocity=0, time=29),
    Message('note_on', channel=0, note=57, velocity=0, time=0),
    Message('note_on', channel=0, note=64, velocity=0, time=0),
    Message('note_on', channel=0, note=52, velocity=0, time=0),
    Message('note_on', channel=0, note=61, velocity=0, time=0),
    Message('note_on', channel=0, note=45, velocity=0, time=0),
    Message('note_on', channel=0, note=40, velocity=60, time=1),
    Message('note_on', channel=0, note=61, velocity=60, time=0),
    Message('note_on', channel=0, note=45, velocity=60, time=0),
    Message('note_on', channel=0, note=64, velocity=60, time=0),
    Message('note_on', channel=0, note=52, velocity=60, time=0),
    Message('note_on', channel=0, note=57, velocity=60, time=0),
    Message('control_change', channel=0, control=7, value=63, time=30),
    Message('note_on', channel=0, note=40, velocity=0, time=29),
    Message('note_on', channel=0, note=61, velocity=0, time=0),
    Message('note_on', channel=0, note=45, velocity=0, time=0),
    Message('note_on', channel=0, note=64, velocity=0, time=0),
    Message('note_on', channel=0, note=52, velocity=0, time=0),
    Message('note_on', channel=0, note=57, velocity=0, time=0),
    Message('note_on', channel=0, note=64, velocity=60, time=1),
    Message('note_on', channel=0, note=57, velocity=60, time=0),
    Message('note_on', channel=0, note=40, velocity=60, time=0),
    Message('note_on', channel=0, note=52, velocity=60, time=0),
    Message('note_on', channel=0, note=45, velocity=60, time=0),
    Message('note_on', channel=0, note=61, velocity=60, time=0),
    Message('note_on', channel=0, note=64, velocity=0, time=29),
    Message('note_on', channel=0, note=57, velocity=0, time=0),
    Message('note_on', channel=0, note=40, velocity=0, time=0),
    Message('note_on', channel=0, note=52, velocity=0, time=0),
    Message('note_on', channel=0, note=45, velocity=0, time=0),
    Message('note_on', channel=0, note=61, velocity=0, time=0),
    Message('note_on', channel=0, note=57, velocity=60, time=1),
    Message('note_on', channel=0, note=52, velocity=60, time=0),
    Message('note_on', channel=0, note=40, velocity=60, time=0),
    Message('note_on', channel=0, note=61, velocity=60, time=0),
    Message('note_on', channel=0, note=45, velocity=60, time=0),
    Message('note_on', channel=0, note=64, velocity=60, time=0),
    Message('note_on', channel=0, note=57, velocity=0, time=59),
    Message('note_on', channel=0, note=52, velocity=0, time=0),
    Message('note_on', channel=0, note=40, velocity=0, time=0),
    Message('note_on', channel=0, note=61, velocity=0, time=0),
    Message('note_on', channel=0, note=45, velocity=0, time=0),
    Message('note_on', channel=0, note=64, velocity=0, time=0),
    Message('note_on', channel=0, note=57, velocity=60, time=1),
    Message('control_change', channel=0, control=7, value=60, time=0),
    Message('note_on', channel=0, note=64, velocity=60, time=0),
    Message('note_on', channel=0, note=40, velocity=60, time=0),
    Message('note_on', channel=0, note=61, velocity=60, time=0),
    Message('note_on', channel=0, note=45, velocity=60, time=0),
    Message('note_on', channel=0, note=52, velocity=60, time=0),
    Message('note_on', channel=0, note=57, velocity=0, time=59),
    Message('note_on', channel=0, note=64, velocity=0, time=0),
    Message('note_on', channel=0, note=40, velocity=0, time=0),
    Message('note_on', channel=0, note=61, velocity=0, time=0),
    Message('note_on', channel=0, note=45, velocity=0, time=0),
    Message('note_on', channel=0, note=52, velocity=0, time=0),
    Message('note_on', channel=0, note=52, velocity=60, time=1),
    Message('note_on', channel=0, note=61, velocity=60, time=0),
    Message('note_on', channel=0, note=45, velocity=60, time=0),
    Message('note_on', channel=0, note=40, velocity=60, time=0),
    Message('note_on', channel=0, note=57, velocity=60, time=0),
    Message('note_on', channel=0, note=64, velocity=60, time=0),
    Message('note_on', channel=0, note=52, velocity=0, time=59),
    Message('note_on', channel=0, note=61, velocity=0, time=0),
    Message('note_on', channel=0, note=45, velocity=0, time=0),
    Message('note_on', channel=0, note=40, velocity=0, time=0),
    Message('note_on', channel=0, note=57, velocity=0, time=0),
    Message('note_on', channel=0, note=64, velocity=0, time=0),
    Message('note_on', channel=0, note=52, velocity=60, time=1),
    Message('note_on', channel=0, note=40, velocity=60, time=0),
    Message('note_on', channel=0, note=47, velocity=60, time=0),
    Message('note_on', channel=0, note=64, velocity=60, time=0),
    Message('note_on', channel=0, note=59, velocity=60, time=0),
    Message('note_on', channel=0, note=56, velocity=60, time=0),
    Message('control_change', channel=0, control=7, value=57, time=0),
    Message('note_on', channel=0, note=52, velocity=0, time=29),
    Message('note_on', channel=0, note=40, velocity=0, time=0),
    Message('note_on', channel=0, note=47, velocity=0, time=0),
    Message('note_on', channel=0, note=64, velocity=0, time=0),
    Message('note_on', channel=0, note=59, velocity=0, time=0),
    Message('note_on', channel=0, note=56, velocity=0, time=0),
    Message('note_on', channel=0, note=56, velocity=60, time=1),
    Message('note_on', channel=0, note=52, velocity=60, time=0),
    Message('note_on', channel=0, note=40, velocity=60, time=0),
    Message('note_on', channel=0, note=47, velocity=60, time=0),
    Message('note_on', channel=0, note=59, velocity=60, time=0),
    Message('note_on', channel=0, note=64, velocity=60, time=0),
    Message('note_on', channel=0, note=56, velocity=0, time=59),
    Message('note_on', channel=0, note=52, velocity=0, time=0),
    Message('note_on', channel=0, note=40, velocity=0, time=0),
    Message('note_on', channel=0, note=47, velocity=0, time=0),
    Message('note_on', channel=0, note=59, velocity=0, time=0),
    Message('note_on', channel=0, note=64, velocity=0, time=0),
    Message('note_on', channel=0, note=56, velocity=60, time=1),
    Message('note_on', channel=0, note=52, velocity=60, time=0),
    Message('note_on', channel=0, note=47, velocity=60, time=0),
    Message('note_on', channel=0, note=59, velocity=60, time=0),
    Message('note_on', channel=0, note=40, velocity=60, time=0),
    Message('note_on', channel=0, note=64, velocity=60, time=0),
    Message('note_on', channel=0, note=56, velocity=0, time=29),
    Message('note_on', channel=0, note=52, velocity=0, time=0),
    Message('note_on', channel=0, note=47, velocity=0, time=0),
    Message('note_on', channel=0, note=59, velocity=0, time=0),
    Message('note_on', channel=0, note=40, velocity=0, time=0),
    Message('note_on', channel=0, note=64, velocity=0, time=0),
    Message('note_on', channel=0, note=40, velocity=60, time=1),
    Message('note_on', channel=0, note=59, velocity=60, time=0),
    Message('note_on', channel=0, note=64, velocity=60, time=0),
    Message('control_change', channel=0, control=7, value=54, time=0),
    Message('note_on', channel=0, note=47, velocity=60, time=0),
    Message('note_on', channel=0, note=52, velocity=60, time=0),
    Message('note_on', channel=0, note=56, velocity=60, time=0),
    Message('note_on', channel=0, note=40, velocity=0, time=59),
    Message('note_on', channel=0, note=59, velocity=0, time=0),
    Message('note_on', channel=0, note=64, velocity=0, time=0),
    Message('note_on', channel=0, note=47, velocity=0, time=0),
    Message('note_on', channel=0, note=52, velocity=0, time=0),
    Message('note_on', channel=0, note=56, velocity=0, time=0),
    Message('note_on', channel=0, note=52, velocity=60, time=1),
    Message('note_on', channel=0, note=59, velocity=60, time=0),
    Message('note_on', channel=0, note=56, velocity=60, time=0),
    Message('note_on', channel=0, note=47, velocity=60, time=0),
    Message('note_on', channel=0, note=64, velocity=60, time=0),
    Message('note_on', channel=0, note=40, velocity=60, time=0),
    Message('note_on', channel=0, note=52, velocity=0, time=29),
    Message('note_on', channel=0, note=59, velocity=0, time=0),
    Message('note_on', channel=0, note=56, velocity=0, time=0),
    Message('note_on', channel=0, note=47, velocity=0, time=0),
    Message('note_on', channel=0, note=64, velocity=0, time=0),
    Message('note_on', channel=0, note=40, velocity=0, time=0),
    Message('note_on', channel=0, note=47, velocity=60, time=1),
    Message('note_on', channel=0, note=40, velocity=60, time=0),
    Message('note_on', channel=0, note=52, velocity=60, time=0),
    Message('note_on', channel=0, note=59, velocity=60, time=0),
    Message('note_on', channel=0, note=56, velocity=60, time=0),
    Message('note_on', channel=0, note=64, velocity=60, time=0),
    Message('control_change', channel=0, control=7, value=51, time=30),
    Message('note_on', channel=0, note=47, velocity=0, time=29),
    Message('note_on', channel=0, note=40, velocity=0, time=0),
    Message('note_on', channel=0, note=52, velocity=0, time=0),
    Message('note_on', channel=0, note=59, velocity=0, time=0),
    Message('note_on', channel=0, note=56, velocity=0, time=0),
    Message('note_on', channel=0, note=64, velocity=0, time=0),
    Message('note_on', channel=0, note=52, velocity=60, time=1),
    Message('note_on', channel=0, note=47, velocity=60, time=0),
    Message('note_on', channel=0, note=59, velocity=60, time=0),
    Message('note_on', channel=0, note=40, velocity=60, time=0),
    Message('note_on', channel=0, note=64, velocity=60, time=0),
    Message('note_on', channel=0, note=56, velocity=60, time=0),
    Message('note_on', channel=0, note=52, velocity=0, time=29),
    Message('note_on', channel=0, note=47, velocity=0, time=0),
    Message('note_on', channel=0, note=59, velocity=0, time=0),
    Message('note_on', channel=0, note=40, velocity=0, time=0),
    Message('note_on', channel=0, note=64, velocity=0, time=0),
    Message('note_on', channel=0, note=56, velocity=0, time=0),
    Message('note_on', channel=0, note=59, velocity=60, time=1),
    Message('note_on', channel=0, note=56, velocity=60, time=0),
    Message('note_on', channel=0, note=52, velocity=60, time=0),
    Message('note_on', channel=0, note=40, velocity=60, time=0),
    Message('note_on', channel=0, note=64, velocity=60, time=0),
    Message('note_on', channel=0, note=47, velocity=60, time=0),
    Message('note_on', channel=0, note=59, velocity=0, time=59),
    Message('note_on', channel=0, note=56, velocity=0, time=0),
    Message('note_on', channel=0, note=52, velocity=0, time=0),
    Message('note_on', channel=0, note=40, velocity=0, time=0),
    Message('note_on', channel=0, note=64, velocity=0, time=0),
    Message('note_on', channel=0, note=47, velocity=0, time=0),
    Message('note_on', channel=0, note=56, velocity=60, time=1),
    Message('control_change', channel=0, control=7, value=48, time=0),
    Message('note_on', channel=0, note=64, velocity=60, time=0),
    Message('note_on', channel=0, note=59, velocity=60, time=0),
    Message('note_on', channel=0, note=47, velocity=60, time=0),
    Message('note_on', channel=0, note=40, velocity=60, time=0),
    Message('note_on', channel=0, note=52, velocity=60, time=0),
    Message('note_on', channel=0, note=56, velocity=0, time=59),
    Message('note_on', channel=0, note=64, velocity=0, time=0),
    Message('note_on', channel=0, note=59, velocity=0, time=0),
    Message('note_on', channel=0, note=47, velocity=0, time=0),
    Message('note_on', channel=0, note=40, velocity=0, time=0),
    Message('note_on', channel=0, note=52, velocity=0, time=0),
    Message('note_on', channel=0, note=47, velocity=60, time=1),
    Message('note_on', channel=0, note=40, velocity=60, time=0),
    Message('note_on', channel=0, note=56, velocity=60, time=0),
    Message('note_on', channel=0, note=64, velocity=60, time=0),
    Message('note_on', channel=0, note=52, velocity=60, time=0),
    Message('note_on', channel=0, note=59, velocity=60, time=0),
    Message('note_on', channel=0, note=47, velocity=0, time=59),
    Message('note_on', channel=0, note=40, velocity=0, time=0),
    Message('note_on', channel=0, note=56, velocity=0, time=0),
    Message('note_on', channel=0, note=64, velocity=0, time=0),
    Message('note_on', channel=0, note=52, velocity=0, time=0),
    Message('note_on', channel=0, note=59, velocity=0, time=0),
    Message('note_on', channel=0, note=62, velocity=60, time=1),
    Message('note_on', channel=0, note=59, velocity=60, time=0),
    Message('note_on', channel=0, note=67, velocity=60, time=0),
    Message('note_on', channel=0, note=55, velocity=60, time=0),
    Message('control_change', channel=0, control=7, value=45, time=0),
    Message('note_on', channel=0, note=47, velocity=60, time=0),
    Message('note_on', channel=0, note=43, velocity=60, time=0),
    Message('note_on', channel=0, note=62, velocity=0, time=29),
    Message('note_on', channel=0, note=59, velocity=0, time=0),
    Message('note_on', channel=0, note=67, velocity=0, time=0),
    Message('note_on', channel=0, note=55, velocity=0, time=0),
    Message('note_on', channel=0, note=47, velocity=0, time=0),
    Message('note_on', channel=0, note=43, velocity=0, time=0),
    Message('note_on', channel=0, note=43, velocity=60, time=1),
    Message('note_on', channel=0, note=59, velocity=60, time=0),
    Message('note_on', channel=0, note=62, velocity=60, time=0),
    Message('note_on', channel=0, note=55, velocity=60, time=0),
    Message('note_on', channel=0, note=47, velocity=60, time=0),
    Message('note_on', channel=0, note=67, velocity=60, time=0),
    Message('note_on', channel=0, note=43, velocity=0, time=59),
    Message('note_on', channel=0, note=59, velocity=0, time=0),
    Message('note_on', channel=0, note=62, velocity=0, time=0),
    Message('note_on', channel=0, note=55, velocity=0, time=0),
    Message('note_on', channel=0, note=47, velocity=0, time=0),
    Message('note_on', channel=0, note=67, velocity=0, time=0),
    Message('note_on', channel=0, note=43, velocity=60, time=1),
    Message('note_on', channel=0, note=55, velocity=60, time=0),
    Message('note_on', channel=0, note=59, velocity=60, time=0),
    Message('note_on', channel=0, note=67, velocity=60, time=0),
    Message('note_on', channel=0, note=47, velocity=60, time=0),
    Message('note_on', channel=0, note=62, velocity=60, time=0),
    Message('note_on', channel=0, note=43, velocity=0, time=29),
    Message('note_on', channel=0, note=55, velocity=0, time=0),
    Message('note_on', channel=0, note=59, velocity=0, time=0),
    Message('note_on', channel=0, note=67, velocity=0, time=0),
    Message('note_on', channel=0, note=47, velocity=0, time=0),
    Message('note_on', channel=0, note=62, velocity=0, time=0),
    Message('note_on', channel=0, note=62, velocity=60, time=1),
    Message('note_on', channel=0, note=47, velocity=60, time=0),
    Message('note_on', channel=0, note=67, velocity=60, time=0),
    Message('control_change', channel=0, control=7, value=42, time=0),
    Message('note_on', channel=0, note=59, velocity=60, time=0),
    Message('note_on', channel=0, note=55, velocity=60, time=0),
    Message('note_on', channel=0, note=43, velocity=60, time=0),
    Message('note_on', channel=0, note=62, velocity=0, time=59),
    Message('note_on', channel=0, note=47, velocity=0, time=0),
    Message('note_on', channel=0, note=67, velocity=0, time=0),
    Message('note_on', channel=0, note=59, velocity=0, time=0),
    Message('note_on', channel=0, note=55, velocity=0, time=0),
    Message('note_on', channel=0, note=43, velocity=0, time=0),
    Message('note_on', channel=0, note=67, velocity=60, time=1),
    Message('note_on', channel=0, note=55, velocity=60, time=0),
    Message('note_on', channel=0, note=59, velocity=60, time=0),
    Message('note_on', channel=0, note=43, velocity=60, time=0),
    Message('note_on', channel=0, note=62, velocity=60, time=0),
    Message('note_on', channel=0, note=47, velocity=60, time=0),
    Message('note_on', channel=0, note=67, velocity=0, time=29),
    Message('note_on', channel=0, note=55, velocity=0, time=0),
    Message('note_on', channel=0, note=59, velocity=0, time=0),
    Message('note_on', channel=0, note=43, velocity=0, time=0),
    Message('note_on', channel=0, note=62, velocity=0, time=0),
    Message('note_on', channel=0, note=47, velocity=0, time=0),
    Message('note_on', channel=0, note=55, velocity=60, time=1),
    Message('note_on', channel=0, note=47, velocity=60, time=0),
    Message('note_on', channel=0, note=62, velocity=60, time=0),
    Message('note_on', channel=0, note=43, velocity=60, time=0),
    Message('note_on', channel=0, note=67, velocity=60, time=0),
    Message('note_on', channel=0, note=59, velocity=60, time=0),
    Message('control_change', channel=0, control=7, value=39, time=30),
    Message('note_on', channel=0, note=55, velocity=0, time=29),
    Message('note_on', channel=0, note=47, velocity=0, time=0),
    Message('note_on', channel=0, note=62, velocity=0, time=0),
    Message('note_on', channel=0, note=43, velocity=0, time=0),
    Message('note_on', channel=0, note=67, velocity=0, time=0),
    Message('note_on', channel=0, note=59, velocity=0, time=0),
    Message('note_on', channel=0, note=67, velocity=60, time=1),
    Message('note_on', channel=0, note=55, velocity=60, time=0),
    Message('note_on', channel=0, note=59, velocity=60, time=0),
    Message('note_on', channel=0, note=43, velocity=60, time=0),
    Message('note_on', channel=0, note=62, velocity=60, time=0),
    Message('note_on', channel=0, note=47, velocity=60, time=0),
    Message('note_on', channel=0, note=67, velocity=0, time=29),
    Message('note_on', channel=0, note=55, velocity=0, time=0),
    Message('note_on', channel=0, note=59, velocity=0, time=0),
    Message('note_on', channel=0, note=43, velocity=0, time=0),
    Message('note_on', channel=0, note=62, velocity=0, time=0),
    Message('note_on', channel=0, note=47, velocity=0, time=0),
    Message('note_on', channel=0, note=62, velocity=60, time=1),
    Message('note_on', channel=0, note=59, velocity=60, time=0),
    Message('note_on', channel=0, note=43, velocity=60, time=0),
    Message('note_on', channel=0, note=55, velocity=60, time=0),
    Message('note_on', channel=0, note=67, velocity=60, time=0),
    Message('note_on', channel=0, note=47, velocity=60, time=0),
    Message('note_on', channel=0, note=62, velocity=0, time=59),
    Message('note_on', channel=0, note=59, velocity=0, time=0),
    Message('note_on', channel=0, note=43, velocity=0, time=0),
    Message('note_on', channel=0, note=55, velocity=0, time=0),
    Message('note_on', channel=0, note=67, velocity=0, time=0),
    Message('note_on', channel=0, note=47, velocity=0, time=0),
    Message('control_change', channel=0, control=7, value=36, time=1),
    Message('note_on', channel=0, note=59, velocity=60, time=0),
    Message('note_on', channel=0, note=62, velocity=60, time=0),
    Message('note_on', channel=0, note=47, velocity=60, time=0),
    Message('note_on', channel=0, note=67, velocity=60, time=0),
    Message('note_on', channel=0, note=43, velocity=60, time=0),
    Message('note_on', channel=0, note=55, velocity=60, time=0),
    Message('note_on', channel=0, note=59, velocity=0, time=59),
    Message('note_on', channel=0, note=62, velocity=0, time=0),
    Message('note_on', channel=0, note=47, velocity=0, time=0),
    Message('note_on', channel=0, note=67, velocity=0, time=0),
    Message('note_on', channel=0, note=43, velocity=0, time=0),
    Message('note_on', channel=0, note=55, velocity=0, time=0),
    Message('note_on', channel=0, note=47, velocity=60, time=1),
    Message('note_on', channel=0, note=43, velocity=60, time=0),
    Message('note_on', channel=0, note=59, velocity=60, time=0),
    Message('note_on', channel=0, note=67, velocity=60, time=0),
    Message('note_on', channel=0, note=55, velocity=60, time=0),
    Message('note_on', channel=0, note=62, velocity=60, time=0),
    Message('note_on', channel=0, note=47, velocity=0, time=59),
    Message('note_on', channel=0, note=43, velocity=0, time=0),
    Message('note_on', channel=0, note=59, velocity=0, time=0),
    Message('note_on', channel=0, note=67, velocity=0, time=0),
    Message('note_on', channel=0, note=55, velocity=0, time=0),
    Message('note_on', channel=0, note=62, velocity=0, time=0),
    Message('note_on', channel=0, note=66, velocity=60, time=1),
    Message('note_on', channel=0, note=62, velocity=60, time=0),
    Message('note_on', channel=0, note=57, velocity=60, time=0),
    Message('note_on', channel=0, note=45, velocity=60, time=0),
    Message('note_on', channel=0, note=50, velocity=60, time=0),
    Message('note_on', channel=0, note=69, velocity=60, time=0),
    Message('control_change', channel=0, control=7, value=33, time=0),
    Message('note_on', channel=0, note=66, velocity=0, time=29),
    Message('note_on', channel=0, note=62, velocity=0, time=0),
    Message('note_on', channel=0, note=57, velocity=0, time=0),
    Message('note_on', channel=0, note=45, velocity=0, time=0),
    Message('note_on', channel=0, note=50, velocity=0, time=0),
    Message('note_on', channel=0, note=69, velocity=0, time=0),
    Message('note_on', channel=0, note=45, velocity=60, time=1),
    Message('note_on', channel=0, note=50, velocity=60, time=0),
    Message('note_on', channel=0, note=66, velocity=60, time=0),
    Message('note_on', channel=0, note=57, velocity=60, time=0),
    Message('note_on', channel=0, note=69, velocity=60, time=0),
    Message('note_on', channel=0, note=62, velocity=60, time=0),
    Message('note_on', channel=0, note=45, velocity=0, time=59),
    Message('note_on', channel=0, note=50, velocity=0, time=0),
    Message('note_on', channel=0, note=66, velocity=0, time=0),
    Message('note_on', channel=0, note=57, velocity=0, time=0),
    Message('note_on', channel=0, note=69, velocity=0, time=0),
    Message('note_on', channel=0, note=62, velocity=0, time=0),
    Message('note_on', channel=0, note=62, velocity=60, time=1),
    Message('note_on', channel=0, note=50, velocity=60, time=0),
    Message('note_on', channel=0, note=57, velocity=60, time=0),
    Message('note_on', channel=0, note=69, velocity=60, time=0),
    Message('note_on', channel=0, note=66, velocity=60, time=0),
    Message('note_on', channel=0, note=45, velocity=60, time=0),
    Message('note_on', channel=0, note=62, velocity=0, time=29),
    Message('note_on', channel=0, note=50, velocity=0, time=0),
    Message('note_on', channel=0, note=57, velocity=0, time=0),
    Message('note_on', channel=0, note=69, velocity=0, time=0),
    Message('note_on', channel=0, note=66, velocity=0, time=0),
    Message('note_on', channel=0, note=45, velocity=0, time=0),
    Message('note_on', channel=0, note=45, velocity=60, time=1),
    Message('note_on', channel=0, note=57, velocity=60, time=0),
    Message('note_on', channel=0, note=66, velocity=60, time=0),
    Message('note_on', channel=0, note=62, velocity=60, time=0),
    Message('note_on', channel=0, note=69, velocity=60, time=0),
    Message('control_change', channel=0, control=7, value=30, time=0),
    Message('note_on', channel=0, note=50, velocity=60, time=0),
    Message('note_on', channel=0, note=45, velocity=0, time=59),
    Message('note_on', channel=0, note=57, velocity=0, time=0),
    Message('note_on', channel=0, note=66, velocity=0, time=0),
    Message('note_on', channel=0, note=62, velocity=0, time=0),
    Message('note_on', channel=0, note=69, velocity=0, time=0),
    Message('note_on', channel=0, note=50, velocity=0, time=0),
    Message('note_on', channel=0, note=45, velocity=60, time=1),
    Message('note_on', channel=0, note=57, velocity=60, time=0),
    Message('note_on', channel=0, note=62, velocity=60, time=0),
    Message('note_on', channel=0, note=50, velocity=60, time=0),
    Message('note_on', channel=0, note=69, velocity=60, time=0),
    Message('note_on', channel=0, note=66, velocity=60, time=0),
    Message('note_on', channel=0, note=45, velocity=0, time=29),
    Message('note_on', channel=0, note=57, velocity=0, time=0),
    Message('note_on', channel=0, note=62, velocity=0, time=0),
    Message('note_on', channel=0, note=50, velocity=0, time=0),
    Message('note_on', channel=0, note=69, velocity=0, time=0),
    Message('note_on', channel=0, note=66, velocity=0, time=0),
    Message('note_on', channel=0, note=69, velocity=60, time=1),
    Message('note_on', channel=0, note=66, velocity=60, time=0),
    Message('note_on', channel=0, note=62, velocity=60, time=0),
    Message('note_on', channel=0, note=50, velocity=60, time=0),
    Message('note_on', channel=0, note=45, velocity=60, time=0),
    Message('note_on', channel=0, note=57, velocity=60, time=0),
    Message('control_change', channel=0, control=7, value=27, time=30),
    Message('note_on', channel=0, note=69, velocity=0, time=29),
    Message('note_on', channel=0, note=66, velocity=0, time=0),
    Message('note_on', channel=0, note=62, velocity=0, time=0),
    Message('note_on', channel=0, note=50, velocity=0, time=0),
    Message('note_on', channel=0, note=45, velocity=0, time=0),
    Message('note_on', channel=0, note=57, velocity=0, time=0),
    Message('note_on', channel=0, note=50, velocity=60, time=1),
    Message('note_on', channel=0, note=66, velocity=60, time=0),
    Message('note_on', channel=0, note=69, velocity=60, time=0),
    Message('note_on', channel=0, note=57, velocity=60, time=0),
    Message('note_on', channel=0, note=62, velocity=60, time=0),
    Message('note_on', channel=0, note=45, velocity=60, time=0),
    Message('note_on', channel=0, note=50, velocity=0, time=29),
    Message('note_on', channel=0, note=66, velocity=0, time=0),
    Message('note_on', channel=0, note=69, velocity=0, time=0),
    Message('note_on', channel=0, note=57, velocity=0, time=0),
    Message('note_on', channel=0, note=62, velocity=0, time=0),
    Message('note_on', channel=0, note=45, velocity=0, time=0),
    Message('note_on', channel=0, note=50, velocity=60, time=1),
    Message('note_on', channel=0, note=62, velocity=60, time=0),
    Message('note_on', channel=0, note=69, velocity=60, time=0),
    Message('note_on', channel=0, note=45, velocity=60, time=0),
    Message('note_on', channel=0, note=57, velocity=60, time=0),
    Message('note_on', channel=0, note=66, velocity=60, time=0),
    Message('note_on', channel=0, note=50, velocity=0, time=59),
    Message('note_on', channel=0, note=62, velocity=0, time=0),
    Message('note_on', channel=0, note=69, velocity=0, time=0),
    Message('note_on', channel=0, note=45, velocity=0, time=0),
    Message('note_on', channel=0, note=57, velocity=0, time=0),
    Message('note_on', channel=0, note=66, velocity=0, time=0),
    Message('note_on', channel=0, note=50, velocity=60, time=1),
    Message('note_on', channel=0, note=66, velocity=60, time=0),
    Message('note_on', channel=0, note=69, velocity=60, time=0),
    Message('note_on', channel=0, note=62, velocity=60, time=0),
    Message('control_change', channel=0, control=7, value=24, time=0),
    Message('note_on', channel=0, note=45, velocity=60, time=0),
    Message('note_on', channel=0, note=57, velocity=60, time=0),
    Message('note_on', channel=0, note=50, velocity=0, time=59),
    Message('note_on', channel=0, note=66, velocity=0, time=0),
    Message('note_on', channel=0, note=69, velocity=0, time=0),
    Message('note_on', channel=0, note=62, velocity=0, time=0),
    Message('note_on', channel=0, note=45, velocity=0, time=0),
    Message('note_on', channel=0, note=57, velocity=0, time=0),
    Message('note_on', channel=0, note=69, velocity=60, time=1),
    Message('note_on', channel=0, note=50, velocity=60, time=0),
    Message('note_on', channel=0, note=66, velocity=60, time=0),
    Message('note_on', channel=0, note=45, velocity=60, time=0),
    Message('note_on', channel=0, note=62, velocity=60, time=0),
    Message('note_on', channel=0, note=57, velocity=60, time=0),
    Message('note_on', channel=0, note=69, velocity=0, time=59),
    Message('note_on', channel=0, note=50, velocity=0, time=0),
    Message('note_on', channel=0, note=66, velocity=0, time=0),
    Message('note_on', channel=0, note=45, velocity=0, time=0),
    Message('note_on', channel=0, note=62, velocity=0, time=0),
    Message('note_on', channel=0, note=57, velocity=0, time=0),
    Message('note_on', channel=0, note=59, velocity=60, time=1),
    Message('note_on', channel=0, note=55, velocity=60, time=0),
    Message('note_on', channel=0, note=40, velocity=60, time=0),
    Message('note_on', channel=0, note=45, velocity=60, time=0),
    Message('note_on', channel=0, note=64, velocity=60, time=0),
    Message('control_change', channel=0, control=7, value=21, time=0),
    Message('note_on', channel=0, note=52, velocity=60, time=0),
    Message('note_on', channel=0, note=59, velocity=0, time=29),
    Message('note_on', channel=0, note=55, velocity=0, time=0),
    Message('note_on', channel=0, note=40, velocity=0, time=0),
    Message('note_on', channel=0, note=45, velocity=0, time=0),
    Message('note_on', channel=0, note=64, velocity=0, time=0),
    Message('note_on', channel=0, note=52, velocity=0, time=0),
    Message('note_on', channel=0, note=45, velocity=60, time=1),
    Message('note_on', channel=0, note=55, velocity=60, time=0),
    Message('note_on', channel=0, note=40, velocity=60, time=0),
    Message('note_on', channel=0, note=59, velocity=60, time=0),
    Message('note_on', channel=0, note=64, velocity=60, time=0),
    Message('note_on', channel=0, note=52, velocity=60, time=0),
    Message('note_on', channel=0, note=45, velocity=0, time=59),
    Message('note_on', channel=0, note=55, velocity=0, time=0),
    Message('note_on', channel=0, note=40, velocity=0, time=0),
    Message('note_on', channel=0, note=59, velocity=0, time=0),
    Message('note_on', channel=0, note=64, velocity=0, time=0),
    Message('note_on', channel=0, note=52, velocity=0, time=0),
    Message('note_on', channel=0, note=45, velocity=60, time=1),
    Message('note_on', channel=0, note=52, velocity=60, time=0),
    Message('note_on', channel=0, note=40, velocity=60, time=0),
    Message('note_on', channel=0, note=55, velocity=60, time=0),
    Message('note_on', channel=0, note=64, velocity=60, time=0),
    Message('note_on', channel=0, note=59, velocity=60, time=0),
    Message('note_on', channel=0, note=45, velocity=0, time=29),
    Message('note_on', channel=0, note=52, velocity=0, time=0),
    Message('note_on', channel=0, note=40, velocity=0, time=0),
    Message('note_on', channel=0, note=55, velocity=0, time=0),
    Message('note_on', channel=0, note=64, velocity=0, time=0),
    Message('note_on', channel=0, note=59, velocity=0, time=0),
    Message('note_on', channel=0, note=59, velocity=60, time=1),
    Message('note_on', channel=0, note=64, velocity=60, time=0),
    Message('note_on', channel=0, note=52, velocity=60, time=0),
    Message('note_on', channel=0, note=40, velocity=60, time=0),
    Message('note_on', channel=0, note=55, velocity=60, time=0),
    Message('note_on', channel=0, note=45, velocity=60, time=0),
    Message('control_change', channel=0, control=7, value=18, time=0),
    Message('note_on', channel=0, note=59, velocity=0, time=59),
    Message('note_on', channel=0, note=64, velocity=0, time=0),
    Message('note_on', channel=0, note=52, velocity=0, time=0),
    Message('note_on', channel=0, note=40, velocity=0, time=0),
    Message('note_on', channel=0, note=55, velocity=0, time=0),
    Message('note_on', channel=0, note=45, velocity=0, time=0),
    Message('note_on', channel=0, note=45, velocity=60, time=1),
    Message('note_on', channel=0, note=55, velocity=60, time=0),
    Message('note_on', channel=0, note=64, velocity=60, time=0),
    Message('note_on', channel=0, note=52, velocity=60, time=0),
    Message('note_on', channel=0, note=40, velocity=60, time=0),
    Message('note_on', channel=0, note=59, velocity=60, time=0),
    Message('note_on', channel=0, note=45, velocity=0, time=29),
    Message('note_on', channel=0, note=55, velocity=0, time=0),
    Message('note_on', channel=0, note=64, velocity=0, time=0),
    Message('note_on', channel=0, note=52, velocity=0, time=0),
    Message('note_on', channel=0, note=40, velocity=0, time=0),
    Message('note_on', channel=0, note=59, velocity=0, time=0),
    Message('note_on', channel=0, note=45, velocity=60, time=1),
    Message('note_on', channel=0, note=40, velocity=60, time=0),
    Message('note_on', channel=0, note=64, velocity=60, time=0),
    Message('note_on', channel=0, note=59, velocity=60, time=0),
    Message('note_on', channel=0, note=52, velocity=60, time=0),
    Message('note_on', channel=0, note=55, velocity=60, time=0),
    Message('control_change', channel=0, control=7, value=15, time=30),
    Message('note_on', channel=0, note=45, velocity=0, time=29),
    Message('note_on', channel=0, note=40, velocity=0, time=0),
    Message('note_on', channel=0, note=64, velocity=0, time=0),
    Message('note_on', channel=0, note=59, velocity=0, time=0),
    Message('note_on', channel=0, note=52, velocity=0, time=0),
    Message('note_on', channel=0, note=55, velocity=0, time=0),
    Message('note_on', channel=0, note=45, velocity=60, time=1),
    Message('note_on', channel=0, note=55, velocity=60, time=0),
    Message('note_on', channel=0, note=64, velocity=60, time=0),
    Message('note_on', channel=0, note=59, velocity=60, time=0),
    Message('note_on', channel=0, note=40, velocity=60, time=0),
    Message('note_on', channel=0, note=52, velocity=60, time=0),
    Message('note_on', channel=0, note=45, velocity=0, time=29),
    Message('note_on', channel=0, note=55, velocity=0, time=0),
    Message('note_on', channel=0, note=64, velocity=0, time=0),
    Message('note_on', channel=0, note=59, velocity=0, time=0),
    Message('note_on', channel=0, note=40, velocity=0, time=0),
    Message('note_on', channel=0, note=52, velocity=0, time=0),
    Message('note_on', channel=0, note=55, velocity=60, time=1),
    Message('note_on', channel=0, note=40, velocity=60, time=0),
    Message('note_on', channel=0, note=52, velocity=60, time=0),
    Message('note_on', channel=0, note=64, velocity=60, time=0),
    Message('note_on', channel=0, note=59, velocity=60, time=0),
    Message('note_on', channel=0, note=45, velocity=60, time=0),
    Message('note_on', channel=0, note=55, velocity=0, time=59),
    Message('note_on', channel=0, note=40, velocity=0, time=0),
    Message('note_on', channel=0, note=52, velocity=0, time=0),
    Message('note_on', channel=0, note=64, velocity=0, time=0),
    Message('note_on', channel=0, note=59, velocity=0, time=0),
    Message('note_on', channel=0, note=45, velocity=0, time=0),
    Message('note_on', channel=0, note=45, velocity=60, time=1),
    Message('note_on', channel=0, note=64, velocity=60, time=0),
    Message('note_on', channel=0, note=40, velocity=60, time=0),
    Message('control_change', channel=0, control=7, value=12, time=0),
    Message('note_on', channel=0, note=55, velocity=60, time=0),
    Message('note_on', channel=0, note=59, velocity=60, time=0),
    Message('note_on', channel=0, note=52, velocity=60, time=0),
    Message('note_on', channel=0, note=45, velocity=0, time=59),
    Message('note_on', channel=0, note=64, velocity=0, time=0),
    Message('note_on', channel=0, note=40, velocity=0, time=0),
    Message('note_on', channel=0, note=55, velocity=0, time=0),
    Message('note_on', channel=0, note=59, velocity=0, time=0),
    Message('note_on', channel=0, note=52, velocity=0, time=0),
    Message('note_on', channel=0, note=55, velocity=60, time=1),
    Message('note_on', channel=0, note=40, velocity=60, time=0),
    Message('note_on', channel=0, note=45, velocity=60, time=0),
    Message('note_on', channel=0, note=59, velocity=60, time=0),
    Message('note_on', channel=0, note=52, velocity=60, time=0),
    Message('note_on', channel=0, note=64, velocity=60, time=0),
    Message('note_on', channel=0, note=55, velocity=0, time=59),
    Message('note_on', channel=0, note=40, velocity=0, time=0),
    Message('note_on', channel=0, note=45, velocity=0, time=0),
    Message('note_on', channel=0, note=59, velocity=0, time=0),
    Message('note_on', channel=0, note=52, velocity=0, time=0),
    Message('note_on', channel=0, note=64, velocity=0, time=0),
    Message('note_on', channel=0, note=58, velocity=60, time=1),
    Message('note_on', channel=0, note=61, velocity=60, time=0),
    Message('control_change', channel=0, control=7, value=9, time=0),
    Message('note_on', channel=0, note=49, velocity=60, time=0),
    Message('note_on', channel=0, note=66, velocity=60, time=0),
    Message('note_on', channel=0, note=54, velocity=60, time=0),
    Message('note_on', channel=0, note=42, velocity=60, time=0),
    Message('note_on', channel=0, note=58, velocity=0, time=29),
    Message('note_on', channel=0, note=61, velocity=0, time=0),
    Message('note_on', channel=0, note=49, velocity=0, time=0),
    Message('note_on', channel=0, note=66, velocity=0, time=0),
    Message('note_on', channel=0, note=54, velocity=0, time=0),
    Message('note_on', channel=0, note=42, velocity=0, time=0),
    Message('note_on', channel=0, note=66, velocity=60, time=1),
    Message('note_on', channel=0, note=54, velocity=60, time=0),
    Message('note_on', channel=0, note=58, velocity=60, time=0),
    Message('note_on', channel=0, note=42, velocity=60, time=0),
    Message('note_on', channel=0, note=49, velocity=60, time=0),
    Message('note_on', channel=0, note=61, velocity=60, time=0),
    Message('note_on', channel=0, note=66, velocity=0, time=59),
    Message('note_on', channel=0, note=54, velocity=0, time=0),
    Message('note_on', channel=0, note=58, velocity=0, time=0),
    Message('note_on', channel=0, note=42, velocity=0, time=0),
    Message('note_on', channel=0, note=49, velocity=0, time=0),
    Message('note_on', channel=0, note=61, velocity=0, time=0),
    Message('note_on', channel=0, note=66, velocity=60, time=1),
    Message('note_on', channel=0, note=58, velocity=60, time=0),
    Message('note_on', channel=0, note=49, velocity=60, time=0),
    Message('note_on', channel=0, note=54, velocity=60, time=0),
    Message('note_on', channel=0, note=42, velocity=60, time=0),
    Message('note_on', channel=0, note=61, velocity=60, time=0),
    Message('note_on', channel=0, note=66, velocity=0, time=29),
    Message('note_on', channel=0, note=58, velocity=0, time=0),
    Message('note_on', channel=0, note=49, velocity=0, time=0),
    Message('note_on', channel=0, note=54, velocity=0, time=0),
    Message('note_on', channel=0, note=42, velocity=0, time=0),
    Message('note_on', channel=0, note=61, velocity=0, time=0),
    Message('note_on', channel=0, note=42, velocity=60, time=1),
    Message('note_on', channel=0, note=61, velocity=60, time=0),
    Message('note_on', channel=0, note=54, velocity=60, time=0),
    Message('note_on', channel=0, note=49, velocity=60, time=0),
    Message('control_change', channel=0, control=7, value=6, time=0),
    Message('note_on', channel=0, note=58, velocity=60, time=0),
    Message('note_on', channel=0, note=66, velocity=60, time=0),
    Message('note_on', channel=0, note=42, velocity=0, time=59),
    Message('note_on', channel=0, note=61, velocity=0, time=0),
    Message('note_on', channel=0, note=54, velocity=0, time=0),
    Message('note_on', channel=0, note=49, velocity=0, time=0),
    Message('note_on', channel=0, note=58, velocity=0, time=0),
    Message('note_on', channel=0, note=66, velocity=0, time=0),
    Message('note_on', channel=0, note=42, velocity=60, time=1),
    Message('note_on', channel=0, note=54, velocity=60, time=0),
    Message('note_on', channel=0, note=58, velocity=60, time=0),
    Message('note_on', channel=0, note=49, velocity=60, time=0),
    Message('note_on', channel=0, note=66, velocity=60, time=0),
    Message('note_on', channel=0, note=61, velocity=60, time=0),
    Message('note_on', channel=0, note=42, velocity=0, time=29),
    Message('note_on', channel=0, note=54, velocity=0, time=0),
    Message('note_on', channel=0, note=58, velocity=0, time=0),
    Message('note_on', channel=0, note=49, velocity=0, time=0),
    Message('note_on', channel=0, note=66, velocity=0, time=0),
    Message('note_on', channel=0, note=61, velocity=0, time=0),
    Message('note_on', channel=0, note=66, velocity=60, time=1),
    Message('note_on', channel=0, note=58, velocity=60, time=0),
    Message('note_on', channel=0, note=49, velocity=60, time=0),
    Message('note_on', channel=0, note=42, velocity=60, time=0),
    Message('note_on', channel=0, note=54, velocity=60, time=0),
    Message('note_on', channel=0, note=61, velocity=60, time=0),
    Message('control_change', channel=0, control=7, value=3, time=30),
    Message('note_on', channel=0, note=66, velocity=0, time=29),
    Message('note_on', channel=0, note=58, velocity=0, time=0),
    Message('note_on', channel=0, note=49, velocity=0, time=0),
    Message('note_on', channel=0, note=42, velocity=0, time=0),
    Message('note_on', channel=0, note=54, velocity=0, time=0),
    Message('note_on', channel=0, note=61, velocity=0, time=0),
    Message('note_on', channel=0, note=54, velocity=60, time=1),
    Message('note_on', channel=0, note=66, velocity=60, time=0),
    Message('note_on', channel=0, note=42, velocity=60, time=0),
    Message('note_on', channel=0, note=49, velocity=60, time=0),
    Message('note_on', channel=0, note=61, velocity=60, time=0),
    Message('note_on', channel=0, note=58, velocity=60, time=0),
    Message('note_on', channel=0, note=54, velocity=0, time=29),
    Message('note_on', channel=0, note=66, velocity=0, time=0),
    Message('note_on', channel=0, note=42, velocity=0, time=0),
    Message('note_on', channel=0, note=49, velocity=0, time=0),
    Message('note_on', channel=0, note=61, velocity=0, time=0),
    Message('note_on', channel=0, note=58, velocity=0, time=0),
    Message('note_on', channel=0, note=49, velocity=60, time=1),
    Message('note_on', channel=0, note=61, velocity=60, time=0),
    Message('note_on', channel=0, note=54, velocity=60, time=0),
    Message('note_on', channel=0, note=58, velocity=60, time=0),
    Message('note_on', channel=0, note=66, velocity=60, time=0),
    Message('note_on', channel=0, note=42, velocity=60, time=0),
    Message('note_on', channel=0, note=49, velocity=0, time=59),
    Message('note_on', channel=0, note=61, velocity=0, time=0),
    Message('note_on', channel=0, note=54, velocity=0, time=0),
    Message('note_on', channel=0, note=58, velocity=0, time=0),
    Message('note_on', channel=0, note=66, velocity=0, time=0),
    Message('note_on', channel=0, note=42, velocity=0, time=0),
    Message('note_on', channel=0, note=66, velocity=60, time=1),
    Message('note_on', channel=0, note=58, velocity=60, time=0),
    Message('note_on', channel=0, note=42, velocity=60, time=0),
    Message('note_on', channel=0, note=54, velocity=60, time=0),
    Message('control_change', channel=0, control=7, value=0, time=0),
    Message('note_on', channel=0, note=49, velocity=60, time=0),
    Message('note_on', channel=0, note=61, velocity=60, time=0),
    Message('note_on', channel=0, note=66, velocity=0, time=59),
    Message('note_on', channel=0, note=58, velocity=0, time=0),
    Message('note_on', channel=0, note=42, velocity=0, time=0),
    Message('note_on', channel=0, note=54, velocity=0, time=0),
    Message('note_on', channel=0, note=49, velocity=0, time=0),
    Message('note_on', channel=0, note=61, velocity=0, time=0),
    Message('note_on', channel=0, note=49, velocity=60, time=1),
    Message('note_on', channel=0, note=66, velocity=60, time=0),
    Message('note_on', channel=0, note=61, velocity=60, time=0),
    Message('note_on', channel=0, note=42, velocity=60, time=0),
    Message('note_on', channel=0, note=58, velocity=60, time=0),
    Message('note_on', channel=0, note=54, velocity=60, time=0),
    Message('note_on', channel=0, note=49, velocity=0, time=59),
    Message('note_on', channel=0, note=66, velocity=0, time=0),
    Message('note_on', channel=0, note=61, velocity=0, time=0),
    Message('note_on', channel=0, note=42, velocity=0, time=0),
    Message('note_on', channel=0, note=58, velocity=0, time=0),
    Message('note_on', channel=0, note=54, velocity=0, time=0),
    MetaMessage('end_of_track', time=0)]),
  MidiTrack([
    MetaMessage('track_name', name='WinJammer Demo', time=0),
    MetaMessage('instrument_name', name='Sequenced by', time=0),
    MetaMessage('midi_port', port=0, time=0),
    Message('control_change', channel=1, control=7, value=90, time=0),
    Message('program_change', channel=1, program=2, time=0),
    Message('note_on', channel=1, note=59, velocity=60, time=0),
    Message('note_on', channel=1, note=59, velocity=0, time=59),
    Message('note_on', channel=1, note=59, velocity=60, time=1),
    Message('note_on', channel=1, note=59, velocity=0, time=29),
    Message('note_on', channel=1, note=62, velocity=60, time=1),
    Message('note_on', channel=1, note=62, velocity=0, time=29),
    Message('note_on', channel=1, note=59, velocity=60, time=1),
    Message('note_on', channel=1, note=59, velocity=0, time=29),
    Message('note_on', channel=1, note=54, velocity=60, time=1),
    Message('note_on', channel=1, note=54, velocity=0, time=59),
    Message('note_on', channel=1, note=54, velocity=60, time=1),
    Message('note_on', channel=1, note=54, velocity=0, time=29),
    Message('note_on', channel=1, note=59, velocity=60, time=1),
    Message('note_on', channel=1, note=59, velocity=0, time=119),
    Message('note_on', channel=1, note=62, velocity=60, time=1),
    Message('note_on', channel=1, note=62, velocity=0, time=59),
    Message('note_on', channel=1, note=64, velocity=60, time=1),
    Message('note_on', channel=1, note=64, velocity=0, time=59),
    Message('note_on', channel=1, note=54, velocity=60, time=1),
    Message('note_on', channel=1, note=54, velocity=0, time=59),
    Message('note_on', channel=1, note=61, velocity=60, time=1),
    Message('note_on', channel=1, note=61, velocity=0, time=29),
    Message('note_on', channel=1, note=54, velocity=60, time=1),
    Message('note_on', channel=1, note=54, velocity=0, time=29),
    Message('note_on', channel=1, note=58, velocity=60, time=1),
    Message('note_on', channel=1, note=58, velocity=0, time=29),
    Message('note_on', channel=1, note=61, velocity=60, time=1),
    Message('note_on', channel=1, note=61, velocity=0, time=59),
    Message('note_on', channel=1, note=54, velocity=60, time=1),
    Message('note_on', channel=1, note=54, velocity=0, time=29),
    Message('note_on', channel=1, note=58, velocity=60, time=1),
    Message('note_on', channel=1, note=58, velocity=0, time=239),
    Message('note_on', channel=1, note=57, velocity=60, time=1),
    Message('note_on', channel=1, note=57, velocity=0, time=59),
    Message('note_on', channel=1, note=57, velocity=60, time=1),
    Message('note_on', channel=1, note=57, velocity=0, time=29),
    Message('note_on', channel=1, note=57, velocity=60, time=1),
    Message('note_on', channel=1, note=57, velocity=0, time=29),
    Message('note_on', channel=1, note=57, velocity=60, time=1),
    Message('note_on', channel=1, note=59, velocity=60, time=30),
    Message('note_on', channel=1, note=57, velocity=0, time=29),
    Message('note_on', channel=1, note=59, velocity=0, time=30),
    Message('note_on', channel=1, note=57, velocity=60, time=1),
    Message('note_on', channel=1, note=57, velocity=0, time=29),
    Message('note_on', channel=1, note=61, velocity=60, time=1),
    Message('note_on', channel=1, note=61, velocity=0, time=59),
    Message('note_on', channel=1, note=57, velocity=60, time=1),
    Message('note_on', channel=1, note=57, velocity=0, time=29),
    Message('note_on', channel=1, note=59, velocity=60, time=1),
    Message('note_on', channel=1, note=59, velocity=0, time=29),
    Message('note_on', channel=1, note=52, velocity=60, time=1),
    Message('note_on', channel=1, note=52, velocity=0, time=59),
    Message('note_on', channel=1, note=52, velocity=60, time=1),
    Message('note_on', channel=1, note=52, velocity=0, time=29),
    Message('note_on', channel=1, note=54, velocity=60, time=1),
    Message('note_on', channel=1, note=54, velocity=0, time=29),
    Message('note_on', channel=1, note=56, velocity=60, time=1),
    Message('note_on', channel=1, note=56, velocity=0, time=59),
    Message('note_on', channel=1, note=56, velocity=60, time=1),
    Message('note_on', channel=1, note=56, velocity=0, time=29),
    Message('note_on', channel=1, note=59, velocity=60, time=1),
    Message('note_on', channel=1, note=59, velocity=0, time=29),
    Message('note_on', channel=1, note=56, velocity=60, time=1),
    Message('note_on', channel=1, note=56, velocity=0, time=29),
    Message('note_on', channel=1, note=59, velocity=60, time=1),
    Message('note_on', channel=1, note=59, velocity=0, time=59),
    Message('note_on', channel=1, note=56, velocity=60, time=1),
    Message('note_on', channel=1, note=56, velocity=0, time=29),
    Message('note_on', channel=1, note=64, velocity=60, time=1),
    Message('note_on', channel=1, note=64, velocity=0, time=119),
    Message('note_on', channel=1, note=55, velocity=60, time=121),
    Message('note_on', channel=1, note=55, velocity=0, time=59),
    Message('note_on', channel=1, note=55, velocity=60, time=1),
    Message('note_on', channel=1, note=55, velocity=0, time=29),
    Message('note_on', channel=1, note=50, velocity=60, time=1),
    Message('note_on', channel=1, note=50, velocity=0, time=29),
    Message('note_on', channel=1, note=55, velocity=60, time=1),
    Message('note_on', channel=1, note=55, velocity=0, time=29),
    Message('note_on', channel=1, note=57, velocity=60, time=1),
    Message('note_on', channel=1, note=57, velocity=0, time=59),
    Message('note_on', channel=1, note=55, velocity=60, time=1),
    Message('note_on', channel=1, note=55, velocity=0, time=29),
    Message('note_on', channel=1, note=59, velocity=60, time=1),
    Message('note_on', channel=1, note=59, velocity=0, time=119),
    Message('note_on', channel=1, note=57, velocity=60, time=1),
    Message('note_on', channel=1, note=57, velocity=0, time=59),
    Message('note_on', channel=1, note=55, velocity=60, time=1),
    Message('note_on', channel=1, note=55, velocity=0, time=59),
    Message('note_on', channel=1, note=50, velocity=60, time=1),
    Message('note_on', channel=1, note=50, velocity=0, time=59),
    Message('note_on', channel=1, note=50, velocity=60, time=1),
    Message('note_on', channel=1, note=50, velocity=0, time=29),
    Message('note_on', channel=1, note=45, velocity=60, time=1),
    Message('note_on', channel=1, note=45, velocity=0, time=29),
    Message('note_on', channel=1, note=50, velocity=60, time=1),
    Message('note_on', channel=1, note=50, velocity=0, time=29),
    Message('note_on', channel=1, note=52, velocity=60, time=1),
    Message('note_on', channel=1, note=52, velocity=0, time=59),
    Message('note_on', channel=1, note=50, velocity=60, time=1),
    Message('note_on', channel=1, note=50, velocity=0, time=29),
    Message('note_on', channel=1, note=54, velocity=60, time=1),
    Message('note_on', channel=1, note=54, velocity=0, time=239),
    Message('note_on', channel=1, note=52, velocity=60, time=1),
    Message('note_on', channel=1, note=52, velocity=0, time=29),
    Message('note_on', channel=1, note=52, velocity=60, time=31),
    Message('note_on', channel=1, note=52, velocity=0, time=29),
    Message('note_on', channel=1, note=54, velocity=60, time=1),
    Message('note_on', channel=1, note=54, velocity=0, time=29),
    Message('note_on', channel=1, note=52, velocity=60, time=1),
    Message('note_on', channel=1, note=52, velocity=0, time=29),
    Message('note_on', channel=1, note=55, velocity=60, time=1),
    Message('note_on', channel=1, note=55, velocity=0, time=59),
    Message('note_on', channel=1, note=52, velocity=60, time=1),
    Message('note_on', channel=1, note=52, velocity=0, time=29),
    Message('note_on', channel=1, note=59, velocity=60, time=1),
    Message('note_on', channel=1, note=59, velocity=0, time=239),
    Message('note_on', channel=1, note=54, velocity=60, time=1),
    Message('note_on', channel=1, note=54, velocity=0, time=59),
    Message('note_on', channel=1, note=54, velocity=60, time=1),
    Message('note_on', channel=1, note=54, velocity=0, time=29),
    Message('note_on', channel=1, note=55, velocity=60, time=1),
    Message('note_on', channel=1, note=55, velocity=0, time=29),
    Message('note_on', channel=1, note=54, velocity=60, time=1),
    Message('note_on', channel=1, note=54, velocity=0, time=29),
    Message('note_on', channel=1, note=55, velocity=60, time=1),
    Message('note_on', channel=1, note=55, velocity=0, time=59),
    Message('note_on', channel=1, note=54, velocity=60, time=1),
    Message('note_on', channel=1, note=54, velocity=0, time=29),
    Message('note_on', channel=1, note=61, velocity=60, time=1),
    Message('note_on', channel=1, note=61, velocity=0, time=239),
    Message('note_on', channel=1, note=59, velocity=60, time=1),
    Message('note_on', channel=1, note=59, velocity=0, time=59),
    Message('note_on', channel=1, note=59, velocity=60, time=1),
    Message('note_on', channel=1, note=59, velocity=0, time=29),
    Message('note_on', channel=1, note=62, velocity=60, time=1),
    Message('note_on', channel=1, note=62, velocity=0, time=29),
    Message('note_on', channel=1, note=59, velocity=60, time=1),
    Message('note_on', channel=1, note=59, velocity=0, time=29),
    Message('note_on', channel=1, note=54, velocity=60, time=1),
    Message('note_on', channel=1, note=54, velocity=0, time=59),
    Message('note_on', channel=1, note=54, velocity=60, time=1),
    Message('note_on', channel=1, note=54, velocity=0, time=29),
    Message('note_on', channel=1, note=59, velocity=60, time=1),
    Message('note_on', channel=1, note=59, velocity=0, time=119),
    Message('note_on', channel=1, note=62, velocity=60, time=1),
    Message('note_on', channel=1, note=62, velocity=0, time=59),
    Message('note_on', channel=1, note=64, velocity=60, time=1),
    Message('note_on', channel=1, note=64, velocity=0, time=59),
    Message('note_on', channel=1, note=54, velocity=60, time=1),
    Message('note_on', channel=1, note=54, velocity=0, time=59),
    Message('note_on', channel=1, note=61, velocity=60, time=1),
    Message('note_on', channel=1, note=61, velocity=0, time=29),
    Message('note_on', channel=1, note=54, velocity=60, time=1),
    Message('note_on', channel=1, note=54, velocity=0, time=29),
    Message('note_on', channel=1, note=58, velocity=60, time=1),
    Message('note_on', channel=1, note=58, velocity=0, time=29),
    Message('note_on', channel=1, note=61, velocity=60, time=1),
    Message('note_on', channel=1, note=61, velocity=0, time=59),
    Message('note_on', channel=1, note=54, velocity=60, time=1),
    Message('note_on', channel=1, note=54, velocity=0, time=29),
    Message('note_on', channel=1, note=58, velocity=60, time=1),
    Message('note_on', channel=1, note=58, velocity=0, time=239),
    Message('note_on', channel=1, note=57, velocity=60, time=1),
    Message('note_on', channel=1, note=57, velocity=0, time=59),
    Message('note_on', channel=1, note=57, velocity=60, time=1),
    Message('note_on', channel=1, note=57, velocity=0, time=29),
    Message('note_on', channel=1, note=57, velocity=60, time=1),
    Message('note_on', channel=1, note=57, velocity=0, time=29),
    Message('note_on', channel=1, note=57, velocity=60, time=1),
    Message('note_on', channel=1, note=59, velocity=60, time=30),
    Message('note_on', channel=1, note=57, velocity=0, time=29),
    Message('note_on', channel=1, note=59, velocity=0, time=30),
    Message('note_on', channel=1, note=57, velocity=60, time=1),
    Message('note_on', channel=1, note=57, velocity=0, time=29),
    Message('note_on', channel=1, note=57, velocity=60, time=1),
    Message('note_on', channel=1, note=57, velocity=0, time=59),
    Message('note_on', channel=1, note=57, velocity=60, time=1),
    Message('note_on', channel=1, note=57, velocity=0, time=29),
    Message('note_on', channel=1, note=59, velocity=60, time=1),
    Message('note_on', channel=1, note=59, velocity=0, time=29),
    Message('note_on', channel=1, note=52, velocity=60, time=1),
    Message('note_on', channel=1, note=52, velocity=0, time=59),
    Message('note_on', channel=1, note=52, velocity=60, time=1),
    Message('note_on', channel=1, note=52, velocity=0, time=29),
    Message('note_on', channel=1, note=54, velocity=60, time=1),
    Message('note_on', channel=1, note=54, velocity=0, time=29),
    Message('note_on', channel=1, note=56, velocity=60, time=1),
    Message('note_on', channel=1, note=56, velocity=0, time=59),
    Message('note_on', channel=1, note=56, velocity=60, time=1),
    Message('note_on', channel=1, note=56, velocity=0, time=29),
    Message('note_on', channel=1, note=59, velocity=60, time=1),
    Message('note_on', channel=1, note=59, velocity=0, time=29),
    Message('note_on', channel=1, note=56, velocity=60, time=1),
    Message('note_on', channel=1, note=56, velocity=0, time=29),
    Message('note_on', channel=1, note=59, velocity=60, time=1),
    Message('note_on', channel=1, note=59, velocity=0, time=59),
    Message('note_on', channel=1, note=56, velocity=60, time=1),
    Message('note_on', channel=1, note=56, velocity=0, time=29),
    Message('note_on', channel=1, note=64, velocity=60, time=1),
    Message('note_on', channel=1, note=64, velocity=0, time=119),
    Message('note_on', channel=1, note=55, velocity=60, time=121),
    Message('note_on', channel=1, note=55, velocity=0, time=59),
    Message('note_on', channel=1, note=55, velocity=60, time=1),
    Message('note_on', channel=1, note=55, velocity=0, time=29),
    Message('note_on', channel=1, note=50, velocity=60, time=1),
    Message('note_on', channel=1, note=50, velocity=0, time=29),
    Message('note_on', channel=1, note=55, velocity=60, time=1),
    Message('note_on', channel=1, note=55, velocity=0, time=29),
    Message('note_on', channel=1, note=57, velocity=60, time=1),
    Message('note_on', channel=1, note=57, velocity=0, time=59),
    Message('note_on', channel=1, note=55, velocity=60, time=1),
    Message('note_on', channel=1, note=55, velocity=0, time=29),
    Message('note_on', channel=1, note=59, velocity=60, time=1),
    Message('note_on', channel=1, note=59, velocity=0, time=119),
    Message('note_on', channel=1, note=57, velocity=60, time=1),
    Message('note_on', channel=1, note=57, velocity=0, time=59),
    Message('note_on', channel=1, note=55, velocity=60, time=1),
    Message('note_on', channel=1, note=55, velocity=0, time=59),
    Message('note_on', channel=1, note=50, velocity=60, time=1),
    Message('note_on', channel=1, note=50, velocity=0, time=59),
    Message('note_on', channel=1, note=50, velocity=60, time=1),
    Message('note_on', channel=1, note=50, velocity=0, time=29),
    Message('note_on', channel=1, note=45, velocity=60, time=1),
    Message('note_on', channel=1, note=45, velocity=0, time=29),
    Message('note_on', channel=1, note=50, velocity=60, time=1),
    Message('note_on', channel=1, note=50, velocity=0, time=29),
    Message('note_on', channel=1, note=52, velocity=60, time=1),
    Message('note_on', channel=1, note=52, velocity=0, time=59),
    Message('note_on', channel=1, note=50, velocity=60, time=1),
    Message('note_on', channel=1, note=50, velocity=0, time=29),
    Message('note_on', channel=1, note=54, velocity=60, time=1),
    Message('note_on', channel=1, note=54, velocity=0, time=239),
    Message('note_on', channel=1, note=52, velocity=60, time=1),
    Message('note_on', channel=1, note=52, velocity=0, time=59),
    Message('note_on', channel=1, note=52, velocity=60, time=1),
    Message('note_on', channel=1, note=52, velocity=0, time=29),
    Message('note_on', channel=1, note=54, velocity=60, time=1),
    Message('note_on', channel=1, note=54, velocity=0, time=29),
    Message('note_on', channel=1, note=52, velocity=60, time=1),
    Message('note_on', channel=1, note=52, velocity=0, time=29),
    Message('note_on', channel=1, note=55, velocity=60, time=1),
    Message('note_on', channel=1, note=55, velocity=0, time=59),
    Message('note_on', channel=1, note=52, velocity=60, time=1),
    Message('note_on', channel=1, note=52, velocity=0, time=29),
    Message('note_on', channel=1, note=59, velocity=60, time=1),
    Message('note_on', channel=1, note=59, velocity=0, time=239),
    Message('note_on', channel=1, note=54, velocity=60, time=1),
    Message('note_on', channel=1, note=54, velocity=0, time=59),
    Message('note_on', channel=1, note=54, velocity=60, time=1),
    Message('note_on', channel=1, note=54, velocity=0, time=29),
    Message('note_on', channel=1, note=55, velocity=60, time=1),
    Message('note_on', channel=1, note=55, velocity=0, time=29),
    Message('note_on', channel=1, note=54, velocity=60, time=1),
    Message('note_on', channel=1, note=54, velocity=0, time=29),
    Message('note_on', channel=1, note=55, velocity=60, time=1),
    Message('note_on', channel=1, note=55, velocity=0, time=59),
    Message('note_on', channel=1, note=54, velocity=60, time=1),
    Message('note_on', channel=1, note=54, velocity=0, time=29),
    Message('note_on', channel=1, note=61, velocity=60, time=1),
    Message('note_on', channel=1, note=61, velocity=0, time=239),
    Message('control_change', channel=1, control=7, value=90, time=1),
    Message('note_on', channel=1, note=59, velocity=60, time=0),
    Message('note_on', channel=1, note=59, velocity=0, time=59),
    Message('note_on', channel=1, note=59, velocity=60, time=1),
    Message('note_on', channel=1, note=59, velocity=0, time=29),
    Message('note_on', channel=1, note=62, velocity=60, time=1),
    Message('note_on', channel=1, note=62, velocity=0, time=29),
    Message('note_on', channel=1, note=59, velocity=60, time=1),
    Message('note_on', channel=1, note=59, velocity=0, time=29),
    Message('note_on', channel=1, note=54, velocity=60, time=1),
    Message('note_on', channel=1, note=54, velocity=0, time=59),
    Message('note_on', channel=1, note=54, velocity=60, time=1),
    Message('note_on', channel=1, note=54, velocity=0, time=29),
    Message('note_on', channel=1, note=59, velocity=60, time=1),
    Message('note_on', channel=1, note=59, velocity=0, time=119),
    Message('note_on', channel=1, note=62, velocity=60, time=1),
    Message('note_on', channel=1, note=62, velocity=0, time=59),
    Message('note_on', channel=1, note=64, velocity=60, time=1),
    Message('note_on', channel=1, note=64, velocity=0, time=59),
    Message('note_on', channel=1, note=54, velocity=60, time=1),
    Message('note_on', channel=1, note=54, velocity=0, time=59),
    Message('note_on', channel=1, note=61, velocity=60, time=1),
    Message('note_on', channel=1, note=61, velocity=0, time=29),
    Message('note_on', channel=1, note=54, velocity=60, time=1),
    Message('note_on', channel=1, note=54, velocity=0, time=29),
    Message('note_on', channel=1, note=58, velocity=60, time=1),
    Message('note_on', channel=1, note=58, velocity=0, time=29),
    Message('note_on', channel=1, note=61, velocity=60, time=1),
    Message('note_on', channel=1, note=61, velocity=0, time=59),
    Message('note_on', channel=1, note=54, velocity=60, time=1),
    Message('note_on', channel=1, note=54, velocity=0, time=29),
    Message('note_on', channel=1, note=58, velocity=60, time=1),
    Message('note_on', channel=1, note=58, velocity=0, time=239),
    Message('note_on', channel=1, note=57, velocity=60, time=1),
    Message('note_on', channel=1, note=57, velocity=0, time=59),
    Message('note_on', channel=1, note=57, velocity=60, time=1),
    Message('note_on', channel=1, note=57, velocity=0, time=29),
    Message('note_on', channel=1, note=57, velocity=60, time=1),
    Message('note_on', channel=1, note=57, velocity=0, time=29),
    Message('note_on', channel=1, note=57, velocity=60, time=1),
    Message('note_on', channel=1, note=59, velocity=60, time=30),
    Message('note_on', channel=1, note=57, velocity=0, time=29),
    Message('note_on', channel=1, note=59, velocity=0, time=30),
    Message('note_on', channel=1, note=57, velocity=60, time=1),
    Message('note_on', channel=1, note=57, velocity=0, time=29),
    Message('note_on', channel=1, note=57, velocity=60, time=1),
    Message('note_on', channel=1, note=57, velocity=0, time=59),
    Message('note_on', channel=1, note=57, velocity=60, time=1),
    Message('note_on', channel=1, note=57, velocity=0, time=29),
    Message('note_on', channel=1, note=59, velocity=60, time=1),
    Message('note_on', channel=1, note=59, velocity=0, time=29),
    Message('note_on', channel=1, note=52, velocity=60, time=1),
    Message('note_on', channel=1, note=52, velocity=0, time=59),
    Message('note_on', channel=1, note=52, velocity=60, time=1),
    Message('note_on', channel=1, note=52, velocity=0, time=29),
    Message('note_on', channel=1, note=54, velocity=60, time=1),
    Message('note_on', channel=1, note=54, velocity=0, time=29),
    Message('note_on', channel=1, note=56, velocity=60, time=1),
    Message('note_on', channel=1, note=56, velocity=0, time=59),
    Message('note_on', channel=1, note=56, velocity=60, time=1),
    Message('note_on', channel=1, note=56, velocity=0, time=29),
    Message('note_on', channel=1, note=59, velocity=60, time=1),
    Message('note_on', channel=1, note=59, velocity=0, time=29),
    Message('note_on', channel=1, note=56, velocity=60, time=1),
    Message('note_on', channel=1, note=56, velocity=0, time=29),
    Message('note_on', channel=1, note=59, velocity=60, time=1),
    Message('note_on', channel=1, note=59, velocity=0, time=59),
    Message('note_on', channel=1, note=56, velocity=60, time=1),
    Message('note_on', channel=1, note=56, velocity=0, time=29),
    Message('note_on', channel=1, note=64, velocity=60, time=1),
    Message('note_on', channel=1, note=64, velocity=0, time=119),
    Message('note_on', channel=1, note=55, velocity=60, time=121),
    Message('note_on', channel=1, note=55, velocity=0, time=59),
    Message('note_on', channel=1, note=55, velocity=60, time=1),
    Message('note_on', channel=1, note=55, velocity=0, time=29),
    Message('note_on', channel=1, note=50, velocity=60, time=1),
    Message('note_on', channel=1, note=50, velocity=0, time=29),
    Message('note_on', channel=1, note=55, velocity=60, time=1),
    Message('note_on', channel=1, note=55, velocity=0, time=29),
    Message('note_on', channel=1, note=57, velocity=60, time=1),
    Message('note_on', channel=1, note=57, velocity=0, time=59),
    Message('note_on', channel=1, note=55, velocity=60, time=1),
    Message('note_on', channel=1, note=55, velocity=0, time=29),
    Message('note_on', channel=1, note=59, velocity=60, time=1),
    Message('note_on', channel=1, note=59, velocity=0, time=119),
    Message('note_on', channel=1, note=57, velocity=60, time=1),
    Message('note_on', channel=1, note=57, velocity=0, time=59),
    Message('note_on', channel=1, note=55, velocity=60, time=1),
    Message('note_on', channel=1, note=55, velocity=0, time=59),
    Message('note_on', channel=1, note=50, velocity=60, time=1),
    Message('note_on', channel=1, note=50, velocity=0, time=59),
    Message('note_on', channel=1, note=50, velocity=60, time=1),
    Message('note_on', channel=1, note=50, velocity=0, time=29),
    Message('note_on', channel=1, note=45, velocity=60, time=1),
    Message('note_on', channel=1, note=45, velocity=0, time=29),
    Message('note_on', channel=1, note=50, velocity=60, time=1),
    Message('note_on', channel=1, note=50, velocity=0, time=29),
    Message('note_on', channel=1, note=52, velocity=60, time=1),
    Message('note_on', channel=1, note=52, velocity=0, time=59),
    Message('note_on', channel=1, note=50, velocity=60, time=1),
    Message('note_on', channel=1, note=50, velocity=0, time=29),
    Message('note_on', channel=1, note=54, velocity=60, time=1),
    Message('note_on', channel=1, note=54, velocity=0, time=239),
    Message('note_on', channel=1, note=52, velocity=60, time=1),
    Message('note_on', channel=1, note=52, velocity=0, time=29),
    Message('note_on', channel=1, note=52, velocity=60, time=31),
    Message('note_on', channel=1, note=52, velocity=0, time=29),
    Message('note_on', channel=1, note=54, velocity=60, time=1),
    Message('note_on', channel=1, note=54, velocity=0, time=29),
    Message('note_on', channel=1, note=52, velocity=60, time=1),
    Message('note_on', channel=1, note=52, velocity=0, time=29),
    Message('note_on', channel=1, note=55, velocity=60, time=1),
    Message('note_on', channel=1, note=55, velocity=0, time=59),
    Message('note_on', channel=1, note=52, velocity=60, time=1),
    Message('note_on', channel=1, note=52, velocity=0, time=29),
    Message('note_on', channel=1, note=59, velocity=60, time=1),
    Message('note_on', channel=1, note=59, velocity=0, time=239),
    Message('note_on', channel=1, note=54, velocity=60, time=1),
    Message('note_on', channel=1, note=54, velocity=0, time=59),
    Message('note_on', channel=1, note=54, velocity=60, time=1),
    Message('note_on', channel=1, note=54, velocity=0, time=29),
    Message('note_on', channel=1, note=55, velocity=60, time=1),
    Message('note_on', channel=1, note=55, velocity=0, time=29),
    Message('note_on', channel=1, note=54, velocity=60, time=1),
    Message('note_on', channel=1, note=54, velocity=0, time=29),
    Message('note_on', channel=1, note=55, velocity=60, time=1),
    Message('note_on', channel=1, note=55, velocity=0, time=59),
    Message('note_on', channel=1, note=54, velocity=60, time=1),
    Message('note_on', channel=1, note=54, velocity=0, time=29),
    Message('note_on', channel=1, note=61, velocity=60, time=1),
    Message('note_on', channel=1, note=61, velocity=0, time=239),
    Message('note_on', channel=1, note=59, velocity=60, time=1),
    Message('note_on', channel=1, note=59, velocity=0, time=59),
    Message('note_on', channel=1, note=59, velocity=60, time=1),
    Message('note_on', channel=1, note=59, velocity=0, time=29),
    Message('note_on', channel=1, note=62, velocity=60, time=1),
    Message('note_on', channel=1, note=62, velocity=0, time=29),
    Message('note_on', channel=1, note=59, velocity=60, time=1),
    Message('note_on', channel=1, note=59, velocity=0, time=29),
    Message('note_on', channel=1, note=54, velocity=60, time=1),
    Message('note_on', channel=1, note=54, velocity=0, time=59),
    Message('note_on', channel=1, note=54, velocity=60, time=1),
    Message('note_on', channel=1, note=54, velocity=0, time=29),
    Message('note_on', channel=1, note=59, velocity=60, time=1),
    Message('note_on', channel=1, note=59, velocity=0, time=119),
    Message('note_on', channel=1, note=62, velocity=60, time=1),
    Message('note_on', channel=1, note=62, velocity=0, time=59),
    Message('note_on', channel=1, note=64, velocity=60, time=1),
    Message('note_on', channel=1, note=64, velocity=0, time=59),
    Message('note_on', channel=1, note=54, velocity=60, time=1),
    Message('note_on', channel=1, note=54, velocity=0, time=59),
    Message('note_on', channel=1, note=61, velocity=60, time=1),
    Message('note_on', channel=1, note=61, velocity=0, time=29),
    Message('note_on', channel=1, note=54, velocity=60, time=1),
    Message('note_on', channel=1, note=54, velocity=0, time=29),
    Message('note_on', channel=1, note=58, velocity=60, time=1),
    Message('note_on', channel=1, note=58, velocity=0, time=29),
    Message('note_on', channel=1, note=61, velocity=60, time=1),
    Message('note_on', channel=1, note=61, velocity=0, time=59),
    Message('note_on', channel=1, note=54, velocity=60, time=1),
    Message('note_on', channel=1, note=54, velocity=0, time=29),
    Message('note_on', channel=1, note=58, velocity=60, time=1),
    Message('note_on', channel=1, note=58, velocity=0, time=239),
    Message('note_on', channel=1, note=57, velocity=60, time=1),
    Message('note_on', channel=1, note=57, velocity=0, time=59),
    Message('note_on', channel=1, note=57, velocity=60, time=1),
    Message('note_on', channel=1, note=57, velocity=0, time=29),
    Message('note_on', channel=1, note=57, velocity=60, time=1),
    Message('note_on', channel=1, note=57, velocity=0, time=29),
    Message('note_on', channel=1, note=57, velocity=60, time=1),
    Message('note_on', channel=1, note=59, velocity=60, time=30),
    Message('note_on', channel=1, note=57, velocity=0, time=29),
    Message('note_on', channel=1, note=59, velocity=0, time=30),
    Message('note_on', channel=1, note=57, velocity=60, time=1),
    Message('note_on', channel=1, note=57, velocity=0, time=29),
    Message('note_on', channel=1, note=57, velocity=60, time=1),
    Message('note_on', channel=1, note=57, velocity=0, time=59),
    Message('note_on', channel=1, note=57, velocity=60, time=1),
    Message('note_on', channel=1, note=57, velocity=0, time=29),
    Message('note_on', channel=1, note=59, velocity=60, time=1),
    Message('note_on', channel=1, note=59, velocity=0, time=29),
    Message('note_on', channel=1, note=52, velocity=60, time=1),
    Message('note_on', channel=1, note=52, velocity=0, time=59),
    Message('note_on', channel=1, note=52, velocity=60, time=1),
    Message('note_on', channel=1, note=52, velocity=0, time=29),
    Message('note_on', channel=1, note=54, velocity=60, time=1),
    Message('note_on', channel=1, note=54, velocity=0, time=29),
    Message('note_on', channel=1, note=56, velocity=60, time=1),
    Message('note_on', channel=1, note=56, velocity=0, time=59),
    Message('note_on', channel=1, note=56, velocity=60, time=1),
    Message('note_on', channel=1, note=56, velocity=0, time=29),
    Message('note_on', channel=1, note=59, velocity=60, time=1),
    Message('note_on', channel=1, note=59, velocity=0, time=29),
    Message('note_on', channel=1, note=56, velocity=60, time=1),
    Message('note_on', channel=1, note=56, velocity=0, time=29),
    Message('note_on', channel=1, note=59, velocity=60, time=1),
    Message('note_on', channel=1, note=59, velocity=0, time=59),
    Message('note_on', channel=1, note=56, velocity=60, time=1),
    Message('note_on', channel=1, note=56, velocity=0, time=29),
    Message('note_on', channel=1, note=64, velocity=60, time=1),
    Message('note_on', channel=1, note=64, velocity=0, time=119),
    Message('note_on', channel=1, note=55, velocity=60, time=121),
    Message('note_on', channel=1, note=55, velocity=0, time=59),
    Message('note_on', channel=1, note=55, velocity=60, time=1),
    Message('note_on', channel=1, note=55, velocity=0, time=29),
    Message('note_on', channel=1, note=50, velocity=60, time=1),
    Message('note_on', channel=1, note=50, velocity=0, time=29),
    Message('note_on', channel=1, note=55, velocity=60, time=1),
    Message('note_on', channel=1, note=55, velocity=0, time=29),
    Message('note_on', channel=1, note=57, velocity=60, time=1),
    Message('note_on', channel=1, note=57, velocity=0, time=59),
    Message('note_on', channel=1, note=55, velocity=60, time=1),
    Message('note_on', channel=1, note=55, velocity=0, time=29),
    Message('note_on', channel=1, note=59, velocity=60, time=1),
    Message('note_on', channel=1, note=59, velocity=0, time=119),
    Message('note_on', channel=1, note=57, velocity=60, time=1),
    Message('note_on', channel=1, note=57, velocity=0, time=59),
    Message('note_on', channel=1, note=55, velocity=60, time=1),
    Message('note_on', channel=1, note=55, velocity=0, time=59),
    Message('note_on', channel=1, note=50, velocity=60, time=1),
    Message('note_on', channel=1, note=50, velocity=0, time=59),
    Message('note_on', channel=1, note=50, velocity=60, time=1),
    Message('note_on', channel=1, note=50, velocity=0, time=29),
    Message('note_on', channel=1, note=45, velocity=60, time=1),
    Message('note_on', channel=1, note=45, velocity=0, time=29),
    Message('note_on', channel=1, note=50, velocity=60, time=1),
    Message('note_on', channel=1, note=50, velocity=0, time=29),
    Message('note_on', channel=1, note=52, velocity=60, time=1),
    Message('note_on', channel=1, note=52, velocity=0, time=59),
    Message('note_on', channel=1, note=50, velocity=60, time=1),
    Message('note_on', channel=1, note=50, velocity=0, time=29),
    Message('note_on', channel=1, note=54, velocity=60, time=1),
    Message('note_on', channel=1, note=54, velocity=0, time=239),
    Message('note_on', channel=1, note=52, velocity=60, time=1),
    Message('note_on', channel=1, note=52, velocity=0, time=29),
    Message('note_on', channel=1, note=52, velocity=60, time=31),
    Message('note_on', channel=1, note=52, velocity=0, time=29),
    Message('note_on', channel=1, note=54, velocity=60, time=1),
    Message('note_on', channel=1, note=54, velocity=0, time=29),
    Message('note_on', channel=1, note=52, velocity=60, time=1),
    Message('note_on', channel=1, note=52, velocity=0, time=29),
    Message('note_on', channel=1, note=55, velocity=60, time=1),
    Message('note_on', channel=1, note=55, velocity=0, time=59),
    Message('note_on', channel=1, note=52, velocity=60, time=1),
    Message('note_on', channel=1, note=52, velocity=0, time=29),
    Message('note_on', channel=1, note=59, velocity=60, time=1),
    Message('note_on', channel=1, note=59, velocity=0, time=239),
    Message('note_on', channel=1, note=54, velocity=60, time=1),
    Message('note_on', channel=1, note=54, velocity=0, time=59),
    Message('note_on', channel=1, note=54, velocity=60, time=1),
    Message('note_on', channel=1, note=54, velocity=0, time=29),
    Message('note_on', channel=1, note=55, velocity=60, time=1),
    Message('note_on', channel=1, note=55, velocity=0, time=29),
    Message('note_on', channel=1, note=54, velocity=60, time=1),
    Message('note_on', channel=1, note=54, velocity=0, time=29),
    Message('note_on', channel=1, note=55, velocity=60, time=1),
    Message('note_on', channel=1, note=55, velocity=0, time=59),
    Message('note_on', channel=1, note=54, velocity=60, time=1),
    Message('note_on', channel=1, note=54, velocity=0, time=29),
    Message('note_on', channel=1, note=61, velocity=60, time=1),
    Message('note_on', channel=1, note=61, velocity=0, time=119),
    Message('note_on', channel=1, note=66, velocity=60, time=3841),
    Message('note_on', channel=1, note=66, velocity=0, time=59),
    Message('note_on', channel=1, note=62, velocity=60, time=1),
    Message('note_on', channel=1, note=62, velocity=0, time=59),
    Message('note_on', channel=1, note=59, velocity=60, time=1),
    Message('note_on', channel=1, note=59, velocity=0, time=59),
    Message('note_on', channel=1, note=59, velocity=60, time=1),
    Message('note_on', channel=1, note=59, velocity=0, time=29),
    Message('note_on', channel=1, note=62, velocity=60, time=1),
    Message('note_on', channel=1, note=62, velocity=0, time=29),
    Message('note_on', channel=1, note=59, velocity=60, time=1),
    Message('note_on', channel=1, note=59, velocity=0, time=29),
    Message('note_on', channel=1, note=54, velocity=60, time=1),
    Message('note_on', channel=1, note=54, velocity=0, time=59),
    Message('note_on', channel=1, note=54, velocity=60, time=1),
    Message('note_on', channel=1, note=54, velocity=0, time=29),
    Message('note_on', channel=1, note=59, velocity=60, time=1),
    Message('note_on', channel=1, note=59, velocity=0, time=119),
    Message('note_on', channel=1, note=66, velocity=60, time=1),
    Message('note_on', channel=1, note=66, velocity=0, time=59),
    Message('note_on', channel=1, note=62, velocity=60, time=1),
    Message('note_on', channel=1, note=62, velocity=0, time=59),
    Message('note_on', channel=1, note=54, velocity=60, time=1),
    Message('note_on', channel=1, note=54, velocity=0, time=59),
    Message('note_on', channel=1, note=61, velocity=60, time=1),
    Message('note_on', channel=1, note=61, velocity=0, time=29),
    Message('note_on', channel=1, note=54, velocity=60, time=1),
    Message('note_on', channel=1, note=54, velocity=0, time=29),
    Message('note_on', channel=1, note=58, velocity=60, time=1),
    Message('note_on', channel=1, note=58, velocity=0, time=29),
    Message('note_on', channel=1, note=61, velocity=60, time=1),
    Message('note_on', channel=1, note=61, velocity=0, time=59),
    Message('note_on', channel=1, note=54, velocity=60, time=1),
    Message('note_on', channel=1, note=54, velocity=0, time=29),
    Message('note_on', channel=1, note=58, velocity=60, time=1),
    Message('note_on', channel=1, note=58, velocity=0, time=239),
    Message('note_on', channel=1, note=57, velocity=60, time=1),
    Message('note_on', channel=1, note=57, velocity=0, time=59),
    Message('note_on', channel=1, note=57, velocity=60, time=1),
    Message('note_on', channel=1, note=57, velocity=0, time=29),
    Message('note_on', channel=1, note=57, velocity=60, time=1),
    Message('note_on', channel=1, note=57, velocity=0, time=29),
    Message('note_on', channel=1, note=57, velocity=60, time=1),
    Message('note_on', channel=1, note=59, velocity=60, time=30),
    Message('note_on', channel=1, note=57, velocity=0, time=29),
    Message('note_on', channel=1, note=59, velocity=0, time=30),
    Message('note_on', channel=1, note=57, velocity=60, time=1),
    Message('note_on', channel=1, note=57, velocity=0, time=29),
    Message('note_on', channel=1, note=57, velocity=60, time=1),
    Message('note_on', channel=1, note=57, velocity=0, time=59),
    Message('note_on', channel=1, note=57, velocity=60, time=1),
    Message('note_on', channel=1, note=57, velocity=0, time=29),
    Message('note_on', channel=1, note=59, velocity=60, time=1),
    Message('note_on', channel=1, note=59, velocity=0, time=29),
    Message('note_on', channel=1, note=52, velocity=60, time=1),
    Message('note_on', channel=1, note=52, velocity=0, time=59),
    Message('note_on', channel=1, note=52, velocity=60, time=1),
    Message('note_on', channel=1, note=52, velocity=0, time=29),
    Message('note_on', channel=1, note=54, velocity=60, time=1),
    Message('note_on', channel=1, note=54, velocity=0, time=29),
    Message('note_on', channel=1, note=56, velocity=60, time=1),
    Message('note_on', channel=1, note=56, velocity=0, time=59),
    Message('note_on', channel=1, note=56, velocity=60, time=1),
    Message('note_on', channel=1, note=56, velocity=0, time=29),
    Message('note_on', channel=1, note=59, velocity=60, time=1),
    Message('note_on', channel=1, note=59, velocity=0, time=29),
    Message('note_on', channel=1, note=56, velocity=60, time=1),
    Message('note_on', channel=1, note=56, velocity=0, time=29),
    Message('note_on', channel=1, note=59, velocity=60, time=1),
    Message('note_on', channel=1, note=59, velocity=0, time=59),
    Message('note_on', channel=1, note=56, velocity=60, time=1),
    Message('note_on', channel=1, note=56, velocity=0, time=29),
    Message('note_on', channel=1, note=64, velocity=60, time=1),
    Message('note_on', channel=1, note=64, velocity=0, time=119),
    Message('note_on', channel=1, note=55, velocity=60, time=121),
    Message('note_on', channel=1, note=55, velocity=0, time=59),
    Message('note_on', channel=1, note=55, velocity=60, time=1),
    Message('note_on', channel=1, note=55, velocity=0, time=29),
    Message('note_on', channel=1, note=50, velocity=60, time=1),
    Message('note_on', channel=1, note=50, velocity=0, time=29),
    Message('note_on', channel=1, note=55, velocity=60, time=1),
    Message('note_on', channel=1, note=55, velocity=0, time=29),
    Message('note_on', channel=1, note=57, velocity=60, time=1),
    Message('note_on', channel=1, note=57, velocity=0, time=59),
    Message('note_on', channel=1, note=55, velocity=60, time=1),
    Message('note_on', channel=1, note=55, velocity=0, time=29),
    Message('note_on', channel=1, note=59, velocity=60, time=1),
    Message('note_on', channel=1, note=59, velocity=0, time=119),
    Message('note_on', channel=1, note=57, velocity=60, time=1),
    Message('note_on', channel=1, note=57, velocity=0, time=59),
    Message('note_on', channel=1, note=55, velocity=60, time=1),
    Message('note_on', channel=1, note=55, velocity=0, time=59),
    Message('note_on', channel=1, note=50, velocity=60, time=1),
    Message('note_on', channel=1, note=50, velocity=0, time=59),
    Message('note_on', channel=1, note=50, velocity=60, time=1),
    Message('note_on', channel=1, note=50, velocity=0, time=29),
    Message('note_on', channel=1, note=45, velocity=60, time=1),
    Message('note_on', channel=1, note=45, velocity=0, time=29),
    Message('note_on', channel=1, note=50, velocity=60, time=1),
    Message('note_on', channel=1, note=50, velocity=0, time=29),
    Message('note_on', channel=1, note=52, velocity=60, time=1),
    Message('note_on', channel=1, note=52, velocity=0, time=59),
    Message('note_on', channel=1, note=50, velocity=60, time=1),
    Message('note_on', channel=1, note=50, velocity=0, time=29),
    Message('note_on', channel=1, note=54, velocity=60, time=1),
    Message('note_on', channel=1, note=54, velocity=0, time=239),
    Message('note_on', channel=1, note=52, velocity=60, time=1),
    Message('note_on', channel=1, note=52, velocity=0, time=29),
    Message('note_on', channel=1, note=52, velocity=60, time=31),
    Message('note_on', channel=1, note=52, velocity=0, time=29),
    Message('note_on', channel=1, note=54, velocity=60, time=1),
    Message('note_on', channel=1, note=54, velocity=0, time=29),
    Message('note_on', channel=1, note=52, velocity=60, time=1),
    Message('note_on', channel=1, note=52, velocity=0, time=29),
    Message('note_on', channel=1, note=55, velocity=60, time=1),
    Message('note_on', channel=1, note=55, velocity=0, time=59),
    Message('note_on', channel=1, note=52, velocity=60, time=1),
    Message('note_on', channel=1, note=52, velocity=0, time=29),
    Message('note_on', channel=1, note=59, velocity=60, time=1),
    Message('note_on', channel=1, note=59, velocity=0, time=239),
    Message('note_on', channel=1, note=54, velocity=60, time=1),
    Message('note_on', channel=1, note=54, velocity=0, time=59),
    Message('note_on', channel=1, note=54, velocity=60, time=1),
    Message('note_on', channel=1, note=54, velocity=0, time=29),
    Message('note_on', channel=1, note=55, velocity=60, time=1),
    Message('note_on', channel=1, note=55, velocity=0, time=29),
    Message('note_on', channel=1, note=54, velocity=60, time=1),
    Message('note_on', channel=1, note=54, velocity=0, time=29),
    Message('note_on', channel=1, note=55, velocity=60, time=1),
    Message('note_on', channel=1, note=55, velocity=0, time=59),
    Message('note_on', channel=1, note=54, velocity=60, time=1),
    Message('note_on', channel=1, note=54, velocity=0, time=29),
    Message('note_on', channel=1, note=61, velocity=60, time=1),
    Message('note_on', channel=1, note=61, velocity=0, time=239),
    Message('note_on', channel=1, note=59, velocity=60, time=1),
    Message('note_on', channel=1, note=59, velocity=0, time=59),
    Message('note_on', channel=1, note=59, velocity=60, time=1),
    Message('note_on', channel=1, note=59, velocity=0, time=29),
    Message('note_on', channel=1, note=62, velocity=60, time=1),
    Message('note_on', channel=1, note=62, velocity=0, time=29),
    Message('note_on', channel=1, note=59, velocity=60, time=1),
    Message('note_on', channel=1, note=59, velocity=0, time=29),
    Message('note_on', channel=1, note=54, velocity=60, time=1),
    Message('note_on', channel=1, note=54, velocity=0, time=59),
    Message('note_on', channel=1, note=54, velocity=60, time=1),
    Message('note_on', channel=1, note=54, velocity=0, time=29),
    Message('note_on', channel=1, note=59, velocity=60, time=1),
    Message('note_on', channel=1, note=59, velocity=0, time=119),
    Message('note_on', channel=1, note=62, velocity=60, time=1),
    Message('note_on', channel=1, note=62, velocity=0, time=59),
    Message('note_on', channel=1, note=64, velocity=60, time=1),
    Message('note_on', channel=1, note=64, velocity=0, time=59),
    Message('note_on', channel=1, note=54, velocity=60, time=1),
    Message('note_on', channel=1, note=54, velocity=0, time=59),
    Message('note_on', channel=1, note=61, velocity=60, time=1),
    Message('note_on', channel=1, note=61, velocity=0, time=29),
    Message('note_on', channel=1, note=54, velocity=60, time=1),
    Message('note_on', channel=1, note=54, velocity=0, time=29),
    Message('note_on', channel=1, note=58, velocity=60, time=1),
    Message('note_on', channel=1, note=58, velocity=0, time=29),
    Message('note_on', channel=1, note=61, velocity=60, time=1),
    Message('note_on', channel=1, note=61, velocity=0, time=59),
    Message('note_on', channel=1, note=54, velocity=60, time=1),
    Message('note_on', channel=1, note=54, velocity=0, time=29),
    Message('note_on', channel=1, note=58, velocity=60, time=1),
    Message('note_on', channel=1, note=58, velocity=0, time=239),
    Message('note_on', channel=1, note=57, velocity=60, time=1),
    Message('note_on', channel=1, note=57, velocity=0, time=59),
    Message('note_on', channel=1, note=57, velocity=60, time=1),
    Message('note_on', channel=1, note=57, velocity=0, time=29),
    Message('note_on', channel=1, note=57, velocity=60, time=1),
    Message('note_on', channel=1, note=57, velocity=0, time=29),
    Message('note_on', channel=1, note=57, velocity=60, time=1),
    Message('note_on', channel=1, note=59, velocity=60, time=30),
    Message('note_on', channel=1, note=57, velocity=0, time=29),
    Message('note_on', channel=1, note=59, velocity=0, time=30),
    Message('note_on', channel=1, note=57, velocity=60, time=1),
    Message('note_on', channel=1, note=57, velocity=0, time=29),
    Message('note_on', channel=1, note=57, velocity=60, time=1),
    Message('note_on', channel=1, note=57, velocity=0, time=59),
    Message('note_on', channel=1, note=57, velocity=60, time=1),
    Message('note_on', channel=1, note=57, velocity=0, time=29),
    Message('note_on', channel=1, note=59, velocity=60, time=1),
    Message('note_on', channel=1, note=59, velocity=0, time=29),
    Message('note_on', channel=1, note=52, velocity=60, time=1),
    Message('note_on', channel=1, note=52, velocity=0, time=59),
    Message('note_on', channel=1, note=52, velocity=60, time=1),
    Message('note_on', channel=1, note=52, velocity=0, time=29),
    Message('note_on', channel=1, note=54, velocity=60, time=1),
    Message('note_on', channel=1, note=54, velocity=0, time=29),
    Message('note_on', channel=1, note=56, velocity=60, time=1),
    Message('note_on', channel=1, note=56, velocity=0, time=59),
    Message('note_on', channel=1, note=56, velocity=60, time=1),
    Message('note_on', channel=1, note=56, velocity=0, time=29),
    Message('note_on', channel=1, note=59, velocity=60, time=1),
    Message('note_on', channel=1, note=59, velocity=0, time=29),
    Message('note_on', channel=1, note=56, velocity=60, time=1),
    Message('note_on', channel=1, note=56, velocity=0, time=29),
    Message('note_on', channel=1, note=59, velocity=60, time=1),
    Message('note_on', channel=1, note=59, velocity=0, time=59),
    Message('note_on', channel=1, note=56, velocity=60, time=1),
    Message('note_on', channel=1, note=56, velocity=0, time=29),
    Message('note_on', channel=1, note=64, velocity=60, time=1),
    Message('note_on', channel=1, note=64, velocity=0, time=119),
    Message('note_on', channel=1, note=55, velocity=60, time=121),
    Message('note_on', channel=1, note=55, velocity=0, time=59),
    Message('note_on', channel=1, note=55, velocity=60, time=1),
    Message('note_on', channel=1, note=55, velocity=0, time=29),
    Message('note_on', channel=1, note=50, velocity=60, time=1),
    Message('note_on', channel=1, note=50, velocity=0, time=29),
    Message('note_on', channel=1, note=55, velocity=60, time=1),
    Message('note_on', channel=1, note=55, velocity=0, time=29),
    Message('note_on', channel=1, note=57, velocity=60, time=1),
    Message('note_on', channel=1, note=57, velocity=0, time=59),
    Message('note_on', channel=1, note=55, velocity=60, time=1),
    Message('note_on', channel=1, note=55, velocity=0, time=29),
    Message('note_on', channel=1, note=59, velocity=60, time=1),
    Message('note_on', channel=1, note=59, velocity=0, time=119),
    Message('note_on', channel=1, note=57, velocity=60, time=1),
    Message('note_on', channel=1, note=57, velocity=0, time=59),
    Message('note_on', channel=1, note=55, velocity=60, time=1),
    Message('note_on', channel=1, note=55, velocity=0, time=59),
    Message('note_on', channel=1, note=50, velocity=60, time=1),
    Message('note_on', channel=1, note=50, velocity=0, time=59),
    Message('note_on', channel=1, note=50, velocity=60, time=1),
    Message('note_on', channel=1, note=50, velocity=0, time=29),
    Message('note_on', channel=1, note=45, velocity=60, time=1),
    Message('note_on', channel=1, note=45, velocity=0, time=29),
    Message('note_on', channel=1, note=50, velocity=60, time=1),
    Message('note_on', channel=1, note=50, velocity=0, time=29),
    Message('note_on', channel=1, note=52, velocity=60, time=1),
    Message('note_on', channel=1, note=52, velocity=0, time=59),
    Message('note_on', channel=1, note=50, velocity=60, time=1),
    Message('note_on', channel=1, note=50, velocity=0, time=29),
    Message('note_on', channel=1, note=54, velocity=60, time=1),
    Message('note_on', channel=1, note=54, velocity=0, time=239),
    Message('note_on', channel=1, note=52, velocity=60, time=1),
    Message('note_on', channel=1, note=52, velocity=0, time=29),
    Message('note_on', channel=1, note=52, velocity=60, time=31),
    Message('note_on', channel=1, note=52, velocity=0, time=29),
    Message('note_on', channel=1, note=54, velocity=60, time=1),
    Message('note_on', channel=1, note=54, velocity=0, time=29),
    Message('note_on', channel=1, note=52, velocity=60, time=1),
    Message('note_on', channel=1, note=52, velocity=0, time=29),
    Message('note_on', channel=1, note=55, velocity=60, time=1),
    Message('note_on', channel=1, note=55, velocity=0, time=59),
    Message('note_on', channel=1, note=52, velocity=60, time=1),
    Message('note_on', channel=1, note=52, velocity=0, time=29),
    Message('note_on', channel=1, note=59, velocity=60, time=1),
    Message('note_on', channel=1, note=59, velocity=0, time=239),
    Message('note_on', channel=1, note=54, velocity=60, time=1),
    Message('note_on', channel=1, note=54, velocity=0, time=59),
    Message('note_on', channel=1, note=54, velocity=60, time=1),
    Message('note_on', channel=1, note=54, velocity=0, time=29),
    Message('note_on', channel=1, note=55, velocity=60, time=1),
    Message('note_on', channel=1, note=55, velocity=0, time=29),
    Message('note_on', channel=1, note=54, velocity=60, time=1),
    Message('note_on', channel=1, note=54, velocity=0, time=29),
    Message('note_on', channel=1, note=55, velocity=60, time=1),
    Message('note_on', channel=1, note=55, velocity=0, time=59),
    Message('note_on', channel=1, note=54, velocity=60, time=1),
    Message('note_on', channel=1, note=54, velocity=0, time=29),
    Message('note_on', channel=1, note=61, velocity=60, time=1),
    Message('note_on', channel=1, note=61, velocity=0, time=119),
    Message('note_on', channel=1, note=59, velocity=60, time=3961),
    Message('note_on', channel=1, note=59, velocity=0, time=59),
    Message('note_on', channel=1, note=59, velocity=60, time=1),
    Message('note_on', channel=1, note=59, velocity=0, time=29),
    Message('note_on', channel=1, note=62, velocity=60, time=1),
    Message('note_on', channel=1, note=62, velocity=0, time=29),
    Message('note_on', channel=1, note=59, velocity=60, time=1),
    Message('note_on', channel=1, note=59, velocity=0, time=29),
    Message('note_on', channel=1, note=54, velocity=60, time=1),
    Message('note_on', channel=1, note=54, velocity=0, time=59),
    Message('note_on', channel=1, note=54, velocity=60, time=1),
    Message('note_on', channel=1, note=54, velocity=0, time=29),
    Message('note_on', channel=1, note=59, velocity=60, time=1),
    Message('note_on', channel=1, note=59, velocity=0, time=119),
    Message('note_on', channel=1, note=62, velocity=60, time=1),
    Message('note_on', channel=1, note=62, velocity=0, time=59),
    Message('note_on', channel=1, note=64, velocity=60, time=1),
    Message('note_on', channel=1, note=64, velocity=0, time=59),
    Message('note_on', channel=1, note=54, velocity=60, time=1),
    Message('note_on', channel=1, note=54, velocity=0, time=59),
    Message('note_on', channel=1, note=61, velocity=60, time=1),
    Message('note_on', channel=1, note=61, velocity=0, time=29),
    Message('note_on', channel=1, note=54, velocity=60, time=1),
    Message('note_on', channel=1, note=54, velocity=0, time=29),
    Message('note_on', channel=1, note=58, velocity=60, time=1),
    Message('note_on', channel=1, note=58, velocity=0, time=29),
    Message('note_on', channel=1, note=61, velocity=60, time=1),
    Message('note_on', channel=1, note=61, velocity=0, time=59),
    Message('note_on', channel=1, note=54, velocity=60, time=1),
    Message('note_on', channel=1, note=54, velocity=0, time=29),
    Message('note_on', channel=1, note=58, velocity=60, time=1),
    Message('note_on', channel=1, note=58, velocity=0, time=239),
    Message('note_on', channel=1, note=57, velocity=60, time=1),
    Message('note_on', channel=1, note=57, velocity=0, time=59),
    Message('note_on', channel=1, note=57, velocity=60, time=1),
    Message('note_on', channel=1, note=57, velocity=0, time=29),
    Message('note_on', channel=1, note=57, velocity=60, time=1),
    Message('note_on', channel=1, note=57, velocity=0, time=29),
    Message('note_on', channel=1, note=57, velocity=60, time=1),
    Message('note_on', channel=1, note=59, velocity=60, time=30),
    Message('note_on', channel=1, note=57, velocity=0, time=29),
    Message('note_on', channel=1, note=59, velocity=0, time=30),
    Message('note_on', channel=1, note=57, velocity=60, time=1),
    Message('note_on', channel=1, note=57, velocity=0, time=29),
    Message('note_on', channel=1, note=61, velocity=60, time=1),
    Message('note_on', channel=1, note=61, velocity=0, time=59),
    Message('note_on', channel=1, note=57, velocity=60, time=1),
    Message('note_on', channel=1, note=57, velocity=0, time=29),
    Message('note_on', channel=1, note=59, velocity=60, time=1),
    Message('note_on', channel=1, note=59, velocity=0, time=29),
    Message('note_on', channel=1, note=52, velocity=60, time=1),
    Message('note_on', channel=1, note=52, velocity=0, time=59),
    Message('note_on', channel=1, note=52, velocity=60, time=1),
    Message('note_on', channel=1, note=52, velocity=0, time=29),
    Message('note_on', channel=1, note=54, velocity=60, time=1),
    Message('note_on', channel=1, note=54, velocity=0, time=29),
    Message('note_on', channel=1, note=56, velocity=60, time=1),
    Message('note_on', channel=1, note=56, velocity=0, time=59),
    Message('note_on', channel=1, note=56, velocity=60, time=1),
    Message('note_on', channel=1, note=56, velocity=0, time=29),
    Message('note_on', channel=1, note=59, velocity=60, time=1),
    Message('note_on', channel=1, note=59, velocity=0, time=29),
    Message('note_on', channel=1, note=56, velocity=60, time=1),
    Message('note_on', channel=1, note=56, velocity=0, time=29),
    Message('note_on', channel=1, note=59, velocity=60, time=1),
    Message('note_on', channel=1, note=59, velocity=0, time=59),
    Message('note_on', channel=1, note=56, velocity=60, time=1),
    Message('note_on', channel=1, note=56, velocity=0, time=29),
    Message('note_on', channel=1, note=64, velocity=60, time=1),
    Message('note_on', channel=1, note=64, velocity=0, time=119),
    Message('note_on', channel=1, note=55, velocity=60, time=121),
    Message('note_on', channel=1, note=55, velocity=0, time=59),
    Message('note_on', channel=1, note=55, velocity=60, time=1),
    Message('note_on', channel=1, note=55, velocity=0, time=29),
    Message('note_on', channel=1, note=50, velocity=60, time=1),
    Message('note_on', channel=1, note=50, velocity=0, time=29),
    Message('note_on', channel=1, note=55, velocity=60, time=1),
    Message('note_on', channel=1, note=55, velocity=0, time=29),
    Message('note_on', channel=1, note=57, velocity=60, time=1),
    Message('note_on', channel=1, note=57, velocity=0, time=59),
    Message('note_on', channel=1, note=55, velocity=60, time=1),
    Message('note_on', channel=1, note=55, velocity=0, time=29),
    Message('note_on', channel=1, note=59, velocity=60, time=1),
    Message('note_on', channel=1, note=59, velocity=0, time=119),
    Message('note_on', channel=1, note=57, velocity=60, time=1),
    Message('note_on', channel=1, note=57, velocity=0, time=59),
    Message('note_on', channel=1, note=55, velocity=60, time=1),
    Message('note_on', channel=1, note=55, velocity=0, time=59),
    Message('note_on', channel=1, note=50, velocity=60, time=1),
    Message('note_on', channel=1, note=50, velocity=0, time=59),
    Message('note_on', channel=1, note=50, velocity=60, time=1),
    Message('note_on', channel=1, note=50, velocity=0, time=29),
    Message('note_on', channel=1, note=45, velocity=60, time=1),
    Message('note_on', channel=1, note=45, velocity=0, time=29),
    Message('note_on', channel=1, note=50, velocity=60, time=1),
    Message('note_on', channel=1, note=50, velocity=0, time=29),
    Message('note_on', channel=1, note=52, velocity=60, time=1),
    Message('note_on', channel=1, note=52, velocity=0, time=59),
    Message('note_on', channel=1, note=50, velocity=60, time=1),
    Message('note_on', channel=1, note=50, velocity=0, time=29),
    Message('note_on', channel=1, note=54, velocity=60, time=1),
    Message('note_on', channel=1, note=54, velocity=0, time=239),
    Message('note_on', channel=1, note=52, velocity=60, time=1),
    Message('note_on', channel=1, note=52, velocity=0, time=29),
    Message('note_on', channel=1, note=52, velocity=60, time=31),
    Message('note_on', channel=1, note=52, velocity=0, time=29),
    Message('note_on', channel=1, note=54, velocity=60, time=1),
    Message('note_on', channel=1, note=54, velocity=0, time=29),
    Message('note_on', channel=1, note=52, velocity=60, time=1),
    Message('note_on', channel=1, note=52, velocity=0, time=29),
    Message('note_on', channel=1, note=55, velocity=60, time=1),
    Message('note_on', channel=1, note=55, velocity=0, time=59),
    Message('note_on', channel=1, note=52, velocity=60, time=1),
    Message('note_on', channel=1, note=52, velocity=0, time=29),
    Message('note_on', channel=1, note=59, velocity=60, time=1),
    Message('note_on', channel=1, note=59, velocity=0, time=239),
    Message('note_on', channel=1, note=54, velocity=60, time=1),
    Message('note_on', channel=1, note=54, velocity=0, time=59),
    Message('note_on', channel=1, note=54, velocity=60, time=1),
    Message('note_on', channel=1, note=54, velocity=0, time=29),
    Message('note_on', channel=1, note=55, velocity=60, time=1),
    Message('note_on', channel=1, note=55, velocity=0, time=29),
    Message('note_on', channel=1, note=54, velocity=60, time=1),
    Message('note_on', channel=1, note=54, velocity=0, time=29),
    Message('note_on', channel=1, note=55, velocity=60, time=1),
    Message('note_on', channel=1, note=55, velocity=0, time=59),
    Message('note_on', channel=1, note=54, velocity=60, time=1),
    Message('note_on', channel=1, note=54, velocity=0, time=29),
    Message('note_on', channel=1, note=61, velocity=60, time=1),
    Message('note_on', channel=1, note=61, velocity=0, time=239),
    Message('note_on', channel=1, note=59, velocity=60, time=1),
    Message('note_on', channel=1, note=59, velocity=0, time=59),
    Message('note_on', channel=1, note=59, velocity=60, time=1),
    Message('note_on', channel=1, note=59, velocity=0, time=29),
    Message('note_on', channel=1, note=62, velocity=60, time=1),
    Message('note_on', channel=1, note=62, velocity=0, time=29),
    Message('note_on', channel=1, note=59, velocity=60, time=1),
    Message('note_on', channel=1, note=59, velocity=0, time=29),
    Message('note_on', channel=1, note=54, velocity=60, time=1),
    Message('note_on', channel=1, note=54, velocity=0, time=59),
    Message('note_on', channel=1, note=54, velocity=60, time=1),
    Message('note_on', channel=1, note=54, velocity=0, time=29),
    Message('note_on', channel=1, note=59, velocity=60, time=1),
    Message('note_on', channel=1, note=59, velocity=0, time=119),
    Message('note_on', channel=1, note=62, velocity=60, time=1),
    Message('note_on', channel=1, note=62, velocity=0, time=59),
    Message('note_on', channel=1, note=64, velocity=60, time=1),
    Message('note_on', channel=1, note=64, velocity=0, time=59),
    Message('note_on', channel=1, note=54, velocity=60, time=1),
    Message('note_on', channel=1, note=54, velocity=0, time=59),
    Message('note_on', channel=1, note=61, velocity=60, time=1),
    Message('note_on', channel=1, note=61, velocity=0, time=29),
    Message('note_on', channel=1, note=54, velocity=60, time=1),
    Message('note_on', channel=1, note=54, velocity=0, time=29),
    Message('note_on', channel=1, note=58, velocity=60, time=1),
    Message('note_on', channel=1, note=58, velocity=0, time=29),
    Message('note_on', channel=1, note=61, velocity=60, time=1),
    Message('note_on', channel=1, note=61, velocity=0, time=59),
    Message('note_on', channel=1, note=54, velocity=60, time=1),
    Message('note_on', channel=1, note=54, velocity=0, time=29),
    Message('note_on', channel=1, note=58, velocity=60, time=1),
    Message('note_on', channel=1, note=58, velocity=0, time=239),
    Message('note_on', channel=1, note=57, velocity=60, time=1),
    Message('note_on', channel=1, note=57, velocity=0, time=59),
    Message('note_on', channel=1, note=57, velocity=60, time=1),
    Message('note_on', channel=1, note=57, velocity=0, time=29),
    Message('note_on', channel=1, note=57, velocity=60, time=1),
    Message('note_on', channel=1, note=57, velocity=0, time=29),
    Message('note_on', channel=1, note=57, velocity=60, time=1),
    Message('note_on', channel=1, note=59, velocity=60, time=30),
    Message('note_on', channel=1, note=57, velocity=0, time=29),
    Message('note_on', channel=1, note=59, velocity=0, time=30),
    Message('note_on', channel=1, note=57, velocity=60, time=1),
    Message('note_on', channel=1, note=57, velocity=0, time=29),
    Message('note_on', channel=1, note=57, velocity=60, time=1),
    Message('note_on', channel=1, note=57, velocity=0, time=59),
    Message('note_on', channel=1, note=57, velocity=60, time=1),
    Message('note_on', channel=1, note=57, velocity=0, time=29),
    Message('note_on', channel=1, note=59, velocity=60, time=1),
    Message('note_on', channel=1, note=59, velocity=0, time=29),
    Message('note_on', channel=1, note=52, velocity=60, time=1),
    Message('note_on', channel=1, note=52, velocity=0, time=59),
    Message('note_on', channel=1, note=52, velocity=60, time=1),
    Message('note_on', channel=1, note=52, velocity=0, time=29),
    Message('note_on', channel=1, note=54, velocity=60, time=1),
    Message('note_on', channel=1, note=54, velocity=0, time=29),
    Message('note_on', channel=1, note=56, velocity=60, time=1),
    Message('note_on', channel=1, note=56, velocity=0, time=59),
    Message('note_on', channel=1, note=56, velocity=60, time=1),
    Message('note_on', channel=1, note=56, velocity=0, time=29),
    Message('note_on', channel=1, note=59, velocity=60, time=1),
    Message('note_on', channel=1, note=59, velocity=0, time=29),
    Message('note_on', channel=1, note=56, velocity=60, time=1),
    Message('note_on', channel=1, note=56, velocity=0, time=29),
    Message('note_on', channel=1, note=59, velocity=60, time=1),
    Message('note_on', channel=1, note=59, velocity=0, time=59),
    Message('note_on', channel=1, note=56, velocity=60, time=1),
    Message('note_on', channel=1, note=56, velocity=0, time=29),
    Message('note_on', channel=1, note=64, velocity=60, time=1),
    Message('note_on', channel=1, note=64, velocity=0, time=119),
    Message('note_on', channel=1, note=55, velocity=60, time=121),
    Message('note_on', channel=1, note=55, velocity=0, time=59),
    Message('note_on', channel=1, note=55, velocity=60, time=1),
    Message('note_on', channel=1, note=55, velocity=0, time=29),
    Message('note_on', channel=1, note=50, velocity=60, time=1),
    Message('note_on', channel=1, note=50, velocity=0, time=29),
    Message('note_on', channel=1, note=55, velocity=60, time=1),
    Message('note_on', channel=1, note=55, velocity=0, time=29),
    Message('note_on', channel=1, note=57, velocity=60, time=1),
    Message('note_on', channel=1, note=57, velocity=0, time=59),
    Message('note_on', channel=1, note=55, velocity=60, time=1),
    Message('note_on', channel=1, note=55, velocity=0, time=29),
    Message('note_on', channel=1, note=59, velocity=60, time=1),
    Message('note_on', channel=1, note=59, velocity=0, time=119),
    Message('note_on', channel=1, note=57, velocity=60, time=1),
    Message('note_on', channel=1, note=57, velocity=0, time=59),
    Message('note_on', channel=1, note=55, velocity=60, time=1),
    Message('note_on', channel=1, note=55, velocity=0, time=59),
    Message('note_on', channel=1, note=50, velocity=60, time=1),
    Message('note_on', channel=1, note=50, velocity=0, time=59),
    Message('note_on', channel=1, note=50, velocity=60, time=1),
    Message('note_on', channel=1, note=50, velocity=0, time=29),
    Message('note_on', channel=1, note=45, velocity=60, time=1),
    Message('note_on', channel=1, note=45, velocity=0, time=29),
    Message('note_on', channel=1, note=50, velocity=60, time=1),
    Message('note_on', channel=1, note=50, velocity=0, time=29),
    Message('note_on', channel=1, note=52, velocity=60, time=1),
    Message('note_on', channel=1, note=52, velocity=0, time=59),
    Message('note_on', channel=1, note=50, velocity=60, time=1),
    Message('note_on', channel=1, note=50, velocity=0, time=29),
    Message('note_on', channel=1, note=54, velocity=60, time=1),
    Message('note_on', channel=1, note=54, velocity=0, time=239),
    Message('note_on', channel=1, note=52, velocity=60, time=1),
    Message('note_on', channel=1, note=52, velocity=0, time=29),
    Message('note_on', channel=1, note=52, velocity=60, time=31),
    Message('note_on', channel=1, note=52, velocity=0, time=29),
    Message('note_on', channel=1, note=54, velocity=60, time=1),
    Message('note_on', channel=1, note=54, velocity=0, time=29),
    Message('note_on', channel=1, note=52, velocity=60, time=1),
    Message('note_on', channel=1, note=52, velocity=0, time=29),
    Message('note_on', channel=1, note=55, velocity=60, time=1),
    Message('note_on', channel=1, note=55, velocity=0, time=59),
    Message('note_on', channel=1, note=52, velocity=60, time=1),
    Message('note_on', channel=1, note=52, velocity=0, time=29),
    Message('note_on', channel=1, note=59, velocity=60, time=1),
    Message('note_on', channel=1, note=59, velocity=0, time=239),
    Message('note_on', channel=1, note=54, velocity=60, time=1),
    Message('note_on', channel=1, note=54, velocity=0, time=59),
    Message('note_on', channel=1, note=54, velocity=60, time=1),
    Message('note_on', channel=1, note=54, velocity=0, time=29),
    Message('note_on', channel=1, note=55, velocity=60, time=1),
    Message('note_on', channel=1, note=55, velocity=0, time=29),
    Message('note_on', channel=1, note=54, velocity=60, time=1),
    Message('note_on', channel=1, note=54, velocity=0, time=29),
    Message('note_on', channel=1, note=55, velocity=60, time=1),
    Message('note_on', channel=1, note=55, velocity=0, time=59),
    Message('note_on', channel=1, note=54, velocity=60, time=1),
    Message('note_on', channel=1, note=54, velocity=0, time=29),
    Message('note_on', channel=1, note=61, velocity=60, time=1),
    Message('note_on', channel=1, note=61, velocity=0, time=119),
    MetaMessage('end_of_track', time=0)]),
  MidiTrack([
    MetaMessage('track_name', name='WinJammer Demo', time=0),
    MetaMessage('instrument_name', name='James Morales', time=0),
    MetaMessage('midi_port', port=0, time=0),
    Message('control_change', channel=2, control=7, value=120, time=0),
    Message('program_change', channel=2, program=33, time=0),
    Message('note_on', channel=2, note=35, velocity=90, time=0),
    Message('note_on', channel=2, note=35, velocity=0, time=239),
    Message('note_on', channel=2, note=30, velocity=90, time=241),
    Message('note_on', channel=2, note=30, velocity=0, time=239),
    Message('note_on', channel=2, note=33, velocity=90, time=241),
    Message('note_on', channel=2, note=33, velocity=0, time=239),
    Message('note_on', channel=2, note=28, velocity=90, time=241),
    Message('note_on', channel=2, note=28, velocity=0, time=239),
    Message('note_on', channel=2, note=31, velocity=90, time=241),
    Message('note_on', channel=2, note=31, velocity=0, time=239),
    Message('note_on', channel=2, note=38, velocity=90, time=241),
    Message('note_on', channel=2, note=38, velocity=0, time=239),
    Message('note_on', channel=2, note=28, velocity=90, time=241),
    Message('note_on', channel=2, note=28, velocity=0, time=239),
    Message('note_on', channel=2, note=30, velocity=90, time=241),
    Message('note_on', channel=2, note=30, velocity=0, time=239),
    Message('note_on', channel=2, note=38, velocity=90, time=241),
    Message('note_on', channel=2, note=38, velocity=0, time=239),
    Message('note_on', channel=2, note=40, velocity=90, time=1),
    Message('note_on', channel=2, note=40, velocity=0, time=119),
    Message('note_on', channel=2, note=42, velocity=90, time=1),
    Message('note_on', channel=2, note=42, velocity=0, time=119),
    Message('note_on', channel=2, note=30, velocity=90, time=1),
    Message('note_on', channel=2, note=30, velocity=0, time=179),
    Message('note_on', channel=2, note=38, velocity=90, time=1),
    Message('note_on', channel=2, note=38, velocity=0, time=59),
    Message('note_on', channel=2, note=37, velocity=90, time=1),
    Message('note_on', channel=2, note=37, velocity=0, time=239),
    Message('note_on', channel=2, note=37, velocity=90, time=1),
    Message('note_on', channel=2, note=37, velocity=0, time=239),
    Message('note_on', channel=2, note=38, velocity=90, time=1),
    Message('note_on', channel=2, note=38, velocity=0, time=119),
    Message('note_on', channel=2, note=40, velocity=90, time=1),
    Message('note_on', channel=2, note=40, velocity=0, time=119),
    Message('note_on', channel=2, note=40, velocity=90, time=1),
    Message('note_on', channel=2, note=40, velocity=0, time=239),
    Message('note_on', channel=2, note=40, velocity=90, time=1),
    Message('note_on', channel=2, note=40, velocity=0, time=239),
    Message('note_on', channel=2, note=31, velocity=90, time=1),
    Message('note_on', channel=2, note=31, velocity=0, time=239),
    Message('note_on', channel=2, note=37, velocity=90, time=1),
    Message('note_on', channel=2, note=37, velocity=0, time=119),
    Message('note_on', channel=2, note=38, velocity=90, time=1),
    Message('note_on', channel=2, note=38, velocity=0, time=119),
    Message('note_on', channel=2, note=30, velocity=90, time=1),
    Message('note_on', channel=2, note=30, velocity=0, time=239),
    Message('note_on', channel=2, note=28, velocity=90, time=241),
    Message('note_on', channel=2, note=28, velocity=0, time=239),
    Message('note_on', channel=2, note=30, velocity=90, time=241),
    Message('note_on', channel=2, note=30, velocity=0, time=239),
    Message('note_on', channel=2, note=35, velocity=90, time=241),
    Message('note_on', channel=2, note=35, velocity=0, time=29),
    Message('note_on', channel=2, note=35, velocity=90, time=1),
    Message('note_on', channel=2, note=35, velocity=0, time=29),
    Message('note_on', channel=2, note=30, velocity=90, time=1),
    Message('note_on', channel=2, note=30, velocity=0, time=59),
    Message('note_on', channel=2, note=35, velocity=90, time=1),
    Message('note_on', channel=2, note=35, velocity=0, time=59),
    Message('note_on', channel=2, note=30, velocity=90, time=31),
    Message('note_on', channel=2, note=30, velocity=0, time=29),
    Message('note_on', channel=2, note=35, velocity=90, time=1),
    Message('note_on', channel=2, note=35, velocity=0, time=29),
    Message('note_on', channel=2, note=35, velocity=90, time=1),
    Message('note_on', channel=2, note=35, velocity=0, time=29),
    Message('note_on', channel=2, note=30, velocity=90, time=1),
    Message('note_on', channel=2, note=30, velocity=0, time=59),
    Message('note_on', channel=2, note=30, velocity=90, time=121),
    Message('note_on', channel=2, note=30, velocity=0, time=29),
    Message('note_on', channel=2, note=30, velocity=90, time=1),
    Message('note_on', channel=2, note=30, velocity=0, time=29),
    Message('note_on', channel=2, note=34, velocity=90, time=1),
    Message('note_on', channel=2, note=34, velocity=0, time=59),
    Message('note_on', channel=2, note=42, velocity=90, time=1),
    Message('note_on', channel=2, note=42, velocity=0, time=59),
    Message('note_on', channel=2, note=37, velocity=90, time=31),
    Message('note_on', channel=2, note=37, velocity=0, time=29),
    Message('note_on', channel=2, note=42, velocity=90, time=1),
    Message('note_on', channel=2, note=42, velocity=90, time=30),
    Message('note_on', channel=2, note=42, velocity=0, time=29),
    Message('note_on', channel=2, note=42, velocity=0, time=0),
    Message('note_on', channel=2, note=37, velocity=90, time=1),
    Message('note_on', channel=2, note=37, velocity=0, time=59),
    Message('note_on', channel=2, note=33, velocity=90, time=121),
    Message('note_on', channel=2, note=33, velocity=0, time=29),
    Message('note_on', channel=2, note=33, velocity=90, time=1),
    Message('note_on', channel=2, note=33, velocity=0, time=29),
    Message('note_on', channel=2, note=40, velocity=90, time=1),
    Message('note_on', channel=2, note=40, velocity=0, time=59),
    Message('note_on', channel=2, note=45, velocity=90, time=1),
    Message('note_on', channel=2, note=45, velocity=0, time=59),
    Message('note_on', channel=2, note=40, velocity=90, time=31),
    Message('note_on', channel=2, note=40, velocity=0, time=29),
    Message('note_on', channel=2, note=45, velocity=90, time=1),
    Message('note_on', channel=2, note=45, velocity=90, time=30),
    Message('note_on', channel=2, note=45, velocity=0, time=29),
    Message('note_on', channel=2, note=45, velocity=0, time=0),
    Message('note_on', channel=2, note=40, velocity=90, time=1),
    Message('note_on', channel=2, note=40, velocity=0, time=59),
    Message('note_on', channel=2, note=28, velocity=90, time=121),
    Message('note_on', channel=2, note=28, velocity=0, time=29),
    Message('note_on', channel=2, note=28, velocity=90, time=1),
    Message('note_on', channel=2, note=28, velocity=0, time=29),
    Message('note_on', channel=2, note=35, velocity=90, time=1),
    Message('note_on', channel=2, note=35, velocity=0, time=59),
    Message('note_on', channel=2, note=40, velocity=90, time=1),
    Message('note_on', channel=2, note=40, velocity=0, time=59),
    Message('note_on', channel=2, note=35, velocity=90, time=31),
    Message('note_on', channel=2, note=35, velocity=0, time=29),
    Message('note_on', channel=2, note=40, velocity=90, time=1),
    Message('note_on', channel=2, note=40, velocity=90, time=30),
    Message('note_on', channel=2, note=40, velocity=0, time=29),
    Message('note_on', channel=2, note=35, velocity=90, time=1),
    Message('note_on', channel=2, note=35, velocity=0, time=59),
    Message('note_on', channel=2, note=40, velocity=0, time=120),
    Message('note_on', channel=2, note=31, velocity=90, time=1),
    Message('note_on', channel=2, note=31, velocity=0, time=29),
    Message('note_on', channel=2, note=31, velocity=90, time=1),
    Message('note_on', channel=2, note=31, velocity=0, time=29),
    Message('note_on', channel=2, note=38, velocity=90, time=1),
    Message('note_on', channel=2, note=38, velocity=0, time=59),
    Message('note_on', channel=2, note=43, velocity=90, time=1),
    Message('note_on', channel=2, note=43, velocity=0, time=59),
    Message('note_on', channel=2, note=38, velocity=90, time=31),
    Message('note_on', channel=2, note=38, velocity=0, time=29),
    Message('note_on', channel=2, note=43, velocity=90, time=1),
    Message('note_on', channel=2, note=43, velocity=0, time=29),
    Message('note_on', channel=2, note=43, velocity=90, time=1),
    Message('note_on', channel=2, note=43, velocity=0, time=29),
    Message('note_on', channel=2, note=38, velocity=90, time=1),
    Message('note_on', channel=2, note=38, velocity=0, time=59),
    Message('note_on', channel=2, note=30, velocity=90, time=121),
    Message('note_on', channel=2, note=30, velocity=0, time=29),
    Message('note_on', channel=2, note=33, velocity=90, time=1),
    Message('note_on', channel=2, note=33, velocity=0, time=29),
    Message('note_on', channel=2, note=38, velocity=90, time=1),
    Message('note_on', channel=2, note=38, velocity=0, time=59),
    Message('note_on', channel=2, note=42, velocity=90, time=1),
    Message('note_on', channel=2, note=42, velocity=0, time=59),
    Message('note_on', channel=2, note=38, velocity=90, time=31),
    Message('note_on', channel=2, note=38, velocity=0, time=29),
    Message('note_on', channel=2, note=42, velocity=90, time=1),
    Message('note_on', channel=2, note=42, velocity=0, time=29),
    Message('note_on', channel=2, note=42, velocity=90, time=1),
    Message('note_on', channel=2, note=42, velocity=0, time=29),
    Message('note_on', channel=2, note=38, velocity=90, time=1),
    Message('note_on', channel=2, note=38, velocity=0, time=59),
    Message('note_on', channel=2, note=28, velocity=90, time=121),
    Message('note_on', channel=2, note=28, velocity=0, time=29),
    Message('note_on', channel=2, note=31, velocity=90, time=1),
    Message('note_on', channel=2, note=31, velocity=0, time=29),
    Message('note_on', channel=2, note=35, velocity=90, time=1),
    Message('note_on', channel=2, note=35, velocity=0, time=59),
    Message('note_on', channel=2, note=40, velocity=90, time=1),
    Message('note_on', channel=2, note=40, velocity=0, time=59),
    Message('note_on', channel=2, note=35, velocity=90, time=31),
    Message('note_on', channel=2, note=35, velocity=0, time=29),
    Message('note_on', channel=2, note=40, velocity=90, time=1),
    Message('note_on', channel=2, note=40, velocity=0, time=29),
    Message('note_on', channel=2, note=40, velocity=90, time=1),
    Message('note_on', channel=2, note=40, velocity=0, time=29),
    Message('note_on', channel=2, note=35, velocity=90, time=1),
    Message('note_on', channel=2, note=35, velocity=0, time=59),
    Message('note_on', channel=2, note=30, velocity=90, time=121),
    Message('note_on', channel=2, note=30, velocity=0, time=29),
    Message('note_on', channel=2, note=33, velocity=90, time=1),
    Message('note_on', channel=2, note=33, velocity=0, time=29),
    Message('note_on', channel=2, note=37, velocity=90, time=1),
    Message('note_on', channel=2, note=37, velocity=0, time=59),
    Message('note_on', channel=2, note=42, velocity=90, time=1),
    Message('note_on', channel=2, note=42, velocity=0, time=59),
    Message('note_on', channel=2, note=37, velocity=90, time=31),
    Message('note_on', channel=2, note=37, velocity=0, time=29),
    Message('note_on', channel=2, note=42, velocity=90, time=1),
    Message('note_on', channel=2, note=42, velocity=0, time=59),
    Message('note_on', channel=2, note=37, velocity=90, time=31),
    Message('note_on', channel=2, note=37, velocity=0, time=29),
    Message('note_on', channel=2, note=42, velocity=90, time=1),
    Message('note_on', channel=2, note=42, velocity=0, time=59),
    Message('note_on', channel=2, note=35, velocity=90, time=61),
    Message('note_on', channel=2, note=35, velocity=0, time=29),
    Message('note_on', channel=2, note=35, velocity=90, time=1),
    Message('note_on', channel=2, note=35, velocity=0, time=29),
    Message('note_on', channel=2, note=30, velocity=90, time=1),
    Message('note_on', channel=2, note=30, velocity=0, time=59),
    Message('note_on', channel=2, note=35, velocity=90, time=1),
    Message('note_on', channel=2, note=35, velocity=0, time=59),
    Message('note_on', channel=2, note=30, velocity=90, time=31),
    Message('note_on', channel=2, note=30, velocity=0, time=29),
    Message('note_on', channel=2, note=35, velocity=90, time=1),
    Message('note_on', channel=2, note=35, velocity=0, time=29),
    Message('note_on', channel=2, note=35, velocity=90, time=1),
    Message('note_on', channel=2, note=35, velocity=0, time=29),
    Message('note_on', channel=2, note=30, velocity=90, time=1),
    Message('note_on', channel=2, note=30, velocity=0, time=59),
    Message('note_on', channel=2, note=30, velocity=90, time=121),
    Message('note_on', channel=2, note=30, velocity=0, time=29),
    Message('note_on', channel=2, note=30, velocity=90, time=1),
    Message('note_on', channel=2, note=30, velocity=0, time=29),
    Message('note_on', channel=2, note=34, velocity=90, time=1),
    Message('note_on', channel=2, note=34, velocity=0, time=59),
    Message('note_on', channel=2, note=37, velocity=90, time=1),
    Message('note_on', channel=2, note=37, velocity=0, time=59),
    Message('note_on', channel=2, note=34, velocity=90, time=31),
    Message('note_on', channel=2, note=34, velocity=0, time=29),
    Message('note_on', channel=2, note=42, velocity=90, time=1),
    Message('note_on', channel=2, note=42, velocity=90, time=30),
    Message('note_on', channel=2, note=42, velocity=0, time=29),
    Message('note_on', channel=2, note=42, velocity=0, time=0),
    Message('note_on', channel=2, note=34, velocity=90, time=1),
    Message('note_on', channel=2, note=34, velocity=0, time=59),
    Message('note_on', channel=2, note=33, velocity=90, time=121),
    Message('note_on', channel=2, note=33, velocity=0, time=29),
    Message('note_on', channel=2, note=33, velocity=90, time=1),
    Message('note_on', channel=2, note=33, velocity=0, time=29),
    Message('note_on', channel=2, note=40, velocity=90, time=1),
    Message('note_on', channel=2, note=40, velocity=0, time=59),
    Message('note_on', channel=2, note=45, velocity=90, time=1),
    Message('note_on', channel=2, note=45, velocity=0, time=59),
    Message('note_on', channel=2, note=40, velocity=90, time=31),
    Message('note_on', channel=2, note=40, velocity=0, time=29),
    Message('note_on', channel=2, note=45, velocity=90, time=1),
    Message('note_on', channel=2, note=45, velocity=90, time=30),
    Message('note_on', channel=2, note=45, velocity=0, time=29),
    Message('note_on', channel=2, note=45, velocity=0, time=0),
    Message('note_on', channel=2, note=40, velocity=90, time=1),
    Message('note_on', channel=2, note=40, velocity=0, time=59),
    Message('note_on', channel=2, note=28, velocity=90, time=121),
    Message('note_on', channel=2, note=28, velocity=0, time=29),
    Message('note_on', channel=2, note=28, velocity=90, time=1),
    Message('note_on', channel=2, note=28, velocity=0, time=29),
    Message('note_on', channel=2, note=35, velocity=90, time=1),
    Message('note_on', channel=2, note=35, velocity=0, time=59),
    Message('note_on', channel=2, note=40, velocity=90, time=1),
    Message('note_on', channel=2, note=40, velocity=0, time=89),
    Message('note_on', channel=2, note=35, velocity=90, time=1),
    Message('note_on', channel=2, note=35, velocity=0, time=29),
    Message('note_on', channel=2, note=40, velocity=90, time=1),
    Message('note_on', channel=2, note=40, velocity=0, time=239),
    Message('note_on', channel=2, note=31, velocity=90, time=1),
    Message('note_on', channel=2, note=31, velocity=0, time=29),
    Message('note_on', channel=2, note=31, velocity=90, time=1),
    Message('note_on', channel=2, note=31, velocity=0, time=29),
    Message('note_on', channel=2, note=38, velocity=90, time=1),
    Message('note_on', channel=2, note=38, velocity=0, time=59),
    Message('note_on', channel=2, note=43, velocity=90, time=1),
    Message('note_on', channel=2, note=43, velocity=0, time=89),
    Message('note_on', channel=2, note=38, velocity=90, time=1),
    Message('note_on', channel=2, note=38, velocity=0, time=29),
    Message('note_on', channel=2, note=43, velocity=90, time=1),
    Message('note_on', channel=2, note=43, velocity=0, time=29),
    Message('note_on', channel=2, note=43, velocity=90, time=1),
    Message('note_on', channel=2, note=43, velocity=0, time=29),
    Message('note_on', channel=2, note=38, velocity=90, time=1),
    Message('note_on', channel=2, note=38, velocity=0, time=179),
    Message('note_on', channel=2, note=30, velocity=90, time=1),
    Message('note_on', channel=2, note=30, velocity=0, time=29),
    Message('note_on', channel=2, note=33, velocity=90, time=1),
    Message('note_on', channel=2, note=33, velocity=0, time=29),
    Message('note_on', channel=2, note=38, velocity=90, time=1),
    Message('note_on', channel=2, note=38, velocity=0, time=59),
    Message('note_on', channel=2, note=42, velocity=90, time=1),
    Message('note_on', channel=2, note=42, velocity=0, time=59),
    Message('note_on', channel=2, note=38, velocity=90, time=31),
    Message('note_on', channel=2, note=38, velocity=0, time=29),
    Message('note_on', channel=2, note=42, velocity=90, time=1),
    Message('note_on', channel=2, note=42, velocity=0, time=29),
    Message('note_on', channel=2, note=42, velocity=90, time=1),
    Message('note_on', channel=2, note=42, velocity=0, time=29),
    Message('note_on', channel=2, note=38, velocity=90, time=1),
    Message('note_on', channel=2, note=38, velocity=0, time=59),
    Message('note_on', channel=2, note=28, velocity=90, time=121),
    Message('note_on', channel=2, note=28, velocity=0, time=29),
    Message('note_on', channel=2, note=31, velocity=90, time=1),
    Message('note_on', channel=2, note=31, velocity=0, time=29),
    Message('note_on', channel=2, note=35, velocity=90, time=1),
    Message('note_on', channel=2, note=35, velocity=0, time=59),
    Message('note_on', channel=2, note=40, velocity=90, time=1),
    Message('note_on', channel=2, note=40, velocity=0, time=59),
    Message('note_on', channel=2, note=35, velocity=90, time=31),
    Message('note_on', channel=2, note=35, velocity=0, time=29),
    Message('note_on', channel=2, note=40, velocity=90, time=1),
    Message('note_on', channel=2, note=40, velocity=0, time=29),
    Message('note_on', channel=2, note=40, velocity=90, time=1),
    Message('note_on', channel=2, note=40, velocity=0, time=29),
    Message('note_on', channel=2, note=35, velocity=90, time=1),
    Message('note_on', channel=2, note=35, velocity=0, time=59),
    Message('note_on', channel=2, note=30, velocity=90, time=121),
    Message('note_on', channel=2, note=30, velocity=0, time=29),
    Message('note_on', channel=2, note=33, velocity=90, time=1),
    Message('note_on', channel=2, note=33, velocity=0, time=29),
    Message('note_on', channel=2, note=37, velocity=90, time=1),
    Message('note_on', channel=2, note=37, velocity=0, time=29),
    Message('note_on', channel=2, note=42, velocity=90, time=1),
    Message('note_on', channel=2, note=42, velocity=0, time=119),
    Message('note_on', channel=2, note=37, velocity=90, time=1),
    Message('note_on', channel=2, note=37, velocity=0, time=29),
    Message('note_on', channel=2, note=42, velocity=90, time=1),
    Message('note_on', channel=2, note=42, velocity=0, time=59),
    Message('note_on', channel=2, note=35, velocity=90, time=61),
    Message('note_on', channel=2, note=37, velocity=90, time=30),
    Message('note_on', channel=2, note=35, velocity=0, time=29),
    Message('note_on', channel=2, note=37, velocity=0, time=0),
    Message('note_on', channel=2, note=38, velocity=90, time=1),
    Message('note_on', channel=2, note=38, velocity=0, time=29),
    Message('note_on', channel=2, note=42, velocity=90, time=1),
    Message('note_on', channel=2, note=42, velocity=0, time=29),
    Message('note_on', channel=2, note=43, velocity=90, time=1),
    Message('note_on', channel=2, note=43, velocity=0, time=29),
    Message('note_on', channel=2, note=38, velocity=90, time=1),
    Message('note_on', channel=2, note=38, velocity=0, time=29),
    Message('note_on', channel=2, note=31, velocity=90, time=1),
    Message('note_on', channel=2, note=43, velocity=90, time=0),
    Message('note_on', channel=2, note=31, velocity=0, time=59),
    Message('note_on', channel=2, note=43, velocity=0, time=0),
    Message('note_on', channel=2, note=38, velocity=90, time=91),
    Message('note_on', channel=2, note=38, velocity=0, time=29),
    Message('note_on', channel=2, note=43, velocity=90, time=1),
    Message('note_on', channel=2, note=43, velocity=0, time=59),
    Message('note_on', channel=2, note=38, velocity=90, time=31),
    Message('note_on', channel=2, note=38, velocity=0, time=29),
    Message('note_on', channel=2, note=43, velocity=90, time=1),
    Message('note_on', channel=2, note=43, velocity=0, time=59),
    Message('note_on', channel=2, note=37, velocity=90, time=31),
    Message('note_on', channel=2, note=37, velocity=0, time=29),
    Message('note_on', channel=2, note=38, velocity=90, time=1),
    Message('note_on', channel=2, note=38, velocity=0, time=29),
    Message('note_on', channel=2, note=33, velocity=90, time=1),
    Message('note_on', channel=2, note=33, velocity=0, time=29),
    Message('note_on', channel=2, note=26, velocity=90, time=1),
    Message('note_on', channel=2, note=38, velocity=90, time=0),
    Message('note_on', channel=2, note=26, velocity=0, time=59),
    Message('note_on', channel=2, note=38, velocity=0, time=0),
    Message('note_on', channel=2, note=33, velocity=90, time=91),
    Message('note_on', channel=2, note=33, velocity=0, time=29),
    Message('note_on', channel=2, note=38, velocity=90, time=1),
    Message('note_on', channel=2, note=38, velocity=0, time=59),
    Message('note_on', channel=2, note=33, velocity=90, time=31),
    Message('note_on', channel=2, note=33, velocity=0, time=29),
    Message('note_on', channel=2, note=38, velocity=90, time=1),
    Message('note_on', channel=2, note=38, velocity=0, time=59),
    Message('note_on', channel=2, note=42, velocity=90, time=31),
    Message('note_on', channel=2, note=42, velocity=0, time=29),
    Message('note_on', channel=2, note=42, velocity=90, time=1),
    Message('note_on', channel=2, note=42, velocity=0, time=29),
    Message('note_on', channel=2, note=37, velocity=90, time=1),
    Message('note_on', channel=2, note=37, velocity=0, time=29),
    Message('note_on', channel=2, note=42, velocity=90, time=1),
    Message('note_on', channel=2, note=30, velocity=90, time=0),
    Message('note_on', channel=2, note=42, velocity=0, time=59),
    Message('note_on', channel=2, note=30, velocity=0, time=0),
    Message('note_on', channel=2, note=37, velocity=90, time=91),
    Message('note_on', channel=2, note=37, velocity=0, time=29),
    Message('note_on', channel=2, note=42, velocity=90, time=1),
    Message('note_on', channel=2, note=42, velocity=0, time=59),
    Message('note_on', channel=2, note=37, velocity=90, time=31),
    Message('note_on', channel=2, note=37, velocity=0, time=29),
    Message('note_on', channel=2, note=42, velocity=90, time=1),
    Message('note_on', channel=2, note=42, velocity=0, time=59),
    Message('note_on', channel=2, note=35, velocity=90, time=61),
    Message('note_on', channel=2, note=35, velocity=0, time=119),
    Message('note_on', channel=2, note=37, velocity=90, time=1),
    Message('note_on', channel=2, note=37, velocity=0, time=119),
    Message('note_on', channel=2, note=38, velocity=90, time=1),
    Message('note_on', channel=2, note=38, velocity=0, time=119),
    Message('note_on', channel=2, note=40, velocity=90, time=1),
    Message('note_on', channel=2, note=40, velocity=0, time=59),
    Message('note_on', channel=2, note=42, velocity=90, time=1),
    Message('note_on', channel=2, note=42, velocity=0, time=59),
    Message('note_on', channel=2, note=43, velocity=90, time=1),
    Message('note_on', channel=2, note=43, velocity=0, time=29),
    Message('note_on', channel=2, note=38, velocity=90, time=1),
    Message('note_on', channel=2, note=38, velocity=0, time=29),
    Message('note_on', channel=2, note=31, velocity=90, time=1),
    Message('note_on', channel=2, note=43, velocity=90, time=0),
    Message('note_on', channel=2, note=31, velocity=0, time=29),
    Message('note_on', channel=2, note=43, velocity=0, time=0),
    Message('note_on', channel=2, note=38, velocity=90, time=121),
    Message('note_on', channel=2, note=38, velocity=0, time=29),
    Message('note_on', channel=2, note=43, velocity=90, time=1),
    Message('note_on', channel=2, note=43, velocity=0, time=59),
    Message('note_on', channel=2, note=38, velocity=90, time=31),
    Message('note_on', channel=2, note=38, velocity=0, time=29),
    Message('note_on', channel=2, note=43, velocity=90, time=1),
    Message('note_on', channel=2, note=43, velocity=0, time=59),
    Message('note_on', channel=2, note=37, velocity=90, time=31),
    Message('note_on', channel=2, note=37, velocity=0, time=29),
    Message('note_on', channel=2, note=38, velocity=90, time=1),
    Message('note_on', channel=2, note=38, velocity=0, time=29),
    Message('note_on', channel=2, note=33, velocity=90, time=1),
    Message('note_on', channel=2, note=33, velocity=0, time=29),
    Message('note_on', channel=2, note=38, velocity=90, time=1),
    Message('note_on', channel=2, note=26, velocity=90, time=0),
    Message('note_on', channel=2, note=38, velocity=0, time=59),
    Message('note_on', channel=2, note=26, velocity=0, time=0),
    Message('note_on', channel=2, note=33, velocity=90, time=91),
    Message('note_on', channel=2, note=33, velocity=0, time=29),
    Message('note_on', channel=2, note=38, velocity=90, time=1),
    Message('note_on', channel=2, note=38, velocity=0, time=59),
    Message('note_on', channel=2, note=33, velocity=90, time=31),
    Message('note_on', channel=2, note=33, velocity=0, time=29),
    Message('note_on', channel=2, note=38, velocity=90, time=1),
    Message('note_on', channel=2, note=38, velocity=0, time=59),
    Message('note_on', channel=2, note=42, velocity=90, time=31),
    Message('note_on', channel=2, note=42, velocity=0, time=29),
    Message('note_on', channel=2, note=43, velocity=90, time=1),
    Message('note_on', channel=2, note=43, velocity=0, time=29),
    Message('note_on', channel=2, note=35, velocity=90, time=1),
    Message('note_on', channel=2, note=35, velocity=0, time=29),
    Message('note_on', channel=2, note=28, velocity=90, time=1),
    Message('note_on', channel=2, note=40, velocity=90, time=0),
    Message('note_on', channel=2, note=28, velocity=0, time=59),
    Message('note_on', channel=2, note=40, velocity=0, time=0),
    Message('note_on', channel=2, note=35, velocity=90, time=91),
    Message('note_on', channel=2, note=35, velocity=0, time=29),
    Message('note_on', channel=2, note=40, velocity=90, time=1),
    Message('note_on', channel=2, note=40, velocity=0, time=59),
    Message('note_on', channel=2, note=35, velocity=90, time=31),
    Message('note_on', channel=2, note=35, velocity=0, time=29),
    Message('note_on', channel=2, note=40, velocity=90, time=1),
    Message('note_on', channel=2, note=40, velocity=0, time=59),
    Message('note_on', channel=2, note=43, velocity=90, time=31),
    Message('note_on', channel=2, note=43, velocity=0, time=29),
    Message('note_on', channel=2, note=42, velocity=90, time=1),
    Message('note_on', channel=2, note=42, velocity=0, time=29),
    Message('note_on', channel=2, note=37, velocity=90, time=1),
    Message('note_on', channel=2, note=37, velocity=0, time=29),
    Message('note_on', channel=2, note=42, velocity=90, time=1),
    Message('note_on', channel=2, note=30, velocity=90, time=0),
    Message('note_on', channel=2, note=42, velocity=0, time=59),
    Message('note_on', channel=2, note=30, velocity=0, time=0),
    Message('note_on', channel=2, note=37, velocity=90, time=91),
    Message('note_on', channel=2, note=37, velocity=0, time=29),
    Message('note_on', channel=2, note=42, velocity=90, time=1),
    Message('note_on', channel=2, note=42, velocity=0, time=59),
    Message('note_on', channel=2, note=35, velocity=90, time=181),
    Message('note_on', channel=2, note=35, velocity=0, time=29),
    Message('note_on', channel=2, note=35, velocity=90, time=1),
    Message('note_on', channel=2, note=35, velocity=0, time=29),
    Message('note_on', channel=2, note=30, velocity=90, time=1),
    Message('note_on', channel=2, note=30, velocity=0, time=59),
    Message('note_on', channel=2, note=35, velocity=90, time=1),
    Message('note_on', channel=2, note=35, velocity=0, time=59),
    Message('note_on', channel=2, note=30, velocity=90, time=31),
    Message('note_on', channel=2, note=30, velocity=0, time=29),
    Message('note_on', channel=2, note=35, velocity=90, time=1),
    Message('note_on', channel=2, note=35, velocity=0, time=29),
    Message('note_on', channel=2, note=35, velocity=90, time=1),
    Message('note_on', channel=2, note=35, velocity=0, time=29),
    Message('note_on', channel=2, note=30, velocity=90, time=1),
    Message('note_on', channel=2, note=30, velocity=0, time=59),
    Message('note_on', channel=2, note=30, velocity=90, time=121),
    Message('note_on', channel=2, note=30, velocity=0, time=29),
    Message('note_on', channel=2, note=30, velocity=90, time=1),
    Message('note_on', channel=2, note=30, velocity=0, time=29),
    Message('note_on', channel=2, note=34, velocity=90, time=1),
    Message('note_on', channel=2, note=34, velocity=0, time=59),
    Message('note_on', channel=2, note=37, velocity=90, time=1),
    Message('note_on', channel=2, note=37, velocity=0, time=59),
    Message('note_on', channel=2, note=34, velocity=90, time=31),
    Message('note_on', channel=2, note=34, velocity=0, time=29),
    Message('note_on', channel=2, note=42, velocity=90, time=1),
    Message('note_on', channel=2, note=42, velocity=90, time=30),
    Message('note_on', channel=2, note=42, velocity=0, time=29),
    Message('note_on', channel=2, note=42, velocity=0, time=0),
    Message('note_on', channel=2, note=34, velocity=90, time=1),
    Message('note_on', channel=2, note=34, velocity=0, time=59),
    Message('note_on', channel=2, note=33, velocity=90, time=121),
    Message('note_on', channel=2, note=33, velocity=0, time=29),
    Message('note_on', channel=2, note=33, velocity=90, time=1),
    Message('note_on', channel=2, note=33, velocity=0, time=29),
    Message('note_on', channel=2, note=40, velocity=90, time=1),
    Message('note_on', channel=2, note=40, velocity=0, time=59),
    Message('note_on', channel=2, note=45, velocity=90, time=1),
    Message('note_on', channel=2, note=45, velocity=0, time=59),
    Message('note_on', channel=2, note=40, velocity=90, time=31),
    Message('note_on', channel=2, note=40, velocity=0, time=29),
    Message('note_on', channel=2, note=45, velocity=90, time=1),
    Message('note_on', channel=2, note=45, velocity=90, time=30),
    Message('note_on', channel=2, note=45, velocity=0, time=29),
    Message('note_on', channel=2, note=45, velocity=0, time=0),
    Message('note_on', channel=2, note=40, velocity=90, time=1),
    Message('note_on', channel=2, note=40, velocity=0, time=59),
    Message('note_on', channel=2, note=28, velocity=90, time=121),
    Message('note_on', channel=2, note=28, velocity=0, time=29),
    Message('note_on', channel=2, note=28, velocity=90, time=1),
    Message('note_on', channel=2, note=28, velocity=0, time=29),
    Message('note_on', channel=2, note=35, velocity=90, time=1),
    Message('note_on', channel=2, note=35, velocity=0, time=59),
    Message('note_on', channel=2, note=40, velocity=90, time=1),
    Message('note_on', channel=2, note=40, velocity=0, time=59),
    Message('note_on', channel=2, note=35, velocity=90, time=31),
    Message('note_on', channel=2, note=35, velocity=0, time=29),
    Message('note_on', channel=2, note=40, velocity=90, time=1),
    Message('note_on', channel=2, note=40, velocity=90, time=30),
    Message('note_on', channel=2, note=40, velocity=0, time=29),
    Message('note_on', channel=2, note=35, velocity=90, time=1),
    Message('note_on', channel=2, note=35, velocity=0, time=59),
    Message('note_on', channel=2, note=40, velocity=0, time=120),
    Message('note_on', channel=2, note=31, velocity=90, time=1),
    Message('note_on', channel=2, note=31, velocity=0, time=29),
    Message('note_on', channel=2, note=31, velocity=90, time=1),
    Message('note_on', channel=2, note=31, velocity=0, time=29),
    Message('note_on', channel=2, note=38, velocity=90, time=1),
    Message('note_on', channel=2, note=38, velocity=0, time=59),
    Message('note_on', channel=2, note=43, velocity=90, time=1),
    Message('note_on', channel=2, note=43, velocity=0, time=59),
    Message('note_on', channel=2, note=38, velocity=90, time=31),
    Message('note_on', channel=2, note=38, velocity=0, time=29),
    Message('note_on', channel=2, note=43, velocity=90, time=1),
    Message('note_on', channel=2, note=43, velocity=0, time=29),
    Message('note_on', channel=2, note=43, velocity=90, time=1),
    Message('note_on', channel=2, note=43, velocity=0, time=29),
    Message('note_on', channel=2, note=38, velocity=90, time=1),
    Message('note_on', channel=2, note=38, velocity=0, time=59),
    Message('note_on', channel=2, note=30, velocity=90, time=121),
    Message('note_on', channel=2, note=30, velocity=0, time=29),
    Message('note_on', channel=2, note=33, velocity=90, time=1),
    Message('note_on', channel=2, note=33, velocity=0, time=29),
    Message('note_on', channel=2, note=38, velocity=90, time=1),
    Message('note_on', channel=2, note=38, velocity=0, time=59),
    Message('note_on', channel=2, note=42, velocity=90, time=1),
    Message('note_on', channel=2, note=42, velocity=0, time=59),
    Message('note_on', channel=2, note=38, velocity=90, time=31),
    Message('note_on', channel=2, note=38, velocity=0, time=29),
    Message('note_on', channel=2, note=42, velocity=90, time=1),
    Message('note_on', channel=2, note=42, velocity=0, time=29),
    Message('note_on', channel=2, note=42, velocity=90, time=1),
    Message('note_on', channel=2, note=42, velocity=0, time=29),
    Message('note_on', channel=2, note=38, velocity=90, time=1),
    Message('note_on', channel=2, note=38, velocity=0, time=59),
    Message('note_on', channel=2, note=28, velocity=90, time=121),
    Message('note_on', channel=2, note=28, velocity=0, time=29),
    Message('note_on', channel=2, note=31, velocity=90, time=1),
    Message('note_on', channel=2, note=31, velocity=0, time=29),
    Message('note_on', channel=2, note=35, velocity=90, time=1),
    Message('note_on', channel=2, note=35, velocity=0, time=59),
    Message('note_on', channel=2, note=40, velocity=90, time=1),
    Message('note_on', channel=2, note=40, velocity=0, time=59),
    Message('note_on', channel=2, note=35, velocity=90, time=31),
    Message('note_on', channel=2, note=35, velocity=0, time=29),
    Message('note_on', channel=2, note=40, velocity=90, time=1),
    Message('note_on', channel=2, note=40, velocity=0, time=29),
    Message('note_on', channel=2, note=40, velocity=90, time=1),
    Message('note_on', channel=2, note=40, velocity=0, time=29),
    Message('note_on', channel=2, note=35, velocity=90, time=1),
    Message('note_on', channel=2, note=35, velocity=0, time=59),
    Message('note_on', channel=2, note=30, velocity=90, time=121),
    Message('note_on', channel=2, note=30, velocity=0, time=29),
    Message('note_on', channel=2, note=33, velocity=90, time=1),
    Message('note_on', channel=2, note=33, velocity=0, time=29),
    Message('note_on', channel=2, note=37, velocity=90, time=1),
    Message('note_on', channel=2, note=37, velocity=0, time=29),
    Message('note_on', channel=2, note=42, velocity=90, time=1),
    Message('note_on', channel=2, note=42, velocity=0, time=119),
    Message('note_on', channel=2, note=37, velocity=90, time=1),
    Message('note_on', channel=2, note=37, velocity=0, time=29),
    Message('note_on', channel=2, note=42, velocity=90, time=1),
    Message('note_on', channel=2, note=42, velocity=0, time=59),
    Message('note_on', channel=2, note=37, velocity=90, time=31),
    Message('note_on', channel=2, note=37, velocity=0, time=29),
    Message('note_on', channel=2, note=42, velocity=90, time=1),
    Message('note_on', channel=2, note=42, velocity=0, time=59),
    Message('note_on', channel=2, note=35, velocity=90, time=61),
    Message('note_on', channel=2, note=35, velocity=0, time=29),
    Message('note_on', channel=2, note=35, velocity=90, time=1),
    Message('note_on', channel=2, note=35, velocity=0, time=29),
    Message('note_on', channel=2, note=30, velocity=90, time=1),
    Message('note_on', channel=2, note=30, velocity=0, time=59),
    Message('note_on', channel=2, note=35, velocity=90, time=1),
    Message('note_on', channel=2, note=35, velocity=0, time=59),
    Message('note_on', channel=2, note=30, velocity=90, time=31),
    Message('note_on', channel=2, note=30, velocity=0, time=29),
    Message('note_on', channel=2, note=35, velocity=90, time=1),
    Message('note_on', channel=2, note=35, velocity=0, time=29),
    Message('note_on', channel=2, note=35, velocity=90, time=1),
    Message('note_on', channel=2, note=35, velocity=0, time=29),
    Message('note_on', channel=2, note=30, velocity=90, time=1),
    Message('note_on', channel=2, note=30, velocity=0, time=59),
    Message('note_on', channel=2, note=30, velocity=90, time=121),
    Message('note_on', channel=2, note=30, velocity=0, time=29),
    Message('note_on', channel=2, note=30, velocity=90, time=1),
    Message('note_on', channel=2, note=30, velocity=0, time=29),
    Message('note_on', channel=2, note=34, velocity=90, time=1),
    Message('note_on', channel=2, note=34, velocity=0, time=59),
    Message('note_on', channel=2, note=37, velocity=90, time=1),
    Message('note_on', channel=2, note=37, velocity=0, time=59),
    Message('note_on', channel=2, note=34, velocity=90, time=31),
    Message('note_on', channel=2, note=34, velocity=0, time=29),
    Message('note_on', channel=2, note=42, velocity=90, time=1),
    Message('note_on', channel=2, note=42, velocity=90, time=30),
    Message('note_on', channel=2, note=42, velocity=0, time=29),
    Message('note_on', channel=2, note=42, velocity=0, time=0),
    Message('note_on', channel=2, note=34, velocity=90, time=1),
    Message('note_on', channel=2, note=34, velocity=0, time=59),
    Message('note_on', channel=2, note=33, velocity=90, time=121),
    Message('note_on', channel=2, note=33, velocity=0, time=29),
    Message('note_on', channel=2, note=33, velocity=90, time=1),
    Message('note_on', channel=2, note=33, velocity=0, time=29),
    Message('note_on', channel=2, note=40, velocity=90, time=1),
    Message('note_on', channel=2, note=40, velocity=0, time=59),
    Message('note_on', channel=2, note=45, velocity=90, time=1),
    Message('note_on', channel=2, note=45, velocity=0, time=59),
    Message('note_on', channel=2, note=40, velocity=90, time=31),
    Message('note_on', channel=2, note=40, velocity=0, time=29),
    Message('note_on', channel=2, note=45, velocity=90, time=1),
    Message('note_on', channel=2, note=45, velocity=90, time=30),
    Message('note_on', channel=2, note=45, velocity=0, time=29),
    Message('note_on', channel=2, note=45, velocity=0, time=0),
    Message('note_on', channel=2, note=40, velocity=90, time=1),
    Message('note_on', channel=2, note=40, velocity=0, time=59),
    Message('note_on', channel=2, note=28, velocity=90, time=121),
    Message('note_on', channel=2, note=28, velocity=0, time=29),
    Message('note_on', channel=2, note=28, velocity=90, time=1),
    Message('note_on', channel=2, note=28, velocity=0, time=29),
    Message('note_on', channel=2, note=35, velocity=90, time=1),
    Message('note_on', channel=2, note=35, velocity=0, time=59),
    Message('note_on', channel=2, note=40, velocity=90, time=1),
    Message('note_on', channel=2, note=40, velocity=0, time=59),
    Message('note_on', channel=2, note=35, velocity=90, time=31),
    Message('note_on', channel=2, note=35, velocity=0, time=29),
    Message('note_on', channel=2, note=40, velocity=90, time=1),
    Message('note_on', channel=2, note=40, velocity=90, time=30),
    Message('note_on', channel=2, note=40, velocity=0, time=29),
    Message('note_on', channel=2, note=35, velocity=90, time=1),
    Message('note_on', channel=2, note=35, velocity=0, time=59),
    Message('note_on', channel=2, note=40, velocity=0, time=120),
    Message('note_on', channel=2, note=31, velocity=90, time=1),
    Message('note_on', channel=2, note=31, velocity=0, time=29),
    Message('note_on', channel=2, note=31, velocity=90, time=1),
    Message('note_on', channel=2, note=31, velocity=0, time=29),
    Message('note_on', channel=2, note=38, velocity=90, time=1),
    Message('note_on', channel=2, note=38, velocity=0, time=59),
    Message('note_on', channel=2, note=43, velocity=90, time=1),
    Message('note_on', channel=2, note=43, velocity=0, time=59),
    Message('note_on', channel=2, note=38, velocity=90, time=31),
    Message('note_on', channel=2, note=38, velocity=0, time=29),
    Message('note_on', channel=2, note=43, velocity=90, time=1),
    Message('note_on', channel=2, note=43, velocity=0, time=29),
    Message('note_on', channel=2, note=43, velocity=90, time=1),
    Message('note_on', channel=2, note=43, velocity=0, time=29),
    Message('note_on', channel=2, note=38, velocity=90, time=1),
    Message('note_on', channel=2, note=38, velocity=0, time=29),
    Message('note_on', channel=2, note=30, velocity=90, time=151),
    Message('note_on', channel=2, note=30, velocity=0, time=29),
    Message('note_on', channel=2, note=33, velocity=90, time=1),
    Message('note_on', channel=2, note=33, velocity=0, time=29),
    Message('note_on', channel=2, note=38, velocity=90, time=1),
    Message('note_on', channel=2, note=38, velocity=0, time=59),
    Message('note_on', channel=2, note=42, velocity=90, time=1),
    Message('note_on', channel=2, note=42, velocity=0, time=59),
    Message('note_on', channel=2, note=38, velocity=90, time=31),
    Message('note_on', channel=2, note=38, velocity=0, time=29),
    Message('note_on', channel=2, note=42, velocity=90, time=1),
    Message('note_on', channel=2, note=42, velocity=0, time=29),
    Message('note_on', channel=2, note=42, velocity=90, time=1),
    Message('note_on', channel=2, note=42, velocity=0, time=29),
    Message('note_on', channel=2, note=38, velocity=90, time=1),
    Message('note_on', channel=2, note=38, velocity=0, time=59),
    Message('note_on', channel=2, note=28, velocity=90, time=121),
    Message('note_on', channel=2, note=28, velocity=0, time=29),
    Message('note_on', channel=2, note=31, velocity=90, time=1),
    Message('note_on', channel=2, note=31, velocity=0, time=29),
    Message('note_on', channel=2, note=35, velocity=90, time=1),
    Message('note_on', channel=2, note=35, velocity=0, time=59),
    Message('note_on', channel=2, note=40, velocity=90, time=1),
    Message('note_on', channel=2, note=40, velocity=0, time=59),
    Message('note_on', channel=2, note=35, velocity=90, time=31),
    Message('note_on', channel=2, note=35, velocity=0, time=29),
    Message('note_on', channel=2, note=40, velocity=90, time=1),
    Message('note_on', channel=2, note=40, velocity=0, time=29),
    Message('note_on', channel=2, note=40, velocity=90, time=1),
    Message('note_on', channel=2, note=40, velocity=0, time=29),
    Message('note_on', channel=2, note=35, velocity=90, time=1),
    Message('note_on', channel=2, note=35, velocity=0, time=59),
    Message('note_on', channel=2, note=30, velocity=90, time=121),
    Message('note_on', channel=2, note=30, velocity=0, time=29),
    Message('note_on', channel=2, note=33, velocity=90, time=1),
    Message('note_on', channel=2, note=33, velocity=0, time=29),
    Message('note_on', channel=2, note=37, velocity=90, time=1),
    Message('note_on', channel=2, note=37, velocity=0, time=29),
    Message('note_on', channel=2, note=42, velocity=90, time=1),
    Message('note_on', channel=2, note=42, velocity=0, time=119),
    Message('note_on', channel=2, note=37, velocity=90, time=1),
    Message('note_on', channel=2, note=37, velocity=0, time=29),
    Message('note_on', channel=2, note=42, velocity=90, time=1),
    Message('note_on', channel=2, note=42, velocity=0, time=59),
    Message('note_on', channel=2, note=35, velocity=90, time=61),
    Message('note_on', channel=2, note=37, velocity=90, time=30),
    Message('note_on', channel=2, note=35, velocity=0, time=29),
    Message('note_on', channel=2, note=37, velocity=0, time=0),
    Message('note_on', channel=2, note=38, velocity=90, time=1),
    Message('note_on', channel=2, note=38, velocity=0, time=29),
    Message('note_on', channel=2, note=42, velocity=90, time=1),
    Message('note_on', channel=2, note=42, velocity=0, time=29),
    Message('note_on', channel=2, note=43, velocity=90, time=1),
    Message('note_on', channel=2, note=43, velocity=0, time=29),
    Message('note_on', channel=2, note=38, velocity=90, time=1),
    Message('note_on', channel=2, note=38, velocity=0, time=29),
    Message('note_on', channel=2, note=31, velocity=90, time=1),
    Message('note_on', channel=2, note=43, velocity=90, time=0),
    Message('note_on', channel=2, note=31, velocity=0, time=59),
    Message('note_on', channel=2, note=43, velocity=0, time=0),
    Message('note_on', channel=2, note=38, velocity=90, time=91),
    Message('note_on', channel=2, note=38, velocity=0, time=29),
    Message('note_on', channel=2, note=43, velocity=90, time=1),
    Message('note_on', channel=2, note=43, velocity=0, time=59),
    Message('note_on', channel=2, note=38, velocity=90, time=31),
    Message('note_on', channel=2, note=38, velocity=0, time=29),
    Message('note_on', channel=2, note=43, velocity=90, time=1),
    Message('note_on', channel=2, note=43, velocity=0, time=59),
    Message('note_on', channel=2, note=37, velocity=90, time=31),
    Message('note_on', channel=2, note=37, velocity=0, time=29),
    Message('note_on', channel=2, note=38, velocity=90, time=1),
    Message('note_on', channel=2, note=38, velocity=0, time=29),
    Message('note_on', channel=2, note=33, velocity=90, time=1),
    Message('note_on', channel=2, note=33, velocity=0, time=29),
    Message('note_on', channel=2, note=26, velocity=90, time=1),
    Message('note_on', channel=2, note=38, velocity=90, time=0),
    Message('note_on', channel=2, note=26, velocity=0, time=59),
    Message('note_on', channel=2, note=38, velocity=0, time=0),
    Message('note_on', channel=2, note=33, velocity=90, time=91),
    Message('note_on', channel=2, note=33, velocity=0, time=29),
    Message('note_on', channel=2, note=38, velocity=90, time=1),
    Message('note_on', channel=2, note=38, velocity=0, time=59),
    Message('note_on', channel=2, note=33, velocity=90, time=31),
    Message('note_on', channel=2, note=33, velocity=0, time=29),
    Message('note_on', channel=2, note=38, velocity=90, time=1),
    Message('note_on', channel=2, note=38, velocity=0, time=59),
    Message('note_on', channel=2, note=42, velocity=90, time=31),
    Message('note_on', channel=2, note=42, velocity=0, time=29),
    Message('note_on', channel=2, note=42, velocity=90, time=1),
    Message('note_on', channel=2, note=42, velocity=0, time=29),
    Message('note_on', channel=2, note=37, velocity=90, time=1),
    Message('note_on', channel=2, note=37, velocity=0, time=29),
    Message('note_on', channel=2, note=42, velocity=90, time=1),
    Message('note_on', channel=2, note=30, velocity=90, time=0),
    Message('note_on', channel=2, note=42, velocity=0, time=59),
    Message('note_on', channel=2, note=30, velocity=0, time=0),
    Message('note_on', channel=2, note=37, velocity=90, time=91),
    Message('note_on', channel=2, note=37, velocity=0, time=29),
    Message('note_on', channel=2, note=42, velocity=90, time=1),
    Message('note_on', channel=2, note=42, velocity=0, time=59),
    Message('note_on', channel=2, note=37, velocity=90, time=31),
    Message('note_on', channel=2, note=37, velocity=0, time=29),
    Message('note_on', channel=2, note=42, velocity=90, time=1),
    Message('note_on', channel=2, note=42, velocity=0, time=59),
    Message('note_on', channel=2, note=35, velocity=90, time=61),
    Message('note_on', channel=2, note=35, velocity=0, time=119),
    Message('note_on', channel=2, note=37, velocity=90, time=1),
    Message('note_on', channel=2, note=37, velocity=0, time=119),
    Message('note_on', channel=2, note=38, velocity=90, time=1),
    Message('note_on', channel=2, note=38, velocity=0, time=119),
    Message('note_on', channel=2, note=40, velocity=90, time=1),
    Message('note_on', channel=2, note=40, velocity=0, time=59),
    Message('note_on', channel=2, note=42, velocity=90, time=1),
    Message('note_on', channel=2, note=42, velocity=0, time=59),
    Message('note_on', channel=2, note=43, velocity=90, time=1),
    Message('note_on', channel=2, note=43, velocity=0, time=29),
    Message('note_on', channel=2, note=38, velocity=90, time=1),
    Message('note_on', channel=2, note=38, velocity=0, time=29),
    Message('note_on', channel=2, note=31, velocity=90, time=1),
    Message('note_on', channel=2, note=43, velocity=90, time=0),
    Message('note_on', channel=2, note=31, velocity=0, time=29),
    Message('note_on', channel=2, note=43, velocity=0, time=0),
    Message('note_on', channel=2, note=38, velocity=90, time=121),
    Message('note_on', channel=2, note=38, velocity=0, time=29),
    Message('note_on', channel=2, note=43, velocity=90, time=1),
    Message('note_on', channel=2, note=43, velocity=0, time=59),
    Message('note_on', channel=2, note=38, velocity=90, time=31),
    Message('note_on', channel=2, note=38, velocity=0, time=29),
    Message('note_on', channel=2, note=43, velocity=90, time=1),
    Message('note_on', channel=2, note=43, velocity=0, time=59),
    Message('note_on', channel=2, note=37, velocity=90, time=31),
    Message('note_on', channel=2, note=37, velocity=0, time=29),
    Message('note_on', channel=2, note=38, velocity=90, time=1),
    Message('note_on', channel=2, note=38, velocity=0, time=29),
    Message('note_on', channel=2, note=33, velocity=90, time=1),
    Message('note_on', channel=2, note=33, velocity=0, time=29),
    Message('note_on', channel=2, note=38, velocity=90, time=1),
    Message('note_on', channel=2, note=26, velocity=90, time=0),
    Message('note_on', channel=2, note=38, velocity=0, time=59),
    Message('note_on', channel=2, note=26, velocity=0, time=0),
    Message('note_on', channel=2, note=33, velocity=90, time=91),
    Message('note_on', channel=2, note=33, velocity=0, time=29),
    Message('note_on', channel=2, note=38, velocity=90, time=1),
    Message('note_on', channel=2, note=38, velocity=0, time=59),
    Message('note_on', channel=2, note=33, velocity=90, time=31),
    Message('note_on', channel=2, note=33, velocity=0, time=29),
    Message('note_on', channel=2, note=38, velocity=90, time=1),
    Message('note_on', channel=2, note=38, velocity=0, time=59),
    Message('note_on', channel=2, note=42, velocity=90, time=31),
    Message('note_on', channel=2, note=42, velocity=0, time=29),
    Message('note_on', channel=2, note=43, velocity=90, time=1),
    Message('note_on', channel=2, note=43, velocity=0, time=29),
    Message('note_on', channel=2, note=35, velocity=90, time=1),
    Message('note_on', channel=2, note=35, velocity=0, time=29),
    Message('note_on', channel=2, note=28, velocity=90, time=1),
    Message('note_on', channel=2, note=40, velocity=90, time=0),
    Message('note_on', channel=2, note=28, velocity=0, time=59),
    Message('note_on', channel=2, note=40, velocity=0, time=0),
    Message('note_on', channel=2, note=35, velocity=90, time=91),
    Message('note_on', channel=2, note=35, velocity=0, time=29),
    Message('note_on', channel=2, note=40, velocity=90, time=1),
    Message('note_on', channel=2, note=40, velocity=0, time=59),
    Message('note_on', channel=2, note=35, velocity=90, time=31),
    Message('note_on', channel=2, note=35, velocity=0, time=29),
    Message('note_on', channel=2, note=40, velocity=90, time=1),
    Message('note_on', channel=2, note=40, velocity=0, time=59),
    Message('note_on', channel=2, note=43, velocity=90, time=31),
    Message('note_on', channel=2, note=43, velocity=0, time=29),
    Message('note_on', channel=2, note=42, velocity=90, time=1),
    Message('note_on', channel=2, note=42, velocity=0, time=239),
    Message('note_on', channel=2, note=35, velocity=90, time=241),
    Message('note_on', channel=2, note=35, velocity=0, time=239),
    Message('note_on', channel=2, note=30, velocity=90, time=241),
    Message('note_on', channel=2, note=30, velocity=0, time=239),
    Message('note_on', channel=2, note=33, velocity=90, time=241),
    Message('note_on', channel=2, note=33, velocity=0, time=239),
    Message('note_on', channel=2, note=28, velocity=90, time=241),
    Message('note_on', channel=2, note=28, velocity=0, time=239),
    Message('note_on', channel=2, note=31, velocity=90, time=241),
    Message('note_on', channel=2, note=31, velocity=0, time=239),
    Message('note_on', channel=2, note=38, velocity=90, time=241),
    Message('note_on', channel=2, note=38, velocity=0, time=239),
    Message('note_on', channel=2, note=28, velocity=90, time=241),
    Message('note_on', channel=2, note=28, velocity=0, time=239),
    Message('note_on', channel=2, note=30, velocity=90, time=241),
    Message('note_on', channel=2, note=30, velocity=0, time=239),
    Message('note_on', channel=2, note=35, velocity=90, time=241),
    Message('note_on', channel=2, note=35, velocity=0, time=29),
    Message('note_on', channel=2, note=35, velocity=90, time=1),
    Message('note_on', channel=2, note=35, velocity=0, time=29),
    Message('note_on', channel=2, note=30, velocity=90, time=1),
    Message('note_on', channel=2, note=30, velocity=0, time=59),
    Message('note_on', channel=2, note=35, velocity=90, time=1),
    Message('note_on', channel=2, note=35, velocity=0, time=59),
    Message('note_on', channel=2, note=30, velocity=90, time=31),
    Message('note_on', channel=2, note=30, velocity=0, time=29),
    Message('note_on', channel=2, note=35, velocity=90, time=1),
    Message('note_on', channel=2, note=35, velocity=0, time=29),
    Message('note_on', channel=2, note=35, velocity=90, time=1),
    Message('note_on', channel=2, note=35, velocity=0, time=29),
    Message('note_on', channel=2, note=30, velocity=90, time=1),
    Message('note_on', channel=2, note=30, velocity=0, time=59),
    Message('note_on', channel=2, note=30, velocity=90, time=121),
    Message('note_on', channel=2, note=30, velocity=0, time=29),
    Message('note_on', channel=2, note=30, velocity=90, time=1),
    Message('note_on', channel=2, note=30, velocity=0, time=29),
    Message('note_on', channel=2, note=34, velocity=90, time=1),
    Message('note_on', channel=2, note=34, velocity=0, time=59),
    Message('note_on', channel=2, note=37, velocity=90, time=1),
    Message('note_on', channel=2, note=37, velocity=0, time=59),
    Message('note_on', channel=2, note=34, velocity=90, time=31),
    Message('note_on', channel=2, note=34, velocity=0, time=29),
    Message('note_on', channel=2, note=42, velocity=90, time=1),
    Message('note_on', channel=2, note=42, velocity=90, time=30),
    Message('note_on', channel=2, note=42, velocity=0, time=29),
    Message('note_on', channel=2, note=42, velocity=0, time=0),
    Message('note_on', channel=2, note=34, velocity=90, time=1),
    Message('note_on', channel=2, note=34, velocity=0, time=59),
    Message('note_on', channel=2, note=33, velocity=90, time=121),
    Message('note_on', channel=2, note=33, velocity=0, time=29),
    Message('note_on', channel=2, note=33, velocity=90, time=1),
    Message('note_on', channel=2, note=33, velocity=0, time=29),
    Message('note_on', channel=2, note=40, velocity=90, time=1),
    Message('note_on', channel=2, note=40, velocity=0, time=59),
    Message('note_on', channel=2, note=45, velocity=90, time=1),
    Message('note_on', channel=2, note=45, velocity=0, time=59),
    Message('note_on', channel=2, note=40, velocity=90, time=31),
    Message('note_on', channel=2, note=40, velocity=0, time=29),
    Message('note_on', channel=2, note=45, velocity=90, time=1),
    Message('note_on', channel=2, note=45, velocity=90, time=30),
    Message('note_on', channel=2, note=45, velocity=0, time=29),
    Message('note_on', channel=2, note=45, velocity=0, time=0),
    Message('note_on', channel=2, note=40, velocity=90, time=1),
    Message('note_on', channel=2, note=40, velocity=0, time=59),
    Message('note_on', channel=2, note=28, velocity=90, time=121),
    Message('note_on', channel=2, note=28, velocity=0, time=29),
    Message('note_on', channel=2, note=28, velocity=90, time=1),
    Message('note_on', channel=2, note=28, velocity=0, time=29),
    Message('note_on', channel=2, note=35, velocity=90, time=1),
    Message('note_on', channel=2, note=35, velocity=0, time=59),
    Message('note_on', channel=2, note=40, velocity=90, time=1),
    Message('note_on', channel=2, note=40, velocity=0, time=59),
    Message('note_on', channel=2, note=35, velocity=90, time=31),
    Message('note_on', channel=2, note=35, velocity=0, time=29),
    Message('note_on', channel=2, note=40, velocity=90, time=1),
    Message('note_on', channel=2, note=40, velocity=90, time=30),
    Message('note_on', channel=2, note=40, velocity=0, time=29),
    Message('note_on', channel=2, note=35, velocity=90, time=1),
    Message('note_on', channel=2, note=35, velocity=0, time=59),
    Message('note_on', channel=2, note=40, velocity=0, time=120),
    Message('note_on', channel=2, note=31, velocity=90, time=1),
    Message('note_on', channel=2, note=31, velocity=0, time=29),
    Message('note_on', channel=2, note=31, velocity=90, time=1),
    Message('note_on', channel=2, note=31, velocity=0, time=29),
    Message('note_on', channel=2, note=38, velocity=90, time=1),
    Message('note_on', channel=2, note=38, velocity=0, time=59),
    Message('note_on', channel=2, note=43, velocity=90, time=1),
    Message('note_on', channel=2, note=43, velocity=0, time=59),
    Message('note_on', channel=2, note=38, velocity=90, time=31),
    Message('note_on', channel=2, note=38, velocity=0, time=29),
    Message('note_on', channel=2, note=43, velocity=90, time=1),
    Message('note_on', channel=2, note=43, velocity=0, time=29),
    Message('note_on', channel=2, note=43, velocity=90, time=1),
    Message('note_on', channel=2, note=43, velocity=0, time=29),
    Message('note_on', channel=2, note=38, velocity=90, time=1),
    Message('note_on', channel=2, note=38, velocity=0, time=29),
    Message('note_on', channel=2, note=30, velocity=90, time=151),
    Message('note_on', channel=2, note=30, velocity=0, time=29),
    Message('note_on', channel=2, note=33, velocity=90, time=1),
    Message('note_on', channel=2, note=33, velocity=0, time=29),
    Message('note_on', channel=2, note=38, velocity=90, time=1),
    Message('note_on', channel=2, note=38, velocity=0, time=59),
    Message('note_on', channel=2, note=42, velocity=90, time=1),
    Message('note_on', channel=2, note=42, velocity=0, time=59),
    Message('note_on', channel=2, note=38, velocity=90, time=31),
    Message('note_on', channel=2, note=38, velocity=0, time=29),
    Message('note_on', channel=2, note=42, velocity=90, time=1),
    Message('note_on', channel=2, note=42, velocity=0, time=29),
    Message('note_on', channel=2, note=42, velocity=90, time=1),
    Message('note_on', channel=2, note=42, velocity=0, time=29),
    Message('note_on', channel=2, note=38, velocity=90, time=1),
    Message('note_on', channel=2, note=38, velocity=0, time=59),
    Message('note_on', channel=2, note=28, velocity=90, time=121),
    Message('note_on', channel=2, note=28, velocity=0, time=29),
    Message('note_on', channel=2, note=31, velocity=90, time=1),
    Message('note_on', channel=2, note=31, velocity=0, time=29),
    Message('note_on', channel=2, note=35, velocity=90, time=1),
    Message('note_on', channel=2, note=35, velocity=0, time=59),
    Message('note_on', channel=2, note=40, velocity=90, time=1),
    Message('note_on', channel=2, note=40, velocity=0, time=59),
    Message('note_on', channel=2, note=35, velocity=90, time=31),
    Message('note_on', channel=2, note=35, velocity=0, time=29),
    Message('note_on', channel=2, note=40, velocity=90, time=1),
    Message('note_on', channel=2, note=40, velocity=0, time=29),
    Message('note_on', channel=2, note=40, velocity=90, time=1),
    Message('note_on', channel=2, note=40, velocity=0, time=29),
    Message('note_on', channel=2, note=35, velocity=90, time=1),
    Message('note_on', channel=2, note=35, velocity=0, time=59),
    Message('note_on', channel=2, note=30, velocity=90, time=121),
    Message('note_on', channel=2, note=30, velocity=0, time=29),
    Message('note_on', channel=2, note=33, velocity=90, time=1),
    Message('note_on', channel=2, note=33, velocity=0, time=29),
    Message('note_on', channel=2, note=37, velocity=90, time=1),
    Message('note_on', channel=2, note=37, velocity=0, time=29),
    Message('note_on', channel=2, note=42, velocity=90, time=1),
    Message('note_on', channel=2, note=42, velocity=0, time=119),
    Message('note_on', channel=2, note=37, velocity=90, time=1),
    Message('note_on', channel=2, note=37, velocity=0, time=29),
    Message('note_on', channel=2, note=42, velocity=90, time=1),
    Message('note_on', channel=2, note=42, velocity=0, time=59),
    Message('note_on', channel=2, note=35, velocity=90, time=181),
    Message('note_on', channel=2, note=35, velocity=0, time=29),
    Message('note_on', channel=2, note=35, velocity=90, time=1),
    Message('note_on', channel=2, note=35, velocity=0, time=29),
    Message('note_on', channel=2, note=30, velocity=90, time=1),
    Message('note_on', channel=2, note=30, velocity=0, time=59),
    Message('note_on', channel=2, note=35, velocity=90, time=1),
    Message('note_on', channel=2, note=35, velocity=0, time=59),
    Message('note_on', channel=2, note=30, velocity=90, time=31),
    Message('note_on', channel=2, note=30, velocity=0, time=29),
    Message('note_on', channel=2, note=35, velocity=90, time=1),
    Message('note_on', channel=2, note=35, velocity=0, time=29),
    Message('note_on', channel=2, note=35, velocity=90, time=1),
    Message('note_on', channel=2, note=35, velocity=0, time=29),
    Message('note_on', channel=2, note=30, velocity=90, time=1),
    Message('note_on', channel=2, note=30, velocity=0, time=59),
    Message('note_on', channel=2, note=30, velocity=90, time=121),
    Message('note_on', channel=2, note=30, velocity=0, time=29),
    Message('note_on', channel=2, note=30, velocity=90, time=1),
    Message('note_on', channel=2, note=30, velocity=0, time=29),
    Message('note_on', channel=2, note=34, velocity=90, time=1),
    Message('note_on', channel=2, note=34, velocity=0, time=59),
    Message('note_on', channel=2, note=37, velocity=90, time=1),
    Message('note_on', channel=2, note=37, velocity=0, time=59),
    Message('note_on', channel=2, note=34, velocity=90, time=31),
    Message('note_on', channel=2, note=34, velocity=0, time=29),
    Message('note_on', channel=2, note=42, velocity=90, time=1),
    Message('note_on', channel=2, note=42, velocity=90, time=30),
    Message('note_on', channel=2, note=42, velocity=0, time=29),
    Message('note_on', channel=2, note=42, velocity=0, time=0),
    Message('note_on', channel=2, note=34, velocity=90, time=1),
    Message('note_on', channel=2, note=34, velocity=0, time=59),
    Message('note_on', channel=2, note=33, velocity=90, time=121),
    Message('note_on', channel=2, note=33, velocity=0, time=29),
    Message('note_on', channel=2, note=33, velocity=90, time=1),
    Message('note_on', channel=2, note=33, velocity=0, time=29),
    Message('note_on', channel=2, note=40, velocity=90, time=1),
    Message('note_on', channel=2, note=40, velocity=0, time=59),
    Message('note_on', channel=2, note=45, velocity=90, time=1),
    Message('note_on', channel=2, note=45, velocity=0, time=59),
    Message('note_on', channel=2, note=40, velocity=90, time=31),
    Message('note_on', channel=2, note=40, velocity=0, time=29),
    Message('note_on', channel=2, note=45, velocity=90, time=1),
    Message('note_on', channel=2, note=45, velocity=90, time=30),
    Message('note_on', channel=2, note=45, velocity=0, time=29),
    Message('note_on', channel=2, note=45, velocity=0, time=0),
    Message('note_on', channel=2, note=40, velocity=90, time=1),
    Message('note_on', channel=2, note=40, velocity=0, time=59),
    Message('note_on', channel=2, note=28, velocity=90, time=121),
    Message('note_on', channel=2, note=28, velocity=0, time=29),
    Message('note_on', channel=2, note=28, velocity=90, time=1),
    Message('note_on', channel=2, note=28, velocity=0, time=29),
    Message('note_on', channel=2, note=35, velocity=90, time=1),
    Message('note_on', channel=2, note=35, velocity=0, time=59),
    Message('note_on', channel=2, note=40, velocity=90, time=1),
    Message('note_on', channel=2, note=40, velocity=0, time=59),
    Message('note_on', channel=2, note=35, velocity=90, time=31),
    Message('note_on', channel=2, note=35, velocity=0, time=29),
    Message('note_on', channel=2, note=40, velocity=90, time=1),
    Message('note_on', channel=2, note=40, velocity=90, time=30),
    Message('note_on', channel=2, note=40, velocity=0, time=29),
    Message('note_on', channel=2, note=35, velocity=90, time=1),
    Message('note_on', channel=2, note=35, velocity=0, time=59),
    Message('note_on', channel=2, note=40, velocity=0, time=120),
    Message('note_on', channel=2, note=31, velocity=90, time=1),
    Message('note_on', channel=2, note=31, velocity=0, time=29),
    Message('note_on', channel=2, note=31, velocity=90, time=1),
    Message('note_on', channel=2, note=31, velocity=0, time=29),
    Message('note_on', channel=2, note=38, velocity=90, time=1),
    Message('note_on', channel=2, note=38, velocity=0, time=59),
    Message('note_on', channel=2, note=43, velocity=90, time=1),
    Message('note_on', channel=2, note=43, velocity=0, time=59),
    Message('note_on', channel=2, note=38, velocity=90, time=31),
    Message('note_on', channel=2, note=38, velocity=0, time=29),
    Message('note_on', channel=2, note=43, velocity=90, time=1),
    Message('note_on', channel=2, note=43, velocity=0, time=29),
    Message('note_on', channel=2, note=43, velocity=90, time=1),
    Message('note_on', channel=2, note=43, velocity=0, time=29),
    Message('note_on', channel=2, note=38, velocity=90, time=1),
    Message('note_on', channel=2, note=38, velocity=0, time=59),
    Message('note_on', channel=2, note=30, velocity=90, time=121),
    Message('note_on', channel=2, note=30, velocity=0, time=29),
    Message('note_on', channel=2, note=33, velocity=90, time=1),
    Message('note_on', channel=2, note=33, velocity=0, time=29),
    Message('note_on', channel=2, note=38, velocity=90, time=1),
    Message('note_on', channel=2, note=38, velocity=0, time=59),
    Message('note_on', channel=2, note=42, velocity=90, time=1),
    Message('note_on', channel=2, note=42, velocity=0, time=59),
    Message('note_on', channel=2, note=38, velocity=90, time=31),
    Message('note_on', channel=2, note=38, velocity=0, time=29),
    Message('note_on', channel=2, note=42, velocity=90, time=1),
    Message('note_on', channel=2, note=42, velocity=0, time=29),
    Message('note_on', channel=2, note=42, velocity=90, time=1),
    Message('note_on', channel=2, note=42, velocity=0, time=29),
    Message('note_on', channel=2, note=38, velocity=90, time=1),
    Message('note_on', channel=2, note=38, velocity=0, time=59),
    Message('note_on', channel=2, note=28, velocity=90, time=121),
    Message('note_on', channel=2, note=28, velocity=0, time=29),
    Message('note_on', channel=2, note=31, velocity=90, time=1),
    Message('note_on', channel=2, note=31, velocity=0, time=29),
    Message('note_on', channel=2, note=35, velocity=90, time=1),
    Message('note_on', channel=2, note=35, velocity=0, time=59),
    Message('note_on', channel=2, note=40, velocity=90, time=1),
    Message('note_on', channel=2, note=40, velocity=0, time=59),
    Message('note_on', channel=2, note=35, velocity=90, time=31),
    Message('note_on', channel=2, note=35, velocity=0, time=29),
    Message('note_on', channel=2, note=40, velocity=90, time=1),
    Message('note_on', channel=2, note=40, velocity=0, time=29),
    Message('note_on', channel=2, note=40, velocity=90, time=1),
    Message('note_on', channel=2, note=40, velocity=0, time=29),
    Message('note_on', channel=2, note=35, velocity=90, time=1),
    Message('note_on', channel=2, note=35, velocity=0, time=59),
    Message('note_on', channel=2, note=30, velocity=90, time=121),
    Message('note_on', channel=2, note=30, velocity=0, time=29),
    Message('note_on', channel=2, note=33, velocity=90, time=1),
    Message('note_on', channel=2, note=33, velocity=0, time=29),
    Message('note_on', channel=2, note=37, velocity=90, time=1),
    Message('note_on', channel=2, note=37, velocity=0, time=29),
    Message('note_on', channel=2, note=42, velocity=90, time=1),
    Message('note_on', channel=2, note=42, velocity=0, time=119),
    Message('note_on', channel=2, note=37, velocity=90, time=1),
    Message('note_on', channel=2, note=37, velocity=0, time=29),
    Message('note_on', channel=2, note=42, velocity=90, time=1),
    Message('note_on', channel=2, note=42, velocity=0, time=59),
    Message('note_on', channel=2, note=37, velocity=90, time=31),
    Message('note_on', channel=2, note=37, velocity=0, time=29),
    Message('note_on', channel=2, note=42, velocity=90, time=1),
    Message('note_on', channel=2, note=42, velocity=0, time=59),
    Message('note_on', channel=2, note=35, velocity=90, time=61),
    Message('note_on', channel=2, note=35, velocity=0, time=29),
    Message('note_on', channel=2, note=35, velocity=90, time=1),
    Message('note_on', channel=2, note=35, velocity=0, time=29),
    Message('note_on', channel=2, note=30, velocity=90, time=1),
    Message('note_on', channel=2, note=30, velocity=0, time=59),
    Message('note_on', channel=2, note=35, velocity=90, time=1),
    Message('note_on', channel=2, note=35, velocity=0, time=59),
    Message('note_on', channel=2, note=30, velocity=90, time=31),
    Message('note_on', channel=2, note=30, velocity=0, time=29),
    Message('note_on', channel=2, note=35, velocity=90, time=1),
    Message('note_on', channel=2, note=35, velocity=0, time=29),
    Message('note_on', channel=2, note=35, velocity=90, time=1),
    Message('note_on', channel=2, note=35, velocity=0, time=29),
    Message('note_on', channel=2, note=30, velocity=90, time=1),
    Message('note_on', channel=2, note=30, velocity=0, time=59),
    Message('note_on', channel=2, note=30, velocity=90, time=121),
    Message('note_on', channel=2, note=30, velocity=0, time=29),
    Message('note_on', channel=2, note=30, velocity=90, time=1),
    Message('note_on', channel=2, note=30, velocity=0, time=29),
    Message('note_on', channel=2, note=34, velocity=90, time=1),
    Message('note_on', channel=2, note=34, velocity=0, time=59),
    Message('note_on', channel=2, note=37, velocity=90, time=1),
    Message('note_on', channel=2, note=37, velocity=0, time=59),
    Message('note_on', channel=2, note=34, velocity=90, time=31),
    Message('note_on', channel=2, note=34, velocity=0, time=29),
    Message('note_on', channel=2, note=42, velocity=90, time=1),
    Message('note_on', channel=2, note=42, velocity=90, time=30),
    Message('note_on', channel=2, note=42, velocity=0, time=29),
    Message('note_on', channel=2, note=42, velocity=0, time=0),
    Message('note_on', channel=2, note=34, velocity=90, time=1),
    Message('note_on', channel=2, note=34, velocity=0, time=59),
    Message('note_on', channel=2, note=33, velocity=90, time=121),
    Message('note_on', channel=2, note=33, velocity=0, time=29),
    Message('note_on', channel=2, note=33, velocity=90, time=1),
    Message('note_on', channel=2, note=33, velocity=0, time=29),
    Message('note_on', channel=2, note=40, velocity=90, time=1),
    Message('note_on', channel=2, note=40, velocity=0, time=59),
    Message('note_on', channel=2, note=45, velocity=90, time=1),
    Message('note_on', channel=2, note=45, velocity=0, time=59),
    Message('note_on', channel=2, note=40, velocity=90, time=31),
    Message('note_on', channel=2, note=40, velocity=0, time=29),
    Message('note_on', channel=2, note=45, velocity=90, time=1),
    Message('note_on', channel=2, note=45, velocity=90, time=30),
    Message('note_on', channel=2, note=45, velocity=0, time=29),
    Message('note_on', channel=2, note=45, velocity=0, time=0),
    Message('note_on', channel=2, note=40, velocity=90, time=1),
    Message('note_on', channel=2, note=40, velocity=0, time=59),
    Message('note_on', channel=2, note=28, velocity=90, time=121),
    Message('note_on', channel=2, note=28, velocity=0, time=29),
    Message('note_on', channel=2, note=28, velocity=90, time=1),
    Message('note_on', channel=2, note=28, velocity=0, time=29),
    Message('note_on', channel=2, note=35, velocity=90, time=1),
    Message('note_on', channel=2, note=35, velocity=0, time=59),
    Message('note_on', channel=2, note=40, velocity=90, time=1),
    Message('note_on', channel=2, note=40, velocity=0, time=59),
    Message('note_on', channel=2, note=35, velocity=90, time=31),
    Message('note_on', channel=2, note=35, velocity=0, time=29),
    Message('note_on', channel=2, note=40, velocity=90, time=1),
    Message('note_on', channel=2, note=40, velocity=90, time=30),
    Message('note_on', channel=2, note=40, velocity=0, time=29),
    Message('note_on', channel=2, note=35, velocity=90, time=1),
    Message('note_on', channel=2, note=35, velocity=0, time=59),
    Message('note_on', channel=2, note=40, velocity=0, time=120),
    Message('note_on', channel=2, note=31, velocity=90, time=1),
    Message('note_on', channel=2, note=31, velocity=0, time=29),
    Message('note_on', channel=2, note=31, velocity=90, time=1),
    Message('note_on', channel=2, note=31, velocity=0, time=29),
    Message('note_on', channel=2, note=38, velocity=90, time=1),
    Message('note_on', channel=2, note=38, velocity=0, time=59),
    Message('note_on', channel=2, note=43, velocity=90, time=1),
    Message('note_on', channel=2, note=43, velocity=0, time=59),
    Message('note_on', channel=2, note=38, velocity=90, time=31),
    Message('note_on', channel=2, note=38, velocity=0, time=29),
    Message('note_on', channel=2, note=43, velocity=90, time=1),
    Message('note_on', channel=2, note=43, velocity=0, time=29),
    Message('note_on', channel=2, note=43, velocity=90, time=1),
    Message('note_on', channel=2, note=43, velocity=0, time=29),
    Message('note_on', channel=2, note=38, velocity=90, time=1),
    Message('note_on', channel=2, note=38, velocity=0, time=29),
    Message('note_on', channel=2, note=30, velocity=90, time=151),
    Message('note_on', channel=2, note=30, velocity=0, time=29),
    Message('note_on', channel=2, note=33, velocity=90, time=1),
    Message('note_on', channel=2, note=33, velocity=0, time=29),
    Message('note_on', channel=2, note=38, velocity=90, time=1),
    Message('note_on', channel=2, note=38, velocity=0, time=59),
    Message('note_on', channel=2, note=42, velocity=90, time=1),
    Message('note_on', channel=2, note=42, velocity=0, time=59),
    Message('note_on', channel=2, note=38, velocity=90, time=31),
    Message('note_on', channel=2, note=38, velocity=0, time=29),
    Message('note_on', channel=2, note=42, velocity=90, time=1),
    Message('note_on', channel=2, note=42, velocity=0, time=29),
    Message('note_on', channel=2, note=42, velocity=90, time=1),
    Message('note_on', channel=2, note=42, velocity=0, time=29),
    Message('note_on', channel=2, note=38, velocity=90, time=1),
    Message('note_on', channel=2, note=38, velocity=0, time=59),
    Message('note_on', channel=2, note=28, velocity=90, time=121),
    Message('note_on', channel=2, note=28, velocity=0, time=29),
    Message('note_on', channel=2, note=31, velocity=90, time=1),
    Message('note_on', channel=2, note=31, velocity=0, time=29),
    Message('note_on', channel=2, note=35, velocity=90, time=1),
    Message('note_on', channel=2, note=35, velocity=0, time=59),
    Message('note_on', channel=2, note=40, velocity=90, time=1),
    Message('note_on', channel=2, note=40, velocity=0, time=59),
    Message('note_on', channel=2, note=35, velocity=90, time=31),
    Message('note_on', channel=2, note=35, velocity=0, time=29),
    Message('note_on', channel=2, note=40, velocity=90, time=1),
    Message('note_on', channel=2, note=40, velocity=0, time=29),
    Message('note_on', channel=2, note=40, velocity=90, time=1),
    Message('note_on', channel=2, note=40, velocity=0, time=29),
    Message('note_on', channel=2, note=35, velocity=90, time=1),
    Message('note_on', channel=2, note=35, velocity=0, time=59),
    Message('note_on', channel=2, note=30, velocity=90, time=121),
    Message('note_on', channel=2, note=30, velocity=0, time=29),
    Message('note_on', channel=2, note=33, velocity=90, time=1),
    Message('note_on', channel=2, note=33, velocity=0, time=29),
    Message('note_on', channel=2, note=37, velocity=90, time=1),
    Message('note_on', channel=2, note=37, velocity=0, time=29),
    Message('note_on', channel=2, note=42, velocity=90, time=1),
    Message('note_on', channel=2, note=42, velocity=0, time=119),
    Message('note_on', channel=2, note=37, velocity=90, time=1),
    Message('note_on', channel=2, note=37, velocity=0, time=29),
    Message('note_on', channel=2, note=42, velocity=90, time=1),
    Message('note_on', channel=2, note=42, velocity=0, time=59),
    Message('note_on', channel=2, note=37, velocity=90, time=31),
    Message('note_on', channel=2, note=37, velocity=0, time=29),
    Message('note_on', channel=2, note=42, velocity=90, time=1),
    Message('note_on', channel=2, note=42, velocity=0, time=59),
    Message('note_on', channel=2, note=35, velocity=90, time=61),
    Message('note_on', channel=2, note=35, velocity=0, time=29),
    Message('note_on', channel=2, note=35, velocity=90, time=1),
    Message('note_on', channel=2, note=35, velocity=0, time=29),
    Message('note_on', channel=2, note=30, velocity=90, time=1),
    Message('note_on', channel=2, note=30, velocity=0, time=59),
    Message('note_on', channel=2, note=35, velocity=90, time=1),
    Message('note_on', channel=2, note=35, velocity=0, time=59),
    Message('note_on', channel=2, note=30, velocity=90, time=31),
    Message('note_on', channel=2, note=30, velocity=0, time=29),
    Message('note_on', channel=2, note=35, velocity=90, time=1),
    Message('note_on', channel=2, note=35, velocity=0, time=29),
    Message('note_on', channel=2, note=35, velocity=90, time=1),
    Message('note_on', channel=2, note=35, velocity=0, time=29),
    Message('note_on', channel=2, note=30, velocity=90, time=1),
    Message('note_on', channel=2, note=30, velocity=0, time=59),
    Message('note_on', channel=2, note=30, velocity=90, time=121),
    Message('note_on', channel=2, note=30, velocity=0, time=29),
    Message('note_on', channel=2, note=30, velocity=90, time=1),
    Message('note_on', channel=2, note=30, velocity=0, time=29),
    Message('note_on', channel=2, note=34, velocity=90, time=1),
    Message('note_on', channel=2, note=34, velocity=0, time=59),
    Message('note_on', channel=2, note=37, velocity=90, time=1),
    Message('note_on', channel=2, note=37, velocity=0, time=59),
    Message('note_on', channel=2, note=34, velocity=90, time=31),
    Message('note_on', channel=2, note=34, velocity=0, time=29),
    Message('note_on', channel=2, note=42, velocity=90, time=1),
    Message('note_on', channel=2, note=42, velocity=90, time=30),
    Message('note_on', channel=2, note=42, velocity=0, time=29),
    Message('note_on', channel=2, note=42, velocity=0, time=0),
    Message('note_on', channel=2, note=34, velocity=90, time=1),
    Message('note_on', channel=2, note=34, velocity=0, time=59),
    Message('note_on', channel=2, note=33, velocity=90, time=121),
    Message('note_on', channel=2, note=33, velocity=0, time=29),
    Message('note_on', channel=2, note=33, velocity=90, time=1),
    Message('note_on', channel=2, note=33, velocity=0, time=29),
    Message('note_on', channel=2, note=40, velocity=90, time=1),
    Message('note_on', channel=2, note=40, velocity=0, time=59),
    Message('note_on', channel=2, note=45, velocity=90, time=1),
    Message('note_on', channel=2, note=45, velocity=0, time=59),
    Message('note_on', channel=2, note=40, velocity=90, time=31),
    Message('note_on', channel=2, note=40, velocity=0, time=29),
    Message('note_on', channel=2, note=45, velocity=90, time=1),
    Message('note_on', channel=2, note=45, velocity=90, time=30),
    Message('note_on', channel=2, note=45, velocity=0, time=29),
    Message('note_on', channel=2, note=45, velocity=0, time=0),
    Message('note_on', channel=2, note=40, velocity=90, time=1),
    Message('note_on', channel=2, note=40, velocity=0, time=59),
    Message('note_on', channel=2, note=28, velocity=90, time=121),
    Message('note_on', channel=2, note=28, velocity=0, time=29),
    Message('note_on', channel=2, note=28, velocity=90, time=1),
    Message('note_on', channel=2, note=28, velocity=0, time=29),
    Message('note_on', channel=2, note=35, velocity=90, time=1),
    Message('note_on', channel=2, note=35, velocity=0, time=59),
    Message('note_on', channel=2, note=40, velocity=90, time=1),
    Message('note_on', channel=2, note=40, velocity=0, time=59),
    Message('note_on', channel=2, note=35, velocity=90, time=31),
    Message('note_on', channel=2, note=35, velocity=0, time=29),
    Message('note_on', channel=2, note=40, velocity=90, time=1),
    Message('note_on', channel=2, note=40, velocity=90, time=30),
    Message('note_on', channel=2, note=40, velocity=0, time=29),
    Message('note_on', channel=2, note=35, velocity=90, time=1),
    Message('note_on', channel=2, note=35, velocity=0, time=59),
    Message('note_on', channel=2, note=40, velocity=0, time=120),
    Message('note_on', channel=2, note=31, velocity=90, time=1),
    Message('note_on', channel=2, note=31, velocity=0, time=29),
    Message('note_on', channel=2, note=31, velocity=90, time=1),
    Message('note_on', channel=2, note=31, velocity=0, time=29),
    Message('note_on', channel=2, note=38, velocity=90, time=1),
    Message('note_on', channel=2, note=38, velocity=0, time=59),
    Message('note_on', channel=2, note=43, velocity=90, time=1),
    Message('note_on', channel=2, note=43, velocity=0, time=59),
    Message('note_on', channel=2, note=38, velocity=90, time=31),
    Message('note_on', channel=2, note=38, velocity=0, time=29),
    Message('note_on', channel=2, note=43, velocity=90, time=1),
    Message('note_on', channel=2, note=43, velocity=0, time=29),
    Message('note_on', channel=2, note=43, velocity=90, time=1),
    Message('note_on', channel=2, note=43, velocity=0, time=29),
    Message('note_on', channel=2, note=38, velocity=90, time=1),
    Message('note_on', channel=2, note=38, velocity=0, time=59),
    Message('note_on', channel=2, note=30, velocity=90, time=121),
    Message('note_on', channel=2, note=30, velocity=0, time=29),
    Message('note_on', channel=2, note=33, velocity=90, time=1),
    Message('note_on', channel=2, note=33, velocity=0, time=29),
    Message('note_on', channel=2, note=38, velocity=90, time=1),
    Message('note_on', channel=2, note=38, velocity=0, time=59),
    Message('note_on', channel=2, note=42, velocity=90, time=1),
    Message('note_on', channel=2, note=42, velocity=0, time=59),
    Message('note_on', channel=2, note=38, velocity=90, time=31),
    Message('note_on', channel=2, note=38, velocity=0, time=29),
    Message('note_on', channel=2, note=42, velocity=90, time=1),
    Message('note_on', channel=2, note=42, velocity=0, time=29),
    Message('note_on', channel=2, note=42, velocity=90, time=1),
    Message('note_on', channel=2, note=42, velocity=0, time=29),
    Message('note_on', channel=2, note=38, velocity=90, time=1),
    Message('note_on', channel=2, note=38, velocity=0, time=59),
    Message('note_on', channel=2, note=28, velocity=90, time=121),
    Message('note_on', channel=2, note=28, velocity=0, time=29),
    Message('note_on', channel=2, note=31, velocity=90, time=1),
    Message('note_on', channel=2, note=31, velocity=0, time=29),
    Message('note_on', channel=2, note=35, velocity=90, time=1),
    Message('note_on', channel=2, note=35, velocity=0, time=59),
    Message('note_on', channel=2, note=40, velocity=90, time=1),
    Message('note_on', channel=2, note=40, velocity=0, time=59),
    Message('note_on', channel=2, note=35, velocity=90, time=31),
    Message('note_on', channel=2, note=35, velocity=0, time=29),
    Message('note_on', channel=2, note=40, velocity=90, time=1),
    Message('note_on', channel=2, note=40, velocity=0, time=29),
    Message('note_on', channel=2, note=40, velocity=90, time=1),
    Message('note_on', channel=2, note=40, velocity=0, time=29),
    Message('note_on', channel=2, note=35, velocity=90, time=1),
    Message('note_on', channel=2, note=35, velocity=0, time=59),
    Message('note_on', channel=2, note=30, velocity=90, time=121),
    Message('note_on', channel=2, note=30, velocity=0, time=29),
    Message('note_on', channel=2, note=33, velocity=90, time=1),
    Message('note_on', channel=2, note=33, velocity=0, time=29),
    Message('note_on', channel=2, note=37, velocity=90, time=1),
    Message('note_on', channel=2, note=37, velocity=0, time=29),
    Message('note_on', channel=2, note=42, velocity=90, time=1),
    Message('note_on', channel=2, note=42, velocity=0, time=119),
    Message('note_on', channel=2, note=37, velocity=90, time=1),
    Message('note_on', channel=2, note=37, velocity=0, time=29),
    Message('note_on', channel=2, note=42, velocity=90, time=1),
    Message('note_on', channel=2, note=42, velocity=0, time=59),
    Message('note_on', channel=2, note=37, velocity=90, time=31),
    Message('note_on', channel=2, note=37, velocity=0, time=29),
    Message('note_on', channel=2, note=42, velocity=90, time=1),
    Message('note_on', channel=2, note=42, velocity=0, time=59),
    Message('note_on', channel=2, note=35, velocity=90, time=61),
    Message('note_on', channel=2, note=35, velocity=0, time=29),
    Message('note_on', channel=2, note=35, velocity=90, time=1),
    Message('note_on', channel=2, note=35, velocity=0, time=29),
    Message('note_on', channel=2, note=30, velocity=90, time=1),
    Message('note_on', channel=2, note=30, velocity=0, time=59),
    Message('note_on', channel=2, note=35, velocity=90, time=1),
    Message('note_on', channel=2, note=35, velocity=0, time=59),
    Message('note_on', channel=2, note=30, velocity=90, time=31),
    Message('note_on', channel=2, note=30, velocity=0, time=29),
    Message('note_on', channel=2, note=35, velocity=90, time=1),
    Message('note_on', channel=2, note=35, velocity=0, time=29),
    Message('note_on', channel=2, note=35, velocity=90, time=1),
    Message('note_on', channel=2, note=35, velocity=0, time=29),
    Message('note_on', channel=2, note=30, velocity=90, time=1),
    Message('note_on', channel=2, note=30, velocity=0, time=59),
    Message('note_on', channel=2, note=30, velocity=90, time=121),
    Message('note_on', channel=2, note=30, velocity=0, time=29),
    Message('note_on', channel=2, note=30, velocity=90, time=1),
    Message('note_on', channel=2, note=30, velocity=0, time=29),
    Message('note_on', channel=2, note=34, velocity=90, time=1),
    Message('note_on', channel=2, note=34, velocity=0, time=59),
    Message('note_on', channel=2, note=37, velocity=90, time=1),
    Message('note_on', channel=2, note=37, velocity=0, time=59),
    Message('note_on', channel=2, note=34, velocity=90, time=31),
    Message('note_on', channel=2, note=34, velocity=0, time=29),
    Message('note_on', channel=2, note=42, velocity=90, time=1),
    Message('note_on', channel=2, note=42, velocity=90, time=30),
    Message('note_on', channel=2, note=42, velocity=0, time=29),
    Message('note_on', channel=2, note=42, velocity=0, time=0),
    Message('note_on', channel=2, note=34, velocity=90, time=1),
    Message('note_on', channel=2, note=34, velocity=0, time=59),
    Message('note_on', channel=2, note=33, velocity=90, time=121),
    Message('note_on', channel=2, note=33, velocity=0, time=29),
    Message('note_on', channel=2, note=33, velocity=90, time=1),
    Message('note_on', channel=2, note=33, velocity=0, time=29),
    Message('note_on', channel=2, note=40, velocity=90, time=1),
    Message('note_on', channel=2, note=40, velocity=0, time=59),
    Message('note_on', channel=2, note=45, velocity=90, time=1),
    Message('note_on', channel=2, note=45, velocity=0, time=59),
    Message('note_on', channel=2, note=40, velocity=90, time=31),
    Message('note_on', channel=2, note=40, velocity=0, time=29),
    Message('note_on', channel=2, note=45, velocity=90, time=1),
    Message('note_on', channel=2, note=45, velocity=90, time=30),
    Message('note_on', channel=2, note=45, velocity=0, time=29),
    Message('note_on', channel=2, note=45, velocity=0, time=0),
    Message('note_on', channel=2, note=40, velocity=90, time=1),
    Message('note_on', channel=2, note=40, velocity=0, time=59),
    Message('note_on', channel=2, note=28, velocity=90, time=121),
    Message('note_on', channel=2, note=28, velocity=0, time=29),
    Message('note_on', channel=2, note=28, velocity=90, time=1),
    Message('note_on', channel=2, note=28, velocity=0, time=29),
    Message('note_on', channel=2, note=35, velocity=90, time=1),
    Message('note_on', channel=2, note=35, velocity=0, time=59),
    Message('note_on', channel=2, note=40, velocity=90, time=1),
    Message('note_on', channel=2, note=40, velocity=0, time=59),
    Message('note_on', channel=2, note=35, velocity=90, time=31),
    Message('note_on', channel=2, note=35, velocity=0, time=29),
    Message('note_on', channel=2, note=40, velocity=90, time=1),
    Message('note_on', channel=2, note=40, velocity=90, time=30),
    Message('note_on', channel=2, note=40, velocity=0, time=29),
    Message('note_on', channel=2, note=35, velocity=90, time=1),
    Message('note_on', channel=2, note=35, velocity=0, time=59),
    Message('note_on', channel=2, note=40, velocity=0, time=120),
    Message('note_on', channel=2, note=31, velocity=90, time=1),
    Message('note_on', channel=2, note=31, velocity=0, time=29),
    Message('note_on', channel=2, note=31, velocity=90, time=1),
    Message('note_on', channel=2, note=31, velocity=0, time=29),
    Message('note_on', channel=2, note=38, velocity=90, time=1),
    Message('note_on', channel=2, note=38, velocity=0, time=59),
    Message('note_on', channel=2, note=43, velocity=90, time=1),
    Message('note_on', channel=2, note=43, velocity=0, time=59),
    Message('note_on', channel=2, note=38, velocity=90, time=31),
    Message('note_on', channel=2, note=38, velocity=0, time=29),
    Message('note_on', channel=2, note=43, velocity=90, time=1),
    Message('note_on', channel=2, note=43, velocity=0, time=29),
    Message('note_on', channel=2, note=43, velocity=90, time=1),
    Message('note_on', channel=2, note=43, velocity=0, time=29),
    Message('note_on', channel=2, note=38, velocity=90, time=1),
    Message('note_on', channel=2, note=38, velocity=0, time=29),
    Message('note_on', channel=2, note=30, velocity=90, time=151),
    Message('note_on', channel=2, note=30, velocity=0, time=29),
    Message('note_on', channel=2, note=33, velocity=90, time=1),
    Message('note_on', channel=2, note=33, velocity=0, time=29),
    Message('note_on', channel=2, note=38, velocity=90, time=1),
    Message('note_on', channel=2, note=38, velocity=0, time=59),
    Message('note_on', channel=2, note=42, velocity=90, time=1),
    Message('note_on', channel=2, note=42, velocity=0, time=59),
    Message('note_on', channel=2, note=38, velocity=90, time=31),
    Message('note_on', channel=2, note=38, velocity=0, time=29),
    Message('note_on', channel=2, note=42, velocity=90, time=1),
    Message('note_on', channel=2, note=42, velocity=0, time=29),
    Message('note_on', channel=2, note=42, velocity=90, time=1),
    Message('note_on', channel=2, note=42, velocity=0, time=29),
    Message('note_on', channel=2, note=38, velocity=90, time=1),
    Message('note_on', channel=2, note=38, velocity=0, time=59),
    Message('note_on', channel=2, note=28, velocity=90, time=121),
    Message('note_on', channel=2, note=28, velocity=0, time=29),
    Message('note_on', channel=2, note=31, velocity=90, time=1),
    Message('note_on', channel=2, note=31, velocity=0, time=29),
    Message('note_on', channel=2, note=35, velocity=90, time=1),
    Message('note_on', channel=2, note=35, velocity=0, time=59),
    Message('note_on', channel=2, note=40, velocity=90, time=1),
    Message('note_on', channel=2, note=40, velocity=0, time=59),
    Message('note_on', channel=2, note=35, velocity=90, time=31),
    Message('note_on', channel=2, note=35, velocity=0, time=29),
    Message('note_on', channel=2, note=40, velocity=90, time=1),
    Message('note_on', channel=2, note=40, velocity=0, time=29),
    Message('note_on', channel=2, note=40, velocity=90, time=1),
    Message('note_on', channel=2, note=40, velocity=0, time=29),
    Message('note_on', channel=2, note=35, velocity=90, time=1),
    Message('note_on', channel=2, note=35, velocity=0, time=59),
    Message('note_on', channel=2, note=30, velocity=90, time=121),
    Message('note_on', channel=2, note=30, velocity=0, time=29),
    Message('note_on', channel=2, note=33, velocity=90, time=1),
    Message('note_on', channel=2, note=33, velocity=0, time=29),
    Message('note_on', channel=2, note=37, velocity=90, time=1),
    Message('note_on', channel=2, note=37, velocity=0, time=29),
    Message('note_on', channel=2, note=42, velocity=90, time=1),
    Message('note_on', channel=2, note=42, velocity=0, time=119),
    Message('note_on', channel=2, note=37, velocity=90, time=1),
    Message('note_on', channel=2, note=37, velocity=0, time=29),
    Message('note_on', channel=2, note=42, velocity=90, time=1),
    Message('note_on', channel=2, note=42, velocity=0, time=59),
    Message('note_on', channel=2, note=37, velocity=90, time=31),
    Message('note_on', channel=2, note=37, velocity=0, time=29),
    Message('note_on', channel=2, note=42, velocity=90, time=1),
    Message('note_on', channel=2, note=42, velocity=0, time=59),
    Message('note_on', channel=2, note=35, velocity=90, time=61),
    Message('note_on', channel=2, note=35, velocity=0, time=29),
    Message('note_on', channel=2, note=35, velocity=90, time=1),
    Message('note_on', channel=2, note=35, velocity=0, time=29),
    Message('note_on', channel=2, note=30, velocity=90, time=1),
    Message('note_on', channel=2, note=30, velocity=0, time=59),
    Message('note_on', channel=2, note=35, velocity=90, time=1),
    Message('control_change', channel=2, control=7, value=90, time=0),
    Message('note_on', channel=2, note=35, velocity=0, time=59),
    Message('note_on', channel=2, note=30, velocity=90, time=31),
    Message('note_on', channel=2, note=30, velocity=0, time=29),
    Message('note_on', channel=2, note=35, velocity=90, time=1),
    Message('control_change', channel=2, control=7, value=87, time=0),
    Message('note_on', channel=2, note=35, velocity=0, time=29),
    Message('note_on', channel=2, note=35, velocity=90, time=1),
    Message('note_on', channel=2, note=35, velocity=0, time=29),
    Message('note_on', channel=2, note=30, velocity=90, time=1),
    Message('note_on', channel=2, note=30, velocity=0, time=59),
    Message('control_change', channel=2, control=7, value=84, time=1),
    Message('note_on', channel=2, note=30, velocity=90, time=120),
    Message('control_change', channel=2, control=7, value=81, time=0),
    Message('note_on', channel=2, note=30, velocity=0, time=29),
    Message('note_on', channel=2, note=30, velocity=90, time=1),
    Message('note_on', channel=2, note=30, velocity=0, time=29),
    Message('note_on', channel=2, note=34, velocity=90, time=1),
    Message('note_on', channel=2, note=34, velocity=0, time=59),
    Message('note_on', channel=2, note=37, velocity=90, time=1),
    Message('control_change', channel=2, control=7, value=78, time=0),
    Message('note_on', channel=2, note=37, velocity=0, time=59),
    Message('note_on', channel=2, note=34, velocity=90, time=31),
    Message('note_on', channel=2, note=34, velocity=0, time=29),
    Message('control_change', channel=2, control=7, value=75, time=1),
    Message('note_on', channel=2, note=42, velocity=90, time=0),
    Message('note_on', channel=2, note=42, velocity=90, time=30),
    Message('note_on', channel=2, note=42, velocity=0, time=29),
    Message('note_on', channel=2, note=42, velocity=0, time=0),
    Message('note_on', channel=2, note=34, velocity=90, time=1),
    Message('note_on', channel=2, note=34, velocity=0, time=59),
    Message('control_change', channel=2, control=7, value=72, time=1),
    Message('control_change', channel=2, control=7, value=69, time=120),
    Message('note_on', channel=2, note=33, velocity=90, time=0),
    Message('note_on', channel=2, note=33, velocity=0, time=29),
    Message('note_on', channel=2, note=33, velocity=90, time=1),
    Message('note_on', channel=2, note=33, velocity=0, time=29),
    Message('note_on', channel=2, note=40, velocity=90, time=1),
    Message('note_on', channel=2, note=40, velocity=0, time=59),
    Message('control_change', channel=2, control=7, value=66, time=1),
    Message('note_on', channel=2, note=45, velocity=90, time=0),
    Message('note_on', channel=2, note=45, velocity=0, time=59),
    Message('note_on', channel=2, note=40, velocity=90, time=31),
    Message('note_on', channel=2, note=40, velocity=0, time=29),
    Message('note_on', channel=2, note=45, velocity=90, time=1),
    Message('control_change', channel=2, control=7, value=63, time=0),
    Message('note_on', channel=2, note=45, velocity=90, time=30),
    Message('note_on', channel=2, note=45, velocity=0, time=29),
    Message('note_on', channel=2, note=45, velocity=0, time=0),
    Message('note_on', channel=2, note=40, velocity=90, time=1),
    Message('note_on', channel=2, note=40, velocity=0, time=59),
    Message('control_change', channel=2, control=7, value=60, time=1),
    Message('control_change', channel=2, control=7, value=57, time=120),
    Message('note_on', channel=2, note=28, velocity=90, time=0),
    Message('note_on', channel=2, note=28, velocity=0, time=29),
    Message('note_on', channel=2, note=28, velocity=90, time=1),
    Message('note_on', channel=2, note=28, velocity=0, time=29),
    Message('note_on', channel=2, note=35, velocity=90, time=1),
    Message('note_on', channel=2, note=35, velocity=0, time=59),
    Message('note_on', channel=2, note=40, velocity=90, time=1),
    Message('control_change', channel=2, control=7, value=54, time=0),
    Message('note_on', channel=2, note=40, velocity=0, time=59),
    Message('note_on', channel=2, note=35, velocity=90, time=31),
    Message('note_on', channel=2, note=35, velocity=0, time=29),
    Message('note_on', channel=2, note=40, velocity=90, time=1),
    Message('control_change', channel=2, control=7, value=51, time=0),
    Message('note_on', channel=2, note=40, velocity=90, time=30),
    Message('note_on', channel=2, note=40, velocity=0, time=29),
    Message('note_on', channel=2, note=35, velocity=90, time=1),
    Message('note_on', channel=2, note=35, velocity=0, time=59),
    Message('control_change', channel=2, control=7, value=48, time=1),
    Message('note_on', channel=2, note=40, velocity=0, time=119),
    Message('note_on', channel=2, note=31, velocity=90, time=1),
    Message('control_change', channel=2, control=7, value=45, time=0),
    Message('note_on', channel=2, note=31, velocity=0, time=29),
    Message('note_on', channel=2, note=31, velocity=90, time=1),
    Message('note_on', channel=2, note=31, velocity=0, time=29),
    Message('note_on', channel=2, note=38, velocity=90, time=1),
    Message('note_on', channel=2, note=38, velocity=0, time=59),
    Message('note_on', channel=2, note=43, velocity=90, time=1),
    Message('control_change', channel=2, control=7, value=42, time=0),
    Message('note_on', channel=2, note=43, velocity=0, time=59),
    Message('note_on', channel=2, note=38, velocity=90, time=31),
    Message('note_on', channel=2, note=38, velocity=0, time=29),
    Message('control_change', channel=2, control=7, value=39, time=1),
    Message('note_on', channel=2, note=43, velocity=90, time=0),
    Message('note_on', channel=2, note=43, velocity=0, time=29),
    Message('note_on', channel=2, note=43, velocity=90, time=1),
    Message('note_on', channel=2, note=43, velocity=0, time=29),
    Message('note_on', channel=2, note=38, velocity=90, time=1),
    Message('note_on', channel=2, note=38, velocity=0, time=59),
    Message('control_change', channel=2, control=7, value=36, time=1),
    Message('note_on', channel=2, note=30, velocity=90, time=120),
    Message('control_change', channel=2, control=7, value=33, time=0),
    Message('note_on', channel=2, note=30, velocity=0, time=29),
    Message('note_on', channel=2, note=33, velocity=90, time=1),
    Message('note_on', channel=2, note=33, velocity=0, time=29),
    Message('note_on', channel=2, note=38, velocity=90, time=1),
    Message('note_on', channel=2, note=38, velocity=0, time=59),
    Message('note_on', channel=2, note=42, velocity=90, time=1),
    Message('control_change', channel=2, control=7, value=30, time=0),
    Message('note_on', channel=2, note=42, velocity=0, time=59),
    Message('note_on', channel=2, note=38, velocity=90, time=31),
    Message('note_on', channel=2, note=38, velocity=0, time=29),
    Message('control_change', channel=2, control=7, value=27, time=1),
    Message('note_on', channel=2, note=42, velocity=90, time=0),
    Message('note_on', channel=2, note=42, velocity=0, time=29),
    Message('note_on', channel=2, note=42, velocity=90, time=1),
    Message('note_on', channel=2, note=42, velocity=0, time=29),
    Message('note_on', channel=2, note=38, velocity=90, time=1),
    Message('note_on', channel=2, note=38, velocity=0, time=59),
    Message('control_change', channel=2, control=7, value=24, time=1),
    Message('control_change', channel=2, control=7, value=21, time=120),
    Message('note_on', channel=2, note=28, velocity=90, time=0),
    Message('note_on', channel=2, note=28, velocity=0, time=29),
    Message('note_on', channel=2, note=31, velocity=90, time=1),
    Message('note_on', channel=2, note=31, velocity=0, time=29),
    Message('note_on', channel=2, note=35, velocity=90, time=1),
    Message('note_on', channel=2, note=35, velocity=0, time=59),
    Message('control_change', channel=2, control=7, value=18, time=1),
    Message('note_on', channel=2, note=40, velocity=90, time=0),
    Message('note_on', channel=2, note=40, velocity=0, time=59),
    Message('note_on', channel=2, note=35, velocity=90, time=31),
    Message('note_on', channel=2, note=35, velocity=0, time=29),
    Message('note_on', channel=2, note=40, velocity=90, time=1),
    Message('control_change', channel=2, control=7, value=15, time=0),
    Message('note_on', channel=2, note=40, velocity=0, time=29),
    Message('note_on', channel=2, note=40, velocity=90, time=1),
    Message('note_on', channel=2, note=40, velocity=0, time=29),
    Message('note_on', channel=2, note=35, velocity=90, time=1),
    Message('note_on', channel=2, note=35, velocity=0, time=59),
    Message('control_change', channel=2, control=7, value=12, time=1),
    Message('control_change', channel=2, control=7, value=9, time=120),
    Message('note_on', channel=2, note=30, velocity=90, time=0),
    Message('note_on', channel=2, note=30, velocity=0, time=29),
    Message('note_on', channel=2, note=33, velocity=90, time=1),
    Message('note_on', channel=2, note=33, velocity=0, time=29),
    Message('note_on', channel=2, note=37, velocity=90, time=1),
    Message('note_on', channel=2, note=37, velocity=0, time=29),
    Message('note_on', channel=2, note=42, velocity=90, time=1),
    Message('control_change', channel=2, control=7, value=6, time=30),
    Message('note_on', channel=2, note=42, velocity=0, time=89),
    Message('note_on', channel=2, note=37, velocity=90, time=1),
    Message('note_on', channel=2, note=37, velocity=0, time=29),
    Message('control_change', channel=2, control=7, value=3, time=1),
    Message('note_on', channel=2, note=42, velocity=90, time=0),
    Message('note_on', channel=2, note=42, velocity=0, time=59),
    Message('note_on', channel=2, note=37, velocity=90, time=31),
    Message('note_on', channel=2, note=37, velocity=0, time=29),
    Message('note_on', channel=2, note=42, velocity=90, time=1),
    Message('control_change', channel=2, control=7, value=0, time=0),
    Message('note_on', channel=2, note=42, velocity=0, time=59),
    MetaMessage('end_of_track', time=0)]),
  MidiTrack([
    MetaMessage('track_name', name='WinJammer Demo', time=0),
    MetaMessage('midi_port', port=0, time=0),
    Message('control_change', channel=3, control=7, value=100, time=0),
    Message('program_change', channel=3, program=71, time=0),
    Message('note_on', channel=3, note=66, velocity=100, time=7740),
    Message('note_on', channel=3, note=66, velocity=0, time=29),
    Message('note_on', channel=3, note=66, velocity=100, time=1),
    Message('note_on', channel=3, note=66, velocity=0, time=29),
    Message('note_on', channel=3, note=66, velocity=100, time=1),
    Message('note_on', channel=3, note=66, velocity=0, time=59),
    Message('note_on', channel=3, note=64, velocity=100, time=1),
    Message('note_on', channel=3, note=64, velocity=0, time=29),
    Message('note_on', channel=3, note=62, velocity=100, time=1),
    Message('note_on', channel=3, note=62, velocity=0, time=29),
    Message('note_on', channel=3, note=62, velocity=100, time=1),
    Message('note_on', channel=3, note=62, velocity=0, time=59),
    Message('note_on', channel=3, note=66, velocity=100, time=1),
    Message('note_on', channel=3, note=66, velocity=0, time=119),
    Message('note_on', channel=3, note=66, velocity=100, time=121),
    Message('note_on', channel=3, note=66, velocity=0, time=59),
    Message('note_on', channel=3, note=66, velocity=100, time=1),
    Message('note_on', channel=3, note=66, velocity=0, time=39),
    Message('note_on', channel=3, note=64, velocity=100, time=1),
    Message('note_on', channel=3, note=64, velocity=0, time=39),
    Message('note_on', channel=3, note=62, velocity=100, time=1),
    Message('note_on', channel=3, note=62, velocity=0, time=39),
    Message('note_on', channel=3, note=66, velocity=100, time=1),
    Message('note_on', channel=3, note=66, velocity=0, time=119),
    Message('note_on', channel=3, note=64, velocity=100, time=181),
    Message('note_on', channel=3, note=64, velocity=0, time=59),
    Message('note_on', channel=3, note=64, velocity=100, time=1),
    Message('note_on', channel=3, note=64, velocity=0, time=39),
    Message('note_on', channel=3, note=64, velocity=100, time=1),
    Message('note_on', channel=3, note=64, velocity=0, time=39),
    Message('note_on', channel=3, note=64, velocity=100, time=1),
    Message('note_on', channel=3, note=64, velocity=0, time=39),
    Message('note_on', channel=3, note=64, velocity=100, time=1),
    Message('note_on', channel=3, note=64, velocity=0, time=59),
    Message('note_on', channel=3, note=66, velocity=100, time=1),
    Message('note_on', channel=3, note=66, velocity=0, time=119),
    Message('note_on', channel=3, note=66, velocity=100, time=121),
    Message('note_on', channel=3, note=66, velocity=0, time=29),
    Message('note_on', channel=3, note=66, velocity=100, time=1),
    Message('note_on', channel=3, note=66, velocity=0, time=29),
    Message('note_on', channel=3, note=66, velocity=100, time=1),
    Message('note_on', channel=3, note=66, velocity=0, time=39),
    Message('note_on', channel=3, note=64, velocity=100, time=1),
    Message('note_on', channel=3, note=64, velocity=0, time=39),
    Message('note_on', channel=3, note=64, velocity=100, time=1),
    Message('note_on', channel=3, note=64, velocity=0, time=39),
    Message('note_on', channel=3, note=64, velocity=100, time=1),
    Message('note_on', channel=3, note=64, velocity=0, time=29),
    Message('note_on', channel=3, note=62, velocity=100, time=1),
    Message('note_on', channel=3, note=62, velocity=0, time=29),
    Message('note_on', channel=3, note=59, velocity=100, time=1),
    Message('note_on', channel=3, note=59, velocity=0, time=119),
    Message('note_on', channel=3, note=66, velocity=100, time=121),
    Message('note_on', channel=3, note=66, velocity=0, time=29),
    Message('note_on', channel=3, note=66, velocity=100, time=1),
    Message('note_on', channel=3, note=66, velocity=0, time=29),
    Message('note_on', channel=3, note=66, velocity=100, time=1),
    Message('note_on', channel=3, note=66, velocity=0, time=59),
    Message('note_on', channel=3, note=64, velocity=100, time=1),
    Message('note_on', channel=3, note=64, velocity=0, time=29),
    Message('note_on', channel=3, note=62, velocity=100, time=1),
    Message('note_on', channel=3, note=62, velocity=0, time=29),
    Message('note_on', channel=3, note=62, velocity=100, time=1),
    Message('note_on', channel=3, note=62, velocity=0, time=59),
    Message('note_on', channel=3, note=66, velocity=100, time=1),
    Message('note_on', channel=3, note=66, velocity=0, time=119),
    Message('note_on', channel=3, note=57, velocity=100, time=91),
    Message('note_on', channel=3, note=57, velocity=0, time=29),
    Message('note_on', channel=3, note=57, velocity=100, time=1),
    Message('note_on', channel=3, note=57, velocity=0, time=29),
    Message('note_on', channel=3, note=57, velocity=100, time=1),
    Message('note_on', channel=3, note=57, velocity=0, time=29),
    Message('note_on', channel=3, note=66, velocity=100, time=1),
    Message('note_on', channel=3, note=66, velocity=0, time=39),
    Message('note_on', channel=3, note=64, velocity=100, time=1),
    Message('note_on', channel=3, note=64, velocity=0, time=39),
    Message('note_on', channel=3, note=62, velocity=100, time=1),
    Message('note_on', channel=3, note=62, velocity=0, time=39),
    Message('note_on', channel=3, note=62, velocity=100, time=1),
    Message('note_on', channel=3, note=62, velocity=0, time=119),
    Message('note_on', channel=3, note=57, velocity=100, time=151),
    Message('note_on', channel=3, note=57, velocity=0, time=29),
    Message('note_on', channel=3, note=64, velocity=100, time=1),
    Message('note_on', channel=3, note=64, velocity=0, time=29),
    Message('note_on', channel=3, note=64, velocity=100, time=1),
    Message('note_on', channel=3, note=64, velocity=0, time=29),
    Message('note_on', channel=3, note=64, velocity=100, time=1),
    Message('note_on', channel=3, note=64, velocity=0, time=29),
    Message('note_on', channel=3, note=64, velocity=100, time=1),
    Message('note_on', channel=3, note=64, velocity=0, time=29),
    Message('note_on', channel=3, note=64, velocity=100, time=1),
    Message('note_on', channel=3, note=64, velocity=0, time=29),
    Message('note_on', channel=3, note=64, velocity=100, time=1),
    Message('note_on', channel=3, note=64, velocity=0, time=29),
    Message('note_on', channel=3, note=64, velocity=100, time=1),
    Message('note_on', channel=3, note=64, velocity=0, time=29),
    Message('note_on', channel=3, note=62, velocity=100, time=1),
    Message('note_on', channel=3, note=62, velocity=0, time=59),
    Message('note_on', channel=3, note=66, velocity=100, time=1),
    Message('note_on', channel=3, note=66, velocity=0, time=119),
    Message('note_on', channel=3, note=57, velocity=100, time=61),
    Message('note_on', channel=3, note=57, velocity=0, time=29),
    Message('note_on', channel=3, note=66, velocity=100, time=1),
    Message('note_on', channel=3, note=66, velocity=0, time=29),
    Message('note_on', channel=3, note=66, velocity=100, time=1),
    Message('note_on', channel=3, note=66, velocity=0, time=29),
    Message('note_on', channel=3, note=66, velocity=100, time=1),
    Message('note_on', channel=3, note=66, velocity=0, time=59),
    Message('note_on', channel=3, note=64, velocity=100, time=1),
    Message('note_on', channel=3, note=64, velocity=0, time=29),
    Message('note_on', channel=3, note=62, velocity=100, time=1),
    Message('note_on', channel=3, note=62, velocity=0, time=29),
    Message('note_on', channel=3, note=66, velocity=100, time=1),
    Message('note_on', channel=3, note=66, velocity=0, time=119),
    Message('note_on', channel=3, note=66, velocity=100, time=181),
    Message('note_on', channel=3, note=66, velocity=0, time=29),
    Message('note_on', channel=3, note=66, velocity=100, time=1),
    Message('note_on', channel=3, note=66, velocity=0, time=29),
    Message('note_on', channel=3, note=66, velocity=100, time=1),
    Message('note_on', channel=3, note=66, velocity=0, time=39),
    Message('note_on', channel=3, note=67, velocity=100, time=1),
    Message('note_on', channel=3, note=67, velocity=0, time=39),
    Message('note_on', channel=3, note=66, velocity=100, time=1),
    Message('note_on', channel=3, note=66, velocity=0, time=39),
    Message('note_on', channel=3, note=67, velocity=100, time=1),
    Message('note_on', channel=3, note=67, velocity=0, time=29),
    Message('note_on', channel=3, note=66, velocity=100, time=1),
    Message('note_on', channel=3, note=66, velocity=0, time=149),
    Message('note_on', channel=3, note=57, velocity=100, time=91),
    Message('note_on', channel=3, note=57, velocity=0, time=29),
    Message('note_on', channel=3, note=66, velocity=100, time=1),
    Message('note_on', channel=3, note=66, velocity=0, time=29),
    Message('note_on', channel=3, note=66, velocity=100, time=1),
    Message('note_on', channel=3, note=66, velocity=0, time=29),
    Message('note_on', channel=3, note=66, velocity=100, time=1),
    Message('note_on', channel=3, note=66, velocity=0, time=29),
    Message('note_on', channel=3, note=64, velocity=100, time=1),
    Message('note_on', channel=3, note=64, velocity=0, time=59),
    Message('note_on', channel=3, note=64, velocity=100, time=1),
    Message('note_on', channel=3, note=64, velocity=0, time=149),
    Message('note_on', channel=3, note=59, velocity=100, time=211),
    Message('note_on', channel=3, note=59, velocity=0, time=29),
    Message('note_on', channel=3, note=64, velocity=100, time=1),
    Message('note_on', channel=3, note=64, velocity=0, time=29),
    Message('note_on', channel=3, note=64, velocity=100, time=1),
    Message('note_on', channel=3, note=64, velocity=0, time=29),
    Message('note_on', channel=3, note=64, velocity=100, time=1),
    Message('note_on', channel=3, note=64, velocity=0, time=29),
    Message('note_on', channel=3, note=64, velocity=100, time=1),
    Message('note_on', channel=3, note=64, velocity=0, time=29),
    Message('note_on', channel=3, note=64, velocity=100, time=1),
    Message('note_on', channel=3, note=64, velocity=0, time=39),
    Message('note_on', channel=3, note=64, velocity=100, time=1),
    Message('note_on', channel=3, note=64, velocity=0, time=39),
    Message('note_on', channel=3, note=66, velocity=100, time=1),
    Message('note_on', channel=3, note=66, velocity=0, time=69),
    Message('note_on', channel=3, note=66, velocity=100, time=1),
    Message('note_on', channel=3, note=66, velocity=0, time=29),
    Message('note_on', channel=3, note=66, velocity=100, time=1),
    Message('note_on', channel=3, note=66, velocity=0, time=29),
    Message('note_on', channel=3, note=66, velocity=100, time=1),
    Message('note_on', channel=3, note=66, velocity=0, time=29),
    Message('note_on', channel=3, note=66, velocity=100, time=1),
    Message('note_on', channel=3, note=66, velocity=0, time=59),
    Message('note_on', channel=3, note=66, velocity=100, time=1),
    Message('note_on', channel=3, note=66, velocity=0, time=29),
    Message('note_on', channel=3, note=66, velocity=100, time=1),
    Message('note_on', channel=3, note=66, velocity=0, time=29),
    Message('note_on', channel=3, note=66, velocity=100, time=1),
    Message('note_on', channel=3, note=66, velocity=0, time=39),
    Message('note_on', channel=3, note=64, velocity=100, time=1),
    Message('note_on', channel=3, note=64, velocity=0, time=39),
    Message('note_on', channel=3, note=64, velocity=100, time=1),
    Message('note_on', channel=3, note=64, velocity=0, time=69),
    Message('note_on', channel=3, note=64, velocity=100, time=1),
    Message('note_on', channel=3, note=64, velocity=0, time=14),
    Message('note_on', channel=3, note=62, velocity=100, time=1),
    Message('note_on', channel=3, note=62, velocity=0, time=14),
    Message('note_on', channel=3, note=59, velocity=100, time=1),
    Message('note_on', channel=3, note=59, velocity=0, time=179),
    Message('note_on', channel=3, note=66, velocity=100, time=61),
    Message('note_on', channel=3, note=66, velocity=0, time=29),
    Message('note_on', channel=3, note=66, velocity=100, time=1),
    Message('note_on', channel=3, note=66, velocity=0, time=29),
    Message('note_on', channel=3, note=66, velocity=100, time=1),
    Message('note_on', channel=3, note=66, velocity=0, time=39),
    Message('note_on', channel=3, note=64, velocity=100, time=1),
    Message('note_on', channel=3, note=64, velocity=0, time=39),
    Message('note_on', channel=3, note=62, velocity=100, time=1),
    Message('note_on', channel=3, note=62, velocity=0, time=39),
    Message('note_on', channel=3, note=62, velocity=100, time=1),
    Message('note_on', channel=3, note=62, velocity=0, time=59),
    Message('note_on', channel=3, note=66, velocity=100, time=1),
    Message('note_on', channel=3, note=66, velocity=0, time=179),
    Message('note_on', channel=3, note=57, velocity=100, time=61),
    Message('note_on', channel=3, note=57, velocity=0, time=29),
    Message('note_on', channel=3, note=57, velocity=100, time=1),
    Message('note_on', channel=3, note=57, velocity=0, time=29),
    Message('note_on', channel=3, note=66, velocity=100, time=1),
    Message('note_on', channel=3, note=66, velocity=0, time=39),
    Message('note_on', channel=3, note=64, velocity=100, time=1),
    Message('note_on', channel=3, note=64, velocity=0, time=39),
    Message('note_on', channel=3, note=62, velocity=100, time=1),
    Message('note_on', channel=3, note=62, velocity=0, time=39),
    Message('note_on', channel=3, note=62, velocity=100, time=1),
    Message('note_on', channel=3, note=62, velocity=0, time=119),
    Message('note_on', channel=3, note=64, velocity=100, time=181),
    Message('note_on', channel=3, note=64, velocity=0, time=29),
    Message('note_on', channel=3, note=64, velocity=100, time=1),
    Message('note_on', channel=3, note=64, velocity=0, time=29),
    Message('note_on', channel=3, note=64, velocity=100, time=1),
    Message('note_on', channel=3, note=64, velocity=0, time=29),
    Message('note_on', channel=3, note=64, velocity=100, time=1),
    Message('note_on', channel=3, note=64, velocity=0, time=29),
    Message('note_on', channel=3, note=64, velocity=100, time=1),
    Message('note_on', channel=3, note=64, velocity=0, time=29),
    Message('note_on', channel=3, note=64, velocity=100, time=1),
    Message('note_on', channel=3, note=64, velocity=0, time=29),
    Message('note_on', channel=3, note=64, velocity=100, time=1),
    Message('note_on', channel=3, note=64, velocity=0, time=29),
    Message('note_on', channel=3, note=62, velocity=100, time=1),
    Message('note_on', channel=3, note=62, velocity=0, time=59),
    Message('note_on', channel=3, note=66, velocity=100, time=1),
    Message('note_on', channel=3, note=66, velocity=0, time=149),
    Message('note_on', channel=3, note=66, velocity=100, time=31),
    Message('note_on', channel=3, note=66, velocity=0, time=29),
    Message('note_on', channel=3, note=66, velocity=100, time=1),
    Message('note_on', channel=3, note=66, velocity=0, time=29),
    Message('note_on', channel=3, note=66, velocity=100, time=1),
    Message('note_on', channel=3, note=66, velocity=0, time=29),
    Message('note_on', channel=3, note=66, velocity=100, time=1),
    Message('note_on', channel=3, note=66, velocity=0, time=59),
    Message('note_on', channel=3, note=70, velocity=100, time=1),
    Message('note_on', channel=3, note=70, velocity=0, time=59),
    Message('note_on', channel=3, note=66, velocity=100, time=1),
    Message('note_on', channel=3, note=66, velocity=0, time=119),
    Message('note_on', channel=3, note=67, velocity=100, time=181),
    Message('note_on', channel=3, note=67, velocity=0, time=29),
    Message('note_on', channel=3, note=67, velocity=100, time=1),
    Message('note_on', channel=3, note=67, velocity=0, time=29),
    Message('note_on', channel=3, note=67, velocity=100, time=31),
    Message('note_on', channel=3, note=67, velocity=0, time=29),
    Message('note_on', channel=3, note=67, velocity=100, time=1),
    Message('note_on', channel=3, note=67, velocity=0, time=29),
    Message('note_on', channel=3, note=67, velocity=100, time=1),
    Message('note_on', channel=3, note=67, velocity=0, time=89),
    Message('note_on', channel=3, note=67, velocity=100, time=1),
    Message('note_on', channel=3, note=67, velocity=0, time=59),
    Message('note_on', channel=3, note=69, velocity=100, time=1),
    Message('note_on', channel=3, note=69, velocity=0, time=59),
    Message('note_on', channel=3, note=67, velocity=100, time=1),
    Message('note_on', channel=3, note=67, velocity=0, time=29),
    Message('note_on', channel=3, note=67, velocity=100, time=1),
    Message('note_on', channel=3, note=67, velocity=0, time=59),
    Message('note_on', channel=3, note=66, velocity=100, time=1),
    Message('note_on', channel=3, note=66, velocity=0, time=89),
    Message('note_on', channel=3, note=66, velocity=100, time=301),
    Message('note_on', channel=3, note=66, velocity=0, time=29),
    Message('note_on', channel=3, note=66, velocity=100, time=1),
    Message('note_on', channel=3, note=66, velocity=0, time=29),
    Message('note_on', channel=3, note=66, velocity=100, time=1),
    Message('note_on', channel=3, note=66, velocity=0, time=59),
    Message('note_on', channel=3, note=64, velocity=100, time=1),
    Message('note_on', channel=3, note=64, velocity=0, time=29),
    Message('note_on', channel=3, note=64, velocity=100, time=1),
    Message('note_on', channel=3, note=64, velocity=0, time=89),
    Message('note_on', channel=3, note=64, velocity=100, time=241),
    Message('note_on', channel=3, note=64, velocity=0, time=29),
    Message('note_on', channel=3, note=64, velocity=100, time=1),
    Message('note_on', channel=3, note=64, velocity=0, time=29),
    Message('note_on', channel=3, note=64, velocity=100, time=1),
    Message('note_on', channel=3, note=64, velocity=0, time=59),
    Message('note_on', channel=3, note=62, velocity=100, time=1),
    Message('note_on', channel=3, note=62, velocity=0, time=29),
    Message('note_on', channel=3, note=62, velocity=100, time=1),
    Message('note_on', channel=3, note=62, velocity=0, time=89),
    Message('note_on', channel=3, note=67, velocity=100, time=301),
    Message('note_on', channel=3, note=67, velocity=0, time=29),
    Message('note_on', channel=3, note=67, velocity=100, time=1),
    Message('note_on', channel=3, note=67, velocity=0, time=29),
    Message('note_on', channel=3, note=67, velocity=100, time=1),
    Message('note_on', channel=3, note=67, velocity=0, time=29),
    Message('note_on', channel=3, note=67, velocity=100, time=1),
    Message('note_on', channel=3, note=67, velocity=0, time=29),
    Message('note_on', channel=3, note=67, velocity=100, time=31),
    Message('note_on', channel=3, note=67, velocity=0, time=29),
    Message('note_on', channel=3, note=67, velocity=100, time=1),
    Message('note_on', channel=3, note=67, velocity=0, time=29),
    Message('note_on', channel=3, note=67, velocity=100, time=1),
    Message('note_on', channel=3, note=67, velocity=0, time=89),
    Message('note_on', channel=3, note=67, velocity=100, time=1),
    Message('note_on', channel=3, note=67, velocity=0, time=59),
    Message('note_on', channel=3, note=69, velocity=100, time=1),
    Message('note_on', channel=3, note=69, velocity=0, time=59),
    Message('note_on', channel=3, note=67, velocity=100, time=1),
    Message('note_on', channel=3, note=67, velocity=0, time=59),
    Message('note_on', channel=3, note=67, velocity=100, time=1),
    Message('note_on', channel=3, note=67, velocity=0, time=29),
    Message('note_on', channel=3, note=66, velocity=100, time=1),
    Message('note_on', channel=3, note=66, velocity=0, time=29),
    Message('note_on', channel=3, note=66, velocity=100, time=361),
    Message('note_on', channel=3, note=66, velocity=0, time=29),
    Message('note_on', channel=3, note=66, velocity=100, time=1),
    Message('note_on', channel=3, note=66, velocity=0, time=29),
    Message('note_on', channel=3, note=66, velocity=100, time=1),
    Message('note_on', channel=3, note=66, velocity=0, time=59),
    Message('note_on', channel=3, note=64, velocity=100, time=1),
    Message('note_on', channel=3, note=64, velocity=0, time=29),
    Message('note_on', channel=3, note=64, velocity=100, time=1),
    Message('note_on', channel=3, note=64, velocity=0, time=89),
    Message('note_on', channel=3, note=67, velocity=100, time=241),
    Message('note_on', channel=3, note=67, velocity=0, time=29),
    Message('note_on', channel=3, note=67, velocity=100, time=1),
    Message('note_on', channel=3, note=67, velocity=0, time=29),
    Message('note_on', channel=3, note=67, velocity=100, time=1),
    Message('note_on', channel=3, note=67, velocity=0, time=59),
    Message('note_on', channel=3, note=66, velocity=100, time=1),
    Message('note_on', channel=3, note=66, velocity=0, time=29),
    Message('note_on', channel=3, note=66, velocity=100, time=1),
    Message('note_on', channel=3, note=66, velocity=0, time=89),
    Message('note_on', channel=3, note=66, velocity=100, time=331),
    Message('note_on', channel=3, note=66, velocity=0, time=29),
    Message('note_on', channel=3, note=66, velocity=100, time=1),
    Message('note_on', channel=3, note=66, velocity=0, time=29),
    Message('note_on', channel=3, note=66, velocity=100, time=1),
    Message('note_on', channel=3, note=66, velocity=0, time=29),
    Message('note_on', channel=3, note=67, velocity=100, time=1),
    Message('note_on', channel=3, note=67, velocity=0, time=39),
    Message('note_on', channel=3, note=66, velocity=100, time=1),
    Message('note_on', channel=3, note=66, velocity=0, time=39),
    Message('note_on', channel=3, note=67, velocity=100, time=1),
    Message('note_on', channel=3, note=67, velocity=0, time=39),
    Message('note_on', channel=3, note=67, velocity=100, time=1),
    Message('note_on', channel=3, note=67, velocity=0, time=59),
    Message('note_on', channel=3, note=66, velocity=100, time=1),
    Message('note_on', channel=3, note=66, velocity=0, time=119),
    Message('note_on', channel=3, note=66, velocity=100, time=91),
    Message('note_on', channel=3, note=66, velocity=0, time=29),
    Message('note_on', channel=3, note=66, velocity=100, time=1),
    Message('note_on', channel=3, note=66, velocity=0, time=59),
    Message('note_on', channel=3, note=66, velocity=100, time=1),
    Message('note_on', channel=3, note=66, velocity=0, time=39),
    Message('note_on', channel=3, note=64, velocity=100, time=1),
    Message('note_on', channel=3, note=64, velocity=0, time=39),
    Message('note_on', channel=3, note=62, velocity=100, time=1),
    Message('note_on', channel=3, note=62, velocity=0, time=39),
    Message('note_on', channel=3, note=66, velocity=100, time=1),
    Message('note_on', channel=3, note=66, velocity=0, time=119),
    Message('note_on', channel=3, note=64, velocity=100, time=151),
    Message('note_on', channel=3, note=64, velocity=0, time=29),
    Message('note_on', channel=3, note=64, velocity=100, time=1),
    Message('note_on', channel=3, note=64, velocity=0, time=29),
    Message('note_on', channel=3, note=64, velocity=100, time=1),
    Message('note_on', channel=3, note=64, velocity=0, time=29),
    Message('note_on', channel=3, note=66, velocity=100, time=1),
    Message('note_on', channel=3, note=66, velocity=0, time=29),
    Message('note_on', channel=3, note=64, velocity=100, time=1),
    Message('note_on', channel=3, note=64, velocity=0, time=29),
    Message('note_on', channel=3, note=66, velocity=100, time=1),
    Message('note_on', channel=3, note=66, velocity=0, time=29),
    Message('note_on', channel=3, note=64, velocity=100, time=1),
    Message('note_on', channel=3, note=64, velocity=0, time=59),
    Message('note_on', channel=3, note=66, velocity=100, time=1),
    Message('note_on', channel=3, note=66, velocity=0, time=29),
    Message('note_on', channel=3, note=64, velocity=100, time=1),
    Message('note_on', channel=3, note=64, velocity=0, time=29),
    Message('note_on', channel=3, note=66, velocity=100, time=1),
    Message('note_on', channel=3, note=66, velocity=0, time=59),
    Message('note_on', channel=3, note=66, velocity=100, time=181),
    Message('note_on', channel=3, note=66, velocity=0, time=29),
    Message('note_on', channel=3, note=66, velocity=100, time=1),
    Message('note_on', channel=3, note=66, velocity=0, time=39),
    Message('note_on', channel=3, note=64, velocity=100, time=1),
    Message('note_on', channel=3, note=64, velocity=0, time=79),
    Message('note_on', channel=3, note=64, velocity=100, time=1),
    Message('note_on', channel=3, note=64, velocity=0, time=29),
    Message('note_on', channel=3, note=62, velocity=100, time=1),
    Message('note_on', channel=3, note=62, velocity=0, time=29),
    Message('note_on', channel=3, note=59, velocity=100, time=1),
    Message('note_on', channel=3, note=59, velocity=0, time=119),
    Message('note_on', channel=3, note=66, velocity=100, time=121),
    Message('note_on', channel=3, note=66, velocity=0, time=29),
    Message('note_on', channel=3, note=66, velocity=100, time=1),
    Message('note_on', channel=3, note=66, velocity=0, time=29),
    Message('note_on', channel=3, note=66, velocity=100, time=1),
    Message('note_on', channel=3, note=66, velocity=0, time=59),
    Message('note_on', channel=3, note=64, velocity=100, time=1),
    Message('note_on', channel=3, note=64, velocity=0, time=29),
    Message('note_on', channel=3, note=62, velocity=100, time=1),
    Message('note_on', channel=3, note=62, velocity=0, time=29),
    Message('note_on', channel=3, note=62, velocity=100, time=1),
    Message('note_on', channel=3, note=62, velocity=0, time=59),
    Message('note_on', channel=3, note=66, velocity=100, time=1),
    Message('note_on', channel=3, note=66, velocity=0, time=119),
    Message('note_on', channel=3, note=66, velocity=100, time=121),
    Message('note_on', channel=3, note=66, velocity=0, time=99),
    Message('note_on', channel=3, note=64, velocity=100, time=1),
    Message('note_on', channel=3, note=64, velocity=0, time=39),
    Message('note_on', channel=3, note=62, velocity=100, time=1),
    Message('note_on', channel=3, note=62, velocity=0, time=39),
    Message('note_on', channel=3, note=62, velocity=100, time=1),
    Message('note_on', channel=3, note=62, velocity=0, time=119),
    Message('note_on', channel=3, note=64, velocity=100, time=181),
    Message('note_on', channel=3, note=64, velocity=0, time=59),
    Message('note_on', channel=3, note=64, velocity=100, time=1),
    Message('note_on', channel=3, note=64, velocity=0, time=59),
    Message('note_on', channel=3, note=64, velocity=100, time=1),
    Message('note_on', channel=3, note=64, velocity=0, time=29),
    Message('note_on', channel=3, note=62, velocity=100, time=1),
    Message('note_on', channel=3, note=62, velocity=0, time=29),
    Message('note_on', channel=3, note=66, velocity=100, time=1),
    Message('note_on', channel=3, note=66, velocity=0, time=59),
    Message('note_on', channel=3, note=64, velocity=100, time=1),
    Message('note_on', channel=3, note=64, velocity=0, time=59),
    Message('note_on', channel=3, note=66, velocity=100, time=181),
    Message('note_on', channel=3, note=66, velocity=0, time=59),
    Message('note_on', channel=3, note=66, velocity=100, time=1),
    Message('note_on', channel=3, note=66, velocity=0, time=59),
    Message('note_on', channel=3, note=64, velocity=100, time=1),
    Message('note_on', channel=3, note=64, velocity=0, time=29),
    Message('note_on', channel=3, note=62, velocity=100, time=1),
    Message('note_on', channel=3, note=62, velocity=0, time=59),
    Message('note_on', channel=3, note=66, velocity=100, time=1),
    Message('note_on', channel=3, note=66, velocity=0, time=119),
    Message('note_on', channel=3, note=66, velocity=100, time=151),
    Message('note_on', channel=3, note=66, velocity=0, time=29),
    Message('note_on', channel=3, note=66, velocity=100, time=1),
    Message('note_on', channel=3, note=66, velocity=0, time=29),
    Message('note_on', channel=3, note=66, velocity=100, time=1),
    Message('note_on', channel=3, note=66, velocity=0, time=39),
    Message('note_on', channel=3, note=67, velocity=100, time=1),
    Message('note_on', channel=3, note=67, velocity=0, time=39),
    Message('note_on', channel=3, note=66, velocity=100, time=1),
    Message('note_on', channel=3, note=66, velocity=0, time=39),
    Message('note_on', channel=3, note=67, velocity=100, time=1),
    Message('note_on', channel=3, note=67, velocity=0, time=29),
    Message('note_on', channel=3, note=66, velocity=100, time=1),
    Message('note_on', channel=3, note=66, velocity=0, time=149),
    Message('note_on', channel=3, note=66, velocity=100, time=121),
    Message('note_on', channel=3, note=66, velocity=0, time=59),
    Message('note_on', channel=3, note=66, velocity=100, time=1),
    Message('note_on', channel=3, note=66, velocity=0, time=29),
    Message('note_on', channel=3, note=64, velocity=100, time=1),
    Message('note_on', channel=3, note=64, velocity=0, time=59),
    Message('note_on', channel=3, note=62, velocity=100, time=1),
    Message('note_on', channel=3, note=62, velocity=0, time=59),
    Message('note_on', channel=3, note=66, velocity=100, time=1),
    Message('note_on', channel=3, note=66, velocity=0, time=59),
    Message('note_on', channel=3, note=57, velocity=100, time=61),
    Message('note_on', channel=3, note=57, velocity=0, time=29),
    Message('note_on', channel=3, note=57, velocity=100, time=1),
    Message('note_on', channel=3, note=57, velocity=0, time=59),
    Message('note_on', channel=3, note=59, velocity=100, time=91),
    Message('note_on', channel=3, note=59, velocity=0, time=29),
    Message('note_on', channel=3, note=64, velocity=100, time=1),
    Message('note_on', channel=3, note=64, velocity=0, time=29),
    Message('note_on', channel=3, note=64, velocity=100, time=1),
    Message('note_on', channel=3, note=64, velocity=0, time=29),
    Message('note_on', channel=3, note=64, velocity=100, time=1),
    Message('note_on', channel=3, note=64, velocity=0, time=29),
    Message('note_on', channel=3, note=64, velocity=100, time=1),
    Message('note_on', channel=3, note=64, velocity=0, time=29),
    Message('note_on', channel=3, note=64, velocity=100, time=1),
    Message('note_on', channel=3, note=64, velocity=0, time=39),
    Message('note_on', channel=3, note=64, velocity=100, time=1),
    Message('note_on', channel=3, note=64, velocity=0, time=39),
    Message('note_on', channel=3, note=66, velocity=100, time=1),
    Message('note_on', channel=3, note=66, velocity=0, time=99),
    Message('note_on', channel=3, note=62, velocity=100, time=91),
    Message('note_on', channel=3, note=62, velocity=0, time=29),
    Message('note_on', channel=3, note=66, velocity=100, time=1),
    Message('note_on', channel=3, note=66, velocity=0, time=29),
    Message('note_on', channel=3, note=66, velocity=100, time=1),
    Message('note_on', channel=3, note=66, velocity=0, time=29),
    Message('note_on', channel=3, note=66, velocity=100, time=1),
    Message('note_on', channel=3, note=66, velocity=0, time=39),
    Message('note_on', channel=3, note=64, velocity=100, time=1),
    Message('note_on', channel=3, note=64, velocity=0, time=39),
    Message('note_on', channel=3, note=64, velocity=100, time=1),
    Message('note_on', channel=3, note=64, velocity=0, time=69),
    Message('note_on', channel=3, note=64, velocity=100, time=1),
    Message('note_on', channel=3, note=64, velocity=0, time=14),
    Message('note_on', channel=3, note=62, velocity=100, time=1),
    Message('note_on', channel=3, note=62, velocity=0, time=14),
    Message('note_on', channel=3, note=59, velocity=100, time=1),
    Message('note_on', channel=3, note=59, velocity=0, time=179),
    Message('note_on', channel=3, note=66, velocity=100, time=61),
    Message('note_on', channel=3, note=66, velocity=0, time=59),
    Message('note_on', channel=3, note=66, velocity=100, time=1),
    Message('note_on', channel=3, note=66, velocity=0, time=59),
    Message('note_on', channel=3, note=66, velocity=100, time=1),
    Message('note_on', channel=3, note=66, velocity=0, time=59),
    Message('note_on', channel=3, note=66, velocity=100, time=1),
    Message('note_on', channel=3, note=66, velocity=0, time=29),
    Message('note_on', channel=3, note=64, velocity=100, time=1),
    Message('note_on', channel=3, note=64, velocity=0, time=29),
    Message('note_on', channel=3, note=62, velocity=100, time=1),
    Message('note_on', channel=3, note=62, velocity=0, time=29),
    Message('note_on', channel=3, note=62, velocity=100, time=1),
    Message('note_on', channel=3, note=62, velocity=0, time=59),
    Message('note_on', channel=3, note=64, velocity=100, time=1),
    Message('note_on', channel=3, note=64, velocity=0, time=29),
    Message('note_on', channel=3, note=66, velocity=100, time=1),
    Message('note_on', channel=3, note=66, velocity=0, time=59),
    Message('note_on', channel=3, note=66, velocity=100, time=1),
    Message('note_on', channel=3, note=66, velocity=0, time=149),
    Message('note_on', channel=3, note=64, velocity=100, time=1),
    Message('note_on', channel=3, note=64, velocity=0, time=29),
    Message('note_on', channel=3, note=62, velocity=100, time=1),
    Message('note_on', channel=3, note=62, velocity=0, time=29),
    Message('note_on', channel=3, note=62, velocity=100, time=1),
    Message('note_on', channel=3, note=62, velocity=0, time=29),
    Message('note_on', channel=3, note=59, velocity=100, time=31),
    Message('note_on', channel=3, note=59, velocity=0, time=29),
    Message('note_on', channel=3, note=57, velocity=100, time=1),
    Message('note_on', channel=3, note=57, velocity=0, time=59),
    Message('note_on', channel=3, note=64, velocity=100, time=181),
    Message('note_on', channel=3, note=64, velocity=0, time=29),
    Message('note_on', channel=3, note=64, velocity=100, time=1),
    Message('note_on', channel=3, note=64, velocity=0, time=29),
    Message('note_on', channel=3, note=64, velocity=100, time=1),
    Message('note_on', channel=3, note=64, velocity=0, time=59),
    Message('note_on', channel=3, note=64, velocity=100, time=1),
    Message('note_on', channel=3, note=64, velocity=0, time=29),
    Message('note_on', channel=3, note=64, velocity=100, time=1),
    Message('note_on', channel=3, note=64, velocity=0, time=29),
    Message('note_on', channel=3, note=64, velocity=100, time=1),
    Message('note_on', channel=3, note=64, velocity=0, time=29),
    Message('note_on', channel=3, note=64, velocity=100, time=1),
    Message('note_on', channel=3, note=64, velocity=0, time=29),
    Message('note_on', channel=3, note=64, velocity=100, time=1),
    Message('note_on', channel=3, note=64, velocity=0, time=29),
    Message('note_on', channel=3, note=62, velocity=100, time=1),
    Message('note_on', channel=3, note=62, velocity=0, time=29),
    Message('note_on', channel=3, note=66, velocity=100, time=1),
    Message('note_on', channel=3, note=66, velocity=0, time=59),
    Message('note_on', channel=3, note=66, velocity=100, time=121),
    Message('note_on', channel=3, note=66, velocity=0, time=29),
    Message('note_on', channel=3, note=66, velocity=100, time=1),
    Message('note_on', channel=3, note=66, velocity=0, time=29),
    Message('note_on', channel=3, note=66, velocity=100, time=1),
    Message('note_on', channel=3, note=66, velocity=0, time=59),
    Message('note_on', channel=3, note=70, velocity=100, time=1),
    Message('note_on', channel=3, note=70, velocity=0, time=59),
    Message('note_on', channel=3, note=64, velocity=100, time=1),
    Message('note_on', channel=3, note=64, velocity=0, time=119),
    Message('note_on', channel=3, note=66, velocity=100, time=1),
    Message('note_on', channel=3, note=66, velocity=0, time=119),
    Message('note_on', channel=3, note=67, velocity=100, time=61),
    Message('note_on', channel=3, note=67, velocity=0, time=29),
    Message('note_on', channel=3, note=67, velocity=100, time=1),
    Message('note_on', channel=3, note=67, velocity=0, time=29),
    Message('note_on', channel=3, note=67, velocity=100, time=31),
    Message('note_on', channel=3, note=67, velocity=0, time=29),
    Message('note_on', channel=3, note=67, velocity=100, time=1),
    Message('note_on', channel=3, note=67, velocity=0, time=29),
    Message('note_on', channel=3, note=67, velocity=100, time=1),
    Message('note_on', channel=3, note=67, velocity=0, time=89),
    Message('note_on', channel=3, note=67, velocity=100, time=1),
    Message('note_on', channel=3, note=67, velocity=0, time=59),
    Message('note_on', channel=3, note=69, velocity=100, time=1),
    Message('note_on', channel=3, note=69, velocity=0, time=59),
    Message('note_on', channel=3, note=67, velocity=100, time=1),
    Message('note_on', channel=3, note=67, velocity=0, time=29),
    Message('note_on', channel=3, note=67, velocity=100, time=1),
    Message('note_on', channel=3, note=67, velocity=0, time=59),
    Message('note_on', channel=3, note=66, velocity=100, time=1),
    Message('note_on', channel=3, note=66, velocity=0, time=89),
    Message('note_on', channel=3, note=66, velocity=100, time=301),
    Message('note_on', channel=3, note=66, velocity=0, time=29),
    Message('note_on', channel=3, note=66, velocity=100, time=1),
    Message('note_on', channel=3, note=66, velocity=0, time=29),
    Message('note_on', channel=3, note=66, velocity=100, time=1),
    Message('note_on', channel=3, note=66, velocity=0, time=59),
    Message('note_on', channel=3, note=64, velocity=100, time=1),
    Message('note_on', channel=3, note=64, velocity=0, time=29),
    Message('note_on', channel=3, note=64, velocity=100, time=1),
    Message('note_on', channel=3, note=64, velocity=0, time=89),
    Message('note_on', channel=3, note=64, velocity=100, time=241),
    Message('note_on', channel=3, note=64, velocity=0, time=29),
    Message('note_on', channel=3, note=64, velocity=100, time=1),
    Message('note_on', channel=3, note=64, velocity=0, time=29),
    Message('note_on', channel=3, note=64, velocity=100, time=1),
    Message('note_on', channel=3, note=64, velocity=0, time=59),
    Message('note_on', channel=3, note=62, velocity=100, time=1),
    Message('note_on', channel=3, note=62, velocity=0, time=29),
    Message('note_on', channel=3, note=62, velocity=100, time=1),
    Message('note_on', channel=3, note=62, velocity=0, time=89),
    Message('note_on', channel=3, note=67, velocity=100, time=301),
    Message('note_on', channel=3, note=67, velocity=0, time=29),
    Message('note_on', channel=3, note=67, velocity=100, time=1),
    Message('note_on', channel=3, note=67, velocity=0, time=29),
    Message('note_on', channel=3, note=67, velocity=100, time=1),
    Message('note_on', channel=3, note=67, velocity=0, time=29),
    Message('note_on', channel=3, note=67, velocity=100, time=1),
    Message('note_on', channel=3, note=67, velocity=0, time=29),
    Message('note_on', channel=3, note=67, velocity=100, time=31),
    Message('note_on', channel=3, note=67, velocity=0, time=29),
    Message('note_on', channel=3, note=67, velocity=100, time=1),
    Message('note_on', channel=3, note=67, velocity=0, time=29),
    Message('note_on', channel=3, note=67, velocity=100, time=1),
    Message('note_on', channel=3, note=67, velocity=0, time=89),
    Message('note_on', channel=3, note=67, velocity=100, time=1),
    Message('note_on', channel=3, note=67, velocity=0, time=59),
    Message('note_on', channel=3, note=69, velocity=100, time=1),
    Message('note_on', channel=3, note=69, velocity=0, time=59),
    Message('note_on', channel=3, note=67, velocity=100, time=1),
    Message('note_on', channel=3, note=67, velocity=0, time=59),
    Message('note_on', channel=3, note=67, velocity=100, time=1),
    Message('note_on', channel=3, note=67, velocity=0, time=29),
    Message('note_on', channel=3, note=66, velocity=100, time=1),
    Message('note_on', channel=3, note=66, velocity=0, time=29),
    Message('note_on', channel=3, note=66, velocity=100, time=361),
    Message('note_on', channel=3, note=66, velocity=0, time=29),
    Message('note_on', channel=3, note=66, velocity=100, time=1),
    Message('note_on', channel=3, note=66, velocity=0, time=29),
    Message('note_on', channel=3, note=66, velocity=100, time=1),
    Message('note_on', channel=3, note=66, velocity=0, time=59),
    Message('note_on', channel=3, note=64, velocity=100, time=1),
    Message('note_on', channel=3, note=64, velocity=0, time=29),
    Message('note_on', channel=3, note=64, velocity=100, time=1),
    Message('note_on', channel=3, note=64, velocity=0, time=89),
    Message('note_on', channel=3, note=67, velocity=100, time=241),
    Message('note_on', channel=3, note=67, velocity=0, time=29),
    Message('note_on', channel=3, note=67, velocity=100, time=1),
    Message('note_on', channel=3, note=67, velocity=0, time=29),
    Message('note_on', channel=3, note=67, velocity=100, time=1),
    Message('note_on', channel=3, note=67, velocity=0, time=59),
    Message('note_on', channel=3, note=66, velocity=100, time=1),
    Message('note_on', channel=3, note=66, velocity=0, time=29),
    Message('note_on', channel=3, note=66, velocity=100, time=1),
    Message('note_on', channel=3, note=66, velocity=0, time=149),
    Message('note_on', channel=3, note=66, velocity=100, time=301),
    Message('note_on', channel=3, note=66, velocity=0, time=29),
    Message('note_on', channel=3, note=67, velocity=100, time=1),
    Message('note_on', channel=3, note=67, velocity=0, time=59),
    Message('note_on', channel=3, note=67, velocity=100, time=1),
    Message('note_on', channel=3, note=67, velocity=0, time=59),
    Message('note_on', channel=3, note=66, velocity=100, time=1),
    Message('note_on', channel=3, note=66, velocity=0, time=29),
    Message('note_on', channel=3, note=67, velocity=100, time=1),
    Message('note_on', channel=3, note=67, velocity=0, time=59),
    Message('note_on', channel=3, note=66, velocity=100, time=1),
    Message('note_on', channel=3, note=66, velocity=0, time=59),
    Message('note_on', channel=3, note=52, velocity=100, time=151),
    Message('note_on', channel=3, note=52, velocity=0, time=29),
    Message('note_on', channel=3, note=66, velocity=100, time=1),
    Message('note_on', channel=3, note=66, velocity=0, time=29),
    Message('note_on', channel=3, note=66, velocity=100, time=1),
    Message('note_on', channel=3, note=66, velocity=0, time=59),
    Message('note_on', channel=3, note=66, velocity=100, time=1),
    Message('note_on', channel=3, note=66, velocity=0, time=59),
    Message('note_on', channel=3, note=64, velocity=100, time=1),
    Message('note_on', channel=3, note=64, velocity=0, time=29),
    Message('note_on', channel=3, note=66, velocity=100, time=1),
    Message('note_on', channel=3, note=66, velocity=0, time=59),
    Message('note_on', channel=3, note=52, velocity=100, time=31),
    Message('note_on', channel=3, note=52, velocity=0, time=29),
    Message('note_on', channel=3, note=54, velocity=100, time=1),
    Message('note_on', channel=3, note=54, velocity=0, time=29),
    Message('note_on', channel=3, note=54, velocity=100, time=1),
    Message('note_on', channel=3, note=54, velocity=0, time=59),
    Message('note_on', channel=3, note=66, velocity=100, time=91),
    Message('note_on', channel=3, note=66, velocity=0, time=29),
    Message('note_on', channel=3, note=64, velocity=100, time=1),
    Message('note_on', channel=3, note=64, velocity=0, time=29),
    Message('note_on', channel=3, note=64, velocity=100, time=1),
    Message('note_on', channel=3, note=64, velocity=0, time=59),
    Message('note_on', channel=3, note=64, velocity=100, time=1),
    Message('note_on', channel=3, note=64, velocity=0, time=59),
    Message('note_on', channel=3, note=66, velocity=100, time=1),
    Message('note_on', channel=3, note=66, velocity=0, time=44),
    Message('note_on', channel=3, note=64, velocity=100, time=1),
    Message('note_on', channel=3, note=64, velocity=0, time=29),
    Message('note_on', channel=3, note=64, velocity=100, time=1),
    Message('note_on', channel=3, note=64, velocity=0, time=44),
    Message('note_on', channel=3, note=66, velocity=100, time=1),
    Message('note_on', channel=3, note=66, velocity=0, time=59),
    Message('note_on', channel=3, note=66, velocity=100, time=121),
    Message('note_on', channel=3, note=66, velocity=0, time=29),
    Message('note_on', channel=3, note=66, velocity=100, time=1),
    Message('note_on', channel=3, note=66, velocity=0, time=29),
    Message('note_on', channel=3, note=66, velocity=100, time=1),
    Message('note_on', channel=3, note=66, velocity=0, time=29),
    Message('note_on', channel=3, note=64, velocity=100, time=1),
    Message('note_on', channel=3, note=64, velocity=0, time=59),
    Message('note_on', channel=3, note=62, velocity=100, time=1),
    Message('note_on', channel=3, note=62, velocity=0, time=29),
    Message('note_on', channel=3, note=62, velocity=100, time=1),
    Message('note_on', channel=3, note=62, velocity=0, time=59),
    Message('note_on', channel=3, note=62, velocity=100, time=211),
    Message('note_on', channel=3, note=62, velocity=0, time=29),
    Message('note_on', channel=3, note=66, velocity=100, time=1),
    Message('note_on', channel=3, note=66, velocity=0, time=29),
    Message('note_on', channel=3, note=66, velocity=100, time=1),
    Message('note_on', channel=3, note=66, velocity=0, time=29),
    Message('note_on', channel=3, note=66, velocity=100, time=1),
    Message('note_on', channel=3, note=66, velocity=0, time=59),
    Message('note_on', channel=3, note=64, velocity=100, time=1),
    Message('note_on', channel=3, note=64, velocity=0, time=59),
    Message('note_on', channel=3, note=62, velocity=100, time=1),
    Message('note_on', channel=3, note=62, velocity=0, time=59),
    Message('note_on', channel=3, note=66, velocity=100, time=1),
    Message('note_on', channel=3, note=66, velocity=0, time=59),
    Message('note_on', channel=3, note=54, velocity=100, time=151),
    Message('note_on', channel=3, note=54, velocity=0, time=29),
    Message('note_on', channel=3, note=66, velocity=100, time=1),
    Message('note_on', channel=3, note=66, velocity=0, time=59),
    Message('note_on', channel=3, note=64, velocity=100, time=1),
    Message('note_on', channel=3, note=64, velocity=0, time=39),
    Message('note_on', channel=3, note=64, velocity=100, time=1),
    Message('note_on', channel=3, note=64, velocity=0, time=39),
    Message('note_on', channel=3, note=62, velocity=100, time=1),
    Message('note_on', channel=3, note=62, velocity=0, time=39),
    Message('note_on', channel=3, note=62, velocity=100, time=1),
    Message('note_on', channel=3, note=62, velocity=0, time=59),
    Message('note_on', channel=3, note=52, velocity=100, time=211),
    Message('note_on', channel=3, note=52, velocity=0, time=29),
    Message('note_on', channel=3, note=64, velocity=100, time=1),
    Message('note_on', channel=3, note=64, velocity=0, time=59),
    Message('note_on', channel=3, note=64, velocity=100, time=1),
    Message('note_on', channel=3, note=64, velocity=0, time=39),
    Message('note_on', channel=3, note=64, velocity=100, time=1),
    Message('note_on', channel=3, note=64, velocity=0, time=39),
    Message('note_on', channel=3, note=62, velocity=100, time=1),
    Message('note_on', channel=3, note=62, velocity=0, time=69),
    Message('note_on', channel=3, note=64, velocity=100, time=1),
    Message('note_on', channel=3, note=64, velocity=0, time=59),
    Message('note_on', channel=3, note=62, velocity=100, time=1),
    Message('note_on', channel=3, note=62, velocity=0, time=29),
    Message('note_on', channel=3, note=66, velocity=100, time=1),
    Message('note_on', channel=3, note=66, velocity=0, time=59),
    Message('note_on', channel=3, note=66, velocity=100, time=1),
    Message('note_on', channel=3, note=66, velocity=0, time=29),
    Message('note_on', channel=3, note=62, velocity=100, time=1),
    Message('note_on', channel=3, note=62, velocity=0, time=29),
    Message('note_on', channel=3, note=66, velocity=100, time=1),
    Message('note_on', channel=3, note=66, velocity=0, time=59),
    Message('note_on', channel=3, note=66, velocity=100, time=1),
    Message('note_on', channel=3, note=66, velocity=0, time=59),
    Message('note_on', channel=3, note=66, velocity=100, time=31),
    Message('note_on', channel=3, note=66, velocity=0, time=59),
    Message('note_on', channel=3, note=64, velocity=100, time=1),
    Message('note_on', channel=3, note=64, velocity=0, time=29),
    Message('note_on', channel=3, note=66, velocity=100, time=1),
    Message('note_on', channel=3, note=66, velocity=0, time=59),
    Message('note_on', channel=3, note=66, velocity=100, time=241),
    Message('note_on', channel=3, note=66, velocity=0, time=59),
    Message('note_on', channel=3, note=66, velocity=100, time=1),
    Message('note_on', channel=3, note=66, velocity=0, time=39),
    Message('note_on', channel=3, note=67, velocity=100, time=1),
    Message('note_on', channel=3, note=67, velocity=0, time=39),
    Message('note_on', channel=3, note=66, velocity=100, time=1),
    Message('note_on', channel=3, note=66, velocity=0, time=39),
    Message('note_on', channel=3, note=67, velocity=100, time=1),
    Message('note_on', channel=3, note=67, velocity=0, time=59),
    Message('note_on', channel=3, note=66, velocity=100, time=1),
    Message('note_on', channel=3, note=66, velocity=0, time=89),
    Message('note_on', channel=3, note=54, velocity=100, time=31),
    Message('note_on', channel=3, note=54, velocity=0, time=29),
    Message('note_on', channel=3, note=59, velocity=100, time=1),
    Message('note_on', channel=3, note=59, velocity=0, time=29),
    Message('note_on', channel=3, note=66, velocity=100, time=61),
    Message('note_on', channel=3, note=66, velocity=0, time=29),
    Message('note_on', channel=3, note=66, velocity=100, time=1),
    Message('note_on', channel=3, note=66, velocity=0, time=59),
    Message('note_on', channel=3, note=66, velocity=100, time=1),
    Message('note_on', channel=3, note=66, velocity=0, time=29),
    Message('note_on', channel=3, note=64, velocity=100, time=1),
    Message('note_on', channel=3, note=64, velocity=0, time=59),
    Message('note_on', channel=3, note=66, velocity=100, time=1),
    Message('note_on', channel=3, note=66, velocity=0, time=59),
    Message('note_on', channel=3, note=64, velocity=100, time=271),
    Message('note_on', channel=3, note=64, velocity=0, time=29),
    Message('note_on', channel=3, note=64, velocity=100, time=1),
    Message('note_on', channel=3, note=64, velocity=0, time=29),
    Message('note_on', channel=3, note=64, velocity=100, time=1),
    Message('note_on', channel=3, note=64, velocity=0, time=29),
    Message('note_on', channel=3, note=64, velocity=100, time=1),
    Message('note_on', channel=3, note=64, velocity=0, time=29),
    Message('note_on', channel=3, note=64, velocity=100, time=1),
    Message('note_on', channel=3, note=64, velocity=0, time=29),
    Message('note_on', channel=3, note=64, velocity=100, time=1),
    Message('note_on', channel=3, note=64, velocity=0, time=29),
    Message('note_on', channel=3, note=64, velocity=100, time=1),
    Message('note_on', channel=3, note=64, velocity=0, time=59),
    Message('note_on', channel=3, note=66, velocity=100, time=1),
    Message('note_on', channel=3, note=66, velocity=0, time=59),
    Message('note_on', channel=3, note=66, velocity=100, time=31),
    Message('note_on', channel=3, note=66, velocity=0, time=29),
    Message('note_on', channel=3, note=66, velocity=100, time=1),
    Message('note_on', channel=3, note=66, velocity=0, time=29),
    Message('note_on', channel=3, note=66, velocity=100, time=1),
    Message('note_on', channel=3, note=66, velocity=0, time=59),
    Message('note_on', channel=3, note=66, velocity=100, time=1),
    Message('note_on', channel=3, note=66, velocity=0, time=59),
    Message('note_on', channel=3, note=66, velocity=100, time=1),
    Message('note_on', channel=3, note=66, velocity=0, time=29),
    Message('note_on', channel=3, note=64, velocity=100, time=1),
    Message('note_on', channel=3, note=64, velocity=0, time=29),
    Message('note_on', channel=3, note=62, velocity=100, time=1),
    Message('note_on', channel=3, note=62, velocity=0, time=29),
    Message('note_on', channel=3, note=64, velocity=100, time=1),
    Message('note_on', channel=3, note=64, velocity=0, time=59),
    Message('note_on', channel=3, note=62, velocity=100, time=1),
    Message('note_on', channel=3, note=62, velocity=0, time=29),
    Message('note_on', channel=3, note=59, velocity=100, time=1),
    Message('note_on', channel=3, note=59, velocity=0, time=59),
    Message('note_on', channel=3, note=62, velocity=100, time=181),
    Message('note_on', channel=3, note=62, velocity=0, time=29),
    Message('note_on', channel=3, note=66, velocity=100, time=1),
    Message('note_on', channel=3, note=66, velocity=0, time=89),
    Message('note_on', channel=3, note=64, velocity=100, time=1),
    Message('note_on', channel=3, note=64, velocity=0, time=29),
    Message('note_on', channel=3, note=62, velocity=100, time=1),
    Message('note_on', channel=3, note=62, velocity=0, time=29),
    Message('note_on', channel=3, note=62, velocity=100, time=1),
    Message('note_on', channel=3, note=62, velocity=0, time=59),
    Message('note_on', channel=3, note=66, velocity=100, time=1),
    Message('note_on', channel=3, note=66, velocity=0, time=59),
    Message('note_on', channel=3, note=62, velocity=100, time=61),
    Message('note_on', channel=3, note=62, velocity=0, time=29),
    Message('note_on', channel=3, note=57, velocity=100, time=1),
    Message('note_on', channel=3, note=57, velocity=0, time=89),
    Message('note_on', channel=3, note=62, velocity=100, time=1),
    Message('note_on', channel=3, note=62, velocity=0, time=29),
    Message('note_on', channel=3, note=62, velocity=100, time=1),
    Message('note_on', channel=3, note=62, velocity=0, time=59),
    Message('note_on', channel=3, note=62, velocity=100, time=1),
    Message('note_on', channel=3, note=62, velocity=0, time=59),
    Message('note_on', channel=3, note=59, velocity=100, time=1),
    Message('note_on', channel=3, note=59, velocity=0, time=29),
    Message('note_on', channel=3, note=62, velocity=100, time=1),
    Message('note_on', channel=3, note=62, velocity=0, time=59),
    Message('note_on', channel=3, note=64, velocity=100, time=241),
    Message('note_on', channel=3, note=64, velocity=0, time=29),
    Message('note_on', channel=3, note=64, velocity=100, time=1),
    Message('note_on', channel=3, note=64, velocity=0, time=29),
    Message('note_on', channel=3, note=64, velocity=100, time=1),
    Message('note_on', channel=3, note=64, velocity=0, time=29),
    Message('note_on', channel=3, note=64, velocity=100, time=1),
    Message('note_on', channel=3, note=64, velocity=0, time=29),
    Message('note_on', channel=3, note=64, velocity=100, time=1),
    Message('note_on', channel=3, note=64, velocity=0, time=29),
    Message('note_on', channel=3, note=62, velocity=100, time=1),
    Message('note_on', channel=3, note=62, velocity=0, time=59),
    Message('note_on', channel=3, note=64, velocity=100, time=1),
    Message('note_on', channel=3, note=64, velocity=0, time=59),
    Message('note_on', channel=3, note=62, velocity=100, time=1),
    Message('note_on', channel=3, note=62, velocity=0, time=29),
    Message('note_on', channel=3, note=64, velocity=100, time=1),
    Message('note_on', channel=3, note=64, velocity=0, time=29),
    Message('note_on', channel=3, note=66, velocity=100, time=1),
    Message('note_on', channel=3, note=66, velocity=0, time=59),
    Message('note_on', channel=3, note=66, velocity=100, time=61),
    Message('note_on', channel=3, note=66, velocity=0, time=29),
    Message('note_on', channel=3, note=66, velocity=100, time=1),
    Message('note_on', channel=3, note=66, velocity=0, time=29),
    Message('note_on', channel=3, note=66, velocity=100, time=1),
    Message('note_on', channel=3, note=66, velocity=0, time=29),
    Message('note_on', channel=3, note=70, velocity=100, time=31),
    Message('note_on', channel=3, note=70, velocity=0, time=29),
    Message('note_on', channel=3, note=66, velocity=100, time=1),
    Message('note_on', channel=3, note=66, velocity=0, time=29),
    Message('note_on', channel=3, note=66, velocity=100, time=31),
    Message('note_on', channel=3, note=66, velocity=0, time=29),
    Message('note_on', channel=3, note=64, velocity=100, time=1),
    Message('note_on', channel=3, note=64, velocity=0, time=29),
    Message('note_on', channel=3, note=66, velocity=100, time=1),
    Message('note_on', channel=3, note=66, velocity=0, time=59),
    MetaMessage('end_of_track', time=0)]),
  MidiTrack([
    MetaMessage('track_name', name='WinJammer Demo', time=0),
    MetaMessage('midi_port', port=0, time=0),
    Message('control_change', channel=4, control=7, value=90, time=0),
    Message('program_change', channel=4, program=30, time=0),
    Message('note_on', channel=4, note=59, velocity=90, time=11520),
    Message('note_on', channel=4, note=59, velocity=0, time=359),
    Message('note_on', channel=4, note=59, velocity=90, time=1),
    Message('note_on', channel=4, note=59, velocity=0, time=119),
    Message('note_on', channel=4, note=58, velocity=90, time=1),
    Message('note_on', channel=4, note=58, velocity=0, time=479),
    Message('note_on', channel=4, note=57, velocity=90, time=1),
    Message('note_on', channel=4, note=57, velocity=0, time=479),
    Message('note_on', channel=4, note=56, velocity=90, time=1),
    Message('note_on', channel=4, note=56, velocity=0, time=479),
    Message('note_on', channel=4, note=55, velocity=90, time=1),
    Message('note_on', channel=4, note=55, velocity=0, time=479),
    Message('note_on', channel=4, note=54, velocity=90, time=1),
    Message('note_on', channel=4, note=54, velocity=0, time=359),
    Message('note_on', channel=4, note=54, velocity=90, time=1),
    Message('note_on', channel=4, note=54, velocity=0, time=119),
    Message('note_on', channel=4, note=55, velocity=90, time=1),
    Message('note_on', channel=4, note=55, velocity=0, time=359),
    Message('note_on', channel=4, note=59, velocity=90, time=1),
    Message('note_on', channel=4, note=59, velocity=0, time=119),
    Message('note_on', channel=4, note=58, velocity=90, time=1),
    Message('note_on', channel=4, note=58, velocity=0, time=359),
    Message('note_on', channel=4, note=47, velocity=90, time=1),
    Message('note_on', channel=4, note=47, velocity=0, time=29),
    Message('note_on', channel=4, note=49, velocity=90, time=1),
    Message('note_on', channel=4, note=49, velocity=0, time=29),
    Message('note_on', channel=4, note=50, velocity=90, time=1),
    Message('note_on', channel=4, note=50, velocity=0, time=29),
    Message('note_on', channel=4, note=54, velocity=90, time=1),
    Message('note_on', channel=4, note=54, velocity=0, time=29),
    Message('note_on', channel=4, note=50, velocity=90, time=1),
    Message('note_on', channel=4, note=50, velocity=0, time=239),
    Message('note_on', channel=4, note=61, velocity=90, time=301),
    Message('note_on', channel=4, note=61, velocity=0, time=29),
    Message('note_on', channel=4, note=61, velocity=90, time=1),
    Message('note_on', channel=4, note=61, velocity=0, time=59),
    Message('note_on', channel=4, note=59, velocity=90, time=1),
    Message('note_on', channel=4, note=59, velocity=0, time=59),
    Message('note_on', channel=4, note=57, velocity=90, time=1),
    Message('note_on', channel=4, note=57, velocity=0, time=29),
    Message('note_on', channel=4, note=61, velocity=90, time=1),
    Message('note_on', channel=4, note=61, velocity=0, time=59),
    Message('note_on', channel=4, note=59, velocity=90, time=1),
    Message('note_on', channel=4, note=59, velocity=0, time=59),
    Message('note_on', channel=4, note=57, velocity=90, time=1),
    Message('note_on', channel=4, note=57, velocity=0, time=119),
    Message('note_on', channel=4, note=47, velocity=90, time=481),
    Message('note_on', channel=4, note=47, velocity=0, time=119),
    Message('note_on', channel=4, note=49, velocity=90, time=1),
    Message('note_on', channel=4, note=49, velocity=0, time=119),
    Message('note_on', channel=4, note=50, velocity=90, time=1),
    Message('note_on', channel=4, note=50, velocity=0, time=119),
    Message('note_on', channel=4, note=52, velocity=90, time=1),
    Message('note_on', channel=4, note=52, velocity=0, time=59),
    Message('note_on', channel=4, note=54, velocity=90, time=1),
    Message('note_on', channel=4, note=54, velocity=0, time=59),
    Message('note_on', channel=4, note=55, velocity=90, time=1),
    Message('note_on', channel=4, note=55, velocity=0, time=239),
    Message('note_on', channel=4, note=61, velocity=90, time=301),
    Message('note_on', channel=4, note=61, velocity=0, time=29),
    Message('note_on', channel=4, note=61, velocity=90, time=1),
    Message('note_on', channel=4, note=61, velocity=0, time=59),
    Message('note_on', channel=4, note=59, velocity=90, time=1),
    Message('note_on', channel=4, note=59, velocity=0, time=59),
    Message('note_on', channel=4, note=57, velocity=90, time=1),
    Message('note_on', channel=4, note=57, velocity=0, time=29),
    Message('note_on', channel=4, note=45, velocity=90, time=1),
    Message('note_on', channel=4, note=45, velocity=0, time=29),
    Message('note_on', channel=4, note=50, velocity=90, time=1),
    Message('note_on', channel=4, note=50, velocity=0, time=29),
    Message('note_on', channel=4, note=55, velocity=90, time=1),
    Message('note_on', channel=4, note=55, velocity=0, time=59),
    Message('note_on', channel=4, note=54, velocity=90, time=1),
    Message('note_on', channel=4, note=50, velocity=90, time=0),
    Message('note_on', channel=4, note=54, velocity=0, time=119),
    Message('note_on', channel=4, note=50, velocity=0, time=0),
    Message('note_on', channel=4, note=59, velocity=90, time=961),
    Message('note_on', channel=4, note=59, velocity=0, time=239),
    Message('note_on', channel=4, note=61, velocity=90, time=121),
    Message('note_on', channel=4, note=61, velocity=0, time=59),
    Message('note_on', channel=4, note=62, velocity=90, time=1),
    Message('note_on', channel=4, note=62, velocity=0, time=59),
    Message('note_on', channel=4, note=58, velocity=90, time=1),
    Message('note_on', channel=4, note=58, velocity=0, time=359),
    Message('note_on', channel=4, note=58, velocity=90, time=1),
    Message('note_on', channel=4, note=58, velocity=0, time=119),
    Message('note_on', channel=4, note=57, velocity=90, time=1),
    Message('note_on', channel=4, note=57, velocity=0, time=479),
    Message('note_on', channel=4, note=56, velocity=90, time=1),
    Message('note_on', channel=4, note=56, velocity=0, time=359),
    Message('note_on', channel=4, note=61, velocity=90, time=1),
    Message('note_on', channel=4, note=61, velocity=0, time=59),
    Message('note_on', channel=4, note=62, velocity=90, time=1),
    Message('note_on', channel=4, note=62, velocity=0, time=59),
    Message('note_on', channel=4, note=55, velocity=90, time=1),
    Message('note_on', channel=4, note=55, velocity=0, time=359),
    Message('note_on', channel=4, note=59, velocity=90, time=1),
    Message('note_on', channel=4, note=59, velocity=0, time=29),
    Message('note_on', channel=4, note=61, velocity=90, time=1),
    Message('note_on', channel=4, note=61, velocity=0, time=29),
    Message('note_on', channel=4, note=62, velocity=90, time=1),
    Message('note_on', channel=4, note=62, velocity=0, time=59),
    Message('note_on', channel=4, note=54, velocity=90, time=1),
    Message('note_on', channel=4, note=54, velocity=0, time=359),
    Message('note_on', channel=4, note=54, velocity=90, time=1),
    Message('note_on', channel=4, note=54, velocity=0, time=119),
    Message('note_on', channel=4, note=55, velocity=90, time=1),
    Message('note_on', channel=4, note=55, velocity=0, time=359),
    Message('note_on', channel=4, note=59, velocity=90, time=1),
    Message('note_on', channel=4, note=59, velocity=0, time=119),
    Message('note_on', channel=4, note=58, velocity=90, time=1),
    Message('note_on', channel=4, note=58, velocity=0, time=179),
    Message('note_on', channel=4, note=58, velocity=90, time=1),
    Message('note_on', channel=4, note=58, velocity=0, time=59),
    Message('note_on', channel=4, note=59, velocity=90, time=1),
    Message('note_on', channel=4, note=59, velocity=0, time=119),
    Message('note_on', channel=4, note=61, velocity=90, time=1),
    Message('note_on', channel=4, note=61, velocity=0, time=119),
    Message('note_on', channel=4, note=59, velocity=90, time=1),
    Message('note_on', channel=4, note=59, velocity=0, time=239),
    Message('note_on', channel=4, note=78, velocity=90, time=1),
    Message('note_on', channel=4, note=78, velocity=0, time=29),
    Message('note_on', channel=4, note=77, velocity=90, time=1),
    Message('note_on', channel=4, note=77, velocity=0, time=29),
    Message('note_on', channel=4, note=78, velocity=90, time=1),
    Message('note_on', channel=4, note=78, velocity=0, time=179),
    Message('note_on', channel=4, note=58, velocity=90, time=1),
    Message('note_on', channel=4, note=58, velocity=0, time=239),
    Message('note_on', channel=4, note=78, velocity=90, time=1),
    Message('note_on', channel=4, note=78, velocity=0, time=29),
    Message('note_on', channel=4, note=77, velocity=90, time=1),
    Message('note_on', channel=4, note=77, velocity=0, time=29),
    Message('note_on', channel=4, note=78, velocity=90, time=1),
    Message('note_on', channel=4, note=78, velocity=0, time=179),
    Message('note_on', channel=4, note=57, velocity=90, time=1),
    Message('note_on', channel=4, note=57, velocity=0, time=239),
    Message('note_on', channel=4, note=76, velocity=90, time=1),
    Message('note_on', channel=4, note=76, velocity=0, time=29),
    Message('note_on', channel=4, note=75, velocity=90, time=1),
    Message('note_on', channel=4, note=75, velocity=0, time=29),
    Message('note_on', channel=4, note=76, velocity=90, time=1),
    Message('note_on', channel=4, note=76, velocity=0, time=179),
    Message('note_on', channel=4, note=56, velocity=90, time=1),
    Message('note_on', channel=4, note=56, velocity=0, time=239),
    Message('note_on', channel=4, note=76, velocity=90, time=1),
    Message('note_on', channel=4, note=76, velocity=0, time=29),
    Message('note_on', channel=4, note=75, velocity=90, time=1),
    Message('note_on', channel=4, note=75, velocity=0, time=29),
    Message('note_on', channel=4, note=76, velocity=90, time=1),
    Message('note_on', channel=4, note=76, velocity=0, time=179),
    Message('note_on', channel=4, note=55, velocity=90, time=1),
    Message('note_on', channel=4, note=55, velocity=0, time=239),
    Message('note_on', channel=4, note=79, velocity=90, time=1),
    Message('note_on', channel=4, note=79, velocity=0, time=29),
    Message('note_on', channel=4, note=78, velocity=90, time=1),
    Message('note_on', channel=4, note=78, velocity=0, time=29),
    Message('note_on', channel=4, note=79, velocity=90, time=1),
    Message('note_on', channel=4, note=79, velocity=0, time=179),
    Message('note_on', channel=4, note=54, velocity=90, time=1),
    Message('note_on', channel=4, note=54, velocity=0, time=239),
    Message('note_on', channel=4, note=78, velocity=90, time=1),
    Message('note_on', channel=4, note=78, velocity=0, time=29),
    Message('note_on', channel=4, note=76, velocity=90, time=1),
    Message('note_on', channel=4, note=76, velocity=0, time=29),
    Message('note_on', channel=4, note=78, velocity=90, time=1),
    Message('note_on', channel=4, note=78, velocity=0, time=179),
    Message('note_on', channel=4, note=55, velocity=90, time=1),
    Message('note_on', channel=4, note=55, velocity=0, time=239),
    Message('note_on', channel=4, note=71, velocity=90, time=1),
    Message('note_on', channel=4, note=71, velocity=0, time=29),
    Message('note_on', channel=4, note=70, velocity=90, time=1),
    Message('note_on', channel=4, note=70, velocity=0, time=29),
    Message('note_on', channel=4, note=71, velocity=90, time=1),
    Message('note_on', channel=4, note=71, velocity=0, time=59),
    Message('note_on', channel=4, note=59, velocity=90, time=1),
    Message('note_on', channel=4, note=59, velocity=0, time=119),
    Message('note_on', channel=4, note=58, velocity=90, time=1),
    Message('note_on', channel=4, note=58, velocity=0, time=239),
    Message('note_on', channel=4, note=47, velocity=90, time=121),
    Message('note_on', channel=4, note=47, velocity=0, time=29),
    Message('note_on', channel=4, note=49, velocity=90, time=1),
    Message('note_on', channel=4, note=49, velocity=0, time=29),
    Message('note_on', channel=4, note=50, velocity=90, time=1),
    Message('note_on', channel=4, note=50, velocity=0, time=29),
    Message('note_on', channel=4, note=54, velocity=90, time=1),
    Message('note_on', channel=4, note=54, velocity=0, time=29),
    Message('note_on', channel=4, note=50, velocity=90, time=1),
    Message('note_on', channel=4, note=50, velocity=0, time=239),
    Message('note_on', channel=4, note=62, velocity=90, time=271),
    Message('note_on', channel=4, note=62, velocity=0, time=29),
    Message('note_on', channel=4, note=66, velocity=90, time=1),
    Message('note_on', channel=4, note=66, velocity=0, time=29),
    Message('note_on', channel=4, note=69, velocity=90, time=1),
    Message('note_on', channel=4, note=69, velocity=0, time=29),
    Message('note_on', channel=4, note=66, velocity=90, time=1),
    Message('note_on', channel=4, note=66, velocity=0, time=29),
    Message('note_on', channel=4, note=64, velocity=90, time=1),
    Message('note_on', channel=4, note=64, velocity=0, time=29),
    Message('note_on', channel=4, note=62, velocity=90, time=1),
    Message('note_on', channel=4, note=62, velocity=0, time=59),
    Message('note_on', channel=4, note=66, velocity=90, time=1),
    Message('note_on', channel=4, note=66, velocity=0, time=59),
    Message('note_on', channel=4, note=69, velocity=90, time=1),
    Message('note_on', channel=4, note=69, velocity=0, time=59),
    Message('note_on', channel=4, note=86, velocity=90, time=1),
    Message('note_on', channel=4, note=86, velocity=0, time=59),
    Message('note_on', channel=4, note=85, velocity=90, time=1),
    Message('note_on', channel=4, note=85, velocity=0, time=299),
    Message('note_on', channel=4, note=47, velocity=90, time=241),
    Message('note_on', channel=4, note=47, velocity=0, time=119),
    Message('note_on', channel=4, note=49, velocity=90, time=1),
    Message('note_on', channel=4, note=49, velocity=0, time=119),
    Message('note_on', channel=4, note=50, velocity=90, time=1),
    Message('note_on', channel=4, note=50, velocity=0, time=119),
    Message('note_on', channel=4, note=52, velocity=90, time=1),
    Message('note_on', channel=4, note=52, velocity=0, time=59),
    Message('note_on', channel=4, note=54, velocity=90, time=1),
    Message('note_on', channel=4, note=54, velocity=0, time=59),
    Message('note_on', channel=4, note=55, velocity=90, time=1),
    Message('note_on', channel=4, note=55, velocity=0, time=239),
    Message('note_on', channel=4, note=83, velocity=90, time=301),
    Message('note_on', channel=4, note=83, velocity=0, time=119),
    Message('note_on', channel=4, note=86, velocity=90, time=1),
    Message('note_on', channel=4, note=86, velocity=0, time=29),
    Message('note_on', channel=4, note=86, velocity=90, time=1),
    Message('note_on', channel=4, note=86, velocity=0, time=29),
    Message('note_on', channel=4, note=83, velocity=90, time=1),
    Message('note_on', channel=4, note=83, velocity=0, time=29),
    Message('note_on', channel=4, note=81, velocity=90, time=1),
    Message('note_on', channel=4, note=81, velocity=0, time=29),
    Message('note_on', channel=4, note=78, velocity=90, time=1),
    Message('note_on', channel=4, note=78, velocity=0, time=59),
    Message('note_on', channel=4, note=90, velocity=90, time=1),
    Message('note_on', channel=4, note=90, velocity=0, time=59),
    Message('note_on', channel=4, note=88, velocity=90, time=1),
    Message('note_on', channel=4, note=88, velocity=0, time=299),
    Message('note_on', channel=4, note=59, velocity=90, time=4561),
    Message('note_on', channel=4, note=59, velocity=0, time=239),
    Message('note_on', channel=4, note=78, velocity=90, time=1),
    Message('note_on', channel=4, note=78, velocity=0, time=29),
    Message('note_on', channel=4, note=77, velocity=90, time=1),
    Message('note_on', channel=4, note=77, velocity=0, time=29),
    Message('note_on', channel=4, note=78, velocity=90, time=1),
    Message('note_on', channel=4, note=78, velocity=0, time=179),
    Message('note_on', channel=4, note=58, velocity=90, time=1),
    Message('note_on', channel=4, note=58, velocity=0, time=239),
    Message('note_on', channel=4, note=78, velocity=90, time=1),
    Message('note_on', channel=4, note=78, velocity=0, time=29),
    Message('note_on', channel=4, note=77, velocity=90, time=1),
    Message('note_on', channel=4, note=77, velocity=0, time=29),
    Message('note_on', channel=4, note=78, velocity=90, time=1),
    Message('note_on', channel=4, note=78, velocity=0, time=179),
    Message('note_on', channel=4, note=57, velocity=90, time=1),
    Message('note_on', channel=4, note=57, velocity=0, time=239),
    Message('note_on', channel=4, note=76, velocity=90, time=1),
    Message('note_on', channel=4, note=76, velocity=0, time=29),
    Message('note_on', channel=4, note=75, velocity=90, time=1),
    Message('note_on', channel=4, note=75, velocity=0, time=29),
    Message('note_on', channel=4, note=76, velocity=90, time=1),
    Message('note_on', channel=4, note=76, velocity=0, time=179),
    Message('note_on', channel=4, note=56, velocity=90, time=1),
    Message('note_on', channel=4, note=56, velocity=0, time=239),
    Message('note_on', channel=4, note=76, velocity=90, time=1),
    Message('note_on', channel=4, note=76, velocity=0, time=29),
    Message('note_on', channel=4, note=75, velocity=90, time=1),
    Message('note_on', channel=4, note=75, velocity=0, time=29),
    Message('note_on', channel=4, note=76, velocity=90, time=1),
    Message('note_on', channel=4, note=76, velocity=0, time=179),
    Message('note_on', channel=4, note=55, velocity=90, time=1),
    Message('note_on', channel=4, note=55, velocity=0, time=239),
    Message('note_on', channel=4, note=79, velocity=90, time=1),
    Message('note_on', channel=4, note=79, velocity=0, time=29),
    Message('note_on', channel=4, note=78, velocity=90, time=1),
    Message('note_on', channel=4, note=78, velocity=0, time=29),
    Message('note_on', channel=4, note=79, velocity=90, time=1),
    Message('note_on', channel=4, note=79, velocity=0, time=179),
    Message('note_on', channel=4, note=54, velocity=90, time=1),
    Message('note_on', channel=4, note=54, velocity=0, time=239),
    Message('note_on', channel=4, note=78, velocity=90, time=1),
    Message('note_on', channel=4, note=78, velocity=0, time=29),
    Message('note_on', channel=4, note=76, velocity=90, time=1),
    Message('note_on', channel=4, note=76, velocity=0, time=29),
    Message('note_on', channel=4, note=78, velocity=90, time=1),
    Message('note_on', channel=4, note=78, velocity=0, time=179),
    Message('note_on', channel=4, note=55, velocity=90, time=1),
    Message('note_on', channel=4, note=55, velocity=0, time=239),
    Message('note_on', channel=4, note=71, velocity=90, time=1),
    Message('note_on', channel=4, note=71, velocity=0, time=29),
    Message('note_on', channel=4, note=70, velocity=90, time=1),
    Message('note_on', channel=4, note=70, velocity=0, time=29),
    Message('note_on', channel=4, note=71, velocity=90, time=1),
    Message('note_on', channel=4, note=71, velocity=0, time=59),
    Message('note_on', channel=4, note=59, velocity=90, time=1),
    Message('note_on', channel=4, note=59, velocity=0, time=119),
    Message('note_on', channel=4, note=58, velocity=90, time=1),
    Message('note_on', channel=4, note=58, velocity=0, time=239),
    Message('note_on', channel=4, note=78, velocity=90, time=1),
    Message('note_on', channel=4, note=78, velocity=0, time=29),
    Message('note_on', channel=4, note=77, velocity=90, time=1),
    Message('note_on', channel=4, note=77, velocity=0, time=29),
    Message('note_on', channel=4, note=78, velocity=90, time=1),
    Message('note_on', channel=4, note=78, velocity=0, time=29),
    Message('control_change', channel=4, control=7, value=100, time=31),
    Message('note_on', channel=4, note=59, velocity=90, time=0),
    Message('note_on', channel=4, note=59, velocity=0, time=29),
    Message('note_on', channel=4, note=66, velocity=90, time=1),
    Message('note_on', channel=4, note=66, velocity=0, time=29),
    Message('note_on', channel=4, note=69, velocity=90, time=1),
    Message('note_on', channel=4, note=69, velocity=0, time=29),
    Message('note_on', channel=4, note=71, velocity=90, time=1),
    Message('note_on', channel=4, note=71, velocity=0, time=29),
    Message('note_on', channel=4, note=74, velocity=90, time=1),
    Message('note_on', channel=4, note=74, velocity=0, time=179),
    Message('note_on', channel=4, note=69, velocity=90, time=1),
    Message('note_on', channel=4, note=69, velocity=0, time=29),
    Message('note_on', channel=4, note=71, velocity=90, time=1),
    Message('note_on', channel=4, note=71, velocity=0, time=29),
    Message('note_on', channel=4, note=66, velocity=90, time=1),
    Message('note_on', channel=4, note=66, velocity=0, time=119),
    Message('note_on', channel=4, note=62, velocity=90, time=1),
    Message('note_on', channel=4, note=62, velocity=0, time=29),
    Message('note_on', channel=4, note=64, velocity=90, time=1),
    Message('note_on', channel=4, note=64, velocity=0, time=29),
    Message('note_on', channel=4, note=66, velocity=90, time=1),
    Message('note_on', channel=4, note=66, velocity=0, time=29),
    Message('note_on', channel=4, note=62, velocity=90, time=1),
    Message('note_on', channel=4, note=62, velocity=0, time=29),
    Message('note_on', channel=4, note=58, velocity=90, time=1),
    Message('note_on', channel=4, note=58, velocity=0, time=119),
    Message('note_on', channel=4, note=59, velocity=90, time=1),
    Message('note_on', channel=4, note=62, velocity=90, time=15),
    Message('note_on', channel=4, note=59, velocity=0, time=14),
    Message('note_on', channel=4, note=62, velocity=0, time=0),
    Message('note_on', channel=4, note=59, velocity=90, time=1),
    Message('note_on', channel=4, note=59, velocity=0, time=14),
    Message('note_on', channel=4, note=58, velocity=90, time=1),
    Message('note_on', channel=4, note=58, velocity=0, time=14),
    Message('note_on', channel=4, note=57, velocity=90, time=1),
    Message('note_on', channel=4, note=57, velocity=0, time=59),
    Message('note_on', channel=4, note=58, velocity=90, time=1),
    Message('note_on', channel=4, note=58, velocity=0, time=179),
    Message('note_on', channel=4, note=42, velocity=90, time=1),
    Message('note_on', channel=4, note=42, velocity=0, time=59),
    Message('note_on', channel=4, note=62, velocity=90, time=1),
    Message('note_on', channel=4, note=62, velocity=0, time=29),
    Message('note_on', channel=4, note=64, velocity=90, time=1),
    Message('note_on', channel=4, note=64, velocity=0, time=29),
    Message('note_on', channel=4, note=66, velocity=90, time=1),
    Message('note_on', channel=4, note=66, velocity=0, time=29),
    Message('note_on', channel=4, note=62, velocity=90, time=1),
    Message('note_on', channel=4, note=62, velocity=0, time=29),
    Message('note_on', channel=4, note=59, velocity=90, time=1),
    Message('note_on', channel=4, note=59, velocity=0, time=29),
    Message('note_on', channel=4, note=58, velocity=90, time=1),
    Message('note_on', channel=4, note=58, velocity=0, time=29),
    Message('note_on', channel=4, note=59, velocity=90, time=1),
    Message('note_on', channel=4, note=59, velocity=0, time=59),
    Message('note_on', channel=4, note=62, velocity=90, time=1),
    Message('note_on', channel=4, note=62, velocity=0, time=29),
    Message('note_on', channel=4, note=64, velocity=90, time=1),
    Message('note_on', channel=4, note=64, velocity=0, time=29),
    Message('note_on', channel=4, note=66, velocity=90, time=1),
    Message('note_on', channel=4, note=66, velocity=0, time=29),
    Message('note_on', channel=4, note=62, velocity=90, time=1),
    Message('note_on', channel=4, note=62, velocity=0, time=29),
    Message('note_on', channel=4, note=59, velocity=90, time=1),
    Message('note_on', channel=4, note=59, velocity=0, time=29),
    Message('note_on', channel=4, note=58, velocity=90, time=1),
    Message('note_on', channel=4, note=58, velocity=0, time=29),
    Message('note_on', channel=4, note=59, velocity=90, time=1),
    Message('note_on', channel=4, note=59, velocity=0, time=29),
    Message('note_on', channel=4, note=58, velocity=90, time=1),
    Message('note_on', channel=4, note=58, velocity=0, time=29),
    Message('note_on', channel=4, note=69, velocity=90, time=1),
    Message('note_on', channel=4, note=69, velocity=0, time=29),
    Message('note_on', channel=4, note=71, velocity=90, time=1),
    Message('note_on', channel=4, note=71, velocity=0, time=29),
    Message('note_on', channel=4, note=74, velocity=90, time=1),
    Message('note_on', channel=4, note=74, velocity=0, time=29),
    Message('note_on', channel=4, note=71, velocity=90, time=1),
    Message('note_on', channel=4, note=71, velocity=0, time=59),
    Message('note_on', channel=4, note=68, velocity=90, time=1),
    Message('note_on', channel=4, note=68, velocity=0, time=29),
    Message('note_on', channel=4, note=69, velocity=90, time=1),
    Message('note_on', channel=4, note=69, velocity=0, time=59),
    Message('note_on', channel=4, note=68, velocity=90, time=1),
    Message('note_on', channel=4, note=68, velocity=0, time=119),
    Message('note_on', channel=4, note=71, velocity=90, time=1),
    Message('note_on', channel=4, note=71, velocity=0, time=29),
    Message('note_on', channel=4, note=69, velocity=90, time=1),
    Message('note_on', channel=4, note=69, velocity=0, time=29),
    Message('note_on', channel=4, note=76, velocity=90, time=1),
    Message('note_on', channel=4, note=76, velocity=0, time=119),
    Message('note_on', channel=4, note=74, velocity=90, time=1),
    Message('note_on', channel=4, note=74, velocity=0, time=30),
    Message('note_on', channel=4, note=76, velocity=90, time=30),
    Message('note_on', channel=4, note=76, velocity=0, time=30),
    Message('note_on', channel=4, note=74, velocity=90, time=0),
    Message('note_on', channel=4, note=74, velocity=0, time=30),
    Message('note_on', channel=4, note=71, velocity=90, time=0),
    Message('note_on', channel=4, note=71, velocity=0, time=30),
    Message('note_on', channel=4, note=69, velocity=90, time=0),
    Message('note_on', channel=4, note=69, velocity=0, time=30),
    Message('note_on', channel=4, note=71, velocity=90, time=0),
    Message('note_on', channel=4, note=71, velocity=0, time=30),
    Message('note_on', channel=4, note=74, velocity=90, time=0),
    Message('note_on', channel=4, note=74, velocity=0, time=30),
    Message('note_on', channel=4, note=71, velocity=90, time=0),
    Message('note_on', channel=4, note=71, velocity=0, time=30),
    Message('note_on', channel=4, note=69, velocity=90, time=0),
    Message('note_on', channel=4, note=69, velocity=0, time=30),
    Message('note_on', channel=4, note=67, velocity=90, time=0),
    Message('note_on', channel=4, note=67, velocity=0, time=60),
    Message('note_on', channel=4, note=69, velocity=90, time=0),
    Message('note_on', channel=4, note=69, velocity=0, time=15),
    Message('note_on', channel=4, note=59, velocity=90, time=15),
    Message('note_on', channel=4, note=59, velocity=0, time=15),
    Message('note_on', channel=4, note=66, velocity=90, time=15),
    Message('note_on', channel=4, note=66, velocity=0, time=59),
    Message('note_on', channel=4, note=74, velocity=90, time=1),
    Message('note_on', channel=4, note=74, velocity=0, time=59),
    Message('note_on', channel=4, note=66, velocity=90, time=1),
    Message('note_on', channel=4, note=66, velocity=0, time=29),
    Message('note_on', channel=4, note=64, velocity=90, time=1),
    Message('note_on', channel=4, note=64, velocity=0, time=29),
    Message('note_on', channel=4, note=62, velocity=90, time=1),
    Message('note_on', channel=4, note=62, velocity=0, time=59),
    Message('note_on', channel=4, note=62, velocity=90, time=1),
    Message('note_on', channel=4, note=62, velocity=0, time=29),
    Message('note_on', channel=4, note=61, velocity=90, time=1),
    Message('note_on', channel=4, note=61, velocity=0, time=29),
    Message('note_on', channel=4, note=62, velocity=90, time=1),
    Message('note_on', channel=4, note=62, velocity=0, time=59),
    Message('note_on', channel=4, note=62, velocity=90, time=1),
    Message('note_on', channel=4, note=62, velocity=0, time=119),
    Message('note_on', channel=4, note=62, velocity=90, time=1),
    Message('note_on', channel=4, note=62, velocity=0, time=29),
    Message('note_on', channel=4, note=64, velocity=90, time=1),
    Message('note_on', channel=4, note=64, velocity=0, time=29),
    Message('note_on', channel=4, note=67, velocity=90, time=1),
    Message('note_on', channel=4, note=67, velocity=0, time=29),
    Message('note_on', channel=4, note=67, velocity=90, time=31),
    Message('note_on', channel=4, note=67, velocity=0, time=29),
    Message('note_on', channel=4, note=66, velocity=90, time=1),
    Message('note_on', channel=4, note=66, velocity=0, time=29),
    Message('note_on', channel=4, note=64, velocity=90, time=1),
    Message('note_on', channel=4, note=64, velocity=0, time=29),
    Message('note_on', channel=4, note=64, velocity=90, time=31),
    Message('note_on', channel=4, note=64, velocity=0, time=29),
    Message('note_on', channel=4, note=67, velocity=90, time=1),
    Message('note_on', channel=4, note=67, velocity=0, time=29),
    Message('note_on', channel=4, note=67, velocity=90, time=16),
    Message('note_on', channel=4, note=67, velocity=0, time=29),
    Message('note_on', channel=4, note=67, velocity=90, time=16),
    Message('note_on', channel=4, note=67, velocity=0, time=29),
    Message('note_on', channel=4, note=66, velocity=90, time=1),
    Message('note_on', channel=4, note=66, velocity=0, time=29),
    Message('note_on', channel=4, note=64, velocity=90, time=1),
    Message('note_on', channel=4, note=64, velocity=0, time=29),
    Message('note_on', channel=4, note=62, velocity=90, time=1),
    Message('note_on', channel=4, note=62, velocity=0, time=29),
    Message('note_on', channel=4, note=66, velocity=90, time=1),
    Message('note_on', channel=4, note=66, velocity=0, time=29),
    Message('note_on', channel=4, note=66, velocity=90, time=1),
    Message('note_on', channel=4, note=66, velocity=0, time=29),
    Message('note_on', channel=4, note=69, velocity=90, time=1),
    Message('note_on', channel=4, note=69, velocity=0, time=29),
    Message('note_on', channel=4, note=66, velocity=90, time=1),
    Message('note_on', channel=4, note=66, velocity=0, time=29),
    Message('note_on', channel=4, note=66, velocity=90, time=1),
    Message('note_on', channel=4, note=66, velocity=0, time=29),
    Message('note_on', channel=4, note=71, velocity=90, time=1),
    Message('note_on', channel=4, note=71, velocity=0, time=29),
    Message('note_on', channel=4, note=66, velocity=90, time=1),
    Message('note_on', channel=4, note=66, velocity=0, time=29),
    Message('note_on', channel=4, note=64, velocity=90, time=1),
    Message('note_on', channel=4, note=64, velocity=0, time=14),
    Message('note_on', channel=4, note=62, velocity=90, time=1),
    Message('note_on', channel=4, note=62, velocity=0, time=14),
    Message('note_on', channel=4, note=66, velocity=90, time=1),
    Message('note_on', channel=4, note=66, velocity=0, time=239),
    Message('note_on', channel=4, note=66, velocity=90, time=1),
    Message('note_on', channel=4, note=66, velocity=0, time=29),
    Message('note_on', channel=4, note=66, velocity=90, time=1),
    Message('note_on', channel=4, note=66, velocity=0, time=29),
    Message('note_on', channel=4, note=69, velocity=90, time=1),
    Message('note_on', channel=4, note=69, velocity=0, time=29),
    Message('note_on', channel=4, note=66, velocity=90, time=1),
    Message('note_on', channel=4, note=66, velocity=0, time=29),
    Message('note_on', channel=4, note=66, velocity=90, time=1),
    Message('note_on', channel=4, note=66, velocity=0, time=29),
    Message('note_on', channel=4, note=71, velocity=90, time=1),
    Message('note_on', channel=4, note=71, velocity=0, time=29),
    Message('note_on', channel=4, note=66, velocity=90, time=1),
    Message('note_on', channel=4, note=66, velocity=0, time=29),
    Message('note_on', channel=4, note=71, velocity=90, time=1),
    Message('note_on', channel=4, note=71, velocity=0, time=29),
    Message('note_on', channel=4, note=71, velocity=90, time=1),
    Message('note_on', channel=4, note=71, velocity=0, time=29),
    Message('note_on', channel=4, note=66, velocity=90, time=1),
    Message('note_on', channel=4, note=66, velocity=0, time=29),
    Message('note_on', channel=4, note=66, velocity=90, time=1),
    Message('note_on', channel=4, note=66, velocity=0, time=29),
    Message('note_on', channel=4, note=66, velocity=90, time=1),
    Message('note_on', channel=4, note=66, velocity=0, time=29),
    Message('note_on', channel=4, note=66, velocity=90, time=1),
    Message('note_on', channel=4, note=66, velocity=0, time=19),
    Message('note_on', channel=4, note=64, velocity=90, time=1),
    Message('note_on', channel=4, note=64, velocity=0, time=19),
    Message('note_on', channel=4, note=62, velocity=90, time=1),
    Message('note_on', channel=4, note=62, velocity=0, time=19),
    Message('note_on', channel=4, note=64, velocity=90, time=1),
    Message('note_on', channel=4, note=64, velocity=0, time=29),
    Message('note_on', channel=4, note=62, velocity=90, time=1),
    Message('note_on', channel=4, note=62, velocity=0, time=29),
    Message('note_on', channel=4, note=66, velocity=90, time=1),
    Message('note_on', channel=4, note=66, velocity=0, time=239),
    Message('note_on', channel=4, note=76, velocity=90, time=1),
    Message('note_on', channel=4, note=76, velocity=0, time=29),
    Message('note_on', channel=4, note=78, velocity=90, time=1),
    Message('note_on', channel=4, note=78, velocity=0, time=29),
    Message('note_on', channel=4, note=52, velocity=90, time=171),
    Message('note_on', channel=4, note=52, velocity=0, time=4),
    Message('note_on', channel=4, note=57, velocity=90, time=1),
    Message('note_on', channel=4, note=57, velocity=0, time=4),
    Message('note_on', channel=4, note=62, velocity=90, time=1),
    Message('note_on', channel=4, note=62, velocity=0, time=4),
    Message('note_on', channel=4, note=69, velocity=90, time=1),
    Message('note_on', channel=4, note=69, velocity=0, time=84),
    Message('note_on', channel=4, note=66, velocity=90, time=1),
    Message('note_on', channel=4, note=66, velocity=0, time=29),
    Message('note_on', channel=4, note=64, velocity=90, time=1),
    Message('note_on', channel=4, note=64, velocity=0, time=29),
    Message('note_on', channel=4, note=66, velocity=90, time=1),
    Message('note_on', channel=4, note=66, velocity=0, time=29),
    Message('note_on', channel=4, note=62, velocity=90, time=1),
    Message('note_on', channel=4, note=62, velocity=0, time=59),
    Message('note_on', channel=4, note=59, velocity=90, time=1),
    Message('note_on', channel=4, note=59, velocity=0, time=59),
    Message('note_on', channel=4, note=69, velocity=90, time=1),
    Message('note_on', channel=4, note=69, velocity=0, time=29),
    Message('note_on', channel=4, note=71, velocity=90, time=1),
    Message('note_on', channel=4, note=71, velocity=0, time=29),
    Message('note_on', channel=4, note=71, velocity=90, time=1),
    Message('note_on', channel=4, note=71, velocity=0, time=59),
    Message('note_on', channel=4, note=69, velocity=90, time=1),
    Message('note_on', channel=4, note=69, velocity=0, time=29),
    Message('note_on', channel=4, note=66, velocity=90, time=1),
    Message('note_on', channel=4, note=66, velocity=0, time=29),
    Message('note_on', channel=4, note=69, velocity=90, time=1),
    Message('note_on', channel=4, note=69, velocity=0, time=29),
    Message('note_on', channel=4, note=71, velocity=90, time=1),
    Message('note_on', channel=4, note=71, velocity=0, time=29),
    Message('note_on', channel=4, note=74, velocity=90, time=1),
    Message('note_on', channel=4, note=74, velocity=0, time=29),
    Message('note_on', channel=4, note=69, velocity=90, time=1),
    Message('note_on', channel=4, note=69, velocity=0, time=29),
    Message('note_on', channel=4, note=71, velocity=90, time=1),
    Message('note_on', channel=4, note=71, velocity=0, time=29),
    Message('note_on', channel=4, note=70, velocity=90, time=1),
    Message('note_on', channel=4, note=70, velocity=0, time=29),
    Message('note_on', channel=4, note=69, velocity=90, time=1),
    Message('note_on', channel=4, note=69, velocity=0, time=29),
    Message('note_on', channel=4, note=68, velocity=90, time=1),
    Message('note_on', channel=4, note=68, velocity=0, time=179),
    Message('note_on', channel=4, note=69, velocity=90, time=31),
    Message('note_on', channel=4, note=69, velocity=0, time=59),
    Message('note_on', channel=4, note=71, velocity=90, time=1),
    Message('note_on', channel=4, note=71, velocity=0, time=59),
    Message('note_on', channel=4, note=71, velocity=90, time=1),
    Message('note_on', channel=4, note=71, velocity=0, time=59),
    Message('note_on', channel=4, note=71, velocity=90, time=1),
    Message('note_on', channel=4, note=71, velocity=0, time=59),
    Message('note_on', channel=4, note=76, velocity=90, time=1),
    Message('note_on', channel=4, note=76, velocity=0, time=29),
    Message('note_on', channel=4, note=74, velocity=90, time=1),
    Message('note_on', channel=4, note=74, velocity=0, time=29),
    Message('note_on', channel=4, note=76, velocity=90, time=1),
    Message('note_on', channel=4, note=76, velocity=0, time=29),
    Message('note_on', channel=4, note=78, velocity=90, time=1),
    Message('note_on', channel=4, note=78, velocity=0, time=29),
    Message('note_on', channel=4, note=81, velocity=90, time=1),
    Message('note_on', channel=4, note=81, velocity=0, time=29),
    Message('note_on', channel=4, note=78, velocity=90, time=1),
    Message('note_on', channel=4, note=78, velocity=0, time=29),
    Message('note_on', channel=4, note=76, velocity=90, time=1),
    Message('note_on', channel=4, note=76, velocity=0, time=29),
    Message('note_on', channel=4, note=74, velocity=90, time=1),
    Message('note_on', channel=4, note=74, velocity=0, time=29),
    Message('note_on', channel=4, note=76, velocity=90, time=1),
    Message('note_on', channel=4, note=76, velocity=0, time=29),
    Message('note_on', channel=4, note=74, velocity=90, time=1),
    Message('note_on', channel=4, note=74, velocity=0, time=29),
    Message('note_on', channel=4, note=78, velocity=90, time=1),
    Message('note_on', channel=4, note=78, velocity=0, time=29),
    Message('note_on', channel=4, note=79, velocity=90, time=1),
    Message('note_on', channel=4, note=79, velocity=0, time=29),
    Message('note_on', channel=4, note=80, velocity=90, time=1),
    Message('note_on', channel=4, note=80, velocity=0, time=29),
    Message('note_on', channel=4, note=81, velocity=90, time=1),
    Message('note_on', channel=4, note=81, velocity=0, time=29),
    Message('note_on', channel=4, note=83, velocity=90, time=1),
    Message('note_on', channel=4, note=83, velocity=0, time=29),
    Message('note_on', channel=4, note=78, velocity=90, time=1),
    Message('note_on', channel=4, note=78, velocity=0, time=59),
    Message('note_on', channel=4, note=76, velocity=90, time=1),
    Message('note_on', channel=4, note=76, velocity=0, time=29),
    Message('note_on', channel=4, note=74, velocity=90, time=1),
    Message('note_on', channel=4, note=74, velocity=0, time=119),
    Message('note_on', channel=4, note=76, velocity=90, time=1),
    Message('note_on', channel=4, note=76, velocity=0, time=29),
    Message('note_on', channel=4, note=76, velocity=90, time=61),
    Message('note_on', channel=4, note=76, velocity=0, time=14),
    Message('note_on', channel=4, note=74, velocity=90, time=1),
    Message('note_on', channel=4, note=74, velocity=0, time=14),
    Message('note_on', channel=4, note=76, velocity=90, time=1),
    Message('note_on', channel=4, note=76, velocity=0, time=29),
    Message('note_on', channel=4, note=78, velocity=90, time=1),
    Message('note_on', channel=4, note=78, velocity=0, time=59),
    Message('note_on', channel=4, note=81, velocity=90, time=1),
    Message('note_on', channel=4, note=81, velocity=0, time=59),
    Message('note_on', channel=4, note=81, velocity=90, time=1),
    Message('note_on', channel=4, note=81, velocity=0, time=29),
    Message('note_on', channel=4, note=78, velocity=90, time=1),
    Message('note_on', channel=4, note=78, velocity=0, time=29),
    Message('note_on', channel=4, note=76, velocity=90, time=1),
    Message('note_on', channel=4, note=76, velocity=0, time=29),
    Message('note_on', channel=4, note=78, velocity=90, time=1),
    Message('note_on', channel=4, note=78, velocity=0, time=119),
    Message('note_on', channel=4, note=78, velocity=90, time=1),
    Message('note_on', channel=4, note=78, velocity=0, time=29),
    Message('note_on', channel=4, note=76, velocity=90, time=1),
    Message('note_on', channel=4, note=76, velocity=0, time=29),
    Message('note_on', channel=4, note=74, velocity=90, time=1),
    Message('note_on', channel=4, note=74, velocity=0, time=59),
    Message('note_on', channel=4, note=76, velocity=90, time=1),
    Message('note_on', channel=4, note=76, velocity=0, time=29),
    Message('note_on', channel=4, note=78, velocity=90, time=1),
    Message('note_on', channel=4, note=78, velocity=0, time=59),
    Message('note_on', channel=4, note=81, velocity=90, time=1),
    Message('note_on', channel=4, note=81, velocity=0, time=59),
    Message('note_on', channel=4, note=81, velocity=90, time=1),
    Message('note_on', channel=4, note=81, velocity=0, time=29),
    Message('note_on', channel=4, note=78, velocity=90, time=1),
    Message('note_on', channel=4, note=78, velocity=0, time=29),
    Message('note_on', channel=4, note=76, velocity=90, time=1),
    Message('note_on', channel=4, note=76, velocity=0, time=29),
    Message('note_on', channel=4, note=78, velocity=90, time=1),
    Message('note_on', channel=4, note=78, velocity=0, time=119),
    Message('note_on', channel=4, note=78, velocity=90, time=1),
    Message('note_on', channel=4, note=74, velocity=90, time=0),
    Message('note_on', channel=4, note=78, velocity=0, time=29),
    Message('note_on', channel=4, note=74, velocity=0, time=0),
    Message('note_on', channel=4, note=73, velocity=90, time=1),
    Message('note_on', channel=4, note=76, velocity=90, time=0),
    Message('note_on', channel=4, note=73, velocity=0, time=29),
    Message('note_on', channel=4, note=76, velocity=0, time=0),
    Message('note_on', channel=4, note=74, velocity=90, time=1),
    Message('note_on', channel=4, note=71, velocity=90, time=0),
    Message('note_on', channel=4, note=74, velocity=0, time=59),
    Message('note_on', channel=4, note=71, velocity=0, time=0),
    Message('note_on', channel=4, note=83, velocity=90, time=1),
    Message('note_on', channel=4, note=74, velocity=90, time=0),
    Message('note_on', channel=4, note=74, velocity=0, time=234),
    Message('note_on', channel=4, note=83, velocity=0, time=5),
    Message('note_on', channel=4, note=74, velocity=90, time=1),
    Message('note_on', channel=4, note=74, velocity=0, time=29),
    Message('note_on', channel=4, note=74, velocity=90, time=1),
    Message('note_on', channel=4, note=74, velocity=0, time=29),
    Message('note_on', channel=4, note=74, velocity=90, time=1),
    Message('note_on', channel=4, note=74, velocity=0, time=29),
    Message('note_on', channel=4, note=74, velocity=90, time=1),
    Message('pitchwheel', channel=4, pitch=8191, time=28),
    Message('note_on', channel=4, note=74, velocity=0, time=1),
    Message('note_on', channel=4, note=64, velocity=90, time=1),
    Message('pitchwheel', channel=4, pitch=7936, time=5),
    Message('pitchwheel', channel=4, pitch=7552, time=1),
    Message('pitchwheel', channel=4, pitch=7168, time=1),
    Message('pitchwheel', channel=4, pitch=6784, time=1),
    Message('pitchwheel', channel=4, pitch=6400, time=1),
    Message('pitchwheel', channel=4, pitch=6016, time=1),
    Message('pitchwheel', channel=4, pitch=5632, time=1),
    Message('pitchwheel', channel=4, pitch=5248, time=1),
    Message('pitchwheel', channel=4, pitch=4864, time=1),
    Message('pitchwheel', channel=4, pitch=4480, time=1),
    Message('pitchwheel', channel=4, pitch=4096, time=1),
    Message('pitchwheel', channel=4, pitch=3712, time=1),
    Message('pitchwheel', channel=4, pitch=3328, time=1),
    Message('pitchwheel', channel=4, pitch=2944, time=1),
    Message('pitchwheel', channel=4, pitch=2560, time=1),
    Message('pitchwheel', channel=4, pitch=2176, time=1),
    Message('pitchwheel', channel=4, pitch=1792, time=1),
    Message('pitchwheel', channel=4, pitch=1408, time=1),
    Message('pitchwheel', channel=4, pitch=1024, time=1),
    Message('pitchwheel', channel=4, pitch=640, time=1),
    Message('pitchwheel', channel=4, pitch=256, time=1),
    Message('pitchwheel', channel=4, pitch=-256, time=1),
    Message('pitchwheel', channel=4, pitch=-640, time=1),
    Message('pitchwheel', channel=4, pitch=-1024, time=1),
    Message('pitchwheel', channel=4, pitch=-1408, time=1),
    Message('pitchwheel', channel=4, pitch=-1792, time=1),
    Message('pitchwheel', channel=4, pitch=-2176, time=1),
    Message('pitchwheel', channel=4, pitch=-2560, time=1),
    Message('pitchwheel', channel=4, pitch=-2944, time=1),
    Message('pitchwheel', channel=4, pitch=-3328, time=1),
    Message('pitchwheel', channel=4, pitch=-3712, time=1),
    Message('pitchwheel', channel=4, pitch=-4096, time=1),
    Message('pitchwheel', channel=4, pitch=-4480, time=1),
    Message('pitchwheel', channel=4, pitch=-4864, time=1),
    Message('pitchwheel', channel=4, pitch=-5248, time=1),
    Message('pitchwheel', channel=4, pitch=-5632, time=1),
    Message('pitchwheel', channel=4, pitch=-6016, time=1),
    Message('pitchwheel', channel=4, pitch=-6400, time=1),
    Message('pitchwheel', channel=4, pitch=-6784, time=1),
    Message('pitchwheel', channel=4, pitch=-7168, time=1),
    Message('pitchwheel', channel=4, pitch=-7552, time=1),
    Message('pitchwheel', channel=4, pitch=-8064, time=1),
    Message('pitchwheel', channel=4, pitch=0, time=12),
    Message('note_on', channel=4, note=64, velocity=0, time=1),
    Message('note_on', channel=4, note=59, velocity=90, time=1),
    Message('note_on', channel=4, note=59, velocity=0, time=29),
    Message('note_on', channel=4, note=58, velocity=90, time=1),
    Message('note_on', channel=4, note=58, velocity=0, time=29),
    Message('note_on', channel=4, note=70, velocity=90, time=1),
    Message('note_on', channel=4, note=70, velocity=0, time=479),
    Message('note_on', channel=4, note=78, velocity=90, time=1),
    Message('note_on', channel=4, note=78, velocity=0, time=89),
    Message('note_on', channel=4, note=77, velocity=90, time=1),
    Message('note_on', channel=4, note=77, velocity=0, time=29),
    Message('note_on', channel=4, note=76, velocity=90, time=1),
    Message('note_on', channel=4, note=76, velocity=0, time=29),
    Message('note_on', channel=4, note=76, velocity=90, time=1),
    Message('note_on', channel=4, note=76, velocity=0, time=29),
    Message('note_on', channel=4, note=76, velocity=90, time=1),
    Message('note_on', channel=4, note=76, velocity=0, time=29),
    Message('note_on', channel=4, note=76, velocity=90, time=1),
    Message('note_on', channel=4, note=76, velocity=0, time=29),
    Message('note_on', channel=4, note=76, velocity=90, time=1),
    Message('note_on', channel=4, note=76, velocity=0, time=29),
    Message('note_on', channel=4, note=76, velocity=90, time=1),
    Message('note_on', channel=4, note=76, velocity=0, time=29),
    Message('note_on', channel=4, note=76, velocity=90, time=1),
    Message('note_on', channel=4, note=76, velocity=0, time=29),
    Message('note_on', channel=4, note=76, velocity=90, time=1),
    Message('note_on', channel=4, note=76, velocity=0, time=29),
    Message('note_on', channel=4, note=76, velocity=90, time=1),
    Message('note_on', channel=4, note=76, velocity=0, time=19),
    Message('note_on', channel=4, note=74, velocity=90, time=1),
    Message('note_on', channel=4, note=74, velocity=0, time=19),
    Message('note_on', channel=4, note=71, velocity=90, time=1),
    Message('note_on', channel=4, note=71, velocity=0, time=19),
    Message('note_on', channel=4, note=76, velocity=90, time=1),
    Message('note_on', channel=4, note=76, velocity=0, time=29),
    Message('note_on', channel=4, note=75, velocity=90, time=1),
    Message('note_on', channel=4, note=75, velocity=0, time=29),
    Message('note_on', channel=4, note=71, velocity=90, time=1),
    Message('note_on', channel=4, note=71, velocity=0, time=119),
    Message('note_on', channel=4, note=69, velocity=90, time=1),
    Message('note_on', channel=4, note=69, velocity=0, time=29),
    Message('note_on', channel=4, note=66, velocity=90, time=1),
    Message('note_on', channel=4, note=66, velocity=0, time=29),
    Message('note_on', channel=4, note=64, velocity=90, time=1),
    Message('note_on', channel=4, note=64, velocity=0, time=29),
    Message('note_on', channel=4, note=62, velocity=90, time=1),
    Message('note_on', channel=4, note=62, velocity=0, time=29),
    Message('note_on', channel=4, note=64, velocity=90, time=1),
    Message('note_on', channel=4, note=64, velocity=0, time=29),
    Message('note_on', channel=4, note=66, velocity=90, time=1),
    Message('note_on', channel=4, note=66, velocity=0, time=29),
    Message('note_on', channel=4, note=69, velocity=90, time=1),
    Message('note_on', channel=4, note=69, velocity=0, time=89),
    Message('note_on', channel=4, note=62, velocity=90, time=1),
    Message('note_on', channel=4, note=62, velocity=0, time=29),
    Message('note_on', channel=4, note=64, velocity=90, time=1),
    Message('note_on', channel=4, note=69, velocity=90, time=0),
    Message('note_on', channel=4, note=64, velocity=0, time=29),
    Message('note_on', channel=4, note=69, velocity=0, time=0),
    Message('note_on', channel=4, note=71, velocity=90, time=1),
    Message('note_on', channel=4, note=66, velocity=90, time=0),
    Message('note_on', channel=4, note=71, velocity=0, time=29),
    Message('note_on', channel=4, note=66, velocity=0, time=0),
    Message('note_on', channel=4, note=71, velocity=90, time=1),
    Message('note_on', channel=4, note=74, velocity=90, time=0),
    Message('note_on', channel=4, note=71, velocity=0, time=29),
    Message('note_on', channel=4, note=74, velocity=0, time=0),
    Message('note_on', channel=4, note=66, velocity=90, time=1),
    Message('note_on', channel=4, note=69, velocity=90, time=0),
    Message('note_on', channel=4, note=66, velocity=0, time=29),
    Message('note_on', channel=4, note=69, velocity=0, time=0),
    Message('note_on', channel=4, note=73, velocity=90, time=1),
    Message('note_on', channel=4, note=69, velocity=90, time=0),
    Message('note_on', channel=4, note=73, velocity=0, time=29),
    Message('note_on', channel=4, note=69, velocity=0, time=0),
    Message('note_on', channel=4, note=64, velocity=90, time=1),
    Message('note_on', channel=4, note=67, velocity=90, time=0),
    Message('note_on', channel=4, note=64, velocity=0, time=29),
    Message('note_on', channel=4, note=67, velocity=0, time=0),
    Message('note_on', channel=4, note=71, velocity=90, time=1),
    Message('note_on', channel=4, note=66, velocity=90, time=0),
    Message('note_on', channel=4, note=71, velocity=0, time=29),
    Message('note_on', channel=4, note=66, velocity=0, time=0),
    Message('note_on', channel=4, note=66, velocity=90, time=1),
    Message('note_on', channel=4, note=62, velocity=90, time=0),
    Message('note_on', channel=4, note=66, velocity=0, time=29),
    Message('note_on', channel=4, note=62, velocity=0, time=0),
    Message('note_on', channel=4, note=69, velocity=90, time=1),
    Message('note_on', channel=4, note=64, velocity=90, time=0),
    Message('note_on', channel=4, note=69, velocity=0, time=29),
    Message('note_on', channel=4, note=64, velocity=0, time=0),
    Message('note_on', channel=4, note=64, velocity=90, time=1),
    Message('note_on', channel=4, note=59, velocity=90, time=0),
    Message('note_on', channel=4, note=64, velocity=0, time=29),
    Message('note_on', channel=4, note=59, velocity=0, time=0),
    Message('note_on', channel=4, note=67, velocity=90, time=1),
    Message('note_on', channel=4, note=62, velocity=90, time=0),
    Message('note_on', channel=4, note=67, velocity=0, time=29),
    Message('note_on', channel=4, note=62, velocity=0, time=0),
    Message('note_on', channel=4, note=57, velocity=90, time=1),
    Message('note_on', channel=4, note=54, velocity=90, time=0),
    Message('note_on', channel=4, note=57, velocity=0, time=29),
    Message('note_on', channel=4, note=54, velocity=0, time=0),
    Message('note_on', channel=4, note=62, velocity=90, time=1),
    Message('note_on', channel=4, note=57, velocity=90, time=0),
    Message('note_on', channel=4, note=62, velocity=0, time=29),
    Message('note_on', channel=4, note=57, velocity=0, time=0),
    Message('note_on', channel=4, note=57, velocity=90, time=1),
    Message('note_on', channel=4, note=54, velocity=90, time=0),
    Message('note_on', channel=4, note=57, velocity=0, time=29),
    Message('note_on', channel=4, note=54, velocity=0, time=0),
    Message('note_on', channel=4, note=55, velocity=90, time=1),
    Message('note_on', channel=4, note=52, velocity=90, time=0),
    Message('note_on', channel=4, note=55, velocity=0, time=29),
    Message('note_on', channel=4, note=52, velocity=0, time=0),
    Message('note_on', channel=4, note=54, velocity=90, time=1),
    Message('note_on', channel=4, note=50, velocity=90, time=0),
    Message('note_on', channel=4, note=54, velocity=0, time=29),
    Message('note_on', channel=4, note=50, velocity=0, time=0),
    Message('note_on', channel=4, note=55, velocity=90, time=1),
    Message('note_on', channel=4, note=52, velocity=90, time=0),
    Message('note_on', channel=4, note=55, velocity=0, time=29),
    Message('note_on', channel=4, note=52, velocity=0, time=0),
    Message('note_on', channel=4, note=57, velocity=90, time=1),
    Message('note_on', channel=4, note=54, velocity=90, time=0),
    Message('note_on', channel=4, note=57, velocity=0, time=29),
    Message('note_on', channel=4, note=54, velocity=0, time=0),
    Message('note_on', channel=4, note=57, velocity=90, time=1),
    Message('note_on', channel=4, note=57, velocity=0, time=59),
    Message('note_on', channel=4, note=78, velocity=90, time=1),
    Message('note_on', channel=4, note=71, velocity=90, time=0),
    Message('note_on', channel=4, note=78, velocity=0, time=59),
    Message('note_on', channel=4, note=71, velocity=0, time=0),
    Message('note_on', channel=4, note=76, velocity=90, time=1),
    Message('note_on', channel=4, note=69, velocity=90, time=0),
    Message('note_on', channel=4, note=76, velocity=0, time=29),
    Message('note_on', channel=4, note=69, velocity=0, time=0),
    Message('note_on', channel=4, note=74, velocity=90, time=1),
    Message('note_on', channel=4, note=66, velocity=90, time=0),
    Message('note_on', channel=4, note=74, velocity=0, time=29),
    Message('note_on', channel=4, note=66, velocity=0, time=0),
    Message('note_on', channel=4, note=69, velocity=90, time=1),
    Message('note_on', channel=4, note=66, velocity=90, time=0),
    Message('note_on', channel=4, note=69, velocity=0, time=29),
    Message('note_on', channel=4, note=66, velocity=0, time=0),
    Message('note_on', channel=4, note=67, velocity=90, time=1),
    Message('note_on', channel=4, note=64, velocity=90, time=0),
    Message('note_on', channel=4, note=67, velocity=0, time=29),
    Message('note_on', channel=4, note=64, velocity=0, time=0),
    Message('note_on', channel=4, note=66, velocity=90, time=1),
    Message('note_on', channel=4, note=62, velocity=90, time=0),
    Message('note_on', channel=4, note=66, velocity=0, time=179),
    Message('note_on', channel=4, note=62, velocity=0, time=0),
    Message('note_on', channel=4, note=66, velocity=90, time=1),
    Message('note_on', channel=4, note=62, velocity=90, time=0),
    Message('note_on', channel=4, note=66, velocity=0, time=59),
    Message('note_on', channel=4, note=62, velocity=0, time=0),
    Message('note_on', channel=4, note=67, velocity=90, time=1),
    Message('note_on', channel=4, note=64, velocity=90, time=0),
    Message('note_on', channel=4, note=67, velocity=0, time=179),
    Message('note_on', channel=4, note=64, velocity=0, time=0),
    Message('note_on', channel=4, note=67, velocity=90, time=1),
    Message('note_on', channel=4, note=64, velocity=90, time=0),
    Message('note_on', channel=4, note=67, velocity=0, time=59),
    Message('note_on', channel=4, note=64, velocity=0, time=0),
    Message('note_on', channel=4, note=69, velocity=90, time=1),
    Message('note_on', channel=4, note=66, velocity=90, time=0),
    Message('note_on', channel=4, note=69, velocity=0, time=119),
    Message('note_on', channel=4, note=66, velocity=0, time=0),
    Message('note_on', channel=4, note=71, velocity=90, time=1),
    Message('note_on', channel=4, note=67, velocity=90, time=0),
    Message('note_on', channel=4, note=71, velocity=0, time=119),
    Message('note_on', channel=4, note=67, velocity=0, time=0),
    Message('note_on', channel=4, note=70, velocity=90, time=1),
    Message('note_on', channel=4, note=66, velocity=90, time=0),
    Message('note_on', channel=4, note=70, velocity=0, time=179),
    Message('note_on', channel=4, note=66, velocity=0, time=0),
    Message('note_on', channel=4, note=70, velocity=90, time=1),
    Message('note_on', channel=4, note=73, velocity=90, time=0),
    Message('note_on', channel=4, note=70, velocity=0, time=59),
    Message('note_on', channel=4, note=73, velocity=0, time=0),
    Message('note_on', channel=4, note=74, velocity=90, time=1),
    Message('note_on', channel=4, note=71, velocity=90, time=0),
    Message('note_on', channel=4, note=74, velocity=0, time=119),
    Message('note_on', channel=4, note=71, velocity=0, time=0),
    Message('note_on', channel=4, note=76, velocity=90, time=1),
    Message('note_on', channel=4, note=73, velocity=90, time=0),
    Message('note_on', channel=4, note=76, velocity=0, time=119),
    Message('note_on', channel=4, note=73, velocity=0, time=0),
    Message('note_on', channel=4, note=78, velocity=90, time=1),
    Message('note_on', channel=4, note=74, velocity=90, time=0),
    Message('note_on', channel=4, note=78, velocity=0, time=29),
    Message('note_on', channel=4, note=74, velocity=0, time=0),
    Message('note_on', channel=4, note=74, velocity=90, time=1),
    Message('note_on', channel=4, note=71, velocity=90, time=0),
    Message('note_on', channel=4, note=74, velocity=0, time=29),
    Message('note_on', channel=4, note=71, velocity=0, time=0),
    Message('note_on', channel=4, note=71, velocity=90, time=1),
    Message('note_on', channel=4, note=66, velocity=90, time=0),
    Message('note_on', channel=4, note=71, velocity=0, time=29),
    Message('note_on', channel=4, note=66, velocity=0, time=0),
    Message('note_on', channel=4, note=78, velocity=90, time=1),
    Message('note_on', channel=4, note=74, velocity=90, time=0),
    Message('note_on', channel=4, note=78, velocity=0, time=29),
    Message('note_on', channel=4, note=74, velocity=0, time=0),
    Message('note_on', channel=4, note=74, velocity=90, time=1),
    Message('note_on', channel=4, note=71, velocity=90, time=0),
    Message('note_on', channel=4, note=74, velocity=0, time=29),
    Message('note_on', channel=4, note=71, velocity=0, time=0),
    Message('note_on', channel=4, note=71, velocity=90, time=1),
    Message('note_on', channel=4, note=66, velocity=90, time=0),
    Message('note_on', channel=4, note=71, velocity=0, time=29),
    Message('note_on', channel=4, note=66, velocity=0, time=0),
    Message('note_on', channel=4, note=78, velocity=90, time=1),
    Message('note_on', channel=4, note=74, velocity=90, time=0),
    Message('note_on', channel=4, note=78, velocity=0, time=29),
    Message('note_on', channel=4, note=74, velocity=0, time=0),
    Message('note_on', channel=4, note=74, velocity=90, time=1),
    Message('note_on', channel=4, note=71, velocity=90, time=0),
    Message('note_on', channel=4, note=74, velocity=0, time=29),
    Message('note_on', channel=4, note=71, velocity=0, time=0),
    Message('note_on', channel=4, note=71, velocity=90, time=1),
    Message('note_on', channel=4, note=66, velocity=90, time=0),
    Message('note_on', channel=4, note=71, velocity=0, time=29),
    Message('note_on', channel=4, note=66, velocity=0, time=0),
    Message('note_on', channel=4, note=78, velocity=90, time=1),
    Message('note_on', channel=4, note=74, velocity=90, time=0),
    Message('note_on', channel=4, note=78, velocity=0, time=29),
    Message('note_on', channel=4, note=74, velocity=0, time=0),
    Message('note_on', channel=4, note=71, velocity=90, time=1),
    Message('note_on', channel=4, note=74, velocity=90, time=0),
    Message('note_on', channel=4, note=71, velocity=0, time=29),
    Message('note_on', channel=4, note=74, velocity=0, time=0),
    Message('note_on', channel=4, note=71, velocity=90, time=1),
    Message('note_on', channel=4, note=66, velocity=90, time=0),
    Message('note_on', channel=4, note=71, velocity=0, time=29),
    Message('note_on', channel=4, note=66, velocity=0, time=0),
    Message('note_on', channel=4, note=74, velocity=90, time=1),
    Message('note_on', channel=4, note=78, velocity=90, time=0),
    Message('note_on', channel=4, note=74, velocity=0, time=29),
    Message('note_on', channel=4, note=78, velocity=0, time=0),
    Message('note_on', channel=4, note=71, velocity=90, time=1),
    Message('note_on', channel=4, note=74, velocity=90, time=0),
    Message('note_on', channel=4, note=71, velocity=0, time=29),
    Message('note_on', channel=4, note=74, velocity=0, time=0),
    Message('note_on', channel=4, note=71, velocity=90, time=1),
    Message('note_on', channel=4, note=66, velocity=90, time=0),
    Message('note_on', channel=4, note=71, velocity=0, time=59),
    Message('note_on', channel=4, note=66, velocity=0, time=0),
    Message('note_on', channel=4, note=73, velocity=90, time=1),
    Message('note_on', channel=4, note=76, velocity=90, time=0),
    Message('note_on', channel=4, note=73, velocity=0, time=29),
    Message('note_on', channel=4, note=76, velocity=0, time=0),
    Message('note_on', channel=4, note=70, velocity=90, time=1),
    Message('note_on', channel=4, note=73, velocity=90, time=0),
    Message('note_on', channel=4, note=70, velocity=0, time=29),
    Message('note_on', channel=4, note=73, velocity=0, time=0),
    Message('note_on', channel=4, note=70, velocity=90, time=1),
    Message('note_on', channel=4, note=66, velocity=90, time=0),
    Message('note_on', channel=4, note=70, velocity=0, time=29),
    Message('note_on', channel=4, note=66, velocity=0, time=0),
    Message('note_on', channel=4, note=73, velocity=90, time=1),
    Message('note_on', channel=4, note=76, velocity=90, time=0),
    Message('note_on', channel=4, note=73, velocity=0, time=29),
    Message('note_on', channel=4, note=76, velocity=0, time=0),
    Message('note_on', channel=4, note=70, velocity=90, time=1),
    Message('note_on', channel=4, note=73, velocity=90, time=0),
    Message('note_on', channel=4, note=70, velocity=0, time=29),
    Message('note_on', channel=4, note=73, velocity=0, time=0),
    Message('note_on', channel=4, note=70, velocity=90, time=1),
    Message('note_on', channel=4, note=66, velocity=90, time=0),
    Message('note_on', channel=4, note=70, velocity=0, time=29),
    Message('note_on', channel=4, note=66, velocity=0, time=0),
    Message('note_on', channel=4, note=73, velocity=90, time=1),
    Message('note_on', channel=4, note=76, velocity=90, time=0),
    Message('note_on', channel=4, note=73, velocity=0, time=29),
    Message('note_on', channel=4, note=76, velocity=0, time=0),
    Message('note_on', channel=4, note=70, velocity=90, time=1),
    Message('note_on', channel=4, note=73, velocity=90, time=0),
    Message('note_on', channel=4, note=70, velocity=0, time=29),
    Message('note_on', channel=4, note=73, velocity=0, time=0),
    Message('note_on', channel=4, note=82, velocity=90, time=1),
    Message('note_on', channel=4, note=78, velocity=90, time=0),
    Message('note_on', channel=4, note=82, velocity=0, time=239),
    Message('note_on', channel=4, note=78, velocity=0, time=0),
    Message('note_on', channel=4, note=73, velocity=90, time=1),
    Message('note_on', channel=4, note=76, velocity=90, time=0),
    Message('note_on', channel=4, note=73, velocity=0, time=29),
    Message('note_on', channel=4, note=76, velocity=0, time=0),
    Message('note_on', channel=4, note=73, velocity=90, time=1),
    Message('note_on', channel=4, note=69, velocity=90, time=0),
    Message('note_on', channel=4, note=73, velocity=0, time=29),
    Message('note_on', channel=4, note=69, velocity=0, time=0),
    Message('note_on', channel=4, note=69, velocity=90, time=1),
    Message('note_on', channel=4, note=64, velocity=90, time=0),
    Message('note_on', channel=4, note=69, velocity=0, time=29),
    Message('note_on', channel=4, note=64, velocity=0, time=0),
    Message('note_on', channel=4, note=76, velocity=90, time=1),
    Message('note_on', channel=4, note=73, velocity=90, time=0),
    Message('note_on', channel=4, note=76, velocity=0, time=29),
    Message('note_on', channel=4, note=73, velocity=0, time=0),
    Message('note_on', channel=4, note=73, velocity=90, time=1),
    Message('note_on', channel=4, note=69, velocity=90, time=0),
    Message('note_on', channel=4, note=73, velocity=0, time=29),
    Message('note_on', channel=4, note=69, velocity=0, time=0),
    Message('note_on', channel=4, note=69, velocity=90, time=1),
    Message('note_on', channel=4, note=64, velocity=90, time=0),
    Message('note_on', channel=4, note=69, velocity=0, time=29),
    Message('note_on', channel=4, note=64, velocity=0, time=0),
    Message('note_on', channel=4, note=76, velocity=90, time=1),
    Message('note_on', channel=4, note=73, velocity=90, time=0),
    Message('note_on', channel=4, note=76, velocity=0, time=29),
    Message('note_on', channel=4, note=73, velocity=0, time=0),
    Message('note_on', channel=4, note=73, velocity=90, time=1),
    Message('note_on', channel=4, note=69, velocity=90, time=0),
    Message('note_on', channel=4, note=73, velocity=0, time=29),
    Message('note_on', channel=4, note=69, velocity=0, time=0),
    Message('note_on', channel=4, note=69, velocity=90, time=1),
    Message('note_on', channel=4, note=64, velocity=90, time=0),
    Message('note_on', channel=4, note=69, velocity=0, time=29),
    Message('note_on', channel=4, note=64, velocity=0, time=0),
    Message('note_on', channel=4, note=76, velocity=90, time=1),
    Message('note_on', channel=4, note=73, velocity=90, time=0),
    Message('note_on', channel=4, note=76, velocity=0, time=29),
    Message('note_on', channel=4, note=73, velocity=0, time=0),
    Message('note_on', channel=4, note=73, velocity=90, time=1),
    Message('note_on', channel=4, note=69, velocity=90, time=0),
    Message('note_on', channel=4, note=73, velocity=0, time=29),
    Message('note_on', channel=4, note=69, velocity=0, time=0),
    Message('note_on', channel=4, note=69, velocity=90, time=1),
    Message('note_on', channel=4, note=64, velocity=90, time=0),
    Message('note_on', channel=4, note=69, velocity=0, time=29),
    Message('note_on', channel=4, note=64, velocity=0, time=0),
    Message('note_on', channel=4, note=76, velocity=90, time=1),
    Message('note_on', channel=4, note=73, velocity=90, time=0),
    Message('note_on', channel=4, note=76, velocity=0, time=29),
    Message('note_on', channel=4, note=73, velocity=0, time=0),
    Message('note_on', channel=4, note=69, velocity=90, time=1),
    Message('note_on', channel=4, note=73, velocity=90, time=0),
    Message('note_on', channel=4, note=69, velocity=0, time=29),
    Message('note_on', channel=4, note=73, velocity=0, time=0),
    Message('note_on', channel=4, note=69, velocity=90, time=1),
    Message('note_on', channel=4, note=64, velocity=90, time=0),
    Message('note_on', channel=4, note=69, velocity=0, time=59),
    Message('note_on', channel=4, note=64, velocity=0, time=0),
    Message('note_on', channel=4, note=74, velocity=90, time=1),
    Message('note_on', channel=4, note=71, velocity=90, time=0),
    Message('note_on', channel=4, note=74, velocity=0, time=29),
    Message('note_on', channel=4, note=71, velocity=0, time=0),
    Message('note_on', channel=4, note=71, velocity=90, time=1),
    Message('note_on', channel=4, note=68, velocity=90, time=0),
    Message('note_on', channel=4, note=71, velocity=0, time=29),
    Message('note_on', channel=4, note=68, velocity=0, time=0),
    Message('note_on', channel=4, note=68, velocity=90, time=1),
    Message('note_on', channel=4, note=64, velocity=90, time=0),
    Message('note_on', channel=4, note=68, velocity=0, time=29),
    Message('note_on', channel=4, note=64, velocity=0, time=0),
    Message('note_on', channel=4, note=74, velocity=90, time=1),
    Message('note_on', channel=4, note=71, velocity=90, time=0),
    Message('note_on', channel=4, note=74, velocity=0, time=29),
    Message('note_on', channel=4, note=71, velocity=0, time=0),
    Message('note_on', channel=4, note=71, velocity=90, time=1),
    Message('note_on', channel=4, note=68, velocity=90, time=0),
    Message('note_on', channel=4, note=71, velocity=0, time=29),
    Message('note_on', channel=4, note=68, velocity=0, time=0),
    Message('note_on', channel=4, note=68, velocity=90, time=1),
    Message('note_on', channel=4, note=64, velocity=90, time=0),
    Message('note_on', channel=4, note=68, velocity=0, time=29),
    Message('note_on', channel=4, note=64, velocity=0, time=0),
    Message('note_on', channel=4, note=74, velocity=90, time=1),
    Message('note_on', channel=4, note=71, velocity=90, time=0),
    Message('note_on', channel=4, note=74, velocity=0, time=29),
    Message('note_on', channel=4, note=71, velocity=0, time=0),
    Message('note_on', channel=4, note=71, velocity=90, time=1),
    Message('note_on', channel=4, note=68, velocity=90, time=0),
    Message('note_on', channel=4, note=71, velocity=0, time=29),
    Message('note_on', channel=4, note=68, velocity=0, time=0),
    Message('note_on', channel=4, note=80, velocity=90, time=1),
    Message('note_on', channel=4, note=76, velocity=90, time=0),
    Message('note_on', channel=4, note=80, velocity=0, time=239),
    Message('note_on', channel=4, note=76, velocity=0, time=0),
    Message('note_on', channel=4, note=74, velocity=90, time=1),
    Message('note_on', channel=4, note=71, velocity=90, time=0),
    Message('note_on', channel=4, note=74, velocity=0, time=29),
    Message('note_on', channel=4, note=71, velocity=0, time=0),
    Message('note_on', channel=4, note=71, velocity=90, time=1),
    Message('note_on', channel=4, note=67, velocity=90, time=0),
    Message('note_on', channel=4, note=71, velocity=0, time=29),
    Message('note_on', channel=4, note=67, velocity=0, time=0),
    Message('note_on', channel=4, note=62, velocity=90, time=1),
    Message('note_on', channel=4, note=67, velocity=90, time=0),
    Message('note_on', channel=4, note=62, velocity=0, time=29),
    Message('note_on', channel=4, note=67, velocity=0, time=0),
    Message('note_on', channel=4, note=74, velocity=90, time=1),
    Message('note_on', channel=4, note=71, velocity=90, time=0),
    Message('note_on', channel=4, note=74, velocity=0, time=29),
    Message('note_on', channel=4, note=71, velocity=0, time=0),
    Message('note_on', channel=4, note=71, velocity=90, time=1),
    Message('note_on', channel=4, note=67, velocity=90, time=0),
    Message('note_on', channel=4, note=71, velocity=0, time=29),
    Message('note_on', channel=4, note=67, velocity=0, time=0),
    Message('note_on', channel=4, note=67, velocity=90, time=1),
    Message('note_on', channel=4, note=62, velocity=90, time=0),
    Message('note_on', channel=4, note=67, velocity=0, time=29),
    Message('note_on', channel=4, note=62, velocity=0, time=0),
    Message('note_on', channel=4, note=74, velocity=90, time=1),
    Message('note_on', channel=4, note=71, velocity=90, time=0),
    Message('note_on', channel=4, note=74, velocity=0, time=29),
    Message('note_on', channel=4, note=71, velocity=0, time=0),
    Message('note_on', channel=4, note=71, velocity=90, time=1),
    Message('note_on', channel=4, note=67, velocity=90, time=0),
    Message('note_on', channel=4, note=71, velocity=0, time=29),
    Message('note_on', channel=4, note=67, velocity=0, time=0),
    Message('note_on', channel=4, note=67, velocity=90, time=1),
    Message('note_on', channel=4, note=62, velocity=90, time=0),
    Message('note_on', channel=4, note=67, velocity=0, time=29),
    Message('note_on', channel=4, note=62, velocity=0, time=0),
    Message('note_on', channel=4, note=74, velocity=90, time=1),
    Message('note_on', channel=4, note=71, velocity=90, time=0),
    Message('note_on', channel=4, note=74, velocity=0, time=29),
    Message('note_on', channel=4, note=71, velocity=0, time=0),
    Message('note_on', channel=4, note=71, velocity=90, time=1),
    Message('note_on', channel=4, note=67, velocity=90, time=0),
    Message('note_on', channel=4, note=71, velocity=0, time=29),
    Message('note_on', channel=4, note=67, velocity=0, time=0),
    Message('note_on', channel=4, note=67, velocity=90, time=1),
    Message('note_on', channel=4, note=62, velocity=90, time=0),
    Message('note_on', channel=4, note=67, velocity=0, time=29),
    Message('note_on', channel=4, note=62, velocity=0, time=0),
    Message('note_on', channel=4, note=74, velocity=90, time=1),
    Message('note_on', channel=4, note=71, velocity=90, time=0),
    Message('note_on', channel=4, note=74, velocity=0, time=29),
    Message('note_on', channel=4, note=71, velocity=0, time=0),
    Message('note_on', channel=4, note=71, velocity=90, time=1),
    Message('note_on', channel=4, note=67, velocity=90, time=0),
    Message('note_on', channel=4, note=71, velocity=0, time=29),
    Message('note_on', channel=4, note=67, velocity=0, time=0),
    Message('note_on', channel=4, note=67, velocity=90, time=1),
    Message('note_on', channel=4, note=62, velocity=90, time=0),
    Message('note_on', channel=4, note=67, velocity=0, time=59),
    Message('note_on', channel=4, note=62, velocity=0, time=0),
    Message('note_on', channel=4, note=69, velocity=90, time=1),
    Message('note_on', channel=4, note=74, velocity=90, time=0),
    Message('note_on', channel=4, note=69, velocity=0, time=29),
    Message('note_on', channel=4, note=74, velocity=0, time=0),
    Message('note_on', channel=4, note=69, velocity=90, time=1),
    Message('note_on', channel=4, note=66, velocity=90, time=0),
    Message('note_on', channel=4, note=69, velocity=0, time=29),
    Message('note_on', channel=4, note=66, velocity=0, time=0),
    Message('note_on', channel=4, note=62, velocity=90, time=1),
    Message('note_on', channel=4, note=66, velocity=90, time=0),
    Message('note_on', channel=4, note=62, velocity=0, time=29),
    Message('note_on', channel=4, note=66, velocity=0, time=0),
    Message('note_on', channel=4, note=69, velocity=90, time=1),
    Message('note_on', channel=4, note=74, velocity=90, time=0),
    Message('note_on', channel=4, note=69, velocity=0, time=29),
    Message('note_on', channel=4, note=74, velocity=0, time=0),
    Message('note_on', channel=4, note=69, velocity=90, time=1),
    Message('note_on', channel=4, note=66, velocity=90, time=0),
    Message('note_on', channel=4, note=69, velocity=0, time=29),
    Message('note_on', channel=4, note=66, velocity=0, time=0),
    Message('note_on', channel=4, note=62, velocity=90, time=1),
    Message('note_on', channel=4, note=66, velocity=90, time=0),
    Message('note_on', channel=4, note=62, velocity=0, time=29),
    Message('note_on', channel=4, note=66, velocity=0, time=0),
    Message('note_on', channel=4, note=69, velocity=90, time=1),
    Message('note_on', channel=4, note=74, velocity=90, time=0),
    Message('note_on', channel=4, note=69, velocity=0, time=29),
    Message('note_on', channel=4, note=74, velocity=0, time=0),
    Message('note_on', channel=4, note=71, velocity=90, time=1),
    Message('note_on', channel=4, note=66, velocity=90, time=0),
    Message('note_on', channel=4, note=71, velocity=0, time=29),
    Message('note_on', channel=4, note=66, velocity=0, time=0),
    Message('note_on', channel=4, note=74, velocity=90, time=1),
    Message('note_on', channel=4, note=78, velocity=90, time=0),
    Message('note_on', channel=4, note=74, velocity=0, time=239),
    Message('note_on', channel=4, note=78, velocity=0, time=0),
    Message('note_on', channel=4, note=67, velocity=90, time=1),
    Message('note_on', channel=4, note=71, velocity=90, time=0),
    Message('note_on', channel=4, note=67, velocity=0, time=29),
    Message('note_on', channel=4, note=71, velocity=0, time=0),
    Message('note_on', channel=4, note=67, velocity=90, time=1),
    Message('note_on', channel=4, note=64, velocity=90, time=0),
    Message('note_on', channel=4, note=67, velocity=0, time=29),
    Message('note_on', channel=4, note=64, velocity=0, time=0),
    Message('note_on', channel=4, note=59, velocity=90, time=1),
    Message('note_on', channel=4, note=64, velocity=90, time=0),
    Message('note_on', channel=4, note=59, velocity=0, time=29),
    Message('note_on', channel=4, note=64, velocity=0, time=0),
    Message('note_on', channel=4, note=67, velocity=90, time=1),
    Message('note_on', channel=4, note=71, velocity=90, time=0),
    Message('note_on', channel=4, note=67, velocity=0, time=29),
    Message('note_on', channel=4, note=71, velocity=0, time=0),
    Message('note_on', channel=4, note=67, velocity=90, time=1),
    Message('note_on', channel=4, note=64, velocity=90, time=0),
    Message('note_on', channel=4, note=67, velocity=0, time=29),
    Message('note_on', channel=4, note=64, velocity=0, time=0),
    Message('note_on', channel=4, note=59, velocity=90, time=1),
    Message('note_on', channel=4, note=64, velocity=90, time=0),
    Message('note_on', channel=4, note=59, velocity=0, time=29),
    Message('note_on', channel=4, note=64, velocity=0, time=0),
    Message('note_on', channel=4, note=71, velocity=90, time=1),
    Message('note_on', channel=4, note=67, velocity=90, time=0),
    Message('note_on', channel=4, note=71, velocity=0, time=29),
    Message('note_on', channel=4, note=67, velocity=0, time=0),
    Message('note_on', channel=4, note=67, velocity=90, time=1),
    Message('note_on', channel=4, note=64, velocity=90, time=0),
    Message('note_on', channel=4, note=67, velocity=0, time=29),
    Message('note_on', channel=4, note=64, velocity=0, time=0),
    Message('note_on', channel=4, note=64, velocity=90, time=1),
    Message('note_on', channel=4, note=59, velocity=90, time=0),
    Message('note_on', channel=4, note=64, velocity=0, time=29),
    Message('note_on', channel=4, note=59, velocity=0, time=0),
    Message('note_on', channel=4, note=71, velocity=90, time=1),
    Message('note_on', channel=4, note=67, velocity=90, time=0),
    Message('note_on', channel=4, note=71, velocity=0, time=29),
    Message('note_on', channel=4, note=67, velocity=0, time=0),
    Message('note_on', channel=4, note=67, velocity=90, time=1),
    Message('note_on', channel=4, note=64, velocity=90, time=0),
    Message('note_on', channel=4, note=67, velocity=0, time=29),
    Message('note_on', channel=4, note=64, velocity=0, time=0),
    Message('note_on', channel=4, note=64, velocity=90, time=1),
    Message('note_on', channel=4, note=59, velocity=90, time=0),
    Message('note_on', channel=4, note=64, velocity=0, time=29),
    Message('note_on', channel=4, note=59, velocity=0, time=0),
    Message('note_on', channel=4, note=71, velocity=90, time=1),
    Message('note_on', channel=4, note=67, velocity=90, time=0),
    Message('note_on', channel=4, note=71, velocity=0, time=29),
    Message('note_on', channel=4, note=67, velocity=0, time=0),
    Message('note_on', channel=4, note=67, velocity=90, time=1),
    Message('note_on', channel=4, note=64, velocity=90, time=0),
    Message('note_on', channel=4, note=67, velocity=0, time=29),
    Message('note_on', channel=4, note=64, velocity=0, time=0),
    Message('note_on', channel=4, note=64, velocity=90, time=1),
    Message('note_on', channel=4, note=59, velocity=90, time=0),
    Message('note_on', channel=4, note=64, velocity=0, time=59),
    Message('note_on', channel=4, note=59, velocity=0, time=0),
    Message('note_on', channel=4, note=73, velocity=90, time=1),
    Message('note_on', channel=4, note=70, velocity=90, time=0),
    Message('note_on', channel=4, note=73, velocity=0, time=29),
    Message('note_on', channel=4, note=70, velocity=0, time=0),
    Message('note_on', channel=4, note=70, velocity=90, time=1),
    Message('note_on', channel=4, note=66, velocity=90, time=0),
    Message('note_on', channel=4, note=70, velocity=0, time=29),
    Message('note_on', channel=4, note=66, velocity=0, time=0),
    Message('note_on', channel=4, note=66, velocity=90, time=1),
    Message('note_on', channel=4, note=61, velocity=90, time=0),
    Message('note_on', channel=4, note=66, velocity=0, time=29),
    Message('note_on', channel=4, note=61, velocity=0, time=0),
    Message('note_on', channel=4, note=70, velocity=90, time=1),
    Message('note_on', channel=4, note=73, velocity=90, time=0),
    Message('note_on', channel=4, note=70, velocity=0, time=29),
    Message('note_on', channel=4, note=73, velocity=0, time=0),
    Message('note_on', channel=4, note=70, velocity=90, time=1),
    Message('note_on', channel=4, note=66, velocity=90, time=0),
    Message('note_on', channel=4, note=70, velocity=0, time=29),
    Message('note_on', channel=4, note=66, velocity=0, time=0),
    Message('note_on', channel=4, note=66, velocity=90, time=1),
    Message('note_on', channel=4, note=61, velocity=90, time=0),
    Message('note_on', channel=4, note=66, velocity=0, time=29),
    Message('note_on', channel=4, note=61, velocity=0, time=0),
    Message('note_on', channel=4, note=73, velocity=90, time=1),
    Message('note_on', channel=4, note=70, velocity=90, time=0),
    Message('note_on', channel=4, note=73, velocity=0, time=29),
    Message('note_on', channel=4, note=70, velocity=0, time=0),
    Message('note_on', channel=4, note=70, velocity=90, time=1),
    Message('note_on', channel=4, note=66, velocity=90, time=0),
    Message('note_on', channel=4, note=70, velocity=0, time=29),
    Message('note_on', channel=4, note=66, velocity=0, time=0),
    Message('note_on', channel=4, note=78, velocity=90, time=1),
    Message('note_on', channel=4, note=73, velocity=90, time=0),
    Message('note_on', channel=4, note=78, velocity=0, time=239),
    Message('note_on', channel=4, note=73, velocity=0, time=0),
    Message('note_on', channel=4, note=78, velocity=90, time=1),
    Message('note_on', channel=4, note=74, velocity=90, time=0),
    Message('note_on', channel=4, note=78, velocity=0, time=29),
    Message('note_on', channel=4, note=74, velocity=0, time=0),
    Message('note_on', channel=4, note=74, velocity=90, time=1),
    Message('note_on', channel=4, note=71, velocity=90, time=0),
    Message('note_on', channel=4, note=74, velocity=0, time=29),
    Message('note_on', channel=4, note=71, velocity=0, time=0),
    Message('note_on', channel=4, note=71, velocity=90, time=1),
    Message('note_on', channel=4, note=66, velocity=90, time=0),
    Message('note_on', channel=4, note=71, velocity=0, time=29),
    Message('note_on', channel=4, note=66, velocity=0, time=0),
    Message('note_on', channel=4, note=78, velocity=90, time=1),
    Message('note_on', channel=4, note=74, velocity=90, time=0),
    Message('note_on', channel=4, note=78, velocity=0, time=29),
    Message('note_on', channel=4, note=74, velocity=0, time=0),
    Message('note_on', channel=4, note=74, velocity=90, time=1),
    Message('note_on', channel=4, note=71, velocity=90, time=0),
    Message('control_change', channel=4, control=7, value=90, time=0),
    Message('note_on', channel=4, note=74, velocity=0, time=29),
    Message('note_on', channel=4, note=71, velocity=0, time=0),
    Message('note_on', channel=4, note=66, velocity=90, time=1),
    Message('note_on', channel=4, note=71, velocity=90, time=0),
    Message('note_on', channel=4, note=66, velocity=0, time=29),
    Message('note_on', channel=4, note=71, velocity=0, time=0),
    Message('note_on', channel=4, note=78, velocity=90, time=1),
    Message('note_on', channel=4, note=74, velocity=90, time=0),
    Message('note_on', channel=4, note=78, velocity=0, time=29),
    Message('note_on', channel=4, note=74, velocity=0, time=0),
    Message('note_on', channel=4, note=74, velocity=90, time=1),
    Message('note_on', channel=4, note=71, velocity=90, time=0),
    Message('note_on', channel=4, note=74, velocity=0, time=29),
    Message('note_on', channel=4, note=71, velocity=0, time=0),
    Message('note_on', channel=4, note=71, velocity=90, time=1),
    Message('control_change', channel=4, control=7, value=87, time=0),
    Message('note_on', channel=4, note=66, velocity=90, time=0),
    Message('note_on', channel=4, note=71, velocity=0, time=29),
    Message('note_on', channel=4, note=66, velocity=0, time=0),
    Message('note_on', channel=4, note=74, velocity=90, time=1),
    Message('note_on', channel=4, note=78, velocity=90, time=0),
    Message('note_on', channel=4, note=74, velocity=0, time=29),
    Message('note_on', channel=4, note=78, velocity=0, time=0),
    Message('note_on', channel=4, note=74, velocity=90, time=1),
    Message('note_on', channel=4, note=71, velocity=90, time=0),
    Message('note_on', channel=4, note=74, velocity=0, time=29),
    Message('note_on', channel=4, note=71, velocity=0, time=0),
    Message('note_on', channel=4, note=71, velocity=90, time=1),
    Message('note_on', channel=4, note=66, velocity=90, time=0),
    Message('note_on', channel=4, note=71, velocity=0, time=29),
    Message('note_on', channel=4, note=66, velocity=0, time=0),
    Message('note_on', channel=4, note=74, velocity=90, time=1),
    Message('note_on', channel=4, note=78, velocity=90, time=0),
    Message('control_change', channel=4, control=7, value=84, time=0),
    Message('note_on', channel=4, note=74, velocity=0, time=29),
    Message('note_on', channel=4, note=78, velocity=0, time=0),
    Message('note_on', channel=4, note=71, velocity=90, time=1),
    Message('note_on', channel=4, note=74, velocity=90, time=0),
    Message('note_on', channel=4, note=71, velocity=0, time=29),
    Message('note_on', channel=4, note=74, velocity=0, time=0),
    Message('note_on', channel=4, note=71, velocity=90, time=1),
    Message('note_on', channel=4, note=66, velocity=90, time=0),
    Message('note_on', channel=4, note=66, velocity=0, time=55),
    Message('note_on', channel=4, note=71, velocity=0, time=4),
    Message('note_on', channel=4, note=73, velocity=90, time=1),
    Message('note_on', channel=4, note=76, velocity=90, time=0),
    Message('control_change', channel=4, control=7, value=81, time=0),
    Message('note_on', channel=4, note=73, velocity=0, time=29),
    Message('note_on', channel=4, note=76, velocity=0, time=0),
    Message('note_on', channel=4, note=70, velocity=90, time=1),
    Message('note_on', channel=4, note=73, velocity=90, time=0),
    Message('note_on', channel=4, note=70, velocity=0, time=29),
    Message('note_on', channel=4, note=73, velocity=0, time=0),
    Message('note_on', channel=4, note=70, velocity=90, time=1),
    Message('note_on', channel=4, note=66, velocity=90, time=0),
    Message('note_on', channel=4, note=70, velocity=0, time=29),
    Message('note_on', channel=4, note=66, velocity=0, time=0),
    Message('note_on', channel=4, note=76, velocity=90, time=1),
    Message('note_on', channel=4, note=73, velocity=90, time=0),
    Message('note_on', channel=4, note=76, velocity=0, time=29),
    Message('note_on', channel=4, note=73, velocity=0, time=0),
    Message('note_on', channel=4, note=70, velocity=90, time=1),
    Message('note_on', channel=4, note=73, velocity=90, time=0),
    Message('control_change', channel=4, control=7, value=78, time=0),
    Message('note_on', channel=4, note=70, velocity=0, time=29),
    Message('note_on', channel=4, note=73, velocity=0, time=0),
    Message('note_on', channel=4, note=66, velocity=90, time=1),
    Message('note_on', channel=4, note=70, velocity=90, time=0),
    Message('note_on', channel=4, note=66, velocity=0, time=29),
    Message('note_on', channel=4, note=70, velocity=0, time=0),
    Message('note_on', channel=4, note=76, velocity=90, time=1),
    Message('note_on', channel=4, note=73, velocity=90, time=0),
    Message('note_on', channel=4, note=76, velocity=0, time=29),
    Message('note_on', channel=4, note=73, velocity=0, time=0),
    Message('note_on', channel=4, note=73, velocity=90, time=1),
    Message('note_on', channel=4, note=70, velocity=90, time=0),
    Message('note_on', channel=4, note=73, velocity=0, time=29),
    Message('note_on', channel=4, note=70, velocity=0, time=0),
    Message('note_on', channel=4, note=82, velocity=90, time=1),
    Message('note_on', channel=4, note=78, velocity=90, time=0),
    Message('control_change', channel=4, control=7, value=75, time=0),
    Message('control_change', channel=4, control=7, value=72, time=120),
    Message('note_on', channel=4, note=82, velocity=0, time=119),
    Message('note_on', channel=4, note=78, velocity=0, time=0),
    Message('note_on', channel=4, note=73, velocity=90, time=1),
    Message('note_on', channel=4, note=76, velocity=90, time=0),
    Message('control_change', channel=4, control=7, value=69, time=0),
    Message('note_on', channel=4, note=73, velocity=0, time=29),
    Message('note_on', channel=4, note=76, velocity=0, time=0),
    Message('note_on', channel=4, note=69, velocity=90, time=1),
    Message('note_on', channel=4, note=73, velocity=90, time=0),
    Message('note_on', channel=4, note=69, velocity=0, time=29),
    Message('note_on', channel=4, note=73, velocity=0, time=0),
    Message('note_on', channel=4, note=69, velocity=90, time=1),
    Message('note_on', channel=4, note=64, velocity=90, time=0),
    Message('note_on', channel=4, note=69, velocity=0, time=29),
    Message('note_on', channel=4, note=64, velocity=0, time=0),
    Message('note_on', channel=4, note=76, velocity=90, time=1),
    Message('note_on', channel=4, note=73, velocity=90, time=0),
    Message('note_on', channel=4, note=76, velocity=0, time=29),
    Message('note_on', channel=4, note=73, velocity=0, time=0),
    Message('note_on', channel=4, note=69, velocity=90, time=1),
    Message('note_on', channel=4, note=73, velocity=90, time=0),
    Message('control_change', channel=4, control=7, value=66, time=0),
    Message('note_on', channel=4, note=69, velocity=0, time=29),
    Message('note_on', channel=4, note=73, velocity=0, time=0),
    Message('note_on', channel=4, note=64, velocity=90, time=1),
    Message('note_on', channel=4, note=69, velocity=90, time=0),
    Message('note_on', channel=4, note=64, velocity=0, time=29),
    Message('note_on', channel=4, note=69, velocity=0, time=0),
    Message('note_on', channel=4, note=73, velocity=90, time=1),
    Message('note_on', channel=4, note=76, velocity=90, time=0),
    Message('note_on', channel=4, note=73, velocity=0, time=29),
    Message('note_on', channel=4, note=76, velocity=0, time=0),
    Message('note_on', channel=4, note=69, velocity=90, time=1),
    Message('note_on', channel=4, note=73, velocity=90, time=0),
    Message('note_on', channel=4, note=69, velocity=0, time=29),
    Message('note_on', channel=4, note=73, velocity=0, time=0),
    Message('note_on', channel=4, note=64, velocity=90, time=1),
    Message('note_on', channel=4, note=69, velocity=90, time=0),
    Message('control_change', channel=4, control=7, value=63, time=0),
    Message('note_on', channel=4, note=64, velocity=0, time=29),
    Message('note_on', channel=4, note=69, velocity=0, time=0),
    Message('note_on', channel=4, note=76, velocity=90, time=1),
    Message('note_on', channel=4, note=73, velocity=90, time=0),
    Message('note_on', channel=4, note=76, velocity=0, time=29),
    Message('note_on', channel=4, note=73, velocity=0, time=0),
    Message('note_on', channel=4, note=69, velocity=90, time=1),
    Message('note_on', channel=4, note=73, velocity=90, time=0),
    Message('note_on', channel=4, note=69, velocity=0, time=29),
    Message('note_on', channel=4, note=73, velocity=0, time=0),
    Message('note_on', channel=4, note=69, velocity=90, time=1),
    Message('note_on', channel=4, note=64, velocity=90, time=0),
    Message('note_on', channel=4, note=69, velocity=0, time=29),
    Message('note_on', channel=4, note=64, velocity=0, time=0),
    Message('note_on', channel=4, note=76, velocity=90, time=1),
    Message('note_on', channel=4, note=73, velocity=90, time=0),
    Message('control_change', channel=4, control=7, value=60, time=0),
    Message('note_on', channel=4, note=76, velocity=0, time=29),
    Message('note_on', channel=4, note=73, velocity=0, time=0),
    Message('note_on', channel=4, note=69, velocity=90, time=1),
    Message('note_on', channel=4, note=73, velocity=90, time=0),
    Message('note_on', channel=4, note=69, velocity=0, time=29),
    Message('note_on', channel=4, note=73, velocity=0, time=0),
    Message('note_on', channel=4, note=69, velocity=90, time=1),
    Message('note_on', channel=4, note=64, velocity=90, time=0),
    Message('note_on', channel=4, note=69, velocity=0, time=59),
    Message('note_on', channel=4, note=64, velocity=0, time=0),
    Message('note_on', channel=4, note=71, velocity=90, time=1),
    Message('control_change', channel=4, control=7, value=57, time=0),
    Message('note_on', channel=4, note=74, velocity=90, time=0),
    Message('note_on', channel=4, note=71, velocity=0, time=29),
    Message('note_on', channel=4, note=74, velocity=0, time=0),
    Message('note_on', channel=4, note=71, velocity=90, time=1),
    Message('note_on', channel=4, note=68, velocity=90, time=0),
    Message('note_on', channel=4, note=71, velocity=0, time=29),
    Message('note_on', channel=4, note=68, velocity=0, time=0),
    Message('note_on', channel=4, note=64, velocity=90, time=1),
    Message('note_on', channel=4, note=68, velocity=90, time=0),
    Message('note_on', channel=4, note=64, velocity=0, time=29),
    Message('note_on', channel=4, note=68, velocity=0, time=0),
    Message('note_on', channel=4, note=74, velocity=90, time=1),
    Message('note_on', channel=4, note=71, velocity=90, time=0),
    Message('note_on', channel=4, note=74, velocity=0, time=29),
    Message('note_on', channel=4, note=71, velocity=0, time=0),
    Message('note_on', channel=4, note=71, velocity=90, time=1),
    Message('control_change', channel=4, control=7, value=54, time=0),
    Message('note_on', channel=4, note=68, velocity=90, time=0),
    Message('note_on', channel=4, note=71, velocity=0, time=29),
    Message('note_on', channel=4, note=68, velocity=0, time=0),
    Message('note_on', channel=4, note=68, velocity=90, time=1),
    Message('note_on', channel=4, note=64, velocity=90, time=0),
    Message('note_on', channel=4, note=68, velocity=0, time=29),
    Message('note_on', channel=4, note=64, velocity=0, time=0),
    Message('note_on', channel=4, note=71, velocity=90, time=1),
    Message('note_on', channel=4, note=74, velocity=90, time=0),
    Message('note_on', channel=4, note=71, velocity=0, time=29),
    Message('note_on', channel=4, note=74, velocity=0, time=0),
    Message('note_on', channel=4, note=71, velocity=90, time=1),
    Message('note_on', channel=4, note=68, velocity=90, time=0),
    Message('note_on', channel=4, note=71, velocity=0, time=29),
    Message('note_on', channel=4, note=68, velocity=0, time=0),
    Message('control_change', channel=4, control=7, value=51, time=1),
    Message('note_on', channel=4, note=80, velocity=90, time=0),
    Message('note_on', channel=4, note=76, velocity=90, time=0),
    Message('control_change', channel=4, control=7, value=48, time=120),
    Message('note_on', channel=4, note=80, velocity=0, time=119),
    Message('note_on', channel=4, note=76, velocity=0, time=0),
    Message('control_change', channel=4, control=7, value=45, time=1),
    Message('note_on', channel=4, note=74, velocity=90, time=0),
    Message('note_on', channel=4, note=71, velocity=90, time=0),
    Message('note_on', channel=4, note=74, velocity=0, time=29),
    Message('note_on', channel=4, note=71, velocity=0, time=0),
    Message('note_on', channel=4, note=71, velocity=90, time=1),
    Message('note_on', channel=4, note=67, velocity=90, time=0),
    Message('note_on', channel=4, note=71, velocity=0, time=29),
    Message('note_on', channel=4, note=67, velocity=0, time=0),
    Message('note_on', channel=4, note=67, velocity=90, time=1),
    Message('note_on', channel=4, note=62, velocity=90, time=0),
    Message('note_on', channel=4, note=67, velocity=0, time=29),
    Message('note_on', channel=4, note=62, velocity=0, time=0),
    Message('note_on', channel=4, note=74, velocity=90, time=1),
    Message('note_on', channel=4, note=71, velocity=90, time=0),
    Message('note_on', channel=4, note=74, velocity=0, time=29),
    Message('note_on', channel=4, note=71, velocity=0, time=0),
    Message('control_change', channel=4, control=7, value=42, time=1),
    Message('note_on', channel=4, note=67, velocity=90, time=0),
    Message('note_on', channel=4, note=71, velocity=90, time=0),
    Message('note_on', channel=4, note=67, velocity=0, time=29),
    Message('note_on', channel=4, note=71, velocity=0, time=0),
    Message('note_on', channel=4, note=67, velocity=90, time=1),
    Message('note_on', channel=4, note=62, velocity=90, time=0),
    Message('note_on', channel=4, note=67, velocity=0, time=29),
    Message('note_on', channel=4, note=62, velocity=0, time=0),
    Message('note_on', channel=4, note=74, velocity=90, time=1),
    Message('note_on', channel=4, note=71, velocity=90, time=0),
    Message('note_on', channel=4, note=74, velocity=0, time=29),
    Message('note_on', channel=4, note=71, velocity=0, time=0),
    Message('note_on', channel=4, note=71, velocity=90, time=1),
    Message('note_on', channel=4, note=67, velocity=90, time=0),
    Message('note_on', channel=4, note=71, velocity=0, time=29),
    Message('note_on', channel=4, note=67, velocity=0, time=0),
    Message('control_change', channel=4, control=7, value=39, time=1),
    Message('note_on', channel=4, note=67, velocity=90, time=0),
    Message('note_on', channel=4, note=62, velocity=90, time=0),
    Message('note_on', channel=4, note=67, velocity=0, time=29),
    Message('note_on', channel=4, note=62, velocity=0, time=0),
    Message('note_on', channel=4, note=71, velocity=90, time=1),
    Message('note_on', channel=4, note=74, velocity=90, time=0),
    Message('note_on', channel=4, note=71, velocity=0, time=29),
    Message('note_on', channel=4, note=74, velocity=0, time=0),
    Message('note_on', channel=4, note=71, velocity=90, time=1),
    Message('note_on', channel=4, note=67, velocity=90, time=0),
    Message('note_on', channel=4, note=71, velocity=0, time=29),
    Message('note_on', channel=4, note=67, velocity=0, time=0),
    Message('note_on', channel=4, note=67, velocity=90, time=1),
    Message('note_on', channel=4, note=62, velocity=90, time=0),
    Message('note_on', channel=4, note=67, velocity=0, time=29),
    Message('note_on', channel=4, note=62, velocity=0, time=0),
    Message('note_on', channel=4, note=74, velocity=90, time=1),
    Message('note_on', channel=4, note=71, velocity=90, time=0),
    Message('control_change', channel=4, control=7, value=36, time=0),
    Message('note_on', channel=4, note=74, velocity=0, time=29),
    Message('note_on', channel=4, note=71, velocity=0, time=0),
    Message('note_on', channel=4, note=71, velocity=90, time=1),
    Message('note_on', channel=4, note=67, velocity=90, time=0),
    Message('note_on', channel=4, note=71, velocity=0, time=29),
    Message('note_on', channel=4, note=67, velocity=0, time=0),
    Message('note_on', channel=4, note=67, velocity=90, time=1),
    Message('note_on', channel=4, note=62, velocity=90, time=0),
    Message('note_on', channel=4, note=67, velocity=0, time=59),
    Message('note_on', channel=4, note=62, velocity=0, time=0),
    Message('control_change', channel=4, control=7, value=33, time=1),
    Message('note_on', channel=4, note=74, velocity=90, time=0),
    Message('note_on', channel=4, note=69, velocity=90, time=0),
    Message('note_on', channel=4, note=74, velocity=0, time=29),
    Message('note_on', channel=4, note=69, velocity=0, time=0),
    Message('note_on', channel=4, note=66, velocity=90, time=1),
    Message('note_on', channel=4, note=69, velocity=90, time=0),
    Message('note_on', channel=4, note=66, velocity=0, time=29),
    Message('note_on', channel=4, note=69, velocity=0, time=0),
    Message('note_on', channel=4, note=62, velocity=90, time=1),
    Message('note_on', channel=4, note=66, velocity=90, time=0),
    Message('note_on', channel=4, note=62, velocity=0, time=29),
    Message('note_on', channel=4, note=66, velocity=0, time=0),
    Message('note_on', channel=4, note=74, velocity=90, time=1),
    Message('note_on', channel=4, note=69, velocity=90, time=0),
    Message('note_on', channel=4, note=74, velocity=0, time=29),
    Message('note_on', channel=4, note=69, velocity=0, time=0),
    Message('note_on', channel=4, note=66, velocity=90, time=1),
    Message('note_on', channel=4, note=69, velocity=90, time=0),
    Message('control_change', channel=4, control=7, value=30, time=0),
    Message('note_on', channel=4, note=66, velocity=0, time=29),
    Message('note_on', channel=4, note=69, velocity=0, time=0),
    Message('note_on', channel=4, note=66, velocity=90, time=1),
    Message('note_on', channel=4, note=62, velocity=90, time=0),
    Message('note_on', channel=4, note=66, velocity=0, time=29),
    Message('note_on', channel=4, note=62, velocity=0, time=0),
    Message('note_on', channel=4, note=69, velocity=90, time=1),
    Message('note_on', channel=4, note=74, velocity=90, time=0),
    Message('note_on', channel=4, note=69, velocity=0, time=29),
    Message('note_on', channel=4, note=74, velocity=0, time=0),
    Message('note_on', channel=4, note=71, velocity=90, time=1),
    Message('note_on', channel=4, note=66, velocity=90, time=0),
    Message('note_on', channel=4, note=71, velocity=0, time=29),
    Message('note_on', channel=4, note=66, velocity=0, time=0),
    Message('control_change', channel=4, control=7, value=27, time=1),
    Message('note_on', channel=4, note=78, velocity=90, time=0),
    Message('note_on', channel=4, note=74, velocity=90, time=0),
    Message('control_change', channel=4, control=7, value=24, time=120),
    Message('note_on', channel=4, note=78, velocity=0, time=119),
    Message('note_on', channel=4, note=74, velocity=0, time=0),
    Message('control_change', channel=4, control=7, value=21, time=1),
    Message('note_on', channel=4, note=67, velocity=90, time=0),
    Message('note_on', channel=4, note=71, velocity=90, time=0),
    Message('note_on', channel=4, note=67, velocity=0, time=29),
    Message('note_on', channel=4, note=71, velocity=0, time=0),
    Message('note_on', channel=4, note=64, velocity=90, time=1),
    Message('note_on', channel=4, note=67, velocity=90, time=0),
    Message('note_on', channel=4, note=64, velocity=0, time=29),
    Message('note_on', channel=4, note=67, velocity=0, time=0),
    Message('note_on', channel=4, note=64, velocity=90, time=1),
    Message('note_on', channel=4, note=59, velocity=90, time=0),
    Message('note_on', channel=4, note=64, velocity=0, time=29),
    Message('note_on', channel=4, note=59, velocity=0, time=0),
    Message('note_on', channel=4, note=67, velocity=90, time=1),
    Message('note_on', channel=4, note=71, velocity=90, time=0),
    Message('note_on', channel=4, note=67, velocity=0, time=29),
    Message('note_on', channel=4, note=71, velocity=0, time=0),
    Message('control_change', channel=4, control=7, value=18, time=1),
    Message('note_on', channel=4, note=64, velocity=90, time=0),
    Message('note_on', channel=4, note=67, velocity=90, time=0),
    Message('note_on', channel=4, note=64, velocity=0, time=29),
    Message('note_on', channel=4, note=67, velocity=0, time=0),
    Message('note_on', channel=4, note=64, velocity=90, time=1),
    Message('note_on', channel=4, note=59, velocity=90, time=0),
    Message('note_on', channel=4, note=64, velocity=0, time=29),
    Message('note_on', channel=4, note=59, velocity=0, time=0),
    Message('note_on', channel=4, note=67, velocity=90, time=1),
    Message('note_on', channel=4, note=71, velocity=90, time=0),
    Message('note_on', channel=4, note=67, velocity=0, time=29),
    Message('note_on', channel=4, note=71, velocity=0, time=0),
    Message('note_on', channel=4, note=64, velocity=90, time=1),
    Message('note_on', channel=4, note=67, velocity=90, time=0),
    Message('note_on', channel=4, note=64, velocity=0, time=29),
    Message('note_on', channel=4, note=67, velocity=0, time=0),
    Message('note_on', channel=4, note=59, velocity=90, time=1),
    Message('control_change', channel=4, control=7, value=15, time=0),
    Message('note_on', channel=4, note=64, velocity=90, time=0),
    Message('note_on', channel=4, note=59, velocity=0, time=29),
    Message('note_on', channel=4, note=64, velocity=0, time=0),
    Message('note_on', channel=4, note=67, velocity=90, time=1),
    Message('note_on', channel=4, note=71, velocity=90, time=0),
    Message('note_on', channel=4, note=67, velocity=0, time=29),
    Message('note_on', channel=4, note=71, velocity=0, time=0),
    Message('note_on', channel=4, note=64, velocity=90, time=1),
    Message('note_on', channel=4, note=67, velocity=90, time=0),
    Message('note_on', channel=4, note=64, velocity=0, time=29),
    Message('note_on', channel=4, note=67, velocity=0, time=0),
    Message('note_on', channel=4, note=59, velocity=90, time=1),
    Message('note_on', channel=4, note=64, velocity=90, time=0),
    Message('note_on', channel=4, note=59, velocity=0, time=29),
    Message('note_on', channel=4, note=64, velocity=0, time=0),
    Message('control_change', channel=4, control=7, value=12, time=1),
    Message('note_on', channel=4, note=67, velocity=90, time=0),
    Message('note_on', channel=4, note=71, velocity=90, time=0),
    Message('note_on', channel=4, note=67, velocity=0, time=29),
    Message('note_on', channel=4, note=71, velocity=0, time=0),
    Message('note_on', channel=4, note=64, velocity=90, time=1),
    Message('note_on', channel=4, note=67, velocity=90, time=0),
    Message('note_on', channel=4, note=64, velocity=0, time=29),
    Message('note_on', channel=4, note=67, velocity=0, time=0),
    Message('note_on', channel=4, note=64, velocity=90, time=1),
    Message('note_on', channel=4, note=59, velocity=90, time=0),
    Message('note_on', channel=4, note=64, velocity=0, time=59),
    Message('note_on', channel=4, note=59, velocity=0, time=0),
    Message('note_on', channel=4, note=73, velocity=90, time=1),
    Message('note_on', channel=4, note=70, velocity=90, time=0),
    Message('control_change', channel=4, control=7, value=9, time=0),
    Message('note_on', channel=4, note=73, velocity=0, time=29),
    Message('note_on', channel=4, note=70, velocity=0, time=0),
    Message('note_on', channel=4, note=66, velocity=90, time=1),
    Message('note_on', channel=4, note=70, velocity=90, time=0),
    Message('note_on', channel=4, note=66, velocity=0, time=29),
    Message('note_on', channel=4, note=70, velocity=0, time=0),
    Message('note_on', channel=4, note=66, velocity=90, time=1),
    Message('note_on', channel=4, note=61, velocity=90, time=0),
    Message('note_on', channel=4, note=66, velocity=0, time=29),
    Message('note_on', channel=4, note=61, velocity=0, time=0),
    Message('note_on', channel=4, note=73, velocity=90, time=1),
    Message('note_on', channel=4, note=70, velocity=90, time=0),
    Message('note_on', channel=4, note=73, velocity=0, time=29),
    Message('note_on', channel=4, note=70, velocity=0, time=0),
    Message('note_on', channel=4, note=70, velocity=90, time=1),
    Message('control_change', channel=4, control=7, value=6, time=0),
    Message('note_on', channel=4, note=66, velocity=90, time=0),
    Message('note_on', channel=4, note=70, velocity=0, time=29),
    Message('note_on', channel=4, note=66, velocity=0, time=0),
    Message('note_on', channel=4, note=61, velocity=90, time=1),
    Message('note_on', channel=4, note=66, velocity=90, time=0),
    Message('note_on', channel=4, note=61, velocity=0, time=29),
    Message('note_on', channel=4, note=66, velocity=0, time=0),
    Message('note_on', channel=4, note=73, velocity=90, time=1),
    Message('note_on', channel=4, note=70, velocity=90, time=0),
    Message('note_on', channel=4, note=73, velocity=0, time=29),
    Message('note_on', channel=4, note=70, velocity=0, time=0),
    Message('note_on', channel=4, note=70, velocity=90, time=1),
    Message('note_on', channel=4, note=66, velocity=90, time=0),
    Message('note_on', channel=4, note=70, velocity=0, time=29),
    Message('note_on', channel=4, note=66, velocity=0, time=0),
    Message('note_on', channel=4, note=73, velocity=90, time=1),
    Message('note_on', channel=4, note=78, velocity=90, time=0),
    Message('control_change', channel=4, control=7, value=3, time=0),
    Message('control_change', channel=4, control=7, value=0, time=120),
    Message('note_on', channel=4, note=73, velocity=0, time=119),
    Message('note_on', channel=4, note=78, velocity=0, time=0),
    MetaMessage('end_of_track', time=0)]),
  MidiTrack([
    MetaMessage('track_name', name='WinJammer Demo', time=0),
    MetaMessage('midi_port', port=0, time=0),
    Message('control_change', channel=9, control=7, value=40, time=1800),
    Message('note_on', channel=9, note=44, velocity=100, time=0),
    Message('note_on', channel=9, note=44, velocity=0, time=14),
    Message('control_change', channel=9, control=7, value=60, time=1),
    Message('note_on', channel=9, note=44, velocity=100, time=0),
    Message('note_on', channel=9, note=44, velocity=0, time=14),
    Message('control_change', channel=9, control=7, value=80, time=1),
    Message('note_on', channel=9, note=44, velocity=100, time=0),
    Message('note_on', channel=9, note=44, velocity=0, time=14),
    Message('control_change', channel=9, control=7, value=100, time=1),
    Message('note_on', channel=9, note=44, velocity=100, time=0),
    Message('note_on', channel=9, note=44, velocity=0, time=14),
    Message('control_change', channel=9, control=7, value=120, time=1),
    Message('note_on', channel=9, note=44, velocity=100, time=0),
    Message('note_on', channel=9, note=44, velocity=0, time=14),
    Message('control_change', channel=9, control=7, value=100, time=1),
    Message('note_on', channel=9, note=44, velocity=100, time=0),
    Message('note_on', channel=9, note=44, velocity=0, time=14),
    Message('note_on', channel=9, note=44, velocity=100, time=1),
    Message('note_on', channel=9, note=44, velocity=0, time=14),
    Message('note_on', channel=9, note=44, velocity=100, time=1),
    Message('note_on', channel=9, note=44, velocity=0, time=14),
    Message('note_on', channel=9, note=40, velocity=100, time=5641),
    Message('note_on', channel=9, note=40, velocity=0, time=59),
    Message('note_on', channel=9, note=40, velocity=100, time=1),
    Message('note_on', channel=9, note=40, velocity=0, time=59),
    Message('note_on', channel=9, note=40, velocity=100, time=121),
    Message('note_on', channel=9, note=40, velocity=0, time=59),
    Message('note_on', channel=9, note=40, velocity=100, time=181),
    Message('note_on', channel=9, note=40, velocity=0, time=59),
    Message('note_on', channel=9, note=40, velocity=100, time=181),
    Message('note_on', channel=9, note=40, velocity=0, time=59),
    Message('note_on', channel=9, note=40, velocity=100, time=181),
    Message('note_on', channel=9, note=40, velocity=0, time=59),
    Message('note_on', channel=9, note=40, velocity=100, time=181),
    Message('note_on', channel=9, note=40, velocity=0, time=59),
    Message('note_on', channel=9, note=40, velocity=100, time=181),
    Message('note_on', channel=9, note=40, velocity=0, time=59),
    Message('note_on', channel=9, note=40, velocity=100, time=181),
    Message('note_on', channel=9, note=40, velocity=0, time=59),
    Message('note_on', channel=9, note=40, velocity=100, time=181),
    Message('note_on', channel=9, note=40, velocity=0, time=59),
    Message('note_on', channel=9, note=40, velocity=100, time=181),
    Message('note_on', channel=9, note=40, velocity=0, time=59),
    Message('note_on', channel=9, note=40, velocity=100, time=181),
    Message('note_on', channel=9, note=40, velocity=0, time=59),
    Message('note_on', channel=9, note=40, velocity=100, time=181),
    Message('note_on', channel=9, note=40, velocity=0, time=59),
    Message('note_on', channel=9, note=40, velocity=100, time=181),
    Message('note_on', channel=9, note=40, velocity=0, time=59),
    Message('note_on', channel=9, note=40, velocity=100, time=181),
    Message('note_on', channel=9, note=40, velocity=0, time=59),
    Message('note_on', channel=9, note=40, velocity=100, time=181),
    Message('note_on', channel=9, note=40, velocity=0, time=59),
    Message('note_on', channel=9, note=40, velocity=100, time=181),
    Message('note_on', channel=9, note=40, velocity=0, time=119),
    Message('note_on', channel=9, note=40, velocity=100, time=121),
    Message('note_on', channel=9, note=40, velocity=0, time=59),
    Message('note_on', channel=9, note=40, velocity=100, time=1),
    Message('note_on', channel=9, note=40, velocity=0, time=59),
    Message('note_on', channel=9, note=40, velocity=100, time=121),
    Message('note_on', channel=9, note=40, velocity=0, time=59),
    Message('note_on', channel=9, note=40, velocity=100, time=181),
    Message('note_on', channel=9, note=40, velocity=0, time=59),
    Message('note_on', channel=9, note=40, velocity=100, time=181),
    Message('note_on', channel=9, note=40, velocity=0, time=59),
    Message('note_on', channel=9, note=40, velocity=100, time=181),
    Message('note_on', channel=9, note=40, velocity=0, time=59),
    Message('note_on', channel=9, note=40, velocity=100, time=181),
    Message('note_on', channel=9, note=40, velocity=0, time=119),
    Message('note_on', channel=9, note=40, velocity=100, time=121),
    Message('note_on', channel=9, note=40, velocity=0, time=119),
    Message('note_on', channel=9, note=40, velocity=100, time=121),
    Message('note_on', channel=9, note=40, velocity=0, time=119),
    Message('note_on', channel=9, note=40, velocity=100, time=121),
    Message('note_on', channel=9, note=40, velocity=0, time=119),
    Message('note_on', channel=9, note=40, velocity=100, time=121),
    Message('note_on', channel=9, note=40, velocity=0, time=119),
    Message('note_on', channel=9, note=40, velocity=100, time=121),
    Message('note_on', channel=9, note=40, velocity=0, time=119),
    Message('note_on', channel=9, note=40, velocity=100, time=121),
    Message('note_on', channel=9, note=40, velocity=0, time=119),
    Message('note_on', channel=9, note=40, velocity=100, time=121),
    Message('note_on', channel=9, note=40, velocity=0, time=119),
    Message('note_on', channel=9, note=40, velocity=100, time=121),
    Message('note_on', channel=9, note=40, velocity=0, time=119),
    Message('note_on', channel=9, note=40, velocity=100, time=121),
    Message('note_on', channel=9, note=40, velocity=0, time=119),
    Message('note_on', channel=9, note=40, velocity=100, time=121),
    Message('note_on', channel=9, note=40, velocity=0, time=119),
    Message('note_on', channel=9, note=40, velocity=100, time=61),
    Message('note_on', channel=9, note=40, velocity=0, time=29),
    Message('note_on', channel=9, note=40, velocity=100, time=31),
    Message('note_on', channel=9, note=40, velocity=100, time=30),
    Message('note_on', channel=9, note=40, velocity=0, time=29),
    Message('note_on', channel=9, note=40, velocity=0, time=0),
    Message('note_on', channel=9, note=40, velocity=100, time=1),
    Message('note_on', channel=9, note=35, velocity=100, time=0),
    Message('note_on', channel=9, note=40, velocity=100, time=30),
    Message('note_on', channel=9, note=35, velocity=100, time=0),
    Message('note_on', channel=9, note=40, velocity=0, time=29),
    Message('note_on', channel=9, note=35, velocity=0, time=0),
    Message('note_on', channel=9, note=40, velocity=0, time=0),
    Message('note_on', channel=9, note=35, velocity=0, time=0),
    Message('note_on', channel=9, note=54, velocity=100, time=1),
    Message('note_on', channel=9, note=36, velocity=100, time=0),
    Message('note_on', channel=9, note=54, velocity=0, time=29),
    Message('note_on', channel=9, note=36, velocity=0, time=0),
    Message('note_on', channel=9, note=54, velocity=100, time=1),
    Message('note_on', channel=9, note=36, velocity=100, time=0),
    Message('note_on', channel=9, note=54, velocity=0, time=29),
    Message('note_on', channel=9, note=36, velocity=0, time=0),
    Message('note_on', channel=9, note=36, velocity=100, time=1),
    Message('note_on', channel=9, note=54, velocity=100, time=0),
    Message('note_on', channel=9, note=36, velocity=0, time=29),
    Message('note_on', channel=9, note=54, velocity=0, time=0),
    Message('note_on', channel=9, note=55, velocity=100, time=31),
    Message('note_on', channel=9, note=40, velocity=100, time=0),
    Message('note_on', channel=9, note=55, velocity=0, time=29),
    Message('note_on', channel=9, note=40, velocity=0, time=0),
    Message('note_on', channel=9, note=36, velocity=100, time=91),
    Message('note_on', channel=9, note=54, velocity=100, time=0),
    Message('note_on', channel=9, note=36, velocity=0, time=29),
    Message('note_on', channel=9, note=54, velocity=0, time=0),
    Message('note_on', channel=9, note=36, velocity=100, time=1),
    Message('note_on', channel=9, note=54, velocity=100, time=0),
    Message('note_on', channel=9, note=36, velocity=0, time=29),
    Message('note_on', channel=9, note=54, velocity=0, time=0),
    Message('note_on', channel=9, note=54, velocity=100, time=1),
    Message('note_on', channel=9, note=36, velocity=100, time=0),
    Message('note_on', channel=9, note=54, velocity=0, time=29),
    Message('note_on', channel=9, note=36, velocity=0, time=0),
    Message('note_on', channel=9, note=40, velocity=100, time=31),
    Message('note_on', channel=9, note=55, velocity=100, time=0),
    Message('note_on', channel=9, note=40, velocity=0, time=29),
    Message('note_on', channel=9, note=55, velocity=0, time=0),
    Message('note_on', channel=9, note=36, velocity=100, time=91),
    Message('note_on', channel=9, note=54, velocity=100, time=0),
    Message('note_on', channel=9, note=36, velocity=0, time=29),
    Message('note_on', channel=9, note=54, velocity=0, time=0),
    Message('note_on', channel=9, note=36, velocity=100, time=1),
    Message('note_on', channel=9, note=54, velocity=100, time=0),
    Message('note_on', channel=9, note=36, velocity=0, time=29),
    Message('note_on', channel=9, note=54, velocity=0, time=0),
    Message('note_on', channel=9, note=36, velocity=100, time=1),
    Message('note_on', channel=9, note=54, velocity=100, time=0),
    Message('note_on', channel=9, note=36, velocity=0, time=29),
    Message('note_on', channel=9, note=54, velocity=0, time=0),
    Message('note_on', channel=9, note=40, velocity=100, time=31),
    Message('note_on', channel=9, note=55, velocity=100, time=0),
    Message('note_on', channel=9, note=40, velocity=0, time=29),
    Message('note_on', channel=9, note=55, velocity=0, time=0),
    Message('note_on', channel=9, note=54, velocity=100, time=91),
    Message('note_on', channel=9, note=36, velocity=100, time=0),
    Message('note_on', channel=9, note=54, velocity=0, time=29),
    Message('note_on', channel=9, note=36, velocity=0, time=0),
    Message('note_on', channel=9, note=36, velocity=100, time=1),
    Message('note_on', channel=9, note=54, velocity=100, time=0),
    Message('note_on', channel=9, note=36, velocity=0, time=29),
    Message('note_on', channel=9, note=54, velocity=0, time=0),
    Message('note_on', channel=9, note=36, velocity=100, time=1),
    Message('note_on', channel=9, note=54, velocity=100, time=0),
    Message('note_on', channel=9, note=36, velocity=0, time=29),
    Message('note_on', channel=9, note=54, velocity=0, time=0),
    Message('note_on', channel=9, note=55, velocity=100, time=31),
    Message('note_on', channel=9, note=40, velocity=100, time=0),
    Message('note_on', channel=9, note=55, velocity=0, time=29),
    Message('note_on', channel=9, note=40, velocity=0, time=0),
    Message('note_on', channel=9, note=36, velocity=100, time=91),
    Message('note_on', channel=9, note=54, velocity=100, time=0),
    Message('note_on', channel=9, note=36, velocity=0, time=29),
    Message('note_on', channel=9, note=54, velocity=0, time=0),
    Message('note_on', channel=9, note=36, velocity=100, time=1),
    Message('note_on', channel=9, note=54, velocity=100, time=0),
    Message('note_on', channel=9, note=36, velocity=0, time=29),
    Message('note_on', channel=9, note=54, velocity=0, time=0),
    Message('note_on', channel=9, note=36, velocity=100, time=1),
    Message('note_on', channel=9, note=54, velocity=100, time=0),
    Message('note_on', channel=9, note=36, velocity=0, time=29),
    Message('note_on', channel=9, note=54, velocity=0, time=0),
    Message('note_on', channel=9, note=40, velocity=100, time=31),
    Message('note_on', channel=9, note=55, velocity=100, time=0),
    Message('note_on', channel=9, note=40, velocity=0, time=29),
    Message('note_on', channel=9, note=55, velocity=0, time=0),
    Message('note_on', channel=9, note=36, velocity=100, time=91),
    Message('note_on', channel=9, note=54, velocity=100, time=0),
    Message('note_on', channel=9, note=36, velocity=0, time=29),
    Message('note_on', channel=9, note=54, velocity=0, time=0),
    Message('note_on', channel=9, note=36, velocity=100, time=1),
    Message('note_on', channel=9, note=54, velocity=100, time=0),
    Message('note_on', channel=9, note=36, velocity=0, time=29),
    Message('note_on', channel=9, note=54, velocity=0, time=0),
    Message('note_on', channel=9, note=36, velocity=100, time=1),
    Message('note_on', channel=9, note=54, velocity=100, time=0),
    Message('note_on', channel=9, note=36, velocity=0, time=29),
    Message('note_on', channel=9, note=54, velocity=0, time=0),
    Message('note_on', channel=9, note=40, velocity=100, time=31),
    Message('note_on', channel=9, note=55, velocity=100, time=0),
    Message('note_on', channel=9, note=40, velocity=0, time=29),
    Message('note_on', channel=9, note=55, velocity=0, time=0),
    Message('note_on', channel=9, note=55, velocity=100, time=91),
    Message('note_on', channel=9, note=40, velocity=100, time=0),
    Message('note_on', channel=9, note=55, velocity=0, time=29),
    Message('note_on', channel=9, note=40, velocity=0, time=0),
    Message('note_on', channel=9, note=54, velocity=100, time=31),
    Message('note_on', channel=9, note=36, velocity=100, time=0),
    Message('note_on', channel=9, note=54, velocity=0, time=29),
    Message('note_on', channel=9, note=36, velocity=0, time=0),
    Message('note_on', channel=9, note=36, velocity=100, time=1),
    Message('note_on', channel=9, note=54, velocity=100, time=0),
    Message('note_on', channel=9, note=36, velocity=0, time=29),
    Message('note_on', channel=9, note=54, velocity=0, time=0),
    Message('note_on', channel=9, note=55, velocity=100, time=1),
    Message('note_on', channel=9, note=40, velocity=100, time=0),
    Message('note_on', channel=9, note=55, velocity=0, time=29),
    Message('note_on', channel=9, note=40, velocity=0, time=0),
    Message('note_on', channel=9, note=54, velocity=100, time=31),
    Message('note_on', channel=9, note=36, velocity=100, time=0),
    Message('note_on', channel=9, note=54, velocity=0, time=29),
    Message('note_on', channel=9, note=36, velocity=0, time=0),
    Message('note_on', channel=9, note=36, velocity=100, time=1),
    Message('note_on', channel=9, note=54, velocity=100, time=0),
    Message('note_on', channel=9, note=36, velocity=0, time=29),
    Message('note_on', channel=9, note=54, velocity=0, time=0),
    Message('note_on', channel=9, note=55, velocity=100, time=1),
    Message('note_on', channel=9, note=40, velocity=100, time=0),
    Message('note_on', channel=9, note=55, velocity=0, time=29),
    Message('note_on', channel=9, note=40, velocity=0, time=0),
    Message('note_on', channel=9, note=36, velocity=100, time=31),
    Message('note_on', channel=9, note=54, velocity=100, time=0),
    Message('note_on', channel=9, note=36, velocity=0, time=29),
    Message('note_on', channel=9, note=54, velocity=0, time=0),
    Message('note_on', channel=9, note=36, velocity=100, time=1),
    Message('note_on', channel=9, note=54, velocity=100, time=0),
    Message('note_on', channel=9, note=36, velocity=0, time=29),
    Message('note_on', channel=9, note=54, velocity=0, time=0),
    Message('note_on', channel=9, note=55, velocity=100, time=1),
    Message('note_on', channel=9, note=40, velocity=100, time=0),
    Message('note_on', channel=9, note=55, velocity=0, time=29),
    Message('note_on', channel=9, note=40, velocity=0, time=0),
    Message('note_on', channel=9, note=54, velocity=100, time=31),
    Message('note_on', channel=9, note=36, velocity=100, time=0),
    Message('note_on', channel=9, note=54, velocity=0, time=29),
    Message('note_on', channel=9, note=36, velocity=0, time=0),
    Message('note_on', channel=9, note=36, velocity=100, time=1),
    Message('note_on', channel=9, note=54, velocity=100, time=0),
    Message('note_on', channel=9, note=36, velocity=0, time=29),
    Message('note_on', channel=9, note=54, velocity=0, time=0),
    Message('note_on', channel=9, note=36, velocity=100, time=1),
    Message('note_on', channel=9, note=54, velocity=100, time=0),
    Message('note_on', channel=9, note=36, velocity=0, time=29),
    Message('note_on', channel=9, note=54, velocity=0, time=0),
    Message('note_on', channel=9, note=36, velocity=100, time=1),
    Message('note_on', channel=9, note=54, velocity=100, time=0),
    Message('note_on', channel=9, note=36, velocity=0, time=29),
    Message('note_on', channel=9, note=54, velocity=0, time=0),
    Message('note_on', channel=9, note=54, velocity=100, time=1),
    Message('note_on', channel=9, note=36, velocity=100, time=0),
    Message('note_on', channel=9, note=54, velocity=0, time=29),
    Message('note_on', channel=9, note=36, velocity=0, time=0),
    Message('note_on', channel=9, note=40, velocity=100, time=31),
    Message('note_on', channel=9, note=55, velocity=100, time=0),
    Message('note_on', channel=9, note=40, velocity=0, time=29),
    Message('note_on', channel=9, note=55, velocity=0, time=0),
    Message('note_on', channel=9, note=36, velocity=100, time=91),
    Message('note_on', channel=9, note=54, velocity=100, time=0),
    Message('note_on', channel=9, note=36, velocity=0, time=29),
    Message('note_on', channel=9, note=54, velocity=0, time=0),
    Message('note_on', channel=9, note=54, velocity=100, time=1),
    Message('note_on', channel=9, note=36, velocity=100, time=0),
    Message('note_on', channel=9, note=54, velocity=0, time=29),
    Message('note_on', channel=9, note=36, velocity=0, time=0),
    Message('note_on', channel=9, note=36, velocity=100, time=1),
    Message('note_on', channel=9, note=54, velocity=100, time=0),
    Message('note_on', channel=9, note=36, velocity=0, time=29),
    Message('note_on', channel=9, note=54, velocity=0, time=0),
    Message('note_on', channel=9, note=40, velocity=100, time=31),
    Message('note_on', channel=9, note=55, velocity=100, time=0),
    Message('note_on', channel=9, note=40, velocity=0, time=29),
    Message('note_on', channel=9, note=55, velocity=0, time=0),
    Message('note_on', channel=9, note=54, velocity=100, time=91),
    Message('note_on', channel=9, note=36, velocity=100, time=0),
    Message('note_on', channel=9, note=54, velocity=0, time=29),
    Message('note_on', channel=9, note=36, velocity=0, time=0),
    Message('note_on', channel=9, note=54, velocity=100, time=1),
    Message('note_on', channel=9, note=36, velocity=100, time=0),
    Message('note_on', channel=9, note=54, velocity=0, time=29),
    Message('note_on', channel=9, note=36, velocity=0, time=0),
    Message('note_on', channel=9, note=36, velocity=100, time=1),
    Message('note_on', channel=9, note=54, velocity=100, time=0),
    Message('note_on', channel=9, note=36, velocity=0, time=29),
    Message('note_on', channel=9, note=54, velocity=0, time=0),
    Message('note_on', channel=9, note=40, velocity=100, time=31),
    Message('note_on', channel=9, note=55, velocity=100, time=0),
    Message('note_on', channel=9, note=40, velocity=0, time=29),
    Message('note_on', channel=9, note=55, velocity=0, time=0),
    Message('note_on', channel=9, note=36, velocity=100, time=91),
    Message('note_on', channel=9, note=54, velocity=100, time=0),
    Message('note_on', channel=9, note=36, velocity=0, time=29),
    Message('note_on', channel=9, note=54, velocity=0, time=0),
    Message('note_on', channel=9, note=36, velocity=100, time=1),
    Message('note_on', channel=9, note=54, velocity=100, time=0),
    Message('note_on', channel=9, note=36, velocity=0, time=29),
    Message('note_on', channel=9, note=54, velocity=0, time=0),
    Message('note_on', channel=9, note=54, velocity=100, time=1),
    Message('note_on', channel=9, note=36, velocity=100, time=0),
    Message('note_on', channel=9, note=54, velocity=0, time=29),
    Message('note_on', channel=9, note=36, velocity=0, time=0),
    Message('note_on', channel=9, note=40, velocity=100, time=31),
    Message('note_on', channel=9, note=55, velocity=100, time=0),
    Message('note_on', channel=9, note=40, velocity=0, time=29),
    Message('note_on', channel=9, note=55, velocity=0, time=0),
    Message('note_on', channel=9, note=54, velocity=100, time=91),
    Message('note_on', channel=9, note=36, velocity=100, time=0),
    Message('note_on', channel=9, note=54, velocity=0, time=29),
    Message('note_on', channel=9, note=36, velocity=0, time=0),
    Message('note_on', channel=9, note=54, velocity=100, time=1),
    Message('note_on', channel=9, note=36, velocity=100, time=0),
    Message('note_on', channel=9, note=54, velocity=0, time=29),
    Message('note_on', channel=9, note=36, velocity=0, time=0),
    Message('note_on', channel=9, note=36, velocity=100, time=1),
    Message('note_on', channel=9, note=54, velocity=100, time=0),
    Message('note_on', channel=9, note=36, velocity=0, time=29),
    Message('note_on', channel=9, note=54, velocity=0, time=0),
    Message('note_on', channel=9, note=55, velocity=100, time=31),
    Message('note_on', channel=9, note=40, velocity=100, time=0),
    Message('note_on', channel=9, note=55, velocity=0, time=29),
    Message('note_on', channel=9, note=40, velocity=0, time=0),
    Message('note_on', channel=9, note=36, velocity=100, time=91),
    Message('note_on', channel=9, note=54, velocity=100, time=0),
    Message('note_on', channel=9, note=36, velocity=0, time=29),
    Message('note_on', channel=9, note=54, velocity=0, time=0),
    Message('note_on', channel=9, note=36, velocity=100, time=1),
    Message('note_on', channel=9, note=54, velocity=100, time=0),
    Message('note_on', channel=9, note=36, velocity=0, time=29),
    Message('note_on', channel=9, note=54, velocity=0, time=0),
    Message('note_on', channel=9, note=54, velocity=100, time=1),
    Message('note_on', channel=9, note=36, velocity=100, time=0),
    Message('note_on', channel=9, note=54, velocity=0, time=29),
    Message('note_on', channel=9, note=36, velocity=0, time=0),
    Message('note_on', channel=9, note=40, velocity=100, time=31),
    Message('note_on', channel=9, note=55, velocity=100, time=0),
    Message('note_on', channel=9, note=40, velocity=0, time=29),
    Message('note_on', channel=9, note=55, velocity=0, time=0),
    Message('note_on', channel=9, note=36, velocity=100, time=91),
    Message('note_on', channel=9, note=54, velocity=100, time=0),
    Message('note_on', channel=9, note=36, velocity=0, time=29),
    Message('note_on', channel=9, note=54, velocity=0, time=0),
    Message('note_on', channel=9, note=36, velocity=100, time=1),
    Message('note_on', channel=9, note=54, velocity=100, time=0),
    Message('note_on', channel=9, note=36, velocity=0, time=29),
    Message('note_on', channel=9, note=54, velocity=0, time=0),
    Message('note_on', channel=9, note=36, velocity=100, time=1),
    Message('note_on', channel=9, note=54, velocity=100, time=0),
    Message('note_on', channel=9, note=36, velocity=0, time=29),
    Message('note_on', channel=9, note=54, velocity=0, time=0),
    Message('note_on', channel=9, note=40, velocity=100, time=31),
    Message('note_on', channel=9, note=55, velocity=100, time=0),
    Message('note_on', channel=9, note=40, velocity=0, time=29),
    Message('note_on', channel=9, note=55, velocity=0, time=0),
    Message('note_on', channel=9, note=36, velocity=100, time=1),
    Message('note_on', channel=9, note=54, velocity=100, time=0),
    Message('note_on', channel=9, note=36, velocity=0, time=29),
    Message('note_on', channel=9, note=54, velocity=0, time=0),
    Message('note_on', channel=9, note=54, velocity=100, time=1),
    Message('note_on', channel=9, note=36, velocity=100, time=0),
    Message('note_on', channel=9, note=54, velocity=0, time=29),
    Message('note_on', channel=9, note=36, velocity=0, time=0),
    Message('note_on', channel=9, note=55, velocity=100, time=31),
    Message('note_on', channel=9, note=40, velocity=100, time=0),
    Message('note_on', channel=9, note=36, velocity=100, time=30),
    Message('note_on', channel=9, note=54, velocity=100, time=0),
    Message('note_on', channel=9, note=55, velocity=0, time=29),
    Message('note_on', channel=9, note=40, velocity=0, time=0),
    Message('note_on', channel=9, note=36, velocity=0, time=0),
    Message('note_on', channel=9, note=54, velocity=0, time=0),
    Message('note_on', channel=9, note=54, velocity=100, time=1),
    Message('note_on', channel=9, note=36, velocity=100, time=0),
    Message('note_on', channel=9, note=54, velocity=0, time=29),
    Message('note_on', channel=9, note=36, velocity=0, time=0),
    Message('note_on', channel=9, note=55, velocity=100, time=31),
    Message('note_on', channel=9, note=57, velocity=100, time=0),
    Message('note_on', channel=9, note=49, velocity=100, time=0),
    Message('note_on', channel=9, note=40, velocity=100, time=0),
    Message('note_on', channel=9, note=54, velocity=100, time=30),
    Message('note_on', channel=9, note=36, velocity=100, time=0),
    Message('note_on', channel=9, note=55, velocity=0, time=29),
    Message('note_on', channel=9, note=57, velocity=0, time=0),
    Message('note_on', channel=9, note=49, velocity=0, time=0),
    Message('note_on', channel=9, note=40, velocity=0, time=0),
    Message('note_on', channel=9, note=54, velocity=0, time=0),
    Message('note_on', channel=9, note=36, velocity=0, time=0),
    Message('note_on', channel=9, note=36, velocity=100, time=1),
    Message('note_on', channel=9, note=54, velocity=100, time=0),
    Message('note_on', channel=9, note=36, velocity=0, time=29),
    Message('note_on', channel=9, note=54, velocity=0, time=0),
    Message('note_on', channel=9, note=40, velocity=100, time=151),
    Message('note_on', channel=9, note=40, velocity=0, time=59),
    Message('note_on', channel=9, note=40, velocity=100, time=181),
    Message('note_on', channel=9, note=40, velocity=0, time=59),
    Message('note_on', channel=9, note=40, velocity=100, time=181),
    Message('note_on', channel=9, note=40, velocity=0, time=59),
    Message('note_on', channel=9, note=40, velocity=100, time=181),
    Message('note_on', channel=9, note=40, velocity=0, time=59),
    Message('note_on', channel=9, note=40, velocity=100, time=181),
    Message('note_on', channel=9, note=40, velocity=0, time=119),
    Message('note_on', channel=9, note=40, velocity=100, time=121),
    Message('note_on', channel=9, note=40, velocity=0, time=119),
    Message('note_on', channel=9, note=40, velocity=100, time=121),
    Message('note_on', channel=9, note=40, velocity=0, time=119),
    Message('note_on', channel=9, note=40, velocity=100, time=121),
    Message('note_on', channel=9, note=40, velocity=0, time=119),
    Message('note_on', channel=9, note=40, velocity=100, time=121),
    Message('note_on', channel=9, note=40, velocity=0, time=119),
    Message('note_on', channel=9, note=40, velocity=100, time=121),
    Message('note_on', channel=9, note=40, velocity=0, time=119),
    Message('note_on', channel=9, note=40, velocity=100, time=121),
    Message('note_on', channel=9, note=40, velocity=0, time=119),
    Message('note_on', channel=9, note=40, velocity=100, time=121),
    Message('note_on', channel=9, note=40, velocity=0, time=119),
    Message('note_on', channel=9, note=40, velocity=100, time=121),
    Message('note_on', channel=9, note=40, velocity=0, time=119),
    Message('note_on', channel=9, note=40, velocity=100, time=121),
    Message('note_on', channel=9, note=40, velocity=0, time=119),
    Message('note_on', channel=9, note=40, velocity=100, time=121),
    Message('note_on', channel=9, note=40, velocity=0, time=119),
    Message('note_on', channel=9, note=40, velocity=100, time=121),
    Message('note_on', channel=9, note=40, velocity=0, time=59),
    Message('note_on', channel=9, note=40, velocity=100, time=1),
    Message('note_on', channel=9, note=40, velocity=0, time=59),
    Message('note_on', channel=9, note=40, velocity=100, time=121),
    Message('note_on', channel=9, note=40, velocity=0, time=59),
    Message('note_on', channel=9, note=40, velocity=100, time=181),
    Message('note_on', channel=9, note=40, velocity=0, time=59),
    Message('note_on', channel=9, note=40, velocity=100, time=181),
    Message('note_on', channel=9, note=40, velocity=0, time=59),
    Message('note_on', channel=9, note=40, velocity=100, time=181),
    Message('note_on', channel=9, note=40, velocity=0, time=59),
    Message('note_on', channel=9, note=40, velocity=100, time=181),
    Message('note_on', channel=9, note=40, velocity=0, time=119),
    Message('note_on', channel=9, note=40, velocity=100, time=121),
    Message('note_on', channel=9, note=40, velocity=0, time=119),
    Message('note_on', channel=9, note=40, velocity=100, time=121),
    Message('note_on', channel=9, note=40, velocity=0, time=119),
    Message('note_on', channel=9, note=40, velocity=100, time=121),
    Message('note_on', channel=9, note=40, velocity=0, time=119),
    Message('note_on', channel=9, note=40, velocity=100, time=121),
    Message('note_on', channel=9, note=40, velocity=0, time=119),
    Message('note_on', channel=9, note=40, velocity=100, time=121),
    Message('note_on', channel=9, note=40, velocity=0, time=119),
    Message('note_on', channel=9, note=40, velocity=100, time=121),
    Message('note_on', channel=9, note=40, velocity=0, time=119),
    Message('note_on', channel=9, note=40, velocity=100, time=121),
    Message('note_on', channel=9, note=40, velocity=0, time=119),
    Message('note_on', channel=9, note=40, velocity=100, time=121),
    Message('note_on', channel=9, note=40, velocity=0, time=119),
    Message('note_on', channel=9, note=40, velocity=100, time=121),
    Message('note_on', channel=9, note=40, velocity=0, time=119),
    Message('note_on', channel=9, note=40, velocity=100, time=121),
    Message('note_on', channel=9, note=40, velocity=0, time=119),
    Message('note_on', channel=9, note=40, velocity=100, time=61),
    Message('note_on', channel=9, note=40, velocity=0, time=29),
    Message('note_on', channel=9, note=40, velocity=100, time=31),
    Message('note_on', channel=9, note=40, velocity=100, time=30),
    Message('note_on', channel=9, note=40, velocity=0, time=29),
    Message('note_on', channel=9, note=40, velocity=0, time=0),
    Message('note_on', channel=9, note=40, velocity=100, time=1),
    Message('note_on', channel=9, note=36, velocity=100, time=0),
    Message('note_on', channel=9, note=36, velocity=0, time=29),
    Message('note_on', channel=9, note=40, velocity=100, time=1),
    Message('note_on', channel=9, note=36, velocity=100, time=0),
    Message('note_on', channel=9, note=40, velocity=0, time=29),
    Message('note_on', channel=9, note=40, velocity=0, time=0),
    Message('note_on', channel=9, note=36, velocity=0, time=0),
    Message('note_on', channel=9, note=36, velocity=100, time=1),
    Message('note_on', channel=9, note=54, velocity=100, time=0),
    Message('note_on', channel=9, note=36, velocity=0, time=29),
    Message('note_on', channel=9, note=54, velocity=0, time=0),
    Message('note_on', channel=9, note=54, velocity=100, time=1),
    Message('note_on', channel=9, note=36, velocity=100, time=0),
    Message('note_on', channel=9, note=54, velocity=0, time=29),
    Message('note_on', channel=9, note=36, velocity=0, time=0),
    Message('note_on', channel=9, note=54, velocity=100, time=1),
    Message('note_on', channel=9, note=36, velocity=100, time=0),
    Message('note_on', channel=9, note=54, velocity=0, time=29),
    Message('note_on', channel=9, note=36, velocity=0, time=30),
    Message('note_on', channel=9, note=55, velocity=100, time=1),
    Message('note_on', channel=9, note=40, velocity=100, time=0),
    Message('note_on', channel=9, note=55, velocity=0, time=29),
    Message('note_on', channel=9, note=40, velocity=0, time=0),
    Message('note_on', channel=9, note=54, velocity=100, time=91),
    Message('note_on', channel=9, note=36, velocity=100, time=0),
    Message('note_on', channel=9, note=54, velocity=0, time=29),
    Message('note_on', channel=9, note=36, velocity=0, time=0),
    Message('note_on', channel=9, note=54, velocity=100, time=1),
    Message('note_on', channel=9, note=36, velocity=100, time=0),
    Message('note_on', channel=9, note=54, velocity=0, time=29),
    Message('note_on', channel=9, note=36, velocity=0, time=0),
    Message('note_on', channel=9, note=36, velocity=100, time=1),
    Message('note_on', channel=9, note=54, velocity=100, time=0),
    Message('note_on', channel=9, note=54, velocity=0, time=29),
    Message('note_on', channel=9, note=36, velocity=0, time=30),
    Message('note_on', channel=9, note=40, velocity=100, time=1),
    Message('note_on', channel=9, note=55, velocity=100, time=0),
    Message('note_on', channel=9, note=40, velocity=0, time=29),
    Message('note_on', channel=9, note=55, velocity=0, time=0),
    Message('note_on', channel=9, note=54, velocity=100, time=91),
    Message('note_on', channel=9, note=36, velocity=100, time=0),
    Message('note_on', channel=9, note=54, velocity=0, time=29),
    Message('note_on', channel=9, note=36, velocity=0, time=0),
    Message('note_on', channel=9, note=36, velocity=100, time=1),
    Message('note_on', channel=9, note=54, velocity=100, time=0),
    Message('note_on', channel=9, note=36, velocity=0, time=29),
    Message('note_on', channel=9, note=54, velocity=0, time=0),
    Message('note_on', channel=9, note=54, velocity=100, time=1),
    Message('note_on', channel=9, note=36, velocity=100, time=0),
    Message('note_on', channel=9, note=54, velocity=0, time=29),
    Message('note_on', channel=9, note=36, velocity=0, time=30),
    Message('note_on', channel=9, note=40, velocity=100, time=1),
    Message('note_on', channel=9, note=55, velocity=100, time=0),
    Message('note_on', channel=9, note=40, velocity=0, time=29),
    Message('note_on', channel=9, note=55, velocity=0, time=0),
    Message('note_on', channel=9, note=36, velocity=100, time=91),
    Message('note_on', channel=9, note=54, velocity=100, time=0),
    Message('note_on', channel=9, note=36, velocity=0, time=29),
    Message('note_on', channel=9, note=54, velocity=0, time=0),
    Message('note_on', channel=9, note=54, velocity=100, time=1),
    Message('note_on', channel=9, note=36, velocity=100, time=0),
    Message('note_on', channel=9, note=54, velocity=0, time=29),
    Message('note_on', channel=9, note=36, velocity=0, time=0),
    Message('note_on', channel=9, note=54, velocity=100, time=1),
    Message('note_on', channel=9, note=36, velocity=100, time=0),
    Message('note_on', channel=9, note=54, velocity=0, time=29),
    Message('note_on', channel=9, note=36, velocity=0, time=30),
    Message('note_on', channel=9, note=55, velocity=100, time=1),
    Message('note_on', channel=9, note=40, velocity=100, time=0),
    Message('note_on', channel=9, note=55, velocity=0, time=29),
    Message('note_on', channel=9, note=40, velocity=0, time=0),
    Message('note_on', channel=9, note=54, velocity=100, time=91),
    Message('note_on', channel=9, note=36, velocity=100, time=0),
    Message('note_on', channel=9, note=54, velocity=0, time=29),
    Message('note_on', channel=9, note=36, velocity=0, time=0),
    Message('note_on', channel=9, note=36, velocity=100, time=1),
    Message('note_on', channel=9, note=54, velocity=100, time=0),
    Message('note_on', channel=9, note=36, velocity=0, time=29),
    Message('note_on', channel=9, note=54, velocity=0, time=0),
    Message('note_on', channel=9, note=54, velocity=100, time=1),
    Message('note_on', channel=9, note=36, velocity=100, time=0),
    Message('note_on', channel=9, note=54, velocity=0, time=29),
    Message('note_on', channel=9, note=36, velocity=0, time=30),
    Message('note_on', channel=9, note=40, velocity=100, time=1),
    Message('note_on', channel=9, note=55, velocity=100, time=0),
    Message('note_on', channel=9, note=40, velocity=0, time=29),
    Message('note_on', channel=9, note=55, velocity=0, time=0),
    Message('note_on', channel=9, note=36, velocity=100, time=91),
    Message('note_on', channel=9, note=54, velocity=100, time=0),
    Message('note_on', channel=9, note=36, velocity=0, time=29),
    Message('note_on', channel=9, note=54, velocity=0, time=0),
    Message('note_on', channel=9, note=36, velocity=100, time=1),
    Message('note_on', channel=9, note=54, velocity=100, time=0),
    Message('note_on', channel=9, note=36, velocity=0, time=29),
    Message('note_on', channel=9, note=54, velocity=0, time=0),
    Message('note_on', channel=9, note=36, velocity=100, time=1),
    Message('note_on', channel=9, note=54, velocity=100, time=0),
    Message('note_on', channel=9, note=36, velocity=0, time=29),
    Message('note_on', channel=9, note=54, velocity=0, time=0),
    Message('note_on', channel=9, note=40, velocity=100, time=31),
    Message('note_on', channel=9, note=55, velocity=100, time=0),
    Message('note_on', channel=9, note=40, velocity=0, time=29),
    Message('note_on', channel=9, note=55, velocity=0, time=0),
    Message('note_on', channel=9, note=55, velocity=100, time=91),
    Message('note_on', channel=9, note=40, velocity=100, time=0),
    Message('note_on', channel=9, note=55, velocity=0, time=29),
    Message('note_on', channel=9, note=40, velocity=0, time=0),
    Message('note_on', channel=9, note=54, velocity=100, time=31),
    Message('note_on', channel=9, note=36, velocity=100, time=0),
    Message('note_on', channel=9, note=54, velocity=0, time=29),
    Message('note_on', channel=9, note=36, velocity=0, time=0),
    Message('note_on', channel=9, note=36, velocity=100, time=1),
    Message('note_on', channel=9, note=54, velocity=100, time=0),
    Message('note_on', channel=9, note=36, velocity=0, time=29),
    Message('note_on', channel=9, note=54, velocity=0, time=0),
    Message('note_on', channel=9, note=55, velocity=100, time=1),
    Message('note_on', channel=9, note=40, velocity=100, time=0),
    Message('note_on', channel=9, note=55, velocity=0, time=29),
    Message('note_on', channel=9, note=40, velocity=0, time=0),
    Message('note_on', channel=9, note=54, velocity=100, time=31),
    Message('note_on', channel=9, note=36, velocity=100, time=0),
    Message('note_on', channel=9, note=54, velocity=0, time=29),
    Message('note_on', channel=9, note=36, velocity=0, time=0),
    Message('note_on', channel=9, note=36, velocity=100, time=1),
    Message('note_on', channel=9, note=54, velocity=100, time=0),
    Message('note_on', channel=9, note=36, velocity=0, time=29),
    Message('note_on', channel=9, note=54, velocity=0, time=0),
    Message('note_on', channel=9, note=55, velocity=100, time=1),
    Message('note_on', channel=9, note=40, velocity=100, time=0),
    Message('note_on', channel=9, note=55, velocity=0, time=29),
    Message('note_on', channel=9, note=40, velocity=0, time=0),
    Message('note_on', channel=9, note=36, velocity=100, time=31),
    Message('note_on', channel=9, note=54, velocity=100, time=0),
    Message('note_on', channel=9, note=36, velocity=0, time=29),
    Message('note_on', channel=9, note=54, velocity=0, time=0),
    Message('note_on', channel=9, note=36, velocity=100, time=1),
    Message('note_on', channel=9, note=54, velocity=100, time=0),
    Message('note_on', channel=9, note=36, velocity=0, time=29),
    Message('note_on', channel=9, note=54, velocity=0, time=0),
    Message('note_on', channel=9, note=55, velocity=100, time=1),
    Message('note_on', channel=9, note=40, velocity=100, time=0),
    Message('note_on', channel=9, note=55, velocity=0, time=29),
    Message('note_on', channel=9, note=40, velocity=0, time=0),
    Message('note_on', channel=9, note=54, velocity=100, time=31),
    Message('note_on', channel=9, note=36, velocity=100, time=0),
    Message('note_on', channel=9, note=54, velocity=0, time=29),
    Message('note_on', channel=9, note=36, velocity=0, time=0),
    Message('note_on', channel=9, note=43, velocity=100, time=1),
    Message('note_on', channel=9, note=54, velocity=100, time=0),
    Message('note_on', channel=9, note=43, velocity=0, time=29),
    Message('note_on', channel=9, note=54, velocity=0, time=0),
    Message('note_on', channel=9, note=36, velocity=100, time=1),
    Message('note_on', channel=9, note=54, velocity=100, time=0),
    Message('note_on', channel=9, note=36, velocity=0, time=29),
    Message('note_on', channel=9, note=54, velocity=0, time=0),
    Message('note_on', channel=9, note=36, velocity=100, time=1),
    Message('note_on', channel=9, note=54, velocity=100, time=0),
    Message('note_on', channel=9, note=36, velocity=0, time=29),
    Message('note_on', channel=9, note=54, velocity=0, time=0),
    Message('note_on', channel=9, note=54, velocity=100, time=1),
    Message('note_on', channel=9, note=36, velocity=100, time=0),
    Message('note_on', channel=9, note=54, velocity=0, time=29),
    Message('note_on', channel=9, note=36, velocity=0, time=0),
    Message('note_on', channel=9, note=40, velocity=100, time=31),
    Message('note_on', channel=9, note=55, velocity=100, time=0),
    Message('note_on', channel=9, note=40, velocity=0, time=29),
    Message('note_on', channel=9, note=55, velocity=0, time=0),
    Message('note_on', channel=9, note=36, velocity=100, time=91),
    Message('note_on', channel=9, note=54, velocity=100, time=0),
    Message('note_on', channel=9, note=36, velocity=0, time=29),
    Message('note_on', channel=9, note=54, velocity=0, time=0),
    Message('note_on', channel=9, note=54, velocity=100, time=1),
    Message('note_on', channel=9, note=36, velocity=100, time=0),
    Message('note_on', channel=9, note=54, velocity=0, time=29),
    Message('note_on', channel=9, note=36, velocity=0, time=0),
    Message('note_on', channel=9, note=36, velocity=100, time=1),
    Message('note_on', channel=9, note=54, velocity=100, time=0),
    Message('note_on', channel=9, note=36, velocity=0, time=29),
    Message('note_on', channel=9, note=54, velocity=0, time=0),
    Message('note_on', channel=9, note=40, velocity=100, time=31),
    Message('note_on', channel=9, note=55, velocity=100, time=0),
    Message('note_on', channel=9, note=40, velocity=0, time=29),
    Message('note_on', channel=9, note=55, velocity=0, time=0),
    Message('note_on', channel=9, note=54, velocity=100, time=91),
    Message('note_on', channel=9, note=36, velocity=100, time=0),
    Message('note_on', channel=9, note=54, velocity=0, time=29),
    Message('note_on', channel=9, note=36, velocity=0, time=0),
    Message('note_on', channel=9, note=54, velocity=100, time=1),
    Message('note_on', channel=9, note=36, velocity=100, time=0),
    Message('note_on', channel=9, note=54, velocity=0, time=29),
    Message('note_on', channel=9, note=36, velocity=0, time=0),
    Message('note_on', channel=9, note=36, velocity=100, time=1),
    Message('note_on', channel=9, note=54, velocity=100, time=0),
    Message('note_on', channel=9, note=36, velocity=0, time=29),
    Message('note_on', channel=9, note=54, velocity=0, time=0),
    Message('note_on', channel=9, note=40, velocity=100, time=31),
    Message('note_on', channel=9, note=55, velocity=100, time=0),
    Message('note_on', channel=9, note=40, velocity=0, time=29),
    Message('note_on', channel=9, note=55, velocity=0, time=0),
    Message('note_on', channel=9, note=36, velocity=100, time=91),
    Message('note_on', channel=9, note=54, velocity=100, time=0),
    Message('note_on', channel=9, note=36, velocity=0, time=29),
    Message('note_on', channel=9, note=54, velocity=0, time=0),
    Message('note_on', channel=9, note=36, velocity=100, time=1),
    Message('note_on', channel=9, note=54, velocity=100, time=0),
    Message('note_on', channel=9, note=36, velocity=0, time=29),
    Message('note_on', channel=9, note=54, velocity=0, time=0),
    Message('note_on', channel=9, note=54, velocity=100, time=1),
    Message('note_on', channel=9, note=36, velocity=100, time=0),
    Message('note_on', channel=9, note=54, velocity=0, time=29),
    Message('note_on', channel=9, note=36, velocity=0, time=0),
    Message('note_on', channel=9, note=40, velocity=100, time=31),
    Message('note_on', channel=9, note=55, velocity=100, time=0),
    Message('note_on', channel=9, note=40, velocity=0, time=29),
    Message('note_on', channel=9, note=55, velocity=0, time=0),
    Message('note_on', channel=9, note=54, velocity=100, time=91),
    Message('note_on', channel=9, note=36, velocity=100, time=0),
    Message('note_on', channel=9, note=54, velocity=0, time=29),
    Message('note_on', channel=9, note=36, velocity=0, time=0),
    Message('note_on', channel=9, note=54, velocity=100, time=1),
    Message('note_on', channel=9, note=36, velocity=100, time=0),
    Message('note_on', channel=9, note=54, velocity=0, time=29),
    Message('note_on', channel=9, note=36, velocity=0, time=0),
    Message('note_on', channel=9, note=36, velocity=100, time=1),
    Message('note_on', channel=9, note=54, velocity=100, time=0),
    Message('note_on', channel=9, note=36, velocity=0, time=29),
    Message('note_on', channel=9, note=54, velocity=0, time=0),
    Message('note_on', channel=9, note=55, velocity=100, time=31),
    Message('note_on', channel=9, note=40, velocity=100, time=0),
    Message('note_on', channel=9, note=55, velocity=0, time=29),
    Message('note_on', channel=9, note=40, velocity=0, time=0),
    Message('note_on', channel=9, note=36, velocity=100, time=91),
    Message('note_on', channel=9, note=54, velocity=100, time=0),
    Message('note_on', channel=9, note=36, velocity=0, time=29),
    Message('note_on', channel=9, note=54, velocity=0, time=0),
    Message('note_on', channel=9, note=36, velocity=100, time=1),
    Message('note_on', channel=9, note=54, velocity=100, time=0),
    Message('note_on', channel=9, note=36, velocity=0, time=29),
    Message('note_on', channel=9, note=54, velocity=0, time=0),
    Message('note_on', channel=9, note=54, velocity=100, time=1),
    Message('note_on', channel=9, note=36, velocity=100, time=0),
    Message('note_on', channel=9, note=54, velocity=0, time=29),
    Message('note_on', channel=9, note=36, velocity=0, time=0),
    Message('note_on', channel=9, note=40, velocity=100, time=31),
    Message('note_on', channel=9, note=55, velocity=100, time=0),
    Message('note_on', channel=9, note=40, velocity=0, time=29),
    Message('note_on', channel=9, note=55, velocity=0, time=0),
    Message('note_on', channel=9, note=43, velocity=100, time=3991),
    Message('note_on', channel=9, note=43, velocity=0, time=59),
    Message('note_on', channel=9, note=43, velocity=100, time=31),
    Message('note_on', channel=9, note=43, velocity=0, time=59),
    Message('note_on', channel=9, note=43, velocity=100, time=31),
    Message('note_on', channel=9, note=43, velocity=0, time=59),
    Message('note_on', channel=9, note=40, velocity=100, time=1),
    Message('note_on', channel=9, note=40, velocity=0, time=29),
    Message('note_on', channel=9, note=36, velocity=100, time=1),
    Message('note_on', channel=9, note=36, velocity=0, time=14),
    Message('note_on', channel=9, note=36, velocity=100, time=1),
    Message('note_on', channel=9, note=36, velocity=0, time=14),
    Message('note_on', channel=9, note=36, velocity=100, time=1),
    Message('note_on', channel=9, note=36, velocity=0, time=29),
    Message('note_on', channel=9, note=35, velocity=100, time=1),
    Message('note_on', channel=9, note=35, velocity=0, time=29),
    Message('note_on', channel=9, note=35, velocity=100, time=1),
    Message('note_on', channel=9, note=35, velocity=0, time=29),
    Message('note_on', channel=9, note=57, velocity=100, time=31),
    Message('note_on', channel=9, note=44, velocity=100, time=0),
    Message('note_on', channel=9, note=44, velocity=0, time=29),
    Message('note_on', channel=9, note=44, velocity=100, time=1),
    Message('note_on', channel=9, note=44, velocity=0, time=29),
    Message('note_on', channel=9, note=44, velocity=100, time=1),
    Message('note_on', channel=9, note=44, velocity=0, time=29),
    Message('note_on', channel=9, note=44, velocity=100, time=1),
    Message('note_on', channel=9, note=57, velocity=0, time=29),
    Message('note_on', channel=9, note=44, velocity=0, time=0),
    Message('note_on', channel=9, note=40, velocity=100, time=1),
    Message('note_on', channel=9, note=44, velocity=100, time=0),
    Message('note_on', channel=9, note=44, velocity=0, time=29),
    Message('note_on', channel=9, note=44, velocity=100, time=1),
    Message('note_on', channel=9, note=40, velocity=0, time=29),
    Message('note_on', channel=9, note=44, velocity=0, time=0),
    Message('note_on', channel=9, note=44, velocity=100, time=1),
    Message('note_on', channel=9, note=44, velocity=0, time=29),
    Message('note_on', channel=9, note=44, velocity=100, time=1),
    Message('note_on', channel=9, note=44, velocity=0, time=29),
    Message('note_on', channel=9, note=44, velocity=100, time=1),
    Message('note_on', channel=9, note=44, velocity=0, time=29),
    Message('note_on', channel=9, note=44, velocity=100, time=1),
    Message('note_on', channel=9, note=44, velocity=0, time=29),
    Message('note_on', channel=9, note=44, velocity=100, time=1),
    Message('note_on', channel=9, note=44, velocity=0, time=29),
    Message('note_on', channel=9, note=44, velocity=100, time=1),
    Message('note_on', channel=9, note=44, velocity=0, time=29),
    Message('note_on', channel=9, note=40, velocity=100, time=1),
    Message('note_on', channel=9, note=44, velocity=100, time=0),
    Message('note_on', channel=9, note=44, velocity=0, time=29),
    Message('note_on', channel=9, note=44, velocity=100, time=1),
    Message('note_on', channel=9, note=40, velocity=0, time=29),
    Message('note_on', channel=9, note=44, velocity=0, time=0),
    Message('note_on', channel=9, note=44, velocity=100, time=1),
    Message('note_on', channel=9, note=44, velocity=0, time=29),
    Message('note_on', channel=9, note=44, velocity=100, time=1),
    Message('note_on', channel=9, note=44, velocity=0, time=29),
    Message('note_on', channel=9, note=44, velocity=100, time=1),
    Message('note_on', channel=9, note=44, velocity=0, time=29),
    Message('note_on', channel=9, note=44, velocity=100, time=1),
    Message('note_on', channel=9, note=44, velocity=0, time=29),
    Message('note_on', channel=9, note=44, velocity=100, time=1),
    Message('note_on', channel=9, note=44, velocity=0, time=29),
    Message('note_on', channel=9, note=44, velocity=100, time=1),
    Message('note_on', channel=9, note=44, velocity=0, time=29),
    Message('note_on', channel=9, note=40, velocity=100, time=1),
    Message('note_on', channel=9, note=44, velocity=100, time=0),
    Message('note_on', channel=9, note=44, velocity=0, time=29),
    Message('note_on', channel=9, note=44, velocity=100, time=1),
    Message('note_on', channel=9, note=40, velocity=0, time=29),
    Message('note_on', channel=9, note=44, velocity=0, time=0),
    Message('note_on', channel=9, note=44, velocity=100, time=1),
    Message('note_on', channel=9, note=44, velocity=0, time=29),
    Message('note_on', channel=9, note=44, velocity=100, time=1),
    Message('note_on', channel=9, note=44, velocity=0, time=29),
    Message('note_on', channel=9, note=44, velocity=100, time=1),
    Message('note_on', channel=9, note=44, velocity=0, time=29),
    Message('note_on', channel=9, note=44, velocity=100, time=1),
    Message('note_on', channel=9, note=44, velocity=0, time=29),
    Message('note_on', channel=9, note=44, velocity=100, time=1),
    Message('note_on', channel=9, note=44, velocity=0, time=29),
    Message('note_on', channel=9, note=44, velocity=100, time=1),
    Message('note_on', channel=9, note=44, velocity=0, time=29),
    Message('note_on', channel=9, note=40, velocity=100, time=1),
    Message('note_on', channel=9, note=44, velocity=100, time=0),
    Message('note_on', channel=9, note=44, velocity=0, time=29),
    Message('note_on', channel=9, note=44, velocity=100, time=1),
    Message('note_on', channel=9, note=40, velocity=0, time=29),
    Message('note_on', channel=9, note=44, velocity=0, time=0),
    Message('note_on', channel=9, note=44, velocity=100, time=1),
    Message('note_on', channel=9, note=44, velocity=0, time=29),
    Message('note_on', channel=9, note=44, velocity=100, time=1),
    Message('note_on', channel=9, note=44, velocity=0, time=29),
    Message('note_on', channel=9, note=44, velocity=100, time=1),
    Message('note_on', channel=9, note=44, velocity=0, time=29),
    Message('note_on', channel=9, note=44, velocity=100, time=1),
    Message('note_on', channel=9, note=44, velocity=0, time=29),
    Message('note_on', channel=9, note=44, velocity=100, time=1),
    Message('note_on', channel=9, note=44, velocity=0, time=29),
    Message('note_on', channel=9, note=44, velocity=100, time=1),
    Message('note_on', channel=9, note=44, velocity=0, time=29),
    Message('note_on', channel=9, note=40, velocity=100, time=1),
    Message('note_on', channel=9, note=44, velocity=100, time=0),
    Message('note_on', channel=9, note=44, velocity=0, time=29),
    Message('note_on', channel=9, note=44, velocity=100, time=1),
    Message('note_on', channel=9, note=40, velocity=0, time=29),
    Message('note_on', channel=9, note=44, velocity=0, time=0),
    Message('note_on', channel=9, note=44, velocity=100, time=1),
    Message('note_on', channel=9, note=44, velocity=0, time=29),
    Message('note_on', channel=9, note=44, velocity=100, time=1),
    Message('note_on', channel=9, note=44, velocity=0, time=29),
    Message('note_on', channel=9, note=44, velocity=100, time=1),
    Message('note_on', channel=9, note=44, velocity=0, time=29),
    Message('note_on', channel=9, note=44, velocity=100, time=1),
    Message('note_on', channel=9, note=44, velocity=0, time=29),
    Message('note_on', channel=9, note=44, velocity=100, time=1),
    Message('note_on', channel=9, note=44, velocity=0, time=29),
    Message('note_on', channel=9, note=44, velocity=100, time=1),
    Message('note_on', channel=9, note=44, velocity=0, time=29),
    Message('note_on', channel=9, note=40, velocity=100, time=1),
    Message('note_on', channel=9, note=44, velocity=100, time=0),
    Message('note_on', channel=9, note=44, velocity=0, time=29),
    Message('note_on', channel=9, note=44, velocity=100, time=1),
    Message('note_on', channel=9, note=40, velocity=0, time=29),
    Message('note_on', channel=9, note=44, velocity=0, time=0),
    Message('note_on', channel=9, note=44, velocity=100, time=1),
    Message('note_on', channel=9, note=44, velocity=0, time=29),
    Message('note_on', channel=9, note=44, velocity=100, time=1),
    Message('note_on', channel=9, note=44, velocity=0, time=29),
    Message('note_on', channel=9, note=44, velocity=100, time=1),
    Message('note_on', channel=9, note=44, velocity=0, time=29),
    Message('note_on', channel=9, note=44, velocity=100, time=1),
    Message('note_on', channel=9, note=44, velocity=0, time=29),
    Message('note_on', channel=9, note=44, velocity=100, time=1),
    Message('note_on', channel=9, note=44, velocity=0, time=29),
    Message('note_on', channel=9, note=44, velocity=100, time=1),
    Message('note_on', channel=9, note=44, velocity=0, time=29),
    Message('note_on', channel=9, note=40, velocity=100, time=1),
    Message('note_on', channel=9, note=44, velocity=100, time=0),
    Message('note_on', channel=9, note=44, velocity=0, time=29),
    Message('note_on', channel=9, note=44, velocity=100, time=1),
    Message('note_on', channel=9, note=40, velocity=0, time=29),
    Message('note_on', channel=9, note=44, velocity=0, time=0),
    Message('note_on', channel=9, note=44, velocity=100, time=1),
    Message('note_on', channel=9, note=44, velocity=0, time=29),
    Message('note_on', channel=9, note=44, velocity=100, time=1),
    Message('note_on', channel=9, note=44, velocity=0, time=29),
    Message('note_on', channel=9, note=44, velocity=100, time=1),
    Message('note_on', channel=9, note=44, velocity=0, time=29),
    Message('note_on', channel=9, note=44, velocity=100, time=1),
    Message('note_on', channel=9, note=44, velocity=0, time=29),
    Message('note_on', channel=9, note=44, velocity=100, time=1),
    Message('note_on', channel=9, note=44, velocity=0, time=29),
    Message('note_on', channel=9, note=44, velocity=100, time=1),
    Message('note_on', channel=9, note=44, velocity=0, time=29),
    Message('note_on', channel=9, note=40, velocity=100, time=1),
    Message('note_on', channel=9, note=44, velocity=100, time=0),
    Message('note_on', channel=9, note=44, velocity=0, time=29),
    Message('note_on', channel=9, note=44, velocity=100, time=1),
    Message('note_on', channel=9, note=40, velocity=0, time=29),
    Message('note_on', channel=9, note=44, velocity=0, time=0),
    Message('note_on', channel=9, note=44, velocity=100, time=1),
    Message('note_on', channel=9, note=44, velocity=0, time=29),
    Message('note_on', channel=9, note=44, velocity=100, time=1),
    Message('note_on', channel=9, note=44, velocity=0, time=29),
    Message('note_on', channel=9, note=44, velocity=100, time=1),
    Message('note_on', channel=9, note=44, velocity=0, time=29),
    Message('note_on', channel=9, note=44, velocity=100, time=1),
    Message('note_on', channel=9, note=44, velocity=0, time=29),
    Message('note_on', channel=9, note=44, velocity=100, time=1),
    Message('note_on', channel=9, note=44, velocity=0, time=29),
    Message('note_on', channel=9, note=44, velocity=100, time=1),
    Message('note_on', channel=9, note=44, velocity=0, time=29),
    Message('note_on', channel=9, note=40, velocity=100, time=1),
    Message('note_on', channel=9, note=44, velocity=100, time=0),
    Message('note_on', channel=9, note=44, velocity=0, time=29),
    Message('note_on', channel=9, note=44, velocity=100, time=1),
    Message('note_on', channel=9, note=40, velocity=0, time=29),
    Message('note_on', channel=9, note=44, velocity=0, time=0),
    Message('note_on', channel=9, note=44, velocity=100, time=1),
    Message('note_on', channel=9, note=44, velocity=0, time=29),
    Message('note_on', channel=9, note=44, velocity=100, time=1),
    Message('note_on', channel=9, note=44, velocity=0, time=29),
    Message('note_on', channel=9, note=44, velocity=100, time=1),
    Message('note_on', channel=9, note=44, velocity=0, time=29),
    Message('note_on', channel=9, note=44, velocity=100, time=1),
    Message('note_on', channel=9, note=44, velocity=0, time=29),
    Message('note_on', channel=9, note=44, velocity=100, time=1),
    Message('note_on', channel=9, note=44, velocity=0, time=29),
    Message('note_on', channel=9, note=44, velocity=100, time=1),
    Message('note_on', channel=9, note=44, velocity=0, time=29),
    Message('note_on', channel=9, note=40, velocity=100, time=1),
    Message('note_on', channel=9, note=44, velocity=100, time=0),
    Message('note_on', channel=9, note=44, velocity=0, time=29),
    Message('note_on', channel=9, note=44, velocity=100, time=1),
    Message('note_on', channel=9, note=40, velocity=0, time=29),
    Message('note_on', channel=9, note=44, velocity=0, time=0),
    Message('note_on', channel=9, note=44, velocity=100, time=1),
    Message('note_on', channel=9, note=44, velocity=0, time=29),
    Message('note_on', channel=9, note=44, velocity=100, time=1),
    Message('note_on', channel=9, note=44, velocity=0, time=29),
    Message('note_on', channel=9, note=44, velocity=100, time=1),
    Message('note_on', channel=9, note=44, velocity=0, time=29),
    Message('note_on', channel=9, note=44, velocity=100, time=1),
    Message('note_on', channel=9, note=44, velocity=0, time=29),
    Message('note_on', channel=9, note=44, velocity=100, time=1),
    Message('note_on', channel=9, note=44, velocity=0, time=29),
    Message('note_on', channel=9, note=44, velocity=100, time=1),
    Message('note_on', channel=9, note=44, velocity=0, time=29),
    Message('note_on', channel=9, note=40, velocity=100, time=1),
    Message('note_on', channel=9, note=44, velocity=100, time=0),
    Message('note_on', channel=9, note=44, velocity=0, time=29),
    Message('note_on', channel=9, note=44, velocity=100, time=1),
    Message('note_on', channel=9, note=40, velocity=0, time=29),
    Message('note_on', channel=9, note=44, velocity=0, time=0),
    Message('note_on', channel=9, note=44, velocity=100, time=1),
    Message('note_on', channel=9, note=44, velocity=0, time=29),
    Message('note_on', channel=9, note=44, velocity=100, time=1),
    Message('note_on', channel=9, note=44, velocity=0, time=29),
    Message('note_on', channel=9, note=44, velocity=100, time=1),
    Message('note_on', channel=9, note=44, velocity=0, time=29),
    Message('note_on', channel=9, note=44, velocity=100, time=1),
    Message('note_on', channel=9, note=44, velocity=0, time=29),
    Message('note_on', channel=9, note=44, velocity=100, time=1),
    Message('note_on', channel=9, note=44, velocity=0, time=29),
    Message('note_on', channel=9, note=44, velocity=100, time=1),
    Message('note_on', channel=9, note=44, velocity=0, time=29),
    Message('note_on', channel=9, note=40, velocity=100, time=1),
    Message('note_on', channel=9, note=44, velocity=100, time=0),
    Message('note_on', channel=9, note=44, velocity=0, time=29),
    Message('note_on', channel=9, note=44, velocity=100, time=1),
    Message('note_on', channel=9, note=40, velocity=0, time=29),
    Message('note_on', channel=9, note=44, velocity=0, time=0),
    Message('note_on', channel=9, note=44, velocity=100, time=1),
    Message('note_on', channel=9, note=44, velocity=0, time=29),
    Message('note_on', channel=9, note=44, velocity=100, time=1),
    Message('note_on', channel=9, note=44, velocity=0, time=29),
    Message('note_on', channel=9, note=44, velocity=100, time=1),
    Message('note_on', channel=9, note=44, velocity=0, time=29),
    Message('note_on', channel=9, note=44, velocity=100, time=1),
    Message('note_on', channel=9, note=44, velocity=0, time=29),
    Message('note_on', channel=9, note=44, velocity=100, time=1),
    Message('note_on', channel=9, note=44, velocity=0, time=29),
    Message('note_on', channel=9, note=44, velocity=100, time=1),
    Message('note_on', channel=9, note=44, velocity=0, time=29),
    Message('note_on', channel=9, note=40, velocity=100, time=1),
    Message('note_on', channel=9, note=44, velocity=100, time=0),
    Message('note_on', channel=9, note=44, velocity=0, time=29),
    Message('note_on', channel=9, note=44, velocity=100, time=1),
    Message('note_on', channel=9, note=40, velocity=0, time=29),
    Message('note_on', channel=9, note=44, velocity=0, time=0),
    Message('note_on', channel=9, note=44, velocity=100, time=1),
    Message('note_on', channel=9, note=44, velocity=0, time=29),
    Message('note_on', channel=9, note=44, velocity=100, time=1),
    Message('note_on', channel=9, note=44, velocity=0, time=29),
    Message('note_on', channel=9, note=44, velocity=100, time=1),
    Message('note_on', channel=9, note=44, velocity=0, time=29),
    Message('note_on', channel=9, note=44, velocity=100, time=1),
    Message('note_on', channel=9, note=44, velocity=0, time=29),
    Message('note_on', channel=9, note=44, velocity=100, time=1),
    Message('note_on', channel=9, note=44, velocity=0, time=29),
    Message('note_on', channel=9, note=44, velocity=100, time=1),
    Message('note_on', channel=9, note=44, velocity=0, time=29),
    Message('note_on', channel=9, note=40, velocity=100, time=1),
    Message('note_on', channel=9, note=44, velocity=100, time=0),
    Message('note_on', channel=9, note=44, velocity=0, time=29),
    Message('note_on', channel=9, note=44, velocity=100, time=1),
    Message('note_on', channel=9, note=40, velocity=0, time=29),
    Message('note_on', channel=9, note=44, velocity=0, time=0),
    Message('note_on', channel=9, note=44, velocity=100, time=1),
    Message('note_on', channel=9, note=44, velocity=0, time=29),
    Message('note_on', channel=9, note=44, velocity=100, time=1),
    Message('note_on', channel=9, note=44, velocity=0, time=29),
    Message('note_on', channel=9, note=44, velocity=100, time=1),
    Message('note_on', channel=9, note=44, velocity=0, time=29),
    Message('note_on', channel=9, note=44, velocity=100, time=1),
    Message('note_on', channel=9, note=44, velocity=0, time=29),
    Message('note_on', channel=9, note=44, velocity=100, time=1),
    Message('note_on', channel=9, note=44, velocity=0, time=29),
    Message('note_on', channel=9, note=44, velocity=100, time=1),
    Message('note_on', channel=9, note=44, velocity=0, time=29),
    Message('note_on', channel=9, note=40, velocity=100, time=1),
    Message('note_on', channel=9, note=44, velocity=100, time=0),
    Message('note_on', channel=9, note=44, velocity=0, time=29),
    Message('note_on', channel=9, note=44, velocity=100, time=1),
    Message('note_on', channel=9, note=40, velocity=0, time=29),
    Message('note_on', channel=9, note=44, velocity=0, time=0),
    Message('note_on', channel=9, note=44, velocity=100, time=1),
    Message('note_on', channel=9, note=44, velocity=0, time=29),
    Message('note_on', channel=9, note=44, velocity=100, time=1),
    Message('note_on', channel=9, note=44, velocity=0, time=29),
    Message('note_on', channel=9, note=40, velocity=100, time=1),
    Message('note_on', channel=9, note=44, velocity=100, time=0),
    Message('note_on', channel=9, note=40, velocity=0, time=29),
    Message('note_on', channel=9, note=44, velocity=0, time=0),
    Message('note_on', channel=9, note=40, velocity=100, time=1),
    Message('note_on', channel=9, note=44, velocity=100, time=0),
    Message('note_on', channel=9, note=40, velocity=0, time=29),
    Message('note_on', channel=9, note=44, velocity=0, time=0),
    Message('note_on', channel=9, note=40, velocity=100, time=1),
    Message('note_on', channel=9, note=44, velocity=100, time=0),
    Message('note_on', channel=9, note=40, velocity=0, time=59),
    Message('note_on', channel=9, note=44, velocity=0, time=0),
    Message('note_on', channel=9, note=57, velocity=100, time=121),
    Message('note_on', channel=9, note=44, velocity=100, time=0),
    Message('note_on', channel=9, note=44, velocity=0, time=29),
    Message('note_on', channel=9, note=44, velocity=100, time=1),
    Message('note_on', channel=9, note=44, velocity=0, time=29),
    Message('note_on', channel=9, note=44, velocity=100, time=1),
    Message('note_on', channel=9, note=44, velocity=0, time=29),
    Message('note_on', channel=9, note=44, velocity=100, time=1),
    Message('note_on', channel=9, note=57, velocity=0, time=29),
    Message('note_on', channel=9, note=44, velocity=0, time=0),
    Message('note_on', channel=9, note=40, velocity=100, time=1),
    Message('note_on', channel=9, note=44, velocity=100, time=0),
    Message('note_on', channel=9, note=44, velocity=0, time=29),
    Message('note_on', channel=9, note=44, velocity=100, time=1),
    Message('note_on', channel=9, note=40, velocity=0, time=29),
    Message('note_on', channel=9, note=44, velocity=0, time=0),
    Message('note_on', channel=9, note=44, velocity=100, time=1),
    Message('note_on', channel=9, note=44, velocity=0, time=29),
    Message('note_on', channel=9, note=44, velocity=100, time=1),
    Message('note_on', channel=9, note=44, velocity=0, time=29),
    Message('note_on', channel=9, note=44, velocity=100, time=1),
    Message('note_on', channel=9, note=44, velocity=0, time=29),
    Message('note_on', channel=9, note=44, velocity=100, time=1),
    Message('note_on', channel=9, note=44, velocity=0, time=29),
    Message('note_on', channel=9, note=44, velocity=100, time=1),
    Message('note_on', channel=9, note=44, velocity=0, time=29),
    Message('note_on', channel=9, note=44, velocity=100, time=1),
    Message('note_on', channel=9, note=44, velocity=0, time=29),
    Message('note_on', channel=9, note=40, velocity=100, time=1),
    Message('note_on', channel=9, note=44, velocity=100, time=0),
    Message('note_on', channel=9, note=44, velocity=0, time=29),
    Message('note_on', channel=9, note=44, velocity=100, time=1),
    Message('note_on', channel=9, note=40, velocity=0, time=29),
    Message('note_on', channel=9, note=44, velocity=0, time=0),
    Message('note_on', channel=9, note=44, velocity=100, time=1),
    Message('note_on', channel=9, note=44, velocity=0, time=29),
    Message('note_on', channel=9, note=44, velocity=100, time=1),
    Message('note_on', channel=9, note=44, velocity=0, time=29),
    Message('note_on', channel=9, note=44, velocity=100, time=1),
    Message('note_on', channel=9, note=44, velocity=0, time=29),
    Message('note_on', channel=9, note=44, velocity=100, time=1),
    Message('note_on', channel=9, note=44, velocity=0, time=29),
    Message('note_on', channel=9, note=44, velocity=100, time=1),
    Message('note_on', channel=9, note=44, velocity=0, time=29),
    Message('note_on', channel=9, note=44, velocity=100, time=1),
    Message('note_on', channel=9, note=44, velocity=0, time=29),
    Message('note_on', channel=9, note=40, velocity=100, time=1),
    Message('note_on', channel=9, note=44, velocity=100, time=0),
    Message('note_on', channel=9, note=44, velocity=0, time=29),
    Message('note_on', channel=9, note=44, velocity=100, time=1),
    Message('note_on', channel=9, note=40, velocity=0, time=29),
    Message('note_on', channel=9, note=44, velocity=0, time=0),
    Message('note_on', channel=9, note=44, velocity=100, time=1),
    Message('note_on', channel=9, note=44, velocity=0, time=29),
    Message('note_on', channel=9, note=44, velocity=100, time=1),
    Message('note_on', channel=9, note=44, velocity=0, time=29),
    Message('note_on', channel=9, note=44, velocity=100, time=1),
    Message('note_on', channel=9, note=44, velocity=0, time=29),
    Message('note_on', channel=9, note=44, velocity=100, time=1),
    Message('note_on', channel=9, note=44, velocity=0, time=29),
    Message('note_on', channel=9, note=44, velocity=100, time=1),
    Message('note_on', channel=9, note=44, velocity=0, time=29),
    Message('note_on', channel=9, note=44, velocity=100, time=1),
    Message('note_on', channel=9, note=44, velocity=0, time=29),
    Message('note_on', channel=9, note=40, velocity=100, time=1),
    Message('note_on', channel=9, note=44, velocity=100, time=0),
    Message('note_on', channel=9, note=44, velocity=0, time=29),
    Message('note_on', channel=9, note=44, velocity=100, time=1),
    Message('note_on', channel=9, note=40, velocity=0, time=29),
    Message('note_on', channel=9, note=44, velocity=0, time=0),
    Message('note_on', channel=9, note=44, velocity=100, time=1),
    Message('note_on', channel=9, note=44, velocity=0, time=29),
    Message('note_on', channel=9, note=44, velocity=100, time=1),
    Message('note_on', channel=9, note=44, velocity=0, time=29),
    Message('note_on', channel=9, note=44, velocity=100, time=1),
    Message('note_on', channel=9, note=57, velocity=100, time=0),
    Message('note_on', channel=9, note=44, velocity=0, time=29),
    Message('note_on', channel=9, note=44, velocity=100, time=1),
    Message('note_on', channel=9, note=44, velocity=0, time=29),
    Message('note_on', channel=9, note=44, velocity=100, time=1),
    Message('note_on', channel=9, note=44, velocity=0, time=29),
    Message('note_on', channel=9, note=44, velocity=100, time=1),
    Message('note_on', channel=9, note=57, velocity=0, time=29),
    Message('note_on', channel=9, note=44, velocity=0, time=0),
    Message('note_on', channel=9, note=40, velocity=100, time=1),
    Message('note_on', channel=9, note=44, velocity=100, time=0),
    Message('note_on', channel=9, note=44, velocity=0, time=29),
    Message('note_on', channel=9, note=44, velocity=100, time=1),
    Message('note_on', channel=9, note=40, velocity=0, time=29),
    Message('note_on', channel=9, note=44, velocity=0, time=0),
    Message('note_on', channel=9, note=44, velocity=100, time=1),
    Message('note_on', channel=9, note=44, velocity=0, time=29),
    Message('note_on', channel=9, note=44, velocity=100, time=1),
    Message('note_on', channel=9, note=44, velocity=0, time=29),
    Message('note_on', channel=9, note=44, velocity=100, time=1),
    Message('note_on', channel=9, note=44, velocity=0, time=29),
    Message('note_on', channel=9, note=44, velocity=100, time=1),
    Message('note_on', channel=9, note=44, velocity=0, time=29),
    Message('note_on', channel=9, note=44, velocity=100, time=1),
    Message('note_on', channel=9, note=44, velocity=0, time=29),
    Message('note_on', channel=9, note=44, velocity=100, time=1),
    Message('note_on', channel=9, note=44, velocity=0, time=29),
    Message('note_on', channel=9, note=40, velocity=100, time=1),
    Message('note_on', channel=9, note=44, velocity=100, time=0),
    Message('note_on', channel=9, note=44, velocity=0, time=29),
    Message('note_on', channel=9, note=44, velocity=100, time=1),
    Message('note_on', channel=9, note=40, velocity=0, time=29),
    Message('note_on', channel=9, note=44, velocity=0, time=0),
    Message('note_on', channel=9, note=44, velocity=100, time=1),
    Message('note_on', channel=9, note=44, velocity=0, time=29),
    Message('note_on', channel=9, note=44, velocity=100, time=1),
    Message('note_on', channel=9, note=44, velocity=0, time=29),
    Message('note_on', channel=9, note=44, velocity=100, time=1),
    Message('note_on', channel=9, note=44, velocity=0, time=29),
    Message('note_on', channel=9, note=44, velocity=100, time=1),
    Message('note_on', channel=9, note=44, velocity=0, time=29),
    Message('note_on', channel=9, note=44, velocity=100, time=1),
    Message('note_on', channel=9, note=44, velocity=0, time=29),
    Message('note_on', channel=9, note=44, velocity=100, time=1),
    Message('note_on', channel=9, note=44, velocity=0, time=29),
    Message('note_on', channel=9, note=40, velocity=100, time=1),
    Message('note_on', channel=9, note=44, velocity=100, time=0),
    Message('note_on', channel=9, note=44, velocity=0, time=29),
    Message('note_on', channel=9, note=44, velocity=100, time=1),
    Message('note_on', channel=9, note=40, velocity=0, time=29),
    Message('note_on', channel=9, note=44, velocity=0, time=0),
    Message('note_on', channel=9, note=44, velocity=100, time=1),
    Message('note_on', channel=9, note=44, velocity=0, time=29),
    Message('note_on', channel=9, note=44, velocity=100, time=1),
    Message('note_on', channel=9, note=44, velocity=0, time=29),
    Message('note_on', channel=9, note=44, velocity=100, time=1),
    Message('note_on', channel=9, note=44, velocity=0, time=29),
    Message('note_on', channel=9, note=44, velocity=100, time=1),
    Message('note_on', channel=9, note=44, velocity=0, time=29),
    Message('note_on', channel=9, note=44, velocity=100, time=1),
    Message('note_on', channel=9, note=44, velocity=0, time=29),
    Message('note_on', channel=9, note=44, velocity=100, time=1),
    Message('note_on', channel=9, note=44, velocity=0, time=29),
    Message('note_on', channel=9, note=40, velocity=100, time=1),
    Message('note_on', channel=9, note=44, velocity=100, time=0),
    Message('note_on', channel=9, note=44, velocity=0, time=29),
    Message('note_on', channel=9, note=44, velocity=100, time=1),
    Message('note_on', channel=9, note=40, velocity=0, time=29),
    Message('note_on', channel=9, note=44, velocity=0, time=0),
    Message('note_on', channel=9, note=44, velocity=100, time=1),
    Message('note_on', channel=9, note=44, velocity=0, time=29),
    Message('note_on', channel=9, note=44, velocity=100, time=1),
    Message('note_on', channel=9, note=44, velocity=0, time=29),
    Message('note_on', channel=9, note=44, velocity=100, time=1),
    Message('note_on', channel=9, note=57, velocity=100, time=0),
    Message('note_on', channel=9, note=44, velocity=0, time=29),
    Message('note_on', channel=9, note=44, velocity=100, time=1),
    Message('note_on', channel=9, note=44, velocity=0, time=29),
    Message('note_on', channel=9, note=44, velocity=100, time=1),
    Message('note_on', channel=9, note=44, velocity=0, time=29),
    Message('note_on', channel=9, note=44, velocity=100, time=1),
    Message('note_on', channel=9, note=57, velocity=0, time=29),
    Message('note_on', channel=9, note=44, velocity=0, time=0),
    Message('note_on', channel=9, note=40, velocity=100, time=1),
    Message('note_on', channel=9, note=44, velocity=100, time=0),
    Message('note_on', channel=9, note=44, velocity=0, time=29),
    Message('note_on', channel=9, note=44, velocity=100, time=1),
    Message('note_on', channel=9, note=40, velocity=0, time=29),
    Message('note_on', channel=9, note=44, velocity=0, time=0),
    Message('note_on', channel=9, note=44, velocity=100, time=1),
    Message('note_on', channel=9, note=44, velocity=0, time=29),
    Message('note_on', channel=9, note=44, velocity=100, time=1),
    Message('note_on', channel=9, note=44, velocity=0, time=29),
    Message('note_on', channel=9, note=44, velocity=100, time=1),
    Message('note_on', channel=9, note=44, velocity=0, time=29),
    Message('note_on', channel=9, note=44, velocity=100, time=1),
    Message('note_on', channel=9, note=44, velocity=0, time=29),
    Message('note_on', channel=9, note=44, velocity=100, time=1),
    Message('note_on', channel=9, note=44, velocity=0, time=29),
    Message('note_on', channel=9, note=44, velocity=100, time=1),
    Message('note_on', channel=9, note=44, velocity=0, time=29),
    Message('note_on', channel=9, note=40, velocity=100, time=1),
    Message('note_on', channel=9, note=44, velocity=100, time=0),
    Message('note_on', channel=9, note=44, velocity=0, time=29),
    Message('note_on', channel=9, note=44, velocity=100, time=1),
    Message('note_on', channel=9, note=40, velocity=0, time=29),
    Message('note_on', channel=9, note=44, velocity=0, time=0),
    Message('note_on', channel=9, note=44, velocity=100, time=1),
    Message('note_on', channel=9, note=44, velocity=0, time=29),
    Message('note_on', channel=9, note=44, velocity=100, time=1),
    Message('note_on', channel=9, note=44, velocity=0, time=29),
    Message('note_on', channel=9, note=44, velocity=100, time=1),
    Message('note_on', channel=9, note=44, velocity=0, time=29),
    Message('note_on', channel=9, note=44, velocity=100, time=1),
    Message('note_on', channel=9, note=44, velocity=0, time=29),
    Message('note_on', channel=9, note=44, velocity=100, time=1),
    Message('note_on', channel=9, note=44, velocity=0, time=29),
    Message('note_on', channel=9, note=44, velocity=100, time=1),
    Message('note_on', channel=9, note=44, velocity=0, time=29),
    Message('note_on', channel=9, note=40, velocity=100, time=1),
    Message('note_on', channel=9, note=44, velocity=100, time=0),
    Message('note_on', channel=9, note=44, velocity=0, time=29),
    Message('note_on', channel=9, note=44, velocity=100, time=1),
    Message('note_on', channel=9, note=40, velocity=0, time=29),
    Message('note_on', channel=9, note=44, velocity=0, time=0),
    Message('note_on', channel=9, note=44, velocity=100, time=1),
    Message('note_on', channel=9, note=44, velocity=0, time=29),
    Message('note_on', channel=9, note=44, velocity=100, time=1),
    Message('note_on', channel=9, note=44, velocity=0, time=29),
    Message('note_on', channel=9, note=44, velocity=100, time=1),
    Message('note_on', channel=9, note=44, velocity=0, time=29),
    Message('note_on', channel=9, note=44, velocity=100, time=1),
    Message('note_on', channel=9, note=44, velocity=0, time=29),
    Message('note_on', channel=9, note=44, velocity=100, time=1),
    Message('note_on', channel=9, note=44, velocity=0, time=29),
    Message('note_on', channel=9, note=44, velocity=100, time=1),
    Message('note_on', channel=9, note=44, velocity=0, time=29),
    Message('note_on', channel=9, note=40, velocity=100, time=1),
    Message('note_on', channel=9, note=44, velocity=100, time=0),
    Message('note_on', channel=9, note=57, velocity=100, time=0),
    Message('note_on', channel=9, note=44, velocity=0, time=29),
    Message('note_on', channel=9, note=57, velocity=0, time=0),
    Message('note_on', channel=9, note=44, velocity=100, time=1),
    Message('note_on', channel=9, note=57, velocity=100, time=0),
    Message('note_on', channel=9, note=40, velocity=0, time=29),
    Message('note_on', channel=9, note=44, velocity=0, time=0),
    Message('note_on', channel=9, note=57, velocity=0, time=0),
    Message('note_on', channel=9, note=44, velocity=100, time=1),
    Message('note_on', channel=9, note=57, velocity=100, time=0),
    Message('note_on', channel=9, note=44, velocity=0, time=29),
    Message('note_on', channel=9, note=44, velocity=100, time=1),
    Message('note_on', channel=9, note=57, velocity=0, time=29),
    Message('note_on', channel=9, note=44, velocity=0, time=0),
    Message('note_on', channel=9, note=44, velocity=100, time=1),
    Message('note_on', channel=9, note=44, velocity=0, time=29),
    Message('note_on', channel=9, note=44, velocity=100, time=1),
    Message('note_on', channel=9, note=44, velocity=0, time=29),
    Message('note_on', channel=9, note=44, velocity=100, time=1),
    Message('note_on', channel=9, note=44, velocity=0, time=29),
    Message('note_on', channel=9, note=44, velocity=100, time=1),
    Message('note_on', channel=9, note=44, velocity=0, time=29),
    Message('note_on', channel=9, note=40, velocity=100, time=1),
    Message('note_on', channel=9, note=44, velocity=100, time=0),
    Message('note_on', channel=9, note=44, velocity=0, time=29),
    Message('note_on', channel=9, note=44, velocity=100, time=1),
    Message('note_on', channel=9, note=40, velocity=0, time=29),
    Message('note_on', channel=9, note=44, velocity=0, time=0),
    Message('note_on', channel=9, note=44, velocity=100, time=1),
    Message('note_on', channel=9, note=44, velocity=0, time=29),
    Message('note_on', channel=9, note=44, velocity=100, time=1),
    Message('note_on', channel=9, note=44, velocity=0, time=29),
    Message('note_on', channel=9, note=44, velocity=100, time=1),
    Message('note_on', channel=9, note=44, velocity=0, time=29),
    Message('note_on', channel=9, note=44, velocity=100, time=1),
    Message('note_on', channel=9, note=44, velocity=0, time=29),
    Message('note_on', channel=9, note=44, velocity=100, time=1),
    Message('note_on', channel=9, note=44, velocity=0, time=29),
    Message('note_on', channel=9, note=44, velocity=100, time=1),
    Message('note_on', channel=9, note=44, velocity=0, time=29),
    Message('note_on', channel=9, note=40, velocity=100, time=1),
    Message('note_on', channel=9, note=44, velocity=100, time=0),
    Message('note_on', channel=9, note=44, velocity=0, time=29),
    Message('note_on', channel=9, note=44, velocity=100, time=1),
    Message('note_on', channel=9, note=40, velocity=0, time=29),
    Message('note_on', channel=9, note=44, velocity=0, time=0),
    Message('note_on', channel=9, note=44, velocity=100, time=1),
    Message('note_on', channel=9, note=44, velocity=0, time=29),
    Message('note_on', channel=9, note=44, velocity=100, time=1),
    Message('note_on', channel=9, note=44, velocity=0, time=29),
    Message('note_on', channel=9, note=44, velocity=100, time=1),
    Message('note_on', channel=9, note=44, velocity=0, time=29),
    Message('note_on', channel=9, note=44, velocity=100, time=1),
    Message('note_on', channel=9, note=44, velocity=0, time=29),
    Message('note_on', channel=9, note=44, velocity=100, time=1),
    Message('note_on', channel=9, note=44, velocity=0, time=29),
    Message('note_on', channel=9, note=44, velocity=100, time=1),
    Message('note_on', channel=9, note=44, velocity=0, time=29),
    Message('note_on', channel=9, note=40, velocity=100, time=1),
    Message('note_on', channel=9, note=44, velocity=100, time=0),
    Message('note_on', channel=9, note=44, velocity=0, time=29),
    Message('note_on', channel=9, note=44, velocity=100, time=1),
    Message('note_on', channel=9, note=40, velocity=0, time=29),
    Message('note_on', channel=9, note=44, velocity=0, time=0),
    Message('note_on', channel=9, note=44, velocity=100, time=1),
    Message('note_on', channel=9, note=44, velocity=0, time=29),
    Message('note_on', channel=9, note=44, velocity=100, time=1),
    Message('note_on', channel=9, note=44, velocity=0, time=29),
    Message('note_on', channel=9, note=44, velocity=100, time=1),
    Message('note_on', channel=9, note=44, velocity=0, time=29),
    Message('note_on', channel=9, note=44, velocity=100, time=1),
    Message('note_on', channel=9, note=44, velocity=0, time=29),
    Message('note_on', channel=9, note=44, velocity=100, time=1),
    Message('note_on', channel=9, note=44, velocity=0, time=29),
    Message('note_on', channel=9, note=44, velocity=100, time=1),
    Message('note_on', channel=9, note=44, velocity=0, time=29),
    Message('note_on', channel=9, note=40, velocity=100, time=1),
    Message('note_on', channel=9, note=44, velocity=100, time=0),
    Message('note_on', channel=9, note=44, velocity=0, time=29),
    Message('note_on', channel=9, note=44, velocity=100, time=1),
    Message('note_on', channel=9, note=40, velocity=0, time=29),
    Message('note_on', channel=9, note=44, velocity=0, time=0),
    Message('note_on', channel=9, note=44, velocity=100, time=1),
    Message('note_on', channel=9, note=44, velocity=0, time=29),
    Message('note_on', channel=9, note=44, velocity=100, time=1),
    Message('note_on', channel=9, note=44, velocity=0, time=29),
    Message('note_on', channel=9, note=44, velocity=100, time=1),
    Message('note_on', channel=9, note=57, velocity=100, time=0),
    Message('note_on', channel=9, note=44, velocity=0, time=29),
    Message('note_on', channel=9, note=44, velocity=100, time=1),
    Message('note_on', channel=9, note=44, velocity=0, time=29),
    Message('note_on', channel=9, note=44, velocity=100, time=1),
    Message('note_on', channel=9, note=44, velocity=0, time=29),
    Message('note_on', channel=9, note=44, velocity=100, time=1),
    Message('note_on', channel=9, note=57, velocity=0, time=29),
    Message('note_on', channel=9, note=44, velocity=0, time=0),
    Message('note_on', channel=9, note=40, velocity=100, time=1),
    Message('note_on', channel=9, note=44, velocity=100, time=0),
    Message('note_on', channel=9, note=44, velocity=0, time=29),
    Message('note_on', channel=9, note=44, velocity=100, time=1),
    Message('note_on', channel=9, note=40, velocity=0, time=29),
    Message('note_on', channel=9, note=44, velocity=0, time=0),
    Message('note_on', channel=9, note=44, velocity=100, time=1),
    Message('note_on', channel=9, note=44, velocity=0, time=29),
    Message('note_on', channel=9, note=44, velocity=100, time=1),
    Message('note_on', channel=9, note=44, velocity=0, time=29),
    Message('note_on', channel=9, note=44, velocity=100, time=1),
    Message('note_on', channel=9, note=44, velocity=0, time=29),
    Message('note_on', channel=9, note=44, velocity=100, time=1),
    Message('note_on', channel=9, note=44, velocity=0, time=29),
    Message('note_on', channel=9, note=44, velocity=100, time=1),
    Message('note_on', channel=9, note=44, velocity=0, time=29),
    Message('note_on', channel=9, note=44, velocity=100, time=1),
    Message('note_on', channel=9, note=44, velocity=0, time=29),
    Message('note_on', channel=9, note=40, velocity=100, time=1),
    Message('note_on', channel=9, note=44, velocity=100, time=0),
    Message('note_on', channel=9, note=44, velocity=0, time=29),
    Message('note_on', channel=9, note=44, velocity=100, time=1),
    Message('note_on', channel=9, note=40, velocity=0, time=29),
    Message('note_on', channel=9, note=44, velocity=0, time=0),
    Message('note_on', channel=9, note=44, velocity=100, time=1),
    Message('note_on', channel=9, note=44, velocity=0, time=29),
    Message('note_on', channel=9, note=44, velocity=100, time=1),
    Message('note_on', channel=9, note=44, velocity=0, time=29),
    Message('note_on', channel=9, note=44, velocity=100, time=1),
    Message('note_on', channel=9, note=44, velocity=0, time=29),
    Message('note_on', channel=9, note=44, velocity=100, time=1),
    Message('note_on', channel=9, note=44, velocity=0, time=29),
    Message('note_on', channel=9, note=44, velocity=100, time=1),
    Message('note_on', channel=9, note=44, velocity=0, time=29),
    Message('note_on', channel=9, note=44, velocity=100, time=1),
    Message('note_on', channel=9, note=44, velocity=0, time=29),
    Message('note_on', channel=9, note=40, velocity=100, time=1),
    Message('note_on', channel=9, note=44, velocity=100, time=0),
    Message('note_on', channel=9, note=44, velocity=0, time=29),
    Message('note_on', channel=9, note=44, velocity=100, time=1),
    Message('note_on', channel=9, note=40, velocity=0, time=29),
    Message('note_on', channel=9, note=44, velocity=0, time=0),
    Message('note_on', channel=9, note=44, velocity=100, time=1),
    Message('note_on', channel=9, note=44, velocity=0, time=29),
    Message('note_on', channel=9, note=44, velocity=100, time=1),
    Message('note_on', channel=9, note=44, velocity=0, time=29),
    Message('note_on', channel=9, note=44, velocity=100, time=1),
    Message('note_on', channel=9, note=44, velocity=0, time=29),
    Message('note_on', channel=9, note=44, velocity=100, time=1),
    Message('note_on', channel=9, note=44, velocity=0, time=29),
    Message('note_on', channel=9, note=44, velocity=100, time=1),
    Message('note_on', channel=9, note=44, velocity=0, time=29),
    Message('note_on', channel=9, note=44, velocity=100, time=1),
    Message('note_on', channel=9, note=44, velocity=0, time=29),
    Message('note_on', channel=9, note=40, velocity=100, time=1),
    Message('note_on', channel=9, note=44, velocity=100, time=0),
    Message('note_on', channel=9, note=44, velocity=0, time=29),
    Message('note_on', channel=9, note=44, velocity=100, time=1),
    Message('note_on', channel=9, note=40, velocity=0, time=29),
    Message('note_on', channel=9, note=44, velocity=0, time=0),
    Message('note_on', channel=9, note=44, velocity=100, time=1),
    Message('note_on', channel=9, note=44, velocity=0, time=29),
    Message('note_on', channel=9, note=44, velocity=100, time=1),
    Message('note_on', channel=9, note=44, velocity=0, time=29),
    Message('note_on', channel=9, note=44, velocity=100, time=1),
    Message('note_on', channel=9, note=57, velocity=100, time=0),
    Message('note_on', channel=9, note=44, velocity=0, time=29),
    Message('note_on', channel=9, note=44, velocity=100, time=1),
    Message('note_on', channel=9, note=44, velocity=0, time=29),
    Message('note_on', channel=9, note=44, velocity=100, time=1),
    Message('note_on', channel=9, note=44, velocity=0, time=29),
    Message('note_on', channel=9, note=44, velocity=100, time=1),
    Message('note_on', channel=9, note=57, velocity=0, time=29),
    Message('note_on', channel=9, note=44, velocity=0, time=0),
    Message('note_on', channel=9, note=40, velocity=100, time=1),
    Message('note_on', channel=9, note=44, velocity=100, time=0),
    Message('note_on', channel=9, note=44, velocity=0, time=29),
    Message('note_on', channel=9, note=44, velocity=100, time=1),
    Message('note_on', channel=9, note=40, velocity=0, time=29),
    Message('note_on', channel=9, note=44, velocity=0, time=0),
    Message('note_on', channel=9, note=44, velocity=100, time=1),
    Message('note_on', channel=9, note=44, velocity=0, time=29),
    Message('note_on', channel=9, note=44, velocity=100, time=1),
    Message('note_on', channel=9, note=44, velocity=0, time=29),
    Message('note_on', channel=9, note=44, velocity=100, time=1),
    Message('note_on', channel=9, note=44, velocity=0, time=29),
    Message('note_on', channel=9, note=44, velocity=100, time=1),
    Message('note_on', channel=9, note=44, velocity=0, time=29),
    Message('note_on', channel=9, note=44, velocity=100, time=1),
    Message('note_on', channel=9, note=44, velocity=0, time=29),
    Message('note_on', channel=9, note=44, velocity=100, time=1),
    Message('note_on', channel=9, note=44, velocity=0, time=29),
    Message('note_on', channel=9, note=40, velocity=100, time=1),
    Message('note_on', channel=9, note=44, velocity=100, time=0),
    Message('note_on', channel=9, note=44, velocity=0, time=29),
    Message('note_on', channel=9, note=44, velocity=100, time=1),
    Message('note_on', channel=9, note=40, velocity=0, time=29),
    Message('note_on', channel=9, note=44, velocity=0, time=0),
    Message('note_on', channel=9, note=44, velocity=100, time=1),
    Message('note_on', channel=9, note=44, velocity=0, time=29),
    Message('note_on', channel=9, note=44, velocity=100, time=1),
    Message('note_on', channel=9, note=44, velocity=0, time=29),
    Message('note_on', channel=9, note=44, velocity=100, time=1),
    Message('note_on', channel=9, note=44, velocity=0, time=29),
    Message('note_on', channel=9, note=44, velocity=100, time=1),
    Message('note_on', channel=9, note=44, velocity=0, time=29),
    Message('note_on', channel=9, note=44, velocity=100, time=1),
    Message('note_on', channel=9, note=44, velocity=0, time=29),
    Message('note_on', channel=9, note=44, velocity=100, time=1),
    Message('note_on', channel=9, note=44, velocity=0, time=29),
    Message('note_on', channel=9, note=40, velocity=100, time=1),
    Message('note_on', channel=9, note=44, velocity=100, time=0),
    Message('note_on', channel=9, note=44, velocity=0, time=29),
    Message('note_on', channel=9, note=44, velocity=100, time=1),
    Message('note_on', channel=9, note=40, velocity=0, time=29),
    Message('note_on', channel=9, note=44, velocity=0, time=0),
    Message('note_on', channel=9, note=44, velocity=100, time=1),
    Message('note_on', channel=9, note=44, velocity=0, time=29),
    Message('note_on', channel=9, note=44, velocity=100, time=1),
    Message('note_on', channel=9, note=44, velocity=0, time=29),
    Message('note_on', channel=9, note=44, velocity=100, time=1),
    Message('note_on', channel=9, note=44, velocity=0, time=29),
    Message('note_on', channel=9, note=44, velocity=100, time=1),
    Message('note_on', channel=9, note=44, velocity=0, time=29),
    Message('note_on', channel=9, note=44, velocity=100, time=1),
    Message('note_on', channel=9, note=44, velocity=0, time=29),
    Message('note_on', channel=9, note=44, velocity=100, time=1),
    Message('note_on', channel=9, note=44, velocity=0, time=29),
    Message('note_on', channel=9, note=40, velocity=100, time=1),
    Message('note_on', channel=9, note=44, velocity=100, time=0),
    Message('note_on', channel=9, note=44, velocity=0, time=29),
    Message('note_on', channel=9, note=44, velocity=100, time=1),
    Message('note_on', channel=9, note=40, velocity=0, time=29),
    Message('note_on', channel=9, note=44, velocity=0, time=0),
    Message('note_on', channel=9, note=44, velocity=100, time=1),
    Message('note_on', channel=9, note=44, velocity=0, time=29),
    Message('note_on', channel=9, note=44, velocity=100, time=1),
    Message('note_on', channel=9, note=44, velocity=0, time=29),
    Message('note_on', channel=9, note=44, velocity=100, time=1),
    Message('note_on', channel=9, note=44, velocity=0, time=29),
    Message('note_on', channel=9, note=44, velocity=100, time=1),
    Message('note_on', channel=9, note=44, velocity=0, time=29),
    Message('note_on', channel=9, note=44, velocity=100, time=1),
    Message('note_on', channel=9, note=44, velocity=0, time=29),
    Message('note_on', channel=9, note=44, velocity=100, time=1),
    Message('note_on', channel=9, note=44, velocity=0, time=29),
    Message('note_on', channel=9, note=40, velocity=100, time=1),
    Message('note_on', channel=9, note=44, velocity=100, time=0),
    Message('note_on', channel=9, note=44, velocity=0, time=29),
    Message('note_on', channel=9, note=44, velocity=100, time=1),
    Message('note_on', channel=9, note=40, velocity=0, time=29),
    Message('note_on', channel=9, note=44, velocity=0, time=0),
    Message('note_on', channel=9, note=44, velocity=100, time=1),
    Message('note_on', channel=9, note=44, velocity=0, time=29),
    Message('note_on', channel=9, note=44, velocity=100, time=1),
    Message('note_on', channel=9, note=44, velocity=0, time=29),
    Message('note_on', channel=9, note=44, velocity=100, time=1),
    Message('note_on', channel=9, note=44, velocity=0, time=29),
    Message('note_on', channel=9, note=44, velocity=100, time=1),
    Message('note_on', channel=9, note=44, velocity=0, time=29),
    Message('note_on', channel=9, note=44, velocity=100, time=1),
    Message('note_on', channel=9, note=44, velocity=0, time=29),
    Message('note_on', channel=9, note=44, velocity=100, time=1),
    Message('note_on', channel=9, note=44, velocity=0, time=29),
    Message('note_on', channel=9, note=40, velocity=100, time=1),
    Message('note_on', channel=9, note=44, velocity=100, time=0),
    Message('note_on', channel=9, note=44, velocity=0, time=29),
    Message('note_on', channel=9, note=44, velocity=100, time=1),
    Message('note_on', channel=9, note=40, velocity=0, time=29),
    Message('note_on', channel=9, note=44, velocity=0, time=0),
    Message('note_on', channel=9, note=44, velocity=100, time=1),
    Message('note_on', channel=9, note=44, velocity=0, time=29),
    Message('note_on', channel=9, note=44, velocity=100, time=1),
    Message('note_on', channel=9, note=44, velocity=0, time=29),
    Message('note_on', channel=9, note=44, velocity=100, time=1),
    Message('note_on', channel=9, note=44, velocity=0, time=29),
    Message('note_on', channel=9, note=44, velocity=100, time=1),
    Message('note_on', channel=9, note=44, velocity=0, time=29),
    Message('note_on', channel=9, note=44, velocity=100, time=1),
    Message('note_on', channel=9, note=44, velocity=0, time=29),
    Message('note_on', channel=9, note=44, velocity=100, time=1),
    Message('note_on', channel=9, note=44, velocity=0, time=29),
    Message('note_on', channel=9, note=40, velocity=100, time=1),
    Message('note_on', channel=9, note=44, velocity=100, time=0),
    Message('note_on', channel=9, note=44, velocity=0, time=29),
    Message('note_on', channel=9, note=44, velocity=100, time=1),
    Message('note_on', channel=9, note=40, velocity=0, time=29),
    Message('note_on', channel=9, note=44, velocity=0, time=0),
    Message('note_on', channel=9, note=44, velocity=100, time=1),
    Message('note_on', channel=9, note=44, velocity=0, time=29),
    Message('note_on', channel=9, note=44, velocity=100, time=1),
    Message('note_on', channel=9, note=44, velocity=0, time=29),
    Message('note_on', channel=9, note=44, velocity=100, time=1),
    Message('note_on', channel=9, note=44, velocity=0, time=29),
    Message('note_on', channel=9, note=44, velocity=100, time=1),
    Message('note_on', channel=9, note=44, velocity=0, time=29),
    Message('note_on', channel=9, note=44, velocity=100, time=1),
    Message('note_on', channel=9, note=44, velocity=0, time=29),
    Message('note_on', channel=9, note=44, velocity=100, time=1),
    Message('note_on', channel=9, note=44, velocity=0, time=29),
    Message('note_on', channel=9, note=40, velocity=100, time=1),
    Message('note_on', channel=9, note=44, velocity=100, time=0),
    Message('note_on', channel=9, note=44, velocity=0, time=29),
    Message('note_on', channel=9, note=44, velocity=100, time=1),
    Message('note_on', channel=9, note=40, velocity=0, time=29),
    Message('note_on', channel=9, note=44, velocity=0, time=0),
    Message('note_on', channel=9, note=44, velocity=100, time=1),
    Message('note_on', channel=9, note=57, velocity=100, time=0),
    Message('note_on', channel=9, note=44, velocity=0, time=29),
    Message('note_on', channel=9, note=44, velocity=100, time=1),
    Message('note_on', channel=9, note=57, velocity=0, time=29),
    Message('note_on', channel=9, note=44, velocity=0, time=0),
    Message('note_on', channel=9, note=44, velocity=100, time=1),
    Message('note_on', channel=9, note=44, velocity=0, time=29),
    Message('note_on', channel=9, note=44, velocity=100, time=1),
    Message('note_on', channel=9, note=44, velocity=0, time=29),
    Message('note_on', channel=9, note=44, velocity=100, time=1),
    Message('note_on', channel=9, note=44, velocity=0, time=29),
    Message('note_on', channel=9, note=44, velocity=100, time=1),
    Message('note_on', channel=9, note=44, velocity=0, time=29),
    Message('note_on', channel=9, note=40, velocity=100, time=1),
    Message('note_on', channel=9, note=44, velocity=100, time=0),
    Message('note_on', channel=9, note=44, velocity=0, time=29),
    Message('note_on', channel=9, note=44, velocity=100, time=1),
    Message('note_on', channel=9, note=40, velocity=0, time=29),
    Message('note_on', channel=9, note=44, velocity=0, time=0),
    Message('note_on', channel=9, note=44, velocity=100, time=1),
    Message('note_on', channel=9, note=44, velocity=0, time=29),
    Message('note_on', channel=9, note=44, velocity=100, time=1),
    Message('note_on', channel=9, note=44, velocity=0, time=29),
    Message('note_on', channel=9, note=44, velocity=100, time=1),
    Message('note_on', channel=9, note=44, velocity=0, time=29),
    Message('note_on', channel=9, note=44, velocity=100, time=1),
    Message('note_on', channel=9, note=44, velocity=0, time=29),
    Message('note_on', channel=9, note=44, velocity=100, time=1),
    Message('note_on', channel=9, note=44, velocity=0, time=29),
    Message('note_on', channel=9, note=44, velocity=100, time=1),
    Message('note_on', channel=9, note=44, velocity=0, time=29),
    Message('note_on', channel=9, note=40, velocity=100, time=1),
    Message('note_on', channel=9, note=44, velocity=100, time=0),
    Message('note_on', channel=9, note=44, velocity=0, time=29),
    Message('note_on', channel=9, note=44, velocity=100, time=1),
    Message('note_on', channel=9, note=40, velocity=0, time=29),
    Message('note_on', channel=9, note=44, velocity=0, time=0),
    Message('note_on', channel=9, note=44, velocity=100, time=1),
    Message('note_on', channel=9, note=44, velocity=0, time=29),
    Message('note_on', channel=9, note=44, velocity=100, time=1),
    Message('note_on', channel=9, note=44, velocity=0, time=29),
    Message('note_on', channel=9, note=44, velocity=100, time=1),
    Message('note_on', channel=9, note=44, velocity=0, time=29),
    Message('note_on', channel=9, note=44, velocity=100, time=1),
    Message('note_on', channel=9, note=44, velocity=0, time=29),
    Message('note_on', channel=9, note=44, velocity=100, time=1),
    Message('note_on', channel=9, note=44, velocity=0, time=29),
    Message('note_on', channel=9, note=44, velocity=100, time=1),
    Message('note_on', channel=9, note=44, velocity=0, time=29),
    Message('note_on', channel=9, note=40, velocity=100, time=1),
    Message('note_on', channel=9, note=44, velocity=100, time=0),
    Message('note_on', channel=9, note=44, velocity=0, time=29),
    Message('note_on', channel=9, note=44, velocity=100, time=1),
    Message('note_on', channel=9, note=40, velocity=0, time=29),
    Message('note_on', channel=9, note=44, velocity=0, time=0),
    Message('note_on', channel=9, note=44, velocity=100, time=1),
    Message('note_on', channel=9, note=44, velocity=0, time=29),
    Message('note_on', channel=9, note=44, velocity=100, time=1),
    Message('note_on', channel=9, note=44, velocity=0, time=29),
    Message('note_on', channel=9, note=44, velocity=100, time=1),
    Message('note_on', channel=9, note=44, velocity=0, time=29),
    Message('note_on', channel=9, note=44, velocity=100, time=1),
    Message('note_on', channel=9, note=44, velocity=0, time=29),
    Message('note_on', channel=9, note=44, velocity=100, time=1),
    Message('note_on', channel=9, note=44, velocity=0, time=29),
    Message('note_on', channel=9, note=44, velocity=100, time=1),
    Message('note_on', channel=9, note=44, velocity=0, time=29),
    Message('note_on', channel=9, note=40, velocity=100, time=1),
    Message('note_on', channel=9, note=44, velocity=100, time=0),
    Message('note_on', channel=9, note=44, velocity=0, time=29),
    Message('note_on', channel=9, note=44, velocity=100, time=1),
    Message('note_on', channel=9, note=40, velocity=0, time=29),
    Message('note_on', channel=9, note=44, velocity=0, time=0),
    Message('note_on', channel=9, note=44, velocity=100, time=1),
    Message('note_on', channel=9, note=44, velocity=0, time=29),
    Message('note_on', channel=9, note=44, velocity=100, time=1),
    Message('note_on', channel=9, note=44, velocity=0, time=29),
    Message('note_on', channel=9, note=44, velocity=100, time=1),
    Message('note_on', channel=9, note=57, velocity=100, time=0),
    Message('note_on', channel=9, note=44, velocity=0, time=29),
    Message('note_on', channel=9, note=44, velocity=100, time=1),
    Message('note_on', channel=9, note=44, velocity=0, time=29),
    Message('note_on', channel=9, note=44, velocity=100, time=1),
    Message('note_on', channel=9, note=44, velocity=0, time=29),
    Message('note_on', channel=9, note=44, velocity=100, time=1),
    Message('note_on', channel=9, note=57, velocity=0, time=29),
    Message('note_on', channel=9, note=44, velocity=0, time=0),
    Message('note_on', channel=9, note=40, velocity=100, time=1),
    Message('note_on', channel=9, note=44, velocity=100, time=0),
    Message('note_on', channel=9, note=44, velocity=0, time=29),
    Message('note_on', channel=9, note=44, velocity=100, time=1),
    Message('note_on', channel=9, note=40, velocity=0, time=29),
    Message('note_on', channel=9, note=44, velocity=0, time=0),
    Message('note_on', channel=9, note=44, velocity=100, time=1),
    Message('note_on', channel=9, note=44, velocity=0, time=29),
    Message('note_on', channel=9, note=44, velocity=100, time=1),
    Message('note_on', channel=9, note=44, velocity=0, time=29),
    Message('note_on', channel=9, note=44, velocity=100, time=1),
    Message('note_on', channel=9, note=44, velocity=0, time=29),
    Message('note_on', channel=9, note=44, velocity=100, time=1),
    Message('note_on', channel=9, note=44, velocity=0, time=29),
    Message('note_on', channel=9, note=44, velocity=100, time=1),
    Message('note_on', channel=9, note=44, velocity=0, time=29),
    Message('note_on', channel=9, note=44, velocity=100, time=1),
    Message('note_on', channel=9, note=44, velocity=0, time=29),
    Message('note_on', channel=9, note=40, velocity=100, time=1),
    Message('note_on', channel=9, note=44, velocity=100, time=0),
    Message('note_on', channel=9, note=44, velocity=0, time=29),
    Message('note_on', channel=9, note=44, velocity=100, time=1),
    Message('note_on', channel=9, note=40, velocity=0, time=29),
    Message('note_on', channel=9, note=44, velocity=0, time=0),
    Message('note_on', channel=9, note=44, velocity=100, time=1),
    Message('note_on', channel=9, note=44, velocity=0, time=29),
    Message('note_on', channel=9, note=44, velocity=100, time=1),
    Message('note_on', channel=9, note=44, velocity=0, time=29),
    Message('note_on', channel=9, note=44, velocity=100, time=1),
    Message('note_on', channel=9, note=44, velocity=0, time=29),
    Message('note_on', channel=9, note=44, velocity=100, time=1),
    Message('note_on', channel=9, note=44, velocity=0, time=29),
    Message('note_on', channel=9, note=44, velocity=100, time=1),
    Message('note_on', channel=9, note=44, velocity=0, time=29),
    Message('note_on', channel=9, note=44, velocity=100, time=1),
    Message('note_on', channel=9, note=44, velocity=0, time=29),
    Message('note_on', channel=9, note=40, velocity=100, time=1),
    Message('note_on', channel=9, note=44, velocity=100, time=0),
    Message('note_on', channel=9, note=44, velocity=0, time=29),
    Message('note_on', channel=9, note=44, velocity=100, time=1),
    Message('note_on', channel=9, note=40, velocity=0, time=29),
    Message('note_on', channel=9, note=44, velocity=0, time=0),
    Message('note_on', channel=9, note=44, velocity=100, time=1),
    Message('note_on', channel=9, note=44, velocity=0, time=29),
    Message('note_on', channel=9, note=44, velocity=100, time=1),
    Message('note_on', channel=9, note=44, velocity=0, time=29),
    Message('note_on', channel=9, note=44, velocity=100, time=1),
    Message('note_on', channel=9, note=44, velocity=0, time=29),
    Message('note_on', channel=9, note=44, velocity=100, time=1),
    Message('note_on', channel=9, note=44, velocity=0, time=29),
    Message('note_on', channel=9, note=44, velocity=100, time=1),
    Message('note_on', channel=9, note=44, velocity=0, time=29),
    Message('note_on', channel=9, note=44, velocity=100, time=1),
    Message('note_on', channel=9, note=44, velocity=0, time=29),
    Message('note_on', channel=9, note=40, velocity=100, time=1),
    Message('note_on', channel=9, note=44, velocity=100, time=0),
    Message('note_on', channel=9, note=44, velocity=0, time=29),
    Message('note_on', channel=9, note=44, velocity=100, time=1),
    Message('note_on', channel=9, note=40, velocity=0, time=29),
    Message('note_on', channel=9, note=44, velocity=0, time=0),
    Message('note_on', channel=9, note=44, velocity=100, time=1),
    Message('note_on', channel=9, note=44, velocity=0, time=29),
    Message('note_on', channel=9, note=44, velocity=100, time=1),
    Message('note_on', channel=9, note=44, velocity=0, time=29),
    Message('note_on', channel=9, note=44, velocity=100, time=1),
    Message('note_on', channel=9, note=57, velocity=100, time=0),
    Message('note_on', channel=9, note=44, velocity=0, time=29),
    Message('note_on', channel=9, note=44, velocity=100, time=1),
    Message('note_on', channel=9, note=44, velocity=0, time=29),
    Message('note_on', channel=9, note=44, velocity=100, time=1),
    Message('note_on', channel=9, note=44, velocity=0, time=29),
    Message('note_on', channel=9, note=44, velocity=100, time=1),
    Message('note_on', channel=9, note=57, velocity=0, time=29),
    Message('note_on', channel=9, note=44, velocity=0, time=0),
    Message('note_on', channel=9, note=40, velocity=100, time=1),
    Message('note_on', channel=9, note=44, velocity=100, time=0),
    Message('note_on', channel=9, note=44, velocity=0, time=29),
    Message('note_on', channel=9, note=44, velocity=100, time=1),
    Message('note_on', channel=9, note=40, velocity=0, time=29),
    Message('note_on', channel=9, note=44, velocity=0, time=0),
    Message('note_on', channel=9, note=44, velocity=100, time=1),
    Message('note_on', channel=9, note=44, velocity=0, time=29),
    Message('note_on', channel=9, note=44, velocity=100, time=1),
    Message('note_on', channel=9, note=44, velocity=0, time=29),
    Message('note_on', channel=9, note=44, velocity=100, time=1),
    Message('note_on', channel=9, note=44, velocity=0, time=29),
    Message('note_on', channel=9, note=44, velocity=100, time=1),
    Message('note_on', channel=9, note=44, velocity=0, time=29),
    Message('note_on', channel=9, note=44, velocity=100, time=1),
    Message('note_on', channel=9, note=44, velocity=0, time=29),
    Message('note_on', channel=9, note=44, velocity=100, time=1),
    Message('note_on', channel=9, note=44, velocity=0, time=29),
    Message('note_on', channel=9, note=40, velocity=100, time=1),
    Message('note_on', channel=9, note=44, velocity=100, time=0),
    Message('note_on', channel=9, note=44, velocity=0, time=29),
    Message('note_on', channel=9, note=44, velocity=100, time=1),
    Message('note_on', channel=9, note=40, velocity=0, time=29),
    Message('note_on', channel=9, note=44, velocity=0, time=0),
    Message('note_on', channel=9, note=44, velocity=100, time=1),
    Message('note_on', channel=9, note=44, velocity=0, time=29),
    Message('note_on', channel=9, note=44, velocity=100, time=1),
    Message('note_on', channel=9, note=44, velocity=0, time=29),
    Message('note_on', channel=9, note=44, velocity=100, time=1),
    Message('note_on', channel=9, note=44, velocity=0, time=29),
    Message('note_on', channel=9, note=44, velocity=100, time=1),
    Message('note_on', channel=9, note=44, velocity=0, time=29),
    Message('note_on', channel=9, note=44, velocity=100, time=1),
    Message('note_on', channel=9, note=44, velocity=0, time=29),
    Message('note_on', channel=9, note=44, velocity=100, time=1),
    Message('note_on', channel=9, note=44, velocity=0, time=29),
    Message('note_on', channel=9, note=40, velocity=100, time=1),
    Message('note_on', channel=9, note=44, velocity=100, time=0),
    Message('note_on', channel=9, note=44, velocity=0, time=29),
    Message('note_on', channel=9, note=44, velocity=100, time=1),
    Message('note_on', channel=9, note=40, velocity=0, time=29),
    Message('note_on', channel=9, note=44, velocity=0, time=0),
    Message('note_on', channel=9, note=44, velocity=100, time=1),
    Message('note_on', channel=9, note=44, velocity=0, time=29),
    Message('note_on', channel=9, note=44, velocity=100, time=1),
    Message('note_on', channel=9, note=44, velocity=0, time=29),
    Message('note_on', channel=9, note=44, velocity=100, time=1),
    Message('note_on', channel=9, note=44, velocity=0, time=29),
    Message('note_on', channel=9, note=44, velocity=100, time=1),
    Message('note_on', channel=9, note=44, velocity=0, time=29),
    Message('note_on', channel=9, note=44, velocity=100, time=1),
    Message('note_on', channel=9, note=44, velocity=0, time=29),
    Message('note_on', channel=9, note=44, velocity=100, time=1),
    Message('note_on', channel=9, note=44, velocity=0, time=29),
    Message('note_on', channel=9, note=40, velocity=100, time=1),
    Message('note_on', channel=9, note=44, velocity=100, time=0),
    Message('note_on', channel=9, note=44, velocity=0, time=29),
    Message('note_on', channel=9, note=44, velocity=100, time=1),
    Message('note_on', channel=9, note=40, velocity=0, time=29),
    Message('note_on', channel=9, note=44, velocity=0, time=0),
    Message('note_on', channel=9, note=44, velocity=100, time=1),
    Message('note_on', channel=9, note=44, velocity=0, time=29),
    Message('note_on', channel=9, note=44, velocity=100, time=1),
    Message('note_on', channel=9, note=44, velocity=0, time=29),
    Message('note_on', channel=9, note=44, velocity=100, time=1),
    Message('note_on', channel=9, note=57, velocity=100, time=0),
    Message('note_on', channel=9, note=44, velocity=0, time=29),
    Message('note_on', channel=9, note=44, velocity=100, time=1),
    Message('note_on', channel=9, note=44, velocity=0, time=29),
    Message('note_on', channel=9, note=44, velocity=100, time=1),
    Message('note_on', channel=9, note=44, velocity=0, time=29),
    Message('note_on', channel=9, note=44, velocity=100, time=1),
    Message('note_on', channel=9, note=57, velocity=0, time=29),
    Message('note_on', channel=9, note=44, velocity=0, time=0),
    Message('note_on', channel=9, note=40, velocity=100, time=1),
    Message('note_on', channel=9, note=44, velocity=100, time=0),
    Message('note_on', channel=9, note=44, velocity=0, time=29),
    Message('note_on', channel=9, note=44, velocity=100, time=1),
    Message('note_on', channel=9, note=40, velocity=0, time=29),
    Message('note_on', channel=9, note=44, velocity=0, time=0),
    Message('note_on', channel=9, note=44, velocity=100, time=1),
    Message('note_on', channel=9, note=44, velocity=0, time=29),
    Message('note_on', channel=9, note=44, velocity=100, time=1),
    Message('note_on', channel=9, note=44, velocity=0, time=29),
    Message('note_on', channel=9, note=44, velocity=100, time=1),
    Message('note_on', channel=9, note=44, velocity=0, time=29),
    Message('note_on', channel=9, note=44, velocity=100, time=1),
    Message('note_on', channel=9, note=44, velocity=0, time=29),
    Message('note_on', channel=9, note=44, velocity=100, time=1),
    Message('note_on', channel=9, note=44, velocity=0, time=29),
    Message('note_on', channel=9, note=44, velocity=100, time=1),
    Message('note_on', channel=9, note=44, velocity=0, time=29),
    Message('note_on', channel=9, note=40, velocity=100, time=1),
    Message('note_on', channel=9, note=44, velocity=100, time=0),
    Message('note_on', channel=9, note=44, velocity=0, time=29),
    Message('note_on', channel=9, note=44, velocity=100, time=1),
    Message('note_on', channel=9, note=40, velocity=0, time=29),
    Message('note_on', channel=9, note=44, velocity=0, time=0),
    Message('note_on', channel=9, note=44, velocity=100, time=1),
    Message('note_on', channel=9, note=44, velocity=0, time=29),
    Message('note_on', channel=9, note=44, velocity=100, time=1),
    Message('note_on', channel=9, note=44, velocity=0, time=29),
    Message('note_on', channel=9, note=44, velocity=100, time=1),
    Message('note_on', channel=9, note=44, velocity=0, time=29),
    Message('note_on', channel=9, note=44, velocity=100, time=1),
    Message('note_on', channel=9, note=44, velocity=0, time=29),
    Message('note_on', channel=9, note=44, velocity=100, time=1),
    Message('note_on', channel=9, note=44, velocity=0, time=29),
    Message('note_on', channel=9, note=44, velocity=100, time=1),
    Message('note_on', channel=9, note=44, velocity=0, time=29),
    Message('note_on', channel=9, note=40, velocity=100, time=1),
    Message('note_on', channel=9, note=44, velocity=100, time=0),
    Message('note_on', channel=9, note=44, velocity=0, time=29),
    Message('note_on', channel=9, note=44, velocity=100, time=1),
    Message('note_on', channel=9, note=40, velocity=0, time=29),
    Message('note_on', channel=9, note=44, velocity=0, time=0),
    Message('note_on', channel=9, note=44, velocity=100, time=1),
    Message('note_on', channel=9, note=44, velocity=0, time=29),
    Message('note_on', channel=9, note=44, velocity=100, time=1),
    Message('note_on', channel=9, note=44, velocity=0, time=29),
    Message('note_on', channel=9, note=44, velocity=100, time=1),
    Message('note_on', channel=9, note=44, velocity=0, time=29),
    Message('note_on', channel=9, note=44, velocity=100, time=1),
    Message('note_on', channel=9, note=44, velocity=0, time=29),
    Message('note_on', channel=9, note=44, velocity=100, time=1),
    Message('note_on', channel=9, note=44, velocity=0, time=29),
    Message('note_on', channel=9, note=44, velocity=100, time=1),
    Message('note_on', channel=9, note=44, velocity=0, time=29),
    Message('note_on', channel=9, note=40, velocity=100, time=1),
    Message('note_on', channel=9, note=44, velocity=100, time=0),
    Message('note_on', channel=9, note=44, velocity=0, time=29),
    Message('note_on', channel=9, note=44, velocity=100, time=1),
    Message('note_on', channel=9, note=40, velocity=0, time=29),
    Message('note_on', channel=9, note=44, velocity=0, time=0),
    Message('note_on', channel=9, note=44, velocity=100, time=1),
    Message('note_on', channel=9, note=44, velocity=0, time=29),
    Message('note_on', channel=9, note=44, velocity=100, time=1),
    Message('note_on', channel=9, note=44, velocity=0, time=29),
    Message('note_on', channel=9, note=44, velocity=100, time=1),
    Message('note_on', channel=9, note=57, velocity=100, time=0),
    Message('note_on', channel=9, note=44, velocity=0, time=29),
    Message('note_on', channel=9, note=44, velocity=100, time=1),
    Message('note_on', channel=9, note=44, velocity=0, time=29),
    Message('note_on', channel=9, note=44, velocity=100, time=1),
    Message('note_on', channel=9, note=44, velocity=0, time=29),
    Message('note_on', channel=9, note=44, velocity=100, time=1),
    Message('note_on', channel=9, note=57, velocity=0, time=29),
    Message('note_on', channel=9, note=44, velocity=0, time=0),
    Message('note_on', channel=9, note=40, velocity=100, time=1),
    Message('note_on', channel=9, note=44, velocity=100, time=0),
    Message('note_on', channel=9, note=44, velocity=0, time=29),
    Message('note_on', channel=9, note=44, velocity=100, time=1),
    Message('note_on', channel=9, note=40, velocity=0, time=29),
    Message('note_on', channel=9, note=44, velocity=0, time=0),
    Message('note_on', channel=9, note=44, velocity=100, time=1),
    Message('note_on', channel=9, note=44, velocity=0, time=29),
    Message('note_on', channel=9, note=44, velocity=100, time=1),
    Message('note_on', channel=9, note=44, velocity=0, time=29),
    Message('note_on', channel=9, note=44, velocity=100, time=1),
    Message('note_on', channel=9, note=44, velocity=0, time=29),
    Message('note_on', channel=9, note=44, velocity=100, time=1),
    Message('note_on', channel=9, note=44, velocity=0, time=29),
    Message('note_on', channel=9, note=44, velocity=100, time=1),
    Message('note_on', channel=9, note=44, velocity=0, time=29),
    Message('note_on', channel=9, note=44, velocity=100, time=1),
    Message('note_on', channel=9, note=44, velocity=0, time=29),
    Message('note_on', channel=9, note=40, velocity=100, time=1),
    Message('note_on', channel=9, note=44, velocity=100, time=0),
    Message('note_on', channel=9, note=44, velocity=0, time=29),
    Message('note_on', channel=9, note=44, velocity=100, time=1),
    Message('note_on', channel=9, note=40, velocity=0, time=29),
    Message('note_on', channel=9, note=44, velocity=0, time=0),
    Message('note_on', channel=9, note=44, velocity=100, time=1),
    Message('note_on', channel=9, note=44, velocity=0, time=29),
    Message('note_on', channel=9, note=44, velocity=100, time=1),
    Message('note_on', channel=9, note=44, velocity=0, time=29),
    Message('note_on', channel=9, note=44, velocity=100, time=1),
    Message('note_on', channel=9, note=44, velocity=0, time=29),
    Message('note_on', channel=9, note=44, velocity=100, time=1),
    Message('note_on', channel=9, note=44, velocity=0, time=29),
    Message('note_on', channel=9, note=44, velocity=100, time=1),
    Message('note_on', channel=9, note=44, velocity=0, time=29),
    Message('note_on', channel=9, note=44, velocity=100, time=1),
    Message('note_on', channel=9, note=44, velocity=0, time=29),
    Message('note_on', channel=9, note=40, velocity=100, time=1),
    Message('note_on', channel=9, note=44, velocity=100, time=0),
    Message('note_on', channel=9, note=44, velocity=0, time=29),
    Message('note_on', channel=9, note=44, velocity=100, time=1),
    Message('note_on', channel=9, note=40, velocity=0, time=29),
    Message('note_on', channel=9, note=44, velocity=0, time=0),
    Message('note_on', channel=9, note=44, velocity=100, time=1),
    Message('note_on', channel=9, note=44, velocity=0, time=29),
    Message('note_on', channel=9, note=44, velocity=100, time=1),
    Message('note_on', channel=9, note=44, velocity=0, time=29),
    Message('note_on', channel=9, note=44, velocity=100, time=1),
    Message('note_on', channel=9, note=44, velocity=0, time=29),
    Message('note_on', channel=9, note=44, velocity=100, time=1),
    Message('note_on', channel=9, note=44, velocity=0, time=29),
    Message('note_on', channel=9, note=44, velocity=100, time=1),
    Message('note_on', channel=9, note=44, velocity=0, time=29),
    Message('note_on', channel=9, note=44, velocity=100, time=1),
    Message('note_on', channel=9, note=44, velocity=0, time=29),
    Message('note_on', channel=9, note=40, velocity=100, time=1),
    Message('note_on', channel=9, note=44, velocity=100, time=0),
    Message('note_on', channel=9, note=44, velocity=0, time=29),
    Message('note_on', channel=9, note=44, velocity=100, time=1),
    Message('note_on', channel=9, note=40, velocity=0, time=29),
    Message('note_on', channel=9, note=44, velocity=0, time=0),
    Message('note_on', channel=9, note=44, velocity=100, time=1),
    Message('note_on', channel=9, note=44, velocity=0, time=29),
    Message('note_on', channel=9, note=44, velocity=100, time=1),
    Message('note_on', channel=9, note=44, velocity=0, time=29),
    Message('note_on', channel=9, note=44, velocity=100, time=1),
    Message('note_on', channel=9, note=57, velocity=100, time=0),
    Message('note_on', channel=9, note=44, velocity=0, time=29),
    Message('note_on', channel=9, note=44, velocity=100, time=1),
    Message('note_on', channel=9, note=44, velocity=0, time=29),
    Message('note_on', channel=9, note=44, velocity=100, time=1),
    Message('note_on', channel=9, note=44, velocity=0, time=29),
    Message('note_on', channel=9, note=44, velocity=100, time=1),
    Message('note_on', channel=9, note=57, velocity=0, time=29),
    Message('note_on', channel=9, note=44, velocity=0, time=0),
    Message('note_on', channel=9, note=40, velocity=100, time=1),
    Message('note_on', channel=9, note=44, velocity=100, time=0),
    Message('note_on', channel=9, note=44, velocity=0, time=29),
    Message('note_on', channel=9, note=44, velocity=100, time=1),
    Message('note_on', channel=9, note=40, velocity=0, time=29),
    Message('note_on', channel=9, note=44, velocity=0, time=0),
    Message('note_on', channel=9, note=44, velocity=100, time=1),
    Message('note_on', channel=9, note=44, velocity=0, time=29),
    Message('note_on', channel=9, note=44, velocity=100, time=1),
    Message('note_on', channel=9, note=44, velocity=0, time=29),
    Message('note_on', channel=9, note=44, velocity=100, time=1),
    Message('note_on', channel=9, note=44, velocity=0, time=29),
    Message('note_on', channel=9, note=44, velocity=100, time=1),
    Message('note_on', channel=9, note=44, velocity=0, time=29),
    Message('note_on', channel=9, note=44, velocity=100, time=1),
    Message('note_on', channel=9, note=44, velocity=0, time=29),
    Message('note_on', channel=9, note=44, velocity=100, time=1),
    Message('note_on', channel=9, note=44, velocity=0, time=29),
    Message('note_on', channel=9, note=40, velocity=100, time=1),
    Message('note_on', channel=9, note=44, velocity=100, time=0),
    Message('note_on', channel=9, note=57, velocity=100, time=0),
    Message('note_on', channel=9, note=44, velocity=0, time=29),
    Message('note_on', channel=9, note=44, velocity=100, time=1),
    Message('note_on', channel=9, note=40, velocity=0, time=29),
    Message('note_on', channel=9, note=57, velocity=0, time=0),
    Message('note_on', channel=9, note=44, velocity=0, time=0),
    Message('note_on', channel=9, note=44, velocity=100, time=1),
    Message('note_on', channel=9, note=57, velocity=100, time=0),
    Message('note_on', channel=9, note=44, velocity=0, time=29),
    Message('note_on', channel=9, note=44, velocity=100, time=1),
    Message('note_on', channel=9, note=57, velocity=0, time=29),
    Message('note_on', channel=9, note=44, velocity=0, time=0),
    Message('note_on', channel=9, note=44, velocity=100, time=1),
    Message('note_on', channel=9, note=44, velocity=0, time=29),
    Message('note_on', channel=9, note=44, velocity=100, time=1),
    Message('note_on', channel=9, note=44, velocity=0, time=29),
    Message('note_on', channel=9, note=44, velocity=100, time=1),
    Message('note_on', channel=9, note=44, velocity=0, time=29),
    Message('note_on', channel=9, note=44, velocity=100, time=1),
    Message('note_on', channel=9, note=44, velocity=0, time=29),
    Message('note_on', channel=9, note=40, velocity=100, time=1),
    Message('note_on', channel=9, note=44, velocity=100, time=0),
    Message('note_on', channel=9, note=44, velocity=0, time=29),
    Message('note_on', channel=9, note=44, velocity=100, time=1),
    Message('note_on', channel=9, note=40, velocity=0, time=29),
    Message('note_on', channel=9, note=44, velocity=0, time=0),
    Message('note_on', channel=9, note=44, velocity=100, time=1),
    Message('note_on', channel=9, note=44, velocity=0, time=29),
    Message('note_on', channel=9, note=44, velocity=100, time=1),
    Message('note_on', channel=9, note=44, velocity=0, time=29),
    Message('note_on', channel=9, note=44, velocity=100, time=1),
    Message('note_on', channel=9, note=44, velocity=0, time=29),
    Message('note_on', channel=9, note=44, velocity=100, time=1),
    Message('note_on', channel=9, note=44, velocity=0, time=29),
    Message('note_on', channel=9, note=44, velocity=100, time=1),
    Message('note_on', channel=9, note=44, velocity=0, time=29),
    Message('note_on', channel=9, note=44, velocity=100, time=1),
    Message('note_on', channel=9, note=44, velocity=0, time=29),
    Message('note_on', channel=9, note=40, velocity=100, time=1),
    Message('note_on', channel=9, note=44, velocity=100, time=0),
    Message('note_on', channel=9, note=57, velocity=100, time=0),
    Message('note_on', channel=9, note=44, velocity=0, time=29),
    Message('note_on', channel=9, note=44, velocity=100, time=1),
    Message('note_on', channel=9, note=40, velocity=0, time=29),
    Message('note_on', channel=9, note=57, velocity=0, time=0),
    Message('note_on', channel=9, note=44, velocity=0, time=0),
    Message('note_on', channel=9, note=44, velocity=100, time=1),
    Message('note_on', channel=9, note=57, velocity=100, time=0),
    Message('note_on', channel=9, note=44, velocity=0, time=29),
    Message('note_on', channel=9, note=44, velocity=100, time=1),
    Message('note_on', channel=9, note=57, velocity=0, time=29),
    Message('note_on', channel=9, note=44, velocity=0, time=0),
    Message('note_on', channel=9, note=44, velocity=100, time=1),
    Message('note_on', channel=9, note=44, velocity=0, time=29),
    Message('note_on', channel=9, note=44, velocity=100, time=1),
    Message('note_on', channel=9, note=44, velocity=0, time=29),
    Message('note_on', channel=9, note=44, velocity=100, time=1),
    Message('note_on', channel=9, note=44, velocity=0, time=29),
    Message('note_on', channel=9, note=44, velocity=100, time=1),
    Message('note_on', channel=9, note=44, velocity=0, time=29),
    Message('note_on', channel=9, note=40, velocity=100, time=1),
    Message('note_on', channel=9, note=44, velocity=100, time=0),
    Message('note_on', channel=9, note=44, velocity=0, time=29),
    Message('note_on', channel=9, note=44, velocity=100, time=1),
    Message('note_on', channel=9, note=40, velocity=0, time=29),
    Message('note_on', channel=9, note=44, velocity=0, time=0),
    Message('note_on', channel=9, note=44, velocity=100, time=1),
    Message('note_on', channel=9, note=44, velocity=0, time=29),
    Message('note_on', channel=9, note=44, velocity=100, time=1),
    Message('note_on', channel=9, note=44, velocity=0, time=29),
    Message('note_on', channel=9, note=44, velocity=100, time=1),
    Message('note_on', channel=9, note=44, velocity=0, time=29),
    Message('note_on', channel=9, note=44, velocity=100, time=1),
    Message('note_on', channel=9, note=44, velocity=0, time=29),
    Message('note_on', channel=9, note=44, velocity=100, time=1),
    Message('note_on', channel=9, note=44, velocity=0, time=29),
    Message('note_on', channel=9, note=44, velocity=100, time=1),
    Message('note_on', channel=9, note=44, velocity=0, time=29),
    Message('note_on', channel=9, note=40, velocity=100, time=1),
    Message('note_on', channel=9, note=44, velocity=100, time=0),
    Message('note_on', channel=9, note=57, velocity=100, time=0),
    Message('note_on', channel=9, note=44, velocity=0, time=29),
    Message('note_on', channel=9, note=44, velocity=100, time=1),
    Message('note_on', channel=9, note=40, velocity=0, time=29),
    Message('note_on', channel=9, note=57, velocity=0, time=0),
    Message('note_on', channel=9, note=44, velocity=0, time=0),
    Message('note_on', channel=9, note=44, velocity=100, time=1),
    Message('note_on', channel=9, note=57, velocity=100, time=0),
    Message('note_on', channel=9, note=44, velocity=0, time=29),
    Message('note_on', channel=9, note=44, velocity=100, time=1),
    Message('note_on', channel=9, note=57, velocity=0, time=29),
    Message('note_on', channel=9, note=44, velocity=0, time=0),
    Message('note_on', channel=9, note=44, velocity=100, time=1),
    Message('note_on', channel=9, note=44, velocity=0, time=29),
    Message('note_on', channel=9, note=44, velocity=100, time=1),
    Message('note_on', channel=9, note=44, velocity=0, time=29),
    Message('note_on', channel=9, note=44, velocity=100, time=1),
    Message('note_on', channel=9, note=44, velocity=0, time=29),
    Message('note_on', channel=9, note=44, velocity=100, time=1),
    Message('note_on', channel=9, note=44, velocity=0, time=29),
    Message('note_on', channel=9, note=40, velocity=100, time=1),
    Message('note_on', channel=9, note=44, velocity=100, time=0),
    Message('note_on', channel=9, note=44, velocity=0, time=29),
    Message('note_on', channel=9, note=44, velocity=100, time=1),
    Message('note_on', channel=9, note=40, velocity=0, time=29),
    Message('note_on', channel=9, note=44, velocity=0, time=0),
    Message('note_on', channel=9, note=44, velocity=100, time=1),
    Message('note_on', channel=9, note=44, velocity=0, time=29),
    Message('note_on', channel=9, note=44, velocity=100, time=1),
    Message('note_on', channel=9, note=44, velocity=0, time=29),
    Message('note_on', channel=9, note=44, velocity=100, time=1),
    Message('note_on', channel=9, note=44, velocity=0, time=29),
    Message('note_on', channel=9, note=44, velocity=100, time=1),
    Message('note_on', channel=9, note=44, velocity=0, time=29),
    Message('note_on', channel=9, note=44, velocity=100, time=1),
    Message('note_on', channel=9, note=44, velocity=0, time=29),
    Message('note_on', channel=9, note=44, velocity=100, time=1),
    Message('note_on', channel=9, note=44, velocity=0, time=29),
    Message('note_on', channel=9, note=40, velocity=100, time=1),
    Message('note_on', channel=9, note=44, velocity=100, time=0),
    Message('note_on', channel=9, note=57, velocity=100, time=0),
    Message('note_on', channel=9, note=44, velocity=0, time=29),
    Message('note_on', channel=9, note=44, velocity=100, time=1),
    Message('note_on', channel=9, note=40, velocity=0, time=29),
    Message('note_on', channel=9, note=57, velocity=0, time=0),
    Message('note_on', channel=9, note=44, velocity=0, time=0),
    Message('note_on', channel=9, note=44, velocity=100, time=1),
    Message('note_on', channel=9, note=57, velocity=100, time=0),
    Message('note_on', channel=9, note=44, velocity=0, time=29),
    Message('note_on', channel=9, note=44, velocity=100, time=1),
    Message('note_on', channel=9, note=57, velocity=0, time=29),
    Message('note_on', channel=9, note=44, velocity=0, time=0),
    Message('note_on', channel=9, note=44, velocity=100, time=1),
    Message('note_on', channel=9, note=44, velocity=0, time=29),
    Message('note_on', channel=9, note=44, velocity=100, time=1),
    Message('note_on', channel=9, note=44, velocity=0, time=29),
    Message('note_on', channel=9, note=44, velocity=100, time=1),
    Message('note_on', channel=9, note=44, velocity=0, time=29),
    Message('note_on', channel=9, note=44, velocity=100, time=1),
    Message('note_on', channel=9, note=44, velocity=0, time=29),
    Message('note_on', channel=9, note=40, velocity=100, time=1),
    Message('note_on', channel=9, note=44, velocity=100, time=0),
    Message('note_on', channel=9, note=44, velocity=0, time=29),
    Message('note_on', channel=9, note=44, velocity=100, time=1),
    Message('note_on', channel=9, note=40, velocity=0, time=29),
    Message('note_on', channel=9, note=44, velocity=0, time=0),
    Message('note_on', channel=9, note=44, velocity=100, time=1),
    Message('note_on', channel=9, note=44, velocity=0, time=29),
    Message('note_on', channel=9, note=44, velocity=100, time=1),
    Message('note_on', channel=9, note=44, velocity=0, time=29),
    Message('note_on', channel=9, note=44, velocity=100, time=1),
    Message('note_on', channel=9, note=44, velocity=0, time=29),
    Message('note_on', channel=9, note=44, velocity=100, time=1),
    Message('note_on', channel=9, note=44, velocity=0, time=29),
    Message('note_on', channel=9, note=44, velocity=100, time=1),
    Message('note_on', channel=9, note=44, velocity=0, time=29),
    Message('note_on', channel=9, note=44, velocity=100, time=1),
    Message('note_on', channel=9, note=44, velocity=0, time=29),
    Message('note_on', channel=9, note=40, velocity=100, time=1),
    Message('note_on', channel=9, note=44, velocity=100, time=0),
    Message('note_on', channel=9, note=57, velocity=100, time=0),
    Message('note_on', channel=9, note=44, velocity=0, time=29),
    Message('note_on', channel=9, note=44, velocity=100, time=1),
    Message('note_on', channel=9, note=40, velocity=0, time=29),
    Message('note_on', channel=9, note=57, velocity=0, time=0),
    Message('note_on', channel=9, note=44, velocity=0, time=0),
    Message('note_on', channel=9, note=44, velocity=100, time=1),
    Message('note_on', channel=9, note=57, velocity=100, time=0),
    Message('note_on', channel=9, note=44, velocity=0, time=29),
    Message('note_on', channel=9, note=44, velocity=100, time=1),
    Message('note_on', channel=9, note=57, velocity=0, time=29),
    Message('note_on', channel=9, note=44, velocity=0, time=0),
    Message('note_on', channel=9, note=44, velocity=100, time=1),
    Message('note_on', channel=9, note=44, velocity=0, time=29),
    Message('note_on', channel=9, note=44, velocity=100, time=1),
    Message('note_on', channel=9, note=44, velocity=0, time=29),
    Message('note_on', channel=9, note=44, velocity=100, time=1),
    Message('note_on', channel=9, note=44, velocity=0, time=29),
    Message('note_on', channel=9, note=44, velocity=100, time=1),
    Message('note_on', channel=9, note=44, velocity=0, time=29),
    Message('note_on', channel=9, note=40, velocity=100, time=1),
    Message('note_on', channel=9, note=44, velocity=100, time=0),
    Message('note_on', channel=9, note=44, velocity=0, time=29),
    Message('note_on', channel=9, note=44, velocity=100, time=1),
    Message('note_on', channel=9, note=40, velocity=0, time=29),
    Message('note_on', channel=9, note=44, velocity=0, time=0),
    Message('note_on', channel=9, note=44, velocity=100, time=1),
    Message('note_on', channel=9, note=44, velocity=0, time=29),
    Message('note_on', channel=9, note=44, velocity=100, time=1),
    Message('note_on', channel=9, note=44, velocity=0, time=29),
    Message('note_on', channel=9, note=44, velocity=100, time=1),
    Message('note_on', channel=9, note=44, velocity=0, time=29),
    Message('note_on', channel=9, note=44, velocity=100, time=1),
    Message('note_on', channel=9, note=44, velocity=0, time=29),
    Message('note_on', channel=9, note=44, velocity=100, time=1),
    Message('note_on', channel=9, note=44, velocity=0, time=29),
    Message('note_on', channel=9, note=44, velocity=100, time=1),
    Message('note_on', channel=9, note=44, velocity=0, time=29),
    Message('note_on', channel=9, note=40, velocity=100, time=1),
    Message('note_on', channel=9, note=44, velocity=100, time=0),
    Message('note_on', channel=9, note=57, velocity=100, time=0),
    Message('note_on', channel=9, note=44, velocity=0, time=29),
    Message('note_on', channel=9, note=44, velocity=100, time=1),
    Message('note_on', channel=9, note=40, velocity=0, time=29),
    Message('note_on', channel=9, note=57, velocity=0, time=0),
    Message('note_on', channel=9, note=44, velocity=0, time=0),
    Message('note_on', channel=9, note=44, velocity=100, time=1),
    Message('note_on', channel=9, note=57, velocity=100, time=0),
    Message('note_on', channel=9, note=44, velocity=0, time=29),
    Message('note_on', channel=9, note=44, velocity=100, time=1),
    Message('note_on', channel=9, note=57, velocity=0, time=29),
    Message('note_on', channel=9, note=44, velocity=0, time=0),
    Message('note_on', channel=9, note=44, velocity=100, time=1),
    Message('note_on', channel=9, note=44, velocity=0, time=29),
    Message('note_on', channel=9, note=44, velocity=100, time=1),
    Message('note_on', channel=9, note=44, velocity=0, time=29),
    Message('note_on', channel=9, note=44, velocity=100, time=1),
    Message('note_on', channel=9, note=44, velocity=0, time=29),
    Message('note_on', channel=9, note=44, velocity=100, time=1),
    Message('note_on', channel=9, note=44, velocity=0, time=29),
    Message('note_on', channel=9, note=40, velocity=100, time=1),
    Message('note_on', channel=9, note=44, velocity=100, time=0),
    Message('note_on', channel=9, note=44, velocity=0, time=29),
    Message('note_on', channel=9, note=44, velocity=100, time=1),
    Message('note_on', channel=9, note=40, velocity=0, time=29),
    Message('note_on', channel=9, note=44, velocity=0, time=0),
    Message('note_on', channel=9, note=44, velocity=100, time=1),
    Message('note_on', channel=9, note=44, velocity=0, time=29),
    Message('note_on', channel=9, note=44, velocity=100, time=1),
    Message('note_on', channel=9, note=44, velocity=0, time=29),
    Message('note_on', channel=9, note=44, velocity=100, time=1),
    Message('note_on', channel=9, note=44, velocity=0, time=29),
    Message('note_on', channel=9, note=44, velocity=100, time=1),
    Message('note_on', channel=9, note=44, velocity=0, time=29),
    Message('note_on', channel=9, note=44, velocity=100, time=1),
    Message('note_on', channel=9, note=44, velocity=0, time=29),
    Message('note_on', channel=9, note=44, velocity=100, time=1),
    Message('note_on', channel=9, note=44, velocity=0, time=29),
    Message('note_on', channel=9, note=40, velocity=100, time=1),
    Message('note_on', channel=9, note=44, velocity=100, time=0),
    Message('note_on', channel=9, note=57, velocity=100, time=0),
    Message('note_on', channel=9, note=44, velocity=0, time=29),
    Message('note_on', channel=9, note=44, velocity=100, time=1),
    Message('note_on', channel=9, note=40, velocity=0, time=29),
    Message('note_on', channel=9, note=57, velocity=0, time=0),
    Message('note_on', channel=9, note=44, velocity=0, time=0),
    Message('note_on', channel=9, note=44, velocity=100, time=1),
    Message('note_on', channel=9, note=57, velocity=100, time=0),
    Message('note_on', channel=9, note=44, velocity=0, time=29),
    Message('note_on', channel=9, note=44, velocity=100, time=1),
    Message('note_on', channel=9, note=57, velocity=0, time=29),
    Message('note_on', channel=9, note=44, velocity=0, time=0),
    Message('note_on', channel=9, note=44, velocity=100, time=1),
    Message('note_on', channel=9, note=44, velocity=0, time=29),
    Message('note_on', channel=9, note=44, velocity=100, time=1),
    Message('note_on', channel=9, note=44, velocity=0, time=29),
    Message('note_on', channel=9, note=44, velocity=100, time=1),
    Message('note_on', channel=9, note=44, velocity=0, time=29),
    Message('note_on', channel=9, note=44, velocity=100, time=1),
    Message('note_on', channel=9, note=44, velocity=0, time=29),
    Message('note_on', channel=9, note=40, velocity=100, time=1),
    Message('note_on', channel=9, note=44, velocity=100, time=0),
    Message('note_on', channel=9, note=44, velocity=0, time=29),
    Message('note_on', channel=9, note=44, velocity=100, time=1),
    Message('note_on', channel=9, note=40, velocity=0, time=29),
    Message('note_on', channel=9, note=44, velocity=0, time=0),
    Message('note_on', channel=9, note=44, velocity=100, time=1),
    Message('note_on', channel=9, note=44, velocity=0, time=29),
    Message('note_on', channel=9, note=44, velocity=100, time=1),
    Message('note_on', channel=9, note=44, velocity=0, time=29),
    Message('note_on', channel=9, note=48, velocity=100, time=1),
    Message('note_on', channel=9, note=48, velocity=0, time=14),
    Message('note_on', channel=9, note=48, velocity=100, time=1),
    Message('note_on', channel=9, note=48, velocity=0, time=14),
    Message('note_on', channel=9, note=48, velocity=100, time=1),
    Message('note_on', channel=9, note=48, velocity=0, time=29),
    Message('note_on', channel=9, note=47, velocity=100, time=1),
    Message('note_on', channel=9, note=47, velocity=0, time=14),
    Message('note_on', channel=9, note=47, velocity=100, time=1),
    Message('note_on', channel=9, note=47, velocity=0, time=14),
    Message('note_on', channel=9, note=47, velocity=100, time=1),
    Message('note_on', channel=9, note=47, velocity=0, time=29),
    Message('note_on', channel=9, note=45, velocity=100, time=1),
    Message('note_on', channel=9, note=45, velocity=0, time=14),
    Message('note_on', channel=9, note=45, velocity=100, time=1),
    Message('note_on', channel=9, note=45, velocity=0, time=14),
    Message('note_on', channel=9, note=45, velocity=100, time=1),
    Message('note_on', channel=9, note=45, velocity=0, time=29),
    Message('note_on', channel=9, note=43, velocity=100, time=1),
    Message('note_on', channel=9, note=43, velocity=0, time=14),
    Message('note_on', channel=9, note=43, velocity=100, time=1),
    Message('note_on', channel=9, note=43, velocity=0, time=14),
    Message('note_on', channel=9, note=43, velocity=100, time=1),
    Message('note_on', channel=9, note=43, velocity=0, time=29),
    Message('note_on', channel=9, note=44, velocity=100, time=1),
    Message('note_on', channel=9, note=57, velocity=100, time=0),
    Message('note_on', channel=9, note=44, velocity=0, time=29),
    Message('note_on', channel=9, note=44, velocity=100, time=1),
    Message('note_on', channel=9, note=44, velocity=0, time=29),
    Message('note_on', channel=9, note=44, velocity=100, time=1),
    Message('note_on', channel=9, note=44, velocity=0, time=29),
    Message('note_on', channel=9, note=44, velocity=100, time=1),
    Message('note_on', channel=9, note=57, velocity=0, time=29),
    Message('note_on', channel=9, note=44, velocity=0, time=0),
    Message('note_on', channel=9, note=40, velocity=100, time=1),
    Message('note_on', channel=9, note=44, velocity=100, time=0),
    Message('control_change', channel=9, control=7, value=90, time=0),
    Message('note_on', channel=9, note=44, velocity=0, time=29),
    Message('note_on', channel=9, note=44, velocity=100, time=1),
    Message('note_on', channel=9, note=40, velocity=0, time=29),
    Message('note_on', channel=9, note=44, velocity=0, time=0),
    Message('note_on', channel=9, note=44, velocity=100, time=1),
    Message('note_on', channel=9, note=44, velocity=0, time=29),
    Message('note_on', channel=9, note=44, velocity=100, time=1),
    Message('note_on', channel=9, note=44, velocity=0, time=29),
    Message('control_change', channel=9, control=7, value=87, time=1),
    Message('note_on', channel=9, note=44, velocity=100, time=0),
    Message('note_on', channel=9, note=44, velocity=0, time=29),
    Message('note_on', channel=9, note=44, velocity=100, time=1),
    Message('note_on', channel=9, note=44, velocity=0, time=29),
    Message('note_on', channel=9, note=44, velocity=100, time=1),
    Message('note_on', channel=9, note=44, velocity=0, time=29),
    Message('note_on', channel=9, note=44, velocity=100, time=1),
    Message('note_on', channel=9, note=44, velocity=0, time=29),
    Message('control_change', channel=9, control=7, value=84, time=1),
    Message('note_on', channel=9, note=44, velocity=100, time=0),
    Message('note_on', channel=9, note=40, velocity=100, time=0),
    Message('note_on', channel=9, note=44, velocity=0, time=29),
    Message('note_on', channel=9, note=44, velocity=100, time=1),
    Message('note_on', channel=9, note=40, velocity=0, time=29),
    Message('note_on', channel=9, note=44, velocity=0, time=0),
    Message('note_on', channel=9, note=44, velocity=100, time=1),
    Message('note_on', channel=9, note=44, velocity=0, time=29),
    Message('note_on', channel=9, note=44, velocity=100, time=1),
    Message('note_on', channel=9, note=44, velocity=0, time=29),
    Message('note_on', channel=9, note=44, velocity=100, time=1),
    Message('control_change', channel=9, control=7, value=81, time=0),
    Message('note_on', channel=9, note=44, velocity=0, time=29),
    Message('note_on', channel=9, note=44, velocity=100, time=1),
    Message('note_on', channel=9, note=44, velocity=0, time=29),
    Message('note_on', channel=9, note=44, velocity=100, time=1),
    Message('note_on', channel=9, note=44, velocity=0, time=29),
    Message('note_on', channel=9, note=44, velocity=100, time=1),
    Message('note_on', channel=9, note=44, velocity=0, time=29),
    Message('note_on', channel=9, note=40, velocity=100, time=1),
    Message('note_on', channel=9, note=44, velocity=100, time=0),
    Message('control_change', channel=9, control=7, value=78, time=0),
    Message('note_on', channel=9, note=44, velocity=0, time=29),
    Message('note_on', channel=9, note=44, velocity=100, time=1),
    Message('note_on', channel=9, note=40, velocity=0, time=29),
    Message('note_on', channel=9, note=44, velocity=0, time=0),
    Message('note_on', channel=9, note=44, velocity=100, time=1),
    Message('note_on', channel=9, note=44, velocity=0, time=29),
    Message('note_on', channel=9, note=44, velocity=100, time=1),
    Message('note_on', channel=9, note=44, velocity=0, time=29),
    Message('note_on', channel=9, note=44, velocity=100, time=1),
    Message('control_change', channel=9, control=7, value=75, time=0),
    Message('note_on', channel=9, note=44, velocity=0, time=29),
    Message('note_on', channel=9, note=44, velocity=100, time=1),
    Message('note_on', channel=9, note=44, velocity=0, time=29),
    Message('note_on', channel=9, note=44, velocity=100, time=1),
    Message('note_on', channel=9, note=44, velocity=0, time=29),
    Message('note_on', channel=9, note=44, velocity=100, time=1),
    Message('note_on', channel=9, note=44, velocity=0, time=29),
    Message('control_change', channel=9, control=7, value=72, time=1),
    Message('note_on', channel=9, note=40, velocity=100, time=0),
    Message('note_on', channel=9, note=44, velocity=100, time=0),
    Message('note_on', channel=9, note=44, velocity=0, time=29),
    Message('note_on', channel=9, note=44, velocity=100, time=1),
    Message('note_on', channel=9, note=40, velocity=0, time=29),
    Message('note_on', channel=9, note=44, velocity=0, time=0),
    Message('note_on', channel=9, note=44, velocity=100, time=1),
    Message('note_on', channel=9, note=44, velocity=0, time=29),
    Message('note_on', channel=9, note=44, velocity=100, time=1),
    Message('note_on', channel=9, note=44, velocity=0, time=29),
    Message('note_on', channel=9, note=44, velocity=100, time=1),
    Message('control_change', channel=9, control=7, value=69, time=0),
    Message('note_on', channel=9, note=57, velocity=100, time=0),
    Message('note_on', channel=9, note=44, velocity=0, time=29),
    Message('note_on', channel=9, note=44, velocity=100, time=1),
    Message('note_on', channel=9, note=44, velocity=0, time=29),
    Message('note_on', channel=9, note=44, velocity=100, time=1),
    Message('note_on', channel=9, note=44, velocity=0, time=29),
    Message('note_on', channel=9, note=44, velocity=100, time=1),
    Message('note_on', channel=9, note=57, velocity=0, time=29),
    Message('note_on', channel=9, note=44, velocity=0, time=0),
    Message('control_change', channel=9, control=7, value=66, time=1),
    Message('note_on', channel=9, note=40, velocity=100, time=0),
    Message('note_on', channel=9, note=44, velocity=100, time=0),
    Message('note_on', channel=9, note=44, velocity=0, time=29),
    Message('note_on', channel=9, note=44, velocity=100, time=1),
    Message('note_on', channel=9, note=40, velocity=0, time=29),
    Message('note_on', channel=9, note=44, velocity=0, time=0),
    Message('note_on', channel=9, note=44, velocity=100, time=1),
    Message('note_on', channel=9, note=44, velocity=0, time=29),
    Message('note_on', channel=9, note=44, velocity=100, time=1),
    Message('note_on', channel=9, note=44, velocity=0, time=29),
    Message('note_on', channel=9, note=44, velocity=100, time=1),
    Message('control_change', channel=9, control=7, value=63, time=0),
    Message('note_on', channel=9, note=44, velocity=0, time=29),
    Message('note_on', channel=9, note=44, velocity=100, time=1),
    Message('note_on', channel=9, note=44, velocity=0, time=29),
    Message('note_on', channel=9, note=44, velocity=100, time=1),
    Message('note_on', channel=9, note=44, velocity=0, time=29),
    Message('note_on', channel=9, note=44, velocity=100, time=1),
    Message('note_on', channel=9, note=44, velocity=0, time=29),
    Message('note_on', channel=9, note=40, velocity=100, time=1),
    Message('note_on', channel=9, note=44, velocity=100, time=0),
    Message('control_change', channel=9, control=7, value=60, time=0),
    Message('note_on', channel=9, note=44, velocity=0, time=29),
    Message('note_on', channel=9, note=44, velocity=100, time=1),
    Message('note_on', channel=9, note=40, velocity=0, time=29),
    Message('note_on', channel=9, note=44, velocity=0, time=0),
    Message('note_on', channel=9, note=44, velocity=100, time=1),
    Message('note_on', channel=9, note=44, velocity=0, time=29),
    Message('note_on', channel=9, note=44, velocity=100, time=1),
    Message('note_on', channel=9, note=44, velocity=0, time=29),
    Message('note_on', channel=9, note=44, velocity=100, time=1),
    Message('control_change', channel=9, control=7, value=57, time=0),
    Message('note_on', channel=9, note=44, velocity=0, time=29),
    Message('note_on', channel=9, note=44, velocity=100, time=1),
    Message('note_on', channel=9, note=44, velocity=0, time=29),
    Message('note_on', channel=9, note=44, velocity=100, time=1),
    Message('note_on', channel=9, note=44, velocity=0, time=29),
    Message('note_on', channel=9, note=44, velocity=100, time=1),
    Message('note_on', channel=9, note=44, velocity=0, time=29),
    Message('note_on', channel=9, note=44, velocity=100, time=1),
    Message('control_change', channel=9, control=7, value=54, time=0),
    Message('note_on', channel=9, note=40, velocity=100, time=0),
    Message('note_on', channel=9, note=44, velocity=0, time=29),
    Message('note_on', channel=9, note=44, velocity=100, time=1),
    Message('note_on', channel=9, note=40, velocity=0, time=29),
    Message('note_on', channel=9, note=44, velocity=0, time=0),
    Message('note_on', channel=9, note=44, velocity=100, time=1),
    Message('note_on', channel=9, note=44, velocity=0, time=29),
    Message('note_on', channel=9, note=44, velocity=100, time=1),
    Message('note_on', channel=9, note=44, velocity=0, time=29),
    Message('note_on', channel=9, note=44, velocity=100, time=1),
    Message('control_change', channel=9, control=7, value=51, time=0),
    Message('note_on', channel=9, note=44, velocity=0, time=29),
    Message('note_on', channel=9, note=44, velocity=100, time=1),
    Message('note_on', channel=9, note=44, velocity=0, time=29),
    Message('note_on', channel=9, note=44, velocity=100, time=1),
    Message('note_on', channel=9, note=44, velocity=0, time=29),
    Message('note_on', channel=9, note=44, velocity=100, time=1),
    Message('note_on', channel=9, note=44, velocity=0, time=29),
    Message('control_change', channel=9, control=7, value=48, time=1),
    Message('note_on', channel=9, note=44, velocity=100, time=0),
    Message('note_on', channel=9, note=40, velocity=100, time=0),
    Message('note_on', channel=9, note=44, velocity=0, time=29),
    Message('note_on', channel=9, note=44, velocity=100, time=1),
    Message('note_on', channel=9, note=40, velocity=0, time=29),
    Message('note_on', channel=9, note=44, velocity=0, time=0),
    Message('note_on', channel=9, note=44, velocity=100, time=1),
    Message('note_on', channel=9, note=44, velocity=0, time=29),
    Message('note_on', channel=9, note=44, velocity=100, time=1),
    Message('note_on', channel=9, note=44, velocity=0, time=29),
    Message('control_change', channel=9, control=7, value=45, time=1),
    Message('note_on', channel=9, note=44, velocity=100, time=0),
    Message('note_on', channel=9, note=44, velocity=0, time=29),
    Message('note_on', channel=9, note=44, velocity=100, time=1),
    Message('note_on', channel=9, note=44, velocity=0, time=29),
    Message('note_on', channel=9, note=44, velocity=100, time=1),
    Message('note_on', channel=9, note=44, velocity=0, time=29),
    Message('note_on', channel=9, note=44, velocity=100, time=1),
    Message('note_on', channel=9, note=44, velocity=0, time=29),
    Message('control_change', channel=9, control=7, value=42, time=1),
    Message('note_on', channel=9, note=40, velocity=100, time=0),
    Message('note_on', channel=9, note=44, velocity=100, time=0),
    Message('note_on', channel=9, note=44, velocity=0, time=29),
    Message('note_on', channel=9, note=44, velocity=100, time=1),
    Message('note_on', channel=9, note=40, velocity=0, time=29),
    Message('note_on', channel=9, note=44, velocity=0, time=0),
    Message('note_on', channel=9, note=44, velocity=100, time=1),
    Message('note_on', channel=9, note=44, velocity=0, time=29),
    Message('note_on', channel=9, note=44, velocity=100, time=1),
    Message('note_on', channel=9, note=44, velocity=0, time=29),
    Message('note_on', channel=9, note=44, velocity=100, time=1),
    Message('control_change', channel=9, control=7, value=39, time=0),
    Message('note_on', channel=9, note=44, velocity=0, time=29),
    Message('note_on', channel=9, note=44, velocity=100, time=1),
    Message('note_on', channel=9, note=44, velocity=0, time=29),
    Message('note_on', channel=9, note=44, velocity=100, time=1),
    Message('note_on', channel=9, note=44, velocity=0, time=29),
    Message('note_on', channel=9, note=44, velocity=100, time=1),
    Message('note_on', channel=9, note=44, velocity=0, time=29),
    Message('note_on', channel=9, note=40, velocity=100, time=1),
    Message('control_change', channel=9, control=7, value=36, time=0),
    Message('note_on', channel=9, note=44, velocity=100, time=0),
    Message('note_on', channel=9, note=44, velocity=0, time=29),
    Message('note_on', channel=9, note=44, velocity=100, time=1),
    Message('note_on', channel=9, note=40, velocity=0, time=29),
    Message('note_on', channel=9, note=44, velocity=0, time=0),
    Message('note_on', channel=9, note=44, velocity=100, time=1),
    Message('note_on', channel=9, note=44, velocity=0, time=29),
    Message('note_on', channel=9, note=44, velocity=100, time=1),
    Message('note_on', channel=9, note=44, velocity=0, time=29),
    Message('note_on', channel=9, note=44, velocity=100, time=1),
    Message('control_change', channel=9, control=7, value=33, time=0),
    Message('note_on', channel=9, note=44, velocity=0, time=29),
    Message('note_on', channel=9, note=44, velocity=100, time=1),
    Message('note_on', channel=9, note=44, velocity=0, time=29),
    Message('note_on', channel=9, note=44, velocity=100, time=1),
    Message('note_on', channel=9, note=44, velocity=0, time=29),
    Message('note_on', channel=9, note=44, velocity=100, time=1),
    Message('note_on', channel=9, note=44, velocity=0, time=29),
    Message('note_on', channel=9, note=44, velocity=100, time=1),
    Message('note_on', channel=9, note=40, velocity=100, time=0),
    Message('control_change', channel=9, control=7, value=30, time=0),
    Message('note_on', channel=9, note=44, velocity=0, time=29),
    Message('note_on', channel=9, note=44, velocity=100, time=1),
    Message('note_on', channel=9, note=40, velocity=0, time=29),
    Message('note_on', channel=9, note=44, velocity=0, time=0),
    Message('note_on', channel=9, note=44, velocity=100, time=1),
    Message('note_on', channel=9, note=44, velocity=0, time=29),
    Message('note_on', channel=9, note=44, velocity=100, time=1),
    Message('note_on', channel=9, note=44, velocity=0, time=29),
    Message('note_on', channel=9, note=44, velocity=100, time=1),
    Message('control_change', channel=9, control=7, value=27, time=0),
    Message('note_on', channel=9, note=44, velocity=0, time=29),
    Message('note_on', channel=9, note=44, velocity=100, time=1),
    Message('note_on', channel=9, note=44, velocity=0, time=29),
    Message('note_on', channel=9, note=44, velocity=100, time=1),
    Message('note_on', channel=9, note=44, velocity=0, time=29),
    Message('note_on', channel=9, note=44, velocity=100, time=1),
    Message('note_on', channel=9, note=44, velocity=0, time=29),
    Message('note_on', channel=9, note=44, velocity=100, time=1),
    Message('note_on', channel=9, note=40, velocity=100, time=0),
    Message('control_change', channel=9, control=7, value=24, time=0),
    Message('note_on', channel=9, note=44, velocity=0, time=29),
    Message('note_on', channel=9, note=44, velocity=100, time=1),
    Message('note_on', channel=9, note=40, velocity=0, time=29),
    Message('note_on', channel=9, note=44, velocity=0, time=0),
    Message('note_on', channel=9, note=44, velocity=100, time=1),
    Message('note_on', channel=9, note=44, velocity=0, time=29),
    Message('note_on', channel=9, note=44, velocity=100, time=1),
    Message('note_on', channel=9, note=44, velocity=0, time=29),
    Message('note_on', channel=9, note=44, velocity=100, time=1),
    Message('control_change', channel=9, control=7, value=21, time=0),
    Message('note_on', channel=9, note=44, velocity=0, time=29),
    Message('note_on', channel=9, note=44, velocity=100, time=1),
    Message('note_on', channel=9, note=44, velocity=0, time=29),
    Message('note_on', channel=9, note=44, velocity=100, time=1),
    Message('note_on', channel=9, note=44, velocity=0, time=29),
    Message('note_on', channel=9, note=44, velocity=100, time=1),
    Message('note_on', channel=9, note=44, velocity=0, time=29),
    Message('note_on', channel=9, note=40, velocity=100, time=1),
    Message('note_on', channel=9, note=44, velocity=100, time=0),
    Message('control_change', channel=9, control=7, value=18, time=0),
    Message('note_on', channel=9, note=44, velocity=0, time=29),
    Message('note_on', channel=9, note=44, velocity=100, time=1),
    Message('note_on', channel=9, note=40, velocity=0, time=29),
    Message('note_on', channel=9, note=44, velocity=0, time=0),
    Message('note_on', channel=9, note=44, velocity=100, time=1),
    Message('note_on', channel=9, note=44, velocity=0, time=29),
    Message('note_on', channel=9, note=44, velocity=100, time=1),
    Message('note_on', channel=9, note=44, velocity=0, time=29),
    Message('note_on', channel=9, note=44, velocity=100, time=1),
    Message('control_change', channel=9, control=7, value=15, time=0),
    Message('note_on', channel=9, note=44, velocity=0, time=29),
    Message('note_on', channel=9, note=44, velocity=100, time=1),
    Message('note_on', channel=9, note=44, velocity=0, time=29),
    Message('note_on', channel=9, note=44, velocity=100, time=1),
    Message('note_on', channel=9, note=44, velocity=0, time=29),
    Message('note_on', channel=9, note=44, velocity=100, time=1),
    Message('note_on', channel=9, note=44, velocity=0, time=29),
    Message('note_on', channel=9, note=40, velocity=100, time=1),
    Message('note_on', channel=9, note=44, velocity=100, time=0),
    Message('control_change', channel=9, control=7, value=12, time=0),
    Message('note_on', channel=9, note=44, velocity=0, time=29),
    Message('note_on', channel=9, note=44, velocity=100, time=1),
    Message('note_on', channel=9, note=40, velocity=0, time=29),
    Message('note_on', channel=9, note=44, velocity=0, time=0),
    Message('note_on', channel=9, note=44, velocity=100, time=1),
    Message('note_on', channel=9, note=44, velocity=0, time=29),
    Message('note_on', channel=9, note=44, velocity=100, time=1),
    Message('note_on', channel=9, note=44, velocity=0, time=29),
    Message('control_change', channel=9, control=7, value=9, time=1),
    Message('note_on', channel=9, note=44, velocity=100, time=0),
    Message('note_on', channel=9, note=44, velocity=0, time=29),
    Message('note_on', channel=9, note=44, velocity=100, time=1),
    Message('note_on', channel=9, note=44, velocity=0, time=29),
    Message('note_on', channel=9, note=44, velocity=100, time=1),
    Message('note_on', channel=9, note=44, velocity=0, time=29),
    Message('note_on', channel=9, note=44, velocity=100, time=1),
    Message('note_on', channel=9, note=44, velocity=0, time=29),
    Message('control_change', channel=9, control=7, value=6, time=1),
    Message('note_on', channel=9, note=44, velocity=100, time=0),
    Message('note_on', channel=9, note=40, velocity=100, time=0),
    Message('note_on', channel=9, note=44, velocity=0, time=29),
    Message('note_on', channel=9, note=44, velocity=100, time=1),
    Message('note_on', channel=9, note=40, velocity=0, time=29),
    Message('note_on', channel=9, note=44, velocity=0, time=0),
    Message('note_on', channel=9, note=44, velocity=100, time=1),
    Message('note_on', channel=9, note=44, velocity=0, time=29),
    Message('note_on', channel=9, note=44, velocity=100, time=1),
    Message('note_on', channel=9, note=44, velocity=0, time=29),
    Message('control_change', channel=9, control=7, value=3, time=1),
    Message('note_on', channel=9, note=44, velocity=100, time=0),
    Message('note_on', channel=9, note=44, velocity=0, time=29),
    Message('note_on', channel=9, note=44, velocity=100, time=1),
    Message('note_on', channel=9, note=44, velocity=0, time=29),
    Message('note_on', channel=9, note=44, velocity=100, time=1),
    Message('note_on', channel=9, note=44, velocity=0, time=29),
    Message('note_on', channel=9, note=44, velocity=100, time=1),
    Message('note_on', channel=9, note=44, velocity=0, time=29),
    Message('note_on', channel=9, note=40, velocity=100, time=1),
    Message('control_change', channel=9, control=7, value=0, time=0),
    Message('note_on', channel=9, note=44, velocity=100, time=0),
    Message('note_on', channel=9, note=44, velocity=0, time=29),
    Message('note_on', channel=9, note=44, velocity=100, time=1),
    Message('note_on', channel=9, note=40, velocity=0, time=29),
    Message('note_on', channel=9, note=44, velocity=0, time=0),
    Message('note_on', channel=9, note=44, velocity=100, time=1),
    Message('note_on', channel=9, note=44, velocity=0, time=29),
    Message('note_on', channel=9, note=44, velocity=100, time=1),
    Message('note_on', channel=9, note=44, velocity=0, time=29),
    MetaMessage('end_of_track', time=0)]),
  MidiTrack([
    MetaMessage('track_name', name='WinJammer Demo', time=0),
    MetaMessage('midi_port', port=0, time=0),
    Message('control_change', channel=6, control=7, value=90, time=53880),
    Message('control_change', channel=6, control=7, value=87, time=120),
    Message('control_change', channel=6, control=7, value=84, time=120),
    Message('control_change', channel=6, control=7, value=81, time=120),
    Message('control_change', channel=6, control=7, value=78, time=120),
    Message('control_change', channel=6, control=7, value=75, time=120),
    Message('control_change', channel=6, control=7, value=72, time=120),
    Message('control_change', channel=6, control=7, value=69, time=120),
    Message('control_change', channel=6, control=7, value=66, time=120),
    Message('control_change', channel=6, control=7, value=63, time=120),
    Message('control_change', channel=6, control=7, value=60, time=120),
    Message('control_change', channel=6, control=7, value=57, time=120),
    Message('control_change', channel=6, control=7, value=54, time=120),
    Message('control_change', channel=6, control=7, value=51, time=120),
    Message('control_change', channel=6, control=7, value=48, time=120),
    Message('control_change', channel=6, control=7, value=45, time=120),
    Message('control_change', channel=6, control=7, value=42, time=120),
    Message('control_change', channel=6, control=7, value=39, time=120),
    Message('control_change', channel=6, control=7, value=36, time=120),
    Message('control_change', channel=6, control=7, value=33, time=120),
    Message('control_change', channel=6, control=7, value=30, time=120),
    Message('control_change', channel=6, control=7, value=27, time=120),
    Message('control_change', channel=6, control=7, value=24, time=120),
    Message('control_change', channel=6, control=7, value=21, time=120),
    Message('control_change', channel=6, control=7, value=18, time=120),
    Message('control_change', channel=6, control=7, value=15, time=120),
    Message('control_change', channel=6, control=7, value=12, time=120),
    Message('control_change', channel=6, control=7, value=9, time=120),
    Message('control_change', channel=6, control=7, value=6, time=120),
    Message('control_change', channel=6, control=7, value=3, time=120),
    Message('control_change', channel=6, control=7, value=0, time=120),
    MetaMessage('end_of_track', time=0)])
])
