MidiFile(type=0, ticks_per_beat=480, tracks=[
  MidiTrack([
    MetaMessage('track_name', name='(C,F,CF,CG,C)(AmG,FC,C,G) Am,D,G (:C;G:)', time=0),
    MetaMessage('midi_port', port=0, time=0),
    Message('sysex', data=(126, 127, 9, 1), time=0),
    Message('sysex', data=(65, 16, 66, 18, 0, 0, 127, 0, 1), time=0),
    Message('sysex', data=(65, 16, 66, 18, 64, 65, 35, 1, 16, 75), time=0),
    Message('sysex', data=(65, 16, 66, 18, 64, 3, 0, 1, 16, 44), time=0),
    Message('sysex', data=(65, 16, 66, 18, 64, 77, 34, 1, 80), time=0),
    Message('sysex', data=(65, 16, 66, 18, 64, 3, 25, 30, 6), time=0),
    Message('sysex', data=(65, 16, 66, 18, 64, 3, 24, 50, 115), time=0),
    Message('sysex', data=(65, 16, 66, 18, 64, 3, 22, 40, 127), time=0),
    Message('sysex', data=(65, 16, 66, 18, 64, 3, 23, 90, 76), time=0),
    MetaMessage('midi_port', port=0, time=0),
    MetaMessage('time_signature', numerator=4, denominator=4, clocks_per_click=24, notated_32nd_notes_per_beat=8, time=0),
    MetaMessage('key_signature', key='C', time=0),
    MetaMessage('set_tempo', tempo=434783, time=0),
    MetaMessage('marker', text='RDMusic20.11.07', time=0),
    Message('note_on', channel=9, note=42, velocity=80, time=0),
    Message('note_on', channel=9, note=42, velocity=0, time=5),
    Message('control_change', channel=1, control=121, value=0, time=195),
    Message('control_change', channel=2, control=121, value=0, time=0),
    Message('control_change', channel=3, control=121, value=0, time=0),
    Message('control_change', channel=4, control=121, value=0, time=0),
    Message('control_change', channel=5, control=121, value=0, time=0),
    Message('control_change', channel=6, control=121, value=0, time=0),
    Message('control_change', channel=7, control=121, value=0, time=0),
    Message('control_change', channel=8, control=121, value=0, time=0),
    Message('control_change', channel=9, control=121, value=0, time=0),
    Message('control_change', channel=13, control=121, value=0, time=0),
    Message('control_change', channel=1, control=1, value=0, time=10),
    Message('control_change', channel=2, control=1, value=0, time=0),
    Message('control_change', channel=3, control=1, value=0, time=0),
    Message('control_change', channel=4, control=1, value=0, time=0),
    Message('control_change', channel=5, control=1, value=0, time=0),
    Message('control_change', channel=6, control=1, value=0, time=0),
    Message('control_change', channel=7, control=1, value=10, time=0),
    Message('control_change', channel=8, control=1, value=0, time=0),
    Message('control_change', channel=9, control=1, value=0, time=0),
    Message('control_change', channel=13, control=1, value=0, time=0),
    Message('control_change', channel=1, control=7, value=90, time=10),
    Message('control_change', channel=2, control=7, value=75, time=0),
    Message('control_change', channel=3, control=7, value=0, time=0),
    Message('control_change', channel=4, control=7, value=127, time=0),
    Message('control_change', channel=5, control=7, value=100, time=0),
    Message('control_change', channel=6, control=7, value=80, time=0),
    Message('control_change', channel=7, control=7, value=85, time=0),
    Message('control_change', channel=8, control=7, value=75, time=0),
    Message('control_change', channel=9, control=7, value=100, time=0),
    Message('control_change', channel=13, control=7, value=80, time=0),
    Message('control_change', channel=1, control=10, value=64, time=10),
    Message('control_change', channel=2, control=10, value=64, time=0),
    Message('control_change', channel=3, control=10, value=64, time=0),
    Message('control_change', channel=4, control=10, value=64, time=0),
    Message('control_change', channel=5, control=10, value=64, time=0),
    Message('control_change', channel=6, control=10, value=45, time=0),
    Message('control_change', channel=7, control=10, value=85, time=0),
    Message('control_change', channel=8, control=10, value=45, time=0),
    Message('control_change', channel=9, control=10, value=64, time=0),
    Message('control_change', channel=13, control=10, value=64, time=0),
    Message('control_change', channel=1, control=11, value=127, time=10),
    Message('control_change', channel=2, control=11, value=127, time=0),
    Message('control_change', channel=3, control=11, value=127, time=0),
    Message('control_change', channel=4, control=11, value=127, time=0),
    Message('control_change', channel=5, control=11, value=127, time=0),
    Message('control_change', channel=6, control=11, value=127, time=0),
    Message('control_change', channel=7, control=11, value=127, time=0),
    Message('control_change', channel=8, control=11, value=127, time=0),
    Message('control_change', channel=9, control=11, value=127, time=0),
    Message('control_change', channel=13, control=11, value=127, time=0),
    Message('control_change', channel=1, control=91, value=0, time=10),
    Message('control_change', channel=2, control=91, value=100, time=0),
    Message('control_change', channel=3, control=91, value=100, time=0),
    Message('control_change', channel=4, control=91, value=100, time=0),
    Message('control_change', channel=5, control=91, value=100, time=0),
    Message('control_change', channel=6, control=91, value=100, time=0),
    Message('control_change', channel=7, control=91, value=100, time=0),
    Message('control_change', channel=8, control=91, value=80, time=0),
    Message('control_change', channel=9, control=91, value=70, time=0),
    Message('control_change', channel=13, control=91, value=100, time=0),
    Message('control_change', channel=1, control=93, value=10, time=10),
    Message('control_change', channel=2, control=93, value=60, time=0),
    Message('control_change', channel=3, control=93, value=30, time=0),
    Message('control_change', channel=4, control=93, value=40, time=0),
    Message('control_change', channel=5, control=93, value=70, time=0),
    Message('control_change', channel=5, control=16, value=0, time=0),
    Message('control_change', channel=5, control=17, value=0, time=0),
    Message('control_change', channel=6, control=93, value=50, time=0),
    Message('control_change', channel=7, control=93, value=40, time=0),
    Message('control_change', channel=8, control=93, value=100, time=0),
    Message('control_change', channel=9, control=93, value=10, time=0),
    Message('control_change', channel=13, control=93, value=50, time=0),
    Message('pitchwheel', channel=1, pitch=0, time=10),
    Message('pitchwheel', channel=2, pitch=0, time=0),
    Message('pitchwheel', channel=3, pitch=0, time=0),
    Message('pitchwheel', channel=4, pitch=0, time=0),
    Message('pitchwheel', channel=5, pitch=0, time=0),
    Message('pitchwheel', channel=6, pitch=0, time=0),
    Message('pitchwheel', channel=7, pitch=0, time=0),
    Message('pitchwheel', channel=8, pitch=0, time=0),
    Message('pitchwheel', channel=9, pitch=-8150, time=0),
    Message('pitchwheel', channel=13, pitch=0, time=0),
    Message('control_change', channel=1, control=0, value=0, time=10),
    Message('program_change', channel=1, program=34, time=0),
    Message('control_change', channel=2, control=0, value=0, time=0),
    Message('program_change', channel=2, program=17, time=0),
    Message('control_change', channel=3, control=0, value=0, time=0),
    Message('program_change', channel=3, program=87, time=0),
    Message('control_change', channel=4, control=0, value=0, time=0),
    Message('program_change', channel=4, program=27, time=0),
    Message('control_change', channel=5, control=0, value=0, time=0),
    Message('program_change', channel=5, program=94, time=0),
    Message('control_change', channel=6, control=0, value=0, time=0),
    Message('program_change', channel=6, program=27, time=0),
    Message('control_change', channel=7, control=0, value=0, time=0),
    Message('program_change', channel=7, program=27, time=0),
    Message('control_change', channel=8, control=0, value=0, time=0),
    Message('program_change', channel=8, program=25, time=0),
    Message('control_change', channel=9, control=0, value=0, time=0),
    Message('control_change', channel=9, control=0, value=0, time=0),
    Message('control_change', channel=9, control=0, value=0, time=0),
    Message('program_change', channel=9, program=1, time=0),
    Message('control_change', channel=13, control=0, value=16, time=0),
    Message('program_change', channel=13, program=27, time=0),
    Message('control_change', channel=6, control=101, value=0, time=10),
    Message('control_change', channel=6, control=100, value=1, time=0),
    Message('control_change', channel=6, control=6, value=70, time=0),
    Message('control_change', channel=6, control=38, value=40, time=0),
    Message('control_change', channel=7, control=99, value=1, time=1),
    Message('control_change', channel=7, control=98, value=32, time=0),
    Message('control_change', channel=7, control=6, value=59, time=0),
    Message('control_change', channel=7, control=38, value=48, time=0),
    Message('note_on', channel=9, note=42, velocity=80, time=194),
    Message('note_on', channel=9, note=42, velocity=0, time=5),
    Message('pitchwheel', channel=6, pitch=-8192, time=194),
    Message('pitchwheel', channel=7, pitch=-8192, time=0),
    Message('pitchwheel', channel=13, pitch=-8192, time=0),
    Message('pitchwheel', channel=6, pitch=-8064, time=7),
    Message('pitchwheel', channel=7, pitch=-8064, time=0),
    Message('pitchwheel', channel=13, pitch=-8064, time=0),
    Message('pitchwheel', channel=6, pitch=-7808, time=7),
    Message('pitchwheel', channel=7, pitch=-7808, time=0),
    Message('pitchwheel', channel=13, pitch=-7808, time=0),
    Message('pitchwheel', channel=6, pitch=-7552, time=7),
    Message('pitchwheel', channel=7, pitch=-7552, time=0),
    Message('pitchwheel', channel=13, pitch=-7552, time=0),
    Message('pitchwheel', channel=6, pitch=-7424, time=7),
    Message('pitchwheel', channel=7, pitch=-7424, time=0),
    Message('pitchwheel', channel=13, pitch=-7424, time=0),
    Message('note_on', channel=6, note=52, velocity=100, time=8),
    Message('pitchwheel', channel=6, pitch=-7168, time=0),
    Message('pitchwheel', channel=7, pitch=-7168, time=0),
    Message('note_on', channel=13, note=52, velocity=100, time=0),
    Message('pitchwheel', channel=13, pitch=-7168, time=0),
    Message('pitchwheel', channel=6, pitch=-6912, time=7),
    Message('pitchwheel', channel=7, pitch=-6912, time=0),
    Message('pitchwheel', channel=13, pitch=-6912, time=0),
    Message('pitchwheel', channel=6, pitch=-6656, time=7),
    Message('pitchwheel', channel=7, pitch=-6656, time=0),
    Message('pitchwheel', channel=13, pitch=-6656, time=0),
    Message('pitchwheel', channel=6, pitch=-6528, time=7),
    Message('pitchwheel', channel=7, pitch=-6528, time=0),
    Message('pitchwheel', channel=13, pitch=-6528, time=0),
    Message('pitchwheel', channel=6, pitch=-6272, time=7),
    Message('pitchwheel', channel=7, pitch=-6272, time=0),
    Message('pitchwheel', channel=13, pitch=-6272, time=0),
    Message('pitchwheel', channel=6, pitch=-6016, time=7),
    Message('pitchwheel', channel=7, pitch=-6016, time=0),
    Message('pitchwheel', channel=13, pitch=-6016, time=0),
    Message('pitchwheel', channel=6, pitch=-5760, time=7),
    Message('pitchwheel', channel=7, pitch=-5760, time=0),
    Message('pitchwheel', channel=13, pitch=-5760, time=0),
    Message('pitchwheel', channel=6, pitch=-5632, time=7),
    Message('pitchwheel', channel=7, pitch=-5632, time=0),
    Message('pitchwheel', channel=13, pitch=-5632, time=0),
    Message('pitchwheel', channel=6, pitch=-5376, time=7),
    Message('pitchwheel', channel=7, pitch=-5376, time=0),
    Message('pitchwheel', channel=13, pitch=-5376, time=0),
    Message('pitchwheel', channel=6, pitch=-5120, time=7),
    Message('pitchwheel', channel=7, pitch=-5120, time=0),
    Message('pitchwheel', channel=13, pitch=-5120, time=0),
    Message('pitchwheel', channel=6, pitch=-4992, time=7),
    Message('pitchwheel', channel=7, pitch=-4992, time=0),
    Message('pitchwheel', channel=13, pitch=-4992, time=0),
    Message('pitchwheel', channel=6, pitch=-4736, time=7),
    Message('pitchwheel', channel=7, pitch=-4736, time=0),
    Message('pitchwheel', channel=13, pitch=-4736, time=0),
    Message('pitchwheel', channel=6, pitch=-4480, time=7),
    Message('pitchwheel', channel=7, pitch=-4480, time=0),
    Message('pitchwheel', channel=13, pitch=-4480, time=0),
    Message('pitchwheel', channel=6, pitch=-4224, time=7),
    Message('pitchwheel', channel=7, pitch=-4224, time=0),
    Message('pitchwheel', channel=13, pitch=-4224, time=0),
    Message('pitchwheel', channel=6, pitch=-4096, time=7),
    Message('pitchwheel', channel=7, pitch=-4096, time=0),
    Message('pitchwheel', channel=13, pitch=-4096, time=0),
    Message('pitchwheel', channel=6, pitch=-3840, time=7),
    Message('pitchwheel', channel=7, pitch=-3840, time=0),
    Message('pitchwheel', channel=13, pitch=-3840, time=0),
    Message('pitchwheel', channel=6, pitch=-3584, time=7),
    Message('pitchwheel', channel=7, pitch=-3584, time=0),
    Message('pitchwheel', channel=13, pitch=-3584, time=0),
    Message('pitchwheel', channel=6, pitch=-3328, time=8),
    Message('pitchwheel', channel=7, pitch=-3328, time=0),
    Message('pitchwheel', channel=13, pitch=-3328, time=0),
    Message('pitchwheel', channel=6, pitch=-3200, time=7),
    Message('pitchwheel', channel=7, pitch=-3200, time=0),
    Message('pitchwheel', channel=13, pitch=-3200, time=0),
    Message('pitchwheel', channel=6, pitch=-2944, time=7),
    Message('pitchwheel', channel=7, pitch=-2944, time=0),
    Message('pitchwheel', channel=13, pitch=-2944, time=0),
    Message('pitchwheel', channel=6, pitch=-2688, time=7),
    Message('pitchwheel', channel=7, pitch=-2688, time=0),
    Message('pitchwheel', channel=13, pitch=-2688, time=0),
    Message('pitchwheel', channel=6, pitch=-2560, time=7),
    Message('pitchwheel', channel=7, pitch=-2560, time=0),
    Message('pitchwheel', channel=13, pitch=-2560, time=0),
    Message('pitchwheel', channel=6, pitch=-2304, time=7),
    Message('pitchwheel', channel=7, pitch=-2304, time=0),
    Message('pitchwheel', channel=13, pitch=-2304, time=0),
    Message('pitchwheel', channel=6, pitch=-2048, time=7),
    Message('pitchwheel', channel=7, pitch=-2048, time=0),
    Message('pitchwheel', channel=13, pitch=-2048, time=0),
    Message('pitchwheel', channel=6, pitch=-1792, time=7),
    Message('pitchwheel', channel=7, pitch=-1792, time=0),
    Message('pitchwheel', channel=13, pitch=-1792, time=0),
    Message('pitchwheel', channel=6, pitch=-1664, time=7),
    Message('pitchwheel', channel=7, pitch=-1664, time=0),
    Message('pitchwheel', channel=13, pitch=-1664, time=0),
    Message('pitchwheel', channel=6, pitch=-1408, time=7),
    Message('pitchwheel', channel=7, pitch=-1408, time=0),
    Message('pitchwheel', channel=13, pitch=-1408, time=0),
    Message('pitchwheel', channel=6, pitch=-1152, time=7),
    Message('pitchwheel', channel=7, pitch=-1152, time=0),
    Message('pitchwheel', channel=13, pitch=-1152, time=0),
    Message('pitchwheel', channel=6, pitch=-896, time=7),
    Message('pitchwheel', channel=7, pitch=-896, time=0),
    Message('pitchwheel', channel=13, pitch=-896, time=0),
    Message('pitchwheel', channel=6, pitch=-768, time=7),
    Message('pitchwheel', channel=7, pitch=-768, time=0),
    Message('pitchwheel', channel=13, pitch=-768, time=0),
    Message('pitchwheel', channel=6, pitch=-512, time=7),
    Message('pitchwheel', channel=7, pitch=-512, time=0),
    Message('pitchwheel', channel=13, pitch=-512, time=0),
    Message('pitchwheel', channel=6, pitch=-256, time=7),
    Message('pitchwheel', channel=7, pitch=-256, time=0),
    Message('pitchwheel', channel=13, pitch=-256, time=0),
    Message('pitchwheel', channel=6, pitch=0, time=7),
    Message('pitchwheel', channel=7, pitch=0, time=0),
    Message('pitchwheel', channel=13, pitch=0, time=0),
    Message('note_on', channel=9, note=42, velocity=80, time=15),
    Message('note_on', channel=9, note=43, velocity=100, time=0),
    Message('note_on', channel=9, note=42, velocity=0, time=5),
    Message('note_on', channel=9, note=43, velocity=0, time=11),
    Message('note_on', channel=13, note=52, velocity=0, time=224),
    Message('note_on', channel=6, note=52, velocity=0, time=0),
    Message('note_on', channel=6, note=55, velocity=100, time=0),
    Message('note_on', channel=13, note=55, velocity=100, time=0),
    Message('note_on', channel=9, note=38, velocity=90, time=120),
    Message('note_on', channel=9, note=38, velocity=0, time=4),
    Message('note_on', channel=13, note=55, velocity=0, time=116),
    Message('note_on', channel=6, note=55, velocity=0, time=0),
    Message('note_on', channel=6, note=57, velocity=100, time=0),
    Message('note_on', channel=9, note=42, velocity=80, time=0),
    Message('note_on', channel=9, note=38, velocity=120, time=0),
    Message('note_on', channel=13, note=57, velocity=100, time=0),
    Message('note_on', channel=9, note=38, velocity=0, time=4),
    Message('note_on', channel=9, note=42, velocity=0, time=1),
    Message('note_on', channel=6, note=57, velocity=0, time=235),
    Message('note_on', channel=13, note=57, velocity=0, time=0),
    Message('note_on', channel=6, note=60, velocity=100, time=0),
    Message('note_on', channel=9, note=36, velocity=120, time=0),
    Message('note_on', channel=13, note=60, velocity=100, time=0),
    Message('note_on', channel=9, note=36, velocity=0, time=4),
    Message('pitchwheel', channel=6, pitch=-8192, time=218),
    Message('pitchwheel', channel=13, pitch=-8192, time=0),
    Message('note_on', channel=13, note=60, velocity=0, time=18),
    Message('note_on', channel=6, note=60, velocity=0, time=0),
    Message('note_on', channel=1, note=48, velocity=127, time=0),
    Message('note_on', channel=2, note=72, velocity=71, time=0),
    Message('note_on', channel=2, note=76, velocity=59, time=0),
    Message('note_on', channel=2, note=79, velocity=77, time=0),
    Message('note_on', channel=4, note=55, velocity=86, time=0),
    Message('note_on', channel=4, note=48, velocity=86, time=0),
    Message('note_on', channel=6, note=64, velocity=100, time=0),
    Message('note_on', channel=7, note=67, velocity=120, time=0),
    Message('note_on', channel=8, note=55, velocity=80, time=0),
    Message('note_on', channel=9, note=36, velocity=120, time=0),
    Message('note_on', channel=9, note=49, velocity=80, time=0),
    Message('note_on', channel=13, note=64, velocity=100, time=0),
    Message('program_change', channel=15, program=0, time=0),
    Message('pitchwheel', channel=6, pitch=-8064, time=3),
    Message('pitchwheel', channel=13, pitch=-8064, time=0),
    Message('note_on', channel=9, note=36, velocity=0, time=1),
    Message('note_on', channel=9, note=49, velocity=0, time=1),
    Message('note_on', channel=8, note=60, velocity=80, time=11),
    Message('pitchwheel', channel=6, pitch=-7936, time=1),
    Message('pitchwheel', channel=13, pitch=-7936, time=0),
    Message('note_on', channel=8, note=64, velocity=80, time=6),
    Message('pitchwheel', channel=6, pitch=-7808, time=8),
    Message('pitchwheel', channel=13, pitch=-7808, time=0),
    Message('pitchwheel', channel=6, pitch=-7680, time=21),
    Message('pitchwheel', channel=13, pitch=-7680, time=0),
    Message('pitchwheel', channel=6, pitch=-7552, time=15),
    Message('pitchwheel', channel=13, pitch=-7552, time=0),
    Message('pitchwheel', channel=6, pitch=-7424, time=14),
    Message('pitchwheel', channel=13, pitch=-7424, time=0),
    Message('pitchwheel', channel=6, pitch=-7296, time=14),
    Message('pitchwheel', channel=13, pitch=-7296, time=0),
    Message('pitchwheel', channel=6, pitch=-7168, time=21),
    Message('pitchwheel', channel=13, pitch=-7168, time=0),
    Message('pitchwheel', channel=6, pitch=-7040, time=14),
    Message('pitchwheel', channel=13, pitch=-7040, time=0),
    Message('pitchwheel', channel=6, pitch=-6912, time=14),
    Message('pitchwheel', channel=13, pitch=-6912, time=0),
    Message('pitchwheel', channel=6, pitch=-6784, time=21),
    Message('pitchwheel', channel=13, pitch=-6784, time=0),
    Message('pitchwheel', channel=6, pitch=-6656, time=15),
    Message('pitchwheel', channel=13, pitch=-6656, time=0),
    Message('note_on', channel=4, note=48, velocity=0, time=12),
    Message('note_on', channel=4, note=55, velocity=0, time=0),
    Message('pitchwheel', channel=6, pitch=-6528, time=2),
    Message('pitchwheel', channel=13, pitch=-6528, time=0),
    Message('pitchwheel', channel=6, pitch=-6400, time=14),
    Message('pitchwheel', channel=13, pitch=-6400, time=0),
    Message('note_on', channel=1, note=48, velocity=0, time=8),
    Message('pitchwheel', channel=6, pitch=-6272, time=13),
    Message('pitchwheel', channel=13, pitch=-6272, time=0),
    Message('note_on', channel=1, note=48, velocity=127, time=11),
    Message('note_on', channel=4, note=48, velocity=69, time=0),
    Message('note_on', channel=4, note=55, velocity=69, time=0),
    Message('note_on', channel=9, note=42, velocity=80, time=0),
    Message('pitchwheel', channel=6, pitch=-6144, time=3),
    Message('pitchwheel', channel=13, pitch=-6144, time=0),
    Message('note_on', channel=9, note=42, velocity=0, time=2),
    Message('pitchwheel', channel=6, pitch=-6016, time=12),
    Message('pitchwheel', channel=13, pitch=-6016, time=0),
    Message('pitchwheel', channel=6, pitch=-5888, time=21),
    Message('pitchwheel', channel=13, pitch=-5888, time=0),
    Message('pitchwheel', channel=6, pitch=-5760, time=14),
    Message('pitchwheel', channel=13, pitch=-5760, time=0),
    Message('pitchwheel', channel=6, pitch=-5632, time=15),
    Message('pitchwheel', channel=13, pitch=-5632, time=0),
    Message('pitchwheel', channel=6, pitch=-5504, time=14),
    Message('pitchwheel', channel=13, pitch=-5504, time=0),
    Message('pitchwheel', channel=6, pitch=-5376, time=21),
    Message('pitchwheel', channel=13, pitch=-5376, time=0),
    Message('pitchwheel', channel=6, pitch=-5248, time=14),
    Message('pitchwheel', channel=13, pitch=-5248, time=0),
    Message('pitchwheel', channel=6, pitch=-5120, time=14),
    Message('pitchwheel', channel=13, pitch=-5120, time=0),
    Message('pitchwheel', channel=6, pitch=-4992, time=21),
    Message('pitchwheel', channel=13, pitch=-4992, time=0),
    Message('pitchwheel', channel=6, pitch=-4864, time=14),
    Message('pitchwheel', channel=13, pitch=-4864, time=0),
    Message('pitchwheel', channel=6, pitch=-4736, time=15),
    Message('pitchwheel', channel=13, pitch=-4736, time=0),
    Message('note_on', channel=4, note=55, velocity=0, time=12),
    Message('note_on', channel=4, note=48, velocity=0, time=0),
    Message('pitchwheel', channel=6, pitch=-4608, time=2),
    Message('pitchwheel', channel=13, pitch=-4608, time=0),
    Message('note_on', channel=8, note=64, velocity=0, time=16),
    Message('pitchwheel', channel=6, pitch=-4480, time=5),
    Message('pitchwheel', channel=13, pitch=-4480, time=0),
    Message('note_on', channel=1, note=48, velocity=0, time=1),
    Message('note_on', channel=8, note=55, velocity=0, time=5),
    Message('pitchwheel', channel=6, pitch=-4352, time=8),
    Message('pitchwheel', channel=13, pitch=-4352, time=0),
    Message('note_on', channel=8, note=60, velocity=0, time=8),
    Message('note_on', channel=4, note=57, velocity=83, time=3),
    Message('note_on', channel=4, note=48, velocity=83, time=0),
    Message('note_on', channel=9, note=54, velocity=50, time=0),
    Message('note_on', channel=9, note=44, velocity=80, time=0),
    Message('note_on', channel=9, note=38, velocity=120, time=0),
    Message('pitchwheel', channel=6, pitch=-4224, time=3),
    Message('pitchwheel', channel=13, pitch=-4224, time=0),
    Message('note_on', channel=9, note=38, velocity=0, time=1),
    Message('note_on', channel=9, note=54, velocity=0, time=0),
    Message('note_on', channel=9, note=44, velocity=0, time=1),
    Message('note_on', channel=8, note=55, velocity=59, time=4),
    Message('note_on', channel=8, note=60, velocity=59, time=6),
    Message('pitchwheel', channel=6, pitch=-4096, time=2),
    Message('pitchwheel', channel=13, pitch=-4096, time=0),
    Message('note_on', channel=8, note=64, velocity=59, time=2),
    Message('pitchwheel', channel=6, pitch=-3968, time=19),
    Message('pitchwheel', channel=13, pitch=-3968, time=0),
    Message('pitchwheel', channel=6, pitch=-3840, time=14),
    Message('pitchwheel', channel=13, pitch=-3840, time=0),
    Message('pitchwheel', channel=6, pitch=-3712, time=15),
    Message('pitchwheel', channel=13, pitch=-3712, time=0),
    Message('pitchwheel', channel=6, pitch=-3584, time=21),
    Message('pitchwheel', channel=13, pitch=-3584, time=0),
    Message('pitchwheel', channel=6, pitch=-3456, time=14),
    Message('pitchwheel', channel=13, pitch=-3456, time=0),
    Message('pitchwheel', channel=6, pitch=-3328, time=14),
    Message('pitchwheel', channel=13, pitch=-3328, time=0),
    Message('pitchwheel', channel=6, pitch=-3200, time=14),
    Message('pitchwheel', channel=13, pitch=-3200, time=0),
    Message('pitchwheel', channel=6, pitch=-3072, time=21),
    Message('pitchwheel', channel=13, pitch=-3072, time=0),
    Message('pitchwheel', channel=6, pitch=-2944, time=14),
    Message('pitchwheel', channel=13, pitch=-2944, time=0),
    Message('pitchwheel', channel=6, pitch=-2816, time=15),
    Message('pitchwheel', channel=13, pitch=-2816, time=0),
    Message('note_on', channel=4, note=57, velocity=0, time=12),
    Message('note_on', channel=4, note=48, velocity=0, time=0),
    Message('pitchwheel', channel=6, pitch=-2688, time=9),
    Message('pitchwheel', channel=13, pitch=-2688, time=0),
    Message('note_on', channel=8, note=55, velocity=0, time=5),
    Message('pitchwheel', channel=6, pitch=-2560, time=9),
    Message('pitchwheel', channel=13, pitch=-2560, time=0),
    Message('note_on', channel=8, note=60, velocity=0, time=4),
    Message('note_on', channel=8, note=64, velocity=0, time=4),
    Message('pitchwheel', channel=6, pitch=-2432, time=6),
    Message('pitchwheel', channel=13, pitch=-2432, time=0),
    Message('note_on', channel=1, note=48, velocity=127, time=11),
    Message('note_on', channel=4, note=52, velocity=72, time=0),
    Message('note_on', channel=4, note=48, velocity=72, time=0),
    Message('note_on', channel=8, note=64, velocity=50, time=0),
    Message('note_on', channel=8, note=60, velocity=50, time=0),
    Message('note_on', channel=8, note=55, velocity=50, time=0),
    Message('note_on', channel=9, note=42, velocity=80, time=0),
    Message('pitchwheel', channel=6, pitch=-2304, time=3),
    Message('pitchwheel', channel=13, pitch=-2304, time=0),
    Message('note_on', channel=9, note=42, velocity=0, time=2),
    Message('pitchwheel', channel=6, pitch=-2176, time=19),
    Message('pitchwheel', channel=13, pitch=-2176, time=0),
    Message('pitchwheel', channel=6, pitch=-2048, time=14),
    Message('pitchwheel', channel=13, pitch=-2048, time=0),
    Message('pitchwheel', channel=6, pitch=-1920, time=14),
    Message('pitchwheel', channel=13, pitch=-1920, time=0),
    Message('pitchwheel', channel=6, pitch=-1792, time=22),
    Message('pitchwheel', channel=13, pitch=-1792, time=0),
    Message('note_on', channel=8, note=64, velocity=0, time=10),
    Message('note_on', channel=8, note=60, velocity=0, time=0),
    Message('pitchwheel', channel=6, pitch=-1664, time=4),
    Message('pitchwheel', channel=13, pitch=-1664, time=0),
    Message('note_on', channel=8, note=55, velocity=0, time=3),
    Message('pitchwheel', channel=6, pitch=-1536, time=11),
    Message('pitchwheel', channel=13, pitch=-1536, time=0),
    Message('pitchwheel', channel=6, pitch=-1408, time=14),
    Message('pitchwheel', channel=13, pitch=-1408, time=0),
    Message('pitchwheel', channel=6, pitch=-1280, time=21),
    Message('pitchwheel', channel=13, pitch=-1280, time=0),
    Message('pitchwheel', channel=6, pitch=-1152, time=14),
    Message('pitchwheel', channel=13, pitch=-1152, time=0),
    Message('pitchwheel', channel=6, pitch=-1024, time=14),
    Message('pitchwheel', channel=13, pitch=-1024, time=0),
    Message('pitchwheel', channel=6, pitch=-896, time=22),
    Message('pitchwheel', channel=13, pitch=-896, time=0),
    Message('note_on', channel=4, note=48, velocity=0, time=5),
    Message('note_on', channel=4, note=52, velocity=0, time=0),
    Message('pitchwheel', channel=6, pitch=-768, time=9),
    Message('pitchwheel', channel=13, pitch=-768, time=0),
    Message('pitchwheel', channel=6, pitch=-640, time=14),
    Message('pitchwheel', channel=13, pitch=-640, time=0),
    Message('note_on', channel=1, note=48, velocity=0, time=1),
    Message('pitchwheel', channel=6, pitch=-512, time=13),
    Message('pitchwheel', channel=13, pitch=-512, time=0),
    Message('note_on', channel=1, note=48, velocity=127, time=11),
    Message('note_on', channel=4, note=48, velocity=80, time=0),
    Message('note_on', channel=4, note=55, velocity=80, time=0),
    Message('note_on', channel=8, note=64, velocity=78, time=0),
    Message('note_on', channel=9, note=44, velocity=80, time=0),
    Message('note_on', channel=9, note=36, velocity=120, time=0),
    Message('note_on', channel=9, note=36, velocity=0, time=4),
    Message('note_on', channel=9, note=44, velocity=0, time=1),
    Message('pitchwheel', channel=6, pitch=-384, time=5),
    Message('note_on', channel=8, note=55, velocity=78, time=0),
    Message('pitchwheel', channel=13, pitch=-384, time=0),
    Message('pitchwheel', channel=6, pitch=-256, time=14),
    Message('pitchwheel', channel=13, pitch=-256, time=0),
    Message('note_on', channel=8, note=60, velocity=78, time=4),
    Message('pitchwheel', channel=6, pitch=-128, time=10),
    Message('pitchwheel', channel=13, pitch=-128, time=0),
    Message('pitchwheel', channel=6, pitch=0, time=14),
    Message('pitchwheel', channel=13, pitch=0, time=0),
    Message('note_on', channel=4, note=55, velocity=0, time=140),
    Message('note_on', channel=4, note=48, velocity=0, time=0),
    Message('note_on', channel=1, note=48, velocity=0, time=24),
    Message('note_on', channel=8, note=64, velocity=0, time=14),
    Message('note_on', channel=8, note=60, velocity=0, time=5),
    Message('note_on', channel=8, note=55, velocity=0, time=5),
    Message('note_on', channel=1, note=48, velocity=127, time=0),
    Message('note_on', channel=4, note=48, velocity=71, time=0),
    Message('note_on', channel=4, note=55, velocity=71, time=0),
    Message('note_on', channel=8, note=60, velocity=63, time=0),
    Message('note_on', channel=9, note=42, velocity=80, time=0),
    Message('note_on', channel=9, note=42, velocity=0, time=5),
    Message('note_on', channel=8, note=55, velocity=63, time=14),
    Message('note_on', channel=8, note=64, velocity=63, time=5),
    Message('note_on', channel=8, note=60, velocity=0, time=138),
    Message('note_on', channel=8, note=64, velocity=0, time=24),
    Message('note_on', channel=8, note=55, velocity=0, time=2),
    Message('note_on', channel=4, note=55, velocity=0, time=4),
    Message('note_on', channel=4, note=48, velocity=0, time=0),
    Message('note_on', channel=1, note=48, velocity=0, time=24),
    Message('control_change', channel=13, control=1, value=82, time=9),
    Message('note_on', channel=4, note=48, velocity=86, time=15),
    Message('note_on', channel=4, note=57, velocity=86, time=0),
    Message('note_on', channel=8, note=64, velocity=48, time=0),
    Message('note_on', channel=9, note=54, velocity=50, time=0),
    Message('note_on', channel=9, note=44, velocity=80, time=0),
    Message('note_on', channel=9, note=38, velocity=120, time=0),
    Message('note_on', channel=9, note=38, velocity=0, time=4),
    Message('note_on', channel=9, note=54, velocity=0, time=0),
    Message('note_on', channel=9, note=44, velocity=0, time=1),
    Message('note_on', channel=8, note=55, velocity=48, time=13),
    Message('note_on', channel=8, note=60, velocity=48, time=5),
    Message('note_on', channel=4, note=48, velocity=0, time=169),
    Message('note_on', channel=4, note=57, velocity=0, time=0),
    Message('note_on', channel=8, note=64, velocity=0, time=38),
    Message('note_on', channel=8, note=55, velocity=0, time=9),
    Message('note_on', channel=8, note=60, velocity=0, time=0),
    Message('note_on', channel=1, note=48, velocity=127, time=1),
    Message('note_on', channel=4, note=48, velocity=70, time=0),
    Message('note_on', channel=4, note=52, velocity=70, time=0),
    Message('note_on', channel=8, note=60, velocity=70, time=0),
    Message('note_on', channel=9, note=42, velocity=80, time=0),
    Message('note_on', channel=9, note=42, velocity=0, time=5),
    Message('note_on', channel=8, note=55, velocity=70, time=14),
    Message('note_on', channel=8, note=64, velocity=70, time=14),
    Message('control_change', channel=13, control=1, value=0, time=143),
    Message('note_on', channel=4, note=52, velocity=0, time=16),
    Message('note_on', channel=4, note=48, velocity=0, time=0),
    Message('note_on', channel=1, note=48, velocity=0, time=24),
    Message('note_on', channel=13, note=64, velocity=0, time=9),
    Message('note_on', channel=6, note=64, velocity=0, time=0),
    Message('pitchwheel', channel=6, pitch=8191, time=0),
    Message('pitchwheel', channel=13, pitch=8191, time=0),
    Message('note_on', channel=8, note=60, velocity=0, time=5),
    Message('note_on', channel=8, note=55, velocity=0, time=5),
    Message('note_on', channel=7, note=67, velocity=0, time=2),
    Message('note_on', channel=4, note=48, velocity=87, time=3),
    Message('note_on', channel=4, note=55, velocity=87, time=0),
    Message('note_on', channel=6, note=62, velocity=100, time=0),
    Message('note_on', channel=8, note=55, velocity=80, time=0),
    Message('note_on', channel=9, note=44, velocity=80, time=0),
    Message('note_on', channel=9, note=36, velocity=120, time=0),
    Message('note_on', channel=13, note=62, velocity=100, time=0),
    Message('note_on', channel=9, note=36, velocity=0, time=4),
    Message('note_on', channel=8, note=64, velocity=0, time=0),
    Message('note_on', channel=9, note=44, velocity=0, time=1),
    Message('note_on', channel=7, note=67, velocity=120, time=6),
    Message('note_on', channel=8, note=60, velocity=80, time=5),
    Message('note_on', channel=8, note=64, velocity=80, time=7),
    Message('note_on', channel=4, note=48, velocity=0, time=169),
    Message('note_on', channel=4, note=55, velocity=0, time=0),
    Message('pitchwheel', channel=6, pitch=8191, time=5),
    Message('pitchwheel', channel=13, pitch=8191, time=0),
    Message('pitchwheel', channel=6, pitch=7808, time=7),
    Message('pitchwheel', channel=13, pitch=7808, time=0),
    Message('pitchwheel', channel=6, pitch=7424, time=7),
    Message('pitchwheel', channel=13, pitch=7424, time=0),
    Message('pitchwheel', channel=6, pitch=7040, time=7),
    Message('pitchwheel', channel=13, pitch=7040, time=0),
    Message('pitchwheel', channel=6, pitch=6656, time=7),
    Message('pitchwheel', channel=13, pitch=6656, time=0),
    Message('pitchwheel', channel=6, pitch=6144, time=7),
    Message('pitchwheel', channel=13, pitch=6144, time=0),
    Message('note_on', channel=1, note=48, velocity=127, time=8),
    Message('note_on', channel=4, note=48, velocity=72, time=0),
    Message('note_on', channel=4, note=55, velocity=72, time=0),
    Message('pitchwheel', channel=6, pitch=5760, time=0),
    Message('note_on', channel=9, note=42, velocity=80, time=0),
    Message('pitchwheel', channel=13, pitch=5760, time=0),
    Message('note_on', channel=9, note=42, velocity=0, time=5),
    Message('pitchwheel', channel=6, pitch=5376, time=2),
    Message('pitchwheel', channel=13, pitch=5376, time=0),
    Message('pitchwheel', channel=6, pitch=4992, time=7),
    Message('pitchwheel', channel=13, pitch=4992, time=0),
    Message('pitchwheel', channel=6, pitch=4608, time=7),
    Message('pitchwheel', channel=13, pitch=4608, time=0),
    Message('pitchwheel', channel=6, pitch=4096, time=7),
    Message('pitchwheel', channel=13, pitch=4096, time=0),
    Message('pitchwheel', channel=6, pitch=3712, time=7),
    Message('pitchwheel', channel=13, pitch=3712, time=0),
    Message('pitchwheel', channel=6, pitch=3328, time=7),
    Message('pitchwheel', channel=13, pitch=3328, time=0),
    Message('pitchwheel', channel=6, pitch=2944, time=7),
    Message('pitchwheel', channel=13, pitch=2944, time=0),
    Message('pitchwheel', channel=6, pitch=2560, time=7),
    Message('pitchwheel', channel=13, pitch=2560, time=0),
    Message('pitchwheel', channel=6, pitch=2048, time=7),
    Message('pitchwheel', channel=13, pitch=2048, time=0),
    Message('pitchwheel', channel=6, pitch=1664, time=7),
    Message('pitchwheel', channel=13, pitch=1664, time=0),
    Message('pitchwheel', channel=6, pitch=1280, time=7),
    Message('pitchwheel', channel=13, pitch=1280, time=0),
    Message('pitchwheel', channel=6, pitch=896, time=7),
    Message('pitchwheel', channel=13, pitch=896, time=0),
    Message('pitchwheel', channel=6, pitch=512, time=7),
    Message('pitchwheel', channel=13, pitch=512, time=0),
    Message('pitchwheel', channel=6, pitch=0, time=7),
    Message('pitchwheel', channel=13, pitch=0, time=0),
    Message('note_on', channel=4, note=55, velocity=0, time=94),
    Message('note_on', channel=4, note=48, velocity=0, time=0),
    Message('note_on', channel=8, note=64, velocity=0, time=18),
    Message('note_on', channel=1, note=48, velocity=0, time=6),
    Message('note_on', channel=8, note=55, velocity=0, time=5),
    Message('note_on', channel=8, note=60, velocity=0, time=16),
    Message('note_on', channel=13, note=62, velocity=0, time=3),
    Message('note_on', channel=6, note=62, velocity=0, time=0),
    Message('note_on', channel=4, note=57, velocity=82, time=0),
    Message('note_on', channel=4, note=48, velocity=82, time=0),
    Message('note_on', channel=6, note=60, velocity=100, time=0),
    Message('note_on', channel=9, note=44, velocity=80, time=0),
    Message('note_on', channel=9, note=54, velocity=50, time=0),
    Message('note_on', channel=9, note=38, velocity=120, time=0),
    Message('note_on', channel=13, note=60, velocity=100, time=0),
    Message('note_on', channel=9, note=38, velocity=0, time=4),
    Message('note_on', channel=9, note=54, velocity=0, time=0),
    Message('note_on', channel=7, note=67, velocity=0, time=0),
    Message('note_on', channel=9, note=44, velocity=0, time=1),
    Message('note_on', channel=8, note=55, velocity=59, time=4),
    Message('note_on', channel=8, note=60, velocity=59, time=6),
    Message('note_on', channel=8, note=64, velocity=59, time=4),
    Message('note_on', channel=4, note=57, velocity=0, time=173),
    Message('note_on', channel=4, note=48, velocity=0, time=0),
    Message('note_on', channel=8, note=55, velocity=0, time=14),
    Message('note_on', channel=8, note=60, velocity=0, time=13),
    Message('note_on', channel=8, note=64, velocity=0, time=4),
    Message('note_on', channel=13, note=60, velocity=0, time=2),
    Message('note_on', channel=6, note=60, velocity=0, time=0),
    Message('note_on', channel=6, note=60, velocity=100, time=8),
    Message('note_on', channel=13, note=60, velocity=100, time=0),
    Message('note_on', channel=1, note=48, velocity=127, time=7),
    Message('note_on', channel=4, note=52, velocity=70, time=0),
    Message('note_on', channel=4, note=48, velocity=70, time=0),
    Message('note_on', channel=8, note=64, velocity=50, time=0),
    Message('note_on', channel=8, note=60, velocity=50, time=0),
    Message('note_on', channel=8, note=55, velocity=50, time=0),
    Message('note_on', channel=9, note=42, velocity=80, time=0),
    Message('note_on', channel=9, note=42, velocity=0, time=5),
    Message('note_on', channel=8, note=64, velocity=0, time=79),
    Message('note_on', channel=8, note=60, velocity=0, time=0),
    Message('note_on', channel=8, note=55, velocity=0, time=7),
    Message('note_on', channel=4, note=52, velocity=0, time=101),
    Message('note_on', channel=4, note=48, velocity=0, time=0),
    Message('note_on', channel=1, note=48, velocity=0, time=24),
    Message('note_on', channel=1, note=48, velocity=127, time=24),
    Message('note_on', channel=4, note=55, velocity=82, time=0),
    Message('note_on', channel=4, note=48, velocity=82, time=0),
    Message('note_on', channel=8, note=64, velocity=78, time=0),
    Message('note_on', channel=9, note=36, velocity=120, time=0),
    Message('note_on', channel=9, note=44, velocity=80, time=0),
    Message('note_on', channel=9, note=36, velocity=0, time=4),
    Message('note_on', channel=9, note=44, velocity=0, time=1),
    Message('note_on', channel=8, note=55, velocity=78, time=5),
    Message('note_on', channel=8, note=60, velocity=78, time=18),
    Message('note_on', channel=4, note=55, velocity=0, time=164),
    Message('note_on', channel=4, note=48, velocity=0, time=0),
    Message('note_on', channel=1, note=48, velocity=0, time=24),
    Message('note_on', channel=8, note=64, velocity=0, time=14),
    Message('control_change', channel=13, control=1, value=92, time=2),
    Message('note_on', channel=8, note=60, velocity=0, time=3),
    Message('note_on', channel=8, note=55, velocity=0, time=5),
    Message('note_on', channel=1, note=48, velocity=127, time=0),
    Message('note_on', channel=4, note=55, velocity=70, time=0),
    Message('note_on', channel=4, note=48, velocity=70, time=0),
    Message('note_on', channel=8, note=60, velocity=63, time=0),
    Message('note_on', channel=9, note=42, velocity=80, time=0),
    Message('note_on', channel=9, note=36, velocity=120, time=0),
    Message('note_on', channel=9, note=36, velocity=0, time=4),
    Message('note_on', channel=9, note=42, velocity=0, time=1),
    Message('note_on', channel=8, note=55, velocity=63, time=14),
    Message('note_on', channel=8, note=64, velocity=63, time=5),
    Message('note_on', channel=8, note=60, velocity=0, time=138),
    Message('note_on', channel=8, note=64, velocity=0, time=24),
    Message('note_on', channel=8, note=55, velocity=0, time=2),
    Message('note_on', channel=4, note=48, velocity=0, time=4),
    Message('note_on', channel=4, note=55, velocity=0, time=0),
    Message('note_on', channel=1, note=48, velocity=0, time=24),
    Message('note_on', channel=1, note=50, velocity=127, time=24),
    Message('note_on', channel=4, note=48, velocity=80, time=0),
    Message('note_on', channel=4, note=57, velocity=80, time=0),
    Message('note_on', channel=8, note=64, velocity=48, time=0),
    Message('note_on', channel=9, note=44, velocity=80, time=0),
    Message('note_on', channel=9, note=54, velocity=50, time=0),
    Message('note_on', channel=9, note=38, velocity=120, time=0),
    Message('note_on', channel=9, note=38, velocity=0, time=4),
    Message('note_on', channel=9, note=54, velocity=0, time=0),
    Message('note_on', channel=9, note=44, velocity=0, time=1),
    Message('note_on', channel=8, note=55, velocity=48, time=13),
    Message('note_on', channel=8, note=60, velocity=48, time=5),
    Message('note_on', channel=4, note=48, velocity=0, time=169),
    Message('note_on', channel=4, note=57, velocity=0, time=0),
    Message('note_on', channel=1, note=50, velocity=0, time=24),
    Message('note_on', channel=8, note=64, velocity=0, time=14),
    Message('note_on', channel=8, note=55, velocity=0, time=9),
    Message('note_on', channel=8, note=60, velocity=0, time=0),
    Message('note_on', channel=1, note=48, velocity=127, time=1),
    Message('note_on', channel=4, note=52, velocity=70, time=0),
    Message('note_on', channel=4, note=48, velocity=70, time=0),
    Message('note_on', channel=8, note=60, velocity=70, time=0),
    Message('note_on', channel=9, note=42, velocity=80, time=0),
    Message('note_on', channel=9, note=42, velocity=0, time=5),
    Message('note_on', channel=8, note=55, velocity=70, time=14),
    Message('note_on', channel=8, note=64, velocity=70, time=14),
    Message('note_on', channel=4, note=48, velocity=0, time=159),
    Message('note_on', channel=4, note=52, velocity=0, time=0),
    Message('note_on', channel=1, note=48, velocity=0, time=24),
    Message('control_change', channel=13, control=1, value=0, time=9),
    Message('note_on', channel=8, note=60, velocity=0, time=5),
    Message('note_on', channel=6, note=60, velocity=0, time=2),
    Message('note_on', channel=13, note=60, velocity=0, time=0),
    Message('note_on', channel=8, note=55, velocity=0, time=3),
    Message('note_on', channel=2, note=76, velocity=0, time=5),
    Message('note_on', channel=2, note=79, velocity=0, time=0),
    Message('note_on', channel=1, note=41, velocity=127, time=0),
    Message('note_on', channel=2, note=81, velocity=53, time=0),
    Message('note_on', channel=2, note=77, velocity=60, time=0),
    Message('note_on', channel=4, note=41, velocity=86, time=0),
    Message('note_on', channel=4, note=48, velocity=86, time=0),
    Message('note_on', channel=6, note=62, velocity=100, time=0),
    Message('pitchwheel', channel=6, pitch=-7296, time=0),
    Message('note_on', channel=7, note=65, velocity=120, time=0),
    Message('note_on', channel=8, note=57, velocity=80, time=0),
    Message('note_on', channel=9, note=44, velocity=80, time=0),
    Message('note_on', channel=9, note=36, velocity=120, time=0),
    Message('note_on', channel=13, note=62, velocity=100, time=0),
    Message('pitchwheel', channel=13, pitch=-7296, time=0),
    Message('note_on', channel=9, note=36, velocity=0, time=4),
    Message('note_on', channel=8, note=64, velocity=0, time=0),
    Message('note_on', channel=9, note=44, velocity=0, time=1),
    Message('pitchwheel', channel=6, pitch=-6784, time=2),
    Message('pitchwheel', channel=13, pitch=-6784, time=0),
    Message('pitchwheel', channel=6, pitch=-6272, time=7),
    Message('pitchwheel', channel=13, pitch=-6272, time=0),
    Message('note_on', channel=8, note=60, velocity=80, time=2),
    Message('pitchwheel', channel=6, pitch=-5888, time=5),
    Message('pitchwheel', channel=13, pitch=-5888, time=0),
    Message('note_on', channel=8, note=65, velocity=80, time=2),
    Message('pitchwheel', channel=6, pitch=-5376, time=5),
    Message('pitchwheel', channel=13, pitch=-5376, time=0),
    Message('pitchwheel', channel=6, pitch=-4864, time=7),
    Message('pitchwheel', channel=13, pitch=-4864, time=0),
    Message('pitchwheel', channel=6, pitch=-4352, time=7),
    Message('pitchwheel', channel=13, pitch=-4352, time=0),
    Message('pitchwheel', channel=6, pitch=-3968, time=7),
    Message('pitchwheel', channel=13, pitch=-3968, time=0),
    Message('pitchwheel', channel=6, pitch=-3456, time=7),
    Message('pitchwheel', channel=13, pitch=-3456, time=0),
    Message('pitchwheel', channel=6, pitch=-2944, time=7),
    Message('pitchwheel', channel=13, pitch=-2944, time=0),
    Message('pitchwheel', channel=6, pitch=-2432, time=7),
    Message('pitchwheel', channel=13, pitch=-2432, time=0),
    Message('pitchwheel', channel=6, pitch=-2048, time=7),
    Message('pitchwheel', channel=13, pitch=-2048, time=0),
    Message('pitchwheel', channel=6, pitch=-1536, time=7),
    Message('pitchwheel', channel=13, pitch=-1536, time=0),
    Message('pitchwheel', channel=6, pitch=-1024, time=7),
    Message('pitchwheel', channel=13, pitch=-1024, time=0),
    Message('pitchwheel', channel=6, pitch=-512, time=7),
    Message('pitchwheel', channel=13, pitch=-512, time=0),
    Message('pitchwheel', channel=6, pitch=0, time=7),
    Message('pitchwheel', channel=13, pitch=0, time=0),
    Message('note_on', channel=4, note=48, velocity=0, time=87),
    Message('note_on', channel=4, note=41, velocity=0, time=0),
    Message('note_on', channel=1, note=41, velocity=0, time=24),
    Message('note_on', channel=1, note=41, velocity=127, time=24),
    Message('note_on', channel=4, note=48, velocity=69, time=0),
    Message('note_on', channel=4, note=41, velocity=69, time=0),
    Message('note_on', channel=9, note=42, velocity=80, time=0),
    Message('note_on', channel=9, note=42, velocity=0, time=5),
    Message('note_on', channel=4, note=41, velocity=0, time=187),
    Message('note_on', channel=4, note=48, velocity=0, time=0),
    Message('note_on', channel=8, note=65, velocity=0, time=18),
    Message('note_on', channel=1, note=41, velocity=0, time=6),
    Message('note_on', channel=8, note=57, velocity=0, time=5),
    Message('note_on', channel=8, note=60, velocity=0, time=16),
    Message('note_on', channel=7, note=65, velocity=0, time=3),
    Message('note_on', channel=6, note=62, velocity=0, time=0),
    Message('note_on', channel=13, note=62, velocity=0, time=0),
    Message('note_on', channel=4, note=41, velocity=83, time=0),
    Message('note_on', channel=4, note=50, velocity=83, time=0),
    Message('note_on', channel=6, note=60, velocity=100, time=0),
    Message('note_on', channel=7, note=65, velocity=120, time=0),
    Message('note_on', channel=9, note=44, velocity=80, time=0),
    Message('note_on', channel=9, note=54, velocity=50, time=0),
    Message('note_on', channel=9, note=38, velocity=120, time=0),
    Message('note_on', channel=13, note=60, velocity=100, time=0),
    Message('note_on', channel=9, note=38, velocity=0, time=4),
    Message('note_on', channel=9, note=54, velocity=0, time=0),
    Message('note_on', channel=9, note=44, velocity=0, time=1),
    Message('note_on', channel=8, note=57, velocity=59, time=4),
    Message('note_on', channel=8, note=60, velocity=59, time=6),
    Message('note_on', channel=8, note=65, velocity=59, time=4),
    Message('note_on', channel=4, note=50, velocity=0, time=173),
    Message('note_on', channel=4, note=41, velocity=0, time=0),
    Message('note_on', channel=8, note=57, velocity=0, time=14),
    Message('note_on', channel=8, note=60, velocity=0, time=13),
    Message('note_on', channel=8, note=65, velocity=0, time=4),
    Message('note_on', channel=1, note=41, velocity=127, time=17),
    Message('note_on', channel=4, note=41, velocity=72, time=0),
    Message('note_on', channel=4, note=45, velocity=72, time=0),
    Message('note_on', channel=8, note=57, velocity=50, time=0),
    Message('note_on', channel=8, note=65, velocity=50, time=0),
    Message('note_on', channel=8, note=60, velocity=50, time=0),
    Message('note_on', channel=9, note=42, velocity=80, time=0),
    Message('note_on', channel=9, note=36, velocity=120, time=0),
    Message('note_on', channel=9, note=42, velocity=0, time=5),
    Message('note_on', channel=9, note=36, velocity=0, time=11),
    Message('note_on', channel=8, note=65, velocity=0, time=68),
    Message('note_on', channel=8, note=60, velocity=0, time=0),
    Message('note_on', channel=8, note=57, velocity=0, time=7),
    Message('note_on', channel=4, note=41, velocity=0, time=101),
    Message('note_on', channel=4, note=45, velocity=0, time=0),
    Message('note_on', channel=1, note=41, velocity=0, time=24),
    Message('note_on', channel=6, note=60, velocity=0, time=24),
    Message('note_on', channel=13, note=60, velocity=0, time=0),
    Message('note_on', channel=7, note=65, velocity=0, time=0),
    Message('note_on', channel=1, note=41, velocity=127, time=0),
    Message('note_on', channel=4, note=48, velocity=80, time=0),
    Message('note_on', channel=4, note=41, velocity=80, time=0),
    Message('note_on', channel=6, note=62, velocity=100, time=0),
    Message('note_on', channel=7, note=65, velocity=120, time=0),
    Message('note_on', channel=8, note=65, velocity=78, time=0),
    Message('note_on', channel=9, note=36, velocity=120, time=0),
    Message('note_on', channel=9, note=44, velocity=80, time=0),
    Message('note_on', channel=13, note=62, velocity=100, time=0),
    Message('note_on', channel=9, note=36, velocity=0, time=4),
    Message('note_on', channel=9, note=44, velocity=0, time=1),
    Message('note_on', channel=8, note=57, velocity=78, time=5),
    Message('note_on', channel=8, note=60, velocity=78, time=18),
    Message('note_on', channel=4, note=41, velocity=0, time=164),
    Message('note_on', channel=4, note=48, velocity=0, time=0),
    Message('note_on', channel=1, note=41, velocity=0, time=24),
    Message('note_on', channel=8, note=65, velocity=0, time=14),
    Message('note_on', channel=8, note=60, velocity=0, time=5),
    Message('note_on', channel=7, note=65, velocity=0, time=5),
    Message('note_on', channel=6, note=62, velocity=0, time=0),
    Message('note_on', channel=8, note=57, velocity=0, time=0),
    Message('note_on', channel=13, note=62, velocity=0, time=0),
    Message('note_on', channel=1, note=41, velocity=127, time=0),
    Message('note_on', channel=4, note=48, velocity=71, time=0),
    Message('note_on', channel=4, note=41, velocity=71, time=0),
    Message('note_on', channel=6, note=60, velocity=100, time=0),
    Message('note_on', channel=7, note=65, velocity=120, time=0),
    Message('note_on', channel=8, note=60, velocity=63, time=0),
    Message('note_on', channel=9, note=42, velocity=80, time=0),
    Message('note_on', channel=13, note=60, velocity=100, time=0),
    Message('note_on', channel=9, note=42, velocity=0, time=5),
    Message('note_on', channel=8, note=57, velocity=63, time=14),
    Message('note_on', channel=8, note=65, velocity=63, time=5),
    Message('note_on', channel=8, note=60, velocity=0, time=138),
    Message('note_on', channel=8, note=65, velocity=0, time=24),
    Message('note_on', channel=8, note=57, velocity=0, time=2),
    Message('note_on', channel=4, note=41, velocity=0, time=4),
    Message('note_on', channel=4, note=48, velocity=0, time=0),
    Message('note_on', channel=1, note=41, velocity=0, time=24),
    Message('pitchwheel', channel=6, pitch=8191, time=16),
    Message('pitchwheel', channel=13, pitch=8191, time=0),
    Message('note_on', channel=7, note=65, velocity=0, time=8),
    Message('note_on', channel=13, note=60, velocity=0, time=0),
    Message('note_on', channel=6, note=60, velocity=0, time=0),
    Message('note_on', channel=4, note=50, velocity=86, time=0),
    Message('note_on', channel=4, note=41, velocity=86, time=0),
    Message('note_on', channel=6, note=55, velocity=100, time=0),
    Message('note_on', channel=8, note=65, velocity=48, time=0),
    Message('note_on', channel=9, note=44, velocity=80, time=0),
    Message('note_on', channel=9, note=54, velocity=50, time=0),
    Message('note_on', channel=9, note=38, velocity=120, time=0),
    Message('note_on', channel=13, note=55, velocity=100, time=0),
    Message('note_on', channel=9, note=38, velocity=0, time=4),
    Message('note_on', channel=9, note=54, velocity=0, time=0),
    Message('note_on', channel=9, note=44, velocity=0, time=1),
    Message('note_on', channel=8, note=57, velocity=48, time=13),
    Message('note_on', channel=8, note=60, velocity=48, time=5),
    Message('pitchwheel', channel=6, pitch=8191, time=33),
    Message('pitchwheel', channel=13, pitch=8191, time=0),
    Message('pitchwheel', channel=6, pitch=7552, time=7),
    Message('pitchwheel', channel=13, pitch=7552, time=0),
    Message('pitchwheel', channel=6, pitch=6784, time=7),
    Message('pitchwheel', channel=13, pitch=6784, time=0),
    Message('pitchwheel', channel=6, pitch=6016, time=7),
    Message('pitchwheel', channel=13, pitch=6016, time=0),
    Message('pitchwheel', channel=6, pitch=5248, time=7),
    Message('pitchwheel', channel=13, pitch=5248, time=0),
    Message('pitchwheel', channel=6, pitch=4480, time=7),
    Message('pitchwheel', channel=13, pitch=4480, time=0),
    Message('pitchwheel', channel=6, pitch=3840, time=7),
    Message('pitchwheel', channel=13, pitch=3840, time=0),
    Message('pitchwheel', channel=6, pitch=3072, time=7),
    Message('pitchwheel', channel=13, pitch=3072, time=0),
    Message('pitchwheel', channel=6, pitch=2304, time=7),
    Message('pitchwheel', channel=13, pitch=2304, time=0),
    Message('pitchwheel', channel=6, pitch=1536, time=8),
    Message('pitchwheel', channel=13, pitch=1536, time=0),
    Message('pitchwheel', channel=6, pitch=768, time=7),
    Message('pitchwheel', channel=13, pitch=768, time=0),
    Message('pitchwheel', channel=6, pitch=0, time=7),
    Message('pitchwheel', channel=13, pitch=0, time=0),
    Message('note_on', channel=4, note=41, velocity=0, time=58),
    Message('note_on', channel=4, note=50, velocity=0, time=0),
    Message('note_on', channel=8, note=65, velocity=0, time=38),
    Message('note_on', channel=8, note=57, velocity=0, time=9),
    Message('note_on', channel=8, note=60, velocity=0, time=0),
    Message('note_on', channel=13, note=55, velocity=0, time=1),
    Message('note_on', channel=6, note=55, velocity=0, time=0),
    Message('note_on', channel=1, note=41, velocity=127, time=0),
    Message('note_on', channel=4, note=45, velocity=70, time=0),
    Message('note_on', channel=4, note=41, velocity=70, time=0),
    Message('note_on', channel=6, note=53, velocity=100, time=0),
    Message('note_on', channel=8, note=60, velocity=70, time=0),
    Message('note_on', channel=9, note=42, velocity=80, time=0),
    Message('note_on', channel=13, note=53, velocity=100, time=0),
    Message('note_on', channel=9, note=42, velocity=0, time=5),
    Message('note_on', channel=8, note=57, velocity=70, time=14),
    Message('note_on', channel=8, note=65, velocity=70, time=14),
    Message('note_on', channel=4, note=41, velocity=0, time=159),
    Message('note_on', channel=4, note=45, velocity=0, time=0),
    Message('note_on', channel=1, note=41, velocity=0, time=24),
    Message('note_on', channel=8, note=60, velocity=0, time=14),
    Message('note_on', channel=8, note=57, velocity=0, time=5),
    Message('note_on', channel=13, note=53, velocity=0, time=5),
    Message('note_on', channel=6, note=53, velocity=0, time=0),
    Message('note_on', channel=4, note=48, velocity=87, time=0),
    Message('note_on', channel=4, note=41, velocity=87, time=0),
    Message('note_on', channel=6, note=53, velocity=100, time=0),
    Message('note_on', channel=8, note=57, velocity=80, time=0),
    Message('note_on', channel=9, note=36, velocity=120, time=0),
    Message('note_on', channel=9, note=44, velocity=80, time=0),
    Message('note_on', channel=13, note=53, velocity=100, time=0),
    Message('note_on', channel=9, note=36, velocity=0, time=4),
    Message('note_on', channel=8, note=65, velocity=0, time=0),
    Message('note_on', channel=9, note=44, velocity=0, time=1),
    Message('note_on', channel=8, note=60, velocity=80, time=11),
    Message('note_on', channel=8, note=65, velocity=80, time=7),
    Message('note_on', channel=4, note=48, velocity=0, time=169),
    Message('note_on', channel=4, note=41, velocity=0, time=0),
    Message('note_on', channel=1, note=41, velocity=127, time=48),
    Message('note_on', channel=4, note=41, velocity=72, time=0),
    Message('note_on', channel=4, note=48, velocity=72, time=0),
    Message('note_on', channel=9, note=42, velocity=80, time=0),
    Message('note_on', channel=9, note=42, velocity=0, time=5),
    Message('note_on', channel=4, note=41, velocity=0, time=187),
    Message('note_on', channel=4, note=48, velocity=0, time=0),
    Message('control_change', channel=13, control=1, value=60, time=5),
    Message('note_on', channel=8, note=65, velocity=0, time=13),
    Message('note_on', channel=1, note=41, velocity=0, time=6),
    Message('note_on', channel=8, note=57, velocity=0, time=5),
    Message('note_on', channel=8, note=60, velocity=0, time=16),
    Message('note_on', channel=4, note=41, velocity=82, time=3),
    Message('note_on', channel=4, note=50, velocity=82, time=0),
    Message('note_on', channel=9, note=54, velocity=50, time=0),
    Message('note_on', channel=9, note=44, velocity=80, time=0),
    Message('note_on', channel=9, note=38, velocity=120, time=0),
    Message('note_on', channel=9, note=38, velocity=0, time=4),
    Message('note_on', channel=9, note=54, velocity=0, time=0),
    Message('note_on', channel=9, note=44, velocity=0, time=1),
    Message('note_on', channel=8, note=57, velocity=59, time=4),
    Message('note_on', channel=8, note=60, velocity=59, time=6),
    Message('note_on', channel=8, note=65, velocity=59, time=4),
    Message('note_on', channel=4, note=50, velocity=0, time=173),
    Message('note_on', channel=4, note=41, velocity=0, time=0),
    Message('note_on', channel=8, note=57, velocity=0, time=14),
    Message('note_on', channel=8, note=60, velocity=0, time=13),
    Message('note_on', channel=8, note=65, velocity=0, time=4),
    Message('note_on', channel=1, note=41, velocity=127, time=17),
    Message('note_on', channel=4, note=45, velocity=70, time=0),
    Message('note_on', channel=4, note=41, velocity=70, time=0),
    Message('note_on', channel=8, note=65, velocity=50, time=0),
    Message('note_on', channel=8, note=60, velocity=50, time=0),
    Message('note_on', channel=8, note=57, velocity=50, time=0),
    Message('note_on', channel=9, note=42, velocity=80, time=0),
    Message('note_on', channel=9, note=42, velocity=0, time=5),
    Message('control_change', channel=13, control=1, value=94, time=9),
    Message('note_on', channel=8, note=65, velocity=0, time=70),
    Message('note_on', channel=8, note=60, velocity=0, time=0),
    Message('note_on', channel=8, note=57, velocity=0, time=7),
    Message('note_on', channel=4, note=45, velocity=0, time=101),
    Message('note_on', channel=4, note=41, velocity=0, time=0),
    Message('note_on', channel=1, note=41, velocity=0, time=24),
    Message('note_on', channel=1, note=43, velocity=127, time=24),
    Message('note_on', channel=4, note=41, velocity=82, time=0),
    Message('note_on', channel=4, note=48, velocity=82, time=0),
    Message('note_on', channel=8, note=65, velocity=78, time=0),
    Message('note_on', channel=9, note=36, velocity=120, time=0),
    Message('note_on', channel=9, note=44, velocity=80, time=0),
    Message('note_on', channel=9, note=36, velocity=0, time=4),
    Message('note_on', channel=9, note=44, velocity=0, time=1),
    Message('note_on', channel=8, note=57, velocity=78, time=5),
    Message('note_on', channel=8, note=60, velocity=78, time=18),
    Message('control_change', channel=13, control=1, value=0, time=56),
    Message('note_on', channel=13, note=53, velocity=0, time=43),
    Message('note_on', channel=6, note=53, velocity=0, time=0),
    Message('note_on', channel=4, note=48, velocity=0, time=65),
    Message('note_on', channel=4, note=41, velocity=0, time=0),
    Message('note_on', channel=1, note=43, velocity=0, time=24),
    Message('note_on', channel=8, note=65, velocity=0, time=14),
    Message('note_on', channel=8, note=60, velocity=0, time=5),
    Message('note_on', channel=8, note=57, velocity=0, time=5),
    Message('note_on', channel=1, note=43, velocity=127, time=0),
    Message('note_on', channel=4, note=48, velocity=70, time=0),
    Message('note_on', channel=4, note=41, velocity=70, time=0),
    Message('note_on', channel=6, note=67, velocity=100, time=0),
    Message('note_on', channel=7, note=72, velocity=120, time=0),
    Message('note_on', channel=8, note=60, velocity=63, time=0),
    Message('note_on', channel=9, note=42, velocity=80, time=0),
    Message('note_on', channel=9, note=36, velocity=120, time=0),
    Message('note_on', channel=13, note=67, velocity=100, time=0),
    Message('note_on', channel=9, note=36, velocity=0, time=4),
    Message('note_on', channel=9, note=42, velocity=0, time=1),
    Message('note_on', channel=8, note=57, velocity=63, time=14),
    Message('note_on', channel=8, note=65, velocity=63, time=5),
    Message('note_on', channel=8, note=60, velocity=0, time=138),
    Message('note_on', channel=7, note=72, velocity=0, time=0),
    Message('note_on', channel=6, note=67, velocity=0, time=21),
    Message('note_on', channel=13, note=67, velocity=0, time=0),
    Message('note_on', channel=8, note=65, velocity=0, time=3),
    Message('note_on', channel=8, note=57, velocity=0, time=2),
    Message('note_on', channel=4, note=41, velocity=0, time=4),
    Message('note_on', channel=4, note=48, velocity=0, time=0),
    Message('note_on', channel=1, note=43, velocity=0, time=24),
    Message('note_on', channel=1, note=45, velocity=127, time=24),
    Message('note_on', channel=4, note=41, velocity=80, time=0),
    Message('note_on', channel=4, note=50, velocity=80, time=0),
    Message('note_on', channel=6, note=67, velocity=100, time=0),
    Message('note_on', channel=7, note=72, velocity=120, time=0),
    Message('note_on', channel=8, note=65, velocity=48, time=0),
    Message('note_on', channel=9, note=44, velocity=80, time=0),
    Message('note_on', channel=9, note=54, velocity=50, time=0),
    Message('note_on', channel=9, note=38, velocity=120, time=0),
    Message('note_on', channel=13, note=67, velocity=100, time=0),
    Message('note_on', channel=9, note=38, velocity=0, time=4),
    Message('note_on', channel=9, note=54, velocity=0, time=0),
    Message('note_on', channel=9, note=44, velocity=0, time=1),
    Message('note_on', channel=8, note=57, velocity=48, time=13),
    Message('note_on', channel=8, note=60, velocity=48, time=5),
    Message('note_on', channel=7, note=72, velocity=0, time=139),
    Message('note_on', channel=6, note=67, velocity=0, time=28),
    Message('note_on', channel=13, note=67, velocity=0, time=0),
    Message('note_on', channel=4, note=50, velocity=0, time=2),
    Message('note_on', channel=4, note=41, velocity=0, time=0),
    Message('note_on', channel=1, note=45, velocity=0, time=24),
    Message('note_on', channel=8, note=65, velocity=0, time=14),
    Message('note_on', channel=8, note=57, velocity=0, time=9),
    Message('note_on', channel=8, note=60, velocity=0, time=0),
    Message('note_on', channel=1, note=45, velocity=127, time=1),
    Message('note_on', channel=4, note=45, velocity=70, time=0),
    Message('note_on', channel=4, note=41, velocity=70, time=0),
    Message('note_on', channel=6, note=67, velocity=100, time=0),
    Message('note_on', channel=7, note=72, velocity=120, time=0),
    Message('note_on', channel=8, note=60, velocity=70, time=0),
    Message('note_on', channel=9, note=42, velocity=80, time=0),
    Message('note_on', channel=13, note=67, velocity=100, time=0),
    Message('note_on', channel=9, note=42, velocity=0, time=5),
    Message('note_on', channel=8, note=57, velocity=70, time=14),
    Message('note_on', channel=8, note=65, velocity=70, time=14),
    Message('note_on', channel=7, note=72, velocity=0, time=129),
    Message('note_on', channel=6, note=67, velocity=0, time=14),
    Message('note_on', channel=13, note=67, velocity=0, time=0),
    Message('note_on', channel=4, note=41, velocity=0, time=16),
    Message('note_on', channel=4, note=45, velocity=0, time=0),
    Message('note_on', channel=1, note=45, velocity=0, time=24),
    Message('pitchwheel', channel=6, pitch=-8192, time=9),
    Message('pitchwheel', channel=13, pitch=-8192, time=0),
    Message('note_on', channel=8, note=60, velocity=0, time=5),
    Message('pitchwheel', channel=6, pitch=-7808, time=2),
    Message('pitchwheel', channel=13, pitch=-7808, time=0),
    Message('note_on', channel=8, note=57, velocity=0, time=3),
    Message('note_on', channel=2, note=77, velocity=0, time=5),
    Message('note_on', channel=2, note=81, velocity=0, time=0),
    Message('note_on', channel=1, note=48, velocity=127, time=0),
    Message('note_on', channel=2, note=76, velocity=57, time=0),
    Message('note_on', channel=2, note=79, velocity=56, time=0),
    Message('note_on', channel=4, note=55, velocity=86, time=0),
    Message('note_on', channel=4, note=48, velocity=86, time=0),
    Message('pitchwheel', channel=6, pitch=-7168, time=0),
    Message('note_on', channel=6, note=69, velocity=100, time=0),
    Message('note_on', channel=7, note=72, velocity=120, time=0),
    Message('note_on', channel=8, note=55, velocity=80, time=0),
    Message('note_on', channel=9, note=57, velocity=80, time=0),
    Message('note_on', channel=9, note=36, velocity=120, time=0),
    Message('pitchwheel', channel=13, pitch=-7168, time=0),
    Message('note_on', channel=13, note=69, velocity=100, time=0),
    Message('note_on', channel=9, note=36, velocity=0, time=4),
    Message('note_on', channel=8, note=65, velocity=0, time=0),
    Message('note_on', channel=9, note=57, velocity=0, time=1),
    Message('pitchwheel', channel=6, pitch=-6656, time=2),
    Message('pitchwheel', channel=13, pitch=-6656, time=0),
    Message('pitchwheel', channel=6, pitch=-6016, time=7),
    Message('pitchwheel', channel=13, pitch=-6016, time=0),
    Message('note_on', channel=8, note=60, velocity=80, time=2),
    Message('pitchwheel', channel=6, pitch=-5376, time=5),
    Message('pitchwheel', channel=13, pitch=-5376, time=0),
    Message('note_on', channel=8, note=64, velocity=80, time=2),
    Message('pitchwheel', channel=6, pitch=-4864, time=5),
    Message('pitchwheel', channel=13, pitch=-4864, time=0),
    Message('pitchwheel', channel=6, pitch=-4224, time=7),
    Message('pitchwheel', channel=13, pitch=-4224, time=0),
    Message('pitchwheel', channel=6, pitch=-3584, time=7),
    Message('pitchwheel', channel=13, pitch=-3584, time=0),
    Message('pitchwheel', channel=6, pitch=-3072, time=7),
    Message('pitchwheel', channel=13, pitch=-3072, time=0),
    Message('pitchwheel', channel=6, pitch=-2432, time=7),
    Message('pitchwheel', channel=13, pitch=-2432, time=0),
    Message('pitchwheel', channel=6, pitch=-1792, time=7),
    Message('pitchwheel', channel=13, pitch=-1792, time=0),
    Message('pitchwheel', channel=6, pitch=-1280, time=7),
    Message('pitchwheel', channel=13, pitch=-1280, time=0),
    Message('pitchwheel', channel=6, pitch=-640, time=7),
    Message('pitchwheel', channel=13, pitch=-640, time=0),
    Message('pitchwheel', channel=6, pitch=0, time=7),
    Message('pitchwheel', channel=13, pitch=0, time=0),
    Message('note_on', channel=4, note=48, velocity=0, time=108),
    Message('note_on', channel=4, note=55, velocity=0, time=0),
    Message('note_on', channel=1, note=48, velocity=0, time=24),
    Message('note_on', channel=1, note=48, velocity=127, time=24),
    Message('note_on', channel=4, note=48, velocity=69, time=0),
    Message('note_on', channel=4, note=55, velocity=69, time=0),
    Message('note_on', channel=9, note=42, velocity=80, time=0),
    Message('note_on', channel=9, note=42, velocity=0, time=5),
    Message('note_on', channel=4, note=55, velocity=0, time=187),
    Message('note_on', channel=4, note=48, velocity=0, time=0),
    Message('note_on', channel=8, note=64, velocity=0, time=18),
    Message('note_on', channel=1, note=48, velocity=0, time=6),
    Message('note_on', channel=8, note=55, velocity=0, time=5),
    Message('note_on', channel=13, note=69, velocity=0, time=5),
    Message('note_on', channel=6, note=69, velocity=0, time=0),
    Message('note_on', channel=8, note=60, velocity=0, time=11),
    Message('note_on', channel=7, note=72, velocity=0, time=3),
    Message('note_on', channel=4, note=57, velocity=83, time=0),
    Message('note_on', channel=4, note=48, velocity=83, time=0),
    Message('note_on', channel=6, note=67, velocity=100, time=0),
    Message('note_on', channel=7, note=72, velocity=120, time=0),
    Message('note_on', channel=9, note=54, velocity=50, time=0),
    Message('note_on', channel=9, note=44, velocity=80, time=0),
    Message('note_on', channel=9, note=38, velocity=120, time=0),
    Message('note_on', channel=13, note=67, velocity=100, time=0),
    Message('note_on', channel=9, note=38, velocity=0, time=4),
    Message('note_on', channel=9, note=54, velocity=0, time=0),
    Message('note_on', channel=9, note=44, velocity=0, time=1),
    Message('note_on', channel=8, note=55, velocity=59, time=4),
    Message('note_on', channel=8, note=60, velocity=59, time=6),
    Message('note_on', channel=8, note=64, velocity=59, time=4),
    Message('note_on', channel=4, note=48, velocity=0, time=173),
    Message('note_on', channel=4, note=57, velocity=0, time=0),
    Message('note_on', channel=8, note=55, velocity=0, time=14),
    Message('note_on', channel=8, note=60, velocity=0, time=13),
    Message('note_on', channel=8, note=64, velocity=0, time=4),
    Message('note_on', channel=1, note=48, velocity=127, time=17),
    Message('note_on', channel=4, note=52, velocity=72, time=0),
    Message('note_on', channel=4, note=48, velocity=72, time=0),
    Message('note_on', channel=8, note=60, velocity=50, time=0),
    Message('note_on', channel=8, note=55, velocity=50, time=0),
    Message('note_on', channel=8, note=64, velocity=50, time=0),
    Message('note_on', channel=9, note=36, velocity=120, time=0),
    Message('note_on', channel=9, note=42, velocity=80, time=0),
    Message('note_on', channel=9, note=42, velocity=0, time=5),
    Message('note_on', channel=9, note=36, velocity=0, time=11),
    Message('note_on', channel=8, note=60, velocity=0, time=68),
    Message('note_on', channel=8, note=64, velocity=0, time=0),
    Message('note_on', channel=8, note=55, velocity=0, time=7),
    Message('note_on', channel=4, note=52, velocity=0, time=101),
    Message('note_on', channel=4, note=48, velocity=0, time=0),
    Message('note_on', channel=1, note=48, velocity=0, time=24),
    Message('note_on', channel=13, note=67, velocity=0, time=10),
    Message('note_on', channel=6, note=67, velocity=0, time=0),
    Message('pitchwheel', channel=6, pitch=0, time=6),
    Message('pitchwheel', channel=13, pitch=0, time=0),
    Message('note_on', channel=7, note=72, velocity=0, time=8),
    Message('note_on', channel=1, note=41, velocity=127, time=0),
    Message('note_on', channel=2, note=81, velocity=57, time=0),
    Message('note_on', channel=2, note=77, velocity=57, time=0),
    Message('note_on', channel=4, note=48, velocity=80, time=0),
    Message('note_on', channel=4, note=41, velocity=80, time=0),
    Message('pitchwheel', channel=6, pitch=512, time=0),
    Message('note_on', channel=6, note=62, velocity=100, time=0),
    Message('note_on', channel=7, note=67, velocity=120, time=0),
    Message('note_on', channel=8, note=65, velocity=78, time=0),
    Message('note_on', channel=9, note=44, velocity=80, time=0),
    Message('note_on', channel=9, note=36, velocity=120, time=0),
    Message('pitchwheel', channel=13, pitch=512, time=0),
    Message('note_on', channel=13, note=62, velocity=100, time=0),
    Message('note_on', channel=9, note=36, velocity=0, time=4),
    Message('note_on', channel=9, note=44, velocity=0, time=1),
    Message('pitchwheel', channel=6, pitch=1152, time=2),
    Message('pitchwheel', channel=13, pitch=1152, time=0),
    Message('note_on', channel=2, note=79, velocity=0, time=3),
    Message('note_on', channel=2, note=76, velocity=0, time=0),
    Message('note_on', channel=8, note=57, velocity=78, time=0),
    Message('pitchwheel', channel=6, pitch=1664, time=4),
    Message('pitchwheel', channel=13, pitch=1664, time=0),
    Message('pitchwheel', channel=6, pitch=2304, time=7),
    Message('pitchwheel', channel=13, pitch=2304, time=0),
    Message('pitchwheel', channel=6, pitch=2816, time=7),
    Message('note_on', channel=8, note=60, velocity=78, time=0),
    Message('pitchwheel', channel=13, pitch=2816, time=0),
    Message('pitchwheel', channel=6, pitch=3456, time=7),
    Message('pitchwheel', channel=13, pitch=3456, time=0),
    Message('pitchwheel', channel=6, pitch=4096, time=7),
    Message('pitchwheel', channel=13, pitch=4096, time=0),
    Message('pitchwheel', channel=6, pitch=4608, time=7),
    Message('pitchwheel', channel=13, pitch=4608, time=0),
    Message('pitchwheel', channel=6, pitch=5248, time=7),
    Message('pitchwheel', channel=13, pitch=5248, time=0),
    Message('pitchwheel', channel=6, pitch=5760, time=7),
    Message('pitchwheel', channel=13, pitch=5760, time=0),
    Message('pitchwheel', channel=6, pitch=6400, time=7),
    Message('pitchwheel', channel=13, pitch=6400, time=0),
    Message('pitchwheel', channel=6, pitch=6912, time=7),
    Message('pitchwheel', channel=13, pitch=6912, time=0),
    Message('pitchwheel', channel=6, pitch=7552, time=7),
    Message('pitchwheel', channel=13, pitch=7552, time=0),
    Message('pitchwheel', channel=6, pitch=8191, time=7),
    Message('pitchwheel', channel=13, pitch=8191, time=0),
    Message('pitchwheel', channel=6, pitch=8191, time=57),
    Message('pitchwheel', channel=13, pitch=8191, time=0),
    Message('pitchwheel', channel=6, pitch=7808, time=7),
    Message('pitchwheel', channel=13, pitch=7808, time=0),
    Message('pitchwheel', channel=6, pitch=7424, time=7),
    Message('pitchwheel', channel=13, pitch=7424, time=0),
    Message('pitchwheel', channel=6, pitch=6912, time=7),
    Message('pitchwheel', channel=13, pitch=6912, time=0),
    Message('pitchwheel', channel=6, pitch=6528, time=7),
    Message('pitchwheel', channel=13, pitch=6528, time=0),
    Message('pitchwheel', channel=6, pitch=6144, time=7),
    Message('pitchwheel', channel=13, pitch=6144, time=0),
    Message('pitchwheel', channel=6, pitch=5632, time=7),
    Message('pitchwheel', channel=13, pitch=5632, time=0),
    Message('note_on', channel=4, note=41, velocity=0, time=2),
    Message('note_on', channel=4, note=48, velocity=0, time=0),
    Message('pitchwheel', channel=6, pitch=5248, time=5),
    Message('pitchwheel', channel=13, pitch=5248, time=0),
    Message('pitchwheel', channel=6, pitch=4864, time=7),
    Message('pitchwheel', channel=13, pitch=4864, time=0),
    Message('pitchwheel', channel=6, pitch=4352, time=7),
    Message('pitchwheel', channel=13, pitch=4352, time=0),
    Message('note_on', channel=1, note=41, velocity=0, time=5),
    Message('pitchwheel', channel=6, pitch=3968, time=2),
    Message('pitchwheel', channel=13, pitch=3968, time=0),
    Message('pitchwheel', channel=6, pitch=3456, time=7),
    Message('pitchwheel', channel=13, pitch=3456, time=0),
    Message('note_on', channel=7, note=67, velocity=0, time=1),
    Message('note_on', channel=8, note=65, velocity=0, time=4),
    Message('pitchwheel', channel=6, pitch=3072, time=2),
    Message('pitchwheel', channel=13, pitch=3072, time=0),
    Message('note_on', channel=8, note=60, velocity=0, time=3),
    Message('note_on', channel=8, note=57, velocity=0, time=5),
    Message('note_on', channel=1, note=41, velocity=127, time=0),
    Message('note_on', channel=4, note=48, velocity=71, time=0),
    Message('note_on', channel=4, note=41, velocity=71, time=0),
    Message('pitchwheel', channel=6, pitch=2688, time=0),
    Message('note_on', channel=7, note=67, velocity=120, time=0),
    Message('note_on', channel=8, note=60, velocity=63, time=0),
    Message('note_on', channel=9, note=42, velocity=80, time=0),
    Message('pitchwheel', channel=13, pitch=2688, time=0),
    Message('note_on', channel=9, note=42, velocity=0, time=5),
    Message('pitchwheel', channel=6, pitch=2176, time=2),
    Message('pitchwheel', channel=13, pitch=2176, time=0),
    Message('pitchwheel', channel=6, pitch=1792, time=7),
    Message('pitchwheel', channel=13, pitch=1792, time=0),
    Message('note_on', channel=8, note=57, velocity=63, time=5),
    Message('pitchwheel', channel=6, pitch=1408, time=2),
    Message('pitchwheel', channel=13, pitch=1408, time=0),
    Message('note_on', channel=8, note=65, velocity=63, time=3),
    Message('pitchwheel', channel=6, pitch=896, time=4),
    Message('pitchwheel', channel=13, pitch=896, time=0),
    Message('pitchwheel', channel=6, pitch=512, time=7),
    Message('pitchwheel', channel=13, pitch=512, time=0),
    Message('pitchwheel', channel=6, pitch=0, time=7),
    Message('pitchwheel', channel=13, pitch=0, time=0),
    Message('note_on', channel=8, note=60, velocity=0, time=120),
    Message('note_on', channel=8, note=65, velocity=0, time=24),
    Message('note_on', channel=8, note=57, velocity=0, time=2),
    Message('note_on', channel=4, note=41, velocity=0, time=4),
    Message('note_on', channel=4, note=48, velocity=0, time=0),
    Message('note_on', channel=1, note=41, velocity=0, time=24),
    Message('note_on', channel=7, note=67, velocity=0, time=10),
    Message('note_on', channel=6, note=62, velocity=0, time=14),
    Message('note_on', channel=13, note=62, velocity=0, time=0),
    Message('note_on', channel=4, note=50, velocity=86, time=0),
    Message('note_on', channel=4, note=41, velocity=86, time=0),
    Message('note_on', channel=6, note=60, velocity=100, time=0),
    Message('note_on', channel=7, note=67, velocity=120, time=0),
    Message('note_on', channel=8, note=65, velocity=48, time=0),
    Message('note_on', channel=9, note=54, velocity=50, time=0),
    Message('note_on', channel=9, note=44, velocity=80, time=0),
    Message('note_on', channel=9, note=38, velocity=120, time=0),
    Message('note_on', channel=13, note=60, velocity=100, time=0),
    Message('note_on', channel=9, note=38, velocity=0, time=4),
    Message('note_on', channel=9, note=54, velocity=0, time=0),
    Message('note_on', channel=9, note=44, velocity=0, time=1),
    Message('note_on', channel=8, note=57, velocity=48, time=13),
    Message('note_on', channel=8, note=60, velocity=48, time=5),
    Message('note_on', channel=4, note=50, velocity=0, time=169),
    Message('note_on', channel=4, note=41, velocity=0, time=0),
    Message('note_on', channel=7, note=67, velocity=0, time=34),
    Message('note_on', channel=8, note=65, velocity=0, time=4),
    Message('note_on', channel=13, note=60, velocity=0, time=3),
    Message('note_on', channel=6, note=60, velocity=0, time=0),
    Message('note_on', channel=8, note=57, velocity=0, time=6),
    Message('note_on', channel=8, note=60, velocity=0, time=0),
    Message('note_on', channel=1, note=41, velocity=127, time=1),
    Message('note_on', channel=4, note=45, velocity=70, time=0),
    Message('note_on', channel=4, note=41, velocity=70, time=0),
    Message('note_on', channel=6, note=60, velocity=100, time=0),
    Message('note_on', channel=7, note=67, velocity=120, time=0),
    Message('note_on', channel=8, note=60, velocity=70, time=0),
    Message('note_on', channel=9, note=42, velocity=80, time=0),
    Message('note_on', channel=13, note=60, velocity=100, time=0),
    Message('note_on', channel=9, note=42, velocity=0, time=5),
    Message('note_on', channel=8, note=57, velocity=70, time=14),
    Message('note_on', channel=8, note=65, velocity=70, time=14),
    Message('note_on', channel=4, note=41, velocity=0, time=159),
    Message('note_on', channel=4, note=45, velocity=0, time=0),
    Message('note_on', channel=1, note=41, velocity=0, time=24),
    Message('note_on', channel=8, note=60, velocity=0, time=14),
    Message('note_on', channel=8, note=57, velocity=0, time=5),
    Message('note_on', channel=2, note=81, velocity=0, time=5),
    Message('note_on', channel=2, note=77, velocity=0, time=0),
    Message('note_on', channel=1, note=48, velocity=127, time=0),
    Message('note_on', channel=2, note=79, velocity=57, time=0),
    Message('note_on', channel=2, note=76, velocity=57, time=0),
    Message('note_on', channel=4, note=55, velocity=87, time=0),
    Message('note_on', channel=4, note=48, velocity=87, time=0),
    Message('note_on', channel=8, note=55, velocity=80, time=0),
    Message('note_on', channel=9, note=44, velocity=80, time=0),
    Message('note_on', channel=9, note=36, velocity=120, time=0),
    Message('note_on', channel=9, note=36, velocity=0, time=4),
    Message('note_on', channel=8, note=65, velocity=0, time=0),
    Message('note_on', channel=9, note=44, velocity=0, time=1),
    Message('note_on', channel=8, note=60, velocity=80, time=11),
    Message('note_on', channel=8, note=64, velocity=80, time=7),
    Message('control_change', channel=13, control=1, value=82, time=40),
    Message('note_on', channel=4, note=48, velocity=0, time=129),
    Message('note_on', channel=4, note=55, velocity=0, time=0),
    Message('note_on', channel=1, note=48, velocity=0, time=24),
    Message('note_on', channel=1, note=48, velocity=127, time=24),
    Message('note_on', channel=4, note=48, velocity=72, time=0),
    Message('note_on', channel=4, note=55, velocity=72, time=0),
    Message('note_on', channel=9, note=42, velocity=80, time=0),
    Message('note_on', channel=9, note=42, velocity=0, time=5),
    Message('note_on', channel=4, note=55, velocity=0, time=187),
    Message('note_on', channel=4, note=48, velocity=0, time=0),
    Message('note_on', channel=8, note=64, velocity=0, time=18),
    Message('note_on', channel=1, note=48, velocity=0, time=6),
    Message('control_change', channel=13, control=1, value=0, time=2),
    Message('note_on', channel=8, note=55, velocity=0, time=3),
    Message('note_on', channel=7, note=67, velocity=0, time=4),
    Message('note_on', channel=6, note=60, velocity=0, time=7),
    Message('note_on', channel=13, note=60, velocity=0, time=0),
    Message('note_on', channel=8, note=60, velocity=0, time=5),
    Message('note_on', channel=4, note=57, velocity=82, time=3),
    Message('note_on', channel=4, note=48, velocity=82, time=0),
    Message('note_on', channel=6, note=62, velocity=100, time=0),
    Message('note_on', channel=7, note=67, velocity=120, time=0),
    Message('note_on', channel=9, note=54, velocity=50, time=0),
    Message('note_on', channel=9, note=44, velocity=80, time=0),
    Message('note_on', channel=9, note=38, velocity=120, time=0),
    Message('note_on', channel=13, note=62, velocity=100, time=0),
    Message('note_on', channel=9, note=38, velocity=0, time=4),
    Message('note_on', channel=9, note=54, velocity=0, time=0),
    Message('note_on', channel=9, note=44, velocity=0, time=1),
    Message('note_on', channel=8, note=55, velocity=59, time=4),
    Message('note_on', channel=8, note=60, velocity=59, time=6),
    Message('note_on', channel=8, note=64, velocity=59, time=4),
    Message('pitchwheel', channel=6, pitch=128, time=2),
    Message('pitchwheel', channel=13, pitch=128, time=0),
    Message('pitchwheel', channel=6, pitch=384, time=7),
    Message('pitchwheel', channel=13, pitch=384, time=0),
    Message('pitchwheel', channel=6, pitch=768, time=7),
    Message('pitchwheel', channel=13, pitch=768, time=0),
    Message('pitchwheel', channel=6, pitch=1024, time=7),
    Message('pitchwheel', channel=13, pitch=1024, time=0),
    Message('pitchwheel', channel=6, pitch=1408, time=7),
    Message('pitchwheel', channel=13, pitch=1408, time=0),
    Message('pitchwheel', channel=6, pitch=1664, time=7),
    Message('pitchwheel', channel=13, pitch=1664, time=0),
    Message('pitchwheel', channel=6, pitch=2048, time=7),
    Message('pitchwheel', channel=13, pitch=2048, time=0),
    Message('pitchwheel', channel=6, pitch=2304, time=7),
    Message('pitchwheel', channel=13, pitch=2304, time=0),
    Message('pitchwheel', channel=6, pitch=2688, time=7),
    Message('pitchwheel', channel=13, pitch=2688, time=0),
    Message('pitchwheel', channel=6, pitch=2944, time=7),
    Message('pitchwheel', channel=13, pitch=2944, time=0),
    Message('pitchwheel', channel=6, pitch=3328, time=7),
    Message('pitchwheel', channel=13, pitch=3328, time=0),
    Message('pitchwheel', channel=6, pitch=3584, time=7),
    Message('pitchwheel', channel=13, pitch=3584, time=0),
    Message('pitchwheel', channel=6, pitch=3968, time=7),
    Message('pitchwheel', channel=13, pitch=3968, time=0),
    Message('pitchwheel', channel=6, pitch=4224, time=7),
    Message('pitchwheel', channel=13, pitch=4224, time=0),
    Message('pitchwheel', channel=6, pitch=4608, time=8),
    Message('pitchwheel', channel=13, pitch=4608, time=0),
    Message('pitchwheel', channel=6, pitch=4864, time=7),
    Message('pitchwheel', channel=13, pitch=4864, time=0),
    Message('pitchwheel', channel=6, pitch=5248, time=7),
    Message('pitchwheel', channel=13, pitch=5248, time=0),
    Message('pitchwheel', channel=6, pitch=5504, time=7),
    Message('pitchwheel', channel=13, pitch=5504, time=0),
    Message('pitchwheel', channel=6, pitch=5888, time=7),
    Message('pitchwheel', channel=13, pitch=5888, time=0),
    Message('pitchwheel', channel=6, pitch=6144, time=7),
    Message('pitchwheel', channel=13, pitch=6144, time=0),
    Message('pitchwheel', channel=6, pitch=6528, time=7),
    Message('pitchwheel', channel=13, pitch=6528, time=0),
    Message('pitchwheel', channel=6, pitch=6784, time=7),
    Message('pitchwheel', channel=13, pitch=6784, time=0),
    Message('pitchwheel', channel=6, pitch=7168, time=7),
    Message('pitchwheel', channel=13, pitch=7168, time=0),
    Message('pitchwheel', channel=6, pitch=7424, time=7),
    Message('pitchwheel', channel=13, pitch=7424, time=0),
    Message('pitchwheel', channel=6, pitch=7808, time=7),
    Message('pitchwheel', channel=13, pitch=7808, time=0),
    Message('note_on', channel=4, note=48, velocity=0, time=2),
    Message('note_on', channel=4, note=57, velocity=0, time=0),
    Message('pitchwheel', channel=6, pitch=8191, time=5),
    Message('pitchwheel', channel=13, pitch=8191, time=0),
    Message('note_on', channel=8, note=55, velocity=0, time=9),
    Message('note_on', channel=8, note=60, velocity=0, time=13),
    Message('note_on', channel=8, note=64, velocity=0, time=4),
    Message('note_on', channel=1, note=48, velocity=127, time=17),
    Message('note_on', channel=4, note=48, velocity=70, time=0),
    Message('note_on', channel=4, note=52, velocity=70, time=0),
    Message('note_on', channel=8, note=55, velocity=50, time=0),
    Message('note_on', channel=8, note=64, velocity=50, time=0),
    Message('note_on', channel=8, note=60, velocity=50, time=0),
    Message('note_on', channel=9, note=36, velocity=120, time=0),
    Message('note_on', channel=9, note=42, velocity=80, time=0),
    Message('note_on', channel=9, note=42, velocity=0, time=5),
    Message('note_on', channel=9, note=36, velocity=0, time=11),
    Message('note_on', channel=8, note=64, velocity=0, time=68),
    Message('note_on', channel=8, note=60, velocity=0, time=0),
    Message('note_on', channel=8, note=55, velocity=0, time=7),
    Message('note_on', channel=4, note=48, velocity=0, time=101),
    Message('note_on', channel=4, note=52, velocity=0, time=0),
    Message('note_on', channel=1, note=48, velocity=0, time=24),
    Message('note_on', channel=6, note=62, velocity=0, time=17),
    Message('note_on', channel=13, note=62, velocity=0, time=0),
    Message('note_on', channel=7, note=67, velocity=0, time=0),
    Message('note_on', channel=2, note=76, velocity=0, time=7),
    Message('note_on', channel=2, note=79, velocity=0, time=0),
    Message('note_on', channel=2, note=72, velocity=0, time=0),
    Message('note_on', channel=1, note=43, velocity=127, time=0),
    Message('note_on', channel=2, note=71, velocity=70, time=0),
    Message('note_on', channel=2, note=74, velocity=70, time=0),
    Message('note_on', channel=2, note=79, velocity=70, time=0),
    Message('note_on', channel=4, note=43, velocity=82, time=0),
    Message('note_on', channel=4, note=50, velocity=82, time=0),
    Message('note_on', channel=6, note=60, velocity=100, time=0),
    Message('note_on', channel=7, note=67, velocity=120, time=0),
    Message('note_on', channel=8, note=62, velocity=78, time=0),
    Message('note_on', channel=9, note=44, velocity=80, time=0),
    Message('note_on', channel=9, note=36, velocity=120, time=0),
    Message('note_on', channel=13, note=60, velocity=100, time=0),
    Message('note_on', channel=9, note=36, velocity=0, time=4),
    Message('note_on', channel=9, note=44, velocity=0, time=1),
    Message('note_on', channel=8, note=55, velocity=78, time=5),
    Message('note_on', channel=8, note=59, velocity=78, time=18),
    Message('pitchwheel', channel=6, pitch=8191, time=113),
    Message('pitchwheel', channel=13, pitch=8191, time=0),
    Message('pitchwheel', channel=6, pitch=7936, time=7),
    Message('pitchwheel', channel=13, pitch=7936, time=0),
    Message('pitchwheel', channel=6, pitch=7552, time=7),
    Message('pitchwheel', channel=13, pitch=7552, time=0),
    Message('pitchwheel', channel=6, pitch=7168, time=7),
    Message('pitchwheel', channel=13, pitch=7168, time=0),
    Message('pitchwheel', channel=6, pitch=6784, time=7),
    Message('pitchwheel', channel=13, pitch=6784, time=0),
    Message('pitchwheel', channel=6, pitch=6400, time=7),
    Message('pitchwheel', channel=13, pitch=6400, time=0),
    Message('pitchwheel', channel=6, pitch=6016, time=7),
    Message('pitchwheel', channel=13, pitch=6016, time=0),
    Message('pitchwheel', channel=6, pitch=5632, time=7),
    Message('pitchwheel', channel=13, pitch=5632, time=0),
    Message('note_on', channel=4, note=50, velocity=0, time=2),
    Message('note_on', channel=4, note=43, velocity=0, time=0),
    Message('pitchwheel', channel=6, pitch=5248, time=5),
    Message('pitchwheel', channel=13, pitch=5248, time=0),
    Message('pitchwheel', channel=6, pitch=4864, time=7),
    Message('pitchwheel', channel=13, pitch=4864, time=0),
    Message('pitchwheel', channel=6, pitch=4480, time=7),
    Message('pitchwheel', channel=13, pitch=4480, time=0),
    Message('note_on', channel=1, note=43, velocity=0, time=5),
    Message('pitchwheel', channel=6, pitch=4096, time=2),
    Message('pitchwheel', channel=13, pitch=4096, time=0),
    Message('pitchwheel', channel=6, pitch=3840, time=7),
    Message('pitchwheel', channel=13, pitch=3840, time=0),
    Message('note_on', channel=8, note=62, velocity=0, time=5),
    Message('pitchwheel', channel=6, pitch=3456, time=2),
    Message('pitchwheel', channel=13, pitch=3456, time=0),
    Message('note_on', channel=7, note=67, velocity=0, time=1),
    Message('note_on', channel=8, note=59, velocity=0, time=2),
    Message('note_on', channel=8, note=55, velocity=0, time=5),
    Message('note_on', channel=1, note=43, velocity=127, time=0),
    Message('note_on', channel=4, note=43, velocity=70, time=0),
    Message('note_on', channel=4, note=50, velocity=70, time=0),
    Message('pitchwheel', channel=6, pitch=3072, time=0),
    Message('note_on', channel=7, note=67, velocity=120, time=0),
    Message('note_on', channel=8, note=59, velocity=63, time=0),
    Message('note_on', channel=9, note=42, velocity=80, time=0),
    Message('pitchwheel', channel=13, pitch=3072, time=0),
    Message('note_on', channel=9, note=42, velocity=0, time=5),
    Message('pitchwheel', channel=6, pitch=2688, time=2),
    Message('pitchwheel', channel=13, pitch=2688, time=0),
    Message('pitchwheel', channel=6, pitch=2304, time=7),
    Message('pitchwheel', channel=13, pitch=2304, time=0),
    Message('note_on', channel=8, note=55, velocity=63, time=5),
    Message('pitchwheel', channel=6, pitch=1920, time=2),
    Message('pitchwheel', channel=13, pitch=1920, time=0),
    Message('note_on', channel=8, note=62, velocity=63, time=3),
    Message('pitchwheel', channel=6, pitch=1536, time=4),
    Message('pitchwheel', channel=13, pitch=1536, time=0),
    Message('pitchwheel', channel=6, pitch=1152, time=7),
    Message('pitchwheel', channel=13, pitch=1152, time=0),
    Message('pitchwheel', channel=6, pitch=768, time=7),
    Message('pitchwheel', channel=13, pitch=768, time=0),
    Message('pitchwheel', channel=6, pitch=384, time=7),
    Message('pitchwheel', channel=13, pitch=384, time=0),
    Message('pitchwheel', channel=6, pitch=0, time=7),
    Message('pitchwheel', channel=13, pitch=0, time=0),
    Message('note_on', channel=9, note=38, velocity=90, time=64),
    Message('note_on', channel=9, note=38, velocity=0, time=4),
    Message('note_on', channel=8, note=59, velocity=0, time=38),
    Message('note_on', channel=8, note=62, velocity=0, time=24),
    Message('note_on', channel=8, note=55, velocity=0, time=2),
    Message('note_on', channel=4, note=50, velocity=0, time=4),
    Message('note_on', channel=4, note=43, velocity=0, time=0),
    Message('note_on', channel=1, note=43, velocity=0, time=24),
    Message('note_on', channel=6, note=60, velocity=0, time=17),
    Message('note_on', channel=7, note=67, velocity=0, time=0),
    Message('note_on', channel=13, note=60, velocity=0, time=0),
    Message('note_on', channel=1, note=43, velocity=127, time=7),
    Message('note_on', channel=3, note=57, velocity=100, time=0),
    Message('note_on', channel=4, note=52, velocity=80, time=0),
    Message('note_on', channel=4, note=43, velocity=80, time=0),
    Message('note_on', channel=6, note=57, velocity=100, time=0),
    Message('note_on', channel=7, note=67, velocity=120, time=0),
    Message('note_on', channel=8, note=62, velocity=48, time=0),
    Message('note_on', channel=9, note=44, velocity=80, time=0),
    Message('note_on', channel=9, note=54, velocity=50, time=0),
    Message('note_on', channel=9, note=38, velocity=100, time=0),
    Message('note_on', channel=13, note=57, velocity=100, time=0),
    MetaMessage('lyrics', text='Like ', time=0),
    Message('note_on', channel=9, note=38, velocity=0, time=4),
    Message('note_on', channel=9, note=54, velocity=0, time=0),
    Message('note_on', channel=9, note=44, velocity=0, time=1),
    Message('note_on', channel=8, note=55, velocity=48, time=13),
    Message('note_on', channel=8, note=59, velocity=48, time=5),
    Message('note_on', channel=4, note=43, velocity=0, time=169),
    Message('note_on', channel=4, note=52, velocity=0, time=0),
    Message('note_on', channel=1, note=43, velocity=0, time=24),
    Message('note_on', channel=8, note=62, velocity=0, time=14),
    Message('note_on', channel=7, note=67, velocity=0, time=3),
    Message('note_on', channel=8, note=59, velocity=0, time=6),
    Message('note_on', channel=8, note=55, velocity=0, time=0),
    Message('note_on', channel=3, note=57, velocity=0, time=1),
    Message('note_on', channel=1, note=43, velocity=127, time=0),
    Message('note_on', channel=3, note=60, velocity=100, time=0),
    Message('note_on', channel=4, note=47, velocity=70, time=0),
    Message('note_on', channel=4, note=43, velocity=70, time=0),
    Message('note_on', channel=6, note=60, velocity=100, time=0),
    Message('note_on', channel=7, note=67, velocity=120, time=0),
    Message('note_on', channel=8, note=59, velocity=70, time=0),
    Message('note_on', channel=9, note=42, velocity=80, time=0),
    Message('note_on', channel=9, note=38, velocity=120, time=0),
    Message('note_on', channel=13, note=60, velocity=100, time=0),
    MetaMessage('lyrics', text='a, ', time=0),
    Message('note_on', channel=9, note=38, velocity=0, time=4),
    Message('note_on', channel=9, note=42, velocity=0, time=1),
    Message('note_on', channel=8, note=55, velocity=70, time=14),
    Message('note_on', channel=13, note=57, velocity=0, time=2),
    Message('note_on', channel=6, note=57, velocity=0, time=0),
    Message('note_on', channel=8, note=62, velocity=70, time=12),
    Message('note_on', channel=4, note=43, velocity=0, time=159),
    Message('note_on', channel=4, note=47, velocity=0, time=0),
    Message('note_on', channel=1, note=43, velocity=0, time=24),
    Message('note_on', channel=8, note=59, velocity=0, time=14),
    Message('note_on', channel=8, note=55, velocity=0, time=5),
    Message('note_on', channel=2, note=71, velocity=0, time=5),
    Message('note_on', channel=2, note=79, velocity=0, time=0),
    Message('note_on', channel=2, note=74, velocity=0, time=0),
    Message('note_on', channel=3, note=60, velocity=0, time=0),
    Message('note_on', channel=1, note=48, velocity=127, time=0),
    Message('note_on', channel=2, note=72, velocity=63, time=0),
    Message('note_on', channel=2, note=79, velocity=55, time=0),
    Message('note_on', channel=2, note=76, velocity=55, time=0),
    Message('note_on', channel=3, note=64, velocity=100, time=0),
    Message('note_on', channel=4, note=55, velocity=86, time=0),
    Message('note_on', channel=4, note=48, velocity=86, time=0),
    Message('note_on', channel=8, note=55, velocity=80, time=0),
    Message('note_on', channel=9, note=36, velocity=120, time=0),
    Message('note_on', channel=9, note=49, velocity=80, time=0),
    MetaMessage('lyrics', text='blue ', time=0),
    Message('note_on', channel=9, note=36, velocity=0, time=4),
    Message('note_on', channel=8, note=62, velocity=0, time=0),
    Message('note_on', channel=9, note=49, velocity=0, time=1),
    Message('note_on', channel=8, note=60, velocity=80, time=11),
    Message('note_on', channel=8, note=64, velocity=80, time=7),
    Message('note_on', channel=4, note=48, velocity=0, time=169),
    Message('note_on', channel=4, note=55, velocity=0, time=0),
    Message('note_on', channel=1, note=48, velocity=0, time=24),
    Message('note_on', channel=1, note=48, velocity=127, time=24),
    Message('note_on', channel=4, note=48, velocity=69, time=0),
    Message('note_on', channel=4, note=55, velocity=69, time=0),
    Message('note_on', channel=9, note=42, velocity=80, time=0),
    Message('note_on', channel=9, note=42, velocity=0, time=5),
    Message('control_change', channel=13, control=1, value=54, time=115),
    Message('note_on', channel=4, note=55, velocity=0, time=72),
    Message('note_on', channel=4, note=48, velocity=0, time=0),
    Message('note_on', channel=8, note=64, velocity=0, time=18),
    Message('note_on', channel=1, note=48, velocity=0, time=6),
    Message('note_on', channel=8, note=55, velocity=0, time=5),
    Message('note_on', channel=3, note=64, velocity=0, time=7),
    Message('note_on', channel=8, note=60, velocity=0, time=9),
    Message('note_on', channel=3, note=64, velocity=100, time=3),
    Message('note_on', channel=4, note=48, velocity=83, time=0),
    Message('note_on', channel=4, note=57, velocity=83, time=0),
    Message('note_on', channel=9, note=54, velocity=50, time=0),
    Message('note_on', channel=9, note=44, velocity=80, time=0),
    Message('note_on', channel=9, note=38, velocity=120, time=0),
    MetaMessage('lyrics', text='bird, ', time=0),
    MetaMessage('lyrics', text='\r', time=0),
    Message('note_on', channel=9, note=38, velocity=0, time=4),
    Message('note_on', channel=9, note=54, velocity=0, time=0),
    Message('note_on', channel=9, note=44, velocity=0, time=1),
    Message('note_on', channel=8, note=55, velocity=59, time=4),
    Message('note_on', channel=8, note=60, velocity=59, time=6),
    Message('note_on', channel=8, note=64, velocity=59, time=4),
    Message('note_on', channel=4, note=48, velocity=0, time=173),
    Message('note_on', channel=4, note=57, velocity=0, time=0),
    Message('note_on', channel=8, note=55, velocity=0, time=14),
    Message('note_on', channel=8, note=60, velocity=0, time=13),
    Message('note_on', channel=8, note=64, velocity=0, time=4),
    Message('note_on', channel=1, note=48, velocity=127, time=17),
    Message('note_on', channel=4, note=52, velocity=72, time=0),
    Message('note_on', channel=4, note=48, velocity=72, time=0),
    Message('note_on', channel=8, note=60, velocity=50, time=0),
    Message('note_on', channel=8, note=64, velocity=50, time=0),
    Message('note_on', channel=8, note=55, velocity=50, time=0),
    Message('note_on', channel=9, note=42, velocity=80, time=0),
    Message('note_on', channel=9, note=36, velocity=120, time=0),
    Message('note_on', channel=9, note=36, velocity=0, time=4),
    Message('note_on', channel=9, note=42, velocity=0, time=1),
    Message('control_change', channel=13, control=1, value=79, time=65),
    Message('note_on', channel=8, note=60, velocity=0, time=14),
    Message('note_on', channel=8, note=64, velocity=0, time=0),
    Message('note_on', channel=8, note=55, velocity=0, time=7),
    Message('note_on', channel=4, note=48, velocity=0, time=101),
    Message('note_on', channel=4, note=52, velocity=0, time=0),
    Message('note_on', channel=1, note=48, velocity=0, time=24),
    Message('note_on', channel=1, note=48, velocity=127, time=24),
    Message('note_on', channel=4, note=48, velocity=80, time=0),
    Message('note_on', channel=4, note=55, velocity=80, time=0),
    Message('note_on', channel=8, note=64, velocity=78, time=0),
    Message('note_on', channel=9, note=36, velocity=120, time=0),
    Message('note_on', channel=9, note=44, velocity=80, time=0),
    Message('note_on', channel=9, note=36, velocity=0, time=4),
    Message('note_on', channel=9, note=44, velocity=0, time=1),
    Message('note_on', channel=8, note=55, velocity=78, time=5),
    Message('note_on', channel=8, note=60, velocity=78, time=18),
    Message('note_on', channel=4, note=48, velocity=0, time=164),
    Message('note_on', channel=4, note=55, velocity=0, time=0),
    Message('note_on', channel=1, note=48, velocity=0, time=24),
    Message('note_on', channel=8, note=64, velocity=0, time=14),
    Message('note_on', channel=8, note=60, velocity=0, time=5),
    Message('note_on', channel=8, note=55, velocity=0, time=5),
    Message('note_on', channel=1, note=48, velocity=127, time=0),
    Message('note_on', channel=4, note=55, velocity=71, time=0),
    Message('note_on', channel=4, note=48, velocity=71, time=0),
    Message('note_on', channel=8, note=60, velocity=63, time=0),
    Message('note_on', channel=9, note=42, velocity=80, time=0),
    Message('note_on', channel=9, note=42, velocity=0, time=5),
    Message('note_on', channel=8, note=55, velocity=63, time=14),
    Message('note_on', channel=8, note=64, velocity=63, time=5),
    Message('note_on', channel=3, note=64, velocity=0, time=111),
    Message('note_on', channel=8, note=60, velocity=0, time=27),
    Message('note_on', channel=8, note=64, velocity=0, time=24),
    Message('note_on', channel=8, note=55, velocity=0, time=2),
    Message('note_on', channel=4, note=48, velocity=0, time=4),
    Message('note_on', channel=4, note=55, velocity=0, time=0),
    Message('control_change', channel=13, control=1, value=95, time=12),
    Message('note_on', channel=1, note=48, velocity=0, time=12),
    Message('note_on', channel=3, note=64, velocity=100, time=24),
    Message('note_on', channel=4, note=48, velocity=86, time=0),
    Message('note_on', channel=4, note=57, velocity=86, time=0),
    Message('note_on', channel=8, note=64, velocity=48, time=0),
    Message('note_on', channel=9, note=44, velocity=80, time=0),
    Message('note_on', channel=9, note=54, velocity=50, time=0),
    Message('note_on', channel=9, note=38, velocity=120, time=0),
    MetaMessage('lyrics', text='with ', time=0),
    Message('note_on', channel=9, note=38, velocity=0, time=4),
    Message('note_on', channel=9, note=54, velocity=0, time=0),
    Message('note_on', channel=9, note=44, velocity=0, time=1),
    Message('note_on', channel=8, note=55, velocity=48, time=13),
    Message('note_on', channel=8, note=60, velocity=48, time=5),
    Message('note_on', channel=4, note=57, velocity=0, time=169),
    Message('note_on', channel=4, note=48, velocity=0, time=0),
    Message('note_on', channel=8, note=64, velocity=0, time=38),
    Message('note_on', channel=8, note=55, velocity=0, time=9),
    Message('note_on', channel=8, note=60, velocity=0, time=0),
    Message('note_on', channel=1, note=48, velocity=127, time=1),
    Message('note_on', channel=4, note=48, velocity=70, time=0),
    Message('note_on', channel=4, note=55, velocity=70, time=0),
    Message('note_on', channel=8, note=60, velocity=70, time=0),
    Message('note_on', channel=9, note=42, velocity=80, time=0),
    Message('note_on', channel=9, note=42, velocity=0, time=5),
    Message('note_on', channel=8, note=55, velocity=70, time=14),
    Message('note_on', channel=8, note=64, velocity=70, time=14),
    Message('control_change', channel=13, control=1, value=0, time=178),
    Message('note_on', channel=1, note=48, velocity=0, time=5),
    Message('note_on', channel=7, note=67, velocity=0, time=9),
    Message('note_on', channel=6, note=60, velocity=0, time=0),
    Message('note_on', channel=13, note=60, velocity=0, time=0),
    Message('note_on', channel=8, note=60, velocity=0, time=5),
    Message('note_on', channel=8, note=55, velocity=0, time=5),
    Message('note_on', channel=3, note=64, velocity=0, time=5),
    Message('note_on', channel=3, note=64, velocity=100, time=0),
    Message('note_on', channel=8, note=55, velocity=80, time=0),
    Message('note_on', channel=9, note=36, velocity=120, time=0),
    Message('note_on', channel=9, note=44, velocity=80, time=0),
    MetaMessage('lyrics', text='his, ', time=0),
    Message('note_on', channel=9, note=36, velocity=0, time=4),
    Message('note_on', channel=8, note=64, velocity=0, time=0),
    Message('note_on', channel=9, note=44, velocity=0, time=1),
    Message('note_on', channel=8, note=60, velocity=80, time=11),
    Message('note_on', channel=8, note=64, velocity=80, time=7),
    Message('note_on', channel=4, note=55, velocity=0, time=195),
    Message('note_on', channel=4, note=48, velocity=0, time=7),
    Message('note_on', channel=3, note=64, velocity=0, time=15),
    Message('note_on', channel=1, note=48, velocity=127, time=0),
    Message('note_on', channel=3, note=62, velocity=100, time=0),
    Message('note_on', channel=4, note=55, velocity=72, time=0),
    Message('note_on', channel=4, note=48, velocity=72, time=0),
    Message('note_on', channel=9, note=42, velocity=80, time=0),
    MetaMessage('lyrics', text='heart ', time=0),
    Message('note_on', channel=9, note=42, velocity=0, time=5),
    Message('note_on', channel=4, note=48, velocity=0, time=187),
    Message('note_on', channel=4, note=55, velocity=0, time=0),
    Message('note_on', channel=8, note=64, velocity=0, time=18),
    Message('note_on', channel=1, note=48, velocity=0, time=6),
    Message('note_on', channel=8, note=55, velocity=0, time=5),
    Message('note_on', channel=8, note=60, velocity=0, time=16),
    Message('note_on', channel=3, note=62, velocity=0, time=3),
    Message('note_on', channel=3, note=60, velocity=100, time=0),
    Message('note_on', channel=4, note=48, velocity=82, time=0),
    Message('note_on', channel=4, note=57, velocity=82, time=0),
    Message('note_on', channel=9, note=44, velocity=80, time=0),
    Message('note_on', channel=9, note=54, velocity=50, time=0),
    Message('note_on', channel=9, note=38, velocity=120, time=0),
    MetaMessage('lyrics', text='re', time=0),
    Message('note_on', channel=9, note=38, velocity=0, time=4),
    Message('note_on', channel=9, note=54, velocity=0, time=0),
    Message('note_on', channel=9, note=44, velocity=0, time=1),
    Message('note_on', channel=8, note=55, velocity=59, time=4),
    Message('note_on', channel=8, note=60, velocity=59, time=6),
    Message('note_on', channel=8, note=64, velocity=59, time=4),
    Message('note_on', channel=4, note=48, velocity=0, time=173),
    Message('note_on', channel=4, note=57, velocity=0, time=0),
    Message('note_on', channel=8, note=55, velocity=0, time=14),
    Message('note_on', channel=8, note=60, velocity=0, time=13),
    Message('note_on', channel=8, note=64, velocity=0, time=4),
    Message('note_on', channel=3, note=60, velocity=0, time=17),
    Message('note_on', channel=1, note=48, velocity=127, time=0),
    Message('note_on', channel=3, note=60, velocity=100, time=0),
    Message('note_on', channel=4, note=52, velocity=70, time=0),
    Message('note_on', channel=4, note=48, velocity=70, time=0),
    Message('note_on', channel=8, note=64, velocity=50, time=0),
    Message('note_on', channel=8, note=60, velocity=50, time=0),
    Message('note_on', channel=8, note=55, velocity=50, time=0),
    Message('note_on', channel=9, note=42, velocity=80, time=0),
    MetaMessage('lyrics', text='moved, ', time=0),
    MetaMessage('lyrics', text='\r', time=0),
    Message('note_on', channel=9, note=42, velocity=0, time=5),
    Message('note_on', channel=8, note=60, velocity=0, time=79),
    Message('note_on', channel=8, note=64, velocity=0, time=0),
    Message('note_on', channel=8, note=55, velocity=0, time=7),
    Message('note_on', channel=4, note=48, velocity=0, time=101),
    Message('note_on', channel=4, note=52, velocity=0, time=0),
    Message('note_on', channel=1, note=48, velocity=0, time=24),
    Message('note_on', channel=1, note=48, velocity=127, time=24),
    Message('note_on', channel=4, note=48, velocity=82, time=0),
    Message('note_on', channel=4, note=55, velocity=82, time=0),
    Message('note_on', channel=8, note=64, velocity=78, time=0),
    Message('note_on', channel=9, note=44, velocity=80, time=0),
    Message('note_on', channel=9, note=36, velocity=120, time=0),
    Message('note_on', channel=9, note=36, velocity=0, time=4),
    Message('note_on', channel=9, note=44, velocity=0, time=1),
    Message('note_on', channel=8, note=55, velocity=78, time=5),
    Message('note_on', channel=8, note=60, velocity=78, time=18),
    Message('note_on', channel=4, note=55, velocity=0, time=164),
    Message('note_on', channel=4, note=48, velocity=0, time=0),
    Message('note_on', channel=1, note=48, velocity=0, time=24),
    Message('note_on', channel=8, note=64, velocity=0, time=14),
    Message('note_on', channel=8, note=60, velocity=0, time=5),
    Message('note_on', channel=8, note=55, velocity=0, time=5),
    Message('note_on', channel=1, note=48, velocity=127, time=0),
    Message('note_on', channel=4, note=55, velocity=70, time=0),
    Message('note_on', channel=4, note=48, velocity=70, time=0),
    Message('note_on', channel=8, note=60, velocity=63, time=0),
    Message('note_on', channel=9, note=42, velocity=80, time=0),
    Message('note_on', channel=9, note=42, velocity=0, time=5),
    Message('note_on', channel=8, note=55, velocity=63, time=14),
    Message('note_on', channel=8, note=64, velocity=63, time=5),
    Message('note_on', channel=3, note=60, velocity=0, time=96),
    Message('note_on', channel=8, note=60, velocity=0, time=42),
    Message('note_on', channel=8, note=64, velocity=0, time=24),
    Message('note_on', channel=8, note=55, velocity=0, time=2),
    Message('note_on', channel=4, note=55, velocity=0, time=4),
    Message('note_on', channel=4, note=48, velocity=0, time=0),
    Message('note_on', channel=1, note=48, velocity=0, time=24),
    Message('note_on', channel=1, note=45, velocity=127, time=24),
    Message('note_on', channel=4, note=48, velocity=80, time=0),
    Message('note_on', channel=4, note=57, velocity=80, time=0),
    Message('note_on', channel=8, note=64, velocity=48, time=0),
    Message('note_on', channel=9, note=46, velocity=80, time=0),
    Message('note_on', channel=9, note=54, velocity=50, time=0),
    Message('note_on', channel=9, note=38, velocity=120, time=0),
    Message('note_on', channel=9, note=38, velocity=0, time=4),
    Message('note_on', channel=9, note=54, velocity=0, time=0),
    Message('note_on', channel=9, note=46, velocity=0, time=1),
    Message('note_on', channel=8, note=55, velocity=48, time=13),
    Message('note_on', channel=8, note=60, velocity=48, time=5),
    Message('note_on', channel=4, note=57, velocity=0, time=169),
    Message('note_on', channel=4, note=48, velocity=0, time=0),
    Message('note_on', channel=1, note=45, velocity=0, time=24),
    Message('note_on', channel=8, note=64, velocity=0, time=14),
    Message('note_on', channel=8, note=60, velocity=0, time=9),
    Message('note_on', channel=8, note=55, velocity=0, time=0),
    Message('note_on', channel=1, note=40, velocity=127, time=1),
    Message('note_on', channel=4, note=48, velocity=70, time=0),
    Message('note_on', channel=4, note=52, velocity=70, time=0),
    Message('note_on', channel=8, note=60, velocity=70, time=0),
    Message('note_on', channel=9, note=42, velocity=80, time=0),
    Message('note_on', channel=9, note=42, velocity=0, time=5),
    Message('note_on', channel=8, note=55, velocity=70, time=14),
    Message('note_on', channel=8, note=64, velocity=70, time=14),
    Message('note_on', channel=4, note=52, velocity=0, time=159),
    Message('note_on', channel=4, note=48, velocity=0, time=0),
    Message('note_on', channel=1, note=40, velocity=0, time=24),
    Message('note_on', channel=8, note=60, velocity=0, time=14),
    Message('note_on', channel=8, note=55, velocity=0, time=5),
    Message('note_on', channel=2, note=76, velocity=0, time=5),
    Message('note_on', channel=2, note=79, velocity=0, time=0),
    Message('note_on', channel=1, note=41, velocity=127, time=0),
    Message('note_on', channel=2, note=81, velocity=71, time=0),
    Message('note_on', channel=2, note=77, velocity=77, time=0),
    Message('note_on', channel=3, note=57, velocity=100, time=0),
    Message('note_on', channel=4, note=41, velocity=86, time=0),
    Message('note_on', channel=4, note=48, velocity=86, time=0),
    Message('note_on', channel=8, note=57, velocity=80, time=0),
    Message('note_on', channel=9, note=44, velocity=80, time=0),
    Message('note_on', channel=9, note=36, velocity=120, time=0),
    MetaMessage('lyrics', text='lon', time=0),
    Message('note_on', channel=9, note=36, velocity=0, time=4),
    Message('note_on', channel=8, note=64, velocity=0, time=0),
    Message('note_on', channel=9, note=44, velocity=0, time=1),
    Message('note_on', channel=8, note=60, velocity=80, time=11),
    Message('note_on', channel=8, note=65, velocity=80, time=7),
    Message('note_on', channel=4, note=48, velocity=0, time=169),
    Message('note_on', channel=4, note=41, velocity=0, time=0),
    Message('note_on', channel=1, note=41, velocity=0, time=24),
    Message('note_on', channel=1, note=41, velocity=127, time=24),
    Message('note_on', channel=4, note=48, velocity=69, time=0),
    Message('note_on', channel=4, note=41, velocity=69, time=0),
    Message('note_on', channel=9, note=42, velocity=80, time=0),
    Message('note_on', channel=9, note=42, velocity=0, time=5),
    Message('note_on', channel=4, note=41, velocity=0, time=187),
    Message('note_on', channel=4, note=48, velocity=0, time=0),
    Message('note_on', channel=8, note=65, velocity=0, time=18),
    Message('note_on', channel=1, note=41, velocity=0, time=6),
    Message('note_on', channel=8, note=57, velocity=0, time=5),
    Message('note_on', channel=3, note=57, velocity=0, time=13),
    Message('note_on', channel=8, note=60, velocity=0, time=3),
    Message('note_on', channel=3, note=60, velocity=100, time=3),
    Message('note_on', channel=4, note=41, velocity=83, time=0),
    Message('note_on', channel=4, note=50, velocity=83, time=0),
    Message('note_on', channel=9, note=44, velocity=80, time=0),
    Message('note_on', channel=9, note=54, velocity=50, time=0),
    Message('note_on', channel=9, note=38, velocity=120, time=0),
    MetaMessage('lyrics', text='ely ', time=0),
    Message('note_on', channel=9, note=38, velocity=0, time=4),
    Message('note_on', channel=9, note=54, velocity=0, time=0),
    Message('note_on', channel=9, note=44, velocity=0, time=1),
    Message('note_on', channel=8, note=57, velocity=59, time=4),
    Message('note_on', channel=8, note=60, velocity=59, time=6),
    Message('note_on', channel=8, note=65, velocity=59, time=4),
    Message('note_on', channel=4, note=41, velocity=0, time=173),
    Message('note_on', channel=4, note=50, velocity=0, time=0),
    Message('note_on', channel=8, note=57, velocity=0, time=14),
    Message('note_on', channel=8, note=60, velocity=0, time=13),
    Message('note_on', channel=8, note=65, velocity=0, time=4),
    Message('note_on', channel=1, note=41, velocity=127, time=17),
    Message('note_on', channel=4, note=41, velocity=72, time=0),
    Message('note_on', channel=4, note=45, velocity=72, time=0),
    Message('note_on', channel=8, note=57, velocity=50, time=0),
    Message('note_on', channel=8, note=60, velocity=50, time=0),
    Message('note_on', channel=8, note=65, velocity=50, time=0),
    Message('note_on', channel=9, note=36, velocity=120, time=0),
    Message('note_on', channel=9, note=42, velocity=80, time=0),
    Message('note_on', channel=9, note=42, velocity=0, time=5),
    Message('note_on', channel=9, note=36, velocity=0, time=11),
    Message('note_on', channel=8, note=65, velocity=0, time=68),
    Message('note_on', channel=8, note=60, velocity=0, time=0),
    Message('note_on', channel=8, note=57, velocity=0, time=7),
    Message('note_on', channel=4, note=45, velocity=0, time=101),
    Message('note_on', channel=4, note=41, velocity=0, time=0),
    Message('note_on', channel=1, note=41, velocity=0, time=24),
    Message('note_on', channel=3, note=60, velocity=0, time=12),
    Message('note_on', channel=1, note=41, velocity=127, time=12),
    Message('note_on', channel=3, note=60, velocity=100, time=0),
    Message('note_on', channel=4, note=41, velocity=80, time=0),
    Message('note_on', channel=4, note=48, velocity=80, time=0),
    Message('note_on', channel=8, note=65, velocity=78, time=0),
    Message('note_on', channel=9, note=36, velocity=120, time=0),
    Message('note_on', channel=9, note=44, velocity=80, time=0),
    MetaMessage('lyrics', text='as ', time=0),
    Message('note_on', channel=9, note=36, velocity=0, time=4),
    Message('note_on', channel=9, note=44, velocity=0, time=1),
    Message('note_on', channel=8, note=57, velocity=78, time=5),
    Message('note_on', channel=8, note=60, velocity=78, time=18),
    Message('note_on', channel=4, note=48, velocity=0, time=164),
    Message('note_on', channel=4, note=41, velocity=0, time=0),
    Message('note_on', channel=1, note=41, velocity=0, time=24),
    Message('note_on', channel=8, note=65, velocity=0, time=14),
    Message('note_on', channel=8, note=60, velocity=0, time=5),
    Message('note_on', channel=8, note=57, velocity=0, time=5),
    Message('note_on', channel=1, note=41, velocity=127, time=0),
    Message('note_on', channel=4, note=48, velocity=71, time=0),
    Message('note_on', channel=4, note=41, velocity=71, time=0),
    Message('note_on', channel=8, note=60, velocity=63, time=0),
    Message('note_on', channel=9, note=42, velocity=80, time=0),
    Message('note_on', channel=9, note=42, velocity=0, time=5),
    Message('note_on', channel=8, note=57, velocity=63, time=14),
    Message('note_on', channel=8, note=65, velocity=63, time=5),
    Message('note_on', channel=8, note=60, velocity=0, time=138),
    Message('note_on', channel=8, note=65, velocity=0, time=24),
    Message('note_on', channel=8, note=57, velocity=0, time=2),
    Message('note_on', channel=4, note=41, velocity=0, time=4),
    Message('note_on', channel=4, note=48, velocity=0, time=0),
    Message('note_on', channel=1, note=41, velocity=0, time=24),
    Message('note_on', channel=3, note=60, velocity=0, time=18),
    Message('note_on', channel=3, note=60, velocity=100, time=6),
    Message('note_on', channel=4, note=50, velocity=86, time=0),
    Message('note_on', channel=4, note=41, velocity=86, time=0),
    Message('note_on', channel=8, note=65, velocity=48, time=0),
    Message('note_on', channel=9, note=44, velocity=80, time=0),
    Message('note_on', channel=9, note=54, velocity=50, time=0),
    Message('note_on', channel=9, note=38, velocity=120, time=0),
    MetaMessage('lyrics', text='a, ', time=0),
    Message('note_on', channel=9, note=38, velocity=0, time=4),
    Message('note_on', channel=9, note=54, velocity=0, time=0),
    Message('note_on', channel=9, note=44, velocity=0, time=1),
    Message('note_on', channel=8, note=57, velocity=48, time=13),
    Message('note_on', channel=8, note=60, velocity=48, time=5),
    Message('note_on', channel=4, note=41, velocity=0, time=169),
    Message('note_on', channel=4, note=50, velocity=0, time=0),
    Message('note_on', channel=8, note=65, velocity=0, time=38),
    Message('note_on', channel=8, note=60, velocity=0, time=9),
    Message('note_on', channel=8, note=57, velocity=0, time=0),
    Message('note_on', channel=3, note=60, velocity=0, time=1),
    Message('note_on', channel=1, note=41, velocity=127, time=0),
    Message('note_on', channel=3, note=57, velocity=100, time=0),
    Message('note_on', channel=4, note=48, velocity=70, time=0),
    Message('note_on', channel=4, note=41, velocity=70, time=0),
    Message('note_on', channel=8, note=60, velocity=70, time=0),
    Message('note_on', channel=9, note=42, velocity=80, time=0),
    MetaMessage('lyrics', text='tr', time=0),
    Message('note_on', channel=9, note=42, velocity=0, time=5),
    Message('note_on', channel=8, note=57, velocity=70, time=14),
    Message('note_on', channel=8, note=65, velocity=70, time=14),
    Message('note_on', channel=3, note=57, velocity=0, time=87),
    Message('note_on', channel=3, note=55, velocity=100, time=0),
    MetaMessage('lyrics', text='a', time=0),
    Message('note_on', channel=1, note=41, velocity=0, time=96),
    Message('note_on', channel=8, note=60, velocity=0, time=14),
    Message('note_on', channel=8, note=57, velocity=0, time=5),
    Message('note_on', channel=3, note=55, velocity=0, time=5),
    Message('note_on', channel=3, note=53, velocity=100, time=0),
    Message('note_on', channel=8, note=57, velocity=80, time=0),
    Message('note_on', channel=9, note=44, velocity=80, time=0),
    Message('note_on', channel=9, note=36, velocity=120, time=0),
    MetaMessage('lyrics', text='in, ', time=0),
    MetaMessage('lyrics', text='\r', time=0),
    Message('note_on', channel=9, note=36, velocity=0, time=4),
    Message('note_on', channel=8, note=65, velocity=0, time=0),
    Message('note_on', channel=9, note=44, velocity=0, time=1),
    Message('note_on', channel=8, note=60, velocity=80, time=11),
    Message('note_on', channel=8, note=65, velocity=80, time=7),
    Message('note_on', channel=4, note=48, velocity=0, time=202),
    Message('note_on', channel=4, note=41, velocity=0, time=7),
    Message('note_on', channel=3, note=53, velocity=0, time=8),
    Message('note_on', channel=1, note=41, velocity=127, time=0),
    Message('note_on', channel=4, note=48, velocity=72, time=0),
    Message('note_on', channel=4, note=41, velocity=72, time=0),
    Message('note_on', channel=9, note=42, velocity=80, time=0),
    Message('note_on', channel=9, note=42, velocity=0, time=5),
    Message('note_on', channel=4, note=41, velocity=0, time=187),
    Message('note_on', channel=4, note=48, velocity=0, time=0),
    Message('note_on', channel=8, note=65, velocity=0, time=18),
    Message('note_on', channel=1, note=41, velocity=0, time=6),
    Message('note_on', channel=8, note=57, velocity=0, time=5),
    Message('note_on', channel=8, note=60, velocity=0, time=16),
    Message('note_on', channel=4, note=41, velocity=82, time=3),
    Message('note_on', channel=4, note=50, velocity=82, time=0),
    Message('note_on', channel=9, note=54, velocity=50, time=0),
    Message('note_on', channel=9, note=44, velocity=80, time=0),
    Message('note_on', channel=9, note=38, velocity=120, time=0),
    Message('note_on', channel=9, note=38, velocity=0, time=4),
    Message('note_on', channel=9, note=54, velocity=0, time=0),
    Message('note_on', channel=9, note=44, velocity=0, time=1),
    Message('note_on', channel=8, note=57, velocity=59, time=4),
    Message('note_on', channel=8, note=60, velocity=59, time=6),
    Message('note_on', channel=8, note=65, velocity=59, time=4),
    Message('note_on', channel=4, note=41, velocity=0, time=173),
    Message('note_on', channel=4, note=50, velocity=0, time=0),
    Message('note_on', channel=8, note=57, velocity=0, time=14),
    Message('note_on', channel=8, note=60, velocity=0, time=13),
    Message('note_on', channel=8, note=65, velocity=0, time=4),
    Message('note_on', channel=1, note=41, velocity=127, time=17),
    Message('note_on', channel=4, note=45, velocity=70, time=0),
    Message('note_on', channel=4, note=41, velocity=70, time=0),
    Message('note_on', channel=8, note=65, velocity=50, time=0),
    Message('note_on', channel=8, note=60, velocity=50, time=0),
    Message('note_on', channel=8, note=57, velocity=50, time=0),
    Message('note_on', channel=9, note=42, velocity=80, time=0),
    Message('note_on', channel=9, note=42, velocity=0, time=5),
    Message('note_on', channel=8, note=60, velocity=0, time=79),
    Message('note_on', channel=8, note=65, velocity=0, time=0),
    Message('note_on', channel=8, note=57, velocity=0, time=7),
    Message('note_on', channel=4, note=45, velocity=0, time=101),
    Message('note_on', channel=4, note=41, velocity=0, time=0),
    Message('note_on', channel=1, note=41, velocity=0, time=24),
    Message('note_on', channel=1, note=43, velocity=127, time=24),
    Message('note_on', channel=4, note=48, velocity=82, time=0),
    Message('note_on', channel=4, note=41, velocity=82, time=0),
    Message('note_on', channel=8, note=65, velocity=78, time=0),
    Message('note_on', channel=9, note=36, velocity=120, time=0),
    Message('note_on', channel=9, note=44, velocity=80, time=0),
    Message('note_on', channel=9, note=36, velocity=0, time=4),
    Message('note_on', channel=9, note=44, velocity=0, time=1),
    Message('note_on', channel=8, note=57, velocity=78, time=5),
    Message('note_on', channel=8, note=60, velocity=78, time=18),
    Message('note_on', channel=4, note=41, velocity=0, time=164),
    Message('note_on', channel=4, note=48, velocity=0, time=0),
    Message('note_on', channel=1, note=43, velocity=0, time=24),
    Message('note_on', channel=8, note=65, velocity=0, time=14),
    Message('note_on', channel=8, note=60, velocity=0, time=5),
    Message('note_on', channel=8, note=57, velocity=0, time=5),
    Message('note_on', channel=1, note=43, velocity=127, time=0),
    Message('note_on', channel=4, note=41, velocity=70, time=0),
    Message('note_on', channel=4, note=48, velocity=70, time=0),
    Message('note_on', channel=8, note=60, velocity=63, time=0),
    Message('note_on', channel=9, note=36, velocity=120, time=0),
    Message('note_on', channel=9, note=42, velocity=80, time=0),
    Message('note_on', channel=9, note=36, velocity=0, time=4),
    Message('note_on', channel=9, note=42, velocity=0, time=1),
    Message('note_on', channel=8, note=57, velocity=63, time=14),
    Message('note_on', channel=8, note=65, velocity=63, time=5),
    Message('note_on', channel=8, note=60, velocity=0, time=138),
    Message('note_on', channel=8, note=65, velocity=0, time=24),
    Message('note_on', channel=8, note=57, velocity=0, time=2),
    Message('note_on', channel=4, note=41, velocity=0, time=4),
    Message('note_on', channel=4, note=48, velocity=0, time=0),
    Message('note_on', channel=1, note=43, velocity=0, time=24),
    Message('note_on', channel=1, note=45, velocity=127, time=24),
    Message('note_on', channel=3, note=65, velocity=100, time=0),
    Message('note_on', channel=4, note=41, velocity=80, time=0),
    Message('note_on', channel=4, note=50, velocity=80, time=0),
    Message('note_on', channel=5, note=62, velocity=80, time=0),
    Message('note_on', channel=5, note=69, velocity=80, time=0),
    Message('note_on', channel=5, note=65, velocity=80, time=0),
    Message('note_on', channel=8, note=65, velocity=48, time=0),
    Message('note_on', channel=9, note=54, velocity=50, time=0),
    Message('note_on', channel=9, note=46, velocity=80, time=0),
    Message('note_on', channel=9, note=38, velocity=120, time=0),
    MetaMessage('lyrics', text="i've, ", time=0),
    Message('note_on', channel=9, note=38, velocity=0, time=4),
    Message('note_on', channel=9, note=54, velocity=0, time=0),
    Message('note_on', channel=9, note=46, velocity=0, time=1),
    Message('note_on', channel=8, note=57, velocity=48, time=13),
    Message('note_on', channel=8, note=60, velocity=48, time=5),
    Message('note_on', channel=4, note=41, velocity=0, time=169),
    Message('note_on', channel=4, note=50, velocity=0, time=0),
    Message('note_on', channel=1, note=45, velocity=0, time=24),
    Message('note_on', channel=8, note=65, velocity=0, time=14),
    Message('note_on', channel=8, note=60, velocity=0, time=9),
    Message('note_on', channel=8, note=57, velocity=0, time=0),
    Message('note_on', channel=1, note=45, velocity=127, time=1),
    Message('note_on', channel=4, note=41, velocity=70, time=0),
    Message('note_on', channel=4, note=45, velocity=70, time=0),
    Message('note_on', channel=8, note=60, velocity=70, time=0),
    Message('note_on', channel=9, note=42, velocity=80, time=0),
    Message('note_on', channel=9, note=42, velocity=0, time=5),
    Message('note_on', channel=8, note=57, velocity=70, time=14),
    Message('note_on', channel=8, note=65, velocity=70, time=14),
    Message('note_on', channel=4, note=41, velocity=0, time=159),
    Message('note_on', channel=4, note=45, velocity=0, time=0),
    Message('note_on', channel=1, note=45, velocity=0, time=24),
    Message('note_on', channel=8, note=60, velocity=0, time=14),
    Message('note_on', channel=8, note=57, velocity=0, time=5),
    Message('note_on', channel=5, note=62, velocity=0, time=5),
    Message('note_on', channel=2, note=77, velocity=0, time=0),
    Message('note_on', channel=2, note=81, velocity=0, time=0),
    Message('note_on', channel=5, note=69, velocity=0, time=0),
    Message('note_on', channel=5, note=65, velocity=0, time=0),
    Message('note_on', channel=3, note=65, velocity=0, time=0),
    Message('note_on', channel=1, note=48, velocity=127, time=0),
    Message('note_on', channel=2, note=76, velocity=59, time=0),
    Message('note_on', channel=2, note=79, velocity=70, time=0),
    Message('note_on', channel=3, note=64, velocity=100, time=0),
    Message('note_on', channel=4, note=48, velocity=86, time=0),
    Message('note_on', channel=4, note=55, velocity=86, time=0),
    Message('note_on', channel=5, note=60, velocity=80, time=0),
    Message('note_on', channel=5, note=64, velocity=80, time=0),
    Message('note_on', channel=5, note=67, velocity=80, time=0),
    Message('note_on', channel=8, note=55, velocity=80, time=0),
    Message('note_on', channel=9, note=44, velocity=80, time=0),
    Message('note_on', channel=9, note=36, velocity=120, time=0),
    MetaMessage('lyrics', text='run, ', time=0),
    Message('note_on', channel=9, note=36, velocity=0, time=4),
    Message('note_on', channel=8, note=65, velocity=0, time=0),
    Message('note_on', channel=9, note=44, velocity=0, time=1),
    Message('note_on', channel=8, note=60, velocity=80, time=11),
    Message('note_on', channel=8, note=64, velocity=80, time=7),
    Message('note_on', channel=4, note=55, velocity=0, time=169),
    Message('note_on', channel=4, note=48, velocity=0, time=0),
    Message('note_on', channel=1, note=48, velocity=0, time=24),
    Message('note_on', channel=1, note=48, velocity=127, time=24),
    Message('note_on', channel=4, note=55, velocity=69, time=0),
    Message('note_on', channel=4, note=48, velocity=69, time=0),
    Message('note_on', channel=9, note=42, velocity=80, time=0),
    Message('note_on', channel=9, note=42, velocity=0, time=5),
    Message('note_on', channel=4, note=48, velocity=0, time=187),
    Message('note_on', channel=4, note=55, velocity=0, time=0),
    Message('note_on', channel=8, note=64, velocity=0, time=18),
    Message('note_on', channel=1, note=48, velocity=0, time=6),
    Message('note_on', channel=8, note=55, velocity=0, time=5),
    Message('note_on', channel=8, note=60, velocity=0, time=16),
    Message('note_on', channel=4, note=57, velocity=83, time=3),
    Message('note_on', channel=4, note=48, velocity=83, time=0),
    Message('note_on', channel=9, note=54, velocity=50, time=0),
    Message('note_on', channel=9, note=44, velocity=80, time=0),
    Message('note_on', channel=9, note=38, velocity=120, time=0),
    Message('note_on', channel=9, note=38, velocity=0, time=4),
    Message('note_on', channel=9, note=54, velocity=0, time=0),
    Message('note_on', channel=9, note=44, velocity=0, time=1),
    Message('note_on', channel=8, note=55, velocity=59, time=4),
    Message('note_on', channel=8, note=60, velocity=59, time=6),
    Message('note_on', channel=8, note=64, velocity=59, time=4),
    Message('note_on', channel=4, note=57, velocity=0, time=173),
    Message('note_on', channel=4, note=48, velocity=0, time=0),
    Message('note_on', channel=8, note=55, velocity=0, time=14),
    Message('note_on', channel=8, note=60, velocity=0, time=13),
    Message('note_on', channel=8, note=64, velocity=0, time=4),
    Message('note_on', channel=1, note=48, velocity=127, time=17),
    Message('note_on', channel=4, note=48, velocity=72, time=0),
    Message('note_on', channel=4, note=52, velocity=72, time=0),
    Message('note_on', channel=8, note=55, velocity=50, time=0),
    Message('note_on', channel=8, note=60, velocity=50, time=0),
    Message('note_on', channel=8, note=64, velocity=50, time=0),
    Message('note_on', channel=9, note=36, velocity=120, time=0),
    Message('note_on', channel=9, note=42, velocity=80, time=0),
    Message('note_on', channel=9, note=42, velocity=0, time=5),
    Message('note_on', channel=9, note=36, velocity=0, time=11),
    Message('note_on', channel=8, note=60, velocity=0, time=68),
    Message('note_on', channel=8, note=64, velocity=0, time=0),
    Message('note_on', channel=8, note=55, velocity=0, time=7),
    Message('note_on', channel=4, note=52, velocity=0, time=101),
    Message('note_on', channel=4, note=48, velocity=0, time=0),
    Message('note_on', channel=1, note=48, velocity=0, time=24),
    Message('note_on', channel=5, note=67, velocity=0, time=24),
    Message('note_on', channel=5, note=64, velocity=0, time=0),
    Message('note_on', channel=5, note=60, velocity=0, time=0),
    Message('note_on', channel=2, note=79, velocity=0, time=0),
    Message('note_on', channel=3, note=64, velocity=0, time=0),
    Message('note_on', channel=2, note=76, velocity=0, time=0),
    Message('note_on', channel=1, note=41, velocity=127, time=0),
    Message('note_on', channel=2, note=77, velocity=79, time=0),
    Message('note_on', channel=2, note=81, velocity=66, time=0),
    Message('note_on', channel=3, note=65, velocity=100, time=0),
    Message('note_on', channel=4, note=41, velocity=80, time=0),
    Message('note_on', channel=4, note=48, velocity=80, time=0),
    Message('note_on', channel=5, note=69, velocity=80, time=0),
    Message('note_on', channel=5, note=65, velocity=80, time=0),
    Message('note_on', channel=5, note=62, velocity=80, time=0),
    Message('note_on', channel=8, note=65, velocity=78, time=0),
    Message('note_on', channel=9, note=44, velocity=80, time=0),
    Message('note_on', channel=9, note=36, velocity=120, time=0),
    MetaMessage('lyrics', text='just ', time=0),
    Message('note_on', channel=9, note=36, velocity=0, time=4),
    Message('note_on', channel=9, note=44, velocity=0, time=1),
    Message('note_on', channel=8, note=57, velocity=78, time=5),
    Message('note_on', channel=8, note=60, velocity=78, time=18),
    Message('note_on', channel=4, note=41, velocity=0, time=164),
    Message('note_on', channel=4, note=48, velocity=0, time=0),
    Message('note_on', channel=1, note=41, velocity=0, time=24),
    Message('note_on', channel=8, note=65, velocity=0, time=14),
    Message('note_on', channel=8, note=60, velocity=0, time=5),
    Message('note_on', channel=3, note=65, velocity=0, time=5),
    Message('note_on', channel=5, note=65, velocity=0, time=0),
    Message('note_on', channel=5, note=69, velocity=0, time=0),
    Message('note_on', channel=5, note=62, velocity=0, time=0),
    Message('note_on', channel=8, note=57, velocity=0, time=0),
    Message('note_on', channel=1, note=41, velocity=127, time=0),
    Message('note_on', channel=3, note=65, velocity=100, time=0),
    Message('note_on', channel=4, note=48, velocity=71, time=0),
    Message('note_on', channel=4, note=41, velocity=71, time=0),
    Message('note_on', channel=5, note=65, velocity=80, time=0),
    Message('note_on', channel=5, note=69, velocity=80, time=0),
    Message('note_on', channel=5, note=62, velocity=80, time=0),
    Message('note_on', channel=8, note=60, velocity=63, time=0),
    Message('note_on', channel=9, note=42, velocity=80, time=0),
    MetaMessage('lyrics', text='as ', time=0),
    Message('note_on', channel=9, note=42, velocity=0, time=5),
    Message('note_on', channel=8, note=57, velocity=63, time=14),
    Message('note_on', channel=8, note=65, velocity=63, time=5),
    Message('note_on', channel=8, note=60, velocity=0, time=138),
    Message('note_on', channel=8, note=65, velocity=0, time=24),
    Message('note_on', channel=8, note=57, velocity=0, time=2),
    Message('note_on', channel=4, note=41, velocity=0, time=4),
    Message('note_on', channel=4, note=48, velocity=0, time=0),
    Message('note_on', channel=1, note=41, velocity=0, time=24),
    Message('note_on', channel=4, note=41, velocity=86, time=24),
    Message('note_on', channel=4, note=50, velocity=86, time=0),
    Message('note_on', channel=8, note=65, velocity=48, time=0),
    Message('note_on', channel=9, note=44, velocity=80, time=0),
    Message('note_on', channel=9, note=54, velocity=50, time=0),
    Message('note_on', channel=9, note=38, velocity=120, time=0),
    Message('note_on', channel=9, note=38, velocity=0, time=4),
    Message('note_on', channel=9, note=54, velocity=0, time=0),
    Message('note_on', channel=9, note=44, velocity=0, time=1),
    Message('note_on', channel=8, note=57, velocity=48, time=13),
    Message('note_on', channel=8, note=60, velocity=48, time=5),
    Message('note_on', channel=4, note=50, velocity=0, time=169),
    Message('note_on', channel=4, note=41, velocity=0, time=0),
    Message('note_on', channel=8, note=65, velocity=0, time=38),
    Message('note_on', channel=8, note=57, velocity=0, time=9),
    Message('note_on', channel=8, note=60, velocity=0, time=0),
    Message('note_on', channel=5, note=69, velocity=0, time=1),
    Message('note_on', channel=5, note=65, velocity=0, time=0),
    Message('note_on', channel=5, note=62, velocity=0, time=0),
    Message('note_on', channel=3, note=65, velocity=0, time=0),
    Message('note_on', channel=1, note=41, velocity=127, time=0),
    Message('note_on', channel=3, note=64, velocity=100, time=0),
    Message('note_on', channel=4, note=45, velocity=70, time=0),
    Message('note_on', channel=4, note=41, velocity=70, time=0),
    Message('note_on', channel=5, note=67, velocity=80, time=0),
    Message('note_on', channel=5, note=64, velocity=80, time=0),
    Message('note_on', channel=5, note=60, velocity=80, time=0),
    Message('note_on', channel=8, note=60, velocity=70, time=0),
    Message('note_on', channel=9, note=42, velocity=80, time=0),
    Message('note_on', channel=9, note=36, velocity=120, time=0),
    MetaMessage('lyrics', text='far, ', time=0),
    Message('note_on', channel=9, note=36, velocity=0, time=4),
    Message('note_on', channel=9, note=42, velocity=0, time=1),
    Message('note_on', channel=8, note=57, velocity=70, time=14),
    Message('note_on', channel=8, note=65, velocity=70, time=14),
    Message('note_on', channel=4, note=45, velocity=0, time=159),
    Message('note_on', channel=4, note=41, velocity=0, time=0),
    Message('note_on', channel=1, note=41, velocity=0, time=24),
    Message('note_on', channel=8, note=60, velocity=0, time=14),
    Message('note_on', channel=8, note=57, velocity=0, time=5),
    Message('note_on', channel=2, note=81, velocity=0, time=5),
    Message('note_on', channel=2, note=77, velocity=0, time=0),
    Message('note_on', channel=1, note=48, velocity=127, time=0),
    Message('note_on', channel=2, note=79, velocity=71, time=0),
    Message('note_on', channel=2, note=76, velocity=79, time=0),
    Message('note_on', channel=4, note=48, velocity=87, time=0),
    Message('note_on', channel=4, note=55, velocity=87, time=0),
    Message('note_on', channel=8, note=55, velocity=80, time=0),
    Message('note_on', channel=9, note=44, velocity=80, time=0),
    Message('note_on', channel=9, note=36, velocity=120, time=0),
    Message('note_on', channel=9, note=36, velocity=0, time=4),
    Message('note_on', channel=8, note=65, velocity=0, time=0),
    Message('note_on', channel=9, note=44, velocity=0, time=1),
    Message('note_on', channel=8, note=60, velocity=80, time=11),
    Message('note_on', channel=8, note=64, velocity=80, time=7),
    Message('note_on', channel=4, note=55, velocity=0, time=169),
    Message('note_on', channel=4, note=48, velocity=0, time=0),
    Message('note_on', channel=1, note=48, velocity=0, time=24),
    Message('note_on', channel=1, note=48, velocity=127, time=24),
    Message('note_on', channel=4, note=55, velocity=72, time=0),
    Message('note_on', channel=4, note=48, velocity=72, time=0),
    Message('note_on', channel=9, note=42, velocity=80, time=0),
    Message('note_on', channel=9, note=42, velocity=0, time=5),
    Message('note_on', channel=4, note=48, velocity=0, time=187),
    Message('note_on', channel=4, note=55, velocity=0, time=0),
    Message('note_on', channel=8, note=64, velocity=0, time=18),
    Message('note_on', channel=1, note=48, velocity=0, time=6),
    Message('note_on', channel=8, note=55, velocity=0, time=5),
    Message('note_on', channel=8, note=60, velocity=0, time=16),
    Message('note_on', channel=5, note=64, velocity=0, time=3),
    Message('note_on', channel=3, note=64, velocity=0, time=0),
    Message('note_on', channel=5, note=60, velocity=0, time=0),
    Message('note_on', channel=5, note=67, velocity=0, time=0),
    Message('note_on', channel=3, note=62, velocity=100, time=0),
    Message('note_on', channel=4, note=57, velocity=82, time=0),
    Message('note_on', channel=4, note=48, velocity=82, time=0),
    Message('note_on', channel=5, note=65, velocity=80, time=0),
    Message('note_on', channel=5, note=62, velocity=80, time=0),
    Message('note_on', channel=5, note=59, velocity=80, time=0),
    Message('note_on', channel=9, note=54, velocity=50, time=0),
    Message('note_on', channel=9, note=44, velocity=80, time=0),
    Message('note_on', channel=9, note=38, velocity=120, time=0),
    MetaMessage('lyrics', text='as ', time=0),
    Message('note_on', channel=9, note=38, velocity=0, time=4),
    Message('note_on', channel=9, note=54, velocity=0, time=0),
    Message('note_on', channel=9, note=44, velocity=0, time=1),
    Message('note_on', channel=8, note=55, velocity=59, time=4),
    Message('note_on', channel=8, note=60, velocity=59, time=6),
    Message('note_on', channel=8, note=64, velocity=59, time=4),
    Message('note_on', channel=4, note=48, velocity=0, time=173),
    Message('note_on', channel=4, note=57, velocity=0, time=0),
    Message('note_on', channel=8, note=55, velocity=0, time=14),
    Message('note_on', channel=8, note=60, velocity=0, time=13),
    Message('note_on', channel=8, note=64, velocity=0, time=4),
    Message('note_on', channel=5, note=59, velocity=0, time=17),
    Message('note_on', channel=3, note=62, velocity=0, time=0),
    Message('note_on', channel=5, note=62, velocity=0, time=0),
    Message('note_on', channel=5, note=65, velocity=0, time=0),
    Message('note_on', channel=1, note=48, velocity=127, time=0),
    Message('note_on', channel=3, note=62, velocity=100, time=0),
    Message('note_on', channel=4, note=52, velocity=70, time=0),
    Message('note_on', channel=4, note=48, velocity=70, time=0),
    Message('note_on', channel=5, note=62, velocity=80, time=0),
    Message('note_on', channel=5, note=65, velocity=80, time=0),
    Message('note_on', channel=5, note=59, velocity=80, time=0),
    Message('note_on', channel=8, note=60, velocity=50, time=0),
    Message('note_on', channel=8, note=55, velocity=50, time=0),
    Message('note_on', channel=8, note=64, velocity=50, time=0),
    Message('note_on', channel=9, note=42, velocity=80, time=0),
    Message('note_on', channel=9, note=36, velocity=120, time=0),
    MetaMessage('lyrics', text='i ', time=0),
    Message('note_on', channel=9, note=36, velocity=0, time=4),
    Message('note_on', channel=9, note=42, velocity=0, time=1),
    Message('note_on', channel=8, note=60, velocity=0, time=79),
    Message('note_on', channel=8, note=64, velocity=0, time=0),
    Message('note_on', channel=8, note=55, velocity=0, time=7),
    Message('note_on', channel=4, note=48, velocity=0, time=101),
    Message('note_on', channel=4, note=52, velocity=0, time=0),
    Message('note_on', channel=1, note=48, velocity=0, time=24),
    Message('note_on', channel=2, note=79, velocity=0, time=24),
    Message('note_on', channel=2, note=76, velocity=0, time=0),
    Message('note_on', channel=2, note=72, velocity=0, time=0),
    Message('note_on', channel=1, note=43, velocity=127, time=0),
    Message('note_on', channel=2, note=71, velocity=71, time=0),
    Message('note_on', channel=2, note=74, velocity=73, time=0),
    Message('note_on', channel=2, note=79, velocity=58, time=0),
    Message('note_on', channel=4, note=50, velocity=82, time=0),
    Message('note_on', channel=4, note=43, velocity=82, time=0),
    Message('note_on', channel=8, note=62, velocity=78, time=0),
    Message('note_on', channel=9, note=44, velocity=80, time=0),
    Message('note_on', channel=9, note=36, velocity=120, time=0),
    Message('note_on', channel=9, note=36, velocity=0, time=4),
    Message('note_on', channel=9, note=44, velocity=0, time=1),
    Message('note_on', channel=8, note=55, velocity=78, time=5),
    Message('note_on', channel=8, note=59, velocity=78, time=18),
    Message('note_on', channel=4, note=50, velocity=0, time=164),
    Message('note_on', channel=4, note=43, velocity=0, time=0),
    Message('note_on', channel=1, note=43, velocity=0, time=24),
    Message('note_on', channel=8, note=62, velocity=0, time=14),
    Message('note_on', channel=8, note=59, velocity=0, time=5),
    Message('note_on', channel=5, note=62, velocity=0, time=5),
    Message('note_on', channel=5, note=59, velocity=0, time=0),
    Message('note_on', channel=5, note=65, velocity=0, time=0),
    Message('note_on', channel=8, note=55, velocity=0, time=0),
    Message('note_on', channel=3, note=62, velocity=0, time=0),
    Message('note_on', channel=1, note=43, velocity=127, time=0),
    Message('note_on', channel=3, note=62, velocity=100, time=0),
    Message('note_on', channel=4, note=43, velocity=70, time=0),
    Message('note_on', channel=4, note=50, velocity=70, time=0),
    Message('note_on', channel=5, note=62, velocity=80, time=0),
    Message('note_on', channel=5, note=65, velocity=80, time=0),
    Message('note_on', channel=5, note=59, velocity=80, time=0),
    Message('note_on', channel=8, note=59, velocity=63, time=0),
    Message('note_on', channel=9, note=42, velocity=80, time=0),
    MetaMessage('lyrics', text='can ', time=0),
    Message('note_on', channel=9, note=42, velocity=0, time=5),
    Message('note_on', channel=8, note=55, velocity=63, time=14),
    Message('note_on', channel=8, note=62, velocity=63, time=5),
    Message('note_on', channel=8, note=59, velocity=0, time=138),
    Message('note_on', channel=8, note=62, velocity=0, time=24),
    Message('note_on', channel=8, note=55, velocity=0, time=2),
    Message('note_on', channel=4, note=50, velocity=0, time=4),
    Message('note_on', channel=4, note=43, velocity=0, time=0),
    Message('note_on', channel=1, note=43, velocity=0, time=24),
    Message('note_on', channel=1, note=43, velocity=127, time=24),
    Message('note_on', channel=4, note=43, velocity=80, time=0),
    Message('note_on', channel=4, note=52, velocity=80, time=0),
    Message('note_on', channel=8, note=62, velocity=48, time=0),
    Message('note_on', channel=9, note=54, velocity=50, time=0),
    Message('note_on', channel=9, note=46, velocity=80, time=0),
    Message('note_on', channel=9, note=38, velocity=120, time=0),
    Message('note_on', channel=9, note=38, velocity=0, time=4),
    Message('note_on', channel=9, note=54, velocity=0, time=0),
    Message('note_on', channel=9, note=46, velocity=0, time=1),
    Message('note_on', channel=8, note=55, velocity=48, time=13),
    Message('note_on', channel=8, note=59, velocity=48, time=5),
    Message('note_on', channel=4, note=43, velocity=0, time=169),
    Message('note_on', channel=4, note=52, velocity=0, time=0),
    Message('note_on', channel=1, note=43, velocity=0, time=24),
    Message('note_on', channel=8, note=62, velocity=0, time=14),
    Message('note_on', channel=8, note=55, velocity=0, time=9),
    Message('note_on', channel=8, note=59, velocity=0, time=0),
    Message('note_on', channel=5, note=65, velocity=0, time=1),
    Message('note_on', channel=5, note=62, velocity=0, time=0),
    Message('note_on', channel=3, note=62, velocity=0, time=0),
    Message('note_on', channel=5, note=59, velocity=0, time=0),
    Message('note_on', channel=1, note=43, velocity=127, time=0),
    Message('note_on', channel=3, note=60, velocity=100, time=0),
    Message('note_on', channel=4, note=43, velocity=70, time=0),
    Message('note_on', channel=4, note=47, velocity=70, time=0),
    Message('note_on', channel=5, note=64, velocity=80, time=0),
    Message('note_on', channel=5, note=60, velocity=80, time=0),
    Message('note_on', channel=5, note=55, velocity=80, time=0),
    Message('note_on', channel=8, note=59, velocity=70, time=0),
    Message('note_on', channel=9, note=42, velocity=80, time=0),
    MetaMessage('lyrics', text='run. ', time=0),
    MetaMessage('lyrics', text='\r', time=0),
    MetaMessage('lyrics', text='\n', time=0),
    Message('note_on', channel=9, note=42, velocity=0, time=5),
    Message('note_on', channel=8, note=55, velocity=70, time=14),
    Message('note_on', channel=8, note=62, velocity=70, time=14),
    Message('note_on', channel=4, note=47, velocity=0, time=159),
    Message('note_on', channel=4, note=43, velocity=0, time=0),
    Message('note_on', channel=1, note=43, velocity=0, time=24),
    Message('note_on', channel=8, note=59, velocity=0, time=14),
    Message('note_on', channel=8, note=55, velocity=0, time=5),
    Message('note_on', channel=2, note=79, velocity=0, time=5),
    Message('note_on', channel=2, note=74, velocity=0, time=0),
    Message('note_on', channel=2, note=71, velocity=0, time=0),
    Message('note_on', channel=1, note=48, velocity=127, time=0),
    Message('note_on', channel=2, note=72, velocity=47, time=0),
    Message('note_on', channel=2, note=76, velocity=67, time=0),
    Message('note_on', channel=2, note=79, velocity=70, time=0),
    Message('note_on', channel=4, note=48, velocity=86, time=0),
    Message('note_on', channel=4, note=55, velocity=86, time=0),
    Message('note_on', channel=8, note=55, velocity=80, time=0),
    Message('note_on', channel=9, note=44, velocity=80, time=0),
    Message('note_on', channel=9, note=36, velocity=120, time=0),
    Message('note_on', channel=9, note=36, velocity=0, time=4),
    Message('note_on', channel=8, note=62, velocity=0, time=0),
    Message('note_on', channel=9, note=44, velocity=0, time=1),
    Message('note_on', channel=8, note=60, velocity=80, time=11),
    Message('note_on', channel=8, note=64, velocity=80, time=7),
    Message('note_on', channel=4, note=55, velocity=0, time=169),
    Message('note_on', channel=4, note=48, velocity=0, time=0),
    Message('note_on', channel=1, note=48, velocity=0, time=24),
    Message('note_on', channel=1, note=48, velocity=127, time=24),
    Message('note_on', channel=4, note=48, velocity=69, time=0),
    Message('note_on', channel=4, note=55, velocity=69, time=0),
    Message('note_on', channel=9, note=42, velocity=80, time=0),
    Message('note_on', channel=9, note=42, velocity=0, time=5),
    Message('note_on', channel=4, note=55, velocity=0, time=187),
    Message('note_on', channel=4, note=48, velocity=0, time=0),
    Message('note_on', channel=8, note=64, velocity=0, time=18),
    Message('note_on', channel=1, note=48, velocity=0, time=6),
    Message('note_on', channel=8, note=55, velocity=0, time=5),
    Message('note_on', channel=8, note=60, velocity=0, time=16),
    Message('note_on', channel=5, note=60, velocity=0, time=3),
    Message('note_on', channel=5, note=55, velocity=0, time=0),
    Message('note_on', channel=3, note=60, velocity=0, time=0),
    Message('note_on', channel=5, note=64, velocity=0, time=0),
    Message('note_on', channel=4, note=48, velocity=83, time=0),
    Message('note_on', channel=4, note=57, velocity=83, time=0),
    Message('note_on', channel=9, note=44, velocity=80, time=0),
    Message('note_on', channel=9, note=54, velocity=50, time=0),
    Message('note_on', channel=9, note=38, velocity=120, time=0),
    Message('note_on', channel=9, note=38, velocity=0, time=4),
    Message('note_on', channel=9, note=54, velocity=0, time=0),
    Message('note_on', channel=9, note=44, velocity=0, time=1),
    Message('note_on', channel=8, note=55, velocity=59, time=4),
    Message('note_on', channel=8, note=60, velocity=59, time=6),
    Message('note_on', channel=8, note=64, velocity=59, time=4),
    Message('note_on', channel=4, note=48, velocity=0, time=173),
    Message('note_on', channel=4, note=57, velocity=0, time=0),
    Message('note_on', channel=8, note=55, velocity=0, time=14),
    Message('note_on', channel=8, note=60, velocity=0, time=13),
    Message('note_on', channel=8, note=64, velocity=0, time=4),
    Message('note_on', channel=1, note=48, velocity=127, time=17),
    Message('note_on', channel=4, note=48, velocity=72, time=0),
    Message('note_on', channel=4, note=52, velocity=72, time=0),
    Message('note_on', channel=8, note=55, velocity=50, time=0),
    Message('note_on', channel=8, note=64, velocity=50, time=0),
    Message('note_on', channel=8, note=60, velocity=50, time=0),
    Message('note_on', channel=9, note=36, velocity=120, time=0),
    Message('note_on', channel=9, note=42, velocity=80, time=0),
    Message('note_on', channel=9, note=36, velocity=0, time=4),
    Message('note_on', channel=9, note=42, velocity=0, time=1),
    Message('note_on', channel=8, note=64, velocity=0, time=79),
    Message('note_on', channel=8, note=60, velocity=0, time=0),
    Message('note_on', channel=8, note=55, velocity=0, time=7),
    Message('note_on', channel=4, note=48, velocity=0, time=101),
    Message('note_on', channel=4, note=52, velocity=0, time=0),
    Message('note_on', channel=1, note=48, velocity=0, time=24),
    Message('note_on', channel=1, note=48, velocity=127, time=24),
    Message('note_on', channel=4, note=48, velocity=80, time=0),
    Message('note_on', channel=4, note=55, velocity=80, time=0),
    Message('note_on', channel=8, note=64, velocity=78, time=0),
    Message('note_on', channel=9, note=36, velocity=120, time=0),
    Message('note_on', channel=9, note=44, velocity=80, time=0),
    Message('note_on', channel=9, note=36, velocity=0, time=4),
    Message('note_on', channel=9, note=44, velocity=0, time=1),
    Message('note_on', channel=8, note=55, velocity=78, time=5),
    Message('note_on', channel=8, note=60, velocity=78, time=18),
    Message('note_on', channel=4, note=55, velocity=0, time=164),
    Message('note_on', channel=4, note=48, velocity=0, time=0),
    Message('note_on', channel=1, note=48, velocity=0, time=24),
    Message('note_on', channel=8, note=64, velocity=0, time=14),
    Message('note_on', channel=8, note=60, velocity=0, time=5),
    Message('note_on', channel=8, note=55, velocity=0, time=5),
    Message('note_on', channel=1, note=48, velocity=127, time=0),
    Message('note_on', channel=4, note=48, velocity=71, time=0),
    Message('note_on', channel=4, note=55, velocity=71, time=0),
    Message('note_on', channel=6, note=60, velocity=100, time=0),
    Message('note_on', channel=7, note=57, velocity=120, time=0),
    Message('note_on', channel=8, note=60, velocity=63, time=0),
    Message('note_on', channel=9, note=42, velocity=80, time=0),
    Message('note_on', channel=13, note=60, velocity=100, time=0),
    Message('note_on', channel=9, note=42, velocity=0, time=5),
    Message('note_on', channel=8, note=55, velocity=63, time=14),
    Message('note_on', channel=8, note=64, velocity=63, time=5),
    Message('note_on', channel=8, note=60, velocity=0, time=138),
    Message('note_on', channel=8, note=64, velocity=0, time=24),
    Message('note_on', channel=8, note=55, velocity=0, time=2),
    Message('note_on', channel=4, note=55, velocity=0, time=4),
    Message('note_on', channel=4, note=48, velocity=0, time=0),
    Message('note_on', channel=1, note=48, velocity=0, time=24),
    Message('note_on', channel=7, note=57, velocity=0, time=24),
    Message('note_on', channel=13, note=60, velocity=0, time=0),
    Message('note_on', channel=6, note=60, velocity=0, time=0),
    Message('note_on', channel=4, note=57, velocity=86, time=0),
    Message('note_on', channel=4, note=48, velocity=86, time=0),
    Message('note_on', channel=8, note=64, velocity=48, time=0),
    Message('note_on', channel=9, note=44, velocity=80, time=0),
    Message('note_on', channel=9, note=54, velocity=50, time=0),
    Message('note_on', channel=9, note=38, velocity=120, time=0),
    Message('note_on', channel=9, note=38, velocity=0, time=4),
    Message('note_on', channel=9, note=54, velocity=0, time=0),
    Message('note_on', channel=9, note=44, velocity=0, time=1),
    Message('note_on', channel=8, note=55, velocity=48, time=13),
    Message('note_on', channel=8, note=60, velocity=48, time=5),
    Message('note_on', channel=4, note=57, velocity=0, time=169),
    Message('note_on', channel=4, note=48, velocity=0, time=0),
    Message('note_on', channel=8, note=64, velocity=0, time=38),
    Message('note_on', channel=8, note=60, velocity=0, time=9),
    Message('note_on', channel=8, note=55, velocity=0, time=0),
    Message('note_on', channel=1, note=48, velocity=127, time=1),
    Message('note_on', channel=4, note=55, velocity=70, time=0),
    Message('note_on', channel=4, note=48, velocity=70, time=0),
    Message('note_on', channel=6, note=60, velocity=100, time=0),
    Message('note_on', channel=7, note=55, velocity=120, time=0),
    Message('note_on', channel=8, note=60, velocity=70, time=0),
    Message('note_on', channel=9, note=42, velocity=80, time=0),
    Message('note_on', channel=13, note=60, velocity=100, time=0),
    Message('note_on', channel=9, note=42, velocity=0, time=5),
    Message('note_on', channel=8, note=55, velocity=70, time=14),
    Message('note_on', channel=8, note=64, velocity=70, time=14),
    Message('note_on', channel=1, note=48, velocity=0, time=183),
    Message('note_on', channel=8, note=60, velocity=0, time=14),
    Message('note_on', channel=8, note=55, velocity=0, time=5),
    Message('note_on', channel=8, note=55, velocity=80, time=5),
    Message('note_on', channel=9, note=44, velocity=80, time=0),
    Message('note_on', channel=9, note=36, velocity=120, time=0),
    Message('note_on', channel=9, note=36, velocity=0, time=4),
    Message('note_on', channel=8, note=64, velocity=0, time=0),
    Message('note_on', channel=9, note=44, velocity=0, time=1),
    Message('note_on', channel=8, note=60, velocity=80, time=11),
    Message('note_on', channel=8, note=64, velocity=80, time=7),
    Message('control_change', channel=13, control=1, value=78, time=75),
    Message('note_on', channel=4, note=48, velocity=0, time=113),
    Message('note_on', channel=4, note=55, velocity=0, time=21),
    Message('note_on', channel=1, note=48, velocity=127, time=8),
    Message('note_on', channel=4, note=48, velocity=72, time=0),
    Message('note_on', channel=4, note=55, velocity=72, time=0),
    Message('note_on', channel=9, note=42, velocity=80, time=0),
    Message('note_on', channel=9, note=42, velocity=0, time=5),
    Message('note_on', channel=4, note=55, velocity=0, time=187),
    Message('note_on', channel=4, note=48, velocity=0, time=0),
    Message('note_on', channel=8, note=64, velocity=0, time=18),
    Message('note_on', channel=1, note=48, velocity=0, time=6),
    Message('note_on', channel=8, note=55, velocity=0, time=5),
    Message('control_change', channel=13, control=1, value=0, time=4),
    Message('note_on', channel=8, note=60, velocity=0, time=12),
    Message('note_on', channel=6, note=60, velocity=0, time=3),
    Message('note_on', channel=7, note=55, velocity=0, time=0),
    Message('note_on', channel=13, note=60, velocity=0, time=0),
    Message('note_on', channel=4, note=57, velocity=82, time=0),
    Message('note_on', channel=4, note=48, velocity=82, time=0),
    Message('note_on', channel=6, note=57, velocity=100, time=0),
    Message('note_on', channel=9, note=54, velocity=50, time=0),
    Message('note_on', channel=9, note=44, velocity=80, time=0),
    Message('note_on', channel=9, note=38, velocity=120, time=0),
    Message('note_on', channel=13, note=57, velocity=100, time=0),
    Message('note_on', channel=9, note=38, velocity=0, time=4),
    Message('note_on', channel=9, note=54, velocity=0, time=0),
    Message('note_on', channel=9, note=44, velocity=0, time=1),
    Message('note_on', channel=8, note=55, velocity=59, time=4),
    Message('note_on', channel=8, note=60, velocity=59, time=6),
    Message('note_on', channel=8, note=64, velocity=59, time=4),
    Message('note_on', channel=4, note=57, velocity=0, time=173),
    Message('note_on', channel=4, note=48, velocity=0, time=0),
    Message('note_on', channel=8, note=55, velocity=0, time=14),
    Message('note_on', channel=8, note=60, velocity=0, time=13),
    Message('note_on', channel=8, note=64, velocity=0, time=4),
    Message('note_on', channel=13, note=57, velocity=0, time=17),
    Message('note_on', channel=6, note=57, velocity=0, time=0),
    Message('note_on', channel=1, note=48, velocity=127, time=0),
    Message('note_on', channel=4, note=52, velocity=70, time=0),
    Message('note_on', channel=4, note=48, velocity=70, time=0),
    Message('note_on', channel=6, note=52, velocity=100, time=0),
    Message('note_on', channel=8, note=64, velocity=50, time=0),
    Message('note_on', channel=8, note=60, velocity=50, time=0),
    Message('note_on', channel=8, note=55, velocity=50, time=0),
    Message('note_on', channel=9, note=42, velocity=80, time=0),
    Message('note_on', channel=13, note=52, velocity=100, time=0),
    Message('note_on', channel=9, note=42, velocity=0, time=5),
    Message('note_on', channel=8, note=60, velocity=0, time=79),
    Message('note_on', channel=8, note=64, velocity=0, time=0),
    Message('note_on', channel=8, note=55, velocity=0, time=7),
    Message('note_on', channel=4, note=48, velocity=0, time=101),
    Message('note_on', channel=4, note=52, velocity=0, time=0),
    Message('note_on', channel=1, note=48, velocity=0, time=24),
    Message('note_on', channel=6, note=52, velocity=0, time=24),
    Message('note_on', channel=13, note=52, velocity=0, time=0),
    Message('note_on', channel=1, note=48, velocity=127, time=0),
    Message('note_on', channel=4, note=55, velocity=82, time=0),
    Message('note_on', channel=4, note=48, velocity=82, time=0),
    Message('note_on', channel=6, note=55, velocity=100, time=0),
    Message('note_on', channel=8, note=64, velocity=78, time=0),
    Message('note_on', channel=9, note=36, velocity=120, time=0),
    Message('note_on', channel=9, note=44, velocity=80, time=0),
    Message('note_on', channel=13, note=55, velocity=100, time=0),
    Message('note_on', channel=9, note=36, velocity=0, time=4),
    Message('note_on', channel=9, note=44, velocity=0, time=1),
    Message('note_on', channel=8, note=55, velocity=78, time=5),
    Message('note_on', channel=8, note=60, velocity=78, time=18),
    Message('note_on', channel=4, note=48, velocity=0, time=164),
    Message('note_on', channel=4, note=55, velocity=0, time=0),
    Message('note_on', channel=1, note=48, velocity=0, time=24),
    Message('note_on', channel=8, note=64, velocity=0, time=14),
    Message('note_on', channel=8, note=60, velocity=0, time=5),
    Message('note_on', channel=6, note=55, velocity=0, time=5),
    Message('note_on', channel=13, note=55, velocity=0, time=0),
    Message('note_on', channel=8, note=55, velocity=0, time=0),
    Message('note_on', channel=1, note=48, velocity=127, time=0),
    Message('note_on', channel=4, note=48, velocity=70, time=0),
    Message('note_on', channel=4, note=55, velocity=70, time=0),
    Message('note_on', channel=6, note=52, velocity=100, time=0),
    Message('note_on', channel=8, note=60, velocity=63, time=0),
    Message('note_on', channel=9, note=36, velocity=120, time=0),
    Message('note_on', channel=9, note=42, velocity=80, time=0),
    Message('note_on', channel=13, note=52, velocity=100, time=0),
    Message('note_on', channel=9, note=42, velocity=0, time=5),
    Message('note_on', channel=9, note=36, velocity=0, time=11),
    Message('note_on', channel=8, note=55, velocity=63, time=3),
    Message('note_on', channel=8, note=64, velocity=63, time=5),
    Message('note_on', channel=8, note=60, velocity=0, time=138),
    Message('note_on', channel=8, note=64, velocity=0, time=24),
    Message('note_on', channel=8, note=55, velocity=0, time=2),
    Message('note_on', channel=4, note=55, velocity=0, time=4),
    Message('note_on', channel=4, note=48, velocity=0, time=0),
    Message('note_on', channel=1, note=48, velocity=0, time=24),
    Message('note_on', channel=13, note=52, velocity=0, time=24),
    Message('note_on', channel=6, note=52, velocity=0, time=0),
    Message('note_on', channel=1, note=45, velocity=127, time=0),
    Message('note_on', channel=3, note=57, velocity=100, time=0),
    Message('note_on', channel=4, note=57, velocity=80, time=0),
    Message('note_on', channel=4, note=48, velocity=80, time=0),
    Message('note_on', channel=6, note=50, velocity=100, time=0),
    Message('note_on', channel=8, note=64, velocity=48, time=0),
    Message('note_on', channel=9, note=54, velocity=50, time=0),
    Message('note_on', channel=9, note=44, velocity=80, time=0),
    Message('note_on', channel=9, note=38, velocity=90, time=0),
    Message('note_on', channel=13, note=50, velocity=100, time=0),
    MetaMessage('lyrics', text='If ', time=0),
    Message('note_on', channel=9, note=38, velocity=0, time=4),
    Message('note_on', channel=9, note=54, velocity=0, time=0),
    Message('note_on', channel=9, note=44, velocity=0, time=1),
    Message('note_on', channel=8, note=55, velocity=48, time=13),
    Message('note_on', channel=8, note=60, velocity=48, time=5),
    Message('note_on', channel=4, note=48, velocity=0, time=169),
    Message('note_on', channel=4, note=57, velocity=0, time=0),
    Message('note_on', channel=1, note=45, velocity=0, time=24),
    Message('note_on', channel=8, note=64, velocity=0, time=14),
    Message('note_on', channel=8, note=55, velocity=0, time=9),
    Message('note_on', channel=8, note=60, velocity=0, time=0),
    Message('note_on', channel=3, note=57, velocity=0, time=1),
    Message('note_on', channel=6, note=50, velocity=0, time=0),
    Message('note_on', channel=13, note=50, velocity=0, time=0),
    Message('note_on', channel=1, note=43, velocity=127, time=0),
    Message('note_on', channel=3, note=60, velocity=100, time=0),
    Message('note_on', channel=4, note=52, velocity=70, time=0),
    Message('note_on', channel=4, note=48, velocity=70, time=0),
    Message('note_on', channel=6, note=48, velocity=100, time=0),
    Message('note_on', channel=8, note=60, velocity=70, time=0),
    Message('note_on', channel=9, note=42, velocity=80, time=0),
    Message('note_on', channel=9, note=38, velocity=120, time=0),
    Message('note_on', channel=13, note=48, velocity=100, time=0),
    MetaMessage('lyrics', text='i, ', time=0),
    Message('note_on', channel=9, note=38, velocity=0, time=4),
    Message('note_on', channel=9, note=42, velocity=0, time=1),
    Message('note_on', channel=8, note=55, velocity=70, time=14),
    Message('note_on', channel=8, note=64, velocity=70, time=14),
    Message('note_on', channel=4, note=48, velocity=0, time=159),
    Message('note_on', channel=4, note=52, velocity=0, time=0),
    Message('note_on', channel=1, note=43, velocity=0, time=24),
    Message('note_on', channel=8, note=60, velocity=0, time=14),
    Message('note_on', channel=8, note=55, velocity=0, time=5),
    Message('note_on', channel=2, note=72, velocity=0, time=5),
    Message('note_on', channel=3, note=60, velocity=0, time=0),
    Message('note_on', channel=2, note=79, velocity=0, time=0),
    Message('note_on', channel=2, note=76, velocity=0, time=0),
    Message('note_on', channel=1, note=48, velocity=127, time=0),
    Message('note_on', channel=2, note=76, velocity=68, time=0),
    Message('note_on', channel=2, note=79, velocity=73, time=0),
    Message('note_on', channel=2, note=72, velocity=66, time=0),
    Message('note_on', channel=4, note=48, velocity=86, time=0),
    Message('note_on', channel=4, note=55, velocity=86, time=0),
    Message('note_on', channel=8, note=55, velocity=80, time=0),
    Message('note_on', channel=9, note=49, velocity=80, time=0),
    Message('note_on', channel=9, note=36, velocity=120, time=0),
    Message('note_on', channel=9, note=36, velocity=0, time=4),
    Message('note_on', channel=8, note=64, velocity=0, time=0),
    Message('note_on', channel=9, note=49, velocity=0, time=1),
    Message('note_on', channel=3, note=64, velocity=100, time=11),
    Message('note_on', channel=8, note=60, velocity=80, time=0),
    MetaMessage('lyrics', text='ne', time=0),
    Message('note_on', channel=8, note=64, velocity=80, time=7),
    Message('control_change', channel=13, control=1, value=42, time=167),
    Message('note_on', channel=4, note=48, velocity=0, time=2),
    Message('note_on', channel=4, note=55, velocity=0, time=0),
    Message('note_on', channel=1, note=48, velocity=0, time=24),
    Message('note_on', channel=1, note=48, velocity=127, time=24),
    Message('note_on', channel=4, note=48, velocity=69, time=0),
    Message('note_on', channel=4, note=55, velocity=69, time=0),
    Message('note_on', channel=9, note=42, velocity=80, time=0),
    Message('note_on', channel=9, note=42, velocity=0, time=5),
    Message('note_on', channel=3, note=62, velocity=100, time=14),
    MetaMessage('lyrics', text='ver ', time=0),
    Message('note_on', channel=3, note=64, velocity=0, time=25),
    Message('note_on', channel=4, note=48, velocity=0, time=148),
    Message('note_on', channel=4, note=55, velocity=0, time=0),
    Message('note_on', channel=8, note=64, velocity=0, time=18),
    Message('note_on', channel=1, note=48, velocity=0, time=6),
    Message('note_on', channel=8, note=55, velocity=0, time=5),
    Message('control_change', channel=13, control=1, value=81, time=11),
    Message('note_on', channel=8, note=60, velocity=0, time=5),
    Message('note_on', channel=4, note=57, velocity=83, time=3),
    Message('note_on', channel=4, note=48, velocity=83, time=0),
    Message('note_on', channel=9, note=54, velocity=50, time=0),
    Message('note_on', channel=9, note=44, velocity=80, time=0),
    Message('note_on', channel=9, note=38, velocity=120, time=0),
    Message('note_on', channel=9, note=38, velocity=0, time=4),
    Message('note_on', channel=9, note=54, velocity=0, time=0),
    Message('note_on', channel=9, note=44, velocity=0, time=1),
    Message('note_on', channel=8, note=55, velocity=59, time=4),
    Message('note_on', channel=8, note=60, velocity=59, time=6),
    Message('note_on', channel=8, note=64, velocity=59, time=4),
    Message('note_on', channel=3, note=62, velocity=0, time=155),
    Message('note_on', channel=4, note=48, velocity=0, time=18),
    Message('note_on', channel=4, note=57, velocity=0, time=0),
    Message('note_on', channel=8, note=55, velocity=0, time=14),
    Message('note_on', channel=3, note=60, velocity=100, time=9),
    MetaMessage('lyrics', text='see, ', time=0),
    Message('note_on', channel=8, note=60, velocity=0, time=4),
    Message('note_on', channel=8, note=64, velocity=0, time=4),
    Message('note_on', channel=1, note=48, velocity=127, time=17),
    Message('note_on', channel=4, note=48, velocity=72, time=0),
    Message('note_on', channel=4, note=52, velocity=72, time=0),
    Message('note_on', channel=8, note=55, velocity=50, time=0),
    Message('note_on', channel=8, note=64, velocity=50, time=0),
    Message('note_on', channel=8, note=60, velocity=50, time=0),
    Message('note_on', channel=9, note=42, velocity=80, time=0),
    Message('note_on', channel=9, note=36, velocity=120, time=0),
    Message('note_on', channel=9, note=36, velocity=0, time=4),
    Message('note_on', channel=9, note=42, velocity=0, time=1),
    Message('note_on', channel=8, note=64, velocity=0, time=79),
    Message('note_on', channel=8, note=60, velocity=0, time=0),
    Message('note_on', channel=8, note=55, velocity=0, time=7),
    Message('note_on', channel=4, note=48, velocity=0, time=101),
    Message('note_on', channel=4, note=52, velocity=0, time=0),
    Message('note_on', channel=1, note=48, velocity=0, time=24),
    Message('control_change', channel=13, control=1, value=0, time=9),
    Message('note_on', channel=1, note=48, velocity=127, time=15),
    Message('note_on', channel=4, note=48, velocity=80, time=0),
    Message('note_on', channel=4, note=55, velocity=80, time=0),
    Message('note_on', channel=8, note=64, velocity=78, time=0),
    Message('note_on', channel=9, note=44, velocity=80, time=0),
    Message('note_on', channel=9, note=36, velocity=120, time=0),
    Message('note_on', channel=9, note=36, velocity=0, time=4),
    Message('note_on', channel=9, note=44, velocity=0, time=1),
    Message('note_on', channel=6, note=48, velocity=0, time=2),
    Message('note_on', channel=13, note=48, velocity=0, time=0),
    Message('note_on', channel=8, note=55, velocity=78, time=3),
    Message('note_on', channel=8, note=60, velocity=78, time=18),
    Message('note_on', channel=4, note=48, velocity=0, time=164),
    Message('note_on', channel=4, note=55, velocity=0, time=0),
    Message('note_on', channel=1, note=48, velocity=0, time=24),
    Message('note_on', channel=8, note=64, velocity=0, time=14),
    Message('note_on', channel=8, note=60, velocity=0, time=5),
    Message('note_on', channel=8, note=55, velocity=0, time=5),
    Message('note_on', channel=1, note=48, velocity=127, time=0),
    Message('note_on', channel=4, note=55, velocity=71, time=0),
    Message('note_on', channel=4, note=48, velocity=71, time=0),
    Message('note_on', channel=8, note=60, velocity=63, time=0),
    Message('note_on', channel=9, note=42, velocity=80, time=0),
    Message('note_on', channel=9, note=42, velocity=0, time=5),
    Message('note_on', channel=8, note=55, velocity=63, time=14),
    Message('note_on', channel=8, note=64, velocity=63, time=5),
    Message('note_on', channel=8, note=60, velocity=0, time=138),
    Message('note_on', channel=8, note=64, velocity=0, time=24),
    Message('note_on', channel=8, note=55, velocity=0, time=2),
    Message('note_on', channel=4, note=48, velocity=0, time=4),
    Message('note_on', channel=4, note=55, velocity=0, time=0),
    Message('note_on', channel=1, note=48, velocity=0, time=24),
    Message('note_on', channel=3, note=60, velocity=0, time=5),
    Message('note_on', channel=4, note=57, velocity=86, time=19),
    Message('note_on', channel=4, note=48, velocity=86, time=0),
    Message('note_on', channel=8, note=64, velocity=48, time=0),
    Message('note_on', channel=9, note=54, velocity=50, time=0),
    Message('note_on', channel=9, note=44, velocity=80, time=0),
    Message('note_on', channel=9, note=38, velocity=120, time=0),
    Message('note_on', channel=9, note=38, velocity=0, time=4),
    Message('note_on', channel=9, note=54, velocity=0, time=0),
    Message('note_on', channel=9, note=44, velocity=0, time=1),
    Message('note_on', channel=8, note=55, velocity=48, time=13),
    Message('note_on', channel=8, note=60, velocity=48, time=5),
    Message('note_on', channel=4, note=57, velocity=0, time=169),
    Message('note_on', channel=4, note=48, velocity=0, time=0),
    Message('note_on', channel=8, note=64, velocity=0, time=38),
    Message('note_on', channel=8, note=60, velocity=0, time=9),
    Message('note_on', channel=8, note=55, velocity=0, time=0),
    Message('note_on', channel=1, note=48, velocity=127, time=1),
    Message('note_on', channel=3, note=60, velocity=100, time=0),
    Message('note_on', channel=4, note=48, velocity=70, time=0),
    Message('note_on', channel=4, note=55, velocity=70, time=0),
    Message('note_on', channel=8, note=60, velocity=70, time=0),
    Message('note_on', channel=9, note=42, velocity=80, time=0),
    MetaMessage('lyrics', text='the, ', time=0),
    Message('note_on', channel=9, note=42, velocity=0, time=5),
    Message('note_on', channel=8, note=55, velocity=70, time=14),
    Message('note_on', channel=8, note=64, velocity=70, time=14),
    Message('note_on', channel=1, note=48, velocity=0, time=183),
    Message('note_on', channel=8, note=60, velocity=0, time=14),
    Message('note_on', channel=8, note=55, velocity=0, time=5),
    Message('note_on', channel=3, note=60, velocity=0, time=5),
    Message('note_on', channel=3, note=64, velocity=100, time=0),
    Message('note_on', channel=8, note=55, velocity=80, time=0),
    Message('note_on', channel=9, note=44, velocity=80, time=0),
    Message('note_on', channel=9, note=36, velocity=120, time=0),
    MetaMessage('lyrics', text='good ', time=0),
    Message('note_on', channel=9, note=36, velocity=0, time=4),
    Message('note_on', channel=8, note=64, velocity=0, time=0),
    Message('note_on', channel=9, note=44, velocity=0, time=1),
    Message('note_on', channel=8, note=60, velocity=80, time=11),
    Message('note_on', channel=8, note=64, velocity=80, time=7),
    Message('note_on', channel=4, note=48, velocity=0, time=202),
    Message('note_on', channel=4, note=55, velocity=0, time=0),
    Message('note_on', channel=3, note=64, velocity=0, time=15),
    Message('note_on', channel=1, note=48, velocity=127, time=0),
    Message('note_on', channel=3, note=62, velocity=100, time=0),
    Message('note_on', channel=4, note=48, velocity=72, time=0),
    Message('note_on', channel=4, note=55, velocity=72, time=0),
    Message('note_on', channel=9, note=42, velocity=80, time=0),
    MetaMessage('lyrics', text='old ', time=0),
    Message('note_on', channel=9, note=42, velocity=0, time=5),
    Message('note_on', channel=4, note=55, velocity=0, time=187),
    Message('note_on', channel=4, note=48, velocity=0, time=0),
    Message('note_on', channel=8, note=64, velocity=0, time=18),
    Message('note_on', channel=1, note=48, velocity=0, time=6),
    Message('note_on', channel=8, note=55, velocity=0, time=5),
    Message('note_on', channel=8, note=60, velocity=0, time=16),
    Message('note_on', channel=4, note=48, velocity=82, time=3),
    Message('note_on', channel=4, note=57, velocity=82, time=0),
    Message('note_on', channel=9, note=44, velocity=80, time=0),
    Message('note_on', channel=9, note=54, velocity=50, time=0),
    Message('note_on', channel=9, note=38, velocity=120, time=0),
    Message('note_on', channel=9, note=38, velocity=0, time=4),
    Message('note_on', channel=9, note=54, velocity=0, time=0),
    Message('note_on', channel=9, note=44, velocity=0, time=1),
    Message('note_on', channel=8, note=55, velocity=59, time=4),
    Message('note_on', channel=8, note=60, velocity=59, time=6),
    Message('note_on', channel=8, note=64, velocity=59, time=4),
    Message('note_on', channel=3, note=62, velocity=0, time=101),
    Message('note_on', channel=4, note=48, velocity=0, time=72),
    Message('note_on', channel=4, note=57, velocity=0, time=0),
    Message('note_on', channel=8, note=55, velocity=0, time=14),
    Message('note_on', channel=8, note=60, velocity=0, time=13),
    Message('note_on', channel=8, note=64, velocity=0, time=4),
    Message('note_on', channel=1, note=48, velocity=127, time=17),
    Message('note_on', channel=3, note=60, velocity=100, time=0),
    Message('note_on', channel=4, note=48, velocity=70, time=0),
    Message('note_on', channel=4, note=52, velocity=70, time=0),
    Message('note_on', channel=8, note=64, velocity=50, time=0),
    Message('note_on', channel=8, note=60, velocity=50, time=0),
    Message('note_on', channel=8, note=55, velocity=50, time=0),
    Message('note_on', channel=9, note=42, velocity=80, time=0),
    MetaMessage('lyrics', text='days, ', time=0),
    MetaMessage('lyrics', text='\r', time=0),
    Message('note_on', channel=9, note=42, velocity=0, time=5),
    Message('note_on', channel=8, note=60, velocity=0, time=79),
    Message('note_on', channel=8, note=64, velocity=0, time=0),
    Message('note_on', channel=8, note=55, velocity=0, time=7),
    Message('note_on', channel=4, note=52, velocity=0, time=101),
    Message('note_on', channel=4, note=48, velocity=0, time=0),
    Message('note_on', channel=1, note=48, velocity=0, time=24),
    Message('note_on', channel=1, note=48, velocity=127, time=24),
    Message('note_on', channel=4, note=48, velocity=82, time=0),
    Message('note_on', channel=4, note=55, velocity=82, time=0),
    Message('note_on', channel=8, note=64, velocity=78, time=0),
    Message('note_on', channel=9, note=44, velocity=80, time=0),
    Message('note_on', channel=9, note=36, velocity=120, time=0),
    Message('note_on', channel=9, note=36, velocity=0, time=4),
    Message('note_on', channel=9, note=44, velocity=0, time=1),
    Message('note_on', channel=8, note=55, velocity=78, time=5),
    Message('note_on', channel=8, note=60, velocity=78, time=18),
    Message('note_on', channel=4, note=55, velocity=0, time=164),
    Message('note_on', channel=4, note=48, velocity=0, time=0),
    Message('note_on', channel=1, note=48, velocity=0, time=24),
    Message('note_on', channel=8, note=64, velocity=0, time=14),
    Message('note_on', channel=8, note=60, velocity=0, time=5),
    Message('note_on', channel=8, note=55, velocity=0, time=5),
    Message('note_on', channel=1, note=48, velocity=127, time=0),
    Message('note_on', channel=4, note=48, velocity=70, time=0),
    Message('note_on', channel=4, note=55, velocity=70, time=0),
    Message('note_on', channel=8, note=60, velocity=63, time=0),
    Message('note_on', channel=9, note=42, velocity=80, time=0),
    Message('note_on', channel=9, note=42, velocity=0, time=5),
    Message('note_on', channel=8, note=55, velocity=63, time=14),
    Message('note_on', channel=8, note=64, velocity=63, time=5),
    Message('note_on', channel=8, note=60, velocity=0, time=138),
    Message('note_on', channel=8, note=64, velocity=0, time=24),
    Message('note_on', channel=8, note=55, velocity=0, time=2),
    Message('note_on', channel=4, note=55, velocity=0, time=4),
    Message('note_on', channel=4, note=48, velocity=0, time=0),
    Message('note_on', channel=1, note=48, velocity=0, time=24),
    Message('note_on', channel=1, note=45, velocity=127, time=24),
    Message('note_on', channel=4, note=57, velocity=80, time=0),
    Message('note_on', channel=4, note=48, velocity=80, time=0),
    Message('note_on', channel=8, note=64, velocity=48, time=0),
    Message('note_on', channel=9, note=46, velocity=80, time=0),
    Message('note_on', channel=9, note=54, velocity=50, time=0),
    Message('note_on', channel=9, note=38, velocity=120, time=0),
    Message('note_on', channel=9, note=38, velocity=0, time=4),
    Message('note_on', channel=9, note=54, velocity=0, time=0),
    Message('note_on', channel=9, note=46, velocity=0, time=1),
    Message('note_on', channel=8, note=55, velocity=48, time=13),
    Message('note_on', channel=8, note=60, velocity=48, time=5),
    Message('note_on', channel=4, note=48, velocity=0, time=169),
    Message('note_on', channel=4, note=57, velocity=0, time=0),
    Message('note_on', channel=1, note=45, velocity=0, time=24),
    Message('note_on', channel=8, note=64, velocity=0, time=14),
    Message('note_on', channel=8, note=55, velocity=0, time=9),
    Message('note_on', channel=8, note=60, velocity=0, time=0),
    Message('note_on', channel=3, note=60, velocity=0, time=1),
    Message('note_on', channel=1, note=40, velocity=127, time=0),
    Message('note_on', channel=4, note=48, velocity=70, time=0),
    Message('note_on', channel=4, note=52, velocity=70, time=0),
    Message('note_on', channel=8, note=60, velocity=70, time=0),
    Message('note_on', channel=9, note=42, velocity=80, time=0),
    Message('note_on', channel=9, note=42, velocity=0, time=5),
    Message('note_on', channel=8, note=55, velocity=70, time=14),
    Message('note_on', channel=8, note=64, velocity=70, time=14),
    Message('note_on', channel=4, note=52, velocity=0, time=159),
    Message('note_on', channel=4, note=48, velocity=0, time=0),
    Message('note_on', channel=1, note=40, velocity=0, time=24),
    Message('note_on', channel=8, note=60, velocity=0, time=14),
    Message('note_on', channel=8, note=55, velocity=0, time=5),
    Message('note_on', channel=2, note=79, velocity=0, time=5),
    Message('note_on', channel=2, note=76, velocity=0, time=0),
    Message('note_on', channel=1, note=41, velocity=127, time=0),
    Message('note_on', channel=2, note=81, velocity=63, time=0),
    Message('note_on', channel=2, note=77, velocity=58, time=0),
    Message('note_on', channel=3, note=63, velocity=100, time=0),
    Message('note_on', channel=4, note=41, velocity=86, time=0),
    Message('note_on', channel=4, note=48, velocity=86, time=0),
    Message('note_on', channel=8, note=57, velocity=80, time=0),
    Message('note_on', channel=9, note=36, velocity=120, time=0),
    Message('note_on', channel=9, note=44, velocity=80, time=0),
    MetaMessage('lyrics', text='shi', time=0),
    Message('note_on', channel=9, note=36, velocity=0, time=4),
    Message('note_on', channel=8, note=64, velocity=0, time=0),
    Message('note_on', channel=9, note=44, velocity=0, time=1),
    Message('note_on', channel=8, note=60, velocity=80, time=11),
    Message('note_on', channel=8, note=65, velocity=80, time=7),
    Message('note_on', channel=4, note=48, velocity=0, time=169),
    Message('note_on', channel=4, note=41, velocity=0, time=0),
    Message('note_on', channel=1, note=41, velocity=0, time=24),
    Message('note_on', channel=1, note=41, velocity=127, time=24),
    Message('note_on', channel=4, note=41, velocity=69, time=0),
    Message('note_on', channel=4, note=48, velocity=69, time=0),
    Message('note_on', channel=9, note=42, velocity=80, time=0),
    Message('note_on', channel=9, note=42, velocity=0, time=5),
    Message('note_on', channel=4, note=48, velocity=0, time=187),
    Message('note_on', channel=4, note=41, velocity=0, time=0),
    Message('note_on', channel=8, note=65, velocity=0, time=18),
    Message('note_on', channel=1, note=41, velocity=0, time=6),
    Message('note_on', channel=8, note=57, velocity=0, time=5),
    Message('note_on', channel=8, note=60, velocity=0, time=16),
    Message('note_on', channel=3, note=63, velocity=0, time=3),
    Message('note_on', channel=3, note=62, velocity=100, time=0),
    Message('note_on', channel=4, note=41, velocity=83, time=0),
    Message('note_on', channel=4, note=50, velocity=83, time=0),
    Message('note_on', channel=9, note=44, velocity=80, time=0),
    Message('note_on', channel=9, note=54, velocity=50, time=0),
    Message('note_on', channel=9, note=38, velocity=120, time=0),
    MetaMessage('lyrics', text="nin' ", time=0),
    Message('note_on', channel=9, note=38, velocity=0, time=4),
    Message('note_on', channel=9, note=54, velocity=0, time=0),
    Message('note_on', channel=9, note=44, velocity=0, time=1),
    Message('note_on', channel=8, note=57, velocity=59, time=4),
    Message('note_on', channel=8, note=60, velocity=59, time=6),
    Message('note_on', channel=8, note=65, velocity=59, time=4),
    Message('note_on', channel=4, note=41, velocity=0, time=173),
    Message('note_on', channel=4, note=50, velocity=0, time=0),
    Message('note_on', channel=8, note=57, velocity=0, time=14),
    Message('note_on', channel=8, note=60, velocity=0, time=13),
    Message('note_on', channel=8, note=65, velocity=0, time=4),
    Message('note_on', channel=1, note=41, velocity=127, time=17),
    Message('note_on', channel=4, note=41, velocity=72, time=0),
    Message('note_on', channel=4, note=45, velocity=72, time=0),
    Message('note_on', channel=8, note=57, velocity=50, time=0),
    Message('note_on', channel=8, note=60, velocity=50, time=0),
    Message('note_on', channel=8, note=65, velocity=50, time=0),
    Message('note_on', channel=9, note=36, velocity=120, time=0),
    Message('note_on', channel=9, note=42, velocity=80, time=0),
    Message('note_on', channel=9, note=42, velocity=0, time=5),
    Message('note_on', channel=9, note=36, velocity=0, time=11),
    Message('note_on', channel=8, note=65, velocity=0, time=68),
    Message('note_on', channel=8, note=60, velocity=0, time=0),
    Message('note_on', channel=8, note=57, velocity=0, time=7),
    Message('note_on', channel=4, note=45, velocity=0, time=101),
    Message('note_on', channel=4, note=41, velocity=0, time=0),
    Message('note_on', channel=1, note=41, velocity=0, time=24),
    Message('note_on', channel=3, note=62, velocity=0, time=24),
    Message('note_on', channel=1, note=41, velocity=127, time=0),
    Message('note_on', channel=3, note=60, velocity=100, time=0),
    Message('note_on', channel=4, note=41, velocity=80, time=0),
    Message('note_on', channel=4, note=48, velocity=80, time=0),
    Message('note_on', channel=8, note=65, velocity=78, time=0),
    Message('note_on', channel=9, note=36, velocity=120, time=0),
    Message('note_on', channel=9, note=44, velocity=80, time=0),
    MetaMessage('lyrics', text='in ', time=0),
    Message('note_on', channel=9, note=36, velocity=0, time=4),
    Message('note_on', channel=9, note=44, velocity=0, time=1),
    Message('note_on', channel=8, note=57, velocity=78, time=5),
    Message('note_on', channel=8, note=60, velocity=78, time=18),
    Message('note_on', channel=4, note=48, velocity=0, time=164),
    Message('note_on', channel=4, note=41, velocity=0, time=0),
    Message('note_on', channel=1, note=41, velocity=0, time=24),
    Message('note_on', channel=8, note=65, velocity=0, time=14),
    Message('note_on', channel=8, note=60, velocity=0, time=5),
    Message('note_on', channel=8, note=57, velocity=0, time=5),
    Message('note_on', channel=1, note=41, velocity=127, time=0),
    Message('note_on', channel=4, note=41, velocity=71, time=0),
    Message('note_on', channel=4, note=48, velocity=71, time=0),
    Message('note_on', channel=8, note=60, velocity=63, time=0),
    Message('note_on', channel=9, note=42, velocity=80, time=0),
    Message('note_on', channel=9, note=42, velocity=0, time=5),
    Message('note_on', channel=8, note=57, velocity=63, time=14),
    Message('note_on', channel=8, note=65, velocity=63, time=5),
    Message('note_on', channel=8, note=60, velocity=0, time=138),
    Message('note_on', channel=8, note=65, velocity=0, time=24),
    Message('note_on', channel=8, note=57, velocity=0, time=2),
    Message('note_on', channel=4, note=48, velocity=0, time=4),
    Message('note_on', channel=4, note=41, velocity=0, time=0),
    Message('note_on', channel=1, note=41, velocity=0, time=24),
    Message('note_on', channel=3, note=60, velocity=0, time=24),
    Message('note_on', channel=3, note=60, velocity=100, time=0),
    Message('note_on', channel=4, note=41, velocity=86, time=0),
    Message('note_on', channel=4, note=50, velocity=86, time=0),
    Message('note_on', channel=8, note=65, velocity=48, time=0),
    Message('note_on', channel=9, note=44, velocity=80, time=0),
    Message('note_on', channel=9, note=54, velocity=50, time=0),
    Message('note_on', channel=9, note=38, velocity=120, time=0),
    MetaMessage('lyrics', text='the ', time=0),
    Message('note_on', channel=9, note=38, velocity=0, time=4),
    Message('note_on', channel=9, note=54, velocity=0, time=0),
    Message('note_on', channel=9, note=44, velocity=0, time=1),
    Message('note_on', channel=8, note=57, velocity=48, time=13),
    Message('note_on', channel=8, note=60, velocity=48, time=5),
    Message('note_on', channel=4, note=50, velocity=0, time=169),
    Message('note_on', channel=4, note=41, velocity=0, time=0),
    Message('note_on', channel=8, note=65, velocity=0, time=38),
    Message('note_on', channel=8, note=60, velocity=0, time=9),
    Message('note_on', channel=8, note=57, velocity=0, time=0),
    Message('note_on', channel=3, note=60, velocity=0, time=1),
    Message('note_on', channel=1, note=41, velocity=127, time=0),
    Message('note_on', channel=3, note=57, velocity=100, time=0),
    Message('note_on', channel=4, note=41, velocity=70, time=0),
    Message('note_on', channel=4, note=45, velocity=70, time=0),
    Message('note_on', channel=8, note=60, velocity=70, time=0),
    Message('note_on', channel=9, note=42, velocity=80, time=0),
    MetaMessage('lyrics', text='s', time=0),
    Message('note_on', channel=9, note=42, velocity=0, time=5),
    Message('note_on', channel=8, note=57, velocity=70, time=14),
    Message('note_on', channel=8, note=65, velocity=70, time=14),
    Message('note_on', channel=3, note=57, velocity=0, time=87),
    Message('note_on', channel=3, note=55, velocity=100, time=0),
    MetaMessage('lyrics', text='u', time=0),
    Message('note_on', channel=4, note=45, velocity=0, time=72),
    Message('note_on', channel=4, note=41, velocity=0, time=0),
    Message('note_on', channel=1, note=41, velocity=0, time=24),
    Message('note_on', channel=8, note=60, velocity=0, time=14),
    Message('note_on', channel=8, note=57, velocity=0, time=5),
    Message('note_on', channel=3, note=55, velocity=0, time=5),
    Message('note_on', channel=3, note=53, velocity=100, time=0),
    Message('note_on', channel=4, note=41, velocity=87, time=0),
    Message('note_on', channel=4, note=48, velocity=87, time=0),
    Message('note_on', channel=8, note=57, velocity=80, time=0),
    Message('note_on', channel=9, note=36, velocity=120, time=0),
    Message('note_on', channel=9, note=44, velocity=80, time=0),
    MetaMessage('lyrics', text='n, ', time=0),
    MetaMessage('lyrics', text='\r', time=0),
    Message('note_on', channel=9, note=36, velocity=0, time=4),
    Message('note_on', channel=8, note=65, velocity=0, time=0),
    Message('note_on', channel=9, note=44, velocity=0, time=1),
    Message('note_on', channel=8, note=60, velocity=80, time=11),
    Message('note_on', channel=8, note=65, velocity=80, time=7),
    Message('note_on', channel=3, note=53, velocity=0, time=97),
    Message('note_on', channel=4, note=48, velocity=0, time=72),
    Message('note_on', channel=4, note=41, velocity=0, time=0),
    Message('pitchwheel', channel=6, pitch=-8192, time=33),
    Message('pitchwheel', channel=13, pitch=-8192, time=0),
    Message('note_on', channel=1, note=41, velocity=127, time=15),
    Message('note_on', channel=4, note=48, velocity=72, time=0),
    Message('note_on', channel=4, note=41, velocity=72, time=0),
    Message('note_on', channel=6, note=60, velocity=100, time=0),
    Message('note_on', channel=9, note=42, velocity=80, time=0),
    Message('note_on', channel=13, note=60, velocity=100, time=0),
    Message('note_on', channel=9, note=42, velocity=0, time=5),
    Message('pitchwheel', channel=6, pitch=-8192, time=150),
    Message('pitchwheel', channel=13, pitch=-8192, time=0),
    Message('pitchwheel', channel=6, pitch=-7680, time=7),
    Message('pitchwheel', channel=13, pitch=-7680, time=0),
    Message('pitchwheel', channel=6, pitch=-7040, time=7),
    Message('pitchwheel', channel=13, pitch=-7040, time=0),
    Message('pitchwheel', channel=6, pitch=-6272, time=7),
    Message('pitchwheel', channel=13, pitch=-6272, time=0),
    Message('pitchwheel', channel=6, pitch=-5632, time=7),
    Message('pitchwheel', channel=13, pitch=-5632, time=0),
    Message('pitchwheel', channel=6, pitch=-4864, time=7),
    Message('pitchwheel', channel=13, pitch=-4864, time=0),
    Message('note_on', channel=4, note=41, velocity=0, time=2),
    Message('note_on', channel=4, note=48, velocity=0, time=0),
    Message('pitchwheel', channel=6, pitch=-4224, time=5),
    Message('pitchwheel', channel=13, pitch=-4224, time=0),
    Message('pitchwheel', channel=6, pitch=-3584, time=7),
    Message('pitchwheel', channel=13, pitch=-3584, time=0),
    Message('note_on', channel=8, note=65, velocity=0, time=6),
    Message('pitchwheel', channel=6, pitch=-2816, time=1),
    Message('pitchwheel', channel=13, pitch=-2816, time=0),
    Message('note_on', channel=1, note=41, velocity=0, time=5),
    Message('pitchwheel', channel=6, pitch=-2176, time=2),
    Message('pitchwheel', channel=13, pitch=-2176, time=0),
    Message('note_on', channel=8, note=57, velocity=0, time=3),
    Message('pitchwheel', channel=6, pitch=-1408, time=4),
    Message('pitchwheel', channel=13, pitch=-1408, time=0),
    Message('pitchwheel', channel=6, pitch=-768, time=7),
    Message('pitchwheel', channel=13, pitch=-768, time=0),
    Message('note_on', channel=8, note=60, velocity=0, time=5),
    Message('note_on', channel=4, note=41, velocity=82, time=3),
    Message('note_on', channel=4, note=50, velocity=82, time=0),
    Message('pitchwheel', channel=6, pitch=0, time=0),
    Message('note_on', channel=9, note=54, velocity=50, time=0),
    Message('note_on', channel=9, note=44, velocity=80, time=0),
    Message('note_on', channel=9, note=38, velocity=120, time=0),
    Message('pitchwheel', channel=13, pitch=0, time=0),
    Message('note_on', channel=9, note=38, velocity=0, time=4),
    Message('note_on', channel=9, note=54, velocity=0, time=0),
    Message('note_on', channel=9, note=44, velocity=0, time=1),
    Message('note_on', channel=8, note=57, velocity=59, time=4),
    Message('note_on', channel=8, note=60, velocity=59, time=6),
    Message('note_on', channel=8, note=65, velocity=59, time=4),
    Message('note_on', channel=4, note=50, velocity=0, time=173),
    Message('note_on', channel=4, note=41, velocity=0, time=0),
    Message('note_on', channel=8, note=57, velocity=0, time=14),
    Message('note_on', channel=8, note=60, velocity=0, time=13),
    Message('note_on', channel=8, note=65, velocity=0, time=4),
    Message('note_on', channel=6, note=60, velocity=0, time=17),
    Message('note_on', channel=13, note=60, velocity=0, time=0),
    Message('note_on', channel=1, note=41, velocity=127, time=0),
    Message('note_on', channel=4, note=45, velocity=70, time=0),
    Message('note_on', channel=4, note=41, velocity=70, time=0),
    Message('note_on', channel=6, note=69, velocity=100, time=0),
    Message('note_on', channel=7, note=60, velocity=120, time=0),
    Message('note_on', channel=8, note=60, velocity=50, time=0),
    Message('note_on', channel=8, note=57, velocity=50, time=0),
    Message('note_on', channel=8, note=65, velocity=50, time=0),
    Message('note_on', channel=9, note=42, velocity=80, time=0),
    Message('note_on', channel=13, note=69, velocity=100, time=0),
    Message('note_on', channel=9, note=42, velocity=0, time=5),
    Message('note_on', channel=8, note=60, velocity=0, time=79),
    Message('note_on', channel=8, note=65, velocity=0, time=0),
    Message('note_on', channel=8, note=57, velocity=0, time=7),
    Message('note_on', channel=4, note=41, velocity=0, time=101),
    Message('note_on', channel=4, note=45, velocity=0, time=0),
    Message('note_on', channel=1, note=41, velocity=0, time=24),
    Message('note_on', channel=1, note=43, velocity=127, time=24),
    Message('note_on', channel=4, note=41, velocity=82, time=0),
    Message('note_on', channel=4, note=48, velocity=82, time=0),
    Message('note_on', channel=8, note=65, velocity=78, time=0),
    Message('note_on', channel=9, note=36, velocity=120, time=0),
    Message('note_on', channel=9, note=44, velocity=80, time=0),
    Message('note_on', channel=9, note=36, velocity=0, time=4),
    Message('note_on', channel=9, note=44, velocity=0, time=1),
    Message('note_on', channel=8, note=57, velocity=78, time=5),
    Message('note_on', channel=8, note=60, velocity=78, time=18),
    Message('control_change', channel=13, control=1, value=93, time=56),
    Message('note_on', channel=4, note=48, velocity=0, time=108),
    Message('note_on', channel=4, note=41, velocity=0, time=0),
    Message('note_on', channel=1, note=43, velocity=0, time=24),
    Message('note_on', channel=8, note=65, velocity=0, time=14),
    Message('note_on', channel=8, note=60, velocity=0, time=5),
    Message('note_on', channel=8, note=57, velocity=0, time=5),
    Message('note_on', channel=7, note=60, velocity=0, time=0),
    Message('note_on', channel=1, note=43, velocity=127, time=0),
    Message('note_on', channel=4, note=41, velocity=70, time=0),
    Message('note_on', channel=4, note=48, velocity=70, time=0),
    Message('note_on', channel=8, note=60, velocity=63, time=0),
    Message('note_on', channel=9, note=42, velocity=80, time=0),
    Message('note_on', channel=9, note=36, velocity=120, time=0),
    Message('note_on', channel=9, note=36, velocity=0, time=4),
    Message('note_on', channel=9, note=42, velocity=0, time=1),
    Message('note_on', channel=8, note=57, velocity=63, time=14),
    Message('note_on', channel=8, note=65, velocity=63, time=5),
    Message('note_on', channel=8, note=60, velocity=0, time=138),
    Message('note_on', channel=8, note=65, velocity=0, time=24),
    Message('note_on', channel=8, note=57, velocity=0, time=2),
    Message('note_on', channel=4, note=48, velocity=0, time=4),
    Message('note_on', channel=4, note=41, velocity=0, time=0),
    Message('note_on', channel=1, note=43, velocity=0, time=24),
    Message('control_change', channel=13, control=1, value=0, time=9),
    Message('note_on', channel=6, note=69, velocity=0, time=15),
    Message('note_on', channel=13, note=69, velocity=0, time=0),
    Message('note_on', channel=1, note=45, velocity=127, time=0),
    Message('note_on', channel=4, note=50, velocity=80, time=0),
    Message('note_on', channel=4, note=41, velocity=80, time=0),
    Message('note_on', channel=6, note=60, velocity=100, time=0),
    Message('note_on', channel=8, note=65, velocity=48, time=0),
    Message('note_on', channel=9, note=54, velocity=50, time=0),
    Message('note_on', channel=9, note=46, velocity=80, time=0),
    Message('note_on', channel=9, note=38, velocity=120, time=0),
    Message('note_on', channel=13, note=60, velocity=100, time=0),
    Message('note_on', channel=9, note=38, velocity=0, time=4),
    Message('note_on', channel=9, note=54, velocity=0, time=0),
    Message('note_on', channel=9, note=46, velocity=0, time=1),
    Message('note_on', channel=8, note=57, velocity=48, time=13),
    Message('note_on', channel=8, note=60, velocity=48, time=5),
    Message('note_on', channel=4, note=41, velocity=0, time=169),
    Message('note_on', channel=4, note=50, velocity=0, time=0),
    Message('note_on', channel=1, note=45, velocity=0, time=24),
    Message('note_on', channel=8, note=65, velocity=0, time=14),
    Message('note_on', channel=8, note=60, velocity=0, time=9),
    Message('note_on', channel=8, note=57, velocity=0, time=0),
    Message('note_on', channel=13, note=60, velocity=0, time=1),
    Message('note_on', channel=6, note=60, velocity=0, time=0),
    Message('note_on', channel=1, note=45, velocity=127, time=0),
    Message('note_on', channel=4, note=41, velocity=70, time=0),
    Message('note_on', channel=4, note=45, velocity=70, time=0),
    Message('note_on', channel=6, note=67, velocity=100, time=0),
    Message('note_on', channel=7, note=60, velocity=120, time=0),
    Message('note_on', channel=8, note=60, velocity=70, time=0),
    Message('note_on', channel=9, note=42, velocity=80, time=0),
    Message('note_on', channel=13, note=67, velocity=100, time=0),
    Message('note_on', channel=9, note=42, velocity=0, time=5),
    Message('note_on', channel=8, note=57, velocity=70, time=14),
    Message('note_on', channel=8, note=65, velocity=70, time=14),
    Message('note_on', channel=4, note=45, velocity=0, time=159),
    Message('note_on', channel=4, note=41, velocity=0, time=0),
    Message('note_on', channel=1, note=45, velocity=0, time=24),
    Message('note_on', channel=8, note=60, velocity=0, time=14),
    Message('note_on', channel=8, note=57, velocity=0, time=5),
    Message('note_on', channel=2, note=81, velocity=0, time=5),
    Message('note_on', channel=2, note=77, velocity=0, time=0),
    Message('note_on', channel=1, note=48, velocity=127, time=0),
    Message('note_on', channel=2, note=76, velocity=53, time=0),
    Message('note_on', channel=2, note=79, velocity=55, time=0),
    Message('note_on', channel=4, note=55, velocity=86, time=0),
    Message('note_on', channel=4, note=48, velocity=86, time=0),
    Message('note_on', channel=8, note=55, velocity=80, time=0),
    Message('note_on', channel=9, note=36, velocity=120, time=0),
    Message('note_on', channel=9, note=44, velocity=80, time=0),
    Message('note_on', channel=9, note=36, velocity=0, time=4),
    Message('note_on', channel=8, note=65, velocity=0, time=0),
    Message('note_on', channel=9, note=44, velocity=0, time=1),
    Message('note_on', channel=8, note=60, velocity=80, time=11),
    Message('note_on', channel=8, note=64, velocity=80, time=7),
    Message('note_on', channel=4, note=48, velocity=0, time=169),
    Message('note_on', channel=4, note=55, velocity=0, time=0),
    Message('note_on', channel=1, note=48, velocity=0, time=24),
    Message('note_on', channel=1, note=48, velocity=127, time=24),
    Message('note_on', channel=4, note=55, velocity=69, time=0),
    Message('note_on', channel=4, note=48, velocity=69, time=0),
    Message('note_on', channel=9, note=42, velocity=80, time=0),
    Message('note_on', channel=9, note=42, velocity=0, time=5),
    Message('control_change', channel=13, control=1, value=44, time=171),
    Message('note_on', channel=4, note=48, velocity=0, time=16),
    Message('note_on', channel=4, note=55, velocity=0, time=0),
    Message('note_on', channel=8, note=64, velocity=0, time=18),
    Message('note_on', channel=1, note=48, velocity=0, time=6),
    Message('note_on', channel=8, note=55, velocity=0, time=5),
    Message('note_on', channel=8, note=60, velocity=0, time=16),
    Message('note_on', channel=3, note=64, velocity=100, time=3),
    Message('note_on', channel=4, note=48, velocity=83, time=0),
    Message('note_on', channel=4, note=57, velocity=83, time=0),
    Message('note_on', channel=5, note=67, velocity=80, time=0),
    Message('note_on', channel=5, note=60, velocity=80, time=0),
    Message('note_on', channel=5, note=64, velocity=80, time=0),
    Message('note_on', channel=9, note=44, velocity=80, time=0),
    Message('note_on', channel=9, note=54, velocity=50, time=0),
    Message('note_on', channel=9, note=38, velocity=120, time=0),
    MetaMessage('lyrics', text="i'll ", time=0),
    Message('note_on', channel=9, note=38, velocity=0, time=4),
    Message('note_on', channel=9, note=54, velocity=0, time=0),
    Message('note_on', channel=9, note=44, velocity=0, time=1),
    Message('note_on', channel=8, note=55, velocity=59, time=4),
    Message('note_on', channel=8, note=60, velocity=59, time=6),
    Message('note_on', channel=8, note=64, velocity=59, time=4),
    Message('note_on', channel=4, note=48, velocity=0, time=173),
    Message('note_on', channel=4, note=57, velocity=0, time=0),
    Message('note_on', channel=8, note=55, velocity=0, time=14),
    Message('note_on', channel=8, note=60, velocity=0, time=13),
    Message('note_on', channel=8, note=64, velocity=0, time=4),
    Message('note_on', channel=5, note=67, velocity=0, time=17),
    Message('note_on', channel=3, note=64, velocity=0, time=0),
    Message('note_on', channel=5, note=60, velocity=0, time=0),
    Message('note_on', channel=5, note=64, velocity=0, time=0),
    Message('note_on', channel=1, note=48, velocity=127, time=0),
    Message('note_on', channel=3, note=64, velocity=100, time=0),
    Message('note_on', channel=4, note=48, velocity=72, time=0),
    Message('note_on', channel=4, note=52, velocity=72, time=0),
    Message('note_on', channel=5, note=67, velocity=80, time=0),
    Message('note_on', channel=5, note=64, velocity=80, time=0),
    Message('note_on', channel=5, note=60, velocity=80, time=0),
    Message('note_on', channel=8, note=55, velocity=50, time=0),
    Message('note_on', channel=8, note=60, velocity=50, time=0),
    Message('note_on', channel=8, note=64, velocity=50, time=0),
    Message('note_on', channel=9, note=36, velocity=120, time=0),
    Message('note_on', channel=9, note=42, velocity=80, time=0),
    MetaMessage('lyrics', text='be ', time=0),
    Message('note_on', channel=9, note=42, velocity=0, time=5),
    Message('note_on', channel=9, note=36, velocity=0, time=11),
    Message('control_change', channel=13, control=1, value=87, time=19),
    Message('note_on', channel=8, note=64, velocity=0, time=49),
    Message('note_on', channel=8, note=60, velocity=0, time=0),
    Message('note_on', channel=8, note=55, velocity=0, time=7),
    Message('note_on', channel=4, note=48, velocity=0, time=101),
    Message('note_on', channel=4, note=52, velocity=0, time=0),
    Message('note_on', channel=1, note=48, velocity=0, time=24),
    Message('note_on', channel=3, note=64, velocity=0, time=24),
    Message('note_on', channel=5, note=67, velocity=0, time=0),
    Message('note_on', channel=5, note=64, velocity=0, time=0),
    Message('note_on', channel=5, note=60, velocity=0, time=0),
    Message('note_on', channel=1, note=48, velocity=127, time=0),
    Message('note_on', channel=3, note=64, velocity=100, time=0),
    Message('note_on', channel=4, note=55, velocity=80, time=0),
    Message('note_on', channel=4, note=48, velocity=80, time=0),
    Message('note_on', channel=5, note=64, velocity=80, time=0),
    Message('note_on', channel=5, note=60, velocity=80, time=0),
    Message('note_on', channel=5, note=67, velocity=80, time=0),
    Message('note_on', channel=8, note=64, velocity=78, time=0),
    Message('note_on', channel=9, note=44, velocity=80, time=0),
    Message('note_on', channel=9, note=36, velocity=120, time=0),
    MetaMessage('lyrics', text='do', time=0),
    Message('note_on', channel=9, note=36, velocity=0, time=4),
    Message('note_on', channel=9, note=44, velocity=0, time=1),
    Message('note_on', channel=8, note=55, velocity=78, time=5),
    Message('note_on', channel=8, note=60, velocity=78, time=18),
    Message('note_on', channel=4, note=55, velocity=0, time=164),
    Message('note_on', channel=4, note=48, velocity=0, time=0),
    Message('note_on', channel=1, note=48, velocity=0, time=24),
    Message('note_on', channel=8, note=64, velocity=0, time=14),
    Message('note_on', channel=8, note=60, velocity=0, time=5),
    Message('note_on', channel=3, note=64, velocity=0, time=5),
    Message('note_on', channel=5, note=67, velocity=0, time=0),
    Message('note_on', channel=5, note=64, velocity=0, time=0),
    Message('note_on', channel=5, note=60, velocity=0, time=0),
    Message('note_on', channel=8, note=55, velocity=0, time=0),
    Message('note_on', channel=1, note=48, velocity=127, time=0),
    Message('note_on', channel=3, note=64, velocity=100, time=0),
    Message('note_on', channel=4, note=55, velocity=71, time=0),
    Message('note_on', channel=4, note=48, velocity=71, time=0),
    Message('note_on', channel=5, note=67, velocity=80, time=0),
    Message('note_on', channel=5, note=60, velocity=80, time=0),
    Message('note_on', channel=5, note=64, velocity=80, time=0),
    Message('note_on', channel=8, note=60, velocity=63, time=0),
    Message('note_on', channel=9, note=42, velocity=80, time=0),
    MetaMessage('lyrics', text="in', ", time=0),
    Message('note_on', channel=9, note=42, velocity=0, time=5),
    Message('note_on', channel=8, note=55, velocity=63, time=14),
    Message('note_on', channel=8, note=64, velocity=63, time=5),
    Message('control_change', channel=13, control=1, value=94, time=81),
    Message('note_on', channel=8, note=60, velocity=0, time=57),
    Message('note_on', channel=8, note=64, velocity=0, time=24),
    Message('note_on', channel=8, note=55, velocity=0, time=2),
    Message('note_on', channel=4, note=55, velocity=0, time=4),
    Message('note_on', channel=4, note=48, velocity=0, time=0),
    Message('note_on', channel=1, note=48, velocity=0, time=24),
    Message('note_on', channel=1, note=45, velocity=127, time=24),
    Message('note_on', channel=4, note=48, velocity=86, time=0),
    Message('note_on', channel=4, note=57, velocity=86, time=0),
    Message('note_on', channel=8, note=64, velocity=48, time=0),
    Message('note_on', channel=9, note=44, velocity=80, time=0),
    Message('note_on', channel=9, note=54, velocity=50, time=0),
    Message('note_on', channel=9, note=38, velocity=120, time=0),
    Message('note_on', channel=9, note=38, velocity=0, time=4),
    Message('note_on', channel=9, note=54, velocity=0, time=0),
    Message('note_on', channel=9, note=44, velocity=0, time=1),
    Message('note_on', channel=8, note=55, velocity=48, time=13),
    Message('note_on', channel=8, note=60, velocity=48, time=5),
    Message('note_on', channel=4, note=57, velocity=0, time=169),
    Message('note_on', channel=4, note=48, velocity=0, time=0),
    Message('note_on', channel=1, note=45, velocity=0, time=24),
    Message('note_on', channel=8, note=64, velocity=0, time=14),
    Message('note_on', channel=8, note=60, velocity=0, time=9),
    Message('note_on', channel=8, note=55, velocity=0, time=0),
    Message('note_on', channel=3, note=64, velocity=0, time=1),
    Message('note_on', channel=5, note=67, velocity=0, time=0),
    Message('note_on', channel=5, note=60, velocity=0, time=0),
    Message('note_on', channel=5, note=64, velocity=0, time=0),
    Message('note_on', channel=1, note=48, velocity=127, time=0),
    Message('note_on', channel=3, note=62, velocity=100, time=0),
    Message('note_on', channel=4, note=52, velocity=70, time=0),
    Message('note_on', channel=4, note=48, velocity=70, time=0),
    Message('note_on', channel=5, note=67, velocity=80, time=0),
    Message('note_on', channel=5, note=62, velocity=80, time=0),
    Message('note_on', channel=5, note=59, velocity=80, time=0),
    Message('note_on', channel=8, note=60, velocity=70, time=0),
    Message('note_on', channel=9, note=36, velocity=120, time=0),
    Message('note_on', channel=9, note=42, velocity=80, time=0),
    MetaMessage('lyrics', text='fine ', time=0),
    Message('note_on', channel=9, note=36, velocity=0, time=4),
    Message('note_on', channel=9, note=42, velocity=0, time=1),
    Message('note_on', channel=8, note=55, velocity=70, time=14),
    Message('note_on', channel=8, note=64, velocity=70, time=14),
    Message('control_change', channel=13, control=1, value=0, time=58),
    Message('note_on', channel=13, note=67, velocity=0, time=85),
    Message('note_on', channel=6, note=67, velocity=0, time=0),
    Message('note_on', channel=4, note=48, velocity=0, time=16),
    Message('note_on', channel=4, note=52, velocity=0, time=0),
    Message('note_on', channel=1, note=48, velocity=0, time=24),
    Message('note_on', channel=8, note=60, velocity=0, time=14),
    Message('note_on', channel=8, note=55, velocity=0, time=5),
    Message('note_on', channel=2, note=76, velocity=0, time=5),
    Message('note_on', channel=2, note=72, velocity=0, time=0),
    Message('note_on', channel=7, note=60, velocity=0, time=0),
    Message('note_on', channel=1, note=43, velocity=127, time=0),
    Message('note_on', channel=2, note=71, velocity=70, time=0),
    Message('note_on', channel=2, note=74, velocity=50, time=0),
    Message('note_on', channel=4, note=50, velocity=87, time=0),
    Message('note_on', channel=4, note=43, velocity=87, time=0),
    Message('note_on', channel=8, note=55, velocity=80, time=0),
    Message('note_on', channel=9, note=44, velocity=80, time=0),
    Message('note_on', channel=9, note=36, velocity=120, time=0),
    Message('note_on', channel=9, note=36, velocity=0, time=4),
    Message('note_on', channel=8, note=64, velocity=0, time=0),
    Message('note_on', channel=9, note=44, velocity=0, time=1),
    Message('note_on', channel=8, note=59, velocity=80, time=11),
    Message('note_on', channel=8, note=62, velocity=80, time=7),
    Message('note_on', channel=4, note=43, velocity=0, time=169),
    Message('note_on', channel=4, note=50, velocity=0, time=0),
    Message('note_on', channel=1, note=43, velocity=0, time=24),
    Message('note_on', channel=1, note=43, velocity=127, time=24),
    Message('note_on', channel=4, note=50, velocity=72, time=0),
    Message('note_on', channel=4, note=43, velocity=72, time=0),
    Message('note_on', channel=9, note=42, velocity=80, time=0),
    Message('note_on', channel=9, note=42, velocity=0, time=5),
    Message('note_on', channel=4, note=43, velocity=0, time=187),
    Message('note_on', channel=4, note=50, velocity=0, time=0),
    Message('note_on', channel=8, note=62, velocity=0, time=18),
    Message('note_on', channel=1, note=43, velocity=0, time=6),
    Message('note_on', channel=8, note=55, velocity=0, time=5),
    Message('note_on', channel=8, note=59, velocity=0, time=16),
    Message('note_on', channel=3, note=62, velocity=0, time=3),
    Message('note_on', channel=5, note=59, velocity=0, time=0),
    Message('note_on', channel=5, note=67, velocity=0, time=0),
    Message('note_on', channel=5, note=62, velocity=0, time=0),
    Message('note_on', channel=3, note=64, velocity=100, time=0),
    Message('note_on', channel=4, note=43, velocity=82, time=0),
    Message('note_on', channel=4, note=52, velocity=82, time=0),
    Message('note_on', channel=5, note=60, velocity=80, time=0),
    Message('note_on', channel=5, note=67, velocity=80, time=0),
    Message('note_on', channel=5, note=64, velocity=80, time=0),
    Message('note_on', channel=9, note=54, velocity=50, time=0),
    Message('note_on', channel=9, note=44, velocity=80, time=0),
    Message('note_on', channel=9, note=38, velocity=120, time=0),
    MetaMessage('lyrics', text='and, ', time=0),
    Message('note_on', channel=9, note=38, velocity=0, time=4),
    Message('note_on', channel=9, note=54, velocity=0, time=0),
    Message('note_on', channel=9, note=44, velocity=0, time=1),
    Message('note_on', channel=8, note=55, velocity=59, time=4),
    Message('note_on', channel=8, note=59, velocity=59, time=6),
    Message('note_on', channel=8, note=62, velocity=59, time=4),
    Message('note_on', channel=4, note=52, velocity=0, time=173),
    Message('note_on', channel=4, note=43, velocity=0, time=0),
    Message('note_on', channel=8, note=55, velocity=0, time=14),
    Message('note_on', channel=8, note=59, velocity=0, time=13),
    Message('note_on', channel=8, note=62, velocity=0, time=4),
    Message('note_on', channel=5, note=64, velocity=0, time=17),
    Message('note_on', channel=3, note=64, velocity=0, time=0),
    Message('note_on', channel=5, note=67, velocity=0, time=0),
    Message('note_on', channel=5, note=60, velocity=0, time=0),
    Message('note_on', channel=1, note=43, velocity=127, time=0),
    Message('note_on', channel=3, note=62, velocity=100, time=0),
    Message('note_on', channel=4, note=47, velocity=70, time=0),
    Message('note_on', channel=4, note=43, velocity=70, time=0),
    Message('note_on', channel=5, note=67, velocity=80, time=0),
    Message('note_on', channel=5, note=59, velocity=80, time=0),
    Message('note_on', channel=5, note=62, velocity=80, time=0),
    Message('note_on', channel=8, note=59, velocity=50, time=0),
    Message('note_on', channel=8, note=55, velocity=50, time=0),
    Message('note_on', channel=8, note=62, velocity=50, time=0),
    Message('note_on', channel=9, note=36, velocity=120, time=0),
    Message('note_on', channel=9, note=42, velocity=80, time=0),
    MetaMessage('lyrics', text='then ', time=0),
    Message('note_on', channel=9, note=36, velocity=0, time=4),
    Message('note_on', channel=9, note=42, velocity=0, time=1),
    Message('note_on', channel=8, note=59, velocity=0, time=79),
    Message('note_on', channel=8, note=62, velocity=0, time=0),
    Message('note_on', channel=8, note=55, velocity=0, time=7),
    Message('note_on', channel=4, note=43, velocity=0, time=101),
    Message('note_on', channel=4, note=47, velocity=0, time=0),
    Message('note_on', channel=1, note=43, velocity=0, time=24),
    Message('note_on', channel=1, note=43, velocity=127, time=24),
    Message('note_on', channel=4, note=50, velocity=82, time=0),
    Message('note_on', channel=4, note=43, velocity=82, time=0),
    Message('note_on', channel=8, note=62, velocity=78, time=0),
    Message('note_on', channel=9, note=44, velocity=80, time=0),
    Message('note_on', channel=9, note=36, velocity=120, time=0),
    Message('note_on', channel=9, note=36, velocity=0, time=4),
    Message('note_on', channel=9, note=44, velocity=0, time=1),
    Message('note_on', channel=8, note=55, velocity=78, time=5),
    Message('note_on', channel=8, note=59, velocity=78, time=18),
    Message('note_on', channel=4, note=50, velocity=0, time=164),
    Message('note_on', channel=4, note=43, velocity=0, time=0),
    Message('note_on', channel=1, note=43, velocity=0, time=24),
    Message('note_on', channel=8, note=62, velocity=0, time=14),
    Message('note_on', channel=8, note=59, velocity=0, time=5),
    Message('note_on', channel=5, note=59, velocity=0, time=5),
    Message('note_on', channel=5, note=67, velocity=0, time=0),
    Message('note_on', channel=3, note=62, velocity=0, time=0),
    Message('note_on', channel=8, note=55, velocity=0, time=0),
    Message('note_on', channel=5, note=62, velocity=0, time=0),
    Message('note_on', channel=1, note=43, velocity=127, time=0),
    Message('note_on', channel=3, note=60, velocity=100, time=0),
    Message('note_on', channel=4, note=43, velocity=70, time=0),
    Message('note_on', channel=4, note=50, velocity=70, time=0),
    Message('note_on', channel=5, note=60, velocity=80, time=0),
    Message('note_on', channel=5, note=64, velocity=80, time=0),
    Message('note_on', channel=5, note=55, velocity=80, time=0),
    Message('note_on', channel=8, note=59, velocity=63, time=0),
    Message('note_on', channel=9, note=42, velocity=80, time=0),
    MetaMessage('lyrics', text='some. ', time=0),
    MetaMessage('lyrics', text='\r', time=0),
    MetaMessage('lyrics', text='\n', time=0),
    Message('note_on', channel=9, note=42, velocity=0, time=5),
    Message('note_on', channel=8, note=55, velocity=63, time=14),
    Message('note_on', channel=8, note=62, velocity=63, time=5),
    Message('note_on', channel=8, note=59, velocity=0, time=138),
    Message('note_on', channel=8, note=62, velocity=0, time=24),
    Message('note_on', channel=8, note=55, velocity=0, time=2),
    Message('note_on', channel=4, note=50, velocity=0, time=4),
    Message('note_on', channel=4, note=43, velocity=0, time=0),
    Message('note_on', channel=1, note=43, velocity=0, time=24),
    Message('note_on', channel=1, note=45, velocity=127, time=24),
    Message('note_on', channel=4, note=52, velocity=80, time=0),
    Message('note_on', channel=4, note=43, velocity=80, time=0),
    Message('note_on', channel=8, note=62, velocity=48, time=0),
    Message('note_on', channel=9, note=44, velocity=80, time=0),
    Message('note_on', channel=9, note=54, velocity=50, time=0),
    Message('note_on', channel=9, note=38, velocity=120, time=0),
    Message('note_on', channel=9, note=38, velocity=0, time=4),
    Message('note_on', channel=9, note=54, velocity=0, time=0),
    Message('note_on', channel=9, note=44, velocity=0, time=1),
    Message('note_on', channel=8, note=55, velocity=48, time=13),
    Message('note_on', channel=8, note=59, velocity=48, time=5),
    Message('note_on', channel=4, note=52, velocity=0, time=169),
    Message('note_on', channel=4, note=43, velocity=0, time=0),
    Message('note_on', channel=1, note=45, velocity=0, time=24),
    Message('note_on', channel=8, note=62, velocity=0, time=14),
    Message('note_on', channel=8, note=55, velocity=0, time=9),
    Message('note_on', channel=8, note=59, velocity=0, time=0),
    Message('note_on', channel=1, note=47, velocity=127, time=1),
    Message('note_on', channel=4, note=47, velocity=70, time=0),
    Message('note_on', channel=4, note=43, velocity=70, time=0),
    Message('note_on', channel=8, note=59, velocity=70, time=0),
    Message('note_on', channel=9, note=42, velocity=80, time=0),
    Message('note_on', channel=9, note=42, velocity=0, time=5),
    Message('note_on', channel=8, note=55, velocity=70, time=14),
    Message('note_on', channel=8, note=62, velocity=70, time=14),
    Message('note_on', channel=4, note=47, velocity=0, time=159),
    Message('note_on', channel=4, note=43, velocity=0, time=0),
    Message('note_on', channel=3, note=60, velocity=0, time=21),
    Message('note_on', channel=1, note=47, velocity=0, time=3),
    Message('note_on', channel=8, note=59, velocity=0, time=14),
    Message('note_on', channel=8, note=55, velocity=0, time=5),
    Message('note_on', channel=5, note=60, velocity=0, time=5),
    Message('note_on', channel=2, note=71, velocity=0, time=0),
    Message('note_on', channel=5, note=64, velocity=0, time=0),
    Message('note_on', channel=5, note=55, velocity=0, time=0),
    Message('note_on', channel=2, note=74, velocity=0, time=0),
    Message('note_on', channel=1, note=48, velocity=127, time=0),
    Message('note_on', channel=2, note=76, velocity=75, time=0),
    Message('note_on', channel=2, note=72, velocity=67, time=0),
    Message('note_on', channel=4, note=55, velocity=86, time=0),
    Message('note_on', channel=4, note=48, velocity=86, time=0),
    Message('note_on', channel=8, note=55, velocity=80, time=0),
    Message('note_on', channel=9, note=36, velocity=120, time=0),
    Message('note_on', channel=9, note=44, velocity=80, time=0),
    Message('note_on', channel=9, note=36, velocity=0, time=4),
    Message('note_on', channel=8, note=62, velocity=0, time=0),
    Message('note_on', channel=9, note=44, velocity=0, time=1),
    Message('note_on', channel=8, note=60, velocity=80, time=11),
    Message('note_on', channel=8, note=64, velocity=80, time=7),
    Message('note_on', channel=4, note=48, velocity=0, time=169),
    Message('note_on', channel=4, note=55, velocity=0, time=0),
    Message('pitchwheel', channel=6, pitch=-8064, time=19),
    Message('pitchwheel', channel=13, pitch=-8064, time=0),
    Message('note_on', channel=1, note=48, velocity=0, time=5),
    Message('note_on', channel=1, note=48, velocity=127, time=24),
    Message('note_on', channel=4, note=55, velocity=69, time=0),
    Message('note_on', channel=4, note=48, velocity=69, time=0),
    Message('note_on', channel=6, note=64, velocity=100, time=0),
    Message('note_on', channel=7, note=67, velocity=120, time=0),
    Message('note_on', channel=9, note=42, velocity=80, time=0),
    Message('note_on', channel=13, note=64, velocity=100, time=0),
    Message('note_on', channel=9, note=42, velocity=0, time=5),
    Message('pitchwheel', channel=6, pitch=-7936, time=107),
    Message('pitchwheel', channel=13, pitch=-7936, time=0),
    Message('pitchwheel', channel=6, pitch=-7552, time=8),
    Message('pitchwheel', channel=13, pitch=-7552, time=0),
    Message('pitchwheel', channel=6, pitch=-7168, time=7),
    Message('pitchwheel', channel=13, pitch=-7168, time=0),
    Message('pitchwheel', channel=6, pitch=-6784, time=7),
    Message('pitchwheel', channel=13, pitch=-6784, time=0),
    Message('pitchwheel', channel=6, pitch=-6272, time=7),
    Message('pitchwheel', channel=13, pitch=-6272, time=0),
    Message('pitchwheel', channel=6, pitch=-5888, time=7),
    Message('pitchwheel', channel=13, pitch=-5888, time=0),
    Message('pitchwheel', channel=6, pitch=-5504, time=7),
    Message('pitchwheel', channel=13, pitch=-5504, time=0),
    Message('pitchwheel', channel=6, pitch=-5120, time=7),
    Message('pitchwheel', channel=13, pitch=-5120, time=0),
    Message('pitchwheel', channel=6, pitch=-4608, time=7),
    Message('pitchwheel', channel=13, pitch=-4608, time=0),
    Message('pitchwheel', channel=6, pitch=-4224, time=7),
    Message('pitchwheel', channel=13, pitch=-4224, time=0),
    Message('pitchwheel', channel=6, pitch=-3840, time=7),
    Message('pitchwheel', channel=13, pitch=-3840, time=0),
    Message('pitchwheel', channel=6, pitch=-3456, time=7),
    Message('pitchwheel', channel=13, pitch=-3456, time=0),
    Message('note_on', channel=4, note=55, velocity=0, time=2),
    Message('note_on', channel=4, note=48, velocity=0, time=0),
    Message('pitchwheel', channel=6, pitch=-2944, time=5),
    Message('pitchwheel', channel=13, pitch=-2944, time=0),
    Message('pitchwheel', channel=6, pitch=-2560, time=7),
    Message('pitchwheel', channel=13, pitch=-2560, time=0),
    Message('note_on', channel=8, note=64, velocity=0, time=6),
    Message('pitchwheel', channel=6, pitch=-2176, time=1),
    Message('pitchwheel', channel=13, pitch=-2176, time=0),
    Message('note_on', channel=1, note=48, velocity=0, time=5),
    Message('pitchwheel', channel=6, pitch=-1792, time=2),
    Message('pitchwheel', channel=13, pitch=-1792, time=0),
    Message('note_on', channel=8, note=55, velocity=0, time=3),
    Message('pitchwheel', channel=6, pitch=-1280, time=4),
    Message('pitchwheel', channel=13, pitch=-1280, time=0),
    Message('note_on', channel=7, note=67, velocity=0, time=1),
    Message('pitchwheel', channel=6, pitch=-896, time=6),
    Message('pitchwheel', channel=13, pitch=-896, time=0),
    Message('note_on', channel=8, note=60, velocity=0, time=5),
    Message('note_on', channel=4, note=48, velocity=83, time=3),
    Message('note_on', channel=4, note=57, velocity=83, time=0),
    Message('pitchwheel', channel=6, pitch=-512, time=0),
    Message('note_on', channel=7, note=67, velocity=120, time=0),
    Message('note_on', channel=9, note=54, velocity=50, time=0),
    Message('note_on', channel=9, note=44, velocity=80, time=0),
    Message('note_on', channel=9, note=38, velocity=120, time=0),
    Message('pitchwheel', channel=13, pitch=-512, time=0),
    Message('note_on', channel=9, note=38, velocity=0, time=4),
    Message('note_on', channel=9, note=54, velocity=0, time=0),
    Message('note_on', channel=9, note=44, velocity=0, time=1),
    Message('pitchwheel', channel=6, pitch=0, time=2),
    Message('pitchwheel', channel=13, pitch=0, time=0),
    Message('note_on', channel=8, note=55, velocity=59, time=2),
    Message('note_on', channel=8, note=60, velocity=59, time=6),
    Message('note_on', channel=8, note=64, velocity=59, time=4),
    Message('note_on', channel=4, note=57, velocity=0, time=173),
    Message('note_on', channel=4, note=48, velocity=0, time=0),
    Message('note_on', channel=8, note=55, velocity=0, time=14),
    Message('note_on', channel=13, note=64, velocity=0, time=12),
    Message('note_on', channel=8, note=60, velocity=0, time=1),
    Message('note_on', channel=8, note=64, velocity=0, time=4),
    Message('note_on', channel=7, note=67, velocity=0, time=3),
    Message('note_on', channel=6, note=64, velocity=0, time=14),
    Message('note_on', channel=1, note=48, velocity=127, time=0),
    Message('note_on', channel=4, note=48, velocity=72, time=0),
    Message('note_on', channel=4, note=52, velocity=72, time=0),
    Message('note_on', channel=6, note=64, velocity=100, time=0),
    Message('note_on', channel=7, note=67, velocity=120, time=0),
    Message('note_on', channel=8, note=64, velocity=50, time=0),
    Message('note_on', channel=8, note=60, velocity=50, time=0),
    Message('note_on', channel=8, note=55, velocity=50, time=0),
    Message('note_on', channel=9, note=36, velocity=120, time=0),
    Message('note_on', channel=9, note=42, velocity=80, time=0),
    Message('note_on', channel=13, note=64, velocity=100, time=0),
    Message('note_on', channel=9, note=36, velocity=0, time=4),
    Message('note_on', channel=9, note=42, velocity=0, time=1),
    Message('note_on', channel=8, note=64, velocity=0, time=79),
    Message('note_on', channel=8, note=60, velocity=0, time=0),
    Message('note_on', channel=8, note=55, velocity=0, time=7),
    Message('note_on', channel=4, note=52, velocity=0, time=101),
    Message('note_on', channel=4, note=48, velocity=0, time=0),
    Message('note_on', channel=6, note=64, velocity=0, time=19),
    Message('note_on', channel=13, note=64, velocity=0, time=0),
    Message('note_on', channel=1, note=48, velocity=0, time=5),
    Message('note_on', channel=7, note=67, velocity=0, time=10),
    Message('note_on', channel=1, note=48, velocity=127, time=14),
    Message('note_on', channel=4, note=55, velocity=80, time=0),
    Message('note_on', channel=4, note=48, velocity=80, time=0),
    Message('note_on', channel=6, note=62, velocity=100, time=0),
    Message('note_on', channel=7, note=67, velocity=120, time=0),
    Message('note_on', channel=8, note=64, velocity=78, time=0),
    Message('note_on', channel=9, note=36, velocity=120, time=0),
    Message('note_on', channel=9, note=44, velocity=80, time=0),
    Message('note_on', channel=13, note=62, velocity=100, time=0),
    Message('note_on', channel=9, note=36, velocity=0, time=4),
    Message('note_on', channel=9, note=44, velocity=0, time=1),
    Message('note_on', channel=8, note=55, velocity=78, time=5),
    Message('note_on', channel=8, note=60, velocity=78, time=18),
    Message('note_on', channel=4, note=48, velocity=0, time=164),
    Message('note_on', channel=4, note=55, velocity=0, time=0),
    Message('note_on', channel=1, note=48, velocity=0, time=24),
    Message('note_on', channel=7, note=67, velocity=0, time=10),
    Message('note_on', channel=8, note=64, velocity=0, time=4),
    Message('note_on', channel=8, note=60, velocity=0, time=5),
    Message('note_on', channel=6, note=62, velocity=0, time=5),
    Message('note_on', channel=8, note=55, velocity=0, time=0),
    Message('note_on', channel=13, note=62, velocity=0, time=0),
    Message('note_on', channel=1, note=48, velocity=127, time=0),
    Message('note_on', channel=4, note=48, velocity=71, time=0),
    Message('note_on', channel=4, note=55, velocity=71, time=0),
    Message('note_on', channel=6, note=60, velocity=100, time=0),
    Message('note_on', channel=7, note=67, velocity=120, time=0),
    Message('note_on', channel=8, note=60, velocity=63, time=0),
    Message('note_on', channel=9, note=42, velocity=80, time=0),
    Message('note_on', channel=13, note=60, velocity=100, time=0),
    Message('note_on', channel=9, note=42, velocity=0, time=5),
    Message('note_on', channel=8, note=55, velocity=63, time=14),
    Message('note_on', channel=8, note=64, velocity=63, time=5),
    Message('note_on', channel=8, note=60, velocity=0, time=138),
    Message('note_on', channel=8, note=64, velocity=0, time=24),
    Message('note_on', channel=8, note=55, velocity=0, time=2),
    Message('note_on', channel=4, note=55, velocity=0, time=4),
    Message('note_on', channel=4, note=48, velocity=0, time=0),
    Message('note_on', channel=1, note=48, velocity=0, time=24),
    Message('note_on', channel=7, note=67, velocity=0, time=10),
    Message('note_on', channel=13, note=60, velocity=0, time=14),
    Message('note_on', channel=6, note=60, velocity=0, time=0),
    Message('note_on', channel=4, note=57, velocity=86, time=0),
    Message('note_on', channel=4, note=48, velocity=86, time=0),
    Message('note_on', channel=6, note=57, velocity=100, time=0),
    Message('note_on', channel=7, note=64, velocity=120, time=0),
    Message('note_on', channel=8, note=64, velocity=48, time=0),
    Message('note_on', channel=9, note=44, velocity=80, time=0),
    Message('note_on', channel=9, note=54, velocity=50, time=0),
    Message('note_on', channel=9, note=38, velocity=120, time=0),
    Message('note_on', channel=13, note=57, velocity=100, time=0),
    Message('note_on', channel=9, note=38, velocity=0, time=4),
    Message('note_on', channel=9, note=54, velocity=0, time=0),
    Message('note_on', channel=9, note=44, velocity=0, time=1),
    Message('note_on', channel=8, note=55, velocity=48, time=13),
    Message('note_on', channel=8, note=60, velocity=48, time=5),
    Message('note_on', channel=4, note=57, velocity=0, time=169),
    Message('note_on', channel=4, note=48, velocity=0, time=0),
    Message('note_on', channel=7, note=64, velocity=0, time=34),
    Message('note_on', channel=8, note=64, velocity=0, time=4),
    Message('note_on', channel=8, note=55, velocity=0, time=9),
    Message('note_on', channel=8, note=60, velocity=0, time=0),
    Message('note_on', channel=6, note=57, velocity=0, time=1),
    Message('note_on', channel=13, note=57, velocity=0, time=0),
    Message('note_on', channel=1, note=48, velocity=127, time=0),
    Message('note_on', channel=4, note=52, velocity=70, time=0),
    Message('note_on', channel=4, note=48, velocity=70, time=0),
    Message('note_on', channel=6, note=55, velocity=100, time=0),
    Message('note_on', channel=7, note=64, velocity=120, time=0),
    Message('note_on', channel=8, note=60, velocity=70, time=0),
    Message('note_on', channel=9, note=42, velocity=80, time=0),
    Message('note_on', channel=13, note=55, velocity=100, time=0),
    Message('note_on', channel=9, note=42, velocity=0, time=5),
    Message('note_on', channel=8, note=55, velocity=70, time=14),
    Message('note_on', channel=8, note=64, velocity=70, time=14),
    Message('note_on', channel=4, note=48, velocity=0, time=159),
    Message('note_on', channel=4, note=52, velocity=0, time=0),
    Message('note_on', channel=1, note=48, velocity=0, time=24),
    Message('note_on', channel=7, note=64, velocity=0, time=10),
    Message('note_on', channel=8, note=60, velocity=0, time=4),
    Message('note_on', channel=8, note=55, velocity=0, time=5),
    Message('note_on', channel=13, note=55, velocity=0, time=5),
    Message('note_on', channel=6, note=55, velocity=0, time=0),
    Message('note_on', channel=1, note=48, velocity=127, time=0),
    Message('note_on', channel=4, note=48, velocity=87, time=0),
    Message('note_on', channel=4, note=55, velocity=87, time=0),
    Message('note_on', channel=6, note=57, velocity=100, time=0),
    Message('note_on', channel=8, note=55, velocity=80, time=0),
    Message('note_on', channel=9, note=36, velocity=120, time=0),
    Message('note_on', channel=9, note=44, velocity=80, time=0),
    Message('note_on', channel=13, note=57, velocity=100, time=0),
    Message('note_on', channel=9, note=36, velocity=0, time=4),
    Message('note_on', channel=8, note=64, velocity=0, time=0),
    Message('note_on', channel=9, note=44, velocity=0, time=1),
    Message('note_on', channel=8, note=60, velocity=80, time=11),
    Message('note_on', channel=8, note=64, velocity=80, time=7),
    Message('note_on', channel=4, note=55, velocity=0, time=169),
    Message('note_on', channel=4, note=48, velocity=0, time=0),
    Message('note_on', channel=1, note=48, velocity=0, time=24),
    Message('note_on', channel=6, note=57, velocity=0, time=9),
    Message('note_on', channel=13, note=57, velocity=0, time=0),
    Message('note_on', channel=1, note=48, velocity=127, time=15),
    Message('note_on', channel=4, note=55, velocity=72, time=0),
    Message('note_on', channel=4, note=48, velocity=72, time=0),
    Message('note_on', channel=6, note=55, velocity=100, time=0),
    Message('note_on', channel=7, note=64, velocity=120, time=0),
    Message('note_on', channel=9, note=42, velocity=80, time=0),
    Message('note_on', channel=13, note=55, velocity=100, time=0),
    Message('note_on', channel=9, note=42, velocity=0, time=5),
    Message('note_on', channel=4, note=55, velocity=0, time=187),
    Message('note_on', channel=4, note=48, velocity=0, time=0),
    Message('note_on', channel=8, note=64, velocity=0, time=18),
    Message('note_on', channel=1, note=48, velocity=0, time=6),
    Message('note_on', channel=8, note=55, velocity=0, time=5),
    Message('note_on', channel=13, note=55, velocity=0, time=4),
    Message('note_on', channel=6, note=55, velocity=0, time=0),
    Message('pitchwheel', channel=6, pitch=8191, time=0),
    Message('pitchwheel', channel=13, pitch=8191, time=0),
    Message('note_on', channel=7, note=64, velocity=0, time=1),
    Message('note_on', channel=8, note=60, velocity=0, time=11),
    Message('note_on', channel=4, note=57, velocity=82, time=3),
    Message('note_on', channel=4, note=48, velocity=82, time=0),
    Message('note_on', channel=6, note=50, velocity=100, time=0),
    Message('note_on', channel=7, note=64, velocity=120, time=0),
    Message('note_on', channel=9, note=54, velocity=50, time=0),
    Message('note_on', channel=9, note=46, velocity=80, time=0),
    Message('note_on', channel=9, note=38, velocity=120, time=0),
    Message('note_on', channel=13, note=50, velocity=100, time=0),
    Message('note_on', channel=9, note=38, velocity=0, time=4),
    Message('note_on', channel=9, note=54, velocity=0, time=0),
    Message('note_on', channel=9, note=46, velocity=0, time=1),
    Message('note_on', channel=8, note=55, velocity=59, time=4),
    Message('note_on', channel=8, note=60, velocity=59, time=6),
    Message('note_on', channel=8, note=64, velocity=59, time=4),
    Message('pitchwheel', channel=6, pitch=8191, time=65),
    Message('pitchwheel', channel=13, pitch=8191, time=0),
    Message('pitchwheel', channel=6, pitch=7680, time=7),
    Message('pitchwheel', channel=13, pitch=7680, time=0),
    Message('pitchwheel', channel=6, pitch=7168, time=7),
    Message('pitchwheel', channel=13, pitch=7168, time=0),
    Message('pitchwheel', channel=6, pitch=6656, time=7),
    Message('pitchwheel', channel=13, pitch=6656, time=0),
    Message('pitchwheel', channel=6, pitch=6144, time=7),
    Message('pitchwheel', channel=13, pitch=6144, time=0),
    Message('pitchwheel', channel=6, pitch=5632, time=8),
    Message('pitchwheel', channel=13, pitch=5632, time=0),
    Message('pitchwheel', channel=6, pitch=5120, time=7),
    Message('pitchwheel', channel=13, pitch=5120, time=0),
    Message('pitchwheel', channel=6, pitch=4608, time=7),
    Message('pitchwheel', channel=13, pitch=4608, time=0),
    Message('pitchwheel', channel=6, pitch=4096, time=7),
    Message('pitchwheel', channel=13, pitch=4096, time=0),
    Message('pitchwheel', channel=6, pitch=3584, time=7),
    Message('pitchwheel', channel=13, pitch=3584, time=0),
    Message('pitchwheel', channel=6, pitch=3072, time=7),
    Message('pitchwheel', channel=13, pitch=3072, time=0),
    Message('pitchwheel', channel=6, pitch=2560, time=7),
    Message('pitchwheel', channel=13, pitch=2560, time=0),
    Message('pitchwheel', channel=6, pitch=2048, time=7),
    Message('pitchwheel', channel=13, pitch=2048, time=0),
    Message('pitchwheel', channel=6, pitch=1536, time=7),
    Message('pitchwheel', channel=13, pitch=1536, time=0),
    Message('pitchwheel', channel=6, pitch=1024, time=7),
    Message('pitchwheel', channel=13, pitch=1024, time=0),
    Message('pitchwheel', channel=6, pitch=512, time=7),
    Message('pitchwheel', channel=13, pitch=512, time=0),
    Message('note_on', channel=4, note=48, velocity=0, time=2),
    Message('note_on', channel=4, note=57, velocity=0, time=0),
    Message('pitchwheel', channel=6, pitch=0, time=5),
    Message('pitchwheel', channel=13, pitch=0, time=0),
    Message('note_on', channel=8, note=55, velocity=0, time=9),
    Message('note_on', channel=8, note=60, velocity=0, time=13),
    Message('note_on', channel=8, note=64, velocity=0, time=4),
    Message('note_on', channel=7, note=64, velocity=0, time=3),
    Message('note_on', channel=13, note=50, velocity=0, time=14),
    Message('note_on', channel=6, note=50, velocity=0, time=0),
    Message('note_on', channel=1, note=48, velocity=127, time=0),
    Message('note_on', channel=4, note=52, velocity=70, time=0),
    Message('note_on', channel=4, note=48, velocity=70, time=0),
    Message('note_on', channel=6, note=48, velocity=100, time=0),
    Message('note_on', channel=8, note=60, velocity=50, time=0),
    Message('note_on', channel=8, note=64, velocity=50, time=0),
    Message('note_on', channel=8, note=55, velocity=50, time=0),
    Message('note_on', channel=9, note=42, velocity=80, time=0),
    Message('note_on', channel=13, note=48, velocity=100, time=0),
    Message('note_on', channel=9, note=42, velocity=0, time=5),
    Message('note_on', channel=8, note=64, velocity=0, time=79),
    Message('note_on', channel=8, note=60, velocity=0, time=0),
    Message('note_on', channel=8, note=55, velocity=0, time=7),
    Message('note_on', channel=4, note=48, velocity=0, time=101),
    Message('note_on', channel=4, note=52, velocity=0, time=0),
    Message('note_on', channel=1, note=48, velocity=0, time=24),
    Message('note_on', channel=6, note=48, velocity=0, time=24),
    Message('note_on', channel=13, note=48, velocity=0, time=0),
    Message('note_on', channel=1, note=40, velocity=127, time=0),
    Message('note_on', channel=4, note=55, velocity=82, time=0),
    Message('note_on', channel=4, note=48, velocity=82, time=0),
    Message('note_on', channel=6, note=50, velocity=100, time=0),
    Message('note_on', channel=7, note=60, velocity=120, time=0),
    Message('note_on', channel=8, note=64, velocity=78, time=0),
    Message('note_on', channel=9, note=36, velocity=120, time=0),
    Message('note_on', channel=9, note=57, velocity=80, time=0),
    Message('note_on', channel=9, note=38, velocity=120, time=0),
    Message('note_on', channel=13, note=50, velocity=100, time=0),
    Message('note_on', channel=9, note=38, velocity=0, time=4),
    Message('note_on', channel=9, note=36, velocity=0, time=0),
    Message('note_on', channel=9, note=57, velocity=0, time=1),
    Message('note_on', channel=8, note=55, velocity=78, time=5),
    Message('note_on', channel=8, note=60, velocity=78, time=18),
    Message('note_on', channel=4, note=48, velocity=0, time=164),
    Message('note_on', channel=4, note=55, velocity=0, time=0),
    Message('note_on', channel=1, note=40, velocity=0, time=24),
    Message('note_on', channel=7, note=60, velocity=0, time=10),
    Message('note_on', channel=8, note=64, velocity=0, time=4),
    Message('note_on', channel=8, note=60, velocity=0, time=5),
    Message('note_on', channel=6, note=50, velocity=0, time=5),
    Message('note_on', channel=8, note=55, velocity=0, time=0),
    Message('note_on', channel=13, note=50, velocity=0, time=0),
    Message('note_on', channel=1, note=43, velocity=127, time=0),
    Message('note_on', channel=4, note=55, velocity=70, time=0),
    Message('note_on', channel=4, note=48, velocity=70, time=0),
    Message('note_on', channel=6, note=48, velocity=100, time=0),
    Message('note_on', channel=7, note=60, velocity=120, time=0),
    Message('note_on', channel=8, note=60, velocity=63, time=0),
    Message('note_on', channel=9, note=36, velocity=120, time=0),
    Message('note_on', channel=9, note=42, velocity=80, time=0),
    Message('note_on', channel=9, note=38, velocity=90, time=0),
    Message('note_on', channel=13, note=48, velocity=100, time=0),
    Message('note_on', channel=9, note=38, velocity=0, time=4),
    Message('note_on', channel=9, note=42, velocity=0, time=1),
    Message('note_on', channel=9, note=36, velocity=0, time=11),
    Message('note_on', channel=8, note=55, velocity=63, time=3),
    Message('note_on', channel=8, note=64, velocity=63, time=5),
    Message('note_on', channel=8, note=60, velocity=0, time=138),
    Message('note_on', channel=8, note=64, velocity=0, time=24),
    Message('note_on', channel=8, note=55, velocity=0, time=2),
    Message('note_on', channel=4, note=48, velocity=0, time=4),
    Message('note_on', channel=4, note=55, velocity=0, time=0),
    Message('note_on', channel=1, note=43, velocity=0, time=24),
    Message('note_on', channel=7, note=60, velocity=0, time=10),
    Message('note_on', channel=6, note=48, velocity=0, time=14),
    Message('note_on', channel=13, note=48, velocity=0, time=0),
    Message('note_on', channel=1, note=45, velocity=127, time=0),
    Message('note_on', channel=4, note=48, velocity=80, time=0),
    Message('note_on', channel=4, note=57, velocity=80, time=0),
    Message('note_on', channel=6, note=45, velocity=100, time=0),
    Message('note_on', channel=7, note=55, velocity=120, time=0),
    Message('note_on', channel=8, note=64, velocity=48, time=0),
    Message('note_on', channel=9, note=44, velocity=80, time=0),
    Message('note_on', channel=9, note=54, velocity=50, time=0),
    Message('note_on', channel=9, note=38, velocity=105, time=0),
    Message('note_on', channel=13, note=45, velocity=100, time=0),
    Message('note_on', channel=9, note=38, velocity=0, time=4),
    Message('note_on', channel=9, note=54, velocity=0, time=0),
    Message('note_on', channel=9, note=44, velocity=0, time=1),
    Message('note_on', channel=8, note=55, velocity=48, time=13),
    Message('note_on', channel=8, note=60, velocity=48, time=5),
    Message('note_on', channel=4, note=57, velocity=0, time=169),
    Message('note_on', channel=4, note=48, velocity=0, time=0),
    Message('note_on', channel=1, note=45, velocity=0, time=24),
    Message('note_on', channel=7, note=55, velocity=0, time=10),
    Message('note_on', channel=8, note=64, velocity=0, time=4),
    Message('note_on', channel=8, note=55, velocity=0, time=9),
    Message('note_on', channel=8, note=60, velocity=0, time=0),
    Message('note_on', channel=13, note=45, velocity=0, time=1),
    Message('note_on', channel=6, note=45, velocity=0, time=0),
    Message('note_on', channel=1, note=43, velocity=127, time=0),
    Message('note_on', channel=4, note=52, velocity=70, time=0),
    Message('note_on', channel=4, note=48, velocity=70, time=0),
    Message('note_on', channel=6, note=43, velocity=100, time=0),
    Message('note_on', channel=7, note=55, velocity=120, time=0),
    Message('note_on', channel=8, note=60, velocity=70, time=0),
    Message('note_on', channel=9, note=42, velocity=80, time=0),
    Message('note_on', channel=9, note=54, velocity=50, time=0),
    Message('note_on', channel=9, note=38, velocity=120, time=0),
    Message('note_on', channel=13, note=43, velocity=100, time=0),
    Message('note_on', channel=9, note=38, velocity=0, time=4),
    Message('note_on', channel=9, note=54, velocity=0, time=0),
    Message('note_on', channel=9, note=42, velocity=0, time=1),
    Message('note_on', channel=8, note=55, velocity=70, time=14),
    Message('note_on', channel=8, note=64, velocity=70, time=14),
    Message('note_on', channel=4, note=48, velocity=0, time=159),
    Message('note_on', channel=4, note=52, velocity=0, time=0),
    Message('note_on', channel=1, note=43, velocity=0, time=24),
    Message('note_on', channel=7, note=55, velocity=0, time=10),
    Message('note_on', channel=8, note=60, velocity=0, time=4),
    Message('note_on', channel=8, note=55, velocity=0, time=5),
    Message('note_on', channel=6, note=43, velocity=0, time=5),
    Message('note_on', channel=2, note=76, velocity=0, time=0),
    Message('note_on', channel=2, note=72, velocity=0, time=0),
    Message('note_on', channel=2, note=79, velocity=0, time=0),
    Message('note_on', channel=13, note=43, velocity=0, time=0),
    Message('note_on', channel=1, note=45, velocity=127, time=0),
    Message('note_on', channel=2, note=72, velocity=73, time=0),
    Message('note_on', channel=2, note=76, velocity=66, time=0),
    Message('note_on', channel=2, note=81, velocity=79, time=0),
    Message('note_on', channel=3, note=64, velocity=100, time=0),
    Message('note_on', channel=4, note=45, velocity=86, time=0),
    Message('note_on', channel=4, note=52, velocity=86, time=0),
    Message('note_on', channel=5, note=64, velocity=80, time=0),
    Message('note_on', channel=5, note=69, velocity=80, time=0),
    Message('note_on', channel=5, note=60, velocity=80, time=0),
    Message('note_on', channel=6, note=57, velocity=100, time=0),
    Message('note_on', channel=6, note=64, velocity=100, time=0),
    Message('note_on', channel=8, note=57, velocity=80, time=0),
    Message('note_on', channel=9, note=36, velocity=120, time=0),
    Message('note_on', channel=9, note=49, velocity=80, time=0),
    Message('note_on', channel=13, note=57, velocity=90, time=0),
    Message('note_on', channel=13, note=64, velocity=90, time=0),
    MetaMessage('lyrics', text='How ', time=0),
    Message('note_on', channel=9, note=36, velocity=0, time=4),
    Message('note_on', channel=8, note=64, velocity=0, time=0),
    Message('note_on', channel=9, note=49, velocity=0, time=1),
    Message('note_on', channel=8, note=60, velocity=80, time=11),
    Message('note_on', channel=8, note=64, velocity=80, time=7),
    Message('note_on', channel=4, note=52, velocity=0, time=169),
    Message('note_on', channel=4, note=45, velocity=0, time=0),
    Message('note_on', channel=4, note=45, velocity=69, time=48),
    Message('note_on', channel=4, note=52, velocity=69, time=0),
    Message('note_on', channel=9, note=42, velocity=80, time=0),
    Message('note_on', channel=9, note=42, velocity=0, time=5),
    Message('note_on', channel=4, note=52, velocity=0, time=187),
    Message('note_on', channel=4, note=45, velocity=0, time=0),
    Message('note_on', channel=1, note=45, velocity=0, time=0),
    Message('control_change', channel=13, control=1, value=60, time=12),
    Message('note_on', channel=8, note=64, velocity=0, time=6),
    Message('note_on', channel=8, note=57, velocity=0, time=11),
    Message('note_on', channel=8, note=60, velocity=0, time=16),
    Message('note_on', channel=1, note=45, velocity=127, time=3),
    Message('note_on', channel=4, note=45, velocity=83, time=0),
    Message('note_on', channel=4, note=52, velocity=83, time=0),
    Message('note_on', channel=9, note=54, velocity=50, time=0),
    Message('note_on', channel=9, note=44, velocity=80, time=0),
    Message('note_on', channel=9, note=38, velocity=120, time=0),
    Message('note_on', channel=9, note=38, velocity=0, time=4),
    Message('note_on', channel=9, note=54, velocity=0, time=0),
    Message('note_on', channel=9, note=44, velocity=0, time=1),
    Message('note_on', channel=8, note=57, velocity=59, time=4),
    Message('note_on', channel=8, note=60, velocity=59, time=6),
    Message('note_on', channel=8, note=64, velocity=59, time=4),
    Message('note_on', channel=4, note=52, velocity=0, time=173),
    Message('note_on', channel=4, note=45, velocity=0, time=0),
    Message('pitchwheel', channel=3, pitch=0, time=3),
    Message('pitchwheel', channel=5, pitch=0, time=0),
    Message('pitchwheel', channel=3, pitch=-256, time=9),
    Message('pitchwheel', channel=5, pitch=-256, time=0),
    Message('note_on', channel=8, note=57, velocity=0, time=2),
    Message('pitchwheel', channel=3, pitch=-640, time=7),
    Message('pitchwheel', channel=5, pitch=-640, time=0),
    Message('note_on', channel=1, note=45, velocity=0, time=3),
    Message('note_on', channel=8, note=60, velocity=0, time=3),
    Message('pitchwheel', channel=3, pitch=-896, time=3),
    Message('pitchwheel', channel=5, pitch=-896, time=0),
    Message('note_on', channel=8, note=64, velocity=0, time=1),
    Message('pitchwheel', channel=3, pitch=-1280, time=8),
    Message('pitchwheel', channel=5, pitch=-1280, time=0),
    Message('note_on', channel=1, note=45, velocity=127, time=9),
    Message('pitchwheel', channel=3, pitch=-1664, time=0),
    Message('note_on', channel=4, note=45, velocity=72, time=0),
    Message('note_on', channel=4, note=52, velocity=72, time=0),
    Message('pitchwheel', channel=5, pitch=-1664, time=0),
    Message('note_on', channel=8, note=64, velocity=50, time=0),
    Message('note_on', channel=8, note=60, velocity=50, time=0),
    Message('note_on', channel=8, note=57, velocity=50, time=0),
    Message('note_on', channel=9, note=42, velocity=80, time=0),
    Message('note_on', channel=9, note=36, velocity=120, time=0),
    Message('note_on', channel=9, note=36, velocity=0, time=4),
    Message('note_on', channel=9, note=42, velocity=0, time=1),
    Message('pitchwheel', channel=3, pitch=-1920, time=3),
    Message('pitchwheel', channel=5, pitch=-1920, time=0),
    Message('pitchwheel', channel=3, pitch=-2304, time=9),
    Message('pitchwheel', channel=5, pitch=-2304, time=0),
    Message('pitchwheel', channel=3, pitch=-2688, time=9),
    Message('pitchwheel', channel=5, pitch=-2688, time=0),
    Message('pitchwheel', channel=3, pitch=-2944, time=9),
    Message('pitchwheel', channel=5, pitch=-2944, time=0),
    Message('pitchwheel', channel=3, pitch=-3328, time=9),
    Message('pitchwheel', channel=5, pitch=-3328, time=0),
    Message('pitchwheel', channel=3, pitch=-3584, time=9),
    Message('pitchwheel', channel=5, pitch=-3584, time=0),
    Message('pitchwheel', channel=3, pitch=-3968, time=9),
    Message('pitchwheel', channel=5, pitch=-3968, time=0),
    Message('pitchwheel', channel=3, pitch=-4352, time=9),
    Message('pitchwheel', channel=5, pitch=-4352, time=0),
    Message('pitchwheel', channel=3, pitch=-4608, time=9),
    Message('pitchwheel', channel=5, pitch=-4608, time=0),
    Message('note_on', channel=8, note=60, velocity=0, time=4),
    Message('note_on', channel=8, note=64, velocity=0, time=0),
    Message('pitchwheel', channel=3, pitch=-4992, time=4),
    Message('pitchwheel', channel=5, pitch=-4992, time=0),
    Message('note_on', channel=8, note=57, velocity=0, time=3),
    Message('pitchwheel', channel=3, pitch=-5376, time=6),
    Message('pitchwheel', channel=5, pitch=-5376, time=0),
    Message('pitchwheel', channel=3, pitch=-5632, time=9),
    Message('pitchwheel', channel=5, pitch=-5632, time=0),
    Message('pitchwheel', channel=3, pitch=-6016, time=9),
    Message('pitchwheel', channel=5, pitch=-6016, time=0),
    Message('pitchwheel', channel=3, pitch=-6272, time=9),
    Message('pitchwheel', channel=5, pitch=-6272, time=0),
    Message('pitchwheel', channel=3, pitch=-6656, time=9),
    Message('pitchwheel', channel=5, pitch=-6656, time=0),
    Message('pitchwheel', channel=3, pitch=-7040, time=9),
    Message('pitchwheel', channel=5, pitch=-7040, time=0),
    Message('pitchwheel', channel=3, pitch=-7296, time=9),
    Message('pitchwheel', channel=5, pitch=-7296, time=0),
    Message('pitchwheel', channel=3, pitch=-7680, time=9),
    Message('pitchwheel', channel=5, pitch=-7680, time=0),
    Message('pitchwheel', channel=3, pitch=-8064, time=8),
    Message('pitchwheel', channel=5, pitch=-8064, time=0),
    Message('note_on', channel=4, note=52, velocity=0, time=24),
    Message('note_on', channel=4, note=45, velocity=0, time=0),
    Message('note_on', channel=1, note=45, velocity=0, time=24),
    Message('control_change', channel=13, control=1, value=0, time=2),
    Message('pitchwheel', channel=3, pitch=0, time=13),
    Message('pitchwheel', channel=5, pitch=0, time=0),
    Message('note_on', channel=2, note=72, velocity=0, time=9),
    Message('note_on', channel=5, note=69, velocity=0, time=0),
    Message('note_on', channel=2, note=81, velocity=0, time=0),
    Message('note_on', channel=13, note=64, velocity=0, time=0),
    Message('note_on', channel=3, note=64, velocity=0, time=0),
    Message('note_on', channel=6, note=57, velocity=0, time=0),
    Message('note_on', channel=6, note=64, velocity=0, time=0),
    Message('note_on', channel=5, note=60, velocity=0, time=0),
    Message('note_on', channel=2, note=76, velocity=0, time=0),
    Message('note_on', channel=5, note=64, velocity=0, time=0),
    Message('note_on', channel=13, note=57, velocity=0, time=0),
    Message('note_on', channel=1, note=43, velocity=127, time=0),
    Message('note_on', channel=2, note=71, velocity=68, time=0),
    Message('note_on', channel=2, note=79, velocity=77, time=0),
    Message('note_on', channel=2, note=74, velocity=81, time=0),
    Message('note_on', channel=3, note=62, velocity=100, time=0),
    Message('note_on', channel=4, note=43, velocity=80, time=0),
    Message('note_on', channel=4, note=50, velocity=80, time=0),
    Message('note_on', channel=5, note=67, velocity=80, time=0),
    Message('note_on', channel=5, note=59, velocity=80, time=0),
    Message('note_on', channel=5, note=62, velocity=80, time=0),
    Message('note_on', channel=6, note=62, velocity=100, time=0),
    Message('note_on', channel=6, note=55, velocity=100, time=0),
    Message('note_on', channel=8, note=62, velocity=78, time=0),
    Message('note_on', channel=9, note=44, velocity=80, time=0),
    Message('note_on', channel=9, note=36, velocity=120, time=0),
    Message('note_on', channel=13, note=62, velocity=90, time=0),
    Message('note_on', channel=13, note=55, velocity=90, time=0),
    MetaMessage('lyrics', text='long, ', time=0),
    Message('note_on', channel=9, note=36, velocity=0, time=4),
    Message('note_on', channel=9, note=44, velocity=0, time=1),
    Message('note_on', channel=8, note=55, velocity=78, time=5),
    Message('note_on', channel=8, note=59, velocity=78, time=18),
    Message('note_on', channel=4, note=50, velocity=0, time=164),
    Message('note_on', channel=4, note=43, velocity=0, time=0),
    Message('note_on', channel=4, note=50, velocity=71, time=48),
    Message('note_on', channel=4, note=43, velocity=71, time=0),
    Message('note_on', channel=9, note=42, velocity=80, time=0),
    Message('note_on', channel=9, note=42, velocity=0, time=5),
    Message('note_on', channel=4, note=43, velocity=0, time=187),
    Message('note_on', channel=4, note=50, velocity=0, time=0),
    Message('note_on', channel=1, note=43, velocity=0, time=0),
    Message('note_on', channel=8, note=55, velocity=0, time=1),
    Message('note_on', channel=8, note=62, velocity=0, time=18),
    Message('note_on', channel=8, note=59, velocity=0, time=5),
    Message('control_change', channel=13, control=1, value=67, time=9),
    Message('note_on', channel=4, note=50, velocity=86, time=15),
    Message('note_on', channel=4, note=43, velocity=86, time=0),
    Message('note_on', channel=8, note=62, velocity=48, time=0),
    Message('note_on', channel=9, note=44, velocity=80, time=0),
    Message('note_on', channel=9, note=54, velocity=50, time=0),
    Message('note_on', channel=9, note=38, velocity=120, time=0),
    Message('note_on', channel=9, note=38, velocity=0, time=4),
    Message('note_on', channel=9, note=54, velocity=0, time=0),
    Message('note_on', channel=9, note=44, velocity=0, time=1),
    Message('note_on', channel=8, note=55, velocity=48, time=13),
    Message('note_on', channel=8, note=59, velocity=48, time=5),
    Message('note_on', channel=4, note=43, velocity=0, time=169),
    Message('note_on', channel=4, note=50, velocity=0, time=0),
    Message('note_on', channel=8, note=62, velocity=0, time=38),
    Message('note_on', channel=8, note=59, velocity=0, time=9),
    Message('note_on', channel=8, note=55, velocity=0, time=0),
    Message('note_on', channel=1, note=43, velocity=127, time=1),
    Message('note_on', channel=4, note=50, velocity=70, time=0),
    Message('note_on', channel=4, note=43, velocity=70, time=0),
    Message('note_on', channel=8, note=59, velocity=70, time=0),
    Message('note_on', channel=9, note=42, velocity=80, time=0),
    Message('note_on', channel=9, note=42, velocity=0, time=5),
    Message('note_on', channel=8, note=55, velocity=70, time=14),
    Message('note_on', channel=8, note=62, velocity=70, time=14),
    Message('note_on', channel=4, note=43, velocity=0, time=159),
    Message('note_on', channel=4, note=50, velocity=0, time=0),
    Message('control_change', channel=13, control=1, value=0, time=12),
    Message('note_on', channel=1, note=43, velocity=0, time=12),
    Message('note_on', channel=8, note=59, velocity=0, time=14),
    Message('note_on', channel=8, note=55, velocity=0, time=5),
    Message('note_on', channel=2, note=71, velocity=0, time=5),
    Message('note_on', channel=6, note=55, velocity=0, time=0),
    Message('note_on', channel=5, note=59, velocity=0, time=0),
    Message('note_on', channel=2, note=74, velocity=0, time=0),
    Message('note_on', channel=3, note=62, velocity=0, time=0),
    Message('note_on', channel=5, note=67, velocity=0, time=0),
    Message('note_on', channel=13, note=55, velocity=0, time=0),
    Message('note_on', channel=2, note=79, velocity=0, time=0),
    Message('note_on', channel=5, note=62, velocity=0, time=0),
    Message('note_on', channel=13, note=62, velocity=0, time=0),
    Message('note_on', channel=6, note=62, velocity=0, time=0),
    Message('note_on', channel=1, note=41, velocity=127, time=0),
    Message('note_on', channel=2, note=77, velocity=81, time=0),
    Message('note_on', channel=2, note=81, velocity=70, time=0),
    Message('note_on', channel=2, note=72, velocity=56, time=0),
    Message('note_on', channel=3, note=60, velocity=100, time=0),
    Message('note_on', channel=4, note=41, velocity=87, time=0),
    Message('note_on', channel=4, note=48, velocity=87, time=0),
    Message('note_on', channel=5, note=65, velocity=80, time=0),
    Message('note_on', channel=5, note=57, velocity=80, time=0),
    Message('note_on', channel=5, note=60, velocity=80, time=0),
    Message('note_on', channel=6, note=53, velocity=100, time=0),
    Message('note_on', channel=6, note=60, velocity=100, time=0),
    Message('note_on', channel=8, note=57, velocity=80, time=0),
    Message('note_on', channel=9, note=44, velocity=80, time=0),
    Message('note_on', channel=9, note=36, velocity=120, time=0),
    Message('note_on', channel=13, note=53, velocity=90, time=0),
    Message('note_on', channel=13, note=60, velocity=90, time=0),
    MetaMessage('lyrics', text='how ', time=0),
    Message('note_on', channel=9, note=36, velocity=0, time=4),
    Message('note_on', channel=8, note=62, velocity=0, time=0),
    Message('note_on', channel=9, note=44, velocity=0, time=1),
    Message('note_on', channel=8, note=60, velocity=80, time=11),
    Message('note_on', channel=8, note=65, velocity=80, time=7),
    Message('note_on', channel=4, note=48, velocity=0, time=169),
    Message('note_on', channel=4, note=41, velocity=0, time=0),
    Message('note_on', channel=4, note=48, velocity=72, time=48),
    Message('note_on', channel=4, note=41, velocity=72, time=0),
    Message('note_on', channel=9, note=42, velocity=80, time=0),
    Message('note_on', channel=9, note=42, velocity=0, time=5),
    Message('control_change', channel=13, control=1, value=65, time=93),
    Message('note_on', channel=4, note=41, velocity=0, time=94),
    Message('note_on', channel=4, note=48, velocity=0, time=0),
    Message('note_on', channel=1, note=41, velocity=0, time=0),
    Message('note_on', channel=8, note=65, velocity=0, time=18),
    Message('note_on', channel=8, note=57, velocity=0, time=11),
    Message('note_on', channel=8, note=60, velocity=0, time=16),
    Message('note_on', channel=4, note=41, velocity=82, time=3),
    Message('note_on', channel=4, note=48, velocity=82, time=0),
    Message('note_on', channel=9, note=54, velocity=50, time=0),
    Message('note_on', channel=9, note=44, velocity=80, time=0),
    Message('note_on', channel=9, note=38, velocity=120, time=0),
    Message('note_on', channel=9, note=38, velocity=0, time=4),
    Message('note_on', channel=9, note=54, velocity=0, time=0),
    Message('note_on', channel=9, note=44, velocity=0, time=1),
    Message('note_on', channel=8, note=57, velocity=59, time=4),
    Message('note_on', channel=8, note=60, velocity=59, time=6),
    Message('note_on', channel=8, note=65, velocity=59, time=4),
    Message('note_on', channel=4, note=41, velocity=0, time=173),
    Message('note_on', channel=4, note=48, velocity=0, time=0),
    Message('note_on', channel=8, note=57, velocity=0, time=14),
    Message('note_on', channel=8, note=60, velocity=0, time=13),
    Message('note_on', channel=8, note=65, velocity=0, time=4),
    Message('note_on', channel=6, note=60, velocity=0, time=17),
    Message('note_on', channel=13, note=60, velocity=0, time=0),
    Message('note_on', channel=6, note=53, velocity=0, time=0),
    Message('note_on', channel=13, note=53, velocity=0, time=0),
    Message('note_on', channel=1, note=41, velocity=127, time=0),
    Message('note_on', channel=4, note=48, velocity=70, time=0),
    Message('note_on', channel=4, note=41, velocity=70, time=0),
    Message('note_on', channel=6, note=67, velocity=100, time=0),
    Message('note_on', channel=6, note=60, velocity=100, time=0),
    Message('note_on', channel=8, note=65, velocity=50, time=0),
    Message('note_on', channel=8, note=60, velocity=50, time=0),
    Message('note_on', channel=8, note=57, velocity=50, time=0),
    Message('note_on', channel=9, note=42, velocity=80, time=0),
    Message('note_on', channel=9, note=36, velocity=120, time=0),
    Message('note_on', channel=13, note=67, velocity=90, time=0),
    Message('note_on', channel=13, note=60, velocity=90, time=0),
    Message('note_on', channel=9, note=36, velocity=0, time=4),
    Message('note_on', channel=9, note=42, velocity=0, time=1),
    Message('control_change', channel=13, control=1, value=0, time=2),
    Message('note_on', channel=8, note=60, velocity=0, time=77),
    Message('note_on', channel=8, note=65, velocity=0, time=0),
    Message('note_on', channel=8, note=57, velocity=0, time=7),
    Message('note_on', channel=4, note=48, velocity=0, time=101),
    Message('note_on', channel=4, note=41, velocity=0, time=0),
    Message('note_on', channel=1, note=41, velocity=0, time=24),
    Message('note_on', channel=2, note=81, velocity=0, time=24),
    Message('note_on', channel=2, note=77, velocity=0, time=0),
    Message('note_on', channel=3, note=60, velocity=0, time=0),
    Message('note_on', channel=5, note=60, velocity=0, time=0),
    Message('note_on', channel=5, note=65, velocity=0, time=0),
    Message('note_on', channel=5, note=57, velocity=0, time=0),
    Message('note_on', channel=1, note=48, velocity=127, time=0),
    Message('note_on', channel=2, note=76, velocity=64, time=0),
    Message('note_on', channel=2, note=79, velocity=67, time=0),
    Message('note_on', channel=3, note=60, velocity=100, time=0),
    Message('note_on', channel=4, note=43, velocity=82, time=0),
    Message('note_on', channel=4, note=48, velocity=82, time=0),
    Message('note_on', channel=5, note=60, velocity=80, time=0),
    Message('note_on', channel=5, note=55, velocity=80, time=0),
    Message('note_on', channel=5, note=64, velocity=80, time=0),
    Message('note_on', channel=8, note=64, velocity=78, time=0),
    Message('note_on', channel=9, note=36, velocity=120, time=0),
    Message('note_on', channel=9, note=44, velocity=80, time=0),
    MetaMessage('lyrics', text='long, ', time=0),
    MetaMessage('lyrics', text='\r', time=0),
    Message('note_on', channel=9, note=36, velocity=0, time=4),
    Message('note_on', channel=9, note=44, velocity=0, time=1),
    Message('note_on', channel=8, note=55, velocity=78, time=5),
    Message('note_on', channel=8, note=60, velocity=78, time=18),
    Message('control_change', channel=13, control=1, value=59, time=35),
    Message('note_on', channel=4, note=48, velocity=0, time=129),
    Message('note_on', channel=4, note=43, velocity=0, time=0),
    Message('note_on', channel=8, note=64, velocity=0, time=38),
    Message('note_on', channel=8, note=60, velocity=0, time=5),
    Message('note_on', channel=8, note=55, velocity=0, time=5),
    Message('note_on', channel=4, note=43, velocity=70, time=0),
    Message('note_on', channel=4, note=48, velocity=70, time=0),
    Message('note_on', channel=8, note=60, velocity=63, time=0),
    Message('note_on', channel=9, note=42, velocity=80, time=0),
    Message('note_on', channel=9, note=42, velocity=0, time=5),
    Message('note_on', channel=8, note=55, velocity=63, time=14),
    Message('note_on', channel=8, note=64, velocity=63, time=5),
    Message('note_on', channel=8, note=60, velocity=0, time=138),
    Message('note_on', channel=8, note=64, velocity=0, time=24),
    Message('note_on', channel=8, note=55, velocity=0, time=2),
    Message('note_on', channel=1, note=48, velocity=0, time=4),
    Message('note_on', channel=4, note=48, velocity=0, time=0),
    Message('note_on', channel=4, note=43, velocity=0, time=0),
    Message('control_change', channel=13, control=1, value=0, time=40),
    Message('note_on', channel=13, note=67, velocity=0, time=5),
    Message('note_on', channel=6, note=67, velocity=0, time=0),
    Message('note_on', channel=13, note=60, velocity=0, time=0),
    Message('note_on', channel=6, note=60, velocity=0, time=0),
    Message('note_on', channel=4, note=43, velocity=80, time=3),
    Message('note_on', channel=4, note=48, velocity=80, time=0),
    Message('note_on', channel=6, note=67, velocity=100, time=0),
    Message('note_on', channel=6, note=72, velocity=100, time=0),
    Message('note_on', channel=8, note=64, velocity=48, time=0),
    Message('note_on', channel=9, note=49, velocity=80, time=0),
    Message('note_on', channel=9, note=54, velocity=50, time=0),
    Message('note_on', channel=9, note=38, velocity=120, time=0),
    Message('note_on', channel=13, note=67, velocity=100, time=0),
    Message('note_on', channel=13, note=72, velocity=100, time=0),
    Message('note_on', channel=9, note=38, velocity=0, time=4),
    Message('note_on', channel=9, note=54, velocity=0, time=0),
    Message('note_on', channel=9, note=49, velocity=0, time=1),
    Message('note_on', channel=8, note=55, velocity=48, time=13),
    Message('note_on', channel=8, note=60, velocity=48, time=5),
    Message('note_on', channel=4, note=43, velocity=0, time=169),
    Message('note_on', channel=4, note=48, velocity=0, time=0),
    Message('note_on', channel=8, note=64, velocity=0, time=38),
    Message('note_on', channel=8, note=60, velocity=0, time=9),
    Message('note_on', channel=8, note=55, velocity=0, time=0),
    Message('note_on', channel=1, note=48, velocity=127, time=1),
    Message('note_on', channel=4, note=43, velocity=70, time=0),
    Message('note_on', channel=4, note=48, velocity=70, time=0),
    Message('note_on', channel=8, note=60, velocity=70, time=0),
    Message('note_on', channel=9, note=42, velocity=80, time=0),
    Message('note_on', channel=9, note=42, velocity=0, time=5),
    Message('note_on', channel=8, note=55, velocity=70, time=14),
    Message('note_on', channel=8, note=64, velocity=70, time=14),
    Message('note_on', channel=4, note=48, velocity=0, time=159),
    Message('note_on', channel=4, note=43, velocity=0, time=0),
    Message('note_on', channel=1, note=48, velocity=0, time=24),
    Message('note_on', channel=8, note=60, velocity=0, time=14),
    Message('pitchwheel', channel=7, pitch=-8192, time=0),
    Message('note_on', channel=8, note=55, velocity=0, time=5),
    Message('note_on', channel=2, note=79, velocity=0, time=5),
    Message('note_on', channel=5, note=64, velocity=0, time=0),
    Message('note_on', channel=5, note=55, velocity=0, time=0),
    Message('note_on', channel=5, note=60, velocity=0, time=0),
    Message('note_on', channel=2, note=72, velocity=0, time=0),
    Message('note_on', channel=3, note=60, velocity=0, time=0),
    Message('note_on', channel=2, note=76, velocity=0, time=0),
    Message('note_on', channel=1, note=48, velocity=127, time=0),
    Message('note_on', channel=2, note=72, velocity=54, time=0),
    Message('note_on', channel=2, note=79, velocity=67, time=0),
    Message('note_on', channel=2, note=76, velocity=70, time=0),
    Message('note_on', channel=4, note=55, velocity=86, time=0),
    Message('note_on', channel=4, note=48, velocity=86, time=0),
    Message('note_on', channel=8, note=55, velocity=80, time=0),
    Message('note_on', channel=9, note=36, velocity=120, time=0),
    Message('note_on', channel=9, note=44, velocity=80, time=0),
    Message('note_on', channel=9, note=36, velocity=0, time=4),
    Message('note_on', channel=8, note=64, velocity=0, time=0),
    Message('note_on', channel=9, note=44, velocity=0, time=1),
    Message('note_on', channel=7, note=64, velocity=120, time=6),
    Message('note_on', channel=8, note=60, velocity=80, time=5),
    Message('note_on', channel=8, note=64, velocity=80, time=7),
    Message('note_on', channel=4, note=48, velocity=0, time=169),
    Message('note_on', channel=4, note=55, velocity=0, time=0),
    Message('note_on', channel=1, note=48, velocity=0, time=24),
    Message('note_on', channel=1, note=48, velocity=127, time=24),
    Message('note_on', channel=4, note=55, velocity=69, time=0),
    Message('note_on', channel=4, note=48, velocity=69, time=0),
    Message('note_on', channel=9, note=42, velocity=80, time=0),
    Message('note_on', channel=9, note=42, velocity=0, time=5),
    Message('pitchwheel', channel=7, pitch=-8064, time=27),
    Message('pitchwheel', channel=7, pitch=-7936, time=14),
    Message('pitchwheel', channel=7, pitch=-7808, time=14),
    Message('control_change', channel=13, control=1, value=36, time=3),
    Message('pitchwheel', channel=7, pitch=-7680, time=4),
    Message('pitchwheel', channel=7, pitch=-7552, time=14),
    Message('pitchwheel', channel=7, pitch=-7424, time=15),
    Message('pitchwheel', channel=7, pitch=-7296, time=7),
    Message('pitchwheel', channel=7, pitch=-7168, time=14),
    Message('pitchwheel', channel=7, pitch=-7040, time=14),
    Message('pitchwheel', channel=7, pitch=-6912, time=7),
    Message('pitchwheel', channel=7, pitch=-6784, time=14),
    Message('pitchwheel', channel=7, pitch=-6656, time=7),
    Message('pitchwheel', channel=7, pitch=-6528, time=14),
    Message('pitchwheel', channel=7, pitch=-6400, time=14),
    Message('note_on', channel=4, note=48, velocity=0, time=5),
    Message('note_on', channel=4, note=55, velocity=0, time=0),
    Message('pitchwheel', channel=7, pitch=-6272, time=2),
    Message('pitchwheel', channel=7, pitch=-6144, time=14),
    Message('note_on', channel=8, note=64, velocity=0, time=2),
    Message('note_on', channel=1, note=48, velocity=0, time=6),
    Message('note_on', channel=8, note=55, velocity=0, time=5),
    Message('pitchwheel', channel=7, pitch=-6016, time=2),
    Message('pitchwheel', channel=7, pitch=-5888, time=7),
    Message('note_on', channel=8, note=60, velocity=0, time=7),
    Message('note_on', channel=3, note=64, velocity=100, time=3),
    Message('note_on', channel=4, note=48, velocity=83, time=0),
    Message('note_on', channel=4, note=57, velocity=83, time=0),
    Message('note_on', channel=9, note=44, velocity=80, time=0),
    Message('note_on', channel=9, note=54, velocity=50, time=0),
    Message('note_on', channel=9, note=38, velocity=120, time=0),
    MetaMessage('lyrics', text='wo', time=0),
    Message('note_on', channel=9, note=38, velocity=0, time=4),
    Message('note_on', channel=9, note=54, velocity=0, time=0),
    Message('pitchwheel', channel=7, pitch=-5760, time=0),
    Message('note_on', channel=9, note=44, velocity=0, time=1),
    Message('note_on', channel=8, note=55, velocity=59, time=4),
    Message('note_on', channel=8, note=60, velocity=59, time=6),
    Message('pitchwheel', channel=7, pitch=-5632, time=3),
    Message('note_on', channel=8, note=64, velocity=59, time=1),
    Message('pitchwheel', channel=7, pitch=-5504, time=6),
    Message('pitchwheel', channel=7, pitch=-5376, time=14),
    Message('pitchwheel', channel=7, pitch=-5248, time=7),
    Message('pitchwheel', channel=7, pitch=-5120, time=14),
    Message('pitchwheel', channel=7, pitch=-4992, time=14),
    Message('pitchwheel', channel=7, pitch=-4864, time=7),
    Message('pitchwheel', channel=7, pitch=-4736, time=15),
    Message('pitchwheel', channel=7, pitch=-4608, time=14),
    Message('pitchwheel', channel=7, pitch=-4480, time=7),
    Message('pitchwheel', channel=7, pitch=-4352, time=14),
    Message('pitchwheel', channel=7, pitch=-4224, time=14),
    Message('pitchwheel', channel=7, pitch=-4096, time=7),
    Message('pitchwheel', channel=7, pitch=-3968, time=14),
    Message('pitchwheel', channel=7, pitch=-3840, time=7),
    Message('pitchwheel', channel=7, pitch=-3712, time=14),
    Message('note_on', channel=4, note=48, velocity=0, time=5),
    Message('note_on', channel=4, note=57, velocity=0, time=0),
    Message('pitchwheel', channel=7, pitch=-3584, time=9),
    Message('note_on', channel=8, note=55, velocity=0, time=5),
    Message('pitchwheel', channel=7, pitch=-3456, time=2),
    Message('note_on', channel=8, note=60, velocity=0, time=11),
    Message('note_on', channel=8, note=64, velocity=0, time=4),
    Message('pitchwheel', channel=7, pitch=-3328, time=0),
    Message('pitchwheel', channel=7, pitch=-3200, time=14),
    Message('note_on', channel=3, note=64, velocity=0, time=3),
    Message('note_on', channel=1, note=48, velocity=127, time=0),
    Message('note_on', channel=3, note=67, velocity=100, time=0),
    Message('note_on', channel=4, note=48, velocity=72, time=0),
    Message('note_on', channel=4, note=52, velocity=72, time=0),
    Message('note_on', channel=8, note=60, velocity=50, time=0),
    Message('note_on', channel=8, note=55, velocity=50, time=0),
    Message('note_on', channel=8, note=64, velocity=50, time=0),
    Message('note_on', channel=9, note=36, velocity=120, time=0),
    Message('note_on', channel=9, note=42, velocity=80, time=0),
    MetaMessage('lyrics', text='man ', time=0),
    Message('pitchwheel', channel=7, pitch=-3072, time=4),
    Message('note_on', channel=9, note=42, velocity=0, time=1),
    Message('note_on', channel=9, note=36, velocity=0, time=11),
    Message('pitchwheel', channel=7, pitch=-2944, time=2),
    Message('pitchwheel', channel=7, pitch=-2816, time=14),
    Message('pitchwheel', channel=7, pitch=-2688, time=7),
    Message('pitchwheel', channel=7, pitch=-2560, time=14),
    Message('pitchwheel', channel=7, pitch=-2432, time=7),
    Message('pitchwheel', channel=7, pitch=-2304, time=14),
    Message('note_on', channel=8, note=64, velocity=0, time=10),
    Message('note_on', channel=8, note=60, velocity=0, time=0),
    Message('pitchwheel', channel=7, pitch=-2176, time=4),
    Message('note_on', channel=8, note=55, velocity=0, time=3),
    Message('pitchwheel', channel=7, pitch=-2048, time=5),
    Message('pitchwheel', channel=7, pitch=-1920, time=14),
    Message('pitchwheel', channel=7, pitch=-1792, time=14),
    Message('pitchwheel', channel=7, pitch=-1664, time=7),
    Message('pitchwheel', channel=7, pitch=-1536, time=14),
    Message('pitchwheel', channel=7, pitch=-1408, time=14),
    Message('pitchwheel', channel=7, pitch=-1280, time=7),
    Message('control_change', channel=13, control=1, value=70, time=10),
    Message('pitchwheel', channel=7, pitch=-1152, time=4),
    Message('pitchwheel', channel=7, pitch=-1024, time=7),
    Message('note_on', channel=4, note=48, velocity=0, time=5),
    Message('note_on', channel=4, note=52, velocity=0, time=0),
    Message('pitchwheel', channel=7, pitch=-896, time=9),
    Message('note_on', channel=1, note=48, velocity=0, time=15),
    Message('pitchwheel', channel=7, pitch=-768, time=0),
    Message('pitchwheel', channel=7, pitch=-640, time=7),
    Message('pitchwheel', channel=7, pitch=-512, time=14),
    Message('note_on', channel=3, note=67, velocity=0, time=3),
    Message('note_on', channel=1, note=48, velocity=127, time=0),
    Message('note_on', channel=3, note=67, velocity=100, time=0),
    Message('note_on', channel=4, note=48, velocity=80, time=0),
    Message('note_on', channel=4, note=55, velocity=80, time=0),
    Message('note_on', channel=8, note=64, velocity=78, time=0),
    Message('note_on', channel=9, note=36, velocity=120, time=0),
    Message('note_on', channel=9, note=44, velocity=80, time=0),
    MetaMessage('lyrics', text='will ', time=0),
    Message('note_on', channel=9, note=36, velocity=0, time=4),
    Message('note_on', channel=9, note=44, velocity=0, time=1),
    Message('note_on', channel=8, note=55, velocity=78, time=5),
    Message('pitchwheel', channel=7, pitch=-384, time=1),
    Message('pitchwheel', channel=7, pitch=-256, time=7),
    Message('note_on', channel=8, note=60, velocity=78, time=10),
    Message('pitchwheel', channel=7, pitch=-128, time=4),
    Message('pitchwheel', channel=7, pitch=0, time=7),
    Message('note_on', channel=4, note=48, velocity=0, time=153),
    Message('note_on', channel=4, note=55, velocity=0, time=0),
    Message('note_on', channel=1, note=48, velocity=0, time=24),
    Message('note_on', channel=8, note=64, velocity=0, time=14),
    Message('note_on', channel=8, note=60, velocity=0, time=5),
    Message('note_on', channel=3, note=67, velocity=0, time=5),
    Message('note_on', channel=8, note=55, velocity=0, time=0),
    Message('note_on', channel=1, note=48, velocity=127, time=0),
    Message('note_on', channel=3, note=67, velocity=100, time=0),
    Message('note_on', channel=4, note=55, velocity=71, time=0),
    Message('note_on', channel=4, note=48, velocity=71, time=0),
    Message('note_on', channel=8, note=60, velocity=63, time=0),
    Message('note_on', channel=9, note=42, velocity=80, time=0),
    MetaMessage('lyrics', text='you, ', time=0),
    Message('note_on', channel=9, note=42, velocity=0, time=5),
    Message('note_on', channel=8, note=55, velocity=63, time=14),
    Message('note_on', channel=8, note=64, velocity=63, time=5),
    Message('note_on', channel=8, note=60, velocity=0, time=138),
    Message('note_on', channel=8, note=64, velocity=0, time=24),
    Message('note_on', channel=8, note=55, velocity=0, time=2),
    Message('note_on', channel=4, note=48, velocity=0, time=4),
    Message('note_on', channel=4, note=55, velocity=0, time=0),
    Message('note_on', channel=1, note=48, velocity=0, time=24),
    Message('note_on', channel=4, note=57, velocity=86, time=24),
    Message('note_on', channel=4, note=48, velocity=86, time=0),
    Message('note_on', channel=8, note=64, velocity=48, time=0),
    Message('note_on', channel=9, note=44, velocity=80, time=0),
    Message('note_on', channel=9, note=54, velocity=50, time=0),
    Message('note_on', channel=9, note=38, velocity=120, time=0),
    Message('note_on', channel=9, note=38, velocity=0, time=4),
    Message('note_on', channel=9, note=54, velocity=0, time=0),
    Message('note_on', channel=9, note=44, velocity=0, time=1),
    Message('note_on', channel=8, note=55, velocity=48, time=13),
    Message('note_on', channel=8, note=60, velocity=48, time=5),
    Message('note_on', channel=4, note=57, velocity=0, time=169),
    Message('note_on', channel=4, note=48, velocity=0, time=0),
    Message('note_on', channel=8, note=64, velocity=0, time=38),
    Message('note_on', channel=8, note=55, velocity=0, time=9),
    Message('note_on', channel=8, note=60, velocity=0, time=0),
    Message('note_on', channel=3, note=67, velocity=0, time=1),
    Message('note_on', channel=1, note=48, velocity=127, time=0),
    Message('note_on', channel=3, note=67, velocity=100, time=0),
    Message('note_on', channel=4, note=48, velocity=70, time=0),
    Message('note_on', channel=4, note=52, velocity=70, time=0),
    Message('note_on', channel=8, note=60, velocity=70, time=0),
    Message('note_on', channel=9, note=42, velocity=80, time=0),
    MetaMessage('lyrics', text='we', time=0),
    Message('note_on', channel=9, note=42, velocity=0, time=5),
    Message('note_on', channel=8, note=55, velocity=70, time=14),
    Message('note_on', channel=8, note=64, velocity=70, time=14),
    Message('note_on', channel=4, note=52, velocity=0, time=159),
    Message('note_on', channel=4, note=48, velocity=0, time=0),
    Message('note_on', channel=1, note=48, velocity=0, time=24),
    Message('note_on', channel=7, note=64, velocity=0, time=14),
    Message('note_on', channel=8, note=60, velocity=0, time=0),
    Message('control_change', channel=13, control=1, value=0, time=2),
    Message('note_on', channel=8, note=55, velocity=0, time=3),
    Message('note_on', channel=6, note=72, velocity=0, time=5),
    Message('note_on', channel=6, note=67, velocity=0, time=0),
    Message('note_on', channel=2, note=79, velocity=0, time=0),
    Message('note_on', channel=13, note=72, velocity=0, time=0),
    Message('note_on', channel=13, note=67, velocity=0, time=0),
    Message('note_on', channel=2, note=76, velocity=0, time=0),
    Message('note_on', channel=2, note=72, velocity=0, time=0),
    Message('note_on', channel=3, note=67, velocity=0, time=0),
    Message('note_on', channel=1, note=43, velocity=127, time=0),
    Message('note_on', channel=2, note=71, velocity=66, time=0),
    Message('note_on', channel=2, note=74, velocity=59, time=0),
    Message('note_on', channel=2, note=79, velocity=59, time=0),
    Message('note_on', channel=3, note=64, velocity=100, time=0),
    Message('note_on', channel=4, note=43, velocity=87, time=0),
    Message('note_on', channel=4, note=50, velocity=87, time=0),
    Message('note_on', channel=8, note=55, velocity=80, time=0),
    Message('note_on', channel=9, note=36, velocity=120, time=0),
    Message('note_on', channel=9, note=44, velocity=80, time=0),
    MetaMessage('lyrics', text='e', time=0),
    Message('note_on', channel=9, note=36, velocity=0, time=4),
    Message('note_on', channel=8, note=64, velocity=0, time=0),
    Message('note_on', channel=9, note=44, velocity=0, time=1),
    Message('note_on', channel=8, note=59, velocity=80, time=11),
    Message('note_on', channel=8, note=62, velocity=80, time=7),
    Message('note_on', channel=4, note=50, velocity=0, time=169),
    Message('note_on', channel=4, note=43, velocity=0, time=0),
    Message('note_on', channel=1, note=43, velocity=0, time=24),
    Message('note_on', channel=3, note=64, velocity=0, time=24),
    Message('note_on', channel=1, note=43, velocity=127, time=0),
    Message('note_on', channel=3, note=62, velocity=100, time=0),
    Message('note_on', channel=4, note=50, velocity=72, time=0),
    Message('note_on', channel=4, note=43, velocity=72, time=0),
    Message('note_on', channel=6, note=64, velocity=100, time=0),
    Message('note_on', channel=7, note=67, velocity=120, time=0),
    Message('note_on', channel=9, note=42, velocity=80, time=0),
    Message('note_on', channel=13, note=64, velocity=100, time=0),
    MetaMessage('lyrics', text='p. ', time=0),
    MetaMessage('lyrics', text='\r', time=0),
    Message('note_on', channel=9, note=42, velocity=0, time=5),
    Message('note_on', channel=4, note=50, velocity=0, time=187),
    Message('note_on', channel=4, note=43, velocity=0, time=0),
    Message('note_on', channel=8, note=62, velocity=0, time=18),
    Message('note_on', channel=1, note=43, velocity=0, time=6),
    Message('note_on', channel=8, note=55, velocity=0, time=5),
    Message('note_on', channel=8, note=59, velocity=0, time=16),
    Message('note_on', channel=6, note=64, velocity=0, time=3),
    Message('note_on', channel=13, note=64, velocity=0, time=0),
    Message('note_on', channel=7, note=67, velocity=0, time=0),
    Message('note_on', channel=4, note=52, velocity=82, time=0),
    Message('note_on', channel=4, note=43, velocity=82, time=0),
    Message('note_on', channel=6, note=62, velocity=100, time=0),
    Message('note_on', channel=7, note=67, velocity=120, time=0),
    Message('note_on', channel=9, note=44, velocity=80, time=0),
    Message('note_on', channel=9, note=54, velocity=50, time=0),
    Message('note_on', channel=9, note=38, velocity=120, time=0),
    Message('note_on', channel=13, note=62, velocity=100, time=0),
    Message('note_on', channel=9, note=38, velocity=0, time=4),
    Message('note_on', channel=9, note=54, velocity=0, time=0),
    Message('note_on', channel=9, note=44, velocity=0, time=1),
    Message('note_on', channel=8, note=55, velocity=59, time=4),
    Message('note_on', channel=8, note=59, velocity=59, time=6),
    Message('note_on', channel=8, note=62, velocity=59, time=4),
    Message('note_on', channel=4, note=43, velocity=0, time=173),
    Message('note_on', channel=4, note=52, velocity=0, time=0),
    Message('note_on', channel=8, note=55, velocity=0, time=14),
    Message('note_on', channel=8, note=59, velocity=0, time=13),
    Message('note_on', channel=8, note=62, velocity=0, time=4),
    Message('note_on', channel=3, note=62, velocity=0, time=17),
    Message('note_on', channel=6, note=62, velocity=0, time=0),
    Message('note_on', channel=7, note=67, velocity=0, time=0),
    Message('note_on', channel=13, note=62, velocity=0, time=0),
    Message('note_on', channel=1, note=43, velocity=127, time=0),
    Message('note_on', channel=4, note=43, velocity=70, time=0),
    Message('note_on', channel=4, note=47, velocity=70, time=0),
    Message('note_on', channel=6, note=60, velocity=100, time=0),
    Message('note_on', channel=7, note=62, velocity=120, time=0),
    Message('note_on', channel=8, note=62, velocity=50, time=0),
    Message('note_on', channel=8, note=59, velocity=50, time=0),
    Message('note_on', channel=8, note=55, velocity=50, time=0),
    Message('note_on', channel=9, note=36, velocity=120, time=0),
    Message('note_on', channel=9, note=42, velocity=80, time=0),
    Message('note_on', channel=13, note=60, velocity=100, time=0),
    Message('note_on', channel=9, note=36, velocity=0, time=4),
    Message('note_on', channel=9, note=42, velocity=0, time=1),
    Message('note_on', channel=8, note=62, velocity=0, time=79),
    Message('note_on', channel=8, note=59, velocity=0, time=0),
    Message('note_on', channel=8, note=55, velocity=0, time=7),
    Message('note_on', channel=4, note=47, velocity=0, time=101),
    Message('note_on', channel=4, note=43, velocity=0, time=0),
    Message('note_on', channel=1, note=43, velocity=0, time=24),
    Message('note_on', channel=7, note=62, velocity=0, time=24),
    Message('note_on', channel=6, note=60, velocity=0, time=0),
    Message('note_on', channel=13, note=60, velocity=0, time=0),
    Message('note_on', channel=1, note=43, velocity=127, time=0),
    Message('note_on', channel=4, note=50, velocity=82, time=0),
    Message('note_on', channel=4, note=43, velocity=82, time=0),
    Message('note_on', channel=6, note=59, velocity=100, time=0),
    Message('note_on', channel=7, note=62, velocity=120, time=0),
    Message('note_on', channel=8, note=62, velocity=78, time=0),
    Message('note_on', channel=9, note=36, velocity=120, time=0),
    Message('note_on', channel=9, note=44, velocity=80, time=0),
    Message('note_on', channel=13, note=59, velocity=100, time=0),
    Message('note_on', channel=9, note=36, velocity=0, time=4),
    Message('note_on', channel=9, note=44, velocity=0, time=1),
    Message('note_on', channel=8, note=55, velocity=78, time=5),
    Message('note_on', channel=8, note=59, velocity=78, time=18),
    Message('note_on', channel=4, note=43, velocity=0, time=164),
    Message('note_on', channel=4, note=50, velocity=0, time=0),
    Message('note_on', channel=1, note=43, velocity=0, time=24),
    Message('note_on', channel=8, note=62, velocity=0, time=14),
    Message('note_on', channel=8, note=59, velocity=0, time=5),
    Message('note_on', channel=7, note=62, velocity=0, time=5),
    Message('note_on', channel=6, note=59, velocity=0, time=0),
    Message('note_on', channel=8, note=55, velocity=0, time=0),
    Message('note_on', channel=13, note=59, velocity=0, time=0),
    Message('note_on', channel=1, note=43, velocity=127, time=0),
    Message('note_on', channel=4, note=43, velocity=70, time=0),
    Message('note_on', channel=4, note=50, velocity=70, time=0),
    Message('note_on', channel=6, note=57, velocity=100, time=0),
    Message('note_on', channel=7, note=62, velocity=120, time=0),
    Message('note_on', channel=8, note=59, velocity=63, time=0),
    Message('note_on', channel=9, note=42, velocity=80, time=0),
    Message('note_on', channel=13, note=57, velocity=100, time=0),
    Message('note_on', channel=9, note=42, velocity=0, time=5),
    Message('note_on', channel=8, note=55, velocity=63, time=14),
    Message('note_on', channel=8, note=62, velocity=63, time=5),
    Message('note_on', channel=8, note=59, velocity=0, time=138),
    Message('note_on', channel=8, note=62, velocity=0, time=24),
    Message('note_on', channel=8, note=55, velocity=0, time=2),
    Message('note_on', channel=4, note=50, velocity=0, time=4),
    Message('note_on', channel=4, note=43, velocity=0, time=0),
    Message('note_on', channel=1, note=43, velocity=0, time=24),
    Message('note_on', channel=7, note=62, velocity=0, time=24),
    Message('note_on', channel=13, note=57, velocity=0, time=0),
    Message('note_on', channel=6, note=57, velocity=0, time=0),
    Message('note_on', channel=4, note=43, velocity=80, time=0),
    Message('note_on', channel=4, note=52, velocity=80, time=0),
    Message('note_on', channel=6, note=55, velocity=100, time=0),
    Message('note_on', channel=7, note=62, velocity=120, time=0),
    Message('note_on', channel=8, note=62, velocity=48, time=0),
    Message('note_on', channel=9, note=46, velocity=80, time=0),
    Message('note_on', channel=9, note=54, velocity=50, time=0),
    Message('note_on', channel=9, note=38, velocity=120, time=0),
    Message('note_on', channel=13, note=55, velocity=100, time=0),
    Message('note_on', channel=9, note=38, velocity=0, time=4),
    Message('note_on', channel=9, note=54, velocity=0, time=0),
    Message('note_on', channel=9, note=46, velocity=0, time=1),
    Message('note_on', channel=8, note=55, velocity=48, time=13),
    Message('note_on', channel=8, note=59, velocity=48, time=5),
    Message('note_on', channel=4, note=43, velocity=0, time=169),
    Message('note_on', channel=4, note=52, velocity=0, time=0),
    Message('note_on', channel=8, note=62, velocity=0, time=38),
    Message('note_on', channel=8, note=55, velocity=0, time=9),
    Message('note_on', channel=8, note=59, velocity=0, time=0),
    Message('note_on', channel=6, note=55, velocity=0, time=1),
    Message('note_on', channel=7, note=62, velocity=0, time=0),
    Message('note_on', channel=13, note=55, velocity=0, time=0),
    Message('note_on', channel=1, note=43, velocity=127, time=0),
    Message('note_on', channel=4, note=43, velocity=70, time=0),
    Message('note_on', channel=4, note=47, velocity=70, time=0),
    Message('note_on', channel=6, note=52, velocity=100, time=0),
    Message('note_on', channel=7, note=62, velocity=120, time=0),
    Message('note_on', channel=8, note=59, velocity=70, time=0),
    Message('note_on', channel=9, note=42, velocity=80, time=0),
    Message('note_on', channel=13, note=52, velocity=100, time=0),
    Message('note_on', channel=9, note=42, velocity=0, time=5),
    Message('note_on', channel=8, note=55, velocity=70, time=14),
    Message('note_on', channel=8, note=62, velocity=70, time=14),
    Message('note_on', channel=4, note=47, velocity=0, time=159),
    Message('note_on', channel=4, note=43, velocity=0, time=0),
    Message('note_on', channel=1, note=43, velocity=0, time=24),
    Message('note_on', channel=8, note=59, velocity=0, time=14),
    Message('note_on', channel=8, note=55, velocity=0, time=5),
    Message('note_on', channel=2, note=71, velocity=0, time=5),
    Message('note_on', channel=6, note=52, velocity=0, time=0),
    Message('note_on', channel=7, note=62, velocity=0, time=0),
    Message('note_on', channel=2, note=79, velocity=0, time=0),
    Message('note_on', channel=13, note=52, velocity=0, time=0),
    Message('note_on', channel=2, note=74, velocity=0, time=0),
    Message('note_on', channel=1, note=45, velocity=127, time=0),
    Message('note_on', channel=2, note=72, velocity=63, time=0),
    Message('note_on', channel=2, note=76, velocity=55, time=0),
    Message('note_on', channel=2, note=81, velocity=58, time=0),
    Message('note_on', channel=3, note=64, velocity=100, time=0),
    Message('note_on', channel=4, note=52, velocity=86, time=0),
    Message('note_on', channel=4, note=45, velocity=86, time=0),
    Message('note_on', channel=5, note=64, velocity=80, time=0),
    Message('note_on', channel=5, note=69, velocity=80, time=0),
    Message('note_on', channel=5, note=60, velocity=80, time=0),
    Message('note_on', channel=6, note=64, velocity=100, time=0),
    Message('note_on', channel=6, note=57, velocity=100, time=0),
    Message('note_on', channel=8, note=57, velocity=80, time=0),
    Message('note_on', channel=9, note=36, velocity=120, time=0),
    Message('note_on', channel=9, note=57, velocity=80, time=0),
    Message('note_on', channel=13, note=64, velocity=90, time=0),
    Message('note_on', channel=13, note=57, velocity=90, time=0),
    MetaMessage('lyrics', text='How ', time=0),
    Message('note_on', channel=9, note=36, velocity=0, time=4),
    Message('note_on', channel=8, note=62, velocity=0, time=0),
    Message('note_on', channel=9, note=57, velocity=0, time=1),
    Message('note_on', channel=8, note=60, velocity=80, time=11),
    Message('note_on', channel=8, note=64, velocity=80, time=7),
    Message('note_on', channel=4, note=45, velocity=0, time=169),
    Message('note_on', channel=4, note=52, velocity=0, time=0),
    Message('note_on', channel=4, note=45, velocity=69, time=48),
    Message('note_on', channel=4, note=52, velocity=69, time=0),
    Message('note_on', channel=9, note=42, velocity=80, time=0),
    Message('note_on', channel=9, note=42, velocity=0, time=5),
    Message('control_change', channel=13, control=1, value=63, time=164),
    Message('note_on', channel=4, note=52, velocity=0, time=23),
    Message('note_on', channel=4, note=45, velocity=0, time=0),
    Message('note_on', channel=1, note=45, velocity=0, time=0),
    Message('note_on', channel=8, note=64, velocity=0, time=18),
    Message('note_on', channel=8, note=57, velocity=0, time=11),
    Message('note_on', channel=8, note=60, velocity=0, time=16),
    Message('note_on', channel=4, note=52, velocity=83, time=3),
    Message('note_on', channel=4, note=45, velocity=83, time=0),
    Message('note_on', channel=9, note=44, velocity=80, time=0),
    Message('note_on', channel=9, note=54, velocity=50, time=0),
    Message('note_on', channel=9, note=38, velocity=120, time=0),
    Message('note_on', channel=9, note=38, velocity=0, time=4),
    Message('note_on', channel=9, note=54, velocity=0, time=0),
    Message('note_on', channel=9, note=44, velocity=0, time=1),
    Message('note_on', channel=8, note=57, velocity=59, time=4),
    Message('note_on', channel=8, note=60, velocity=59, time=6),
    Message('note_on', channel=8, note=64, velocity=59, time=4),
    Message('note_on', channel=4, note=52, velocity=0, time=173),
    Message('note_on', channel=4, note=45, velocity=0, time=0),
    Message('pitchwheel', channel=3, pitch=0, time=3),
    Message('pitchwheel', channel=5, pitch=0, time=0),
    Message('pitchwheel', channel=3, pitch=-256, time=9),
    Message('pitchwheel', channel=5, pitch=-256, time=0),
    Message('note_on', channel=8, note=57, velocity=0, time=2),
    Message('pitchwheel', channel=3, pitch=-640, time=7),
    Message('pitchwheel', channel=5, pitch=-640, time=0),
    Message('note_on', channel=8, note=60, velocity=0, time=6),
    Message('pitchwheel', channel=3, pitch=-896, time=3),
    Message('pitchwheel', channel=5, pitch=-896, time=0),
    Message('note_on', channel=8, note=64, velocity=0, time=1),
    Message('pitchwheel', channel=3, pitch=-1280, time=8),
    Message('pitchwheel', channel=5, pitch=-1280, time=0),
    Message('note_on', channel=1, note=45, velocity=127, time=9),
    Message('pitchwheel', channel=3, pitch=-1664, time=0),
    Message('note_on', channel=4, note=52, velocity=72, time=0),
    Message('note_on', channel=4, note=45, velocity=72, time=0),
    Message('pitchwheel', channel=5, pitch=-1664, time=0),
    Message('note_on', channel=8, note=64, velocity=50, time=0),
    Message('note_on', channel=8, note=60, velocity=50, time=0),
    Message('note_on', channel=8, note=57, velocity=50, time=0),
    Message('note_on', channel=9, note=42, velocity=80, time=0),
    Message('note_on', channel=9, note=36, velocity=120, time=0),
    Message('note_on', channel=9, note=42, velocity=0, time=5),
    Message('pitchwheel', channel=3, pitch=-1920, time=3),
    Message('pitchwheel', channel=5, pitch=-1920, time=0),
    Message('note_on', channel=9, note=36, velocity=0, time=8),
    Message('pitchwheel', channel=3, pitch=-2304, time=1),
    Message('pitchwheel', channel=5, pitch=-2304, time=0),
    Message('pitchwheel', channel=3, pitch=-2688, time=9),
    Message('pitchwheel', channel=5, pitch=-2688, time=0),
    Message('pitchwheel', channel=3, pitch=-2944, time=9),
    Message('pitchwheel', channel=5, pitch=-2944, time=0),
    Message('pitchwheel', channel=3, pitch=-3328, time=9),
    Message('pitchwheel', channel=5, pitch=-3328, time=0),
    Message('pitchwheel', channel=3, pitch=-3584, time=9),
    Message('pitchwheel', channel=5, pitch=-3584, time=0),
    Message('pitchwheel', channel=3, pitch=-3968, time=9),
    Message('pitchwheel', channel=5, pitch=-3968, time=0),
    Message('pitchwheel', channel=3, pitch=-4352, time=9),
    Message('pitchwheel', channel=5, pitch=-4352, time=0),
    Message('pitchwheel', channel=3, pitch=-4608, time=9),
    Message('pitchwheel', channel=5, pitch=-4608, time=0),
    Message('note_on', channel=8, note=60, velocity=0, time=4),
    Message('note_on', channel=8, note=64, velocity=0, time=0),
    Message('pitchwheel', channel=3, pitch=-4992, time=4),
    Message('pitchwheel', channel=5, pitch=-4992, time=0),
    Message('note_on', channel=8, note=57, velocity=0, time=3),
    Message('pitchwheel', channel=3, pitch=-5376, time=6),
    Message('pitchwheel', channel=5, pitch=-5376, time=0),
    Message('pitchwheel', channel=3, pitch=-5632, time=9),
    Message('pitchwheel', channel=5, pitch=-5632, time=0),
    Message('pitchwheel', channel=3, pitch=-6016, time=9),
    Message('pitchwheel', channel=5, pitch=-6016, time=0),
    Message('pitchwheel', channel=3, pitch=-6272, time=9),
    Message('pitchwheel', channel=5, pitch=-6272, time=0),
    Message('pitchwheel', channel=3, pitch=-6656, time=9),
    Message('pitchwheel', channel=5, pitch=-6656, time=0),
    Message('pitchwheel', channel=3, pitch=-7040, time=9),
    Message('pitchwheel', channel=5, pitch=-7040, time=0),
    Message('pitchwheel', channel=3, pitch=-7296, time=9),
    Message('pitchwheel', channel=5, pitch=-7296, time=0),
    Message('pitchwheel', channel=3, pitch=-7680, time=9),
    Message('pitchwheel', channel=5, pitch=-7680, time=0),
    Message('pitchwheel', channel=3, pitch=-8064, time=8),
    Message('pitchwheel', channel=5, pitch=-8064, time=0),
    Message('note_on', channel=4, note=45, velocity=0, time=24),
    Message('note_on', channel=4, note=52, velocity=0, time=0),
    Message('note_on', channel=1, note=45, velocity=0, time=24),
    Message('control_change', channel=13, control=1, value=0, time=9),
    Message('pitchwheel', channel=3, pitch=0, time=6),
    Message('pitchwheel', channel=5, pitch=0, time=0),
    Message('note_on', channel=2, note=72, velocity=0, time=9),
    Message('note_on', channel=5, note=69, velocity=0, time=0),
    Message('note_on', channel=2, note=81, velocity=0, time=0),
    Message('note_on', channel=13, note=57, velocity=0, time=0),
    Message('note_on', channel=3, note=64, velocity=0, time=0),
    Message('note_on', channel=5, note=64, velocity=0, time=0),
    Message('note_on', channel=6, note=57, velocity=0, time=0),
    Message('note_on', channel=5, note=60, velocity=0, time=0),
    Message('note_on', channel=13, note=64, velocity=0, time=0),
    Message('note_on', channel=2, note=76, velocity=0, time=0),
    Message('note_on', channel=6, note=64, velocity=0, time=0),
    Message('note_on', channel=1, note=43, velocity=127, time=0),
    Message('note_on', channel=2, note=74, velocity=77, time=0),
    Message('note_on', channel=2, note=79, velocity=79, time=0),
    Message('note_on', channel=2, note=71, velocity=71, time=0),
    Message('note_on', channel=3, note=62, velocity=100, time=0),
    Message('note_on', channel=4, note=50, velocity=80, time=0),
    Message('note_on', channel=4, note=43, velocity=80, time=0),
    Message('note_on', channel=5, note=62, velocity=80, time=0),
    Message('note_on', channel=5, note=59, velocity=80, time=0),
    Message('note_on', channel=5, note=67, velocity=80, time=0),
    Message('note_on', channel=6, note=62, velocity=100, time=0),
    Message('note_on', channel=6, note=55, velocity=100, time=0),
    Message('note_on', channel=8, note=62, velocity=78, time=0),
    Message('note_on', channel=9, note=36, velocity=120, time=0),
    Message('note_on', channel=9, note=44, velocity=80, time=0),
    Message('note_on', channel=13, note=62, velocity=90, time=0),
    Message('note_on', channel=13, note=55, velocity=90, time=0),
    MetaMessage('lyrics', text='long, ', time=0),
    Message('note_on', channel=9, note=36, velocity=0, time=4),
    Message('note_on', channel=9, note=44, velocity=0, time=1),
    Message('note_on', channel=8, note=55, velocity=78, time=5),
    Message('note_on', channel=8, note=59, velocity=78, time=18),
    Message('note_on', channel=4, note=43, velocity=0, time=164),
    Message('note_on', channel=4, note=50, velocity=0, time=0),
    Message('note_on', channel=4, note=43, velocity=71, time=48),
    Message('note_on', channel=4, note=50, velocity=71, time=0),
    Message('note_on', channel=9, note=42, velocity=80, time=0),
    Message('note_on', channel=9, note=42, velocity=0, time=5),
    Message('note_on', channel=4, note=50, velocity=0, time=187),
    Message('note_on', channel=4, note=43, velocity=0, time=0),
    Message('note_on', channel=1, note=43, velocity=0, time=0),
    Message('note_on', channel=8, note=55, velocity=0, time=1),
    Message('note_on', channel=8, note=62, velocity=0, time=18),
    Message('note_on', channel=8, note=59, velocity=0, time=5),
    Message('control_change', channel=13, control=1, value=59, time=16),
    Message('note_on', channel=4, note=43, velocity=86, time=8),
    Message('note_on', channel=4, note=50, velocity=86, time=0),
    Message('note_on', channel=8, note=62, velocity=48, time=0),
    Message('note_on', channel=9, note=54, velocity=50, time=0),
    Message('note_on', channel=9, note=44, velocity=80, time=0),
    Message('note_on', channel=9, note=38, velocity=120, time=0),
    Message('note_on', channel=9, note=38, velocity=0, time=4),
    Message('note_on', channel=9, note=54, velocity=0, time=0),
    Message('note_on', channel=9, note=44, velocity=0, time=1),
    Message('note_on', channel=8, note=55, velocity=48, time=13),
    Message('note_on', channel=8, note=59, velocity=48, time=5),
    Message('note_on', channel=4, note=50, velocity=0, time=169),
    Message('note_on', channel=4, note=43, velocity=0, time=0),
    Message('note_on', channel=8, note=62, velocity=0, time=38),
    Message('note_on', channel=8, note=59, velocity=0, time=9),
    Message('note_on', channel=8, note=55, velocity=0, time=0),
    Message('note_on', channel=1, note=43, velocity=127, time=1),
    Message('note_on', channel=4, note=50, velocity=70, time=0),
    Message('note_on', channel=4, note=43, velocity=70, time=0),
    Message('note_on', channel=8, note=59, velocity=70, time=0),
    Message('note_on', channel=9, note=42, velocity=80, time=0),
    Message('note_on', channel=9, note=42, velocity=0, time=5),
    Message('note_on', channel=8, note=55, velocity=70, time=14),
    Message('note_on', channel=8, note=62, velocity=70, time=14),
    Message('note_on', channel=4, note=43, velocity=0, time=159),
    Message('note_on', channel=4, note=50, velocity=0, time=0),
    Message('control_change', channel=13, control=1, value=0, time=19),
    Message('note_on', channel=1, note=43, velocity=0, time=5),
    Message('note_on', channel=8, note=59, velocity=0, time=14),
    Message('note_on', channel=8, note=55, velocity=0, time=5),
    Message('note_on', channel=2, note=74, velocity=0, time=5),
    Message('note_on', channel=6, note=55, velocity=0, time=0),
    Message('note_on', channel=5, note=59, velocity=0, time=0),
    Message('note_on', channel=2, note=71, velocity=0, time=0),
    Message('note_on', channel=3, note=62, velocity=0, time=0),
    Message('note_on', channel=5, note=62, velocity=0, time=0),
    Message('note_on', channel=13, note=55, velocity=0, time=0),
    Message('note_on', channel=2, note=79, velocity=0, time=0),
    Message('note_on', channel=5, note=67, velocity=0, time=0),
    Message('note_on', channel=13, note=62, velocity=0, time=0),
    Message('note_on', channel=6, note=62, velocity=0, time=0),
    Message('note_on', channel=1, note=41, velocity=127, time=0),
    Message('note_on', channel=2, note=77, velocity=59, time=0),
    Message('note_on', channel=2, note=72, velocity=67, time=0),
    Message('note_on', channel=2, note=81, velocity=64, time=0),
    Message('note_on', channel=3, note=60, velocity=100, time=0),
    Message('note_on', channel=4, note=48, velocity=87, time=0),
    Message('note_on', channel=4, note=41, velocity=87, time=0),
    Message('note_on', channel=5, note=65, velocity=80, time=0),
    Message('note_on', channel=5, note=57, velocity=80, time=0),
    Message('note_on', channel=5, note=60, velocity=80, time=0),
    Message('note_on', channel=6, note=53, velocity=100, time=0),
    Message('note_on', channel=6, note=60, velocity=100, time=0),
    Message('note_on', channel=8, note=57, velocity=80, time=0),
    Message('note_on', channel=9, note=44, velocity=80, time=0),
    Message('note_on', channel=9, note=36, velocity=120, time=0),
    Message('note_on', channel=13, note=53, velocity=90, time=0),
    Message('note_on', channel=13, note=60, velocity=90, time=0),
    MetaMessage('lyrics', text='how ', time=0),
    Message('note_on', channel=9, note=36, velocity=0, time=4),
    Message('note_on', channel=8, note=62, velocity=0, time=0),
    Message('note_on', channel=9, note=44, velocity=0, time=1),
    Message('note_on', channel=8, note=60, velocity=80, time=11),
    Message('note_on', channel=8, note=65, velocity=80, time=7),
    Message('note_on', channel=4, note=41, velocity=0, time=169),
    Message('note_on', channel=4, note=48, velocity=0, time=0),
    Message('note_on', channel=4, note=41, velocity=72, time=48),
    Message('note_on', channel=4, note=48, velocity=72, time=0),
    Message('note_on', channel=9, note=42, velocity=80, time=0),
    Message('note_on', channel=9, note=42, velocity=0, time=5),
    Message('control_change', channel=13, control=1, value=59, time=86),
    Message('note_on', channel=4, note=48, velocity=0, time=101),
    Message('note_on', channel=4, note=41, velocity=0, time=0),
    Message('note_on', channel=1, note=41, velocity=0, time=0),
    Message('note_on', channel=8, note=65, velocity=0, time=18),
    Message('note_on', channel=8, note=57, velocity=0, time=11),
    Message('note_on', channel=8, note=60, velocity=0, time=16),
    Message('note_on', channel=4, note=41, velocity=82, time=3),
    Message('note_on', channel=4, note=48, velocity=82, time=0),
    Message('note_on', channel=9, note=44, velocity=80, time=0),
    Message('note_on', channel=9, note=54, velocity=50, time=0),
    Message('note_on', channel=9, note=38, velocity=120, time=0),
    Message('note_on', channel=9, note=38, velocity=0, time=4),
    Message('note_on', channel=9, note=54, velocity=0, time=0),
    Message('note_on', channel=9, note=44, velocity=0, time=1),
    Message('note_on', channel=8, note=57, velocity=59, time=4),
    Message('note_on', channel=8, note=60, velocity=59, time=6),
    Message('note_on', channel=8, note=65, velocity=59, time=4),
    Message('note_on', channel=4, note=41, velocity=0, time=173),
    Message('note_on', channel=4, note=48, velocity=0, time=0),
    Message('control_change', channel=13, control=1, value=0, time=12),
    Message('note_on', channel=8, note=57, velocity=0, time=2),
    Message('note_on', channel=8, note=60, velocity=0, time=13),
    Message('note_on', channel=8, note=65, velocity=0, time=4),
    Message('note_on', channel=6, note=60, velocity=0, time=17),
    Message('note_on', channel=13, note=60, velocity=0, time=0),
    Message('note_on', channel=6, note=53, velocity=0, time=0),
    Message('note_on', channel=13, note=53, velocity=0, time=0),
    Message('note_on', channel=1, note=41, velocity=127, time=0),
    Message('note_on', channel=4, note=41, velocity=70, time=0),
    Message('note_on', channel=4, note=48, velocity=70, time=0),
    Message('note_on', channel=6, note=67, velocity=100, time=0),
    Message('note_on', channel=6, note=60, velocity=100, time=0),
    Message('note_on', channel=8, note=60, velocity=50, time=0),
    Message('note_on', channel=8, note=57, velocity=50, time=0),
    Message('note_on', channel=8, note=65, velocity=50, time=0),
    Message('note_on', channel=9, note=36, velocity=120, time=0),
    Message('note_on', channel=9, note=42, velocity=80, time=0),
    Message('note_on', channel=13, note=67, velocity=100, time=0),
    Message('note_on', channel=13, note=60, velocity=100, time=0),
    Message('note_on', channel=9, note=36, velocity=0, time=4),
    Message('note_on', channel=9, note=42, velocity=0, time=1),
    Message('note_on', channel=8, note=65, velocity=0, time=79),
    Message('note_on', channel=8, note=60, velocity=0, time=0),
    Message('note_on', channel=8, note=57, velocity=0, time=7),
    Message('note_on', channel=4, note=41, velocity=0, time=101),
    Message('note_on', channel=4, note=48, velocity=0, time=0),
    Message('note_on', channel=1, note=41, velocity=0, time=24),
    Message('note_on', channel=2, note=77, velocity=0, time=24),
    Message('note_on', channel=3, note=60, velocity=0, time=0),
    Message('note_on', channel=5, note=60, velocity=0, time=0),
    Message('note_on', channel=5, note=65, velocity=0, time=0),
    Message('note_on', channel=5, note=57, velocity=0, time=0),
    Message('note_on', channel=2, note=81, velocity=0, time=0),
    Message('note_on', channel=1, note=48, velocity=127, time=0),
    Message('note_on', channel=2, note=76, velocity=71, time=0),
    Message('note_on', channel=2, note=79, velocity=58, time=0),
    Message('note_on', channel=3, note=60, velocity=100, time=0),
    Message('note_on', channel=4, note=48, velocity=82, time=0),
    Message('note_on', channel=4, note=43, velocity=82, time=0),
    Message('note_on', channel=5, note=60, velocity=80, time=0),
    Message('note_on', channel=5, note=64, velocity=80, time=0),
    Message('note_on', channel=5, note=55, velocity=80, time=0),
    Message('note_on', channel=8, note=64, velocity=78, time=0),
    Message('note_on', channel=9, note=44, velocity=80, time=0),
    Message('note_on', channel=9, note=36, velocity=120, time=0),
    MetaMessage('lyrics', text='long, ', time=0),
    MetaMessage('lyrics', text='\r', time=0),
    Message('note_on', channel=9, note=36, velocity=0, time=4),
    Message('note_on', channel=9, note=44, velocity=0, time=1),
    Message('note_on', channel=8, note=55, velocity=78, time=5),
    Message('note_on', channel=8, note=60, velocity=78, time=18),
    Message('note_on', channel=4, note=43, velocity=0, time=164),
    Message('note_on', channel=4, note=48, velocity=0, time=0),
    Message('note_on', channel=8, note=64, velocity=0, time=38),
    Message('note_on', channel=8, note=60, velocity=0, time=5),
    Message('note_on', channel=8, note=55, velocity=0, time=5),
    Message('note_on', channel=4, note=48, velocity=70, time=0),
    Message('note_on', channel=4, note=43, velocity=70, time=0),
    Message('note_on', channel=8, note=60, velocity=63, time=0),
    Message('note_on', channel=9, note=42, velocity=80, time=0),
    Message('note_on', channel=9, note=42, velocity=0, time=5),
    Message('note_on', channel=8, note=55, velocity=63, time=14),
    Message('note_on', channel=8, note=64, velocity=63, time=5),
    Message('note_on', channel=8, note=60, velocity=0, time=138),
    Message('control_change', channel=13, control=1, value=67, time=14),
    Message('note_on', channel=8, note=64, velocity=0, time=10),
    Message('note_on', channel=8, note=55, velocity=0, time=2),
    Message('note_on', channel=1, note=48, velocity=0, time=4),
    Message('note_on', channel=4, note=43, velocity=0, time=0),
    Message('note_on', channel=4, note=48, velocity=0, time=0),
    Message('note_on', channel=4, note=43, velocity=80, time=48),
    Message('note_on', channel=4, note=48, velocity=80, time=0),
    Message('note_on', channel=8, note=64, velocity=48, time=0),
    Message('note_on', channel=9, note=44, velocity=80, time=0),
    Message('note_on', channel=9, note=54, velocity=50, time=0),
    Message('note_on', channel=9, note=38, velocity=120, time=0),
    Message('note_on', channel=9, note=38, velocity=0, time=4),
    Message('note_on', channel=9, note=54, velocity=0, time=0),
    Message('note_on', channel=9, note=44, velocity=0, time=1),
    Message('note_on', channel=8, note=55, velocity=48, time=13),
    Message('note_on', channel=8, note=60, velocity=48, time=5),
    Message('note_on', channel=4, note=48, velocity=0, time=169),
    Message('note_on', channel=4, note=43, velocity=0, time=0),
    Message('note_on', channel=8, note=64, velocity=0, time=38),
    Message('note_on', channel=8, note=60, velocity=0, time=9),
    Message('note_on', channel=8, note=55, velocity=0, time=0),
    Message('note_on', channel=1, note=48, velocity=127, time=1),
    Message('note_on', channel=4, note=43, velocity=70, time=0),
    Message('note_on', channel=4, note=48, velocity=70, time=0),
    Message('note_on', channel=8, note=60, velocity=70, time=0),
    Message('note_on', channel=9, note=42, velocity=80, time=0),
    Message('note_on', channel=9, note=42, velocity=0, time=5),
    Message('note_on', channel=8, note=55, velocity=70, time=14),
    Message('note_on', channel=8, note=64, velocity=70, time=14),
    Message('note_on', channel=4, note=48, velocity=0, time=159),
    Message('note_on', channel=4, note=43, velocity=0, time=0),
    Message('note_on', channel=1, note=48, velocity=0, time=24),
    Message('note_on', channel=13, note=67, velocity=0, time=9),
    Message('note_on', channel=6, note=67, velocity=0, time=0),
    Message('note_on', channel=8, note=60, velocity=0, time=5),
    Message('note_on', channel=13, note=60, velocity=0, time=2),
    Message('note_on', channel=6, note=60, velocity=0, time=0),
    Message('control_change', channel=13, control=1, value=0, time=0),
    Message('note_on', channel=8, note=55, velocity=0, time=3),
    Message('note_on', channel=3, note=60, velocity=0, time=5),
    Message('note_on', channel=2, note=72, velocity=0, time=0),
    Message('note_on', channel=5, note=60, velocity=0, time=0),
    Message('note_on', channel=2, note=79, velocity=0, time=0),
    Message('note_on', channel=5, note=64, velocity=0, time=0),
    Message('note_on', channel=5, note=55, velocity=0, time=0),
    Message('note_on', channel=2, note=76, velocity=0, time=0),
    Message('note_on', channel=1, note=31, velocity=127, time=0),
    Message('note_on', channel=2, note=74, velocity=75, time=0),
    Message('note_on', channel=2, note=79, velocity=79, time=0),
    Message('note_on', channel=2, note=71, velocity=70, time=0),
    Message('note_on', channel=3, note=62, velocity=100, time=0),
    Message('note_on', channel=4, note=43, velocity=100, time=0),
    Message('note_on', channel=6, note=43, velocity=100, time=0),
    Message('note_on', channel=9, note=44, velocity=80, time=0),
    Message('note_on', channel=9, note=36, velocity=120, time=0),
    Message('note_on', channel=13, note=43, velocity=100, time=0),
    MetaMessage('lyrics', text='rock ', time=0),
    Message('note_on', channel=9, note=36, velocity=0, time=4),
    Message('note_on', channel=8, note=64, velocity=0, time=0),
    Message('note_on', channel=9, note=44, velocity=0, time=1),
    Message('control_change', channel=13, control=1, value=38, time=220),
    Message('note_on', channel=9, note=42, velocity=80, time=15),
    Message('note_on', channel=9, note=42, velocity=0, time=5),
    Message('note_on', channel=1, note=31, velocity=0, time=187),
    Message('control_change', channel=13, control=1, value=0, time=33),
    Message('note_on', channel=4, note=43, velocity=0, time=5),
    Message('note_on', channel=6, note=43, velocity=0, time=10),
    Message('note_on', channel=13, note=43, velocity=0, time=0),
    Message('note_on', channel=3, note=62, velocity=0, time=0),
    Message('note_on', channel=1, note=33, velocity=127, time=0),
    Message('note_on', channel=3, note=62, velocity=100, time=0),
    Message('note_on', channel=4, note=45, velocity=100, time=0),
    Message('note_on', channel=6, note=45, velocity=100, time=0),
    Message('note_on', channel=9, note=46, velocity=80, time=0),
    Message('note_on', channel=9, note=54, velocity=50, time=0),
    Message('note_on', channel=9, note=38, velocity=120, time=0),
    Message('note_on', channel=13, note=45, velocity=100, time=0),
    MetaMessage('lyrics', text='your', time=0),
    Message('note_on', channel=9, note=38, velocity=0, time=4),
    Message('note_on', channel=9, note=54, velocity=0, time=0),
    Message('note_on', channel=9, note=46, velocity=0, time=1),
    Message('note_on', channel=9, note=42, velocity=80, time=235),
    Message('control_change', channel=13, control=1, value=38, time=0),
    Message('note_on', channel=9, note=42, velocity=0, time=5),
    Message('note_on', channel=1, note=33, velocity=0, time=187),
    Message('control_change', channel=13, control=1, value=0, time=40),
    Message('note_on', channel=4, note=45, velocity=0, time=4),
    Message('note_on', channel=3, note=62, velocity=0, time=4),
    Message('note_on', channel=13, note=45, velocity=0, time=0),
    Message('note_on', channel=6, note=45, velocity=0, time=0),
    Message('note_on', channel=1, note=34, velocity=127, time=0),
    Message('note_on', channel=3, note=62, velocity=100, time=0),
    Message('note_on', channel=4, note=46, velocity=100, time=0),
    Message('note_on', channel=6, note=46, velocity=100, time=0),
    Message('note_on', channel=9, note=36, velocity=120, time=0),
    Message('note_on', channel=9, note=44, velocity=80, time=0),
    Message('note_on', channel=13, note=46, velocity=100, time=0),
    MetaMessage('lyrics', text='self ', time=0),
    Message('note_on', channel=9, note=36, velocity=0, time=4),
    Message('note_on', channel=9, note=44, velocity=0, time=1),
    Message('note_on', channel=9, note=42, velocity=80, time=235),
    Message('control_change', channel=13, control=1, value=33, time=0),
    Message('note_on', channel=9, note=42, velocity=0, time=5),
    Message('note_on', channel=1, note=34, velocity=0, time=187),
    Message('control_change', channel=13, control=1, value=0, time=26),
    Message('note_on', channel=4, note=46, velocity=0, time=12),
    Message('note_on', channel=3, note=62, velocity=0, time=10),
    Message('note_on', channel=13, note=46, velocity=0, time=0),
    Message('note_on', channel=6, note=46, velocity=0, time=0),
    Message('note_on', channel=1, note=35, velocity=127, time=0),
    Message('note_on', channel=3, note=60, velocity=100, time=0),
    Message('note_on', channel=4, note=47, velocity=100, time=0),
    Message('note_on', channel=6, note=47, velocity=100, time=0),
    Message('note_on', channel=9, note=46, velocity=80, time=0),
    Message('note_on', channel=9, note=54, velocity=50, time=0),
    Message('note_on', channel=9, note=38, velocity=120, time=0),
    Message('note_on', channel=13, note=47, velocity=100, time=0),
    MetaMessage('lyrics', text='to, ', time=0),
    Message('note_on', channel=9, note=38, velocity=0, time=4),
    Message('note_on', channel=9, note=54, velocity=0, time=0),
    Message('note_on', channel=9, note=46, velocity=0, time=1),
    Message('note_on', channel=3, note=60, velocity=0, time=235),
    Message('note_on', channel=3, note=60, velocity=100, time=0),
    Message('note_on', channel=9, note=42, velocity=80, time=0),
    MetaMessage('lyrics', text='sleep. ', time=0),
    MetaMessage('lyrics', text='\r', time=0),
    MetaMessage('lyrics', text='\n', time=0),
    Message('note_on', channel=9, note=42, velocity=0, time=5),
    Message('control_change', channel=13, control=1, value=46, time=37),
    Message('note_on', channel=9, note=38, velocity=90, time=78),
    Message('note_on', channel=9, note=38, velocity=0, time=4),
    Message('note_on', channel=1, note=35, velocity=0, time=68),
    Message('control_change', channel=13, control=1, value=0, time=26),
    Message('note_on', channel=4, note=47, velocity=0, time=18),
    Message('note_on', channel=6, note=47, velocity=0, time=4),
    Message('note_on', channel=2, note=74, velocity=0, time=0),
    Message('note_on', channel=13, note=47, velocity=0, time=0),
    Message('note_on', channel=2, note=71, velocity=0, time=0),
    Message('note_on', channel=2, note=79, velocity=0, time=0),
    Message('note_on', channel=1, note=48, velocity=127, time=0),
    Message('note_on', channel=2, note=72, velocity=62, time=0),
    Message('note_on', channel=2, note=76, velocity=75, time=0),
    Message('note_on', channel=2, note=79, velocity=62, time=0),
    Message('note_on', channel=4, note=48, velocity=87, time=0),
    Message('note_on', channel=4, note=55, velocity=87, time=0),
    Message('note_on', channel=8, note=55, velocity=80, time=0),
    Message('note_on', channel=9, note=36, velocity=120, time=0),
    Message('note_on', channel=9, note=49, velocity=80, time=0),
    Message('note_on', channel=9, note=36, velocity=0, time=4),
    Message('note_on', channel=6, note=48, velocity=100, time=0),
    Message('note_on', channel=13, note=48, velocity=100, time=0),
    Message('note_on', channel=9, note=49, velocity=0, time=1),
    Message('note_on', channel=8, note=60, velocity=80, time=11),
    Message('note_on', channel=8, note=64, velocity=80, time=7),
    Message('note_on', channel=4, note=55, velocity=0, time=169),
    Message('note_on', channel=4, note=48, velocity=0, time=0),
    Message('note_on', channel=1, note=48, velocity=0, time=24),
    Message('note_on', channel=1, note=48, velocity=127, time=24),
    Message('note_on', channel=4, note=55, velocity=72, time=0),
    Message('note_on', channel=4, note=48, velocity=72, time=0),
    Message('note_on', channel=9, note=42, velocity=80, time=0),
    Message('control_change', channel=13, control=1, value=50, time=0),
    Message('note_on', channel=9, note=42, velocity=0, time=5),
    Message('note_on', channel=4, note=48, velocity=0, time=187),
    Message('note_on', channel=4, note=55, velocity=0, time=0),
    Message('note_on', channel=8, note=64, velocity=0, time=18),
    Message('note_on', channel=13, note=48, velocity=0, time=6),
    Message('note_on', channel=6, note=48, velocity=0, time=0),
    Message('note_on', channel=1, note=48, velocity=0, time=0),
    Message('note_on', channel=8, note=55, velocity=0, time=5),
    Message('note_on', channel=3, note=60, velocity=0, time=1),
    Message('pitchwheel', channel=6, pitch=8191, time=1),
    Message('pitchwheel', channel=13, pitch=8191, time=0),
    Message('note_on', channel=8, note=60, velocity=0, time=14),
    Message('note_on', channel=4, note=48, velocity=82, time=3),
    Message('note_on', channel=4, note=57, velocity=82, time=0),
    Message('note_on', channel=6, note=62, velocity=100, time=0),
    Message('note_on', channel=7, note=67, velocity=120, time=0),
    Message('note_on', channel=9, note=54, velocity=50, time=0),
    Message('note_on', channel=9, note=44, velocity=80, time=0),
    Message('note_on', channel=9, note=38, velocity=120, time=0),
    Message('control_change', channel=13, control=1, value=0, time=0),
    Message('note_on', channel=13, note=62, velocity=100, time=0),
    Message('note_on', channel=9, note=38, velocity=0, time=4),
    Message('note_on', channel=9, note=54, velocity=0, time=0),
    Message('note_on', channel=9, note=44, velocity=0, time=1),
    Message('note_on', channel=8, note=55, velocity=59, time=4),
    Message('note_on', channel=8, note=60, velocity=59, time=6),
    Message('note_on', channel=8, note=64, velocity=59, time=4),
    Message('pitchwheel', channel=6, pitch=8191, time=98),
    Message('pitchwheel', channel=13, pitch=8191, time=0),
    Message('pitchwheel', channel=6, pitch=7808, time=7),
    Message('pitchwheel', channel=13, pitch=7808, time=0),
    Message('pitchwheel', channel=6, pitch=7296, time=7),
    Message('pitchwheel', channel=13, pitch=7296, time=0),
    Message('pitchwheel', channel=6, pitch=6784, time=7),
    Message('pitchwheel', channel=13, pitch=6784, time=0),
    Message('pitchwheel', channel=6, pitch=6272, time=7),
    Message('pitchwheel', channel=13, pitch=6272, time=0),
    Message('pitchwheel', channel=6, pitch=5888, time=7),
    Message('pitchwheel', channel=13, pitch=5888, time=0),
    Message('pitchwheel', channel=6, pitch=5376, time=8),
    Message('pitchwheel', channel=13, pitch=5376, time=0),
    Message('pitchwheel', channel=6, pitch=4864, time=7),
    Message('pitchwheel', channel=13, pitch=4864, time=0),
    Message('pitchwheel', channel=6, pitch=4352, time=7),
    Message('pitchwheel', channel=13, pitch=4352, time=0),
    Message('pitchwheel', channel=6, pitch=3968, time=7),
    Message('pitchwheel', channel=13, pitch=3968, time=0),
    Message('pitchwheel', channel=6, pitch=3456, time=7),
    Message('pitchwheel', channel=13, pitch=3456, time=0),
    Message('note_on', channel=4, note=57, velocity=0, time=4),
    Message('note_on', channel=4, note=48, velocity=0, time=0),
    Message('pitchwheel', channel=6, pitch=2944, time=3),
    Message('pitchwheel', channel=13, pitch=2944, time=0),
    Message('pitchwheel', channel=6, pitch=2432, time=7),
    Message('pitchwheel', channel=13, pitch=2432, time=0),
    Message('note_on', channel=8, note=55, velocity=0, time=4),
    Message('pitchwheel', channel=6, pitch=2048, time=3),
    Message('pitchwheel', channel=13, pitch=2048, time=0),
    Message('pitchwheel', channel=6, pitch=1536, time=7),
    Message('pitchwheel', channel=13, pitch=1536, time=0),
    Message('note_on', channel=8, note=60, velocity=0, time=3),
    Message('note_on', channel=8, note=64, velocity=0, time=4),
    Message('pitchwheel', channel=6, pitch=1024, time=0),
    Message('pitchwheel', channel=13, pitch=1024, time=0),
    Message('pitchwheel', channel=6, pitch=512, time=7),
    Message('pitchwheel', channel=13, pitch=512, time=0),
    Message('pitchwheel', channel=6, pitch=0, time=7),
    Message('pitchwheel', channel=13, pitch=0, time=0),
    Message('note_on', channel=1, note=48, velocity=127, time=3),
    Message('note_on', channel=4, note=52, velocity=70, time=0),
    Message('note_on', channel=4, note=48, velocity=70, time=0),
    Message('note_on', channel=8, note=60, velocity=50, time=0),
    Message('note_on', channel=8, note=64, velocity=50, time=0),
    Message('note_on', channel=8, note=55, velocity=50, time=0),
    Message('note_on', channel=9, note=42, velocity=80, time=0),
    Message('note_on', channel=9, note=36, velocity=120, time=0),
    Message('note_on', channel=9, note=42, velocity=0, time=5),
    Message('note_on', channel=9, note=36, velocity=0, time=11),
    Message('note_on', channel=8, note=60, velocity=0, time=68),
    Message('note_on', channel=8, note=64, velocity=0, time=0),
    Message('note_on', channel=8, note=55, velocity=0, time=7),
    Message('note_on', channel=4, note=48, velocity=0, time=101),
    Message('note_on', channel=4, note=52, velocity=0, time=0),
    Message('note_on', channel=13, note=62, velocity=0, time=20),
    Message('note_on', channel=6, note=62, velocity=0, time=0),
    Message('note_on', channel=1, note=48, velocity=0, time=4),
    Message('pitchwheel', channel=6, pitch=8191, time=0),
    Message('pitchwheel', channel=13, pitch=8191, time=0),
    Message('note_on', channel=7, note=67, velocity=0, time=24),
    Message('note_on', channel=1, note=48, velocity=127, time=0),
    Message('note_on', channel=4, note=55, velocity=82, time=0),
    Message('note_on', channel=4, note=48, velocity=82, time=0),
    Message('note_on', channel=6, note=62, velocity=100, time=0),
    Message('note_on', channel=7, note=67, velocity=120, time=0),
    Message('note_on', channel=8, note=64, velocity=78, time=0),
    Message('note_on', channel=9, note=44, velocity=80, time=0),
    Message('note_on', channel=9, note=36, velocity=120, time=0),
    Message('note_on', channel=13, note=62, velocity=100, time=0),
    Message('note_on', channel=9, note=36, velocity=0, time=4),
    Message('note_on', channel=9, note=44, velocity=0, time=1),
    Message('note_on', channel=8, note=55, velocity=78, time=5),
    Message('note_on', channel=8, note=60, velocity=78, time=18),
    Message('pitchwheel', channel=6, pitch=8191, time=132),
    Message('pitchwheel', channel=13, pitch=8191, time=0),
    Message('pitchwheel', channel=6, pitch=7680, time=7),
    Message('pitchwheel', channel=13, pitch=7680, time=0),
    Message('pitchwheel', channel=6, pitch=7040, time=7),
    Message('pitchwheel', channel=13, pitch=7040, time=0),
    Message('pitchwheel', channel=6, pitch=6528, time=7),
    Message('pitchwheel', channel=13, pitch=6528, time=0),
    Message('pitchwheel', channel=6, pitch=5888, time=7),
    Message('pitchwheel', channel=13, pitch=5888, time=0),
    Message('note_on', channel=4, note=48, velocity=0, time=4),
    Message('note_on', channel=4, note=55, velocity=0, time=0),
    Message('pitchwheel', channel=6, pitch=5376, time=3),
    Message('pitchwheel', channel=13, pitch=5376, time=0),
    Message('pitchwheel', channel=6, pitch=4736, time=7),
    Message('pitchwheel', channel=13, pitch=4736, time=0),
    Message('pitchwheel', channel=6, pitch=4096, time=7),
    Message('pitchwheel', channel=13, pitch=4096, time=0),
    Message('note_on', channel=1, note=48, velocity=0, time=7),
    Message('pitchwheel', channel=6, pitch=3584, time=0),
    Message('pitchwheel', channel=13, pitch=3584, time=0),
    Message('pitchwheel', channel=6, pitch=2944, time=7),
    Message('pitchwheel', channel=13, pitch=2944, time=0),
    Message('note_on', channel=8, note=64, velocity=0, time=7),
    Message('pitchwheel', channel=6, pitch=2432, time=0),
    Message('pitchwheel', channel=13, pitch=2432, time=0),
    Message('note_on', channel=8, note=60, velocity=0, time=5),
    Message('pitchwheel', channel=6, pitch=1792, time=2),
    Message('pitchwheel', channel=13, pitch=1792, time=0),
    Message('note_on', channel=8, note=55, velocity=0, time=3),
    Message('note_on', channel=1, note=48, velocity=127, time=0),
    Message('note_on', channel=4, note=48, velocity=70, time=0),
    Message('note_on', channel=4, note=55, velocity=70, time=0),
    Message('note_on', channel=8, note=60, velocity=63, time=0),
    Message('note_on', channel=9, note=42, velocity=80, time=0),
    Message('pitchwheel', channel=6, pitch=1280, time=4),
    Message('pitchwheel', channel=13, pitch=1280, time=0),
    Message('note_on', channel=9, note=42, velocity=0, time=1),
    Message('pitchwheel', channel=6, pitch=640, time=6),
    Message('pitchwheel', channel=13, pitch=640, time=0),
    Message('pitchwheel', channel=6, pitch=0, time=7),
    Message('pitchwheel', channel=13, pitch=0, time=0),
    Message('note_on', channel=8, note=55, velocity=63, time=1),
    Message('note_on', channel=8, note=64, velocity=63, time=5),
    Message('note_on', channel=8, note=60, velocity=0, time=138),
    Message('pitchwheel', channel=6, pitch=0, time=12),
    Message('pitchwheel', channel=13, pitch=0, time=0),
    Message('pitchwheel', channel=6, pitch=128, time=7),
    Message('pitchwheel', channel=13, pitch=128, time=0),
    Message('note_on', channel=8, note=64, velocity=0, time=5),
    Message('note_on', channel=8, note=55, velocity=0, time=2),
    Message('pitchwheel', channel=6, pitch=256, time=0),
    Message('pitchwheel', channel=13, pitch=256, time=0),
    Message('note_on', channel=4, note=55, velocity=0, time=4),
    Message('note_on', channel=4, note=48, velocity=0, time=0),
    Message('pitchwheel', channel=6, pitch=384, time=3),
    Message('pitchwheel', channel=13, pitch=384, time=0),
    Message('pitchwheel', channel=6, pitch=512, time=7),
    Message('pitchwheel', channel=13, pitch=512, time=0),
    Message('pitchwheel', channel=6, pitch=640, time=7),
    Message('pitchwheel', channel=13, pitch=640, time=0),
    Message('note_on', channel=1, note=48, velocity=0, time=7),
    Message('pitchwheel', channel=6, pitch=768, time=0),
    Message('pitchwheel', channel=13, pitch=768, time=0),
    Message('pitchwheel', channel=6, pitch=896, time=7),
    Message('pitchwheel', channel=13, pitch=896, time=0),
    Message('pitchwheel', channel=6, pitch=1024, time=7),
    Message('pitchwheel', channel=13, pitch=1024, time=0),
    Message('pitchwheel', channel=6, pitch=1152, time=7),
    Message('pitchwheel', channel=13, pitch=1152, time=0),
    Message('note_on', channel=4, note=57, velocity=80, time=3),
    Message('note_on', channel=4, note=48, velocity=80, time=0),
    Message('note_on', channel=8, note=64, velocity=48, time=0),
    Message('note_on', channel=9, note=54, velocity=50, time=0),
    Message('note_on', channel=9, note=46, velocity=80, time=0),
    Message('note_on', channel=9, note=38, velocity=120, time=0),
    Message('note_on', channel=9, note=38, velocity=0, time=4),
    Message('note_on', channel=9, note=54, velocity=0, time=0),
    Message('pitchwheel', channel=6, pitch=1280, time=0),
    Message('pitchwheel', channel=13, pitch=1280, time=0),
    Message('note_on', channel=9, note=46, velocity=0, time=1),
    Message('pitchwheel', channel=6, pitch=1408, time=6),
    Message('pitchwheel', channel=13, pitch=1408, time=0),
    Message('pitchwheel', channel=6, pitch=1536, time=7),
    Message('note_on', channel=8, note=55, velocity=48, time=0),
    Message('pitchwheel', channel=13, pitch=1536, time=0),
    Message('note_on', channel=8, note=60, velocity=48, time=5),
    Message('pitchwheel', channel=6, pitch=1664, time=2),
    Message('pitchwheel', channel=13, pitch=1664, time=0),
    Message('pitchwheel', channel=6, pitch=1792, time=7),
    Message('pitchwheel', channel=13, pitch=1792, time=0),
    Message('pitchwheel', channel=6, pitch=1920, time=8),
    Message('pitchwheel', channel=13, pitch=1920, time=0),
    Message('pitchwheel', channel=6, pitch=2048, time=7),
    Message('pitchwheel', channel=13, pitch=2048, time=0),
    Message('pitchwheel', channel=6, pitch=2176, time=7),
    Message('pitchwheel', channel=13, pitch=2176, time=0),
    Message('pitchwheel', channel=6, pitch=2304, time=7),
    Message('pitchwheel', channel=13, pitch=2304, time=0),
    Message('pitchwheel', channel=6, pitch=2432, time=7),
    Message('pitchwheel', channel=13, pitch=2432, time=0),
    Message('pitchwheel', channel=6, pitch=2560, time=7),
    Message('pitchwheel', channel=13, pitch=2560, time=0),
    Message('pitchwheel', channel=6, pitch=2688, time=7),
    Message('pitchwheel', channel=13, pitch=2688, time=0),
    Message('pitchwheel', channel=6, pitch=2816, time=7),
    Message('pitchwheel', channel=13, pitch=2816, time=0),
    Message('pitchwheel', channel=6, pitch=2944, time=7),
    Message('pitchwheel', channel=13, pitch=2944, time=0),
    Message('pitchwheel', channel=6, pitch=3072, time=7),
    Message('pitchwheel', channel=13, pitch=3072, time=0),
    Message('pitchwheel', channel=6, pitch=3200, time=7),
    Message('pitchwheel', channel=13, pitch=3200, time=0),
    Message('pitchwheel', channel=6, pitch=3328, time=7),
    Message('pitchwheel', channel=13, pitch=3328, time=0),
    Message('pitchwheel', channel=6, pitch=3456, time=7),
    Message('pitchwheel', channel=13, pitch=3456, time=0),
    Message('pitchwheel', channel=6, pitch=3584, time=7),
    Message('pitchwheel', channel=13, pitch=3584, time=0),
    Message('pitchwheel', channel=6, pitch=3712, time=7),
    Message('pitchwheel', channel=13, pitch=3712, time=0),
    Message('pitchwheel', channel=6, pitch=3840, time=7),
    Message('pitchwheel', channel=13, pitch=3840, time=0),
    Message('pitchwheel', channel=6, pitch=3968, time=7),
    Message('pitchwheel', channel=13, pitch=3968, time=0),
    Message('pitchwheel', channel=6, pitch=4096, time=8),
    Message('pitchwheel', channel=13, pitch=4096, time=0),
    Message('pitchwheel', channel=6, pitch=4224, time=7),
    Message('pitchwheel', channel=13, pitch=4224, time=0),
    Message('pitchwheel', channel=6, pitch=4352, time=7),
    Message('pitchwheel', channel=13, pitch=4352, time=0),
    Message('pitchwheel', channel=6, pitch=4480, time=7),
    Message('pitchwheel', channel=13, pitch=4480, time=0),
    Message('pitchwheel', channel=6, pitch=4608, time=7),
    Message('pitchwheel', channel=13, pitch=4608, time=0),
    Message('note_on', channel=4, note=57, velocity=0, time=4),
    Message('note_on', channel=4, note=48, velocity=0, time=0),
    Message('pitchwheel', channel=6, pitch=4736, time=3),
    Message('pitchwheel', channel=13, pitch=4736, time=0),
    Message('pitchwheel', channel=6, pitch=4864, time=7),
    Message('pitchwheel', channel=13, pitch=4864, time=0),
    Message('pitchwheel', channel=6, pitch=4992, time=7),
    Message('pitchwheel', channel=13, pitch=4992, time=0),
    Message('pitchwheel', channel=6, pitch=5120, time=7),
    Message('pitchwheel', channel=13, pitch=5120, time=0),
    Message('pitchwheel', channel=6, pitch=5248, time=7),
    Message('pitchwheel', channel=13, pitch=5248, time=0),
    Message('note_on', channel=8, note=64, velocity=0, time=7),
    Message('pitchwheel', channel=6, pitch=5376, time=0),
    Message('pitchwheel', channel=13, pitch=5376, time=0),
    Message('pitchwheel', channel=6, pitch=5504, time=7),
    Message('pitchwheel', channel=13, pitch=5504, time=0),
    Message('note_on', channel=8, note=55, velocity=0, time=2),
    Message('note_on', channel=8, note=60, velocity=0, time=0),
    Message('note_on', channel=1, note=48, velocity=127, time=1),
    Message('note_on', channel=4, note=48, velocity=70, time=0),
    Message('note_on', channel=4, note=52, velocity=70, time=0),
    Message('note_on', channel=8, note=60, velocity=70, time=0),
    Message('note_on', channel=9, note=42, velocity=80, time=0),
    Message('pitchwheel', channel=6, pitch=5632, time=4),
    Message('pitchwheel', channel=13, pitch=5632, time=0),
    Message('note_on', channel=9, note=42, velocity=0, time=1),
    Message('pitchwheel', channel=6, pitch=5760, time=6),
    Message('pitchwheel', channel=13, pitch=5760, time=0),
    Message('pitchwheel', channel=6, pitch=5888, time=7),
    Message('pitchwheel', channel=13, pitch=5888, time=0),
    Message('note_on', channel=8, note=55, velocity=70, time=1),
    Message('pitchwheel', channel=6, pitch=6016, time=6),
    Message('pitchwheel', channel=13, pitch=6016, time=0),
    Message('pitchwheel', channel=6, pitch=6144, time=7),
    Message('pitchwheel', channel=13, pitch=6144, time=0),
    Message('note_on', channel=8, note=64, velocity=70, time=1),
    Message('pitchwheel', channel=6, pitch=6272, time=7),
    Message('pitchwheel', channel=13, pitch=6272, time=0),
    Message('pitchwheel', channel=6, pitch=6400, time=7),
    Message('pitchwheel', channel=13, pitch=6400, time=0),
    Message('pitchwheel', channel=6, pitch=6528, time=7),
    Message('pitchwheel', channel=13, pitch=6528, time=0),
    Message('pitchwheel', channel=6, pitch=6656, time=7),
    Message('pitchwheel', channel=13, pitch=6656, time=0),
    Message('pitchwheel', channel=6, pitch=6784, time=7),
    Message('pitchwheel', channel=13, pitch=6784, time=0),
    Message('pitchwheel', channel=6, pitch=6912, time=7),
    Message('pitchwheel', channel=13, pitch=6912, time=0),
    Message('pitchwheel', channel=6, pitch=7040, time=7),
    Message('pitchwheel', channel=13, pitch=7040, time=0),
    Message('pitchwheel', channel=6, pitch=7168, time=7),
    Message('pitchwheel', channel=13, pitch=7168, time=0),
    Message('pitchwheel', channel=6, pitch=7296, time=7),
    Message('pitchwheel', channel=13, pitch=7296, time=0),
    Message('pitchwheel', channel=6, pitch=7424, time=7),
    Message('pitchwheel', channel=13, pitch=7424, time=0),
    Message('pitchwheel', channel=6, pitch=7552, time=7),
    Message('pitchwheel', channel=13, pitch=7552, time=0),
    Message('pitchwheel', channel=6, pitch=7680, time=7),
    Message('pitchwheel', channel=13, pitch=7680, time=0),
    Message('note_on', channel=9, note=54, velocity=50, time=3),
    Message('note_on', channel=9, note=38, velocity=90, time=0),
    Message('note_on', channel=9, note=38, velocity=0, time=4),
    Message('note_on', channel=9, note=54, velocity=0, time=0),
    Message('pitchwheel', channel=6, pitch=7808, time=0),
    Message('pitchwheel', channel=13, pitch=7808, time=0),
    Message('pitchwheel', channel=6, pitch=7936, time=7),
    Message('pitchwheel', channel=13, pitch=7936, time=0),
    Message('pitchwheel', channel=6, pitch=8064, time=7),
    Message('pitchwheel', channel=13, pitch=8064, time=0),
    Message('pitchwheel', channel=6, pitch=8191, time=7),
    Message('pitchwheel', channel=13, pitch=8191, time=0),
    Message('note_on', channel=4, note=48, velocity=0, time=47),
    Message('note_on', channel=4, note=52, velocity=0, time=0),
    Message('note_on', channel=1, note=48, velocity=0, time=24),
    Message('note_on', channel=8, note=60, velocity=0, time=14),
    Message('note_on', channel=8, note=55, velocity=0, time=5),
    Message('pitchwheel', channel=6, pitch=-128, time=2),
    Message('pitchwheel', channel=13, pitch=-128, time=0),
    Message('note_on', channel=7, note=67, velocity=0, time=3),
    Message('note_on', channel=1, note=48, velocity=127, time=0),
    Message('note_on', channel=4, note=55, velocity=86, time=0),
    Message('note_on', channel=4, note=48, velocity=86, time=0),
    Message('note_on', channel=8, note=55, velocity=80, time=0),
    Message('note_on', channel=9, note=44, velocity=80, time=0),
    Message('note_on', channel=9, note=36, velocity=120, time=0),
    Message('note_on', channel=9, note=36, velocity=0, time=4),
    Message('note_on', channel=8, note=64, velocity=0, time=0),
    Message('note_on', channel=6, note=62, velocity=0, time=0),
    Message('note_on', channel=13, note=62, velocity=0, time=0),
    Message('note_on', channel=9, note=44, velocity=0, time=1),
    Message('pitchwheel', channel=6, pitch=0, time=9),
    Message('pitchwheel', channel=13, pitch=0, time=0),
    Message('note_on', channel=8, note=60, velocity=80, time=2),
    Message('note_on', channel=8, note=64, velocity=80, time=7),
    Message('note_on', channel=4, note=55, velocity=0, time=169),
    Message('note_on', channel=4, note=48, velocity=0, time=0),
    Message('note_on', channel=1, note=48, velocity=0, time=24),
    Message('note_on', channel=1, note=48, velocity=127, time=24),
    Message('note_on', channel=4, note=48, velocity=69, time=0),
    Message('note_on', channel=4, note=55, velocity=69, time=0),
    Message('note_on', channel=6, note=64, velocity=100, time=0),
    Message('note_on', channel=7, note=67, velocity=120, time=0),
    Message('note_on', channel=9, note=42, velocity=80, time=0),
    Message('note_on', channel=13, note=64, velocity=100, time=0),
    Message('note_on', channel=9, note=42, velocity=0, time=5),
    Message('note_on', channel=4, note=48, velocity=0, time=187),
    Message('note_on', channel=4, note=55, velocity=0, time=0),
    Message('note_on', channel=8, note=64, velocity=0, time=18),
    Message('note_on', channel=1, note=48, velocity=0, time=6),
    Message('note_on', channel=8, note=55, velocity=0, time=5),
    Message('note_on', channel=8, note=60, velocity=0, time=16),
    Message('note_on', channel=6, note=64, velocity=0, time=3),
    Message('note_on', channel=13, note=64, velocity=0, time=0),
    Message('note_on', channel=7, note=67, velocity=0, time=0),
    Message('note_on', channel=4, note=57, velocity=83, time=0),
    Message('note_on', channel=4, note=48, velocity=83, time=0),
    Message('note_on', channel=6, note=62, velocity=100, time=0),
    Message('note_on', channel=7, note=67, velocity=120, time=0),
    Message('note_on', channel=9, note=54, velocity=50, time=0),
    Message('note_on', channel=9, note=44, velocity=80, time=0),
    Message('note_on', channel=9, note=38, velocity=120, time=0),
    Message('note_on', channel=13, note=62, velocity=100, time=0),
    Message('note_on', channel=9, note=38, velocity=0, time=4),
    Message('note_on', channel=9, note=54, velocity=0, time=0),
    Message('note_on', channel=9, note=44, velocity=0, time=1),
    Message('note_on', channel=8, note=55, velocity=59, time=4),
    Message('note_on', channel=8, note=60, velocity=59, time=6),
    Message('note_on', channel=8, note=64, velocity=59, time=4),
    Message('note_on', channel=4, note=48, velocity=0, time=173),
    Message('note_on', channel=4, note=57, velocity=0, time=0),
    Message('note_on', channel=8, note=55, velocity=0, time=14),
    Message('note_on', channel=8, note=60, velocity=0, time=13),
    Message('note_on', channel=8, note=64, velocity=0, time=4),
    Message('note_on', channel=6, note=62, velocity=0, time=17),
    Message('note_on', channel=13, note=62, velocity=0, time=0),
    Message('note_on', channel=7, note=67, velocity=0, time=0),
    Message('note_on', channel=1, note=48, velocity=127, time=0),
    Message('note_on', channel=4, note=48, velocity=72, time=0),
    Message('note_on', channel=4, note=52, velocity=72, time=0),
    Message('note_on', channel=6, note=60, velocity=100, time=0),
    Message('note_on', channel=8, note=55, velocity=50, time=0),
    Message('note_on', channel=8, note=60, velocity=50, time=0),
    Message('note_on', channel=8, note=64, velocity=50, time=0),
    Message('note_on', channel=9, note=42, velocity=80, time=0),
    Message('note_on', channel=13, note=60, velocity=100, time=0),
    Message('note_on', channel=9, note=42, velocity=0, time=5),
    Message('note_on', channel=8, note=64, velocity=0, time=79),
    Message('note_on', channel=8, note=60, velocity=0, time=0),
    Message('note_on', channel=8, note=55, velocity=0, time=7),
    Message('note_on', channel=4, note=52, velocity=0, time=101),
    Message('note_on', channel=4, note=48, velocity=0, time=0),
    Message('note_on', channel=1, note=48, velocity=0, time=24),
    Message('note_on', channel=6, note=60, velocity=0, time=24),
    Message('note_on', channel=13, note=60, velocity=0, time=0),
    Message('note_on', channel=1, note=40, velocity=127, time=0),
    Message('note_on', channel=4, note=55, velocity=80, time=0),
    Message('note_on', channel=4, note=48, velocity=80, time=0),
    Message('note_on', channel=6, note=57, velocity=100, time=0),
    Message('note_on', channel=8, note=64, velocity=78, time=0),
    Message('note_on', channel=9, note=47, velocity=80, time=0),
    Message('note_on', channel=9, note=44, velocity=80, time=0),
    Message('note_on', channel=9, note=36, velocity=120, time=0),
    Message('note_on', channel=13, note=57, velocity=100, time=0),
    Message('note_on', channel=9, note=36, velocity=0, time=4),
    Message('note_on', channel=9, note=44, velocity=0, time=1),
    Message('note_on', channel=8, note=55, velocity=78, time=5),
    Message('note_on', channel=9, note=47, velocity=0, time=6),
    Message('note_on', channel=8, note=60, velocity=78, time=12),
    Message('note_on', channel=4, note=48, velocity=0, time=164),
    Message('note_on', channel=4, note=55, velocity=0, time=0),
    Message('note_on', channel=1, note=40, velocity=0, time=24),
    Message('note_on', channel=8, note=64, velocity=0, time=14),
    Message('note_on', channel=8, note=60, velocity=0, time=5),
    Message('note_on', channel=6, note=57, velocity=0, time=5),
    Message('note_on', channel=13, note=57, velocity=0, time=0),
    Message('note_on', channel=8, note=55, velocity=0, time=0),
    Message('note_on', channel=1, note=40, velocity=127, time=0),
    Message('note_on', channel=4, note=48, velocity=71, time=0),
    Message('note_on', channel=4, note=55, velocity=71, time=0),
    Message('note_on', channel=6, note=55, velocity=100, time=0),
    Message('note_on', channel=8, note=60, velocity=63, time=0),
    Message('note_on', channel=9, note=42, velocity=80, time=0),
    Message('note_on', channel=9, note=47, velocity=86, time=0),
    Message('note_on', channel=13, note=55, velocity=100, time=0),
    Message('note_on', channel=9, note=42, velocity=0, time=5),
    Message('note_on', channel=9, note=47, velocity=0, time=11),
    Message('note_on', channel=8, note=55, velocity=63, time=3),
    Message('note_on', channel=8, note=64, velocity=63, time=5),
    Message('note_on', channel=8, note=60, velocity=0, time=138),
    Message('note_on', channel=8, note=64, velocity=0, time=24),
    Message('note_on', channel=8, note=55, velocity=0, time=2),
    Message('note_on', channel=4, note=55, velocity=0, time=4),
    Message('note_on', channel=4, note=48, velocity=0, time=0),
    Message('note_on', channel=1, note=40, velocity=0, time=24),
    Message('note_on', channel=13, note=55, velocity=0, time=16),
    Message('note_on', channel=6, note=55, velocity=0, time=0),
    Message('note_on', channel=1, note=43, velocity=127, time=8),
    Message('note_on', channel=3, note=57, velocity=100, time=0),
    Message('note_on', channel=4, note=48, velocity=86, time=0),
    Message('note_on', channel=4, note=57, velocity=86, time=0),
    Message('note_on', channel=6, note=50, velocity=100, time=0),
    Message('pitchwheel', channel=6, pitch=8064, time=0),
    Message('note_on', channel=8, note=64, velocity=48, time=0),
    Message('note_on', channel=9, note=45, velocity=93, time=0),
    Message('note_on', channel=9, note=44, velocity=80, time=0),
    Message('note_on', channel=9, note=54, velocity=50, time=0),
    Message('note_on', channel=9, note=38, velocity=120, time=0),
    Message('note_on', channel=13, note=50, velocity=100, time=0),
    Message('pitchwheel', channel=13, pitch=8064, time=0),
    MetaMessage('lyrics', text="I've ", time=0),
    Message('note_on', channel=9, note=38, velocity=0, time=4),
    Message('note_on', channel=9, note=54, velocity=0, time=0),
    Message('note_on', channel=9, note=44, velocity=0, time=1),
    Message('note_on', channel=9, note=45, velocity=0, time=11),
    Message('note_on', channel=8, note=55, velocity=48, time=2),
    Message('note_on', channel=8, note=60, velocity=48, time=5),
    Message('pitchwheel', channel=6, pitch=8191, time=68),
    Message('pitchwheel', channel=13, pitch=8191, time=0),
    Message('pitchwheel', channel=6, pitch=7424, time=7),
    Message('pitchwheel', channel=13, pitch=7424, time=0),
    Message('pitchwheel', channel=6, pitch=6656, time=7),
    Message('pitchwheel', channel=13, pitch=6656, time=0),
    Message('pitchwheel', channel=6, pitch=5760, time=7),
    Message('pitchwheel', channel=13, pitch=5760, time=0),
    Message('pitchwheel', channel=6, pitch=4992, time=8),
    Message('pitchwheel', channel=13, pitch=4992, time=0),
    Message('pitchwheel', channel=6, pitch=4096, time=7),
    Message('pitchwheel', channel=13, pitch=4096, time=0),
    Message('pitchwheel', channel=6, pitch=3328, time=7),
    Message('pitchwheel', channel=13, pitch=3328, time=0),
    Message('pitchwheel', channel=6, pitch=2560, time=7),
    Message('pitchwheel', channel=13, pitch=2560, time=0),
    Message('pitchwheel', channel=6, pitch=1664, time=7),
    Message('pitchwheel', channel=13, pitch=1664, time=0),
    Message('pitchwheel', channel=6, pitch=896, time=7),
    Message('pitchwheel', channel=13, pitch=896, time=0),
    Message('pitchwheel', channel=6, pitch=0, time=7),
    Message('pitchwheel', channel=13, pitch=0, time=0),
    Message('note_on', channel=4, note=57, velocity=0, time=30),
    Message('note_on', channel=4, note=48, velocity=0, time=0),
    Message('note_on', channel=1, note=43, velocity=0, time=24),
    Message('note_on', channel=8, note=64, velocity=0, time=14),
    Message('note_on', channel=8, note=55, velocity=0, time=9),
    Message('note_on', channel=8, note=60, velocity=0, time=0),
    Message('note_on', channel=6, note=50, velocity=0, time=1),
    Message('note_on', channel=13, note=50, velocity=0, time=0),
    Message('note_on', channel=1, note=40, velocity=127, time=0),
    Message('note_on', channel=3, note=60, velocity=100, time=0),
    Message('note_on', channel=4, note=52, velocity=70, time=0),
    Message('note_on', channel=4, note=48, velocity=70, time=0),
    Message('note_on', channel=6, note=48, velocity=100, time=0),
    Message('note_on', channel=8, note=60, velocity=70, time=0),
    Message('note_on', channel=9, note=42, velocity=80, time=0),
    Message('note_on', channel=9, note=43, velocity=100, time=0),
    Message('note_on', channel=13, note=48, velocity=100, time=0),
    MetaMessage('lyrics', text='been, ', time=0),
    Message('note_on', channel=9, note=42, velocity=0, time=5),
    Message('note_on', channel=9, note=43, velocity=0, time=11),
    Message('note_on', channel=8, note=55, velocity=70, time=3),
    Message('note_on', channel=8, note=64, velocity=70, time=14),
    Message('note_on', channel=3, note=57, velocity=0, time=87),
    Message('note_on', channel=4, note=48, velocity=0, time=72),
    Message('note_on', channel=4, note=52, velocity=0, time=0),
    Message('note_on', channel=1, note=40, velocity=0, time=24),
    Message('note_on', channel=8, note=60, velocity=0, time=14),
    Message('note_on', channel=8, note=55, velocity=0, time=5),
    Message('note_on', channel=2, note=79, velocity=0, time=5),
    Message('note_on', channel=3, note=60, velocity=0, time=0),
    Message('note_on', channel=13, note=48, velocity=0, time=0),
    Message('note_on', channel=2, note=76, velocity=0, time=0),
    Message('note_on', channel=2, note=72, velocity=0, time=0),
    Message('note_on', channel=6, note=48, velocity=0, time=0),
    Message('note_on', channel=1, note=48, velocity=127, time=0),
    Message('note_on', channel=2, note=72, velocity=67, time=0),
    Message('note_on', channel=2, note=79, velocity=81, time=0),
    Message('note_on', channel=2, note=76, velocity=75, time=0),
    Message('note_on', channel=3, note=63, velocity=100, time=0),
    Message('note_on', channel=4, note=55, velocity=86, time=0),
    Message('note_on', channel=4, note=48, velocity=86, time=0),
    Message('note_on', channel=8, note=55, velocity=80, time=0),
    Message('note_on', channel=9, note=36, velocity=120, time=0),
    Message('note_on', channel=9, note=49, velocity=80, time=0),
    MetaMessage('lyrics', text='do', time=0),
    Message('note_on', channel=9, note=36, velocity=0, time=4),
    Message('note_on', channel=8, note=64, velocity=0, time=0),
    Message('note_on', channel=9, note=49, velocity=0, time=1),
    Message('note_on', channel=8, note=60, velocity=80, time=11),
    Message('note_on', channel=8, note=64, velocity=80, time=7),
    Message('note_on', channel=4, note=48, velocity=0, time=169),
    Message('note_on', channel=4, note=55, velocity=0, time=0),
    Message('note_on', channel=1, note=48, velocity=0, time=24),
    Message('note_on', channel=3, note=63, velocity=0, time=24),
    Message('note_on', channel=1, note=48, velocity=127, time=0),
    Message('note_on', channel=3, note=62, velocity=100, time=0),
    Message('note_on', channel=4, note=48, velocity=69, time=0),
    Message('note_on', channel=4, note=55, velocity=69, time=0),
    Message('note_on', channel=9, note=42, velocity=80, time=0),
    MetaMessage('lyrics', text="in' ", time=0),
    Message('note_on', channel=9, note=42, velocity=0, time=5),
    Message('note_on', channel=4, note=55, velocity=0, time=187),
    Message('note_on', channel=4, note=48, velocity=0, time=0),
    Message('note_on', channel=8, note=64, velocity=0, time=18),
    Message('note_on', channel=1, note=48, velocity=0, time=6),
    Message('note_on', channel=8, note=55, velocity=0, time=5),
    Message('note_on', channel=8, note=60, velocity=0, time=16),
    Message('note_on', channel=4, note=57, velocity=83, time=3),
    Message('note_on', channel=4, note=48, velocity=83, time=0),
    Message('note_on', channel=9, note=54, velocity=50, time=0),
    Message('note_on', channel=9, note=44, velocity=80, time=0),
    Message('note_on', channel=9, note=38, velocity=120, time=0),
    Message('note_on', channel=9, note=38, velocity=0, time=4),
    Message('note_on', channel=9, note=54, velocity=0, time=0),
    Message('note_on', channel=9, note=44, velocity=0, time=1),
    Message('note_on', channel=8, note=55, velocity=59, time=4),
    Message('note_on', channel=8, note=60, velocity=59, time=6),
    Message('note_on', channel=8, note=64, velocity=59, time=4),
    Message('note_on', channel=4, note=57, velocity=0, time=173),
    Message('note_on', channel=4, note=48, velocity=0, time=0),
    Message('note_on', channel=8, note=55, velocity=0, time=14),
    Message('note_on', channel=8, note=60, velocity=0, time=13),
    Message('note_on', channel=8, note=64, velocity=0, time=4),
    Message('note_on', channel=3, note=62, velocity=0, time=17),
    Message('note_on', channel=1, note=48, velocity=127, time=0),
    Message('note_on', channel=3, note=60, velocity=100, time=0),
    Message('note_on', channel=4, note=52, velocity=72, time=0),
    Message('note_on', channel=4, note=48, velocity=72, time=0),
    Message('note_on', channel=8, note=60, velocity=50, time=0),
    Message('note_on', channel=8, note=55, velocity=50, time=0),
    Message('note_on', channel=8, note=64, velocity=50, time=0),
    Message('note_on', channel=9, note=42, velocity=80, time=0),
    Message('note_on', channel=9, note=36, velocity=120, time=0),
    MetaMessage('lyrics', text='time, ', time=0),
    MetaMessage('lyrics', text='\r', time=0),
    Message('note_on', channel=9, note=36, velocity=0, time=4),
    Message('note_on', channel=9, note=42, velocity=0, time=1),
    Message('note_on', channel=8, note=64, velocity=0, time=79),
    Message('note_on', channel=8, note=60, velocity=0, time=0),
    Message('note_on', channel=8, note=55, velocity=0, time=7),
    Message('note_on', channel=4, note=48, velocity=0, time=101),
    Message('note_on', channel=4, note=52, velocity=0, time=0),
    Message('note_on', channel=1, note=48, velocity=0, time=24),
    Message('note_on', channel=1, note=48, velocity=127, time=24),
    Message('note_on', channel=4, note=48, velocity=80, time=0),
    Message('note_on', channel=4, note=58, velocity=80, time=0),
    Message('note_on', channel=8, note=64, velocity=78, time=0),
    Message('note_on', channel=9, note=36, velocity=120, time=0),
    Message('note_on', channel=9, note=44, velocity=80, time=0),
    Message('note_on', channel=9, note=36, velocity=0, time=4),
    Message('note_on', channel=9, note=44, velocity=0, time=1),
    Message('note_on', channel=8, note=55, velocity=78, time=5),
    Message('note_on', channel=8, note=60, velocity=78, time=18),
    Message('note_on', channel=4, note=58, velocity=0, time=164),
    Message('note_on', channel=4, note=48, velocity=0, time=0),
    Message('note_on', channel=1, note=48, velocity=0, time=24),
    Message('note_on', channel=8, note=64, velocity=0, time=14),
    Message('note_on', channel=8, note=60, velocity=0, time=5),
    Message('note_on', channel=8, note=55, velocity=0, time=5),
    Message('note_on', channel=1, note=48, velocity=127, time=0),
    Message('note_on', channel=4, note=48, velocity=71, time=0),
    Message('note_on', channel=4, note=57, velocity=71, time=0),
    Message('note_on', channel=8, note=60, velocity=63, time=0),
    Message('note_on', channel=9, note=42, velocity=80, time=0),
    Message('note_on', channel=9, note=42, velocity=0, time=5),
    Message('note_on', channel=8, note=55, velocity=63, time=14),
    Message('note_on', channel=8, note=64, velocity=63, time=5),
    Message('note_on', channel=8, note=60, velocity=0, time=138),
    Message('note_on', channel=8, note=64, velocity=0, time=24),
    Message('note_on', channel=8, note=55, velocity=0, time=2),
    Message('note_on', channel=4, note=57, velocity=0, time=4),
    Message('note_on', channel=4, note=48, velocity=0, time=0),
    Message('note_on', channel=1, note=48, velocity=0, time=24),
    Message('note_on', channel=3, note=60, velocity=0, time=24),
    Message('note_on', channel=3, note=57, velocity=100, time=0),
    Message('note_on', channel=4, note=48, velocity=86, time=0),
    Message('note_on', channel=4, note=57, velocity=86, time=0),
    Message('note_on', channel=8, note=64, velocity=48, time=0),
    Message('note_on', channel=9, note=54, velocity=50, time=0),
    Message('note_on', channel=9, note=44, velocity=80, time=0),
    Message('note_on', channel=9, note=38, velocity=120, time=0),
    MetaMessage('lyrics', text='in ', time=0),
    Message('note_on', channel=9, note=38, velocity=0, time=4),
    Message('note_on', channel=9, note=54, velocity=0, time=0),
    Message('note_on', channel=9, note=44, velocity=0, time=1),
    Message('note_on', channel=8, note=55, velocity=48, time=13),
    Message('note_on', channel=8, note=60, velocity=48, time=5),
    Message('note_on', channel=4, note=57, velocity=0, time=169),
    Message('note_on', channel=4, note=48, velocity=0, time=0),
    Message('note_on', channel=8, note=64, velocity=0, time=38),
    Message('note_on', channel=8, note=60, velocity=0, time=9),
    Message('note_on', channel=8, note=55, velocity=0, time=0),
    Message('note_on', channel=3, note=57, velocity=0, time=1),
    Message('note_on', channel=1, note=48, velocity=127, time=0),
    Message('note_on', channel=3, note=55, velocity=100, time=0),
    Message('note_on', channel=4, note=48, velocity=70, time=0),
    Message('note_on', channel=4, note=55, velocity=70, time=0),
    Message('note_on', channel=8, note=60, velocity=70, time=0),
    Message('note_on', channel=9, note=42, velocity=80, time=0),
    MetaMessage('lyrics', text='a, ', time=0),
    Message('note_on', channel=9, note=42, velocity=0, time=5),
    Message('note_on', channel=8, note=55, velocity=70, time=14),
    Message('note_on', channel=8, note=64, velocity=70, time=14),
    Message('note_on', channel=1, note=48, velocity=0, time=183),
    Message('note_on', channel=8, note=60, velocity=0, time=14),
    Message('note_on', channel=8, note=55, velocity=0, time=5),
    Message('note_on', channel=3, note=55, velocity=0, time=5),
    Message('note_on', channel=3, note=63, velocity=100, time=0),
    Message('note_on', channel=8, note=55, velocity=80, time=0),
    Message('note_on', channel=9, note=36, velocity=120, time=0),
    Message('note_on', channel=9, note=44, velocity=80, time=0),
    MetaMessage('lyrics', text='lo', time=0),
    Message('note_on', channel=9, note=36, velocity=0, time=4),
    Message('note_on', channel=8, note=64, velocity=0, time=0),
    Message('note_on', channel=9, note=44, velocity=0, time=1),
    Message('note_on', channel=8, note=60, velocity=80, time=11),
    Message('note_on', channel=8, note=64, velocity=80, time=7),
    Message('note_on', channel=4, note=55, velocity=0, time=195),
    Message('note_on', channel=4, note=48, velocity=0, time=14),
    Message('note_on', channel=1, note=48, velocity=127, time=8),
    Message('note_on', channel=4, note=48, velocity=72, time=0),
    Message('note_on', channel=4, note=55, velocity=72, time=0),
    Message('note_on', channel=9, note=42, velocity=80, time=0),
    Message('note_on', channel=9, note=42, velocity=0, time=5),
    Message('note_on', channel=4, note=55, velocity=0, time=187),
    Message('note_on', channel=4, note=48, velocity=0, time=0),
    Message('note_on', channel=8, note=64, velocity=0, time=18),
    Message('note_on', channel=1, note=48, velocity=0, time=6),
    Message('note_on', channel=8, note=55, velocity=0, time=5),
    Message('note_on', channel=8, note=60, velocity=0, time=16),
    Message('note_on', channel=3, note=63, velocity=0, time=3),
    Message('note_on', channel=3, note=62, velocity=100, time=0),
    Message('note_on', channel=4, note=57, velocity=82, time=0),
    Message('note_on', channel=4, note=48, velocity=82, time=0),
    Message('note_on', channel=9, note=44, velocity=80, time=0),
    Message('note_on', channel=9, note=54, velocity=50, time=0),
    Message('note_on', channel=9, note=38, velocity=120, time=0),
    MetaMessage('lyrics', text='ne ', time=0),
    Message('note_on', channel=9, note=38, velocity=0, time=4),
    Message('note_on', channel=9, note=54, velocity=0, time=0),
    Message('note_on', channel=9, note=44, velocity=0, time=1),
    Message('note_on', channel=8, note=55, velocity=59, time=4),
    Message('note_on', channel=8, note=60, velocity=59, time=6),
    Message('note_on', channel=8, note=64, velocity=59, time=4),
    Message('note_on', channel=4, note=57, velocity=0, time=173),
    Message('note_on', channel=4, note=48, velocity=0, time=0),
    Message('note_on', channel=8, note=55, velocity=0, time=14),
    Message('note_on', channel=8, note=60, velocity=0, time=13),
    Message('note_on', channel=8, note=64, velocity=0, time=4),
    Message('note_on', channel=1, note=48, velocity=127, time=17),
    Message('note_on', channel=4, note=48, velocity=70, time=0),
    Message('note_on', channel=4, note=52, velocity=70, time=0),
    Message('note_on', channel=8, note=64, velocity=50, time=0),
    Message('note_on', channel=8, note=55, velocity=50, time=0),
    Message('note_on', channel=8, note=60, velocity=50, time=0),
    Message('note_on', channel=9, note=42, velocity=80, time=0),
    Message('note_on', channel=9, note=42, velocity=0, time=5),
    Message('note_on', channel=8, note=60, velocity=0, time=79),
    Message('note_on', channel=8, note=64, velocity=0, time=0),
    Message('note_on', channel=8, note=55, velocity=0, time=7),
    Message('note_on', channel=4, note=52, velocity=0, time=101),
    Message('note_on', channel=4, note=48, velocity=0, time=0),
    Message('note_on', channel=1, note=48, velocity=0, time=24),
    Message('note_on', channel=3, note=62, velocity=0, time=24),
    Message('note_on', channel=1, note=48, velocity=127, time=0),
    Message('note_on', channel=3, note=60, velocity=100, time=0),
    Message('note_on', channel=4, note=55, velocity=82, time=0),
    Message('note_on', channel=4, note=48, velocity=82, time=0),
    Message('note_on', channel=8, note=64, velocity=78, time=0),
    Message('note_on', channel=9, note=44, velocity=80, time=0),
    Message('note_on', channel=9, note=36, velocity=120, time=0),
    MetaMessage('lyrics', text='some ', time=0),
    Message('note_on', channel=9, note=36, velocity=0, time=4),
    Message('note_on', channel=9, note=44, velocity=0, time=1),
    Message('note_on', channel=8, note=55, velocity=78, time=5),
    Message('note_on', channel=8, note=60, velocity=78, time=18),
    Message('note_on', channel=4, note=48, velocity=0, time=164),
    Message('note_on', channel=4, note=55, velocity=0, time=0),
    Message('note_on', channel=1, note=48, velocity=0, time=24),
    Message('note_on', channel=8, note=64, velocity=0, time=14),
    Message('note_on', channel=8, note=60, velocity=0, time=5),
    Message('note_on', channel=8, note=55, velocity=0, time=5),
    Message('note_on', channel=3, note=60, velocity=0, time=0),
    Message('note_on', channel=1, note=48, velocity=127, time=0),
    Message('note_on', channel=3, note=57, velocity=100, time=0),
    Message('note_on', channel=4, note=48, velocity=70, time=0),
    Message('note_on', channel=4, note=55, velocity=70, time=0),
    Message('note_on', channel=8, note=60, velocity=63, time=0),
    Message('note_on', channel=9, note=42, velocity=80, time=0),
    MetaMessage('lyrics', text='pri', time=0),
    Message('note_on', channel=9, note=42, velocity=0, time=5),
    Message('note_on', channel=8, note=55, velocity=63, time=14),
    Message('note_on', channel=8, note=64, velocity=63, time=5),
    Message('note_on', channel=8, note=60, velocity=0, time=138),
    Message('note_on', channel=8, note=64, velocity=0, time=24),
    Message('note_on', channel=8, note=55, velocity=0, time=2),
    Message('note_on', channel=4, note=55, velocity=0, time=4),
    Message('note_on', channel=4, note=48, velocity=0, time=0),
    Message('note_on', channel=1, note=48, velocity=0, time=24),
    Message('note_on', channel=3, note=57, velocity=0, time=24),
    Message('note_on', channel=1, note=45, velocity=127, time=0),
    Message('note_on', channel=3, note=55, velocity=100, time=0),
    Message('note_on', channel=4, note=48, velocity=80, time=0),
    Message('note_on', channel=4, note=57, velocity=80, time=0),
    Message('note_on', channel=8, note=64, velocity=48, time=0),
    Message('note_on', channel=9, note=54, velocity=50, time=0),
    Message('note_on', channel=9, note=46, velocity=80, time=0),
    Message('note_on', channel=9, note=38, velocity=120, time=0),
    MetaMessage('lyrics', text='son, ', time=0),
    MetaMessage('lyrics', text='\r', time=0),
    Message('note_on', channel=9, note=38, velocity=0, time=4),
    Message('note_on', channel=9, note=54, velocity=0, time=0),
    Message('note_on', channel=9, note=46, velocity=0, time=1),
    Message('note_on', channel=8, note=55, velocity=48, time=13),
    Message('note_on', channel=8, note=60, velocity=48, time=5),
    Message('note_on', channel=4, note=57, velocity=0, time=169),
    Message('note_on', channel=4, note=48, velocity=0, time=0),
    Message('note_on', channel=1, note=45, velocity=0, time=24),
    Message('note_on', channel=8, note=64, velocity=0, time=14),
    Message('note_on', channel=8, note=55, velocity=0, time=9),
    Message('note_on', channel=8, note=60, velocity=0, time=0),
    Message('note_on', channel=3, note=55, velocity=0, time=1),
    Message('note_on', channel=1, note=40, velocity=127, time=0),
    Message('note_on', channel=4, note=48, velocity=70, time=0),
    Message('note_on', channel=4, note=52, velocity=70, time=0),
    Message('note_on', channel=8, note=60, velocity=70, time=0),
    Message('note_on', channel=9, note=42, velocity=80, time=0),
    Message('note_on', channel=9, note=42, velocity=0, time=5),
    Message('note_on', channel=8, note=55, velocity=70, time=14),
    Message('note_on', channel=8, note=64, velocity=70, time=14),
    Message('note_on', channel=4, note=52, velocity=0, time=159),
    Message('note_on', channel=4, note=48, velocity=0, time=0),
    Message('note_on', channel=1, note=40, velocity=0, time=24),
    Message('note_on', channel=8, note=60, velocity=0, time=14),
    Message('note_on', channel=8, note=55, velocity=0, time=5),
    Message('note_on', channel=2, note=76, velocity=0, time=5),
    Message('note_on', channel=2, note=79, velocity=0, time=0),
    Message('note_on', channel=1, note=41, velocity=127, time=0),
    Message('note_on', channel=2, note=81, velocity=61, time=0),
    Message('note_on', channel=2, note=77, velocity=67, time=0),
    Message('note_on', channel=4, note=48, velocity=86, time=0),
    Message('note_on', channel=4, note=41, velocity=86, time=0),
    Message('note_on', channel=8, note=57, velocity=80, time=0),
    Message('note_on', channel=9, note=36, velocity=120, time=0),
    Message('note_on', channel=9, note=44, velocity=80, time=0),
    Message('note_on', channel=9, note=36, velocity=0, time=4),
    Message('note_on', channel=8, note=64, velocity=0, time=0),
    Message('note_on', channel=9, note=44, velocity=0, time=1),
    Message('note_on', channel=8, note=60, velocity=80, time=11),
    Message('note_on', channel=8, note=65, velocity=80, time=7),
    Message('note_on', channel=4, note=41, velocity=0, time=169),
    Message('note_on', channel=4, note=48, velocity=0, time=0),
    Message('note_on', channel=1, note=41, velocity=0, time=24),
    Message('note_on', channel=1, note=41, velocity=127, time=24),
    Message('note_on', channel=4, note=41, velocity=69, time=0),
    Message('note_on', channel=4, note=48, velocity=69, time=0),
    Message('note_on', channel=9, note=42, velocity=80, time=0),
    Message('note_on', channel=9, note=42, velocity=0, time=5),
    Message('note_on', channel=4, note=48, velocity=0, time=187),
    Message('note_on', channel=4, note=41, velocity=0, time=0),
    Message('note_on', channel=8, note=65, velocity=0, time=18),
    Message('note_on', channel=1, note=41, velocity=0, time=6),
    Message('note_on', channel=8, note=57, velocity=0, time=5),
    Message('note_on', channel=8, note=60, velocity=0, time=16),
    Message('note_on', channel=3, note=57, velocity=100, time=3),
    Message('note_on', channel=4, note=41, velocity=83, time=0),
    Message('note_on', channel=4, note=50, velocity=83, time=0),
    Message('note_on', channel=9, note=54, velocity=50, time=0),
    Message('note_on', channel=9, note=44, velocity=80, time=0),
    Message('note_on', channel=9, note=38, velocity=120, time=0),
    MetaMessage('lyrics', text='where ', time=0),
    Message('note_on', channel=9, note=38, velocity=0, time=4),
    Message('note_on', channel=9, note=54, velocity=0, time=0),
    Message('note_on', channel=9, note=44, velocity=0, time=1),
    Message('note_on', channel=8, note=57, velocity=59, time=4),
    Message('note_on', channel=8, note=60, velocity=59, time=6),
    Message('note_on', channel=8, note=65, velocity=59, time=4),
    Message('note_on', channel=4, note=41, velocity=0, time=173),
    Message('note_on', channel=4, note=50, velocity=0, time=0),
    Message('note_on', channel=8, note=57, velocity=0, time=14),
    Message('note_on', channel=8, note=60, velocity=0, time=13),
    Message('note_on', channel=8, note=65, velocity=0, time=4),
    Message('note_on', channel=1, note=41, velocity=127, time=17),
    Message('note_on', channel=3, note=60, velocity=100, time=0),
    Message('note_on', channel=4, note=41, velocity=72, time=0),
    Message('note_on', channel=4, note=45, velocity=72, time=0),
    Message('note_on', channel=8, note=57, velocity=50, time=0),
    Message('note_on', channel=8, note=60, velocity=50, time=0),
    Message('note_on', channel=8, note=65, velocity=50, time=0),
    Message('note_on', channel=9, note=36, velocity=120, time=0),
    Message('note_on', channel=9, note=42, velocity=80, time=0),
    MetaMessage('lyrics', text='the ', time=0),
    Message('note_on', channel=9, note=42, velocity=0, time=5),
    Message('note_on', channel=9, note=36, velocity=0, time=11),
    Message('note_on', channel=8, note=60, velocity=0, time=68),
    Message('note_on', channel=8, note=65, velocity=0, time=0),
    Message('note_on', channel=8, note=57, velocity=0, time=7),
    Message('note_on', channel=3, note=57, velocity=0, time=29),
    Message('note_on', channel=4, note=45, velocity=0, time=72),
    Message('note_on', channel=4, note=41, velocity=0, time=0),
    Message('note_on', channel=1, note=41, velocity=0, time=24),
    Message('note_on', channel=3, note=60, velocity=0, time=24),
    Message('note_on', channel=1, note=41, velocity=127, time=0),
    Message('note_on', channel=3, note=63, velocity=100, time=0),
    Message('note_on', channel=4, note=51, velocity=80, time=0),
    Message('note_on', channel=4, note=41, velocity=80, time=0),
    Message('note_on', channel=8, note=65, velocity=78, time=0),
    Message('note_on', channel=9, note=44, velocity=80, time=0),
    Message('note_on', channel=9, note=36, velocity=120, time=0),
    MetaMessage('lyrics', text='sun ', time=0),
    Message('note_on', channel=9, note=36, velocity=0, time=4),
    Message('note_on', channel=9, note=44, velocity=0, time=1),
    Message('note_on', channel=8, note=57, velocity=78, time=5),
    Message('note_on', channel=8, note=60, velocity=78, time=18),
    Message('note_on', channel=4, note=41, velocity=0, time=164),
    Message('note_on', channel=4, note=51, velocity=0, time=0),
    Message('note_on', channel=1, note=41, velocity=0, time=24),
    Message('note_on', channel=8, note=65, velocity=0, time=14),
    Message('note_on', channel=8, note=60, velocity=0, time=5),
    Message('note_on', channel=8, note=57, velocity=0, time=5),
    Message('note_on', channel=3, note=63, velocity=0, time=0),
    Message('note_on', channel=1, note=41, velocity=127, time=0),
    Message('note_on', channel=3, note=62, velocity=100, time=0),
    Message('note_on', channel=4, note=48, velocity=71, time=0),
    Message('note_on', channel=4, note=41, velocity=71, time=0),
    Message('note_on', channel=8, note=60, velocity=63, time=0),
    Message('note_on', channel=9, note=42, velocity=80, time=0),
    MetaMessage('lyrics', text="don't ", time=0),
    Message('note_on', channel=9, note=42, velocity=0, time=5),
    Message('note_on', channel=8, note=57, velocity=63, time=14),
    Message('note_on', channel=8, note=65, velocity=63, time=5),
    Message('note_on', channel=8, note=60, velocity=0, time=138),
    Message('note_on', channel=8, note=65, velocity=0, time=24),
    Message('note_on', channel=8, note=57, velocity=0, time=2),
    Message('note_on', channel=4, note=41, velocity=0, time=4),
    Message('note_on', channel=4, note=48, velocity=0, time=0),
    Message('note_on', channel=1, note=41, velocity=0, time=24),
    Message('note_on', channel=4, note=50, velocity=86, time=24),
    Message('note_on', channel=4, note=41, velocity=86, time=0),
    Message('note_on', channel=8, note=65, velocity=48, time=0),
    Message('note_on', channel=9, note=44, velocity=80, time=0),
    Message('note_on', channel=9, note=54, velocity=50, time=0),
    Message('note_on', channel=9, note=38, velocity=120, time=0),
    Message('note_on', channel=9, note=38, velocity=0, time=4),
    Message('note_on', channel=9, note=54, velocity=0, time=0),
    Message('note_on', channel=9, note=44, velocity=0, time=1),
    Message('note_on', channel=8, note=57, velocity=48, time=13),
    Message('note_on', channel=8, note=60, velocity=48, time=5),
    Message('note_on', channel=4, note=41, velocity=0, time=169),
    Message('note_on', channel=4, note=50, velocity=0, time=0),
    Message('note_on', channel=8, note=65, velocity=0, time=38),
    Message('note_on', channel=8, note=60, velocity=0, time=9),
    Message('note_on', channel=8, note=57, velocity=0, time=0),
    Message('note_on', channel=3, note=62, velocity=0, time=1),
    Message('note_on', channel=1, note=41, velocity=127, time=0),
    Message('note_on', channel=3, note=60, velocity=100, time=0),
    Message('note_on', channel=4, note=48, velocity=70, time=0),
    Message('note_on', channel=4, note=41, velocity=70, time=0),
    Message('note_on', channel=8, note=60, velocity=70, time=0),
    Message('note_on', channel=9, note=42, velocity=80, time=0),
    MetaMessage('lyrics', text='shine, ', time=0),
    MetaMessage('lyrics', text='\r', time=0),
    Message('note_on', channel=9, note=42, velocity=0, time=5),
    Message('note_on', channel=8, note=57, velocity=70, time=14),
    Message('note_on', channel=8, note=65, velocity=70, time=14),
    Message('note_on', channel=1, note=41, velocity=0, time=183),
    Message('note_on', channel=8, note=60, velocity=0, time=14),
    Message('note_on', channel=8, note=57, velocity=0, time=5),
    Message('note_on', channel=8, note=57, velocity=80, time=5),
    Message('note_on', channel=9, note=44, velocity=80, time=0),
    Message('note_on', channel=9, note=36, velocity=120, time=0),
    Message('note_on', channel=9, note=36, velocity=0, time=4),
    Message('note_on', channel=8, note=65, velocity=0, time=0),
    Message('note_on', channel=9, note=44, velocity=0, time=1),
    Message('note_on', channel=8, note=60, velocity=80, time=11),
    Message('note_on', channel=8, note=65, velocity=80, time=7),
    Message('note_on', channel=4, note=41, velocity=0, time=125),
    Message('note_on', channel=4, note=48, velocity=0, time=4),
    Message('pitchwheel', channel=6, pitch=-8192, time=52),
    Message('pitchwheel', channel=13, pitch=-8192, time=0),
    Message('note_on', channel=1, note=41, velocity=127, time=36),
    Message('note_on', channel=4, note=48, velocity=72, time=0),
    Message('note_on', channel=4, note=41, velocity=72, time=0),
    Message('note_on', channel=6, note=67, velocity=100, time=0),
    Message('note_on', channel=7, note=70, velocity=120, time=0),
    Message('note_on', channel=9, note=42, velocity=80, time=0),
    Message('note_on', channel=13, note=67, velocity=100, time=0),
    Message('note_on', channel=9, note=42, velocity=0, time=5),
    Message('pitchwheel', channel=6, pitch=-8192, time=44),
    Message('pitchwheel', channel=13, pitch=-8192, time=0),
    Message('pitchwheel', channel=6, pitch=-8064, time=7),
    Message('pitchwheel', channel=13, pitch=-8064, time=0),
    Message('pitchwheel', channel=6, pitch=-7808, time=7),
    Message('pitchwheel', channel=13, pitch=-7808, time=0),
    Message('pitchwheel', channel=6, pitch=-7424, time=7),
    Message('pitchwheel', channel=13, pitch=-7424, time=0),
    Message('pitchwheel', channel=6, pitch=-7168, time=7),
    Message('pitchwheel', channel=13, pitch=-7168, time=0),
    Message('pitchwheel', channel=6, pitch=-6784, time=7),
    Message('pitchwheel', channel=13, pitch=-6784, time=0),
    Message('pitchwheel', channel=6, pitch=-6528, time=7),
    Message('pitchwheel', channel=13, pitch=-6528, time=0),
    Message('pitchwheel', channel=6, pitch=-6272, time=7),
    Message('pitchwheel', channel=13, pitch=-6272, time=0),
    Message('pitchwheel', channel=6, pitch=-5888, time=7),
    Message('pitchwheel', channel=13, pitch=-5888, time=0),
    Message('pitchwheel', channel=6, pitch=-5632, time=7),
    Message('pitchwheel', channel=13, pitch=-5632, time=0),
    Message('pitchwheel', channel=6, pitch=-5248, time=8),
    Message('pitchwheel', channel=13, pitch=-5248, time=0),
    Message('pitchwheel', channel=6, pitch=-4992, time=7),
    Message('pitchwheel', channel=13, pitch=-4992, time=0),
    Message('pitchwheel', channel=6, pitch=-4736, time=7),
    Message('pitchwheel', channel=13, pitch=-4736, time=0),
    Message('pitchwheel', channel=6, pitch=-4352, time=7),
    Message('pitchwheel', channel=13, pitch=-4352, time=0),
    Message('pitchwheel', channel=6, pitch=-4096, time=7),
    Message('pitchwheel', channel=13, pitch=-4096, time=0),
    Message('pitchwheel', channel=6, pitch=-3712, time=7),
    Message('pitchwheel', channel=13, pitch=-3712, time=0),
    Message('pitchwheel', channel=6, pitch=-3456, time=7),
    Message('pitchwheel', channel=13, pitch=-3456, time=0),
    Message('pitchwheel', channel=6, pitch=-3200, time=7),
    Message('pitchwheel', channel=13, pitch=-3200, time=0),
    Message('pitchwheel', channel=6, pitch=-2816, time=7),
    Message('pitchwheel', channel=13, pitch=-2816, time=0),
    Message('pitchwheel', channel=6, pitch=-2560, time=7),
    Message('pitchwheel', channel=13, pitch=-2560, time=0),
    Message('pitchwheel', channel=6, pitch=-2176, time=7),
    Message('pitchwheel', channel=13, pitch=-2176, time=0),
    Message('note_on', channel=4, note=48, velocity=0, time=2),
    Message('note_on', channel=4, note=41, velocity=0, time=0),
    Message('pitchwheel', channel=6, pitch=-1920, time=5),
    Message('pitchwheel', channel=13, pitch=-1920, time=0),
    Message('pitchwheel', channel=6, pitch=-1664, time=7),
    Message('pitchwheel', channel=13, pitch=-1664, time=0),
    Message('note_on', channel=8, note=65, velocity=0, time=6),
    Message('pitchwheel', channel=6, pitch=-1280, time=1),
    Message('pitchwheel', channel=13, pitch=-1280, time=0),
    Message('note_on', channel=1, note=41, velocity=0, time=5),
    Message('pitchwheel', channel=6, pitch=-1024, time=2),
    Message('pitchwheel', channel=13, pitch=-1024, time=0),
    Message('note_on', channel=8, note=57, velocity=0, time=3),
    Message('pitchwheel', channel=6, pitch=-640, time=4),
    Message('pitchwheel', channel=13, pitch=-640, time=0),
    Message('pitchwheel', channel=6, pitch=-384, time=7),
    Message('pitchwheel', channel=13, pitch=-384, time=0),
    Message('note_on', channel=8, note=60, velocity=0, time=5),
    Message('note_on', channel=4, note=50, velocity=82, time=3),
    Message('note_on', channel=4, note=41, velocity=82, time=0),
    Message('pitchwheel', channel=6, pitch=0, time=0),
    Message('note_on', channel=9, note=54, velocity=50, time=0),
    Message('note_on', channel=9, note=44, velocity=80, time=0),
    Message('note_on', channel=9, note=38, velocity=120, time=0),
    Message('pitchwheel', channel=13, pitch=0, time=0),
    Message('note_on', channel=9, note=38, velocity=0, time=4),
    Message('note_on', channel=9, note=54, velocity=0, time=0),
    Message('note_on', channel=9, note=44, velocity=0, time=1),
    Message('note_on', channel=8, note=57, velocity=59, time=4),
    Message('note_on', channel=8, note=60, velocity=59, time=6),
    Message('note_on', channel=8, note=65, velocity=59, time=4),
    Message('note_on', channel=4, note=50, velocity=0, time=173),
    Message('note_on', channel=4, note=41, velocity=0, time=0),
    Message('control_change', channel=13, control=1, value=62, time=5),
    Message('note_on', channel=8, note=57, velocity=0, time=9),
    Message('note_on', channel=8, note=60, velocity=0, time=13),
    Message('note_on', channel=8, note=65, velocity=0, time=4),
    Message('note_on', channel=3, note=60, velocity=0, time=17),
    Message('note_on', channel=1, note=41, velocity=127, time=0),
    Message('note_on', channel=4, note=45, velocity=70, time=0),
    Message('note_on', channel=4, note=41, velocity=70, time=0),
    Message('note_on', channel=8, note=60, velocity=50, time=0),
    Message('note_on', channel=8, note=65, velocity=50, time=0),
    Message('note_on', channel=8, note=57, velocity=50, time=0),
    Message('note_on', channel=9, note=42, velocity=80, time=0),
    Message('note_on', channel=9, note=42, velocity=0, time=5),
    Message('note_on', channel=8, note=60, velocity=0, time=79),
    Message('note_on', channel=8, note=65, velocity=0, time=0),
    Message('note_on', channel=8, note=57, velocity=0, time=7),
    Message('note_on', channel=4, note=41, velocity=0, time=101),
    Message('note_on', channel=4, note=45, velocity=0, time=0),
    Message('note_on', channel=1, note=41, velocity=0, time=24),
    Message('note_on', channel=13, note=67, velocity=0, time=16),
    Message('note_on', channel=6, note=67, velocity=0, time=0),
    Message('pitchwheel', channel=6, pitch=8191, time=0),
    Message('control_change', channel=13, control=1, value=0, time=0),
    Message('pitchwheel', channel=13, pitch=8191, time=0),
    Message('note_on', channel=7, note=70, velocity=0, time=8),
    Message('note_on', channel=1, note=43, velocity=127, time=0),
    Message('note_on', channel=4, note=41, velocity=82, time=0),
    Message('note_on', channel=4, note=48, velocity=82, time=0),
    Message('note_on', channel=6, note=65, velocity=100, time=0),
    Message('note_on', channel=7, note=70, velocity=120, time=0),
    Message('note_on', channel=8, note=65, velocity=78, time=0),
    Message('note_on', channel=9, note=44, velocity=80, time=0),
    Message('note_on', channel=9, note=36, velocity=120, time=0),
    Message('note_on', channel=13, note=65, velocity=100, time=0),
    Message('note_on', channel=9, note=36, velocity=0, time=4),
    Message('note_on', channel=9, note=44, velocity=0, time=1),
    Message('note_on', channel=8, note=57, velocity=78, time=5),
    Message('note_on', channel=8, note=60, velocity=78, time=18),
    Message('pitchwheel', channel=6, pitch=8064, time=113),
    Message('pitchwheel', channel=13, pitch=8064, time=0),
    Message('pitchwheel', channel=6, pitch=7680, time=7),
    Message('pitchwheel', channel=13, pitch=7680, time=0),
    Message('pitchwheel', channel=6, pitch=7168, time=7),
    Message('pitchwheel', channel=13, pitch=7168, time=0),
    Message('pitchwheel', channel=6, pitch=6784, time=7),
    Message('pitchwheel', channel=13, pitch=6784, time=0),
    Message('pitchwheel', channel=6, pitch=6272, time=7),
    Message('pitchwheel', channel=13, pitch=6272, time=0),
    Message('pitchwheel', channel=6, pitch=5888, time=7),
    Message('pitchwheel', channel=13, pitch=5888, time=0),
    Message('pitchwheel', channel=6, pitch=5376, time=7),
    Message('pitchwheel', channel=13, pitch=5376, time=0),
    Message('pitchwheel', channel=6, pitch=4992, time=7),
    Message('pitchwheel', channel=13, pitch=4992, time=0),
    Message('note_on', channel=4, note=48, velocity=0, time=2),
    Message('note_on', channel=4, note=41, velocity=0, time=0),
    Message('pitchwheel', channel=6, pitch=4480, time=5),
    Message('pitchwheel', channel=13, pitch=4480, time=0),
    Message('pitchwheel', channel=6, pitch=4096, time=7),
    Message('pitchwheel', channel=13, pitch=4096, time=0),
    Message('pitchwheel', channel=6, pitch=3584, time=7),
    Message('pitchwheel', channel=13, pitch=3584, time=0),
    Message('note_on', channel=1, note=43, velocity=0, time=5),
    Message('pitchwheel', channel=6, pitch=3200, time=2),
    Message('pitchwheel', channel=13, pitch=3200, time=0),
    Message('pitchwheel', channel=6, pitch=2688, time=7),
    Message('pitchwheel', channel=13, pitch=2688, time=0),
    Message('note_on', channel=8, note=65, velocity=0, time=5),
    Message('pitchwheel', channel=6, pitch=2304, time=2),
    Message('pitchwheel', channel=13, pitch=2304, time=0),
    Message('note_on', channel=8, note=60, velocity=0, time=3),
    Message('note_on', channel=7, note=70, velocity=0, time=5),
    Message('note_on', channel=8, note=57, velocity=0, time=0),
    Message('note_on', channel=1, note=43, velocity=127, time=0),
    Message('note_on', channel=4, note=48, velocity=70, time=0),
    Message('note_on', channel=4, note=41, velocity=70, time=0),
    Message('pitchwheel', channel=6, pitch=1792, time=0),
    Message('note_on', channel=7, note=70, velocity=120, time=0),
    Message('note_on', channel=8, note=60, velocity=63, time=0),
    Message('note_on', channel=9, note=36, velocity=120, time=0),
    Message('note_on', channel=9, note=42, velocity=80, time=0),
    Message('pitchwheel', channel=13, pitch=1792, time=0),
    Message('note_on', channel=9, note=36, velocity=0, time=4),
    Message('note_on', channel=9, note=42, velocity=0, time=1),
    Message('pitchwheel', channel=6, pitch=1408, time=2),
    Message('pitchwheel', channel=13, pitch=1408, time=0),
    Message('pitchwheel', channel=6, pitch=896, time=7),
    Message('pitchwheel', channel=13, pitch=896, time=0),
    Message('note_on', channel=8, note=57, velocity=63, time=5),
    Message('pitchwheel', channel=6, pitch=512, time=2),
    Message('pitchwheel', channel=13, pitch=512, time=0),
    Message('note_on', channel=8, note=65, velocity=63, time=3),
    Message('pitchwheel', channel=6, pitch=0, time=4),
    Message('pitchwheel', channel=13, pitch=0, time=0),
    Message('note_on', channel=8, note=60, velocity=0, time=134),
    Message('note_on', channel=8, note=65, velocity=0, time=24),
    Message('note_on', channel=8, note=57, velocity=0, time=2),
    Message('note_on', channel=4, note=41, velocity=0, time=4),
    Message('note_on', channel=4, note=48, velocity=0, time=0),
    Message('note_on', channel=1, note=43, velocity=0, time=24),
    Message('note_on', channel=6, note=65, velocity=0, time=24),
    Message('note_on', channel=7, note=70, velocity=0, time=0),
    Message('note_on', channel=13, note=65, velocity=0, time=0),
    Message('note_on', channel=1, note=45, velocity=127, time=0),
    Message('note_on', channel=4, note=41, velocity=80, time=0),
    Message('note_on', channel=4, note=50, velocity=80, time=0),
    Message('note_on', channel=6, note=63, velocity=100, time=0),
    Message('note_on', channel=7, note=67, velocity=120, time=0),
    Message('note_on', channel=8, note=65, velocity=48, time=0),
    Message('note_on', channel=9, note=54, velocity=50, time=0),
    Message('note_on', channel=9, note=46, velocity=80, time=0),
    Message('note_on', channel=9, note=38, velocity=120, time=0),
    Message('note_on', channel=13, note=63, velocity=100, time=0),
    Message('note_on', channel=9, note=38, velocity=0, time=4),
    Message('note_on', channel=9, note=54, velocity=0, time=0),
    Message('note_on', channel=9, note=46, velocity=0, time=1),
    Message('note_on', channel=8, note=57, velocity=48, time=13),
    Message('note_on', channel=8, note=60, velocity=48, time=5),
    Message('note_on', channel=4, note=50, velocity=0, time=169),
    Message('note_on', channel=4, note=41, velocity=0, time=0),
    Message('note_on', channel=1, note=45, velocity=0, time=24),
    Message('note_on', channel=8, note=65, velocity=0, time=14),
    Message('note_on', channel=8, note=57, velocity=0, time=9),
    Message('note_on', channel=8, note=60, velocity=0, time=0),
    Message('note_on', channel=6, note=63, velocity=0, time=1),
    Message('note_on', channel=7, note=67, velocity=0, time=0),
    Message('note_on', channel=13, note=63, velocity=0, time=0),
    Message('note_on', channel=1, note=45, velocity=127, time=0),
    Message('note_on', channel=4, note=41, velocity=70, time=0),
    Message('note_on', channel=4, note=45, velocity=70, time=0),
    Message('note_on', channel=6, note=64, velocity=100, time=0),
    Message('note_on', channel=7, note=67, velocity=120, time=0),
    Message('note_on', channel=8, note=60, velocity=70, time=0),
    Message('note_on', channel=9, note=42, velocity=80, time=0),
    Message('note_on', channel=13, note=64, velocity=100, time=0),
    Message('note_on', channel=9, note=42, velocity=0, time=5),
    Message('note_on', channel=8, note=57, velocity=70, time=14),
    Message('note_on', channel=8, note=65, velocity=70, time=14),
    Message('note_on', channel=4, note=45, velocity=0, time=159),
    Message('note_on', channel=4, note=41, velocity=0, time=0),
    Message('note_on', channel=1, note=45, velocity=0, time=24),
    Message('note_on', channel=8, note=60, velocity=0, time=14),
    Message('note_on', channel=8, note=57, velocity=0, time=5),
    Message('note_on', channel=2, note=77, velocity=0, time=5),
    Message('note_on', channel=7, note=67, velocity=0, time=0),
    Message('note_on', channel=13, note=64, velocity=0, time=0),
    Message('note_on', channel=2, note=81, velocity=0, time=0),
    Message('note_on', channel=6, note=64, velocity=0, time=0),
    Message('note_on', channel=1, note=48, velocity=127, time=0),
    Message('note_on', channel=2, note=76, velocity=70, time=0),
    Message('note_on', channel=2, note=79, velocity=77, time=0),
    Message('note_on', channel=3, note=60, velocity=100, time=0),
    Message('note_on', channel=4, note=48, velocity=86, time=0),
    Message('note_on', channel=4, note=55, velocity=86, time=0),
    Message('note_on', channel=5, note=55, velocity=80, time=0),
    Message('note_on', channel=5, note=64, velocity=80, time=0),
    Message('note_on', channel=5, note=60, velocity=80, time=0),
    Message('note_on', channel=6, note=60, velocity=100, time=0),
    Message('note_on', channel=7, note=64, velocity=120, time=0),
    Message('note_on', channel=8, note=55, velocity=80, time=0),
    Message('note_on', channel=9, note=44, velocity=80, time=0),
    Message('note_on', channel=9, note=36, velocity=120, time=0),
    Message('note_on', channel=13, note=60, velocity=100, time=0),
    MetaMessage('lyrics', text='and ', time=0),
    Message('note_on', channel=9, note=36, velocity=0, time=4),
    Message('note_on', channel=8, note=65, velocity=0, time=0),
    Message('note_on', channel=9, note=44, velocity=0, time=1),
    Message('note_on', channel=8, note=60, velocity=80, time=11),
    Message('note_on', channel=8, note=64, velocity=80, time=7),
    Message('note_on', channel=4, note=55, velocity=0, time=169),
    Message('note_on', channel=4, note=48, velocity=0, time=0),
    Message('note_on', channel=1, note=48, velocity=0, time=24),
    Message('note_on', channel=5, note=55, velocity=0, time=24),
    Message('note_on', channel=5, note=60, velocity=0, time=0),
    Message('note_on', channel=5, note=64, velocity=0, time=0),
    Message('note_on', channel=3, note=60, velocity=0, time=0),
    Message('note_on', channel=1, note=48, velocity=127, time=0),
    Message('note_on', channel=3, note=64, velocity=100, time=0),
    Message('note_on', channel=4, note=55, velocity=69, time=0),
    Message('note_on', channel=4, note=48, velocity=69, time=0),
    Message('note_on', channel=5, note=60, velocity=80, time=0),
    Message('note_on', channel=5, note=67, velocity=80, time=0),
    Message('note_on', channel=5, note=64, velocity=80, time=0),
    Message('note_on', channel=9, note=42, velocity=80, time=0),
    MetaMessage('lyrics', text='just ', time=0),
    Message('note_on', channel=9, note=42, velocity=0, time=5),
    Message('note_on', channel=4, note=48, velocity=0, time=187),
    Message('note_on', channel=4, note=55, velocity=0, time=0),
    Message('note_on', channel=8, note=64, velocity=0, time=18),
    Message('note_on', channel=1, note=48, velocity=0, time=6),
    Message('note_on', channel=8, note=55, velocity=0, time=5),
    Message('note_on', channel=8, note=60, velocity=0, time=16),
    Message('note_on', channel=4, note=57, velocity=83, time=3),
    Message('note_on', channel=4, note=48, velocity=83, time=0),
    Message('note_on', channel=9, note=44, velocity=80, time=0),
    Message('note_on', channel=9, note=54, velocity=50, time=0),
    Message('note_on', channel=9, note=38, velocity=120, time=0),
    Message('note_on', channel=9, note=38, velocity=0, time=4),
    Message('note_on', channel=9, note=54, velocity=0, time=0),
    Message('note_on', channel=9, note=44, velocity=0, time=1),
    Message('note_on', channel=8, note=55, velocity=59, time=4),
    Message('note_on', channel=8, note=60, velocity=59, time=6),
    Message('note_on', channel=8, note=64, velocity=59, time=4),
    Message('control_change', channel=13, control=1, value=42, time=30),
    Message('note_on', channel=4, note=57, velocity=0, time=143),
    Message('note_on', channel=4, note=48, velocity=0, time=0),
    Message('note_on', channel=8, note=55, velocity=0, time=14),
    Message('note_on', channel=8, note=60, velocity=0, time=13),
    Message('note_on', channel=8, note=64, velocity=0, time=4),
    Message('note_on', channel=5, note=64, velocity=0, time=17),
    Message('note_on', channel=3, note=64, velocity=0, time=0),
    Message('note_on', channel=5, note=67, velocity=0, time=0),
    Message('note_on', channel=5, note=60, velocity=0, time=0),
    Message('note_on', channel=1, note=48, velocity=127, time=0),
    Message('note_on', channel=3, note=64, velocity=100, time=0),
    Message('note_on', channel=4, note=48, velocity=72, time=0),
    Message('note_on', channel=4, note=52, velocity=72, time=0),
    Message('note_on', channel=5, note=60, velocity=80, time=0),
    Message('note_on', channel=5, note=67, velocity=80, time=0),
    Message('note_on', channel=5, note=64, velocity=80, time=0),
    Message('note_on', channel=8, note=64, velocity=50, time=0),
    Message('note_on', channel=8, note=60, velocity=50, time=0),
    Message('note_on', channel=8, note=55, velocity=50, time=0),
    Message('note_on', channel=9, note=36, velocity=120, time=0),
    Message('note_on', channel=9, note=42, velocity=80, time=0),
    MetaMessage('lyrics', text='out', time=0),
    Message('note_on', channel=9, note=42, velocity=0, time=5),
    Message('note_on', channel=9, note=36, velocity=0, time=11),
    Message('control_change', channel=13, control=1, value=72, time=47),
    Message('note_on', channel=8, note=60, velocity=0, time=21),
    Message('note_on', channel=8, note=64, velocity=0, time=0),
    Message('note_on', channel=8, note=55, velocity=0, time=7),
    Message('note_on', channel=4, note=48, velocity=0, time=101),
    Message('note_on', channel=4, note=52, velocity=0, time=0),
    Message('note_on', channel=1, note=48, velocity=0, time=24),
    Message('note_on', channel=1, note=48, velocity=127, time=24),
    Message('note_on', channel=4, note=48, velocity=80, time=0),
    Message('note_on', channel=4, note=58, velocity=80, time=0),
    Message('note_on', channel=8, note=64, velocity=78, time=0),
    Message('note_on', channel=9, note=36, velocity=120, time=0),
    Message('note_on', channel=9, note=44, velocity=80, time=0),
    Message('note_on', channel=9, note=36, velocity=0, time=4),
    Message('note_on', channel=9, note=44, velocity=0, time=1),
    Message('note_on', channel=8, note=55, velocity=78, time=5),
    Message('note_on', channel=8, note=60, velocity=78, time=18),
    Message('note_on', channel=4, note=58, velocity=0, time=164),
    Message('note_on', channel=4, note=48, velocity=0, time=0),
    Message('note_on', channel=1, note=48, velocity=0, time=24),
    Message('note_on', channel=8, note=64, velocity=0, time=14),
    Message('note_on', channel=3, note=64, velocity=0, time=1),
    Message('note_on', channel=8, note=60, velocity=0, time=4),
    Message('note_on', channel=8, note=55, velocity=0, time=5),
    Message('note_on', channel=1, note=48, velocity=127, time=0),
    Message('note_on', channel=4, note=48, velocity=71, time=0),
    Message('note_on', channel=4, note=55, velocity=71, time=0),
    Message('note_on', channel=8, note=60, velocity=63, time=0),
    Message('note_on', channel=9, note=42, velocity=80, time=0),
    Message('note_on', channel=9, note=42, velocity=0, time=5),
    Message('note_on', channel=3, note=64, velocity=100, time=3),
    MetaMessage('lyrics', text='side, ', time=0),
    MetaMessage('lyrics', text='\r', time=0),
    Message('note_on', channel=8, note=55, velocity=63, time=11),
    Message('note_on', channel=8, note=64, velocity=63, time=5),
    Message('control_change', channel=13, control=1, value=92, time=67),
    Message('note_on', channel=8, note=60, velocity=0, time=71),
    Message('note_on', channel=8, note=64, velocity=0, time=24),
    Message('note_on', channel=8, note=55, velocity=0, time=2),
    Message('note_on', channel=4, note=55, velocity=0, time=4),
    Message('note_on', channel=4, note=48, velocity=0, time=0),
    Message('note_on', channel=1, note=48, velocity=0, time=24),
    Message('note_on', channel=4, note=48, velocity=86, time=24),
    Message('note_on', channel=4, note=57, velocity=86, time=0),
    Message('note_on', channel=8, note=64, velocity=48, time=0),
    Message('note_on', channel=9, note=44, velocity=80, time=0),
    Message('note_on', channel=9, note=54, velocity=50, time=0),
    Message('note_on', channel=9, note=38, velocity=120, time=0),
    Message('note_on', channel=9, note=38, velocity=0, time=4),
    Message('note_on', channel=9, note=54, velocity=0, time=0),
    Message('note_on', channel=9, note=44, velocity=0, time=1),
    Message('note_on', channel=8, note=55, velocity=48, time=13),
    Message('note_on', channel=8, note=60, velocity=48, time=5),
    Message('note_on', channel=3, note=64, velocity=0, time=145),
    Message('note_on', channel=4, note=48, velocity=0, time=24),
    Message('note_on', channel=4, note=57, velocity=0, time=0),
    Message('note_on', channel=8, note=64, velocity=0, time=38),
    Message('note_on', channel=8, note=55, velocity=0, time=9),
    Message('note_on', channel=8, note=60, velocity=0, time=0),
    Message('note_on', channel=5, note=60, velocity=0, time=1),
    Message('note_on', channel=5, note=67, velocity=0, time=0),
    Message('note_on', channel=5, note=64, velocity=0, time=0),
    Message('note_on', channel=1, note=48, velocity=127, time=0),
    Message('note_on', channel=3, note=64, velocity=100, time=0),
    Message('note_on', channel=4, note=48, velocity=70, time=0),
    Message('note_on', channel=4, note=55, velocity=70, time=0),
    Message('note_on', channel=5, note=64, velocity=80, time=0),
    Message('note_on', channel=5, note=60, velocity=80, time=0),
    Message('note_on', channel=5, note=67, velocity=80, time=0),
    Message('note_on', channel=8, note=60, velocity=70, time=0),
    Message('note_on', channel=9, note=36, velocity=120, time=0),
    Message('note_on', channel=9, note=42, velocity=80, time=0),
    MetaMessage('lyrics', text='the, ', time=0),
    Message('note_on', channel=9, note=36, velocity=0, time=4),
    Message('note_on', channel=9, note=42, velocity=0, time=1),
    Message('note_on', channel=8, note=55, velocity=70, time=14),
    Message('note_on', channel=8, note=64, velocity=70, time=14),
    Message('note_on', channel=1, note=48, velocity=0, time=183),
    Message('note_on', channel=8, note=60, velocity=0, time=14),
    Message('control_change', channel=13, control=1, value=0, time=2),
    Message('note_on', channel=8, note=55, velocity=0, time=3),
    Message('note_on', channel=5, note=64, velocity=0, time=5),
    Message('note_on', channel=7, note=64, velocity=0, time=0),
    Message('note_on', channel=13, note=60, velocity=0, time=0),
    Message('note_on', channel=3, note=64, velocity=0, time=0),
    Message('note_on', channel=5, note=67, velocity=0, time=0),
    Message('note_on', channel=5, note=60, velocity=0, time=0),
    Message('note_on', channel=6, note=60, velocity=0, time=0),
    Message('note_on', channel=3, note=65, velocity=100, time=0),
    Message('note_on', channel=5, note=69, velocity=80, time=0),
    Message('note_on', channel=5, note=65, velocity=80, time=0),
    Message('note_on', channel=5, note=62, velocity=80, time=0),
    Message('note_on', channel=8, note=55, velocity=80, time=0),
    Message('note_on', channel=9, note=36, velocity=120, time=0),
    Message('note_on', channel=9, note=44, velocity=80, time=0),
    MetaMessage('lyrics', text='free', time=0),
    Message('note_on', channel=9, note=36, velocity=0, time=4),
    Message('note_on', channel=8, note=64, velocity=0, time=0),
    Message('note_on', channel=9, note=44, velocity=0, time=1),
    Message('note_on', channel=8, note=60, velocity=80, time=11),
    Message('note_on', channel=8, note=64, velocity=80, time=7),
    Message('note_on', channel=4, note=55, velocity=0, time=132),
    Message('note_on', channel=4, note=48, velocity=0, time=7),
    Message('note_on', channel=1, note=48, velocity=127, time=78),
    Message('note_on', channel=4, note=55, velocity=72, time=0),
    Message('note_on', channel=4, note=48, velocity=72, time=0),
    Message('note_on', channel=9, note=42, velocity=80, time=0),
    Message('note_on', channel=9, note=42, velocity=0, time=5),
    Message('note_on', channel=4, note=48, velocity=0, time=187),
    Message('note_on', channel=4, note=55, velocity=0, time=0),
    Message('note_on', channel=8, note=64, velocity=0, time=18),
    Message('note_on', channel=1, note=48, velocity=0, time=6),
    Message('note_on', channel=8, note=55, velocity=0, time=5),
    Message('note_on', channel=8, note=60, velocity=0, time=16),
    Message('note_on', channel=5, note=69, velocity=0, time=3),
    Message('note_on', channel=5, note=65, velocity=0, time=0),
    Message('note_on', channel=5, note=62, velocity=0, time=0),
    Message('note_on', channel=3, note=65, velocity=0, time=0),
    Message('note_on', channel=3, note=64, velocity=100, time=0),
    Message('note_on', channel=4, note=57, velocity=82, time=0),
    Message('note_on', channel=4, note=48, velocity=82, time=0),
    Message('note_on', channel=5, note=60, velocity=80, time=0),
    Message('note_on', channel=5, note=64, velocity=80, time=0),
    Message('note_on', channel=5, note=67, velocity=80, time=0),
    Message('note_on', channel=9, note=54, velocity=50, time=0),
    Message('note_on', channel=9, note=44, velocity=80, time=0),
    Message('note_on', channel=9, note=38, velocity=120, time=0),
    MetaMessage('lyrics', text='dom, ', time=0),
    Message('note_on', channel=9, note=38, velocity=0, time=4),
    Message('note_on', channel=9, note=54, velocity=0, time=0),
    Message('note_on', channel=9, note=44, velocity=0, time=1),
    Message('note_on', channel=8, note=55, velocity=59, time=4),
    Message('note_on', channel=8, note=60, velocity=59, time=6),
    Message('note_on', channel=8, note=64, velocity=59, time=4),
    Message('note_on', channel=4, note=48, velocity=0, time=173),
    Message('note_on', channel=4, note=57, velocity=0, time=0),
    Message('note_on', channel=8, note=55, velocity=0, time=14),
    Message('note_on', channel=8, note=60, velocity=0, time=13),
    Message('note_on', channel=8, note=64, velocity=0, time=4),
    Message('note_on', channel=1, note=48, velocity=127, time=17),
    Message('note_on', channel=4, note=48, velocity=70, time=0),
    Message('note_on', channel=4, note=52, velocity=70, time=0),
    Message('note_on', channel=8, note=55, velocity=50, time=0),
    Message('note_on', channel=8, note=60, velocity=50, time=0),
    Message('note_on', channel=8, note=64, velocity=50, time=0),
    Message('note_on', channel=9, note=42, velocity=80, time=0),
    Message('note_on', channel=9, note=36, velocity=120, time=0),
    Message('note_on', channel=9, note=36, velocity=0, time=4),
    Message('note_on', channel=9, note=42, velocity=0, time=1),
    Message('note_on', channel=8, note=60, velocity=0, time=79),
    Message('note_on', channel=8, note=64, velocity=0, time=0),
    Message('note_on', channel=8, note=55, velocity=0, time=7),
    Message('note_on', channel=4, note=52, velocity=0, time=101),
    Message('note_on', channel=4, note=48, velocity=0, time=0),
    Message('note_on', channel=1, note=48, velocity=0, time=24),
    Message('note_on', channel=3, note=64, velocity=0, time=24),
    Message('note_on', channel=5, note=67, velocity=0, time=0),
    Message('note_on', channel=5, note=64, velocity=0, time=0),
    Message('note_on', channel=5, note=60, velocity=0, time=0),
    Message('note_on', channel=1, note=48, velocity=127, time=0),
    Message('note_on', channel=3, note=62, velocity=100, time=0),
    Message('note_on', channel=4, note=55, velocity=82, time=0),
    Message('note_on', channel=4, note=48, velocity=82, time=0),
    Message('note_on', channel=5, note=59, velocity=80, time=0),
    Message('note_on', channel=5, note=65, velocity=80, time=0),
    Message('note_on', channel=5, note=62, velocity=80, time=0),
    Message('note_on', channel=8, note=64, velocity=78, time=0),
    Message('note_on', channel=9, note=44, velocity=80, time=0),
    Message('note_on', channel=9, note=36, velocity=120, time=0),
    MetaMessage('lyrics', text='ri', time=0),
    Message('note_on', channel=9, note=36, velocity=0, time=4),
    Message('note_on', channel=9, note=44, velocity=0, time=1),
    Message('note_on', channel=8, note=55, velocity=78, time=5),
    Message('note_on', channel=8, note=60, velocity=78, time=18),
    Message('note_on', channel=4, note=55, velocity=0, time=164),
    Message('note_on', channel=4, note=48, velocity=0, time=0),
    Message('note_on', channel=1, note=48, velocity=0, time=24),
    Message('note_on', channel=8, note=64, velocity=0, time=14),
    Message('note_on', channel=8, note=60, velocity=0, time=5),
    Message('note_on', channel=3, note=62, velocity=0, time=5),
    Message('note_on', channel=5, note=65, velocity=0, time=0),
    Message('note_on', channel=5, note=59, velocity=0, time=0),
    Message('note_on', channel=5, note=62, velocity=0, time=0),
    Message('note_on', channel=8, note=55, velocity=0, time=0),
    Message('note_on', channel=1, note=48, velocity=127, time=0),
    Message('note_on', channel=3, note=60, velocity=100, time=0),
    Message('note_on', channel=4, note=55, velocity=70, time=0),
    Message('note_on', channel=4, note=48, velocity=70, time=0),
    Message('note_on', channel=5, note=64, velocity=80, time=0),
    Message('note_on', channel=5, note=55, velocity=80, time=0),
    Message('note_on', channel=5, note=60, velocity=80, time=0),
    Message('note_on', channel=8, note=60, velocity=63, time=0),
    Message('note_on', channel=9, note=42, velocity=80, time=0),
    MetaMessage('lyrics', text='v', time=0),
    Message('note_on', channel=9, note=42, velocity=0, time=5),
    Message('note_on', channel=8, note=55, velocity=63, time=14),
    Message('note_on', channel=8, note=64, velocity=63, time=5),
    Message('note_on', channel=8, note=60, velocity=0, time=138),
    Message('note_on', channel=8, note=64, velocity=0, time=24),
    Message('note_on', channel=8, note=55, velocity=0, time=2),
    Message('note_on', channel=4, note=48, velocity=0, time=4),
    Message('note_on', channel=4, note=55, velocity=0, time=0),
    Message('note_on', channel=1, note=48, velocity=0, time=24),
    Message('note_on', channel=5, note=55, velocity=0, time=24),
    Message('note_on', channel=5, note=64, velocity=0, time=0),
    Message('note_on', channel=5, note=60, velocity=0, time=0),
    Message('note_on', channel=3, note=60, velocity=0, time=0),
    Message('note_on', channel=1, note=45, velocity=127, time=0),
    Message('note_on', channel=3, note=62, velocity=100, time=0),
    Message('note_on', channel=4, note=57, velocity=80, time=0),
    Message('note_on', channel=4, note=48, velocity=80, time=0),
    Message('note_on', channel=5, note=59, velocity=80, time=0),
    Message('note_on', channel=5, note=62, velocity=80, time=0),
    Message('note_on', channel=5, note=67, velocity=80, time=0),
    Message('note_on', channel=8, note=64, velocity=48, time=0),
    Message('note_on', channel=9, note=54, velocity=50, time=0),
    Message('note_on', channel=9, note=46, velocity=80, time=0),
    Message('note_on', channel=9, note=38, velocity=120, time=0),
    MetaMessage('lyrics', text='er ', time=0),
    Message('note_on', channel=9, note=38, velocity=0, time=4),
    Message('note_on', channel=9, note=54, velocity=0, time=0),
    Message('note_on', channel=9, note=46, velocity=0, time=1),
    Message('note_on', channel=8, note=55, velocity=48, time=13),
    Message('note_on', channel=8, note=60, velocity=48, time=5),
    Message('note_on', channel=4, note=57, velocity=0, time=169),
    Message('note_on', channel=4, note=48, velocity=0, time=0),
    Message('note_on', channel=1, note=45, velocity=0, time=24),
    Message('note_on', channel=8, note=64, velocity=0, time=14),
    Message('note_on', channel=8, note=60, velocity=0, time=9),
    Message('note_on', channel=8, note=55, velocity=0, time=0),
    Message('note_on', channel=5, note=62, velocity=0, time=1),
    Message('note_on', channel=5, note=59, velocity=0, time=0),
    Message('note_on', channel=5, note=67, velocity=0, time=0),
    Message('note_on', channel=3, note=62, velocity=0, time=0),
    Message('note_on', channel=1, note=48, velocity=127, time=0),
    Message('note_on', channel=3, note=62, velocity=100, time=0),
    Message('note_on', channel=4, note=52, velocity=70, time=0),
    Message('note_on', channel=4, note=48, velocity=70, time=0),
    Message('note_on', channel=5, note=62, velocity=80, time=0),
    Message('note_on', channel=5, note=67, velocity=80, time=0),
    Message('note_on', channel=5, note=59, velocity=80, time=0),
    Message('note_on', channel=8, note=60, velocity=70, time=0),
    Message('note_on', channel=9, note=42, velocity=80, time=0),
    MetaMessage('lyrics', text='runs. ', time=0),
    MetaMessage('lyrics', text='\r', time=0),
    MetaMessage('lyrics', text='\n', time=0),
    Message('note_on', channel=9, note=42, velocity=0, time=5),
    Message('note_on', channel=8, note=55, velocity=70, time=14),
    Message('note_on', channel=8, note=64, velocity=70, time=14),
    Message('note_on', channel=4, note=48, velocity=0, time=159),
    Message('note_on', channel=4, note=52, velocity=0, time=0),
    Message('note_on', channel=1, note=48, velocity=0, time=24),
    Message('note_on', channel=8, note=60, velocity=0, time=14),
    Message('note_on', channel=8, note=55, velocity=0, time=5),
    Message('note_on', channel=2, note=72, velocity=0, time=5),
    Message('note_on', channel=2, note=76, velocity=0, time=0),
    Message('note_on', channel=1, note=43, velocity=127, time=0),
    Message('note_on', channel=2, note=71, velocity=79, time=0),
    Message('note_on', channel=2, note=74, velocity=53, time=0),
    Message('note_on', channel=4, note=43, velocity=86, time=0),
    Message('note_on', channel=4, note=50, velocity=86, time=0),
    Message('note_on', channel=8, note=55, velocity=80, time=0),
    Message('note_on', channel=9, note=36, velocity=120, time=0),
    Message('note_on', channel=9, note=44, velocity=80, time=0),
    Message('note_on', channel=9, note=36, velocity=0, time=4),
    Message('note_on', channel=8, note=64, velocity=0, time=0),
    Message('note_on', channel=9, note=44, velocity=0, time=1),
    Message('note_on', channel=8, note=59, velocity=80, time=11),
    Message('note_on', channel=8, note=62, velocity=80, time=7),
    Message('note_on', channel=4, note=50, velocity=0, time=169),
    Message('note_on', channel=4, note=43, velocity=0, time=0),
    Message('note_on', channel=1, note=43, velocity=0, time=24),
    Message('note_on', channel=1, note=43, velocity=127, time=24),
    Message('note_on', channel=4, note=50, velocity=69, time=0),
    Message('note_on', channel=4, note=43, velocity=69, time=0),
    Message('note_on', channel=9, note=42, velocity=80, time=0),
    Message('note_on', channel=9, note=42, velocity=0, time=5),
    Message('note_on', channel=4, note=43, velocity=0, time=187),
    Message('note_on', channel=4, note=50, velocity=0, time=0),
    Message('note_on', channel=8, note=62, velocity=0, time=18),
    Message('note_on', channel=1, note=43, velocity=0, time=6),
    Message('note_on', channel=8, note=55, velocity=0, time=5),
    Message('pitchwheel', channel=6, pitch=-8192, time=4),
    Message('pitchwheel', channel=13, pitch=-8192, time=0),
    Message('note_on', channel=8, note=59, velocity=0, time=12),
    Message('note_on', channel=5, note=67, velocity=0, time=3),
    Message('note_on', channel=5, note=59, velocity=0, time=0),
    Message('note_on', channel=5, note=62, velocity=0, time=0),
    Message('note_on', channel=4, note=52, velocity=83, time=0),
    Message('note_on', channel=4, note=43, velocity=83, time=0),
    Message('note_on', channel=6, note=71, velocity=100, time=0),
    Message('note_on', channel=7, note=74, velocity=120, time=0),
    Message('note_on', channel=9, note=54, velocity=50, time=0),
    Message('note_on', channel=9, note=44, velocity=80, time=0),
    Message('note_on', channel=9, note=38, velocity=120, time=0),
    Message('note_on', channel=13, note=71, velocity=100, time=0),
    Message('note_on', channel=9, note=38, velocity=0, time=4),
    Message('note_on', channel=9, note=54, velocity=0, time=0),
    Message('note_on', channel=9, note=44, velocity=0, time=1),
    Message('note_on', channel=8, note=55, velocity=59, time=4),
    Message('note_on', channel=8, note=59, velocity=59, time=6),
    Message('note_on', channel=3, note=62, velocity=0, time=2),
    Message('note_on', channel=8, note=62, velocity=59, time=2),
    Message('pitchwheel', channel=6, pitch=-8064, time=65),
    Message('pitchwheel', channel=13, pitch=-8064, time=0),
    Message('pitchwheel', channel=6, pitch=-7936, time=14),
    Message('pitchwheel', channel=13, pitch=-7936, time=0),
    Message('pitchwheel', channel=6, pitch=-7808, time=14),
    Message('pitchwheel', channel=13, pitch=-7808, time=0),
    Message('pitchwheel', channel=6, pitch=-7680, time=15),
    Message('pitchwheel', channel=13, pitch=-7680, time=0),
    Message('pitchwheel', channel=6, pitch=-7552, time=14),
    Message('pitchwheel', channel=13, pitch=-7552, time=0),
    Message('pitchwheel', channel=6, pitch=-7424, time=14),
    Message('pitchwheel', channel=13, pitch=-7424, time=0),
    Message('pitchwheel', channel=6, pitch=-7296, time=14),
    Message('pitchwheel', channel=13, pitch=-7296, time=0),
    Message('pitchwheel', channel=6, pitch=-7168, time=14),
    Message('pitchwheel', channel=13, pitch=-7168, time=0),
    Message('note_on', channel=4, note=52, velocity=0, time=9),
    Message('note_on', channel=4, note=43, velocity=0, time=0),
    Message('pitchwheel', channel=6, pitch=-7040, time=5),
    Message('pitchwheel', channel=13, pitch=-7040, time=0),
    Message('pitchwheel', channel=6, pitch=-6912, time=7),
    Message('pitchwheel', channel=13, pitch=-6912, time=0),
    Message('note_on', channel=8, note=55, velocity=0, time=2),
    Message('pitchwheel', channel=6, pitch=-6784, time=12),
    Message('pitchwheel', channel=13, pitch=-6784, time=0),
    Message('note_on', channel=8, note=59, velocity=0, time=1),
    Message('note_on', channel=8, note=62, velocity=0, time=4),
    Message('pitchwheel', channel=6, pitch=-6656, time=9),
    Message('pitchwheel', channel=13, pitch=-6656, time=0),
    Message('note_on', channel=1, note=43, velocity=127, time=8),
    Message('note_on', channel=4, note=43, velocity=72, time=0),
    Message('note_on', channel=4, note=47, velocity=72, time=0),
    Message('note_on', channel=8, note=62, velocity=50, time=0),
    Message('note_on', channel=8, note=59, velocity=50, time=0),
    Message('note_on', channel=8, note=55, velocity=50, time=0),
    Message('note_on', channel=9, note=36, velocity=120, time=0),
    Message('note_on', channel=9, note=42, velocity=80, time=0),
    Message('note_on', channel=9, note=36, velocity=0, time=4),
    Message('note_on', channel=9, note=42, velocity=0, time=1),
    Message('pitchwheel', channel=6, pitch=-6528, time=2),
    Message('pitchwheel', channel=13, pitch=-6528, time=0),
    Message('pitchwheel', channel=6, pitch=-6400, time=14),
    Message('pitchwheel', channel=13, pitch=-6400, time=0),
    Message('pitchwheel', channel=6, pitch=-6272, time=14),
    Message('pitchwheel', channel=13, pitch=-6272, time=0),
    Message('pitchwheel', channel=6, pitch=-6144, time=14),
    Message('pitchwheel', channel=13, pitch=-6144, time=0),
    Message('pitchwheel', channel=6, pitch=-6016, time=14),
    Message('pitchwheel', channel=13, pitch=-6016, time=0),
    Message('pitchwheel', channel=6, pitch=-5888, time=14),
    Message('pitchwheel', channel=13, pitch=-5888, time=0),
    Message('note_on', channel=8, note=62, velocity=0, time=7),
    Message('note_on', channel=8, note=59, velocity=0, time=0),
    Message('pitchwheel', channel=6, pitch=-5760, time=0),
    Message('pitchwheel', channel=13, pitch=-5760, time=0),
    Message('note_on', channel=8, note=55, velocity=0, time=7),
    Message('pitchwheel', channel=6, pitch=-5632, time=7),
    Message('pitchwheel', channel=13, pitch=-5632, time=0),
    Message('pitchwheel', channel=6, pitch=-5504, time=14),
    Message('pitchwheel', channel=13, pitch=-5504, time=0),
    Message('pitchwheel', channel=6, pitch=-5376, time=15),
    Message('pitchwheel', channel=13, pitch=-5376, time=0),
    Message('pitchwheel', channel=6, pitch=-5248, time=14),
    Message('pitchwheel', channel=13, pitch=-5248, time=0),
    Message('pitchwheel', channel=6, pitch=-5120, time=14),
    Message('pitchwheel', channel=13, pitch=-5120, time=0),
    Message('pitchwheel', channel=6, pitch=-4992, time=14),
    Message('pitchwheel', channel=13, pitch=-4992, time=0),
    Message('pitchwheel', channel=6, pitch=-4864, time=14),
    Message('pitchwheel', channel=13, pitch=-4864, time=0),
    Message('note_on', channel=4, note=47, velocity=0, time=9),
    Message('note_on', channel=4, note=43, velocity=0, time=0),
    Message('pitchwheel', channel=6, pitch=-4736, time=5),
    Message('pitchwheel', channel=13, pitch=-4736, time=0),
    Message('pitchwheel', channel=6, pitch=-4608, time=7),
    Message('pitchwheel', channel=13, pitch=-4608, time=0),
    Message('note_on', channel=1, note=43, velocity=0, time=12),
    Message('pitchwheel', channel=6, pitch=-4480, time=2),
    Message('pitchwheel', channel=13, pitch=-4480, time=0),
    Message('pitchwheel', channel=6, pitch=-4352, time=14),
    Message('pitchwheel', channel=13, pitch=-4352, time=0),
    Message('note_on', channel=1, note=43, velocity=127, time=8),
    Message('note_on', channel=4, note=53, velocity=80, time=0),
    Message('note_on', channel=4, note=43, velocity=80, time=0),
    Message('note_on', channel=8, note=62, velocity=78, time=0),
    Message('note_on', channel=9, note=44, velocity=80, time=0),
    Message('note_on', channel=9, note=36, velocity=120, time=0),
    Message('note_on', channel=9, note=36, velocity=0, time=4),
    Message('note_on', channel=9, note=44, velocity=0, time=1),
    Message('pitchwheel', channel=6, pitch=-4224, time=2),
    Message('pitchwheel', channel=13, pitch=-4224, time=0),
    Message('note_on', channel=8, note=55, velocity=78, time=3),
    Message('pitchwheel', channel=6, pitch=-4096, time=11),
    Message('pitchwheel', channel=13, pitch=-4096, time=0),
    Message('note_on', channel=8, note=59, velocity=78, time=7),
    Message('pitchwheel', channel=6, pitch=-3968, time=7),
    Message('pitchwheel', channel=13, pitch=-3968, time=0),
    Message('pitchwheel', channel=6, pitch=-3840, time=14),
    Message('pitchwheel', channel=13, pitch=-3840, time=0),
    Message('pitchwheel', channel=6, pitch=-3712, time=14),
    Message('pitchwheel', channel=13, pitch=-3712, time=0),
    Message('pitchwheel', channel=6, pitch=-3584, time=14),
    Message('pitchwheel', channel=13, pitch=-3584, time=0),
    Message('pitchwheel', channel=6, pitch=-3456, time=7),
    Message('pitchwheel', channel=13, pitch=-3456, time=0),
    Message('pitchwheel', channel=6, pitch=-3328, time=14),
    Message('pitchwheel', channel=13, pitch=-3328, time=0),
    Message('pitchwheel', channel=6, pitch=-3200, time=14),
    Message('pitchwheel', channel=13, pitch=-3200, time=0),
    Message('pitchwheel', channel=6, pitch=-3072, time=15),
    Message('pitchwheel', channel=13, pitch=-3072, time=0),
    Message('pitchwheel', channel=6, pitch=-2944, time=14),
    Message('pitchwheel', channel=13, pitch=-2944, time=0),
    Message('pitchwheel', channel=6, pitch=-2816, time=14),
    Message('pitchwheel', channel=13, pitch=-2816, time=0),
    Message('pitchwheel', channel=6, pitch=-2688, time=14),
    Message('pitchwheel', channel=13, pitch=-2688, time=0),
    Message('pitchwheel', channel=6, pitch=-2560, time=14),
    Message('pitchwheel', channel=13, pitch=-2560, time=0),
    Message('note_on', channel=4, note=43, velocity=0, time=9),
    Message('note_on', channel=4, note=53, velocity=0, time=0),
    Message('pitchwheel', channel=6, pitch=-2432, time=5),
    Message('pitchwheel', channel=13, pitch=-2432, time=0),
    Message('pitchwheel', channel=6, pitch=-2304, time=7),
    Message('pitchwheel', channel=13, pitch=-2304, time=0),
    Message('note_on', channel=1, note=43, velocity=0, time=12),
    Message('pitchwheel', channel=6, pitch=-2176, time=2),
    Message('pitchwheel', channel=13, pitch=-2176, time=0),
    Message('note_on', channel=8, note=62, velocity=0, time=12),
    Message('pitchwheel', channel=6, pitch=-2048, time=2),
    Message('pitchwheel', channel=13, pitch=-2048, time=0),
    Message('note_on', channel=8, note=59, velocity=0, time=3),
    Message('note_on', channel=8, note=55, velocity=0, time=5),
    Message('note_on', channel=1, note=43, velocity=127, time=0),
    Message('note_on', channel=4, note=43, velocity=71, time=0),
    Message('note_on', channel=4, note=50, velocity=71, time=0),
    Message('note_on', channel=8, note=59, velocity=63, time=0),
    Message('note_on', channel=9, note=42, velocity=80, time=0),
    Message('note_on', channel=9, note=42, velocity=0, time=5),
    Message('pitchwheel', channel=6, pitch=-1920, time=2),
    Message('pitchwheel', channel=13, pitch=-1920, time=0),
    Message('note_on', channel=8, note=55, velocity=63, time=12),
    Message('pitchwheel', channel=6, pitch=-1792, time=2),
    Message('pitchwheel', channel=13, pitch=-1792, time=0),
    Message('note_on', channel=8, note=62, velocity=63, time=3),
    Message('pitchwheel', channel=6, pitch=-1664, time=11),
    Message('pitchwheel', channel=13, pitch=-1664, time=0),
    Message('pitchwheel', channel=6, pitch=-1536, time=14),
    Message('pitchwheel', channel=13, pitch=-1536, time=0),
    Message('pitchwheel', channel=6, pitch=-1408, time=14),
    Message('pitchwheel', channel=13, pitch=-1408, time=0),
    Message('pitchwheel', channel=6, pitch=-1280, time=14),
    Message('pitchwheel', channel=13, pitch=-1280, time=0),
    Message('pitchwheel', channel=6, pitch=-1152, time=7),
    Message('pitchwheel', channel=13, pitch=-1152, time=0),
    Message('pitchwheel', channel=6, pitch=-1024, time=14),
    Message('pitchwheel', channel=13, pitch=-1024, time=0),
    Message('pitchwheel', channel=6, pitch=-896, time=14),
    Message('pitchwheel', channel=13, pitch=-896, time=0),
    Message('pitchwheel', channel=6, pitch=-768, time=15),
    Message('pitchwheel', channel=13, pitch=-768, time=0),
    Message('pitchwheel', channel=6, pitch=-640, time=14),
    Message('pitchwheel', channel=13, pitch=-640, time=0),
    Message('pitchwheel', channel=6, pitch=-512, time=14),
    Message('pitchwheel', channel=13, pitch=-512, time=0),
    Message('note_on', channel=8, note=59, velocity=0, time=7),
    Message('pitchwheel', channel=6, pitch=-384, time=7),
    Message('pitchwheel', channel=13, pitch=-384, time=0),
    Message('pitchwheel', channel=6, pitch=-256, time=14),
    Message('pitchwheel', channel=13, pitch=-256, time=0),
    Message('note_on', channel=8, note=62, velocity=0, time=3),
    Message('note_on', channel=8, note=55, velocity=0, time=2),
    Message('note_on', channel=4, note=50, velocity=0, time=4),
    Message('note_on', channel=4, note=43, velocity=0, time=0),
    Message('pitchwheel', channel=6, pitch=-128, time=5),
    Message('pitchwheel', channel=13, pitch=-128, time=0),
    Message('pitchwheel', channel=6, pitch=0, time=7),
    Message('pitchwheel', channel=13, pitch=0, time=0),
    Message('note_on', channel=1, note=43, velocity=0, time=12),
    Message('note_on', channel=4, note=52, velocity=86, time=24),
    Message('note_on', channel=4, note=43, velocity=86, time=0),
    Message('note_on', channel=8, note=62, velocity=48, time=0),
    Message('note_on', channel=9, note=44, velocity=80, time=0),
    Message('note_on', channel=9, note=54, velocity=50, time=0),
    Message('note_on', channel=9, note=38, velocity=120, time=0),
    Message('note_on', channel=9, note=38, velocity=0, time=4),
    Message('note_on', channel=9, note=54, velocity=0, time=0),
    Message('note_on', channel=9, note=44, velocity=0, time=1),
    Message('note_on', channel=8, note=55, velocity=48, time=13),
    Message('note_on', channel=8, note=59, velocity=48, time=5),
    Message('control_change', channel=13, control=1, value=88, time=118),
    Message('note_on', channel=4, note=52, velocity=0, time=51),
    Message('note_on', channel=4, note=43, velocity=0, time=0),
    Message('note_on', channel=8, note=62, velocity=0, time=38),
    Message('note_on', channel=8, note=55, velocity=0, time=9),
    Message('note_on', channel=8, note=59, velocity=0, time=0),
    Message('note_on', channel=1, note=43, velocity=127, time=1),
    Message('note_on', channel=4, note=50, velocity=70, time=0),
    Message('note_on', channel=4, note=43, velocity=70, time=0),
    Message('note_on', channel=8, note=59, velocity=70, time=0),
    Message('note_on', channel=9, note=42, velocity=80, time=0),
    Message('note_on', channel=9, note=42, velocity=0, time=5),
    Message('note_on', channel=8, note=55, velocity=70, time=14),
    Message('note_on', channel=8, note=62, velocity=70, time=14),
    Message('note_on', channel=1, note=43, velocity=0, time=183),
    Message('pitchwheel', channel=6, pitch=8191, time=9),
    Message('pitchwheel', channel=13, pitch=8191, time=0),
    Message('note_on', channel=8, note=59, velocity=0, time=5),
    Message('note_on', channel=6, note=71, velocity=0, time=2),
    Message('note_on', channel=13, note=71, velocity=0, time=0),
    Message('control_change', channel=13, control=1, value=0, time=0),
    Message('note_on', channel=8, note=55, velocity=0, time=3),
    Message('note_on', channel=7, note=74, velocity=0, time=5),
    Message('note_on', channel=6, note=69, velocity=100, time=0),
    Message('note_on', channel=7, note=74, velocity=120, time=0),
    Message('note_on', channel=8, note=55, velocity=80, time=0),
    Message('note_on', channel=9, note=36, velocity=120, time=0),
    Message('note_on', channel=9, note=44, velocity=80, time=0),
    Message('note_on', channel=13, note=69, velocity=100, time=0),
    Message('note_on', channel=9, note=36, velocity=0, time=4),
    Message('note_on', channel=8, note=62, velocity=0, time=0),
    Message('note_on', channel=9, note=44, velocity=0, time=1),
    Message('note_on', channel=8, note=59, velocity=80, time=11),
    Message('note_on', channel=8, note=62, velocity=80, time=7),
    Message('pitchwheel', channel=6, pitch=8064, time=139),
    Message('pitchwheel', channel=13, pitch=8064, time=0),
    Message('pitchwheel', channel=6, pitch=7552, time=7),
    Message('pitchwheel', channel=13, pitch=7552, time=0),
    Message('pitchwheel', channel=6, pitch=6912, time=7),
    Message('pitchwheel', channel=13, pitch=6912, time=0),
    Message('pitchwheel', channel=6, pitch=6400, time=7),
    Message('pitchwheel', channel=13, pitch=6400, time=0),
    Message('pitchwheel', channel=6, pitch=5760, time=7),
    Message('pitchwheel', channel=13, pitch=5760, time=0),
    Message('pitchwheel', channel=6, pitch=5248, time=7),
    Message('pitchwheel', channel=13, pitch=5248, time=0),
    Message('pitchwheel', channel=6, pitch=4608, time=7),
    Message('pitchwheel', channel=13, pitch=4608, time=0),
    Message('pitchwheel', channel=6, pitch=4096, time=7),
    Message('pitchwheel', channel=13, pitch=4096, time=0),
    Message('pitchwheel', channel=6, pitch=3456, time=7),
    Message('pitchwheel', channel=13, pitch=3456, time=0),
    Message('note_on', channel=4, note=43, velocity=0, time=7),
    Message('note_on', channel=4, note=50, velocity=0, time=0),
    Message('pitchwheel', channel=6, pitch=2944, time=0),
    Message('pitchwheel', channel=13, pitch=2944, time=0),
    Message('pitchwheel', channel=6, pitch=2304, time=7),
    Message('pitchwheel', channel=13, pitch=2304, time=0),
    Message('note_on', channel=7, note=74, velocity=0, time=8),
    Message('note_on', channel=1, note=43, velocity=127, time=0),
    Message('note_on', channel=4, note=43, velocity=72, time=0),
    Message('note_on', channel=4, note=50, velocity=72, time=0),
    Message('pitchwheel', channel=6, pitch=1792, time=0),
    Message('note_on', channel=7, note=74, velocity=120, time=0),
    Message('note_on', channel=9, note=42, velocity=80, time=0),
    Message('pitchwheel', channel=13, pitch=1792, time=0),
    Message('note_on', channel=9, note=42, velocity=0, time=5),
    Message('pitchwheel', channel=6, pitch=1152, time=2),
    Message('pitchwheel', channel=13, pitch=1152, time=0),
    Message('pitchwheel', channel=6, pitch=640, time=7),
    Message('pitchwheel', channel=13, pitch=640, time=0),
    Message('pitchwheel', channel=6, pitch=0, time=7),
    Message('pitchwheel', channel=13, pitch=0, time=0),
    Message('note_on', channel=4, note=43, velocity=0, time=171),
    Message('note_on', channel=4, note=50, velocity=0, time=0),
    Message('note_on', channel=8, note=62, velocity=0, time=18),
    Message('note_on', channel=1, note=43, velocity=0, time=6),
    Message('note_on', channel=8, note=55, velocity=0, time=5),
    Message('note_on', channel=8, note=59, velocity=0, time=16),
    Message('note_on', channel=13, note=69, velocity=0, time=3),
    Message('note_on', channel=7, note=74, velocity=0, time=0),
    Message('note_on', channel=6, note=69, velocity=0, time=0),
    Message('note_on', channel=4, note=43, velocity=82, time=0),
    Message('note_on', channel=4, note=52, velocity=82, time=0),
    Message('note_on', channel=6, note=67, velocity=100, time=0),
    Message('note_on', channel=7, note=71, velocity=120, time=0),
    Message('note_on', channel=9, note=44, velocity=80, time=0),
    Message('note_on', channel=9, note=54, velocity=50, time=0),
    Message('note_on', channel=9, note=38, velocity=120, time=0),
    Message('note_on', channel=13, note=67, velocity=100, time=0),
    Message('note_on', channel=9, note=38, velocity=0, time=4),
    Message('note_on', channel=9, note=54, velocity=0, time=0),
    Message('note_on', channel=9, note=44, velocity=0, time=1),
    Message('note_on', channel=8, note=55, velocity=59, time=4),
    Message('note_on', channel=8, note=59, velocity=59, time=6),
    Message('note_on', channel=8, note=62, velocity=59, time=4),
    Message('note_on', channel=4, note=52, velocity=0, time=173),
    Message('note_on', channel=4, note=43, velocity=0, time=0),
    Message('note_on', channel=8, note=55, velocity=0, time=14),
    Message('note_on', channel=8, note=59, velocity=0, time=13),
    Message('note_on', channel=8, note=62, velocity=0, time=4),
    Message('note_on', channel=13, note=67, velocity=0, time=9),
    Message('note_on', channel=6, note=67, velocity=0, time=0),
    Message('note_on', channel=7, note=71, velocity=0, time=8),
    Message('note_on', channel=1, note=43, velocity=127, time=0),
    Message('note_on', channel=4, note=47, velocity=70, time=0),
    Message('note_on', channel=4, note=43, velocity=70, time=0),
    Message('note_on', channel=6, note=67, velocity=100, time=0),
    Message('note_on', channel=7, note=71, velocity=120, time=0),
    Message('note_on', channel=8, note=55, velocity=50, time=0),
    Message('note_on', channel=8, note=62, velocity=50, time=0),
    Message('note_on', channel=8, note=59, velocity=50, time=0),
    Message('note_on', channel=9, note=42, velocity=80, time=0),
    Message('note_on', channel=13, note=67, velocity=100, time=0),
    Message('note_on', channel=9, note=42, velocity=0, time=5),
    Message('note_on', channel=8, note=62, velocity=0, time=79),
    Message('note_on', channel=8, note=59, velocity=0, time=0),
    Message('note_on', channel=8, note=55, velocity=0, time=7),
    Message('note_on', channel=4, note=43, velocity=0, time=101),
    Message('note_on', channel=4, note=47, velocity=0, time=0),
    Message('note_on', channel=1, note=43, velocity=0, time=24),
    Message('note_on', channel=1, note=43, velocity=127, time=24),
    Message('note_on', channel=4, note=43, velocity=82, time=0),
    Message('note_on', channel=4, note=50, velocity=82, time=0),
    Message('note_on', channel=8, note=62, velocity=78, time=0),
    Message('note_on', channel=9, note=44, velocity=80, time=0),
    Message('note_on', channel=9, note=36, velocity=120, time=0),
    Message('note_on', channel=9, note=36, velocity=0, time=4),
    Message('note_on', channel=9, note=44, velocity=0, time=1),
    Message('note_on', channel=8, note=55, velocity=78, time=5),
    Message('note_on', channel=8, note=59, velocity=78, time=18),
    Message('control_change', channel=13, control=1, value=46, time=42),
    Message('note_on', channel=4, note=50, velocity=0, time=122),
    Message('note_on', channel=4, note=43, velocity=0, time=0),
    Message('note_on', channel=1, note=43, velocity=0, time=24),
    Message('note_on', channel=8, note=62, velocity=0, time=14),
    Message('note_on', channel=8, note=59, velocity=0, time=5),
    Message('note_on', channel=8, note=55, velocity=0, time=5),
    Message('note_on', channel=1, note=43, velocity=127, time=0),
    Message('note_on', channel=4, note=50, velocity=70, time=0),
    Message('note_on', channel=4, note=43, velocity=70, time=0),
    Message('note_on', channel=8, note=59, velocity=63, time=0),
    Message('note_on', channel=9, note=42, velocity=80, time=0),
    Message('note_on', channel=9, note=36, velocity=120, time=0),
    Message('note_on', channel=9, note=42, velocity=0, time=5),
    Message('note_on', channel=9, note=36, velocity=0, time=11),
    Message('note_on', channel=8, note=55, velocity=63, time=3),
    Message('note_on', channel=8, note=62, velocity=63, time=5),
    Message('note_on', channel=8, note=59, velocity=0, time=138),
    Message('note_on', channel=8, note=62, velocity=0, time=24),
    Message('note_on', channel=8, note=55, velocity=0, time=2),
    Message('control_change', channel=13, control=1, value=89, time=2),
    Message('note_on', channel=4, note=43, velocity=0, time=2),
    Message('note_on', channel=4, note=50, velocity=0, time=0),
    Message('note_on', channel=1, note=43, velocity=0, time=24),
    Message('note_on', channel=1, note=45, velocity=127, time=24),
    Message('note_on', channel=4, note=52, velocity=80, time=0),
    Message('note_on', channel=4, note=43, velocity=80, time=0),
    Message('note_on', channel=8, note=62, velocity=48, time=0),
    Message('note_on', channel=9, note=44, velocity=80, time=0),
    Message('note_on', channel=9, note=54, velocity=50, time=0),
    Message('note_on', channel=9, note=38, velocity=90, time=0),
    Message('note_on', channel=9, note=38, velocity=0, time=4),
    Message('note_on', channel=9, note=54, velocity=0, time=0),
    Message('note_on', channel=9, note=44, velocity=0, time=1),
    Message('note_on', channel=8, note=55, velocity=48, time=13),
    Message('note_on', channel=8, note=59, velocity=48, time=5),
    Message('note_on', channel=4, note=43, velocity=0, time=169),
    Message('note_on', channel=4, note=52, velocity=0, time=0),
    Message('note_on', channel=1, note=45, velocity=0, time=24),
    Message('note_on', channel=8, note=62, velocity=0, time=14),
    Message('note_on', channel=8, note=55, velocity=0, time=9),
    Message('note_on', channel=8, note=59, velocity=0, time=0),
    Message('note_on', channel=1, note=45, velocity=127, time=1),
    Message('note_on', channel=4, note=47, velocity=70, time=0),
    Message('note_on', channel=4, note=43, velocity=70, time=0),
    Message('note_on', channel=8, note=59, velocity=70, time=0),
    Message('note_on', channel=9, note=54, velocity=50, time=0),
    Message('note_on', channel=9, note=42, velocity=80, time=0),
    Message('note_on', channel=9, note=38, velocity=120, time=0),
    Message('note_on', channel=9, note=38, velocity=0, time=4),
    Message('note_on', channel=9, note=54, velocity=0, time=0),
    Message('note_on', channel=9, note=42, velocity=0, time=1),
    Message('note_on', channel=8, note=55, velocity=70, time=14),
    Message('note_on', channel=8, note=62, velocity=70, time=14),
    Message('note_on', channel=4, note=43, velocity=0, time=159),
    Message('note_on', channel=4, note=47, velocity=0, time=0),
    Message('note_on', channel=1, note=45, velocity=0, time=24),
    Message('note_on', channel=8, note=59, velocity=0, time=14),
    Message('note_on', channel=8, note=55, velocity=0, time=5),
    Message('note_on', channel=2, note=71, velocity=0, time=5),
    Message('note_on', channel=6, note=67, velocity=0, time=0),
    Message('note_on', channel=2, note=74, velocity=0, time=0),
    Message('note_on', channel=13, note=67, velocity=0, time=0),
    Message('note_on', channel=7, note=71, velocity=0, time=0),
    Message('note_on', channel=1, note=48, velocity=97, time=0),
    Message('note_on', channel=2, note=76, velocity=66, time=0),
    Message('note_on', channel=2, note=72, velocity=55, time=0),
    Message('note_on', channel=3, note=64, velocity=100, time=0),
    Message('note_on', channel=4, note=48, velocity=86, time=0),
    Message('note_on', channel=4, note=55, velocity=86, time=0),
    Message('note_on', channel=8, note=55, velocity=80, time=0),
    Message('note_on', channel=9, note=36, velocity=120, time=0),
    Message('note_on', channel=9, note=49, velocity=80, time=0),
    Message('control_change', channel=13, control=1, value=0, time=0),
    MetaMessage('lyrics', text='Out ', time=0),
    Message('note_on', channel=9, note=36, velocity=0, time=4),
    Message('note_on', channel=8, note=62, velocity=0, time=0),
    Message('note_on', channel=9, note=49, velocity=0, time=1),
    Message('note_on', channel=8, note=60, velocity=80, time=11),
    Message('note_on', channel=8, note=64, velocity=80, time=7),
    Message('note_on', channel=4, note=55, velocity=0, time=169),
    Message('note_on', channel=4, note=48, velocity=0, time=0),
    Message('note_on', channel=1, note=48, velocity=0, time=24),
    Message('note_on', channel=1, note=48, velocity=88, time=24),
    Message('note_on', channel=4, note=48, velocity=69, time=0),
    Message('note_on', channel=4, note=55, velocity=69, time=0),
    Message('note_on', channel=9, note=42, velocity=80, time=0),
    Message('note_on', channel=9, note=42, velocity=0, time=5),
    Message('note_on', channel=4, note=55, velocity=0, time=187),
    Message('note_on', channel=4, note=48, velocity=0, time=0),
    Message('note_on', channel=8, note=64, velocity=0, time=18),
    Message('note_on', channel=1, note=48, velocity=0, time=6),
    Message('note_on', channel=8, note=55, velocity=0, time=5),
    Message('note_on', channel=8, note=60, velocity=0, time=16),
    Message('note_on', channel=3, note=64, velocity=0, time=3),
    Message('note_on', channel=3, note=67, velocity=100, time=0),
    Message('note_on', channel=4, note=48, velocity=83, time=0),
    Message('note_on', channel=4, note=57, velocity=83, time=0),
    Message('note_on', channel=9, note=54, velocity=50, time=0),
    Message('note_on', channel=9, note=44, velocity=80, time=0),
    Message('note_on', channel=9, note=38, velocity=120, time=0),
    MetaMessage('lyrics', text='there ', time=0),
    Message('note_on', channel=9, note=38, velocity=0, time=4),
    Message('note_on', channel=9, note=54, velocity=0, time=0),
    Message('note_on', channel=9, note=44, velocity=0, time=1),
    Message('note_on', channel=8, note=55, velocity=59, time=4),
    Message('note_on', channel=8, note=60, velocity=59, time=6),
    Message('note_on', channel=8, note=64, velocity=59, time=4),
    Message('note_on', channel=4, note=48, velocity=0, time=173),
    Message('note_on', channel=4, note=57, velocity=0, time=0),
    Message('note_on', channel=8, note=55, velocity=0, time=14),
    Message('note_on', channel=8, note=60, velocity=0, time=13),
    Message('note_on', channel=8, note=64, velocity=0, time=4),
    Message('note_on', channel=1, note=48, velocity=86, time=17),
    Message('note_on', channel=4, note=48, velocity=72, time=0),
    Message('note_on', channel=4, note=52, velocity=72, time=0),
    Message('note_on', channel=8, note=55, velocity=50, time=0),
    Message('note_on', channel=8, note=64, velocity=50, time=0),
    Message('note_on', channel=8, note=60, velocity=50, time=0),
    Message('note_on', channel=9, note=42, velocity=80, time=0),
    Message('note_on', channel=9, note=36, velocity=120, time=0),
    Message('note_on', channel=9, note=36, velocity=0, time=4),
    Message('note_on', channel=9, note=42, velocity=0, time=1),
    Message('note_on', channel=8, note=60, velocity=0, time=79),
    Message('note_on', channel=8, note=64, velocity=0, time=0),
    Message('note_on', channel=8, note=55, velocity=0, time=7),
    Message('note_on', channel=4, note=52, velocity=0, time=101),
    Message('note_on', channel=4, note=48, velocity=0, time=0),
    Message('note_on', channel=1, note=48, velocity=0, time=24),
    Message('note_on', channel=3, note=67, velocity=0, time=24),
    Message('note_on', channel=1, note=48, velocity=94, time=0),
    Message('note_on', channel=3, note=67, velocity=100, time=0),
    Message('note_on', channel=4, note=48, velocity=80, time=0),
    Message('note_on', channel=4, note=58, velocity=80, time=0),
    Message('note_on', channel=8, note=64, velocity=78, time=0),
    Message('note_on', channel=9, note=36, velocity=120, time=0),
    Message('note_on', channel=9, note=44, velocity=80, time=0),
    MetaMessage('lyrics', text='in ', time=0),
    Message('note_on', channel=9, note=36, velocity=0, time=4),
    Message('note_on', channel=9, note=44, velocity=0, time=1),
    Message('note_on', channel=8, note=55, velocity=78, time=5),
    Message('note_on', channel=8, note=60, velocity=78, time=18),
    Message('note_on', channel=4, note=58, velocity=0, time=164),
    Message('note_on', channel=4, note=48, velocity=0, time=0),
    Message('note_on', channel=1, note=48, velocity=0, time=24),
    Message('note_on', channel=8, note=64, velocity=0, time=14),
    Message('note_on', channel=8, note=60, velocity=0, time=5),
    Message('note_on', channel=8, note=55, velocity=0, time=5),
    Message('note_on', channel=3, note=67, velocity=0, time=0),
    Message('note_on', channel=1, note=48, velocity=91, time=0),
    Message('note_on', channel=3, note=67, velocity=100, time=0),
    Message('note_on', channel=4, note=48, velocity=71, time=0),
    Message('note_on', channel=4, note=55, velocity=71, time=0),
    Message('note_on', channel=8, note=60, velocity=63, time=0),
    Message('note_on', channel=9, note=42, velocity=80, time=0),
    MetaMessage('lyrics', text='that, ', time=0),
    Message('note_on', channel=9, note=42, velocity=0, time=5),
    Message('note_on', channel=8, note=55, velocity=63, time=14),
    Message('note_on', channel=8, note=64, velocity=63, time=5),
    Message('note_on', channel=8, note=60, velocity=0, time=138),
    Message('note_on', channel=8, note=64, velocity=0, time=24),
    Message('note_on', channel=8, note=55, velocity=0, time=2),
    Message('note_on', channel=4, note=55, velocity=0, time=4),
    Message('note_on', channel=4, note=48, velocity=0, time=0),
    Message('note_on', channel=1, note=48, velocity=0, time=24),
    Message('note_on', channel=4, note=57, velocity=86, time=24),
    Message('note_on', channel=4, note=48, velocity=86, time=0),
    Message('note_on', channel=8, note=64, velocity=48, time=0),
    Message('note_on', channel=9, note=44, velocity=80, time=0),
    Message('note_on', channel=9, note=54, velocity=50, time=0),
    Message('note_on', channel=9, note=38, velocity=120, time=0),
    Message('note_on', channel=9, note=38, velocity=0, time=4),
    Message('note_on', channel=9, note=54, velocity=0, time=0),
    Message('note_on', channel=9, note=44, velocity=0, time=1),
    Message('note_on', channel=8, note=55, velocity=48, time=13),
    Message('note_on', channel=8, note=60, velocity=48, time=5),
    Message('note_on', channel=4, note=48, velocity=0, time=169),
    Message('note_on', channel=4, note=57, velocity=0, time=0),
    Message('note_on', channel=8, note=64, velocity=0, time=38),
    Message('note_on', channel=8, note=60, velocity=0, time=9),
    Message('note_on', channel=8, note=55, velocity=0, time=0),
    Message('note_on', channel=3, note=67, velocity=0, time=1),
    Message('note_on', channel=1, note=48, velocity=104, time=0),
    Message('note_on', channel=3, note=69, velocity=100, time=0),
    Message('note_on', channel=4, note=52, velocity=70, time=0),
    Message('note_on', channel=4, note=48, velocity=70, time=0),
    Message('note_on', channel=8, note=60, velocity=70, time=0),
    Message('note_on', channel=9, note=42, velocity=80, time=0),
    MetaMessage('lyrics', text='shi', time=0),
    Message('note_on', channel=9, note=42, velocity=0, time=5),
    Message('note_on', channel=8, note=55, velocity=70, time=14),
    Message('note_on', channel=8, note=64, velocity=70, time=14),
    Message('note_on', channel=4, note=48, velocity=0, time=159),
    Message('note_on', channel=4, note=52, velocity=0, time=0),
    Message('note_on', channel=1, note=48, velocity=0, time=24),
    Message('note_on', channel=8, note=60, velocity=0, time=14),
    Message('note_on', channel=8, note=55, velocity=0, time=5),
    Message('note_on', channel=2, note=82, velocity=41, time=5),
    Message('note_on', channel=4, note=48, velocity=87, time=0),
    Message('note_on', channel=4, note=55, velocity=87, time=0),
    Message('note_on', channel=8, note=55, velocity=80, time=0),
    Message('note_on', channel=9, note=36, velocity=120, time=0),
    Message('note_on', channel=9, note=44, velocity=80, time=0),
    Message('note_on', channel=9, note=36, velocity=0, time=4),
    Message('note_on', channel=8, note=64, velocity=0, time=0),
    Message('note_on', channel=9, note=44, velocity=0, time=1),
    Message('note_on', channel=8, note=60, velocity=80, time=11),
    Message('note_on', channel=8, note=64, velocity=80, time=7),
    Message('note_on', channel=4, note=55, velocity=0, time=169),
    Message('note_on', channel=4, note=48, velocity=0, time=0),
    Message('note_on', channel=3, note=69, velocity=0, time=48),
    Message('note_on', channel=1, note=48, velocity=108, time=0),
    Message('note_on', channel=3, note=67, velocity=100, time=0),
    Message('note_on', channel=4, note=55, velocity=72, time=0),
    Message('note_on', channel=4, note=48, velocity=72, time=0),
    Message('note_on', channel=9, note=42, velocity=80, time=0),
    MetaMessage('lyrics', text='ny ', time=0),
    Message('note_on', channel=9, note=42, velocity=0, time=5),
    Message('note_on', channel=4, note=55, velocity=0, time=187),
    Message('note_on', channel=4, note=48, velocity=0, time=0),
    Message('note_on', channel=8, note=64, velocity=0, time=18),
    Message('note_on', channel=1, note=48, velocity=0, time=6),
    Message('note_on', channel=8, note=55, velocity=0, time=5),
    Message('note_on', channel=8, note=60, velocity=0, time=16),
    Message('note_on', channel=4, note=48, velocity=82, time=3),
    Message('note_on', channel=4, note=57, velocity=82, time=0),
    Message('note_on', channel=9, note=44, velocity=80, time=0),
    Message('note_on', channel=9, note=54, velocity=50, time=0),
    Message('note_on', channel=9, note=38, velocity=120, time=0),
    Message('note_on', channel=9, note=38, velocity=0, time=4),
    Message('note_on', channel=9, note=54, velocity=0, time=0),
    Message('note_on', channel=9, note=44, velocity=0, time=1),
    Message('note_on', channel=8, note=55, velocity=59, time=4),
    Message('note_on', channel=8, note=60, velocity=59, time=6),
    Message('note_on', channel=8, note=64, velocity=59, time=4),
    Message('note_on', channel=4, note=57, velocity=0, time=173),
    Message('note_on', channel=4, note=48, velocity=0, time=0),
    Message('note_on', channel=8, note=55, velocity=0, time=14),
    Message('note_on', channel=8, note=60, velocity=0, time=13),
    Message('note_on', channel=8, note=64, velocity=0, time=4),
    Message('note_on', channel=3, note=67, velocity=0, time=17),
    Message('note_on', channel=1, note=48, velocity=97, time=0),
    Message('note_on', channel=3, note=64, velocity=100, time=0),
    Message('note_on', channel=4, note=48, velocity=70, time=0),
    Message('note_on', channel=4, note=52, velocity=70, time=0),
    Message('note_on', channel=8, note=64, velocity=50, time=0),
    Message('note_on', channel=8, note=55, velocity=50, time=0),
    Message('note_on', channel=8, note=60, velocity=50, time=0),
    Message('note_on', channel=9, note=42, velocity=80, time=0),
    MetaMessage('lyrics', text='ni', time=0),
    Message('note_on', channel=9, note=42, velocity=0, time=5),
    Message('note_on', channel=8, note=64, velocity=0, time=79),
    Message('note_on', channel=8, note=60, velocity=0, time=0),
    Message('note_on', channel=8, note=55, velocity=0, time=7),
    Message('note_on', channel=3, note=64, velocity=0, time=29),
    Message('note_on', channel=3, note=62, velocity=100, time=0),
    MetaMessage('lyrics', text='g', time=0),
    Message('note_on', channel=4, note=52, velocity=0, time=72),
    Message('note_on', channel=4, note=48, velocity=0, time=0),
    Message('note_on', channel=1, note=48, velocity=0, time=24),
    Message('note_on', channel=3, note=62, velocity=0, time=24),
    Message('note_on', channel=1, note=48, velocity=101, time=0),
    Message('note_on', channel=3, note=60, velocity=100, time=0),
    Message('note_on', channel=4, note=48, velocity=82, time=0),
    Message('note_on', channel=4, note=55, velocity=82, time=0),
    Message('note_on', channel=8, note=64, velocity=78, time=0),
    Message('note_on', channel=9, note=36, velocity=120, time=0),
    Message('note_on', channel=9, note=44, velocity=80, time=0),
    MetaMessage('lyrics', text='ht, ', time=0),
    MetaMessage('lyrics', text='\r', time=0),
    Message('note_on', channel=9, note=36, velocity=0, time=4),
    Message('note_on', channel=9, note=44, velocity=0, time=1),
    Message('note_on', channel=8, note=55, velocity=78, time=5),
    Message('note_on', channel=8, note=60, velocity=78, time=18),
    Message('note_on', channel=4, note=48, velocity=0, time=164),
    Message('note_on', channel=4, note=55, velocity=0, time=0),
    Message('note_on', channel=1, note=48, velocity=0, time=24),
    Message('note_on', channel=8, note=64, velocity=0, time=14),
    Message('note_on', channel=8, note=60, velocity=0, time=5),
    Message('note_on', channel=8, note=55, velocity=0, time=5),
    Message('note_on', channel=1, note=48, velocity=91, time=0),
    Message('note_on', channel=4, note=48, velocity=70, time=0),
    Message('note_on', channel=4, note=55, velocity=70, time=0),
    Message('note_on', channel=8, note=60, velocity=63, time=0),
    Message('note_on', channel=9, note=42, velocity=80, time=0),
    Message('note_on', channel=9, note=42, velocity=0, time=5),
    Message('note_on', channel=8, note=55, velocity=63, time=14),
    Message('note_on', channel=8, note=64, velocity=63, time=5),
    Message('note_on', channel=8, note=60, velocity=0, time=138),
    Message('note_on', channel=8, note=64, velocity=0, time=24),
    Message('note_on', channel=8, note=55, velocity=0, time=2),
    Message('note_on', channel=4, note=55, velocity=0, time=4),
    Message('note_on', channel=4, note=48, velocity=0, time=0),
    Message('note_on', channel=1, note=48, velocity=0, time=24),
    Message('note_on', channel=1, note=45, velocity=104, time=24),
    Message('note_on', channel=4, note=57, velocity=80, time=0),
    Message('note_on', channel=4, note=48, velocity=80, time=0),
    Message('note_on', channel=8, note=64, velocity=48, time=0),
    Message('note_on', channel=9, note=46, velocity=80, time=0),
    Message('note_on', channel=9, note=54, velocity=50, time=0),
    Message('note_on', channel=9, note=38, velocity=120, time=0),
    Message('note_on', channel=9, note=38, velocity=0, time=4),
    Message('note_on', channel=9, note=54, velocity=0, time=0),
    Message('note_on', channel=9, note=46, velocity=0, time=1),
    Message('note_on', channel=3, note=60, velocity=0, time=12),
    Message('note_on', channel=8, note=55, velocity=48, time=1),
    Message('note_on', channel=8, note=60, velocity=48, time=5),
    Message('note_on', channel=4, note=48, velocity=0, time=169),
    Message('note_on', channel=4, note=57, velocity=0, time=0),
    Message('note_on', channel=1, note=45, velocity=0, time=24),
    Message('note_on', channel=8, note=64, velocity=0, time=14),
    Message('note_on', channel=8, note=55, velocity=0, time=9),
    Message('note_on', channel=8, note=60, velocity=0, time=0),
    Message('note_on', channel=1, note=40, velocity=113, time=1),
    Message('note_on', channel=3, note=60, velocity=100, time=0),
    Message('note_on', channel=4, note=52, velocity=70, time=0),
    Message('note_on', channel=4, note=48, velocity=70, time=0),
    Message('note_on', channel=8, note=60, velocity=70, time=0),
    Message('note_on', channel=9, note=42, velocity=80, time=0),
    MetaMessage('lyrics', text='with, ', time=0),
    Message('note_on', channel=9, note=42, velocity=0, time=5),
    Message('note_on', channel=8, note=55, velocity=70, time=14),
    Message('note_on', channel=8, note=64, velocity=70, time=14),
    Message('note_on', channel=4, note=48, velocity=0, time=159),
    Message('note_on', channel=4, note=52, velocity=0, time=0),
    Message('note_on', channel=1, note=40, velocity=0, time=24),
    Message('note_on', channel=8, note=60, velocity=0, time=14),
    Message('note_on', channel=8, note=55, velocity=0, time=5),
    Message('note_on', channel=3, note=60, velocity=0, time=5),
    Message('note_on', channel=2, note=76, velocity=0, time=0),
    Message('note_on', channel=2, note=79, velocity=0, time=0),
    Message('note_on', channel=2, note=82, velocity=0, time=0),
    Message('note_on', channel=1, note=41, velocity=97, time=0),
    Message('note_on', channel=2, note=77, velocity=77, time=0),
    Message('note_on', channel=2, note=81, velocity=68, time=0),
    Message('note_on', channel=3, note=63, velocity=100, time=0),
    Message('note_on', channel=4, note=48, velocity=86, time=0),
    Message('note_on', channel=4, note=41, velocity=86, time=0),
    Message('note_on', channel=8, note=57, velocity=80, time=0),
    Message('note_on', channel=9, note=36, velocity=120, time=0),
    Message('note_on', channel=9, note=44, velocity=80, time=0),
    MetaMessage('lyrics', text='blo', time=0),
    Message('note_on', channel=9, note=36, velocity=0, time=4),
    Message('note_on', channel=8, note=64, velocity=0, time=0),
    Message('note_on', channel=9, note=44, velocity=0, time=1),
    Message('note_on', channel=8, note=60, velocity=80, time=11),
    Message('note_on', channel=8, note=65, velocity=80, time=7),
    Message('note_on', channel=4, note=41, velocity=0, time=169),
    Message('note_on', channel=4, note=48, velocity=0, time=0),
    Message('note_on', channel=1, note=41, velocity=0, time=24),
    Message('note_on', channel=3, note=63, velocity=0, time=24),
    Message('note_on', channel=1, note=41, velocity=97, time=0),
    Message('note_on', channel=3, note=62, velocity=100, time=0),
    Message('note_on', channel=4, note=48, velocity=69, time=0),
    Message('note_on', channel=4, note=41, velocity=69, time=0),
    Message('note_on', channel=9, note=42, velocity=80, time=0),
    MetaMessage('lyrics', text='od ', time=0),
    Message('note_on', channel=9, note=42, velocity=0, time=5),
    Message('note_on', channel=4, note=41, velocity=0, time=187),
    Message('note_on', channel=4, note=48, velocity=0, time=0),
    Message('note_on', channel=8, note=65, velocity=0, time=18),
    Message('note_on', channel=1, note=41, velocity=0, time=6),
    Message('note_on', channel=8, note=57, velocity=0, time=5),
    Message('note_on', channel=8, note=60, velocity=0, time=16),
    Message('note_on', channel=4, note=50, velocity=83, time=3),
    Message('note_on', channel=4, note=41, velocity=83, time=0),
    Message('note_on', channel=9, note=54, velocity=50, time=0),
    Message('note_on', channel=9, note=44, velocity=80, time=0),
    Message('note_on', channel=9, note=38, velocity=120, time=0),
    Message('note_on', channel=9, note=38, velocity=0, time=4),
    Message('note_on', channel=9, note=54, velocity=0, time=0),
    Message('note_on', channel=9, note=44, velocity=0, time=1),
    Message('note_on', channel=8, note=57, velocity=59, time=4),
    Message('note_on', channel=8, note=60, velocity=59, time=6),
    Message('note_on', channel=8, note=65, velocity=59, time=4),
    Message('note_on', channel=4, note=50, velocity=0, time=173),
    Message('note_on', channel=4, note=41, velocity=0, time=0),
    Message('note_on', channel=8, note=57, velocity=0, time=14),
    Message('note_on', channel=8, note=60, velocity=0, time=13),
    Message('note_on', channel=8, note=65, velocity=0, time=4),
    Message('note_on', channel=3, note=62, velocity=0, time=17),
    Message('note_on', channel=1, note=41, velocity=91, time=0),
    Message('note_on', channel=3, note=60, velocity=100, time=0),
    Message('note_on', channel=4, note=45, velocity=72, time=0),
    Message('note_on', channel=4, note=41, velocity=72, time=0),
    Message('note_on', channel=8, note=57, velocity=50, time=0),
    Message('note_on', channel=8, note=60, velocity=50, time=0),
    Message('note_on', channel=8, note=65, velocity=50, time=0),
    Message('note_on', channel=9, note=42, velocity=80, time=0),
    Message('note_on', channel=9, note=36, velocity=120, time=0),
    MetaMessage('lyrics', text='hounds, ', time=0),
    MetaMessage('lyrics', text='\r', time=0),
    Message('note_on', channel=9, note=42, velocity=0, time=5),
    Message('note_on', channel=9, note=36, velocity=0, time=11),
    Message('note_on', channel=8, note=65, velocity=0, time=68),
    Message('note_on', channel=8, note=60, velocity=0, time=0),
    Message('note_on', channel=8, note=57, velocity=0, time=7),
    Message('note_on', channel=4, note=41, velocity=0, time=101),
    Message('note_on', channel=4, note=45, velocity=0, time=0),
    Message('note_on', channel=1, note=41, velocity=0, time=24),
    Message('note_on', channel=1, note=41, velocity=104, time=24),
    Message('note_on', channel=4, note=41, velocity=80, time=0),
    Message('note_on', channel=4, note=51, velocity=80, time=0),
    Message('note_on', channel=8, note=65, velocity=78, time=0),
    Message('note_on', channel=9, note=44, velocity=80, time=0),
    Message('note_on', channel=9, note=36, velocity=120, time=0),
    Message('note_on', channel=9, note=36, velocity=0, time=4),
    Message('note_on', channel=9, note=44, velocity=0, time=1),
    Message('note_on', channel=8, note=57, velocity=78, time=5),
    Message('note_on', channel=8, note=60, velocity=78, time=18),
    Message('note_on', channel=4, note=51, velocity=0, time=164),
    Message('note_on', channel=4, note=41, velocity=0, time=0),
    Message('note_on', channel=1, note=41, velocity=0, time=24),
    Message('note_on', channel=8, note=65, velocity=0, time=14),
    Message('note_on', channel=8, note=60, velocity=0, time=5),
    Message('note_on', channel=8, note=57, velocity=0, time=5),
    Message('note_on', channel=1, note=41, velocity=104, time=0),
    Message('note_on', channel=4, note=41, velocity=71, time=0),
    Message('note_on', channel=4, note=48, velocity=71, time=0),
    Message('note_on', channel=8, note=60, velocity=63, time=0),
    Message('note_on', channel=9, note=42, velocity=80, time=0),
    Message('note_on', channel=9, note=42, velocity=0, time=5),
    Message('note_on', channel=8, note=57, velocity=63, time=14),
    Message('note_on', channel=8, note=65, velocity=63, time=5),
    Message('note_on', channel=8, note=60, velocity=0, time=138),
    Message('note_on', channel=8, note=65, velocity=0, time=24),
    Message('note_on', channel=8, note=57, velocity=0, time=2),
    Message('note_on', channel=4, note=48, velocity=0, time=4),
    Message('note_on', channel=4, note=41, velocity=0, time=0),
    Message('note_on', channel=1, note=41, velocity=0, time=24),
    Message('note_on', channel=3, note=60, velocity=0, time=24),
    Message('note_on', channel=3, note=63, velocity=100, time=0),
    Message('note_on', channel=4, note=50, velocity=86, time=0),
    Message('note_on', channel=4, note=41, velocity=86, time=0),
    Message('note_on', channel=8, note=65, velocity=48, time=0),
    Message('note_on', channel=9, note=44, velocity=80, time=0),
    Message('note_on', channel=9, note=54, velocity=50, time=0),
    Message('note_on', channel=9, note=38, velocity=120, time=0),
    MetaMessage('lyrics', text='on ', time=0),
    Message('note_on', channel=9, note=38, velocity=0, time=4),
    Message('note_on', channel=9, note=54, velocity=0, time=0),
    Message('note_on', channel=9, note=44, velocity=0, time=1),
    Message('note_on', channel=8, note=57, velocity=48, time=13),
    Message('note_on', channel=8, note=60, velocity=48, time=5),
    Message('note_on', channel=4, note=41, velocity=0, time=169),
    Message('note_on', channel=4, note=50, velocity=0, time=0),
    Message('note_on', channel=8, note=65, velocity=0, time=38),
    Message('note_on', channel=8, note=60, velocity=0, time=9),
    Message('note_on', channel=8, note=57, velocity=0, time=0),
    Message('note_on', channel=3, note=63, velocity=0, time=1),
    Message('note_on', channel=1, note=41, velocity=101, time=0),
    Message('note_on', channel=3, note=62, velocity=100, time=0),
    Message('note_on', channel=4, note=48, velocity=70, time=0),
    Message('note_on', channel=4, note=41, velocity=70, time=0),
    Message('note_on', channel=8, note=60, velocity=70, time=0),
    Message('note_on', channel=9, note=42, velocity=80, time=0),
    MetaMessage('lyrics', text='your ', time=0),
    Message('note_on', channel=9, note=42, velocity=0, time=5),
    Message('note_on', channel=8, note=57, velocity=70, time=14),
    Message('note_on', channel=8, note=65, velocity=70, time=14),
    Message('note_on', channel=1, note=41, velocity=0, time=183),
    Message('note_on', channel=8, note=60, velocity=0, time=14),
    Message('note_on', channel=8, note=57, velocity=0, time=5),
    Message('note_on', channel=3, note=62, velocity=0, time=5),
    Message('note_on', channel=3, note=60, velocity=100, time=0),
    Message('note_on', channel=8, note=57, velocity=80, time=0),
    Message('note_on', channel=9, note=36, velocity=120, time=0),
    Message('note_on', channel=9, note=44, velocity=80, time=0),
    MetaMessage('lyrics', text='mind, ', time=0),
    MetaMessage('lyrics', text='\r', time=0),
    Message('note_on', channel=9, note=36, velocity=0, time=4),
    Message('note_on', channel=8, note=65, velocity=0, time=0),
    Message('note_on', channel=9, note=44, velocity=0, time=1),
    Message('note_on', channel=8, note=60, velocity=80, time=11),
    Message('note_on', channel=8, note=65, velocity=80, time=7),
    Message('note_on', channel=4, note=41, velocity=0, time=174),
    Message('note_on', channel=4, note=48, velocity=0, time=21),
    Message('note_on', channel=3, note=60, velocity=0, time=22),
    Message('note_on', channel=1, note=41, velocity=113, time=0),
    Message('note_on', channel=4, note=41, velocity=72, time=0),
    Message('note_on', channel=4, note=48, velocity=72, time=0),
    Message('note_on', channel=6, note=41, velocity=110, time=0),
    Message('note_on', channel=9, note=42, velocity=80, time=0),
    Message('note_on', channel=13, note=41, velocity=100, time=0),
    Message('note_on', channel=9, note=42, velocity=0, time=5),
    Message('note_on', channel=4, note=48, velocity=0, time=187),
    Message('note_on', channel=4, note=41, velocity=0, time=0),
    Message('note_on', channel=8, note=65, velocity=0, time=18),
    Message('note_on', channel=1, note=41, velocity=0, time=6),
    Message('note_on', channel=8, note=57, velocity=0, time=5),
    Message('note_on', channel=8, note=60, velocity=0, time=16),
    Message('note_on', channel=6, note=41, velocity=0, time=3),
    Message('note_on', channel=13, note=41, velocity=0, time=0),
    Message('note_on', channel=4, note=50, velocity=82, time=0),
    Message('note_on', channel=4, note=41, velocity=82, time=0),
    Message('note_on', channel=6, note=45, velocity=110, time=0),
    Message('note_on', channel=9, note=54, velocity=50, time=0),
    Message('note_on', channel=9, note=44, velocity=80, time=0),
    Message('note_on', channel=9, note=38, velocity=120, time=0),
    Message('note_on', channel=13, note=45, velocity=100, time=0),
    Message('note_on', channel=9, note=38, velocity=0, time=4),
    Message('note_on', channel=9, note=54, velocity=0, time=0),
    Message('note_on', channel=9, note=44, velocity=0, time=1),
    Message('note_on', channel=8, note=57, velocity=59, time=4),
    Message('note_on', channel=8, note=60, velocity=59, time=6),
    Message('note_on', channel=8, note=65, velocity=59, time=4),
    Message('note_on', channel=4, note=50, velocity=0, time=173),
    Message('note_on', channel=4, note=41, velocity=0, time=0),
    Message('note_on', channel=8, note=57, velocity=0, time=14),
    Message('note_on', channel=8, note=60, velocity=0, time=13),
    Message('note_on', channel=8, note=65, velocity=0, time=4),
    Message('note_on', channel=13, note=45, velocity=0, time=17),
    Message('note_on', channel=6, note=45, velocity=0, time=0),
    Message('note_on', channel=1, note=41, velocity=108, time=0),
    Message('note_on', channel=4, note=45, velocity=70, time=0),
    Message('note_on', channel=4, note=41, velocity=70, time=0),
    Message('note_on', channel=6, note=48, velocity=110, time=0),
    Message('note_on', channel=8, note=60, velocity=50, time=0),
    Message('note_on', channel=8, note=65, velocity=50, time=0),
    Message('note_on', channel=8, note=57, velocity=50, time=0),
    Message('note_on', channel=9, note=42, velocity=80, time=0),
    Message('note_on', channel=13, note=48, velocity=100, time=0),
    Message('note_on', channel=9, note=42, velocity=0, time=5),
    Message('note_on', channel=8, note=65, velocity=0, time=79),
    Message('note_on', channel=8, note=60, velocity=0, time=0),
    Message('note_on', channel=8, note=57, velocity=0, time=7),
    Message('note_on', channel=4, note=41, velocity=0, time=101),
    Message('note_on', channel=4, note=45, velocity=0, time=0),
    Message('note_on', channel=1, note=41, velocity=0, time=24),
    Message('note_on', channel=6, note=48, velocity=0, time=24),
    Message('note_on', channel=13, note=48, velocity=0, time=0),
    Message('note_on', channel=1, note=43, velocity=104, time=0),
    Message('note_on', channel=4, note=41, velocity=82, time=0),
    Message('note_on', channel=4, note=48, velocity=82, time=0),
    Message('note_on', channel=6, note=50, velocity=110, time=0),
    Message('note_on', channel=8, note=65, velocity=78, time=0),
    Message('note_on', channel=9, note=44, velocity=80, time=0),
    Message('note_on', channel=9, note=36, velocity=120, time=0),
    Message('note_on', channel=13, note=50, velocity=100, time=0),
    Message('note_on', channel=9, note=36, velocity=0, time=4),
    Message('note_on', channel=9, note=44, velocity=0, time=1),
    Message('note_on', channel=8, note=57, velocity=78, time=5),
    Message('note_on', channel=8, note=60, velocity=78, time=18),
    Message('note_on', channel=4, note=48, velocity=0, time=164),
    Message('note_on', channel=4, note=41, velocity=0, time=0),
    Message('note_on', channel=1, note=43, velocity=0, time=24),
    Message('note_on', channel=8, note=65, velocity=0, time=14),
    Message('note_on', channel=8, note=60, velocity=0, time=5),
    Message('note_on', channel=6, note=50, velocity=0, time=5),
    Message('note_on', channel=13, note=50, velocity=0, time=0),
    Message('note_on', channel=8, note=57, velocity=0, time=0),
    Message('note_on', channel=1, note=43, velocity=91, time=0),
    Message('note_on', channel=4, note=48, velocity=70, time=0),
    Message('note_on', channel=4, note=41, velocity=70, time=0),
    Message('note_on', channel=6, note=48, velocity=110, time=0),
    Message('note_on', channel=8, note=60, velocity=63, time=0),
    Message('note_on', channel=9, note=42, velocity=80, time=0),
    Message('note_on', channel=9, note=36, velocity=120, time=0),
    Message('note_on', channel=13, note=48, velocity=100, time=0),
    Message('note_on', channel=9, note=36, velocity=0, time=4),
    Message('note_on', channel=9, note=42, velocity=0, time=1),
    Message('note_on', channel=8, note=57, velocity=63, time=14),
    Message('note_on', channel=8, note=65, velocity=63, time=5),
    Message('note_on', channel=8, note=60, velocity=0, time=138),
    Message('note_on', channel=8, note=65, velocity=0, time=24),
    Message('note_on', channel=8, note=57, velocity=0, time=2),
    Message('note_on', channel=4, note=41, velocity=0, time=4),
    Message('note_on', channel=4, note=48, velocity=0, time=0),
    Message('note_on', channel=1, note=43, velocity=0, time=24),
    Message('note_on', channel=13, note=48, velocity=0, time=24),
    Message('note_on', channel=6, note=48, velocity=0, time=0),
    Message('note_on', channel=1, note=45, velocity=83, time=0),
    Message('note_on', channel=4, note=50, velocity=80, time=0),
    Message('note_on', channel=4, note=41, velocity=80, time=0),
    Message('note_on', channel=6, note=50, velocity=110, time=0),
    Message('note_on', channel=8, note=65, velocity=48, time=0),
    Message('note_on', channel=9, note=46, velocity=80, time=0),
    Message('note_on', channel=9, note=54, velocity=50, time=0),
    Message('note_on', channel=9, note=38, velocity=120, time=0),
    Message('note_on', channel=13, note=50, velocity=100, time=0),
    Message('note_on', channel=9, note=38, velocity=0, time=4),
    Message('note_on', channel=9, note=54, velocity=0, time=0),
    Message('note_on', channel=9, note=46, velocity=0, time=1),
    Message('note_on', channel=8, note=57, velocity=48, time=13),
    Message('note_on', channel=8, note=60, velocity=48, time=5),
    Message('pitchwheel', channel=6, pitch=128, time=33),
    Message('pitchwheel', channel=13, pitch=128, time=0),
    Message('pitchwheel', channel=6, pitch=384, time=7),
    Message('pitchwheel', channel=13, pitch=384, time=0),
    Message('pitchwheel', channel=6, pitch=640, time=7),
    Message('pitchwheel', channel=13, pitch=640, time=0),
    Message('pitchwheel', channel=6, pitch=896, time=7),
    Message('pitchwheel', channel=13, pitch=896, time=0),
    Message('pitchwheel', channel=6, pitch=1152, time=7),
    Message('pitchwheel', channel=13, pitch=1152, time=0),
    Message('pitchwheel', channel=6, pitch=1408, time=7),
    Message('pitchwheel', channel=13, pitch=1408, time=0),
    Message('pitchwheel', channel=6, pitch=1664, time=7),
    Message('pitchwheel', channel=13, pitch=1664, time=0),
    Message('pitchwheel', channel=6, pitch=1920, time=7),
    Message('pitchwheel', channel=13, pitch=1920, time=0),
    Message('pitchwheel', channel=6, pitch=2304, time=7),
    Message('pitchwheel', channel=13, pitch=2304, time=0),
    Message('pitchwheel', channel=6, pitch=2560, time=8),
    Message('pitchwheel', channel=13, pitch=2560, time=0),
    Message('pitchwheel', channel=6, pitch=2816, time=7),
    Message('pitchwheel', channel=13, pitch=2816, time=0),
    Message('pitchwheel', channel=6, pitch=3072, time=7),
    Message('pitchwheel', channel=13, pitch=3072, time=0),
    Message('pitchwheel', channel=6, pitch=3328, time=7),
    Message('pitchwheel', channel=13, pitch=3328, time=0),
    Message('pitchwheel', channel=6, pitch=3584, time=7),
    Message('pitchwheel', channel=13, pitch=3584, time=0),
    Message('pitchwheel', channel=6, pitch=3840, time=7),
    Message('pitchwheel', channel=13, pitch=3840, time=0),
    Message('pitchwheel', channel=6, pitch=4224, time=7),
    Message('pitchwheel', channel=13, pitch=4224, time=0),
    Message('note_on', channel=4, note=41, velocity=0, time=30),
    Message('note_on', channel=4, note=50, velocity=0, time=0),
    Message('note_on', channel=1, note=45, velocity=0, time=24),
    Message('note_on', channel=8, note=65, velocity=0, time=14),
    Message('note_on', channel=8, note=60, velocity=0, time=9),
    Message('note_on', channel=8, note=57, velocity=0, time=0),
    Message('note_on', channel=1, note=45, velocity=86, time=1),
    Message('note_on', channel=4, note=45, velocity=70, time=0),
    Message('note_on', channel=4, note=41, velocity=70, time=0),
    Message('note_on', channel=8, note=60, velocity=70, time=0),
    Message('note_on', channel=9, note=42, velocity=80, time=0),
    Message('note_on', channel=9, note=42, velocity=0, time=5),
    Message('note_on', channel=8, note=57, velocity=70, time=14),
    Message('note_on', channel=8, note=65, velocity=70, time=14),
    Message('pitchwheel', channel=6, pitch=4224, time=30),
    Message('pitchwheel', channel=13, pitch=4224, time=0),
    Message('pitchwheel', channel=6, pitch=3840, time=7),
    Message('pitchwheel', channel=13, pitch=3840, time=0),
    Message('pitchwheel', channel=6, pitch=3456, time=7),
    Message('pitchwheel', channel=13, pitch=3456, time=0),
    Message('pitchwheel', channel=6, pitch=3072, time=7),
    Message('pitchwheel', channel=13, pitch=3072, time=0),
    Message('pitchwheel', channel=6, pitch=2688, time=7),
    Message('pitchwheel', channel=13, pitch=2688, time=0),
    Message('pitchwheel', channel=6, pitch=2176, time=7),
    Message('pitchwheel', channel=13, pitch=2176, time=0),
    Message('pitchwheel', channel=6, pitch=1792, time=7),
    Message('pitchwheel', channel=13, pitch=1792, time=0),
    Message('pitchwheel', channel=6, pitch=1408, time=7),
    Message('pitchwheel', channel=13, pitch=1408, time=0),
    Message('pitchwheel', channel=6, pitch=1024, time=8),
    Message('pitchwheel', channel=13, pitch=1024, time=0),
    Message('pitchwheel', channel=6, pitch=640, time=7),
    Message('pitchwheel', channel=13, pitch=640, time=0),
    Message('pitchwheel', channel=6, pitch=128, time=7),
    Message('pitchwheel', channel=13, pitch=128, time=0),
    Message('note_on', channel=4, note=41, velocity=0, time=58),
    Message('note_on', channel=4, note=45, velocity=0, time=0),
    Message('pitchwheel', channel=6, pitch=0, time=12),
    Message('pitchwheel', channel=13, pitch=0, time=0),
    Message('note_on', channel=1, note=45, velocity=0, time=12),
    Message('note_on', channel=8, note=60, velocity=0, time=14),
    Message('note_on', channel=8, note=57, velocity=0, time=5),
    Message('note_on', channel=13, note=50, velocity=0, time=5),
    Message('note_on', channel=2, note=81, velocity=0, time=0),
    Message('note_on', channel=2, note=77, velocity=0, time=0),
    Message('note_on', channel=6, note=50, velocity=0, time=0),
    Message('note_on', channel=1, note=48, velocity=97, time=0),
    Message('note_on', channel=2, note=76, velocity=59, time=0),
    Message('note_on', channel=2, note=79, velocity=60, time=0),
    Message('note_on', channel=4, note=55, velocity=86, time=0),
    Message('note_on', channel=4, note=48, velocity=86, time=0),
    Message('note_on', channel=6, note=48, velocity=110, time=0),
    Message('note_on', channel=8, note=55, velocity=80, time=0),
    Message('note_on', channel=9, note=44, velocity=80, time=0),
    Message('note_on', channel=9, note=36, velocity=120, time=0),
    Message('note_on', channel=13, note=48, velocity=100, time=0),
    Message('note_on', channel=9, note=36, velocity=0, time=4),
    Message('note_on', channel=8, note=65, velocity=0, time=0),
    Message('note_on', channel=9, note=44, velocity=0, time=1),
    Message('note_on', channel=8, note=60, velocity=80, time=11),
    Message('note_on', channel=8, note=64, velocity=80, time=7),
    Message('note_on', channel=4, note=48, velocity=0, time=169),
    Message('note_on', channel=4, note=55, velocity=0, time=0),
    Message('note_on', channel=1, note=48, velocity=0, time=24),
    Message('note_on', channel=1, note=48, velocity=88, time=24),
    Message('note_on', channel=4, note=48, velocity=69, time=0),
    Message('note_on', channel=4, note=55, velocity=69, time=0),
    Message('note_on', channel=9, note=42, velocity=80, time=0),
    Message('note_on', channel=9, note=42, velocity=0, time=5),
    Message('note_on', channel=4, note=48, velocity=0, time=187),
    Message('note_on', channel=4, note=55, velocity=0, time=0),
    Message('note_on', channel=8, note=64, velocity=0, time=18),
    Message('note_on', channel=1, note=48, velocity=0, time=6),
    Message('note_on', channel=8, note=55, velocity=0, time=5),
    Message('note_on', channel=8, note=60, velocity=0, time=16),
    Message('note_on', channel=3, note=64, velocity=100, time=3),
    Message('note_on', channel=4, note=57, velocity=83, time=0),
    Message('note_on', channel=4, note=48, velocity=83, time=0),
    Message('note_on', channel=5, note=67, velocity=80, time=0),
    Message('note_on', channel=5, note=64, velocity=80, time=0),
    Message('note_on', channel=9, note=54, velocity=50, time=0),
    Message('note_on', channel=9, note=44, velocity=80, time=0),
    Message('note_on', channel=9, note=38, velocity=120, time=0),
    MetaMessage('lyrics', text="don't ", time=0),
    Message('note_on', channel=9, note=38, velocity=0, time=4),
    Message('note_on', channel=9, note=54, velocity=0, time=0),
    Message('note_on', channel=9, note=44, velocity=0, time=1),
    Message('note_on', channel=5, note=60, velocity=80, time=0),
    Message('note_on', channel=8, note=55, velocity=59, time=4),
    Message('note_on', channel=8, note=60, velocity=59, time=6),
    Message('note_on', channel=8, note=64, velocity=59, time=4),
    Message('control_change', channel=13, control=1, value=45, time=2),
    Message('note_on', channel=4, note=48, velocity=0, time=171),
    Message('note_on', channel=4, note=57, velocity=0, time=0),
    Message('note_on', channel=8, note=55, velocity=0, time=14),
    Message('note_on', channel=8, note=60, velocity=0, time=13),
    Message('note_on', channel=8, note=64, velocity=0, time=4),
    Message('note_on', channel=5, note=67, velocity=0, time=17),
    Message('note_on', channel=5, note=64, velocity=0, time=0),
    Message('note_on', channel=3, note=64, velocity=0, time=0),
    Message('note_on', channel=1, note=48, velocity=86, time=0),
    Message('note_on', channel=3, note=67, velocity=100, time=0),
    Message('note_on', channel=4, note=52, velocity=72, time=0),
    Message('note_on', channel=4, note=48, velocity=72, time=0),
    Message('note_on', channel=5, note=67, velocity=80, time=0),
    Message('note_on', channel=5, note=72, velocity=80, time=0),
    Message('note_on', channel=8, note=60, velocity=50, time=0),
    Message('note_on', channel=8, note=64, velocity=50, time=0),
    Message('note_on', channel=8, note=55, velocity=50, time=0),
    Message('note_on', channel=9, note=42, velocity=80, time=0),
    Message('note_on', channel=9, note=36, velocity=120, time=0),
    MetaMessage('lyrics', text='you ', time=0),
    Message('note_on', channel=9, note=42, velocity=0, time=5),
    Message('note_on', channel=5, note=60, velocity=0, time=0),
    Message('note_on', channel=9, note=36, velocity=0, time=11),
    Message('note_on', channel=5, note=64, velocity=80, time=7),
    Message('note_on', channel=8, note=64, velocity=0, time=61),
    Message('note_on', channel=8, note=60, velocity=0, time=0),
    Message('note_on', channel=8, note=55, velocity=0, time=7),
    Message('control_change', channel=13, control=1, value=75, time=29),
    Message('note_on', channel=4, note=48, velocity=0, time=72),
    Message('note_on', channel=4, note=52, velocity=0, time=0),
    Message('note_on', channel=1, note=48, velocity=0, time=24),
    Message('note_on', channel=3, note=67, velocity=0, time=24),
    Message('note_on', channel=5, note=67, velocity=0, time=0),
    Message('note_on', channel=5, note=72, velocity=0, time=0),
    Message('note_on', channel=1, note=48, velocity=94, time=0),
    Message('note_on', channel=3, note=67, velocity=100, time=0),
    Message('note_on', channel=4, note=48, velocity=80, time=0),
    Message('note_on', channel=4, note=55, velocity=80, time=0),
    Message('note_on', channel=5, note=67, velocity=80, time=0),
    Message('note_on', channel=5, note=72, velocity=80, time=0),
    Message('note_on', channel=8, note=64, velocity=78, time=0),
    Message('note_on', channel=9, note=36, velocity=120, time=0),
    Message('note_on', channel=9, note=44, velocity=80, time=0),
    MetaMessage('lyrics', text='know ', time=0),
    Message('note_on', channel=9, note=36, velocity=0, time=4),
    Message('note_on', channel=9, note=44, velocity=0, time=1),
    Message('note_on', channel=8, note=55, velocity=78, time=5),
    Message('note_on', channel=5, note=64, velocity=0, time=13),
    Message('note_on', channel=8, note=60, velocity=78, time=5),
    Message('note_on', channel=5, note=64, velocity=80, time=3),
    Message('note_on', channel=4, note=55, velocity=0, time=161),
    Message('note_on', channel=4, note=48, velocity=0, time=0),
    Message('note_on', channel=1, note=48, velocity=0, time=24),
    Message('note_on', channel=8, note=64, velocity=0, time=14),
    Message('note_on', channel=8, note=60, velocity=0, time=5),
    Message('note_on', channel=3, note=67, velocity=0, time=5),
    Message('note_on', channel=5, note=67, velocity=0, time=0),
    Message('note_on', channel=8, note=55, velocity=0, time=0),
    Message('note_on', channel=5, note=72, velocity=0, time=0),
    Message('note_on', channel=1, note=48, velocity=91, time=0),
    Message('note_on', channel=3, note=67, velocity=100, time=0),
    Message('note_on', channel=4, note=48, velocity=71, time=0),
    Message('note_on', channel=4, note=55, velocity=71, time=0),
    Message('note_on', channel=5, note=72, velocity=80, time=0),
    Message('note_on', channel=5, note=67, velocity=80, time=0),
    Message('note_on', channel=8, note=60, velocity=63, time=0),
    Message('note_on', channel=9, note=42, velocity=80, time=0),
    MetaMessage('lyrics', text="it's ", time=0),
    Message('note_on', channel=9, note=42, velocity=0, time=5),
    Message('note_on', channel=8, note=55, velocity=63, time=14),
    Message('note_on', channel=8, note=64, velocity=63, time=5),
    Message('note_on', channel=5, note=64, velocity=0, time=7),
    Message('note_on', channel=5, note=64, velocity=80, time=0),
    Message('note_on', channel=8, note=60, velocity=0, time=131),
    Message('note_on', channel=8, note=64, velocity=0, time=24),
    Message('note_on', channel=8, note=55, velocity=0, time=2),
    Message('note_on', channel=4, note=55, velocity=0, time=4),
    Message('note_on', channel=4, note=48, velocity=0, time=0),
    Message('note_on', channel=1, note=48, velocity=0, time=24),
    Message('pitchwheel', channel=6, pitch=4096, time=2),
    Message('pitchwheel', channel=13, pitch=4096, time=0),
    Message('note_on', channel=6, note=48, velocity=0, time=7),
    Message('note_on', channel=13, note=48, velocity=0, time=0),
    Message('note_on', channel=3, note=67, velocity=0, time=15),
    Message('note_on', channel=5, note=72, velocity=0, time=0),
    Message('note_on', channel=5, note=67, velocity=0, time=0),
    Message('note_on', channel=1, note=45, velocity=91, time=0),
    Message('note_on', channel=3, note=67, velocity=100, time=0),
    Message('note_on', channel=4, note=57, velocity=86, time=0),
    Message('note_on', channel=4, note=48, velocity=86, time=0),
    Message('note_on', channel=5, note=67, velocity=80, time=0),
    Message('note_on', channel=5, note=72, velocity=80, time=0),
    Message('note_on', channel=6, note=45, velocity=110, time=0),
    Message('note_on', channel=8, note=64, velocity=48, time=0),
    Message('note_on', channel=9, note=44, velocity=80, time=0),
    Message('note_on', channel=9, note=54, velocity=50, time=0),
    Message('note_on', channel=9, note=38, velocity=120, time=0),
    Message('control_change', channel=13, control=1, value=0, time=0),
    Message('note_on', channel=13, note=45, velocity=100, time=0),
    MetaMessage('lyrics', text='the, ', time=0),
    MetaMessage('lyrics', text='\r', time=0),
    Message('note_on', channel=9, note=38, velocity=0, time=4),
    Message('note_on', channel=9, note=54, velocity=0, time=0),
    Message('note_on', channel=9, note=44, velocity=0, time=1),
    Message('note_on', channel=8, note=55, velocity=48, time=13),
    Message('note_on', channel=8, note=60, velocity=48, time=5),
    Message('note_on', channel=5, note=64, velocity=0, time=8),
    Message('note_on', channel=5, note=64, velocity=80, time=0),
    Message('pitchwheel', channel=6, pitch=4224, time=124),
    Message('pitchwheel', channel=13, pitch=4224, time=0),
    Message('pitchwheel', channel=6, pitch=3712, time=7),
    Message('pitchwheel', channel=13, pitch=3712, time=0),
    Message('pitchwheel', channel=6, pitch=3200, time=7),
    Message('pitchwheel', channel=13, pitch=3200, time=0),
    Message('pitchwheel', channel=6, pitch=2688, time=7),
    Message('pitchwheel', channel=13, pitch=2688, time=0),
    Message('pitchwheel', channel=6, pitch=2176, time=7),
    Message('pitchwheel', channel=13, pitch=2176, time=0),
    Message('pitchwheel', channel=6, pitch=1664, time=7),
    Message('pitchwheel', channel=13, pitch=1664, time=0),
    Message('note_on', channel=4, note=48, velocity=0, time=2),
    Message('note_on', channel=4, note=57, velocity=0, time=0),
    Message('pitchwheel', channel=6, pitch=1152, time=5),
    Message('pitchwheel', channel=13, pitch=1152, time=0),
    Message('pitchwheel', channel=6, pitch=640, time=7),
    Message('pitchwheel', channel=13, pitch=640, time=0),
    Message('pitchwheel', channel=6, pitch=0, time=7),
    Message('pitchwheel', channel=13, pitch=0, time=0),
    Message('note_on', channel=1, note=45, velocity=0, time=5),
    Message('note_on', channel=8, note=64, velocity=0, time=14),
    Message('note_on', channel=8, note=55, velocity=0, time=9),
    Message('note_on', channel=8, note=60, velocity=0, time=0),
    Message('note_on', channel=3, note=67, velocity=0, time=1),
    Message('note_on', channel=5, note=67, velocity=0, time=0),
    Message('note_on', channel=5, note=72, velocity=0, time=0),
    Message('note_on', channel=1, note=48, velocity=104, time=0),
    Message('note_on', channel=3, note=69, velocity=100, time=0),
    Message('note_on', channel=4, note=48, velocity=70, time=0),
    Message('note_on', channel=4, note=52, velocity=70, time=0),
    Message('note_on', channel=5, note=74, velocity=80, time=0),
    Message('note_on', channel=5, note=69, velocity=80, time=0),
    Message('note_on', channel=8, note=60, velocity=70, time=0),
    Message('note_on', channel=9, note=36, velocity=120, time=0),
    Message('note_on', channel=9, note=42, velocity=80, time=0),
    MetaMessage('lyrics', text='same ', time=0),
    Message('note_on', channel=9, note=36, velocity=0, time=4),
    Message('note_on', channel=9, note=42, velocity=0, time=1),
    Message('note_on', channel=8, note=55, velocity=70, time=14),
    Message('note_on', channel=5, note=64, velocity=0, time=12),
    Message('note_on', channel=5, note=65, velocity=80, time=0),
    Message('note_on', channel=8, note=64, velocity=70, time=2),
    Message('note_on', channel=4, note=52, velocity=0, time=159),
    Message('note_on', channel=4, note=48, velocity=0, time=0),
    Message('note_on', channel=1, note=48, velocity=0, time=24),
    Message('note_on', channel=8, note=60, velocity=0, time=14),
    Message('note_on', channel=8, note=55, velocity=0, time=5),
    Message('note_on', channel=13, note=45, velocity=0, time=5),
    Message('note_on', channel=2, note=72, velocity=0, time=0),
    Message('note_on', channel=2, note=76, velocity=0, time=0),
    Message('note_on', channel=6, note=45, velocity=0, time=0),
    Message('note_on', channel=1, note=43, velocity=104, time=0),
    Message('note_on', channel=2, note=74, velocity=83, time=0),
    Message('note_on', channel=2, note=71, velocity=68, time=0),
    Message('note_on', channel=4, note=43, velocity=87, time=0),
    Message('note_on', channel=4, note=50, velocity=87, time=0),
    Message('note_on', channel=6, note=43, velocity=110, time=0),
    Message('note_on', channel=8, note=55, velocity=80, time=0),
    Message('note_on', channel=9, note=44, velocity=80, time=0),
    Message('note_on', channel=9, note=36, velocity=120, time=0),
    Message('note_on', channel=13, note=43, velocity=100, time=0),
    Message('note_on', channel=9, note=36, velocity=0, time=4),
    Message('note_on', channel=8, note=64, velocity=0, time=0),
    Message('note_on', channel=9, note=44, velocity=0, time=1),
    Message('note_on', channel=8, note=59, velocity=80, time=11),
    Message('note_on', channel=8, note=62, velocity=80, time=7),
    Message('note_on', channel=4, note=50, velocity=0, time=169),
    Message('note_on', channel=4, note=43, velocity=0, time=0),
    Message('note_on', channel=1, note=43, velocity=0, time=24),
    Message('note_on', channel=5, note=74, velocity=0, time=24),
    Message('note_on', channel=3, note=69, velocity=0, time=0),
    Message('note_on', channel=5, note=69, velocity=0, time=0),
    Message('note_on', channel=1, note=43, velocity=104, time=0),
    Message('note_on', channel=3, note=67, velocity=100, time=0),
    Message('note_on', channel=4, note=50, velocity=72, time=0),
    Message('note_on', channel=4, note=43, velocity=72, time=0),
    Message('note_on', channel=5, note=67, velocity=80, time=0),
    Message('note_on', channel=5, note=71, velocity=80, time=0),
    Message('note_on', channel=9, note=42, velocity=80, time=0),
    MetaMessage('lyrics', text='sad, ', time=0),
    Message('note_on', channel=9, note=42, velocity=0, time=5),
    Message('note_on', channel=5, note=65, velocity=0, time=26),
    Message('note_on', channel=5, note=62, velocity=80, time=0),
    Message('note_on', channel=4, note=43, velocity=0, time=161),
    Message('note_on', channel=4, note=50, velocity=0, time=0),
    Message('note_on', channel=8, note=62, velocity=0, time=18),
    Message('note_on', channel=1, note=43, velocity=0, time=6),
    Message('note_on', channel=8, note=55, velocity=0, time=5),
    Message('control_change', channel=13, control=1, value=73, time=11),
    Message('note_on', channel=8, note=59, velocity=0, time=5),
    Message('note_on', channel=4, note=52, velocity=82, time=3),
    Message('note_on', channel=4, note=43, velocity=82, time=0),
    Message('note_on', channel=9, note=54, velocity=50, time=0),
    Message('note_on', channel=9, note=44, velocity=80, time=0),
    Message('note_on', channel=9, note=38, velocity=120, time=0),
    Message('note_on', channel=9, note=38, velocity=0, time=4),
    Message('note_on', channel=9, note=54, velocity=0, time=0),
    Message('note_on', channel=9, note=44, velocity=0, time=1),
    Message('note_on', channel=8, note=55, velocity=59, time=4),
    Message('note_on', channel=8, note=59, velocity=59, time=6),
    Message('note_on', channel=8, note=62, velocity=59, time=4),
    Message('note_on', channel=4, note=52, velocity=0, time=173),
    Message('note_on', channel=4, note=43, velocity=0, time=0),
    Message('note_on', channel=8, note=55, velocity=0, time=14),
    Message('note_on', channel=8, note=59, velocity=0, time=13),
    Message('note_on', channel=8, note=62, velocity=0, time=4),
    Message('note_on', channel=1, note=43, velocity=104, time=17),
    Message('note_on', channel=4, note=43, velocity=70, time=0),
    Message('note_on', channel=4, note=47, velocity=70, time=0),
    Message('note_on', channel=8, note=55, velocity=50, time=0),
    Message('note_on', channel=8, note=62, velocity=50, time=0),
    Message('note_on', channel=8, note=59, velocity=50, time=0),
    Message('note_on', channel=9, note=36, velocity=120, time=0),
    Message('note_on', channel=9, note=42, velocity=80, time=0),
    Message('note_on', channel=9, note=36, velocity=0, time=4),
    Message('note_on', channel=9, note=42, velocity=0, time=1),
    Message('note_on', channel=8, note=59, velocity=0, time=79),
    Message('note_on', channel=8, note=62, velocity=0, time=0),
    Message('note_on', channel=8, note=55, velocity=0, time=7),
    Message('note_on', channel=4, note=43, velocity=0, time=101),
    Message('note_on', channel=4, note=47, velocity=0, time=0),
    Message('note_on', channel=1, note=43, velocity=0, time=24),
    Message('control_change', channel=13, control=1, value=0, time=2),
    Message('note_on', channel=13, note=43, velocity=0, time=7),
    Message('note_on', channel=6, note=43, velocity=0, time=0),
    Message('note_on', channel=3, note=67, velocity=0, time=15),
    Message('note_on', channel=5, note=67, velocity=0, time=0),
    Message('note_on', channel=5, note=71, velocity=0, time=0),
    Message('note_on', channel=1, note=43, velocity=104, time=0),
    Message('note_on', channel=3, note=67, velocity=100, time=0),
    Message('note_on', channel=4, note=50, velocity=82, time=0),
    Message('note_on', channel=4, note=43, velocity=82, time=0),
    Message('note_on', channel=5, note=71, velocity=80, time=0),
    Message('note_on', channel=5, note=67, velocity=80, time=0),
    Message('note_on', channel=8, note=62, velocity=78, time=0),
    Message('note_on', channel=9, note=36, velocity=120, time=0),
    Message('note_on', channel=9, note=44, velocity=80, time=0),
    MetaMessage('lyrics', text='si', time=0),
    Message('note_on', channel=9, note=36, velocity=0, time=4),
    Message('note_on', channel=9, note=44, velocity=0, time=1),
    Message('note_on', channel=8, note=55, velocity=78, time=5),
    Message('note_on', channel=8, note=59, velocity=78, time=18),
    Message('note_on', channel=5, note=62, velocity=0, time=3),
    Message('note_on', channel=5, note=62, velocity=80, time=0),
    Message('note_on', channel=4, note=43, velocity=0, time=161),
    Message('note_on', channel=4, note=50, velocity=0, time=0),
    Message('note_on', channel=1, note=43, velocity=0, time=24),
    Message('note_on', channel=8, note=62, velocity=0, time=14),
    Message('note_on', channel=8, note=59, velocity=0, time=5),
    Message('note_on', channel=8, note=55, velocity=0, time=5),
    Message('note_on', channel=5, note=71, velocity=0, time=0),
    Message('note_on', channel=5, note=67, velocity=0, time=0),
    Message('note_on', channel=3, note=67, velocity=0, time=0),
    Message('note_on', channel=1, note=43, velocity=104, time=0),
    Message('note_on', channel=3, note=67, velocity=100, time=0),
    Message('note_on', channel=4, note=43, velocity=70, time=0),
    Message('note_on', channel=4, note=50, velocity=70, time=0),
    Message('note_on', channel=5, note=71, velocity=80, time=0),
    Message('note_on', channel=5, note=67, velocity=80, time=0),
    Message('note_on', channel=8, note=59, velocity=63, time=0),
    Message('note_on', channel=9, note=42, velocity=80, time=0),
    MetaMessage('lyrics', text='tu', time=0),
    Message('note_on', channel=9, note=42, velocity=0, time=5),
    Message('note_on', channel=8, note=55, velocity=63, time=14),
    Message('note_on', channel=8, note=62, velocity=63, time=5),
    Message('note_on', channel=5, note=62, velocity=0, time=7),
    Message('note_on', channel=5, note=62, velocity=80, time=9),
    Message('note_on', channel=8, note=59, velocity=0, time=122),
    Message('note_on', channel=8, note=62, velocity=0, time=24),
    Message('note_on', channel=8, note=55, velocity=0, time=2),
    Message('note_on', channel=4, note=43, velocity=0, time=4),
    Message('note_on', channel=4, note=50, velocity=0, time=0),
    Message('note_on', channel=1, note=43, velocity=0, time=24),
    Message('note_on', channel=1, note=45, velocity=104, time=24),
    Message('note_on', channel=4, note=43, velocity=80, time=0),
    Message('note_on', channel=4, note=52, velocity=80, time=0),
    Message('note_on', channel=8, note=62, velocity=48, time=0),
    Message('note_on', channel=9, note=44, velocity=80, time=0),
    Message('note_on', channel=9, note=54, velocity=50, time=0),
    Message('note_on', channel=9, note=38, velocity=120, time=0),
    Message('note_on', channel=9, note=38, velocity=0, time=4),
    Message('note_on', channel=9, note=54, velocity=0, time=0),
    Message('note_on', channel=9, note=44, velocity=0, time=1),
    Message('note_on', channel=8, note=55, velocity=48, time=13),
    Message('note_on', channel=8, note=59, velocity=48, time=5),
    Message('note_on', channel=4, note=43, velocity=0, time=169),
    Message('note_on', channel=4, note=52, velocity=0, time=0),
    Message('note_on', channel=1, note=45, velocity=0, time=24),
    Message('note_on', channel=5, note=62, velocity=0, time=11),
    Message('note_on', channel=8, note=62, velocity=0, time=3),
    Message('note_on', channel=8, note=55, velocity=0, time=9),
    Message('note_on', channel=8, note=59, velocity=0, time=0),
    Message('note_on', channel=3, note=67, velocity=0, time=1),
    Message('note_on', channel=5, note=71, velocity=0, time=0),
    Message('note_on', channel=5, note=67, velocity=0, time=0),
    Message('note_on', channel=1, note=47, velocity=104, time=0),
    Message('note_on', channel=3, note=64, velocity=100, time=0),
    Message('note_on', channel=4, note=47, velocity=70, time=0),
    Message('note_on', channel=4, note=43, velocity=70, time=0),
    Message('note_on', channel=5, note=64, velocity=80, time=0),
    Message('note_on', channel=5, note=69, velocity=80, time=0),
    Message('note_on', channel=8, note=59, velocity=70, time=0),
    Message('note_on', channel=9, note=42, velocity=80, time=0),
    MetaMessage('lyrics', text='ati', time=0),
    Message('note_on', channel=9, note=42, velocity=0, time=5),
    Message('note_on', channel=8, note=55, velocity=70, time=14),
    Message('note_on', channel=8, note=62, velocity=70, time=14),
    Message('note_on', channel=5, note=69, velocity=0, time=87),
    Message('note_on', channel=3, note=64, velocity=0, time=0),
    Message('note_on', channel=5, note=64, velocity=0, time=0),
    Message('note_on', channel=3, note=62, velocity=100, time=0),
    Message('note_on', channel=5, note=67, velocity=80, time=0),
    Message('note_on', channel=5, note=62, velocity=80, time=0),
    Message('note_on', channel=4, note=43, velocity=0, time=72),
    Message('note_on', channel=4, note=47, velocity=0, time=0),
    Message('note_on', channel=1, note=47, velocity=0, time=24),
    Message('note_on', channel=8, note=59, velocity=0, time=14),
    Message('note_on', channel=8, note=55, velocity=0, time=5),
    Message('note_on', channel=2, note=74, velocity=0, time=5),
    Message('note_on', channel=2, note=71, velocity=0, time=0),
    Message('note_on', channel=1, note=48, velocity=97, time=0),
    Message('note_on', channel=2, note=72, velocity=44, time=0),
    Message('note_on', channel=2, note=76, velocity=66, time=0),
    Message('note_on', channel=4, note=48, velocity=86, time=0),
    Message('note_on', channel=4, note=55, velocity=86, time=0),
    Message('note_on', channel=8, note=55, velocity=80, time=0),
    Message('note_on', channel=9, note=44, velocity=80, time=0),
    Message('note_on', channel=9, note=36, velocity=120, time=0),
    Message('note_on', channel=9, note=36, velocity=0, time=4),
    Message('note_on', channel=8, note=62, velocity=0, time=0),
    Message('note_on', channel=9, note=44, velocity=0, time=1),
    Message('note_on', channel=8, note=60, velocity=80, time=11),
    Message('note_on', channel=8, note=64, velocity=80, time=7),
    Message('note_on', channel=4, note=55, velocity=0, time=169),
    Message('note_on', channel=4, note=48, velocity=0, time=0),
    Message('note_on', channel=1, note=48, velocity=0, time=24),
    Message('note_on', channel=5, note=67, velocity=0, time=24),
    Message('note_on', channel=3, note=62, velocity=0, time=0),
    Message('note_on', channel=5, note=62, velocity=0, time=0),
    Message('note_on', channel=1, note=48, velocity=88, time=0),
    Message('note_on', channel=3, note=60, velocity=100, time=0),
    Message('note_on', channel=4, note=55, velocity=69, time=0),
    Message('note_on', channel=4, note=48, velocity=69, time=0),
    Message('note_on', channel=5, note=64, velocity=80, time=0),
    Message('note_on', channel=5, note=67, velocity=80, time=0),
    Message('note_on', channel=5, note=60, velocity=80, time=0),
    Message('note_on', channel=9, note=42, velocity=80, time=0),
    MetaMessage('lyrics', text='on. ', time=0),
    MetaMessage('lyrics', text='\r', time=0),
    MetaMessage('lyrics', text='\n', time=0),
    Message('note_on', channel=9, note=42, velocity=0, time=5),
    Message('note_on', channel=4, note=55, velocity=0, time=187),
    Message('note_on', channel=4, note=48, velocity=0, time=0),
    Message('note_on', channel=8, note=64, velocity=0, time=18),
    Message('note_on', channel=1, note=48, velocity=0, time=6),
    Message('note_on', channel=8, note=55, velocity=0, time=5),
    Message('pitchwheel', channel=6, pitch=-8192, time=4),
    Message('pitchwheel', channel=13, pitch=-8192, time=0),
    Message('pitchwheel', channel=6, pitch=-7808, time=7),
    Message('pitchwheel', channel=13, pitch=-7808, time=0),
    Message('note_on', channel=8, note=60, velocity=0, time=5),
    Message('note_on', channel=4, note=57, velocity=83, time=3),
    Message('note_on', channel=4, note=48, velocity=83, time=0),
    Message('pitchwheel', channel=6, pitch=-7424, time=0),
    Message('note_on', channel=6, note=64, velocity=100, time=0),
    Message('note_on', channel=7, note=67, velocity=120, time=0),
    Message('note_on', channel=9, note=54, velocity=50, time=0),
    Message('note_on', channel=9, note=44, velocity=80, time=0),
    Message('note_on', channel=9, note=38, velocity=120, time=0),
    Message('pitchwheel', channel=13, pitch=-7424, time=0),
    Message('note_on', channel=13, note=64, velocity=100, time=0),
    Message('note_on', channel=9, note=38, velocity=0, time=4),
    Message('note_on', channel=9, note=54, velocity=0, time=0),
    Message('note_on', channel=9, note=44, velocity=0, time=1),
    Message('pitchwheel', channel=6, pitch=-7040, time=2),
    Message('pitchwheel', channel=13, pitch=-7040, time=0),
    Message('note_on', channel=8, note=55, velocity=59, time=2),
    Message('pitchwheel', channel=6, pitch=-6656, time=5),
    Message('pitchwheel', channel=13, pitch=-6656, time=0),
    Message('note_on', channel=8, note=60, velocity=59, time=1),
    Message('note_on', channel=8, note=64, velocity=59, time=4),
    Message('pitchwheel', channel=6, pitch=-6144, time=2),
    Message('pitchwheel', channel=13, pitch=-6144, time=0),
    Message('pitchwheel', channel=6, pitch=-5760, time=7),
    Message('pitchwheel', channel=13, pitch=-5760, time=0),
    Message('pitchwheel', channel=6, pitch=-5376, time=7),
    Message('pitchwheel', channel=13, pitch=-5376, time=0),
    Message('pitchwheel', channel=6, pitch=-4992, time=7),
    Message('pitchwheel', channel=13, pitch=-4992, time=0),
    Message('pitchwheel', channel=6, pitch=-4608, time=7),
    Message('pitchwheel', channel=13, pitch=-4608, time=0),
    Message('pitchwheel', channel=6, pitch=-4096, time=7),
    Message('pitchwheel', channel=13, pitch=-4096, time=0),
    Message('pitchwheel', channel=6, pitch=-3712, time=7),
    Message('pitchwheel', channel=13, pitch=-3712, time=0),
    Message('pitchwheel', channel=6, pitch=-3328, time=7),
    Message('pitchwheel', channel=13, pitch=-3328, time=0),
    Message('pitchwheel', channel=6, pitch=-2944, time=7),
    Message('pitchwheel', channel=13, pitch=-2944, time=0),
    Message('pitchwheel', channel=6, pitch=-2560, time=7),
    Message('pitchwheel', channel=13, pitch=-2560, time=0),
    Message('pitchwheel', channel=6, pitch=-2048, time=7),
    Message('pitchwheel', channel=13, pitch=-2048, time=0),
    Message('pitchwheel', channel=6, pitch=-1664, time=7),
    Message('pitchwheel', channel=13, pitch=-1664, time=0),
    Message('pitchwheel', channel=6, pitch=-1280, time=7),
    Message('pitchwheel', channel=13, pitch=-1280, time=0),
    Message('pitchwheel', channel=6, pitch=-896, time=7),
    Message('pitchwheel', channel=13, pitch=-896, time=0),
    Message('pitchwheel', channel=6, pitch=-512, time=8),
    Message('pitchwheel', channel=13, pitch=-512, time=0),
    Message('pitchwheel', channel=6, pitch=0, time=7),
    Message('pitchwheel', channel=13, pitch=0, time=0),
    Message('note_on', channel=4, note=57, velocity=0, time=65),
    Message('note_on', channel=4, note=48, velocity=0, time=0),
    Message('note_on', channel=8, note=55, velocity=0, time=14),
    Message('note_on', channel=8, note=60, velocity=0, time=13),
    Message('note_on', channel=8, note=64, velocity=0, time=4),
    Message('note_on', channel=1, note=48, velocity=86, time=17),
    Message('note_on', channel=4, note=52, velocity=72, time=0),
    Message('note_on', channel=4, note=48, velocity=72, time=0),
    Message('note_on', channel=8, note=55, velocity=50, time=0),
    Message('note_on', channel=8, note=64, velocity=50, time=0),
    Message('note_on', channel=8, note=60, velocity=50, time=0),
    Message('note_on', channel=9, note=42, velocity=80, time=0),
    Message('note_on', channel=9, note=36, velocity=120, time=0),
    Message('note_on', channel=9, note=36, velocity=0, time=4),
    Message('note_on', channel=9, note=42, velocity=0, time=1),
    Message('note_on', channel=8, note=60, velocity=0, time=79),
    Message('note_on', channel=8, note=64, velocity=0, time=0),
    Message('note_on', channel=8, note=55, velocity=0, time=7),
    Message('note_on', channel=4, note=52, velocity=0, time=101),
    Message('note_on', channel=4, note=48, velocity=0, time=0),
    Message('note_on', channel=1, note=48, velocity=0, time=24),
    Message('note_on', channel=3, note=60, velocity=0, time=6),
    Message('note_on', channel=6, note=64, velocity=0, time=10),
    Message('note_on', channel=13, note=64, velocity=0, time=0),
    Message('pitchwheel', channel=6, pitch=-8192, time=0),
    Message('pitchwheel', channel=13, pitch=-8192, time=0),
    Message('note_on', channel=5, note=64, velocity=0, time=8),
    Message('note_on', channel=5, note=60, velocity=0, time=0),
    Message('note_on', channel=7, note=67, velocity=0, time=0),
    Message('note_on', channel=5, note=67, velocity=0, time=0),
    Message('note_on', channel=1, note=48, velocity=94, time=0),
    Message('note_on', channel=4, note=48, velocity=80, time=0),
    Message('note_on', channel=4, note=55, velocity=80, time=0),
    Message('pitchwheel', channel=6, pitch=-7808, time=0),
    Message('note_on', channel=6, note=64, velocity=100, time=0),
    Message('note_on', channel=7, note=67, velocity=120, time=0),
    Message('note_on', channel=8, note=64, velocity=78, time=0),
    Message('note_on', channel=9, note=44, velocity=80, time=0),
    Message('note_on', channel=9, note=36, velocity=120, time=0),
    Message('pitchwheel', channel=13, pitch=-7808, time=0),
    Message('note_on', channel=13, note=64, velocity=100, time=0),
    Message('note_on', channel=9, note=36, velocity=0, time=4),
    Message('note_on', channel=9, note=44, velocity=0, time=1),
    Message('pitchwheel', channel=6, pitch=-7296, time=2),
    Message('pitchwheel', channel=13, pitch=-7296, time=0),
    Message('note_on', channel=8, note=55, velocity=78, time=3),
    Message('pitchwheel', channel=6, pitch=-6784, time=4),
    Message('pitchwheel', channel=13, pitch=-6784, time=0),
    Message('pitchwheel', channel=6, pitch=-6272, time=7),
    Message('pitchwheel', channel=13, pitch=-6272, time=0),
    Message('pitchwheel', channel=6, pitch=-5760, time=7),
    Message('note_on', channel=8, note=60, velocity=78, time=0),
    Message('pitchwheel', channel=13, pitch=-5760, time=0),
    Message('pitchwheel', channel=6, pitch=-5248, time=7),
    Message('pitchwheel', channel=13, pitch=-5248, time=0),
    Message('pitchwheel', channel=6, pitch=-4736, time=7),
    Message('pitchwheel', channel=13, pitch=-4736, time=0),
    Message('pitchwheel', channel=6, pitch=-4224, time=7),
    Message('pitchwheel', channel=13, pitch=-4224, time=0),
    Message('pitchwheel', channel=6, pitch=-3712, time=7),
    Message('pitchwheel', channel=13, pitch=-3712, time=0),
    Message('pitchwheel', channel=6, pitch=-3200, time=7),
    Message('pitchwheel', channel=13, pitch=-3200, time=0),
    Message('pitchwheel', channel=6, pitch=-2688, time=7),
    Message('pitchwheel', channel=13, pitch=-2688, time=0),
    Message('pitchwheel', channel=6, pitch=-2176, time=7),
    Message('pitchwheel', channel=13, pitch=-2176, time=0),
    Message('pitchwheel', channel=6, pitch=-1664, time=7),
    Message('pitchwheel', channel=13, pitch=-1664, time=0),
    Message('pitchwheel', channel=6, pitch=-1152, time=7),
    Message('pitchwheel', channel=13, pitch=-1152, time=0),
    Message('pitchwheel', channel=6, pitch=-640, time=7),
    Message('pitchwheel', channel=13, pitch=-640, time=0),
    Message('pitchwheel', channel=6, pitch=0, time=7),
    Message('pitchwheel', channel=13, pitch=0, time=0),
    Message('note_on', channel=4, note=55, velocity=0, time=87),
    Message('note_on', channel=4, note=48, velocity=0, time=0),
    Message('note_on', channel=1, note=48, velocity=0, time=24),
    Message('note_on', channel=8, note=64, velocity=0, time=14),
    Message('note_on', channel=8, note=60, velocity=0, time=5),
    Message('note_on', channel=8, note=55, velocity=0, time=5),
    Message('note_on', channel=1, note=48, velocity=91, time=0),
    Message('note_on', channel=4, note=48, velocity=71, time=0),
    Message('note_on', channel=4, note=55, velocity=71, time=0),
    Message('note_on', channel=8, note=60, velocity=63, time=0),
    Message('note_on', channel=9, note=42, velocity=80, time=0),
    Message('note_on', channel=9, note=42, velocity=0, time=5),
    Message('note_on', channel=8, note=55, velocity=63, time=14),
    Message('note_on', channel=8, note=64, velocity=63, time=5),
    Message('note_on', channel=8, note=60, velocity=0, time=138),
    Message('control_change', channel=13, control=1, value=79, time=21),
    Message('note_on', channel=8, note=64, velocity=0, time=3),
    Message('note_on', channel=8, note=55, velocity=0, time=2),
    Message('note_on', channel=4, note=55, velocity=0, time=4),
    Message('note_on', channel=4, note=48, velocity=0, time=0),
    Message('note_on', channel=1, note=48, velocity=0, time=24),
    Message('note_on', channel=4, note=57, velocity=86, time=24),
    Message('note_on', channel=4, note=48, velocity=86, time=0),
    Message('note_on', channel=8, note=64, velocity=48, time=0),
    Message('note_on', channel=9, note=54, velocity=50, time=0),
    Message('note_on', channel=9, note=44, velocity=80, time=0),
    Message('note_on', channel=9, note=38, velocity=120, time=0),
    Message('note_on', channel=9, note=38, velocity=0, time=4),
    Message('note_on', channel=9, note=54, velocity=0, time=0),
    Message('note_on', channel=9, note=44, velocity=0, time=1),
    Message('note_on', channel=8, note=55, velocity=48, time=13),
    Message('note_on', channel=8, note=60, velocity=48, time=5),
    Message('note_on', channel=4, note=57, velocity=0, time=169),
    Message('note_on', channel=4, note=48, velocity=0, time=0),
    Message('control_change', channel=13, control=1, value=0, time=5),
    Message('pitchwheel', channel=6, pitch=-8064, time=28),
    Message('pitchwheel', channel=13, pitch=-8064, time=0),
    Message('note_on', channel=8, note=64, velocity=0, time=5),
    Message('note_on', channel=13, note=64, velocity=0, time=2),
    Message('note_on', channel=6, note=64, velocity=0, time=0),
    Message('note_on', channel=8, note=55, velocity=0, time=7),
    Message('note_on', channel=8, note=60, velocity=0, time=0),
    Message('note_on', channel=7, note=67, velocity=0, time=1),
    Message('note_on', channel=1, note=48, velocity=104, time=0),
    Message('note_on', channel=4, note=52, velocity=70, time=0),
    Message('note_on', channel=4, note=48, velocity=70, time=0),
    Message('note_on', channel=6, note=64, velocity=100, time=0),
    Message('note_on', channel=7, note=67, velocity=120, time=0),
    Message('note_on', channel=8, note=60, velocity=70, time=0),
    Message('note_on', channel=9, note=42, velocity=80, time=0),
    Message('note_on', channel=13, note=64, velocity=100, time=0),
    Message('note_on', channel=9, note=42, velocity=0, time=5),
    Message('note_on', channel=8, note=55, velocity=70, time=14),
    Message('note_on', channel=8, note=64, velocity=70, time=14),
    Message('pitchwheel', channel=6, pitch=-8064, time=136),
    Message('pitchwheel', channel=13, pitch=-8064, time=0),
    Message('pitchwheel', channel=6, pitch=-7552, time=7),
    Message('pitchwheel', channel=13, pitch=-7552, time=0),
    Message('pitchwheel', channel=6, pitch=-6912, time=7),
    Message('pitchwheel', channel=13, pitch=-6912, time=0),
    Message('pitchwheel', channel=6, pitch=-6272, time=7),
    Message('pitchwheel', channel=13, pitch=-6272, time=0),
    Message('note_on', channel=4, note=48, velocity=0, time=2),
    Message('note_on', channel=4, note=52, velocity=0, time=0),
    Message('pitchwheel', channel=6, pitch=-5632, time=5),
    Message('pitchwheel', channel=13, pitch=-5632, time=0),
    Message('pitchwheel', channel=6, pitch=-4992, time=7),
    Message('pitchwheel', channel=13, pitch=-4992, time=0),
    Message('pitchwheel', channel=6, pitch=-4352, time=7),
    Message('pitchwheel', channel=13, pitch=-4352, time=0),
    Message('note_on', channel=1, note=48, velocity=0, time=5),
    Message('pitchwheel', channel=6, pitch=-3840, time=2),
    Message('pitchwheel', channel=13, pitch=-3840, time=0),
    Message('pitchwheel', channel=6, pitch=-3200, time=7),
    Message('pitchwheel', channel=13, pitch=-3200, time=0),
    Message('note_on', channel=8, note=60, velocity=0, time=5),
    Message('pitchwheel', channel=6, pitch=-2560, time=2),
    Message('pitchwheel', channel=13, pitch=-2560, time=0),
    Message('note_on', channel=8, note=55, velocity=0, time=3),
    Message('note_on', channel=1, note=48, velocity=104, time=5),
    Message('note_on', channel=4, note=55, velocity=87, time=0),
    Message('note_on', channel=4, note=48, velocity=87, time=0),
    Message('pitchwheel', channel=6, pitch=-1920, time=0),
    Message('note_on', channel=8, note=55, velocity=80, time=0),
    Message('note_on', channel=9, note=44, velocity=80, time=0),
    Message('note_on', channel=9, note=36, velocity=120, time=0),
    Message('pitchwheel', channel=13, pitch=-1920, time=0),
    Message('note_on', channel=9, note=36, velocity=0, time=4),
    Message('note_on', channel=8, note=64, velocity=0, time=0),
    Message('note_on', channel=9, note=44, velocity=0, time=1),
    Message('pitchwheel', channel=6, pitch=-1280, time=2),
    Message('pitchwheel', channel=13, pitch=-1280, time=0),
    Message('pitchwheel', channel=6, pitch=-640, time=7),
    Message('pitchwheel', channel=13, pitch=-640, time=0),
    Message('note_on', channel=8, note=60, velocity=80, time=2),
    Message('pitchwheel', channel=6, pitch=0, time=5),
    Message('pitchwheel', channel=13, pitch=0, time=0),
    Message('note_on', channel=8, note=64, velocity=80, time=2),
    Message('note_on', channel=4, note=48, velocity=0, time=169),
    Message('note_on', channel=4, note=55, velocity=0, time=0),
    Message('note_on', channel=1, note=48, velocity=0, time=24),
    Message('note_on', channel=13, note=64, velocity=0, time=2),
    Message('note_on', channel=6, note=64, velocity=0, time=0),
    Message('note_on', channel=7, note=67, velocity=0, time=22),
    Message('note_on', channel=1, note=48, velocity=104, time=0),
    Message('note_on', channel=4, note=48, velocity=72, time=0),
    Message('note_on', channel=4, note=55, velocity=72, time=0),
    Message('note_on', channel=6, note=62, velocity=100, time=0),
    Message('note_on', channel=7, note=67, velocity=120, time=0),
    Message('note_on', channel=9, note=42, velocity=80, time=0),
    Message('note_on', channel=13, note=62, velocity=100, time=0),
    Message('note_on', channel=9, note=42, velocity=0, time=5),
    Message('note_on', channel=4, note=48, velocity=0, time=187),
    Message('note_on', channel=4, note=55, velocity=0, time=0),
    Message('note_on', channel=8, note=64, velocity=0, time=18),
    Message('note_on', channel=1, note=48, velocity=0, time=6),
    Message('note_on', channel=8, note=55, velocity=0, time=5),
    Message('note_on', channel=8, note=60, velocity=0, time=16),
    Message('note_on', channel=6, note=62, velocity=0, time=3),
    Message('note_on', channel=13, note=62, velocity=0, time=0),
    Message('note_on', channel=7, note=67, velocity=0, time=0),
    Message('note_on', channel=4, note=57, velocity=82, time=0),
    Message('note_on', channel=4, note=48, velocity=82, time=0),
    Message('note_on', channel=6, note=60, velocity=100, time=0),
    Message('note_on', channel=7, note=64, velocity=120, time=0),
    Message('note_on', channel=9, note=46, velocity=80, time=0),
    Message('note_on', channel=9, note=54, velocity=50, time=0),
    Message('note_on', channel=9, note=38, velocity=120, time=0),
    Message('note_on', channel=13, note=60, velocity=100, time=0),
    Message('note_on', channel=9, note=38, velocity=0, time=4),
    Message('note_on', channel=9, note=54, velocity=0, time=0),
    Message('note_on', channel=9, note=46, velocity=0, time=1),
    Message('note_on', channel=8, note=55, velocity=59, time=4),
    Message('note_on', channel=8, note=60, velocity=59, time=6),
    Message('note_on', channel=8, note=64, velocity=59, time=4),
    Message('note_on', channel=4, note=48, velocity=0, time=173),
    Message('note_on', channel=4, note=57, velocity=0, time=0),
    Message('note_on', channel=8, note=55, velocity=0, time=14),
    Message('note_on', channel=8, note=60, velocity=0, time=13),
    Message('note_on', channel=8, note=64, velocity=0, time=4),
    Message('note_on', channel=6, note=60, velocity=0, time=17),
    Message('note_on', channel=13, note=60, velocity=0, time=0),
    Message('note_on', channel=7, note=64, velocity=0, time=0),
    Message('note_on', channel=1, note=48, velocity=104, time=0),
    Message('note_on', channel=4, note=48, velocity=70, time=0),
    Message('note_on', channel=4, note=52, velocity=70, time=0),
    Message('note_on', channel=6, note=57, velocity=100, time=0),
    Message('note_on', channel=7, note=64, velocity=120, time=0),
    Message('note_on', channel=8, note=55, velocity=50, time=0),
    Message('note_on', channel=8, note=64, velocity=50, time=0),
    Message('note_on', channel=8, note=60, velocity=50, time=0),
    Message('note_on', channel=9, note=42, velocity=80, time=0),
    Message('note_on', channel=13, note=57, velocity=100, time=0),
    Message('note_on', channel=9, note=42, velocity=0, time=5),
    Message('note_on', channel=8, note=64, velocity=0, time=79),
    Message('note_on', channel=8, note=60, velocity=0, time=0),
    Message('note_on', channel=8, note=55, velocity=0, time=7),
    Message('note_on', channel=4, note=52, velocity=0, time=101),
    Message('note_on', channel=4, note=48, velocity=0, time=0),
    Message('note_on', channel=1, note=48, velocity=0, time=24),
    Message('note_on', channel=7, note=64, velocity=0, time=24),
    Message('note_on', channel=13, note=57, velocity=0, time=0),
    Message('note_on', channel=6, note=57, velocity=0, time=0),
    Message('note_on', channel=1, note=40, velocity=104, time=0),
    Message('note_on', channel=4, note=55, velocity=82, time=0),
    Message('note_on', channel=4, note=48, velocity=82, time=0),
    Message('note_on', channel=6, note=62, velocity=100, time=0),
    Message('note_on', channel=7, note=60, velocity=120, time=0),
    Message('note_on', channel=8, note=64, velocity=78, time=0),
    Message('note_on', channel=9, note=54, velocity=50, time=0),
    Message('note_on', channel=9, note=36, velocity=120, time=0),
    Message('note_on', channel=9, note=57, velocity=80, time=0),
    Message('note_on', channel=9, note=38, velocity=120, time=0),
    Message('note_on', channel=13, note=62, velocity=100, time=0),
    Message('note_on', channel=9, note=38, velocity=0, time=4),
    Message('note_on', channel=9, note=54, velocity=0, time=0),
    Message('note_on', channel=9, note=36, velocity=0, time=0),
    Message('note_on', channel=9, note=57, velocity=0, time=1),
    Message('note_on', channel=8, note=55, velocity=78, time=5),
    Message('note_on', channel=8, note=60, velocity=78, time=18),
    Message('note_on', channel=4, note=48, velocity=0, time=164),
    Message('note_on', channel=4, note=55, velocity=0, time=0),
    Message('note_on', channel=1, note=40, velocity=0, time=24),
    Message('note_on', channel=8, note=64, velocity=0, time=14),
    Message('note_on', channel=8, note=60, velocity=0, time=5),
    Message('note_on', channel=6, note=62, velocity=0, time=5),
    Message('note_on', channel=7, note=60, velocity=0, time=0),
    Message('note_on', channel=8, note=55, velocity=0, time=0),
    Message('note_on', channel=13, note=62, velocity=0, time=0),
    Message('note_on', channel=1, note=43, velocity=104, time=0),
    Message('note_on', channel=4, note=55, velocity=70, time=0),
    Message('note_on', channel=4, note=48, velocity=70, time=0),
    Message('note_on', channel=6, note=60, velocity=100, time=0),
    Message('note_on', channel=7, note=60, velocity=120, time=0),
    Message('note_on', channel=8, note=60, velocity=63, time=0),
    Message('note_on', channel=9, note=42, velocity=80, time=0),
    Message('note_on', channel=9, note=36, velocity=120, time=0),
    Message('note_on', channel=9, note=38, velocity=90, time=0),
    Message('note_on', channel=13, note=60, velocity=100, time=0),
    Message('note_on', channel=9, note=38, velocity=0, time=4),
    Message('note_on', channel=9, note=42, velocity=0, time=1),
    Message('note_on', channel=9, note=36, velocity=0, time=11),
    Message('note_on', channel=8, note=55, velocity=63, time=3),
    Message('note_on', channel=8, note=64, velocity=63, time=5),
    Message('note_on', channel=8, note=60, velocity=0, time=138),
    Message('note_on', channel=8, note=64, velocity=0, time=24),
    Message('note_on', channel=8, note=55, velocity=0, time=2),
    Message('note_on', channel=4, note=48, velocity=0, time=4),
    Message('note_on', channel=4, note=55, velocity=0, time=0),
    Message('note_on', channel=1, note=43, velocity=0, time=24),
    Message('note_on', channel=6, note=60, velocity=0, time=24),
    Message('note_on', channel=7, note=60, velocity=0, time=0),
    Message('note_on', channel=13, note=60, velocity=0, time=0),
    Message('note_on', channel=1, note=45, velocity=104, time=0),
    Message('note_on', channel=4, note=48, velocity=80, time=0),
    Message('note_on', channel=4, note=57, velocity=80, time=0),
    Message('note_on', channel=6, note=57, velocity=100, time=0),
    Message('note_on', channel=7, note=60, velocity=120, time=0),
    Message('note_on', channel=8, note=64, velocity=48, time=0),
    Message('note_on', channel=9, note=54, velocity=50, time=0),
    Message('note_on', channel=9, note=44, velocity=80, time=0),
    Message('note_on', channel=9, note=38, velocity=105, time=0),
    Message('note_on', channel=13, note=57, velocity=100, time=0),
    Message('note_on', channel=9, note=38, velocity=0, time=4),
    Message('note_on', channel=9, note=54, velocity=0, time=0),
    Message('note_on', channel=9, note=44, velocity=0, time=1),
    Message('note_on', channel=8, note=55, velocity=48, time=13),
    Message('note_on', channel=8, note=60, velocity=48, time=5),
    Message('note_on', channel=4, note=57, velocity=0, time=169),
    Message('note_on', channel=4, note=48, velocity=0, time=0),
    Message('note_on', channel=1, note=45, velocity=0, time=24),
    Message('note_on', channel=8, note=64, velocity=0, time=14),
    Message('note_on', channel=8, note=55, velocity=0, time=9),
    Message('note_on', channel=8, note=60, velocity=0, time=0),
    Message('note_on', channel=6, note=57, velocity=0, time=1),
    Message('note_on', channel=7, note=60, velocity=0, time=0),
    Message('note_on', channel=13, note=57, velocity=0, time=0),
    Message('note_on', channel=1, note=43, velocity=104, time=0),
    Message('note_on', channel=4, note=52, velocity=70, time=0),
    Message('note_on', channel=4, note=48, velocity=70, time=0),
    Message('note_on', channel=6, note=55, velocity=100, time=0),
    Message('note_on', channel=7, note=60, velocity=120, time=0),
    Message('note_on', channel=8, note=60, velocity=70, time=0),
    Message('note_on', channel=9, note=54, velocity=50, time=0),
    Message('note_on', channel=9, note=42, velocity=80, time=0),
    Message('note_on', channel=9, note=38, velocity=120, time=0),
    Message('note_on', channel=13, note=55, velocity=100, time=0),
    Message('note_on', channel=9, note=38, velocity=0, time=4),
    Message('note_on', channel=9, note=54, velocity=0, time=0),
    Message('note_on', channel=9, note=42, velocity=0, time=1),
    Message('note_on', channel=8, note=55, velocity=70, time=14),
    Message('note_on', channel=8, note=64, velocity=70, time=14),
    Message('note_on', channel=4, note=48, velocity=0, time=159),
    Message('note_on', channel=4, note=52, velocity=0, time=0),
    Message('note_on', channel=1, note=43, velocity=0, time=24),
    Message('note_on', channel=8, note=60, velocity=0, time=14),
    Message('note_on', channel=8, note=55, velocity=0, time=5),
    Message('note_on', channel=2, note=76, velocity=0, time=5),
    Message('note_on', channel=6, note=55, velocity=0, time=0),
    Message('note_on', channel=7, note=60, velocity=0, time=0),
    Message('note_on', channel=2, note=79, velocity=0, time=0),
    Message('note_on', channel=2, note=72, velocity=0, time=0),
    Message('note_on', channel=13, note=55, velocity=0, time=0),
    Message('note_on', channel=1, note=45, velocity=104, time=0),
    Message('note_on', channel=2, note=81, velocity=79, time=0),
    Message('note_on', channel=2, note=76, velocity=66, time=0),
    Message('note_on', channel=2, note=72, velocity=73, time=0),
    Message('note_on', channel=3, note=64, velocity=100, time=0),
    Message('note_on', channel=4, note=45, velocity=86, time=0),
    Message('note_on', channel=4, note=52, velocity=86, time=0),
    Message('note_on', channel=5, note=69, velocity=80, time=0),
    Message('note_on', channel=5, note=64, velocity=80, time=0),
    Message('note_on', channel=5, note=60, velocity=80, time=0),
    Message('note_on', channel=6, note=64, velocity=100, time=0),
    Message('note_on', channel=6, note=57, velocity=100, time=0),
    Message('note_on', channel=8, note=57, velocity=80, time=0),
    Message('note_on', channel=9, note=49, velocity=80, time=0),
    Message('note_on', channel=9, note=36, velocity=120, time=0),
    Message('note_on', channel=13, note=64, velocity=90, time=0),
    Message('note_on', channel=13, note=57, velocity=90, time=0),
    MetaMessage('lyrics', text='How ', time=0),
    Message('note_on', channel=9, note=36, velocity=0, time=4),
    Message('note_on', channel=8, note=64, velocity=0, time=0),
    Message('note_on', channel=9, note=49, velocity=0, time=1),
    Message('note_on', channel=8, note=60, velocity=80, time=11),
    Message('note_on', channel=8, note=64, velocity=80, time=7),
    Message('note_on', channel=4, note=52, velocity=0, time=169),
    Message('note_on', channel=4, note=45, velocity=0, time=0),
    Message('note_on', channel=4, note=52, velocity=69, time=48),
    Message('note_on', channel=4, note=45, velocity=69, time=0),
    Message('note_on', channel=9, note=42, velocity=80, time=0),
    Message('note_on', channel=9, note=42, velocity=0, time=5),
    Message('control_change', channel=13, control=1, value=60, time=185),
    Message('note_on', channel=4, note=45, velocity=0, time=2),
    Message('note_on', channel=4, note=52, velocity=0, time=0),
    Message('note_on', channel=1, note=45, velocity=0, time=0),
    Message('note_on', channel=8, note=64, velocity=0, time=18),
    Message('note_on', channel=8, note=57, velocity=0, time=11),
    Message('note_on', channel=8, note=60, velocity=0, time=16),
    Message('note_on', channel=1, note=45, velocity=104, time=3),
    Message('note_on', channel=4, note=45, velocity=83, time=0),
    Message('note_on', channel=4, note=52, velocity=83, time=0),
    Message('note_on', channel=9, note=54, velocity=50, time=0),
    Message('note_on', channel=9, note=44, velocity=80, time=0),
    Message('note_on', channel=9, note=38, velocity=120, time=0),
    Message('note_on', channel=9, note=38, velocity=0, time=4),
    Message('note_on', channel=9, note=54, velocity=0, time=0),
    Message('note_on', channel=9, note=44, velocity=0, time=1),
    Message('note_on', channel=8, note=57, velocity=59, time=4),
    Message('note_on', channel=8, note=60, velocity=59, time=6),
    Message('note_on', channel=8, note=64, velocity=59, time=4),
    Message('note_on', channel=4, note=52, velocity=0, time=173),
    Message('note_on', channel=4, note=45, velocity=0, time=0),
    Message('pitchwheel', channel=3, pitch=0, time=3),
    Message('pitchwheel', channel=5, pitch=0, time=0),
    Message('pitchwheel', channel=3, pitch=-256, time=9),
    Message('pitchwheel', channel=5, pitch=-256, time=0),
    Message('note_on', channel=8, note=57, velocity=0, time=2),
    Message('pitchwheel', channel=3, pitch=-640, time=7),
    Message('pitchwheel', channel=5, pitch=-640, time=0),
    Message('note_on', channel=1, note=45, velocity=0, time=3),
    Message('note_on', channel=8, note=60, velocity=0, time=3),
    Message('pitchwheel', channel=3, pitch=-896, time=3),
    Message('pitchwheel', channel=5, pitch=-896, time=0),
    Message('note_on', channel=8, note=64, velocity=0, time=1),
    Message('pitchwheel', channel=3, pitch=-1280, time=8),
    Message('pitchwheel', channel=5, pitch=-1280, time=0),
    Message('note_on', channel=1, note=45, velocity=104, time=9),
    Message('pitchwheel', channel=3, pitch=-1664, time=0),
    Message('note_on', channel=4, note=45, velocity=72, time=0),
    Message('note_on', channel=4, note=52, velocity=72, time=0),
    Message('pitchwheel', channel=5, pitch=-1664, time=0),
    Message('note_on', channel=8, note=57, velocity=50, time=0),
    Message('note_on', channel=8, note=60, velocity=50, time=0),
    Message('note_on', channel=8, note=64, velocity=50, time=0),
    Message('note_on', channel=9, note=36, velocity=120, time=0),
    Message('note_on', channel=9, note=42, velocity=80, time=0),
    Message('note_on', channel=9, note=36, velocity=0, time=4),
    Message('note_on', channel=9, note=42, velocity=0, time=1),
    Message('pitchwheel', channel=3, pitch=-1920, time=3),
    Message('pitchwheel', channel=5, pitch=-1920, time=0),
    Message('pitchwheel', channel=3, pitch=-2304, time=9),
    Message('pitchwheel', channel=5, pitch=-2304, time=0),
    Message('pitchwheel', channel=3, pitch=-2688, time=9),
    Message('pitchwheel', channel=5, pitch=-2688, time=0),
    Message('pitchwheel', channel=3, pitch=-2944, time=9),
    Message('pitchwheel', channel=5, pitch=-2944, time=0),
    Message('pitchwheel', channel=3, pitch=-3328, time=9),
    Message('pitchwheel', channel=5, pitch=-3328, time=0),
    Message('pitchwheel', channel=3, pitch=-3584, time=9),
    Message('pitchwheel', channel=5, pitch=-3584, time=0),
    Message('pitchwheel', channel=3, pitch=-3968, time=9),
    Message('pitchwheel', channel=5, pitch=-3968, time=0),
    Message('pitchwheel', channel=3, pitch=-4352, time=9),
    Message('pitchwheel', channel=5, pitch=-4352, time=0),
    Message('pitchwheel', channel=3, pitch=-4608, time=9),
    Message('pitchwheel', channel=5, pitch=-4608, time=0),
    Message('note_on', channel=8, note=64, velocity=0, time=4),
    Message('note_on', channel=8, note=60, velocity=0, time=0),
    Message('pitchwheel', channel=3, pitch=-4992, time=4),
    Message('pitchwheel', channel=5, pitch=-4992, time=0),
    Message('note_on', channel=8, note=57, velocity=0, time=3),
    Message('pitchwheel', channel=3, pitch=-5376, time=6),
    Message('pitchwheel', channel=5, pitch=-5376, time=0),
    Message('pitchwheel', channel=3, pitch=-5632, time=9),
    Message('pitchwheel', channel=5, pitch=-5632, time=0),
    Message('pitchwheel', channel=3, pitch=-6016, time=9),
    Message('pitchwheel', channel=5, pitch=-6016, time=0),
    Message('pitchwheel', channel=3, pitch=-6272, time=9),
    Message('pitchwheel', channel=5, pitch=-6272, time=0),
    Message('pitchwheel', channel=3, pitch=-6656, time=9),
    Message('pitchwheel', channel=5, pitch=-6656, time=0),
    Message('pitchwheel', channel=3, pitch=-7040, time=9),
    Message('pitchwheel', channel=5, pitch=-7040, time=0),
    Message('pitchwheel', channel=3, pitch=-7296, time=9),
    Message('pitchwheel', channel=5, pitch=-7296, time=0),
    Message('pitchwheel', channel=3, pitch=-7680, time=9),
    Message('pitchwheel', channel=5, pitch=-7680, time=0),
    Message('pitchwheel', channel=3, pitch=-8064, time=8),
    Message('pitchwheel', channel=5, pitch=-8064, time=0),
    Message('note_on', channel=4, note=52, velocity=0, time=24),
    Message('note_on', channel=4, note=45, velocity=0, time=0),
    Message('note_on', channel=1, note=45, velocity=0, time=24),
    Message('pitchwheel', channel=3, pitch=0, time=15),
    Message('pitchwheel', channel=5, pitch=0, time=0),
    Message('control_change', channel=13, control=1, value=0, time=1),
    Message('note_on', channel=2, note=81, velocity=0, time=8),
    Message('note_on', channel=5, note=64, velocity=0, time=0),
    Message('note_on', channel=2, note=72, velocity=0, time=0),
    Message('note_on', channel=13, note=57, velocity=0, time=0),
    Message('note_on', channel=3, note=64, velocity=0, time=0),
    Message('note_on', channel=6, note=64, velocity=0, time=0),
    Message('note_on', channel=6, note=57, velocity=0, time=0),
    Message('note_on', channel=5, note=60, velocity=0, time=0),
    Message('note_on', channel=2, note=76, velocity=0, time=0),
    Message('note_on', channel=13, note=64, velocity=0, time=0),
    Message('note_on', channel=5, note=69, velocity=0, time=0),
    Message('note_on', channel=1, note=43, velocity=104, time=0),
    Message('note_on', channel=2, note=74, velocity=81, time=0),
    Message('note_on', channel=2, note=79, velocity=77, time=0),
    Message('note_on', channel=2, note=71, velocity=68, time=0),
    Message('note_on', channel=3, note=62, velocity=100, time=0),
    Message('note_on', channel=4, note=43, velocity=80, time=0),
    Message('note_on', channel=4, note=50, velocity=80, time=0),
    Message('note_on', channel=5, note=59, velocity=80, time=0),
    Message('note_on', channel=5, note=62, velocity=80, time=0),
    Message('note_on', channel=5, note=67, velocity=80, time=0),
    Message('note_on', channel=6, note=55, velocity=100, time=0),
    Message('note_on', channel=6, note=62, velocity=100, time=0),
    Message('note_on', channel=8, note=62, velocity=78, time=0),
    Message('note_on', channel=9, note=36, velocity=120, time=0),
    Message('note_on', channel=9, note=44, velocity=80, time=0),
    Message('note_on', channel=13, note=55, velocity=90, time=0),
    Message('note_on', channel=13, note=62, velocity=90, time=0),
    MetaMessage('lyrics', text='long, ', time=0),
    Message('note_on', channel=9, note=36, velocity=0, time=4),
    Message('note_on', channel=9, note=44, velocity=0, time=1),
    Message('note_on', channel=8, note=55, velocity=78, time=5),
    Message('note_on', channel=8, note=59, velocity=78, time=18),
    Message('note_on', channel=4, note=50, velocity=0, time=164),
    Message('note_on', channel=4, note=43, velocity=0, time=0),
    Message('note_on', channel=4, note=43, velocity=71, time=48),
    Message('note_on', channel=4, note=50, velocity=71, time=0),
    Message('note_on', channel=9, note=42, velocity=80, time=0),
    Message('note_on', channel=9, note=42, velocity=0, time=5),
    Message('note_on', channel=4, note=50, velocity=0, time=187),
    Message('note_on', channel=4, note=43, velocity=0, time=0),
    Message('note_on', channel=1, note=43, velocity=0, time=0),
    Message('note_on', channel=8, note=55, velocity=0, time=1),
    Message('note_on', channel=8, note=62, velocity=0, time=18),
    Message('control_change', channel=13, control=1, value=60, time=0),
    Message('note_on', channel=8, note=59, velocity=0, time=5),
    Message('note_on', channel=4, note=50, velocity=86, time=24),
    Message('note_on', channel=4, note=43, velocity=86, time=0),
    Message('note_on', channel=8, note=62, velocity=48, time=0),
    Message('note_on', channel=9, note=44, velocity=80, time=0),
    Message('note_on', channel=9, note=54, velocity=50, time=0),
    Message('note_on', channel=9, note=38, velocity=120, time=0),
    Message('note_on', channel=9, note=38, velocity=0, time=4),
    Message('note_on', channel=9, note=54, velocity=0, time=0),
    Message('note_on', channel=9, note=44, velocity=0, time=1),
    Message('note_on', channel=8, note=55, velocity=48, time=13),
    Message('note_on', channel=8, note=59, velocity=48, time=5),
    Message('note_on', channel=4, note=43, velocity=0, time=169),
    Message('note_on', channel=4, note=50, velocity=0, time=0),
    Message('note_on', channel=8, note=62, velocity=0, time=38),
    Message('note_on', channel=8, note=59, velocity=0, time=9),
    Message('note_on', channel=8, note=55, velocity=0, time=0),
    Message('note_on', channel=1, note=43, velocity=104, time=1),
    Message('note_on', channel=4, note=50, velocity=70, time=0),
    Message('note_on', channel=4, note=43, velocity=70, time=0),
    Message('note_on', channel=8, note=59, velocity=70, time=0),
    Message('note_on', channel=9, note=42, velocity=80, time=0),
    Message('note_on', channel=9, note=42, velocity=0, time=5),
    Message('note_on', channel=8, note=55, velocity=70, time=14),
    Message('note_on', channel=8, note=62, velocity=70, time=14),
    Message('note_on', channel=4, note=43, velocity=0, time=159),
    Message('note_on', channel=4, note=50, velocity=0, time=0),
    Message('note_on', channel=1, note=43, velocity=0, time=24),
    Message('control_change', channel=13, control=1, value=0, time=9),
    Message('note_on', channel=8, note=59, velocity=0, time=5),
    Message('note_on', channel=8, note=55, velocity=0, time=5),
    Message('note_on', channel=2, note=74, velocity=0, time=5),
    Message('note_on', channel=6, note=62, velocity=0, time=0),
    Message('note_on', channel=5, note=62, velocity=0, time=0),
    Message('note_on', channel=2, note=71, velocity=0, time=0),
    Message('note_on', channel=3, note=62, velocity=0, time=0),
    Message('note_on', channel=5, note=59, velocity=0, time=0),
    Message('note_on', channel=13, note=62, velocity=0, time=0),
    Message('note_on', channel=2, note=79, velocity=0, time=0),
    Message('note_on', channel=5, note=67, velocity=0, time=0),
    Message('note_on', channel=13, note=55, velocity=0, time=0),
    Message('note_on', channel=6, note=55, velocity=0, time=0),
    Message('note_on', channel=1, note=41, velocity=104, time=0),
    Message('note_on', channel=2, note=81, velocity=70, time=0),
    Message('note_on', channel=2, note=72, velocity=56, time=0),
    Message('note_on', channel=2, note=77, velocity=81, time=0),
    Message('note_on', channel=3, note=60, velocity=100, time=0),
    Message('note_on', channel=4, note=48, velocity=87, time=0),
    Message('note_on', channel=4, note=41, velocity=87, time=0),
    Message('note_on', channel=5, note=65, velocity=80, time=0),
    Message('note_on', channel=5, note=57, velocity=80, time=0),
    Message('note_on', channel=5, note=60, velocity=80, time=0),
    Message('note_on', channel=6, note=60, velocity=100, time=0),
    Message('note_on', channel=6, note=53, velocity=100, time=0),
    Message('note_on', channel=8, note=57, velocity=80, time=0),
    Message('note_on', channel=9, note=44, velocity=80, time=0),
    Message('note_on', channel=9, note=36, velocity=120, time=0),
    Message('note_on', channel=13, note=60, velocity=90, time=0),
    Message('note_on', channel=13, note=53, velocity=90, time=0),
    MetaMessage('lyrics', text='how ', time=0),
    Message('note_on', channel=9, note=36, velocity=0, time=4),
    Message('note_on', channel=8, note=62, velocity=0, time=0),
    Message('note_on', channel=9, note=44, velocity=0, time=1),
    Message('note_on', channel=8, note=60, velocity=80, time=11),
    Message('note_on', channel=8, note=65, velocity=80, time=7),
    Message('note_on', channel=4, note=41, velocity=0, time=169),
    Message('note_on', channel=4, note=48, velocity=0, time=0),
    Message('note_on', channel=4, note=48, velocity=72, time=48),
    Message('note_on', channel=4, note=41, velocity=72, time=0),
    Message('note_on', channel=9, note=42, velocity=80, time=0),
    Message('note_on', channel=9, note=42, velocity=0, time=5),
    Message('control_change', channel=13, control=1, value=58, time=65),
    Message('note_on', channel=4, note=41, velocity=0, time=122),
    Message('note_on', channel=4, note=48, velocity=0, time=0),
    Message('note_on', channel=1, note=41, velocity=0, time=0),
    Message('note_on', channel=8, note=65, velocity=0, time=18),
    Message('note_on', channel=8, note=57, velocity=0, time=11),
    Message('note_on', channel=8, note=60, velocity=0, time=16),
    Message('note_on', channel=4, note=41, velocity=82, time=3),
    Message('note_on', channel=4, note=48, velocity=82, time=0),
    Message('note_on', channel=9, note=54, velocity=50, time=0),
    Message('note_on', channel=9, note=44, velocity=80, time=0),
    Message('note_on', channel=9, note=38, velocity=120, time=0),
    Message('note_on', channel=9, note=38, velocity=0, time=4),
    Message('note_on', channel=9, note=54, velocity=0, time=0),
    Message('note_on', channel=9, note=44, velocity=0, time=1),
    Message('note_on', channel=8, note=57, velocity=59, time=4),
    Message('note_on', channel=8, note=60, velocity=59, time=6),
    Message('note_on', channel=8, note=65, velocity=59, time=4),
    Message('note_on', channel=4, note=41, velocity=0, time=173),
    Message('note_on', channel=4, note=48, velocity=0, time=0),
    Message('note_on', channel=8, note=57, velocity=0, time=14),
    Message('control_change', channel=13, control=1, value=0, time=12),
    Message('note_on', channel=8, note=60, velocity=0, time=1),
    Message('note_on', channel=8, note=65, velocity=0, time=4),
    Message('note_on', channel=6, note=53, velocity=0, time=17),
    Message('note_on', channel=13, note=53, velocity=0, time=0),
    Message('note_on', channel=6, note=60, velocity=0, time=0),
    Message('note_on', channel=13, note=60, velocity=0, time=0),
    Message('note_on', channel=1, note=41, velocity=104, time=0),
    Message('note_on', channel=4, note=48, velocity=70, time=0),
    Message('note_on', channel=4, note=41, velocity=70, time=0),
    Message('note_on', channel=6, note=60, velocity=100, time=0),
    Message('note_on', channel=6, note=67, velocity=100, time=0),
    Message('note_on', channel=8, note=65, velocity=50, time=0),
    Message('note_on', channel=8, note=57, velocity=50, time=0),
    Message('note_on', channel=8, note=60, velocity=50, time=0),
    Message('note_on', channel=9, note=36, velocity=120, time=0),
    Message('note_on', channel=9, note=42, velocity=80, time=0),
    Message('note_on', channel=13, note=60, velocity=90, time=0),
    Message('note_on', channel=13, note=67, velocity=90, time=0),
    Message('note_on', channel=9, note=36, velocity=0, time=4),
    Message('note_on', channel=9, note=42, velocity=0, time=1),
    Message('note_on', channel=8, note=60, velocity=0, time=79),
    Message('note_on', channel=8, note=65, velocity=0, time=0),
    Message('note_on', channel=8, note=57, velocity=0, time=7),
    Message('note_on', channel=4, note=48, velocity=0, time=101),
    Message('note_on', channel=4, note=41, velocity=0, time=0),
    Message('note_on', channel=1, note=41, velocity=0, time=24),
    Message('note_on', channel=2, note=81, velocity=0, time=24),
    Message('note_on', channel=3, note=60, velocity=0, time=0),
    Message('note_on', channel=5, note=60, velocity=0, time=0),
    Message('note_on', channel=5, note=65, velocity=0, time=0),
    Message('note_on', channel=5, note=57, velocity=0, time=0),
    Message('note_on', channel=2, note=77, velocity=0, time=0),
    Message('note_on', channel=1, note=48, velocity=104, time=0),
    Message('note_on', channel=2, note=76, velocity=64, time=0),
    Message('note_on', channel=2, note=79, velocity=67, time=0),
    Message('note_on', channel=3, note=60, velocity=100, time=0),
    Message('note_on', channel=4, note=43, velocity=82, time=0),
    Message('note_on', channel=4, note=48, velocity=82, time=0),
    Message('note_on', channel=5, note=60, velocity=80, time=0),
    Message('note_on', channel=5, note=64, velocity=80, time=0),
    Message('note_on', channel=5, note=55, velocity=80, time=0),
    Message('note_on', channel=8, note=64, velocity=78, time=0),
    Message('note_on', channel=9, note=36, velocity=120, time=0),
    Message('note_on', channel=9, note=44, velocity=80, time=0),
    MetaMessage('lyrics', text='long, ', time=0),
    MetaMessage('lyrics', text='\r', time=0),
    Message('note_on', channel=9, note=36, velocity=0, time=4),
    Message('note_on', channel=9, note=44, velocity=0, time=1),
    Message('note_on', channel=8, note=55, velocity=78, time=5),
    Message('note_on', channel=8, note=60, velocity=78, time=18),
    Message('control_change', channel=13, control=1, value=59, time=113),
    Message('note_on', channel=4, note=48, velocity=0, time=51),
    Message('note_on', channel=4, note=43, velocity=0, time=0),
    Message('note_on', channel=8, note=64, velocity=0, time=38),
    Message('note_on', channel=8, note=60, velocity=0, time=5),
    Message('note_on', channel=8, note=55, velocity=0, time=5),
    Message('note_on', channel=4, note=43, velocity=70, time=0),
    Message('note_on', channel=4, note=48, velocity=70, time=0),
    Message('note_on', channel=8, note=60, velocity=63, time=0),
    Message('note_on', channel=9, note=42, velocity=80, time=0),
    Message('note_on', channel=9, note=42, velocity=0, time=5),
    Message('note_on', channel=8, note=55, velocity=63, time=14),
    Message('note_on', channel=8, note=64, velocity=63, time=5),
    Message('note_on', channel=8, note=60, velocity=0, time=138),
    Message('note_on', channel=8, note=64, velocity=0, time=24),
    Message('note_on', channel=8, note=55, velocity=0, time=2),
    Message('note_on', channel=1, note=48, velocity=0, time=4),
    Message('note_on', channel=4, note=48, velocity=0, time=0),
    Message('note_on', channel=4, note=43, velocity=0, time=0),
    Message('note_on', channel=6, note=60, velocity=0, time=45),
    Message('note_on', channel=6, note=67, velocity=0, time=0),
    Message('note_on', channel=13, note=60, velocity=0, time=0),
    Message('note_on', channel=13, note=67, velocity=0, time=0),
    Message('note_on', channel=4, note=48, velocity=80, time=3),
    Message('note_on', channel=4, note=43, velocity=80, time=0),
    Message('note_on', channel=6, note=67, velocity=100, time=0),
    Message('note_on', channel=6, note=72, velocity=100, time=0),
    Message('note_on', channel=8, note=64, velocity=48, time=0),
    Message('note_on', channel=9, note=49, velocity=80, time=0),
    Message('note_on', channel=9, note=54, velocity=50, time=0),
    Message('note_on', channel=9, note=38, velocity=120, time=0),
    Message('control_change', channel=13, control=1, value=0, time=0),
    Message('note_on', channel=13, note=67, velocity=100, time=0),
    Message('note_on', channel=13, note=72, velocity=100, time=0),
    Message('note_on', channel=9, note=38, velocity=0, time=4),
    Message('note_on', channel=9, note=54, velocity=0, time=0),
    Message('note_on', channel=9, note=49, velocity=0, time=1),
    Message('note_on', channel=8, note=55, velocity=48, time=13),
    Message('note_on', channel=8, note=60, velocity=48, time=5),
    Message('note_on', channel=4, note=48, velocity=0, time=169),
    Message('note_on', channel=4, note=43, velocity=0, time=0),
    Message('note_on', channel=8, note=64, velocity=0, time=38),
    Message('note_on', channel=8, note=60, velocity=0, time=9),
    Message('note_on', channel=8, note=55, velocity=0, time=0),
    Message('note_on', channel=1, note=48, velocity=104, time=1),
    Message('note_on', channel=4, note=43, velocity=70, time=0),
    Message('note_on', channel=4, note=48, velocity=70, time=0),
    Message('note_on', channel=8, note=60, velocity=70, time=0),
    Message('note_on', channel=9, note=42, velocity=80, time=0),
    Message('note_on', channel=9, note=42, velocity=0, time=5),
    Message('note_on', channel=8, note=55, velocity=70, time=14),
    Message('note_on', channel=8, note=64, velocity=70, time=14),
    Message('note_on', channel=4, note=48, velocity=0, time=159),
    Message('note_on', channel=4, note=43, velocity=0, time=0),
    Message('note_on', channel=1, note=48, velocity=0, time=24),
    Message('note_on', channel=8, note=60, velocity=0, time=14),
    Message('pitchwheel', channel=7, pitch=-8192, time=0),
    Message('note_on', channel=8, note=55, velocity=0, time=5),
    Message('note_on', channel=2, note=79, velocity=0, time=5),
    Message('note_on', channel=5, note=55, velocity=0, time=0),
    Message('note_on', channel=5, note=64, velocity=0, time=0),
    Message('note_on', channel=5, note=60, velocity=0, time=0),
    Message('note_on', channel=2, note=72, velocity=0, time=0),
    Message('note_on', channel=3, note=60, velocity=0, time=0),
    Message('note_on', channel=2, note=76, velocity=0, time=0),
    Message('note_on', channel=1, note=48, velocity=104, time=0),
    Message('note_on', channel=2, note=72, velocity=54, time=0),
    Message('note_on', channel=2, note=76, velocity=70, time=0),
    Message('note_on', channel=2, note=79, velocity=67, time=0),
    Message('note_on', channel=4, note=48, velocity=86, time=0),
    Message('note_on', channel=4, note=55, velocity=86, time=0),
    Message('note_on', channel=8, note=55, velocity=80, time=0),
    Message('note_on', channel=9, note=44, velocity=80, time=0),
    Message('note_on', channel=9, note=36, velocity=120, time=0),
    Message('note_on', channel=9, note=36, velocity=0, time=4),
    Message('note_on', channel=8, note=64, velocity=0, time=0),
    Message('note_on', channel=9, note=44, velocity=0, time=1),
    Message('note_on', channel=7, note=64, velocity=120, time=6),
    Message('note_on', channel=8, note=60, velocity=80, time=5),
    Message('note_on', channel=8, note=64, velocity=80, time=7),
    Message('note_on', channel=4, note=55, velocity=0, time=169),
    Message('note_on', channel=4, note=48, velocity=0, time=0),
    Message('note_on', channel=1, note=48, velocity=0, time=24),
    Message('note_on', channel=1, note=48, velocity=104, time=24),
    Message('note_on', channel=4, note=55, velocity=69, time=0),
    Message('note_on', channel=4, note=48, velocity=69, time=0),
    Message('note_on', channel=9, note=42, velocity=80, time=0),
    Message('note_on', channel=9, note=42, velocity=0, time=5),
    Message('pitchwheel', channel=7, pitch=-8064, time=27),
    Message('pitchwheel', channel=7, pitch=-7936, time=14),
    Message('pitchwheel', channel=7, pitch=-7808, time=14),
    Message('control_change', channel=13, control=1, value=45, time=3),
    Message('pitchwheel', channel=7, pitch=-7680, time=4),
    Message('pitchwheel', channel=7, pitch=-7552, time=14),
    Message('pitchwheel', channel=7, pitch=-7424, time=15),
    Message('pitchwheel', channel=7, pitch=-7296, time=7),
    Message('pitchwheel', channel=7, pitch=-7168, time=14),
    Message('pitchwheel', channel=7, pitch=-7040, time=14),
    Message('pitchwheel', channel=7, pitch=-6912, time=7),
    Message('pitchwheel', channel=7, pitch=-6784, time=14),
    Message('pitchwheel', channel=7, pitch=-6656, time=7),
    Message('pitchwheel', channel=7, pitch=-6528, time=14),
    Message('pitchwheel', channel=7, pitch=-6400, time=14),
    Message('note_on', channel=4, note=48, velocity=0, time=5),
    Message('note_on', channel=4, note=55, velocity=0, time=0),
    Message('pitchwheel', channel=7, pitch=-6272, time=2),
    Message('pitchwheel', channel=7, pitch=-6144, time=14),
    Message('note_on', channel=8, note=64, velocity=0, time=2),
    Message('note_on', channel=1, note=48, velocity=0, time=6),
    Message('note_on', channel=8, note=55, velocity=0, time=5),
    Message('pitchwheel', channel=7, pitch=-6016, time=2),
    Message('pitchwheel', channel=7, pitch=-5888, time=7),
    Message('note_on', channel=8, note=60, velocity=0, time=7),
    Message('note_on', channel=3, note=64, velocity=100, time=3),
    Message('note_on', channel=4, note=48, velocity=83, time=0),
    Message('note_on', channel=4, note=57, velocity=83, time=0),
    Message('note_on', channel=9, note=54, velocity=50, time=0),
    Message('note_on', channel=9, note=44, velocity=80, time=0),
    Message('note_on', channel=9, note=38, velocity=120, time=0),
    MetaMessage('lyrics', text='wo', time=0),
    Message('note_on', channel=9, note=38, velocity=0, time=4),
    Message('note_on', channel=9, note=54, velocity=0, time=0),
    Message('pitchwheel', channel=7, pitch=-5760, time=0),
    Message('note_on', channel=9, note=44, velocity=0, time=1),
    Message('note_on', channel=8, note=55, velocity=59, time=4),
    Message('note_on', channel=8, note=60, velocity=59, time=6),
    Message('pitchwheel', channel=7, pitch=-5632, time=3),
    Message('note_on', channel=8, note=64, velocity=59, time=1),
    Message('pitchwheel', channel=7, pitch=-5504, time=6),
    Message('pitchwheel', channel=7, pitch=-5376, time=14),
    Message('pitchwheel', channel=7, pitch=-5248, time=7),
    Message('pitchwheel', channel=7, pitch=-5120, time=14),
    Message('pitchwheel', channel=7, pitch=-4992, time=14),
    Message('pitchwheel', channel=7, pitch=-4864, time=7),
    Message('pitchwheel', channel=7, pitch=-4736, time=15),
    Message('pitchwheel', channel=7, pitch=-4608, time=14),
    Message('pitchwheel', channel=7, pitch=-4480, time=7),
    Message('pitchwheel', channel=7, pitch=-4352, time=14),
    Message('pitchwheel', channel=7, pitch=-4224, time=14),
    Message('pitchwheel', channel=7, pitch=-4096, time=7),
    Message('pitchwheel', channel=7, pitch=-3968, time=14),
    Message('pitchwheel', channel=7, pitch=-3840, time=7),
    Message('pitchwheel', channel=7, pitch=-3712, time=14),
    Message('note_on', channel=4, note=48, velocity=0, time=5),
    Message('note_on', channel=4, note=57, velocity=0, time=0),
    Message('pitchwheel', channel=7, pitch=-3584, time=9),
    Message('note_on', channel=8, note=55, velocity=0, time=5),
    Message('pitchwheel', channel=7, pitch=-3456, time=2),
    Message('note_on', channel=8, note=60, velocity=0, time=11),
    Message('note_on', channel=8, note=64, velocity=0, time=4),
    Message('pitchwheel', channel=7, pitch=-3328, time=0),
    Message('pitchwheel', channel=7, pitch=-3200, time=14),
    Message('note_on', channel=3, note=64, velocity=0, time=3),
    Message('note_on', channel=1, note=48, velocity=104, time=0),
    Message('note_on', channel=3, note=67, velocity=100, time=0),
    Message('note_on', channel=4, note=48, velocity=72, time=0),
    Message('note_on', channel=4, note=52, velocity=72, time=0),
    Message('note_on', channel=8, note=60, velocity=50, time=0),
    Message('note_on', channel=8, note=55, velocity=50, time=0),
    Message('note_on', channel=8, note=64, velocity=50, time=0),
    Message('note_on', channel=9, note=36, velocity=120, time=0),
    Message('note_on', channel=9, note=42, velocity=80, time=0),
    MetaMessage('lyrics', text='man ', time=0),
    Message('pitchwheel', channel=7, pitch=-3072, time=4),
    Message('note_on', channel=9, note=42, velocity=0, time=1),
    Message('note_on', channel=9, note=36, velocity=0, time=11),
    Message('pitchwheel', channel=7, pitch=-2944, time=2),
    Message('pitchwheel', channel=7, pitch=-2816, time=14),
    Message('pitchwheel', channel=7, pitch=-2688, time=7),
    Message('pitchwheel', channel=7, pitch=-2560, time=14),
    Message('pitchwheel', channel=7, pitch=-2432, time=7),
    Message('pitchwheel', channel=7, pitch=-2304, time=14),
    Message('note_on', channel=8, note=64, velocity=0, time=10),
    Message('note_on', channel=8, note=60, velocity=0, time=0),
    Message('pitchwheel', channel=7, pitch=-2176, time=4),
    Message('note_on', channel=8, note=55, velocity=0, time=3),
    Message('pitchwheel', channel=7, pitch=-2048, time=5),
    Message('pitchwheel', channel=7, pitch=-1920, time=14),
    Message('pitchwheel', channel=7, pitch=-1792, time=14),
    Message('pitchwheel', channel=7, pitch=-1664, time=7),
    Message('pitchwheel', channel=7, pitch=-1536, time=14),
    Message('control_change', channel=13, control=1, value=75, time=3),
    Message('pitchwheel', channel=7, pitch=-1408, time=11),
    Message('pitchwheel', channel=7, pitch=-1280, time=7),
    Message('pitchwheel', channel=7, pitch=-1152, time=14),
    Message('pitchwheel', channel=7, pitch=-1024, time=7),
    Message('note_on', channel=4, note=48, velocity=0, time=5),
    Message('note_on', channel=4, note=52, velocity=0, time=0),
    Message('pitchwheel', channel=7, pitch=-896, time=9),
    Message('note_on', channel=1, note=48, velocity=0, time=15),
    Message('pitchwheel', channel=7, pitch=-768, time=0),
    Message('pitchwheel', channel=7, pitch=-640, time=7),
    Message('pitchwheel', channel=7, pitch=-512, time=14),
    Message('note_on', channel=3, note=67, velocity=0, time=3),
    Message('note_on', channel=1, note=48, velocity=104, time=0),
    Message('note_on', channel=3, note=67, velocity=100, time=0),
    Message('note_on', channel=4, note=48, velocity=80, time=0),
    Message('note_on', channel=4, note=55, velocity=80, time=0),
    Message('note_on', channel=8, note=64, velocity=78, time=0),
    Message('note_on', channel=9, note=44, velocity=80, time=0),
    Message('note_on', channel=9, note=36, velocity=120, time=0),
    MetaMessage('lyrics', text='will ', time=0),
    Message('note_on', channel=9, note=36, velocity=0, time=4),
    Message('note_on', channel=9, note=44, velocity=0, time=1),
    Message('note_on', channel=8, note=55, velocity=78, time=5),
    Message('pitchwheel', channel=7, pitch=-384, time=1),
    Message('pitchwheel', channel=7, pitch=-256, time=7),
    Message('note_on', channel=8, note=60, velocity=78, time=10),
    Message('pitchwheel', channel=7, pitch=-128, time=4),
    Message('pitchwheel', channel=7, pitch=0, time=7),
    Message('note_on', channel=4, note=48, velocity=0, time=153),
    Message('note_on', channel=4, note=55, velocity=0, time=0),
    Message('note_on', channel=1, note=48, velocity=0, time=24),
    Message('note_on', channel=8, note=64, velocity=0, time=14),
    Message('note_on', channel=8, note=60, velocity=0, time=5),
    Message('note_on', channel=3, note=67, velocity=0, time=5),
    Message('note_on', channel=8, note=55, velocity=0, time=0),
    Message('note_on', channel=1, note=48, velocity=104, time=0),
    Message('note_on', channel=3, note=67, velocity=100, time=0),
    Message('note_on', channel=4, note=55, velocity=71, time=0),
    Message('note_on', channel=4, note=48, velocity=71, time=0),
    Message('note_on', channel=8, note=60, velocity=63, time=0),
    Message('note_on', channel=9, note=42, velocity=80, time=0),
    MetaMessage('lyrics', text='you, ', time=0),
    Message('note_on', channel=9, note=42, velocity=0, time=5),
    Message('note_on', channel=8, note=55, velocity=63, time=14),
    Message('note_on', channel=8, note=64, velocity=63, time=5),
    Message('note_on', channel=8, note=60, velocity=0, time=138),
    Message('note_on', channel=8, note=64, velocity=0, time=24),
    Message('note_on', channel=8, note=55, velocity=0, time=2),
    Message('note_on', channel=4, note=48, velocity=0, time=4),
    Message('note_on', channel=4, note=55, velocity=0, time=0),
    Message('note_on', channel=1, note=48, velocity=0, time=24),
    Message('note_on', channel=4, note=48, velocity=86, time=24),
    Message('note_on', channel=4, note=57, velocity=86, time=0),
    Message('note_on', channel=8, note=64, velocity=48, time=0),
    Message('note_on', channel=9, note=44, velocity=80, time=0),
    Message('note_on', channel=9, note=54, velocity=50, time=0),
    Message('note_on', channel=9, note=38, velocity=120, time=0),
    Message('note_on', channel=9, note=38, velocity=0, time=4),
    Message('note_on', channel=9, note=54, velocity=0, time=0),
    Message('note_on', channel=9, note=44, velocity=0, time=1),
    Message('note_on', channel=8, note=55, velocity=48, time=13),
    Message('note_on', channel=8, note=60, velocity=48, time=5),
    Message('note_on', channel=4, note=48, velocity=0, time=169),
    Message('note_on', channel=4, note=57, velocity=0, time=0),
    Message('note_on', channel=8, note=64, velocity=0, time=38),
    Message('note_on', channel=8, note=55, velocity=0, time=9),
    Message('note_on', channel=8, note=60, velocity=0, time=0),
    Message('note_on', channel=3, note=67, velocity=0, time=1),
    Message('note_on', channel=1, note=48, velocity=104, time=0),
    Message('note_on', channel=3, note=67, velocity=100, time=0),
    Message('note_on', channel=4, note=48, velocity=70, time=0),
    Message('note_on', channel=4, note=52, velocity=70, time=0),
    Message('note_on', channel=8, note=60, velocity=70, time=0),
    Message('note_on', channel=9, note=42, velocity=80, time=0),
    MetaMessage('lyrics', text='we', time=0),
    Message('note_on', channel=9, note=42, velocity=0, time=5),
    Message('note_on', channel=8, note=55, velocity=70, time=14),
    Message('note_on', channel=8, note=64, velocity=70, time=14),
    Message('note_on', channel=3, note=67, velocity=0, time=87),
    Message('note_on', channel=3, note=64, velocity=100, time=0),
    MetaMessage('lyrics', text='e', time=0),
    Message('note_on', channel=4, note=48, velocity=0, time=72),
    Message('note_on', channel=4, note=52, velocity=0, time=0),
    Message('note_on', channel=1, note=48, velocity=0, time=24),
    Message('control_change', channel=13, control=1, value=0, time=9),
    Message('note_on', channel=7, note=64, velocity=0, time=5),
    Message('note_on', channel=8, note=60, velocity=0, time=0),
    Message('note_on', channel=8, note=55, velocity=0, time=5),
    Message('note_on', channel=6, note=72, velocity=0, time=5),
    Message('note_on', channel=6, note=67, velocity=0, time=0),
    Message('note_on', channel=2, note=76, velocity=0, time=0),
    Message('note_on', channel=13, note=67, velocity=0, time=0),
    Message('note_on', channel=13, note=72, velocity=0, time=0),
    Message('note_on', channel=2, note=79, velocity=0, time=0),
    Message('note_on', channel=2, note=72, velocity=0, time=0),
    Message('note_on', channel=3, note=64, velocity=0, time=0),
    Message('note_on', channel=1, note=43, velocity=104, time=0),
    Message('note_on', channel=2, note=79, velocity=59, time=0),
    Message('note_on', channel=2, note=74, velocity=59, time=0),
    Message('note_on', channel=2, note=71, velocity=66, time=0),
    Message('note_on', channel=3, note=62, velocity=100, time=0),
    Message('note_on', channel=4, note=43, velocity=87, time=0),
    Message('note_on', channel=4, note=50, velocity=87, time=0),
    Message('note_on', channel=8, note=55, velocity=80, time=0),
    Message('note_on', channel=9, note=44, velocity=80, time=0),
    Message('note_on', channel=9, note=36, velocity=120, time=0),
    MetaMessage('lyrics', text='p. ', time=0),
    MetaMessage('lyrics', text='\r', time=0),
    Message('note_on', channel=9, note=36, velocity=0, time=4),
    Message('note_on', channel=8, note=64, velocity=0, time=0),
    Message('note_on', channel=9, note=44, velocity=0, time=1),
    Message('note_on', channel=8, note=59, velocity=80, time=11),
    Message('note_on', channel=8, note=62, velocity=80, time=7),
    Message('note_on', channel=4, note=50, velocity=0, time=169),
    Message('note_on', channel=4, note=43, velocity=0, time=0),
    Message('note_on', channel=1, note=43, velocity=0, time=24),
    Message('note_on', channel=1, note=43, velocity=104, time=24),
    Message('note_on', channel=4, note=43, velocity=72, time=0),
    Message('note_on', channel=4, note=50, velocity=72, time=0),
    Message('note_on', channel=6, note=64, velocity=100, time=0),
    Message('note_on', channel=7, note=67, velocity=120, time=0),
    Message('note_on', channel=9, note=42, velocity=80, time=0),
    Message('note_on', channel=13, note=64, velocity=100, time=0),
    Message('note_on', channel=9, note=42, velocity=0, time=5),
    Message('note_on', channel=4, note=43, velocity=0, time=187),
    Message('note_on', channel=4, note=50, velocity=0, time=0),
    Message('note_on', channel=8, note=62, velocity=0, time=18),
    Message('note_on', channel=1, note=43, velocity=0, time=6),
    Message('note_on', channel=8, note=55, velocity=0, time=5),
    Message('note_on', channel=8, note=59, velocity=0, time=16),
    Message('note_on', channel=6, note=64, velocity=0, time=3),
    Message('note_on', channel=13, note=64, velocity=0, time=0),
    Message('note_on', channel=7, note=67, velocity=0, time=0),
    Message('note_on', channel=3, note=62, velocity=0, time=0),
    Message('note_on', channel=4, note=52, velocity=82, time=0),
    Message('note_on', channel=4, note=43, velocity=82, time=0),
    Message('note_on', channel=6, note=62, velocity=100, time=0),
    Message('note_on', channel=7, note=67, velocity=120, time=0),
    Message('note_on', channel=9, note=44, velocity=80, time=0),
    Message('note_on', channel=9, note=54, velocity=50, time=0),
    Message('note_on', channel=9, note=38, velocity=120, time=0),
    Message('note_on', channel=13, note=62, velocity=100, time=0),
    Message('note_on', channel=9, note=38, velocity=0, time=4),
    Message('note_on', channel=9, note=54, velocity=0, time=0),
    Message('note_on', channel=9, note=44, velocity=0, time=1),
    Message('note_on', channel=8, note=55, velocity=59, time=4),
    Message('note_on', channel=8, note=59, velocity=59, time=6),
    Message('note_on', channel=8, note=62, velocity=59, time=4),
    Message('note_on', channel=4, note=43, velocity=0, time=173),
    Message('note_on', channel=4, note=52, velocity=0, time=0),
    Message('note_on', channel=8, note=55, velocity=0, time=14),
    Message('note_on', channel=8, note=59, velocity=0, time=13),
    Message('note_on', channel=8, note=62, velocity=0, time=4),
    Message('note_on', channel=6, note=62, velocity=0, time=17),
    Message('note_on', channel=13, note=62, velocity=0, time=0),
    Message('note_on', channel=7, note=67, velocity=0, time=0),
    Message('note_on', channel=1, note=43, velocity=104, time=0),
    Message('note_on', channel=4, note=43, velocity=70, time=0),
    Message('note_on', channel=4, note=47, velocity=70, time=0),
    Message('note_on', channel=6, note=60, velocity=100, time=0),
    Message('note_on', channel=7, note=62, velocity=120, time=0),
    Message('note_on', channel=8, note=55, velocity=50, time=0),
    Message('note_on', channel=8, note=59, velocity=50, time=0),
    Message('note_on', channel=8, note=62, velocity=50, time=0),
    Message('note_on', channel=9, note=36, velocity=120, time=0),
    Message('note_on', channel=9, note=42, velocity=80, time=0),
    Message('note_on', channel=13, note=60, velocity=100, time=0),
    Message('note_on', channel=9, note=36, velocity=0, time=4),
    Message('note_on', channel=9, note=42, velocity=0, time=1),
    Message('note_on', channel=8, note=59, velocity=0, time=79),
    Message('note_on', channel=8, note=62, velocity=0, time=0),
    Message('note_on', channel=8, note=55, velocity=0, time=7),
    Message('note_on', channel=4, note=47, velocity=0, time=101),
    Message('note_on', channel=4, note=43, velocity=0, time=0),
    Message('note_on', channel=1, note=43, velocity=0, time=24),
    Message('note_on', channel=7, note=62, velocity=0, time=24),
    Message('note_on', channel=6, note=60, velocity=0, time=0),
    Message('note_on', channel=13, note=60, velocity=0, time=0),
    Message('note_on', channel=1, note=43, velocity=104, time=0),
    Message('note_on', channel=4, note=50, velocity=82, time=0),
    Message('note_on', channel=4, note=43, velocity=82, time=0),
    Message('note_on', channel=6, note=59, velocity=100, time=0),
    Message('note_on', channel=7, note=62, velocity=120, time=0),
    Message('note_on', channel=8, note=62, velocity=78, time=0),
    Message('note_on', channel=9, note=44, velocity=80, time=0),
    Message('note_on', channel=9, note=36, velocity=120, time=0),
    Message('note_on', channel=13, note=59, velocity=100, time=0),
    Message('note_on', channel=9, note=36, velocity=0, time=4),
    Message('note_on', channel=9, note=44, velocity=0, time=1),
    Message('note_on', channel=8, note=55, velocity=78, time=5),
    Message('note_on', channel=8, note=59, velocity=78, time=18),
    Message('note_on', channel=4, note=43, velocity=0, time=164),
    Message('note_on', channel=4, note=50, velocity=0, time=0),
    Message('note_on', channel=1, note=43, velocity=0, time=24),
    Message('note_on', channel=8, note=62, velocity=0, time=14),
    Message('note_on', channel=8, note=59, velocity=0, time=5),
    Message('note_on', channel=7, note=62, velocity=0, time=5),
    Message('note_on', channel=6, note=59, velocity=0, time=0),
    Message('note_on', channel=8, note=55, velocity=0, time=0),
    Message('note_on', channel=13, note=59, velocity=0, time=0),
    Message('note_on', channel=1, note=43, velocity=104, time=0),
    Message('note_on', channel=4, note=43, velocity=70, time=0),
    Message('note_on', channel=4, note=50, velocity=70, time=0),
    Message('note_on', channel=6, note=57, velocity=100, time=0),
    Message('note_on', channel=7, note=62, velocity=120, time=0),
    Message('note_on', channel=8, note=59, velocity=63, time=0),
    Message('note_on', channel=9, note=42, velocity=80, time=0),
    Message('note_on', channel=13, note=57, velocity=100, time=0),
    Message('note_on', channel=9, note=42, velocity=0, time=5),
    Message('note_on', channel=8, note=55, velocity=63, time=14),
    Message('note_on', channel=8, note=62, velocity=63, time=5),
    Message('note_on', channel=8, note=59, velocity=0, time=138),
    Message('note_on', channel=8, note=62, velocity=0, time=24),
    Message('note_on', channel=8, note=55, velocity=0, time=2),
    Message('note_on', channel=4, note=50, velocity=0, time=4),
    Message('note_on', channel=4, note=43, velocity=0, time=0),
    Message('note_on', channel=1, note=43, velocity=0, time=24),
    Message('note_on', channel=7, note=62, velocity=0, time=24),
    Message('note_on', channel=13, note=57, velocity=0, time=0),
    Message('note_on', channel=6, note=57, velocity=0, time=0),
    Message('note_on', channel=4, note=52, velocity=80, time=0),
    Message('note_on', channel=4, note=43, velocity=80, time=0),
    Message('note_on', channel=6, note=55, velocity=100, time=0),
    Message('note_on', channel=7, note=62, velocity=120, time=0),
    Message('note_on', channel=8, note=62, velocity=48, time=0),
    Message('note_on', channel=9, note=54, velocity=50, time=0),
    Message('note_on', channel=9, note=46, velocity=80, time=0),
    Message('note_on', channel=9, note=38, velocity=120, time=0),
    Message('note_on', channel=13, note=55, velocity=100, time=0),
    Message('note_on', channel=9, note=38, velocity=0, time=4),
    Message('note_on', channel=9, note=54, velocity=0, time=0),
    Message('note_on', channel=9, note=46, velocity=0, time=1),
    Message('note_on', channel=8, note=55, velocity=48, time=13),
    Message('note_on', channel=8, note=59, velocity=48, time=5),
    Message('note_on', channel=4, note=52, velocity=0, time=169),
    Message('note_on', channel=4, note=43, velocity=0, time=0),
    Message('note_on', channel=8, note=62, velocity=0, time=38),
    Message('note_on', channel=8, note=55, velocity=0, time=9),
    Message('note_on', channel=8, note=59, velocity=0, time=0),
    Message('note_on', channel=6, note=55, velocity=0, time=1),
    Message('note_on', channel=7, note=62, velocity=0, time=0),
    Message('note_on', channel=13, note=55, velocity=0, time=0),
    Message('note_on', channel=1, note=43, velocity=104, time=0),
    Message('note_on', channel=4, note=43, velocity=70, time=0),
    Message('note_on', channel=4, note=47, velocity=70, time=0),
    Message('note_on', channel=6, note=52, velocity=100, time=0),
    Message('note_on', channel=7, note=62, velocity=120, time=0),
    Message('note_on', channel=8, note=59, velocity=70, time=0),
    Message('note_on', channel=9, note=42, velocity=80, time=0),
    Message('note_on', channel=13, note=52, velocity=100, time=0),
    Message('note_on', channel=9, note=42, velocity=0, time=5),
    Message('note_on', channel=8, note=55, velocity=70, time=14),
    Message('note_on', channel=8, note=62, velocity=70, time=14),
    Message('note_on', channel=4, note=47, velocity=0, time=159),
    Message('note_on', channel=4, note=43, velocity=0, time=0),
    Message('note_on', channel=1, note=43, velocity=0, time=24),
    Message('note_on', channel=8, note=59, velocity=0, time=14),
    Message('note_on', channel=8, note=55, velocity=0, time=5),
    Message('note_on', channel=2, note=74, velocity=0, time=5),
    Message('note_on', channel=6, note=52, velocity=0, time=0),
    Message('note_on', channel=7, note=62, velocity=0, time=0),
    Message('note_on', channel=2, note=79, velocity=0, time=0),
    Message('note_on', channel=13, note=52, velocity=0, time=0),
    Message('note_on', channel=2, note=71, velocity=0, time=0),
    Message('note_on', channel=1, note=45, velocity=104, time=0),
    Message('note_on', channel=2, note=72, velocity=63, time=0),
    Message('note_on', channel=2, note=81, velocity=58, time=0),
    Message('note_on', channel=2, note=76, velocity=55, time=0),
    Message('note_on', channel=3, note=64, velocity=100, time=0),
    Message('note_on', channel=4, note=45, velocity=86, time=0),
    Message('note_on', channel=4, note=52, velocity=86, time=0),
    Message('note_on', channel=5, note=60, velocity=80, time=0),
    Message('note_on', channel=5, note=69, velocity=80, time=0),
    Message('note_on', channel=5, note=64, velocity=80, time=0),
    Message('note_on', channel=6, note=57, velocity=100, time=0),
    Message('note_on', channel=6, note=64, velocity=100, time=0),
    Message('note_on', channel=8, note=57, velocity=80, time=0),
    Message('note_on', channel=9, note=36, velocity=120, time=0),
    Message('note_on', channel=9, note=57, velocity=80, time=0),
    Message('note_on', channel=13, note=57, velocity=90, time=0),
    Message('note_on', channel=13, note=64, velocity=90, time=0),
    MetaMessage('lyrics', text='How ', time=0),
    Message('note_on', channel=9, note=36, velocity=0, time=4),
    Message('note_on', channel=8, note=62, velocity=0, time=0),
    Message('note_on', channel=9, note=57, velocity=0, time=1),
    Message('note_on', channel=8, note=60, velocity=80, time=11),
    Message('note_on', channel=8, note=64, velocity=80, time=7),
    Message('note_on', channel=4, note=52, velocity=0, time=169),
    Message('note_on', channel=4, note=45, velocity=0, time=0),
    Message('note_on', channel=4, note=52, velocity=69, time=48),
    Message('note_on', channel=4, note=45, velocity=69, time=0),
    Message('note_on', channel=9, note=42, velocity=80, time=0),
    Message('note_on', channel=9, note=42, velocity=0, time=5),
    Message('note_on', channel=4, note=45, velocity=0, time=187),
    Message('note_on', channel=4, note=52, velocity=0, time=0),
    Message('note_on', channel=1, note=45, velocity=0, time=0),
    Message('note_on', channel=8, note=64, velocity=0, time=18),
    Message('control_change', channel=13, control=1, value=60, time=8),
    Message('note_on', channel=8, note=57, velocity=0, time=3),
    Message('note_on', channel=8, note=60, velocity=0, time=16),
    Message('note_on', channel=4, note=52, velocity=83, time=3),
    Message('note_on', channel=4, note=45, velocity=83, time=0),
    Message('note_on', channel=9, note=44, velocity=80, time=0),
    Message('note_on', channel=9, note=54, velocity=50, time=0),
    Message('note_on', channel=9, note=38, velocity=120, time=0),
    Message('note_on', channel=9, note=38, velocity=0, time=4),
    Message('note_on', channel=9, note=54, velocity=0, time=0),
    Message('note_on', channel=9, note=44, velocity=0, time=1),
    Message('note_on', channel=8, note=57, velocity=59, time=4),
    Message('note_on', channel=8, note=60, velocity=59, time=6),
    Message('note_on', channel=8, note=64, velocity=59, time=4),
    Message('note_on', channel=4, note=52, velocity=0, time=173),
    Message('note_on', channel=4, note=45, velocity=0, time=0),
    Message('pitchwheel', channel=3, pitch=0, time=3),
    Message('pitchwheel', channel=5, pitch=0, time=0),
    Message('pitchwheel', channel=3, pitch=-256, time=9),
    Message('pitchwheel', channel=5, pitch=-256, time=0),
    Message('note_on', channel=8, note=57, velocity=0, time=2),
    Message('pitchwheel', channel=3, pitch=-640, time=7),
    Message('pitchwheel', channel=5, pitch=-640, time=0),
    Message('note_on', channel=8, note=60, velocity=0, time=6),
    Message('pitchwheel', channel=3, pitch=-896, time=3),
    Message('pitchwheel', channel=5, pitch=-896, time=0),
    Message('note_on', channel=8, note=64, velocity=0, time=1),
    Message('pitchwheel', channel=3, pitch=-1280, time=8),
    Message('pitchwheel', channel=5, pitch=-1280, time=0),
    Message('note_on', channel=1, note=45, velocity=104, time=9),
    Message('pitchwheel', channel=3, pitch=-1664, time=0),
    Message('note_on', channel=4, note=45, velocity=72, time=0),
    Message('note_on', channel=4, note=52, velocity=72, time=0),
    Message('pitchwheel', channel=5, pitch=-1664, time=0),
    Message('note_on', channel=8, note=64, velocity=50, time=0),
    Message('note_on', channel=8, note=57, velocity=50, time=0),
    Message('note_on', channel=8, note=60, velocity=50, time=0),
    Message('note_on', channel=9, note=36, velocity=120, time=0),
    Message('note_on', channel=9, note=42, velocity=80, time=0),
    Message('note_on', channel=9, note=42, velocity=0, time=5),
    Message('pitchwheel', channel=3, pitch=-1920, time=3),
    Message('pitchwheel', channel=5, pitch=-1920, time=0),
    Message('note_on', channel=9, note=36, velocity=0, time=8),
    Message('pitchwheel', channel=3, pitch=-2304, time=1),
    Message('pitchwheel', channel=5, pitch=-2304, time=0),
    Message('pitchwheel', channel=3, pitch=-2688, time=9),
    Message('pitchwheel', channel=5, pitch=-2688, time=0),
    Message('pitchwheel', channel=3, pitch=-2944, time=9),
    Message('pitchwheel', channel=5, pitch=-2944, time=0),
    Message('pitchwheel', channel=3, pitch=-3328, time=9),
    Message('pitchwheel', channel=5, pitch=-3328, time=0),
    Message('pitchwheel', channel=3, pitch=-3584, time=9),
    Message('pitchwheel', channel=5, pitch=-3584, time=0),
    Message('pitchwheel', channel=3, pitch=-3968, time=9),
    Message('pitchwheel', channel=5, pitch=-3968, time=0),
    Message('pitchwheel', channel=3, pitch=-4352, time=9),
    Message('pitchwheel', channel=5, pitch=-4352, time=0),
    Message('pitchwheel', channel=3, pitch=-4608, time=9),
    Message('pitchwheel', channel=5, pitch=-4608, time=0),
    Message('note_on', channel=8, note=60, velocity=0, time=4),
    Message('note_on', channel=8, note=64, velocity=0, time=0),
    Message('pitchwheel', channel=3, pitch=-4992, time=4),
    Message('pitchwheel', channel=5, pitch=-4992, time=0),
    Message('note_on', channel=8, note=57, velocity=0, time=3),
    Message('pitchwheel', channel=3, pitch=-5376, time=6),
    Message('pitchwheel', channel=5, pitch=-5376, time=0),
    Message('pitchwheel', channel=3, pitch=-5632, time=9),
    Message('pitchwheel', channel=5, pitch=-5632, time=0),
    Message('pitchwheel', channel=3, pitch=-6016, time=9),
    Message('pitchwheel', channel=5, pitch=-6016, time=0),
    Message('pitchwheel', channel=3, pitch=-6272, time=9),
    Message('pitchwheel', channel=5, pitch=-6272, time=0),
    Message('pitchwheel', channel=3, pitch=-6656, time=9),
    Message('pitchwheel', channel=5, pitch=-6656, time=0),
    Message('pitchwheel', channel=3, pitch=-7040, time=9),
    Message('pitchwheel', channel=5, pitch=-7040, time=0),
    Message('pitchwheel', channel=3, pitch=-7296, time=9),
    Message('pitchwheel', channel=5, pitch=-7296, time=0),
    Message('pitchwheel', channel=3, pitch=-7680, time=9),
    Message('pitchwheel', channel=5, pitch=-7680, time=0),
    Message('pitchwheel', channel=3, pitch=-8064, time=8),
    Message('pitchwheel', channel=5, pitch=-8064, time=0),
    Message('note_on', channel=4, note=52, velocity=0, time=24),
    Message('note_on', channel=4, note=45, velocity=0, time=0),
    Message('note_on', channel=1, note=45, velocity=0, time=24),
    Message('control_change', channel=13, control=1, value=0, time=2),
    Message('pitchwheel', channel=3, pitch=0, time=13),
    Message('pitchwheel', channel=5, pitch=0, time=0),
    Message('note_on', channel=2, note=72, velocity=0, time=9),
    Message('note_on', channel=5, note=69, velocity=0, time=0),
    Message('note_on', channel=2, note=76, velocity=0, time=0),
    Message('note_on', channel=13, note=64, velocity=0, time=0),
    Message('note_on', channel=3, note=64, velocity=0, time=0),
    Message('note_on', channel=5, note=60, velocity=0, time=0),
    Message('note_on', channel=6, note=64, velocity=0, time=0),
    Message('note_on', channel=5, note=64, velocity=0, time=0),
    Message('note_on', channel=13, note=57, velocity=0, time=0),
    Message('note_on', channel=2, note=81, velocity=0, time=0),
    Message('note_on', channel=6, note=57, velocity=0, time=0),
    Message('note_on', channel=1, note=43, velocity=104, time=0),
    Message('note_on', channel=2, note=71, velocity=71, time=0),
    Message('note_on', channel=2, note=79, velocity=79, time=0),
    Message('note_on', channel=2, note=74, velocity=77, time=0),
    Message('note_on', channel=3, note=62, velocity=100, time=0),
    Message('note_on', channel=4, note=43, velocity=80, time=0),
    Message('note_on', channel=4, note=50, velocity=80, time=0),
    Message('note_on', channel=5, note=62, velocity=80, time=0),
    Message('note_on', channel=5, note=67, velocity=80, time=0),
    Message('note_on', channel=5, note=59, velocity=80, time=0),
    Message('note_on', channel=6, note=62, velocity=100, time=0),
    Message('note_on', channel=6, note=55, velocity=100, time=0),
    Message('note_on', channel=8, note=62, velocity=78, time=0),
    Message('note_on', channel=9, note=44, velocity=80, time=0),
    Message('note_on', channel=9, note=36, velocity=120, time=0),
    Message('note_on', channel=13, note=62, velocity=90, time=0),
    Message('note_on', channel=13, note=55, velocity=90, time=0),
    MetaMessage('lyrics', text='long, ', time=0),
    Message('note_on', channel=9, note=36, velocity=0, time=4),
    Message('note_on', channel=9, note=44, velocity=0, time=1),
    Message('note_on', channel=8, note=55, velocity=78, time=5),
    Message('note_on', channel=8, note=59, velocity=78, time=18),
    Message('note_on', channel=4, note=50, velocity=0, time=164),
    Message('note_on', channel=4, note=43, velocity=0, time=0),
    Message('note_on', channel=4, note=50, velocity=71, time=48),
    Message('note_on', channel=4, note=43, velocity=71, time=0),
    Message('note_on', channel=9, note=42, velocity=80, time=0),
    Message('note_on', channel=9, note=42, velocity=0, time=5),
    Message('note_on', channel=4, note=43, velocity=0, time=187),
    Message('note_on', channel=4, note=50, velocity=0, time=0),
    Message('note_on', channel=1, note=43, velocity=0, time=0),
    Message('note_on', channel=8, note=55, velocity=0, time=1),
    Message('note_on', channel=8, note=62, velocity=0, time=18),
    Message('note_on', channel=8, note=59, velocity=0, time=5),
    Message('note_on', channel=4, note=43, velocity=86, time=24),
    Message('note_on', channel=4, note=50, velocity=86, time=0),
    Message('note_on', channel=8, note=62, velocity=48, time=0),
    Message('note_on', channel=9, note=44, velocity=80, time=0),
    Message('note_on', channel=9, note=54, velocity=50, time=0),
    Message('note_on', channel=9, note=38, velocity=120, time=0),
    Message('note_on', channel=9, note=38, velocity=0, time=4),
    Message('note_on', channel=9, note=54, velocity=0, time=0),
    Message('note_on', channel=9, note=44, velocity=0, time=1),
    Message('control_change', channel=13, control=1, value=61, time=2),
    Message('note_on', channel=8, note=55, velocity=48, time=11),
    Message('note_on', channel=8, note=59, velocity=48, time=5),
    Message('note_on', channel=4, note=50, velocity=0, time=169),
    Message('note_on', channel=4, note=43, velocity=0, time=0),
    Message('note_on', channel=8, note=62, velocity=0, time=38),
    Message('note_on', channel=8, note=59, velocity=0, time=9),
    Message('note_on', channel=8, note=55, velocity=0, time=0),
    Message('note_on', channel=1, note=43, velocity=104, time=1),
    Message('note_on', channel=4, note=43, velocity=70, time=0),
    Message('note_on', channel=4, note=50, velocity=70, time=0),
    Message('note_on', channel=8, note=59, velocity=70, time=0),
    Message('note_on', channel=9, note=42, velocity=80, time=0),
    Message('note_on', channel=9, note=42, velocity=0, time=5),
    Message('note_on', channel=8, note=55, velocity=70, time=14),
    Message('note_on', channel=8, note=62, velocity=70, time=14),
    Message('note_on', channel=4, note=50, velocity=0, time=159),
    Message('note_on', channel=4, note=43, velocity=0, time=0),
    Message('note_on', channel=1, note=43, velocity=0, time=24),
    Message('control_change', channel=13, control=1, value=0, time=2),
    Message('note_on', channel=8, note=59, velocity=0, time=12),
    Message('note_on', channel=8, note=55, velocity=0, time=5),
    Message('note_on', channel=2, note=71, velocity=0, time=5),
    Message('note_on', channel=6, note=55, velocity=0, time=0),
    Message('note_on', channel=5, note=67, velocity=0, time=0),
    Message('note_on', channel=2, note=74, velocity=0, time=0),
    Message('note_on', channel=3, note=62, velocity=0, time=0),
    Message('note_on', channel=5, note=62, velocity=0, time=0),
    Message('note_on', channel=13, note=55, velocity=0, time=0),
    Message('note_on', channel=2, note=79, velocity=0, time=0),
    Message('note_on', channel=5, note=59, velocity=0, time=0),
    Message('note_on', channel=13, note=62, velocity=0, time=0),
    Message('note_on', channel=6, note=62, velocity=0, time=0),
    Message('note_on', channel=1, note=41, velocity=104, time=0),
    Message('note_on', channel=2, note=77, velocity=59, time=0),
    Message('note_on', channel=2, note=72, velocity=67, time=0),
    Message('note_on', channel=2, note=81, velocity=64, time=0),
    Message('note_on', channel=3, note=60, velocity=100, time=0),
    Message('note_on', channel=4, note=41, velocity=87, time=0),
    Message('note_on', channel=4, note=48, velocity=87, time=0),
    Message('note_on', channel=5, note=57, velocity=80, time=0),
    Message('note_on', channel=5, note=65, velocity=80, time=0),
    Message('note_on', channel=5, note=60, velocity=80, time=0),
    Message('note_on', channel=6, note=53, velocity=100, time=0),
    Message('note_on', channel=6, note=60, velocity=100, time=0),
    Message('note_on', channel=8, note=57, velocity=80, time=0),
    Message('note_on', channel=9, note=36, velocity=120, time=0),
    Message('note_on', channel=9, note=44, velocity=80, time=0),
    Message('note_on', channel=13, note=53, velocity=90, time=0),
    Message('note_on', channel=13, note=60, velocity=90, time=0),
    MetaMessage('lyrics', text='how ', time=0),
    Message('note_on', channel=9, note=36, velocity=0, time=4),
    Message('note_on', channel=8, note=62, velocity=0, time=0),
    Message('note_on', channel=9, note=44, velocity=0, time=1),
    Message('note_on', channel=8, note=60, velocity=80, time=11),
    Message('note_on', channel=8, note=65, velocity=80, time=7),
    Message('note_on', channel=4, note=48, velocity=0, time=169),
    Message('note_on', channel=4, note=41, velocity=0, time=0),
    Message('note_on', channel=4, note=48, velocity=72, time=48),
    Message('note_on', channel=4, note=41, velocity=72, time=0),
    Message('note_on', channel=9, note=42, velocity=80, time=0),
    Message('note_on', channel=9, note=42, velocity=0, time=5),
    Message('control_change', channel=13, control=1, value=65, time=72),
    Message('note_on', channel=4, note=41, velocity=0, time=115),
    Message('note_on', channel=4, note=48, velocity=0, time=0),
    Message('note_on', channel=1, note=41, velocity=0, time=0),
    Message('note_on', channel=8, note=65, velocity=0, time=18),
    Message('note_on', channel=8, note=57, velocity=0, time=11),
    Message('note_on', channel=8, note=60, velocity=0, time=16),
    Message('note_on', channel=4, note=48, velocity=82, time=3),
    Message('note_on', channel=4, note=41, velocity=82, time=0),
    Message('note_on', channel=9, note=54, velocity=50, time=0),
    Message('note_on', channel=9, note=44, velocity=80, time=0),
    Message('note_on', channel=9, note=38, velocity=120, time=0),
    Message('note_on', channel=9, note=38, velocity=0, time=4),
    Message('note_on', channel=9, note=54, velocity=0, time=0),
    Message('note_on', channel=9, note=44, velocity=0, time=1),
    Message('note_on', channel=8, note=57, velocity=59, time=4),
    Message('note_on', channel=8, note=60, velocity=59, time=6),
    Message('note_on', channel=8, note=65, velocity=59, time=4),
    Message('note_on', channel=4, note=48, velocity=0, time=173),
    Message('note_on', channel=4, note=41, velocity=0, time=0),
    Message('control_change', channel=13, control=1, value=0, time=5),
    Message('note_on', channel=8, note=57, velocity=0, time=9),
    Message('note_on', channel=8, note=60, velocity=0, time=13),
    Message('note_on', channel=8, note=65, velocity=0, time=4),
    Message('note_on', channel=6, note=60, velocity=0, time=17),
    Message('note_on', channel=13, note=60, velocity=0, time=0),
    Message('note_on', channel=6, note=53, velocity=0, time=0),
    Message('note_on', channel=13, note=53, velocity=0, time=0),
    Message('note_on', channel=1, note=41, velocity=104, time=0),
    Message('note_on', channel=4, note=48, velocity=70, time=0),
    Message('note_on', channel=4, note=41, velocity=70, time=0),
    Message('note_on', channel=6, note=60, velocity=100, time=0),
    Message('note_on', channel=6, note=67, velocity=100, time=0),
    Message('note_on', channel=8, note=65, velocity=50, time=0),
    Message('note_on', channel=8, note=57, velocity=50, time=0),
    Message('note_on', channel=8, note=60, velocity=50, time=0),
    Message('note_on', channel=9, note=42, velocity=80, time=0),
    Message('note_on', channel=9, note=36, velocity=120, time=0),
    Message('note_on', channel=13, note=60, velocity=100, time=0),
    Message('note_on', channel=13, note=67, velocity=100, time=0),
    Message('note_on', channel=9, note=36, velocity=0, time=4),
    Message('note_on', channel=9, note=42, velocity=0, time=1),
    Message('note_on', channel=8, note=60, velocity=0, time=79),
    Message('note_on', channel=8, note=65, velocity=0, time=0),
    Message('note_on', channel=8, note=57, velocity=0, time=7),
    Message('note_on', channel=4, note=48, velocity=0, time=101),
    Message('note_on', channel=4, note=41, velocity=0, time=0),
    Message('note_on', channel=1, note=41, velocity=0, time=24),
    Message('note_on', channel=2, note=77, velocity=0, time=24),
    Message('note_on', channel=3, note=60, velocity=0, time=0),
    Message('note_on', channel=5, note=60, velocity=0, time=0),
    Message('note_on', channel=5, note=57, velocity=0, time=0),
    Message('note_on', channel=5, note=65, velocity=0, time=0),
    Message('note_on', channel=2, note=81, velocity=0, time=0),
    Message('note_on', channel=1, note=48, velocity=104, time=0),
    Message('note_on', channel=2, note=76, velocity=71, time=0),
    Message('note_on', channel=2, note=79, velocity=58, time=0),
    Message('note_on', channel=3, note=60, velocity=100, time=0),
    Message('note_on', channel=4, note=43, velocity=82, time=0),
    Message('note_on', channel=4, note=48, velocity=82, time=0),
    Message('note_on', channel=5, note=60, velocity=80, time=0),
    Message('note_on', channel=5, note=64, velocity=80, time=0),
    Message('note_on', channel=5, note=55, velocity=80, time=0),
    Message('note_on', channel=8, note=64, velocity=78, time=0),
    Message('note_on', channel=9, note=44, velocity=80, time=0),
    Message('note_on', channel=9, note=36, velocity=120, time=0),
    MetaMessage('lyrics', text='long, ', time=0),
    MetaMessage('lyrics', text='\r', time=0),
    Message('note_on', channel=9, note=36, velocity=0, time=4),
    Message('note_on', channel=9, note=44, velocity=0, time=1),
    Message('note_on', channel=8, note=55, velocity=78, time=5),
    Message('note_on', channel=8, note=60, velocity=78, time=18),
    Message('note_on', channel=4, note=48, velocity=0, time=164),
    Message('note_on', channel=4, note=43, velocity=0, time=0),
    Message('note_on', channel=8, note=64, velocity=0, time=38),
    Message('note_on', channel=8, note=60, velocity=0, time=5),
    Message('note_on', channel=8, note=55, velocity=0, time=5),
    Message('note_on', channel=4, note=43, velocity=70, time=0),
    Message('note_on', channel=4, note=48, velocity=70, time=0),
    Message('note_on', channel=8, note=60, velocity=63, time=0),
    Message('note_on', channel=9, note=42, velocity=80, time=0),
    Message('note_on', channel=9, note=42, velocity=0, time=5),
    Message('note_on', channel=8, note=55, velocity=63, time=14),
    Message('note_on', channel=8, note=64, velocity=63, time=5),
    Message('note_on', channel=8, note=60, velocity=0, time=138),
    Message('control_change', channel=13, control=1, value=67, time=21),
    Message('note_on', channel=8, note=64, velocity=0, time=3),
    Message('note_on', channel=8, note=55, velocity=0, time=2),
    Message('note_on', channel=1, note=48, velocity=0, time=4),
    Message('note_on', channel=4, note=48, velocity=0, time=0),
    Message('note_on', channel=4, note=43, velocity=0, time=0),
    Message('note_on', channel=4, note=48, velocity=80, time=48),
    Message('note_on', channel=4, note=43, velocity=80, time=0),
    Message('note_on', channel=8, note=64, velocity=48, time=0),
    Message('note_on', channel=9, note=44, velocity=80, time=0),
    Message('note_on', channel=9, note=54, velocity=50, time=0),
    Message('note_on', channel=9, note=38, velocity=120, time=0),
    Message('note_on', channel=9, note=38, velocity=0, time=4),
    Message('note_on', channel=9, note=54, velocity=0, time=0),
    Message('note_on', channel=9, note=44, velocity=0, time=1),
    Message('note_on', channel=8, note=55, velocity=48, time=13),
    Message('note_on', channel=8, note=60, velocity=48, time=5),
    Message('note_on', channel=4, note=43, velocity=0, time=169),
    Message('note_on', channel=4, note=48, velocity=0, time=0),
    Message('note_on', channel=8, note=64, velocity=0, time=38),
    Message('note_on', channel=8, note=60, velocity=0, time=9),
    Message('note_on', channel=8, note=55, velocity=0, time=0),
    Message('note_on', channel=1, note=48, velocity=104, time=1),
    Message('note_on', channel=4, note=48, velocity=70, time=0),
    Message('note_on', channel=4, note=43, velocity=70, time=0),
    Message('note_on', channel=8, note=60, velocity=70, time=0),
    Message('note_on', channel=9, note=42, velocity=80, time=0),
    Message('note_on', channel=9, note=42, velocity=0, time=5),
    Message('note_on', channel=8, note=55, velocity=70, time=14),
    Message('note_on', channel=8, note=64, velocity=70, time=14),
    Message('note_on', channel=4, note=43, velocity=0, time=159),
    Message('note_on', channel=4, note=48, velocity=0, time=0),
    Message('control_change', channel=13, control=1, value=0, time=19),
    Message('note_on', channel=1, note=48, velocity=0, time=5),
    Message('note_on', channel=6, note=67, velocity=0, time=9),
    Message('note_on', channel=13, note=67, velocity=0, time=0),
    Message('note_on', channel=8, note=60, velocity=0, time=5),
    Message('note_on', channel=6, note=60, velocity=0, time=2),
    Message('note_on', channel=13, note=60, velocity=0, time=0),
    Message('note_on', channel=8, note=55, velocity=0, time=3),
    Message('note_on', channel=2, note=79, velocity=0, time=5),
    Message('note_on', channel=5, note=64, velocity=0, time=0),
    Message('note_on', channel=5, note=55, velocity=0, time=0),
    Message('note_on', channel=3, note=60, velocity=0, time=0),
    Message('note_on', channel=5, note=60, velocity=0, time=0),
    Message('note_on', channel=2, note=72, velocity=0, time=0),
    Message('note_on', channel=2, note=76, velocity=0, time=0),
    Message('note_on', channel=1, note=31, velocity=100, time=0),
    Message('note_on', channel=2, note=79, velocity=79, time=0),
    Message('note_on', channel=2, note=71, velocity=70, time=0),
    Message('note_on', channel=2, note=74, velocity=75, time=0),
    Message('note_on', channel=3, note=62, velocity=100, time=0),
    Message('note_on', channel=4, note=43, velocity=100, time=0),
    Message('note_on', channel=6, note=43, velocity=100, time=0),
    Message('note_on', channel=9, note=36, velocity=120, time=0),
    Message('note_on', channel=9, note=44, velocity=80, time=0),
    Message('note_on', channel=13, note=43, velocity=100, time=0),
    MetaMessage('lyrics', text='rock ', time=0),
    Message('note_on', channel=9, note=36, velocity=0, time=4),
    Message('note_on', channel=8, note=64, velocity=0, time=0),
    Message('note_on', channel=9, note=44, velocity=0, time=1),
    Message('control_change', channel=13, control=1, value=43, time=178),
    Message('note_on', channel=9, note=42, velocity=80, time=57),
    Message('note_on', channel=9, note=42, velocity=0, time=5),
    Message('note_on', channel=1, note=31, velocity=0, time=187),
    Message('control_change', channel=13, control=1, value=0, time=33),
    Message('note_on', channel=4, note=43, velocity=0, time=5),
    Message('note_on', channel=6, note=43, velocity=0, time=10),
    Message('note_on', channel=13, note=43, velocity=0, time=0),
    Message('note_on', channel=3, note=62, velocity=0, time=0),
    Message('note_on', channel=1, note=33, velocity=100, time=0),
    Message('note_on', channel=3, note=62, velocity=100, time=0),
    Message('note_on', channel=4, note=45, velocity=100, time=0),
    Message('note_on', channel=6, note=45, velocity=100, time=0),
    Message('note_on', channel=9, note=46, velocity=80, time=0),
    Message('note_on', channel=9, note=54, velocity=50, time=0),
    Message('note_on', channel=9, note=38, velocity=120, time=0),
    Message('note_on', channel=13, note=45, velocity=100, time=0),
    MetaMessage('lyrics', text='your', time=0),
    Message('note_on', channel=9, note=38, velocity=0, time=4),
    Message('note_on', channel=9, note=54, velocity=0, time=0),
    Message('note_on', channel=9, note=46, velocity=0, time=1),
    Message('note_on', channel=9, note=42, velocity=80, time=235),
    Message('note_on', channel=9, note=42, velocity=0, time=5),
    Message('control_change', channel=13, control=1, value=43, time=23),
    Message('note_on', channel=1, note=33, velocity=0, time=164),
    Message('control_change', channel=13, control=1, value=0, time=40),
    Message('note_on', channel=4, note=45, velocity=0, time=4),
    Message('note_on', channel=3, note=62, velocity=0, time=4),
    Message('note_on', channel=13, note=45, velocity=0, time=0),
    Message('note_on', channel=6, note=45, velocity=0, time=0),
    Message('note_on', channel=1, note=34, velocity=100, time=0),
    Message('note_on', channel=3, note=62, velocity=100, time=0),
    Message('note_on', channel=4, note=46, velocity=100, time=0),
    Message('note_on', channel=6, note=46, velocity=100, time=0),
    Message('note_on', channel=9, note=36, velocity=120, time=0),
    Message('note_on', channel=9, note=44, velocity=80, time=0),
    Message('note_on', channel=13, note=46, velocity=100, time=0),
    MetaMessage('lyrics', text='self ', time=0),
    Message('note_on', channel=9, note=36, velocity=0, time=4),
    Message('note_on', channel=9, note=44, velocity=0, time=1),
    Message('note_on', channel=9, note=42, velocity=80, time=235),
    Message('note_on', channel=9, note=42, velocity=0, time=5),
    Message('control_change', channel=13, control=1, value=46, time=2),
    Message('note_on', channel=1, note=34, velocity=0, time=185),
    Message('control_change', channel=13, control=1, value=0, time=33),
    Message('note_on', channel=4, note=46, velocity=0, time=5),
    Message('note_on', channel=3, note=62, velocity=0, time=10),
    Message('note_on', channel=13, note=46, velocity=0, time=0),
    Message('note_on', channel=6, note=46, velocity=0, time=0),
    Message('note_on', channel=1, note=35, velocity=100, time=0),
    Message('note_on', channel=3, note=60, velocity=100, time=0),
    Message('note_on', channel=4, note=47, velocity=100, time=0),
    Message('note_on', channel=6, note=47, velocity=100, time=0),
    Message('note_on', channel=9, note=46, velocity=80, time=0),
    Message('note_on', channel=9, note=54, velocity=50, time=0),
    Message('note_on', channel=9, note=38, velocity=120, time=0),
    Message('note_on', channel=13, note=47, velocity=100, time=0),
    MetaMessage('lyrics', text='to, ', time=0),
    Message('note_on', channel=9, note=38, velocity=0, time=4),
    Message('note_on', channel=9, note=54, velocity=0, time=0),
    Message('note_on', channel=9, note=46, velocity=0, time=1),
    Message('control_change', channel=13, control=1, value=58, time=227),
    Message('note_on', channel=3, note=60, velocity=0, time=8),
    Message('note_on', channel=3, note=60, velocity=100, time=0),
    Message('note_on', channel=9, note=42, velocity=80, time=0),
    MetaMessage('lyrics', text='sleep...SOLO... ', time=0),
    MetaMessage('lyrics', text='\r', time=0),
    MetaMessage('lyrics', text='\n', time=0),
    Message('note_on', channel=9, note=42, velocity=0, time=5),
    Message('note_on', channel=9, note=54, velocity=50, time=115),
    Message('note_on', channel=9, note=38, velocity=90, time=0),
    Message('note_on', channel=9, note=38, velocity=0, time=4),
    Message('note_on', channel=9, note=54, velocity=0, time=0),
    Message('note_on', channel=1, note=35, velocity=0, time=68),
    Message('note_on', channel=13, note=47, velocity=0, time=40),
    Message('note_on', channel=6, note=47, velocity=0, time=0),
    Message('control_change', channel=13, control=1, value=0, time=0),
    Message('note_on', channel=4, note=47, velocity=0, time=4),
    Message('note_on', channel=2, note=79, velocity=0, time=4),
    Message('note_on', channel=2, note=74, velocity=0, time=0),
    Message('note_on', channel=2, note=71, velocity=0, time=0),
    Message('note_on', channel=1, note=36, velocity=104, time=0),
    Message('note_on', channel=2, note=79, velocity=62, time=0),
    Message('note_on', channel=2, note=76, velocity=75, time=0),
    Message('note_on', channel=2, note=72, velocity=62, time=0),
    Message('note_on', channel=4, note=55, velocity=100, time=0),
    Message('note_on', channel=4, note=48, velocity=100, time=0),
    Message('note_on', channel=9, note=49, velocity=80, time=0),
    Message('note_on', channel=9, note=36, velocity=120, time=0),
    Message('control_change', channel=13, control=7, value=100, time=0),
    Message('sysex', data=(65, 16, 66, 18, 64, 3, 22, 60, 107), time=0),
    Message('note_on', channel=9, note=36, velocity=0, time=4),
    Message('note_on', channel=9, note=49, velocity=0, time=1),
    Message('note_on', channel=6, note=48, velocity=80, time=2),
    Message('note_on', channel=13, note=48, velocity=100, time=0),
    Message('note_on', channel=3, note=60, velocity=0, time=1),
    Message('note_on', channel=1, note=36, velocity=0, time=100),
    Message('note_on', channel=6, note=48, velocity=0, time=26),
    Message('note_on', channel=13, note=48, velocity=0, time=0),
    Message('note_on', channel=4, note=55, velocity=0, time=2),
    Message('note_on', channel=4, note=48, velocity=0, time=0),
    Message('note_on', channel=2, note=79, velocity=0, time=104),
    Message('note_on', channel=6, note=57, velocity=80, time=0),
    Message('note_on', channel=13, note=57, velocity=100, time=0),
    Message('note_on', channel=2, note=72, velocity=0, time=20),
    Message('note_on', channel=2, note=76, velocity=0, time=0),
    Message('note_on', channel=6, note=57, velocity=0, time=100),
    Message('note_on', channel=13, note=57, velocity=0, time=0),
    Message('note_on', channel=6, note=55, velocity=80, time=0),
    Message('note_on', channel=13, note=55, velocity=100, time=0),
    Message('note_on', channel=13, note=55, velocity=0, time=120),
    Message('note_on', channel=6, note=55, velocity=0, time=0),
    Message('note_on', channel=6, note=52, velocity=80, time=0),
    Message('note_on', channel=13, note=52, velocity=100, time=0),
    Message('note_on', channel=13, note=52, velocity=0, time=240),
    Message('note_on', channel=6, note=52, velocity=0, time=0),
    Message('note_on', channel=6, note=55, velocity=80, time=0),
    Message('note_on', channel=13, note=55, velocity=100, time=0),
    Message('note_on', channel=13, note=55, velocity=0, time=240),
    Message('note_on', channel=6, note=55, velocity=0, time=0),
    Message('note_on', channel=6, note=57, velocity=80, time=0),
    Message('note_on', channel=13, note=57, velocity=100, time=0),
    Message('note_on', channel=13, note=57, velocity=0, time=240),
    Message('note_on', channel=6, note=57, velocity=0, time=0),
    Message('note_on', channel=6, note=60, velocity=80, time=0),
    Message('note_on', channel=13, note=60, velocity=100, time=0),
    Message('note_on', channel=13, note=60, velocity=0, time=240),
    Message('note_on', channel=6, note=60, velocity=0, time=0),
    Message('note_on', channel=6, note=62, velocity=80, time=0),
    Message('note_on', channel=13, note=62, velocity=100, time=0),
    Message('note_on', channel=9, note=54, velocity=50, time=5),
    Message('note_on', channel=9, note=38, velocity=120, time=0),
    Message('note_on', channel=9, note=38, velocity=0, time=4),
    Message('note_on', channel=9, note=54, velocity=0, time=0),
    Message('note_on', channel=13, note=62, velocity=0, time=231),
    Message('note_on', channel=6, note=62, velocity=0, time=0),
    Message('note_on', channel=6, note=60, velocity=80, time=0),
    Message('note_on', channel=13, note=60, velocity=100, time=0),
    Message('note_on', channel=13, note=60, velocity=0, time=218),
    Message('note_on', channel=6, note=60, velocity=0, time=0),
    Message('pitchwheel', channel=6, pitch=-8192, time=7),
    Message('pitchwheel', channel=13, pitch=-8192, time=0),
    Message('note_on', channel=1, note=48, velocity=97, time=15),
    Message('note_on', channel=2, note=72, velocity=71, time=0),
    Message('note_on', channel=2, note=76, velocity=66, time=0),
    Message('note_on', channel=2, note=79, velocity=68, time=0),
    Message('note_on', channel=4, note=55, velocity=86, time=0),
    Message('note_on', channel=4, note=48, velocity=86, time=0),
    Message('note_on', channel=6, note=64, velocity=80, time=0),
    Message('note_on', channel=8, note=55, velocity=80, time=0),
    Message('note_on', channel=9, note=49, velocity=80, time=0),
    Message('note_on', channel=9, note=36, velocity=120, time=0),
    Message('note_on', channel=13, note=64, velocity=100, time=0),
    Message('note_on', channel=9, note=36, velocity=0, time=4),
    Message('note_on', channel=9, note=49, velocity=0, time=1),
    Message('note_on', channel=8, note=60, velocity=80, time=11),
    Message('note_on', channel=8, note=64, velocity=80, time=7),
    Message('pitchwheel', channel=6, pitch=-8192, time=167),
    Message('pitchwheel', channel=13, pitch=-8192, time=0),
    Message('note_on', channel=4, note=48, velocity=0, time=2),
    Message('note_on', channel=4, note=55, velocity=0, time=0),
    Message('pitchwheel', channel=6, pitch=-7424, time=5),
    Message('pitchwheel', channel=13, pitch=-7424, time=0),
    Message('pitchwheel', channel=6, pitch=-6528, time=7),
    Message('pitchwheel', channel=13, pitch=-6528, time=0),
    Message('pitchwheel', channel=6, pitch=-5632, time=7),
    Message('pitchwheel', channel=13, pitch=-5632, time=0),
    Message('note_on', channel=1, note=48, velocity=0, time=5),
    Message('pitchwheel', channel=6, pitch=-4736, time=2),
    Message('pitchwheel', channel=13, pitch=-4736, time=0),
    Message('pitchwheel', channel=6, pitch=-3712, time=7),
    Message('pitchwheel', channel=13, pitch=-3712, time=0),
    Message('pitchwheel', channel=6, pitch=-2816, time=7),
    Message('pitchwheel', channel=13, pitch=-2816, time=0),
    Message('note_on', channel=1, note=48, velocity=88, time=8),
    Message('note_on', channel=4, note=55, velocity=69, time=0),
    Message('note_on', channel=4, note=48, velocity=69, time=0),
    Message('pitchwheel', channel=6, pitch=-1920, time=0),
    Message('note_on', channel=9, note=42, velocity=80, time=0),
    Message('pitchwheel', channel=13, pitch=-1920, time=0),
    Message('note_on', channel=9, note=42, velocity=0, time=5),
    Message('pitchwheel', channel=6, pitch=-1024, time=2),
    Message('pitchwheel', channel=13, pitch=-1024, time=0),
    Message('pitchwheel', channel=6, pitch=0, time=7),
    Message('pitchwheel', channel=13, pitch=0, time=0),
    Message('note_on', channel=4, note=55, velocity=0, time=178),
    Message('note_on', channel=4, note=48, velocity=0, time=0),
    Message('note_on', channel=8, note=64, velocity=0, time=18),
    Message('note_on', channel=1, note=48, velocity=0, time=6),
    Message('note_on', channel=8, note=55, velocity=0, time=5),
    Message('note_on', channel=6, note=64, velocity=0, time=11),
    Message('note_on', channel=13, note=64, velocity=0, time=0),
    Message('note_on', channel=8, note=60, velocity=0, time=5),
    Message('note_on', channel=4, note=57, velocity=83, time=3),
    Message('note_on', channel=4, note=48, velocity=83, time=0),
    Message('note_on', channel=6, note=64, velocity=80, time=0),
    Message('note_on', channel=7, note=72, velocity=120, time=0),
    Message('note_on', channel=9, note=44, velocity=80, time=0),
    Message('note_on', channel=9, note=54, velocity=50, time=0),
    Message('note_on', channel=9, note=38, velocity=120, time=0),
    Message('note_on', channel=13, note=64, velocity=100, time=0),
    Message('note_on', channel=9, note=38, velocity=0, time=4),
    Message('note_on', channel=9, note=54, velocity=0, time=0),
    Message('note_on', channel=9, note=44, velocity=0, time=1),
    Message('note_on', channel=8, note=55, velocity=59, time=4),
    Message('note_on', channel=8, note=60, velocity=59, time=6),
    Message('note_on', channel=8, note=64, velocity=59, time=4),
    Message('note_on', channel=4, note=48, velocity=0, time=173),
    Message('note_on', channel=4, note=57, velocity=0, time=0),
    Message('note_on', channel=8, note=55, velocity=0, time=14),
    Message('note_on', channel=8, note=60, velocity=0, time=13),
    Message('note_on', channel=8, note=64, velocity=0, time=4),
    Message('note_on', channel=1, note=48, velocity=86, time=17),
    Message('note_on', channel=4, note=48, velocity=72, time=0),
    Message('note_on', channel=4, note=52, velocity=72, time=0),
    Message('note_on', channel=8, note=64, velocity=50, time=0),
    Message('note_on', channel=8, note=55, velocity=50, time=0),
    Message('note_on', channel=8, note=60, velocity=50, time=0),
    Message('note_on', channel=9, note=36, velocity=120, time=0),
    Message('note_on', channel=9, note=42, velocity=80, time=0),
    Message('note_on', channel=9, note=36, velocity=0, time=4),
    Message('note_on', channel=9, note=42, velocity=0, time=1),
    Message('note_on', channel=8, note=64, velocity=0, time=79),
    Message('note_on', channel=8, note=60, velocity=0, time=0),
    Message('control_change', channel=13, control=1, value=55, time=0),
    Message('note_on', channel=8, note=55, velocity=0, time=7),
    Message('note_on', channel=4, note=48, velocity=0, time=101),
    Message('note_on', channel=4, note=52, velocity=0, time=0),
    Message('note_on', channel=1, note=48, velocity=0, time=24),
    Message('note_on', channel=1, note=48, velocity=94, time=24),
    Message('note_on', channel=4, note=58, velocity=80, time=0),
    Message('note_on', channel=4, note=48, velocity=80, time=0),
    Message('note_on', channel=8, note=64, velocity=78, time=0),
    Message('note_on', channel=9, note=36, velocity=120, time=0),
    Message('note_on', channel=9, note=44, velocity=80, time=0),
    Message('note_on', channel=9, note=36, velocity=0, time=4),
    Message('note_on', channel=9, note=44, velocity=0, time=1),
    Message('note_on', channel=8, note=55, velocity=78, time=5),
    Message('note_on', channel=8, note=60, velocity=78, time=18),
    Message('control_change', channel=13, control=1, value=90, time=134),
    Message('note_on', channel=4, note=48, velocity=0, time=30),
    Message('note_on', channel=4, note=58, velocity=0, time=0),
    Message('note_on', channel=1, note=48, velocity=0, time=24),
    Message('note_on', channel=8, note=64, velocity=0, time=14),
    Message('note_on', channel=8, note=60, velocity=0, time=5),
    Message('note_on', channel=8, note=55, velocity=0, time=5),
    Message('note_on', channel=1, note=48, velocity=91, time=0),
    Message('note_on', channel=4, note=48, velocity=71, time=0),
    Message('note_on', channel=4, note=57, velocity=71, time=0),
    Message('note_on', channel=8, note=60, velocity=63, time=0),
    Message('note_on', channel=9, note=42, velocity=80, time=0),
    Message('note_on', channel=9, note=42, velocity=0, time=5),
    Message('note_on', channel=8, note=55, velocity=63, time=14),
    Message('note_on', channel=8, note=64, velocity=63, time=5),
    Message('note_on', channel=8, note=60, velocity=0, time=138),
    Message('note_on', channel=8, note=64, velocity=0, time=24),
    Message('note_on', channel=8, note=55, velocity=0, time=2),
    Message('note_on', channel=4, note=57, velocity=0, time=4),
    Message('note_on', channel=4, note=48, velocity=0, time=0),
    Message('note_on', channel=1, note=48, velocity=0, time=24),
    Message('note_on', channel=13, note=64, velocity=0, time=2),
    Message('note_on', channel=6, note=64, velocity=0, time=0),
    Message('note_on', channel=7, note=72, velocity=0, time=15),
    Message('note_on', channel=4, note=48, velocity=86, time=7),
    Message('note_on', channel=4, note=57, velocity=86, time=0),
    Message('note_on', channel=6, note=64, velocity=80, time=0),
    Message('note_on', channel=8, note=64, velocity=48, time=0),
    Message('note_on', channel=9, note=44, velocity=80, time=0),
    Message('note_on', channel=9, note=54, velocity=50, time=0),
    Message('note_on', channel=9, note=38, velocity=120, time=0),
    Message('control_change', channel=13, control=1, value=0, time=0),
    Message('note_on', channel=13, note=64, velocity=100, time=0),
    Message('note_on', channel=9, note=38, velocity=0, time=4),
    Message('note_on', channel=9, note=54, velocity=0, time=0),
    Message('note_on', channel=9, note=44, velocity=0, time=1),
    Message('note_on', channel=8, note=55, velocity=48, time=13),
    Message('note_on', channel=8, note=60, velocity=48, time=5),
    Message('note_on', channel=4, note=57, velocity=0, time=169),
    Message('note_on', channel=4, note=48, velocity=0, time=0),
    Message('note_on', channel=13, note=64, velocity=0, time=33),
    Message('note_on', channel=6, note=64, velocity=0, time=0),
    Message('note_on', channel=8, note=64, velocity=0, time=5),
    Message('note_on', channel=8, note=55, velocity=0, time=9),
    Message('note_on', channel=8, note=60, velocity=0, time=0),
    Message('note_on', channel=1, note=48, velocity=104, time=1),
    Message('note_on', channel=4, note=48, velocity=70, time=0),
    Message('note_on', channel=4, note=55, velocity=70, time=0),
    Message('note_on', channel=6, note=62, velocity=80, time=0),
    Message('note_on', channel=8, note=60, velocity=70, time=0),
    Message('note_on', channel=9, note=42, velocity=80, time=0),
    Message('note_on', channel=13, note=62, velocity=100, time=0),
    Message('note_on', channel=9, note=42, velocity=0, time=5),
    Message('note_on', channel=8, note=55, velocity=70, time=14),
    Message('note_on', channel=8, note=64, velocity=70, time=14),
    Message('note_on', channel=13, note=62, velocity=0, time=79),
    Message('note_on', channel=6, note=62, velocity=0, time=0),
    Message('note_on', channel=6, note=60, velocity=80, time=8),
    Message('note_on', channel=13, note=60, velocity=100, time=0),
    Message('note_on', channel=1, note=48, velocity=0, time=96),
    Message('note_on', channel=8, note=60, velocity=0, time=14),
    Message('note_on', channel=8, note=55, velocity=0, time=5),
    Message('note_on', channel=6, note=60, velocity=0, time=5),
    Message('note_on', channel=13, note=60, velocity=0, time=0),
    Message('note_on', channel=8, note=55, velocity=80, time=0),
    Message('note_on', channel=9, note=44, velocity=80, time=0),
    Message('note_on', channel=9, note=36, velocity=120, time=0),
    Message('note_on', channel=9, note=36, velocity=0, time=4),
    Message('note_on', channel=8, note=64, velocity=0, time=0),
    Message('note_on', channel=9, note=44, velocity=0, time=1),
    Message('note_on', channel=6, note=62, velocity=80, time=2),
    Message('note_on', channel=13, note=62, velocity=100, time=0),
    Message('note_on', channel=8, note=60, velocity=80, time=9),
    Message('note_on', channel=8, note=64, velocity=80, time=7),
    Message('note_on', channel=4, note=55, velocity=0, time=195),
    Message('note_on', channel=4, note=48, velocity=0, time=14),
    Message('note_on', channel=1, note=48, velocity=108, time=8),
    Message('note_on', channel=4, note=55, velocity=72, time=0),
    Message('note_on', channel=4, note=48, velocity=72, time=0),
    Message('note_on', channel=9, note=42, velocity=80, time=0),
    Message('note_on', channel=9, note=42, velocity=0, time=5),
    Message('note_on', channel=13, note=62, velocity=0, time=2),
    Message('note_on', channel=6, note=62, velocity=0, time=0),
    Message('note_on', channel=6, note=60, velocity=80, time=0),
    Message('note_on', channel=13, note=60, velocity=100, time=0),
    Message('note_on', channel=4, note=48, velocity=0, time=185),
    Message('note_on', channel=4, note=55, velocity=0, time=0),
    Message('note_on', channel=8, note=64, velocity=0, time=18),
    Message('note_on', channel=1, note=48, velocity=0, time=6),
    Message('note_on', channel=8, note=55, velocity=0, time=5),
    Message('note_on', channel=8, note=60, velocity=0, time=16),
    Message('note_on', channel=4, note=48, velocity=82, time=3),
    Message('note_on', channel=4, note=57, velocity=82, time=0),
    Message('note_on', channel=9, note=44, velocity=80, time=0),
    Message('note_on', channel=9, note=54, velocity=50, time=0),
    Message('note_on', channel=9, note=38, velocity=120, time=0),
    Message('note_on', channel=9, note=38, velocity=0, time=4),
    Message('note_on', channel=9, note=54, velocity=0, time=0),
    Message('note_on', channel=9, note=44, velocity=0, time=1),
    Message('note_on', channel=13, note=60, velocity=0, time=2),
    Message('note_on', channel=6, note=60, velocity=0, time=0),
    Message('note_on', channel=6, note=57, velocity=80, time=0),
    Message('note_on', channel=13, note=57, velocity=100, time=0),
    Message('note_on', channel=8, note=55, velocity=59, time=2),
    Message('note_on', channel=8, note=60, velocity=59, time=6),
    Message('note_on', channel=8, note=64, velocity=59, time=4),
    Message('note_on', channel=4, note=48, velocity=0, time=173),
    Message('note_on', channel=4, note=57, velocity=0, time=0),
    Message('note_on', channel=8, note=55, velocity=0, time=14),
    Message('note_on', channel=8, note=60, velocity=0, time=13),
    Message('note_on', channel=8, note=64, velocity=0, time=4),
    Message('note_on', channel=1, note=48, velocity=97, time=17),
    Message('note_on', channel=4, note=48, velocity=70, time=0),
    Message('note_on', channel=4, note=52, velocity=70, time=0),
    Message('note_on', channel=6, note=60, velocity=80, time=0),
    Message('note_on', channel=8, note=60, velocity=50, time=0),
    Message('note_on', channel=8, note=55, velocity=50, time=0),
    Message('note_on', channel=8, note=64, velocity=50, time=0),
    Message('note_on', channel=9, note=42, velocity=80, time=0),
    Message('note_on', channel=13, note=60, velocity=100, time=0),
    Message('note_on', channel=9, note=42, velocity=0, time=5),
    Message('note_on', channel=13, note=57, velocity=0, time=2),
    Message('note_on', channel=6, note=57, velocity=0, time=0),
    Message('note_on', channel=8, note=60, velocity=0, time=77),
    Message('note_on', channel=8, note=64, velocity=0, time=0),
    Message('note_on', channel=8, note=55, velocity=0, time=7),
    Message('note_on', channel=4, note=52, velocity=0, time=101),
    Message('note_on', channel=4, note=48, velocity=0, time=0),
    Message('note_on', channel=1, note=48, velocity=0, time=24),
    Message('note_on', channel=1, note=48, velocity=101, time=24),
    Message('note_on', channel=4, note=48, velocity=82, time=0),
    Message('note_on', channel=4, note=55, velocity=82, time=0),
    Message('note_on', channel=8, note=64, velocity=78, time=0),
    Message('note_on', channel=9, note=36, velocity=120, time=0),
    Message('note_on', channel=9, note=44, velocity=80, time=0),
    Message('note_on', channel=9, note=36, velocity=0, time=4),
    Message('note_on', channel=9, note=44, velocity=0, time=1),
    Message('note_on', channel=8, note=55, velocity=78, time=5),
    Message('note_on', channel=8, note=60, velocity=78, time=18),
    Message('control_change', channel=13, control=1, value=92, time=99),
    Message('note_on', channel=4, note=48, velocity=0, time=65),
    Message('note_on', channel=4, note=55, velocity=0, time=0),
    Message('note_on', channel=1, note=48, velocity=0, time=24),
    Message('note_on', channel=8, note=64, velocity=0, time=14),
    Message('note_on', channel=8, note=60, velocity=0, time=5),
    Message('note_on', channel=8, note=55, velocity=0, time=5),
    Message('note_on', channel=1, note=48, velocity=91, time=0),
    Message('note_on', channel=4, note=48, velocity=70, time=0),
    Message('note_on', channel=4, note=55, velocity=70, time=0),
    Message('note_on', channel=8, note=60, velocity=63, time=0),
    Message('note_on', channel=9, note=42, velocity=80, time=0),
    Message('note_on', channel=9, note=42, velocity=0, time=5),
    Message('note_on', channel=8, note=55, velocity=63, time=14),
    Message('note_on', channel=8, note=64, velocity=63, time=5),
    Message('note_on', channel=8, note=60, velocity=0, time=138),
    Message('note_on', channel=8, note=64, velocity=0, time=24),
    Message('note_on', channel=8, note=55, velocity=0, time=2),
    Message('note_on', channel=4, note=55, velocity=0, time=4),
    Message('note_on', channel=4, note=48, velocity=0, time=0),
    Message('note_on', channel=1, note=48, velocity=0, time=24),
    Message('control_change', channel=13, control=1, value=0, time=9),
    Message('note_on', channel=13, note=60, velocity=0, time=15),
    Message('note_on', channel=6, note=60, velocity=0, time=0),
    Message('note_on', channel=1, note=45, velocity=104, time=0),
    Message('note_on', channel=4, note=48, velocity=80, time=0),
    Message('note_on', channel=4, note=57, velocity=80, time=0),
    Message('note_on', channel=6, note=57, velocity=80, time=0),
    Message('note_on', channel=8, note=64, velocity=48, time=0),
    Message('note_on', channel=9, note=46, velocity=80, time=0),
    Message('note_on', channel=9, note=54, velocity=50, time=0),
    Message('note_on', channel=9, note=38, velocity=120, time=0),
    Message('note_on', channel=13, note=57, velocity=100, time=0),
    Message('note_on', channel=9, note=38, velocity=0, time=4),
    Message('note_on', channel=9, note=54, velocity=0, time=0),
    Message('note_on', channel=9, note=46, velocity=0, time=1),
    Message('note_on', channel=8, note=55, velocity=48, time=13),
    Message('note_on', channel=8, note=60, velocity=48, time=5),
    Message('note_on', channel=4, note=57, velocity=0, time=169),
    Message('note_on', channel=4, note=48, velocity=0, time=0),
    Message('note_on', channel=1, note=45, velocity=0, time=24),
    Message('note_on', channel=13, note=57, velocity=0, time=9),
    Message('note_on', channel=6, note=57, velocity=0, time=0),
    Message('note_on', channel=8, note=64, velocity=0, time=5),
    Message('pitchwheel', channel=6, pitch=-8192, time=2),
    Message('pitchwheel', channel=13, pitch=-8192, time=0),
    Message('note_on', channel=8, note=60, velocity=0, time=7),
    Message('note_on', channel=8, note=55, velocity=0, time=0),
    Message('note_on', channel=1, note=40, velocity=113, time=1),
    Message('note_on', channel=4, note=52, velocity=70, time=0),
    Message('note_on', channel=4, note=48, velocity=70, time=0),
    Message('note_on', channel=6, note=65, velocity=80, time=0),
    Message('note_on', channel=7, note=69, velocity=120, time=0),
    Message('note_on', channel=8, note=60, velocity=70, time=0),
    Message('note_on', channel=9, note=42, velocity=80, time=0),
    Message('note_on', channel=13, note=65, velocity=100, time=0),
    Message('note_on', channel=9, note=42, velocity=0, time=5),
    Message('note_on', channel=8, note=55, velocity=70, time=14),
    Message('note_on', channel=8, note=64, velocity=70, time=14),
    Message('pitchwheel', channel=6, pitch=-8192, time=9),
    Message('pitchwheel', channel=13, pitch=-8192, time=0),
    Message('pitchwheel', channel=6, pitch=-8064, time=7),
    Message('pitchwheel', channel=13, pitch=-8064, time=0),
    Message('pitchwheel', channel=6, pitch=-7680, time=7),
    Message('pitchwheel', channel=13, pitch=-7680, time=0),
    Message('pitchwheel', channel=6, pitch=-7424, time=7),
    Message('pitchwheel', channel=13, pitch=-7424, time=0),
    Message('pitchwheel', channel=6, pitch=-7040, time=7),
    Message('pitchwheel', channel=13, pitch=-7040, time=0),
    Message('pitchwheel', channel=6, pitch=-6784, time=7),
    Message('pitchwheel', channel=13, pitch=-6784, time=0),
    Message('pitchwheel', channel=6, pitch=-6400, time=7),
    Message('pitchwheel', channel=13, pitch=-6400, time=0),
    Message('pitchwheel', channel=6, pitch=-6144, time=7),
    Message('pitchwheel', channel=13, pitch=-6144, time=0),
    Message('pitchwheel', channel=6, pitch=-5760, time=7),
    Message('pitchwheel', channel=13, pitch=-5760, time=0),
    Message('pitchwheel', channel=6, pitch=-5504, time=7),
    Message('pitchwheel', channel=13, pitch=-5504, time=0),
    Message('pitchwheel', channel=6, pitch=-5120, time=7),
    Message('pitchwheel', channel=13, pitch=-5120, time=0),
    Message('pitchwheel', channel=6, pitch=-4864, time=8),
    Message('pitchwheel', channel=13, pitch=-4864, time=0),
    Message('pitchwheel', channel=6, pitch=-4480, time=7),
    Message('pitchwheel', channel=13, pitch=-4480, time=0),
    Message('pitchwheel', channel=6, pitch=-4224, time=7),
    Message('pitchwheel', channel=13, pitch=-4224, time=0),
    Message('pitchwheel', channel=6, pitch=-3840, time=7),
    Message('pitchwheel', channel=13, pitch=-3840, time=0),
    Message('pitchwheel', channel=6, pitch=-3584, time=7),
    Message('pitchwheel', channel=13, pitch=-3584, time=0),
    Message('pitchwheel', channel=6, pitch=-3200, time=7),
    Message('pitchwheel', channel=13, pitch=-3200, time=0),
    Message('pitchwheel', channel=6, pitch=-2944, time=7),
    Message('pitchwheel', channel=13, pitch=-2944, time=0),
    Message('pitchwheel', channel=6, pitch=-2560, time=7),
    Message('pitchwheel', channel=13, pitch=-2560, time=0),
    Message('pitchwheel', channel=6, pitch=-2304, time=7),
    Message('pitchwheel', channel=13, pitch=-2304, time=0),
    Message('pitchwheel', channel=6, pitch=-1920, time=7),
    Message('pitchwheel', channel=13, pitch=-1920, time=0),
    Message('pitchwheel', channel=6, pitch=-1664, time=7),
    Message('pitchwheel', channel=13, pitch=-1664, time=0),
    Message('note_on', channel=4, note=48, velocity=0, time=2),
    Message('note_on', channel=4, note=52, velocity=0, time=0),
    Message('pitchwheel', channel=6, pitch=-1280, time=5),
    Message('pitchwheel', channel=13, pitch=-1280, time=0),
    Message('pitchwheel', channel=6, pitch=-1024, time=7),
    Message('pitchwheel', channel=13, pitch=-1024, time=0),
    Message('pitchwheel', channel=6, pitch=-640, time=7),
    Message('pitchwheel', channel=13, pitch=-640, time=0),
    Message('note_on', channel=1, note=40, velocity=0, time=5),
    Message('pitchwheel', channel=6, pitch=-384, time=2),
    Message('pitchwheel', channel=13, pitch=-384, time=0),
    Message('pitchwheel', channel=6, pitch=0, time=7),
    Message('pitchwheel', channel=13, pitch=0, time=0),
    Message('note_on', channel=8, note=60, velocity=0, time=5),
    Message('note_on', channel=7, note=69, velocity=0, time=2),
    Message('note_on', channel=8, note=55, velocity=0, time=3),
    Message('note_on', channel=2, note=79, velocity=0, time=5),
    Message('note_on', channel=2, note=76, velocity=0, time=0),
    Message('note_on', channel=1, note=41, velocity=97, time=0),
    Message('note_on', channel=2, note=77, velocity=83, time=0),
    Message('note_on', channel=2, note=81, velocity=66, time=0),
    Message('note_on', channel=4, note=48, velocity=86, time=0),
    Message('note_on', channel=4, note=41, velocity=86, time=0),
    Message('note_on', channel=7, note=69, velocity=120, time=0),
    Message('note_on', channel=8, note=57, velocity=80, time=0),
    Message('note_on', channel=9, note=44, velocity=80, time=0),
    Message('note_on', channel=9, note=36, velocity=120, time=0),
    Message('note_on', channel=9, note=36, velocity=0, time=4),
    Message('note_on', channel=8, note=64, velocity=0, time=0),
    Message('note_on', channel=9, note=44, velocity=0, time=1),
    Message('note_on', channel=8, note=60, velocity=80, time=11),
    Message('note_on', channel=8, note=65, velocity=80, time=7),
    Message('note_on', channel=4, note=41, velocity=0, time=169),
    Message('note_on', channel=4, note=48, velocity=0, time=0),
    Message('note_on', channel=7, note=69, velocity=0, time=12),
    Message('note_on', channel=1, note=41, velocity=0, time=12),
    Message('note_on', channel=6, note=65, velocity=0, time=9),
    Message('note_on', channel=13, note=65, velocity=0, time=0),
    Message('note_on', channel=1, note=41, velocity=97, time=15),
    Message('note_on', channel=4, note=41, velocity=69, time=0),
    Message('note_on', channel=4, note=48, velocity=69, time=0),
    Message('note_on', channel=6, note=65, velocity=80, time=0),
    Message('note_on', channel=7, note=69, velocity=120, time=0),
    Message('note_on', channel=9, note=42, velocity=80, time=0),
    Message('note_on', channel=13, note=65, velocity=100, time=0),
    Message('note_on', channel=9, note=42, velocity=0, time=5),
    Message('note_on', channel=7, note=69, velocity=0, time=178),
    Message('note_on', channel=4, note=48, velocity=0, time=9),
    Message('note_on', channel=4, note=41, velocity=0, time=0),
    Message('note_on', channel=8, note=65, velocity=0, time=18),
    Message('note_on', channel=6, note=65, velocity=0, time=1),
    Message('note_on', channel=13, note=65, velocity=0, time=0),
    Message('note_on', channel=1, note=41, velocity=0, time=5),
    Message('note_on', channel=8, note=57, velocity=0, time=5),
    Message('note_on', channel=8, note=60, velocity=0, time=16),
    Message('note_on', channel=4, note=50, velocity=83, time=3),
    Message('note_on', channel=4, note=41, velocity=83, time=0),
    Message('note_on', channel=6, note=63, velocity=80, time=0),
    Message('note_on', channel=7, note=67, velocity=120, time=0),
    Message('note_on', channel=9, note=44, velocity=80, time=0),
    Message('note_on', channel=9, note=54, velocity=50, time=0),
    Message('note_on', channel=9, note=38, velocity=120, time=0),
    Message('note_on', channel=13, note=63, velocity=100, time=0),
    Message('note_on', channel=9, note=38, velocity=0, time=4),
    Message('note_on', channel=9, note=54, velocity=0, time=0),
    Message('note_on', channel=9, note=44, velocity=0, time=1),
    Message('note_on', channel=8, note=57, velocity=59, time=4),
    Message('note_on', channel=8, note=60, velocity=59, time=6),
    Message('note_on', channel=8, note=65, velocity=59, time=4),
    Message('note_on', channel=4, note=41, velocity=0, time=173),
    Message('note_on', channel=4, note=50, velocity=0, time=0),
    Message('note_on', channel=13, note=63, velocity=0, time=5),
    Message('note_on', channel=7, note=67, velocity=0, time=0),
    Message('note_on', channel=6, note=63, velocity=0, time=0),
    Message('note_on', channel=8, note=57, velocity=0, time=9),
    Message('note_on', channel=8, note=60, velocity=0, time=13),
    Message('note_on', channel=8, note=65, velocity=0, time=4),
    Message('note_on', channel=1, note=41, velocity=91, time=17),
    Message('note_on', channel=4, note=45, velocity=72, time=0),
    Message('note_on', channel=4, note=41, velocity=72, time=0),
    Message('note_on', channel=6, note=63, velocity=80, time=0),
    Message('note_on', channel=7, note=67, velocity=120, time=0),
    Message('note_on', channel=8, note=65, velocity=50, time=0),
    Message('note_on', channel=8, note=57, velocity=50, time=0),
    Message('note_on', channel=8, note=60, velocity=50, time=0),
    Message('note_on', channel=9, note=36, velocity=120, time=0),
    Message('note_on', channel=9, note=42, velocity=80, time=0),
    Message('note_on', channel=13, note=63, velocity=100, time=0),
    Message('note_on', channel=9, note=42, velocity=0, time=5),
    Message('note_on', channel=9, note=36, velocity=0, time=11),
    Message('note_on', channel=8, note=65, velocity=0, time=68),
    Message('note_on', channel=8, note=60, velocity=0, time=0),
    Message('note_on', channel=8, note=57, velocity=0, time=7),
    Message('note_on', channel=6, note=63, velocity=0, time=85),
    Message('note_on', channel=13, note=63, velocity=0, time=0),
    Message('note_on', channel=4, note=41, velocity=0, time=16),
    Message('note_on', channel=4, note=45, velocity=0, time=0),
    Message('note_on', channel=7, note=67, velocity=0, time=12),
    Message('note_on', channel=1, note=41, velocity=0, time=12),
    Message('note_on', channel=1, note=41, velocity=104, time=24),
    Message('note_on', channel=4, note=41, velocity=80, time=0),
    Message('note_on', channel=4, note=51, velocity=80, time=0),
    Message('note_on', channel=6, note=62, velocity=80, time=0),
    Message('note_on', channel=7, note=65, velocity=120, time=0),
    Message('note_on', channel=8, note=65, velocity=78, time=0),
    Message('note_on', channel=9, note=44, velocity=80, time=0),
    Message('note_on', channel=9, note=36, velocity=120, time=0),
    Message('note_on', channel=13, note=62, velocity=100, time=0),
    Message('note_on', channel=9, note=36, velocity=0, time=4),
    Message('note_on', channel=9, note=44, velocity=0, time=1),
    Message('note_on', channel=8, note=57, velocity=78, time=5),
    Message('note_on', channel=8, note=60, velocity=78, time=18),
    Message('note_on', channel=4, note=51, velocity=0, time=164),
    Message('note_on', channel=4, note=41, velocity=0, time=0),
    Message('note_on', channel=7, note=65, velocity=0, time=12),
    Message('note_on', channel=1, note=41, velocity=0, time=12),
    Message('note_on', channel=8, note=65, velocity=0, time=14),
    Message('note_on', channel=8, note=60, velocity=0, time=5),
    Message('note_on', channel=6, note=62, velocity=0, time=5),
    Message('note_on', channel=8, note=57, velocity=0, time=0),
    Message('note_on', channel=13, note=62, velocity=0, time=0),
    Message('note_on', channel=1, note=41, velocity=104, time=0),
    Message('note_on', channel=4, note=48, velocity=71, time=0),
    Message('note_on', channel=4, note=41, velocity=71, time=0),
    Message('note_on', channel=8, note=60, velocity=63, time=0),
    Message('note_on', channel=9, note=42, velocity=80, time=0),
    Message('note_on', channel=9, note=42, velocity=0, time=5),
    Message('note_on', channel=8, note=57, velocity=63, time=14),
    Message('note_on', channel=8, note=65, velocity=63, time=5),
    Message('note_on', channel=8, note=60, velocity=0, time=138),
    Message('note_on', channel=8, note=65, velocity=0, time=24),
    Message('note_on', channel=8, note=57, velocity=0, time=2),
    Message('note_on', channel=4, note=48, velocity=0, time=4),
    Message('note_on', channel=4, note=41, velocity=0, time=0),
    Message('note_on', channel=1, note=41, velocity=0, time=24),
    Message('note_on', channel=4, note=50, velocity=86, time=24),
    Message('note_on', channel=4, note=41, velocity=86, time=0),
    Message('note_on', channel=6, note=60, velocity=80, time=0),
    Message('note_on', channel=7, note=63, velocity=120, time=0),
    Message('note_on', channel=8, note=65, velocity=48, time=0),
    Message('note_on', channel=9, note=54, velocity=50, time=0),
    Message('note_on', channel=9, note=44, velocity=80, time=0),
    Message('note_on', channel=9, note=38, velocity=120, time=0),
    Message('note_on', channel=13, note=60, velocity=100, time=0),
    Message('note_on', channel=9, note=38, velocity=0, time=4),
    Message('note_on', channel=9, note=54, velocity=0, time=0),
    Message('note_on', channel=9, note=44, velocity=0, time=1),
    Message('note_on', channel=8, note=57, velocity=48, time=13),
    Message('note_on', channel=8, note=60, velocity=48, time=5),
    Message('note_on', channel=4, note=50, velocity=0, time=169),
    Message('note_on', channel=4, note=41, velocity=0, time=0),
    Message('note_on', channel=7, note=63, velocity=0, time=12),
    Message('note_on', channel=8, note=65, velocity=0, time=26),
    Message('note_on', channel=8, note=57, velocity=0, time=9),
    Message('note_on', channel=8, note=60, velocity=0, time=0),
    Message('note_on', channel=6, note=60, velocity=0, time=1),
    Message('note_on', channel=13, note=60, velocity=0, time=0),
    Message('note_on', channel=1, note=41, velocity=101, time=0),
    Message('note_on', channel=4, note=48, velocity=70, time=0),
    Message('note_on', channel=4, note=41, velocity=70, time=0),
    Message('note_on', channel=8, note=60, velocity=70, time=0),
    Message('note_on', channel=9, note=42, velocity=80, time=0),
    Message('note_on', channel=9, note=42, velocity=0, time=5),
    Message('note_on', channel=8, note=57, velocity=70, time=14),
    Message('note_on', channel=8, note=65, velocity=70, time=14),
    Message('note_on', channel=1, note=41, velocity=0, time=183),
    Message('note_on', channel=8, note=60, velocity=0, time=14),
    Message('note_on', channel=8, note=57, velocity=0, time=5),
    Message('note_on', channel=6, note=57, velocity=80, time=5),
    Message('note_on', channel=7, note=60, velocity=120, time=0),
    Message('note_on', channel=8, note=57, velocity=80, time=0),
    Message('note_on', channel=9, note=36, velocity=120, time=0),
    Message('note_on', channel=9, note=44, velocity=80, time=0),
    Message('note_on', channel=13, note=57, velocity=100, time=0),
    Message('note_on', channel=9, note=36, velocity=0, time=4),
    Message('note_on', channel=8, note=65, velocity=0, time=0),
    Message('note_on', channel=9, note=44, velocity=0, time=1),
    Message('note_on', channel=8, note=60, velocity=80, time=11),
    Message('note_on', channel=8, note=65, velocity=80, time=7),
    Message('note_on', channel=4, note=41, velocity=0, time=125),
    Message('note_on', channel=4, note=48, velocity=0, time=4),
    Message('note_on', channel=7, note=60, velocity=0, time=52),
    Message('note_on', channel=13, note=57, velocity=0, time=36),
    Message('note_on', channel=6, note=57, velocity=0, time=0),
    Message('note_on', channel=1, note=41, velocity=113, time=0),
    Message('note_on', channel=4, note=41, velocity=72, time=0),
    Message('note_on', channel=4, note=48, velocity=72, time=0),
    Message('note_on', channel=9, note=42, velocity=80, time=0),
    Message('note_on', channel=9, note=42, velocity=0, time=5),
    Message('note_on', channel=4, note=48, velocity=0, time=187),
    Message('note_on', channel=4, note=41, velocity=0, time=0),
    Message('note_on', channel=8, note=65, velocity=0, time=18),
    Message('note_on', channel=1, note=41, velocity=0, time=6),
    Message('note_on', channel=8, note=57, velocity=0, time=5),
    Message('note_on', channel=8, note=60, velocity=0, time=16),
    Message('note_on', channel=4, note=41, velocity=82, time=3),
    Message('note_on', channel=4, note=50, velocity=82, time=0),
    Message('note_on', channel=6, note=56, velocity=80, time=0),
    Message('note_on', channel=9, note=54, velocity=50, time=0),
    Message('note_on', channel=9, note=44, velocity=80, time=0),
    Message('note_on', channel=9, note=38, velocity=120, time=0),
    Message('note_on', channel=13, note=56, velocity=100, time=0),
    Message('note_on', channel=9, note=38, velocity=0, time=4),
    Message('note_on', channel=9, note=54, velocity=0, time=0),
    Message('note_on', channel=9, note=44, velocity=0, time=1),
    Message('note_on', channel=8, note=57, velocity=59, time=4),
    Message('note_on', channel=8, note=60, velocity=59, time=6),
    Message('note_on', channel=8, note=65, velocity=59, time=4),
    Message('note_on', channel=4, note=41, velocity=0, time=173),
    Message('note_on', channel=4, note=50, velocity=0, time=0),
    Message('note_on', channel=8, note=57, velocity=0, time=14),
    Message('note_on', channel=8, note=60, velocity=0, time=13),
    Message('note_on', channel=8, note=65, velocity=0, time=4),
    Message('note_on', channel=13, note=56, velocity=0, time=17),
    Message('note_on', channel=6, note=56, velocity=0, time=0),
    Message('note_on', channel=1, note=41, velocity=108, time=0),
    Message('note_on', channel=4, note=45, velocity=70, time=0),
    Message('note_on', channel=4, note=41, velocity=70, time=0),
    Message('note_on', channel=6, note=57, velocity=80, time=0),
    Message('note_on', channel=8, note=57, velocity=50, time=0),
    Message('note_on', channel=8, note=60, velocity=50, time=0),
    Message('note_on', channel=8, note=65, velocity=50, time=0),
    Message('note_on', channel=9, note=42, velocity=80, time=0),
    Message('note_on', channel=13, note=57, velocity=100, time=0),
    Message('note_on', channel=9, note=42, velocity=0, time=5),
    Message('note_on', channel=8, note=65, velocity=0, time=79),
    Message('note_on', channel=8, note=60, velocity=0, time=0),
    Message('note_on', channel=8, note=57, velocity=0, time=7),
    Message('note_on', channel=4, note=41, velocity=0, time=101),
    Message('note_on', channel=4, note=45, velocity=0, time=0),
    Message('note_on', channel=1, note=41, velocity=0, time=24),
    Message('note_on', channel=6, note=57, velocity=0, time=24),
    Message('note_on', channel=13, note=57, velocity=0, time=0),
    Message('note_on', channel=1, note=43, velocity=104, time=0),
    Message('note_on', channel=4, note=41, velocity=82, time=0),
    Message('note_on', channel=4, note=48, velocity=82, time=0),
    Message('note_on', channel=6, note=53, velocity=80, time=0),
    Message('note_on', channel=8, note=65, velocity=78, time=0),
    Message('note_on', channel=9, note=36, velocity=120, time=0),
    Message('note_on', channel=9, note=44, velocity=80, time=0),
    Message('note_on', channel=13, note=53, velocity=100, time=0),
    Message('note_on', channel=9, note=36, velocity=0, time=4),
    Message('note_on', channel=9, note=44, velocity=0, time=1),
    Message('note_on', channel=8, note=57, velocity=78, time=5),
    Message('note_on', channel=8, note=60, velocity=78, time=18),
    Message('note_on', channel=4, note=48, velocity=0, time=164),
    Message('note_on', channel=4, note=41, velocity=0, time=0),
    Message('note_on', channel=1, note=43, velocity=0, time=24),
    Message('note_on', channel=8, note=65, velocity=0, time=14),
    Message('note_on', channel=8, note=60, velocity=0, time=5),
    Message('note_on', channel=6, note=53, velocity=0, time=5),
    Message('note_on', channel=13, note=53, velocity=0, time=0),
    Message('note_on', channel=8, note=57, velocity=0, time=0),
    Message('note_on', channel=1, note=43, velocity=91, time=0),
    Message('note_on', channel=4, note=48, velocity=70, time=0),
    Message('note_on', channel=4, note=41, velocity=70, time=0),
    Message('note_on', channel=6, note=48, velocity=80, time=0),
    Message('note_on', channel=8, note=60, velocity=63, time=0),
    Message('note_on', channel=9, note=36, velocity=120, time=0),
    Message('note_on', channel=9, note=42, velocity=80, time=0),
    Message('note_on', channel=13, note=48, velocity=100, time=0),
    Message('note_on', channel=9, note=36, velocity=0, time=4),
    Message('note_on', channel=9, note=42, velocity=0, time=1),
    Message('note_on', channel=8, note=57, velocity=63, time=14),
    Message('note_on', channel=8, note=65, velocity=63, time=5),
    Message('note_on', channel=8, note=60, velocity=0, time=138),
    Message('note_on', channel=8, note=65, velocity=0, time=24),
    Message('note_on', channel=8, note=57, velocity=0, time=2),
    Message('note_on', channel=4, note=41, velocity=0, time=4),
    Message('note_on', channel=4, note=48, velocity=0, time=0),
    Message('note_on', channel=1, note=43, velocity=0, time=24),
    Message('note_on', channel=13, note=48, velocity=0, time=24),
    Message('note_on', channel=6, note=48, velocity=0, time=0),
    Message('note_on', channel=1, note=45, velocity=83, time=0),
    Message('note_on', channel=4, note=50, velocity=80, time=0),
    Message('note_on', channel=4, note=41, velocity=80, time=0),
    Message('note_on', channel=6, note=50, velocity=80, time=0),
    Message('note_on', channel=8, note=65, velocity=48, time=0),
    Message('note_on', channel=9, note=46, velocity=80, time=0),
    Message('note_on', channel=9, note=54, velocity=50, time=0),
    Message('note_on', channel=9, note=38, velocity=120, time=0),
    Message('note_on', channel=13, note=50, velocity=100, time=0),
    Message('note_on', channel=9, note=38, velocity=0, time=4),
    Message('note_on', channel=9, note=54, velocity=0, time=0),
    Message('note_on', channel=9, note=46, velocity=0, time=1),
    Message('note_on', channel=8, note=57, velocity=48, time=13),
    Message('note_on', channel=8, note=60, velocity=48, time=5),
    Message('note_on', channel=4, note=41, velocity=0, time=169),
    Message('note_on', channel=4, note=50, velocity=0, time=0),
    Message('note_on', channel=1, note=45, velocity=0, time=24),
    Message('note_on', channel=8, note=65, velocity=0, time=14),
    Message('note_on', channel=8, note=60, velocity=0, time=9),
    Message('note_on', channel=8, note=57, velocity=0, time=0),
    Message('note_on', channel=13, note=50, velocity=0, time=1),
    Message('note_on', channel=6, note=50, velocity=0, time=0),
    Message('note_on', channel=1, note=45, velocity=86, time=0),
    Message('note_on', channel=4, note=45, velocity=70, time=0),
    Message('note_on', channel=4, note=41, velocity=70, time=0),
    Message('note_on', channel=6, note=48, velocity=80, time=0),
    Message('note_on', channel=8, note=60, velocity=70, time=0),
    Message('note_on', channel=9, note=42, velocity=80, time=0),
    Message('note_on', channel=13, note=48, velocity=100, time=0),
    Message('note_on', channel=9, note=42, velocity=0, time=5),
    Message('note_on', channel=8, note=57, velocity=70, time=14),
    Message('note_on', channel=8, note=65, velocity=70, time=14),
    Message('note_on', channel=4, note=41, velocity=0, time=159),
    Message('note_on', channel=4, note=45, velocity=0, time=0),
    Message('note_on', channel=1, note=45, velocity=0, time=24),
    Message('note_on', channel=13, note=48, velocity=0, time=9),
    Message('note_on', channel=6, note=48, velocity=0, time=0),
    Message('note_on', channel=8, note=60, velocity=0, time=5),
    Message('note_on', channel=8, note=57, velocity=0, time=5),
    Message('note_on', channel=2, note=81, velocity=0, time=5),
    Message('note_on', channel=2, note=77, velocity=0, time=0),
    Message('note_on', channel=1, note=48, velocity=104, time=0),
    Message('note_on', channel=2, note=76, velocity=50, time=0),
    Message('note_on', channel=2, note=79, velocity=62, time=0),
    Message('note_on', channel=4, note=55, velocity=86, time=0),
    Message('note_on', channel=4, note=48, velocity=86, time=0),
    Message('pitchwheel', channel=6, pitch=-4224, time=0),
    Message('note_on', channel=6, note=52, velocity=80, time=0),
    Message('note_on', channel=9, note=36, velocity=120, time=0),
    Message('note_on', channel=9, note=57, velocity=80, time=0),
    Message('pitchwheel', channel=13, pitch=-4224, time=0),
    Message('note_on', channel=13, note=52, velocity=100, time=0),
    Message('note_on', channel=9, note=36, velocity=0, time=4),
    Message('note_on', channel=8, note=65, velocity=0, time=0),
    Message('note_on', channel=9, note=57, velocity=0, time=1),
    Message('pitchwheel', channel=6, pitch=-3840, time=2),
    Message('pitchwheel', channel=13, pitch=-3840, time=0),
    Message('pitchwheel', channel=6, pitch=-3456, time=7),
    Message('pitchwheel', channel=13, pitch=-3456, time=0),
    Message('pitchwheel', channel=6, pitch=-3072, time=7),
    Message('pitchwheel', channel=13, pitch=-3072, time=0),
    Message('pitchwheel', channel=6, pitch=-2688, time=7),
    Message('pitchwheel', channel=13, pitch=-2688, time=0),
    Message('pitchwheel', channel=6, pitch=-2304, time=7),
    Message('pitchwheel', channel=13, pitch=-2304, time=0),
    Message('pitchwheel', channel=6, pitch=-1920, time=7),
    Message('pitchwheel', channel=13, pitch=-1920, time=0),
    Message('pitchwheel', channel=6, pitch=-1536, time=7),
    Message('pitchwheel', channel=13, pitch=-1536, time=0),
    Message('pitchwheel', channel=6, pitch=-1152, time=7),
    Message('pitchwheel', channel=13, pitch=-1152, time=0),
    Message('pitchwheel', channel=6, pitch=-768, time=7),
    Message('pitchwheel', channel=13, pitch=-768, time=0),
    Message('pitchwheel', channel=6, pitch=-384, time=7),
    Message('pitchwheel', channel=13, pitch=-384, time=0),
    Message('pitchwheel', channel=6, pitch=0, time=7),
    Message('pitchwheel', channel=13, pitch=0, time=0),
    Message('note_on', channel=4, note=48, velocity=0, time=115),
    Message('note_on', channel=4, note=55, velocity=0, time=0),
    Message('note_on', channel=1, note=48, velocity=0, time=24),
    Message('note_on', channel=6, note=52, velocity=0, time=24),
    Message('note_on', channel=13, note=52, velocity=0, time=0),
    Message('note_on', channel=1, note=48, velocity=91, time=0),
    Message('note_on', channel=4, note=55, velocity=69, time=0),
    Message('note_on', channel=4, note=48, velocity=69, time=0),
    Message('note_on', channel=6, note=55, velocity=80, time=0),
    Message('note_on', channel=9, note=42, velocity=80, time=0),
    Message('note_on', channel=13, note=55, velocity=100, time=0),
    Message('note_on', channel=9, note=42, velocity=0, time=5),
    Message('note_on', channel=4, note=48, velocity=0, time=187),
    Message('note_on', channel=4, note=55, velocity=0, time=0),
    Message('note_on', channel=1, note=48, velocity=0, time=24),
    Message('note_on', channel=13, note=55, velocity=0, time=24),
    Message('note_on', channel=6, note=55, velocity=0, time=0),
    Message('note_on', channel=4, note=57, velocity=83, time=0),
    Message('note_on', channel=4, note=48, velocity=83, time=0),
    Message('note_on', channel=6, note=57, velocity=80, time=0),
    Message('note_on', channel=9, note=54, velocity=50, time=0),
    Message('note_on', channel=9, note=44, velocity=80, time=0),
    Message('note_on', channel=9, note=38, velocity=120, time=0),
    Message('note_on', channel=13, note=57, velocity=100, time=0),
    Message('note_on', channel=9, note=38, velocity=0, time=4),
    Message('note_on', channel=9, note=54, velocity=0, time=0),
    Message('note_on', channel=9, note=44, velocity=0, time=1),
    Message('note_on', channel=4, note=57, velocity=0, time=187),
    Message('note_on', channel=4, note=48, velocity=0, time=0),
    Message('note_on', channel=13, note=57, velocity=0, time=48),
    Message('note_on', channel=6, note=57, velocity=0, time=0),
    Message('note_on', channel=1, note=48, velocity=104, time=0),
    Message('note_on', channel=4, note=48, velocity=72, time=0),
    Message('note_on', channel=4, note=52, velocity=72, time=0),
    Message('note_on', channel=6, note=60, velocity=80, time=0),
    Message('note_on', channel=9, note=42, velocity=80, time=0),
    Message('note_on', channel=9, note=36, velocity=120, time=0),
    Message('note_on', channel=13, note=60, velocity=100, time=0),
    Message('note_on', channel=9, note=42, velocity=0, time=5),
    Message('note_on', channel=9, note=36, velocity=0, time=11),
    Message('note_on', channel=4, note=52, velocity=0, time=176),
    Message('note_on', channel=4, note=48, velocity=0, time=0),
    Message('note_on', channel=1, note=48, velocity=0, time=24),
    Message('note_on', channel=2, note=76, velocity=0, time=24),
    Message('note_on', channel=2, note=79, velocity=0, time=0),
    Message('note_on', channel=1, note=41, velocity=104, time=0),
    Message('note_on', channel=2, note=77, velocity=75, time=0),
    Message('note_on', channel=2, note=81, velocity=73, time=0),
    Message('note_on', channel=4, note=41, velocity=80, time=0),
    Message('note_on', channel=4, note=48, velocity=80, time=0),
    Message('note_on', channel=9, note=36, velocity=120, time=0),
    Message('note_on', channel=9, note=49, velocity=80, time=0),
    Message('note_on', channel=9, note=36, velocity=0, time=4),
    Message('note_on', channel=9, note=49, velocity=0, time=1),
    Message('control_change', channel=13, control=1, value=94, time=2),
    Message('note_on', channel=4, note=41, velocity=0, time=185),
    Message('note_on', channel=4, note=48, velocity=0, time=0),
    Message('control_change', channel=13, control=1, value=0, time=19),
    Message('note_on', channel=1, note=41, velocity=0, time=5),
    Message('note_on', channel=6, note=60, velocity=0, time=2),
    Message('note_on', channel=13, note=60, velocity=0, time=0),
    Message('note_on', channel=6, note=60, velocity=80, time=7),
    Message('note_on', channel=13, note=60, velocity=100, time=0),
    Message('note_on', channel=1, note=41, velocity=94, time=15),
    Message('note_on', channel=4, note=48, velocity=71, time=0),
    Message('note_on', channel=4, note=41, velocity=71, time=0),
    Message('note_on', channel=9, note=42, velocity=80, time=0),
    Message('note_on', channel=9, note=42, velocity=0, time=5),
    Message('note_on', channel=4, note=41, velocity=0, time=187),
    Message('note_on', channel=4, note=48, velocity=0, time=0),
    Message('note_on', channel=1, note=41, velocity=0, time=24),
    Message('note_on', channel=6, note=60, velocity=0, time=9),
    Message('note_on', channel=13, note=60, velocity=0, time=0),
    Message('note_on', channel=4, note=50, velocity=86, time=15),
    Message('note_on', channel=4, note=41, velocity=86, time=0),
    Message('pitchwheel', channel=6, pitch=-8192, time=0),
    Message('note_on', channel=6, note=64, velocity=80, time=0),
    Message('note_on', channel=9, note=44, velocity=80, time=0),
    Message('note_on', channel=9, note=54, velocity=50, time=0),
    Message('note_on', channel=9, note=38, velocity=120, time=0),
    Message('pitchwheel', channel=13, pitch=-8192, time=0),
    Message('note_on', channel=13, note=64, velocity=100, time=0),
    Message('note_on', channel=9, note=38, velocity=0, time=4),
    Message('note_on', channel=9, note=54, velocity=0, time=0),
    Message('note_on', channel=9, note=44, velocity=0, time=1),
    Message('pitchwheel', channel=6, pitch=-7936, time=2),
    Message('pitchwheel', channel=13, pitch=-7936, time=0),
    Message('pitchwheel', channel=6, pitch=-7424, time=7),
    Message('pitchwheel', channel=13, pitch=-7424, time=0),
    Message('pitchwheel', channel=6, pitch=-6912, time=7),
    Message('pitchwheel', channel=13, pitch=-6912, time=0),
    Message('pitchwheel', channel=6, pitch=-6400, time=7),
    Message('pitchwheel', channel=13, pitch=-6400, time=0),
    Message('pitchwheel', channel=6, pitch=-5888, time=7),
    Message('pitchwheel', channel=13, pitch=-5888, time=0),
    Message('pitchwheel', channel=6, pitch=-5504, time=7),
    Message('pitchwheel', channel=13, pitch=-5504, time=0),
    Message('pitchwheel', channel=6, pitch=-4992, time=7),
    Message('pitchwheel', channel=13, pitch=-4992, time=0),
    Message('pitchwheel', channel=6, pitch=-4480, time=7),
    Message('pitchwheel', channel=13, pitch=-4480, time=0),
    Message('pitchwheel', channel=6, pitch=-3968, time=7),
    Message('pitchwheel', channel=13, pitch=-3968, time=0),
    Message('pitchwheel', channel=6, pitch=-3456, time=7),
    Message('pitchwheel', channel=13, pitch=-3456, time=0),
    Message('pitchwheel', channel=6, pitch=-2944, time=7),
    Message('pitchwheel', channel=13, pitch=-2944, time=0),
    Message('pitchwheel', channel=6, pitch=-2560, time=7),
    Message('pitchwheel', channel=13, pitch=-2560, time=0),
    Message('pitchwheel', channel=6, pitch=-2048, time=7),
    Message('pitchwheel', channel=13, pitch=-2048, time=0),
    Message('pitchwheel', channel=6, pitch=-1536, time=7),
    Message('pitchwheel', channel=13, pitch=-1536, time=0),
    Message('pitchwheel', channel=6, pitch=-1024, time=7),
    Message('pitchwheel', channel=13, pitch=-1024, time=0),
    Message('pitchwheel', channel=6, pitch=-512, time=7),
    Message('pitchwheel', channel=13, pitch=-512, time=0),
    Message('pitchwheel', channel=6, pitch=0, time=8),
    Message('pitchwheel', channel=13, pitch=0, time=0),
    Message('note_on', channel=4, note=50, velocity=0, time=72),
    Message('note_on', channel=4, note=41, velocity=0, time=0),
    Message('note_on', channel=13, note=64, velocity=0, time=48),
    Message('note_on', channel=6, note=64, velocity=0, time=0),
    Message('note_on', channel=1, note=41, velocity=97, time=0),
    Message('note_on', channel=4, note=48, velocity=70, time=0),
    Message('note_on', channel=4, note=41, velocity=70, time=0),
    Message('note_on', channel=6, note=67, velocity=80, time=0),
    Message('note_on', channel=9, note=36, velocity=120, time=0),
    Message('note_on', channel=9, note=42, velocity=80, time=0),
    Message('note_on', channel=13, note=67, velocity=100, time=0),
    Message('note_on', channel=9, note=36, velocity=0, time=4),
    Message('note_on', channel=9, note=42, velocity=0, time=1),
    Message('note_on', channel=1, note=41, velocity=0, time=211),
    Message('note_on', channel=2, note=77, velocity=0, time=24),
    Message('note_on', channel=2, note=81, velocity=0, time=0),
    Message('note_on', channel=13, note=67, velocity=0, time=0),
    Message('note_on', channel=6, note=67, velocity=0, time=0),
    Message('note_on', channel=1, note=48, velocity=108, time=0),
    Message('note_on', channel=2, note=76, velocity=66, time=0),
    Message('note_on', channel=2, note=79, velocity=63, time=0),
    Message('note_on', channel=6, note=69, velocity=80, time=0),
    Message('note_on', channel=8, note=55, velocity=80, time=0),
    Message('note_on', channel=9, note=36, velocity=120, time=0),
    Message('note_on', channel=9, note=57, velocity=80, time=0),
    Message('note_on', channel=13, note=69, velocity=100, time=0),
    Message('note_on', channel=9, note=36, velocity=0, time=4),
    Message('note_on', channel=9, note=57, velocity=0, time=1),
    Message('note_on', channel=8, note=60, velocity=80, time=11),
    Message('note_on', channel=8, note=64, velocity=80, time=7),
    Message('note_on', channel=4, note=48, velocity=0, time=132),
    Message('note_on', channel=4, note=41, velocity=0, time=7),
    Message('note_on', channel=1, note=48, velocity=0, time=54),
    Message('note_on', channel=13, note=69, velocity=0, time=24),
    Message('note_on', channel=6, note=69, velocity=0, time=0),
    Message('note_on', channel=1, note=48, velocity=101, time=0),
    Message('note_on', channel=4, note=48, velocity=72, time=0),
    Message('note_on', channel=4, note=55, velocity=72, time=0),
    Message('note_on', channel=6, note=67, velocity=80, time=0),
    Message('note_on', channel=9, note=42, velocity=80, time=0),
    Message('note_on', channel=13, note=67, velocity=100, time=0),
    Message('note_on', channel=9, note=42, velocity=0, time=5),
    Message('note_on', channel=4, note=55, velocity=0, time=187),
    Message('note_on', channel=4, note=48, velocity=0, time=0),
    Message('note_on', channel=8, note=64, velocity=0, time=18),
    Message('note_on', channel=1, note=48, velocity=0, time=6),
    Message('note_on', channel=6, note=67, velocity=0, time=2),
    Message('note_on', channel=13, note=67, velocity=0, time=0),
    Message('note_on', channel=8, note=55, velocity=0, time=3),
    Message('pitchwheel', channel=6, pitch=-8192, time=11),
    Message('pitchwheel', channel=13, pitch=-8192, time=0),
    Message('note_on', channel=8, note=60, velocity=0, time=5),
    Message('note_on', channel=4, note=57, velocity=82, time=3),
    Message('note_on', channel=4, note=48, velocity=82, time=0),
    Message('pitchwheel', channel=6, pitch=-7936, time=0),
    Message('note_on', channel=6, note=76, velocity=80, time=0),
    Message('note_on', channel=9, note=54, velocity=50, time=0),
    Message('note_on', channel=9, note=44, velocity=80, time=0),
    Message('note_on', channel=9, note=38, velocity=120, time=0),
    Message('pitchwheel', channel=13, pitch=-7936, time=0),
    Message('note_on', channel=13, note=76, velocity=100, time=0),
    Message('note_on', channel=9, note=38, velocity=0, time=4),
    Message('note_on', channel=9, note=54, velocity=0, time=0),
    Message('note_on', channel=9, note=44, velocity=0, time=1),
    Message('pitchwheel', channel=6, pitch=-7296, time=2),
    Message('pitchwheel', channel=13, pitch=-7296, time=0),
    Message('note_on', channel=8, note=55, velocity=59, time=2),
    Message('pitchwheel', channel=6, pitch=-6656, time=5),
    Message('pitchwheel', channel=13, pitch=-6656, time=0),
    Message('note_on', channel=8, note=60, velocity=59, time=1),
    Message('note_on', channel=8, note=64, velocity=59, time=4),
    Message('pitchwheel', channel=6, pitch=-6144, time=2),
    Message('pitchwheel', channel=13, pitch=-6144, time=0),
    Message('pitchwheel', channel=6, pitch=-5504, time=7),
    Message('pitchwheel', channel=13, pitch=-5504, time=0),
    Message('pitchwheel', channel=6, pitch=-4864, time=7),
    Message('pitchwheel', channel=13, pitch=-4864, time=0),
    Message('pitchwheel', channel=6, pitch=-4224, time=7),
    Message('pitchwheel', channel=13, pitch=-4224, time=0),
    Message('pitchwheel', channel=6, pitch=-3712, time=7),
    Message('pitchwheel', channel=13, pitch=-3712, time=0),
    Message('pitchwheel', channel=6, pitch=-3072, time=7),
    Message('pitchwheel', channel=13, pitch=-3072, time=0),
    Message('pitchwheel', channel=6, pitch=-2432, time=7),
    Message('pitchwheel', channel=13, pitch=-2432, time=0),
    Message('pitchwheel', channel=6, pitch=-1920, time=7),
    Message('pitchwheel', channel=13, pitch=-1920, time=0),
    Message('pitchwheel', channel=6, pitch=-1280, time=7),
    Message('pitchwheel', channel=13, pitch=-1280, time=0),
    Message('pitchwheel', channel=6, pitch=-640, time=7),
    Message('pitchwheel', channel=13, pitch=-640, time=0),
    Message('pitchwheel', channel=6, pitch=0, time=7),
    Message('pitchwheel', channel=13, pitch=0, time=0),
    Message('note_on', channel=4, note=57, velocity=0, time=101),
    Message('note_on', channel=4, note=48, velocity=0, time=0),
    Message('note_on', channel=8, note=55, velocity=0, time=14),
    Message('note_on', channel=8, note=60, velocity=0, time=13),
    Message('note_on', channel=8, note=64, velocity=0, time=4),
    Message('note_on', channel=13, note=76, velocity=0, time=17),
    Message('note_on', channel=6, note=76, velocity=0, time=0),
    Message('note_on', channel=1, note=48, velocity=108, time=0),
    Message('note_on', channel=4, note=52, velocity=70, time=0),
    Message('note_on', channel=4, note=48, velocity=70, time=0),
    Message('note_on', channel=6, note=72, velocity=80, time=0),
    Message('note_on', channel=8, note=60, velocity=50, time=0),
    Message('note_on', channel=8, note=55, velocity=50, time=0),
    Message('note_on', channel=8, note=64, velocity=50, time=0),
    Message('note_on', channel=9, note=42, velocity=80, time=0),
    Message('note_on', channel=9, note=36, velocity=120, time=0),
    Message('note_on', channel=13, note=72, velocity=100, time=0),
    Message('note_on', channel=9, note=36, velocity=0, time=4),
    Message('note_on', channel=9, note=42, velocity=0, time=1),
    Message('note_on', channel=8, note=64, velocity=0, time=79),
    Message('note_on', channel=8, note=60, velocity=0, time=0),
    Message('note_on', channel=8, note=55, velocity=0, time=7),
    Message('note_on', channel=4, note=48, velocity=0, time=101),
    Message('note_on', channel=4, note=52, velocity=0, time=0),
    Message('note_on', channel=1, note=48, velocity=0, time=24),
    Message('note_on', channel=1, note=48, velocity=108, time=24),
    Message('note_on', channel=4, note=48, velocity=82, time=0),
    Message('note_on', channel=4, note=55, velocity=82, time=0),
    Message('note_on', channel=8, note=64, velocity=78, time=0),
    Message('note_on', channel=9, note=44, velocity=80, time=0),
    Message('note_on', channel=9, note=36, velocity=120, time=0),
    Message('note_on', channel=9, note=36, velocity=0, time=4),
    Message('note_on', channel=9, note=44, velocity=0, time=1),
    Message('note_on', channel=8, note=55, velocity=78, time=5),
    Message('note_on', channel=8, note=60, velocity=78, time=18),
    Message('control_change', channel=13, control=1, value=71, time=28),
    Message('note_on', channel=4, note=48, velocity=0, time=136),
    Message('note_on', channel=4, note=55, velocity=0, time=0),
    Message('note_on', channel=1, note=48, velocity=0, time=24),
    Message('note_on', channel=8, note=64, velocity=0, time=14),
    Message('note_on', channel=8, note=60, velocity=0, time=5),
    Message('note_on', channel=8, note=55, velocity=0, time=5),
    Message('note_on', channel=1, note=48, velocity=83, time=0),
    Message('note_on', channel=4, note=48, velocity=70, time=0),
    Message('note_on', channel=4, note=55, velocity=70, time=0),
    Message('note_on', channel=8, note=60, velocity=63, time=0),
    Message('note_on', channel=9, note=42, velocity=80, time=0),
    Message('note_on', channel=9, note=42, velocity=0, time=5),
    Message('note_on', channel=8, note=55, velocity=63, time=14),
    Message('note_on', channel=8, note=64, velocity=63, time=5),
    Message('control_change', channel=13, control=1, value=96, time=4),
    Message('note_on', channel=8, note=60, velocity=0, time=134),
    Message('note_on', channel=8, note=64, velocity=0, time=24),
    Message('note_on', channel=8, note=55, velocity=0, time=2),
    Message('note_on', channel=4, note=55, velocity=0, time=4),
    Message('note_on', channel=4, note=48, velocity=0, time=0),
    Message('note_on', channel=1, note=48, velocity=0, time=24),
    Message('note_on', channel=1, note=43, velocity=113, time=24),
    Message('note_on', channel=4, note=57, velocity=80, time=0),
    Message('note_on', channel=4, note=48, velocity=80, time=0),
    Message('note_on', channel=8, note=64, velocity=48, time=0),
    Message('note_on', channel=9, note=54, velocity=50, time=0),
    Message('note_on', channel=9, note=46, velocity=80, time=0),
    Message('note_on', channel=9, note=38, velocity=120, time=0),
    Message('note_on', channel=9, note=38, velocity=0, time=4),
    Message('note_on', channel=9, note=54, velocity=0, time=0),
    Message('note_on', channel=9, note=46, velocity=0, time=1),
    Message('note_on', channel=8, note=55, velocity=48, time=13),
    Message('note_on', channel=8, note=60, velocity=48, time=5),
    Message('control_change', channel=13, control=1, value=0, time=82),
    Message('note_on', channel=13, note=72, velocity=0, time=22),
    Message('note_on', channel=6, note=72, velocity=0, time=0),
    Message('note_on', channel=4, note=48, velocity=0, time=65),
    Message('note_on', channel=4, note=57, velocity=0, time=0),
    Message('note_on', channel=1, note=43, velocity=0, time=24),
    Message('pitchwheel', channel=6, pitch=-8192, time=9),
    Message('pitchwheel', channel=13, pitch=-8192, time=0),
    Message('note_on', channel=8, note=64, velocity=0, time=5),
    Message('note_on', channel=8, note=60, velocity=0, time=9),
    Message('note_on', channel=8, note=55, velocity=0, time=0),
    Message('note_on', channel=1, note=48, velocity=88, time=1),
    Message('note_on', channel=4, note=48, velocity=70, time=0),
    Message('note_on', channel=4, note=52, velocity=70, time=0),
    Message('note_on', channel=6, note=71, velocity=80, time=0),
    Message('note_on', channel=7, note=74, velocity=120, time=0),
    Message('note_on', channel=8, note=60, velocity=70, time=0),
    Message('note_on', channel=9, note=42, velocity=80, time=0),
    Message('note_on', channel=13, note=71, velocity=100, time=0),
    Message('note_on', channel=9, note=42, velocity=0, time=5),
    Message('note_on', channel=8, note=55, velocity=70, time=14),
    Message('note_on', channel=8, note=64, velocity=70, time=14),
    Message('pitchwheel', channel=6, pitch=-8064, time=72),
    Message('pitchwheel', channel=13, pitch=-8064, time=0),
    Message('pitchwheel', channel=6, pitch=-7168, time=7),
    Message('pitchwheel', channel=13, pitch=-7168, time=0),
    Message('pitchwheel', channel=6, pitch=-6272, time=8),
    Message('pitchwheel', channel=13, pitch=-6272, time=0),
    Message('pitchwheel', channel=6, pitch=-5376, time=7),
    Message('pitchwheel', channel=13, pitch=-5376, time=0),
    Message('pitchwheel', channel=6, pitch=-4480, time=7),
    Message('pitchwheel', channel=13, pitch=-4480, time=0),
    Message('pitchwheel', channel=6, pitch=-3584, time=7),
    Message('pitchwheel', channel=13, pitch=-3584, time=0),
    Message('pitchwheel', channel=6, pitch=-2688, time=7),
    Message('pitchwheel', channel=13, pitch=-2688, time=0),
    Message('pitchwheel', channel=6, pitch=-1792, time=7),
    Message('pitchwheel', channel=13, pitch=-1792, time=0),
    Message('pitchwheel', channel=6, pitch=-896, time=7),
    Message('pitchwheel', channel=13, pitch=-896, time=0),
    Message('pitchwheel', channel=6, pitch=0, time=7),
    Message('pitchwheel', channel=13, pitch=0, time=0),
    Message('note_on', channel=4, note=52, velocity=0, time=23),
    Message('note_on', channel=4, note=48, velocity=0, time=0),
    Message('note_on', channel=1, note=48, velocity=0, time=24),
    Message('note_on', channel=8, note=60, velocity=0, time=14),
    Message('note_on', channel=8, note=55, velocity=0, time=5),
    Message('note_on', channel=2, note=79, velocity=0, time=5),
    Message('note_on', channel=2, note=76, velocity=0, time=0),
    Message('note_on', channel=2, note=72, velocity=0, time=0),
    Message('note_on', channel=1, note=43, velocity=97, time=0),
    Message('note_on', channel=2, note=71, velocity=59, time=0),
    Message('note_on', channel=2, note=74, velocity=59, time=0),
    Message('note_on', channel=2, note=79, velocity=75, time=0),
    Message('note_on', channel=4, note=50, velocity=86, time=0),
    Message('note_on', channel=4, note=43, velocity=86, time=0),
    Message('note_on', channel=8, note=55, velocity=80, time=0),
    Message('note_on', channel=9, note=36, velocity=120, time=0),
    Message('note_on', channel=9, note=44, velocity=80, time=0),
    Message('note_on', channel=9, note=36, velocity=0, time=4),
    Message('note_on', channel=8, note=64, velocity=0, time=0),
    Message('note_on', channel=9, note=44, velocity=0, time=1),
    Message('note_on', channel=8, note=59, velocity=80, time=11),
    Message('note_on', channel=8, note=62, velocity=80, time=7),
    Message('note_on', channel=4, note=43, velocity=0, time=169),
    Message('note_on', channel=4, note=50, velocity=0, time=0),
    Message('note_on', channel=1, note=43, velocity=0, time=24),
    Message('note_on', channel=7, note=74, velocity=0, time=16),
    Message('note_on', channel=6, note=71, velocity=0, time=0),
    Message('note_on', channel=13, note=71, velocity=0, time=0),
    Message('note_on', channel=1, note=43, velocity=88, time=8),
    Message('note_on', channel=4, note=50, velocity=69, time=0),
    Message('note_on', channel=4, note=43, velocity=69, time=0),
    Message('note_on', channel=6, note=71, velocity=80, time=0),
    Message('note_on', channel=7, note=74, velocity=120, time=0),
    Message('note_on', channel=9, note=42, velocity=80, time=0),
    Message('note_on', channel=13, note=71, velocity=100, time=0),
    Message('note_on', channel=9, note=42, velocity=0, time=5),
    Message('note_on', channel=6, note=71, velocity=0, time=164),
    Message('note_on', channel=13, note=71, velocity=0, time=0),
    Message('note_on', channel=7, note=74, velocity=0, time=0),
    Message('note_on', channel=4, note=43, velocity=0, time=23),
    Message('note_on', channel=4, note=50, velocity=0, time=0),
    Message('note_on', channel=8, note=62, velocity=0, time=18),
    Message('note_on', channel=1, note=43, velocity=0, time=6),
    Message('note_on', channel=8, note=55, velocity=0, time=5),
    Message('note_on', channel=8, note=59, velocity=0, time=16),
    Message('note_on', channel=4, note=52, velocity=83, time=3),
    Message('note_on', channel=4, note=43, velocity=83, time=0),
    Message('note_on', channel=6, note=71, velocity=80, time=0),
    Message('note_on', channel=7, note=74, velocity=120, time=0),
    Message('note_on', channel=9, note=54, velocity=50, time=0),
    Message('note_on', channel=9, note=44, velocity=80, time=0),
    Message('note_on', channel=9, note=38, velocity=120, time=0),
    Message('note_on', channel=13, note=71, velocity=100, time=0),
    Message('note_on', channel=9, note=38, velocity=0, time=4),
    Message('note_on', channel=9, note=54, velocity=0, time=0),
    Message('note_on', channel=9, note=44, velocity=0, time=1),
    Message('note_on', channel=8, note=55, velocity=59, time=4),
    Message('note_on', channel=8, note=59, velocity=59, time=6),
    Message('note_on', channel=8, note=62, velocity=59, time=4),
    Message('note_on', channel=6, note=71, velocity=0, time=150),
    Message('note_on', channel=13, note=71, velocity=0, time=0),
    Message('note_on', channel=7, note=74, velocity=0, time=7),
    Message('note_on', channel=4, note=52, velocity=0, time=16),
    Message('note_on', channel=4, note=43, velocity=0, time=0),
    Message('note_on', channel=8, note=55, velocity=0, time=14),
    Message('note_on', channel=8, note=59, velocity=0, time=13),
    Message('note_on', channel=8, note=62, velocity=0, time=4),
    Message('note_on', channel=1, note=43, velocity=86, time=17),
    Message('note_on', channel=4, note=47, velocity=72, time=0),
    Message('note_on', channel=4, note=43, velocity=72, time=0),
    Message('note_on', channel=6, note=71, velocity=80, time=0),
    Message('note_on', channel=7, note=74, velocity=120, time=0),
    Message('note_on', channel=8, note=59, velocity=50, time=0),
    Message('note_on', channel=8, note=62, velocity=50, time=0),
    Message('note_on', channel=8, note=55, velocity=50, time=0),
    Message('note_on', channel=9, note=36, velocity=120, time=0),
    Message('note_on', channel=9, note=42, velocity=80, time=0),
    Message('note_on', channel=13, note=71, velocity=100, time=0),
    Message('note_on', channel=9, note=36, velocity=0, time=4),
    Message('note_on', channel=9, note=42, velocity=0, time=1),
    Message('note_on', channel=8, note=59, velocity=0, time=79),
    Message('note_on', channel=8, note=62, velocity=0, time=0),
    Message('note_on', channel=8, note=55, velocity=0, time=7),
    Message('note_on', channel=6, note=71, velocity=0, time=78),
    Message('note_on', channel=7, note=74, velocity=0, time=0),
    Message('note_on', channel=13, note=71, velocity=0, time=0),
    Message('note_on', channel=4, note=43, velocity=0, time=23),
    Message('note_on', channel=4, note=47, velocity=0, time=0),
    Message('note_on', channel=1, note=43, velocity=0, time=24),
    Message('pitchwheel', channel=6, pitch=8191, time=9),
    Message('pitchwheel', channel=13, pitch=8191, time=0),
    Message('note_on', channel=1, note=43, velocity=94, time=15),
    Message('note_on', channel=4, note=53, velocity=80, time=0),
    Message('note_on', channel=4, note=43, velocity=80, time=0),
    Message('note_on', channel=6, note=69, velocity=80, time=0),
    Message('note_on', channel=7, note=74, velocity=120, time=0),
    Message('note_on', channel=8, note=62, velocity=78, time=0),
    Message('note_on', channel=9, note=44, velocity=80, time=0),
    Message('note_on', channel=9, note=36, velocity=120, time=0),
    Message('note_on', channel=13, note=69, velocity=100, time=0),
    Message('note_on', channel=9, note=36, velocity=0, time=4),
    Message('note_on', channel=9, note=44, velocity=0, time=1),
    Message('note_on', channel=8, note=55, velocity=78, time=5),
    Message('note_on', channel=8, note=59, velocity=78, time=18),
    Message('pitchwheel', channel=6, pitch=8191, time=141),
    Message('pitchwheel', channel=13, pitch=8191, time=0),
    Message('pitchwheel', channel=6, pitch=7552, time=7),
    Message('pitchwheel', channel=13, pitch=7552, time=0),
    Message('pitchwheel', channel=6, pitch=6912, time=7),
    Message('pitchwheel', channel=13, pitch=6912, time=0),
    Message('pitchwheel', channel=6, pitch=6144, time=7),
    Message('pitchwheel', channel=13, pitch=6144, time=0),
    Message('note_on', channel=4, note=43, velocity=0, time=2),
    Message('note_on', channel=4, note=53, velocity=0, time=0),
    Message('pitchwheel', channel=6, pitch=5504, time=5),
    Message('pitchwheel', channel=13, pitch=5504, time=0),
    Message('pitchwheel', channel=6, pitch=4864, time=7),
    Message('pitchwheel', channel=13, pitch=4864, time=0),
    Message('pitchwheel', channel=6, pitch=4096, time=7),
    Message('pitchwheel', channel=13, pitch=4096, time=0),
    Message('note_on', channel=1, note=43, velocity=0, time=5),
    Message('pitchwheel', channel=6, pitch=3456, time=2),
    Message('pitchwheel', channel=13, pitch=3456, time=0),
    Message('pitchwheel', channel=6, pitch=2816, time=7),
    Message('pitchwheel', channel=13, pitch=2816, time=0),
    Message('note_on', channel=8, note=62, velocity=0, time=5),
    Message('pitchwheel', channel=6, pitch=2048, time=2),
    Message('pitchwheel', channel=13, pitch=2048, time=0),
    Message('note_on', channel=8, note=59, velocity=0, time=3),
    Message('note_on', channel=8, note=55, velocity=0, time=5),
    Message('note_on', channel=1, note=43, velocity=91, time=0),
    Message('note_on', channel=4, note=43, velocity=71, time=0),
    Message('note_on', channel=4, note=50, velocity=71, time=0),
    Message('pitchwheel', channel=6, pitch=1408, time=0),
    Message('note_on', channel=8, note=59, velocity=63, time=0),
    Message('note_on', channel=9, note=42, velocity=80, time=0),
    Message('pitchwheel', channel=13, pitch=1408, time=0),
    Message('note_on', channel=9, note=42, velocity=0, time=5),
    Message('pitchwheel', channel=6, pitch=768, time=2),
    Message('pitchwheel', channel=13, pitch=768, time=0),
    Message('pitchwheel', channel=6, pitch=0, time=7),
    Message('pitchwheel', channel=13, pitch=0, time=0),
    Message('note_on', channel=8, note=55, velocity=63, time=5),
    Message('note_on', channel=8, note=62, velocity=63, time=5),
    Message('note_on', channel=8, note=59, velocity=0, time=138),
    Message('note_on', channel=8, note=62, velocity=0, time=24),
    Message('note_on', channel=8, note=55, velocity=0, time=2),
    Message('note_on', channel=4, note=50, velocity=0, time=4),
    Message('note_on', channel=4, note=43, velocity=0, time=0),
    Message('note_on', channel=1, note=43, velocity=0, time=24),
    Message('note_on', channel=13, note=69, velocity=0, time=9),
    Message('note_on', channel=6, note=69, velocity=0, time=0),
    Message('note_on', channel=7, note=74, velocity=0, time=7),
    Message('note_on', channel=4, note=52, velocity=86, time=8),
    Message('note_on', channel=4, note=43, velocity=86, time=0),
    Message('note_on', channel=6, note=67, velocity=80, time=0),
    Message('note_on', channel=8, note=62, velocity=48, time=0),
    Message('note_on', channel=9, note=54, velocity=50, time=0),
    Message('note_on', channel=9, note=44, velocity=80, time=0),
    Message('note_on', channel=9, note=38, velocity=120, time=0),
    Message('note_on', channel=13, note=67, velocity=100, time=0),
    Message('note_on', channel=9, note=38, velocity=0, time=4),
    Message('note_on', channel=9, note=54, velocity=0, time=0),
    Message('note_on', channel=9, note=44, velocity=0, time=1),
    Message('note_on', channel=7, note=71, velocity=120, time=2),
    Message('note_on', channel=8, note=55, velocity=48, time=11),
    Message('note_on', channel=8, note=59, velocity=48, time=5),
    Message('note_on', channel=6, note=67, velocity=0, time=125),
    Message('note_on', channel=13, note=67, velocity=0, time=0),
    Message('note_on', channel=4, note=52, velocity=0, time=44),
    Message('note_on', channel=4, note=43, velocity=0, time=0),
    Message('note_on', channel=8, note=62, velocity=0, time=38),
    Message('note_on', channel=7, note=71, velocity=0, time=2),
    Message('note_on', channel=8, note=55, velocity=0, time=7),
    Message('note_on', channel=8, note=59, velocity=0, time=0),
    Message('note_on', channel=1, note=43, velocity=104, time=1),
    Message('note_on', channel=4, note=50, velocity=70, time=0),
    Message('note_on', channel=4, note=43, velocity=70, time=0),
    Message('note_on', channel=8, note=59, velocity=70, time=0),
    Message('note_on', channel=9, note=42, velocity=80, time=0),
    Message('note_on', channel=9, note=42, velocity=0, time=5),
    Message('note_on', channel=8, note=55, velocity=70, time=14),
    Message('note_on', channel=8, note=62, velocity=70, time=14),
    Message('note_on', channel=1, note=43, velocity=0, time=183),
    Message('pitchwheel', channel=6, pitch=8191, time=9),
    Message('pitchwheel', channel=13, pitch=8191, time=0),
    Message('note_on', channel=8, note=59, velocity=0, time=5),
    Message('note_on', channel=8, note=55, velocity=0, time=5),
    Message('note_on', channel=6, note=65, velocity=80, time=5),
    Message('note_on', channel=8, note=55, velocity=80, time=0),
    Message('note_on', channel=9, note=36, velocity=120, time=0),
    Message('note_on', channel=9, note=44, velocity=80, time=0),
    Message('note_on', channel=13, note=65, velocity=100, time=0),
    Message('note_on', channel=9, note=36, velocity=0, time=4),
    Message('note_on', channel=8, note=62, velocity=0, time=0),
    Message('note_on', channel=9, note=44, velocity=0, time=1),
    Message('note_on', channel=7, note=71, velocity=120, time=8),
    Message('note_on', channel=8, note=59, velocity=80, time=3),
    Message('note_on', channel=8, note=62, velocity=80, time=7),
    Message('pitchwheel', channel=6, pitch=8191, time=160),
    Message('pitchwheel', channel=13, pitch=8191, time=0),
    Message('pitchwheel', channel=6, pitch=7680, time=7),
    Message('pitchwheel', channel=13, pitch=7680, time=0),
    Message('pitchwheel', channel=6, pitch=7040, time=7),
    Message('pitchwheel', channel=13, pitch=7040, time=0),
    Message('pitchwheel', channel=6, pitch=6528, time=7),
    Message('pitchwheel', channel=13, pitch=6528, time=0),
    Message('pitchwheel', channel=6, pitch=5888, time=7),
    Message('pitchwheel', channel=13, pitch=5888, time=0),
    Message('pitchwheel', channel=6, pitch=5376, time=7),
    Message('pitchwheel', channel=13, pitch=5376, time=0),
    Message('note_on', channel=4, note=43, velocity=0, time=7),
    Message('note_on', channel=4, note=50, velocity=0, time=0),
    Message('pitchwheel', channel=6, pitch=4736, time=0),
    Message('pitchwheel', channel=13, pitch=4736, time=0),
    Message('pitchwheel', channel=6, pitch=4096, time=7),
    Message('pitchwheel', channel=13, pitch=4096, time=0),
    Message('note_on', channel=1, note=43, velocity=108, time=8),
    Message('note_on', channel=4, note=43, velocity=72, time=0),
    Message('note_on', channel=4, note=50, velocity=72, time=0),
    Message('pitchwheel', channel=6, pitch=3584, time=0),
    Message('note_on', channel=9, note=42, velocity=80, time=0),
    Message('pitchwheel', channel=13, pitch=3584, time=0),
    Message('note_on', channel=9, note=42, velocity=0, time=5),
    Message('pitchwheel', channel=6, pitch=2944, time=2),
    Message('pitchwheel', channel=13, pitch=2944, time=0),
    Message('pitchwheel', channel=6, pitch=2432, time=7),
    Message('pitchwheel', channel=13, pitch=2432, time=0),
    Message('pitchwheel', channel=6, pitch=1792, time=7),
    Message('pitchwheel', channel=13, pitch=1792, time=0),
    Message('pitchwheel', channel=6, pitch=1280, time=7),
    Message('pitchwheel', channel=13, pitch=1280, time=0),
    Message('pitchwheel', channel=6, pitch=640, time=7),
    Message('pitchwheel', channel=13, pitch=640, time=0),
    Message('pitchwheel', channel=6, pitch=0, time=7),
    Message('pitchwheel', channel=13, pitch=0, time=0),
    Message('note_on', channel=4, note=50, velocity=0, time=150),
    Message('note_on', channel=4, note=43, velocity=0, time=0),
    Message('note_on', channel=8, note=62, velocity=0, time=18),
    Message('note_on', channel=1, note=43, velocity=0, time=6),
    Message('note_on', channel=8, note=55, velocity=0, time=5),
    Message('note_on', channel=13, note=65, velocity=0, time=4),
    Message('note_on', channel=6, note=65, velocity=0, time=0),
    Message('note_on', channel=8, note=59, velocity=0, time=12),
    Message('note_on', channel=7, note=71, velocity=0, time=2),
    Message('note_on', channel=4, note=52, velocity=82, time=1),
    Message('note_on', channel=4, note=43, velocity=82, time=0),
    Message('note_on', channel=6, note=62, velocity=80, time=0),
    Message('note_on', channel=9, note=44, velocity=80, time=0),
    Message('note_on', channel=9, note=54, velocity=50, time=0),
    Message('note_on', channel=9, note=38, velocity=120, time=0),
    Message('note_on', channel=13, note=62, velocity=100, time=0),
    Message('note_on', channel=9, note=38, velocity=0, time=4),
    Message('note_on', channel=9, note=54, velocity=0, time=0),
    Message('note_on', channel=9, note=44, velocity=0, time=1),
    Message('note_on', channel=8, note=55, velocity=59, time=4),
    Message('note_on', channel=8, note=59, velocity=59, time=6),
    Message('note_on', channel=8, note=62, velocity=59, time=4),
    Message('note_on', channel=4, note=52, velocity=0, time=173),
    Message('note_on', channel=4, note=43, velocity=0, time=0),
    Message('note_on', channel=8, note=55, velocity=0, time=14),
    Message('note_on', channel=8, note=59, velocity=0, time=13),
    Message('note_on', channel=8, note=62, velocity=0, time=4),
    Message('note_on', channel=13, note=62, velocity=0, time=9),
    Message('note_on', channel=6, note=62, velocity=0, time=0),
    Message('note_on', channel=1, note=43, velocity=97, time=8),
    Message('note_on', channel=4, note=47, velocity=70, time=0),
    Message('note_on', channel=4, note=43, velocity=70, time=0),
    Message('note_on', channel=6, note=60, velocity=80, time=0),
    Message('note_on', channel=8, note=62, velocity=50, time=0),
    Message('note_on', channel=8, note=59, velocity=50, time=0),
    Message('note_on', channel=8, note=55, velocity=50, time=0),
    Message('note_on', channel=9, note=42, velocity=80, time=0),
    Message('note_on', channel=13, note=60, velocity=100, time=0),
    Message('note_on', channel=9, note=42, velocity=0, time=5),
    Message('note_on', channel=8, note=59, velocity=0, time=79),
    Message('note_on', channel=8, note=62, velocity=0, time=0),
    Message('note_on', channel=8, note=55, velocity=0, time=7),
    Message('note_on', channel=4, note=43, velocity=0, time=101),
    Message('note_on', channel=4, note=47, velocity=0, time=0),
    Message('note_on', channel=1, note=43, velocity=0, time=24),
    Message('note_on', channel=6, note=60, velocity=0, time=3),
    Message('note_on', channel=13, note=60, velocity=0, time=0),
    Message('note_on', channel=1, note=43, velocity=101, time=21),
    Message('note_on', channel=4, note=50, velocity=82, time=0),
    Message('note_on', channel=4, note=43, velocity=82, time=0),
    Message('note_on', channel=6, note=59, velocity=80, time=0),
    Message('note_on', channel=8, note=62, velocity=78, time=0),
    Message('note_on', channel=9, note=36, velocity=120, time=0),
    Message('note_on', channel=9, note=44, velocity=80, time=0),
    Message('note_on', channel=13, note=59, velocity=100, time=0),
    Message('note_on', channel=9, note=36, velocity=0, time=4),
    Message('note_on', channel=9, note=44, velocity=0, time=1),
    Message('note_on', channel=8, note=55, velocity=78, time=5),
    Message('note_on', channel=8, note=59, velocity=78, time=18),
    Message('note_on', channel=4, note=43, velocity=0, time=164),
    Message('note_on', channel=4, note=50, velocity=0, time=0),
    Message('note_on', channel=1, note=43, velocity=0, time=24),
    Message('note_on', channel=8, note=62, velocity=0, time=14),
    Message('note_on', channel=13, note=59, velocity=0, time=2),
    Message('note_on', channel=6, note=59, velocity=0, time=0),
    Message('note_on', channel=8, note=59, velocity=0, time=3),
    Message('note_on', channel=8, note=55, velocity=0, time=5),
    Message('note_on', channel=1, note=43, velocity=91, time=0),
    Message('note_on', channel=4, note=50, velocity=70, time=0),
    Message('note_on', channel=4, note=43, velocity=70, time=0),
    Message('note_on', channel=6, note=55, velocity=80, time=0),
    Message('note_on', channel=8, note=59, velocity=63, time=0),
    Message('note_on', channel=9, note=54, velocity=50, time=0),
    Message('note_on', channel=9, note=42, velocity=80, time=0),
    Message('note_on', channel=9, note=38, velocity=80, time=0),
    Message('note_on', channel=13, note=55, velocity=100, time=0),
    Message('note_on', channel=9, note=38, velocity=0, time=4),
    Message('note_on', channel=9, note=54, velocity=0, time=0),
    Message('note_on', channel=9, note=42, velocity=0, time=1),
    Message('note_on', channel=8, note=55, velocity=63, time=14),
    Message('note_on', channel=8, note=62, velocity=63, time=5),
    Message('note_on', channel=8, note=59, velocity=0, time=138),
    Message('note_on', channel=8, note=62, velocity=0, time=24),
    Message('note_on', channel=8, note=55, velocity=0, time=2),
    Message('note_on', channel=4, note=43, velocity=0, time=4),
    Message('note_on', channel=4, note=50, velocity=0, time=0),
    Message('note_on', channel=1, note=43, velocity=0, time=24),
    Message('note_on', channel=6, note=55, velocity=0, time=9),
    Message('note_on', channel=13, note=55, velocity=0, time=0),
    Message('note_on', channel=1, note=45, velocity=104, time=15),
    Message('note_on', channel=4, note=52, velocity=80, time=0),
    Message('note_on', channel=4, note=43, velocity=80, time=0),
    Message('note_on', channel=6, note=59, velocity=80, time=0),
    Message('note_on', channel=8, note=62, velocity=48, time=0),
    Message('note_on', channel=9, note=54, velocity=50, time=0),
    Message('note_on', channel=9, note=44, velocity=80, time=0),
    Message('note_on', channel=9, note=38, velocity=100, time=0),
    Message('note_on', channel=13, note=59, velocity=100, time=0),
    Message('note_on', channel=9, note=38, velocity=0, time=4),
    Message('note_on', channel=9, note=54, velocity=0, time=0),
    Message('note_on', channel=9, note=44, velocity=0, time=1),
    Message('note_on', channel=8, note=55, velocity=48, time=13),
    Message('note_on', channel=8, note=59, velocity=48, time=5),
    Message('note_on', channel=4, note=43, velocity=0, time=169),
    Message('note_on', channel=4, note=52, velocity=0, time=0),
    Message('note_on', channel=1, note=45, velocity=0, time=24),
    Message('note_on', channel=13, note=59, velocity=0, time=9),
    Message('note_on', channel=6, note=59, velocity=0, time=0),
    Message('note_on', channel=8, note=62, velocity=0, time=5),
    Message('note_on', channel=8, note=59, velocity=0, time=9),
    Message('note_on', channel=8, note=55, velocity=0, time=0),
    Message('note_on', channel=1, note=43, velocity=113, time=1),
    Message('note_on', channel=4, note=43, velocity=70, time=0),
    Message('note_on', channel=4, note=47, velocity=70, time=0),
    Message('note_on', channel=6, note=60, velocity=80, time=0),
    Message('note_on', channel=8, note=59, velocity=70, time=0),
    Message('note_on', channel=9, note=54, velocity=50, time=0),
    Message('note_on', channel=9, note=42, velocity=80, time=0),
    Message('note_on', channel=9, note=38, velocity=120, time=0),
    Message('note_on', channel=13, note=60, velocity=100, time=0),
    Message('note_on', channel=9, note=38, velocity=0, time=4),
    Message('note_on', channel=9, note=54, velocity=0, time=0),
    Message('note_on', channel=9, note=42, velocity=0, time=1),
    Message('note_on', channel=8, note=55, velocity=70, time=14),
    Message('note_on', channel=8, note=62, velocity=70, time=14),
    Message('control_change', channel=5, control=0, value=65, time=96),
    Message('control_change', channel=5, control=0, value=65, time=0),
    Message('program_change', channel=5, program=52, time=0),
    Message('note_on', channel=8, note=55, velocity=0, time=58),
    Message('note_on', channel=4, note=47, velocity=0, time=5),
    Message('note_on', channel=4, note=43, velocity=0, time=0),
    Message('note_on', channel=8, note=55, velocity=70, time=13),
    Message('note_on', channel=1, note=43, velocity=0, time=11),
    Message('note_on', channel=8, note=59, velocity=0, time=14),
    Message('note_on', channel=13, note=60, velocity=0, time=2),
    Message('note_on', channel=6, note=60, velocity=0, time=0),
    Message('control_change', channel=13, control=7, value=80, time=0),
    Message('sysex', data=(65, 16, 66, 18, 64, 3, 22, 40, 127), time=0),
    Message('note_on', channel=2, note=71, velocity=0, time=8),
    Message('note_on', channel=2, note=79, velocity=0, time=0),
    Message('note_on', channel=2, note=74, velocity=0, time=0),
    Message('note_on', channel=1, note=48, velocity=104, time=0),
    Message('note_on', channel=2, note=72, velocity=75, time=0),
    Message('note_on', channel=2, note=76, velocity=75, time=0),
    Message('note_on', channel=2, note=79, velocity=71, time=0),
    Message('note_on', channel=4, note=48, velocity=100, time=0),
    Message('note_on', channel=4, note=55, velocity=100, time=0),
    Message('note_on', channel=5, note=60, velocity=80, time=0),
    Message('note_on', channel=5, note=64, velocity=80, time=0),
    Message('note_on', channel=5, note=67, velocity=80, time=0),
    Message('note_on', channel=6, note=55, velocity=80, time=0),
    Message('note_on', channel=6, note=60, velocity=80, time=0),
    Message('note_on', channel=9, note=36, velocity=120, time=0),
    Message('note_on', channel=9, note=49, velocity=80, time=0),
    Message('note_on', channel=13, note=55, velocity=100, time=0),
    Message('note_on', channel=13, note=60, velocity=100, time=0),
    Message('note_on', channel=9, note=36, velocity=0, time=4),
    Message('note_on', channel=8, note=62, velocity=0, time=0),
    Message('note_on', channel=9, note=49, velocity=0, time=1),
    Message('note_on', channel=5, note=72, velocity=80, time=3),
    Message('note_on', channel=8, note=60, velocity=70, time=9),
    Message('note_on', channel=8, note=64, velocity=70, time=40),
    Message('note_on', channel=3, note=64, velocity=100, time=423),
    MetaMessage('lyrics', text='Eve', time=0),
    Message('note_on', channel=3, note=64, velocity=0, time=240),
    Message('note_on', channel=3, note=67, velocity=100, time=0),
    MetaMessage('lyrics', text='ry', time=0),
    Message('note_on', channel=3, note=67, velocity=0, time=240),
    Message('note_on', channel=3, note=67, velocity=100, time=0),
    MetaMessage('lyrics', text='bo', time=0),
    Message('control_change', channel=13, control=1, value=44, time=169),
    Message('note_on', channel=3, note=67, velocity=0, time=311),
    Message('note_on', channel=3, note=67, velocity=100, time=0),
    MetaMessage('lyrics', text='dy, ', time=0),
    Message('note_on', channel=3, note=67, velocity=0, time=240),
    Message('note_on', channel=3, note=69, velocity=100, time=0),
    MetaMessage('lyrics', text='feels ', time=0),
    Message('note_on', channel=5, note=72, velocity=0, time=231),
    Message('note_on', channel=2, note=82, velocity=36, time=9),
    Message('note_on', channel=5, note=70, velocity=80, time=0),
    Message('note_on', channel=3, note=69, velocity=0, time=240),
    Message('note_on', channel=3, note=67, velocity=100, time=0),
    MetaMessage('lyrics', text='al', time=0),
    Message('note_on', channel=3, note=67, velocity=0, time=480),
    Message('note_on', channel=3, note=64, velocity=100, time=0),
    MetaMessage('lyrics', text='right, ', time=0),
    MetaMessage('lyrics', text='\r', time=0),
    Message('note_on', channel=3, note=64, velocity=0, time=240),
    Message('note_on', channel=3, note=62, velocity=100, time=0),
    MetaMessage('lyrics', text='you ', time=0),
    Message('note_on', channel=3, note=62, velocity=0, time=240),
    Message('note_on', channel=3, note=60, velocity=100, time=0),
    MetaMessage('lyrics', text='know ', time=0),
    Message('note_on', channel=3, note=60, velocity=0, time=240),
    Message('note_on', channel=3, note=60, velocity=100, time=0),
    MetaMessage('lyrics', text='i, ', time=0),
    MetaMessage('lyrics', text='\r', time=0),
    Message('note_on', channel=1, note=48, velocity=0, time=96),
    Message('note_on', channel=8, note=55, velocity=0, time=302),
    Message('note_on', channel=8, note=60, velocity=0, time=18),
    Message('control_change', channel=13, control=1, value=0, time=28),
    Message('note_on', channel=8, note=57, velocity=70, time=12),
    Message('note_on', channel=4, note=55, velocity=0, time=2),
    Message('note_on', channel=13, note=55, velocity=0, time=7),
    Message('note_on', channel=6, note=55, velocity=0, time=0),
    Message('note_on', channel=13, note=60, velocity=0, time=7),
    Message('note_on', channel=6, note=60, velocity=0, time=0),
    Message('note_on', channel=4, note=48, velocity=0, time=0),
    Message('note_on', channel=5, note=70, velocity=0, time=8),
    Message('note_on', channel=5, note=64, velocity=0, time=0),
    Message('note_on', channel=2, note=76, velocity=0, time=0),
    Message('note_on', channel=3, note=60, velocity=0, time=0),
    Message('note_on', channel=5, note=67, velocity=0, time=0),
    Message('note_on', channel=2, note=82, velocity=0, time=0),
    Message('note_on', channel=2, note=79, velocity=0, time=0),
    Message('note_on', channel=1, note=41, velocity=104, time=0),
    Message('note_on', channel=2, note=77, velocity=66, time=0),
    Message('note_on', channel=2, note=81, velocity=66, time=0),
    Message('note_on', channel=3, note=63, velocity=100, time=0),
    Message('note_on', channel=4, note=48, velocity=100, time=0),
    Message('note_on', channel=4, note=53, velocity=100, time=0),
    Message('note_on', channel=5, note=69, velocity=80, time=0),
    Message('note_on', channel=5, note=65, velocity=80, time=0),
    Message('note_on', channel=6, note=53, velocity=100, time=0),
    Message('note_on', channel=9, note=36, velocity=120, time=0),
    Message('note_on', channel=9, note=49, velocity=80, time=0),
    Message('note_on', channel=13, note=53, velocity=100, time=0),
    MetaMessage('lyrics', text='heard ', time=0),
    Message('note_on', channel=9, note=36, velocity=0, time=4),
    Message('note_on', channel=9, note=49, velocity=0, time=1),
    Message('note_on', channel=6, note=60, velocity=100, time=2),
    Message('note_on', channel=13, note=60, velocity=100, time=0),
    Message('note_on', channel=8, note=64, velocity=0, time=3),
    Message('note_on', channel=8, note=60, velocity=70, time=24),
    Message('note_on', channel=8, note=65, velocity=70, time=52),
    Message('note_on', channel=3, note=63, velocity=0, time=394),
    Message('note_on', channel=3, note=62, velocity=100, time=0),
    MetaMessage('lyrics', text='some ', time=0),
    Message('note_on', channel=3, note=62, velocity=0, time=480),
    Message('note_on', channel=3, note=60, velocity=100, time=0),
    MetaMessage('lyrics', text='poor ', time=0),
    Message('note_on', channel=3, note=60, velocity=0, time=480),
    Message('note_on', channel=3, note=60, velocity=100, time=0),
    MetaMessage('lyrics', text='fool ', time=0),
    Message('control_change', channel=13, control=1, value=42, time=77),
    Message('note_on', channel=5, note=65, velocity=0, time=385),
    Message('note_on', channel=5, note=60, velocity=0, time=9),
    Message('note_on', channel=5, note=69, velocity=0, time=0),
    Message('note_on', channel=3, note=60, velocity=0, time=9),
    Message('note_on', channel=3, note=57, velocity=100, time=0),
    MetaMessage('lyrics', text='si', time=0),
    Message('control_change', channel=5, control=0, value=0, time=34),
    Message('control_change', channel=5, control=0, value=0, time=0),
    Message('program_change', channel=5, program=94, time=0),
    Message('note_on', channel=3, note=57, velocity=0, time=86),
    Message('note_on', channel=3, note=55, velocity=100, time=0),
    Message('note_on', channel=3, note=55, velocity=0, time=120),
    Message('note_on', channel=3, note=53, velocity=100, time=0),
    MetaMessage('lyrics', text='ng, ', time=0),
    MetaMessage('lyrics', text='\r', time=0),
    Message('note_on', channel=3, note=53, velocity=0, time=222),
    Message('note_on', channel=5, note=65, velocity=80, time=18),
    Message('note_on', channel=5, note=57, velocity=80, time=0),
    Message('note_on', channel=5, note=60, velocity=80, time=0),
    Message('control_change', channel=13, control=1, value=61, time=70),
    Message('note_on', channel=5, note=60, velocity=0, time=410),
    Message('note_on', channel=5, note=57, velocity=0, time=0),
    Message('note_on', channel=5, note=65, velocity=0, time=0),
    Message('note_on', channel=5, note=67, velocity=80, time=0),
    Message('note_on', channel=5, note=60, velocity=80, time=0),
    Message('note_on', channel=5, note=57, velocity=80, time=0),
    Message('note_on', channel=5, note=57, velocity=0, time=240),
    Message('note_on', channel=5, note=60, velocity=0, time=0),
    Message('note_on', channel=5, note=67, velocity=0, time=0),
    Message('note_on', channel=5, note=57, velocity=80, time=0),
    Message('note_on', channel=5, note=60, velocity=80, time=0),
    Message('note_on', channel=5, note=69, velocity=80, time=0),
    Message('note_on', channel=9, note=36, velocity=120, time=0),
    Message('note_on', channel=9, note=36, velocity=0, time=4),
    Message('note_on', channel=9, note=54, velocity=50, time=208),
    Message('note_on', channel=9, note=38, velocity=80, time=0),
    Message('note_on', channel=9, note=38, velocity=0, time=4),
    Message('note_on', channel=9, note=54, velocity=0, time=0),
    Message('note_on', channel=9, note=46, velocity=80, time=24),
    Message('note_on', channel=9, note=54, velocity=50, time=0),
    Message('note_on', channel=9, note=38, velocity=120, time=0),
    Message('note_on', channel=9, note=38, velocity=0, time=4),
    Message('note_on', channel=9, note=54, velocity=0, time=0),
    Message('note_on', channel=9, note=46, velocity=0, time=1),
    Message('note_on', channel=1, note=41, velocity=0, time=91),
    Message('note_on', channel=5, note=69, velocity=0, time=144),
    Message('note_on', channel=5, note=60, velocity=0, time=0),
    Message('note_on', channel=5, note=57, velocity=0, time=0),
    Message('note_on', channel=5, note=64, velocity=80, time=0),
    Message('note_on', channel=5, note=60, velocity=80, time=0),
    Message('note_on', channel=5, note=67, velocity=80, time=0),
    Message('note_on', channel=9, note=36, velocity=120, time=0),
    Message('note_on', channel=9, note=42, velocity=80, time=0),
    Message('note_on', channel=9, note=36, velocity=0, time=4),
    Message('note_on', channel=9, note=42, velocity=0, time=1),
    Message('note_on', channel=8, note=57, velocity=0, time=164),
    Message('note_on', channel=4, note=48, velocity=0, time=49),
    Message('note_on', channel=4, note=53, velocity=0, time=7),
    Message('note_on', channel=6, note=53, velocity=0, time=0),
    Message('note_on', channel=13, note=53, velocity=0, time=0),
    Message('note_on', channel=8, note=60, velocity=0, time=2),
    Message('note_on', channel=13, note=60, velocity=0, time=5),
    Message('note_on', channel=6, note=60, velocity=0, time=0),
    Message('control_change', channel=13, control=1, value=0, time=0),
    Message('note_on', channel=8, note=65, velocity=0, time=2),
    Message('note_on', channel=2, note=77, velocity=0, time=6),
    Message('note_on', channel=2, note=81, velocity=0, time=0),
    Message('note_on', channel=1, note=48, velocity=97, time=0),
    Message('note_on', channel=2, note=76, velocity=51, time=0),
    Message('note_on', channel=2, note=79, velocity=64, time=0),
    Message('note_on', channel=4, note=55, velocity=86, time=0),
    Message('note_on', channel=4, note=48, velocity=86, time=0),
    Message('note_on', channel=6, note=55, velocity=100, time=0),
    Message('note_on', channel=6, note=60, velocity=100, time=0),
    Message('note_on', channel=8, note=55, velocity=80, time=0),
    Message('note_on', channel=9, note=49, velocity=80, time=0),
    Message('note_on', channel=9, note=36, velocity=120, time=0),
    Message('note_on', channel=13, note=55, velocity=100, time=0),
    Message('note_on', channel=13, note=60, velocity=100, time=0),
    Message('note_on', channel=9, note=36, velocity=0, time=4),
    Message('note_on', channel=9, note=49, velocity=0, time=1),
    Message('note_on', channel=8, note=60, velocity=80, time=11),
    Message('note_on', channel=8, note=64, velocity=80, time=7),
    Message('note_on', channel=4, note=55, velocity=0, time=169),
    Message('note_on', channel=4, note=48, velocity=0, time=0),
    Message('note_on', channel=1, note=48, velocity=0, time=24),
    Message('note_on', channel=5, note=60, velocity=0, time=24),
    Message('note_on', channel=5, note=64, velocity=0, time=0),
    Message('note_on', channel=5, note=67, velocity=0, time=0),
    Message('note_on', channel=1, note=48, velocity=88, time=0),
    Message('note_on', channel=4, note=48, velocity=69, time=0),
    Message('note_on', channel=4, note=55, velocity=69, time=0),
    Message('note_on', channel=9, note=42, velocity=80, time=0),
    Message('note_on', channel=9, note=42, velocity=0, time=5),
    Message('note_on', channel=4, note=55, velocity=0, time=187),
    Message('note_on', channel=4, note=48, velocity=0, time=0),
    Message('note_on', channel=8, note=64, velocity=0, time=18),
    Message('note_on', channel=1, note=48, velocity=0, time=6),
    Message('note_on', channel=8, note=55, velocity=0, time=5),
    Message('note_on', channel=8, note=60, velocity=0, time=16),
    Message('note_on', channel=3, note=64, velocity=100, time=3),
    Message('note_on', channel=4, note=57, velocity=83, time=0),
    Message('note_on', channel=4, note=48, velocity=83, time=0),
    Message('note_on', channel=9, note=54, velocity=50, time=0),
    Message('note_on', channel=9, note=44, velocity=80, time=0),
    Message('note_on', channel=9, note=38, velocity=120, time=0),
    MetaMessage('lyrics', text='eve', time=0),
    Message('note_on', channel=9, note=38, velocity=0, time=4),
    Message('note_on', channel=9, note=54, velocity=0, time=0),
    Message('note_on', channel=9, note=44, velocity=0, time=1),
    Message('note_on', channel=8, note=55, velocity=59, time=4),
    Message('note_on', channel=8, note=60, velocity=59, time=6),
    Message('note_on', channel=8, note=64, velocity=59, time=4),
    Message('note_on', channel=4, note=48, velocity=0, time=173),
    Message('note_on', channel=4, note=57, velocity=0, time=0),
    Message('note_on', channel=8, note=55, velocity=0, time=14),
    Message('note_on', channel=8, note=60, velocity=0, time=13),
    Message('note_on', channel=8, note=64, velocity=0, time=4),
    Message('note_on', channel=3, note=64, velocity=0, time=17),
    Message('note_on', channel=1, note=48, velocity=86, time=0),
    Message('note_on', channel=3, note=67, velocity=100, time=0),
    Message('note_on', channel=4, note=48, velocity=72, time=0),
    Message('note_on', channel=4, note=52, velocity=72, time=0),
    Message('note_on', channel=8, note=64, velocity=50, time=0),
    Message('note_on', channel=8, note=60, velocity=50, time=0),
    Message('note_on', channel=8, note=55, velocity=50, time=0),
    Message('note_on', channel=9, note=36, velocity=120, time=0),
    Message('note_on', channel=9, note=42, velocity=80, time=0),
    MetaMessage('lyrics', text='ry', time=0),
    Message('note_on', channel=9, note=42, velocity=0, time=5),
    Message('note_on', channel=9, note=36, velocity=0, time=11),
    Message('note_on', channel=8, note=60, velocity=0, time=68),
    Message('note_on', channel=8, note=64, velocity=0, time=0),
    Message('note_on', channel=8, note=55, velocity=0, time=7),
    Message('note_on', channel=4, note=48, velocity=0, time=101),
    Message('note_on', channel=4, note=52, velocity=0, time=0),
    Message('note_on', channel=1, note=48, velocity=0, time=24),
    Message('note_on', channel=3, note=67, velocity=0, time=24),
    Message('note_on', channel=1, note=48, velocity=94, time=0),
    Message('note_on', channel=3, note=67, velocity=100, time=0),
    Message('note_on', channel=4, note=48, velocity=80, time=0),
    Message('note_on', channel=4, note=55, velocity=80, time=0),
    Message('note_on', channel=8, note=64, velocity=78, time=0),
    Message('note_on', channel=9, note=44, velocity=80, time=0),
    Message('note_on', channel=9, note=36, velocity=120, time=0),
    MetaMessage('lyrics', text='one ', time=0),
    Message('note_on', channel=9, note=36, velocity=0, time=4),
    Message('note_on', channel=9, note=44, velocity=0, time=1),
    Message('note_on', channel=8, note=55, velocity=78, time=5),
    Message('note_on', channel=8, note=60, velocity=78, time=18),
    Message('control_change', channel=13, control=1, value=32, time=77),
    Message('note_on', channel=4, note=48, velocity=0, time=87),
    Message('note_on', channel=4, note=55, velocity=0, time=0),
    Message('note_on', channel=1, note=48, velocity=0, time=24),
    Message('note_on', channel=8, note=64, velocity=0, time=14),
    Message('note_on', channel=8, note=60, velocity=0, time=5),
    Message('note_on', channel=8, note=55, velocity=0, time=5),
    Message('note_on', channel=1, note=48, velocity=91, time=0),
    Message('note_on', channel=4, note=57, velocity=71, time=0),
    Message('note_on', channel=4, note=48, velocity=71, time=0),
    Message('note_on', channel=8, note=60, velocity=63, time=0),
    Message('note_on', channel=9, note=42, velocity=80, time=0),
    Message('note_on', channel=9, note=42, velocity=0, time=5),
    Message('note_on', channel=8, note=55, velocity=63, time=14),
    Message('note_on', channel=8, note=64, velocity=63, time=5),
    Message('note_on', channel=8, note=60, velocity=0, time=138),
    Message('note_on', channel=8, note=64, velocity=0, time=24),
    Message('note_on', channel=8, note=55, velocity=0, time=2),
    Message('note_on', channel=4, note=57, velocity=0, time=4),
    Message('note_on', channel=4, note=48, velocity=0, time=0),
    Message('note_on', channel=1, note=48, velocity=0, time=24),
    Message('note_on', channel=3, note=67, velocity=0, time=24),
    Message('note_on', channel=3, note=67, velocity=100, time=0),
    Message('note_on', channel=4, note=48, velocity=86, time=0),
    Message('note_on', channel=4, note=57, velocity=86, time=0),
    Message('note_on', channel=8, note=64, velocity=48, time=0),
    Message('note_on', channel=9, note=54, velocity=50, time=0),
    Message('note_on', channel=9, note=44, velocity=80, time=0),
    Message('note_on', channel=9, note=38, velocity=120, time=0),
    MetaMessage('lyrics', text='is, ', time=0),
    Message('note_on', channel=9, note=38, velocity=0, time=4),
    Message('note_on', channel=9, note=54, velocity=0, time=0),
    Message('note_on', channel=9, note=44, velocity=0, time=1),
    Message('note_on', channel=8, note=55, velocity=48, time=13),
    Message('note_on', channel=8, note=60, velocity=48, time=5),
    Message('note_on', channel=4, note=48, velocity=0, time=169),
    Message('note_on', channel=4, note=57, velocity=0, time=0),
    Message('note_on', channel=8, note=64, velocity=0, time=38),
    Message('note_on', channel=8, note=55, velocity=0, time=9),
    Message('note_on', channel=8, note=60, velocity=0, time=0),
    Message('note_on', channel=3, note=67, velocity=0, time=1),
    Message('note_on', channel=1, note=48, velocity=104, time=0),
    Message('note_on', channel=3, note=69, velocity=100, time=0),
    Message('note_on', channel=4, note=48, velocity=70, time=0),
    Message('note_on', channel=4, note=55, velocity=70, time=0),
    Message('note_on', channel=8, note=60, velocity=70, time=0),
    Message('note_on', channel=9, note=42, velocity=80, time=0),
    MetaMessage('lyrics', text='out ', time=0),
    Message('note_on', channel=9, note=42, velocity=0, time=5),
    Message('note_on', channel=8, note=55, velocity=70, time=14),
    Message('note_on', channel=8, note=64, velocity=70, time=14),
    Message('control_change', channel=13, control=1, value=50, time=171),
    Message('note_on', channel=1, note=48, velocity=0, time=12),
    Message('note_on', channel=8, note=60, velocity=0, time=14),
    Message('note_on', channel=8, note=55, velocity=0, time=5),
    Message('note_on', channel=8, note=55, velocity=80, time=5),
    Message('note_on', channel=9, note=36, velocity=120, time=0),
    Message('note_on', channel=9, note=44, velocity=80, time=0),
    Message('note_on', channel=9, note=36, velocity=0, time=4),
    Message('note_on', channel=8, note=64, velocity=0, time=0),
    Message('note_on', channel=9, note=44, velocity=0, time=1),
    Message('note_on', channel=8, note=60, velocity=80, time=11),
    Message('note_on', channel=8, note=64, velocity=80, time=7),
    Message('note_on', channel=4, note=55, velocity=0, time=195),
    Message('note_on', channel=4, note=48, velocity=0, time=14),
    Message('note_on', channel=3, note=69, velocity=0, time=8),
    Message('note_on', channel=1, note=48, velocity=108, time=0),
    Message('note_on', channel=3, note=67, velocity=100, time=0),
    Message('note_on', channel=4, note=48, velocity=72, time=0),
    Message('note_on', channel=4, note=55, velocity=72, time=0),
    Message('note_on', channel=9, note=42, velocity=80, time=0),
    MetaMessage('lyrics', text='the', time=0),
    Message('note_on', channel=9, note=42, velocity=0, time=5),
    Message('note_on', channel=4, note=55, velocity=0, time=187),
    Message('note_on', channel=4, note=48, velocity=0, time=0),
    Message('note_on', channel=8, note=64, velocity=0, time=18),
    Message('note_on', channel=1, note=48, velocity=0, time=6),
    Message('note_on', channel=8, note=55, velocity=0, time=5),
    Message('note_on', channel=8, note=60, velocity=0, time=16),
    Message('note_on', channel=3, note=67, velocity=0, time=3),
    Message('note_on', channel=3, note=65, velocity=100, time=0),
    Message('note_on', channel=4, note=48, velocity=82, time=0),
    Message('note_on', channel=4, note=57, velocity=82, time=0),
    Message('note_on', channel=9, note=44, velocity=80, time=0),
    Message('note_on', channel=9, note=54, velocity=50, time=0),
    Message('note_on', channel=9, note=38, velocity=120, time=0),
    MetaMessage('lyrics', text='re, ', time=0),
    MetaMessage('lyrics', text='\r', time=0),
    Message('note_on', channel=9, note=38, velocity=0, time=4),
    Message('note_on', channel=9, note=54, velocity=0, time=0),
    Message('note_on', channel=9, note=44, velocity=0, time=1),
    Message('note_on', channel=8, note=55, velocity=59, time=4),
    Message('note_on', channel=8, note=60, velocity=59, time=6),
    Message('note_on', channel=8, note=64, velocity=59, time=4),
    Message('note_on', channel=4, note=57, velocity=0, time=173),
    Message('note_on', channel=4, note=48, velocity=0, time=0),
    Message('note_on', channel=8, note=55, velocity=0, time=14),
    Message('note_on', channel=8, note=60, velocity=0, time=13),
    Message('note_on', channel=8, note=64, velocity=0, time=4),
    Message('note_on', channel=1, note=48, velocity=97, time=17),
    Message('note_on', channel=4, note=48, velocity=70, time=0),
    Message('note_on', channel=4, note=52, velocity=70, time=0),
    Message('note_on', channel=8, note=55, velocity=50, time=0),
    Message('note_on', channel=8, note=60, velocity=50, time=0),
    Message('note_on', channel=8, note=64, velocity=50, time=0),
    Message('note_on', channel=9, note=42, velocity=80, time=0),
    Message('note_on', channel=9, note=36, velocity=120, time=0),
    Message('note_on', channel=9, note=36, velocity=0, time=4),
    Message('note_on', channel=9, note=42, velocity=0, time=1),
    Message('note_on', channel=8, note=64, velocity=0, time=79),
    Message('note_on', channel=8, note=60, velocity=0, time=0),
    Message('note_on', channel=8, note=55, velocity=0, time=7),
    Message('control_change', channel=13, control=1, value=64, time=99),
    Message('note_on', channel=4, note=48, velocity=0, time=2),
    Message('note_on', channel=4, note=52, velocity=0, time=0),
    Message('note_on', channel=1, note=48, velocity=0, time=24),
    Message('note_on', channel=3, note=65, velocity=0, time=24),
    Message('note_on', channel=1, note=48, velocity=101, time=0),
    Message('note_on', channel=3, note=65, velocity=100, time=0),
    Message('note_on', channel=4, note=48, velocity=82, time=0),
    Message('note_on', channel=4, note=55, velocity=82, time=0),
    Message('note_on', channel=8, note=64, velocity=78, time=0),
    Message('note_on', channel=9, note=44, velocity=80, time=0),
    Message('note_on', channel=9, note=36, velocity=120, time=0),
    MetaMessage('lyrics', text='on ', time=0),
    Message('note_on', channel=9, note=36, velocity=0, time=4),
    Message('note_on', channel=9, note=44, velocity=0, time=1),
    Message('note_on', channel=8, note=55, velocity=78, time=5),
    Message('note_on', channel=8, note=60, velocity=78, time=18),
    Message('note_on', channel=4, note=48, velocity=0, time=164),
    Message('note_on', channel=4, note=55, velocity=0, time=0),
    Message('note_on', channel=1, note=48, velocity=0, time=24),
    Message('note_on', channel=8, note=64, velocity=0, time=14),
    Message('note_on', channel=8, note=60, velocity=0, time=5),
    Message('note_on', channel=8, note=55, velocity=0, time=5),
    Message('note_on', channel=1, note=48, velocity=91, time=0),
    Message('note_on', channel=4, note=55, velocity=70, time=0),
    Message('note_on', channel=4, note=48, velocity=70, time=0),
    Message('note_on', channel=8, note=60, velocity=63, time=0),
    Message('note_on', channel=9, note=42, velocity=80, time=0),
    Message('note_on', channel=9, note=42, velocity=0, time=5),
    Message('note_on', channel=8, note=55, velocity=63, time=14),
    Message('note_on', channel=8, note=64, velocity=63, time=5),
    Message('note_on', channel=8, note=60, velocity=0, time=138),
    Message('note_on', channel=8, note=64, velocity=0, time=24),
    Message('note_on', channel=8, note=55, velocity=0, time=2),
    Message('note_on', channel=4, note=55, velocity=0, time=4),
    Message('note_on', channel=4, note=48, velocity=0, time=0),
    Message('note_on', channel=1, note=48, velocity=0, time=24),
    Message('note_on', channel=3, note=65, velocity=0, time=24),
    Message('note_on', channel=1, note=45, velocity=104, time=0),
    Message('note_on', channel=3, note=64, velocity=100, time=0),
    Message('note_on', channel=4, note=57, velocity=80, time=0),
    Message('note_on', channel=4, note=48, velocity=80, time=0),
    Message('note_on', channel=8, note=64, velocity=48, time=0),
    Message('note_on', channel=9, note=44, velocity=80, time=0),
    Message('note_on', channel=9, note=54, velocity=50, time=0),
    Message('note_on', channel=9, note=38, velocity=120, time=0),
    MetaMessage('lyrics', text='the ', time=0),
    Message('note_on', channel=9, note=38, velocity=0, time=4),
    Message('note_on', channel=9, note=54, velocity=0, time=0),
    Message('note_on', channel=9, note=44, velocity=0, time=1),
    Message('note_on', channel=8, note=55, velocity=48, time=13),
    Message('note_on', channel=8, note=60, velocity=48, time=5),
    Message('note_on', channel=4, note=57, velocity=0, time=169),
    Message('note_on', channel=4, note=48, velocity=0, time=0),
    Message('note_on', channel=1, note=45, velocity=0, time=24),
    Message('note_on', channel=8, note=64, velocity=0, time=14),
    Message('note_on', channel=8, note=55, velocity=0, time=9),
    Message('note_on', channel=8, note=60, velocity=0, time=0),
    Message('note_on', channel=1, note=48, velocity=113, time=1),
    Message('note_on', channel=3, note=67, velocity=100, time=0),
    Message('note_on', channel=4, note=48, velocity=70, time=0),
    Message('note_on', channel=4, note=52, velocity=70, time=0),
    Message('note_on', channel=8, note=60, velocity=70, time=0),
    Message('note_on', channel=9, note=42, velocity=80, time=0),
    MetaMessage('lyrics', text='loose. ', time=0),
    MetaMessage('lyrics', text='\r', time=0),
    MetaMessage('lyrics', text='\n', time=0),
    Message('note_on', channel=9, note=42, velocity=0, time=5),
    Message('note_on', channel=8, note=55, velocity=70, time=14),
    Message('note_on', channel=8, note=64, velocity=70, time=14),
    Message('note_on', channel=3, note=64, velocity=0, time=87),
    Message('note_on', channel=4, note=48, velocity=0, time=72),
    Message('note_on', channel=4, note=52, velocity=0, time=0),
    Message('note_on', channel=1, note=48, velocity=0, time=24),
    Message('note_on', channel=6, note=55, velocity=0, time=9),
    Message('note_on', channel=13, note=55, velocity=0, time=0),
    Message('note_on', channel=8, note=60, velocity=0, time=5),
    Message('note_on', channel=6, note=60, velocity=0, time=2),
    Message('note_on', channel=13, note=60, velocity=0, time=0),
    Message('note_on', channel=8, note=55, velocity=0, time=3),
    Message('note_on', channel=2, note=76, velocity=0, time=5),
    Message('note_on', channel=2, note=72, velocity=0, time=0),
    Message('note_on', channel=1, note=43, velocity=97, time=0),
    Message('note_on', channel=2, note=71, velocity=68, time=0),
    Message('note_on', channel=2, note=74, velocity=71, time=0),
    Message('note_on', channel=4, note=43, velocity=86, time=0),
    Message('note_on', channel=4, note=50, velocity=86, time=0),
    Message('note_on', channel=8, note=55, velocity=80, time=0),
    Message('note_on', channel=9, note=44, velocity=80, time=0),
    Message('note_on', channel=9, note=36, velocity=120, time=0),
    Message('control_change', channel=13, control=1, value=0, time=0),
    Message('note_on', channel=9, note=36, velocity=0, time=4),
    Message('note_on', channel=8, note=64, velocity=0, time=0),
    Message('note_on', channel=9, note=44, velocity=0, time=1),
    Message('note_on', channel=8, note=59, velocity=80, time=11),
    Message('note_on', channel=8, note=62, velocity=80, time=7),
    Message('note_on', channel=4, note=50, velocity=0, time=169),
    Message('note_on', channel=4, note=43, velocity=0, time=0),
    Message('note_on', channel=1, note=43, velocity=0, time=24),
    Message('note_on', channel=1, note=43, velocity=97, time=24),
    Message('note_on', channel=4, note=50, velocity=69, time=0),
    Message('note_on', channel=4, note=43, velocity=69, time=0),
    Message('note_on', channel=6, note=43, velocity=100, time=0),
    Message('note_on', channel=9, note=42, velocity=80, time=0),
    Message('note_on', channel=13, note=43, velocity=100, time=0),
    Message('note_on', channel=9, note=42, velocity=0, time=5),
    Message('note_on', channel=13, note=43, velocity=0, time=171),
    Message('note_on', channel=6, note=43, velocity=0, time=0),
    Message('note_on', channel=4, note=43, velocity=0, time=16),
    Message('note_on', channel=4, note=50, velocity=0, time=0),
    Message('note_on', channel=8, note=62, velocity=0, time=18),
    Message('note_on', channel=1, note=43, velocity=0, time=6),
    Message('note_on', channel=8, note=55, velocity=0, time=5),
    Message('note_on', channel=8, note=59, velocity=0, time=16),
    Message('note_on', channel=4, note=52, velocity=83, time=3),
    Message('note_on', channel=4, note=43, velocity=83, time=0),
    Message('note_on', channel=6, note=45, velocity=100, time=0),
    Message('note_on', channel=9, note=54, velocity=50, time=0),
    Message('note_on', channel=9, note=44, velocity=80, time=0),
    Message('note_on', channel=9, note=38, velocity=120, time=0),
    Message('note_on', channel=13, note=45, velocity=100, time=0),
    Message('note_on', channel=9, note=38, velocity=0, time=4),
    Message('note_on', channel=9, note=54, velocity=0, time=0),
    Message('note_on', channel=9, note=44, velocity=0, time=1),
    Message('note_on', channel=8, note=55, velocity=59, time=4),
    Message('note_on', channel=8, note=59, velocity=59, time=6),
    Message('note_on', channel=8, note=62, velocity=59, time=4),
    Message('note_on', channel=4, note=43, velocity=0, time=173),
    Message('note_on', channel=4, note=52, velocity=0, time=0),
    Message('note_on', channel=8, note=55, velocity=0, time=14),
    Message('note_on', channel=8, note=59, velocity=0, time=13),
    Message('note_on', channel=8, note=62, velocity=0, time=4),
    Message('note_on', channel=13, note=45, velocity=0, time=9),
    Message('note_on', channel=6, note=45, velocity=0, time=0),
    Message('note_on', channel=1, note=43, velocity=91, time=8),
    Message('note_on', channel=4, note=47, velocity=72, time=0),
    Message('note_on', channel=4, note=43, velocity=72, time=0),
    Message('note_on', channel=6, note=43, velocity=100, time=0),
    Message('note_on', channel=8, note=55, velocity=50, time=0),
    Message('note_on', channel=8, note=62, velocity=50, time=0),
    Message('note_on', channel=8, note=59, velocity=50, time=0),
    Message('note_on', channel=9, note=36, velocity=120, time=0),
    Message('note_on', channel=9, note=42, velocity=80, time=0),
    Message('note_on', channel=13, note=43, velocity=100, time=0),
    Message('note_on', channel=9, note=36, velocity=0, time=4),
    Message('note_on', channel=9, note=42, velocity=0, time=1),
    Message('note_on', channel=8, note=62, velocity=0, time=79),
    Message('note_on', channel=8, note=59, velocity=0, time=0),
    Message('note_on', channel=8, note=55, velocity=0, time=7),
    Message('note_on', channel=6, note=43, velocity=0, time=64),
    Message('note_on', channel=13, note=43, velocity=0, time=0),
    Message('note_on', channel=4, note=43, velocity=0, time=37),
    Message('note_on', channel=4, note=47, velocity=0, time=0),
    Message('note_on', channel=1, note=43, velocity=0, time=24),
    Message('note_on', channel=1, note=43, velocity=104, time=24),
    Message('note_on', channel=4, note=53, velocity=80, time=0),
    Message('note_on', channel=4, note=43, velocity=80, time=0),
    Message('note_on', channel=6, note=46, velocity=100, time=0),
    Message('note_on', channel=8, note=62, velocity=78, time=0),
    Message('note_on', channel=9, note=44, velocity=80, time=0),
    Message('note_on', channel=9, note=36, velocity=120, time=0),
    Message('note_on', channel=13, note=46, velocity=100, time=0),
    Message('note_on', channel=9, note=36, velocity=0, time=4),
    Message('note_on', channel=9, note=44, velocity=0, time=1),
    Message('note_on', channel=8, note=55, velocity=78, time=5),
    Message('note_on', channel=8, note=59, velocity=78, time=18),
    Message('note_on', channel=4, note=43, velocity=0, time=164),
    Message('note_on', channel=4, note=53, velocity=0, time=0),
    Message('note_on', channel=1, note=43, velocity=0, time=24),
    Message('note_on', channel=8, note=62, velocity=0, time=14),
    Message('note_on', channel=6, note=46, velocity=0, time=2),
    Message('note_on', channel=13, note=46, velocity=0, time=0),
    Message('note_on', channel=8, note=59, velocity=0, time=3),
    Message('note_on', channel=8, note=55, velocity=0, time=5),
    Message('note_on', channel=1, note=43, velocity=104, time=0),
    Message('note_on', channel=4, note=43, velocity=71, time=0),
    Message('note_on', channel=4, note=50, velocity=71, time=0),
    Message('note_on', channel=6, note=43, velocity=100, time=0),
    Message('note_on', channel=8, note=59, velocity=63, time=0),
    Message('note_on', channel=9, note=42, velocity=80, time=0),
    Message('note_on', channel=13, note=43, velocity=100, time=0),
    Message('note_on', channel=9, note=42, velocity=0, time=5),
    Message('note_on', channel=8, note=55, velocity=63, time=14),
    Message('note_on', channel=8, note=62, velocity=63, time=5),
    Message('note_on', channel=13, note=43, velocity=0, time=124),
    Message('note_on', channel=6, note=43, velocity=0, time=0),
    Message('note_on', channel=8, note=59, velocity=0, time=14),
    Message('note_on', channel=8, note=62, velocity=0, time=24),
    Message('note_on', channel=8, note=55, velocity=0, time=2),
    Message('note_on', channel=4, note=50, velocity=0, time=4),
    Message('note_on', channel=4, note=43, velocity=0, time=0),
    Message('note_on', channel=1, note=43, velocity=0, time=24),
    Message('note_on', channel=4, note=52, velocity=86, time=24),
    Message('note_on', channel=4, note=43, velocity=86, time=0),
    Message('note_on', channel=8, note=62, velocity=48, time=0),
    Message('note_on', channel=9, note=44, velocity=80, time=0),
    Message('note_on', channel=9, note=54, velocity=50, time=0),
    Message('note_on', channel=9, note=38, velocity=120, time=0),
    Message('note_on', channel=9, note=38, velocity=0, time=4),
    Message('note_on', channel=9, note=54, velocity=0, time=0),
    Message('note_on', channel=9, note=44, velocity=0, time=1),
    Message('note_on', channel=8, note=55, velocity=48, time=13),
    Message('note_on', channel=6, note=52, velocity=100, time=3),
    Message('note_on', channel=13, note=52, velocity=100, time=0),
    Message('note_on', channel=8, note=59, velocity=48, time=2),
    Message('note_on', channel=4, note=43, velocity=0, time=169),
    Message('note_on', channel=4, note=52, velocity=0, time=0),
    Message('note_on', channel=8, note=62, velocity=0, time=38),
    Message('note_on', channel=8, note=59, velocity=0, time=9),
    Message('note_on', channel=8, note=55, velocity=0, time=0),
    Message('note_on', channel=1, note=43, velocity=101, time=1),
    Message('note_on', channel=4, note=50, velocity=70, time=0),
    Message('note_on', channel=4, note=43, velocity=70, time=0),
    Message('note_on', channel=8, note=59, velocity=70, time=0),
    Message('note_on', channel=9, note=42, velocity=80, time=0),
    Message('note_on', channel=9, note=42, velocity=0, time=5),
    Message('note_on', channel=3, note=67, velocity=0, time=3),
    Message('note_on', channel=6, note=52, velocity=0, time=5),
    Message('note_on', channel=13, note=52, velocity=0, time=0),
    Message('note_on', channel=6, note=55, velocity=100, time=1),
    Message('note_on', channel=13, note=55, velocity=100, time=0),
    Message('note_on', channel=8, note=55, velocity=70, time=5),
    Message('note_on', channel=8, note=62, velocity=70, time=14),
    Message('note_on', channel=1, note=43, velocity=0, time=183),
    Message('note_on', channel=8, note=59, velocity=0, time=14),
    Message('note_on', channel=8, note=55, velocity=0, time=5),
    Message('note_on', channel=6, note=59, velocity=100, time=5),
    Message('pitchwheel', channel=6, pitch=-8192, time=0),
    Message('note_on', channel=8, note=55, velocity=80, time=0),
    Message('note_on', channel=9, note=44, velocity=80, time=0),
    Message('note_on', channel=9, note=36, velocity=120, time=0),
    Message('note_on', channel=13, note=59, velocity=100, time=0),
    Message('pitchwheel', channel=13, pitch=-8192, time=0),
    Message('note_on', channel=9, note=36, velocity=0, time=4),
    Message('note_on', channel=8, note=62, velocity=0, time=0),
    Message('note_on', channel=9, note=44, velocity=0, time=1),
    Message('note_on', channel=13, note=55, velocity=0, time=1),
    Message('note_on', channel=6, note=55, velocity=0, time=0),
    Message('pitchwheel', channel=6, pitch=-8064, time=1),
    Message('pitchwheel', channel=13, pitch=-8064, time=0),
    Message('pitchwheel', channel=6, pitch=-7680, time=7),
    Message('pitchwheel', channel=13, pitch=-7680, time=0),
    Message('note_on', channel=8, note=59, velocity=80, time=2),
    Message('pitchwheel', channel=6, pitch=-7296, time=5),
    Message('pitchwheel', channel=13, pitch=-7296, time=0),
    Message('note_on', channel=8, note=62, velocity=80, time=2),
    Message('pitchwheel', channel=6, pitch=-6784, time=5),
    Message('pitchwheel', channel=13, pitch=-6784, time=0),
    Message('pitchwheel', channel=6, pitch=-6400, time=7),
    Message('pitchwheel', channel=13, pitch=-6400, time=0),
    Message('pitchwheel', channel=6, pitch=-6016, time=7),
    Message('pitchwheel', channel=13, pitch=-6016, time=0),
    Message('pitchwheel', channel=6, pitch=-5504, time=7),
    Message('pitchwheel', channel=13, pitch=-5504, time=0),
    Message('pitchwheel', channel=6, pitch=-5120, time=7),
    Message('pitchwheel', channel=13, pitch=-5120, time=0),
    Message('pitchwheel', channel=6, pitch=-4736, time=7),
    Message('pitchwheel', channel=13, pitch=-4736, time=0),
    Message('pitchwheel', channel=6, pitch=-4224, time=7),
    Message('pitchwheel', channel=13, pitch=-4224, time=0),
    Message('pitchwheel', channel=6, pitch=-3840, time=7),
    Message('pitchwheel', channel=13, pitch=-3840, time=0),
    Message('pitchwheel', channel=6, pitch=-3456, time=7),
    Message('pitchwheel', channel=13, pitch=-3456, time=0),
    Message('pitchwheel', channel=6, pitch=-3072, time=7),
    Message('pitchwheel', channel=13, pitch=-3072, time=0),
    Message('pitchwheel', channel=6, pitch=-2560, time=7),
    Message('pitchwheel', channel=13, pitch=-2560, time=0),
    Message('pitchwheel', channel=6, pitch=-2176, time=7),
    Message('pitchwheel', channel=13, pitch=-2176, time=0),
    Message('pitchwheel', channel=6, pitch=-1792, time=7),
    Message('pitchwheel', channel=13, pitch=-1792, time=0),
    Message('pitchwheel', channel=6, pitch=-1280, time=8),
    Message('pitchwheel', channel=13, pitch=-1280, time=0),
    Message('pitchwheel', channel=6, pitch=-896, time=7),
    Message('pitchwheel', channel=13, pitch=-896, time=0),
    Message('pitchwheel', channel=6, pitch=-512, time=7),
    Message('pitchwheel', channel=13, pitch=-512, time=0),
    Message('pitchwheel', channel=6, pitch=0, time=7),
    Message('pitchwheel', channel=13, pitch=0, time=0),
    Message('note_on', channel=4, note=43, velocity=0, time=84),
    Message('note_on', channel=4, note=50, velocity=0, time=0),
    Message('note_on', channel=6, note=59, velocity=0, time=7),
    Message('note_on', channel=13, note=59, velocity=0, time=0),
    Message('note_on', channel=1, note=43, velocity=113, time=8),
    Message('note_on', channel=4, note=43, velocity=72, time=0),
    Message('note_on', channel=4, note=50, velocity=72, time=0),
    Message('note_on', channel=6, note=62, velocity=100, time=0),
    Message('note_on', channel=9, note=42, velocity=80, time=0),
    Message('note_on', channel=13, note=62, velocity=100, time=0),
    Message('note_on', channel=9, note=42, velocity=0, time=5),
    Message('note_on', channel=4, note=50, velocity=0, time=187),
    Message('note_on', channel=4, note=43, velocity=0, time=0),
    Message('note_on', channel=8, note=62, velocity=0, time=18),
    Message('note_on', channel=1, note=43, velocity=0, time=6),
    Message('note_on', channel=8, note=55, velocity=0, time=5),
    Message('note_on', channel=6, note=62, velocity=0, time=11),
    Message('note_on', channel=13, note=62, velocity=0, time=0),
    Message('note_on', channel=8, note=59, velocity=0, time=5),
    Message('note_on', channel=4, note=43, velocity=82, time=3),
    Message('note_on', channel=4, note=52, velocity=82, time=0),
    Message('note_on', channel=6, note=59, velocity=100, time=0),
    Message('note_on', channel=9, note=46, velocity=80, time=0),
    Message('note_on', channel=9, note=54, velocity=50, time=0),
    Message('note_on', channel=9, note=38, velocity=120, time=0),
    Message('note_on', channel=13, note=59, velocity=100, time=0),
    Message('note_on', channel=9, note=38, velocity=0, time=4),
    Message('note_on', channel=9, note=54, velocity=0, time=0),
    Message('note_on', channel=9, note=46, velocity=0, time=1),
    Message('note_on', channel=8, note=55, velocity=59, time=4),
    Message('note_on', channel=8, note=59, velocity=59, time=6),
    Message('note_on', channel=8, note=62, velocity=59, time=4),
    Message('pitchwheel', channel=6, pitch=0, time=37),
    Message('pitchwheel', channel=13, pitch=0, time=0),
    Message('pitchwheel', channel=6, pitch=-768, time=7),
    Message('pitchwheel', channel=13, pitch=-768, time=0),
    Message('pitchwheel', channel=6, pitch=-1536, time=7),
    Message('pitchwheel', channel=13, pitch=-1536, time=0),
    Message('pitchwheel', channel=6, pitch=-2304, time=7),
    Message('pitchwheel', channel=13, pitch=-2304, time=0),
    Message('pitchwheel', channel=6, pitch=-3200, time=7),
    Message('pitchwheel', channel=13, pitch=-3200, time=0),
    Message('pitchwheel', channel=6, pitch=-3968, time=7),
    Message('pitchwheel', channel=13, pitch=-3968, time=0),
    Message('pitchwheel', channel=6, pitch=-4736, time=7),
    Message('pitchwheel', channel=13, pitch=-4736, time=0),
    Message('pitchwheel', channel=6, pitch=-5632, time=7),
    Message('pitchwheel', channel=13, pitch=-5632, time=0),
    Message('pitchwheel', channel=6, pitch=-6400, time=7),
    Message('pitchwheel', channel=13, pitch=-6400, time=0),
    Message('pitchwheel', channel=6, pitch=-7168, time=8),
    Message('pitchwheel', channel=13, pitch=-7168, time=0),
    Message('pitchwheel', channel=6, pitch=-8064, time=7),
    Message('pitchwheel', channel=13, pitch=-8064, time=0),
    Message('note_on', channel=4, note=43, velocity=0, time=65),
    Message('note_on', channel=4, note=52, velocity=0, time=0),
    Message('note_on', channel=13, note=59, velocity=0, time=12),
    Message('note_on', channel=6, note=59, velocity=0, time=0),
    Message('note_on', channel=8, note=55, velocity=0, time=2),
    Message('note_on', channel=8, note=59, velocity=0, time=13),
    Message('note_on', channel=8, note=62, velocity=0, time=4),
    Message('pitchwheel', channel=6, pitch=0, time=9),
    Message('pitchwheel', channel=13, pitch=0, time=0),
    Message('note_on', channel=1, note=43, velocity=108, time=8),
    Message('note_on', channel=4, note=47, velocity=70, time=0),
    Message('note_on', channel=4, note=43, velocity=70, time=0),
    Message('note_on', channel=6, note=55, velocity=100, time=0),
    Message('note_on', channel=8, note=59, velocity=50, time=0),
    Message('note_on', channel=8, note=55, velocity=50, time=0),
    Message('note_on', channel=8, note=62, velocity=50, time=0),
    Message('note_on', channel=9, note=42, velocity=80, time=0),
    Message('note_on', channel=13, note=55, velocity=100, time=0),
    Message('note_on', channel=9, note=42, velocity=0, time=5),
    Message('note_on', channel=8, note=62, velocity=0, time=79),
    Message('note_on', channel=8, note=59, velocity=0, time=0),
    Message('note_on', channel=8, note=55, velocity=0, time=7),
    Message('note_on', channel=4, note=43, velocity=0, time=101),
    Message('note_on', channel=4, note=47, velocity=0, time=0),
    Message('note_on', channel=1, note=43, velocity=0, time=24),
    Message('note_on', channel=6, note=55, velocity=0, time=16),
    Message('note_on', channel=13, note=55, velocity=0, time=0),
    Message('note_on', channel=1, note=43, velocity=104, time=8),
    Message('note_on', channel=4, note=50, velocity=82, time=0),
    Message('note_on', channel=4, note=43, velocity=82, time=0),
    Message('note_on', channel=6, note=55, velocity=100, time=0),
    Message('note_on', channel=8, note=62, velocity=78, time=0),
    Message('note_on', channel=9, note=36, velocity=120, time=0),
    Message('note_on', channel=9, note=44, velocity=80, time=0),
    Message('note_on', channel=13, note=55, velocity=100, time=0),
    Message('note_on', channel=9, note=36, velocity=0, time=4),
    Message('note_on', channel=9, note=44, velocity=0, time=1),
    Message('note_on', channel=8, note=55, velocity=78, time=5),
    Message('note_on', channel=8, note=59, velocity=78, time=18),
    Message('note_on', channel=4, note=43, velocity=0, time=164),
    Message('note_on', channel=4, note=50, velocity=0, time=0),
    Message('note_on', channel=1, note=43, velocity=0, time=24),
    Message('note_on', channel=8, note=62, velocity=0, time=14),
    Message('note_on', channel=8, note=59, velocity=0, time=5),
    Message('note_on', channel=8, note=55, velocity=0, time=5),
    Message('note_on', channel=1, note=43, velocity=91, time=0),
    Message('note_on', channel=4, note=43, velocity=70, time=0),
    Message('note_on', channel=4, note=50, velocity=70, time=0),
    Message('note_on', channel=8, note=59, velocity=63, time=0),
    Message('note_on', channel=9, note=36, velocity=120, time=0),
    Message('note_on', channel=9, note=42, velocity=80, time=0),
    Message('note_on', channel=9, note=42, velocity=0, time=5),
    Message('control_change', channel=13, control=1, value=93, time=2),
    Message('note_on', channel=9, note=36, velocity=0, time=9),
    Message('note_on', channel=8, note=55, velocity=63, time=3),
    Message('note_on', channel=8, note=62, velocity=63, time=5),
    Message('note_on', channel=8, note=59, velocity=0, time=138),
    Message('note_on', channel=8, note=62, velocity=0, time=24),
    Message('note_on', channel=8, note=55, velocity=0, time=2),
    Message('note_on', channel=4, note=50, velocity=0, time=4),
    Message('note_on', channel=4, note=43, velocity=0, time=0),
    Message('note_on', channel=1, note=43, velocity=0, time=24),
    Message('note_on', channel=6, note=55, velocity=0, time=2),
    Message('note_on', channel=13, note=55, velocity=0, time=0),
    Message('pitchwheel', channel=6, pitch=8191, time=0),
    Message('pitchwheel', channel=13, pitch=8191, time=0),
    Message('control_change', channel=13, control=1, value=0, time=14),
    Message('note_on', channel=1, note=45, velocity=83, time=8),
    Message('note_on', channel=3, note=64, velocity=100, time=0),
    Message('note_on', channel=4, note=43, velocity=80, time=0),
    Message('note_on', channel=4, note=52, velocity=80, time=0),
    Message('note_on', channel=6, note=50, velocity=100, time=0),
    Message('note_on', channel=8, note=62, velocity=48, time=0),
    Message('note_on', channel=9, note=44, velocity=80, time=0),
    Message('note_on', channel=9, note=54, velocity=50, time=0),
    Message('note_on', channel=9, note=38, velocity=105, time=0),
    Message('note_on', channel=13, note=50, velocity=100, time=0),
    MetaMessage('lyrics', text='Well ', time=0),
    Message('note_on', channel=9, note=38, velocity=0, time=4),
    Message('note_on', channel=9, note=54, velocity=0, time=0),
    Message('note_on', channel=9, note=44, velocity=0, time=1),
    Message('note_on', channel=8, note=55, velocity=48, time=13),
    Message('note_on', channel=8, note=59, velocity=48, time=5),
    Message('pitchwheel', channel=6, pitch=8191, time=68),
    Message('pitchwheel', channel=13, pitch=8191, time=0),
    Message('pitchwheel', channel=6, pitch=7424, time=7),
    Message('pitchwheel', channel=13, pitch=7424, time=0),
    Message('pitchwheel', channel=6, pitch=6656, time=7),
    Message('pitchwheel', channel=13, pitch=6656, time=0),
    Message('pitchwheel', channel=6, pitch=5760, time=7),
    Message('pitchwheel', channel=13, pitch=5760, time=0),
    Message('pitchwheel', channel=6, pitch=4992, time=8),
    Message('pitchwheel', channel=13, pitch=4992, time=0),
    Message('pitchwheel', channel=6, pitch=4096, time=7),
    Message('pitchwheel', channel=13, pitch=4096, time=0),
    Message('pitchwheel', channel=6, pitch=3328, time=7),
    Message('pitchwheel', channel=13, pitch=3328, time=0),
    Message('pitchwheel', channel=6, pitch=2560, time=7),
    Message('pitchwheel', channel=13, pitch=2560, time=0),
    Message('pitchwheel', channel=6, pitch=1664, time=7),
    Message('pitchwheel', channel=13, pitch=1664, time=0),
    Message('pitchwheel', channel=6, pitch=896, time=7),
    Message('pitchwheel', channel=13, pitch=896, time=0),
    Message('pitchwheel', channel=6, pitch=0, time=7),
    Message('pitchwheel', channel=13, pitch=0, time=0),
    Message('note_on', channel=4, note=52, velocity=0, time=30),
    Message('note_on', channel=4, note=43, velocity=0, time=0),
    Message('note_on', channel=1, note=45, velocity=0, time=24),
    Message('note_on', channel=8, note=62, velocity=0, time=14),
    Message('note_on', channel=6, note=50, velocity=0, time=2),
    Message('note_on', channel=13, note=50, velocity=0, time=0),
    Message('note_on', channel=8, note=55, velocity=0, time=7),
    Message('note_on', channel=8, note=59, velocity=0, time=0),
    Message('note_on', channel=3, note=64, velocity=0, time=1),
    Message('note_on', channel=1, note=45, velocity=86, time=0),
    Message('note_on', channel=3, note=67, velocity=100, time=0),
    Message('note_on', channel=4, note=47, velocity=70, time=0),
    Message('note_on', channel=4, note=43, velocity=70, time=0),
    Message('note_on', channel=6, note=48, velocity=100, time=0),
    Message('note_on', channel=8, note=59, velocity=70, time=0),
    Message('note_on', channel=9, note=42, velocity=80, time=0),
    Message('note_on', channel=13, note=48, velocity=100, time=0),
    MetaMessage('lyrics', text='i, ', time=0),
    Message('note_on', channel=9, note=42, velocity=0, time=5),
    Message('note_on', channel=8, note=55, velocity=70, time=14),
    Message('note_on', channel=8, note=62, velocity=70, time=14),
    Message('note_on', channel=4, note=43, velocity=0, time=159),
    Message('note_on', channel=4, note=47, velocity=0, time=0),
    Message('note_on', channel=6, note=48, velocity=0, time=12),
    Message('note_on', channel=13, note=48, velocity=0, time=0),
    Message('note_on', channel=1, note=45, velocity=0, time=12),
    Message('note_on', channel=2, note=71, velocity=0, time=7),
    Message('note_on', channel=2, note=79, velocity=0, time=6),
    Message('note_on', channel=8, note=59, velocity=0, time=1),
    Message('note_on', channel=2, note=74, velocity=0, time=4),
    Message('note_on', channel=8, note=55, velocity=0, time=1),
    Message('note_on', channel=3, note=67, velocity=0, time=5),
    Message('note_on', channel=1, note=48, velocity=97, time=0),
    Message('note_on', channel=2, note=76, velocity=55, time=0),
    Message('note_on', channel=2, note=79, velocity=59, time=0),
    Message('note_on', channel=2, note=72, velocity=70, time=0),
    Message('note_on', channel=3, note=69, velocity=100, time=0),
    Message('note_on', channel=4, note=55, velocity=86, time=0),
    Message('note_on', channel=4, note=48, velocity=86, time=0),
    Message('note_on', channel=6, note=48, velocity=100, time=0),
    Message('note_on', channel=8, note=55, velocity=80, time=0),
    Message('note_on', channel=9, note=49, velocity=80, time=0),
    Message('note_on', channel=9, note=36, velocity=120, time=0),
    Message('note_on', channel=13, note=48, velocity=100, time=0),
    MetaMessage('lyrics', text='wish ', time=0),
    Message('note_on', channel=9, note=36, velocity=0, time=4),
    Message('note_on', channel=8, note=62, velocity=0, time=0),
    Message('note_on', channel=9, note=49, velocity=0, time=1),
    Message('note_on', channel=8, note=60, velocity=80, time=11),
    Message('note_on', channel=8, note=64, velocity=80, time=7),
    Message('note_on', channel=4, note=48, velocity=0, time=169),
    Message('note_on', channel=4, note=55, velocity=0, time=0),
    Message('note_on', channel=1, note=48, velocity=0, time=24),
    Message('note_on', channel=3, note=69, velocity=0, time=24),
    Message('note_on', channel=1, note=48, velocity=88, time=0),
    Message('note_on', channel=3, note=67, velocity=100, time=0),
    Message('note_on', channel=4, note=48, velocity=69, time=0),
    Message('note_on', channel=4, note=55, velocity=69, time=0),
    Message('note_on', channel=9, note=42, velocity=80, time=0),
    Message('control_change', channel=13, control=1, value=93, time=0),
    MetaMessage('lyrics', text='i ', time=0),
    Message('note_on', channel=9, note=42, velocity=0, time=5),
    Message('note_on', channel=4, note=55, velocity=0, time=187),
    Message('note_on', channel=4, note=48, velocity=0, time=0),
    Message('note_on', channel=8, note=64, velocity=0, time=18),
    Message('note_on', channel=1, note=48, velocity=0, time=6),
    Message('note_on', channel=8, note=55, velocity=0, time=5),
    Message('control_change', channel=13, control=1, value=0, time=4),
    Message('note_on', channel=6, note=48, velocity=0, time=7),
    Message('note_on', channel=13, note=48, velocity=0, time=0),
    Message('note_on', channel=8, note=60, velocity=0, time=5),
    Message('note_on', channel=4, note=48, velocity=83, time=3),
    Message('note_on', channel=4, note=57, velocity=83, time=0),
    Message('note_on', channel=9, note=44, velocity=80, time=0),
    Message('note_on', channel=9, note=54, velocity=50, time=0),
    Message('note_on', channel=9, note=38, velocity=120, time=0),
    Message('note_on', channel=9, note=38, velocity=0, time=4),
    Message('note_on', channel=9, note=54, velocity=0, time=0),
    Message('note_on', channel=9, note=44, velocity=0, time=1),
    Message('note_on', channel=8, note=55, velocity=59, time=4),
    Message('note_on', channel=8, note=60, velocity=59, time=6),
    Message('note_on', channel=8, note=64, velocity=59, time=4),
    Message('note_on', channel=4, note=48, velocity=0, time=173),
    Message('note_on', channel=4, note=57, velocity=0, time=0),
    Message('note_on', channel=8, note=55, velocity=0, time=14),
    Message('note_on', channel=8, note=60, velocity=0, time=13),
    Message('note_on', channel=8, note=64, velocity=0, time=4),
    Message('note_on', channel=3, note=67, velocity=0, time=17),
    Message('note_on', channel=1, note=48, velocity=86, time=0),
    Message('note_on', channel=3, note=67, velocity=100, time=0),
    Message('note_on', channel=4, note=48, velocity=72, time=0),
    Message('note_on', channel=4, note=52, velocity=72, time=0),
    Message('note_on', channel=8, note=60, velocity=50, time=0),
    Message('note_on', channel=8, note=64, velocity=50, time=0),
    Message('note_on', channel=8, note=55, velocity=50, time=0),
    Message('note_on', channel=9, note=36, velocity=120, time=0),
    Message('note_on', channel=9, note=42, velocity=80, time=0),
    MetaMessage('lyrics', text='lived ', time=0),
    Message('note_on', channel=9, note=36, velocity=0, time=4),
    Message('note_on', channel=9, note=42, velocity=0, time=1),
    Message('note_on', channel=8, note=64, velocity=0, time=79),
    Message('note_on', channel=8, note=60, velocity=0, time=0),
    Message('note_on', channel=8, note=55, velocity=0, time=7),
    Message('note_on', channel=4, note=52, velocity=0, time=101),
    Message('note_on', channel=4, note=48, velocity=0, time=0),
    Message('note_on', channel=1, note=48, velocity=0, time=24),
    Message('note_on', channel=1, note=48, velocity=94, time=24),
    Message('note_on', channel=4, note=55, velocity=80, time=0),
    Message('note_on', channel=4, note=48, velocity=80, time=0),
    Message('note_on', channel=8, note=64, velocity=78, time=0),
    Message('note_on', channel=9, note=36, velocity=120, time=0),
    Message('note_on', channel=9, note=44, velocity=80, time=0),
    Message('note_on', channel=9, note=36, velocity=0, time=4),
    Message('note_on', channel=9, note=44, velocity=0, time=1),
    Message('note_on', channel=8, note=55, velocity=78, time=5),
    Message('note_on', channel=8, note=60, velocity=78, time=18),
    Message('note_on', channel=4, note=48, velocity=0, time=164),
    Message('note_on', channel=4, note=55, velocity=0, time=0),
    Message('note_on', channel=1, note=48, velocity=0, time=24),
    Message('note_on', channel=8, note=64, velocity=0, time=14),
    Message('note_on', channel=8, note=60, velocity=0, time=5),
    Message('note_on', channel=8, note=55, velocity=0, time=5),
    Message('note_on', channel=1, note=48, velocity=91, time=0),
    Message('note_on', channel=4, note=48, velocity=71, time=0),
    Message('note_on', channel=4, note=55, velocity=71, time=0),
    Message('note_on', channel=8, note=60, velocity=63, time=0),
    Message('note_on', channel=9, note=42, velocity=80, time=0),
    Message('note_on', channel=9, note=42, velocity=0, time=5),
    Message('note_on', channel=8, note=55, velocity=63, time=14),
    Message('note_on', channel=8, note=64, velocity=63, time=5),
    Message('note_on', channel=8, note=60, velocity=0, time=138),
    Message('note_on', channel=8, note=64, velocity=0, time=24),
    Message('note_on', channel=8, note=55, velocity=0, time=2),
    Message('note_on', channel=4, note=55, velocity=0, time=4),
    Message('note_on', channel=4, note=48, velocity=0, time=0),
    Message('note_on', channel=1, note=48, velocity=0, time=24),
    Message('note_on', channel=3, note=67, velocity=100, time=24),
    Message('note_on', channel=4, note=48, velocity=86, time=0),
    Message('note_on', channel=4, note=57, velocity=86, time=0),
    Message('note_on', channel=8, note=64, velocity=48, time=0),
    Message('note_on', channel=9, note=54, velocity=50, time=0),
    Message('note_on', channel=9, note=44, velocity=80, time=0),
    Message('note_on', channel=9, note=38, velocity=120, time=0),
    MetaMessage('lyrics', text='in ', time=0),
    Message('note_on', channel=9, note=38, velocity=0, time=4),
    Message('note_on', channel=9, note=54, velocity=0, time=0),
    Message('note_on', channel=9, note=44, velocity=0, time=1),
    Message('note_on', channel=8, note=55, velocity=48, time=13),
    Message('note_on', channel=8, note=60, velocity=48, time=5),
    Message('note_on', channel=3, note=67, velocity=0, time=97),
    Message('note_on', channel=4, note=57, velocity=0, time=72),
    Message('note_on', channel=4, note=48, velocity=0, time=0),
    Message('note_on', channel=8, note=64, velocity=0, time=38),
    Message('note_on', channel=8, note=55, velocity=0, time=9),
    Message('note_on', channel=8, note=60, velocity=0, time=0),
    Message('note_on', channel=3, note=67, velocity=0, time=1),
    Message('note_on', channel=1, note=48, velocity=104, time=0),
    Message('note_on', channel=3, note=64, velocity=100, time=0),
    Message('note_on', channel=4, note=55, velocity=70, time=0),
    Message('note_on', channel=4, note=48, velocity=70, time=0),
    Message('note_on', channel=8, note=60, velocity=70, time=0),
    Message('note_on', channel=9, note=42, velocity=80, time=0),
    MetaMessage('lyrics', text='the, ', time=0),
    MetaMessage('lyrics', text='\r', time=0),
    Message('note_on', channel=9, note=42, velocity=0, time=5),
    Message('note_on', channel=8, note=55, velocity=70, time=14),
    Message('note_on', channel=8, note=64, velocity=70, time=14),
    Message('note_on', channel=1, note=48, velocity=0, time=183),
    Message('note_on', channel=8, note=60, velocity=0, time=14),
    Message('note_on', channel=8, note=55, velocity=0, time=5),
    Message('note_on', channel=3, note=64, velocity=0, time=5),
    Message('note_on', channel=2, note=82, velocity=63, time=0),
    Message('note_on', channel=3, note=67, velocity=100, time=0),
    Message('note_on', channel=8, note=55, velocity=80, time=0),
    Message('note_on', channel=9, note=44, velocity=80, time=0),
    Message('note_on', channel=9, note=36, velocity=120, time=0),
    MetaMessage('lyrics', text='land ', time=0),
    Message('note_on', channel=9, note=36, velocity=0, time=4),
    Message('note_on', channel=8, note=64, velocity=0, time=0),
    Message('note_on', channel=9, note=44, velocity=0, time=1),
    Message('note_on', channel=8, note=60, velocity=80, time=11),
    Message('note_on', channel=8, note=64, velocity=80, time=7),
    Message('note_on', channel=4, note=55, velocity=0, time=188),
    Message('note_on', channel=4, note=48, velocity=0, time=21),
    Message('note_on', channel=3, note=67, velocity=0, time=8),
    Message('note_on', channel=1, note=48, velocity=108, time=0),
    Message('note_on', channel=3, note=67, velocity=100, time=0),
    Message('note_on', channel=4, note=48, velocity=72, time=0),
    Message('note_on', channel=4, note=55, velocity=72, time=0),
    Message('note_on', channel=9, note=42, velocity=80, time=0),
    MetaMessage('lyrics', text='of ', time=0),
    Message('note_on', channel=9, note=42, velocity=0, time=5),
    Message('note_on', channel=4, note=48, velocity=0, time=187),
    Message('note_on', channel=4, note=55, velocity=0, time=0),
    Message('note_on', channel=8, note=64, velocity=0, time=18),
    Message('note_on', channel=1, note=48, velocity=0, time=6),
    Message('note_on', channel=8, note=55, velocity=0, time=5),
    Message('note_on', channel=8, note=60, velocity=0, time=16),
    Message('note_on', channel=4, note=57, velocity=82, time=3),
    Message('note_on', channel=4, note=48, velocity=82, time=0),
    Message('note_on', channel=9, note=44, velocity=80, time=0),
    Message('note_on', channel=9, note=54, velocity=50, time=0),
    Message('note_on', channel=9, note=38, velocity=120, time=0),
    Message('note_on', channel=9, note=38, velocity=0, time=4),
    Message('note_on', channel=9, note=54, velocity=0, time=0),
    Message('note_on', channel=9, note=44, velocity=0, time=1),
    Message('note_on', channel=8, note=55, velocity=59, time=4),
    Message('note_on', channel=8, note=60, velocity=59, time=6),
    Message('note_on', channel=8, note=64, velocity=59, time=4),
    Message('note_on', channel=4, note=48, velocity=0, time=173),
    Message('note_on', channel=4, note=57, velocity=0, time=0),
    Message('note_on', channel=8, note=55, velocity=0, time=14),
    Message('note_on', channel=8, note=60, velocity=0, time=13),
    Message('note_on', channel=8, note=64, velocity=0, time=4),
    Message('note_on', channel=3, note=67, velocity=0, time=17),
    Message('note_on', channel=1, note=48, velocity=97, time=0),
    Message('note_on', channel=3, note=64, velocity=100, time=0),
    Message('note_on', channel=4, note=52, velocity=70, time=0),
    Message('note_on', channel=4, note=48, velocity=70, time=0),
    Message('note_on', channel=8, note=64, velocity=50, time=0),
    Message('note_on', channel=8, note=60, velocity=50, time=0),
    Message('note_on', channel=8, note=55, velocity=50, time=0),
    Message('note_on', channel=9, note=42, velocity=80, time=0),
    MetaMessage('lyrics', text='foo', time=0),
    Message('note_on', channel=9, note=42, velocity=0, time=5),
    Message('note_on', channel=8, note=64, velocity=0, time=79),
    Message('note_on', channel=8, note=60, velocity=0, time=0),
    Message('note_on', channel=8, note=55, velocity=0, time=7),
    Message('note_on', channel=3, note=64, velocity=0, time=29),
    Message('note_on', channel=3, note=62, velocity=100, time=0),
    Message('note_on', channel=4, note=48, velocity=0, time=72),
    Message('note_on', channel=4, note=52, velocity=0, time=0),
    Message('note_on', channel=1, note=48, velocity=0, time=24),
    Message('note_on', channel=3, note=62, velocity=0, time=24),
    Message('note_on', channel=1, note=48, velocity=101, time=0),
    Message('note_on', channel=3, note=60, velocity=100, time=0),
    Message('note_on', channel=4, note=48, velocity=82, time=0),
    Message('note_on', channel=4, note=55, velocity=82, time=0),
    Message('note_on', channel=8, note=64, velocity=78, time=0),
    Message('note_on', channel=9, note=44, velocity=80, time=0),
    Message('note_on', channel=9, note=36, velocity=120, time=0),
    MetaMessage('lyrics', text='ls, ', time=0),
    MetaMessage('lyrics', text='\r', time=0),
    Message('note_on', channel=9, note=36, velocity=0, time=4),
    Message('note_on', channel=9, note=44, velocity=0, time=1),
    Message('note_on', channel=8, note=55, velocity=78, time=5),
    Message('note_on', channel=8, note=60, velocity=78, time=18),
    Message('note_on', channel=4, note=48, velocity=0, time=164),
    Message('note_on', channel=4, note=55, velocity=0, time=0),
    Message('note_on', channel=1, note=48, velocity=0, time=24),
    Message('note_on', channel=8, note=64, velocity=0, time=14),
    Message('note_on', channel=8, note=60, velocity=0, time=5),
    Message('note_on', channel=8, note=55, velocity=0, time=5),
    Message('note_on', channel=1, note=48, velocity=91, time=0),
    Message('note_on', channel=4, note=48, velocity=70, time=0),
    Message('note_on', channel=4, note=55, velocity=70, time=0),
    Message('note_on', channel=8, note=60, velocity=63, time=0),
    Message('note_on', channel=9, note=42, velocity=80, time=0),
    Message('note_on', channel=9, note=42, velocity=0, time=5),
    Message('note_on', channel=8, note=55, velocity=63, time=14),
    Message('note_on', channel=8, note=64, velocity=63, time=5),
    Message('note_on', channel=3, note=60, velocity=0, time=11),
    Message('note_on', channel=8, note=60, velocity=0, time=127),
    Message('note_on', channel=8, note=64, velocity=0, time=24),
    Message('note_on', channel=8, note=55, velocity=0, time=2),
    Message('note_on', channel=4, note=55, velocity=0, time=4),
    Message('note_on', channel=4, note=48, velocity=0, time=0),
    Message('note_on', channel=1, note=48, velocity=0, time=24),
    Message('note_on', channel=1, note=45, velocity=104, time=24),
    Message('note_on', channel=4, note=48, velocity=80, time=0),
    Message('note_on', channel=4, note=57, velocity=80, time=0),
    Message('note_on', channel=8, note=64, velocity=48, time=0),
    Message('note_on', channel=9, note=46, velocity=80, time=0),
    Message('note_on', channel=9, note=54, velocity=50, time=0),
    Message('note_on', channel=9, note=38, velocity=120, time=0),
    Message('note_on', channel=9, note=38, velocity=0, time=4),
    Message('note_on', channel=9, note=54, velocity=0, time=0),
    Message('note_on', channel=9, note=46, velocity=0, time=1),
    Message('note_on', channel=8, note=55, velocity=48, time=13),
    Message('note_on', channel=8, note=60, velocity=48, time=5),
    Message('note_on', channel=4, note=57, velocity=0, time=169),
    Message('note_on', channel=4, note=48, velocity=0, time=0),
    Message('note_on', channel=1, note=45, velocity=0, time=24),
    Message('note_on', channel=8, note=64, velocity=0, time=14),
    Message('note_on', channel=8, note=55, velocity=0, time=9),
    Message('note_on', channel=8, note=60, velocity=0, time=0),
    Message('note_on', channel=1, note=40, velocity=113, time=1),
    Message('note_on', channel=3, note=60, velocity=100, time=0),
    Message('note_on', channel=4, note=48, velocity=70, time=0),
    Message('note_on', channel=4, note=52, velocity=70, time=0),
    Message('note_on', channel=8, note=60, velocity=70, time=0),
    Message('note_on', channel=9, note=42, velocity=80, time=0),
    MetaMessage('lyrics', text='where, ', time=0),
    Message('note_on', channel=9, note=42, velocity=0, time=5),
    Message('note_on', channel=8, note=55, velocity=70, time=14),
    Message('note_on', channel=8, note=64, velocity=70, time=14),
    Message('note_on', channel=4, note=52, velocity=0, time=159),
    Message('note_on', channel=4, note=48, velocity=0, time=0),
    Message('note_on', channel=1, note=40, velocity=0, time=24),
    Message('note_on', channel=8, note=60, velocity=0, time=14),
    Message('note_on', channel=8, note=55, velocity=0, time=5),
    Message('note_on', channel=3, note=60, velocity=0, time=5),
    Message('note_on', channel=2, note=82, velocity=0, time=0),
    Message('note_on', channel=2, note=79, velocity=0, time=0),
    Message('note_on', channel=2, note=76, velocity=0, time=0),
    Message('note_on', channel=1, note=41, velocity=97, time=0),
    Message('note_on', channel=2, note=81, velocity=66, time=0),
    Message('note_on', channel=2, note=77, velocity=63, time=0),
    Message('note_on', channel=3, note=63, velocity=100, time=0),
    Message('note_on', channel=4, note=41, velocity=86, time=0),
    Message('note_on', channel=4, note=48, velocity=86, time=0),
    Message('note_on', channel=8, note=57, velocity=80, time=0),
    Message('note_on', channel=9, note=36, velocity=120, time=0),
    Message('note_on', channel=9, note=44, velocity=80, time=0),
    MetaMessage('lyrics', text='no ', time=0),
    Message('note_on', channel=9, note=36, velocity=0, time=4),
    Message('note_on', channel=8, note=64, velocity=0, time=0),
    Message('note_on', channel=9, note=44, velocity=0, time=1),
    Message('note_on', channel=8, note=60, velocity=80, time=11),
    Message('note_on', channel=8, note=65, velocity=80, time=7),
    Message('note_on', channel=4, note=48, velocity=0, time=169),
    Message('note_on', channel=4, note=41, velocity=0, time=0),
    Message('note_on', channel=1, note=41, velocity=0, time=24),
    Message('note_on', channel=3, note=63, velocity=0, time=24),
    Message('note_on', channel=1, note=41, velocity=97, time=0),
    Message('note_on', channel=3, note=62, velocity=100, time=0),
    Message('note_on', channel=4, note=41, velocity=69, time=0),
    Message('note_on', channel=4, note=48, velocity=69, time=0),
    Message('note_on', channel=9, note=42, velocity=80, time=0),
    MetaMessage('lyrics', text='one ', time=0),
    Message('note_on', channel=9, note=42, velocity=0, time=5),
    Message('note_on', channel=4, note=48, velocity=0, time=187),
    Message('note_on', channel=4, note=41, velocity=0, time=0),
    Message('note_on', channel=8, note=65, velocity=0, time=18),
    Message('note_on', channel=1, note=41, velocity=0, time=6),
    Message('note_on', channel=8, note=57, velocity=0, time=5),
    Message('note_on', channel=8, note=60, velocity=0, time=16),
    Message('note_on', channel=4, note=41, velocity=83, time=3),
    Message('note_on', channel=4, note=50, velocity=83, time=0),
    Message('note_on', channel=9, note=44, velocity=80, time=0),
    Message('note_on', channel=9, note=54, velocity=50, time=0),
    Message('note_on', channel=9, note=38, velocity=120, time=0),
    Message('note_on', channel=9, note=38, velocity=0, time=4),
    Message('note_on', channel=9, note=54, velocity=0, time=0),
    Message('note_on', channel=9, note=44, velocity=0, time=1),
    Message('note_on', channel=8, note=57, velocity=59, time=4),
    Message('note_on', channel=8, note=60, velocity=59, time=6),
    Message('note_on', channel=8, note=65, velocity=59, time=4),
    Message('note_on', channel=4, note=41, velocity=0, time=173),
    Message('note_on', channel=4, note=50, velocity=0, time=0),
    Message('note_on', channel=8, note=57, velocity=0, time=14),
    Message('note_on', channel=8, note=60, velocity=0, time=13),
    Message('note_on', channel=8, note=65, velocity=0, time=4),
    Message('note_on', channel=3, note=62, velocity=0, time=17),
    Message('note_on', channel=1, note=41, velocity=91, time=0),
    Message('note_on', channel=3, note=60, velocity=100, time=0),
    Message('note_on', channel=4, note=45, velocity=72, time=0),
    Message('note_on', channel=4, note=41, velocity=72, time=0),
    Message('note_on', channel=8, note=60, velocity=50, time=0),
    Message('note_on', channel=8, note=65, velocity=50, time=0),
    Message('note_on', channel=8, note=57, velocity=50, time=0),
    Message('note_on', channel=9, note=42, velocity=80, time=0),
    Message('note_on', channel=9, note=36, velocity=120, time=0),
    MetaMessage('lyrics', text='knew ', time=0),
    Message('note_on', channel=9, note=42, velocity=0, time=5),
    Message('note_on', channel=9, note=36, velocity=0, time=11),
    Message('note_on', channel=8, note=65, velocity=0, time=68),
    Message('note_on', channel=8, note=60, velocity=0, time=0),
    Message('note_on', channel=8, note=57, velocity=0, time=7),
    Message('note_on', channel=4, note=41, velocity=0, time=101),
    Message('note_on', channel=4, note=45, velocity=0, time=0),
    Message('note_on', channel=1, note=41, velocity=0, time=24),
    Message('note_on', channel=1, note=41, velocity=104, time=24),
    Message('note_on', channel=4, note=41, velocity=80, time=0),
    Message('note_on', channel=4, note=51, velocity=80, time=0),
    Message('note_on', channel=8, note=65, velocity=78, time=0),
    Message('note_on', channel=9, note=44, velocity=80, time=0),
    Message('note_on', channel=9, note=36, velocity=120, time=0),
    Message('note_on', channel=9, note=36, velocity=0, time=4),
    Message('note_on', channel=9, note=44, velocity=0, time=1),
    Message('note_on', channel=8, note=57, velocity=78, time=5),
    Message('note_on', channel=8, note=60, velocity=78, time=18),
    Message('note_on', channel=4, note=51, velocity=0, time=164),
    Message('note_on', channel=4, note=41, velocity=0, time=0),
    Message('note_on', channel=1, note=41, velocity=0, time=24),
    Message('note_on', channel=8, note=65, velocity=0, time=14),
    Message('note_on', channel=8, note=60, velocity=0, time=5),
    Message('note_on', channel=8, note=57, velocity=0, time=5),
    Message('note_on', channel=1, note=41, velocity=104, time=0),
    Message('note_on', channel=4, note=41, velocity=71, time=0),
    Message('note_on', channel=4, note=48, velocity=71, time=0),
    Message('note_on', channel=8, note=60, velocity=63, time=0),
    Message('note_on', channel=9, note=42, velocity=80, time=0),
    Message('note_on', channel=9, note=42, velocity=0, time=5),
    Message('note_on', channel=8, note=57, velocity=63, time=14),
    Message('note_on', channel=8, note=65, velocity=63, time=5),
    Message('note_on', channel=8, note=60, velocity=0, time=138),
    Message('note_on', channel=8, note=65, velocity=0, time=24),
    Message('note_on', channel=8, note=57, velocity=0, time=2),
    Message('note_on', channel=4, note=48, velocity=0, time=4),
    Message('note_on', channel=4, note=41, velocity=0, time=0),
    Message('note_on', channel=1, note=41, velocity=0, time=24),
    Message('note_on', channel=3, note=60, velocity=0, time=24),
    Message('note_on', channel=3, note=63, velocity=100, time=0),
    Message('note_on', channel=4, note=50, velocity=86, time=0),
    Message('note_on', channel=4, note=41, velocity=86, time=0),
    Message('note_on', channel=8, note=65, velocity=48, time=0),
    Message('note_on', channel=9, note=54, velocity=50, time=0),
    Message('note_on', channel=9, note=44, velocity=80, time=0),
    Message('note_on', channel=9, note=38, velocity=120, time=0),
    MetaMessage('lyrics', text='my ', time=0),
    Message('note_on', channel=9, note=38, velocity=0, time=4),
    Message('note_on', channel=9, note=54, velocity=0, time=0),
    Message('note_on', channel=9, note=44, velocity=0, time=1),
    Message('note_on', channel=8, note=57, velocity=48, time=13),
    Message('note_on', channel=8, note=60, velocity=48, time=5),
    Message('note_on', channel=4, note=41, velocity=0, time=169),
    Message('note_on', channel=4, note=50, velocity=0, time=0),
    Message('note_on', channel=8, note=65, velocity=0, time=38),
    Message('note_on', channel=8, note=60, velocity=0, time=9),
    Message('note_on', channel=8, note=57, velocity=0, time=0),
    Message('note_on', channel=3, note=63, velocity=0, time=1),
    Message('note_on', channel=1, note=41, velocity=101, time=0),
    Message('note_on', channel=3, note=62, velocity=100, time=0),
    Message('note_on', channel=4, note=41, velocity=70, time=0),
    Message('note_on', channel=4, note=48, velocity=70, time=0),
    Message('note_on', channel=8, note=60, velocity=70, time=0),
    Message('note_on', channel=9, note=42, velocity=80, time=0),
    MetaMessage('lyrics', text='na', time=0),
    Message('note_on', channel=9, note=42, velocity=0, time=5),
    Message('note_on', channel=8, note=57, velocity=70, time=14),
    Message('note_on', channel=8, note=65, velocity=70, time=14),
    Message('note_on', channel=1, note=41, velocity=0, time=183),
    Message('note_on', channel=8, note=60, velocity=0, time=14),
    Message('note_on', channel=8, note=57, velocity=0, time=5),
    Message('note_on', channel=3, note=62, velocity=0, time=5),
    Message('note_on', channel=3, note=60, velocity=100, time=0),
    Message('note_on', channel=8, note=57, velocity=80, time=0),
    Message('note_on', channel=9, note=44, velocity=80, time=0),
    Message('note_on', channel=9, note=36, velocity=120, time=0),
    MetaMessage('lyrics', text='me, ', time=0),
    MetaMessage('lyrics', text='\r', time=0),
    Message('note_on', channel=9, note=36, velocity=0, time=4),
    Message('note_on', channel=8, note=65, velocity=0, time=0),
    Message('note_on', channel=9, note=44, velocity=0, time=1),
    Message('note_on', channel=8, note=60, velocity=80, time=11),
    Message('note_on', channel=8, note=65, velocity=80, time=7),
    Message('note_on', channel=4, note=41, velocity=0, time=174),
    Message('note_on', channel=4, note=48, velocity=0, time=21),
    Message('note_on', channel=3, note=60, velocity=0, time=22),
    Message('note_on', channel=1, note=41, velocity=113, time=0),
    Message('note_on', channel=4, note=48, velocity=72, time=0),
    Message('note_on', channel=4, note=41, velocity=72, time=0),
    Message('note_on', channel=6, note=65, velocity=100, time=0),
    Message('note_on', channel=6, note=60, velocity=100, time=0),
    Message('note_on', channel=9, note=42, velocity=80, time=0),
    Message('note_on', channel=13, note=65, velocity=100, time=0),
    Message('note_on', channel=13, note=60, velocity=100, time=0),
    Message('note_on', channel=9, note=42, velocity=0, time=5),
    Message('note_on', channel=4, note=48, velocity=0, time=187),
    Message('note_on', channel=4, note=41, velocity=0, time=0),
    Message('note_on', channel=8, note=65, velocity=0, time=18),
    Message('note_on', channel=6, note=60, velocity=0, time=1),
    Message('note_on', channel=6, note=65, velocity=0, time=0),
    Message('note_on', channel=13, note=65, velocity=0, time=0),
    Message('note_on', channel=13, note=60, velocity=0, time=0),
    Message('note_on', channel=1, note=41, velocity=0, time=5),
    Message('note_on', channel=8, note=57, velocity=0, time=5),
    Message('note_on', channel=8, note=60, velocity=0, time=16),
    Message('note_on', channel=4, note=41, velocity=82, time=3),
    Message('note_on', channel=4, note=50, velocity=82, time=0),
    Message('note_on', channel=6, note=65, velocity=100, time=0),
    Message('note_on', channel=6, note=60, velocity=100, time=0),
    Message('note_on', channel=9, note=44, velocity=80, time=0),
    Message('note_on', channel=9, note=54, velocity=50, time=0),
    Message('note_on', channel=9, note=38, velocity=120, time=0),
    Message('note_on', channel=13, note=65, velocity=100, time=0),
    Message('note_on', channel=13, note=60, velocity=100, time=0),
    Message('note_on', channel=9, note=38, velocity=0, time=4),
    Message('note_on', channel=9, note=54, velocity=0, time=0),
    Message('note_on', channel=9, note=44, velocity=0, time=1),
    Message('note_on', channel=8, note=57, velocity=59, time=4),
    Message('note_on', channel=8, note=60, velocity=59, time=6),
    Message('note_on', channel=8, note=65, velocity=59, time=4),
    Message('note_on', channel=6, note=65, velocity=0, time=136),
    Message('note_on', channel=13, note=65, velocity=0, time=0),
    Message('note_on', channel=13, note=60, velocity=0, time=14),
    Message('note_on', channel=6, note=60, velocity=0, time=0),
    Message('note_on', channel=4, note=41, velocity=0, time=23),
    Message('note_on', channel=4, note=50, velocity=0, time=0),
    Message('note_on', channel=8, note=57, velocity=0, time=14),
    Message('note_on', channel=8, note=60, velocity=0, time=13),
    Message('note_on', channel=8, note=65, velocity=0, time=4),
    Message('note_on', channel=1, note=41, velocity=108, time=17),
    Message('note_on', channel=4, note=45, velocity=70, time=0),
    Message('note_on', channel=4, note=41, velocity=70, time=0),
    Message('note_on', channel=8, note=60, velocity=50, time=0),
    Message('note_on', channel=8, note=65, velocity=50, time=0),
    Message('note_on', channel=8, note=57, velocity=50, time=0),
    Message('note_on', channel=9, note=42, velocity=80, time=0),
    Message('note_on', channel=9, note=42, velocity=0, time=5),
    Message('note_on', channel=8, note=65, velocity=0, time=79),
    Message('note_on', channel=8, note=60, velocity=0, time=0),
    Message('note_on', channel=8, note=57, velocity=0, time=7),
    Message('note_on', channel=4, note=45, velocity=0, time=101),
    Message('note_on', channel=4, note=41, velocity=0, time=0),
    Message('note_on', channel=1, note=41, velocity=0, time=24),
    Message('note_on', channel=1, note=43, velocity=104, time=24),
    Message('note_on', channel=4, note=48, velocity=82, time=0),
    Message('note_on', channel=4, note=41, velocity=82, time=0),
    Message('note_on', channel=6, note=65, velocity=100, time=0),
    Message('note_on', channel=6, note=60, velocity=100, time=0),
    Message('note_on', channel=8, note=65, velocity=78, time=0),
    Message('note_on', channel=9, note=36, velocity=120, time=0),
    Message('note_on', channel=9, note=44, velocity=80, time=0),
    Message('note_on', channel=13, note=65, velocity=100, time=0),
    Message('note_on', channel=13, note=60, velocity=100, time=0),
    Message('note_on', channel=9, note=36, velocity=0, time=4),
    Message('note_on', channel=9, note=44, velocity=0, time=1),
    Message('note_on', channel=8, note=57, velocity=78, time=5),
    Message('note_on', channel=8, note=60, velocity=78, time=18),
    Message('note_on', channel=6, note=60, velocity=0, time=141),
    Message('note_on', channel=6, note=65, velocity=0, time=0),
    Message('note_on', channel=13, note=60, velocity=0, time=0),
    Message('note_on', channel=13, note=65, velocity=0, time=0),
    Message('note_on', channel=4, note=41, velocity=0, time=23),
    Message('note_on', channel=4, note=48, velocity=0, time=0),
    Message('note_on', channel=1, note=43, velocity=0, time=24),
    Message('note_on', channel=8, note=65, velocity=0, time=14),
    Message('note_on', channel=8, note=60, velocity=0, time=5),
    Message('note_on', channel=8, note=57, velocity=0, time=5),
    Message('note_on', channel=1, note=43, velocity=91, time=0),
    Message('note_on', channel=4, note=41, velocity=70, time=0),
    Message('note_on', channel=4, note=48, velocity=70, time=0),
    Message('note_on', channel=8, note=60, velocity=63, time=0),
    Message('note_on', channel=9, note=42, velocity=80, time=0),
    Message('note_on', channel=9, note=36, velocity=120, time=0),
    Message('note_on', channel=9, note=36, velocity=0, time=4),
    Message('note_on', channel=9, note=42, velocity=0, time=1),
    Message('note_on', channel=8, note=57, velocity=63, time=14),
    Message('note_on', channel=8, note=65, velocity=63, time=5),
    Message('note_on', channel=8, note=60, velocity=0, time=138),
    Message('note_on', channel=8, note=65, velocity=0, time=24),
    Message('note_on', channel=8, note=57, velocity=0, time=2),
    Message('note_on', channel=4, note=41, velocity=0, time=4),
    Message('note_on', channel=4, note=48, velocity=0, time=0),
    Message('pitchwheel', channel=6, pitch=8191, time=19),
    Message('pitchwheel', channel=13, pitch=8191, time=0),
    Message('note_on', channel=1, note=43, velocity=0, time=5),
    Message('note_on', channel=1, note=45, velocity=83, time=24),
    Message('note_on', channel=4, note=41, velocity=80, time=0),
    Message('note_on', channel=4, note=50, velocity=80, time=0),
    Message('note_on', channel=8, note=65, velocity=48, time=0),
    Message('note_on', channel=9, note=54, velocity=50, time=0),
    Message('note_on', channel=9, note=46, velocity=80, time=0),
    Message('note_on', channel=9, note=38, velocity=120, time=0),
    Message('note_on', channel=9, note=38, velocity=0, time=4),
    Message('note_on', channel=9, note=54, velocity=0, time=0),
    Message('note_on', channel=9, note=46, velocity=0, time=1),
    Message('note_on', channel=6, note=60, velocity=100, time=1),
    Message('note_on', channel=13, note=60, velocity=100, time=0),
    Message('note_on', channel=8, note=57, velocity=48, time=12),
    Message('note_on', channel=8, note=60, velocity=48, time=5),
    Message('note_on', channel=4, note=50, velocity=0, time=169),
    Message('note_on', channel=4, note=41, velocity=0, time=0),
    Message('note_on', channel=1, note=45, velocity=0, time=24),
    Message('pitchwheel', channel=6, pitch=8191, time=9),
    Message('pitchwheel', channel=13, pitch=8191, time=0),
    Message('note_on', channel=8, note=65, velocity=0, time=5),
    Message('pitchwheel', channel=6, pitch=7296, time=2),
    Message('pitchwheel', channel=13, pitch=7296, time=0),
    Message('note_on', channel=8, note=60, velocity=0, time=7),
    Message('note_on', channel=8, note=57, velocity=0, time=0),
    Message('note_on', channel=1, note=45, velocity=86, time=1),
    Message('note_on', channel=4, note=45, velocity=70, time=0),
    Message('note_on', channel=4, note=41, velocity=70, time=0),
    Message('pitchwheel', channel=6, pitch=6400, time=0),
    Message('note_on', channel=8, note=60, velocity=70, time=0),
    Message('note_on', channel=9, note=42, velocity=80, time=0),
    Message('pitchwheel', channel=13, pitch=6400, time=0),
    Message('note_on', channel=9, note=42, velocity=0, time=5),
    Message('pitchwheel', channel=6, pitch=5504, time=2),
    Message('pitchwheel', channel=13, pitch=5504, time=0),
    Message('pitchwheel', channel=6, pitch=4608, time=7),
    Message('pitchwheel', channel=13, pitch=4608, time=0),
    Message('note_on', channel=8, note=57, velocity=70, time=5),
    Message('pitchwheel', channel=6, pitch=3712, time=2),
    Message('pitchwheel', channel=13, pitch=3712, time=0),
    Message('pitchwheel', channel=6, pitch=2816, time=7),
    Message('pitchwheel', channel=13, pitch=2816, time=0),
    Message('note_on', channel=8, note=65, velocity=70, time=5),
    Message('pitchwheel', channel=6, pitch=1920, time=2),
    Message('pitchwheel', channel=13, pitch=1920, time=0),
    Message('pitchwheel', channel=6, pitch=1024, time=7),
    Message('pitchwheel', channel=13, pitch=1024, time=0),
    Message('pitchwheel', channel=6, pitch=0, time=7),
    Message('pitchwheel', channel=13, pitch=0, time=0),
    Message('note_on', channel=4, note=41, velocity=0, time=143),
    Message('note_on', channel=4, note=45, velocity=0, time=0),
    Message('note_on', channel=1, note=45, velocity=0, time=24),
    Message('note_on', channel=8, note=60, velocity=0, time=14),
    Message('note_on', channel=8, note=57, velocity=0, time=5),
    Message('note_on', channel=2, note=77, velocity=0, time=5),
    Message('note_on', channel=2, note=81, velocity=0, time=0),
    Message('note_on', channel=1, note=48, velocity=97, time=0),
    Message('note_on', channel=2, note=79, velocity=55, time=0),
    Message('note_on', channel=2, note=76, velocity=63, time=0),
    Message('note_on', channel=4, note=48, velocity=86, time=0),
    Message('note_on', channel=4, note=55, velocity=86, time=0),
    Message('note_on', channel=8, note=55, velocity=80, time=0),
    Message('note_on', channel=9, note=36, velocity=120, time=0),
    Message('note_on', channel=9, note=44, velocity=80, time=0),
    Message('note_on', channel=9, note=36, velocity=0, time=4),
    Message('note_on', channel=8, note=65, velocity=0, time=0),
    Message('note_on', channel=9, note=44, velocity=0, time=1),
    Message('note_on', channel=8, note=60, velocity=80, time=11),
    Message('note_on', channel=8, note=64, velocity=80, time=7),
    Message('note_on', channel=4, note=48, velocity=0, time=169),
    Message('note_on', channel=4, note=55, velocity=0, time=0),
    Message('note_on', channel=1, note=48, velocity=0, time=24),
    Message('note_on', channel=1, note=48, velocity=88, time=24),
    Message('note_on', channel=3, note=60, velocity=100, time=0),
    Message('note_on', channel=4, note=55, velocity=69, time=0),
    Message('note_on', channel=4, note=48, velocity=69, time=0),
    Message('note_on', channel=5, note=60, velocity=80, time=0),
    Message('note_on', channel=9, note=42, velocity=80, time=0),
    MetaMessage('lyrics', text='but, ', time=0),
    Message('note_on', channel=9, note=42, velocity=0, time=5),
    Message('control_change', channel=13, control=1, value=40, time=164),
    Message('note_on', channel=4, note=48, velocity=0, time=23),
    Message('note_on', channel=4, note=55, velocity=0, time=0),
    Message('note_on', channel=8, note=64, velocity=0, time=18),
    Message('note_on', channel=1, note=48, velocity=0, time=6),
    Message('note_on', channel=8, note=55, velocity=0, time=5),
    Message('note_on', channel=8, note=60, velocity=0, time=16),
    Message('note_on', channel=3, note=60, velocity=0, time=3),
    Message('note_on', channel=5, note=60, velocity=0, time=0),
    Message('note_on', channel=3, note=64, velocity=100, time=0),
    Message('note_on', channel=4, note=57, velocity=83, time=0),
    Message('note_on', channel=4, note=48, velocity=83, time=0),
    Message('note_on', channel=5, note=72, velocity=80, time=0),
    Message('note_on', channel=5, note=64, velocity=80, time=0),
    Message('note_on', channel=5, note=67, velocity=80, time=0),
    Message('note_on', channel=9, note=44, velocity=80, time=0),
    Message('note_on', channel=9, note=54, velocity=50, time=0),
    Message('note_on', channel=9, note=38, velocity=120, time=0),
    MetaMessage('lyrics', text='what ', time=0),
    Message('note_on', channel=9, note=38, velocity=0, time=4),
    Message('note_on', channel=9, note=54, velocity=0, time=0),
    Message('note_on', channel=9, note=44, velocity=0, time=1),
    Message('note_on', channel=8, note=55, velocity=59, time=4),
    Message('note_on', channel=8, note=60, velocity=59, time=6),
    Message('note_on', channel=8, note=64, velocity=59, time=4),
    Message('note_on', channel=4, note=57, velocity=0, time=173),
    Message('note_on', channel=4, note=48, velocity=0, time=0),
    Message('note_on', channel=8, note=55, velocity=0, time=14),
    Message('note_on', channel=8, note=60, velocity=0, time=13),
    Message('note_on', channel=8, note=64, velocity=0, time=4),
    Message('note_on', channel=5, note=72, velocity=0, time=17),
    Message('note_on', channel=5, note=67, velocity=0, time=0),
    Message('note_on', channel=5, note=64, velocity=0, time=0),
    Message('note_on', channel=3, note=64, velocity=0, time=0),
    Message('note_on', channel=1, note=48, velocity=86, time=0),
    Message('note_on', channel=3, note=67, velocity=100, time=0),
    Message('note_on', channel=4, note=52, velocity=72, time=0),
    Message('note_on', channel=4, note=48, velocity=72, time=0),
    Message('note_on', channel=5, note=67, velocity=80, time=0),
    Message('note_on', channel=5, note=64, velocity=80, time=0),
    Message('note_on', channel=5, note=72, velocity=80, time=0),
    Message('note_on', channel=8, note=64, velocity=50, time=0),
    Message('note_on', channel=8, note=60, velocity=50, time=0),
    Message('note_on', channel=8, note=55, velocity=50, time=0),
    Message('note_on', channel=9, note=42, velocity=80, time=0),
    Message('note_on', channel=9, note=36, velocity=120, time=0),
    MetaMessage('lyrics', text='you ', time=0),
    Message('note_on', channel=9, note=42, velocity=0, time=5),
    Message('note_on', channel=9, note=36, velocity=0, time=11),
    Message('note_on', channel=8, note=60, velocity=0, time=68),
    Message('note_on', channel=8, note=64, velocity=0, time=0),
    Message('note_on', channel=8, note=55, velocity=0, time=7),
    Message('note_on', channel=4, note=52, velocity=0, time=101),
    Message('note_on', channel=4, note=48, velocity=0, time=0),
    Message('control_change', channel=13, control=1, value=76, time=19),
    Message('note_on', channel=1, note=48, velocity=0, time=5),
    Message('note_on', channel=5, note=67, velocity=0, time=24),
    Message('note_on', channel=3, note=67, velocity=0, time=0),
    Message('note_on', channel=5, note=64, velocity=0, time=0),
    Message('note_on', channel=5, note=72, velocity=0, time=0),
    Message('note_on', channel=1, note=48, velocity=94, time=0),
    Message('note_on', channel=3, note=67, velocity=100, time=0),
    Message('note_on', channel=4, note=48, velocity=80, time=0),
    Message('note_on', channel=4, note=55, velocity=80, time=0),
    Message('note_on', channel=5, note=72, velocity=80, time=0),
    Message('note_on', channel=5, note=67, velocity=80, time=0),
    Message('note_on', channel=5, note=64, velocity=80, time=0),
    Message('note_on', channel=8, note=64, velocity=78, time=0),
    Message('note_on', channel=9, note=44, velocity=80, time=0),
    Message('note_on', channel=9, note=36, velocity=120, time=0),
    MetaMessage('lyrics', text='get ', time=0),
    Message('note_on', channel=9, note=36, velocity=0, time=4),
    Message('note_on', channel=9, note=44, velocity=0, time=1),
    Message('note_on', channel=8, note=55, velocity=78, time=5),
    Message('note_on', channel=8, note=60, velocity=78, time=18),
    Message('note_on', channel=4, note=48, velocity=0, time=164),
    Message('note_on', channel=4, note=55, velocity=0, time=0),
    Message('note_on', channel=1, note=48, velocity=0, time=24),
    Message('note_on', channel=8, note=64, velocity=0, time=14),
    Message('note_on', channel=8, note=60, velocity=0, time=5),
    Message('note_on', channel=8, note=55, velocity=0, time=5),
    Message('note_on', channel=1, note=48, velocity=91, time=0),
    Message('note_on', channel=4, note=48, velocity=71, time=0),
    Message('note_on', channel=4, note=55, velocity=71, time=0),
    Message('note_on', channel=8, note=60, velocity=63, time=0),
    Message('note_on', channel=9, note=42, velocity=80, time=0),
    Message('note_on', channel=9, note=42, velocity=0, time=5),
    Message('note_on', channel=8, note=55, velocity=63, time=14),
    Message('note_on', channel=8, note=64, velocity=63, time=5),
    Message('note_on', channel=8, note=60, velocity=0, time=138),
    Message('note_on', channel=8, note=64, velocity=0, time=24),
    Message('note_on', channel=8, note=55, velocity=0, time=2),
    Message('note_on', channel=4, note=55, velocity=0, time=4),
    Message('note_on', channel=4, note=48, velocity=0, time=0),
    Message('note_on', channel=1, note=48, velocity=0, time=24),
    Message('note_on', channel=5, note=67, velocity=0, time=24),
    Message('note_on', channel=5, note=72, velocity=0, time=0),
    Message('note_on', channel=3, note=67, velocity=0, time=0),
    Message('note_on', channel=5, note=64, velocity=0, time=0),
    Message('note_on', channel=1, note=45, velocity=91, time=0),
    Message('note_on', channel=3, note=67, velocity=100, time=0),
    Message('note_on', channel=4, note=48, velocity=86, time=0),
    Message('note_on', channel=4, note=57, velocity=86, time=0),
    Message('note_on', channel=5, note=72, velocity=80, time=0),
    Message('note_on', channel=5, note=67, velocity=80, time=0),
    Message('note_on', channel=5, note=64, velocity=80, time=0),
    Message('note_on', channel=8, note=64, velocity=48, time=0),
    Message('note_on', channel=9, note=54, velocity=50, time=0),
    Message('note_on', channel=9, note=44, velocity=80, time=0),
    Message('note_on', channel=9, note=38, velocity=120, time=0),
    MetaMessage('lyrics', text='is, ', time=0),
    Message('note_on', channel=9, note=38, velocity=0, time=4),
    Message('note_on', channel=9, note=54, velocity=0, time=0),
    Message('note_on', channel=9, note=44, velocity=0, time=1),
    Message('note_on', channel=8, note=55, velocity=48, time=13),
    Message('note_on', channel=8, note=60, velocity=48, time=5),
    Message('note_on', channel=4, note=48, velocity=0, time=169),
    Message('note_on', channel=4, note=57, velocity=0, time=0),
    Message('note_on', channel=1, note=45, velocity=0, time=24),
    Message('note_on', channel=8, note=64, velocity=0, time=14),
    Message('note_on', channel=8, note=55, velocity=0, time=9),
    Message('note_on', channel=8, note=60, velocity=0, time=0),
    Message('note_on', channel=5, note=67, velocity=0, time=1),
    Message('note_on', channel=5, note=72, velocity=0, time=0),
    Message('note_on', channel=5, note=64, velocity=0, time=0),
    Message('note_on', channel=3, note=67, velocity=0, time=0),
    Message('note_on', channel=1, note=48, velocity=104, time=0),
    Message('note_on', channel=3, note=69, velocity=100, time=0),
    Message('note_on', channel=4, note=52, velocity=70, time=0),
    Message('note_on', channel=4, note=48, velocity=70, time=0),
    Message('note_on', channel=5, note=71, velocity=80, time=0),
    Message('note_on', channel=5, note=69, velocity=80, time=0),
    Message('note_on', channel=5, note=67, velocity=80, time=0),
    Message('note_on', channel=8, note=60, velocity=70, time=0),
    Message('note_on', channel=9, note=36, velocity=120, time=0),
    Message('note_on', channel=9, note=42, velocity=80, time=0),
    MetaMessage('lyrics', text='not ', time=0),
    Message('note_on', channel=9, note=36, velocity=0, time=4),
    Message('note_on', channel=9, note=42, velocity=0, time=1),
    Message('note_on', channel=8, note=55, velocity=70, time=14),
    Message('note_on', channel=8, note=64, velocity=70, time=14),
    Message('note_on', channel=6, note=60, velocity=0, time=129),
    Message('note_on', channel=13, note=60, velocity=0, time=0),
    Message('note_on', channel=4, note=48, velocity=0, time=30),
    Message('note_on', channel=4, note=52, velocity=0, time=0),
    Message('note_on', channel=1, note=48, velocity=0, time=24),
    Message('control_change', channel=13, control=1, value=0, time=2),
    Message('note_on', channel=8, note=60, velocity=0, time=12),
    Message('note_on', channel=8, note=55, velocity=0, time=5),
    Message('note_on', channel=2, note=72, velocity=0, time=5),
    Message('note_on', channel=2, note=76, velocity=0, time=0),
    Message('note_on', channel=1, note=43, velocity=104, time=0),
    Message('note_on', channel=2, note=74, velocity=59, time=0),
    Message('note_on', channel=2, note=71, velocity=63, time=0),
    Message('note_on', channel=4, note=50, velocity=87, time=0),
    Message('note_on', channel=4, note=43, velocity=87, time=0),
    Message('note_on', channel=8, note=55, velocity=80, time=0),
    Message('note_on', channel=9, note=36, velocity=120, time=0),
    Message('note_on', channel=9, note=44, velocity=80, time=0),
    Message('note_on', channel=9, note=36, velocity=0, time=4),
    Message('note_on', channel=8, note=64, velocity=0, time=0),
    Message('note_on', channel=9, note=44, velocity=0, time=1),
    Message('note_on', channel=8, note=59, velocity=80, time=11),
    Message('note_on', channel=8, note=62, velocity=80, time=7),
    Message('note_on', channel=4, note=43, velocity=0, time=169),
    Message('note_on', channel=4, note=50, velocity=0, time=0),
    Message('note_on', channel=1, note=43, velocity=0, time=24),
    Message('note_on', channel=3, note=69, velocity=0, time=24),
    Message('note_on', channel=5, note=69, velocity=0, time=0),
    Message('note_on', channel=5, note=67, velocity=0, time=0),
    Message('note_on', channel=5, note=71, velocity=0, time=0),
    Message('note_on', channel=1, note=43, velocity=104, time=0),
    Message('note_on', channel=3, note=67, velocity=100, time=0),
    Message('note_on', channel=4, note=50, velocity=72, time=0),
    Message('note_on', channel=4, note=43, velocity=72, time=0),
    Message('note_on', channel=5, note=71, velocity=80, time=0),
    Message('note_on', channel=5, note=62, velocity=80, time=0),
    Message('note_on', channel=5, note=67, velocity=80, time=0),
    Message('note_on', channel=9, note=42, velocity=80, time=0),
    MetaMessage('lyrics', text='quite, ', time=0),
    MetaMessage('lyrics', text='\r', time=0),
    Message('note_on', channel=9, note=42, velocity=0, time=5),
    Message('note_on', channel=4, note=50, velocity=0, time=187),
    Message('note_on', channel=4, note=43, velocity=0, time=0),
    Message('note_on', channel=8, note=62, velocity=0, time=18),
    Message('note_on', channel=1, note=43, velocity=0, time=6),
    Message('note_on', channel=8, note=55, velocity=0, time=5),
    Message('note_on', channel=8, note=59, velocity=0, time=16),
    Message('note_on', channel=4, note=43, velocity=82, time=3),
    Message('note_on', channel=4, note=52, velocity=82, time=0),
    Message('note_on', channel=9, note=54, velocity=50, time=0),
    Message('note_on', channel=9, note=44, velocity=80, time=0),
    Message('note_on', channel=9, note=38, velocity=120, time=0),
    Message('note_on', channel=9, note=38, velocity=0, time=4),
    Message('note_on', channel=9, note=54, velocity=0, time=0),
    Message('note_on', channel=9, note=44, velocity=0, time=1),
    Message('note_on', channel=8, note=55, velocity=59, time=4),
    Message('note_on', channel=8, note=59, velocity=59, time=6),
    Message('note_on', channel=8, note=62, velocity=59, time=4),
    Message('note_on', channel=4, note=43, velocity=0, time=173),
    Message('note_on', channel=4, note=52, velocity=0, time=0),
    Message('note_on', channel=8, note=55, velocity=0, time=14),
    Message('note_on', channel=8, note=59, velocity=0, time=13),
    Message('note_on', channel=8, note=62, velocity=0, time=4),
    Message('note_on', channel=1, note=43, velocity=104, time=17),
    Message('note_on', channel=4, note=43, velocity=70, time=0),
    Message('note_on', channel=4, note=47, velocity=70, time=0),
    Message('note_on', channel=8, note=55, velocity=50, time=0),
    Message('note_on', channel=8, note=62, velocity=50, time=0),
    Message('note_on', channel=8, note=59, velocity=50, time=0),
    Message('note_on', channel=9, note=36, velocity=120, time=0),
    Message('note_on', channel=9, note=42, velocity=80, time=0),
    Message('note_on', channel=9, note=36, velocity=0, time=4),
    Message('note_on', channel=9, note=42, velocity=0, time=1),
    Message('note_on', channel=8, note=62, velocity=0, time=79),
    Message('note_on', channel=8, note=59, velocity=0, time=0),
    Message('note_on', channel=8, note=55, velocity=0, time=7),
    Message('note_on', channel=4, note=47, velocity=0, time=101),
    Message('note_on', channel=4, note=43, velocity=0, time=0),
    Message('note_on', channel=1, note=43, velocity=0, time=24),
    Message('note_on', channel=3, note=67, velocity=0, time=6),
    Message('note_on', channel=5, note=62, velocity=0, time=18),
    Message('note_on', channel=5, note=71, velocity=0, time=0),
    Message('note_on', channel=5, note=67, velocity=0, time=0),
    Message('note_on', channel=1, note=43, velocity=104, time=0),
    Message('note_on', channel=3, note=67, velocity=100, time=0),
    Message('note_on', channel=4, note=43, velocity=82, time=0),
    Message('note_on', channel=4, note=50, velocity=82, time=0),
    Message('note_on', channel=5, note=71, velocity=80, time=0),
    Message('note_on', channel=5, note=67, velocity=80, time=0),
    Message('note_on', channel=5, note=62, velocity=80, time=0),
    Message('note_on', channel=8, note=62, velocity=78, time=0),
    Message('note_on', channel=9, note=44, velocity=80, time=0),
    Message('note_on', channel=9, note=36, velocity=120, time=0),
    MetaMessage('lyrics', text='what ', time=0),
    Message('note_on', channel=9, note=36, velocity=0, time=4),
    Message('note_on', channel=9, note=44, velocity=0, time=1),
    Message('note_on', channel=8, note=55, velocity=78, time=5),
    Message('note_on', channel=8, note=59, velocity=78, time=18),
    Message('note_on', channel=4, note=43, velocity=0, time=164),
    Message('note_on', channel=4, note=50, velocity=0, time=0),
    Message('note_on', channel=1, note=43, velocity=0, time=24),
    Message('note_on', channel=8, note=62, velocity=0, time=14),
    Message('note_on', channel=8, note=59, velocity=0, time=5),
    Message('note_on', channel=8, note=55, velocity=0, time=5),
    Message('note_on', channel=1, note=43, velocity=104, time=0),
    Message('note_on', channel=4, note=50, velocity=70, time=0),
    Message('note_on', channel=4, note=43, velocity=70, time=0),
    Message('note_on', channel=8, note=59, velocity=63, time=0),
    Message('note_on', channel=9, note=42, velocity=80, time=0),
    Message('note_on', channel=9, note=42, velocity=0, time=5),
    Message('note_on', channel=8, note=55, velocity=63, time=14),
    Message('note_on', channel=8, note=62, velocity=63, time=5),
    Message('note_on', channel=8, note=59, velocity=0, time=138),
    Message('note_on', channel=8, note=62, velocity=0, time=24),
    Message('note_on', channel=8, note=55, velocity=0, time=2),
    Message('note_on', channel=4, note=43, velocity=0, time=4),
    Message('note_on', channel=4, note=50, velocity=0, time=0),
    Message('note_on', channel=1, note=43, velocity=0, time=24),
    Message('note_on', channel=3, note=67, velocity=0, time=15),
    Message('note_on', channel=5, note=67, velocity=0, time=9),
    Message('note_on', channel=5, note=62, velocity=0, time=0),
    Message('note_on', channel=5, note=71, velocity=0, time=0),
    Message('note_on', channel=1, note=45, velocity=104, time=0),
    Message('note_on', channel=3, note=67, velocity=100, time=0),
    Message('note_on', channel=4, note=52, velocity=80, time=0),
    Message('note_on', channel=4, note=43, velocity=80, time=0),
    Message('note_on', channel=5, note=67, velocity=80, time=0),
    Message('note_on', channel=5, note=71, velocity=80, time=0),
    Message('note_on', channel=5, note=62, velocity=80, time=0),
    Message('note_on', channel=8, note=62, velocity=48, time=0),
    Message('note_on', channel=9, note=54, velocity=50, time=0),
    Message('note_on', channel=9, note=44, velocity=80, time=0),
    Message('note_on', channel=9, note=38, velocity=120, time=0),
    MetaMessage('lyrics', text='you ', time=0),
    Message('note_on', channel=9, note=38, velocity=0, time=4),
    Message('note_on', channel=9, note=54, velocity=0, time=0),
    Message('note_on', channel=9, note=44, velocity=0, time=1),
    Message('note_on', channel=8, note=55, velocity=48, time=13),
    Message('note_on', channel=8, note=59, velocity=48, time=5),
    Message('note_on', channel=4, note=52, velocity=0, time=169),
    Message('note_on', channel=4, note=43, velocity=0, time=0),
    Message('note_on', channel=1, note=45, velocity=0, time=24),
    Message('note_on', channel=8, note=62, velocity=0, time=14),
    Message('note_on', channel=8, note=59, velocity=0, time=9),
    Message('note_on', channel=8, note=55, velocity=0, time=0),
    Message('note_on', channel=1, note=47, velocity=104, time=1),
    Message('note_on', channel=4, note=47, velocity=70, time=0),
    Message('note_on', channel=4, note=43, velocity=70, time=0),
    Message('note_on', channel=8, note=59, velocity=70, time=0),
    Message('note_on', channel=9, note=42, velocity=80, time=0),
    Message('note_on', channel=9, note=42, velocity=0, time=5),
    Message('note_on', channel=8, note=55, velocity=70, time=14),
    Message('note_on', channel=8, note=62, velocity=70, time=14),
    Message('note_on', channel=4, note=47, velocity=0, time=159),
    Message('note_on', channel=4, note=43, velocity=0, time=0),
    Message('note_on', channel=1, note=47, velocity=0, time=24),
    Message('note_on', channel=8, note=59, velocity=0, time=14),
    Message('note_on', channel=8, note=55, velocity=0, time=5),
    Message('note_on', channel=5, note=67, velocity=0, time=5),
    Message('note_on', channel=2, note=74, velocity=0, time=0),
    Message('note_on', channel=2, note=71, velocity=0, time=0),
    Message('note_on', channel=5, note=71, velocity=0, time=0),
    Message('note_on', channel=5, note=62, velocity=0, time=0),
    Message('note_on', channel=3, note=67, velocity=0, time=0),
    Message('note_on', channel=1, note=48, velocity=97, time=0),
    Message('note_on', channel=2, note=76, velocity=75, time=0),
    Message('note_on', channel=2, note=72, velocity=55, time=0),
    Message('note_on', channel=3, note=64, velocity=100, time=0),
    Message('note_on', channel=4, note=48, velocity=86, time=0),
    Message('note_on', channel=4, note=55, velocity=86, time=0),
    Message('note_on', channel=5, note=64, velocity=80, time=0),
    Message('note_on', channel=5, note=67, velocity=80, time=0),
    Message('note_on', channel=8, note=55, velocity=80, time=0),
    Message('note_on', channel=9, note=44, velocity=80, time=0),
    Message('note_on', channel=9, note=36, velocity=120, time=0),
    MetaMessage('lyrics', text='cho', time=0),
    Message('note_on', channel=9, note=36, velocity=0, time=4),
    Message('note_on', channel=8, note=62, velocity=0, time=0),
    Message('note_on', channel=9, note=44, velocity=0, time=1),
    Message('note_on', channel=8, note=60, velocity=80, time=11),
    Message('note_on', channel=8, note=64, velocity=80, time=7),
    Message('note_on', channel=5, note=64, velocity=0, time=97),
    Message('note_on', channel=3, note=64, velocity=0, time=0),
    Message('note_on', channel=3, note=62, velocity=100, time=0),
    Message('note_on', channel=5, note=62, velocity=80, time=0),
    MetaMessage('lyrics', text='o', time=0),
    Message('note_on', channel=4, note=55, velocity=0, time=72),
    Message('note_on', channel=4, note=48, velocity=0, time=0),
    Message('note_on', channel=1, note=48, velocity=0, time=24),
    Message('note_on', channel=3, note=62, velocity=0, time=24),
    Message('note_on', channel=5, note=62, velocity=0, time=0),
    Message('note_on', channel=1, note=48, velocity=88, time=0),
    Message('note_on', channel=3, note=60, velocity=100, time=0),
    Message('note_on', channel=4, note=48, velocity=69, time=0),
    Message('note_on', channel=4, note=55, velocity=69, time=0),
    Message('note_on', channel=5, note=60, velocity=80, time=0),
    Message('note_on', channel=5, note=64, velocity=80, time=0),
    Message('note_on', channel=6, note=64, velocity=100, time=0),
    Message('note_on', channel=7, note=67, velocity=120, time=0),
    Message('note_on', channel=9, note=42, velocity=80, time=0),
    Message('note_on', channel=13, note=64, velocity=100, time=0),
    MetaMessage('lyrics', text='se. ', time=0),
    MetaMessage('lyrics', text='\r', time=0),
    MetaMessage('lyrics', text='\n', time=0),
    Message('note_on', channel=9, note=42, velocity=0, time=5),
    Message('pitchwheel', channel=6, pitch=-8192, time=9),
    Message('pitchwheel', channel=13, pitch=-8192, time=0),
    Message('pitchwheel', channel=6, pitch=-7680, time=7),
    Message('pitchwheel', channel=13, pitch=-7680, time=0),
    Message('pitchwheel', channel=6, pitch=-7168, time=7),
    Message('pitchwheel', channel=13, pitch=-7168, time=0),
    Message('pitchwheel', channel=6, pitch=-6656, time=7),
    Message('pitchwheel', channel=13, pitch=-6656, time=0),
    Message('pitchwheel', channel=6, pitch=-6144, time=7),
    Message('pitchwheel', channel=13, pitch=-6144, time=0),
    Message('pitchwheel', channel=6, pitch=-5632, time=7),
    Message('pitchwheel', channel=13, pitch=-5632, time=0),
    Message('pitchwheel', channel=6, pitch=-5120, time=7),
    Message('pitchwheel', channel=13, pitch=-5120, time=0),
    Message('pitchwheel', channel=6, pitch=-4608, time=7),
    Message('pitchwheel', channel=13, pitch=-4608, time=0),
    Message('pitchwheel', channel=6, pitch=-4096, time=7),
    Message('pitchwheel', channel=13, pitch=-4096, time=0),
    Message('pitchwheel', channel=6, pitch=-3584, time=7),
    Message('pitchwheel', channel=13, pitch=-3584, time=0),
    Message('pitchwheel', channel=6, pitch=-3072, time=7),
    Message('pitchwheel', channel=13, pitch=-3072, time=0),
    Message('pitchwheel', channel=6, pitch=-2560, time=7),
    Message('pitchwheel', channel=13, pitch=-2560, time=0),
    Message('pitchwheel', channel=6, pitch=-2048, time=7),
    Message('pitchwheel', channel=13, pitch=-2048, time=0),
    Message('pitchwheel', channel=6, pitch=-1536, time=7),
    Message('pitchwheel', channel=13, pitch=-1536, time=0),
    Message('pitchwheel', channel=6, pitch=-1024, time=7),
    Message('pitchwheel', channel=13, pitch=-1024, time=0),
    Message('pitchwheel', channel=6, pitch=-512, time=8),
    Message('pitchwheel', channel=13, pitch=-512, time=0),
    Message('pitchwheel', channel=6, pitch=0, time=7),
    Message('pitchwheel', channel=13, pitch=0, time=0),
    Message('note_on', channel=4, note=55, velocity=0, time=65),
    Message('note_on', channel=4, note=48, velocity=0, time=0),
    Message('note_on', channel=8, note=64, velocity=0, time=18),
    Message('note_on', channel=1, note=48, velocity=0, time=6),
    Message('note_on', channel=8, note=55, velocity=0, time=5),
    Message('note_on', channel=8, note=60, velocity=0, time=16),
    Message('note_on', channel=4, note=57, velocity=83, time=3),
    Message('note_on', channel=4, note=48, velocity=83, time=0),
    Message('note_on', channel=9, note=54, velocity=50, time=0),
    Message('note_on', channel=9, note=44, velocity=80, time=0),
    Message('note_on', channel=9, note=38, velocity=120, time=0),
    Message('note_on', channel=9, note=38, velocity=0, time=4),
    Message('note_on', channel=9, note=54, velocity=0, time=0),
    Message('note_on', channel=9, note=44, velocity=0, time=1),
    Message('note_on', channel=8, note=55, velocity=59, time=4),
    Message('note_on', channel=8, note=60, velocity=59, time=6),
    Message('note_on', channel=8, note=64, velocity=59, time=4),
    Message('control_change', channel=13, control=1, value=66, time=108),
    Message('note_on', channel=4, note=57, velocity=0, time=65),
    Message('note_on', channel=4, note=48, velocity=0, time=0),
    Message('note_on', channel=8, note=55, velocity=0, time=14),
    Message('note_on', channel=8, note=60, velocity=0, time=13),
    Message('note_on', channel=8, note=64, velocity=0, time=4),
    Message('note_on', channel=5, note=60, velocity=0, time=17),
    Message('note_on', channel=5, note=67, velocity=0, time=0),
    Message('note_on', channel=5, note=64, velocity=0, time=0),
    Message('note_on', channel=1, note=48, velocity=86, time=0),
    Message('note_on', channel=4, note=52, velocity=72, time=0),
    Message('note_on', channel=4, note=48, velocity=72, time=0),
    Message('note_on', channel=8, note=60, velocity=50, time=0),
    Message('note_on', channel=8, note=55, velocity=50, time=0),
    Message('note_on', channel=8, note=64, velocity=50, time=0),
    Message('note_on', channel=9, note=36, velocity=120, time=0),
    Message('note_on', channel=9, note=42, velocity=80, time=0),
    Message('note_on', channel=9, note=36, velocity=0, time=4),
    Message('note_on', channel=9, note=42, velocity=0, time=1),
    Message('note_on', channel=3, note=60, velocity=0, time=39),
    Message('control_change', channel=13, control=1, value=0, time=33),
    Message('note_on', channel=8, note=60, velocity=0, time=7),
    Message('note_on', channel=8, note=64, velocity=0, time=0),
    Message('note_on', channel=8, note=55, velocity=0, time=7),
    Message('note_on', channel=6, note=64, velocity=0, time=36),
    Message('note_on', channel=13, note=64, velocity=0, time=0),
    Message('note_on', channel=7, note=67, velocity=0, time=56),
    Message('note_on', channel=4, note=52, velocity=0, time=9),
    Message('note_on', channel=4, note=48, velocity=0, time=0),
    Message('note_on', channel=1, note=48, velocity=0, time=24),
    Message('pitchwheel', channel=6, pitch=-8192, time=9),
    Message('pitchwheel', channel=13, pitch=-8192, time=0),
    Message('note_on', channel=1, note=48, velocity=94, time=15),
    Message('note_on', channel=4, note=55, velocity=80, time=0),
    Message('note_on', channel=4, note=48, velocity=80, time=0),
    Message('note_on', channel=6, note=64, velocity=100, time=0),
    Message('note_on', channel=7, note=67, velocity=120, time=0),
    Message('note_on', channel=8, note=64, velocity=78, time=0),
    Message('note_on', channel=9, note=44, velocity=80, time=0),
    Message('note_on', channel=9, note=36, velocity=120, time=0),
    Message('note_on', channel=13, note=64, velocity=100, time=0),
    Message('note_on', channel=9, note=36, velocity=0, time=4),
    Message('note_on', channel=9, note=44, velocity=0, time=1),
    Message('note_on', channel=8, note=55, velocity=78, time=5),
    Message('note_on', channel=8, note=60, velocity=78, time=18),
    Message('pitchwheel', channel=6, pitch=-8192, time=49),
    Message('pitchwheel', channel=13, pitch=-8192, time=0),
    Message('pitchwheel', channel=6, pitch=-7936, time=7),
    Message('pitchwheel', channel=13, pitch=-7936, time=0),
    Message('pitchwheel', channel=6, pitch=-7552, time=7),
    Message('pitchwheel', channel=13, pitch=-7552, time=0),
    Message('pitchwheel', channel=6, pitch=-7040, time=7),
    Message('pitchwheel', channel=13, pitch=-7040, time=0),
    Message('pitchwheel', channel=6, pitch=-6656, time=7),
    Message('pitchwheel', channel=13, pitch=-6656, time=0),
    Message('pitchwheel', channel=6, pitch=-6144, time=7),
    Message('pitchwheel', channel=13, pitch=-6144, time=0),
    Message('pitchwheel', channel=6, pitch=-5760, time=8),
    Message('pitchwheel', channel=13, pitch=-5760, time=0),
    Message('pitchwheel', channel=6, pitch=-5376, time=7),
    Message('pitchwheel', channel=13, pitch=-5376, time=0),
    Message('pitchwheel', channel=6, pitch=-4864, time=7),
    Message('pitchwheel', channel=13, pitch=-4864, time=0),
    Message('pitchwheel', channel=6, pitch=-4480, time=7),
    Message('pitchwheel', channel=13, pitch=-4480, time=0),
    Message('pitchwheel', channel=6, pitch=-3968, time=7),
    Message('pitchwheel', channel=13, pitch=-3968, time=0),
    Message('pitchwheel', channel=6, pitch=-3584, time=7),
    Message('pitchwheel', channel=13, pitch=-3584, time=0),
    Message('pitchwheel', channel=6, pitch=-3072, time=7),
    Message('pitchwheel', channel=13, pitch=-3072, time=0),
    Message('pitchwheel', channel=6, pitch=-2688, time=7),
    Message('pitchwheel', channel=13, pitch=-2688, time=0),
    Message('pitchwheel', channel=6, pitch=-2304, time=7),
    Message('pitchwheel', channel=13, pitch=-2304, time=0),
    Message('pitchwheel', channel=6, pitch=-1792, time=7),
    Message('pitchwheel', channel=13, pitch=-1792, time=0),
    Message('pitchwheel', channel=6, pitch=-1408, time=7),
    Message('pitchwheel', channel=13, pitch=-1408, time=0),
    Message('note_on', channel=4, note=48, velocity=0, time=2),
    Message('note_on', channel=4, note=55, velocity=0, time=0),
    Message('pitchwheel', channel=6, pitch=-896, time=5),
    Message('pitchwheel', channel=13, pitch=-896, time=0),
    Message('pitchwheel', channel=6, pitch=-512, time=7),
    Message('pitchwheel', channel=13, pitch=-512, time=0),
    Message('pitchwheel', channel=6, pitch=0, time=7),
    Message('pitchwheel', channel=13, pitch=0, time=0),
    Message('note_on', channel=1, note=48, velocity=0, time=5),
    Message('note_on', channel=8, note=64, velocity=0, time=14),
    Message('note_on', channel=8, note=60, velocity=0, time=5),
    Message('note_on', channel=8, note=55, velocity=0, time=5),
    Message('note_on', channel=1, note=48, velocity=91, time=0),
    Message('note_on', channel=4, note=48, velocity=71, time=0),
    Message('note_on', channel=4, note=55, velocity=71, time=0),
    Message('note_on', channel=8, note=60, velocity=63, time=0),
    Message('note_on', channel=9, note=42, velocity=80, time=0),
    Message('note_on', channel=9, note=42, velocity=0, time=5),
    Message('note_on', channel=8, note=55, velocity=63, time=14),
    Message('note_on', channel=8, note=64, velocity=63, time=5),
    Message('control_change', channel=13, control=1, value=84, time=96),
    Message('note_on', channel=8, note=60, velocity=0, time=42),
    Message('note_on', channel=8, note=64, velocity=0, time=24),
    Message('note_on', channel=8, note=55, velocity=0, time=2),
    Message('note_on', channel=4, note=55, velocity=0, time=4),
    Message('note_on', channel=4, note=48, velocity=0, time=0),
    Message('note_on', channel=1, note=48, velocity=0, time=24),
    Message('note_on', channel=4, note=57, velocity=86, time=24),
    Message('note_on', channel=4, note=48, velocity=86, time=0),
    Message('note_on', channel=8, note=64, velocity=48, time=0),
    Message('note_on', channel=9, note=44, velocity=80, time=0),
    Message('note_on', channel=9, note=54, velocity=50, time=0),
    Message('note_on', channel=9, note=38, velocity=120, time=0),
    Message('note_on', channel=9, note=38, velocity=0, time=4),
    Message('note_on', channel=9, note=54, velocity=0, time=0),
    Message('note_on', channel=9, note=44, velocity=0, time=1),
    Message('note_on', channel=8, note=55, velocity=48, time=13),
    Message('note_on', channel=8, note=60, velocity=48, time=5),
    Message('note_on', channel=7, note=67, velocity=0, time=154),
    Message('note_on', channel=4, note=48, velocity=0, time=15),
    Message('note_on', channel=4, note=57, velocity=0, time=0),
    Message('note_on', channel=6, note=64, velocity=0, time=19),
    Message('note_on', channel=13, note=64, velocity=0, time=0),
    Message('control_change', channel=13, control=1, value=0, time=0),
    Message('pitchwheel', channel=6, pitch=-8064, time=7),
    Message('pitchwheel', channel=13, pitch=-8064, time=0),
    Message('note_on', channel=8, note=64, velocity=0, time=12),
    Message('note_on', channel=8, note=55, velocity=0, time=9),
    Message('note_on', channel=8, note=60, velocity=0, time=0),
    Message('note_on', channel=1, note=48, velocity=104, time=1),
    Message('note_on', channel=4, note=48, velocity=70, time=0),
    Message('note_on', channel=4, note=52, velocity=70, time=0),
    Message('note_on', channel=6, note=64, velocity=100, time=0),
    Message('note_on', channel=7, note=67, velocity=120, time=0),
    Message('note_on', channel=8, note=60, velocity=70, time=0),
    Message('note_on', channel=9, note=42, velocity=80, time=0),
    Message('note_on', channel=13, note=64, velocity=100, time=0),
    Message('note_on', channel=9, note=42, velocity=0, time=5),
    Message('note_on', channel=8, note=55, velocity=70, time=14),
    Message('note_on', channel=8, note=64, velocity=70, time=14),
    Message('pitchwheel', channel=6, pitch=-8192, time=136),
    Message('pitchwheel', channel=13, pitch=-8192, time=0),
    Message('pitchwheel', channel=6, pitch=-7808, time=7),
    Message('pitchwheel', channel=13, pitch=-7808, time=0),
    Message('pitchwheel', channel=6, pitch=-7296, time=7),
    Message('pitchwheel', channel=13, pitch=-7296, time=0),
    Message('pitchwheel', channel=6, pitch=-6912, time=7),
    Message('pitchwheel', channel=13, pitch=-6912, time=0),
    Message('note_on', channel=4, note=52, velocity=0, time=2),
    Message('note_on', channel=4, note=48, velocity=0, time=0),
    Message('pitchwheel', channel=6, pitch=-6400, time=5),
    Message('pitchwheel', channel=13, pitch=-6400, time=0),
    Message('pitchwheel', channel=6, pitch=-6016, time=7),
    Message('pitchwheel', channel=13, pitch=-6016, time=0),
    Message('pitchwheel', channel=6, pitch=-5504, time=7),
    Message('pitchwheel', channel=13, pitch=-5504, time=0),
    Message('note_on', channel=1, note=48, velocity=0, time=5),
    Message('pitchwheel', channel=6, pitch=-5120, time=2),
    Message('pitchwheel', channel=13, pitch=-5120, time=0),
    Message('pitchwheel', channel=6, pitch=-4608, time=7),
    Message('pitchwheel', channel=13, pitch=-4608, time=0),
    Message('note_on', channel=8, note=60, velocity=0, time=5),
    Message('pitchwheel', channel=6, pitch=-4096, time=2),
    Message('pitchwheel', channel=13, pitch=-4096, time=0),
    Message('note_on', channel=8, note=55, velocity=0, time=3),
    Message('note_on', channel=1, note=48, velocity=104, time=5),
    Message('note_on', channel=4, note=55, velocity=87, time=0),
    Message('note_on', channel=4, note=48, velocity=87, time=0),
    Message('pitchwheel', channel=6, pitch=-3712, time=0),
    Message('note_on', channel=8, note=55, velocity=80, time=0),
    Message('note_on', channel=9, note=44, velocity=80, time=0),
    Message('note_on', channel=9, note=36, velocity=120, time=0),
    Message('pitchwheel', channel=13, pitch=-3712, time=0),
    Message('note_on', channel=9, note=36, velocity=0, time=4),
    Message('note_on', channel=8, note=64, velocity=0, time=0),
    Message('note_on', channel=9, note=44, velocity=0, time=1),
    Message('pitchwheel', channel=6, pitch=-3200, time=2),
    Message('pitchwheel', channel=13, pitch=-3200, time=0),
    Message('pitchwheel', channel=6, pitch=-2816, time=7),
    Message('pitchwheel', channel=13, pitch=-2816, time=0),
    Message('note_on', channel=8, note=60, velocity=80, time=2),
    Message('pitchwheel', channel=6, pitch=-2304, time=5),
    Message('pitchwheel', channel=13, pitch=-2304, time=0),
    Message('note_on', channel=8, note=64, velocity=80, time=2),
    Message('pitchwheel', channel=6, pitch=-1920, time=5),
    Message('pitchwheel', channel=13, pitch=-1920, time=0),
    Message('pitchwheel', channel=6, pitch=-1408, time=7),
    Message('pitchwheel', channel=13, pitch=-1408, time=0),
    Message('pitchwheel', channel=6, pitch=-1024, time=7),
    Message('pitchwheel', channel=13, pitch=-1024, time=0),
    Message('pitchwheel', channel=6, pitch=-512, time=7),
    Message('pitchwheel', channel=13, pitch=-512, time=0),
    Message('pitchwheel', channel=6, pitch=0, time=7),
    Message('pitchwheel', channel=13, pitch=0, time=0),
    Message('note_on', channel=4, note=48, velocity=0, time=136),
    Message('note_on', channel=4, note=55, velocity=0, time=0),
    Message('note_on', channel=1, note=48, velocity=0, time=24),
    Message('note_on', channel=7, note=67, velocity=0, time=9),
    Message('note_on', channel=13, note=64, velocity=0, time=7),
    Message('note_on', channel=6, note=64, velocity=0, time=0),
    Message('note_on', channel=1, note=48, velocity=104, time=8),
    Message('note_on', channel=4, note=55, velocity=72, time=0),
    Message('note_on', channel=4, note=48, velocity=72, time=0),
    Message('note_on', channel=6, note=62, velocity=100, time=0),
    Message('note_on', channel=7, note=67, velocity=120, time=0),
    Message('note_on', channel=9, note=42, velocity=80, time=0),
    Message('note_on', channel=13, note=62, velocity=100, time=0),
    Message('note_on', channel=9, note=42, velocity=0, time=5),
    Message('note_on', channel=4, note=55, velocity=0, time=187),
    Message('note_on', channel=4, note=48, velocity=0, time=0),
    Message('note_on', channel=8, note=64, velocity=0, time=18),
    Message('note_on', channel=1, note=48, velocity=0, time=6),
    Message('note_on', channel=8, note=55, velocity=0, time=5),
    Message('note_on', channel=13, note=62, velocity=0, time=4),
    Message('note_on', channel=6, note=62, velocity=0, time=0),
    Message('note_on', channel=7, note=67, velocity=0, time=8),
    Message('note_on', channel=8, note=60, velocity=0, time=4),
    Message('note_on', channel=4, note=57, velocity=82, time=3),
    Message('note_on', channel=4, note=48, velocity=82, time=0),
    Message('note_on', channel=6, note=60, velocity=100, time=0),
    Message('note_on', channel=9, note=54, velocity=50, time=0),
    Message('note_on', channel=9, note=46, velocity=80, time=0),
    Message('note_on', channel=9, note=38, velocity=120, time=0),
    Message('note_on', channel=13, note=60, velocity=100, time=0),
    Message('note_on', channel=9, note=38, velocity=0, time=4),
    Message('note_on', channel=9, note=54, velocity=0, time=0),
    Message('note_on', channel=9, note=46, velocity=0, time=1),
    Message('note_on', channel=8, note=55, velocity=59, time=4),
    Message('note_on', channel=7, note=64, velocity=120, time=4),
    Message('note_on', channel=8, note=60, velocity=59, time=2),
    Message('note_on', channel=8, note=64, velocity=59, time=4),
    Message('note_on', channel=4, note=57, velocity=0, time=173),
    Message('note_on', channel=4, note=48, velocity=0, time=0),
    Message('note_on', channel=8, note=55, velocity=0, time=14),
    Message('note_on', channel=7, note=64, velocity=0, time=5),
    Message('note_on', channel=8, note=60, velocity=0, time=8),
    Message('note_on', channel=8, note=64, velocity=0, time=4),
    Message('note_on', channel=13, note=60, velocity=0, time=2),
    Message('note_on', channel=6, note=60, velocity=0, time=0),
    Message('note_on', channel=7, note=64, velocity=120, time=14),
    Message('note_on', channel=1, note=48, velocity=104, time=1),
    Message('note_on', channel=4, note=52, velocity=70, time=0),
    Message('note_on', channel=4, note=48, velocity=70, time=0),
    Message('note_on', channel=6, note=57, velocity=100, time=0),
    Message('note_on', channel=8, note=64, velocity=50, time=0),
    Message('note_on', channel=8, note=55, velocity=50, time=0),
    Message('note_on', channel=8, note=60, velocity=50, time=0),
    Message('note_on', channel=9, note=42, velocity=80, time=0),
    Message('note_on', channel=13, note=57, velocity=100, time=0),
    Message('note_on', channel=9, note=42, velocity=0, time=5),
    Message('note_on', channel=8, note=64, velocity=0, time=79),
    Message('note_on', channel=8, note=60, velocity=0, time=0),
    Message('note_on', channel=8, note=55, velocity=0, time=7),
    Message('note_on', channel=4, note=48, velocity=0, time=101),
    Message('note_on', channel=4, note=52, velocity=0, time=0),
    Message('note_on', channel=7, note=64, velocity=0, time=5),
    Message('note_on', channel=1, note=48, velocity=0, time=19),
    Message('note_on', channel=6, note=57, velocity=0, time=16),
    Message('note_on', channel=13, note=57, velocity=0, time=0),
    Message('note_on', channel=1, note=40, velocity=104, time=8),
    Message('note_on', channel=4, note=55, velocity=82, time=0),
    Message('note_on', channel=4, note=48, velocity=82, time=0),
    Message('note_on', channel=6, note=55, velocity=100, time=0),
    Message('note_on', channel=8, note=64, velocity=78, time=0),
    Message('note_on', channel=9, note=36, velocity=120, time=0),
    Message('note_on', channel=9, note=57, velocity=80, time=0),
    Message('note_on', channel=13, note=55, velocity=100, time=0),
    Message('note_on', channel=9, note=36, velocity=0, time=4),
    Message('note_on', channel=9, note=57, velocity=0, time=1),
    Message('note_on', channel=8, note=55, velocity=78, time=5),
    Message('note_on', channel=8, note=60, velocity=78, time=18),
    Message('note_on', channel=4, note=48, velocity=0, time=164),
    Message('note_on', channel=4, note=55, velocity=0, time=0),
    Message('note_on', channel=1, note=40, velocity=0, time=24),
    Message('note_on', channel=13, note=55, velocity=0, time=9),
    Message('note_on', channel=6, note=55, velocity=0, time=0),
    Message('note_on', channel=8, note=64, velocity=0, time=5),
    Message('note_on', channel=8, note=60, velocity=0, time=5),
    Message('note_on', channel=8, note=55, velocity=0, time=5),
    Message('note_on', channel=1, note=43, velocity=104, time=0),
    Message('note_on', channel=4, note=55, velocity=70, time=0),
    Message('note_on', channel=4, note=48, velocity=70, time=0),
    Message('note_on', channel=6, note=52, velocity=100, time=0),
    Message('note_on', channel=8, note=60, velocity=63, time=0),
    Message('note_on', channel=9, note=42, velocity=80, time=0),
    Message('note_on', channel=9, note=36, velocity=120, time=0),
    Message('note_on', channel=13, note=52, velocity=100, time=0),
    Message('note_on', channel=9, note=42, velocity=0, time=5),
    Message('note_on', channel=9, note=36, velocity=0, time=11),
    Message('note_on', channel=8, note=55, velocity=63, time=3),
    Message('note_on', channel=8, note=64, velocity=63, time=5),
    Message('note_on', channel=9, note=54, velocity=50, time=96),
    Message('note_on', channel=9, note=38, velocity=80, time=0),
    Message('note_on', channel=8, note=60, velocity=0, time=42),
    Message('note_on', channel=9, note=38, velocity=0, time=13),
    Message('note_on', channel=9, note=54, velocity=0, time=0),
    Message('note_on', channel=8, note=64, velocity=0, time=11),
    Message('note_on', channel=8, note=55, velocity=0, time=2),
    Message('note_on', channel=4, note=48, velocity=0, time=4),
    Message('note_on', channel=4, note=55, velocity=0, time=0),
    Message('note_on', channel=1, note=43, velocity=0, time=24),
    Message('note_on', channel=13, note=52, velocity=0, time=9),
    Message('note_on', channel=6, note=52, velocity=0, time=0),
    Message('note_on', channel=1, note=45, velocity=104, time=15),
    Message('note_on', channel=3, note=62, velocity=100, time=0),
    Message('note_on', channel=4, note=48, velocity=80, time=0),
    Message('note_on', channel=4, note=57, velocity=80, time=0),
    Message('note_on', channel=6, note=50, velocity=100, time=0),
    Message('note_on', channel=8, note=64, velocity=48, time=0),
    Message('note_on', channel=9, note=44, velocity=80, time=0),
    Message('note_on', channel=9, note=54, velocity=50, time=0),
    Message('note_on', channel=9, note=38, velocity=120, time=0),
    Message('note_on', channel=13, note=50, velocity=100, time=0),
    MetaMessage('lyrics', text='Tell ', time=0),
    Message('note_on', channel=9, note=38, velocity=0, time=4),
    Message('note_on', channel=9, note=54, velocity=0, time=0),
    Message('note_on', channel=9, note=44, velocity=0, time=1),
    Message('note_on', channel=8, note=55, velocity=48, time=13),
    Message('note_on', channel=8, note=60, velocity=48, time=5),
    Message('note_on', channel=4, note=57, velocity=0, time=169),
    Message('note_on', channel=4, note=48, velocity=0, time=0),
    Message('note_on', channel=1, note=45, velocity=0, time=24),
    Message('note_on', channel=8, note=64, velocity=0, time=14),
    Message('note_on', channel=6, note=50, velocity=0, time=2),
    Message('note_on', channel=13, note=50, velocity=0, time=0),
    Message('note_on', channel=8, note=55, velocity=0, time=7),
    Message('note_on', channel=8, note=60, velocity=0, time=0),
    Message('note_on', channel=3, note=62, velocity=0, time=1),
    Message('note_on', channel=1, note=43, velocity=104, time=0),
    Message('note_on', channel=3, note=60, velocity=100, time=0),
    Message('note_on', channel=4, note=52, velocity=70, time=0),
    Message('note_on', channel=4, note=48, velocity=70, time=0),
    Message('note_on', channel=6, note=48, velocity=100, time=0),
    Message('note_on', channel=8, note=60, velocity=70, time=0),
    Message('note_on', channel=9, note=42, velocity=80, time=0),
    Message('note_on', channel=13, note=48, velocity=100, time=0),
    MetaMessage('lyrics', text='me, ', time=0),
    MetaMessage('lyrics', text='\r', time=0),
    Message('note_on', channel=9, note=42, velocity=0, time=5),
    Message('note_on', channel=8, note=55, velocity=70, time=14),
    Message('note_on', channel=8, note=64, velocity=70, time=14),
    Message('note_on', channel=9, note=54, velocity=50, time=87),
    Message('note_on', channel=9, note=38, velocity=100, time=0),
    Message('note_on', channel=9, note=38, velocity=0, time=55),
    Message('note_on', channel=9, note=54, velocity=0, time=0),
    Message('note_on', channel=4, note=52, velocity=0, time=17),
    Message('note_on', channel=4, note=48, velocity=0, time=0),
    Message('note_on', channel=1, note=43, velocity=0, time=24),
    Message('note_on', channel=6, note=48, velocity=0, time=9),
    Message('note_on', channel=13, note=48, velocity=0, time=0),
    Message('note_on', channel=8, note=60, velocity=0, time=5),
    Message('note_on', channel=8, note=55, velocity=0, time=5),
    Message('note_on', channel=2, note=79, velocity=0, time=5),
    Message('note_on', channel=2, note=72, velocity=0, time=0),
    Message('note_on', channel=3, note=60, velocity=0, time=0),
    Message('note_on', channel=2, note=76, velocity=0, time=0),
    Message('note_on', channel=1, note=45, velocity=104, time=0),
    Message('note_on', channel=2, note=72, velocity=73, time=0),
    Message('note_on', channel=2, note=76, velocity=66, time=0),
    Message('note_on', channel=2, note=81, velocity=79, time=0),
    Message('note_on', channel=3, note=64, velocity=100, time=0),
    Message('note_on', channel=4, note=52, velocity=86, time=0),
    Message('note_on', channel=4, note=45, velocity=86, time=0),
    Message('note_on', channel=5, note=60, velocity=80, time=0),
    Message('note_on', channel=5, note=64, velocity=80, time=0),
    Message('note_on', channel=5, note=69, velocity=80, time=0),
    Message('note_on', channel=6, note=64, velocity=100, time=0),
    Message('note_on', channel=6, note=57, velocity=100, time=0),
    Message('note_on', channel=8, note=57, velocity=80, time=0),
    Message('note_on', channel=9, note=49, velocity=80, time=0),
    Message('note_on', channel=9, note=36, velocity=120, time=0),
    Message('note_on', channel=13, note=64, velocity=90, time=0),
    Message('note_on', channel=13, note=57, velocity=90, time=0),
    MetaMessage('lyrics', text='How ', time=0),
    Message('note_on', channel=9, note=36, velocity=0, time=4),
    Message('note_on', channel=8, note=64, velocity=0, time=0),
    Message('note_on', channel=9, note=49, velocity=0, time=1),
    Message('note_on', channel=8, note=60, velocity=80, time=11),
    Message('note_on', channel=8, note=64, velocity=80, time=7),
    Message('note_on', channel=4, note=45, velocity=0, time=169),
    Message('note_on', channel=4, note=52, velocity=0, time=0),
    Message('note_on', channel=4, note=52, velocity=69, time=48),
    Message('note_on', channel=4, note=45, velocity=69, time=0),
    Message('note_on', channel=9, note=42, velocity=80, time=0),
    Message('note_on', channel=9, note=42, velocity=0, time=5),
    Message('note_on', channel=4, note=45, velocity=0, time=187),
    Message('note_on', channel=4, note=52, velocity=0, time=0),
    Message('note_on', channel=1, note=45, velocity=0, time=0),
    Message('note_on', channel=8, note=64, velocity=0, time=18),
    Message('note_on', channel=8, note=57, velocity=0, time=11),
    Message('control_change', channel=13, control=1, value=59, time=4),
    Message('note_on', channel=8, note=60, velocity=0, time=12),
    Message('note_on', channel=1, note=45, velocity=104, time=3),
    Message('note_on', channel=4, note=45, velocity=83, time=0),
    Message('note_on', channel=4, note=52, velocity=83, time=0),
    Message('note_on', channel=9, note=44, velocity=80, time=0),
    Message('note_on', channel=9, note=54, velocity=50, time=0),
    Message('note_on', channel=9, note=38, velocity=120, time=0),
    Message('note_on', channel=9, note=38, velocity=0, time=4),
    Message('note_on', channel=9, note=54, velocity=0, time=0),
    Message('note_on', channel=9, note=44, velocity=0, time=1),
    Message('note_on', channel=8, note=57, velocity=59, time=4),
    Message('note_on', channel=8, note=60, velocity=59, time=6),
    Message('note_on', channel=8, note=64, velocity=59, time=4),
    Message('note_on', channel=4, note=52, velocity=0, time=173),
    Message('note_on', channel=4, note=45, velocity=0, time=0),
    Message('pitchwheel', channel=3, pitch=0, time=3),
    Message('pitchwheel', channel=5, pitch=0, time=0),
    Message('pitchwheel', channel=3, pitch=-256, time=9),
    Message('pitchwheel', channel=5, pitch=-256, time=0),
    Message('note_on', channel=8, note=57, velocity=0, time=2),
    Message('pitchwheel', channel=3, pitch=-640, time=7),
    Message('pitchwheel', channel=5, pitch=-640, time=0),
    Message('note_on', channel=1, note=45, velocity=0, time=3),
    Message('note_on', channel=8, note=60, velocity=0, time=3),
    Message('pitchwheel', channel=3, pitch=-896, time=3),
    Message('pitchwheel', channel=5, pitch=-896, time=0),
    Message('note_on', channel=8, note=64, velocity=0, time=1),
    Message('pitchwheel', channel=3, pitch=-1280, time=8),
    Message('pitchwheel', channel=5, pitch=-1280, time=0),
    Message('note_on', channel=1, note=45, velocity=104, time=9),
    Message('pitchwheel', channel=3, pitch=-1664, time=0),
    Message('note_on', channel=4, note=45, velocity=72, time=0),
    Message('note_on', channel=4, note=52, velocity=72, time=0),
    Message('pitchwheel', channel=5, pitch=-1664, time=0),
    Message('note_on', channel=8, note=64, velocity=50, time=0),
    Message('note_on', channel=8, note=60, velocity=50, time=0),
    Message('note_on', channel=8, note=57, velocity=50, time=0),
    Message('note_on', channel=9, note=42, velocity=80, time=0),
    Message('note_on', channel=9, note=36, velocity=120, time=0),
    Message('note_on', channel=9, note=36, velocity=0, time=4),
    Message('note_on', channel=9, note=42, velocity=0, time=1),
    Message('pitchwheel', channel=3, pitch=-1920, time=3),
    Message('pitchwheel', channel=5, pitch=-1920, time=0),
    Message('pitchwheel', channel=3, pitch=-2304, time=9),
    Message('pitchwheel', channel=5, pitch=-2304, time=0),
    Message('pitchwheel', channel=3, pitch=-2688, time=9),
    Message('pitchwheel', channel=5, pitch=-2688, time=0),
    Message('pitchwheel', channel=3, pitch=-2944, time=9),
    Message('pitchwheel', channel=5, pitch=-2944, time=0),
    Message('pitchwheel', channel=3, pitch=-3328, time=9),
    Message('pitchwheel', channel=5, pitch=-3328, time=0),
    Message('pitchwheel', channel=3, pitch=-3584, time=9),
    Message('pitchwheel', channel=5, pitch=-3584, time=0),
    Message('pitchwheel', channel=3, pitch=-3968, time=9),
    Message('pitchwheel', channel=5, pitch=-3968, time=0),
    Message('pitchwheel', channel=3, pitch=-4352, time=9),
    Message('pitchwheel', channel=5, pitch=-4352, time=0),
    Message('pitchwheel', channel=3, pitch=-4608, time=9),
    Message('pitchwheel', channel=5, pitch=-4608, time=0),
    Message('note_on', channel=8, note=60, velocity=0, time=4),
    Message('note_on', channel=8, note=64, velocity=0, time=0),
    Message('pitchwheel', channel=3, pitch=-4992, time=4),
    Message('pitchwheel', channel=5, pitch=-4992, time=0),
    Message('note_on', channel=8, note=57, velocity=0, time=3),
    Message('pitchwheel', channel=3, pitch=-5376, time=6),
    Message('pitchwheel', channel=5, pitch=-5376, time=0),
    Message('pitchwheel', channel=3, pitch=-5632, time=9),
    Message('pitchwheel', channel=5, pitch=-5632, time=0),
    Message('pitchwheel', channel=3, pitch=-6016, time=9),
    Message('pitchwheel', channel=5, pitch=-6016, time=0),
    Message('pitchwheel', channel=3, pitch=-6272, time=9),
    Message('pitchwheel', channel=5, pitch=-6272, time=0),
    Message('pitchwheel', channel=3, pitch=-6656, time=9),
    Message('pitchwheel', channel=5, pitch=-6656, time=0),
    Message('pitchwheel', channel=3, pitch=-7040, time=9),
    Message('pitchwheel', channel=5, pitch=-7040, time=0),
    Message('pitchwheel', channel=3, pitch=-7296, time=9),
    Message('pitchwheel', channel=5, pitch=-7296, time=0),
    Message('pitchwheel', channel=3, pitch=-7680, time=9),
    Message('pitchwheel', channel=5, pitch=-7680, time=0),
    Message('pitchwheel', channel=3, pitch=-8064, time=8),
    Message('pitchwheel', channel=5, pitch=-8064, time=0),
    Message('note_on', channel=4, note=52, velocity=0, time=24),
    Message('note_on', channel=4, note=45, velocity=0, time=0),
    Message('note_on', channel=1, note=45, velocity=0, time=24),
    Message('pitchwheel', channel=3, pitch=0, time=15),
    Message('pitchwheel', channel=5, pitch=0, time=0),
    Message('control_change', channel=13, control=1, value=0, time=1),
    Message('note_on', channel=2, note=72, velocity=0, time=8),
    Message('note_on', channel=5, note=64, velocity=0, time=0),
    Message('note_on', channel=2, note=81, velocity=0, time=0),
    Message('note_on', channel=13, note=57, velocity=0, time=0),
    Message('note_on', channel=3, note=64, velocity=0, time=0),
    Message('note_on', channel=6, note=64, velocity=0, time=0),
    Message('note_on', channel=6, note=57, velocity=0, time=0),
    Message('note_on', channel=5, note=69, velocity=0, time=0),
    Message('note_on', channel=2, note=76, velocity=0, time=0),
    Message('note_on', channel=13, note=64, velocity=0, time=0),
    Message('note_on', channel=5, note=60, velocity=0, time=0),
    Message('note_on', channel=1, note=43, velocity=104, time=0),
    Message('note_on', channel=2, note=71, velocity=68, time=0),
    Message('note_on', channel=2, note=79, velocity=77, time=0),
    Message('note_on', channel=2, note=74, velocity=81, time=0),
    Message('note_on', channel=3, note=62, velocity=100, time=0),
    Message('note_on', channel=4, note=43, velocity=80, time=0),
    Message('note_on', channel=4, note=50, velocity=80, time=0),
    Message('note_on', channel=5, note=62, velocity=80, time=0),
    Message('note_on', channel=5, note=59, velocity=80, time=0),
    Message('note_on', channel=5, note=67, velocity=80, time=0),
    Message('note_on', channel=6, note=62, velocity=100, time=0),
    Message('note_on', channel=6, note=55, velocity=100, time=0),
    Message('note_on', channel=8, note=62, velocity=78, time=0),
    Message('note_on', channel=9, note=36, velocity=120, time=0),
    Message('note_on', channel=9, note=44, velocity=80, time=0),
    Message('note_on', channel=13, note=62, velocity=90, time=0),
    Message('note_on', channel=13, note=55, velocity=90, time=0),
    MetaMessage('lyrics', text='long, ', time=0),
    Message('note_on', channel=9, note=36, velocity=0, time=4),
    Message('note_on', channel=9, note=44, velocity=0, time=1),
    Message('note_on', channel=8, note=55, velocity=78, time=5),
    Message('note_on', channel=8, note=59, velocity=78, time=18),
    Message('note_on', channel=4, note=50, velocity=0, time=164),
    Message('note_on', channel=4, note=43, velocity=0, time=0),
    Message('note_on', channel=4, note=43, velocity=71, time=48),
    Message('note_on', channel=4, note=50, velocity=71, time=0),
    Message('note_on', channel=9, note=42, velocity=80, time=0),
    Message('note_on', channel=9, note=42, velocity=0, time=5),
    Message('control_change', channel=13, control=1, value=52, time=107),
    Message('note_on', channel=4, note=50, velocity=0, time=80),
    Message('note_on', channel=4, note=43, velocity=0, time=0),
    Message('note_on', channel=1, note=43, velocity=0, time=0),
    Message('note_on', channel=8, note=55, velocity=0, time=1),
    Message('note_on', channel=8, note=62, velocity=0, time=18),
    Message('note_on', channel=8, note=59, velocity=0, time=5),
    Message('note_on', channel=4, note=43, velocity=86, time=24),
    Message('note_on', channel=4, note=50, velocity=86, time=0),
    Message('note_on', channel=8, note=62, velocity=48, time=0),
    Message('note_on', channel=9, note=44, velocity=80, time=0),
    Message('note_on', channel=9, note=54, velocity=50, time=0),
    Message('note_on', channel=9, note=38, velocity=120, time=0),
    Message('note_on', channel=9, note=38, velocity=0, time=4),
    Message('note_on', channel=9, note=54, velocity=0, time=0),
    Message('note_on', channel=9, note=44, velocity=0, time=1),
    Message('note_on', channel=8, note=55, velocity=48, time=13),
    Message('note_on', channel=8, note=59, velocity=48, time=5),
    Message('note_on', channel=4, note=50, velocity=0, time=169),
    Message('note_on', channel=4, note=43, velocity=0, time=0),
    Message('note_on', channel=8, note=62, velocity=0, time=38),
    Message('note_on', channel=8, note=59, velocity=0, time=9),
    Message('note_on', channel=8, note=55, velocity=0, time=0),
    Message('note_on', channel=1, note=43, velocity=104, time=1),
    Message('note_on', channel=4, note=50, velocity=70, time=0),
    Message('note_on', channel=4, note=43, velocity=70, time=0),
    Message('note_on', channel=8, note=59, velocity=70, time=0),
    Message('note_on', channel=9, note=42, velocity=80, time=0),
    Message('note_on', channel=9, note=42, velocity=0, time=5),
    Message('note_on', channel=8, note=55, velocity=70, time=14),
    Message('note_on', channel=8, note=62, velocity=70, time=14),
    Message('note_on', channel=4, note=43, velocity=0, time=159),
    Message('note_on', channel=4, note=50, velocity=0, time=0),
    Message('note_on', channel=1, note=43, velocity=0, time=24),
    Message('control_change', channel=13, control=1, value=0, time=2),
    Message('note_on', channel=8, note=59, velocity=0, time=12),
    Message('note_on', channel=8, note=55, velocity=0, time=5),
    Message('note_on', channel=2, note=71, velocity=0, time=5),
    Message('note_on', channel=6, note=55, velocity=0, time=0),
    Message('note_on', channel=5, note=59, velocity=0, time=0),
    Message('note_on', channel=2, note=74, velocity=0, time=0),
    Message('note_on', channel=3, note=62, velocity=0, time=0),
    Message('note_on', channel=5, note=62, velocity=0, time=0),
    Message('note_on', channel=13, note=55, velocity=0, time=0),
    Message('note_on', channel=2, note=79, velocity=0, time=0),
    Message('note_on', channel=5, note=67, velocity=0, time=0),
    Message('note_on', channel=13, note=62, velocity=0, time=0),
    Message('note_on', channel=6, note=62, velocity=0, time=0),
    Message('note_on', channel=1, note=41, velocity=104, time=0),
    Message('note_on', channel=2, note=77, velocity=81, time=0),
    Message('note_on', channel=2, note=81, velocity=70, time=0),
    Message('note_on', channel=2, note=72, velocity=56, time=0),
    Message('note_on', channel=3, note=60, velocity=100, time=0),
    Message('note_on', channel=4, note=48, velocity=87, time=0),
    Message('note_on', channel=4, note=41, velocity=87, time=0),
    Message('note_on', channel=5, note=60, velocity=80, time=0),
    Message('note_on', channel=5, note=65, velocity=80, time=0),
    Message('note_on', channel=5, note=57, velocity=80, time=0),
    Message('note_on', channel=6, note=60, velocity=100, time=0),
    Message('note_on', channel=6, note=53, velocity=100, time=0),
    Message('note_on', channel=8, note=57, velocity=80, time=0),
    Message('note_on', channel=9, note=44, velocity=80, time=0),
    Message('note_on', channel=9, note=36, velocity=120, time=0),
    Message('note_on', channel=13, note=60, velocity=90, time=0),
    Message('note_on', channel=13, note=53, velocity=90, time=0),
    MetaMessage('lyrics', text='how ', time=0),
    Message('note_on', channel=9, note=36, velocity=0, time=4),
    Message('note_on', channel=8, note=62, velocity=0, time=0),
    Message('note_on', channel=9, note=44, velocity=0, time=1),
    Message('note_on', channel=8, note=60, velocity=80, time=11),
    Message('note_on', channel=8, note=65, velocity=80, time=7),
    Message('note_on', channel=4, note=41, velocity=0, time=169),
    Message('note_on', channel=4, note=48, velocity=0, time=0),
    Message('note_on', channel=4, note=41, velocity=72, time=48),
    Message('note_on', channel=4, note=48, velocity=72, time=0),
    Message('note_on', channel=9, note=42, velocity=80, time=0),
    Message('note_on', channel=9, note=42, velocity=0, time=5),
    Message('control_change', channel=13, control=1, value=55, time=16),
    Message('note_on', channel=4, note=48, velocity=0, time=171),
    Message('note_on', channel=4, note=41, velocity=0, time=0),
    Message('note_on', channel=1, note=41, velocity=0, time=0),
    Message('note_on', channel=8, note=65, velocity=0, time=18),
    Message('note_on', channel=8, note=57, velocity=0, time=11),
    Message('note_on', channel=8, note=60, velocity=0, time=16),
    Message('note_on', channel=4, note=41, velocity=82, time=3),
    Message('note_on', channel=4, note=48, velocity=82, time=0),
    Message('note_on', channel=9, note=54, velocity=50, time=0),
    Message('note_on', channel=9, note=44, velocity=80, time=0),
    Message('note_on', channel=9, note=38, velocity=120, time=0),
    Message('note_on', channel=9, note=38, velocity=0, time=4),
    Message('note_on', channel=9, note=54, velocity=0, time=0),
    Message('note_on', channel=9, note=44, velocity=0, time=1),
    Message('note_on', channel=8, note=57, velocity=59, time=4),
    Message('note_on', channel=8, note=60, velocity=59, time=6),
    Message('note_on', channel=8, note=65, velocity=59, time=4),
    Message('note_on', channel=4, note=41, velocity=0, time=173),
    Message('note_on', channel=4, note=48, velocity=0, time=0),
    Message('control_change', channel=13, control=1, value=0, time=12),
    Message('note_on', channel=8, note=57, velocity=0, time=2),
    Message('note_on', channel=8, note=60, velocity=0, time=13),
    Message('note_on', channel=8, note=65, velocity=0, time=4),
    Message('note_on', channel=6, note=53, velocity=0, time=17),
    Message('note_on', channel=13, note=53, velocity=0, time=0),
    Message('note_on', channel=6, note=60, velocity=0, time=0),
    Message('note_on', channel=13, note=60, velocity=0, time=0),
    Message('note_on', channel=1, note=41, velocity=104, time=0),
    Message('note_on', channel=4, note=41, velocity=70, time=0),
    Message('note_on', channel=4, note=48, velocity=70, time=0),
    Message('note_on', channel=6, note=67, velocity=100, time=0),
    Message('note_on', channel=6, note=60, velocity=100, time=0),
    Message('note_on', channel=8, note=60, velocity=50, time=0),
    Message('note_on', channel=8, note=57, velocity=50, time=0),
    Message('note_on', channel=8, note=65, velocity=50, time=0),
    Message('note_on', channel=9, note=36, velocity=120, time=0),
    Message('note_on', channel=9, note=42, velocity=80, time=0),
    Message('note_on', channel=13, note=67, velocity=90, time=0),
    Message('note_on', channel=13, note=60, velocity=90, time=0),
    Message('note_on', channel=9, note=36, velocity=0, time=4),
    Message('note_on', channel=9, note=42, velocity=0, time=1),
    Message('note_on', channel=8, note=65, velocity=0, time=79),
    Message('note_on', channel=8, note=60, velocity=0, time=0),
    Message('note_on', channel=8, note=57, velocity=0, time=7),
    Message('note_on', channel=4, note=41, velocity=0, time=101),
    Message('note_on', channel=4, note=48, velocity=0, time=0),
    Message('note_on', channel=1, note=41, velocity=0, time=24),
    Message('note_on', channel=2, note=81, velocity=0, time=24),
    Message('note_on', channel=2, note=77, velocity=0, time=0),
    Message('note_on', channel=3, note=60, velocity=0, time=0),
    Message('note_on', channel=5, note=57, velocity=0, time=0),
    Message('note_on', channel=5, note=60, velocity=0, time=0),
    Message('note_on', channel=5, note=65, velocity=0, time=0),
    Message('note_on', channel=1, note=48, velocity=104, time=0),
    Message('note_on', channel=2, note=76, velocity=64, time=0),
    Message('note_on', channel=2, note=79, velocity=67, time=0),
    Message('note_on', channel=3, note=60, velocity=100, time=0),
    Message('note_on', channel=4, note=43, velocity=82, time=0),
    Message('note_on', channel=4, note=48, velocity=82, time=0),
    Message('note_on', channel=5, note=64, velocity=80, time=0),
    Message('note_on', channel=5, note=55, velocity=80, time=0),
    Message('note_on', channel=5, note=60, velocity=80, time=0),
    Message('note_on', channel=8, note=64, velocity=78, time=0),
    Message('note_on', channel=9, note=44, velocity=80, time=0),
    Message('note_on', channel=9, note=36, velocity=120, time=0),
    MetaMessage('lyrics', text='long, ', time=0),
    MetaMessage('lyrics', text='\r', time=0),
    Message('note_on', channel=9, note=36, velocity=0, time=4),
    Message('note_on', channel=9, note=44, velocity=0, time=1),
    Message('note_on', channel=8, note=55, velocity=78, time=5),
    Message('note_on', channel=8, note=60, velocity=78, time=18),
    Message('control_change', channel=13, control=1, value=59, time=113),
    Message('note_on', channel=4, note=48, velocity=0, time=51),
    Message('note_on', channel=4, note=43, velocity=0, time=0),
    Message('note_on', channel=8, note=64, velocity=0, time=38),
    Message('note_on', channel=8, note=60, velocity=0, time=5),
    Message('note_on', channel=8, note=55, velocity=0, time=5),
    Message('note_on', channel=4, note=43, velocity=70, time=0),
    Message('note_on', channel=4, note=48, velocity=70, time=0),
    Message('note_on', channel=8, note=60, velocity=63, time=0),
    Message('note_on', channel=9, note=42, velocity=80, time=0),
    Message('note_on', channel=9, note=42, velocity=0, time=5),
    Message('note_on', channel=8, note=55, velocity=63, time=14),
    Message('note_on', channel=8, note=64, velocity=63, time=5),
    Message('note_on', channel=8, note=60, velocity=0, time=138),
    Message('note_on', channel=8, note=64, velocity=0, time=24),
    Message('note_on', channel=8, note=55, velocity=0, time=2),
    Message('note_on', channel=1, note=48, velocity=0, time=4),
    Message('note_on', channel=4, note=48, velocity=0, time=0),
    Message('note_on', channel=4, note=43, velocity=0, time=0),
    Message('control_change', channel=13, control=1, value=0, time=26),
    Message('note_on', channel=13, note=67, velocity=0, time=19),
    Message('note_on', channel=6, note=67, velocity=0, time=0),
    Message('note_on', channel=13, note=60, velocity=0, time=0),
    Message('note_on', channel=6, note=60, velocity=0, time=0),
    Message('note_on', channel=4, note=48, velocity=80, time=3),
    Message('note_on', channel=4, note=43, velocity=80, time=0),
    Message('note_on', channel=6, note=67, velocity=100, time=0),
    Message('note_on', channel=6, note=72, velocity=100, time=0),
    Message('note_on', channel=8, note=64, velocity=48, time=0),
    Message('note_on', channel=9, note=54, velocity=50, time=0),
    Message('note_on', channel=9, note=49, velocity=80, time=0),
    Message('note_on', channel=9, note=38, velocity=120, time=0),
    Message('note_on', channel=13, note=67, velocity=100, time=0),
    Message('note_on', channel=13, note=72, velocity=100, time=0),
    Message('note_on', channel=9, note=38, velocity=0, time=4),
    Message('note_on', channel=9, note=54, velocity=0, time=0),
    Message('note_on', channel=9, note=49, velocity=0, time=1),
    Message('note_on', channel=8, note=55, velocity=48, time=13),
    Message('note_on', channel=8, note=60, velocity=48, time=5),
    Message('note_on', channel=4, note=48, velocity=0, time=169),
    Message('note_on', channel=4, note=43, velocity=0, time=0),
    Message('note_on', channel=8, note=64, velocity=0, time=38),
    Message('note_on', channel=8, note=60, velocity=0, time=9),
    Message('note_on', channel=8, note=55, velocity=0, time=0),
    Message('note_on', channel=1, note=48, velocity=104, time=1),
    Message('note_on', channel=4, note=43, velocity=70, time=0),
    Message('note_on', channel=4, note=48, velocity=70, time=0),
    Message('note_on', channel=8, note=60, velocity=70, time=0),
    Message('note_on', channel=9, note=42, velocity=80, time=0),
    Message('note_on', channel=9, note=42, velocity=0, time=5),
    Message('note_on', channel=8, note=55, velocity=70, time=14),
    Message('note_on', channel=8, note=64, velocity=70, time=14),
    Message('note_on', channel=4, note=48, velocity=0, time=159),
    Message('note_on', channel=4, note=43, velocity=0, time=0),
    Message('note_on', channel=1, note=48, velocity=0, time=24),
    Message('note_on', channel=8, note=60, velocity=0, time=14),
    Message('pitchwheel', channel=7, pitch=-8192, time=0),
    Message('note_on', channel=8, note=55, velocity=0, time=5),
    Message('note_on', channel=2, note=79, velocity=0, time=5),
    Message('note_on', channel=5, note=60, velocity=0, time=0),
    Message('note_on', channel=5, note=55, velocity=0, time=0),
    Message('note_on', channel=5, note=64, velocity=0, time=0),
    Message('note_on', channel=2, note=72, velocity=0, time=0),
    Message('note_on', channel=3, note=60, velocity=0, time=0),
    Message('note_on', channel=2, note=76, velocity=0, time=0),
    Message('note_on', channel=1, note=48, velocity=104, time=0),
    Message('note_on', channel=2, note=79, velocity=67, time=0),
    Message('note_on', channel=2, note=72, velocity=54, time=0),
    Message('note_on', channel=2, note=76, velocity=70, time=0),
    Message('note_on', channel=4, note=48, velocity=86, time=0),
    Message('note_on', channel=4, note=55, velocity=86, time=0),
    Message('note_on', channel=8, note=55, velocity=80, time=0),
    Message('note_on', channel=9, note=44, velocity=80, time=0),
    Message('note_on', channel=9, note=36, velocity=120, time=0),
    Message('note_on', channel=9, note=36, velocity=0, time=4),
    Message('note_on', channel=8, note=64, velocity=0, time=0),
    Message('note_on', channel=9, note=44, velocity=0, time=1),
    Message('note_on', channel=7, note=64, velocity=120, time=6),
    Message('note_on', channel=8, note=60, velocity=80, time=5),
    Message('note_on', channel=8, note=64, velocity=80, time=7),
    Message('control_change', channel=13, control=1, value=39, time=61),
    Message('note_on', channel=4, note=55, velocity=0, time=108),
    Message('note_on', channel=4, note=48, velocity=0, time=0),
    Message('note_on', channel=1, note=48, velocity=0, time=24),
    Message('note_on', channel=1, note=48, velocity=104, time=24),
    Message('note_on', channel=4, note=48, velocity=69, time=0),
    Message('note_on', channel=4, note=55, velocity=69, time=0),
    Message('note_on', channel=9, note=42, velocity=80, time=0),
    Message('note_on', channel=9, note=42, velocity=0, time=5),
    Message('pitchwheel', channel=7, pitch=-8064, time=27),
    Message('pitchwheel', channel=7, pitch=-7936, time=14),
    Message('pitchwheel', channel=7, pitch=-7808, time=14),
    Message('pitchwheel', channel=7, pitch=-7680, time=7),
    Message('pitchwheel', channel=7, pitch=-7552, time=14),
    Message('pitchwheel', channel=7, pitch=-7424, time=15),
    Message('pitchwheel', channel=7, pitch=-7296, time=7),
    Message('pitchwheel', channel=7, pitch=-7168, time=14),
    Message('pitchwheel', channel=7, pitch=-7040, time=14),
    Message('pitchwheel', channel=7, pitch=-6912, time=7),
    Message('pitchwheel', channel=7, pitch=-6784, time=14),
    Message('pitchwheel', channel=7, pitch=-6656, time=7),
    Message('pitchwheel', channel=7, pitch=-6528, time=14),
    Message('pitchwheel', channel=7, pitch=-6400, time=14),
    Message('note_on', channel=4, note=55, velocity=0, time=5),
    Message('note_on', channel=4, note=48, velocity=0, time=0),
    Message('pitchwheel', channel=7, pitch=-6272, time=2),
    Message('pitchwheel', channel=7, pitch=-6144, time=14),
    Message('note_on', channel=8, note=64, velocity=0, time=2),
    Message('note_on', channel=1, note=48, velocity=0, time=6),
    Message('note_on', channel=8, note=55, velocity=0, time=5),
    Message('pitchwheel', channel=7, pitch=-6016, time=2),
    Message('pitchwheel', channel=7, pitch=-5888, time=7),
    Message('note_on', channel=8, note=60, velocity=0, time=7),
    Message('note_on', channel=3, note=64, velocity=100, time=3),
    Message('note_on', channel=4, note=57, velocity=83, time=0),
    Message('note_on', channel=4, note=48, velocity=83, time=0),
    Message('note_on', channel=9, note=44, velocity=80, time=0),
    Message('note_on', channel=9, note=54, velocity=50, time=0),
    Message('note_on', channel=9, note=38, velocity=120, time=0),
    MetaMessage('lyrics', text='wo', time=0),
    Message('note_on', channel=9, note=38, velocity=0, time=4),
    Message('note_on', channel=9, note=54, velocity=0, time=0),
    Message('pitchwheel', channel=7, pitch=-5760, time=0),
    Message('note_on', channel=9, note=44, velocity=0, time=1),
    Message('note_on', channel=8, note=55, velocity=59, time=4),
    Message('note_on', channel=8, note=60, velocity=59, time=6),
    Message('pitchwheel', channel=7, pitch=-5632, time=3),
    Message('note_on', channel=8, note=64, velocity=59, time=1),
    Message('pitchwheel', channel=7, pitch=-5504, time=6),
    Message('pitchwheel', channel=7, pitch=-5376, time=14),
    Message('pitchwheel', channel=7, pitch=-5248, time=7),
    Message('pitchwheel', channel=7, pitch=-5120, time=14),
    Message('pitchwheel', channel=7, pitch=-4992, time=14),
    Message('pitchwheel', channel=7, pitch=-4864, time=7),
    Message('pitchwheel', channel=7, pitch=-4736, time=15),
    Message('pitchwheel', channel=7, pitch=-4608, time=14),
    Message('pitchwheel', channel=7, pitch=-4480, time=7),
    Message('pitchwheel', channel=7, pitch=-4352, time=14),
    Message('pitchwheel', channel=7, pitch=-4224, time=14),
    Message('pitchwheel', channel=7, pitch=-4096, time=7),
    Message('pitchwheel', channel=7, pitch=-3968, time=14),
    Message('pitchwheel', channel=7, pitch=-3840, time=7),
    Message('pitchwheel', channel=7, pitch=-3712, time=14),
    Message('note_on', channel=4, note=57, velocity=0, time=5),
    Message('note_on', channel=4, note=48, velocity=0, time=0),
    Message('pitchwheel', channel=7, pitch=-3584, time=9),
    Message('note_on', channel=8, note=55, velocity=0, time=5),
    Message('pitchwheel', channel=7, pitch=-3456, time=2),
    Message('note_on', channel=8, note=60, velocity=0, time=11),
    Message('note_on', channel=8, note=64, velocity=0, time=4),
    Message('pitchwheel', channel=7, pitch=-3328, time=0),
    Message('pitchwheel', channel=7, pitch=-3200, time=14),
    Message('note_on', channel=3, note=64, velocity=0, time=3),
    Message('note_on', channel=1, note=48, velocity=104, time=0),
    Message('note_on', channel=3, note=67, velocity=100, time=0),
    Message('note_on', channel=4, note=52, velocity=72, time=0),
    Message('note_on', channel=4, note=48, velocity=72, time=0),
    Message('note_on', channel=8, note=64, velocity=50, time=0),
    Message('note_on', channel=8, note=55, velocity=50, time=0),
    Message('note_on', channel=8, note=60, velocity=50, time=0),
    Message('note_on', channel=9, note=36, velocity=120, time=0),
    Message('note_on', channel=9, note=42, velocity=80, time=0),
    MetaMessage('lyrics', text='man ', time=0),
    Message('pitchwheel', channel=7, pitch=-3072, time=4),
    Message('note_on', channel=9, note=42, velocity=0, time=1),
    Message('note_on', channel=9, note=36, velocity=0, time=11),
    Message('pitchwheel', channel=7, pitch=-2944, time=2),
    Message('pitchwheel', channel=7, pitch=-2816, time=14),
    Message('pitchwheel', channel=7, pitch=-2688, time=7),
    Message('pitchwheel', channel=7, pitch=-2560, time=14),
    Message('pitchwheel', channel=7, pitch=-2432, time=7),
    Message('pitchwheel', channel=7, pitch=-2304, time=14),
    Message('note_on', channel=8, note=60, velocity=0, time=10),
    Message('note_on', channel=8, note=64, velocity=0, time=0),
    Message('pitchwheel', channel=7, pitch=-2176, time=4),
    Message('note_on', channel=8, note=55, velocity=0, time=3),
    Message('pitchwheel', channel=7, pitch=-2048, time=5),
    Message('pitchwheel', channel=7, pitch=-1920, time=14),
    Message('pitchwheel', channel=7, pitch=-1792, time=14),
    Message('pitchwheel', channel=7, pitch=-1664, time=7),
    Message('pitchwheel', channel=7, pitch=-1536, time=14),
    Message('pitchwheel', channel=7, pitch=-1408, time=14),
    Message('pitchwheel', channel=7, pitch=-1280, time=7),
    Message('pitchwheel', channel=7, pitch=-1152, time=14),
    Message('pitchwheel', channel=7, pitch=-1024, time=7),
    Message('note_on', channel=4, note=52, velocity=0, time=5),
    Message('note_on', channel=4, note=48, velocity=0, time=0),
    Message('pitchwheel', channel=7, pitch=-896, time=9),
    Message('note_on', channel=1, note=48, velocity=0, time=15),
    Message('pitchwheel', channel=7, pitch=-768, time=0),
    Message('pitchwheel', channel=7, pitch=-640, time=7),
    Message('control_change', channel=13, control=1, value=71, time=9),
    Message('pitchwheel', channel=7, pitch=-512, time=5),
    Message('note_on', channel=3, note=67, velocity=0, time=3),
    Message('note_on', channel=1, note=48, velocity=104, time=0),
    Message('note_on', channel=3, note=67, velocity=100, time=0),
    Message('note_on', channel=4, note=55, velocity=80, time=0),
    Message('note_on', channel=4, note=48, velocity=80, time=0),
    Message('note_on', channel=8, note=64, velocity=78, time=0),
    Message('note_on', channel=9, note=36, velocity=120, time=0),
    Message('note_on', channel=9, note=44, velocity=80, time=0),
    MetaMessage('lyrics', text='will ', time=0),
    Message('note_on', channel=9, note=36, velocity=0, time=4),
    Message('note_on', channel=9, note=44, velocity=0, time=1),
    Message('note_on', channel=8, note=55, velocity=78, time=5),
    Message('pitchwheel', channel=7, pitch=-384, time=1),
    Message('pitchwheel', channel=7, pitch=-256, time=7),
    Message('note_on', channel=8, note=60, velocity=78, time=10),
    Message('pitchwheel', channel=7, pitch=-128, time=4),
    Message('pitchwheel', channel=7, pitch=0, time=7),
    Message('note_on', channel=4, note=55, velocity=0, time=153),
    Message('note_on', channel=4, note=48, velocity=0, time=0),
    Message('note_on', channel=1, note=48, velocity=0, time=24),
    Message('note_on', channel=8, note=64, velocity=0, time=14),
    Message('note_on', channel=8, note=60, velocity=0, time=5),
    Message('note_on', channel=3, note=67, velocity=0, time=5),
    Message('note_on', channel=8, note=55, velocity=0, time=0),
    Message('note_on', channel=1, note=48, velocity=104, time=0),
    Message('note_on', channel=3, note=67, velocity=100, time=0),
    Message('note_on', channel=4, note=48, velocity=71, time=0),
    Message('note_on', channel=4, note=55, velocity=71, time=0),
    Message('note_on', channel=8, note=60, velocity=63, time=0),
    Message('note_on', channel=9, note=42, velocity=80, time=0),
    MetaMessage('lyrics', text='you, ', time=0),
    Message('note_on', channel=9, note=42, velocity=0, time=5),
    Message('note_on', channel=8, note=55, velocity=63, time=14),
    Message('note_on', channel=8, note=64, velocity=63, time=5),
    Message('note_on', channel=8, note=60, velocity=0, time=138),
    Message('note_on', channel=8, note=64, velocity=0, time=24),
    Message('note_on', channel=8, note=55, velocity=0, time=2),
    Message('note_on', channel=4, note=55, velocity=0, time=4),
    Message('note_on', channel=4, note=48, velocity=0, time=0),
    Message('note_on', channel=1, note=48, velocity=0, time=24),
    Message('note_on', channel=4, note=48, velocity=86, time=24),
    Message('note_on', channel=4, note=57, velocity=86, time=0),
    Message('note_on', channel=8, note=64, velocity=48, time=0),
    Message('note_on', channel=9, note=44, velocity=80, time=0),
    Message('note_on', channel=9, note=54, velocity=50, time=0),
    Message('note_on', channel=9, note=38, velocity=120, time=0),
    Message('note_on', channel=9, note=38, velocity=0, time=4),
    Message('note_on', channel=9, note=54, velocity=0, time=0),
    Message('note_on', channel=9, note=44, velocity=0, time=1),
    Message('note_on', channel=8, note=55, velocity=48, time=13),
    Message('note_on', channel=8, note=60, velocity=48, time=5),
    Message('note_on', channel=4, note=48, velocity=0, time=169),
    Message('note_on', channel=4, note=57, velocity=0, time=0),
    Message('note_on', channel=8, note=64, velocity=0, time=38),
    Message('note_on', channel=8, note=55, velocity=0, time=9),
    Message('note_on', channel=8, note=60, velocity=0, time=0),
    Message('note_on', channel=3, note=67, velocity=0, time=1),
    Message('note_on', channel=1, note=48, velocity=104, time=0),
    Message('note_on', channel=3, note=67, velocity=100, time=0),
    Message('note_on', channel=4, note=48, velocity=70, time=0),
    Message('note_on', channel=4, note=52, velocity=70, time=0),
    Message('note_on', channel=8, note=60, velocity=70, time=0),
    Message('note_on', channel=9, note=42, velocity=80, time=0),
    MetaMessage('lyrics', text='we', time=0),
    Message('note_on', channel=9, note=42, velocity=0, time=5),
    Message('note_on', channel=8, note=55, velocity=70, time=14),
    Message('note_on', channel=8, note=64, velocity=70, time=14),
    Message('note_on', channel=4, note=52, velocity=0, time=159),
    Message('note_on', channel=4, note=48, velocity=0, time=0),
    Message('note_on', channel=1, note=48, velocity=0, time=24),
    Message('control_change', channel=13, control=1, value=0, time=9),
    Message('note_on', channel=7, note=64, velocity=0, time=5),
    Message('note_on', channel=8, note=60, velocity=0, time=0),
    Message('note_on', channel=8, note=55, velocity=0, time=5),
    Message('note_on', channel=13, note=72, velocity=0, time=5),
    Message('note_on', channel=6, note=67, velocity=0, time=0),
    Message('note_on', channel=2, note=79, velocity=0, time=0),
    Message('note_on', channel=2, note=72, velocity=0, time=0),
    Message('note_on', channel=13, note=67, velocity=0, time=0),
    Message('note_on', channel=2, note=76, velocity=0, time=0),
    Message('note_on', channel=6, note=72, velocity=0, time=0),
    Message('note_on', channel=1, note=43, velocity=104, time=0),
    Message('note_on', channel=2, note=71, velocity=66, time=0),
    Message('note_on', channel=2, note=79, velocity=59, time=0),
    Message('note_on', channel=2, note=74, velocity=59, time=0),
    Message('note_on', channel=4, note=50, velocity=87, time=0),
    Message('note_on', channel=4, note=43, velocity=87, time=0),
    Message('note_on', channel=8, note=55, velocity=80, time=0),
    Message('note_on', channel=9, note=36, velocity=120, time=0),
    Message('note_on', channel=9, note=44, velocity=80, time=0),
    Message('note_on', channel=9, note=36, velocity=0, time=4),
    Message('note_on', channel=8, note=64, velocity=0, time=0),
    Message('note_on', channel=9, note=44, velocity=0, time=1),
    Message('note_on', channel=3, note=67, velocity=0, time=3),
    Message('note_on', channel=3, note=64, velocity=100, time=5),
    MetaMessage('lyrics', text='e', time=0),
    Message('note_on', channel=8, note=59, velocity=80, time=3),
    Message('note_on', channel=8, note=62, velocity=80, time=7),
    Message('note_on', channel=4, note=43, velocity=0, time=169),
    Message('note_on', channel=4, note=50, velocity=0, time=0),
    Message('note_on', channel=3, note=64, velocity=0, time=12),
    Message('note_on', channel=1, note=43, velocity=0, time=12),
    Message('note_on', channel=1, note=43, velocity=104, time=24),
    Message('note_on', channel=3, note=62, velocity=100, time=0),
    Message('note_on', channel=4, note=43, velocity=72, time=0),
    Message('note_on', channel=4, note=50, velocity=72, time=0),
    Message('note_on', channel=6, note=74, velocity=100, time=0),
    Message('note_on', channel=7, note=67, velocity=120, time=0),
    Message('note_on', channel=9, note=42, velocity=80, time=0),
    Message('note_on', channel=13, note=74, velocity=100, time=0),
    MetaMessage('lyrics', text='p. ', time=0),
    MetaMessage('lyrics', text='\r', time=0),
    Message('note_on', channel=9, note=42, velocity=0, time=5),
    Message('note_on', channel=4, note=43, velocity=0, time=187),
    Message('note_on', channel=4, note=50, velocity=0, time=0),
    Message('note_on', channel=8, note=62, velocity=0, time=18),
    Message('note_on', channel=1, note=43, velocity=0, time=6),
    Message('pitchwheel', channel=6, pitch=8191, time=2),
    Message('pitchwheel', channel=13, pitch=8191, time=0),
    Message('note_on', channel=8, note=55, velocity=0, time=3),
    Message('note_on', channel=6, note=74, velocity=0, time=4),
    Message('note_on', channel=13, note=74, velocity=0, time=0),
    Message('note_on', channel=8, note=59, velocity=0, time=12),
    Message('note_on', channel=7, note=67, velocity=0, time=3),
    Message('note_on', channel=4, note=52, velocity=82, time=0),
    Message('note_on', channel=4, note=43, velocity=82, time=0),
    Message('note_on', channel=6, note=69, velocity=100, time=0),
    Message('note_on', channel=7, note=67, velocity=120, time=0),
    Message('note_on', channel=9, note=44, velocity=80, time=0),
    Message('note_on', channel=9, note=54, velocity=50, time=0),
    Message('note_on', channel=9, note=38, velocity=120, time=0),
    Message('note_on', channel=13, note=69, velocity=100, time=0),
    Message('note_on', channel=9, note=38, velocity=0, time=4),
    Message('note_on', channel=9, note=54, velocity=0, time=0),
    Message('note_on', channel=9, note=44, velocity=0, time=1),
    Message('note_on', channel=8, note=55, velocity=59, time=4),
    Message('note_on', channel=8, note=59, velocity=59, time=6),
    Message('note_on', channel=8, note=62, velocity=59, time=4),
    Message('pitchwheel', channel=6, pitch=8191, time=143),
    Message('pitchwheel', channel=13, pitch=8191, time=0),
    Message('pitchwheel', channel=6, pitch=7552, time=7),
    Message('pitchwheel', channel=13, pitch=7552, time=0),
    Message('pitchwheel', channel=6, pitch=6784, time=7),
    Message('pitchwheel', channel=13, pitch=6784, time=0),
    Message('pitchwheel', channel=6, pitch=6016, time=7),
    Message('pitchwheel', channel=13, pitch=6016, time=0),
    Message('pitchwheel', channel=6, pitch=5248, time=7),
    Message('pitchwheel', channel=13, pitch=5248, time=0),
    Message('note_on', channel=4, note=43, velocity=0, time=2),
    Message('note_on', channel=4, note=52, velocity=0, time=0),
    Message('pitchwheel', channel=6, pitch=4480, time=5),
    Message('pitchwheel', channel=13, pitch=4480, time=0),
    Message('pitchwheel', channel=6, pitch=3840, time=7),
    Message('pitchwheel', channel=13, pitch=3840, time=0),
    Message('note_on', channel=8, note=55, velocity=0, time=2),
    Message('pitchwheel', channel=6, pitch=3072, time=5),
    Message('pitchwheel', channel=13, pitch=3072, time=0),
    Message('pitchwheel', channel=6, pitch=2304, time=7),
    Message('pitchwheel', channel=13, pitch=2304, time=0),
    Message('note_on', channel=8, note=59, velocity=0, time=1),
    Message('note_on', channel=8, note=62, velocity=0, time=4),
    Message('pitchwheel', channel=6, pitch=1536, time=2),
    Message('pitchwheel', channel=13, pitch=1536, time=0),
    Message('pitchwheel', channel=6, pitch=768, time=7),
    Message('pitchwheel', channel=13, pitch=768, time=0),
    Message('note_on', channel=3, note=62, velocity=0, time=8),
    Message('note_on', channel=7, note=67, velocity=0, time=0),
    Message('note_on', channel=1, note=43, velocity=104, time=0),
    Message('note_on', channel=4, note=43, velocity=70, time=0),
    Message('note_on', channel=4, note=47, velocity=70, time=0),
    Message('pitchwheel', channel=6, pitch=0, time=0),
    Message('note_on', channel=7, note=67, velocity=120, time=0),
    Message('note_on', channel=8, note=55, velocity=50, time=0),
    Message('note_on', channel=8, note=62, velocity=50, time=0),
    Message('note_on', channel=8, note=59, velocity=50, time=0),
    Message('note_on', channel=9, note=36, velocity=120, time=0),
    Message('note_on', channel=9, note=42, velocity=80, time=0),
    Message('pitchwheel', channel=13, pitch=0, time=0),
    Message('note_on', channel=9, note=36, velocity=0, time=4),
    Message('note_on', channel=9, note=42, velocity=0, time=1),
    Message('note_on', channel=8, note=62, velocity=0, time=79),
    Message('note_on', channel=8, note=59, velocity=0, time=0),
    Message('note_on', channel=8, note=55, velocity=0, time=7),
    Message('note_on', channel=4, note=43, velocity=0, time=101),
    Message('note_on', channel=4, note=47, velocity=0, time=0),
    Message('note_on', channel=1, note=43, velocity=0, time=24),
    Message('note_on', channel=6, note=69, velocity=0, time=16),
    Message('note_on', channel=13, note=69, velocity=0, time=0),
    Message('note_on', channel=7, note=67, velocity=0, time=8),
    Message('note_on', channel=1, note=43, velocity=104, time=0),
    Message('note_on', channel=4, note=43, velocity=82, time=0),
    Message('note_on', channel=4, note=50, velocity=82, time=0),
    Message('note_on', channel=6, note=67, velocity=100, time=0),
    Message('note_on', channel=7, note=62, velocity=120, time=0),
    Message('note_on', channel=8, note=62, velocity=78, time=0),
    Message('note_on', channel=9, note=36, velocity=120, time=0),
    Message('note_on', channel=9, note=44, velocity=80, time=0),
    Message('note_on', channel=13, note=67, velocity=100, time=0),
    Message('note_on', channel=9, note=36, velocity=0, time=4),
    Message('note_on', channel=9, note=44, velocity=0, time=1),
    Message('note_on', channel=8, note=55, velocity=78, time=5),
    Message('note_on', channel=8, note=59, velocity=78, time=18),
    Message('note_on', channel=4, note=50, velocity=0, time=164),
    Message('note_on', channel=4, note=43, velocity=0, time=0),
    Message('note_on', channel=1, note=43, velocity=0, time=24),
    Message('note_on', channel=8, note=62, velocity=0, time=14),
    Message('note_on', channel=8, note=59, velocity=0, time=5),
    Message('note_on', channel=7, note=62, velocity=0, time=5),
    Message('note_on', channel=6, note=67, velocity=0, time=0),
    Message('note_on', channel=8, note=55, velocity=0, time=0),
    Message('note_on', channel=13, note=67, velocity=0, time=0),
    Message('note_on', channel=1, note=43, velocity=104, time=0),
    Message('note_on', channel=4, note=50, velocity=70, time=0),
    Message('note_on', channel=4, note=43, velocity=70, time=0),
    Message('note_on', channel=6, note=64, velocity=100, time=0),
    Message('note_on', channel=8, note=59, velocity=63, time=0),
    Message('note_on', channel=9, note=42, velocity=80, time=0),
    Message('note_on', channel=13, note=64, velocity=100, time=0),
    Message('note_on', channel=9, note=42, velocity=0, time=5),
    Message('note_on', channel=8, note=55, velocity=63, time=14),
    Message('note_on', channel=8, note=62, velocity=63, time=5),
    Message('note_on', channel=8, note=59, velocity=0, time=138),
    Message('note_on', channel=8, note=62, velocity=0, time=24),
    Message('note_on', channel=8, note=55, velocity=0, time=2),
    Message('note_on', channel=4, note=43, velocity=0, time=4),
    Message('note_on', channel=4, note=50, velocity=0, time=0),
    Message('note_on', channel=1, note=43, velocity=0, time=24),
    Message('note_on', channel=13, note=64, velocity=0, time=24),
    Message('note_on', channel=6, note=64, velocity=0, time=0),
    Message('note_on', channel=4, note=43, velocity=80, time=0),
    Message('note_on', channel=4, note=52, velocity=80, time=0),
    Message('note_on', channel=6, note=62, velocity=100, time=0),
    Message('note_on', channel=8, note=62, velocity=48, time=0),
    Message('note_on', channel=9, note=54, velocity=50, time=0),
    Message('note_on', channel=9, note=46, velocity=80, time=0),
    Message('note_on', channel=9, note=38, velocity=120, time=0),
    Message('note_on', channel=13, note=62, velocity=100, time=0),
    Message('note_on', channel=9, note=38, velocity=0, time=4),
    Message('note_on', channel=9, note=54, velocity=0, time=0),
    Message('note_on', channel=9, note=46, velocity=0, time=1),
    Message('note_on', channel=8, note=55, velocity=48, time=13),
    Message('note_on', channel=8, note=59, velocity=48, time=5),
    Message('note_on', channel=4, note=52, velocity=0, time=169),
    Message('note_on', channel=4, note=43, velocity=0, time=0),
    Message('note_on', channel=8, note=62, velocity=0, time=38),
    Message('note_on', channel=8, note=55, velocity=0, time=9),
    Message('note_on', channel=8, note=59, velocity=0, time=0),
    Message('note_on', channel=13, note=62, velocity=0, time=1),
    Message('note_on', channel=6, note=62, velocity=0, time=0),
    Message('note_on', channel=1, note=43, velocity=104, time=0),
    Message('note_on', channel=4, note=43, velocity=70, time=0),
    Message('note_on', channel=4, note=47, velocity=70, time=0),
    Message('note_on', channel=6, note=60, velocity=100, time=0),
    Message('note_on', channel=8, note=59, velocity=70, time=0),
    Message('note_on', channel=9, note=42, velocity=80, time=0),
    Message('note_on', channel=13, note=60, velocity=100, time=0),
    Message('note_on', channel=9, note=42, velocity=0, time=5),
    Message('note_on', channel=8, note=55, velocity=70, time=14),
    Message('note_on', channel=8, note=62, velocity=70, time=14),
    Message('note_on', channel=4, note=47, velocity=0, time=159),
    Message('note_on', channel=4, note=43, velocity=0, time=0),
    Message('note_on', channel=1, note=43, velocity=0, time=24),
    Message('note_on', channel=8, note=59, velocity=0, time=14),
    Message('note_on', channel=8, note=55, velocity=0, time=5),
    Message('note_on', channel=6, note=60, velocity=0, time=5),
    Message('note_on', channel=2, note=79, velocity=0, time=0),
    Message('note_on', channel=2, note=74, velocity=0, time=0),
    Message('note_on', channel=13, note=60, velocity=0, time=0),
    Message('note_on', channel=2, note=71, velocity=0, time=0),
    Message('note_on', channel=1, note=45, velocity=104, time=0),
    Message('note_on', channel=2, note=76, velocity=55, time=0),
    Message('note_on', channel=2, note=72, velocity=63, time=0),
    Message('note_on', channel=2, note=81, velocity=58, time=0),
    Message('note_on', channel=3, note=64, velocity=100, time=0),
    Message('note_on', channel=4, note=52, velocity=86, time=0),
    Message('note_on', channel=4, note=45, velocity=86, time=0),
    Message('note_on', channel=5, note=60, velocity=80, time=0),
    Message('note_on', channel=5, note=64, velocity=80, time=0),
    Message('note_on', channel=5, note=69, velocity=80, time=0),
    Message('note_on', channel=6, note=64, velocity=100, time=0),
    Message('note_on', channel=6, note=57, velocity=100, time=0),
    Message('note_on', channel=8, note=57, velocity=80, time=0),
    Message('note_on', channel=9, note=36, velocity=120, time=0),
    Message('note_on', channel=9, note=57, velocity=80, time=0),
    Message('note_on', channel=13, note=64, velocity=90, time=0),
    Message('note_on', channel=13, note=57, velocity=90, time=0),
    MetaMessage('lyrics', text='How ', time=0),
    Message('note_on', channel=9, note=36, velocity=0, time=4),
    Message('note_on', channel=8, note=62, velocity=0, time=0),
    Message('note_on', channel=9, note=57, velocity=0, time=1),
    Message('note_on', channel=8, note=60, velocity=80, time=11),
    Message('note_on', channel=8, note=64, velocity=80, time=7),
    Message('note_on', channel=4, note=45, velocity=0, time=169),
    Message('note_on', channel=4, note=52, velocity=0, time=0),
    Message('note_on', channel=4, note=52, velocity=69, time=48),
    Message('note_on', channel=4, note=45, velocity=69, time=0),
    Message('note_on', channel=9, note=42, velocity=80, time=0),
    Message('note_on', channel=9, note=42, velocity=0, time=5),
    Message('note_on', channel=4, note=45, velocity=0, time=187),
    Message('note_on', channel=4, note=52, velocity=0, time=0),
    Message('note_on', channel=1, note=45, velocity=0, time=0),
    Message('note_on', channel=8, note=64, velocity=0, time=18),
    Message('note_on', channel=8, note=57, velocity=0, time=11),
    Message('note_on', channel=8, note=60, velocity=0, time=16),
    Message('note_on', channel=4, note=45, velocity=83, time=3),
    Message('note_on', channel=4, note=52, velocity=83, time=0),
    Message('note_on', channel=9, note=54, velocity=50, time=0),
    Message('note_on', channel=9, note=44, velocity=80, time=0),
    Message('note_on', channel=9, note=38, velocity=120, time=0),
    Message('note_on', channel=9, note=38, velocity=0, time=4),
    Message('note_on', channel=9, note=54, velocity=0, time=0),
    Message('note_on', channel=9, note=44, velocity=0, time=1),
    Message('control_change', channel=13, control=1, value=56, time=2),
    Message('note_on', channel=8, note=57, velocity=59, time=2),
    Message('note_on', channel=8, note=60, velocity=59, time=6),
    Message('note_on', channel=8, note=64, velocity=59, time=4),
    Message('note_on', channel=4, note=45, velocity=0, time=173),
    Message('note_on', channel=4, note=52, velocity=0, time=0),
    Message('pitchwheel', channel=3, pitch=0, time=3),
    Message('pitchwheel', channel=5, pitch=0, time=0),
    Message('pitchwheel', channel=3, pitch=-256, time=9),
    Message('pitchwheel', channel=5, pitch=-256, time=0),
    Message('note_on', channel=8, note=57, velocity=0, time=2),
    Message('pitchwheel', channel=3, pitch=-640, time=7),
    Message('pitchwheel', channel=5, pitch=-640, time=0),
    Message('note_on', channel=8, note=60, velocity=0, time=6),
    Message('pitchwheel', channel=3, pitch=-896, time=3),
    Message('pitchwheel', channel=5, pitch=-896, time=0),
    Message('note_on', channel=8, note=64, velocity=0, time=1),
    Message('pitchwheel', channel=3, pitch=-1280, time=8),
    Message('pitchwheel', channel=5, pitch=-1280, time=0),
    Message('note_on', channel=1, note=45, velocity=104, time=9),
    Message('pitchwheel', channel=3, pitch=-1664, time=0),
    Message('note_on', channel=4, note=45, velocity=72, time=0),
    Message('note_on', channel=4, note=52, velocity=72, time=0),
    Message('pitchwheel', channel=5, pitch=-1664, time=0),
    Message('note_on', channel=8, note=64, velocity=50, time=0),
    Message('note_on', channel=8, note=60, velocity=50, time=0),
    Message('note_on', channel=8, note=57, velocity=50, time=0),
    Message('note_on', channel=9, note=36, velocity=120, time=0),
    Message('note_on', channel=9, note=42, velocity=80, time=0),
    Message('note_on', channel=9, note=42, velocity=0, time=5),
    Message('pitchwheel', channel=3, pitch=-1920, time=3),
    Message('pitchwheel', channel=5, pitch=-1920, time=0),
    Message('note_on', channel=9, note=36, velocity=0, time=8),
    Message('pitchwheel', channel=3, pitch=-2304, time=1),
    Message('pitchwheel', channel=5, pitch=-2304, time=0),
    Message('pitchwheel', channel=3, pitch=-2688, time=9),
    Message('pitchwheel', channel=5, pitch=-2688, time=0),
    Message('pitchwheel', channel=3, pitch=-2944, time=9),
    Message('pitchwheel', channel=5, pitch=-2944, time=0),
    Message('pitchwheel', channel=3, pitch=-3328, time=9),
    Message('pitchwheel', channel=5, pitch=-3328, time=0),
    Message('pitchwheel', channel=3, pitch=-3584, time=9),
    Message('pitchwheel', channel=5, pitch=-3584, time=0),
    Message('pitchwheel', channel=3, pitch=-3968, time=9),
    Message('pitchwheel', channel=5, pitch=-3968, time=0),
    Message('pitchwheel', channel=3, pitch=-4352, time=9),
    Message('pitchwheel', channel=5, pitch=-4352, time=0),
    Message('pitchwheel', channel=3, pitch=-4608, time=9),
    Message('pitchwheel', channel=5, pitch=-4608, time=0),
    Message('note_on', channel=8, note=60, velocity=0, time=4),
    Message('note_on', channel=8, note=64, velocity=0, time=0),
    Message('pitchwheel', channel=3, pitch=-4992, time=4),
    Message('pitchwheel', channel=5, pitch=-4992, time=0),
    Message('note_on', channel=8, note=57, velocity=0, time=3),
    Message('pitchwheel', channel=3, pitch=-5376, time=6),
    Message('pitchwheel', channel=5, pitch=-5376, time=0),
    Message('pitchwheel', channel=3, pitch=-5632, time=9),
    Message('pitchwheel', channel=5, pitch=-5632, time=0),
    Message('pitchwheel', channel=3, pitch=-6016, time=9),
    Message('pitchwheel', channel=5, pitch=-6016, time=0),
    Message('pitchwheel', channel=3, pitch=-6272, time=9),
    Message('pitchwheel', channel=5, pitch=-6272, time=0),
    Message('pitchwheel', channel=3, pitch=-6656, time=9),
    Message('pitchwheel', channel=5, pitch=-6656, time=0),
    Message('pitchwheel', channel=3, pitch=-7040, time=9),
    Message('pitchwheel', channel=5, pitch=-7040, time=0),
    Message('pitchwheel', channel=3, pitch=-7296, time=9),
    Message('pitchwheel', channel=5, pitch=-7296, time=0),
    Message('pitchwheel', channel=3, pitch=-7680, time=9),
    Message('pitchwheel', channel=5, pitch=-7680, time=0),
    Message('pitchwheel', channel=3, pitch=-8064, time=8),
    Message('pitchwheel', channel=5, pitch=-8064, time=0),
    Message('note_on', channel=4, note=52, velocity=0, time=24),
    Message('note_on', channel=4, note=45, velocity=0, time=0),
    Message('note_on', channel=1, note=45, velocity=0, time=24),
    Message('control_change', channel=13, control=1, value=0, time=9),
    Message('pitchwheel', channel=3, pitch=0, time=6),
    Message('pitchwheel', channel=5, pitch=0, time=0),
    Message('note_on', channel=2, note=76, velocity=0, time=9),
    Message('note_on', channel=5, note=64, velocity=0, time=0),
    Message('note_on', channel=2, note=81, velocity=0, time=0),
    Message('note_on', channel=13, note=57, velocity=0, time=0),
    Message('note_on', channel=3, note=64, velocity=0, time=0),
    Message('note_on', channel=5, note=60, velocity=0, time=0),
    Message('note_on', channel=6, note=57, velocity=0, time=0),
    Message('note_on', channel=5, note=69, velocity=0, time=0),
    Message('note_on', channel=13, note=64, velocity=0, time=0),
    Message('note_on', channel=2, note=72, velocity=0, time=0),
    Message('note_on', channel=6, note=64, velocity=0, time=0),
    Message('note_on', channel=1, note=43, velocity=104, time=0),
    Message('note_on', channel=2, note=71, velocity=71, time=0),
    Message('note_on', channel=2, note=74, velocity=77, time=0),
    Message('note_on', channel=2, note=79, velocity=79, time=0),
    Message('note_on', channel=3, note=62, velocity=100, time=0),
    Message('note_on', channel=4, note=43, velocity=80, time=0),
    Message('note_on', channel=4, note=50, velocity=80, time=0),
    Message('note_on', channel=5, note=62, velocity=80, time=0),
    Message('note_on', channel=5, note=59, velocity=80, time=0),
    Message('note_on', channel=5, note=67, velocity=80, time=0),
    Message('note_on', channel=6, note=62, velocity=100, time=0),
    Message('note_on', channel=6, note=55, velocity=100, time=0),
    Message('note_on', channel=8, note=62, velocity=78, time=0),
    Message('note_on', channel=9, note=36, velocity=120, time=0),
    Message('note_on', channel=9, note=44, velocity=80, time=0),
    Message('note_on', channel=13, note=62, velocity=90, time=0),
    Message('note_on', channel=13, note=55, velocity=90, time=0),
    MetaMessage('lyrics', text='long, ', time=0),
    Message('note_on', channel=9, note=36, velocity=0, time=4),
    Message('note_on', channel=9, note=44, velocity=0, time=1),
    Message('note_on', channel=8, note=55, velocity=78, time=5),
    Message('note_on', channel=8, note=59, velocity=78, time=18),
    Message('note_on', channel=4, note=50, velocity=0, time=164),
    Message('note_on', channel=4, note=43, velocity=0, time=0),
    Message('note_on', channel=4, note=43, velocity=71, time=48),
    Message('note_on', channel=4, note=50, velocity=71, time=0),
    Message('note_on', channel=9, note=42, velocity=80, time=0),
    Message('note_on', channel=9, note=42, velocity=0, time=5),
    Message('note_on', channel=4, note=50, velocity=0, time=187),
    Message('note_on', channel=4, note=43, velocity=0, time=0),
    Message('note_on', channel=1, note=43, velocity=0, time=0),
    Message('note_on', channel=8, note=55, velocity=0, time=1),
    Message('note_on', channel=8, note=62, velocity=0, time=18),
    Message('note_on', channel=8, note=59, velocity=0, time=5),
    Message('note_on', channel=4, note=43, velocity=86, time=24),
    Message('note_on', channel=4, note=50, velocity=86, time=0),
    Message('note_on', channel=8, note=62, velocity=48, time=0),
    Message('note_on', channel=9, note=54, velocity=50, time=0),
    Message('note_on', channel=9, note=44, velocity=80, time=0),
    Message('note_on', channel=9, note=38, velocity=120, time=0),
    Message('note_on', channel=9, note=38, velocity=0, time=4),
    Message('note_on', channel=9, note=54, velocity=0, time=0),
    Message('note_on', channel=9, note=44, velocity=0, time=1),
    Message('control_change', channel=13, control=1, value=47, time=9),
    Message('note_on', channel=8, note=55, velocity=48, time=4),
    Message('note_on', channel=8, note=59, velocity=48, time=5),
    Message('note_on', channel=4, note=50, velocity=0, time=169),
    Message('note_on', channel=4, note=43, velocity=0, time=0),
    Message('note_on', channel=8, note=62, velocity=0, time=38),
    Message('note_on', channel=8, note=59, velocity=0, time=9),
    Message('note_on', channel=8, note=55, velocity=0, time=0),
    Message('note_on', channel=1, note=43, velocity=104, time=1),
    Message('note_on', channel=4, note=50, velocity=70, time=0),
    Message('note_on', channel=4, note=43, velocity=70, time=0),
    Message('note_on', channel=8, note=59, velocity=70, time=0),
    Message('note_on', channel=9, note=42, velocity=80, time=0),
    Message('note_on', channel=9, note=42, velocity=0, time=5),
    Message('note_on', channel=8, note=55, velocity=70, time=14),
    Message('note_on', channel=8, note=62, velocity=70, time=14),
    Message('note_on', channel=4, note=43, velocity=0, time=159),
    Message('note_on', channel=4, note=50, velocity=0, time=0),
    Message('note_on', channel=1, note=43, velocity=0, time=24),
    Message('control_change', channel=13, control=1, value=0, time=9),
    Message('note_on', channel=8, note=59, velocity=0, time=5),
    Message('note_on', channel=8, note=55, velocity=0, time=5),
    Message('note_on', channel=2, note=71, velocity=0, time=5),
    Message('note_on', channel=6, note=55, velocity=0, time=0),
    Message('note_on', channel=5, note=59, velocity=0, time=0),
    Message('note_on', channel=2, note=79, velocity=0, time=0),
    Message('note_on', channel=3, note=62, velocity=0, time=0),
    Message('note_on', channel=5, note=62, velocity=0, time=0),
    Message('note_on', channel=13, note=55, velocity=0, time=0),
    Message('note_on', channel=2, note=74, velocity=0, time=0),
    Message('note_on', channel=5, note=67, velocity=0, time=0),
    Message('note_on', channel=13, note=62, velocity=0, time=0),
    Message('note_on', channel=6, note=62, velocity=0, time=0),
    Message('note_on', channel=1, note=41, velocity=104, time=0),
    Message('note_on', channel=2, note=77, velocity=59, time=0),
    Message('note_on', channel=2, note=72, velocity=67, time=0),
    Message('note_on', channel=2, note=81, velocity=64, time=0),
    Message('note_on', channel=3, note=60, velocity=100, time=0),
    Message('note_on', channel=4, note=48, velocity=87, time=0),
    Message('note_on', channel=4, note=41, velocity=87, time=0),
    Message('note_on', channel=5, note=65, velocity=80, time=0),
    Message('note_on', channel=5, note=57, velocity=80, time=0),
    Message('note_on', channel=5, note=60, velocity=80, time=0),
    Message('note_on', channel=6, note=60, velocity=100, time=0),
    Message('note_on', channel=6, note=53, velocity=100, time=0),
    Message('note_on', channel=8, note=57, velocity=80, time=0),
    Message('note_on', channel=9, note=36, velocity=120, time=0),
    Message('note_on', channel=9, note=44, velocity=80, time=0),
    Message('note_on', channel=13, note=60, velocity=90, time=0),
    Message('note_on', channel=13, note=53, velocity=90, time=0),
    MetaMessage('lyrics', text='how ', time=0),
    Message('note_on', channel=9, note=36, velocity=0, time=4),
    Message('note_on', channel=8, note=62, velocity=0, time=0),
    Message('note_on', channel=9, note=44, velocity=0, time=1),
    Message('note_on', channel=8, note=60, velocity=80, time=11),
    Message('note_on', channel=8, note=65, velocity=80, time=7),
    Message('note_on', channel=4, note=41, velocity=0, time=169),
    Message('note_on', channel=4, note=48, velocity=0, time=0),
    Message('note_on', channel=4, note=48, velocity=72, time=48),
    Message('note_on', channel=4, note=41, velocity=72, time=0),
    Message('note_on', channel=9, note=42, velocity=80, time=0),
    Message('note_on', channel=9, note=42, velocity=0, time=5),
    Message('control_change', channel=13, control=1, value=49, time=185),
    Message('note_on', channel=4, note=41, velocity=0, time=2),
    Message('note_on', channel=4, note=48, velocity=0, time=0),
    Message('note_on', channel=1, note=41, velocity=0, time=0),
    Message('note_on', channel=8, note=65, velocity=0, time=18),
    Message('note_on', channel=8, note=57, velocity=0, time=11),
    Message('note_on', channel=8, note=60, velocity=0, time=16),
    Message('note_on', channel=4, note=48, velocity=82, time=3),
    Message('note_on', channel=4, note=41, velocity=82, time=0),
    Message('note_on', channel=9, note=44, velocity=80, time=0),
    Message('note_on', channel=9, note=54, velocity=50, time=0),
    Message('note_on', channel=9, note=38, velocity=120, time=0),
    Message('note_on', channel=9, note=38, velocity=0, time=4),
    Message('note_on', channel=9, note=54, velocity=0, time=0),
    Message('note_on', channel=9, note=44, velocity=0, time=1),
    Message('note_on', channel=8, note=57, velocity=59, time=4),
    Message('note_on', channel=8, note=60, velocity=59, time=6),
    Message('note_on', channel=8, note=65, velocity=59, time=4),
    Message('control_change', channel=13, control=1, value=0, time=171),
    Message('note_on', channel=4, note=48, velocity=0, time=2),
    Message('note_on', channel=4, note=41, velocity=0, time=0),
    Message('note_on', channel=8, note=57, velocity=0, time=14),
    Message('note_on', channel=8, note=60, velocity=0, time=13),
    Message('note_on', channel=8, note=65, velocity=0, time=4),
    Message('note_on', channel=6, note=53, velocity=0, time=17),
    Message('note_on', channel=13, note=53, velocity=0, time=0),
    Message('note_on', channel=6, note=60, velocity=0, time=0),
    Message('note_on', channel=13, note=60, velocity=0, time=0),
    Message('note_on', channel=1, note=41, velocity=104, time=0),
    Message('note_on', channel=4, note=41, velocity=70, time=0),
    Message('note_on', channel=4, note=48, velocity=70, time=0),
    Message('note_on', channel=6, note=60, velocity=100, time=0),
    Message('note_on', channel=6, note=67, velocity=100, time=0),
    Message('note_on', channel=8, note=65, velocity=50, time=0),
    Message('note_on', channel=8, note=57, velocity=50, time=0),
    Message('note_on', channel=8, note=60, velocity=50, time=0),
    Message('note_on', channel=9, note=42, velocity=80, time=0),
    Message('note_on', channel=9, note=36, velocity=120, time=0),
    Message('note_on', channel=13, note=60, velocity=100, time=0),
    Message('note_on', channel=13, note=67, velocity=100, time=0),
    Message('note_on', channel=9, note=36, velocity=0, time=4),
    Message('note_on', channel=9, note=42, velocity=0, time=1),
    Message('note_on', channel=8, note=60, velocity=0, time=79),
    Message('note_on', channel=8, note=65, velocity=0, time=0),
    Message('note_on', channel=8, note=57, velocity=0, time=7),
    Message('note_on', channel=4, note=41, velocity=0, time=101),
    Message('note_on', channel=4, note=48, velocity=0, time=0),
    Message('note_on', channel=1, note=41, velocity=0, time=24),
    Message('note_on', channel=2, note=77, velocity=0, time=24),
    Message('note_on', channel=3, note=60, velocity=0, time=0),
    Message('note_on', channel=5, note=60, velocity=0, time=0),
    Message('note_on', channel=5, note=65, velocity=0, time=0),
    Message('note_on', channel=5, note=57, velocity=0, time=0),
    Message('note_on', channel=2, note=81, velocity=0, time=0),
    Message('note_on', channel=1, note=48, velocity=104, time=0),
    Message('note_on', channel=2, note=76, velocity=71, time=0),
    Message('note_on', channel=2, note=79, velocity=58, time=0),
    Message('note_on', channel=3, note=60, velocity=100, time=0),
    Message('note_on', channel=4, note=48, velocity=82, time=0),
    Message('note_on', channel=4, note=43, velocity=82, time=0),
    Message('note_on', channel=5, note=55, velocity=80, time=0),
    Message('note_on', channel=5, note=60, velocity=80, time=0),
    Message('note_on', channel=5, note=64, velocity=80, time=0),
    Message('note_on', channel=8, note=64, velocity=78, time=0),
    Message('note_on', channel=9, note=36, velocity=120, time=0),
    Message('note_on', channel=9, note=44, velocity=80, time=0),
    MetaMessage('lyrics', text='long, ', time=0),
    MetaMessage('lyrics', text='\r', time=0),
    Message('note_on', channel=9, note=36, velocity=0, time=4),
    Message('note_on', channel=9, note=44, velocity=0, time=1),
    Message('note_on', channel=8, note=55, velocity=78, time=5),
    Message('note_on', channel=8, note=60, velocity=78, time=18),
    Message('note_on', channel=4, note=43, velocity=0, time=164),
    Message('note_on', channel=4, note=48, velocity=0, time=0),
    Message('note_on', channel=8, note=64, velocity=0, time=38),
    Message('note_on', channel=8, note=60, velocity=0, time=5),
    Message('note_on', channel=8, note=55, velocity=0, time=5),
    Message('note_on', channel=4, note=43, velocity=70, time=0),
    Message('note_on', channel=4, note=48, velocity=70, time=0),
    Message('note_on', channel=8, note=60, velocity=63, time=0),
    Message('note_on', channel=9, note=42, velocity=80, time=0),
    Message('note_on', channel=9, note=42, velocity=0, time=5),
    Message('note_on', channel=8, note=55, velocity=63, time=14),
    Message('note_on', channel=8, note=64, velocity=63, time=5),
    Message('note_on', channel=8, note=60, velocity=0, time=138),
    Message('note_on', channel=8, note=64, velocity=0, time=24),
    Message('note_on', channel=8, note=55, velocity=0, time=2),
    Message('note_on', channel=1, note=48, velocity=0, time=4),
    Message('note_on', channel=4, note=48, velocity=0, time=0),
    Message('note_on', channel=4, note=43, velocity=0, time=0),
    Message('note_on', channel=4, note=48, velocity=80, time=48),
    Message('note_on', channel=4, note=43, velocity=80, time=0),
    Message('note_on', channel=8, note=64, velocity=48, time=0),
    Message('note_on', channel=9, note=54, velocity=50, time=0),
    Message('note_on', channel=9, note=44, velocity=80, time=0),
    Message('note_on', channel=9, note=38, velocity=120, time=0),
    Message('control_change', channel=13, control=1, value=61, time=0),
    Message('note_on', channel=9, note=38, velocity=0, time=4),
    Message('note_on', channel=9, note=54, velocity=0, time=0),
    Message('note_on', channel=9, note=44, velocity=0, time=1),
    Message('note_on', channel=8, note=55, velocity=48, time=13),
    Message('note_on', channel=8, note=60, velocity=48, time=5),
    Message('note_on', channel=4, note=43, velocity=0, time=169),
    Message('note_on', channel=4, note=48, velocity=0, time=0),
    Message('note_on', channel=8, note=64, velocity=0, time=38),
    Message('note_on', channel=8, note=60, velocity=0, time=9),
    Message('note_on', channel=8, note=55, velocity=0, time=0),
    Message('note_on', channel=1, note=48, velocity=104, time=1),
    Message('note_on', channel=4, note=48, velocity=70, time=0),
    Message('note_on', channel=4, note=43, velocity=70, time=0),
    Message('note_on', channel=8, note=60, velocity=70, time=0),
    Message('note_on', channel=9, note=42, velocity=80, time=0),
    Message('note_on', channel=9, note=42, velocity=0, time=5),
    Message('note_on', channel=8, note=55, velocity=70, time=14),
    Message('note_on', channel=8, note=64, velocity=70, time=14),
    Message('note_on', channel=4, note=43, velocity=0, time=159),
    Message('note_on', channel=4, note=48, velocity=0, time=0),
    Message('note_on', channel=1, note=48, velocity=0, time=24),
    Message('control_change', channel=13, control=1, value=0, time=2),
    Message('note_on', channel=6, note=67, velocity=0, time=7),
    Message('note_on', channel=13, note=67, velocity=0, time=0),
    Message('note_on', channel=8, note=60, velocity=0, time=5),
    Message('note_on', channel=6, note=60, velocity=0, time=2),
    Message('note_on', channel=13, note=60, velocity=0, time=0),
    Message('note_on', channel=8, note=55, velocity=0, time=3),
    Message('note_on', channel=2, note=79, velocity=0, time=5),
    Message('note_on', channel=5, note=60, velocity=0, time=0),
    Message('note_on', channel=5, note=64, velocity=0, time=0),
    Message('note_on', channel=3, note=60, velocity=0, time=0),
    Message('note_on', channel=5, note=55, velocity=0, time=0),
    Message('note_on', channel=2, note=72, velocity=0, time=0),
    Message('note_on', channel=2, note=76, velocity=0, time=0),
    Message('note_on', channel=1, note=31, velocity=100, time=0),
    Message('note_on', channel=2, note=74, velocity=75, time=0),
    Message('note_on', channel=2, note=79, velocity=79, time=0),
    Message('note_on', channel=2, note=71, velocity=70, time=0),
    Message('note_on', channel=3, note=62, velocity=100, time=0),
    Message('note_on', channel=4, note=43, velocity=100, time=0),
    Message('note_on', channel=6, note=43, velocity=100, time=0),
    Message('note_on', channel=9, note=36, velocity=120, time=0),
    Message('note_on', channel=9, note=44, velocity=80, time=0),
    Message('note_on', channel=13, note=43, velocity=100, time=0),
    MetaMessage('lyrics', text='rock ', time=0),
    Message('note_on', channel=9, note=36, velocity=0, time=4),
    Message('note_on', channel=8, note=64, velocity=0, time=0),
    Message('note_on', channel=9, note=44, velocity=0, time=1),
    Message('control_change', channel=13, control=1, value=47, time=213),
    Message('note_on', channel=9, note=42, velocity=80, time=22),
    Message('note_on', channel=9, note=42, velocity=0, time=5),
    Message('note_on', channel=1, note=31, velocity=0, time=187),
    Message('control_change', channel=13, control=1, value=0, time=19),
    Message('note_on', channel=4, note=43, velocity=0, time=19),
    Message('note_on', channel=6, note=43, velocity=0, time=10),
    Message('note_on', channel=13, note=43, velocity=0, time=0),
    Message('note_on', channel=3, note=62, velocity=0, time=0),
    Message('note_on', channel=1, note=33, velocity=100, time=0),
    Message('note_on', channel=3, note=62, velocity=100, time=0),
    Message('note_on', channel=4, note=45, velocity=100, time=0),
    Message('note_on', channel=6, note=45, velocity=100, time=0),
    Message('note_on', channel=9, note=54, velocity=50, time=0),
    Message('note_on', channel=9, note=46, velocity=80, time=0),
    Message('note_on', channel=9, note=38, velocity=120, time=0),
    Message('note_on', channel=13, note=45, velocity=100, time=0),
    MetaMessage('lyrics', text='your', time=0),
    Message('note_on', channel=9, note=38, velocity=0, time=4),
    Message('note_on', channel=9, note=54, velocity=0, time=0),
    Message('note_on', channel=9, note=46, velocity=0, time=1),
    Message('control_change', channel=13, control=1, value=44, time=220),
    Message('note_on', channel=9, note=42, velocity=80, time=15),
    Message('note_on', channel=9, note=42, velocity=0, time=5),
    Message('note_on', channel=1, note=33, velocity=0, time=187),
    Message('control_change', channel=13, control=1, value=0, time=26),
    Message('note_on', channel=4, note=45, velocity=0, time=18),
    Message('note_on', channel=3, note=62, velocity=0, time=4),
    Message('note_on', channel=13, note=45, velocity=0, time=0),
    Message('note_on', channel=6, note=45, velocity=0, time=0),
    Message('note_on', channel=1, note=34, velocity=100, time=0),
    Message('note_on', channel=3, note=62, velocity=100, time=0),
    Message('note_on', channel=4, note=46, velocity=100, time=0),
    Message('note_on', channel=6, note=46, velocity=100, time=0),
    Message('note_on', channel=9, note=44, velocity=80, time=0),
    Message('note_on', channel=9, note=36, velocity=120, time=0),
    Message('note_on', channel=13, note=46, velocity=100, time=0),
    MetaMessage('lyrics', text='self ', time=0),
    Message('note_on', channel=9, note=36, velocity=0, time=4),
    Message('note_on', channel=9, note=44, velocity=0, time=1),
    Message('control_change', channel=13, control=1, value=48, time=213),
    Message('note_on', channel=9, note=42, velocity=80, time=22),
    Message('note_on', channel=9, note=42, velocity=0, time=5),
    Message('note_on', channel=1, note=34, velocity=0, time=187),
    Message('control_change', channel=13, control=1, value=0, time=33),
    Message('note_on', channel=4, note=46, velocity=0, time=5),
    Message('note_on', channel=3, note=62, velocity=0, time=10),
    Message('note_on', channel=13, note=46, velocity=0, time=0),
    Message('note_on', channel=6, note=46, velocity=0, time=0),
    Message('note_on', channel=1, note=35, velocity=100, time=0),
    Message('note_on', channel=3, note=60, velocity=100, time=0),
    Message('note_on', channel=4, note=47, velocity=100, time=0),
    Message('note_on', channel=6, note=47, velocity=100, time=0),
    Message('note_on', channel=9, note=46, velocity=80, time=0),
    Message('note_on', channel=9, note=54, velocity=50, time=0),
    Message('note_on', channel=9, note=38, velocity=120, time=0),
    Message('note_on', channel=13, note=47, velocity=100, time=0),
    MetaMessage('lyrics', text='to, ', time=0),
    Message('note_on', channel=9, note=38, velocity=0, time=4),
    Message('note_on', channel=9, note=54, velocity=0, time=0),
    Message('note_on', channel=9, note=46, velocity=0, time=1),
    Message('note_on', channel=3, note=60, velocity=0, time=235),
    Message('note_on', channel=3, note=60, velocity=100, time=0),
    Message('note_on', channel=9, note=42, velocity=80, time=0),
    MetaMessage('lyrics', text='sleep. ', time=0),
    MetaMessage('lyrics', text='\r', time=0),
    MetaMessage('lyrics', text='\n', time=0),
    Message('note_on', channel=9, note=42, velocity=0, time=5),
    Message('control_change', channel=13, control=1, value=48, time=9),
    Message('note_on', channel=9, note=54, velocity=50, time=106),
    Message('note_on', channel=9, note=38, velocity=90, time=0),
    Message('note_on', channel=9, note=38, velocity=0, time=4),
    Message('note_on', channel=9, note=54, velocity=0, time=0),
    Message('note_on', channel=1, note=35, velocity=0, time=68),
    Message('control_change', channel=13, control=1, value=0, time=26),
    Message('note_on', channel=13, note=47, velocity=0, time=7),
    Message('note_on', channel=6, note=47, velocity=0, time=0),
    Message('note_on', channel=4, note=47, velocity=0, time=11),
    Message('note_on', channel=2, note=74, velocity=0, time=4),
    Message('note_on', channel=2, note=71, velocity=0, time=0),
    Message('note_on', channel=2, note=79, velocity=0, time=0),
    Message('note_on', channel=1, note=48, velocity=104, time=0),
    Message('note_on', channel=2, note=72, velocity=62, time=0),
    Message('note_on', channel=2, note=76, velocity=75, time=0),
    Message('note_on', channel=2, note=79, velocity=62, time=0),
    Message('note_on', channel=4, note=55, velocity=86, time=0),
    Message('note_on', channel=4, note=48, velocity=86, time=0),
    Message('note_on', channel=8, note=55, velocity=80, time=0),
    Message('note_on', channel=9, note=44, velocity=80, time=0),
    Message('note_on', channel=9, note=36, velocity=120, time=0),
    Message('note_on', channel=9, note=36, velocity=0, time=4),
    Message('note_on', channel=9, note=44, velocity=0, time=1),
    Message('note_on', channel=6, note=48, velocity=100, time=2),
    Message('note_on', channel=13, note=48, velocity=100, time=0),
    Message('note_on', channel=3, note=60, velocity=0, time=1),
    Message('note_on', channel=8, note=60, velocity=80, time=8),
    Message('note_on', channel=8, note=64, velocity=80, time=7),
    Message('note_on', channel=13, note=48, velocity=0, time=125),
    Message('note_on', channel=6, note=48, velocity=0, time=0),
    Message('note_on', channel=4, note=48, velocity=0, time=44),
    Message('note_on', channel=4, note=55, velocity=0, time=0),
    Message('note_on', channel=1, note=48, velocity=0, time=24),
    Message('note_on', channel=1, note=48, velocity=104, time=24),
    Message('note_on', channel=4, note=55, velocity=69, time=0),
    Message('note_on', channel=4, note=48, velocity=69, time=0),
    Message('note_on', channel=6, note=55, velocity=100, time=0),
    Message('note_on', channel=6, note=60, velocity=100, time=0),
    Message('note_on', channel=9, note=42, velocity=80, time=0),
    Message('note_on', channel=13, note=55, velocity=100, time=0),
    Message('note_on', channel=13, note=60, velocity=100, time=0),
    Message('note_on', channel=9, note=42, velocity=0, time=5),
    Message('note_on', channel=4, note=55, velocity=0, time=187),
    Message('note_on', channel=4, note=48, velocity=0, time=0),
    Message('note_on', channel=8, note=64, velocity=0, time=18),
    Message('note_on', channel=1, note=48, velocity=0, time=6),
    Message('note_on', channel=8, note=55, velocity=0, time=5),
    Message('note_on', channel=6, note=60, velocity=0, time=12),
    Message('note_on', channel=6, note=55, velocity=0, time=0),
    Message('note_on', channel=13, note=60, velocity=0, time=0),
    Message('note_on', channel=13, note=55, velocity=0, time=0),
    Message('note_on', channel=8, note=60, velocity=0, time=4),
    Message('note_on', channel=4, note=48, velocity=83, time=3),
    Message('note_on', channel=4, note=57, velocity=83, time=0),
    Message('note_on', channel=6, note=57, velocity=100, time=0),
    Message('note_on', channel=9, note=54, velocity=50, time=0),
    Message('note_on', channel=9, note=44, velocity=80, time=0),
    Message('note_on', channel=9, note=38, velocity=120, time=0),
    Message('note_on', channel=13, note=57, velocity=100, time=0),
    Message('note_on', channel=9, note=38, velocity=0, time=4),
    Message('note_on', channel=9, note=54, velocity=0, time=0),
    Message('note_on', channel=9, note=44, velocity=0, time=1),
    Message('note_on', channel=8, note=55, velocity=59, time=4),
    Message('note_on', channel=8, note=60, velocity=59, time=6),
    Message('note_on', channel=8, note=64, velocity=59, time=4),
    Message('note_on', channel=4, note=48, velocity=0, time=173),
    Message('note_on', channel=4, note=57, velocity=0, time=0),
    Message('note_on', channel=8, note=55, velocity=0, time=14),
    Message('note_on', channel=8, note=60, velocity=0, time=13),
    Message('note_on', channel=8, note=64, velocity=0, time=4),
    Message('note_on', channel=13, note=57, velocity=0, time=10),
    Message('note_on', channel=6, note=57, velocity=0, time=0),
    Message('note_on', channel=1, note=48, velocity=104, time=7),
    Message('note_on', channel=4, note=48, velocity=72, time=0),
    Message('note_on', channel=4, note=52, velocity=72, time=0),
    Message('note_on', channel=6, note=55, velocity=100, time=0),
    Message('note_on', channel=8, note=64, velocity=50, time=0),
    Message('note_on', channel=8, note=60, velocity=50, time=0),
    Message('note_on', channel=8, note=55, velocity=50, time=0),
    Message('note_on', channel=9, note=42, velocity=80, time=0),
    Message('note_on', channel=13, note=55, velocity=100, time=0),
    Message('note_on', channel=9, note=42, velocity=0, time=5),
    Message('note_on', channel=8, note=60, velocity=0, time=79),
    Message('note_on', channel=8, note=64, velocity=0, time=0),
    Message('note_on', channel=8, note=55, velocity=0, time=7),
    Message('note_on', channel=4, note=52, velocity=0, time=101),
    Message('note_on', channel=4, note=48, velocity=0, time=0),
    Message('note_on', channel=1, note=48, velocity=0, time=24),
    Message('note_on', channel=6, note=55, velocity=0, time=17),
    Message('note_on', channel=13, note=55, velocity=0, time=0),
    Message('note_on', channel=1, note=48, velocity=104, time=7),
    Message('note_on', channel=4, note=55, velocity=80, time=0),
    Message('note_on', channel=4, note=48, velocity=80, time=0),
    Message('note_on', channel=6, note=55, velocity=100, time=0),
    Message('note_on', channel=6, note=60, velocity=100, time=0),
    Message('note_on', channel=8, note=64, velocity=78, time=0),
    Message('note_on', channel=9, note=47, velocity=80, time=0),
    Message('note_on', channel=9, note=36, velocity=120, time=0),
    Message('note_on', channel=9, note=44, velocity=80, time=0),
    Message('note_on', channel=13, note=55, velocity=100, time=0),
    Message('note_on', channel=13, note=60, velocity=100, time=0),
    Message('note_on', channel=9, note=36, velocity=0, time=4),
    Message('note_on', channel=9, note=44, velocity=0, time=1),
    Message('note_on', channel=8, note=55, velocity=78, time=5),
    Message('note_on', channel=9, note=47, velocity=0, time=6),
    Message('note_on', channel=8, note=60, velocity=78, time=12),
    Message('note_on', channel=4, note=48, velocity=0, time=164),
    Message('note_on', channel=4, note=55, velocity=0, time=0),
    Message('note_on', channel=1, note=48, velocity=0, time=24),
    Message('note_on', channel=8, note=64, velocity=0, time=14),
    Message('note_on', channel=6, note=60, velocity=0, time=3),
    Message('note_on', channel=13, note=55, velocity=0, time=0),
    Message('note_on', channel=6, note=55, velocity=0, time=0),
    Message('note_on', channel=13, note=60, velocity=0, time=0),
    Message('note_on', channel=8, note=60, velocity=0, time=2),
    Message('note_on', channel=8, note=55, velocity=0, time=5),
    Message('note_on', channel=1, note=45, velocity=104, time=0),
    Message('note_on', channel=4, note=48, velocity=71, time=0),
    Message('note_on', channel=4, note=55, velocity=71, time=0),
    Message('note_on', channel=6, note=52, velocity=100, time=0),
    Message('note_on', channel=8, note=60, velocity=63, time=0),
    Message('note_on', channel=9, note=47, velocity=86, time=0),
    Message('note_on', channel=9, note=42, velocity=80, time=0),
    Message('note_on', channel=13, note=52, velocity=100, time=0),
    Message('note_on', channel=9, note=42, velocity=0, time=5),
    Message('note_on', channel=9, note=47, velocity=0, time=11),
    Message('note_on', channel=8, note=55, velocity=63, time=3),
    Message('note_on', channel=8, note=64, velocity=63, time=5),
    Message('note_on', channel=8, note=60, velocity=0, time=138),
    Message('note_on', channel=8, note=64, velocity=0, time=24),
    Message('note_on', channel=8, note=55, velocity=0, time=2),
    Message('note_on', channel=4, note=55, velocity=0, time=4),
    Message('note_on', channel=4, note=48, velocity=0, time=0),
    Message('note_on', channel=1, note=45, velocity=0, time=24),
    Message('note_on', channel=13, note=52, velocity=0, time=17),
    Message('note_on', channel=6, note=52, velocity=0, time=0),
    Message('note_on', channel=1, note=43, velocity=104, time=7),
    Message('note_on', channel=4, note=57, velocity=86, time=0),
    Message('note_on', channel=4, note=48, velocity=86, time=0),
    Message('note_on', channel=6, note=50, velocity=100, time=0),
    Message('note_on', channel=8, note=64, velocity=48, time=0),
    Message('note_on', channel=9, note=44, velocity=80, time=0),
    Message('note_on', channel=9, note=54, velocity=50, time=0),
    Message('note_on', channel=9, note=45, velocity=93, time=0),
    Message('note_on', channel=9, note=38, velocity=120, time=0),
    Message('note_on', channel=13, note=50, velocity=100, time=0),
    Message('note_on', channel=9, note=38, velocity=0, time=4),
    Message('note_on', channel=9, note=54, velocity=0, time=0),
    Message('note_on', channel=9, note=44, velocity=0, time=1),
    Message('note_on', channel=9, note=45, velocity=0, time=11),
    Message('note_on', channel=8, note=55, velocity=48, time=2),
    Message('note_on', channel=8, note=60, velocity=48, time=5),
    Message('note_on', channel=4, note=48, velocity=0, time=169),
    Message('note_on', channel=4, note=57, velocity=0, time=0),
    Message('note_on', channel=1, note=43, velocity=0, time=24),
    Message('note_on', channel=8, note=64, velocity=0, time=14),
    Message('note_on', channel=13, note=50, velocity=0, time=3),
    Message('note_on', channel=6, note=50, velocity=0, time=0),
    Message('note_on', channel=8, note=60, velocity=0, time=6),
    Message('note_on', channel=8, note=55, velocity=0, time=0),
    Message('note_on', channel=1, note=40, velocity=104, time=1),
    Message('note_on', channel=4, note=55, velocity=70, time=0),
    Message('note_on', channel=4, note=48, velocity=70, time=0),
    Message('note_on', channel=6, note=48, velocity=100, time=0),
    Message('note_on', channel=8, note=60, velocity=70, time=0),
    Message('note_on', channel=9, note=42, velocity=80, time=0),
    Message('note_on', channel=9, note=43, velocity=100, time=0),
    Message('note_on', channel=13, note=48, velocity=100, time=0),
    Message('note_on', channel=9, note=42, velocity=0, time=5),
    Message('note_on', channel=9, note=43, velocity=0, time=11),
    Message('note_on', channel=8, note=55, velocity=70, time=3),
    Message('note_on', channel=8, note=64, velocity=70, time=14),
    Message('note_on', channel=4, note=55, velocity=0, time=164),
    Message('note_on', channel=1, note=40, velocity=0, time=19),
    Message('note_on', channel=8, note=60, velocity=0, time=14),
    Message('note_on', channel=4, note=48, velocity=0, time=2),
    Message('note_on', channel=13, note=48, velocity=0, time=1),
    Message('note_on', channel=6, note=48, velocity=0, time=0),
    Message('note_on', channel=8, note=55, velocity=0, time=2),
    Message('note_on', channel=2, note=72, velocity=0, time=5),
    Message('note_on', channel=2, note=79, velocity=0, time=0),
    Message('note_on', channel=2, note=76, velocity=0, time=0),
    Message('note_on', channel=1, note=45, velocity=104, time=0),
    Message('note_on', channel=2, note=72, velocity=71, time=0),
    Message('note_on', channel=2, note=76, velocity=62, time=0),
    Message('note_on', channel=2, note=81, velocity=63, time=0),
    Message('note_on', channel=3, note=69, velocity=100, time=0),
    Message('note_on', channel=4, note=52, velocity=86, time=0),
    Message('note_on', channel=4, note=45, velocity=86, time=0),
    Message('note_on', channel=5, note=64, velocity=80, time=0),
    Message('note_on', channel=5, note=69, velocity=80, time=0),
    Message('note_on', channel=5, note=60, velocity=80, time=0),
    Message('note_on', channel=6, note=57, velocity=80, time=0),
    Message('note_on', channel=8, note=57, velocity=80, time=0),
    Message('note_on', channel=9, note=36, velocity=120, time=0),
    Message('note_on', channel=9, note=49, velocity=80, time=0),
    Message('note_on', channel=13, note=57, velocity=60, time=0),
    MetaMessage('lyrics', text='How, ', time=0),
    Message('note_on', channel=9, note=36, velocity=0, time=4),
    Message('note_on', channel=8, note=64, velocity=0, time=0),
    Message('note_on', channel=9, note=49, velocity=0, time=1),
    Message('note_on', channel=8, note=60, velocity=80, time=11),
    Message('note_on', channel=8, note=64, velocity=80, time=7),
    Message('note_on', channel=13, note=57, velocity=0, time=217),
    Message('note_on', channel=6, note=57, velocity=0, time=0),
    Message('note_on', channel=6, note=60, velocity=80, time=0),
    Message('note_on', channel=9, note=42, velocity=80, time=0),
    Message('note_on', channel=13, note=60, velocity=60, time=0),
    Message('note_on', channel=9, note=42, velocity=0, time=5),
    Message('note_on', channel=1, note=45, velocity=0, time=187),
    Message('note_on', channel=8, note=64, velocity=0, time=18),
    Message('note_on', channel=8, note=57, velocity=0, time=11),
    Message('note_on', channel=8, note=60, velocity=0, time=16),
    Message('note_on', channel=13, note=60, velocity=0, time=3),
    Message('note_on', channel=6, note=60, velocity=0, time=0),
    Message('note_on', channel=6, note=64, velocity=80, time=0),
    Message('note_on', channel=9, note=54, velocity=50, time=0),
    Message('note_on', channel=9, note=44, velocity=80, time=0),
    Message('note_on', channel=9, note=38, velocity=120, time=0),
    Message('note_on', channel=13, note=64, velocity=60, time=0),
    Message('note_on', channel=9, note=38, velocity=0, time=4),
    Message('note_on', channel=9, note=54, velocity=0, time=0),
    Message('note_on', channel=9, note=44, velocity=0, time=1),
    Message('note_on', channel=8, note=57, velocity=59, time=4),
    Message('note_on', channel=8, note=60, velocity=59, time=6),
    Message('note_on', channel=8, note=64, velocity=59, time=4),
    Message('note_on', channel=8, note=57, velocity=0, time=187),
    Message('note_on', channel=4, note=45, velocity=0, time=12),
    Message('note_on', channel=4, note=52, velocity=0, time=0),
    Message('note_on', channel=8, note=60, velocity=0, time=1),
    Message('note_on', channel=8, note=64, velocity=0, time=4),
    Message('note_on', channel=6, note=64, velocity=0, time=17),
    Message('note_on', channel=13, note=64, velocity=0, time=0),
    Message('note_on', channel=1, note=45, velocity=104, time=0),
    Message('note_on', channel=4, note=45, velocity=72, time=0),
    Message('note_on', channel=4, note=52, velocity=72, time=0),
    Message('note_on', channel=6, note=60, velocity=80, time=0),
    Message('note_on', channel=6, note=69, velocity=80, time=0),
    Message('note_on', channel=8, note=57, velocity=50, time=0),
    Message('note_on', channel=8, note=64, velocity=50, time=0),
    Message('note_on', channel=8, note=60, velocity=50, time=0),
    Message('note_on', channel=9, note=36, velocity=120, time=0),
    Message('note_on', channel=9, note=42, velocity=80, time=0),
    Message('note_on', channel=13, note=69, velocity=60, time=0),
    Message('note_on', channel=9, note=42, velocity=0, time=5),
    Message('note_on', channel=13, note=64, velocity=60, time=2),
    Message('note_on', channel=9, note=36, velocity=0, time=9),
    Message('note_on', channel=8, note=60, velocity=0, time=68),
    Message('note_on', channel=8, note=64, velocity=0, time=0),
    Message('note_on', channel=8, note=57, velocity=0, time=7),
    Message('note_on', channel=4, note=45, velocity=0, time=101),
    Message('note_on', channel=4, note=52, velocity=0, time=0),
    Message('note_on', channel=1, note=45, velocity=0, time=24),
    Message('control_change', channel=13, control=1, value=93, time=2),
    Message('note_on', channel=1, note=45, velocity=104, time=22),
    Message('note_on', channel=4, note=52, velocity=80, time=0),
    Message('note_on', channel=4, note=45, velocity=80, time=0),
    Message('note_on', channel=8, note=64, velocity=78, time=0),
    Message('note_on', channel=9, note=36, velocity=120, time=0),
    Message('note_on', channel=9, note=44, velocity=80, time=0),
    Message('note_on', channel=9, note=36, velocity=0, time=4),
    Message('note_on', channel=9, note=44, velocity=0, time=1),
    Message('note_on', channel=8, note=57, velocity=78, time=5),
    Message('note_on', channel=8, note=60, velocity=78, time=18),
    Message('note_on', channel=4, note=45, velocity=0, time=164),
    Message('note_on', channel=4, note=52, velocity=0, time=0),
    Message('control_change', channel=13, control=1, value=0, time=5),
    Message('note_on', channel=8, note=64, velocity=0, time=33),
    Message('note_on', channel=8, note=60, velocity=0, time=5),
    Message('note_on', channel=8, note=57, velocity=0, time=5),
    Message('note_on', channel=6, note=60, velocity=0, time=0),
    Message('note_on', channel=6, note=69, velocity=0, time=0),
    Message('note_on', channel=13, note=69, velocity=0, time=0),
    Message('note_on', channel=4, note=45, velocity=71, time=0),
    Message('note_on', channel=4, note=52, velocity=71, time=0),
    Message('note_on', channel=6, note=64, velocity=80, time=0),
    Message('note_on', channel=8, note=60, velocity=63, time=0),
    Message('note_on', channel=9, note=42, velocity=80, time=0),
    Message('note_on', channel=13, note=64, velocity=60, time=0),
    Message('note_on', channel=9, note=42, velocity=0, time=5),
    Message('note_on', channel=13, note=64, velocity=0, time=2),
    Message('note_on', channel=8, note=57, velocity=63, time=12),
    Message('note_on', channel=8, note=64, velocity=63, time=5),
    Message('note_on', channel=8, note=60, velocity=0, time=138),
    Message('note_on', channel=8, note=64, velocity=0, time=24),
    Message('note_on', channel=8, note=57, velocity=0, time=2),
    Message('note_on', channel=4, note=52, velocity=0, time=4),
    Message('note_on', channel=4, note=45, velocity=0, time=0),
    Message('note_on', channel=1, note=45, velocity=0, time=0),
    Message('note_on', channel=6, note=64, velocity=0, time=48),
    Message('note_on', channel=13, note=64, velocity=0, time=0),
    Message('note_on', channel=1, note=45, velocity=104, time=0),
    Message('note_on', channel=4, note=45, velocity=86, time=0),
    Message('note_on', channel=4, note=52, velocity=86, time=0),
    Message('note_on', channel=6, note=60, velocity=80, time=0),
    Message('note_on', channel=8, note=64, velocity=48, time=0),
    Message('note_on', channel=9, note=54, velocity=50, time=0),
    Message('note_on', channel=9, note=44, velocity=80, time=0),
    Message('note_on', channel=9, note=38, velocity=120, time=0),
    Message('note_on', channel=13, note=60, velocity=60, time=0),
    Message('note_on', channel=9, note=38, velocity=0, time=4),
    Message('note_on', channel=9, note=54, velocity=0, time=0),
    Message('note_on', channel=9, note=44, velocity=0, time=1),
    Message('note_on', channel=8, note=57, velocity=48, time=13),
    Message('note_on', channel=8, note=60, velocity=48, time=5),
    Message('note_on', channel=4, note=45, velocity=0, time=169),
    Message('note_on', channel=4, note=52, velocity=0, time=0),
    Message('note_on', channel=8, note=64, velocity=0, time=38),
    Message('note_on', channel=8, note=57, velocity=0, time=9),
    Message('note_on', channel=8, note=60, velocity=0, time=0),
    Message('note_on', channel=13, note=60, velocity=0, time=1),
    Message('note_on', channel=6, note=60, velocity=0, time=0),
    Message('pitchwheel', channel=3, pitch=0, time=0),
    Message('note_on', channel=4, note=45, velocity=70, time=0),
    Message('note_on', channel=4, note=48, velocity=70, time=0),
    Message('pitchwheel', channel=5, pitch=0, time=0),
    Message('note_on', channel=6, note=57, velocity=80, time=0),
    Message('note_on', channel=8, note=60, velocity=70, time=0),
    Message('note_on', channel=9, note=42, velocity=80, time=0),
    Message('note_on', channel=13, note=57, velocity=60, time=0),
    Message('note_on', channel=9, note=42, velocity=0, time=5),
    Message('pitchwheel', channel=3, pitch=-256, time=3),
    Message('pitchwheel', channel=5, pitch=-256, time=0),
    Message('pitchwheel', channel=3, pitch=-640, time=9),
    Message('pitchwheel', channel=5, pitch=-640, time=0),
    Message('note_on', channel=8, note=57, velocity=70, time=2),
    Message('pitchwheel', channel=3, pitch=-896, time=7),
    Message('pitchwheel', channel=5, pitch=-896, time=0),
    Message('note_on', channel=8, note=64, velocity=70, time=7),
    Message('pitchwheel', channel=3, pitch=-1280, time=2),
    Message('pitchwheel', channel=5, pitch=-1280, time=0),
    Message('pitchwheel', channel=3, pitch=-1536, time=9),
    Message('pitchwheel', channel=5, pitch=-1536, time=0),
    Message('pitchwheel', channel=3, pitch=-1920, time=9),
    Message('pitchwheel', channel=5, pitch=-1920, time=0),
    Message('pitchwheel', channel=3, pitch=-2176, time=9),
    Message('pitchwheel', channel=5, pitch=-2176, time=0),
    Message('pitchwheel', channel=3, pitch=-2560, time=9),
    Message('pitchwheel', channel=5, pitch=-2560, time=0),
    Message('pitchwheel', channel=3, pitch=-2816, time=9),
    Message('pitchwheel', channel=5, pitch=-2816, time=0),
    Message('pitchwheel', channel=3, pitch=-3200, time=8),
    Message('pitchwheel', channel=5, pitch=-3200, time=0),
    Message('pitchwheel', channel=3, pitch=-3456, time=9),
    Message('pitchwheel', channel=5, pitch=-3456, time=0),
    Message('pitchwheel', channel=3, pitch=-3840, time=9),
    Message('pitchwheel', channel=5, pitch=-3840, time=0),
    Message('pitchwheel', channel=3, pitch=-4096, time=9),
    Message('pitchwheel', channel=5, pitch=-4096, time=0),
    Message('pitchwheel', channel=3, pitch=-4480, time=9),
    Message('pitchwheel', channel=5, pitch=-4480, time=0),
    Message('pitchwheel', channel=3, pitch=-4736, time=9),
    Message('pitchwheel', channel=5, pitch=-4736, time=0),
    Message('pitchwheel', channel=3, pitch=-5120, time=9),
    Message('pitchwheel', channel=5, pitch=-5120, time=0),
    Message('pitchwheel', channel=3, pitch=-5376, time=9),
    Message('pitchwheel', channel=5, pitch=-5376, time=0),
    Message('pitchwheel', channel=3, pitch=-5760, time=9),
    Message('pitchwheel', channel=5, pitch=-5760, time=0),
    Message('pitchwheel', channel=3, pitch=-6016, time=8),
    Message('pitchwheel', channel=5, pitch=-6016, time=0),
    Message('pitchwheel', channel=3, pitch=-6400, time=9),
    Message('pitchwheel', channel=5, pitch=-6400, time=0),
    Message('pitchwheel', channel=3, pitch=-6656, time=9),
    Message('pitchwheel', channel=5, pitch=-6656, time=0),
    Message('note_on', channel=4, note=45, velocity=0, time=6),
    Message('note_on', channel=1, note=45, velocity=0, time=0),
    Message('note_on', channel=4, note=48, velocity=0, time=0),
    Message('pitchwheel', channel=3, pitch=-7040, time=3),
    Message('pitchwheel', channel=5, pitch=-7040, time=0),
    Message('pitchwheel', channel=3, pitch=-7296, time=9),
    Message('pitchwheel', channel=5, pitch=-7296, time=0),
    Message('pitchwheel', channel=3, pitch=-7680, time=9),
    Message('pitchwheel', channel=5, pitch=-7680, time=0),
    Message('pitchwheel', channel=3, pitch=-8064, time=9),
    Message('pitchwheel', channel=5, pitch=-8064, time=0),
    Message('note_on', channel=8, note=60, velocity=0, time=8),
    Message('note_on', channel=8, note=57, velocity=0, time=5),
    Message('note_on', channel=6, note=57, velocity=0, time=5),
    Message('note_on', channel=3, note=69, velocity=0, time=0),
    Message('note_on', channel=2, note=81, velocity=0, time=0),
    Message('note_on', channel=2, note=76, velocity=0, time=0),
    Message('note_on', channel=5, note=69, velocity=0, time=0),
    Message('note_on', channel=13, note=57, velocity=0, time=0),
    Message('note_on', channel=5, note=64, velocity=0, time=0),
    Message('note_on', channel=2, note=72, velocity=0, time=0),
    Message('note_on', channel=5, note=60, velocity=0, time=0),
    Message('note_on', channel=1, note=43, velocity=104, time=0),
    Message('note_on', channel=2, note=71, velocity=63, time=0),
    Message('note_on', channel=2, note=74, velocity=61, time=0),
    Message('note_on', channel=2, note=79, velocity=75, time=0),
    Message('pitchwheel', channel=3, pitch=0, time=0),
    Message('note_on', channel=3, note=67, velocity=100, time=0),
    Message('note_on', channel=4, note=43, velocity=86, time=0),
    Message('note_on', channel=4, note=50, velocity=86, time=0),
    Message('pitchwheel', channel=5, pitch=0, time=0),
    Message('note_on', channel=5, note=59, velocity=80, time=0),
    Message('note_on', channel=5, note=62, velocity=80, time=0),
    Message('note_on', channel=5, note=67, velocity=80, time=0),
    Message('note_on', channel=6, note=55, velocity=80, time=0),
    Message('note_on', channel=8, note=55, velocity=80, time=0),
    Message('note_on', channel=9, note=44, velocity=80, time=0),
    Message('note_on', channel=9, note=36, velocity=120, time=0),
    Message('note_on', channel=13, note=55, velocity=60, time=0),
    MetaMessage('lyrics', text='long, ', time=0),
    Message('note_on', channel=9, note=36, velocity=0, time=4),
    Message('note_on', channel=8, note=64, velocity=0, time=0),
    Message('note_on', channel=9, note=44, velocity=0, time=1),
    Message('note_on', channel=8, note=59, velocity=80, time=11),
    Message('note_on', channel=8, note=62, velocity=80, time=7),
    Message('note_on', channel=13, note=55, velocity=0, time=217),
    Message('note_on', channel=6, note=55, velocity=0, time=0),
    Message('note_on', channel=6, note=59, velocity=80, time=0),
    Message('note_on', channel=9, note=42, velocity=80, time=0),
    Message('note_on', channel=13, note=59, velocity=60, time=0),
    Message('note_on', channel=9, note=42, velocity=0, time=5),
    Message('note_on', channel=1, note=43, velocity=0, time=187),
    Message('note_on', channel=8, note=62, velocity=0, time=18),
    Message('note_on', channel=8, note=55, velocity=0, time=11),
    Message('note_on', channel=8, note=59, velocity=0, time=16),
    Message('note_on', channel=13, note=59, velocity=0, time=3),
    Message('note_on', channel=6, note=59, velocity=0, time=0),
    Message('note_on', channel=6, note=62, velocity=80, time=0),
    Message('note_on', channel=9, note=44, velocity=80, time=0),
    Message('note_on', channel=9, note=54, velocity=50, time=0),
    Message('note_on', channel=9, note=38, velocity=120, time=0),
    Message('note_on', channel=13, note=62, velocity=60, time=0),
    Message('note_on', channel=9, note=38, velocity=0, time=4),
    Message('note_on', channel=9, note=54, velocity=0, time=0),
    Message('note_on', channel=9, note=44, velocity=0, time=1),
    Message('note_on', channel=8, note=55, velocity=59, time=4),
    Message('note_on', channel=8, note=59, velocity=59, time=6),
    Message('note_on', channel=8, note=62, velocity=59, time=4),
    Message('note_on', channel=8, note=55, velocity=0, time=187),
    Message('note_on', channel=4, note=50, velocity=0, time=12),
    Message('note_on', channel=4, note=43, velocity=0, time=0),
    Message('note_on', channel=8, note=59, velocity=0, time=1),
    Message('note_on', channel=8, note=62, velocity=0, time=4),
    Message('note_on', channel=6, note=62, velocity=0, time=17),
    Message('note_on', channel=13, note=62, velocity=0, time=0),
    Message('note_on', channel=1, note=43, velocity=104, time=0),
    Message('note_on', channel=4, note=43, velocity=72, time=0),
    Message('note_on', channel=4, note=50, velocity=72, time=0),
    Message('note_on', channel=6, note=59, velocity=80, time=0),
    Message('note_on', channel=6, note=67, velocity=80, time=0),
    Message('note_on', channel=8, note=55, velocity=50, time=0),
    Message('note_on', channel=8, note=59, velocity=50, time=0),
    Message('note_on', channel=8, note=62, velocity=50, time=0),
    Message('note_on', channel=9, note=36, velocity=120, time=0),
    Message('note_on', channel=9, note=42, velocity=80, time=0),
    Message('note_on', channel=13, note=62, velocity=60, time=0),
    Message('note_on', channel=13, note=67, velocity=60, time=0),
    Message('note_on', channel=9, note=42, velocity=0, time=5),
    Message('note_on', channel=9, note=36, velocity=0, time=11),
    Message('note_on', channel=8, note=62, velocity=0, time=68),
    Message('note_on', channel=8, note=59, velocity=0, time=0),
    Message('note_on', channel=8, note=55, velocity=0, time=7),
    Message('note_on', channel=4, note=43, velocity=0, time=101),
    Message('note_on', channel=4, note=50, velocity=0, time=0),
    Message('note_on', channel=1, note=43, velocity=0, time=24),
    Message('control_change', channel=13, control=1, value=94, time=2),
    Message('note_on', channel=1, note=43, velocity=104, time=22),
    Message('note_on', channel=4, note=43, velocity=80, time=0),
    Message('note_on', channel=4, note=50, velocity=80, time=0),
    Message('note_on', channel=8, note=62, velocity=78, time=0),
    Message('note_on', channel=9, note=44, velocity=80, time=0),
    Message('note_on', channel=9, note=36, velocity=120, time=0),
    Message('note_on', channel=9, note=36, velocity=0, time=4),
    Message('note_on', channel=9, note=44, velocity=0, time=1),
    Message('note_on', channel=8, note=55, velocity=78, time=5),
    Message('note_on', channel=8, note=59, velocity=78, time=18),
    Message('note_on', channel=6, note=67, velocity=0, time=92),
    Message('note_on', channel=4, note=50, velocity=0, time=72),
    Message('note_on', channel=4, note=43, velocity=0, time=0),
    Message('note_on', channel=13, note=67, velocity=0, time=12),
    Message('note_on', channel=8, note=62, velocity=0, time=26),
    Message('control_change', channel=13, control=1, value=0, time=2),
    Message('note_on', channel=8, note=59, velocity=0, time=3),
    Message('note_on', channel=8, note=55, velocity=0, time=5),
    Message('note_on', channel=6, note=59, velocity=0, time=0),
    Message('note_on', channel=13, note=62, velocity=0, time=0),
    Message('note_on', channel=4, note=43, velocity=71, time=0),
    Message('note_on', channel=4, note=50, velocity=71, time=0),
    Message('note_on', channel=6, note=62, velocity=80, time=0),
    Message('note_on', channel=8, note=59, velocity=63, time=0),
    Message('note_on', channel=9, note=42, velocity=80, time=0),
    Message('note_on', channel=13, note=62, velocity=60, time=0),
    Message('note_on', channel=9, note=42, velocity=0, time=5),
    Message('note_on', channel=8, note=55, velocity=63, time=14),
    Message('note_on', channel=8, note=62, velocity=63, time=5),
    Message('note_on', channel=8, note=59, velocity=0, time=138),
    Message('note_on', channel=8, note=62, velocity=0, time=24),
    Message('note_on', channel=8, note=55, velocity=0, time=2),
    Message('note_on', channel=4, note=43, velocity=0, time=4),
    Message('note_on', channel=1, note=43, velocity=0, time=0),
    Message('note_on', channel=4, note=50, velocity=0, time=0),
    Message('note_on', channel=6, note=62, velocity=0, time=48),
    Message('note_on', channel=13, note=62, velocity=0, time=0),
    Message('note_on', channel=1, note=43, velocity=104, time=0),
    Message('note_on', channel=4, note=43, velocity=86, time=0),
    Message('note_on', channel=4, note=50, velocity=86, time=0),
    Message('note_on', channel=6, note=59, velocity=80, time=0),
    Message('note_on', channel=8, note=62, velocity=48, time=0),
    Message('note_on', channel=9, note=54, velocity=50, time=0),
    Message('note_on', channel=9, note=44, velocity=80, time=0),
    Message('note_on', channel=9, note=38, velocity=120, time=0),
    Message('note_on', channel=13, note=59, velocity=60, time=0),
    Message('note_on', channel=9, note=38, velocity=0, time=4),
    Message('note_on', channel=9, note=54, velocity=0, time=0),
    Message('note_on', channel=9, note=44, velocity=0, time=1),
    Message('note_on', channel=8, note=55, velocity=48, time=13),
    Message('note_on', channel=8, note=59, velocity=48, time=5),
    Message('note_on', channel=4, note=43, velocity=0, time=169),
    Message('note_on', channel=4, note=50, velocity=0, time=0),
    Message('note_on', channel=8, note=62, velocity=0, time=38),
    Message('note_on', channel=8, note=55, velocity=0, time=9),
    Message('note_on', channel=8, note=59, velocity=0, time=0),
    Message('note_on', channel=13, note=59, velocity=0, time=1),
    Message('note_on', channel=6, note=59, velocity=0, time=0),
    Message('note_on', channel=4, note=43, velocity=70, time=0),
    Message('note_on', channel=4, note=47, velocity=70, time=0),
    Message('note_on', channel=6, note=55, velocity=80, time=0),
    Message('note_on', channel=8, note=59, velocity=70, time=0),
    Message('note_on', channel=9, note=42, velocity=80, time=0),
    Message('note_on', channel=13, note=55, velocity=60, time=0),
    Message('note_on', channel=9, note=42, velocity=0, time=5),
    Message('note_on', channel=8, note=55, velocity=70, time=14),
    Message('note_on', channel=8, note=62, velocity=70, time=14),
    Message('note_on', channel=4, note=43, velocity=0, time=159),
    Message('note_on', channel=1, note=43, velocity=0, time=0),
    Message('note_on', channel=4, note=47, velocity=0, time=0),
    Message('note_on', channel=8, note=59, velocity=0, time=38),
    Message('note_on', channel=8, note=55, velocity=0, time=5),
    Message('note_on', channel=6, note=55, velocity=0, time=5),
    Message('note_on', channel=5, note=62, velocity=0, time=0),
    Message('note_on', channel=5, note=67, velocity=0, time=0),
    Message('note_on', channel=3, note=67, velocity=0, time=0),
    Message('note_on', channel=2, note=71, velocity=0, time=0),
    Message('note_on', channel=13, note=55, velocity=0, time=0),
    Message('note_on', channel=2, note=79, velocity=0, time=0),
    Message('note_on', channel=5, note=59, velocity=0, time=0),
    Message('note_on', channel=2, note=74, velocity=0, time=0),
    Message('note_on', channel=1, note=41, velocity=104, time=0),
    Message('note_on', channel=2, note=72, velocity=57, time=0),
    Message('note_on', channel=2, note=77, velocity=73, time=0),
    Message('note_on', channel=2, note=81, velocity=61, time=0),
    Message('note_on', channel=3, note=65, velocity=100, time=0),
    Message('note_on', channel=4, note=41, velocity=86, time=0),
    Message('note_on', channel=4, note=48, velocity=86, time=0),
    Message('note_on', channel=5, note=65, velocity=80, time=0),
    Message('note_on', channel=5, note=60, velocity=80, time=0),
    Message('note_on', channel=5, note=57, velocity=80, time=0),
    Message('note_on', channel=6, note=53, velocity=80, time=0),
    Message('note_on', channel=8, note=57, velocity=80, time=0),
    Message('note_on', channel=9, note=36, velocity=120, time=0),
    Message('note_on', channel=9, note=44, velocity=80, time=0),
    Message('note_on', channel=13, note=53, velocity=60, time=0),
    MetaMessage('lyrics', text='how, ', time=0),
    Message('note_on', channel=9, note=36, velocity=0, time=4),
    Message('note_on', channel=8, note=62, velocity=0, time=0),
    Message('note_on', channel=9, note=44, velocity=0, time=1),
    Message('note_on', channel=8, note=60, velocity=80, time=11),
    Message('note_on', channel=8, note=65, velocity=80, time=7),
    Message('note_on', channel=13, note=53, velocity=0, time=217),
    Message('note_on', channel=6, note=53, velocity=0, time=0),
    Message('note_on', channel=6, note=57, velocity=80, time=0),
    Message('note_on', channel=9, note=42, velocity=80, time=0),
    Message('note_on', channel=13, note=57, velocity=60, time=0),
    Message('note_on', channel=9, note=42, velocity=0, time=5),
    Message('note_on', channel=1, note=41, velocity=0, time=187),
    Message('note_on', channel=8, note=65, velocity=0, time=18),
    Message('note_on', channel=8, note=57, velocity=0, time=11),
    Message('note_on', channel=8, note=60, velocity=0, time=16),
    Message('note_on', channel=13, note=57, velocity=0, time=3),
    Message('note_on', channel=6, note=57, velocity=0, time=0),
    Message('note_on', channel=6, note=60, velocity=80, time=0),
    Message('note_on', channel=9, note=44, velocity=80, time=0),
    Message('note_on', channel=9, note=54, velocity=50, time=0),
    Message('note_on', channel=9, note=38, velocity=120, time=0),
    Message('note_on', channel=13, note=60, velocity=60, time=0),
    Message('note_on', channel=9, note=38, velocity=0, time=4),
    Message('note_on', channel=9, note=54, velocity=0, time=0),
    Message('note_on', channel=9, note=44, velocity=0, time=1),
    Message('note_on', channel=8, note=57, velocity=59, time=4),
    Message('note_on', channel=8, note=60, velocity=59, time=6),
    Message('note_on', channel=8, note=65, velocity=59, time=4),
    Message('note_on', channel=8, note=57, velocity=0, time=187),
    Message('note_on', channel=4, note=48, velocity=0, time=12),
    Message('note_on', channel=4, note=41, velocity=0, time=0),
    Message('note_on', channel=8, note=60, velocity=0, time=1),
    Message('note_on', channel=8, note=65, velocity=0, time=4),
    Message('note_on', channel=6, note=60, velocity=0, time=17),
    Message('note_on', channel=13, note=60, velocity=0, time=0),
    Message('note_on', channel=1, note=41, velocity=104, time=0),
    Message('note_on', channel=4, note=41, velocity=72, time=0),
    Message('note_on', channel=4, note=48, velocity=72, time=0),
    Message('note_on', channel=6, note=57, velocity=80, time=0),
    Message('note_on', channel=6, note=65, velocity=80, time=0),
    Message('note_on', channel=8, note=65, velocity=50, time=0),
    Message('note_on', channel=8, note=60, velocity=50, time=0),
    Message('note_on', channel=8, note=57, velocity=50, time=0),
    Message('note_on', channel=9, note=36, velocity=120, time=0),
    Message('note_on', channel=9, note=42, velocity=80, time=0),
    Message('note_on', channel=13, note=60, velocity=60, time=0),
    Message('note_on', channel=13, note=65, velocity=60, time=0),
    Message('note_on', channel=9, note=42, velocity=0, time=5),
    Message('note_on', channel=9, note=36, velocity=0, time=11),
    Message('note_on', channel=8, note=60, velocity=0, time=68),
    Message('note_on', channel=8, note=65, velocity=0, time=0),
    Message('note_on', channel=8, note=57, velocity=0, time=7),
    Message('note_on', channel=4, note=41, velocity=0, time=101),
    Message('note_on', channel=4, note=48, velocity=0, time=0),
    Message('note_on', channel=1, note=41, velocity=0, time=24),
    Message('control_change', channel=13, control=1, value=93, time=2),
    Message('note_on', channel=1, note=41, velocity=104, time=22),
    Message('note_on', channel=4, note=48, velocity=80, time=0),
    Message('note_on', channel=4, note=41, velocity=80, time=0),
    Message('note_on', channel=8, note=65, velocity=78, time=0),
    Message('note_on', channel=9, note=36, velocity=120, time=0),
    Message('note_on', channel=9, note=44, velocity=80, time=0),
    Message('note_on', channel=9, note=36, velocity=0, time=4),
    Message('note_on', channel=9, note=44, velocity=0, time=1),
    Message('note_on', channel=8, note=57, velocity=78, time=5),
    Message('note_on', channel=8, note=60, velocity=78, time=18),
    Message('note_on', channel=4, note=41, velocity=0, time=164),
    Message('note_on', channel=4, note=48, velocity=0, time=0),
    Message('note_on', channel=8, note=65, velocity=0, time=38),
    Message('note_on', channel=8, note=60, velocity=0, time=5),
    Message('note_on', channel=8, note=57, velocity=0, time=5),
    Message('note_on', channel=13, note=65, velocity=0, time=0),
    Message('note_on', channel=6, note=57, velocity=0, time=0),
    Message('note_on', channel=6, note=65, velocity=0, time=0),
    Message('note_on', channel=13, note=60, velocity=0, time=0),
    Message('note_on', channel=4, note=48, velocity=71, time=0),
    Message('note_on', channel=4, note=41, velocity=71, time=0),
    Message('note_on', channel=6, note=60, velocity=80, time=0),
    Message('note_on', channel=8, note=60, velocity=63, time=0),
    Message('note_on', channel=9, note=42, velocity=80, time=0),
    Message('note_on', channel=13, note=60, velocity=60, time=0),
    Message('note_on', channel=9, note=42, velocity=0, time=5),
    Message('control_change', channel=13, control=1, value=0, time=9),
    Message('note_on', channel=8, note=57, velocity=63, time=5),
    Message('note_on', channel=8, note=65, velocity=63, time=5),
    Message('note_on', channel=8, note=60, velocity=0, time=138),
    Message('note_on', channel=8, note=65, velocity=0, time=24),
    Message('note_on', channel=8, note=57, velocity=0, time=2),
    Message('note_on', channel=4, note=48, velocity=0, time=4),
    Message('note_on', channel=1, note=41, velocity=0, time=0),
    Message('note_on', channel=4, note=41, velocity=0, time=0),
    Message('note_on', channel=6, note=60, velocity=0, time=48),
    Message('note_on', channel=13, note=60, velocity=0, time=0),
    Message('note_on', channel=1, note=41, velocity=104, time=0),
    Message('note_on', channel=4, note=48, velocity=86, time=0),
    Message('note_on', channel=4, note=41, velocity=86, time=0),
    Message('note_on', channel=6, note=57, velocity=80, time=0),
    Message('note_on', channel=8, note=65, velocity=48, time=0),
    Message('note_on', channel=9, note=54, velocity=50, time=0),
    Message('note_on', channel=9, note=44, velocity=80, time=0),
    Message('note_on', channel=9, note=38, velocity=120, time=0),
    Message('note_on', channel=13, note=57, velocity=60, time=0),
    Message('note_on', channel=9, note=38, velocity=0, time=4),
    Message('note_on', channel=9, note=54, velocity=0, time=0),
    Message('note_on', channel=9, note=44, velocity=0, time=1),
    Message('note_on', channel=8, note=57, velocity=48, time=13),
    Message('note_on', channel=8, note=60, velocity=48, time=5),
    Message('note_on', channel=4, note=48, velocity=0, time=169),
    Message('note_on', channel=4, note=41, velocity=0, time=0),
    Message('note_on', channel=8, note=65, velocity=0, time=38),
    Message('note_on', channel=8, note=57, velocity=0, time=9),
    Message('note_on', channel=8, note=60, velocity=0, time=0),
    Message('note_on', channel=13, note=57, velocity=0, time=1),
    Message('note_on', channel=6, note=57, velocity=0, time=0),
    Message('note_on', channel=4, note=41, velocity=70, time=0),
    Message('note_on', channel=4, note=45, velocity=70, time=0),
    Message('note_on', channel=6, note=53, velocity=80, time=0),
    Message('note_on', channel=8, note=60, velocity=70, time=0),
    Message('note_on', channel=9, note=42, velocity=80, time=0),
    Message('note_on', channel=13, note=53, velocity=60, time=0),
    Message('note_on', channel=9, note=42, velocity=0, time=5),
    Message('note_on', channel=8, note=57, velocity=70, time=14),
    Message('note_on', channel=8, note=65, velocity=70, time=14),
    Message('pitchwheel', channel=3, pitch=0, time=2),
    Message('pitchwheel', channel=5, pitch=0, time=0),
    Message('pitchwheel', channel=3, pitch=-384, time=9),
    Message('pitchwheel', channel=5, pitch=-384, time=0),
    Message('pitchwheel', channel=3, pitch=-768, time=9),
    Message('pitchwheel', channel=5, pitch=-768, time=0),
    Message('pitchwheel', channel=3, pitch=-1152, time=9),
    Message('pitchwheel', channel=5, pitch=-1152, time=0),
    Message('pitchwheel', channel=3, pitch=-1664, time=9),
    Message('pitchwheel', channel=5, pitch=-1664, time=0),
    Message('pitchwheel', channel=3, pitch=-2048, time=9),
    Message('pitchwheel', channel=5, pitch=-2048, time=0),
    Message('pitchwheel', channel=3, pitch=-2432, time=8),
    Message('pitchwheel', channel=5, pitch=-2432, time=0),
    Message('pitchwheel', channel=3, pitch=-2944, time=9),
    Message('pitchwheel', channel=5, pitch=-2944, time=0),
    Message('pitchwheel', channel=3, pitch=-3328, time=9),
    Message('pitchwheel', channel=5, pitch=-3328, time=0),
    Message('pitchwheel', channel=3, pitch=-3712, time=9),
    Message('pitchwheel', channel=5, pitch=-3712, time=0),
    Message('pitchwheel', channel=3, pitch=-4224, time=9),
    Message('pitchwheel', channel=5, pitch=-4224, time=0),
    Message('pitchwheel', channel=3, pitch=-4608, time=9),
    Message('pitchwheel', channel=5, pitch=-4608, time=0),
    Message('pitchwheel', channel=3, pitch=-4992, time=9),
    Message('pitchwheel', channel=5, pitch=-4992, time=0),
    Message('pitchwheel', channel=3, pitch=-5504, time=9),
    Message('pitchwheel', channel=5, pitch=-5504, time=0),
    Message('pitchwheel', channel=3, pitch=-5888, time=9),
    Message('pitchwheel', channel=5, pitch=-5888, time=0),
    Message('pitchwheel', channel=3, pitch=-6272, time=8),
    Message('pitchwheel', channel=5, pitch=-6272, time=0),
    Message('pitchwheel', channel=3, pitch=-6784, time=9),
    Message('pitchwheel', channel=5, pitch=-6784, time=0),
    Message('pitchwheel', channel=3, pitch=-7168, time=9),
    Message('pitchwheel', channel=5, pitch=-7168, time=0),
    Message('note_on', channel=4, note=41, velocity=0, time=6),
    Message('note_on', channel=1, note=41, velocity=0, time=0),
    Message('note_on', channel=4, note=45, velocity=0, time=0),
    Message('pitchwheel', channel=3, pitch=-7552, time=3),
    Message('pitchwheel', channel=5, pitch=-7552, time=0),
    Message('pitchwheel', channel=3, pitch=-8064, time=9),
    Message('pitchwheel', channel=5, pitch=-8064, time=0),
    Message('note_on', channel=8, note=60, velocity=0, time=26),
    Message('note_on', channel=8, note=57, velocity=0, time=5),
    Message('note_on', channel=6, note=53, velocity=0, time=5),
    Message('note_on', channel=5, note=60, velocity=0, time=0),
    Message('note_on', channel=2, note=77, velocity=0, time=0),
    Message('note_on', channel=2, note=81, velocity=0, time=0),
    Message('note_on', channel=5, note=57, velocity=0, time=0),
    Message('note_on', channel=13, note=53, velocity=0, time=0),
    Message('note_on', channel=3, note=65, velocity=0, time=0),
    Message('note_on', channel=5, note=65, velocity=0, time=0),
    Message('note_on', channel=1, note=48, velocity=104, time=0),
    Message('note_on', channel=2, note=76, velocity=52, time=0),
    Message('note_on', channel=2, note=79, velocity=49, time=0),
    Message('pitchwheel', channel=3, pitch=0, time=0),
    Message('note_on', channel=3, note=64, velocity=100, time=0),
    Message('note_on', channel=4, note=48, velocity=86, time=0),
    Message('note_on', channel=4, note=55, velocity=86, time=0),
    Message('note_on', channel=5, note=55, velocity=80, time=0),
    Message('note_on', channel=5, note=64, velocity=80, time=0),
    Message('pitchwheel', channel=5, pitch=0, time=0),
    Message('note_on', channel=5, note=60, velocity=80, time=0),
    Message('note_on', channel=8, note=55, velocity=80, time=0),
    Message('note_on', channel=9, note=36, velocity=120, time=0),
    Message('note_on', channel=9, note=44, velocity=80, time=0),
    MetaMessage('lyrics', text='long, ', time=0),
    MetaMessage('lyrics', text='\r', time=0),
    Message('note_on', channel=9, note=36, velocity=0, time=4),
    Message('note_on', channel=8, note=65, velocity=0, time=0),
    Message('note_on', channel=9, note=44, velocity=0, time=1),
    Message('note_on', channel=8, note=60, velocity=80, time=11),
    Message('note_on', channel=8, note=64, velocity=80, time=7),
    Message('note_on', channel=6, note=57, velocity=100, time=217),
    Message('note_on', channel=9, note=42, velocity=80, time=0),
    Message('note_on', channel=13, note=57, velocity=100, time=0),
    Message('note_on', channel=9, note=42, velocity=0, time=5),
    Message('note_on', channel=1, note=48, velocity=0, time=187),
    Message('note_on', channel=8, note=64, velocity=0, time=18),
    Message('note_on', channel=8, note=55, velocity=0, time=11),
    Message('note_on', channel=13, note=57, velocity=0, time=12),
    Message('note_on', channel=6, note=57, velocity=0, time=0),
    Message('note_on', channel=8, note=60, velocity=0, time=4),
    Message('note_on', channel=6, note=55, velocity=100, time=3),
    Message('note_on', channel=9, note=44, velocity=80, time=0),
    Message('note_on', channel=9, note=54, velocity=50, time=0),
    Message('note_on', channel=9, note=38, velocity=120, time=0),
    Message('note_on', channel=13, note=55, velocity=100, time=0),
    Message('note_on', channel=9, note=38, velocity=0, time=4),
    Message('note_on', channel=9, note=54, velocity=0, time=0),
    Message('note_on', channel=9, note=44, velocity=0, time=1),
    Message('note_on', channel=8, note=55, velocity=59, time=4),
    Message('note_on', channel=8, note=60, velocity=59, time=6),
    Message('note_on', channel=8, note=64, velocity=59, time=4),
    Message('note_on', channel=8, note=55, velocity=0, time=187),
    Message('note_on', channel=4, note=55, velocity=0, time=12),
    Message('note_on', channel=4, note=48, velocity=0, time=0),
    Message('note_on', channel=8, note=60, velocity=0, time=1),
    Message('note_on', channel=8, note=64, velocity=0, time=4),
    Message('note_on', channel=6, note=55, velocity=0, time=10),
    Message('note_on', channel=13, note=55, velocity=0, time=0),
    Message('note_on', channel=1, note=48, velocity=104, time=7),
    Message('note_on', channel=4, note=48, velocity=72, time=0),
    Message('note_on', channel=4, note=55, velocity=72, time=0),
    Message('note_on', channel=6, note=52, velocity=100, time=0),
    Message('note_on', channel=8, note=64, velocity=50, time=0),
    Message('note_on', channel=8, note=60, velocity=50, time=0),
    Message('note_on', channel=8, note=55, velocity=50, time=0),
    Message('note_on', channel=9, note=36, velocity=120, time=0),
    Message('note_on', channel=9, note=42, velocity=80, time=0),
    Message('note_on', channel=13, note=52, velocity=100, time=0),
    Message('note_on', channel=9, note=42, velocity=0, time=5),
    Message('note_on', channel=9, note=36, velocity=0, time=11),
    Message('note_on', channel=8, note=60, velocity=0, time=68),
    Message('note_on', channel=8, note=64, velocity=0, time=0),
    Message('note_on', channel=8, note=55, velocity=0, time=7),
    Message('note_on', channel=4, note=48, velocity=0, time=101),
    Message('note_on', channel=4, note=55, velocity=0, time=0),
    Message('note_on', channel=1, note=48, velocity=0, time=24),
    Message('note_on', channel=13, note=52, velocity=0, time=17),
    Message('note_on', channel=6, note=52, velocity=0, time=0),
    Message('note_on', channel=1, note=48, velocity=104, time=7),
    Message('note_on', channel=4, note=48, velocity=80, time=0),
    Message('note_on', channel=4, note=55, velocity=80, time=0),
    Message('note_on', channel=6, note=55, velocity=100, time=0),
    Message('note_on', channel=8, note=64, velocity=78, time=0),
    Message('note_on', channel=9, note=44, velocity=80, time=0),
    Message('note_on', channel=9, note=36, velocity=120, time=0),
    Message('note_on', channel=13, note=55, velocity=100, time=0),
    Message('note_on', channel=9, note=36, velocity=0, time=4),
    Message('note_on', channel=9, note=44, velocity=0, time=1),
    Message('note_on', channel=8, note=55, velocity=78, time=5),
    Message('note_on', channel=8, note=60, velocity=78, time=18),
    Message('note_on', channel=4, note=48, velocity=0, time=164),
    Message('note_on', channel=4, note=55, velocity=0, time=0),
    Message('note_on', channel=1, note=48, velocity=0, time=24),
    Message('note_on', channel=8, note=64, velocity=0, time=14),
    Message('note_on', channel=6, note=55, velocity=0, time=3),
    Message('note_on', channel=13, note=55, velocity=0, time=0),
    Message('note_on', channel=8, note=60, velocity=0, time=2),
    Message('note_on', channel=8, note=55, velocity=0, time=5),
    Message('note_on', channel=1, note=48, velocity=104, time=0),
    Message('note_on', channel=4, note=48, velocity=71, time=0),
    Message('note_on', channel=4, note=55, velocity=71, time=0),
    Message('note_on', channel=6, note=52, velocity=100, time=0),
    Message('note_on', channel=8, note=60, velocity=63, time=0),
    Message('note_on', channel=9, note=42, velocity=80, time=0),
    Message('note_on', channel=13, note=52, velocity=100, time=0),
    Message('note_on', channel=9, note=42, velocity=0, time=5),
    Message('note_on', channel=8, note=55, velocity=63, time=14),
    Message('note_on', channel=8, note=64, velocity=63, time=5),
    Message('note_on', channel=8, note=60, velocity=0, time=138),
    Message('note_on', channel=8, note=64, velocity=0, time=24),
    Message('note_on', channel=8, note=55, velocity=0, time=2),
    Message('note_on', channel=4, note=48, velocity=0, time=4),
    Message('note_on', channel=4, note=55, velocity=0, time=0),
    Message('note_on', channel=1, note=48, velocity=0, time=24),
    Message('note_on', channel=6, note=52, velocity=0, time=17),
    Message('note_on', channel=13, note=52, velocity=0, time=0),
    Message('note_on', channel=1, note=45, velocity=104, time=7),
    Message('note_on', channel=4, note=57, velocity=86, time=0),
    Message('note_on', channel=4, note=48, velocity=86, time=0),
    Message('note_on', channel=6, note=50, velocity=100, time=0),
    Message('note_on', channel=8, note=64, velocity=48, time=0),
    Message('note_on', channel=9, note=54, velocity=50, time=0),
    Message('note_on', channel=9, note=44, velocity=80, time=0),
    Message('note_on', channel=9, note=38, velocity=80, time=0),
    Message('note_on', channel=13, note=50, velocity=100, time=0),
    Message('note_on', channel=9, note=38, velocity=0, time=4),
    Message('note_on', channel=9, note=54, velocity=0, time=0),
    Message('note_on', channel=9, note=44, velocity=0, time=1),
    Message('note_on', channel=8, note=55, velocity=48, time=13),
    Message('note_on', channel=8, note=60, velocity=48, time=5),
    Message('note_on', channel=4, note=57, velocity=0, time=169),
    Message('note_on', channel=4, note=48, velocity=0, time=0),
    Message('note_on', channel=1, note=45, velocity=0, time=24),
    Message('note_on', channel=8, note=64, velocity=0, time=14),
    Message('note_on', channel=13, note=50, velocity=0, time=3),
    Message('note_on', channel=6, note=50, velocity=0, time=0),
    Message('note_on', channel=8, note=55, velocity=0, time=6),
    Message('note_on', channel=8, note=60, velocity=0, time=0),
    Message('note_on', channel=1, note=43, velocity=104, time=1),
    Message('note_on', channel=4, note=55, velocity=70, time=0),
    Message('note_on', channel=4, note=48, velocity=70, time=0),
    Message('note_on', channel=6, note=48, velocity=100, time=0),
    Message('note_on', channel=8, note=60, velocity=70, time=0),
    Message('note_on', channel=9, note=54, velocity=50, time=0),
    Message('note_on', channel=9, note=42, velocity=80, time=0),
    Message('note_on', channel=9, note=38, velocity=120, time=0),
    Message('note_on', channel=13, note=48, velocity=100, time=0),
    Message('note_on', channel=9, note=38, velocity=0, time=4),
    Message('note_on', channel=9, note=54, velocity=0, time=0),
    Message('note_on', channel=9, note=42, velocity=0, time=1),
    Message('note_on', channel=8, note=55, velocity=70, time=14),
    Message('note_on', channel=8, note=64, velocity=70, time=14),
    Message('note_on', channel=4, note=55, velocity=0, time=159),
    Message('note_on', channel=4, note=48, velocity=0, time=0),
    Message('note_on', channel=1, note=43, velocity=0, time=24),
    Message('note_on', channel=8, note=60, velocity=0, time=14),
    Message('note_on', channel=13, note=48, velocity=0, time=3),
    Message('note_on', channel=6, note=48, velocity=0, time=0),
    Message('note_on', channel=8, note=55, velocity=0, time=2),
    Message('note_on', channel=2, note=72, velocity=0, time=5),
    Message('note_on', channel=5, note=55, velocity=0, time=0),
    Message('note_on', channel=5, note=64, velocity=0, time=0),
    Message('note_on', channel=3, note=64, velocity=0, time=0),
    Message('note_on', channel=2, note=76, velocity=0, time=0),
    Message('note_on', channel=2, note=79, velocity=0, time=0),
    Message('note_on', channel=5, note=60, velocity=0, time=0),
    Message('note_on', channel=1, note=45, velocity=104, time=0),
    Message('note_on', channel=2, note=72, velocity=70, time=0),
    Message('note_on', channel=2, note=76, velocity=73, time=0),
    Message('note_on', channel=2, note=81, velocity=68, time=0),
    Message('note_on', channel=4, note=45, velocity=86, time=0),
    Message('note_on', channel=4, note=52, velocity=86, time=0),
    Message('note_on', channel=6, note=45, velocity=100, time=0),
    Message('note_on', channel=8, note=57, velocity=80, time=0),
    Message('note_on', channel=9, note=49, velocity=80, time=0),
    Message('note_on', channel=9, note=36, velocity=120, time=0),
    Message('note_on', channel=13, note=45, velocity=100, time=0),
    Message('note_on', channel=9, note=36, velocity=0, time=4),
    Message('note_on', channel=8, note=64, velocity=0, time=0),
    Message('note_on', channel=9, note=49, velocity=0, time=1),
    Message('note_on', channel=8, note=60, velocity=80, time=11),
    Message('note_on', channel=8, note=64, velocity=80, time=7),
    Message('note_on', channel=9, note=42, velocity=80, time=217),
    Message('note_on', channel=9, note=42, velocity=0, time=5),
    Message('note_on', channel=1, note=45, velocity=0, time=187),
    Message('note_on', channel=8, note=64, velocity=0, time=18),
    Message('control_change', channel=13, control=1, value=48, time=8),
    Message('note_on', channel=8, note=57, velocity=0, time=3),
    Message('note_on', channel=8, note=60, velocity=0, time=16),
    Message('note_on', channel=9, note=44, velocity=80, time=3),
    Message('note_on', channel=9, note=54, velocity=50, time=0),
    Message('note_on', channel=9, note=38, velocity=120, time=0),
    Message('note_on', channel=9, note=38, velocity=0, time=4),
    Message('note_on', channel=9, note=54, velocity=0, time=0),
    Message('note_on', channel=9, note=44, velocity=0, time=1),
    Message('note_on', channel=8, note=57, velocity=59, time=4),
    Message('note_on', channel=8, note=60, velocity=59, time=6),
    Message('note_on', channel=8, note=64, velocity=59, time=4),
    Message('note_on', channel=8, note=57, velocity=0, time=187),
    Message('note_on', channel=4, note=52, velocity=0, time=12),
    Message('note_on', channel=4, note=45, velocity=0, time=0),
    Message('note_on', channel=8, note=60, velocity=0, time=1),
    Message('note_on', channel=8, note=64, velocity=0, time=4),
    Message('note_on', channel=1, note=45, velocity=104, time=17),
    Message('note_on', channel=4, note=45, velocity=72, time=0),
    Message('note_on', channel=4, note=52, velocity=72, time=0),
    Message('note_on', channel=8, note=60, velocity=50, time=0),
    Message('note_on', channel=8, note=57, velocity=50, time=0),
    Message('note_on', channel=8, note=64, velocity=50, time=0),
    Message('note_on', channel=9, note=42, velocity=80, time=0),
    Message('note_on', channel=9, note=36, velocity=120, time=0),
    Message('note_on', channel=9, note=42, velocity=0, time=5),
    Message('note_on', channel=9, note=36, velocity=0, time=11),
    Message('note_on', channel=8, note=60, velocity=0, time=68),
    Message('note_on', channel=8, note=64, velocity=0, time=0),
    Message('note_on', channel=8, note=57, velocity=0, time=7),
    Message('control_change', channel=13, control=1, value=79, time=57),
    Message('note_on', channel=4, note=45, velocity=0, time=44),
    Message('note_on', channel=4, note=52, velocity=0, time=0),
    Message('note_on', channel=1, note=45, velocity=0, time=24),
    Message('note_on', channel=1, note=45, velocity=104, time=24),
    Message('note_on', channel=3, note=64, velocity=100, time=0),
    Message('note_on', channel=4, note=45, velocity=80, time=0),
    Message('note_on', channel=4, note=52, velocity=80, time=0),
    Message('note_on', channel=8, note=64, velocity=78, time=0),
    Message('note_on', channel=9, note=36, velocity=120, time=0),
    Message('note_on', channel=9, note=44, velocity=80, time=0),
    MetaMessage('lyrics', text='mu', time=0),
    Message('note_on', channel=9, note=36, velocity=0, time=4),
    Message('note_on', channel=9, note=44, velocity=0, time=1),
    Message('note_on', channel=8, note=57, velocity=78, time=5),
    Message('note_on', channel=8, note=60, velocity=78, time=18),
    Message('note_on', channel=4, note=52, velocity=0, time=164),
    Message('note_on', channel=4, note=45, velocity=0, time=0),
    Message('note_on', channel=8, note=64, velocity=0, time=38),
    Message('note_on', channel=8, note=60, velocity=0, time=5),
    Message('note_on', channel=3, note=64, velocity=0, time=5),
    Message('note_on', channel=8, note=57, velocity=0, time=0),
    Message('note_on', channel=3, note=64, velocity=100, time=0),
    Message('note_on', channel=4, note=52, velocity=71, time=0),
    Message('note_on', channel=4, note=45, velocity=71, time=0),
    Message('note_on', channel=8, note=60, velocity=63, time=0),
    Message('note_on', channel=9, note=42, velocity=80, time=0),
    MetaMessage('lyrics', text='ddy ', time=0),
    Message('note_on', channel=9, note=42, velocity=0, time=5),
    Message('note_on', channel=8, note=57, velocity=63, time=14),
    Message('note_on', channel=8, note=64, velocity=63, time=5),
    Message('note_on', channel=8, note=60, velocity=0, time=138),
    Message('note_on', channel=8, note=64, velocity=0, time=24),
    Message('note_on', channel=8, note=57, velocity=0, time=2),
    Message('note_on', channel=4, note=45, velocity=0, time=4),
    Message('note_on', channel=1, note=45, velocity=0, time=0),
    Message('note_on', channel=4, note=52, velocity=0, time=0),
    Message('pitchwheel', channel=6, pitch=-8192, time=33),
    Message('control_change', channel=13, control=1, value=0, time=0),
    Message('pitchwheel', channel=13, pitch=-8192, time=0),
    Message('note_on', channel=6, note=45, velocity=0, time=7),
    Message('note_on', channel=13, note=45, velocity=0, time=0),
    Message('note_on', channel=1, note=45, velocity=104, time=8),
    Message('note_on', channel=4, note=45, velocity=86, time=0),
    Message('note_on', channel=4, note=52, velocity=86, time=0),
    Message('note_on', channel=6, note=57, velocity=100, time=0),
    Message('note_on', channel=8, note=64, velocity=48, time=0),
    Message('note_on', channel=9, note=44, velocity=80, time=0),
    Message('note_on', channel=9, note=54, velocity=50, time=0),
    Message('note_on', channel=9, note=38, velocity=120, time=0),
    Message('note_on', channel=13, note=57, velocity=100, time=0),
    Message('note_on', channel=9, note=38, velocity=0, time=4),
    Message('note_on', channel=9, note=54, velocity=0, time=0),
    Message('note_on', channel=9, note=44, velocity=0, time=1),
    Message('note_on', channel=8, note=57, velocity=48, time=13),
    Message('note_on', channel=8, note=60, velocity=48, time=5),
    Message('pitchwheel', channel=6, pitch=-8064, time=118),
    Message('pitchwheel', channel=13, pitch=-8064, time=0),
    Message('pitchwheel', channel=6, pitch=-7552, time=7),
    Message('pitchwheel', channel=13, pitch=-7552, time=0),
    Message('pitchwheel', channel=6, pitch=-6912, time=7),
    Message('pitchwheel', channel=13, pitch=-6912, time=0),
    Message('pitchwheel', channel=6, pitch=-6400, time=7),
    Message('pitchwheel', channel=13, pitch=-6400, time=0),
    Message('pitchwheel', channel=6, pitch=-5760, time=7),
    Message('pitchwheel', channel=13, pitch=-5760, time=0),
    Message('pitchwheel', channel=6, pitch=-5248, time=7),
    Message('pitchwheel', channel=13, pitch=-5248, time=0),
    Message('pitchwheel', channel=6, pitch=-4608, time=7),
    Message('pitchwheel', channel=13, pitch=-4608, time=0),
    Message('pitchwheel', channel=6, pitch=-4096, time=7),
    Message('pitchwheel', channel=13, pitch=-4096, time=0),
    Message('note_on', channel=4, note=52, velocity=0, time=2),
    Message('note_on', channel=4, note=45, velocity=0, time=0),
    Message('pitchwheel', channel=6, pitch=-3456, time=5),
    Message('pitchwheel', channel=13, pitch=-3456, time=0),
    Message('pitchwheel', channel=6, pitch=-2944, time=7),
    Message('pitchwheel', channel=13, pitch=-2944, time=0),
    Message('pitchwheel', channel=6, pitch=-2304, time=7),
    Message('pitchwheel', channel=13, pitch=-2304, time=0),
    Message('pitchwheel', channel=6, pitch=-1792, time=7),
    Message('pitchwheel', channel=13, pitch=-1792, time=0),
    Message('pitchwheel', channel=6, pitch=-1152, time=7),
    Message('pitchwheel', channel=13, pitch=-1152, time=0),
    Message('note_on', channel=8, note=64, velocity=0, time=5),
    Message('pitchwheel', channel=6, pitch=-640, time=2),
    Message('pitchwheel', channel=13, pitch=-640, time=0),
    Message('note_on', channel=8, note=57, velocity=0, time=7),
    Message('note_on', channel=8, note=60, velocity=0, time=0),
    Message('note_on', channel=3, note=64, velocity=0, time=1),
    Message('note_on', channel=3, note=62, velocity=100, time=0),
    Message('note_on', channel=4, note=45, velocity=70, time=0),
    Message('note_on', channel=4, note=48, velocity=70, time=0),
    Message('pitchwheel', channel=6, pitch=0, time=0),
    Message('note_on', channel=8, note=60, velocity=70, time=0),
    Message('note_on', channel=9, note=42, velocity=80, time=0),
    Message('pitchwheel', channel=13, pitch=0, time=0),
    MetaMessage('lyrics', text='ri', time=0),
    Message('note_on', channel=9, note=42, velocity=0, time=5),
    Message('note_on', channel=8, note=57, velocity=70, time=14),
    Message('note_on', channel=8, note=64, velocity=70, time=14),
    Message('note_on', channel=4, note=48, velocity=0, time=159),
    Message('note_on', channel=1, note=45, velocity=0, time=0),
    Message('note_on', channel=4, note=45, velocity=0, time=0),
    Message('note_on', channel=6, note=57, velocity=0, time=33),
    Message('note_on', channel=13, note=57, velocity=0, time=0),
    Message('note_on', channel=8, note=60, velocity=0, time=5),
    Message('note_on', channel=8, note=57, velocity=0, time=5),
    Message('note_on', channel=2, note=72, velocity=0, time=5),
    Message('note_on', channel=2, note=76, velocity=0, time=0),
    Message('note_on', channel=1, note=38, velocity=104, time=0),
    Message('note_on', channel=2, note=74, velocity=73, time=0),
    Message('note_on', channel=2, note=78, velocity=49, time=0),
    Message('note_on', channel=4, note=50, velocity=86, time=0),
    Message('note_on', channel=4, note=45, velocity=86, time=0),
    Message('note_on', channel=6, note=50, velocity=100, time=0),
    Message('note_on', channel=6, note=57, velocity=100, time=0),
    Message('note_on', channel=8, note=57, velocity=80, time=0),
    Message('note_on', channel=9, note=36, velocity=120, time=0),
    Message('note_on', channel=9, note=44, velocity=80, time=0),
    Message('note_on', channel=13, note=50, velocity=100, time=0),
    Message('note_on', channel=13, note=57, velocity=100, time=0),
    Message('note_on', channel=9, note=36, velocity=0, time=4),
    Message('note_on', channel=8, note=64, velocity=0, time=0),
    Message('note_on', channel=9, note=44, velocity=0, time=1),
    Message('note_on', channel=8, note=62, velocity=80, time=11),
    Message('note_on', channel=8, note=66, velocity=80, time=7),
    Message('note_on', channel=3, note=62, velocity=0, time=217),
    Message('note_on', channel=3, note=62, velocity=100, time=0),
    Message('note_on', channel=9, note=42, velocity=80, time=0),
    MetaMessage('lyrics', text='ver, ', time=0),
    Message('note_on', channel=9, note=42, velocity=0, time=5),
    Message('note_on', channel=1, note=38, velocity=0, time=187),
    Message('note_on', channel=8, note=66, velocity=0, time=18),
    Message('note_on', channel=8, note=57, velocity=0, time=11),
    Message('note_on', channel=8, note=62, velocity=0, time=16),
    Message('note_on', channel=9, note=54, velocity=50, time=3),
    Message('note_on', channel=9, note=44, velocity=80, time=0),
    Message('note_on', channel=9, note=38, velocity=120, time=0),
    Message('note_on', channel=9, note=38, velocity=0, time=4),
    Message('note_on', channel=9, note=54, velocity=0, time=0),
    Message('note_on', channel=9, note=44, velocity=0, time=1),
    Message('note_on', channel=8, note=57, velocity=59, time=4),
    Message('note_on', channel=8, note=62, velocity=59, time=6),
    Message('note_on', channel=8, note=66, velocity=59, time=4),
    Message('control_change', channel=13, control=1, value=54, time=101),
    Message('note_on', channel=8, note=57, velocity=0, time=86),
    Message('note_on', channel=4, note=45, velocity=0, time=12),
    Message('note_on', channel=4, note=50, velocity=0, time=0),
    Message('note_on', channel=8, note=62, velocity=0, time=1),
    Message('note_on', channel=8, note=66, velocity=0, time=4),
    Message('note_on', channel=1, note=38, velocity=104, time=17),
    Message('note_on', channel=3, note=69, velocity=100, time=0),
    Message('note_on', channel=4, note=45, velocity=72, time=0),
    Message('note_on', channel=4, note=50, velocity=72, time=0),
    Message('note_on', channel=8, note=57, velocity=50, time=0),
    Message('note_on', channel=8, note=62, velocity=50, time=0),
    Message('note_on', channel=8, note=66, velocity=50, time=0),
    Message('note_on', channel=9, note=42, velocity=80, time=0),
    Message('note_on', channel=9, note=36, velocity=120, time=0),
    MetaMessage('lyrics', text='runs ', time=0),
    Message('note_on', channel=9, note=42, velocity=0, time=5),
    Message('note_on', channel=9, note=36, velocity=0, time=11),
    Message('note_on', channel=8, note=66, velocity=0, time=68),
    Message('note_on', channel=8, note=62, velocity=0, time=0),
    Message('note_on', channel=8, note=57, velocity=0, time=7),
    Message('note_on', channel=3, note=62, velocity=0, time=29),
    Message('note_on', channel=4, note=45, velocity=0, time=72),
    Message('note_on', channel=4, note=50, velocity=0, time=0),
    Message('note_on', channel=1, note=38, velocity=0, time=24),
    Message('note_on', channel=1, note=38, velocity=104, time=24),
    Message('note_on', channel=4, note=45, velocity=80, time=0),
    Message('note_on', channel=4, note=50, velocity=80, time=0),
    Message('note_on', channel=8, note=66, velocity=78, time=0),
    Message('note_on', channel=9, note=36, velocity=120, time=0),
    Message('note_on', channel=9, note=44, velocity=80, time=0),
    Message('note_on', channel=9, note=36, velocity=0, time=4),
    Message('note_on', channel=9, note=44, velocity=0, time=1),
    Message('note_on', channel=8, note=57, velocity=78, time=5),
    Message('note_on', channel=8, note=62, velocity=78, time=18),
    Message('control_change', channel=13, control=1, value=76, time=77),
    Message('note_on', channel=4, note=45, velocity=0, time=87),
    Message('note_on', channel=4, note=50, velocity=0, time=0),
    Message('note_on', channel=1, note=38, velocity=0, time=24),
    Message('note_on', channel=8, note=66, velocity=0, time=14),
    Message('note_on', channel=8, note=62, velocity=0, time=5),
    Message('note_on', channel=3, note=69, velocity=0, time=5),
    Message('note_on', channel=8, note=57, velocity=0, time=0),
    Message('note_on', channel=1, note=38, velocity=104, time=0),
    Message('note_on', channel=3, note=71, velocity=100, time=0),
    Message('note_on', channel=4, note=45, velocity=71, time=0),
    Message('note_on', channel=4, note=50, velocity=71, time=0),
    Message('note_on', channel=8, note=62, velocity=63, time=0),
    Message('note_on', channel=9, note=42, velocity=80, time=0),
    MetaMessage('lyrics', text='so ', time=0),
    Message('note_on', channel=9, note=42, velocity=0, time=5),
    Message('note_on', channel=8, note=57, velocity=63, time=14),
    Message('note_on', channel=8, note=66, velocity=63, time=5),
    Message('note_on', channel=3, note=71, velocity=0, time=96),
    Message('note_on', channel=3, note=69, velocity=100, time=0),
    MetaMessage('lyrics', text='de', time=0),
    Message('note_on', channel=8, note=62, velocity=0, time=42),
    Message('note_on', channel=8, note=66, velocity=0, time=24),
    Message('note_on', channel=8, note=57, velocity=0, time=2),
    Message('note_on', channel=4, note=50, velocity=0, time=4),
    Message('note_on', channel=4, note=45, velocity=0, time=0),
    Message('note_on', channel=1, note=38, velocity=0, time=24),
    Message('note_on', channel=3, note=69, velocity=0, time=24),
    Message('note_on', channel=1, note=41, velocity=104, time=0),
    Message('note_on', channel=3, note=67, velocity=100, time=0),
    Message('note_on', channel=4, note=50, velocity=86, time=0),
    Message('note_on', channel=4, note=47, velocity=86, time=0),
    Message('note_on', channel=8, note=66, velocity=48, time=0),
    Message('note_on', channel=9, note=54, velocity=50, time=0),
    Message('note_on', channel=9, note=44, velocity=80, time=0),
    Message('note_on', channel=9, note=38, velocity=120, time=0),
    MetaMessage('lyrics', text='e', time=0),
    Message('note_on', channel=9, note=38, velocity=0, time=4),
    Message('note_on', channel=9, note=54, velocity=0, time=0),
    Message('note_on', channel=9, note=44, velocity=0, time=1),
    Message('note_on', channel=13, note=50, velocity=0, time=2),
    Message('note_on', channel=13, note=57, velocity=0, time=0),
    Message('note_on', channel=6, note=57, velocity=0, time=0),
    Message('note_on', channel=6, note=50, velocity=0, time=0),
    Message('control_change', channel=13, control=1, value=0, time=0),
    Message('note_on', channel=8, note=57, velocity=48, time=11),
    Message('note_on', channel=8, note=62, velocity=48, time=5),
    Message('note_on', channel=4, note=50, velocity=0, time=169),
    Message('note_on', channel=4, note=47, velocity=0, time=0),
    Message('pitchwheel', channel=6, pitch=-8192, time=19),
    Message('pitchwheel', channel=13, pitch=-8192, time=0),
    Message('note_on', channel=1, note=41, velocity=0, time=5),
    Message('note_on', channel=8, note=66, velocity=0, time=14),
    Message('note_on', channel=8, note=57, velocity=0, time=9),
    Message('note_on', channel=8, note=62, velocity=0, time=0),
    Message('note_on', channel=3, note=67, velocity=0, time=1),
    Message('note_on', channel=1, note=41, velocity=104, time=0),
    Message('note_on', channel=3, note=67, velocity=100, time=0),
    Message('note_on', channel=4, note=45, velocity=70, time=0),
    Message('note_on', channel=4, note=50, velocity=70, time=0),
    Message('note_on', channel=8, note=62, velocity=70, time=0),
    Message('note_on', channel=9, note=42, velocity=80, time=0),
    Message('note_on', channel=9, note=42, velocity=0, time=5),
    Message('note_on', channel=6, note=59, velocity=100, time=2),
    Message('note_on', channel=13, note=59, velocity=100, time=0),
    Message('note_on', channel=8, note=57, velocity=70, time=12),
    Message('note_on', channel=8, note=66, velocity=70, time=14),
    Message('pitchwheel', channel=6, pitch=-8192, time=136),
    Message('pitchwheel', channel=13, pitch=-8192, time=0),
    Message('pitchwheel', channel=6, pitch=-7680, time=7),
    Message('pitchwheel', channel=13, pitch=-7680, time=0),
    Message('pitchwheel', channel=6, pitch=-7168, time=7),
    Message('pitchwheel', channel=13, pitch=-7168, time=0),
    Message('pitchwheel', channel=6, pitch=-6656, time=7),
    Message('pitchwheel', channel=13, pitch=-6656, time=0),
    Message('note_on', channel=4, note=50, velocity=0, time=2),
    Message('note_on', channel=4, note=45, velocity=0, time=0),
    Message('pitchwheel', channel=6, pitch=-6016, time=5),
    Message('pitchwheel', channel=13, pitch=-6016, time=0),
    Message('pitchwheel', channel=6, pitch=-5504, time=7),
    Message('pitchwheel', channel=13, pitch=-5504, time=0),
    Message('pitchwheel', channel=6, pitch=-4992, time=7),
    Message('pitchwheel', channel=13, pitch=-4992, time=0),
    Message('note_on', channel=1, note=41, velocity=0, time=5),
    Message('pitchwheel', channel=6, pitch=-4480, time=2),
    Message('pitchwheel', channel=13, pitch=-4480, time=0),
    Message('pitchwheel', channel=6, pitch=-3840, time=7),
    Message('pitchwheel', channel=13, pitch=-3840, time=0),
    Message('note_on', channel=8, note=62, velocity=0, time=5),
    Message('pitchwheel', channel=6, pitch=-3328, time=2),
    Message('pitchwheel', channel=13, pitch=-3328, time=0),
    Message('note_on', channel=8, note=57, velocity=0, time=3),
    Message('note_on', channel=2, note=81, velocity=0, time=5),
    Message('note_on', channel=2, note=78, velocity=0, time=0),
    Message('note_on', channel=1, note=43, velocity=104, time=0),
    Message('note_on', channel=2, note=71, velocity=62, time=0),
    Message('note_on', channel=2, note=79, velocity=73, time=0),
    Message('note_on', channel=4, note=50, velocity=86, time=0),
    Message('note_on', channel=4, note=43, velocity=86, time=0),
    Message('pitchwheel', channel=6, pitch=-2816, time=0),
    Message('note_on', channel=8, note=55, velocity=80, time=0),
    Message('note_on', channel=9, note=36, velocity=120, time=0),
    Message('note_on', channel=9, note=44, velocity=80, time=0),
    Message('pitchwheel', channel=13, pitch=-2816, time=0),
    Message('note_on', channel=9, note=36, velocity=0, time=4),
    Message('note_on', channel=8, note=66, velocity=0, time=0),
    Message('note_on', channel=9, note=44, velocity=0, time=1),
    Message('pitchwheel', channel=6, pitch=-2304, time=2),
    Message('pitchwheel', channel=13, pitch=-2304, time=0),
    Message('pitchwheel', channel=6, pitch=-1664, time=7),
    Message('pitchwheel', channel=13, pitch=-1664, time=0),
    Message('note_on', channel=8, note=59, velocity=80, time=2),
    Message('pitchwheel', channel=6, pitch=-1152, time=5),
    Message('pitchwheel', channel=13, pitch=-1152, time=0),
    Message('note_on', channel=8, note=62, velocity=80, time=2),
    Message('pitchwheel', channel=6, pitch=-640, time=5),
    Message('pitchwheel', channel=13, pitch=-640, time=0),
    Message('pitchwheel', channel=6, pitch=0, time=7),
    Message('pitchwheel', channel=13, pitch=0, time=0),
    Message('note_on', channel=9, note=42, velocity=80, time=205),
    Message('note_on', channel=9, note=42, velocity=0, time=5),
    Message('note_on', channel=6, note=59, velocity=0, time=2),
    Message('note_on', channel=13, note=59, velocity=0, time=0),
    Message('note_on', channel=6, note=67, velocity=100, time=28),
    Message('note_on', channel=13, note=67, velocity=100, time=0),
    Message('note_on', channel=1, note=43, velocity=0, time=157),
    Message('control_change', channel=13, control=1, value=94, time=12),
    Message('note_on', channel=8, note=62, velocity=0, time=6),
    Message('note_on', channel=8, note=55, velocity=0, time=11),
    Message('note_on', channel=8, note=59, velocity=0, time=16),
    Message('note_on', channel=9, note=44, velocity=80, time=3),
    Message('note_on', channel=9, note=54, velocity=50, time=0),
    Message('note_on', channel=9, note=38, velocity=120, time=0),
    Message('note_on', channel=9, note=38, velocity=0, time=4),
    Message('note_on', channel=9, note=54, velocity=0, time=0),
    Message('note_on', channel=9, note=44, velocity=0, time=1),
    Message('note_on', channel=8, note=55, velocity=59, time=4),
    Message('note_on', channel=8, note=59, velocity=59, time=6),
    Message('note_on', channel=8, note=62, velocity=59, time=4),
    Message('control_change', channel=13, control=1, value=0, time=164),
    Message('note_on', channel=8, note=55, velocity=0, time=23),
    Message('note_on', channel=4, note=50, velocity=0, time=12),
    Message('note_on', channel=4, note=43, velocity=0, time=0),
    Message('note_on', channel=8, note=59, velocity=0, time=1),
    Message('note_on', channel=8, note=62, velocity=0, time=4),
    Message('pitchwheel', channel=6, pitch=-4096, time=2),
    Message('pitchwheel', channel=13, pitch=-4096, time=0),
    Message('note_on', channel=6, note=67, velocity=0, time=7),
    Message('note_on', channel=13, note=67, velocity=0, time=0),
    Message('note_on', channel=1, note=43, velocity=104, time=8),
    Message('note_on', channel=4, note=43, velocity=72, time=0),
    Message('note_on', channel=4, note=50, velocity=72, time=0),
    Message('note_on', channel=8, note=59, velocity=50, time=0),
    Message('note_on', channel=8, note=62, velocity=50, time=0),
    Message('note_on', channel=8, note=55, velocity=50, time=0),
    Message('note_on', channel=9, note=42, velocity=80, time=0),
    Message('note_on', channel=9, note=42, velocity=0, time=5),
    Message('note_on', channel=6, note=60, velocity=100, time=2),
    Message('note_on', channel=13, note=60, velocity=100, time=0),
    Message('note_on', channel=8, note=62, velocity=0, time=77),
    Message('note_on', channel=8, note=59, velocity=0, time=0),
    Message('note_on', channel=8, note=55, velocity=0, time=7),
    Message('note_on', channel=4, note=50, velocity=0, time=101),
    Message('note_on', channel=4, note=43, velocity=0, time=0),
    Message('pitchwheel', channel=6, pitch=-3968, time=12),
    Message('pitchwheel', channel=13, pitch=-3968, time=0),
    Message('pitchwheel', channel=6, pitch=-3712, time=7),
    Message('pitchwheel', channel=13, pitch=-3712, time=0),
    Message('note_on', channel=1, note=43, velocity=0, time=5),
    Message('pitchwheel', channel=6, pitch=-3328, time=2),
    Message('pitchwheel', channel=13, pitch=-3328, time=0),
    Message('pitchwheel', channel=6, pitch=-2944, time=7),
    Message('pitchwheel', channel=13, pitch=-2944, time=0),
    Message('pitchwheel', channel=6, pitch=-2560, time=7),
    Message('pitchwheel', channel=13, pitch=-2560, time=0),
    Message('note_on', channel=3, note=67, velocity=0, time=8),
    Message('note_on', channel=1, note=43, velocity=104, time=0),
    Message('note_on', channel=3, note=62, velocity=100, time=0),
    Message('note_on', channel=4, note=50, velocity=80, time=0),
    Message('note_on', channel=4, note=43, velocity=80, time=0),
    Message('pitchwheel', channel=6, pitch=-2176, time=0),
    Message('note_on', channel=8, note=62, velocity=78, time=0),
    Message('note_on', channel=9, note=44, velocity=80, time=0),
    Message('note_on', channel=9, note=36, velocity=120, time=0),
    Message('pitchwheel', channel=13, pitch=-2176, time=0),
    MetaMessage('lyrics', text='p. ', time=0),
    MetaMessage('lyrics', text='\r', time=0),
    MetaMessage('lyrics', text='\n', time=0),
    Message('note_on', channel=9, note=36, velocity=0, time=4),
    Message('note_on', channel=9, note=44, velocity=0, time=1),
    Message('pitchwheel', channel=6, pitch=-1920, time=2),
    Message('pitchwheel', channel=13, pitch=-1920, time=0),
    Message('note_on', channel=8, note=55, velocity=78, time=3),
    Message('pitchwheel', channel=6, pitch=-1536, time=4),
    Message('pitchwheel', channel=13, pitch=-1536, time=0),
    Message('pitchwheel', channel=6, pitch=-1152, time=7),
    Message('pitchwheel', channel=13, pitch=-1152, time=0),
    Message('pitchwheel', channel=6, pitch=-768, time=7),
    Message('note_on', channel=8, note=59, velocity=78, time=0),
    Message('pitchwheel', channel=13, pitch=-768, time=0),
    Message('pitchwheel', channel=6, pitch=-384, time=7),
    Message('pitchwheel', channel=13, pitch=-384, time=0),
    Message('pitchwheel', channel=6, pitch=0, time=7),
    Message('pitchwheel', channel=13, pitch=0, time=0),
    Message('note_on', channel=4, note=43, velocity=0, time=150),
    Message('note_on', channel=4, note=50, velocity=0, time=0),
    Message('note_on', channel=1, note=43, velocity=0, time=24),
    Message('note_on', channel=8, note=62, velocity=0, time=14),
    Message('note_on', channel=8, note=59, velocity=0, time=5),
    Message('note_on', channel=8, note=55, velocity=0, time=5),
    Message('note_on', channel=1, note=43, velocity=104, time=0),
    Message('note_on', channel=4, note=50, velocity=71, time=0),
    Message('note_on', channel=4, note=43, velocity=71, time=0),
    Message('note_on', channel=6, note=69, velocity=100, time=0),
    Message('note_on', channel=8, note=59, velocity=63, time=0),
    Message('note_on', channel=9, note=42, velocity=80, time=0),
    Message('note_on', channel=13, note=69, velocity=100, time=0),
    Message('note_on', channel=9, note=42, velocity=0, time=5),
    Message('note_on', channel=6, note=60, velocity=0, time=2),
    Message('note_on', channel=13, note=60, velocity=0, time=0),
    Message('note_on', channel=8, note=55, velocity=63, time=12),
    Message('note_on', channel=8, note=62, velocity=63, time=5),
    Message('note_on', channel=8, note=59, velocity=0, time=138),
    Message('control_change', channel=13, control=1, value=90, time=14),
    Message('note_on', channel=8, note=62, velocity=0, time=10),
    Message('note_on', channel=8, note=55, velocity=0, time=2),
    Message('note_on', channel=4, note=43, velocity=0, time=4),
    Message('note_on', channel=4, note=50, velocity=0, time=0),
    Message('note_on', channel=1, note=43, velocity=0, time=24),
    Message('note_on', channel=4, note=45, velocity=86, time=24),
    Message('note_on', channel=4, note=50, velocity=86, time=0),
    Message('note_on', channel=8, note=62, velocity=48, time=0),
    Message('note_on', channel=9, note=44, velocity=80, time=0),
    Message('note_on', channel=9, note=54, velocity=50, time=0),
    Message('note_on', channel=9, note=38, velocity=80, time=0),
    Message('note_on', channel=9, note=38, velocity=0, time=4),
    Message('note_on', channel=9, note=54, velocity=0, time=0),
    Message('note_on', channel=9, note=44, velocity=0, time=1),
    Message('note_on', channel=8, note=55, velocity=48, time=13),
    Message('note_on', channel=8, note=59, velocity=48, time=5),
    Message('note_on', channel=4, note=45, velocity=0, time=169),
    Message('note_on', channel=4, note=50, velocity=0, time=0),
    Message('note_on', channel=6, note=69, velocity=0, time=12),
    Message('note_on', channel=13, note=69, velocity=0, time=0),
    Message('control_change', channel=13, control=1, value=0, time=7),
    Message('note_on', channel=8, note=62, velocity=0, time=19),
    Message('pitchwheel', channel=6, pitch=-8192, time=2),
    Message('pitchwheel', channel=13, pitch=-8192, time=0),
    Message('note_on', channel=8, note=55, velocity=0, time=7),
    Message('note_on', channel=8, note=59, velocity=0, time=0),
    Message('note_on', channel=1, note=43, velocity=104, time=1),
    Message('note_on', channel=4, note=43, velocity=70, time=0),
    Message('note_on', channel=4, note=50, velocity=70, time=0),
    Message('note_on', channel=8, note=59, velocity=70, time=0),
    Message('note_on', channel=9, note=42, velocity=80, time=0),
    Message('note_on', channel=9, note=54, velocity=50, time=0),
    Message('note_on', channel=9, note=38, velocity=88, time=0),
    Message('note_on', channel=9, note=38, velocity=0, time=5),
    Message('note_on', channel=9, note=54, velocity=0, time=0),
    Message('note_on', channel=9, note=42, velocity=0, time=0),
    Message('note_on', channel=6, note=62, velocity=100, time=2),
    Message('note_on', channel=13, note=62, velocity=100, time=0),
    Message('note_on', channel=8, note=55, velocity=70, time=12),
    Message('note_on', channel=8, note=62, velocity=70, time=14),
    Message('pitchwheel', channel=6, pitch=-8064, time=72),
    Message('pitchwheel', channel=13, pitch=-8064, time=0),
    Message('pitchwheel', channel=6, pitch=-7168, time=7),
    Message('pitchwheel', channel=13, pitch=-7168, time=0),
    Message('pitchwheel', channel=6, pitch=-6272, time=8),
    Message('pitchwheel', channel=13, pitch=-6272, time=0),
    Message('pitchwheel', channel=6, pitch=-5376, time=7),
    Message('pitchwheel', channel=13, pitch=-5376, time=0),
    Message('pitchwheel', channel=6, pitch=-4480, time=7),
    Message('pitchwheel', channel=13, pitch=-4480, time=0),
    Message('pitchwheel', channel=6, pitch=-3584, time=7),
    Message('pitchwheel', channel=13, pitch=-3584, time=0),
    Message('pitchwheel', channel=6, pitch=-2688, time=7),
    Message('pitchwheel', channel=13, pitch=-2688, time=0),
    Message('pitchwheel', channel=6, pitch=-1792, time=7),
    Message('pitchwheel', channel=13, pitch=-1792, time=0),
    Message('pitchwheel', channel=6, pitch=-896, time=7),
    Message('pitchwheel', channel=13, pitch=-896, time=0),
    Message('pitchwheel', channel=6, pitch=0, time=7),
    Message('pitchwheel', channel=13, pitch=0, time=0),
    Message('note_on', channel=4, note=50, velocity=0, time=23),
    Message('note_on', channel=4, note=43, velocity=0, time=0),
    Message('note_on', channel=1, note=43, velocity=0, time=24),
    Message('note_on', channel=8, note=59, velocity=0, time=14),
    Message('note_on', channel=8, note=55, velocity=0, time=5),
    Message('note_on', channel=3, note=62, velocity=0, time=5),
    Message('note_on', channel=6, note=62, velocity=0, time=0),
    Message('note_on', channel=13, note=62, velocity=0, time=0),
    Message('note_on', channel=1, note=43, velocity=104, time=0),
    Message('note_on', channel=4, note=43, velocity=86, time=0),
    Message('note_on', channel=4, note=50, velocity=86, time=0),
    Message('note_on', channel=6, note=71, velocity=100, time=0),
    Message('note_on', channel=8, note=55, velocity=80, time=0),
    Message('note_on', channel=9, note=36, velocity=120, time=0),
    Message('note_on', channel=9, note=54, velocity=50, time=0),
    Message('note_on', channel=9, note=44, velocity=80, time=0),
    Message('note_on', channel=9, note=38, velocity=96, time=0),
    Message('note_on', channel=13, note=71, velocity=100, time=0),
    Message('note_on', channel=9, note=36, velocity=0, time=4),
    Message('note_on', channel=8, note=62, velocity=0, time=0),
    Message('note_on', channel=9, note=54, velocity=0, time=1),
    Message('note_on', channel=9, note=38, velocity=0, time=0),
    Message('note_on', channel=9, note=44, velocity=0, time=0),
    Message('note_on', channel=8, note=59, velocity=80, time=11),
    Message('note_on', channel=8, note=62, velocity=80, time=7),
    Message('note_on', channel=1, note=43, velocity=0, time=193),
    Message('note_on', channel=1, note=43, velocity=104, time=24),
    Message('note_on', channel=9, note=42, velocity=80, time=0),
    Message('note_on', channel=9, note=54, velocity=50, time=0),
    Message('note_on', channel=9, note=38, velocity=104, time=0),
    Message('note_on', channel=9, note=38, velocity=0, time=5),
    Message('note_on', channel=9, note=54, velocity=0, time=0),
    Message('note_on', channel=9, note=42, velocity=0, time=0),
    Message('note_on', channel=6, note=60, velocity=100, time=9),
    Message('note_on', channel=13, note=60, velocity=100, time=0),
    Message('note_on', channel=13, note=71, velocity=0, time=14),
    Message('note_on', channel=6, note=71, velocity=0, time=0),
    Message('note_on', channel=8, note=62, velocity=0, time=182),
    Message('note_on', channel=1, note=43, velocity=0, time=6),
    Message('note_on', channel=8, note=55, velocity=0, time=5),
    Message('note_on', channel=8, note=59, velocity=0, time=16),
    Message('note_on', channel=1, note=43, velocity=104, time=3),
    Message('note_on', channel=9, note=44, velocity=80, time=0),
    Message('note_on', channel=9, note=54, velocity=50, time=0),
    Message('note_on', channel=9, note=38, velocity=112, time=0),
    Message('note_on', channel=9, note=38, velocity=0, time=4),
    Message('note_on', channel=9, note=54, velocity=0, time=0),
    Message('note_on', channel=9, note=44, velocity=0, time=1),
    Message('note_on', channel=6, note=60, velocity=0, time=2),
    Message('note_on', channel=13, note=60, velocity=0, time=0),
    Message('note_on', channel=8, note=55, velocity=59, time=2),
    Message('note_on', channel=6, note=69, velocity=100, time=5),
    Message('note_on', channel=13, note=69, velocity=100, time=0),
    Message('note_on', channel=8, note=59, velocity=59, time=1),
    Message('note_on', channel=8, note=62, velocity=59, time=4),
    Message('note_on', channel=8, note=55, velocity=0, time=187),
    Message('note_on', channel=1, note=43, velocity=0, time=10),
    Message('note_on', channel=4, note=50, velocity=0, time=2),
    Message('note_on', channel=4, note=43, velocity=0, time=0),
    Message('note_on', channel=8, note=59, velocity=0, time=1),
    Message('note_on', channel=8, note=62, velocity=0, time=4),
    Message('note_on', channel=1, note=43, velocity=104, time=17),
    Message('note_on', channel=4, note=50, velocity=72, time=0),
    Message('note_on', channel=4, note=43, velocity=72, time=0),
    Message('note_on', channel=6, note=59, velocity=100, time=0),
    Message('note_on', channel=8, note=59, velocity=50, time=0),
    Message('note_on', channel=8, note=62, velocity=50, time=0),
    Message('note_on', channel=8, note=55, velocity=50, time=0),
    Message('note_on', channel=9, note=42, velocity=80, time=0),
    Message('note_on', channel=9, note=54, velocity=50, time=0),
    Message('note_on', channel=9, note=38, velocity=120, time=0),
    Message('note_on', channel=13, note=59, velocity=100, time=0),
    Message('note_on', channel=9, note=38, velocity=0, time=5),
    Message('note_on', channel=9, note=54, velocity=0, time=0),
    Message('note_on', channel=9, note=42, velocity=0, time=0),
    Message('note_on', channel=6, note=69, velocity=0, time=2),
    Message('note_on', channel=13, note=69, velocity=0, time=0),
    Message('note_on', channel=8, note=62, velocity=0, time=77),
    Message('note_on', channel=8, note=59, velocity=0, time=0),
    Message('note_on', channel=8, note=55, velocity=0, time=7),
    Message('note_on', channel=4, note=43, velocity=0, time=101),
    Message('note_on', channel=4, note=50, velocity=0, time=0),
    Message('note_on', channel=1, note=43, velocity=0, time=24),
    Message('note_on', channel=13, note=59, velocity=0, time=17),
    Message('note_on', channel=6, note=59, velocity=0, time=0),
    Message('note_on', channel=1, note=43, velocity=104, time=7),
    Message('note_on', channel=4, note=43, velocity=80, time=0),
    Message('note_on', channel=4, note=50, velocity=80, time=0),
    Message('note_on', channel=8, note=62, velocity=78, time=0),
    Message('note_on', channel=9, note=43, velocity=80, time=0),
    Message('note_on', channel=9, note=44, velocity=80, time=0),
    Message('note_on', channel=9, note=36, velocity=120, time=0),
    Message('note_on', channel=9, note=36, velocity=0, time=4),
    Message('note_on', channel=9, note=44, velocity=0, time=1),
    Message('note_on', channel=9, note=43, velocity=0, time=0),
    Message('note_on', channel=6, note=62, velocity=100, time=2),
    Message('note_on', channel=6, note=67, velocity=100, time=0),
    Message('note_on', channel=13, note=62, velocity=100, time=0),
    Message('note_on', channel=13, note=67, velocity=100, time=0),
    Message('note_on', channel=8, note=55, velocity=78, time=3),
    Message('note_on', channel=8, note=59, velocity=78, time=18),
    Message('note_on', channel=4, note=50, velocity=0, time=164),
    Message('note_on', channel=4, note=43, velocity=0, time=0),
    Message('note_on', channel=1, note=43, velocity=0, time=24),
    Message('note_on', channel=8, note=62, velocity=0, time=14),
    Message('note_on', channel=8, note=59, velocity=0, time=5),
    Message('note_on', channel=8, note=55, velocity=0, time=5),
    Message('note_on', channel=1, note=43, velocity=104, time=0),
    Message('note_on', channel=4, note=43, velocity=71, time=0),
    Message('note_on', channel=4, note=50, velocity=71, time=0),
    Message('note_on', channel=8, note=59, velocity=63, time=0),
    Message('note_on', channel=9, note=42, velocity=80, time=0),
    Message('note_on', channel=9, note=43, velocity=93, time=0),
    Message('note_on', channel=9, note=43, velocity=0, time=5),
    Message('note_on', channel=9, note=42, velocity=0, time=0),
    Message('note_on', channel=8, note=55, velocity=63, time=14),
    Message('note_on', channel=8, note=62, velocity=63, time=5),
    Message('note_on', channel=8, note=59, velocity=0, time=138),
    Message('note_on', channel=8, note=62, velocity=0, time=24),
    Message('note_on', channel=8, note=55, velocity=0, time=2),
    Message('note_on', channel=4, note=50, velocity=0, time=4),
    Message('note_on', channel=4, note=43, velocity=0, time=0),
    Message('control_change', channel=13, control=1, value=60, time=12),
    Message('note_on', channel=1, note=43, velocity=0, time=12),
    Message('note_on', channel=1, note=43, velocity=104, time=24),
    Message('note_on', channel=4, note=43, velocity=86, time=0),
    Message('note_on', channel=4, note=50, velocity=86, time=0),
    Message('note_on', channel=8, note=62, velocity=48, time=0),
    Message('note_on', channel=9, note=41, velocity=106, time=0),
    Message('note_on', channel=9, note=44, velocity=80, time=0),
    Message('note_on', channel=9, note=41, velocity=0, time=4),
    Message('note_on', channel=9, note=44, velocity=0, time=1),
    Message('note_on', channel=8, note=55, velocity=48, time=13),
    Message('note_on', channel=8, note=59, velocity=48, time=5),
    Message('note_on', channel=4, note=43, velocity=0, time=169),
    Message('note_on', channel=4, note=50, velocity=0, time=0),
    Message('note_on', channel=1, note=43, velocity=0, time=24),
    Message('note_on', channel=8, note=62, velocity=0, time=14),
    Message('note_on', channel=8, note=55, velocity=0, time=9),
    Message('note_on', channel=8, note=59, velocity=0, time=0),
    Message('note_on', channel=1, note=43, velocity=104, time=1),
    Message('note_on', channel=4, note=43, velocity=70, time=0),
    Message('note_on', channel=4, note=50, velocity=70, time=0),
    Message('note_on', channel=8, note=59, velocity=70, time=0),
    Message('note_on', channel=9, note=41, velocity=120, time=0),
    Message('note_on', channel=9, note=42, velocity=80, time=0),
    Message('note_on', channel=9, note=42, velocity=0, time=5),
    Message('note_on', channel=9, note=41, velocity=0, time=0),
    Message('note_on', channel=8, note=55, velocity=70, time=14),
    Message('note_on', channel=8, note=62, velocity=70, time=14),
    Message('note_on', channel=4, note=43, velocity=0, time=159),
    Message('note_on', channel=4, note=50, velocity=0, time=0),
    Message('control_change', channel=13, control=1, value=0, time=5),
    Message('note_on', channel=6, note=67, velocity=0, time=7),
    Message('note_on', channel=6, note=62, velocity=0, time=0),
    Message('note_on', channel=13, note=62, velocity=0, time=0),
    Message('note_on', channel=13, note=67, velocity=0, time=0),
    Message('note_on', channel=1, note=43, velocity=0, time=12),
    Message('note_on', channel=8, note=59, velocity=0, time=14),
    Message('note_on', channel=8, note=55, velocity=0, time=5),
    Message('note_on', channel=2, note=74, velocity=0, time=5),
    Message('note_on', channel=2, note=71, velocity=0, time=0),
    Message('note_on', channel=2, note=79, velocity=0, time=0),
    Message('note_on', channel=1, note=45, velocity=104, time=0),
    Message('note_on', channel=2, note=72, velocity=66, time=0),
    Message('note_on', channel=2, note=76, velocity=71, time=0),
    Message('note_on', channel=2, note=81, velocity=57, time=0),
    Message('note_on', channel=3, note=69, velocity=100, time=0),
    Message('note_on', channel=4, note=45, velocity=86, time=0),
    Message('note_on', channel=4, note=52, velocity=86, time=0),
    Message('note_on', channel=5, note=60, velocity=80, time=0),
    Message('note_on', channel=5, note=69, velocity=80, time=0),
    Message('note_on', channel=5, note=64, velocity=80, time=0),
    Message('note_on', channel=6, note=57, velocity=80, time=0),
    Message('note_on', channel=8, note=57, velocity=80, time=0),
    Message('note_on', channel=9, note=49, velocity=80, time=0),
    Message('note_on', channel=9, note=36, velocity=120, time=0),
    Message('note_on', channel=13, note=57, velocity=60, time=0),
    MetaMessage('lyrics', text='How, ', time=0),
    Message('note_on', channel=9, note=36, velocity=0, time=4),
    Message('note_on', channel=8, note=62, velocity=0, time=0),
    Message('note_on', channel=9, note=49, velocity=0, time=1),
    Message('note_on', channel=8, note=60, velocity=80, time=11),
    Message('note_on', channel=8, note=64, velocity=80, time=7),
    Message('note_on', channel=13, note=57, velocity=0, time=217),
    Message('note_on', channel=6, note=57, velocity=0, time=0),
    Message('note_on', channel=6, note=60, velocity=80, time=0),
    Message('note_on', channel=9, note=42, velocity=80, time=0),
    Message('note_on', channel=13, note=60, velocity=60, time=0),
    Message('note_on', channel=9, note=42, velocity=0, time=5),
    Message('note_on', channel=1, note=45, velocity=0, time=187),
    Message('note_on', channel=8, note=64, velocity=0, time=18),
    Message('note_on', channel=8, note=57, velocity=0, time=11),
    Message('note_on', channel=8, note=60, velocity=0, time=16),
    Message('note_on', channel=13, note=60, velocity=0, time=3),
    Message('note_on', channel=6, note=60, velocity=0, time=0),
    Message('note_on', channel=6, note=64, velocity=80, time=0),
    Message('note_on', channel=9, note=44, velocity=80, time=0),
    Message('note_on', channel=9, note=54, velocity=50, time=0),
    Message('note_on', channel=9, note=38, velocity=120, time=0),
    Message('note_on', channel=13, note=64, velocity=60, time=0),
    Message('note_on', channel=9, note=38, velocity=0, time=4),
    Message('note_on', channel=9, note=54, velocity=0, time=0),
    Message('note_on', channel=9, note=44, velocity=0, time=1),
    Message('note_on', channel=8, note=57, velocity=59, time=4),
    Message('note_on', channel=8, note=60, velocity=59, time=6),
    Message('note_on', channel=8, note=64, velocity=59, time=4),
    Message('note_on', channel=8, note=57, velocity=0, time=187),
    Message('note_on', channel=4, note=52, velocity=0, time=12),
    Message('note_on', channel=4, note=45, velocity=0, time=0),
    Message('note_on', channel=8, note=60, velocity=0, time=1),
    Message('note_on', channel=8, note=64, velocity=0, time=4),
    Message('note_on', channel=6, note=64, velocity=0, time=17),
    Message('note_on', channel=13, note=64, velocity=0, time=0),
    Message('note_on', channel=1, note=45, velocity=104, time=0),
    Message('note_on', channel=4, note=45, velocity=72, time=0),
    Message('note_on', channel=4, note=52, velocity=72, time=0),
    Message('note_on', channel=6, note=60, velocity=80, time=0),
    Message('note_on', channel=6, note=69, velocity=80, time=0),
    Message('note_on', channel=8, note=64, velocity=50, time=0),
    Message('note_on', channel=8, note=60, velocity=50, time=0),
    Message('note_on', channel=8, note=57, velocity=50, time=0),
    Message('note_on', channel=9, note=42, velocity=80, time=0),
    Message('note_on', channel=9, note=36, velocity=120, time=0),
    Message('note_on', channel=13, note=64, velocity=60, time=0),
    Message('note_on', channel=13, note=69, velocity=60, time=0),
    Message('note_on', channel=9, note=42, velocity=0, time=5),
    Message('note_on', channel=9, note=36, velocity=0, time=11),
    Message('note_on', channel=8, note=60, velocity=0, time=68),
    Message('note_on', channel=8, note=64, velocity=0, time=0),
    Message('note_on', channel=8, note=57, velocity=0, time=7),
    Message('note_on', channel=4, note=45, velocity=0, time=101),
    Message('note_on', channel=4, note=52, velocity=0, time=0),
    Message('control_change', channel=13, control=1, value=93, time=19),
    Message('note_on', channel=1, note=45, velocity=0, time=5),
    Message('note_on', channel=1, note=45, velocity=104, time=24),
    Message('note_on', channel=4, note=52, velocity=80, time=0),
    Message('note_on', channel=4, note=45, velocity=80, time=0),
    Message('note_on', channel=8, note=64, velocity=78, time=0),
    Message('note_on', channel=9, note=44, velocity=80, time=0),
    Message('note_on', channel=9, note=36, velocity=120, time=0),
    Message('note_on', channel=9, note=36, velocity=0, time=4),
    Message('note_on', channel=9, note=44, velocity=0, time=1),
    Message('note_on', channel=8, note=57, velocity=78, time=5),
    Message('note_on', channel=8, note=60, velocity=78, time=18),
    Message('note_on', channel=4, note=45, velocity=0, time=164),
    Message('note_on', channel=4, note=52, velocity=0, time=0),
    Message('control_change', channel=13, control=1, value=0, time=19),
    Message('note_on', channel=8, note=64, velocity=0, time=19),
    Message('note_on', channel=8, note=60, velocity=0, time=5),
    Message('note_on', channel=8, note=57, velocity=0, time=5),
    Message('note_on', channel=13, note=69, velocity=0, time=0),
    Message('note_on', channel=6, note=60, velocity=0, time=0),
    Message('note_on', channel=6, note=69, velocity=0, time=0),
    Message('note_on', channel=13, note=64, velocity=0, time=0),
    Message('note_on', channel=4, note=52, velocity=71, time=0),
    Message('note_on', channel=4, note=45, velocity=71, time=0),
    Message('note_on', channel=6, note=64, velocity=80, time=0),
    Message('note_on', channel=8, note=60, velocity=63, time=0),
    Message('note_on', channel=9, note=42, velocity=80, time=0),
    Message('note_on', channel=13, note=64, velocity=60, time=0),
    Message('note_on', channel=9, note=42, velocity=0, time=5),
    Message('note_on', channel=8, note=57, velocity=63, time=14),
    Message('note_on', channel=8, note=64, velocity=63, time=5),
    Message('note_on', channel=8, note=60, velocity=0, time=138),
    Message('note_on', channel=8, note=64, velocity=0, time=24),
    Message('note_on', channel=8, note=57, velocity=0, time=2),
    Message('note_on', channel=4, note=52, velocity=0, time=4),
    Message('note_on', channel=1, note=45, velocity=0, time=0),
    Message('note_on', channel=4, note=45, velocity=0, time=0),
    Message('note_on', channel=6, note=64, velocity=0, time=48),
    Message('note_on', channel=13, note=64, velocity=0, time=0),
    Message('note_on', channel=1, note=45, velocity=104, time=0),
    Message('note_on', channel=4, note=52, velocity=86, time=0),
    Message('note_on', channel=4, note=45, velocity=86, time=0),
    Message('note_on', channel=6, note=60, velocity=80, time=0),
    Message('note_on', channel=8, note=64, velocity=48, time=0),
    Message('note_on', channel=9, note=54, velocity=50, time=0),
    Message('note_on', channel=9, note=44, velocity=80, time=0),
    Message('note_on', channel=9, note=38, velocity=120, time=0),
    Message('note_on', channel=13, note=60, velocity=60, time=0),
    Message('note_on', channel=9, note=38, velocity=0, time=4),
    Message('note_on', channel=9, note=54, velocity=0, time=0),
    Message('note_on', channel=9, note=44, velocity=0, time=1),
    Message('note_on', channel=8, note=57, velocity=48, time=13),
    Message('note_on', channel=8, note=60, velocity=48, time=5),
    Message('note_on', channel=4, note=52, velocity=0, time=169),
    Message('note_on', channel=4, note=45, velocity=0, time=0),
    Message('note_on', channel=8, note=64, velocity=0, time=38),
    Message('note_on', channel=8, note=57, velocity=0, time=9),
    Message('note_on', channel=8, note=60, velocity=0, time=0),
    Message('note_on', channel=13, note=60, velocity=0, time=1),
    Message('note_on', channel=6, note=60, velocity=0, time=0),
    Message('pitchwheel', channel=3, pitch=0, time=0),
    Message('note_on', channel=4, note=48, velocity=70, time=0),
    Message('note_on', channel=4, note=45, velocity=70, time=0),
    Message('pitchwheel', channel=5, pitch=0, time=0),
    Message('note_on', channel=6, note=57, velocity=80, time=0),
    Message('note_on', channel=8, note=60, velocity=70, time=0),
    Message('note_on', channel=9, note=42, velocity=80, time=0),
    Message('note_on', channel=13, note=57, velocity=60, time=0),
    Message('note_on', channel=9, note=42, velocity=0, time=5),
    Message('pitchwheel', channel=3, pitch=-256, time=3),
    Message('pitchwheel', channel=5, pitch=-256, time=0),
    Message('pitchwheel', channel=3, pitch=-640, time=9),
    Message('pitchwheel', channel=5, pitch=-640, time=0),
    Message('note_on', channel=8, note=57, velocity=70, time=2),
    Message('pitchwheel', channel=3, pitch=-896, time=7),
    Message('pitchwheel', channel=5, pitch=-896, time=0),
    Message('note_on', channel=8, note=64, velocity=70, time=7),
    Message('pitchwheel', channel=3, pitch=-1280, time=2),
    Message('pitchwheel', channel=5, pitch=-1280, time=0),
    Message('pitchwheel', channel=3, pitch=-1536, time=9),
    Message('pitchwheel', channel=5, pitch=-1536, time=0),
    Message('pitchwheel', channel=3, pitch=-1920, time=9),
    Message('pitchwheel', channel=5, pitch=-1920, time=0),
    Message('pitchwheel', channel=3, pitch=-2176, time=9),
    Message('pitchwheel', channel=5, pitch=-2176, time=0),
    Message('pitchwheel', channel=3, pitch=-2560, time=9),
    Message('pitchwheel', channel=5, pitch=-2560, time=0),
    Message('pitchwheel', channel=3, pitch=-2816, time=9),
    Message('pitchwheel', channel=5, pitch=-2816, time=0),
    Message('pitchwheel', channel=3, pitch=-3200, time=8),
    Message('pitchwheel', channel=5, pitch=-3200, time=0),
    Message('pitchwheel', channel=3, pitch=-3456, time=9),
    Message('pitchwheel', channel=5, pitch=-3456, time=0),
    Message('pitchwheel', channel=3, pitch=-3840, time=9),
    Message('pitchwheel', channel=5, pitch=-3840, time=0),
    Message('pitchwheel', channel=3, pitch=-4096, time=9),
    Message('pitchwheel', channel=5, pitch=-4096, time=0),
    Message('pitchwheel', channel=3, pitch=-4480, time=9),
    Message('pitchwheel', channel=5, pitch=-4480, time=0),
    Message('pitchwheel', channel=3, pitch=-4736, time=9),
    Message('pitchwheel', channel=5, pitch=-4736, time=0),
    Message('pitchwheel', channel=3, pitch=-5120, time=9),
    Message('pitchwheel', channel=5, pitch=-5120, time=0),
    Message('pitchwheel', channel=3, pitch=-5376, time=9),
    Message('pitchwheel', channel=5, pitch=-5376, time=0),
    Message('pitchwheel', channel=3, pitch=-5760, time=9),
    Message('pitchwheel', channel=5, pitch=-5760, time=0),
    Message('pitchwheel', channel=3, pitch=-6016, time=8),
    Message('pitchwheel', channel=5, pitch=-6016, time=0),
    Message('pitchwheel', channel=3, pitch=-6400, time=9),
    Message('pitchwheel', channel=5, pitch=-6400, time=0),
    Message('pitchwheel', channel=3, pitch=-6656, time=9),
    Message('pitchwheel', channel=5, pitch=-6656, time=0),
    Message('note_on', channel=4, note=48, velocity=0, time=6),
    Message('note_on', channel=1, note=45, velocity=0, time=0),
    Message('note_on', channel=4, note=45, velocity=0, time=0),
    Message('pitchwheel', channel=3, pitch=-7040, time=3),
    Message('pitchwheel', channel=5, pitch=-7040, time=0),
    Message('pitchwheel', channel=3, pitch=-7296, time=9),
    Message('pitchwheel', channel=5, pitch=-7296, time=0),
    Message('pitchwheel', channel=3, pitch=-7680, time=9),
    Message('pitchwheel', channel=5, pitch=-7680, time=0),
    Message('pitchwheel', channel=3, pitch=-8064, time=9),
    Message('pitchwheel', channel=5, pitch=-8064, time=0),
    Message('note_on', channel=8, note=60, velocity=0, time=8),
    Message('note_on', channel=8, note=57, velocity=0, time=5),
    Message('note_on', channel=6, note=57, velocity=0, time=5),
    Message('note_on', channel=5, note=69, velocity=0, time=0),
    Message('note_on', channel=5, note=60, velocity=0, time=0),
    Message('note_on', channel=2, note=81, velocity=0, time=0),
    Message('note_on', channel=2, note=76, velocity=0, time=0),
    Message('note_on', channel=13, note=57, velocity=0, time=0),
    Message('note_on', channel=2, note=72, velocity=0, time=0),
    Message('note_on', channel=5, note=64, velocity=0, time=0),
    Message('note_on', channel=3, note=69, velocity=0, time=0),
    Message('note_on', channel=1, note=43, velocity=104, time=0),
    Message('note_on', channel=2, note=71, velocity=62, time=0),
    Message('note_on', channel=2, note=74, velocity=62, time=0),
    Message('note_on', channel=2, note=79, velocity=79, time=0),
    Message('pitchwheel', channel=3, pitch=0, time=0),
    Message('note_on', channel=3, note=67, velocity=100, time=0),
    Message('note_on', channel=4, note=50, velocity=86, time=0),
    Message('note_on', channel=4, note=43, velocity=86, time=0),
    Message('note_on', channel=5, note=59, velocity=80, time=0),
    Message('note_on', channel=5, note=62, velocity=80, time=0),
    Message('pitchwheel', channel=5, pitch=0, time=0),
    Message('note_on', channel=5, note=67, velocity=80, time=0),
    Message('note_on', channel=6, note=55, velocity=80, time=0),
    Message('note_on', channel=8, note=55, velocity=80, time=0),
    Message('note_on', channel=9, note=36, velocity=120, time=0),
    Message('note_on', channel=9, note=44, velocity=80, time=0),
    Message('note_on', channel=13, note=55, velocity=60, time=0),
    MetaMessage('lyrics', text='long, ', time=0),
    Message('note_on', channel=9, note=36, velocity=0, time=4),
    Message('note_on', channel=8, note=64, velocity=0, time=0),
    Message('note_on', channel=9, note=44, velocity=0, time=1),
    Message('note_on', channel=8, note=59, velocity=80, time=11),
    Message('note_on', channel=8, note=62, velocity=80, time=7),
    Message('note_on', channel=13, note=55, velocity=0, time=217),
    Message('note_on', channel=6, note=55, velocity=0, time=0),
    Message('note_on', channel=6, note=59, velocity=80, time=0),
    Message('note_on', channel=9, note=42, velocity=80, time=0),
    Message('note_on', channel=13, note=59, velocity=60, time=0),
    Message('note_on', channel=9, note=42, velocity=0, time=5),
    Message('note_on', channel=1, note=43, velocity=0, time=187),
    Message('note_on', channel=8, note=62, velocity=0, time=18),
    Message('note_on', channel=8, note=55, velocity=0, time=11),
    Message('note_on', channel=8, note=59, velocity=0, time=16),
    Message('note_on', channel=13, note=59, velocity=0, time=3),
    Message('note_on', channel=6, note=59, velocity=0, time=0),
    Message('note_on', channel=6, note=62, velocity=80, time=0),
    Message('note_on', channel=9, note=44, velocity=80, time=0),
    Message('note_on', channel=9, note=54, velocity=50, time=0),
    Message('note_on', channel=9, note=38, velocity=120, time=0),
    Message('note_on', channel=13, note=62, velocity=60, time=0),
    Message('note_on', channel=9, note=38, velocity=0, time=4),
    Message('note_on', channel=9, note=54, velocity=0, time=0),
    Message('note_on', channel=9, note=44, velocity=0, time=1),
    Message('note_on', channel=8, note=55, velocity=59, time=4),
    Message('note_on', channel=8, note=59, velocity=59, time=6),
    Message('note_on', channel=8, note=62, velocity=59, time=4),
    Message('note_on', channel=8, note=55, velocity=0, time=187),
    Message('note_on', channel=4, note=43, velocity=0, time=12),
    Message('note_on', channel=4, note=50, velocity=0, time=0),
    Message('note_on', channel=8, note=59, velocity=0, time=1),
    Message('note_on', channel=8, note=62, velocity=0, time=4),
    Message('note_on', channel=6, note=62, velocity=0, time=17),
    Message('note_on', channel=13, note=62, velocity=0, time=0),
    Message('note_on', channel=1, note=43, velocity=104, time=0),
    Message('note_on', channel=4, note=50, velocity=72, time=0),
    Message('note_on', channel=4, note=43, velocity=72, time=0),
    Message('note_on', channel=6, note=59, velocity=80, time=0),
    Message('note_on', channel=6, note=67, velocity=80, time=0),
    Message('note_on', channel=8, note=55, velocity=50, time=0),
    Message('note_on', channel=8, note=59, velocity=50, time=0),
    Message('note_on', channel=8, note=62, velocity=50, time=0),
    Message('note_on', channel=9, note=42, velocity=80, time=0),
    Message('note_on', channel=9, note=36, velocity=120, time=0),
    Message('note_on', channel=13, note=62, velocity=60, time=0),
    Message('note_on', channel=13, note=67, velocity=60, time=0),
    Message('note_on', channel=9, note=42, velocity=0, time=5),
    Message('note_on', channel=9, note=36, velocity=0, time=11),
    Message('note_on', channel=8, note=62, velocity=0, time=68),
    Message('note_on', channel=8, note=59, velocity=0, time=0),
    Message('note_on', channel=8, note=55, velocity=0, time=7),
    Message('control_change', channel=13, control=1, value=93, time=71),
    Message('note_on', channel=4, note=50, velocity=0, time=30),
    Message('note_on', channel=4, note=43, velocity=0, time=0),
    Message('note_on', channel=1, note=43, velocity=0, time=24),
    Message('note_on', channel=1, note=43, velocity=104, time=24),
    Message('note_on', channel=4, note=43, velocity=80, time=0),
    Message('note_on', channel=4, note=50, velocity=80, time=0),
    Message('note_on', channel=8, note=62, velocity=78, time=0),
    Message('note_on', channel=9, note=44, velocity=80, time=0),
    Message('note_on', channel=9, note=36, velocity=120, time=0),
    Message('note_on', channel=9, note=36, velocity=0, time=4),
    Message('note_on', channel=9, note=44, velocity=0, time=1),
    Message('note_on', channel=8, note=55, velocity=78, time=5),
    Message('note_on', channel=8, note=59, velocity=78, time=18),
    Message('note_on', channel=13, note=67, velocity=0, time=155),
    Message('note_on', channel=6, note=67, velocity=0, time=7),
    Message('note_on', channel=4, note=43, velocity=0, time=2),
    Message('note_on', channel=4, note=50, velocity=0, time=0),
    Message('control_change', channel=13, control=1, value=0, time=19),
    Message('note_on', channel=8, note=62, velocity=0, time=19),
    Message('note_on', channel=8, note=59, velocity=0, time=5),
    Message('note_on', channel=8, note=55, velocity=0, time=5),
    Message('note_on', channel=13, note=62, velocity=0, time=0),
    Message('note_on', channel=6, note=59, velocity=0, time=0),
    Message('note_on', channel=4, note=50, velocity=71, time=0),
    Message('note_on', channel=4, note=43, velocity=71, time=0),
    Message('note_on', channel=6, note=62, velocity=80, time=0),
    Message('note_on', channel=8, note=59, velocity=63, time=0),
    Message('note_on', channel=9, note=42, velocity=80, time=0),
    Message('note_on', channel=13, note=62, velocity=60, time=0),
    Message('note_on', channel=9, note=42, velocity=0, time=5),
    Message('note_on', channel=8, note=55, velocity=63, time=14),
    Message('note_on', channel=8, note=62, velocity=63, time=5),
    Message('note_on', channel=8, note=59, velocity=0, time=138),
    Message('note_on', channel=8, note=62, velocity=0, time=24),
    Message('note_on', channel=8, note=55, velocity=0, time=2),
    Message('note_on', channel=4, note=50, velocity=0, time=4),
    Message('note_on', channel=1, note=43, velocity=0, time=0),
    Message('note_on', channel=4, note=43, velocity=0, time=0),
    Message('note_on', channel=6, note=62, velocity=0, time=48),
    Message('note_on', channel=13, note=62, velocity=0, time=0),
    Message('note_on', channel=1, note=43, velocity=104, time=0),
    Message('note_on', channel=4, note=50, velocity=86, time=0),
    Message('note_on', channel=4, note=43, velocity=86, time=0),
    Message('note_on', channel=6, note=59, velocity=80, time=0),
    Message('note_on', channel=8, note=62, velocity=48, time=0),
    Message('note_on', channel=9, note=44, velocity=80, time=0),
    Message('note_on', channel=9, note=54, velocity=50, time=0),
    Message('note_on', channel=9, note=38, velocity=120, time=0),
    Message('note_on', channel=13, note=59, velocity=60, time=0),
    Message('note_on', channel=9, note=38, velocity=0, time=4),
    Message('note_on', channel=9, note=54, velocity=0, time=0),
    Message('note_on', channel=9, note=44, velocity=0, time=1),
    Message('note_on', channel=8, note=55, velocity=48, time=13),
    Message('note_on', channel=8, note=59, velocity=48, time=5),
    Message('note_on', channel=4, note=50, velocity=0, time=169),
    Message('note_on', channel=4, note=43, velocity=0, time=0),
    Message('note_on', channel=8, note=62, velocity=0, time=38),
    Message('note_on', channel=8, note=55, velocity=0, time=9),
    Message('note_on', channel=8, note=59, velocity=0, time=0),
    Message('note_on', channel=13, note=59, velocity=0, time=1),
    Message('note_on', channel=6, note=59, velocity=0, time=0),
    Message('note_on', channel=4, note=43, velocity=70, time=0),
    Message('note_on', channel=4, note=47, velocity=70, time=0),
    Message('note_on', channel=6, note=55, velocity=80, time=0),
    Message('note_on', channel=8, note=59, velocity=70, time=0),
    Message('note_on', channel=9, note=42, velocity=80, time=0),
    Message('note_on', channel=13, note=55, velocity=60, time=0),
    Message('note_on', channel=9, note=42, velocity=0, time=5),
    Message('note_on', channel=8, note=55, velocity=70, time=14),
    Message('note_on', channel=8, note=62, velocity=70, time=14),
    Message('note_on', channel=4, note=43, velocity=0, time=159),
    Message('note_on', channel=1, note=43, velocity=0, time=0),
    Message('note_on', channel=4, note=47, velocity=0, time=0),
    Message('note_on', channel=8, note=59, velocity=0, time=38),
    Message('note_on', channel=8, note=55, velocity=0, time=5),
    Message('note_on', channel=6, note=55, velocity=0, time=5),
    Message('note_on', channel=2, note=71, velocity=0, time=0),
    Message('note_on', channel=5, note=67, velocity=0, time=0),
    Message('note_on', channel=2, note=74, velocity=0, time=0),
    Message('note_on', channel=2, note=79, velocity=0, time=0),
    Message('note_on', channel=13, note=55, velocity=0, time=0),
    Message('note_on', channel=3, note=67, velocity=0, time=0),
    Message('note_on', channel=5, note=59, velocity=0, time=0),
    Message('note_on', channel=5, note=62, velocity=0, time=0),
    Message('note_on', channel=1, note=41, velocity=104, time=0),
    Message('note_on', channel=2, note=72, velocity=57, time=0),
    Message('note_on', channel=2, note=77, velocity=64, time=0),
    Message('note_on', channel=2, note=81, velocity=50, time=0),
    Message('note_on', channel=3, note=65, velocity=100, time=0),
    Message('note_on', channel=4, note=41, velocity=86, time=0),
    Message('note_on', channel=4, note=48, velocity=86, time=0),
    Message('note_on', channel=5, note=65, velocity=80, time=0),
    Message('note_on', channel=5, note=57, velocity=80, time=0),
    Message('note_on', channel=5, note=60, velocity=80, time=0),
    Message('note_on', channel=6, note=53, velocity=80, time=0),
    Message('note_on', channel=8, note=57, velocity=80, time=0),
    Message('note_on', channel=9, note=44, velocity=80, time=0),
    Message('note_on', channel=9, note=36, velocity=120, time=0),
    Message('note_on', channel=13, note=53, velocity=60, time=0),
    MetaMessage('lyrics', text='how, ', time=0),
    Message('note_on', channel=9, note=36, velocity=0, time=4),
    Message('note_on', channel=8, note=62, velocity=0, time=0),
    Message('note_on', channel=9, note=44, velocity=0, time=1),
    Message('note_on', channel=8, note=60, velocity=80, time=11),
    Message('note_on', channel=8, note=65, velocity=80, time=7),
    Message('note_on', channel=13, note=53, velocity=0, time=217),
    Message('note_on', channel=6, note=53, velocity=0, time=0),
    Message('note_on', channel=6, note=57, velocity=80, time=0),
    Message('note_on', channel=9, note=42, velocity=80, time=0),
    Message('note_on', channel=13, note=57, velocity=60, time=0),
    Message('note_on', channel=9, note=42, velocity=0, time=5),
    Message('note_on', channel=1, note=41, velocity=0, time=187),
    Message('note_on', channel=8, note=65, velocity=0, time=18),
    Message('note_on', channel=8, note=57, velocity=0, time=11),
    Message('note_on', channel=8, note=60, velocity=0, time=16),
    Message('note_on', channel=13, note=57, velocity=0, time=3),
    Message('note_on', channel=6, note=57, velocity=0, time=0),
    Message('note_on', channel=6, note=60, velocity=80, time=0),
    Message('note_on', channel=9, note=54, velocity=50, time=0),
    Message('note_on', channel=9, note=44, velocity=80, time=0),
    Message('note_on', channel=9, note=38, velocity=120, time=0),
    Message('note_on', channel=13, note=60, velocity=60, time=0),
    Message('note_on', channel=9, note=38, velocity=0, time=4),
    Message('note_on', channel=9, note=54, velocity=0, time=0),
    Message('note_on', channel=9, note=44, velocity=0, time=1),
    Message('note_on', channel=8, note=57, velocity=59, time=4),
    Message('note_on', channel=8, note=60, velocity=59, time=6),
    Message('note_on', channel=8, note=65, velocity=59, time=4),
    Message('note_on', channel=8, note=57, velocity=0, time=187),
    Message('note_on', channel=4, note=48, velocity=0, time=12),
    Message('note_on', channel=4, note=41, velocity=0, time=0),
    Message('note_on', channel=8, note=60, velocity=0, time=1),
    Message('note_on', channel=8, note=65, velocity=0, time=4),
    Message('note_on', channel=6, note=60, velocity=0, time=17),
    Message('note_on', channel=13, note=60, velocity=0, time=0),
    Message('note_on', channel=1, note=41, velocity=104, time=0),
    Message('note_on', channel=4, note=41, velocity=72, time=0),
    Message('note_on', channel=4, note=48, velocity=72, time=0),
    Message('note_on', channel=6, note=57, velocity=80, time=0),
    Message('note_on', channel=6, note=65, velocity=80, time=0),
    Message('note_on', channel=8, note=57, velocity=50, time=0),
    Message('note_on', channel=8, note=60, velocity=50, time=0),
    Message('note_on', channel=8, note=65, velocity=50, time=0),
    Message('note_on', channel=9, note=36, velocity=120, time=0),
    Message('note_on', channel=9, note=42, velocity=80, time=0),
    Message('note_on', channel=13, note=60, velocity=60, time=0),
    Message('note_on', channel=13, note=65, velocity=60, time=0),
    Message('note_on', channel=9, note=42, velocity=0, time=5),
    Message('note_on', channel=9, note=36, velocity=0, time=11),
    Message('note_on', channel=8, note=65, velocity=0, time=68),
    Message('note_on', channel=8, note=60, velocity=0, time=0),
    Message('note_on', channel=8, note=57, velocity=0, time=7),
    Message('note_on', channel=4, note=41, velocity=0, time=101),
    Message('note_on', channel=4, note=48, velocity=0, time=0),
    Message('note_on', channel=1, note=41, velocity=0, time=24),
    Message('control_change', channel=13, control=1, value=93, time=16),
    Message('note_on', channel=1, note=41, velocity=104, time=8),
    Message('note_on', channel=4, note=41, velocity=80, time=0),
    Message('note_on', channel=4, note=48, velocity=80, time=0),
    Message('note_on', channel=8, note=65, velocity=78, time=0),
    Message('note_on', channel=9, note=36, velocity=120, time=0),
    Message('note_on', channel=9, note=44, velocity=80, time=0),
    Message('note_on', channel=9, note=36, velocity=0, time=4),
    Message('note_on', channel=9, note=44, velocity=0, time=1),
    Message('note_on', channel=8, note=57, velocity=78, time=5),
    Message('note_on', channel=8, note=60, velocity=78, time=18),
    Message('note_on', channel=4, note=48, velocity=0, time=164),
    Message('note_on', channel=4, note=41, velocity=0, time=0),
    Message('control_change', channel=13, control=1, value=0, time=33),
    Message('note_on', channel=8, note=65, velocity=0, time=5),
    Message('note_on', channel=8, note=60, velocity=0, time=5),
    Message('note_on', channel=8, note=57, velocity=0, time=5),
    Message('note_on', channel=13, note=65, velocity=0, time=0),
    Message('note_on', channel=6, note=57, velocity=0, time=0),
    Message('note_on', channel=6, note=65, velocity=0, time=0),
    Message('note_on', channel=13, note=60, velocity=0, time=0),
    Message('note_on', channel=4, note=48, velocity=71, time=0),
    Message('note_on', channel=4, note=41, velocity=71, time=0),
    Message('note_on', channel=6, note=60, velocity=80, time=0),
    Message('note_on', channel=8, note=60, velocity=63, time=0),
    Message('note_on', channel=9, note=42, velocity=80, time=0),
    Message('note_on', channel=13, note=60, velocity=60, time=0),
    Message('note_on', channel=9, note=42, velocity=0, time=5),
    Message('note_on', channel=8, note=57, velocity=63, time=14),
    Message('note_on', channel=8, note=65, velocity=63, time=5),
    Message('note_on', channel=8, note=60, velocity=0, time=138),
    Message('note_on', channel=8, note=65, velocity=0, time=24),
    Message('note_on', channel=8, note=57, velocity=0, time=2),
    Message('note_on', channel=4, note=48, velocity=0, time=4),
    Message('note_on', channel=1, note=41, velocity=0, time=0),
    Message('note_on', channel=4, note=41, velocity=0, time=0),
    Message('note_on', channel=6, note=60, velocity=0, time=48),
    Message('note_on', channel=13, note=60, velocity=0, time=0),
    Message('note_on', channel=1, note=41, velocity=104, time=0),
    Message('note_on', channel=4, note=48, velocity=86, time=0),
    Message('note_on', channel=4, note=41, velocity=86, time=0),
    Message('note_on', channel=6, note=57, velocity=80, time=0),
    Message('note_on', channel=8, note=65, velocity=48, time=0),
    Message('note_on', channel=9, note=54, velocity=50, time=0),
    Message('note_on', channel=9, note=44, velocity=80, time=0),
    Message('note_on', channel=9, note=38, velocity=120, time=0),
    Message('note_on', channel=13, note=57, velocity=60, time=0),
    Message('note_on', channel=9, note=38, velocity=0, time=4),
    Message('note_on', channel=9, note=54, velocity=0, time=0),
    Message('note_on', channel=9, note=44, velocity=0, time=1),
    Message('note_on', channel=8, note=57, velocity=48, time=13),
    Message('note_on', channel=8, note=60, velocity=48, time=5),
    Message('note_on', channel=4, note=48, velocity=0, time=169),
    Message('note_on', channel=4, note=41, velocity=0, time=0),
    Message('note_on', channel=8, note=65, velocity=0, time=38),
    Message('note_on', channel=8, note=57, velocity=0, time=9),
    Message('note_on', channel=8, note=60, velocity=0, time=0),
    Message('note_on', channel=13, note=57, velocity=0, time=1),
    Message('note_on', channel=6, note=57, velocity=0, time=0),
    Message('note_on', channel=4, note=45, velocity=70, time=0),
    Message('note_on', channel=4, note=41, velocity=70, time=0),
    Message('note_on', channel=6, note=53, velocity=80, time=0),
    Message('note_on', channel=8, note=60, velocity=70, time=0),
    Message('note_on', channel=9, note=42, velocity=80, time=0),
    Message('note_on', channel=13, note=53, velocity=60, time=0),
    Message('note_on', channel=9, note=42, velocity=0, time=5),
    Message('note_on', channel=8, note=57, velocity=70, time=14),
    Message('note_on', channel=8, note=65, velocity=70, time=14),
    Message('pitchwheel', channel=3, pitch=0, time=2),
    Message('pitchwheel', channel=5, pitch=0, time=0),
    Message('pitchwheel', channel=3, pitch=-384, time=9),
    Message('pitchwheel', channel=5, pitch=-384, time=0),
    Message('pitchwheel', channel=3, pitch=-768, time=9),
    Message('pitchwheel', channel=5, pitch=-768, time=0),
    Message('pitchwheel', channel=3, pitch=-1152, time=9),
    Message('pitchwheel', channel=5, pitch=-1152, time=0),
    Message('pitchwheel', channel=3, pitch=-1664, time=9),
    Message('pitchwheel', channel=5, pitch=-1664, time=0),
    Message('pitchwheel', channel=3, pitch=-2048, time=9),
    Message('pitchwheel', channel=5, pitch=-2048, time=0),
    Message('pitchwheel', channel=3, pitch=-2432, time=8),
    Message('pitchwheel', channel=5, pitch=-2432, time=0),
    Message('pitchwheel', channel=3, pitch=-2944, time=9),
    Message('pitchwheel', channel=5, pitch=-2944, time=0),
    Message('pitchwheel', channel=3, pitch=-3328, time=9),
    Message('pitchwheel', channel=5, pitch=-3328, time=0),
    Message('pitchwheel', channel=3, pitch=-3712, time=9),
    Message('pitchwheel', channel=5, pitch=-3712, time=0),
    Message('pitchwheel', channel=3, pitch=-4224, time=9),
    Message('pitchwheel', channel=5, pitch=-4224, time=0),
    Message('pitchwheel', channel=3, pitch=-4608, time=9),
    Message('pitchwheel', channel=5, pitch=-4608, time=0),
    Message('pitchwheel', channel=3, pitch=-4992, time=9),
    Message('pitchwheel', channel=5, pitch=-4992, time=0),
    Message('pitchwheel', channel=3, pitch=-5504, time=9),
    Message('pitchwheel', channel=5, pitch=-5504, time=0),
    Message('pitchwheel', channel=3, pitch=-5888, time=9),
    Message('pitchwheel', channel=5, pitch=-5888, time=0),
    Message('pitchwheel', channel=3, pitch=-6272, time=8),
    Message('pitchwheel', channel=5, pitch=-6272, time=0),
    Message('pitchwheel', channel=3, pitch=-6784, time=9),
    Message('pitchwheel', channel=5, pitch=-6784, time=0),
    Message('pitchwheel', channel=3, pitch=-7168, time=9),
    Message('pitchwheel', channel=5, pitch=-7168, time=0),
    Message('note_on', channel=4, note=45, velocity=0, time=6),
    Message('note_on', channel=1, note=41, velocity=0, time=0),
    Message('note_on', channel=4, note=41, velocity=0, time=0),
    Message('pitchwheel', channel=3, pitch=-7552, time=3),
    Message('pitchwheel', channel=5, pitch=-7552, time=0),
    Message('pitchwheel', channel=3, pitch=-8064, time=9),
    Message('pitchwheel', channel=5, pitch=-8064, time=0),
    Message('note_on', channel=8, note=60, velocity=0, time=26),
    Message('note_on', channel=8, note=57, velocity=0, time=5),
    Message('note_on', channel=6, note=53, velocity=0, time=5),
    Message('note_on', channel=5, note=57, velocity=0, time=0),
    Message('note_on', channel=2, note=77, velocity=0, time=0),
    Message('note_on', channel=2, note=81, velocity=0, time=0),
    Message('note_on', channel=5, note=60, velocity=0, time=0),
    Message('note_on', channel=13, note=53, velocity=0, time=0),
    Message('note_on', channel=3, note=65, velocity=0, time=0),
    Message('note_on', channel=5, note=65, velocity=0, time=0),
    Message('note_on', channel=1, note=48, velocity=104, time=0),
    Message('note_on', channel=2, note=76, velocity=64, time=0),
    Message('note_on', channel=2, note=79, velocity=58, time=0),
    Message('pitchwheel', channel=3, pitch=0, time=0),
    Message('note_on', channel=3, note=64, velocity=100, time=0),
    Message('note_on', channel=4, note=55, velocity=86, time=0),
    Message('note_on', channel=4, note=48, velocity=86, time=0),
    Message('pitchwheel', channel=5, pitch=0, time=0),
    Message('note_on', channel=5, note=60, velocity=80, time=0),
    Message('note_on', channel=5, note=64, velocity=80, time=0),
    Message('note_on', channel=5, note=55, velocity=80, time=0),
    Message('note_on', channel=8, note=55, velocity=80, time=0),
    Message('note_on', channel=9, note=44, velocity=80, time=0),
    Message('note_on', channel=9, note=36, velocity=120, time=0),
    MetaMessage('lyrics', text='long, ', time=0),
    MetaMessage('lyrics', text='\r', time=0),
    Message('note_on', channel=9, note=36, velocity=0, time=4),
    Message('note_on', channel=8, note=65, velocity=0, time=0),
    Message('note_on', channel=9, note=44, velocity=0, time=1),
    Message('note_on', channel=13, note=60, velocity=60, time=2),
    Message('note_on', channel=13, note=55, velocity=60, time=0),
    Message('note_on', channel=8, note=60, velocity=80, time=9),
    Message('note_on', channel=8, note=64, velocity=80, time=7),
    Message('note_on', channel=9, note=42, velocity=80, time=217),
    Message('note_on', channel=9, note=42, velocity=0, time=5),
    Message('note_on', channel=1, note=48, velocity=0, time=187),
    Message('note_on', channel=8, note=64, velocity=0, time=18),
    Message('note_on', channel=8, note=55, velocity=0, time=11),
    Message('note_on', channel=8, note=60, velocity=0, time=16),
    Message('note_on', channel=9, note=54, velocity=50, time=3),
    Message('note_on', channel=9, note=44, velocity=80, time=0),
    Message('note_on', channel=9, note=38, velocity=120, time=0),
    Message('note_on', channel=9, note=38, velocity=0, time=4),
    Message('note_on', channel=9, note=54, velocity=0, time=0),
    Message('note_on', channel=9, note=44, velocity=0, time=1),
    Message('note_on', channel=8, note=55, velocity=59, time=4),
    Message('note_on', channel=8, note=60, velocity=59, time=6),
    Message('note_on', channel=8, note=64, velocity=59, time=4),
    Message('note_on', channel=13, note=55, velocity=0, time=178),
    Message('note_on', channel=13, note=60, velocity=0, time=0),
    Message('note_on', channel=8, note=55, velocity=0, time=9),
    Message('pitchwheel', channel=6, pitch=8191, time=5),
    Message('pitchwheel', channel=13, pitch=8191, time=0),
    Message('note_on', channel=4, note=48, velocity=0, time=7),
    Message('note_on', channel=4, note=55, velocity=0, time=0),
    Message('note_on', channel=8, note=60, velocity=0, time=1),
    Message('note_on', channel=8, note=64, velocity=0, time=4),
    Message('note_on', channel=1, note=48, velocity=104, time=17),
    Message('note_on', channel=4, note=48, velocity=72, time=0),
    Message('note_on', channel=4, note=55, velocity=72, time=0),
    Message('note_on', channel=6, note=62, velocity=100, time=0),
    Message('note_on', channel=7, note=67, velocity=120, time=0),
    Message('note_on', channel=8, note=60, velocity=50, time=0),
    Message('note_on', channel=8, note=64, velocity=50, time=0),
    Message('note_on', channel=8, note=55, velocity=50, time=0),
    Message('note_on', channel=9, note=42, velocity=80, time=0),
    Message('note_on', channel=9, note=36, velocity=120, time=0),
    Message('note_on', channel=13, note=62, velocity=100, time=0),
    Message('note_on', channel=9, note=42, velocity=0, time=5),
    Message('note_on', channel=9, note=36, velocity=0, time=11),
    Message('note_on', channel=8, note=64, velocity=0, time=68),
    Message('note_on', channel=8, note=60, velocity=0, time=0),
    Message('note_on', channel=8, note=55, velocity=0, time=7),
    Message('note_on', channel=4, note=48, velocity=0, time=101),
    Message('note_on', channel=4, note=55, velocity=0, time=0),
    Message('pitchwheel', channel=6, pitch=8064, time=12),
    Message('pitchwheel', channel=13, pitch=8064, time=0),
    Message('pitchwheel', channel=6, pitch=7552, time=7),
    Message('pitchwheel', channel=13, pitch=7552, time=0),
    Message('note_on', channel=1, note=48, velocity=0, time=5),
    Message('pitchwheel', channel=6, pitch=7040, time=2),
    Message('pitchwheel', channel=13, pitch=7040, time=0),
    Message('pitchwheel', channel=6, pitch=6528, time=7),
    Message('pitchwheel', channel=13, pitch=6528, time=0),
    Message('pitchwheel', channel=6, pitch=6016, time=7),
    Message('pitchwheel', channel=13, pitch=6016, time=0),
    Message('note_on', channel=1, note=48, velocity=104, time=8),
    Message('note_on', channel=4, note=55, velocity=80, time=0),
    Message('note_on', channel=4, note=48, velocity=80, time=0),
    Message('pitchwheel', channel=6, pitch=5376, time=0),
    Message('note_on', channel=8, note=64, velocity=78, time=0),
    Message('note_on', channel=9, note=44, velocity=80, time=0),
    Message('note_on', channel=9, note=36, velocity=120, time=0),
    Message('pitchwheel', channel=13, pitch=5376, time=0),
    Message('note_on', channel=9, note=36, velocity=0, time=4),
    Message('note_on', channel=9, note=44, velocity=0, time=1),
    Message('pitchwheel', channel=6, pitch=4864, time=2),
    Message('pitchwheel', channel=13, pitch=4864, time=0),
    Message('note_on', channel=8, note=55, velocity=78, time=3),
    Message('pitchwheel', channel=6, pitch=4352, time=4),
    Message('pitchwheel', channel=13, pitch=4352, time=0),
    Message('pitchwheel', channel=6, pitch=3840, time=7),
    Message('pitchwheel', channel=13, pitch=3840, time=0),
    Message('pitchwheel', channel=6, pitch=3328, time=7),
    Message('note_on', channel=8, note=60, velocity=78, time=0),
    Message('pitchwheel', channel=13, pitch=3328, time=0),
    Message('pitchwheel', channel=6, pitch=2688, time=7),
    Message('pitchwheel', channel=13, pitch=2688, time=0),
    Message('pitchwheel', channel=6, pitch=2176, time=7),
    Message('pitchwheel', channel=13, pitch=2176, time=0),
    Message('pitchwheel', channel=6, pitch=1664, time=7),
    Message('pitchwheel', channel=13, pitch=1664, time=0),
    Message('pitchwheel', channel=6, pitch=1152, time=7),
    Message('pitchwheel', channel=13, pitch=1152, time=0),
    Message('pitchwheel', channel=6, pitch=640, time=7),
    Message('pitchwheel', channel=13, pitch=640, time=0),
    Message('pitchwheel', channel=6, pitch=0, time=7),
    Message('pitchwheel', channel=13, pitch=0, time=0),
    Message('note_on', channel=4, note=48, velocity=0, time=122),
    Message('note_on', channel=4, note=55, velocity=0, time=0),
    Message('note_on', channel=1, note=48, velocity=0, time=24),
    Message('note_on', channel=13, note=62, velocity=0, time=9),
    Message('note_on', channel=6, note=62, velocity=0, time=0),
    Message('note_on', channel=8, note=64, velocity=0, time=5),
    Message('note_on', channel=8, note=60, velocity=0, time=5),
    Message('note_on', channel=7, note=67, velocity=0, time=5),
    Message('note_on', channel=8, note=55, velocity=0, time=0),
    Message('note_on', channel=1, note=48, velocity=104, time=0),
    Message('note_on', channel=4, note=55, velocity=71, time=0),
    Message('note_on', channel=4, note=48, velocity=71, time=0),
    Message('note_on', channel=6, note=60, velocity=100, time=0),
    Message('note_on', channel=7, note=67, velocity=120, time=0),
    Message('note_on', channel=8, note=60, velocity=63, time=0),
    Message('note_on', channel=9, note=54, velocity=50, time=0),
    Message('note_on', channel=9, note=42, velocity=80, time=0),
    Message('note_on', channel=9, note=38, velocity=80, time=0),
    Message('note_on', channel=13, note=60, velocity=100, time=0),
    Message('note_on', channel=9, note=38, velocity=0, time=4),
    Message('note_on', channel=9, note=54, velocity=0, time=0),
    Message('note_on', channel=9, note=42, velocity=0, time=1),
    Message('note_on', channel=8, note=55, velocity=63, time=14),
    Message('note_on', channel=8, note=64, velocity=63, time=5),
    Message('note_on', channel=9, note=54, velocity=50, time=96),
    Message('note_on', channel=9, note=38, velocity=100, time=0),
    Message('note_on', channel=9, note=38, velocity=0, time=4),
    Message('note_on', channel=9, note=54, velocity=0, time=0),
    Message('note_on', channel=8, note=60, velocity=0, time=38),
    Message('note_on', channel=8, note=64, velocity=0, time=24),
    Message('note_on', channel=8, note=55, velocity=0, time=2),
    Message('note_on', channel=4, note=55, velocity=0, time=4),
    Message('note_on', channel=4, note=48, velocity=0, time=0),
    Message('note_on', channel=1, note=48, velocity=0, time=24),
    Message('note_on', channel=13, note=60, velocity=0, time=24),
    Message('note_on', channel=6, note=60, velocity=0, time=0),
    Message('note_on', channel=7, note=67, velocity=0, time=0),
    Message('note_on', channel=1, note=45, velocity=104, time=0),
    Message('note_on', channel=4, note=48, velocity=86, time=0),
    Message('note_on', channel=4, note=57, velocity=86, time=0),
    Message('note_on', channel=6, note=57, velocity=100, time=0),
    Message('note_on', channel=7, note=67, velocity=120, time=0),
    Message('note_on', channel=8, note=64, velocity=48, time=0),
    Message('note_on', channel=9, note=44, velocity=80, time=0),
    Message('note_on', channel=9, note=54, velocity=50, time=0),
    Message('note_on', channel=9, note=38, velocity=120, time=0),
    Message('note_on', channel=13, note=57, velocity=100, time=0),
    Message('note_on', channel=9, note=38, velocity=0, time=4),
    Message('note_on', channel=9, note=54, velocity=0, time=0),
    Message('note_on', channel=9, note=44, velocity=0, time=1),
    Message('note_on', channel=8, note=55, velocity=48, time=13),
    Message('note_on', channel=8, note=60, velocity=48, time=5),
    Message('note_on', channel=4, note=48, velocity=0, time=169),
    Message('note_on', channel=4, note=57, velocity=0, time=0),
    Message('note_on', channel=1, note=45, velocity=0, time=24),
    Message('note_on', channel=8, note=64, velocity=0, time=14),
    Message('note_on', channel=8, note=60, velocity=0, time=9),
    Message('note_on', channel=8, note=55, velocity=0, time=0),
    Message('note_on', channel=13, note=57, velocity=0, time=1),
    Message('note_on', channel=6, note=57, velocity=0, time=0),
    Message('note_on', channel=7, note=67, velocity=0, time=0),
    Message('note_on', channel=1, note=43, velocity=104, time=0),
    Message('note_on', channel=4, note=55, velocity=70, time=0),
    Message('note_on', channel=4, note=48, velocity=70, time=0),
    Message('note_on', channel=6, note=55, velocity=100, time=0),
    Message('note_on', channel=7, note=64, velocity=120, time=0),
    Message('note_on', channel=8, note=60, velocity=70, time=0),
    Message('note_on', channel=9, note=36, velocity=120, time=0),
    Message('note_on', channel=9, note=42, velocity=80, time=0),
    Message('note_on', channel=13, note=55, velocity=100, time=0),
    Message('note_on', channel=9, note=36, velocity=0, time=4),
    Message('note_on', channel=9, note=42, velocity=0, time=1),
    Message('note_on', channel=8, note=55, velocity=70, time=14),
    Message('note_on', channel=8, note=64, velocity=70, time=14),
    Message('note_on', channel=4, note=55, velocity=0, time=159),
    Message('note_on', channel=4, note=48, velocity=0, time=0),
    Message('note_on', channel=1, note=43, velocity=0, time=24),
    Message('note_on', channel=8, note=60, velocity=0, time=14),
    Message('note_on', channel=13, note=55, velocity=0, time=2),
    Message('note_on', channel=6, note=55, velocity=0, time=0),
    Message('note_on', channel=8, note=55, velocity=0, time=3),
    Message('note_on', channel=2, note=79, velocity=0, time=5),
    Message('note_on', channel=5, note=55, velocity=0, time=0),
    Message('note_on', channel=5, note=60, velocity=0, time=0),
    Message('note_on', channel=5, note=64, velocity=0, time=0),
    Message('note_on', channel=7, note=64, velocity=0, time=0),
    Message('note_on', channel=2, note=72, velocity=0, time=0),
    Message('note_on', channel=3, note=64, velocity=0, time=0),
    Message('note_on', channel=2, note=76, velocity=0, time=0),
    Message('note_on', channel=1, note=48, velocity=104, time=0),
    Message('note_on', channel=2, note=72, velocity=67, time=0),
    Message('note_on', channel=2, note=76, velocity=67, time=0),
    Message('note_on', channel=2, note=79, velocity=64, time=0),
    Message('note_on', channel=3, note=64, velocity=100, time=0),
    Message('note_on', channel=4, note=48, velocity=86, time=0),
    Message('note_on', channel=4, note=55, velocity=86, time=0),
    Message('note_on', channel=6, note=60, velocity=80, time=0),
    Message('note_on', channel=6, note=55, velocity=80, time=0),
    Message('note_on', channel=8, note=55, velocity=80, time=0),
    Message('note_on', channel=9, note=36, velocity=120, time=0),
    Message('note_on', channel=9, note=49, velocity=80, time=0),
    Message('note_on', channel=13, note=60, velocity=80, time=0),
    Message('note_on', channel=13, note=55, velocity=80, time=0),
    MetaMessage('lyrics', text='good ', time=0),
    Message('note_on', channel=9, note=36, velocity=0, time=4),
    Message('note_on', channel=8, note=64, velocity=0, time=0),
    Message('note_on', channel=9, note=49, velocity=0, time=1),
    Message('note_on', channel=8, note=60, velocity=80, time=11),
    Message('note_on', channel=8, note=64, velocity=80, time=7),
    Message('note_on', channel=4, note=55, velocity=0, time=169),
    Message('note_on', channel=4, note=48, velocity=0, time=0),
    Message('note_on', channel=3, note=64, velocity=0, time=48),
    Message('note_on', channel=3, note=64, velocity=100, time=0),
    Message('note_on', channel=4, note=55, velocity=69, time=0),
    Message('note_on', channel=4, note=48, velocity=69, time=0),
    Message('note_on', channel=9, note=42, velocity=80, time=0),
    Message('control_change', channel=13, control=1, value=46, time=0),
    MetaMessage('lyrics', text='night ', time=0),
    Message('note_on', channel=9, note=42, velocity=0, time=5),
    Message('note_on', channel=1, note=48, velocity=0, time=187),
    Message('note_on', channel=4, note=48, velocity=0, time=0),
    Message('note_on', channel=4, note=55, velocity=0, time=0),
    Message('note_on', channel=8, note=64, velocity=0, time=18),
    Message('note_on', channel=8, note=55, velocity=0, time=11),
    Message('control_change', channel=13, control=1, value=0, time=11),
    Message('note_on', channel=8, note=60, velocity=0, time=5),
    Message('note_on', channel=13, note=55, velocity=0, time=3),
    Message('note_on', channel=6, note=60, velocity=0, time=0),
    Message('note_on', channel=6, note=55, velocity=0, time=0),
    Message('note_on', channel=13, note=60, velocity=0, time=0),
    Message('note_on', channel=4, note=57, velocity=83, time=0),
    Message('note_on', channel=4, note=48, velocity=83, time=0),
    Message('note_on', channel=6, note=55, velocity=80, time=0),
    Message('note_on', channel=6, note=60, velocity=80, time=0),
    Message('note_on', channel=9, note=44, velocity=80, time=0),
    Message('note_on', channel=9, note=54, velocity=50, time=0),
    Message('note_on', channel=9, note=38, velocity=120, time=0),
    Message('note_on', channel=13, note=55, velocity=80, time=0),
    Message('note_on', channel=13, note=60, velocity=80, time=0),
    Message('note_on', channel=9, note=38, velocity=0, time=4),
    Message('note_on', channel=9, note=54, velocity=0, time=0),
    Message('note_on', channel=9, note=44, velocity=0, time=1),
    Message('note_on', channel=8, note=55, velocity=59, time=4),
    Message('note_on', channel=8, note=60, velocity=59, time=6),
    Message('note_on', channel=8, note=64, velocity=59, time=4),
    Message('note_on', channel=4, note=48, velocity=0, time=173),
    Message('note_on', channel=4, note=57, velocity=0, time=0),
    Message('note_on', channel=8, note=55, velocity=0, time=14),
    Message('note_on', channel=8, note=60, velocity=0, time=13),
    Message('note_on', channel=8, note=64, velocity=0, time=4),
    Message('note_on', channel=3, note=64, velocity=0, time=17),
    Message('note_on', channel=1, note=48, velocity=104, time=0),
    Message('note_on', channel=3, note=64, velocity=100, time=0),
    Message('note_on', channel=4, note=52, velocity=72, time=0),
    Message('note_on', channel=4, note=48, velocity=72, time=0),
    Message('note_on', channel=8, note=60, velocity=50, time=0),
    Message('note_on', channel=8, note=55, velocity=50, time=0),
    Message('note_on', channel=8, note=64, velocity=50, time=0),
    Message('note_on', channel=9, note=42, velocity=80, time=0),
    MetaMessage('lyrics', text='ba', time=0),
    Message('note_on', channel=9, note=42, velocity=0, time=5),
    Message('note_on', channel=8, note=64, velocity=0, time=79),
    Message('note_on', channel=8, note=60, velocity=0, time=0),
    Message('note_on', channel=8, note=55, velocity=0, time=7),
    Message('note_on', channel=4, note=52, velocity=0, time=101),
    Message('note_on', channel=4, note=48, velocity=0, time=0),
    Message('note_on', channel=1, note=48, velocity=0, time=24),
    Message('note_on', channel=13, note=60, velocity=0, time=24),
    Message('note_on', channel=6, note=60, velocity=0, time=0),
    Message('note_on', channel=6, note=55, velocity=0, time=0),
    Message('note_on', channel=13, note=55, velocity=0, time=0),
    Message('note_on', channel=1, note=48, velocity=104, time=0),
    Message('note_on', channel=4, note=48, velocity=80, time=0),
    Message('note_on', channel=4, note=55, velocity=80, time=0),
    Message('note_on', channel=8, note=64, velocity=78, time=0),
    Message('note_on', channel=9, note=44, velocity=80, time=0),
    Message('note_on', channel=9, note=36, velocity=120, time=0),
    Message('note_on', channel=9, note=36, velocity=0, time=4),
    Message('note_on', channel=9, note=44, velocity=0, time=1),
    Message('note_on', channel=8, note=55, velocity=78, time=5),
    Message('note_on', channel=8, note=60, velocity=78, time=18),
    Message('note_on', channel=4, note=55, velocity=0, time=164),
    Message('note_on', channel=4, note=48, velocity=0, time=0),
    Message('note_on', channel=1, note=48, velocity=0, time=24),
    Message('note_on', channel=8, note=64, velocity=0, time=14),
    Message('note_on', channel=8, note=60, velocity=0, time=5),
    Message('note_on', channel=8, note=55, velocity=0, time=5),
    Message('note_on', channel=3, note=64, velocity=0, time=0),
    Message('note_on', channel=1, note=48, velocity=104, time=0),
    Message('note_on', channel=3, note=62, velocity=100, time=0),
    Message('note_on', channel=4, note=55, velocity=71, time=0),
    Message('note_on', channel=4, note=48, velocity=71, time=0),
    Message('note_on', channel=6, note=55, velocity=80, time=0),
    Message('note_on', channel=6, note=60, velocity=80, time=0),
    Message('note_on', channel=8, note=60, velocity=63, time=0),
    Message('note_on', channel=9, note=42, velocity=80, time=0),
    Message('note_on', channel=13, note=55, velocity=80, time=0),
    Message('note_on', channel=13, note=60, velocity=80, time=0),
    Message('note_on', channel=9, note=42, velocity=0, time=5),
    Message('note_on', channel=8, note=55, velocity=63, time=14),
    Message('note_on', channel=8, note=64, velocity=63, time=5),
    Message('note_on', channel=8, note=60, velocity=0, time=138),
    Message('note_on', channel=8, note=64, velocity=0, time=24),
    Message('note_on', channel=8, note=55, velocity=0, time=2),
    Message('note_on', channel=4, note=48, velocity=0, time=4),
    Message('note_on', channel=4, note=55, velocity=0, time=0),
    Message('note_on', channel=1, note=48, velocity=0, time=24),
    Message('note_on', channel=6, note=55, velocity=0, time=24),
    Message('note_on', channel=3, note=62, velocity=0, time=0),
    Message('note_on', channel=6, note=60, velocity=0, time=0),
    Message('note_on', channel=13, note=55, velocity=0, time=0),
    Message('note_on', channel=13, note=60, velocity=0, time=0),
    Message('note_on', channel=3, note=60, velocity=100, time=0),
    Message('note_on', channel=4, note=57, velocity=86, time=0),
    Message('note_on', channel=4, note=48, velocity=86, time=0),
    Message('note_on', channel=6, note=55, velocity=80, time=0),
    Message('note_on', channel=6, note=60, velocity=80, time=0),
    Message('note_on', channel=8, note=64, velocity=48, time=0),
    Message('note_on', channel=9, note=54, velocity=50, time=0),
    Message('note_on', channel=9, note=44, velocity=80, time=0),
    Message('note_on', channel=9, note=38, velocity=120, time=0),
    Message('note_on', channel=13, note=55, velocity=80, time=0),
    Message('note_on', channel=13, note=60, velocity=80, time=0),
    MetaMessage('lyrics', text='by, ', time=0),
    MetaMessage('lyrics', text='\r', time=0),
    Message('note_on', channel=9, note=38, velocity=0, time=4),
    Message('note_on', channel=9, note=54, velocity=0, time=0),
    Message('note_on', channel=9, note=44, velocity=0, time=1),
    Message('note_on', channel=8, note=55, velocity=48, time=13),
    Message('note_on', channel=8, note=60, velocity=48, time=5),
    Message('note_on', channel=4, note=48, velocity=0, time=169),
    Message('note_on', channel=4, note=57, velocity=0, time=0),
    Message('note_on', channel=8, note=64, velocity=0, time=38),
    Message('note_on', channel=8, note=55, velocity=0, time=9),
    Message('note_on', channel=8, note=60, velocity=0, time=0),
    Message('note_on', channel=3, note=60, velocity=0, time=1),
    Message('note_on', channel=1, note=48, velocity=104, time=0),
    Message('note_on', channel=3, note=62, velocity=100, time=0),
    Message('note_on', channel=4, note=52, velocity=70, time=0),
    Message('note_on', channel=4, note=48, velocity=70, time=0),
    Message('note_on', channel=8, note=60, velocity=70, time=0),
    Message('note_on', channel=9, note=42, velocity=80, time=0),
    MetaMessage('lyrics', text='rock ', time=0),
    Message('note_on', channel=9, note=42, velocity=0, time=5),
    Message('note_on', channel=8, note=55, velocity=70, time=14),
    Message('note_on', channel=8, note=64, velocity=70, time=14),
    Message('note_on', channel=4, note=52, velocity=0, time=159),
    Message('note_on', channel=4, note=48, velocity=0, time=0),
    Message('note_on', channel=1, note=48, velocity=0, time=24),
    Message('note_on', channel=8, note=60, velocity=0, time=14),
    Message('note_on', channel=8, note=55, velocity=0, time=5),
    Message('note_on', channel=2, note=72, velocity=0, time=5),
    Message('note_on', channel=6, note=60, velocity=0, time=0),
    Message('note_on', channel=6, note=55, velocity=0, time=0),
    Message('note_on', channel=13, note=60, velocity=0, time=0),
    Message('note_on', channel=13, note=55, velocity=0, time=0),
    Message('note_on', channel=2, note=76, velocity=0, time=0),
    Message('note_on', channel=1, note=43, velocity=104, time=0),
    Message('note_on', channel=2, note=71, velocity=70, time=0),
    Message('note_on', channel=2, note=74, velocity=61, time=0),
    Message('note_on', channel=4, note=43, velocity=86, time=0),
    Message('note_on', channel=4, note=50, velocity=86, time=0),
    Message('note_on', channel=6, note=62, velocity=80, time=0),
    Message('note_on', channel=6, note=55, velocity=80, time=0),
    Message('note_on', channel=8, note=55, velocity=80, time=0),
    Message('note_on', channel=9, note=44, velocity=80, time=0),
    Message('note_on', channel=9, note=36, velocity=120, time=0),
    Message('note_on', channel=13, note=62, velocity=80, time=0),
    Message('note_on', channel=13, note=55, velocity=80, time=0),
    Message('note_on', channel=9, note=36, velocity=0, time=4),
    Message('note_on', channel=8, note=64, velocity=0, time=0),
    Message('note_on', channel=9, note=44, velocity=0, time=1),
    Message('note_on', channel=8, note=59, velocity=80, time=11),
    Message('note_on', channel=8, note=62, velocity=80, time=7),
    Message('note_on', channel=4, note=50, velocity=0, time=169),
    Message('note_on', channel=4, note=43, velocity=0, time=0),
    Message('note_on', channel=3, note=62, velocity=0, time=48),
    Message('note_on', channel=3, note=62, velocity=100, time=0),
    Message('note_on', channel=4, note=50, velocity=69, time=0),
    Message('note_on', channel=4, note=43, velocity=69, time=0),
    Message('note_on', channel=9, note=42, velocity=80, time=0),
    MetaMessage('lyrics', text='your ', time=0),
    Message('note_on', channel=9, note=42, velocity=0, time=5),
    Message('control_change', channel=13, control=1, value=58, time=9),
    Message('note_on', channel=1, note=43, velocity=0, time=178),
    Message('note_on', channel=4, note=43, velocity=0, time=0),
    Message('note_on', channel=4, note=50, velocity=0, time=0),
    Message('note_on', channel=8, note=62, velocity=0, time=18),
    Message('note_on', channel=8, note=55, velocity=0, time=11),
    Message('note_on', channel=8, note=59, velocity=0, time=16),
    Message('note_on', channel=13, note=55, velocity=0, time=3),
    Message('note_on', channel=6, note=62, velocity=0, time=0),
    Message('note_on', channel=6, note=55, velocity=0, time=0),
    Message('note_on', channel=13, note=62, velocity=0, time=0),
    Message('note_on', channel=4, note=43, velocity=83, time=0),
    Message('note_on', channel=4, note=52, velocity=83, time=0),
    Message('note_on', channel=6, note=55, velocity=80, time=0),
    Message('note_on', channel=6, note=62, velocity=80, time=0),
    Message('note_on', channel=9, note=54, velocity=50, time=0),
    Message('note_on', channel=9, note=44, velocity=80, time=0),
    Message('note_on', channel=9, note=38, velocity=120, time=0),
    Message('control_change', channel=13, control=1, value=0, time=0),
    Message('note_on', channel=13, note=55, velocity=80, time=0),
    Message('note_on', channel=13, note=62, velocity=80, time=0),
    Message('note_on', channel=9, note=38, velocity=0, time=4),
    Message('note_on', channel=9, note=54, velocity=0, time=0),
    Message('note_on', channel=9, note=44, velocity=0, time=1),
    Message('note_on', channel=8, note=55, velocity=59, time=4),
    Message('note_on', channel=8, note=59, velocity=59, time=6),
    Message('note_on', channel=8, note=62, velocity=59, time=4),
    Message('note_on', channel=4, note=52, velocity=0, time=173),
    Message('note_on', channel=4, note=43, velocity=0, time=0),
    Message('note_on', channel=8, note=55, velocity=0, time=14),
    Message('note_on', channel=8, note=59, velocity=0, time=13),
    Message('note_on', channel=8, note=62, velocity=0, time=4),
    Message('note_on', channel=3, note=62, velocity=0, time=17),
    Message('note_on', channel=1, note=43, velocity=104, time=0),
    Message('note_on', channel=3, note=62, velocity=100, time=0),
    Message('note_on', channel=4, note=47, velocity=72, time=0),
    Message('note_on', channel=4, note=43, velocity=72, time=0),
    Message('note_on', channel=8, note=62, velocity=50, time=0),
    Message('note_on', channel=8, note=55, velocity=50, time=0),
    Message('note_on', channel=8, note=59, velocity=50, time=0),
    Message('note_on', channel=9, note=36, velocity=120, time=0),
    Message('note_on', channel=9, note=42, velocity=80, time=0),
    MetaMessage('lyrics', text='self ', time=0),
    Message('note_on', channel=9, note=42, velocity=0, time=5),
    Message('note_on', channel=9, note=36, velocity=0, time=11),
    Message('note_on', channel=8, note=59, velocity=0, time=68),
    Message('note_on', channel=8, note=62, velocity=0, time=0),
    Message('note_on', channel=8, note=55, velocity=0, time=7),
    Message('note_on', channel=4, note=47, velocity=0, time=101),
    Message('note_on', channel=4, note=43, velocity=0, time=0),
    Message('note_on', channel=1, note=43, velocity=0, time=24),
    Message('note_on', channel=13, note=62, velocity=0, time=24),
    Message('note_on', channel=6, note=62, velocity=0, time=0),
    Message('note_on', channel=6, note=55, velocity=0, time=0),
    Message('note_on', channel=13, note=55, velocity=0, time=0),
    Message('note_on', channel=1, note=43, velocity=104, time=0),
    Message('note_on', channel=4, note=43, velocity=80, time=0),
    Message('note_on', channel=4, note=50, velocity=80, time=0),
    Message('note_on', channel=8, note=62, velocity=78, time=0),
    Message('note_on', channel=9, note=36, velocity=120, time=0),
    Message('note_on', channel=9, note=44, velocity=80, time=0),
    Message('note_on', channel=9, note=36, velocity=0, time=4),
    Message('note_on', channel=9, note=44, velocity=0, time=1),
    Message('note_on', channel=8, note=55, velocity=78, time=5),
    Message('note_on', channel=8, note=59, velocity=78, time=18),
    Message('note_on', channel=4, note=50, velocity=0, time=164),
    Message('note_on', channel=4, note=43, velocity=0, time=0),
    Message('note_on', channel=1, note=43, velocity=0, time=24),
    Message('note_on', channel=8, note=62, velocity=0, time=14),
    Message('note_on', channel=8, note=59, velocity=0, time=5),
    Message('note_on', channel=8, note=55, velocity=0, time=5),
    Message('note_on', channel=1, note=43, velocity=104, time=0),
    Message('note_on', channel=3, note=60, velocity=100, time=0),
    Message('note_on', channel=4, note=50, velocity=71, time=0),
    Message('note_on', channel=4, note=43, velocity=71, time=0),
    Message('note_on', channel=6, note=55, velocity=80, time=0),
    Message('note_on', channel=6, note=62, velocity=80, time=0),
    Message('note_on', channel=8, note=59, velocity=63, time=0),
    Message('note_on', channel=9, note=42, velocity=80, time=0),
    Message('note_on', channel=13, note=55, velocity=80, time=0),
    Message('note_on', channel=13, note=62, velocity=80, time=0),
    MetaMessage('lyrics', text='to ', time=0),
    Message('note_on', channel=9, note=42, velocity=0, time=5),
    Message('note_on', channel=8, note=55, velocity=63, time=14),
    Message('note_on', channel=8, note=62, velocity=63, time=5),
    Message('note_on', channel=3, note=62, velocity=0, time=2),
    Message('note_on', channel=8, note=59, velocity=0, time=136),
    Message('note_on', channel=8, note=62, velocity=0, time=24),
    Message('note_on', channel=8, note=55, velocity=0, time=2),
    Message('note_on', channel=4, note=50, velocity=0, time=4),
    Message('note_on', channel=4, note=43, velocity=0, time=0),
    Message('note_on', channel=1, note=43, velocity=0, time=24),
    Message('note_on', channel=6, note=55, velocity=0, time=24),
    Message('note_on', channel=6, note=62, velocity=0, time=0),
    Message('note_on', channel=13, note=62, velocity=0, time=0),
    Message('note_on', channel=3, note=60, velocity=0, time=0),
    Message('note_on', channel=13, note=55, velocity=0, time=0),
    Message('note_on', channel=1, note=43, velocity=104, time=0),
    Message('note_on', channel=3, note=60, velocity=100, time=0),
    Message('note_on', channel=4, note=43, velocity=86, time=0),
    Message('note_on', channel=4, note=52, velocity=86, time=0),
    Message('note_on', channel=6, note=55, velocity=80, time=0),
    Message('note_on', channel=6, note=62, velocity=80, time=0),
    Message('note_on', channel=8, note=62, velocity=48, time=0),
    Message('note_on', channel=9, note=44, velocity=80, time=0),
    Message('note_on', channel=9, note=54, velocity=50, time=0),
    Message('note_on', channel=9, note=38, velocity=120, time=0),
    Message('note_on', channel=13, note=55, velocity=80, time=0),
    Message('note_on', channel=13, note=62, velocity=80, time=0),
    MetaMessage('lyrics', text='sleep, ', time=0),
    MetaMessage('lyrics', text='\r', time=0),
    Message('note_on', channel=9, note=38, velocity=0, time=4),
    Message('note_on', channel=9, note=54, velocity=0, time=0),
    Message('note_on', channel=9, note=44, velocity=0, time=1),
    Message('note_on', channel=8, note=55, velocity=48, time=13),
    Message('note_on', channel=8, note=59, velocity=48, time=5),
    Message('note_on', channel=4, note=52, velocity=0, time=169),
    Message('note_on', channel=4, note=43, velocity=0, time=0),
    Message('note_on', channel=1, note=43, velocity=0, time=24),
    Message('pitchwheel', channel=3, pitch=-8192, time=6),
    Message('note_on', channel=8, note=62, velocity=0, time=8),
    Message('note_on', channel=8, note=55, velocity=0, time=9),
    Message('note_on', channel=8, note=59, velocity=0, time=0),
    Message('note_on', channel=3, note=60, velocity=0, time=1),
    Message('note_on', channel=1, note=43, velocity=104, time=0),
    Message('note_on', channel=3, note=69, velocity=100, time=0),
    Message('note_on', channel=4, note=43, velocity=70, time=0),
    Message('note_on', channel=4, note=47, velocity=70, time=0),
    Message('note_on', channel=8, note=59, velocity=70, time=0),
    Message('note_on', channel=9, note=42, velocity=80, time=0),
    MetaMessage('lyrics', text='sleep ', time=0),
    Message('note_on', channel=9, note=42, velocity=0, time=5),
    Message('note_on', channel=8, note=55, velocity=70, time=14),
    Message('note_on', channel=8, note=62, velocity=70, time=14),
    Message('pitchwheel', channel=3, pitch=-8192, time=64),
    Message('pitchwheel', channel=3, pitch=-7680, time=9),
    Message('pitchwheel', channel=3, pitch=-7168, time=9),
    Message('pitchwheel', channel=3, pitch=-6656, time=9),
    Message('pitchwheel', channel=3, pitch=-6144, time=9),
    Message('pitchwheel', channel=3, pitch=-5632, time=9),
    Message('pitchwheel', channel=3, pitch=-5120, time=9),
    Message('pitchwheel', channel=3, pitch=-4608, time=9),
    Message('pitchwheel', channel=3, pitch=-4096, time=8),
    Message('pitchwheel', channel=3, pitch=-3584, time=9),
    Message('pitchwheel', channel=3, pitch=-3072, time=9),
    Message('note_on', channel=4, note=43, velocity=0, time=6),
    Message('note_on', channel=4, note=47, velocity=0, time=0),
    Message('pitchwheel', channel=3, pitch=-2560, time=3),
    Message('pitchwheel', channel=3, pitch=-2048, time=9),
    Message('pitchwheel', channel=3, pitch=-1536, time=9),
    Message('note_on', channel=1, note=43, velocity=0, time=3),
    Message('pitchwheel', channel=3, pitch=-1024, time=6),
    Message('note_on', channel=6, note=62, velocity=0, time=2),
    Message('note_on', channel=13, note=62, velocity=0, time=0),
    Message('note_on', channel=8, note=59, velocity=0, time=6),
    Message('note_on', channel=6, note=55, velocity=0, time=1),
    Message('note_on', channel=13, note=55, velocity=0, time=0),
    Message('pitchwheel', channel=3, pitch=-512, time=0),
    Message('note_on', channel=8, note=55, velocity=0, time=4),
    Message('note_on', channel=2, note=74, velocity=0, time=5),
    Message('note_on', channel=2, note=71, velocity=0, time=0),
    Message('note_on', channel=1, note=48, velocity=104, time=0),
    Message('note_on', channel=2, note=72, velocity=70, time=0),
    Message('note_on', channel=2, note=76, velocity=54, time=0),
    Message('pitchwheel', channel=3, pitch=0, time=0),
    Message('note_on', channel=4, note=55, velocity=86, time=0),
    Message('note_on', channel=4, note=48, velocity=86, time=0),
    Message('note_on', channel=6, note=55, velocity=80, time=0),
    Message('note_on', channel=6, note=60, velocity=80, time=0),
    Message('note_on', channel=8, note=55, velocity=80, time=0),
    Message('note_on', channel=9, note=49, velocity=80, time=0),
    Message('note_on', channel=9, note=36, velocity=120, time=0),
    Message('note_on', channel=13, note=55, velocity=80, time=0),
    Message('note_on', channel=13, note=60, velocity=80, time=0),
    Message('note_on', channel=9, note=36, velocity=0, time=4),
    Message('note_on', channel=8, note=62, velocity=0, time=0),
    Message('note_on', channel=9, note=49, velocity=0, time=1),
    Message('note_on', channel=8, note=60, velocity=80, time=11),
    Message('note_on', channel=8, note=64, velocity=80, time=7),
    Message('note_on', channel=4, note=48, velocity=0, time=169),
    Message('note_on', channel=4, note=55, velocity=0, time=0),
    Message('note_on', channel=1, note=48, velocity=0, time=24),
    Message('control_change', channel=13, control=1, value=64, time=2),
    Message('note_on', channel=3, note=69, velocity=0, time=22),
    Message('note_on', channel=1, note=48, velocity=104, time=0),
    Message('note_on', channel=3, note=67, velocity=100, time=0),
    Message('note_on', channel=4, note=55, velocity=69, time=0),
    Message('note_on', channel=4, note=48, velocity=69, time=0),
    Message('note_on', channel=9, note=42, velocity=80, time=0),
    MetaMessage('lyrics', text='tight ', time=0),
    Message('note_on', channel=9, note=42, velocity=0, time=5),
    Message('note_on', channel=4, note=48, velocity=0, time=187),
    Message('note_on', channel=4, note=55, velocity=0, time=0),
    Message('note_on', channel=8, note=64, velocity=0, time=18),
    Message('note_on', channel=1, note=48, velocity=0, time=6),
    Message('note_on', channel=8, note=55, velocity=0, time=5),
    Message('control_change', channel=13, control=1, value=0, time=4),
    Message('note_on', channel=8, note=60, velocity=0, time=12),
    Message('note_on', channel=13, note=55, velocity=0, time=3),
    Message('note_on', channel=6, note=55, velocity=0, time=0),
    Message('note_on', channel=6, note=60, velocity=0, time=0),
    Message('note_on', channel=13, note=60, velocity=0, time=0),
    Message('note_on', channel=4, note=48, velocity=83, time=0),
    Message('note_on', channel=4, note=57, velocity=83, time=0),
    Message('note_on', channel=6, note=60, velocity=80, time=0),
    Message('note_on', channel=6, note=55, velocity=80, time=0),
    Message('note_on', channel=9, note=54, velocity=50, time=0),
    Message('note_on', channel=9, note=44, velocity=80, time=0),
    Message('note_on', channel=9, note=38, velocity=120, time=0),
    Message('note_on', channel=13, note=60, velocity=80, time=0),
    Message('note_on', channel=13, note=55, velocity=80, time=0),
    Message('note_on', channel=9, note=38, velocity=0, time=4),
    Message('note_on', channel=9, note=54, velocity=0, time=0),
    Message('note_on', channel=9, note=44, velocity=0, time=1),
    Message('note_on', channel=8, note=55, velocity=59, time=4),
    Message('note_on', channel=8, note=60, velocity=59, time=6),
    Message('note_on', channel=8, note=64, velocity=59, time=4),
    Message('note_on', channel=4, note=57, velocity=0, time=173),
    Message('note_on', channel=4, note=48, velocity=0, time=0),
    Message('note_on', channel=8, note=55, velocity=0, time=14),
    Message('pitchwheel', channel=3, pitch=8191, time=7),
    Message('note_on', channel=8, note=60, velocity=0, time=6),
    Message('note_on', channel=8, note=64, velocity=0, time=4),
    Message('note_on', channel=3, note=67, velocity=0, time=8),
    Message('note_on', channel=1, note=48, velocity=104, time=9),
    Message('note_on', channel=3, note=62, velocity=100, time=0),
    Message('note_on', channel=4, note=48, velocity=72, time=0),
    Message('note_on', channel=4, note=52, velocity=72, time=0),
    Message('note_on', channel=8, note=55, velocity=50, time=0),
    Message('note_on', channel=8, note=60, velocity=50, time=0),
    Message('note_on', channel=8, note=64, velocity=50, time=0),
    Message('note_on', channel=9, note=36, velocity=120, time=0),
    Message('note_on', channel=9, note=42, velocity=80, time=0),
    MetaMessage('lyrics', text='ba', time=0),
    Message('note_on', channel=9, note=42, velocity=0, time=5),
    Message('note_on', channel=9, note=36, velocity=0, time=11),
    Message('note_on', channel=8, note=64, velocity=0, time=68),
    Message('note_on', channel=8, note=60, velocity=0, time=0),
    Message('note_on', channel=8, note=55, velocity=0, time=7),
    Message('pitchwheel', channel=3, pitch=8064, time=42),
    Message('pitchwheel', channel=3, pitch=7552, time=9),
    Message('pitchwheel', channel=3, pitch=6912, time=9),
    Message('pitchwheel', channel=3, pitch=6272, time=9),
    Message('pitchwheel', channel=3, pitch=5632, time=8),
    Message('pitchwheel', channel=3, pitch=4992, time=9),
    Message('pitchwheel', channel=3, pitch=4352, time=9),
    Message('note_on', channel=4, note=48, velocity=0, time=6),
    Message('note_on', channel=4, note=52, velocity=0, time=0),
    Message('pitchwheel', channel=3, pitch=3840, time=3),
    Message('pitchwheel', channel=3, pitch=3200, time=9),
    Message('pitchwheel', channel=3, pitch=2560, time=9),
    Message('note_on', channel=1, note=48, velocity=0, time=3),
    Message('pitchwheel', channel=3, pitch=1920, time=6),
    Message('pitchwheel', channel=3, pitch=1280, time=9),
    Message('note_on', channel=13, note=55, velocity=0, time=9),
    Message('note_on', channel=6, note=55, velocity=0, time=0),
    Message('note_on', channel=6, note=60, velocity=0, time=0),
    Message('note_on', channel=13, note=60, velocity=0, time=0),
    Message('note_on', channel=1, note=48, velocity=104, time=0),
    Message('pitchwheel', channel=3, pitch=640, time=0),
    Message('note_on', channel=4, note=48, velocity=80, time=0),
    Message('note_on', channel=4, note=55, velocity=80, time=0),
    Message('note_on', channel=8, note=64, velocity=78, time=0),
    Message('note_on', channel=9, note=44, velocity=80, time=0),
    Message('note_on', channel=9, note=36, velocity=120, time=0),
    Message('note_on', channel=9, note=36, velocity=0, time=4),
    Message('note_on', channel=9, note=44, velocity=0, time=1),
    Message('pitchwheel', channel=3, pitch=0, time=3),
    Message('note_on', channel=8, note=55, velocity=78, time=2),
    Message('note_on', channel=8, note=60, velocity=78, time=18),
    Message('note_on', channel=4, note=55, velocity=0, time=164),
    Message('note_on', channel=4, note=48, velocity=0, time=0),
    Message('note_on', channel=1, note=48, velocity=0, time=24),
    Message('note_on', channel=8, note=64, velocity=0, time=14),
    Message('note_on', channel=8, note=60, velocity=0, time=5),
    Message('note_on', channel=8, note=55, velocity=0, time=5),
    Message('note_on', channel=3, note=62, velocity=0, time=0),
    Message('note_on', channel=1, note=48, velocity=104, time=0),
    Message('note_on', channel=3, note=60, velocity=100, time=0),
    Message('note_on', channel=4, note=48, velocity=71, time=0),
    Message('note_on', channel=4, note=55, velocity=71, time=0),
    Message('note_on', channel=6, note=60, velocity=80, time=0),
    Message('note_on', channel=6, note=55, velocity=80, time=0),
    Message('note_on', channel=8, note=60, velocity=63, time=0),
    Message('note_on', channel=9, note=42, velocity=80, time=0),
    Message('note_on', channel=13, note=60, velocity=80, time=0),
    Message('note_on', channel=13, note=55, velocity=80, time=0),
    MetaMessage('lyrics', text='by, ', time=0),
    MetaMessage('lyrics', text='\r', time=0),
    Message('note_on', channel=9, note=42, velocity=0, time=5),
    Message('note_on', channel=8, note=55, velocity=63, time=14),
    Message('note_on', channel=8, note=64, velocity=63, time=5),
    Message('note_on', channel=8, note=60, velocity=0, time=138),
    Message('note_on', channel=8, note=64, velocity=0, time=24),
    Message('note_on', channel=8, note=55, velocity=0, time=2),
    Message('note_on', channel=4, note=55, velocity=0, time=4),
    Message('note_on', channel=4, note=48, velocity=0, time=0),
    Message('note_on', channel=1, note=48, velocity=0, time=24),
    Message('note_on', channel=6, note=60, velocity=0, time=24),
    Message('note_on', channel=13, note=60, velocity=0, time=0),
    Message('note_on', channel=6, note=55, velocity=0, time=0),
    Message('note_on', channel=13, note=55, velocity=0, time=0),
    Message('note_on', channel=4, note=57, velocity=86, time=0),
    Message('note_on', channel=4, note=48, velocity=86, time=0),
    Message('note_on', channel=6, note=55, velocity=80, time=0),
    Message('note_on', channel=6, note=60, velocity=80, time=0),
    Message('note_on', channel=8, note=64, velocity=48, time=0),
    Message('note_on', channel=9, note=54, velocity=50, time=0),
    Message('note_on', channel=9, note=44, velocity=80, time=0),
    Message('note_on', channel=9, note=38, velocity=120, time=0),
    Message('note_on', channel=13, note=55, velocity=80, time=0),
    Message('note_on', channel=13, note=60, velocity=80, time=0),
    Message('note_on', channel=9, note=38, velocity=0, time=4),
    Message('note_on', channel=9, note=54, velocity=0, time=0),
    Message('note_on', channel=9, note=44, velocity=0, time=1),
    Message('note_on', channel=8, note=55, velocity=48, time=13),
    Message('note_on', channel=8, note=60, velocity=48, time=5),
    Message('note_on', channel=4, note=48, velocity=0, time=169),
    Message('note_on', channel=4, note=57, velocity=0, time=0),
    Message('note_on', channel=8, note=64, velocity=0, time=38),
    Message('note_on', channel=8, note=55, velocity=0, time=9),
    Message('note_on', channel=8, note=60, velocity=0, time=0),
    Message('note_on', channel=3, note=60, velocity=0, time=1),
    Message('note_on', channel=1, note=48, velocity=104, time=0),
    Message('note_on', channel=3, note=62, velocity=100, time=0),
    Message('note_on', channel=4, note=52, velocity=70, time=0),
    Message('note_on', channel=4, note=48, velocity=70, time=0),
    Message('note_on', channel=8, note=60, velocity=70, time=0),
    Message('note_on', channel=9, note=42, velocity=80, time=0),
    MetaMessage('lyrics', text='rock ', time=0),
    Message('note_on', channel=9, note=42, velocity=0, time=5),
    Message('note_on', channel=8, note=55, velocity=70, time=14),
    Message('note_on', channel=8, note=64, velocity=70, time=14),
    Message('note_on', channel=4, note=52, velocity=0, time=159),
    Message('note_on', channel=4, note=48, velocity=0, time=0),
    Message('note_on', channel=1, note=48, velocity=0, time=24),
    Message('note_on', channel=8, note=60, velocity=0, time=14),
    Message('note_on', channel=8, note=55, velocity=0, time=5),
    Message('note_on', channel=2, note=76, velocity=0, time=5),
    Message('note_on', channel=6, note=55, velocity=0, time=0),
    Message('note_on', channel=2, note=72, velocity=0, time=0),
    Message('note_on', channel=13, note=60, velocity=0, time=0),
    Message('note_on', channel=13, note=55, velocity=0, time=0),
    Message('note_on', channel=6, note=60, velocity=0, time=0),
    Message('note_on', channel=1, note=43, velocity=104, time=0),
    Message('note_on', channel=2, note=71, velocity=66, time=0),
    Message('note_on', channel=2, note=74, velocity=68, time=0),
    Message('note_on', channel=4, note=50, velocity=86, time=0),
    Message('note_on', channel=4, note=43, velocity=86, time=0),
    Message('note_on', channel=6, note=62, velocity=80, time=0),
    Message('note_on', channel=6, note=55, velocity=80, time=0),
    Message('note_on', channel=8, note=55, velocity=80, time=0),
    Message('note_on', channel=9, note=44, velocity=80, time=0),
    Message('note_on', channel=9, note=36, velocity=120, time=0),
    Message('note_on', channel=13, note=62, velocity=80, time=0),
    Message('note_on', channel=13, note=55, velocity=80, time=0),
    Message('note_on', channel=9, note=36, velocity=0, time=4),
    Message('note_on', channel=8, note=64, velocity=0, time=0),
    Message('note_on', channel=9, note=44, velocity=0, time=1),
    Message('note_on', channel=8, note=59, velocity=80, time=11),
    Message('note_on', channel=8, note=62, velocity=80, time=7),
    Message('note_on', channel=4, note=43, velocity=0, time=169),
    Message('note_on', channel=4, note=50, velocity=0, time=0),
    Message('note_on', channel=1, note=43, velocity=0, time=24),
    Message('note_on', channel=3, note=62, velocity=0, time=24),
    Message('note_on', channel=1, note=43, velocity=104, time=0),
    Message('note_on', channel=3, note=62, velocity=100, time=0),
    Message('note_on', channel=4, note=50, velocity=69, time=0),
    Message('note_on', channel=4, note=43, velocity=69, time=0),
    Message('note_on', channel=9, note=42, velocity=80, time=0),
    MetaMessage('lyrics', text='yourself ', time=0),
    Message('note_on', channel=9, note=42, velocity=0, time=5),
    Message('control_change', channel=13, control=1, value=61, time=16),
    Message('note_on', channel=4, note=43, velocity=0, time=171),
    Message('note_on', channel=4, note=50, velocity=0, time=0),
    Message('note_on', channel=8, note=62, velocity=0, time=18),
    Message('note_on', channel=1, note=43, velocity=0, time=6),
    Message('note_on', channel=8, note=55, velocity=0, time=5),
    Message('note_on', channel=8, note=59, velocity=0, time=16),
    Message('note_on', channel=13, note=55, velocity=0, time=3),
    Message('note_on', channel=6, note=62, velocity=0, time=0),
    Message('note_on', channel=13, note=62, velocity=0, time=0),
    Message('note_on', channel=6, note=55, velocity=0, time=0),
    Message('note_on', channel=4, note=52, velocity=83, time=0),
    Message('note_on', channel=4, note=43, velocity=83, time=0),
    Message('note_on', channel=6, note=55, velocity=80, time=0),
    Message('note_on', channel=6, note=62, velocity=80, time=0),
    Message('note_on', channel=9, note=54, velocity=50, time=0),
    Message('note_on', channel=9, note=44, velocity=80, time=0),
    Message('note_on', channel=9, note=38, velocity=120, time=0),
    Message('control_change', channel=13, control=1, value=0, time=0),
    Message('note_on', channel=13, note=55, velocity=80, time=0),
    Message('note_on', channel=13, note=62, velocity=80, time=0),
    Message('note_on', channel=9, note=38, velocity=0, time=4),
    Message('note_on', channel=9, note=54, velocity=0, time=0),
    Message('note_on', channel=9, note=44, velocity=0, time=1),
    Message('note_on', channel=8, note=55, velocity=59, time=4),
    Message('note_on', channel=8, note=59, velocity=59, time=6),
    Message('note_on', channel=8, note=62, velocity=59, time=4),
    Message('note_on', channel=4, note=43, velocity=0, time=173),
    Message('note_on', channel=4, note=52, velocity=0, time=0),
    Message('note_on', channel=8, note=55, velocity=0, time=14),
    Message('note_on', channel=8, note=59, velocity=0, time=13),
    Message('note_on', channel=8, note=62, velocity=0, time=4),
    Message('note_on', channel=3, note=62, velocity=0, time=17),
    Message('note_on', channel=1, note=43, velocity=104, time=0),
    Message('note_on', channel=3, note=62, velocity=100, time=0),
    Message('note_on', channel=4, note=47, velocity=72, time=0),
    Message('note_on', channel=4, note=43, velocity=72, time=0),
    Message('note_on', channel=8, note=59, velocity=50, time=0),
    Message('note_on', channel=8, note=62, velocity=50, time=0),
    Message('note_on', channel=8, note=55, velocity=50, time=0),
    Message('note_on', channel=9, note=42, velocity=80, time=0),
    MetaMessage('lyrics', text='to_sleep. ', time=0),
    MetaMessage('lyrics', text='\r', time=0),
    Message('note_on', channel=9, note=42, velocity=0, time=5),
    Message('note_on', channel=8, note=62, velocity=0, time=79),
    Message('note_on', channel=8, note=59, velocity=0, time=0),
    Message('note_on', channel=8, note=55, velocity=0, time=7),
    Message('note_on', channel=4, note=47, velocity=0, time=101),
    Message('note_on', channel=4, note=43, velocity=0, time=0),
    Message('note_on', channel=1, note=43, velocity=0, time=24),
    Message('pitchwheel', channel=3, pitch=0, time=15),
    Message('note_on', channel=13, note=62, velocity=0, time=9),
    Message('note_on', channel=6, note=62, velocity=0, time=0),
    Message('note_on', channel=6, note=55, velocity=0, time=0),
    Message('note_on', channel=13, note=55, velocity=0, time=0),
    Message('note_on', channel=1, note=43, velocity=104, time=0),
    Message('pitchwheel', channel=3, pitch=384, time=0),
    Message('note_on', channel=4, note=50, velocity=80, time=0),
    Message('note_on', channel=4, note=43, velocity=80, time=0),
    Message('note_on', channel=8, note=62, velocity=78, time=0),
    Message('note_on', channel=9, note=44, velocity=80, time=0),
    Message('note_on', channel=9, note=36, velocity=120, time=0),
    Message('note_on', channel=9, note=36, velocity=0, time=4),
    Message('note_on', channel=9, note=44, velocity=0, time=1),
    Message('pitchwheel', channel=3, pitch=768, time=3),
    Message('note_on', channel=8, note=55, velocity=78, time=2),
    Message('pitchwheel', channel=3, pitch=1152, time=7),
    Message('pitchwheel', channel=3, pitch=1536, time=9),
    Message('note_on', channel=8, note=59, velocity=78, time=2),
    Message('pitchwheel', channel=3, pitch=1920, time=7),
    Message('pitchwheel', channel=3, pitch=2304, time=9),
    Message('pitchwheel', channel=3, pitch=2688, time=9),
    Message('pitchwheel', channel=3, pitch=3072, time=9),
    Message('pitchwheel', channel=3, pitch=3456, time=9),
    Message('pitchwheel', channel=3, pitch=3840, time=9),
    Message('pitchwheel', channel=3, pitch=4224, time=8),
    Message('pitchwheel', channel=3, pitch=4608, time=9),
    Message('pitchwheel', channel=3, pitch=4992, time=9),
    Message('pitchwheel', channel=3, pitch=5376, time=9),
    Message('pitchwheel', channel=3, pitch=5760, time=9),
    Message('pitchwheel', channel=3, pitch=6144, time=9),
    Message('pitchwheel', channel=3, pitch=6528, time=9),
    Message('pitchwheel', channel=3, pitch=6912, time=9),
    Message('pitchwheel', channel=3, pitch=7296, time=9),
    Message('pitchwheel', channel=3, pitch=7680, time=8),
    Message('pitchwheel', channel=3, pitch=8191, time=9),
    Message('note_on', channel=4, note=43, velocity=0, time=15),
    Message('note_on', channel=4, note=50, velocity=0, time=0),
    Message('note_on', channel=1, note=43, velocity=0, time=24),
    Message('note_on', channel=8, note=62, velocity=0, time=14),
    Message('note_on', channel=8, note=59, velocity=0, time=5),
    Message('note_on', channel=8, note=55, velocity=0, time=5),
    Message('note_on', channel=3, note=62, velocity=0, time=0),
    Message('note_on', channel=1, note=43, velocity=104, time=0),
    Message('pitchwheel', channel=3, pitch=0, time=0),
    Message('note_on', channel=3, note=67, velocity=100, time=0),
    Message('note_on', channel=4, note=50, velocity=71, time=0),
    Message('note_on', channel=4, note=43, velocity=71, time=0),
    Message('note_on', channel=5, note=72, velocity=80, time=0),
    Message('note_on', channel=5, note=62, velocity=80, time=0),
    Message('note_on', channel=5, note=67, velocity=80, time=0),
    Message('note_on', channel=6, note=55, velocity=80, time=0),
    Message('note_on', channel=6, note=62, velocity=80, time=0),
    Message('note_on', channel=8, note=59, velocity=63, time=0),
    Message('note_on', channel=9, note=54, velocity=50, time=0),
    Message('note_on', channel=9, note=42, velocity=80, time=0),
    Message('note_on', channel=9, note=38, velocity=80, time=0),
    Message('note_on', channel=13, note=55, velocity=80, time=0),
    Message('note_on', channel=13, note=62, velocity=80, time=0),
    MetaMessage('lyrics', text='Bye ', time=0),
    Message('note_on', channel=9, note=38, velocity=0, time=4),
    Message('note_on', channel=9, note=54, velocity=0, time=0),
    Message('note_on', channel=9, note=42, velocity=0, time=1),
    Message('note_on', channel=8, note=55, velocity=63, time=14),
    Message('note_on', channel=8, note=62, velocity=63, time=5),
    Message('note_on', channel=8, note=59, velocity=0, time=138),
    Message('note_on', channel=8, note=62, velocity=0, time=24),
    Message('note_on', channel=8, note=55, velocity=0, time=2),
    Message('note_on', channel=4, note=50, velocity=0, time=4),
    Message('note_on', channel=4, note=43, velocity=0, time=0),
    Message('note_on', channel=1, note=43, velocity=0, time=24),
    Message('note_on', channel=6, note=55, velocity=0, time=24),
    Message('note_on', channel=5, note=62, velocity=0, time=0),
    Message('note_on', channel=13, note=62, velocity=0, time=0),
    Message('note_on', channel=3, note=67, velocity=0, time=0),
    Message('note_on', channel=13, note=55, velocity=0, time=0),
    Message('note_on', channel=5, note=72, velocity=0, time=0),
    Message('note_on', channel=5, note=67, velocity=0, time=0),
    Message('note_on', channel=6, note=62, velocity=0, time=0),
    Message('note_on', channel=1, note=43, velocity=104, time=0),
    Message('note_on', channel=3, note=67, velocity=100, time=0),
    Message('note_on', channel=4, note=52, velocity=86, time=0),
    Message('note_on', channel=4, note=43, velocity=86, time=0),
    Message('note_on', channel=5, note=72, velocity=80, time=0),
    Message('note_on', channel=5, note=67, velocity=80, time=0),
    Message('note_on', channel=5, note=62, velocity=80, time=0),
    Message('note_on', channel=6, note=55, velocity=80, time=0),
    Message('note_on', channel=6, note=62, velocity=80, time=0),
    Message('note_on', channel=8, note=62, velocity=48, time=0),
    Message('note_on', channel=9, note=44, velocity=80, time=0),
    Message('note_on', channel=9, note=54, velocity=50, time=0),
    Message('note_on', channel=9, note=38, velocity=100, time=0),
    Message('note_on', channel=13, note=55, velocity=80, time=0),
    Message('note_on', channel=13, note=62, velocity=80, time=0),
    MetaMessage('lyrics', text='bye ', time=0),
    Message('note_on', channel=9, note=38, velocity=0, time=4),
    Message('note_on', channel=9, note=54, velocity=0, time=0),
    Message('note_on', channel=9, note=44, velocity=0, time=1),
    Message('note_on', channel=8, note=55, velocity=48, time=13),
    Message('note_on', channel=8, note=59, velocity=48, time=5),
    Message('note_on', channel=4, note=43, velocity=0, time=169),
    Message('note_on', channel=4, note=52, velocity=0, time=0),
    Message('note_on', channel=1, note=43, velocity=0, time=24),
    Message('note_on', channel=8, note=62, velocity=0, time=14),
    Message('note_on', channel=8, note=59, velocity=0, time=9),
    Message('note_on', channel=8, note=55, velocity=0, time=0),
    Message('note_on', channel=5, note=62, velocity=0, time=1),
    Message('note_on', channel=3, note=67, velocity=0, time=0),
    Message('note_on', channel=5, note=67, velocity=0, time=0),
    Message('note_on', channel=5, note=72, velocity=0, time=0),
    Message('note_on', channel=1, note=43, velocity=104, time=0),
    Message('note_on', channel=3, note=67, velocity=100, time=0),
    Message('note_on', channel=4, note=43, velocity=70, time=0),
    Message('note_on', channel=4, note=47, velocity=70, time=0),
    Message('note_on', channel=5, note=67, velocity=80, time=0),
    Message('note_on', channel=5, note=62, velocity=80, time=0),
    Message('note_on', channel=5, note=72, velocity=80, time=0),
    Message('note_on', channel=8, note=59, velocity=70, time=0),
    Message('note_on', channel=9, note=54, velocity=50, time=0),
    Message('note_on', channel=9, note=42, velocity=80, time=0),
    Message('note_on', channel=9, note=38, velocity=120, time=0),
    MetaMessage('lyrics', text='bye, ', time=0),
    MetaMessage('lyrics', text='\r', time=0),
    Message('note_on', channel=9, note=38, velocity=0, time=4),
    Message('note_on', channel=9, note=54, velocity=0, time=0),
    Message('note_on', channel=9, note=42, velocity=0, time=1),
    Message('note_on', channel=8, note=55, velocity=70, time=14),
    Message('note_on', channel=8, note=62, velocity=70, time=14),
    Message('note_on', channel=4, note=43, velocity=0, time=159),
    Message('note_on', channel=4, note=47, velocity=0, time=0),
    Message('note_on', channel=1, note=43, velocity=0, time=24),
    Message('note_on', channel=6, note=62, velocity=0, time=8),
    Message('note_on', channel=13, note=62, velocity=0, time=0),
    Message('note_on', channel=8, note=59, velocity=0, time=6),
    Message('note_on', channel=13, note=55, velocity=0, time=1),
    Message('note_on', channel=6, note=55, velocity=0, time=0),
    Message('pitchwheel', channel=3, pitch=-8192, time=0),
    Message('pitchwheel', channel=5, pitch=-8192, time=0),
    Message('note_on', channel=8, note=55, velocity=0, time=4),
    Message('note_on', channel=2, note=74, velocity=0, time=5),
    Message('note_on', channel=3, note=67, velocity=0, time=0),
    Message('note_on', channel=5, note=72, velocity=0, time=0),
    Message('note_on', channel=5, note=62, velocity=0, time=0),
    Message('note_on', channel=2, note=71, velocity=0, time=0),
    Message('note_on', channel=5, note=67, velocity=0, time=0),
    Message('note_on', channel=1, note=48, velocity=104, time=0),
    Message('note_on', channel=2, note=72, velocity=70, time=0),
    Message('note_on', channel=2, note=76, velocity=54, time=0),
    Message('pitchwheel', channel=3, pitch=-7680, time=0),
    Message('note_on', channel=3, note=69, velocity=100, time=0),
    Message('note_on', channel=4, note=48, velocity=86, time=0),
    Message('note_on', channel=4, note=55, velocity=86, time=0),
    Message('pitchwheel', channel=5, pitch=-7680, time=0),
    Message('note_on', channel=5, note=69, velocity=80, time=0),
    Message('note_on', channel=5, note=74, velocity=80, time=0),
    Message('note_on', channel=5, note=64, velocity=80, time=0),
    Message('note_on', channel=6, note=60, velocity=80, time=0),
    Message('note_on', channel=6, note=55, velocity=80, time=0),
    Message('note_on', channel=8, note=55, velocity=80, time=0),
    Message('note_on', channel=9, note=49, velocity=80, time=0),
    Message('note_on', channel=9, note=36, velocity=120, time=0),
    Message('note_on', channel=13, note=60, velocity=80, time=0),
    Message('note_on', channel=13, note=55, velocity=80, time=0),
    MetaMessage('lyrics', text='bye ', time=0),
    Message('note_on', channel=9, note=36, velocity=0, time=4),
    Message('note_on', channel=8, note=62, velocity=0, time=0),
    Message('note_on', channel=9, note=49, velocity=0, time=1),
    Message('pitchwheel', channel=3, pitch=-7040, time=3),
    Message('pitchwheel', channel=5, pitch=-7040, time=0),
    Message('note_on', channel=8, note=60, velocity=80, time=8),
    Message('pitchwheel', channel=3, pitch=-6400, time=1),
    Message('pitchwheel', channel=5, pitch=-6400, time=0),
    Message('note_on', channel=8, note=64, velocity=80, time=6),
    Message('pitchwheel', channel=3, pitch=-5760, time=3),
    Message('pitchwheel', channel=5, pitch=-5760, time=0),
    Message('pitchwheel', channel=3, pitch=-5120, time=9),
    Message('pitchwheel', channel=5, pitch=-5120, time=0),
    Message('pitchwheel', channel=3, pitch=-4480, time=9),
    Message('pitchwheel', channel=5, pitch=-4480, time=0),
    Message('pitchwheel', channel=3, pitch=-3840, time=9),
    Message('pitchwheel', channel=5, pitch=-3840, time=0),
    Message('pitchwheel', channel=3, pitch=-3200, time=9),
    Message('pitchwheel', channel=5, pitch=-3200, time=0),
    Message('pitchwheel', channel=3, pitch=-2560, time=9),
    Message('pitchwheel', channel=5, pitch=-2560, time=0),
    Message('pitchwheel', channel=3, pitch=-1920, time=9),
    Message('pitchwheel', channel=5, pitch=-1920, time=0),
    Message('pitchwheel', channel=3, pitch=-1280, time=8),
    Message('pitchwheel', channel=5, pitch=-1280, time=0),
    Message('pitchwheel', channel=3, pitch=-640, time=9),
    Message('pitchwheel', channel=5, pitch=-640, time=0),
    Message('pitchwheel', channel=3, pitch=0, time=9),
    Message('pitchwheel', channel=5, pitch=0, time=0),
    Message('note_on', channel=4, note=55, velocity=0, time=86),
    Message('note_on', channel=4, note=48, velocity=0, time=0),
    Message('note_on', channel=1, note=48, velocity=0, time=24),
    Message('note_on', channel=1, note=48, velocity=104, time=24),
    Message('note_on', channel=4, note=48, velocity=69, time=0),
    Message('note_on', channel=4, note=55, velocity=69, time=0),
    Message('note_on', channel=9, note=42, velocity=80, time=0),
    Message('note_on', channel=9, note=42, velocity=0, time=5),
    Message('control_change', channel=13, control=1, value=62, time=9),
    Message('note_on', channel=4, note=55, velocity=0, time=178),
    Message('note_on', channel=4, note=48, velocity=0, time=0),
    Message('note_on', channel=8, note=64, velocity=0, time=18),
    Message('note_on', channel=1, note=48, velocity=0, time=6),
    Message('note_on', channel=8, note=55, velocity=0, time=5),
    Message('control_change', channel=13, control=1, value=0, time=11),
    Message('note_on', channel=8, note=60, velocity=0, time=5),
    Message('note_on', channel=6, note=60, velocity=0, time=3),
    Message('note_on', channel=5, note=74, velocity=0, time=0),
    Message('note_on', channel=13, note=60, velocity=0, time=0),
    Message('note_on', channel=13, note=55, velocity=0, time=0),
    Message('note_on', channel=5, note=64, velocity=0, time=0),
    Message('note_on', channel=5, note=69, velocity=0, time=0),
    Message('note_on', channel=3, note=69, velocity=0, time=0),
    Message('note_on', channel=6, note=55, velocity=0, time=0),
    Message('note_on', channel=3, note=67, velocity=100, time=0),
    Message('note_on', channel=4, note=48, velocity=83, time=0),
    Message('note_on', channel=4, note=57, velocity=83, time=0),
    Message('note_on', channel=5, note=64, velocity=80, time=0),
    Message('note_on', channel=5, note=72, velocity=80, time=0),
    Message('note_on', channel=5, note=67, velocity=80, time=0),
    Message('note_on', channel=6, note=55, velocity=80, time=0),
    Message('note_on', channel=6, note=60, velocity=80, time=0),
    Message('note_on', channel=9, note=54, velocity=50, time=0),
    Message('note_on', channel=9, note=44, velocity=80, time=0),
    Message('note_on', channel=9, note=38, velocity=120, time=0),
    Message('note_on', channel=13, note=55, velocity=80, time=0),
    Message('note_on', channel=13, note=60, velocity=80, time=0),
    MetaMessage('lyrics', text='bye, ', time=0),
    Message('note_on', channel=9, note=38, velocity=0, time=4),
    Message('note_on', channel=9, note=54, velocity=0, time=0),
    Message('note_on', channel=9, note=44, velocity=0, time=1),
    Message('note_on', channel=8, note=55, velocity=59, time=4),
    Message('note_on', channel=8, note=60, velocity=59, time=6),
    Message('note_on', channel=8, note=64, velocity=59, time=4),
    Message('note_on', channel=4, note=57, velocity=0, time=173),
    Message('note_on', channel=4, note=48, velocity=0, time=0),
    Message('note_on', channel=8, note=55, velocity=0, time=14),
    Message('note_on', channel=8, note=60, velocity=0, time=13),
    Message('note_on', channel=8, note=64, velocity=0, time=4),
    Message('note_on', channel=1, note=48, velocity=104, time=17),
    Message('note_on', channel=4, note=52, velocity=72, time=0),
    Message('note_on', channel=4, note=48, velocity=72, time=0),
    Message('note_on', channel=8, note=55, velocity=50, time=0),
    Message('note_on', channel=8, note=60, velocity=50, time=0),
    Message('note_on', channel=8, note=64, velocity=50, time=0),
    Message('note_on', channel=9, note=36, velocity=120, time=0),
    Message('note_on', channel=9, note=42, velocity=80, time=0),
    Message('note_on', channel=9, note=42, velocity=0, time=5),
    Message('note_on', channel=9, note=36, velocity=0, time=11),
    Message('note_on', channel=8, note=64, velocity=0, time=68),
    Message('note_on', channel=8, note=60, velocity=0, time=0),
    Message('note_on', channel=8, note=55, velocity=0, time=7),
    Message('note_on', channel=4, note=48, velocity=0, time=101),
    Message('note_on', channel=4, note=52, velocity=0, time=0),
    Message('note_on', channel=1, note=48, velocity=0, time=24),
    Message('pitchwheel', channel=3, pitch=8191, time=15),
    Message('pitchwheel', channel=5, pitch=8191, time=0),
    Message('note_on', channel=13, note=55, velocity=0, time=9),
    Message('note_on', channel=5, note=67, velocity=0, time=0),
    Message('note_on', channel=3, note=67, velocity=0, time=0),
    Message('note_on', channel=6, note=60, velocity=0, time=0),
    Message('note_on', channel=6, note=55, velocity=0, time=0),
    Message('note_on', channel=5, note=72, velocity=0, time=0),
    Message('note_on', channel=13, note=60, velocity=0, time=0),
    Message('note_on', channel=5, note=64, velocity=0, time=0),
    Message('note_on', channel=1, note=48, velocity=104, time=0),
    Message('note_on', channel=3, note=62, velocity=100, time=0),
    Message('note_on', channel=4, note=55, velocity=80, time=0),
    Message('note_on', channel=4, note=48, velocity=80, time=0),
    Message('note_on', channel=5, note=62, velocity=80, time=0),
    Message('note_on', channel=5, note=67, velocity=80, time=0),
    Message('note_on', channel=5, note=60, velocity=80, time=0),
    Message('note_on', channel=8, note=64, velocity=78, time=0),
    Message('note_on', channel=9, note=44, velocity=80, time=0),
    Message('note_on', channel=9, note=36, velocity=120, time=0),
    MetaMessage('lyrics', text='ba', time=0),
    Message('note_on', channel=9, note=36, velocity=0, time=4),
    Message('note_on', channel=9, note=44, velocity=0, time=1),
    Message('note_on', channel=8, note=55, velocity=78, time=5),
    Message('note_on', channel=8, note=60, velocity=78, time=18),
    Message('note_on', channel=4, note=55, velocity=0, time=164),
    Message('note_on', channel=4, note=48, velocity=0, time=0),
    Message('note_on', channel=1, note=48, velocity=0, time=24),
    Message('note_on', channel=8, note=64, velocity=0, time=14),
    Message('note_on', channel=8, note=60, velocity=0, time=5),
    Message('note_on', channel=8, note=55, velocity=0, time=5),
    Message('note_on', channel=1, note=48, velocity=104, time=0),
    Message('note_on', channel=4, note=55, velocity=71, time=0),
    Message('note_on', channel=4, note=48, velocity=71, time=0),
    Message('note_on', channel=6, note=55, velocity=80, time=0),
    Message('note_on', channel=6, note=60, velocity=80, time=0),
    Message('note_on', channel=8, note=60, velocity=63, time=0),
    Message('note_on', channel=9, note=42, velocity=80, time=0),
    Message('note_on', channel=13, note=55, velocity=80, time=0),
    Message('note_on', channel=13, note=60, velocity=80, time=0),
    Message('note_on', channel=9, note=42, velocity=0, time=5),
    Message('pitchwheel', channel=3, pitch=8191, time=12),
    Message('pitchwheel', channel=5, pitch=8191, time=0),
    Message('note_on', channel=8, note=55, velocity=63, time=2),
    Message('note_on', channel=8, note=64, velocity=63, time=5),
    Message('pitchwheel', channel=3, pitch=7936, time=2),
    Message('pitchwheel', channel=5, pitch=7936, time=0),
    Message('pitchwheel', channel=3, pitch=7552, time=9),
    Message('pitchwheel', channel=5, pitch=7552, time=0),
    Message('pitchwheel', channel=3, pitch=7296, time=9),
    Message('pitchwheel', channel=5, pitch=7296, time=0),
    Message('pitchwheel', channel=3, pitch=6912, time=9),
    Message('pitchwheel', channel=5, pitch=6912, time=0),
    Message('pitchwheel', channel=3, pitch=6528, time=9),
    Message('pitchwheel', channel=5, pitch=6528, time=0),
    Message('pitchwheel', channel=3, pitch=6272, time=9),
    Message('pitchwheel', channel=5, pitch=6272, time=0),
    Message('pitchwheel', channel=3, pitch=5888, time=9),
    Message('pitchwheel', channel=5, pitch=5888, time=0),
    Message('pitchwheel', channel=3, pitch=5504, time=8),
    Message('pitchwheel', channel=5, pitch=5504, time=0),
    Message('pitchwheel', channel=3, pitch=5248, time=9),
    Message('pitchwheel', channel=5, pitch=5248, time=0),
    Message('pitchwheel', channel=3, pitch=4864, time=9),
    Message('pitchwheel', channel=5, pitch=4864, time=0),
    Message('pitchwheel', channel=3, pitch=4608, time=9),
    Message('pitchwheel', channel=5, pitch=4608, time=0),
    Message('pitchwheel', channel=3, pitch=4224, time=9),
    Message('pitchwheel', channel=5, pitch=4224, time=0),
    Message('pitchwheel', channel=3, pitch=3840, time=9),
    Message('pitchwheel', channel=5, pitch=3840, time=0),
    Message('pitchwheel', channel=3, pitch=3584, time=9),
    Message('pitchwheel', channel=5, pitch=3584, time=0),
    Message('pitchwheel', channel=3, pitch=3200, time=9),
    Message('pitchwheel', channel=5, pitch=3200, time=0),
    Message('pitchwheel', channel=3, pitch=2816, time=9),
    Message('pitchwheel', channel=5, pitch=2816, time=0),
    Message('note_on', channel=8, note=60, velocity=0, time=2),
    Message('pitchwheel', channel=3, pitch=2560, time=6),
    Message('pitchwheel', channel=5, pitch=2560, time=0),
    Message('pitchwheel', channel=3, pitch=2176, time=9),
    Message('pitchwheel', channel=5, pitch=2176, time=0),
    Message('note_on', channel=8, note=64, velocity=0, time=9),
    Message('pitchwheel', channel=3, pitch=1920, time=0),
    Message('pitchwheel', channel=5, pitch=1920, time=0),
    Message('note_on', channel=8, note=55, velocity=0, time=2),
    Message('note_on', channel=4, note=55, velocity=0, time=4),
    Message('note_on', channel=4, note=48, velocity=0, time=0),
    Message('pitchwheel', channel=3, pitch=1536, time=3),
    Message('pitchwheel', channel=5, pitch=1536, time=0),
    Message('pitchwheel', channel=3, pitch=1152, time=9),
    Message('pitchwheel', channel=5, pitch=1152, time=0),
    Message('pitchwheel', channel=3, pitch=896, time=9),
    Message('pitchwheel', channel=5, pitch=896, time=0),
    Message('note_on', channel=1, note=48, velocity=0, time=3),
    Message('pitchwheel', channel=3, pitch=512, time=6),
    Message('pitchwheel', channel=5, pitch=512, time=0),
    Message('pitchwheel', channel=3, pitch=128, time=9),
    Message('pitchwheel', channel=5, pitch=128, time=0),
    Message('note_on', channel=5, note=67, velocity=0, time=9),
    Message('note_on', channel=6, note=55, velocity=0, time=0),
    Message('note_on', channel=13, note=60, velocity=0, time=0),
    Message('note_on', channel=5, note=62, velocity=0, time=0),
    Message('note_on', channel=5, note=60, velocity=0, time=0),
    Message('note_on', channel=13, note=55, velocity=0, time=0),
    Message('note_on', channel=3, note=62, velocity=0, time=0),
    Message('note_on', channel=6, note=60, velocity=0, time=0),
    Message('note_on', channel=3, note=60, velocity=100, time=0),
    Message('note_on', channel=4, note=57, velocity=86, time=0),
    Message('note_on', channel=4, note=48, velocity=86, time=0),
    Message('note_on', channel=5, note=64, velocity=80, time=0),
    Message('note_on', channel=5, note=60, velocity=80, time=0),
    Message('note_on', channel=5, note=55, velocity=80, time=0),
    Message('note_on', channel=6, note=55, velocity=80, time=0),
    Message('note_on', channel=6, note=60, velocity=80, time=0),
    Message('note_on', channel=8, note=64, velocity=48, time=0),
    Message('note_on', channel=9, note=54, velocity=50, time=0),
    Message('note_on', channel=9, note=44, velocity=80, time=0),
    Message('note_on', channel=9, note=38, velocity=120, time=0),
    Message('note_on', channel=13, note=55, velocity=80, time=0),
    Message('note_on', channel=13, note=60, velocity=80, time=0),
    MetaMessage('lyrics', text='by, ', time=0),
    MetaMessage('lyrics', text='\r', time=0),
    Message('note_on', channel=9, note=38, velocity=0, time=4),
    Message('note_on', channel=9, note=54, velocity=0, time=0),
    Message('note_on', channel=9, note=44, velocity=0, time=1),
    Message('note_on', channel=8, note=55, velocity=48, time=13),
    Message('note_on', channel=8, note=60, velocity=48, time=5),
    Message('note_on', channel=4, note=57, velocity=0, time=169),
    Message('note_on', channel=4, note=48, velocity=0, time=0),
    Message('note_on', channel=8, note=64, velocity=0, time=38),
    Message('note_on', channel=8, note=60, velocity=0, time=9),
    Message('note_on', channel=8, note=55, velocity=0, time=0),
    Message('note_on', channel=5, note=55, velocity=0, time=1),
    Message('note_on', channel=5, note=60, velocity=0, time=0),
    Message('note_on', channel=5, note=64, velocity=0, time=0),
    Message('note_on', channel=1, note=48, velocity=104, time=0),
    Message('note_on', channel=3, note=62, velocity=100, time=0),
    Message('note_on', channel=4, note=52, velocity=70, time=0),
    Message('note_on', channel=4, note=48, velocity=70, time=0),
    Message('note_on', channel=5, note=62, velocity=80, time=0),
    Message('note_on', channel=5, note=67, velocity=80, time=0),
    Message('note_on', channel=8, note=60, velocity=70, time=0),
    Message('note_on', channel=9, note=42, velocity=80, time=0),
    MetaMessage('lyrics', text='rock ', time=0),
    Message('note_on', channel=9, note=42, velocity=0, time=5),
    Message('note_on', channel=5, note=59, velocity=80, time=12),
    Message('note_on', channel=8, note=55, velocity=70, time=2),
    Message('note_on', channel=8, note=64, velocity=70, time=14),
    Message('note_on', channel=3, note=60, velocity=0, time=11),
    Message('note_on', channel=4, note=52, velocity=0, time=148),
    Message('note_on', channel=4, note=48, velocity=0, time=0),
    Message('note_on', channel=1, note=48, velocity=0, time=24),
    Message('note_on', channel=8, note=60, velocity=0, time=14),
    Message('note_on', channel=8, note=55, velocity=0, time=5),
    Message('note_on', channel=6, note=55, velocity=0, time=5),
    Message('note_on', channel=13, note=55, velocity=0, time=0),
    Message('note_on', channel=6, note=60, velocity=0, time=0),
    Message('note_on', channel=2, note=76, velocity=0, time=0),
    Message('note_on', channel=13, note=60, velocity=0, time=0),
    Message('note_on', channel=2, note=72, velocity=0, time=0),
    Message('note_on', channel=1, note=43, velocity=104, time=0),
    Message('note_on', channel=2, note=71, velocity=66, time=0),
    Message('note_on', channel=2, note=74, velocity=68, time=0),
    Message('note_on', channel=4, note=50, velocity=86, time=0),
    Message('note_on', channel=4, note=43, velocity=86, time=0),
    Message('note_on', channel=6, note=62, velocity=80, time=0),
    Message('note_on', channel=6, note=55, velocity=80, time=0),
    Message('note_on', channel=8, note=55, velocity=80, time=0),
    Message('note_on', channel=9, note=44, velocity=80, time=0),
    Message('note_on', channel=9, note=36, velocity=120, time=0),
    Message('note_on', channel=13, note=62, velocity=80, time=0),
    Message('note_on', channel=13, note=55, velocity=80, time=0),
    Message('note_on', channel=9, note=36, velocity=0, time=4),
    Message('note_on', channel=8, note=64, velocity=0, time=0),
    Message('note_on', channel=9, note=44, velocity=0, time=1),
    Message('note_on', channel=8, note=59, velocity=80, time=11),
    Message('note_on', channel=8, note=62, velocity=80, time=7),
    Message('note_on', channel=4, note=43, velocity=0, time=169),
    Message('note_on', channel=4, note=50, velocity=0, time=0),
    Message('note_on', channel=1, note=43, velocity=0, time=24),
    Message('control_change', channel=13, control=1, value=63, time=16),
    Message('note_on', channel=3, note=62, velocity=0, time=8),
    Message('note_on', channel=5, note=62, velocity=0, time=0),
    Message('note_on', channel=5, note=67, velocity=0, time=0),
    Message('note_on', channel=1, note=43, velocity=104, time=0),
    Message('note_on', channel=3, note=62, velocity=100, time=0),
    Message('note_on', channel=4, note=43, velocity=69, time=0),
    Message('note_on', channel=4, note=50, velocity=69, time=0),
    Message('note_on', channel=5, note=62, velocity=80, time=0),
    Message('note_on', channel=5, note=67, velocity=80, time=0),
    Message('note_on', channel=9, note=42, velocity=80, time=0),
    MetaMessage('lyrics', text='your', time=0),
    Message('note_on', channel=9, note=42, velocity=0, time=5),
    Message('note_on', channel=5, note=59, velocity=0, time=12),
    Message('note_on', channel=5, note=59, velocity=80, time=9),
    Message('note_on', channel=4, note=50, velocity=0, time=166),
    Message('note_on', channel=4, note=43, velocity=0, time=0),
    Message('note_on', channel=8, note=62, velocity=0, time=18),
    Message('note_on', channel=1, note=43, velocity=0, time=6),
    Message('note_on', channel=8, note=55, velocity=0, time=5),
    Message('note_on', channel=8, note=59, velocity=0, time=16),
    Message('note_on', channel=13, note=55, velocity=0, time=3),
    Message('note_on', channel=13, note=62, velocity=0, time=0),
    Message('note_on', channel=6, note=55, velocity=0, time=0),
    Message('note_on', channel=6, note=62, velocity=0, time=0),
    Message('note_on', channel=4, note=43, velocity=83, time=0),
    Message('note_on', channel=4, note=52, velocity=83, time=0),
    Message('note_on', channel=6, note=55, velocity=80, time=0),
    Message('note_on', channel=6, note=62, velocity=80, time=0),
    Message('note_on', channel=9, note=54, velocity=50, time=0),
    Message('note_on', channel=9, note=44, velocity=80, time=0),
    Message('note_on', channel=9, note=38, velocity=120, time=0),
    Message('control_change', channel=13, control=1, value=0, time=0),
    Message('note_on', channel=13, note=55, velocity=80, time=0),
    Message('note_on', channel=13, note=62, velocity=80, time=0),
    Message('note_on', channel=9, note=38, velocity=0, time=4),
    Message('note_on', channel=9, note=54, velocity=0, time=0),
    Message('note_on', channel=9, note=44, velocity=0, time=1),
    Message('note_on', channel=8, note=55, velocity=59, time=4),
    Message('note_on', channel=8, note=59, velocity=59, time=6),
    Message('note_on', channel=8, note=62, velocity=59, time=4),
    Message('note_on', channel=4, note=43, velocity=0, time=173),
    Message('note_on', channel=4, note=52, velocity=0, time=0),
    Message('note_on', channel=8, note=55, velocity=0, time=14),
    Message('note_on', channel=8, note=59, velocity=0, time=13),
    Message('note_on', channel=8, note=62, velocity=0, time=4),
    Message('note_on', channel=3, note=62, velocity=0, time=17),
    Message('note_on', channel=5, note=67, velocity=0, time=0),
    Message('note_on', channel=5, note=62, velocity=0, time=0),
    Message('note_on', channel=1, note=43, velocity=104, time=0),
    Message('note_on', channel=3, note=62, velocity=100, time=0),
    Message('note_on', channel=4, note=43, velocity=72, time=0),
    Message('note_on', channel=4, note=47, velocity=72, time=0),
    Message('note_on', channel=5, note=67, velocity=80, time=0),
    Message('note_on', channel=5, note=62, velocity=80, time=0),
    Message('note_on', channel=8, note=62, velocity=50, time=0),
    Message('note_on', channel=8, note=59, velocity=50, time=0),
    Message('note_on', channel=8, note=55, velocity=50, time=0),
    Message('note_on', channel=9, note=42, velocity=80, time=0),
    MetaMessage('lyrics', text='self ', time=0),
    Message('note_on', channel=9, note=42, velocity=0, time=5),
    Message('note_on', channel=5, note=59, velocity=0, time=21),
    Message('note_on', channel=5, note=59, velocity=80, time=0),
    Message('pitchwheel', channel=3, pitch=8191, time=18),
    Message('pitchwheel', channel=5, pitch=8191, time=0),
    Message('pitchwheel', channel=3, pitch=8064, time=36),
    Message('pitchwheel', channel=5, pitch=8064, time=0),
    Message('note_on', channel=8, note=59, velocity=0, time=4),
    Message('note_on', channel=8, note=62, velocity=0, time=0),
    Message('pitchwheel', channel=3, pitch=7424, time=4),
    Message('pitchwheel', channel=5, pitch=7424, time=0),
    Message('note_on', channel=8, note=55, velocity=0, time=3),
    Message('pitchwheel', channel=3, pitch=6784, time=6),
    Message('pitchwheel', channel=5, pitch=6784, time=0),
    Message('pitchwheel', channel=3, pitch=6144, time=9),
    Message('pitchwheel', channel=5, pitch=6144, time=0),
    Message('pitchwheel', channel=3, pitch=5376, time=9),
    Message('pitchwheel', channel=5, pitch=5376, time=0),
    Message('pitchwheel', channel=3, pitch=4736, time=9),
    Message('pitchwheel', channel=5, pitch=4736, time=0),
    Message('pitchwheel', channel=3, pitch=4096, time=9),
    Message('pitchwheel', channel=5, pitch=4096, time=0),
    Message('pitchwheel', channel=3, pitch=3456, time=9),
    Message('pitchwheel', channel=5, pitch=3456, time=0),
    Message('pitchwheel', channel=3, pitch=2688, time=9),
    Message('pitchwheel', channel=5, pitch=2688, time=0),
    Message('pitchwheel', channel=3, pitch=2048, time=9),
    Message('pitchwheel', channel=5, pitch=2048, time=0),
    Message('pitchwheel', channel=3, pitch=1408, time=8),
    Message('pitchwheel', channel=5, pitch=1408, time=0),
    Message('pitchwheel', channel=3, pitch=768, time=9),
    Message('pitchwheel', channel=5, pitch=768, time=0),
    Message('pitchwheel', channel=3, pitch=0, time=9),
    Message('pitchwheel', channel=5, pitch=0, time=0),
    Message('note_on', channel=4, note=43, velocity=0, time=6),
    Message('note_on', channel=4, note=47, velocity=0, time=0),
    Message('note_on', channel=1, note=43, velocity=0, time=24),
    Message('note_on', channel=6, note=62, velocity=0, time=24),
    Message('note_on', channel=6, note=55, velocity=0, time=0),
    Message('note_on', channel=13, note=55, velocity=0, time=0),
    Message('note_on', channel=13, note=62, velocity=0, time=0),
    Message('note_on', channel=1, note=43, velocity=104, time=0),
    Message('note_on', channel=4, note=43, velocity=80, time=0),
    Message('note_on', channel=4, note=50, velocity=80, time=0),
    Message('note_on', channel=8, note=62, velocity=78, time=0),
    Message('note_on', channel=9, note=45, velocity=80, time=0),
    Message('note_on', channel=9, note=44, velocity=80, time=0),
    Message('note_on', channel=9, note=36, velocity=120, time=0),
    Message('note_on', channel=9, note=36, velocity=0, time=4),
    Message('note_on', channel=9, note=45, velocity=0, time=0),
    Message('note_on', channel=9, note=44, velocity=0, time=1),
    Message('note_on', channel=8, note=55, velocity=78, time=5),
    Message('note_on', channel=8, note=59, velocity=78, time=18),
    Message('note_on', channel=4, note=43, velocity=0, time=164),
    Message('note_on', channel=4, note=50, velocity=0, time=0),
    Message('note_on', channel=1, note=43, velocity=0, time=24),
    Message('note_on', channel=8, note=62, velocity=0, time=14),
    Message('note_on', channel=8, note=59, velocity=0, time=5),
    Message('note_on', channel=8, note=55, velocity=0, time=5),
    Message('note_on', channel=1, note=43, velocity=104, time=0),
    Message('note_on', channel=4, note=50, velocity=71, time=0),
    Message('note_on', channel=4, note=43, velocity=71, time=0),
    Message('note_on', channel=6, note=55, velocity=80, time=0),
    Message('note_on', channel=6, note=62, velocity=80, time=0),
    Message('note_on', channel=8, note=59, velocity=63, time=0),
    Message('note_on', channel=9, note=42, velocity=80, time=0),
    Message('note_on', channel=13, note=55, velocity=80, time=0),
    Message('note_on', channel=13, note=62, velocity=80, time=0),
    Message('note_on', channel=9, note=42, velocity=0, time=5),
    Message('note_on', channel=8, note=55, velocity=63, time=14),
    Message('note_on', channel=8, note=62, velocity=63, time=5),
    Message('note_on', channel=9, note=43, velocity=100, time=96),
    Message('note_on', channel=9, note=43, velocity=0, time=4),
    Message('note_on', channel=8, note=59, velocity=0, time=38),
    Message('note_on', channel=8, note=62, velocity=0, time=24),
    Message('note_on', channel=8, note=55, velocity=0, time=2),
    Message('note_on', channel=4, note=50, velocity=0, time=4),
    Message('note_on', channel=4, note=43, velocity=0, time=0),
    Message('note_on', channel=1, note=43, velocity=0, time=24),
    Message('note_on', channel=5, note=62, velocity=0, time=24),
    Message('note_on', channel=6, note=55, velocity=0, time=0),
    Message('note_on', channel=13, note=62, velocity=0, time=0),
    Message('note_on', channel=5, note=67, velocity=0, time=0),
    Message('note_on', channel=3, note=62, velocity=0, time=0),
    Message('note_on', channel=13, note=55, velocity=0, time=0),
    Message('note_on', channel=6, note=62, velocity=0, time=0),
    Message('note_on', channel=1, note=43, velocity=104, time=0),
    Message('note_on', channel=3, note=59, velocity=100, time=0),
    Message('note_on', channel=4, note=52, velocity=86, time=0),
    Message('note_on', channel=4, note=43, velocity=86, time=0),
    Message('note_on', channel=5, note=59, velocity=80, time=0),
    Message('note_on', channel=5, note=64, velocity=80, time=0),
    Message('note_on', channel=6, note=62, velocity=80, time=0),
    Message('note_on', channel=6, note=55, velocity=80, time=0),
    Message('note_on', channel=8, note=62, velocity=48, time=0),
    Message('note_on', channel=9, note=44, velocity=80, time=0),
    Message('note_on', channel=9, note=41, velocity=106, time=0),
    Message('note_on', channel=13, note=62, velocity=80, time=0),
    Message('note_on', channel=13, note=55, velocity=80, time=0),
    MetaMessage('lyrics', text='to, ', time=0),
    Message('note_on', channel=9, note=41, velocity=0, time=4),
    Message('note_on', channel=9, note=44, velocity=0, time=1),
    Message('note_on', channel=8, note=55, velocity=48, time=13),
    Message('note_on', channel=8, note=59, velocity=48, time=5),
    Message('note_on', channel=5, note=59, velocity=0, time=3),
    Message('note_on', channel=4, note=43, velocity=0, time=166),
    Message('note_on', channel=4, note=52, velocity=0, time=0),
    Message('note_on', channel=1, note=43, velocity=0, time=24),
    Message('note_on', channel=8, note=62, velocity=0, time=14),
    Message('note_on', channel=8, note=55, velocity=0, time=9),
    Message('note_on', channel=8, note=59, velocity=0, time=0),
    Message('note_on', channel=5, note=64, velocity=0, time=1),
    Message('note_on', channel=13, note=62, velocity=0, time=0),
    Message('note_on', channel=5, note=59, velocity=0, time=0),
    Message('note_on', channel=6, note=62, velocity=0, time=0),
    Message('note_on', channel=3, note=59, velocity=0, time=0),
    Message('note_on', channel=6, note=55, velocity=0, time=0),
    Message('note_on', channel=13, note=55, velocity=0, time=0),
    Message('note_on', channel=1, note=43, velocity=104, time=0),
    Message('note_on', channel=3, note=60, velocity=100, time=0),
    Message('note_on', channel=4, note=43, velocity=70, time=0),
    Message('note_on', channel=4, note=47, velocity=70, time=0),
    Message('note_on', channel=5, note=60, velocity=80, time=0),
    Message('note_on', channel=6, note=55, velocity=80, time=0),
    Message('note_on', channel=6, note=64, velocity=80, time=0),
    Message('note_on', channel=8, note=59, velocity=70, time=0),
    Message('note_on', channel=9, note=41, velocity=120, time=0),
    Message('note_on', channel=9, note=42, velocity=80, time=0),
    Message('note_on', channel=13, note=55, velocity=80, time=0),
    Message('note_on', channel=13, note=64, velocity=80, time=0),
    MetaMessage('lyrics', text='sle', time=0),
    Message('note_on', channel=9, note=41, velocity=0, time=4),
    Message('note_on', channel=9, note=42, velocity=0, time=1),
    Message('note_on', channel=5, note=69, velocity=80, time=3),
    Message('note_on', channel=5, note=65, velocity=80, time=0),
    Message('note_on', channel=8, note=55, velocity=70, time=11),
    Message('note_on', channel=8, note=62, velocity=70, time=14),
    Message('note_on', channel=4, note=47, velocity=0, time=159),
    Message('note_on', channel=4, note=43, velocity=0, time=0),
    Message('note_on', channel=1, note=43, velocity=0, time=24),
    Message('note_on', channel=8, note=59, velocity=0, time=14),
    Message('note_on', channel=8, note=55, velocity=0, time=5),
    Message('note_on', channel=13, note=64, velocity=0, time=5),
    Message('note_on', channel=2, note=79, velocity=0, time=0),
    Message('note_on', channel=6, note=55, velocity=0, time=0),
    Message('note_on', channel=2, note=74, velocity=0, time=0),
    Message('note_on', channel=6, note=64, velocity=0, time=0),
    Message('note_on', channel=13, note=55, velocity=0, time=0),
    Message('note_on', channel=2, note=71, velocity=0, time=0),
    Message('note_on', channel=1, note=41, velocity=104, time=0),
    Message('note_on', channel=2, note=72, velocity=83, time=0),
    Message('note_on', channel=2, note=77, velocity=81, time=0),
    Message('note_on', channel=2, note=81, velocity=79, time=0),
    Message('note_on', channel=4, note=41, velocity=70, time=0),
    Message('note_on', channel=6, note=53, velocity=100, time=0),
    Message('note_on', channel=9, note=36, velocity=120, time=0),
    Message('note_on', channel=9, note=49, velocity=80, time=0),
    Message('note_on', channel=13, note=53, velocity=100, time=0),
    Message('note_on', channel=9, note=36, velocity=0, time=4),
    Message('note_on', channel=8, note=62, velocity=0, time=0),
    Message('note_on', channel=9, note=49, velocity=0, time=1),
    Message('note_on', channel=4, note=48, velocity=70, time=2),
    Message('note_on', channel=6, note=53, velocity=0, time=233),
    Message('note_on', channel=13, note=53, velocity=0, time=0),
    Message('note_on', channel=6, note=60, velocity=100, time=0),
    Message('note_on', channel=13, note=60, velocity=100, time=0),
    Message('note_on', channel=13, note=60, velocity=0, time=240),
    Message('note_on', channel=6, note=60, velocity=0, time=0),
    Message('note_on', channel=6, note=57, velocity=100, time=0),
    Message('note_on', channel=13, note=57, velocity=100, time=0),
    Message('note_on', channel=13, note=57, velocity=0, time=120),
    Message('note_on', channel=6, note=57, velocity=0, time=0),
    Message('note_on', channel=6, note=55, velocity=100, time=0),
    Message('note_on', channel=13, note=55, velocity=100, time=0),
    Message('note_on', channel=13, note=55, velocity=0, time=120),
    Message('note_on', channel=6, note=55, velocity=0, time=0),
    Message('note_on', channel=6, note=53, velocity=100, time=0),
    Message('note_on', channel=13, note=53, velocity=100, time=0),
    Message('note_on', channel=13, note=53, velocity=0, time=240),
    Message('note_on', channel=6, note=53, velocity=0, time=0),
    Message('note_on', channel=6, note=60, velocity=100, time=0),
    Message('note_on', channel=13, note=60, velocity=100, time=0),
    Message('control_change', channel=13, control=1, value=91, time=204),
    Message('note_on', channel=13, note=60, velocity=0, time=156),
    Message('note_on', channel=6, note=60, velocity=0, time=0),
    Message('note_on', channel=6, note=57, velocity=100, time=0),
    Message('note_on', channel=13, note=57, velocity=100, time=0),
    Message('control_change', channel=13, control=1, value=0, time=91),
    Message('note_on', channel=13, note=57, velocity=0, time=269),
    Message('note_on', channel=6, note=57, velocity=0, time=0),
    Message('note_on', channel=6, note=52, velocity=100, time=0),
    Message('note_on', channel=13, note=52, velocity=100, time=0),
    Message('note_on', channel=13, note=52, velocity=0, time=232),
    Message('note_on', channel=6, note=52, velocity=0, time=0),
    Message('note_on', channel=6, note=53, velocity=100, time=8),
    Message('note_on', channel=13, note=53, velocity=100, time=0),
    Message('note_on', channel=13, note=53, velocity=0, time=240),
    Message('note_on', channel=6, note=53, velocity=0, time=0),
    Message('note_on', channel=6, note=60, velocity=100, time=0),
    Message('note_on', channel=13, note=60, velocity=100, time=0),
    Message('note_on', channel=13, note=60, velocity=0, time=240),
    Message('note_on', channel=6, note=60, velocity=0, time=0),
    Message('note_on', channel=6, note=57, velocity=100, time=0),
    Message('note_on', channel=13, note=57, velocity=100, time=0),
    Message('note_on', channel=13, note=57, velocity=0, time=120),
    Message('note_on', channel=6, note=57, velocity=0, time=0),
    Message('note_on', channel=6, note=55, velocity=100, time=0),
    Message('note_on', channel=13, note=55, velocity=100, time=0),
    Message('note_on', channel=13, note=55, velocity=0, time=120),
    Message('note_on', channel=6, note=55, velocity=0, time=0),
    Message('note_on', channel=6, note=53, velocity=100, time=0),
    Message('note_on', channel=13, note=53, velocity=100, time=0),
    Message('note_on', channel=13, note=53, velocity=0, time=240),
    Message('note_on', channel=6, note=53, velocity=0, time=0),
    Message('note_on', channel=6, note=60, velocity=100, time=0),
    Message('note_on', channel=13, note=60, velocity=100, time=0),
    Message('control_change', channel=13, control=1, value=93, time=183),
    Message('note_on', channel=13, note=60, velocity=0, time=177),
    Message('note_on', channel=6, note=60, velocity=0, time=0),
    Message('note_on', channel=6, note=57, velocity=100, time=0),
    Message('note_on', channel=13, note=57, velocity=100, time=0),
    Message('control_change', channel=13, control=1, value=0, time=28),
    Message('note_on', channel=13, note=57, velocity=0, time=332),
    Message('note_on', channel=6, note=57, velocity=0, time=0),
    Message('note_on', channel=6, note=47, velocity=100, time=0),
    Message('note_on', channel=13, note=47, velocity=100, time=0),
    Message('note_on', channel=5, note=60, velocity=0, time=231),
    Message('note_on', channel=3, note=60, velocity=0, time=0),
    Message('note_on', channel=6, note=47, velocity=0, time=1),
    Message('note_on', channel=13, note=47, velocity=0, time=0),
    Message('note_on', channel=5, note=69, velocity=0, time=7),
    Message('note_on', channel=5, note=65, velocity=0, time=0),
    Message('note_on', channel=2, note=72, velocity=0, time=1),
    Message('note_on', channel=2, note=81, velocity=0, time=0),
    Message('note_on', channel=4, note=41, velocity=0, time=0),
    Message('note_on', channel=1, note=41, velocity=0, time=0),
    Message('note_on', channel=2, note=77, velocity=0, time=0),
    Message('note_on', channel=2, note=72, velocity=70, time=0),
    Message('note_on', channel=2, note=76, velocity=70, time=0),
    Message('note_on', channel=2, note=79, velocity=71, time=0),
    Message('note_on', channel=3, note=60, velocity=100, time=0),
    Message('note_on', channel=4, note=48, velocity=70, time=0),
    Message('note_on', channel=4, note=43, velocity=70, time=0),
    Message('note_on', channel=5, note=64, velocity=80, time=0),
    Message('note_on', channel=5, note=67, velocity=80, time=0),
    Message('note_on', channel=5, note=60, velocity=80, time=0),
    Message('note_on', channel=6, note=48, velocity=100, time=0),
    Message('note_on', channel=13, note=48, velocity=100, time=0),
    MetaMessage('lyrics', text='ep. ', time=0),
    MetaMessage('lyrics', text='\r', time=0),
    MetaMessage('lyrics', text='\n', time=0),
    MetaMessage('lyrics', text='\n', time=0),
    Message('note_on', channel=4, note=48, velocity=0, time=7),
    Message('note_on', channel=6, note=48, velocity=0, time=233),
    Message('note_on', channel=13, note=48, velocity=0, time=0),
    Message('note_on', channel=6, note=60, velocity=100, time=0),
    Message('note_on', channel=13, note=60, velocity=100, time=0),
    Message('note_on', channel=13, note=60, velocity=0, time=240),
    Message('note_on', channel=6, note=60, velocity=0, time=0),
    Message('note_on', channel=6, note=58, velocity=100, time=0),
    Message('note_on', channel=13, note=58, velocity=100, time=0),
    Message('note_on', channel=13, note=58, velocity=0, time=120),
    Message('note_on', channel=6, note=58, velocity=0, time=0),
    Message('note_on', channel=6, note=57, velocity=100, time=0),
    Message('note_on', channel=13, note=57, velocity=100, time=0),
    Message('note_on', channel=13, note=57, velocity=0, time=120),
    Message('note_on', channel=6, note=57, velocity=0, time=0),
    Message('note_on', channel=6, note=55, velocity=100, time=0),
    Message('note_on', channel=13, note=55, velocity=100, time=0),
    Message('note_on', channel=13, note=55, velocity=0, time=240),
    Message('note_on', channel=6, note=55, velocity=0, time=0),
    Message('note_on', channel=6, note=53, velocity=100, time=0),
    Message('note_on', channel=13, note=53, velocity=100, time=0),
    Message('note_on', channel=13, note=53, velocity=0, time=240),
    Message('note_on', channel=6, note=53, velocity=0, time=0),
    Message('note_on', channel=6, note=55, velocity=100, time=0),
    Message('note_on', channel=13, note=55, velocity=100, time=0),
    Message('note_on', channel=13, note=55, velocity=0, time=240),
    Message('note_on', channel=6, note=55, velocity=0, time=0),
    Message('note_on', channel=6, note=51, velocity=100, time=0),
    Message('note_on', channel=13, note=51, velocity=100, time=0),
    Message('note_on', channel=13, note=51, velocity=0, time=240),
    Message('note_on', channel=6, note=51, velocity=0, time=0),
    Message('note_on', channel=6, note=52, velocity=100, time=0),
    Message('note_on', channel=13, note=52, velocity=100, time=0),
    Message('note_on', channel=9, note=54, velocity=50, time=212),
    Message('note_on', channel=9, note=38, velocity=80, time=0),
    Message('note_on', channel=9, note=38, velocity=0, time=4),
    Message('note_on', channel=9, note=54, velocity=0, time=0),
    Message('note_on', channel=6, note=52, velocity=0, time=24),
    Message('note_on', channel=13, note=52, velocity=0, time=0),
    Message('note_on', channel=6, note=48, velocity=100, time=0),
    Message('note_on', channel=13, note=48, velocity=100, time=0),
    Message('note_on', channel=9, note=54, velocity=50, time=10),
    Message('note_on', channel=9, note=38, velocity=120, time=0),
    Message('note_on', channel=9, note=38, velocity=0, time=4),
    Message('note_on', channel=9, note=54, velocity=0, time=0),
    Message('note_on', channel=9, note=43, velocity=100, time=215),
    Message('note_on', channel=9, note=43, velocity=0, time=4),
    Message('note_on', channel=6, note=48, velocity=0, time=7),
    Message('note_on', channel=13, note=48, velocity=0, time=0),
    Message('note_on', channel=6, note=48, velocity=100, time=0),
    Message('note_on', channel=13, note=48, velocity=100, time=0),
    Message('note_on', channel=13, note=48, velocity=0, time=240),
    Message('note_on', channel=6, note=48, velocity=0, time=0),
    Message('note_on', channel=6, note=48, velocity=100, time=0),
    Message('note_on', channel=13, note=48, velocity=100, time=0),
    Message('note_on', channel=9, note=41, velocity=100, time=5),
    Message('note_on', channel=9, note=41, velocity=0, time=4),
    Message('note_on', channel=4, note=43, velocity=0, time=202),
    Message('note_on', channel=4, note=48, velocity=0, time=0),
    Message('note_on', channel=2, note=76, velocity=0, time=29),
    Message('note_on', channel=13, note=48, velocity=0, time=0),
    Message('note_on', channel=6, note=48, velocity=0, time=0),
    Message('note_on', channel=2, note=79, velocity=0, time=0),
    Message('note_on', channel=2, note=72, velocity=0, time=0),
    Message('note_on', channel=1, note=36, velocity=104, time=0),
    Message('note_on', channel=2, note=70, velocity=70, time=0),
    Message('note_on', channel=2, note=79, velocity=70, time=0),
    Message('note_on', channel=2, note=72, velocity=70, time=0),
    Message('note_on', channel=2, note=76, velocity=70, time=0),
    Message('note_on', channel=4, note=43, velocity=70, time=0),
    Message('note_on', channel=4, note=48, velocity=70, time=0),
    Message('note_on', channel=6, note=48, velocity=100, time=0),
    Message('note_on', channel=6, note=55, velocity=100, time=0),
    Message('note_on', channel=7, note=58, velocity=120, time=0),
    Message('note_on', channel=8, note=58, velocity=100, time=0),
    Message('note_on', channel=8, note=52, velocity=100, time=0),
    Message('note_on', channel=8, note=55, velocity=100, time=0),
    Message('note_on', channel=8, note=60, velocity=100, time=0),
    Message('note_on', channel=9, note=49, velocity=80, time=0),
    Message('note_on', channel=9, note=36, velocity=120, time=0),
    Message('note_on', channel=13, note=48, velocity=100, time=0),
    Message('note_on', channel=13, note=55, velocity=100, time=0),
    Message('note_on', channel=9, note=36, velocity=0, time=4),
    Message('note_on', channel=9, note=49, velocity=0, time=0),
    Message('control_change', channel=13, control=1, value=33, time=864),
    Message('control_change', channel=13, control=1, value=53, time=812),
    MetaMessage('set_tempo', tempo=750000, time=288),
    Message('note_on', channel=5, note=60, velocity=0, time=1107),
    Message('note_on', channel=13, note=55, velocity=0, time=0),
    Message('note_on', channel=6, note=55, velocity=0, time=0),
    Message('note_on', channel=13, note=48, velocity=0, time=0),
    Message('note_on', channel=6, note=48, velocity=0, time=0),
    Message('note_on', channel=5, note=67, velocity=0, time=0),
    Message('note_on', channel=5, note=64, velocity=0, time=9),
    Message('note_on', channel=7, note=58, velocity=0, time=4),
    Message('note_on', channel=3, note=60, velocity=0, time=5),
    Message('control_change', channel=13, control=1, value=0, time=5),
    Message('program_change', channel=15, program=15, time=4),
    Message('note_on', channel=1, note=36, velocity=0, time=1),
    Message('control_change', channel=5, control=18, value=0, time=0),
    Message('control_change', channel=5, control=16, value=70, time=0),
    Message('note_on', channel=4, note=43, velocity=0, time=3),
    Message('note_on', channel=4, note=48, velocity=0, time=6),
    Message('note_on', channel=2, note=76, velocity=0, time=8),
    Message('note_on', channel=8, note=55, velocity=0, time=0),
    Message('note_on', channel=2, note=72, velocity=0, time=0),
    Message('note_on', channel=2, note=79, velocity=0, time=0),
    Message('note_on', channel=2, note=70, velocity=0, time=0),
    Message('note_on', channel=8, note=58, velocity=0, time=0),
    Message('note_on', channel=8, note=52, velocity=0, time=0),
    Message('note_on', channel=8, note=60, velocity=0, time=0),
    Message('control_change', channel=1, control=123, value=0, time=0),
    Message('control_change', channel=1, control=120, value=0, time=0),
    Message('control_change', channel=2, control=123, value=0, time=0),
    Message('control_change', channel=2, control=120, value=0, time=0),
    Message('control_change', channel=3, control=123, value=0, time=0),
    Message('control_change', channel=3, control=120, value=0, time=0),
    Message('control_change', channel=4, control=123, value=0, time=0),
    Message('control_change', channel=4, control=120, value=0, time=0),
    Message('control_change', channel=5, control=123, value=0, time=0),
    Message('control_change', channel=5, control=120, value=0, time=0),
    Message('control_change', channel=6, control=123, value=0, time=0),
    Message('control_change', channel=6, control=120, value=0, time=0),
    Message('control_change', channel=7, control=123, value=0, time=0),
    Message('control_change', channel=7, control=120, value=0, time=0),
    Message('control_change', channel=8, control=123, value=0, time=0),
    Message('control_change', channel=8, control=120, value=0, time=0),
    Message('control_change', channel=9, control=123, value=0, time=0),
    Message('control_change', channel=9, control=120, value=0, time=0),
    Message('control_change', channel=13, control=123, value=0, time=0),
    Message('control_change', channel=13, control=120, value=0, time=0),
    MetaMessage('end_of_track', time=0)])
])
