MidiFile(type=1, ticks_per_beat=240, tracks=[
  MidiTrack([
    MetaMessage('time_signature', numerator=4, denominator=4, clocks_per_click=24, notated_32nd_notes_per_beat=8, time=0),
    MetaMessage('key_signature', key='C', time=0),
    MetaMessage('set_tempo', tempo=422535, time=0),
    MetaMessage('end_of_track', time=0)]),
  MidiTrack([
    MetaMessage('midi_port', port=0, time=0),
    MetaMessage('track_name', name='Fretless Bass', time=0),
    Message('program_change', channel=0, program=35, time=0),
    Message('control_change', channel=0, control=7, value=127, time=0),
    Message('control_change', channel=0, control=10, value=64, time=0),
    Message('note_on', channel=0, note=31, velocity=121, time=960),
    Message('note_on', channel=0, note=43, velocity=73, time=600),
    Message('note_on', channel=0, note=43, velocity=0, time=45),
    Message('note_on', channel=0, note=43, velocity=86, time=75),
    Message('note_on', channel=0, note=43, velocity=0, time=61),
    Message('note_on', channel=0, note=43, velocity=111, time=59),
    Message('note_on', channel=0, note=43, velocity=0, time=662),
    Message('note_on', channel=0, note=43, velocity=98, time=58),
    Message('note_on', channel=0, note=31, velocity=0, time=51),
    Message('note_on', channel=0, note=31, velocity=98, time=69),
    Message('note_on', channel=0, note=31, velocity=0, time=70),
    Message('note_on', channel=0, note=43, velocity=0, time=25),
    Message('note_on', channel=0, note=31, velocity=114, time=25),
    Message('note_on', channel=0, note=55, velocity=105, time=720),
    Message('note_on', channel=0, note=31, velocity=0, time=57),
    Message('note_on', channel=0, note=55, velocity=0, time=147),
    Message('note_on', channel=0, note=55, velocity=98, time=36),
    Message('note_on', channel=0, note=55, velocity=0, time=423),
    Message('note_on', channel=0, note=55, velocity=105, time=57),
    Message('note_on', channel=0, note=55, velocity=0, time=192),
    Message('note_on', channel=0, note=55, velocity=103, time=48),
    Message('note_on', channel=0, note=50, velocity=103, time=120),
    Message('note_on', channel=0, note=55, velocity=0, time=36),
    Message('note_on', channel=0, note=50, velocity=0, time=199),
    Message('note_on', channel=0, note=31, velocity=114, time=5),
    Message('note_on', channel=0, note=43, velocity=84, time=720),
    Message('note_on', channel=0, note=31, velocity=0, time=12),
    Message('note_on', channel=0, note=43, velocity=0, time=62),
    Message('note_on', channel=0, note=43, velocity=98, time=46),
    Message('note_on', channel=0, note=43, velocity=0, time=683),
    Message('note_on', channel=0, note=43, velocity=111, time=37),
    Message('note_on', channel=0, note=38, velocity=103, time=120),
    Message('note_on', channel=0, note=43, velocity=0, time=36),
    Message('note_on', channel=0, note=38, velocity=0, time=54),
    Message('note_on', channel=0, note=31, velocity=101, time=30),
    Message('note_on', channel=0, note=31, velocity=0, time=814),
    Message('note_on', channel=0, note=43, velocity=105, time=26),
    Message('note_on', channel=0, note=43, velocity=0, time=65),
    Message('note_on', channel=0, note=43, velocity=111, time=55),
    Message('note_on', channel=0, note=43, velocity=0, time=965),
    Message('note_on', channel=0, note=31, velocity=118, time=115),
    Message('note_on', channel=0, note=31, velocity=0, time=313),
    Message('note_on', channel=0, note=31, velocity=101, time=47),
    Message('note_on', channel=0, note=31, velocity=0, time=44),
    Message('note_on', channel=0, note=31, velocity=118, time=76),
    Message('note_on', channel=0, note=31, velocity=0, time=396),
    Message('note_on', channel=0, note=31, velocity=111, time=84),
    Message('note_on', channel=0, note=31, velocity=0, time=294),
    Message('note_on', channel=0, note=31, velocity=101, time=66),
    Message('note_on', channel=0, note=31, velocity=0, time=45),
    Message('note_on', channel=0, note=31, velocity=116, time=75),
    Message('note_on', channel=0, note=31, velocity=0, time=395),
    Message('note_on', channel=0, note=31, velocity=114, time=85),
    Message('note_on', channel=0, note=31, velocity=0, time=298),
    Message('note_on', channel=0, note=31, velocity=101, time=62),
    Message('note_on', channel=0, note=31, velocity=0, time=52),
    Message('note_on', channel=0, note=31, velocity=116, time=68),
    Message('note_on', channel=0, note=31, velocity=0, time=418),
    Message('note_on', channel=0, note=31, velocity=116, time=62),
    Message('note_on', channel=0, note=31, velocity=0, time=318),
    Message('note_on', channel=0, note=31, velocity=107, time=42),
    Message('note_on', channel=0, note=31, velocity=0, time=53),
    Message('note_on', channel=0, note=31, velocity=118, time=67),
    Message('note_on', channel=0, note=31, velocity=0, time=383),
    Message('note_on', channel=0, note=31, velocity=116, time=97),
    Message('note_on', channel=0, note=31, velocity=0, time=304),
    Message('note_on', channel=0, note=31, velocity=116, time=56),
    Message('note_on', channel=0, note=31, velocity=0, time=114),
    Message('note_on', channel=0, note=38, velocity=109, time=6),
    Message('note_on', channel=0, note=38, velocity=0, time=421),
    Message('note_on', channel=0, note=36, velocity=116, time=59),
    Message('note_on', channel=0, note=36, velocity=0, time=290),
    Message('note_on', channel=0, note=36, velocity=105, time=70),
    Message('note_on', channel=0, note=36, velocity=0, time=45),
    Message('note_on', channel=0, note=36, velocity=114, time=75),
    Message('note_on', channel=0, note=36, velocity=0, time=427),
    Message('note_on', channel=0, note=31, velocity=118, time=53),
    Message('note_on', channel=0, note=31, velocity=0, time=291),
    Message('note_on', channel=0, note=31, velocity=107, time=69),
    Message('note_on', channel=0, note=31, velocity=0, time=46),
    Message('note_on', channel=0, note=31, velocity=114, time=74),
    Message('note_on', channel=0, note=31, velocity=0, time=436),
    Message('note_on', channel=0, note=38, velocity=121, time=44),
    Message('note_on', channel=0, note=38, velocity=0, time=281),
    Message('note_on', channel=0, note=38, velocity=105, time=79),
    Message('note_on', channel=0, note=38, velocity=0, time=46),
    Message('note_on', channel=0, note=38, velocity=118, time=74),
    Message('note_on', channel=0, note=38, velocity=0, time=384),
    Message('note_on', channel=0, note=36, velocity=118, time=96),
    Message('note_on', channel=0, note=36, velocity=0, time=280),
    Message('note_on', channel=0, note=36, velocity=116, time=80),
    Message('note_on', channel=0, note=36, velocity=0, time=54),
    Message('note_on', channel=0, note=36, velocity=118, time=66),
    Message('note_on', channel=0, note=36, velocity=0, time=439),
    Message('note_on', channel=0, note=31, velocity=121, time=41),
    Message('note_on', channel=0, note=31, velocity=0, time=296),
    Message('note_on', channel=0, note=31, velocity=109, time=64),
    Message('note_on', channel=0, note=31, velocity=0, time=54),
    Message('note_on', channel=0, note=31, velocity=118, time=66),
    Message('note_on', channel=0, note=31, velocity=0, time=381),
    Message('note_on', channel=0, note=28, velocity=118, time=99),
    Message('note_on', channel=0, note=28, velocity=0, time=269),
    Message('note_on', channel=0, note=28, velocity=109, time=91),
    Message('note_on', channel=0, note=28, velocity=0, time=49),
    Message('note_on', channel=0, note=28, velocity=116, time=71),
    Message('note_on', channel=0, note=28, velocity=0, time=417),
    Message('note_on', channel=0, note=28, velocity=111, time=63),
    Message('note_on', channel=0, note=28, velocity=0, time=284),
    Message('note_on', channel=0, note=28, velocity=105, time=76),
    Message('note_on', channel=0, note=28, velocity=0, time=56),
    Message('note_on', channel=0, note=28, velocity=116, time=64),
    Message('note_on', channel=0, note=28, velocity=0, time=108),
    Message('note_on', channel=0, note=40, velocity=101, time=12),
    Message('note_on', channel=0, note=28, velocity=109, time=120),
    Message('note_on', channel=0, note=40, velocity=0, time=1),
    Message('note_on', channel=0, note=28, velocity=0, time=210),
    Message('note_on', channel=0, note=36, velocity=116, time=29),
    Message('note_on', channel=0, note=36, velocity=0, time=268),
    Message('note_on', channel=0, note=36, velocity=111, time=92),
    Message('note_on', channel=0, note=36, velocity=0, time=44),
    Message('note_on', channel=0, note=36, velocity=116, time=76),
    Message('note_on', channel=0, note=36, velocity=0, time=441),
    Message('note_on', channel=0, note=31, velocity=121, time=39),
    Message('note_on', channel=0, note=31, velocity=0, time=278),
    Message('note_on', channel=0, note=31, velocity=98, time=82),
    Message('note_on', channel=0, note=31, velocity=0, time=44),
    Message('note_on', channel=0, note=31, velocity=118, time=76),
    Message('note_on', channel=0, note=31, velocity=0, time=441),
    Message('note_on', channel=0, note=33, velocity=114, time=39),
    Message('note_on', channel=0, note=33, velocity=0, time=295),
    Message('note_on', channel=0, note=33, velocity=105, time=65),
    Message('note_on', channel=0, note=33, velocity=0, time=54),
    Message('note_on', channel=0, note=33, velocity=111, time=66),
    Message('note_on', channel=0, note=33, velocity=0, time=388),
    Message('note_on', channel=0, note=36, velocity=118, time=92),
    Message('note_on', channel=0, note=36, velocity=0, time=254),
    Message('note_on', channel=0, note=36, velocity=101, time=106),
    Message('note_on', channel=0, note=36, velocity=0, time=51),
    Message('note_on', channel=0, note=36, velocity=114, time=69),
    Message('note_on', channel=0, note=36, velocity=0, time=386),
    Message('note_on', channel=0, note=40, velocity=116, time=94),
    Message('note_on', channel=0, note=40, velocity=0, time=282),
    Message('note_on', channel=0, note=40, velocity=103, time=78),
    Message('note_on', channel=0, note=40, velocity=0, time=56),
    Message('note_on', channel=0, note=40, velocity=105, time=64),
    Message('note_on', channel=0, note=40, velocity=0, time=444),
    Message('note_on', channel=0, note=28, velocity=114, time=36),
    Message('note_on', channel=0, note=28, velocity=0, time=301),
    Message('note_on', channel=0, note=28, velocity=114, time=59),
    Message('note_on', channel=0, note=28, velocity=0, time=52),
    Message('note_on', channel=0, note=28, velocity=121, time=68),
    Message('note_on', channel=0, note=28, velocity=0, time=289),
    Message('note_on', channel=0, note=36, velocity=127, time=71),
    Message('note_on', channel=0, note=36, velocity=0, time=395),
    Message('note_on', channel=0, note=36, velocity=118, time=85),
    Message('note_on', channel=0, note=36, velocity=0, time=42),
    Message('note_on', channel=0, note=36, velocity=118, time=78),
    Message('note_on', channel=0, note=36, velocity=0, time=453),
    Message('note_on', channel=0, note=31, velocity=116, time=27),
    Message('note_on', channel=0, note=31, velocity=0, time=275),
    Message('note_on', channel=0, note=31, velocity=111, time=85),
    Message('note_on', channel=0, note=31, velocity=0, time=48),
    Message('note_on', channel=0, note=31, velocity=118, time=72),
    Message('note_on', channel=0, note=31, velocity=0, time=213),
    Message('note_on', channel=0, note=33, velocity=111, time=27),
    Message('note_on', channel=0, note=33, velocity=0, time=67),
    Message('note_on', channel=0, note=35, velocity=105, time=53),
    Message('note_on', channel=0, note=35, velocity=0, time=61),
    Message('note_on', channel=0, note=36, velocity=116, time=59),
    Message('note_on', channel=0, note=36, velocity=0, time=289),
    Message('note_on', channel=0, note=36, velocity=111, time=71),
    Message('note_on', channel=0, note=36, velocity=0, time=42),
    Message('note_on', channel=0, note=36, velocity=118, time=78),
    Message('note_on', channel=0, note=36, velocity=0, time=429),
    Message('note_on', channel=0, note=31, velocity=121, time=51),
    Message('note_on', channel=0, note=31, velocity=0, time=292),
    Message('note_on', channel=0, note=31, velocity=114, time=68),
    Message('note_on', channel=0, note=31, velocity=0, time=120),
    Message('note_on', channel=0, note=43, velocity=103, time=0),
    Message('note_on', channel=0, note=31, velocity=107, time=120),
    Message('note_on', channel=0, note=43, velocity=0, time=20),
    Message('note_on', channel=0, note=31, velocity=0, time=96),
    Message('note_on', channel=0, note=38, velocity=103, time=4),
    Message('note_on', channel=0, note=31, velocity=101, time=120),
    Message('note_on', channel=0, note=38, velocity=0, time=9),
    Message('note_on', channel=0, note=31, velocity=0, time=97),
    Message('note_on', channel=0, note=33, velocity=114, time=14),
    Message('note_on', channel=0, note=33, velocity=0, time=265),
    Message('note_on', channel=0, note=33, velocity=105, time=95),
    Message('note_on', channel=0, note=33, velocity=0, time=47),
    Message('note_on', channel=0, note=33, velocity=109, time=73),
    Message('note_on', channel=0, note=33, velocity=0, time=365),
    Message('note_on', channel=0, note=36, velocity=118, time=115),
    Message('note_on', channel=0, note=36, velocity=0, time=285),
    Message('note_on', channel=0, note=36, velocity=109, time=75),
    Message('note_on', channel=0, note=36, velocity=0, time=45),
    Message('note_on', channel=0, note=36, velocity=118, time=75),
    Message('note_on', channel=0, note=36, velocity=0, time=426),
    Message('note_on', channel=0, note=31, velocity=118, time=54),
    Message('note_on', channel=0, note=31, velocity=0, time=275),
    Message('note_on', channel=0, note=31, velocity=109, time=85),
    Message('note_on', channel=0, note=31, velocity=0, time=43),
    Message('note_on', channel=0, note=31, velocity=118, time=77),
    Message('note_on', channel=0, note=31, velocity=0, time=401),
    Message('note_on', channel=0, note=31, velocity=111, time=79),
    Message('note_on', channel=0, note=31, velocity=0, time=288),
    Message('note_on', channel=0, note=31, velocity=111, time=72),
    Message('note_on', channel=0, note=31, velocity=0, time=52),
    Message('note_on', channel=0, note=31, velocity=118, time=68),
    Message('note_on', channel=0, note=31, velocity=0, time=394),
    Message('note_on', channel=0, note=31, velocity=114, time=86),
    Message('note_on', channel=0, note=31, velocity=0, time=289),
    Message('note_on', channel=0, note=31, velocity=103, time=71),
    Message('note_on', channel=0, note=31, velocity=0, time=46),
    Message('note_on', channel=0, note=31, velocity=116, time=74),
    Message('note_on', channel=0, note=31, velocity=0, time=385),
    Message('note_on', channel=0, note=31, velocity=118, time=95),
    Message('note_on', channel=0, note=31, velocity=0, time=288),
    Message('note_on', channel=0, note=31, velocity=116, time=72),
    Message('note_on', channel=0, note=31, velocity=0, time=49),
    Message('note_on', channel=0, note=31, velocity=118, time=71),
    Message('note_on', channel=0, note=31, velocity=0, time=341),
    Message('note_on', channel=0, note=31, velocity=114, time=139),
    Message('note_on', channel=0, note=31, velocity=0, time=298),
    Message('note_on', channel=0, note=31, velocity=101, time=62),
    Message('note_on', channel=0, note=31, velocity=0, time=52),
    Message('note_on', channel=0, note=31, velocity=116, time=68),
    Message('note_on', channel=0, note=31, velocity=0, time=418),
    Message('note_on', channel=0, note=31, velocity=116, time=62),
    Message('note_on', channel=0, note=31, velocity=0, time=318),
    Message('note_on', channel=0, note=31, velocity=107, time=42),
    Message('note_on', channel=0, note=31, velocity=0, time=53),
    Message('note_on', channel=0, note=31, velocity=118, time=67),
    Message('note_on', channel=0, note=31, velocity=0, time=383),
    Message('note_on', channel=0, note=31, velocity=116, time=97),
    Message('note_on', channel=0, note=31, velocity=0, time=304),
    Message('note_on', channel=0, note=31, velocity=116, time=56),
    Message('note_on', channel=0, note=31, velocity=0, time=114),
    Message('note_on', channel=0, note=38, velocity=109, time=6),
    Message('note_on', channel=0, note=38, velocity=0, time=421),
    Message('note_on', channel=0, note=36, velocity=116, time=59),
    Message('note_on', channel=0, note=36, velocity=0, time=290),
    Message('note_on', channel=0, note=36, velocity=105, time=70),
    Message('note_on', channel=0, note=36, velocity=0, time=45),
    Message('note_on', channel=0, note=36, velocity=114, time=75),
    Message('note_on', channel=0, note=36, velocity=0, time=427),
    Message('note_on', channel=0, note=31, velocity=118, time=53),
    Message('note_on', channel=0, note=31, velocity=0, time=291),
    Message('note_on', channel=0, note=31, velocity=107, time=69),
    Message('note_on', channel=0, note=31, velocity=0, time=46),
    Message('note_on', channel=0, note=31, velocity=114, time=74),
    Message('note_on', channel=0, note=31, velocity=0, time=436),
    Message('note_on', channel=0, note=38, velocity=121, time=44),
    Message('note_on', channel=0, note=38, velocity=0, time=281),
    Message('note_on', channel=0, note=38, velocity=105, time=79),
    Message('note_on', channel=0, note=38, velocity=0, time=46),
    Message('note_on', channel=0, note=38, velocity=118, time=74),
    Message('note_on', channel=0, note=38, velocity=0, time=384),
    Message('note_on', channel=0, note=36, velocity=118, time=96),
    Message('note_on', channel=0, note=36, velocity=0, time=280),
    Message('note_on', channel=0, note=36, velocity=116, time=80),
    Message('note_on', channel=0, note=36, velocity=0, time=54),
    Message('note_on', channel=0, note=36, velocity=118, time=66),
    Message('note_on', channel=0, note=36, velocity=0, time=439),
    Message('note_on', channel=0, note=31, velocity=121, time=41),
    Message('note_on', channel=0, note=31, velocity=0, time=296),
    Message('note_on', channel=0, note=31, velocity=109, time=64),
    Message('note_on', channel=0, note=31, velocity=0, time=54),
    Message('note_on', channel=0, note=31, velocity=118, time=66),
    Message('note_on', channel=0, note=31, velocity=0, time=381),
    Message('note_on', channel=0, note=28, velocity=121, time=99),
    Message('note_on', channel=0, note=28, velocity=0, time=287),
    Message('note_on', channel=0, note=28, velocity=111, time=73),
    Message('note_on', channel=0, note=28, velocity=0, time=47),
    Message('note_on', channel=0, note=28, velocity=114, time=73),
    Message('note_on', channel=0, note=28, velocity=0, time=297),
    Message('note_on', channel=0, note=28, velocity=118, time=63),
    Message('note_on', channel=0, note=28, velocity=0, time=114),
    Message('note_on', channel=0, note=38, velocity=116, time=6),
    Message('note_on', channel=0, note=38, velocity=0, time=278),
    Message('note_on', channel=0, note=38, velocity=114, time=82),
    Message('note_on', channel=0, note=38, velocity=0, time=42),
    Message('note_on', channel=0, note=38, velocity=126, time=78),
    Message('note_on', channel=0, note=38, velocity=0, time=297),
    Message('note_on', channel=0, note=38, velocity=123, time=63),
    Message('note_on', channel=0, note=38, velocity=0, time=50),
    Message('note_on', channel=0, note=36, velocity=116, time=70),
    Message('note_on', channel=0, note=36, velocity=0, time=268),
    Message('note_on', channel=0, note=36, velocity=111, time=92),
    Message('note_on', channel=0, note=36, velocity=0, time=44),
    Message('note_on', channel=0, note=36, velocity=116, time=76),
    Message('note_on', channel=0, note=36, velocity=0, time=441),
    Message('note_on', channel=0, note=31, velocity=121, time=39),
    Message('note_on', channel=0, note=31, velocity=0, time=278),
    Message('note_on', channel=0, note=31, velocity=98, time=82),
    Message('note_on', channel=0, note=31, velocity=0, time=44),
    Message('note_on', channel=0, note=31, velocity=118, time=76),
    Message('note_on', channel=0, note=31, velocity=0, time=441),
    Message('note_on', channel=0, note=33, velocity=114, time=39),
    Message('note_on', channel=0, note=33, velocity=0, time=295),
    Message('note_on', channel=0, note=33, velocity=105, time=65),
    Message('note_on', channel=0, note=33, velocity=0, time=54),
    Message('note_on', channel=0, note=33, velocity=111, time=66),
    Message('note_on', channel=0, note=33, velocity=0, time=388),
    Message('note_on', channel=0, note=36, velocity=118, time=92),
    Message('note_on', channel=0, note=36, velocity=0, time=254),
    Message('note_on', channel=0, note=36, velocity=101, time=106),
    Message('note_on', channel=0, note=36, velocity=0, time=51),
    Message('note_on', channel=0, note=36, velocity=114, time=69),
    Message('note_on', channel=0, note=36, velocity=0, time=386),
    Message('note_on', channel=0, note=31, velocity=126, time=94),
    Message('note_on', channel=0, note=31, velocity=0, time=286),
    Message('note_on', channel=0, note=31, velocity=107, time=74),
    Message('note_on', channel=0, note=31, velocity=0, time=41),
    Message('note_on', channel=0, note=31, velocity=123, time=79),
    Message('note_on', channel=0, note=31, velocity=0, time=391),
    Message('note_on', channel=0, note=31, velocity=118, time=89),
    Message('note_on', channel=0, note=31, velocity=0, time=299),
    Message('note_on', channel=0, note=31, velocity=116, time=61),
    Message('note_on', channel=0, note=31, velocity=0, time=51),
    Message('note_on', channel=0, note=31, velocity=126, time=69),
    Message('note_on', channel=0, note=31, velocity=0, time=105),
    Message('note_on', channel=0, note=43, velocity=111, time=15),
    Message('note_on', channel=0, note=43, velocity=0, time=111),
    Message('note_on', channel=0, note=38, velocity=118, time=9),
    Message('note_on', channel=0, note=31, velocity=121, time=120),
    Message('note_on', channel=0, note=38, velocity=0, time=1),
    Message('note_on', channel=0, note=31, velocity=0, time=99),
    Message('note_on', channel=0, note=31, velocity=114, time=20),
    Message('note_on', channel=0, note=31, velocity=0, time=298),
    Message('note_on', channel=0, note=31, velocity=101, time=62),
    Message('note_on', channel=0, note=31, velocity=0, time=52),
    Message('note_on', channel=0, note=31, velocity=116, time=68),
    Message('note_on', channel=0, note=31, velocity=0, time=418),
    Message('note_on', channel=0, note=31, velocity=116, time=62),
    Message('note_on', channel=0, note=31, velocity=0, time=318),
    Message('note_on', channel=0, note=31, velocity=107, time=42),
    Message('note_on', channel=0, note=31, velocity=0, time=53),
    Message('note_on', channel=0, note=31, velocity=118, time=67),
    Message('note_on', channel=0, note=31, velocity=0, time=383),
    Message('note_on', channel=0, note=31, velocity=116, time=97),
    Message('note_on', channel=0, note=31, velocity=0, time=304),
    Message('note_on', channel=0, note=31, velocity=116, time=56),
    Message('note_on', channel=0, note=31, velocity=0, time=114),
    Message('note_on', channel=0, note=38, velocity=109, time=6),
    Message('note_on', channel=0, note=38, velocity=0, time=421),
    Message('note_on', channel=0, note=36, velocity=116, time=59),
    Message('note_on', channel=0, note=36, velocity=0, time=290),
    Message('note_on', channel=0, note=36, velocity=105, time=70),
    Message('note_on', channel=0, note=36, velocity=0, time=45),
    Message('note_on', channel=0, note=36, velocity=114, time=75),
    Message('note_on', channel=0, note=36, velocity=0, time=427),
    Message('note_on', channel=0, note=31, velocity=118, time=53),
    Message('note_on', channel=0, note=31, velocity=0, time=291),
    Message('note_on', channel=0, note=31, velocity=107, time=69),
    Message('note_on', channel=0, note=31, velocity=0, time=46),
    Message('note_on', channel=0, note=31, velocity=114, time=74),
    Message('note_on', channel=0, note=31, velocity=0, time=436),
    Message('note_on', channel=0, note=38, velocity=121, time=44),
    Message('note_on', channel=0, note=38, velocity=0, time=281),
    Message('note_on', channel=0, note=38, velocity=105, time=79),
    Message('note_on', channel=0, note=38, velocity=0, time=46),
    Message('note_on', channel=0, note=38, velocity=118, time=74),
    Message('note_on', channel=0, note=38, velocity=0, time=384),
    Message('note_on', channel=0, note=36, velocity=118, time=96),
    Message('note_on', channel=0, note=36, velocity=0, time=280),
    Message('note_on', channel=0, note=36, velocity=116, time=80),
    Message('note_on', channel=0, note=36, velocity=0, time=54),
    Message('note_on', channel=0, note=36, velocity=118, time=66),
    Message('note_on', channel=0, note=36, velocity=0, time=439),
    Message('note_on', channel=0, note=31, velocity=121, time=41),
    Message('note_on', channel=0, note=31, velocity=0, time=296),
    Message('note_on', channel=0, note=31, velocity=109, time=64),
    Message('note_on', channel=0, note=31, velocity=0, time=54),
    Message('note_on', channel=0, note=31, velocity=118, time=66),
    Message('note_on', channel=0, note=31, velocity=0, time=381),
    Message('note_on', channel=0, note=28, velocity=121, time=99),
    Message('note_on', channel=0, note=28, velocity=0, time=287),
    Message('note_on', channel=0, note=28, velocity=111, time=73),
    Message('note_on', channel=0, note=28, velocity=0, time=47),
    Message('note_on', channel=0, note=28, velocity=114, time=73),
    Message('note_on', channel=0, note=28, velocity=0, time=297),
    Message('note_on', channel=0, note=28, velocity=118, time=63),
    Message('note_on', channel=0, note=28, velocity=0, time=114),
    Message('note_on', channel=0, note=38, velocity=116, time=6),
    Message('note_on', channel=0, note=38, velocity=0, time=278),
    Message('note_on', channel=0, note=38, velocity=114, time=82),
    Message('note_on', channel=0, note=38, velocity=0, time=42),
    Message('note_on', channel=0, note=38, velocity=126, time=78),
    Message('note_on', channel=0, note=38, velocity=0, time=297),
    Message('note_on', channel=0, note=38, velocity=123, time=63),
    Message('note_on', channel=0, note=38, velocity=0, time=50),
    Message('note_on', channel=0, note=36, velocity=116, time=70),
    Message('note_on', channel=0, note=36, velocity=0, time=268),
    Message('note_on', channel=0, note=36, velocity=111, time=92),
    Message('note_on', channel=0, note=36, velocity=0, time=44),
    Message('note_on', channel=0, note=36, velocity=116, time=76),
    Message('note_on', channel=0, note=36, velocity=0, time=441),
    Message('note_on', channel=0, note=31, velocity=121, time=39),
    Message('note_on', channel=0, note=31, velocity=0, time=278),
    Message('note_on', channel=0, note=31, velocity=98, time=82),
    Message('note_on', channel=0, note=31, velocity=0, time=44),
    Message('note_on', channel=0, note=31, velocity=118, time=76),
    Message('note_on', channel=0, note=31, velocity=0, time=441),
    Message('note_on', channel=0, note=33, velocity=114, time=39),
    Message('note_on', channel=0, note=33, velocity=0, time=295),
    Message('note_on', channel=0, note=33, velocity=105, time=65),
    Message('note_on', channel=0, note=33, velocity=0, time=54),
    Message('note_on', channel=0, note=33, velocity=111, time=66),
    Message('note_on', channel=0, note=33, velocity=0, time=388),
    Message('note_on', channel=0, note=36, velocity=118, time=92),
    Message('note_on', channel=0, note=36, velocity=0, time=254),
    Message('note_on', channel=0, note=36, velocity=101, time=106),
    Message('note_on', channel=0, note=36, velocity=0, time=51),
    Message('note_on', channel=0, note=36, velocity=114, time=69),
    Message('note_on', channel=0, note=36, velocity=0, time=386),
    Message('note_on', channel=0, note=28, velocity=126, time=94),
    Message('note_on', channel=0, note=28, velocity=0, time=272),
    Message('note_on', channel=0, note=28, velocity=123, time=88),
    Message('note_on', channel=0, note=28, velocity=0, time=52),
    Message('note_on', channel=0, note=28, velocity=127, time=68),
    Message('note_on', channel=0, note=28, velocity=0, time=303),
    Message('note_on', channel=0, note=28, velocity=123, time=57),
    Message('note_on', channel=0, note=28, velocity=0, time=109),
    Message('note_on', channel=0, note=40, velocity=116, time=11),
    Message('note_on', channel=0, note=28, velocity=118, time=120),
    Message('note_on', channel=0, note=40, velocity=0, time=19),
    Message('note_on', channel=0, note=28, velocity=0, time=95),
    Message('note_on', channel=0, note=40, velocity=118, time=6),
    Message('note_on', channel=0, note=40, velocity=0, time=100),
    Message('note_on', channel=0, note=38, velocity=118, time=20),
    Message('note_on', channel=0, note=38, velocity=0, time=184),
    Message('note_on', channel=0, note=38, velocity=126, time=56),
    Message('note_on', channel=0, note=38, velocity=0, time=188),
    Message('note_on', channel=0, note=38, velocity=126, time=52),
    Message('note_on', channel=0, note=38, velocity=0, time=71),
    Message('note_on', channel=0, note=31, velocity=114, time=49),
    Message('note_on', channel=0, note=31, velocity=0, time=298),
    Message('note_on', channel=0, note=31, velocity=101, time=62),
    Message('note_on', channel=0, note=31, velocity=0, time=52),
    Message('note_on', channel=0, note=31, velocity=116, time=68),
    Message('note_on', channel=0, note=31, velocity=0, time=418),
    Message('note_on', channel=0, note=31, velocity=116, time=62),
    Message('note_on', channel=0, note=31, velocity=0, time=318),
    Message('note_on', channel=0, note=31, velocity=107, time=42),
    Message('note_on', channel=0, note=31, velocity=0, time=53),
    Message('note_on', channel=0, note=31, velocity=118, time=67),
    Message('note_on', channel=0, note=31, velocity=0, time=383),
    Message('note_on', channel=0, note=31, velocity=116, time=97),
    Message('note_on', channel=0, note=31, velocity=0, time=304),
    Message('note_on', channel=0, note=31, velocity=116, time=56),
    Message('note_on', channel=0, note=31, velocity=0, time=114),
    Message('note_on', channel=0, note=38, velocity=109, time=6),
    Message('note_on', channel=0, note=38, velocity=0, time=421),
    Message('note_on', channel=0, note=33, velocity=127, time=59),
    Message('note_on', channel=0, note=33, velocity=0, time=268),
    Message('note_on', channel=0, note=33, velocity=121, time=92),
    Message('note_on', channel=0, note=33, velocity=0, time=50),
    Message('note_on', channel=0, note=33, velocity=127, time=70),
    Message('note_on', channel=0, note=33, velocity=0, time=279),
    Message('note_on', channel=0, note=33, velocity=121, time=81),
    Message('note_on', channel=0, note=33, velocity=0, time=59),
    Message('note_on', channel=0, note=31, velocity=118, time=61),
    Message('note_on', channel=0, note=31, velocity=0, time=291),
    Message('note_on', channel=0, note=31, velocity=107, time=69),
    Message('note_on', channel=0, note=31, velocity=0, time=46),
    Message('note_on', channel=0, note=31, velocity=114, time=74),
    Message('note_on', channel=0, note=31, velocity=0, time=436),
    Message('note_on', channel=0, note=38, velocity=121, time=44),
    Message('note_on', channel=0, note=38, velocity=0, time=281),
    Message('note_on', channel=0, note=38, velocity=105, time=79),
    Message('note_on', channel=0, note=38, velocity=0, time=46),
    Message('note_on', channel=0, note=38, velocity=118, time=74),
    Message('note_on', channel=0, note=38, velocity=0, time=384),
    Message('note_on', channel=0, note=36, velocity=118, time=96),
    Message('note_on', channel=0, note=36, velocity=0, time=280),
    Message('note_on', channel=0, note=36, velocity=116, time=80),
    Message('note_on', channel=0, note=36, velocity=0, time=54),
    Message('note_on', channel=0, note=36, velocity=118, time=66),
    Message('note_on', channel=0, note=36, velocity=0, time=439),
    Message('note_on', channel=0, note=31, velocity=121, time=41),
    Message('note_on', channel=0, note=31, velocity=0, time=296),
    Message('note_on', channel=0, note=31, velocity=109, time=64),
    Message('note_on', channel=0, note=31, velocity=0, time=54),
    Message('note_on', channel=0, note=31, velocity=118, time=66),
    Message('note_on', channel=0, note=31, velocity=0, time=381),
    Message('note_on', channel=0, note=28, velocity=118, time=99),
    Message('note_on', channel=0, note=28, velocity=0, time=269),
    Message('note_on', channel=0, note=28, velocity=109, time=91),
    Message('note_on', channel=0, note=28, velocity=0, time=49),
    Message('note_on', channel=0, note=28, velocity=116, time=71),
    Message('note_on', channel=0, note=28, velocity=0, time=417),
    Message('note_on', channel=0, note=28, velocity=111, time=63),
    Message('note_on', channel=0, note=28, velocity=0, time=284),
    Message('note_on', channel=0, note=28, velocity=105, time=76),
    Message('note_on', channel=0, note=28, velocity=0, time=56),
    Message('note_on', channel=0, note=28, velocity=116, time=64),
    Message('note_on', channel=0, note=28, velocity=0, time=108),
    Message('note_on', channel=0, note=40, velocity=101, time=12),
    Message('note_on', channel=0, note=28, velocity=109, time=120),
    Message('note_on', channel=0, note=40, velocity=0, time=1),
    Message('note_on', channel=0, note=28, velocity=0, time=210),
    Message('note_on', channel=0, note=36, velocity=116, time=29),
    Message('note_on', channel=0, note=36, velocity=0, time=268),
    Message('note_on', channel=0, note=36, velocity=111, time=92),
    Message('note_on', channel=0, note=36, velocity=0, time=44),
    Message('note_on', channel=0, note=36, velocity=116, time=76),
    Message('note_on', channel=0, note=36, velocity=0, time=441),
    Message('note_on', channel=0, note=31, velocity=121, time=39),
    Message('note_on', channel=0, note=31, velocity=0, time=278),
    Message('note_on', channel=0, note=31, velocity=98, time=82),
    Message('note_on', channel=0, note=31, velocity=0, time=44),
    Message('note_on', channel=0, note=31, velocity=118, time=76),
    Message('note_on', channel=0, note=31, velocity=0, time=441),
    Message('note_on', channel=0, note=33, velocity=114, time=39),
    Message('note_on', channel=0, note=33, velocity=0, time=295),
    Message('note_on', channel=0, note=33, velocity=105, time=65),
    Message('note_on', channel=0, note=33, velocity=0, time=54),
    Message('note_on', channel=0, note=33, velocity=111, time=66),
    Message('note_on', channel=0, note=33, velocity=0, time=388),
    Message('note_on', channel=0, note=36, velocity=118, time=92),
    Message('note_on', channel=0, note=36, velocity=0, time=254),
    Message('note_on', channel=0, note=36, velocity=101, time=106),
    Message('note_on', channel=0, note=36, velocity=0, time=51),
    Message('note_on', channel=0, note=36, velocity=114, time=69),
    Message('note_on', channel=0, note=36, velocity=0, time=386),
    Message('note_on', channel=0, note=40, velocity=116, time=94),
    Message('note_on', channel=0, note=40, velocity=0, time=282),
    Message('note_on', channel=0, note=40, velocity=103, time=78),
    Message('note_on', channel=0, note=40, velocity=0, time=56),
    Message('note_on', channel=0, note=40, velocity=105, time=64),
    Message('note_on', channel=0, note=40, velocity=0, time=444),
    Message('note_on', channel=0, note=28, velocity=118, time=36),
    Message('note_on', channel=0, note=28, velocity=0, time=275),
    Message('note_on', channel=0, note=28, velocity=114, time=85),
    Message('note_on', channel=0, note=28, velocity=0, time=51),
    Message('note_on', channel=0, note=28, velocity=121, time=69),
    Message('note_on', channel=0, note=40, velocity=114, time=120),
    Message('note_on', channel=0, note=28, velocity=0, time=5),
    Message('note_on', channel=0, note=28, velocity=121, time=115),
    Message('note_on', channel=0, note=40, velocity=0, time=24),
    Message('note_on', channel=0, note=28, velocity=0, time=70),
    Message('note_on', channel=0, note=36, velocity=127, time=26),
    Message('note_on', channel=0, note=36, velocity=0, time=320),
    Message('note_on', channel=0, note=36, velocity=126, time=40),
    Message('note_on', channel=0, note=36, velocity=0, time=314),
    Message('note_on', channel=0, note=36, velocity=118, time=46),
    Message('note_on', channel=0, note=36, velocity=0, time=182),
    Message('note_on', channel=0, note=36, velocity=116, time=58),
    Message('note_on', channel=0, note=36, velocity=0, time=113),
    Message('note_on', channel=0, note=31, velocity=118, time=7),
    Message('note_on', channel=0, note=31, velocity=0, time=258),
    Message('note_on', channel=0, note=31, velocity=103, time=102),
    Message('note_on', channel=0, note=31, velocity=0, time=46),
    Message('note_on', channel=0, note=31, velocity=116, time=74),
    Message('note_on', channel=0, note=31, velocity=0, time=305),
    Message('note_on', channel=0, note=36, velocity=127, time=55),
    Message('note_on', channel=0, note=36, velocity=0, time=328),
    Message('note_on', channel=0, note=36, velocity=118, time=32),
    Message('note_on', channel=0, note=36, velocity=0, time=299),
    Message('note_on', channel=0, note=36, velocity=114, time=61),
    Message('note_on', channel=0, note=36, velocity=0, time=189),
    Message('note_on', channel=0, note=36, velocity=114, time=51),
    Message('note_on', channel=0, note=36, velocity=0, time=59),
    Message('note_on', channel=0, note=31, velocity=127, time=61),
    Message('note_on', channel=0, note=31, velocity=0, time=286),
    Message('note_on', channel=0, note=31, velocity=114, time=74),
    Message('note_on', channel=0, note=31, velocity=0, time=46),
    Message('note_on', channel=0, note=31, velocity=118, time=74),
    Message('note_on', channel=0, note=31, velocity=0, time=343),
    Message('note_on', channel=0, note=33, velocity=121, time=137),
    Message('note_on', channel=0, note=33, velocity=0, time=267),
    Message('note_on', channel=0, note=33, velocity=114, time=93),
    Message('note_on', channel=0, note=33, velocity=0, time=46),
    Message('note_on', channel=0, note=33, velocity=126, time=74),
    Message('note_on', channel=0, note=33, velocity=0, time=320),
    Message('note_on', channel=0, note=33, velocity=118, time=40),
    Message('note_on', channel=0, note=33, velocity=0, time=111),
    Message('note_on', channel=0, note=36, velocity=118, time=9),
    Message('note_on', channel=0, note=36, velocity=0, time=281),
    Message('note_on', channel=0, note=36, velocity=105, time=79),
    Message('note_on', channel=0, note=36, velocity=0, time=52),
    Message('note_on', channel=0, note=36, velocity=118, time=68),
    Message('note_on', channel=0, note=36, velocity=0, time=206),
    Message('note_on', channel=0, note=36, velocity=118, time=34),
    Message('note_on', channel=0, note=36, velocity=0, time=76),
    Message('note_on', channel=0, note=31, velocity=127, time=44),
    Message('note_on', channel=0, note=31, velocity=0, time=1808),
    Message('note_on', channel=0, note=36, velocity=123, time=232),
    Message('note_on', channel=0, note=36, velocity=0, time=261),
    Message('note_on', channel=0, note=36, velocity=103, time=99),
    Message('note_on', channel=0, note=36, velocity=0, time=47),
    Message('note_on', channel=0, note=36, velocity=114, time=73),
    Message('note_on', channel=0, note=36, velocity=0, time=359),
    Message('note_on', channel=0, note=36, velocity=118, time=121),
    Message('note_on', channel=0, note=36, velocity=0, time=269),
    Message('note_on', channel=0, note=36, velocity=109, time=91),
    Message('note_on', channel=0, note=36, velocity=0, time=43),
    Message('note_on', channel=0, note=36, velocity=118, time=77),
    Message('note_on', channel=0, note=35, velocity=101, time=240),
    Message('note_on', channel=0, note=36, velocity=0, time=3),
    Message('note_on', channel=0, note=33, velocity=105, time=117),
    Message('note_on', channel=0, note=35, velocity=0, time=11),
    Message('note_on', channel=0, note=33, velocity=0, time=78),
    Message('note_on', channel=0, note=31, velocity=121, time=31),
    Message('note_on', channel=0, note=31, velocity=0, time=280),
    Message('note_on', channel=0, note=31, velocity=111, time=80),
    Message('note_on', channel=0, note=31, velocity=0, time=46),
    Message('note_on', channel=0, note=31, velocity=118, time=74),
    Message('note_on', channel=0, note=31, velocity=0, time=393),
    Message('note_on', channel=0, note=31, velocity=118, time=87),
    Message('note_on', channel=0, note=31, velocity=0, time=269),
    Message('note_on', channel=0, note=31, velocity=111, time=91),
    Message('note_on', channel=0, note=31, velocity=0, time=44),
    Message('note_on', channel=0, note=31, velocity=118, time=76),
    Message('note_on', channel=0, note=31, velocity=0, time=399),
    Message('note_on', channel=0, note=36, velocity=126, time=81),
    Message('note_on', channel=0, note=36, velocity=0, time=282),
    Message('note_on', channel=0, note=36, velocity=111, time=78),
    Message('note_on', channel=0, note=36, velocity=0, time=43),
    Message('note_on', channel=0, note=36, velocity=118, time=77),
    Message('note_on', channel=0, note=36, velocity=0, time=376),
    Message('note_on', channel=0, note=36, velocity=118, time=104),
    Message('note_on', channel=0, note=36, velocity=0, time=274),
    Message('note_on', channel=0, note=36, velocity=118, time=86),
    Message('note_on', channel=0, note=36, velocity=0, time=41),
    Message('note_on', channel=0, note=36, velocity=121, time=79),
    Message('note_on', channel=0, note=36, velocity=0, time=376),
    Message('note_on', channel=0, note=31, velocity=127, time=104),
    Message('note_on', channel=0, note=31, velocity=0, time=284),
    Message('note_on', channel=0, note=31, velocity=118, time=76),
    Message('note_on', channel=0, note=31, velocity=0, time=41),
    Message('note_on', channel=0, note=31, velocity=123, time=79),
    Message('note_on', channel=0, note=31, velocity=0, time=389),
    Message('note_on', channel=0, note=31, velocity=126, time=91),
    Message('note_on', channel=0, note=31, velocity=0, time=257),
    Message('note_on', channel=0, note=31, velocity=121, time=103),
    Message('note_on', channel=0, note=31, velocity=0, time=41),
    Message('note_on', channel=0, note=31, velocity=126, time=79),
    Message('note_on', channel=0, note=31, velocity=0, time=305),
    Message('note_on', channel=0, note=31, velocity=127, time=55),
    Message('note_on', channel=0, note=31, velocity=0, time=65),
    Message('note_on', channel=0, note=36, velocity=123, time=55),
    Message('note_on', channel=0, note=36, velocity=0, time=296),
    Message('note_on', channel=0, note=36, velocity=118, time=64),
    Message('note_on', channel=0, note=36, velocity=0, time=39),
    Message('note_on', channel=0, note=36, velocity=126, time=81),
    Message('note_on', channel=0, note=36, velocity=0, time=373),
    Message('note_on', channel=0, note=36, velocity=126, time=107),
    Message('note_on', channel=0, note=36, velocity=0, time=256),
    Message('note_on', channel=0, note=36, velocity=118, time=104),
    Message('note_on', channel=0, note=36, velocity=0, time=50),
    Message('note_on', channel=0, note=36, velocity=123, time=70),
    Message('note_on', channel=0, note=36, velocity=0, time=364),
    Message('note_on', channel=0, note=31, velocity=127, time=116),
    Message('note_on', channel=0, note=31, velocity=0, time=251),
    Message('note_on', channel=0, note=31, velocity=107, time=109),
    Message('note_on', channel=0, note=31, velocity=0, time=49),
    Message('note_on', channel=0, note=31, velocity=121, time=71),
    Message('note_on', channel=0, note=31, velocity=0, time=452),
    Message('note_on', channel=0, note=29, velocity=127, time=28),
    Message('note_on', channel=0, note=29, velocity=0, time=270),
    Message('note_on', channel=0, note=29, velocity=116, time=90),
    Message('note_on', channel=0, note=29, velocity=0, time=43),
    Message('note_on', channel=0, note=29, velocity=127, time=77),
    Message('note_on', channel=0, note=29, velocity=0, time=423),
    Message('note_on', channel=0, note=36, velocity=118, time=57),
    Message('note_on', channel=0, note=36, velocity=0, time=275),
    Message('note_on', channel=0, note=36, velocity=116, time=85),
    Message('note_on', channel=0, note=36, velocity=0, time=41),
    Message('note_on', channel=0, note=36, velocity=121, time=79),
    Message('note_on', channel=0, note=36, velocity=0, time=377),
    Message('note_on', channel=0, note=36, velocity=121, time=103),
    Message('note_on', channel=0, note=36, velocity=0, time=292),
    Message('note_on', channel=0, note=36, velocity=109, time=68),
    Message('note_on', channel=0, note=36, velocity=0, time=42),
    Message('note_on', channel=0, note=36, velocity=123, time=78),
    Message('note_on', channel=0, note=36, velocity=0, time=410),
    Message('note_on', channel=0, note=31, velocity=127, time=70),
    Message('note_on', channel=0, note=31, velocity=0, time=294),
    Message('note_on', channel=0, note=31, velocity=114, time=66),
    Message('note_on', channel=0, note=31, velocity=0, time=41),
    Message('note_on', channel=0, note=31, velocity=126, time=79),
    Message('note_on', channel=0, note=31, velocity=0, time=384),
    Message('note_on', channel=0, note=29, velocity=123, time=96),
    Message('note_on', channel=0, note=29, velocity=0, time=257),
    Message('note_on', channel=0, note=29, velocity=116, time=103),
    Message('note_on', channel=0, note=29, velocity=0, time=59),
    Message('note_on', channel=0, note=29, velocity=121, time=61),
    Message('note_on', channel=0, note=29, velocity=0, time=424),
    Message('note_on', channel=0, note=36, velocity=127, time=56),
    Message('note_on', channel=0, note=36, velocity=0, time=276),
    Message('note_on', channel=0, note=36, velocity=118, time=84),
    Message('note_on', channel=0, note=36, velocity=0, time=48),
    Message('note_on', channel=0, note=36, velocity=121, time=72),
    Message('note_on', channel=0, note=36, velocity=0, time=392),
    Message('note_on', channel=0, note=36, velocity=127, time=88),
    Message('note_on', channel=0, note=36, velocity=0, time=276),
    Message('note_on', channel=0, note=36, velocity=116, time=84),
    Message('note_on', channel=0, note=36, velocity=0, time=50),
    Message('note_on', channel=0, note=36, velocity=126, time=70),
    Message('note_on', channel=0, note=36, velocity=0, time=453),
    Message('note_on', channel=0, note=28, velocity=123, time=27),
    Message('note_on', channel=0, note=28, velocity=0, time=2024),
    MetaMessage('end_of_track', time=0)]),
  MidiTrack([
    MetaMessage('midi_port', port=0, time=0),
    MetaMessage('track_name', name='Electric Piano', time=0),
    Message('program_change', channel=1, program=4, time=0),
    Message('control_change', channel=1, control=7, value=121, time=0),
    Message('control_change', channel=1, control=10, value=104, time=0),
    Message('note_on', channel=1, note=62, velocity=122, time=960),
    Message('note_on', channel=1, note=59, velocity=107, time=0),
    Message('note_on', channel=1, note=67, velocity=113, time=0),
    Message('note_on', channel=1, note=59, velocity=0, time=1815),
    Message('note_on', channel=1, note=67, velocity=0, time=14),
    Message('note_on', channel=1, note=62, velocity=0, time=5),
    Message('note_on', channel=1, note=60, velocity=110, time=86),
    Message('note_on', channel=1, note=64, velocity=113, time=0),
    Message('note_on', channel=1, note=67, velocity=107, time=0),
    Message('note_on', channel=1, note=60, velocity=0, time=846),
    Message('note_on', channel=1, note=67, velocity=0, time=6),
    Message('note_on', channel=1, note=64, velocity=0, time=5),
    Message('note_on', channel=1, note=57, velocity=116, time=103),
    Message('note_on', channel=1, note=64, velocity=116, time=0),
    Message('note_on', channel=1, note=67, velocity=113, time=0),
    Message('note_on', channel=1, note=57, velocity=0, time=873),
    Message('note_on', channel=1, note=67, velocity=0, time=10),
    Message('note_on', channel=1, note=64, velocity=0, time=1),
    Message('note_on', channel=1, note=62, velocity=110, time=76),
    Message('note_on', channel=1, note=59, velocity=110, time=0),
    Message('note_on', channel=1, note=67, velocity=107, time=0),
    Message('note_on', channel=1, note=59, velocity=0, time=1810),
    Message('note_on', channel=1, note=67, velocity=0, time=6),
    Message('note_on', channel=1, note=62, velocity=0, time=2),
    Message('note_on', channel=1, note=60, velocity=119, time=102),
    Message('note_on', channel=1, note=64, velocity=122, time=0),
    Message('note_on', channel=1, note=67, velocity=110, time=0),
    Message('note_on', channel=1, note=60, velocity=0, time=867),
    Message('note_on', channel=1, note=67, velocity=0, time=10),
    Message('note_on', channel=1, note=64, velocity=0, time=8),
    Message('note_on', channel=1, note=57, velocity=113, time=75),
    Message('note_on', channel=1, note=64, velocity=110, time=0),
    Message('note_on', channel=1, note=67, velocity=110, time=0),
    Message('note_on', channel=1, note=57, velocity=0, time=828),
    Message('note_on', channel=1, note=64, velocity=0, time=3),
    Message('note_on', channel=1, note=67, velocity=0, time=12),
    Message('note_on', channel=1, note=55, velocity=87, time=117),
    Message('note_on', channel=1, note=59, velocity=98, time=0),
    Message('note_on', channel=1, note=62, velocity=100, time=0),
    Message('note_on', channel=1, note=59, velocity=0, time=1588),
    Message('note_on', channel=1, note=62, velocity=0, time=12),
    Message('note_on', channel=1, note=55, velocity=0, time=0),
    Message('note_on', channel=1, note=43, velocity=68, time=320),
    Message('note_on', channel=1, note=55, velocity=85, time=0),
    Message('note_on', channel=1, note=62, velocity=91, time=0),
    Message('note_on', channel=1, note=59, velocity=91, time=0),
    Message('note_on', channel=1, note=43, velocity=0, time=1786),
    Message('note_on', channel=1, note=55, velocity=0, time=43),
    Message('note_on', channel=1, note=62, velocity=0, time=0),
    Message('note_on', channel=1, note=59, velocity=0, time=6),
    Message('note_on', channel=1, note=62, velocity=105, time=85),
    Message('note_on', channel=1, note=55, velocity=98, time=0),
    Message('note_on', channel=1, note=59, velocity=105, time=0),
    Message('control_change', channel=1, control=64, value=127, time=234),
    Message('note_on', channel=1, note=55, velocity=0, time=36),
    Message('note_on', channel=1, note=59, velocity=0, time=21),
    Message('note_on', channel=1, note=62, velocity=0, time=5),
    Message('control_change', channel=1, control=64, value=0, time=64),
    Message('note_on', channel=1, note=57, velocity=76, time=120),
    Message('note_on', channel=1, note=66, velocity=87, time=0),
    Message('note_on', channel=1, note=62, velocity=91, time=0),
    Message('note_on', channel=1, note=50, velocity=87, time=0),
    Message('control_change', channel=1, control=64, value=127, time=114),
    Message('note_on', channel=1, note=66, velocity=0, time=60),
    Message('note_on', channel=1, note=57, velocity=0, time=13),
    Message('note_on', channel=1, note=62, velocity=0, time=3),
    Message('note_on', channel=1, note=50, velocity=0, time=3),
    Message('control_change', channel=1, control=64, value=0, time=237),
    Message('note_on', channel=1, note=55, velocity=85, time=50),
    Message('note_on', channel=1, note=60, velocity=93, time=0),
    Message('note_on', channel=1, note=64, velocity=100, time=0),
    Message('note_on', channel=1, note=48, velocity=89, time=0),
    Message('note_on', channel=1, note=64, velocity=0, time=678),
    Message('note_on', channel=1, note=60, velocity=0, time=19),
    Message('note_on', channel=1, note=55, velocity=0, time=62),
    Message('note_on', channel=1, note=48, velocity=0, time=12),
    Message('note_on', channel=1, note=62, velocity=93, time=189),
    Message('note_on', channel=1, note=59, velocity=89, time=0),
    Message('note_on', channel=1, note=55, velocity=89, time=0),
    Message('control_change', channel=1, control=64, value=127, time=687),
    Message('note_on', channel=1, note=55, velocity=0, time=10),
    Message('note_on', channel=1, note=59, velocity=0, time=20),
    Message('note_on', channel=1, note=62, velocity=0, time=9),
    Message('control_change', channel=1, control=64, value=0, time=171),
    Message('note_on', channel=1, note=62, velocity=87, time=63),
    Message('note_on', channel=1, note=66, velocity=82, time=0),
    Message('note_on', channel=1, note=57, velocity=74, time=0),
    Message('note_on', channel=1, note=50, velocity=87, time=0),
    Message('control_change', channel=1, control=64, value=127, time=502),
    Message('note_on', channel=1, note=57, velocity=0, time=108),
    Message('note_on', channel=1, note=66, velocity=0, time=18),
    Message('note_on', channel=1, note=62, velocity=0, time=13),
    Message('note_on', channel=1, note=50, velocity=0, time=12),
    Message('control_change', channel=1, control=64, value=0, time=266),
    Message('note_on', channel=1, note=55, velocity=87, time=41),
    Message('note_on', channel=1, note=64, velocity=105, time=0),
    Message('note_on', channel=1, note=60, velocity=93, time=0),
    Message('note_on', channel=1, note=48, velocity=87, time=0),
    Message('control_change', channel=1, control=64, value=127, time=505),
    Message('note_on', channel=1, note=64, velocity=0, time=53),
    Message('note_on', channel=1, note=60, velocity=0, time=18),
    Message('note_on', channel=1, note=55, velocity=0, time=2),
    Message('note_on', channel=1, note=48, velocity=0, time=27),
    Message('control_change', channel=1, control=64, value=0, time=326),
    Message('note_on', channel=1, note=62, velocity=87, time=29),
    Message('note_on', channel=1, note=55, velocity=78, time=0),
    Message('note_on', channel=1, note=59, velocity=91, time=0),
    Message('note_on', channel=1, note=43, velocity=72, time=0),
    Message('control_change', channel=1, control=64, value=127, time=240),
    Message('note_on', channel=1, note=43, velocity=0, time=49),
    Message('note_on', channel=1, note=55, velocity=0, time=25),
    Message('note_on', channel=1, note=62, velocity=0, time=11),
    Message('note_on', channel=1, note=59, velocity=0, time=3),
    Message('control_change', channel=1, control=64, value=0, time=596),
    Message('note_on', channel=1, note=59, velocity=85, time=36),
    Message('note_on', channel=1, note=52, velocity=93, time=0),
    Message('note_on', channel=1, note=67, velocity=91, time=0),
    Message('note_on', channel=1, note=64, velocity=85, time=0),
    Message('control_change', channel=1, control=64, value=127, time=1433),
    Message('note_on', channel=1, note=59, velocity=0, time=16),
    Message('note_on', channel=1, note=67, velocity=0, time=20),
    Message('note_on', channel=1, note=52, velocity=0, time=2),
    Message('note_on', channel=1, note=64, velocity=0, time=15),
    Message('control_change', channel=1, control=64, value=0, time=408),
    Message('note_on', channel=1, note=55, velocity=89, time=26),
    Message('note_on', channel=1, note=48, velocity=91, time=0),
    Message('note_on', channel=1, note=60, velocity=89, time=0),
    Message('note_on', channel=1, note=64, velocity=102, time=0),
    Message('control_change', channel=1, control=64, value=127, time=479),
    Message('note_on', channel=1, note=55, velocity=0, time=52),
    Message('note_on', channel=1, note=48, velocity=0, time=9),
    Message('note_on', channel=1, note=64, velocity=0, time=6),
    Message('note_on', channel=1, note=60, velocity=0, time=9),
    Message('control_change', channel=1, control=64, value=0, time=383),
    Message('note_on', channel=1, note=55, velocity=87, time=22),
    Message('note_on', channel=1, note=59, velocity=91, time=0),
    Message('note_on', channel=1, note=62, velocity=91, time=0),
    Message('control_change', channel=1, control=64, value=127, time=476),
    Message('note_on', channel=1, note=55, velocity=0, time=150),
    Message('note_on', channel=1, note=59, velocity=0, time=9),
    Message('note_on', channel=1, note=62, velocity=0, time=6),
    Message('control_change', channel=1, control=64, value=0, time=241),
    Message('note_on', channel=1, note=60, velocity=98, time=78),
    Message('note_on', channel=1, note=64, velocity=89, time=0),
    Message('note_on', channel=1, note=45, velocity=82, time=0),
    Message('note_on', channel=1, note=57, velocity=85, time=0),
    Message('control_change', channel=1, control=64, value=127, time=464),
    Message('note_on', channel=1, note=45, velocity=0, time=50),
    Message('note_on', channel=1, note=57, velocity=0, time=26),
    Message('note_on', channel=1, note=60, velocity=0, time=2),
    Message('note_on', channel=1, note=64, velocity=0, time=16),
    Message('control_change', channel=1, control=64, value=0, time=348),
    Message('note_on', channel=1, note=60, velocity=85, time=54),
    Message('note_on', channel=1, note=55, velocity=80, time=0),
    Message('note_on', channel=1, note=64, velocity=82, time=0),
    Message('note_on', channel=1, note=48, velocity=82, time=0),
    Message('control_change', channel=1, control=64, value=127, time=491),
    Message('note_on', channel=1, note=48, velocity=0, time=27),
    Message('note_on', channel=1, note=55, velocity=0, time=11),
    Message('note_on', channel=1, note=60, velocity=0, time=16),
    Message('note_on', channel=1, note=64, velocity=0, time=8),
    Message('control_change', channel=1, control=64, value=0, time=370),
    Message('note_on', channel=1, note=59, velocity=87, time=37),
    Message('note_on', channel=1, note=64, velocity=93, time=0),
    Message('note_on', channel=1, note=55, velocity=87, time=0),
    Message('note_on', channel=1, note=52, velocity=85, time=0),
    Message('control_change', channel=1, control=64, value=127, time=471),
    Message('note_on', channel=1, note=55, velocity=0, time=239),
    Message('note_on', channel=1, note=52, velocity=0, time=6),
    Message('note_on', channel=1, note=59, velocity=0, time=1),
    Message('note_on', channel=1, note=64, velocity=0, time=18),
    Message('control_change', channel=1, control=64, value=0, time=196),
    Message('note_on', channel=1, note=62, velocity=89, time=29),
    Message('note_on', channel=1, note=66, velocity=85, time=0),
    Message('note_on', channel=1, note=66, velocity=0, time=606),
    Message('note_on', channel=1, note=62, velocity=0, time=0),
    Message('note_on', channel=1, note=64, velocity=105, time=354),
    Message('note_on', channel=1, note=60, velocity=98, time=0),
    Message('note_on', channel=1, note=67, velocity=95, time=0),
    Message('control_change', channel=1, control=64, value=127, time=644),
    Message('note_on', channel=1, note=67, velocity=0, time=49),
    Message('note_on', channel=1, note=64, velocity=0, time=5),
    Message('note_on', channel=1, note=60, velocity=0, time=18),
    Message('control_change', channel=1, control=64, value=0, time=231),
    Message('note_on', channel=1, note=43, velocity=82, time=13),
    Message('note_on', channel=1, note=62, velocity=93, time=0),
    Message('note_on', channel=1, note=55, velocity=93, time=0),
    Message('note_on', channel=1, note=59, velocity=89, time=0),
    Message('control_change', channel=1, control=64, value=127, time=463),
    Message('note_on', channel=1, note=43, velocity=0, time=26),
    Message('note_on', channel=1, note=55, velocity=0, time=11),
    Message('note_on', channel=1, note=59, velocity=0, time=7),
    Message('note_on', channel=1, note=62, velocity=0, time=5),
    Message('control_change', channel=1, control=64, value=0, time=408),
    Message('note_on', channel=1, note=55, velocity=89, time=40),
    Message('note_on', channel=1, note=48, velocity=85, time=0),
    Message('note_on', channel=1, note=60, velocity=91, time=0),
    Message('note_on', channel=1, note=64, velocity=105, time=0),
    Message('control_change', channel=1, control=64, value=127, time=456),
    Message('note_on', channel=1, note=64, velocity=0, time=58),
    Message('note_on', channel=1, note=55, velocity=0, time=1),
    Message('note_on', channel=1, note=60, velocity=0, time=12),
    Message('note_on', channel=1, note=48, velocity=0, time=10),
    Message('control_change', channel=1, control=64, value=0, time=389),
    Message('note_on', channel=1, note=43, velocity=82, time=34),
    Message('note_on', channel=1, note=62, velocity=89, time=0),
    Message('note_on', channel=1, note=59, velocity=82, time=0),
    Message('note_on', channel=1, note=55, velocity=87, time=0),
    Message('control_change', channel=1, control=64, value=127, time=476),
    Message('note_on', channel=1, note=43, velocity=0, time=124),
    Message('note_on', channel=1, note=55, velocity=0, time=7),
    Message('note_on', channel=1, note=59, velocity=0, time=2),
    Message('note_on', channel=1, note=62, velocity=0, time=10),
    Message('control_change', channel=1, control=64, value=0, time=312),
    Message('note_on', channel=1, note=45, velocity=95, time=29),
    Message('note_on', channel=1, note=57, velocity=89, time=0),
    Message('note_on', channel=1, note=60, velocity=102, time=0),
    Message('note_on', channel=1, note=64, velocity=102, time=0),
    Message('control_change', channel=1, control=64, value=127, time=447),
    Message('note_on', channel=1, note=45, velocity=0, time=31),
    Message('note_on', channel=1, note=60, velocity=0, time=22),
    Message('note_on', channel=1, note=57, velocity=0, time=3),
    Message('note_on', channel=1, note=64, velocity=0, time=16),
    Message('control_change', channel=1, control=64, value=0, time=411),
    Message('note_on', channel=1, note=55, velocity=89, time=30),
    Message('note_on', channel=1, note=48, velocity=91, time=0),
    Message('note_on', channel=1, note=60, velocity=98, time=0),
    Message('note_on', channel=1, note=64, velocity=102, time=0),
    Message('control_change', channel=1, control=64, value=127, time=461),
    Message('note_on', channel=1, note=55, velocity=0, time=65),
    Message('note_on', channel=1, note=64, velocity=0, time=9),
    Message('note_on', channel=1, note=48, velocity=0, time=10),
    Message('note_on', channel=1, note=60, velocity=0, time=2),
    Message('control_change', channel=1, control=64, value=0, time=398),
    Message('note_on', channel=1, note=43, velocity=89, time=15),
    Message('note_on', channel=1, note=62, velocity=100, time=0),
    Message('note_on', channel=1, note=59, velocity=98, time=0),
    Message('note_on', channel=1, note=55, velocity=91, time=0),
    Message('note_on', channel=1, note=43, velocity=0, time=1683),
    Message('note_on', channel=1, note=55, velocity=0, time=4),
    Message('note_on', channel=1, note=59, velocity=0, time=2),
    Message('note_on', channel=1, note=62, velocity=0, time=9),
    Message('note_on', channel=1, note=43, velocity=68, time=2142),
    Message('note_on', channel=1, note=55, velocity=85, time=0),
    Message('note_on', channel=1, note=62, velocity=91, time=0),
    Message('note_on', channel=1, note=59, velocity=91, time=0),
    Message('note_on', channel=1, note=43, velocity=0, time=1786),
    Message('note_on', channel=1, note=55, velocity=0, time=43),
    Message('note_on', channel=1, note=62, velocity=0, time=0),
    Message('note_on', channel=1, note=59, velocity=0, time=6),
    Message('note_on', channel=1, note=62, velocity=105, time=85),
    Message('note_on', channel=1, note=55, velocity=98, time=0),
    Message('note_on', channel=1, note=59, velocity=105, time=0),
    Message('control_change', channel=1, control=64, value=127, time=234),
    Message('note_on', channel=1, note=55, velocity=0, time=36),
    Message('note_on', channel=1, note=59, velocity=0, time=21),
    Message('note_on', channel=1, note=62, velocity=0, time=5),
    Message('control_change', channel=1, control=64, value=0, time=64),
    Message('note_on', channel=1, note=57, velocity=76, time=120),
    Message('note_on', channel=1, note=66, velocity=87, time=0),
    Message('note_on', channel=1, note=62, velocity=91, time=0),
    Message('note_on', channel=1, note=50, velocity=87, time=0),
    Message('control_change', channel=1, control=64, value=127, time=114),
    Message('note_on', channel=1, note=66, velocity=0, time=60),
    Message('note_on', channel=1, note=57, velocity=0, time=13),
    Message('note_on', channel=1, note=62, velocity=0, time=3),
    Message('note_on', channel=1, note=50, velocity=0, time=3),
    Message('control_change', channel=1, control=64, value=0, time=237),
    Message('note_on', channel=1, note=55, velocity=85, time=50),
    Message('note_on', channel=1, note=60, velocity=93, time=0),
    Message('note_on', channel=1, note=64, velocity=100, time=0),
    Message('note_on', channel=1, note=48, velocity=89, time=0),
    Message('note_on', channel=1, note=64, velocity=0, time=678),
    Message('note_on', channel=1, note=60, velocity=0, time=19),
    Message('note_on', channel=1, note=55, velocity=0, time=62),
    Message('note_on', channel=1, note=48, velocity=0, time=12),
    Message('note_on', channel=1, note=62, velocity=93, time=189),
    Message('note_on', channel=1, note=59, velocity=89, time=0),
    Message('note_on', channel=1, note=55, velocity=89, time=0),
    Message('control_change', channel=1, control=64, value=127, time=687),
    Message('note_on', channel=1, note=55, velocity=0, time=10),
    Message('note_on', channel=1, note=59, velocity=0, time=20),
    Message('note_on', channel=1, note=62, velocity=0, time=9),
    Message('control_change', channel=1, control=64, value=0, time=171),
    Message('note_on', channel=1, note=62, velocity=87, time=63),
    Message('note_on', channel=1, note=66, velocity=82, time=0),
    Message('note_on', channel=1, note=57, velocity=74, time=0),
    Message('note_on', channel=1, note=50, velocity=87, time=0),
    Message('control_change', channel=1, control=64, value=127, time=502),
    Message('note_on', channel=1, note=57, velocity=0, time=108),
    Message('note_on', channel=1, note=66, velocity=0, time=18),
    Message('note_on', channel=1, note=62, velocity=0, time=13),
    Message('note_on', channel=1, note=50, velocity=0, time=12),
    Message('control_change', channel=1, control=64, value=0, time=266),
    Message('note_on', channel=1, note=55, velocity=87, time=41),
    Message('note_on', channel=1, note=64, velocity=105, time=0),
    Message('note_on', channel=1, note=60, velocity=93, time=0),
    Message('note_on', channel=1, note=48, velocity=87, time=0),
    Message('control_change', channel=1, control=64, value=127, time=505),
    Message('note_on', channel=1, note=64, velocity=0, time=53),
    Message('note_on', channel=1, note=60, velocity=0, time=18),
    Message('note_on', channel=1, note=55, velocity=0, time=2),
    Message('note_on', channel=1, note=48, velocity=0, time=27),
    Message('control_change', channel=1, control=64, value=0, time=326),
    Message('note_on', channel=1, note=62, velocity=87, time=29),
    Message('note_on', channel=1, note=55, velocity=78, time=0),
    Message('note_on', channel=1, note=59, velocity=91, time=0),
    Message('note_on', channel=1, note=43, velocity=72, time=0),
    Message('control_change', channel=1, control=64, value=127, time=240),
    Message('note_on', channel=1, note=43, velocity=0, time=49),
    Message('note_on', channel=1, note=55, velocity=0, time=25),
    Message('note_on', channel=1, note=62, velocity=0, time=11),
    Message('note_on', channel=1, note=59, velocity=0, time=3),
    Message('control_change', channel=1, control=64, value=0, time=596),
    Message('note_on', channel=1, note=59, velocity=105, time=36),
    Message('note_on', channel=1, note=64, velocity=127, time=0),
    Message('note_on', channel=1, note=55, velocity=113, time=0),
    Message('note_on', channel=1, note=52, velocity=110, time=0),
    Message('control_change', channel=1, control=64, value=127, time=486),
    Message('note_on', channel=1, note=64, velocity=0, time=84),
    Message('note_on', channel=1, note=59, velocity=0, time=27),
    Message('note_on', channel=1, note=55, velocity=0, time=2),
    Message('note_on', channel=1, note=52, velocity=0, time=10),
    Message('note_on', channel=1, note=54, velocity=95, time=351),
    Message('note_on', channel=1, note=57, velocity=105, time=0),
    Message('note_on', channel=1, note=62, velocity=105, time=0),
    Message('control_change', channel=1, control=64, value=0, time=0),
    Message('note_on', channel=1, note=57, velocity=0, time=759),
    Message('note_on', channel=1, note=54, velocity=0, time=6),
    Message('note_on', channel=1, note=62, velocity=0, time=16),
    Message('note_on', channel=1, note=55, velocity=89, time=179),
    Message('note_on', channel=1, note=48, velocity=91, time=0),
    Message('note_on', channel=1, note=60, velocity=89, time=0),
    Message('note_on', channel=1, note=64, velocity=102, time=0),
    Message('control_change', channel=1, control=64, value=127, time=479),
    Message('note_on', channel=1, note=55, velocity=0, time=52),
    Message('note_on', channel=1, note=48, velocity=0, time=9),
    Message('note_on', channel=1, note=64, velocity=0, time=6),
    Message('note_on', channel=1, note=60, velocity=0, time=9),
    Message('control_change', channel=1, control=64, value=0, time=383),
    Message('note_on', channel=1, note=55, velocity=87, time=22),
    Message('note_on', channel=1, note=59, velocity=91, time=0),
    Message('note_on', channel=1, note=62, velocity=91, time=0),
    Message('control_change', channel=1, control=64, value=127, time=476),
    Message('note_on', channel=1, note=55, velocity=0, time=150),
    Message('note_on', channel=1, note=59, velocity=0, time=9),
    Message('note_on', channel=1, note=62, velocity=0, time=6),
    Message('control_change', channel=1, control=64, value=0, time=241),
    Message('note_on', channel=1, note=60, velocity=98, time=78),
    Message('note_on', channel=1, note=64, velocity=89, time=0),
    Message('note_on', channel=1, note=45, velocity=82, time=0),
    Message('note_on', channel=1, note=57, velocity=85, time=0),
    Message('control_change', channel=1, control=64, value=127, time=464),
    Message('note_on', channel=1, note=45, velocity=0, time=50),
    Message('note_on', channel=1, note=57, velocity=0, time=26),
    Message('note_on', channel=1, note=60, velocity=0, time=2),
    Message('note_on', channel=1, note=64, velocity=0, time=16),
    Message('control_change', channel=1, control=64, value=0, time=348),
    Message('note_on', channel=1, note=60, velocity=85, time=54),
    Message('note_on', channel=1, note=55, velocity=80, time=0),
    Message('note_on', channel=1, note=64, velocity=82, time=0),
    Message('note_on', channel=1, note=48, velocity=82, time=0),
    Message('control_change', channel=1, control=64, value=127, time=491),
    Message('note_on', channel=1, note=48, velocity=0, time=27),
    Message('note_on', channel=1, note=55, velocity=0, time=11),
    Message('note_on', channel=1, note=60, velocity=0, time=16),
    Message('note_on', channel=1, note=64, velocity=0, time=8),
    Message('control_change', channel=1, control=64, value=0, time=370),
    Message('note_on', channel=1, note=62, velocity=110, time=37),
    Message('note_on', channel=1, note=67, velocity=107, time=0),
    Message('note_on', channel=1, note=59, velocity=113, time=0),
    Message('note_on', channel=1, note=59, velocity=0, time=890),
    Message('note_on', channel=1, note=67, velocity=0, time=3),
    Message('note_on', channel=1, note=62, velocity=0, time=2),
    Message('note_on', channel=1, note=50, velocity=89, time=65),
    Message('note_on', channel=1, note=43, velocity=98, time=0),
    Message('note_on', channel=1, note=59, velocity=105, time=0),
    Message('note_on', channel=1, note=55, velocity=100, time=0),
    Message('note_on', channel=1, note=62, velocity=113, time=0),
    Message('note_on', channel=1, note=59, velocity=0, time=519),
    Message('note_on', channel=1, note=50, velocity=0, time=4),
    Message('note_on', channel=1, note=43, velocity=0, time=1),
    Message('note_on', channel=1, note=62, velocity=0, time=3),
    Message('note_on', channel=1, note=55, velocity=0, time=6),
    Message('note_on', channel=1, note=55, velocity=63, time=67),
    Message('note_on', channel=1, note=50, velocity=91, time=0),
    Message('note_on', channel=1, note=59, velocity=98, time=0),
    Message('note_on', channel=1, note=62, velocity=107, time=0),
    Message('note_on', channel=1, note=55, velocity=0, time=30),
    Message('note_on', channel=1, note=50, velocity=0, time=9),
    Message('note_on', channel=1, note=59, velocity=0, time=1),
    Message('note_on', channel=1, note=62, velocity=0, time=1),
    Message('note_on', channel=1, note=43, velocity=85, time=79),
    Message('note_on', channel=1, note=55, velocity=89, time=0),
    Message('note_on', channel=1, note=50, velocity=91, time=0),
    Message('note_on', channel=1, note=62, velocity=110, time=0),
    Message('note_on', channel=1, note=59, velocity=102, time=0),
    Message('note_on', channel=1, note=43, velocity=0, time=35),
    Message('note_on', channel=1, note=55, velocity=0, time=4),
    Message('note_on', channel=1, note=50, velocity=0, time=1),
    Message('note_on', channel=1, note=59, velocity=0, time=3),
    Message('note_on', channel=1, note=62, velocity=0, time=1),
    Message('note_on', channel=1, note=50, velocity=105, time=76),
    Message('note_on', channel=1, note=43, velocity=102, time=0),
    Message('note_on', channel=1, note=55, velocity=102, time=0),
    Message('note_on', channel=1, note=62, velocity=107, time=0),
    Message('note_on', channel=1, note=59, velocity=107, time=0),
    Message('note_on', channel=1, note=50, velocity=0, time=37),
    Message('note_on', channel=1, note=55, velocity=0, time=4),
    Message('note_on', channel=1, note=59, velocity=0, time=3),
    Message('note_on', channel=1, note=62, velocity=0, time=0),
    Message('note_on', channel=1, note=43, velocity=0, time=7),
    MetaMessage('end_of_track', time=0)]),
  MidiTrack([
    MetaMessage('midi_port', port=0, time=0),
    MetaMessage('track_name', name='12 String Guitar', time=0),
    Message('control_change', channel=2, control=0, value=8, time=0),
    Message('program_change', channel=2, program=25, time=0),
    Message('control_change', channel=2, control=7, value=111, time=0),
    Message('control_change', channel=2, control=10, value=127, time=0),
    Message('control_change', channel=2, control=93, value=75, time=950),
    Message('note_on', channel=2, note=59, velocity=95, time=10),
    Message('note_on', channel=2, note=62, velocity=113, time=0),
    Message('note_on', channel=2, note=67, velocity=105, time=0),
    Message('note_on', channel=2, note=59, velocity=0, time=1795),
    Message('note_on', channel=2, note=67, velocity=0, time=13),
    Message('note_on', channel=2, note=62, velocity=0, time=4),
    Message('note_on', channel=2, note=64, velocity=110, time=108),
    Message('note_on', channel=2, note=60, velocity=105, time=0),
    Message('note_on', channel=2, note=67, velocity=102, time=0),
    Message('note_on', channel=2, note=60, velocity=0, time=895),
    Message('note_on', channel=2, note=64, velocity=0, time=13),
    Message('note_on', channel=2, note=67, velocity=0, time=1),
    Message('note_on', channel=2, note=67, velocity=102, time=51),
    Message('note_on', channel=2, note=57, velocity=105, time=0),
    Message('note_on', channel=2, note=64, velocity=105, time=0),
    Message('note_on', channel=2, note=57, velocity=0, time=854),
    Message('note_on', channel=2, note=67, velocity=0, time=20),
    Message('note_on', channel=2, note=64, velocity=0, time=6),
    Message('note_on', channel=2, note=59, velocity=105, time=80),
    Message('note_on', channel=2, note=62, velocity=110, time=0),
    Message('note_on', channel=2, note=67, velocity=105, time=0),
    Message('note_on', channel=2, note=59, velocity=0, time=1816),
    Message('note_on', channel=2, note=62, velocity=0, time=8),
    Message('note_on', channel=2, note=67, velocity=0, time=10),
    Message('note_on', channel=2, note=64, velocity=110, time=86),
    Message('note_on', channel=2, note=60, velocity=105, time=0),
    Message('note_on', channel=2, note=67, velocity=102, time=0),
    Message('note_on', channel=2, note=60, velocity=0, time=877),
    Message('note_on', channel=2, note=67, velocity=0, time=10),
    Message('note_on', channel=2, note=64, velocity=0, time=1),
    Message('note_on', channel=2, note=64, velocity=116, time=72),
    Message('note_on', channel=2, note=67, velocity=107, time=0),
    Message('note_on', channel=2, note=57, velocity=102, time=0),
    Message('note_on', channel=2, note=64, velocity=0, time=814),
    Message('note_on', channel=2, note=67, velocity=0, time=6),
    Message('note_on', channel=2, note=57, velocity=0, time=4),
    Message('pitchwheel', channel=2, pitch=-844, time=94),
    Message('pitchwheel', channel=2, pitch=-2702, time=7),
    Message('pitchwheel', channel=2, pitch=-4897, time=9),
    Message('pitchwheel', channel=2, pitch=-6755, time=8),
    Message('pitchwheel', channel=2, pitch=-7937, time=8),
    Message('pitchwheel', channel=2, pitch=-8192, time=8),
    Message('note_on', channel=2, note=62, velocity=113, time=2),
    Message('note_on', channel=2, note=59, velocity=118, time=0),
    Message('pitchwheel', channel=2, pitch=-8106, time=63),
    Message('pitchwheel', channel=2, pitch=-7262, time=9),
    Message('pitchwheel', channel=2, pitch=-6164, time=8),
    Message('pitchwheel', channel=2, pitch=-4982, time=8),
    Message('pitchwheel', channel=2, pitch=-3969, time=8),
    Message('pitchwheel', channel=2, pitch=-3124, time=8),
    Message('pitchwheel', channel=2, pitch=-2280, time=8),
    Message('pitchwheel', channel=2, pitch=-1520, time=8),
    Message('pitchwheel', channel=2, pitch=-844, time=8),
    Message('pitchwheel', channel=2, pitch=-169, time=8),
    Message('pitchwheel', channel=2, pitch=0, time=8),
    Message('note_on', channel=2, note=59, velocity=0, time=284),
    Message('note_on', channel=2, note=62, velocity=0, time=10),
    Message('pitchwheel', channel=2, pitch=-1604, time=17),
    Message('pitchwheel', channel=2, pitch=-3715, time=8),
    Message('pitchwheel', channel=2, pitch=-5573, time=9),
    Message('pitchwheel', channel=2, pitch=-6924, time=7),
    Message('note_on', channel=2, note=62, velocity=113, time=1),
    Message('note_on', channel=2, note=59, velocity=118, time=0),
    Message('pitchwheel', channel=2, pitch=-7853, time=10),
    Message('pitchwheel', channel=2, pitch=-7684, time=24),
    Message('pitchwheel', channel=2, pitch=-6924, time=8),
    Message('pitchwheel', channel=2, pitch=-5911, time=8),
    Message('pitchwheel', channel=2, pitch=-5235, time=8),
    Message('pitchwheel', channel=2, pitch=-4391, time=9),
    Message('pitchwheel', channel=2, pitch=-3715, time=7),
    Message('pitchwheel', channel=2, pitch=-3209, time=9),
    Message('pitchwheel', channel=2, pitch=-2449, time=8),
    Message('pitchwheel', channel=2, pitch=-1520, time=7),
    Message('pitchwheel', channel=2, pitch=-422, time=9),
    Message('pitchwheel', channel=2, pitch=0, time=8),
    Message('note_on', channel=2, note=62, velocity=0, time=178),
    Message('note_on', channel=2, note=59, velocity=0, time=22),
    Message('note_on', channel=2, note=62, velocity=110, time=45),
    Message('note_on', channel=2, note=59, velocity=118, time=0),
    Message('note_on', channel=2, note=62, velocity=0, time=148),
    Message('note_on', channel=2, note=60, velocity=116, time=92),
    Message('note_on', channel=2, note=57, velocity=118, time=0),
    Message('note_on', channel=2, note=59, velocity=0, time=31),
    Message('note_on', channel=2, note=60, velocity=0, time=52),
    Message('note_on', channel=2, note=59, velocity=102, time=37),
    Message('note_on', channel=2, note=55, velocity=118, time=0),
    Message('note_on', channel=2, note=57, velocity=0, time=6),
    Message('note_on', channel=2, note=59, velocity=0, time=70),
    Message('note_on', channel=2, note=57, velocity=98, time=44),
    Message('note_on', channel=2, note=52, velocity=118, time=0),
    Message('note_on', channel=2, note=55, velocity=0, time=33),
    Message('note_on', channel=2, note=57, velocity=0, time=67),
    Message('note_on', channel=2, note=55, velocity=100, time=20),
    Message('note_on', channel=2, note=50, velocity=118, time=0),
    Message('note_on', channel=2, note=52, velocity=0, time=19),
    Message('note_on', channel=2, note=50, velocity=0, time=101),
    Message('note_on', channel=2, note=52, velocity=100, time=0),
    Message('note_on', channel=2, note=47, velocity=118, time=0),
    Message('note_on', channel=2, note=55, velocity=0, time=4),
    Message('note_on', channel=2, note=47, velocity=0, time=82),
    Message('note_on', channel=2, note=52, velocity=0, time=2),
    Message('note_on', channel=2, note=50, velocity=85, time=32),
    Message('note_on', channel=2, note=45, velocity=118, time=0),
    Message('note_on', channel=2, note=50, velocity=0, time=68),
    Message('note_on', channel=2, note=45, velocity=0, time=11),
    Message('note_on', channel=2, note=47, velocity=105, time=41),
    Message('note_on', channel=2, note=43, velocity=118, time=0),
    Message('note_on', channel=2, note=47, velocity=0, time=1747),
    Message('note_on', channel=2, note=43, velocity=0, time=9),
    Message('note_on', channel=2, note=62, velocity=113, time=21404),
    Message('note_on', channel=2, note=59, velocity=118, time=0),
    Message('pitchwheel', channel=2, pitch=-8106, time=63),
    Message('pitchwheel', channel=2, pitch=-7262, time=9),
    Message('pitchwheel', channel=2, pitch=-6164, time=8),
    Message('pitchwheel', channel=2, pitch=-4982, time=8),
    Message('pitchwheel', channel=2, pitch=-3969, time=8),
    Message('pitchwheel', channel=2, pitch=-3124, time=8),
    Message('pitchwheel', channel=2, pitch=-2280, time=8),
    Message('pitchwheel', channel=2, pitch=-1520, time=8),
    Message('pitchwheel', channel=2, pitch=-844, time=8),
    Message('pitchwheel', channel=2, pitch=-169, time=8),
    Message('pitchwheel', channel=2, pitch=0, time=8),
    Message('note_on', channel=2, note=59, velocity=0, time=284),
    Message('note_on', channel=2, note=62, velocity=0, time=10),
    Message('pitchwheel', channel=2, pitch=-1604, time=17),
    Message('pitchwheel', channel=2, pitch=-3715, time=8),
    Message('pitchwheel', channel=2, pitch=-5573, time=9),
    Message('pitchwheel', channel=2, pitch=-6924, time=7),
    Message('note_on', channel=2, note=62, velocity=113, time=1),
    Message('note_on', channel=2, note=59, velocity=118, time=0),
    Message('pitchwheel', channel=2, pitch=-7853, time=10),
    Message('pitchwheel', channel=2, pitch=-7684, time=24),
    Message('pitchwheel', channel=2, pitch=-6924, time=8),
    Message('pitchwheel', channel=2, pitch=-5911, time=8),
    Message('pitchwheel', channel=2, pitch=-5235, time=8),
    Message('pitchwheel', channel=2, pitch=-4391, time=9),
    Message('pitchwheel', channel=2, pitch=-3715, time=7),
    Message('pitchwheel', channel=2, pitch=-3209, time=9),
    Message('pitchwheel', channel=2, pitch=-2449, time=8),
    Message('pitchwheel', channel=2, pitch=-1520, time=7),
    Message('pitchwheel', channel=2, pitch=-422, time=9),
    Message('pitchwheel', channel=2, pitch=0, time=8),
    Message('note_on', channel=2, note=62, velocity=0, time=178),
    Message('note_on', channel=2, note=59, velocity=0, time=22),
    Message('note_on', channel=2, note=62, velocity=110, time=45),
    Message('note_on', channel=2, note=59, velocity=118, time=0),
    Message('note_on', channel=2, note=62, velocity=0, time=148),
    Message('note_on', channel=2, note=60, velocity=116, time=92),
    Message('note_on', channel=2, note=57, velocity=118, time=0),
    Message('note_on', channel=2, note=59, velocity=0, time=31),
    Message('note_on', channel=2, note=60, velocity=0, time=52),
    Message('note_on', channel=2, note=59, velocity=102, time=37),
    Message('note_on', channel=2, note=55, velocity=118, time=0),
    Message('note_on', channel=2, note=57, velocity=0, time=6),
    Message('note_on', channel=2, note=59, velocity=0, time=70),
    Message('note_on', channel=2, note=57, velocity=98, time=44),
    Message('note_on', channel=2, note=52, velocity=118, time=0),
    Message('note_on', channel=2, note=55, velocity=0, time=33),
    Message('note_on', channel=2, note=57, velocity=0, time=67),
    Message('note_on', channel=2, note=55, velocity=100, time=20),
    Message('note_on', channel=2, note=50, velocity=118, time=0),
    Message('note_on', channel=2, note=52, velocity=0, time=19),
    Message('note_on', channel=2, note=50, velocity=0, time=101),
    Message('note_on', channel=2, note=52, velocity=100, time=0),
    Message('note_on', channel=2, note=47, velocity=118, time=0),
    Message('note_on', channel=2, note=55, velocity=0, time=4),
    Message('note_on', channel=2, note=47, velocity=0, time=82),
    Message('note_on', channel=2, note=52, velocity=0, time=2),
    Message('note_on', channel=2, note=50, velocity=85, time=32),
    Message('note_on', channel=2, note=45, velocity=118, time=0),
    Message('note_on', channel=2, note=50, velocity=0, time=68),
    Message('note_on', channel=2, note=45, velocity=0, time=11),
    Message('note_on', channel=2, note=47, velocity=105, time=41),
    Message('note_on', channel=2, note=43, velocity=118, time=0),
    Message('note_on', channel=2, note=47, velocity=0, time=1747),
    Message('note_on', channel=2, note=43, velocity=0, time=9),
    Message('note_on', channel=2, note=52, velocity=107, time=6164),
    Message('note_on', channel=2, note=40, velocity=89, time=120),
    Message('note_on', channel=2, note=52, velocity=0, time=12),
    Message('note_on', channel=2, note=40, velocity=0, time=88),
    Message('note_on', channel=2, note=52, velocity=100, time=140),
    Message('note_on', channel=2, note=40, velocity=82, time=120),
    Message('note_on', channel=2, note=52, velocity=0, time=26),
    Message('note_on', channel=2, note=40, velocity=0, time=70),
    Message('note_on', channel=2, note=52, velocity=89, time=24),
    Message('note_on', channel=2, note=52, velocity=0, time=114),
    Message('note_on', channel=2, note=50, velocity=93, time=6),
    Message('note_on', channel=2, note=50, velocity=0, time=385),
    Message('note_on', channel=2, note=50, velocity=98, time=95),
    Message('note_on', channel=2, note=50, velocity=0, time=52),
    Message('note_on', channel=2, note=50, velocity=110, time=188),
    Message('note_on', channel=2, note=50, velocity=0, time=170),
    Message('note_on', channel=2, note=50, velocity=87, time=70),
    Message('note_on', channel=2, note=50, velocity=0, time=105),
    Message('note_on', channel=2, note=48, velocity=87, time=15),
    Message('note_on', channel=2, note=48, velocity=0, time=288),
    Message('note_on', channel=2, note=48, velocity=100, time=72),
    Message('note_on', channel=2, note=48, velocity=0, time=85),
    Message('note_on', channel=2, note=48, velocity=100, time=155),
    Message('note_on', channel=2, note=50, velocity=80, time=120),
    Message('note_on', channel=2, note=48, velocity=0, time=5),
    Message('note_on', channel=2, note=50, velocity=0, time=115),
    Message('note_on', channel=2, note=48, velocity=82, time=0),
    Message('note_on', channel=2, note=48, velocity=0, time=114),
    Message('note_on', channel=2, note=43, velocity=102, time=6),
    Message('note_on', channel=2, note=43, velocity=0, time=360),
    Message('note_on', channel=2, note=55, velocity=100, time=0),
    Message('note_on', channel=2, note=43, velocity=87, time=240),
    Message('note_on', channel=2, note=55, velocity=0, time=17),
    Message('note_on', channel=2, note=43, velocity=0, time=77),
    Message('note_on', channel=2, note=55, velocity=66, time=26),
    Message('note_on', channel=2, note=55, velocity=0, time=136),
    Message('note_on', channel=2, note=59, velocity=120, time=3824),
    Message('pitchwheel', channel=2, pitch=-1942, time=0),
    Message('pitchwheel', channel=2, pitch=-3715, time=10),
    Message('pitchwheel', channel=2, pitch=-5488, time=9),
    Message('pitchwheel', channel=2, pitch=-6586, time=8),
    Message('pitchwheel', channel=2, pitch=-7008, time=8),
    Message('pitchwheel', channel=2, pitch=-6924, time=40),
    Message('pitchwheel', channel=2, pitch=-6248, time=9),
    Message('pitchwheel', channel=2, pitch=-5573, time=8),
    Message('pitchwheel', channel=2, pitch=-4813, time=8),
    Message('pitchwheel', channel=2, pitch=-4306, time=8),
    Message('pitchwheel', channel=2, pitch=-3631, time=8),
    Message('pitchwheel', channel=2, pitch=-2955, time=4),
    Message('pitchwheel', channel=2, pitch=-2449, time=12),
    Message('pitchwheel', channel=2, pitch=-1858, time=11),
    Message('pitchwheel', channel=2, pitch=-1520, time=7),
    Message('pitchwheel', channel=2, pitch=-1267, time=9),
    Message('pitchwheel', channel=2, pitch=-1013, time=8),
    Message('pitchwheel', channel=2, pitch=-422, time=8),
    Message('pitchwheel', channel=2, pitch=0, time=8),
    Message('note_on', channel=2, note=67, velocity=120, time=57),
    Message('note_on', channel=2, note=62, velocity=120, time=0),
    Message('note_on', channel=2, note=71, velocity=120, time=0),
    Message('note_on', channel=2, note=59, velocity=0, time=27),
    Message('note_on', channel=2, note=59, velocity=120, time=213),
    Message('note_on', channel=2, note=62, velocity=0, time=7),
    Message('note_on', channel=2, note=67, velocity=0, time=11),
    Message('note_on', channel=2, note=71, velocity=0, time=5),
    Message('note_on', channel=2, note=67, velocity=120, time=97),
    Message('note_on', channel=2, note=62, velocity=120, time=0),
    Message('note_on', channel=2, note=71, velocity=120, time=0),
    Message('note_on', channel=2, note=59, velocity=0, time=29),
    Message('control_change', channel=2, control=64, value=127, time=206),
    Message('note_on', channel=2, note=59, velocity=120, time=5),
    Message('note_on', channel=2, note=62, velocity=0, time=11),
    Message('note_on', channel=2, note=71, velocity=0, time=1),
    Message('note_on', channel=2, note=67, velocity=0, time=4),
    Message('note_on', channel=2, note=59, velocity=0, time=54),
    Message('note_on', channel=2, note=64, velocity=120, time=50),
    Message('control_change', channel=2, control=64, value=0, time=2),
    Message('control_change', channel=2, control=64, value=127, time=170),
    Message('note_on', channel=2, note=64, velocity=0, time=15),
    Message('note_on', channel=2, note=64, velocity=120, time=53),
    Message('note_on', channel=2, note=64, velocity=0, time=108),
    Message('note_on', channel=2, note=67, velocity=120, time=12),
    Message('note_on', channel=2, note=62, velocity=120, time=0),
    Message('note_on', channel=2, note=71, velocity=120, time=0),
    Message('control_change', channel=2, control=64, value=0, time=0),
    Message('note_on', channel=2, note=71, velocity=0, time=93),
    Message('note_on', channel=2, note=67, velocity=0, time=4),
    Message('control_change', channel=2, control=64, value=127, time=137),
    Message('note_on', channel=2, note=62, velocity=0, time=4),
    Message('note_on', channel=2, note=59, velocity=120, time=2),
    Message('note_on', channel=2, note=59, velocity=0, time=69),
    Message('note_on', channel=2, note=57, velocity=120, time=51),
    Message('control_change', channel=2, control=64, value=0, time=57),
    Message('note_on', channel=2, note=57, velocity=0, time=17),
    Message('note_on', channel=2, note=55, velocity=120, time=46),
    Message('note_on', channel=2, note=55, velocity=0, time=170),
    Message('pitchwheel', channel=2, pitch=-1098, time=47),
    Message('pitchwheel', channel=2, pitch=-2449, time=8),
    Message('pitchwheel', channel=2, pitch=-2786, time=9),
    Message('note_on', channel=2, note=59, velocity=120, time=6),
    Message('pitchwheel', channel=2, pitch=-3715, time=0),
    Message('pitchwheel', channel=2, pitch=-5573, time=13),
    Message('pitchwheel', channel=2, pitch=-8192, time=9),
    Message('pitchwheel', channel=2, pitch=-7684, time=64),
    Message('pitchwheel', channel=2, pitch=-4982, time=9),
    Message('pitchwheel', channel=2, pitch=-1435, time=7),
    Message('pitchwheel', channel=2, pitch=0, time=9),
    Message('note_on', channel=2, note=59, velocity=0, time=92),
    Message('note_on', channel=2, note=59, velocity=120, time=37),
    Message('note_on', channel=2, note=59, velocity=0, time=215),
    Message('control_change', channel=2, control=64, value=127, time=22),
    Message('note_on', channel=2, note=57, velocity=120, time=3),
    Message('note_on', channel=2, note=57, velocity=0, time=84),
    Message('control_change', channel=2, control=64, value=0, time=3),
    Message('note_on', channel=2, note=59, velocity=120, time=33),
    Message('control_change', channel=2, control=64, value=127, time=115),
    Message('note_on', channel=2, note=57, velocity=120, time=5),
    Message('note_on', channel=2, note=59, velocity=0, time=31),
    Message('note_on', channel=2, note=57, velocity=0, time=20),
    Message('note_on', channel=2, note=55, velocity=120, time=69),
    Message('control_change', channel=2, control=64, value=0, time=7),
    Message('control_change', channel=2, control=64, value=127, time=170),
    Message('note_on', channel=2, note=55, velocity=0, time=11),
    Message('note_on', channel=2, note=55, velocity=120, time=52),
    Message('note_on', channel=2, note=48, velocity=120, time=120),
    Message('note_on', channel=2, note=55, velocity=0, time=35),
    Message('control_change', channel=2, control=64, value=0, time=2),
    Message('note_on', channel=2, note=55, velocity=120, time=83),
    Message('note_on', channel=2, note=48, velocity=0, time=21),
    Message('control_change', channel=2, control=64, value=127, time=19),
    Message('note_on', channel=2, note=48, velocity=120, time=200),
    Message('note_on', channel=2, note=55, velocity=0, time=26),
    Message('note_on', channel=2, note=55, velocity=120, time=94),
    Message('control_change', channel=2, control=64, value=0, time=9),
    Message('note_on', channel=2, note=48, velocity=0, time=19),
    Message('note_on', channel=2, note=57, velocity=120, time=92),
    Message('note_on', channel=2, note=50, velocity=120, time=0),
    Message('note_on', channel=2, note=55, velocity=0, time=12),
    Message('pitchwheel', channel=2, pitch=713, time=46),
    Message('pitchwheel', channel=2, pitch=2048, time=8),
    Message('note_on', channel=2, note=50, velocity=0, time=6),
    Message('pitchwheel', channel=2, pitch=4006, time=2),
    Message('pitchwheel', channel=2, pitch=6499, time=8),
    Message('pitchwheel', channel=2, pitch=8191, time=8),
    Message('note_on', channel=2, note=65, velocity=120, time=150),
    Message('note_on', channel=2, note=60, velocity=120, time=0),
    Message('note_on', channel=2, note=57, velocity=0, time=6),
    Message('note_on', channel=2, note=60, velocity=0, time=98),
    Message('note_on', channel=2, note=57, velocity=120, time=16),
    Message('note_on', channel=2, note=65, velocity=0, time=165),
    Message('pitchwheel', channel=2, pitch=3650, time=71),
    Message('pitchwheel', channel=2, pitch=0, time=17),
    Message('note_on', channel=2, note=55, velocity=120, time=107),
    Message('note_on', channel=2, note=57, velocity=0, time=20),
    Message('note_on', channel=2, note=55, velocity=0, time=130),
    Message('note_on', channel=2, note=64, velocity=120, time=90),
    Message('pitchwheel', channel=2, pitch=891, time=119),
    Message('pitchwheel', channel=2, pitch=1959, time=7),
    Message('pitchwheel', channel=2, pitch=2849, time=10),
    Message('pitchwheel', channel=2, pitch=3472, time=8),
    Message('pitchwheel', channel=2, pitch=3917, time=8),
    Message('pitchwheel', channel=2, pitch=4540, time=8),
    Message('pitchwheel', channel=2, pitch=5341, time=8),
    Message('pitchwheel', channel=2, pitch=6232, time=8),
    Message('pitchwheel', channel=2, pitch=7389, time=9),
    Message('pitchwheel', channel=2, pitch=8191, time=7),
    Message('note_on', channel=2, note=60, velocity=120, time=48),
    Message('note_on', channel=2, note=67, velocity=120, time=0),
    Message('note_on', channel=2, note=64, velocity=0, time=16),
    Message('note_on', channel=2, note=64, velocity=120, time=104),
    Message('note_on', channel=2, note=67, velocity=0, time=2),
    Message('note_on', channel=2, note=60, velocity=0, time=159),
    Message('note_on', channel=2, note=64, velocity=0, time=28),
    Message('note_on', channel=2, note=64, velocity=120, time=51),
    Message('pitchwheel', channel=2, pitch=7033, time=140),
    Message('pitchwheel', channel=2, pitch=2582, time=9),
    Message('pitchwheel', channel=2, pitch=0, time=7),
    Message('note_on', channel=2, note=62, velocity=120, time=84),
    Message('note_on', channel=2, note=64, velocity=0, time=4),
    Message('note_on', channel=2, note=62, velocity=0, time=173),
    Message('note_on', channel=2, note=67, velocity=120, time=63),
    Message('note_on', channel=2, note=67, velocity=0, time=203),
    Message('note_on', channel=2, note=67, velocity=120, time=37),
    Message('note_on', channel=2, note=67, velocity=0, time=161),
    Message('pitchwheel', channel=2, pitch=1781, time=77),
    Message('note_on', channel=2, note=67, velocity=120, time=2),
    Message('pitchwheel', channel=2, pitch=5609, time=7),
    Message('pitchwheel', channel=2, pitch=8191, time=8),
    Message('pitchwheel', channel=2, pitch=5252, time=115),
    Message('pitchwheel', channel=2, pitch=0, time=8),
    Message('note_on', channel=2, note=67, velocity=0, time=100),
    Message('note_on', channel=2, note=64, velocity=120, time=2),
    Message('note_on', channel=2, note=67, velocity=120, time=120),
    Message('note_on', channel=2, note=64, velocity=0, time=19),
    Message('note_on', channel=2, note=67, velocity=0, time=59),
    Message('note_on', channel=2, note=69, velocity=120, time=42),
    Message('pitchwheel', channel=2, pitch=90, time=44),
    Message('pitchwheel', channel=2, pitch=2760, time=7),
    Message('pitchwheel', channel=2, pitch=5252, time=8),
    Message('pitchwheel', channel=2, pitch=7745, time=9),
    Message('pitchwheel', channel=2, pitch=8191, time=7),
    Message('note_on', channel=2, note=69, velocity=0, time=121),
    Message('note_on', channel=2, note=69, velocity=120, time=44),
    Message('note_on', channel=2, note=69, velocity=0, time=178),
    Message('note_on', channel=2, note=69, velocity=120, time=62),
    Message('pitchwheel', channel=2, pitch=7656, time=94),
    Message('pitchwheel', channel=2, pitch=3739, time=9),
    Message('pitchwheel', channel=2, pitch=446, time=7),
    Message('pitchwheel', channel=2, pitch=0, time=9),
    Message('note_on', channel=2, note=67, velocity=120, time=121),
    Message('note_on', channel=2, note=69, velocity=0, time=6),
    Message('note_on', channel=2, note=69, velocity=120, time=114),
    Message('note_on', channel=2, note=67, velocity=0, time=7),
    Message('note_on', channel=2, note=69, velocity=0, time=91),
    Message('pitchwheel', channel=2, pitch=-2111, time=0),
    Message('pitchwheel', channel=2, pitch=-4053, time=8),
    Message('pitchwheel', channel=2, pitch=-5826, time=9),
    Message('note_on', channel=2, note=71, velocity=120, time=5),
    Message('note_on', channel=2, note=76, velocity=120, time=0),
    Message('pitchwheel', channel=2, pitch=-7177, time=0),
    Message('pitchwheel', channel=2, pitch=-8191, time=8),
    Message('control_change', channel=2, control=64, value=127, time=4),
    Message('pitchwheel', channel=2, pitch=-8192, time=10),
    Message('pitchwheel', channel=2, pitch=-8191, time=40),
    Message('pitchwheel', channel=2, pitch=-7599, time=8),
    Message('pitchwheel', channel=2, pitch=-6924, time=8),
    Message('pitchwheel', channel=2, pitch=-6164, time=8),
    Message('pitchwheel', channel=2, pitch=-5235, time=9),
    Message('pitchwheel', channel=2, pitch=-4137, time=7),
    Message('pitchwheel', channel=2, pitch=-3209, time=8),
    Message('pitchwheel', channel=2, pitch=-2280, time=9),
    Message('pitchwheel', channel=2, pitch=-1267, time=7),
    Message('pitchwheel', channel=2, pitch=-253, time=9),
    Message('pitchwheel', channel=2, pitch=0, time=8),
    Message('note_on', channel=2, note=71, velocity=0, time=56),
    Message('note_on', channel=2, note=76, velocity=0, time=7),
    Message('note_on', channel=2, note=71, velocity=120, time=34),
    Message('note_on', channel=2, note=76, velocity=120, time=0),
    Message('note_on', channel=2, note=71, velocity=0, time=49),
    Message('note_on', channel=2, note=76, velocity=0, time=13),
    Message('note_on', channel=2, note=71, velocity=120, time=58),
    Message('note_on', channel=2, note=76, velocity=120, time=0),
    Message('note_on', channel=2, note=71, velocity=0, time=48),
    Message('note_on', channel=2, note=76, velocity=0, time=4),
    Message('control_change', channel=2, control=64, value=0, time=35),
    Message('pitchwheel', channel=2, pitch=-2364, time=31),
    Message('note_on', channel=2, note=76, velocity=120, time=2),
    Message('note_on', channel=2, note=71, velocity=120, time=0),
    Message('pitchwheel', channel=2, pitch=-4475, time=7),
    Message('pitchwheel', channel=2, pitch=-5573, time=8),
    Message('pitchwheel', channel=2, pitch=-5742, time=8),
    Message('pitchwheel', channel=2, pitch=-5911, time=8),
    Message('control_change', channel=2, control=64, value=127, time=58),
    Message('pitchwheel', channel=2, pitch=-5573, time=6),
    Message('pitchwheel', channel=2, pitch=-4729, time=9),
    Message('pitchwheel', channel=2, pitch=-3378, time=8),
    Message('pitchwheel', channel=2, pitch=-1689, time=7),
    Message('pitchwheel', channel=2, pitch=0, time=9),
    Message('note_on', channel=2, note=71, velocity=0, time=55),
    Message('note_on', channel=2, note=76, velocity=0, time=6),
    Message('note_on', channel=2, note=71, velocity=120, time=51),
    Message('note_on', channel=2, note=76, velocity=120, time=0),
    Message('note_on', channel=2, note=71, velocity=0, time=52),
    Message('note_on', channel=2, note=76, velocity=0, time=2),
    Message('note_on', channel=2, note=71, velocity=120, time=66),
    Message('note_on', channel=2, note=76, velocity=120, time=0),
    Message('control_change', channel=2, control=64, value=0, time=89),
    Message('note_on', channel=2, note=76, velocity=0, time=19),
    Message('note_on', channel=2, note=71, velocity=0, time=8),
    Message('note_on', channel=2, note=74, velocity=120, time=124),
    Message('note_on', channel=2, note=69, velocity=120, time=240),
    Message('note_on', channel=2, note=74, velocity=0, time=7),
    Message('note_on', channel=2, note=69, velocity=0, time=154),
    Message('note_on', channel=2, note=66, velocity=120, time=79),
    Message('note_on', channel=2, note=62, velocity=120, time=120),
    Message('note_on', channel=2, note=66, velocity=0, time=17),
    Message('pitchwheel', channel=2, pitch=-1013, time=183),
    Message('note_on', channel=2, note=62, velocity=0, time=2),
    Message('pitchwheel', channel=2, pitch=-2449, time=6),
    Message('pitchwheel', channel=2, pitch=-3462, time=8),
    Message('pitchwheel', channel=2, pitch=-4560, time=10),
    Message('pitchwheel', channel=2, pitch=-5320, time=7),
    Message('note_on', channel=2, note=67, velocity=120, time=7),
    Message('pitchwheel', channel=2, pitch=-5657, time=0),
    Message('pitchwheel', channel=2, pitch=-5911, time=8),
    Message('pitchwheel', channel=2, pitch=-5826, time=35),
    Message('pitchwheel', channel=2, pitch=-5488, time=9),
    Message('pitchwheel', channel=2, pitch=-4897, time=8),
    Message('pitchwheel', channel=2, pitch=-4222, time=7),
    Message('pitchwheel', channel=2, pitch=-3293, time=9),
    Message('pitchwheel', channel=2, pitch=-2364, time=8),
    Message('pitchwheel', channel=2, pitch=-1520, time=8),
    Message('pitchwheel', channel=2, pitch=-1013, time=8),
    Message('pitchwheel', channel=2, pitch=-338, time=8),
    Message('pitchwheel', channel=2, pitch=0, time=8),
    Message('note_on', channel=2, note=69, velocity=120, time=124),
    Message('note_on', channel=2, note=67, velocity=0, time=4),
    Message('note_on', channel=2, note=69, velocity=0, time=209),
    Message('note_on', channel=2, note=69, velocity=120, time=27),
    Message('note_on', channel=2, note=67, velocity=120, time=120),
    Message('note_on', channel=2, note=69, velocity=0, time=12),
    Message('control_change', channel=2, control=64, value=127, time=64),
    Message('note_on', channel=2, note=67, velocity=0, time=22),
    Message('note_on', channel=2, note=69, velocity=120, time=22),
    Message('note_on', channel=2, note=69, velocity=0, time=64),
    Message('control_change', channel=2, control=64, value=0, time=33),
    Message('note_on', channel=2, note=69, velocity=120, time=23),
    Message('pitchwheel', channel=2, pitch=1425, time=78),
    Message('pitchwheel', channel=2, pitch=3917, time=8),
    Message('pitchwheel', channel=2, pitch=6321, time=8),
    Message('pitchwheel', channel=2, pitch=8191, time=9),
    Message('note_on', channel=2, note=69, velocity=0, time=82),
    Message('control_change', channel=2, control=64, value=127, time=51),
    Message('note_on', channel=2, note=69, velocity=120, time=4),
    Message('pitchwheel', channel=2, pitch=1959, time=221),
    Message('pitchwheel', channel=2, pitch=0, time=8),
    Message('control_change', channel=2, control=64, value=0, time=55),
    Message('note_on', channel=2, note=67, velocity=120, time=76),
    Message('note_on', channel=2, note=69, velocity=0, time=20),
    Message('note_on', channel=2, note=67, velocity=0, time=313),
    Message('note_on', channel=2, note=69, velocity=120, time=147),
    Message('note_on', channel=2, note=71, velocity=120, time=240),
    Message('note_on', channel=2, note=72, velocity=120, time=120),
    Message('note_on', channel=2, note=71, velocity=0, time=14),
    Message('note_on', channel=2, note=71, velocity=120, time=226),
    Message('note_on', channel=2, note=72, velocity=0, time=19),
    Message('note_on', channel=2, note=69, velocity=0, time=12),
    Message('note_on', channel=2, note=69, velocity=120, time=89),
    Message('note_on', channel=2, note=71, velocity=0, time=31),
    Message('note_on', channel=2, note=69, velocity=0, time=160),
    Message('note_on', channel=2, note=64, velocity=120, time=49),
    Message('note_on', channel=2, note=66, velocity=120, time=240),
    Message('note_on', channel=2, note=67, velocity=120, time=120),
    Message('note_on', channel=2, note=66, velocity=0, time=1),
    Message('note_on', channel=2, note=66, velocity=120, time=239),
    Message('note_on', channel=2, note=67, velocity=0, time=2),
    Message('note_on', channel=2, note=64, velocity=0, time=93),
    Message('note_on', channel=2, note=64, velocity=120, time=25),
    Message('note_on', channel=2, note=66, velocity=0, time=35),
    Message('note_on', channel=2, note=64, velocity=0, time=107),
    Message('pitchwheel', channel=2, pitch=-1351, time=73),
    Message('pitchwheel', channel=2, pitch=-3378, time=8),
    Message('pitchwheel', channel=2, pitch=-5066, time=8),
    Message('pitchwheel', channel=2, pitch=-5826, time=8),
    Message('note_on', channel=2, note=67, velocity=120, time=1),
    Message('note_on', channel=2, note=64, velocity=120, time=0),
    Message('note_on', channel=2, note=71, velocity=120, time=0),
    Message('pitchwheel', channel=2, pitch=-6417, time=8),
    Message('pitchwheel', channel=2, pitch=-6755, time=13),
    Message('pitchwheel', channel=2, pitch=-6333, time=57),
    Message('pitchwheel', channel=2, pitch=-5742, time=9),
    Message('pitchwheel', channel=2, pitch=-5151, time=7),
    Message('pitchwheel', channel=2, pitch=-4391, time=8),
    Message('pitchwheel', channel=2, pitch=-3715, time=9),
    Message('pitchwheel', channel=2, pitch=-3209, time=7),
    Message('pitchwheel', channel=2, pitch=-2871, time=9),
    Message('pitchwheel', channel=2, pitch=-2449, time=9),
    Message('control_change', channel=2, control=64, value=127, time=6),
    Message('pitchwheel', channel=2, pitch=-1773, time=2),
    Message('pitchwheel', channel=2, pitch=-591, time=8),
    Message('pitchwheel', channel=2, pitch=0, time=8),
    Message('note_on', channel=2, note=64, velocity=0, time=47),
    Message('note_on', channel=2, note=71, velocity=0, time=1),
    Message('note_on', channel=2, note=67, velocity=0, time=1),
    Message('note_on', channel=2, note=64, velocity=120, time=31),
    Message('note_on', channel=2, note=67, velocity=120, time=0),
    Message('note_on', channel=2, note=71, velocity=120, time=0),
    Message('note_on', channel=2, note=64, velocity=0, time=45),
    Message('note_on', channel=2, note=67, velocity=0, time=7),
    Message('note_on', channel=2, note=71, velocity=0, time=8),
    Message('note_on', channel=2, note=64, velocity=120, time=60),
    Message('note_on', channel=2, note=71, velocity=120, time=0),
    Message('note_on', channel=2, note=67, velocity=120, time=0),
    Message('note_on', channel=2, note=64, velocity=0, time=41),
    Message('note_on', channel=2, note=67, velocity=0, time=10),
    Message('note_on', channel=2, note=71, velocity=0, time=2),
    Message('control_change', channel=2, control=64, value=0, time=35),
    Message('note_on', channel=2, note=71, velocity=120, time=32),
    Message('note_on', channel=2, note=64, velocity=120, time=0),
    Message('note_on', channel=2, note=67, velocity=120, time=0),
    Message('pitchwheel', channel=2, pitch=-4053, time=16),
    Message('pitchwheel', channel=2, pitch=-6248, time=8),
    Message('pitchwheel', channel=2, pitch=-7431, time=8),
    Message('pitchwheel', channel=2, pitch=-7262, time=50),
    Message('pitchwheel', channel=2, pitch=-6924, time=7),
    Message('control_change', channel=2, control=64, value=127, time=2),
    Message('pitchwheel', channel=2, pitch=-6586, time=7),
    Message('pitchwheel', channel=2, pitch=-6333, time=8),
    Message('pitchwheel', channel=2, pitch=-6080, time=7),
    Message('pitchwheel', channel=2, pitch=-5573, time=9),
    Message('pitchwheel', channel=2, pitch=-4897, time=10),
    Message('pitchwheel', channel=2, pitch=-3715, time=8),
    Message('pitchwheel', channel=2, pitch=-2702, time=8),
    Message('pitchwheel', channel=2, pitch=-1773, time=9),
    Message('pitchwheel', channel=2, pitch=-1013, time=7),
    Message('pitchwheel', channel=2, pitch=-338, time=8),
    Message('pitchwheel', channel=2, pitch=0, time=9),
    Message('note_on', channel=2, note=71, velocity=0, time=9),
    Message('note_on', channel=2, note=64, velocity=0, time=3),
    Message('note_on', channel=2, note=67, velocity=0, time=1),
    Message('note_on', channel=2, note=64, velocity=120, time=46),
    Message('note_on', channel=2, note=71, velocity=120, time=0),
    Message('note_on', channel=2, note=67, velocity=120, time=0),
    Message('note_on', channel=2, note=64, velocity=0, time=51),
    Message('note_on', channel=2, note=67, velocity=0, time=7),
    Message('note_on', channel=2, note=71, velocity=0, time=2),
    Message('note_on', channel=2, note=64, velocity=120, time=60),
    Message('note_on', channel=2, note=71, velocity=120, time=0),
    Message('note_on', channel=2, note=67, velocity=120, time=0),
    Message('note_on', channel=2, note=64, velocity=0, time=53),
    Message('note_on', channel=2, note=67, velocity=0, time=2),
    Message('note_on', channel=2, note=71, velocity=0, time=8),
    Message('note_on', channel=2, note=71, velocity=120, time=57),
    Message('note_on', channel=2, note=64, velocity=120, time=0),
    Message('control_change', channel=2, control=64, value=0, time=66),
    Message('note_on', channel=2, note=69, velocity=120, time=54),
    Message('note_on', channel=2, note=64, velocity=0, time=6),
    Message('note_on', channel=2, note=71, velocity=0, time=15),
    Message('note_on', channel=2, note=67, velocity=120, time=99),
    Message('note_on', channel=2, note=69, velocity=0, time=15),
    Message('pitchwheel', channel=2, pitch=-169, time=97),
    Message('note_on', channel=2, note=67, velocity=0, time=2),
    Message('note_on', channel=2, note=74, velocity=120, time=6),
    Message('note_on', channel=2, note=69, velocity=120, time=0),
    Message('note_on', channel=2, note=78, velocity=120, time=0),
    Message('pitchwheel', channel=2, pitch=-2364, time=0),
    Message('pitchwheel', channel=2, pitch=-4475, time=6),
    Message('pitchwheel', channel=2, pitch=-6586, time=13),
    Message('pitchwheel', channel=2, pitch=-7599, time=8),
    Message('pitchwheel', channel=2, pitch=-7262, time=40),
    Message('pitchwheel', channel=2, pitch=-6080, time=9),
    Message('pitchwheel', channel=2, pitch=-5066, time=8),
    Message('pitchwheel', channel=2, pitch=-4391, time=8),
    Message('pitchwheel', channel=2, pitch=-3715, time=8),
    Message('pitchwheel', channel=2, pitch=-2955, time=8),
    Message('pitchwheel', channel=2, pitch=-2702, time=8),
    Message('pitchwheel', channel=2, pitch=-2195, time=8),
    Message('pitchwheel', channel=2, pitch=-1858, time=8),
    Message('pitchwheel', channel=2, pitch=-1351, time=8),
    Message('pitchwheel', channel=2, pitch=-844, time=9),
    Message('pitchwheel', channel=2, pitch=-422, time=7),
    Message('pitchwheel', channel=2, pitch=-253, time=9),
    Message('pitchwheel', channel=2, pitch=-84, time=8),
    Message('pitchwheel', channel=2, pitch=0, time=8),
    Message('note_on', channel=2, note=69, velocity=0, time=285),
    Message('note_on', channel=2, note=74, velocity=0, time=3),
    Message('note_on', channel=2, note=78, velocity=0, time=10),
    Message('note_on', channel=2, note=40, velocity=110, time=14521),
    Message('note_on', channel=2, note=40, velocity=0, time=120),
    Message('note_on', channel=2, note=52, velocity=110, time=0),
    Message('note_on', channel=2, note=52, velocity=0, time=47),
    Message('note_on', channel=2, note=40, velocity=110, time=193),
    Message('note_on', channel=2, note=40, velocity=0, time=111),
    Message('note_on', channel=2, note=52, velocity=98, time=9),
    Message('note_on', channel=2, note=52, velocity=0, time=217),
    Message('note_on', channel=2, note=52, velocity=110, time=503),
    Message('note_on', channel=2, note=52, velocity=0, time=72),
    Message('note_on', channel=2, note=52, velocity=105, time=168),
    Message('note_on', channel=2, note=50, velocity=107, time=120),
    Message('note_on', channel=2, note=52, velocity=0, time=24),
    Message('note_on', channel=2, note=50, velocity=0, time=77),
    Message('note_on', channel=2, note=52, velocity=85, time=19),
    Message('note_on', channel=2, note=52, velocity=0, time=98),
    Message('note_on', channel=2, note=43, velocity=113, time=262),
    Message('note_on', channel=2, note=43, velocity=0, time=52),
    Message('note_on', channel=2, note=43, velocity=113, time=188),
    Message('note_on', channel=2, note=43, velocity=0, time=531),
    Message('note_on', channel=2, note=48, velocity=113, time=189),
    Message('note_on', channel=2, note=48, velocity=0, time=65),
    Message('note_on', channel=2, note=48, velocity=107, time=295),
    Message('note_on', channel=2, note=48, velocity=0, time=115),
    Message('note_on', channel=2, note=50, velocity=87, time=5),
    Message('note_on', channel=2, note=48, velocity=110, time=120),
    Message('note_on', channel=2, note=50, velocity=0, time=22),
    Message('note_on', channel=2, note=48, velocity=0, time=85),
    Message('note_on', channel=2, note=43, velocity=116, time=253),
    Message('note_on', channel=2, note=43, velocity=0, time=54),
    Message('note_on', channel=2, note=43, velocity=116, time=186),
    Message('note_on', channel=2, note=43, velocity=0, time=112),
    Message('note_on', channel=2, note=55, velocity=87, time=8),
    Message('note_on', channel=2, note=43, velocity=102, time=120),
    Message('note_on', channel=2, note=55, velocity=0, time=6),
    Message('note_on', channel=2, note=43, velocity=0, time=108),
    Message('note_on', channel=2, note=48, velocity=110, time=4206),
    Message('note_on', channel=2, note=48, velocity=0, time=55),
    Message('note_on', channel=2, note=48, velocity=105, time=305),
    Message('note_on', channel=2, note=48, velocity=0, time=237),
    Message('note_on', channel=2, note=52, velocity=113, time=363),
    Message('note_on', channel=2, note=52, velocity=0, time=63),
    Message('note_on', channel=2, note=52, velocity=105, time=297),
    Message('note_on', channel=2, note=52, velocity=0, time=232),
    Message('note_on', channel=2, note=55, velocity=68, time=8),
    Message('note_on', channel=2, note=52, velocity=107, time=120),
    Message('note_on', channel=2, note=55, velocity=0, time=25),
    Message('note_on', channel=2, note=52, velocity=0, time=40),
    Message('note_on', channel=2, note=55, velocity=113, time=175),
    Message('note_on', channel=2, note=55, velocity=0, time=54),
    Message('note_on', channel=2, note=55, velocity=105, time=306),
    Message('note_on', channel=2, note=43, velocity=100, time=120),
    Message('note_on', channel=2, note=55, velocity=0, time=4),
    Message('note_on', channel=2, note=43, velocity=0, time=105),
    Message('note_on', channel=2, note=43, velocity=119, time=131),
    Message('note_on', channel=2, note=43, velocity=0, time=52),
    Message('note_on', channel=2, note=43, velocity=98, time=188),
    Message('note_on', channel=2, note=43, velocity=0, time=45),
    Message('note_on', channel=2, note=43, velocity=116, time=195),
    Message('note_on', channel=2, note=43, velocity=0, time=168),
    Message('note_on', channel=2, note=43, velocity=116, time=72),
    Message('note_on', channel=2, note=43, velocity=0, time=105),
    Message('note_on', channel=2, note=55, velocity=102, time=15),
    Message('note_on', channel=2, note=43, velocity=113, time=120),
    Message('note_on', channel=2, note=55, velocity=0, time=22),
    Message('note_on', channel=2, note=43, velocity=0, time=64),
    Message('note_on', channel=2, note=48, velocity=105, time=154),
    Message('note_on', channel=2, note=48, velocity=0, time=60),
    Message('note_on', channel=2, note=48, velocity=113, time=300),
    Message('note_on', channel=2, note=48, velocity=0, time=276),
    Message('note_on', channel=2, note=52, velocity=116, time=324),
    Message('note_on', channel=2, note=52, velocity=0, time=53),
    Message('note_on', channel=2, note=52, velocity=113, time=187),
    Message('note_on', channel=2, note=52, velocity=0, time=152),
    Message('note_on', channel=2, note=52, velocity=72, time=88),
    Message('note_on', channel=2, note=52, velocity=0, time=73),
    Message('note_on', channel=2, note=52, velocity=100, time=47),
    Message('note_on', channel=2, note=52, velocity=0, time=119),
    Message('note_on', channel=2, note=48, velocity=110, time=1),
    Message('note_on', channel=2, note=48, velocity=0, time=68),
    Message('note_on', channel=2, note=43, velocity=110, time=172),
    Message('note_on', channel=2, note=43, velocity=0, time=58),
    Message('note_on', channel=2, note=43, velocity=113, time=182),
    Message('note_on', channel=2, note=43, velocity=0, time=52),
    Message('note_on', channel=2, note=55, velocity=98, time=68),
    Message('note_on', channel=2, note=55, velocity=0, time=269),
    Message('note_on', channel=2, note=55, velocity=57, time=91),
    Message('note_on', channel=2, note=55, velocity=0, time=24),
    Message('note_on', channel=2, note=55, velocity=107, time=96),
    Message('note_on', channel=2, note=55, velocity=0, time=71),
    Message('note_on', channel=2, note=43, velocity=113, time=49),
    Message('note_on', channel=2, note=43, velocity=0, time=61),
    Message('note_on', channel=2, note=43, velocity=113, time=179),
    Message('note_on', channel=2, note=43, velocity=0, time=62),
    Message('note_on', channel=2, note=43, velocity=113, time=178),
    Message('note_on', channel=2, note=43, velocity=0, time=65),
    Message('note_on', channel=2, note=55, velocity=98, time=55),
    Message('note_on', channel=2, note=53, velocity=119, time=120),
    Message('note_on', channel=2, note=55, velocity=0, time=25),
    Message('note_on', channel=2, note=53, velocity=0, time=68),
    Message('note_on', channel=2, note=48, velocity=116, time=147),
    Message('note_on', channel=2, note=48, velocity=0, time=53),
    Message('note_on', channel=2, note=48, velocity=105, time=307),
    Message('note_on', channel=2, note=48, velocity=0, time=479),
    Message('note_on', channel=2, note=48, velocity=110, time=121),
    Message('note_on', channel=2, note=48, velocity=0, time=56),
    Message('note_on', channel=2, note=48, velocity=110, time=304),
    Message('note_on', channel=2, note=48, velocity=0, time=162),
    Message('note_on', channel=2, note=59, velocity=105, time=318),
    Message('note_on', channel=2, note=62, velocity=102, time=0),
    Message('note_on', channel=2, note=55, velocity=98, time=0),
    Message('note_on', channel=2, note=62, velocity=0, time=887),
    Message('note_on', channel=2, note=59, velocity=0, time=4),
    Message('note_on', channel=2, note=55, velocity=0, time=4),
    Message('note_on', channel=2, note=60, velocity=107, time=65),
    Message('note_on', channel=2, note=57, velocity=100, time=0),
    Message('note_on', channel=2, note=53, velocity=98, time=0),
    Message('note_on', channel=2, note=53, velocity=0, time=757),
    Message('note_on', channel=2, note=57, velocity=0, time=105),
    Message('note_on', channel=2, note=60, velocity=0, time=2),
    Message('note_on', channel=2, note=55, velocity=98, time=96),
    Message('note_on', channel=2, note=48, velocity=100, time=0),
    Message('note_on', channel=2, note=52, velocity=102, time=0),
    Message('note_on', channel=2, note=55, velocity=0, time=697),
    Message('note_on', channel=2, note=52, velocity=0, time=36),
    Message('note_on', channel=2, note=48, velocity=0, time=4),
    Message('note_on', channel=2, note=48, velocity=119, time=343),
    Message('note_on', channel=2, note=48, velocity=0, time=54),
    Message('note_on', channel=2, note=48, velocity=116, time=306),
    Message('note_on', channel=2, note=48, velocity=0, time=205),
    Message('note_on', channel=2, note=55, velocity=100, time=275),
    Message('note_on', channel=2, note=59, velocity=110, time=0),
    Message('note_on', channel=2, note=62, velocity=105, time=0),
    Message('note_on', channel=2, note=67, velocity=110, time=480),
    Message('note_on', channel=2, note=59, velocity=0, time=299),
    Message('note_on', channel=2, note=62, velocity=0, time=12),
    Message('note_on', channel=2, note=67, velocity=0, time=25),
    Message('note_on', channel=2, note=55, velocity=0, time=28),
    Message('note_on', channel=2, note=53, velocity=91, time=116),
    Message('note_on', channel=2, note=57, velocity=100, time=0),
    Message('note_on', channel=2, note=60, velocity=100, time=0),
    Message('note_on', channel=2, note=65, velocity=110, time=480),
    Message('note_on', channel=2, note=57, velocity=0, time=228),
    Message('note_on', channel=2, note=60, velocity=0, time=1),
    Message('note_on', channel=2, note=53, velocity=0, time=22),
    Message('note_on', channel=2, note=65, velocity=0, time=64),
    Message('note_on', channel=2, note=48, velocity=95, time=165),
    Message('note_on', channel=2, note=55, velocity=93, time=0),
    Message('note_on', channel=2, note=52, velocity=102, time=0),
    Message('note_on', channel=2, note=48, velocity=0, time=447),
    Message('note_on', channel=2, note=55, velocity=0, time=15),
    Message('note_on', channel=2, note=52, velocity=0, time=5),
    Message('pitchwheel', channel=2, pitch=-1520, time=788),
    Message('pitchwheel', channel=2, pitch=-4644, time=9),
    Message('pitchwheel', channel=2, pitch=-7684, time=8),
    Message('pitchwheel', channel=2, pitch=-8192, time=9),
    Message('note_on', channel=2, note=59, velocity=127, time=39),
    Message('pitchwheel', channel=2, pitch=-7008, time=95),
    Message('pitchwheel', channel=2, pitch=-6755, time=9),
    Message('pitchwheel', channel=2, pitch=-5995, time=9),
    Message('pitchwheel', channel=2, pitch=-4729, time=7),
    Message('pitchwheel', channel=2, pitch=-2533, time=16),
    Message('pitchwheel', channel=2, pitch=0, time=5),
    Message('note_on', channel=2, note=57, velocity=105, time=99),
    Message('note_on', channel=2, note=59, velocity=0, time=30),
    Message('note_on', channel=2, note=57, velocity=0, time=69),
    Message('note_on', channel=2, note=57, velocity=127, time=141),
    Message('pitchwheel', channel=2, pitch=2137, time=143),
    Message('pitchwheel', channel=2, pitch=7656, time=6),
    Message('pitchwheel', channel=2, pitch=8191, time=7),
    Message('note_on', channel=2, note=57, velocity=0, time=1977),
    Message('pitchwheel', channel=2, pitch=8190, time=219),
    Message('pitchwheel', channel=2, pitch=4629, time=8),
    Message('pitchwheel', channel=2, pitch=1, time=8),
    Message('pitchwheel', channel=2, pitch=0, time=8),
    MetaMessage('end_of_track', time=0)]),
  MidiTrack([
    MetaMessage('midi_port', port=0, time=0),
    MetaMessage('track_name', name='12 String Guitar', time=0),
    Message('control_change', channel=3, control=0, value=8, time=0),
    Message('program_change', channel=3, program=25, time=0),
    Message('control_change', channel=3, control=7, value=111, time=0),
    Message('control_change', channel=3, control=10, value=14, time=0),
    Message('control_change', channel=3, control=0, value=8, time=0),
    Message('control_change', channel=3, control=0, value=8, time=0),
    Message('program_change', channel=3, program=25, time=0),
    Message('note_on', channel=3, note=59, velocity=98, time=960),
    Message('note_on', channel=3, note=67, velocity=98, time=0),
    Message('note_on', channel=3, note=62, velocity=108, time=0),
    Message('note_on', channel=3, note=43, velocity=102, time=0),
    Message('note_on', channel=3, note=50, velocity=108, time=0),
    Message('control_change', channel=3, control=64, value=127, time=16),
    Message('control_change', channel=3, control=93, value=87, time=20),
    Message('note_on', channel=3, note=59, velocity=0, time=44),
    Message('note_on', channel=3, note=62, velocity=0, time=7),
    Message('note_on', channel=3, note=67, velocity=0, time=6),
    Message('note_on', channel=3, note=50, velocity=0, time=38),
    Message('note_on', channel=3, note=43, velocity=0, time=1),
    Message('note_on', channel=3, note=59, velocity=35, time=108),
    Message('note_on', channel=3, note=62, velocity=50, time=0),
    Message('note_on', channel=3, note=67, velocity=58, time=0),
    Message('note_on', channel=3, note=59, velocity=0, time=30),
    Message('note_on', channel=3, note=62, velocity=0, time=5),
    Message('note_on', channel=3, note=67, velocity=0, time=16),
    Message('note_on', channel=3, note=59, velocity=98, time=69),
    Message('note_on', channel=3, note=67, velocity=98, time=0),
    Message('note_on', channel=3, note=62, velocity=108, time=0),
    Message('note_on', channel=3, note=59, velocity=0, time=40),
    Message('note_on', channel=3, note=62, velocity=0, time=3),
    Message('note_on', channel=3, note=67, velocity=0, time=18),
    Message('note_on', channel=3, note=67, velocity=60, time=59),
    Message('note_on', channel=3, note=62, velocity=73, time=0),
    Message('note_on', channel=3, note=62, velocity=0, time=23),
    Message('note_on', channel=3, note=67, velocity=0, time=1),
    Message('note_on', channel=3, note=59, velocity=92, time=96),
    Message('note_on', channel=3, note=62, velocity=102, time=0),
    Message('note_on', channel=3, note=67, velocity=95, time=0),
    Message('note_on', channel=3, note=59, velocity=0, time=45),
    Message('note_on', channel=3, note=62, velocity=0, time=8),
    Message('note_on', channel=3, note=50, velocity=85, time=7),
    Message('note_on', channel=3, note=67, velocity=0, time=3),
    Message('note_on', channel=3, note=50, velocity=0, time=46),
    Message('note_on', channel=3, note=43, velocity=71, time=11),
    Message('note_on', channel=3, note=43, velocity=0, time=43),
    Message('note_on', channel=3, note=62, velocity=105, time=77),
    Message('note_on', channel=3, note=59, velocity=95, time=0),
    Message('note_on', channel=3, note=67, velocity=101, time=0),
    Message('note_on', channel=3, note=62, velocity=0, time=32),
    Message('note_on', channel=3, note=59, velocity=0, time=6),
    Message('note_on', channel=3, note=67, velocity=0, time=10),
    Message('note_on', channel=3, note=59, velocity=97, time=72),
    Message('note_on', channel=3, note=67, velocity=98, time=0),
    Message('note_on', channel=3, note=62, velocity=105, time=0),
    Message('note_on', channel=3, note=59, velocity=0, time=53),
    Message('note_on', channel=3, note=62, velocity=0, time=8),
    Message('note_on', channel=3, note=67, velocity=0, time=10),
    Message('note_on', channel=3, note=50, velocity=65, time=49),
    Message('note_on', channel=3, note=50, velocity=0, time=36),
    Message('note_on', channel=3, note=59, velocity=68, time=84),
    Message('note_on', channel=3, note=67, velocity=69, time=0),
    Message('note_on', channel=3, note=62, velocity=85, time=0),
    Message('note_on', channel=3, note=62, velocity=0, time=29),
    Message('note_on', channel=3, note=59, velocity=0, time=1),
    Message('note_on', channel=3, note=67, velocity=0, time=3),
    Message('note_on', channel=3, note=59, velocity=102, time=87),
    Message('note_on', channel=3, note=62, velocity=101, time=0),
    Message('note_on', channel=3, note=67, velocity=98, time=0),
    Message('note_on', channel=3, note=59, velocity=0, time=42),
    Message('note_on', channel=3, note=62, velocity=0, time=1),
    Message('note_on', channel=3, note=67, velocity=0, time=18),
    Message('note_on', channel=3, note=43, velocity=97, time=179),
    Message('note_on', channel=3, note=50, velocity=101, time=0),
    Message('note_on', channel=3, note=50, velocity=0, time=46),
    Message('note_on', channel=3, note=43, velocity=0, time=3),
    Message('note_on', channel=3, note=59, velocity=81, time=71),
    Message('note_on', channel=3, note=62, velocity=98, time=0),
    Message('note_on', channel=3, note=67, velocity=89, time=0),
    Message('note_on', channel=3, note=59, velocity=0, time=42),
    Message('note_on', channel=3, note=62, velocity=0, time=5),
    Message('note_on', channel=3, note=67, velocity=0, time=15),
    Message('note_on', channel=3, note=59, velocity=84, time=58),
    Message('note_on', channel=3, note=62, velocity=102, time=0),
    Message('note_on', channel=3, note=67, velocity=97, time=0),
    Message('note_on', channel=3, note=59, velocity=0, time=42),
    Message('note_on', channel=3, note=62, velocity=0, time=5),
    Message('note_on', channel=3, note=67, velocity=0, time=16),
    Message('control_change', channel=3, control=64, value=0, time=41),
    Message('note_on', channel=3, note=60, velocity=98, time=16),
    Message('note_on', channel=3, note=64, velocity=98, time=0),
    Message('note_on', channel=3, note=67, velocity=95, time=0),
    Message('note_on', channel=3, note=48, velocity=108, time=0),
    Message('note_on', channel=3, note=55, velocity=108, time=0),
    Message('control_change', channel=3, control=64, value=127, time=78),
    Message('note_on', channel=3, note=60, velocity=0, time=15),
    Message('note_on', channel=3, note=64, velocity=0, time=2),
    Message('note_on', channel=3, note=67, velocity=0, time=11),
    Message('note_on', channel=3, note=48, velocity=0, time=65),
    Message('note_on', channel=3, note=55, velocity=0, time=11),
    Message('note_on', channel=3, note=64, velocity=84, time=58),
    Message('note_on', channel=3, note=67, velocity=87, time=0),
    Message('note_on', channel=3, note=60, velocity=76, time=0),
    Message('note_on', channel=3, note=64, velocity=0, time=36),
    Message('note_on', channel=3, note=60, velocity=0, time=4),
    Message('note_on', channel=3, note=67, velocity=0, time=3),
    Message('note_on', channel=3, note=60, velocity=98, time=77),
    Message('note_on', channel=3, note=67, velocity=101, time=0),
    Message('note_on', channel=3, note=64, velocity=105, time=0),
    Message('note_on', channel=3, note=60, velocity=0, time=84),
    Message('note_on', channel=3, note=67, velocity=0, time=3),
    Message('note_on', channel=3, note=64, velocity=0, time=1),
    Message('note_on', channel=3, note=48, velocity=87, time=152),
    Message('note_on', channel=3, note=55, velocity=84, time=0),
    Message('note_on', channel=3, note=55, velocity=0, time=63),
    Message('note_on', channel=3, note=48, velocity=0, time=3),
    Message('note_on', channel=3, note=60, velocity=92, time=54),
    Message('note_on', channel=3, note=64, velocity=97, time=0),
    Message('note_on', channel=3, note=67, velocity=97, time=0),
    Message('control_change', channel=3, control=93, value=86, time=30),
    Message('note_on', channel=3, note=60, velocity=0, time=10),
    Message('note_on', channel=3, note=64, velocity=0, time=2),
    Message('control_change', channel=3, control=93, value=81, time=0),
    Message('note_on', channel=3, note=67, velocity=0, time=11),
    Message('control_change', channel=3, control=93, value=79, time=10),
    Message('control_change', channel=3, control=93, value=77, time=40),
    Message('note_on', channel=3, note=60, velocity=102, time=17),
    Message('note_on', channel=3, note=57, velocity=110, time=0),
    Message('note_on', channel=3, note=64, velocity=108, time=0),
    Message('note_on', channel=3, note=67, velocity=101, time=0),
    Message('control_change', channel=3, control=64, value=0, time=20),
    Message('control_change', channel=3, control=64, value=127, time=100),
    Message('note_on', channel=3, note=60, velocity=0, time=63),
    Message('note_on', channel=3, note=67, velocity=0, time=6),
    Message('note_on', channel=3, note=64, velocity=0, time=4),
    Message('control_change', channel=3, control=93, value=74, time=0),
    Message('note_on', channel=3, note=60, velocity=74, time=47),
    Message('note_on', channel=3, note=64, velocity=87, time=0),
    Message('note_on', channel=3, note=67, velocity=81, time=0),
    Message('note_on', channel=3, note=57, velocity=0, time=13),
    Message('note_on', channel=3, note=60, velocity=0, time=26),
    Message('note_on', channel=3, note=64, velocity=0, time=1),
    Message('note_on', channel=3, note=67, velocity=0, time=11),
    Message('control_change', channel=3, control=93, value=72, time=69),
    Message('note_on', channel=3, note=60, velocity=87, time=0),
    Message('note_on', channel=3, note=64, velocity=97, time=0),
    Message('note_on', channel=3, note=67, velocity=97, time=0),
    Message('control_change', channel=3, control=93, value=67, time=20),
    Message('control_change', channel=3, control=93, value=65, time=40),
    Message('note_on', channel=3, note=60, velocity=0, time=43),
    Message('note_on', channel=3, note=64, velocity=0, time=3),
    Message('note_on', channel=3, note=67, velocity=0, time=7),
    Message('control_change', channel=3, control=93, value=61, time=7),
    Message('note_on', channel=3, note=57, velocity=113, time=0),
    Message('control_change', channel=3, control=93, value=58, time=60),
    Message('note_on', channel=3, note=57, velocity=0, time=17),
    Message('control_change', channel=3, control=93, value=57, time=0),
    Message('control_change', channel=3, control=93, value=52, time=30),
    Message('control_change', channel=3, control=93, value=51, time=13),
    Message('note_on', channel=3, note=64, velocity=97, time=0),
    Message('note_on', channel=3, note=60, velocity=87, time=0),
    Message('note_on', channel=3, note=67, velocity=85, time=0),
    Message('control_change', channel=3, control=93, value=48, time=10),
    Message('control_change', channel=3, control=93, value=44, time=30),
    Message('control_change', channel=3, control=93, value=40, time=20),
    Message('note_on', channel=3, note=60, velocity=0, time=5),
    Message('note_on', channel=3, note=64, velocity=0, time=5),
    Message('note_on', channel=3, note=67, velocity=0, time=8),
    Message('note_on', channel=3, note=64, velocity=97, time=42),
    Message('note_on', channel=3, note=67, velocity=87, time=0),
    Message('note_on', channel=3, note=60, velocity=92, time=0),
    Message('note_on', channel=3, note=60, velocity=0, time=49),
    Message('note_on', channel=3, note=64, velocity=0, time=0),
    Message('note_on', channel=3, note=67, velocity=0, time=5),
    Message('control_change', channel=3, control=93, value=42, time=20),
    Message('control_change', channel=3, control=93, value=49, time=10),
    Message('control_change', channel=3, control=93, value=54, time=20),
    Message('control_change', channel=3, control=93, value=58, time=16),
    Message('note_on', channel=3, note=60, velocity=98, time=0),
    Message('note_on', channel=3, note=64, velocity=101, time=0),
    Message('note_on', channel=3, note=67, velocity=98, time=0),
    Message('note_on', channel=3, note=64, velocity=0, time=85),
    Message('note_on', channel=3, note=60, velocity=0, time=0),
    Message('note_on', channel=3, note=67, velocity=0, time=26),
    Message('note_on', channel=3, note=50, velocity=87, time=9),
    Message('control_change', channel=3, control=93, value=63, time=20),
    Message('control_change', channel=3, control=93, value=66, time=20),
    Message('note_on', channel=3, note=50, velocity=0, time=6),
    Message('control_change', channel=3, control=93, value=71, time=10),
    Message('control_change', channel=3, control=93, value=73, time=10),
    Message('control_change', channel=3, control=93, value=78, time=30),
    Message('control_change', channel=3, control=64, value=0, time=0),
    Message('control_change', channel=3, control=93, value=79, time=24),
    Message('note_on', channel=3, note=62, velocity=105, time=0),
    Message('note_on', channel=3, note=50, velocity=101, time=0),
    Message('note_on', channel=3, note=59, velocity=98, time=0),
    Message('note_on', channel=3, note=43, velocity=105, time=0),
    Message('note_on', channel=3, note=67, velocity=101, time=0),
    Message('control_change', channel=3, control=64, value=127, time=75),
    Message('note_on', channel=3, note=59, velocity=0, time=87),
    Message('note_on', channel=3, note=67, velocity=0, time=1),
    Message('note_on', channel=3, note=62, velocity=0, time=2),
    Message('note_on', channel=3, note=43, velocity=0, time=56),
    Message('note_on', channel=3, note=50, velocity=0, time=11),
    Message('note_on', channel=3, note=59, velocity=60, time=8),
    Message('note_on', channel=3, note=62, velocity=85, time=0),
    Message('note_on', channel=3, note=67, velocity=74, time=0),
    Message('note_on', channel=3, note=59, velocity=0, time=32),
    Message('note_on', channel=3, note=62, velocity=0, time=1),
    Message('note_on', channel=3, note=67, velocity=0, time=11),
    Message('note_on', channel=3, note=67, velocity=97, time=76),
    Message('note_on', channel=3, note=59, velocity=97, time=0),
    Message('note_on', channel=3, note=62, velocity=108, time=0),
    Message('note_on', channel=3, note=59, velocity=0, time=55),
    Message('note_on', channel=3, note=62, velocity=0, time=16),
    Message('note_on', channel=3, note=67, velocity=0, time=0),
    Message('control_change', channel=3, control=93, value=75, time=130),
    Message('control_change', channel=3, control=93, value=73, time=20),
    Message('control_change', channel=3, control=93, value=68, time=10),
    Message('note_on', channel=3, note=43, velocity=97, time=9),
    Message('note_on', channel=3, note=50, velocity=97, time=0),
    Message('note_on', channel=3, note=50, velocity=0, time=54),
    Message('note_on', channel=3, note=43, velocity=0, time=8),
    Message('note_on', channel=3, note=59, velocity=71, time=58),
    Message('note_on', channel=3, note=62, velocity=91, time=0),
    Message('note_on', channel=3, note=67, velocity=87, time=0),
    Message('note_on', channel=3, note=59, velocity=0, time=39),
    Message('note_on', channel=3, note=62, velocity=0, time=2),
    Message('note_on', channel=3, note=67, velocity=0, time=10),
    Message('note_on', channel=3, note=59, velocity=102, time=69),
    Message('note_on', channel=3, note=62, velocity=105, time=0),
    Message('note_on', channel=3, note=67, velocity=102, time=0),
    Message('control_change', channel=3, control=93, value=71, time=10),
    Message('control_change', channel=3, control=93, value=73, time=30),
    Message('note_on', channel=3, note=59, velocity=0, time=20),
    Message('note_on', channel=3, note=62, velocity=0, time=7),
    Message('note_on', channel=3, note=67, velocity=0, time=11),
    Message('note_on', channel=3, note=50, velocity=92, time=162),
    Message('note_on', channel=3, note=43, velocity=97, time=0),
    Message('note_on', channel=3, note=50, velocity=0, time=43),
    Message('note_on', channel=3, note=43, velocity=0, time=10),
    Message('note_on', channel=3, note=59, velocity=69, time=67),
    Message('note_on', channel=3, note=62, velocity=85, time=0),
    Message('note_on', channel=3, note=67, velocity=84, time=0),
    Message('note_on', channel=3, note=62, velocity=0, time=40),
    Message('note_on', channel=3, note=59, velocity=0, time=0),
    Message('note_on', channel=3, note=67, velocity=0, time=7),
    Message('note_on', channel=3, note=59, velocity=95, time=73),
    Message('note_on', channel=3, note=67, velocity=97, time=0),
    Message('note_on', channel=3, note=62, velocity=102, time=0),
    Message('note_on', channel=3, note=67, velocity=0, time=86),
    Message('note_on', channel=3, note=59, velocity=0, time=3),
    Message('note_on', channel=3, note=62, velocity=0, time=6),
    Message('note_on', channel=3, note=43, velocity=80, time=25),
    Message('note_on', channel=3, note=50, velocity=85, time=0),
    Message('note_on', channel=3, note=50, velocity=0, time=46),
    Message('note_on', channel=3, note=43, velocity=0, time=0),
    Message('note_on', channel=3, note=59, velocity=74, time=74),
    Message('note_on', channel=3, note=62, velocity=95, time=0),
    Message('note_on', channel=3, note=67, velocity=84, time=0),
    Message('note_on', channel=3, note=59, velocity=0, time=32),
    Message('note_on', channel=3, note=62, velocity=0, time=3),
    Message('note_on', channel=3, note=67, velocity=0, time=7),
    Message('note_on', channel=3, note=43, velocity=97, time=18),
    Message('note_on', channel=3, note=50, velocity=97, time=0),
    Message('note_on', channel=3, note=50, velocity=0, time=40),
    Message('note_on', channel=3, note=43, velocity=0, time=9),
    Message('note_on', channel=3, note=59, velocity=89, time=11),
    Message('note_on', channel=3, note=67, velocity=95, time=0),
    Message('note_on', channel=3, note=62, velocity=108, time=0),
    Message('note_on', channel=3, note=59, velocity=0, time=41),
    Message('note_on', channel=3, note=62, velocity=0, time=4),
    Message('note_on', channel=3, note=67, velocity=0, time=6),
    Message('note_on', channel=3, note=59, velocity=89, time=69),
    Message('note_on', channel=3, note=62, velocity=101, time=0),
    Message('note_on', channel=3, note=67, velocity=95, time=0),
    Message('note_on', channel=3, note=59, velocity=0, time=39),
    Message('note_on', channel=3, note=62, velocity=0, time=5),
    Message('note_on', channel=3, note=67, velocity=0, time=20),
    Message('control_change', channel=3, control=64, value=0, time=33),
    Message('note_on', channel=3, note=60, velocity=97, time=23),
    Message('note_on', channel=3, note=64, velocity=101, time=0),
    Message('note_on', channel=3, note=67, velocity=101, time=0),
    Message('note_on', channel=3, note=55, velocity=105, time=0),
    Message('note_on', channel=3, note=48, velocity=105, time=0),
    Message('control_change', channel=3, control=64, value=127, time=60),
    Message('note_on', channel=3, note=60, velocity=0, time=105),
    Message('note_on', channel=3, note=67, velocity=0, time=7),
    Message('note_on', channel=3, note=64, velocity=0, time=1),
    Message('note_on', channel=3, note=48, velocity=0, time=66),
    Message('note_on', channel=3, note=60, velocity=84, time=1),
    Message('note_on', channel=3, note=67, velocity=85, time=0),
    Message('note_on', channel=3, note=64, velocity=92, time=0),
    Message('note_on', channel=3, note=55, velocity=0, time=1),
    Message('note_on', channel=3, note=60, velocity=0, time=43),
    Message('note_on', channel=3, note=64, velocity=0, time=0),
    Message('note_on', channel=3, note=67, velocity=0, time=9),
    Message('note_on', channel=3, note=64, velocity=102, time=67),
    Message('note_on', channel=3, note=60, velocity=97, time=0),
    Message('note_on', channel=3, note=67, velocity=98, time=0),
    Message('note_on', channel=3, note=60, velocity=0, time=62),
    Message('note_on', channel=3, note=64, velocity=0, time=7),
    Message('note_on', channel=3, note=67, velocity=0, time=9),
    Message('note_on', channel=3, note=55, velocity=95, time=42),
    Message('note_on', channel=3, note=48, velocity=92, time=0),
    Message('note_on', channel=3, note=55, velocity=0, time=47),
    Message('note_on', channel=3, note=48, velocity=0, time=7),
    Message('note_on', channel=3, note=64, velocity=97, time=66),
    Message('note_on', channel=3, note=60, velocity=95, time=0),
    Message('note_on', channel=3, note=67, velocity=92, time=0),
    Message('note_on', channel=3, note=64, velocity=0, time=39),
    Message('note_on', channel=3, note=60, velocity=0, time=3),
    Message('note_on', channel=3, note=67, velocity=0, time=9),
    Message('note_on', channel=3, note=64, velocity=98, time=69),
    Message('note_on', channel=3, note=60, velocity=95, time=0),
    Message('note_on', channel=3, note=67, velocity=97, time=0),
    Message('note_on', channel=3, note=60, velocity=0, time=43),
    Message('note_on', channel=3, note=64, velocity=0, time=3),
    Message('note_on', channel=3, note=67, velocity=0, time=9),
    Message('control_change', channel=3, control=64, value=0, time=62),
    Message('note_on', channel=3, note=60, velocity=105, time=3),
    Message('note_on', channel=3, note=67, velocity=102, time=0),
    Message('note_on', channel=3, note=64, velocity=113, time=0),
    Message('note_on', channel=3, note=57, velocity=113, time=0),
    Message('control_change', channel=3, control=64, value=127, time=94),
    Message('note_on', channel=3, note=60, velocity=0, time=88),
    Message('note_on', channel=3, note=67, velocity=0, time=7),
    Message('note_on', channel=3, note=64, velocity=0, time=0),
    Message('note_on', channel=3, note=57, velocity=0, time=40),
    Message('note_on', channel=3, note=64, velocity=95, time=11),
    Message('note_on', channel=3, note=60, velocity=89, time=0),
    Message('note_on', channel=3, note=67, velocity=84, time=0),
    Message('note_on', channel=3, note=60, velocity=0, time=51),
    Message('note_on', channel=3, note=64, velocity=0, time=0),
    Message('note_on', channel=3, note=67, velocity=0, time=11),
    Message('note_on', channel=3, note=64, velocity=102, time=58),
    Message('note_on', channel=3, note=60, velocity=95, time=0),
    Message('note_on', channel=3, note=67, velocity=98, time=0),
    Message('note_on', channel=3, note=60, velocity=0, time=76),
    Message('note_on', channel=3, note=64, velocity=0, time=2),
    Message('note_on', channel=3, note=67, velocity=0, time=10),
    Message('note_on', channel=3, note=57, velocity=110, time=32),
    Message('note_on', channel=3, note=57, velocity=0, time=56),
    Message('note_on', channel=3, note=64, velocity=97, time=64),
    Message('note_on', channel=3, note=60, velocity=95, time=0),
    Message('note_on', channel=3, note=67, velocity=97, time=0),
    Message('note_on', channel=3, note=64, velocity=0, time=46),
    Message('note_on', channel=3, note=60, velocity=0, time=2),
    Message('note_on', channel=3, note=67, velocity=0, time=8),
    Message('note_on', channel=3, note=67, velocity=98, time=64),
    Message('note_on', channel=3, note=60, velocity=98, time=0),
    Message('note_on', channel=3, note=64, velocity=105, time=0),
    Message('note_on', channel=3, note=60, velocity=0, time=57),
    Message('note_on', channel=3, note=64, velocity=0, time=4),
    Message('note_on', channel=3, note=67, velocity=0, time=2),
    Message('note_on', channel=3, note=60, velocity=92, time=57),
    Message('note_on', channel=3, note=64, velocity=98, time=0),
    Message('note_on', channel=3, note=67, velocity=97, time=0),
    Message('note_on', channel=3, note=60, velocity=0, time=45),
    Message('note_on', channel=3, note=64, velocity=0, time=3),
    Message('note_on', channel=3, note=67, velocity=0, time=17),
    Message('note_on', channel=3, note=64, velocity=95, time=55),
    Message('note_on', channel=3, note=60, velocity=92, time=0),
    Message('note_on', channel=3, note=67, velocity=98, time=0),
    Message('note_on', channel=3, note=64, velocity=0, time=36),
    Message('note_on', channel=3, note=60, velocity=0, time=7),
    Message('note_on', channel=3, note=67, velocity=0, time=15),
    Message('control_change', channel=3, control=64, value=0, time=30),
    Message('note_on', channel=3, note=62, velocity=105, time=32),
    Message('note_on', channel=3, note=59, velocity=95, time=0),
    Message('note_on', channel=3, note=67, velocity=97, time=0),
    Message('note_on', channel=3, note=43, velocity=98, time=0),
    Message('note_on', channel=3, note=50, velocity=101, time=0),
    Message('control_change', channel=3, control=64, value=127, time=56),
    Message('note_on', channel=3, note=59, velocity=0, time=83),
    Message('note_on', channel=3, note=62, velocity=0, time=5),
    Message('note_on', channel=3, note=67, velocity=0, time=3),
    Message('note_on', channel=3, note=43, velocity=0, time=71),
    Message('note_on', channel=3, note=50, velocity=0, time=4),
    Message('note_on', channel=3, note=62, velocity=97, time=18),
    Message('note_on', channel=3, note=59, velocity=87, time=0),
    Message('note_on', channel=3, note=67, velocity=92, time=0),
    Message('note_on', channel=3, note=62, velocity=0, time=50),
    Message('note_on', channel=3, note=59, velocity=0, time=7),
    Message('note_on', channel=3, note=67, velocity=0, time=13),
    Message('note_on', channel=3, note=43, velocity=78, time=50),
    Message('note_on', channel=3, note=50, velocity=92, time=0),
    Message('note_on', channel=3, note=43, velocity=0, time=30),
    Message('note_on', channel=3, note=50, velocity=0, time=11),
    Message('note_on', channel=3, note=59, velocity=81, time=79),
    Message('note_on', channel=3, note=67, velocity=80, time=0),
    Message('note_on', channel=3, note=62, velocity=97, time=0),
    Message('note_on', channel=3, note=59, velocity=0, time=38),
    Message('note_on', channel=3, note=62, velocity=0, time=1),
    Message('note_on', channel=3, note=67, velocity=0, time=2),
    Message('note_on', channel=3, note=59, velocity=81, time=79),
    Message('note_on', channel=3, note=67, velocity=91, time=0),
    Message('note_on', channel=3, note=62, velocity=102, time=0),
    Message('note_on', channel=3, note=59, velocity=0, time=42),
    Message('note_on', channel=3, note=62, velocity=0, time=2),
    Message('note_on', channel=3, note=67, velocity=0, time=10),
    Message('note_on', channel=3, note=43, velocity=91, time=66),
    Message('note_on', channel=3, note=50, velocity=95, time=0),
    Message('note_on', channel=3, note=43, velocity=0, time=35),
    Message('note_on', channel=3, note=50, velocity=0, time=1),
    Message('note_on', channel=3, note=59, velocity=80, time=84),
    Message('note_on', channel=3, note=67, velocity=81, time=0),
    Message('note_on', channel=3, note=62, velocity=95, time=0),
    Message('note_on', channel=3, note=62, velocity=0, time=36),
    Message('note_on', channel=3, note=59, velocity=0, time=2),
    Message('note_on', channel=3, note=67, velocity=0, time=6),
    Message('note_on', channel=3, note=62, velocity=101, time=76),
    Message('note_on', channel=3, note=59, velocity=87, time=0),
    Message('note_on', channel=3, note=67, velocity=101, time=0),
    Message('note_on', channel=3, note=62, velocity=0, time=54),
    Message('note_on', channel=3, note=59, velocity=0, time=15),
    Message('note_on', channel=3, note=67, velocity=0, time=11),
    Message('note_on', channel=3, note=50, velocity=84, time=40),
    Message('note_on', channel=3, note=43, velocity=81, time=0),
    Message('note_on', channel=3, note=43, velocity=0, time=36),
    Message('note_on', channel=3, note=50, velocity=0, time=3),
    Message('note_on', channel=3, note=62, velocity=92, time=81),
    Message('note_on', channel=3, note=67, velocity=87, time=0),
    Message('note_on', channel=3, note=59, velocity=78, time=0),
    Message('note_on', channel=3, note=62, velocity=0, time=38),
    Message('note_on', channel=3, note=67, velocity=0, time=3),
    Message('note_on', channel=3, note=59, velocity=0, time=2),
    Message('note_on', channel=3, note=50, velocity=102, time=77),
    Message('note_on', channel=3, note=43, velocity=98, time=0),
    Message('note_on', channel=3, note=50, velocity=0, time=37),
    Message('note_on', channel=3, note=43, velocity=0, time=5),
    Message('note_on', channel=3, note=62, velocity=92, time=78),
    Message('note_on', channel=3, note=59, velocity=80, time=0),
    Message('note_on', channel=3, note=67, velocity=85, time=0),
    Message('note_on', channel=3, note=62, velocity=0, time=35),
    Message('note_on', channel=3, note=59, velocity=0, time=5),
    Message('note_on', channel=3, note=67, velocity=0, time=8),
    Message('note_on', channel=3, note=62, velocity=102, time=72),
    Message('note_on', channel=3, note=59, velocity=85, time=0),
    Message('note_on', channel=3, note=67, velocity=97, time=0),
    Message('note_on', channel=3, note=62, velocity=0, time=40),
    Message('note_on', channel=3, note=59, velocity=0, time=2),
    Message('note_on', channel=3, note=67, velocity=0, time=13),
    Message('note_on', channel=3, note=43, velocity=98, time=65),
    Message('note_on', channel=3, note=50, velocity=102, time=0),
    Message('note_on', channel=3, note=50, velocity=0, time=49),
    Message('note_on', channel=3, note=43, velocity=0, time=11),
    Message('note_on', channel=3, note=62, velocity=87, time=60),
    Message('note_on', channel=3, note=59, velocity=71, time=0),
    Message('note_on', channel=3, note=67, velocity=81, time=0),
    Message('note_on', channel=3, note=62, velocity=0, time=36),
    Message('note_on', channel=3, note=59, velocity=0, time=3),
    Message('note_on', channel=3, note=67, velocity=0, time=2),
    Message('control_change', channel=3, control=64, value=0, time=22),
    Message('note_on', channel=3, note=59, velocity=92, time=57),
    Message('note_on', channel=3, note=67, velocity=97, time=0),
    Message('note_on', channel=3, note=62, velocity=102, time=0),
    Message('note_on', channel=3, note=50, velocity=108, time=0),
    Message('note_on', channel=3, note=43, velocity=102, time=0),
    Message('control_change', channel=3, control=64, value=127, time=68),
    Message('note_on', channel=3, note=67, velocity=0, time=96),
    Message('note_on', channel=3, note=59, velocity=0, time=1),
    Message('note_on', channel=3, note=62, velocity=0, time=5),
    Message('note_on', channel=3, note=62, velocity=95, time=70),
    Message('note_on', channel=3, note=67, velocity=87, time=0),
    Message('note_on', channel=3, note=59, velocity=85, time=0),
    Message('note_on', channel=3, note=50, velocity=0, time=7),
    Message('note_on', channel=3, note=43, velocity=0, time=5),
    Message('note_on', channel=3, note=62, velocity=0, time=61),
    Message('note_on', channel=3, note=67, velocity=0, time=10),
    Message('note_on', channel=3, note=59, velocity=0, time=1),
    Message('note_on', channel=3, note=43, velocity=85, time=36),
    Message('note_on', channel=3, note=50, velocity=95, time=0),
    Message('note_on', channel=3, note=43, velocity=0, time=32),
    Message('note_on', channel=3, note=50, velocity=0, time=16),
    Message('note_on', channel=3, note=59, velocity=69, time=72),
    Message('note_on', channel=3, note=62, velocity=91, time=0),
    Message('note_on', channel=3, note=67, velocity=87, time=0),
    Message('note_on', channel=3, note=62, velocity=0, time=35),
    Message('note_on', channel=3, note=59, velocity=0, time=5),
    Message('note_on', channel=3, note=67, velocity=0, time=2),
    Message('note_on', channel=3, note=67, velocity=85, time=78),
    Message('note_on', channel=3, note=59, velocity=89, time=0),
    Message('note_on', channel=3, note=62, velocity=101, time=0),
    Message('note_on', channel=3, note=62, velocity=0, time=53),
    Message('note_on', channel=3, note=59, velocity=0, time=0),
    Message('note_on', channel=3, note=67, velocity=0, time=9),
    Message('note_on', channel=3, note=43, velocity=97, time=58),
    Message('note_on', channel=3, note=50, velocity=98, time=0),
    Message('note_on', channel=3, note=43, velocity=0, time=38),
    Message('note_on', channel=3, note=50, velocity=0, time=2),
    Message('note_on', channel=3, note=59, velocity=80, time=80),
    Message('note_on', channel=3, note=67, velocity=81, time=0),
    Message('note_on', channel=3, note=62, velocity=98, time=0),
    Message('note_on', channel=3, note=59, velocity=0, time=42),
    Message('note_on', channel=3, note=62, velocity=0, time=1),
    Message('note_on', channel=3, note=67, velocity=0, time=6),
    Message('note_on', channel=3, note=59, velocity=85, time=71),
    Message('note_on', channel=3, note=62, velocity=97, time=0),
    Message('note_on', channel=3, note=50, velocity=85, time=0),
    Message('note_on', channel=3, note=67, velocity=84, time=0),
    Message('note_on', channel=3, note=43, velocity=85, time=0),
    Message('note_on', channel=3, note=62, velocity=0, time=40),
    Message('note_on', channel=3, note=59, velocity=0, time=2),
    Message('note_on', channel=3, note=43, velocity=0, time=0),
    Message('note_on', channel=3, note=50, velocity=0, time=0),
    Message('note_on', channel=3, note=67, velocity=0, time=11),
    Message('note_on', channel=3, note=59, velocity=66, time=67),
    Message('note_on', channel=3, note=62, velocity=84, time=0),
    Message('note_on', channel=3, note=67, velocity=71, time=0),
    Message('note_on', channel=3, note=62, velocity=0, time=30),
    Message('note_on', channel=3, note=59, velocity=0, time=5),
    Message('note_on', channel=3, note=67, velocity=0, time=3),
    Message('note_on', channel=3, note=50, velocity=81, time=22),
    Message('note_on', channel=3, note=43, velocity=84, time=0),
    Message('note_on', channel=3, note=50, velocity=0, time=32),
    Message('note_on', channel=3, note=43, velocity=0, time=1),
    Message('note_on', channel=3, note=59, velocity=85, time=27),
    Message('note_on', channel=3, note=67, velocity=91, time=0),
    Message('note_on', channel=3, note=62, velocity=98, time=0),
    Message('note_on', channel=3, note=62, velocity=0, time=43),
    Message('note_on', channel=3, note=59, velocity=0, time=2),
    Message('note_on', channel=3, note=67, velocity=0, time=14),
    Message('note_on', channel=3, note=50, velocity=101, time=61),
    Message('note_on', channel=3, note=43, velocity=95, time=0),
    Message('note_on', channel=3, note=50, velocity=0, time=39),
    Message('note_on', channel=3, note=43, velocity=0, time=3),
    Message('note_on', channel=3, note=59, velocity=78, time=78),
    Message('note_on', channel=3, note=67, velocity=87, time=0),
    Message('note_on', channel=3, note=62, velocity=92, time=0),
    Message('note_on', channel=3, note=62, velocity=0, time=52),
    Message('note_on', channel=3, note=59, velocity=0, time=0),
    Message('note_on', channel=3, note=67, velocity=0, time=6),
    Message('note_on', channel=3, note=43, velocity=85, time=62),
    Message('note_on', channel=3, note=50, velocity=95, time=0),
    Message('note_on', channel=3, note=43, velocity=0, time=28),
    Message('note_on', channel=3, note=50, velocity=0, time=11),
    Message('note_on', channel=3, note=59, velocity=85, time=81),
    Message('note_on', channel=3, note=62, velocity=97, time=0),
    Message('note_on', channel=3, note=67, velocity=85, time=0),
    Message('note_on', channel=3, note=62, velocity=0, time=45),
    Message('note_on', channel=3, note=59, velocity=0, time=0),
    Message('note_on', channel=3, note=67, velocity=0, time=14),
    Message('note_on', channel=3, note=50, velocity=87, time=61),
    Message('note_on', channel=3, note=43, velocity=84, time=0),
    Message('note_on', channel=3, note=43, velocity=0, time=31),
    Message('note_on', channel=3, note=50, velocity=0, time=1),
    Message('control_change', channel=3, control=64, value=0, time=73),
    Message('note_on', channel=3, note=50, velocity=95, time=15),
    Message('note_on', channel=3, note=43, velocity=92, time=0),
    Message('note_on', channel=3, note=59, velocity=84, time=0),
    Message('note_on', channel=3, note=62, velocity=98, time=0),
    Message('note_on', channel=3, note=67, velocity=87, time=0),
    Message('control_change', channel=3, control=64, value=127, time=74),
    Message('note_on', channel=3, note=43, velocity=0, time=68),
    Message('note_on', channel=3, note=50, velocity=0, time=1),
    Message('note_on', channel=3, note=59, velocity=0, time=6),
    Message('note_on', channel=3, note=67, velocity=0, time=5),
    Message('note_on', channel=3, note=62, velocity=0, time=8),
    Message('note_on', channel=3, note=59, velocity=87, time=78),
    Message('note_on', channel=3, note=62, velocity=105, time=0),
    Message('note_on', channel=3, note=67, velocity=101, time=0),
    Message('note_on', channel=3, note=59, velocity=0, time=48),
    Message('note_on', channel=3, note=62, velocity=0, time=5),
    Message('note_on', channel=3, note=67, velocity=0, time=9),
    Message('note_on', channel=3, note=59, velocity=74, time=58),
    Message('note_on', channel=3, note=62, velocity=95, time=0),
    Message('note_on', channel=3, note=67, velocity=92, time=0),
    Message('note_on', channel=3, note=59, velocity=0, time=33),
    Message('note_on', channel=3, note=62, velocity=0, time=7),
    Message('note_on', channel=3, note=67, velocity=0, time=14),
    Message('control_change', channel=3, control=64, value=0, time=47),
    Message('note_on', channel=3, note=62, velocity=80, time=19),
    Message('note_on', channel=3, note=69, velocity=89, time=0),
    Message('note_on', channel=3, note=66, velocity=87, time=0),
    Message('note_on', channel=3, note=57, velocity=89, time=0),
    Message('note_on', channel=3, note=50, velocity=98, time=0),
    Message('control_change', channel=3, control=64, value=127, time=71),
    Message('note_on', channel=3, note=57, velocity=0, time=31),
    Message('note_on', channel=3, note=57, velocity=97, time=18),
    Message('note_on', channel=3, note=62, velocity=0, time=26),
    Message('note_on', channel=3, note=69, velocity=0, time=5),
    Message('note_on', channel=3, note=66, velocity=0, time=4),
    Message('note_on', channel=3, note=57, velocity=0, time=14),
    Message('note_on', channel=3, note=50, velocity=0, time=42),
    Message('note_on', channel=3, note=62, velocity=87, time=29),
    Message('note_on', channel=3, note=69, velocity=97, time=0),
    Message('note_on', channel=3, note=66, velocity=92, time=0),
    Message('note_on', channel=3, note=66, velocity=0, time=39),
    Message('note_on', channel=3, note=62, velocity=0, time=3),
    Message('note_on', channel=3, note=69, velocity=0, time=10),
    Message('note_on', channel=3, note=60, velocity=97, time=68),
    Message('note_on', channel=3, note=64, velocity=101, time=0),
    Message('note_on', channel=3, note=67, velocity=98, time=0),
    Message('control_change', channel=3, control=64, value=0, time=19),
    Message('control_change', channel=3, control=64, value=127, time=91),
    Message('note_on', channel=3, note=55, velocity=92, time=10),
    Message('note_on', channel=3, note=48, velocity=97, time=0),
    Message('note_on', channel=3, note=60, velocity=0, time=48),
    Message('note_on', channel=3, note=64, velocity=0, time=6),
    Message('note_on', channel=3, note=67, velocity=0, time=2),
    Message('note_on', channel=3, note=55, velocity=0, time=24),
    Message('note_on', channel=3, note=48, velocity=0, time=8),
    Message('note_on', channel=3, note=67, velocity=85, time=32),
    Message('note_on', channel=3, note=64, velocity=92, time=0),
    Message('note_on', channel=3, note=60, velocity=80, time=0),
    Message('note_on', channel=3, note=64, velocity=0, time=57),
    Message('note_on', channel=3, note=60, velocity=0, time=1),
    Message('note_on', channel=3, note=67, velocity=0, time=8),
    Message('note_on', channel=3, note=48, velocity=101, time=54),
    Message('note_on', channel=3, note=55, velocity=101, time=0),
    Message('note_on', channel=3, note=55, velocity=0, time=47),
    Message('note_on', channel=3, note=48, velocity=0, time=4),
    Message('note_on', channel=3, note=60, velocity=73, time=69),
    Message('note_on', channel=3, note=67, velocity=74, time=0),
    Message('note_on', channel=3, note=64, velocity=81, time=0),
    Message('note_on', channel=3, note=64, velocity=0, time=40),
    Message('note_on', channel=3, note=67, velocity=0, time=0),
    Message('note_on', channel=3, note=60, velocity=0, time=1),
    Message('note_on', channel=3, note=64, velocity=98, time=79),
    Message('note_on', channel=3, note=60, velocity=85, time=0),
    Message('note_on', channel=3, note=67, velocity=84, time=0),
    Message('note_on', channel=3, note=48, velocity=97, time=120),
    Message('note_on', channel=3, note=55, velocity=97, time=0),
    Message('note_on', channel=3, note=60, velocity=0, time=4),
    Message('note_on', channel=3, note=64, velocity=0, time=0),
    Message('note_on', channel=3, note=67, velocity=0, time=5),
    Message('note_on', channel=3, note=55, velocity=0, time=40),
    Message('note_on', channel=3, note=48, velocity=0, time=13),
    Message('note_on', channel=3, note=64, velocity=92, time=58),
    Message('note_on', channel=3, note=60, velocity=84, time=0),
    Message('note_on', channel=3, note=67, velocity=85, time=0),
    Message('note_on', channel=3, note=64, velocity=0, time=98),
    Message('note_on', channel=3, note=60, velocity=0, time=5),
    Message('note_on', channel=3, note=67, velocity=0, time=8),
    Message('note_on', channel=3, note=43, velocity=97, time=9),
    Message('note_on', channel=3, note=50, velocity=97, time=0),
    Message('note_on', channel=3, note=43, velocity=0, time=45),
    Message('note_on', channel=3, note=50, velocity=0, time=3),
    Message('control_change', channel=3, control=64, value=0, time=53),
    Message('note_on', channel=3, note=50, velocity=97, time=19),
    Message('note_on', channel=3, note=43, velocity=95, time=0),
    Message('note_on', channel=3, note=62, velocity=92, time=0),
    Message('note_on', channel=3, note=59, velocity=81, time=0),
    Message('note_on', channel=3, note=67, velocity=85, time=0),
    Message('control_change', channel=3, control=64, value=127, time=86),
    Message('note_on', channel=3, note=59, velocity=0, time=77),
    Message('note_on', channel=3, note=62, velocity=0, time=9),
    Message('note_on', channel=3, note=67, velocity=0, time=3),
    Message('note_on', channel=3, note=43, velocity=0, time=55),
    Message('note_on', channel=3, note=50, velocity=0, time=0),
    Message('note_on', channel=3, note=62, velocity=98, time=10),
    Message('note_on', channel=3, note=59, velocity=81, time=0),
    Message('note_on', channel=3, note=67, velocity=97, time=0),
    Message('note_on', channel=3, note=62, velocity=0, time=49),
    Message('note_on', channel=3, note=59, velocity=0, time=2),
    Message('note_on', channel=3, note=67, velocity=0, time=10),
    Message('note_on', channel=3, note=59, velocity=73, time=59),
    Message('note_on', channel=3, note=67, velocity=80, time=0),
    Message('note_on', channel=3, note=62, velocity=87, time=0),
    Message('note_on', channel=3, note=62, velocity=0, time=34),
    Message('note_on', channel=3, note=59, velocity=0, time=1),
    Message('note_on', channel=3, note=67, velocity=0, time=4),
    Message('note_on', channel=3, note=50, velocity=91, time=21),
    Message('note_on', channel=3, note=43, velocity=87, time=0),
    Message('note_on', channel=3, note=50, velocity=0, time=32),
    Message('note_on', channel=3, note=43, velocity=0, time=2),
    Message('note_on', channel=3, note=62, velocity=97, time=26),
    Message('note_on', channel=3, note=59, velocity=81, time=0),
    Message('note_on', channel=3, note=67, velocity=87, time=0),
    Message('note_on', channel=3, note=62, velocity=0, time=67),
    Message('note_on', channel=3, note=59, velocity=0, time=5),
    Message('note_on', channel=3, note=67, velocity=0, time=6),
    Message('note_on', channel=3, note=50, velocity=101, time=42),
    Message('note_on', channel=3, note=43, velocity=98, time=0),
    Message('note_on', channel=3, note=50, velocity=0, time=48),
    Message('note_on', channel=3, note=43, velocity=0, time=5),
    Message('note_on', channel=3, note=59, velocity=87, time=67),
    Message('note_on', channel=3, note=62, velocity=98, time=0),
    Message('note_on', channel=3, note=67, velocity=91, time=0),
    Message('note_on', channel=3, note=59, velocity=0, time=44),
    Message('note_on', channel=3, note=62, velocity=0, time=1),
    Message('note_on', channel=3, note=67, velocity=0, time=12),
    Message('note_on', channel=3, note=50, velocity=102, time=63),
    Message('note_on', channel=3, note=57, velocity=98, time=0),
    Message('control_change', channel=3, control=64, value=0, time=55),
    Message('control_change', channel=3, control=64, value=127, time=87),
    Message('note_on', channel=3, note=62, velocity=97, time=98),
    Message('note_on', channel=3, note=69, velocity=98, time=0),
    Message('note_on', channel=3, note=66, velocity=98, time=0),
    Message('note_on', channel=3, note=57, velocity=0, time=18),
    Message('note_on', channel=3, note=50, velocity=0, time=7),
    Message('note_on', channel=3, note=69, velocity=0, time=81),
    Message('note_on', channel=3, note=62, velocity=0, time=2),
    Message('note_on', channel=3, note=66, velocity=0, time=2),
    Message('note_on', channel=3, note=50, velocity=95, time=10),
    Message('note_on', channel=3, note=57, velocity=84, time=0),
    Message('note_on', channel=3, note=50, velocity=0, time=49),
    Message('note_on', channel=3, note=57, velocity=0, time=1),
    Message('note_on', channel=3, note=62, velocity=84, time=70),
    Message('note_on', channel=3, note=69, velocity=87, time=0),
    Message('note_on', channel=3, note=66, velocity=84, time=0),
    Message('note_on', channel=3, note=62, velocity=0, time=45),
    Message('note_on', channel=3, note=69, velocity=0, time=3),
    Message('note_on', channel=3, note=66, velocity=0, time=1),
    Message('note_on', channel=3, note=62, velocity=85, time=71),
    Message('note_on', channel=3, note=66, velocity=89, time=0),
    Message('note_on', channel=3, note=69, velocity=95, time=0),
    Message('note_on', channel=3, note=69, velocity=0, time=96),
    Message('note_on', channel=3, note=62, velocity=0, time=18),
    Message('note_on', channel=3, note=66, velocity=0, time=3),
    Message('note_on', channel=3, note=50, velocity=97, time=3),
    Message('note_on', channel=3, note=57, velocity=89, time=0),
    Message('note_on', channel=3, note=57, velocity=0, time=51),
    Message('note_on', channel=3, note=50, velocity=0, time=13),
    Message('note_on', channel=3, note=62, velocity=85, time=56),
    Message('note_on', channel=3, note=66, velocity=92, time=0),
    Message('note_on', channel=3, note=62, velocity=0, time=87),
    Message('note_on', channel=3, note=66, velocity=0, time=8),
    Message('note_on', channel=3, note=55, velocity=98, time=25),
    Message('note_on', channel=3, note=55, velocity=0, time=46),
    Message('control_change', channel=3, control=64, value=0, time=55),
    Message('note_on', channel=3, note=55, velocity=101, time=19),
    Message('note_on', channel=3, note=48, velocity=101, time=0),
    Message('note_on', channel=3, note=64, velocity=95, time=0),
    Message('note_on', channel=3, note=67, velocity=84, time=0),
    Message('note_on', channel=3, note=60, velocity=85, time=0),
    Message('control_change', channel=3, control=64, value=127, time=75),
    Message('note_on', channel=3, note=60, velocity=0, time=32),
    Message('note_on', channel=3, note=64, velocity=0, time=1),
    Message('note_on', channel=3, note=67, velocity=0, time=8),
    Message('note_on', channel=3, note=55, velocity=0, time=118),
    Message('note_on', channel=3, note=48, velocity=0, time=2),
    Message('note_on', channel=3, note=67, velocity=89, time=4),
    Message('note_on', channel=3, note=64, velocity=92, time=0),
    Message('note_on', channel=3, note=60, velocity=85, time=0),
    Message('note_on', channel=3, note=64, velocity=0, time=111),
    Message('note_on', channel=3, note=67, velocity=0, time=0),
    Message('note_on', channel=3, note=60, velocity=0, time=4),
    Message('note_on', channel=3, note=48, velocity=80, time=5),
    Message('note_on', channel=3, note=55, velocity=87, time=0),
    Message('note_on', channel=3, note=48, velocity=0, time=37),
    Message('note_on', channel=3, note=55, velocity=0, time=14),
    Message('note_on', channel=3, note=64, velocity=87, time=69),
    Message('note_on', channel=3, note=60, velocity=84, time=0),
    Message('note_on', channel=3, note=67, velocity=85, time=0),
    Message('note_on', channel=3, note=64, velocity=0, time=43),
    Message('note_on', channel=3, note=60, velocity=0, time=4),
    Message('note_on', channel=3, note=67, velocity=0, time=5),
    Message('note_on', channel=3, note=64, velocity=101, time=68),
    Message('note_on', channel=3, note=67, velocity=95, time=0),
    Message('note_on', channel=3, note=60, velocity=95, time=0),
    Message('note_on', channel=3, note=64, velocity=0, time=76),
    Message('note_on', channel=3, note=67, velocity=0, time=1),
    Message('note_on', channel=3, note=60, velocity=0, time=3),
    Message('note_on', channel=3, note=64, velocity=92, time=160),
    Message('note_on', channel=3, note=60, velocity=91, time=0),
    Message('note_on', channel=3, note=67, velocity=89, time=0),
    Message('note_on', channel=3, note=64, velocity=0, time=39),
    Message('note_on', channel=3, note=60, velocity=0, time=7),
    Message('note_on', channel=3, note=67, velocity=0, time=15),
    Message('control_change', channel=3, control=64, value=0, time=23),
    Message('note_on', channel=3, note=59, velocity=84, time=36),
    Message('note_on', channel=3, note=62, velocity=98, time=0),
    Message('note_on', channel=3, note=67, velocity=89, time=0),
    Message('note_on', channel=3, note=50, velocity=85, time=0),
    Message('note_on', channel=3, note=43, velocity=89, time=0),
    Message('control_change', channel=3, control=64, value=127, time=70),
    Message('note_on', channel=3, note=67, velocity=0, time=89),
    Message('note_on', channel=3, note=59, velocity=0, time=3),
    Message('note_on', channel=3, note=62, velocity=0, time=4),
    Message('note_on', channel=3, note=50, velocity=0, time=68),
    Message('note_on', channel=3, note=43, velocity=0, time=2),
    Message('note_on', channel=3, note=62, velocity=95, time=4),
    Message('note_on', channel=3, note=67, velocity=85, time=0),
    Message('note_on', channel=3, note=59, velocity=87, time=0),
    Message('note_on', channel=3, note=62, velocity=0, time=40),
    Message('note_on', channel=3, note=59, velocity=0, time=7),
    Message('note_on', channel=3, note=67, velocity=0, time=4),
    Message('note_on', channel=3, note=67, velocity=74, time=69),
    Message('note_on', channel=3, note=62, velocity=81, time=0),
    Message('note_on', channel=3, note=59, velocity=68, time=0),
    Message('note_on', channel=3, note=67, velocity=0, time=34),
    Message('note_on', channel=3, note=62, velocity=0, time=4),
    Message('note_on', channel=3, note=59, velocity=0, time=5),
    Message('note_on', channel=3, note=43, velocity=89, time=17),
    Message('note_on', channel=3, note=50, velocity=92, time=0),
    Message('note_on', channel=3, note=43, velocity=0, time=36),
    Message('note_on', channel=3, note=50, velocity=0, time=1),
    Message('note_on', channel=3, note=62, velocity=92, time=23),
    Message('note_on', channel=3, note=59, velocity=81, time=0),
    Message('note_on', channel=3, note=67, velocity=84, time=0),
    Message('note_on', channel=3, note=62, velocity=0, time=78),
    Message('note_on', channel=3, note=59, velocity=0, time=4),
    Message('note_on', channel=3, note=67, velocity=0, time=7),
    Message('note_on', channel=3, note=43, velocity=87, time=31),
    Message('note_on', channel=3, note=50, velocity=97, time=0),
    Message('note_on', channel=3, note=50, velocity=0, time=52),
    Message('note_on', channel=3, note=43, velocity=0, time=1),
    Message('note_on', channel=3, note=59, velocity=89, time=67),
    Message('note_on', channel=3, note=62, velocity=98, time=0),
    Message('note_on', channel=3, note=67, velocity=92, time=0),
    Message('note_on', channel=3, note=62, velocity=0, time=53),
    Message('note_on', channel=3, note=59, velocity=0, time=1),
    Message('note_on', channel=3, note=67, velocity=0, time=2),
    Message('note_on', channel=3, note=43, velocity=85, time=64),
    Message('note_on', channel=3, note=50, velocity=97, time=0),
    Message('note_on', channel=3, note=50, velocity=0, time=42),
    Message('note_on', channel=3, note=43, velocity=0, time=8),
    Message('control_change', channel=3, control=64, value=0, time=51),
    Message('note_on', channel=3, note=52, velocity=89, time=19),
    Message('note_on', channel=3, note=55, velocity=101, time=0),
    Message('note_on', channel=3, note=59, velocity=89, time=0),
    Message('control_change', channel=3, control=64, value=127, time=70),
    Message('note_on', channel=3, note=52, velocity=0, time=86),
    Message('note_on', channel=3, note=59, velocity=0, time=2),
    Message('note_on', channel=3, note=55, velocity=0, time=7),
    Message('note_on', channel=3, note=52, velocity=95, time=75),
    Message('note_on', channel=3, note=55, velocity=101, time=0),
    Message('note_on', channel=3, note=59, velocity=95, time=0),
    Message('note_on', channel=3, note=52, velocity=0, time=76),
    Message('note_on', channel=3, note=55, velocity=0, time=4),
    Message('note_on', channel=3, note=59, velocity=0, time=9),
    Message('note_on', channel=3, note=40, velocity=92, time=31),
    Message('note_on', channel=3, note=40, velocity=0, time=52),
    Message('note_on', channel=3, note=52, velocity=81, time=68),
    Message('note_on', channel=3, note=55, velocity=98, time=0),
    Message('note_on', channel=3, note=59, velocity=95, time=0),
    Message('note_on', channel=3, note=55, velocity=0, time=39),
    Message('note_on', channel=3, note=52, velocity=0, time=2),
    Message('note_on', channel=3, note=59, velocity=0, time=7),
    Message('note_on', channel=3, note=55, velocity=98, time=72),
    Message('note_on', channel=3, note=59, velocity=95, time=0),
    Message('note_on', channel=3, note=52, velocity=87, time=0),
    Message('note_on', channel=3, note=52, velocity=0, time=52),
    Message('note_on', channel=3, note=55, velocity=0, time=5),
    Message('note_on', channel=3, note=59, velocity=0, time=4),
    Message('note_on', channel=3, note=55, velocity=105, time=179),
    Message('note_on', channel=3, note=52, velocity=95, time=0),
    Message('note_on', channel=3, note=59, velocity=97, time=0),
    Message('note_on', channel=3, note=52, velocity=0, time=54),
    Message('note_on', channel=3, note=55, velocity=0, time=2),
    Message('note_on', channel=3, note=59, velocity=0, time=8),
    Message('note_on', channel=3, note=52, velocity=89, time=176),
    Message('note_on', channel=3, note=55, velocity=101, time=0),
    Message('note_on', channel=3, note=59, velocity=95, time=0),
    Message('note_on', channel=3, note=52, velocity=0, time=61),
    Message('note_on', channel=3, note=55, velocity=0, time=1),
    Message('note_on', channel=3, note=59, velocity=0, time=11),
    Message('note_on', channel=3, note=40, velocity=89, time=47),
    Message('note_on', channel=3, note=40, velocity=0, time=40),
    Message('note_on', channel=3, note=52, velocity=84, time=80),
    Message('note_on', channel=3, note=55, velocity=98, time=0),
    Message('note_on', channel=3, note=59, velocity=87, time=0),
    Message('note_on', channel=3, note=52, velocity=0, time=40),
    Message('note_on', channel=3, note=55, velocity=0, time=2),
    Message('note_on', channel=3, note=59, velocity=0, time=6),
    Message('note_on', channel=3, note=52, velocity=91, time=72),
    Message('note_on', channel=3, note=55, velocity=101, time=0),
    Message('note_on', channel=3, note=59, velocity=95, time=0),
    Message('note_on', channel=3, note=52, velocity=0, time=52),
    Message('note_on', channel=3, note=55, velocity=0, time=5),
    Message('note_on', channel=3, note=59, velocity=0, time=9),
    Message('note_on', channel=3, note=52, velocity=95, time=54),
    Message('note_on', channel=3, note=52, velocity=0, time=53),
    Message('note_on', channel=3, note=55, velocity=101, time=67),
    Message('note_on', channel=3, note=59, velocity=98, time=0),
    Message('note_on', channel=3, note=52, velocity=95, time=0),
    Message('note_on', channel=3, note=52, velocity=0, time=47),
    Message('note_on', channel=3, note=55, velocity=0, time=8),
    Message('note_on', channel=3, note=59, velocity=0, time=7),
    Message('control_change', channel=3, control=64, value=0, time=166),
    Message('note_on', channel=3, note=60, velocity=91, time=12),
    Message('note_on', channel=3, note=64, velocity=95, time=0),
    Message('note_on', channel=3, note=55, velocity=98, time=0),
    Message('note_on', channel=3, note=48, velocity=101, time=0),
    Message('control_change', channel=3, control=64, value=127, time=87),
    Message('note_on', channel=3, note=60, velocity=0, time=21),
    Message('note_on', channel=3, note=64, velocity=0, time=14),
    Message('note_on', channel=3, note=55, velocity=0, time=86),
    Message('note_on', channel=3, note=48, velocity=0, time=2),
    Message('note_on', channel=3, note=60, velocity=78, time=30),
    Message('note_on', channel=3, note=64, velocity=92, time=0),
    Message('note_on', channel=3, note=60, velocity=0, time=95),
    Message('note_on', channel=3, note=64, velocity=0, time=1),
    Message('note_on', channel=3, note=48, velocity=80, time=24),
    Message('note_on', channel=3, note=55, velocity=87, time=0),
    Message('note_on', channel=3, note=48, velocity=0, time=40),
    Message('note_on', channel=3, note=55, velocity=0, time=9),
    Message('note_on', channel=3, note=60, velocity=69, time=71),
    Message('note_on', channel=3, note=64, velocity=84, time=0),
    Message('note_on', channel=3, note=60, velocity=0, time=47),
    Message('note_on', channel=3, note=64, velocity=0, time=2),
    Message('note_on', channel=3, note=60, velocity=89, time=71),
    Message('note_on', channel=3, note=64, velocity=95, time=0),
    Message('note_on', channel=3, note=60, velocity=0, time=53),
    Message('note_on', channel=3, note=64, velocity=0, time=6),
    Message('note_on', channel=3, note=60, velocity=89, time=61),
    Message('note_on', channel=3, note=64, velocity=97, time=0),
    Message('note_on', channel=3, note=64, velocity=0, time=44),
    Message('note_on', channel=3, note=60, velocity=0, time=6),
    Message('note_on', channel=3, note=43, velocity=101, time=70),
    Message('note_on', channel=3, note=50, velocity=105, time=0),
    Message('control_change', channel=3, control=64, value=0, time=36),
    Message('note_on', channel=3, note=55, velocity=80, time=84),
    Message('note_on', channel=3, note=62, velocity=91, time=0),
    Message('note_on', channel=3, note=59, velocity=95, time=0),
    Message('note_on', channel=3, note=50, velocity=0, time=7),
    Message('note_on', channel=3, note=43, velocity=0, time=4),
    Message('control_change', channel=3, control=64, value=127, time=6),
    Message('note_on', channel=3, note=55, velocity=0, time=105),
    Message('note_on', channel=3, note=59, velocity=0, time=3),
    Message('note_on', channel=3, note=62, velocity=0, time=5),
    Message('note_on', channel=3, note=55, velocity=43, time=50),
    Message('note_on', channel=3, note=55, velocity=0, time=19),
    Message('note_on', channel=3, note=43, velocity=98, time=41),
    Message('note_on', channel=3, note=43, velocity=0, time=95),
    Message('note_on', channel=3, note=55, velocity=95, time=25),
    Message('note_on', channel=3, note=62, velocity=98, time=0),
    Message('note_on', channel=3, note=59, velocity=101, time=0),
    Message('note_on', channel=3, note=55, velocity=0, time=57),
    Message('note_on', channel=3, note=59, velocity=0, time=1),
    Message('note_on', channel=3, note=62, velocity=0, time=8),
    Message('note_on', channel=3, note=43, velocity=87, time=54),
    Message('note_on', channel=3, note=43, velocity=0, time=72),
    Message('note_on', channel=3, note=62, velocity=89, time=48),
    Message('note_on', channel=3, note=59, velocity=92, time=0),
    Message('note_on', channel=3, note=55, velocity=89, time=0),
    Message('note_on', channel=3, note=59, velocity=0, time=41),
    Message('note_on', channel=3, note=62, velocity=0, time=1),
    Message('note_on', channel=3, note=55, velocity=0, time=3),
    Message('note_on', channel=3, note=55, velocity=84, time=75),
    Message('note_on', channel=3, note=59, velocity=98, time=0),
    Message('note_on', channel=3, note=62, velocity=98, time=0),
    Message('note_on', channel=3, note=55, velocity=0, time=63),
    Message('note_on', channel=3, note=59, velocity=0, time=33),
    Message('note_on', channel=3, note=62, velocity=0, time=10),
    Message('note_on', channel=3, note=52, velocity=95, time=14),
    Message('note_on', channel=3, note=52, velocity=0, time=45),
    Message('control_change', channel=3, control=64, value=0, time=35),
    Message('note_on', channel=3, note=60, velocity=98, time=40),
    Message('note_on', channel=3, note=57, velocity=89, time=0),
    Message('note_on', channel=3, note=45, velocity=101, time=0),
    Message('note_on', channel=3, note=64, velocity=97, time=0),
    Message('control_change', channel=3, control=64, value=127, time=54),
    Message('note_on', channel=3, note=57, velocity=0, time=45),
    Message('note_on', channel=3, note=60, velocity=0, time=0),
    Message('note_on', channel=3, note=64, velocity=0, time=5),
    Message('note_on', channel=3, note=52, velocity=89, time=76),
    Message('note_on', channel=3, note=60, velocity=81, time=0),
    Message('note_on', channel=3, note=64, velocity=78, time=0),
    Message('note_on', channel=3, note=57, velocity=69, time=0),
    Message('note_on', channel=3, note=45, velocity=0, time=2),
    Message('note_on', channel=3, note=60, velocity=0, time=24),
    Message('note_on', channel=3, note=64, velocity=0, time=4),
    Message('note_on', channel=3, note=57, velocity=0, time=5),
    Message('note_on', channel=3, note=52, velocity=0, time=8),
    Message('note_on', channel=3, note=60, velocity=95, time=137),
    Message('note_on', channel=3, note=57, velocity=89, time=0),
    Message('note_on', channel=3, note=64, velocity=84, time=0),
    Message('note_on', channel=3, note=60, velocity=0, time=68),
    Message('note_on', channel=3, note=57, velocity=0, time=2),
    Message('note_on', channel=3, note=64, velocity=0, time=5),
    Message('note_on', channel=3, note=45, velocity=97, time=45),
    Message('note_on', channel=3, note=45, velocity=0, time=81),
    Message('note_on', channel=3, note=60, velocity=95, time=39),
    Message('note_on', channel=3, note=64, velocity=87, time=0),
    Message('note_on', channel=3, note=57, velocity=84, time=0),
    Message('note_on', channel=3, note=60, velocity=0, time=40),
    Message('note_on', channel=3, note=57, velocity=0, time=8),
    Message('note_on', channel=3, note=64, velocity=0, time=0),
    Message('note_on', channel=3, note=60, velocity=98, time=72),
    Message('note_on', channel=3, note=64, velocity=97, time=0),
    Message('note_on', channel=3, note=57, velocity=87, time=0),
    Message('note_on', channel=3, note=57, velocity=0, time=51),
    Message('note_on', channel=3, note=60, velocity=0, time=5),
    Message('note_on', channel=3, note=64, velocity=0, time=20),
    Message('note_on', channel=3, note=55, velocity=95, time=44),
    Message('note_on', channel=3, note=55, velocity=0, time=40),
    Message('control_change', channel=3, control=64, value=0, time=51),
    Message('note_on', channel=3, note=55, velocity=95, time=29),
    Message('note_on', channel=3, note=64, velocity=87, time=0),
    Message('note_on', channel=3, note=60, velocity=85, time=0),
    Message('note_on', channel=3, note=67, velocity=85, time=0),
    Message('note_on', channel=3, note=48, velocity=97, time=0),
    Message('note_on', channel=3, note=64, velocity=0, time=43),
    Message('note_on', channel=3, note=60, velocity=0, time=5),
    Message('control_change', channel=3, control=64, value=127, time=8),
    Message('note_on', channel=3, note=67, velocity=0, time=2),
    Message('note_on', channel=3, note=55, velocity=0, time=32),
    Message('note_on', channel=3, note=48, velocity=0, time=6),
    Message('note_on', channel=3, note=67, velocity=69, time=24),
    Message('note_on', channel=3, note=60, velocity=65, time=0),
    Message('note_on', channel=3, note=64, velocity=84, time=0),
    Message('note_on', channel=3, note=64, velocity=0, time=31),
    Message('note_on', channel=3, note=67, velocity=0, time=1),
    Message('note_on', channel=3, note=60, velocity=0, time=3),
    Message('note_on', channel=3, note=48, velocity=91, time=25),
    Message('note_on', channel=3, note=55, velocity=97, time=0),
    Message('note_on', channel=3, note=48, velocity=0, time=28),
    Message('note_on', channel=3, note=55, velocity=0, time=13),
    Message('note_on', channel=3, note=64, velocity=89, time=19),
    Message('note_on', channel=3, note=67, velocity=84, time=0),
    Message('note_on', channel=3, note=60, velocity=85, time=0),
    Message('note_on', channel=3, note=64, velocity=0, time=46),
    Message('note_on', channel=3, note=60, velocity=0, time=6),
    Message('note_on', channel=3, note=67, velocity=0, time=13),
    Message('note_on', channel=3, note=55, velocity=101, time=55),
    Message('note_on', channel=3, note=48, velocity=98, time=0),
    Message('note_on', channel=3, note=55, velocity=0, time=42),
    Message('note_on', channel=3, note=48, velocity=0, time=2),
    Message('note_on', channel=3, note=60, velocity=80, time=76),
    Message('note_on', channel=3, note=67, velocity=84, time=0),
    Message('note_on', channel=3, note=64, velocity=92, time=0),
    Message('note_on', channel=3, note=60, velocity=0, time=55),
    Message('note_on', channel=3, note=64, velocity=0, time=2),
    Message('note_on', channel=3, note=67, velocity=0, time=5),
    Message('note_on', channel=3, note=55, velocity=91, time=58),
    Message('note_on', channel=3, note=48, velocity=92, time=0),
    Message('note_on', channel=3, note=48, velocity=0, time=44),
    Message('note_on', channel=3, note=55, velocity=0, time=3),
    Message('note_on', channel=3, note=60, velocity=80, time=73),
    Message('note_on', channel=3, note=67, velocity=84, time=0),
    Message('note_on', channel=3, note=64, velocity=95, time=0),
    Message('note_on', channel=3, note=67, velocity=0, time=36),
    Message('note_on', channel=3, note=64, velocity=0, time=2),
    Message('note_on', channel=3, note=60, velocity=0, time=10),
    Message('control_change', channel=3, control=64, value=0, time=166),
    Message('note_on', channel=3, note=52, velocity=92, time=26),
    Message('note_on', channel=3, note=55, velocity=101, time=0),
    Message('note_on', channel=3, note=59, velocity=95, time=0),
    Message('control_change', channel=3, control=64, value=127, time=57),
    Message('note_on', channel=3, note=52, velocity=0, time=86),
    Message('note_on', channel=3, note=55, velocity=0, time=13),
    Message('note_on', channel=3, note=59, velocity=0, time=4),
    Message('note_on', channel=3, note=40, velocity=92, time=80),
    Message('note_on', channel=3, note=40, velocity=0, time=49),
    Message('note_on', channel=3, note=52, velocity=92, time=71),
    Message('note_on', channel=3, note=55, velocity=101, time=0),
    Message('note_on', channel=3, note=59, velocity=98, time=0),
    Message('note_on', channel=3, note=52, velocity=0, time=44),
    Message('note_on', channel=3, note=55, velocity=0, time=3),
    Message('note_on', channel=3, note=59, velocity=0, time=11),
    Message('note_on', channel=3, note=52, velocity=92, time=62),
    Message('note_on', channel=3, note=55, velocity=101, time=0),
    Message('note_on', channel=3, note=59, velocity=97, time=0),
    Message('note_on', channel=3, note=52, velocity=0, time=82),
    Message('note_on', channel=3, note=55, velocity=0, time=6),
    Message('note_on', channel=3, note=59, velocity=0, time=4),
    Message('note_on', channel=3, note=40, velocity=89, time=28),
    Message('note_on', channel=3, note=40, velocity=0, time=44),
    Message('note_on', channel=3, note=52, velocity=89, time=76),
    Message('note_on', channel=3, note=55, velocity=98, time=0),
    Message('note_on', channel=3, note=59, velocity=97, time=0),
    Message('note_on', channel=3, note=52, velocity=0, time=41),
    Message('note_on', channel=3, note=55, velocity=0, time=2),
    Message('note_on', channel=3, note=59, velocity=0, time=3),
    Message('note_on', channel=3, note=55, velocity=105, time=74),
    Message('note_on', channel=3, note=52, velocity=97, time=0),
    Message('note_on', channel=3, note=59, velocity=98, time=0),
    Message('note_on', channel=3, note=55, velocity=0, time=61),
    Message('note_on', channel=3, note=52, velocity=0, time=10),
    Message('note_on', channel=3, note=59, velocity=0, time=7),
    Message('note_on', channel=3, note=40, velocity=85, time=42),
    Message('note_on', channel=3, note=40, velocity=0, time=42),
    Message('note_on', channel=3, note=52, velocity=92, time=78),
    Message('note_on', channel=3, note=55, velocity=101, time=0),
    Message('note_on', channel=3, note=59, velocity=95, time=0),
    Message('note_on', channel=3, note=55, velocity=0, time=40),
    Message('note_on', channel=3, note=52, velocity=0, time=0),
    Message('note_on', channel=3, note=59, velocity=0, time=13),
    Message('note_on', channel=3, note=40, velocity=71, time=127),
    Message('note_on', channel=3, note=40, velocity=0, time=43),
    Message('note_on', channel=3, note=55, velocity=98, time=17),
    Message('note_on', channel=3, note=52, velocity=101, time=0),
    Message('note_on', channel=3, note=59, velocity=95, time=0),
    Message('note_on', channel=3, note=55, velocity=0, time=36),
    Message('note_on', channel=3, note=52, velocity=0, time=6),
    Message('note_on', channel=3, note=59, velocity=0, time=4),
    Message('note_on', channel=3, note=55, velocity=101, time=74),
    Message('note_on', channel=3, note=52, velocity=95, time=0),
    Message('note_on', channel=3, note=59, velocity=97, time=0),
    Message('note_on', channel=3, note=52, velocity=0, time=44),
    Message('note_on', channel=3, note=55, velocity=0, time=3),
    Message('note_on', channel=3, note=59, velocity=0, time=8),
    Message('note_on', channel=3, note=52, velocity=89, time=65),
    Message('note_on', channel=3, note=59, velocity=95, time=0),
    Message('note_on', channel=3, note=55, velocity=98, time=0),
    Message('note_on', channel=3, note=52, velocity=0, time=42),
    Message('note_on', channel=3, note=55, velocity=0, time=6),
    Message('note_on', channel=3, note=59, velocity=0, time=3),
    Message('note_on', channel=3, note=52, velocity=92, time=69),
    Message('note_on', channel=3, note=55, velocity=102, time=0),
    Message('note_on', channel=3, note=59, velocity=101, time=0),
    Message('note_on', channel=3, note=52, velocity=0, time=41),
    Message('note_on', channel=3, note=55, velocity=0, time=4),
    Message('note_on', channel=3, note=59, velocity=0, time=8),
    Message('note_on', channel=3, note=55, velocity=97, time=67),
    Message('note_on', channel=3, note=59, velocity=97, time=0),
    Message('note_on', channel=3, note=52, velocity=97, time=0),
    Message('note_on', channel=3, note=55, velocity=0, time=33),
    Message('note_on', channel=3, note=52, velocity=0, time=5),
    Message('note_on', channel=3, note=59, velocity=0, time=13),
    Message('control_change', channel=3, control=64, value=0, time=45),
    Message('note_on', channel=3, note=47, velocity=65, time=24),
    Message('note_on', channel=3, note=48, velocity=97, time=0),
    Message('note_on', channel=3, note=47, velocity=0, time=18),
    Message('control_change', channel=3, control=64, value=127, time=98),
    Message('note_on', channel=3, note=55, velocity=105, time=4),
    Message('note_on', channel=3, note=55, velocity=0, time=102),
    Message('note_on', channel=3, note=64, velocity=97, time=18),
    Message('note_on', channel=3, note=60, velocity=89, time=0),
    Message('note_on', channel=3, note=67, velocity=97, time=0),
    Message('note_on', channel=3, note=48, velocity=0, time=52),
    Message('note_on', channel=3, note=64, velocity=0, time=12),
    Message('note_on', channel=3, note=60, velocity=0, time=0),
    Message('note_on', channel=3, note=67, velocity=0, time=13),
    Message('note_on', channel=3, note=67, velocity=95, time=163),
    Message('note_on', channel=3, note=64, velocity=101, time=0),
    Message('note_on', channel=3, note=60, velocity=95, time=0),
    Message('note_on', channel=3, note=60, velocity=0, time=42),
    Message('note_on', channel=3, note=64, velocity=0, time=0),
    Message('note_on', channel=3, note=67, velocity=0, time=4),
    Message('note_on', channel=3, note=60, velocity=89, time=74),
    Message('note_on', channel=3, note=64, velocity=98, time=0),
    Message('note_on', channel=3, note=67, velocity=92, time=0),
    Message('note_on', channel=3, note=60, velocity=0, time=54),
    Message('note_on', channel=3, note=64, velocity=0, time=5),
    Message('note_on', channel=3, note=67, velocity=0, time=9),
    Message('note_on', channel=3, note=59, velocity=98, time=172),
    Message('note_on', channel=3, note=62, velocity=105, time=0),
    Message('note_on', channel=3, note=67, velocity=98, time=0),
    Message('control_change', channel=3, control=64, value=0, time=28),
    Message('control_change', channel=3, control=64, value=127, time=102),
    Message('note_on', channel=3, note=67, velocity=0, time=109),
    Message('note_on', channel=3, note=59, velocity=0, time=1),
    Message('note_on', channel=3, note=43, velocity=95, time=0),
    Message('note_on', channel=3, note=62, velocity=0, time=3),
    Message('note_on', channel=3, note=43, velocity=0, time=60),
    Message('note_on', channel=3, note=59, velocity=73, time=57),
    Message('note_on', channel=3, note=62, velocity=92, time=0),
    Message('note_on', channel=3, note=67, velocity=84, time=0),
    Message('note_on', channel=3, note=62, velocity=0, time=41),
    Message('note_on', channel=3, note=59, velocity=0, time=4),
    Message('note_on', channel=3, note=67, velocity=0, time=6),
    Message('note_on', channel=3, note=67, velocity=87, time=69),
    Message('note_on', channel=3, note=59, velocity=71, time=0),
    Message('note_on', channel=3, note=62, velocity=87, time=0),
    Message('note_on', channel=3, note=62, velocity=0, time=47),
    Message('note_on', channel=3, note=59, velocity=0, time=2),
    Message('note_on', channel=3, note=67, velocity=0, time=4),
    Message('note_on', channel=3, note=59, velocity=69, time=67),
    Message('note_on', channel=3, note=62, velocity=87, time=0),
    Message('note_on', channel=3, note=67, velocity=73, time=0),
    Message('note_on', channel=3, note=59, velocity=0, time=58),
    Message('note_on', channel=3, note=62, velocity=0, time=2),
    Message('note_on', channel=3, note=67, velocity=0, time=5),
    Message('note_on', channel=3, note=59, velocity=66, time=55),
    Message('note_on', channel=3, note=67, velocity=85, time=0),
    Message('note_on', channel=3, note=62, velocity=84, time=0),
    Message('note_on', channel=3, note=59, velocity=0, time=36),
    Message('note_on', channel=3, note=62, velocity=0, time=7),
    Message('note_on', channel=3, note=67, velocity=0, time=6),
    Message('note_on', channel=3, note=50, velocity=81, time=11),
    Message('note_on', channel=3, note=43, velocity=81, time=0),
    Message('note_on', channel=3, note=50, velocity=0, time=36),
    Message('note_on', channel=3, note=43, velocity=0, time=1),
    Message('note_on', channel=3, note=59, velocity=87, time=23),
    Message('note_on', channel=3, note=67, velocity=91, time=0),
    Message('note_on', channel=3, note=62, velocity=101, time=0),
    Message('note_on', channel=3, note=59, velocity=0, time=43),
    Message('note_on', channel=3, note=62, velocity=0, time=7),
    Message('note_on', channel=3, note=67, velocity=0, time=6),
    Message('note_on', channel=3, note=62, velocity=95, time=64),
    Message('note_on', channel=3, note=59, velocity=81, time=0),
    Message('note_on', channel=3, note=67, velocity=89, time=0),
    Message('note_on', channel=3, note=62, velocity=0, time=40),
    Message('note_on', channel=3, note=59, velocity=0, time=4),
    Message('note_on', channel=3, note=67, velocity=0, time=19),
    Message('control_change', channel=3, control=64, value=0, time=44),
    Message('note_on', channel=3, note=64, velocity=95, time=13),
    Message('note_on', channel=3, note=60, velocity=92, time=0),
    Message('note_on', channel=3, note=67, velocity=91, time=0),
    Message('note_on', channel=3, note=55, velocity=95, time=0),
    Message('note_on', channel=3, note=48, velocity=97, time=0),
    Message('control_change', channel=3, control=64, value=127, time=68),
    Message('note_on', channel=3, note=60, velocity=0, time=78),
    Message('note_on', channel=3, note=64, velocity=0, time=0),
    Message('note_on', channel=3, note=67, velocity=0, time=10),
    Message('note_on', channel=3, note=48, velocity=0, time=64),
    Message('note_on', channel=3, note=55, velocity=0, time=3),
    Message('note_on', channel=3, note=64, velocity=95, time=17),
    Message('note_on', channel=3, note=67, velocity=95, time=0),
    Message('note_on', channel=3, note=60, velocity=91, time=0),
    Message('note_on', channel=3, note=64, velocity=0, time=62),
    Message('note_on', channel=3, note=60, velocity=0, time=12),
    Message('note_on', channel=3, note=67, velocity=0, time=3),
    Message('note_on', channel=3, note=55, velocity=85, time=43),
    Message('note_on', channel=3, note=48, velocity=87, time=0),
    Message('note_on', channel=3, note=55, velocity=0, time=43),
    Message('note_on', channel=3, note=48, velocity=0, time=2),
    Message('note_on', channel=3, note=67, velocity=85, time=75),
    Message('note_on', channel=3, note=64, velocity=97, time=0),
    Message('note_on', channel=3, note=60, velocity=87, time=0),
    Message('note_on', channel=3, note=64, velocity=0, time=38),
    Message('note_on', channel=3, note=67, velocity=0, time=3),
    Message('note_on', channel=3, note=60, velocity=0, time=2),
    Message('note_on', channel=3, note=64, velocity=101, time=77),
    Message('note_on', channel=3, note=60, velocity=95, time=0),
    Message('note_on', channel=3, note=67, velocity=97, time=0),
    Message('note_on', channel=3, note=60, velocity=0, time=56),
    Message('note_on', channel=3, note=64, velocity=0, time=3),
    Message('note_on', channel=3, note=67, velocity=0, time=7),
    Message('note_on', channel=3, note=60, velocity=92, time=54),
    Message('note_on', channel=3, note=64, velocity=98, time=0),
    Message('note_on', channel=3, note=67, velocity=92, time=0),
    Message('note_on', channel=3, note=64, velocity=0, time=38),
    Message('note_on', channel=3, note=60, velocity=0, time=4),
    Message('note_on', channel=3, note=67, velocity=0, time=12),
    Message('note_on', channel=3, note=62, velocity=105, time=66),
    Message('note_on', channel=3, note=59, velocity=101, time=0),
    Message('note_on', channel=3, note=67, velocity=97, time=0),
    Message('note_on', channel=3, note=43, velocity=97, time=0),
    Message('control_change', channel=3, control=64, value=0, time=4),
    Message('control_change', channel=3, control=64, value=127, time=92),
    Message('note_on', channel=3, note=59, velocity=0, time=71),
    Message('note_on', channel=3, note=62, velocity=0, time=4),
    Message('note_on', channel=3, note=67, velocity=0, time=9),
    Message('note_on', channel=3, note=43, velocity=0, time=52),
    Message('note_on', channel=3, note=62, velocity=97, time=8),
    Message('note_on', channel=3, note=59, velocity=87, time=0),
    Message('note_on', channel=3, note=67, velocity=91, time=0),
    Message('note_on', channel=3, note=62, velocity=0, time=84),
    Message('note_on', channel=3, note=67, velocity=0, time=10),
    Message('note_on', channel=3, note=59, velocity=0, time=6),
    Message('note_on', channel=3, note=43, velocity=91, time=20),
    Message('note_on', channel=3, note=43, velocity=0, time=57),
    Message('note_on', channel=3, note=59, velocity=71, time=63),
    Message('note_on', channel=3, note=62, velocity=91, time=0),
    Message('note_on', channel=3, note=67, velocity=84, time=0),
    Message('note_on', channel=3, note=62, velocity=0, time=39),
    Message('note_on', channel=3, note=59, velocity=0, time=4),
    Message('note_on', channel=3, note=67, velocity=0, time=4),
    Message('note_on', channel=3, note=62, velocity=97, time=73),
    Message('note_on', channel=3, note=67, velocity=95, time=0),
    Message('note_on', channel=3, note=59, velocity=81, time=0),
    Message('note_on', channel=3, note=62, velocity=0, time=97),
    Message('note_on', channel=3, note=59, velocity=0, time=10),
    Message('note_on', channel=3, note=67, velocity=0, time=7),
    Message('note_on', channel=3, note=43, velocity=92, time=6),
    Message('note_on', channel=3, note=43, velocity=0, time=62),
    Message('note_on', channel=3, note=59, velocity=85, time=58),
    Message('note_on', channel=3, note=62, velocity=98, time=0),
    Message('note_on', channel=3, note=67, velocity=92, time=0),
    Message('note_on', channel=3, note=62, velocity=0, time=57),
    Message('note_on', channel=3, note=59, velocity=0, time=5),
    Message('note_on', channel=3, note=67, velocity=0, time=2),
    Message('note_on', channel=3, note=52, velocity=84, time=56),
    Message('note_on', channel=3, note=52, velocity=0, time=55),
    Message('control_change', channel=3, control=64, value=0, time=12),
    Message('note_on', channel=3, note=45, velocity=98, time=53),
    Message('note_on', channel=3, note=57, velocity=87, time=0),
    Message('note_on', channel=3, note=64, velocity=95, time=0),
    Message('note_on', channel=3, note=60, velocity=101, time=0),
    Message('control_change', channel=3, control=64, value=127, time=28),
    Message('note_on', channel=3, note=57, velocity=0, time=140),
    Message('note_on', channel=3, note=64, velocity=0, time=5),
    Message('note_on', channel=3, note=60, velocity=0, time=2),
    Message('note_on', channel=3, note=60, velocity=92, time=65),
    Message('note_on', channel=3, note=57, velocity=84, time=0),
    Message('note_on', channel=3, note=64, velocity=87, time=0),
    Message('note_on', channel=3, note=45, velocity=0, time=16),
    Message('note_on', channel=3, note=60, velocity=0, time=31),
    Message('note_on', channel=3, note=57, velocity=0, time=8),
    Message('note_on', channel=3, note=64, velocity=0, time=8),
    Message('note_on', channel=3, note=52, velocity=84, time=57),
    Message('note_on', channel=3, note=45, velocity=87, time=0),
    Message('note_on', channel=3, note=52, velocity=0, time=37),
    Message('note_on', channel=3, note=45, velocity=0, time=1),
    Message('note_on', channel=3, note=60, velocity=97, time=82),
    Message('note_on', channel=3, note=57, velocity=85, time=0),
    Message('note_on', channel=3, note=64, velocity=91, time=0),
    Message('note_on', channel=3, note=60, velocity=0, time=32),
    Message('note_on', channel=3, note=57, velocity=0, time=9),
    Message('note_on', channel=3, note=64, velocity=0, time=4),
    Message('note_on', channel=3, note=60, velocity=102, time=75),
    Message('note_on', channel=3, note=64, velocity=101, time=0),
    Message('note_on', channel=3, note=57, velocity=95, time=0),
    Message('note_on', channel=3, note=60, velocity=0, time=102),
    Message('note_on', channel=3, note=57, velocity=0, time=4),
    Message('note_on', channel=3, note=64, velocity=0, time=3),
    Message('note_on', channel=3, note=52, velocity=84, time=11),
    Message('note_on', channel=3, note=45, velocity=84, time=0),
    Message('note_on', channel=3, note=45, velocity=0, time=43),
    Message('note_on', channel=3, note=52, velocity=0, time=5),
    Message('note_on', channel=3, note=60, velocity=92, time=72),
    Message('note_on', channel=3, note=64, velocity=91, time=0),
    Message('note_on', channel=3, note=57, velocity=84, time=0),
    Message('note_on', channel=3, note=60, velocity=0, time=56),
    Message('note_on', channel=3, note=57, velocity=0, time=1),
    Message('control_change', channel=3, control=64, value=0, time=0),
    Message('note_on', channel=3, note=64, velocity=0, time=21),
    Message('note_on', channel=3, note=55, velocity=98, time=42),
    Message('note_on', channel=3, note=48, velocity=101, time=0),
    Message('control_change', channel=3, control=64, value=127, time=30),
    Message('note_on', channel=3, note=55, velocity=0, time=80),
    Message('note_on', channel=3, note=48, velocity=0, time=8),
    Message('note_on', channel=3, note=60, velocity=71, time=2),
    Message('note_on', channel=3, note=64, velocity=87, time=0),
    Message('note_on', channel=3, note=67, velocity=87, time=0),
    Message('note_on', channel=3, note=64, velocity=0, time=29),
    Message('note_on', channel=3, note=60, velocity=0, time=0),
    Message('note_on', channel=3, note=67, velocity=0, time=11),
    Message('note_on', channel=3, note=48, velocity=89, time=20),
    Message('note_on', channel=3, note=55, velocity=87, time=0),
    Message('note_on', channel=3, note=48, velocity=0, time=28),
    Message('note_on', channel=3, note=55, velocity=0, time=9),
    Message('note_on', channel=3, note=60, velocity=87, time=23),
    Message('note_on', channel=3, note=64, velocity=92, time=0),
    Message('note_on', channel=3, note=67, velocity=89, time=0),
    Message('note_on', channel=3, note=60, velocity=0, time=73),
    Message('note_on', channel=3, note=64, velocity=0, time=3),
    Message('note_on', channel=3, note=67, velocity=0, time=15),
    Message('note_on', channel=3, note=55, velocity=101, time=29),
    Message('note_on', channel=3, note=48, velocity=101, time=0),
    Message('note_on', channel=3, note=55, velocity=0, time=56),
    Message('note_on', channel=3, note=48, velocity=0, time=9),
    Message('note_on', channel=3, note=60, velocity=84, time=55),
    Message('note_on', channel=3, note=64, velocity=92, time=0),
    Message('note_on', channel=3, note=67, velocity=84, time=0),
    Message('note_on', channel=3, note=64, velocity=0, time=69),
    Message('note_on', channel=3, note=60, velocity=0, time=0),
    Message('note_on', channel=3, note=67, velocity=0, time=12),
    Message('note_on', channel=3, note=48, velocity=95, time=39),
    Message('note_on', channel=3, note=55, velocity=97, time=0),
    Message('note_on', channel=3, note=55, velocity=0, time=52),
    Message('note_on', channel=3, note=48, velocity=0, time=12),
    Message('note_on', channel=3, note=60, velocity=89, time=56),
    Message('note_on', channel=3, note=64, velocity=97, time=0),
    Message('note_on', channel=3, note=67, velocity=97, time=0),
    Message('note_on', channel=3, note=64, velocity=0, time=164),
    Message('note_on', channel=3, note=60, velocity=0, time=6),
    Message('note_on', channel=3, note=67, velocity=0, time=6),
    Message('control_change', channel=3, control=64, value=0, time=26),
    Message('note_on', channel=3, note=59, velocity=84, time=38),
    Message('note_on', channel=3, note=62, velocity=98, time=0),
    Message('note_on', channel=3, note=67, velocity=98, time=0),
    Message('note_on', channel=3, note=43, velocity=97, time=0),
    Message('control_change', channel=3, control=64, value=127, time=46),
    Message('note_on', channel=3, note=59, velocity=0, time=109),
    Message('note_on', channel=3, note=67, velocity=0, time=2),
    Message('note_on', channel=3, note=62, velocity=0, time=2),
    Message('note_on', channel=3, note=43, velocity=0, time=60),
    Message('note_on', channel=3, note=62, velocity=97, time=21),
    Message('note_on', channel=3, note=59, velocity=81, time=0),
    Message('note_on', channel=3, note=67, velocity=91, time=0),
    Message('note_on', channel=3, note=62, velocity=0, time=86),
    Message('note_on', channel=3, note=59, velocity=0, time=7),
    Message('note_on', channel=3, note=67, velocity=0, time=2),
    Message('note_on', channel=3, note=50, velocity=56, time=25),
    Message('note_on', channel=3, note=43, velocity=80, time=0),
    Message('note_on', channel=3, note=50, velocity=0, time=29),
    Message('note_on', channel=3, note=43, velocity=0, time=25),
    Message('note_on', channel=3, note=67, velocity=85, time=66),
    Message('note_on', channel=3, note=62, velocity=97, time=0),
    Message('note_on', channel=3, note=59, velocity=87, time=0),
    Message('note_on', channel=3, note=62, velocity=0, time=43),
    Message('note_on', channel=3, note=59, velocity=0, time=4),
    Message('note_on', channel=3, note=67, velocity=0, time=4),
    Message('note_on', channel=3, note=59, velocity=84, time=69),
    Message('note_on', channel=3, note=62, velocity=98, time=0),
    Message('note_on', channel=3, note=67, velocity=95, time=0),
    Message('note_on', channel=3, note=59, velocity=0, time=76),
    Message('note_on', channel=3, note=62, velocity=0, time=2),
    Message('note_on', channel=3, note=67, velocity=0, time=9),
    Message('note_on', channel=3, note=43, velocity=97, time=33),
    Message('note_on', channel=3, note=43, velocity=0, time=99),
    Message('note_on', channel=3, note=59, velocity=87, time=21),
    Message('note_on', channel=3, note=62, velocity=95, time=0),
    Message('note_on', channel=3, note=67, velocity=84, time=0),
    Message('note_on', channel=3, note=62, velocity=0, time=43),
    Message('note_on', channel=3, note=59, velocity=0, time=1),
    Message('note_on', channel=3, note=67, velocity=0, time=7),
    Message('note_on', channel=3, note=62, velocity=101, time=69),
    Message('note_on', channel=3, note=67, velocity=97, time=0),
    Message('note_on', channel=3, note=59, velocity=84, time=0),
    Message('note_on', channel=3, note=62, velocity=0, time=42),
    Message('note_on', channel=3, note=59, velocity=0, time=3),
    Message('note_on', channel=3, note=67, velocity=0, time=11),
    Message('note_on', channel=3, note=59, velocity=68, time=64),
    Message('note_on', channel=3, note=62, velocity=85, time=0),
    Message('note_on', channel=3, note=67, velocity=80, time=0),
    Message('note_on', channel=3, note=62, velocity=0, time=33),
    Message('note_on', channel=3, note=59, velocity=0, time=4),
    Message('note_on', channel=3, note=67, velocity=0, time=8),
    Message('note_on', channel=3, note=43, velocity=85, time=15),
    Message('note_on', channel=3, note=50, velocity=95, time=0),
    Message('note_on', channel=3, note=43, velocity=0, time=37),
    Message('note_on', channel=3, note=50, velocity=0, time=3),
    Message('note_on', channel=3, note=59, velocity=85, time=20),
    Message('note_on', channel=3, note=62, velocity=102, time=0),
    Message('note_on', channel=3, note=67, velocity=91, time=0),
    Message('note_on', channel=3, note=62, velocity=0, time=71),
    Message('note_on', channel=3, note=59, velocity=0, time=0),
    Message('note_on', channel=3, note=67, velocity=0, time=6),
    Message('note_on', channel=3, note=50, velocity=98, time=43),
    Message('note_on', channel=3, note=43, velocity=97, time=0),
    Message('note_on', channel=3, note=50, velocity=0, time=45),
    Message('note_on', channel=3, note=43, velocity=0, time=13),
    Message('note_on', channel=3, note=62, velocity=98, time=62),
    Message('note_on', channel=3, note=67, velocity=89, time=0),
    Message('note_on', channel=3, note=59, velocity=81, time=0),
    Message('note_on', channel=3, note=62, velocity=0, time=64),
    Message('note_on', channel=3, note=59, velocity=0, time=3),
    Message('note_on', channel=3, note=67, velocity=0, time=1),
    Message('note_on', channel=3, note=43, velocity=80, time=52),
    Message('note_on', channel=3, note=50, velocity=92, time=0),
    Message('note_on', channel=3, note=43, velocity=0, time=38),
    Message('note_on', channel=3, note=50, velocity=0, time=15),
    Message('note_on', channel=3, note=59, velocity=85, time=67),
    Message('note_on', channel=3, note=67, velocity=89, time=0),
    Message('note_on', channel=3, note=62, velocity=101, time=0),
    Message('note_on', channel=3, note=59, velocity=0, time=73),
    Message('note_on', channel=3, note=62, velocity=0, time=1),
    Message('note_on', channel=3, note=67, velocity=0, time=1),
    Message('control_change', channel=3, control=64, value=0, time=27),
    Message('note_on', channel=3, note=67, velocity=92, time=138),
    Message('note_on', channel=3, note=62, velocity=101, time=0),
    Message('note_on', channel=3, note=59, velocity=89, time=0),
    Message('note_on', channel=3, note=43, velocity=91, time=0),
    Message('note_on', channel=3, note=50, velocity=97, time=0),
    Message('control_change', channel=3, control=64, value=127, time=6),
    Message('note_on', channel=3, note=67, velocity=0, time=129),
    Message('note_on', channel=3, note=62, velocity=0, time=7),
    Message('note_on', channel=3, note=59, velocity=0, time=1),
    Message('note_on', channel=3, note=50, velocity=0, time=95),
    Message('note_on', channel=3, note=62, velocity=98, time=2),
    Message('note_on', channel=3, note=59, velocity=84, time=0),
    Message('note_on', channel=3, note=67, velocity=95, time=0),
    Message('note_on', channel=3, note=43, velocity=0, time=1),
    Message('note_on', channel=3, note=62, velocity=0, time=70),
    Message('note_on', channel=3, note=59, velocity=0, time=8),
    Message('note_on', channel=3, note=67, velocity=0, time=5),
    Message('note_on', channel=3, note=43, velocity=95, time=36),
    Message('note_on', channel=3, note=50, velocity=97, time=0),
    Message('note_on', channel=3, note=50, velocity=0, time=53),
    Message('note_on', channel=3, note=43, velocity=0, time=6),
    Message('note_on', channel=3, note=67, velocity=85, time=61),
    Message('note_on', channel=3, note=59, velocity=81, time=0),
    Message('note_on', channel=3, note=62, velocity=98, time=0),
    Message('note_on', channel=3, note=62, velocity=0, time=42),
    Message('note_on', channel=3, note=67, velocity=0, time=1),
    Message('note_on', channel=3, note=59, velocity=0, time=1),
    Message('note_on', channel=3, note=67, velocity=92, time=76),
    Message('note_on', channel=3, note=62, velocity=101, time=0),
    Message('note_on', channel=3, note=59, velocity=84, time=0),
    Message('note_on', channel=3, note=59, velocity=0, time=56),
    Message('note_on', channel=3, note=62, velocity=0, time=1),
    Message('note_on', channel=3, note=67, velocity=0, time=5),
    Message('note_on', channel=3, note=50, velocity=97, time=58),
    Message('note_on', channel=3, note=43, velocity=98, time=0),
    Message('note_on', channel=3, note=50, velocity=0, time=54),
    Message('note_on', channel=3, note=43, velocity=0, time=12),
    Message('note_on', channel=3, note=67, velocity=84, time=54),
    Message('note_on', channel=3, note=59, velocity=81, time=0),
    Message('note_on', channel=3, note=62, velocity=101, time=0),
    Message('note_on', channel=3, note=67, velocity=0, time=39),
    Message('note_on', channel=3, note=62, velocity=0, time=1),
    Message('note_on', channel=3, note=59, velocity=0, time=3),
    Message('note_on', channel=3, note=62, velocity=105, time=77),
    Message('note_on', channel=3, note=59, velocity=92, time=0),
    Message('note_on', channel=3, note=67, velocity=95, time=0),
    Message('note_on', channel=3, note=59, velocity=0, time=43),
    Message('note_on', channel=3, note=62, velocity=0, time=1),
    Message('note_on', channel=3, note=67, velocity=0, time=18),
    Message('note_on', channel=3, note=59, velocity=68, time=58),
    Message('note_on', channel=3, note=62, velocity=84, time=0),
    Message('note_on', channel=3, note=67, velocity=78, time=0),
    Message('note_on', channel=3, note=62, velocity=0, time=36),
    Message('note_on', channel=3, note=59, velocity=0, time=1),
    Message('note_on', channel=3, note=67, velocity=0, time=8),
    Message('note_on', channel=3, note=43, velocity=85, time=15),
    Message('note_on', channel=3, note=50, velocity=91, time=0),
    Message('note_on', channel=3, note=43, velocity=0, time=37),
    Message('note_on', channel=3, note=50, velocity=0, time=4),
    Message('note_on', channel=3, note=59, velocity=81, time=19),
    Message('note_on', channel=3, note=67, velocity=92, time=0),
    Message('note_on', channel=3, note=62, velocity=101, time=0),
    Message('note_on', channel=3, note=62, velocity=0, time=58),
    Message('note_on', channel=3, note=59, velocity=0, time=1),
    Message('note_on', channel=3, note=67, velocity=0, time=7),
    Message('note_on', channel=3, note=50, velocity=101, time=54),
    Message('note_on', channel=3, note=43, velocity=98, time=0),
    Message('note_on', channel=3, note=50, velocity=0, time=51),
    Message('note_on', channel=3, note=43, velocity=0, time=8),
    Message('note_on', channel=3, note=59, velocity=92, time=61),
    Message('note_on', channel=3, note=62, velocity=102, time=0),
    Message('note_on', channel=3, note=67, velocity=95, time=0),
    Message('note_on', channel=3, note=59, velocity=0, time=54),
    Message('note_on', channel=3, note=62, velocity=0, time=2),
    Message('note_on', channel=3, note=67, velocity=0, time=14),
    Message('note_on', channel=3, note=50, velocity=92, time=50),
    Message('note_on', channel=3, note=43, velocity=95, time=0),
    Message('note_on', channel=3, note=50, velocity=0, time=58),
    Message('note_on', channel=3, note=43, velocity=0, time=7),
    Message('note_on', channel=3, note=62, velocity=102, time=55),
    Message('note_on', channel=3, note=67, velocity=89, time=0),
    Message('note_on', channel=3, note=59, velocity=95, time=0),
    Message('note_on', channel=3, note=62, velocity=0, time=51),
    Message('note_on', channel=3, note=59, velocity=0, time=2),
    Message('note_on', channel=3, note=67, velocity=0, time=4),
    Message('control_change', channel=3, control=64, value=0, time=96),
    Message('note_on', channel=3, note=59, velocity=92, time=87),
    Message('note_on', channel=3, note=67, velocity=97, time=0),
    Message('note_on', channel=3, note=62, velocity=102, time=0),
    Message('note_on', channel=3, note=50, velocity=108, time=0),
    Message('note_on', channel=3, note=43, velocity=102, time=0),
    Message('control_change', channel=3, control=64, value=127, time=68),
    Message('note_on', channel=3, note=67, velocity=0, time=96),
    Message('note_on', channel=3, note=59, velocity=0, time=1),
    Message('note_on', channel=3, note=62, velocity=0, time=5),
    Message('note_on', channel=3, note=62, velocity=95, time=70),
    Message('note_on', channel=3, note=67, velocity=87, time=0),
    Message('note_on', channel=3, note=59, velocity=85, time=0),
    Message('note_on', channel=3, note=50, velocity=0, time=7),
    Message('note_on', channel=3, note=43, velocity=0, time=5),
    Message('note_on', channel=3, note=62, velocity=0, time=61),
    Message('note_on', channel=3, note=67, velocity=0, time=10),
    Message('note_on', channel=3, note=59, velocity=0, time=1),
    Message('note_on', channel=3, note=43, velocity=85, time=36),
    Message('note_on', channel=3, note=50, velocity=95, time=0),
    Message('note_on', channel=3, note=43, velocity=0, time=32),
    Message('note_on', channel=3, note=50, velocity=0, time=16),
    Message('note_on', channel=3, note=59, velocity=69, time=72),
    Message('note_on', channel=3, note=62, velocity=91, time=0),
    Message('note_on', channel=3, note=67, velocity=87, time=0),
    Message('note_on', channel=3, note=62, velocity=0, time=35),
    Message('note_on', channel=3, note=59, velocity=0, time=5),
    Message('note_on', channel=3, note=67, velocity=0, time=2),
    Message('note_on', channel=3, note=67, velocity=85, time=78),
    Message('note_on', channel=3, note=59, velocity=89, time=0),
    Message('note_on', channel=3, note=62, velocity=101, time=0),
    Message('note_on', channel=3, note=62, velocity=0, time=53),
    Message('note_on', channel=3, note=59, velocity=0, time=0),
    Message('note_on', channel=3, note=67, velocity=0, time=9),
    Message('note_on', channel=3, note=43, velocity=97, time=58),
    Message('note_on', channel=3, note=50, velocity=98, time=0),
    Message('note_on', channel=3, note=43, velocity=0, time=38),
    Message('note_on', channel=3, note=50, velocity=0, time=2),
    Message('note_on', channel=3, note=59, velocity=80, time=80),
    Message('note_on', channel=3, note=67, velocity=81, time=0),
    Message('note_on', channel=3, note=62, velocity=98, time=0),
    Message('note_on', channel=3, note=59, velocity=0, time=42),
    Message('note_on', channel=3, note=62, velocity=0, time=1),
    Message('note_on', channel=3, note=67, velocity=0, time=6),
    Message('note_on', channel=3, note=59, velocity=85, time=71),
    Message('note_on', channel=3, note=62, velocity=97, time=0),
    Message('note_on', channel=3, note=50, velocity=85, time=0),
    Message('note_on', channel=3, note=67, velocity=84, time=0),
    Message('note_on', channel=3, note=43, velocity=85, time=0),
    Message('note_on', channel=3, note=62, velocity=0, time=40),
    Message('note_on', channel=3, note=59, velocity=0, time=2),
    Message('note_on', channel=3, note=43, velocity=0, time=0),
    Message('note_on', channel=3, note=50, velocity=0, time=0),
    Message('note_on', channel=3, note=67, velocity=0, time=11),
    Message('note_on', channel=3, note=59, velocity=66, time=67),
    Message('note_on', channel=3, note=62, velocity=84, time=0),
    Message('note_on', channel=3, note=67, velocity=71, time=0),
    Message('note_on', channel=3, note=62, velocity=0, time=30),
    Message('note_on', channel=3, note=59, velocity=0, time=5),
    Message('note_on', channel=3, note=67, velocity=0, time=3),
    Message('note_on', channel=3, note=50, velocity=81, time=22),
    Message('note_on', channel=3, note=43, velocity=84, time=0),
    Message('note_on', channel=3, note=50, velocity=0, time=32),
    Message('note_on', channel=3, note=43, velocity=0, time=1),
    Message('note_on', channel=3, note=59, velocity=85, time=27),
    Message('note_on', channel=3, note=67, velocity=91, time=0),
    Message('note_on', channel=3, note=62, velocity=98, time=0),
    Message('note_on', channel=3, note=62, velocity=0, time=43),
    Message('note_on', channel=3, note=59, velocity=0, time=2),
    Message('note_on', channel=3, note=67, velocity=0, time=14),
    Message('note_on', channel=3, note=50, velocity=101, time=61),
    Message('note_on', channel=3, note=43, velocity=95, time=0),
    Message('note_on', channel=3, note=50, velocity=0, time=39),
    Message('note_on', channel=3, note=43, velocity=0, time=3),
    Message('note_on', channel=3, note=59, velocity=78, time=78),
    Message('note_on', channel=3, note=67, velocity=87, time=0),
    Message('note_on', channel=3, note=62, velocity=92, time=0),
    Message('note_on', channel=3, note=62, velocity=0, time=52),
    Message('note_on', channel=3, note=59, velocity=0, time=0),
    Message('note_on', channel=3, note=67, velocity=0, time=6),
    Message('note_on', channel=3, note=43, velocity=85, time=62),
    Message('note_on', channel=3, note=50, velocity=95, time=0),
    Message('note_on', channel=3, note=43, velocity=0, time=28),
    Message('note_on', channel=3, note=50, velocity=0, time=11),
    Message('note_on', channel=3, note=59, velocity=85, time=81),
    Message('note_on', channel=3, note=62, velocity=97, time=0),
    Message('note_on', channel=3, note=67, velocity=85, time=0),
    Message('note_on', channel=3, note=62, velocity=0, time=45),
    Message('note_on', channel=3, note=59, velocity=0, time=0),
    Message('note_on', channel=3, note=67, velocity=0, time=14),
    Message('note_on', channel=3, note=50, velocity=87, time=61),
    Message('note_on', channel=3, note=43, velocity=84, time=0),
    Message('note_on', channel=3, note=43, velocity=0, time=31),
    Message('note_on', channel=3, note=50, velocity=0, time=1),
    Message('control_change', channel=3, control=64, value=0, time=73),
    Message('note_on', channel=3, note=50, velocity=95, time=15),
    Message('note_on', channel=3, note=43, velocity=92, time=0),
    Message('note_on', channel=3, note=59, velocity=84, time=0),
    Message('note_on', channel=3, note=62, velocity=98, time=0),
    Message('note_on', channel=3, note=67, velocity=87, time=0),
    Message('control_change', channel=3, control=64, value=127, time=74),
    Message('note_on', channel=3, note=43, velocity=0, time=68),
    Message('note_on', channel=3, note=50, velocity=0, time=1),
    Message('note_on', channel=3, note=59, velocity=0, time=6),
    Message('note_on', channel=3, note=67, velocity=0, time=5),
    Message('note_on', channel=3, note=62, velocity=0, time=8),
    Message('note_on', channel=3, note=59, velocity=87, time=78),
    Message('note_on', channel=3, note=62, velocity=105, time=0),
    Message('note_on', channel=3, note=67, velocity=101, time=0),
    Message('note_on', channel=3, note=59, velocity=0, time=48),
    Message('note_on', channel=3, note=62, velocity=0, time=5),
    Message('note_on', channel=3, note=67, velocity=0, time=9),
    Message('note_on', channel=3, note=59, velocity=74, time=58),
    Message('note_on', channel=3, note=62, velocity=95, time=0),
    Message('note_on', channel=3, note=67, velocity=92, time=0),
    Message('note_on', channel=3, note=59, velocity=0, time=33),
    Message('note_on', channel=3, note=62, velocity=0, time=7),
    Message('note_on', channel=3, note=67, velocity=0, time=14),
    Message('control_change', channel=3, control=64, value=0, time=47),
    Message('note_on', channel=3, note=62, velocity=80, time=19),
    Message('note_on', channel=3, note=69, velocity=89, time=0),
    Message('note_on', channel=3, note=66, velocity=87, time=0),
    Message('note_on', channel=3, note=57, velocity=89, time=0),
    Message('note_on', channel=3, note=50, velocity=98, time=0),
    Message('control_change', channel=3, control=64, value=127, time=71),
    Message('note_on', channel=3, note=57, velocity=0, time=31),
    Message('note_on', channel=3, note=57, velocity=97, time=18),
    Message('note_on', channel=3, note=62, velocity=0, time=26),
    Message('note_on', channel=3, note=69, velocity=0, time=5),
    Message('note_on', channel=3, note=66, velocity=0, time=4),
    Message('note_on', channel=3, note=57, velocity=0, time=14),
    Message('note_on', channel=3, note=50, velocity=0, time=42),
    Message('note_on', channel=3, note=62, velocity=87, time=29),
    Message('note_on', channel=3, note=69, velocity=97, time=0),
    Message('note_on', channel=3, note=66, velocity=92, time=0),
    Message('note_on', channel=3, note=66, velocity=0, time=39),
    Message('note_on', channel=3, note=62, velocity=0, time=3),
    Message('note_on', channel=3, note=69, velocity=0, time=10),
    Message('note_on', channel=3, note=60, velocity=97, time=68),
    Message('note_on', channel=3, note=64, velocity=101, time=0),
    Message('note_on', channel=3, note=67, velocity=98, time=0),
    Message('control_change', channel=3, control=64, value=0, time=19),
    Message('control_change', channel=3, control=64, value=127, time=91),
    Message('note_on', channel=3, note=55, velocity=92, time=10),
    Message('note_on', channel=3, note=48, velocity=97, time=0),
    Message('note_on', channel=3, note=60, velocity=0, time=48),
    Message('note_on', channel=3, note=64, velocity=0, time=6),
    Message('note_on', channel=3, note=67, velocity=0, time=2),
    Message('note_on', channel=3, note=55, velocity=0, time=24),
    Message('note_on', channel=3, note=48, velocity=0, time=8),
    Message('note_on', channel=3, note=67, velocity=85, time=32),
    Message('note_on', channel=3, note=64, velocity=92, time=0),
    Message('note_on', channel=3, note=60, velocity=80, time=0),
    Message('note_on', channel=3, note=64, velocity=0, time=57),
    Message('note_on', channel=3, note=60, velocity=0, time=1),
    Message('note_on', channel=3, note=67, velocity=0, time=8),
    Message('note_on', channel=3, note=48, velocity=101, time=54),
    Message('note_on', channel=3, note=55, velocity=101, time=0),
    Message('note_on', channel=3, note=55, velocity=0, time=47),
    Message('note_on', channel=3, note=48, velocity=0, time=4),
    Message('note_on', channel=3, note=60, velocity=73, time=69),
    Message('note_on', channel=3, note=67, velocity=74, time=0),
    Message('note_on', channel=3, note=64, velocity=81, time=0),
    Message('note_on', channel=3, note=64, velocity=0, time=40),
    Message('note_on', channel=3, note=67, velocity=0, time=0),
    Message('note_on', channel=3, note=60, velocity=0, time=1),
    Message('note_on', channel=3, note=64, velocity=98, time=79),
    Message('note_on', channel=3, note=60, velocity=85, time=0),
    Message('note_on', channel=3, note=67, velocity=84, time=0),
    Message('note_on', channel=3, note=48, velocity=97, time=120),
    Message('note_on', channel=3, note=55, velocity=97, time=0),
    Message('note_on', channel=3, note=60, velocity=0, time=4),
    Message('note_on', channel=3, note=64, velocity=0, time=0),
    Message('note_on', channel=3, note=67, velocity=0, time=5),
    Message('note_on', channel=3, note=55, velocity=0, time=40),
    Message('note_on', channel=3, note=48, velocity=0, time=13),
    Message('note_on', channel=3, note=64, velocity=92, time=58),
    Message('note_on', channel=3, note=60, velocity=84, time=0),
    Message('note_on', channel=3, note=67, velocity=85, time=0),
    Message('note_on', channel=3, note=64, velocity=0, time=98),
    Message('note_on', channel=3, note=60, velocity=0, time=5),
    Message('note_on', channel=3, note=67, velocity=0, time=8),
    Message('note_on', channel=3, note=43, velocity=97, time=9),
    Message('note_on', channel=3, note=50, velocity=97, time=0),
    Message('note_on', channel=3, note=43, velocity=0, time=45),
    Message('note_on', channel=3, note=50, velocity=0, time=3),
    Message('control_change', channel=3, control=64, value=0, time=53),
    Message('note_on', channel=3, note=50, velocity=97, time=19),
    Message('note_on', channel=3, note=43, velocity=95, time=0),
    Message('note_on', channel=3, note=62, velocity=92, time=0),
    Message('note_on', channel=3, note=59, velocity=81, time=0),
    Message('note_on', channel=3, note=67, velocity=85, time=0),
    Message('control_change', channel=3, control=64, value=127, time=86),
    Message('note_on', channel=3, note=59, velocity=0, time=77),
    Message('note_on', channel=3, note=62, velocity=0, time=9),
    Message('note_on', channel=3, note=67, velocity=0, time=3),
    Message('note_on', channel=3, note=43, velocity=0, time=55),
    Message('note_on', channel=3, note=50, velocity=0, time=0),
    Message('note_on', channel=3, note=62, velocity=98, time=10),
    Message('note_on', channel=3, note=59, velocity=81, time=0),
    Message('note_on', channel=3, note=67, velocity=97, time=0),
    Message('note_on', channel=3, note=62, velocity=0, time=49),
    Message('note_on', channel=3, note=59, velocity=0, time=2),
    Message('note_on', channel=3, note=67, velocity=0, time=10),
    Message('note_on', channel=3, note=59, velocity=73, time=59),
    Message('note_on', channel=3, note=67, velocity=80, time=0),
    Message('note_on', channel=3, note=62, velocity=87, time=0),
    Message('note_on', channel=3, note=62, velocity=0, time=34),
    Message('note_on', channel=3, note=59, velocity=0, time=1),
    Message('note_on', channel=3, note=67, velocity=0, time=4),
    Message('note_on', channel=3, note=50, velocity=91, time=21),
    Message('note_on', channel=3, note=43, velocity=87, time=0),
    Message('note_on', channel=3, note=50, velocity=0, time=32),
    Message('note_on', channel=3, note=43, velocity=0, time=2),
    Message('note_on', channel=3, note=62, velocity=97, time=26),
    Message('note_on', channel=3, note=59, velocity=81, time=0),
    Message('note_on', channel=3, note=67, velocity=87, time=0),
    Message('note_on', channel=3, note=62, velocity=0, time=67),
    Message('note_on', channel=3, note=59, velocity=0, time=5),
    Message('note_on', channel=3, note=67, velocity=0, time=6),
    Message('note_on', channel=3, note=50, velocity=101, time=42),
    Message('note_on', channel=3, note=43, velocity=98, time=0),
    Message('note_on', channel=3, note=50, velocity=0, time=48),
    Message('note_on', channel=3, note=43, velocity=0, time=5),
    Message('note_on', channel=3, note=59, velocity=87, time=67),
    Message('note_on', channel=3, note=62, velocity=98, time=0),
    Message('note_on', channel=3, note=67, velocity=91, time=0),
    Message('note_on', channel=3, note=59, velocity=0, time=44),
    Message('note_on', channel=3, note=62, velocity=0, time=1),
    Message('note_on', channel=3, note=67, velocity=0, time=12),
    Message('note_on', channel=3, note=50, velocity=102, time=63),
    Message('note_on', channel=3, note=57, velocity=98, time=0),
    Message('control_change', channel=3, control=64, value=0, time=55),
    Message('control_change', channel=3, control=64, value=127, time=87),
    Message('note_on', channel=3, note=62, velocity=97, time=98),
    Message('note_on', channel=3, note=69, velocity=98, time=0),
    Message('note_on', channel=3, note=66, velocity=98, time=0),
    Message('note_on', channel=3, note=57, velocity=0, time=18),
    Message('note_on', channel=3, note=50, velocity=0, time=7),
    Message('note_on', channel=3, note=69, velocity=0, time=81),
    Message('note_on', channel=3, note=62, velocity=0, time=2),
    Message('note_on', channel=3, note=66, velocity=0, time=2),
    Message('note_on', channel=3, note=50, velocity=95, time=10),
    Message('note_on', channel=3, note=57, velocity=84, time=0),
    Message('note_on', channel=3, note=50, velocity=0, time=49),
    Message('note_on', channel=3, note=57, velocity=0, time=1),
    Message('note_on', channel=3, note=62, velocity=84, time=70),
    Message('note_on', channel=3, note=69, velocity=87, time=0),
    Message('note_on', channel=3, note=66, velocity=84, time=0),
    Message('note_on', channel=3, note=62, velocity=0, time=45),
    Message('note_on', channel=3, note=69, velocity=0, time=3),
    Message('note_on', channel=3, note=66, velocity=0, time=1),
    Message('note_on', channel=3, note=62, velocity=85, time=71),
    Message('note_on', channel=3, note=66, velocity=89, time=0),
    Message('note_on', channel=3, note=69, velocity=95, time=0),
    Message('note_on', channel=3, note=69, velocity=0, time=96),
    Message('note_on', channel=3, note=62, velocity=0, time=18),
    Message('note_on', channel=3, note=66, velocity=0, time=3),
    Message('note_on', channel=3, note=50, velocity=97, time=3),
    Message('note_on', channel=3, note=57, velocity=89, time=0),
    Message('note_on', channel=3, note=57, velocity=0, time=51),
    Message('note_on', channel=3, note=50, velocity=0, time=13),
    Message('note_on', channel=3, note=62, velocity=85, time=56),
    Message('note_on', channel=3, note=66, velocity=92, time=0),
    Message('note_on', channel=3, note=62, velocity=0, time=87),
    Message('note_on', channel=3, note=66, velocity=0, time=8),
    Message('note_on', channel=3, note=55, velocity=98, time=25),
    Message('note_on', channel=3, note=55, velocity=0, time=46),
    Message('control_change', channel=3, control=64, value=0, time=55),
    Message('note_on', channel=3, note=55, velocity=101, time=19),
    Message('note_on', channel=3, note=48, velocity=101, time=0),
    Message('note_on', channel=3, note=64, velocity=95, time=0),
    Message('note_on', channel=3, note=67, velocity=84, time=0),
    Message('note_on', channel=3, note=60, velocity=85, time=0),
    Message('control_change', channel=3, control=64, value=127, time=75),
    Message('note_on', channel=3, note=60, velocity=0, time=32),
    Message('note_on', channel=3, note=64, velocity=0, time=1),
    Message('note_on', channel=3, note=67, velocity=0, time=8),
    Message('note_on', channel=3, note=55, velocity=0, time=118),
    Message('note_on', channel=3, note=48, velocity=0, time=2),
    Message('note_on', channel=3, note=67, velocity=89, time=4),
    Message('note_on', channel=3, note=64, velocity=92, time=0),
    Message('note_on', channel=3, note=60, velocity=85, time=0),
    Message('note_on', channel=3, note=64, velocity=0, time=111),
    Message('note_on', channel=3, note=67, velocity=0, time=0),
    Message('note_on', channel=3, note=60, velocity=0, time=4),
    Message('note_on', channel=3, note=48, velocity=80, time=5),
    Message('note_on', channel=3, note=55, velocity=87, time=0),
    Message('note_on', channel=3, note=48, velocity=0, time=37),
    Message('note_on', channel=3, note=55, velocity=0, time=14),
    Message('note_on', channel=3, note=64, velocity=87, time=69),
    Message('note_on', channel=3, note=60, velocity=84, time=0),
    Message('note_on', channel=3, note=67, velocity=85, time=0),
    Message('note_on', channel=3, note=64, velocity=0, time=43),
    Message('note_on', channel=3, note=60, velocity=0, time=4),
    Message('note_on', channel=3, note=67, velocity=0, time=5),
    Message('note_on', channel=3, note=64, velocity=101, time=68),
    Message('note_on', channel=3, note=67, velocity=95, time=0),
    Message('note_on', channel=3, note=60, velocity=95, time=0),
    Message('note_on', channel=3, note=64, velocity=0, time=76),
    Message('note_on', channel=3, note=67, velocity=0, time=1),
    Message('note_on', channel=3, note=60, velocity=0, time=3),
    Message('note_on', channel=3, note=64, velocity=92, time=160),
    Message('note_on', channel=3, note=60, velocity=91, time=0),
    Message('note_on', channel=3, note=67, velocity=89, time=0),
    Message('note_on', channel=3, note=64, velocity=0, time=39),
    Message('note_on', channel=3, note=60, velocity=0, time=7),
    Message('note_on', channel=3, note=67, velocity=0, time=15),
    Message('control_change', channel=3, control=64, value=0, time=23),
    Message('note_on', channel=3, note=59, velocity=84, time=36),
    Message('note_on', channel=3, note=62, velocity=98, time=0),
    Message('note_on', channel=3, note=67, velocity=89, time=0),
    Message('note_on', channel=3, note=50, velocity=85, time=0),
    Message('note_on', channel=3, note=43, velocity=89, time=0),
    Message('control_change', channel=3, control=64, value=127, time=70),
    Message('note_on', channel=3, note=67, velocity=0, time=89),
    Message('note_on', channel=3, note=59, velocity=0, time=3),
    Message('note_on', channel=3, note=62, velocity=0, time=4),
    Message('note_on', channel=3, note=50, velocity=0, time=68),
    Message('note_on', channel=3, note=43, velocity=0, time=2),
    Message('note_on', channel=3, note=62, velocity=95, time=4),
    Message('note_on', channel=3, note=67, velocity=85, time=0),
    Message('note_on', channel=3, note=59, velocity=87, time=0),
    Message('note_on', channel=3, note=62, velocity=0, time=40),
    Message('note_on', channel=3, note=59, velocity=0, time=7),
    Message('note_on', channel=3, note=67, velocity=0, time=4),
    Message('note_on', channel=3, note=67, velocity=74, time=69),
    Message('note_on', channel=3, note=62, velocity=81, time=0),
    Message('note_on', channel=3, note=59, velocity=68, time=0),
    Message('note_on', channel=3, note=67, velocity=0, time=34),
    Message('note_on', channel=3, note=62, velocity=0, time=4),
    Message('note_on', channel=3, note=59, velocity=0, time=5),
    Message('note_on', channel=3, note=43, velocity=89, time=17),
    Message('note_on', channel=3, note=50, velocity=92, time=0),
    Message('note_on', channel=3, note=43, velocity=0, time=36),
    Message('note_on', channel=3, note=50, velocity=0, time=1),
    Message('note_on', channel=3, note=62, velocity=92, time=23),
    Message('note_on', channel=3, note=59, velocity=81, time=0),
    Message('note_on', channel=3, note=67, velocity=84, time=0),
    Message('note_on', channel=3, note=62, velocity=0, time=78),
    Message('note_on', channel=3, note=59, velocity=0, time=4),
    Message('note_on', channel=3, note=67, velocity=0, time=7),
    Message('note_on', channel=3, note=43, velocity=87, time=31),
    Message('note_on', channel=3, note=50, velocity=97, time=0),
    Message('note_on', channel=3, note=50, velocity=0, time=52),
    Message('note_on', channel=3, note=43, velocity=0, time=1),
    Message('note_on', channel=3, note=59, velocity=89, time=67),
    Message('note_on', channel=3, note=62, velocity=98, time=0),
    Message('note_on', channel=3, note=67, velocity=92, time=0),
    Message('note_on', channel=3, note=62, velocity=0, time=53),
    Message('note_on', channel=3, note=59, velocity=0, time=1),
    Message('note_on', channel=3, note=67, velocity=0, time=2),
    Message('note_on', channel=3, note=43, velocity=85, time=64),
    Message('note_on', channel=3, note=50, velocity=97, time=0),
    Message('note_on', channel=3, note=50, velocity=0, time=42),
    Message('note_on', channel=3, note=43, velocity=0, time=8),
    Message('control_change', channel=3, control=64, value=0, time=51),
    Message('note_on', channel=3, note=64, velocity=95, time=19),
    Message('note_on', channel=3, note=52, velocity=91, time=0),
    Message('note_on', channel=3, note=59, velocity=92, time=0),
    Message('note_on', channel=3, note=55, velocity=89, time=0),
    Message('control_change', channel=3, control=64, value=127, time=24),
    Message('note_on', channel=3, note=64, velocity=0, time=37),
    Message('note_on', channel=3, note=52, velocity=0, time=4),
    Message('note_on', channel=3, note=55, velocity=0, time=0),
    Message('note_on', channel=3, note=59, velocity=0, time=2),
    Message('note_on', channel=3, note=52, velocity=80, time=173),
    Message('note_on', channel=3, note=59, velocity=80, time=0),
    Message('note_on', channel=3, note=55, velocity=87, time=0),
    Message('note_on', channel=3, note=59, velocity=0, time=49),
    Message('note_on', channel=3, note=52, velocity=0, time=0),
    Message('note_on', channel=3, note=55, velocity=0, time=1),
    Message('note_on', channel=3, note=64, velocity=85, time=70),
    Message('note_on', channel=3, note=64, velocity=0, time=58),
    Message('note_on', channel=3, note=59, velocity=95, time=62),
    Message('note_on', channel=3, note=55, velocity=95, time=0),
    Message('note_on', channel=3, note=52, velocity=95, time=0),
    Message('note_on', channel=3, note=59, velocity=0, time=53),
    Message('note_on', channel=3, note=55, velocity=0, time=1),
    Message('note_on', channel=3, note=52, velocity=0, time=2),
    Message('note_on', channel=3, note=64, velocity=95, time=64),
    Message('note_on', channel=3, note=64, velocity=0, time=61),
    Message('note_on', channel=3, note=55, velocity=85, time=59),
    Message('note_on', channel=3, note=59, velocity=89, time=0),
    Message('note_on', channel=3, note=52, velocity=92, time=0),
    Message('note_on', channel=3, note=55, velocity=0, time=54),
    Message('note_on', channel=3, note=59, velocity=0, time=1),
    Message('note_on', channel=3, note=52, velocity=0, time=6),
    Message('note_on', channel=3, note=55, velocity=84, time=59),
    Message('note_on', channel=3, note=52, velocity=81, time=0),
    Message('note_on', channel=3, note=59, velocity=85, time=0),
    Message('note_on', channel=3, note=55, velocity=0, time=44),
    Message('note_on', channel=3, note=52, velocity=0, time=1),
    Message('note_on', channel=3, note=59, velocity=0, time=4),
    Message('control_change', channel=3, control=64, value=0, time=23),
    Message('note_on', channel=3, note=66, velocity=81, time=48),
    Message('note_on', channel=3, note=62, velocity=81, time=0),
    Message('control_change', channel=3, control=64, value=127, time=46),
    Message('note_on', channel=3, note=62, velocity=0, time=26),
    Message('note_on', channel=3, note=66, velocity=0, time=2),
    Message('note_on', channel=3, note=66, velocity=48, time=46),
    Message('note_on', channel=3, note=66, velocity=0, time=18),
    Message('note_on', channel=3, note=62, velocity=71, time=102),
    Message('note_on', channel=3, note=66, velocity=80, time=0),
    Message('note_on', channel=3, note=62, velocity=0, time=40),
    Message('note_on', channel=3, note=66, velocity=0, time=6),
    Message('note_on', channel=3, note=66, velocity=92, time=74),
    Message('note_on', channel=3, note=62, velocity=95, time=0),
    Message('note_on', channel=3, note=62, velocity=0, time=47),
    Message('note_on', channel=3, note=66, velocity=0, time=9),
    Message('note_on', channel=3, note=50, velocity=95, time=64),
    Message('note_on', channel=3, note=57, velocity=87, time=0),
    Message('note_on', channel=3, note=57, velocity=0, time=54),
    Message('note_on', channel=3, note=50, velocity=0, time=16),
    Message('note_on', channel=3, note=66, velocity=81, time=50),
    Message('note_on', channel=3, note=62, velocity=87, time=0),
    Message('note_on', channel=3, note=66, velocity=0, time=68),
    Message('note_on', channel=3, note=62, velocity=0, time=2),
    Message('note_on', channel=3, note=50, velocity=101, time=50),
    Message('note_on', channel=3, note=57, velocity=92, time=0),
    Message('note_on', channel=3, note=57, velocity=0, time=61),
    Message('note_on', channel=3, note=50, velocity=0, time=10),
    Message('note_on', channel=3, note=62, velocity=71, time=49),
    Message('note_on', channel=3, note=66, velocity=68, time=0),
    Message('note_on', channel=3, note=66, velocity=0, time=36),
    Message('control_change', channel=3, control=64, value=0, time=1),
    Message('note_on', channel=3, note=62, velocity=0, time=9),
    Message('note_on', channel=3, note=60, velocity=91, time=74),
    Message('note_on', channel=3, note=64, velocity=95, time=0),
    Message('note_on', channel=3, note=55, velocity=98, time=0),
    Message('note_on', channel=3, note=48, velocity=101, time=0),
    Message('control_change', channel=3, control=64, value=127, time=87),
    Message('note_on', channel=3, note=60, velocity=0, time=21),
    Message('note_on', channel=3, note=64, velocity=0, time=14),
    Message('note_on', channel=3, note=55, velocity=0, time=86),
    Message('note_on', channel=3, note=48, velocity=0, time=2),
    Message('note_on', channel=3, note=60, velocity=78, time=30),
    Message('note_on', channel=3, note=64, velocity=92, time=0),
    Message('note_on', channel=3, note=60, velocity=0, time=95),
    Message('note_on', channel=3, note=64, velocity=0, time=1),
    Message('note_on', channel=3, note=48, velocity=80, time=24),
    Message('note_on', channel=3, note=55, velocity=87, time=0),
    Message('note_on', channel=3, note=48, velocity=0, time=40),
    Message('note_on', channel=3, note=55, velocity=0, time=9),
    Message('note_on', channel=3, note=60, velocity=69, time=71),
    Message('note_on', channel=3, note=64, velocity=84, time=0),
    Message('note_on', channel=3, note=60, velocity=0, time=47),
    Message('note_on', channel=3, note=64, velocity=0, time=2),
    Message('note_on', channel=3, note=60, velocity=89, time=71),
    Message('note_on', channel=3, note=64, velocity=95, time=0),
    Message('note_on', channel=3, note=60, velocity=0, time=53),
    Message('note_on', channel=3, note=64, velocity=0, time=6),
    Message('note_on', channel=3, note=60, velocity=89, time=61),
    Message('note_on', channel=3, note=64, velocity=97, time=0),
    Message('note_on', channel=3, note=64, velocity=0, time=44),
    Message('note_on', channel=3, note=60, velocity=0, time=6),
    Message('note_on', channel=3, note=43, velocity=101, time=70),
    Message('note_on', channel=3, note=50, velocity=105, time=0),
    Message('control_change', channel=3, control=64, value=0, time=36),
    Message('note_on', channel=3, note=55, velocity=80, time=84),
    Message('note_on', channel=3, note=62, velocity=91, time=0),
    Message('note_on', channel=3, note=59, velocity=95, time=0),
    Message('note_on', channel=3, note=50, velocity=0, time=7),
    Message('note_on', channel=3, note=43, velocity=0, time=4),
    Message('control_change', channel=3, control=64, value=127, time=6),
    Message('note_on', channel=3, note=55, velocity=0, time=105),
    Message('note_on', channel=3, note=59, velocity=0, time=3),
    Message('note_on', channel=3, note=62, velocity=0, time=5),
    Message('note_on', channel=3, note=55, velocity=43, time=50),
    Message('note_on', channel=3, note=55, velocity=0, time=19),
    Message('note_on', channel=3, note=43, velocity=98, time=41),
    Message('note_on', channel=3, note=43, velocity=0, time=95),
    Message('note_on', channel=3, note=55, velocity=95, time=25),
    Message('note_on', channel=3, note=62, velocity=98, time=0),
    Message('note_on', channel=3, note=59, velocity=101, time=0),
    Message('note_on', channel=3, note=55, velocity=0, time=57),
    Message('note_on', channel=3, note=59, velocity=0, time=1),
    Message('note_on', channel=3, note=62, velocity=0, time=8),
    Message('note_on', channel=3, note=43, velocity=87, time=54),
    Message('note_on', channel=3, note=43, velocity=0, time=72),
    Message('note_on', channel=3, note=62, velocity=89, time=48),
    Message('note_on', channel=3, note=59, velocity=92, time=0),
    Message('note_on', channel=3, note=55, velocity=89, time=0),
    Message('note_on', channel=3, note=59, velocity=0, time=41),
    Message('note_on', channel=3, note=62, velocity=0, time=1),
    Message('note_on', channel=3, note=55, velocity=0, time=3),
    Message('note_on', channel=3, note=55, velocity=84, time=75),
    Message('note_on', channel=3, note=59, velocity=98, time=0),
    Message('note_on', channel=3, note=62, velocity=98, time=0),
    Message('note_on', channel=3, note=55, velocity=0, time=63),
    Message('note_on', channel=3, note=59, velocity=0, time=33),
    Message('note_on', channel=3, note=62, velocity=0, time=10),
    Message('note_on', channel=3, note=52, velocity=95, time=14),
    Message('note_on', channel=3, note=52, velocity=0, time=45),
    Message('control_change', channel=3, control=64, value=0, time=35),
    Message('note_on', channel=3, note=60, velocity=98, time=40),
    Message('note_on', channel=3, note=57, velocity=89, time=0),
    Message('note_on', channel=3, note=45, velocity=101, time=0),
    Message('note_on', channel=3, note=64, velocity=97, time=0),
    Message('control_change', channel=3, control=64, value=127, time=54),
    Message('note_on', channel=3, note=57, velocity=0, time=45),
    Message('note_on', channel=3, note=60, velocity=0, time=0),
    Message('note_on', channel=3, note=64, velocity=0, time=5),
    Message('note_on', channel=3, note=52, velocity=89, time=76),
    Message('note_on', channel=3, note=60, velocity=81, time=0),
    Message('note_on', channel=3, note=64, velocity=78, time=0),
    Message('note_on', channel=3, note=57, velocity=69, time=0),
    Message('note_on', channel=3, note=45, velocity=0, time=2),
    Message('note_on', channel=3, note=60, velocity=0, time=24),
    Message('note_on', channel=3, note=64, velocity=0, time=4),
    Message('note_on', channel=3, note=57, velocity=0, time=5),
    Message('note_on', channel=3, note=52, velocity=0, time=8),
    Message('note_on', channel=3, note=60, velocity=95, time=137),
    Message('note_on', channel=3, note=57, velocity=89, time=0),
    Message('note_on', channel=3, note=64, velocity=84, time=0),
    Message('note_on', channel=3, note=60, velocity=0, time=68),
    Message('note_on', channel=3, note=57, velocity=0, time=2),
    Message('note_on', channel=3, note=64, velocity=0, time=5),
    Message('note_on', channel=3, note=45, velocity=97, time=45),
    Message('note_on', channel=3, note=45, velocity=0, time=81),
    Message('note_on', channel=3, note=60, velocity=95, time=39),
    Message('note_on', channel=3, note=64, velocity=87, time=0),
    Message('note_on', channel=3, note=57, velocity=84, time=0),
    Message('note_on', channel=3, note=60, velocity=0, time=40),
    Message('note_on', channel=3, note=57, velocity=0, time=8),
    Message('note_on', channel=3, note=64, velocity=0, time=0),
    Message('note_on', channel=3, note=60, velocity=98, time=72),
    Message('note_on', channel=3, note=64, velocity=97, time=0),
    Message('note_on', channel=3, note=57, velocity=87, time=0),
    Message('note_on', channel=3, note=57, velocity=0, time=51),
    Message('note_on', channel=3, note=60, velocity=0, time=5),
    Message('note_on', channel=3, note=64, velocity=0, time=20),
    Message('note_on', channel=3, note=55, velocity=95, time=44),
    Message('note_on', channel=3, note=55, velocity=0, time=40),
    Message('control_change', channel=3, control=64, value=0, time=51),
    Message('note_on', channel=3, note=55, velocity=95, time=29),
    Message('note_on', channel=3, note=64, velocity=87, time=0),
    Message('note_on', channel=3, note=60, velocity=85, time=0),
    Message('note_on', channel=3, note=67, velocity=85, time=0),
    Message('note_on', channel=3, note=48, velocity=97, time=0),
    Message('note_on', channel=3, note=64, velocity=0, time=43),
    Message('note_on', channel=3, note=60, velocity=0, time=5),
    Message('control_change', channel=3, control=64, value=127, time=8),
    Message('note_on', channel=3, note=67, velocity=0, time=2),
    Message('note_on', channel=3, note=55, velocity=0, time=32),
    Message('note_on', channel=3, note=48, velocity=0, time=6),
    Message('note_on', channel=3, note=67, velocity=69, time=24),
    Message('note_on', channel=3, note=60, velocity=65, time=0),
    Message('note_on', channel=3, note=64, velocity=84, time=0),
    Message('note_on', channel=3, note=64, velocity=0, time=31),
    Message('note_on', channel=3, note=67, velocity=0, time=1),
    Message('note_on', channel=3, note=60, velocity=0, time=3),
    Message('note_on', channel=3, note=48, velocity=91, time=25),
    Message('note_on', channel=3, note=55, velocity=97, time=0),
    Message('note_on', channel=3, note=48, velocity=0, time=28),
    Message('note_on', channel=3, note=55, velocity=0, time=13),
    Message('note_on', channel=3, note=64, velocity=89, time=19),
    Message('note_on', channel=3, note=67, velocity=84, time=0),
    Message('note_on', channel=3, note=60, velocity=85, time=0),
    Message('note_on', channel=3, note=64, velocity=0, time=46),
    Message('note_on', channel=3, note=60, velocity=0, time=6),
    Message('note_on', channel=3, note=67, velocity=0, time=13),
    Message('note_on', channel=3, note=55, velocity=101, time=55),
    Message('note_on', channel=3, note=48, velocity=98, time=0),
    Message('note_on', channel=3, note=55, velocity=0, time=42),
    Message('note_on', channel=3, note=48, velocity=0, time=2),
    Message('note_on', channel=3, note=60, velocity=80, time=76),
    Message('note_on', channel=3, note=67, velocity=84, time=0),
    Message('note_on', channel=3, note=64, velocity=92, time=0),
    Message('note_on', channel=3, note=60, velocity=0, time=55),
    Message('note_on', channel=3, note=64, velocity=0, time=2),
    Message('note_on', channel=3, note=67, velocity=0, time=5),
    Message('note_on', channel=3, note=55, velocity=91, time=58),
    Message('note_on', channel=3, note=48, velocity=92, time=0),
    Message('note_on', channel=3, note=48, velocity=0, time=44),
    Message('note_on', channel=3, note=55, velocity=0, time=3),
    Message('note_on', channel=3, note=60, velocity=80, time=73),
    Message('note_on', channel=3, note=67, velocity=84, time=0),
    Message('note_on', channel=3, note=64, velocity=95, time=0),
    Message('note_on', channel=3, note=67, velocity=0, time=36),
    Message('note_on', channel=3, note=64, velocity=0, time=2),
    Message('note_on', channel=3, note=60, velocity=0, time=10),
    Message('control_change', channel=3, control=64, value=0, time=166),
    Message('note_on', channel=3, note=43, velocity=95, time=26),
    Message('note_on', channel=3, note=62, velocity=87, time=0),
    Message('note_on', channel=3, note=59, velocity=84, time=0),
    Message('note_on', channel=3, note=55, velocity=80, time=0),
    Message('note_on', channel=3, note=55, velocity=0, time=84),
    Message('note_on', channel=3, note=59, velocity=0, time=0),
    Message('note_on', channel=3, note=62, velocity=0, time=4),
    Message('control_change', channel=3, control=64, value=127, time=3),
    Message('note_on', channel=3, note=43, velocity=0, time=23),
    Message('note_on', channel=3, note=55, velocity=68, time=6),
    Message('note_on', channel=3, note=62, velocity=78, time=0),
    Message('note_on', channel=3, note=59, velocity=85, time=0),
    Message('note_on', channel=3, note=55, velocity=0, time=42),
    Message('note_on', channel=3, note=62, velocity=0, time=2),
    Message('note_on', channel=3, note=59, velocity=0, time=4),
    Message('note_on', channel=3, note=43, velocity=89, time=12),
    Message('note_on', channel=3, note=43, velocity=0, time=50),
    Message('note_on', channel=3, note=62, velocity=89, time=10),
    Message('note_on', channel=3, note=55, velocity=87, time=0),
    Message('note_on', channel=3, note=59, velocity=92, time=0),
    Message('note_on', channel=3, note=59, velocity=0, time=53),
    Message('note_on', channel=3, note=62, velocity=0, time=1),
    Message('note_on', channel=3, note=55, velocity=0, time=1),
    Message('note_on', channel=3, note=43, velocity=98, time=65),
    Message('note_on', channel=3, note=43, velocity=0, time=65),
    Message('note_on', channel=3, note=62, velocity=78, time=55),
    Message('note_on', channel=3, note=55, velocity=69, time=0),
    Message('note_on', channel=3, note=59, velocity=80, time=0),
    Message('note_on', channel=3, note=62, velocity=0, time=34),
    Message('note_on', channel=3, note=59, velocity=0, time=8),
    Message('note_on', channel=3, note=55, velocity=0, time=4),
    Message('note_on', channel=3, note=62, velocity=87, time=74),
    Message('note_on', channel=3, note=55, velocity=84, time=0),
    Message('note_on', channel=3, note=59, velocity=89, time=0),
    Message('note_on', channel=3, note=62, velocity=0, time=42),
    Message('note_on', channel=3, note=59, velocity=0, time=4),
    Message('note_on', channel=3, note=55, velocity=0, time=0),
    Message('note_on', channel=3, note=43, velocity=84, time=74),
    Message('note_on', channel=3, note=43, velocity=0, time=68),
    Message('note_on', channel=3, note=62, velocity=85, time=52),
    Message('note_on', channel=3, note=59, velocity=85, time=0),
    Message('note_on', channel=3, note=55, velocity=76, time=0),
    Message('note_on', channel=3, note=59, velocity=0, time=39),
    Message('note_on', channel=3, note=62, velocity=0, time=1),
    Message('note_on', channel=3, note=55, velocity=0, time=4),
    Message('note_on', channel=3, note=43, velocity=92, time=76),
    Message('note_on', channel=3, note=62, velocity=92, time=0),
    Message('note_on', channel=3, note=59, velocity=97, time=0),
    Message('note_on', channel=3, note=55, velocity=91, time=0),
    Message('control_change', channel=3, control=64, value=0, time=18),
    Message('note_on', channel=3, note=59, velocity=0, time=37),
    Message('note_on', channel=3, note=55, velocity=0, time=3),
    Message('note_on', channel=3, note=62, velocity=0, time=1),
    Message('control_change', channel=3, control=64, value=127, time=28),
    Message('note_on', channel=3, note=43, velocity=0, time=18),
    Message('note_on', channel=3, note=62, velocity=85, time=15),
    Message('note_on', channel=3, note=55, velocity=78, time=0),
    Message('note_on', channel=3, note=59, velocity=81, time=0),
    Message('note_on', channel=3, note=59, velocity=0, time=40),
    Message('note_on', channel=3, note=62, velocity=0, time=1),
    Message('note_on', channel=3, note=55, velocity=0, time=2),
    Message('note_on', channel=3, note=43, velocity=89, time=17),
    Message('note_on', channel=3, note=43, velocity=0, time=46),
    Message('note_on', channel=3, note=55, velocity=85, time=14),
    Message('note_on', channel=3, note=59, velocity=87, time=0),
    Message('note_on', channel=3, note=62, velocity=87, time=0),
    Message('note_on', channel=3, note=59, velocity=0, time=33),
    Message('note_on', channel=3, note=55, velocity=0, time=4),
    Message('note_on', channel=3, note=62, velocity=0, time=9),
    Message('note_on', channel=3, note=43, velocity=97, time=74),
    Message('note_on', channel=3, note=43, velocity=0, time=70),
    Message('note_on', channel=3, note=59, velocity=89, time=50),
    Message('note_on', channel=3, note=55, velocity=85, time=0),
    Message('note_on', channel=3, note=62, velocity=87, time=0),
    Message('note_on', channel=3, note=59, velocity=0, time=48),
    Message('note_on', channel=3, note=55, velocity=0, time=5),
    Message('note_on', channel=3, note=62, velocity=0, time=6),
    Message('note_on', channel=3, note=43, velocity=97, time=61),
    Message('note_on', channel=3, note=43, velocity=0, time=70),
    Message('note_on', channel=3, note=59, velocity=95, time=50),
    Message('note_on', channel=3, note=55, velocity=89, time=0),
    Message('note_on', channel=3, note=62, velocity=97, time=0),
    Message('note_on', channel=3, note=59, velocity=0, time=37),
    Message('note_on', channel=3, note=55, velocity=0, time=8),
    Message('note_on', channel=3, note=62, velocity=0, time=3),
    Message('control_change', channel=3, control=64, value=0, time=125),
    Message('note_on', channel=3, note=59, velocity=92, time=67),
    Message('note_on', channel=3, note=67, velocity=97, time=0),
    Message('note_on', channel=3, note=62, velocity=102, time=0),
    Message('note_on', channel=3, note=50, velocity=108, time=0),
    Message('note_on', channel=3, note=43, velocity=102, time=0),
    Message('control_change', channel=3, control=64, value=127, time=68),
    Message('note_on', channel=3, note=67, velocity=0, time=96),
    Message('note_on', channel=3, note=59, velocity=0, time=1),
    Message('note_on', channel=3, note=62, velocity=0, time=5),
    Message('note_on', channel=3, note=62, velocity=95, time=70),
    Message('note_on', channel=3, note=67, velocity=87, time=0),
    Message('note_on', channel=3, note=59, velocity=85, time=0),
    Message('note_on', channel=3, note=50, velocity=0, time=7),
    Message('note_on', channel=3, note=43, velocity=0, time=5),
    Message('note_on', channel=3, note=62, velocity=0, time=61),
    Message('note_on', channel=3, note=67, velocity=0, time=10),
    Message('note_on', channel=3, note=59, velocity=0, time=1),
    Message('note_on', channel=3, note=43, velocity=85, time=36),
    Message('note_on', channel=3, note=50, velocity=95, time=0),
    Message('note_on', channel=3, note=43, velocity=0, time=32),
    Message('note_on', channel=3, note=50, velocity=0, time=16),
    Message('note_on', channel=3, note=59, velocity=69, time=72),
    Message('note_on', channel=3, note=62, velocity=91, time=0),
    Message('note_on', channel=3, note=67, velocity=87, time=0),
    Message('note_on', channel=3, note=62, velocity=0, time=35),
    Message('note_on', channel=3, note=59, velocity=0, time=5),
    Message('note_on', channel=3, note=67, velocity=0, time=2),
    Message('note_on', channel=3, note=67, velocity=85, time=78),
    Message('note_on', channel=3, note=59, velocity=89, time=0),
    Message('note_on', channel=3, note=62, velocity=101, time=0),
    Message('note_on', channel=3, note=62, velocity=0, time=53),
    Message('note_on', channel=3, note=59, velocity=0, time=0),
    Message('note_on', channel=3, note=67, velocity=0, time=9),
    Message('note_on', channel=3, note=43, velocity=97, time=58),
    Message('note_on', channel=3, note=50, velocity=98, time=0),
    Message('note_on', channel=3, note=43, velocity=0, time=38),
    Message('note_on', channel=3, note=50, velocity=0, time=2),
    Message('note_on', channel=3, note=59, velocity=80, time=80),
    Message('note_on', channel=3, note=67, velocity=81, time=0),
    Message('note_on', channel=3, note=62, velocity=98, time=0),
    Message('note_on', channel=3, note=59, velocity=0, time=42),
    Message('note_on', channel=3, note=62, velocity=0, time=1),
    Message('note_on', channel=3, note=67, velocity=0, time=6),
    Message('note_on', channel=3, note=59, velocity=85, time=71),
    Message('note_on', channel=3, note=62, velocity=97, time=0),
    Message('note_on', channel=3, note=50, velocity=85, time=0),
    Message('note_on', channel=3, note=67, velocity=84, time=0),
    Message('note_on', channel=3, note=43, velocity=85, time=0),
    Message('note_on', channel=3, note=62, velocity=0, time=40),
    Message('note_on', channel=3, note=59, velocity=0, time=2),
    Message('note_on', channel=3, note=43, velocity=0, time=0),
    Message('note_on', channel=3, note=50, velocity=0, time=0),
    Message('note_on', channel=3, note=67, velocity=0, time=11),
    Message('note_on', channel=3, note=59, velocity=66, time=67),
    Message('note_on', channel=3, note=62, velocity=84, time=0),
    Message('note_on', channel=3, note=67, velocity=71, time=0),
    Message('note_on', channel=3, note=62, velocity=0, time=30),
    Message('note_on', channel=3, note=59, velocity=0, time=5),
    Message('note_on', channel=3, note=67, velocity=0, time=3),
    Message('note_on', channel=3, note=50, velocity=81, time=22),
    Message('note_on', channel=3, note=43, velocity=84, time=0),
    Message('note_on', channel=3, note=50, velocity=0, time=32),
    Message('note_on', channel=3, note=43, velocity=0, time=1),
    Message('note_on', channel=3, note=59, velocity=85, time=27),
    Message('note_on', channel=3, note=67, velocity=91, time=0),
    Message('note_on', channel=3, note=62, velocity=98, time=0),
    Message('note_on', channel=3, note=62, velocity=0, time=43),
    Message('note_on', channel=3, note=59, velocity=0, time=2),
    Message('note_on', channel=3, note=67, velocity=0, time=14),
    Message('note_on', channel=3, note=50, velocity=101, time=61),
    Message('note_on', channel=3, note=43, velocity=95, time=0),
    Message('note_on', channel=3, note=50, velocity=0, time=39),
    Message('note_on', channel=3, note=43, velocity=0, time=3),
    Message('note_on', channel=3, note=59, velocity=78, time=78),
    Message('note_on', channel=3, note=67, velocity=87, time=0),
    Message('note_on', channel=3, note=62, velocity=92, time=0),
    Message('note_on', channel=3, note=62, velocity=0, time=52),
    Message('note_on', channel=3, note=59, velocity=0, time=0),
    Message('note_on', channel=3, note=67, velocity=0, time=6),
    Message('note_on', channel=3, note=43, velocity=85, time=62),
    Message('note_on', channel=3, note=50, velocity=95, time=0),
    Message('note_on', channel=3, note=43, velocity=0, time=28),
    Message('note_on', channel=3, note=50, velocity=0, time=11),
    Message('note_on', channel=3, note=59, velocity=85, time=81),
    Message('note_on', channel=3, note=62, velocity=97, time=0),
    Message('note_on', channel=3, note=67, velocity=85, time=0),
    Message('note_on', channel=3, note=62, velocity=0, time=45),
    Message('note_on', channel=3, note=59, velocity=0, time=0),
    Message('note_on', channel=3, note=67, velocity=0, time=14),
    Message('note_on', channel=3, note=50, velocity=87, time=61),
    Message('note_on', channel=3, note=43, velocity=84, time=0),
    Message('note_on', channel=3, note=43, velocity=0, time=31),
    Message('note_on', channel=3, note=50, velocity=0, time=1),
    Message('control_change', channel=3, control=64, value=0, time=73),
    Message('note_on', channel=3, note=50, velocity=95, time=15),
    Message('note_on', channel=3, note=43, velocity=92, time=0),
    Message('note_on', channel=3, note=59, velocity=84, time=0),
    Message('note_on', channel=3, note=62, velocity=98, time=0),
    Message('note_on', channel=3, note=67, velocity=87, time=0),
    Message('control_change', channel=3, control=64, value=127, time=74),
    Message('note_on', channel=3, note=43, velocity=0, time=68),
    Message('note_on', channel=3, note=50, velocity=0, time=1),
    Message('note_on', channel=3, note=59, velocity=0, time=6),
    Message('note_on', channel=3, note=67, velocity=0, time=5),
    Message('note_on', channel=3, note=62, velocity=0, time=8),
    Message('note_on', channel=3, note=59, velocity=87, time=78),
    Message('note_on', channel=3, note=62, velocity=105, time=0),
    Message('note_on', channel=3, note=67, velocity=101, time=0),
    Message('note_on', channel=3, note=59, velocity=0, time=48),
    Message('note_on', channel=3, note=62, velocity=0, time=5),
    Message('note_on', channel=3, note=67, velocity=0, time=9),
    Message('note_on', channel=3, note=59, velocity=74, time=58),
    Message('note_on', channel=3, note=62, velocity=95, time=0),
    Message('note_on', channel=3, note=67, velocity=92, time=0),
    Message('note_on', channel=3, note=59, velocity=0, time=33),
    Message('note_on', channel=3, note=62, velocity=0, time=7),
    Message('note_on', channel=3, note=67, velocity=0, time=14),
    Message('control_change', channel=3, control=64, value=0, time=47),
    Message('note_on', channel=3, note=62, velocity=80, time=19),
    Message('note_on', channel=3, note=69, velocity=89, time=0),
    Message('note_on', channel=3, note=66, velocity=87, time=0),
    Message('note_on', channel=3, note=57, velocity=89, time=0),
    Message('note_on', channel=3, note=50, velocity=98, time=0),
    Message('control_change', channel=3, control=64, value=127, time=71),
    Message('note_on', channel=3, note=57, velocity=0, time=31),
    Message('note_on', channel=3, note=57, velocity=97, time=18),
    Message('note_on', channel=3, note=62, velocity=0, time=26),
    Message('note_on', channel=3, note=69, velocity=0, time=5),
    Message('note_on', channel=3, note=66, velocity=0, time=4),
    Message('note_on', channel=3, note=57, velocity=0, time=14),
    Message('note_on', channel=3, note=50, velocity=0, time=42),
    Message('note_on', channel=3, note=62, velocity=87, time=29),
    Message('note_on', channel=3, note=69, velocity=97, time=0),
    Message('note_on', channel=3, note=66, velocity=92, time=0),
    Message('note_on', channel=3, note=66, velocity=0, time=39),
    Message('note_on', channel=3, note=62, velocity=0, time=3),
    Message('note_on', channel=3, note=69, velocity=0, time=10),
    Message('note_on', channel=3, note=60, velocity=97, time=68),
    Message('note_on', channel=3, note=64, velocity=101, time=0),
    Message('note_on', channel=3, note=67, velocity=98, time=0),
    Message('control_change', channel=3, control=64, value=0, time=19),
    Message('control_change', channel=3, control=64, value=127, time=91),
    Message('note_on', channel=3, note=55, velocity=92, time=10),
    Message('note_on', channel=3, note=48, velocity=97, time=0),
    Message('note_on', channel=3, note=60, velocity=0, time=48),
    Message('note_on', channel=3, note=64, velocity=0, time=6),
    Message('note_on', channel=3, note=67, velocity=0, time=2),
    Message('note_on', channel=3, note=55, velocity=0, time=24),
    Message('note_on', channel=3, note=48, velocity=0, time=8),
    Message('note_on', channel=3, note=67, velocity=85, time=32),
    Message('note_on', channel=3, note=64, velocity=92, time=0),
    Message('note_on', channel=3, note=60, velocity=80, time=0),
    Message('note_on', channel=3, note=64, velocity=0, time=57),
    Message('note_on', channel=3, note=60, velocity=0, time=1),
    Message('note_on', channel=3, note=67, velocity=0, time=8),
    Message('note_on', channel=3, note=48, velocity=101, time=54),
    Message('note_on', channel=3, note=55, velocity=101, time=0),
    Message('note_on', channel=3, note=55, velocity=0, time=47),
    Message('note_on', channel=3, note=48, velocity=0, time=4),
    Message('note_on', channel=3, note=60, velocity=73, time=69),
    Message('note_on', channel=3, note=67, velocity=74, time=0),
    Message('note_on', channel=3, note=64, velocity=81, time=0),
    Message('note_on', channel=3, note=64, velocity=0, time=40),
    Message('note_on', channel=3, note=67, velocity=0, time=0),
    Message('note_on', channel=3, note=60, velocity=0, time=1),
    Message('note_on', channel=3, note=64, velocity=98, time=79),
    Message('note_on', channel=3, note=60, velocity=85, time=0),
    Message('note_on', channel=3, note=67, velocity=84, time=0),
    Message('note_on', channel=3, note=48, velocity=97, time=120),
    Message('note_on', channel=3, note=55, velocity=97, time=0),
    Message('note_on', channel=3, note=60, velocity=0, time=4),
    Message('note_on', channel=3, note=64, velocity=0, time=0),
    Message('note_on', channel=3, note=67, velocity=0, time=5),
    Message('note_on', channel=3, note=55, velocity=0, time=40),
    Message('note_on', channel=3, note=48, velocity=0, time=13),
    Message('note_on', channel=3, note=64, velocity=92, time=58),
    Message('note_on', channel=3, note=60, velocity=84, time=0),
    Message('note_on', channel=3, note=67, velocity=85, time=0),
    Message('note_on', channel=3, note=64, velocity=0, time=98),
    Message('note_on', channel=3, note=60, velocity=0, time=5),
    Message('note_on', channel=3, note=67, velocity=0, time=8),
    Message('note_on', channel=3, note=43, velocity=97, time=9),
    Message('note_on', channel=3, note=50, velocity=97, time=0),
    Message('note_on', channel=3, note=43, velocity=0, time=45),
    Message('note_on', channel=3, note=50, velocity=0, time=3),
    Message('control_change', channel=3, control=64, value=0, time=53),
    Message('note_on', channel=3, note=50, velocity=97, time=19),
    Message('note_on', channel=3, note=43, velocity=95, time=0),
    Message('note_on', channel=3, note=62, velocity=92, time=0),
    Message('note_on', channel=3, note=59, velocity=81, time=0),
    Message('note_on', channel=3, note=67, velocity=85, time=0),
    Message('control_change', channel=3, control=64, value=127, time=86),
    Message('note_on', channel=3, note=59, velocity=0, time=77),
    Message('note_on', channel=3, note=62, velocity=0, time=9),
    Message('note_on', channel=3, note=67, velocity=0, time=3),
    Message('note_on', channel=3, note=43, velocity=0, time=55),
    Message('note_on', channel=3, note=50, velocity=0, time=0),
    Message('note_on', channel=3, note=62, velocity=98, time=10),
    Message('note_on', channel=3, note=59, velocity=81, time=0),
    Message('note_on', channel=3, note=67, velocity=97, time=0),
    Message('note_on', channel=3, note=62, velocity=0, time=49),
    Message('note_on', channel=3, note=59, velocity=0, time=2),
    Message('note_on', channel=3, note=67, velocity=0, time=10),
    Message('note_on', channel=3, note=59, velocity=73, time=59),
    Message('note_on', channel=3, note=67, velocity=80, time=0),
    Message('note_on', channel=3, note=62, velocity=87, time=0),
    Message('note_on', channel=3, note=62, velocity=0, time=34),
    Message('note_on', channel=3, note=59, velocity=0, time=1),
    Message('note_on', channel=3, note=67, velocity=0, time=4),
    Message('note_on', channel=3, note=50, velocity=91, time=21),
    Message('note_on', channel=3, note=43, velocity=87, time=0),
    Message('note_on', channel=3, note=50, velocity=0, time=32),
    Message('note_on', channel=3, note=43, velocity=0, time=2),
    Message('note_on', channel=3, note=62, velocity=97, time=26),
    Message('note_on', channel=3, note=59, velocity=81, time=0),
    Message('note_on', channel=3, note=67, velocity=87, time=0),
    Message('note_on', channel=3, note=62, velocity=0, time=67),
    Message('note_on', channel=3, note=59, velocity=0, time=5),
    Message('note_on', channel=3, note=67, velocity=0, time=6),
    Message('note_on', channel=3, note=50, velocity=101, time=42),
    Message('note_on', channel=3, note=43, velocity=98, time=0),
    Message('note_on', channel=3, note=50, velocity=0, time=48),
    Message('note_on', channel=3, note=43, velocity=0, time=5),
    Message('note_on', channel=3, note=59, velocity=87, time=67),
    Message('note_on', channel=3, note=62, velocity=98, time=0),
    Message('note_on', channel=3, note=67, velocity=91, time=0),
    Message('note_on', channel=3, note=59, velocity=0, time=44),
    Message('note_on', channel=3, note=62, velocity=0, time=1),
    Message('note_on', channel=3, note=67, velocity=0, time=12),
    Message('note_on', channel=3, note=50, velocity=102, time=63),
    Message('note_on', channel=3, note=57, velocity=98, time=0),
    Message('control_change', channel=3, control=64, value=0, time=55),
    Message('control_change', channel=3, control=64, value=127, time=87),
    Message('note_on', channel=3, note=62, velocity=97, time=98),
    Message('note_on', channel=3, note=69, velocity=98, time=0),
    Message('note_on', channel=3, note=66, velocity=98, time=0),
    Message('note_on', channel=3, note=57, velocity=0, time=18),
    Message('note_on', channel=3, note=50, velocity=0, time=7),
    Message('note_on', channel=3, note=69, velocity=0, time=81),
    Message('note_on', channel=3, note=62, velocity=0, time=2),
    Message('note_on', channel=3, note=66, velocity=0, time=2),
    Message('note_on', channel=3, note=50, velocity=95, time=10),
    Message('note_on', channel=3, note=57, velocity=84, time=0),
    Message('note_on', channel=3, note=50, velocity=0, time=49),
    Message('note_on', channel=3, note=57, velocity=0, time=1),
    Message('note_on', channel=3, note=62, velocity=84, time=70),
    Message('note_on', channel=3, note=69, velocity=87, time=0),
    Message('note_on', channel=3, note=66, velocity=84, time=0),
    Message('note_on', channel=3, note=62, velocity=0, time=45),
    Message('note_on', channel=3, note=69, velocity=0, time=3),
    Message('note_on', channel=3, note=66, velocity=0, time=1),
    Message('note_on', channel=3, note=62, velocity=85, time=71),
    Message('note_on', channel=3, note=66, velocity=89, time=0),
    Message('note_on', channel=3, note=69, velocity=95, time=0),
    Message('note_on', channel=3, note=69, velocity=0, time=96),
    Message('note_on', channel=3, note=62, velocity=0, time=18),
    Message('note_on', channel=3, note=66, velocity=0, time=3),
    Message('note_on', channel=3, note=50, velocity=97, time=3),
    Message('note_on', channel=3, note=57, velocity=89, time=0),
    Message('note_on', channel=3, note=57, velocity=0, time=51),
    Message('note_on', channel=3, note=50, velocity=0, time=13),
    Message('note_on', channel=3, note=62, velocity=85, time=56),
    Message('note_on', channel=3, note=66, velocity=92, time=0),
    Message('note_on', channel=3, note=62, velocity=0, time=87),
    Message('note_on', channel=3, note=66, velocity=0, time=8),
    Message('note_on', channel=3, note=55, velocity=98, time=25),
    Message('note_on', channel=3, note=55, velocity=0, time=46),
    Message('control_change', channel=3, control=64, value=0, time=55),
    Message('note_on', channel=3, note=55, velocity=101, time=19),
    Message('note_on', channel=3, note=48, velocity=101, time=0),
    Message('note_on', channel=3, note=64, velocity=95, time=0),
    Message('note_on', channel=3, note=67, velocity=84, time=0),
    Message('note_on', channel=3, note=60, velocity=85, time=0),
    Message('control_change', channel=3, control=64, value=127, time=75),
    Message('note_on', channel=3, note=60, velocity=0, time=32),
    Message('note_on', channel=3, note=64, velocity=0, time=1),
    Message('note_on', channel=3, note=67, velocity=0, time=8),
    Message('note_on', channel=3, note=55, velocity=0, time=118),
    Message('note_on', channel=3, note=48, velocity=0, time=2),
    Message('note_on', channel=3, note=67, velocity=89, time=4),
    Message('note_on', channel=3, note=64, velocity=92, time=0),
    Message('note_on', channel=3, note=60, velocity=85, time=0),
    Message('note_on', channel=3, note=64, velocity=0, time=111),
    Message('note_on', channel=3, note=67, velocity=0, time=0),
    Message('note_on', channel=3, note=60, velocity=0, time=4),
    Message('note_on', channel=3, note=48, velocity=80, time=5),
    Message('note_on', channel=3, note=55, velocity=87, time=0),
    Message('note_on', channel=3, note=48, velocity=0, time=37),
    Message('note_on', channel=3, note=55, velocity=0, time=14),
    Message('note_on', channel=3, note=64, velocity=87, time=69),
    Message('note_on', channel=3, note=60, velocity=84, time=0),
    Message('note_on', channel=3, note=67, velocity=85, time=0),
    Message('note_on', channel=3, note=64, velocity=0, time=43),
    Message('note_on', channel=3, note=60, velocity=0, time=4),
    Message('note_on', channel=3, note=67, velocity=0, time=5),
    Message('note_on', channel=3, note=64, velocity=101, time=68),
    Message('note_on', channel=3, note=67, velocity=95, time=0),
    Message('note_on', channel=3, note=60, velocity=95, time=0),
    Message('note_on', channel=3, note=64, velocity=0, time=76),
    Message('note_on', channel=3, note=67, velocity=0, time=1),
    Message('note_on', channel=3, note=60, velocity=0, time=3),
    Message('note_on', channel=3, note=64, velocity=92, time=160),
    Message('note_on', channel=3, note=60, velocity=91, time=0),
    Message('note_on', channel=3, note=67, velocity=89, time=0),
    Message('note_on', channel=3, note=64, velocity=0, time=39),
    Message('note_on', channel=3, note=60, velocity=0, time=7),
    Message('note_on', channel=3, note=67, velocity=0, time=15),
    Message('control_change', channel=3, control=64, value=0, time=23),
    Message('note_on', channel=3, note=59, velocity=84, time=36),
    Message('note_on', channel=3, note=62, velocity=98, time=0),
    Message('note_on', channel=3, note=67, velocity=89, time=0),
    Message('note_on', channel=3, note=50, velocity=85, time=0),
    Message('note_on', channel=3, note=43, velocity=89, time=0),
    Message('control_change', channel=3, control=64, value=127, time=70),
    Message('note_on', channel=3, note=67, velocity=0, time=89),
    Message('note_on', channel=3, note=59, velocity=0, time=3),
    Message('note_on', channel=3, note=62, velocity=0, time=4),
    Message('note_on', channel=3, note=50, velocity=0, time=68),
    Message('note_on', channel=3, note=43, velocity=0, time=2),
    Message('note_on', channel=3, note=62, velocity=95, time=4),
    Message('note_on', channel=3, note=67, velocity=85, time=0),
    Message('note_on', channel=3, note=59, velocity=87, time=0),
    Message('note_on', channel=3, note=62, velocity=0, time=40),
    Message('note_on', channel=3, note=59, velocity=0, time=7),
    Message('note_on', channel=3, note=67, velocity=0, time=4),
    Message('note_on', channel=3, note=67, velocity=74, time=69),
    Message('note_on', channel=3, note=62, velocity=81, time=0),
    Message('note_on', channel=3, note=59, velocity=68, time=0),
    Message('note_on', channel=3, note=67, velocity=0, time=34),
    Message('note_on', channel=3, note=62, velocity=0, time=4),
    Message('note_on', channel=3, note=59, velocity=0, time=5),
    Message('note_on', channel=3, note=43, velocity=89, time=17),
    Message('note_on', channel=3, note=50, velocity=92, time=0),
    Message('note_on', channel=3, note=43, velocity=0, time=36),
    Message('note_on', channel=3, note=50, velocity=0, time=1),
    Message('note_on', channel=3, note=62, velocity=92, time=23),
    Message('note_on', channel=3, note=59, velocity=81, time=0),
    Message('note_on', channel=3, note=67, velocity=84, time=0),
    Message('note_on', channel=3, note=62, velocity=0, time=78),
    Message('note_on', channel=3, note=59, velocity=0, time=4),
    Message('note_on', channel=3, note=67, velocity=0, time=7),
    Message('note_on', channel=3, note=43, velocity=87, time=31),
    Message('note_on', channel=3, note=50, velocity=97, time=0),
    Message('note_on', channel=3, note=50, velocity=0, time=52),
    Message('note_on', channel=3, note=43, velocity=0, time=1),
    Message('note_on', channel=3, note=59, velocity=89, time=67),
    Message('note_on', channel=3, note=62, velocity=98, time=0),
    Message('note_on', channel=3, note=67, velocity=92, time=0),
    Message('note_on', channel=3, note=62, velocity=0, time=53),
    Message('note_on', channel=3, note=59, velocity=0, time=1),
    Message('note_on', channel=3, note=67, velocity=0, time=2),
    Message('note_on', channel=3, note=43, velocity=85, time=64),
    Message('note_on', channel=3, note=50, velocity=97, time=0),
    Message('note_on', channel=3, note=50, velocity=0, time=42),
    Message('note_on', channel=3, note=43, velocity=0, time=8),
    Message('control_change', channel=3, control=64, value=0, time=51),
    Message('note_on', channel=3, note=64, velocity=95, time=19),
    Message('note_on', channel=3, note=52, velocity=91, time=0),
    Message('note_on', channel=3, note=59, velocity=92, time=0),
    Message('note_on', channel=3, note=55, velocity=89, time=0),
    Message('control_change', channel=3, control=64, value=127, time=24),
    Message('note_on', channel=3, note=64, velocity=0, time=37),
    Message('note_on', channel=3, note=52, velocity=0, time=4),
    Message('note_on', channel=3, note=55, velocity=0, time=0),
    Message('note_on', channel=3, note=59, velocity=0, time=2),
    Message('note_on', channel=3, note=52, velocity=80, time=173),
    Message('note_on', channel=3, note=59, velocity=80, time=0),
    Message('note_on', channel=3, note=55, velocity=87, time=0),
    Message('note_on', channel=3, note=59, velocity=0, time=49),
    Message('note_on', channel=3, note=52, velocity=0, time=0),
    Message('note_on', channel=3, note=55, velocity=0, time=1),
    Message('note_on', channel=3, note=64, velocity=85, time=70),
    Message('note_on', channel=3, note=64, velocity=0, time=58),
    Message('note_on', channel=3, note=59, velocity=95, time=62),
    Message('note_on', channel=3, note=55, velocity=95, time=0),
    Message('note_on', channel=3, note=52, velocity=95, time=0),
    Message('note_on', channel=3, note=59, velocity=0, time=53),
    Message('note_on', channel=3, note=55, velocity=0, time=1),
    Message('note_on', channel=3, note=52, velocity=0, time=2),
    Message('note_on', channel=3, note=64, velocity=95, time=64),
    Message('note_on', channel=3, note=64, velocity=0, time=61),
    Message('note_on', channel=3, note=55, velocity=85, time=59),
    Message('note_on', channel=3, note=59, velocity=89, time=0),
    Message('note_on', channel=3, note=52, velocity=92, time=0),
    Message('note_on', channel=3, note=55, velocity=0, time=54),
    Message('note_on', channel=3, note=59, velocity=0, time=1),
    Message('note_on', channel=3, note=52, velocity=0, time=6),
    Message('note_on', channel=3, note=55, velocity=84, time=59),
    Message('note_on', channel=3, note=52, velocity=81, time=0),
    Message('note_on', channel=3, note=59, velocity=85, time=0),
    Message('note_on', channel=3, note=55, velocity=0, time=44),
    Message('note_on', channel=3, note=52, velocity=0, time=1),
    Message('note_on', channel=3, note=59, velocity=0, time=4),
    Message('control_change', channel=3, control=64, value=0, time=23),
    Message('note_on', channel=3, note=66, velocity=81, time=48),
    Message('note_on', channel=3, note=62, velocity=81, time=0),
    Message('control_change', channel=3, control=64, value=127, time=46),
    Message('note_on', channel=3, note=62, velocity=0, time=26),
    Message('note_on', channel=3, note=66, velocity=0, time=2),
    Message('note_on', channel=3, note=66, velocity=48, time=46),
    Message('note_on', channel=3, note=66, velocity=0, time=18),
    Message('note_on', channel=3, note=62, velocity=71, time=102),
    Message('note_on', channel=3, note=66, velocity=80, time=0),
    Message('note_on', channel=3, note=62, velocity=0, time=40),
    Message('note_on', channel=3, note=66, velocity=0, time=6),
    Message('note_on', channel=3, note=66, velocity=92, time=74),
    Message('note_on', channel=3, note=62, velocity=95, time=0),
    Message('note_on', channel=3, note=62, velocity=0, time=47),
    Message('note_on', channel=3, note=66, velocity=0, time=9),
    Message('note_on', channel=3, note=50, velocity=95, time=64),
    Message('note_on', channel=3, note=57, velocity=87, time=0),
    Message('note_on', channel=3, note=57, velocity=0, time=54),
    Message('note_on', channel=3, note=50, velocity=0, time=16),
    Message('note_on', channel=3, note=66, velocity=81, time=50),
    Message('note_on', channel=3, note=62, velocity=87, time=0),
    Message('note_on', channel=3, note=66, velocity=0, time=68),
    Message('note_on', channel=3, note=62, velocity=0, time=2),
    Message('note_on', channel=3, note=50, velocity=101, time=50),
    Message('note_on', channel=3, note=57, velocity=92, time=0),
    Message('note_on', channel=3, note=57, velocity=0, time=61),
    Message('note_on', channel=3, note=50, velocity=0, time=10),
    Message('note_on', channel=3, note=62, velocity=71, time=49),
    Message('note_on', channel=3, note=66, velocity=68, time=0),
    Message('note_on', channel=3, note=66, velocity=0, time=36),
    Message('control_change', channel=3, control=64, value=0, time=1),
    Message('note_on', channel=3, note=62, velocity=0, time=9),
    Message('note_on', channel=3, note=60, velocity=91, time=74),
    Message('note_on', channel=3, note=64, velocity=95, time=0),
    Message('note_on', channel=3, note=55, velocity=98, time=0),
    Message('note_on', channel=3, note=48, velocity=101, time=0),
    Message('control_change', channel=3, control=64, value=127, time=87),
    Message('note_on', channel=3, note=60, velocity=0, time=21),
    Message('note_on', channel=3, note=64, velocity=0, time=14),
    Message('note_on', channel=3, note=55, velocity=0, time=86),
    Message('note_on', channel=3, note=48, velocity=0, time=2),
    Message('note_on', channel=3, note=60, velocity=78, time=30),
    Message('note_on', channel=3, note=64, velocity=92, time=0),
    Message('note_on', channel=3, note=60, velocity=0, time=95),
    Message('note_on', channel=3, note=64, velocity=0, time=1),
    Message('note_on', channel=3, note=48, velocity=80, time=24),
    Message('note_on', channel=3, note=55, velocity=87, time=0),
    Message('note_on', channel=3, note=48, velocity=0, time=40),
    Message('note_on', channel=3, note=55, velocity=0, time=9),
    Message('note_on', channel=3, note=60, velocity=69, time=71),
    Message('note_on', channel=3, note=64, velocity=84, time=0),
    Message('note_on', channel=3, note=60, velocity=0, time=47),
    Message('note_on', channel=3, note=64, velocity=0, time=2),
    Message('note_on', channel=3, note=60, velocity=89, time=71),
    Message('note_on', channel=3, note=64, velocity=95, time=0),
    Message('note_on', channel=3, note=60, velocity=0, time=53),
    Message('note_on', channel=3, note=64, velocity=0, time=6),
    Message('note_on', channel=3, note=60, velocity=89, time=61),
    Message('note_on', channel=3, note=64, velocity=97, time=0),
    Message('note_on', channel=3, note=64, velocity=0, time=44),
    Message('note_on', channel=3, note=60, velocity=0, time=6),
    Message('note_on', channel=3, note=43, velocity=101, time=70),
    Message('note_on', channel=3, note=50, velocity=105, time=0),
    Message('control_change', channel=3, control=64, value=0, time=36),
    Message('note_on', channel=3, note=55, velocity=80, time=84),
    Message('note_on', channel=3, note=62, velocity=91, time=0),
    Message('note_on', channel=3, note=59, velocity=95, time=0),
    Message('note_on', channel=3, note=50, velocity=0, time=7),
    Message('note_on', channel=3, note=43, velocity=0, time=4),
    Message('control_change', channel=3, control=64, value=127, time=6),
    Message('note_on', channel=3, note=55, velocity=0, time=105),
    Message('note_on', channel=3, note=59, velocity=0, time=3),
    Message('note_on', channel=3, note=62, velocity=0, time=5),
    Message('note_on', channel=3, note=55, velocity=43, time=50),
    Message('note_on', channel=3, note=55, velocity=0, time=19),
    Message('note_on', channel=3, note=43, velocity=98, time=41),
    Message('note_on', channel=3, note=43, velocity=0, time=95),
    Message('note_on', channel=3, note=55, velocity=95, time=25),
    Message('note_on', channel=3, note=62, velocity=98, time=0),
    Message('note_on', channel=3, note=59, velocity=101, time=0),
    Message('note_on', channel=3, note=55, velocity=0, time=57),
    Message('note_on', channel=3, note=59, velocity=0, time=1),
    Message('note_on', channel=3, note=62, velocity=0, time=8),
    Message('note_on', channel=3, note=43, velocity=87, time=54),
    Message('note_on', channel=3, note=43, velocity=0, time=72),
    Message('note_on', channel=3, note=62, velocity=89, time=48),
    Message('note_on', channel=3, note=59, velocity=92, time=0),
    Message('note_on', channel=3, note=55, velocity=89, time=0),
    Message('note_on', channel=3, note=59, velocity=0, time=41),
    Message('note_on', channel=3, note=62, velocity=0, time=1),
    Message('note_on', channel=3, note=55, velocity=0, time=3),
    Message('note_on', channel=3, note=55, velocity=84, time=75),
    Message('note_on', channel=3, note=59, velocity=98, time=0),
    Message('note_on', channel=3, note=62, velocity=98, time=0),
    Message('note_on', channel=3, note=55, velocity=0, time=63),
    Message('note_on', channel=3, note=59, velocity=0, time=33),
    Message('note_on', channel=3, note=62, velocity=0, time=10),
    Message('note_on', channel=3, note=52, velocity=95, time=14),
    Message('note_on', channel=3, note=52, velocity=0, time=45),
    Message('control_change', channel=3, control=64, value=0, time=35),
    Message('note_on', channel=3, note=60, velocity=98, time=40),
    Message('note_on', channel=3, note=57, velocity=89, time=0),
    Message('note_on', channel=3, note=45, velocity=101, time=0),
    Message('note_on', channel=3, note=64, velocity=97, time=0),
    Message('control_change', channel=3, control=64, value=127, time=54),
    Message('note_on', channel=3, note=57, velocity=0, time=45),
    Message('note_on', channel=3, note=60, velocity=0, time=0),
    Message('note_on', channel=3, note=64, velocity=0, time=5),
    Message('note_on', channel=3, note=52, velocity=89, time=76),
    Message('note_on', channel=3, note=60, velocity=81, time=0),
    Message('note_on', channel=3, note=64, velocity=78, time=0),
    Message('note_on', channel=3, note=57, velocity=69, time=0),
    Message('note_on', channel=3, note=45, velocity=0, time=2),
    Message('note_on', channel=3, note=60, velocity=0, time=24),
    Message('note_on', channel=3, note=64, velocity=0, time=4),
    Message('note_on', channel=3, note=57, velocity=0, time=5),
    Message('note_on', channel=3, note=52, velocity=0, time=8),
    Message('note_on', channel=3, note=60, velocity=95, time=137),
    Message('note_on', channel=3, note=57, velocity=89, time=0),
    Message('note_on', channel=3, note=64, velocity=84, time=0),
    Message('note_on', channel=3, note=60, velocity=0, time=68),
    Message('note_on', channel=3, note=57, velocity=0, time=2),
    Message('note_on', channel=3, note=64, velocity=0, time=5),
    Message('note_on', channel=3, note=45, velocity=97, time=45),
    Message('note_on', channel=3, note=45, velocity=0, time=81),
    Message('note_on', channel=3, note=60, velocity=95, time=39),
    Message('note_on', channel=3, note=64, velocity=87, time=0),
    Message('note_on', channel=3, note=57, velocity=84, time=0),
    Message('note_on', channel=3, note=60, velocity=0, time=40),
    Message('note_on', channel=3, note=57, velocity=0, time=8),
    Message('note_on', channel=3, note=64, velocity=0, time=0),
    Message('note_on', channel=3, note=60, velocity=98, time=72),
    Message('note_on', channel=3, note=64, velocity=97, time=0),
    Message('note_on', channel=3, note=57, velocity=87, time=0),
    Message('note_on', channel=3, note=57, velocity=0, time=51),
    Message('note_on', channel=3, note=60, velocity=0, time=5),
    Message('note_on', channel=3, note=64, velocity=0, time=20),
    Message('note_on', channel=3, note=55, velocity=95, time=44),
    Message('note_on', channel=3, note=55, velocity=0, time=40),
    Message('control_change', channel=3, control=64, value=0, time=51),
    Message('note_on', channel=3, note=55, velocity=95, time=29),
    Message('note_on', channel=3, note=64, velocity=87, time=0),
    Message('note_on', channel=3, note=60, velocity=85, time=0),
    Message('note_on', channel=3, note=67, velocity=85, time=0),
    Message('note_on', channel=3, note=48, velocity=97, time=0),
    Message('note_on', channel=3, note=64, velocity=0, time=43),
    Message('note_on', channel=3, note=60, velocity=0, time=5),
    Message('control_change', channel=3, control=64, value=127, time=8),
    Message('note_on', channel=3, note=67, velocity=0, time=2),
    Message('note_on', channel=3, note=55, velocity=0, time=32),
    Message('note_on', channel=3, note=48, velocity=0, time=6),
    Message('note_on', channel=3, note=67, velocity=69, time=24),
    Message('note_on', channel=3, note=60, velocity=65, time=0),
    Message('note_on', channel=3, note=64, velocity=84, time=0),
    Message('note_on', channel=3, note=64, velocity=0, time=31),
    Message('note_on', channel=3, note=67, velocity=0, time=1),
    Message('note_on', channel=3, note=60, velocity=0, time=3),
    Message('note_on', channel=3, note=48, velocity=91, time=25),
    Message('note_on', channel=3, note=55, velocity=97, time=0),
    Message('note_on', channel=3, note=48, velocity=0, time=28),
    Message('note_on', channel=3, note=55, velocity=0, time=13),
    Message('note_on', channel=3, note=64, velocity=89, time=19),
    Message('note_on', channel=3, note=67, velocity=84, time=0),
    Message('note_on', channel=3, note=60, velocity=85, time=0),
    Message('note_on', channel=3, note=64, velocity=0, time=46),
    Message('note_on', channel=3, note=60, velocity=0, time=6),
    Message('note_on', channel=3, note=67, velocity=0, time=13),
    Message('note_on', channel=3, note=55, velocity=101, time=55),
    Message('note_on', channel=3, note=48, velocity=98, time=0),
    Message('note_on', channel=3, note=55, velocity=0, time=42),
    Message('note_on', channel=3, note=48, velocity=0, time=2),
    Message('note_on', channel=3, note=60, velocity=80, time=76),
    Message('note_on', channel=3, note=67, velocity=84, time=0),
    Message('note_on', channel=3, note=64, velocity=92, time=0),
    Message('note_on', channel=3, note=60, velocity=0, time=55),
    Message('note_on', channel=3, note=64, velocity=0, time=2),
    Message('note_on', channel=3, note=67, velocity=0, time=5),
    Message('note_on', channel=3, note=55, velocity=91, time=58),
    Message('note_on', channel=3, note=48, velocity=92, time=0),
    Message('note_on', channel=3, note=48, velocity=0, time=44),
    Message('note_on', channel=3, note=55, velocity=0, time=3),
    Message('note_on', channel=3, note=60, velocity=80, time=73),
    Message('note_on', channel=3, note=67, velocity=84, time=0),
    Message('note_on', channel=3, note=64, velocity=95, time=0),
    Message('note_on', channel=3, note=67, velocity=0, time=36),
    Message('note_on', channel=3, note=64, velocity=0, time=2),
    Message('note_on', channel=3, note=60, velocity=0, time=10),
    Message('control_change', channel=3, control=64, value=0, time=166),
    Message('note_on', channel=3, note=52, velocity=81, time=26),
    Message('note_on', channel=3, note=59, velocity=92, time=0),
    Message('note_on', channel=3, note=40, velocity=87, time=0),
    Message('note_on', channel=3, note=55, velocity=95, time=0),
    Message('control_change', channel=3, control=64, value=127, time=32),
    Message('note_on', channel=3, note=52, velocity=0, time=32),
    Message('note_on', channel=3, note=55, velocity=0, time=4),
    Message('note_on', channel=3, note=59, velocity=0, time=8),
    Message('note_on', channel=3, note=40, velocity=0, time=29),
    Message('note_on', channel=3, note=52, velocity=55, time=15),
    Message('note_on', channel=3, note=59, velocity=62, time=0),
    Message('note_on', channel=3, note=55, velocity=68, time=0),
    Message('note_on', channel=3, note=52, velocity=0, time=37),
    Message('note_on', channel=3, note=55, velocity=0, time=6),
    Message('note_on', channel=3, note=59, velocity=0, time=2),
    Message('note_on', channel=3, note=40, velocity=80, time=15),
    Message('note_on', channel=3, note=40, velocity=0, time=47),
    Message('note_on', channel=3, note=52, velocity=76, time=13),
    Message('note_on', channel=3, note=59, velocity=85, time=0),
    Message('note_on', channel=3, note=55, velocity=85, time=0),
    Message('note_on', channel=3, note=52, velocity=0, time=45),
    Message('note_on', channel=3, note=55, velocity=0, time=5),
    Message('note_on', channel=3, note=59, velocity=0, time=4),
    Message('note_on', channel=3, note=40, velocity=89, time=66),
    Message('note_on', channel=3, note=40, velocity=0, time=63),
    Message('note_on', channel=3, note=52, velocity=78, time=57),
    Message('note_on', channel=3, note=59, velocity=87, time=0),
    Message('note_on', channel=3, note=55, velocity=87, time=0),
    Message('note_on', channel=3, note=55, velocity=0, time=47),
    Message('note_on', channel=3, note=52, velocity=0, time=1),
    Message('note_on', channel=3, note=59, velocity=0, time=1),
    Message('note_on', channel=3, note=55, velocity=95, time=71),
    Message('note_on', channel=3, note=52, velocity=85, time=0),
    Message('note_on', channel=3, note=59, velocity=97, time=0),
    Message('note_on', channel=3, note=52, velocity=0, time=61),
    Message('note_on', channel=3, note=55, velocity=0, time=0),
    Message('note_on', channel=3, note=59, velocity=0, time=10),
    Message('note_on', channel=3, note=40, velocity=89, time=49),
    Message('note_on', channel=3, note=40, velocity=0, time=64),
    Message('note_on', channel=3, note=52, velocity=84, time=56),
    Message('note_on', channel=3, note=55, velocity=87, time=0),
    Message('note_on', channel=3, note=59, velocity=87, time=0),
    Message('note_on', channel=3, note=55, velocity=0, time=44),
    Message('note_on', channel=3, note=52, velocity=0, time=0),
    Message('note_on', channel=3, note=59, velocity=0, time=4),
    Message('note_on', channel=3, note=55, velocity=97, time=72),
    Message('note_on', channel=3, note=52, velocity=87, time=0),
    Message('note_on', channel=3, note=59, velocity=92, time=0),
    Message('note_on', channel=3, note=52, velocity=0, time=112),
    Message('note_on', channel=3, note=59, velocity=0, time=5),
    Message('note_on', channel=3, note=55, velocity=0, time=2),
    Message('note_on', channel=3, note=40, velocity=68, time=1),
    Message('note_on', channel=3, note=40, velocity=0, time=50),
    Message('note_on', channel=3, note=59, velocity=87, time=70),
    Message('note_on', channel=3, note=52, velocity=69, time=0),
    Message('note_on', channel=3, note=55, velocity=84, time=0),
    Message('note_on', channel=3, note=52, velocity=0, time=34),
    Message('note_on', channel=3, note=59, velocity=0, time=7),
    Message('note_on', channel=3, note=55, velocity=0, time=2),
    Message('note_on', channel=3, note=50, velocity=108, time=77),
    Message('control_change', channel=3, control=64, value=0, time=2),
    Message('control_change', channel=3, control=64, value=127, time=97),
    Message('note_on', channel=3, note=54, velocity=64, time=21),
    Message('note_on', channel=3, note=50, velocity=0, time=61),
    Message('note_on', channel=3, note=54, velocity=0, time=11),
    Message('note_on', channel=3, note=54, velocity=84, time=48),
    Message('note_on', channel=3, note=57, velocity=101, time=0),
    Message('note_on', channel=3, note=62, velocity=98, time=0),
    Message('note_on', channel=3, note=54, velocity=0, time=68),
    Message('note_on', channel=3, note=62, velocity=0, time=13),
    Message('note_on', channel=3, note=57, velocity=0, time=0),
    Message('note_on', channel=3, note=62, velocity=98, time=39),
    Message('note_on', channel=3, note=54, velocity=84, time=0),
    Message('note_on', channel=3, note=57, velocity=98, time=0),
    Message('note_on', channel=3, note=57, velocity=0, time=87),
    Message('note_on', channel=3, note=62, velocity=0, time=2),
    Message('note_on', channel=3, note=54, velocity=0, time=5),
    Message('note_on', channel=3, note=50, velocity=95, time=26),
    Message('note_on', channel=3, note=50, velocity=0, time=46),
    Message('control_change', channel=3, control=64, value=0, time=24),
    Message('note_on', channel=3, note=59, velocity=92, time=50),
    Message('note_on', channel=3, note=67, velocity=97, time=0),
    Message('note_on', channel=3, note=62, velocity=102, time=0),
    Message('note_on', channel=3, note=50, velocity=108, time=0),
    Message('note_on', channel=3, note=43, velocity=102, time=0),
    Message('control_change', channel=3, control=64, value=127, time=68),
    Message('note_on', channel=3, note=67, velocity=0, time=96),
    Message('note_on', channel=3, note=59, velocity=0, time=1),
    Message('note_on', channel=3, note=62, velocity=0, time=5),
    Message('note_on', channel=3, note=62, velocity=95, time=70),
    Message('note_on', channel=3, note=67, velocity=87, time=0),
    Message('note_on', channel=3, note=59, velocity=85, time=0),
    Message('note_on', channel=3, note=50, velocity=0, time=7),
    Message('note_on', channel=3, note=43, velocity=0, time=5),
    Message('note_on', channel=3, note=62, velocity=0, time=61),
    Message('note_on', channel=3, note=67, velocity=0, time=10),
    Message('note_on', channel=3, note=59, velocity=0, time=1),
    Message('note_on', channel=3, note=43, velocity=85, time=36),
    Message('note_on', channel=3, note=50, velocity=95, time=0),
    Message('note_on', channel=3, note=43, velocity=0, time=32),
    Message('note_on', channel=3, note=50, velocity=0, time=16),
    Message('note_on', channel=3, note=59, velocity=69, time=72),
    Message('note_on', channel=3, note=62, velocity=91, time=0),
    Message('note_on', channel=3, note=67, velocity=87, time=0),
    Message('note_on', channel=3, note=62, velocity=0, time=35),
    Message('note_on', channel=3, note=59, velocity=0, time=5),
    Message('note_on', channel=3, note=67, velocity=0, time=2),
    Message('note_on', channel=3, note=67, velocity=85, time=78),
    Message('note_on', channel=3, note=59, velocity=89, time=0),
    Message('note_on', channel=3, note=62, velocity=101, time=0),
    Message('note_on', channel=3, note=62, velocity=0, time=53),
    Message('note_on', channel=3, note=59, velocity=0, time=0),
    Message('note_on', channel=3, note=67, velocity=0, time=9),
    Message('note_on', channel=3, note=43, velocity=97, time=58),
    Message('note_on', channel=3, note=50, velocity=98, time=0),
    Message('note_on', channel=3, note=43, velocity=0, time=38),
    Message('note_on', channel=3, note=50, velocity=0, time=2),
    Message('note_on', channel=3, note=59, velocity=80, time=80),
    Message('note_on', channel=3, note=67, velocity=81, time=0),
    Message('note_on', channel=3, note=62, velocity=98, time=0),
    Message('note_on', channel=3, note=59, velocity=0, time=42),
    Message('note_on', channel=3, note=62, velocity=0, time=1),
    Message('note_on', channel=3, note=67, velocity=0, time=6),
    Message('note_on', channel=3, note=59, velocity=85, time=71),
    Message('note_on', channel=3, note=62, velocity=97, time=0),
    Message('note_on', channel=3, note=50, velocity=85, time=0),
    Message('note_on', channel=3, note=67, velocity=84, time=0),
    Message('note_on', channel=3, note=43, velocity=85, time=0),
    Message('note_on', channel=3, note=62, velocity=0, time=40),
    Message('note_on', channel=3, note=59, velocity=0, time=2),
    Message('note_on', channel=3, note=43, velocity=0, time=0),
    Message('note_on', channel=3, note=50, velocity=0, time=0),
    Message('note_on', channel=3, note=67, velocity=0, time=11),
    Message('note_on', channel=3, note=59, velocity=66, time=67),
    Message('note_on', channel=3, note=62, velocity=84, time=0),
    Message('note_on', channel=3, note=67, velocity=71, time=0),
    Message('note_on', channel=3, note=62, velocity=0, time=30),
    Message('note_on', channel=3, note=59, velocity=0, time=5),
    Message('note_on', channel=3, note=67, velocity=0, time=3),
    Message('note_on', channel=3, note=50, velocity=81, time=22),
    Message('note_on', channel=3, note=43, velocity=84, time=0),
    Message('note_on', channel=3, note=50, velocity=0, time=32),
    Message('note_on', channel=3, note=43, velocity=0, time=1),
    Message('note_on', channel=3, note=59, velocity=85, time=27),
    Message('note_on', channel=3, note=67, velocity=91, time=0),
    Message('note_on', channel=3, note=62, velocity=98, time=0),
    Message('note_on', channel=3, note=62, velocity=0, time=43),
    Message('note_on', channel=3, note=59, velocity=0, time=2),
    Message('note_on', channel=3, note=67, velocity=0, time=14),
    Message('note_on', channel=3, note=50, velocity=101, time=61),
    Message('note_on', channel=3, note=43, velocity=95, time=0),
    Message('note_on', channel=3, note=50, velocity=0, time=39),
    Message('note_on', channel=3, note=43, velocity=0, time=3),
    Message('note_on', channel=3, note=59, velocity=78, time=78),
    Message('note_on', channel=3, note=67, velocity=87, time=0),
    Message('note_on', channel=3, note=62, velocity=92, time=0),
    Message('note_on', channel=3, note=62, velocity=0, time=52),
    Message('note_on', channel=3, note=59, velocity=0, time=0),
    Message('note_on', channel=3, note=67, velocity=0, time=6),
    Message('note_on', channel=3, note=43, velocity=85, time=62),
    Message('note_on', channel=3, note=50, velocity=95, time=0),
    Message('note_on', channel=3, note=43, velocity=0, time=28),
    Message('note_on', channel=3, note=50, velocity=0, time=11),
    Message('note_on', channel=3, note=59, velocity=85, time=81),
    Message('note_on', channel=3, note=62, velocity=97, time=0),
    Message('note_on', channel=3, note=67, velocity=85, time=0),
    Message('note_on', channel=3, note=62, velocity=0, time=45),
    Message('note_on', channel=3, note=59, velocity=0, time=0),
    Message('note_on', channel=3, note=67, velocity=0, time=14),
    Message('note_on', channel=3, note=50, velocity=87, time=61),
    Message('note_on', channel=3, note=43, velocity=84, time=0),
    Message('note_on', channel=3, note=43, velocity=0, time=31),
    Message('note_on', channel=3, note=50, velocity=0, time=1),
    Message('control_change', channel=3, control=64, value=0, time=73),
    Message('note_on', channel=3, note=50, velocity=95, time=15),
    Message('note_on', channel=3, note=43, velocity=92, time=0),
    Message('note_on', channel=3, note=59, velocity=84, time=0),
    Message('note_on', channel=3, note=62, velocity=98, time=0),
    Message('note_on', channel=3, note=67, velocity=87, time=0),
    Message('control_change', channel=3, control=64, value=127, time=74),
    Message('note_on', channel=3, note=43, velocity=0, time=68),
    Message('note_on', channel=3, note=50, velocity=0, time=1),
    Message('note_on', channel=3, note=59, velocity=0, time=6),
    Message('note_on', channel=3, note=67, velocity=0, time=5),
    Message('note_on', channel=3, note=62, velocity=0, time=8),
    Message('note_on', channel=3, note=59, velocity=87, time=78),
    Message('note_on', channel=3, note=62, velocity=105, time=0),
    Message('note_on', channel=3, note=67, velocity=101, time=0),
    Message('note_on', channel=3, note=59, velocity=0, time=48),
    Message('note_on', channel=3, note=62, velocity=0, time=5),
    Message('note_on', channel=3, note=67, velocity=0, time=9),
    Message('note_on', channel=3, note=59, velocity=74, time=58),
    Message('note_on', channel=3, note=62, velocity=95, time=0),
    Message('note_on', channel=3, note=67, velocity=92, time=0),
    Message('note_on', channel=3, note=59, velocity=0, time=33),
    Message('note_on', channel=3, note=62, velocity=0, time=7),
    Message('note_on', channel=3, note=67, velocity=0, time=14),
    Message('control_change', channel=3, control=64, value=0, time=47),
    Message('note_on', channel=3, note=62, velocity=80, time=19),
    Message('note_on', channel=3, note=69, velocity=89, time=0),
    Message('note_on', channel=3, note=66, velocity=87, time=0),
    Message('note_on', channel=3, note=57, velocity=89, time=0),
    Message('note_on', channel=3, note=50, velocity=98, time=0),
    Message('control_change', channel=3, control=64, value=127, time=71),
    Message('note_on', channel=3, note=57, velocity=0, time=31),
    Message('note_on', channel=3, note=57, velocity=97, time=18),
    Message('note_on', channel=3, note=62, velocity=0, time=26),
    Message('note_on', channel=3, note=69, velocity=0, time=5),
    Message('note_on', channel=3, note=66, velocity=0, time=4),
    Message('note_on', channel=3, note=57, velocity=0, time=14),
    Message('note_on', channel=3, note=50, velocity=0, time=42),
    Message('note_on', channel=3, note=62, velocity=87, time=29),
    Message('note_on', channel=3, note=69, velocity=97, time=0),
    Message('note_on', channel=3, note=66, velocity=92, time=0),
    Message('note_on', channel=3, note=66, velocity=0, time=39),
    Message('note_on', channel=3, note=62, velocity=0, time=3),
    Message('note_on', channel=3, note=69, velocity=0, time=10),
    Message('note_on', channel=3, note=60, velocity=97, time=68),
    Message('note_on', channel=3, note=64, velocity=101, time=0),
    Message('note_on', channel=3, note=67, velocity=98, time=0),
    Message('control_change', channel=3, control=64, value=0, time=19),
    Message('control_change', channel=3, control=64, value=127, time=91),
    Message('note_on', channel=3, note=67, velocity=0, time=10),
    Message('note_on', channel=3, note=64, velocity=0, time=0),
    Message('note_on', channel=3, note=60, velocity=0, time=0),
    Message('note_on', channel=3, note=60, velocity=85, time=0),
    Message('note_on', channel=3, note=64, velocity=87, time=0),
    Message('note_on', channel=3, note=57, velocity=80, time=0),
    Message('control_change', channel=3, control=64, value=127, time=32),
    Message('note_on', channel=3, note=60, velocity=0, time=27),
    Message('note_on', channel=3, note=64, velocity=0, time=5),
    Message('note_on', channel=3, note=57, velocity=0, time=1),
    Message('note_on', channel=3, note=64, velocity=56, time=55),
    Message('note_on', channel=3, note=57, velocity=56, time=0),
    Message('note_on', channel=3, note=60, velocity=68, time=0),
    Message('note_on', channel=3, note=64, velocity=0, time=37),
    Message('note_on', channel=3, note=60, velocity=0, time=2),
    Message('note_on', channel=3, note=57, velocity=0, time=1),
    Message('note_on', channel=3, note=45, velocity=74, time=20),
    Message('note_on', channel=3, note=45, velocity=0, time=51),
    Message('note_on', channel=3, note=57, velocity=68, time=9),
    Message('note_on', channel=3, note=60, velocity=84, time=0),
    Message('note_on', channel=3, note=64, velocity=81, time=0),
    Message('note_on', channel=3, note=60, velocity=0, time=61),
    Message('note_on', channel=3, note=64, velocity=0, time=2),
    Message('note_on', channel=3, note=57, velocity=0, time=0),
    Message('note_on', channel=3, note=45, velocity=84, time=57),
    Message('note_on', channel=3, note=45, velocity=0, time=65),
    Message('note_on', channel=3, note=57, velocity=89, time=55),
    Message('note_on', channel=3, note=60, velocity=97, time=0),
    Message('note_on', channel=3, note=64, velocity=97, time=0),
    Message('note_on', channel=3, note=60, velocity=0, time=43),
    Message('note_on', channel=3, note=57, velocity=0, time=2),
    Message('note_on', channel=3, note=64, velocity=0, time=6),
    Message('note_on', channel=3, note=60, velocity=102, time=69),
    Message('note_on', channel=3, note=57, velocity=97, time=0),
    Message('note_on', channel=3, note=64, velocity=101, time=0),
    Message('note_on', channel=3, note=57, velocity=0, time=43),
    Message('note_on', channel=3, note=60, velocity=0, time=8),
    Message('note_on', channel=3, note=64, velocity=0, time=5),
    Message('note_on', channel=3, note=45, velocity=85, time=64),
    Message('note_on', channel=3, note=45, velocity=0, time=56),
    Message('control_change', channel=3, control=64, value=0, time=79),
    Message('note_on', channel=3, note=50, velocity=97, time=105),
    Message('note_on', channel=3, note=43, velocity=95, time=0),
    Message('note_on', channel=3, note=62, velocity=92, time=0),
    Message('note_on', channel=3, note=59, velocity=81, time=0),
    Message('note_on', channel=3, note=67, velocity=85, time=0),
    Message('control_change', channel=3, control=64, value=127, time=86),
    Message('note_on', channel=3, note=59, velocity=0, time=77),
    Message('note_on', channel=3, note=62, velocity=0, time=9),
    Message('note_on', channel=3, note=67, velocity=0, time=3),
    Message('note_on', channel=3, note=43, velocity=0, time=55),
    Message('note_on', channel=3, note=50, velocity=0, time=0),
    Message('note_on', channel=3, note=62, velocity=98, time=10),
    Message('note_on', channel=3, note=59, velocity=81, time=0),
    Message('note_on', channel=3, note=67, velocity=97, time=0),
    Message('note_on', channel=3, note=62, velocity=0, time=49),
    Message('note_on', channel=3, note=59, velocity=0, time=2),
    Message('note_on', channel=3, note=67, velocity=0, time=10),
    Message('note_on', channel=3, note=59, velocity=73, time=59),
    Message('note_on', channel=3, note=67, velocity=80, time=0),
    Message('note_on', channel=3, note=62, velocity=87, time=0),
    Message('note_on', channel=3, note=62, velocity=0, time=34),
    Message('note_on', channel=3, note=59, velocity=0, time=1),
    Message('note_on', channel=3, note=67, velocity=0, time=4),
    Message('note_on', channel=3, note=50, velocity=91, time=21),
    Message('note_on', channel=3, note=43, velocity=87, time=0),
    Message('note_on', channel=3, note=50, velocity=0, time=32),
    Message('note_on', channel=3, note=43, velocity=0, time=2),
    Message('note_on', channel=3, note=62, velocity=97, time=26),
    Message('note_on', channel=3, note=59, velocity=81, time=0),
    Message('note_on', channel=3, note=67, velocity=87, time=0),
    Message('note_on', channel=3, note=62, velocity=0, time=67),
    Message('note_on', channel=3, note=59, velocity=0, time=5),
    Message('note_on', channel=3, note=67, velocity=0, time=6),
    Message('note_on', channel=3, note=50, velocity=101, time=42),
    Message('note_on', channel=3, note=43, velocity=98, time=0),
    Message('note_on', channel=3, note=50, velocity=0, time=48),
    Message('note_on', channel=3, note=43, velocity=0, time=5),
    Message('note_on', channel=3, note=59, velocity=87, time=67),
    Message('note_on', channel=3, note=62, velocity=98, time=0),
    Message('note_on', channel=3, note=67, velocity=91, time=0),
    Message('note_on', channel=3, note=59, velocity=0, time=44),
    Message('note_on', channel=3, note=62, velocity=0, time=1),
    Message('note_on', channel=3, note=67, velocity=0, time=12),
    Message('note_on', channel=3, note=50, velocity=102, time=63),
    Message('note_on', channel=3, note=57, velocity=98, time=0),
    Message('control_change', channel=3, control=64, value=0, time=55),
    Message('control_change', channel=3, control=64, value=127, time=87),
    Message('note_on', channel=3, note=62, velocity=97, time=98),
    Message('note_on', channel=3, note=69, velocity=98, time=0),
    Message('note_on', channel=3, note=66, velocity=98, time=0),
    Message('note_on', channel=3, note=57, velocity=0, time=18),
    Message('note_on', channel=3, note=50, velocity=0, time=7),
    Message('note_on', channel=3, note=69, velocity=0, time=81),
    Message('note_on', channel=3, note=62, velocity=0, time=2),
    Message('note_on', channel=3, note=66, velocity=0, time=2),
    Message('note_on', channel=3, note=50, velocity=95, time=10),
    Message('note_on', channel=3, note=57, velocity=84, time=0),
    Message('note_on', channel=3, note=50, velocity=0, time=49),
    Message('note_on', channel=3, note=57, velocity=0, time=1),
    Message('note_on', channel=3, note=62, velocity=84, time=70),
    Message('note_on', channel=3, note=69, velocity=87, time=0),
    Message('note_on', channel=3, note=66, velocity=84, time=0),
    Message('note_on', channel=3, note=62, velocity=0, time=45),
    Message('note_on', channel=3, note=69, velocity=0, time=3),
    Message('note_on', channel=3, note=66, velocity=0, time=1),
    Message('note_on', channel=3, note=62, velocity=85, time=71),
    Message('note_on', channel=3, note=66, velocity=89, time=0),
    Message('note_on', channel=3, note=69, velocity=95, time=0),
    Message('note_on', channel=3, note=69, velocity=0, time=96),
    Message('note_on', channel=3, note=62, velocity=0, time=18),
    Message('note_on', channel=3, note=66, velocity=0, time=3),
    Message('note_on', channel=3, note=50, velocity=97, time=3),
    Message('note_on', channel=3, note=57, velocity=89, time=0),
    Message('note_on', channel=3, note=57, velocity=0, time=51),
    Message('note_on', channel=3, note=50, velocity=0, time=13),
    Message('note_on', channel=3, note=62, velocity=85, time=56),
    Message('note_on', channel=3, note=66, velocity=92, time=0),
    Message('note_on', channel=3, note=62, velocity=0, time=87),
    Message('note_on', channel=3, note=66, velocity=0, time=8),
    Message('note_on', channel=3, note=55, velocity=98, time=25),
    Message('note_on', channel=3, note=55, velocity=0, time=46),
    Message('control_change', channel=3, control=64, value=0, time=55),
    Message('note_on', channel=3, note=55, velocity=101, time=19),
    Message('note_on', channel=3, note=48, velocity=101, time=0),
    Message('note_on', channel=3, note=64, velocity=95, time=0),
    Message('note_on', channel=3, note=67, velocity=84, time=0),
    Message('note_on', channel=3, note=60, velocity=85, time=0),
    Message('control_change', channel=3, control=64, value=127, time=75),
    Message('note_on', channel=3, note=60, velocity=0, time=32),
    Message('note_on', channel=3, note=64, velocity=0, time=1),
    Message('note_on', channel=3, note=67, velocity=0, time=8),
    Message('note_on', channel=3, note=55, velocity=0, time=118),
    Message('note_on', channel=3, note=48, velocity=0, time=2),
    Message('note_on', channel=3, note=67, velocity=89, time=4),
    Message('note_on', channel=3, note=64, velocity=92, time=0),
    Message('note_on', channel=3, note=60, velocity=85, time=0),
    Message('note_on', channel=3, note=64, velocity=0, time=111),
    Message('note_on', channel=3, note=67, velocity=0, time=0),
    Message('note_on', channel=3, note=60, velocity=0, time=4),
    Message('note_on', channel=3, note=48, velocity=80, time=5),
    Message('note_on', channel=3, note=55, velocity=87, time=0),
    Message('note_on', channel=3, note=48, velocity=0, time=37),
    Message('note_on', channel=3, note=55, velocity=0, time=14),
    Message('note_on', channel=3, note=64, velocity=87, time=69),
    Message('note_on', channel=3, note=60, velocity=84, time=0),
    Message('note_on', channel=3, note=67, velocity=85, time=0),
    Message('note_on', channel=3, note=64, velocity=0, time=43),
    Message('note_on', channel=3, note=60, velocity=0, time=4),
    Message('note_on', channel=3, note=67, velocity=0, time=5),
    Message('note_on', channel=3, note=64, velocity=101, time=68),
    Message('note_on', channel=3, note=67, velocity=95, time=0),
    Message('note_on', channel=3, note=60, velocity=95, time=0),
    Message('note_on', channel=3, note=64, velocity=0, time=76),
    Message('note_on', channel=3, note=67, velocity=0, time=1),
    Message('note_on', channel=3, note=60, velocity=0, time=3),
    Message('note_on', channel=3, note=64, velocity=92, time=160),
    Message('note_on', channel=3, note=60, velocity=91, time=0),
    Message('note_on', channel=3, note=67, velocity=89, time=0),
    Message('note_on', channel=3, note=64, velocity=0, time=39),
    Message('note_on', channel=3, note=60, velocity=0, time=7),
    Message('note_on', channel=3, note=67, velocity=0, time=15),
    Message('control_change', channel=3, control=64, value=0, time=23),
    Message('note_on', channel=3, note=59, velocity=84, time=36),
    Message('note_on', channel=3, note=62, velocity=98, time=0),
    Message('note_on', channel=3, note=67, velocity=89, time=0),
    Message('note_on', channel=3, note=50, velocity=85, time=0),
    Message('note_on', channel=3, note=43, velocity=89, time=0),
    Message('control_change', channel=3, control=64, value=127, time=70),
    Message('note_on', channel=3, note=67, velocity=0, time=89),
    Message('note_on', channel=3, note=59, velocity=0, time=3),
    Message('note_on', channel=3, note=62, velocity=0, time=4),
    Message('note_on', channel=3, note=50, velocity=0, time=68),
    Message('note_on', channel=3, note=43, velocity=0, time=2),
    Message('note_on', channel=3, note=62, velocity=95, time=4),
    Message('note_on', channel=3, note=67, velocity=85, time=0),
    Message('note_on', channel=3, note=59, velocity=87, time=0),
    Message('note_on', channel=3, note=62, velocity=0, time=40),
    Message('note_on', channel=3, note=59, velocity=0, time=7),
    Message('note_on', channel=3, note=67, velocity=0, time=4),
    Message('note_on', channel=3, note=67, velocity=74, time=69),
    Message('note_on', channel=3, note=62, velocity=81, time=0),
    Message('note_on', channel=3, note=59, velocity=68, time=0),
    Message('note_on', channel=3, note=67, velocity=0, time=34),
    Message('note_on', channel=3, note=62, velocity=0, time=4),
    Message('note_on', channel=3, note=59, velocity=0, time=5),
    Message('note_on', channel=3, note=43, velocity=89, time=17),
    Message('note_on', channel=3, note=50, velocity=92, time=0),
    Message('note_on', channel=3, note=43, velocity=0, time=36),
    Message('note_on', channel=3, note=50, velocity=0, time=1),
    Message('note_on', channel=3, note=62, velocity=92, time=23),
    Message('note_on', channel=3, note=59, velocity=81, time=0),
    Message('note_on', channel=3, note=67, velocity=84, time=0),
    Message('note_on', channel=3, note=62, velocity=0, time=78),
    Message('note_on', channel=3, note=59, velocity=0, time=4),
    Message('note_on', channel=3, note=67, velocity=0, time=7),
    Message('note_on', channel=3, note=43, velocity=87, time=31),
    Message('note_on', channel=3, note=50, velocity=97, time=0),
    Message('note_on', channel=3, note=50, velocity=0, time=52),
    Message('note_on', channel=3, note=43, velocity=0, time=1),
    Message('note_on', channel=3, note=59, velocity=89, time=67),
    Message('note_on', channel=3, note=62, velocity=98, time=0),
    Message('note_on', channel=3, note=67, velocity=92, time=0),
    Message('note_on', channel=3, note=62, velocity=0, time=53),
    Message('note_on', channel=3, note=59, velocity=0, time=1),
    Message('note_on', channel=3, note=67, velocity=0, time=2),
    Message('note_on', channel=3, note=43, velocity=85, time=64),
    Message('note_on', channel=3, note=50, velocity=97, time=0),
    Message('note_on', channel=3, note=50, velocity=0, time=42),
    Message('note_on', channel=3, note=43, velocity=0, time=8),
    Message('control_change', channel=3, control=64, value=0, time=51),
    Message('note_on', channel=3, note=52, velocity=89, time=19),
    Message('note_on', channel=3, note=55, velocity=101, time=0),
    Message('note_on', channel=3, note=59, velocity=89, time=0),
    Message('control_change', channel=3, control=64, value=127, time=70),
    Message('note_on', channel=3, note=52, velocity=0, time=86),
    Message('note_on', channel=3, note=59, velocity=0, time=2),
    Message('note_on', channel=3, note=55, velocity=0, time=7),
    Message('note_on', channel=3, note=52, velocity=95, time=75),
    Message('note_on', channel=3, note=55, velocity=101, time=0),
    Message('note_on', channel=3, note=59, velocity=95, time=0),
    Message('note_on', channel=3, note=52, velocity=0, time=76),
    Message('note_on', channel=3, note=55, velocity=0, time=4),
    Message('note_on', channel=3, note=59, velocity=0, time=9),
    Message('note_on', channel=3, note=40, velocity=92, time=31),
    Message('note_on', channel=3, note=40, velocity=0, time=52),
    Message('note_on', channel=3, note=52, velocity=81, time=68),
    Message('note_on', channel=3, note=55, velocity=98, time=0),
    Message('note_on', channel=3, note=59, velocity=95, time=0),
    Message('note_on', channel=3, note=55, velocity=0, time=39),
    Message('note_on', channel=3, note=52, velocity=0, time=2),
    Message('note_on', channel=3, note=59, velocity=0, time=7),
    Message('note_on', channel=3, note=55, velocity=98, time=72),
    Message('note_on', channel=3, note=59, velocity=95, time=0),
    Message('note_on', channel=3, note=52, velocity=87, time=0),
    Message('note_on', channel=3, note=52, velocity=0, time=52),
    Message('note_on', channel=3, note=55, velocity=0, time=5),
    Message('note_on', channel=3, note=59, velocity=0, time=4),
    Message('note_on', channel=3, note=55, velocity=105, time=179),
    Message('note_on', channel=3, note=52, velocity=95, time=0),
    Message('note_on', channel=3, note=59, velocity=97, time=0),
    Message('note_on', channel=3, note=52, velocity=0, time=54),
    Message('note_on', channel=3, note=55, velocity=0, time=2),
    Message('note_on', channel=3, note=59, velocity=0, time=8),
    Message('note_on', channel=3, note=52, velocity=89, time=176),
    Message('note_on', channel=3, note=55, velocity=101, time=0),
    Message('note_on', channel=3, note=59, velocity=95, time=0),
    Message('note_on', channel=3, note=52, velocity=0, time=61),
    Message('note_on', channel=3, note=55, velocity=0, time=1),
    Message('note_on', channel=3, note=59, velocity=0, time=11),
    Message('note_on', channel=3, note=40, velocity=89, time=47),
    Message('note_on', channel=3, note=40, velocity=0, time=40),
    Message('note_on', channel=3, note=52, velocity=84, time=80),
    Message('note_on', channel=3, note=55, velocity=98, time=0),
    Message('note_on', channel=3, note=59, velocity=87, time=0),
    Message('note_on', channel=3, note=52, velocity=0, time=40),
    Message('note_on', channel=3, note=55, velocity=0, time=2),
    Message('note_on', channel=3, note=59, velocity=0, time=6),
    Message('note_on', channel=3, note=52, velocity=91, time=72),
    Message('note_on', channel=3, note=55, velocity=101, time=0),
    Message('note_on', channel=3, note=59, velocity=95, time=0),
    Message('note_on', channel=3, note=52, velocity=0, time=52),
    Message('note_on', channel=3, note=55, velocity=0, time=5),
    Message('note_on', channel=3, note=59, velocity=0, time=9),
    Message('note_on', channel=3, note=52, velocity=95, time=54),
    Message('note_on', channel=3, note=52, velocity=0, time=53),
    Message('note_on', channel=3, note=55, velocity=101, time=67),
    Message('note_on', channel=3, note=59, velocity=98, time=0),
    Message('note_on', channel=3, note=52, velocity=95, time=0),
    Message('note_on', channel=3, note=52, velocity=0, time=47),
    Message('note_on', channel=3, note=55, velocity=0, time=8),
    Message('note_on', channel=3, note=59, velocity=0, time=7),
    Message('control_change', channel=3, control=64, value=0, time=166),
    Message('note_on', channel=3, note=60, velocity=91, time=12),
    Message('note_on', channel=3, note=64, velocity=95, time=0),
    Message('note_on', channel=3, note=55, velocity=98, time=0),
    Message('note_on', channel=3, note=48, velocity=101, time=0),
    Message('control_change', channel=3, control=64, value=127, time=87),
    Message('note_on', channel=3, note=60, velocity=0, time=21),
    Message('note_on', channel=3, note=64, velocity=0, time=14),
    Message('note_on', channel=3, note=55, velocity=0, time=86),
    Message('note_on', channel=3, note=48, velocity=0, time=2),
    Message('note_on', channel=3, note=60, velocity=78, time=30),
    Message('note_on', channel=3, note=64, velocity=92, time=0),
    Message('note_on', channel=3, note=60, velocity=0, time=95),
    Message('note_on', channel=3, note=64, velocity=0, time=1),
    Message('note_on', channel=3, note=48, velocity=80, time=24),
    Message('note_on', channel=3, note=55, velocity=87, time=0),
    Message('note_on', channel=3, note=48, velocity=0, time=40),
    Message('note_on', channel=3, note=55, velocity=0, time=9),
    Message('note_on', channel=3, note=60, velocity=69, time=71),
    Message('note_on', channel=3, note=64, velocity=84, time=0),
    Message('note_on', channel=3, note=60, velocity=0, time=47),
    Message('note_on', channel=3, note=64, velocity=0, time=2),
    Message('note_on', channel=3, note=60, velocity=89, time=71),
    Message('note_on', channel=3, note=64, velocity=95, time=0),
    Message('note_on', channel=3, note=60, velocity=0, time=53),
    Message('note_on', channel=3, note=64, velocity=0, time=6),
    Message('note_on', channel=3, note=60, velocity=89, time=61),
    Message('note_on', channel=3, note=64, velocity=97, time=0),
    Message('note_on', channel=3, note=64, velocity=0, time=44),
    Message('note_on', channel=3, note=60, velocity=0, time=6),
    Message('note_on', channel=3, note=43, velocity=101, time=70),
    Message('note_on', channel=3, note=50, velocity=105, time=0),
    Message('control_change', channel=3, control=64, value=0, time=36),
    Message('note_on', channel=3, note=55, velocity=80, time=84),
    Message('note_on', channel=3, note=62, velocity=91, time=0),
    Message('note_on', channel=3, note=59, velocity=95, time=0),
    Message('note_on', channel=3, note=50, velocity=0, time=7),
    Message('note_on', channel=3, note=43, velocity=0, time=4),
    Message('control_change', channel=3, control=64, value=127, time=6),
    Message('note_on', channel=3, note=55, velocity=0, time=105),
    Message('note_on', channel=3, note=59, velocity=0, time=3),
    Message('note_on', channel=3, note=62, velocity=0, time=5),
    Message('note_on', channel=3, note=55, velocity=43, time=50),
    Message('note_on', channel=3, note=55, velocity=0, time=19),
    Message('note_on', channel=3, note=43, velocity=98, time=41),
    Message('note_on', channel=3, note=43, velocity=0, time=95),
    Message('note_on', channel=3, note=55, velocity=95, time=25),
    Message('note_on', channel=3, note=62, velocity=98, time=0),
    Message('note_on', channel=3, note=59, velocity=101, time=0),
    Message('note_on', channel=3, note=55, velocity=0, time=57),
    Message('note_on', channel=3, note=59, velocity=0, time=1),
    Message('note_on', channel=3, note=62, velocity=0, time=8),
    Message('note_on', channel=3, note=43, velocity=87, time=54),
    Message('note_on', channel=3, note=43, velocity=0, time=72),
    Message('note_on', channel=3, note=62, velocity=89, time=48),
    Message('note_on', channel=3, note=59, velocity=92, time=0),
    Message('note_on', channel=3, note=55, velocity=89, time=0),
    Message('note_on', channel=3, note=59, velocity=0, time=41),
    Message('note_on', channel=3, note=62, velocity=0, time=1),
    Message('note_on', channel=3, note=55, velocity=0, time=3),
    Message('note_on', channel=3, note=55, velocity=84, time=75),
    Message('note_on', channel=3, note=59, velocity=98, time=0),
    Message('note_on', channel=3, note=62, velocity=98, time=0),
    Message('note_on', channel=3, note=55, velocity=0, time=63),
    Message('note_on', channel=3, note=59, velocity=0, time=33),
    Message('note_on', channel=3, note=62, velocity=0, time=10),
    Message('note_on', channel=3, note=52, velocity=95, time=14),
    Message('note_on', channel=3, note=52, velocity=0, time=45),
    Message('control_change', channel=3, control=64, value=0, time=35),
    Message('note_on', channel=3, note=60, velocity=98, time=40),
    Message('note_on', channel=3, note=57, velocity=89, time=0),
    Message('note_on', channel=3, note=45, velocity=101, time=0),
    Message('note_on', channel=3, note=64, velocity=97, time=0),
    Message('control_change', channel=3, control=64, value=127, time=54),
    Message('note_on', channel=3, note=57, velocity=0, time=45),
    Message('note_on', channel=3, note=60, velocity=0, time=0),
    Message('note_on', channel=3, note=64, velocity=0, time=5),
    Message('note_on', channel=3, note=52, velocity=89, time=76),
    Message('note_on', channel=3, note=60, velocity=81, time=0),
    Message('note_on', channel=3, note=64, velocity=78, time=0),
    Message('note_on', channel=3, note=57, velocity=69, time=0),
    Message('note_on', channel=3, note=45, velocity=0, time=2),
    Message('note_on', channel=3, note=60, velocity=0, time=24),
    Message('note_on', channel=3, note=64, velocity=0, time=4),
    Message('note_on', channel=3, note=57, velocity=0, time=5),
    Message('note_on', channel=3, note=52, velocity=0, time=8),
    Message('note_on', channel=3, note=60, velocity=95, time=137),
    Message('note_on', channel=3, note=57, velocity=89, time=0),
    Message('note_on', channel=3, note=64, velocity=84, time=0),
    Message('note_on', channel=3, note=60, velocity=0, time=68),
    Message('note_on', channel=3, note=57, velocity=0, time=2),
    Message('note_on', channel=3, note=64, velocity=0, time=5),
    Message('note_on', channel=3, note=45, velocity=97, time=45),
    Message('note_on', channel=3, note=45, velocity=0, time=81),
    Message('note_on', channel=3, note=60, velocity=95, time=39),
    Message('note_on', channel=3, note=64, velocity=87, time=0),
    Message('note_on', channel=3, note=57, velocity=84, time=0),
    Message('note_on', channel=3, note=60, velocity=0, time=40),
    Message('note_on', channel=3, note=57, velocity=0, time=8),
    Message('note_on', channel=3, note=64, velocity=0, time=0),
    Message('note_on', channel=3, note=60, velocity=98, time=72),
    Message('note_on', channel=3, note=64, velocity=97, time=0),
    Message('note_on', channel=3, note=57, velocity=87, time=0),
    Message('note_on', channel=3, note=57, velocity=0, time=51),
    Message('note_on', channel=3, note=60, velocity=0, time=5),
    Message('note_on', channel=3, note=64, velocity=0, time=20),
    Message('note_on', channel=3, note=55, velocity=95, time=44),
    Message('note_on', channel=3, note=55, velocity=0, time=40),
    Message('control_change', channel=3, control=64, value=0, time=51),
    Message('note_on', channel=3, note=55, velocity=95, time=29),
    Message('note_on', channel=3, note=64, velocity=87, time=0),
    Message('note_on', channel=3, note=60, velocity=85, time=0),
    Message('note_on', channel=3, note=67, velocity=85, time=0),
    Message('note_on', channel=3, note=48, velocity=97, time=0),
    Message('note_on', channel=3, note=64, velocity=0, time=43),
    Message('note_on', channel=3, note=60, velocity=0, time=5),
    Message('control_change', channel=3, control=64, value=127, time=8),
    Message('note_on', channel=3, note=67, velocity=0, time=2),
    Message('note_on', channel=3, note=55, velocity=0, time=32),
    Message('note_on', channel=3, note=48, velocity=0, time=6),
    Message('note_on', channel=3, note=67, velocity=69, time=24),
    Message('note_on', channel=3, note=60, velocity=65, time=0),
    Message('note_on', channel=3, note=64, velocity=84, time=0),
    Message('note_on', channel=3, note=64, velocity=0, time=31),
    Message('note_on', channel=3, note=67, velocity=0, time=1),
    Message('note_on', channel=3, note=60, velocity=0, time=3),
    Message('note_on', channel=3, note=48, velocity=91, time=25),
    Message('note_on', channel=3, note=55, velocity=97, time=0),
    Message('note_on', channel=3, note=48, velocity=0, time=28),
    Message('note_on', channel=3, note=55, velocity=0, time=13),
    Message('note_on', channel=3, note=64, velocity=89, time=19),
    Message('note_on', channel=3, note=67, velocity=84, time=0),
    Message('note_on', channel=3, note=60, velocity=85, time=0),
    Message('note_on', channel=3, note=64, velocity=0, time=46),
    Message('note_on', channel=3, note=60, velocity=0, time=6),
    Message('note_on', channel=3, note=67, velocity=0, time=13),
    Message('note_on', channel=3, note=55, velocity=101, time=55),
    Message('note_on', channel=3, note=48, velocity=98, time=0),
    Message('note_on', channel=3, note=55, velocity=0, time=42),
    Message('note_on', channel=3, note=48, velocity=0, time=2),
    Message('note_on', channel=3, note=60, velocity=80, time=76),
    Message('note_on', channel=3, note=67, velocity=84, time=0),
    Message('note_on', channel=3, note=64, velocity=92, time=0),
    Message('note_on', channel=3, note=60, velocity=0, time=55),
    Message('note_on', channel=3, note=64, velocity=0, time=2),
    Message('note_on', channel=3, note=67, velocity=0, time=5),
    Message('note_on', channel=3, note=55, velocity=91, time=58),
    Message('note_on', channel=3, note=48, velocity=92, time=0),
    Message('note_on', channel=3, note=48, velocity=0, time=44),
    Message('note_on', channel=3, note=55, velocity=0, time=3),
    Message('note_on', channel=3, note=60, velocity=80, time=73),
    Message('note_on', channel=3, note=67, velocity=84, time=0),
    Message('note_on', channel=3, note=64, velocity=95, time=0),
    Message('note_on', channel=3, note=67, velocity=0, time=36),
    Message('note_on', channel=3, note=64, velocity=0, time=2),
    Message('note_on', channel=3, note=60, velocity=0, time=10),
    Message('control_change', channel=3, control=64, value=0, time=166),
    Message('note_on', channel=3, note=52, velocity=92, time=26),
    Message('note_on', channel=3, note=55, velocity=101, time=0),
    Message('note_on', channel=3, note=59, velocity=95, time=0),
    Message('control_change', channel=3, control=64, value=127, time=57),
    Message('note_on', channel=3, note=52, velocity=0, time=86),
    Message('note_on', channel=3, note=55, velocity=0, time=13),
    Message('note_on', channel=3, note=59, velocity=0, time=4),
    Message('note_on', channel=3, note=40, velocity=92, time=80),
    Message('note_on', channel=3, note=40, velocity=0, time=49),
    Message('note_on', channel=3, note=52, velocity=92, time=71),
    Message('note_on', channel=3, note=55, velocity=101, time=0),
    Message('note_on', channel=3, note=59, velocity=98, time=0),
    Message('note_on', channel=3, note=52, velocity=0, time=44),
    Message('note_on', channel=3, note=55, velocity=0, time=3),
    Message('note_on', channel=3, note=59, velocity=0, time=11),
    Message('note_on', channel=3, note=52, velocity=92, time=62),
    Message('note_on', channel=3, note=55, velocity=101, time=0),
    Message('note_on', channel=3, note=59, velocity=97, time=0),
    Message('note_on', channel=3, note=52, velocity=0, time=82),
    Message('note_on', channel=3, note=55, velocity=0, time=6),
    Message('note_on', channel=3, note=59, velocity=0, time=4),
    Message('note_on', channel=3, note=40, velocity=89, time=28),
    Message('note_on', channel=3, note=40, velocity=0, time=44),
    Message('note_on', channel=3, note=52, velocity=89, time=76),
    Message('note_on', channel=3, note=55, velocity=98, time=0),
    Message('note_on', channel=3, note=59, velocity=97, time=0),
    Message('note_on', channel=3, note=52, velocity=0, time=41),
    Message('note_on', channel=3, note=55, velocity=0, time=2),
    Message('note_on', channel=3, note=59, velocity=0, time=3),
    Message('note_on', channel=3, note=55, velocity=105, time=74),
    Message('note_on', channel=3, note=52, velocity=97, time=0),
    Message('note_on', channel=3, note=59, velocity=98, time=0),
    Message('note_on', channel=3, note=55, velocity=0, time=61),
    Message('note_on', channel=3, note=52, velocity=0, time=10),
    Message('note_on', channel=3, note=59, velocity=0, time=7),
    Message('note_on', channel=3, note=52, velocity=81, time=42),
    Message('note_on', channel=3, note=59, velocity=81, time=0),
    Message('note_on', channel=3, note=40, velocity=81, time=0),
    Message('note_on', channel=3, note=55, velocity=87, time=0),
    Message('note_on', channel=3, note=52, velocity=0, time=186),
    Message('note_on', channel=3, note=59, velocity=0, time=1),
    Message('note_on', channel=3, note=55, velocity=0, time=5),
    Message('control_change', channel=3, control=64, value=127, time=14),
    Message('note_on', channel=3, note=52, velocity=69, time=34),
    Message('note_on', channel=3, note=59, velocity=73, time=0),
    Message('note_on', channel=3, note=55, velocity=85, time=0),
    Message('note_on', channel=3, note=40, velocity=0, time=20),
    Message('note_on', channel=3, note=40, velocity=98, time=100),
    Message('note_on', channel=3, note=52, velocity=0, time=17),
    Message('note_on', channel=3, note=59, velocity=0, time=4),
    Message('note_on', channel=3, note=55, velocity=0, time=9),
    Message('note_on', channel=3, note=40, velocity=0, time=42),
    Message('note_on', channel=3, note=55, velocity=101, time=48),
    Message('note_on', channel=3, note=52, velocity=92, time=0),
    Message('note_on', channel=3, note=59, velocity=97, time=0),
    Message('note_on', channel=3, note=52, velocity=0, time=46),
    Message('note_on', channel=3, note=55, velocity=0, time=0),
    Message('note_on', channel=3, note=59, velocity=0, time=6),
    Message('note_on', channel=3, note=52, velocity=98, time=68),
    Message('note_on', channel=3, note=59, velocity=101, time=0),
    Message('note_on', channel=3, note=55, velocity=108, time=0),
    Message('note_on', channel=3, note=52, velocity=0, time=38),
    Message('note_on', channel=3, note=55, velocity=0, time=6),
    Message('note_on', channel=3, note=59, velocity=0, time=7),
    Message('control_change', channel=3, control=64, value=0, time=112),
    Message('note_on', channel=3, note=60, velocity=105, time=77),
    Message('note_on', channel=3, note=64, velocity=110, time=0),
    Message('note_on', channel=3, note=48, velocity=108, time=0),
    Message('note_on', channel=3, note=55, velocity=108, time=0),
    Message('control_change', channel=3, control=64, value=127, time=310),
    Message('note_on', channel=3, note=60, velocity=0, time=2),
    Message('note_on', channel=3, note=64, velocity=0, time=2),
    Message('note_on', channel=3, note=60, velocity=92, time=46),
    Message('note_on', channel=3, note=64, velocity=98, time=0),
    Message('note_on', channel=3, note=48, velocity=0, time=38),
    Message('note_on', channel=3, note=55, velocity=0, time=1),
    Message('note_on', channel=3, note=60, velocity=0, time=9),
    Message('note_on', channel=3, note=64, velocity=0, time=6),
    Message('note_on', channel=3, note=60, velocity=74, time=66),
    Message('note_on', channel=3, note=64, velocity=85, time=0),
    Message('note_on', channel=3, note=60, velocity=0, time=41),
    Message('note_on', channel=3, note=64, velocity=0, time=6),
    Message('note_on', channel=3, note=55, velocity=97, time=13),
    Message('note_on', channel=3, note=48, velocity=98, time=0),
    Message('note_on', channel=3, note=55, velocity=0, time=45),
    Message('note_on', channel=3, note=48, velocity=0, time=6),
    Message('note_on', channel=3, note=60, velocity=92, time=9),
    Message('note_on', channel=3, note=64, velocity=97, time=0),
    Message('note_on', channel=3, note=60, velocity=0, time=96),
    Message('note_on', channel=3, note=64, velocity=0, time=10),
    Message('note_on', channel=3, note=48, velocity=97, time=14),
    Message('note_on', channel=3, note=55, velocity=101, time=0),
    Message('note_on', channel=3, note=55, velocity=0, time=51),
    Message('note_on', channel=3, note=48, velocity=0, time=6),
    Message('note_on', channel=3, note=64, velocity=97, time=63),
    Message('note_on', channel=3, note=60, velocity=95, time=0),
    Message('note_on', channel=3, note=64, velocity=0, time=79),
    Message('note_on', channel=3, note=60, velocity=0, time=11),
    Message('control_change', channel=3, control=64, value=0, time=131),
    Message('note_on', channel=3, note=50, velocity=84, time=19),
    Message('note_on', channel=3, note=43, velocity=85, time=0),
    Message('note_on', channel=3, note=62, velocity=87, time=0),
    Message('note_on', channel=3, note=55, velocity=89, time=0),
    Message('note_on', channel=3, note=59, velocity=89, time=0),
    Message('control_change', channel=3, control=64, value=127, time=151),
    Message('note_on', channel=3, note=62, velocity=0, time=5),
    Message('note_on', channel=3, note=55, velocity=0, time=4),
    Message('note_on', channel=3, note=59, velocity=0, time=4),
    Message('note_on', channel=3, note=50, velocity=0, time=60),
    Message('note_on', channel=3, note=43, velocity=0, time=5),
    Message('note_on', channel=3, note=62, velocity=89, time=11),
    Message('note_on', channel=3, note=55, velocity=85, time=0),
    Message('note_on', channel=3, note=59, velocity=91, time=0),
    Message('note_on', channel=3, note=62, velocity=0, time=79),
    Message('note_on', channel=3, note=59, velocity=0, time=6),
    Message('note_on', channel=3, note=55, velocity=0, time=0),
    Message('note_on', channel=3, note=50, velocity=87, time=35),
    Message('note_on', channel=3, note=43, velocity=85, time=0),
    Message('note_on', channel=3, note=50, velocity=0, time=40),
    Message('note_on', channel=3, note=43, velocity=0, time=2),
    Message('note_on', channel=3, note=62, velocity=97, time=78),
    Message('note_on', channel=3, note=59, velocity=97, time=0),
    Message('note_on', channel=3, note=55, velocity=87, time=0),
    Message('note_on', channel=3, note=59, velocity=0, time=40),
    Message('note_on', channel=3, note=55, velocity=0, time=3),
    Message('note_on', channel=3, note=62, velocity=0, time=0),
    Message('note_on', channel=3, note=62, velocity=98, time=77),
    Message('note_on', channel=3, note=55, velocity=97, time=0),
    Message('note_on', channel=3, note=59, velocity=105, time=0),
    Message('note_on', channel=3, note=55, velocity=0, time=44),
    Message('note_on', channel=3, note=62, velocity=0, time=0),
    Message('note_on', channel=3, note=59, velocity=0, time=1),
    Message('note_on', channel=3, note=62, velocity=101, time=75),
    Message('note_on', channel=3, note=55, velocity=97, time=0),
    Message('note_on', channel=3, note=59, velocity=101, time=0),
    Message('note_on', channel=3, note=59, velocity=0, time=39),
    Message('note_on', channel=3, note=55, velocity=0, time=0),
    Message('note_on', channel=3, note=62, velocity=0, time=6),
    Message('control_change', channel=3, control=64, value=0, time=40),
    Message('note_on', channel=3, note=52, velocity=105, time=35),
    Message('note_on', channel=3, note=55, velocity=105, time=0),
    Message('note_on', channel=3, note=48, velocity=105, time=0),
    Message('control_change', channel=3, control=64, value=127, time=342),
    Message('note_on', channel=3, note=60, velocity=91, time=18),
    Message('note_on', channel=3, note=64, velocity=95, time=0),
    Message('note_on', channel=3, note=52, velocity=0, time=35),
    Message('note_on', channel=3, note=55, velocity=0, time=4),
    Message('note_on', channel=3, note=48, velocity=0, time=0),
    Message('note_on', channel=3, note=60, velocity=0, time=7),
    Message('note_on', channel=3, note=64, velocity=0, time=1),
    Message('note_on', channel=3, note=60, velocity=84, time=73),
    Message('note_on', channel=3, note=64, velocity=92, time=0),
    Message('note_on', channel=3, note=64, velocity=0, time=45),
    Message('note_on', channel=3, note=60, velocity=0, time=0),
    Message('note_on', channel=3, note=52, velocity=85, time=15),
    Message('note_on', channel=3, note=48, velocity=97, time=0),
    Message('note_on', channel=3, note=55, velocity=95, time=0),
    Message('note_on', channel=3, note=52, velocity=0, time=43),
    Message('note_on', channel=3, note=48, velocity=0, time=1),
    Message('note_on', channel=3, note=55, velocity=0, time=4),
    Message('note_on', channel=3, note=60, velocity=89, time=12),
    Message('note_on', channel=3, note=64, velocity=95, time=0),
    Message('note_on', channel=3, note=60, velocity=0, time=60),
    Message('note_on', channel=3, note=64, velocity=0, time=7),
    Message('note_on', channel=3, note=52, velocity=97, time=53),
    Message('note_on', channel=3, note=48, velocity=98, time=0),
    Message('note_on', channel=3, note=55, velocity=98, time=0),
    Message('note_on', channel=3, note=52, velocity=0, time=69),
    Message('note_on', channel=3, note=55, velocity=0, time=3),
    Message('note_on', channel=3, note=48, velocity=0, time=5),
    Message('note_on', channel=3, note=64, velocity=101, time=43),
    Message('note_on', channel=3, note=60, velocity=95, time=0),
    Message('note_on', channel=3, note=64, velocity=0, time=42),
    Message('note_on', channel=3, note=60, velocity=0, time=2),
    Message('control_change', channel=3, control=64, value=0, time=92),
    Message('note_on', channel=3, note=55, velocity=66, time=104),
    Message('note_on', channel=3, note=50, velocity=84, time=0),
    Message('note_on', channel=3, note=59, velocity=89, time=0),
    Message('note_on', channel=3, note=43, velocity=84, time=0),
    Message('control_change', channel=3, control=64, value=127, time=24),
    Message('note_on', channel=3, note=59, velocity=0, time=34),
    Message('note_on', channel=3, note=55, velocity=0, time=4),
    Message('note_on', channel=3, note=50, velocity=0, time=10),
    Message('note_on', channel=3, note=43, velocity=0, time=5),
    Message('note_on', channel=3, note=55, velocity=55, time=43),
    Message('note_on', channel=3, note=59, velocity=71, time=0),
    Message('note_on', channel=3, note=55, velocity=0, time=39),
    Message('note_on', channel=3, note=59, velocity=0, time=7),
    Message('note_on', channel=3, note=43, velocity=78, time=14),
    Message('note_on', channel=3, note=50, velocity=85, time=0),
    Message('note_on', channel=3, note=50, velocity=0, time=35),
    Message('note_on', channel=3, note=43, velocity=0, time=3),
    Message('note_on', channel=3, note=55, velocity=74, time=22),
    Message('note_on', channel=3, note=59, velocity=91, time=0),
    Message('note_on', channel=3, note=55, velocity=0, time=51),
    Message('note_on', channel=3, note=59, velocity=0, time=3),
    Message('note_on', channel=3, note=50, velocity=84, time=66),
    Message('note_on', channel=3, note=43, velocity=78, time=0),
    Message('note_on', channel=3, note=50, velocity=0, time=40),
    Message('note_on', channel=3, note=43, velocity=0, time=12),
    Message('note_on', channel=3, note=59, velocity=87, time=68),
    Message('note_on', channel=3, note=55, velocity=84, time=0),
    Message('note_on', channel=3, note=55, velocity=0, time=58),
    Message('note_on', channel=3, note=59, velocity=0, time=4),
    Message('note_on', channel=3, note=50, velocity=85, time=58),
    Message('note_on', channel=3, note=43, velocity=91, time=0),
    Message('note_on', channel=3, note=50, velocity=0, time=47),
    Message('note_on', channel=3, note=43, velocity=0, time=16),
    Message('note_on', channel=3, note=55, velocity=89, time=57),
    Message('note_on', channel=3, note=59, velocity=97, time=0),
    Message('note_on', channel=3, note=55, velocity=0, time=44),
    Message('note_on', channel=3, note=59, velocity=0, time=5),
    Message('note_on', channel=3, note=59, velocity=85, time=71),
    Message('note_on', channel=3, note=55, velocity=80, time=0),
    Message('note_on', channel=3, note=55, velocity=0, time=42),
    Message('note_on', channel=3, note=59, velocity=0, time=3),
    Message('control_change', channel=3, control=64, value=0, time=39),
    Message('note_on', channel=3, note=57, velocity=85, time=36),
    Message('note_on', channel=3, note=60, velocity=95, time=0),
    Message('note_on', channel=3, note=52, velocity=81, time=0),
    Message('note_on', channel=3, note=45, velocity=87, time=0),
    Message('control_change', channel=3, control=64, value=127, time=58),
    Message('note_on', channel=3, note=57, velocity=0, time=99),
    Message('note_on', channel=3, note=60, velocity=0, time=2),
    Message('note_on', channel=3, note=52, velocity=0, time=30),
    Message('note_on', channel=3, note=45, velocity=0, time=7),
    Message('note_on', channel=3, note=57, velocity=84, time=44),
    Message('note_on', channel=3, note=60, velocity=97, time=0),
    Message('note_on', channel=3, note=57, velocity=0, time=64),
    Message('note_on', channel=3, note=60, velocity=0, time=4),
    Message('note_on', channel=3, note=52, velocity=74, time=52),
    Message('note_on', channel=3, note=45, velocity=85, time=0),
    Message('note_on', channel=3, note=52, velocity=0, time=34),
    Message('note_on', channel=3, note=45, velocity=0, time=18),
    Message('note_on', channel=3, note=57, velocity=76, time=68),
    Message('note_on', channel=3, note=60, velocity=91, time=0),
    Message('note_on', channel=3, note=60, velocity=0, time=40),
    Message('note_on', channel=3, note=57, velocity=0, time=3),
    Message('note_on', channel=3, note=60, velocity=97, time=77),
    Message('note_on', channel=3, note=57, velocity=85, time=0),
    Message('note_on', channel=3, note=57, velocity=0, time=80),
    Message('note_on', channel=3, note=60, velocity=0, time=8),
    Message('note_on', channel=3, note=52, velocity=69, time=32),
    Message('note_on', channel=3, note=45, velocity=85, time=0),
    Message('note_on', channel=3, note=52, velocity=0, time=42),
    Message('note_on', channel=3, note=45, velocity=0, time=16),
    Message('note_on', channel=3, note=60, velocity=84, time=62),
    Message('note_on', channel=3, note=57, velocity=73, time=0),
    Message('note_on', channel=3, note=57, velocity=0, time=56),
    Message('note_on', channel=3, note=60, velocity=0, time=1),
    Message('control_change', channel=3, control=64, value=0, time=30),
    Message('note_on', channel=3, note=52, velocity=78, time=33),
    Message('note_on', channel=3, note=55, velocity=87, time=0),
    Message('note_on', channel=3, note=48, velocity=95, time=0),
    Message('control_change', channel=3, control=64, value=127, time=53),
    Message('note_on', channel=3, note=52, velocity=0, time=51),
    Message('note_on', channel=3, note=55, velocity=0, time=4),
    Message('note_on', channel=3, note=48, velocity=0, time=7),
    Message('note_on', channel=3, note=60, velocity=62, time=5),
    Message('note_on', channel=3, note=60, velocity=0, time=40),
    Message('note_on', channel=3, note=48, velocity=81, time=20),
    Message('note_on', channel=3, note=52, velocity=84, time=0),
    Message('note_on', channel=3, note=55, velocity=85, time=0),
    Message('note_on', channel=3, note=48, velocity=0, time=33),
    Message('note_on', channel=3, note=52, velocity=0, time=4),
    Message('note_on', channel=3, note=55, velocity=0, time=6),
    Message('note_on', channel=3, note=60, velocity=89, time=17),
    Message('note_on', channel=3, note=60, velocity=0, time=70),
    Message('note_on', channel=3, note=52, velocity=95, time=50),
    Message('note_on', channel=3, note=55, velocity=98, time=0),
    Message('note_on', channel=3, note=48, velocity=98, time=0),
    Message('note_on', channel=3, note=52, velocity=0, time=58),
    Message('note_on', channel=3, note=55, velocity=0, time=2),
    Message('note_on', channel=3, note=48, velocity=0, time=8),
    Message('note_on', channel=3, note=60, velocity=101, time=52),
    Message('note_on', channel=3, note=60, velocity=0, time=63),
    Message('note_on', channel=3, note=52, velocity=87, time=57),
    Message('note_on', channel=3, note=48, velocity=92, time=0),
    Message('note_on', channel=3, note=55, velocity=92, time=0),
    Message('note_on', channel=3, note=52, velocity=0, time=60),
    Message('note_on', channel=3, note=55, velocity=0, time=2),
    Message('note_on', channel=3, note=48, velocity=0, time=8),
    Message('note_on', channel=3, note=60, velocity=97, time=50),
    Message('note_on', channel=3, note=60, velocity=0, time=46),
    Message('control_change', channel=3, control=64, value=0, time=66),
    Message('note_on', channel=3, note=62, velocity=105, time=8),
    Message('note_on', channel=3, note=55, velocity=102, time=0),
    Message('note_on', channel=3, note=59, velocity=105, time=0),
    Message('note_on', channel=3, note=55, velocity=0, time=1605),
    Message('note_on', channel=3, note=62, velocity=0, time=12),
    Message('note_on', channel=3, note=59, velocity=0, time=1),
    Message('note_on', channel=3, note=64, velocity=92, time=422),
    Message('note_on', channel=3, note=55, velocity=87, time=0),
    Message('note_on', channel=3, note=60, velocity=105, time=0),
    Message('note_on', channel=3, note=48, velocity=98, time=0),
    Message('note_on', channel=3, note=55, velocity=0, time=96),
    Message('note_on', channel=3, note=64, velocity=0, time=0),
    Message('note_on', channel=3, note=60, velocity=0, time=3),
    Message('control_change', channel=3, control=64, value=127, time=4),
    Message('note_on', channel=3, note=48, velocity=0, time=10),
    Message('note_on', channel=3, note=55, velocity=57, time=7),
    Message('note_on', channel=3, note=64, velocity=68, time=0),
    Message('note_on', channel=3, note=60, velocity=73, time=0),
    Message('note_on', channel=3, note=55, velocity=0, time=37),
    Message('note_on', channel=3, note=60, velocity=0, time=6),
    Message('note_on', channel=3, note=64, velocity=0, time=1),
    Message('note_on', channel=3, note=48, velocity=81, time=16),
    Message('note_on', channel=3, note=48, velocity=0, time=38),
    Message('note_on', channel=3, note=55, velocity=80, time=22),
    Message('note_on', channel=3, note=60, velocity=102, time=0),
    Message('note_on', channel=3, note=64, velocity=91, time=0),
    Message('note_on', channel=3, note=55, velocity=0, time=32),
    Message('note_on', channel=3, note=60, velocity=0, time=8),
    Message('note_on', channel=3, note=64, velocity=0, time=2),
    Message('note_on', channel=3, note=55, velocity=62, time=78),
    Message('note_on', channel=3, note=60, velocity=74, time=0),
    Message('note_on', channel=3, note=64, velocity=78, time=0),
    Message('note_on', channel=3, note=60, velocity=0, time=31),
    Message('note_on', channel=3, note=55, velocity=0, time=2),
    Message('note_on', channel=3, note=64, velocity=0, time=6),
    Message('note_on', channel=3, note=48, velocity=78, time=21),
    Message('note_on', channel=3, note=48, velocity=0, time=27),
    Message('note_on', channel=3, note=60, velocity=84, time=33),
    Message('note_on', channel=3, note=55, velocity=74, time=0),
    Message('note_on', channel=3, note=64, velocity=87, time=0),
    Message('note_on', channel=3, note=60, velocity=0, time=29),
    Message('note_on', channel=3, note=55, velocity=0, time=6),
    Message('note_on', channel=3, note=64, velocity=0, time=5),
    Message('note_on', channel=3, note=60, velocity=58, time=80),
    Message('note_on', channel=3, note=55, velocity=53, time=0),
    Message('note_on', channel=3, note=64, velocity=71, time=0),
    Message('note_on', channel=3, note=60, velocity=0, time=27),
    Message('note_on', channel=3, note=55, velocity=0, time=8),
    Message('note_on', channel=3, note=64, velocity=0, time=6),
    Message('note_on', channel=3, note=48, velocity=68, time=19),
    Message('note_on', channel=3, note=48, velocity=0, time=31),
    Message('note_on', channel=3, note=60, velocity=73, time=29),
    Message('note_on', channel=3, note=55, velocity=68, time=0),
    Message('note_on', channel=3, note=64, velocity=81, time=0),
    Message('note_on', channel=3, note=60, velocity=0, time=28),
    Message('note_on', channel=3, note=55, velocity=0, time=7),
    Message('note_on', channel=3, note=64, velocity=0, time=8),
    Message('note_on', channel=3, note=48, velocity=61, time=17),
    Message('note_on', channel=3, note=48, velocity=0, time=24),
    Message('note_on', channel=3, note=60, velocity=68, time=36),
    Message('note_on', channel=3, note=55, velocity=58, time=0),
    Message('note_on', channel=3, note=64, velocity=73, time=0),
    Message('note_on', channel=3, note=60, velocity=0, time=30),
    Message('note_on', channel=3, note=55, velocity=0, time=3),
    Message('note_on', channel=3, note=64, velocity=0, time=7),
    Message('note_on', channel=3, note=55, velocity=80, time=80),
    Message('note_on', channel=3, note=60, velocity=91, time=0),
    Message('note_on', channel=3, note=48, velocity=92, time=0),
    Message('note_on', channel=3, note=64, velocity=87, time=0),
    Message('note_on', channel=3, note=60, velocity=0, time=32),
    Message('note_on', channel=3, note=55, velocity=0, time=1),
    Message('note_on', channel=3, note=64, velocity=0, time=7),
    Message('note_on', channel=3, note=48, velocity=0, time=1),
    Message('note_on', channel=3, note=55, velocity=38, time=79),
    Message('note_on', channel=3, note=60, velocity=53, time=0),
    Message('note_on', channel=3, note=64, velocity=66, time=0),
    Message('note_on', channel=3, note=60, velocity=0, time=16),
    Message('note_on', channel=3, note=55, velocity=0, time=1),
    Message('note_on', channel=3, note=64, velocity=0, time=12),
    Message('note_on', channel=3, note=60, velocity=76, time=31),
    Message('note_on', channel=3, note=55, velocity=65, time=0),
    Message('note_on', channel=3, note=64, velocity=81, time=0),
    Message('note_on', channel=3, note=60, velocity=0, time=18),
    Message('note_on', channel=3, note=55, velocity=0, time=9),
    Message('note_on', channel=3, note=64, velocity=0, time=2),
    Message('note_on', channel=3, note=48, velocity=98, time=31),
    Message('note_on', channel=3, note=55, velocity=73, time=0),
    Message('note_on', channel=3, note=60, velocity=91, time=0),
    Message('note_on', channel=3, note=64, velocity=84, time=0),
    Message('note_on', channel=3, note=55, velocity=0, time=30),
    Message('note_on', channel=3, note=48, velocity=0, time=3),
    Message('note_on', channel=3, note=60, velocity=0, time=1),
    Message('note_on', channel=3, note=64, velocity=0, time=3),
    Message('note_on', channel=3, note=60, velocity=101, time=83),
    Message('note_on', channel=3, note=55, velocity=91, time=0),
    Message('note_on', channel=3, note=64, velocity=98, time=0),
    Message('note_on', channel=3, note=55, velocity=0, time=28),
    Message('note_on', channel=3, note=60, velocity=0, time=1),
    Message('note_on', channel=3, note=64, velocity=0, time=7),
    Message('note_on', channel=3, note=55, velocity=69, time=84),
    Message('note_on', channel=3, note=60, velocity=81, time=0),
    Message('note_on', channel=3, note=64, velocity=78, time=0),
    Message('note_on', channel=3, note=60, velocity=0, time=34),
    Message('note_on', channel=3, note=55, velocity=0, time=1),
    Message('note_on', channel=3, note=64, velocity=0, time=5),
    Message('note_on', channel=3, note=48, velocity=98, time=20),
    Message('note_on', channel=3, note=48, velocity=0, time=32),
    Message('note_on', channel=3, note=60, velocity=91, time=28),
    Message('note_on', channel=3, note=55, velocity=78, time=0),
    Message('note_on', channel=3, note=64, velocity=87, time=0),
    Message('note_on', channel=3, note=60, velocity=0, time=28),
    Message('note_on', channel=3, note=55, velocity=0, time=1),
    Message('note_on', channel=3, note=64, velocity=0, time=6),
    Message('note_on', channel=3, note=60, velocity=95, time=85),
    Message('note_on', channel=3, note=55, velocity=92, time=0),
    Message('note_on', channel=3, note=64, velocity=98, time=0),
    Message('note_on', channel=3, note=55, velocity=0, time=35),
    Message('note_on', channel=3, note=60, velocity=0, time=1),
    Message('note_on', channel=3, note=64, velocity=0, time=11),
    Message('note_on', channel=3, note=48, velocity=66, time=73),
    Message('note_on', channel=3, note=55, velocity=78, time=0),
    Message('note_on', channel=3, note=60, velocity=92, time=0),
    Message('note_on', channel=3, note=64, velocity=89, time=0),
    Message('note_on', channel=3, note=48, velocity=0, time=25),
    Message('note_on', channel=3, note=60, velocity=0, time=8),
    Message('note_on', channel=3, note=55, velocity=0, time=1),
    Message('note_on', channel=3, note=64, velocity=0, time=8),
    Message('control_change', channel=3, control=64, value=0, time=65),
    Message('note_on', channel=3, note=50, velocity=98, time=13),
    Message('note_on', channel=3, note=62, velocity=97, time=0),
    Message('note_on', channel=3, note=55, velocity=91, time=0),
    Message('note_on', channel=3, note=59, velocity=95, time=0),
    Message('note_on', channel=3, note=50, velocity=0, time=36),
    Message('control_change', channel=3, control=64, value=127, time=12),
    Message('note_on', channel=3, note=55, velocity=0, time=16),
    Message('note_on', channel=3, note=59, velocity=0, time=4),
    Message('note_on', channel=3, note=62, velocity=0, time=4),
    Message('note_on', channel=3, note=55, velocity=55, time=48),
    Message('note_on', channel=3, note=59, velocity=63, time=0),
    Message('note_on', channel=3, note=62, velocity=71, time=0),
    Message('note_on', channel=3, note=59, velocity=0, time=26),
    Message('note_on', channel=3, note=55, velocity=0, time=1),
    Message('note_on', channel=3, note=62, velocity=0, time=4),
    Message('note_on', channel=3, note=59, velocity=91, time=89),
    Message('note_on', channel=3, note=55, velocity=89, time=0),
    Message('note_on', channel=3, note=62, velocity=97, time=0),
    Message('note_on', channel=3, note=59, velocity=0, time=36),
    Message('note_on', channel=3, note=55, velocity=0, time=3),
    Message('note_on', channel=3, note=62, velocity=0, time=3),
    Message('note_on', channel=3, note=55, velocity=57, time=78),
    Message('note_on', channel=3, note=59, velocity=66, time=0),
    Message('note_on', channel=3, note=62, velocity=81, time=0),
    Message('note_on', channel=3, note=59, velocity=0, time=24),
    Message('note_on', channel=3, note=55, velocity=0, time=1),
    Message('note_on', channel=3, note=62, velocity=0, time=7),
    Message('note_on', channel=3, note=43, velocity=74, time=28),
    Message('note_on', channel=3, note=43, velocity=0, time=29),
    Message('note_on', channel=3, note=55, velocity=74, time=31),
    Message('note_on', channel=3, note=59, velocity=85, time=0),
    Message('note_on', channel=3, note=62, velocity=87, time=0),
    Message('note_on', channel=3, note=59, velocity=0, time=26),
    Message('note_on', channel=3, note=55, velocity=0, time=2),
    Message('note_on', channel=3, note=62, velocity=0, time=7),
    Message('note_on', channel=3, note=62, velocity=63, time=85),
    Message('note_on', channel=3, note=62, velocity=0, time=39),
    Message('note_on', channel=3, note=43, velocity=87, time=21),
    Message('note_on', channel=3, note=43, velocity=0, time=33),
    Message('note_on', channel=3, note=55, velocity=87, time=27),
    Message('note_on', channel=3, note=59, velocity=89, time=0),
    Message('note_on', channel=3, note=62, velocity=97, time=0),
    Message('note_on', channel=3, note=55, velocity=0, time=29),
    Message('note_on', channel=3, note=59, velocity=0, time=3),
    Message('note_on', channel=3, note=62, velocity=0, time=7),
    Message('note_on', channel=3, note=59, velocity=63, time=81),
    Message('note_on', channel=3, note=55, velocity=61, time=0),
    Message('note_on', channel=3, note=62, velocity=80, time=0),
    Message('note_on', channel=3, note=59, velocity=0, time=22),
    Message('note_on', channel=3, note=55, velocity=0, time=4),
    Message('note_on', channel=3, note=62, velocity=0, time=4),
    Message('note_on', channel=3, note=43, velocity=69, time=30),
    Message('note_on', channel=3, note=43, velocity=0, time=33),
    Message('note_on', channel=3, note=59, velocity=95, time=27),
    Message('note_on', channel=3, note=55, velocity=87, time=0),
    Message('note_on', channel=3, note=62, velocity=97, time=0),
    Message('note_on', channel=3, note=59, velocity=0, time=27),
    Message('note_on', channel=3, note=55, velocity=0, time=2),
    Message('note_on', channel=3, note=62, velocity=0, time=6),
    Message('note_on', channel=3, note=59, velocity=87, time=85),
    Message('note_on', channel=3, note=55, velocity=73, time=0),
    Message('note_on', channel=3, note=62, velocity=87, time=0),
    Message('note_on', channel=3, note=59, velocity=0, time=25),
    Message('note_on', channel=3, note=55, velocity=0, time=5),
    Message('note_on', channel=3, note=62, velocity=0, time=2),
    Message('note_on', channel=3, note=55, velocity=62, time=88),
    Message('note_on', channel=3, note=59, velocity=69, time=0),
    Message('note_on', channel=3, note=62, velocity=84, time=0),
    Message('note_on', channel=3, note=59, velocity=0, time=24),
    Message('note_on', channel=3, note=55, velocity=0, time=5),
    Message('note_on', channel=3, note=62, velocity=0, time=3),
    Message('note_on', channel=3, note=43, velocity=76, time=28),
    Message('note_on', channel=3, note=43, velocity=0, time=31),
    Message('note_on', channel=3, note=55, velocity=68, time=29),
    Message('note_on', channel=3, note=59, velocity=78, time=0),
    Message('note_on', channel=3, note=62, velocity=81, time=0),
    Message('note_on', channel=3, note=59, velocity=0, time=33),
    Message('note_on', channel=3, note=55, velocity=0, time=1),
    Message('note_on', channel=3, note=62, velocity=0, time=4),
    Message('note_on', channel=3, note=59, velocity=95, time=82),
    Message('note_on', channel=3, note=55, velocity=87, time=0),
    Message('note_on', channel=3, note=62, velocity=97, time=0),
    Message('note_on', channel=3, note=55, velocity=0, time=37),
    Message('note_on', channel=3, note=59, velocity=0, time=4),
    Message('note_on', channel=3, note=62, velocity=0, time=4),
    Message('note_on', channel=3, note=43, velocity=66, time=15),
    Message('note_on', channel=3, note=43, velocity=0, time=27),
    Message('note_on', channel=3, note=55, velocity=68, time=33),
    Message('note_on', channel=3, note=59, velocity=78, time=0),
    Message('note_on', channel=3, note=62, velocity=84, time=0),
    Message('note_on', channel=3, note=55, velocity=0, time=39),
    Message('note_on', channel=3, note=59, velocity=0, time=2),
    Message('note_on', channel=3, note=62, velocity=0, time=4),
    Message('note_on', channel=3, note=55, velocity=95, time=75),
    Message('note_on', channel=3, note=59, velocity=102, time=0),
    Message('note_on', channel=3, note=62, velocity=98, time=0),
    Message('note_on', channel=3, note=55, velocity=0, time=35),
    Message('note_on', channel=3, note=59, velocity=0, time=9),
    Message('note_on', channel=3, note=62, velocity=0, time=12),
    Message('note_on', channel=3, note=62, velocity=81, time=64),
    Message('note_on', channel=3, note=59, velocity=85, time=0),
    Message('note_on', channel=3, note=55, velocity=84, time=0),
    Message('note_on', channel=3, note=62, velocity=0, time=36),
    Message('note_on', channel=3, note=59, velocity=0, time=2),
    Message('note_on', channel=3, note=55, velocity=0, time=3),
    Message('control_change', channel=3, control=64, value=0, time=60),
    Message('note_on', channel=3, note=55, velocity=87, time=19),
    Message('note_on', channel=3, note=48, velocity=91, time=0),
    Message('note_on', channel=3, note=64, velocity=92, time=0),
    Message('note_on', channel=3, note=60, velocity=95, time=0),
    Message('control_change', channel=3, control=64, value=127, time=47),
    Message('note_on', channel=3, note=55, velocity=0, time=15),
    Message('note_on', channel=3, note=60, velocity=0, time=5),
    Message('note_on', channel=3, note=64, velocity=0, time=10),
    Message('note_on', channel=3, note=48, velocity=0, time=28),
    Message('note_on', channel=3, note=60, velocity=65, time=15),
    Message('note_on', channel=3, note=55, velocity=57, time=0),
    Message('note_on', channel=3, note=64, velocity=71, time=0),
    Message('note_on', channel=3, note=60, velocity=0, time=35),
    Message('note_on', channel=3, note=55, velocity=0, time=3),
    Message('note_on', channel=3, note=64, velocity=0, time=8),
    Message('note_on', channel=3, note=48, velocity=84, time=14),
    Message('note_on', channel=3, note=48, velocity=0, time=34),
    Message('note_on', channel=3, note=64, velocity=87, time=26),
    Message('note_on', channel=3, note=55, velocity=89, time=0),
    Message('note_on', channel=3, note=60, velocity=101, time=0),
    Message('note_on', channel=3, note=55, velocity=0, time=35),
    Message('note_on', channel=3, note=64, velocity=0, time=6),
    Message('note_on', channel=3, note=60, velocity=0, time=3),
    Message('note_on', channel=3, note=60, velocity=98, time=76),
    Message('note_on', channel=3, note=55, velocity=87, time=0),
    Message('note_on', channel=3, note=64, velocity=95, time=0),
    Message('note_on', channel=3, note=55, velocity=0, time=32),
    Message('note_on', channel=3, note=60, velocity=0, time=1),
    Message('note_on', channel=3, note=64, velocity=0, time=5),
    Message('note_on', channel=3, note=55, velocity=64, time=82),
    Message('note_on', channel=3, note=64, velocity=71, time=0),
    Message('note_on', channel=3, note=60, velocity=76, time=0),
    Message('note_on', channel=3, note=60, velocity=0, time=28),
    Message('note_on', channel=3, note=55, velocity=0, time=4),
    Message('note_on', channel=3, note=64, velocity=0, time=1),
    Message('note_on', channel=3, note=48, velocity=66, time=27),
    Message('note_on', channel=3, note=48, velocity=0, time=22),
    Message('note_on', channel=3, note=60, velocity=80, time=38),
    Message('note_on', channel=3, note=64, velocity=84, time=0),
    Message('note_on', channel=3, note=55, velocity=73, time=0),
    Message('note_on', channel=3, note=60, velocity=0, time=22),
    Message('note_on', channel=3, note=55, velocity=0, time=8),
    Message('note_on', channel=3, note=64, velocity=0, time=2),
    Message('note_on', channel=3, note=48, velocity=55, time=88),
    Message('note_on', channel=3, note=60, velocity=98, time=0),
    Message('note_on', channel=3, note=55, velocity=87, time=0),
    Message('note_on', channel=3, note=64, velocity=97, time=0),
    Message('note_on', channel=3, note=48, velocity=0, time=26),
    Message('note_on', channel=3, note=55, velocity=0, time=5),
    Message('note_on', channel=3, note=60, velocity=0, time=1),
    Message('note_on', channel=3, note=64, velocity=0, time=8),
    Message('note_on', channel=3, note=60, velocity=68, time=80),
    Message('note_on', channel=3, note=55, velocity=58, time=0),
    Message('note_on', channel=3, note=64, velocity=73, time=0),
    Message('note_on', channel=3, note=60, velocity=0, time=30),
    Message('note_on', channel=3, note=55, velocity=0, time=4),
    Message('note_on', channel=3, note=64, velocity=0, time=5),
    Message('note_on', channel=3, note=48, velocity=45, time=21),
    Message('note_on', channel=3, note=48, velocity=0, time=28),
    Message('note_on', channel=3, note=55, velocity=89, time=32),
    Message('note_on', channel=3, note=60, velocity=98, time=0),
    Message('note_on', channel=3, note=64, velocity=97, time=0),
    Message('note_on', channel=3, note=60, velocity=0, time=31),
    Message('note_on', channel=3, note=55, velocity=0, time=0),
    Message('note_on', channel=3, note=64, velocity=0, time=8),
    Message('note_on', channel=3, note=55, velocity=47, time=81),
    Message('note_on', channel=3, note=60, velocity=60, time=0),
    Message('note_on', channel=3, note=64, velocity=63, time=0),
    Message('note_on', channel=3, note=60, velocity=0, time=19),
    Message('note_on', channel=3, note=55, velocity=0, time=2),
    Message('note_on', channel=3, note=64, velocity=0, time=1),
    Message('note_on', channel=3, note=48, velocity=63, time=38),
    Message('note_on', channel=3, note=48, velocity=0, time=27),
    Message('note_on', channel=3, note=60, velocity=101, time=33),
    Message('note_on', channel=3, note=55, velocity=95, time=0),
    Message('note_on', channel=3, note=64, velocity=97, time=0),
    Message('note_on', channel=3, note=60, velocity=0, time=28),
    Message('note_on', channel=3, note=55, velocity=0, time=1),
    Message('note_on', channel=3, note=64, velocity=0, time=7),
    Message('note_on', channel=3, note=60, velocity=102, time=84),
    Message('note_on', channel=3, note=64, velocity=98, time=0),
    Message('note_on', channel=3, note=55, velocity=95, time=0),
    Message('note_on', channel=3, note=60, velocity=0, time=29),
    Message('note_on', channel=3, note=55, velocity=0, time=1),
    Message('note_on', channel=3, note=64, velocity=0, time=4),
    Message('note_on', channel=3, note=55, velocity=39, time=86),
    Message('note_on', channel=3, note=55, velocity=0, time=19),
    Message('note_on', channel=3, note=48, velocity=81, time=41),
    Message('note_on', channel=3, note=48, velocity=0, time=24),
    Message('note_on', channel=3, note=55, velocity=78, time=36),
    Message('note_on', channel=3, note=60, velocity=92, time=0),
    Message('note_on', channel=3, note=64, velocity=85, time=0),
    Message('note_on', channel=3, note=60, velocity=0, time=32),
    Message('note_on', channel=3, note=55, velocity=0, time=1),
    Message('note_on', channel=3, note=64, velocity=0, time=4),
    Message('note_on', channel=3, note=60, velocity=101, time=83),
    Message('note_on', channel=3, note=64, velocity=101, time=0),
    Message('note_on', channel=3, note=55, velocity=95, time=0),
    Message('note_on', channel=3, note=48, velocity=81, time=0),
    Message('note_on', channel=3, note=48, velocity=0, time=34),
    Message('note_on', channel=3, note=55, velocity=0, time=2),
    Message('note_on', channel=3, note=60, velocity=0, time=4),
    Message('note_on', channel=3, note=64, velocity=0, time=5),
    Message('note_on', channel=3, note=60, velocity=55, time=75),
    Message('note_on', channel=3, note=55, velocity=81, time=0),
    Message('note_on', channel=3, note=64, velocity=81, time=0),
    Message('note_on', channel=3, note=60, velocity=0, time=12),
    Message('note_on', channel=3, note=64, velocity=0, time=23),
    Message('note_on', channel=3, note=55, velocity=0, time=15),
    Message('control_change', channel=3, control=64, value=0, time=54),
    Message('note_on', channel=3, note=59, velocity=81, time=16),
    Message('note_on', channel=3, note=55, velocity=84, time=0),
    Message('note_on', channel=3, note=62, velocity=87, time=0),
    Message('note_on', channel=3, note=43, velocity=81, time=0),
    Message('note_on', channel=3, note=59, velocity=0, time=44),
    Message('control_change', channel=3, control=64, value=127, time=8),
    Message('note_on', channel=3, note=55, velocity=0, time=1),
    Message('note_on', channel=3, note=62, velocity=0, time=5),
    Message('note_on', channel=3, note=43, velocity=0, time=34),
    Message('note_on', channel=3, note=55, velocity=43, time=28),
    Message('note_on', channel=3, note=62, velocity=46, time=0),
    Message('note_on', channel=3, note=59, velocity=51, time=0),
    Message('note_on', channel=3, note=62, velocity=0, time=25),
    Message('note_on', channel=3, note=59, velocity=0, time=1),
    Message('note_on', channel=3, note=55, velocity=0, time=4),
    Message('note_on', channel=3, note=43, velocity=69, time=30),
    Message('note_on', channel=3, note=43, velocity=0, time=35),
    Message('note_on', channel=3, note=59, velocity=98, time=25),
    Message('note_on', channel=3, note=55, velocity=89, time=0),
    Message('note_on', channel=3, note=62, velocity=98, time=0),
    Message('note_on', channel=3, note=59, velocity=0, time=33),
    Message('note_on', channel=3, note=55, velocity=0, time=5),
    Message('note_on', channel=3, note=62, velocity=0, time=5),
    Message('note_on', channel=3, note=59, velocity=73, time=77),
    Message('note_on', channel=3, note=62, velocity=78, time=0),
    Message('note_on', channel=3, note=55, velocity=71, time=0),
    Message('note_on', channel=3, note=59, velocity=0, time=30),
    Message('note_on', channel=3, note=62, velocity=0, time=4),
    Message('note_on', channel=3, note=55, velocity=0, time=2),
    Message('note_on', channel=3, note=43, velocity=68, time=24),
    Message('note_on', channel=3, note=43, velocity=0, time=30),
    Message('note_on', channel=3, note=55, velocity=89, time=30),
    Message('note_on', channel=3, note=59, velocity=92, time=0),
    Message('note_on', channel=3, note=62, velocity=95, time=0),
    Message('note_on', channel=3, note=55, velocity=0, time=37),
    Message('note_on', channel=3, note=59, velocity=0, time=1),
    Message('note_on', channel=3, note=62, velocity=0, time=3),
    Message('note_on', channel=3, note=55, velocity=50, time=79),
    Message('note_on', channel=3, note=62, velocity=51, time=0),
    Message('note_on', channel=3, note=59, velocity=52, time=0),
    Message('note_on', channel=3, note=59, velocity=0, time=30),
    Message('note_on', channel=3, note=55, velocity=0, time=2),
    Message('note_on', channel=3, note=62, velocity=0, time=2),
    Message('note_on', channel=3, note=43, velocity=71, time=26),
    Message('note_on', channel=3, note=43, velocity=0, time=36),
    Message('note_on', channel=3, note=59, velocity=97, time=24),
    Message('note_on', channel=3, note=55, velocity=91, time=0),
    Message('note_on', channel=3, note=62, velocity=95, time=0),
    Message('note_on', channel=3, note=55, velocity=0, time=37),
    Message('note_on', channel=3, note=59, velocity=0, time=2),
    Message('note_on', channel=3, note=62, velocity=0, time=5),
    Message('note_on', channel=3, note=62, velocity=87, time=76),
    Message('note_on', channel=3, note=59, velocity=84, time=0),
    Message('note_on', channel=3, note=55, velocity=87, time=0),
    Message('note_on', channel=3, note=55, velocity=0, time=37),
    Message('note_on', channel=3, note=59, velocity=0, time=0),
    Message('note_on', channel=3, note=62, velocity=0, time=0),
    Message('note_on', channel=3, note=62, velocity=95, time=83),
    Message('note_on', channel=3, note=55, velocity=91, time=0),
    Message('note_on', channel=3, note=59, velocity=95, time=0),
    Message('note_on', channel=3, note=43, velocity=81, time=0),
    Message('note_on', channel=3, note=59, velocity=0, time=37),
    Message('note_on', channel=3, note=55, velocity=0, time=0),
    Message('note_on', channel=3, note=62, velocity=0, time=2),
    Message('note_on', channel=3, note=43, velocity=0, time=5),
    Message('note_on', channel=3, note=59, velocity=62, time=76),
    Message('note_on', channel=3, note=55, velocity=57, time=0),
    Message('note_on', channel=3, note=62, velocity=71, time=0),
    Message('note_on', channel=3, note=59, velocity=0, time=31),
    Message('note_on', channel=3, note=62, velocity=0, time=4),
    Message('note_on', channel=3, note=55, velocity=0, time=2),
    Message('note_on', channel=3, note=43, velocity=76, time=23),
    Message('note_on', channel=3, note=43, velocity=0, time=40),
    Message('note_on', channel=3, note=59, velocity=98, time=20),
    Message('note_on', channel=3, note=55, velocity=89, time=0),
    Message('note_on', channel=3, note=62, velocity=95, time=0),
    Message('note_on', channel=3, note=59, velocity=0, time=35),
    Message('note_on', channel=3, note=55, velocity=0, time=2),
    Message('note_on', channel=3, note=62, velocity=0, time=2),
    Message('note_on', channel=3, note=59, velocity=74, time=81),
    Message('note_on', channel=3, note=55, velocity=68, time=0),
    Message('note_on', channel=3, note=62, velocity=85, time=0),
    Message('note_on', channel=3, note=59, velocity=0, time=32),
    Message('note_on', channel=3, note=55, velocity=0, time=4),
    Message('note_on', channel=3, note=62, velocity=0, time=5),
    Message('note_on', channel=3, note=43, velocity=80, time=19),
    Message('note_on', channel=3, note=43, velocity=0, time=37),
    Message('note_on', channel=3, note=59, velocity=84, time=23),
    Message('note_on', channel=3, note=55, velocity=80, time=0),
    Message('note_on', channel=3, note=62, velocity=91, time=0),
    Message('note_on', channel=3, note=59, velocity=0, time=33),
    Message('note_on', channel=3, note=55, velocity=0, time=2),
    Message('note_on', channel=3, note=62, velocity=0, time=7),
    Message('note_on', channel=3, note=43, velocity=81, time=18),
    Message('note_on', channel=3, note=43, velocity=0, time=38),
    Message('note_on', channel=3, note=55, velocity=76, time=22),
    Message('note_on', channel=3, note=59, velocity=87, time=0),
    Message('note_on', channel=3, note=62, velocity=89, time=0),
    Message('note_on', channel=3, note=55, velocity=0, time=40),
    Message('note_on', channel=3, note=59, velocity=0, time=1),
    Message('note_on', channel=3, note=62, velocity=0, time=4),
    Message('note_on', channel=3, note=43, velocity=101, time=15),
    Message('note_on', channel=3, note=43, velocity=0, time=44),
    Message('note_on', channel=3, note=59, velocity=98, time=16),
    Message('note_on', channel=3, note=55, velocity=95, time=0),
    Message('note_on', channel=3, note=62, velocity=98, time=0),
    Message('note_on', channel=3, note=55, velocity=0, time=43),
    Message('note_on', channel=3, note=59, velocity=0, time=5),
    Message('note_on', channel=3, note=62, velocity=0, time=7),
    Message('note_on', channel=3, note=55, velocity=89, time=65),
    Message('note_on', channel=3, note=62, velocity=97, time=0),
    Message('note_on', channel=3, note=59, velocity=95, time=0),
    Message('note_on', channel=3, note=55, velocity=0, time=33),
    Message('note_on', channel=3, note=59, velocity=0, time=7),
    Message('note_on', channel=3, note=62, velocity=0, time=3),
    Message('control_change', channel=3, control=64, value=0, time=50),
    Message('note_on', channel=3, note=64, velocity=97, time=27),
    Message('note_on', channel=3, note=48, velocity=92, time=0),
    Message('note_on', channel=3, note=60, velocity=97, time=0),
    Message('note_on', channel=3, note=55, velocity=85, time=0),
    Message('control_change', channel=3, control=64, value=127, time=56),
    Message('note_on', channel=3, note=55, velocity=0, time=20),
    Message('note_on', channel=3, note=60, velocity=0, time=0),
    Message('note_on', channel=3, note=64, velocity=0, time=1),
    Message('note_on', channel=3, note=48, velocity=0, time=35),
    Message('note_on', channel=3, note=60, velocity=60, time=8),
    Message('note_on', channel=3, note=55, velocity=57, time=0),
    Message('note_on', channel=3, note=64, velocity=60, time=0),
    Message('note_on', channel=3, note=60, velocity=0, time=28),
    Message('note_on', channel=3, note=55, velocity=0, time=7),
    Message('note_on', channel=3, note=64, velocity=0, time=3),
    Message('note_on', channel=3, note=48, velocity=81, time=22),
    Message('note_on', channel=3, note=48, velocity=0, time=33),
    Message('note_on', channel=3, note=60, velocity=97, time=27),
    Message('note_on', channel=3, note=55, velocity=78, time=0),
    Message('note_on', channel=3, note=64, velocity=91, time=0),
    Message('note_on', channel=3, note=55, velocity=0, time=33),
    Message('note_on', channel=3, note=60, velocity=0, time=2),
    Message('note_on', channel=3, note=64, velocity=0, time=5),
    Message('note_on', channel=3, note=60, velocity=95, time=80),
    Message('note_on', channel=3, note=55, velocity=91, time=0),
    Message('note_on', channel=3, note=64, velocity=95, time=0),
    Message('note_on', channel=3, note=55, velocity=0, time=32),
    Message('note_on', channel=3, note=60, velocity=0, time=2),
    Message('note_on', channel=3, note=64, velocity=0, time=3),
    Message('note_on', channel=3, note=60, velocity=84, time=83),
    Message('note_on', channel=3, note=55, velocity=71, time=0),
    Message('note_on', channel=3, note=64, velocity=87, time=0),
    Message('note_on', channel=3, note=60, velocity=0, time=31),
    Message('note_on', channel=3, note=55, velocity=0, time=4),
    Message('note_on', channel=3, note=64, velocity=0, time=4),
    Message('note_on', channel=3, note=48, velocity=81, time=21),
    Message('note_on', channel=3, note=48, velocity=0, time=27),
    Message('note_on', channel=3, note=55, velocity=69, time=33),
    Message('note_on', channel=3, note=60, velocity=92, time=0),
    Message('note_on', channel=3, note=64, velocity=87, time=0),
    Message('note_on', channel=3, note=55, velocity=0, time=31),
    Message('note_on', channel=3, note=60, velocity=0, time=2),
    Message('note_on', channel=3, note=64, velocity=0, time=5),
    Message('note_on', channel=3, note=64, velocity=92, time=82),
    Message('note_on', channel=3, note=60, velocity=95, time=0),
    Message('note_on', channel=3, note=55, velocity=91, time=0),
    Message('note_on', channel=3, note=48, velocity=89, time=0),
    Message('note_on', channel=3, note=55, velocity=0, time=33),
    Message('note_on', channel=3, note=60, velocity=0, time=0),
    Message('note_on', channel=3, note=48, velocity=0, time=2),
    Message('note_on', channel=3, note=64, velocity=0, time=2),
    Message('note_on', channel=3, note=55, velocity=66, time=83),
    Message('note_on', channel=3, note=60, velocity=81, time=0),
    Message('note_on', channel=3, note=64, velocity=84, time=0),
    Message('note_on', channel=3, note=60, velocity=0, time=33),
    Message('note_on', channel=3, note=55, velocity=0, time=1),
    Message('note_on', channel=3, note=64, velocity=0, time=7),
    Message('note_on', channel=3, note=48, velocity=69, time=19),
    Message('note_on', channel=3, note=48, velocity=0, time=32),
    Message('note_on', channel=3, note=60, velocity=98, time=28),
    Message('note_on', channel=3, note=55, velocity=84, time=0),
    Message('note_on', channel=3, note=64, velocity=97, time=0),
    Message('note_on', channel=3, note=55, velocity=0, time=32),
    Message('note_on', channel=3, note=60, velocity=0, time=1),
    Message('note_on', channel=3, note=64, velocity=0, time=8),
    Message('note_on', channel=3, note=55, velocity=43, time=79),
    Message('note_on', channel=3, note=64, velocity=60, time=0),
    Message('note_on', channel=3, note=60, velocity=62, time=0),
    Message('note_on', channel=3, note=55, velocity=0, time=28),
    Message('note_on', channel=3, note=60, velocity=0, time=1),
    Message('note_on', channel=3, note=64, velocity=0, time=4),
    Message('note_on', channel=3, note=48, velocity=78, time=27),
    Message('note_on', channel=3, note=48, velocity=0, time=30),
    Message('note_on', channel=3, note=55, velocity=91, time=30),
    Message('note_on', channel=3, note=60, velocity=98, time=0),
    Message('note_on', channel=3, note=64, velocity=97, time=0),
    Message('note_on', channel=3, note=55, velocity=0, time=31),
    Message('note_on', channel=3, note=60, velocity=0, time=1),
    Message('note_on', channel=3, note=64, velocity=0, time=5),
    Message('note_on', channel=3, note=60, velocity=102, time=83),
    Message('note_on', channel=3, note=55, velocity=91, time=0),
    Message('note_on', channel=3, note=64, velocity=101, time=0),
    Message('note_on', channel=3, note=55, velocity=0, time=30),
    Message('note_on', channel=3, note=60, velocity=0, time=2),
    Message('note_on', channel=3, note=64, velocity=0, time=5),
    Message('note_on', channel=3, note=60, velocity=98, time=83),
    Message('note_on', channel=3, note=55, velocity=87, time=0),
    Message('note_on', channel=3, note=64, velocity=92, time=0),
    Message('note_on', channel=3, note=55, velocity=0, time=35),
    Message('note_on', channel=3, note=60, velocity=0, time=2),
    Message('note_on', channel=3, note=64, velocity=0, time=5),
    Message('note_on', channel=3, note=48, velocity=89, time=18),
    Message('note_on', channel=3, note=48, velocity=0, time=30),
    Message('note_on', channel=3, note=60, velocity=95, time=30),
    Message('note_on', channel=3, note=55, velocity=80, time=0),
    Message('note_on', channel=3, note=64, velocity=87, time=0),
    Message('note_on', channel=3, note=55, velocity=0, time=38),
    Message('note_on', channel=3, note=60, velocity=0, time=2),
    Message('note_on', channel=3, note=64, velocity=0, time=5),
    Message('note_on', channel=3, note=55, velocity=92, time=75),
    Message('note_on', channel=3, note=60, velocity=98, time=0),
    Message('note_on', channel=3, note=64, velocity=98, time=0),
    Message('note_on', channel=3, note=48, velocity=98, time=0),
    Message('note_on', channel=3, note=48, velocity=0, time=39),
    Message('note_on', channel=3, note=55, velocity=0, time=2),
    Message('note_on', channel=3, note=60, velocity=0, time=1),
    Message('note_on', channel=3, note=64, velocity=0, time=4),
    Message('note_on', channel=3, note=55, velocity=76, time=74),
    Message('note_on', channel=3, note=64, velocity=87, time=0),
    Message('note_on', channel=3, note=60, velocity=95, time=0),
    Message('note_on', channel=3, note=55, velocity=0, time=52),
    Message('note_on', channel=3, note=60, velocity=0, time=2),
    Message('note_on', channel=3, note=64, velocity=0, time=0),
    Message('control_change', channel=3, control=64, value=0, time=54),
    Message('note_on', channel=3, note=55, velocity=91, time=12),
    Message('note_on', channel=3, note=62, velocity=98, time=0),
    Message('note_on', channel=3, note=59, velocity=98, time=0),
    Message('note_on', channel=3, note=43, velocity=85, time=0),
    Message('control_change', channel=3, control=64, value=127, time=61),
    Message('note_on', channel=3, note=62, velocity=0, time=106),
    Message('note_on', channel=3, note=55, velocity=0, time=1),
    Message('note_on', channel=3, note=59, velocity=0, time=4),
    Message('note_on', channel=3, note=43, velocity=0, time=43),
    Message('note_on', channel=3, note=55, velocity=81, time=25),
    Message('note_on', channel=3, note=62, velocity=91, time=0),
    Message('note_on', channel=3, note=59, velocity=87, time=0),
    Message('note_on', channel=3, note=55, velocity=0, time=38),
    Message('note_on', channel=3, note=59, velocity=0, time=2),
    Message('note_on', channel=3, note=62, velocity=0, time=0),
    Message('note_on', channel=3, note=62, velocity=92, time=80),
    Message('note_on', channel=3, note=55, velocity=89, time=0),
    Message('note_on', channel=3, note=59, velocity=97, time=0),
    Message('note_on', channel=3, note=55, velocity=0, time=39),
    Message('note_on', channel=3, note=59, velocity=0, time=2),
    Message('note_on', channel=3, note=62, velocity=0, time=0),
    Message('note_on', channel=3, note=43, velocity=69, time=19),
    Message('note_on', channel=3, note=43, velocity=0, time=30),
    Message('note_on', channel=3, note=62, velocity=89, time=30),
    Message('note_on', channel=3, note=59, velocity=85, time=0),
    Message('note_on', channel=3, note=55, velocity=84, time=0),
    Message('note_on', channel=3, note=55, velocity=0, time=47),
    Message('note_on', channel=3, note=59, velocity=0, time=1),
    Message('note_on', channel=3, note=62, velocity=0, time=3),
    Message('note_on', channel=3, note=43, velocity=95, time=69),
    Message('note_on', channel=3, note=43, velocity=0, time=50),
    Message('note_on', channel=3, note=55, velocity=91, time=70),
    Message('note_on', channel=3, note=62, velocity=97, time=0),
    Message('note_on', channel=3, note=59, velocity=97, time=0),
    Message('note_on', channel=3, note=59, velocity=0, time=42),
    Message('note_on', channel=3, note=55, velocity=0, time=0),
    Message('note_on', channel=3, note=62, velocity=0, time=2),
    Message('note_on', channel=3, note=55, velocity=78, time=76),
    Message('note_on', channel=3, note=59, velocity=89, time=0),
    Message('note_on', channel=3, note=62, velocity=91, time=0),
    Message('note_on', channel=3, note=62, velocity=0, time=47),
    Message('note_on', channel=3, note=59, velocity=0, time=1),
    Message('note_on', channel=3, note=55, velocity=0, time=2),
    Message('control_change', channel=3, control=64, value=0, time=65),
    Message('note_on', channel=3, note=53, velocity=92, time=5),
    Message('note_on', channel=3, note=60, velocity=97, time=0),
    Message('note_on', channel=3, note=57, velocity=98, time=0),
    Message('note_on', channel=3, note=41, velocity=85, time=0),
    Message('note_on', channel=3, note=41, velocity=0, time=51),
    Message('control_change', channel=3, control=64, value=127, time=2),
    Message('note_on', channel=3, note=53, velocity=0, time=11),
    Message('note_on', channel=3, note=57, velocity=0, time=4),
    Message('note_on', channel=3, note=60, velocity=0, time=0),
    Message('note_on', channel=3, note=60, velocity=68, time=52),
    Message('note_on', channel=3, note=57, velocity=66, time=0),
    Message('note_on', channel=3, note=53, velocity=60, time=0),
    Message('note_on', channel=3, note=60, velocity=0, time=31),
    Message('note_on', channel=3, note=57, velocity=0, time=2),
    Message('note_on', channel=3, note=53, velocity=0, time=3),
    Message('note_on', channel=3, note=41, velocity=80, time=24),
    Message('note_on', channel=3, note=41, velocity=0, time=29),
    Message('note_on', channel=3, note=53, velocity=85, time=31),
    Message('note_on', channel=3, note=57, velocity=101, time=0),
    Message('note_on', channel=3, note=60, velocity=97, time=0),
    Message('note_on', channel=3, note=57, velocity=0, time=36),
    Message('note_on', channel=3, note=53, velocity=0, time=1),
    Message('note_on', channel=3, note=60, velocity=0, time=3),
    Message('note_on', channel=3, note=53, velocity=56, time=80),
    Message('note_on', channel=3, note=60, velocity=66, time=0),
    Message('note_on', channel=3, note=57, velocity=66, time=0),
    Message('note_on', channel=3, note=60, velocity=0, time=36),
    Message('note_on', channel=3, note=57, velocity=0, time=1),
    Message('note_on', channel=3, note=53, velocity=0, time=0),
    Message('note_on', channel=3, note=41, velocity=68, time=23),
    Message('note_on', channel=3, note=41, velocity=0, time=39),
    Message('note_on', channel=3, note=60, velocity=95, time=21),
    Message('note_on', channel=3, note=57, velocity=92, time=0),
    Message('note_on', channel=3, note=53, velocity=85, time=0),
    Message('note_on', channel=3, note=57, velocity=0, time=46),
    Message('note_on', channel=3, note=60, velocity=0, time=0),
    Message('note_on', channel=3, note=53, velocity=0, time=4),
    Message('note_on', channel=3, note=60, velocity=87, time=70),
    Message('note_on', channel=3, note=57, velocity=81, time=0),
    Message('note_on', channel=3, note=53, velocity=81, time=0),
    Message('note_on', channel=3, note=60, velocity=0, time=40),
    Message('note_on', channel=3, note=57, velocity=0, time=1),
    Message('note_on', channel=3, note=53, velocity=0, time=3),
    Message('note_on', channel=3, note=60, velocity=92, time=76),
    Message('note_on', channel=3, note=57, velocity=95, time=0),
    Message('note_on', channel=3, note=53, velocity=87, time=0),
    Message('note_on', channel=3, note=57, velocity=0, time=43),
    Message('note_on', channel=3, note=60, velocity=0, time=1),
    Message('note_on', channel=3, note=53, velocity=0, time=5),
    Message('note_on', channel=3, note=57, velocity=84, time=71),
    Message('note_on', channel=3, note=60, velocity=85, time=0),
    Message('note_on', channel=3, note=53, velocity=81, time=0),
    Message('note_on', channel=3, note=53, velocity=0, time=35),
    Message('note_on', channel=3, note=57, velocity=0, time=0),
    Message('note_on', channel=3, note=60, velocity=0, time=6),
    Message('control_change', channel=3, control=64, value=0, time=67),
    Message('note_on', channel=3, note=48, velocity=101, time=12),
    Message('control_change', channel=3, control=64, value=127, time=50),
    Message('note_on', channel=3, note=48, velocity=0, time=60),
    Message('note_on', channel=3, note=60, velocity=53, time=10),
    Message('note_on', channel=3, note=64, velocity=66, time=0),
    Message('note_on', channel=3, note=60, velocity=0, time=34),
    Message('note_on', channel=3, note=64, velocity=0, time=8),
    Message('note_on', channel=3, note=48, velocity=81, time=18),
    Message('note_on', channel=3, note=48, velocity=0, time=34),
    Message('note_on', channel=3, note=60, velocity=92, time=26),
    Message('note_on', channel=3, note=64, velocity=101, time=0),
    Message('note_on', channel=3, note=60, velocity=0, time=38),
    Message('note_on', channel=3, note=64, velocity=0, time=6),
    Message('note_on', channel=3, note=60, velocity=84, time=76),
    Message('note_on', channel=3, note=64, velocity=85, time=0),
    Message('note_on', channel=3, note=60, velocity=0, time=36),
    Message('note_on', channel=3, note=64, velocity=0, time=1),
    Message('note_on', channel=3, note=60, velocity=91, time=83),
    Message('note_on', channel=3, note=64, velocity=102, time=0),
    Message('note_on', channel=3, note=48, velocity=92, time=0),
    Message('note_on', channel=3, note=64, velocity=0, time=37),
    Message('note_on', channel=3, note=60, velocity=0, time=2),
    Message('note_on', channel=3, note=48, velocity=0, time=3),
    Message('note_on', channel=3, note=48, velocity=87, time=78),
    Message('note_on', channel=3, note=48, velocity=0, time=38),
    Message('note_on', channel=3, note=64, velocity=73, time=82),
    Message('note_on', channel=3, note=55, velocity=74, time=0),
    Message('note_on', channel=3, note=60, velocity=85, time=0),
    Message('note_on', channel=3, note=60, velocity=0, time=49),
    Message('note_on', channel=3, note=64, velocity=0, time=0),
    Message('note_on', channel=3, note=55, velocity=0, time=1),
    Message('note_on', channel=3, note=60, velocity=66, time=70),
    Message('note_on', channel=3, note=64, velocity=63, time=0),
    Message('note_on', channel=3, note=55, velocity=60, time=0),
    Message('note_on', channel=3, note=60, velocity=0, time=36),
    Message('note_on', channel=3, note=55, velocity=0, time=4),
    Message('note_on', channel=3, note=64, velocity=0, time=1),
    Message('note_on', channel=3, note=48, velocity=71, time=19),
    Message('note_on', channel=3, note=48, velocity=0, time=31),
    Message('note_on', channel=3, note=64, velocity=95, time=29),
    Message('note_on', channel=3, note=60, velocity=97, time=0),
    Message('note_on', channel=3, note=55, velocity=87, time=0),
    Message('note_on', channel=3, note=55, velocity=0, time=32),
    Message('note_on', channel=3, note=60, velocity=0, time=1),
    Message('note_on', channel=3, note=64, velocity=0, time=5),
    Message('note_on', channel=3, note=60, velocity=65, time=82),
    Message('note_on', channel=3, note=55, velocity=57, time=0),
    Message('note_on', channel=3, note=64, velocity=74, time=0),
    Message('note_on', channel=3, note=60, velocity=0, time=24),
    Message('note_on', channel=3, note=55, velocity=0, time=6),
    Message('note_on', channel=3, note=64, velocity=0, time=2),
    Message('note_on', channel=3, note=48, velocity=60, time=28),
    Message('note_on', channel=3, note=48, velocity=0, time=23),
    Message('note_on', channel=3, note=55, velocity=87, time=37),
    Message('note_on', channel=3, note=60, velocity=101, time=0),
    Message('note_on', channel=3, note=64, velocity=98, time=0),
    Message('note_on', channel=3, note=55, velocity=0, time=30),
    Message('note_on', channel=3, note=60, velocity=0, time=3),
    Message('note_on', channel=3, note=64, velocity=0, time=4),
    Message('note_on', channel=3, note=60, velocity=85, time=83),
    Message('note_on', channel=3, note=55, velocity=62, time=0),
    Message('note_on', channel=3, note=64, velocity=87, time=0),
    Message('note_on', channel=3, note=60, velocity=0, time=26),
    Message('note_on', channel=3, note=55, velocity=0, time=5),
    Message('note_on', channel=3, note=64, velocity=0, time=2),
    Message('note_on', channel=3, note=48, velocity=55, time=27),
    Message('note_on', channel=3, note=48, velocity=0, time=23),
    Message('note_on', channel=3, note=55, velocity=87, time=37),
    Message('note_on', channel=3, note=64, velocity=95, time=0),
    Message('note_on', channel=3, note=60, velocity=98, time=0),
    Message('note_on', channel=3, note=55, velocity=0, time=29),
    Message('note_on', channel=3, note=60, velocity=0, time=8),
    Message('note_on', channel=3, note=64, velocity=0, time=0),
    Message('note_on', channel=3, note=60, velocity=74, time=83),
    Message('note_on', channel=3, note=55, velocity=63, time=0),
    Message('note_on', channel=3, note=64, velocity=80, time=0),
    Message('note_on', channel=3, note=60, velocity=0, time=30),
    Message('note_on', channel=3, note=55, velocity=0, time=6),
    Message('note_on', channel=3, note=64, velocity=0, time=1),
    Message('note_on', channel=3, note=48, velocity=78, time=23),
    Message('note_on', channel=3, note=48, velocity=0, time=37),
    Message('note_on', channel=3, note=55, velocity=87, time=23),
    Message('note_on', channel=3, note=64, velocity=97, time=0),
    Message('note_on', channel=3, note=60, velocity=98, time=0),
    Message('note_on', channel=3, note=55, velocity=0, time=36),
    Message('note_on', channel=3, note=60, velocity=0, time=5),
    Message('note_on', channel=3, note=64, velocity=0, time=2),
    Message('note_on', channel=3, note=55, velocity=78, time=77),
    Message('note_on', channel=3, note=60, velocity=97, time=0),
    Message('note_on', channel=3, note=64, velocity=92, time=0),
    Message('note_on', channel=3, note=60, velocity=0, time=40),
    Message('note_on', channel=3, note=55, velocity=0, time=2),
    Message('note_on', channel=3, note=64, velocity=0, time=5),
    Message('control_change', channel=3, control=64, value=0, time=44),
    Message('note_on', channel=3, note=62, velocity=95, time=29),
    Message('note_on', channel=3, note=55, velocity=87, time=0),
    Message('note_on', channel=3, note=59, velocity=95, time=0),
    Message('note_on', channel=3, note=43, velocity=87, time=0),
    Message('control_change', channel=3, control=64, value=127, time=35),
    Message('note_on', channel=3, note=55, velocity=0, time=21),
    Message('note_on', channel=3, note=62, velocity=0, time=6),
    Message('note_on', channel=3, note=59, velocity=0, time=2),
    Message('note_on', channel=3, note=43, velocity=0, time=32),
    Message('note_on', channel=3, note=55, velocity=63, time=24),
    Message('note_on', channel=3, note=62, velocity=78, time=0),
    Message('note_on', channel=3, note=59, velocity=69, time=0),
    Message('note_on', channel=3, note=55, velocity=0, time=34),
    Message('note_on', channel=3, note=59, velocity=0, time=1),
    Message('note_on', channel=3, note=62, velocity=0, time=0),
    Message('note_on', channel=3, note=43, velocity=80, time=25),
    Message('note_on', channel=3, note=43, velocity=0, time=31),
    Message('note_on', channel=3, note=55, velocity=84, time=29),
    Message('note_on', channel=3, note=59, velocity=97, time=0),
    Message('note_on', channel=3, note=62, velocity=98, time=0),
    Message('note_on', channel=3, note=55, velocity=0, time=30),
    Message('note_on', channel=3, note=59, velocity=0, time=6),
    Message('note_on', channel=3, note=62, velocity=0, time=2),
    Message('note_on', channel=3, note=62, velocity=71, time=82),
    Message('note_on', channel=3, note=55, velocity=63, time=0),
    Message('note_on', channel=3, note=59, velocity=81, time=0),
    Message('note_on', channel=3, note=62, velocity=0, time=27),
    Message('note_on', channel=3, note=55, velocity=0, time=2),
    Message('note_on', channel=3, note=59, velocity=0, time=1),
    Message('note_on', channel=3, note=43, velocity=68, time=30),
    Message('note_on', channel=3, note=43, velocity=0, time=29),
    Message('note_on', channel=3, note=55, velocity=89, time=31),
    Message('note_on', channel=3, note=62, velocity=95, time=0),
    Message('note_on', channel=3, note=59, velocity=97, time=0),
    Message('note_on', channel=3, note=55, velocity=0, time=31),
    Message('note_on', channel=3, note=59, velocity=0, time=2),
    Message('note_on', channel=3, note=62, velocity=0, time=0),
    Message('note_on', channel=3, note=55, velocity=71, time=87),
    Message('note_on', channel=3, note=62, velocity=89, time=0),
    Message('note_on', channel=3, note=59, velocity=81, time=0),
    Message('note_on', channel=3, note=59, velocity=0, time=31),
    Message('note_on', channel=3, note=55, velocity=0, time=3),
    Message('note_on', channel=3, note=62, velocity=0, time=1),
    Message('note_on', channel=3, note=43, velocity=84, time=25),
    Message('note_on', channel=3, note=43, velocity=0, time=31),
    Message('note_on', channel=3, note=59, velocity=92, time=29),
    Message('note_on', channel=3, note=55, velocity=89, time=0),
    Message('note_on', channel=3, note=62, velocity=95, time=0),
    Message('note_on', channel=3, note=55, velocity=0, time=37),
    Message('note_on', channel=3, note=59, velocity=0, time=0),
    Message('note_on', channel=3, note=62, velocity=0, time=4),
    Message('note_on', channel=3, note=43, velocity=80, time=19),
    Message('note_on', channel=3, note=43, velocity=0, time=41),
    Message('note_on', channel=3, note=55, velocity=69, time=19),
    Message('note_on', channel=3, note=59, velocity=85, time=0),
    Message('note_on', channel=3, note=62, velocity=89, time=0),
    Message('note_on', channel=3, note=55, velocity=0, time=38),
    Message('note_on', channel=3, note=59, velocity=0, time=2),
    Message('note_on', channel=3, note=62, velocity=0, time=3),
    Message('control_change', channel=3, control=64, value=0, time=51),
    Message('note_on', channel=3, note=57, velocity=95, time=26),
    Message('note_on', channel=3, note=53, velocity=85, time=0),
    Message('note_on', channel=3, note=60, velocity=95, time=0),
    Message('note_on', channel=3, note=41, velocity=80, time=0),
    Message('control_change', channel=3, control=64, value=127, time=41),
    Message('note_on', channel=3, note=53, velocity=0, time=13),
    Message('note_on', channel=3, note=57, velocity=0, time=3),
    Message('note_on', channel=3, note=60, velocity=0, time=4),
    Message('note_on', channel=3, note=41, velocity=0, time=43),
    Message('note_on', channel=3, note=53, velocity=56, time=16),
    Message('note_on', channel=3, note=60, velocity=71, time=0),
    Message('note_on', channel=3, note=57, velocity=66, time=0),
    Message('note_on', channel=3, note=53, velocity=0, time=35),
    Message('note_on', channel=3, note=57, velocity=0, time=2),
    Message('note_on', channel=3, note=60, velocity=0, time=0),
    Message('note_on', channel=3, note=41, velocity=81, time=23),
    Message('note_on', channel=3, note=41, velocity=0, time=35),
    Message('note_on', channel=3, note=53, velocity=85, time=25),
    Message('note_on', channel=3, note=57, velocity=98, time=0),
    Message('note_on', channel=3, note=60, velocity=92, time=0),
    Message('note_on', channel=3, note=53, velocity=0, time=36),
    Message('note_on', channel=3, note=57, velocity=0, time=1),
    Message('note_on', channel=3, note=60, velocity=0, time=2),
    Message('note_on', channel=3, note=60, velocity=84, time=81),
    Message('note_on', channel=3, note=53, velocity=80, time=0),
    Message('note_on', channel=3, note=57, velocity=91, time=0),
    Message('note_on', channel=3, note=53, velocity=0, time=35),
    Message('note_on', channel=3, note=60, velocity=0, time=0),
    Message('note_on', channel=3, note=57, velocity=0, time=1),
    Message('note_on', channel=3, note=41, velocity=81, time=24),
    Message('note_on', channel=3, note=41, velocity=0, time=40),
    Message('note_on', channel=3, note=57, velocity=87, time=20),
    Message('note_on', channel=3, note=53, velocity=80, time=0),
    Message('note_on', channel=3, note=60, velocity=85, time=0),
    Message('note_on', channel=3, note=53, velocity=0, time=39),
    Message('note_on', channel=3, note=57, velocity=0, time=0),
    Message('note_on', channel=3, note=60, velocity=0, time=4),
    Message('note_on', channel=3, note=57, velocity=92, time=77),
    Message('note_on', channel=3, note=60, velocity=89, time=0),
    Message('note_on', channel=3, note=53, velocity=81, time=0),
    Message('note_on', channel=3, note=53, velocity=0, time=42),
    Message('note_on', channel=3, note=57, velocity=0, time=0),
    Message('note_on', channel=3, note=60, velocity=0, time=3),
    Message('note_on', channel=3, note=53, velocity=84, time=75),
    Message('note_on', channel=3, note=60, velocity=92, time=0),
    Message('note_on', channel=3, note=57, velocity=97, time=0),
    Message('note_on', channel=3, note=53, velocity=0, time=39),
    Message('note_on', channel=3, note=57, velocity=0, time=2),
    Message('note_on', channel=3, note=60, velocity=0, time=3),
    Message('note_on', channel=3, note=57, velocity=91, time=76),
    Message('note_on', channel=3, note=53, velocity=81, time=0),
    Message('note_on', channel=3, note=60, velocity=95, time=0),
    Message('note_on', channel=3, note=53, velocity=0, time=32),
    Message('note_on', channel=3, note=57, velocity=0, time=2),
    Message('note_on', channel=3, note=60, velocity=0, time=7),
    Message('control_change', channel=3, control=64, value=0, time=55),
    Message('note_on', channel=3, note=48, velocity=98, time=24),
    Message('control_change', channel=3, control=64, value=127, time=32),
    Message('note_on', channel=3, note=48, velocity=0, time=78),
    Message('note_on', channel=3, note=55, velocity=61, time=10),
    Message('note_on', channel=3, note=60, velocity=71, time=0),
    Message('note_on', channel=3, note=64, velocity=74, time=0),
    Message('note_on', channel=3, note=60, velocity=0, time=30),
    Message('note_on', channel=3, note=55, velocity=0, time=1),
    Message('note_on', channel=3, note=64, velocity=0, time=7),
    Message('note_on', channel=3, note=48, velocity=66, time=22),
    Message('note_on', channel=3, note=48, velocity=0, time=30),
    Message('note_on', channel=3, note=55, velocity=87, time=30),
    Message('note_on', channel=3, note=60, velocity=97, time=0),
    Message('note_on', channel=3, note=64, velocity=92, time=0),
    Message('note_on', channel=3, note=55, velocity=0, time=33),
    Message('note_on', channel=3, note=60, velocity=0, time=1),
    Message('note_on', channel=3, note=64, velocity=0, time=6),
    Message('note_on', channel=3, note=60, velocity=87, time=80),
    Message('note_on', channel=3, note=55, velocity=69, time=0),
    Message('note_on', channel=3, note=64, velocity=87, time=0),
    Message('note_on', channel=3, note=60, velocity=0, time=30),
    Message('note_on', channel=3, note=55, velocity=0, time=4),
    Message('note_on', channel=3, note=64, velocity=0, time=2),
    Message('note_on', channel=3, note=48, velocity=81, time=24),
    Message('note_on', channel=3, note=48, velocity=0, time=39),
    Message('note_on', channel=3, note=55, velocity=87, time=21),
    Message('note_on', channel=3, note=60, velocity=97, time=0),
    Message('note_on', channel=3, note=64, velocity=95, time=0),
    Message('note_on', channel=3, note=55, velocity=0, time=31),
    Message('note_on', channel=3, note=60, velocity=0, time=1),
    Message('note_on', channel=3, note=64, velocity=0, time=8),
    Message('note_on', channel=3, note=55, velocity=85, time=80),
    Message('note_on', channel=3, note=60, velocity=97, time=0),
    Message('note_on', channel=3, note=64, velocity=101, time=0),
    Message('note_on', channel=3, note=60, velocity=0, time=31),
    Message('note_on', channel=3, note=55, velocity=0, time=0),
    Message('note_on', channel=3, note=64, velocity=0, time=5),
    Message('note_on', channel=3, note=55, velocity=69, time=84),
    Message('note_on', channel=3, note=60, velocity=92, time=0),
    Message('note_on', channel=3, note=64, velocity=84, time=0),
    Message('note_on', channel=3, note=55, velocity=0, time=32),
    Message('note_on', channel=3, note=60, velocity=0, time=2),
    Message('note_on', channel=3, note=64, velocity=0, time=3),
    Message('note_on', channel=3, note=60, velocity=74, time=83),
    Message('note_on', channel=3, note=64, velocity=69, time=0),
    Message('note_on', channel=3, note=55, velocity=63, time=0),
    Message('note_on', channel=3, note=60, velocity=0, time=27),
    Message('note_on', channel=3, note=55, velocity=0, time=4),
    Message('note_on', channel=3, note=64, velocity=0, time=0),
    Message('note_on', channel=3, note=48, velocity=38, time=29),
    Message('note_on', channel=3, note=48, velocity=0, time=29),
    Message('note_on', channel=3, note=55, velocity=84, time=31),
    Message('note_on', channel=3, note=60, velocity=98, time=0),
    Message('note_on', channel=3, note=64, velocity=97, time=0),
    Message('note_on', channel=3, note=60, velocity=0, time=36),
    Message('note_on', channel=3, note=55, velocity=0, time=1),
    Message('note_on', channel=3, note=64, velocity=0, time=4),
    Message('note_on', channel=3, note=60, velocity=68, time=79),
    Message('note_on', channel=3, note=64, velocity=69, time=0),
    Message('note_on', channel=3, note=55, velocity=60, time=0),
    Message('note_on', channel=3, note=60, velocity=0, time=26),
    Message('note_on', channel=3, note=64, velocity=0, time=3),
    Message('note_on', channel=3, note=55, velocity=0, time=3),
    Message('note_on', channel=3, note=48, velocity=87, time=28),
    Message('note_on', channel=3, note=48, velocity=0, time=37),
    Message('note_on', channel=3, note=60, velocity=98, time=23),
    Message('note_on', channel=3, note=55, velocity=89, time=0),
    Message('note_on', channel=3, note=64, velocity=97, time=0),
    Message('note_on', channel=3, note=64, velocity=0, time=41),
    Message('note_on', channel=3, note=60, velocity=0, time=0),
    Message('note_on', channel=3, note=55, velocity=0, time=3),
    Message('note_on', channel=3, note=60, velocity=87, time=76),
    Message('note_on', channel=3, note=64, velocity=87, time=0),
    Message('note_on', channel=3, note=55, velocity=69, time=0),
    Message('note_on', channel=3, note=60, velocity=0, time=37),
    Message('note_on', channel=3, note=55, velocity=0, time=8),
    Message('note_on', channel=3, note=64, velocity=0, time=0),
    Message('note_on', channel=3, note=48, velocity=89, time=15),
    Message('note_on', channel=3, note=48, velocity=0, time=34),
    Message('note_on', channel=3, note=60, velocity=95, time=26),
    Message('note_on', channel=3, note=64, velocity=95, time=0),
    Message('note_on', channel=3, note=55, velocity=89, time=0),
    Message('note_on', channel=3, note=60, velocity=0, time=39),
    Message('note_on', channel=3, note=55, velocity=0, time=4),
    Message('note_on', channel=3, note=64, velocity=0, time=1),
    Message('note_on', channel=3, note=60, velocity=97, time=76),
    Message('note_on', channel=3, note=64, velocity=95, time=0),
    Message('note_on', channel=3, note=55, velocity=91, time=0),
    Message('note_on', channel=3, note=60, velocity=0, time=49),
    Message('note_on', channel=3, note=64, velocity=0, time=3),
    Message('note_on', channel=3, note=55, velocity=0, time=3),
    Message('note_on', channel=3, note=55, velocity=85, time=65),
    Message('note_on', channel=3, note=60, velocity=98, time=0),
    Message('note_on', channel=3, note=64, velocity=98, time=0),
    Message('note_on', channel=3, note=60, velocity=0, time=41),
    Message('note_on', channel=3, note=64, velocity=0, time=3),
    Message('note_on', channel=3, note=55, velocity=0, time=2),
    Message('control_change', channel=3, control=64, value=0, time=177),
    Message('note_on', channel=3, note=55, velocity=115, time=17),
    Message('note_on', channel=3, note=59, velocity=105, time=0),
    Message('note_on', channel=3, note=52, velocity=110, time=0),
    Message('note_on', channel=3, note=40, velocity=97, time=0),
    Message('note_on', channel=3, note=52, velocity=0, time=1633),
    Message('note_on', channel=3, note=59, velocity=0, time=8),
    Message('note_on', channel=3, note=55, velocity=0, time=4),
    Message('note_on', channel=3, note=40, velocity=0, time=2),
    MetaMessage('end_of_track', time=0)]),
  MidiTrack([
    MetaMessage('midi_port', port=0, time=0),
    MetaMessage('track_name', name='Banjo', time=0),
    Message('program_change', channel=4, program=105, time=0),
    Message('control_change', channel=4, control=7, value=127, time=0),
    Message('control_change', channel=4, control=10, value=42, time=0),
    Message('control_change', channel=4, control=10, value=38, time=49009),
    Message('note_on', channel=4, note=59, velocity=87, time=1511),
    Message('note_on', channel=4, note=67, velocity=84, time=0),
    Message('note_on', channel=4, note=59, velocity=0, time=81),
    Message('note_on', channel=4, note=67, velocity=0, time=6),
    Message('note_on', channel=4, note=60, velocity=87, time=33),
    Message('note_on', channel=4, note=67, velocity=84, time=0),
    Message('note_on', channel=4, note=60, velocity=0, time=76),
    Message('note_on', channel=4, note=67, velocity=0, time=8),
    Message('note_on', channel=4, note=61, velocity=86, time=36),
    Message('note_on', channel=4, note=67, velocity=83, time=0),
    Message('note_on', channel=4, note=61, velocity=0, time=66),
    Message('note_on', channel=4, note=67, velocity=0, time=7),
    Message('note_on', channel=4, note=50, velocity=83, time=47),
    Message('control_change', channel=4, control=64, value=127, time=114),
    Message('note_on', channel=4, note=55, velocity=83, time=6),
    Message('note_on', channel=4, note=50, velocity=0, time=20),
    Message('note_on', channel=4, note=55, velocity=0, time=15),
    Message('note_on', channel=4, note=59, velocity=70, time=25),
    Message('note_on', channel=4, note=59, velocity=0, time=54),
    Message('note_on', channel=4, note=62, velocity=64, time=6),
    Message('note_on', channel=4, note=62, velocity=0, time=43),
    Message('note_on', channel=4, note=67, velocity=79, time=17),
    Message('note_on', channel=4, note=67, velocity=0, time=60),
    Message('note_on', channel=4, note=62, velocity=86, time=0),
    Message('note_on', channel=4, note=62, velocity=0, time=52),
    Message('note_on', channel=4, note=55, velocity=81, time=8),
    Message('note_on', channel=4, note=55, velocity=0, time=31),
    Message('note_on', channel=4, note=59, velocity=74, time=29),
    Message('note_on', channel=4, note=59, velocity=0, time=39),
    Message('note_on', channel=4, note=62, velocity=83, time=21),
    Message('note_on', channel=4, note=55, velocity=81, time=60),
    Message('note_on', channel=4, note=62, velocity=0, time=30),
    Message('note_on', channel=4, note=55, velocity=0, time=4),
    Message('note_on', channel=4, note=67, velocity=78, time=26),
    Message('control_change', channel=4, control=10, value=37, time=32),
    Message('note_on', channel=4, note=67, velocity=0, time=22),
    Message('note_on', channel=4, note=62, velocity=78, time=6),
    Message('control_change', channel=4, control=10, value=34, time=11),
    Message('control_change', channel=4, control=10, value=32, time=15),
    Message('note_on', channel=4, note=62, velocity=0, time=25),
    Message('control_change', channel=4, control=10, value=29, time=0),
    Message('note_on', channel=4, note=50, velocity=75, time=9),
    Message('note_on', channel=4, note=50, velocity=0, time=44),
    Message('note_on', channel=4, note=59, velocity=77, time=16),
    Message('control_change', channel=4, control=10, value=27, time=0),
    Message('note_on', channel=4, note=59, velocity=0, time=44),
    Message('control_change', channel=4, control=10, value=24, time=5),
    Message('note_on', channel=4, note=55, velocity=83, time=11),
    Message('control_change', channel=4, control=10, value=21, time=20),
    Message('note_on', channel=4, note=55, velocity=0, time=14),
    Message('note_on', channel=4, note=59, velocity=74, time=26),
    Message('control_change', channel=4, control=10, value=18, time=8),
    Message('control_change', channel=4, control=10, value=15, time=34),
    Message('note_on', channel=4, note=59, velocity=0, time=7),
    Message('note_on', channel=4, note=55, velocity=83, time=11),
    Message('control_change', channel=4, control=10, value=12, time=27),
    Message('note_on', channel=4, note=55, velocity=0, time=6),
    Message('note_on', channel=4, note=60, velocity=81, time=27),
    Message('control_change', channel=4, control=10, value=9, time=19),
    Message('note_on', channel=4, note=60, velocity=0, time=26),
    Message('note_on', channel=4, note=55, velocity=81, time=15),
    Message('note_on', channel=4, note=55, velocity=0, time=32),
    Message('note_on', channel=4, note=62, velocity=81, time=28),
    Message('control_change', channel=4, control=64, value=0, time=2),
    Message('control_change', channel=4, control=64, value=127, time=55),
    Message('note_on', channel=4, note=55, velocity=81, time=3),
    Message('note_on', channel=4, note=55, velocity=0, time=34),
    Message('note_on', channel=4, note=62, velocity=0, time=18),
    Message('note_on', channel=4, note=59, velocity=73, time=8),
    Message('note_on', channel=4, note=62, velocity=74, time=60),
    Message('note_on', channel=4, note=59, velocity=0, time=18),
    Message('note_on', channel=4, note=50, velocity=81, time=42),
    Message('note_on', channel=4, note=62, velocity=0, time=28),
    Message('note_on', channel=4, note=50, velocity=0, time=18),
    Message('note_on', channel=4, note=67, velocity=75, time=14),
    Message('note_on', channel=4, note=62, velocity=77, time=60),
    Message('note_on', channel=4, note=67, velocity=0, time=15),
    Message('note_on', channel=4, note=59, velocity=81, time=45),
    Message('note_on', channel=4, note=62, velocity=0, time=7),
    Message('note_on', channel=4, note=59, velocity=0, time=39),
    Message('note_on', channel=4, note=55, velocity=81, time=14),
    Message('note_on', channel=4, note=55, velocity=0, time=34),
    Message('note_on', channel=4, note=59, velocity=81, time=26),
    Message('note_on', channel=4, note=59, velocity=0, time=44),
    Message('note_on', channel=4, note=55, velocity=86, time=16),
    Message('control_change', channel=4, control=64, value=0, time=37),
    Message('note_on', channel=4, note=62, velocity=86, time=23),
    Message('note_on', channel=4, note=55, velocity=0, time=12),
    Message('control_change', channel=4, control=64, value=127, time=21),
    Message('note_on', channel=4, note=55, velocity=81, time=27),
    Message('note_on', channel=4, note=62, velocity=0, time=37),
    Message('note_on', channel=4, note=55, velocity=0, time=2),
    Message('note_on', channel=4, note=59, velocity=79, time=21),
    Message('control_change', channel=4, control=10, value=12, time=10),
    Message('note_on', channel=4, note=55, velocity=87, time=50),
    Message('note_on', channel=4, note=55, velocity=0, time=38),
    Message('note_on', channel=4, note=59, velocity=0, time=15),
    Message('note_on', channel=4, note=67, velocity=79, time=7),
    Message('note_on', channel=4, note=62, velocity=83, time=60),
    Message('control_change', channel=4, control=10, value=15, time=0),
    Message('control_change', channel=4, control=10, value=18, time=10),
    Message('note_on', channel=4, note=67, velocity=0, time=18),
    Message('control_change', channel=4, control=10, value=21, time=0),
    Message('control_change', channel=4, control=10, value=24, time=20),
    Message('note_on', channel=4, note=50, velocity=84, time=12),
    Message('note_on', channel=4, note=62, velocity=0, time=31),
    Message('note_on', channel=4, note=50, velocity=0, time=13),
    Message('note_on', channel=4, note=59, velocity=74, time=16),
    Message('note_on', channel=4, note=62, velocity=74, time=60),
    Message('control_change', channel=4, control=10, value=27, time=0),
    Message('note_on', channel=4, note=59, velocity=0, time=15),
    Message('control_change', channel=4, control=10, value=29, time=0),
    Message('control_change', channel=4, control=64, value=0, time=38),
    Message('note_on', channel=4, note=62, velocity=0, time=1),
    Message('note_on', channel=4, note=57, velocity=68, time=6),
    Message('note_on', channel=4, note=50, velocity=81, time=0),
    Message('note_on', channel=4, note=57, velocity=0, time=25),
    Message('control_change', channel=4, control=10, value=32, time=10),
    Message('control_change', channel=4, control=64, value=127, time=14),
    Message('note_on', channel=4, note=57, velocity=81, time=11),
    Message('note_on', channel=4, note=57, velocity=0, time=52),
    Message('note_on', channel=4, note=62, velocity=74, time=8),
    Message('control_change', channel=4, control=10, value=34, time=0),
    Message('note_on', channel=4, note=50, velocity=0, time=36),
    Message('note_on', channel=4, note=62, velocity=0, time=19),
    Message('note_on', channel=4, note=66, velocity=79, time=5),
    Message('note_on', channel=4, note=69, velocity=69, time=60),
    Message('note_on', channel=4, note=66, velocity=0, time=3),
    Message('control_change', channel=4, control=10, value=38, time=39),
    Message('note_on', channel=4, note=66, velocity=81, time=18),
    Message('note_on', channel=4, note=69, velocity=0, time=18),
    Message('note_on', channel=4, note=66, velocity=0, time=39),
    Message('note_on', channel=4, note=62, velocity=81, time=3),
    Message('control_change', channel=4, control=10, value=40, time=9),
    Message('control_change', channel=4, control=10, value=42, time=10),
    Message('control_change', channel=4, control=10, value=44, time=20),
    Message('note_on', channel=4, note=62, velocity=0, time=7),
    Message('note_on', channel=4, note=48, velocity=81, time=14),
    Message('control_change', channel=4, control=64, value=0, time=32),
    Message('note_on', channel=4, note=55, velocity=86, time=28),
    Message('control_change', channel=4, control=10, value=46, time=0),
    Message('control_change', channel=4, control=10, value=48, time=9),
    Message('control_change', channel=4, control=64, value=127, time=25),
    Message('note_on', channel=4, note=55, velocity=0, time=13),
    Message('note_on', channel=4, note=60, velocity=70, time=13),
    Message('note_on', channel=4, note=60, velocity=0, time=44),
    Message('note_on', channel=4, note=64, velocity=78, time=16),
    Message('note_on', channel=4, note=55, velocity=83, time=60),
    Message('note_on', channel=4, note=64, velocity=0, time=6),
    Message('note_on', channel=4, note=55, velocity=0, time=30),
    Message('note_on', channel=4, note=67, velocity=73, time=24),
    Message('note_on', channel=4, note=62, velocity=81, time=60),
    Message('note_on', channel=4, note=67, velocity=0, time=13),
    Message('note_on', channel=4, note=55, velocity=84, time=47),
    Message('note_on', channel=4, note=62, velocity=0, time=4),
    Message('note_on', channel=4, note=55, velocity=0, time=32),
    Message('note_on', channel=4, note=60, velocity=78, time=24),
    Message('note_on', channel=4, note=60, velocity=0, time=51),
    Message('note_on', channel=4, note=64, velocity=81, time=9),
    Message('note_on', channel=4, note=64, velocity=0, time=47),
    Message('note_on', channel=4, note=55, velocity=83, time=13),
    Message('control_change', channel=4, control=10, value=51, time=20),
    Message('note_on', channel=4, note=55, velocity=0, time=15),
    Message('control_change', channel=4, control=10, value=52, time=0),
    Message('note_on', channel=4, note=67, velocity=75, time=25),
    Message('note_on', channel=4, note=62, velocity=83, time=60),
    Message('note_on', channel=4, note=67, velocity=0, time=47),
    Message('note_on', channel=4, note=55, velocity=83, time=13),
    Message('note_on', channel=4, note=62, velocity=0, time=15),
    Message('note_on', channel=4, note=55, velocity=0, time=37),
    Message('note_on', channel=4, note=48, velocity=0, time=6),
    Message('note_on', channel=4, note=60, velocity=74, time=2),
    Message('note_on', channel=4, note=60, velocity=0, time=53),
    Message('note_on', channel=4, note=62, velocity=74, time=7),
    Message('note_on', channel=4, note=60, velocity=79, time=60),
    Message('note_on', channel=4, note=62, velocity=0, time=2),
    Message('note_on', channel=4, note=60, velocity=0, time=45),
    Message('note_on', channel=4, note=50, velocity=84, time=13),
    Message('control_change', channel=4, control=64, value=0, time=14),
    Message('note_on', channel=4, note=55, velocity=83, time=46),
    Message('control_change', channel=4, control=64, value=127, time=9),
    Message('note_on', channel=4, note=55, velocity=0, time=45),
    Message('control_change', channel=4, control=10, value=54, time=49),
    Message('note_on', channel=4, note=55, velocity=83, time=17),
    Message('control_change', channel=4, control=10, value=57, time=20),
    Message('note_on', channel=4, note=55, velocity=0, time=17),
    Message('note_on', channel=4, note=62, velocity=77, time=23),
    Message('note_on', channel=4, note=62, velocity=0, time=54),
    Message('note_on', channel=4, note=55, velocity=84, time=6),
    Message('note_on', channel=4, note=55, velocity=0, time=36),
    Message('note_on', channel=4, note=62, velocity=73, time=24),
    Message('note_on', channel=4, note=50, velocity=0, time=7),
    Message('control_change', channel=4, control=10, value=60, time=23),
    Message('note_on', channel=4, note=62, velocity=0, time=9),
    Message('note_on', channel=4, note=67, velocity=81, time=21),
    Message('note_on', channel=4, note=50, velocity=74, time=60),
    Message('note_on', channel=4, note=67, velocity=0, time=12),
    Message('note_on', channel=4, note=62, velocity=74, time=48),
    Message('control_change', channel=4, control=10, value=63, time=0),
    Message('control_change', channel=4, control=10, value=66, time=38),
    Message('note_on', channel=4, note=62, velocity=0, time=20),
    Message('note_on', channel=4, note=55, velocity=84, time=2),
    Message('control_change', channel=4, control=10, value=69, time=8),
    Message('note_on', channel=4, note=55, velocity=0, time=38),
    Message('control_change', channel=4, control=10, value=72, time=7),
    Message('note_on', channel=4, note=67, velocity=74, time=7),
    Message('note_on', channel=4, note=50, velocity=0, time=18),
    Message('note_on', channel=4, note=62, velocity=81, time=42),
    Message('note_on', channel=4, note=67, velocity=0, time=6),
    Message('note_on', channel=4, note=62, velocity=0, time=54),
    Message('note_on', channel=4, note=50, velocity=75, time=0),
    Message('note_on', channel=4, note=50, velocity=0, time=55),
    Message('note_on', channel=4, note=67, velocity=78, time=5),
    Message('note_on', channel=4, note=67, velocity=0, time=56),
    Message('note_on', channel=4, note=62, velocity=78, time=4),
    Message('note_on', channel=4, note=62, velocity=0, time=54),
    Message('note_on', channel=4, note=50, velocity=81, time=6),
    Message('control_change', channel=4, control=64, value=0, time=4),
    Message('control_change', channel=4, control=10, value=74, time=4),
    Message('note_on', channel=4, note=57, velocity=83, time=52),
    Message('control_change', channel=4, control=64, value=127, time=11),
    Message('note_on', channel=4, note=69, velocity=74, time=49),
    Message('note_on', channel=4, note=57, velocity=0, time=1),
    Message('note_on', channel=4, note=50, velocity=0, time=40),
    Message('note_on', channel=4, note=66, velocity=75, time=19),
    Message('note_on', channel=4, note=69, velocity=0, time=8),
    Message('control_change', channel=4, control=10, value=72, time=10),
    Message('note_on', channel=4, note=66, velocity=0, time=42),
    Message('note_on', channel=4, note=62, velocity=79, time=0),
    Message('note_on', channel=4, note=62, velocity=0, time=48),
    Message('note_on', channel=4, note=57, velocity=79, time=12),
    Message('control_change', channel=4, control=10, value=73, time=0),
    Message('note_on', channel=4, note=57, velocity=0, time=44),
    Message('control_change', channel=4, control=10, value=74, time=0),
    Message('note_on', channel=4, note=66, velocity=83, time=16),
    Message('note_on', channel=4, note=66, velocity=0, time=54),
    Message('note_on', channel=4, note=62, velocity=79, time=6),
    Message('control_change', channel=4, control=10, value=77, time=29),
    Message('note_on', channel=4, note=62, velocity=0, time=17),
    Message('control_change', channel=4, control=10, value=79, time=0),
    Message('note_on', channel=4, note=57, velocity=81, time=14),
    Message('control_change', channel=4, control=10, value=82, time=28),
    Message('note_on', channel=4, note=57, velocity=0, time=17),
    Message('note_on', channel=4, note=64, velocity=81, time=15),
    Message('note_on', channel=4, note=64, velocity=0, time=48),
    Message('note_on', channel=4, note=62, velocity=81, time=12),
    Message('note_on', channel=4, note=62, velocity=0, time=56),
    Message('note_on', channel=4, note=57, velocity=75, time=4),
    Message('control_change', channel=4, control=10, value=87, time=4),
    Message('control_change', channel=4, control=10, value=89, time=10),
    Message('control_change', channel=4, control=10, value=91, time=20),
    Message('note_on', channel=4, note=57, velocity=0, time=12),
    Message('control_change', channel=4, control=10, value=94, time=0),
    Message('note_on', channel=4, note=66, velocity=69, time=14),
    Message('note_on', channel=4, note=64, velocity=75, time=60),
    Message('note_on', channel=4, note=66, velocity=0, time=32),
    Message('note_on', channel=4, note=62, velocity=77, time=28),
    Message('note_on', channel=4, note=64, velocity=0, time=6),
    Message('note_on', channel=4, note=62, velocity=0, time=52),
    Message('note_on', channel=4, note=64, velocity=77, time=2),
    Message('note_on', channel=4, note=64, velocity=0, time=53),
    Message('note_on', channel=4, note=48, velocity=83, time=7),
    Message('control_change', channel=4, control=64, value=0, time=24),
    Message('note_on', channel=4, note=55, velocity=81, time=36),
    Message('control_change', channel=4, control=64, value=127, time=20),
    Message('note_on', channel=4, note=55, velocity=0, time=27),
    Message('note_on', channel=4, note=60, velocity=75, time=13),
    Message('note_on', channel=4, note=60, velocity=0, time=48),
    Message('note_on', channel=4, note=64, velocity=81, time=12),
    Message('note_on', channel=4, note=55, velocity=83, time=60),
    Message('note_on', channel=4, note=64, velocity=0, time=16),
    Message('note_on', channel=4, note=55, velocity=0, time=23),
    Message('note_on', channel=4, note=67, velocity=75, time=21),
    Message('note_on', channel=4, note=64, velocity=74, time=60),
    Message('note_on', channel=4, note=67, velocity=0, time=6),
    Message('control_change', channel=4, control=10, value=98, time=35),
    Message('note_on', channel=4, note=64, velocity=0, time=19),
    Message('note_on', channel=4, note=55, velocity=81, time=0),
    Message('note_on', channel=4, note=55, velocity=0, time=39),
    Message('note_on', channel=4, note=60, velocity=74, time=21),
    Message('control_change', channel=4, control=10, value=97, time=15),
    Message('note_on', channel=4, note=60, velocity=0, time=28),
    Message('control_change', channel=4, control=10, value=95, time=0),
    Message('note_on', channel=4, note=62, velocity=73, time=17),
    Message('control_change', channel=4, control=10, value=91, time=0),
    Message('note_on', channel=4, note=62, velocity=0, time=53),
    Message('note_on', channel=4, note=55, velocity=83, time=7),
    Message('note_on', channel=4, note=55, velocity=0, time=55),
    Message('note_on', channel=4, note=64, velocity=79, time=5),
    Message('control_change', channel=4, control=10, value=87, time=16),
    Message('control_change', channel=4, control=10, value=81, time=14),
    Message('note_on', channel=4, note=55, velocity=81, time=30),
    Message('note_on', channel=4, note=64, velocity=0, time=34),
    Message('note_on', channel=4, note=55, velocity=0, time=21),
    Message('note_on', channel=4, note=60, velocity=78, time=5),
    Message('note_on', channel=4, note=48, velocity=0, time=7),
    Message('note_on', channel=4, note=60, velocity=0, time=40),
    Message('note_on', channel=4, note=62, velocity=74, time=13),
    Message('control_change', channel=4, control=10, value=79, time=19),
    Message('note_on', channel=4, note=62, velocity=0, time=38),
    Message('note_on', channel=4, note=60, velocity=78, time=3),
    Message('control_change', channel=4, control=10, value=77, time=1),
    Message('note_on', channel=4, note=60, velocity=0, time=37),
    Message('control_change', channel=4, control=64, value=0, time=9),
    Message('note_on', channel=4, note=55, velocity=86, time=13),
    Message('control_change', channel=4, control=64, value=127, time=40),
    Message('note_on', channel=4, note=57, velocity=71, time=20),
    Message('note_on', channel=4, note=59, velocity=74, time=0),
    Message('control_change', channel=4, control=10, value=75, time=35),
    Message('note_on', channel=4, note=62, velocity=84, time=25),
    Message('note_on', channel=4, note=57, velocity=0, time=5),
    Message('note_on', channel=4, note=62, velocity=0, time=44),
    Message('note_on', channel=4, note=67, velocity=77, time=11),
    Message('note_on', channel=4, note=59, velocity=0, time=19),
    Message('note_on', channel=4, note=67, velocity=0, time=33),
    Message('note_on', channel=4, note=71, velocity=81, time=8),
    Message('control_change', channel=4, control=10, value=74, time=29),
    Message('control_change', channel=4, control=10, value=72, time=11),
    Message('note_on', channel=4, note=71, velocity=0, time=18),
    Message('note_on', channel=4, note=59, velocity=74, time=2),
    Message('control_change', channel=4, control=10, value=69, time=0),
    Message('control_change', channel=4, control=10, value=66, time=10),
    Message('control_change', channel=4, control=10, value=63, time=40),
    Message('note_on', channel=4, note=67, velocity=73, time=10),
    Message('note_on', channel=4, note=67, velocity=0, time=50),
    Message('note_on', channel=4, note=62, velocity=84, time=10),
    Message('control_change', channel=4, control=10, value=60, time=37),
    Message('note_on', channel=4, note=62, velocity=0, time=15),
    Message('note_on', channel=4, note=69, velocity=81, time=8),
    Message('control_change', channel=4, control=10, value=58, time=18),
    Message('note_on', channel=4, note=62, velocity=86, time=42),
    Message('note_on', channel=4, note=69, velocity=0, time=9),
    Message('control_change', channel=4, control=10, value=55, time=13),
    Message('note_on', channel=4, note=62, velocity=0, time=28),
    Message('note_on', channel=4, note=67, velocity=81, time=10),
    Message('note_on', channel=4, note=62, velocity=83, time=60),
    Message('control_change', channel=4, control=10, value=53, time=0),
    Message('note_on', channel=4, note=67, velocity=0, time=9),
    Message('note_on', channel=4, note=62, velocity=0, time=51),
    Message('note_on', channel=4, note=71, velocity=81, time=0),
    Message('note_on', channel=4, note=59, velocity=0, time=29),
    Message('note_on', channel=4, note=55, velocity=0, time=6),
    Message('note_on', channel=4, note=67, velocity=79, time=25),
    Message('note_on', channel=4, note=71, velocity=0, time=2),
    Message('note_on', channel=4, note=67, velocity=0, time=41),
    Message('note_on', channel=4, note=71, velocity=74, time=17),
    Message('note_on', channel=4, note=71, velocity=0, time=51),
    Message('note_on', channel=4, note=67, velocity=74, time=9),
    Message('note_on', channel=4, note=67, velocity=0, time=47),
    Message('note_on', channel=4, note=52, velocity=81, time=13),
    Message('control_change', channel=4, control=64, value=0, time=0),
    Message('control_change', channel=4, control=10, value=51, time=34),
    Message('control_change', channel=4, control=64, value=127, time=25),
    Message('note_on', channel=4, note=55, velocity=81, time=1),
    Message('note_on', channel=4, note=59, velocity=83, time=60),
    Message('note_on', channel=4, note=59, velocity=0, time=51),
    Message('note_on', channel=4, note=64, velocity=75, time=9),
    Message('control_change', channel=4, control=10, value=48, time=0),
    Message('note_on', channel=4, note=64, velocity=0, time=47),
    Message('note_on', channel=4, note=67, velocity=81, time=13),
    Message('control_change', channel=4, control=10, value=47, time=38),
    Message('note_on', channel=4, note=67, velocity=0, time=16),
    Message('note_on', channel=4, note=59, velocity=81, time=6),
    Message('note_on', channel=4, note=59, velocity=0, time=40),
    Message('note_on', channel=4, note=64, velocity=81, time=20),
    Message('control_change', channel=4, control=10, value=45, time=8),
    Message('control_change', channel=4, control=10, value=43, time=20),
    Message('note_on', channel=4, note=64, velocity=0, time=15),
    Message('note_on', channel=4, note=67, velocity=81, time=17),
    Message('control_change', channel=4, control=10, value=42, time=10),
    Message('note_on', channel=4, note=67, velocity=0, time=46),
    Message('note_on', channel=4, note=59, velocity=83, time=4),
    Message('note_on', channel=4, note=59, velocity=0, time=49),
    Message('note_on', channel=4, note=64, velocity=79, time=11),
    Message('note_on', channel=4, note=64, velocity=0, time=50),
    Message('note_on', channel=4, note=67, velocity=78, time=10),
    Message('control_change', channel=4, control=10, value=40, time=30),
    Message('control_change', channel=4, control=10, value=38, time=20),
    Message('note_on', channel=4, note=59, velocity=86, time=10),
    Message('note_on', channel=4, note=67, velocity=0, time=2),
    Message('note_on', channel=4, note=59, velocity=0, time=45),
    Message('control_change', channel=4, control=10, value=36, time=0),
    Message('note_on', channel=4, note=64, velocity=83, time=13),
    Message('control_change', channel=4, control=10, value=35, time=0),
    Message('note_on', channel=4, note=67, velocity=81, time=60),
    Message('note_on', channel=4, note=64, velocity=0, time=12),
    Message('note_on', channel=4, note=59, velocity=86, time=48),
    Message('note_on', channel=4, note=67, velocity=0, time=5),
    Message('note_on', channel=4, note=59, velocity=0, time=42),
    Message('note_on', channel=4, note=64, velocity=81, time=13),
    Message('note_on', channel=4, note=52, velocity=0, time=1),
    Message('note_on', channel=4, note=55, velocity=0, time=1),
    Message('note_on', channel=4, note=50, velocity=81, time=58),
    Message('note_on', channel=4, note=64, velocity=0, time=5),
    Message('control_change', channel=4, control=64, value=0, time=6),
    Message('note_on', channel=4, note=57, velocity=78, time=49),
    Message('control_change', channel=4, control=64, value=127, time=6),
    Message('control_change', channel=4, control=10, value=37, time=38),
    Message('note_on', channel=4, note=66, velocity=81, time=16),
    Message('note_on', channel=4, note=57, velocity=0, time=5),
    Message('note_on', channel=4, note=66, velocity=0, time=45),
    Message('note_on', channel=4, note=50, velocity=0, time=1),
    Message('note_on', channel=4, note=62, velocity=79, time=9),
    Message('control_change', channel=4, control=10, value=38, time=50),
    Message('note_on', channel=4, note=57, velocity=74, time=10),
    Message('note_on', channel=4, note=62, velocity=0, time=1),
    Message('control_change', channel=4, control=10, value=39, time=27),
    Message('note_on', channel=4, note=57, velocity=0, time=20),
    Message('note_on', channel=4, note=66, velocity=83, time=12),
    Message('note_on', channel=4, note=66, velocity=0, time=44),
    Message('note_on', channel=4, note=62, velocity=74, time=16),
    Message('note_on', channel=4, note=62, velocity=0, time=44),
    Message('note_on', channel=4, note=57, velocity=74, time=16),
    Message('note_on', channel=4, note=57, velocity=0, time=51),
    Message('note_on', channel=4, note=67, velocity=78, time=9),
    Message('control_change', channel=4, control=10, value=40, time=0),
    Message('control_change', channel=4, control=10, value=42, time=19),
    Message('control_change', channel=4, control=10, value=43, time=22),
    Message('note_on', channel=4, note=66, velocity=73, time=19),
    Message('control_change', channel=4, control=10, value=45, time=0),
    Message('note_on', channel=4, note=67, velocity=0, time=14),
    Message('note_on', channel=4, note=62, velocity=79, time=46),
    Message('note_on', channel=4, note=66, velocity=0, time=2),
    Message('note_on', channel=4, note=62, velocity=0, time=50),
    Message('note_on', channel=4, note=57, velocity=78, time=8),
    Message('note_on', channel=4, note=57, velocity=0, time=51),
    Message('note_on', channel=4, note=66, velocity=83, time=9),
    Message('note_on', channel=4, note=64, velocity=78, time=60),
    Message('note_on', channel=4, note=66, velocity=0, time=4),
    Message('note_on', channel=4, note=64, velocity=0, time=51),
    Message('note_on', channel=4, note=66, velocity=74, time=5),
    Message('note_on', channel=4, note=66, velocity=0, time=59),
    Message('note_on', channel=4, note=64, velocity=81, time=1),
    Message('control_change', channel=4, control=10, value=43, time=10),
    Message('control_change', channel=4, control=10, value=42, time=26),
    Message('note_on', channel=4, note=64, velocity=0, time=10),
    Message('note_on', channel=4, note=48, velocity=81, time=14),
    Message('control_change', channel=4, control=64, value=0, time=4),
    Message('note_on', channel=4, note=52, velocity=81, time=56),
    Message('control_change', channel=4, control=64, value=127, time=17),
    Message('control_change', channel=4, control=10, value=40, time=15),
    Message('note_on', channel=4, note=60, velocity=78, time=28),
    Message('control_change', channel=4, control=10, value=39, time=10),
    Message('note_on', channel=4, note=60, velocity=0, time=35),
    Message('note_on', channel=4, note=55, velocity=84, time=15),
    Message('control_change', channel=4, control=10, value=37, time=0),
    Message('control_change', channel=4, control=10, value=36, time=10),
    Message('control_change', channel=4, control=10, value=34, time=20),
    Message('note_on', channel=4, note=55, velocity=0, time=19),
    Message('control_change', channel=4, control=10, value=33, time=0),
    Message('note_on', channel=4, note=64, velocity=79, time=11),
    Message('control_change', channel=4, control=10, value=31, time=28),
    Message('note_on', channel=4, note=64, velocity=0, time=20),
    Message('note_on', channel=4, note=60, velocity=75, time=12),
    Message('control_change', channel=4, control=10, value=29, time=36),
    Message('note_on', channel=4, note=60, velocity=0, time=15),
    Message('note_on', channel=4, note=55, velocity=83, time=9),
    Message('note_on', channel=4, note=55, velocity=0, time=45),
    Message('note_on', channel=4, note=60, velocity=74, time=15),
    Message('note_on', channel=4, note=60, velocity=0, time=39),
    Message('note_on', channel=4, note=62, velocity=84, time=21),
    Message('note_on', channel=4, note=62, velocity=0, time=41),
    Message('note_on', channel=4, note=55, velocity=75, time=19),
    Message('control_change', channel=4, control=10, value=31, time=20),
    Message('note_on', channel=4, note=55, velocity=0, time=27),
    Message('note_on', channel=4, note=64, velocity=75, time=13),
    Message('control_change', channel=4, control=10, value=33, time=12),
    Message('control_change', channel=4, control=10, value=34, time=47),
    Message('note_on', channel=4, note=62, velocity=77, time=1),
    Message('control_change', channel=4, control=10, value=36, time=10),
    Message('note_on', channel=4, note=64, velocity=0, time=5),
    Message('note_on', channel=4, note=62, velocity=0, time=45),
    Message('note_on', channel=4, note=55, velocity=84, time=0),
    Message('control_change', channel=4, control=10, value=38, time=19),
    Message('control_change', channel=4, control=64, value=0, time=19),
    Message('note_on', channel=4, note=60, velocity=81, time=22),
    Message('control_change', channel=4, control=10, value=39, time=4),
    Message('control_change', channel=4, control=10, value=40, time=20),
    Message('control_change', channel=4, control=64, value=127, time=2),
    Message('note_on', channel=4, note=60, velocity=0, time=25),
    Message('note_on', channel=4, note=52, velocity=0, time=6),
    Message('note_on', channel=4, note=55, velocity=0, time=1),
    Message('note_on', channel=4, note=48, velocity=0, time=2),
    Message('note_on', channel=4, note=62, velocity=73, time=0),
    Message('control_change', channel=4, control=10, value=42, time=36),
    Message('note_on', channel=4, note=62, velocity=0, time=16),
    Message('note_on', channel=4, note=60, velocity=77, time=8),
    Message('note_on', channel=4, note=60, velocity=0, time=40),
    Message('note_on', channel=4, note=55, velocity=86, time=20),
    Message('control_change', channel=4, control=64, value=0, time=13),
    Message('control_change', channel=4, control=10, value=43, time=14),
    Message('note_on', channel=4, note=59, velocity=74, time=33),
    Message('control_change', channel=4, control=64, value=127, time=27),
    Message('note_on', channel=4, note=62, velocity=83, time=33),
    Message('control_change', channel=4, control=10, value=45, time=10),
    Message('note_on', channel=4, note=62, velocity=0, time=43),
    Message('note_on', channel=4, note=67, velocity=78, time=7),
    Message('note_on', channel=4, note=67, velocity=0, time=50),
    Message('note_on', channel=4, note=62, velocity=83, time=10),
    Message('control_change', channel=4, control=10, value=47, time=18),
    Message('note_on', channel=4, note=62, velocity=0, time=25),
    Message('note_on', channel=4, note=67, velocity=75, time=17),
    Message('note_on', channel=4, note=67, velocity=0, time=43),
    Message('note_on', channel=4, note=62, velocity=84, time=17),
    Message('control_change', channel=4, control=10, value=49, time=19),
    Message('control_change', channel=4, control=10, value=52, time=20),
    Message('note_on', channel=4, note=62, velocity=0, time=6),
    Message('note_on', channel=4, note=67, velocity=79, time=15),
    Message('control_change', channel=4, control=10, value=54, time=26),
    Message('note_on', channel=4, note=67, velocity=0, time=14),
    Message('note_on', channel=4, note=62, velocity=78, time=20),
    Message('note_on', channel=4, note=62, velocity=0, time=43),
    Message('note_on', channel=4, note=66, velocity=83, time=17),
    Message('note_on', channel=4, note=66, velocity=0, time=38),
    Message('note_on', channel=4, note=62, velocity=81, time=22),
    Message('control_change', channel=4, control=10, value=57, time=0),
    Message('note_on', channel=4, note=62, velocity=0, time=39),
    Message('note_on', channel=4, note=64, velocity=78, time=21),
    Message('control_change', channel=4, control=10, value=60, time=10),
    Message('note_on', channel=4, note=64, velocity=0, time=33),
    Message('note_on', channel=4, note=62, velocity=83, time=17),
    Message('note_on', channel=4, note=62, velocity=0, time=45),
    Message('note_on', channel=4, note=59, velocity=0, time=9),
    Message('note_on', channel=4, note=64, velocity=81, time=6),
    Message('note_on', channel=4, note=55, velocity=0, time=7),
    Message('note_on', channel=4, note=64, velocity=0, time=26),
    Message('control_change', channel=4, control=10, value=63, time=3),
    Message('note_on', channel=4, note=64, velocity=81, time=24),
    Message('control_change', channel=4, control=10, value=66, time=28),
    Message('note_on', channel=4, note=64, velocity=0, time=18),
    Message('note_on', channel=4, note=52, velocity=81, time=14),
    Message('control_change', channel=4, control=64, value=0, time=36),
    Message('note_on', channel=4, note=55, velocity=78, time=24),
    Message('control_change', channel=4, control=64, value=127, time=30),
    Message('note_on', channel=4, note=59, velocity=83, time=30),
    Message('control_change', channel=4, control=10, value=69, time=30),
    Message('note_on', channel=4, note=59, velocity=0, time=19),
    Message('note_on', channel=4, note=64, velocity=78, time=11),
    Message('control_change', channel=4, control=10, value=72, time=10),
    Message('note_on', channel=4, note=64, velocity=0, time=33),
    Message('control_change', channel=4, control=10, value=74, time=0),
    Message('note_on', channel=4, note=59, velocity=71, time=17),
    Message('control_change', channel=4, control=10, value=77, time=26),
    Message('note_on', channel=4, note=59, velocity=0, time=16),
    Message('note_on', channel=4, note=67, velocity=78, time=18),
    Message('note_on', channel=4, note=67, velocity=0, time=56),
    Message('note_on', channel=4, note=64, velocity=74, time=4),
    Message('note_on', channel=4, note=64, velocity=0, time=42),
    Message('note_on', channel=4, note=59, velocity=81, time=18),
    Message('note_on', channel=4, note=59, velocity=0, time=43),
    Message('note_on', channel=4, note=67, velocity=78, time=17),
    Message('note_on', channel=4, note=67, velocity=0, time=59),
    Message('note_on', channel=4, note=62, velocity=74, time=1),
    Message('note_on', channel=4, note=62, velocity=0, time=42),
    Message('note_on', channel=4, note=59, velocity=73, time=18),
    Message('note_on', channel=4, note=59, velocity=0, time=44),
    Message('note_on', channel=4, note=67, velocity=78, time=16),
    Message('note_on', channel=4, note=64, velocity=81, time=60),
    Message('note_on', channel=4, note=67, velocity=0, time=9),
    Message('note_on', channel=4, note=64, velocity=0, time=38),
    Message('control_change', channel=4, control=10, value=79, time=0),
    Message('note_on', channel=4, note=59, velocity=83, time=13),
    Message('note_on', channel=4, note=59, velocity=0, time=50),
    Message('note_on', channel=4, note=67, velocity=79, time=10),
    Message('note_on', channel=4, note=55, velocity=0, time=25),
    Message('note_on', channel=4, note=52, velocity=0, time=5),
    Message('note_on', channel=4, note=64, velocity=79, time=30),
    Message('note_on', channel=4, note=67, velocity=0, time=2),
    Message('note_on', channel=4, note=64, velocity=0, time=40),
    Message('control_change', channel=4, control=10, value=77, time=0),
    Message('note_on', channel=4, note=67, velocity=75, time=18),
    Message('note_on', channel=4, note=67, velocity=0, time=49),
    Message('control_change', channel=4, control=10, value=74, time=0),
    Message('note_on', channel=4, note=48, velocity=81, time=11),
    Message('control_change', channel=4, control=64, value=0, time=4),
    Message('control_change', channel=4, control=10, value=72, time=0),
    Message('note_on', channel=4, note=52, velocity=74, time=56),
    Message('control_change', channel=4, control=64, value=127, time=19),
    Message('note_on', channel=4, note=55, velocity=83, time=41),
    Message('note_on', channel=4, note=55, velocity=0, time=51),
    Message('note_on', channel=4, note=60, velocity=74, time=9),
    Message('note_on', channel=4, note=60, velocity=0, time=44),
    Message('note_on', channel=4, note=64, velocity=74, time=16),
    Message('note_on', channel=4, note=64, velocity=0, time=54),
    Message('note_on', channel=4, note=60, velocity=74, time=6),
    Message('note_on', channel=4, note=60, velocity=0, time=46),
    Message('control_change', channel=4, control=10, value=69, time=0),
    Message('note_on', channel=4, note=55, velocity=84, time=14),
    Message('note_on', channel=4, note=55, velocity=0, time=39),
    Message('control_change', channel=4, control=10, value=66, time=12),
    Message('note_on', channel=4, note=64, velocity=75, time=9),
    Message('note_on', channel=4, note=64, velocity=0, time=60),
    Message('note_on', channel=4, note=60, velocity=78, time=0),
    Message('note_on', channel=4, note=60, velocity=0, time=45),
    Message('note_on', channel=4, note=55, velocity=83, time=15),
    Message('note_on', channel=4, note=55, velocity=0, time=53),
    Message('note_on', channel=4, note=64, velocity=79, time=7),
    Message('note_on', channel=4, note=64, velocity=0, time=58),
    Message('note_on', channel=4, note=60, velocity=74, time=2),
    Message('note_on', channel=4, note=60, velocity=0, time=52),
    Message('note_on', channel=4, note=55, velocity=81, time=8),
    Message('note_on', channel=4, note=64, velocity=75, time=60),
    Message('note_on', channel=4, note=52, velocity=0, time=21),
    Message('note_on', channel=4, note=48, velocity=0, time=4),
    Message('note_on', channel=4, note=55, velocity=0, time=9),
    Message('note_on', channel=4, note=64, velocity=0, time=20),
    Message('note_on', channel=4, note=60, velocity=78, time=6),
    Message('note_on', channel=4, note=60, velocity=0, time=44),
    Message('note_on', channel=4, note=64, velocity=77, time=16),
    Message('note_on', channel=4, note=64, velocity=0, time=47),
    Message('note_on', channel=4, note=52, velocity=84, time=13),
    Message('control_change', channel=4, control=64, value=0, time=4),
    Message('control_change', channel=4, control=64, value=127, time=53),
    Message('note_on', channel=4, note=55, velocity=74, time=3),
    Message('control_change', channel=4, control=10, value=63, time=18),
    Message('note_on', channel=4, note=59, velocity=83, time=42),
    Message('control_change', channel=4, control=10, value=60, time=32),
    Message('note_on', channel=4, note=59, velocity=0, time=19),
    Message('note_on', channel=4, note=62, velocity=79, time=9),
    Message('note_on', channel=4, note=62, velocity=0, time=46),
    Message('note_on', channel=4, note=59, velocity=74, time=14),
    Message('control_change', channel=4, control=10, value=57, time=18),
    Message('note_on', channel=4, note=59, velocity=0, time=34),
    Message('note_on', channel=4, note=55, velocity=0, time=8),
    Message('note_on', channel=4, note=64, velocity=77, time=0),
    Message('note_on', channel=4, note=52, velocity=0, time=1),
    Message('note_on', channel=4, note=62, velocity=81, time=59),
    Message('note_on', channel=4, note=64, velocity=0, time=3),
    Message('note_on', channel=4, note=62, velocity=0, time=39),
    Message('note_on', channel=4, note=52, velocity=75, time=18),
    Message('control_change', channel=4, control=10, value=54, time=38),
    Message('note_on', channel=4, note=55, velocity=73, time=22),
    Message('note_on', channel=4, note=59, velocity=81, time=60),
    Message('note_on', channel=4, note=62, velocity=79, time=60),
    Message('note_on', channel=4, note=59, velocity=0, time=8),
    Message('note_on', channel=4, note=55, velocity=0, time=11),
    Message('control_change', channel=4, control=10, value=52, time=1),
    Message('note_on', channel=4, note=52, velocity=0, time=11),
    Message('note_on', channel=4, note=62, velocity=0, time=9),
    Message('control_change', channel=4, control=10, value=49, time=0),
    Message('note_on', channel=4, note=64, velocity=77, time=20),
    Message('note_on', channel=4, note=64, velocity=0, time=54),
    Message('note_on', channel=4, note=52, velocity=79, time=6),
    Message('note_on', channel=4, note=62, velocity=84, time=60),
    Message('control_change', channel=4, control=10, value=47, time=4),
    Message('note_on', channel=4, note=52, velocity=0, time=29),
    Message('note_on', channel=4, note=62, velocity=0, time=10),
    Message('note_on', channel=4, note=52, velocity=81, time=17),
    Message('note_on', channel=4, note=64, velocity=83, time=60),
    Message('note_on', channel=4, note=64, velocity=0, time=42),
    Message('note_on', channel=4, note=55, velocity=79, time=18),
    Message('note_on', channel=4, note=59, velocity=84, time=60),
    Message('note_on', channel=4, note=59, velocity=0, time=56),
    Message('note_on', channel=4, note=62, velocity=79, time=4),
    Message('note_on', channel=4, note=62, velocity=0, time=45),
    Message('note_on', channel=4, note=55, velocity=0, time=10),
    Message('note_on', channel=4, note=64, velocity=78, time=5),
    Message('note_on', channel=4, note=52, velocity=0, time=2),
    Message('note_on', channel=4, note=64, velocity=0, time=46),
    Message('note_on', channel=4, note=62, velocity=73, time=12),
    Message('note_on', channel=4, note=62, velocity=0, time=37),
    Message('note_on', channel=4, note=64, velocity=75, time=23),
    Message('control_change', channel=4, control=10, value=48, time=30),
    Message('note_on', channel=4, note=64, velocity=0, time=14),
    Message('note_on', channel=4, note=62, velocity=79, time=16),
    Message('control_change', channel=4, control=10, value=51, time=10),
    Message('note_on', channel=4, note=62, velocity=0, time=36),
    Message('control_change', channel=4, control=10, value=53, time=0),
    Message('note_on', channel=4, note=50, velocity=81, time=14),
    Message('control_change', channel=4, control=64, value=0, time=27),
    Message('note_on', channel=4, note=57, velocity=78, time=33),
    Message('control_change', channel=4, control=64, value=127, time=30),
    Message('note_on', channel=4, note=62, velocity=74, time=30),
    Message('note_on', channel=4, note=57, velocity=0, time=22),
    Message('note_on', channel=4, note=62, velocity=0, time=25),
    Message('note_on', channel=4, note=66, velocity=78, time=13),
    Message('note_on', channel=4, note=50, velocity=0, time=14),
    Message('note_on', channel=4, note=66, velocity=0, time=40),
    Message('note_on', channel=4, note=57, velocity=74, time=6),
    Message('note_on', channel=4, note=57, velocity=0, time=48),
    Message('note_on', channel=4, note=69, velocity=78, time=12),
    Message('note_on', channel=4, note=69, velocity=0, time=59),
    Message('note_on', channel=4, note=66, velocity=77, time=1),
    Message('note_on', channel=4, note=66, velocity=0, time=58),
    Message('note_on', channel=4, note=62, velocity=81, time=2),
    Message('note_on', channel=4, note=62, velocity=0, time=48),
    Message('control_change', channel=4, control=64, value=0, time=0),
    Message('note_on', channel=4, note=55, velocity=97, time=72),
    Message('control_change', channel=4, control=64, value=127, time=30),
    Message('note_on', channel=4, note=55, velocity=0, time=19),
    Message('note_on', channel=4, note=59, velocity=68, time=11),
    Message('note_on', channel=4, note=59, velocity=0, time=52),
    Message('note_on', channel=4, note=62, velocity=70, time=8),
    Message('note_on', channel=4, note=62, velocity=0, time=43),
    Message('note_on', channel=4, note=67, velocity=91, time=17),
    Message('note_on', channel=4, note=55, velocity=91, time=60),
    Message('note_on', channel=4, note=67, velocity=0, time=1),
    Message('note_on', channel=4, note=55, velocity=0, time=29),
    Message('note_on', channel=4, note=67, velocity=82, time=30),
    Message('note_on', channel=4, note=62, velocity=91, time=60),
    Message('note_on', channel=4, note=67, velocity=0, time=4),
    Message('note_on', channel=4, note=62, velocity=0, time=46),
    Message('note_on', channel=4, note=55, velocity=93, time=10),
    Message('note_on', channel=4, note=55, velocity=0, time=36),
    Message('note_on', channel=4, note=59, velocity=82, time=24),
    Message('note_on', channel=4, note=59, velocity=0, time=33),
    Message('note_on', channel=4, note=62, velocity=82, time=27),
    Message('note_on', channel=4, note=62, velocity=0, time=39),
    Message('note_on', channel=4, note=55, velocity=91, time=21),
    Message('note_on', channel=4, note=55, velocity=0, time=28),
    Message('note_on', channel=4, note=59, velocity=82, time=32),
    Message('note_on', channel=4, note=59, velocity=0, time=36),
    Message('note_on', channel=4, note=62, velocity=72, time=24),
    Message('note_on', channel=4, note=62, velocity=0, time=55),
    Message('note_on', channel=4, note=55, velocity=83, time=5),
    Message('note_on', channel=4, note=55, velocity=0, time=30),
    Message('note_on', channel=4, note=59, velocity=82, time=30),
    Message('note_on', channel=4, note=59, velocity=0, time=42),
    Message('control_change', channel=4, control=10, value=54, time=7),
    Message('note_on', channel=4, note=62, velocity=81, time=11),
    Message('control_change', channel=4, control=10, value=53, time=0),
    Message('note_on', channel=4, note=55, velocity=91, time=60),
    Message('note_on', channel=4, note=62, velocity=0, time=4),
    Message('note_on', channel=4, note=55, velocity=0, time=33),
    Message('note_on', channel=4, note=67, velocity=79, time=23),
    Message('note_on', channel=4, note=67, velocity=0, time=60),
    Message('note_on', channel=4, note=62, velocity=81, time=0),
    Message('control_change', channel=4, control=10, value=51, time=20),
    Message('control_change', channel=4, control=10, value=49, time=18),
    Message('note_on', channel=4, note=62, velocity=0, time=16),
    Message('note_on', channel=4, note=50, velocity=87, time=6),
    Message('control_change', channel=4, control=10, value=47, time=0),
    Message('control_change', channel=4, control=10, value=46, time=33),
    Message('note_on', channel=4, note=50, velocity=0, time=19),
    Message('note_on', channel=4, note=59, velocity=81, time=8),
    Message('note_on', channel=4, note=59, velocity=0, time=46),
    Message('note_on', channel=4, note=55, velocity=91, time=14),
    Message('note_on', channel=4, note=55, velocity=0, time=37),
    Message('control_change', channel=4, control=10, value=44, time=10),
    Message('note_on', channel=4, note=59, velocity=81, time=13),
    Message('control_change', channel=4, control=10, value=42, time=8),
    Message('note_on', channel=4, note=59, velocity=0, time=40),
    Message('note_on', channel=4, note=62, velocity=82, time=12),
    Message('control_change', channel=4, control=10, value=40, time=0),
    Message('control_change', channel=4, control=10, value=38, time=20),
    Message('control_change', channel=4, control=10, value=37, time=10),
    Message('note_on', channel=4, note=62, velocity=0, time=17),
    Message('note_on', channel=4, note=55, velocity=91, time=13),
    Message('note_on', channel=4, note=55, velocity=0, time=31),
    Message('note_on', channel=4, note=59, velocity=76, time=29),
    Message('note_on', channel=4, note=59, velocity=0, time=46),
    Message('note_on', channel=4, note=62, velocity=82, time=14),
    Message('note_on', channel=4, note=55, velocity=91, time=60),
    Message('note_on', channel=4, note=62, velocity=0, time=1),
    Message('control_change', channel=4, control=10, value=38, time=20),
    Message('note_on', channel=4, note=55, velocity=0, time=19),
    Message('control_change', channel=4, control=10, value=40, time=0),
    Message('control_change', channel=4, control=10, value=42, time=10),
    Message('note_on', channel=4, note=59, velocity=81, time=10),
    Message('control_change', channel=4, control=10, value=44, time=9),
    Message('control_change', channel=4, control=10, value=51, time=10),
    Message('note_on', channel=4, note=59, velocity=0, time=19),
    Message('control_change', channel=4, control=10, value=54, time=0),
    Message('control_change', channel=4, control=10, value=57, time=17),
    Message('note_on', channel=4, note=60, velocity=91, time=5),
    Message('note_on', channel=4, note=60, velocity=0, time=37),
    Message('control_change', channel=4, control=10, value=60, time=0),
    Message('note_on', channel=4, note=62, velocity=91, time=23),
    Message('note_on', channel=4, note=62, velocity=0, time=49),
    Message('note_on', channel=4, note=60, velocity=83, time=11),
    Message('note_on', channel=4, note=60, velocity=0, time=48),
    Message('note_on', channel=4, note=55, velocity=94, time=12),
    Message('control_change', channel=4, control=10, value=63, time=9),
    Message('control_change', channel=4, control=64, value=0, time=12),
    Message('control_change', channel=4, control=10, value=66, time=10),
    Message('note_on', channel=4, note=55, velocity=0, time=44),
    Message('control_change', channel=4, control=64, value=127, time=4),
    Message('note_on', channel=4, note=55, velocity=91, time=41),
    Message('note_on', channel=4, note=55, velocity=0, time=46),
    Message('note_on', channel=4, note=59, velocity=81, time=14),
    Message('note_on', channel=4, note=55, velocity=91, time=60),
    Message('note_on', channel=4, note=59, velocity=0, time=13),
    Message('note_on', channel=4, note=55, velocity=0, time=25),
    Message('note_on', channel=4, note=62, velocity=81, time=22),
    Message('note_on', channel=4, note=62, velocity=0, time=52),
    Message('note_on', channel=4, note=67, velocity=82, time=8),
    Message('control_change', channel=4, control=10, value=68, time=18),
    Message('control_change', channel=4, control=10, value=71, time=15),
    Message('note_on', channel=4, note=67, velocity=0, time=20),
    Message('note_on', channel=4, note=62, velocity=82, time=7),
    Message('control_change', channel=4, control=10, value=73, time=10),
    Message('note_on', channel=4, note=62, velocity=0, time=17),
    Message('control_change', channel=4, control=64, value=0, time=22),
    Message('note_on', channel=4, note=55, velocity=94, time=11),
    Message('note_on', channel=4, note=55, velocity=0, time=35),
    Message('control_change', channel=4, control=64, value=127, time=14),
    Message('note_on', channel=4, note=66, velocity=70, time=11),
    Message('control_change', channel=4, control=10, value=75, time=21),
    Message('note_on', channel=4, note=66, velocity=0, time=75),
    Message('note_on', channel=4, note=62, velocity=82, time=24),
    Message('note_on', channel=4, note=62, velocity=0, time=44),
    Message('note_on', channel=4, note=59, velocity=87, time=76),
    Message('note_on', channel=4, note=59, velocity=0, time=45),
    Message('note_on', channel=4, note=62, velocity=72, time=15),
    Message('note_on', channel=4, note=62, velocity=0, time=46),
    Message('note_on', channel=4, note=59, velocity=79, time=14),
    Message('control_change', channel=4, control=10, value=78, time=31),
    Message('note_on', channel=4, note=59, velocity=0, time=6),
    Message('control_change', channel=4, control=64, value=0, time=23),
    Message('control_change', channel=4, control=64, value=127, time=52),
    Message('note_on', channel=4, note=60, velocity=86, time=8),
    Message('note_on', channel=4, note=60, velocity=0, time=42),
    Message('note_on', channel=4, note=64, velocity=68, time=18),
    Message('control_change', channel=4, control=10, value=75, time=20),
    Message('note_on', channel=4, note=64, velocity=0, time=29),
    Message('note_on', channel=4, note=67, velocity=82, time=11),
    Message('note_on', channel=4, note=67, velocity=0, time=57),
    Message('note_on', channel=4, note=64, velocity=87, time=3),
    Message('note_on', channel=4, note=64, velocity=0, time=57),
    Message('note_on', channel=4, note=57, velocity=88, time=3),
    Message('note_on', channel=4, note=57, velocity=0, time=32),
    Message('note_on', channel=4, note=60, velocity=87, time=28),
    Message('note_on', channel=4, note=60, velocity=0, time=39),
    Message('note_on', channel=4, note=64, velocity=81, time=21),
    Message('note_on', channel=4, note=64, velocity=0, time=48),
    Message('note_on', channel=4, note=57, velocity=91, time=12),
    Message('note_on', channel=4, note=57, velocity=0, time=31),
    Message('note_on', channel=4, note=67, velocity=82, time=29),
    Message('control_change', channel=4, control=10, value=73, time=10),
    Message('note_on', channel=4, note=67, velocity=0, time=35),
    Message('control_change', channel=4, control=10, value=71, time=0),
    Message('note_on', channel=4, note=64, velocity=75, time=15),
    Message('control_change', channel=4, control=10, value=68, time=19),
    Message('note_on', channel=4, note=64, velocity=0, time=41),
    Message('note_on', channel=4, note=57, velocity=91, time=0),
    Message('note_on', channel=4, note=57, velocity=0, time=34),
    Message('note_on', channel=4, note=60, velocity=81, time=26),
    Message('note_on', channel=4, note=60, velocity=0, time=44),
    Message('note_on', channel=4, note=64, velocity=79, time=16),
    Message('control_change', channel=4, control=10, value=66, time=10),
    Message('note_on', channel=4, note=64, velocity=0, time=50),
    Message('note_on', channel=4, note=60, velocity=87, time=0),
    Message('note_on', channel=4, note=60, velocity=0, time=44),
    Message('note_on', channel=4, note=55, velocity=93, time=16),
    Message('control_change', channel=4, control=10, value=63, time=0),
    Message('control_change', channel=4, control=64, value=0, time=31),
    Message('note_on', channel=4, note=55, velocity=0, time=21),
    Message('control_change', channel=4, control=10, value=60, time=0),
    Message('note_on', channel=4, note=62, velocity=82, time=8),
    Message('control_change', channel=4, control=64, value=127, time=26),
    Message('control_change', channel=4, control=10, value=58, time=10),
    Message('note_on', channel=4, note=59, velocity=82, time=24),
    Message('note_on', channel=4, note=62, velocity=0, time=3),
    Message('note_on', channel=4, note=55, velocity=91, time=57),
    Message('note_on', channel=4, note=59, velocity=0, time=13),
    Message('note_on', channel=4, note=55, velocity=0, time=23),
    Message('note_on', channel=4, note=59, velocity=86, time=24),
    Message('note_on', channel=4, note=55, velocity=88, time=60),
    Message('note_on', channel=4, note=59, velocity=0, time=11),
    Message('note_on', channel=4, note=55, velocity=0, time=21),
    Message('note_on', channel=4, note=67, velocity=79, time=28),
    Message('note_on', channel=4, note=62, velocity=82, time=60),
    Message('note_on', channel=4, note=67, velocity=0, time=7),
    Message('control_change', channel=4, control=10, value=59, time=27),
    Message('note_on', channel=4, note=62, velocity=0, time=25),
    Message('note_on', channel=4, note=55, velocity=91, time=1),
    Message('note_on', channel=4, note=55, velocity=0, time=36),
    Message('note_on', channel=4, note=59, velocity=81, time=24),
    Message('note_on', channel=4, note=59, velocity=0, time=42),
    Message('note_on', channel=4, note=62, velocity=74, time=18),
    Message('note_on', channel=4, note=62, velocity=0, time=55),
    Message('note_on', channel=4, note=50, velocity=82, time=5),
    Message('control_change', channel=4, control=10, value=61, time=28),
    Message('note_on', channel=4, note=50, velocity=0, time=10),
    Message('control_change', channel=4, control=10, value=63, time=10),
    Message('note_on', channel=4, note=59, velocity=83, time=12),
    Message('control_change', channel=4, control=10, value=65, time=50),
    Message('note_on', channel=4, note=55, velocity=93, time=10),
    Message('note_on', channel=4, note=59, velocity=0, time=19),
    Message('note_on', channel=4, note=55, velocity=0, time=18),
    Message('note_on', channel=4, note=62, velocity=81, time=23),
    Message('note_on', channel=4, note=62, velocity=0, time=55),
    Message('note_on', channel=4, note=59, velocity=79, time=5),
    Message('note_on', channel=4, note=59, velocity=0, time=48),
    Message('note_on', channel=4, note=62, velocity=75, time=12),
    Message('note_on', channel=4, note=62, velocity=0, time=43),
    Message('note_on', channel=4, note=50, velocity=86, time=17),
    Message('control_change', channel=4, control=64, value=0, time=4),
    Message('note_on', channel=4, note=57, velocity=88, time=56),
    Message('control_change', channel=4, control=64, value=127, time=2),
    Message('note_on', channel=4, note=50, velocity=0, time=7),
    Message('note_on', channel=4, note=57, velocity=0, time=30),
    Message('note_on', channel=4, note=66, velocity=78, time=21),
    Message('note_on', channel=4, note=66, velocity=0, time=37),
    Message('note_on', channel=4, note=62, velocity=86, time=23),
    Message('control_change', channel=4, control=10, value=63, time=20),
    Message('note_on', channel=4, note=62, velocity=0, time=25),
    Message('control_change', channel=4, control=10, value=61, time=5),
    Message('note_on', channel=4, note=57, velocity=79, time=10),
    Message('note_on', channel=4, note=57, velocity=0, time=32),
    Message('note_on', channel=4, note=66, velocity=87, time=28),
    Message('control_change', channel=4, control=10, value=59, time=10),
    Message('note_on', channel=4, note=66, velocity=0, time=39),
    Message('note_on', channel=4, note=57, velocity=82, time=11),
    Message('note_on', channel=4, note=57, velocity=0, time=41),
    Message('control_change', channel=4, control=10, value=58, time=8),
    Message('note_on', channel=4, note=62, velocity=82, time=11),
    Message('note_on', channel=4, note=62, velocity=0, time=30),
    Message('note_on', channel=4, note=67, velocity=91, time=30),
    Message('note_on', channel=4, note=67, velocity=0, time=50),
    Message('note_on', channel=4, note=66, velocity=91, time=10),
    Message('control_change', channel=4, control=10, value=56, time=10),
    Message('control_change', channel=4, control=10, value=54, time=10),
    Message('note_on', channel=4, note=66, velocity=0, time=32),
    Message('note_on', channel=4, note=57, velocity=86, time=8),
    Message('control_change', channel=4, control=10, value=53, time=0),
    Message('note_on', channel=4, note=57, velocity=0, time=42),
    Message('note_on', channel=4, note=64, velocity=82, time=18),
    Message('note_on', channel=4, note=64, velocity=0, time=45),
    Message('note_on', channel=4, note=66, velocity=79, time=15),
    Message('note_on', channel=4, note=66, velocity=0, time=55),
    Message('control_change', channel=4, control=10, value=51, time=0),
    Message('note_on', channel=4, note=57, velocity=83, time=5),
    Message('control_change', channel=4, control=10, value=52, time=0),
    Message('note_on', channel=4, note=57, velocity=0, time=41),
    Message('control_change', channel=4, control=10, value=51, time=0),
    Message('note_on', channel=4, note=64, velocity=79, time=19),
    Message('control_change', channel=4, control=10, value=49, time=24),
    Message('note_on', channel=4, note=64, velocity=0, time=10),
    Message('note_on', channel=4, note=66, velocity=70, time=26),
    Message('control_change', channel=4, control=64, value=0, time=59),
    Message('note_on', channel=4, note=66, velocity=0, time=28),
    Message('control_change', channel=4, control=10, value=51, time=10),
    Message('control_change', channel=4, control=64, value=127, time=16),
    Message('control_change', channel=4, control=10, value=52, time=0),
    Message('control_change', channel=4, control=10, value=53, time=22),
    Message('control_change', channel=4, control=10, value=55, time=20),
    Message('control_change', channel=4, control=10, value=56, time=21),
    Message('note_on', channel=4, note=60, velocity=91, time=4),
    Message('note_on', channel=4, note=60, velocity=0, time=44),
    Message('note_on', channel=4, note=64, velocity=71, time=16),
    Message('control_change', channel=4, control=10, value=58, time=20),
    Message('note_on', channel=4, note=64, velocity=0, time=28),
    Message('note_on', channel=4, note=67, velocity=79, time=12),
    Message('control_change', channel=4, control=10, value=60, time=8),
    Message('control_change', channel=4, control=10, value=61, time=42),
    Message('note_on', channel=4, note=67, velocity=0, time=7),
    Message('note_on', channel=4, note=64, velocity=87, time=3),
    Message('control_change', channel=4, control=10, value=63, time=10),
    Message('note_on', channel=4, note=64, velocity=0, time=33),
    Message('control_change', channel=4, control=10, value=65, time=12),
    Message('note_on', channel=4, note=48, velocity=78, time=5),
    Message('note_on', channel=4, note=48, velocity=0, time=31),
    Message('control_change', channel=4, control=10, value=66, time=0),
    Message('note_on', channel=4, note=60, velocity=83, time=29),
    Message('note_on', channel=4, note=60, velocity=0, time=37),
    Message('note_on', channel=4, note=64, velocity=82, time=23),
    Message('control_change', channel=4, control=10, value=68, time=9),
    Message('control_change', channel=4, control=10, value=70, time=10),
    Message('note_on', channel=4, note=64, velocity=0, time=23),
    Message('note_on', channel=4, note=67, velocity=86, time=18),
    Message('note_on', channel=4, note=67, velocity=0, time=50),
    Message('note_on', channel=4, note=55, velocity=93, time=10),
    Message('note_on', channel=4, note=55, velocity=0, time=32),
    Message('note_on', channel=4, note=67, velocity=93, time=88),
    Message('note_on', channel=4, note=67, velocity=0, time=64),
    Message('note_on', channel=4, note=55, velocity=88, time=56),
    Message('note_on', channel=4, note=55, velocity=0, time=31),
    Message('control_change', channel=4, control=64, value=0, time=78),
    Message('note_on', channel=4, note=62, velocity=82, time=11),
    Message('control_change', channel=4, control=64, value=127, time=41),
    Message('note_on', channel=4, note=62, velocity=0, time=5),
    Message('control_change', channel=4, control=10, value=72, time=44),
    Message('note_on', channel=4, note=55, velocity=83, time=30),
    Message('note_on', channel=4, note=55, velocity=0, time=32),
    Message('note_on', channel=4, note=55, velocity=81, time=28),
    Message('control_change', channel=4, control=10, value=73, time=0),
    Message('note_on', channel=4, note=55, velocity=0, time=28),
    Message('note_on', channel=4, note=67, velocity=97, time=92),
    Message('note_on', channel=4, note=67, velocity=0, time=34),
    Message('note_on', channel=4, note=55, velocity=94, time=26),
    Message('note_on', channel=4, note=55, velocity=0, time=37),
    Message('note_on', channel=4, note=67, velocity=98, time=83),
    Message('note_on', channel=4, note=67, velocity=0, time=37),
    Message('note_on', channel=4, note=55, velocity=94, time=23),
    Message('control_change', channel=4, control=10, value=72, time=0),
    Message('note_on', channel=4, note=55, velocity=0, time=35),
    Message('control_change', channel=4, control=10, value=70, time=25),
    Message('control_change', channel=4, control=10, value=68, time=10),
    Message('control_change', channel=4, control=10, value=67, time=20),
    Message('note_on', channel=4, note=67, velocity=98, time=30),
    Message('control_change', channel=4, control=10, value=65, time=10),
    Message('control_change', channel=4, control=10, value=63, time=30),
    Message('note_on', channel=4, note=67, velocity=0, time=19),
    Message('note_on', channel=4, note=55, velocity=91, time=61),
    Message('control_change', channel=4, control=10, value=61, time=0),
    Message('note_on', channel=4, note=55, velocity=0, time=36),
    Message('note_on', channel=4, note=67, velocity=86, time=24),
    Message('note_on', channel=4, note=67, velocity=0, time=35),
    Message('note_on', channel=4, note=67, velocity=82, time=25),
    Message('control_change', channel=4, control=10, value=59, time=0),
    Message('note_on', channel=4, note=67, velocity=0, time=44),
    Message('control_change', channel=4, control=64, value=0, time=3),
    Message('note_on', channel=4, note=52, velocity=91, time=13),
    Message('control_change', channel=4, control=64, value=127, time=51),
    Message('note_on', channel=4, note=62, velocity=91, time=69),
    Message('note_on', channel=4, note=52, velocity=0, time=8),
    Message('note_on', channel=4, note=62, velocity=0, time=27),
    Message('note_on', channel=4, note=52, velocity=88, time=25),
    Message('note_on', channel=4, note=52, velocity=0, time=39),
    Message('note_on', channel=4, note=62, velocity=94, time=81),
    Message('note_on', channel=4, note=62, velocity=0, time=37),
    Message('note_on', channel=4, note=52, velocity=78, time=23),
    Message('note_on', channel=4, note=52, velocity=0, time=34),
    Message('control_change', channel=4, control=10, value=58, time=0),
    Message('note_on', channel=4, note=64, velocity=86, time=26),
    Message('note_on', channel=4, note=64, velocity=0, time=27),
    Message('control_change', channel=4, control=10, value=56, time=0),
    Message('note_on', channel=4, note=64, velocity=82, time=33),
    Message('note_on', channel=4, note=64, velocity=0, time=46),
    Message('note_on', channel=4, note=52, velocity=91, time=14),
    Message('note_on', channel=4, note=52, velocity=0, time=47),
    Message('control_change', channel=4, control=10, value=54, time=0),
    Message('note_on', channel=4, note=62, velocity=91, time=13),
    Message('control_change', channel=4, control=64, value=0, time=12),
    Message('control_change', channel=4, control=10, value=53, time=10),
    Message('note_on', channel=4, note=62, velocity=0, time=25),
    Message('note_on', channel=4, note=64, velocity=87, time=13),
    Message('control_change', channel=4, control=64, value=127, time=20),
    Message('note_on', channel=4, note=52, velocity=88, time=40),
    Message('note_on', channel=4, note=64, velocity=0, time=12),
    Message('note_on', channel=4, note=52, velocity=0, time=32),
    Message('note_on', channel=4, note=62, velocity=79, time=16),
    Message('note_on', channel=4, note=62, velocity=0, time=38),
    Message('note_on', channel=4, note=64, velocity=78, time=22),
    Message('note_on', channel=4, note=64, velocity=0, time=54),
    Message('note_on', channel=4, note=62, velocity=81, time=6),
    Message('note_on', channel=4, note=62, velocity=0, time=39),
    Message('control_change', channel=4, control=10, value=52, time=10),
    Message('control_change', channel=4, control=64, value=0, time=8),
    Message('note_on', channel=4, note=52, velocity=91, time=3),
    Message('control_change', channel=4, control=10, value=51, time=10),
    Message('control_change', channel=4, control=10, value=50, time=10),
    Message('control_change', channel=4, control=10, value=48, time=10),
    Message('control_change', channel=4, control=10, value=47, time=30),
    Message('control_change', channel=4, control=64, value=127, time=6),
    Message('control_change', channel=4, control=10, value=46, time=10),
    Message('note_on', channel=4, note=52, velocity=0, time=40),
    Message('note_on', channel=4, note=64, velocity=87, time=4),
    Message('note_on', channel=4, note=64, velocity=0, time=51),
    Message('note_on', channel=4, note=62, velocity=82, time=9),
    Message('note_on', channel=4, note=62, velocity=0, time=39),
    Message('note_on', channel=4, note=52, velocity=93, time=21),
    Message('note_on', channel=4, note=52, velocity=0, time=42),
    Message('note_on', channel=4, note=64, velocity=88, time=18),
    Message('note_on', channel=4, note=64, velocity=0, time=49),
    Message('note_on', channel=4, note=62, velocity=87, time=11),
    Message('note_on', channel=4, note=62, velocity=0, time=38),
    Message('note_on', channel=4, note=59, velocity=97, time=22),
    Message('control_change', channel=4, control=10, value=44, time=0),
    Message('note_on', channel=4, note=59, velocity=0, time=35),
    Message('note_on', channel=4, note=62, velocity=81, time=25),
    Message('note_on', channel=4, note=62, velocity=0, time=36),
    Message('note_on', channel=4, note=64, velocity=72, time=24),
    Message('note_on', channel=4, note=64, velocity=0, time=58),
    Message('note_on', channel=4, note=62, velocity=81, time=2),
    Message('control_change', channel=4, control=10, value=46, time=10),
    Message('note_on', channel=4, note=62, velocity=0, time=34),
    Message('control_change', channel=4, control=10, value=47, time=9),
    Message('note_on', channel=4, note=57, velocity=93, time=7),
    Message('note_on', channel=4, note=57, velocity=0, time=33),
    Message('control_change', channel=4, control=10, value=49, time=10),
    Message('note_on', channel=4, note=64, velocity=81, time=17),
    Message('note_on', channel=4, note=64, velocity=0, time=49),
    Message('note_on', channel=4, note=62, velocity=86, time=11),
    Message('control_change', channel=4, control=10, value=51, time=2),
    Message('note_on', channel=4, note=62, velocity=0, time=38),
    Message('note_on', channel=4, note=64, velocity=82, time=20),
    Message('control_change', channel=4, control=10, value=52, time=39),
    Message('note_on', channel=4, note=64, velocity=0, time=9),
    Message('control_change', channel=4, control=10, value=54, time=0),
    Message('note_on', channel=4, note=62, velocity=82, time=12),
    Message('note_on', channel=4, note=62, velocity=0, time=35),
    Message('control_change', channel=4, control=10, value=56, time=13),
    Message('control_change', channel=4, control=64, value=0, time=10),
    Message('note_on', channel=4, note=60, velocity=94, time=2),
    Message('control_change', channel=4, control=64, value=127, time=56),
    Message('note_on', channel=4, note=60, velocity=0, time=53),
    Message('note_on', channel=4, note=64, velocity=88, time=11),
    Message('note_on', channel=4, note=64, velocity=0, time=48),
    Message('note_on', channel=4, note=60, velocity=94, time=12),
    Message('control_change', channel=4, control=10, value=59, time=20),
    Message('note_on', channel=4, note=60, velocity=0, time=14),
    Message('control_change', channel=4, control=10, value=61, time=0),
    Message('note_on', channel=4, note=64, velocity=79, time=26),
    Message('control_change', channel=4, control=10, value=63, time=20),
    Message('note_on', channel=4, note=64, velocity=0, time=20),
    Message('note_on', channel=4, note=67, velocity=91, time=20),
    Message('note_on', channel=4, note=60, velocity=93, time=60),
    Message('note_on', channel=4, note=67, velocity=0, time=1),
    Message('control_change', channel=4, control=10, value=65, time=0),
    Message('note_on', channel=4, note=60, velocity=0, time=30),
    Message('note_on', channel=4, note=64, velocity=83, time=29),
    Message('control_change', channel=4, control=10, value=67, time=20),
    Message('note_on', channel=4, note=64, velocity=0, time=16),
    Message('note_on', channel=4, note=67, velocity=81, time=24),
    Message('control_change', channel=4, control=10, value=70, time=29),
    Message('note_on', channel=4, note=67, velocity=0, time=20),
    Message('note_on', channel=4, note=48, velocity=83, time=11),
    Message('control_change', channel=4, control=10, value=72, time=10),
    Message('note_on', channel=4, note=48, velocity=0, time=44),
    Message('note_on', channel=4, note=64, velocity=83, time=6),
    Message('control_change', channel=4, control=10, value=74, time=9),
    Message('note_on', channel=4, note=64, velocity=0, time=33),
    Message('note_on', channel=4, note=48, velocity=88, time=18),
    Message('note_on', channel=4, note=48, velocity=0, time=44),
    Message('note_on', channel=4, note=67, velocity=82, time=16),
    Message('note_on', channel=4, note=67, velocity=0, time=52),
    Message('note_on', channel=4, note=64, velocity=79, time=8),
    Message('note_on', channel=4, note=64, velocity=0, time=39),
    Message('note_on', channel=4, note=67, velocity=70, time=21),
    Message('note_on', channel=4, note=67, velocity=0, time=45),
    Message('note_on', channel=4, note=64, velocity=79, time=15),
    Message('note_on', channel=4, note=64, velocity=0, time=44),
    Message('control_change', channel=4, control=64, value=0, time=9),
    Message('note_on', channel=4, note=55, velocity=86, time=7),
    Message('control_change', channel=4, control=10, value=72, time=7),
    Message('control_change', channel=4, control=10, value=70, time=10),
    Message('note_on', channel=4, note=59, velocity=79, time=43),
    Message('control_change', channel=4, control=64, value=127, time=0),
    Message('control_change', channel=4, control=10, value=67, time=0),
    Message('control_change', channel=4, control=10, value=65, time=40),
    Message('note_on', channel=4, note=62, velocity=81, time=20),
    Message('note_on', channel=4, note=59, velocity=0, time=33),
    Message('note_on', channel=4, note=55, velocity=0, time=1),
    Message('note_on', channel=4, note=62, velocity=0, time=11),
    Message('note_on', channel=4, note=64, velocity=91, time=15),
    Message('control_change', channel=4, control=10, value=63, time=19),
    Message('note_on', channel=4, note=64, velocity=0, time=22),
    Message('note_on', channel=4, note=62, velocity=63, time=19),
    Message('note_on', channel=4, note=62, velocity=0, time=28),
    Message('control_change', channel=4, control=10, value=61, time=0),
    Message('note_on', channel=4, note=64, velocity=83, time=32),
    Message('control_change', channel=4, control=10, value=59, time=10),
    Message('note_on', channel=4, note=64, velocity=0, time=33),
    Message('note_on', channel=4, note=62, velocity=94, time=17),
    Message('note_on', channel=4, note=62, velocity=0, time=36),
    Message('note_on', channel=4, note=64, velocity=81, time=24),
    Message('note_on', channel=4, note=64, velocity=0, time=36),
    Message('note_on', channel=4, note=67, velocity=88, time=24),
    Message('note_on', channel=4, note=67, velocity=0, time=48),
    Message('note_on', channel=4, note=55, velocity=81, time=12),
    Message('control_change', channel=4, control=64, value=0, time=32),
    Message('note_on', channel=4, note=67, velocity=91, time=28),
    Message('control_change', channel=4, control=64, value=127, time=31),
    Message('note_on', channel=4, note=67, velocity=0, time=18),
    Message('note_on', channel=4, note=59, velocity=74, time=11),
    Message('note_on', channel=4, note=62, velocity=93, time=60),
    Message('note_on', channel=4, note=62, velocity=0, time=55),
    Message('note_on', channel=4, note=67, velocity=94, time=5),
    Message('note_on', channel=4, note=59, velocity=0, time=22),
    Message('note_on', channel=4, note=55, velocity=0, time=13),
    Message('note_on', channel=4, note=67, velocity=0, time=11),
    Message('note_on', channel=4, note=57, velocity=94, time=134),
    Message('control_change', channel=4, control=64, value=0, time=0),
    Message('control_change', channel=4, control=10, value=61, time=54),
    Message('control_change', channel=4, control=64, value=127, time=3),
    Message('control_change', channel=4, control=10, value=63, time=20),
    Message('note_on', channel=4, note=57, velocity=0, time=28),
    Message('note_on', channel=4, note=64, velocity=82, time=15),
    Message('control_change', channel=4, control=10, value=65, time=30),
    Message('note_on', channel=4, note=64, velocity=0, time=10),
    Message('note_on', channel=4, note=60, velocity=60, time=20),
    Message('note_on', channel=4, note=60, velocity=0, time=13),
    Message('control_change', channel=4, control=10, value=67, time=22),
    Message('note_on', channel=4, note=64, velocity=88, time=85),
    Message('control_change', channel=4, control=10, value=70, time=0),
    Message('control_change', channel=4, control=10, value=72, time=20),
    Message('note_on', channel=4, note=64, velocity=0, time=35),
    Message('note_on', channel=4, note=57, velocity=88, time=5),
    Message('note_on', channel=4, note=57, velocity=0, time=33),
    Message('note_on', channel=4, note=60, velocity=83, time=27),
    Message('note_on', channel=4, note=60, velocity=0, time=34),
    Message('control_change', channel=4, control=10, value=74, time=20),
    Message('note_on', channel=4, note=64, velocity=87, time=6),
    Message('note_on', channel=4, note=64, velocity=0, time=43),
    Message('note_on', channel=4, note=57, velocity=97, time=17),
    Message('note_on', channel=4, note=57, velocity=0, time=42),
    Message('note_on', channel=4, note=60, velocity=82, time=18),
    Message('note_on', channel=4, note=60, velocity=0, time=33),
    Message('note_on', channel=4, note=64, velocity=83, time=27),
    Message('note_on', channel=4, note=64, velocity=0, time=41),
    Message('note_on', channel=4, note=57, velocity=91, time=19),
    Message('note_on', channel=4, note=57, velocity=0, time=44),
    Message('note_on', channel=4, note=62, velocity=97, time=16),
    Message('note_on', channel=4, note=62, velocity=0, time=51),
    Message('note_on', channel=4, note=57, velocity=93, time=9),
    Message('note_on', channel=4, note=57, velocity=0, time=46),
    Message('note_on', channel=4, note=60, velocity=88, time=14),
    Message('note_on', channel=4, note=60, velocity=0, time=35),
    Message('control_change', channel=4, control=64, value=0, time=21),
    Message('note_on', channel=4, note=64, velocity=83, time=4),
    Message('control_change', channel=4, control=64, value=127, time=58),
    Message('note_on', channel=4, note=60, velocity=81, time=2),
    Message('note_on', channel=4, note=64, velocity=0, time=8),
    Message('note_on', channel=4, note=60, velocity=0, time=37),
    Message('note_on', channel=4, note=48, velocity=86, time=15),
    Message('note_on', channel=4, note=48, velocity=0, time=29),
    Message('note_on', channel=4, note=60, velocity=87, time=31),
    Message('control_change', channel=4, control=10, value=75, time=10),
    Message('control_change', channel=4, control=10, value=78, time=10),
    Message('note_on', channel=4, note=60, velocity=0, time=26),
    Message('note_on', channel=4, note=64, velocity=70, time=14),
    Message('control_change', channel=4, control=10, value=79, time=14),
    Message('control_change', channel=4, control=10, value=81, time=20),
    Message('note_on', channel=4, note=64, velocity=0, time=11),
    Message('control_change', channel=4, control=10, value=83, time=1),
    Message('note_on', channel=4, note=55, velocity=94, time=74),
    Message('control_change', channel=4, control=10, value=84, time=0),
    Message('note_on', channel=4, note=55, velocity=0, time=30),
    Message('note_on', channel=4, note=60, velocity=88, time=90),
    Message('control_change', channel=4, control=10, value=86, time=8),
    Message('control_change', channel=4, control=10, value=87, time=10),
    Message('note_on', channel=4, note=60, velocity=0, time=20),
    Message('note_on', channel=4, note=55, velocity=91, time=22),
    Message('note_on', channel=4, note=55, velocity=0, time=25),
    Message('note_on', channel=4, note=64, velocity=91, time=95),
    Message('note_on', channel=4, note=64, velocity=0, time=65),
    Message('note_on', channel=4, note=55, velocity=91, time=55),
    Message('note_on', channel=4, note=55, velocity=0, time=35),
    Message('note_on', channel=4, note=60, velocity=78, time=25),
    Message('note_on', channel=4, note=60, velocity=0, time=48),
    Message('note_on', channel=4, note=64, velocity=82, time=12),
    Message('note_on', channel=4, note=64, velocity=0, time=47),
    Message('control_change', channel=4, control=64, value=0, time=11),
    Message('note_on', channel=4, note=52, velocity=91, time=2),
    Message('control_change', channel=4, control=64, value=127, time=62),
    Message('note_on', channel=4, note=55, velocity=83, time=58),
    Message('note_on', channel=4, note=59, velocity=88, time=60),
    Message('note_on', channel=4, note=59, velocity=0, time=41),
    Message('note_on', channel=4, note=64, velocity=81, time=19),
    Message('note_on', channel=4, note=55, velocity=0, time=11),
    Message('note_on', channel=4, note=52, velocity=0, time=17),
    Message('note_on', channel=4, note=64, velocity=0, time=9),
    Message('note_on', channel=4, note=67, velocity=79, time=23),
    Message('note_on', channel=4, note=67, velocity=0, time=42),
    Message('note_on', channel=4, note=59, velocity=82, time=18),
    Message('note_on', channel=4, note=59, velocity=0, time=33),
    Message('note_on', channel=4, note=64, velocity=82, time=27),
    Message('note_on', channel=4, note=64, velocity=0, time=36),
    Message('note_on', channel=4, note=67, velocity=82, time=24),
    Message('control_change', channel=4, control=10, value=91, time=0),
    Message('control_change', channel=4, control=10, value=92, time=9),
    Message('control_change', channel=4, control=10, value=93, time=30),
    Message('note_on', channel=4, note=67, velocity=0, time=11),
    Message('control_change', channel=4, control=10, value=95, time=0),
    Message('note_on', channel=4, note=59, velocity=91, time=10),
    Message('note_on', channel=4, note=59, velocity=0, time=35),
    Message('note_on', channel=4, note=64, velocity=72, time=25),
    Message('note_on', channel=4, note=64, velocity=0, time=33),
    Message('note_on', channel=4, note=67, velocity=88, time=27),
    Message('note_on', channel=4, note=67, velocity=0, time=55),
    Message('note_on', channel=4, note=59, velocity=94, time=5),
    Message('note_on', channel=4, note=59, velocity=0, time=36),
    Message('note_on', channel=4, note=64, velocity=82, time=24),
    Message('note_on', channel=4, note=64, velocity=0, time=32),
    Message('note_on', channel=4, note=67, velocity=93, time=28),
    Message('note_on', channel=4, note=67, velocity=0, time=36),
    Message('note_on', channel=4, note=59, velocity=94, time=24),
    Message('note_on', channel=4, note=59, velocity=0, time=34),
    Message('control_change', channel=4, control=64, value=0, time=20),
    Message('note_on', channel=4, note=66, velocity=94, time=6),
    Message('control_change', channel=4, control=64, value=127, time=45),
    Message('note_on', channel=4, note=66, velocity=0, time=5),
    Message('note_on', channel=4, note=62, velocity=83, time=10),
    Message('note_on', channel=4, note=62, velocity=0, time=42),
    Message('note_on', channel=4, note=59, velocity=83, time=18),
    Message('note_on', channel=4, note=59, velocity=0, time=36),
    Message('note_on', channel=4, note=66, velocity=97, time=24),
    Message('note_on', channel=4, note=66, velocity=0, time=44),
    Message('note_on', channel=4, note=62, velocity=86, time=16),
    Message('note_on', channel=4, note=62, velocity=0, time=39),
    Message('note_on', channel=4, note=59, velocity=93, time=21),
    Message('note_on', channel=4, note=59, velocity=0, time=36),
    Message('note_on', channel=4, note=66, velocity=94, time=24),
    Message('note_on', channel=4, note=66, velocity=0, time=52),
    Message('note_on', channel=4, note=62, velocity=82, time=8),
    Message('note_on', channel=4, note=62, velocity=0, time=44),
    Message('note_on', channel=4, note=59, velocity=93, time=16),
    Message('control_change', channel=4, control=10, value=93, time=8),
    Message('control_change', channel=4, control=10, value=92, time=20),
    Message('note_on', channel=4, note=59, velocity=0, time=9),
    Message('control_change', channel=4, control=10, value=90, time=0),
    Message('note_on', channel=4, note=66, velocity=91, time=23),
    Message('control_change', channel=4, control=10, value=89, time=0),
    Message('note_on', channel=4, note=66, velocity=0, time=58),
    Message('note_on', channel=4, note=62, velocity=82, time=2),
    Message('control_change', channel=4, control=10, value=88, time=0),
    Message('control_change', channel=4, control=10, value=86, time=9),
    Message('note_on', channel=4, note=62, velocity=0, time=34),
    Message('note_on', channel=4, note=66, velocity=81, time=17),
    Message('control_change', channel=4, control=10, value=84, time=0),
    Message('control_change', channel=4, control=10, value=83, time=20),
    Message('note_on', channel=4, note=66, velocity=0, time=28),
    Message('control_change', channel=4, control=10, value=81, time=0),
    Message('note_on', channel=4, note=62, velocity=82, time=12),
    Message('note_on', channel=4, note=62, velocity=0, time=45),
    Message('control_change', channel=4, control=10, value=79, time=0),
    Message('note_on', channel=4, note=66, velocity=63, time=15),
    Message('note_on', channel=4, note=66, velocity=0, time=53),
    Message('note_on', channel=4, note=48, velocity=93, time=7),
    Message('control_change', channel=4, control=64, value=0, time=43),
    Message('control_change', channel=4, control=10, value=77, time=10),
    Message('control_change', channel=4, control=10, value=74, time=50),
    Message('note_on', channel=4, note=55, velocity=93, time=17),
    Message('control_change', channel=4, control=10, value=72, time=9),
    Message('control_change', channel=4, control=64, value=127, time=8),
    Message('note_on', channel=4, note=55, velocity=0, time=21),
    Message('note_on', channel=4, note=60, velocity=82, time=22),
    Message('note_on', channel=4, note=60, velocity=0, time=39),
    Message('note_on', channel=4, note=64, velocity=82, time=21),
    Message('note_on', channel=4, note=64, velocity=0, time=41),
    Message('control_change', channel=4, control=10, value=69, time=10),
    Message('note_on', channel=4, note=55, velocity=91, time=9),
    Message('note_on', channel=4, note=55, velocity=0, time=34),
    Message('control_change', channel=4, control=10, value=66, time=10),
    Message('note_on', channel=4, note=60, velocity=83, time=16),
    Message('note_on', channel=4, note=60, velocity=0, time=37),
    Message('note_on', channel=4, note=64, velocity=81, time=23),
    Message('note_on', channel=4, note=48, velocity=0, time=24),
    Message('note_on', channel=4, note=64, velocity=0, time=18),
    Message('note_on', channel=4, note=60, velocity=82, time=18),
    Message('note_on', channel=4, note=60, velocity=0, time=42),
    Message('note_on', channel=4, note=55, velocity=88, time=18),
    Message('note_on', channel=4, note=55, velocity=0, time=34),
    Message('note_on', channel=4, note=64, velocity=88, time=26),
    Message('control_change', channel=4, control=10, value=69, time=48),
    Message('note_on', channel=4, note=64, velocity=0, time=11),
    Message('note_on', channel=4, note=55, velocity=88, time=1),
    Message('note_on', channel=4, note=55, velocity=0, time=33),
    Message('control_change', channel=4, control=10, value=72, time=3),
    Message('note_on', channel=4, note=60, velocity=74, time=24),
    Message('note_on', channel=4, note=60, velocity=0, time=58),
    Message('note_on', channel=4, note=55, velocity=91, time=2),
    Message('note_on', channel=4, note=55, velocity=0, time=36),
    Message('note_on', channel=4, note=64, velocity=76, time=24),
    Message('note_on', channel=4, note=64, velocity=0, time=48),
    Message('note_on', channel=4, note=60, velocity=82, time=12),
    Message('note_on', channel=4, note=60, velocity=0, time=37),
    Message('note_on', channel=4, note=55, velocity=91, time=23),
    Message('control_change', channel=4, control=64, value=0, time=25),
    Message('control_change', channel=4, control=64, value=127, time=54),
    Message('note_on', channel=4, note=59, velocity=83, time=161),
    Message('control_change', channel=4, control=10, value=74, time=31),
    Message('note_on', channel=4, note=62, velocity=88, time=29),
    Message('note_on', channel=4, note=62, velocity=0, time=42),
    Message('note_on', channel=4, note=59, velocity=0, time=44),
    Message('note_on', channel=4, note=62, velocity=83, time=34),
    Message('note_on', channel=4, note=59, velocity=59, time=0),
    Message('note_on', channel=4, note=62, velocity=0, time=29),
    Message('note_on', channel=4, note=59, velocity=0, time=27),
    Message('note_on', channel=4, note=67, velocity=91, time=4),
    Message('note_on', channel=4, note=67, velocity=0, time=41),
    Message('note_on', channel=4, note=62, velocity=88, time=19),
    Message('control_change', channel=4, control=10, value=72, time=0),
    Message('note_on', channel=4, note=62, velocity=0, time=33),
    Message('note_on', channel=4, note=55, velocity=0, time=27),
    Message('note_on', channel=4, note=67, velocity=81, time=0),
    Message('control_change', channel=4, control=10, value=69, time=0),
    Message('control_change', channel=4, control=10, value=68, time=19),
    Message('note_on', channel=4, note=67, velocity=0, time=3),
    Message('note_on', channel=4, note=67, velocity=88, time=38),
    Message('note_on', channel=4, note=67, velocity=0, time=45),
    Message('note_on', channel=4, note=62, velocity=88, time=15),
    Message('control_change', channel=4, control=10, value=66, time=0),
    Message('control_change', channel=4, control=10, value=63, time=19),
    Message('note_on', channel=4, note=62, velocity=0, time=15),
    Message('control_change', channel=4, control=10, value=60, time=11),
    Message('note_on', channel=4, note=67, velocity=88, time=15),
    Message('note_on', channel=4, note=67, velocity=0, time=30),
    Message('note_on', channel=4, note=67, velocity=91, time=30),
    Message('note_on', channel=4, note=67, velocity=0, time=59),
    Message('control_change', channel=4, control=10, value=58, time=0),
    Message('control_change', channel=4, control=10, value=55, time=26),
    Message('note_on', channel=4, note=60, velocity=97, time=35),
    Message('control_change', channel=4, control=10, value=53, time=9),
    Message('control_change', channel=4, control=64, value=0, time=17),
    Message('control_change', channel=4, control=10, value=51, time=0),
    Message('control_change', channel=4, control=64, value=127, time=56),
    Message('note_on', channel=4, note=60, velocity=0, time=14),
    Message('note_on', channel=4, note=64, velocity=86, time=24),
    Message('control_change', channel=4, control=10, value=48, time=19),
    Message('note_on', channel=4, note=64, velocity=0, time=25),
    Message('control_change', channel=4, control=10, value=47, time=0),
    Message('note_on', channel=4, note=60, velocity=76, time=16),
    Message('note_on', channel=4, note=60, velocity=0, time=35),
    Message('note_on', channel=4, note=64, velocity=78, time=25),
    Message('control_change', channel=4, control=10, value=45, time=0),
    Message('note_on', channel=4, note=64, velocity=0, time=51),
    Message('note_on', channel=4, note=55, velocity=94, time=9),
    Message('control_change', channel=4, control=10, value=43, time=15),
    Message('note_on', channel=4, note=55, velocity=0, time=20),
    Message('note_on', channel=4, note=60, velocity=82, time=25),
    Message('note_on', channel=4, note=60, velocity=0, time=40),
    Message('note_on', channel=4, note=64, velocity=86, time=20),
    Message('note_on', channel=4, note=64, velocity=0, time=59),
    Message('note_on', channel=4, note=55, velocity=94, time=1),
    Message('note_on', channel=4, note=55, velocity=0, time=34),
    Message('note_on', channel=4, note=60, velocity=79, time=26),
    Message('control_change', channel=4, control=10, value=45, time=0),
    Message('note_on', channel=4, note=60, velocity=0, time=36),
    Message('note_on', channel=4, note=64, velocity=83, time=24),
    Message('note_on', channel=4, note=64, velocity=0, time=59),
    Message('note_on', channel=4, note=55, velocity=91, time=1),
    Message('control_change', channel=4, control=10, value=48, time=27),
    Message('note_on', channel=4, note=55, velocity=0, time=8),
    Message('note_on', channel=4, note=60, velocity=86, time=25),
    Message('note_on', channel=4, note=60, velocity=0, time=42),
    Message('note_on', channel=4, note=64, velocity=78, time=18),
    Message('note_on', channel=4, note=64, velocity=0, time=51),
    Message('note_on', channel=4, note=60, velocity=87, time=9),
    Message('control_change', channel=4, control=10, value=50, time=22),
    Message('note_on', channel=4, note=60, velocity=0, time=17),
    Message('note_on', channel=4, note=64, velocity=81, time=21),
    Message('control_change', channel=4, control=10, value=51, time=0),
    Message('note_on', channel=4, note=64, velocity=0, time=44),
    Message('note_on', channel=4, note=60, velocity=82, time=16),
    Message('note_on', channel=4, note=60, velocity=0, time=40),
    Message('control_change', channel=4, control=64, value=0, time=59),
    Message('control_change', channel=4, control=10, value=54, time=10),
    Message('note_on', channel=4, note=55, velocity=93, time=11),
    Message('control_change', channel=4, control=10, value=56, time=34),
    Message('control_change', channel=4, control=64, value=127, time=6),
    Message('note_on', channel=4, note=59, velocity=82, time=80),
    Message('note_on', channel=4, note=62, velocity=91, time=60),
    Message('control_change', channel=4, control=10, value=58, time=10),
    Message('note_on', channel=4, note=62, velocity=0, time=26),
    Message('note_on', channel=4, note=62, velocity=94, time=84),
    Message('control_change', channel=4, control=10, value=61, time=0),
    Message('control_change', channel=4, control=10, value=63, time=10),
    Message('note_on', channel=4, note=62, velocity=0, time=23),
    Message('note_on', channel=4, note=67, velocity=91, time=27),
    Message('note_on', channel=4, note=67, velocity=0, time=34),
    Message('note_on', channel=4, note=62, velocity=91, time=26),
    Message('note_on', channel=4, note=62, velocity=0, time=31),
    Message('note_on', channel=4, note=67, velocity=82, time=29),
    Message('note_on', channel=4, note=67, velocity=0, time=27),
    Message('control_change', channel=4, control=10, value=65, time=10),
    Message('note_on', channel=4, note=67, velocity=82, time=23),
    Message('note_on', channel=4, note=67, velocity=0, time=39),
    Message('note_on', channel=4, note=62, velocity=91, time=21),
    Message('note_on', channel=4, note=62, velocity=0, time=34),
    Message('note_on', channel=4, note=67, velocity=87, time=26),
    Message('note_on', channel=4, note=67, velocity=0, time=26),
    Message('control_change', channel=4, control=10, value=68, time=10),
    Message('note_on', channel=4, note=67, velocity=87, time=24),
    Message('control_change', channel=4, control=10, value=70, time=19),
    Message('note_on', channel=4, note=67, velocity=0, time=21),
    Message('control_change', channel=4, control=10, value=72, time=4),
    Message('note_on', channel=4, note=62, velocity=88, time=16),
    Message('control_change', channel=4, control=10, value=74, time=9),
    Message('note_on', channel=4, note=62, velocity=0, time=33),
    Message('note_on', channel=4, note=59, velocity=0, time=18),
    Message('note_on', channel=4, note=67, velocity=78, time=0),
    Message('note_on', channel=4, note=55, velocity=0, time=2),
    Message('note_on', channel=4, note=67, velocity=0, time=20),
    Message('note_on', channel=4, note=67, velocity=83, time=38),
    Message('control_change', channel=4, control=10, value=76, time=34),
    Message('note_on', channel=4, note=67, velocity=0, time=10),
    Message('control_change', channel=4, control=10, value=78, time=0),
    Message('note_on', channel=4, note=57, velocity=83, time=16),
    Message('control_change', channel=4, control=64, value=0, time=0),
    Message('control_change', channel=4, control=10, value=80, time=8),
    Message('note_on', channel=4, note=60, velocity=87, time=52),
    Message('control_change', channel=4, control=64, value=127, time=3),
    Message('note_on', channel=4, note=64, velocity=81, time=57),
    Message('note_on', channel=4, note=64, velocity=0, time=40),
    Message('note_on', channel=4, note=67, velocity=79, time=20),
    Message('note_on', channel=4, note=67, velocity=0, time=37),
    Message('note_on', channel=4, note=64, velocity=86, time=23),
    Message('note_on', channel=4, note=64, velocity=0, time=29),
    Message('control_change', channel=4, control=10, value=78, time=10),
    Message('note_on', channel=4, note=67, velocity=83, time=21),
    Message('note_on', channel=4, note=67, velocity=0, time=33),
    Message('control_change', channel=4, control=10, value=76, time=0),
    Message('note_on', channel=4, note=64, velocity=86, time=27),
    Message('note_on', channel=4, note=64, velocity=0, time=33),
    Message('control_change', channel=4, control=10, value=74, time=13),
    Message('note_on', channel=4, note=67, velocity=79, time=14),
    Message('control_change', channel=4, control=10, value=72, time=10),
    Message('note_on', channel=4, note=67, velocity=0, time=16),
    Message('note_on', channel=4, note=67, velocity=81, time=34),
    Message('control_change', channel=4, control=10, value=70, time=9),
    Message('note_on', channel=4, note=60, velocity=0, time=16),
    Message('note_on', channel=4, note=67, velocity=0, time=14),
    Message('note_on', channel=4, note=57, velocity=0, time=7),
    Message('note_on', channel=4, note=64, velocity=93, time=14),
    Message('control_change', channel=4, control=10, value=68, time=30),
    Message('note_on', channel=4, note=67, velocity=88, time=30),
    Message('note_on', channel=4, note=64, velocity=0, time=3),
    Message('note_on', channel=4, note=67, velocity=0, time=39),
    Message('note_on', channel=4, note=57, velocity=82, time=18),
    Message('note_on', channel=4, note=67, velocity=91, time=60),
    Message('note_on', channel=4, note=67, velocity=0, time=39),
    Message('note_on', channel=4, note=64, velocity=91, time=21),
    Message('note_on', channel=4, note=64, velocity=0, time=40),
    Message('note_on', channel=4, note=57, velocity=0, time=15),
    Message('note_on', channel=4, note=67, velocity=83, time=5),
    Message('note_on', channel=4, note=67, velocity=0, time=34),
    Message('control_change', channel=4, control=64, value=0, time=84),
    Message('note_on', channel=4, note=60, velocity=88, time=2),
    Message('control_change', channel=4, control=10, value=65, time=0),
    Message('control_change', channel=4, control=10, value=63, time=18),
    Message('note_on', channel=4, note=60, velocity=0, time=34),
    Message('control_change', channel=4, control=64, value=127, time=0),
    Message('control_change', channel=4, control=10, value=61, time=1),
    Message('note_on', channel=4, note=64, velocity=60, time=7),
    Message('control_change', channel=4, control=10, value=58, time=20),
    Message('note_on', channel=4, note=64, velocity=0, time=22),
    Message('note_on', channel=4, note=67, velocity=82, time=18),
    Message('note_on', channel=4, note=67, velocity=0, time=53),
    Message('note_on', channel=4, note=64, velocity=86, time=7),
    Message('control_change', channel=4, control=10, value=56, time=0),
    Message('note_on', channel=4, note=64, velocity=0, time=57),
    Message('note_on', channel=4, note=55, velocity=97, time=3),
    Message('control_change', channel=4, control=10, value=54, time=29),
    Message('note_on', channel=4, note=55, velocity=0, time=6),
    Message('note_on', channel=4, note=60, velocity=83, time=25),
    Message('note_on', channel=4, note=60, velocity=0, time=52),
    Message('note_on', channel=4, note=67, velocity=83, time=8),
    Message('control_change', channel=4, control=10, value=51, time=10),
    Message('note_on', channel=4, note=64, velocity=91, time=50),
    Message('control_change', channel=4, control=10, value=50, time=0),
    Message('note_on', channel=4, note=67, velocity=0, time=25),
    Message('control_change', channel=4, control=10, value=48, time=10),
    Message('note_on', channel=4, note=64, velocity=0, time=25),
    Message('note_on', channel=4, note=55, velocity=88, time=0),
    Message('note_on', channel=4, note=55, velocity=0, time=40),
    Message('note_on', channel=4, note=60, velocity=87, time=20),
    Message('note_on', channel=4, note=60, velocity=0, time=43),
    Message('note_on', channel=4, note=62, velocity=93, time=17),
    Message('note_on', channel=4, note=62, velocity=0, time=46),
    Message('note_on', channel=4, note=55, velocity=91, time=14),
    Message('note_on', channel=4, note=55, velocity=0, time=36),
    Message('note_on', channel=4, note=67, velocity=79, time=24),
    Message('control_change', channel=4, control=10, value=50, time=0),
    Message('control_change', channel=4, control=10, value=51, time=29),
    Message('note_on', channel=4, note=64, velocity=76, time=31),
    Message('note_on', channel=4, note=67, velocity=0, time=7),
    Message('control_change', channel=4, control=10, value=54, time=0),
    Message('note_on', channel=4, note=64, velocity=0, time=44),
    Message('control_change', channel=4, control=64, value=0, time=2),
    Message('control_change', channel=4, control=10, value=56, time=0),
    Message('note_on', channel=4, note=55, velocity=98, time=7),
    Message('control_change', channel=4, control=10, value=58, time=78),
    Message('control_change', channel=4, control=10, value=61, time=40),
    Message('control_change', channel=4, control=10, value=63, time=30),
    Message('note_on', channel=4, note=55, velocity=0, time=501),
    Message('note_on', channel=4, note=60, velocity=79, time=1391),
    Message('note_on', channel=4, note=64, velocity=66, time=120),
    Message('note_on', channel=4, note=67, velocity=88, time=60),
    Message('note_on', channel=4, note=64, velocity=0, time=20),
    Message('note_on', channel=4, note=60, velocity=0, time=31),
    Message('note_on', channel=4, note=64, velocity=87, time=9),
    Message('control_change', channel=4, control=64, value=127, time=4),
    Message('note_on', channel=4, note=67, velocity=0, time=27),
    Message('note_on', channel=4, note=64, velocity=0, time=28),
    Message('note_on', channel=4, note=60, velocity=86, time=1),
    Message('note_on', channel=4, note=64, velocity=76, time=60),
    Message('note_on', channel=4, note=60, velocity=0, time=4),
    Message('note_on', channel=4, note=64, velocity=0, time=44),
    Message('note_on', channel=4, note=67, velocity=87, time=12),
    Message('note_on', channel=4, note=67, velocity=0, time=56),
    Message('note_on', channel=4, note=64, velocity=80, time=4),
    Message('note_on', channel=4, note=55, velocity=93, time=60),
    Message('note_on', channel=4, note=64, velocity=0, time=3),
    Message('note_on', channel=4, note=55, velocity=0, time=29),
    Message('note_on', channel=4, note=60, velocity=82, time=28),
    Message('note_on', channel=4, note=60, velocity=0, time=47),
    Message('note_on', channel=4, note=64, velocity=91, time=13),
    Message('note_on', channel=4, note=64, velocity=0, time=55),
    Message('note_on', channel=4, note=55, velocity=93, time=5),
    Message('control_change', channel=4, control=10, value=61, time=0),
    Message('note_on', channel=4, note=55, velocity=0, time=43),
    Message('note_on', channel=4, note=67, velocity=87, time=17),
    Message('control_change', channel=4, control=10, value=58, time=24),
    Message('control_change', channel=4, control=10, value=56, time=20),
    Message('control_change', channel=4, control=10, value=54, time=15),
    Message('note_on', channel=4, note=64, velocity=87, time=1),
    Message('note_on', channel=4, note=67, velocity=0, time=14),
    Message('control_change', channel=4, control=10, value=50, time=0),
    Message('control_change', channel=4, control=10, value=48, time=16),
    Message('note_on', channel=4, note=55, velocity=97, time=30),
    Message('note_on', channel=4, note=64, velocity=0, time=4),
    Message('note_on', channel=4, note=55, velocity=0, time=38),
    Message('note_on', channel=4, note=60, velocity=91, time=18),
    Message('note_on', channel=4, note=60, velocity=0, time=54),
    Message('note_on', channel=4, note=64, velocity=71, time=6),
    Message('note_on', channel=4, note=55, velocity=97, time=60),
    Message('note_on', channel=4, note=64, velocity=0, time=3),
    Message('note_on', channel=4, note=55, velocity=0, time=38),
    Message('note_on', channel=4, note=67, velocity=92, time=19),
    Message('note_on', channel=4, note=67, velocity=0, time=57),
    Message('note_on', channel=4, note=64, velocity=87, time=3),
    Message('note_on', channel=4, note=64, velocity=0, time=52),
    Message('note_on', channel=4, note=55, velocity=97, time=8),
    Message('note_on', channel=4, note=55, velocity=0, time=38),
    Message('note_on', channel=4, note=60, velocity=86, time=22),
    Message('note_on', channel=4, note=60, velocity=0, time=49),
    Message('note_on', channel=4, note=64, velocity=87, time=11),
    Message('note_on', channel=4, note=64, velocity=0, time=50),
    Message('note_on', channel=4, note=55, velocity=93, time=10),
    Message('note_on', channel=4, note=55, velocity=0, time=36),
    Message('note_on', channel=4, note=67, velocity=93, time=24),
    Message('note_on', channel=4, note=67, velocity=0, time=55),
    Message('note_on', channel=4, note=64, velocity=92, time=5),
    Message('note_on', channel=4, note=55, velocity=91, time=60),
    Message('note_on', channel=4, note=64, velocity=0, time=5),
    Message('note_on', channel=4, note=55, velocity=0, time=33),
    Message('note_on', channel=4, note=60, velocity=91, time=22),
    Message('control_change', channel=4, control=10, value=50, time=36),
    Message('control_change', channel=4, control=10, value=54, time=11),
    Message('note_on', channel=4, note=67, velocity=83, time=13),
    Message('control_change', channel=4, control=10, value=58, time=0),
    Message('note_on', channel=4, note=60, velocity=0, time=11),
    Message('note_on', channel=4, note=64, velocity=86, time=49),
    Message('note_on', channel=4, note=67, velocity=0, time=22),
    Message('control_change', channel=4, control=10, value=61, time=3),
    Message('control_change', channel=4, control=10, value=63, time=17),
    Message('note_on', channel=4, note=64, velocity=0, time=17),
    Message('note_on', channel=4, note=60, velocity=91, time=1),
    Message('control_change', channel=4, control=10, value=65, time=29),
    Message('note_on', channel=4, note=60, velocity=0, time=19),
    Message('control_change', channel=4, control=10, value=68, time=0),
    Message('control_change', channel=4, control=64, value=0, time=9),
    Message('note_on', channel=4, note=50, velocity=92, time=3),
    Message('control_change', channel=4, control=10, value=70, time=0),
    Message('note_on', channel=4, note=50, velocity=0, time=50),
    Message('control_change', channel=4, control=64, value=127, time=5),
    Message('note_on', channel=4, note=62, velocity=80, time=5),
    Message('note_on', channel=4, note=67, velocity=74, time=0),
    Message('control_change', channel=4, control=10, value=72, time=4),
    Message('note_on', channel=4, note=59, velocity=74, time=56),
    Message('note_on', channel=4, note=67, velocity=0, time=15),
    Message('note_on', channel=4, note=62, velocity=0, time=8),
    Message('note_on', channel=4, note=59, velocity=0, time=24),
    Message('note_on', channel=4, note=50, velocity=87, time=13),
    Message('note_on', channel=4, note=50, velocity=0, time=42),
    Message('note_on', channel=4, note=67, velocity=67, time=18),
    Message('note_on', channel=4, note=62, velocity=92, time=60),
    Message('note_on', channel=4, note=67, velocity=0, time=3),
    Message('note_on', channel=4, note=55, velocity=100, time=57),
    Message('note_on', channel=4, note=62, velocity=0, time=15),
    Message('note_on', channel=4, note=55, velocity=0, time=22),
    Message('note_on', channel=4, note=59, velocity=88, time=23),
    Message('note_on', channel=4, note=62, velocity=83, time=60),
    Message('note_on', channel=4, note=59, velocity=0, time=19),
    Message('note_on', channel=4, note=62, velocity=0, time=38),
    Message('note_on', channel=4, note=55, velocity=97, time=3),
    Message('note_on', channel=4, note=55, velocity=0, time=38),
    Message('note_on', channel=4, note=67, velocity=91, time=22),
    Message('note_on', channel=4, note=62, velocity=92, time=60),
    Message('note_on', channel=4, note=67, velocity=0, time=8),
    Message('note_on', channel=4, note=55, velocity=97, time=52),
    Message('note_on', channel=4, note=62, velocity=0, time=4),
    Message('control_change', channel=4, control=10, value=70, time=14),
    Message('note_on', channel=4, note=55, velocity=0, time=17),
    Message('control_change', channel=4, control=10, value=68, time=4),
    Message('note_on', channel=4, note=59, velocity=87, time=21),
    Message('control_change', channel=4, control=10, value=65, time=40),
    Message('note_on', channel=4, note=67, velocity=87, time=20),
    Message('note_on', channel=4, note=59, velocity=0, time=25),
    Message('note_on', channel=4, note=55, velocity=100, time=35),
    Message('note_on', channel=4, note=67, velocity=0, time=8),
    Message('control_change', channel=4, control=10, value=63, time=20),
    Message('note_on', channel=4, note=55, velocity=0, time=12),
    Message('note_on', channel=4, note=65, velocity=92, time=20),
    Message('note_on', channel=4, note=62, velocity=76, time=60),
    Message('control_change', channel=4, control=10, value=61, time=10),
    Message('note_on', channel=4, note=62, velocity=0, time=12),
    Message('note_on', channel=4, note=65, velocity=0, time=25),
    Message('note_on', channel=4, note=55, velocity=97, time=13),
    Message('control_change', channel=4, control=10, value=58, time=10),
    Message('note_on', channel=4, note=55, velocity=0, time=27),
    Message('note_on', channel=4, note=62, velocity=97, time=23),
    Message('note_on', channel=4, note=65, velocity=97, time=0),
    Message('note_on', channel=4, note=65, velocity=0, time=48),
    Message('note_on', channel=4, note=62, velocity=0, time=1),
    Message('note_on', channel=4, note=55, velocity=91, time=11),
    Message('note_on', channel=4, note=55, velocity=0, time=32),
    Message('note_on', channel=4, note=65, velocity=88, time=28),
    Message('note_on', channel=4, note=62, velocity=91, time=0),
    Message('note_on', channel=4, note=62, velocity=0, time=22),
    Message('note_on', channel=4, note=65, velocity=0, time=2),
    Message('control_change', channel=4, control=10, value=56, time=0),
    Message('control_change', channel=4, control=10, value=54, time=27),
    Message('note_on', channel=4, note=65, velocity=97, time=9),
    Message('note_on', channel=4, note=62, velocity=103, time=0),
    Message('control_change', channel=4, control=10, value=51, time=9),
    Message('note_on', channel=4, note=62, velocity=0, time=26),
    Message('note_on', channel=4, note=65, velocity=0, time=9),
    Message('control_change', channel=4, control=10, value=50, time=0),
    Message('note_on', channel=4, note=55, velocity=99, time=16),
    Message('note_on', channel=4, note=55, velocity=0, time=35),
    Message('note_on', channel=4, note=65, velocity=91, time=25),
    Message('note_on', channel=4, note=62, velocity=93, time=0),
    Message('note_on', channel=4, note=62, velocity=0, time=21),
    Message('note_on', channel=4, note=65, velocity=0, time=5),
    Message('note_on', channel=4, note=62, velocity=103, time=34),
    Message('note_on', channel=4, note=65, velocity=99, time=0),
    Message('note_on', channel=4, note=62, velocity=0, time=46),
    Message('note_on', channel=4, note=65, velocity=0, time=5),
    Message('note_on', channel=4, note=55, velocity=97, time=9),
    Message('note_on', channel=4, note=55, velocity=0, time=36),
    Message('note_on', channel=4, note=65, velocity=91, time=24),
    Message('note_on', channel=4, note=62, velocity=91, time=0),
    Message('note_on', channel=4, note=62, velocity=0, time=24),
    Message('note_on', channel=4, note=65, velocity=0, time=7),
    Message('note_on', channel=4, note=62, velocity=103, time=29),
    Message('note_on', channel=4, note=65, velocity=97, time=0),
    Message('note_on', channel=4, note=62, velocity=0, time=43),
    Message('note_on', channel=4, note=65, velocity=0, time=7),
    Message('note_on', channel=4, note=55, velocity=97, time=10),
    Message('note_on', channel=4, note=55, velocity=0, time=30),
    Message('note_on', channel=4, note=62, velocity=100, time=30),
    Message('note_on', channel=4, note=65, velocity=97, time=0),
    Message('note_on', channel=4, note=62, velocity=0, time=38),
    Message('control_change', channel=4, control=10, value=51, time=3),
    Message('control_change', channel=4, control=10, value=54, time=20),
    Message('note_on', channel=4, note=65, velocity=0, time=11),
    Message('control_change', channel=4, control=10, value=56, time=0),
    Message('control_change', channel=4, control=64, value=0, time=31),
    Message('note_on', channel=4, note=60, velocity=97, time=17),
    Message('control_change', channel=4, control=10, value=58, time=0),
    Message('control_change', channel=4, control=64, value=127, time=38),
    Message('note_on', channel=4, note=64, velocity=82, time=22),
    Message('control_change', channel=4, control=10, value=61, time=7),
    Message('note_on', channel=4, note=60, velocity=0, time=10),
    Message('control_change', channel=4, control=10, value=63, time=20),
    Message('note_on', channel=4, note=64, velocity=0, time=23),
    Message('note_on', channel=4, note=67, velocity=87, time=0),
    Message('control_change', channel=4, control=10, value=65, time=38),
    Message('note_on', channel=4, note=64, velocity=91, time=22),
    Message('note_on', channel=4, note=67, velocity=0, time=14),
    Message('note_on', channel=4, note=64, velocity=0, time=37),
    Message('note_on', channel=4, note=60, velocity=82, time=9),
    Message('control_change', channel=4, control=10, value=68, time=41),
    Message('note_on', channel=4, note=60, velocity=0, time=16),
    Message('note_on', channel=4, note=48, velocity=92, time=3),
    Message('note_on', channel=4, note=48, velocity=0, time=38),
    Message('control_change', channel=4, control=10, value=70, time=10),
    Message('note_on', channel=4, note=67, velocity=88, time=12),
    Message('note_on', channel=4, note=67, velocity=0, time=57),
    Message('note_on', channel=4, note=64, velocity=92, time=3),
    Message('control_change', channel=4, control=10, value=72, time=10),
    Message('note_on', channel=4, note=64, velocity=0, time=42),
    Message('note_on', channel=4, note=60, velocity=97, time=8),
    Message('control_change', channel=4, control=10, value=74, time=19),
    Message('note_on', channel=4, note=60, velocity=0, time=27),
    Message('note_on', channel=4, note=55, velocity=86, time=14),
    Message('note_on', channel=4, note=55, velocity=0, time=31),
    Message('note_on', channel=4, note=67, velocity=74, time=29),
    Message('note_on', channel=4, note=64, velocity=88, time=60),
    Message('note_on', channel=4, note=67, velocity=0, time=26),
    Message('note_on', channel=4, note=55, velocity=91, time=34),
    Message('note_on', channel=4, note=64, velocity=0, time=7),
    Message('note_on', channel=4, note=55, velocity=0, time=28),
    Message('note_on', channel=4, note=67, velocity=97, time=25),
    Message('control_change', channel=4, control=10, value=72, time=40),
    Message('note_on', channel=4, note=64, velocity=93, time=20),
    Message('control_change', channel=4, control=10, value=70, time=0),
    Message('note_on', channel=4, note=67, velocity=0, time=17),
    Message('control_change', channel=4, control=10, value=68, time=22),
    Message('note_on', channel=4, note=64, velocity=0, time=14),
    Message('note_on', channel=4, note=55, velocity=97, time=7),
    Message('note_on', channel=4, note=55, velocity=0, time=38),
    Message('control_change', channel=4, control=10, value=65, time=10),
    Message('note_on', channel=4, note=60, velocity=92, time=12),
    Message('control_change', channel=4, control=10, value=63, time=39),
    Message('note_on', channel=4, note=60, velocity=0, time=13),
    Message('note_on', channel=4, note=64, velocity=93, time=8),
    Message('control_change', channel=4, control=10, value=61, time=0),
    Message('note_on', channel=4, note=64, velocity=0, time=60),
    Message('note_on', channel=4, note=55, velocity=87, time=0),
    Message('control_change', channel=4, control=10, value=58, time=0),
    Message('note_on', channel=4, note=55, velocity=0, time=44),
    Message('note_on', channel=4, note=67, velocity=87, time=16),
    Message('control_change', channel=4, control=10, value=56, time=10),
    Message('note_on', channel=4, note=62, velocity=100, time=50),
    Message('note_on', channel=4, note=67, velocity=0, time=20),
    Message('note_on', channel=4, note=62, velocity=0, time=36),
    Message('note_on', channel=4, note=55, velocity=97, time=4),
    Message('control_change', channel=4, control=10, value=54, time=0),
    Message('control_change', channel=4, control=10, value=51, time=10),
    Message('note_on', channel=4, note=55, velocity=0, time=31),
    Message('note_on', channel=4, note=60, velocity=87, time=19),
    Message('control_change', channel=4, control=10, value=50, time=34),
    Message('note_on', channel=4, note=60, velocity=0, time=18),
    Message('note_on', channel=4, note=64, velocity=97, time=8),
    Message('control_change', channel=4, control=10, value=48, time=40),
    Message('note_on', channel=4, note=55, velocity=93, time=20),
    Message('note_on', channel=4, note=64, velocity=0, time=12),
    Message('note_on', channel=4, note=55, velocity=0, time=25),
    Message('note_on', channel=4, note=67, velocity=92, time=23),
    Message('note_on', channel=4, note=64, velocity=92, time=60),
    Message('note_on', channel=4, note=67, velocity=0, time=27),
    Message('note_on', channel=4, note=60, velocity=93, time=33),
    Message('note_on', channel=4, note=64, velocity=0, time=5),
    Message('note_on', channel=4, note=60, velocity=0, time=51),
    Message('note_on', channel=4, note=67, velocity=91, time=4),
    Message('control_change', channel=4, control=10, value=50, time=19),
    Message('control_change', channel=4, control=10, value=51, time=26),
    Message('note_on', channel=4, note=64, velocity=86, time=15),
    Message('control_change', channel=4, control=10, value=54, time=0),
    Message('note_on', channel=4, note=67, velocity=0, time=16),
    Message('control_change', channel=4, control=10, value=56, time=0),
    Message('control_change', channel=4, control=10, value=58, time=30),
    Message('note_on', channel=4, note=64, velocity=0, time=10),
    Message('note_on', channel=4, note=60, velocity=97, time=4),
    Message('control_change', channel=4, control=10, value=61, time=35),
    Message('note_on', channel=4, note=60, velocity=0, time=17),
    Message('note_on', channel=4, note=50, velocity=87, time=8),
    Message('control_change', channel=4, control=10, value=63, time=0),
    Message('control_change', channel=4, control=64, value=0, time=37),
    Message('note_on', channel=4, note=67, velocity=86, time=23),
    Message('note_on', channel=4, note=50, velocity=0, time=17),
    Message('control_change', channel=4, control=64, value=127, time=9),
    Message('control_change', channel=4, control=10, value=65, time=0),
    Message('note_on', channel=4, note=62, velocity=87, time=34),
    Message('control_change', channel=4, control=10, value=68, time=10),
    Message('note_on', channel=4, note=67, velocity=0, time=26),
    Message('note_on', channel=4, note=62, velocity=0, time=19),
    Message('control_change', channel=4, control=10, value=70, time=0),
    Message('note_on', channel=4, note=50, velocity=75, time=5),
    Message('note_on', channel=4, note=59, velocity=82, time=0),
    Message('control_change', channel=4, control=10, value=72, time=19),
    Message('note_on', channel=4, note=50, velocity=0, time=23),
    Message('control_change', channel=4, control=10, value=74, time=0),
    Message('note_on', channel=4, note=59, velocity=0, time=9),
    Message('note_on', channel=4, note=67, velocity=91, time=9),
    Message('control_change', channel=4, control=10, value=76, time=35),
    Message('control_change', channel=4, control=10, value=78, time=58),
    Message('note_on', channel=4, note=67, velocity=0, time=20),
    Message('note_on', channel=4, note=62, velocity=87, time=7),
    Message('note_on', channel=4, note=59, velocity=92, time=60),
    Message('note_on', channel=4, note=62, velocity=0, time=11),
    Message('note_on', channel=4, note=59, velocity=0, time=44),
    Message('note_on', channel=4, note=55, velocity=97, time=5),
    Message('note_on', channel=4, note=55, velocity=0, time=39),
    Message('control_change', channel=4, control=10, value=76, time=10),
    Message('note_on', channel=4, note=67, velocity=87, time=11),
    Message('control_change', channel=4, control=10, value=74, time=19),
    Message('control_change', channel=4, control=10, value=72, time=22),
    Message('note_on', channel=4, note=62, velocity=92, time=19),
    Message('control_change', channel=4, control=10, value=70, time=0),
    Message('control_change', channel=4, control=10, value=68, time=10),
    Message('note_on', channel=4, note=67, velocity=0, time=15),
    Message('note_on', channel=4, note=62, velocity=0, time=33),
    Message('note_on', channel=4, note=55, velocity=99, time=2),
    Message('control_change', channel=4, control=10, value=65, time=8),
    Message('control_change', channel=4, control=10, value=63, time=22),
    Message('note_on', channel=4, note=55, velocity=0, time=12),
    Message('note_on', channel=4, note=59, velocity=86, time=18),
    Message('control_change', channel=4, control=10, value=61, time=0),
    Message('note_on', channel=4, note=59, velocity=0, time=57),
    Message('note_on', channel=4, note=62, velocity=97, time=3),
    Message('control_change', channel=4, control=10, value=58, time=29),
    Message('note_on', channel=4, note=55, velocity=99, time=31),
    Message('note_on', channel=4, note=62, velocity=0, time=8),
    Message('note_on', channel=4, note=55, velocity=0, time=32),
    Message('note_on', channel=4, note=59, velocity=87, time=20),
    Message('control_change', channel=4, control=10, value=56, time=29),
    Message('note_on', channel=4, note=59, velocity=0, time=16),
    Message('note_on', channel=4, note=67, velocity=66, time=15),
    Message('note_on', channel=4, note=62, velocity=74, time=0),
    Message('control_change', channel=4, control=10, value=54, time=40),
    Message('note_on', channel=4, note=67, velocity=0, time=11),
    Message('note_on', channel=4, note=62, velocity=0, time=9),
    Message('note_on', channel=4, note=55, velocity=99, time=0),
    Message('control_change', channel=4, control=10, value=51, time=8),
    Message('note_on', channel=4, note=55, velocity=0, time=36),
    Message('note_on', channel=4, note=59, velocity=86, time=16),
    Message('note_on', channel=4, note=67, velocity=97, time=0),
    Message('note_on', channel=4, note=62, velocity=97, time=0),
    Message('control_change', channel=4, control=10, value=50, time=11),
    Message('note_on', channel=4, note=59, velocity=0, time=34),
    Message('note_on', channel=4, note=62, velocity=0, time=4),
    Message('note_on', channel=4, note=67, velocity=0, time=1),
    Message('note_on', channel=4, note=55, velocity=97, time=10),
    Message('control_change', channel=4, control=10, value=48, time=28),
    Message('note_on', channel=4, note=55, velocity=0, time=5),
    Message('note_on', channel=4, note=62, velocity=56, time=27),
    Message('note_on', channel=4, note=59, velocity=71, time=0),
    Message('note_on', channel=4, note=62, velocity=0, time=10),
    Message('note_on', channel=4, note=59, velocity=0, time=22),
    Message('note_on', channel=4, note=59, velocity=86, time=28),
    Message('note_on', channel=4, note=62, velocity=99, time=0),
    Message('note_on', channel=4, note=67, velocity=99, time=0),
    Message('note_on', channel=4, note=59, velocity=0, time=47),
    Message('note_on', channel=4, note=62, velocity=0, time=10),
    Message('note_on', channel=4, note=67, velocity=0, time=1),
    Message('note_on', channel=4, note=55, velocity=97, time=2),
    Message('note_on', channel=4, note=55, velocity=0, time=35),
    Message('note_on', channel=4, note=62, velocity=67, time=25),
    Message('note_on', channel=4, note=59, velocity=86, time=0),
    Message('note_on', channel=4, note=62, velocity=0, time=18),
    Message('note_on', channel=4, note=59, velocity=0, time=20),
    Message('note_on', channel=4, note=65, velocity=93, time=22),
    Message('note_on', channel=4, note=62, velocity=86, time=0),
    Message('note_on', channel=4, note=59, velocity=86, time=0),
    Message('control_change', channel=4, control=10, value=50, time=12),
    Message('note_on', channel=4, note=62, velocity=0, time=25),
    Message('note_on', channel=4, note=59, velocity=0, time=8),
    Message('control_change', channel=4, control=10, value=51, time=0),
    Message('note_on', channel=4, note=65, velocity=0, time=8),
    Message('note_on', channel=4, note=55, velocity=91, time=7),
    Message('control_change', channel=4, control=10, value=54, time=0),
    Message('control_change', channel=4, control=10, value=56, time=29),
    Message('note_on', channel=4, note=55, velocity=0, time=9),
    Message('note_on', channel=4, note=65, velocity=97, time=22),
    Message('note_on', channel=4, note=62, velocity=93, time=0),
    Message('note_on', channel=4, note=59, velocity=87, time=0),
    Message('control_change', channel=4, control=10, value=58, time=20),
    Message('note_on', channel=4, note=62, velocity=0, time=6),
    Message('note_on', channel=4, note=59, velocity=0, time=3),
    Message('note_on', channel=4, note=65, velocity=0, time=4),
    Message('note_on', channel=4, note=62, velocity=92, time=27),
    Message('note_on', channel=4, note=59, velocity=87, time=0),
    Message('note_on', channel=4, note=65, velocity=91, time=0),
    Message('note_on', channel=4, note=62, velocity=0, time=47),
    Message('control_change', channel=4, control=10, value=61, time=0),
    Message('note_on', channel=4, note=59, velocity=0, time=4),
    Message('note_on', channel=4, note=65, velocity=0, time=6),
    Message('note_on', channel=4, note=55, velocity=99, time=3),
    Message('control_change', channel=4, control=10, value=63, time=5),
    Message('note_on', channel=4, note=55, velocity=0, time=30),
    Message('note_on', channel=4, note=65, velocity=87, time=25),
    Message('note_on', channel=4, note=59, velocity=80, time=0),
    Message('note_on', channel=4, note=62, velocity=91, time=0),
    Message('control_change', channel=4, control=10, value=65, time=19),
    Message('note_on', channel=4, note=59, velocity=0, time=16),
    Message('note_on', channel=4, note=62, velocity=0, time=3),
    Message('note_on', channel=4, note=65, velocity=0, time=9),
    Message('note_on', channel=4, note=62, velocity=87, time=13),
    Message('note_on', channel=4, note=59, velocity=80, time=0),
    Message('note_on', channel=4, note=65, velocity=86, time=0),
    Message('note_on', channel=4, note=59, velocity=0, time=49),
    Message('note_on', channel=4, note=62, velocity=0, time=6),
    Message('note_on', channel=4, note=65, velocity=0, time=8),
    Message('control_change', channel=4, control=10, value=68, time=30),
    Message('control_change', channel=4, control=10, value=70, time=20),
    Message('note_on', channel=4, note=48, velocity=99, time=7),
    Message('control_change', channel=4, control=10, value=72, time=15),
    Message('control_change', channel=4, control=64, value=0, time=20),
    Message('control_change', channel=4, control=10, value=74, time=10),
    Message('note_on', channel=4, note=60, velocity=93, time=15),
    Message('control_change', channel=4, control=64, value=127, time=32),
    Message('note_on', channel=4, note=48, velocity=0, time=74),
    Message('note_on', channel=4, note=60, velocity=0, time=2),
    Message('note_on', channel=4, note=64, velocity=92, time=12),
    Message('note_on', channel=4, note=67, velocity=97, time=60),
    Message('note_on', channel=4, note=64, velocity=0, time=7),
    Message('note_on', channel=4, note=64, velocity=91, time=53),
    Message('note_on', channel=4, note=67, velocity=0, time=12),
    Message('note_on', channel=4, note=64, velocity=0, time=48),
    Message('note_on', channel=4, note=55, velocity=99, time=0),
    Message('note_on', channel=4, note=55, velocity=0, time=40),
    Message('note_on', channel=4, note=67, velocity=99, time=20),
    Message('note_on', channel=4, note=64, velocity=91, time=60),
    Message('note_on', channel=4, note=67, velocity=0, time=16),
    Message('note_on', channel=4, note=55, velocity=97, time=44),
    Message('note_on', channel=4, note=64, velocity=0, time=5),
    Message('control_change', channel=4, control=10, value=72, time=14),
    Message('note_on', channel=4, note=55, velocity=0, time=26),
    Message('control_change', channel=4, control=10, value=70, time=0),
    Message('note_on', channel=4, note=60, velocity=91, time=15),
    Message('control_change', channel=4, control=10, value=67, time=10),
    Message('note_on', channel=4, note=60, velocity=0, time=46),
    Message('note_on', channel=4, note=64, velocity=91, time=4),
    Message('control_change', channel=4, control=10, value=65, time=0),
    Message('control_change', channel=4, control=10, value=63, time=20),
    Message('note_on', channel=4, note=64, velocity=0, time=25),
    Message('control_change', channel=4, control=10, value=61, time=0),
    Message('note_on', channel=4, note=67, velocity=87, time=15),
    Message('control_change', channel=4, control=10, value=59, time=20),
    Message('note_on', channel=4, note=67, velocity=0, time=39),
    Message('note_on', channel=4, note=64, velocity=87, time=1),
    Message('control_change', channel=4, control=10, value=56, time=0),
    Message('control_change', channel=4, control=10, value=54, time=37),
    Message('note_on', channel=4, note=64, velocity=0, time=14),
    Message('note_on', channel=4, note=55, velocity=97, time=9),
    Message('control_change', channel=4, control=10, value=52, time=20),
    Message('note_on', channel=4, note=55, velocity=0, time=22),
    Message('note_on', channel=4, note=60, velocity=87, time=18),
    Message('control_change', channel=4, control=10, value=51, time=0),
    Message('note_on', channel=4, note=60, velocity=0, time=55),
    Message('note_on', channel=4, note=62, velocity=100, time=5),
    Message('note_on', channel=4, note=55, velocity=97, time=60),
    Message('note_on', channel=4, note=62, velocity=0, time=6),
    Message('note_on', channel=4, note=55, velocity=0, time=35),
    Message('note_on', channel=4, note=67, velocity=87, time=19),
    Message('note_on', channel=4, note=62, velocity=97, time=60),
    Message('note_on', channel=4, note=67, velocity=0, time=30),
    Message('note_on', channel=4, note=62, velocity=0, time=28),
    Message('note_on', channel=4, note=55, velocity=91, time=2),
    Message('note_on', channel=4, note=55, velocity=0, time=39),
    Message('note_on', channel=4, note=67, velocity=87, time=21),
    Message('note_on', channel=4, note=62, velocity=100, time=60),
    Message('note_on', channel=4, note=67, velocity=0, time=32),
    Message('control_change', channel=4, control=10, value=52, time=20),
    Message('note_on', channel=4, note=62, velocity=0, time=6),
    Message('note_on', channel=4, note=55, velocity=92, time=2),
    Message('control_change', channel=4, control=10, value=54, time=8),
    Message('control_change', channel=4, control=10, value=57, time=10),
    Message('note_on', channel=4, note=55, velocity=0, time=24),
    Message('note_on', channel=4, note=67, velocity=87, time=18),
    Message('control_change', channel=4, control=10, value=59, time=0),
    Message('control_change', channel=4, control=10, value=61, time=40),
    Message('note_on', channel=4, note=62, velocity=97, time=20),
    Message('control_change', channel=4, control=10, value=63, time=0),
    Message('control_change', channel=4, control=10, value=65, time=29),
    Message('note_on', channel=4, note=67, velocity=0, time=9),
    Message('note_on', channel=4, note=55, velocity=99, time=22),
    Message('control_change', channel=4, control=10, value=67, time=0),
    Message('note_on', channel=4, note=62, velocity=0, time=6),
    Message('note_on', channel=4, note=55, velocity=0, time=34),
    Message('note_on', channel=4, note=67, velocity=88, time=20),
    Message('note_on', channel=4, note=62, velocity=97, time=60),
    Message('control_change', channel=4, control=10, value=69, time=0),
    Message('note_on', channel=4, note=67, velocity=0, time=24),
    Message('note_on', channel=4, note=62, velocity=0, time=25),
    Message('note_on', channel=4, note=67, velocity=100, time=11),
    Message('control_change', channel=4, control=10, value=71, time=0),
    Message('control_change', channel=4, control=10, value=73, time=46),
    Message('note_on', channel=4, note=67, velocity=0, time=51),
    Message('note_on', channel=4, note=62, velocity=100, time=23),
    Message('control_change', channel=4, control=10, value=75, time=0),
    Message('note_on', channel=4, note=62, velocity=0, time=55),
    Message('note_on', channel=4, note=67, velocity=93, time=5),
    Message('control_change', channel=4, control=64, value=0, time=46),
    Message('note_on', channel=4, note=67, velocity=0, time=9),
    Message('note_on', channel=4, note=55, velocity=97, time=5),
    Message('control_change', channel=4, control=64, value=127, time=46),
    Message('note_on', channel=4, note=59, velocity=92, time=74),
    Message('note_on', channel=4, note=62, velocity=99, time=60),
    Message('note_on', channel=4, note=62, velocity=0, time=41),
    Message('note_on', channel=4, note=67, velocity=87, time=19),
    Message('control_change', channel=4, control=10, value=73, time=0),
    Message('control_change', channel=4, control=10, value=71, time=21),
    Message('note_on', channel=4, note=67, velocity=0, time=22),
    Message('control_change', channel=4, control=10, value=69, time=0),
    Message('note_on', channel=4, note=62, velocity=92, time=17),
    Message('control_change', channel=4, control=10, value=67, time=20),
    Message('note_on', channel=4, note=62, velocity=0, time=19),
    Message('note_on', channel=4, note=67, velocity=87, time=21),
    Message('note_on', channel=4, note=67, velocity=0, time=49),
    Message('control_change', channel=4, control=10, value=65, time=0),
    Message('note_on', channel=4, note=62, velocity=97, time=11),
    Message('control_change', channel=4, control=10, value=63, time=10),
    Message('note_on', channel=4, note=62, velocity=0, time=28),
    Message('control_change', channel=4, control=10, value=61, time=0),
    Message('note_on', channel=4, note=67, velocity=87, time=22),
    Message('note_on', channel=4, note=67, velocity=0, time=43),
    Message('note_on', channel=4, note=62, velocity=93, time=17),
    Message('note_on', channel=4, note=62, velocity=0, time=41),
    Message('control_change', channel=4, control=10, value=59, time=10),
    Message('note_on', channel=4, note=67, velocity=92, time=9),
    Message('note_on', channel=4, note=67, velocity=0, time=45),
    Message('note_on', channel=4, note=62, velocity=97, time=15),
    Message('control_change', channel=4, control=10, value=57, time=30),
    Message('note_on', channel=4, note=62, velocity=0, time=11),
    Message('note_on', channel=4, note=67, velocity=88, time=19),
    Message('control_change', channel=4, control=10, value=55, time=19),
    Message('note_on', channel=4, note=67, velocity=0, time=8),
    Message('note_on', channel=4, note=67, velocity=87, time=33),
    Message('control_change', channel=4, control=10, value=53, time=10),
    Message('note_on', channel=4, note=67, velocity=0, time=33),
    Message('control_change', channel=4, control=10, value=51, time=10),
    Message('note_on', channel=4, note=62, velocity=99, time=7),
    Message('note_on', channel=4, note=62, velocity=0, time=45),
    Message('note_on', channel=4, note=67, velocity=87, time=15),
    Message('note_on', channel=4, note=67, velocity=0, time=36),
    Message('note_on', channel=4, note=62, velocity=97, time=24),
    Message('control_change', channel=4, control=64, value=0, time=15),
    Message('note_on', channel=4, note=62, velocity=0, time=24),
    Message('note_on', channel=4, note=59, velocity=0, time=7),
    Message('note_on', channel=4, note=65, velocity=88, time=14),
    Message('note_on', channel=4, note=55, velocity=0, time=2),
    Message('control_change', channel=4, control=64, value=127, time=11),
    Message('note_on', channel=4, note=65, velocity=0, time=79),
    Message('note_on', channel=4, note=65, velocity=97, time=28),
    Message('note_on', channel=4, note=65, velocity=0, time=52),
    Message('note_on', channel=4, note=65, velocity=93, time=68),
    Message('note_on', channel=4, note=65, velocity=0, time=53),
    Message('note_on', channel=4, note=60, velocity=92, time=7),
    Message('note_on', channel=4, note=60, velocity=0, time=51),
    Message('note_on', channel=4, note=65, velocity=86, time=9),
    Message('note_on', channel=4, note=65, velocity=0, time=41),
    Message('note_on', channel=4, note=67, velocity=93, time=19),
    Message('note_on', channel=4, note=65, velocity=88, time=60),
    Message('note_on', channel=4, note=67, velocity=0, time=13),
    Message('note_on', channel=4, note=65, velocity=0, time=34),
    Message('note_on', channel=4, note=60, velocity=92, time=13),
    Message('note_on', channel=4, note=60, velocity=0, time=48),
    Message('note_on', channel=4, note=55, velocity=97, time=12),
    Message('note_on', channel=4, note=55, velocity=0, time=45),
    Message('control_change', channel=4, control=10, value=53, time=0),
    Message('note_on', channel=4, note=67, velocity=93, time=15),
    Message('control_change', channel=4, control=10, value=55, time=9),
    Message('note_on', channel=4, note=65, velocity=97, time=51),
    Message('note_on', channel=4, note=67, velocity=0, time=27),
    Message('note_on', channel=4, note=65, velocity=0, time=33),
    Message('note_on', channel=4, note=60, velocity=93, time=0),
    Message('control_change', channel=4, control=10, value=57, time=35),
    Message('note_on', channel=4, note=60, velocity=0, time=15),
    Message('note_on', channel=4, note=60, velocity=97, time=70),
    Message('control_change', channel=4, control=64, value=0, time=4),
    Message('control_change', channel=4, control=64, value=127, time=49),
    Message('note_on', channel=4, note=48, velocity=86, time=7),
    Message('note_on', channel=4, note=60, velocity=0, time=13),
    Message('control_change', channel=4, control=10, value=59, time=0),
    Message('note_on', channel=4, note=48, velocity=0, time=32),
    Message('control_change', channel=4, control=10, value=61, time=5),
    Message('note_on', channel=4, note=64, velocity=91, time=10),
    Message('note_on', channel=4, note=67, velocity=88, time=60),
    Message('note_on', channel=4, note=64, velocity=0, time=6),
    Message('note_on', channel=4, note=64, velocity=92, time=54),
    Message('note_on', channel=4, note=67, velocity=0, time=10),
    Message('note_on', channel=4, note=64, velocity=0, time=41),
    Message('note_on', channel=4, note=48, velocity=93, time=9),
    Message('note_on', channel=4, note=48, velocity=0, time=43),
    Message('note_on', channel=4, note=60, velocity=87, time=17),
    Message('note_on', channel=4, note=60, velocity=0, time=54),
    Message('note_on', channel=4, note=64, velocity=93, time=6),
    Message('note_on', channel=4, note=64, velocity=0, time=50),
    Message('note_on', channel=4, note=67, velocity=92, time=10),
    Message('note_on', channel=4, note=67, velocity=0, time=59),
    Message('note_on', channel=4, note=55, velocity=93, time=1),
    Message('note_on', channel=4, note=55, velocity=0, time=37),
    Message('note_on', channel=4, note=60, velocity=87, time=23),
    Message('note_on', channel=4, note=60, velocity=0, time=53),
    Message('note_on', channel=4, note=64, velocity=92, time=7),
    Message('note_on', channel=4, note=55, velocity=87, time=60),
    Message('note_on', channel=4, note=64, velocity=0, time=2),
    Message('note_on', channel=4, note=55, velocity=0, time=34),
    Message('note_on', channel=4, note=67, velocity=86, time=24),
    Message('note_on', channel=4, note=64, velocity=87, time=60),
    Message('note_on', channel=4, note=67, velocity=0, time=11),
    Message('note_on', channel=4, note=55, velocity=92, time=49),
    Message('note_on', channel=4, note=64, velocity=0, time=10),
    Message('note_on', channel=4, note=55, velocity=0, time=33),
    Message('note_on', channel=4, note=60, velocity=91, time=17),
    Message('note_on', channel=4, note=60, velocity=0, time=39),
    Message('note_on', channel=4, note=62, velocity=87, time=21),
    Message('note_on', channel=4, note=62, velocity=0, time=54),
    Message('note_on', channel=4, note=64, velocity=88, time=6),
    Message('note_on', channel=4, note=62, velocity=100, time=60),
    Message('note_on', channel=4, note=64, velocity=0, time=13),
    Message('note_on', channel=4, note=62, velocity=0, time=39),
    Message('note_on', channel=4, note=55, velocity=86, time=8),
    Message('note_on', channel=4, note=55, velocity=0, time=42),
    Message('note_on', channel=4, note=64, velocity=83, time=18),
    Message('note_on', channel=4, note=62, velocity=97, time=60),
    Message('note_on', channel=4, note=64, velocity=0, time=24),
    Message('note_on', channel=4, note=62, velocity=0, time=28),
    Message('note_on', channel=4, note=55, velocity=87, time=8),
    Message('note_on', channel=4, note=55, velocity=0, time=45),
    Message('note_on', channel=4, note=64, velocity=99, time=15),
    Message('note_on', channel=4, note=62, velocity=103, time=60),
    Message('note_on', channel=4, note=64, velocity=0, time=35),
    Message('note_on', channel=4, note=62, velocity=0, time=24),
    Message('note_on', channel=4, note=55, velocity=97, time=1),
    Message('note_on', channel=4, note=55, velocity=0, time=45),
    Message('note_on', channel=4, note=64, velocity=97, time=15),
    Message('note_on', channel=4, note=62, velocity=97, time=60),
    Message('note_on', channel=4, note=64, velocity=0, time=16),
    Message('note_on', channel=4, note=62, velocity=0, time=36),
    Message('note_on', channel=4, note=64, velocity=87, time=8),
    Message('note_on', channel=4, note=62, velocity=99, time=60),
    Message('note_on', channel=4, note=64, velocity=0, time=19),
    Message('note_on', channel=4, note=64, velocity=93, time=41),
    Message('note_on', channel=4, note=62, velocity=0, time=3),
    Message('note_on', channel=4, note=64, velocity=0, time=47),
    Message('control_change', channel=4, control=64, value=0, time=6),
    Message('note_on', channel=4, note=55, velocity=97, time=4),
    Message('control_change', channel=4, control=64, value=127, time=50),
    Message('note_on', channel=4, note=59, velocity=97, time=70),
    Message('note_on', channel=4, note=62, velocity=103, time=60),
    Message('note_on', channel=4, note=62, velocity=0, time=47),
    Message('note_on', channel=4, note=67, velocity=99, time=13),
    Message('note_on', channel=4, note=67, velocity=0, time=39),
    Message('note_on', channel=4, note=62, velocity=99, time=21),
    Message('note_on', channel=4, note=62, velocity=0, time=49),
    Message('note_on', channel=4, note=67, velocity=97, time=11),
    Message('note_on', channel=4, note=64, velocity=80, time=60),
    Message('note_on', channel=4, note=67, velocity=0, time=26),
    Message('note_on', channel=4, note=64, velocity=0, time=4),
    Message('note_on', channel=4, note=62, velocity=100, time=30),
    Message('note_on', channel=4, note=62, velocity=0, time=46),
    Message('note_on', channel=4, note=67, velocity=97, time=14),
    Message('note_on', channel=4, note=67, velocity=0, time=54),
    Message('note_on', channel=4, note=64, velocity=97, time=6),
    Message('note_on', channel=4, note=64, velocity=0, time=42),
    Message('note_on', channel=4, note=62, velocity=99, time=18),
    Message('note_on', channel=4, note=62, velocity=0, time=44),
    Message('note_on', channel=4, note=67, velocity=103, time=16),
    Message('note_on', channel=4, note=64, velocity=97, time=60),
    Message('note_on', channel=4, note=67, velocity=0, time=1),
    Message('note_on', channel=4, note=64, velocity=0, time=44),
    Message('note_on', channel=4, note=62, velocity=97, time=15),
    Message('note_on', channel=4, note=62, velocity=0, time=42),
    Message('note_on', channel=4, note=67, velocity=97, time=18),
    Message('note_on', channel=4, note=67, velocity=0, time=36),
    Message('note_on', channel=4, note=65, velocity=100, time=24),
    Message('control_change', channel=4, control=64, value=0, time=14),
    Message('note_on', channel=4, note=65, velocity=0, time=38),
    Message('note_on', channel=4, note=62, velocity=86, time=8),
    Message('control_change', channel=4, control=64, value=127, time=10),
    Message('note_on', channel=4, note=62, velocity=0, time=28),
    Message('note_on', channel=4, note=65, velocity=97, time=22),
    Message('note_on', channel=4, note=65, velocity=0, time=43),
    Message('note_on', channel=4, note=62, velocity=86, time=17),
    Message('note_on', channel=4, note=62, velocity=0, time=28),
    Message('note_on', channel=4, note=67, velocity=99, time=32),
    Message('note_on', channel=4, note=67, velocity=0, time=44),
    Message('note_on', channel=4, note=59, velocity=0, time=15),
    Message('note_on', channel=4, note=67, velocity=83, time=1),
    Message('note_on', channel=4, note=55, velocity=0, time=14),
    Message('note_on', channel=4, note=67, velocity=0, time=23),
    Message('note_on', channel=4, note=67, velocity=100, time=23),
    Message('note_on', channel=4, note=67, velocity=0, time=30),
    Message('note_on', channel=4, note=67, velocity=103, time=30),
    Message('note_on', channel=4, note=67, velocity=0, time=53),
    Message('note_on', channel=4, note=67, velocity=93, time=67),
    Message('note_on', channel=4, note=65, velocity=97, time=60),
    Message('note_on', channel=4, note=67, velocity=0, time=19),
    Message('note_on', channel=4, note=65, velocity=0, time=26),
    Message('note_on', channel=4, note=53, velocity=87, time=15),
    Message('note_on', channel=4, note=53, velocity=0, time=49),
    Message('note_on', channel=4, note=67, velocity=93, time=11),
    Message('note_on', channel=4, note=65, velocity=100, time=60),
    Message('note_on', channel=4, note=67, velocity=0, time=24),
    Message('note_on', channel=4, note=65, velocity=0, time=20),
    Message('note_on', channel=4, note=53, velocity=97, time=16),
    Message('note_on', channel=4, note=53, velocity=0, time=56),
    Message('note_on', channel=4, note=60, velocity=97, time=4),
    Message('note_on', channel=4, note=60, velocity=0, time=44),
    Message('control_change', channel=4, control=64, value=0, time=9),
    Message('note_on', channel=4, note=64, velocity=93, time=7),
    Message('control_change', channel=4, control=64, value=127, time=44),
    Message('note_on', channel=4, note=67, velocity=86, time=16),
    Message('note_on', channel=4, note=64, velocity=0, time=22),
    Message('note_on', channel=4, note=64, velocity=66, time=38),
    Message('note_on', channel=4, note=48, velocity=87, time=0),
    Message('note_on', channel=4, note=64, velocity=0, time=21),
    Message('note_on', channel=4, note=67, velocity=0, time=10),
    Message('note_on', channel=4, note=48, velocity=0, time=12),
    Message('note_on', channel=4, note=60, velocity=97, time=17),
    Message('note_on', channel=4, note=64, velocity=86, time=60),
    Message('note_on', channel=4, note=60, velocity=0, time=13),
    Message('note_on', channel=4, note=64, velocity=0, time=37),
    Message('note_on', channel=4, note=48, velocity=92, time=10),
    Message('note_on', channel=4, note=48, velocity=0, time=44),
    Message('note_on', channel=4, note=67, velocity=87, time=16),
    Message('note_on', channel=4, note=64, velocity=93, time=60),
    Message('note_on', channel=4, note=67, velocity=0, time=15),
    Message('note_on', channel=4, note=64, velocity=0, time=35),
    Message('note_on', channel=4, note=60, velocity=91, time=10),
    Message('note_on', channel=4, note=60, velocity=0, time=49),
    Message('note_on', channel=4, note=64, velocity=91, time=11),
    Message('note_on', channel=4, note=64, velocity=0, time=47),
    Message('note_on', channel=4, note=67, velocity=86, time=13),
    Message('note_on', channel=4, note=67, velocity=0, time=58),
    Message('note_on', channel=4, note=64, velocity=88, time=2),
    Message('note_on', channel=4, note=64, velocity=0, time=52),
    Message('note_on', channel=4, note=55, velocity=100, time=8),
    Message('note_on', channel=4, note=55, velocity=0, time=40),
    Message('note_on', channel=4, note=60, velocity=82, time=20),
    Message('note_on', channel=4, note=60, velocity=0, time=41),
    Message('note_on', channel=4, note=64, velocity=93, time=19),
    Message('note_on', channel=4, note=64, velocity=0, time=58),
    Message('note_on', channel=4, note=55, velocity=97, time=2),
    Message('note_on', channel=4, note=55, velocity=0, time=41),
    Message('note_on', channel=4, note=60, velocity=93, time=19),
    Message('note_on', channel=4, note=60, velocity=0, time=40),
    Message('note_on', channel=4, note=62, velocity=88, time=20),
    Message('note_on', channel=4, note=62, velocity=0, time=54),
    Message('note_on', channel=4, note=55, velocity=97, time=6),
    Message('note_on', channel=4, note=55, velocity=0, time=41),
    Message('note_on', channel=4, note=64, velocity=97, time=19),
    Message('note_on', channel=4, note=62, velocity=97, time=60),
    Message('note_on', channel=4, note=64, velocity=0, time=22),
    Message('note_on', channel=4, note=62, velocity=0, time=28),
    Message('note_on', channel=4, note=55, velocity=91, time=10),
    Message('note_on', channel=4, note=55, velocity=0, time=42),
    Message('note_on', channel=4, note=60, velocity=88, time=18),
    Message('note_on', channel=4, note=60, velocity=0, time=48),
    Message('note_on', channel=4, note=62, velocity=99, time=12),
    Message('note_on', channel=4, note=62, velocity=0, time=57),
    Message('note_on', channel=4, note=55, velocity=97, time=3),
    Message('note_on', channel=4, note=55, velocity=0, time=42),
    Message('note_on', channel=4, note=64, velocity=92, time=18),
    Message('note_on', channel=4, note=62, velocity=92, time=60),
    Message('note_on', channel=4, note=64, velocity=0, time=39),
    Message('note_on', channel=4, note=55, velocity=100, time=21),
    Message('note_on', channel=4, note=62, velocity=0, time=13),
    Message('note_on', channel=4, note=55, velocity=0, time=29),
    Message('note_on', channel=4, note=60, velocity=92, time=18),
    Message('note_on', channel=4, note=60, velocity=0, time=51),
    Message('note_on', channel=4, note=62, velocity=88, time=9),
    Message('note_on', channel=4, note=62, velocity=0, time=43),
    Message('note_on', channel=4, note=64, velocity=75, time=17),
    Message('note_on', channel=4, note=62, velocity=99, time=60),
    Message('note_on', channel=4, note=64, velocity=0, time=13),
    Message('note_on', channel=4, note=62, velocity=0, time=28),
    Message('note_on', channel=4, note=59, velocity=103, time=19),
    Message('note_on', channel=4, note=55, velocity=104, time=0),
    Message('note_on', channel=4, note=52, velocity=103, time=0),
    Message('control_change', channel=4, control=64, value=0, time=15),
    Message('note_on', channel=4, note=59, velocity=0, time=681),
    Message('note_on', channel=4, note=55, velocity=0, time=4),
    Message('note_on', channel=4, note=52, velocity=0, time=4),
    MetaMessage('end_of_track', time=0)]),
  MidiTrack([
    MetaMessage('midi_port', port=0, time=0),
    MetaMessage('track_name', name='Lead Guitar', time=0),
    Message('control_change', channel=5, control=0, value=8, time=0),
    Message('program_change', channel=5, program=6, time=0),
    Message('control_change', channel=5, control=7, value=98, time=0),
    Message('control_change', channel=5, control=10, value=14, time=0),
    Message('control_change', channel=5, control=93, value=75, time=950),
    Message('note_on', channel=5, note=59, velocity=95, time=10),
    Message('note_on', channel=5, note=62, velocity=113, time=0),
    Message('note_on', channel=5, note=67, velocity=105, time=0),
    Message('note_on', channel=5, note=59, velocity=0, time=1795),
    Message('note_on', channel=5, note=67, velocity=0, time=13),
    Message('note_on', channel=5, note=62, velocity=0, time=4),
    Message('note_on', channel=5, note=64, velocity=110, time=108),
    Message('note_on', channel=5, note=60, velocity=105, time=0),
    Message('note_on', channel=5, note=67, velocity=102, time=0),
    Message('note_on', channel=5, note=60, velocity=0, time=895),
    Message('note_on', channel=5, note=64, velocity=0, time=13),
    Message('note_on', channel=5, note=67, velocity=0, time=1),
    Message('note_on', channel=5, note=67, velocity=102, time=51),
    Message('note_on', channel=5, note=57, velocity=105, time=0),
    Message('note_on', channel=5, note=64, velocity=105, time=0),
    Message('note_on', channel=5, note=57, velocity=0, time=854),
    Message('note_on', channel=5, note=67, velocity=0, time=20),
    Message('note_on', channel=5, note=64, velocity=0, time=6),
    Message('note_on', channel=5, note=59, velocity=105, time=80),
    Message('note_on', channel=5, note=62, velocity=110, time=0),
    Message('note_on', channel=5, note=67, velocity=105, time=0),
    Message('note_on', channel=5, note=59, velocity=0, time=1816),
    Message('note_on', channel=5, note=62, velocity=0, time=8),
    Message('note_on', channel=5, note=67, velocity=0, time=10),
    Message('note_on', channel=5, note=64, velocity=110, time=86),
    Message('note_on', channel=5, note=60, velocity=105, time=0),
    Message('note_on', channel=5, note=67, velocity=102, time=0),
    Message('note_on', channel=5, note=60, velocity=0, time=877),
    Message('note_on', channel=5, note=67, velocity=0, time=10),
    Message('note_on', channel=5, note=64, velocity=0, time=1),
    Message('note_on', channel=5, note=64, velocity=116, time=72),
    Message('note_on', channel=5, note=67, velocity=107, time=0),
    Message('note_on', channel=5, note=57, velocity=102, time=0),
    Message('note_on', channel=5, note=64, velocity=0, time=814),
    Message('note_on', channel=5, note=67, velocity=0, time=6),
    Message('note_on', channel=5, note=57, velocity=0, time=4),
    Message('pitchwheel', channel=5, pitch=-844, time=94),
    Message('pitchwheel', channel=5, pitch=-2702, time=7),
    Message('pitchwheel', channel=5, pitch=-4897, time=9),
    Message('pitchwheel', channel=5, pitch=-6755, time=8),
    Message('pitchwheel', channel=5, pitch=-7937, time=8),
    Message('pitchwheel', channel=5, pitch=-8192, time=8),
    Message('note_on', channel=5, note=62, velocity=113, time=2),
    Message('note_on', channel=5, note=59, velocity=118, time=0),
    Message('pitchwheel', channel=5, pitch=-8106, time=63),
    Message('pitchwheel', channel=5, pitch=-7262, time=9),
    Message('pitchwheel', channel=5, pitch=-6164, time=8),
    Message('pitchwheel', channel=5, pitch=-4982, time=8),
    Message('pitchwheel', channel=5, pitch=-3969, time=8),
    Message('pitchwheel', channel=5, pitch=-3124, time=8),
    Message('pitchwheel', channel=5, pitch=-2280, time=8),
    Message('pitchwheel', channel=5, pitch=-1520, time=8),
    Message('pitchwheel', channel=5, pitch=-844, time=8),
    Message('pitchwheel', channel=5, pitch=-169, time=8),
    Message('pitchwheel', channel=5, pitch=0, time=8),
    Message('note_on', channel=5, note=59, velocity=0, time=284),
    Message('note_on', channel=5, note=62, velocity=0, time=10),
    Message('pitchwheel', channel=5, pitch=-1604, time=17),
    Message('pitchwheel', channel=5, pitch=-3715, time=8),
    Message('pitchwheel', channel=5, pitch=-5573, time=9),
    Message('pitchwheel', channel=5, pitch=-6924, time=7),
    Message('note_on', channel=5, note=62, velocity=113, time=1),
    Message('note_on', channel=5, note=59, velocity=118, time=0),
    Message('pitchwheel', channel=5, pitch=-7853, time=10),
    Message('pitchwheel', channel=5, pitch=-7684, time=24),
    Message('pitchwheel', channel=5, pitch=-6924, time=8),
    Message('pitchwheel', channel=5, pitch=-5911, time=8),
    Message('pitchwheel', channel=5, pitch=-5235, time=8),
    Message('pitchwheel', channel=5, pitch=-4391, time=9),
    Message('pitchwheel', channel=5, pitch=-3715, time=7),
    Message('pitchwheel', channel=5, pitch=-3209, time=9),
    Message('pitchwheel', channel=5, pitch=-2449, time=8),
    Message('pitchwheel', channel=5, pitch=-1520, time=7),
    Message('pitchwheel', channel=5, pitch=-422, time=9),
    Message('pitchwheel', channel=5, pitch=0, time=8),
    Message('note_on', channel=5, note=62, velocity=0, time=178),
    Message('note_on', channel=5, note=59, velocity=0, time=22),
    Message('note_on', channel=5, note=62, velocity=110, time=45),
    Message('note_on', channel=5, note=59, velocity=118, time=0),
    Message('note_on', channel=5, note=62, velocity=0, time=148),
    Message('note_on', channel=5, note=60, velocity=116, time=92),
    Message('note_on', channel=5, note=57, velocity=118, time=0),
    Message('note_on', channel=5, note=59, velocity=0, time=31),
    Message('note_on', channel=5, note=60, velocity=0, time=52),
    Message('note_on', channel=5, note=59, velocity=102, time=37),
    Message('note_on', channel=5, note=55, velocity=118, time=0),
    Message('note_on', channel=5, note=57, velocity=0, time=6),
    Message('note_on', channel=5, note=59, velocity=0, time=70),
    Message('note_on', channel=5, note=57, velocity=98, time=44),
    Message('note_on', channel=5, note=52, velocity=118, time=0),
    Message('note_on', channel=5, note=55, velocity=0, time=33),
    Message('note_on', channel=5, note=57, velocity=0, time=67),
    Message('note_on', channel=5, note=55, velocity=100, time=20),
    Message('note_on', channel=5, note=50, velocity=118, time=0),
    Message('note_on', channel=5, note=52, velocity=0, time=19),
    Message('note_on', channel=5, note=50, velocity=0, time=101),
    Message('note_on', channel=5, note=52, velocity=100, time=0),
    Message('note_on', channel=5, note=47, velocity=118, time=0),
    Message('note_on', channel=5, note=55, velocity=0, time=4),
    Message('note_on', channel=5, note=47, velocity=0, time=82),
    Message('note_on', channel=5, note=52, velocity=0, time=2),
    Message('note_on', channel=5, note=50, velocity=85, time=32),
    Message('note_on', channel=5, note=45, velocity=118, time=0),
    Message('note_on', channel=5, note=50, velocity=0, time=68),
    Message('note_on', channel=5, note=45, velocity=0, time=11),
    Message('note_on', channel=5, note=47, velocity=105, time=41),
    Message('note_on', channel=5, note=43, velocity=118, time=0),
    Message('note_on', channel=5, note=47, velocity=0, time=1747),
    Message('note_on', channel=5, note=43, velocity=0, time=9),
    Message('note_on', channel=5, note=62, velocity=113, time=21404),
    Message('note_on', channel=5, note=59, velocity=118, time=0),
    Message('pitchwheel', channel=5, pitch=-8106, time=63),
    Message('pitchwheel', channel=5, pitch=-7262, time=9),
    Message('pitchwheel', channel=5, pitch=-6164, time=8),
    Message('pitchwheel', channel=5, pitch=-4982, time=8),
    Message('pitchwheel', channel=5, pitch=-3969, time=8),
    Message('pitchwheel', channel=5, pitch=-3124, time=8),
    Message('pitchwheel', channel=5, pitch=-2280, time=8),
    Message('pitchwheel', channel=5, pitch=-1520, time=8),
    Message('pitchwheel', channel=5, pitch=-844, time=8),
    Message('pitchwheel', channel=5, pitch=-169, time=8),
    Message('pitchwheel', channel=5, pitch=0, time=8),
    Message('note_on', channel=5, note=59, velocity=0, time=284),
    Message('note_on', channel=5, note=62, velocity=0, time=10),
    Message('pitchwheel', channel=5, pitch=-1604, time=17),
    Message('pitchwheel', channel=5, pitch=-3715, time=8),
    Message('pitchwheel', channel=5, pitch=-5573, time=9),
    Message('pitchwheel', channel=5, pitch=-6924, time=7),
    Message('note_on', channel=5, note=62, velocity=113, time=1),
    Message('note_on', channel=5, note=59, velocity=118, time=0),
    Message('pitchwheel', channel=5, pitch=-7853, time=10),
    Message('pitchwheel', channel=5, pitch=-7684, time=24),
    Message('pitchwheel', channel=5, pitch=-6924, time=8),
    Message('pitchwheel', channel=5, pitch=-5911, time=8),
    Message('pitchwheel', channel=5, pitch=-5235, time=8),
    Message('pitchwheel', channel=5, pitch=-4391, time=9),
    Message('pitchwheel', channel=5, pitch=-3715, time=7),
    Message('pitchwheel', channel=5, pitch=-3209, time=9),
    Message('pitchwheel', channel=5, pitch=-2449, time=8),
    Message('pitchwheel', channel=5, pitch=-1520, time=7),
    Message('pitchwheel', channel=5, pitch=-422, time=9),
    Message('pitchwheel', channel=5, pitch=0, time=8),
    Message('note_on', channel=5, note=62, velocity=0, time=178),
    Message('note_on', channel=5, note=59, velocity=0, time=22),
    Message('note_on', channel=5, note=62, velocity=110, time=45),
    Message('note_on', channel=5, note=59, velocity=118, time=0),
    Message('note_on', channel=5, note=62, velocity=0, time=148),
    Message('note_on', channel=5, note=60, velocity=116, time=92),
    Message('note_on', channel=5, note=57, velocity=118, time=0),
    Message('note_on', channel=5, note=59, velocity=0, time=31),
    Message('note_on', channel=5, note=60, velocity=0, time=52),
    Message('note_on', channel=5, note=59, velocity=102, time=37),
    Message('note_on', channel=5, note=55, velocity=118, time=0),
    Message('note_on', channel=5, note=57, velocity=0, time=6),
    Message('note_on', channel=5, note=59, velocity=0, time=70),
    Message('note_on', channel=5, note=57, velocity=98, time=44),
    Message('note_on', channel=5, note=52, velocity=118, time=0),
    Message('note_on', channel=5, note=55, velocity=0, time=33),
    Message('note_on', channel=5, note=57, velocity=0, time=67),
    Message('note_on', channel=5, note=55, velocity=100, time=20),
    Message('note_on', channel=5, note=50, velocity=118, time=0),
    Message('note_on', channel=5, note=52, velocity=0, time=19),
    Message('note_on', channel=5, note=50, velocity=0, time=101),
    Message('note_on', channel=5, note=52, velocity=100, time=0),
    Message('note_on', channel=5, note=47, velocity=118, time=0),
    Message('note_on', channel=5, note=55, velocity=0, time=4),
    Message('note_on', channel=5, note=47, velocity=0, time=82),
    Message('note_on', channel=5, note=52, velocity=0, time=2),
    Message('note_on', channel=5, note=50, velocity=85, time=32),
    Message('note_on', channel=5, note=45, velocity=118, time=0),
    Message('note_on', channel=5, note=50, velocity=0, time=68),
    Message('note_on', channel=5, note=45, velocity=0, time=11),
    Message('note_on', channel=5, note=47, velocity=105, time=41),
    Message('note_on', channel=5, note=43, velocity=118, time=0),
    Message('note_on', channel=5, note=47, velocity=0, time=1747),
    Message('note_on', channel=5, note=43, velocity=0, time=9),
    Message('note_on', channel=5, note=52, velocity=107, time=6164),
    Message('note_on', channel=5, note=40, velocity=89, time=120),
    Message('note_on', channel=5, note=52, velocity=0, time=12),
    Message('note_on', channel=5, note=40, velocity=0, time=88),
    Message('note_on', channel=5, note=52, velocity=100, time=140),
    Message('note_on', channel=5, note=40, velocity=82, time=120),
    Message('note_on', channel=5, note=52, velocity=0, time=26),
    Message('note_on', channel=5, note=40, velocity=0, time=70),
    Message('note_on', channel=5, note=52, velocity=89, time=24),
    Message('note_on', channel=5, note=52, velocity=0, time=114),
    Message('note_on', channel=5, note=50, velocity=93, time=6),
    Message('note_on', channel=5, note=50, velocity=0, time=385),
    Message('note_on', channel=5, note=50, velocity=98, time=95),
    Message('note_on', channel=5, note=50, velocity=0, time=52),
    Message('note_on', channel=5, note=50, velocity=110, time=188),
    Message('note_on', channel=5, note=50, velocity=0, time=170),
    Message('note_on', channel=5, note=50, velocity=87, time=70),
    Message('note_on', channel=5, note=50, velocity=0, time=105),
    Message('note_on', channel=5, note=48, velocity=87, time=15),
    Message('note_on', channel=5, note=48, velocity=0, time=288),
    Message('note_on', channel=5, note=48, velocity=100, time=72),
    Message('note_on', channel=5, note=48, velocity=0, time=85),
    Message('note_on', channel=5, note=48, velocity=100, time=155),
    Message('note_on', channel=5, note=50, velocity=80, time=120),
    Message('note_on', channel=5, note=48, velocity=0, time=5),
    Message('note_on', channel=5, note=50, velocity=0, time=115),
    Message('note_on', channel=5, note=48, velocity=82, time=0),
    Message('note_on', channel=5, note=48, velocity=0, time=114),
    Message('note_on', channel=5, note=43, velocity=102, time=6),
    Message('note_on', channel=5, note=43, velocity=0, time=360),
    Message('note_on', channel=5, note=55, velocity=100, time=0),
    Message('note_on', channel=5, note=43, velocity=87, time=240),
    Message('note_on', channel=5, note=55, velocity=0, time=17),
    Message('note_on', channel=5, note=43, velocity=0, time=77),
    Message('note_on', channel=5, note=55, velocity=66, time=26),
    Message('note_on', channel=5, note=55, velocity=0, time=136),
    Message('note_on', channel=5, note=59, velocity=120, time=3824),
    Message('pitchwheel', channel=5, pitch=-1942, time=0),
    Message('pitchwheel', channel=5, pitch=-3715, time=10),
    Message('pitchwheel', channel=5, pitch=-5488, time=9),
    Message('pitchwheel', channel=5, pitch=-6586, time=8),
    Message('pitchwheel', channel=5, pitch=-7008, time=8),
    Message('pitchwheel', channel=5, pitch=-6924, time=40),
    Message('pitchwheel', channel=5, pitch=-6248, time=9),
    Message('pitchwheel', channel=5, pitch=-5573, time=8),
    Message('pitchwheel', channel=5, pitch=-4813, time=8),
    Message('pitchwheel', channel=5, pitch=-4306, time=8),
    Message('pitchwheel', channel=5, pitch=-3631, time=8),
    Message('pitchwheel', channel=5, pitch=-2955, time=4),
    Message('pitchwheel', channel=5, pitch=-2449, time=12),
    Message('pitchwheel', channel=5, pitch=-1858, time=11),
    Message('pitchwheel', channel=5, pitch=-1520, time=7),
    Message('pitchwheel', channel=5, pitch=-1267, time=9),
    Message('pitchwheel', channel=5, pitch=-1013, time=8),
    Message('pitchwheel', channel=5, pitch=-422, time=8),
    Message('pitchwheel', channel=5, pitch=0, time=8),
    Message('note_on', channel=5, note=67, velocity=120, time=57),
    Message('note_on', channel=5, note=62, velocity=120, time=0),
    Message('note_on', channel=5, note=71, velocity=120, time=0),
    Message('note_on', channel=5, note=59, velocity=0, time=27),
    Message('note_on', channel=5, note=59, velocity=120, time=213),
    Message('note_on', channel=5, note=62, velocity=0, time=7),
    Message('note_on', channel=5, note=67, velocity=0, time=11),
    Message('note_on', channel=5, note=71, velocity=0, time=5),
    Message('note_on', channel=5, note=67, velocity=120, time=97),
    Message('note_on', channel=5, note=62, velocity=120, time=0),
    Message('note_on', channel=5, note=71, velocity=120, time=0),
    Message('note_on', channel=5, note=59, velocity=0, time=29),
    Message('control_change', channel=5, control=64, value=127, time=206),
    Message('note_on', channel=5, note=59, velocity=120, time=5),
    Message('note_on', channel=5, note=62, velocity=0, time=11),
    Message('note_on', channel=5, note=71, velocity=0, time=1),
    Message('note_on', channel=5, note=67, velocity=0, time=4),
    Message('note_on', channel=5, note=59, velocity=0, time=54),
    Message('note_on', channel=5, note=64, velocity=120, time=50),
    Message('control_change', channel=5, control=64, value=0, time=2),
    Message('control_change', channel=5, control=64, value=127, time=170),
    Message('note_on', channel=5, note=64, velocity=0, time=15),
    Message('note_on', channel=5, note=64, velocity=120, time=53),
    Message('note_on', channel=5, note=64, velocity=0, time=108),
    Message('note_on', channel=5, note=67, velocity=120, time=12),
    Message('note_on', channel=5, note=62, velocity=120, time=0),
    Message('note_on', channel=5, note=71, velocity=120, time=0),
    Message('control_change', channel=5, control=64, value=0, time=0),
    Message('note_on', channel=5, note=71, velocity=0, time=93),
    Message('note_on', channel=5, note=67, velocity=0, time=4),
    Message('control_change', channel=5, control=64, value=127, time=137),
    Message('note_on', channel=5, note=62, velocity=0, time=4),
    Message('note_on', channel=5, note=59, velocity=120, time=2),
    Message('note_on', channel=5, note=59, velocity=0, time=69),
    Message('note_on', channel=5, note=57, velocity=120, time=51),
    Message('control_change', channel=5, control=64, value=0, time=57),
    Message('note_on', channel=5, note=57, velocity=0, time=17),
    Message('note_on', channel=5, note=55, velocity=120, time=46),
    Message('note_on', channel=5, note=55, velocity=0, time=170),
    Message('pitchwheel', channel=5, pitch=-1098, time=47),
    Message('pitchwheel', channel=5, pitch=-2449, time=8),
    Message('pitchwheel', channel=5, pitch=-2786, time=9),
    Message('note_on', channel=5, note=59, velocity=120, time=6),
    Message('pitchwheel', channel=5, pitch=-3715, time=0),
    Message('pitchwheel', channel=5, pitch=-5573, time=13),
    Message('pitchwheel', channel=5, pitch=-8192, time=9),
    Message('pitchwheel', channel=5, pitch=-7684, time=64),
    Message('pitchwheel', channel=5, pitch=-4982, time=9),
    Message('pitchwheel', channel=5, pitch=-1435, time=7),
    Message('pitchwheel', channel=5, pitch=0, time=9),
    Message('note_on', channel=5, note=59, velocity=0, time=92),
    Message('note_on', channel=5, note=59, velocity=120, time=37),
    Message('note_on', channel=5, note=59, velocity=0, time=215),
    Message('control_change', channel=5, control=64, value=127, time=22),
    Message('note_on', channel=5, note=57, velocity=120, time=3),
    Message('note_on', channel=5, note=57, velocity=0, time=84),
    Message('control_change', channel=5, control=64, value=0, time=3),
    Message('note_on', channel=5, note=59, velocity=120, time=33),
    Message('control_change', channel=5, control=64, value=127, time=115),
    Message('note_on', channel=5, note=57, velocity=120, time=5),
    Message('note_on', channel=5, note=59, velocity=0, time=31),
    Message('note_on', channel=5, note=57, velocity=0, time=20),
    Message('note_on', channel=5, note=55, velocity=120, time=69),
    Message('control_change', channel=5, control=64, value=0, time=7),
    Message('control_change', channel=5, control=64, value=127, time=170),
    Message('note_on', channel=5, note=55, velocity=0, time=11),
    Message('note_on', channel=5, note=55, velocity=120, time=52),
    Message('note_on', channel=5, note=48, velocity=120, time=120),
    Message('note_on', channel=5, note=55, velocity=0, time=35),
    Message('control_change', channel=5, control=64, value=0, time=2),
    Message('note_on', channel=5, note=55, velocity=120, time=83),
    Message('note_on', channel=5, note=48, velocity=0, time=21),
    Message('control_change', channel=5, control=64, value=127, time=19),
    Message('note_on', channel=5, note=48, velocity=120, time=200),
    Message('note_on', channel=5, note=55, velocity=0, time=26),
    Message('note_on', channel=5, note=55, velocity=120, time=94),
    Message('control_change', channel=5, control=64, value=0, time=9),
    Message('note_on', channel=5, note=48, velocity=0, time=19),
    Message('note_on', channel=5, note=57, velocity=120, time=92),
    Message('note_on', channel=5, note=50, velocity=120, time=0),
    Message('note_on', channel=5, note=55, velocity=0, time=12),
    Message('pitchwheel', channel=5, pitch=713, time=46),
    Message('pitchwheel', channel=5, pitch=2048, time=8),
    Message('note_on', channel=5, note=50, velocity=0, time=6),
    Message('pitchwheel', channel=5, pitch=4006, time=2),
    Message('pitchwheel', channel=5, pitch=6499, time=8),
    Message('pitchwheel', channel=5, pitch=8191, time=8),
    Message('note_on', channel=5, note=65, velocity=120, time=150),
    Message('note_on', channel=5, note=60, velocity=120, time=0),
    Message('note_on', channel=5, note=57, velocity=0, time=6),
    Message('note_on', channel=5, note=60, velocity=0, time=98),
    Message('note_on', channel=5, note=57, velocity=120, time=16),
    Message('note_on', channel=5, note=65, velocity=0, time=165),
    Message('pitchwheel', channel=5, pitch=3650, time=71),
    Message('pitchwheel', channel=5, pitch=0, time=17),
    Message('note_on', channel=5, note=55, velocity=120, time=107),
    Message('note_on', channel=5, note=57, velocity=0, time=20),
    Message('note_on', channel=5, note=55, velocity=0, time=130),
    Message('note_on', channel=5, note=64, velocity=120, time=90),
    Message('pitchwheel', channel=5, pitch=891, time=119),
    Message('pitchwheel', channel=5, pitch=1959, time=7),
    Message('pitchwheel', channel=5, pitch=2849, time=10),
    Message('pitchwheel', channel=5, pitch=3472, time=8),
    Message('pitchwheel', channel=5, pitch=3917, time=8),
    Message('pitchwheel', channel=5, pitch=4540, time=8),
    Message('pitchwheel', channel=5, pitch=5341, time=8),
    Message('pitchwheel', channel=5, pitch=6232, time=8),
    Message('pitchwheel', channel=5, pitch=7389, time=9),
    Message('pitchwheel', channel=5, pitch=8191, time=7),
    Message('note_on', channel=5, note=60, velocity=120, time=48),
    Message('note_on', channel=5, note=67, velocity=120, time=0),
    Message('note_on', channel=5, note=64, velocity=0, time=16),
    Message('note_on', channel=5, note=64, velocity=120, time=104),
    Message('note_on', channel=5, note=67, velocity=0, time=2),
    Message('note_on', channel=5, note=60, velocity=0, time=159),
    Message('note_on', channel=5, note=64, velocity=0, time=28),
    Message('note_on', channel=5, note=64, velocity=120, time=51),
    Message('pitchwheel', channel=5, pitch=7033, time=140),
    Message('pitchwheel', channel=5, pitch=2582, time=9),
    Message('pitchwheel', channel=5, pitch=0, time=7),
    Message('note_on', channel=5, note=62, velocity=120, time=84),
    Message('note_on', channel=5, note=64, velocity=0, time=4),
    Message('note_on', channel=5, note=62, velocity=0, time=173),
    Message('note_on', channel=5, note=67, velocity=120, time=63),
    Message('note_on', channel=5, note=67, velocity=0, time=203),
    Message('note_on', channel=5, note=67, velocity=120, time=37),
    Message('note_on', channel=5, note=67, velocity=0, time=161),
    Message('pitchwheel', channel=5, pitch=1781, time=77),
    Message('note_on', channel=5, note=67, velocity=120, time=2),
    Message('pitchwheel', channel=5, pitch=5609, time=7),
    Message('pitchwheel', channel=5, pitch=8191, time=8),
    Message('pitchwheel', channel=5, pitch=5252, time=115),
    Message('pitchwheel', channel=5, pitch=0, time=8),
    Message('note_on', channel=5, note=67, velocity=0, time=100),
    Message('note_on', channel=5, note=64, velocity=120, time=2),
    Message('note_on', channel=5, note=67, velocity=120, time=120),
    Message('note_on', channel=5, note=64, velocity=0, time=19),
    Message('note_on', channel=5, note=67, velocity=0, time=59),
    Message('note_on', channel=5, note=69, velocity=120, time=42),
    Message('pitchwheel', channel=5, pitch=90, time=44),
    Message('pitchwheel', channel=5, pitch=2760, time=7),
    Message('pitchwheel', channel=5, pitch=5252, time=8),
    Message('pitchwheel', channel=5, pitch=7745, time=9),
    Message('pitchwheel', channel=5, pitch=8191, time=7),
    Message('note_on', channel=5, note=69, velocity=0, time=121),
    Message('note_on', channel=5, note=69, velocity=120, time=44),
    Message('note_on', channel=5, note=69, velocity=0, time=178),
    Message('note_on', channel=5, note=69, velocity=120, time=62),
    Message('pitchwheel', channel=5, pitch=7656, time=94),
    Message('pitchwheel', channel=5, pitch=3739, time=9),
    Message('pitchwheel', channel=5, pitch=446, time=7),
    Message('pitchwheel', channel=5, pitch=0, time=9),
    Message('note_on', channel=5, note=67, velocity=120, time=121),
    Message('note_on', channel=5, note=69, velocity=0, time=6),
    Message('note_on', channel=5, note=69, velocity=120, time=114),
    Message('note_on', channel=5, note=67, velocity=0, time=7),
    Message('note_on', channel=5, note=69, velocity=0, time=91),
    Message('pitchwheel', channel=5, pitch=-2111, time=0),
    Message('pitchwheel', channel=5, pitch=-4053, time=8),
    Message('pitchwheel', channel=5, pitch=-5826, time=9),
    Message('note_on', channel=5, note=71, velocity=120, time=5),
    Message('note_on', channel=5, note=76, velocity=120, time=0),
    Message('pitchwheel', channel=5, pitch=-7177, time=0),
    Message('pitchwheel', channel=5, pitch=-8191, time=8),
    Message('control_change', channel=5, control=64, value=127, time=4),
    Message('pitchwheel', channel=5, pitch=-8192, time=10),
    Message('pitchwheel', channel=5, pitch=-8191, time=40),
    Message('pitchwheel', channel=5, pitch=-7599, time=8),
    Message('pitchwheel', channel=5, pitch=-6924, time=8),
    Message('pitchwheel', channel=5, pitch=-6164, time=8),
    Message('pitchwheel', channel=5, pitch=-5235, time=9),
    Message('pitchwheel', channel=5, pitch=-4137, time=7),
    Message('pitchwheel', channel=5, pitch=-3209, time=8),
    Message('pitchwheel', channel=5, pitch=-2280, time=9),
    Message('pitchwheel', channel=5, pitch=-1267, time=7),
    Message('pitchwheel', channel=5, pitch=-253, time=9),
    Message('pitchwheel', channel=5, pitch=0, time=8),
    Message('note_on', channel=5, note=71, velocity=0, time=56),
    Message('note_on', channel=5, note=76, velocity=0, time=7),
    Message('note_on', channel=5, note=71, velocity=120, time=34),
    Message('note_on', channel=5, note=76, velocity=120, time=0),
    Message('note_on', channel=5, note=71, velocity=0, time=49),
    Message('note_on', channel=5, note=76, velocity=0, time=13),
    Message('note_on', channel=5, note=71, velocity=120, time=58),
    Message('note_on', channel=5, note=76, velocity=120, time=0),
    Message('note_on', channel=5, note=71, velocity=0, time=48),
    Message('note_on', channel=5, note=76, velocity=0, time=4),
    Message('control_change', channel=5, control=64, value=0, time=35),
    Message('pitchwheel', channel=5, pitch=-2364, time=31),
    Message('note_on', channel=5, note=76, velocity=120, time=2),
    Message('note_on', channel=5, note=71, velocity=120, time=0),
    Message('pitchwheel', channel=5, pitch=-4475, time=7),
    Message('pitchwheel', channel=5, pitch=-5573, time=8),
    Message('pitchwheel', channel=5, pitch=-5742, time=8),
    Message('pitchwheel', channel=5, pitch=-5911, time=8),
    Message('control_change', channel=5, control=64, value=127, time=58),
    Message('pitchwheel', channel=5, pitch=-5573, time=6),
    Message('pitchwheel', channel=5, pitch=-4729, time=9),
    Message('pitchwheel', channel=5, pitch=-3378, time=8),
    Message('pitchwheel', channel=5, pitch=-1689, time=7),
    Message('pitchwheel', channel=5, pitch=0, time=9),
    Message('note_on', channel=5, note=71, velocity=0, time=55),
    Message('note_on', channel=5, note=76, velocity=0, time=6),
    Message('note_on', channel=5, note=71, velocity=120, time=51),
    Message('note_on', channel=5, note=76, velocity=120, time=0),
    Message('note_on', channel=5, note=71, velocity=0, time=52),
    Message('note_on', channel=5, note=76, velocity=0, time=2),
    Message('note_on', channel=5, note=71, velocity=120, time=66),
    Message('note_on', channel=5, note=76, velocity=120, time=0),
    Message('control_change', channel=5, control=64, value=0, time=89),
    Message('note_on', channel=5, note=76, velocity=0, time=19),
    Message('note_on', channel=5, note=71, velocity=0, time=8),
    Message('note_on', channel=5, note=74, velocity=120, time=124),
    Message('note_on', channel=5, note=69, velocity=120, time=240),
    Message('note_on', channel=5, note=74, velocity=0, time=7),
    Message('note_on', channel=5, note=69, velocity=0, time=154),
    Message('note_on', channel=5, note=66, velocity=120, time=79),
    Message('note_on', channel=5, note=62, velocity=120, time=120),
    Message('note_on', channel=5, note=66, velocity=0, time=17),
    Message('pitchwheel', channel=5, pitch=-1013, time=183),
    Message('note_on', channel=5, note=62, velocity=0, time=2),
    Message('pitchwheel', channel=5, pitch=-2449, time=6),
    Message('pitchwheel', channel=5, pitch=-3462, time=8),
    Message('pitchwheel', channel=5, pitch=-4560, time=10),
    Message('pitchwheel', channel=5, pitch=-5320, time=7),
    Message('note_on', channel=5, note=67, velocity=120, time=7),
    Message('pitchwheel', channel=5, pitch=-5657, time=0),
    Message('pitchwheel', channel=5, pitch=-5911, time=8),
    Message('pitchwheel', channel=5, pitch=-5826, time=35),
    Message('pitchwheel', channel=5, pitch=-5488, time=9),
    Message('pitchwheel', channel=5, pitch=-4897, time=8),
    Message('pitchwheel', channel=5, pitch=-4222, time=7),
    Message('pitchwheel', channel=5, pitch=-3293, time=9),
    Message('pitchwheel', channel=5, pitch=-2364, time=8),
    Message('pitchwheel', channel=5, pitch=-1520, time=8),
    Message('pitchwheel', channel=5, pitch=-1013, time=8),
    Message('pitchwheel', channel=5, pitch=-338, time=8),
    Message('pitchwheel', channel=5, pitch=0, time=8),
    Message('note_on', channel=5, note=69, velocity=120, time=124),
    Message('note_on', channel=5, note=67, velocity=0, time=4),
    Message('note_on', channel=5, note=69, velocity=0, time=209),
    Message('note_on', channel=5, note=69, velocity=120, time=27),
    Message('note_on', channel=5, note=67, velocity=120, time=120),
    Message('note_on', channel=5, note=69, velocity=0, time=12),
    Message('control_change', channel=5, control=64, value=127, time=64),
    Message('note_on', channel=5, note=67, velocity=0, time=22),
    Message('note_on', channel=5, note=69, velocity=120, time=22),
    Message('note_on', channel=5, note=69, velocity=0, time=64),
    Message('control_change', channel=5, control=64, value=0, time=33),
    Message('note_on', channel=5, note=69, velocity=120, time=23),
    Message('pitchwheel', channel=5, pitch=1425, time=78),
    Message('pitchwheel', channel=5, pitch=3917, time=8),
    Message('pitchwheel', channel=5, pitch=6321, time=8),
    Message('pitchwheel', channel=5, pitch=8191, time=9),
    Message('note_on', channel=5, note=69, velocity=0, time=82),
    Message('control_change', channel=5, control=64, value=127, time=51),
    Message('note_on', channel=5, note=69, velocity=120, time=4),
    Message('pitchwheel', channel=5, pitch=1959, time=221),
    Message('pitchwheel', channel=5, pitch=0, time=8),
    Message('control_change', channel=5, control=64, value=0, time=55),
    Message('note_on', channel=5, note=67, velocity=120, time=76),
    Message('note_on', channel=5, note=69, velocity=0, time=20),
    Message('note_on', channel=5, note=67, velocity=0, time=313),
    Message('note_on', channel=5, note=69, velocity=120, time=147),
    Message('note_on', channel=5, note=71, velocity=120, time=240),
    Message('note_on', channel=5, note=72, velocity=120, time=120),
    Message('note_on', channel=5, note=71, velocity=0, time=14),
    Message('note_on', channel=5, note=71, velocity=120, time=226),
    Message('note_on', channel=5, note=72, velocity=0, time=19),
    Message('note_on', channel=5, note=69, velocity=0, time=12),
    Message('note_on', channel=5, note=69, velocity=120, time=89),
    Message('note_on', channel=5, note=71, velocity=0, time=31),
    Message('note_on', channel=5, note=69, velocity=0, time=160),
    Message('note_on', channel=5, note=64, velocity=120, time=49),
    Message('note_on', channel=5, note=66, velocity=120, time=240),
    Message('note_on', channel=5, note=67, velocity=120, time=120),
    Message('note_on', channel=5, note=66, velocity=0, time=1),
    Message('note_on', channel=5, note=66, velocity=120, time=239),
    Message('note_on', channel=5, note=67, velocity=0, time=2),
    Message('note_on', channel=5, note=64, velocity=0, time=93),
    Message('note_on', channel=5, note=64, velocity=120, time=25),
    Message('note_on', channel=5, note=66, velocity=0, time=35),
    Message('note_on', channel=5, note=64, velocity=0, time=107),
    Message('pitchwheel', channel=5, pitch=-1351, time=73),
    Message('pitchwheel', channel=5, pitch=-3378, time=8),
    Message('pitchwheel', channel=5, pitch=-5066, time=8),
    Message('pitchwheel', channel=5, pitch=-5826, time=8),
    Message('note_on', channel=5, note=67, velocity=120, time=1),
    Message('note_on', channel=5, note=64, velocity=120, time=0),
    Message('note_on', channel=5, note=71, velocity=120, time=0),
    Message('pitchwheel', channel=5, pitch=-6417, time=8),
    Message('pitchwheel', channel=5, pitch=-6755, time=13),
    Message('pitchwheel', channel=5, pitch=-6333, time=57),
    Message('pitchwheel', channel=5, pitch=-5742, time=9),
    Message('pitchwheel', channel=5, pitch=-5151, time=7),
    Message('pitchwheel', channel=5, pitch=-4391, time=8),
    Message('pitchwheel', channel=5, pitch=-3715, time=9),
    Message('pitchwheel', channel=5, pitch=-3209, time=7),
    Message('pitchwheel', channel=5, pitch=-2871, time=9),
    Message('pitchwheel', channel=5, pitch=-2449, time=9),
    Message('control_change', channel=5, control=64, value=127, time=6),
    Message('pitchwheel', channel=5, pitch=-1773, time=2),
    Message('pitchwheel', channel=5, pitch=-591, time=8),
    Message('pitchwheel', channel=5, pitch=0, time=8),
    Message('note_on', channel=5, note=64, velocity=0, time=47),
    Message('note_on', channel=5, note=71, velocity=0, time=1),
    Message('note_on', channel=5, note=67, velocity=0, time=1),
    Message('note_on', channel=5, note=64, velocity=120, time=31),
    Message('note_on', channel=5, note=67, velocity=120, time=0),
    Message('note_on', channel=5, note=71, velocity=120, time=0),
    Message('note_on', channel=5, note=64, velocity=0, time=45),
    Message('note_on', channel=5, note=67, velocity=0, time=7),
    Message('note_on', channel=5, note=71, velocity=0, time=8),
    Message('note_on', channel=5, note=64, velocity=120, time=60),
    Message('note_on', channel=5, note=71, velocity=120, time=0),
    Message('note_on', channel=5, note=67, velocity=120, time=0),
    Message('note_on', channel=5, note=64, velocity=0, time=41),
    Message('note_on', channel=5, note=67, velocity=0, time=10),
    Message('note_on', channel=5, note=71, velocity=0, time=2),
    Message('control_change', channel=5, control=64, value=0, time=35),
    Message('note_on', channel=5, note=71, velocity=120, time=32),
    Message('note_on', channel=5, note=64, velocity=120, time=0),
    Message('note_on', channel=5, note=67, velocity=120, time=0),
    Message('pitchwheel', channel=5, pitch=-4053, time=16),
    Message('pitchwheel', channel=5, pitch=-6248, time=8),
    Message('pitchwheel', channel=5, pitch=-7431, time=8),
    Message('pitchwheel', channel=5, pitch=-7262, time=50),
    Message('pitchwheel', channel=5, pitch=-6924, time=7),
    Message('control_change', channel=5, control=64, value=127, time=2),
    Message('pitchwheel', channel=5, pitch=-6586, time=7),
    Message('pitchwheel', channel=5, pitch=-6333, time=8),
    Message('pitchwheel', channel=5, pitch=-6080, time=7),
    Message('pitchwheel', channel=5, pitch=-5573, time=9),
    Message('pitchwheel', channel=5, pitch=-4897, time=10),
    Message('pitchwheel', channel=5, pitch=-3715, time=8),
    Message('pitchwheel', channel=5, pitch=-2702, time=8),
    Message('pitchwheel', channel=5, pitch=-1773, time=9),
    Message('pitchwheel', channel=5, pitch=-1013, time=7),
    Message('pitchwheel', channel=5, pitch=-338, time=8),
    Message('pitchwheel', channel=5, pitch=0, time=9),
    Message('note_on', channel=5, note=71, velocity=0, time=9),
    Message('note_on', channel=5, note=64, velocity=0, time=3),
    Message('note_on', channel=5, note=67, velocity=0, time=1),
    Message('note_on', channel=5, note=64, velocity=120, time=46),
    Message('note_on', channel=5, note=71, velocity=120, time=0),
    Message('note_on', channel=5, note=67, velocity=120, time=0),
    Message('note_on', channel=5, note=64, velocity=0, time=51),
    Message('note_on', channel=5, note=67, velocity=0, time=7),
    Message('note_on', channel=5, note=71, velocity=0, time=2),
    Message('note_on', channel=5, note=64, velocity=120, time=60),
    Message('note_on', channel=5, note=71, velocity=120, time=0),
    Message('note_on', channel=5, note=67, velocity=120, time=0),
    Message('note_on', channel=5, note=64, velocity=0, time=53),
    Message('note_on', channel=5, note=67, velocity=0, time=2),
    Message('note_on', channel=5, note=71, velocity=0, time=8),
    Message('note_on', channel=5, note=71, velocity=120, time=57),
    Message('note_on', channel=5, note=64, velocity=120, time=0),
    Message('control_change', channel=5, control=64, value=0, time=66),
    Message('note_on', channel=5, note=69, velocity=120, time=54),
    Message('note_on', channel=5, note=64, velocity=0, time=6),
    Message('note_on', channel=5, note=71, velocity=0, time=15),
    Message('note_on', channel=5, note=67, velocity=120, time=99),
    Message('note_on', channel=5, note=69, velocity=0, time=15),
    Message('pitchwheel', channel=5, pitch=-169, time=97),
    Message('note_on', channel=5, note=67, velocity=0, time=2),
    Message('note_on', channel=5, note=74, velocity=120, time=6),
    Message('note_on', channel=5, note=69, velocity=120, time=0),
    Message('note_on', channel=5, note=78, velocity=120, time=0),
    Message('pitchwheel', channel=5, pitch=-2364, time=0),
    Message('pitchwheel', channel=5, pitch=-4475, time=6),
    Message('pitchwheel', channel=5, pitch=-6586, time=13),
    Message('pitchwheel', channel=5, pitch=-7599, time=8),
    Message('pitchwheel', channel=5, pitch=-7262, time=40),
    Message('pitchwheel', channel=5, pitch=-6080, time=9),
    Message('pitchwheel', channel=5, pitch=-5066, time=8),
    Message('pitchwheel', channel=5, pitch=-4391, time=8),
    Message('pitchwheel', channel=5, pitch=-3715, time=8),
    Message('pitchwheel', channel=5, pitch=-2955, time=8),
    Message('pitchwheel', channel=5, pitch=-2702, time=8),
    Message('pitchwheel', channel=5, pitch=-2195, time=8),
    Message('pitchwheel', channel=5, pitch=-1858, time=8),
    Message('pitchwheel', channel=5, pitch=-1351, time=8),
    Message('pitchwheel', channel=5, pitch=-844, time=9),
    Message('pitchwheel', channel=5, pitch=-422, time=7),
    Message('pitchwheel', channel=5, pitch=-253, time=9),
    Message('pitchwheel', channel=5, pitch=-84, time=8),
    Message('pitchwheel', channel=5, pitch=0, time=8),
    Message('note_on', channel=5, note=69, velocity=0, time=285),
    Message('note_on', channel=5, note=74, velocity=0, time=3),
    Message('note_on', channel=5, note=78, velocity=0, time=10),
    Message('note_on', channel=5, note=40, velocity=110, time=14521),
    Message('note_on', channel=5, note=40, velocity=0, time=120),
    Message('note_on', channel=5, note=52, velocity=110, time=0),
    Message('note_on', channel=5, note=52, velocity=0, time=47),
    Message('note_on', channel=5, note=40, velocity=110, time=193),
    Message('note_on', channel=5, note=40, velocity=0, time=111),
    Message('note_on', channel=5, note=52, velocity=98, time=9),
    Message('note_on', channel=5, note=52, velocity=0, time=217),
    Message('note_on', channel=5, note=52, velocity=110, time=503),
    Message('note_on', channel=5, note=52, velocity=0, time=72),
    Message('note_on', channel=5, note=52, velocity=105, time=168),
    Message('note_on', channel=5, note=50, velocity=107, time=120),
    Message('note_on', channel=5, note=52, velocity=0, time=24),
    Message('note_on', channel=5, note=50, velocity=0, time=77),
    Message('note_on', channel=5, note=52, velocity=85, time=19),
    Message('note_on', channel=5, note=52, velocity=0, time=98),
    Message('note_on', channel=5, note=43, velocity=113, time=262),
    Message('note_on', channel=5, note=43, velocity=0, time=52),
    Message('note_on', channel=5, note=43, velocity=113, time=188),
    Message('note_on', channel=5, note=43, velocity=0, time=531),
    Message('note_on', channel=5, note=48, velocity=113, time=189),
    Message('note_on', channel=5, note=48, velocity=0, time=65),
    Message('note_on', channel=5, note=48, velocity=107, time=295),
    Message('note_on', channel=5, note=48, velocity=0, time=115),
    Message('note_on', channel=5, note=50, velocity=87, time=5),
    Message('note_on', channel=5, note=48, velocity=110, time=120),
    Message('note_on', channel=5, note=50, velocity=0, time=22),
    Message('note_on', channel=5, note=48, velocity=0, time=85),
    Message('note_on', channel=5, note=43, velocity=116, time=253),
    Message('note_on', channel=5, note=43, velocity=0, time=54),
    Message('note_on', channel=5, note=43, velocity=116, time=186),
    Message('note_on', channel=5, note=43, velocity=0, time=112),
    Message('note_on', channel=5, note=55, velocity=87, time=8),
    Message('note_on', channel=5, note=43, velocity=102, time=120),
    Message('note_on', channel=5, note=55, velocity=0, time=6),
    Message('note_on', channel=5, note=43, velocity=0, time=108),
    Message('note_on', channel=5, note=48, velocity=110, time=4206),
    Message('note_on', channel=5, note=48, velocity=0, time=55),
    Message('note_on', channel=5, note=48, velocity=105, time=305),
    Message('note_on', channel=5, note=48, velocity=0, time=237),
    Message('note_on', channel=5, note=52, velocity=113, time=363),
    Message('note_on', channel=5, note=52, velocity=0, time=63),
    Message('note_on', channel=5, note=52, velocity=105, time=297),
    Message('note_on', channel=5, note=52, velocity=0, time=232),
    Message('note_on', channel=5, note=55, velocity=68, time=8),
    Message('note_on', channel=5, note=52, velocity=107, time=120),
    Message('note_on', channel=5, note=55, velocity=0, time=25),
    Message('note_on', channel=5, note=52, velocity=0, time=40),
    Message('note_on', channel=5, note=55, velocity=113, time=175),
    Message('note_on', channel=5, note=55, velocity=0, time=54),
    Message('note_on', channel=5, note=55, velocity=105, time=306),
    Message('note_on', channel=5, note=43, velocity=100, time=120),
    Message('note_on', channel=5, note=55, velocity=0, time=4),
    Message('note_on', channel=5, note=43, velocity=0, time=105),
    Message('note_on', channel=5, note=43, velocity=119, time=131),
    Message('note_on', channel=5, note=43, velocity=0, time=52),
    Message('note_on', channel=5, note=43, velocity=98, time=188),
    Message('note_on', channel=5, note=43, velocity=0, time=45),
    Message('note_on', channel=5, note=43, velocity=116, time=195),
    Message('note_on', channel=5, note=43, velocity=0, time=168),
    Message('note_on', channel=5, note=43, velocity=116, time=72),
    Message('note_on', channel=5, note=43, velocity=0, time=105),
    Message('note_on', channel=5, note=55, velocity=102, time=15),
    Message('note_on', channel=5, note=43, velocity=113, time=120),
    Message('note_on', channel=5, note=55, velocity=0, time=22),
    Message('note_on', channel=5, note=43, velocity=0, time=64),
    Message('note_on', channel=5, note=48, velocity=105, time=154),
    Message('note_on', channel=5, note=48, velocity=0, time=60),
    Message('note_on', channel=5, note=48, velocity=113, time=300),
    Message('note_on', channel=5, note=48, velocity=0, time=276),
    Message('note_on', channel=5, note=52, velocity=116, time=324),
    Message('note_on', channel=5, note=52, velocity=0, time=53),
    Message('note_on', channel=5, note=52, velocity=113, time=187),
    Message('note_on', channel=5, note=52, velocity=0, time=152),
    Message('note_on', channel=5, note=52, velocity=72, time=88),
    Message('note_on', channel=5, note=52, velocity=0, time=73),
    Message('note_on', channel=5, note=52, velocity=100, time=47),
    Message('note_on', channel=5, note=52, velocity=0, time=119),
    Message('note_on', channel=5, note=48, velocity=110, time=1),
    Message('note_on', channel=5, note=48, velocity=0, time=68),
    Message('note_on', channel=5, note=43, velocity=110, time=172),
    Message('note_on', channel=5, note=43, velocity=0, time=58),
    Message('note_on', channel=5, note=43, velocity=113, time=182),
    Message('note_on', channel=5, note=43, velocity=0, time=52),
    Message('note_on', channel=5, note=55, velocity=98, time=68),
    Message('note_on', channel=5, note=55, velocity=0, time=269),
    Message('note_on', channel=5, note=55, velocity=57, time=91),
    Message('note_on', channel=5, note=55, velocity=0, time=24),
    Message('note_on', channel=5, note=55, velocity=107, time=96),
    Message('note_on', channel=5, note=55, velocity=0, time=71),
    Message('note_on', channel=5, note=43, velocity=113, time=49),
    Message('note_on', channel=5, note=43, velocity=0, time=61),
    Message('note_on', channel=5, note=43, velocity=113, time=179),
    Message('note_on', channel=5, note=43, velocity=0, time=62),
    Message('note_on', channel=5, note=43, velocity=113, time=178),
    Message('note_on', channel=5, note=43, velocity=0, time=65),
    Message('note_on', channel=5, note=55, velocity=98, time=55),
    Message('note_on', channel=5, note=53, velocity=119, time=120),
    Message('note_on', channel=5, note=55, velocity=0, time=25),
    Message('note_on', channel=5, note=53, velocity=0, time=68),
    Message('note_on', channel=5, note=48, velocity=116, time=147),
    Message('note_on', channel=5, note=48, velocity=0, time=53),
    Message('note_on', channel=5, note=48, velocity=105, time=307),
    Message('note_on', channel=5, note=48, velocity=0, time=479),
    Message('note_on', channel=5, note=48, velocity=110, time=121),
    Message('note_on', channel=5, note=48, velocity=0, time=56),
    Message('note_on', channel=5, note=48, velocity=110, time=304),
    Message('note_on', channel=5, note=48, velocity=0, time=162),
    Message('note_on', channel=5, note=59, velocity=105, time=318),
    Message('note_on', channel=5, note=62, velocity=102, time=0),
    Message('note_on', channel=5, note=55, velocity=98, time=0),
    Message('note_on', channel=5, note=62, velocity=0, time=887),
    Message('note_on', channel=5, note=59, velocity=0, time=4),
    Message('note_on', channel=5, note=55, velocity=0, time=4),
    Message('note_on', channel=5, note=60, velocity=107, time=65),
    Message('note_on', channel=5, note=57, velocity=100, time=0),
    Message('note_on', channel=5, note=53, velocity=98, time=0),
    Message('note_on', channel=5, note=53, velocity=0, time=757),
    Message('note_on', channel=5, note=57, velocity=0, time=105),
    Message('note_on', channel=5, note=60, velocity=0, time=2),
    Message('note_on', channel=5, note=55, velocity=98, time=96),
    Message('note_on', channel=5, note=48, velocity=100, time=0),
    Message('note_on', channel=5, note=52, velocity=102, time=0),
    Message('note_on', channel=5, note=55, velocity=0, time=697),
    Message('note_on', channel=5, note=52, velocity=0, time=36),
    Message('note_on', channel=5, note=48, velocity=0, time=4),
    Message('note_on', channel=5, note=48, velocity=119, time=343),
    Message('note_on', channel=5, note=48, velocity=0, time=54),
    Message('note_on', channel=5, note=48, velocity=116, time=306),
    Message('note_on', channel=5, note=48, velocity=0, time=205),
    Message('note_on', channel=5, note=55, velocity=100, time=275),
    Message('note_on', channel=5, note=59, velocity=110, time=0),
    Message('note_on', channel=5, note=62, velocity=105, time=0),
    Message('note_on', channel=5, note=67, velocity=110, time=480),
    Message('note_on', channel=5, note=59, velocity=0, time=299),
    Message('note_on', channel=5, note=62, velocity=0, time=12),
    Message('note_on', channel=5, note=67, velocity=0, time=25),
    Message('note_on', channel=5, note=55, velocity=0, time=28),
    Message('note_on', channel=5, note=53, velocity=91, time=116),
    Message('note_on', channel=5, note=57, velocity=100, time=0),
    Message('note_on', channel=5, note=60, velocity=100, time=0),
    Message('note_on', channel=5, note=65, velocity=110, time=480),
    Message('note_on', channel=5, note=57, velocity=0, time=228),
    Message('note_on', channel=5, note=60, velocity=0, time=1),
    Message('note_on', channel=5, note=53, velocity=0, time=22),
    Message('note_on', channel=5, note=65, velocity=0, time=64),
    Message('note_on', channel=5, note=48, velocity=95, time=165),
    Message('note_on', channel=5, note=55, velocity=93, time=0),
    Message('note_on', channel=5, note=52, velocity=102, time=0),
    Message('note_on', channel=5, note=48, velocity=0, time=447),
    Message('note_on', channel=5, note=55, velocity=0, time=15),
    Message('note_on', channel=5, note=52, velocity=0, time=5),
    Message('pitchwheel', channel=5, pitch=-1520, time=788),
    Message('pitchwheel', channel=5, pitch=-4644, time=9),
    Message('pitchwheel', channel=5, pitch=-7684, time=8),
    Message('pitchwheel', channel=5, pitch=-8192, time=9),
    Message('note_on', channel=5, note=59, velocity=127, time=39),
    Message('pitchwheel', channel=5, pitch=-7008, time=95),
    Message('pitchwheel', channel=5, pitch=-6755, time=9),
    Message('pitchwheel', channel=5, pitch=-5995, time=9),
    Message('pitchwheel', channel=5, pitch=-4729, time=7),
    Message('pitchwheel', channel=5, pitch=-2533, time=16),
    Message('pitchwheel', channel=5, pitch=0, time=5),
    Message('note_on', channel=5, note=57, velocity=105, time=99),
    Message('note_on', channel=5, note=59, velocity=0, time=30),
    Message('note_on', channel=5, note=57, velocity=0, time=69),
    Message('note_on', channel=5, note=57, velocity=127, time=141),
    Message('pitchwheel', channel=5, pitch=2137, time=143),
    Message('pitchwheel', channel=5, pitch=7656, time=6),
    Message('pitchwheel', channel=5, pitch=8191, time=7),
    Message('note_on', channel=5, note=57, velocity=0, time=1977),
    Message('pitchwheel', channel=5, pitch=8190, time=219),
    Message('pitchwheel', channel=5, pitch=4629, time=8),
    Message('pitchwheel', channel=5, pitch=1, time=8),
    Message('pitchwheel', channel=5, pitch=0, time=8),
    MetaMessage('end_of_track', time=0)]),
  MidiTrack([
    MetaMessage('midi_port', port=0, time=0),
    MetaMessage('track_name', name='Rythm Guitar', time=0),
    Message('control_change', channel=6, control=0, value=8, time=0),
    Message('program_change', channel=6, program=6, time=0),
    Message('control_change', channel=6, control=7, value=98, time=0),
    Message('control_change', channel=6, control=10, value=127, time=0),
    Message('control_change', channel=6, control=0, value=8, time=0),
    Message('control_change', channel=6, control=0, value=8, time=0),
    Message('program_change', channel=6, program=25, time=0),
    Message('note_on', channel=6, note=59, velocity=98, time=960),
    Message('note_on', channel=6, note=67, velocity=98, time=0),
    Message('note_on', channel=6, note=62, velocity=108, time=0),
    Message('note_on', channel=6, note=43, velocity=102, time=0),
    Message('note_on', channel=6, note=50, velocity=108, time=0),
    Message('control_change', channel=6, control=64, value=127, time=16),
    Message('control_change', channel=6, control=93, value=87, time=20),
    Message('note_on', channel=6, note=59, velocity=0, time=44),
    Message('note_on', channel=6, note=62, velocity=0, time=7),
    Message('note_on', channel=6, note=67, velocity=0, time=6),
    Message('note_on', channel=6, note=50, velocity=0, time=38),
    Message('note_on', channel=6, note=43, velocity=0, time=1),
    Message('note_on', channel=6, note=59, velocity=35, time=108),
    Message('note_on', channel=6, note=62, velocity=50, time=0),
    Message('note_on', channel=6, note=67, velocity=58, time=0),
    Message('note_on', channel=6, note=59, velocity=0, time=30),
    Message('note_on', channel=6, note=62, velocity=0, time=5),
    Message('note_on', channel=6, note=67, velocity=0, time=16),
    Message('note_on', channel=6, note=59, velocity=98, time=69),
    Message('note_on', channel=6, note=67, velocity=98, time=0),
    Message('note_on', channel=6, note=62, velocity=108, time=0),
    Message('note_on', channel=6, note=59, velocity=0, time=40),
    Message('note_on', channel=6, note=62, velocity=0, time=3),
    Message('note_on', channel=6, note=67, velocity=0, time=18),
    Message('note_on', channel=6, note=67, velocity=60, time=59),
    Message('note_on', channel=6, note=62, velocity=73, time=0),
    Message('note_on', channel=6, note=62, velocity=0, time=23),
    Message('note_on', channel=6, note=67, velocity=0, time=1),
    Message('note_on', channel=6, note=59, velocity=92, time=96),
    Message('note_on', channel=6, note=62, velocity=102, time=0),
    Message('note_on', channel=6, note=67, velocity=95, time=0),
    Message('note_on', channel=6, note=59, velocity=0, time=45),
    Message('note_on', channel=6, note=62, velocity=0, time=8),
    Message('note_on', channel=6, note=50, velocity=85, time=7),
    Message('note_on', channel=6, note=67, velocity=0, time=3),
    Message('note_on', channel=6, note=50, velocity=0, time=46),
    Message('note_on', channel=6, note=43, velocity=71, time=11),
    Message('note_on', channel=6, note=43, velocity=0, time=43),
    Message('note_on', channel=6, note=62, velocity=105, time=77),
    Message('note_on', channel=6, note=59, velocity=95, time=0),
    Message('note_on', channel=6, note=67, velocity=101, time=0),
    Message('note_on', channel=6, note=62, velocity=0, time=32),
    Message('note_on', channel=6, note=59, velocity=0, time=6),
    Message('note_on', channel=6, note=67, velocity=0, time=10),
    Message('note_on', channel=6, note=59, velocity=97, time=72),
    Message('note_on', channel=6, note=67, velocity=98, time=0),
    Message('note_on', channel=6, note=62, velocity=105, time=0),
    Message('note_on', channel=6, note=59, velocity=0, time=53),
    Message('note_on', channel=6, note=62, velocity=0, time=8),
    Message('note_on', channel=6, note=67, velocity=0, time=10),
    Message('note_on', channel=6, note=50, velocity=65, time=49),
    Message('note_on', channel=6, note=50, velocity=0, time=36),
    Message('note_on', channel=6, note=59, velocity=68, time=84),
    Message('note_on', channel=6, note=67, velocity=69, time=0),
    Message('note_on', channel=6, note=62, velocity=85, time=0),
    Message('note_on', channel=6, note=62, velocity=0, time=29),
    Message('note_on', channel=6, note=59, velocity=0, time=1),
    Message('note_on', channel=6, note=67, velocity=0, time=3),
    Message('note_on', channel=6, note=59, velocity=102, time=87),
    Message('note_on', channel=6, note=62, velocity=101, time=0),
    Message('note_on', channel=6, note=67, velocity=98, time=0),
    Message('note_on', channel=6, note=59, velocity=0, time=42),
    Message('note_on', channel=6, note=62, velocity=0, time=1),
    Message('note_on', channel=6, note=67, velocity=0, time=18),
    Message('note_on', channel=6, note=43, velocity=97, time=179),
    Message('note_on', channel=6, note=50, velocity=101, time=0),
    Message('note_on', channel=6, note=50, velocity=0, time=46),
    Message('note_on', channel=6, note=43, velocity=0, time=3),
    Message('note_on', channel=6, note=59, velocity=81, time=71),
    Message('note_on', channel=6, note=62, velocity=98, time=0),
    Message('note_on', channel=6, note=67, velocity=89, time=0),
    Message('note_on', channel=6, note=59, velocity=0, time=42),
    Message('note_on', channel=6, note=62, velocity=0, time=5),
    Message('note_on', channel=6, note=67, velocity=0, time=15),
    Message('note_on', channel=6, note=59, velocity=84, time=58),
    Message('note_on', channel=6, note=62, velocity=102, time=0),
    Message('note_on', channel=6, note=67, velocity=97, time=0),
    Message('note_on', channel=6, note=59, velocity=0, time=42),
    Message('note_on', channel=6, note=62, velocity=0, time=5),
    Message('note_on', channel=6, note=67, velocity=0, time=16),
    Message('control_change', channel=6, control=64, value=0, time=41),
    Message('note_on', channel=6, note=60, velocity=98, time=16),
    Message('note_on', channel=6, note=64, velocity=98, time=0),
    Message('note_on', channel=6, note=67, velocity=95, time=0),
    Message('note_on', channel=6, note=48, velocity=108, time=0),
    Message('note_on', channel=6, note=55, velocity=108, time=0),
    Message('control_change', channel=6, control=64, value=127, time=78),
    Message('note_on', channel=6, note=60, velocity=0, time=15),
    Message('note_on', channel=6, note=64, velocity=0, time=2),
    Message('note_on', channel=6, note=67, velocity=0, time=11),
    Message('note_on', channel=6, note=48, velocity=0, time=65),
    Message('note_on', channel=6, note=55, velocity=0, time=11),
    Message('note_on', channel=6, note=64, velocity=84, time=58),
    Message('note_on', channel=6, note=67, velocity=87, time=0),
    Message('note_on', channel=6, note=60, velocity=76, time=0),
    Message('note_on', channel=6, note=64, velocity=0, time=36),
    Message('note_on', channel=6, note=60, velocity=0, time=4),
    Message('note_on', channel=6, note=67, velocity=0, time=3),
    Message('note_on', channel=6, note=60, velocity=98, time=77),
    Message('note_on', channel=6, note=67, velocity=101, time=0),
    Message('note_on', channel=6, note=64, velocity=105, time=0),
    Message('note_on', channel=6, note=60, velocity=0, time=84),
    Message('note_on', channel=6, note=67, velocity=0, time=3),
    Message('note_on', channel=6, note=64, velocity=0, time=1),
    Message('note_on', channel=6, note=48, velocity=87, time=152),
    Message('note_on', channel=6, note=55, velocity=84, time=0),
    Message('note_on', channel=6, note=55, velocity=0, time=63),
    Message('note_on', channel=6, note=48, velocity=0, time=3),
    Message('note_on', channel=6, note=60, velocity=92, time=54),
    Message('note_on', channel=6, note=64, velocity=97, time=0),
    Message('note_on', channel=6, note=67, velocity=97, time=0),
    Message('control_change', channel=6, control=93, value=86, time=30),
    Message('note_on', channel=6, note=60, velocity=0, time=10),
    Message('note_on', channel=6, note=64, velocity=0, time=2),
    Message('control_change', channel=6, control=93, value=81, time=0),
    Message('note_on', channel=6, note=67, velocity=0, time=11),
    Message('control_change', channel=6, control=93, value=79, time=10),
    Message('control_change', channel=6, control=93, value=77, time=40),
    Message('note_on', channel=6, note=60, velocity=102, time=17),
    Message('note_on', channel=6, note=57, velocity=110, time=0),
    Message('note_on', channel=6, note=64, velocity=108, time=0),
    Message('note_on', channel=6, note=67, velocity=101, time=0),
    Message('control_change', channel=6, control=64, value=0, time=20),
    Message('control_change', channel=6, control=64, value=127, time=100),
    Message('note_on', channel=6, note=60, velocity=0, time=63),
    Message('note_on', channel=6, note=67, velocity=0, time=6),
    Message('note_on', channel=6, note=64, velocity=0, time=4),
    Message('control_change', channel=6, control=93, value=74, time=0),
    Message('note_on', channel=6, note=60, velocity=74, time=47),
    Message('note_on', channel=6, note=64, velocity=87, time=0),
    Message('note_on', channel=6, note=67, velocity=81, time=0),
    Message('note_on', channel=6, note=57, velocity=0, time=13),
    Message('note_on', channel=6, note=60, velocity=0, time=26),
    Message('note_on', channel=6, note=64, velocity=0, time=1),
    Message('note_on', channel=6, note=67, velocity=0, time=11),
    Message('control_change', channel=6, control=93, value=72, time=69),
    Message('note_on', channel=6, note=60, velocity=87, time=0),
    Message('note_on', channel=6, note=64, velocity=97, time=0),
    Message('note_on', channel=6, note=67, velocity=97, time=0),
    Message('control_change', channel=6, control=93, value=67, time=20),
    Message('control_change', channel=6, control=93, value=65, time=40),
    Message('note_on', channel=6, note=60, velocity=0, time=43),
    Message('note_on', channel=6, note=64, velocity=0, time=3),
    Message('note_on', channel=6, note=67, velocity=0, time=7),
    Message('control_change', channel=6, control=93, value=61, time=7),
    Message('note_on', channel=6, note=57, velocity=113, time=0),
    Message('control_change', channel=6, control=93, value=58, time=60),
    Message('note_on', channel=6, note=57, velocity=0, time=17),
    Message('control_change', channel=6, control=93, value=57, time=0),
    Message('control_change', channel=6, control=93, value=52, time=30),
    Message('control_change', channel=6, control=93, value=51, time=13),
    Message('note_on', channel=6, note=64, velocity=97, time=0),
    Message('note_on', channel=6, note=60, velocity=87, time=0),
    Message('note_on', channel=6, note=67, velocity=85, time=0),
    Message('control_change', channel=6, control=93, value=48, time=10),
    Message('control_change', channel=6, control=93, value=44, time=30),
    Message('control_change', channel=6, control=93, value=40, time=20),
    Message('note_on', channel=6, note=60, velocity=0, time=5),
    Message('note_on', channel=6, note=64, velocity=0, time=5),
    Message('note_on', channel=6, note=67, velocity=0, time=8),
    Message('note_on', channel=6, note=64, velocity=97, time=42),
    Message('note_on', channel=6, note=67, velocity=87, time=0),
    Message('note_on', channel=6, note=60, velocity=92, time=0),
    Message('note_on', channel=6, note=60, velocity=0, time=49),
    Message('note_on', channel=6, note=64, velocity=0, time=0),
    Message('note_on', channel=6, note=67, velocity=0, time=5),
    Message('control_change', channel=6, control=93, value=42, time=20),
    Message('control_change', channel=6, control=93, value=49, time=10),
    Message('control_change', channel=6, control=93, value=54, time=20),
    Message('control_change', channel=6, control=93, value=58, time=16),
    Message('note_on', channel=6, note=60, velocity=98, time=0),
    Message('note_on', channel=6, note=64, velocity=101, time=0),
    Message('note_on', channel=6, note=67, velocity=98, time=0),
    Message('note_on', channel=6, note=64, velocity=0, time=85),
    Message('note_on', channel=6, note=60, velocity=0, time=0),
    Message('note_on', channel=6, note=67, velocity=0, time=26),
    Message('note_on', channel=6, note=50, velocity=87, time=9),
    Message('control_change', channel=6, control=93, value=63, time=20),
    Message('control_change', channel=6, control=93, value=66, time=20),
    Message('note_on', channel=6, note=50, velocity=0, time=6),
    Message('control_change', channel=6, control=93, value=71, time=10),
    Message('control_change', channel=6, control=93, value=73, time=10),
    Message('control_change', channel=6, control=93, value=78, time=30),
    Message('control_change', channel=6, control=64, value=0, time=0),
    Message('control_change', channel=6, control=93, value=79, time=24),
    Message('note_on', channel=6, note=62, velocity=105, time=0),
    Message('note_on', channel=6, note=50, velocity=101, time=0),
    Message('note_on', channel=6, note=59, velocity=98, time=0),
    Message('note_on', channel=6, note=43, velocity=105, time=0),
    Message('note_on', channel=6, note=67, velocity=101, time=0),
    Message('control_change', channel=6, control=64, value=127, time=75),
    Message('note_on', channel=6, note=59, velocity=0, time=87),
    Message('note_on', channel=6, note=67, velocity=0, time=1),
    Message('note_on', channel=6, note=62, velocity=0, time=2),
    Message('note_on', channel=6, note=43, velocity=0, time=56),
    Message('note_on', channel=6, note=50, velocity=0, time=11),
    Message('note_on', channel=6, note=59, velocity=60, time=8),
    Message('note_on', channel=6, note=62, velocity=85, time=0),
    Message('note_on', channel=6, note=67, velocity=74, time=0),
    Message('note_on', channel=6, note=59, velocity=0, time=32),
    Message('note_on', channel=6, note=62, velocity=0, time=1),
    Message('note_on', channel=6, note=67, velocity=0, time=11),
    Message('note_on', channel=6, note=67, velocity=97, time=76),
    Message('note_on', channel=6, note=59, velocity=97, time=0),
    Message('note_on', channel=6, note=62, velocity=108, time=0),
    Message('note_on', channel=6, note=59, velocity=0, time=55),
    Message('note_on', channel=6, note=62, velocity=0, time=16),
    Message('note_on', channel=6, note=67, velocity=0, time=0),
    Message('control_change', channel=6, control=93, value=75, time=130),
    Message('control_change', channel=6, control=93, value=73, time=20),
    Message('control_change', channel=6, control=93, value=68, time=10),
    Message('note_on', channel=6, note=43, velocity=97, time=9),
    Message('note_on', channel=6, note=50, velocity=97, time=0),
    Message('note_on', channel=6, note=50, velocity=0, time=54),
    Message('note_on', channel=6, note=43, velocity=0, time=8),
    Message('note_on', channel=6, note=59, velocity=71, time=58),
    Message('note_on', channel=6, note=62, velocity=91, time=0),
    Message('note_on', channel=6, note=67, velocity=87, time=0),
    Message('note_on', channel=6, note=59, velocity=0, time=39),
    Message('note_on', channel=6, note=62, velocity=0, time=2),
    Message('note_on', channel=6, note=67, velocity=0, time=10),
    Message('note_on', channel=6, note=59, velocity=102, time=69),
    Message('note_on', channel=6, note=62, velocity=105, time=0),
    Message('note_on', channel=6, note=67, velocity=102, time=0),
    Message('control_change', channel=6, control=93, value=71, time=10),
    Message('control_change', channel=6, control=93, value=73, time=30),
    Message('note_on', channel=6, note=59, velocity=0, time=20),
    Message('note_on', channel=6, note=62, velocity=0, time=7),
    Message('note_on', channel=6, note=67, velocity=0, time=11),
    Message('note_on', channel=6, note=50, velocity=92, time=162),
    Message('note_on', channel=6, note=43, velocity=97, time=0),
    Message('note_on', channel=6, note=50, velocity=0, time=43),
    Message('note_on', channel=6, note=43, velocity=0, time=10),
    Message('note_on', channel=6, note=59, velocity=69, time=67),
    Message('note_on', channel=6, note=62, velocity=85, time=0),
    Message('note_on', channel=6, note=67, velocity=84, time=0),
    Message('note_on', channel=6, note=62, velocity=0, time=40),
    Message('note_on', channel=6, note=59, velocity=0, time=0),
    Message('note_on', channel=6, note=67, velocity=0, time=7),
    Message('note_on', channel=6, note=59, velocity=95, time=73),
    Message('note_on', channel=6, note=67, velocity=97, time=0),
    Message('note_on', channel=6, note=62, velocity=102, time=0),
    Message('note_on', channel=6, note=67, velocity=0, time=86),
    Message('note_on', channel=6, note=59, velocity=0, time=3),
    Message('note_on', channel=6, note=62, velocity=0, time=6),
    Message('note_on', channel=6, note=43, velocity=80, time=25),
    Message('note_on', channel=6, note=50, velocity=85, time=0),
    Message('note_on', channel=6, note=50, velocity=0, time=46),
    Message('note_on', channel=6, note=43, velocity=0, time=0),
    Message('note_on', channel=6, note=59, velocity=74, time=74),
    Message('note_on', channel=6, note=62, velocity=95, time=0),
    Message('note_on', channel=6, note=67, velocity=84, time=0),
    Message('note_on', channel=6, note=59, velocity=0, time=32),
    Message('note_on', channel=6, note=62, velocity=0, time=3),
    Message('note_on', channel=6, note=67, velocity=0, time=7),
    Message('note_on', channel=6, note=43, velocity=97, time=18),
    Message('note_on', channel=6, note=50, velocity=97, time=0),
    Message('note_on', channel=6, note=50, velocity=0, time=40),
    Message('note_on', channel=6, note=43, velocity=0, time=9),
    Message('note_on', channel=6, note=59, velocity=89, time=11),
    Message('note_on', channel=6, note=67, velocity=95, time=0),
    Message('note_on', channel=6, note=62, velocity=108, time=0),
    Message('note_on', channel=6, note=59, velocity=0, time=41),
    Message('note_on', channel=6, note=62, velocity=0, time=4),
    Message('note_on', channel=6, note=67, velocity=0, time=6),
    Message('note_on', channel=6, note=59, velocity=89, time=69),
    Message('note_on', channel=6, note=62, velocity=101, time=0),
    Message('note_on', channel=6, note=67, velocity=95, time=0),
    Message('note_on', channel=6, note=59, velocity=0, time=39),
    Message('note_on', channel=6, note=62, velocity=0, time=5),
    Message('note_on', channel=6, note=67, velocity=0, time=20),
    Message('control_change', channel=6, control=64, value=0, time=33),
    Message('note_on', channel=6, note=60, velocity=97, time=23),
    Message('note_on', channel=6, note=64, velocity=101, time=0),
    Message('note_on', channel=6, note=67, velocity=101, time=0),
    Message('note_on', channel=6, note=55, velocity=105, time=0),
    Message('note_on', channel=6, note=48, velocity=105, time=0),
    Message('control_change', channel=6, control=64, value=127, time=60),
    Message('note_on', channel=6, note=60, velocity=0, time=105),
    Message('note_on', channel=6, note=67, velocity=0, time=7),
    Message('note_on', channel=6, note=64, velocity=0, time=1),
    Message('note_on', channel=6, note=48, velocity=0, time=66),
    Message('note_on', channel=6, note=60, velocity=84, time=1),
    Message('note_on', channel=6, note=67, velocity=85, time=0),
    Message('note_on', channel=6, note=64, velocity=92, time=0),
    Message('note_on', channel=6, note=55, velocity=0, time=1),
    Message('note_on', channel=6, note=60, velocity=0, time=43),
    Message('note_on', channel=6, note=64, velocity=0, time=0),
    Message('note_on', channel=6, note=67, velocity=0, time=9),
    Message('note_on', channel=6, note=64, velocity=102, time=67),
    Message('note_on', channel=6, note=60, velocity=97, time=0),
    Message('note_on', channel=6, note=67, velocity=98, time=0),
    Message('note_on', channel=6, note=60, velocity=0, time=62),
    Message('note_on', channel=6, note=64, velocity=0, time=7),
    Message('note_on', channel=6, note=67, velocity=0, time=9),
    Message('note_on', channel=6, note=55, velocity=95, time=42),
    Message('note_on', channel=6, note=48, velocity=92, time=0),
    Message('note_on', channel=6, note=55, velocity=0, time=47),
    Message('note_on', channel=6, note=48, velocity=0, time=7),
    Message('note_on', channel=6, note=64, velocity=97, time=66),
    Message('note_on', channel=6, note=60, velocity=95, time=0),
    Message('note_on', channel=6, note=67, velocity=92, time=0),
    Message('note_on', channel=6, note=64, velocity=0, time=39),
    Message('note_on', channel=6, note=60, velocity=0, time=3),
    Message('note_on', channel=6, note=67, velocity=0, time=9),
    Message('note_on', channel=6, note=64, velocity=98, time=69),
    Message('note_on', channel=6, note=60, velocity=95, time=0),
    Message('note_on', channel=6, note=67, velocity=97, time=0),
    Message('note_on', channel=6, note=60, velocity=0, time=43),
    Message('note_on', channel=6, note=64, velocity=0, time=3),
    Message('note_on', channel=6, note=67, velocity=0, time=9),
    Message('control_change', channel=6, control=64, value=0, time=62),
    Message('note_on', channel=6, note=60, velocity=105, time=3),
    Message('note_on', channel=6, note=67, velocity=102, time=0),
    Message('note_on', channel=6, note=64, velocity=113, time=0),
    Message('note_on', channel=6, note=57, velocity=113, time=0),
    Message('control_change', channel=6, control=64, value=127, time=94),
    Message('note_on', channel=6, note=60, velocity=0, time=88),
    Message('note_on', channel=6, note=67, velocity=0, time=7),
    Message('note_on', channel=6, note=64, velocity=0, time=0),
    Message('note_on', channel=6, note=57, velocity=0, time=40),
    Message('note_on', channel=6, note=64, velocity=95, time=11),
    Message('note_on', channel=6, note=60, velocity=89, time=0),
    Message('note_on', channel=6, note=67, velocity=84, time=0),
    Message('note_on', channel=6, note=60, velocity=0, time=51),
    Message('note_on', channel=6, note=64, velocity=0, time=0),
    Message('note_on', channel=6, note=67, velocity=0, time=11),
    Message('note_on', channel=6, note=64, velocity=102, time=58),
    Message('note_on', channel=6, note=60, velocity=95, time=0),
    Message('note_on', channel=6, note=67, velocity=98, time=0),
    Message('note_on', channel=6, note=60, velocity=0, time=76),
    Message('note_on', channel=6, note=64, velocity=0, time=2),
    Message('note_on', channel=6, note=67, velocity=0, time=10),
    Message('note_on', channel=6, note=57, velocity=110, time=32),
    Message('note_on', channel=6, note=57, velocity=0, time=56),
    Message('note_on', channel=6, note=64, velocity=97, time=64),
    Message('note_on', channel=6, note=60, velocity=95, time=0),
    Message('note_on', channel=6, note=67, velocity=97, time=0),
    Message('note_on', channel=6, note=64, velocity=0, time=46),
    Message('note_on', channel=6, note=60, velocity=0, time=2),
    Message('note_on', channel=6, note=67, velocity=0, time=8),
    Message('note_on', channel=6, note=67, velocity=98, time=64),
    Message('note_on', channel=6, note=60, velocity=98, time=0),
    Message('note_on', channel=6, note=64, velocity=105, time=0),
    Message('note_on', channel=6, note=60, velocity=0, time=57),
    Message('note_on', channel=6, note=64, velocity=0, time=4),
    Message('note_on', channel=6, note=67, velocity=0, time=2),
    Message('note_on', channel=6, note=60, velocity=92, time=57),
    Message('note_on', channel=6, note=64, velocity=98, time=0),
    Message('note_on', channel=6, note=67, velocity=97, time=0),
    Message('note_on', channel=6, note=60, velocity=0, time=45),
    Message('note_on', channel=6, note=64, velocity=0, time=3),
    Message('note_on', channel=6, note=67, velocity=0, time=17),
    Message('note_on', channel=6, note=64, velocity=95, time=55),
    Message('note_on', channel=6, note=60, velocity=92, time=0),
    Message('note_on', channel=6, note=67, velocity=98, time=0),
    Message('note_on', channel=6, note=64, velocity=0, time=36),
    Message('note_on', channel=6, note=60, velocity=0, time=7),
    Message('note_on', channel=6, note=67, velocity=0, time=15),
    Message('control_change', channel=6, control=64, value=0, time=30),
    Message('note_on', channel=6, note=62, velocity=105, time=32),
    Message('note_on', channel=6, note=59, velocity=95, time=0),
    Message('note_on', channel=6, note=67, velocity=97, time=0),
    Message('note_on', channel=6, note=43, velocity=98, time=0),
    Message('note_on', channel=6, note=50, velocity=101, time=0),
    Message('control_change', channel=6, control=64, value=127, time=56),
    Message('note_on', channel=6, note=59, velocity=0, time=83),
    Message('note_on', channel=6, note=62, velocity=0, time=5),
    Message('note_on', channel=6, note=67, velocity=0, time=3),
    Message('note_on', channel=6, note=43, velocity=0, time=71),
    Message('note_on', channel=6, note=50, velocity=0, time=4),
    Message('note_on', channel=6, note=62, velocity=97, time=18),
    Message('note_on', channel=6, note=59, velocity=87, time=0),
    Message('note_on', channel=6, note=67, velocity=92, time=0),
    Message('note_on', channel=6, note=62, velocity=0, time=50),
    Message('note_on', channel=6, note=59, velocity=0, time=7),
    Message('note_on', channel=6, note=67, velocity=0, time=13),
    Message('note_on', channel=6, note=43, velocity=78, time=50),
    Message('note_on', channel=6, note=50, velocity=92, time=0),
    Message('note_on', channel=6, note=43, velocity=0, time=30),
    Message('note_on', channel=6, note=50, velocity=0, time=11),
    Message('note_on', channel=6, note=59, velocity=81, time=79),
    Message('note_on', channel=6, note=67, velocity=80, time=0),
    Message('note_on', channel=6, note=62, velocity=97, time=0),
    Message('note_on', channel=6, note=59, velocity=0, time=38),
    Message('note_on', channel=6, note=62, velocity=0, time=1),
    Message('note_on', channel=6, note=67, velocity=0, time=2),
    Message('note_on', channel=6, note=59, velocity=81, time=79),
    Message('note_on', channel=6, note=67, velocity=91, time=0),
    Message('note_on', channel=6, note=62, velocity=102, time=0),
    Message('note_on', channel=6, note=59, velocity=0, time=42),
    Message('note_on', channel=6, note=62, velocity=0, time=2),
    Message('note_on', channel=6, note=67, velocity=0, time=10),
    Message('note_on', channel=6, note=43, velocity=91, time=66),
    Message('note_on', channel=6, note=50, velocity=95, time=0),
    Message('note_on', channel=6, note=43, velocity=0, time=35),
    Message('note_on', channel=6, note=50, velocity=0, time=1),
    Message('note_on', channel=6, note=59, velocity=80, time=84),
    Message('note_on', channel=6, note=67, velocity=81, time=0),
    Message('note_on', channel=6, note=62, velocity=95, time=0),
    Message('note_on', channel=6, note=62, velocity=0, time=36),
    Message('note_on', channel=6, note=59, velocity=0, time=2),
    Message('note_on', channel=6, note=67, velocity=0, time=6),
    Message('note_on', channel=6, note=62, velocity=101, time=76),
    Message('note_on', channel=6, note=59, velocity=87, time=0),
    Message('note_on', channel=6, note=67, velocity=101, time=0),
    Message('note_on', channel=6, note=62, velocity=0, time=54),
    Message('note_on', channel=6, note=59, velocity=0, time=15),
    Message('note_on', channel=6, note=67, velocity=0, time=11),
    Message('note_on', channel=6, note=50, velocity=84, time=40),
    Message('note_on', channel=6, note=43, velocity=81, time=0),
    Message('note_on', channel=6, note=43, velocity=0, time=36),
    Message('note_on', channel=6, note=50, velocity=0, time=3),
    Message('note_on', channel=6, note=62, velocity=92, time=81),
    Message('note_on', channel=6, note=67, velocity=87, time=0),
    Message('note_on', channel=6, note=59, velocity=78, time=0),
    Message('note_on', channel=6, note=62, velocity=0, time=38),
    Message('note_on', channel=6, note=67, velocity=0, time=3),
    Message('note_on', channel=6, note=59, velocity=0, time=2),
    Message('note_on', channel=6, note=50, velocity=102, time=77),
    Message('note_on', channel=6, note=43, velocity=98, time=0),
    Message('note_on', channel=6, note=50, velocity=0, time=37),
    Message('note_on', channel=6, note=43, velocity=0, time=5),
    Message('note_on', channel=6, note=62, velocity=92, time=78),
    Message('note_on', channel=6, note=59, velocity=80, time=0),
    Message('note_on', channel=6, note=67, velocity=85, time=0),
    Message('note_on', channel=6, note=62, velocity=0, time=35),
    Message('note_on', channel=6, note=59, velocity=0, time=5),
    Message('note_on', channel=6, note=67, velocity=0, time=8),
    Message('note_on', channel=6, note=62, velocity=102, time=72),
    Message('note_on', channel=6, note=59, velocity=85, time=0),
    Message('note_on', channel=6, note=67, velocity=97, time=0),
    Message('note_on', channel=6, note=62, velocity=0, time=40),
    Message('note_on', channel=6, note=59, velocity=0, time=2),
    Message('note_on', channel=6, note=67, velocity=0, time=13),
    Message('note_on', channel=6, note=43, velocity=98, time=65),
    Message('note_on', channel=6, note=50, velocity=102, time=0),
    Message('note_on', channel=6, note=50, velocity=0, time=49),
    Message('note_on', channel=6, note=43, velocity=0, time=11),
    Message('note_on', channel=6, note=62, velocity=87, time=60),
    Message('note_on', channel=6, note=59, velocity=71, time=0),
    Message('note_on', channel=6, note=67, velocity=81, time=0),
    Message('note_on', channel=6, note=62, velocity=0, time=36),
    Message('note_on', channel=6, note=59, velocity=0, time=3),
    Message('note_on', channel=6, note=67, velocity=0, time=2),
    Message('control_change', channel=6, control=64, value=0, time=22),
    Message('note_on', channel=6, note=59, velocity=92, time=57),
    Message('note_on', channel=6, note=67, velocity=97, time=0),
    Message('note_on', channel=6, note=62, velocity=102, time=0),
    Message('note_on', channel=6, note=50, velocity=108, time=0),
    Message('note_on', channel=6, note=43, velocity=102, time=0),
    Message('control_change', channel=6, control=64, value=127, time=68),
    Message('note_on', channel=6, note=67, velocity=0, time=96),
    Message('note_on', channel=6, note=59, velocity=0, time=1),
    Message('note_on', channel=6, note=62, velocity=0, time=5),
    Message('note_on', channel=6, note=62, velocity=95, time=70),
    Message('note_on', channel=6, note=67, velocity=87, time=0),
    Message('note_on', channel=6, note=59, velocity=85, time=0),
    Message('note_on', channel=6, note=50, velocity=0, time=7),
    Message('note_on', channel=6, note=43, velocity=0, time=5),
    Message('note_on', channel=6, note=62, velocity=0, time=61),
    Message('note_on', channel=6, note=67, velocity=0, time=10),
    Message('note_on', channel=6, note=59, velocity=0, time=1),
    Message('note_on', channel=6, note=43, velocity=85, time=36),
    Message('note_on', channel=6, note=50, velocity=95, time=0),
    Message('note_on', channel=6, note=43, velocity=0, time=32),
    Message('note_on', channel=6, note=50, velocity=0, time=16),
    Message('note_on', channel=6, note=59, velocity=69, time=72),
    Message('note_on', channel=6, note=62, velocity=91, time=0),
    Message('note_on', channel=6, note=67, velocity=87, time=0),
    Message('note_on', channel=6, note=62, velocity=0, time=35),
    Message('note_on', channel=6, note=59, velocity=0, time=5),
    Message('note_on', channel=6, note=67, velocity=0, time=2),
    Message('note_on', channel=6, note=67, velocity=85, time=78),
    Message('note_on', channel=6, note=59, velocity=89, time=0),
    Message('note_on', channel=6, note=62, velocity=101, time=0),
    Message('note_on', channel=6, note=62, velocity=0, time=53),
    Message('note_on', channel=6, note=59, velocity=0, time=0),
    Message('note_on', channel=6, note=67, velocity=0, time=9),
    Message('note_on', channel=6, note=43, velocity=97, time=58),
    Message('note_on', channel=6, note=50, velocity=98, time=0),
    Message('note_on', channel=6, note=43, velocity=0, time=38),
    Message('note_on', channel=6, note=50, velocity=0, time=2),
    Message('note_on', channel=6, note=59, velocity=80, time=80),
    Message('note_on', channel=6, note=67, velocity=81, time=0),
    Message('note_on', channel=6, note=62, velocity=98, time=0),
    Message('note_on', channel=6, note=59, velocity=0, time=42),
    Message('note_on', channel=6, note=62, velocity=0, time=1),
    Message('note_on', channel=6, note=67, velocity=0, time=6),
    Message('note_on', channel=6, note=59, velocity=85, time=71),
    Message('note_on', channel=6, note=62, velocity=97, time=0),
    Message('note_on', channel=6, note=50, velocity=85, time=0),
    Message('note_on', channel=6, note=67, velocity=84, time=0),
    Message('note_on', channel=6, note=43, velocity=85, time=0),
    Message('note_on', channel=6, note=62, velocity=0, time=40),
    Message('note_on', channel=6, note=59, velocity=0, time=2),
    Message('note_on', channel=6, note=43, velocity=0, time=0),
    Message('note_on', channel=6, note=50, velocity=0, time=0),
    Message('note_on', channel=6, note=67, velocity=0, time=11),
    Message('note_on', channel=6, note=59, velocity=66, time=67),
    Message('note_on', channel=6, note=62, velocity=84, time=0),
    Message('note_on', channel=6, note=67, velocity=71, time=0),
    Message('note_on', channel=6, note=62, velocity=0, time=30),
    Message('note_on', channel=6, note=59, velocity=0, time=5),
    Message('note_on', channel=6, note=67, velocity=0, time=3),
    Message('note_on', channel=6, note=50, velocity=81, time=22),
    Message('note_on', channel=6, note=43, velocity=84, time=0),
    Message('note_on', channel=6, note=50, velocity=0, time=32),
    Message('note_on', channel=6, note=43, velocity=0, time=1),
    Message('note_on', channel=6, note=59, velocity=85, time=27),
    Message('note_on', channel=6, note=67, velocity=91, time=0),
    Message('note_on', channel=6, note=62, velocity=98, time=0),
    Message('note_on', channel=6, note=62, velocity=0, time=43),
    Message('note_on', channel=6, note=59, velocity=0, time=2),
    Message('note_on', channel=6, note=67, velocity=0, time=14),
    Message('note_on', channel=6, note=50, velocity=101, time=61),
    Message('note_on', channel=6, note=43, velocity=95, time=0),
    Message('note_on', channel=6, note=50, velocity=0, time=39),
    Message('note_on', channel=6, note=43, velocity=0, time=3),
    Message('note_on', channel=6, note=59, velocity=78, time=78),
    Message('note_on', channel=6, note=67, velocity=87, time=0),
    Message('note_on', channel=6, note=62, velocity=92, time=0),
    Message('note_on', channel=6, note=62, velocity=0, time=52),
    Message('note_on', channel=6, note=59, velocity=0, time=0),
    Message('note_on', channel=6, note=67, velocity=0, time=6),
    Message('note_on', channel=6, note=43, velocity=85, time=62),
    Message('note_on', channel=6, note=50, velocity=95, time=0),
    Message('note_on', channel=6, note=43, velocity=0, time=28),
    Message('note_on', channel=6, note=50, velocity=0, time=11),
    Message('note_on', channel=6, note=59, velocity=85, time=81),
    Message('note_on', channel=6, note=62, velocity=97, time=0),
    Message('note_on', channel=6, note=67, velocity=85, time=0),
    Message('note_on', channel=6, note=62, velocity=0, time=45),
    Message('note_on', channel=6, note=59, velocity=0, time=0),
    Message('note_on', channel=6, note=67, velocity=0, time=14),
    Message('note_on', channel=6, note=50, velocity=87, time=61),
    Message('note_on', channel=6, note=43, velocity=84, time=0),
    Message('note_on', channel=6, note=43, velocity=0, time=31),
    Message('note_on', channel=6, note=50, velocity=0, time=1),
    Message('control_change', channel=6, control=64, value=0, time=73),
    Message('note_on', channel=6, note=50, velocity=95, time=15),
    Message('note_on', channel=6, note=43, velocity=92, time=0),
    Message('note_on', channel=6, note=59, velocity=84, time=0),
    Message('note_on', channel=6, note=62, velocity=98, time=0),
    Message('note_on', channel=6, note=67, velocity=87, time=0),
    Message('control_change', channel=6, control=64, value=127, time=74),
    Message('note_on', channel=6, note=43, velocity=0, time=68),
    Message('note_on', channel=6, note=50, velocity=0, time=1),
    Message('note_on', channel=6, note=59, velocity=0, time=6),
    Message('note_on', channel=6, note=67, velocity=0, time=5),
    Message('note_on', channel=6, note=62, velocity=0, time=8),
    Message('note_on', channel=6, note=59, velocity=87, time=78),
    Message('note_on', channel=6, note=62, velocity=105, time=0),
    Message('note_on', channel=6, note=67, velocity=101, time=0),
    Message('note_on', channel=6, note=59, velocity=0, time=48),
    Message('note_on', channel=6, note=62, velocity=0, time=5),
    Message('note_on', channel=6, note=67, velocity=0, time=9),
    Message('note_on', channel=6, note=59, velocity=74, time=58),
    Message('note_on', channel=6, note=62, velocity=95, time=0),
    Message('note_on', channel=6, note=67, velocity=92, time=0),
    Message('note_on', channel=6, note=59, velocity=0, time=33),
    Message('note_on', channel=6, note=62, velocity=0, time=7),
    Message('note_on', channel=6, note=67, velocity=0, time=14),
    Message('control_change', channel=6, control=64, value=0, time=47),
    Message('note_on', channel=6, note=62, velocity=80, time=19),
    Message('note_on', channel=6, note=69, velocity=89, time=0),
    Message('note_on', channel=6, note=66, velocity=87, time=0),
    Message('note_on', channel=6, note=57, velocity=89, time=0),
    Message('note_on', channel=6, note=50, velocity=98, time=0),
    Message('control_change', channel=6, control=64, value=127, time=71),
    Message('note_on', channel=6, note=57, velocity=0, time=31),
    Message('note_on', channel=6, note=57, velocity=97, time=18),
    Message('note_on', channel=6, note=62, velocity=0, time=26),
    Message('note_on', channel=6, note=69, velocity=0, time=5),
    Message('note_on', channel=6, note=66, velocity=0, time=4),
    Message('note_on', channel=6, note=57, velocity=0, time=14),
    Message('note_on', channel=6, note=50, velocity=0, time=42),
    Message('note_on', channel=6, note=62, velocity=87, time=29),
    Message('note_on', channel=6, note=69, velocity=97, time=0),
    Message('note_on', channel=6, note=66, velocity=92, time=0),
    Message('note_on', channel=6, note=66, velocity=0, time=39),
    Message('note_on', channel=6, note=62, velocity=0, time=3),
    Message('note_on', channel=6, note=69, velocity=0, time=10),
    Message('note_on', channel=6, note=60, velocity=97, time=68),
    Message('note_on', channel=6, note=64, velocity=101, time=0),
    Message('note_on', channel=6, note=67, velocity=98, time=0),
    Message('control_change', channel=6, control=64, value=0, time=19),
    Message('control_change', channel=6, control=64, value=127, time=91),
    Message('note_on', channel=6, note=55, velocity=92, time=10),
    Message('note_on', channel=6, note=48, velocity=97, time=0),
    Message('note_on', channel=6, note=60, velocity=0, time=48),
    Message('note_on', channel=6, note=64, velocity=0, time=6),
    Message('note_on', channel=6, note=67, velocity=0, time=2),
    Message('note_on', channel=6, note=55, velocity=0, time=24),
    Message('note_on', channel=6, note=48, velocity=0, time=8),
    Message('note_on', channel=6, note=67, velocity=85, time=32),
    Message('note_on', channel=6, note=64, velocity=92, time=0),
    Message('note_on', channel=6, note=60, velocity=80, time=0),
    Message('note_on', channel=6, note=64, velocity=0, time=57),
    Message('note_on', channel=6, note=60, velocity=0, time=1),
    Message('note_on', channel=6, note=67, velocity=0, time=8),
    Message('note_on', channel=6, note=48, velocity=101, time=54),
    Message('note_on', channel=6, note=55, velocity=101, time=0),
    Message('note_on', channel=6, note=55, velocity=0, time=47),
    Message('note_on', channel=6, note=48, velocity=0, time=4),
    Message('note_on', channel=6, note=60, velocity=73, time=69),
    Message('note_on', channel=6, note=67, velocity=74, time=0),
    Message('note_on', channel=6, note=64, velocity=81, time=0),
    Message('note_on', channel=6, note=64, velocity=0, time=40),
    Message('note_on', channel=6, note=67, velocity=0, time=0),
    Message('note_on', channel=6, note=60, velocity=0, time=1),
    Message('note_on', channel=6, note=64, velocity=98, time=79),
    Message('note_on', channel=6, note=60, velocity=85, time=0),
    Message('note_on', channel=6, note=67, velocity=84, time=0),
    Message('note_on', channel=6, note=48, velocity=97, time=120),
    Message('note_on', channel=6, note=55, velocity=97, time=0),
    Message('note_on', channel=6, note=60, velocity=0, time=4),
    Message('note_on', channel=6, note=64, velocity=0, time=0),
    Message('note_on', channel=6, note=67, velocity=0, time=5),
    Message('note_on', channel=6, note=55, velocity=0, time=40),
    Message('note_on', channel=6, note=48, velocity=0, time=13),
    Message('note_on', channel=6, note=64, velocity=92, time=58),
    Message('note_on', channel=6, note=60, velocity=84, time=0),
    Message('note_on', channel=6, note=67, velocity=85, time=0),
    Message('note_on', channel=6, note=64, velocity=0, time=98),
    Message('note_on', channel=6, note=60, velocity=0, time=5),
    Message('note_on', channel=6, note=67, velocity=0, time=8),
    Message('note_on', channel=6, note=43, velocity=97, time=9),
    Message('note_on', channel=6, note=50, velocity=97, time=0),
    Message('note_on', channel=6, note=43, velocity=0, time=45),
    Message('note_on', channel=6, note=50, velocity=0, time=3),
    Message('control_change', channel=6, control=64, value=0, time=53),
    Message('note_on', channel=6, note=50, velocity=97, time=19),
    Message('note_on', channel=6, note=43, velocity=95, time=0),
    Message('note_on', channel=6, note=62, velocity=92, time=0),
    Message('note_on', channel=6, note=59, velocity=81, time=0),
    Message('note_on', channel=6, note=67, velocity=85, time=0),
    Message('control_change', channel=6, control=64, value=127, time=86),
    Message('note_on', channel=6, note=59, velocity=0, time=77),
    Message('note_on', channel=6, note=62, velocity=0, time=9),
    Message('note_on', channel=6, note=67, velocity=0, time=3),
    Message('note_on', channel=6, note=43, velocity=0, time=55),
    Message('note_on', channel=6, note=50, velocity=0, time=0),
    Message('note_on', channel=6, note=62, velocity=98, time=10),
    Message('note_on', channel=6, note=59, velocity=81, time=0),
    Message('note_on', channel=6, note=67, velocity=97, time=0),
    Message('note_on', channel=6, note=62, velocity=0, time=49),
    Message('note_on', channel=6, note=59, velocity=0, time=2),
    Message('note_on', channel=6, note=67, velocity=0, time=10),
    Message('note_on', channel=6, note=59, velocity=73, time=59),
    Message('note_on', channel=6, note=67, velocity=80, time=0),
    Message('note_on', channel=6, note=62, velocity=87, time=0),
    Message('note_on', channel=6, note=62, velocity=0, time=34),
    Message('note_on', channel=6, note=59, velocity=0, time=1),
    Message('note_on', channel=6, note=67, velocity=0, time=4),
    Message('note_on', channel=6, note=50, velocity=91, time=21),
    Message('note_on', channel=6, note=43, velocity=87, time=0),
    Message('note_on', channel=6, note=50, velocity=0, time=32),
    Message('note_on', channel=6, note=43, velocity=0, time=2),
    Message('note_on', channel=6, note=62, velocity=97, time=26),
    Message('note_on', channel=6, note=59, velocity=81, time=0),
    Message('note_on', channel=6, note=67, velocity=87, time=0),
    Message('note_on', channel=6, note=62, velocity=0, time=67),
    Message('note_on', channel=6, note=59, velocity=0, time=5),
    Message('note_on', channel=6, note=67, velocity=0, time=6),
    Message('note_on', channel=6, note=50, velocity=101, time=42),
    Message('note_on', channel=6, note=43, velocity=98, time=0),
    Message('note_on', channel=6, note=50, velocity=0, time=48),
    Message('note_on', channel=6, note=43, velocity=0, time=5),
    Message('note_on', channel=6, note=59, velocity=87, time=67),
    Message('note_on', channel=6, note=62, velocity=98, time=0),
    Message('note_on', channel=6, note=67, velocity=91, time=0),
    Message('note_on', channel=6, note=59, velocity=0, time=44),
    Message('note_on', channel=6, note=62, velocity=0, time=1),
    Message('note_on', channel=6, note=67, velocity=0, time=12),
    Message('note_on', channel=6, note=50, velocity=102, time=63),
    Message('note_on', channel=6, note=57, velocity=98, time=0),
    Message('control_change', channel=6, control=64, value=0, time=55),
    Message('control_change', channel=6, control=64, value=127, time=87),
    Message('note_on', channel=6, note=62, velocity=97, time=98),
    Message('note_on', channel=6, note=69, velocity=98, time=0),
    Message('note_on', channel=6, note=66, velocity=98, time=0),
    Message('note_on', channel=6, note=57, velocity=0, time=18),
    Message('note_on', channel=6, note=50, velocity=0, time=7),
    Message('note_on', channel=6, note=69, velocity=0, time=81),
    Message('note_on', channel=6, note=62, velocity=0, time=2),
    Message('note_on', channel=6, note=66, velocity=0, time=2),
    Message('note_on', channel=6, note=50, velocity=95, time=10),
    Message('note_on', channel=6, note=57, velocity=84, time=0),
    Message('note_on', channel=6, note=50, velocity=0, time=49),
    Message('note_on', channel=6, note=57, velocity=0, time=1),
    Message('note_on', channel=6, note=62, velocity=84, time=70),
    Message('note_on', channel=6, note=69, velocity=87, time=0),
    Message('note_on', channel=6, note=66, velocity=84, time=0),
    Message('note_on', channel=6, note=62, velocity=0, time=45),
    Message('note_on', channel=6, note=69, velocity=0, time=3),
    Message('note_on', channel=6, note=66, velocity=0, time=1),
    Message('note_on', channel=6, note=62, velocity=85, time=71),
    Message('note_on', channel=6, note=66, velocity=89, time=0),
    Message('note_on', channel=6, note=69, velocity=95, time=0),
    Message('note_on', channel=6, note=69, velocity=0, time=96),
    Message('note_on', channel=6, note=62, velocity=0, time=18),
    Message('note_on', channel=6, note=66, velocity=0, time=3),
    Message('note_on', channel=6, note=50, velocity=97, time=3),
    Message('note_on', channel=6, note=57, velocity=89, time=0),
    Message('note_on', channel=6, note=57, velocity=0, time=51),
    Message('note_on', channel=6, note=50, velocity=0, time=13),
    Message('note_on', channel=6, note=62, velocity=85, time=56),
    Message('note_on', channel=6, note=66, velocity=92, time=0),
    Message('note_on', channel=6, note=62, velocity=0, time=87),
    Message('note_on', channel=6, note=66, velocity=0, time=8),
    Message('note_on', channel=6, note=55, velocity=98, time=25),
    Message('note_on', channel=6, note=55, velocity=0, time=46),
    Message('control_change', channel=6, control=64, value=0, time=55),
    Message('note_on', channel=6, note=55, velocity=101, time=19),
    Message('note_on', channel=6, note=48, velocity=101, time=0),
    Message('note_on', channel=6, note=64, velocity=95, time=0),
    Message('note_on', channel=6, note=67, velocity=84, time=0),
    Message('note_on', channel=6, note=60, velocity=85, time=0),
    Message('control_change', channel=6, control=64, value=127, time=75),
    Message('note_on', channel=6, note=60, velocity=0, time=32),
    Message('note_on', channel=6, note=64, velocity=0, time=1),
    Message('note_on', channel=6, note=67, velocity=0, time=8),
    Message('note_on', channel=6, note=55, velocity=0, time=118),
    Message('note_on', channel=6, note=48, velocity=0, time=2),
    Message('note_on', channel=6, note=67, velocity=89, time=4),
    Message('note_on', channel=6, note=64, velocity=92, time=0),
    Message('note_on', channel=6, note=60, velocity=85, time=0),
    Message('note_on', channel=6, note=64, velocity=0, time=111),
    Message('note_on', channel=6, note=67, velocity=0, time=0),
    Message('note_on', channel=6, note=60, velocity=0, time=4),
    Message('note_on', channel=6, note=48, velocity=80, time=5),
    Message('note_on', channel=6, note=55, velocity=87, time=0),
    Message('note_on', channel=6, note=48, velocity=0, time=37),
    Message('note_on', channel=6, note=55, velocity=0, time=14),
    Message('note_on', channel=6, note=64, velocity=87, time=69),
    Message('note_on', channel=6, note=60, velocity=84, time=0),
    Message('note_on', channel=6, note=67, velocity=85, time=0),
    Message('note_on', channel=6, note=64, velocity=0, time=43),
    Message('note_on', channel=6, note=60, velocity=0, time=4),
    Message('note_on', channel=6, note=67, velocity=0, time=5),
    Message('note_on', channel=6, note=64, velocity=101, time=68),
    Message('note_on', channel=6, note=67, velocity=95, time=0),
    Message('note_on', channel=6, note=60, velocity=95, time=0),
    Message('note_on', channel=6, note=64, velocity=0, time=76),
    Message('note_on', channel=6, note=67, velocity=0, time=1),
    Message('note_on', channel=6, note=60, velocity=0, time=3),
    Message('note_on', channel=6, note=64, velocity=92, time=160),
    Message('note_on', channel=6, note=60, velocity=91, time=0),
    Message('note_on', channel=6, note=67, velocity=89, time=0),
    Message('note_on', channel=6, note=64, velocity=0, time=39),
    Message('note_on', channel=6, note=60, velocity=0, time=7),
    Message('note_on', channel=6, note=67, velocity=0, time=15),
    Message('control_change', channel=6, control=64, value=0, time=23),
    Message('note_on', channel=6, note=59, velocity=84, time=36),
    Message('note_on', channel=6, note=62, velocity=98, time=0),
    Message('note_on', channel=6, note=67, velocity=89, time=0),
    Message('note_on', channel=6, note=50, velocity=85, time=0),
    Message('note_on', channel=6, note=43, velocity=89, time=0),
    Message('control_change', channel=6, control=64, value=127, time=70),
    Message('note_on', channel=6, note=67, velocity=0, time=89),
    Message('note_on', channel=6, note=59, velocity=0, time=3),
    Message('note_on', channel=6, note=62, velocity=0, time=4),
    Message('note_on', channel=6, note=50, velocity=0, time=68),
    Message('note_on', channel=6, note=43, velocity=0, time=2),
    Message('note_on', channel=6, note=62, velocity=95, time=4),
    Message('note_on', channel=6, note=67, velocity=85, time=0),
    Message('note_on', channel=6, note=59, velocity=87, time=0),
    Message('note_on', channel=6, note=62, velocity=0, time=40),
    Message('note_on', channel=6, note=59, velocity=0, time=7),
    Message('note_on', channel=6, note=67, velocity=0, time=4),
    Message('note_on', channel=6, note=67, velocity=74, time=69),
    Message('note_on', channel=6, note=62, velocity=81, time=0),
    Message('note_on', channel=6, note=59, velocity=68, time=0),
    Message('note_on', channel=6, note=67, velocity=0, time=34),
    Message('note_on', channel=6, note=62, velocity=0, time=4),
    Message('note_on', channel=6, note=59, velocity=0, time=5),
    Message('note_on', channel=6, note=43, velocity=89, time=17),
    Message('note_on', channel=6, note=50, velocity=92, time=0),
    Message('note_on', channel=6, note=43, velocity=0, time=36),
    Message('note_on', channel=6, note=50, velocity=0, time=1),
    Message('note_on', channel=6, note=62, velocity=92, time=23),
    Message('note_on', channel=6, note=59, velocity=81, time=0),
    Message('note_on', channel=6, note=67, velocity=84, time=0),
    Message('note_on', channel=6, note=62, velocity=0, time=78),
    Message('note_on', channel=6, note=59, velocity=0, time=4),
    Message('note_on', channel=6, note=67, velocity=0, time=7),
    Message('note_on', channel=6, note=43, velocity=87, time=31),
    Message('note_on', channel=6, note=50, velocity=97, time=0),
    Message('note_on', channel=6, note=50, velocity=0, time=52),
    Message('note_on', channel=6, note=43, velocity=0, time=1),
    Message('note_on', channel=6, note=59, velocity=89, time=67),
    Message('note_on', channel=6, note=62, velocity=98, time=0),
    Message('note_on', channel=6, note=67, velocity=92, time=0),
    Message('note_on', channel=6, note=62, velocity=0, time=53),
    Message('note_on', channel=6, note=59, velocity=0, time=1),
    Message('note_on', channel=6, note=67, velocity=0, time=2),
    Message('note_on', channel=6, note=43, velocity=85, time=64),
    Message('note_on', channel=6, note=50, velocity=97, time=0),
    Message('note_on', channel=6, note=50, velocity=0, time=42),
    Message('note_on', channel=6, note=43, velocity=0, time=8),
    Message('control_change', channel=6, control=64, value=0, time=51),
    Message('note_on', channel=6, note=52, velocity=89, time=19),
    Message('note_on', channel=6, note=55, velocity=101, time=0),
    Message('note_on', channel=6, note=59, velocity=89, time=0),
    Message('control_change', channel=6, control=64, value=127, time=70),
    Message('note_on', channel=6, note=52, velocity=0, time=86),
    Message('note_on', channel=6, note=59, velocity=0, time=2),
    Message('note_on', channel=6, note=55, velocity=0, time=7),
    Message('note_on', channel=6, note=52, velocity=95, time=75),
    Message('note_on', channel=6, note=55, velocity=101, time=0),
    Message('note_on', channel=6, note=59, velocity=95, time=0),
    Message('note_on', channel=6, note=52, velocity=0, time=76),
    Message('note_on', channel=6, note=55, velocity=0, time=4),
    Message('note_on', channel=6, note=59, velocity=0, time=9),
    Message('note_on', channel=6, note=40, velocity=92, time=31),
    Message('note_on', channel=6, note=40, velocity=0, time=52),
    Message('note_on', channel=6, note=52, velocity=81, time=68),
    Message('note_on', channel=6, note=55, velocity=98, time=0),
    Message('note_on', channel=6, note=59, velocity=95, time=0),
    Message('note_on', channel=6, note=55, velocity=0, time=39),
    Message('note_on', channel=6, note=52, velocity=0, time=2),
    Message('note_on', channel=6, note=59, velocity=0, time=7),
    Message('note_on', channel=6, note=55, velocity=98, time=72),
    Message('note_on', channel=6, note=59, velocity=95, time=0),
    Message('note_on', channel=6, note=52, velocity=87, time=0),
    Message('note_on', channel=6, note=52, velocity=0, time=52),
    Message('note_on', channel=6, note=55, velocity=0, time=5),
    Message('note_on', channel=6, note=59, velocity=0, time=4),
    Message('note_on', channel=6, note=55, velocity=105, time=179),
    Message('note_on', channel=6, note=52, velocity=95, time=0),
    Message('note_on', channel=6, note=59, velocity=97, time=0),
    Message('note_on', channel=6, note=52, velocity=0, time=54),
    Message('note_on', channel=6, note=55, velocity=0, time=2),
    Message('note_on', channel=6, note=59, velocity=0, time=8),
    Message('note_on', channel=6, note=52, velocity=89, time=176),
    Message('note_on', channel=6, note=55, velocity=101, time=0),
    Message('note_on', channel=6, note=59, velocity=95, time=0),
    Message('note_on', channel=6, note=52, velocity=0, time=61),
    Message('note_on', channel=6, note=55, velocity=0, time=1),
    Message('note_on', channel=6, note=59, velocity=0, time=11),
    Message('note_on', channel=6, note=40, velocity=89, time=47),
    Message('note_on', channel=6, note=40, velocity=0, time=40),
    Message('note_on', channel=6, note=52, velocity=84, time=80),
    Message('note_on', channel=6, note=55, velocity=98, time=0),
    Message('note_on', channel=6, note=59, velocity=87, time=0),
    Message('note_on', channel=6, note=52, velocity=0, time=40),
    Message('note_on', channel=6, note=55, velocity=0, time=2),
    Message('note_on', channel=6, note=59, velocity=0, time=6),
    Message('note_on', channel=6, note=52, velocity=91, time=72),
    Message('note_on', channel=6, note=55, velocity=101, time=0),
    Message('note_on', channel=6, note=59, velocity=95, time=0),
    Message('note_on', channel=6, note=52, velocity=0, time=52),
    Message('note_on', channel=6, note=55, velocity=0, time=5),
    Message('note_on', channel=6, note=59, velocity=0, time=9),
    Message('note_on', channel=6, note=52, velocity=95, time=54),
    Message('note_on', channel=6, note=52, velocity=0, time=53),
    Message('note_on', channel=6, note=55, velocity=101, time=67),
    Message('note_on', channel=6, note=59, velocity=98, time=0),
    Message('note_on', channel=6, note=52, velocity=95, time=0),
    Message('note_on', channel=6, note=52, velocity=0, time=47),
    Message('note_on', channel=6, note=55, velocity=0, time=8),
    Message('note_on', channel=6, note=59, velocity=0, time=7),
    Message('control_change', channel=6, control=64, value=0, time=166),
    Message('note_on', channel=6, note=60, velocity=91, time=12),
    Message('note_on', channel=6, note=64, velocity=95, time=0),
    Message('note_on', channel=6, note=55, velocity=98, time=0),
    Message('note_on', channel=6, note=48, velocity=101, time=0),
    Message('control_change', channel=6, control=64, value=127, time=87),
    Message('note_on', channel=6, note=60, velocity=0, time=21),
    Message('note_on', channel=6, note=64, velocity=0, time=14),
    Message('note_on', channel=6, note=55, velocity=0, time=86),
    Message('note_on', channel=6, note=48, velocity=0, time=2),
    Message('note_on', channel=6, note=60, velocity=78, time=30),
    Message('note_on', channel=6, note=64, velocity=92, time=0),
    Message('note_on', channel=6, note=60, velocity=0, time=95),
    Message('note_on', channel=6, note=64, velocity=0, time=1),
    Message('note_on', channel=6, note=48, velocity=80, time=24),
    Message('note_on', channel=6, note=55, velocity=87, time=0),
    Message('note_on', channel=6, note=48, velocity=0, time=40),
    Message('note_on', channel=6, note=55, velocity=0, time=9),
    Message('note_on', channel=6, note=60, velocity=69, time=71),
    Message('note_on', channel=6, note=64, velocity=84, time=0),
    Message('note_on', channel=6, note=60, velocity=0, time=47),
    Message('note_on', channel=6, note=64, velocity=0, time=2),
    Message('note_on', channel=6, note=60, velocity=89, time=71),
    Message('note_on', channel=6, note=64, velocity=95, time=0),
    Message('note_on', channel=6, note=60, velocity=0, time=53),
    Message('note_on', channel=6, note=64, velocity=0, time=6),
    Message('note_on', channel=6, note=60, velocity=89, time=61),
    Message('note_on', channel=6, note=64, velocity=97, time=0),
    Message('note_on', channel=6, note=64, velocity=0, time=44),
    Message('note_on', channel=6, note=60, velocity=0, time=6),
    Message('note_on', channel=6, note=43, velocity=101, time=70),
    Message('note_on', channel=6, note=50, velocity=105, time=0),
    Message('control_change', channel=6, control=64, value=0, time=36),
    Message('note_on', channel=6, note=55, velocity=80, time=84),
    Message('note_on', channel=6, note=62, velocity=91, time=0),
    Message('note_on', channel=6, note=59, velocity=95, time=0),
    Message('note_on', channel=6, note=50, velocity=0, time=7),
    Message('note_on', channel=6, note=43, velocity=0, time=4),
    Message('control_change', channel=6, control=64, value=127, time=6),
    Message('note_on', channel=6, note=55, velocity=0, time=105),
    Message('note_on', channel=6, note=59, velocity=0, time=3),
    Message('note_on', channel=6, note=62, velocity=0, time=5),
    Message('note_on', channel=6, note=55, velocity=43, time=50),
    Message('note_on', channel=6, note=55, velocity=0, time=19),
    Message('note_on', channel=6, note=43, velocity=98, time=41),
    Message('note_on', channel=6, note=43, velocity=0, time=95),
    Message('note_on', channel=6, note=55, velocity=95, time=25),
    Message('note_on', channel=6, note=62, velocity=98, time=0),
    Message('note_on', channel=6, note=59, velocity=101, time=0),
    Message('note_on', channel=6, note=55, velocity=0, time=57),
    Message('note_on', channel=6, note=59, velocity=0, time=1),
    Message('note_on', channel=6, note=62, velocity=0, time=8),
    Message('note_on', channel=6, note=43, velocity=87, time=54),
    Message('note_on', channel=6, note=43, velocity=0, time=72),
    Message('note_on', channel=6, note=62, velocity=89, time=48),
    Message('note_on', channel=6, note=59, velocity=92, time=0),
    Message('note_on', channel=6, note=55, velocity=89, time=0),
    Message('note_on', channel=6, note=59, velocity=0, time=41),
    Message('note_on', channel=6, note=62, velocity=0, time=1),
    Message('note_on', channel=6, note=55, velocity=0, time=3),
    Message('note_on', channel=6, note=55, velocity=84, time=75),
    Message('note_on', channel=6, note=59, velocity=98, time=0),
    Message('note_on', channel=6, note=62, velocity=98, time=0),
    Message('note_on', channel=6, note=55, velocity=0, time=63),
    Message('note_on', channel=6, note=59, velocity=0, time=33),
    Message('note_on', channel=6, note=62, velocity=0, time=10),
    Message('note_on', channel=6, note=52, velocity=95, time=14),
    Message('note_on', channel=6, note=52, velocity=0, time=45),
    Message('control_change', channel=6, control=64, value=0, time=35),
    Message('note_on', channel=6, note=60, velocity=98, time=40),
    Message('note_on', channel=6, note=57, velocity=89, time=0),
    Message('note_on', channel=6, note=45, velocity=101, time=0),
    Message('note_on', channel=6, note=64, velocity=97, time=0),
    Message('control_change', channel=6, control=64, value=127, time=54),
    Message('note_on', channel=6, note=57, velocity=0, time=45),
    Message('note_on', channel=6, note=60, velocity=0, time=0),
    Message('note_on', channel=6, note=64, velocity=0, time=5),
    Message('note_on', channel=6, note=52, velocity=89, time=76),
    Message('note_on', channel=6, note=60, velocity=81, time=0),
    Message('note_on', channel=6, note=64, velocity=78, time=0),
    Message('note_on', channel=6, note=57, velocity=69, time=0),
    Message('note_on', channel=6, note=45, velocity=0, time=2),
    Message('note_on', channel=6, note=60, velocity=0, time=24),
    Message('note_on', channel=6, note=64, velocity=0, time=4),
    Message('note_on', channel=6, note=57, velocity=0, time=5),
    Message('note_on', channel=6, note=52, velocity=0, time=8),
    Message('note_on', channel=6, note=60, velocity=95, time=137),
    Message('note_on', channel=6, note=57, velocity=89, time=0),
    Message('note_on', channel=6, note=64, velocity=84, time=0),
    Message('note_on', channel=6, note=60, velocity=0, time=68),
    Message('note_on', channel=6, note=57, velocity=0, time=2),
    Message('note_on', channel=6, note=64, velocity=0, time=5),
    Message('note_on', channel=6, note=45, velocity=97, time=45),
    Message('note_on', channel=6, note=45, velocity=0, time=81),
    Message('note_on', channel=6, note=60, velocity=95, time=39),
    Message('note_on', channel=6, note=64, velocity=87, time=0),
    Message('note_on', channel=6, note=57, velocity=84, time=0),
    Message('note_on', channel=6, note=60, velocity=0, time=40),
    Message('note_on', channel=6, note=57, velocity=0, time=8),
    Message('note_on', channel=6, note=64, velocity=0, time=0),
    Message('note_on', channel=6, note=60, velocity=98, time=72),
    Message('note_on', channel=6, note=64, velocity=97, time=0),
    Message('note_on', channel=6, note=57, velocity=87, time=0),
    Message('note_on', channel=6, note=57, velocity=0, time=51),
    Message('note_on', channel=6, note=60, velocity=0, time=5),
    Message('note_on', channel=6, note=64, velocity=0, time=20),
    Message('note_on', channel=6, note=55, velocity=95, time=44),
    Message('note_on', channel=6, note=55, velocity=0, time=40),
    Message('control_change', channel=6, control=64, value=0, time=51),
    Message('note_on', channel=6, note=55, velocity=95, time=29),
    Message('note_on', channel=6, note=64, velocity=87, time=0),
    Message('note_on', channel=6, note=60, velocity=85, time=0),
    Message('note_on', channel=6, note=67, velocity=85, time=0),
    Message('note_on', channel=6, note=48, velocity=97, time=0),
    Message('note_on', channel=6, note=64, velocity=0, time=43),
    Message('note_on', channel=6, note=60, velocity=0, time=5),
    Message('control_change', channel=6, control=64, value=127, time=8),
    Message('note_on', channel=6, note=67, velocity=0, time=2),
    Message('note_on', channel=6, note=55, velocity=0, time=32),
    Message('note_on', channel=6, note=48, velocity=0, time=6),
    Message('note_on', channel=6, note=67, velocity=69, time=24),
    Message('note_on', channel=6, note=60, velocity=65, time=0),
    Message('note_on', channel=6, note=64, velocity=84, time=0),
    Message('note_on', channel=6, note=64, velocity=0, time=31),
    Message('note_on', channel=6, note=67, velocity=0, time=1),
    Message('note_on', channel=6, note=60, velocity=0, time=3),
    Message('note_on', channel=6, note=48, velocity=91, time=25),
    Message('note_on', channel=6, note=55, velocity=97, time=0),
    Message('note_on', channel=6, note=48, velocity=0, time=28),
    Message('note_on', channel=6, note=55, velocity=0, time=13),
    Message('note_on', channel=6, note=64, velocity=89, time=19),
    Message('note_on', channel=6, note=67, velocity=84, time=0),
    Message('note_on', channel=6, note=60, velocity=85, time=0),
    Message('note_on', channel=6, note=64, velocity=0, time=46),
    Message('note_on', channel=6, note=60, velocity=0, time=6),
    Message('note_on', channel=6, note=67, velocity=0, time=13),
    Message('note_on', channel=6, note=55, velocity=101, time=55),
    Message('note_on', channel=6, note=48, velocity=98, time=0),
    Message('note_on', channel=6, note=55, velocity=0, time=42),
    Message('note_on', channel=6, note=48, velocity=0, time=2),
    Message('note_on', channel=6, note=60, velocity=80, time=76),
    Message('note_on', channel=6, note=67, velocity=84, time=0),
    Message('note_on', channel=6, note=64, velocity=92, time=0),
    Message('note_on', channel=6, note=60, velocity=0, time=55),
    Message('note_on', channel=6, note=64, velocity=0, time=2),
    Message('note_on', channel=6, note=67, velocity=0, time=5),
    Message('note_on', channel=6, note=55, velocity=91, time=58),
    Message('note_on', channel=6, note=48, velocity=92, time=0),
    Message('note_on', channel=6, note=48, velocity=0, time=44),
    Message('note_on', channel=6, note=55, velocity=0, time=3),
    Message('note_on', channel=6, note=60, velocity=80, time=73),
    Message('note_on', channel=6, note=67, velocity=84, time=0),
    Message('note_on', channel=6, note=64, velocity=95, time=0),
    Message('note_on', channel=6, note=67, velocity=0, time=36),
    Message('note_on', channel=6, note=64, velocity=0, time=2),
    Message('note_on', channel=6, note=60, velocity=0, time=10),
    Message('control_change', channel=6, control=64, value=0, time=166),
    Message('note_on', channel=6, note=52, velocity=92, time=26),
    Message('note_on', channel=6, note=55, velocity=101, time=0),
    Message('note_on', channel=6, note=59, velocity=95, time=0),
    Message('control_change', channel=6, control=64, value=127, time=57),
    Message('note_on', channel=6, note=52, velocity=0, time=86),
    Message('note_on', channel=6, note=55, velocity=0, time=13),
    Message('note_on', channel=6, note=59, velocity=0, time=4),
    Message('note_on', channel=6, note=40, velocity=92, time=80),
    Message('note_on', channel=6, note=40, velocity=0, time=49),
    Message('note_on', channel=6, note=52, velocity=92, time=71),
    Message('note_on', channel=6, note=55, velocity=101, time=0),
    Message('note_on', channel=6, note=59, velocity=98, time=0),
    Message('note_on', channel=6, note=52, velocity=0, time=44),
    Message('note_on', channel=6, note=55, velocity=0, time=3),
    Message('note_on', channel=6, note=59, velocity=0, time=11),
    Message('note_on', channel=6, note=52, velocity=92, time=62),
    Message('note_on', channel=6, note=55, velocity=101, time=0),
    Message('note_on', channel=6, note=59, velocity=97, time=0),
    Message('note_on', channel=6, note=52, velocity=0, time=82),
    Message('note_on', channel=6, note=55, velocity=0, time=6),
    Message('note_on', channel=6, note=59, velocity=0, time=4),
    Message('note_on', channel=6, note=40, velocity=89, time=28),
    Message('note_on', channel=6, note=40, velocity=0, time=44),
    Message('note_on', channel=6, note=52, velocity=89, time=76),
    Message('note_on', channel=6, note=55, velocity=98, time=0),
    Message('note_on', channel=6, note=59, velocity=97, time=0),
    Message('note_on', channel=6, note=52, velocity=0, time=41),
    Message('note_on', channel=6, note=55, velocity=0, time=2),
    Message('note_on', channel=6, note=59, velocity=0, time=3),
    Message('note_on', channel=6, note=55, velocity=105, time=74),
    Message('note_on', channel=6, note=52, velocity=97, time=0),
    Message('note_on', channel=6, note=59, velocity=98, time=0),
    Message('note_on', channel=6, note=55, velocity=0, time=61),
    Message('note_on', channel=6, note=52, velocity=0, time=10),
    Message('note_on', channel=6, note=59, velocity=0, time=7),
    Message('note_on', channel=6, note=40, velocity=85, time=42),
    Message('note_on', channel=6, note=40, velocity=0, time=42),
    Message('note_on', channel=6, note=52, velocity=92, time=78),
    Message('note_on', channel=6, note=55, velocity=101, time=0),
    Message('note_on', channel=6, note=59, velocity=95, time=0),
    Message('note_on', channel=6, note=55, velocity=0, time=40),
    Message('note_on', channel=6, note=52, velocity=0, time=0),
    Message('note_on', channel=6, note=59, velocity=0, time=13),
    Message('note_on', channel=6, note=40, velocity=71, time=127),
    Message('note_on', channel=6, note=40, velocity=0, time=43),
    Message('note_on', channel=6, note=55, velocity=98, time=17),
    Message('note_on', channel=6, note=52, velocity=101, time=0),
    Message('note_on', channel=6, note=59, velocity=95, time=0),
    Message('note_on', channel=6, note=55, velocity=0, time=36),
    Message('note_on', channel=6, note=52, velocity=0, time=6),
    Message('note_on', channel=6, note=59, velocity=0, time=4),
    Message('note_on', channel=6, note=55, velocity=101, time=74),
    Message('note_on', channel=6, note=52, velocity=95, time=0),
    Message('note_on', channel=6, note=59, velocity=97, time=0),
    Message('note_on', channel=6, note=52, velocity=0, time=44),
    Message('note_on', channel=6, note=55, velocity=0, time=3),
    Message('note_on', channel=6, note=59, velocity=0, time=8),
    Message('note_on', channel=6, note=52, velocity=89, time=65),
    Message('note_on', channel=6, note=59, velocity=95, time=0),
    Message('note_on', channel=6, note=55, velocity=98, time=0),
    Message('note_on', channel=6, note=52, velocity=0, time=42),
    Message('note_on', channel=6, note=55, velocity=0, time=6),
    Message('note_on', channel=6, note=59, velocity=0, time=3),
    Message('note_on', channel=6, note=52, velocity=92, time=69),
    Message('note_on', channel=6, note=55, velocity=102, time=0),
    Message('note_on', channel=6, note=59, velocity=101, time=0),
    Message('note_on', channel=6, note=52, velocity=0, time=41),
    Message('note_on', channel=6, note=55, velocity=0, time=4),
    Message('note_on', channel=6, note=59, velocity=0, time=8),
    Message('note_on', channel=6, note=55, velocity=97, time=67),
    Message('note_on', channel=6, note=59, velocity=97, time=0),
    Message('note_on', channel=6, note=52, velocity=97, time=0),
    Message('note_on', channel=6, note=55, velocity=0, time=33),
    Message('note_on', channel=6, note=52, velocity=0, time=5),
    Message('note_on', channel=6, note=59, velocity=0, time=13),
    Message('control_change', channel=6, control=64, value=0, time=45),
    Message('note_on', channel=6, note=47, velocity=65, time=24),
    Message('note_on', channel=6, note=48, velocity=97, time=0),
    Message('note_on', channel=6, note=47, velocity=0, time=18),
    Message('control_change', channel=6, control=64, value=127, time=98),
    Message('note_on', channel=6, note=55, velocity=105, time=4),
    Message('note_on', channel=6, note=55, velocity=0, time=102),
    Message('note_on', channel=6, note=64, velocity=97, time=18),
    Message('note_on', channel=6, note=60, velocity=89, time=0),
    Message('note_on', channel=6, note=67, velocity=97, time=0),
    Message('note_on', channel=6, note=48, velocity=0, time=52),
    Message('note_on', channel=6, note=64, velocity=0, time=12),
    Message('note_on', channel=6, note=60, velocity=0, time=0),
    Message('note_on', channel=6, note=67, velocity=0, time=13),
    Message('note_on', channel=6, note=67, velocity=95, time=163),
    Message('note_on', channel=6, note=64, velocity=101, time=0),
    Message('note_on', channel=6, note=60, velocity=95, time=0),
    Message('note_on', channel=6, note=60, velocity=0, time=42),
    Message('note_on', channel=6, note=64, velocity=0, time=0),
    Message('note_on', channel=6, note=67, velocity=0, time=4),
    Message('note_on', channel=6, note=60, velocity=89, time=74),
    Message('note_on', channel=6, note=64, velocity=98, time=0),
    Message('note_on', channel=6, note=67, velocity=92, time=0),
    Message('note_on', channel=6, note=60, velocity=0, time=54),
    Message('note_on', channel=6, note=64, velocity=0, time=5),
    Message('note_on', channel=6, note=67, velocity=0, time=9),
    Message('note_on', channel=6, note=59, velocity=98, time=172),
    Message('note_on', channel=6, note=62, velocity=105, time=0),
    Message('note_on', channel=6, note=67, velocity=98, time=0),
    Message('control_change', channel=6, control=64, value=0, time=28),
    Message('control_change', channel=6, control=64, value=127, time=102),
    Message('note_on', channel=6, note=67, velocity=0, time=109),
    Message('note_on', channel=6, note=59, velocity=0, time=1),
    Message('note_on', channel=6, note=43, velocity=95, time=0),
    Message('note_on', channel=6, note=62, velocity=0, time=3),
    Message('note_on', channel=6, note=43, velocity=0, time=60),
    Message('note_on', channel=6, note=59, velocity=73, time=57),
    Message('note_on', channel=6, note=62, velocity=92, time=0),
    Message('note_on', channel=6, note=67, velocity=84, time=0),
    Message('note_on', channel=6, note=62, velocity=0, time=41),
    Message('note_on', channel=6, note=59, velocity=0, time=4),
    Message('note_on', channel=6, note=67, velocity=0, time=6),
    Message('note_on', channel=6, note=67, velocity=87, time=69),
    Message('note_on', channel=6, note=59, velocity=71, time=0),
    Message('note_on', channel=6, note=62, velocity=87, time=0),
    Message('note_on', channel=6, note=62, velocity=0, time=47),
    Message('note_on', channel=6, note=59, velocity=0, time=2),
    Message('note_on', channel=6, note=67, velocity=0, time=4),
    Message('note_on', channel=6, note=59, velocity=69, time=67),
    Message('note_on', channel=6, note=62, velocity=87, time=0),
    Message('note_on', channel=6, note=67, velocity=73, time=0),
    Message('note_on', channel=6, note=59, velocity=0, time=58),
    Message('note_on', channel=6, note=62, velocity=0, time=2),
    Message('note_on', channel=6, note=67, velocity=0, time=5),
    Message('note_on', channel=6, note=59, velocity=66, time=55),
    Message('note_on', channel=6, note=67, velocity=85, time=0),
    Message('note_on', channel=6, note=62, velocity=84, time=0),
    Message('note_on', channel=6, note=59, velocity=0, time=36),
    Message('note_on', channel=6, note=62, velocity=0, time=7),
    Message('note_on', channel=6, note=67, velocity=0, time=6),
    Message('note_on', channel=6, note=50, velocity=81, time=11),
    Message('note_on', channel=6, note=43, velocity=81, time=0),
    Message('note_on', channel=6, note=50, velocity=0, time=36),
    Message('note_on', channel=6, note=43, velocity=0, time=1),
    Message('note_on', channel=6, note=59, velocity=87, time=23),
    Message('note_on', channel=6, note=67, velocity=91, time=0),
    Message('note_on', channel=6, note=62, velocity=101, time=0),
    Message('note_on', channel=6, note=59, velocity=0, time=43),
    Message('note_on', channel=6, note=62, velocity=0, time=7),
    Message('note_on', channel=6, note=67, velocity=0, time=6),
    Message('note_on', channel=6, note=62, velocity=95, time=64),
    Message('note_on', channel=6, note=59, velocity=81, time=0),
    Message('note_on', channel=6, note=67, velocity=89, time=0),
    Message('note_on', channel=6, note=62, velocity=0, time=40),
    Message('note_on', channel=6, note=59, velocity=0, time=4),
    Message('note_on', channel=6, note=67, velocity=0, time=19),
    Message('control_change', channel=6, control=64, value=0, time=44),
    Message('note_on', channel=6, note=64, velocity=95, time=13),
    Message('note_on', channel=6, note=60, velocity=92, time=0),
    Message('note_on', channel=6, note=67, velocity=91, time=0),
    Message('note_on', channel=6, note=55, velocity=95, time=0),
    Message('note_on', channel=6, note=48, velocity=97, time=0),
    Message('control_change', channel=6, control=64, value=127, time=68),
    Message('note_on', channel=6, note=60, velocity=0, time=78),
    Message('note_on', channel=6, note=64, velocity=0, time=0),
    Message('note_on', channel=6, note=67, velocity=0, time=10),
    Message('note_on', channel=6, note=48, velocity=0, time=64),
    Message('note_on', channel=6, note=55, velocity=0, time=3),
    Message('note_on', channel=6, note=64, velocity=95, time=17),
    Message('note_on', channel=6, note=67, velocity=95, time=0),
    Message('note_on', channel=6, note=60, velocity=91, time=0),
    Message('note_on', channel=6, note=64, velocity=0, time=62),
    Message('note_on', channel=6, note=60, velocity=0, time=12),
    Message('note_on', channel=6, note=67, velocity=0, time=3),
    Message('note_on', channel=6, note=55, velocity=85, time=43),
    Message('note_on', channel=6, note=48, velocity=87, time=0),
    Message('note_on', channel=6, note=55, velocity=0, time=43),
    Message('note_on', channel=6, note=48, velocity=0, time=2),
    Message('note_on', channel=6, note=67, velocity=85, time=75),
    Message('note_on', channel=6, note=64, velocity=97, time=0),
    Message('note_on', channel=6, note=60, velocity=87, time=0),
    Message('note_on', channel=6, note=64, velocity=0, time=38),
    Message('note_on', channel=6, note=67, velocity=0, time=3),
    Message('note_on', channel=6, note=60, velocity=0, time=2),
    Message('note_on', channel=6, note=64, velocity=101, time=77),
    Message('note_on', channel=6, note=60, velocity=95, time=0),
    Message('note_on', channel=6, note=67, velocity=97, time=0),
    Message('note_on', channel=6, note=60, velocity=0, time=56),
    Message('note_on', channel=6, note=64, velocity=0, time=3),
    Message('note_on', channel=6, note=67, velocity=0, time=7),
    Message('note_on', channel=6, note=60, velocity=92, time=54),
    Message('note_on', channel=6, note=64, velocity=98, time=0),
    Message('note_on', channel=6, note=67, velocity=92, time=0),
    Message('note_on', channel=6, note=64, velocity=0, time=38),
    Message('note_on', channel=6, note=60, velocity=0, time=4),
    Message('note_on', channel=6, note=67, velocity=0, time=12),
    Message('note_on', channel=6, note=62, velocity=105, time=66),
    Message('note_on', channel=6, note=59, velocity=101, time=0),
    Message('note_on', channel=6, note=67, velocity=97, time=0),
    Message('note_on', channel=6, note=43, velocity=97, time=0),
    Message('control_change', channel=6, control=64, value=0, time=4),
    Message('control_change', channel=6, control=64, value=127, time=92),
    Message('note_on', channel=6, note=59, velocity=0, time=71),
    Message('note_on', channel=6, note=62, velocity=0, time=4),
    Message('note_on', channel=6, note=67, velocity=0, time=9),
    Message('note_on', channel=6, note=43, velocity=0, time=52),
    Message('note_on', channel=6, note=62, velocity=97, time=8),
    Message('note_on', channel=6, note=59, velocity=87, time=0),
    Message('note_on', channel=6, note=67, velocity=91, time=0),
    Message('note_on', channel=6, note=62, velocity=0, time=84),
    Message('note_on', channel=6, note=67, velocity=0, time=10),
    Message('note_on', channel=6, note=59, velocity=0, time=6),
    Message('note_on', channel=6, note=43, velocity=91, time=20),
    Message('note_on', channel=6, note=43, velocity=0, time=57),
    Message('note_on', channel=6, note=59, velocity=71, time=63),
    Message('note_on', channel=6, note=62, velocity=91, time=0),
    Message('note_on', channel=6, note=67, velocity=84, time=0),
    Message('note_on', channel=6, note=62, velocity=0, time=39),
    Message('note_on', channel=6, note=59, velocity=0, time=4),
    Message('note_on', channel=6, note=67, velocity=0, time=4),
    Message('note_on', channel=6, note=62, velocity=97, time=73),
    Message('note_on', channel=6, note=67, velocity=95, time=0),
    Message('note_on', channel=6, note=59, velocity=81, time=0),
    Message('note_on', channel=6, note=62, velocity=0, time=97),
    Message('note_on', channel=6, note=59, velocity=0, time=10),
    Message('note_on', channel=6, note=67, velocity=0, time=7),
    Message('note_on', channel=6, note=43, velocity=92, time=6),
    Message('note_on', channel=6, note=43, velocity=0, time=62),
    Message('note_on', channel=6, note=59, velocity=85, time=58),
    Message('note_on', channel=6, note=62, velocity=98, time=0),
    Message('note_on', channel=6, note=67, velocity=92, time=0),
    Message('note_on', channel=6, note=62, velocity=0, time=57),
    Message('note_on', channel=6, note=59, velocity=0, time=5),
    Message('note_on', channel=6, note=67, velocity=0, time=2),
    Message('note_on', channel=6, note=52, velocity=84, time=56),
    Message('note_on', channel=6, note=52, velocity=0, time=55),
    Message('control_change', channel=6, control=64, value=0, time=12),
    Message('note_on', channel=6, note=45, velocity=98, time=53),
    Message('note_on', channel=6, note=57, velocity=87, time=0),
    Message('note_on', channel=6, note=64, velocity=95, time=0),
    Message('note_on', channel=6, note=60, velocity=101, time=0),
    Message('control_change', channel=6, control=64, value=127, time=28),
    Message('note_on', channel=6, note=57, velocity=0, time=140),
    Message('note_on', channel=6, note=64, velocity=0, time=5),
    Message('note_on', channel=6, note=60, velocity=0, time=2),
    Message('note_on', channel=6, note=60, velocity=92, time=65),
    Message('note_on', channel=6, note=57, velocity=84, time=0),
    Message('note_on', channel=6, note=64, velocity=87, time=0),
    Message('note_on', channel=6, note=45, velocity=0, time=16),
    Message('note_on', channel=6, note=60, velocity=0, time=31),
    Message('note_on', channel=6, note=57, velocity=0, time=8),
    Message('note_on', channel=6, note=64, velocity=0, time=8),
    Message('note_on', channel=6, note=52, velocity=84, time=57),
    Message('note_on', channel=6, note=45, velocity=87, time=0),
    Message('note_on', channel=6, note=52, velocity=0, time=37),
    Message('note_on', channel=6, note=45, velocity=0, time=1),
    Message('note_on', channel=6, note=60, velocity=97, time=82),
    Message('note_on', channel=6, note=57, velocity=85, time=0),
    Message('note_on', channel=6, note=64, velocity=91, time=0),
    Message('note_on', channel=6, note=60, velocity=0, time=32),
    Message('note_on', channel=6, note=57, velocity=0, time=9),
    Message('note_on', channel=6, note=64, velocity=0, time=4),
    Message('note_on', channel=6, note=60, velocity=102, time=75),
    Message('note_on', channel=6, note=64, velocity=101, time=0),
    Message('note_on', channel=6, note=57, velocity=95, time=0),
    Message('note_on', channel=6, note=60, velocity=0, time=102),
    Message('note_on', channel=6, note=57, velocity=0, time=4),
    Message('note_on', channel=6, note=64, velocity=0, time=3),
    Message('note_on', channel=6, note=52, velocity=84, time=11),
    Message('note_on', channel=6, note=45, velocity=84, time=0),
    Message('note_on', channel=6, note=45, velocity=0, time=43),
    Message('note_on', channel=6, note=52, velocity=0, time=5),
    Message('note_on', channel=6, note=60, velocity=92, time=72),
    Message('note_on', channel=6, note=64, velocity=91, time=0),
    Message('note_on', channel=6, note=57, velocity=84, time=0),
    Message('note_on', channel=6, note=60, velocity=0, time=56),
    Message('note_on', channel=6, note=57, velocity=0, time=1),
    Message('control_change', channel=6, control=64, value=0, time=0),
    Message('note_on', channel=6, note=64, velocity=0, time=21),
    Message('note_on', channel=6, note=55, velocity=98, time=42),
    Message('note_on', channel=6, note=48, velocity=101, time=0),
    Message('control_change', channel=6, control=64, value=127, time=30),
    Message('note_on', channel=6, note=55, velocity=0, time=80),
    Message('note_on', channel=6, note=48, velocity=0, time=8),
    Message('note_on', channel=6, note=60, velocity=71, time=2),
    Message('note_on', channel=6, note=64, velocity=87, time=0),
    Message('note_on', channel=6, note=67, velocity=87, time=0),
    Message('note_on', channel=6, note=64, velocity=0, time=29),
    Message('note_on', channel=6, note=60, velocity=0, time=0),
    Message('note_on', channel=6, note=67, velocity=0, time=11),
    Message('note_on', channel=6, note=48, velocity=89, time=20),
    Message('note_on', channel=6, note=55, velocity=87, time=0),
    Message('note_on', channel=6, note=48, velocity=0, time=28),
    Message('note_on', channel=6, note=55, velocity=0, time=9),
    Message('note_on', channel=6, note=60, velocity=87, time=23),
    Message('note_on', channel=6, note=64, velocity=92, time=0),
    Message('note_on', channel=6, note=67, velocity=89, time=0),
    Message('note_on', channel=6, note=60, velocity=0, time=73),
    Message('note_on', channel=6, note=64, velocity=0, time=3),
    Message('note_on', channel=6, note=67, velocity=0, time=15),
    Message('note_on', channel=6, note=55, velocity=101, time=29),
    Message('note_on', channel=6, note=48, velocity=101, time=0),
    Message('note_on', channel=6, note=55, velocity=0, time=56),
    Message('note_on', channel=6, note=48, velocity=0, time=9),
    Message('note_on', channel=6, note=60, velocity=84, time=55),
    Message('note_on', channel=6, note=64, velocity=92, time=0),
    Message('note_on', channel=6, note=67, velocity=84, time=0),
    Message('note_on', channel=6, note=64, velocity=0, time=69),
    Message('note_on', channel=6, note=60, velocity=0, time=0),
    Message('note_on', channel=6, note=67, velocity=0, time=12),
    Message('note_on', channel=6, note=48, velocity=95, time=39),
    Message('note_on', channel=6, note=55, velocity=97, time=0),
    Message('note_on', channel=6, note=55, velocity=0, time=52),
    Message('note_on', channel=6, note=48, velocity=0, time=12),
    Message('note_on', channel=6, note=60, velocity=89, time=56),
    Message('note_on', channel=6, note=64, velocity=97, time=0),
    Message('note_on', channel=6, note=67, velocity=97, time=0),
    Message('note_on', channel=6, note=64, velocity=0, time=164),
    Message('note_on', channel=6, note=60, velocity=0, time=6),
    Message('note_on', channel=6, note=67, velocity=0, time=6),
    Message('control_change', channel=6, control=64, value=0, time=26),
    Message('note_on', channel=6, note=59, velocity=84, time=38),
    Message('note_on', channel=6, note=62, velocity=98, time=0),
    Message('note_on', channel=6, note=67, velocity=98, time=0),
    Message('note_on', channel=6, note=43, velocity=97, time=0),
    Message('control_change', channel=6, control=64, value=127, time=46),
    Message('note_on', channel=6, note=59, velocity=0, time=109),
    Message('note_on', channel=6, note=67, velocity=0, time=2),
    Message('note_on', channel=6, note=62, velocity=0, time=2),
    Message('note_on', channel=6, note=43, velocity=0, time=60),
    Message('note_on', channel=6, note=62, velocity=97, time=21),
    Message('note_on', channel=6, note=59, velocity=81, time=0),
    Message('note_on', channel=6, note=67, velocity=91, time=0),
    Message('note_on', channel=6, note=62, velocity=0, time=86),
    Message('note_on', channel=6, note=59, velocity=0, time=7),
    Message('note_on', channel=6, note=67, velocity=0, time=2),
    Message('note_on', channel=6, note=50, velocity=56, time=25),
    Message('note_on', channel=6, note=43, velocity=80, time=0),
    Message('note_on', channel=6, note=50, velocity=0, time=29),
    Message('note_on', channel=6, note=43, velocity=0, time=25),
    Message('note_on', channel=6, note=67, velocity=85, time=66),
    Message('note_on', channel=6, note=62, velocity=97, time=0),
    Message('note_on', channel=6, note=59, velocity=87, time=0),
    Message('note_on', channel=6, note=62, velocity=0, time=43),
    Message('note_on', channel=6, note=59, velocity=0, time=4),
    Message('note_on', channel=6, note=67, velocity=0, time=4),
    Message('note_on', channel=6, note=59, velocity=84, time=69),
    Message('note_on', channel=6, note=62, velocity=98, time=0),
    Message('note_on', channel=6, note=67, velocity=95, time=0),
    Message('note_on', channel=6, note=59, velocity=0, time=76),
    Message('note_on', channel=6, note=62, velocity=0, time=2),
    Message('note_on', channel=6, note=67, velocity=0, time=9),
    Message('note_on', channel=6, note=43, velocity=97, time=33),
    Message('note_on', channel=6, note=43, velocity=0, time=99),
    Message('note_on', channel=6, note=59, velocity=87, time=21),
    Message('note_on', channel=6, note=62, velocity=95, time=0),
    Message('note_on', channel=6, note=67, velocity=84, time=0),
    Message('note_on', channel=6, note=62, velocity=0, time=43),
    Message('note_on', channel=6, note=59, velocity=0, time=1),
    Message('note_on', channel=6, note=67, velocity=0, time=7),
    Message('note_on', channel=6, note=62, velocity=101, time=69),
    Message('note_on', channel=6, note=67, velocity=97, time=0),
    Message('note_on', channel=6, note=59, velocity=84, time=0),
    Message('note_on', channel=6, note=62, velocity=0, time=42),
    Message('note_on', channel=6, note=59, velocity=0, time=3),
    Message('note_on', channel=6, note=67, velocity=0, time=11),
    Message('note_on', channel=6, note=59, velocity=68, time=64),
    Message('note_on', channel=6, note=62, velocity=85, time=0),
    Message('note_on', channel=6, note=67, velocity=80, time=0),
    Message('note_on', channel=6, note=62, velocity=0, time=33),
    Message('note_on', channel=6, note=59, velocity=0, time=4),
    Message('note_on', channel=6, note=67, velocity=0, time=8),
    Message('note_on', channel=6, note=43, velocity=85, time=15),
    Message('note_on', channel=6, note=50, velocity=95, time=0),
    Message('note_on', channel=6, note=43, velocity=0, time=37),
    Message('note_on', channel=6, note=50, velocity=0, time=3),
    Message('note_on', channel=6, note=59, velocity=85, time=20),
    Message('note_on', channel=6, note=62, velocity=102, time=0),
    Message('note_on', channel=6, note=67, velocity=91, time=0),
    Message('note_on', channel=6, note=62, velocity=0, time=71),
    Message('note_on', channel=6, note=59, velocity=0, time=0),
    Message('note_on', channel=6, note=67, velocity=0, time=6),
    Message('note_on', channel=6, note=50, velocity=98, time=43),
    Message('note_on', channel=6, note=43, velocity=97, time=0),
    Message('note_on', channel=6, note=50, velocity=0, time=45),
    Message('note_on', channel=6, note=43, velocity=0, time=13),
    Message('note_on', channel=6, note=62, velocity=98, time=62),
    Message('note_on', channel=6, note=67, velocity=89, time=0),
    Message('note_on', channel=6, note=59, velocity=81, time=0),
    Message('note_on', channel=6, note=62, velocity=0, time=64),
    Message('note_on', channel=6, note=59, velocity=0, time=3),
    Message('note_on', channel=6, note=67, velocity=0, time=1),
    Message('note_on', channel=6, note=43, velocity=80, time=52),
    Message('note_on', channel=6, note=50, velocity=92, time=0),
    Message('note_on', channel=6, note=43, velocity=0, time=38),
    Message('note_on', channel=6, note=50, velocity=0, time=15),
    Message('note_on', channel=6, note=59, velocity=85, time=67),
    Message('note_on', channel=6, note=67, velocity=89, time=0),
    Message('note_on', channel=6, note=62, velocity=101, time=0),
    Message('note_on', channel=6, note=59, velocity=0, time=73),
    Message('note_on', channel=6, note=62, velocity=0, time=1),
    Message('note_on', channel=6, note=67, velocity=0, time=1),
    Message('control_change', channel=6, control=64, value=0, time=27),
    Message('note_on', channel=6, note=67, velocity=92, time=138),
    Message('note_on', channel=6, note=62, velocity=101, time=0),
    Message('note_on', channel=6, note=59, velocity=89, time=0),
    Message('note_on', channel=6, note=43, velocity=91, time=0),
    Message('note_on', channel=6, note=50, velocity=97, time=0),
    Message('control_change', channel=6, control=64, value=127, time=6),
    Message('note_on', channel=6, note=67, velocity=0, time=129),
    Message('note_on', channel=6, note=62, velocity=0, time=7),
    Message('note_on', channel=6, note=59, velocity=0, time=1),
    Message('note_on', channel=6, note=50, velocity=0, time=95),
    Message('note_on', channel=6, note=62, velocity=98, time=2),
    Message('note_on', channel=6, note=59, velocity=84, time=0),
    Message('note_on', channel=6, note=67, velocity=95, time=0),
    Message('note_on', channel=6, note=43, velocity=0, time=1),
    Message('note_on', channel=6, note=62, velocity=0, time=70),
    Message('note_on', channel=6, note=59, velocity=0, time=8),
    Message('note_on', channel=6, note=67, velocity=0, time=5),
    Message('note_on', channel=6, note=43, velocity=95, time=36),
    Message('note_on', channel=6, note=50, velocity=97, time=0),
    Message('note_on', channel=6, note=50, velocity=0, time=53),
    Message('note_on', channel=6, note=43, velocity=0, time=6),
    Message('note_on', channel=6, note=67, velocity=85, time=61),
    Message('note_on', channel=6, note=59, velocity=81, time=0),
    Message('note_on', channel=6, note=62, velocity=98, time=0),
    Message('note_on', channel=6, note=62, velocity=0, time=42),
    Message('note_on', channel=6, note=67, velocity=0, time=1),
    Message('note_on', channel=6, note=59, velocity=0, time=1),
    Message('note_on', channel=6, note=67, velocity=92, time=76),
    Message('note_on', channel=6, note=62, velocity=101, time=0),
    Message('note_on', channel=6, note=59, velocity=84, time=0),
    Message('note_on', channel=6, note=59, velocity=0, time=56),
    Message('note_on', channel=6, note=62, velocity=0, time=1),
    Message('note_on', channel=6, note=67, velocity=0, time=5),
    Message('note_on', channel=6, note=50, velocity=97, time=58),
    Message('note_on', channel=6, note=43, velocity=98, time=0),
    Message('note_on', channel=6, note=50, velocity=0, time=54),
    Message('note_on', channel=6, note=43, velocity=0, time=12),
    Message('note_on', channel=6, note=67, velocity=84, time=54),
    Message('note_on', channel=6, note=59, velocity=81, time=0),
    Message('note_on', channel=6, note=62, velocity=101, time=0),
    Message('note_on', channel=6, note=67, velocity=0, time=39),
    Message('note_on', channel=6, note=62, velocity=0, time=1),
    Message('note_on', channel=6, note=59, velocity=0, time=3),
    Message('note_on', channel=6, note=62, velocity=105, time=77),
    Message('note_on', channel=6, note=59, velocity=92, time=0),
    Message('note_on', channel=6, note=67, velocity=95, time=0),
    Message('note_on', channel=6, note=59, velocity=0, time=43),
    Message('note_on', channel=6, note=62, velocity=0, time=1),
    Message('note_on', channel=6, note=67, velocity=0, time=18),
    Message('note_on', channel=6, note=59, velocity=68, time=58),
    Message('note_on', channel=6, note=62, velocity=84, time=0),
    Message('note_on', channel=6, note=67, velocity=78, time=0),
    Message('note_on', channel=6, note=62, velocity=0, time=36),
    Message('note_on', channel=6, note=59, velocity=0, time=1),
    Message('note_on', channel=6, note=67, velocity=0, time=8),
    Message('note_on', channel=6, note=43, velocity=85, time=15),
    Message('note_on', channel=6, note=50, velocity=91, time=0),
    Message('note_on', channel=6, note=43, velocity=0, time=37),
    Message('note_on', channel=6, note=50, velocity=0, time=4),
    Message('note_on', channel=6, note=59, velocity=81, time=19),
    Message('note_on', channel=6, note=67, velocity=92, time=0),
    Message('note_on', channel=6, note=62, velocity=101, time=0),
    Message('note_on', channel=6, note=62, velocity=0, time=58),
    Message('note_on', channel=6, note=59, velocity=0, time=1),
    Message('note_on', channel=6, note=67, velocity=0, time=7),
    Message('note_on', channel=6, note=50, velocity=101, time=54),
    Message('note_on', channel=6, note=43, velocity=98, time=0),
    Message('note_on', channel=6, note=50, velocity=0, time=51),
    Message('note_on', channel=6, note=43, velocity=0, time=8),
    Message('note_on', channel=6, note=59, velocity=92, time=61),
    Message('note_on', channel=6, note=62, velocity=102, time=0),
    Message('note_on', channel=6, note=67, velocity=95, time=0),
    Message('note_on', channel=6, note=59, velocity=0, time=54),
    Message('note_on', channel=6, note=62, velocity=0, time=2),
    Message('note_on', channel=6, note=67, velocity=0, time=14),
    Message('note_on', channel=6, note=50, velocity=92, time=50),
    Message('note_on', channel=6, note=43, velocity=95, time=0),
    Message('note_on', channel=6, note=50, velocity=0, time=58),
    Message('note_on', channel=6, note=43, velocity=0, time=7),
    Message('note_on', channel=6, note=62, velocity=102, time=55),
    Message('note_on', channel=6, note=67, velocity=89, time=0),
    Message('note_on', channel=6, note=59, velocity=95, time=0),
    Message('note_on', channel=6, note=62, velocity=0, time=51),
    Message('note_on', channel=6, note=59, velocity=0, time=2),
    Message('note_on', channel=6, note=67, velocity=0, time=4),
    Message('control_change', channel=6, control=64, value=0, time=96),
    Message('note_on', channel=6, note=59, velocity=92, time=87),
    Message('note_on', channel=6, note=67, velocity=97, time=0),
    Message('note_on', channel=6, note=62, velocity=102, time=0),
    Message('note_on', channel=6, note=50, velocity=108, time=0),
    Message('note_on', channel=6, note=43, velocity=102, time=0),
    Message('control_change', channel=6, control=64, value=127, time=68),
    Message('note_on', channel=6, note=67, velocity=0, time=96),
    Message('note_on', channel=6, note=59, velocity=0, time=1),
    Message('note_on', channel=6, note=62, velocity=0, time=5),
    Message('note_on', channel=6, note=62, velocity=95, time=70),
    Message('note_on', channel=6, note=67, velocity=87, time=0),
    Message('note_on', channel=6, note=59, velocity=85, time=0),
    Message('note_on', channel=6, note=50, velocity=0, time=7),
    Message('note_on', channel=6, note=43, velocity=0, time=5),
    Message('note_on', channel=6, note=62, velocity=0, time=61),
    Message('note_on', channel=6, note=67, velocity=0, time=10),
    Message('note_on', channel=6, note=59, velocity=0, time=1),
    Message('note_on', channel=6, note=43, velocity=85, time=36),
    Message('note_on', channel=6, note=50, velocity=95, time=0),
    Message('note_on', channel=6, note=43, velocity=0, time=32),
    Message('note_on', channel=6, note=50, velocity=0, time=16),
    Message('note_on', channel=6, note=59, velocity=69, time=72),
    Message('note_on', channel=6, note=62, velocity=91, time=0),
    Message('note_on', channel=6, note=67, velocity=87, time=0),
    Message('note_on', channel=6, note=62, velocity=0, time=35),
    Message('note_on', channel=6, note=59, velocity=0, time=5),
    Message('note_on', channel=6, note=67, velocity=0, time=2),
    Message('note_on', channel=6, note=67, velocity=85, time=78),
    Message('note_on', channel=6, note=59, velocity=89, time=0),
    Message('note_on', channel=6, note=62, velocity=101, time=0),
    Message('note_on', channel=6, note=62, velocity=0, time=53),
    Message('note_on', channel=6, note=59, velocity=0, time=0),
    Message('note_on', channel=6, note=67, velocity=0, time=9),
    Message('note_on', channel=6, note=43, velocity=97, time=58),
    Message('note_on', channel=6, note=50, velocity=98, time=0),
    Message('note_on', channel=6, note=43, velocity=0, time=38),
    Message('note_on', channel=6, note=50, velocity=0, time=2),
    Message('note_on', channel=6, note=59, velocity=80, time=80),
    Message('note_on', channel=6, note=67, velocity=81, time=0),
    Message('note_on', channel=6, note=62, velocity=98, time=0),
    Message('note_on', channel=6, note=59, velocity=0, time=42),
    Message('note_on', channel=6, note=62, velocity=0, time=1),
    Message('note_on', channel=6, note=67, velocity=0, time=6),
    Message('note_on', channel=6, note=59, velocity=85, time=71),
    Message('note_on', channel=6, note=62, velocity=97, time=0),
    Message('note_on', channel=6, note=50, velocity=85, time=0),
    Message('note_on', channel=6, note=67, velocity=84, time=0),
    Message('note_on', channel=6, note=43, velocity=85, time=0),
    Message('note_on', channel=6, note=62, velocity=0, time=40),
    Message('note_on', channel=6, note=59, velocity=0, time=2),
    Message('note_on', channel=6, note=43, velocity=0, time=0),
    Message('note_on', channel=6, note=50, velocity=0, time=0),
    Message('note_on', channel=6, note=67, velocity=0, time=11),
    Message('note_on', channel=6, note=59, velocity=66, time=67),
    Message('note_on', channel=6, note=62, velocity=84, time=0),
    Message('note_on', channel=6, note=67, velocity=71, time=0),
    Message('note_on', channel=6, note=62, velocity=0, time=30),
    Message('note_on', channel=6, note=59, velocity=0, time=5),
    Message('note_on', channel=6, note=67, velocity=0, time=3),
    Message('note_on', channel=6, note=50, velocity=81, time=22),
    Message('note_on', channel=6, note=43, velocity=84, time=0),
    Message('note_on', channel=6, note=50, velocity=0, time=32),
    Message('note_on', channel=6, note=43, velocity=0, time=1),
    Message('note_on', channel=6, note=59, velocity=85, time=27),
    Message('note_on', channel=6, note=67, velocity=91, time=0),
    Message('note_on', channel=6, note=62, velocity=98, time=0),
    Message('note_on', channel=6, note=62, velocity=0, time=43),
    Message('note_on', channel=6, note=59, velocity=0, time=2),
    Message('note_on', channel=6, note=67, velocity=0, time=14),
    Message('note_on', channel=6, note=50, velocity=101, time=61),
    Message('note_on', channel=6, note=43, velocity=95, time=0),
    Message('note_on', channel=6, note=50, velocity=0, time=39),
    Message('note_on', channel=6, note=43, velocity=0, time=3),
    Message('note_on', channel=6, note=59, velocity=78, time=78),
    Message('note_on', channel=6, note=67, velocity=87, time=0),
    Message('note_on', channel=6, note=62, velocity=92, time=0),
    Message('note_on', channel=6, note=62, velocity=0, time=52),
    Message('note_on', channel=6, note=59, velocity=0, time=0),
    Message('note_on', channel=6, note=67, velocity=0, time=6),
    Message('note_on', channel=6, note=43, velocity=85, time=62),
    Message('note_on', channel=6, note=50, velocity=95, time=0),
    Message('note_on', channel=6, note=43, velocity=0, time=28),
    Message('note_on', channel=6, note=50, velocity=0, time=11),
    Message('note_on', channel=6, note=59, velocity=85, time=81),
    Message('note_on', channel=6, note=62, velocity=97, time=0),
    Message('note_on', channel=6, note=67, velocity=85, time=0),
    Message('note_on', channel=6, note=62, velocity=0, time=45),
    Message('note_on', channel=6, note=59, velocity=0, time=0),
    Message('note_on', channel=6, note=67, velocity=0, time=14),
    Message('note_on', channel=6, note=50, velocity=87, time=61),
    Message('note_on', channel=6, note=43, velocity=84, time=0),
    Message('note_on', channel=6, note=43, velocity=0, time=31),
    Message('note_on', channel=6, note=50, velocity=0, time=1),
    Message('control_change', channel=6, control=64, value=0, time=73),
    Message('note_on', channel=6, note=50, velocity=95, time=15),
    Message('note_on', channel=6, note=43, velocity=92, time=0),
    Message('note_on', channel=6, note=59, velocity=84, time=0),
    Message('note_on', channel=6, note=62, velocity=98, time=0),
    Message('note_on', channel=6, note=67, velocity=87, time=0),
    Message('control_change', channel=6, control=64, value=127, time=74),
    Message('note_on', channel=6, note=43, velocity=0, time=68),
    Message('note_on', channel=6, note=50, velocity=0, time=1),
    Message('note_on', channel=6, note=59, velocity=0, time=6),
    Message('note_on', channel=6, note=67, velocity=0, time=5),
    Message('note_on', channel=6, note=62, velocity=0, time=8),
    Message('note_on', channel=6, note=59, velocity=87, time=78),
    Message('note_on', channel=6, note=62, velocity=105, time=0),
    Message('note_on', channel=6, note=67, velocity=101, time=0),
    Message('note_on', channel=6, note=59, velocity=0, time=48),
    Message('note_on', channel=6, note=62, velocity=0, time=5),
    Message('note_on', channel=6, note=67, velocity=0, time=9),
    Message('note_on', channel=6, note=59, velocity=74, time=58),
    Message('note_on', channel=6, note=62, velocity=95, time=0),
    Message('note_on', channel=6, note=67, velocity=92, time=0),
    Message('note_on', channel=6, note=59, velocity=0, time=33),
    Message('note_on', channel=6, note=62, velocity=0, time=7),
    Message('note_on', channel=6, note=67, velocity=0, time=14),
    Message('control_change', channel=6, control=64, value=0, time=47),
    Message('note_on', channel=6, note=62, velocity=80, time=19),
    Message('note_on', channel=6, note=69, velocity=89, time=0),
    Message('note_on', channel=6, note=66, velocity=87, time=0),
    Message('note_on', channel=6, note=57, velocity=89, time=0),
    Message('note_on', channel=6, note=50, velocity=98, time=0),
    Message('control_change', channel=6, control=64, value=127, time=71),
    Message('note_on', channel=6, note=57, velocity=0, time=31),
    Message('note_on', channel=6, note=57, velocity=97, time=18),
    Message('note_on', channel=6, note=62, velocity=0, time=26),
    Message('note_on', channel=6, note=69, velocity=0, time=5),
    Message('note_on', channel=6, note=66, velocity=0, time=4),
    Message('note_on', channel=6, note=57, velocity=0, time=14),
    Message('note_on', channel=6, note=50, velocity=0, time=42),
    Message('note_on', channel=6, note=62, velocity=87, time=29),
    Message('note_on', channel=6, note=69, velocity=97, time=0),
    Message('note_on', channel=6, note=66, velocity=92, time=0),
    Message('note_on', channel=6, note=66, velocity=0, time=39),
    Message('note_on', channel=6, note=62, velocity=0, time=3),
    Message('note_on', channel=6, note=69, velocity=0, time=10),
    Message('note_on', channel=6, note=60, velocity=97, time=68),
    Message('note_on', channel=6, note=64, velocity=101, time=0),
    Message('note_on', channel=6, note=67, velocity=98, time=0),
    Message('control_change', channel=6, control=64, value=0, time=19),
    Message('control_change', channel=6, control=64, value=127, time=91),
    Message('note_on', channel=6, note=55, velocity=92, time=10),
    Message('note_on', channel=6, note=48, velocity=97, time=0),
    Message('note_on', channel=6, note=60, velocity=0, time=48),
    Message('note_on', channel=6, note=64, velocity=0, time=6),
    Message('note_on', channel=6, note=67, velocity=0, time=2),
    Message('note_on', channel=6, note=55, velocity=0, time=24),
    Message('note_on', channel=6, note=48, velocity=0, time=8),
    Message('note_on', channel=6, note=67, velocity=85, time=32),
    Message('note_on', channel=6, note=64, velocity=92, time=0),
    Message('note_on', channel=6, note=60, velocity=80, time=0),
    Message('note_on', channel=6, note=64, velocity=0, time=57),
    Message('note_on', channel=6, note=60, velocity=0, time=1),
    Message('note_on', channel=6, note=67, velocity=0, time=8),
    Message('note_on', channel=6, note=48, velocity=101, time=54),
    Message('note_on', channel=6, note=55, velocity=101, time=0),
    Message('note_on', channel=6, note=55, velocity=0, time=47),
    Message('note_on', channel=6, note=48, velocity=0, time=4),
    Message('note_on', channel=6, note=60, velocity=73, time=69),
    Message('note_on', channel=6, note=67, velocity=74, time=0),
    Message('note_on', channel=6, note=64, velocity=81, time=0),
    Message('note_on', channel=6, note=64, velocity=0, time=40),
    Message('note_on', channel=6, note=67, velocity=0, time=0),
    Message('note_on', channel=6, note=60, velocity=0, time=1),
    Message('note_on', channel=6, note=64, velocity=98, time=79),
    Message('note_on', channel=6, note=60, velocity=85, time=0),
    Message('note_on', channel=6, note=67, velocity=84, time=0),
    Message('note_on', channel=6, note=48, velocity=97, time=120),
    Message('note_on', channel=6, note=55, velocity=97, time=0),
    Message('note_on', channel=6, note=60, velocity=0, time=4),
    Message('note_on', channel=6, note=64, velocity=0, time=0),
    Message('note_on', channel=6, note=67, velocity=0, time=5),
    Message('note_on', channel=6, note=55, velocity=0, time=40),
    Message('note_on', channel=6, note=48, velocity=0, time=13),
    Message('note_on', channel=6, note=64, velocity=92, time=58),
    Message('note_on', channel=6, note=60, velocity=84, time=0),
    Message('note_on', channel=6, note=67, velocity=85, time=0),
    Message('note_on', channel=6, note=64, velocity=0, time=98),
    Message('note_on', channel=6, note=60, velocity=0, time=5),
    Message('note_on', channel=6, note=67, velocity=0, time=8),
    Message('note_on', channel=6, note=43, velocity=97, time=9),
    Message('note_on', channel=6, note=50, velocity=97, time=0),
    Message('note_on', channel=6, note=43, velocity=0, time=45),
    Message('note_on', channel=6, note=50, velocity=0, time=3),
    Message('control_change', channel=6, control=64, value=0, time=53),
    Message('note_on', channel=6, note=50, velocity=97, time=19),
    Message('note_on', channel=6, note=43, velocity=95, time=0),
    Message('note_on', channel=6, note=62, velocity=92, time=0),
    Message('note_on', channel=6, note=59, velocity=81, time=0),
    Message('note_on', channel=6, note=67, velocity=85, time=0),
    Message('control_change', channel=6, control=64, value=127, time=86),
    Message('note_on', channel=6, note=59, velocity=0, time=77),
    Message('note_on', channel=6, note=62, velocity=0, time=9),
    Message('note_on', channel=6, note=67, velocity=0, time=3),
    Message('note_on', channel=6, note=43, velocity=0, time=55),
    Message('note_on', channel=6, note=50, velocity=0, time=0),
    Message('note_on', channel=6, note=62, velocity=98, time=10),
    Message('note_on', channel=6, note=59, velocity=81, time=0),
    Message('note_on', channel=6, note=67, velocity=97, time=0),
    Message('note_on', channel=6, note=62, velocity=0, time=49),
    Message('note_on', channel=6, note=59, velocity=0, time=2),
    Message('note_on', channel=6, note=67, velocity=0, time=10),
    Message('note_on', channel=6, note=59, velocity=73, time=59),
    Message('note_on', channel=6, note=67, velocity=80, time=0),
    Message('note_on', channel=6, note=62, velocity=87, time=0),
    Message('note_on', channel=6, note=62, velocity=0, time=34),
    Message('note_on', channel=6, note=59, velocity=0, time=1),
    Message('note_on', channel=6, note=67, velocity=0, time=4),
    Message('note_on', channel=6, note=50, velocity=91, time=21),
    Message('note_on', channel=6, note=43, velocity=87, time=0),
    Message('note_on', channel=6, note=50, velocity=0, time=32),
    Message('note_on', channel=6, note=43, velocity=0, time=2),
    Message('note_on', channel=6, note=62, velocity=97, time=26),
    Message('note_on', channel=6, note=59, velocity=81, time=0),
    Message('note_on', channel=6, note=67, velocity=87, time=0),
    Message('note_on', channel=6, note=62, velocity=0, time=67),
    Message('note_on', channel=6, note=59, velocity=0, time=5),
    Message('note_on', channel=6, note=67, velocity=0, time=6),
    Message('note_on', channel=6, note=50, velocity=101, time=42),
    Message('note_on', channel=6, note=43, velocity=98, time=0),
    Message('note_on', channel=6, note=50, velocity=0, time=48),
    Message('note_on', channel=6, note=43, velocity=0, time=5),
    Message('note_on', channel=6, note=59, velocity=87, time=67),
    Message('note_on', channel=6, note=62, velocity=98, time=0),
    Message('note_on', channel=6, note=67, velocity=91, time=0),
    Message('note_on', channel=6, note=59, velocity=0, time=44),
    Message('note_on', channel=6, note=62, velocity=0, time=1),
    Message('note_on', channel=6, note=67, velocity=0, time=12),
    Message('note_on', channel=6, note=50, velocity=102, time=63),
    Message('note_on', channel=6, note=57, velocity=98, time=0),
    Message('control_change', channel=6, control=64, value=0, time=55),
    Message('control_change', channel=6, control=64, value=127, time=87),
    Message('note_on', channel=6, note=62, velocity=97, time=98),
    Message('note_on', channel=6, note=69, velocity=98, time=0),
    Message('note_on', channel=6, note=66, velocity=98, time=0),
    Message('note_on', channel=6, note=57, velocity=0, time=18),
    Message('note_on', channel=6, note=50, velocity=0, time=7),
    Message('note_on', channel=6, note=69, velocity=0, time=81),
    Message('note_on', channel=6, note=62, velocity=0, time=2),
    Message('note_on', channel=6, note=66, velocity=0, time=2),
    Message('note_on', channel=6, note=50, velocity=95, time=10),
    Message('note_on', channel=6, note=57, velocity=84, time=0),
    Message('note_on', channel=6, note=50, velocity=0, time=49),
    Message('note_on', channel=6, note=57, velocity=0, time=1),
    Message('note_on', channel=6, note=62, velocity=84, time=70),
    Message('note_on', channel=6, note=69, velocity=87, time=0),
    Message('note_on', channel=6, note=66, velocity=84, time=0),
    Message('note_on', channel=6, note=62, velocity=0, time=45),
    Message('note_on', channel=6, note=69, velocity=0, time=3),
    Message('note_on', channel=6, note=66, velocity=0, time=1),
    Message('note_on', channel=6, note=62, velocity=85, time=71),
    Message('note_on', channel=6, note=66, velocity=89, time=0),
    Message('note_on', channel=6, note=69, velocity=95, time=0),
    Message('note_on', channel=6, note=69, velocity=0, time=96),
    Message('note_on', channel=6, note=62, velocity=0, time=18),
    Message('note_on', channel=6, note=66, velocity=0, time=3),
    Message('note_on', channel=6, note=50, velocity=97, time=3),
    Message('note_on', channel=6, note=57, velocity=89, time=0),
    Message('note_on', channel=6, note=57, velocity=0, time=51),
    Message('note_on', channel=6, note=50, velocity=0, time=13),
    Message('note_on', channel=6, note=62, velocity=85, time=56),
    Message('note_on', channel=6, note=66, velocity=92, time=0),
    Message('note_on', channel=6, note=62, velocity=0, time=87),
    Message('note_on', channel=6, note=66, velocity=0, time=8),
    Message('note_on', channel=6, note=55, velocity=98, time=25),
    Message('note_on', channel=6, note=55, velocity=0, time=46),
    Message('control_change', channel=6, control=64, value=0, time=55),
    Message('note_on', channel=6, note=55, velocity=101, time=19),
    Message('note_on', channel=6, note=48, velocity=101, time=0),
    Message('note_on', channel=6, note=64, velocity=95, time=0),
    Message('note_on', channel=6, note=67, velocity=84, time=0),
    Message('note_on', channel=6, note=60, velocity=85, time=0),
    Message('control_change', channel=6, control=64, value=127, time=75),
    Message('note_on', channel=6, note=60, velocity=0, time=32),
    Message('note_on', channel=6, note=64, velocity=0, time=1),
    Message('note_on', channel=6, note=67, velocity=0, time=8),
    Message('note_on', channel=6, note=55, velocity=0, time=118),
    Message('note_on', channel=6, note=48, velocity=0, time=2),
    Message('note_on', channel=6, note=67, velocity=89, time=4),
    Message('note_on', channel=6, note=64, velocity=92, time=0),
    Message('note_on', channel=6, note=60, velocity=85, time=0),
    Message('note_on', channel=6, note=64, velocity=0, time=111),
    Message('note_on', channel=6, note=67, velocity=0, time=0),
    Message('note_on', channel=6, note=60, velocity=0, time=4),
    Message('note_on', channel=6, note=48, velocity=80, time=5),
    Message('note_on', channel=6, note=55, velocity=87, time=0),
    Message('note_on', channel=6, note=48, velocity=0, time=37),
    Message('note_on', channel=6, note=55, velocity=0, time=14),
    Message('note_on', channel=6, note=64, velocity=87, time=69),
    Message('note_on', channel=6, note=60, velocity=84, time=0),
    Message('note_on', channel=6, note=67, velocity=85, time=0),
    Message('note_on', channel=6, note=64, velocity=0, time=43),
    Message('note_on', channel=6, note=60, velocity=0, time=4),
    Message('note_on', channel=6, note=67, velocity=0, time=5),
    Message('note_on', channel=6, note=64, velocity=101, time=68),
    Message('note_on', channel=6, note=67, velocity=95, time=0),
    Message('note_on', channel=6, note=60, velocity=95, time=0),
    Message('note_on', channel=6, note=64, velocity=0, time=76),
    Message('note_on', channel=6, note=67, velocity=0, time=1),
    Message('note_on', channel=6, note=60, velocity=0, time=3),
    Message('note_on', channel=6, note=64, velocity=92, time=160),
    Message('note_on', channel=6, note=60, velocity=91, time=0),
    Message('note_on', channel=6, note=67, velocity=89, time=0),
    Message('note_on', channel=6, note=64, velocity=0, time=39),
    Message('note_on', channel=6, note=60, velocity=0, time=7),
    Message('note_on', channel=6, note=67, velocity=0, time=15),
    Message('control_change', channel=6, control=64, value=0, time=23),
    Message('note_on', channel=6, note=59, velocity=84, time=36),
    Message('note_on', channel=6, note=62, velocity=98, time=0),
    Message('note_on', channel=6, note=67, velocity=89, time=0),
    Message('note_on', channel=6, note=50, velocity=85, time=0),
    Message('note_on', channel=6, note=43, velocity=89, time=0),
    Message('control_change', channel=6, control=64, value=127, time=70),
    Message('note_on', channel=6, note=67, velocity=0, time=89),
    Message('note_on', channel=6, note=59, velocity=0, time=3),
    Message('note_on', channel=6, note=62, velocity=0, time=4),
    Message('note_on', channel=6, note=50, velocity=0, time=68),
    Message('note_on', channel=6, note=43, velocity=0, time=2),
    Message('note_on', channel=6, note=62, velocity=95, time=4),
    Message('note_on', channel=6, note=67, velocity=85, time=0),
    Message('note_on', channel=6, note=59, velocity=87, time=0),
    Message('note_on', channel=6, note=62, velocity=0, time=40),
    Message('note_on', channel=6, note=59, velocity=0, time=7),
    Message('note_on', channel=6, note=67, velocity=0, time=4),
    Message('note_on', channel=6, note=67, velocity=74, time=69),
    Message('note_on', channel=6, note=62, velocity=81, time=0),
    Message('note_on', channel=6, note=59, velocity=68, time=0),
    Message('note_on', channel=6, note=67, velocity=0, time=34),
    Message('note_on', channel=6, note=62, velocity=0, time=4),
    Message('note_on', channel=6, note=59, velocity=0, time=5),
    Message('note_on', channel=6, note=43, velocity=89, time=17),
    Message('note_on', channel=6, note=50, velocity=92, time=0),
    Message('note_on', channel=6, note=43, velocity=0, time=36),
    Message('note_on', channel=6, note=50, velocity=0, time=1),
    Message('note_on', channel=6, note=62, velocity=92, time=23),
    Message('note_on', channel=6, note=59, velocity=81, time=0),
    Message('note_on', channel=6, note=67, velocity=84, time=0),
    Message('note_on', channel=6, note=62, velocity=0, time=78),
    Message('note_on', channel=6, note=59, velocity=0, time=4),
    Message('note_on', channel=6, note=67, velocity=0, time=7),
    Message('note_on', channel=6, note=43, velocity=87, time=31),
    Message('note_on', channel=6, note=50, velocity=97, time=0),
    Message('note_on', channel=6, note=50, velocity=0, time=52),
    Message('note_on', channel=6, note=43, velocity=0, time=1),
    Message('note_on', channel=6, note=59, velocity=89, time=67),
    Message('note_on', channel=6, note=62, velocity=98, time=0),
    Message('note_on', channel=6, note=67, velocity=92, time=0),
    Message('note_on', channel=6, note=62, velocity=0, time=53),
    Message('note_on', channel=6, note=59, velocity=0, time=1),
    Message('note_on', channel=6, note=67, velocity=0, time=2),
    Message('note_on', channel=6, note=43, velocity=85, time=64),
    Message('note_on', channel=6, note=50, velocity=97, time=0),
    Message('note_on', channel=6, note=50, velocity=0, time=42),
    Message('note_on', channel=6, note=43, velocity=0, time=8),
    Message('control_change', channel=6, control=64, value=0, time=51),
    Message('note_on', channel=6, note=64, velocity=95, time=19),
    Message('note_on', channel=6, note=52, velocity=91, time=0),
    Message('note_on', channel=6, note=59, velocity=92, time=0),
    Message('note_on', channel=6, note=55, velocity=89, time=0),
    Message('control_change', channel=6, control=64, value=127, time=24),
    Message('note_on', channel=6, note=64, velocity=0, time=37),
    Message('note_on', channel=6, note=52, velocity=0, time=4),
    Message('note_on', channel=6, note=55, velocity=0, time=0),
    Message('note_on', channel=6, note=59, velocity=0, time=2),
    Message('note_on', channel=6, note=52, velocity=80, time=173),
    Message('note_on', channel=6, note=59, velocity=80, time=0),
    Message('note_on', channel=6, note=55, velocity=87, time=0),
    Message('note_on', channel=6, note=59, velocity=0, time=49),
    Message('note_on', channel=6, note=52, velocity=0, time=0),
    Message('note_on', channel=6, note=55, velocity=0, time=1),
    Message('note_on', channel=6, note=64, velocity=85, time=70),
    Message('note_on', channel=6, note=64, velocity=0, time=58),
    Message('note_on', channel=6, note=59, velocity=95, time=62),
    Message('note_on', channel=6, note=55, velocity=95, time=0),
    Message('note_on', channel=6, note=52, velocity=95, time=0),
    Message('note_on', channel=6, note=59, velocity=0, time=53),
    Message('note_on', channel=6, note=55, velocity=0, time=1),
    Message('note_on', channel=6, note=52, velocity=0, time=2),
    Message('note_on', channel=6, note=64, velocity=95, time=64),
    Message('note_on', channel=6, note=64, velocity=0, time=61),
    Message('note_on', channel=6, note=55, velocity=85, time=59),
    Message('note_on', channel=6, note=59, velocity=89, time=0),
    Message('note_on', channel=6, note=52, velocity=92, time=0),
    Message('note_on', channel=6, note=55, velocity=0, time=54),
    Message('note_on', channel=6, note=59, velocity=0, time=1),
    Message('note_on', channel=6, note=52, velocity=0, time=6),
    Message('note_on', channel=6, note=55, velocity=84, time=59),
    Message('note_on', channel=6, note=52, velocity=81, time=0),
    Message('note_on', channel=6, note=59, velocity=85, time=0),
    Message('note_on', channel=6, note=55, velocity=0, time=44),
    Message('note_on', channel=6, note=52, velocity=0, time=1),
    Message('note_on', channel=6, note=59, velocity=0, time=4),
    Message('control_change', channel=6, control=64, value=0, time=23),
    Message('note_on', channel=6, note=66, velocity=81, time=48),
    Message('note_on', channel=6, note=62, velocity=81, time=0),
    Message('control_change', channel=6, control=64, value=127, time=46),
    Message('note_on', channel=6, note=62, velocity=0, time=26),
    Message('note_on', channel=6, note=66, velocity=0, time=2),
    Message('note_on', channel=6, note=66, velocity=48, time=46),
    Message('note_on', channel=6, note=66, velocity=0, time=18),
    Message('note_on', channel=6, note=62, velocity=71, time=102),
    Message('note_on', channel=6, note=66, velocity=80, time=0),
    Message('note_on', channel=6, note=62, velocity=0, time=40),
    Message('note_on', channel=6, note=66, velocity=0, time=6),
    Message('note_on', channel=6, note=66, velocity=92, time=74),
    Message('note_on', channel=6, note=62, velocity=95, time=0),
    Message('note_on', channel=6, note=62, velocity=0, time=47),
    Message('note_on', channel=6, note=66, velocity=0, time=9),
    Message('note_on', channel=6, note=50, velocity=95, time=64),
    Message('note_on', channel=6, note=57, velocity=87, time=0),
    Message('note_on', channel=6, note=57, velocity=0, time=54),
    Message('note_on', channel=6, note=50, velocity=0, time=16),
    Message('note_on', channel=6, note=66, velocity=81, time=50),
    Message('note_on', channel=6, note=62, velocity=87, time=0),
    Message('note_on', channel=6, note=66, velocity=0, time=68),
    Message('note_on', channel=6, note=62, velocity=0, time=2),
    Message('note_on', channel=6, note=50, velocity=101, time=50),
    Message('note_on', channel=6, note=57, velocity=92, time=0),
    Message('note_on', channel=6, note=57, velocity=0, time=61),
    Message('note_on', channel=6, note=50, velocity=0, time=10),
    Message('note_on', channel=6, note=62, velocity=71, time=49),
    Message('note_on', channel=6, note=66, velocity=68, time=0),
    Message('note_on', channel=6, note=66, velocity=0, time=36),
    Message('control_change', channel=6, control=64, value=0, time=1),
    Message('note_on', channel=6, note=62, velocity=0, time=9),
    Message('note_on', channel=6, note=60, velocity=91, time=74),
    Message('note_on', channel=6, note=64, velocity=95, time=0),
    Message('note_on', channel=6, note=55, velocity=98, time=0),
    Message('note_on', channel=6, note=48, velocity=101, time=0),
    Message('control_change', channel=6, control=64, value=127, time=87),
    Message('note_on', channel=6, note=60, velocity=0, time=21),
    Message('note_on', channel=6, note=64, velocity=0, time=14),
    Message('note_on', channel=6, note=55, velocity=0, time=86),
    Message('note_on', channel=6, note=48, velocity=0, time=2),
    Message('note_on', channel=6, note=60, velocity=78, time=30),
    Message('note_on', channel=6, note=64, velocity=92, time=0),
    Message('note_on', channel=6, note=60, velocity=0, time=95),
    Message('note_on', channel=6, note=64, velocity=0, time=1),
    Message('note_on', channel=6, note=48, velocity=80, time=24),
    Message('note_on', channel=6, note=55, velocity=87, time=0),
    Message('note_on', channel=6, note=48, velocity=0, time=40),
    Message('note_on', channel=6, note=55, velocity=0, time=9),
    Message('note_on', channel=6, note=60, velocity=69, time=71),
    Message('note_on', channel=6, note=64, velocity=84, time=0),
    Message('note_on', channel=6, note=60, velocity=0, time=47),
    Message('note_on', channel=6, note=64, velocity=0, time=2),
    Message('note_on', channel=6, note=60, velocity=89, time=71),
    Message('note_on', channel=6, note=64, velocity=95, time=0),
    Message('note_on', channel=6, note=60, velocity=0, time=53),
    Message('note_on', channel=6, note=64, velocity=0, time=6),
    Message('note_on', channel=6, note=60, velocity=89, time=61),
    Message('note_on', channel=6, note=64, velocity=97, time=0),
    Message('note_on', channel=6, note=64, velocity=0, time=44),
    Message('note_on', channel=6, note=60, velocity=0, time=6),
    Message('note_on', channel=6, note=43, velocity=101, time=70),
    Message('note_on', channel=6, note=50, velocity=105, time=0),
    Message('control_change', channel=6, control=64, value=0, time=36),
    Message('note_on', channel=6, note=55, velocity=80, time=84),
    Message('note_on', channel=6, note=62, velocity=91, time=0),
    Message('note_on', channel=6, note=59, velocity=95, time=0),
    Message('note_on', channel=6, note=50, velocity=0, time=7),
    Message('note_on', channel=6, note=43, velocity=0, time=4),
    Message('control_change', channel=6, control=64, value=127, time=6),
    Message('note_on', channel=6, note=55, velocity=0, time=105),
    Message('note_on', channel=6, note=59, velocity=0, time=3),
    Message('note_on', channel=6, note=62, velocity=0, time=5),
    Message('note_on', channel=6, note=55, velocity=43, time=50),
    Message('note_on', channel=6, note=55, velocity=0, time=19),
    Message('note_on', channel=6, note=43, velocity=98, time=41),
    Message('note_on', channel=6, note=43, velocity=0, time=95),
    Message('note_on', channel=6, note=55, velocity=95, time=25),
    Message('note_on', channel=6, note=62, velocity=98, time=0),
    Message('note_on', channel=6, note=59, velocity=101, time=0),
    Message('note_on', channel=6, note=55, velocity=0, time=57),
    Message('note_on', channel=6, note=59, velocity=0, time=1),
    Message('note_on', channel=6, note=62, velocity=0, time=8),
    Message('note_on', channel=6, note=43, velocity=87, time=54),
    Message('note_on', channel=6, note=43, velocity=0, time=72),
    Message('note_on', channel=6, note=62, velocity=89, time=48),
    Message('note_on', channel=6, note=59, velocity=92, time=0),
    Message('note_on', channel=6, note=55, velocity=89, time=0),
    Message('note_on', channel=6, note=59, velocity=0, time=41),
    Message('note_on', channel=6, note=62, velocity=0, time=1),
    Message('note_on', channel=6, note=55, velocity=0, time=3),
    Message('note_on', channel=6, note=55, velocity=84, time=75),
    Message('note_on', channel=6, note=59, velocity=98, time=0),
    Message('note_on', channel=6, note=62, velocity=98, time=0),
    Message('note_on', channel=6, note=55, velocity=0, time=63),
    Message('note_on', channel=6, note=59, velocity=0, time=33),
    Message('note_on', channel=6, note=62, velocity=0, time=10),
    Message('note_on', channel=6, note=52, velocity=95, time=14),
    Message('note_on', channel=6, note=52, velocity=0, time=45),
    Message('control_change', channel=6, control=64, value=0, time=35),
    Message('note_on', channel=6, note=60, velocity=98, time=40),
    Message('note_on', channel=6, note=57, velocity=89, time=0),
    Message('note_on', channel=6, note=45, velocity=101, time=0),
    Message('note_on', channel=6, note=64, velocity=97, time=0),
    Message('control_change', channel=6, control=64, value=127, time=54),
    Message('note_on', channel=6, note=57, velocity=0, time=45),
    Message('note_on', channel=6, note=60, velocity=0, time=0),
    Message('note_on', channel=6, note=64, velocity=0, time=5),
    Message('note_on', channel=6, note=52, velocity=89, time=76),
    Message('note_on', channel=6, note=60, velocity=81, time=0),
    Message('note_on', channel=6, note=64, velocity=78, time=0),
    Message('note_on', channel=6, note=57, velocity=69, time=0),
    Message('note_on', channel=6, note=45, velocity=0, time=2),
    Message('note_on', channel=6, note=60, velocity=0, time=24),
    Message('note_on', channel=6, note=64, velocity=0, time=4),
    Message('note_on', channel=6, note=57, velocity=0, time=5),
    Message('note_on', channel=6, note=52, velocity=0, time=8),
    Message('note_on', channel=6, note=60, velocity=95, time=137),
    Message('note_on', channel=6, note=57, velocity=89, time=0),
    Message('note_on', channel=6, note=64, velocity=84, time=0),
    Message('note_on', channel=6, note=60, velocity=0, time=68),
    Message('note_on', channel=6, note=57, velocity=0, time=2),
    Message('note_on', channel=6, note=64, velocity=0, time=5),
    Message('note_on', channel=6, note=45, velocity=97, time=45),
    Message('note_on', channel=6, note=45, velocity=0, time=81),
    Message('note_on', channel=6, note=60, velocity=95, time=39),
    Message('note_on', channel=6, note=64, velocity=87, time=0),
    Message('note_on', channel=6, note=57, velocity=84, time=0),
    Message('note_on', channel=6, note=60, velocity=0, time=40),
    Message('note_on', channel=6, note=57, velocity=0, time=8),
    Message('note_on', channel=6, note=64, velocity=0, time=0),
    Message('note_on', channel=6, note=60, velocity=98, time=72),
    Message('note_on', channel=6, note=64, velocity=97, time=0),
    Message('note_on', channel=6, note=57, velocity=87, time=0),
    Message('note_on', channel=6, note=57, velocity=0, time=51),
    Message('note_on', channel=6, note=60, velocity=0, time=5),
    Message('note_on', channel=6, note=64, velocity=0, time=20),
    Message('note_on', channel=6, note=55, velocity=95, time=44),
    Message('note_on', channel=6, note=55, velocity=0, time=40),
    Message('control_change', channel=6, control=64, value=0, time=51),
    Message('note_on', channel=6, note=55, velocity=95, time=29),
    Message('note_on', channel=6, note=64, velocity=87, time=0),
    Message('note_on', channel=6, note=60, velocity=85, time=0),
    Message('note_on', channel=6, note=67, velocity=85, time=0),
    Message('note_on', channel=6, note=48, velocity=97, time=0),
    Message('note_on', channel=6, note=64, velocity=0, time=43),
    Message('note_on', channel=6, note=60, velocity=0, time=5),
    Message('control_change', channel=6, control=64, value=127, time=8),
    Message('note_on', channel=6, note=67, velocity=0, time=2),
    Message('note_on', channel=6, note=55, velocity=0, time=32),
    Message('note_on', channel=6, note=48, velocity=0, time=6),
    Message('note_on', channel=6, note=67, velocity=69, time=24),
    Message('note_on', channel=6, note=60, velocity=65, time=0),
    Message('note_on', channel=6, note=64, velocity=84, time=0),
    Message('note_on', channel=6, note=64, velocity=0, time=31),
    Message('note_on', channel=6, note=67, velocity=0, time=1),
    Message('note_on', channel=6, note=60, velocity=0, time=3),
    Message('note_on', channel=6, note=48, velocity=91, time=25),
    Message('note_on', channel=6, note=55, velocity=97, time=0),
    Message('note_on', channel=6, note=48, velocity=0, time=28),
    Message('note_on', channel=6, note=55, velocity=0, time=13),
    Message('note_on', channel=6, note=64, velocity=89, time=19),
    Message('note_on', channel=6, note=67, velocity=84, time=0),
    Message('note_on', channel=6, note=60, velocity=85, time=0),
    Message('note_on', channel=6, note=64, velocity=0, time=46),
    Message('note_on', channel=6, note=60, velocity=0, time=6),
    Message('note_on', channel=6, note=67, velocity=0, time=13),
    Message('note_on', channel=6, note=55, velocity=101, time=55),
    Message('note_on', channel=6, note=48, velocity=98, time=0),
    Message('note_on', channel=6, note=55, velocity=0, time=42),
    Message('note_on', channel=6, note=48, velocity=0, time=2),
    Message('note_on', channel=6, note=60, velocity=80, time=76),
    Message('note_on', channel=6, note=67, velocity=84, time=0),
    Message('note_on', channel=6, note=64, velocity=92, time=0),
    Message('note_on', channel=6, note=60, velocity=0, time=55),
    Message('note_on', channel=6, note=64, velocity=0, time=2),
    Message('note_on', channel=6, note=67, velocity=0, time=5),
    Message('note_on', channel=6, note=55, velocity=91, time=58),
    Message('note_on', channel=6, note=48, velocity=92, time=0),
    Message('note_on', channel=6, note=48, velocity=0, time=44),
    Message('note_on', channel=6, note=55, velocity=0, time=3),
    Message('note_on', channel=6, note=60, velocity=80, time=73),
    Message('note_on', channel=6, note=67, velocity=84, time=0),
    Message('note_on', channel=6, note=64, velocity=95, time=0),
    Message('note_on', channel=6, note=67, velocity=0, time=36),
    Message('note_on', channel=6, note=64, velocity=0, time=2),
    Message('note_on', channel=6, note=60, velocity=0, time=10),
    Message('control_change', channel=6, control=64, value=0, time=166),
    Message('note_on', channel=6, note=43, velocity=95, time=26),
    Message('note_on', channel=6, note=62, velocity=87, time=0),
    Message('note_on', channel=6, note=59, velocity=84, time=0),
    Message('note_on', channel=6, note=55, velocity=80, time=0),
    Message('note_on', channel=6, note=55, velocity=0, time=84),
    Message('note_on', channel=6, note=59, velocity=0, time=0),
    Message('note_on', channel=6, note=62, velocity=0, time=4),
    Message('control_change', channel=6, control=64, value=127, time=3),
    Message('note_on', channel=6, note=43, velocity=0, time=23),
    Message('note_on', channel=6, note=55, velocity=68, time=6),
    Message('note_on', channel=6, note=62, velocity=78, time=0),
    Message('note_on', channel=6, note=59, velocity=85, time=0),
    Message('note_on', channel=6, note=55, velocity=0, time=42),
    Message('note_on', channel=6, note=62, velocity=0, time=2),
    Message('note_on', channel=6, note=59, velocity=0, time=4),
    Message('note_on', channel=6, note=43, velocity=89, time=12),
    Message('note_on', channel=6, note=43, velocity=0, time=50),
    Message('note_on', channel=6, note=62, velocity=89, time=10),
    Message('note_on', channel=6, note=55, velocity=87, time=0),
    Message('note_on', channel=6, note=59, velocity=92, time=0),
    Message('note_on', channel=6, note=59, velocity=0, time=53),
    Message('note_on', channel=6, note=62, velocity=0, time=1),
    Message('note_on', channel=6, note=55, velocity=0, time=1),
    Message('note_on', channel=6, note=43, velocity=98, time=65),
    Message('note_on', channel=6, note=43, velocity=0, time=65),
    Message('note_on', channel=6, note=62, velocity=78, time=55),
    Message('note_on', channel=6, note=55, velocity=69, time=0),
    Message('note_on', channel=6, note=59, velocity=80, time=0),
    Message('note_on', channel=6, note=62, velocity=0, time=34),
    Message('note_on', channel=6, note=59, velocity=0, time=8),
    Message('note_on', channel=6, note=55, velocity=0, time=4),
    Message('note_on', channel=6, note=62, velocity=87, time=74),
    Message('note_on', channel=6, note=55, velocity=84, time=0),
    Message('note_on', channel=6, note=59, velocity=89, time=0),
    Message('note_on', channel=6, note=62, velocity=0, time=42),
    Message('note_on', channel=6, note=59, velocity=0, time=4),
    Message('note_on', channel=6, note=55, velocity=0, time=0),
    Message('note_on', channel=6, note=43, velocity=84, time=74),
    Message('note_on', channel=6, note=43, velocity=0, time=68),
    Message('note_on', channel=6, note=62, velocity=85, time=52),
    Message('note_on', channel=6, note=59, velocity=85, time=0),
    Message('note_on', channel=6, note=55, velocity=76, time=0),
    Message('note_on', channel=6, note=59, velocity=0, time=39),
    Message('note_on', channel=6, note=62, velocity=0, time=1),
    Message('note_on', channel=6, note=55, velocity=0, time=4),
    Message('note_on', channel=6, note=43, velocity=92, time=76),
    Message('note_on', channel=6, note=62, velocity=92, time=0),
    Message('note_on', channel=6, note=59, velocity=97, time=0),
    Message('note_on', channel=6, note=55, velocity=91, time=0),
    Message('control_change', channel=6, control=64, value=0, time=18),
    Message('note_on', channel=6, note=59, velocity=0, time=37),
    Message('note_on', channel=6, note=55, velocity=0, time=3),
    Message('note_on', channel=6, note=62, velocity=0, time=1),
    Message('control_change', channel=6, control=64, value=127, time=28),
    Message('note_on', channel=6, note=43, velocity=0, time=18),
    Message('note_on', channel=6, note=62, velocity=85, time=15),
    Message('note_on', channel=6, note=55, velocity=78, time=0),
    Message('note_on', channel=6, note=59, velocity=81, time=0),
    Message('note_on', channel=6, note=59, velocity=0, time=40),
    Message('note_on', channel=6, note=62, velocity=0, time=1),
    Message('note_on', channel=6, note=55, velocity=0, time=2),
    Message('note_on', channel=6, note=43, velocity=89, time=17),
    Message('note_on', channel=6, note=43, velocity=0, time=46),
    Message('note_on', channel=6, note=55, velocity=85, time=14),
    Message('note_on', channel=6, note=59, velocity=87, time=0),
    Message('note_on', channel=6, note=62, velocity=87, time=0),
    Message('note_on', channel=6, note=59, velocity=0, time=33),
    Message('note_on', channel=6, note=55, velocity=0, time=4),
    Message('note_on', channel=6, note=62, velocity=0, time=9),
    Message('note_on', channel=6, note=43, velocity=97, time=74),
    Message('note_on', channel=6, note=43, velocity=0, time=70),
    Message('note_on', channel=6, note=59, velocity=89, time=50),
    Message('note_on', channel=6, note=55, velocity=85, time=0),
    Message('note_on', channel=6, note=62, velocity=87, time=0),
    Message('note_on', channel=6, note=59, velocity=0, time=48),
    Message('note_on', channel=6, note=55, velocity=0, time=5),
    Message('note_on', channel=6, note=62, velocity=0, time=6),
    Message('note_on', channel=6, note=43, velocity=97, time=61),
    Message('note_on', channel=6, note=43, velocity=0, time=70),
    Message('note_on', channel=6, note=59, velocity=95, time=50),
    Message('note_on', channel=6, note=55, velocity=89, time=0),
    Message('note_on', channel=6, note=62, velocity=97, time=0),
    Message('note_on', channel=6, note=59, velocity=0, time=37),
    Message('note_on', channel=6, note=55, velocity=0, time=8),
    Message('note_on', channel=6, note=62, velocity=0, time=3),
    Message('control_change', channel=6, control=64, value=0, time=125),
    Message('note_on', channel=6, note=59, velocity=92, time=67),
    Message('note_on', channel=6, note=67, velocity=97, time=0),
    Message('note_on', channel=6, note=62, velocity=102, time=0),
    Message('note_on', channel=6, note=50, velocity=108, time=0),
    Message('note_on', channel=6, note=43, velocity=102, time=0),
    Message('control_change', channel=6, control=64, value=127, time=68),
    Message('note_on', channel=6, note=67, velocity=0, time=96),
    Message('note_on', channel=6, note=59, velocity=0, time=1),
    Message('note_on', channel=6, note=62, velocity=0, time=5),
    Message('note_on', channel=6, note=62, velocity=95, time=70),
    Message('note_on', channel=6, note=67, velocity=87, time=0),
    Message('note_on', channel=6, note=59, velocity=85, time=0),
    Message('note_on', channel=6, note=50, velocity=0, time=7),
    Message('note_on', channel=6, note=43, velocity=0, time=5),
    Message('note_on', channel=6, note=62, velocity=0, time=61),
    Message('note_on', channel=6, note=67, velocity=0, time=10),
    Message('note_on', channel=6, note=59, velocity=0, time=1),
    Message('note_on', channel=6, note=43, velocity=85, time=36),
    Message('note_on', channel=6, note=50, velocity=95, time=0),
    Message('note_on', channel=6, note=43, velocity=0, time=32),
    Message('note_on', channel=6, note=50, velocity=0, time=16),
    Message('note_on', channel=6, note=59, velocity=69, time=72),
    Message('note_on', channel=6, note=62, velocity=91, time=0),
    Message('note_on', channel=6, note=67, velocity=87, time=0),
    Message('note_on', channel=6, note=62, velocity=0, time=35),
    Message('note_on', channel=6, note=59, velocity=0, time=5),
    Message('note_on', channel=6, note=67, velocity=0, time=2),
    Message('note_on', channel=6, note=67, velocity=85, time=78),
    Message('note_on', channel=6, note=59, velocity=89, time=0),
    Message('note_on', channel=6, note=62, velocity=101, time=0),
    Message('note_on', channel=6, note=62, velocity=0, time=53),
    Message('note_on', channel=6, note=59, velocity=0, time=0),
    Message('note_on', channel=6, note=67, velocity=0, time=9),
    Message('note_on', channel=6, note=43, velocity=97, time=58),
    Message('note_on', channel=6, note=50, velocity=98, time=0),
    Message('note_on', channel=6, note=43, velocity=0, time=38),
    Message('note_on', channel=6, note=50, velocity=0, time=2),
    Message('note_on', channel=6, note=59, velocity=80, time=80),
    Message('note_on', channel=6, note=67, velocity=81, time=0),
    Message('note_on', channel=6, note=62, velocity=98, time=0),
    Message('note_on', channel=6, note=59, velocity=0, time=42),
    Message('note_on', channel=6, note=62, velocity=0, time=1),
    Message('note_on', channel=6, note=67, velocity=0, time=6),
    Message('note_on', channel=6, note=59, velocity=85, time=71),
    Message('note_on', channel=6, note=62, velocity=97, time=0),
    Message('note_on', channel=6, note=50, velocity=85, time=0),
    Message('note_on', channel=6, note=67, velocity=84, time=0),
    Message('note_on', channel=6, note=43, velocity=85, time=0),
    Message('note_on', channel=6, note=62, velocity=0, time=40),
    Message('note_on', channel=6, note=59, velocity=0, time=2),
    Message('note_on', channel=6, note=43, velocity=0, time=0),
    Message('note_on', channel=6, note=50, velocity=0, time=0),
    Message('note_on', channel=6, note=67, velocity=0, time=11),
    Message('note_on', channel=6, note=59, velocity=66, time=67),
    Message('note_on', channel=6, note=62, velocity=84, time=0),
    Message('note_on', channel=6, note=67, velocity=71, time=0),
    Message('note_on', channel=6, note=62, velocity=0, time=30),
    Message('note_on', channel=6, note=59, velocity=0, time=5),
    Message('note_on', channel=6, note=67, velocity=0, time=3),
    Message('note_on', channel=6, note=50, velocity=81, time=22),
    Message('note_on', channel=6, note=43, velocity=84, time=0),
    Message('note_on', channel=6, note=50, velocity=0, time=32),
    Message('note_on', channel=6, note=43, velocity=0, time=1),
    Message('note_on', channel=6, note=59, velocity=85, time=27),
    Message('note_on', channel=6, note=67, velocity=91, time=0),
    Message('note_on', channel=6, note=62, velocity=98, time=0),
    Message('note_on', channel=6, note=62, velocity=0, time=43),
    Message('note_on', channel=6, note=59, velocity=0, time=2),
    Message('note_on', channel=6, note=67, velocity=0, time=14),
    Message('note_on', channel=6, note=50, velocity=101, time=61),
    Message('note_on', channel=6, note=43, velocity=95, time=0),
    Message('note_on', channel=6, note=50, velocity=0, time=39),
    Message('note_on', channel=6, note=43, velocity=0, time=3),
    Message('note_on', channel=6, note=59, velocity=78, time=78),
    Message('note_on', channel=6, note=67, velocity=87, time=0),
    Message('note_on', channel=6, note=62, velocity=92, time=0),
    Message('note_on', channel=6, note=62, velocity=0, time=52),
    Message('note_on', channel=6, note=59, velocity=0, time=0),
    Message('note_on', channel=6, note=67, velocity=0, time=6),
    Message('note_on', channel=6, note=43, velocity=85, time=62),
    Message('note_on', channel=6, note=50, velocity=95, time=0),
    Message('note_on', channel=6, note=43, velocity=0, time=28),
    Message('note_on', channel=6, note=50, velocity=0, time=11),
    Message('note_on', channel=6, note=59, velocity=85, time=81),
    Message('note_on', channel=6, note=62, velocity=97, time=0),
    Message('note_on', channel=6, note=67, velocity=85, time=0),
    Message('note_on', channel=6, note=62, velocity=0, time=45),
    Message('note_on', channel=6, note=59, velocity=0, time=0),
    Message('note_on', channel=6, note=67, velocity=0, time=14),
    Message('note_on', channel=6, note=50, velocity=87, time=61),
    Message('note_on', channel=6, note=43, velocity=84, time=0),
    Message('note_on', channel=6, note=43, velocity=0, time=31),
    Message('note_on', channel=6, note=50, velocity=0, time=1),
    Message('control_change', channel=6, control=64, value=0, time=73),
    Message('note_on', channel=6, note=50, velocity=95, time=15),
    Message('note_on', channel=6, note=43, velocity=92, time=0),
    Message('note_on', channel=6, note=59, velocity=84, time=0),
    Message('note_on', channel=6, note=62, velocity=98, time=0),
    Message('note_on', channel=6, note=67, velocity=87, time=0),
    Message('control_change', channel=6, control=64, value=127, time=74),
    Message('note_on', channel=6, note=43, velocity=0, time=68),
    Message('note_on', channel=6, note=50, velocity=0, time=1),
    Message('note_on', channel=6, note=59, velocity=0, time=6),
    Message('note_on', channel=6, note=67, velocity=0, time=5),
    Message('note_on', channel=6, note=62, velocity=0, time=8),
    Message('note_on', channel=6, note=59, velocity=87, time=78),
    Message('note_on', channel=6, note=62, velocity=105, time=0),
    Message('note_on', channel=6, note=67, velocity=101, time=0),
    Message('note_on', channel=6, note=59, velocity=0, time=48),
    Message('note_on', channel=6, note=62, velocity=0, time=5),
    Message('note_on', channel=6, note=67, velocity=0, time=9),
    Message('note_on', channel=6, note=59, velocity=74, time=58),
    Message('note_on', channel=6, note=62, velocity=95, time=0),
    Message('note_on', channel=6, note=67, velocity=92, time=0),
    Message('note_on', channel=6, note=59, velocity=0, time=33),
    Message('note_on', channel=6, note=62, velocity=0, time=7),
    Message('note_on', channel=6, note=67, velocity=0, time=14),
    Message('control_change', channel=6, control=64, value=0, time=47),
    Message('note_on', channel=6, note=62, velocity=80, time=19),
    Message('note_on', channel=6, note=69, velocity=89, time=0),
    Message('note_on', channel=6, note=66, velocity=87, time=0),
    Message('note_on', channel=6, note=57, velocity=89, time=0),
    Message('note_on', channel=6, note=50, velocity=98, time=0),
    Message('control_change', channel=6, control=64, value=127, time=71),
    Message('note_on', channel=6, note=57, velocity=0, time=31),
    Message('note_on', channel=6, note=57, velocity=97, time=18),
    Message('note_on', channel=6, note=62, velocity=0, time=26),
    Message('note_on', channel=6, note=69, velocity=0, time=5),
    Message('note_on', channel=6, note=66, velocity=0, time=4),
    Message('note_on', channel=6, note=57, velocity=0, time=14),
    Message('note_on', channel=6, note=50, velocity=0, time=42),
    Message('note_on', channel=6, note=62, velocity=87, time=29),
    Message('note_on', channel=6, note=69, velocity=97, time=0),
    Message('note_on', channel=6, note=66, velocity=92, time=0),
    Message('note_on', channel=6, note=66, velocity=0, time=39),
    Message('note_on', channel=6, note=62, velocity=0, time=3),
    Message('note_on', channel=6, note=69, velocity=0, time=10),
    Message('note_on', channel=6, note=60, velocity=97, time=68),
    Message('note_on', channel=6, note=64, velocity=101, time=0),
    Message('note_on', channel=6, note=67, velocity=98, time=0),
    Message('control_change', channel=6, control=64, value=0, time=19),
    Message('control_change', channel=6, control=64, value=127, time=91),
    Message('note_on', channel=6, note=55, velocity=92, time=10),
    Message('note_on', channel=6, note=48, velocity=97, time=0),
    Message('note_on', channel=6, note=60, velocity=0, time=48),
    Message('note_on', channel=6, note=64, velocity=0, time=6),
    Message('note_on', channel=6, note=67, velocity=0, time=2),
    Message('note_on', channel=6, note=55, velocity=0, time=24),
    Message('note_on', channel=6, note=48, velocity=0, time=8),
    Message('note_on', channel=6, note=67, velocity=85, time=32),
    Message('note_on', channel=6, note=64, velocity=92, time=0),
    Message('note_on', channel=6, note=60, velocity=80, time=0),
    Message('note_on', channel=6, note=64, velocity=0, time=57),
    Message('note_on', channel=6, note=60, velocity=0, time=1),
    Message('note_on', channel=6, note=67, velocity=0, time=8),
    Message('note_on', channel=6, note=48, velocity=101, time=54),
    Message('note_on', channel=6, note=55, velocity=101, time=0),
    Message('note_on', channel=6, note=55, velocity=0, time=47),
    Message('note_on', channel=6, note=48, velocity=0, time=4),
    Message('note_on', channel=6, note=60, velocity=73, time=69),
    Message('note_on', channel=6, note=67, velocity=74, time=0),
    Message('note_on', channel=6, note=64, velocity=81, time=0),
    Message('note_on', channel=6, note=64, velocity=0, time=40),
    Message('note_on', channel=6, note=67, velocity=0, time=0),
    Message('note_on', channel=6, note=60, velocity=0, time=1),
    Message('note_on', channel=6, note=64, velocity=98, time=79),
    Message('note_on', channel=6, note=60, velocity=85, time=0),
    Message('note_on', channel=6, note=67, velocity=84, time=0),
    Message('note_on', channel=6, note=48, velocity=97, time=120),
    Message('note_on', channel=6, note=55, velocity=97, time=0),
    Message('note_on', channel=6, note=60, velocity=0, time=4),
    Message('note_on', channel=6, note=64, velocity=0, time=0),
    Message('note_on', channel=6, note=67, velocity=0, time=5),
    Message('note_on', channel=6, note=55, velocity=0, time=40),
    Message('note_on', channel=6, note=48, velocity=0, time=13),
    Message('note_on', channel=6, note=64, velocity=92, time=58),
    Message('note_on', channel=6, note=60, velocity=84, time=0),
    Message('note_on', channel=6, note=67, velocity=85, time=0),
    Message('note_on', channel=6, note=64, velocity=0, time=98),
    Message('note_on', channel=6, note=60, velocity=0, time=5),
    Message('note_on', channel=6, note=67, velocity=0, time=8),
    Message('note_on', channel=6, note=43, velocity=97, time=9),
    Message('note_on', channel=6, note=50, velocity=97, time=0),
    Message('note_on', channel=6, note=43, velocity=0, time=45),
    Message('note_on', channel=6, note=50, velocity=0, time=3),
    Message('control_change', channel=6, control=64, value=0, time=53),
    Message('note_on', channel=6, note=50, velocity=97, time=19),
    Message('note_on', channel=6, note=43, velocity=95, time=0),
    Message('note_on', channel=6, note=62, velocity=92, time=0),
    Message('note_on', channel=6, note=59, velocity=81, time=0),
    Message('note_on', channel=6, note=67, velocity=85, time=0),
    Message('control_change', channel=6, control=64, value=127, time=86),
    Message('note_on', channel=6, note=59, velocity=0, time=77),
    Message('note_on', channel=6, note=62, velocity=0, time=9),
    Message('note_on', channel=6, note=67, velocity=0, time=3),
    Message('note_on', channel=6, note=43, velocity=0, time=55),
    Message('note_on', channel=6, note=50, velocity=0, time=0),
    Message('note_on', channel=6, note=62, velocity=98, time=10),
    Message('note_on', channel=6, note=59, velocity=81, time=0),
    Message('note_on', channel=6, note=67, velocity=97, time=0),
    Message('note_on', channel=6, note=62, velocity=0, time=49),
    Message('note_on', channel=6, note=59, velocity=0, time=2),
    Message('note_on', channel=6, note=67, velocity=0, time=10),
    Message('note_on', channel=6, note=59, velocity=73, time=59),
    Message('note_on', channel=6, note=67, velocity=80, time=0),
    Message('note_on', channel=6, note=62, velocity=87, time=0),
    Message('note_on', channel=6, note=62, velocity=0, time=34),
    Message('note_on', channel=6, note=59, velocity=0, time=1),
    Message('note_on', channel=6, note=67, velocity=0, time=4),
    Message('note_on', channel=6, note=50, velocity=91, time=21),
    Message('note_on', channel=6, note=43, velocity=87, time=0),
    Message('note_on', channel=6, note=50, velocity=0, time=32),
    Message('note_on', channel=6, note=43, velocity=0, time=2),
    Message('note_on', channel=6, note=62, velocity=97, time=26),
    Message('note_on', channel=6, note=59, velocity=81, time=0),
    Message('note_on', channel=6, note=67, velocity=87, time=0),
    Message('note_on', channel=6, note=62, velocity=0, time=67),
    Message('note_on', channel=6, note=59, velocity=0, time=5),
    Message('note_on', channel=6, note=67, velocity=0, time=6),
    Message('note_on', channel=6, note=50, velocity=101, time=42),
    Message('note_on', channel=6, note=43, velocity=98, time=0),
    Message('note_on', channel=6, note=50, velocity=0, time=48),
    Message('note_on', channel=6, note=43, velocity=0, time=5),
    Message('note_on', channel=6, note=59, velocity=87, time=67),
    Message('note_on', channel=6, note=62, velocity=98, time=0),
    Message('note_on', channel=6, note=67, velocity=91, time=0),
    Message('note_on', channel=6, note=59, velocity=0, time=44),
    Message('note_on', channel=6, note=62, velocity=0, time=1),
    Message('note_on', channel=6, note=67, velocity=0, time=12),
    Message('note_on', channel=6, note=50, velocity=102, time=63),
    Message('note_on', channel=6, note=57, velocity=98, time=0),
    Message('control_change', channel=6, control=64, value=0, time=55),
    Message('control_change', channel=6, control=64, value=127, time=87),
    Message('note_on', channel=6, note=62, velocity=97, time=98),
    Message('note_on', channel=6, note=69, velocity=98, time=0),
    Message('note_on', channel=6, note=66, velocity=98, time=0),
    Message('note_on', channel=6, note=57, velocity=0, time=18),
    Message('note_on', channel=6, note=50, velocity=0, time=7),
    Message('note_on', channel=6, note=69, velocity=0, time=81),
    Message('note_on', channel=6, note=62, velocity=0, time=2),
    Message('note_on', channel=6, note=66, velocity=0, time=2),
    Message('note_on', channel=6, note=50, velocity=95, time=10),
    Message('note_on', channel=6, note=57, velocity=84, time=0),
    Message('note_on', channel=6, note=50, velocity=0, time=49),
    Message('note_on', channel=6, note=57, velocity=0, time=1),
    Message('note_on', channel=6, note=62, velocity=84, time=70),
    Message('note_on', channel=6, note=69, velocity=87, time=0),
    Message('note_on', channel=6, note=66, velocity=84, time=0),
    Message('note_on', channel=6, note=62, velocity=0, time=45),
    Message('note_on', channel=6, note=69, velocity=0, time=3),
    Message('note_on', channel=6, note=66, velocity=0, time=1),
    Message('note_on', channel=6, note=62, velocity=85, time=71),
    Message('note_on', channel=6, note=66, velocity=89, time=0),
    Message('note_on', channel=6, note=69, velocity=95, time=0),
    Message('note_on', channel=6, note=69, velocity=0, time=96),
    Message('note_on', channel=6, note=62, velocity=0, time=18),
    Message('note_on', channel=6, note=66, velocity=0, time=3),
    Message('note_on', channel=6, note=50, velocity=97, time=3),
    Message('note_on', channel=6, note=57, velocity=89, time=0),
    Message('note_on', channel=6, note=57, velocity=0, time=51),
    Message('note_on', channel=6, note=50, velocity=0, time=13),
    Message('note_on', channel=6, note=62, velocity=85, time=56),
    Message('note_on', channel=6, note=66, velocity=92, time=0),
    Message('note_on', channel=6, note=62, velocity=0, time=87),
    Message('note_on', channel=6, note=66, velocity=0, time=8),
    Message('note_on', channel=6, note=55, velocity=98, time=25),
    Message('note_on', channel=6, note=55, velocity=0, time=46),
    Message('control_change', channel=6, control=64, value=0, time=55),
    Message('note_on', channel=6, note=55, velocity=101, time=19),
    Message('note_on', channel=6, note=48, velocity=101, time=0),
    Message('note_on', channel=6, note=64, velocity=95, time=0),
    Message('note_on', channel=6, note=67, velocity=84, time=0),
    Message('note_on', channel=6, note=60, velocity=85, time=0),
    Message('control_change', channel=6, control=64, value=127, time=75),
    Message('note_on', channel=6, note=60, velocity=0, time=32),
    Message('note_on', channel=6, note=64, velocity=0, time=1),
    Message('note_on', channel=6, note=67, velocity=0, time=8),
    Message('note_on', channel=6, note=55, velocity=0, time=118),
    Message('note_on', channel=6, note=48, velocity=0, time=2),
    Message('note_on', channel=6, note=67, velocity=89, time=4),
    Message('note_on', channel=6, note=64, velocity=92, time=0),
    Message('note_on', channel=6, note=60, velocity=85, time=0),
    Message('note_on', channel=6, note=64, velocity=0, time=111),
    Message('note_on', channel=6, note=67, velocity=0, time=0),
    Message('note_on', channel=6, note=60, velocity=0, time=4),
    Message('note_on', channel=6, note=48, velocity=80, time=5),
    Message('note_on', channel=6, note=55, velocity=87, time=0),
    Message('note_on', channel=6, note=48, velocity=0, time=37),
    Message('note_on', channel=6, note=55, velocity=0, time=14),
    Message('note_on', channel=6, note=64, velocity=87, time=69),
    Message('note_on', channel=6, note=60, velocity=84, time=0),
    Message('note_on', channel=6, note=67, velocity=85, time=0),
    Message('note_on', channel=6, note=64, velocity=0, time=43),
    Message('note_on', channel=6, note=60, velocity=0, time=4),
    Message('note_on', channel=6, note=67, velocity=0, time=5),
    Message('note_on', channel=6, note=64, velocity=101, time=68),
    Message('note_on', channel=6, note=67, velocity=95, time=0),
    Message('note_on', channel=6, note=60, velocity=95, time=0),
    Message('note_on', channel=6, note=64, velocity=0, time=76),
    Message('note_on', channel=6, note=67, velocity=0, time=1),
    Message('note_on', channel=6, note=60, velocity=0, time=3),
    Message('note_on', channel=6, note=64, velocity=92, time=160),
    Message('note_on', channel=6, note=60, velocity=91, time=0),
    Message('note_on', channel=6, note=67, velocity=89, time=0),
    Message('note_on', channel=6, note=64, velocity=0, time=39),
    Message('note_on', channel=6, note=60, velocity=0, time=7),
    Message('note_on', channel=6, note=67, velocity=0, time=15),
    Message('control_change', channel=6, control=64, value=0, time=23),
    Message('note_on', channel=6, note=59, velocity=84, time=36),
    Message('note_on', channel=6, note=62, velocity=98, time=0),
    Message('note_on', channel=6, note=67, velocity=89, time=0),
    Message('note_on', channel=6, note=50, velocity=85, time=0),
    Message('note_on', channel=6, note=43, velocity=89, time=0),
    Message('control_change', channel=6, control=64, value=127, time=70),
    Message('note_on', channel=6, note=67, velocity=0, time=89),
    Message('note_on', channel=6, note=59, velocity=0, time=3),
    Message('note_on', channel=6, note=62, velocity=0, time=4),
    Message('note_on', channel=6, note=50, velocity=0, time=68),
    Message('note_on', channel=6, note=43, velocity=0, time=2),
    Message('note_on', channel=6, note=62, velocity=95, time=4),
    Message('note_on', channel=6, note=67, velocity=85, time=0),
    Message('note_on', channel=6, note=59, velocity=87, time=0),
    Message('note_on', channel=6, note=62, velocity=0, time=40),
    Message('note_on', channel=6, note=59, velocity=0, time=7),
    Message('note_on', channel=6, note=67, velocity=0, time=4),
    Message('note_on', channel=6, note=67, velocity=74, time=69),
    Message('note_on', channel=6, note=62, velocity=81, time=0),
    Message('note_on', channel=6, note=59, velocity=68, time=0),
    Message('note_on', channel=6, note=67, velocity=0, time=34),
    Message('note_on', channel=6, note=62, velocity=0, time=4),
    Message('note_on', channel=6, note=59, velocity=0, time=5),
    Message('note_on', channel=6, note=43, velocity=89, time=17),
    Message('note_on', channel=6, note=50, velocity=92, time=0),
    Message('note_on', channel=6, note=43, velocity=0, time=36),
    Message('note_on', channel=6, note=50, velocity=0, time=1),
    Message('note_on', channel=6, note=62, velocity=92, time=23),
    Message('note_on', channel=6, note=59, velocity=81, time=0),
    Message('note_on', channel=6, note=67, velocity=84, time=0),
    Message('note_on', channel=6, note=62, velocity=0, time=78),
    Message('note_on', channel=6, note=59, velocity=0, time=4),
    Message('note_on', channel=6, note=67, velocity=0, time=7),
    Message('note_on', channel=6, note=43, velocity=87, time=31),
    Message('note_on', channel=6, note=50, velocity=97, time=0),
    Message('note_on', channel=6, note=50, velocity=0, time=52),
    Message('note_on', channel=6, note=43, velocity=0, time=1),
    Message('note_on', channel=6, note=59, velocity=89, time=67),
    Message('note_on', channel=6, note=62, velocity=98, time=0),
    Message('note_on', channel=6, note=67, velocity=92, time=0),
    Message('note_on', channel=6, note=62, velocity=0, time=53),
    Message('note_on', channel=6, note=59, velocity=0, time=1),
    Message('note_on', channel=6, note=67, velocity=0, time=2),
    Message('note_on', channel=6, note=43, velocity=85, time=64),
    Message('note_on', channel=6, note=50, velocity=97, time=0),
    Message('note_on', channel=6, note=50, velocity=0, time=42),
    Message('note_on', channel=6, note=43, velocity=0, time=8),
    Message('control_change', channel=6, control=64, value=0, time=51),
    Message('note_on', channel=6, note=64, velocity=95, time=19),
    Message('note_on', channel=6, note=52, velocity=91, time=0),
    Message('note_on', channel=6, note=59, velocity=92, time=0),
    Message('note_on', channel=6, note=55, velocity=89, time=0),
    Message('control_change', channel=6, control=64, value=127, time=24),
    Message('note_on', channel=6, note=64, velocity=0, time=37),
    Message('note_on', channel=6, note=52, velocity=0, time=4),
    Message('note_on', channel=6, note=55, velocity=0, time=0),
    Message('note_on', channel=6, note=59, velocity=0, time=2),
    Message('note_on', channel=6, note=52, velocity=80, time=173),
    Message('note_on', channel=6, note=59, velocity=80, time=0),
    Message('note_on', channel=6, note=55, velocity=87, time=0),
    Message('note_on', channel=6, note=59, velocity=0, time=49),
    Message('note_on', channel=6, note=52, velocity=0, time=0),
    Message('note_on', channel=6, note=55, velocity=0, time=1),
    Message('note_on', channel=6, note=64, velocity=85, time=70),
    Message('note_on', channel=6, note=64, velocity=0, time=58),
    Message('note_on', channel=6, note=59, velocity=95, time=62),
    Message('note_on', channel=6, note=55, velocity=95, time=0),
    Message('note_on', channel=6, note=52, velocity=95, time=0),
    Message('note_on', channel=6, note=59, velocity=0, time=53),
    Message('note_on', channel=6, note=55, velocity=0, time=1),
    Message('note_on', channel=6, note=52, velocity=0, time=2),
    Message('note_on', channel=6, note=64, velocity=95, time=64),
    Message('note_on', channel=6, note=64, velocity=0, time=61),
    Message('note_on', channel=6, note=55, velocity=85, time=59),
    Message('note_on', channel=6, note=59, velocity=89, time=0),
    Message('note_on', channel=6, note=52, velocity=92, time=0),
    Message('note_on', channel=6, note=55, velocity=0, time=54),
    Message('note_on', channel=6, note=59, velocity=0, time=1),
    Message('note_on', channel=6, note=52, velocity=0, time=6),
    Message('note_on', channel=6, note=55, velocity=84, time=59),
    Message('note_on', channel=6, note=52, velocity=81, time=0),
    Message('note_on', channel=6, note=59, velocity=85, time=0),
    Message('note_on', channel=6, note=55, velocity=0, time=44),
    Message('note_on', channel=6, note=52, velocity=0, time=1),
    Message('note_on', channel=6, note=59, velocity=0, time=4),
    Message('control_change', channel=6, control=64, value=0, time=23),
    Message('note_on', channel=6, note=66, velocity=81, time=48),
    Message('note_on', channel=6, note=62, velocity=81, time=0),
    Message('control_change', channel=6, control=64, value=127, time=46),
    Message('note_on', channel=6, note=62, velocity=0, time=26),
    Message('note_on', channel=6, note=66, velocity=0, time=2),
    Message('note_on', channel=6, note=66, velocity=48, time=46),
    Message('note_on', channel=6, note=66, velocity=0, time=18),
    Message('note_on', channel=6, note=62, velocity=71, time=102),
    Message('note_on', channel=6, note=66, velocity=80, time=0),
    Message('note_on', channel=6, note=62, velocity=0, time=40),
    Message('note_on', channel=6, note=66, velocity=0, time=6),
    Message('note_on', channel=6, note=66, velocity=92, time=74),
    Message('note_on', channel=6, note=62, velocity=95, time=0),
    Message('note_on', channel=6, note=62, velocity=0, time=47),
    Message('note_on', channel=6, note=66, velocity=0, time=9),
    Message('note_on', channel=6, note=50, velocity=95, time=64),
    Message('note_on', channel=6, note=57, velocity=87, time=0),
    Message('note_on', channel=6, note=57, velocity=0, time=54),
    Message('note_on', channel=6, note=50, velocity=0, time=16),
    Message('note_on', channel=6, note=66, velocity=81, time=50),
    Message('note_on', channel=6, note=62, velocity=87, time=0),
    Message('note_on', channel=6, note=66, velocity=0, time=68),
    Message('note_on', channel=6, note=62, velocity=0, time=2),
    Message('note_on', channel=6, note=50, velocity=101, time=50),
    Message('note_on', channel=6, note=57, velocity=92, time=0),
    Message('note_on', channel=6, note=57, velocity=0, time=61),
    Message('note_on', channel=6, note=50, velocity=0, time=10),
    Message('note_on', channel=6, note=62, velocity=71, time=49),
    Message('note_on', channel=6, note=66, velocity=68, time=0),
    Message('note_on', channel=6, note=66, velocity=0, time=36),
    Message('control_change', channel=6, control=64, value=0, time=1),
    Message('note_on', channel=6, note=62, velocity=0, time=9),
    Message('note_on', channel=6, note=60, velocity=91, time=74),
    Message('note_on', channel=6, note=64, velocity=95, time=0),
    Message('note_on', channel=6, note=55, velocity=98, time=0),
    Message('note_on', channel=6, note=48, velocity=101, time=0),
    Message('control_change', channel=6, control=64, value=127, time=87),
    Message('note_on', channel=6, note=60, velocity=0, time=21),
    Message('note_on', channel=6, note=64, velocity=0, time=14),
    Message('note_on', channel=6, note=55, velocity=0, time=86),
    Message('note_on', channel=6, note=48, velocity=0, time=2),
    Message('note_on', channel=6, note=60, velocity=78, time=30),
    Message('note_on', channel=6, note=64, velocity=92, time=0),
    Message('note_on', channel=6, note=60, velocity=0, time=95),
    Message('note_on', channel=6, note=64, velocity=0, time=1),
    Message('note_on', channel=6, note=48, velocity=80, time=24),
    Message('note_on', channel=6, note=55, velocity=87, time=0),
    Message('note_on', channel=6, note=48, velocity=0, time=40),
    Message('note_on', channel=6, note=55, velocity=0, time=9),
    Message('note_on', channel=6, note=60, velocity=69, time=71),
    Message('note_on', channel=6, note=64, velocity=84, time=0),
    Message('note_on', channel=6, note=60, velocity=0, time=47),
    Message('note_on', channel=6, note=64, velocity=0, time=2),
    Message('note_on', channel=6, note=60, velocity=89, time=71),
    Message('note_on', channel=6, note=64, velocity=95, time=0),
    Message('note_on', channel=6, note=60, velocity=0, time=53),
    Message('note_on', channel=6, note=64, velocity=0, time=6),
    Message('note_on', channel=6, note=60, velocity=89, time=61),
    Message('note_on', channel=6, note=64, velocity=97, time=0),
    Message('note_on', channel=6, note=64, velocity=0, time=44),
    Message('note_on', channel=6, note=60, velocity=0, time=6),
    Message('note_on', channel=6, note=43, velocity=101, time=70),
    Message('note_on', channel=6, note=50, velocity=105, time=0),
    Message('control_change', channel=6, control=64, value=0, time=36),
    Message('note_on', channel=6, note=55, velocity=80, time=84),
    Message('note_on', channel=6, note=62, velocity=91, time=0),
    Message('note_on', channel=6, note=59, velocity=95, time=0),
    Message('note_on', channel=6, note=50, velocity=0, time=7),
    Message('note_on', channel=6, note=43, velocity=0, time=4),
    Message('control_change', channel=6, control=64, value=127, time=6),
    Message('note_on', channel=6, note=55, velocity=0, time=105),
    Message('note_on', channel=6, note=59, velocity=0, time=3),
    Message('note_on', channel=6, note=62, velocity=0, time=5),
    Message('note_on', channel=6, note=55, velocity=43, time=50),
    Message('note_on', channel=6, note=55, velocity=0, time=19),
    Message('note_on', channel=6, note=43, velocity=98, time=41),
    Message('note_on', channel=6, note=43, velocity=0, time=95),
    Message('note_on', channel=6, note=55, velocity=95, time=25),
    Message('note_on', channel=6, note=62, velocity=98, time=0),
    Message('note_on', channel=6, note=59, velocity=101, time=0),
    Message('note_on', channel=6, note=55, velocity=0, time=57),
    Message('note_on', channel=6, note=59, velocity=0, time=1),
    Message('note_on', channel=6, note=62, velocity=0, time=8),
    Message('note_on', channel=6, note=43, velocity=87, time=54),
    Message('note_on', channel=6, note=43, velocity=0, time=72),
    Message('note_on', channel=6, note=62, velocity=89, time=48),
    Message('note_on', channel=6, note=59, velocity=92, time=0),
    Message('note_on', channel=6, note=55, velocity=89, time=0),
    Message('note_on', channel=6, note=59, velocity=0, time=41),
    Message('note_on', channel=6, note=62, velocity=0, time=1),
    Message('note_on', channel=6, note=55, velocity=0, time=3),
    Message('note_on', channel=6, note=55, velocity=84, time=75),
    Message('note_on', channel=6, note=59, velocity=98, time=0),
    Message('note_on', channel=6, note=62, velocity=98, time=0),
    Message('note_on', channel=6, note=55, velocity=0, time=63),
    Message('note_on', channel=6, note=59, velocity=0, time=33),
    Message('note_on', channel=6, note=62, velocity=0, time=10),
    Message('note_on', channel=6, note=52, velocity=95, time=14),
    Message('note_on', channel=6, note=52, velocity=0, time=45),
    Message('control_change', channel=6, control=64, value=0, time=35),
    Message('note_on', channel=6, note=60, velocity=98, time=40),
    Message('note_on', channel=6, note=57, velocity=89, time=0),
    Message('note_on', channel=6, note=45, velocity=101, time=0),
    Message('note_on', channel=6, note=64, velocity=97, time=0),
    Message('control_change', channel=6, control=64, value=127, time=54),
    Message('note_on', channel=6, note=57, velocity=0, time=45),
    Message('note_on', channel=6, note=60, velocity=0, time=0),
    Message('note_on', channel=6, note=64, velocity=0, time=5),
    Message('note_on', channel=6, note=52, velocity=89, time=76),
    Message('note_on', channel=6, note=60, velocity=81, time=0),
    Message('note_on', channel=6, note=64, velocity=78, time=0),
    Message('note_on', channel=6, note=57, velocity=69, time=0),
    Message('note_on', channel=6, note=45, velocity=0, time=2),
    Message('note_on', channel=6, note=60, velocity=0, time=24),
    Message('note_on', channel=6, note=64, velocity=0, time=4),
    Message('note_on', channel=6, note=57, velocity=0, time=5),
    Message('note_on', channel=6, note=52, velocity=0, time=8),
    Message('note_on', channel=6, note=60, velocity=95, time=137),
    Message('note_on', channel=6, note=57, velocity=89, time=0),
    Message('note_on', channel=6, note=64, velocity=84, time=0),
    Message('note_on', channel=6, note=60, velocity=0, time=68),
    Message('note_on', channel=6, note=57, velocity=0, time=2),
    Message('note_on', channel=6, note=64, velocity=0, time=5),
    Message('note_on', channel=6, note=45, velocity=97, time=45),
    Message('note_on', channel=6, note=45, velocity=0, time=81),
    Message('note_on', channel=6, note=60, velocity=95, time=39),
    Message('note_on', channel=6, note=64, velocity=87, time=0),
    Message('note_on', channel=6, note=57, velocity=84, time=0),
    Message('note_on', channel=6, note=60, velocity=0, time=40),
    Message('note_on', channel=6, note=57, velocity=0, time=8),
    Message('note_on', channel=6, note=64, velocity=0, time=0),
    Message('note_on', channel=6, note=60, velocity=98, time=72),
    Message('note_on', channel=6, note=64, velocity=97, time=0),
    Message('note_on', channel=6, note=57, velocity=87, time=0),
    Message('note_on', channel=6, note=57, velocity=0, time=51),
    Message('note_on', channel=6, note=60, velocity=0, time=5),
    Message('note_on', channel=6, note=64, velocity=0, time=20),
    Message('note_on', channel=6, note=55, velocity=95, time=44),
    Message('note_on', channel=6, note=55, velocity=0, time=40),
    Message('control_change', channel=6, control=64, value=0, time=51),
    Message('note_on', channel=6, note=55, velocity=95, time=29),
    Message('note_on', channel=6, note=64, velocity=87, time=0),
    Message('note_on', channel=6, note=60, velocity=85, time=0),
    Message('note_on', channel=6, note=67, velocity=85, time=0),
    Message('note_on', channel=6, note=48, velocity=97, time=0),
    Message('note_on', channel=6, note=64, velocity=0, time=43),
    Message('note_on', channel=6, note=60, velocity=0, time=5),
    Message('control_change', channel=6, control=64, value=127, time=8),
    Message('note_on', channel=6, note=67, velocity=0, time=2),
    Message('note_on', channel=6, note=55, velocity=0, time=32),
    Message('note_on', channel=6, note=48, velocity=0, time=6),
    Message('note_on', channel=6, note=67, velocity=69, time=24),
    Message('note_on', channel=6, note=60, velocity=65, time=0),
    Message('note_on', channel=6, note=64, velocity=84, time=0),
    Message('note_on', channel=6, note=64, velocity=0, time=31),
    Message('note_on', channel=6, note=67, velocity=0, time=1),
    Message('note_on', channel=6, note=60, velocity=0, time=3),
    Message('note_on', channel=6, note=48, velocity=91, time=25),
    Message('note_on', channel=6, note=55, velocity=97, time=0),
    Message('note_on', channel=6, note=48, velocity=0, time=28),
    Message('note_on', channel=6, note=55, velocity=0, time=13),
    Message('note_on', channel=6, note=64, velocity=89, time=19),
    Message('note_on', channel=6, note=67, velocity=84, time=0),
    Message('note_on', channel=6, note=60, velocity=85, time=0),
    Message('note_on', channel=6, note=64, velocity=0, time=46),
    Message('note_on', channel=6, note=60, velocity=0, time=6),
    Message('note_on', channel=6, note=67, velocity=0, time=13),
    Message('note_on', channel=6, note=55, velocity=101, time=55),
    Message('note_on', channel=6, note=48, velocity=98, time=0),
    Message('note_on', channel=6, note=55, velocity=0, time=42),
    Message('note_on', channel=6, note=48, velocity=0, time=2),
    Message('note_on', channel=6, note=60, velocity=80, time=76),
    Message('note_on', channel=6, note=67, velocity=84, time=0),
    Message('note_on', channel=6, note=64, velocity=92, time=0),
    Message('note_on', channel=6, note=60, velocity=0, time=55),
    Message('note_on', channel=6, note=64, velocity=0, time=2),
    Message('note_on', channel=6, note=67, velocity=0, time=5),
    Message('note_on', channel=6, note=55, velocity=91, time=58),
    Message('note_on', channel=6, note=48, velocity=92, time=0),
    Message('note_on', channel=6, note=48, velocity=0, time=44),
    Message('note_on', channel=6, note=55, velocity=0, time=3),
    Message('note_on', channel=6, note=60, velocity=80, time=73),
    Message('note_on', channel=6, note=67, velocity=84, time=0),
    Message('note_on', channel=6, note=64, velocity=95, time=0),
    Message('note_on', channel=6, note=67, velocity=0, time=36),
    Message('note_on', channel=6, note=64, velocity=0, time=2),
    Message('note_on', channel=6, note=60, velocity=0, time=10),
    Message('control_change', channel=6, control=64, value=0, time=166),
    Message('note_on', channel=6, note=52, velocity=81, time=26),
    Message('note_on', channel=6, note=59, velocity=92, time=0),
    Message('note_on', channel=6, note=40, velocity=87, time=0),
    Message('note_on', channel=6, note=55, velocity=95, time=0),
    Message('control_change', channel=6, control=64, value=127, time=32),
    Message('note_on', channel=6, note=52, velocity=0, time=32),
    Message('note_on', channel=6, note=55, velocity=0, time=4),
    Message('note_on', channel=6, note=59, velocity=0, time=8),
    Message('note_on', channel=6, note=40, velocity=0, time=29),
    Message('note_on', channel=6, note=52, velocity=55, time=15),
    Message('note_on', channel=6, note=59, velocity=62, time=0),
    Message('note_on', channel=6, note=55, velocity=68, time=0),
    Message('note_on', channel=6, note=52, velocity=0, time=37),
    Message('note_on', channel=6, note=55, velocity=0, time=6),
    Message('note_on', channel=6, note=59, velocity=0, time=2),
    Message('note_on', channel=6, note=40, velocity=80, time=15),
    Message('note_on', channel=6, note=40, velocity=0, time=47),
    Message('note_on', channel=6, note=52, velocity=76, time=13),
    Message('note_on', channel=6, note=59, velocity=85, time=0),
    Message('note_on', channel=6, note=55, velocity=85, time=0),
    Message('note_on', channel=6, note=52, velocity=0, time=45),
    Message('note_on', channel=6, note=55, velocity=0, time=5),
    Message('note_on', channel=6, note=59, velocity=0, time=4),
    Message('note_on', channel=6, note=40, velocity=89, time=66),
    Message('note_on', channel=6, note=40, velocity=0, time=63),
    Message('note_on', channel=6, note=52, velocity=78, time=57),
    Message('note_on', channel=6, note=59, velocity=87, time=0),
    Message('note_on', channel=6, note=55, velocity=87, time=0),
    Message('note_on', channel=6, note=55, velocity=0, time=47),
    Message('note_on', channel=6, note=52, velocity=0, time=1),
    Message('note_on', channel=6, note=59, velocity=0, time=1),
    Message('note_on', channel=6, note=55, velocity=95, time=71),
    Message('note_on', channel=6, note=52, velocity=85, time=0),
    Message('note_on', channel=6, note=59, velocity=97, time=0),
    Message('note_on', channel=6, note=52, velocity=0, time=61),
    Message('note_on', channel=6, note=55, velocity=0, time=0),
    Message('note_on', channel=6, note=59, velocity=0, time=10),
    Message('note_on', channel=6, note=40, velocity=89, time=49),
    Message('note_on', channel=6, note=40, velocity=0, time=64),
    Message('note_on', channel=6, note=52, velocity=84, time=56),
    Message('note_on', channel=6, note=55, velocity=87, time=0),
    Message('note_on', channel=6, note=59, velocity=87, time=0),
    Message('note_on', channel=6, note=55, velocity=0, time=44),
    Message('note_on', channel=6, note=52, velocity=0, time=0),
    Message('note_on', channel=6, note=59, velocity=0, time=4),
    Message('note_on', channel=6, note=55, velocity=97, time=72),
    Message('note_on', channel=6, note=52, velocity=87, time=0),
    Message('note_on', channel=6, note=59, velocity=92, time=0),
    Message('note_on', channel=6, note=52, velocity=0, time=112),
    Message('note_on', channel=6, note=59, velocity=0, time=5),
    Message('note_on', channel=6, note=55, velocity=0, time=2),
    Message('note_on', channel=6, note=40, velocity=68, time=1),
    Message('note_on', channel=6, note=40, velocity=0, time=50),
    Message('note_on', channel=6, note=59, velocity=87, time=70),
    Message('note_on', channel=6, note=52, velocity=69, time=0),
    Message('note_on', channel=6, note=55, velocity=84, time=0),
    Message('note_on', channel=6, note=52, velocity=0, time=34),
    Message('note_on', channel=6, note=59, velocity=0, time=7),
    Message('note_on', channel=6, note=55, velocity=0, time=2),
    Message('note_on', channel=6, note=50, velocity=108, time=77),
    Message('control_change', channel=6, control=64, value=0, time=2),
    Message('control_change', channel=6, control=64, value=127, time=97),
    Message('note_on', channel=6, note=54, velocity=64, time=21),
    Message('note_on', channel=6, note=50, velocity=0, time=61),
    Message('note_on', channel=6, note=54, velocity=0, time=11),
    Message('note_on', channel=6, note=54, velocity=84, time=48),
    Message('note_on', channel=6, note=57, velocity=101, time=0),
    Message('note_on', channel=6, note=62, velocity=98, time=0),
    Message('note_on', channel=6, note=54, velocity=0, time=68),
    Message('note_on', channel=6, note=62, velocity=0, time=13),
    Message('note_on', channel=6, note=57, velocity=0, time=0),
    Message('note_on', channel=6, note=62, velocity=98, time=39),
    Message('note_on', channel=6, note=54, velocity=84, time=0),
    Message('note_on', channel=6, note=57, velocity=98, time=0),
    Message('note_on', channel=6, note=57, velocity=0, time=87),
    Message('note_on', channel=6, note=62, velocity=0, time=2),
    Message('note_on', channel=6, note=54, velocity=0, time=5),
    Message('note_on', channel=6, note=50, velocity=95, time=26),
    Message('note_on', channel=6, note=50, velocity=0, time=46),
    Message('control_change', channel=6, control=64, value=0, time=24),
    Message('note_on', channel=6, note=59, velocity=92, time=50),
    Message('note_on', channel=6, note=67, velocity=97, time=0),
    Message('note_on', channel=6, note=62, velocity=102, time=0),
    Message('note_on', channel=6, note=50, velocity=108, time=0),
    Message('note_on', channel=6, note=43, velocity=102, time=0),
    Message('control_change', channel=6, control=64, value=127, time=68),
    Message('note_on', channel=6, note=67, velocity=0, time=96),
    Message('note_on', channel=6, note=59, velocity=0, time=1),
    Message('note_on', channel=6, note=62, velocity=0, time=5),
    Message('note_on', channel=6, note=62, velocity=95, time=70),
    Message('note_on', channel=6, note=67, velocity=87, time=0),
    Message('note_on', channel=6, note=59, velocity=85, time=0),
    Message('note_on', channel=6, note=50, velocity=0, time=7),
    Message('note_on', channel=6, note=43, velocity=0, time=5),
    Message('note_on', channel=6, note=62, velocity=0, time=61),
    Message('note_on', channel=6, note=67, velocity=0, time=10),
    Message('note_on', channel=6, note=59, velocity=0, time=1),
    Message('note_on', channel=6, note=43, velocity=85, time=36),
    Message('note_on', channel=6, note=50, velocity=95, time=0),
    Message('note_on', channel=6, note=43, velocity=0, time=32),
    Message('note_on', channel=6, note=50, velocity=0, time=16),
    Message('note_on', channel=6, note=59, velocity=69, time=72),
    Message('note_on', channel=6, note=62, velocity=91, time=0),
    Message('note_on', channel=6, note=67, velocity=87, time=0),
    Message('note_on', channel=6, note=62, velocity=0, time=35),
    Message('note_on', channel=6, note=59, velocity=0, time=5),
    Message('note_on', channel=6, note=67, velocity=0, time=2),
    Message('note_on', channel=6, note=67, velocity=85, time=78),
    Message('note_on', channel=6, note=59, velocity=89, time=0),
    Message('note_on', channel=6, note=62, velocity=101, time=0),
    Message('note_on', channel=6, note=62, velocity=0, time=53),
    Message('note_on', channel=6, note=59, velocity=0, time=0),
    Message('note_on', channel=6, note=67, velocity=0, time=9),
    Message('note_on', channel=6, note=43, velocity=97, time=58),
    Message('note_on', channel=6, note=50, velocity=98, time=0),
    Message('note_on', channel=6, note=43, velocity=0, time=38),
    Message('note_on', channel=6, note=50, velocity=0, time=2),
    Message('note_on', channel=6, note=59, velocity=80, time=80),
    Message('note_on', channel=6, note=67, velocity=81, time=0),
    Message('note_on', channel=6, note=62, velocity=98, time=0),
    Message('note_on', channel=6, note=59, velocity=0, time=42),
    Message('note_on', channel=6, note=62, velocity=0, time=1),
    Message('note_on', channel=6, note=67, velocity=0, time=6),
    Message('note_on', channel=6, note=59, velocity=85, time=71),
    Message('note_on', channel=6, note=62, velocity=97, time=0),
    Message('note_on', channel=6, note=50, velocity=85, time=0),
    Message('note_on', channel=6, note=67, velocity=84, time=0),
    Message('note_on', channel=6, note=43, velocity=85, time=0),
    Message('note_on', channel=6, note=62, velocity=0, time=40),
    Message('note_on', channel=6, note=59, velocity=0, time=2),
    Message('note_on', channel=6, note=43, velocity=0, time=0),
    Message('note_on', channel=6, note=50, velocity=0, time=0),
    Message('note_on', channel=6, note=67, velocity=0, time=11),
    Message('note_on', channel=6, note=59, velocity=66, time=67),
    Message('note_on', channel=6, note=62, velocity=84, time=0),
    Message('note_on', channel=6, note=67, velocity=71, time=0),
    Message('note_on', channel=6, note=62, velocity=0, time=30),
    Message('note_on', channel=6, note=59, velocity=0, time=5),
    Message('note_on', channel=6, note=67, velocity=0, time=3),
    Message('note_on', channel=6, note=50, velocity=81, time=22),
    Message('note_on', channel=6, note=43, velocity=84, time=0),
    Message('note_on', channel=6, note=50, velocity=0, time=32),
    Message('note_on', channel=6, note=43, velocity=0, time=1),
    Message('note_on', channel=6, note=59, velocity=85, time=27),
    Message('note_on', channel=6, note=67, velocity=91, time=0),
    Message('note_on', channel=6, note=62, velocity=98, time=0),
    Message('note_on', channel=6, note=62, velocity=0, time=43),
    Message('note_on', channel=6, note=59, velocity=0, time=2),
    Message('note_on', channel=6, note=67, velocity=0, time=14),
    Message('note_on', channel=6, note=50, velocity=101, time=61),
    Message('note_on', channel=6, note=43, velocity=95, time=0),
    Message('note_on', channel=6, note=50, velocity=0, time=39),
    Message('note_on', channel=6, note=43, velocity=0, time=3),
    Message('note_on', channel=6, note=59, velocity=78, time=78),
    Message('note_on', channel=6, note=67, velocity=87, time=0),
    Message('note_on', channel=6, note=62, velocity=92, time=0),
    Message('note_on', channel=6, note=62, velocity=0, time=52),
    Message('note_on', channel=6, note=59, velocity=0, time=0),
    Message('note_on', channel=6, note=67, velocity=0, time=6),
    Message('note_on', channel=6, note=43, velocity=85, time=62),
    Message('note_on', channel=6, note=50, velocity=95, time=0),
    Message('note_on', channel=6, note=43, velocity=0, time=28),
    Message('note_on', channel=6, note=50, velocity=0, time=11),
    Message('note_on', channel=6, note=59, velocity=85, time=81),
    Message('note_on', channel=6, note=62, velocity=97, time=0),
    Message('note_on', channel=6, note=67, velocity=85, time=0),
    Message('note_on', channel=6, note=62, velocity=0, time=45),
    Message('note_on', channel=6, note=59, velocity=0, time=0),
    Message('note_on', channel=6, note=67, velocity=0, time=14),
    Message('note_on', channel=6, note=50, velocity=87, time=61),
    Message('note_on', channel=6, note=43, velocity=84, time=0),
    Message('note_on', channel=6, note=43, velocity=0, time=31),
    Message('note_on', channel=6, note=50, velocity=0, time=1),
    Message('control_change', channel=6, control=64, value=0, time=73),
    Message('note_on', channel=6, note=50, velocity=95, time=15),
    Message('note_on', channel=6, note=43, velocity=92, time=0),
    Message('note_on', channel=6, note=59, velocity=84, time=0),
    Message('note_on', channel=6, note=62, velocity=98, time=0),
    Message('note_on', channel=6, note=67, velocity=87, time=0),
    Message('control_change', channel=6, control=64, value=127, time=74),
    Message('note_on', channel=6, note=43, velocity=0, time=68),
    Message('note_on', channel=6, note=50, velocity=0, time=1),
    Message('note_on', channel=6, note=59, velocity=0, time=6),
    Message('note_on', channel=6, note=67, velocity=0, time=5),
    Message('note_on', channel=6, note=62, velocity=0, time=8),
    Message('note_on', channel=6, note=59, velocity=87, time=78),
    Message('note_on', channel=6, note=62, velocity=105, time=0),
    Message('note_on', channel=6, note=67, velocity=101, time=0),
    Message('note_on', channel=6, note=59, velocity=0, time=48),
    Message('note_on', channel=6, note=62, velocity=0, time=5),
    Message('note_on', channel=6, note=67, velocity=0, time=9),
    Message('note_on', channel=6, note=59, velocity=74, time=58),
    Message('note_on', channel=6, note=62, velocity=95, time=0),
    Message('note_on', channel=6, note=67, velocity=92, time=0),
    Message('note_on', channel=6, note=59, velocity=0, time=33),
    Message('note_on', channel=6, note=62, velocity=0, time=7),
    Message('note_on', channel=6, note=67, velocity=0, time=14),
    Message('control_change', channel=6, control=64, value=0, time=47),
    Message('note_on', channel=6, note=62, velocity=80, time=19),
    Message('note_on', channel=6, note=69, velocity=89, time=0),
    Message('note_on', channel=6, note=66, velocity=87, time=0),
    Message('note_on', channel=6, note=57, velocity=89, time=0),
    Message('note_on', channel=6, note=50, velocity=98, time=0),
    Message('control_change', channel=6, control=64, value=127, time=71),
    Message('note_on', channel=6, note=57, velocity=0, time=31),
    Message('note_on', channel=6, note=57, velocity=97, time=18),
    Message('note_on', channel=6, note=62, velocity=0, time=26),
    Message('note_on', channel=6, note=69, velocity=0, time=5),
    Message('note_on', channel=6, note=66, velocity=0, time=4),
    Message('note_on', channel=6, note=57, velocity=0, time=14),
    Message('note_on', channel=6, note=50, velocity=0, time=42),
    Message('note_on', channel=6, note=62, velocity=87, time=29),
    Message('note_on', channel=6, note=69, velocity=97, time=0),
    Message('note_on', channel=6, note=66, velocity=92, time=0),
    Message('note_on', channel=6, note=66, velocity=0, time=39),
    Message('note_on', channel=6, note=62, velocity=0, time=3),
    Message('note_on', channel=6, note=69, velocity=0, time=10),
    Message('note_on', channel=6, note=60, velocity=97, time=68),
    Message('note_on', channel=6, note=64, velocity=101, time=0),
    Message('note_on', channel=6, note=67, velocity=98, time=0),
    Message('control_change', channel=6, control=64, value=0, time=19),
    Message('control_change', channel=6, control=64, value=127, time=91),
    Message('note_on', channel=6, note=67, velocity=0, time=10),
    Message('note_on', channel=6, note=64, velocity=0, time=0),
    Message('note_on', channel=6, note=60, velocity=0, time=0),
    Message('note_on', channel=6, note=60, velocity=85, time=0),
    Message('note_on', channel=6, note=64, velocity=87, time=0),
    Message('note_on', channel=6, note=57, velocity=80, time=0),
    Message('control_change', channel=6, control=64, value=127, time=32),
    Message('note_on', channel=6, note=60, velocity=0, time=27),
    Message('note_on', channel=6, note=64, velocity=0, time=5),
    Message('note_on', channel=6, note=57, velocity=0, time=1),
    Message('note_on', channel=6, note=64, velocity=56, time=55),
    Message('note_on', channel=6, note=57, velocity=56, time=0),
    Message('note_on', channel=6, note=60, velocity=68, time=0),
    Message('note_on', channel=6, note=64, velocity=0, time=37),
    Message('note_on', channel=6, note=60, velocity=0, time=2),
    Message('note_on', channel=6, note=57, velocity=0, time=1),
    Message('note_on', channel=6, note=45, velocity=74, time=20),
    Message('note_on', channel=6, note=45, velocity=0, time=51),
    Message('note_on', channel=6, note=57, velocity=68, time=9),
    Message('note_on', channel=6, note=60, velocity=84, time=0),
    Message('note_on', channel=6, note=64, velocity=81, time=0),
    Message('note_on', channel=6, note=60, velocity=0, time=61),
    Message('note_on', channel=6, note=64, velocity=0, time=2),
    Message('note_on', channel=6, note=57, velocity=0, time=0),
    Message('note_on', channel=6, note=45, velocity=84, time=57),
    Message('note_on', channel=6, note=45, velocity=0, time=65),
    Message('note_on', channel=6, note=57, velocity=89, time=55),
    Message('note_on', channel=6, note=60, velocity=97, time=0),
    Message('note_on', channel=6, note=64, velocity=97, time=0),
    Message('note_on', channel=6, note=60, velocity=0, time=43),
    Message('note_on', channel=6, note=57, velocity=0, time=2),
    Message('note_on', channel=6, note=64, velocity=0, time=6),
    Message('note_on', channel=6, note=60, velocity=102, time=69),
    Message('note_on', channel=6, note=57, velocity=97, time=0),
    Message('note_on', channel=6, note=64, velocity=101, time=0),
    Message('note_on', channel=6, note=57, velocity=0, time=43),
    Message('note_on', channel=6, note=60, velocity=0, time=8),
    Message('note_on', channel=6, note=64, velocity=0, time=5),
    Message('note_on', channel=6, note=45, velocity=85, time=64),
    Message('note_on', channel=6, note=45, velocity=0, time=56),
    Message('control_change', channel=6, control=64, value=0, time=79),
    Message('note_on', channel=6, note=50, velocity=97, time=105),
    Message('note_on', channel=6, note=43, velocity=95, time=0),
    Message('note_on', channel=6, note=62, velocity=92, time=0),
    Message('note_on', channel=6, note=59, velocity=81, time=0),
    Message('note_on', channel=6, note=67, velocity=85, time=0),
    Message('control_change', channel=6, control=64, value=127, time=86),
    Message('note_on', channel=6, note=59, velocity=0, time=77),
    Message('note_on', channel=6, note=62, velocity=0, time=9),
    Message('note_on', channel=6, note=67, velocity=0, time=3),
    Message('note_on', channel=6, note=43, velocity=0, time=55),
    Message('note_on', channel=6, note=50, velocity=0, time=0),
    Message('note_on', channel=6, note=62, velocity=98, time=10),
    Message('note_on', channel=6, note=59, velocity=81, time=0),
    Message('note_on', channel=6, note=67, velocity=97, time=0),
    Message('note_on', channel=6, note=62, velocity=0, time=49),
    Message('note_on', channel=6, note=59, velocity=0, time=2),
    Message('note_on', channel=6, note=67, velocity=0, time=10),
    Message('note_on', channel=6, note=59, velocity=73, time=59),
    Message('note_on', channel=6, note=67, velocity=80, time=0),
    Message('note_on', channel=6, note=62, velocity=87, time=0),
    Message('note_on', channel=6, note=62, velocity=0, time=34),
    Message('note_on', channel=6, note=59, velocity=0, time=1),
    Message('note_on', channel=6, note=67, velocity=0, time=4),
    Message('note_on', channel=6, note=50, velocity=91, time=21),
    Message('note_on', channel=6, note=43, velocity=87, time=0),
    Message('note_on', channel=6, note=50, velocity=0, time=32),
    Message('note_on', channel=6, note=43, velocity=0, time=2),
    Message('note_on', channel=6, note=62, velocity=97, time=26),
    Message('note_on', channel=6, note=59, velocity=81, time=0),
    Message('note_on', channel=6, note=67, velocity=87, time=0),
    Message('note_on', channel=6, note=62, velocity=0, time=67),
    Message('note_on', channel=6, note=59, velocity=0, time=5),
    Message('note_on', channel=6, note=67, velocity=0, time=6),
    Message('note_on', channel=6, note=50, velocity=101, time=42),
    Message('note_on', channel=6, note=43, velocity=98, time=0),
    Message('note_on', channel=6, note=50, velocity=0, time=48),
    Message('note_on', channel=6, note=43, velocity=0, time=5),
    Message('note_on', channel=6, note=59, velocity=87, time=67),
    Message('note_on', channel=6, note=62, velocity=98, time=0),
    Message('note_on', channel=6, note=67, velocity=91, time=0),
    Message('note_on', channel=6, note=59, velocity=0, time=44),
    Message('note_on', channel=6, note=62, velocity=0, time=1),
    Message('note_on', channel=6, note=67, velocity=0, time=12),
    Message('note_on', channel=6, note=50, velocity=102, time=63),
    Message('note_on', channel=6, note=57, velocity=98, time=0),
    Message('control_change', channel=6, control=64, value=0, time=55),
    Message('control_change', channel=6, control=64, value=127, time=87),
    Message('note_on', channel=6, note=62, velocity=97, time=98),
    Message('note_on', channel=6, note=69, velocity=98, time=0),
    Message('note_on', channel=6, note=66, velocity=98, time=0),
    Message('note_on', channel=6, note=57, velocity=0, time=18),
    Message('note_on', channel=6, note=50, velocity=0, time=7),
    Message('note_on', channel=6, note=69, velocity=0, time=81),
    Message('note_on', channel=6, note=62, velocity=0, time=2),
    Message('note_on', channel=6, note=66, velocity=0, time=2),
    Message('note_on', channel=6, note=50, velocity=95, time=10),
    Message('note_on', channel=6, note=57, velocity=84, time=0),
    Message('note_on', channel=6, note=50, velocity=0, time=49),
    Message('note_on', channel=6, note=57, velocity=0, time=1),
    Message('note_on', channel=6, note=62, velocity=84, time=70),
    Message('note_on', channel=6, note=69, velocity=87, time=0),
    Message('note_on', channel=6, note=66, velocity=84, time=0),
    Message('note_on', channel=6, note=62, velocity=0, time=45),
    Message('note_on', channel=6, note=69, velocity=0, time=3),
    Message('note_on', channel=6, note=66, velocity=0, time=1),
    Message('note_on', channel=6, note=62, velocity=85, time=71),
    Message('note_on', channel=6, note=66, velocity=89, time=0),
    Message('note_on', channel=6, note=69, velocity=95, time=0),
    Message('note_on', channel=6, note=69, velocity=0, time=96),
    Message('note_on', channel=6, note=62, velocity=0, time=18),
    Message('note_on', channel=6, note=66, velocity=0, time=3),
    Message('note_on', channel=6, note=50, velocity=97, time=3),
    Message('note_on', channel=6, note=57, velocity=89, time=0),
    Message('note_on', channel=6, note=57, velocity=0, time=51),
    Message('note_on', channel=6, note=50, velocity=0, time=13),
    Message('note_on', channel=6, note=62, velocity=85, time=56),
    Message('note_on', channel=6, note=66, velocity=92, time=0),
    Message('note_on', channel=6, note=62, velocity=0, time=87),
    Message('note_on', channel=6, note=66, velocity=0, time=8),
    Message('note_on', channel=6, note=55, velocity=98, time=25),
    Message('note_on', channel=6, note=55, velocity=0, time=46),
    Message('control_change', channel=6, control=64, value=0, time=55),
    Message('note_on', channel=6, note=55, velocity=101, time=19),
    Message('note_on', channel=6, note=48, velocity=101, time=0),
    Message('note_on', channel=6, note=64, velocity=95, time=0),
    Message('note_on', channel=6, note=67, velocity=84, time=0),
    Message('note_on', channel=6, note=60, velocity=85, time=0),
    Message('control_change', channel=6, control=64, value=127, time=75),
    Message('note_on', channel=6, note=60, velocity=0, time=32),
    Message('note_on', channel=6, note=64, velocity=0, time=1),
    Message('note_on', channel=6, note=67, velocity=0, time=8),
    Message('note_on', channel=6, note=55, velocity=0, time=118),
    Message('note_on', channel=6, note=48, velocity=0, time=2),
    Message('note_on', channel=6, note=67, velocity=89, time=4),
    Message('note_on', channel=6, note=64, velocity=92, time=0),
    Message('note_on', channel=6, note=60, velocity=85, time=0),
    Message('note_on', channel=6, note=64, velocity=0, time=111),
    Message('note_on', channel=6, note=67, velocity=0, time=0),
    Message('note_on', channel=6, note=60, velocity=0, time=4),
    Message('note_on', channel=6, note=48, velocity=80, time=5),
    Message('note_on', channel=6, note=55, velocity=87, time=0),
    Message('note_on', channel=6, note=48, velocity=0, time=37),
    Message('note_on', channel=6, note=55, velocity=0, time=14),
    Message('note_on', channel=6, note=64, velocity=87, time=69),
    Message('note_on', channel=6, note=60, velocity=84, time=0),
    Message('note_on', channel=6, note=67, velocity=85, time=0),
    Message('note_on', channel=6, note=64, velocity=0, time=43),
    Message('note_on', channel=6, note=60, velocity=0, time=4),
    Message('note_on', channel=6, note=67, velocity=0, time=5),
    Message('note_on', channel=6, note=64, velocity=101, time=68),
    Message('note_on', channel=6, note=67, velocity=95, time=0),
    Message('note_on', channel=6, note=60, velocity=95, time=0),
    Message('note_on', channel=6, note=64, velocity=0, time=76),
    Message('note_on', channel=6, note=67, velocity=0, time=1),
    Message('note_on', channel=6, note=60, velocity=0, time=3),
    Message('note_on', channel=6, note=64, velocity=92, time=160),
    Message('note_on', channel=6, note=60, velocity=91, time=0),
    Message('note_on', channel=6, note=67, velocity=89, time=0),
    Message('note_on', channel=6, note=64, velocity=0, time=39),
    Message('note_on', channel=6, note=60, velocity=0, time=7),
    Message('note_on', channel=6, note=67, velocity=0, time=15),
    Message('control_change', channel=6, control=64, value=0, time=23),
    Message('note_on', channel=6, note=59, velocity=84, time=36),
    Message('note_on', channel=6, note=62, velocity=98, time=0),
    Message('note_on', channel=6, note=67, velocity=89, time=0),
    Message('note_on', channel=6, note=50, velocity=85, time=0),
    Message('note_on', channel=6, note=43, velocity=89, time=0),
    Message('control_change', channel=6, control=64, value=127, time=70),
    Message('note_on', channel=6, note=67, velocity=0, time=89),
    Message('note_on', channel=6, note=59, velocity=0, time=3),
    Message('note_on', channel=6, note=62, velocity=0, time=4),
    Message('note_on', channel=6, note=50, velocity=0, time=68),
    Message('note_on', channel=6, note=43, velocity=0, time=2),
    Message('note_on', channel=6, note=62, velocity=95, time=4),
    Message('note_on', channel=6, note=67, velocity=85, time=0),
    Message('note_on', channel=6, note=59, velocity=87, time=0),
    Message('note_on', channel=6, note=62, velocity=0, time=40),
    Message('note_on', channel=6, note=59, velocity=0, time=7),
    Message('note_on', channel=6, note=67, velocity=0, time=4),
    Message('note_on', channel=6, note=67, velocity=74, time=69),
    Message('note_on', channel=6, note=62, velocity=81, time=0),
    Message('note_on', channel=6, note=59, velocity=68, time=0),
    Message('note_on', channel=6, note=67, velocity=0, time=34),
    Message('note_on', channel=6, note=62, velocity=0, time=4),
    Message('note_on', channel=6, note=59, velocity=0, time=5),
    Message('note_on', channel=6, note=43, velocity=89, time=17),
    Message('note_on', channel=6, note=50, velocity=92, time=0),
    Message('note_on', channel=6, note=43, velocity=0, time=36),
    Message('note_on', channel=6, note=50, velocity=0, time=1),
    Message('note_on', channel=6, note=62, velocity=92, time=23),
    Message('note_on', channel=6, note=59, velocity=81, time=0),
    Message('note_on', channel=6, note=67, velocity=84, time=0),
    Message('note_on', channel=6, note=62, velocity=0, time=78),
    Message('note_on', channel=6, note=59, velocity=0, time=4),
    Message('note_on', channel=6, note=67, velocity=0, time=7),
    Message('note_on', channel=6, note=43, velocity=87, time=31),
    Message('note_on', channel=6, note=50, velocity=97, time=0),
    Message('note_on', channel=6, note=50, velocity=0, time=52),
    Message('note_on', channel=6, note=43, velocity=0, time=1),
    Message('note_on', channel=6, note=59, velocity=89, time=67),
    Message('note_on', channel=6, note=62, velocity=98, time=0),
    Message('note_on', channel=6, note=67, velocity=92, time=0),
    Message('note_on', channel=6, note=62, velocity=0, time=53),
    Message('note_on', channel=6, note=59, velocity=0, time=1),
    Message('note_on', channel=6, note=67, velocity=0, time=2),
    Message('note_on', channel=6, note=43, velocity=85, time=64),
    Message('note_on', channel=6, note=50, velocity=97, time=0),
    Message('note_on', channel=6, note=50, velocity=0, time=42),
    Message('note_on', channel=6, note=43, velocity=0, time=8),
    Message('control_change', channel=6, control=64, value=0, time=51),
    Message('note_on', channel=6, note=52, velocity=89, time=19),
    Message('note_on', channel=6, note=55, velocity=101, time=0),
    Message('note_on', channel=6, note=59, velocity=89, time=0),
    Message('control_change', channel=6, control=64, value=127, time=70),
    Message('note_on', channel=6, note=52, velocity=0, time=86),
    Message('note_on', channel=6, note=59, velocity=0, time=2),
    Message('note_on', channel=6, note=55, velocity=0, time=7),
    Message('note_on', channel=6, note=52, velocity=95, time=75),
    Message('note_on', channel=6, note=55, velocity=101, time=0),
    Message('note_on', channel=6, note=59, velocity=95, time=0),
    Message('note_on', channel=6, note=52, velocity=0, time=76),
    Message('note_on', channel=6, note=55, velocity=0, time=4),
    Message('note_on', channel=6, note=59, velocity=0, time=9),
    Message('note_on', channel=6, note=40, velocity=92, time=31),
    Message('note_on', channel=6, note=40, velocity=0, time=52),
    Message('note_on', channel=6, note=52, velocity=81, time=68),
    Message('note_on', channel=6, note=55, velocity=98, time=0),
    Message('note_on', channel=6, note=59, velocity=95, time=0),
    Message('note_on', channel=6, note=55, velocity=0, time=39),
    Message('note_on', channel=6, note=52, velocity=0, time=2),
    Message('note_on', channel=6, note=59, velocity=0, time=7),
    Message('note_on', channel=6, note=55, velocity=98, time=72),
    Message('note_on', channel=6, note=59, velocity=95, time=0),
    Message('note_on', channel=6, note=52, velocity=87, time=0),
    Message('note_on', channel=6, note=52, velocity=0, time=52),
    Message('note_on', channel=6, note=55, velocity=0, time=5),
    Message('note_on', channel=6, note=59, velocity=0, time=4),
    Message('note_on', channel=6, note=55, velocity=105, time=179),
    Message('note_on', channel=6, note=52, velocity=95, time=0),
    Message('note_on', channel=6, note=59, velocity=97, time=0),
    Message('note_on', channel=6, note=52, velocity=0, time=54),
    Message('note_on', channel=6, note=55, velocity=0, time=2),
    Message('note_on', channel=6, note=59, velocity=0, time=8),
    Message('note_on', channel=6, note=52, velocity=89, time=176),
    Message('note_on', channel=6, note=55, velocity=101, time=0),
    Message('note_on', channel=6, note=59, velocity=95, time=0),
    Message('note_on', channel=6, note=52, velocity=0, time=61),
    Message('note_on', channel=6, note=55, velocity=0, time=1),
    Message('note_on', channel=6, note=59, velocity=0, time=11),
    Message('note_on', channel=6, note=40, velocity=89, time=47),
    Message('note_on', channel=6, note=40, velocity=0, time=40),
    Message('note_on', channel=6, note=52, velocity=84, time=80),
    Message('note_on', channel=6, note=55, velocity=98, time=0),
    Message('note_on', channel=6, note=59, velocity=87, time=0),
    Message('note_on', channel=6, note=52, velocity=0, time=40),
    Message('note_on', channel=6, note=55, velocity=0, time=2),
    Message('note_on', channel=6, note=59, velocity=0, time=6),
    Message('note_on', channel=6, note=52, velocity=91, time=72),
    Message('note_on', channel=6, note=55, velocity=101, time=0),
    Message('note_on', channel=6, note=59, velocity=95, time=0),
    Message('note_on', channel=6, note=52, velocity=0, time=52),
    Message('note_on', channel=6, note=55, velocity=0, time=5),
    Message('note_on', channel=6, note=59, velocity=0, time=9),
    Message('note_on', channel=6, note=52, velocity=95, time=54),
    Message('note_on', channel=6, note=52, velocity=0, time=53),
    Message('note_on', channel=6, note=55, velocity=101, time=67),
    Message('note_on', channel=6, note=59, velocity=98, time=0),
    Message('note_on', channel=6, note=52, velocity=95, time=0),
    Message('note_on', channel=6, note=52, velocity=0, time=47),
    Message('note_on', channel=6, note=55, velocity=0, time=8),
    Message('note_on', channel=6, note=59, velocity=0, time=7),
    Message('control_change', channel=6, control=64, value=0, time=166),
    Message('note_on', channel=6, note=60, velocity=91, time=12),
    Message('note_on', channel=6, note=64, velocity=95, time=0),
    Message('note_on', channel=6, note=55, velocity=98, time=0),
    Message('note_on', channel=6, note=48, velocity=101, time=0),
    Message('control_change', channel=6, control=64, value=127, time=87),
    Message('note_on', channel=6, note=60, velocity=0, time=21),
    Message('note_on', channel=6, note=64, velocity=0, time=14),
    Message('note_on', channel=6, note=55, velocity=0, time=86),
    Message('note_on', channel=6, note=48, velocity=0, time=2),
    Message('note_on', channel=6, note=60, velocity=78, time=30),
    Message('note_on', channel=6, note=64, velocity=92, time=0),
    Message('note_on', channel=6, note=60, velocity=0, time=95),
    Message('note_on', channel=6, note=64, velocity=0, time=1),
    Message('note_on', channel=6, note=48, velocity=80, time=24),
    Message('note_on', channel=6, note=55, velocity=87, time=0),
    Message('note_on', channel=6, note=48, velocity=0, time=40),
    Message('note_on', channel=6, note=55, velocity=0, time=9),
    Message('note_on', channel=6, note=60, velocity=69, time=71),
    Message('note_on', channel=6, note=64, velocity=84, time=0),
    Message('note_on', channel=6, note=60, velocity=0, time=47),
    Message('note_on', channel=6, note=64, velocity=0, time=2),
    Message('note_on', channel=6, note=60, velocity=89, time=71),
    Message('note_on', channel=6, note=64, velocity=95, time=0),
    Message('note_on', channel=6, note=60, velocity=0, time=53),
    Message('note_on', channel=6, note=64, velocity=0, time=6),
    Message('note_on', channel=6, note=60, velocity=89, time=61),
    Message('note_on', channel=6, note=64, velocity=97, time=0),
    Message('note_on', channel=6, note=64, velocity=0, time=44),
    Message('note_on', channel=6, note=60, velocity=0, time=6),
    Message('note_on', channel=6, note=43, velocity=101, time=70),
    Message('note_on', channel=6, note=50, velocity=105, time=0),
    Message('control_change', channel=6, control=64, value=0, time=36),
    Message('note_on', channel=6, note=55, velocity=80, time=84),
    Message('note_on', channel=6, note=62, velocity=91, time=0),
    Message('note_on', channel=6, note=59, velocity=95, time=0),
    Message('note_on', channel=6, note=50, velocity=0, time=7),
    Message('note_on', channel=6, note=43, velocity=0, time=4),
    Message('control_change', channel=6, control=64, value=127, time=6),
    Message('note_on', channel=6, note=55, velocity=0, time=105),
    Message('note_on', channel=6, note=59, velocity=0, time=3),
    Message('note_on', channel=6, note=62, velocity=0, time=5),
    Message('note_on', channel=6, note=55, velocity=43, time=50),
    Message('note_on', channel=6, note=55, velocity=0, time=19),
    Message('note_on', channel=6, note=43, velocity=98, time=41),
    Message('note_on', channel=6, note=43, velocity=0, time=95),
    Message('note_on', channel=6, note=55, velocity=95, time=25),
    Message('note_on', channel=6, note=62, velocity=98, time=0),
    Message('note_on', channel=6, note=59, velocity=101, time=0),
    Message('note_on', channel=6, note=55, velocity=0, time=57),
    Message('note_on', channel=6, note=59, velocity=0, time=1),
    Message('note_on', channel=6, note=62, velocity=0, time=8),
    Message('note_on', channel=6, note=43, velocity=87, time=54),
    Message('note_on', channel=6, note=43, velocity=0, time=72),
    Message('note_on', channel=6, note=62, velocity=89, time=48),
    Message('note_on', channel=6, note=59, velocity=92, time=0),
    Message('note_on', channel=6, note=55, velocity=89, time=0),
    Message('note_on', channel=6, note=59, velocity=0, time=41),
    Message('note_on', channel=6, note=62, velocity=0, time=1),
    Message('note_on', channel=6, note=55, velocity=0, time=3),
    Message('note_on', channel=6, note=55, velocity=84, time=75),
    Message('note_on', channel=6, note=59, velocity=98, time=0),
    Message('note_on', channel=6, note=62, velocity=98, time=0),
    Message('note_on', channel=6, note=55, velocity=0, time=63),
    Message('note_on', channel=6, note=59, velocity=0, time=33),
    Message('note_on', channel=6, note=62, velocity=0, time=10),
    Message('note_on', channel=6, note=52, velocity=95, time=14),
    Message('note_on', channel=6, note=52, velocity=0, time=45),
    Message('control_change', channel=6, control=64, value=0, time=35),
    Message('note_on', channel=6, note=60, velocity=98, time=40),
    Message('note_on', channel=6, note=57, velocity=89, time=0),
    Message('note_on', channel=6, note=45, velocity=101, time=0),
    Message('note_on', channel=6, note=64, velocity=97, time=0),
    Message('control_change', channel=6, control=64, value=127, time=54),
    Message('note_on', channel=6, note=57, velocity=0, time=45),
    Message('note_on', channel=6, note=60, velocity=0, time=0),
    Message('note_on', channel=6, note=64, velocity=0, time=5),
    Message('note_on', channel=6, note=52, velocity=89, time=76),
    Message('note_on', channel=6, note=60, velocity=81, time=0),
    Message('note_on', channel=6, note=64, velocity=78, time=0),
    Message('note_on', channel=6, note=57, velocity=69, time=0),
    Message('note_on', channel=6, note=45, velocity=0, time=2),
    Message('note_on', channel=6, note=60, velocity=0, time=24),
    Message('note_on', channel=6, note=64, velocity=0, time=4),
    Message('note_on', channel=6, note=57, velocity=0, time=5),
    Message('note_on', channel=6, note=52, velocity=0, time=8),
    Message('note_on', channel=6, note=60, velocity=95, time=137),
    Message('note_on', channel=6, note=57, velocity=89, time=0),
    Message('note_on', channel=6, note=64, velocity=84, time=0),
    Message('note_on', channel=6, note=60, velocity=0, time=68),
    Message('note_on', channel=6, note=57, velocity=0, time=2),
    Message('note_on', channel=6, note=64, velocity=0, time=5),
    Message('note_on', channel=6, note=45, velocity=97, time=45),
    Message('note_on', channel=6, note=45, velocity=0, time=81),
    Message('note_on', channel=6, note=60, velocity=95, time=39),
    Message('note_on', channel=6, note=64, velocity=87, time=0),
    Message('note_on', channel=6, note=57, velocity=84, time=0),
    Message('note_on', channel=6, note=60, velocity=0, time=40),
    Message('note_on', channel=6, note=57, velocity=0, time=8),
    Message('note_on', channel=6, note=64, velocity=0, time=0),
    Message('note_on', channel=6, note=60, velocity=98, time=72),
    Message('note_on', channel=6, note=64, velocity=97, time=0),
    Message('note_on', channel=6, note=57, velocity=87, time=0),
    Message('note_on', channel=6, note=57, velocity=0, time=51),
    Message('note_on', channel=6, note=60, velocity=0, time=5),
    Message('note_on', channel=6, note=64, velocity=0, time=20),
    Message('note_on', channel=6, note=55, velocity=95, time=44),
    Message('note_on', channel=6, note=55, velocity=0, time=40),
    Message('control_change', channel=6, control=64, value=0, time=51),
    Message('note_on', channel=6, note=55, velocity=95, time=29),
    Message('note_on', channel=6, note=64, velocity=87, time=0),
    Message('note_on', channel=6, note=60, velocity=85, time=0),
    Message('note_on', channel=6, note=67, velocity=85, time=0),
    Message('note_on', channel=6, note=48, velocity=97, time=0),
    Message('note_on', channel=6, note=64, velocity=0, time=43),
    Message('note_on', channel=6, note=60, velocity=0, time=5),
    Message('control_change', channel=6, control=64, value=127, time=8),
    Message('note_on', channel=6, note=67, velocity=0, time=2),
    Message('note_on', channel=6, note=55, velocity=0, time=32),
    Message('note_on', channel=6, note=48, velocity=0, time=6),
    Message('note_on', channel=6, note=67, velocity=69, time=24),
    Message('note_on', channel=6, note=60, velocity=65, time=0),
    Message('note_on', channel=6, note=64, velocity=84, time=0),
    Message('note_on', channel=6, note=64, velocity=0, time=31),
    Message('note_on', channel=6, note=67, velocity=0, time=1),
    Message('note_on', channel=6, note=60, velocity=0, time=3),
    Message('note_on', channel=6, note=48, velocity=91, time=25),
    Message('note_on', channel=6, note=55, velocity=97, time=0),
    Message('note_on', channel=6, note=48, velocity=0, time=28),
    Message('note_on', channel=6, note=55, velocity=0, time=13),
    Message('note_on', channel=6, note=64, velocity=89, time=19),
    Message('note_on', channel=6, note=67, velocity=84, time=0),
    Message('note_on', channel=6, note=60, velocity=85, time=0),
    Message('note_on', channel=6, note=64, velocity=0, time=46),
    Message('note_on', channel=6, note=60, velocity=0, time=6),
    Message('note_on', channel=6, note=67, velocity=0, time=13),
    Message('note_on', channel=6, note=55, velocity=101, time=55),
    Message('note_on', channel=6, note=48, velocity=98, time=0),
    Message('note_on', channel=6, note=55, velocity=0, time=42),
    Message('note_on', channel=6, note=48, velocity=0, time=2),
    Message('note_on', channel=6, note=60, velocity=80, time=76),
    Message('note_on', channel=6, note=67, velocity=84, time=0),
    Message('note_on', channel=6, note=64, velocity=92, time=0),
    Message('note_on', channel=6, note=60, velocity=0, time=55),
    Message('note_on', channel=6, note=64, velocity=0, time=2),
    Message('note_on', channel=6, note=67, velocity=0, time=5),
    Message('note_on', channel=6, note=55, velocity=91, time=58),
    Message('note_on', channel=6, note=48, velocity=92, time=0),
    Message('note_on', channel=6, note=48, velocity=0, time=44),
    Message('note_on', channel=6, note=55, velocity=0, time=3),
    Message('note_on', channel=6, note=60, velocity=80, time=73),
    Message('note_on', channel=6, note=67, velocity=84, time=0),
    Message('note_on', channel=6, note=64, velocity=95, time=0),
    Message('note_on', channel=6, note=67, velocity=0, time=36),
    Message('note_on', channel=6, note=64, velocity=0, time=2),
    Message('note_on', channel=6, note=60, velocity=0, time=10),
    Message('control_change', channel=6, control=64, value=0, time=166),
    Message('note_on', channel=6, note=52, velocity=92, time=26),
    Message('note_on', channel=6, note=55, velocity=101, time=0),
    Message('note_on', channel=6, note=59, velocity=95, time=0),
    Message('control_change', channel=6, control=64, value=127, time=57),
    Message('note_on', channel=6, note=52, velocity=0, time=86),
    Message('note_on', channel=6, note=55, velocity=0, time=13),
    Message('note_on', channel=6, note=59, velocity=0, time=4),
    Message('note_on', channel=6, note=40, velocity=92, time=80),
    Message('note_on', channel=6, note=40, velocity=0, time=49),
    Message('note_on', channel=6, note=52, velocity=92, time=71),
    Message('note_on', channel=6, note=55, velocity=101, time=0),
    Message('note_on', channel=6, note=59, velocity=98, time=0),
    Message('note_on', channel=6, note=52, velocity=0, time=44),
    Message('note_on', channel=6, note=55, velocity=0, time=3),
    Message('note_on', channel=6, note=59, velocity=0, time=11),
    Message('note_on', channel=6, note=52, velocity=92, time=62),
    Message('note_on', channel=6, note=55, velocity=101, time=0),
    Message('note_on', channel=6, note=59, velocity=97, time=0),
    Message('note_on', channel=6, note=52, velocity=0, time=82),
    Message('note_on', channel=6, note=55, velocity=0, time=6),
    Message('note_on', channel=6, note=59, velocity=0, time=4),
    Message('note_on', channel=6, note=40, velocity=89, time=28),
    Message('note_on', channel=6, note=40, velocity=0, time=44),
    Message('note_on', channel=6, note=52, velocity=89, time=76),
    Message('note_on', channel=6, note=55, velocity=98, time=0),
    Message('note_on', channel=6, note=59, velocity=97, time=0),
    Message('note_on', channel=6, note=52, velocity=0, time=41),
    Message('note_on', channel=6, note=55, velocity=0, time=2),
    Message('note_on', channel=6, note=59, velocity=0, time=3),
    Message('note_on', channel=6, note=55, velocity=105, time=74),
    Message('note_on', channel=6, note=52, velocity=97, time=0),
    Message('note_on', channel=6, note=59, velocity=98, time=0),
    Message('note_on', channel=6, note=55, velocity=0, time=61),
    Message('note_on', channel=6, note=52, velocity=0, time=10),
    Message('note_on', channel=6, note=59, velocity=0, time=7),
    Message('note_on', channel=6, note=52, velocity=81, time=42),
    Message('note_on', channel=6, note=59, velocity=81, time=0),
    Message('note_on', channel=6, note=40, velocity=81, time=0),
    Message('note_on', channel=6, note=55, velocity=87, time=0),
    Message('note_on', channel=6, note=52, velocity=0, time=186),
    Message('note_on', channel=6, note=59, velocity=0, time=1),
    Message('note_on', channel=6, note=55, velocity=0, time=5),
    Message('control_change', channel=6, control=64, value=127, time=14),
    Message('note_on', channel=6, note=52, velocity=69, time=34),
    Message('note_on', channel=6, note=59, velocity=73, time=0),
    Message('note_on', channel=6, note=55, velocity=85, time=0),
    Message('note_on', channel=6, note=40, velocity=0, time=20),
    Message('note_on', channel=6, note=40, velocity=98, time=100),
    Message('note_on', channel=6, note=52, velocity=0, time=17),
    Message('note_on', channel=6, note=59, velocity=0, time=4),
    Message('note_on', channel=6, note=55, velocity=0, time=9),
    Message('note_on', channel=6, note=40, velocity=0, time=42),
    Message('note_on', channel=6, note=55, velocity=101, time=48),
    Message('note_on', channel=6, note=52, velocity=92, time=0),
    Message('note_on', channel=6, note=59, velocity=97, time=0),
    Message('note_on', channel=6, note=52, velocity=0, time=46),
    Message('note_on', channel=6, note=55, velocity=0, time=0),
    Message('note_on', channel=6, note=59, velocity=0, time=6),
    Message('note_on', channel=6, note=52, velocity=98, time=68),
    Message('note_on', channel=6, note=59, velocity=101, time=0),
    Message('note_on', channel=6, note=55, velocity=108, time=0),
    Message('note_on', channel=6, note=52, velocity=0, time=38),
    Message('note_on', channel=6, note=55, velocity=0, time=6),
    Message('note_on', channel=6, note=59, velocity=0, time=7),
    Message('control_change', channel=6, control=64, value=0, time=112),
    Message('note_on', channel=6, note=60, velocity=105, time=77),
    Message('note_on', channel=6, note=64, velocity=110, time=0),
    Message('note_on', channel=6, note=48, velocity=108, time=0),
    Message('note_on', channel=6, note=55, velocity=108, time=0),
    Message('control_change', channel=6, control=64, value=127, time=310),
    Message('note_on', channel=6, note=60, velocity=0, time=2),
    Message('note_on', channel=6, note=64, velocity=0, time=2),
    Message('note_on', channel=6, note=60, velocity=92, time=46),
    Message('note_on', channel=6, note=64, velocity=98, time=0),
    Message('note_on', channel=6, note=48, velocity=0, time=38),
    Message('note_on', channel=6, note=55, velocity=0, time=1),
    Message('note_on', channel=6, note=60, velocity=0, time=9),
    Message('note_on', channel=6, note=64, velocity=0, time=6),
    Message('note_on', channel=6, note=60, velocity=74, time=66),
    Message('note_on', channel=6, note=64, velocity=85, time=0),
    Message('note_on', channel=6, note=60, velocity=0, time=41),
    Message('note_on', channel=6, note=64, velocity=0, time=6),
    Message('note_on', channel=6, note=55, velocity=97, time=13),
    Message('note_on', channel=6, note=48, velocity=98, time=0),
    Message('note_on', channel=6, note=55, velocity=0, time=45),
    Message('note_on', channel=6, note=48, velocity=0, time=6),
    Message('note_on', channel=6, note=60, velocity=92, time=9),
    Message('note_on', channel=6, note=64, velocity=97, time=0),
    Message('note_on', channel=6, note=60, velocity=0, time=96),
    Message('note_on', channel=6, note=64, velocity=0, time=10),
    Message('note_on', channel=6, note=48, velocity=97, time=14),
    Message('note_on', channel=6, note=55, velocity=101, time=0),
    Message('note_on', channel=6, note=55, velocity=0, time=51),
    Message('note_on', channel=6, note=48, velocity=0, time=6),
    Message('note_on', channel=6, note=64, velocity=97, time=63),
    Message('note_on', channel=6, note=60, velocity=95, time=0),
    Message('note_on', channel=6, note=64, velocity=0, time=79),
    Message('note_on', channel=6, note=60, velocity=0, time=11),
    Message('control_change', channel=6, control=64, value=0, time=131),
    Message('note_on', channel=6, note=50, velocity=84, time=19),
    Message('note_on', channel=6, note=43, velocity=85, time=0),
    Message('note_on', channel=6, note=62, velocity=87, time=0),
    Message('note_on', channel=6, note=55, velocity=89, time=0),
    Message('note_on', channel=6, note=59, velocity=89, time=0),
    Message('control_change', channel=6, control=64, value=127, time=151),
    Message('note_on', channel=6, note=62, velocity=0, time=5),
    Message('note_on', channel=6, note=55, velocity=0, time=4),
    Message('note_on', channel=6, note=59, velocity=0, time=4),
    Message('note_on', channel=6, note=50, velocity=0, time=60),
    Message('note_on', channel=6, note=43, velocity=0, time=5),
    Message('note_on', channel=6, note=62, velocity=89, time=11),
    Message('note_on', channel=6, note=55, velocity=85, time=0),
    Message('note_on', channel=6, note=59, velocity=91, time=0),
    Message('note_on', channel=6, note=62, velocity=0, time=79),
    Message('note_on', channel=6, note=59, velocity=0, time=6),
    Message('note_on', channel=6, note=55, velocity=0, time=0),
    Message('note_on', channel=6, note=50, velocity=87, time=35),
    Message('note_on', channel=6, note=43, velocity=85, time=0),
    Message('note_on', channel=6, note=50, velocity=0, time=40),
    Message('note_on', channel=6, note=43, velocity=0, time=2),
    Message('note_on', channel=6, note=62, velocity=97, time=78),
    Message('note_on', channel=6, note=59, velocity=97, time=0),
    Message('note_on', channel=6, note=55, velocity=87, time=0),
    Message('note_on', channel=6, note=59, velocity=0, time=40),
    Message('note_on', channel=6, note=55, velocity=0, time=3),
    Message('note_on', channel=6, note=62, velocity=0, time=0),
    Message('note_on', channel=6, note=62, velocity=98, time=77),
    Message('note_on', channel=6, note=55, velocity=97, time=0),
    Message('note_on', channel=6, note=59, velocity=105, time=0),
    Message('note_on', channel=6, note=55, velocity=0, time=44),
    Message('note_on', channel=6, note=62, velocity=0, time=0),
    Message('note_on', channel=6, note=59, velocity=0, time=1),
    Message('note_on', channel=6, note=62, velocity=101, time=75),
    Message('note_on', channel=6, note=55, velocity=97, time=0),
    Message('note_on', channel=6, note=59, velocity=101, time=0),
    Message('note_on', channel=6, note=59, velocity=0, time=39),
    Message('note_on', channel=6, note=55, velocity=0, time=0),
    Message('note_on', channel=6, note=62, velocity=0, time=6),
    Message('control_change', channel=6, control=64, value=0, time=40),
    Message('note_on', channel=6, note=52, velocity=105, time=35),
    Message('note_on', channel=6, note=55, velocity=105, time=0),
    Message('note_on', channel=6, note=48, velocity=105, time=0),
    Message('control_change', channel=6, control=64, value=127, time=342),
    Message('note_on', channel=6, note=60, velocity=91, time=18),
    Message('note_on', channel=6, note=64, velocity=95, time=0),
    Message('note_on', channel=6, note=52, velocity=0, time=35),
    Message('note_on', channel=6, note=55, velocity=0, time=4),
    Message('note_on', channel=6, note=48, velocity=0, time=0),
    Message('note_on', channel=6, note=60, velocity=0, time=7),
    Message('note_on', channel=6, note=64, velocity=0, time=1),
    Message('note_on', channel=6, note=60, velocity=84, time=73),
    Message('note_on', channel=6, note=64, velocity=92, time=0),
    Message('note_on', channel=6, note=64, velocity=0, time=45),
    Message('note_on', channel=6, note=60, velocity=0, time=0),
    Message('note_on', channel=6, note=52, velocity=85, time=15),
    Message('note_on', channel=6, note=48, velocity=97, time=0),
    Message('note_on', channel=6, note=55, velocity=95, time=0),
    Message('note_on', channel=6, note=52, velocity=0, time=43),
    Message('note_on', channel=6, note=48, velocity=0, time=1),
    Message('note_on', channel=6, note=55, velocity=0, time=4),
    Message('note_on', channel=6, note=60, velocity=89, time=12),
    Message('note_on', channel=6, note=64, velocity=95, time=0),
    Message('note_on', channel=6, note=60, velocity=0, time=60),
    Message('note_on', channel=6, note=64, velocity=0, time=7),
    Message('note_on', channel=6, note=52, velocity=97, time=53),
    Message('note_on', channel=6, note=48, velocity=98, time=0),
    Message('note_on', channel=6, note=55, velocity=98, time=0),
    Message('note_on', channel=6, note=52, velocity=0, time=69),
    Message('note_on', channel=6, note=55, velocity=0, time=3),
    Message('note_on', channel=6, note=48, velocity=0, time=5),
    Message('note_on', channel=6, note=64, velocity=101, time=43),
    Message('note_on', channel=6, note=60, velocity=95, time=0),
    Message('note_on', channel=6, note=64, velocity=0, time=42),
    Message('note_on', channel=6, note=60, velocity=0, time=2),
    Message('control_change', channel=6, control=64, value=0, time=92),
    Message('note_on', channel=6, note=55, velocity=66, time=104),
    Message('note_on', channel=6, note=50, velocity=84, time=0),
    Message('note_on', channel=6, note=59, velocity=89, time=0),
    Message('note_on', channel=6, note=43, velocity=84, time=0),
    Message('control_change', channel=6, control=64, value=127, time=24),
    Message('note_on', channel=6, note=59, velocity=0, time=34),
    Message('note_on', channel=6, note=55, velocity=0, time=4),
    Message('note_on', channel=6, note=50, velocity=0, time=10),
    Message('note_on', channel=6, note=43, velocity=0, time=5),
    Message('note_on', channel=6, note=55, velocity=55, time=43),
    Message('note_on', channel=6, note=59, velocity=71, time=0),
    Message('note_on', channel=6, note=55, velocity=0, time=39),
    Message('note_on', channel=6, note=59, velocity=0, time=7),
    Message('note_on', channel=6, note=43, velocity=78, time=14),
    Message('note_on', channel=6, note=50, velocity=85, time=0),
    Message('note_on', channel=6, note=50, velocity=0, time=35),
    Message('note_on', channel=6, note=43, velocity=0, time=3),
    Message('note_on', channel=6, note=55, velocity=74, time=22),
    Message('note_on', channel=6, note=59, velocity=91, time=0),
    Message('note_on', channel=6, note=55, velocity=0, time=51),
    Message('note_on', channel=6, note=59, velocity=0, time=3),
    Message('note_on', channel=6, note=50, velocity=84, time=66),
    Message('note_on', channel=6, note=43, velocity=78, time=0),
    Message('note_on', channel=6, note=50, velocity=0, time=40),
    Message('note_on', channel=6, note=43, velocity=0, time=12),
    Message('note_on', channel=6, note=59, velocity=87, time=68),
    Message('note_on', channel=6, note=55, velocity=84, time=0),
    Message('note_on', channel=6, note=55, velocity=0, time=58),
    Message('note_on', channel=6, note=59, velocity=0, time=4),
    Message('note_on', channel=6, note=50, velocity=85, time=58),
    Message('note_on', channel=6, note=43, velocity=91, time=0),
    Message('note_on', channel=6, note=50, velocity=0, time=47),
    Message('note_on', channel=6, note=43, velocity=0, time=16),
    Message('note_on', channel=6, note=55, velocity=89, time=57),
    Message('note_on', channel=6, note=59, velocity=97, time=0),
    Message('note_on', channel=6, note=55, velocity=0, time=44),
    Message('note_on', channel=6, note=59, velocity=0, time=5),
    Message('note_on', channel=6, note=59, velocity=85, time=71),
    Message('note_on', channel=6, note=55, velocity=80, time=0),
    Message('note_on', channel=6, note=55, velocity=0, time=42),
    Message('note_on', channel=6, note=59, velocity=0, time=3),
    Message('control_change', channel=6, control=64, value=0, time=39),
    Message('note_on', channel=6, note=57, velocity=85, time=36),
    Message('note_on', channel=6, note=60, velocity=95, time=0),
    Message('note_on', channel=6, note=52, velocity=81, time=0),
    Message('note_on', channel=6, note=45, velocity=87, time=0),
    Message('control_change', channel=6, control=64, value=127, time=58),
    Message('note_on', channel=6, note=57, velocity=0, time=99),
    Message('note_on', channel=6, note=60, velocity=0, time=2),
    Message('note_on', channel=6, note=52, velocity=0, time=30),
    Message('note_on', channel=6, note=45, velocity=0, time=7),
    Message('note_on', channel=6, note=57, velocity=84, time=44),
    Message('note_on', channel=6, note=60, velocity=97, time=0),
    Message('note_on', channel=6, note=57, velocity=0, time=64),
    Message('note_on', channel=6, note=60, velocity=0, time=4),
    Message('note_on', channel=6, note=52, velocity=74, time=52),
    Message('note_on', channel=6, note=45, velocity=85, time=0),
    Message('note_on', channel=6, note=52, velocity=0, time=34),
    Message('note_on', channel=6, note=45, velocity=0, time=18),
    Message('note_on', channel=6, note=57, velocity=76, time=68),
    Message('note_on', channel=6, note=60, velocity=91, time=0),
    Message('note_on', channel=6, note=60, velocity=0, time=40),
    Message('note_on', channel=6, note=57, velocity=0, time=3),
    Message('note_on', channel=6, note=60, velocity=97, time=77),
    Message('note_on', channel=6, note=57, velocity=85, time=0),
    Message('note_on', channel=6, note=57, velocity=0, time=80),
    Message('note_on', channel=6, note=60, velocity=0, time=8),
    Message('note_on', channel=6, note=52, velocity=69, time=32),
    Message('note_on', channel=6, note=45, velocity=85, time=0),
    Message('note_on', channel=6, note=52, velocity=0, time=42),
    Message('note_on', channel=6, note=45, velocity=0, time=16),
    Message('note_on', channel=6, note=60, velocity=84, time=62),
    Message('note_on', channel=6, note=57, velocity=73, time=0),
    Message('note_on', channel=6, note=57, velocity=0, time=56),
    Message('note_on', channel=6, note=60, velocity=0, time=1),
    Message('control_change', channel=6, control=64, value=0, time=30),
    Message('note_on', channel=6, note=52, velocity=78, time=33),
    Message('note_on', channel=6, note=55, velocity=87, time=0),
    Message('note_on', channel=6, note=48, velocity=95, time=0),
    Message('control_change', channel=6, control=64, value=127, time=53),
    Message('note_on', channel=6, note=52, velocity=0, time=51),
    Message('note_on', channel=6, note=55, velocity=0, time=4),
    Message('note_on', channel=6, note=48, velocity=0, time=7),
    Message('note_on', channel=6, note=60, velocity=62, time=5),
    Message('note_on', channel=6, note=60, velocity=0, time=40),
    Message('note_on', channel=6, note=48, velocity=81, time=20),
    Message('note_on', channel=6, note=52, velocity=84, time=0),
    Message('note_on', channel=6, note=55, velocity=85, time=0),
    Message('note_on', channel=6, note=48, velocity=0, time=33),
    Message('note_on', channel=6, note=52, velocity=0, time=4),
    Message('note_on', channel=6, note=55, velocity=0, time=6),
    Message('note_on', channel=6, note=60, velocity=89, time=17),
    Message('note_on', channel=6, note=60, velocity=0, time=70),
    Message('note_on', channel=6, note=52, velocity=95, time=50),
    Message('note_on', channel=6, note=55, velocity=98, time=0),
    Message('note_on', channel=6, note=48, velocity=98, time=0),
    Message('note_on', channel=6, note=52, velocity=0, time=58),
    Message('note_on', channel=6, note=55, velocity=0, time=2),
    Message('note_on', channel=6, note=48, velocity=0, time=8),
    Message('note_on', channel=6, note=60, velocity=101, time=52),
    Message('note_on', channel=6, note=60, velocity=0, time=63),
    Message('note_on', channel=6, note=52, velocity=87, time=57),
    Message('note_on', channel=6, note=48, velocity=92, time=0),
    Message('note_on', channel=6, note=55, velocity=92, time=0),
    Message('note_on', channel=6, note=52, velocity=0, time=60),
    Message('note_on', channel=6, note=55, velocity=0, time=2),
    Message('note_on', channel=6, note=48, velocity=0, time=8),
    Message('note_on', channel=6, note=60, velocity=97, time=50),
    Message('note_on', channel=6, note=60, velocity=0, time=46),
    Message('control_change', channel=6, control=64, value=0, time=66),
    Message('note_on', channel=6, note=62, velocity=105, time=8),
    Message('note_on', channel=6, note=55, velocity=102, time=0),
    Message('note_on', channel=6, note=59, velocity=105, time=0),
    Message('note_on', channel=6, note=55, velocity=0, time=1605),
    Message('note_on', channel=6, note=62, velocity=0, time=12),
    Message('note_on', channel=6, note=59, velocity=0, time=1),
    Message('note_on', channel=6, note=64, velocity=92, time=422),
    Message('note_on', channel=6, note=55, velocity=87, time=0),
    Message('note_on', channel=6, note=60, velocity=105, time=0),
    Message('note_on', channel=6, note=48, velocity=98, time=0),
    Message('note_on', channel=6, note=55, velocity=0, time=96),
    Message('note_on', channel=6, note=64, velocity=0, time=0),
    Message('note_on', channel=6, note=60, velocity=0, time=3),
    Message('control_change', channel=6, control=64, value=127, time=4),
    Message('note_on', channel=6, note=48, velocity=0, time=10),
    Message('note_on', channel=6, note=55, velocity=57, time=7),
    Message('note_on', channel=6, note=64, velocity=68, time=0),
    Message('note_on', channel=6, note=60, velocity=73, time=0),
    Message('note_on', channel=6, note=55, velocity=0, time=37),
    Message('note_on', channel=6, note=60, velocity=0, time=6),
    Message('note_on', channel=6, note=64, velocity=0, time=1),
    Message('note_on', channel=6, note=48, velocity=81, time=16),
    Message('note_on', channel=6, note=48, velocity=0, time=38),
    Message('note_on', channel=6, note=55, velocity=80, time=22),
    Message('note_on', channel=6, note=60, velocity=102, time=0),
    Message('note_on', channel=6, note=64, velocity=91, time=0),
    Message('note_on', channel=6, note=55, velocity=0, time=32),
    Message('note_on', channel=6, note=60, velocity=0, time=8),
    Message('note_on', channel=6, note=64, velocity=0, time=2),
    Message('note_on', channel=6, note=55, velocity=62, time=78),
    Message('note_on', channel=6, note=60, velocity=74, time=0),
    Message('note_on', channel=6, note=64, velocity=78, time=0),
    Message('note_on', channel=6, note=60, velocity=0, time=31),
    Message('note_on', channel=6, note=55, velocity=0, time=2),
    Message('note_on', channel=6, note=64, velocity=0, time=6),
    Message('note_on', channel=6, note=48, velocity=78, time=21),
    Message('note_on', channel=6, note=48, velocity=0, time=27),
    Message('note_on', channel=6, note=60, velocity=84, time=33),
    Message('note_on', channel=6, note=55, velocity=74, time=0),
    Message('note_on', channel=6, note=64, velocity=87, time=0),
    Message('note_on', channel=6, note=60, velocity=0, time=29),
    Message('note_on', channel=6, note=55, velocity=0, time=6),
    Message('note_on', channel=6, note=64, velocity=0, time=5),
    Message('note_on', channel=6, note=60, velocity=58, time=80),
    Message('note_on', channel=6, note=55, velocity=53, time=0),
    Message('note_on', channel=6, note=64, velocity=71, time=0),
    Message('note_on', channel=6, note=60, velocity=0, time=27),
    Message('note_on', channel=6, note=55, velocity=0, time=8),
    Message('note_on', channel=6, note=64, velocity=0, time=6),
    Message('note_on', channel=6, note=48, velocity=68, time=19),
    Message('note_on', channel=6, note=48, velocity=0, time=31),
    Message('note_on', channel=6, note=60, velocity=73, time=29),
    Message('note_on', channel=6, note=55, velocity=68, time=0),
    Message('note_on', channel=6, note=64, velocity=81, time=0),
    Message('note_on', channel=6, note=60, velocity=0, time=28),
    Message('note_on', channel=6, note=55, velocity=0, time=7),
    Message('note_on', channel=6, note=64, velocity=0, time=8),
    Message('note_on', channel=6, note=48, velocity=61, time=17),
    Message('note_on', channel=6, note=48, velocity=0, time=24),
    Message('note_on', channel=6, note=60, velocity=68, time=36),
    Message('note_on', channel=6, note=55, velocity=58, time=0),
    Message('note_on', channel=6, note=64, velocity=73, time=0),
    Message('note_on', channel=6, note=60, velocity=0, time=30),
    Message('note_on', channel=6, note=55, velocity=0, time=3),
    Message('note_on', channel=6, note=64, velocity=0, time=7),
    Message('note_on', channel=6, note=55, velocity=80, time=80),
    Message('note_on', channel=6, note=60, velocity=91, time=0),
    Message('note_on', channel=6, note=48, velocity=92, time=0),
    Message('note_on', channel=6, note=64, velocity=87, time=0),
    Message('note_on', channel=6, note=60, velocity=0, time=32),
    Message('note_on', channel=6, note=55, velocity=0, time=1),
    Message('note_on', channel=6, note=64, velocity=0, time=7),
    Message('note_on', channel=6, note=48, velocity=0, time=1),
    Message('note_on', channel=6, note=55, velocity=38, time=79),
    Message('note_on', channel=6, note=60, velocity=53, time=0),
    Message('note_on', channel=6, note=64, velocity=66, time=0),
    Message('note_on', channel=6, note=60, velocity=0, time=16),
    Message('note_on', channel=6, note=55, velocity=0, time=1),
    Message('note_on', channel=6, note=64, velocity=0, time=12),
    Message('note_on', channel=6, note=60, velocity=76, time=31),
    Message('note_on', channel=6, note=55, velocity=65, time=0),
    Message('note_on', channel=6, note=64, velocity=81, time=0),
    Message('note_on', channel=6, note=60, velocity=0, time=18),
    Message('note_on', channel=6, note=55, velocity=0, time=9),
    Message('note_on', channel=6, note=64, velocity=0, time=2),
    Message('note_on', channel=6, note=48, velocity=98, time=31),
    Message('note_on', channel=6, note=55, velocity=73, time=0),
    Message('note_on', channel=6, note=60, velocity=91, time=0),
    Message('note_on', channel=6, note=64, velocity=84, time=0),
    Message('note_on', channel=6, note=55, velocity=0, time=30),
    Message('note_on', channel=6, note=48, velocity=0, time=3),
    Message('note_on', channel=6, note=60, velocity=0, time=1),
    Message('note_on', channel=6, note=64, velocity=0, time=3),
    Message('note_on', channel=6, note=60, velocity=101, time=83),
    Message('note_on', channel=6, note=55, velocity=91, time=0),
    Message('note_on', channel=6, note=64, velocity=98, time=0),
    Message('note_on', channel=6, note=55, velocity=0, time=28),
    Message('note_on', channel=6, note=60, velocity=0, time=1),
    Message('note_on', channel=6, note=64, velocity=0, time=7),
    Message('note_on', channel=6, note=55, velocity=69, time=84),
    Message('note_on', channel=6, note=60, velocity=81, time=0),
    Message('note_on', channel=6, note=64, velocity=78, time=0),
    Message('note_on', channel=6, note=60, velocity=0, time=34),
    Message('note_on', channel=6, note=55, velocity=0, time=1),
    Message('note_on', channel=6, note=64, velocity=0, time=5),
    Message('note_on', channel=6, note=48, velocity=98, time=20),
    Message('note_on', channel=6, note=48, velocity=0, time=32),
    Message('note_on', channel=6, note=60, velocity=91, time=28),
    Message('note_on', channel=6, note=55, velocity=78, time=0),
    Message('note_on', channel=6, note=64, velocity=87, time=0),
    Message('note_on', channel=6, note=60, velocity=0, time=28),
    Message('note_on', channel=6, note=55, velocity=0, time=1),
    Message('note_on', channel=6, note=64, velocity=0, time=6),
    Message('note_on', channel=6, note=60, velocity=95, time=85),
    Message('note_on', channel=6, note=55, velocity=92, time=0),
    Message('note_on', channel=6, note=64, velocity=98, time=0),
    Message('note_on', channel=6, note=55, velocity=0, time=35),
    Message('note_on', channel=6, note=60, velocity=0, time=1),
    Message('note_on', channel=6, note=64, velocity=0, time=11),
    Message('note_on', channel=6, note=48, velocity=66, time=73),
    Message('note_on', channel=6, note=55, velocity=78, time=0),
    Message('note_on', channel=6, note=60, velocity=92, time=0),
    Message('note_on', channel=6, note=64, velocity=89, time=0),
    Message('note_on', channel=6, note=48, velocity=0, time=25),
    Message('note_on', channel=6, note=60, velocity=0, time=8),
    Message('note_on', channel=6, note=55, velocity=0, time=1),
    Message('note_on', channel=6, note=64, velocity=0, time=8),
    Message('control_change', channel=6, control=64, value=0, time=65),
    Message('note_on', channel=6, note=50, velocity=98, time=13),
    Message('note_on', channel=6, note=62, velocity=97, time=0),
    Message('note_on', channel=6, note=55, velocity=91, time=0),
    Message('note_on', channel=6, note=59, velocity=95, time=0),
    Message('note_on', channel=6, note=50, velocity=0, time=36),
    Message('control_change', channel=6, control=64, value=127, time=12),
    Message('note_on', channel=6, note=55, velocity=0, time=16),
    Message('note_on', channel=6, note=59, velocity=0, time=4),
    Message('note_on', channel=6, note=62, velocity=0, time=4),
    Message('note_on', channel=6, note=55, velocity=55, time=48),
    Message('note_on', channel=6, note=59, velocity=63, time=0),
    Message('note_on', channel=6, note=62, velocity=71, time=0),
    Message('note_on', channel=6, note=59, velocity=0, time=26),
    Message('note_on', channel=6, note=55, velocity=0, time=1),
    Message('note_on', channel=6, note=62, velocity=0, time=4),
    Message('note_on', channel=6, note=59, velocity=91, time=89),
    Message('note_on', channel=6, note=55, velocity=89, time=0),
    Message('note_on', channel=6, note=62, velocity=97, time=0),
    Message('note_on', channel=6, note=59, velocity=0, time=36),
    Message('note_on', channel=6, note=55, velocity=0, time=3),
    Message('note_on', channel=6, note=62, velocity=0, time=3),
    Message('note_on', channel=6, note=55, velocity=57, time=78),
    Message('note_on', channel=6, note=59, velocity=66, time=0),
    Message('note_on', channel=6, note=62, velocity=81, time=0),
    Message('note_on', channel=6, note=59, velocity=0, time=24),
    Message('note_on', channel=6, note=55, velocity=0, time=1),
    Message('note_on', channel=6, note=62, velocity=0, time=7),
    Message('note_on', channel=6, note=43, velocity=74, time=28),
    Message('note_on', channel=6, note=43, velocity=0, time=29),
    Message('note_on', channel=6, note=55, velocity=74, time=31),
    Message('note_on', channel=6, note=59, velocity=85, time=0),
    Message('note_on', channel=6, note=62, velocity=87, time=0),
    Message('note_on', channel=6, note=59, velocity=0, time=26),
    Message('note_on', channel=6, note=55, velocity=0, time=2),
    Message('note_on', channel=6, note=62, velocity=0, time=7),
    Message('note_on', channel=6, note=62, velocity=63, time=85),
    Message('note_on', channel=6, note=62, velocity=0, time=39),
    Message('note_on', channel=6, note=43, velocity=87, time=21),
    Message('note_on', channel=6, note=43, velocity=0, time=33),
    Message('note_on', channel=6, note=55, velocity=87, time=27),
    Message('note_on', channel=6, note=59, velocity=89, time=0),
    Message('note_on', channel=6, note=62, velocity=97, time=0),
    Message('note_on', channel=6, note=55, velocity=0, time=29),
    Message('note_on', channel=6, note=59, velocity=0, time=3),
    Message('note_on', channel=6, note=62, velocity=0, time=7),
    Message('note_on', channel=6, note=59, velocity=63, time=81),
    Message('note_on', channel=6, note=55, velocity=61, time=0),
    Message('note_on', channel=6, note=62, velocity=80, time=0),
    Message('note_on', channel=6, note=59, velocity=0, time=22),
    Message('note_on', channel=6, note=55, velocity=0, time=4),
    Message('note_on', channel=6, note=62, velocity=0, time=4),
    Message('note_on', channel=6, note=43, velocity=69, time=30),
    Message('note_on', channel=6, note=43, velocity=0, time=33),
    Message('note_on', channel=6, note=59, velocity=95, time=27),
    Message('note_on', channel=6, note=55, velocity=87, time=0),
    Message('note_on', channel=6, note=62, velocity=97, time=0),
    Message('note_on', channel=6, note=59, velocity=0, time=27),
    Message('note_on', channel=6, note=55, velocity=0, time=2),
    Message('note_on', channel=6, note=62, velocity=0, time=6),
    Message('note_on', channel=6, note=59, velocity=87, time=85),
    Message('note_on', channel=6, note=55, velocity=73, time=0),
    Message('note_on', channel=6, note=62, velocity=87, time=0),
    Message('note_on', channel=6, note=59, velocity=0, time=25),
    Message('note_on', channel=6, note=55, velocity=0, time=5),
    Message('note_on', channel=6, note=62, velocity=0, time=2),
    Message('note_on', channel=6, note=55, velocity=62, time=88),
    Message('note_on', channel=6, note=59, velocity=69, time=0),
    Message('note_on', channel=6, note=62, velocity=84, time=0),
    Message('note_on', channel=6, note=59, velocity=0, time=24),
    Message('note_on', channel=6, note=55, velocity=0, time=5),
    Message('note_on', channel=6, note=62, velocity=0, time=3),
    Message('note_on', channel=6, note=43, velocity=76, time=28),
    Message('note_on', channel=6, note=43, velocity=0, time=31),
    Message('note_on', channel=6, note=55, velocity=68, time=29),
    Message('note_on', channel=6, note=59, velocity=78, time=0),
    Message('note_on', channel=6, note=62, velocity=81, time=0),
    Message('note_on', channel=6, note=59, velocity=0, time=33),
    Message('note_on', channel=6, note=55, velocity=0, time=1),
    Message('note_on', channel=6, note=62, velocity=0, time=4),
    Message('note_on', channel=6, note=59, velocity=95, time=82),
    Message('note_on', channel=6, note=55, velocity=87, time=0),
    Message('note_on', channel=6, note=62, velocity=97, time=0),
    Message('note_on', channel=6, note=55, velocity=0, time=37),
    Message('note_on', channel=6, note=59, velocity=0, time=4),
    Message('note_on', channel=6, note=62, velocity=0, time=4),
    Message('note_on', channel=6, note=43, velocity=66, time=15),
    Message('note_on', channel=6, note=43, velocity=0, time=27),
    Message('note_on', channel=6, note=55, velocity=68, time=33),
    Message('note_on', channel=6, note=59, velocity=78, time=0),
    Message('note_on', channel=6, note=62, velocity=84, time=0),
    Message('note_on', channel=6, note=55, velocity=0, time=39),
    Message('note_on', channel=6, note=59, velocity=0, time=2),
    Message('note_on', channel=6, note=62, velocity=0, time=4),
    Message('note_on', channel=6, note=55, velocity=95, time=75),
    Message('note_on', channel=6, note=59, velocity=102, time=0),
    Message('note_on', channel=6, note=62, velocity=98, time=0),
    Message('note_on', channel=6, note=55, velocity=0, time=35),
    Message('note_on', channel=6, note=59, velocity=0, time=9),
    Message('note_on', channel=6, note=62, velocity=0, time=12),
    Message('note_on', channel=6, note=62, velocity=81, time=64),
    Message('note_on', channel=6, note=59, velocity=85, time=0),
    Message('note_on', channel=6, note=55, velocity=84, time=0),
    Message('note_on', channel=6, note=62, velocity=0, time=36),
    Message('note_on', channel=6, note=59, velocity=0, time=2),
    Message('note_on', channel=6, note=55, velocity=0, time=3),
    Message('control_change', channel=6, control=64, value=0, time=60),
    Message('note_on', channel=6, note=55, velocity=87, time=19),
    Message('note_on', channel=6, note=48, velocity=91, time=0),
    Message('note_on', channel=6, note=64, velocity=92, time=0),
    Message('note_on', channel=6, note=60, velocity=95, time=0),
    Message('control_change', channel=6, control=64, value=127, time=47),
    Message('note_on', channel=6, note=55, velocity=0, time=15),
    Message('note_on', channel=6, note=60, velocity=0, time=5),
    Message('note_on', channel=6, note=64, velocity=0, time=10),
    Message('note_on', channel=6, note=48, velocity=0, time=28),
    Message('note_on', channel=6, note=60, velocity=65, time=15),
    Message('note_on', channel=6, note=55, velocity=57, time=0),
    Message('note_on', channel=6, note=64, velocity=71, time=0),
    Message('note_on', channel=6, note=60, velocity=0, time=35),
    Message('note_on', channel=6, note=55, velocity=0, time=3),
    Message('note_on', channel=6, note=64, velocity=0, time=8),
    Message('note_on', channel=6, note=48, velocity=84, time=14),
    Message('note_on', channel=6, note=48, velocity=0, time=34),
    Message('note_on', channel=6, note=64, velocity=87, time=26),
    Message('note_on', channel=6, note=55, velocity=89, time=0),
    Message('note_on', channel=6, note=60, velocity=101, time=0),
    Message('note_on', channel=6, note=55, velocity=0, time=35),
    Message('note_on', channel=6, note=64, velocity=0, time=6),
    Message('note_on', channel=6, note=60, velocity=0, time=3),
    Message('note_on', channel=6, note=60, velocity=98, time=76),
    Message('note_on', channel=6, note=55, velocity=87, time=0),
    Message('note_on', channel=6, note=64, velocity=95, time=0),
    Message('note_on', channel=6, note=55, velocity=0, time=32),
    Message('note_on', channel=6, note=60, velocity=0, time=1),
    Message('note_on', channel=6, note=64, velocity=0, time=5),
    Message('note_on', channel=6, note=55, velocity=64, time=82),
    Message('note_on', channel=6, note=64, velocity=71, time=0),
    Message('note_on', channel=6, note=60, velocity=76, time=0),
    Message('note_on', channel=6, note=60, velocity=0, time=28),
    Message('note_on', channel=6, note=55, velocity=0, time=4),
    Message('note_on', channel=6, note=64, velocity=0, time=1),
    Message('note_on', channel=6, note=48, velocity=66, time=27),
    Message('note_on', channel=6, note=48, velocity=0, time=22),
    Message('note_on', channel=6, note=60, velocity=80, time=38),
    Message('note_on', channel=6, note=64, velocity=84, time=0),
    Message('note_on', channel=6, note=55, velocity=73, time=0),
    Message('note_on', channel=6, note=60, velocity=0, time=22),
    Message('note_on', channel=6, note=55, velocity=0, time=8),
    Message('note_on', channel=6, note=64, velocity=0, time=2),
    Message('note_on', channel=6, note=48, velocity=55, time=88),
    Message('note_on', channel=6, note=60, velocity=98, time=0),
    Message('note_on', channel=6, note=55, velocity=87, time=0),
    Message('note_on', channel=6, note=64, velocity=97, time=0),
    Message('note_on', channel=6, note=48, velocity=0, time=26),
    Message('note_on', channel=6, note=55, velocity=0, time=5),
    Message('note_on', channel=6, note=60, velocity=0, time=1),
    Message('note_on', channel=6, note=64, velocity=0, time=8),
    Message('note_on', channel=6, note=60, velocity=68, time=80),
    Message('note_on', channel=6, note=55, velocity=58, time=0),
    Message('note_on', channel=6, note=64, velocity=73, time=0),
    Message('note_on', channel=6, note=60, velocity=0, time=30),
    Message('note_on', channel=6, note=55, velocity=0, time=4),
    Message('note_on', channel=6, note=64, velocity=0, time=5),
    Message('note_on', channel=6, note=48, velocity=45, time=21),
    Message('note_on', channel=6, note=48, velocity=0, time=28),
    Message('note_on', channel=6, note=55, velocity=89, time=32),
    Message('note_on', channel=6, note=60, velocity=98, time=0),
    Message('note_on', channel=6, note=64, velocity=97, time=0),
    Message('note_on', channel=6, note=60, velocity=0, time=31),
    Message('note_on', channel=6, note=55, velocity=0, time=0),
    Message('note_on', channel=6, note=64, velocity=0, time=8),
    Message('note_on', channel=6, note=55, velocity=47, time=81),
    Message('note_on', channel=6, note=60, velocity=60, time=0),
    Message('note_on', channel=6, note=64, velocity=63, time=0),
    Message('note_on', channel=6, note=60, velocity=0, time=19),
    Message('note_on', channel=6, note=55, velocity=0, time=2),
    Message('note_on', channel=6, note=64, velocity=0, time=1),
    Message('note_on', channel=6, note=48, velocity=63, time=38),
    Message('note_on', channel=6, note=48, velocity=0, time=27),
    Message('note_on', channel=6, note=60, velocity=101, time=33),
    Message('note_on', channel=6, note=55, velocity=95, time=0),
    Message('note_on', channel=6, note=64, velocity=97, time=0),
    Message('note_on', channel=6, note=60, velocity=0, time=28),
    Message('note_on', channel=6, note=55, velocity=0, time=1),
    Message('note_on', channel=6, note=64, velocity=0, time=7),
    Message('note_on', channel=6, note=60, velocity=102, time=84),
    Message('note_on', channel=6, note=64, velocity=98, time=0),
    Message('note_on', channel=6, note=55, velocity=95, time=0),
    Message('note_on', channel=6, note=60, velocity=0, time=29),
    Message('note_on', channel=6, note=55, velocity=0, time=1),
    Message('note_on', channel=6, note=64, velocity=0, time=4),
    Message('note_on', channel=6, note=55, velocity=39, time=86),
    Message('note_on', channel=6, note=55, velocity=0, time=19),
    Message('note_on', channel=6, note=48, velocity=81, time=41),
    Message('note_on', channel=6, note=48, velocity=0, time=24),
    Message('note_on', channel=6, note=55, velocity=78, time=36),
    Message('note_on', channel=6, note=60, velocity=92, time=0),
    Message('note_on', channel=6, note=64, velocity=85, time=0),
    Message('note_on', channel=6, note=60, velocity=0, time=32),
    Message('note_on', channel=6, note=55, velocity=0, time=1),
    Message('note_on', channel=6, note=64, velocity=0, time=4),
    Message('note_on', channel=6, note=60, velocity=101, time=83),
    Message('note_on', channel=6, note=64, velocity=101, time=0),
    Message('note_on', channel=6, note=55, velocity=95, time=0),
    Message('note_on', channel=6, note=48, velocity=81, time=0),
    Message('note_on', channel=6, note=48, velocity=0, time=34),
    Message('note_on', channel=6, note=55, velocity=0, time=2),
    Message('note_on', channel=6, note=60, velocity=0, time=4),
    Message('note_on', channel=6, note=64, velocity=0, time=5),
    Message('note_on', channel=6, note=60, velocity=55, time=75),
    Message('note_on', channel=6, note=55, velocity=81, time=0),
    Message('note_on', channel=6, note=64, velocity=81, time=0),
    Message('note_on', channel=6, note=60, velocity=0, time=12),
    Message('note_on', channel=6, note=64, velocity=0, time=23),
    Message('note_on', channel=6, note=55, velocity=0, time=15),
    Message('control_change', channel=6, control=64, value=0, time=54),
    Message('note_on', channel=6, note=59, velocity=81, time=16),
    Message('note_on', channel=6, note=55, velocity=84, time=0),
    Message('note_on', channel=6, note=62, velocity=87, time=0),
    Message('note_on', channel=6, note=43, velocity=81, time=0),
    Message('note_on', channel=6, note=59, velocity=0, time=44),
    Message('control_change', channel=6, control=64, value=127, time=8),
    Message('note_on', channel=6, note=55, velocity=0, time=1),
    Message('note_on', channel=6, note=62, velocity=0, time=5),
    Message('note_on', channel=6, note=43, velocity=0, time=34),
    Message('note_on', channel=6, note=55, velocity=43, time=28),
    Message('note_on', channel=6, note=62, velocity=46, time=0),
    Message('note_on', channel=6, note=59, velocity=51, time=0),
    Message('note_on', channel=6, note=62, velocity=0, time=25),
    Message('note_on', channel=6, note=59, velocity=0, time=1),
    Message('note_on', channel=6, note=55, velocity=0, time=4),
    Message('note_on', channel=6, note=43, velocity=69, time=30),
    Message('note_on', channel=6, note=43, velocity=0, time=35),
    Message('note_on', channel=6, note=59, velocity=98, time=25),
    Message('note_on', channel=6, note=55, velocity=89, time=0),
    Message('note_on', channel=6, note=62, velocity=98, time=0),
    Message('note_on', channel=6, note=59, velocity=0, time=33),
    Message('note_on', channel=6, note=55, velocity=0, time=5),
    Message('note_on', channel=6, note=62, velocity=0, time=5),
    Message('note_on', channel=6, note=59, velocity=73, time=77),
    Message('note_on', channel=6, note=62, velocity=78, time=0),
    Message('note_on', channel=6, note=55, velocity=71, time=0),
    Message('note_on', channel=6, note=59, velocity=0, time=30),
    Message('note_on', channel=6, note=62, velocity=0, time=4),
    Message('note_on', channel=6, note=55, velocity=0, time=2),
    Message('note_on', channel=6, note=43, velocity=68, time=24),
    Message('note_on', channel=6, note=43, velocity=0, time=30),
    Message('note_on', channel=6, note=55, velocity=89, time=30),
    Message('note_on', channel=6, note=59, velocity=92, time=0),
    Message('note_on', channel=6, note=62, velocity=95, time=0),
    Message('note_on', channel=6, note=55, velocity=0, time=37),
    Message('note_on', channel=6, note=59, velocity=0, time=1),
    Message('note_on', channel=6, note=62, velocity=0, time=3),
    Message('note_on', channel=6, note=55, velocity=50, time=79),
    Message('note_on', channel=6, note=62, velocity=51, time=0),
    Message('note_on', channel=6, note=59, velocity=52, time=0),
    Message('note_on', channel=6, note=59, velocity=0, time=30),
    Message('note_on', channel=6, note=55, velocity=0, time=2),
    Message('note_on', channel=6, note=62, velocity=0, time=2),
    Message('note_on', channel=6, note=43, velocity=71, time=26),
    Message('note_on', channel=6, note=43, velocity=0, time=36),
    Message('note_on', channel=6, note=59, velocity=97, time=24),
    Message('note_on', channel=6, note=55, velocity=91, time=0),
    Message('note_on', channel=6, note=62, velocity=95, time=0),
    Message('note_on', channel=6, note=55, velocity=0, time=37),
    Message('note_on', channel=6, note=59, velocity=0, time=2),
    Message('note_on', channel=6, note=62, velocity=0, time=5),
    Message('note_on', channel=6, note=62, velocity=87, time=76),
    Message('note_on', channel=6, note=59, velocity=84, time=0),
    Message('note_on', channel=6, note=55, velocity=87, time=0),
    Message('note_on', channel=6, note=55, velocity=0, time=37),
    Message('note_on', channel=6, note=59, velocity=0, time=0),
    Message('note_on', channel=6, note=62, velocity=0, time=0),
    Message('note_on', channel=6, note=62, velocity=95, time=83),
    Message('note_on', channel=6, note=55, velocity=91, time=0),
    Message('note_on', channel=6, note=59, velocity=95, time=0),
    Message('note_on', channel=6, note=43, velocity=81, time=0),
    Message('note_on', channel=6, note=59, velocity=0, time=37),
    Message('note_on', channel=6, note=55, velocity=0, time=0),
    Message('note_on', channel=6, note=62, velocity=0, time=2),
    Message('note_on', channel=6, note=43, velocity=0, time=5),
    Message('note_on', channel=6, note=59, velocity=62, time=76),
    Message('note_on', channel=6, note=55, velocity=57, time=0),
    Message('note_on', channel=6, note=62, velocity=71, time=0),
    Message('note_on', channel=6, note=59, velocity=0, time=31),
    Message('note_on', channel=6, note=62, velocity=0, time=4),
    Message('note_on', channel=6, note=55, velocity=0, time=2),
    Message('note_on', channel=6, note=43, velocity=76, time=23),
    Message('note_on', channel=6, note=43, velocity=0, time=40),
    Message('note_on', channel=6, note=59, velocity=98, time=20),
    Message('note_on', channel=6, note=55, velocity=89, time=0),
    Message('note_on', channel=6, note=62, velocity=95, time=0),
    Message('note_on', channel=6, note=59, velocity=0, time=35),
    Message('note_on', channel=6, note=55, velocity=0, time=2),
    Message('note_on', channel=6, note=62, velocity=0, time=2),
    Message('note_on', channel=6, note=59, velocity=74, time=81),
    Message('note_on', channel=6, note=55, velocity=68, time=0),
    Message('note_on', channel=6, note=62, velocity=85, time=0),
    Message('note_on', channel=6, note=59, velocity=0, time=32),
    Message('note_on', channel=6, note=55, velocity=0, time=4),
    Message('note_on', channel=6, note=62, velocity=0, time=5),
    Message('note_on', channel=6, note=43, velocity=80, time=19),
    Message('note_on', channel=6, note=43, velocity=0, time=37),
    Message('note_on', channel=6, note=59, velocity=84, time=23),
    Message('note_on', channel=6, note=55, velocity=80, time=0),
    Message('note_on', channel=6, note=62, velocity=91, time=0),
    Message('note_on', channel=6, note=59, velocity=0, time=33),
    Message('note_on', channel=6, note=55, velocity=0, time=2),
    Message('note_on', channel=6, note=62, velocity=0, time=7),
    Message('note_on', channel=6, note=43, velocity=81, time=18),
    Message('note_on', channel=6, note=43, velocity=0, time=38),
    Message('note_on', channel=6, note=55, velocity=76, time=22),
    Message('note_on', channel=6, note=59, velocity=87, time=0),
    Message('note_on', channel=6, note=62, velocity=89, time=0),
    Message('note_on', channel=6, note=55, velocity=0, time=40),
    Message('note_on', channel=6, note=59, velocity=0, time=1),
    Message('note_on', channel=6, note=62, velocity=0, time=4),
    Message('note_on', channel=6, note=43, velocity=101, time=15),
    Message('note_on', channel=6, note=43, velocity=0, time=44),
    Message('note_on', channel=6, note=59, velocity=98, time=16),
    Message('note_on', channel=6, note=55, velocity=95, time=0),
    Message('note_on', channel=6, note=62, velocity=98, time=0),
    Message('note_on', channel=6, note=55, velocity=0, time=43),
    Message('note_on', channel=6, note=59, velocity=0, time=5),
    Message('note_on', channel=6, note=62, velocity=0, time=7),
    Message('note_on', channel=6, note=55, velocity=89, time=65),
    Message('note_on', channel=6, note=62, velocity=97, time=0),
    Message('note_on', channel=6, note=59, velocity=95, time=0),
    Message('note_on', channel=6, note=55, velocity=0, time=33),
    Message('note_on', channel=6, note=59, velocity=0, time=7),
    Message('note_on', channel=6, note=62, velocity=0, time=3),
    Message('control_change', channel=6, control=64, value=0, time=50),
    Message('note_on', channel=6, note=64, velocity=97, time=27),
    Message('note_on', channel=6, note=48, velocity=92, time=0),
    Message('note_on', channel=6, note=60, velocity=97, time=0),
    Message('note_on', channel=6, note=55, velocity=85, time=0),
    Message('control_change', channel=6, control=64, value=127, time=56),
    Message('note_on', channel=6, note=55, velocity=0, time=20),
    Message('note_on', channel=6, note=60, velocity=0, time=0),
    Message('note_on', channel=6, note=64, velocity=0, time=1),
    Message('note_on', channel=6, note=48, velocity=0, time=35),
    Message('note_on', channel=6, note=60, velocity=60, time=8),
    Message('note_on', channel=6, note=55, velocity=57, time=0),
    Message('note_on', channel=6, note=64, velocity=60, time=0),
    Message('note_on', channel=6, note=60, velocity=0, time=28),
    Message('note_on', channel=6, note=55, velocity=0, time=7),
    Message('note_on', channel=6, note=64, velocity=0, time=3),
    Message('note_on', channel=6, note=48, velocity=81, time=22),
    Message('note_on', channel=6, note=48, velocity=0, time=33),
    Message('note_on', channel=6, note=60, velocity=97, time=27),
    Message('note_on', channel=6, note=55, velocity=78, time=0),
    Message('note_on', channel=6, note=64, velocity=91, time=0),
    Message('note_on', channel=6, note=55, velocity=0, time=33),
    Message('note_on', channel=6, note=60, velocity=0, time=2),
    Message('note_on', channel=6, note=64, velocity=0, time=5),
    Message('note_on', channel=6, note=60, velocity=95, time=80),
    Message('note_on', channel=6, note=55, velocity=91, time=0),
    Message('note_on', channel=6, note=64, velocity=95, time=0),
    Message('note_on', channel=6, note=55, velocity=0, time=32),
    Message('note_on', channel=6, note=60, velocity=0, time=2),
    Message('note_on', channel=6, note=64, velocity=0, time=3),
    Message('note_on', channel=6, note=60, velocity=84, time=83),
    Message('note_on', channel=6, note=55, velocity=71, time=0),
    Message('note_on', channel=6, note=64, velocity=87, time=0),
    Message('note_on', channel=6, note=60, velocity=0, time=31),
    Message('note_on', channel=6, note=55, velocity=0, time=4),
    Message('note_on', channel=6, note=64, velocity=0, time=4),
    Message('note_on', channel=6, note=48, velocity=81, time=21),
    Message('note_on', channel=6, note=48, velocity=0, time=27),
    Message('note_on', channel=6, note=55, velocity=69, time=33),
    Message('note_on', channel=6, note=60, velocity=92, time=0),
    Message('note_on', channel=6, note=64, velocity=87, time=0),
    Message('note_on', channel=6, note=55, velocity=0, time=31),
    Message('note_on', channel=6, note=60, velocity=0, time=2),
    Message('note_on', channel=6, note=64, velocity=0, time=5),
    Message('note_on', channel=6, note=64, velocity=92, time=82),
    Message('note_on', channel=6, note=60, velocity=95, time=0),
    Message('note_on', channel=6, note=55, velocity=91, time=0),
    Message('note_on', channel=6, note=48, velocity=89, time=0),
    Message('note_on', channel=6, note=55, velocity=0, time=33),
    Message('note_on', channel=6, note=60, velocity=0, time=0),
    Message('note_on', channel=6, note=48, velocity=0, time=2),
    Message('note_on', channel=6, note=64, velocity=0, time=2),
    Message('note_on', channel=6, note=55, velocity=66, time=83),
    Message('note_on', channel=6, note=60, velocity=81, time=0),
    Message('note_on', channel=6, note=64, velocity=84, time=0),
    Message('note_on', channel=6, note=60, velocity=0, time=33),
    Message('note_on', channel=6, note=55, velocity=0, time=1),
    Message('note_on', channel=6, note=64, velocity=0, time=7),
    Message('note_on', channel=6, note=48, velocity=69, time=19),
    Message('note_on', channel=6, note=48, velocity=0, time=32),
    Message('note_on', channel=6, note=60, velocity=98, time=28),
    Message('note_on', channel=6, note=55, velocity=84, time=0),
    Message('note_on', channel=6, note=64, velocity=97, time=0),
    Message('note_on', channel=6, note=55, velocity=0, time=32),
    Message('note_on', channel=6, note=60, velocity=0, time=1),
    Message('note_on', channel=6, note=64, velocity=0, time=8),
    Message('note_on', channel=6, note=55, velocity=43, time=79),
    Message('note_on', channel=6, note=64, velocity=60, time=0),
    Message('note_on', channel=6, note=60, velocity=62, time=0),
    Message('note_on', channel=6, note=55, velocity=0, time=28),
    Message('note_on', channel=6, note=60, velocity=0, time=1),
    Message('note_on', channel=6, note=64, velocity=0, time=4),
    Message('note_on', channel=6, note=48, velocity=78, time=27),
    Message('note_on', channel=6, note=48, velocity=0, time=30),
    Message('note_on', channel=6, note=55, velocity=91, time=30),
    Message('note_on', channel=6, note=60, velocity=98, time=0),
    Message('note_on', channel=6, note=64, velocity=97, time=0),
    Message('note_on', channel=6, note=55, velocity=0, time=31),
    Message('note_on', channel=6, note=60, velocity=0, time=1),
    Message('note_on', channel=6, note=64, velocity=0, time=5),
    Message('note_on', channel=6, note=60, velocity=102, time=83),
    Message('note_on', channel=6, note=55, velocity=91, time=0),
    Message('note_on', channel=6, note=64, velocity=101, time=0),
    Message('note_on', channel=6, note=55, velocity=0, time=30),
    Message('note_on', channel=6, note=60, velocity=0, time=2),
    Message('note_on', channel=6, note=64, velocity=0, time=5),
    Message('note_on', channel=6, note=60, velocity=98, time=83),
    Message('note_on', channel=6, note=55, velocity=87, time=0),
    Message('note_on', channel=6, note=64, velocity=92, time=0),
    Message('note_on', channel=6, note=55, velocity=0, time=35),
    Message('note_on', channel=6, note=60, velocity=0, time=2),
    Message('note_on', channel=6, note=64, velocity=0, time=5),
    Message('note_on', channel=6, note=48, velocity=89, time=18),
    Message('note_on', channel=6, note=48, velocity=0, time=30),
    Message('note_on', channel=6, note=60, velocity=95, time=30),
    Message('note_on', channel=6, note=55, velocity=80, time=0),
    Message('note_on', channel=6, note=64, velocity=87, time=0),
    Message('note_on', channel=6, note=55, velocity=0, time=38),
    Message('note_on', channel=6, note=60, velocity=0, time=2),
    Message('note_on', channel=6, note=64, velocity=0, time=5),
    Message('note_on', channel=6, note=55, velocity=92, time=75),
    Message('note_on', channel=6, note=60, velocity=98, time=0),
    Message('note_on', channel=6, note=64, velocity=98, time=0),
    Message('note_on', channel=6, note=48, velocity=98, time=0),
    Message('note_on', channel=6, note=48, velocity=0, time=39),
    Message('note_on', channel=6, note=55, velocity=0, time=2),
    Message('note_on', channel=6, note=60, velocity=0, time=1),
    Message('note_on', channel=6, note=64, velocity=0, time=4),
    Message('note_on', channel=6, note=55, velocity=76, time=74),
    Message('note_on', channel=6, note=64, velocity=87, time=0),
    Message('note_on', channel=6, note=60, velocity=95, time=0),
    Message('note_on', channel=6, note=55, velocity=0, time=52),
    Message('note_on', channel=6, note=60, velocity=0, time=2),
    Message('note_on', channel=6, note=64, velocity=0, time=0),
    Message('control_change', channel=6, control=64, value=0, time=54),
    Message('note_on', channel=6, note=55, velocity=91, time=12),
    Message('note_on', channel=6, note=62, velocity=98, time=0),
    Message('note_on', channel=6, note=59, velocity=98, time=0),
    Message('note_on', channel=6, note=43, velocity=85, time=0),
    Message('control_change', channel=6, control=64, value=127, time=61),
    Message('note_on', channel=6, note=62, velocity=0, time=106),
    Message('note_on', channel=6, note=55, velocity=0, time=1),
    Message('note_on', channel=6, note=59, velocity=0, time=4),
    Message('note_on', channel=6, note=43, velocity=0, time=43),
    Message('note_on', channel=6, note=55, velocity=81, time=25),
    Message('note_on', channel=6, note=62, velocity=91, time=0),
    Message('note_on', channel=6, note=59, velocity=87, time=0),
    Message('note_on', channel=6, note=55, velocity=0, time=38),
    Message('note_on', channel=6, note=59, velocity=0, time=2),
    Message('note_on', channel=6, note=62, velocity=0, time=0),
    Message('note_on', channel=6, note=62, velocity=92, time=80),
    Message('note_on', channel=6, note=55, velocity=89, time=0),
    Message('note_on', channel=6, note=59, velocity=97, time=0),
    Message('note_on', channel=6, note=55, velocity=0, time=39),
    Message('note_on', channel=6, note=59, velocity=0, time=2),
    Message('note_on', channel=6, note=62, velocity=0, time=0),
    Message('note_on', channel=6, note=43, velocity=69, time=19),
    Message('note_on', channel=6, note=43, velocity=0, time=30),
    Message('note_on', channel=6, note=62, velocity=89, time=30),
    Message('note_on', channel=6, note=59, velocity=85, time=0),
    Message('note_on', channel=6, note=55, velocity=84, time=0),
    Message('note_on', channel=6, note=55, velocity=0, time=47),
    Message('note_on', channel=6, note=59, velocity=0, time=1),
    Message('note_on', channel=6, note=62, velocity=0, time=3),
    Message('note_on', channel=6, note=43, velocity=95, time=69),
    Message('note_on', channel=6, note=43, velocity=0, time=50),
    Message('note_on', channel=6, note=55, velocity=91, time=70),
    Message('note_on', channel=6, note=62, velocity=97, time=0),
    Message('note_on', channel=6, note=59, velocity=97, time=0),
    Message('note_on', channel=6, note=59, velocity=0, time=42),
    Message('note_on', channel=6, note=55, velocity=0, time=0),
    Message('note_on', channel=6, note=62, velocity=0, time=2),
    Message('note_on', channel=6, note=55, velocity=78, time=76),
    Message('note_on', channel=6, note=59, velocity=89, time=0),
    Message('note_on', channel=6, note=62, velocity=91, time=0),
    Message('note_on', channel=6, note=62, velocity=0, time=47),
    Message('note_on', channel=6, note=59, velocity=0, time=1),
    Message('note_on', channel=6, note=55, velocity=0, time=2),
    Message('control_change', channel=6, control=64, value=0, time=65),
    Message('note_on', channel=6, note=53, velocity=92, time=5),
    Message('note_on', channel=6, note=60, velocity=97, time=0),
    Message('note_on', channel=6, note=57, velocity=98, time=0),
    Message('note_on', channel=6, note=41, velocity=85, time=0),
    Message('note_on', channel=6, note=41, velocity=0, time=51),
    Message('control_change', channel=6, control=64, value=127, time=2),
    Message('note_on', channel=6, note=53, velocity=0, time=11),
    Message('note_on', channel=6, note=57, velocity=0, time=4),
    Message('note_on', channel=6, note=60, velocity=0, time=0),
    Message('note_on', channel=6, note=60, velocity=68, time=52),
    Message('note_on', channel=6, note=57, velocity=66, time=0),
    Message('note_on', channel=6, note=53, velocity=60, time=0),
    Message('note_on', channel=6, note=60, velocity=0, time=31),
    Message('note_on', channel=6, note=57, velocity=0, time=2),
    Message('note_on', channel=6, note=53, velocity=0, time=3),
    Message('note_on', channel=6, note=41, velocity=80, time=24),
    Message('note_on', channel=6, note=41, velocity=0, time=29),
    Message('note_on', channel=6, note=53, velocity=85, time=31),
    Message('note_on', channel=6, note=57, velocity=101, time=0),
    Message('note_on', channel=6, note=60, velocity=97, time=0),
    Message('note_on', channel=6, note=57, velocity=0, time=36),
    Message('note_on', channel=6, note=53, velocity=0, time=1),
    Message('note_on', channel=6, note=60, velocity=0, time=3),
    Message('note_on', channel=6, note=53, velocity=56, time=80),
    Message('note_on', channel=6, note=60, velocity=66, time=0),
    Message('note_on', channel=6, note=57, velocity=66, time=0),
    Message('note_on', channel=6, note=60, velocity=0, time=36),
    Message('note_on', channel=6, note=57, velocity=0, time=1),
    Message('note_on', channel=6, note=53, velocity=0, time=0),
    Message('note_on', channel=6, note=41, velocity=68, time=23),
    Message('note_on', channel=6, note=41, velocity=0, time=39),
    Message('note_on', channel=6, note=60, velocity=95, time=21),
    Message('note_on', channel=6, note=57, velocity=92, time=0),
    Message('note_on', channel=6, note=53, velocity=85, time=0),
    Message('note_on', channel=6, note=57, velocity=0, time=46),
    Message('note_on', channel=6, note=60, velocity=0, time=0),
    Message('note_on', channel=6, note=53, velocity=0, time=4),
    Message('note_on', channel=6, note=60, velocity=87, time=70),
    Message('note_on', channel=6, note=57, velocity=81, time=0),
    Message('note_on', channel=6, note=53, velocity=81, time=0),
    Message('note_on', channel=6, note=60, velocity=0, time=40),
    Message('note_on', channel=6, note=57, velocity=0, time=1),
    Message('note_on', channel=6, note=53, velocity=0, time=3),
    Message('note_on', channel=6, note=60, velocity=92, time=76),
    Message('note_on', channel=6, note=57, velocity=95, time=0),
    Message('note_on', channel=6, note=53, velocity=87, time=0),
    Message('note_on', channel=6, note=57, velocity=0, time=43),
    Message('note_on', channel=6, note=60, velocity=0, time=1),
    Message('note_on', channel=6, note=53, velocity=0, time=5),
    Message('note_on', channel=6, note=57, velocity=84, time=71),
    Message('note_on', channel=6, note=60, velocity=85, time=0),
    Message('note_on', channel=6, note=53, velocity=81, time=0),
    Message('note_on', channel=6, note=53, velocity=0, time=35),
    Message('note_on', channel=6, note=57, velocity=0, time=0),
    Message('note_on', channel=6, note=60, velocity=0, time=6),
    Message('control_change', channel=6, control=64, value=0, time=67),
    Message('note_on', channel=6, note=48, velocity=101, time=12),
    Message('control_change', channel=6, control=64, value=127, time=50),
    Message('note_on', channel=6, note=48, velocity=0, time=60),
    Message('note_on', channel=6, note=60, velocity=53, time=10),
    Message('note_on', channel=6, note=64, velocity=66, time=0),
    Message('note_on', channel=6, note=60, velocity=0, time=34),
    Message('note_on', channel=6, note=64, velocity=0, time=8),
    Message('note_on', channel=6, note=48, velocity=81, time=18),
    Message('note_on', channel=6, note=48, velocity=0, time=34),
    Message('note_on', channel=6, note=60, velocity=92, time=26),
    Message('note_on', channel=6, note=64, velocity=101, time=0),
    Message('note_on', channel=6, note=60, velocity=0, time=38),
    Message('note_on', channel=6, note=64, velocity=0, time=6),
    Message('note_on', channel=6, note=60, velocity=84, time=76),
    Message('note_on', channel=6, note=64, velocity=85, time=0),
    Message('note_on', channel=6, note=60, velocity=0, time=36),
    Message('note_on', channel=6, note=64, velocity=0, time=1),
    Message('note_on', channel=6, note=60, velocity=91, time=83),
    Message('note_on', channel=6, note=64, velocity=102, time=0),
    Message('note_on', channel=6, note=48, velocity=92, time=0),
    Message('note_on', channel=6, note=64, velocity=0, time=37),
    Message('note_on', channel=6, note=60, velocity=0, time=2),
    Message('note_on', channel=6, note=48, velocity=0, time=3),
    Message('note_on', channel=6, note=48, velocity=87, time=78),
    Message('note_on', channel=6, note=48, velocity=0, time=38),
    Message('note_on', channel=6, note=64, velocity=73, time=82),
    Message('note_on', channel=6, note=55, velocity=74, time=0),
    Message('note_on', channel=6, note=60, velocity=85, time=0),
    Message('note_on', channel=6, note=60, velocity=0, time=49),
    Message('note_on', channel=6, note=64, velocity=0, time=0),
    Message('note_on', channel=6, note=55, velocity=0, time=1),
    Message('note_on', channel=6, note=60, velocity=66, time=70),
    Message('note_on', channel=6, note=64, velocity=63, time=0),
    Message('note_on', channel=6, note=55, velocity=60, time=0),
    Message('note_on', channel=6, note=60, velocity=0, time=36),
    Message('note_on', channel=6, note=55, velocity=0, time=4),
    Message('note_on', channel=6, note=64, velocity=0, time=1),
    Message('note_on', channel=6, note=48, velocity=71, time=19),
    Message('note_on', channel=6, note=48, velocity=0, time=31),
    Message('note_on', channel=6, note=64, velocity=95, time=29),
    Message('note_on', channel=6, note=60, velocity=97, time=0),
    Message('note_on', channel=6, note=55, velocity=87, time=0),
    Message('note_on', channel=6, note=55, velocity=0, time=32),
    Message('note_on', channel=6, note=60, velocity=0, time=1),
    Message('note_on', channel=6, note=64, velocity=0, time=5),
    Message('note_on', channel=6, note=60, velocity=65, time=82),
    Message('note_on', channel=6, note=55, velocity=57, time=0),
    Message('note_on', channel=6, note=64, velocity=74, time=0),
    Message('note_on', channel=6, note=60, velocity=0, time=24),
    Message('note_on', channel=6, note=55, velocity=0, time=6),
    Message('note_on', channel=6, note=64, velocity=0, time=2),
    Message('note_on', channel=6, note=48, velocity=60, time=28),
    Message('note_on', channel=6, note=48, velocity=0, time=23),
    Message('note_on', channel=6, note=55, velocity=87, time=37),
    Message('note_on', channel=6, note=60, velocity=101, time=0),
    Message('note_on', channel=6, note=64, velocity=98, time=0),
    Message('note_on', channel=6, note=55, velocity=0, time=30),
    Message('note_on', channel=6, note=60, velocity=0, time=3),
    Message('note_on', channel=6, note=64, velocity=0, time=4),
    Message('note_on', channel=6, note=60, velocity=85, time=83),
    Message('note_on', channel=6, note=55, velocity=62, time=0),
    Message('note_on', channel=6, note=64, velocity=87, time=0),
    Message('note_on', channel=6, note=60, velocity=0, time=26),
    Message('note_on', channel=6, note=55, velocity=0, time=5),
    Message('note_on', channel=6, note=64, velocity=0, time=2),
    Message('note_on', channel=6, note=48, velocity=55, time=27),
    Message('note_on', channel=6, note=48, velocity=0, time=23),
    Message('note_on', channel=6, note=55, velocity=87, time=37),
    Message('note_on', channel=6, note=64, velocity=95, time=0),
    Message('note_on', channel=6, note=60, velocity=98, time=0),
    Message('note_on', channel=6, note=55, velocity=0, time=29),
    Message('note_on', channel=6, note=60, velocity=0, time=8),
    Message('note_on', channel=6, note=64, velocity=0, time=0),
    Message('note_on', channel=6, note=60, velocity=74, time=83),
    Message('note_on', channel=6, note=55, velocity=63, time=0),
    Message('note_on', channel=6, note=64, velocity=80, time=0),
    Message('note_on', channel=6, note=60, velocity=0, time=30),
    Message('note_on', channel=6, note=55, velocity=0, time=6),
    Message('note_on', channel=6, note=64, velocity=0, time=1),
    Message('note_on', channel=6, note=48, velocity=78, time=23),
    Message('note_on', channel=6, note=48, velocity=0, time=37),
    Message('note_on', channel=6, note=55, velocity=87, time=23),
    Message('note_on', channel=6, note=64, velocity=97, time=0),
    Message('note_on', channel=6, note=60, velocity=98, time=0),
    Message('note_on', channel=6, note=55, velocity=0, time=36),
    Message('note_on', channel=6, note=60, velocity=0, time=5),
    Message('note_on', channel=6, note=64, velocity=0, time=2),
    Message('note_on', channel=6, note=55, velocity=78, time=77),
    Message('note_on', channel=6, note=60, velocity=97, time=0),
    Message('note_on', channel=6, note=64, velocity=92, time=0),
    Message('note_on', channel=6, note=60, velocity=0, time=40),
    Message('note_on', channel=6, note=55, velocity=0, time=2),
    Message('note_on', channel=6, note=64, velocity=0, time=5),
    Message('control_change', channel=6, control=64, value=0, time=44),
    Message('note_on', channel=6, note=62, velocity=95, time=29),
    Message('note_on', channel=6, note=55, velocity=87, time=0),
    Message('note_on', channel=6, note=59, velocity=95, time=0),
    Message('note_on', channel=6, note=43, velocity=87, time=0),
    Message('control_change', channel=6, control=64, value=127, time=35),
    Message('note_on', channel=6, note=55, velocity=0, time=21),
    Message('note_on', channel=6, note=62, velocity=0, time=6),
    Message('note_on', channel=6, note=59, velocity=0, time=2),
    Message('note_on', channel=6, note=43, velocity=0, time=32),
    Message('note_on', channel=6, note=55, velocity=63, time=24),
    Message('note_on', channel=6, note=62, velocity=78, time=0),
    Message('note_on', channel=6, note=59, velocity=69, time=0),
    Message('note_on', channel=6, note=55, velocity=0, time=34),
    Message('note_on', channel=6, note=59, velocity=0, time=1),
    Message('note_on', channel=6, note=62, velocity=0, time=0),
    Message('note_on', channel=6, note=43, velocity=80, time=25),
    Message('note_on', channel=6, note=43, velocity=0, time=31),
    Message('note_on', channel=6, note=55, velocity=84, time=29),
    Message('note_on', channel=6, note=59, velocity=97, time=0),
    Message('note_on', channel=6, note=62, velocity=98, time=0),
    Message('note_on', channel=6, note=55, velocity=0, time=30),
    Message('note_on', channel=6, note=59, velocity=0, time=6),
    Message('note_on', channel=6, note=62, velocity=0, time=2),
    Message('note_on', channel=6, note=62, velocity=71, time=82),
    Message('note_on', channel=6, note=55, velocity=63, time=0),
    Message('note_on', channel=6, note=59, velocity=81, time=0),
    Message('note_on', channel=6, note=62, velocity=0, time=27),
    Message('note_on', channel=6, note=55, velocity=0, time=2),
    Message('note_on', channel=6, note=59, velocity=0, time=1),
    Message('note_on', channel=6, note=43, velocity=68, time=30),
    Message('note_on', channel=6, note=43, velocity=0, time=29),
    Message('note_on', channel=6, note=55, velocity=89, time=31),
    Message('note_on', channel=6, note=62, velocity=95, time=0),
    Message('note_on', channel=6, note=59, velocity=97, time=0),
    Message('note_on', channel=6, note=55, velocity=0, time=31),
    Message('note_on', channel=6, note=59, velocity=0, time=2),
    Message('note_on', channel=6, note=62, velocity=0, time=0),
    Message('note_on', channel=6, note=55, velocity=71, time=87),
    Message('note_on', channel=6, note=62, velocity=89, time=0),
    Message('note_on', channel=6, note=59, velocity=81, time=0),
    Message('note_on', channel=6, note=59, velocity=0, time=31),
    Message('note_on', channel=6, note=55, velocity=0, time=3),
    Message('note_on', channel=6, note=62, velocity=0, time=1),
    Message('note_on', channel=6, note=43, velocity=84, time=25),
    Message('note_on', channel=6, note=43, velocity=0, time=31),
    Message('note_on', channel=6, note=59, velocity=92, time=29),
    Message('note_on', channel=6, note=55, velocity=89, time=0),
    Message('note_on', channel=6, note=62, velocity=95, time=0),
    Message('note_on', channel=6, note=55, velocity=0, time=37),
    Message('note_on', channel=6, note=59, velocity=0, time=0),
    Message('note_on', channel=6, note=62, velocity=0, time=4),
    Message('note_on', channel=6, note=43, velocity=80, time=19),
    Message('note_on', channel=6, note=43, velocity=0, time=41),
    Message('note_on', channel=6, note=55, velocity=69, time=19),
    Message('note_on', channel=6, note=59, velocity=85, time=0),
    Message('note_on', channel=6, note=62, velocity=89, time=0),
    Message('note_on', channel=6, note=55, velocity=0, time=38),
    Message('note_on', channel=6, note=59, velocity=0, time=2),
    Message('note_on', channel=6, note=62, velocity=0, time=3),
    Message('control_change', channel=6, control=64, value=0, time=51),
    Message('note_on', channel=6, note=57, velocity=95, time=26),
    Message('note_on', channel=6, note=53, velocity=85, time=0),
    Message('note_on', channel=6, note=60, velocity=95, time=0),
    Message('note_on', channel=6, note=41, velocity=80, time=0),
    Message('control_change', channel=6, control=64, value=127, time=41),
    Message('note_on', channel=6, note=53, velocity=0, time=13),
    Message('note_on', channel=6, note=57, velocity=0, time=3),
    Message('note_on', channel=6, note=60, velocity=0, time=4),
    Message('note_on', channel=6, note=41, velocity=0, time=43),
    Message('note_on', channel=6, note=53, velocity=56, time=16),
    Message('note_on', channel=6, note=60, velocity=71, time=0),
    Message('note_on', channel=6, note=57, velocity=66, time=0),
    Message('note_on', channel=6, note=53, velocity=0, time=35),
    Message('note_on', channel=6, note=57, velocity=0, time=2),
    Message('note_on', channel=6, note=60, velocity=0, time=0),
    Message('note_on', channel=6, note=41, velocity=81, time=23),
    Message('note_on', channel=6, note=41, velocity=0, time=35),
    Message('note_on', channel=6, note=53, velocity=85, time=25),
    Message('note_on', channel=6, note=57, velocity=98, time=0),
    Message('note_on', channel=6, note=60, velocity=92, time=0),
    Message('note_on', channel=6, note=53, velocity=0, time=36),
    Message('note_on', channel=6, note=57, velocity=0, time=1),
    Message('note_on', channel=6, note=60, velocity=0, time=2),
    Message('note_on', channel=6, note=60, velocity=84, time=81),
    Message('note_on', channel=6, note=53, velocity=80, time=0),
    Message('note_on', channel=6, note=57, velocity=91, time=0),
    Message('note_on', channel=6, note=53, velocity=0, time=35),
    Message('note_on', channel=6, note=60, velocity=0, time=0),
    Message('note_on', channel=6, note=57, velocity=0, time=1),
    Message('note_on', channel=6, note=41, velocity=81, time=24),
    Message('note_on', channel=6, note=41, velocity=0, time=40),
    Message('note_on', channel=6, note=57, velocity=87, time=20),
    Message('note_on', channel=6, note=53, velocity=80, time=0),
    Message('note_on', channel=6, note=60, velocity=85, time=0),
    Message('note_on', channel=6, note=53, velocity=0, time=39),
    Message('note_on', channel=6, note=57, velocity=0, time=0),
    Message('note_on', channel=6, note=60, velocity=0, time=4),
    Message('note_on', channel=6, note=57, velocity=92, time=77),
    Message('note_on', channel=6, note=60, velocity=89, time=0),
    Message('note_on', channel=6, note=53, velocity=81, time=0),
    Message('note_on', channel=6, note=53, velocity=0, time=42),
    Message('note_on', channel=6, note=57, velocity=0, time=0),
    Message('note_on', channel=6, note=60, velocity=0, time=3),
    Message('note_on', channel=6, note=53, velocity=84, time=75),
    Message('note_on', channel=6, note=60, velocity=92, time=0),
    Message('note_on', channel=6, note=57, velocity=97, time=0),
    Message('note_on', channel=6, note=53, velocity=0, time=39),
    Message('note_on', channel=6, note=57, velocity=0, time=2),
    Message('note_on', channel=6, note=60, velocity=0, time=3),
    Message('note_on', channel=6, note=57, velocity=91, time=76),
    Message('note_on', channel=6, note=53, velocity=81, time=0),
    Message('note_on', channel=6, note=60, velocity=95, time=0),
    Message('note_on', channel=6, note=53, velocity=0, time=32),
    Message('note_on', channel=6, note=57, velocity=0, time=2),
    Message('note_on', channel=6, note=60, velocity=0, time=7),
    Message('control_change', channel=6, control=64, value=0, time=55),
    Message('note_on', channel=6, note=48, velocity=98, time=24),
    Message('control_change', channel=6, control=64, value=127, time=32),
    Message('note_on', channel=6, note=48, velocity=0, time=78),
    Message('note_on', channel=6, note=55, velocity=61, time=10),
    Message('note_on', channel=6, note=60, velocity=71, time=0),
    Message('note_on', channel=6, note=64, velocity=74, time=0),
    Message('note_on', channel=6, note=60, velocity=0, time=30),
    Message('note_on', channel=6, note=55, velocity=0, time=1),
    Message('note_on', channel=6, note=64, velocity=0, time=7),
    Message('note_on', channel=6, note=48, velocity=66, time=22),
    Message('note_on', channel=6, note=48, velocity=0, time=30),
    Message('note_on', channel=6, note=55, velocity=87, time=30),
    Message('note_on', channel=6, note=60, velocity=97, time=0),
    Message('note_on', channel=6, note=64, velocity=92, time=0),
    Message('note_on', channel=6, note=55, velocity=0, time=33),
    Message('note_on', channel=6, note=60, velocity=0, time=1),
    Message('note_on', channel=6, note=64, velocity=0, time=6),
    Message('note_on', channel=6, note=60, velocity=87, time=80),
    Message('note_on', channel=6, note=55, velocity=69, time=0),
    Message('note_on', channel=6, note=64, velocity=87, time=0),
    Message('note_on', channel=6, note=60, velocity=0, time=30),
    Message('note_on', channel=6, note=55, velocity=0, time=4),
    Message('note_on', channel=6, note=64, velocity=0, time=2),
    Message('note_on', channel=6, note=48, velocity=81, time=24),
    Message('note_on', channel=6, note=48, velocity=0, time=39),
    Message('note_on', channel=6, note=55, velocity=87, time=21),
    Message('note_on', channel=6, note=60, velocity=97, time=0),
    Message('note_on', channel=6, note=64, velocity=95, time=0),
    Message('note_on', channel=6, note=55, velocity=0, time=31),
    Message('note_on', channel=6, note=60, velocity=0, time=1),
    Message('note_on', channel=6, note=64, velocity=0, time=8),
    Message('note_on', channel=6, note=55, velocity=85, time=80),
    Message('note_on', channel=6, note=60, velocity=97, time=0),
    Message('note_on', channel=6, note=64, velocity=101, time=0),
    Message('note_on', channel=6, note=60, velocity=0, time=31),
    Message('note_on', channel=6, note=55, velocity=0, time=0),
    Message('note_on', channel=6, note=64, velocity=0, time=5),
    Message('note_on', channel=6, note=55, velocity=69, time=84),
    Message('note_on', channel=6, note=60, velocity=92, time=0),
    Message('note_on', channel=6, note=64, velocity=84, time=0),
    Message('note_on', channel=6, note=55, velocity=0, time=32),
    Message('note_on', channel=6, note=60, velocity=0, time=2),
    Message('note_on', channel=6, note=64, velocity=0, time=3),
    Message('note_on', channel=6, note=60, velocity=74, time=83),
    Message('note_on', channel=6, note=64, velocity=69, time=0),
    Message('note_on', channel=6, note=55, velocity=63, time=0),
    Message('note_on', channel=6, note=60, velocity=0, time=27),
    Message('note_on', channel=6, note=55, velocity=0, time=4),
    Message('note_on', channel=6, note=64, velocity=0, time=0),
    Message('note_on', channel=6, note=48, velocity=38, time=29),
    Message('note_on', channel=6, note=48, velocity=0, time=29),
    Message('note_on', channel=6, note=55, velocity=84, time=31),
    Message('note_on', channel=6, note=60, velocity=98, time=0),
    Message('note_on', channel=6, note=64, velocity=97, time=0),
    Message('note_on', channel=6, note=60, velocity=0, time=36),
    Message('note_on', channel=6, note=55, velocity=0, time=1),
    Message('note_on', channel=6, note=64, velocity=0, time=4),
    Message('note_on', channel=6, note=60, velocity=68, time=79),
    Message('note_on', channel=6, note=64, velocity=69, time=0),
    Message('note_on', channel=6, note=55, velocity=60, time=0),
    Message('note_on', channel=6, note=60, velocity=0, time=26),
    Message('note_on', channel=6, note=64, velocity=0, time=3),
    Message('note_on', channel=6, note=55, velocity=0, time=3),
    Message('note_on', channel=6, note=48, velocity=87, time=28),
    Message('note_on', channel=6, note=48, velocity=0, time=37),
    Message('note_on', channel=6, note=60, velocity=98, time=23),
    Message('note_on', channel=6, note=55, velocity=89, time=0),
    Message('note_on', channel=6, note=64, velocity=97, time=0),
    Message('note_on', channel=6, note=64, velocity=0, time=41),
    Message('note_on', channel=6, note=60, velocity=0, time=0),
    Message('note_on', channel=6, note=55, velocity=0, time=3),
    Message('note_on', channel=6, note=60, velocity=87, time=76),
    Message('note_on', channel=6, note=64, velocity=87, time=0),
    Message('note_on', channel=6, note=55, velocity=69, time=0),
    Message('note_on', channel=6, note=60, velocity=0, time=37),
    Message('note_on', channel=6, note=55, velocity=0, time=8),
    Message('note_on', channel=6, note=64, velocity=0, time=0),
    Message('note_on', channel=6, note=48, velocity=89, time=15),
    Message('note_on', channel=6, note=48, velocity=0, time=34),
    Message('note_on', channel=6, note=60, velocity=95, time=26),
    Message('note_on', channel=6, note=64, velocity=95, time=0),
    Message('note_on', channel=6, note=55, velocity=89, time=0),
    Message('note_on', channel=6, note=60, velocity=0, time=39),
    Message('note_on', channel=6, note=55, velocity=0, time=4),
    Message('note_on', channel=6, note=64, velocity=0, time=1),
    Message('note_on', channel=6, note=60, velocity=97, time=76),
    Message('note_on', channel=6, note=64, velocity=95, time=0),
    Message('note_on', channel=6, note=55, velocity=91, time=0),
    Message('note_on', channel=6, note=60, velocity=0, time=49),
    Message('note_on', channel=6, note=64, velocity=0, time=3),
    Message('note_on', channel=6, note=55, velocity=0, time=3),
    Message('note_on', channel=6, note=55, velocity=85, time=65),
    Message('note_on', channel=6, note=60, velocity=98, time=0),
    Message('note_on', channel=6, note=64, velocity=98, time=0),
    Message('note_on', channel=6, note=60, velocity=0, time=41),
    Message('note_on', channel=6, note=64, velocity=0, time=3),
    Message('note_on', channel=6, note=55, velocity=0, time=2),
    Message('control_change', channel=6, control=64, value=0, time=177),
    Message('note_on', channel=6, note=55, velocity=115, time=17),
    Message('note_on', channel=6, note=59, velocity=105, time=0),
    Message('note_on', channel=6, note=52, velocity=110, time=0),
    Message('note_on', channel=6, note=40, velocity=97, time=0),
    Message('note_on', channel=6, note=52, velocity=0, time=1633),
    Message('note_on', channel=6, note=59, velocity=0, time=8),
    Message('note_on', channel=6, note=55, velocity=0, time=4),
    Message('note_on', channel=6, note=40, velocity=0, time=2),
    MetaMessage('end_of_track', time=0)]),
  MidiTrack([
    MetaMessage('midi_port', port=0, time=0),
    MetaMessage('track_name', name='High Hat', time=0),
    Message('program_change', channel=9, program=0, time=0),
    Message('note_on', channel=9, note=42, velocity=127, time=0),
    Message('note_on', channel=9, note=42, velocity=0, time=7),
    Message('note_on', channel=9, note=42, velocity=127, time=233),
    Message('note_on', channel=9, note=42, velocity=0, time=10),
    Message('note_on', channel=9, note=42, velocity=127, time=230),
    Message('note_on', channel=9, note=42, velocity=0, time=9),
    Message('note_on', channel=9, note=42, velocity=127, time=231),
    Message('note_on', channel=9, note=42, velocity=0, time=9),
    Message('note_on', channel=9, note=42, velocity=127, time=471),
    Message('note_on', channel=9, note=42, velocity=0, time=8),
    Message('note_on', channel=9, note=42, velocity=127, time=472),
    Message('note_on', channel=9, note=42, velocity=0, time=9),
    Message('note_on', channel=9, note=42, velocity=127, time=471),
    Message('note_on', channel=9, note=42, velocity=0, time=9),
    Message('note_on', channel=9, note=42, velocity=127, time=471),
    Message('note_on', channel=9, note=42, velocity=0, time=9),
    Message('note_on', channel=9, note=42, velocity=127, time=471),
    Message('note_on', channel=9, note=42, velocity=0, time=9),
    Message('note_on', channel=9, note=42, velocity=127, time=471),
    Message('note_on', channel=9, note=42, velocity=0, time=8),
    Message('note_on', channel=9, note=42, velocity=127, time=472),
    Message('note_on', channel=9, note=42, velocity=0, time=9),
    Message('note_on', channel=9, note=42, velocity=127, time=471),
    Message('note_on', channel=9, note=42, velocity=0, time=9),
    Message('note_on', channel=9, note=42, velocity=127, time=471),
    Message('note_on', channel=9, note=42, velocity=0, time=8),
    Message('note_on', channel=9, note=42, velocity=127, time=472),
    Message('note_on', channel=9, note=42, velocity=0, time=9),
    Message('note_on', channel=9, note=42, velocity=127, time=471),
    Message('note_on', channel=9, note=42, velocity=0, time=8),
    Message('note_on', channel=9, note=42, velocity=127, time=472),
    Message('note_on', channel=9, note=42, velocity=0, time=10),
    Message('note_on', channel=9, note=42, velocity=127, time=470),
    Message('note_on', channel=9, note=42, velocity=0, time=9),
    Message('note_on', channel=9, note=42, velocity=127, time=471),
    Message('note_on', channel=9, note=42, velocity=0, time=9),
    Message('note_on', channel=9, note=42, velocity=127, time=471),
    Message('note_on', channel=9, note=42, velocity=0, time=8),
    Message('note_on', channel=9, note=42, velocity=127, time=472),
    Message('note_on', channel=9, note=42, velocity=0, time=9),
    Message('note_on', channel=9, note=42, velocity=127, time=231),
    Message('note_on', channel=9, note=42, velocity=0, time=9),
    Message('note_on', channel=9, note=42, velocity=43, time=111),
    Message('note_on', channel=9, note=42, velocity=0, time=8),
    Message('note_on', channel=9, note=42, velocity=127, time=112),
    Message('note_on', channel=9, note=42, velocity=0, time=8),
    Message('note_on', channel=9, note=42, velocity=43, time=112),
    Message('note_on', channel=9, note=42, velocity=0, time=9),
    Message('note_on', channel=9, note=42, velocity=127, time=111),
    Message('note_on', channel=9, note=42, velocity=0, time=8),
    Message('note_on', channel=9, note=42, velocity=43, time=112),
    Message('note_on', channel=9, note=42, velocity=0, time=9),
    Message('note_on', channel=9, note=42, velocity=127, time=111),
    Message('note_on', channel=9, note=42, velocity=0, time=9),
    Message('note_on', channel=9, note=42, velocity=43, time=111),
    Message('note_on', channel=9, note=42, velocity=0, time=8),
    Message('note_on', channel=9, note=42, velocity=127, time=112),
    Message('note_on', channel=9, note=42, velocity=0, time=9),
    Message('note_on', channel=9, note=42, velocity=43, time=111),
    Message('note_on', channel=9, note=42, velocity=0, time=9),
    Message('note_on', channel=9, note=42, velocity=127, time=111),
    Message('note_on', channel=9, note=42, velocity=0, time=9),
    Message('note_on', channel=9, note=42, velocity=43, time=111),
    Message('note_on', channel=9, note=42, velocity=0, time=9),
    Message('note_on', channel=9, note=42, velocity=127, time=111),
    Message('note_on', channel=9, note=42, velocity=0, time=9),
    Message('note_on', channel=9, note=42, velocity=43, time=111),
    Message('note_on', channel=9, note=42, velocity=0, time=9),
    Message('note_on', channel=9, note=42, velocity=127, time=111),
    Message('note_on', channel=9, note=42, velocity=0, time=9),
    Message('note_on', channel=9, note=42, velocity=127, time=231),
    Message('note_on', channel=9, note=42, velocity=0, time=9),
    Message('note_on', channel=9, note=42, velocity=43, time=111),
    Message('note_on', channel=9, note=42, velocity=0, time=8),
    Message('note_on', channel=9, note=42, velocity=127, time=112),
    Message('note_on', channel=9, note=42, velocity=0, time=9),
    Message('note_on', channel=9, note=42, velocity=43, time=111),
    Message('note_on', channel=9, note=42, velocity=0, time=10),
    Message('note_on', channel=9, note=42, velocity=127, time=110),
    Message('note_on', channel=9, note=42, velocity=0, time=8),
    Message('note_on', channel=9, note=42, velocity=43, time=112),
    Message('note_on', channel=9, note=42, velocity=0, time=8),
    Message('note_on', channel=9, note=42, velocity=127, time=112),
    Message('note_on', channel=9, note=42, velocity=0, time=8),
    Message('note_on', channel=9, note=42, velocity=43, time=112),
    Message('note_on', channel=9, note=42, velocity=0, time=8),
    Message('note_on', channel=9, note=42, velocity=127, time=112),
    Message('note_on', channel=9, note=42, velocity=0, time=9),
    Message('note_on', channel=9, note=42, velocity=43, time=111),
    Message('note_on', channel=9, note=42, velocity=0, time=10),
    Message('note_on', channel=9, note=42, velocity=127, time=110),
    Message('note_on', channel=9, note=42, velocity=0, time=8),
    Message('note_on', channel=9, note=42, velocity=43, time=112),
    Message('note_on', channel=9, note=42, velocity=0, time=8),
    Message('note_on', channel=9, note=42, velocity=127, time=112),
    Message('note_on', channel=9, note=42, velocity=0, time=8),
    Message('note_on', channel=9, note=42, velocity=43, time=112),
    Message('note_on', channel=9, note=42, velocity=0, time=8),
    Message('note_on', channel=9, note=42, velocity=127, time=112),
    Message('note_on', channel=9, note=42, velocity=0, time=8),
    Message('note_on', channel=9, note=42, velocity=127, time=232),
    Message('note_on', channel=9, note=42, velocity=0, time=8),
    Message('note_on', channel=9, note=42, velocity=43, time=112),
    Message('note_on', channel=9, note=42, velocity=0, time=9),
    Message('note_on', channel=9, note=42, velocity=127, time=111),
    Message('note_on', channel=9, note=42, velocity=0, time=9),
    Message('note_on', channel=9, note=42, velocity=43, time=111),
    Message('note_on', channel=9, note=42, velocity=0, time=9),
    Message('note_on', channel=9, note=42, velocity=127, time=111),
    Message('note_on', channel=9, note=42, velocity=0, time=9),
    Message('note_on', channel=9, note=42, velocity=43, time=111),
    Message('note_on', channel=9, note=42, velocity=0, time=9),
    Message('note_on', channel=9, note=42, velocity=127, time=111),
    Message('note_on', channel=9, note=42, velocity=0, time=9),
    Message('note_on', channel=9, note=42, velocity=43, time=111),
    Message('note_on', channel=9, note=42, velocity=0, time=8),
    Message('note_on', channel=9, note=42, velocity=127, time=112),
    Message('note_on', channel=9, note=42, velocity=0, time=9),
    Message('note_on', channel=9, note=42, velocity=43, time=111),
    Message('note_on', channel=9, note=42, velocity=0, time=9),
    Message('note_on', channel=9, note=42, velocity=127, time=111),
    Message('note_on', channel=9, note=42, velocity=0, time=8),
    Message('note_on', channel=9, note=42, velocity=43, time=112),
    Message('note_on', channel=9, note=42, velocity=0, time=9),
    Message('note_on', channel=9, note=42, velocity=127, time=111),
    Message('note_on', channel=9, note=42, velocity=0, time=8),
    Message('note_on', channel=9, note=42, velocity=43, time=112),
    Message('note_on', channel=9, note=42, velocity=0, time=9),
    Message('note_on', channel=9, note=42, velocity=127, time=111),
    Message('note_on', channel=9, note=42, velocity=0, time=9),
    Message('note_on', channel=9, note=42, velocity=127, time=231),
    Message('note_on', channel=9, note=42, velocity=0, time=9),
    Message('note_on', channel=9, note=42, velocity=43, time=111),
    Message('note_on', channel=9, note=42, velocity=0, time=8),
    Message('note_on', channel=9, note=42, velocity=127, time=112),
    Message('note_on', channel=9, note=42, velocity=0, time=9),
    Message('note_on', channel=9, note=42, velocity=43, time=111),
    Message('note_on', channel=9, note=42, velocity=0, time=9),
    Message('note_on', channel=9, note=42, velocity=127, time=111),
    Message('note_on', channel=9, note=42, velocity=0, time=8),
    Message('note_on', channel=9, note=42, velocity=43, time=112),
    Message('note_on', channel=9, note=42, velocity=0, time=8),
    Message('note_on', channel=9, note=42, velocity=127, time=112),
    Message('note_on', channel=9, note=42, velocity=0, time=8),
    Message('note_on', channel=9, note=42, velocity=43, time=112),
    Message('note_on', channel=9, note=42, velocity=0, time=8),
    Message('note_on', channel=9, note=42, velocity=127, time=112),
    Message('note_on', channel=9, note=42, velocity=0, time=9),
    Message('note_on', channel=9, note=42, velocity=43, time=111),
    Message('note_on', channel=9, note=42, velocity=0, time=8),
    Message('note_on', channel=9, note=42, velocity=127, time=112),
    Message('note_on', channel=9, note=42, velocity=0, time=8),
    Message('note_on', channel=9, note=42, velocity=43, time=112),
    Message('note_on', channel=9, note=42, velocity=0, time=8),
    Message('note_on', channel=9, note=42, velocity=127, time=112),
    Message('note_on', channel=9, note=42, velocity=0, time=8),
    Message('note_on', channel=9, note=42, velocity=43, time=112),
    Message('note_on', channel=9, note=42, velocity=0, time=8),
    Message('note_on', channel=9, note=42, velocity=127, time=112),
    Message('note_on', channel=9, note=42, velocity=0, time=8),
    Message('note_on', channel=9, note=42, velocity=127, time=232),
    Message('note_on', channel=9, note=42, velocity=0, time=8),
    Message('note_on', channel=9, note=42, velocity=43, time=112),
    Message('note_on', channel=9, note=42, velocity=0, time=10),
    Message('note_on', channel=9, note=42, velocity=127, time=110),
    Message('note_on', channel=9, note=42, velocity=0, time=9),
    Message('note_on', channel=9, note=42, velocity=43, time=111),
    Message('note_on', channel=9, note=42, velocity=0, time=9),
    Message('note_on', channel=9, note=42, velocity=127, time=111),
    Message('note_on', channel=9, note=42, velocity=0, time=9),
    Message('note_on', channel=9, note=42, velocity=43, time=111),
    Message('note_on', channel=9, note=42, velocity=0, time=9),
    Message('note_on', channel=9, note=42, velocity=127, time=111),
    Message('note_on', channel=9, note=42, velocity=0, time=8),
    Message('note_on', channel=9, note=42, velocity=43, time=112),
    Message('note_on', channel=9, note=42, velocity=0, time=9),
    Message('note_on', channel=9, note=42, velocity=127, time=111),
    Message('note_on', channel=9, note=42, velocity=0, time=8),
    Message('note_on', channel=9, note=42, velocity=43, time=112),
    Message('note_on', channel=9, note=42, velocity=0, time=9),
    Message('note_on', channel=9, note=42, velocity=127, time=111),
    Message('note_on', channel=9, note=42, velocity=0, time=8),
    Message('note_on', channel=9, note=42, velocity=43, time=112),
    Message('note_on', channel=9, note=42, velocity=0, time=8),
    Message('note_on', channel=9, note=42, velocity=127, time=112),
    Message('note_on', channel=9, note=42, velocity=0, time=9),
    Message('note_on', channel=9, note=42, velocity=43, time=111),
    Message('note_on', channel=9, note=42, velocity=0, time=9),
    Message('note_on', channel=9, note=42, velocity=127, time=111),
    Message('note_on', channel=9, note=42, velocity=0, time=8),
    Message('note_on', channel=9, note=42, velocity=127, time=232),
    Message('note_on', channel=9, note=42, velocity=0, time=8),
    Message('note_on', channel=9, note=42, velocity=43, time=112),
    Message('note_on', channel=9, note=42, velocity=0, time=10),
    Message('note_on', channel=9, note=42, velocity=127, time=110),
    Message('note_on', channel=9, note=42, velocity=0, time=9),
    Message('note_on', channel=9, note=42, velocity=43, time=111),
    Message('note_on', channel=9, note=42, velocity=0, time=9),
    Message('note_on', channel=9, note=42, velocity=127, time=111),
    Message('note_on', channel=9, note=42, velocity=0, time=8),
    Message('note_on', channel=9, note=42, velocity=43, time=112),
    Message('note_on', channel=9, note=42, velocity=0, time=9),
    Message('note_on', channel=9, note=42, velocity=127, time=111),
    Message('note_on', channel=9, note=42, velocity=0, time=8),
    Message('note_on', channel=9, note=42, velocity=43, time=112),
    Message('note_on', channel=9, note=42, velocity=0, time=9),
    Message('note_on', channel=9, note=42, velocity=127, time=111),
    Message('note_on', channel=9, note=42, velocity=0, time=8),
    Message('note_on', channel=9, note=42, velocity=43, time=112),
    Message('note_on', channel=9, note=42, velocity=0, time=9),
    Message('note_on', channel=9, note=42, velocity=127, time=111),
    Message('note_on', channel=9, note=42, velocity=0, time=8),
    Message('note_on', channel=9, note=42, velocity=43, time=112),
    Message('note_on', channel=9, note=42, velocity=0, time=9),
    Message('note_on', channel=9, note=42, velocity=127, time=111),
    Message('note_on', channel=9, note=42, velocity=0, time=7),
    Message('note_on', channel=9, note=42, velocity=43, time=113),
    Message('note_on', channel=9, note=42, velocity=0, time=9),
    Message('note_on', channel=9, note=42, velocity=127, time=111),
    Message('note_on', channel=9, note=42, velocity=0, time=9),
    Message('note_on', channel=9, note=42, velocity=127, time=231),
    Message('note_on', channel=9, note=42, velocity=0, time=8),
    Message('note_on', channel=9, note=42, velocity=43, time=112),
    Message('note_on', channel=9, note=42, velocity=0, time=10),
    Message('note_on', channel=9, note=42, velocity=127, time=110),
    Message('note_on', channel=9, note=42, velocity=0, time=9),
    Message('note_on', channel=9, note=42, velocity=43, time=111),
    Message('note_on', channel=9, note=42, velocity=0, time=9),
    Message('note_on', channel=9, note=42, velocity=127, time=111),
    Message('note_on', channel=9, note=42, velocity=0, time=9),
    Message('note_on', channel=9, note=42, velocity=43, time=111),
    Message('note_on', channel=9, note=42, velocity=0, time=10),
    Message('note_on', channel=9, note=42, velocity=127, time=110),
    Message('note_on', channel=9, note=42, velocity=0, time=10),
    Message('note_on', channel=9, note=42, velocity=43, time=110),
    Message('note_on', channel=9, note=42, velocity=0, time=9),
    Message('note_on', channel=9, note=42, velocity=127, time=111),
    Message('note_on', channel=9, note=42, velocity=0, time=8),
    Message('note_on', channel=9, note=42, velocity=43, time=112),
    Message('note_on', channel=9, note=42, velocity=0, time=9),
    Message('note_on', channel=9, note=42, velocity=127, time=111),
    Message('note_on', channel=9, note=42, velocity=0, time=8),
    Message('note_on', channel=9, note=42, velocity=43, time=112),
    Message('note_on', channel=9, note=42, velocity=0, time=9),
    Message('note_on', channel=9, note=42, velocity=127, time=111),
    Message('note_on', channel=9, note=42, velocity=0, time=8),
    Message('note_on', channel=9, note=42, velocity=43, time=112),
    Message('note_on', channel=9, note=42, velocity=0, time=9),
    Message('note_on', channel=9, note=42, velocity=127, time=111),
    Message('note_on', channel=9, note=42, velocity=0, time=8),
    Message('note_on', channel=9, note=42, velocity=127, time=232),
    Message('note_on', channel=9, note=42, velocity=0, time=8),
    Message('note_on', channel=9, note=42, velocity=43, time=112),
    Message('note_on', channel=9, note=42, velocity=0, time=10),
    Message('note_on', channel=9, note=42, velocity=127, time=110),
    Message('note_on', channel=9, note=42, velocity=0, time=10),
    Message('note_on', channel=9, note=42, velocity=43, time=110),
    Message('note_on', channel=9, note=42, velocity=0, time=8),
    Message('note_on', channel=9, note=42, velocity=127, time=112),
    Message('note_on', channel=9, note=42, velocity=0, time=8),
    Message('note_on', channel=9, note=42, velocity=43, time=112),
    Message('note_on', channel=9, note=42, velocity=0, time=9),
    Message('note_on', channel=9, note=42, velocity=127, time=111),
    Message('note_on', channel=9, note=42, velocity=0, time=8),
    Message('note_on', channel=9, note=42, velocity=43, time=112),
    Message('note_on', channel=9, note=42, velocity=0, time=9),
    Message('note_on', channel=9, note=42, velocity=127, time=111),
    Message('note_on', channel=9, note=42, velocity=0, time=8),
    Message('note_on', channel=9, note=42, velocity=43, time=112),
    Message('note_on', channel=9, note=42, velocity=0, time=9),
    Message('note_on', channel=9, note=42, velocity=127, time=111),
    Message('note_on', channel=9, note=42, velocity=0, time=8),
    Message('note_on', channel=9, note=42, velocity=43, time=112),
    Message('note_on', channel=9, note=42, velocity=0, time=8),
    Message('note_on', channel=9, note=42, velocity=127, time=112),
    Message('note_on', channel=9, note=42, velocity=0, time=9),
    Message('note_on', channel=9, note=42, velocity=43, time=111),
    Message('note_on', channel=9, note=42, velocity=0, time=9),
    Message('note_on', channel=9, note=42, velocity=127, time=111),
    Message('note_on', channel=9, note=42, velocity=0, time=9),
    Message('note_on', channel=9, note=42, velocity=127, time=231),
    Message('note_on', channel=9, note=42, velocity=0, time=8),
    Message('note_on', channel=9, note=42, velocity=43, time=112),
    Message('note_on', channel=9, note=42, velocity=0, time=10),
    Message('note_on', channel=9, note=42, velocity=127, time=110),
    Message('note_on', channel=9, note=42, velocity=0, time=9),
    Message('note_on', channel=9, note=42, velocity=43, time=111),
    Message('note_on', channel=9, note=42, velocity=0, time=9),
    Message('note_on', channel=9, note=42, velocity=127, time=111),
    Message('note_on', channel=9, note=42, velocity=0, time=9),
    Message('note_on', channel=9, note=42, velocity=43, time=111),
    Message('note_on', channel=9, note=42, velocity=0, time=9),
    Message('note_on', channel=9, note=42, velocity=127, time=111),
    Message('note_on', channel=9, note=42, velocity=0, time=8),
    Message('note_on', channel=9, note=42, velocity=43, time=112),
    Message('note_on', channel=9, note=42, velocity=0, time=9),
    Message('note_on', channel=9, note=42, velocity=127, time=111),
    Message('note_on', channel=9, note=42, velocity=0, time=8),
    Message('note_on', channel=9, note=42, velocity=43, time=112),
    Message('note_on', channel=9, note=42, velocity=0, time=9),
    Message('note_on', channel=9, note=42, velocity=127, time=111),
    Message('note_on', channel=9, note=42, velocity=0, time=8),
    Message('note_on', channel=9, note=42, velocity=43, time=112),
    Message('note_on', channel=9, note=42, velocity=0, time=8),
    Message('note_on', channel=9, note=42, velocity=127, time=112),
    Message('note_on', channel=9, note=42, velocity=0, time=9),
    Message('note_on', channel=9, note=42, velocity=43, time=111),
    Message('note_on', channel=9, note=42, velocity=0, time=9),
    Message('note_on', channel=9, note=42, velocity=127, time=111),
    Message('note_on', channel=9, note=42, velocity=0, time=7),
    Message('note_on', channel=9, note=42, velocity=127, time=233),
    Message('note_on', channel=9, note=42, velocity=0, time=9),
    Message('note_on', channel=9, note=42, velocity=43, time=111),
    Message('note_on', channel=9, note=42, velocity=0, time=9),
    Message('note_on', channel=9, note=42, velocity=127, time=111),
    Message('note_on', channel=9, note=42, velocity=0, time=8),
    Message('note_on', channel=9, note=42, velocity=43, time=112),
    Message('note_on', channel=9, note=42, velocity=0, time=8),
    Message('note_on', channel=9, note=42, velocity=127, time=112),
    Message('note_on', channel=9, note=42, velocity=0, time=8),
    Message('note_on', channel=9, note=42, velocity=43, time=112),
    Message('note_on', channel=9, note=42, velocity=0, time=9),
    Message('note_on', channel=9, note=42, velocity=127, time=111),
    Message('note_on', channel=9, note=42, velocity=0, time=8),
    Message('note_on', channel=9, note=42, velocity=43, time=112),
    Message('note_on', channel=9, note=42, velocity=0, time=9),
    Message('note_on', channel=9, note=42, velocity=127, time=111),
    Message('note_on', channel=9, note=42, velocity=0, time=8),
    Message('note_on', channel=9, note=42, velocity=43, time=112),
    Message('note_on', channel=9, note=42, velocity=0, time=9),
    Message('note_on', channel=9, note=42, velocity=127, time=111),
    Message('note_on', channel=9, note=42, velocity=0, time=8),
    Message('note_on', channel=9, note=42, velocity=43, time=112),
    Message('note_on', channel=9, note=42, velocity=0, time=9),
    Message('note_on', channel=9, note=42, velocity=127, time=111),
    Message('note_on', channel=9, note=42, velocity=0, time=8),
    Message('note_on', channel=9, note=42, velocity=43, time=112),
    Message('note_on', channel=9, note=42, velocity=0, time=9),
    Message('note_on', channel=9, note=42, velocity=127, time=111),
    Message('note_on', channel=9, note=42, velocity=0, time=9),
    Message('note_on', channel=9, note=42, velocity=127, time=231),
    Message('note_on', channel=9, note=42, velocity=0, time=9),
    Message('note_on', channel=9, note=42, velocity=43, time=111),
    Message('note_on', channel=9, note=42, velocity=0, time=10),
    Message('note_on', channel=9, note=42, velocity=127, time=110),
    Message('note_on', channel=9, note=42, velocity=0, time=9),
    Message('note_on', channel=9, note=42, velocity=43, time=111),
    Message('note_on', channel=9, note=42, velocity=0, time=9),
    Message('note_on', channel=9, note=42, velocity=127, time=111),
    Message('note_on', channel=9, note=42, velocity=0, time=8),
    Message('note_on', channel=9, note=42, velocity=43, time=112),
    Message('note_on', channel=9, note=42, velocity=0, time=9),
    Message('note_on', channel=9, note=42, velocity=127, time=111),
    Message('note_on', channel=9, note=42, velocity=0, time=8),
    Message('note_on', channel=9, note=42, velocity=43, time=112),
    Message('note_on', channel=9, note=42, velocity=0, time=9),
    Message('note_on', channel=9, note=42, velocity=127, time=111),
    Message('note_on', channel=9, note=42, velocity=0, time=8),
    Message('note_on', channel=9, note=42, velocity=43, time=112),
    Message('note_on', channel=9, note=42, velocity=0, time=10),
    Message('note_on', channel=9, note=42, velocity=127, time=110),
    Message('note_on', channel=9, note=42, velocity=0, time=9),
    Message('note_on', channel=9, note=42, velocity=43, time=111),
    Message('note_on', channel=9, note=42, velocity=0, time=9),
    Message('note_on', channel=9, note=42, velocity=127, time=111),
    Message('note_on', channel=9, note=42, velocity=0, time=8),
    Message('note_on', channel=9, note=42, velocity=43, time=112),
    Message('note_on', channel=9, note=42, velocity=0, time=9),
    Message('note_on', channel=9, note=42, velocity=127, time=111),
    Message('note_on', channel=9, note=42, velocity=0, time=8),
    Message('note_on', channel=9, note=42, velocity=127, time=232),
    Message('note_on', channel=9, note=42, velocity=0, time=9),
    Message('note_on', channel=9, note=42, velocity=43, time=111),
    Message('note_on', channel=9, note=42, velocity=0, time=10),
    Message('note_on', channel=9, note=42, velocity=127, time=110),
    Message('note_on', channel=9, note=42, velocity=0, time=10),
    Message('note_on', channel=9, note=42, velocity=43, time=110),
    Message('note_on', channel=9, note=42, velocity=0, time=9),
    Message('note_on', channel=9, note=42, velocity=127, time=111),
    Message('note_on', channel=9, note=42, velocity=0, time=8),
    Message('note_on', channel=9, note=42, velocity=43, time=112),
    Message('note_on', channel=9, note=42, velocity=0, time=9),
    Message('note_on', channel=9, note=42, velocity=127, time=111),
    Message('note_on', channel=9, note=42, velocity=0, time=7),
    Message('note_on', channel=9, note=42, velocity=43, time=113),
    Message('note_on', channel=9, note=42, velocity=0, time=9),
    Message('note_on', channel=9, note=42, velocity=127, time=111),
    Message('note_on', channel=9, note=42, velocity=0, time=8),
    Message('note_on', channel=9, note=42, velocity=43, time=112),
    Message('note_on', channel=9, note=42, velocity=0, time=8),
    Message('note_on', channel=9, note=42, velocity=127, time=112),
    Message('note_on', channel=9, note=42, velocity=0, time=9),
    Message('note_on', channel=9, note=42, velocity=43, time=111),
    Message('note_on', channel=9, note=42, velocity=0, time=8),
    Message('note_on', channel=9, note=42, velocity=127, time=112),
    Message('note_on', channel=9, note=42, velocity=0, time=9),
    Message('note_on', channel=9, note=42, velocity=43, time=111),
    Message('note_on', channel=9, note=42, velocity=0, time=9),
    Message('note_on', channel=9, note=42, velocity=127, time=111),
    Message('note_on', channel=9, note=42, velocity=0, time=9),
    Message('note_on', channel=9, note=42, velocity=127, time=231),
    Message('note_on', channel=9, note=42, velocity=0, time=8),
    Message('note_on', channel=9, note=42, velocity=43, time=112),
    Message('note_on', channel=9, note=42, velocity=0, time=10),
    Message('note_on', channel=9, note=42, velocity=127, time=110),
    Message('note_on', channel=9, note=42, velocity=0, time=9),
    Message('note_on', channel=9, note=42, velocity=43, time=111),
    Message('note_on', channel=9, note=42, velocity=0, time=9),
    Message('note_on', channel=9, note=42, velocity=127, time=111),
    Message('note_on', channel=9, note=42, velocity=0, time=9),
    Message('note_on', channel=9, note=42, velocity=43, time=111),
    Message('note_on', channel=9, note=42, velocity=0, time=10),
    Message('note_on', channel=9, note=42, velocity=127, time=110),
    Message('note_on', channel=9, note=42, velocity=0, time=9),
    Message('note_on', channel=9, note=42, velocity=43, time=111),
    Message('note_on', channel=9, note=42, velocity=0, time=10),
    Message('note_on', channel=9, note=42, velocity=127, time=110),
    Message('note_on', channel=9, note=42, velocity=0, time=9),
    Message('note_on', channel=9, note=42, velocity=43, time=111),
    Message('note_on', channel=9, note=42, velocity=0, time=10),
    Message('note_on', channel=9, note=42, velocity=127, time=110),
    Message('note_on', channel=9, note=42, velocity=0, time=9),
    Message('note_on', channel=9, note=42, velocity=43, time=111),
    Message('note_on', channel=9, note=42, velocity=0, time=8),
    Message('note_on', channel=9, note=42, velocity=127, time=112),
    Message('note_on', channel=9, note=42, velocity=0, time=9),
    Message('note_on', channel=9, note=42, velocity=43, time=111),
    Message('note_on', channel=9, note=42, velocity=0, time=9),
    Message('note_on', channel=9, note=42, velocity=127, time=111),
    Message('note_on', channel=9, note=42, velocity=0, time=8),
    Message('note_on', channel=9, note=42, velocity=127, time=232),
    Message('note_on', channel=9, note=42, velocity=0, time=7),
    Message('note_on', channel=9, note=42, velocity=43, time=113),
    Message('note_on', channel=9, note=42, velocity=0, time=9),
    Message('note_on', channel=9, note=42, velocity=127, time=111),
    Message('note_on', channel=9, note=42, velocity=0, time=8),
    Message('note_on', channel=9, note=42, velocity=43, time=112),
    Message('note_on', channel=9, note=42, velocity=0, time=9),
    Message('note_on', channel=9, note=42, velocity=127, time=111),
    Message('note_on', channel=9, note=42, velocity=0, time=8),
    Message('note_on', channel=9, note=42, velocity=43, time=112),
    Message('note_on', channel=9, note=42, velocity=0, time=9),
    Message('note_on', channel=9, note=42, velocity=127, time=111),
    Message('note_on', channel=9, note=42, velocity=0, time=8),
    Message('note_on', channel=9, note=42, velocity=43, time=112),
    Message('note_on', channel=9, note=42, velocity=0, time=9),
    Message('note_on', channel=9, note=42, velocity=127, time=111),
    Message('note_on', channel=9, note=42, velocity=0, time=8),
    Message('note_on', channel=9, note=42, velocity=43, time=112),
    Message('note_on', channel=9, note=42, velocity=0, time=9),
    Message('note_on', channel=9, note=42, velocity=127, time=111),
    Message('note_on', channel=9, note=42, velocity=0, time=8),
    Message('note_on', channel=9, note=42, velocity=43, time=112),
    Message('note_on', channel=9, note=42, velocity=0, time=8),
    Message('note_on', channel=9, note=42, velocity=127, time=112),
    Message('note_on', channel=9, note=42, velocity=0, time=8),
    Message('note_on', channel=9, note=42, velocity=43, time=112),
    Message('note_on', channel=9, note=42, velocity=0, time=9),
    Message('note_on', channel=9, note=42, velocity=127, time=111),
    Message('note_on', channel=9, note=42, velocity=0, time=9),
    Message('note_on', channel=9, note=42, velocity=127, time=231),
    Message('note_on', channel=9, note=42, velocity=0, time=8),
    Message('note_on', channel=9, note=42, velocity=43, time=112),
    Message('note_on', channel=9, note=42, velocity=0, time=10),
    Message('note_on', channel=9, note=42, velocity=127, time=110),
    Message('note_on', channel=9, note=42, velocity=0, time=9),
    Message('note_on', channel=9, note=42, velocity=43, time=111),
    Message('note_on', channel=9, note=42, velocity=0, time=9),
    Message('note_on', channel=9, note=42, velocity=127, time=111),
    Message('note_on', channel=9, note=42, velocity=0, time=8),
    Message('note_on', channel=9, note=42, velocity=43, time=112),
    Message('note_on', channel=9, note=42, velocity=0, time=9),
    Message('note_on', channel=9, note=42, velocity=127, time=111),
    Message('note_on', channel=9, note=42, velocity=0, time=9),
    Message('note_on', channel=9, note=42, velocity=43, time=111),
    Message('note_on', channel=9, note=42, velocity=0, time=9),
    Message('note_on', channel=9, note=42, velocity=127, time=111),
    Message('note_on', channel=9, note=42, velocity=0, time=9),
    Message('note_on', channel=9, note=42, velocity=43, time=111),
    Message('note_on', channel=9, note=42, velocity=0, time=9),
    Message('note_on', channel=9, note=42, velocity=127, time=111),
    Message('note_on', channel=9, note=42, velocity=0, time=8),
    Message('note_on', channel=9, note=42, velocity=43, time=112),
    Message('note_on', channel=9, note=42, velocity=0, time=9),
    Message('note_on', channel=9, note=42, velocity=127, time=111),
    Message('note_on', channel=9, note=42, velocity=0, time=9),
    Message('note_on', channel=9, note=42, velocity=43, time=111),
    Message('note_on', channel=9, note=42, velocity=0, time=9),
    Message('note_on', channel=9, note=42, velocity=127, time=111),
    Message('note_on', channel=9, note=42, velocity=0, time=8),
    Message('note_on', channel=9, note=42, velocity=127, time=232),
    Message('note_on', channel=9, note=42, velocity=0, time=8),
    Message('note_on', channel=9, note=42, velocity=43, time=112),
    Message('note_on', channel=9, note=42, velocity=0, time=10),
    Message('note_on', channel=9, note=42, velocity=127, time=110),
    Message('note_on', channel=9, note=42, velocity=0, time=9),
    Message('note_on', channel=9, note=42, velocity=43, time=111),
    Message('note_on', channel=9, note=42, velocity=0, time=9),
    Message('note_on', channel=9, note=42, velocity=127, time=111),
    Message('note_on', channel=9, note=42, velocity=0, time=8),
    Message('note_on', channel=9, note=42, velocity=43, time=112),
    Message('note_on', channel=9, note=42, velocity=0, time=9),
    Message('note_on', channel=9, note=42, velocity=127, time=111),
    Message('note_on', channel=9, note=42, velocity=0, time=9),
    Message('note_on', channel=9, note=42, velocity=43, time=111),
    Message('note_on', channel=9, note=42, velocity=0, time=9),
    Message('note_on', channel=9, note=42, velocity=127, time=111),
    Message('note_on', channel=9, note=42, velocity=0, time=8),
    Message('note_on', channel=9, note=42, velocity=43, time=112),
    Message('note_on', channel=9, note=42, velocity=0, time=9),
    Message('note_on', channel=9, note=42, velocity=127, time=111),
    Message('note_on', channel=9, note=42, velocity=0, time=8),
    Message('note_on', channel=9, note=42, velocity=43, time=112),
    Message('note_on', channel=9, note=42, velocity=0, time=7),
    Message('note_on', channel=9, note=42, velocity=127, time=113),
    Message('note_on', channel=9, note=42, velocity=0, time=9),
    Message('note_on', channel=9, note=42, velocity=43, time=111),
    Message('note_on', channel=9, note=42, velocity=0, time=9),
    Message('note_on', channel=9, note=42, velocity=127, time=111),
    Message('note_on', channel=9, note=42, velocity=0, time=9),
    Message('note_on', channel=9, note=42, velocity=127, time=231),
    Message('note_on', channel=9, note=42, velocity=0, time=9),
    Message('note_on', channel=9, note=42, velocity=43, time=111),
    Message('note_on', channel=9, note=42, velocity=0, time=10),
    Message('note_on', channel=9, note=42, velocity=127, time=110),
    Message('note_on', channel=9, note=42, velocity=0, time=9),
    Message('note_on', channel=9, note=42, velocity=43, time=111),
    Message('note_on', channel=9, note=42, velocity=0, time=9),
    Message('note_on', channel=9, note=42, velocity=127, time=111),
    Message('note_on', channel=9, note=42, velocity=0, time=8),
    Message('note_on', channel=9, note=42, velocity=43, time=112),
    Message('note_on', channel=9, note=42, velocity=0, time=9),
    Message('note_on', channel=9, note=42, velocity=127, time=111),
    Message('note_on', channel=9, note=42, velocity=0, time=8),
    Message('note_on', channel=9, note=42, velocity=43, time=112),
    Message('note_on', channel=9, note=42, velocity=0, time=9),
    Message('note_on', channel=9, note=42, velocity=127, time=111),
    Message('note_on', channel=9, note=42, velocity=0, time=8),
    Message('note_on', channel=9, note=42, velocity=43, time=112),
    Message('note_on', channel=9, note=42, velocity=0, time=9),
    Message('note_on', channel=9, note=42, velocity=127, time=111),
    Message('note_on', channel=9, note=42, velocity=0, time=8),
    Message('note_on', channel=9, note=42, velocity=43, time=112),
    Message('note_on', channel=9, note=42, velocity=0, time=8),
    Message('note_on', channel=9, note=42, velocity=127, time=112),
    Message('note_on', channel=9, note=42, velocity=0, time=8),
    Message('note_on', channel=9, note=42, velocity=43, time=112),
    Message('note_on', channel=9, note=42, velocity=0, time=9),
    Message('note_on', channel=9, note=42, velocity=127, time=111),
    Message('note_on', channel=9, note=42, velocity=0, time=8),
    Message('note_on', channel=9, note=42, velocity=127, time=232),
    Message('note_on', channel=9, note=42, velocity=0, time=8),
    Message('note_on', channel=9, note=42, velocity=43, time=112),
    Message('note_on', channel=9, note=42, velocity=0, time=10),
    Message('note_on', channel=9, note=42, velocity=127, time=110),
    Message('note_on', channel=9, note=42, velocity=0, time=9),
    Message('note_on', channel=9, note=42, velocity=43, time=111),
    Message('note_on', channel=9, note=42, velocity=0, time=9),
    Message('note_on', channel=9, note=42, velocity=127, time=111),
    Message('note_on', channel=9, note=42, velocity=0, time=8),
    Message('note_on', channel=9, note=42, velocity=43, time=112),
    Message('note_on', channel=9, note=42, velocity=0, time=9),
    Message('note_on', channel=9, note=42, velocity=127, time=111),
    Message('note_on', channel=9, note=42, velocity=0, time=8),
    Message('note_on', channel=9, note=42, velocity=43, time=112),
    Message('note_on', channel=9, note=42, velocity=0, time=9),
    Message('note_on', channel=9, note=42, velocity=127, time=111),
    Message('note_on', channel=9, note=42, velocity=0, time=8),
    Message('note_on', channel=9, note=42, velocity=43, time=112),
    Message('note_on', channel=9, note=42, velocity=0, time=9),
    Message('note_on', channel=9, note=42, velocity=127, time=111),
    Message('note_on', channel=9, note=42, velocity=0, time=8),
    Message('note_on', channel=9, note=42, velocity=43, time=112),
    Message('note_on', channel=9, note=42, velocity=0, time=9),
    Message('note_on', channel=9, note=42, velocity=127, time=111),
    Message('note_on', channel=9, note=42, velocity=0, time=8),
    Message('note_on', channel=9, note=42, velocity=43, time=112),
    Message('note_on', channel=9, note=42, velocity=0, time=9),
    Message('note_on', channel=9, note=42, velocity=127, time=111),
    Message('note_on', channel=9, note=42, velocity=0, time=9),
    Message('note_on', channel=9, note=42, velocity=127, time=231),
    Message('note_on', channel=9, note=42, velocity=0, time=8),
    Message('note_on', channel=9, note=42, velocity=43, time=112),
    Message('note_on', channel=9, note=42, velocity=0, time=10),
    Message('note_on', channel=9, note=42, velocity=127, time=110),
    Message('note_on', channel=9, note=42, velocity=0, time=9),
    Message('note_on', channel=9, note=42, velocity=43, time=111),
    Message('note_on', channel=9, note=42, velocity=0, time=9),
    Message('note_on', channel=9, note=42, velocity=127, time=111),
    Message('note_on', channel=9, note=42, velocity=0, time=8),
    Message('note_on', channel=9, note=42, velocity=43, time=112),
    Message('note_on', channel=9, note=42, velocity=0, time=10),
    Message('note_on', channel=9, note=42, velocity=127, time=110),
    Message('note_on', channel=9, note=42, velocity=0, time=9),
    Message('note_on', channel=9, note=42, velocity=43, time=111),
    Message('note_on', channel=9, note=42, velocity=0, time=10),
    Message('note_on', channel=9, note=42, velocity=127, time=110),
    Message('note_on', channel=9, note=42, velocity=0, time=9),
    Message('note_on', channel=9, note=42, velocity=43, time=111),
    Message('note_on', channel=9, note=42, velocity=0, time=10),
    Message('note_on', channel=9, note=42, velocity=127, time=110),
    Message('note_on', channel=9, note=42, velocity=0, time=9),
    Message('note_on', channel=9, note=42, velocity=43, time=111),
    Message('note_on', channel=9, note=42, velocity=0, time=9),
    Message('note_on', channel=9, note=42, velocity=127, time=111),
    Message('note_on', channel=9, note=42, velocity=0, time=9),
    Message('note_on', channel=9, note=42, velocity=43, time=111),
    Message('note_on', channel=9, note=42, velocity=0, time=9),
    Message('note_on', channel=9, note=42, velocity=127, time=111),
    Message('note_on', channel=9, note=42, velocity=0, time=8),
    Message('note_on', channel=9, note=42, velocity=127, time=232),
    Message('note_on', channel=9, note=42, velocity=0, time=8),
    Message('note_on', channel=9, note=42, velocity=43, time=112),
    Message('note_on', channel=9, note=42, velocity=0, time=10),
    Message('note_on', channel=9, note=42, velocity=127, time=110),
    Message('note_on', channel=9, note=42, velocity=0, time=10),
    Message('note_on', channel=9, note=42, velocity=43, time=110),
    Message('note_on', channel=9, note=42, velocity=0, time=9),
    Message('note_on', channel=9, note=42, velocity=127, time=111),
    Message('note_on', channel=9, note=42, velocity=0, time=8),
    Message('note_on', channel=9, note=42, velocity=43, time=112),
    Message('note_on', channel=9, note=42, velocity=0, time=9),
    Message('note_on', channel=9, note=42, velocity=127, time=111),
    Message('note_on', channel=9, note=42, velocity=0, time=9),
    Message('note_on', channel=9, note=42, velocity=43, time=111),
    Message('note_on', channel=9, note=42, velocity=0, time=9),
    Message('note_on', channel=9, note=42, velocity=127, time=111),
    Message('note_on', channel=9, note=42, velocity=0, time=8),
    Message('note_on', channel=9, note=42, velocity=43, time=112),
    Message('note_on', channel=9, note=42, velocity=0, time=8),
    Message('note_on', channel=9, note=42, velocity=127, time=112),
    Message('note_on', channel=9, note=42, velocity=0, time=9),
    Message('note_on', channel=9, note=42, velocity=43, time=111),
    Message('note_on', channel=9, note=42, velocity=0, time=8),
    Message('note_on', channel=9, note=42, velocity=127, time=112),
    Message('note_on', channel=9, note=42, velocity=0, time=9),
    Message('note_on', channel=9, note=42, velocity=43, time=111),
    Message('note_on', channel=9, note=42, velocity=0, time=9),
    Message('note_on', channel=9, note=42, velocity=127, time=111),
    Message('note_on', channel=9, note=42, velocity=0, time=9),
    Message('note_on', channel=9, note=42, velocity=127, time=231),
    Message('note_on', channel=9, note=42, velocity=0, time=8),
    Message('note_on', channel=9, note=42, velocity=43, time=112),
    Message('note_on', channel=9, note=42, velocity=0, time=10),
    Message('note_on', channel=9, note=42, velocity=127, time=110),
    Message('note_on', channel=9, note=42, velocity=0, time=9),
    Message('note_on', channel=9, note=42, velocity=43, time=111),
    Message('note_on', channel=9, note=42, velocity=0, time=9),
    Message('note_on', channel=9, note=42, velocity=127, time=111),
    Message('note_on', channel=9, note=42, velocity=0, time=8),
    Message('note_on', channel=9, note=42, velocity=43, time=112),
    Message('note_on', channel=9, note=42, velocity=0, time=9),
    Message('note_on', channel=9, note=42, velocity=127, time=111),
    Message('note_on', channel=9, note=42, velocity=0, time=8),
    Message('note_on', channel=9, note=42, velocity=43, time=112),
    Message('note_on', channel=9, note=42, velocity=0, time=9),
    Message('note_on', channel=9, note=42, velocity=127, time=111),
    Message('note_on', channel=9, note=42, velocity=0, time=8),
    Message('note_on', channel=9, note=42, velocity=43, time=112),
    Message('note_on', channel=9, note=42, velocity=0, time=9),
    Message('note_on', channel=9, note=42, velocity=127, time=111),
    Message('note_on', channel=9, note=42, velocity=0, time=8),
    Message('note_on', channel=9, note=42, velocity=43, time=112),
    Message('note_on', channel=9, note=42, velocity=0, time=8),
    Message('note_on', channel=9, note=42, velocity=127, time=112),
    Message('note_on', channel=9, note=42, velocity=0, time=9),
    Message('note_on', channel=9, note=42, velocity=43, time=111),
    Message('note_on', channel=9, note=42, velocity=0, time=9),
    Message('note_on', channel=9, note=42, velocity=127, time=111),
    Message('note_on', channel=9, note=42, velocity=0, time=9),
    Message('note_on', channel=9, note=42, velocity=127, time=231),
    Message('note_on', channel=9, note=42, velocity=0, time=8),
    Message('note_on', channel=9, note=42, velocity=43, time=112),
    Message('note_on', channel=9, note=42, velocity=0, time=10),
    Message('note_on', channel=9, note=42, velocity=127, time=110),
    Message('note_on', channel=9, note=42, velocity=0, time=9),
    Message('note_on', channel=9, note=42, velocity=43, time=111),
    Message('note_on', channel=9, note=42, velocity=0, time=9),
    Message('note_on', channel=9, note=42, velocity=127, time=111),
    Message('note_on', channel=9, note=42, velocity=0, time=8),
    Message('note_on', channel=9, note=42, velocity=43, time=112),
    Message('note_on', channel=9, note=42, velocity=0, time=9),
    Message('note_on', channel=9, note=42, velocity=127, time=111),
    Message('note_on', channel=9, note=42, velocity=0, time=9),
    Message('note_on', channel=9, note=42, velocity=43, time=111),
    Message('note_on', channel=9, note=42, velocity=0, time=9),
    Message('note_on', channel=9, note=42, velocity=127, time=111),
    Message('note_on', channel=9, note=42, velocity=0, time=8),
    Message('note_on', channel=9, note=42, velocity=43, time=112),
    Message('note_on', channel=9, note=42, velocity=0, time=9),
    Message('note_on', channel=9, note=42, velocity=127, time=111),
    Message('note_on', channel=9, note=42, velocity=0, time=8),
    Message('note_on', channel=9, note=42, velocity=43, time=112),
    Message('note_on', channel=9, note=42, velocity=0, time=8),
    Message('note_on', channel=9, note=42, velocity=127, time=112),
    Message('note_on', channel=9, note=42, velocity=0, time=7),
    Message('note_on', channel=9, note=42, velocity=43, time=113),
    Message('note_on', channel=9, note=42, velocity=0, time=8),
    Message('note_on', channel=9, note=42, velocity=127, time=112),
    Message('note_on', channel=9, note=42, velocity=0, time=9),
    Message('note_on', channel=9, note=42, velocity=127, time=231),
    Message('note_on', channel=9, note=42, velocity=0, time=9),
    Message('note_on', channel=9, note=42, velocity=43, time=111),
    Message('note_on', channel=9, note=42, velocity=0, time=10),
    Message('note_on', channel=9, note=42, velocity=127, time=110),
    Message('note_on', channel=9, note=42, velocity=0, time=9),
    Message('note_on', channel=9, note=42, velocity=43, time=111),
    Message('note_on', channel=9, note=42, velocity=0, time=10),
    Message('note_on', channel=9, note=42, velocity=127, time=110),
    Message('note_on', channel=9, note=42, velocity=0, time=8),
    Message('note_on', channel=9, note=42, velocity=43, time=112),
    Message('note_on', channel=9, note=42, velocity=0, time=9),
    Message('note_on', channel=9, note=42, velocity=127, time=111),
    Message('note_on', channel=9, note=42, velocity=0, time=8),
    Message('note_on', channel=9, note=42, velocity=43, time=112),
    Message('note_on', channel=9, note=42, velocity=0, time=9),
    Message('note_on', channel=9, note=42, velocity=127, time=111),
    Message('note_on', channel=9, note=42, velocity=0, time=8),
    Message('note_on', channel=9, note=42, velocity=43, time=112),
    Message('note_on', channel=9, note=42, velocity=0, time=9),
    Message('note_on', channel=9, note=42, velocity=127, time=111),
    Message('note_on', channel=9, note=42, velocity=0, time=8),
    Message('note_on', channel=9, note=42, velocity=43, time=112),
    Message('note_on', channel=9, note=42, velocity=0, time=8),
    Message('note_on', channel=9, note=42, velocity=127, time=112),
    Message('note_on', channel=9, note=42, velocity=0, time=9),
    Message('note_on', channel=9, note=42, velocity=43, time=111),
    Message('note_on', channel=9, note=42, velocity=0, time=9),
    Message('note_on', channel=9, note=42, velocity=127, time=111),
    Message('note_on', channel=9, note=42, velocity=0, time=8),
    Message('note_on', channel=9, note=42, velocity=127, time=232),
    Message('note_on', channel=9, note=42, velocity=0, time=8),
    Message('note_on', channel=9, note=42, velocity=43, time=112),
    Message('note_on', channel=9, note=42, velocity=0, time=10),
    Message('note_on', channel=9, note=42, velocity=127, time=110),
    Message('note_on', channel=9, note=42, velocity=0, time=9),
    Message('note_on', channel=9, note=42, velocity=43, time=111),
    Message('note_on', channel=9, note=42, velocity=0, time=8),
    Message('note_on', channel=9, note=42, velocity=127, time=112),
    Message('note_on', channel=9, note=42, velocity=0, time=8),
    Message('note_on', channel=9, note=42, velocity=43, time=112),
    Message('note_on', channel=9, note=42, velocity=0, time=9),
    Message('note_on', channel=9, note=42, velocity=127, time=111),
    Message('note_on', channel=9, note=42, velocity=0, time=8),
    Message('note_on', channel=9, note=42, velocity=43, time=112),
    Message('note_on', channel=9, note=42, velocity=0, time=9),
    Message('note_on', channel=9, note=42, velocity=127, time=111),
    Message('note_on', channel=9, note=42, velocity=0, time=8),
    Message('note_on', channel=9, note=42, velocity=43, time=112),
    Message('note_on', channel=9, note=42, velocity=0, time=10),
    Message('note_on', channel=9, note=42, velocity=127, time=110),
    Message('note_on', channel=9, note=42, velocity=0, time=9),
    Message('note_on', channel=9, note=42, velocity=43, time=111),
    Message('note_on', channel=9, note=42, velocity=0, time=8),
    Message('note_on', channel=9, note=42, velocity=127, time=112),
    Message('note_on', channel=9, note=42, velocity=0, time=9),
    Message('note_on', channel=9, note=42, velocity=43, time=111),
    Message('note_on', channel=9, note=42, velocity=0, time=9),
    Message('note_on', channel=9, note=42, velocity=127, time=111),
    Message('note_on', channel=9, note=42, velocity=0, time=9),
    Message('note_on', channel=9, note=42, velocity=127, time=231),
    Message('note_on', channel=9, note=42, velocity=0, time=9),
    Message('note_on', channel=9, note=42, velocity=43, time=111),
    Message('note_on', channel=9, note=42, velocity=0, time=8),
    Message('note_on', channel=9, note=42, velocity=127, time=112),
    Message('note_on', channel=9, note=42, velocity=0, time=9),
    Message('note_on', channel=9, note=42, velocity=43, time=111),
    Message('note_on', channel=9, note=42, velocity=0, time=9),
    Message('note_on', channel=9, note=42, velocity=127, time=111),
    Message('note_on', channel=9, note=42, velocity=0, time=8),
    Message('note_on', channel=9, note=42, velocity=43, time=112),
    Message('note_on', channel=9, note=42, velocity=0, time=8),
    Message('note_on', channel=9, note=42, velocity=127, time=112),
    Message('note_on', channel=9, note=42, velocity=0, time=9),
    Message('note_on', channel=9, note=42, velocity=43, time=111),
    Message('note_on', channel=9, note=42, velocity=0, time=10),
    Message('note_on', channel=9, note=42, velocity=127, time=110),
    Message('note_on', channel=9, note=42, velocity=0, time=8),
    Message('note_on', channel=9, note=42, velocity=43, time=112),
    Message('note_on', channel=9, note=42, velocity=0, time=8),
    Message('note_on', channel=9, note=42, velocity=127, time=112),
    Message('note_on', channel=9, note=42, velocity=0, time=9),
    Message('note_on', channel=9, note=42, velocity=43, time=111),
    Message('note_on', channel=9, note=42, velocity=0, time=9),
    Message('note_on', channel=9, note=42, velocity=127, time=111),
    Message('note_on', channel=9, note=42, velocity=0, time=8),
    Message('note_on', channel=9, note=42, velocity=43, time=112),
    Message('note_on', channel=9, note=42, velocity=0, time=8),
    Message('note_on', channel=9, note=42, velocity=127, time=112),
    Message('note_on', channel=9, note=42, velocity=0, time=9),
    Message('note_on', channel=9, note=42, velocity=127, time=231),
    Message('note_on', channel=9, note=42, velocity=0, time=9),
    Message('note_on', channel=9, note=42, velocity=43, time=111),
    Message('note_on', channel=9, note=42, velocity=0, time=8),
    Message('note_on', channel=9, note=42, velocity=127, time=112),
    Message('note_on', channel=9, note=42, velocity=0, time=8),
    Message('note_on', channel=9, note=42, velocity=43, time=112),
    Message('note_on', channel=9, note=42, velocity=0, time=10),
    Message('note_on', channel=9, note=42, velocity=127, time=110),
    Message('note_on', channel=9, note=42, velocity=0, time=8),
    Message('note_on', channel=9, note=42, velocity=43, time=112),
    Message('note_on', channel=9, note=42, velocity=0, time=8),
    Message('note_on', channel=9, note=42, velocity=127, time=112),
    Message('note_on', channel=9, note=42, velocity=0, time=9),
    Message('note_on', channel=9, note=42, velocity=43, time=111),
    Message('note_on', channel=9, note=42, velocity=0, time=10),
    Message('note_on', channel=9, note=42, velocity=127, time=110),
    Message('note_on', channel=9, note=42, velocity=0, time=8),
    Message('note_on', channel=9, note=42, velocity=43, time=112),
    Message('note_on', channel=9, note=42, velocity=0, time=8),
    Message('note_on', channel=9, note=42, velocity=127, time=112),
    Message('note_on', channel=9, note=42, velocity=0, time=9),
    Message('note_on', channel=9, note=42, velocity=43, time=111),
    Message('note_on', channel=9, note=42, velocity=0, time=9),
    Message('note_on', channel=9, note=42, velocity=127, time=111),
    Message('note_on', channel=9, note=42, velocity=0, time=8),
    Message('note_on', channel=9, note=42, velocity=43, time=112),
    Message('note_on', channel=9, note=42, velocity=0, time=8),
    Message('note_on', channel=9, note=42, velocity=127, time=112),
    Message('note_on', channel=9, note=42, velocity=0, time=9),
    Message('note_on', channel=9, note=42, velocity=127, time=231),
    Message('note_on', channel=9, note=42, velocity=0, time=9),
    Message('note_on', channel=9, note=42, velocity=43, time=111),
    Message('note_on', channel=9, note=42, velocity=0, time=10),
    Message('note_on', channel=9, note=42, velocity=127, time=110),
    Message('note_on', channel=9, note=42, velocity=0, time=7),
    Message('note_on', channel=9, note=42, velocity=43, time=113),
    Message('note_on', channel=9, note=42, velocity=0, time=8),
    Message('note_on', channel=9, note=42, velocity=127, time=112),
    Message('note_on', channel=9, note=42, velocity=0, time=9),
    Message('note_on', channel=9, note=42, velocity=43, time=111),
    Message('note_on', channel=9, note=42, velocity=0, time=10),
    Message('note_on', channel=9, note=42, velocity=127, time=110),
    Message('note_on', channel=9, note=42, velocity=0, time=8),
    Message('note_on', channel=9, note=42, velocity=43, time=112),
    Message('note_on', channel=9, note=42, velocity=0, time=8),
    Message('note_on', channel=9, note=42, velocity=127, time=112),
    Message('note_on', channel=9, note=42, velocity=0, time=9),
    Message('note_on', channel=9, note=42, velocity=43, time=111),
    Message('note_on', channel=9, note=42, velocity=0, time=10),
    Message('note_on', channel=9, note=42, velocity=127, time=110),
    Message('note_on', channel=9, note=42, velocity=0, time=8),
    Message('note_on', channel=9, note=42, velocity=43, time=112),
    Message('note_on', channel=9, note=42, velocity=0, time=8),
    Message('note_on', channel=9, note=42, velocity=127, time=112),
    Message('note_on', channel=9, note=42, velocity=0, time=9),
    Message('note_on', channel=9, note=42, velocity=43, time=111),
    Message('note_on', channel=9, note=42, velocity=0, time=10),
    Message('note_on', channel=9, note=42, velocity=127, time=110),
    Message('note_on', channel=9, note=42, velocity=0, time=8),
    Message('note_on', channel=9, note=42, velocity=127, time=232),
    Message('note_on', channel=9, note=42, velocity=0, time=9),
    Message('note_on', channel=9, note=42, velocity=43, time=111),
    Message('note_on', channel=9, note=42, velocity=0, time=10),
    Message('note_on', channel=9, note=42, velocity=127, time=110),
    Message('note_on', channel=9, note=42, velocity=0, time=8),
    Message('note_on', channel=9, note=42, velocity=43, time=112),
    Message('note_on', channel=9, note=42, velocity=0, time=8),
    Message('note_on', channel=9, note=42, velocity=127, time=112),
    Message('note_on', channel=9, note=42, velocity=0, time=9),
    Message('note_on', channel=9, note=42, velocity=43, time=111),
    Message('note_on', channel=9, note=42, velocity=0, time=10),
    Message('note_on', channel=9, note=42, velocity=127, time=110),
    Message('note_on', channel=9, note=42, velocity=0, time=9),
    Message('note_on', channel=9, note=42, velocity=43, time=111),
    Message('note_on', channel=9, note=42, velocity=0, time=8),
    Message('note_on', channel=9, note=42, velocity=127, time=112),
    Message('note_on', channel=9, note=42, velocity=0, time=9),
    Message('note_on', channel=9, note=42, velocity=43, time=111),
    Message('note_on', channel=9, note=42, velocity=0, time=10),
    Message('note_on', channel=9, note=42, velocity=127, time=110),
    Message('note_on', channel=9, note=42, velocity=0, time=8),
    Message('note_on', channel=9, note=42, velocity=43, time=112),
    Message('note_on', channel=9, note=42, velocity=0, time=9),
    Message('note_on', channel=9, note=42, velocity=127, time=111),
    Message('note_on', channel=9, note=42, velocity=0, time=9),
    Message('note_on', channel=9, note=42, velocity=43, time=111),
    Message('note_on', channel=9, note=42, velocity=0, time=10),
    Message('note_on', channel=9, note=42, velocity=127, time=110),
    Message('note_on', channel=9, note=42, velocity=0, time=8),
    Message('note_on', channel=9, note=42, velocity=127, time=232),
    Message('note_on', channel=9, note=42, velocity=0, time=9),
    Message('note_on', channel=9, note=42, velocity=43, time=111),
    Message('note_on', channel=9, note=42, velocity=0, time=10),
    Message('note_on', channel=9, note=42, velocity=127, time=110),
    Message('note_on', channel=9, note=42, velocity=0, time=8),
    Message('note_on', channel=9, note=42, velocity=43, time=112),
    Message('note_on', channel=9, note=42, velocity=0, time=8),
    Message('note_on', channel=9, note=42, velocity=127, time=112),
    Message('note_on', channel=9, note=42, velocity=0, time=9),
    Message('note_on', channel=9, note=42, velocity=43, time=111),
    Message('note_on', channel=9, note=42, velocity=0, time=10),
    Message('note_on', channel=9, note=42, velocity=127, time=110),
    Message('note_on', channel=9, note=42, velocity=0, time=9),
    Message('note_on', channel=9, note=42, velocity=43, time=111),
    Message('note_on', channel=9, note=42, velocity=0, time=8),
    Message('note_on', channel=9, note=42, velocity=127, time=112),
    Message('note_on', channel=9, note=42, velocity=0, time=9),
    Message('note_on', channel=9, note=42, velocity=43, time=111),
    Message('note_on', channel=9, note=42, velocity=0, time=10),
    Message('note_on', channel=9, note=42, velocity=127, time=110),
    Message('note_on', channel=9, note=42, velocity=0, time=8),
    Message('note_on', channel=9, note=42, velocity=43, time=112),
    Message('note_on', channel=9, note=42, velocity=0, time=9),
    Message('note_on', channel=9, note=42, velocity=127, time=111),
    Message('note_on', channel=9, note=42, velocity=0, time=9),
    Message('note_on', channel=9, note=42, velocity=43, time=111),
    Message('note_on', channel=9, note=42, velocity=0, time=9),
    Message('note_on', channel=9, note=42, velocity=127, time=111),
    Message('note_on', channel=9, note=42, velocity=0, time=8),
    Message('note_on', channel=9, note=42, velocity=127, time=232),
    Message('note_on', channel=9, note=42, velocity=0, time=9),
    Message('note_on', channel=9, note=42, velocity=43, time=111),
    Message('note_on', channel=9, note=42, velocity=0, time=10),
    Message('note_on', channel=9, note=42, velocity=127, time=110),
    Message('note_on', channel=9, note=42, velocity=0, time=8),
    Message('note_on', channel=9, note=42, velocity=43, time=112),
    Message('note_on', channel=9, note=42, velocity=0, time=8),
    Message('note_on', channel=9, note=42, velocity=127, time=112),
    Message('note_on', channel=9, note=42, velocity=0, time=9),
    Message('note_on', channel=9, note=42, velocity=43, time=111),
    Message('note_on', channel=9, note=42, velocity=0, time=9),
    Message('note_on', channel=9, note=42, velocity=127, time=111),
    Message('note_on', channel=9, note=42, velocity=0, time=9),
    Message('note_on', channel=9, note=42, velocity=43, time=111),
    Message('note_on', channel=9, note=42, velocity=0, time=10),
    Message('note_on', channel=9, note=42, velocity=127, time=110),
    Message('note_on', channel=9, note=42, velocity=0, time=8),
    Message('note_on', channel=9, note=42, velocity=43, time=112),
    Message('note_on', channel=9, note=42, velocity=0, time=8),
    Message('note_on', channel=9, note=42, velocity=127, time=112),
    Message('note_on', channel=9, note=42, velocity=0, time=9),
    Message('note_on', channel=9, note=42, velocity=43, time=111),
    Message('note_on', channel=9, note=42, velocity=0, time=9),
    Message('note_on', channel=9, note=42, velocity=127, time=111),
    Message('note_on', channel=9, note=42, velocity=0, time=8),
    Message('note_on', channel=9, note=42, velocity=43, time=112),
    Message('note_on', channel=9, note=42, velocity=0, time=8),
    Message('note_on', channel=9, note=42, velocity=127, time=112),
    Message('note_on', channel=9, note=42, velocity=0, time=9),
    Message('note_on', channel=9, note=42, velocity=127, time=231),
    Message('note_on', channel=9, note=42, velocity=0, time=9),
    Message('note_on', channel=9, note=42, velocity=43, time=111),
    Message('note_on', channel=9, note=42, velocity=0, time=8),
    Message('note_on', channel=9, note=42, velocity=127, time=112),
    Message('note_on', channel=9, note=42, velocity=0, time=9),
    Message('note_on', channel=9, note=42, velocity=43, time=111),
    Message('note_on', channel=9, note=42, velocity=0, time=10),
    Message('note_on', channel=9, note=42, velocity=127, time=110),
    Message('note_on', channel=9, note=42, velocity=0, time=9),
    Message('note_on', channel=9, note=42, velocity=43, time=111),
    Message('note_on', channel=9, note=42, velocity=0, time=8),
    Message('note_on', channel=9, note=42, velocity=127, time=112),
    Message('note_on', channel=9, note=42, velocity=0, time=9),
    Message('note_on', channel=9, note=42, velocity=43, time=111),
    Message('note_on', channel=9, note=42, velocity=0, time=9),
    Message('note_on', channel=9, note=42, velocity=127, time=111),
    Message('note_on', channel=9, note=42, velocity=0, time=9),
    Message('note_on', channel=9, note=42, velocity=43, time=111),
    Message('note_on', channel=9, note=42, velocity=0, time=10),
    Message('note_on', channel=9, note=42, velocity=127, time=110),
    Message('note_on', channel=9, note=42, velocity=0, time=8),
    Message('note_on', channel=9, note=42, velocity=43, time=112),
    Message('note_on', channel=9, note=42, velocity=0, time=9),
    Message('note_on', channel=9, note=42, velocity=127, time=111),
    Message('note_on', channel=9, note=42, velocity=0, time=9),
    Message('note_on', channel=9, note=42, velocity=43, time=111),
    Message('note_on', channel=9, note=42, velocity=0, time=10),
    Message('note_on', channel=9, note=42, velocity=127, time=110),
    Message('note_on', channel=9, note=42, velocity=0, time=9),
    Message('note_on', channel=9, note=42, velocity=127, time=231),
    Message('note_on', channel=9, note=42, velocity=0, time=9),
    Message('note_on', channel=9, note=42, velocity=43, time=111),
    Message('note_on', channel=9, note=42, velocity=0, time=10),
    Message('note_on', channel=9, note=42, velocity=127, time=110),
    Message('note_on', channel=9, note=42, velocity=0, time=9),
    Message('note_on', channel=9, note=42, velocity=43, time=111),
    Message('note_on', channel=9, note=42, velocity=0, time=8),
    Message('note_on', channel=9, note=42, velocity=127, time=112),
    Message('note_on', channel=9, note=42, velocity=0, time=9),
    Message('note_on', channel=9, note=42, velocity=43, time=111),
    Message('note_on', channel=9, note=42, velocity=0, time=10),
    Message('note_on', channel=9, note=42, velocity=127, time=110),
    Message('note_on', channel=9, note=42, velocity=0, time=7),
    Message('note_on', channel=9, note=42, velocity=43, time=113),
    Message('note_on', channel=9, note=42, velocity=0, time=8),
    Message('note_on', channel=9, note=42, velocity=127, time=112),
    Message('note_on', channel=9, note=42, velocity=0, time=9),
    Message('note_on', channel=9, note=42, velocity=43, time=111),
    Message('note_on', channel=9, note=42, velocity=0, time=10),
    Message('note_on', channel=9, note=42, velocity=127, time=110),
    Message('note_on', channel=9, note=42, velocity=0, time=8),
    Message('note_on', channel=9, note=42, velocity=43, time=112),
    Message('note_on', channel=9, note=42, velocity=0, time=8),
    Message('note_on', channel=9, note=42, velocity=127, time=112),
    Message('note_on', channel=9, note=42, velocity=0, time=9),
    Message('note_on', channel=9, note=42, velocity=43, time=111),
    Message('note_on', channel=9, note=42, velocity=0, time=9),
    Message('note_on', channel=9, note=42, velocity=127, time=111),
    Message('note_on', channel=9, note=42, velocity=0, time=8),
    Message('note_on', channel=9, note=42, velocity=127, time=232),
    Message('note_on', channel=9, note=42, velocity=0, time=9),
    Message('note_on', channel=9, note=42, velocity=43, time=111),
    Message('note_on', channel=9, note=42, velocity=0, time=9),
    Message('note_on', channel=9, note=42, velocity=127, time=111),
    Message('note_on', channel=9, note=42, velocity=0, time=8),
    Message('note_on', channel=9, note=42, velocity=43, time=112),
    Message('note_on', channel=9, note=42, velocity=0, time=9),
    Message('note_on', channel=9, note=42, velocity=127, time=111),
    Message('note_on', channel=9, note=42, velocity=0, time=9),
    Message('note_on', channel=9, note=42, velocity=43, time=111),
    Message('note_on', channel=9, note=42, velocity=0, time=8),
    Message('note_on', channel=9, note=42, velocity=127, time=112),
    Message('note_on', channel=9, note=42, velocity=0, time=9),
    Message('note_on', channel=9, note=42, velocity=43, time=111),
    Message('note_on', channel=9, note=42, velocity=0, time=10),
    Message('note_on', channel=9, note=42, velocity=127, time=110),
    Message('note_on', channel=9, note=42, velocity=0, time=7),
    Message('note_on', channel=9, note=42, velocity=43, time=113),
    Message('note_on', channel=9, note=42, velocity=0, time=8),
    Message('note_on', channel=9, note=42, velocity=127, time=112),
    Message('note_on', channel=9, note=42, velocity=0, time=9),
    Message('note_on', channel=9, note=42, velocity=43, time=111),
    Message('note_on', channel=9, note=42, velocity=0, time=9),
    Message('note_on', channel=9, note=42, velocity=127, time=111),
    Message('note_on', channel=9, note=42, velocity=0, time=8),
    Message('note_on', channel=9, note=42, velocity=43, time=112),
    Message('note_on', channel=9, note=42, velocity=0, time=8),
    Message('note_on', channel=9, note=42, velocity=127, time=112),
    Message('note_on', channel=9, note=42, velocity=0, time=9),
    Message('note_on', channel=9, note=42, velocity=127, time=231),
    Message('note_on', channel=9, note=42, velocity=0, time=9),
    Message('note_on', channel=9, note=42, velocity=43, time=111),
    Message('note_on', channel=9, note=42, velocity=0, time=8),
    Message('note_on', channel=9, note=42, velocity=127, time=112),
    Message('note_on', channel=9, note=42, velocity=0, time=9),
    Message('note_on', channel=9, note=42, velocity=43, time=111),
    Message('note_on', channel=9, note=42, velocity=0, time=10),
    Message('note_on', channel=9, note=42, velocity=127, time=110),
    Message('note_on', channel=9, note=42, velocity=0, time=9),
    Message('note_on', channel=9, note=42, velocity=43, time=111),
    Message('note_on', channel=9, note=42, velocity=0, time=8),
    Message('note_on', channel=9, note=42, velocity=127, time=112),
    Message('note_on', channel=9, note=42, velocity=0, time=9),
    Message('note_on', channel=9, note=42, velocity=43, time=111),
    Message('note_on', channel=9, note=42, velocity=0, time=9),
    Message('note_on', channel=9, note=42, velocity=127, time=111),
    Message('note_on', channel=9, note=42, velocity=0, time=8),
    Message('note_on', channel=9, note=42, velocity=43, time=112),
    Message('note_on', channel=9, note=42, velocity=0, time=9),
    Message('note_on', channel=9, note=42, velocity=127, time=111),
    Message('note_on', channel=9, note=42, velocity=0, time=9),
    Message('note_on', channel=9, note=42, velocity=43, time=111),
    Message('note_on', channel=9, note=42, velocity=0, time=8),
    Message('note_on', channel=9, note=42, velocity=127, time=112),
    Message('note_on', channel=9, note=42, velocity=0, time=9),
    Message('note_on', channel=9, note=42, velocity=43, time=111),
    Message('note_on', channel=9, note=42, velocity=0, time=9),
    Message('note_on', channel=9, note=42, velocity=127, time=111),
    Message('note_on', channel=9, note=42, velocity=0, time=9),
    Message('note_on', channel=9, note=42, velocity=127, time=231),
    Message('note_on', channel=9, note=42, velocity=0, time=9),
    Message('note_on', channel=9, note=42, velocity=43, time=111),
    Message('note_on', channel=9, note=42, velocity=0, time=8),
    Message('note_on', channel=9, note=42, velocity=127, time=112),
    Message('note_on', channel=9, note=42, velocity=0, time=8),
    Message('note_on', channel=9, note=42, velocity=43, time=112),
    Message('note_on', channel=9, note=42, velocity=0, time=9),
    Message('note_on', channel=9, note=42, velocity=127, time=111),
    Message('note_on', channel=9, note=42, velocity=0, time=9),
    Message('note_on', channel=9, note=42, velocity=43, time=111),
    Message('note_on', channel=9, note=42, velocity=0, time=10),
    Message('note_on', channel=9, note=42, velocity=127, time=110),
    Message('note_on', channel=9, note=42, velocity=0, time=9),
    Message('note_on', channel=9, note=42, velocity=43, time=111),
    Message('note_on', channel=9, note=42, velocity=0, time=10),
    Message('note_on', channel=9, note=42, velocity=127, time=110),
    Message('note_on', channel=9, note=42, velocity=0, time=9),
    Message('note_on', channel=9, note=42, velocity=43, time=111),
    Message('note_on', channel=9, note=42, velocity=0, time=10),
    Message('note_on', channel=9, note=42, velocity=127, time=110),
    Message('note_on', channel=9, note=42, velocity=0, time=9),
    Message('note_on', channel=9, note=42, velocity=43, time=111),
    Message('note_on', channel=9, note=42, velocity=0, time=9),
    Message('note_on', channel=9, note=42, velocity=127, time=111),
    Message('note_on', channel=9, note=42, velocity=0, time=9),
    Message('note_on', channel=9, note=42, velocity=43, time=111),
    Message('note_on', channel=9, note=42, velocity=0, time=10),
    Message('note_on', channel=9, note=42, velocity=127, time=110),
    Message('note_on', channel=9, note=42, velocity=0, time=9),
    Message('note_on', channel=9, note=42, velocity=127, time=231),
    Message('note_on', channel=9, note=42, velocity=0, time=8),
    Message('note_on', channel=9, note=42, velocity=43, time=112),
    Message('note_on', channel=9, note=42, velocity=0, time=10),
    Message('note_on', channel=9, note=42, velocity=127, time=110),
    Message('note_on', channel=9, note=42, velocity=0, time=10),
    Message('note_on', channel=9, note=42, velocity=43, time=110),
    Message('note_on', channel=9, note=42, velocity=0, time=9),
    Message('note_on', channel=9, note=42, velocity=127, time=111),
    Message('note_on', channel=9, note=42, velocity=0, time=8),
    Message('note_on', channel=9, note=42, velocity=43, time=112),
    Message('note_on', channel=9, note=42, velocity=0, time=9),
    Message('note_on', channel=9, note=42, velocity=127, time=111),
    Message('note_on', channel=9, note=42, velocity=0, time=9),
    Message('note_on', channel=9, note=42, velocity=43, time=111),
    Message('note_on', channel=9, note=42, velocity=0, time=9),
    Message('note_on', channel=9, note=42, velocity=127, time=111),
    Message('note_on', channel=9, note=42, velocity=0, time=8),
    Message('note_on', channel=9, note=42, velocity=43, time=112),
    Message('note_on', channel=9, note=42, velocity=0, time=8),
    Message('note_on', channel=9, note=42, velocity=127, time=112),
    Message('note_on', channel=9, note=42, velocity=0, time=9),
    Message('note_on', channel=9, note=42, velocity=43, time=111),
    Message('note_on', channel=9, note=42, velocity=0, time=8),
    Message('note_on', channel=9, note=42, velocity=127, time=112),
    Message('note_on', channel=9, note=42, velocity=0, time=8),
    Message('note_on', channel=9, note=42, velocity=43, time=112),
    Message('note_on', channel=9, note=42, velocity=0, time=9),
    Message('note_on', channel=9, note=42, velocity=127, time=111),
    Message('note_on', channel=9, note=42, velocity=0, time=9),
    Message('note_on', channel=9, note=42, velocity=127, time=231),
    Message('note_on', channel=9, note=42, velocity=0, time=8),
    Message('note_on', channel=9, note=42, velocity=43, time=112),
    Message('note_on', channel=9, note=42, velocity=0, time=10),
    Message('note_on', channel=9, note=42, velocity=127, time=110),
    Message('note_on', channel=9, note=42, velocity=0, time=9),
    Message('note_on', channel=9, note=42, velocity=43, time=111),
    Message('note_on', channel=9, note=42, velocity=0, time=9),
    Message('note_on', channel=9, note=42, velocity=127, time=111),
    Message('note_on', channel=9, note=42, velocity=0, time=8),
    Message('note_on', channel=9, note=42, velocity=43, time=112),
    Message('note_on', channel=9, note=42, velocity=0, time=9),
    Message('note_on', channel=9, note=42, velocity=127, time=111),
    Message('note_on', channel=9, note=42, velocity=0, time=8),
    Message('note_on', channel=9, note=42, velocity=43, time=112),
    Message('note_on', channel=9, note=42, velocity=0, time=9),
    Message('note_on', channel=9, note=42, velocity=127, time=111),
    Message('note_on', channel=9, note=42, velocity=0, time=8),
    Message('note_on', channel=9, note=42, velocity=43, time=112),
    Message('note_on', channel=9, note=42, velocity=0, time=9),
    Message('note_on', channel=9, note=42, velocity=127, time=111),
    Message('note_on', channel=9, note=42, velocity=0, time=9),
    Message('note_on', channel=9, note=42, velocity=43, time=111),
    Message('note_on', channel=9, note=42, velocity=0, time=9),
    Message('note_on', channel=9, note=42, velocity=127, time=111),
    Message('note_on', channel=9, note=42, velocity=0, time=8),
    Message('note_on', channel=9, note=42, velocity=43, time=112),
    Message('note_on', channel=9, note=42, velocity=0, time=9),
    Message('note_on', channel=9, note=42, velocity=127, time=111),
    Message('note_on', channel=9, note=42, velocity=0, time=8),
    Message('note_on', channel=9, note=42, velocity=127, time=232),
    Message('note_on', channel=9, note=42, velocity=0, time=8),
    Message('note_on', channel=9, note=42, velocity=43, time=112),
    Message('note_on', channel=9, note=42, velocity=0, time=10),
    Message('note_on', channel=9, note=42, velocity=127, time=110),
    Message('note_on', channel=9, note=42, velocity=0, time=9),
    Message('note_on', channel=9, note=42, velocity=43, time=111),
    Message('note_on', channel=9, note=42, velocity=0, time=9),
    Message('note_on', channel=9, note=42, velocity=127, time=111),
    Message('note_on', channel=9, note=42, velocity=0, time=8),
    Message('note_on', channel=9, note=42, velocity=43, time=112),
    Message('note_on', channel=9, note=42, velocity=0, time=9),
    Message('note_on', channel=9, note=42, velocity=127, time=111),
    Message('note_on', channel=9, note=42, velocity=0, time=8),
    Message('note_on', channel=9, note=42, velocity=43, time=112),
    Message('note_on', channel=9, note=42, velocity=0, time=9),
    Message('note_on', channel=9, note=42, velocity=127, time=111),
    Message('note_on', channel=9, note=42, velocity=0, time=8),
    Message('note_on', channel=9, note=42, velocity=43, time=112),
    Message('note_on', channel=9, note=42, velocity=0, time=9),
    Message('note_on', channel=9, note=42, velocity=127, time=111),
    Message('note_on', channel=9, note=42, velocity=0, time=7),
    Message('note_on', channel=9, note=42, velocity=43, time=113),
    Message('note_on', channel=9, note=42, velocity=0, time=8),
    Message('note_on', channel=9, note=42, velocity=127, time=112),
    Message('note_on', channel=9, note=42, velocity=0, time=8),
    Message('note_on', channel=9, note=42, velocity=43, time=112),
    Message('note_on', channel=9, note=42, velocity=0, time=9),
    Message('note_on', channel=9, note=42, velocity=127, time=111),
    Message('note_on', channel=9, note=42, velocity=0, time=8),
    Message('note_on', channel=9, note=42, velocity=127, time=232),
    Message('note_on', channel=9, note=42, velocity=0, time=9),
    Message('note_on', channel=9, note=42, velocity=43, time=111),
    Message('note_on', channel=9, note=42, velocity=0, time=10),
    Message('note_on', channel=9, note=42, velocity=127, time=110),
    Message('note_on', channel=9, note=42, velocity=0, time=9),
    Message('note_on', channel=9, note=42, velocity=43, time=111),
    Message('note_on', channel=9, note=42, velocity=0, time=8),
    Message('note_on', channel=9, note=42, velocity=127, time=112),
    Message('note_on', channel=9, note=42, velocity=0, time=7),
    Message('note_on', channel=9, note=42, velocity=43, time=113),
    Message('note_on', channel=9, note=42, velocity=0, time=9),
    Message('note_on', channel=9, note=42, velocity=127, time=111),
    Message('note_on', channel=9, note=42, velocity=0, time=7),
    Message('note_on', channel=9, note=42, velocity=43, time=113),
    Message('note_on', channel=9, note=42, velocity=0, time=9),
    Message('note_on', channel=9, note=42, velocity=127, time=111),
    Message('note_on', channel=9, note=42, velocity=0, time=8),
    Message('note_on', channel=9, note=42, velocity=43, time=112),
    Message('note_on', channel=9, note=42, velocity=0, time=9),
    Message('note_on', channel=9, note=42, velocity=127, time=111),
    Message('note_on', channel=9, note=42, velocity=0, time=7),
    Message('note_on', channel=9, note=42, velocity=43, time=113),
    Message('note_on', channel=9, note=42, velocity=0, time=8),
    Message('note_on', channel=9, note=42, velocity=127, time=112),
    Message('note_on', channel=9, note=42, velocity=0, time=9),
    Message('note_on', channel=9, note=42, velocity=43, time=111),
    Message('note_on', channel=9, note=42, velocity=0, time=9),
    Message('note_on', channel=9, note=42, velocity=127, time=111),
    Message('note_on', channel=9, note=42, velocity=0, time=7),
    Message('note_on', channel=9, note=42, velocity=127, time=233),
    Message('note_on', channel=9, note=42, velocity=0, time=8),
    Message('note_on', channel=9, note=42, velocity=43, time=112),
    Message('note_on', channel=9, note=42, velocity=0, time=9),
    Message('note_on', channel=9, note=42, velocity=127, time=111),
    Message('note_on', channel=9, note=42, velocity=0, time=7),
    Message('note_on', channel=9, note=42, velocity=43, time=113),
    Message('note_on', channel=9, note=42, velocity=0, time=9),
    Message('note_on', channel=9, note=42, velocity=127, time=111),
    Message('note_on', channel=9, note=42, velocity=0, time=7),
    Message('note_on', channel=9, note=42, velocity=43, time=113),
    Message('note_on', channel=9, note=42, velocity=0, time=9),
    Message('note_on', channel=9, note=42, velocity=127, time=111),
    Message('note_on', channel=9, note=42, velocity=0, time=8),
    Message('note_on', channel=9, note=42, velocity=43, time=112),
    Message('note_on', channel=9, note=42, velocity=0, time=9),
    Message('note_on', channel=9, note=42, velocity=127, time=111),
    Message('note_on', channel=9, note=42, velocity=0, time=7),
    Message('note_on', channel=9, note=42, velocity=43, time=113),
    Message('note_on', channel=9, note=42, velocity=0, time=8),
    Message('note_on', channel=9, note=42, velocity=127, time=112),
    Message('note_on', channel=9, note=42, velocity=0, time=7),
    Message('note_on', channel=9, note=42, velocity=43, time=113),
    Message('note_on', channel=9, note=42, velocity=0, time=8),
    Message('note_on', channel=9, note=42, velocity=127, time=112),
    Message('note_on', channel=9, note=42, velocity=0, time=8),
    Message('note_on', channel=9, note=42, velocity=43, time=112),
    Message('note_on', channel=9, note=42, velocity=0, time=8),
    Message('note_on', channel=9, note=42, velocity=127, time=112),
    Message('note_on', channel=9, note=42, velocity=0, time=8),
    Message('note_on', channel=9, note=42, velocity=127, time=232),
    Message('note_on', channel=9, note=42, velocity=0, time=8),
    Message('note_on', channel=9, note=42, velocity=43, time=112),
    Message('note_on', channel=9, note=42, velocity=0, time=8),
    Message('note_on', channel=9, note=42, velocity=127, time=112),
    Message('note_on', channel=9, note=42, velocity=0, time=9),
    Message('note_on', channel=9, note=42, velocity=43, time=111),
    Message('note_on', channel=9, note=42, velocity=0, time=9),
    Message('note_on', channel=9, note=42, velocity=127, time=111),
    Message('note_on', channel=9, note=42, velocity=0, time=9),
    Message('note_on', channel=9, note=42, velocity=43, time=111),
    Message('note_on', channel=9, note=42, velocity=0, time=8),
    Message('note_on', channel=9, note=42, velocity=127, time=112),
    Message('note_on', channel=9, note=42, velocity=0, time=9),
    Message('note_on', channel=9, note=42, velocity=43, time=111),
    Message('note_on', channel=9, note=42, velocity=0, time=10),
    Message('note_on', channel=9, note=42, velocity=127, time=110),
    Message('note_on', channel=9, note=42, velocity=0, time=8),
    Message('note_on', channel=9, note=42, velocity=43, time=112),
    Message('note_on', channel=9, note=42, velocity=0, time=8),
    Message('note_on', channel=9, note=42, velocity=127, time=112),
    Message('note_on', channel=9, note=42, velocity=0, time=9),
    Message('note_on', channel=9, note=42, velocity=43, time=111),
    Message('note_on', channel=9, note=42, velocity=0, time=9),
    Message('note_on', channel=9, note=42, velocity=127, time=111),
    Message('note_on', channel=9, note=42, velocity=0, time=9),
    Message('note_on', channel=9, note=42, velocity=43, time=111),
    Message('note_on', channel=9, note=42, velocity=0, time=8),
    Message('note_on', channel=9, note=42, velocity=127, time=112),
    Message('note_on', channel=9, note=42, velocity=0, time=9),
    Message('note_on', channel=9, note=42, velocity=127, time=471),
    Message('note_on', channel=9, note=42, velocity=0, time=8),
    Message('note_on', channel=9, note=42, velocity=127, time=472),
    Message('note_on', channel=9, note=42, velocity=0, time=8),
    Message('note_on', channel=9, note=42, velocity=127, time=472),
    Message('note_on', channel=9, note=42, velocity=0, time=10),
    Message('note_on', channel=9, note=42, velocity=127, time=710),
    Message('note_on', channel=9, note=42, velocity=0, time=9),
    Message('note_on', channel=9, note=42, velocity=43, time=111),
    Message('note_on', channel=9, note=42, velocity=0, time=8),
    Message('note_on', channel=9, note=42, velocity=127, time=112),
    Message('note_on', channel=9, note=42, velocity=0, time=7),
    Message('note_on', channel=9, note=42, velocity=43, time=113),
    Message('note_on', channel=9, note=42, velocity=0, time=9),
    Message('note_on', channel=9, note=42, velocity=127, time=111),
    Message('note_on', channel=9, note=42, velocity=0, time=9),
    Message('note_on', channel=9, note=42, velocity=43, time=111),
    Message('note_on', channel=9, note=42, velocity=0, time=10),
    Message('note_on', channel=9, note=42, velocity=127, time=110),
    Message('note_on', channel=9, note=42, velocity=0, time=9),
    Message('note_on', channel=9, note=42, velocity=43, time=111),
    Message('note_on', channel=9, note=42, velocity=0, time=8),
    Message('note_on', channel=9, note=42, velocity=127, time=112),
    Message('note_on', channel=9, note=42, velocity=0, time=9),
    Message('note_on', channel=9, note=42, velocity=43, time=111),
    Message('note_on', channel=9, note=42, velocity=0, time=10),
    Message('note_on', channel=9, note=42, velocity=127, time=110),
    Message('note_on', channel=9, note=42, velocity=0, time=8),
    Message('note_on', channel=9, note=42, velocity=43, time=112),
    Message('note_on', channel=9, note=42, velocity=0, time=8),
    Message('note_on', channel=9, note=42, velocity=127, time=112),
    Message('note_on', channel=9, note=42, velocity=0, time=9),
    Message('note_on', channel=9, note=42, velocity=43, time=111),
    Message('note_on', channel=9, note=42, velocity=0, time=10),
    Message('note_on', channel=9, note=42, velocity=127, time=110),
    Message('note_on', channel=9, note=42, velocity=0, time=9),
    Message('note_on', channel=9, note=42, velocity=127, time=231),
    Message('note_on', channel=9, note=42, velocity=0, time=9),
    Message('note_on', channel=9, note=42, velocity=43, time=111),
    Message('note_on', channel=9, note=42, velocity=0, time=10),
    Message('note_on', channel=9, note=42, velocity=127, time=110),
    Message('note_on', channel=9, note=42, velocity=0, time=8),
    Message('note_on', channel=9, note=42, velocity=43, time=112),
    Message('note_on', channel=9, note=42, velocity=0, time=9),
    Message('note_on', channel=9, note=42, velocity=127, time=111),
    Message('note_on', channel=9, note=42, velocity=0, time=9),
    Message('note_on', channel=9, note=42, velocity=43, time=111),
    Message('note_on', channel=9, note=42, velocity=0, time=10),
    Message('note_on', channel=9, note=42, velocity=127, time=110),
    Message('note_on', channel=9, note=42, velocity=0, time=8),
    Message('note_on', channel=9, note=42, velocity=43, time=112),
    Message('note_on', channel=9, note=42, velocity=0, time=8),
    Message('note_on', channel=9, note=42, velocity=127, time=112),
    Message('note_on', channel=9, note=42, velocity=0, time=9),
    Message('note_on', channel=9, note=42, velocity=43, time=111),
    Message('note_on', channel=9, note=42, velocity=0, time=10),
    Message('note_on', channel=9, note=42, velocity=127, time=110),
    Message('note_on', channel=9, note=42, velocity=0, time=7),
    Message('note_on', channel=9, note=42, velocity=43, time=113),
    Message('note_on', channel=9, note=42, velocity=0, time=9),
    Message('note_on', channel=9, note=42, velocity=127, time=111),
    Message('note_on', channel=9, note=42, velocity=0, time=9),
    Message('note_on', channel=9, note=42, velocity=43, time=111),
    Message('note_on', channel=9, note=42, velocity=0, time=8),
    Message('note_on', channel=9, note=42, velocity=127, time=112),
    Message('note_on', channel=9, note=42, velocity=0, time=9),
    Message('note_on', channel=9, note=42, velocity=127, time=231),
    Message('note_on', channel=9, note=42, velocity=0, time=9),
    Message('note_on', channel=9, note=42, velocity=43, time=111),
    Message('note_on', channel=9, note=42, velocity=0, time=8),
    Message('note_on', channel=9, note=42, velocity=127, time=112),
    Message('note_on', channel=9, note=42, velocity=0, time=7),
    Message('note_on', channel=9, note=42, velocity=43, time=113),
    Message('note_on', channel=9, note=42, velocity=0, time=8),
    Message('note_on', channel=9, note=42, velocity=127, time=112),
    Message('note_on', channel=9, note=42, velocity=0, time=9),
    Message('note_on', channel=9, note=42, velocity=43, time=111),
    Message('note_on', channel=9, note=42, velocity=0, time=10),
    Message('note_on', channel=9, note=42, velocity=127, time=110),
    Message('note_on', channel=9, note=42, velocity=0, time=8),
    Message('note_on', channel=9, note=42, velocity=43, time=112),
    Message('note_on', channel=9, note=42, velocity=0, time=8),
    Message('note_on', channel=9, note=42, velocity=127, time=112),
    Message('note_on', channel=9, note=42, velocity=0, time=9),
    Message('note_on', channel=9, note=42, velocity=43, time=111),
    Message('note_on', channel=9, note=42, velocity=0, time=10),
    Message('note_on', channel=9, note=42, velocity=127, time=110),
    Message('note_on', channel=9, note=42, velocity=0, time=9),
    Message('note_on', channel=9, note=42, velocity=43, time=111),
    Message('note_on', channel=9, note=42, velocity=0, time=9),
    Message('note_on', channel=9, note=42, velocity=127, time=111),
    Message('note_on', channel=9, note=42, velocity=0, time=9),
    Message('note_on', channel=9, note=42, velocity=43, time=111),
    Message('note_on', channel=9, note=42, velocity=0, time=9),
    Message('note_on', channel=9, note=42, velocity=127, time=111),
    Message('note_on', channel=9, note=42, velocity=0, time=9),
    Message('note_on', channel=9, note=42, velocity=127, time=231),
    Message('note_on', channel=9, note=42, velocity=0, time=9),
    Message('note_on', channel=9, note=42, velocity=43, time=111),
    Message('note_on', channel=9, note=42, velocity=0, time=9),
    Message('note_on', channel=9, note=42, velocity=127, time=111),
    Message('note_on', channel=9, note=42, velocity=0, time=8),
    Message('note_on', channel=9, note=42, velocity=43, time=112),
    Message('note_on', channel=9, note=42, velocity=0, time=9),
    Message('note_on', channel=9, note=42, velocity=127, time=111),
    Message('note_on', channel=9, note=42, velocity=0, time=9),
    Message('note_on', channel=9, note=42, velocity=43, time=111),
    Message('note_on', channel=9, note=42, velocity=0, time=8),
    Message('note_on', channel=9, note=42, velocity=127, time=112),
    Message('note_on', channel=9, note=42, velocity=0, time=9),
    Message('note_on', channel=9, note=42, velocity=43, time=111),
    Message('note_on', channel=9, note=42, velocity=0, time=10),
    Message('note_on', channel=9, note=42, velocity=127, time=110),
    Message('note_on', channel=9, note=42, velocity=0, time=8),
    Message('note_on', channel=9, note=42, velocity=43, time=112),
    Message('note_on', channel=9, note=42, velocity=0, time=8),
    Message('note_on', channel=9, note=42, velocity=127, time=112),
    Message('note_on', channel=9, note=42, velocity=0, time=9),
    Message('note_on', channel=9, note=42, velocity=43, time=111),
    Message('note_on', channel=9, note=42, velocity=0, time=8),
    Message('note_on', channel=9, note=42, velocity=127, time=112),
    Message('note_on', channel=9, note=42, velocity=0, time=8),
    Message('note_on', channel=9, note=42, velocity=43, time=112),
    Message('note_on', channel=9, note=42, velocity=0, time=9),
    Message('note_on', channel=9, note=42, velocity=127, time=111),
    Message('note_on', channel=9, note=42, velocity=0, time=8),
    Message('note_on', channel=9, note=42, velocity=127, time=232),
    Message('note_on', channel=9, note=42, velocity=0, time=9),
    Message('note_on', channel=9, note=42, velocity=43, time=111),
    Message('note_on', channel=9, note=42, velocity=0, time=9),
    Message('note_on', channel=9, note=42, velocity=127, time=111),
    Message('note_on', channel=9, note=42, velocity=0, time=7),
    Message('note_on', channel=9, note=42, velocity=43, time=113),
    Message('note_on', channel=9, note=42, velocity=0, time=8),
    Message('note_on', channel=9, note=42, velocity=127, time=112),
    Message('note_on', channel=9, note=42, velocity=0, time=9),
    Message('note_on', channel=9, note=42, velocity=43, time=111),
    Message('note_on', channel=9, note=42, velocity=0, time=10),
    Message('note_on', channel=9, note=42, velocity=127, time=110),
    Message('note_on', channel=9, note=42, velocity=0, time=8),
    Message('note_on', channel=9, note=42, velocity=43, time=112),
    Message('note_on', channel=9, note=42, velocity=0, time=8),
    Message('note_on', channel=9, note=42, velocity=127, time=112),
    Message('note_on', channel=9, note=42, velocity=0, time=9),
    Message('note_on', channel=9, note=42, velocity=43, time=111),
    Message('note_on', channel=9, note=42, velocity=0, time=10),
    Message('note_on', channel=9, note=42, velocity=127, time=110),
    Message('note_on', channel=9, note=42, velocity=0, time=8),
    Message('note_on', channel=9, note=42, velocity=43, time=112),
    Message('note_on', channel=9, note=42, velocity=0, time=8),
    Message('note_on', channel=9, note=42, velocity=127, time=112),
    Message('note_on', channel=9, note=42, velocity=0, time=9),
    Message('note_on', channel=9, note=42, velocity=43, time=111),
    Message('note_on', channel=9, note=42, velocity=0, time=9),
    Message('note_on', channel=9, note=42, velocity=127, time=111),
    Message('note_on', channel=9, note=42, velocity=0, time=8),
    Message('note_on', channel=9, note=42, velocity=127, time=232),
    Message('note_on', channel=9, note=42, velocity=0, time=9),
    Message('note_on', channel=9, note=42, velocity=43, time=111),
    Message('note_on', channel=9, note=42, velocity=0, time=9),
    Message('note_on', channel=9, note=42, velocity=127, time=111),
    Message('note_on', channel=9, note=42, velocity=0, time=8),
    Message('note_on', channel=9, note=42, velocity=43, time=112),
    Message('note_on', channel=9, note=42, velocity=0, time=9),
    Message('note_on', channel=9, note=42, velocity=127, time=111),
    Message('note_on', channel=9, note=42, velocity=0, time=9),
    Message('note_on', channel=9, note=42, velocity=43, time=111),
    Message('note_on', channel=9, note=42, velocity=0, time=8),
    Message('note_on', channel=9, note=42, velocity=127, time=112),
    Message('note_on', channel=9, note=42, velocity=0, time=9),
    Message('note_on', channel=9, note=42, velocity=43, time=111),
    Message('note_on', channel=9, note=42, velocity=0, time=8),
    Message('note_on', channel=9, note=42, velocity=127, time=112),
    Message('note_on', channel=9, note=42, velocity=0, time=9),
    Message('note_on', channel=9, note=42, velocity=43, time=111),
    Message('note_on', channel=9, note=42, velocity=0, time=8),
    Message('note_on', channel=9, note=42, velocity=127, time=112),
    Message('note_on', channel=9, note=42, velocity=0, time=9),
    Message('note_on', channel=9, note=42, velocity=43, time=111),
    Message('note_on', channel=9, note=42, velocity=0, time=9),
    Message('note_on', channel=9, note=42, velocity=127, time=111),
    Message('note_on', channel=9, note=42, velocity=0, time=7),
    Message('note_on', channel=9, note=42, velocity=43, time=113),
    Message('note_on', channel=9, note=42, velocity=0, time=8),
    Message('note_on', channel=9, note=42, velocity=127, time=112),
    Message('note_on', channel=9, note=42, velocity=0, time=9),
    Message('note_on', channel=9, note=42, velocity=127, time=231),
    Message('note_on', channel=9, note=42, velocity=0, time=8),
    Message('note_on', channel=9, note=42, velocity=43, time=112),
    Message('note_on', channel=9, note=42, velocity=0, time=8),
    Message('note_on', channel=9, note=42, velocity=127, time=112),
    Message('note_on', channel=9, note=42, velocity=0, time=9),
    Message('note_on', channel=9, note=42, velocity=43, time=111),
    Message('note_on', channel=9, note=42, velocity=0, time=8),
    Message('note_on', channel=9, note=42, velocity=127, time=112),
    Message('note_on', channel=9, note=42, velocity=0, time=8),
    Message('note_on', channel=9, note=42, velocity=43, time=112),
    Message('note_on', channel=9, note=42, velocity=0, time=8),
    Message('note_on', channel=9, note=42, velocity=127, time=112),
    Message('note_on', channel=9, note=42, velocity=0, time=9),
    Message('note_on', channel=9, note=42, velocity=43, time=111),
    Message('note_on', channel=9, note=42, velocity=0, time=10),
    Message('note_on', channel=9, note=42, velocity=127, time=110),
    Message('note_on', channel=9, note=42, velocity=0, time=8),
    Message('note_on', channel=9, note=42, velocity=43, time=112),
    Message('note_on', channel=9, note=42, velocity=0, time=8),
    Message('note_on', channel=9, note=42, velocity=127, time=112),
    Message('note_on', channel=9, note=42, velocity=0, time=9),
    Message('note_on', channel=9, note=42, velocity=43, time=111),
    Message('note_on', channel=9, note=42, velocity=0, time=9),
    Message('note_on', channel=9, note=42, velocity=127, time=111),
    Message('note_on', channel=9, note=42, velocity=0, time=8),
    Message('note_on', channel=9, note=42, velocity=43, time=112),
    Message('note_on', channel=9, note=42, velocity=0, time=8),
    Message('note_on', channel=9, note=42, velocity=127, time=112),
    Message('note_on', channel=9, note=42, velocity=0, time=9),
    Message('note_on', channel=9, note=42, velocity=127, time=231),
    Message('note_on', channel=9, note=42, velocity=0, time=8),
    Message('note_on', channel=9, note=42, velocity=43, time=112),
    Message('note_on', channel=9, note=42, velocity=0, time=8),
    Message('note_on', channel=9, note=42, velocity=127, time=112),
    Message('note_on', channel=9, note=42, velocity=0, time=9),
    Message('note_on', channel=9, note=42, velocity=43, time=111),
    Message('note_on', channel=9, note=42, velocity=0, time=9),
    Message('note_on', channel=9, note=42, velocity=127, time=111),
    Message('note_on', channel=9, note=42, velocity=0, time=9),
    Message('note_on', channel=9, note=42, velocity=43, time=111),
    Message('note_on', channel=9, note=42, velocity=0, time=8),
    Message('note_on', channel=9, note=42, velocity=127, time=112),
    Message('note_on', channel=9, note=42, velocity=0, time=9),
    Message('note_on', channel=9, note=42, velocity=43, time=111),
    Message('note_on', channel=9, note=42, velocity=0, time=10),
    Message('note_on', channel=9, note=42, velocity=127, time=110),
    Message('note_on', channel=9, note=42, velocity=0, time=8),
    Message('note_on', channel=9, note=42, velocity=43, time=112),
    Message('note_on', channel=9, note=42, velocity=0, time=8),
    Message('note_on', channel=9, note=42, velocity=127, time=112),
    Message('note_on', channel=9, note=42, velocity=0, time=9),
    Message('note_on', channel=9, note=42, velocity=43, time=111),
    Message('note_on', channel=9, note=42, velocity=0, time=9),
    Message('note_on', channel=9, note=42, velocity=127, time=111),
    Message('note_on', channel=9, note=42, velocity=0, time=9),
    Message('note_on', channel=9, note=42, velocity=43, time=111),
    Message('note_on', channel=9, note=42, velocity=0, time=8),
    Message('note_on', channel=9, note=42, velocity=127, time=112),
    Message('note_on', channel=9, note=42, velocity=0, time=9),
    Message('note_on', channel=9, note=42, velocity=127, time=231),
    Message('note_on', channel=9, note=42, velocity=0, time=9),
    Message('note_on', channel=9, note=42, velocity=43, time=111),
    Message('note_on', channel=9, note=42, velocity=0, time=8),
    Message('note_on', channel=9, note=42, velocity=127, time=112),
    Message('note_on', channel=9, note=42, velocity=0, time=9),
    Message('note_on', channel=9, note=42, velocity=43, time=111),
    Message('note_on', channel=9, note=42, velocity=0, time=9),
    Message('note_on', channel=9, note=42, velocity=127, time=111),
    Message('note_on', channel=9, note=42, velocity=0, time=8),
    Message('note_on', channel=9, note=42, velocity=43, time=112),
    Message('note_on', channel=9, note=42, velocity=0, time=8),
    Message('note_on', channel=9, note=42, velocity=127, time=112),
    Message('note_on', channel=9, note=42, velocity=0, time=9),
    Message('note_on', channel=9, note=42, velocity=43, time=111),
    Message('note_on', channel=9, note=42, velocity=0, time=10),
    Message('note_on', channel=9, note=42, velocity=127, time=110),
    Message('note_on', channel=9, note=42, velocity=0, time=9),
    Message('note_on', channel=9, note=42, velocity=43, time=111),
    Message('note_on', channel=9, note=42, velocity=0, time=8),
    Message('note_on', channel=9, note=42, velocity=127, time=112),
    Message('note_on', channel=9, note=42, velocity=0, time=9),
    Message('note_on', channel=9, note=42, velocity=43, time=111),
    Message('note_on', channel=9, note=42, velocity=0, time=9),
    Message('note_on', channel=9, note=42, velocity=127, time=111),
    Message('note_on', channel=9, note=42, velocity=0, time=9),
    Message('note_on', channel=9, note=42, velocity=43, time=111),
    Message('note_on', channel=9, note=42, velocity=0, time=9),
    Message('note_on', channel=9, note=42, velocity=127, time=111),
    Message('note_on', channel=9, note=42, velocity=0, time=7),
    MetaMessage('end_of_track', time=0)]),
  MidiTrack([
    MetaMessage('midi_port', port=0, time=0),
    MetaMessage('track_name', name='Crash Cymbal', time=0),
    Message('program_change', channel=9, program=0, time=0),
    Message('note_on', channel=9, note=49, velocity=127, time=8640),
    Message('note_on', channel=9, note=49, velocity=0, time=9),
    Message('note_on', channel=9, note=49, velocity=127, time=24951),
    Message('note_on', channel=9, note=49, velocity=0, time=8),
    Message('note_on', channel=9, note=49, velocity=127, time=24952),
    Message('note_on', channel=9, note=49, velocity=0, time=8),
    Message('note_on', channel=9, note=49, velocity=127, time=7672),
    Message('note_on', channel=9, note=49, velocity=0, time=9),
    Message('note_on', channel=9, note=49, velocity=127, time=7671),
    Message('note_on', channel=9, note=49, velocity=0, time=9),
    Message('note_on', channel=9, note=49, velocity=127, time=7551),
    Message('note_on', channel=9, note=49, velocity=0, time=8),
    Message('note_on', channel=9, note=49, velocity=127, time=1912),
    Message('note_on', channel=9, note=49, velocity=0, time=8),
    Message('note_on', channel=9, note=49, velocity=127, time=3832),
    Message('note_on', channel=9, note=49, velocity=0, time=8),
    Message('note_on', channel=9, note=49, velocity=127, time=2032),
    Message('note_on', channel=9, note=49, velocity=0, time=9),
    Message('note_on', channel=9, note=49, velocity=127, time=3831),
    Message('note_on', channel=9, note=49, velocity=0, time=10),
    Message('note_on', channel=9, note=49, velocity=127, time=3830),
    Message('note_on', channel=9, note=49, velocity=0, time=9),
    Message('note_on', channel=9, note=49, velocity=127, time=1911),
    Message('note_on', channel=9, note=49, velocity=0, time=9),
    Message('note_on', channel=9, note=49, velocity=127, time=3831),
    Message('note_on', channel=9, note=49, velocity=0, time=8),
    Message('note_on', channel=9, note=49, velocity=127, time=3832),
    Message('note_on', channel=9, note=49, velocity=0, time=9),
    MetaMessage('end_of_track', time=0)]),
  MidiTrack([
    MetaMessage('midi_port', port=0, time=0),
    MetaMessage('track_name', name='Ride Symbol', time=0),
    Message('program_change', channel=9, program=0, time=0),
    Message('note_on', channel=9, note=51, velocity=127, time=58560),
    Message('note_on', channel=9, note=51, velocity=0, time=9),
    Message('note_on', channel=9, note=51, velocity=127, time=231),
    Message('note_on', channel=9, note=51, velocity=0, time=8),
    Message('note_on', channel=9, note=51, velocity=127, time=232),
    Message('note_on', channel=9, note=51, velocity=0, time=9),
    Message('note_on', channel=9, note=51, velocity=127, time=231),
    Message('note_on', channel=9, note=51, velocity=0, time=8),
    Message('note_on', channel=9, note=51, velocity=127, time=232),
    Message('note_on', channel=9, note=51, velocity=0, time=8),
    Message('note_on', channel=9, note=51, velocity=127, time=232),
    Message('note_on', channel=9, note=51, velocity=0, time=8),
    Message('note_on', channel=9, note=51, velocity=127, time=232),
    Message('note_on', channel=9, note=51, velocity=0, time=9),
    Message('note_on', channel=9, note=51, velocity=127, time=231),
    Message('note_on', channel=9, note=51, velocity=0, time=8),
    Message('note_on', channel=9, note=51, velocity=127, time=232),
    Message('note_on', channel=9, note=51, velocity=0, time=9),
    Message('note_on', channel=9, note=51, velocity=127, time=231),
    Message('note_on', channel=9, note=51, velocity=0, time=8),
    Message('note_on', channel=9, note=51, velocity=127, time=232),
    Message('note_on', channel=9, note=51, velocity=0, time=8),
    Message('note_on', channel=9, note=51, velocity=127, time=232),
    Message('note_on', channel=9, note=51, velocity=0, time=9),
    Message('note_on', channel=9, note=51, velocity=127, time=231),
    Message('note_on', channel=9, note=51, velocity=0, time=8),
    Message('note_on', channel=9, note=51, velocity=127, time=232),
    Message('note_on', channel=9, note=51, velocity=0, time=8),
    Message('note_on', channel=9, note=51, velocity=127, time=232),
    Message('note_on', channel=9, note=51, velocity=0, time=9),
    Message('note_on', channel=9, note=51, velocity=127, time=231),
    Message('note_on', channel=9, note=51, velocity=0, time=9),
    Message('note_on', channel=9, note=51, velocity=127, time=231),
    Message('note_on', channel=9, note=51, velocity=0, time=9),
    Message('note_on', channel=9, note=51, velocity=127, time=231),
    Message('note_on', channel=9, note=51, velocity=0, time=8),
    Message('note_on', channel=9, note=51, velocity=127, time=232),
    Message('note_on', channel=9, note=51, velocity=0, time=9),
    Message('note_on', channel=9, note=51, velocity=127, time=231),
    Message('note_on', channel=9, note=51, velocity=0, time=8),
    Message('note_on', channel=9, note=51, velocity=127, time=232),
    Message('note_on', channel=9, note=51, velocity=0, time=9),
    Message('note_on', channel=9, note=51, velocity=127, time=231),
    Message('note_on', channel=9, note=51, velocity=0, time=8),
    Message('note_on', channel=9, note=51, velocity=127, time=232),
    Message('note_on', channel=9, note=51, velocity=0, time=9),
    Message('note_on', channel=9, note=51, velocity=127, time=231),
    Message('note_on', channel=9, note=51, velocity=0, time=9),
    Message('note_on', channel=9, note=51, velocity=127, time=231),
    Message('note_on', channel=9, note=51, velocity=0, time=9),
    Message('note_on', channel=9, note=51, velocity=127, time=231),
    Message('note_on', channel=9, note=51, velocity=0, time=8),
    Message('note_on', channel=9, note=51, velocity=127, time=232),
    Message('note_on', channel=9, note=51, velocity=0, time=9),
    Message('note_on', channel=9, note=51, velocity=127, time=231),
    Message('note_on', channel=9, note=51, velocity=0, time=8),
    Message('note_on', channel=9, note=51, velocity=127, time=232),
    Message('note_on', channel=9, note=51, velocity=0, time=7),
    Message('note_on', channel=9, note=51, velocity=127, time=233),
    Message('note_on', channel=9, note=51, velocity=0, time=8),
    Message('note_on', channel=9, note=51, velocity=127, time=232),
    Message('note_on', channel=9, note=51, velocity=0, time=7),
    Message('note_on', channel=9, note=51, velocity=127, time=233),
    Message('note_on', channel=9, note=51, velocity=0, time=9),
    Message('note_on', channel=9, note=51, velocity=127, time=231),
    Message('note_on', channel=9, note=51, velocity=0, time=8),
    Message('note_on', channel=9, note=51, velocity=127, time=232),
    Message('note_on', channel=9, note=51, velocity=0, time=9),
    Message('note_on', channel=9, note=51, velocity=127, time=231),
    Message('note_on', channel=9, note=51, velocity=0, time=9),
    Message('note_on', channel=9, note=51, velocity=127, time=231),
    Message('note_on', channel=9, note=51, velocity=0, time=9),
    Message('note_on', channel=9, note=51, velocity=127, time=231),
    Message('note_on', channel=9, note=51, velocity=0, time=8),
    Message('note_on', channel=9, note=51, velocity=127, time=232),
    Message('note_on', channel=9, note=51, velocity=0, time=8),
    Message('note_on', channel=9, note=51, velocity=127, time=232),
    Message('note_on', channel=9, note=51, velocity=0, time=9),
    Message('note_on', channel=9, note=51, velocity=127, time=231),
    Message('note_on', channel=9, note=51, velocity=0, time=8),
    Message('note_on', channel=9, note=51, velocity=127, time=232),
    Message('note_on', channel=9, note=51, velocity=0, time=9),
    Message('note_on', channel=9, note=51, velocity=127, time=231),
    Message('note_on', channel=9, note=51, velocity=0, time=8),
    Message('note_on', channel=9, note=51, velocity=127, time=232),
    Message('note_on', channel=9, note=51, velocity=0, time=8),
    Message('note_on', channel=9, note=51, velocity=127, time=232),
    Message('note_on', channel=9, note=51, velocity=0, time=8),
    Message('note_on', channel=9, note=51, velocity=127, time=232),
    Message('note_on', channel=9, note=51, velocity=0, time=9),
    Message('note_on', channel=9, note=51, velocity=127, time=231),
    Message('note_on', channel=9, note=51, velocity=0, time=8),
    Message('note_on', channel=9, note=51, velocity=127, time=232),
    Message('note_on', channel=9, note=51, velocity=0, time=9),
    Message('note_on', channel=9, note=51, velocity=127, time=231),
    Message('note_on', channel=9, note=51, velocity=0, time=9),
    Message('note_on', channel=9, note=51, velocity=127, time=231),
    Message('note_on', channel=9, note=51, velocity=0, time=9),
    Message('note_on', channel=9, note=51, velocity=127, time=231),
    Message('note_on', channel=9, note=51, velocity=0, time=8),
    Message('note_on', channel=9, note=51, velocity=127, time=232),
    Message('note_on', channel=9, note=51, velocity=0, time=9),
    Message('note_on', channel=9, note=51, velocity=127, time=231),
    Message('note_on', channel=9, note=51, velocity=0, time=8),
    Message('note_on', channel=9, note=51, velocity=127, time=232),
    Message('note_on', channel=9, note=51, velocity=0, time=8),
    Message('note_on', channel=9, note=51, velocity=127, time=232),
    Message('note_on', channel=9, note=51, velocity=0, time=9),
    Message('note_on', channel=9, note=51, velocity=127, time=231),
    Message('note_on', channel=9, note=51, velocity=0, time=8),
    Message('note_on', channel=9, note=51, velocity=127, time=232),
    Message('note_on', channel=9, note=51, velocity=0, time=9),
    Message('note_on', channel=9, note=51, velocity=127, time=231),
    Message('note_on', channel=9, note=51, velocity=0, time=8),
    Message('note_on', channel=9, note=51, velocity=127, time=232),
    Message('note_on', channel=9, note=51, velocity=0, time=8),
    Message('note_on', channel=9, note=51, velocity=127, time=232),
    Message('note_on', channel=9, note=51, velocity=0, time=9),
    Message('note_on', channel=9, note=51, velocity=127, time=231),
    Message('note_on', channel=9, note=51, velocity=0, time=9),
    Message('note_on', channel=9, note=51, velocity=127, time=231),
    Message('note_on', channel=9, note=51, velocity=0, time=9),
    Message('note_on', channel=9, note=51, velocity=127, time=231),
    Message('note_on', channel=9, note=51, velocity=0, time=8),
    Message('note_on', channel=9, note=51, velocity=127, time=232),
    Message('note_on', channel=9, note=51, velocity=0, time=9),
    Message('note_on', channel=9, note=51, velocity=127, time=231),
    Message('note_on', channel=9, note=51, velocity=0, time=8),
    Message('note_on', channel=9, note=51, velocity=127, time=7912),
    Message('note_on', channel=9, note=51, velocity=0, time=8),
    Message('note_on', channel=9, note=51, velocity=127, time=232),
    Message('note_on', channel=9, note=51, velocity=0, time=9),
    Message('note_on', channel=9, note=51, velocity=127, time=231),
    Message('note_on', channel=9, note=51, velocity=0, time=7),
    Message('note_on', channel=9, note=51, velocity=127, time=233),
    Message('note_on', channel=9, note=51, velocity=0, time=8),
    Message('note_on', channel=9, note=51, velocity=127, time=232),
    Message('note_on', channel=9, note=51, velocity=0, time=8),
    Message('note_on', channel=9, note=51, velocity=127, time=232),
    Message('note_on', channel=9, note=51, velocity=0, time=7),
    Message('note_on', channel=9, note=51, velocity=127, time=233),
    Message('note_on', channel=9, note=51, velocity=0, time=8),
    Message('note_on', channel=9, note=51, velocity=127, time=232),
    Message('note_on', channel=9, note=51, velocity=0, time=8),
    Message('note_on', channel=9, note=51, velocity=127, time=112),
    Message('note_on', channel=9, note=51, velocity=0, time=8),
    Message('note_on', channel=9, note=51, velocity=127, time=112),
    Message('note_on', channel=9, note=51, velocity=0, time=9),
    Message('note_on', channel=9, note=51, velocity=127, time=231),
    Message('note_on', channel=9, note=51, velocity=0, time=8),
    Message('note_on', channel=9, note=51, velocity=127, time=232),
    Message('note_on', channel=9, note=51, velocity=0, time=8),
    Message('note_on', channel=9, note=51, velocity=127, time=232),
    Message('note_on', channel=9, note=51, velocity=0, time=8),
    Message('note_on', channel=9, note=51, velocity=127, time=232),
    Message('note_on', channel=9, note=51, velocity=0, time=8),
    Message('note_on', channel=9, note=51, velocity=127, time=232),
    Message('note_on', channel=9, note=51, velocity=0, time=8),
    Message('note_on', channel=9, note=51, velocity=127, time=232),
    Message('note_on', channel=9, note=51, velocity=0, time=8),
    Message('note_on', channel=9, note=51, velocity=127, time=232),
    Message('note_on', channel=9, note=51, velocity=0, time=8),
    Message('note_on', channel=9, note=51, velocity=127, time=4072),
    Message('note_on', channel=9, note=51, velocity=0, time=9),
    Message('note_on', channel=9, note=51, velocity=127, time=231),
    Message('note_on', channel=9, note=51, velocity=0, time=8),
    Message('note_on', channel=9, note=51, velocity=127, time=232),
    Message('note_on', channel=9, note=51, velocity=0, time=9),
    Message('note_on', channel=9, note=51, velocity=127, time=231),
    Message('note_on', channel=9, note=51, velocity=0, time=8),
    Message('note_on', channel=9, note=51, velocity=127, time=232),
    Message('note_on', channel=9, note=51, velocity=0, time=9),
    Message('note_on', channel=9, note=51, velocity=127, time=231),
    Message('note_on', channel=9, note=51, velocity=0, time=8),
    Message('note_on', channel=9, note=51, velocity=127, time=232),
    Message('note_on', channel=9, note=51, velocity=0, time=9),
    Message('note_on', channel=9, note=51, velocity=127, time=231),
    Message('note_on', channel=9, note=51, velocity=0, time=8),
    Message('note_on', channel=9, note=51, velocity=127, time=232),
    Message('note_on', channel=9, note=51, velocity=0, time=9),
    Message('note_on', channel=9, note=51, velocity=127, time=231),
    Message('note_on', channel=9, note=51, velocity=0, time=8),
    Message('note_on', channel=9, note=51, velocity=127, time=232),
    Message('note_on', channel=9, note=51, velocity=0, time=9),
    Message('note_on', channel=9, note=51, velocity=127, time=231),
    Message('note_on', channel=9, note=51, velocity=0, time=8),
    Message('note_on', channel=9, note=51, velocity=127, time=232),
    Message('note_on', channel=9, note=51, velocity=0, time=9),
    Message('note_on', channel=9, note=51, velocity=127, time=231),
    Message('note_on', channel=9, note=51, velocity=0, time=8),
    Message('note_on', channel=9, note=51, velocity=127, time=232),
    Message('note_on', channel=9, note=51, velocity=0, time=10),
    Message('note_on', channel=9, note=51, velocity=127, time=230),
    Message('note_on', channel=9, note=51, velocity=0, time=9),
    Message('note_on', channel=9, note=51, velocity=127, time=231),
    Message('note_on', channel=9, note=51, velocity=0, time=9),
    Message('note_on', channel=9, note=51, velocity=127, time=231),
    Message('note_on', channel=9, note=51, velocity=0, time=8),
    Message('note_on', channel=9, note=51, velocity=127, time=232),
    Message('note_on', channel=9, note=51, velocity=0, time=9),
    Message('note_on', channel=9, note=51, velocity=127, time=231),
    Message('note_on', channel=9, note=51, velocity=0, time=8),
    Message('note_on', channel=9, note=51, velocity=127, time=232),
    Message('note_on', channel=9, note=51, velocity=0, time=9),
    Message('note_on', channel=9, note=51, velocity=127, time=231),
    Message('note_on', channel=9, note=51, velocity=0, time=8),
    Message('note_on', channel=9, note=51, velocity=127, time=232),
    Message('note_on', channel=9, note=51, velocity=0, time=9),
    Message('note_on', channel=9, note=51, velocity=127, time=231),
    Message('note_on', channel=9, note=51, velocity=0, time=9),
    Message('note_on', channel=9, note=51, velocity=127, time=231),
    Message('note_on', channel=9, note=51, velocity=0, time=9),
    Message('note_on', channel=9, note=51, velocity=127, time=231),
    Message('note_on', channel=9, note=51, velocity=0, time=8),
    Message('note_on', channel=9, note=51, velocity=127, time=232),
    Message('note_on', channel=9, note=51, velocity=0, time=9),
    Message('note_on', channel=9, note=51, velocity=127, time=231),
    Message('note_on', channel=9, note=51, velocity=0, time=9),
    Message('note_on', channel=9, note=51, velocity=127, time=231),
    Message('note_on', channel=9, note=51, velocity=0, time=7),
    Message('note_on', channel=9, note=51, velocity=127, time=233),
    Message('note_on', channel=9, note=51, velocity=0, time=9),
    Message('note_on', channel=9, note=51, velocity=127, time=231),
    Message('note_on', channel=9, note=51, velocity=0, time=9),
    Message('note_on', channel=9, note=51, velocity=127, time=231),
    Message('note_on', channel=9, note=51, velocity=0, time=8),
    Message('note_on', channel=9, note=51, velocity=127, time=232),
    Message('note_on', channel=9, note=51, velocity=0, time=9),
    Message('note_on', channel=9, note=51, velocity=127, time=231),
    Message('note_on', channel=9, note=51, velocity=0, time=8),
    Message('note_on', channel=9, note=51, velocity=127, time=232),
    Message('note_on', channel=9, note=51, velocity=0, time=9),
    Message('note_on', channel=9, note=51, velocity=127, time=231),
    Message('note_on', channel=9, note=51, velocity=0, time=8),
    Message('note_on', channel=9, note=51, velocity=127, time=232),
    Message('note_on', channel=9, note=51, velocity=0, time=9),
    Message('note_on', channel=9, note=51, velocity=127, time=231),
    Message('note_on', channel=9, note=51, velocity=0, time=8),
    Message('note_on', channel=9, note=51, velocity=127, time=232),
    Message('note_on', channel=9, note=51, velocity=0, time=9),
    Message('note_on', channel=9, note=51, velocity=127, time=231),
    Message('note_on', channel=9, note=51, velocity=0, time=9),
    Message('note_on', channel=9, note=51, velocity=127, time=231),
    Message('note_on', channel=9, note=51, velocity=0, time=9),
    Message('note_on', channel=9, note=51, velocity=127, time=231),
    Message('note_on', channel=9, note=51, velocity=0, time=9),
    Message('note_on', channel=9, note=51, velocity=127, time=231),
    Message('note_on', channel=9, note=51, velocity=0, time=9),
    Message('note_on', channel=9, note=51, velocity=127, time=231),
    Message('note_on', channel=9, note=51, velocity=0, time=9),
    Message('note_on', channel=9, note=51, velocity=127, time=231),
    Message('note_on', channel=9, note=51, velocity=0, time=9),
    Message('note_on', channel=9, note=51, velocity=127, time=231),
    Message('note_on', channel=9, note=51, velocity=0, time=9),
    Message('note_on', channel=9, note=51, velocity=127, time=231),
    Message('note_on', channel=9, note=51, velocity=0, time=8),
    Message('note_on', channel=9, note=51, velocity=127, time=232),
    Message('note_on', channel=9, note=51, velocity=0, time=9),
    Message('note_on', channel=9, note=51, velocity=127, time=231),
    Message('note_on', channel=9, note=51, velocity=0, time=8),
    Message('note_on', channel=9, note=51, velocity=127, time=232),
    Message('note_on', channel=9, note=51, velocity=0, time=9),
    Message('note_on', channel=9, note=51, velocity=127, time=231),
    Message('note_on', channel=9, note=51, velocity=0, time=8),
    Message('note_on', channel=9, note=51, velocity=127, time=232),
    Message('note_on', channel=9, note=51, velocity=0, time=9),
    Message('note_on', channel=9, note=51, velocity=127, time=231),
    Message('note_on', channel=9, note=51, velocity=0, time=8),
    Message('note_on', channel=9, note=51, velocity=127, time=232),
    Message('note_on', channel=9, note=51, velocity=0, time=8),
    Message('note_on', channel=9, note=51, velocity=127, time=232),
    Message('note_on', channel=9, note=51, velocity=0, time=8),
    Message('note_on', channel=9, note=51, velocity=127, time=232),
    Message('note_on', channel=9, note=51, velocity=0, time=8),
    Message('note_on', channel=9, note=51, velocity=127, time=232),
    Message('note_on', channel=9, note=51, velocity=0, time=8),
    Message('note_on', channel=9, note=51, velocity=127, time=232),
    Message('note_on', channel=9, note=51, velocity=0, time=9),
    Message('note_on', channel=9, note=51, velocity=127, time=231),
    Message('note_on', channel=9, note=51, velocity=0, time=8),
    Message('note_on', channel=9, note=51, velocity=127, time=232),
    Message('note_on', channel=9, note=51, velocity=0, time=9),
    Message('note_on', channel=9, note=51, velocity=127, time=231),
    Message('note_on', channel=9, note=51, velocity=0, time=7),
    Message('note_on', channel=9, note=51, velocity=127, time=233),
    Message('note_on', channel=9, note=51, velocity=0, time=8),
    Message('note_on', channel=9, note=51, velocity=127, time=232),
    Message('note_on', channel=9, note=51, velocity=0, time=8),
    Message('note_on', channel=9, note=51, velocity=127, time=232),
    Message('note_on', channel=9, note=51, velocity=0, time=9),
    Message('note_on', channel=9, note=51, velocity=127, time=231),
    Message('note_on', channel=9, note=51, velocity=0, time=8),
    Message('note_on', channel=9, note=51, velocity=127, time=232),
    Message('note_on', channel=9, note=51, velocity=0, time=8),
    Message('note_on', channel=9, note=51, velocity=127, time=232),
    Message('note_on', channel=9, note=51, velocity=0, time=8),
    Message('note_on', channel=9, note=51, velocity=127, time=232),
    Message('note_on', channel=9, note=51, velocity=0, time=9),
    Message('note_on', channel=9, note=51, velocity=127, time=231),
    Message('note_on', channel=9, note=51, velocity=0, time=8),
    Message('note_on', channel=9, note=51, velocity=127, time=232),
    Message('note_on', channel=9, note=51, velocity=0, time=9),
    Message('note_on', channel=9, note=51, velocity=127, time=231),
    Message('note_on', channel=9, note=51, velocity=0, time=9),
    Message('note_on', channel=9, note=51, velocity=127, time=231),
    Message('note_on', channel=9, note=51, velocity=0, time=8),
    MetaMessage('end_of_track', time=0)]),
  MidiTrack([
    MetaMessage('midi_port', port=0, time=0),
    MetaMessage('track_name', name='High Hat Open', time=0),
    Message('program_change', channel=9, program=0, time=0),
    Message('note_on', channel=9, note=46, velocity=127, time=10440),
    Message('note_on', channel=9, note=46, velocity=0, time=8),
    Message('note_on', channel=9, note=46, velocity=127, time=1912),
    Message('note_on', channel=9, note=46, velocity=0, time=9),
    Message('note_on', channel=9, note=46, velocity=127, time=1911),
    Message('note_on', channel=9, note=46, velocity=0, time=8),
    Message('note_on', channel=9, note=46, velocity=127, time=1912),
    Message('note_on', channel=9, note=46, velocity=0, time=8),
    Message('note_on', channel=9, note=46, velocity=127, time=1912),
    Message('note_on', channel=9, note=46, velocity=0, time=9),
    Message('note_on', channel=9, note=46, velocity=127, time=1911),
    Message('note_on', channel=9, note=46, velocity=0, time=9),
    Message('note_on', channel=9, note=46, velocity=127, time=1911),
    Message('note_on', channel=9, note=46, velocity=0, time=9),
    Message('note_on', channel=9, note=46, velocity=127, time=1911),
    Message('note_on', channel=9, note=46, velocity=0, time=9),
    Message('note_on', channel=9, note=46, velocity=127, time=1911),
    Message('note_on', channel=9, note=46, velocity=0, time=8),
    Message('note_on', channel=9, note=46, velocity=127, time=1912),
    Message('note_on', channel=9, note=46, velocity=0, time=9),
    Message('note_on', channel=9, note=46, velocity=127, time=1911),
    Message('note_on', channel=9, note=46, velocity=0, time=9),
    Message('note_on', channel=9, note=46, velocity=127, time=1911),
    Message('note_on', channel=9, note=46, velocity=0, time=9),
    Message('note_on', channel=9, note=46, velocity=127, time=1911),
    Message('note_on', channel=9, note=46, velocity=0, time=8),
    Message('note_on', channel=9, note=46, velocity=127, time=1912),
    Message('note_on', channel=9, note=46, velocity=0, time=9),
    Message('note_on', channel=9, note=46, velocity=127, time=1911),
    Message('note_on', channel=9, note=46, velocity=0, time=9),
    Message('note_on', channel=9, note=46, velocity=127, time=1911),
    Message('note_on', channel=9, note=46, velocity=0, time=9),
    Message('note_on', channel=9, note=46, velocity=127, time=1911),
    Message('note_on', channel=9, note=46, velocity=0, time=9),
    Message('note_on', channel=9, note=46, velocity=127, time=1911),
    Message('note_on', channel=9, note=46, velocity=0, time=9),
    Message('note_on', channel=9, note=46, velocity=127, time=1911),
    Message('note_on', channel=9, note=46, velocity=0, time=9),
    Message('note_on', channel=9, note=46, velocity=127, time=1911),
    Message('note_on', channel=9, note=46, velocity=0, time=9),
    Message('note_on', channel=9, note=46, velocity=127, time=1911),
    Message('note_on', channel=9, note=46, velocity=0, time=9),
    Message('note_on', channel=9, note=46, velocity=127, time=1911),
    Message('note_on', channel=9, note=46, velocity=0, time=8),
    Message('note_on', channel=9, note=46, velocity=127, time=1912),
    Message('note_on', channel=9, note=46, velocity=0, time=9),
    Message('note_on', channel=9, note=46, velocity=127, time=1911),
    Message('note_on', channel=9, note=46, velocity=0, time=9),
    Message('note_on', channel=9, note=46, velocity=127, time=1911),
    Message('note_on', channel=9, note=46, velocity=0, time=10),
    Message('note_on', channel=9, note=46, velocity=127, time=1910),
    Message('note_on', channel=9, note=46, velocity=0, time=8),
    Message('note_on', channel=9, note=46, velocity=127, time=1912),
    Message('note_on', channel=9, note=46, velocity=0, time=8),
    Message('note_on', channel=9, note=46, velocity=127, time=1912),
    Message('note_on', channel=9, note=46, velocity=0, time=8),
    Message('note_on', channel=9, note=46, velocity=127, time=1912),
    Message('note_on', channel=9, note=46, velocity=0, time=8),
    Message('note_on', channel=9, note=46, velocity=127, time=1912),
    Message('note_on', channel=9, note=46, velocity=0, time=10),
    Message('note_on', channel=9, note=46, velocity=127, time=1910),
    Message('note_on', channel=9, note=46, velocity=0, time=8),
    Message('note_on', channel=9, note=46, velocity=127, time=1912),
    Message('note_on', channel=9, note=46, velocity=0, time=8),
    Message('note_on', channel=9, note=46, velocity=127, time=1912),
    Message('note_on', channel=9, note=46, velocity=0, time=10),
    Message('note_on', channel=9, note=46, velocity=127, time=1910),
    Message('note_on', channel=9, note=46, velocity=0, time=8),
    Message('note_on', channel=9, note=46, velocity=127, time=1912),
    Message('note_on', channel=9, note=46, velocity=0, time=9),
    Message('note_on', channel=9, note=46, velocity=127, time=1911),
    Message('note_on', channel=9, note=46, velocity=0, time=9),
    Message('note_on', channel=9, note=46, velocity=127, time=1911),
    Message('note_on', channel=9, note=46, velocity=0, time=9),
    Message('note_on', channel=9, note=46, velocity=127, time=1911),
    Message('note_on', channel=9, note=46, velocity=0, time=7),
    Message('note_on', channel=9, note=46, velocity=127, time=1913),
    Message('note_on', channel=9, note=46, velocity=0, time=9),
    Message('note_on', channel=9, note=46, velocity=127, time=1911),
    Message('note_on', channel=9, note=46, velocity=0, time=8),
    Message('note_on', channel=9, note=46, velocity=127, time=1912),
    Message('note_on', channel=9, note=46, velocity=0, time=7),
    Message('note_on', channel=9, note=46, velocity=127, time=3833),
    Message('note_on', channel=9, note=46, velocity=0, time=8),
    Message('note_on', channel=9, note=46, velocity=127, time=1912),
    Message('note_on', channel=9, note=46, velocity=0, time=8),
    Message('note_on', channel=9, note=46, velocity=127, time=1912),
    Message('note_on', channel=9, note=46, velocity=0, time=8),
    Message('note_on', channel=9, note=46, velocity=127, time=1912),
    Message('note_on', channel=9, note=46, velocity=0, time=8),
    Message('note_on', channel=9, note=46, velocity=127, time=1912),
    Message('note_on', channel=9, note=46, velocity=0, time=8),
    Message('note_on', channel=9, note=46, velocity=127, time=1912),
    Message('note_on', channel=9, note=46, velocity=0, time=10),
    Message('note_on', channel=9, note=46, velocity=127, time=1910),
    Message('note_on', channel=9, note=46, velocity=0, time=10),
    Message('note_on', channel=9, note=46, velocity=127, time=1910),
    Message('note_on', channel=9, note=46, velocity=0, time=10),
    Message('note_on', channel=9, note=46, velocity=127, time=1910),
    Message('note_on', channel=9, note=46, velocity=0, time=8),
    Message('note_on', channel=9, note=46, velocity=127, time=112),
    Message('note_on', channel=9, note=46, velocity=0, time=9),
    MetaMessage('end_of_track', time=0)]),
  MidiTrack([
    MetaMessage('midi_port', port=0, time=0),
    MetaMessage('track_name', name='Medium Tom', time=0),
    Message('program_change', channel=9, program=0, time=0),
    Message('note_on', channel=9, note=45, velocity=127, time=8400),
    Message('note_on', channel=9, note=45, velocity=0, time=8),
    Message('note_on', channel=9, note=45, velocity=127, time=17272),
    Message('note_on', channel=9, note=45, velocity=0, time=8),
    Message('note_on', channel=9, note=45, velocity=127, time=7672),
    Message('note_on', channel=9, note=45, velocity=0, time=8),
    Message('note_on', channel=9, note=45, velocity=127, time=17272),
    Message('note_on', channel=9, note=45, velocity=0, time=8),
    Message('note_on', channel=9, note=45, velocity=127, time=7672),
    Message('note_on', channel=9, note=45, velocity=0, time=9),
    Message('note_on', channel=9, note=45, velocity=127, time=15351),
    Message('note_on', channel=9, note=45, velocity=0, time=8),
    Message('note_on', channel=9, note=45, velocity=127, time=7672),
    Message('note_on', channel=9, note=45, velocity=0, time=7),
    Message('note_on', channel=9, note=45, velocity=127, time=1913),
    Message('note_on', channel=9, note=45, velocity=0, time=8),
    Message('note_on', channel=9, note=45, velocity=127, time=1912),
    Message('note_on', channel=9, note=45, velocity=0, time=9),
    Message('note_on', channel=9, note=45, velocity=127, time=7431),
    Message('note_on', channel=9, note=45, velocity=0, time=9),
    Message('note_on', channel=9, note=45, velocity=127, time=111),
    Message('note_on', channel=9, note=45, velocity=0, time=9),
    Message('note_on', channel=9, note=45, velocity=127, time=3951),
    Message('note_on', channel=9, note=45, velocity=0, time=8),
    Message('note_on', channel=9, note=45, velocity=127, time=9352),
    Message('note_on', channel=9, note=45, velocity=0, time=9),
    Message('note_on', channel=9, note=45, velocity=127, time=111),
    Message('note_on', channel=9, note=45, velocity=0, time=9),
    MetaMessage('end_of_track', time=0)]),
  MidiTrack([
    MetaMessage('midi_port', port=0, time=0),
    MetaMessage('track_name', name='Low Tom', time=0),
    Message('program_change', channel=9, program=0, time=0),
    Message('note_on', channel=9, note=41, velocity=127, time=8520),
    Message('note_on', channel=9, note=41, velocity=0, time=9),
    Message('note_on', channel=9, note=41, velocity=127, time=17271),
    Message('note_on', channel=9, note=41, velocity=0, time=8),
    Message('note_on', channel=9, note=41, velocity=127, time=7672),
    Message('note_on', channel=9, note=41, velocity=0, time=9),
    Message('note_on', channel=9, note=41, velocity=127, time=17271),
    Message('note_on', channel=9, note=41, velocity=0, time=8),
    Message('note_on', channel=9, note=41, velocity=127, time=7672),
    Message('note_on', channel=9, note=41, velocity=0, time=8),
    Message('note_on', channel=9, note=41, velocity=127, time=15352),
    Message('note_on', channel=9, note=41, velocity=0, time=8),
    Message('note_on', channel=9, note=41, velocity=127, time=19072),
    Message('note_on', channel=9, note=41, velocity=0, time=9),
    Message('note_on', channel=9, note=41, velocity=127, time=111),
    Message('note_on', channel=9, note=41, velocity=0, time=8),
    Message('note_on', channel=9, note=41, velocity=127, time=3832),
    Message('note_on', channel=9, note=41, velocity=0, time=8),
    Message('note_on', channel=9, note=41, velocity=127, time=9472),
    Message('note_on', channel=9, note=41, velocity=0, time=8),
    Message('note_on', channel=9, note=41, velocity=127, time=112),
    Message('note_on', channel=9, note=41, velocity=0, time=9),
    MetaMessage('end_of_track', time=0)]),
  MidiTrack([
    MetaMessage('midi_port', port=0, time=0),
    MetaMessage('track_name', name='Bass Drim', time=0),
    Message('program_change', channel=9, program=0, time=0),
    Message('control_change', channel=9, control=7, value=111, time=0),
    Message('control_change', channel=9, control=10, value=64, time=0),
    Message('note_on', channel=9, note=36, velocity=127, time=8400),
    Message('note_on', channel=9, note=36, velocity=0, time=8),
    Message('note_on', channel=9, note=36, velocity=127, time=232),
    Message('note_on', channel=9, note=36, velocity=0, time=9),
    Message('note_on', channel=9, note=36, velocity=127, time=351),
    Message('note_on', channel=9, note=36, velocity=0, time=9),
    Message('note_on', channel=9, note=36, velocity=127, time=111),
    Message('note_on', channel=9, note=36, velocity=0, time=8),
    Message('note_on', channel=9, note=36, velocity=127, time=472),
    Message('note_on', channel=9, note=36, velocity=0, time=8),
    Message('note_on', channel=9, note=36, velocity=127, time=352),
    Message('note_on', channel=9, note=36, velocity=0, time=8),
    Message('note_on', channel=9, note=36, velocity=127, time=112),
    Message('note_on', channel=9, note=36, velocity=0, time=8),
    Message('note_on', channel=9, note=36, velocity=127, time=472),
    Message('note_on', channel=9, note=36, velocity=0, time=10),
    Message('note_on', channel=9, note=36, velocity=127, time=350),
    Message('note_on', channel=9, note=36, velocity=0, time=10),
    Message('note_on', channel=9, note=36, velocity=127, time=110),
    Message('note_on', channel=9, note=36, velocity=0, time=8),
    Message('note_on', channel=9, note=36, velocity=127, time=472),
    Message('note_on', channel=9, note=36, velocity=0, time=8),
    Message('note_on', channel=9, note=36, velocity=127, time=352),
    Message('note_on', channel=9, note=36, velocity=0, time=8),
    Message('note_on', channel=9, note=36, velocity=127, time=112),
    Message('note_on', channel=9, note=36, velocity=0, time=9),
    Message('note_on', channel=9, note=36, velocity=127, time=471),
    Message('note_on', channel=9, note=36, velocity=0, time=8),
    Message('note_on', channel=9, note=36, velocity=127, time=352),
    Message('note_on', channel=9, note=36, velocity=0, time=9),
    Message('note_on', channel=9, note=36, velocity=127, time=111),
    Message('note_on', channel=9, note=36, velocity=0, time=8),
    Message('note_on', channel=9, note=36, velocity=127, time=472),
    Message('note_on', channel=9, note=36, velocity=0, time=8),
    Message('note_on', channel=9, note=36, velocity=127, time=352),
    Message('note_on', channel=9, note=36, velocity=0, time=8),
    Message('note_on', channel=9, note=36, velocity=127, time=112),
    Message('note_on', channel=9, note=36, velocity=0, time=9),
    Message('note_on', channel=9, note=36, velocity=127, time=471),
    Message('note_on', channel=9, note=36, velocity=0, time=10),
    Message('note_on', channel=9, note=36, velocity=127, time=350),
    Message('note_on', channel=9, note=36, velocity=0, time=10),
    Message('note_on', channel=9, note=36, velocity=127, time=110),
    Message('note_on', channel=9, note=36, velocity=0, time=8),
    Message('note_on', channel=9, note=36, velocity=127, time=472),
    Message('note_on', channel=9, note=36, velocity=0, time=8),
    Message('note_on', channel=9, note=36, velocity=127, time=352),
    Message('note_on', channel=9, note=36, velocity=0, time=8),
    Message('note_on', channel=9, note=36, velocity=127, time=112),
    Message('note_on', channel=9, note=36, velocity=0, time=9),
    Message('note_on', channel=9, note=36, velocity=127, time=471),
    Message('note_on', channel=9, note=36, velocity=0, time=9),
    Message('note_on', channel=9, note=36, velocity=127, time=351),
    Message('note_on', channel=9, note=36, velocity=0, time=10),
    Message('note_on', channel=9, note=36, velocity=127, time=110),
    Message('note_on', channel=9, note=36, velocity=0, time=10),
    Message('note_on', channel=9, note=36, velocity=127, time=470),
    Message('note_on', channel=9, note=36, velocity=0, time=9),
    Message('note_on', channel=9, note=36, velocity=127, time=351),
    Message('note_on', channel=9, note=36, velocity=0, time=8),
    Message('note_on', channel=9, note=36, velocity=127, time=112),
    Message('note_on', channel=9, note=36, velocity=0, time=8),
    Message('note_on', channel=9, note=36, velocity=127, time=472),
    Message('note_on', channel=9, note=36, velocity=0, time=9),
    Message('note_on', channel=9, note=36, velocity=127, time=351),
    Message('note_on', channel=9, note=36, velocity=0, time=10),
    Message('note_on', channel=9, note=36, velocity=127, time=110),
    Message('note_on', channel=9, note=36, velocity=0, time=8),
    Message('note_on', channel=9, note=36, velocity=127, time=472),
    Message('note_on', channel=9, note=36, velocity=0, time=8),
    Message('note_on', channel=9, note=36, velocity=127, time=352),
    Message('note_on', channel=9, note=36, velocity=0, time=8),
    Message('note_on', channel=9, note=36, velocity=127, time=112),
    Message('note_on', channel=9, note=36, velocity=0, time=8),
    Message('note_on', channel=9, note=36, velocity=127, time=472),
    Message('note_on', channel=9, note=36, velocity=0, time=9),
    Message('note_on', channel=9, note=36, velocity=127, time=351),
    Message('note_on', channel=9, note=36, velocity=0, time=10),
    Message('note_on', channel=9, note=36, velocity=127, time=110),
    Message('note_on', channel=9, note=36, velocity=0, time=10),
    Message('note_on', channel=9, note=36, velocity=127, time=470),
    Message('note_on', channel=9, note=36, velocity=0, time=8),
    Message('note_on', channel=9, note=36, velocity=127, time=352),
    Message('note_on', channel=9, note=36, velocity=0, time=8),
    Message('note_on', channel=9, note=36, velocity=127, time=112),
    Message('note_on', channel=9, note=36, velocity=0, time=8),
    Message('note_on', channel=9, note=36, velocity=127, time=472),
    Message('note_on', channel=9, note=36, velocity=0, time=9),
    Message('note_on', channel=9, note=36, velocity=127, time=351),
    Message('note_on', channel=9, note=36, velocity=0, time=8),
    Message('note_on', channel=9, note=36, velocity=127, time=112),
    Message('note_on', channel=9, note=36, velocity=0, time=8),
    Message('note_on', channel=9, note=36, velocity=127, time=472),
    Message('note_on', channel=9, note=36, velocity=0, time=9),
    Message('note_on', channel=9, note=36, velocity=127, time=351),
    Message('note_on', channel=9, note=36, velocity=0, time=8),
    Message('note_on', channel=9, note=36, velocity=127, time=112),
    Message('note_on', channel=9, note=36, velocity=0, time=8),
    Message('note_on', channel=9, note=36, velocity=127, time=472),
    Message('note_on', channel=9, note=36, velocity=0, time=9),
    Message('note_on', channel=9, note=36, velocity=127, time=351),
    Message('note_on', channel=9, note=36, velocity=0, time=10),
    Message('note_on', channel=9, note=36, velocity=127, time=110),
    Message('note_on', channel=9, note=36, velocity=0, time=10),
    Message('note_on', channel=9, note=36, velocity=127, time=470),
    Message('note_on', channel=9, note=36, velocity=0, time=9),
    Message('note_on', channel=9, note=36, velocity=127, time=351),
    Message('note_on', channel=9, note=36, velocity=0, time=8),
    Message('note_on', channel=9, note=36, velocity=127, time=112),
    Message('note_on', channel=9, note=36, velocity=0, time=8),
    Message('note_on', channel=9, note=36, velocity=127, time=472),
    Message('note_on', channel=9, note=36, velocity=0, time=9),
    Message('note_on', channel=9, note=36, velocity=127, time=351),
    Message('note_on', channel=9, note=36, velocity=0, time=8),
    Message('note_on', channel=9, note=36, velocity=127, time=112),
    Message('note_on', channel=9, note=36, velocity=0, time=8),
    Message('note_on', channel=9, note=36, velocity=127, time=472),
    Message('note_on', channel=9, note=36, velocity=0, time=9),
    Message('note_on', channel=9, note=36, velocity=127, time=351),
    Message('note_on', channel=9, note=36, velocity=0, time=8),
    Message('note_on', channel=9, note=36, velocity=127, time=112),
    Message('note_on', channel=9, note=36, velocity=0, time=8),
    Message('note_on', channel=9, note=36, velocity=127, time=472),
    Message('note_on', channel=9, note=36, velocity=0, time=9),
    Message('note_on', channel=9, note=36, velocity=127, time=351),
    Message('note_on', channel=9, note=36, velocity=0, time=9),
    Message('note_on', channel=9, note=36, velocity=127, time=111),
    Message('note_on', channel=9, note=36, velocity=0, time=9),
    Message('note_on', channel=9, note=36, velocity=127, time=471),
    Message('note_on', channel=9, note=36, velocity=0, time=9),
    Message('note_on', channel=9, note=36, velocity=127, time=351),
    Message('note_on', channel=9, note=36, velocity=0, time=10),
    Message('note_on', channel=9, note=36, velocity=127, time=110),
    Message('note_on', channel=9, note=36, velocity=0, time=8),
    Message('note_on', channel=9, note=36, velocity=127, time=472),
    Message('note_on', channel=9, note=36, velocity=0, time=9),
    Message('note_on', channel=9, note=36, velocity=127, time=351),
    Message('note_on', channel=9, note=36, velocity=0, time=9),
    Message('note_on', channel=9, note=36, velocity=127, time=111),
    Message('note_on', channel=9, note=36, velocity=0, time=8),
    Message('note_on', channel=9, note=36, velocity=127, time=472),
    Message('note_on', channel=9, note=36, velocity=0, time=9),
    Message('note_on', channel=9, note=36, velocity=127, time=351),
    Message('note_on', channel=9, note=36, velocity=0, time=8),
    Message('note_on', channel=9, note=36, velocity=127, time=112),
    Message('note_on', channel=9, note=36, velocity=0, time=9),
    Message('note_on', channel=9, note=36, velocity=127, time=471),
    Message('note_on', channel=9, note=36, velocity=0, time=9),
    Message('note_on', channel=9, note=36, velocity=127, time=351),
    Message('note_on', channel=9, note=36, velocity=0, time=10),
    Message('note_on', channel=9, note=36, velocity=127, time=110),
    Message('note_on', channel=9, note=36, velocity=0, time=10),
    Message('note_on', channel=9, note=36, velocity=127, time=470),
    Message('note_on', channel=9, note=36, velocity=0, time=10),
    Message('note_on', channel=9, note=36, velocity=127, time=350),
    Message('note_on', channel=9, note=36, velocity=0, time=8),
    Message('note_on', channel=9, note=36, velocity=127, time=112),
    Message('note_on', channel=9, note=36, velocity=0, time=9),
    Message('note_on', channel=9, note=36, velocity=127, time=471),
    Message('note_on', channel=9, note=36, velocity=0, time=8),
    Message('note_on', channel=9, note=36, velocity=127, time=352),
    Message('note_on', channel=9, note=36, velocity=0, time=9),
    Message('note_on', channel=9, note=36, velocity=127, time=111),
    Message('note_on', channel=9, note=36, velocity=0, time=8),
    Message('note_on', channel=9, note=36, velocity=127, time=472),
    Message('note_on', channel=9, note=36, velocity=0, time=8),
    Message('note_on', channel=9, note=36, velocity=127, time=352),
    Message('note_on', channel=9, note=36, velocity=0, time=8),
    Message('note_on', channel=9, note=36, velocity=127, time=112),
    Message('note_on', channel=9, note=36, velocity=0, time=8),
    Message('note_on', channel=9, note=36, velocity=127, time=472),
    Message('note_on', channel=9, note=36, velocity=0, time=9),
    Message('note_on', channel=9, note=36, velocity=127, time=351),
    Message('note_on', channel=9, note=36, velocity=0, time=10),
    Message('note_on', channel=9, note=36, velocity=127, time=110),
    Message('note_on', channel=9, note=36, velocity=0, time=9),
    Message('note_on', channel=9, note=36, velocity=127, time=471),
    Message('note_on', channel=9, note=36, velocity=0, time=8),
    Message('note_on', channel=9, note=36, velocity=127, time=352),
    Message('note_on', channel=9, note=36, velocity=0, time=8),
    Message('note_on', channel=9, note=36, velocity=127, time=112),
    Message('note_on', channel=9, note=36, velocity=0, time=8),
    Message('note_on', channel=9, note=36, velocity=127, time=472),
    Message('note_on', channel=9, note=36, velocity=0, time=9),
    Message('note_on', channel=9, note=36, velocity=127, time=351),
    Message('note_on', channel=9, note=36, velocity=0, time=10),
    Message('note_on', channel=9, note=36, velocity=127, time=110),
    Message('note_on', channel=9, note=36, velocity=0, time=8),
    Message('note_on', channel=9, note=36, velocity=127, time=472),
    Message('note_on', channel=9, note=36, velocity=0, time=9),
    Message('note_on', channel=9, note=36, velocity=127, time=351),
    Message('note_on', channel=9, note=36, velocity=0, time=8),
    Message('note_on', channel=9, note=36, velocity=127, time=112),
    Message('note_on', channel=9, note=36, velocity=0, time=9),
    Message('note_on', channel=9, note=36, velocity=127, time=471),
    Message('note_on', channel=9, note=36, velocity=0, time=10),
    Message('note_on', channel=9, note=36, velocity=127, time=350),
    Message('note_on', channel=9, note=36, velocity=0, time=10),
    Message('note_on', channel=9, note=36, velocity=127, time=110),
    Message('note_on', channel=9, note=36, velocity=0, time=8),
    Message('note_on', channel=9, note=36, velocity=127, time=472),
    Message('note_on', channel=9, note=36, velocity=0, time=9),
    Message('note_on', channel=9, note=36, velocity=127, time=351),
    Message('note_on', channel=9, note=36, velocity=0, time=8),
    Message('note_on', channel=9, note=36, velocity=127, time=112),
    Message('note_on', channel=9, note=36, velocity=0, time=8),
    Message('note_on', channel=9, note=36, velocity=127, time=472),
    Message('note_on', channel=9, note=36, velocity=0, time=9),
    Message('note_on', channel=9, note=36, velocity=127, time=351),
    Message('note_on', channel=9, note=36, velocity=0, time=8),
    Message('note_on', channel=9, note=36, velocity=127, time=112),
    Message('note_on', channel=9, note=36, velocity=0, time=8),
    Message('note_on', channel=9, note=36, velocity=127, time=472),
    Message('note_on', channel=9, note=36, velocity=0, time=9),
    Message('note_on', channel=9, note=36, velocity=127, time=351),
    Message('note_on', channel=9, note=36, velocity=0, time=8),
    Message('note_on', channel=9, note=36, velocity=127, time=112),
    Message('note_on', channel=9, note=36, velocity=0, time=8),
    Message('note_on', channel=9, note=36, velocity=127, time=472),
    Message('note_on', channel=9, note=36, velocity=0, time=9),
    Message('note_on', channel=9, note=36, velocity=127, time=351),
    Message('note_on', channel=9, note=36, velocity=0, time=10),
    Message('note_on', channel=9, note=36, velocity=127, time=110),
    Message('note_on', channel=9, note=36, velocity=0, time=9),
    Message('note_on', channel=9, note=36, velocity=127, time=471),
    Message('note_on', channel=9, note=36, velocity=0, time=10),
    Message('note_on', channel=9, note=36, velocity=127, time=350),
    Message('note_on', channel=9, note=36, velocity=0, time=10),
    Message('note_on', channel=9, note=36, velocity=127, time=110),
    Message('note_on', channel=9, note=36, velocity=0, time=10),
    Message('note_on', channel=9, note=36, velocity=127, time=470),
    Message('note_on', channel=9, note=36, velocity=0, time=8),
    Message('note_on', channel=9, note=36, velocity=127, time=352),
    Message('note_on', channel=9, note=36, velocity=0, time=9),
    Message('note_on', channel=9, note=36, velocity=127, time=111),
    Message('note_on', channel=9, note=36, velocity=0, time=8),
    Message('note_on', channel=9, note=36, velocity=127, time=472),
    Message('note_on', channel=9, note=36, velocity=0, time=9),
    Message('note_on', channel=9, note=36, velocity=127, time=351),
    Message('note_on', channel=9, note=36, velocity=0, time=8),
    Message('note_on', channel=9, note=36, velocity=127, time=112),
    Message('note_on', channel=9, note=36, velocity=0, time=8),
    Message('note_on', channel=9, note=36, velocity=127, time=472),
    Message('note_on', channel=9, note=36, velocity=0, time=9),
    Message('note_on', channel=9, note=36, velocity=127, time=351),
    Message('note_on', channel=9, note=36, velocity=0, time=10),
    Message('note_on', channel=9, note=36, velocity=127, time=110),
    Message('note_on', channel=9, note=36, velocity=0, time=9),
    Message('note_on', channel=9, note=36, velocity=127, time=471),
    Message('note_on', channel=9, note=36, velocity=0, time=9),
    Message('note_on', channel=9, note=36, velocity=127, time=351),
    Message('note_on', channel=9, note=36, velocity=0, time=8),
    Message('note_on', channel=9, note=36, velocity=127, time=112),
    Message('note_on', channel=9, note=36, velocity=0, time=8),
    Message('note_on', channel=9, note=36, velocity=127, time=472),
    Message('note_on', channel=9, note=36, velocity=0, time=9),
    Message('note_on', channel=9, note=36, velocity=127, time=351),
    Message('note_on', channel=9, note=36, velocity=0, time=10),
    Message('note_on', channel=9, note=36, velocity=127, time=110),
    Message('note_on', channel=9, note=36, velocity=0, time=9),
    Message('note_on', channel=9, note=36, velocity=127, time=471),
    Message('note_on', channel=9, note=36, velocity=0, time=8),
    Message('note_on', channel=9, note=36, velocity=127, time=352),
    Message('note_on', channel=9, note=36, velocity=0, time=8),
    Message('note_on', channel=9, note=36, velocity=127, time=112),
    Message('note_on', channel=9, note=36, velocity=0, time=8),
    Message('note_on', channel=9, note=36, velocity=127, time=472),
    Message('note_on', channel=9, note=36, velocity=0, time=9),
    Message('note_on', channel=9, note=36, velocity=127, time=351),
    Message('note_on', channel=9, note=36, velocity=0, time=10),
    Message('note_on', channel=9, note=36, velocity=127, time=110),
    Message('note_on', channel=9, note=36, velocity=0, time=8),
    Message('note_on', channel=9, note=36, velocity=127, time=472),
    Message('note_on', channel=9, note=36, velocity=0, time=9),
    Message('note_on', channel=9, note=36, velocity=127, time=351),
    Message('note_on', channel=9, note=36, velocity=0, time=8),
    Message('note_on', channel=9, note=36, velocity=127, time=112),
    Message('note_on', channel=9, note=36, velocity=0, time=8),
    Message('note_on', channel=9, note=36, velocity=127, time=472),
    Message('note_on', channel=9, note=36, velocity=0, time=9),
    Message('note_on', channel=9, note=36, velocity=127, time=351),
    Message('note_on', channel=9, note=36, velocity=0, time=8),
    Message('note_on', channel=9, note=36, velocity=127, time=112),
    Message('note_on', channel=9, note=36, velocity=0, time=8),
    Message('note_on', channel=9, note=36, velocity=127, time=472),
    Message('note_on', channel=9, note=36, velocity=0, time=9),
    Message('note_on', channel=9, note=36, velocity=127, time=351),
    Message('note_on', channel=9, note=36, velocity=0, time=9),
    Message('note_on', channel=9, note=36, velocity=127, time=111),
    Message('note_on', channel=9, note=36, velocity=0, time=9),
    Message('note_on', channel=9, note=36, velocity=127, time=471),
    Message('note_on', channel=9, note=36, velocity=0, time=8),
    Message('note_on', channel=9, note=36, velocity=127, time=352),
    Message('note_on', channel=9, note=36, velocity=0, time=10),
    Message('note_on', channel=9, note=36, velocity=127, time=110),
    Message('note_on', channel=9, note=36, velocity=0, time=8),
    Message('note_on', channel=9, note=36, velocity=127, time=472),
    Message('note_on', channel=9, note=36, velocity=0, time=8),
    Message('note_on', channel=9, note=36, velocity=127, time=352),
    Message('note_on', channel=9, note=36, velocity=0, time=10),
    Message('note_on', channel=9, note=36, velocity=127, time=110),
    Message('note_on', channel=9, note=36, velocity=0, time=8),
    Message('note_on', channel=9, note=36, velocity=127, time=472),
    Message('note_on', channel=9, note=36, velocity=0, time=8),
    Message('note_on', channel=9, note=36, velocity=127, time=352),
    Message('note_on', channel=9, note=36, velocity=0, time=10),
    Message('note_on', channel=9, note=36, velocity=127, time=110),
    Message('note_on', channel=9, note=36, velocity=0, time=8),
    Message('note_on', channel=9, note=36, velocity=127, time=472),
    Message('note_on', channel=9, note=36, velocity=0, time=8),
    Message('note_on', channel=9, note=36, velocity=127, time=352),
    Message('note_on', channel=9, note=36, velocity=0, time=9),
    Message('note_on', channel=9, note=36, velocity=127, time=111),
    Message('note_on', channel=9, note=36, velocity=0, time=8),
    Message('note_on', channel=9, note=36, velocity=127, time=472),
    Message('note_on', channel=9, note=36, velocity=0, time=9),
    Message('note_on', channel=9, note=36, velocity=127, time=351),
    Message('note_on', channel=9, note=36, velocity=0, time=8),
    Message('note_on', channel=9, note=36, velocity=127, time=112),
    Message('note_on', channel=9, note=36, velocity=0, time=9),
    Message('note_on', channel=9, note=36, velocity=127, time=471),
    Message('note_on', channel=9, note=36, velocity=0, time=9),
    Message('note_on', channel=9, note=36, velocity=127, time=351),
    Message('note_on', channel=9, note=36, velocity=0, time=8),
    Message('note_on', channel=9, note=36, velocity=127, time=112),
    Message('note_on', channel=9, note=36, velocity=0, time=9),
    Message('note_on', channel=9, note=36, velocity=127, time=471),
    Message('note_on', channel=9, note=36, velocity=0, time=9),
    Message('note_on', channel=9, note=36, velocity=127, time=351),
    Message('note_on', channel=9, note=36, velocity=0, time=8),
    Message('note_on', channel=9, note=36, velocity=127, time=112),
    Message('note_on', channel=9, note=36, velocity=0, time=9),
    Message('note_on', channel=9, note=36, velocity=127, time=471),
    Message('note_on', channel=9, note=36, velocity=0, time=9),
    Message('note_on', channel=9, note=36, velocity=127, time=351),
    Message('note_on', channel=9, note=36, velocity=0, time=8),
    Message('note_on', channel=9, note=36, velocity=127, time=112),
    Message('note_on', channel=9, note=36, velocity=0, time=9),
    Message('note_on', channel=9, note=36, velocity=127, time=471),
    Message('note_on', channel=9, note=36, velocity=0, time=9),
    Message('note_on', channel=9, note=36, velocity=127, time=351),
    Message('note_on', channel=9, note=36, velocity=0, time=8),
    Message('note_on', channel=9, note=36, velocity=127, time=112),
    Message('note_on', channel=9, note=36, velocity=0, time=9),
    Message('note_on', channel=9, note=36, velocity=127, time=471),
    Message('note_on', channel=9, note=36, velocity=0, time=9),
    Message('note_on', channel=9, note=36, velocity=127, time=351),
    Message('note_on', channel=9, note=36, velocity=0, time=8),
    Message('note_on', channel=9, note=36, velocity=127, time=112),
    Message('note_on', channel=9, note=36, velocity=0, time=9),
    Message('note_on', channel=9, note=36, velocity=127, time=471),
    Message('note_on', channel=9, note=36, velocity=0, time=10),
    Message('note_on', channel=9, note=36, velocity=127, time=350),
    Message('note_on', channel=9, note=36, velocity=0, time=8),
    Message('note_on', channel=9, note=36, velocity=127, time=112),
    Message('note_on', channel=9, note=36, velocity=0, time=9),
    Message('note_on', channel=9, note=36, velocity=127, time=471),
    Message('note_on', channel=9, note=36, velocity=0, time=8),
    Message('note_on', channel=9, note=36, velocity=127, time=352),
    Message('note_on', channel=9, note=36, velocity=0, time=10),
    Message('note_on', channel=9, note=36, velocity=127, time=110),
    Message('note_on', channel=9, note=36, velocity=0, time=8),
    Message('note_on', channel=9, note=36, velocity=127, time=472),
    Message('note_on', channel=9, note=36, velocity=0, time=9),
    Message('note_on', channel=9, note=36, velocity=127, time=351),
    Message('note_on', channel=9, note=36, velocity=0, time=9),
    Message('note_on', channel=9, note=36, velocity=127, time=111),
    Message('note_on', channel=9, note=36, velocity=0, time=8),
    Message('note_on', channel=9, note=36, velocity=127, time=472),
    Message('note_on', channel=9, note=36, velocity=0, time=9),
    Message('note_on', channel=9, note=36, velocity=127, time=351),
    Message('note_on', channel=9, note=36, velocity=0, time=8),
    Message('note_on', channel=9, note=36, velocity=127, time=112),
    Message('note_on', channel=9, note=36, velocity=0, time=9),
    Message('note_on', channel=9, note=36, velocity=127, time=471),
    Message('note_on', channel=9, note=36, velocity=0, time=9),
    Message('note_on', channel=9, note=36, velocity=127, time=351),
    Message('note_on', channel=9, note=36, velocity=0, time=8),
    Message('note_on', channel=9, note=36, velocity=127, time=112),
    Message('note_on', channel=9, note=36, velocity=0, time=9),
    Message('note_on', channel=9, note=36, velocity=127, time=471),
    Message('note_on', channel=9, note=36, velocity=0, time=9),
    Message('note_on', channel=9, note=36, velocity=127, time=351),
    Message('note_on', channel=9, note=36, velocity=0, time=8),
    Message('note_on', channel=9, note=36, velocity=127, time=112),
    Message('note_on', channel=9, note=36, velocity=0, time=9),
    Message('note_on', channel=9, note=36, velocity=127, time=471),
    Message('note_on', channel=9, note=36, velocity=0, time=9),
    Message('note_on', channel=9, note=36, velocity=127, time=351),
    Message('note_on', channel=9, note=36, velocity=0, time=9),
    Message('note_on', channel=9, note=36, velocity=127, time=111),
    Message('note_on', channel=9, note=36, velocity=0, time=9),
    Message('note_on', channel=9, note=36, velocity=127, time=471),
    Message('note_on', channel=9, note=36, velocity=0, time=8),
    Message('note_on', channel=9, note=36, velocity=127, time=352),
    Message('note_on', channel=9, note=36, velocity=0, time=10),
    Message('note_on', channel=9, note=36, velocity=127, time=110),
    Message('note_on', channel=9, note=36, velocity=0, time=8),
    Message('note_on', channel=9, note=36, velocity=127, time=472),
    Message('note_on', channel=9, note=36, velocity=0, time=8),
    Message('note_on', channel=9, note=36, velocity=127, time=352),
    Message('note_on', channel=9, note=36, velocity=0, time=9),
    Message('note_on', channel=9, note=36, velocity=127, time=111),
    Message('note_on', channel=9, note=36, velocity=0, time=8),
    Message('note_on', channel=9, note=36, velocity=127, time=472),
    Message('note_on', channel=9, note=36, velocity=0, time=8),
    Message('note_on', channel=9, note=36, velocity=127, time=352),
    Message('note_on', channel=9, note=36, velocity=0, time=8),
    Message('note_on', channel=9, note=36, velocity=127, time=112),
    Message('note_on', channel=9, note=36, velocity=0, time=9),
    Message('note_on', channel=9, note=36, velocity=127, time=471),
    Message('note_on', channel=9, note=36, velocity=0, time=9),
    Message('note_on', channel=9, note=36, velocity=127, time=351),
    Message('note_on', channel=9, note=36, velocity=0, time=10),
    Message('note_on', channel=9, note=36, velocity=127, time=110),
    Message('note_on', channel=9, note=36, velocity=0, time=10),
    Message('note_on', channel=9, note=36, velocity=127, time=470),
    Message('note_on', channel=9, note=36, velocity=0, time=10),
    Message('note_on', channel=9, note=36, velocity=127, time=350),
    Message('note_on', channel=9, note=36, velocity=0, time=10),
    Message('note_on', channel=9, note=36, velocity=127, time=110),
    Message('note_on', channel=9, note=36, velocity=0, time=10),
    Message('note_on', channel=9, note=36, velocity=127, time=470),
    Message('note_on', channel=9, note=36, velocity=0, time=9),
    Message('note_on', channel=9, note=36, velocity=127, time=351),
    Message('note_on', channel=9, note=36, velocity=0, time=10),
    Message('note_on', channel=9, note=36, velocity=127, time=110),
    Message('note_on', channel=9, note=36, velocity=0, time=9),
    Message('note_on', channel=9, note=36, velocity=127, time=471),
    Message('note_on', channel=9, note=36, velocity=0, time=9),
    Message('note_on', channel=9, note=36, velocity=127, time=351),
    Message('note_on', channel=9, note=36, velocity=0, time=8),
    Message('note_on', channel=9, note=36, velocity=127, time=112),
    Message('note_on', channel=9, note=36, velocity=0, time=8),
    Message('note_on', channel=9, note=36, velocity=127, time=472),
    Message('note_on', channel=9, note=36, velocity=0, time=9),
    Message('note_on', channel=9, note=36, velocity=127, time=351),
    Message('note_on', channel=9, note=36, velocity=0, time=10),
    Message('note_on', channel=9, note=36, velocity=127, time=110),
    Message('note_on', channel=9, note=36, velocity=0, time=9),
    Message('note_on', channel=9, note=36, velocity=127, time=471),
    Message('note_on', channel=9, note=36, velocity=0, time=9),
    Message('note_on', channel=9, note=36, velocity=127, time=351),
    Message('note_on', channel=9, note=36, velocity=0, time=8),
    Message('note_on', channel=9, note=36, velocity=127, time=112),
    Message('note_on', channel=9, note=36, velocity=0, time=8),
    Message('note_on', channel=9, note=36, velocity=127, time=472),
    Message('note_on', channel=9, note=36, velocity=0, time=9),
    Message('note_on', channel=9, note=36, velocity=127, time=351),
    Message('note_on', channel=9, note=36, velocity=0, time=10),
    Message('note_on', channel=9, note=36, velocity=127, time=110),
    Message('note_on', channel=9, note=36, velocity=0, time=9),
    Message('note_on', channel=9, note=36, velocity=127, time=471),
    Message('note_on', channel=9, note=36, velocity=0, time=8),
    Message('note_on', channel=9, note=36, velocity=127, time=352),
    Message('note_on', channel=9, note=36, velocity=0, time=8),
    Message('note_on', channel=9, note=36, velocity=127, time=112),
    Message('note_on', channel=9, note=36, velocity=0, time=8),
    Message('note_on', channel=9, note=36, velocity=127, time=352),
    Message('note_on', channel=9, note=36, velocity=0, time=8),
    Message('note_on', channel=9, note=36, velocity=127, time=472),
    Message('note_on', channel=9, note=36, velocity=0, time=8),
    Message('note_on', channel=9, note=36, velocity=127, time=112),
    Message('note_on', channel=9, note=36, velocity=0, time=8),
    Message('note_on', channel=9, note=36, velocity=127, time=472),
    Message('note_on', channel=9, note=36, velocity=0, time=8),
    Message('note_on', channel=9, note=36, velocity=127, time=352),
    Message('note_on', channel=9, note=36, velocity=0, time=8),
    Message('note_on', channel=9, note=36, velocity=127, time=112),
    Message('note_on', channel=9, note=36, velocity=0, time=8),
    Message('note_on', channel=9, note=36, velocity=127, time=352),
    Message('note_on', channel=9, note=36, velocity=0, time=8),
    Message('note_on', channel=9, note=36, velocity=127, time=472),
    Message('note_on', channel=9, note=36, velocity=0, time=8),
    Message('note_on', channel=9, note=36, velocity=127, time=112),
    Message('note_on', channel=9, note=36, velocity=0, time=8),
    Message('note_on', channel=9, note=36, velocity=127, time=472),
    Message('note_on', channel=9, note=36, velocity=0, time=8),
    Message('note_on', channel=9, note=36, velocity=127, time=352),
    Message('note_on', channel=9, note=36, velocity=0, time=8),
    Message('note_on', channel=9, note=36, velocity=127, time=112),
    Message('note_on', channel=9, note=36, velocity=0, time=8),
    Message('note_on', channel=9, note=36, velocity=127, time=352),
    Message('note_on', channel=9, note=36, velocity=0, time=8),
    Message('note_on', channel=9, note=36, velocity=127, time=112),
    Message('note_on', channel=9, note=36, velocity=0, time=8),
    Message('note_on', channel=9, note=36, velocity=127, time=352),
    Message('note_on', channel=9, note=36, velocity=0, time=10),
    Message('note_on', channel=9, note=36, velocity=127, time=110),
    Message('note_on', channel=9, note=36, velocity=0, time=8),
    Message('note_on', channel=9, note=36, velocity=127, time=472),
    Message('note_on', channel=9, note=36, velocity=0, time=8),
    Message('note_on', channel=9, note=36, velocity=127, time=352),
    Message('note_on', channel=9, note=36, velocity=0, time=10),
    Message('note_on', channel=9, note=36, velocity=127, time=110),
    Message('note_on', channel=9, note=36, velocity=0, time=8),
    Message('note_on', channel=9, note=36, velocity=127, time=352),
    Message('note_on', channel=9, note=36, velocity=0, time=8),
    Message('note_on', channel=9, note=36, velocity=127, time=2032),
    Message('note_on', channel=9, note=36, velocity=0, time=9),
    Message('note_on', channel=9, note=36, velocity=127, time=351),
    Message('note_on', channel=9, note=36, velocity=0, time=8),
    Message('note_on', channel=9, note=36, velocity=127, time=112),
    Message('note_on', channel=9, note=36, velocity=0, time=9),
    Message('note_on', channel=9, note=36, velocity=127, time=471),
    Message('note_on', channel=9, note=36, velocity=0, time=9),
    Message('note_on', channel=9, note=36, velocity=127, time=351),
    Message('note_on', channel=9, note=36, velocity=0, time=8),
    Message('note_on', channel=9, note=36, velocity=127, time=112),
    Message('note_on', channel=9, note=36, velocity=0, time=9),
    Message('note_on', channel=9, note=36, velocity=127, time=471),
    Message('note_on', channel=9, note=36, velocity=0, time=9),
    Message('note_on', channel=9, note=36, velocity=127, time=351),
    Message('note_on', channel=9, note=36, velocity=0, time=8),
    Message('note_on', channel=9, note=36, velocity=127, time=112),
    Message('note_on', channel=9, note=36, velocity=0, time=9),
    Message('note_on', channel=9, note=36, velocity=127, time=471),
    Message('note_on', channel=9, note=36, velocity=0, time=9),
    Message('note_on', channel=9, note=36, velocity=127, time=351),
    Message('note_on', channel=9, note=36, velocity=0, time=9),
    Message('note_on', channel=9, note=36, velocity=127, time=111),
    Message('note_on', channel=9, note=36, velocity=0, time=9),
    Message('note_on', channel=9, note=36, velocity=127, time=471),
    Message('note_on', channel=9, note=36, velocity=0, time=9),
    Message('note_on', channel=9, note=36, velocity=127, time=351),
    Message('note_on', channel=9, note=36, velocity=0, time=8),
    Message('note_on', channel=9, note=36, velocity=127, time=112),
    Message('note_on', channel=9, note=36, velocity=0, time=9),
    Message('note_on', channel=9, note=36, velocity=127, time=471),
    Message('note_on', channel=9, note=36, velocity=0, time=9),
    Message('note_on', channel=9, note=36, velocity=127, time=351),
    Message('note_on', channel=9, note=36, velocity=0, time=8),
    Message('note_on', channel=9, note=36, velocity=127, time=112),
    Message('note_on', channel=9, note=36, velocity=0, time=9),
    Message('note_on', channel=9, note=36, velocity=127, time=471),
    Message('note_on', channel=9, note=36, velocity=0, time=9),
    Message('note_on', channel=9, note=36, velocity=127, time=351),
    Message('note_on', channel=9, note=36, velocity=0, time=9),
    Message('note_on', channel=9, note=36, velocity=127, time=111),
    Message('note_on', channel=9, note=36, velocity=0, time=9),
    Message('note_on', channel=9, note=36, velocity=127, time=471),
    Message('note_on', channel=9, note=36, velocity=0, time=8),
    Message('note_on', channel=9, note=36, velocity=127, time=352),
    Message('note_on', channel=9, note=36, velocity=0, time=9),
    Message('note_on', channel=9, note=36, velocity=127, time=111),
    Message('note_on', channel=9, note=36, velocity=0, time=8),
    Message('note_on', channel=9, note=36, velocity=127, time=472),
    Message('note_on', channel=9, note=36, velocity=0, time=9),
    Message('note_on', channel=9, note=36, velocity=127, time=351),
    Message('note_on', channel=9, note=36, velocity=0, time=8),
    Message('note_on', channel=9, note=36, velocity=127, time=112),
    Message('note_on', channel=9, note=36, velocity=0, time=9),
    Message('note_on', channel=9, note=36, velocity=127, time=471),
    Message('note_on', channel=9, note=36, velocity=0, time=9),
    Message('note_on', channel=9, note=36, velocity=127, time=351),
    Message('note_on', channel=9, note=36, velocity=0, time=8),
    Message('note_on', channel=9, note=36, velocity=127, time=112),
    Message('note_on', channel=9, note=36, velocity=0, time=9),
    Message('note_on', channel=9, note=36, velocity=127, time=471),
    Message('note_on', channel=9, note=36, velocity=0, time=8),
    Message('note_on', channel=9, note=36, velocity=127, time=352),
    Message('note_on', channel=9, note=36, velocity=0, time=9),
    Message('note_on', channel=9, note=36, velocity=127, time=111),
    Message('note_on', channel=9, note=36, velocity=0, time=9),
    Message('note_on', channel=9, note=36, velocity=127, time=471),
    Message('note_on', channel=9, note=36, velocity=0, time=9),
    Message('note_on', channel=9, note=36, velocity=127, time=351),
    Message('note_on', channel=9, note=36, velocity=0, time=10),
    Message('note_on', channel=9, note=36, velocity=127, time=110),
    Message('note_on', channel=9, note=36, velocity=0, time=8),
    Message('note_on', channel=9, note=36, velocity=127, time=472),
    Message('note_on', channel=9, note=36, velocity=0, time=8),
    Message('note_on', channel=9, note=36, velocity=127, time=352),
    Message('note_on', channel=9, note=36, velocity=0, time=9),
    Message('note_on', channel=9, note=36, velocity=127, time=111),
    Message('note_on', channel=9, note=36, velocity=0, time=8),
    Message('note_on', channel=9, note=36, velocity=127, time=472),
    Message('note_on', channel=9, note=36, velocity=0, time=8),
    Message('note_on', channel=9, note=36, velocity=127, time=352),
    Message('note_on', channel=9, note=36, velocity=0, time=10),
    Message('note_on', channel=9, note=36, velocity=127, time=110),
    Message('note_on', channel=9, note=36, velocity=0, time=8),
    Message('note_on', channel=9, note=36, velocity=127, time=472),
    Message('note_on', channel=9, note=36, velocity=0, time=8),
    Message('note_on', channel=9, note=36, velocity=127, time=352),
    Message('note_on', channel=9, note=36, velocity=0, time=10),
    Message('note_on', channel=9, note=36, velocity=127, time=110),
    Message('note_on', channel=9, note=36, velocity=0, time=8),
    Message('note_on', channel=9, note=36, velocity=127, time=472),
    Message('note_on', channel=9, note=36, velocity=0, time=8),
    Message('note_on', channel=9, note=36, velocity=127, time=352),
    Message('note_on', channel=9, note=36, velocity=0, time=10),
    Message('note_on', channel=9, note=36, velocity=127, time=110),
    Message('note_on', channel=9, note=36, velocity=0, time=8),
    Message('note_on', channel=9, note=36, velocity=127, time=472),
    Message('note_on', channel=9, note=36, velocity=0, time=8),
    Message('note_on', channel=9, note=36, velocity=127, time=352),
    Message('note_on', channel=9, note=36, velocity=0, time=10),
    Message('note_on', channel=9, note=36, velocity=127, time=110),
    Message('note_on', channel=9, note=36, velocity=0, time=8),
    Message('note_on', channel=9, note=36, velocity=127, time=472),
    Message('note_on', channel=9, note=36, velocity=0, time=8),
    Message('note_on', channel=9, note=36, velocity=127, time=352),
    Message('note_on', channel=9, note=36, velocity=0, time=9),
    Message('note_on', channel=9, note=36, velocity=127, time=111),
    Message('note_on', channel=9, note=36, velocity=0, time=9),
    Message('note_on', channel=9, note=36, velocity=127, time=471),
    Message('note_on', channel=9, note=36, velocity=0, time=9),
    MetaMessage('end_of_track', time=0)]),
  MidiTrack([
    MetaMessage('midi_port', port=0, time=0),
    MetaMessage('track_name', name='Snare', time=0),
    Message('program_change', channel=9, program=0, time=0),
    Message('note_on', channel=9, note=38, velocity=127, time=8280),
    Message('note_on', channel=9, note=38, velocity=0, time=8),
    Message('note_on', channel=9, note=38, velocity=127, time=232),
    Message('note_on', channel=9, note=38, velocity=0, time=10),
    Message('note_on', channel=9, note=38, velocity=127, time=350),
    Message('note_on', channel=9, note=38, velocity=0, time=9),
    Message('note_on', channel=9, note=38, velocity=127, time=471),
    Message('note_on', channel=9, note=38, velocity=0, time=10),
    Message('note_on', channel=9, note=38, velocity=127, time=470),
    Message('note_on', channel=9, note=38, velocity=0, time=9),
    Message('note_on', channel=9, note=38, velocity=127, time=471),
    Message('note_on', channel=9, note=38, velocity=0, time=9),
    Message('note_on', channel=9, note=38, velocity=127, time=471),
    Message('note_on', channel=9, note=38, velocity=0, time=8),
    Message('note_on', channel=9, note=38, velocity=127, time=472),
    Message('note_on', channel=9, note=38, velocity=0, time=9),
    Message('note_on', channel=9, note=38, velocity=127, time=471),
    Message('note_on', channel=9, note=38, velocity=0, time=8),
    Message('note_on', channel=9, note=38, velocity=127, time=472),
    Message('note_on', channel=9, note=38, velocity=0, time=8),
    Message('note_on', channel=9, note=38, velocity=127, time=472),
    Message('note_on', channel=9, note=38, velocity=0, time=10),
    Message('note_on', channel=9, note=38, velocity=127, time=470),
    Message('note_on', channel=9, note=38, velocity=0, time=9),
    Message('note_on', channel=9, note=38, velocity=127, time=471),
    Message('note_on', channel=9, note=38, velocity=0, time=8),
    Message('note_on', channel=9, note=38, velocity=127, time=472),
    Message('note_on', channel=9, note=38, velocity=0, time=8),
    Message('note_on', channel=9, note=38, velocity=127, time=472),
    Message('note_on', channel=9, note=38, velocity=0, time=8),
    Message('note_on', channel=9, note=38, velocity=127, time=472),
    Message('note_on', channel=9, note=38, velocity=0, time=8),
    Message('note_on', channel=9, note=38, velocity=127, time=472),
    Message('note_on', channel=9, note=38, velocity=0, time=8),
    Message('note_on', channel=9, note=38, velocity=127, time=472),
    Message('note_on', channel=9, note=38, velocity=0, time=8),
    Message('note_on', channel=9, note=38, velocity=127, time=472),
    Message('note_on', channel=9, note=38, velocity=0, time=10),
    Message('note_on', channel=9, note=38, velocity=127, time=470),
    Message('note_on', channel=9, note=38, velocity=0, time=9),
    Message('note_on', channel=9, note=38, velocity=127, time=471),
    Message('note_on', channel=9, note=38, velocity=0, time=8),
    Message('note_on', channel=9, note=38, velocity=127, time=472),
    Message('note_on', channel=9, note=38, velocity=0, time=8),
    Message('note_on', channel=9, note=38, velocity=127, time=472),
    Message('note_on', channel=9, note=38, velocity=0, time=10),
    Message('note_on', channel=9, note=38, velocity=127, time=470),
    Message('note_on', channel=9, note=38, velocity=0, time=9),
    Message('note_on', channel=9, note=38, velocity=127, time=471),
    Message('note_on', channel=9, note=38, velocity=0, time=9),
    Message('note_on', channel=9, note=38, velocity=127, time=471),
    Message('note_on', channel=9, note=38, velocity=0, time=8),
    Message('note_on', channel=9, note=38, velocity=127, time=472),
    Message('note_on', channel=9, note=38, velocity=0, time=10),
    Message('note_on', channel=9, note=38, velocity=127, time=470),
    Message('note_on', channel=9, note=38, velocity=0, time=10),
    Message('note_on', channel=9, note=38, velocity=127, time=470),
    Message('note_on', channel=9, note=38, velocity=0, time=9),
    Message('note_on', channel=9, note=38, velocity=127, time=471),
    Message('note_on', channel=9, note=38, velocity=0, time=8),
    Message('note_on', channel=9, note=38, velocity=127, time=472),
    Message('note_on', channel=9, note=38, velocity=0, time=10),
    Message('note_on', channel=9, note=38, velocity=127, time=470),
    Message('note_on', channel=9, note=38, velocity=0, time=8),
    Message('note_on', channel=9, note=38, velocity=127, time=472),
    Message('note_on', channel=9, note=38, velocity=0, time=8),
    Message('note_on', channel=9, note=38, velocity=127, time=472),
    Message('note_on', channel=9, note=38, velocity=0, time=8),
    Message('note_on', channel=9, note=38, velocity=127, time=472),
    Message('note_on', channel=9, note=38, velocity=0, time=10),
    Message('note_on', channel=9, note=38, velocity=127, time=470),
    Message('note_on', channel=9, note=38, velocity=0, time=8),
    Message('note_on', channel=9, note=38, velocity=127, time=472),
    Message('note_on', channel=9, note=38, velocity=0, time=9),
    Message('note_on', channel=9, note=38, velocity=127, time=351),
    Message('note_on', channel=9, note=38, velocity=0, time=8),
    Message('note_on', channel=9, note=38, velocity=127, time=112),
    Message('note_on', channel=9, note=38, velocity=0, time=8),
    Message('note_on', channel=9, note=38, velocity=127, time=472),
    Message('note_on', channel=9, note=38, velocity=0, time=8),
    Message('note_on', channel=9, note=38, velocity=127, time=472),
    Message('note_on', channel=9, note=38, velocity=0, time=8),
    Message('note_on', channel=9, note=38, velocity=127, time=472),
    Message('note_on', channel=9, note=38, velocity=0, time=9),
    Message('note_on', channel=9, note=38, velocity=127, time=471),
    Message('note_on', channel=9, note=38, velocity=0, time=9),
    Message('note_on', channel=9, note=38, velocity=127, time=471),
    Message('note_on', channel=9, note=38, velocity=0, time=10),
    Message('note_on', channel=9, note=38, velocity=127, time=470),
    Message('note_on', channel=9, note=38, velocity=0, time=8),
    Message('note_on', channel=9, note=38, velocity=127, time=472),
    Message('note_on', channel=9, note=38, velocity=0, time=10),
    Message('note_on', channel=9, note=38, velocity=127, time=470),
    Message('note_on', channel=9, note=38, velocity=0, time=8),
    Message('note_on', channel=9, note=38, velocity=127, time=472),
    Message('note_on', channel=9, note=38, velocity=0, time=10),
    Message('note_on', channel=9, note=38, velocity=127, time=470),
    Message('note_on', channel=9, note=38, velocity=0, time=8),
    Message('note_on', channel=9, note=38, velocity=127, time=472),
    Message('note_on', channel=9, note=38, velocity=0, time=9),
    Message('note_on', channel=9, note=38, velocity=127, time=471),
    Message('note_on', channel=9, note=38, velocity=0, time=9),
    Message('note_on', channel=9, note=38, velocity=127, time=471),
    Message('note_on', channel=9, note=38, velocity=0, time=10),
    Message('note_on', channel=9, note=38, velocity=127, time=470),
    Message('note_on', channel=9, note=38, velocity=0, time=10),
    Message('note_on', channel=9, note=38, velocity=127, time=470),
    Message('note_on', channel=9, note=38, velocity=0, time=10),
    Message('note_on', channel=9, note=38, velocity=127, time=350),
    Message('note_on', channel=9, note=38, velocity=0, time=8),
    Message('note_on', channel=9, note=38, velocity=127, time=112),
    Message('note_on', channel=9, note=38, velocity=0, time=8),
    Message('note_on', channel=9, note=38, velocity=127, time=472),
    Message('note_on', channel=9, note=38, velocity=0, time=9),
    Message('note_on', channel=9, note=38, velocity=127, time=471),
    Message('note_on', channel=9, note=38, velocity=0, time=9),
    Message('note_on', channel=9, note=38, velocity=127, time=471),
    Message('note_on', channel=9, note=38, velocity=0, time=9),
    Message('note_on', channel=9, note=38, velocity=127, time=471),
    Message('note_on', channel=9, note=38, velocity=0, time=8),
    Message('note_on', channel=9, note=38, velocity=127, time=472),
    Message('note_on', channel=9, note=38, velocity=0, time=10),
    Message('note_on', channel=9, note=38, velocity=127, time=470),
    Message('note_on', channel=9, note=38, velocity=0, time=9),
    Message('note_on', channel=9, note=38, velocity=127, time=471),
    Message('note_on', channel=9, note=38, velocity=0, time=8),
    Message('note_on', channel=9, note=38, velocity=127, time=472),
    Message('note_on', channel=9, note=38, velocity=0, time=8),
    Message('note_on', channel=9, note=38, velocity=127, time=472),
    Message('note_on', channel=9, note=38, velocity=0, time=10),
    Message('note_on', channel=9, note=38, velocity=127, time=470),
    Message('note_on', channel=9, note=38, velocity=0, time=8),
    Message('note_on', channel=9, note=38, velocity=127, time=472),
    Message('note_on', channel=9, note=38, velocity=0, time=9),
    Message('note_on', channel=9, note=38, velocity=127, time=471),
    Message('note_on', channel=9, note=38, velocity=0, time=9),
    Message('note_on', channel=9, note=38, velocity=127, time=471),
    Message('note_on', channel=9, note=38, velocity=0, time=10),
    Message('note_on', channel=9, note=38, velocity=127, time=470),
    Message('note_on', channel=9, note=38, velocity=0, time=8),
    Message('note_on', channel=9, note=38, velocity=127, time=472),
    Message('note_on', channel=9, note=38, velocity=0, time=9),
    Message('note_on', channel=9, note=38, velocity=127, time=471),
    Message('note_on', channel=9, note=38, velocity=0, time=8),
    Message('note_on', channel=9, note=38, velocity=127, time=472),
    Message('note_on', channel=9, note=38, velocity=0, time=9),
    Message('note_on', channel=9, note=38, velocity=127, time=471),
    Message('note_on', channel=9, note=38, velocity=0, time=9),
    Message('note_on', channel=9, note=38, velocity=127, time=471),
    Message('note_on', channel=9, note=38, velocity=0, time=8),
    Message('note_on', channel=9, note=38, velocity=127, time=472),
    Message('note_on', channel=9, note=38, velocity=0, time=8),
    Message('note_on', channel=9, note=38, velocity=127, time=472),
    Message('note_on', channel=9, note=38, velocity=0, time=10),
    Message('note_on', channel=9, note=38, velocity=127, time=470),
    Message('note_on', channel=9, note=38, velocity=0, time=10),
    Message('note_on', channel=9, note=38, velocity=127, time=470),
    Message('note_on', channel=9, note=38, velocity=0, time=10),
    Message('note_on', channel=9, note=38, velocity=127, time=470),
    Message('note_on', channel=9, note=38, velocity=0, time=8),
    Message('note_on', channel=9, note=38, velocity=127, time=472),
    Message('note_on', channel=9, note=38, velocity=0, time=10),
    Message('note_on', channel=9, note=38, velocity=127, time=470),
    Message('note_on', channel=9, note=38, velocity=0, time=9),
    Message('note_on', channel=9, note=38, velocity=127, time=471),
    Message('note_on', channel=9, note=38, velocity=0, time=9),
    Message('note_on', channel=9, note=38, velocity=127, time=471),
    Message('note_on', channel=9, note=38, velocity=0, time=8),
    Message('note_on', channel=9, note=38, velocity=127, time=472),
    Message('note_on', channel=9, note=38, velocity=0, time=10),
    Message('note_on', channel=9, note=38, velocity=127, time=470),
    Message('note_on', channel=9, note=38, velocity=0, time=8),
    Message('note_on', channel=9, note=38, velocity=127, time=472),
    Message('note_on', channel=9, note=38, velocity=0, time=8),
    Message('note_on', channel=9, note=38, velocity=127, time=472),
    Message('note_on', channel=9, note=38, velocity=0, time=8),
    Message('note_on', channel=9, note=38, velocity=127, time=472),
    Message('note_on', channel=9, note=38, velocity=0, time=10),
    Message('note_on', channel=9, note=38, velocity=127, time=470),
    Message('note_on', channel=9, note=38, velocity=0, time=9),
    Message('note_on', channel=9, note=38, velocity=127, time=471),
    Message('note_on', channel=9, note=38, velocity=0, time=8),
    Message('note_on', channel=9, note=38, velocity=127, time=352),
    Message('note_on', channel=9, note=38, velocity=0, time=8),
    Message('note_on', channel=9, note=38, velocity=127, time=112),
    Message('note_on', channel=9, note=38, velocity=0, time=8),
    Message('note_on', channel=9, note=38, velocity=127, time=472),
    Message('note_on', channel=9, note=38, velocity=0, time=10),
    Message('note_on', channel=9, note=38, velocity=127, time=470),
    Message('note_on', channel=9, note=38, velocity=0, time=8),
    Message('note_on', channel=9, note=38, velocity=127, time=472),
    Message('note_on', channel=9, note=38, velocity=0, time=8),
    Message('note_on', channel=9, note=38, velocity=127, time=472),
    Message('note_on', channel=9, note=38, velocity=0, time=8),
    Message('note_on', channel=9, note=38, velocity=127, time=472),
    Message('note_on', channel=9, note=38, velocity=0, time=10),
    Message('note_on', channel=9, note=38, velocity=127, time=470),
    Message('note_on', channel=9, note=38, velocity=0, time=9),
    Message('note_on', channel=9, note=38, velocity=127, time=471),
    Message('note_on', channel=9, note=38, velocity=0, time=10),
    Message('note_on', channel=9, note=38, velocity=127, time=470),
    Message('note_on', channel=9, note=38, velocity=0, time=9),
    Message('note_on', channel=9, note=38, velocity=127, time=471),
    Message('note_on', channel=9, note=38, velocity=0, time=8),
    Message('note_on', channel=9, note=38, velocity=127, time=472),
    Message('note_on', channel=9, note=38, velocity=0, time=9),
    Message('note_on', channel=9, note=38, velocity=127, time=471),
    Message('note_on', channel=9, note=38, velocity=0, time=9),
    Message('note_on', channel=9, note=38, velocity=127, time=471),
    Message('note_on', channel=9, note=38, velocity=0, time=9),
    Message('note_on', channel=9, note=38, velocity=127, time=471),
    Message('note_on', channel=9, note=38, velocity=0, time=8),
    Message('note_on', channel=9, note=38, velocity=127, time=472),
    Message('note_on', channel=9, note=38, velocity=0, time=9),
    Message('note_on', channel=9, note=38, velocity=127, time=471),
    Message('note_on', channel=9, note=38, velocity=0, time=9),
    Message('note_on', channel=9, note=38, velocity=127, time=351),
    Message('note_on', channel=9, note=38, velocity=0, time=8),
    Message('note_on', channel=9, note=38, velocity=127, time=112),
    Message('note_on', channel=9, note=38, velocity=0, time=9),
    Message('note_on', channel=9, note=38, velocity=127, time=471),
    Message('note_on', channel=9, note=38, velocity=0, time=8),
    Message('note_on', channel=9, note=38, velocity=127, time=472),
    Message('note_on', channel=9, note=38, velocity=0, time=8),
    Message('note_on', channel=9, note=38, velocity=127, time=472),
    Message('note_on', channel=9, note=38, velocity=0, time=8),
    Message('note_on', channel=9, note=38, velocity=127, time=472),
    Message('note_on', channel=9, note=38, velocity=0, time=8),
    Message('note_on', channel=9, note=38, velocity=127, time=472),
    Message('note_on', channel=9, note=38, velocity=0, time=8),
    Message('note_on', channel=9, note=38, velocity=127, time=472),
    Message('note_on', channel=9, note=38, velocity=0, time=8),
    Message('note_on', channel=9, note=38, velocity=127, time=472),
    Message('note_on', channel=9, note=38, velocity=0, time=8),
    Message('note_on', channel=9, note=38, velocity=127, time=472),
    Message('note_on', channel=9, note=38, velocity=0, time=8),
    Message('note_on', channel=9, note=38, velocity=127, time=472),
    Message('note_on', channel=9, note=38, velocity=0, time=8),
    Message('note_on', channel=9, note=38, velocity=127, time=472),
    Message('note_on', channel=9, note=38, velocity=0, time=8),
    Message('note_on', channel=9, note=38, velocity=127, time=472),
    Message('note_on', channel=9, note=38, velocity=0, time=8),
    Message('note_on', channel=9, note=38, velocity=127, time=472),
    Message('note_on', channel=9, note=38, velocity=0, time=8),
    Message('note_on', channel=9, note=38, velocity=127, time=472),
    Message('note_on', channel=9, note=38, velocity=0, time=8),
    Message('note_on', channel=9, note=38, velocity=127, time=472),
    Message('note_on', channel=9, note=38, velocity=0, time=9),
    Message('note_on', channel=9, note=38, velocity=127, time=471),
    Message('note_on', channel=9, note=38, velocity=0, time=9),
    Message('note_on', channel=9, note=38, velocity=127, time=471),
    Message('note_on', channel=9, note=38, velocity=0, time=9),
    Message('note_on', channel=9, note=38, velocity=127, time=471),
    Message('note_on', channel=9, note=38, velocity=0, time=9),
    Message('note_on', channel=9, note=38, velocity=127, time=471),
    Message('note_on', channel=9, note=38, velocity=0, time=9),
    Message('note_on', channel=9, note=38, velocity=127, time=471),
    Message('note_on', channel=9, note=38, velocity=0, time=8),
    Message('note_on', channel=9, note=38, velocity=127, time=472),
    Message('note_on', channel=9, note=38, velocity=0, time=8),
    Message('note_on', channel=9, note=38, velocity=127, time=472),
    Message('note_on', channel=9, note=38, velocity=0, time=8),
    Message('note_on', channel=9, note=38, velocity=127, time=472),
    Message('note_on', channel=9, note=38, velocity=0, time=8),
    Message('note_on', channel=9, note=38, velocity=127, time=472),
    Message('note_on', channel=9, note=38, velocity=0, time=8),
    Message('note_on', channel=9, note=38, velocity=127, time=472),
    Message('note_on', channel=9, note=38, velocity=0, time=8),
    Message('note_on', channel=9, note=38, velocity=127, time=472),
    Message('note_on', channel=9, note=38, velocity=0, time=8),
    Message('note_on', channel=9, note=38, velocity=127, time=472),
    Message('note_on', channel=9, note=38, velocity=0, time=9),
    Message('note_on', channel=9, note=38, velocity=127, time=471),
    Message('note_on', channel=9, note=38, velocity=0, time=9),
    Message('note_on', channel=9, note=38, velocity=127, time=471),
    Message('note_on', channel=9, note=38, velocity=0, time=9),
    Message('note_on', channel=9, note=38, velocity=127, time=471),
    Message('note_on', channel=9, note=38, velocity=0, time=9),
    Message('note_on', channel=9, note=38, velocity=127, time=471),
    Message('note_on', channel=9, note=38, velocity=0, time=9),
    Message('note_on', channel=9, note=38, velocity=127, time=351),
    Message('note_on', channel=9, note=38, velocity=0, time=9),
    Message('note_on', channel=9, note=38, velocity=127, time=231),
    Message('note_on', channel=9, note=38, velocity=0, time=8),
    Message('note_on', channel=9, note=38, velocity=127, time=232),
    Message('note_on', channel=9, note=38, velocity=0, time=10),
    Message('note_on', channel=9, note=38, velocity=127, time=110),
    Message('note_on', channel=9, note=38, velocity=0, time=8),
    Message('note_on', channel=9, note=38, velocity=127, time=472),
    Message('note_on', channel=9, note=38, velocity=0, time=8),
    Message('note_on', channel=9, note=38, velocity=127, time=472),
    Message('note_on', channel=9, note=38, velocity=0, time=10),
    Message('note_on', channel=9, note=38, velocity=127, time=470),
    Message('note_on', channel=9, note=38, velocity=0, time=10),
    Message('note_on', channel=9, note=38, velocity=127, time=470),
    Message('note_on', channel=9, note=38, velocity=0, time=10),
    Message('note_on', channel=9, note=38, velocity=127, time=470),
    Message('note_on', channel=9, note=38, velocity=0, time=10),
    Message('note_on', channel=9, note=38, velocity=127, time=470),
    Message('note_on', channel=9, note=38, velocity=0, time=8),
    Message('note_on', channel=9, note=38, velocity=127, time=472),
    Message('note_on', channel=9, note=38, velocity=0, time=8),
    Message('note_on', channel=9, note=38, velocity=127, time=472),
    Message('note_on', channel=9, note=38, velocity=0, time=9),
    Message('note_on', channel=9, note=38, velocity=127, time=471),
    Message('note_on', channel=9, note=38, velocity=0, time=10),
    Message('note_on', channel=9, note=38, velocity=127, time=470),
    Message('note_on', channel=9, note=38, velocity=0, time=9),
    Message('note_on', channel=9, note=38, velocity=127, time=471),
    Message('note_on', channel=9, note=38, velocity=0, time=10),
    Message('note_on', channel=9, note=38, velocity=127, time=470),
    Message('note_on', channel=9, note=38, velocity=0, time=8),
    Message('note_on', channel=9, note=38, velocity=127, time=472),
    Message('note_on', channel=9, note=38, velocity=0, time=10),
    Message('note_on', channel=9, note=38, velocity=127, time=470),
    Message('note_on', channel=9, note=38, velocity=0, time=9),
    Message('note_on', channel=9, note=38, velocity=127, time=471),
    Message('note_on', channel=9, note=38, velocity=0, time=8),
    Message('note_on', channel=9, note=38, velocity=127, time=352),
    Message('note_on', channel=9, note=38, velocity=0, time=8),
    Message('note_on', channel=9, note=38, velocity=127, time=112),
    Message('note_on', channel=9, note=38, velocity=0, time=8),
    Message('note_on', channel=9, note=38, velocity=127, time=472),
    Message('note_on', channel=9, note=38, velocity=0, time=9),
    Message('note_on', channel=9, note=38, velocity=127, time=471),
    Message('note_on', channel=9, note=38, velocity=0, time=8),
    Message('note_on', channel=9, note=38, velocity=127, time=472),
    Message('note_on', channel=9, note=38, velocity=0, time=8),
    Message('note_on', channel=9, note=38, velocity=127, time=352),
    Message('note_on', channel=9, note=38, velocity=0, time=8),
    Message('note_on', channel=9, note=38, velocity=127, time=112),
    Message('note_on', channel=9, note=38, velocity=0, time=8),
    Message('note_on', channel=9, note=38, velocity=127, time=472),
    Message('note_on', channel=9, note=38, velocity=0, time=8),
    Message('note_on', channel=9, note=38, velocity=127, time=472),
    Message('note_on', channel=9, note=38, velocity=0, time=8),
    Message('note_on', channel=9, note=38, velocity=127, time=472),
    Message('note_on', channel=9, note=38, velocity=0, time=8),
    Message('note_on', channel=9, note=38, velocity=127, time=352),
    Message('note_on', channel=9, note=38, velocity=0, time=8),
    Message('note_on', channel=9, note=38, velocity=43, time=112),
    Message('note_on', channel=9, note=38, velocity=0, time=8),
    Message('note_on', channel=9, note=38, velocity=43, time=52),
    Message('note_on', channel=9, note=38, velocity=0, time=9),
    Message('note_on', channel=9, note=38, velocity=127, time=51),
    Message('note_on', channel=9, note=38, velocity=0, time=9),
    Message('note_on', channel=9, note=38, velocity=127, time=51),
    Message('note_on', channel=9, note=38, velocity=0, time=9),
    Message('note_on', channel=9, note=38, velocity=127, time=291),
    Message('note_on', channel=9, note=38, velocity=0, time=9),
    Message('note_on', channel=9, note=38, velocity=127, time=471),
    Message('note_on', channel=9, note=38, velocity=0, time=9),
    Message('note_on', channel=9, note=38, velocity=127, time=471),
    Message('note_on', channel=9, note=38, velocity=0, time=9),
    Message('note_on', channel=9, note=38, velocity=127, time=471),
    Message('note_on', channel=9, note=38, velocity=0, time=9),
    Message('note_on', channel=9, note=38, velocity=127, time=1911),
    Message('note_on', channel=9, note=38, velocity=0, time=10),
    Message('note_on', channel=9, note=38, velocity=127, time=470),
    Message('note_on', channel=9, note=38, velocity=0, time=8),
    Message('note_on', channel=9, note=38, velocity=127, time=472),
    Message('note_on', channel=9, note=38, velocity=0, time=8),
    Message('note_on', channel=9, note=38, velocity=127, time=472),
    Message('note_on', channel=9, note=38, velocity=0, time=8),
    Message('note_on', channel=9, note=38, velocity=127, time=472),
    Message('note_on', channel=9, note=38, velocity=0, time=8),
    Message('note_on', channel=9, note=38, velocity=127, time=472),
    Message('note_on', channel=9, note=38, velocity=0, time=8),
    Message('note_on', channel=9, note=38, velocity=127, time=472),
    Message('note_on', channel=9, note=38, velocity=0, time=8),
    Message('note_on', channel=9, note=38, velocity=127, time=472),
    Message('note_on', channel=9, note=38, velocity=0, time=8),
    Message('note_on', channel=9, note=38, velocity=43, time=112),
    Message('note_on', channel=9, note=38, velocity=0, time=9),
    Message('note_on', channel=9, note=38, velocity=43, time=111),
    Message('note_on', channel=9, note=38, velocity=0, time=9),
    Message('note_on', channel=9, note=38, velocity=127, time=111),
    Message('note_on', channel=9, note=38, velocity=0, time=8),
    Message('note_on', channel=9, note=38, velocity=127, time=112),
    Message('note_on', channel=9, note=38, velocity=0, time=9),
    Message('note_on', channel=9, note=38, velocity=127, time=111),
    Message('note_on', channel=9, note=38, velocity=0, time=9),
    Message('note_on', channel=9, note=38, velocity=127, time=351),
    Message('note_on', channel=9, note=38, velocity=0, time=8),
    Message('note_on', channel=9, note=38, velocity=127, time=472),
    Message('note_on', channel=9, note=38, velocity=0, time=8),
    Message('note_on', channel=9, note=38, velocity=127, time=472),
    Message('note_on', channel=9, note=38, velocity=0, time=8),
    Message('note_on', channel=9, note=38, velocity=127, time=472),
    Message('note_on', channel=9, note=38, velocity=0, time=9),
    Message('note_on', channel=9, note=38, velocity=127, time=471),
    Message('note_on', channel=9, note=38, velocity=0, time=8),
    Message('note_on', channel=9, note=38, velocity=127, time=472),
    Message('note_on', channel=9, note=38, velocity=0, time=9),
    Message('note_on', channel=9, note=38, velocity=127, time=351),
    Message('note_on', channel=9, note=38, velocity=0, time=8),
    Message('note_on', channel=9, note=38, velocity=127, time=232),
    Message('note_on', channel=9, note=38, velocity=0, time=8),
    Message('note_on', channel=9, note=38, velocity=127, time=232),
    Message('note_on', channel=9, note=38, velocity=0, time=9),
    Message('note_on', channel=9, note=38, velocity=127, time=111),
    Message('note_on', channel=9, note=38, velocity=0, time=9),
    Message('note_on', channel=9, note=38, velocity=127, time=471),
    Message('note_on', channel=9, note=38, velocity=0, time=8),
    Message('note_on', channel=9, note=38, velocity=127, time=472),
    Message('note_on', channel=9, note=38, velocity=0, time=8),
    Message('note_on', channel=9, note=38, velocity=127, time=472),
    Message('note_on', channel=9, note=38, velocity=0, time=8),
    Message('note_on', channel=9, note=38, velocity=127, time=472),
    Message('note_on', channel=9, note=38, velocity=0, time=8),
    Message('note_on', channel=9, note=38, velocity=127, time=472),
    Message('note_on', channel=9, note=38, velocity=0, time=8),
    Message('note_on', channel=9, note=38, velocity=127, time=472),
    Message('note_on', channel=9, note=38, velocity=0, time=8),
    Message('note_on', channel=9, note=38, velocity=127, time=472),
    Message('note_on', channel=9, note=38, velocity=0, time=9),
    Message('note_on', channel=9, note=38, velocity=127, time=471),
    Message('note_on', channel=9, note=38, velocity=0, time=9),
    Message('note_on', channel=9, note=38, velocity=127, time=471),
    Message('note_on', channel=9, note=38, velocity=0, time=9),
    Message('note_on', channel=9, note=38, velocity=127, time=471),
    Message('note_on', channel=9, note=38, velocity=0, time=9),
    Message('note_on', channel=9, note=38, velocity=127, time=471),
    Message('note_on', channel=9, note=38, velocity=0, time=9),
    Message('note_on', channel=9, note=38, velocity=127, time=471),
    Message('note_on', channel=9, note=38, velocity=0, time=9),
    Message('note_on', channel=9, note=38, velocity=127, time=471),
    Message('note_on', channel=9, note=38, velocity=0, time=9),
    Message('note_on', channel=9, note=38, velocity=127, time=471),
    Message('note_on', channel=9, note=38, velocity=0, time=9),
    Message('note_on', channel=9, note=38, velocity=127, time=471),
    Message('note_on', channel=9, note=38, velocity=0, time=9),
    Message('note_on', channel=9, note=38, velocity=127, time=471),
    Message('note_on', channel=9, note=38, velocity=0, time=9),
    Message('note_on', channel=9, note=38, velocity=127, time=471),
    Message('note_on', channel=9, note=38, velocity=0, time=9),
    Message('note_on', channel=9, note=38, velocity=127, time=471),
    Message('note_on', channel=9, note=38, velocity=0, time=9),
    Message('note_on', channel=9, note=38, velocity=127, time=471),
    Message('note_on', channel=9, note=38, velocity=0, time=9),
    Message('note_on', channel=9, note=38, velocity=43, time=111),
    Message('note_on', channel=9, note=38, velocity=0, time=8),
    Message('note_on', channel=9, note=38, velocity=43, time=112),
    Message('note_on', channel=9, note=38, velocity=0, time=9),
    Message('note_on', channel=9, note=38, velocity=127, time=111),
    Message('note_on', channel=9, note=38, velocity=0, time=10),
    Message('note_on', channel=9, note=38, velocity=127, time=110),
    Message('note_on', channel=9, note=38, velocity=0, time=8),
    Message('note_on', channel=9, note=38, velocity=127, time=112),
    Message('note_on', channel=9, note=38, velocity=0, time=8),
    MetaMessage('end_of_track', time=0)]),
  MidiTrack([
    MetaMessage('midi_port', port=0, time=0),
    MetaMessage('track_name', name='================', time=0),
    MetaMessage('end_of_track', time=0)]),
  MidiTrack([
    MetaMessage('midi_port', port=0, time=0),
    MetaMessage('track_name', name='The Eagles', time=0),
    MetaMessage('end_of_track', time=0)]),
  MidiTrack([
    MetaMessage('midi_port', port=0, time=0),
    MetaMessage('track_name', name='"Take it Easy"', time=0),
    MetaMessage('end_of_track', time=0)]),
  MidiTrack([
    MetaMessage('midi_port', port=0, time=0),
    MetaMessage('track_name', name="for Roland SC's", time=0),
    MetaMessage('end_of_track', time=0)]),
  MidiTrack([
    MetaMessage('midi_port', port=0, time=0),
    MetaMessage('track_name', name='and compatibles', time=0),
    MetaMessage('end_of_track', time=0)]),
  MidiTrack([
    MetaMessage('midi_port', port=0, time=0),
    MetaMessage('track_name', name='================', time=0),
    MetaMessage('end_of_track', time=0)]),
  MidiTrack([
    MetaMessage('midi_port', port=0, time=0),
    MetaMessage('track_name', name='Extended Program', time=0),
    MetaMessage('end_of_track', time=0)]),
  MidiTrack([
    MetaMessage('midi_port', port=0, time=0),
    MetaMessage('track_name', name='Change messages', time=0),
    MetaMessage('end_of_track', time=0)]),
  MidiTrack([
    MetaMessage('midi_port', port=0, time=0),
    MetaMessage('track_name', name='Used on Channels', time=0),
    MetaMessage('end_of_track', time=0)]),
  MidiTrack([
    MetaMessage('midi_port', port=0, time=0),
    MetaMessage('track_name', name='3,4,6 & 8', time=0),
    MetaMessage('end_of_track', time=0)]),
  MidiTrack([
    MetaMessage('midi_port', port=0, time=0),
    MetaMessage('track_name', name='===============', time=0),
    MetaMessage('end_of_track', time=0)]),
  MidiTrack([
    MetaMessage('midi_port', port=0, time=0),
    MetaMessage('track_name', name='All rights reserved!', time=0),
    MetaMessage('end_of_track', time=0)])
])
