MidiFile(type=1, ticks_per_beat=480, tracks=[
  MidiTrack([
    MetaMessage('set_tempo', tempo=545454, time=0),
    MetaMessage('track_name', name='Friends In Low Places', time=0),
    MetaMessage('time_signature', numerator=4, denominator=4, clocks_per_click=8, notated_32nd_notes_per_beat=82, time=0),
    MetaMessage('end_of_track', time=0)]),
  MidiTrack([
    MetaMessage('track_name', name='Clean Guitar', time=0),
    Message('control_change', channel=0, control=100, value=0, time=0),
    Message('control_change', channel=0, control=101, value=0, time=0),
    Message('control_change', channel=0, control=6, value=12, time=0),
    Message('pitchwheel', channel=0, pitch=0, time=0),
    Message('control_change', channel=1, control=100, value=0, time=0),
    Message('control_change', channel=1, control=101, value=0, time=0),
    Message('control_change', channel=1, control=6, value=12, time=0),
    Message('pitchwheel', channel=1, pitch=0, time=0),
    Message('program_change', channel=0, program=27, time=0),
    Message('program_change', channel=1, program=27, time=0),
    Message('control_change', channel=0, control=7, value=88, time=0),
    Message('control_change', channel=1, control=7, value=88, time=0),
    Message('control_change', channel=0, control=10, value=24, time=0),
    Message('control_change', channel=1, control=10, value=24, time=0),
    Message('control_change', channel=0, control=93, value=0, time=0),
    Message('control_change', channel=1, control=93, value=0, time=0),
    Message('control_change', channel=0, control=91, value=64, time=0),
    Message('control_change', channel=1, control=91, value=64, time=0),
    Message('control_change', channel=0, control=92, value=0, time=0),
    Message('control_change', channel=1, control=92, value=0, time=0),
    Message('control_change', channel=0, control=95, value=0, time=0),
    Message('control_change', channel=1, control=95, value=0, time=0),
    Message('note_on', channel=0, note=45, velocity=95, time=1920),
    Message('note_off', channel=0, note=45, velocity=80, time=240),
    Message('note_on', channel=0, note=52, velocity=95, time=0),
    Message('note_off', channel=0, note=52, velocity=80, time=240),
    Message('note_on', channel=0, note=57, velocity=95, time=0),
    Message('note_off', channel=0, note=57, velocity=80, time=240),
    Message('note_on', channel=0, note=61, velocity=95, time=0),
    Message('note_off', channel=0, note=61, velocity=80, time=1200),
    Message('note_on', channel=0, note=46, velocity=95, time=0),
    Message('note_off', channel=0, note=46, velocity=80, time=240),
    Message('note_on', channel=0, note=55, velocity=95, time=0),
    Message('note_off', channel=0, note=55, velocity=80, time=240),
    Message('note_on', channel=0, note=61, velocity=95, time=0),
    Message('note_off', channel=0, note=61, velocity=80, time=240),
    Message('note_on', channel=0, note=64, velocity=95, time=0),
    Message('note_off', channel=0, note=64, velocity=80, time=1200),
    Message('note_on', channel=0, note=47, velocity=95, time=0),
    Message('note_off', channel=0, note=47, velocity=80, time=240),
    Message('note_on', channel=0, note=54, velocity=95, time=0),
    Message('note_off', channel=0, note=54, velocity=80, time=240),
    Message('note_on', channel=0, note=57, velocity=95, time=0),
    Message('note_off', channel=0, note=57, velocity=80, time=240),
    Message('note_on', channel=0, note=62, velocity=95, time=0),
    Message('note_off', channel=0, note=62, velocity=80, time=480),
    Message('note_on', channel=0, note=54, velocity=95, time=0),
    Message('note_off', channel=0, note=54, velocity=80, time=240),
    Message('note_on', channel=0, note=69, velocity=95, time=0),
    Message('note_off', channel=0, note=69, velocity=80, time=480),
    Message('note_on', channel=0, note=52, velocity=95, time=0),
    Message('note_off', channel=0, note=52, velocity=80, time=240),
    Message('note_on', channel=0, note=59, velocity=95, time=0),
    Message('note_off', channel=0, note=59, velocity=80, time=240),
    Message('note_on', channel=0, note=64, velocity=95, time=0),
    Message('note_off', channel=0, note=64, velocity=80, time=240),
    Message('note_on', channel=0, note=66, velocity=95, time=0),
    Message('note_off', channel=0, note=66, velocity=80, time=240),
    Message('note_on', channel=0, note=68, velocity=86, time=0),
    Message('note_off', channel=0, note=68, velocity=80, time=960),
    Message('note_on', channel=0, note=45, velocity=95, time=0),
    Message('note_off', channel=0, note=45, velocity=80, time=240),
    Message('note_on', channel=0, note=52, velocity=95, time=0),
    Message('note_off', channel=0, note=52, velocity=80, time=240),
    Message('note_on', channel=0, note=57, velocity=95, time=0),
    Message('note_off', channel=0, note=57, velocity=80, time=240),
    Message('note_on', channel=0, note=61, velocity=95, time=0),
    Message('note_off', channel=0, note=61, velocity=80, time=480),
    Message('note_on', channel=0, note=69, velocity=95, time=0),
    Message('note_off', channel=0, note=69, velocity=80, time=240),
    Message('note_on', channel=0, note=52, velocity=95, time=0),
    Message('note_off', channel=0, note=52, velocity=80, time=480),
    Message('note_on', channel=0, note=46, velocity=95, time=0),
    Message('note_off', channel=0, note=46, velocity=80, time=240),
    Message('note_on', channel=0, note=55, velocity=95, time=0),
    Message('note_off', channel=0, note=55, velocity=80, time=240),
    Message('note_on', channel=0, note=61, velocity=95, time=0),
    Message('note_off', channel=0, note=61, velocity=80, time=240),
    Message('note_on', channel=0, note=64, velocity=95, time=0),
    Message('note_off', channel=0, note=64, velocity=80, time=480),
    Message('note_on', channel=0, note=70, velocity=95, time=0),
    Message('note_off', channel=0, note=70, velocity=80, time=240),
    Message('note_on', channel=0, note=55, velocity=95, time=0),
    Message('note_off', channel=0, note=55, velocity=80, time=480),
    Message('note_on', channel=0, note=47, velocity=95, time=0),
    Message('note_off', channel=0, note=47, velocity=80, time=240),
    Message('note_on', channel=0, note=54, velocity=95, time=0),
    Message('note_off', channel=0, note=54, velocity=80, time=240),
    Message('note_on', channel=0, note=57, velocity=95, time=0),
    Message('note_off', channel=0, note=57, velocity=80, time=240),
    Message('note_on', channel=0, note=62, velocity=95, time=0),
    Message('note_off', channel=0, note=62, velocity=80, time=720),
    Message('note_on', channel=0, note=69, velocity=95, time=0),
    Message('note_on', channel=0, note=54, velocity=95, time=0),
    Message('note_off', channel=0, note=69, velocity=80, time=480),
    Message('note_off', channel=0, note=54, velocity=80, time=0),
    Message('note_on', channel=0, note=47, velocity=95, time=0),
    Message('note_off', channel=0, note=47, velocity=80, time=240),
    Message('note_on', channel=0, note=61, velocity=95, time=0),
    Message('note_off', channel=0, note=61, velocity=80, time=240),
    Message('note_on', channel=0, note=62, velocity=86, time=0),
    Message('note_off', channel=0, note=62, velocity=80, time=240),
    Message('note_on', channel=0, note=69, velocity=95, time=0),
    Message('note_off', channel=0, note=69, velocity=80, time=240),
    Message('note_on', channel=0, note=62, velocity=95, time=0),
    Message('note_off', channel=0, note=62, velocity=80, time=240),
    Message('note_on', channel=0, note=59, velocity=95, time=0),
    Message('note_off', channel=0, note=59, velocity=80, time=240),
    Message('note_on', channel=0, note=54, velocity=95, time=0),
    Message('note_off', channel=0, note=54, velocity=80, time=480),
    Message('note_on', channel=0, note=52, velocity=95, time=0),
    Message('note_off', channel=0, note=52, velocity=80, time=240),
    Message('note_on', channel=0, note=59, velocity=95, time=0),
    Message('note_off', channel=0, note=59, velocity=80, time=240),
    Message('note_on', channel=0, note=64, velocity=95, time=0),
    Message('note_off', channel=0, note=64, velocity=80, time=240),
    Message('note_on', channel=0, note=68, velocity=95, time=0),
    Message('note_off', channel=0, note=68, velocity=80, time=240),
    Message('note_on', channel=0, note=52, velocity=95, time=0),
    Message('note_off', channel=0, note=52, velocity=80, time=240),
    Message('note_on', channel=0, note=59, velocity=95, time=0),
    Message('note_off', channel=0, note=59, velocity=80, time=240),
    Message('note_on', channel=0, note=66, velocity=95, time=0),
    Message('note_off', channel=0, note=66, velocity=80, time=240),
    Message('note_on', channel=0, note=64, velocity=95, time=0),
    Message('note_off', channel=0, note=64, velocity=80, time=240),
    Message('note_on', channel=0, note=52, velocity=95, time=0),
    Message('note_off', channel=0, note=52, velocity=80, time=240),
    Message('note_on', channel=0, note=59, velocity=95, time=0),
    Message('note_off', channel=0, note=59, velocity=80, time=240),
    Message('note_on', channel=0, note=64, velocity=95, time=0),
    Message('note_off', channel=0, note=64, velocity=80, time=240),
    Message('note_on', channel=0, note=68, velocity=95, time=0),
    Message('note_off', channel=0, note=68, velocity=80, time=240),
    Message('note_on', channel=0, note=52, velocity=95, time=0),
    Message('note_off', channel=0, note=52, velocity=80, time=240),
    Message('note_on', channel=0, note=59, velocity=95, time=0),
    Message('note_off', channel=0, note=59, velocity=80, time=240),
    Message('note_on', channel=0, note=64, velocity=95, time=0),
    Message('note_off', channel=0, note=64, velocity=80, time=240),
    Message('note_on', channel=0, note=52, velocity=95, time=0),
    Message('note_off', channel=0, note=52, velocity=80, time=240),
    Message('note_on', channel=0, note=45, velocity=95, time=0),
    Message('note_off', channel=0, note=45, velocity=80, time=240),
    Message('note_on', channel=0, note=52, velocity=95, time=0),
    Message('note_off', channel=0, note=52, velocity=80, time=240),
    Message('note_on', channel=0, note=61, velocity=95, time=0),
    Message('note_off', channel=0, note=61, velocity=80, time=240),
    Message('note_on', channel=0, note=61, velocity=95, time=0),
    Message('note_off', channel=0, note=61, velocity=80, time=240),
    Message('note_on', channel=0, note=45, velocity=95, time=0),
    Message('note_off', channel=0, note=45, velocity=80, time=240),
    Message('note_on', channel=0, note=69, velocity=95, time=0),
    Message('note_off', channel=0, note=69, velocity=80, time=240),
    Message('note_on', channel=0, note=52, velocity=95, time=0),
    Message('note_off', channel=0, note=52, velocity=80, time=240),
    Message('note_on', channel=0, note=57, velocity=95, time=0),
    Message('note_off', channel=0, note=57, velocity=80, time=480),
    Message('note_on', channel=0, note=52, velocity=95, time=0),
    Message('note_off', channel=0, note=52, velocity=80, time=240),
    Message('note_on', channel=0, note=57, velocity=95, time=0),
    Message('note_off', channel=0, note=57, velocity=80, time=240),
    Message('note_on', channel=0, note=61, velocity=95, time=0),
    Message('note_off', channel=0, note=61, velocity=80, time=240),
    Message('note_on', channel=0, note=69, velocity=95, time=0),
    Message('note_off', channel=0, note=69, velocity=80, time=240),
    Message('note_on', channel=0, note=52, velocity=95, time=0),
    Message('note_off', channel=0, note=52, velocity=80, time=240),
    Message('note_on', channel=0, note=62, velocity=95, time=0),
    Message('note_on', channel=0, note=54, velocity=95, time=0),
    Message('note_off', channel=0, note=62, velocity=80, time=480),
    Message('note_off', channel=0, note=54, velocity=80, time=0),
    Message('note_on', channel=0, note=45, velocity=95, time=0),
    Message('note_off', channel=0, note=45, velocity=80, time=240),
    Message('note_on', channel=0, note=52, velocity=95, time=0),
    Message('note_off', channel=0, note=52, velocity=80, time=240),
    Message('note_on', channel=0, note=57, velocity=95, time=0),
    Message('note_off', channel=0, note=57, velocity=80, time=240),
    Message('note_on', channel=0, note=61, velocity=95, time=0),
    Message('note_off', channel=0, note=61, velocity=80, time=480),
    Message('note_on', channel=0, note=69, velocity=95, time=0),
    Message('note_off', channel=0, note=69, velocity=80, time=240),
    Message('note_on', channel=0, note=52, velocity=95, time=0),
    Message('note_off', channel=0, note=52, velocity=80, time=240),
    Message('note_on', channel=0, note=57, velocity=95, time=0),
    Message('note_off', channel=0, note=57, velocity=80, time=240),
    Message('note_on', channel=0, note=46, velocity=95, time=0),
    Message('note_off', channel=0, note=46, velocity=80, time=240),
    Message('note_on', channel=0, note=55, velocity=95, time=0),
    Message('note_off', channel=0, note=55, velocity=80, time=240),
    Message('note_on', channel=0, note=61, velocity=95, time=0),
    Message('note_off', channel=0, note=61, velocity=80, time=240),
    Message('note_on', channel=0, note=64, velocity=95, time=0),
    Message('note_off', channel=0, note=64, velocity=80, time=480),
    Message('note_on', channel=0, note=70, velocity=95, time=0),
    Message('note_off', channel=0, note=70, velocity=80, time=240),
    Message('note_on', channel=0, note=64, velocity=95, time=0),
    Message('note_on', channel=0, note=55, velocity=95, time=0),
    Message('note_off', channel=0, note=64, velocity=80, time=240),
    Message('note_off', channel=0, note=55, velocity=80, time=0),
    Message('note_on', channel=0, note=61, velocity=95, time=0),
    Message('note_off', channel=0, note=61, velocity=80, time=240),
    Message('note_on', channel=0, note=62, velocity=95, time=0),
    Message('note_on', channel=0, note=47, velocity=95, time=0),
    Message('note_off', channel=0, note=62, velocity=80, time=240),
    Message('note_off', channel=0, note=47, velocity=80, time=0),
    Message('note_on', channel=0, note=54, velocity=95, time=0),
    Message('note_off', channel=0, note=54, velocity=80, time=240),
    Message('note_on', channel=0, note=59, velocity=95, time=0),
    Message('note_off', channel=0, note=59, velocity=80, time=240),
    Message('note_on', channel=0, note=62, velocity=95, time=0),
    Message('note_off', channel=0, note=62, velocity=80, time=480),
    Message('note_on', channel=0, note=66, velocity=95, time=0),
    Message('note_off', channel=0, note=66, velocity=80, time=240),
    Message('note_on', channel=0, note=54, velocity=95, time=0),
    Message('note_off', channel=0, note=54, velocity=80, time=480),
    Message('note_on', channel=0, note=62, velocity=95, time=0),
    Message('note_on', channel=0, note=50, velocity=95, time=0),
    Message('note_off', channel=0, note=62, velocity=80, time=240),
    Message('note_off', channel=0, note=50, velocity=80, time=0),
    Message('note_on', channel=0, note=57, velocity=95, time=0),
    Message('note_off', channel=0, note=57, velocity=80, time=240),
    Message('note_on', channel=0, note=65, velocity=95, time=0),
    Message('note_off', channel=0, note=65, velocity=80, time=240),
    Message('note_on', channel=0, note=57, velocity=95, time=0),
    Message('note_off', channel=0, note=57, velocity=80, time=240),
    Message('note_on', channel=0, note=64, velocity=95, time=0),
    Message('note_off', channel=0, note=64, velocity=80, time=240),
    Message('note_on', channel=0, note=50, velocity=95, time=0),
    Message('note_off', channel=0, note=50, velocity=80, time=240),
    Message('note_on', channel=0, note=62, velocity=95, time=0),
    Message('note_off', channel=0, note=62, velocity=80, time=480),
    Message('note_on', channel=0, note=59, velocity=95, time=0),
    Message('note_on', channel=0, note=52, velocity=95, time=0),
    Message('note_off', channel=0, note=59, velocity=80, time=240),
    Message('note_off', channel=0, note=52, velocity=80, time=0),
    Message('note_on', channel=0, note=59, velocity=95, time=0),
    Message('note_off', channel=0, note=59, velocity=80, time=240),
    Message('note_on', channel=0, note=64, velocity=95, time=0),
    Message('note_off', channel=0, note=64, velocity=80, time=240),
    Message('note_on', channel=0, note=68, velocity=95, time=0),
    Message('note_off', channel=0, note=68, velocity=80, time=480),
    Message('note_on', channel=0, note=59, velocity=95, time=0),
    Message('note_off', channel=0, note=59, velocity=80, time=240),
    Message('note_on', channel=0, note=64, velocity=95, time=0),
    Message('note_off', channel=0, note=64, velocity=80, time=240),
    Message('note_on', channel=0, note=68, velocity=95, time=0),
    Message('note_off', channel=0, note=68, velocity=80, time=240),
    Message('note_on', channel=0, note=59, velocity=95, time=0),
    Message('note_on', channel=0, note=52, velocity=95, time=0),
    Message('note_off', channel=0, note=59, velocity=80, time=240),
    Message('note_off', channel=0, note=52, velocity=80, time=0),
    Message('note_on', channel=0, note=59, velocity=95, time=0),
    Message('note_off', channel=0, note=59, velocity=80, time=240),
    Message('note_on', channel=0, note=64, velocity=95, time=0),
    Message('note_off', channel=0, note=64, velocity=80, time=240),
    Message('note_on', channel=0, note=68, velocity=95, time=0),
    Message('note_off', channel=0, note=68, velocity=80, time=480),
    Message('note_on', channel=0, note=59, velocity=95, time=0),
    Message('note_off', channel=0, note=59, velocity=80, time=240),
    Message('note_on', channel=0, note=64, velocity=95, time=0),
    Message('note_off', channel=0, note=64, velocity=80, time=240),
    Message('note_on', channel=0, note=68, velocity=95, time=0),
    Message('note_off', channel=0, note=68, velocity=80, time=240),
    Message('note_on', channel=0, note=59, velocity=95, time=0),
    Message('note_on', channel=0, note=52, velocity=95, time=0),
    Message('note_off', channel=0, note=59, velocity=80, time=240),
    Message('note_off', channel=0, note=52, velocity=80, time=0),
    Message('note_on', channel=0, note=59, velocity=95, time=0),
    Message('note_off', channel=0, note=59, velocity=80, time=240),
    Message('note_on', channel=0, note=64, velocity=95, time=0),
    Message('note_off', channel=0, note=64, velocity=80, time=240),
    Message('note_on', channel=0, note=68, velocity=95, time=0),
    Message('note_off', channel=0, note=68, velocity=80, time=480),
    Message('note_on', channel=0, note=59, velocity=95, time=0),
    Message('note_off', channel=0, note=59, velocity=80, time=240),
    Message('note_on', channel=0, note=64, velocity=95, time=0),
    Message('note_off', channel=0, note=64, velocity=80, time=240),
    Message('note_on', channel=0, note=68, velocity=95, time=0),
    Message('note_on', channel=0, note=64, velocity=95, time=0),
    Message('note_off', channel=0, note=68, velocity=80, time=480),
    Message('note_off', channel=0, note=64, velocity=80, time=0),
    Message('note_on', channel=0, note=59, velocity=95, time=0),
    Message('note_off', channel=0, note=59, velocity=80, time=240),
    Message('note_on', channel=0, note=64, velocity=95, time=0),
    Message('note_on', channel=0, note=59, velocity=95, time=0),
    Message('note_off', channel=0, note=64, velocity=80, time=240),
    Message('note_off', channel=0, note=59, velocity=80, time=0),
    Message('note_on', channel=0, note=64, velocity=95, time=0),
    Message('note_on', channel=0, note=59, velocity=95, time=0),
    Message('note_off', channel=0, note=64, velocity=80, time=240),
    Message('note_off', channel=0, note=59, velocity=80, time=0),
    Message('note_on', channel=0, note=68, velocity=95, time=0),
    Message('note_off', channel=0, note=68, velocity=80, time=240),
    Message('note_on', channel=0, note=59, velocity=95, time=0),
    Message('note_off', channel=0, note=59, velocity=80, time=240),
    Message('note_on', channel=0, note=68, velocity=95, time=0),
    Message('note_on', channel=0, note=64, velocity=95, time=0),
    Message('note_on', channel=0, note=59, velocity=95, time=0),
    Message('note_off', channel=0, note=68, velocity=80, time=480),
    Message('note_off', channel=0, note=64, velocity=80, time=0),
    Message('note_off', channel=0, note=59, velocity=80, time=0),
    Message('note_on', channel=0, note=69, velocity=95, time=0),
    Message('note_on', channel=0, note=61, velocity=95, time=0),
    Message('note_on', channel=0, note=57, velocity=95, time=0),
    Message('note_on', channel=0, note=52, velocity=95, time=0),
    Message('note_on', channel=0, note=45, velocity=95, time=0),
    Message('note_off', channel=0, note=69, velocity=80, time=480),
    Message('note_off', channel=0, note=61, velocity=80, time=0),
    Message('note_off', channel=0, note=57, velocity=80, time=0),
    Message('note_off', channel=0, note=52, velocity=80, time=0),
    Message('note_off', channel=0, note=45, velocity=80, time=0),
    Message('note_on', channel=0, note=69, velocity=95, time=0),
    Message('note_on', channel=0, note=61, velocity=95, time=0),
    Message('note_on', channel=0, note=57, velocity=95, time=0),
    Message('note_on', channel=0, note=52, velocity=95, time=0),
    Message('note_on', channel=0, note=45, velocity=95, time=0),
    Message('note_off', channel=0, note=69, velocity=80, time=480),
    Message('note_off', channel=0, note=61, velocity=80, time=0),
    Message('note_off', channel=0, note=57, velocity=80, time=0),
    Message('note_off', channel=0, note=52, velocity=80, time=0),
    Message('note_off', channel=0, note=45, velocity=80, time=0),
    Message('note_on', channel=0, note=69, velocity=95, time=0),
    Message('note_on', channel=0, note=61, velocity=95, time=0),
    Message('note_on', channel=0, note=57, velocity=95, time=0),
    Message('note_on', channel=0, note=52, velocity=95, time=0),
    Message('note_on', channel=0, note=45, velocity=95, time=0),
    Message('note_off', channel=0, note=69, velocity=80, time=240),
    Message('note_off', channel=0, note=61, velocity=80, time=0),
    Message('note_off', channel=0, note=57, velocity=80, time=0),
    Message('note_off', channel=0, note=52, velocity=80, time=0),
    Message('note_off', channel=0, note=45, velocity=80, time=0),
    Message('note_on', channel=0, note=69, velocity=95, time=0),
    Message('note_on', channel=0, note=61, velocity=95, time=0),
    Message('note_on', channel=0, note=57, velocity=95, time=0),
    Message('note_on', channel=0, note=52, velocity=95, time=0),
    Message('note_on', channel=0, note=45, velocity=95, time=0),
    Message('note_off', channel=0, note=69, velocity=80, time=240),
    Message('note_off', channel=0, note=61, velocity=80, time=0),
    Message('note_off', channel=0, note=57, velocity=80, time=0),
    Message('note_off', channel=0, note=52, velocity=80, time=0),
    Message('note_off', channel=0, note=45, velocity=80, time=0),
    Message('note_on', channel=0, note=69, velocity=95, time=0),
    Message('note_on', channel=0, note=61, velocity=95, time=0),
    Message('note_on', channel=0, note=57, velocity=95, time=0),
    Message('note_on', channel=0, note=52, velocity=95, time=0),
    Message('note_on', channel=0, note=45, velocity=95, time=0),
    Message('note_off', channel=0, note=69, velocity=80, time=480),
    Message('note_off', channel=0, note=61, velocity=80, time=0),
    Message('note_off', channel=0, note=57, velocity=80, time=0),
    Message('note_off', channel=0, note=52, velocity=80, time=0),
    Message('note_off', channel=0, note=45, velocity=80, time=0),
    Message('note_on', channel=0, note=69, velocity=95, time=0),
    Message('note_on', channel=0, note=61, velocity=95, time=0),
    Message('note_on', channel=0, note=57, velocity=95, time=0),
    Message('note_on', channel=0, note=52, velocity=95, time=0),
    Message('note_on', channel=0, note=45, velocity=95, time=0),
    Message('note_off', channel=0, note=69, velocity=80, time=240),
    Message('note_off', channel=0, note=61, velocity=80, time=0),
    Message('note_off', channel=0, note=57, velocity=80, time=0),
    Message('note_off', channel=0, note=52, velocity=80, time=0),
    Message('note_off', channel=0, note=45, velocity=80, time=0),
    Message('note_on', channel=0, note=69, velocity=95, time=0),
    Message('note_on', channel=0, note=61, velocity=95, time=0),
    Message('note_on', channel=0, note=57, velocity=95, time=0),
    Message('note_on', channel=0, note=52, velocity=95, time=0),
    Message('note_on', channel=0, note=45, velocity=95, time=0),
    Message('note_off', channel=0, note=69, velocity=80, time=240),
    Message('note_off', channel=0, note=61, velocity=80, time=0),
    Message('note_off', channel=0, note=57, velocity=80, time=0),
    Message('note_off', channel=0, note=52, velocity=80, time=0),
    Message('note_off', channel=0, note=45, velocity=80, time=0),
    Message('note_on', channel=0, note=69, velocity=95, time=0),
    Message('note_on', channel=0, note=61, velocity=95, time=0),
    Message('note_on', channel=0, note=57, velocity=95, time=0),
    Message('note_on', channel=0, note=52, velocity=95, time=0),
    Message('note_on', channel=0, note=45, velocity=95, time=0),
    Message('note_off', channel=0, note=69, velocity=80, time=480),
    Message('note_off', channel=0, note=61, velocity=80, time=0),
    Message('note_off', channel=0, note=57, velocity=80, time=0),
    Message('note_off', channel=0, note=52, velocity=80, time=0),
    Message('note_off', channel=0, note=45, velocity=80, time=0),
    Message('note_on', channel=0, note=69, velocity=95, time=0),
    Message('note_on', channel=0, note=61, velocity=95, time=0),
    Message('note_on', channel=0, note=57, velocity=95, time=0),
    Message('note_on', channel=0, note=52, velocity=95, time=0),
    Message('note_on', channel=0, note=45, velocity=95, time=0),
    Message('note_off', channel=0, note=69, velocity=80, time=240),
    Message('note_off', channel=0, note=61, velocity=80, time=0),
    Message('note_off', channel=0, note=57, velocity=80, time=0),
    Message('note_off', channel=0, note=52, velocity=80, time=0),
    Message('note_off', channel=0, note=45, velocity=80, time=0),
    Message('note_on', channel=0, note=69, velocity=95, time=0),
    Message('note_on', channel=0, note=61, velocity=95, time=0),
    Message('note_on', channel=0, note=57, velocity=95, time=0),
    Message('note_on', channel=0, note=52, velocity=95, time=0),
    Message('note_on', channel=0, note=45, velocity=95, time=0),
    Message('note_off', channel=0, note=69, velocity=80, time=240),
    Message('note_off', channel=0, note=61, velocity=80, time=0),
    Message('note_off', channel=0, note=57, velocity=80, time=0),
    Message('note_off', channel=0, note=52, velocity=80, time=0),
    Message('note_off', channel=0, note=45, velocity=80, time=0),
    Message('note_on', channel=0, note=69, velocity=95, time=0),
    Message('note_on', channel=0, note=61, velocity=95, time=0),
    Message('note_on', channel=0, note=57, velocity=95, time=0),
    Message('note_on', channel=0, note=52, velocity=95, time=0),
    Message('note_on', channel=0, note=45, velocity=95, time=0),
    Message('note_off', channel=0, note=69, velocity=80, time=240),
    Message('note_off', channel=0, note=61, velocity=80, time=0),
    Message('note_off', channel=0, note=57, velocity=80, time=0),
    Message('note_off', channel=0, note=52, velocity=80, time=0),
    Message('note_off', channel=0, note=45, velocity=80, time=0),
    Message('note_on', channel=0, note=69, velocity=95, time=0),
    Message('note_on', channel=0, note=61, velocity=95, time=0),
    Message('note_on', channel=0, note=57, velocity=95, time=0),
    Message('note_on', channel=0, note=52, velocity=95, time=0),
    Message('note_on', channel=0, note=45, velocity=95, time=0),
    Message('note_off', channel=0, note=69, velocity=80, time=240),
    Message('note_off', channel=0, note=61, velocity=80, time=0),
    Message('note_off', channel=0, note=57, velocity=80, time=0),
    Message('note_off', channel=0, note=52, velocity=80, time=0),
    Message('note_off', channel=0, note=45, velocity=80, time=0),
    Message('note_on', channel=0, note=69, velocity=95, time=0),
    Message('note_on', channel=0, note=61, velocity=95, time=0),
    Message('note_on', channel=0, note=57, velocity=95, time=0),
    Message('note_on', channel=0, note=52, velocity=95, time=0),
    Message('note_on', channel=0, note=45, velocity=95, time=0),
    Message('note_off', channel=0, note=69, velocity=80, time=480),
    Message('note_off', channel=0, note=61, velocity=80, time=0),
    Message('note_off', channel=0, note=57, velocity=80, time=0),
    Message('note_off', channel=0, note=52, velocity=80, time=0),
    Message('note_off', channel=0, note=45, velocity=80, time=0),
    Message('note_on', channel=0, note=69, velocity=95, time=0),
    Message('note_on', channel=0, note=61, velocity=95, time=0),
    Message('note_on', channel=0, note=57, velocity=95, time=0),
    Message('note_on', channel=0, note=52, velocity=95, time=0),
    Message('note_on', channel=0, note=45, velocity=95, time=0),
    Message('note_off', channel=0, note=69, velocity=80, time=480),
    Message('note_off', channel=0, note=61, velocity=80, time=0),
    Message('note_off', channel=0, note=57, velocity=80, time=0),
    Message('note_off', channel=0, note=52, velocity=80, time=0),
    Message('note_off', channel=0, note=45, velocity=80, time=0),
    Message('note_on', channel=0, note=69, velocity=95, time=0),
    Message('note_on', channel=0, note=61, velocity=95, time=0),
    Message('note_on', channel=0, note=57, velocity=95, time=0),
    Message('note_on', channel=0, note=52, velocity=95, time=0),
    Message('note_on', channel=0, note=45, velocity=95, time=0),
    Message('note_off', channel=0, note=69, velocity=80, time=240),
    Message('note_off', channel=0, note=61, velocity=80, time=0),
    Message('note_off', channel=0, note=57, velocity=80, time=0),
    Message('note_off', channel=0, note=52, velocity=80, time=0),
    Message('note_off', channel=0, note=45, velocity=80, time=0),
    Message('note_on', channel=0, note=69, velocity=95, time=0),
    Message('note_on', channel=0, note=61, velocity=95, time=0),
    Message('note_on', channel=0, note=57, velocity=95, time=0),
    Message('note_on', channel=0, note=52, velocity=95, time=0),
    Message('note_on', channel=0, note=45, velocity=95, time=0),
    Message('note_off', channel=0, note=69, velocity=80, time=240),
    Message('note_off', channel=0, note=61, velocity=80, time=0),
    Message('note_off', channel=0, note=57, velocity=80, time=0),
    Message('note_off', channel=0, note=52, velocity=80, time=0),
    Message('note_off', channel=0, note=45, velocity=80, time=0),
    Message('note_on', channel=0, note=69, velocity=95, time=0),
    Message('note_on', channel=0, note=61, velocity=95, time=0),
    Message('note_on', channel=0, note=57, velocity=95, time=0),
    Message('note_on', channel=0, note=52, velocity=95, time=0),
    Message('note_on', channel=0, note=45, velocity=95, time=0),
    Message('note_off', channel=0, note=69, velocity=80, time=480),
    Message('note_off', channel=0, note=61, velocity=80, time=0),
    Message('note_off', channel=0, note=57, velocity=80, time=0),
    Message('note_off', channel=0, note=52, velocity=80, time=0),
    Message('note_off', channel=0, note=45, velocity=80, time=0),
    Message('note_on', channel=0, note=69, velocity=95, time=0),
    Message('note_on', channel=0, note=61, velocity=95, time=0),
    Message('note_on', channel=0, note=57, velocity=95, time=0),
    Message('note_on', channel=0, note=52, velocity=95, time=0),
    Message('note_on', channel=0, note=45, velocity=95, time=0),
    Message('note_off', channel=0, note=69, velocity=80, time=480),
    Message('note_off', channel=0, note=61, velocity=80, time=0),
    Message('note_off', channel=0, note=57, velocity=80, time=0),
    Message('note_off', channel=0, note=52, velocity=80, time=0),
    Message('note_off', channel=0, note=45, velocity=80, time=0),
    Message('note_on', channel=0, note=69, velocity=95, time=0),
    Message('note_on', channel=0, note=61, velocity=95, time=0),
    Message('note_on', channel=0, note=57, velocity=95, time=0),
    Message('note_on', channel=0, note=52, velocity=95, time=0),
    Message('note_on', channel=0, note=45, velocity=95, time=0),
    Message('note_off', channel=0, note=69, velocity=80, time=480),
    Message('note_off', channel=0, note=61, velocity=80, time=0),
    Message('note_off', channel=0, note=57, velocity=80, time=0),
    Message('note_off', channel=0, note=52, velocity=80, time=0),
    Message('note_off', channel=0, note=45, velocity=80, time=0),
    Message('note_on', channel=0, note=69, velocity=95, time=0),
    Message('note_on', channel=0, note=61, velocity=95, time=0),
    Message('note_on', channel=0, note=57, velocity=95, time=0),
    Message('note_on', channel=0, note=52, velocity=95, time=0),
    Message('note_on', channel=0, note=45, velocity=95, time=0),
    Message('note_off', channel=0, note=69, velocity=80, time=240),
    Message('note_off', channel=0, note=61, velocity=80, time=0),
    Message('note_off', channel=0, note=57, velocity=80, time=0),
    Message('note_off', channel=0, note=52, velocity=80, time=0),
    Message('note_off', channel=0, note=45, velocity=80, time=0),
    Message('note_on', channel=0, note=69, velocity=95, time=0),
    Message('note_on', channel=0, note=61, velocity=95, time=0),
    Message('note_on', channel=0, note=57, velocity=95, time=0),
    Message('note_on', channel=0, note=52, velocity=95, time=0),
    Message('note_on', channel=0, note=45, velocity=95, time=0),
    Message('note_off', channel=0, note=69, velocity=80, time=240),
    Message('note_off', channel=0, note=61, velocity=80, time=0),
    Message('note_off', channel=0, note=57, velocity=80, time=0),
    Message('note_off', channel=0, note=52, velocity=80, time=0),
    Message('note_off', channel=0, note=45, velocity=80, time=0),
    Message('note_on', channel=0, note=69, velocity=95, time=0),
    Message('note_on', channel=0, note=61, velocity=95, time=0),
    Message('note_on', channel=0, note=57, velocity=95, time=0),
    Message('note_on', channel=0, note=52, velocity=95, time=0),
    Message('note_on', channel=0, note=45, velocity=95, time=0),
    Message('note_off', channel=0, note=69, velocity=80, time=240),
    Message('note_off', channel=0, note=61, velocity=80, time=0),
    Message('note_off', channel=0, note=57, velocity=80, time=0),
    Message('note_off', channel=0, note=52, velocity=80, time=0),
    Message('note_off', channel=0, note=45, velocity=80, time=0),
    Message('note_on', channel=0, note=69, velocity=95, time=0),
    Message('note_on', channel=0, note=61, velocity=95, time=0),
    Message('note_on', channel=0, note=57, velocity=95, time=0),
    Message('note_on', channel=0, note=52, velocity=95, time=0),
    Message('note_on', channel=0, note=45, velocity=95, time=0),
    Message('note_off', channel=0, note=69, velocity=80, time=240),
    Message('note_off', channel=0, note=61, velocity=80, time=0),
    Message('note_off', channel=0, note=57, velocity=80, time=0),
    Message('note_off', channel=0, note=52, velocity=80, time=0),
    Message('note_off', channel=0, note=45, velocity=80, time=0),
    Message('note_on', channel=0, note=69, velocity=95, time=0),
    Message('note_on', channel=0, note=62, velocity=95, time=0),
    Message('note_on', channel=0, note=57, velocity=95, time=0),
    Message('note_on', channel=0, note=54, velocity=95, time=0),
    Message('note_on', channel=0, note=47, velocity=95, time=0),
    Message('note_off', channel=0, note=69, velocity=80, time=480),
    Message('note_off', channel=0, note=62, velocity=80, time=0),
    Message('note_off', channel=0, note=57, velocity=80, time=0),
    Message('note_off', channel=0, note=54, velocity=80, time=0),
    Message('note_off', channel=0, note=47, velocity=80, time=0),
    Message('note_on', channel=0, note=69, velocity=95, time=0),
    Message('note_on', channel=0, note=62, velocity=95, time=0),
    Message('note_on', channel=0, note=57, velocity=95, time=0),
    Message('note_on', channel=0, note=54, velocity=95, time=0),
    Message('note_on', channel=0, note=47, velocity=95, time=0),
    Message('note_off', channel=0, note=69, velocity=80, time=480),
    Message('note_off', channel=0, note=62, velocity=80, time=0),
    Message('note_off', channel=0, note=57, velocity=80, time=0),
    Message('note_off', channel=0, note=54, velocity=80, time=0),
    Message('note_off', channel=0, note=47, velocity=80, time=0),
    Message('note_on', channel=0, note=69, velocity=95, time=0),
    Message('note_on', channel=0, note=62, velocity=95, time=0),
    Message('note_on', channel=0, note=57, velocity=95, time=0),
    Message('note_on', channel=0, note=54, velocity=95, time=0),
    Message('note_on', channel=0, note=47, velocity=95, time=0),
    Message('note_off', channel=0, note=69, velocity=80, time=240),
    Message('note_off', channel=0, note=62, velocity=80, time=0),
    Message('note_off', channel=0, note=57, velocity=80, time=0),
    Message('note_off', channel=0, note=54, velocity=80, time=0),
    Message('note_off', channel=0, note=47, velocity=80, time=0),
    Message('note_on', channel=0, note=69, velocity=95, time=0),
    Message('note_on', channel=0, note=62, velocity=95, time=0),
    Message('note_on', channel=0, note=57, velocity=95, time=0),
    Message('note_on', channel=0, note=54, velocity=95, time=0),
    Message('note_on', channel=0, note=47, velocity=95, time=0),
    Message('note_off', channel=0, note=69, velocity=80, time=240),
    Message('note_off', channel=0, note=62, velocity=80, time=0),
    Message('note_off', channel=0, note=57, velocity=80, time=0),
    Message('note_off', channel=0, note=54, velocity=80, time=0),
    Message('note_off', channel=0, note=47, velocity=80, time=0),
    Message('note_on', channel=0, note=69, velocity=95, time=0),
    Message('note_on', channel=0, note=62, velocity=95, time=0),
    Message('note_on', channel=0, note=57, velocity=95, time=0),
    Message('note_on', channel=0, note=54, velocity=95, time=0),
    Message('note_on', channel=0, note=47, velocity=95, time=0),
    Message('note_off', channel=0, note=69, velocity=80, time=240),
    Message('note_off', channel=0, note=62, velocity=80, time=0),
    Message('note_off', channel=0, note=57, velocity=80, time=0),
    Message('note_off', channel=0, note=54, velocity=80, time=0),
    Message('note_off', channel=0, note=47, velocity=80, time=0),
    Message('note_on', channel=0, note=69, velocity=95, time=0),
    Message('note_on', channel=0, note=62, velocity=95, time=0),
    Message('note_on', channel=0, note=57, velocity=95, time=0),
    Message('note_on', channel=0, note=54, velocity=95, time=0),
    Message('note_on', channel=0, note=47, velocity=95, time=0),
    Message('note_off', channel=0, note=69, velocity=80, time=480),
    Message('note_off', channel=0, note=62, velocity=80, time=0),
    Message('note_off', channel=0, note=57, velocity=80, time=0),
    Message('note_off', channel=0, note=54, velocity=80, time=0),
    Message('note_off', channel=0, note=47, velocity=80, time=0),
    Message('note_on', channel=0, note=69, velocity=95, time=0),
    Message('note_on', channel=0, note=62, velocity=95, time=0),
    Message('note_on', channel=0, note=57, velocity=95, time=0),
    Message('note_on', channel=0, note=54, velocity=95, time=0),
    Message('note_on', channel=0, note=47, velocity=95, time=0),
    Message('note_off', channel=0, note=69, velocity=80, time=240),
    Message('note_off', channel=0, note=62, velocity=80, time=0),
    Message('note_off', channel=0, note=57, velocity=80, time=0),
    Message('note_off', channel=0, note=54, velocity=80, time=0),
    Message('note_off', channel=0, note=47, velocity=80, time=0),
    Message('note_on', channel=0, note=69, velocity=95, time=0),
    Message('note_on', channel=0, note=62, velocity=95, time=0),
    Message('note_on', channel=0, note=57, velocity=95, time=0),
    Message('note_on', channel=0, note=54, velocity=95, time=0),
    Message('note_on', channel=0, note=47, velocity=95, time=0),
    Message('note_off', channel=0, note=69, velocity=80, time=480),
    Message('note_off', channel=0, note=62, velocity=80, time=0),
    Message('note_off', channel=0, note=57, velocity=80, time=0),
    Message('note_off', channel=0, note=54, velocity=80, time=0),
    Message('note_off', channel=0, note=47, velocity=80, time=0),
    Message('note_on', channel=0, note=69, velocity=95, time=0),
    Message('note_on', channel=0, note=62, velocity=95, time=0),
    Message('note_on', channel=0, note=57, velocity=95, time=0),
    Message('note_on', channel=0, note=54, velocity=95, time=0),
    Message('note_on', channel=0, note=47, velocity=95, time=0),
    Message('note_off', channel=0, note=69, velocity=80, time=240),
    Message('note_off', channel=0, note=62, velocity=80, time=0),
    Message('note_off', channel=0, note=57, velocity=80, time=0),
    Message('note_off', channel=0, note=54, velocity=80, time=0),
    Message('note_off', channel=0, note=47, velocity=80, time=0),
    Message('note_on', channel=0, note=69, velocity=95, time=0),
    Message('note_on', channel=0, note=62, velocity=95, time=0),
    Message('note_on', channel=0, note=57, velocity=95, time=0),
    Message('note_on', channel=0, note=54, velocity=95, time=0),
    Message('note_on', channel=0, note=47, velocity=95, time=0),
    Message('note_off', channel=0, note=69, velocity=80, time=240),
    Message('note_off', channel=0, note=62, velocity=80, time=0),
    Message('note_off', channel=0, note=57, velocity=80, time=0),
    Message('note_off', channel=0, note=54, velocity=80, time=0),
    Message('note_off', channel=0, note=47, velocity=80, time=0),
    Message('note_on', channel=0, note=69, velocity=95, time=0),
    Message('note_on', channel=0, note=62, velocity=95, time=0),
    Message('note_on', channel=0, note=57, velocity=95, time=0),
    Message('note_on', channel=0, note=54, velocity=95, time=0),
    Message('note_on', channel=0, note=47, velocity=95, time=0),
    Message('note_off', channel=0, note=69, velocity=80, time=240),
    Message('note_off', channel=0, note=62, velocity=80, time=0),
    Message('note_off', channel=0, note=57, velocity=80, time=0),
    Message('note_off', channel=0, note=54, velocity=80, time=0),
    Message('note_off', channel=0, note=47, velocity=80, time=0),
    Message('note_on', channel=0, note=69, velocity=95, time=0),
    Message('note_on', channel=0, note=62, velocity=95, time=0),
    Message('note_on', channel=0, note=57, velocity=95, time=0),
    Message('note_on', channel=0, note=54, velocity=95, time=0),
    Message('note_on', channel=0, note=47, velocity=95, time=0),
    Message('note_off', channel=0, note=69, velocity=80, time=240),
    Message('note_off', channel=0, note=62, velocity=80, time=0),
    Message('note_off', channel=0, note=57, velocity=80, time=0),
    Message('note_off', channel=0, note=54, velocity=80, time=0),
    Message('note_off', channel=0, note=47, velocity=80, time=0),
    Message('note_on', channel=0, note=68, velocity=95, time=0),
    Message('note_on', channel=0, note=64, velocity=95, time=0),
    Message('note_on', channel=0, note=59, velocity=95, time=0),
    Message('note_on', channel=0, note=52, velocity=95, time=0),
    Message('note_off', channel=0, note=68, velocity=80, time=480),
    Message('note_off', channel=0, note=64, velocity=80, time=0),
    Message('note_off', channel=0, note=59, velocity=80, time=0),
    Message('note_off', channel=0, note=52, velocity=80, time=0),
    Message('note_on', channel=0, note=68, velocity=95, time=0),
    Message('note_on', channel=0, note=64, velocity=95, time=0),
    Message('note_on', channel=0, note=59, velocity=95, time=0),
    Message('note_on', channel=0, note=52, velocity=95, time=0),
    Message('note_off', channel=0, note=68, velocity=80, time=240),
    Message('note_off', channel=0, note=64, velocity=80, time=0),
    Message('note_off', channel=0, note=59, velocity=80, time=0),
    Message('note_off', channel=0, note=52, velocity=80, time=0),
    Message('note_on', channel=0, note=68, velocity=95, time=0),
    Message('note_on', channel=0, note=64, velocity=95, time=0),
    Message('note_on', channel=0, note=59, velocity=95, time=0),
    Message('note_on', channel=0, note=52, velocity=95, time=0),
    Message('note_off', channel=0, note=68, velocity=80, time=240),
    Message('note_off', channel=0, note=64, velocity=80, time=0),
    Message('note_off', channel=0, note=59, velocity=80, time=0),
    Message('note_off', channel=0, note=52, velocity=80, time=0),
    Message('note_on', channel=0, note=68, velocity=95, time=0),
    Message('note_on', channel=0, note=64, velocity=95, time=0),
    Message('note_on', channel=0, note=59, velocity=95, time=0),
    Message('note_on', channel=0, note=52, velocity=95, time=0),
    Message('note_off', channel=0, note=68, velocity=80, time=240),
    Message('note_off', channel=0, note=64, velocity=80, time=0),
    Message('note_off', channel=0, note=59, velocity=80, time=0),
    Message('note_off', channel=0, note=52, velocity=80, time=0),
    Message('note_on', channel=0, note=68, velocity=95, time=0),
    Message('note_on', channel=0, note=64, velocity=95, time=0),
    Message('note_on', channel=0, note=59, velocity=95, time=0),
    Message('note_on', channel=0, note=52, velocity=95, time=0),
    Message('note_off', channel=0, note=68, velocity=80, time=240),
    Message('note_off', channel=0, note=64, velocity=80, time=0),
    Message('note_off', channel=0, note=59, velocity=80, time=0),
    Message('note_off', channel=0, note=52, velocity=80, time=0),
    Message('note_on', channel=0, note=68, velocity=95, time=0),
    Message('note_on', channel=0, note=64, velocity=95, time=0),
    Message('note_on', channel=0, note=59, velocity=95, time=0),
    Message('note_on', channel=0, note=52, velocity=95, time=0),
    Message('note_off', channel=0, note=68, velocity=80, time=240),
    Message('note_off', channel=0, note=64, velocity=80, time=0),
    Message('note_off', channel=0, note=59, velocity=80, time=0),
    Message('note_off', channel=0, note=52, velocity=80, time=0),
    Message('note_on', channel=0, note=68, velocity=95, time=0),
    Message('note_on', channel=0, note=64, velocity=95, time=0),
    Message('note_on', channel=0, note=59, velocity=95, time=0),
    Message('note_on', channel=0, note=52, velocity=95, time=0),
    Message('note_off', channel=0, note=68, velocity=80, time=480),
    Message('note_off', channel=0, note=64, velocity=80, time=0),
    Message('note_off', channel=0, note=59, velocity=80, time=0),
    Message('note_off', channel=0, note=52, velocity=80, time=0),
    Message('note_on', channel=0, note=68, velocity=95, time=0),
    Message('note_on', channel=0, note=64, velocity=95, time=0),
    Message('note_on', channel=0, note=59, velocity=95, time=0),
    Message('note_on', channel=0, note=52, velocity=95, time=0),
    Message('note_off', channel=0, note=68, velocity=80, time=240),
    Message('note_off', channel=0, note=64, velocity=80, time=0),
    Message('note_off', channel=0, note=59, velocity=80, time=0),
    Message('note_off', channel=0, note=52, velocity=80, time=0),
    Message('note_on', channel=0, note=68, velocity=95, time=0),
    Message('note_on', channel=0, note=64, velocity=95, time=0),
    Message('note_on', channel=0, note=59, velocity=95, time=0),
    Message('note_on', channel=0, note=52, velocity=95, time=0),
    Message('note_off', channel=0, note=68, velocity=80, time=240),
    Message('note_off', channel=0, note=64, velocity=80, time=0),
    Message('note_off', channel=0, note=59, velocity=80, time=0),
    Message('note_off', channel=0, note=52, velocity=80, time=0),
    Message('note_on', channel=0, note=68, velocity=95, time=0),
    Message('note_on', channel=0, note=64, velocity=95, time=0),
    Message('note_on', channel=0, note=59, velocity=95, time=0),
    Message('note_on', channel=0, note=52, velocity=95, time=0),
    Message('note_off', channel=0, note=68, velocity=80, time=240),
    Message('note_off', channel=0, note=64, velocity=80, time=0),
    Message('note_off', channel=0, note=59, velocity=80, time=0),
    Message('note_off', channel=0, note=52, velocity=80, time=0),
    Message('note_on', channel=0, note=68, velocity=95, time=0),
    Message('note_on', channel=0, note=64, velocity=95, time=0),
    Message('note_on', channel=0, note=59, velocity=95, time=0),
    Message('note_on', channel=0, note=52, velocity=95, time=0),
    Message('note_off', channel=0, note=68, velocity=80, time=240),
    Message('note_off', channel=0, note=64, velocity=80, time=0),
    Message('note_off', channel=0, note=59, velocity=80, time=0),
    Message('note_off', channel=0, note=52, velocity=80, time=0),
    Message('note_on', channel=0, note=68, velocity=95, time=0),
    Message('note_on', channel=0, note=64, velocity=95, time=0),
    Message('note_on', channel=0, note=59, velocity=95, time=0),
    Message('note_on', channel=0, note=52, velocity=95, time=0),
    Message('note_off', channel=0, note=68, velocity=80, time=240),
    Message('note_off', channel=0, note=64, velocity=80, time=0),
    Message('note_off', channel=0, note=59, velocity=80, time=0),
    Message('note_off', channel=0, note=52, velocity=80, time=0),
    Message('note_on', channel=0, note=68, velocity=95, time=0),
    Message('note_on', channel=0, note=64, velocity=95, time=0),
    Message('note_on', channel=0, note=59, velocity=95, time=0),
    Message('note_on', channel=0, note=52, velocity=95, time=0),
    Message('note_off', channel=0, note=68, velocity=80, time=240),
    Message('note_off', channel=0, note=64, velocity=80, time=0),
    Message('note_off', channel=0, note=59, velocity=80, time=0),
    Message('note_off', channel=0, note=52, velocity=80, time=0),
    Message('note_on', channel=0, note=68, velocity=95, time=0),
    Message('note_on', channel=0, note=64, velocity=95, time=0),
    Message('note_on', channel=0, note=59, velocity=95, time=0),
    Message('note_on', channel=0, note=52, velocity=95, time=0),
    Message('note_off', channel=0, note=68, velocity=80, time=240),
    Message('note_off', channel=0, note=64, velocity=80, time=0),
    Message('note_off', channel=0, note=59, velocity=80, time=0),
    Message('note_off', channel=0, note=52, velocity=80, time=0),
    Message('note_on', channel=0, note=69, velocity=95, time=0),
    Message('note_on', channel=0, note=61, velocity=95, time=0),
    Message('note_on', channel=0, note=57, velocity=95, time=0),
    Message('note_on', channel=0, note=52, velocity=95, time=0),
    Message('note_on', channel=0, note=45, velocity=95, time=0),
    Message('note_off', channel=0, note=69, velocity=80, time=480),
    Message('note_off', channel=0, note=61, velocity=80, time=0),
    Message('note_off', channel=0, note=57, velocity=80, time=0),
    Message('note_off', channel=0, note=52, velocity=80, time=0),
    Message('note_off', channel=0, note=45, velocity=80, time=0),
    Message('note_on', channel=0, note=69, velocity=95, time=0),
    Message('note_on', channel=0, note=61, velocity=95, time=0),
    Message('note_on', channel=0, note=57, velocity=95, time=0),
    Message('note_on', channel=0, note=52, velocity=95, time=0),
    Message('note_on', channel=0, note=45, velocity=95, time=0),
    Message('note_off', channel=0, note=69, velocity=80, time=480),
    Message('note_off', channel=0, note=61, velocity=80, time=0),
    Message('note_off', channel=0, note=57, velocity=80, time=0),
    Message('note_off', channel=0, note=52, velocity=80, time=0),
    Message('note_off', channel=0, note=45, velocity=80, time=0),
    Message('note_on', channel=0, note=69, velocity=95, time=0),
    Message('note_on', channel=0, note=61, velocity=95, time=0),
    Message('note_on', channel=0, note=57, velocity=95, time=0),
    Message('note_on', channel=0, note=52, velocity=95, time=0),
    Message('note_on', channel=0, note=45, velocity=95, time=0),
    Message('note_off', channel=0, note=69, velocity=80, time=240),
    Message('note_off', channel=0, note=61, velocity=80, time=0),
    Message('note_off', channel=0, note=57, velocity=80, time=0),
    Message('note_off', channel=0, note=52, velocity=80, time=0),
    Message('note_off', channel=0, note=45, velocity=80, time=0),
    Message('note_on', channel=0, note=69, velocity=95, time=0),
    Message('note_on', channel=0, note=61, velocity=95, time=0),
    Message('note_on', channel=0, note=57, velocity=95, time=0),
    Message('note_on', channel=0, note=52, velocity=95, time=0),
    Message('note_on', channel=0, note=45, velocity=95, time=0),
    Message('note_off', channel=0, note=69, velocity=80, time=240),
    Message('note_off', channel=0, note=61, velocity=80, time=0),
    Message('note_off', channel=0, note=57, velocity=80, time=0),
    Message('note_off', channel=0, note=52, velocity=80, time=0),
    Message('note_off', channel=0, note=45, velocity=80, time=0),
    Message('note_on', channel=0, note=69, velocity=95, time=0),
    Message('note_on', channel=0, note=61, velocity=95, time=0),
    Message('note_on', channel=0, note=57, velocity=95, time=0),
    Message('note_on', channel=0, note=52, velocity=95, time=0),
    Message('note_on', channel=0, note=45, velocity=95, time=0),
    Message('note_off', channel=0, note=69, velocity=80, time=480),
    Message('note_off', channel=0, note=61, velocity=80, time=0),
    Message('note_off', channel=0, note=57, velocity=80, time=0),
    Message('note_off', channel=0, note=52, velocity=80, time=0),
    Message('note_off', channel=0, note=45, velocity=80, time=0),
    Message('note_on', channel=0, note=69, velocity=95, time=0),
    Message('note_on', channel=0, note=61, velocity=95, time=0),
    Message('note_on', channel=0, note=57, velocity=95, time=0),
    Message('note_on', channel=0, note=52, velocity=95, time=0),
    Message('note_on', channel=0, note=45, velocity=95, time=0),
    Message('note_off', channel=0, note=69, velocity=80, time=240),
    Message('note_off', channel=0, note=61, velocity=80, time=0),
    Message('note_off', channel=0, note=57, velocity=80, time=0),
    Message('note_off', channel=0, note=52, velocity=80, time=0),
    Message('note_off', channel=0, note=45, velocity=80, time=0),
    Message('note_on', channel=0, note=69, velocity=95, time=0),
    Message('note_on', channel=0, note=61, velocity=95, time=0),
    Message('note_on', channel=0, note=57, velocity=95, time=0),
    Message('note_on', channel=0, note=52, velocity=95, time=0),
    Message('note_on', channel=0, note=45, velocity=95, time=0),
    Message('note_off', channel=0, note=69, velocity=80, time=240),
    Message('note_off', channel=0, note=61, velocity=80, time=0),
    Message('note_off', channel=0, note=57, velocity=80, time=0),
    Message('note_off', channel=0, note=52, velocity=80, time=0),
    Message('note_off', channel=0, note=45, velocity=80, time=0),
    Message('note_on', channel=0, note=69, velocity=95, time=0),
    Message('note_on', channel=0, note=61, velocity=95, time=0),
    Message('note_on', channel=0, note=57, velocity=95, time=0),
    Message('note_on', channel=0, note=52, velocity=95, time=0),
    Message('note_on', channel=0, note=45, velocity=95, time=0),
    Message('note_off', channel=0, note=69, velocity=80, time=480),
    Message('note_off', channel=0, note=61, velocity=80, time=0),
    Message('note_off', channel=0, note=57, velocity=80, time=0),
    Message('note_off', channel=0, note=52, velocity=80, time=0),
    Message('note_off', channel=0, note=45, velocity=80, time=0),
    Message('note_on', channel=0, note=69, velocity=95, time=0),
    Message('note_on', channel=0, note=61, velocity=95, time=0),
    Message('note_on', channel=0, note=57, velocity=95, time=0),
    Message('note_on', channel=0, note=52, velocity=95, time=0),
    Message('note_on', channel=0, note=45, velocity=95, time=0),
    Message('note_off', channel=0, note=69, velocity=80, time=240),
    Message('note_off', channel=0, note=61, velocity=80, time=0),
    Message('note_off', channel=0, note=57, velocity=80, time=0),
    Message('note_off', channel=0, note=52, velocity=80, time=0),
    Message('note_off', channel=0, note=45, velocity=80, time=0),
    Message('note_on', channel=0, note=69, velocity=95, time=0),
    Message('note_on', channel=0, note=61, velocity=95, time=0),
    Message('note_on', channel=0, note=57, velocity=95, time=0),
    Message('note_on', channel=0, note=52, velocity=95, time=0),
    Message('note_on', channel=0, note=45, velocity=95, time=0),
    Message('note_off', channel=0, note=69, velocity=80, time=240),
    Message('note_off', channel=0, note=61, velocity=80, time=0),
    Message('note_off', channel=0, note=57, velocity=80, time=0),
    Message('note_off', channel=0, note=52, velocity=80, time=0),
    Message('note_off', channel=0, note=45, velocity=80, time=0),
    Message('note_on', channel=0, note=69, velocity=95, time=0),
    Message('note_on', channel=0, note=61, velocity=95, time=0),
    Message('note_on', channel=0, note=57, velocity=95, time=0),
    Message('note_on', channel=0, note=52, velocity=95, time=0),
    Message('note_on', channel=0, note=45, velocity=95, time=0),
    Message('note_off', channel=0, note=69, velocity=80, time=240),
    Message('note_off', channel=0, note=61, velocity=80, time=0),
    Message('note_off', channel=0, note=57, velocity=80, time=0),
    Message('note_off', channel=0, note=52, velocity=80, time=0),
    Message('note_off', channel=0, note=45, velocity=80, time=0),
    Message('note_on', channel=0, note=69, velocity=95, time=0),
    Message('note_on', channel=0, note=61, velocity=95, time=0),
    Message('note_on', channel=0, note=57, velocity=95, time=0),
    Message('note_on', channel=0, note=52, velocity=95, time=0),
    Message('note_on', channel=0, note=45, velocity=95, time=0),
    Message('note_off', channel=0, note=69, velocity=80, time=240),
    Message('note_off', channel=0, note=61, velocity=80, time=0),
    Message('note_off', channel=0, note=57, velocity=80, time=0),
    Message('note_off', channel=0, note=52, velocity=80, time=0),
    Message('note_off', channel=0, note=45, velocity=80, time=0),
    Message('note_on', channel=0, note=69, velocity=95, time=0),
    Message('note_on', channel=0, note=61, velocity=95, time=0),
    Message('note_on', channel=0, note=57, velocity=95, time=0),
    Message('note_on', channel=0, note=52, velocity=95, time=0),
    Message('note_on', channel=0, note=45, velocity=95, time=0),
    Message('note_off', channel=0, note=69, velocity=80, time=480),
    Message('note_off', channel=0, note=61, velocity=80, time=0),
    Message('note_off', channel=0, note=57, velocity=80, time=0),
    Message('note_off', channel=0, note=52, velocity=80, time=0),
    Message('note_off', channel=0, note=45, velocity=80, time=0),
    Message('note_on', channel=0, note=69, velocity=95, time=0),
    Message('note_on', channel=0, note=61, velocity=95, time=0),
    Message('note_on', channel=0, note=57, velocity=95, time=0),
    Message('note_on', channel=0, note=52, velocity=95, time=0),
    Message('note_on', channel=0, note=45, velocity=95, time=0),
    Message('note_off', channel=0, note=69, velocity=80, time=480),
    Message('note_off', channel=0, note=61, velocity=80, time=0),
    Message('note_off', channel=0, note=57, velocity=80, time=0),
    Message('note_off', channel=0, note=52, velocity=80, time=0),
    Message('note_off', channel=0, note=45, velocity=80, time=0),
    Message('note_on', channel=0, note=69, velocity=95, time=0),
    Message('note_on', channel=0, note=61, velocity=95, time=0),
    Message('note_on', channel=0, note=57, velocity=95, time=0),
    Message('note_on', channel=0, note=52, velocity=95, time=0),
    Message('note_on', channel=0, note=45, velocity=95, time=0),
    Message('note_off', channel=0, note=69, velocity=80, time=240),
    Message('note_off', channel=0, note=61, velocity=80, time=0),
    Message('note_off', channel=0, note=57, velocity=80, time=0),
    Message('note_off', channel=0, note=52, velocity=80, time=0),
    Message('note_off', channel=0, note=45, velocity=80, time=0),
    Message('note_on', channel=0, note=69, velocity=95, time=0),
    Message('note_on', channel=0, note=61, velocity=95, time=0),
    Message('note_on', channel=0, note=57, velocity=95, time=0),
    Message('note_on', channel=0, note=52, velocity=95, time=0),
    Message('note_on', channel=0, note=45, velocity=95, time=0),
    Message('note_off', channel=0, note=69, velocity=80, time=240),
    Message('note_off', channel=0, note=61, velocity=80, time=0),
    Message('note_off', channel=0, note=57, velocity=80, time=0),
    Message('note_off', channel=0, note=52, velocity=80, time=0),
    Message('note_off', channel=0, note=45, velocity=80, time=0),
    Message('note_on', channel=0, note=69, velocity=95, time=0),
    Message('note_on', channel=0, note=61, velocity=95, time=0),
    Message('note_on', channel=0, note=57, velocity=95, time=0),
    Message('note_on', channel=0, note=52, velocity=95, time=0),
    Message('note_on', channel=0, note=45, velocity=95, time=0),
    Message('note_off', channel=0, note=69, velocity=80, time=480),
    Message('note_off', channel=0, note=61, velocity=80, time=0),
    Message('note_off', channel=0, note=57, velocity=80, time=0),
    Message('note_off', channel=0, note=52, velocity=80, time=0),
    Message('note_off', channel=0, note=45, velocity=80, time=0),
    Message('note_on', channel=0, note=69, velocity=95, time=0),
    Message('note_on', channel=0, note=61, velocity=95, time=0),
    Message('note_on', channel=0, note=57, velocity=95, time=0),
    Message('note_on', channel=0, note=52, velocity=95, time=0),
    Message('note_on', channel=0, note=45, velocity=95, time=0),
    Message('note_off', channel=0, note=69, velocity=80, time=1920),
    Message('note_off', channel=0, note=61, velocity=80, time=0),
    Message('note_off', channel=0, note=57, velocity=80, time=0),
    Message('note_off', channel=0, note=52, velocity=80, time=0),
    Message('note_off', channel=0, note=45, velocity=80, time=0),
    Message('note_on', channel=0, note=69, velocity=95, time=0),
    Message('note_on', channel=0, note=62, velocity=95, time=0),
    Message('note_on', channel=0, note=57, velocity=95, time=0),
    Message('note_on', channel=0, note=54, velocity=95, time=0),
    Message('note_on', channel=0, note=47, velocity=95, time=0),
    Message('note_off', channel=0, note=69, velocity=80, time=480),
    Message('note_off', channel=0, note=62, velocity=80, time=0),
    Message('note_off', channel=0, note=57, velocity=80, time=0),
    Message('note_off', channel=0, note=54, velocity=80, time=0),
    Message('note_off', channel=0, note=47, velocity=80, time=0),
    Message('note_on', channel=0, note=69, velocity=95, time=0),
    Message('note_on', channel=0, note=62, velocity=95, time=0),
    Message('note_on', channel=0, note=57, velocity=95, time=0),
    Message('note_on', channel=0, note=54, velocity=95, time=0),
    Message('note_on', channel=0, note=47, velocity=95, time=0),
    Message('note_off', channel=0, note=69, velocity=80, time=480),
    Message('note_off', channel=0, note=62, velocity=80, time=0),
    Message('note_off', channel=0, note=57, velocity=80, time=0),
    Message('note_off', channel=0, note=54, velocity=80, time=0),
    Message('note_off', channel=0, note=47, velocity=80, time=0),
    Message('note_on', channel=0, note=69, velocity=95, time=0),
    Message('note_on', channel=0, note=62, velocity=95, time=0),
    Message('note_on', channel=0, note=57, velocity=95, time=0),
    Message('note_on', channel=0, note=54, velocity=95, time=0),
    Message('note_on', channel=0, note=47, velocity=95, time=0),
    Message('note_off', channel=0, note=69, velocity=80, time=240),
    Message('note_off', channel=0, note=62, velocity=80, time=0),
    Message('note_off', channel=0, note=57, velocity=80, time=0),
    Message('note_off', channel=0, note=54, velocity=80, time=0),
    Message('note_off', channel=0, note=47, velocity=80, time=0),
    Message('note_on', channel=0, note=69, velocity=95, time=0),
    Message('note_on', channel=0, note=62, velocity=95, time=0),
    Message('note_on', channel=0, note=57, velocity=95, time=0),
    Message('note_on', channel=0, note=54, velocity=95, time=0),
    Message('note_on', channel=0, note=47, velocity=95, time=0),
    Message('note_off', channel=0, note=69, velocity=80, time=240),
    Message('note_off', channel=0, note=62, velocity=80, time=0),
    Message('note_off', channel=0, note=57, velocity=80, time=0),
    Message('note_off', channel=0, note=54, velocity=80, time=0),
    Message('note_off', channel=0, note=47, velocity=80, time=0),
    Message('note_on', channel=0, note=69, velocity=95, time=0),
    Message('note_on', channel=0, note=62, velocity=95, time=0),
    Message('note_on', channel=0, note=57, velocity=95, time=0),
    Message('note_on', channel=0, note=54, velocity=95, time=0),
    Message('note_on', channel=0, note=47, velocity=95, time=0),
    Message('note_off', channel=0, note=69, velocity=80, time=480),
    Message('note_off', channel=0, note=62, velocity=80, time=0),
    Message('note_off', channel=0, note=57, velocity=80, time=0),
    Message('note_off', channel=0, note=54, velocity=80, time=0),
    Message('note_off', channel=0, note=47, velocity=80, time=0),
    Message('note_on', channel=0, note=68, velocity=95, time=0),
    Message('note_on', channel=0, note=64, velocity=95, time=0),
    Message('note_on', channel=0, note=59, velocity=95, time=0),
    Message('note_on', channel=0, note=52, velocity=95, time=0),
    Message('note_off', channel=0, note=68, velocity=80, time=480),
    Message('note_off', channel=0, note=64, velocity=80, time=0),
    Message('note_off', channel=0, note=59, velocity=80, time=0),
    Message('note_off', channel=0, note=52, velocity=80, time=0),
    Message('note_on', channel=0, note=68, velocity=95, time=0),
    Message('note_on', channel=0, note=64, velocity=95, time=0),
    Message('note_on', channel=0, note=59, velocity=95, time=0),
    Message('note_on', channel=0, note=52, velocity=95, time=0),
    Message('note_off', channel=0, note=68, velocity=80, time=480),
    Message('note_off', channel=0, note=64, velocity=80, time=0),
    Message('note_off', channel=0, note=59, velocity=80, time=0),
    Message('note_off', channel=0, note=52, velocity=80, time=0),
    Message('note_on', channel=0, note=68, velocity=95, time=0),
    Message('note_on', channel=0, note=64, velocity=95, time=0),
    Message('note_on', channel=0, note=59, velocity=95, time=0),
    Message('note_on', channel=0, note=52, velocity=95, time=0),
    Message('note_off', channel=0, note=68, velocity=80, time=240),
    Message('note_off', channel=0, note=64, velocity=80, time=0),
    Message('note_off', channel=0, note=59, velocity=80, time=0),
    Message('note_off', channel=0, note=52, velocity=80, time=0),
    Message('note_on', channel=0, note=68, velocity=95, time=0),
    Message('note_on', channel=0, note=64, velocity=95, time=0),
    Message('note_on', channel=0, note=59, velocity=95, time=0),
    Message('note_on', channel=0, note=52, velocity=95, time=0),
    Message('note_off', channel=0, note=68, velocity=80, time=240),
    Message('note_off', channel=0, note=64, velocity=80, time=0),
    Message('note_off', channel=0, note=59, velocity=80, time=0),
    Message('note_off', channel=0, note=52, velocity=80, time=0),
    Message('note_on', channel=0, note=68, velocity=95, time=0),
    Message('note_on', channel=0, note=64, velocity=95, time=0),
    Message('note_on', channel=0, note=59, velocity=95, time=0),
    Message('note_on', channel=0, note=52, velocity=95, time=0),
    Message('note_off', channel=0, note=68, velocity=80, time=480),
    Message('note_off', channel=0, note=64, velocity=80, time=0),
    Message('note_off', channel=0, note=59, velocity=80, time=0),
    Message('note_off', channel=0, note=52, velocity=80, time=0),
    Message('note_on', channel=0, note=69, velocity=95, time=0),
    Message('note_on', channel=0, note=61, velocity=95, time=0),
    Message('note_on', channel=0, note=57, velocity=95, time=0),
    Message('note_on', channel=0, note=52, velocity=95, time=0),
    Message('note_on', channel=0, note=45, velocity=95, time=0),
    Message('note_off', channel=0, note=69, velocity=80, time=480),
    Message('note_off', channel=0, note=61, velocity=80, time=0),
    Message('note_off', channel=0, note=57, velocity=80, time=0),
    Message('note_off', channel=0, note=52, velocity=80, time=0),
    Message('note_off', channel=0, note=45, velocity=80, time=0),
    Message('note_on', channel=0, note=69, velocity=95, time=0),
    Message('note_on', channel=0, note=61, velocity=95, time=0),
    Message('note_on', channel=0, note=57, velocity=95, time=0),
    Message('note_on', channel=0, note=52, velocity=95, time=0),
    Message('note_on', channel=0, note=45, velocity=95, time=0),
    Message('note_off', channel=0, note=69, velocity=80, time=480),
    Message('note_off', channel=0, note=61, velocity=80, time=0),
    Message('note_off', channel=0, note=57, velocity=80, time=0),
    Message('note_off', channel=0, note=52, velocity=80, time=0),
    Message('note_off', channel=0, note=45, velocity=80, time=0),
    Message('note_on', channel=0, note=69, velocity=95, time=0),
    Message('note_on', channel=0, note=61, velocity=95, time=0),
    Message('note_on', channel=0, note=57, velocity=95, time=0),
    Message('note_on', channel=0, note=52, velocity=95, time=0),
    Message('note_on', channel=0, note=45, velocity=95, time=0),
    Message('note_off', channel=0, note=69, velocity=80, time=480),
    Message('note_off', channel=0, note=61, velocity=80, time=0),
    Message('note_off', channel=0, note=57, velocity=80, time=0),
    Message('note_off', channel=0, note=52, velocity=80, time=0),
    Message('note_off', channel=0, note=45, velocity=80, time=0),
    Message('note_on', channel=0, note=69, velocity=95, time=0),
    Message('note_on', channel=0, note=61, velocity=95, time=0),
    Message('note_on', channel=0, note=57, velocity=95, time=0),
    Message('note_on', channel=0, note=52, velocity=95, time=0),
    Message('note_on', channel=0, note=45, velocity=95, time=0),
    Message('note_off', channel=0, note=69, velocity=80, time=240),
    Message('note_off', channel=0, note=61, velocity=80, time=0),
    Message('note_off', channel=0, note=57, velocity=80, time=0),
    Message('note_off', channel=0, note=52, velocity=80, time=0),
    Message('note_off', channel=0, note=45, velocity=80, time=0),
    Message('note_on', channel=0, note=69, velocity=95, time=0),
    Message('note_on', channel=0, note=61, velocity=95, time=0),
    Message('note_on', channel=0, note=57, velocity=95, time=0),
    Message('note_on', channel=0, note=52, velocity=95, time=0),
    Message('note_on', channel=0, note=45, velocity=95, time=0),
    Message('note_off', channel=0, note=69, velocity=80, time=240),
    Message('note_off', channel=0, note=61, velocity=80, time=0),
    Message('note_off', channel=0, note=57, velocity=80, time=0),
    Message('note_off', channel=0, note=52, velocity=80, time=0),
    Message('note_off', channel=0, note=45, velocity=80, time=0),
    Message('note_on', channel=0, note=69, velocity=95, time=240),
    Message('note_on', channel=0, note=61, velocity=95, time=0),
    Message('note_on', channel=0, note=57, velocity=95, time=0),
    Message('note_on', channel=0, note=52, velocity=95, time=0),
    Message('note_on', channel=0, note=45, velocity=95, time=0),
    Message('note_off', channel=0, note=69, velocity=80, time=240),
    Message('note_off', channel=0, note=61, velocity=80, time=0),
    Message('note_off', channel=0, note=57, velocity=80, time=0),
    Message('note_off', channel=0, note=52, velocity=80, time=0),
    Message('note_off', channel=0, note=45, velocity=80, time=0),
    Message('note_on', channel=0, note=69, velocity=95, time=240),
    Message('note_on', channel=0, note=61, velocity=95, time=0),
    Message('note_on', channel=0, note=57, velocity=95, time=0),
    Message('note_on', channel=0, note=52, velocity=95, time=0),
    Message('note_on', channel=0, note=45, velocity=95, time=0),
    Message('note_off', channel=0, note=69, velocity=80, time=240),
    Message('note_off', channel=0, note=61, velocity=80, time=0),
    Message('note_off', channel=0, note=57, velocity=80, time=0),
    Message('note_off', channel=0, note=52, velocity=80, time=0),
    Message('note_off', channel=0, note=45, velocity=80, time=0),
    Message('note_on', channel=0, note=69, velocity=95, time=240),
    Message('note_on', channel=0, note=61, velocity=95, time=0),
    Message('note_on', channel=0, note=57, velocity=95, time=0),
    Message('note_on', channel=0, note=52, velocity=95, time=0),
    Message('note_on', channel=0, note=45, velocity=95, time=0),
    Message('note_off', channel=0, note=69, velocity=80, time=240),
    Message('note_off', channel=0, note=61, velocity=80, time=0),
    Message('note_off', channel=0, note=57, velocity=80, time=0),
    Message('note_off', channel=0, note=52, velocity=80, time=0),
    Message('note_off', channel=0, note=45, velocity=80, time=0),
    Message('note_on', channel=0, note=69, velocity=95, time=240),
    Message('note_on', channel=0, note=61, velocity=95, time=0),
    Message('note_on', channel=0, note=57, velocity=95, time=0),
    Message('note_on', channel=0, note=52, velocity=95, time=0),
    Message('note_on', channel=0, note=45, velocity=95, time=0),
    Message('note_off', channel=0, note=69, velocity=80, time=120),
    Message('note_off', channel=0, note=61, velocity=80, time=0),
    Message('note_off', channel=0, note=57, velocity=80, time=0),
    Message('note_off', channel=0, note=52, velocity=80, time=0),
    Message('note_off', channel=0, note=45, velocity=80, time=0),
    Message('note_on', channel=0, note=69, velocity=95, time=0),
    Message('note_on', channel=0, note=61, velocity=95, time=0),
    Message('note_on', channel=0, note=57, velocity=95, time=0),
    Message('note_on', channel=0, note=52, velocity=95, time=0),
    Message('note_on', channel=0, note=45, velocity=95, time=0),
    Message('note_off', channel=0, note=69, velocity=80, time=120),
    Message('note_off', channel=0, note=61, velocity=80, time=0),
    Message('note_off', channel=0, note=57, velocity=80, time=0),
    Message('note_off', channel=0, note=52, velocity=80, time=0),
    Message('note_off', channel=0, note=45, velocity=80, time=0),
    Message('note_on', channel=0, note=69, velocity=95, time=0),
    Message('note_on', channel=0, note=61, velocity=95, time=0),
    Message('note_on', channel=0, note=57, velocity=95, time=0),
    Message('note_on', channel=0, note=52, velocity=95, time=0),
    Message('note_on', channel=0, note=45, velocity=95, time=0),
    Message('note_off', channel=0, note=69, velocity=80, time=480),
    Message('note_off', channel=0, note=61, velocity=80, time=0),
    Message('note_off', channel=0, note=57, velocity=80, time=0),
    Message('note_off', channel=0, note=52, velocity=80, time=0),
    Message('note_off', channel=0, note=45, velocity=80, time=0),
    Message('note_on', channel=0, note=69, velocity=95, time=0),
    Message('note_on', channel=0, note=61, velocity=95, time=0),
    Message('note_on', channel=0, note=57, velocity=95, time=0),
    Message('note_on', channel=0, note=52, velocity=95, time=0),
    Message('note_on', channel=0, note=45, velocity=95, time=0),
    Message('note_off', channel=0, note=69, velocity=80, time=480),
    Message('note_off', channel=0, note=61, velocity=80, time=0),
    Message('note_off', channel=0, note=57, velocity=80, time=0),
    Message('note_off', channel=0, note=52, velocity=80, time=0),
    Message('note_off', channel=0, note=45, velocity=80, time=0),
    Message('note_on', channel=0, note=69, velocity=95, time=0),
    Message('note_on', channel=0, note=61, velocity=95, time=0),
    Message('note_on', channel=0, note=57, velocity=95, time=0),
    Message('note_on', channel=0, note=52, velocity=95, time=0),
    Message('note_on', channel=0, note=45, velocity=95, time=0),
    Message('note_off', channel=0, note=69, velocity=80, time=240),
    Message('note_off', channel=0, note=61, velocity=80, time=0),
    Message('note_off', channel=0, note=57, velocity=80, time=0),
    Message('note_off', channel=0, note=52, velocity=80, time=0),
    Message('note_off', channel=0, note=45, velocity=80, time=0),
    Message('note_on', channel=0, note=69, velocity=95, time=0),
    Message('note_on', channel=0, note=61, velocity=95, time=0),
    Message('note_on', channel=0, note=57, velocity=95, time=0),
    Message('note_on', channel=0, note=52, velocity=95, time=0),
    Message('note_on', channel=0, note=45, velocity=95, time=0),
    Message('note_off', channel=0, note=69, velocity=80, time=240),
    Message('note_off', channel=0, note=61, velocity=80, time=0),
    Message('note_off', channel=0, note=57, velocity=80, time=0),
    Message('note_off', channel=0, note=52, velocity=80, time=0),
    Message('note_off', channel=0, note=45, velocity=80, time=0),
    Message('note_on', channel=0, note=69, velocity=95, time=0),
    Message('note_on', channel=0, note=61, velocity=95, time=0),
    Message('note_on', channel=0, note=57, velocity=95, time=0),
    Message('note_on', channel=0, note=52, velocity=95, time=0),
    Message('note_on', channel=0, note=45, velocity=95, time=0),
    Message('note_off', channel=0, note=69, velocity=80, time=480),
    Message('note_off', channel=0, note=61, velocity=80, time=0),
    Message('note_off', channel=0, note=57, velocity=80, time=0),
    Message('note_off', channel=0, note=52, velocity=80, time=0),
    Message('note_off', channel=0, note=45, velocity=80, time=0),
    Message('note_on', channel=0, note=69, velocity=95, time=0),
    Message('note_on', channel=0, note=61, velocity=95, time=0),
    Message('note_on', channel=0, note=57, velocity=95, time=0),
    Message('note_on', channel=0, note=52, velocity=95, time=0),
    Message('note_on', channel=0, note=45, velocity=95, time=0),
    Message('note_off', channel=0, note=69, velocity=80, time=240),
    Message('note_off', channel=0, note=61, velocity=80, time=0),
    Message('note_off', channel=0, note=57, velocity=80, time=0),
    Message('note_off', channel=0, note=52, velocity=80, time=0),
    Message('note_off', channel=0, note=45, velocity=80, time=0),
    Message('note_on', channel=0, note=69, velocity=95, time=0),
    Message('note_on', channel=0, note=61, velocity=95, time=0),
    Message('note_on', channel=0, note=57, velocity=95, time=0),
    Message('note_on', channel=0, note=52, velocity=95, time=0),
    Message('note_on', channel=0, note=45, velocity=95, time=0),
    Message('note_off', channel=0, note=69, velocity=80, time=240),
    Message('note_off', channel=0, note=61, velocity=80, time=0),
    Message('note_off', channel=0, note=57, velocity=80, time=0),
    Message('note_off', channel=0, note=52, velocity=80, time=0),
    Message('note_off', channel=0, note=45, velocity=80, time=0),
    Message('note_on', channel=0, note=69, velocity=95, time=0),
    Message('note_on', channel=0, note=61, velocity=95, time=0),
    Message('note_on', channel=0, note=57, velocity=95, time=0),
    Message('note_on', channel=0, note=52, velocity=95, time=0),
    Message('note_on', channel=0, note=45, velocity=95, time=0),
    Message('note_off', channel=0, note=69, velocity=80, time=480),
    Message('note_off', channel=0, note=61, velocity=80, time=0),
    Message('note_off', channel=0, note=57, velocity=80, time=0),
    Message('note_off', channel=0, note=52, velocity=80, time=0),
    Message('note_off', channel=0, note=45, velocity=80, time=0),
    Message('note_on', channel=0, note=69, velocity=95, time=0),
    Message('note_on', channel=0, note=61, velocity=95, time=0),
    Message('note_on', channel=0, note=57, velocity=95, time=0),
    Message('note_on', channel=0, note=52, velocity=95, time=0),
    Message('note_on', channel=0, note=45, velocity=95, time=0),
    Message('note_off', channel=0, note=69, velocity=80, time=240),
    Message('note_off', channel=0, note=61, velocity=80, time=0),
    Message('note_off', channel=0, note=57, velocity=80, time=0),
    Message('note_off', channel=0, note=52, velocity=80, time=0),
    Message('note_off', channel=0, note=45, velocity=80, time=0),
    Message('note_on', channel=0, note=69, velocity=95, time=0),
    Message('note_on', channel=0, note=61, velocity=95, time=0),
    Message('note_on', channel=0, note=57, velocity=95, time=0),
    Message('note_on', channel=0, note=52, velocity=95, time=0),
    Message('note_on', channel=0, note=45, velocity=95, time=0),
    Message('note_off', channel=0, note=69, velocity=80, time=240),
    Message('note_off', channel=0, note=61, velocity=80, time=0),
    Message('note_off', channel=0, note=57, velocity=80, time=0),
    Message('note_off', channel=0, note=52, velocity=80, time=0),
    Message('note_off', channel=0, note=45, velocity=80, time=0),
    Message('note_on', channel=0, note=69, velocity=95, time=0),
    Message('note_on', channel=0, note=61, velocity=95, time=0),
    Message('note_on', channel=0, note=57, velocity=95, time=0),
    Message('note_on', channel=0, note=52, velocity=95, time=0),
    Message('note_on', channel=0, note=45, velocity=95, time=0),
    Message('note_off', channel=0, note=69, velocity=80, time=240),
    Message('note_off', channel=0, note=61, velocity=80, time=0),
    Message('note_off', channel=0, note=57, velocity=80, time=0),
    Message('note_off', channel=0, note=52, velocity=80, time=0),
    Message('note_off', channel=0, note=45, velocity=80, time=0),
    Message('note_on', channel=0, note=69, velocity=95, time=0),
    Message('note_on', channel=0, note=61, velocity=95, time=0),
    Message('note_on', channel=0, note=57, velocity=95, time=0),
    Message('note_on', channel=0, note=52, velocity=95, time=0),
    Message('note_on', channel=0, note=45, velocity=95, time=0),
    Message('note_off', channel=0, note=69, velocity=80, time=240),
    Message('note_off', channel=0, note=61, velocity=80, time=0),
    Message('note_off', channel=0, note=57, velocity=80, time=0),
    Message('note_off', channel=0, note=52, velocity=80, time=0),
    Message('note_off', channel=0, note=45, velocity=80, time=0),
    Message('note_on', channel=0, note=69, velocity=95, time=0),
    Message('note_on', channel=0, note=61, velocity=95, time=0),
    Message('note_on', channel=0, note=57, velocity=95, time=0),
    Message('note_on', channel=0, note=52, velocity=95, time=0),
    Message('note_on', channel=0, note=45, velocity=95, time=0),
    Message('note_off', channel=0, note=69, velocity=80, time=480),
    Message('note_off', channel=0, note=61, velocity=80, time=0),
    Message('note_off', channel=0, note=57, velocity=80, time=0),
    Message('note_off', channel=0, note=52, velocity=80, time=0),
    Message('note_off', channel=0, note=45, velocity=80, time=0),
    Message('note_on', channel=0, note=69, velocity=95, time=0),
    Message('note_on', channel=0, note=61, velocity=95, time=0),
    Message('note_on', channel=0, note=57, velocity=95, time=0),
    Message('note_on', channel=0, note=52, velocity=95, time=0),
    Message('note_on', channel=0, note=45, velocity=95, time=0),
    Message('note_off', channel=0, note=69, velocity=80, time=480),
    Message('note_off', channel=0, note=61, velocity=80, time=0),
    Message('note_off', channel=0, note=57, velocity=80, time=0),
    Message('note_off', channel=0, note=52, velocity=80, time=0),
    Message('note_off', channel=0, note=45, velocity=80, time=0),
    Message('note_on', channel=0, note=69, velocity=95, time=0),
    Message('note_on', channel=0, note=61, velocity=95, time=0),
    Message('note_on', channel=0, note=57, velocity=95, time=0),
    Message('note_on', channel=0, note=52, velocity=95, time=0),
    Message('note_on', channel=0, note=45, velocity=95, time=0),
    Message('note_off', channel=0, note=69, velocity=80, time=240),
    Message('note_off', channel=0, note=61, velocity=80, time=0),
    Message('note_off', channel=0, note=57, velocity=80, time=0),
    Message('note_off', channel=0, note=52, velocity=80, time=0),
    Message('note_off', channel=0, note=45, velocity=80, time=0),
    Message('note_on', channel=0, note=69, velocity=95, time=0),
    Message('note_on', channel=0, note=61, velocity=95, time=0),
    Message('note_on', channel=0, note=57, velocity=95, time=0),
    Message('note_on', channel=0, note=52, velocity=95, time=0),
    Message('note_on', channel=0, note=45, velocity=95, time=0),
    Message('note_off', channel=0, note=69, velocity=80, time=240),
    Message('note_off', channel=0, note=61, velocity=80, time=0),
    Message('note_off', channel=0, note=57, velocity=80, time=0),
    Message('note_off', channel=0, note=52, velocity=80, time=0),
    Message('note_off', channel=0, note=45, velocity=80, time=0),
    Message('note_on', channel=0, note=69, velocity=95, time=0),
    Message('note_on', channel=0, note=61, velocity=95, time=0),
    Message('note_on', channel=0, note=57, velocity=95, time=0),
    Message('note_on', channel=0, note=52, velocity=95, time=0),
    Message('note_on', channel=0, note=45, velocity=95, time=0),
    Message('note_off', channel=0, note=69, velocity=80, time=480),
    Message('note_off', channel=0, note=61, velocity=80, time=0),
    Message('note_off', channel=0, note=57, velocity=80, time=0),
    Message('note_off', channel=0, note=52, velocity=80, time=0),
    Message('note_off', channel=0, note=45, velocity=80, time=0),
    Message('note_on', channel=0, note=69, velocity=95, time=0),
    Message('note_on', channel=0, note=61, velocity=95, time=0),
    Message('note_on', channel=0, note=57, velocity=95, time=0),
    Message('note_on', channel=0, note=52, velocity=95, time=0),
    Message('note_on', channel=0, note=45, velocity=95, time=0),
    Message('note_off', channel=0, note=69, velocity=80, time=480),
    Message('note_off', channel=0, note=61, velocity=80, time=0),
    Message('note_off', channel=0, note=57, velocity=80, time=0),
    Message('note_off', channel=0, note=52, velocity=80, time=0),
    Message('note_off', channel=0, note=45, velocity=80, time=0),
    Message('note_on', channel=0, note=69, velocity=95, time=0),
    Message('note_on', channel=0, note=61, velocity=95, time=0),
    Message('note_on', channel=0, note=57, velocity=95, time=0),
    Message('note_on', channel=0, note=52, velocity=95, time=0),
    Message('note_on', channel=0, note=45, velocity=95, time=0),
    Message('note_off', channel=0, note=69, velocity=80, time=480),
    Message('note_off', channel=0, note=61, velocity=80, time=0),
    Message('note_off', channel=0, note=57, velocity=80, time=0),
    Message('note_off', channel=0, note=52, velocity=80, time=0),
    Message('note_off', channel=0, note=45, velocity=80, time=0),
    Message('note_on', channel=0, note=69, velocity=95, time=0),
    Message('note_on', channel=0, note=61, velocity=95, time=0),
    Message('note_on', channel=0, note=57, velocity=95, time=0),
    Message('note_on', channel=0, note=52, velocity=95, time=0),
    Message('note_on', channel=0, note=45, velocity=95, time=0),
    Message('note_off', channel=0, note=69, velocity=80, time=240),
    Message('note_off', channel=0, note=61, velocity=80, time=0),
    Message('note_off', channel=0, note=57, velocity=80, time=0),
    Message('note_off', channel=0, note=52, velocity=80, time=0),
    Message('note_off', channel=0, note=45, velocity=80, time=0),
    Message('note_on', channel=0, note=69, velocity=95, time=0),
    Message('note_on', channel=0, note=61, velocity=95, time=0),
    Message('note_on', channel=0, note=57, velocity=95, time=0),
    Message('note_on', channel=0, note=52, velocity=95, time=0),
    Message('note_on', channel=0, note=45, velocity=95, time=0),
    Message('note_off', channel=0, note=69, velocity=80, time=240),
    Message('note_off', channel=0, note=61, velocity=80, time=0),
    Message('note_off', channel=0, note=57, velocity=80, time=0),
    Message('note_off', channel=0, note=52, velocity=80, time=0),
    Message('note_off', channel=0, note=45, velocity=80, time=0),
    Message('note_on', channel=0, note=69, velocity=95, time=0),
    Message('note_on', channel=0, note=61, velocity=95, time=0),
    Message('note_on', channel=0, note=57, velocity=95, time=0),
    Message('note_on', channel=0, note=52, velocity=95, time=0),
    Message('note_on', channel=0, note=45, velocity=95, time=0),
    Message('note_off', channel=0, note=69, velocity=80, time=240),
    Message('note_off', channel=0, note=61, velocity=80, time=0),
    Message('note_off', channel=0, note=57, velocity=80, time=0),
    Message('note_off', channel=0, note=52, velocity=80, time=0),
    Message('note_off', channel=0, note=45, velocity=80, time=0),
    Message('note_on', channel=0, note=69, velocity=95, time=0),
    Message('note_on', channel=0, note=61, velocity=95, time=0),
    Message('note_on', channel=0, note=57, velocity=95, time=0),
    Message('note_on', channel=0, note=52, velocity=95, time=0),
    Message('note_on', channel=0, note=45, velocity=95, time=0),
    Message('note_off', channel=0, note=69, velocity=80, time=240),
    Message('note_off', channel=0, note=61, velocity=80, time=0),
    Message('note_off', channel=0, note=57, velocity=80, time=0),
    Message('note_off', channel=0, note=52, velocity=80, time=0),
    Message('note_off', channel=0, note=45, velocity=80, time=0),
    Message('note_on', channel=0, note=69, velocity=95, time=0),
    Message('note_on', channel=0, note=62, velocity=95, time=0),
    Message('note_on', channel=0, note=59, velocity=95, time=0),
    Message('note_on', channel=0, note=54, velocity=95, time=0),
    Message('note_on', channel=0, note=47, velocity=95, time=0),
    Message('note_off', channel=0, note=69, velocity=80, time=480),
    Message('note_off', channel=0, note=62, velocity=80, time=0),
    Message('note_off', channel=0, note=59, velocity=80, time=0),
    Message('note_off', channel=0, note=54, velocity=80, time=0),
    Message('note_off', channel=0, note=47, velocity=80, time=0),
    Message('note_on', channel=0, note=69, velocity=95, time=0),
    Message('note_on', channel=0, note=62, velocity=95, time=0),
    Message('note_on', channel=0, note=59, velocity=95, time=0),
    Message('note_on', channel=0, note=54, velocity=95, time=0),
    Message('note_on', channel=0, note=47, velocity=95, time=0),
    Message('note_off', channel=0, note=69, velocity=80, time=480),
    Message('note_off', channel=0, note=62, velocity=80, time=0),
    Message('note_off', channel=0, note=59, velocity=80, time=0),
    Message('note_off', channel=0, note=54, velocity=80, time=0),
    Message('note_off', channel=0, note=47, velocity=80, time=0),
    Message('note_on', channel=0, note=69, velocity=95, time=0),
    Message('note_on', channel=0, note=62, velocity=95, time=0),
    Message('note_on', channel=0, note=59, velocity=95, time=0),
    Message('note_on', channel=0, note=54, velocity=95, time=0),
    Message('note_on', channel=0, note=47, velocity=95, time=0),
    Message('note_off', channel=0, note=69, velocity=80, time=240),
    Message('note_off', channel=0, note=62, velocity=80, time=0),
    Message('note_off', channel=0, note=59, velocity=80, time=0),
    Message('note_off', channel=0, note=54, velocity=80, time=0),
    Message('note_off', channel=0, note=47, velocity=80, time=0),
    Message('note_on', channel=0, note=69, velocity=95, time=0),
    Message('note_on', channel=0, note=62, velocity=95, time=0),
    Message('note_on', channel=0, note=59, velocity=95, time=0),
    Message('note_on', channel=0, note=54, velocity=95, time=0),
    Message('note_on', channel=0, note=47, velocity=95, time=0),
    Message('note_off', channel=0, note=69, velocity=80, time=240),
    Message('note_off', channel=0, note=62, velocity=80, time=0),
    Message('note_off', channel=0, note=59, velocity=80, time=0),
    Message('note_off', channel=0, note=54, velocity=80, time=0),
    Message('note_off', channel=0, note=47, velocity=80, time=0),
    Message('note_on', channel=0, note=69, velocity=95, time=0),
    Message('note_on', channel=0, note=62, velocity=95, time=0),
    Message('note_on', channel=0, note=59, velocity=95, time=0),
    Message('note_on', channel=0, note=54, velocity=95, time=0),
    Message('note_on', channel=0, note=47, velocity=95, time=0),
    Message('note_off', channel=0, note=69, velocity=80, time=240),
    Message('note_off', channel=0, note=62, velocity=80, time=0),
    Message('note_off', channel=0, note=59, velocity=80, time=0),
    Message('note_off', channel=0, note=54, velocity=80, time=0),
    Message('note_off', channel=0, note=47, velocity=80, time=0),
    Message('note_on', channel=0, note=69, velocity=95, time=0),
    Message('note_on', channel=0, note=62, velocity=95, time=0),
    Message('note_on', channel=0, note=59, velocity=95, time=0),
    Message('note_on', channel=0, note=54, velocity=95, time=0),
    Message('note_on', channel=0, note=47, velocity=95, time=0),
    Message('note_off', channel=0, note=69, velocity=80, time=240),
    Message('note_off', channel=0, note=62, velocity=80, time=0),
    Message('note_off', channel=0, note=59, velocity=80, time=0),
    Message('note_off', channel=0, note=54, velocity=80, time=0),
    Message('note_off', channel=0, note=47, velocity=80, time=0),
    Message('note_on', channel=0, note=68, velocity=95, time=0),
    Message('note_on', channel=0, note=64, velocity=95, time=0),
    Message('note_on', channel=0, note=59, velocity=95, time=0),
    Message('note_on', channel=0, note=52, velocity=95, time=0),
    Message('note_off', channel=0, note=68, velocity=80, time=240),
    Message('note_off', channel=0, note=64, velocity=80, time=0),
    Message('note_off', channel=0, note=59, velocity=80, time=0),
    Message('note_off', channel=0, note=52, velocity=80, time=0),
    Message('note_on', channel=0, note=68, velocity=95, time=0),
    Message('note_on', channel=0, note=64, velocity=95, time=0),
    Message('note_on', channel=0, note=59, velocity=95, time=0),
    Message('note_on', channel=0, note=52, velocity=95, time=0),
    Message('note_off', channel=0, note=68, velocity=80, time=240),
    Message('note_off', channel=0, note=64, velocity=80, time=0),
    Message('note_off', channel=0, note=59, velocity=80, time=0),
    Message('note_off', channel=0, note=52, velocity=80, time=0),
    Message('note_on', channel=0, note=68, velocity=95, time=0),
    Message('note_on', channel=0, note=64, velocity=95, time=0),
    Message('note_on', channel=0, note=59, velocity=95, time=0),
    Message('note_on', channel=0, note=52, velocity=95, time=0),
    Message('note_off', channel=0, note=68, velocity=80, time=480),
    Message('note_off', channel=0, note=64, velocity=80, time=0),
    Message('note_off', channel=0, note=59, velocity=80, time=0),
    Message('note_off', channel=0, note=52, velocity=80, time=0),
    Message('note_on', channel=0, note=68, velocity=95, time=0),
    Message('note_on', channel=0, note=64, velocity=95, time=0),
    Message('note_on', channel=0, note=59, velocity=95, time=0),
    Message('note_on', channel=0, note=52, velocity=95, time=0),
    Message('note_off', channel=0, note=68, velocity=80, time=240),
    Message('note_off', channel=0, note=64, velocity=80, time=0),
    Message('note_off', channel=0, note=59, velocity=80, time=0),
    Message('note_off', channel=0, note=52, velocity=80, time=0),
    Message('note_on', channel=0, note=68, velocity=95, time=0),
    Message('note_on', channel=0, note=64, velocity=95, time=0),
    Message('note_on', channel=0, note=59, velocity=95, time=0),
    Message('note_on', channel=0, note=52, velocity=95, time=0),
    Message('note_off', channel=0, note=68, velocity=80, time=240),
    Message('note_off', channel=0, note=64, velocity=80, time=0),
    Message('note_off', channel=0, note=59, velocity=80, time=0),
    Message('note_off', channel=0, note=52, velocity=80, time=0),
    Message('note_on', channel=0, note=68, velocity=95, time=0),
    Message('note_on', channel=0, note=64, velocity=95, time=0),
    Message('note_on', channel=0, note=59, velocity=95, time=0),
    Message('note_on', channel=0, note=52, velocity=95, time=0),
    Message('note_off', channel=0, note=68, velocity=80, time=240),
    Message('note_off', channel=0, note=64, velocity=80, time=0),
    Message('note_off', channel=0, note=59, velocity=80, time=0),
    Message('note_off', channel=0, note=52, velocity=80, time=0),
    Message('note_on', channel=0, note=68, velocity=95, time=0),
    Message('note_on', channel=0, note=64, velocity=95, time=0),
    Message('note_on', channel=0, note=59, velocity=95, time=0),
    Message('note_on', channel=0, note=52, velocity=95, time=0),
    Message('note_off', channel=0, note=68, velocity=80, time=240),
    Message('note_off', channel=0, note=64, velocity=80, time=0),
    Message('note_off', channel=0, note=59, velocity=80, time=0),
    Message('note_off', channel=0, note=52, velocity=80, time=0),
    Message('note_on', channel=0, note=69, velocity=95, time=0),
    Message('note_on', channel=0, note=61, velocity=95, time=0),
    Message('note_on', channel=0, note=57, velocity=95, time=0),
    Message('note_on', channel=0, note=52, velocity=95, time=0),
    Message('note_on', channel=0, note=45, velocity=95, time=0),
    Message('note_off', channel=0, note=69, velocity=80, time=480),
    Message('note_off', channel=0, note=61, velocity=80, time=0),
    Message('note_off', channel=0, note=57, velocity=80, time=0),
    Message('note_off', channel=0, note=52, velocity=80, time=0),
    Message('note_off', channel=0, note=45, velocity=80, time=0),
    Message('note_on', channel=0, note=69, velocity=95, time=0),
    Message('note_on', channel=0, note=61, velocity=95, time=0),
    Message('note_on', channel=0, note=57, velocity=95, time=0),
    Message('note_on', channel=0, note=52, velocity=95, time=0),
    Message('note_on', channel=0, note=45, velocity=95, time=0),
    Message('note_off', channel=0, note=69, velocity=80, time=480),
    Message('note_off', channel=0, note=61, velocity=80, time=0),
    Message('note_off', channel=0, note=57, velocity=80, time=0),
    Message('note_off', channel=0, note=52, velocity=80, time=0),
    Message('note_off', channel=0, note=45, velocity=80, time=0),
    Message('note_on', channel=0, note=69, velocity=95, time=0),
    Message('note_on', channel=0, note=61, velocity=95, time=0),
    Message('note_on', channel=0, note=57, velocity=95, time=0),
    Message('note_on', channel=0, note=52, velocity=95, time=0),
    Message('note_on', channel=0, note=45, velocity=95, time=0),
    Message('note_off', channel=0, note=69, velocity=80, time=240),
    Message('note_off', channel=0, note=61, velocity=80, time=0),
    Message('note_off', channel=0, note=57, velocity=80, time=0),
    Message('note_off', channel=0, note=52, velocity=80, time=0),
    Message('note_off', channel=0, note=45, velocity=80, time=0),
    Message('note_on', channel=0, note=69, velocity=95, time=0),
    Message('note_on', channel=0, note=61, velocity=95, time=0),
    Message('note_on', channel=0, note=57, velocity=95, time=0),
    Message('note_on', channel=0, note=52, velocity=95, time=0),
    Message('note_on', channel=0, note=45, velocity=95, time=0),
    Message('note_off', channel=0, note=69, velocity=80, time=240),
    Message('note_off', channel=0, note=61, velocity=80, time=0),
    Message('note_off', channel=0, note=57, velocity=80, time=0),
    Message('note_off', channel=0, note=52, velocity=80, time=0),
    Message('note_off', channel=0, note=45, velocity=80, time=0),
    Message('note_on', channel=0, note=69, velocity=95, time=0),
    Message('note_on', channel=0, note=61, velocity=95, time=0),
    Message('note_on', channel=0, note=57, velocity=95, time=0),
    Message('note_on', channel=0, note=52, velocity=95, time=0),
    Message('note_on', channel=0, note=45, velocity=95, time=0),
    Message('note_off', channel=0, note=69, velocity=80, time=240),
    Message('note_off', channel=0, note=61, velocity=80, time=0),
    Message('note_off', channel=0, note=57, velocity=80, time=0),
    Message('note_off', channel=0, note=52, velocity=80, time=0),
    Message('note_off', channel=0, note=45, velocity=80, time=0),
    Message('note_on', channel=0, note=69, velocity=95, time=0),
    Message('note_on', channel=0, note=61, velocity=95, time=0),
    Message('note_on', channel=0, note=57, velocity=95, time=0),
    Message('note_on', channel=0, note=52, velocity=95, time=0),
    Message('note_on', channel=0, note=45, velocity=95, time=0),
    Message('note_off', channel=0, note=69, velocity=80, time=240),
    Message('note_off', channel=0, note=61, velocity=80, time=0),
    Message('note_off', channel=0, note=57, velocity=80, time=0),
    Message('note_off', channel=0, note=52, velocity=80, time=0),
    Message('note_off', channel=0, note=45, velocity=80, time=0),
    Message('note_on', channel=0, note=69, velocity=95, time=0),
    Message('note_on', channel=0, note=61, velocity=95, time=40),
    Message('note_on', channel=0, note=57, velocity=95, time=40),
    Message('note_on', channel=0, note=52, velocity=95, time=40),
    Message('note_on', channel=0, note=45, velocity=95, time=40),
    Message('note_off', channel=0, note=69, velocity=80, time=1760),
    Message('note_off', channel=0, note=61, velocity=80, time=0),
    Message('note_off', channel=0, note=57, velocity=80, time=0),
    Message('note_off', channel=0, note=52, velocity=80, time=0),
    Message('note_off', channel=0, note=45, velocity=80, time=0),
    Message('note_on', channel=0, note=45, velocity=95, time=0),
    Message('note_off', channel=0, note=45, velocity=80, time=240),
    Message('note_on', channel=0, note=52, velocity=95, time=0),
    Message('note_off', channel=0, note=52, velocity=80, time=240),
    Message('note_on', channel=0, note=57, velocity=95, time=0),
    Message('note_off', channel=0, note=57, velocity=80, time=240),
    Message('note_on', channel=0, note=61, velocity=95, time=0),
    Message('note_off', channel=0, note=61, velocity=80, time=480),
    Message('note_on', channel=0, note=52, velocity=95, time=0),
    Message('note_off', channel=0, note=52, velocity=80, time=240),
    Message('note_on', channel=0, note=57, velocity=95, time=0),
    Message('note_off', channel=0, note=57, velocity=80, time=240),
    Message('note_on', channel=0, note=52, velocity=95, time=0),
    Message('note_off', channel=0, note=52, velocity=80, time=240),
    Message('note_on', channel=0, note=46, velocity=95, time=0),
    Message('note_off', channel=0, note=46, velocity=80, time=240),
    Message('note_on', channel=0, note=55, velocity=95, time=0),
    Message('note_off', channel=0, note=55, velocity=80, time=240),
    Message('note_on', channel=0, note=61, velocity=95, time=0),
    Message('note_off', channel=0, note=61, velocity=80, time=240),
    Message('note_on', channel=0, note=64, velocity=95, time=0),
    Message('note_off', channel=0, note=64, velocity=80, time=480),
    Message('note_on', channel=0, note=55, velocity=95, time=0),
    Message('note_off', channel=0, note=55, velocity=80, time=240),
    Message('note_on', channel=0, note=61, velocity=95, time=0),
    Message('note_off', channel=0, note=61, velocity=80, time=240),
    Message('note_on', channel=0, note=64, velocity=95, time=0),
    Message('note_off', channel=0, note=64, velocity=80, time=240),
    Message('note_on', channel=0, note=47, velocity=95, time=0),
    Message('note_off', channel=0, note=47, velocity=80, time=240),
    Message('note_on', channel=0, note=54, velocity=95, time=0),
    Message('note_off', channel=0, note=54, velocity=80, time=240),
    Message('note_on', channel=0, note=59, velocity=95, time=0),
    Message('note_off', channel=0, note=59, velocity=80, time=240),
    Message('note_on', channel=0, note=62, velocity=95, time=0),
    Message('note_off', channel=0, note=62, velocity=80, time=480),
    Message('note_on', channel=0, note=54, velocity=95, time=0),
    Message('note_off', channel=0, note=54, velocity=80, time=240),
    Message('note_on', channel=0, note=59, velocity=95, time=0),
    Message('note_off', channel=0, note=59, velocity=80, time=240),
    Message('note_on', channel=0, note=62, velocity=95, time=0),
    Message('note_off', channel=0, note=62, velocity=80, time=240),
    Message('note_on', channel=0, note=47, velocity=95, time=0),
    Message('note_off', channel=0, note=47, velocity=80, time=240),
    Message('note_on', channel=0, note=54, velocity=95, time=0),
    Message('note_off', channel=0, note=54, velocity=80, time=240),
    Message('note_on', channel=0, note=59, velocity=95, time=0),
    Message('note_off', channel=0, note=59, velocity=80, time=240),
    Message('note_on', channel=0, note=62, velocity=95, time=0),
    Message('note_off', channel=0, note=62, velocity=80, time=480),
    Message('note_on', channel=0, note=54, velocity=95, time=0),
    Message('note_off', channel=0, note=54, velocity=80, time=240),
    Message('note_on', channel=0, note=59, velocity=95, time=0),
    Message('note_off', channel=0, note=59, velocity=80, time=240),
    Message('note_on', channel=0, note=62, velocity=95, time=0),
    Message('note_off', channel=0, note=62, velocity=80, time=240),
    Message('note_on', channel=0, note=52, velocity=95, time=0),
    Message('note_off', channel=0, note=52, velocity=80, time=240),
    Message('note_on', channel=0, note=59, velocity=95, time=0),
    Message('note_off', channel=0, note=59, velocity=80, time=240),
    Message('note_on', channel=0, note=64, velocity=95, time=0),
    Message('note_off', channel=0, note=64, velocity=80, time=240),
    Message('note_on', channel=0, note=68, velocity=95, time=0),
    Message('note_off', channel=0, note=68, velocity=80, time=480),
    Message('note_on', channel=0, note=59, velocity=95, time=0),
    Message('note_off', channel=0, note=59, velocity=80, time=240),
    Message('note_on', channel=0, note=64, velocity=95, time=0),
    Message('note_off', channel=0, note=64, velocity=80, time=240),
    Message('note_on', channel=0, note=68, velocity=95, time=0),
    Message('note_off', channel=0, note=68, velocity=80, time=240),
    Message('note_on', channel=0, note=52, velocity=95, time=0),
    Message('note_off', channel=0, note=52, velocity=80, time=240),
    Message('note_on', channel=0, note=59, velocity=95, time=0),
    Message('note_off', channel=0, note=59, velocity=80, time=240),
    Message('note_on', channel=0, note=64, velocity=95, time=0),
    Message('note_off', channel=0, note=64, velocity=80, time=240),
    Message('note_on', channel=0, note=68, velocity=95, time=0),
    Message('note_off', channel=0, note=68, velocity=80, time=480),
    Message('note_on', channel=0, note=59, velocity=95, time=0),
    Message('note_off', channel=0, note=59, velocity=80, time=240),
    Message('note_on', channel=0, note=64, velocity=95, time=0),
    Message('note_off', channel=0, note=64, velocity=80, time=240),
    Message('note_on', channel=0, note=68, velocity=95, time=0),
    Message('note_off', channel=0, note=68, velocity=80, time=240),
    Message('note_on', channel=0, note=45, velocity=95, time=0),
    Message('note_off', channel=0, note=45, velocity=80, time=240),
    Message('note_on', channel=0, note=52, velocity=95, time=0),
    Message('note_off', channel=0, note=52, velocity=80, time=240),
    Message('note_on', channel=0, note=57, velocity=95, time=0),
    Message('note_off', channel=0, note=57, velocity=80, time=240),
    Message('note_on', channel=0, note=61, velocity=95, time=0),
    Message('note_off', channel=0, note=61, velocity=80, time=480),
    Message('note_on', channel=0, note=69, velocity=95, time=0),
    Message('note_off', channel=0, note=69, velocity=80, time=480),
    Message('note_on', channel=0, note=52, velocity=95, time=0),
    Message('note_off', channel=0, note=52, velocity=80, time=240),
    Message('note_on', channel=0, note=45, velocity=95, time=0),
    Message('note_off', channel=0, note=45, velocity=80, time=240),
    Message('note_on', channel=0, note=52, velocity=95, time=0),
    Message('note_off', channel=0, note=52, velocity=80, time=240),
    Message('note_on', channel=0, note=57, velocity=95, time=0),
    Message('note_off', channel=0, note=57, velocity=80, time=240),
    Message('note_on', channel=0, note=61, velocity=95, time=0),
    Message('note_off', channel=0, note=61, velocity=80, time=480),
    Message('note_on', channel=0, note=69, velocity=95, time=0),
    Message('note_off', channel=0, note=69, velocity=80, time=480),
    Message('note_on', channel=0, note=52, velocity=95, time=0),
    Message('note_off', channel=0, note=52, velocity=80, time=240),
    Message('note_on', channel=0, note=45, velocity=95, time=0),
    Message('note_off', channel=0, note=45, velocity=80, time=240),
    Message('note_on', channel=0, note=52, velocity=95, time=0),
    Message('note_off', channel=0, note=52, velocity=80, time=240),
    Message('note_on', channel=0, note=57, velocity=95, time=0),
    Message('note_off', channel=0, note=57, velocity=80, time=240),
    Message('note_on', channel=0, note=61, velocity=95, time=0),
    Message('note_off', channel=0, note=61, velocity=80, time=480),
    Message('note_on', channel=0, note=52, velocity=95, time=0),
    Message('note_off', channel=0, note=52, velocity=80, time=240),
    Message('note_on', channel=0, note=57, velocity=95, time=0),
    Message('note_off', channel=0, note=57, velocity=80, time=240),
    Message('note_on', channel=0, note=52, velocity=95, time=0),
    Message('note_off', channel=0, note=52, velocity=80, time=240),
    Message('note_on', channel=0, note=46, velocity=95, time=0),
    Message('note_off', channel=0, note=46, velocity=80, time=240),
    Message('note_on', channel=0, note=55, velocity=95, time=0),
    Message('note_off', channel=0, note=55, velocity=80, time=240),
    Message('note_on', channel=0, note=61, velocity=95, time=0),
    Message('note_off', channel=0, note=61, velocity=80, time=240),
    Message('note_on', channel=0, note=64, velocity=95, time=0),
    Message('note_off', channel=0, note=64, velocity=80, time=480),
    Message('note_on', channel=0, note=55, velocity=95, time=0),
    Message('note_off', channel=0, note=55, velocity=80, time=240),
    Message('note_on', channel=0, note=61, velocity=95, time=0),
    Message('note_off', channel=0, note=61, velocity=80, time=240),
    Message('note_on', channel=0, note=64, velocity=95, time=0),
    Message('note_off', channel=0, note=64, velocity=80, time=240),
    Message('note_on', channel=0, note=47, velocity=95, time=0),
    Message('note_off', channel=0, note=47, velocity=80, time=240),
    Message('note_on', channel=0, note=54, velocity=95, time=0),
    Message('note_off', channel=0, note=54, velocity=80, time=240),
    Message('note_on', channel=0, note=59, velocity=95, time=0),
    Message('note_off', channel=0, note=59, velocity=80, time=240),
    Message('note_on', channel=0, note=62, velocity=95, time=0),
    Message('note_off', channel=0, note=62, velocity=80, time=480),
    Message('note_on', channel=0, note=54, velocity=95, time=0),
    Message('note_off', channel=0, note=54, velocity=80, time=240),
    Message('note_on', channel=0, note=59, velocity=95, time=0),
    Message('note_off', channel=0, note=59, velocity=80, time=480),
    Message('note_on', channel=0, note=50, velocity=95, time=0),
    Message('note_off', channel=0, note=50, velocity=80, time=240),
    Message('note_on', channel=0, note=57, velocity=95, time=0),
    Message('note_off', channel=0, note=57, velocity=80, time=240),
    Message('note_on', channel=0, note=62, velocity=95, time=0),
    Message('note_off', channel=0, note=62, velocity=80, time=240),
    Message('note_on', channel=0, note=65, velocity=95, time=0),
    Message('note_off', channel=0, note=65, velocity=80, time=480),
    Message('note_on', channel=0, note=57, velocity=95, time=0),
    Message('note_off', channel=0, note=57, velocity=80, time=240),
    Message('note_on', channel=0, note=62, velocity=95, time=0),
    Message('note_off', channel=0, note=62, velocity=80, time=480),
    Message('note_on', channel=0, note=52, velocity=95, time=0),
    Message('note_off', channel=0, note=52, velocity=80, time=240),
    Message('note_on', channel=0, note=59, velocity=95, time=0),
    Message('note_off', channel=0, note=59, velocity=80, time=240),
    Message('note_on', channel=0, note=64, velocity=95, time=0),
    Message('note_off', channel=0, note=64, velocity=80, time=240),
    Message('note_on', channel=0, note=68, velocity=95, time=0),
    Message('note_off', channel=0, note=68, velocity=80, time=480),
    Message('note_on', channel=0, note=59, velocity=95, time=0),
    Message('note_off', channel=0, note=59, velocity=80, time=240),
    Message('note_on', channel=0, note=66, velocity=95, time=0),
    Message('note_off', channel=0, note=66, velocity=80, time=240),
    Message('note_on', channel=0, note=64, velocity=95, time=0),
    Message('note_on', channel=0, note=59, velocity=95, time=0),
    Message('note_off', channel=0, note=64, velocity=80, time=480),
    Message('note_off', channel=0, note=59, velocity=80, time=0),
    Message('note_on', channel=0, note=64, velocity=95, time=0),
    Message('note_on', channel=0, note=59, velocity=95, time=0),
    Message('note_on', channel=0, note=52, velocity=95, time=0),
    Message('note_off', channel=0, note=64, velocity=80, time=240),
    Message('note_off', channel=0, note=59, velocity=80, time=0),
    Message('note_off', channel=0, note=52, velocity=80, time=0),
    Message('note_on', channel=0, note=64, velocity=95, time=0),
    Message('note_on', channel=0, note=59, velocity=95, time=0),
    Message('note_on', channel=0, note=52, velocity=95, time=0),
    Message('note_off', channel=0, note=64, velocity=80, time=240),
    Message('note_off', channel=0, note=59, velocity=80, time=0),
    Message('note_off', channel=0, note=52, velocity=80, time=0),
    Message('note_on', channel=0, note=64, velocity=95, time=0),
    Message('note_on', channel=0, note=59, velocity=95, time=0),
    Message('note_on', channel=0, note=52, velocity=95, time=0),
    Message('note_off', channel=0, note=64, velocity=80, time=240),
    Message('note_off', channel=0, note=59, velocity=80, time=0),
    Message('note_off', channel=0, note=52, velocity=80, time=0),
    Message('note_on', channel=0, note=68, velocity=95, time=0),
    Message('note_on', channel=0, note=64, velocity=95, time=0),
    Message('note_on', channel=0, note=59, velocity=95, time=0),
    Message('note_on', channel=0, note=52, velocity=95, time=0),
    Message('note_off', channel=0, note=68, velocity=80, time=240),
    Message('note_off', channel=0, note=64, velocity=80, time=0),
    Message('note_off', channel=0, note=59, velocity=80, time=0),
    Message('note_off', channel=0, note=52, velocity=80, time=0),
    Message('note_on', channel=0, note=68, velocity=95, time=0),
    Message('note_on', channel=0, note=64, velocity=95, time=0),
    Message('note_on', channel=0, note=59, velocity=95, time=0),
    Message('note_on', channel=0, note=52, velocity=95, time=0),
    Message('note_off', channel=0, note=68, velocity=80, time=240),
    Message('note_off', channel=0, note=64, velocity=80, time=0),
    Message('note_off', channel=0, note=59, velocity=80, time=0),
    Message('note_off', channel=0, note=52, velocity=80, time=0),
    Message('note_on', channel=0, note=68, velocity=95, time=0),
    Message('note_on', channel=0, note=64, velocity=95, time=0),
    Message('note_on', channel=0, note=59, velocity=95, time=0),
    Message('note_on', channel=0, note=52, velocity=95, time=0),
    Message('note_off', channel=0, note=68, velocity=80, time=240),
    Message('note_off', channel=0, note=64, velocity=80, time=0),
    Message('note_off', channel=0, note=59, velocity=80, time=0),
    Message('note_off', channel=0, note=52, velocity=80, time=0),
    Message('note_on', channel=0, note=68, velocity=95, time=0),
    Message('note_on', channel=0, note=64, velocity=95, time=0),
    Message('note_on', channel=0, note=59, velocity=95, time=0),
    Message('note_on', channel=0, note=52, velocity=95, time=0),
    Message('note_off', channel=0, note=68, velocity=80, time=240),
    Message('note_off', channel=0, note=64, velocity=80, time=0),
    Message('note_off', channel=0, note=59, velocity=80, time=0),
    Message('note_off', channel=0, note=52, velocity=80, time=0),
    Message('note_on', channel=0, note=68, velocity=95, time=0),
    Message('note_on', channel=0, note=64, velocity=95, time=0),
    Message('note_on', channel=0, note=59, velocity=95, time=0),
    Message('note_on', channel=0, note=52, velocity=95, time=0),
    Message('note_off', channel=0, note=68, velocity=80, time=240),
    Message('note_off', channel=0, note=64, velocity=80, time=0),
    Message('note_off', channel=0, note=59, velocity=80, time=0),
    Message('note_off', channel=0, note=52, velocity=80, time=0),
    Message('note_on', channel=0, note=68, velocity=95, time=0),
    Message('note_on', channel=0, note=64, velocity=95, time=0),
    Message('note_on', channel=0, note=59, velocity=95, time=0),
    Message('note_on', channel=0, note=52, velocity=95, time=0),
    Message('note_off', channel=0, note=68, velocity=80, time=240),
    Message('note_off', channel=0, note=64, velocity=80, time=0),
    Message('note_off', channel=0, note=59, velocity=80, time=0),
    Message('note_off', channel=0, note=52, velocity=80, time=0),
    Message('note_on', channel=0, note=68, velocity=95, time=0),
    Message('note_on', channel=0, note=64, velocity=95, time=0),
    Message('note_on', channel=0, note=59, velocity=95, time=0),
    Message('note_on', channel=0, note=52, velocity=95, time=0),
    Message('note_off', channel=0, note=68, velocity=80, time=240),
    Message('note_off', channel=0, note=64, velocity=80, time=0),
    Message('note_off', channel=0, note=59, velocity=80, time=0),
    Message('note_off', channel=0, note=52, velocity=80, time=0),
    Message('note_on', channel=0, note=68, velocity=95, time=0),
    Message('note_on', channel=0, note=64, velocity=95, time=0),
    Message('note_on', channel=0, note=59, velocity=95, time=0),
    Message('note_on', channel=0, note=52, velocity=95, time=0),
    Message('note_off', channel=0, note=68, velocity=80, time=240),
    Message('note_off', channel=0, note=64, velocity=80, time=0),
    Message('note_off', channel=0, note=59, velocity=80, time=0),
    Message('note_off', channel=0, note=52, velocity=80, time=0),
    Message('note_on', channel=0, note=68, velocity=95, time=0),
    Message('note_on', channel=0, note=64, velocity=95, time=0),
    Message('note_on', channel=0, note=59, velocity=95, time=0),
    Message('note_on', channel=0, note=52, velocity=95, time=0),
    Message('note_off', channel=0, note=68, velocity=80, time=240),
    Message('note_off', channel=0, note=64, velocity=80, time=0),
    Message('note_off', channel=0, note=59, velocity=80, time=0),
    Message('note_off', channel=0, note=52, velocity=80, time=0),
    Message('note_on', channel=0, note=68, velocity=95, time=0),
    Message('note_on', channel=0, note=64, velocity=95, time=0),
    Message('note_on', channel=0, note=59, velocity=95, time=0),
    Message('note_on', channel=0, note=52, velocity=95, time=0),
    Message('note_off', channel=0, note=68, velocity=80, time=240),
    Message('note_off', channel=0, note=64, velocity=80, time=0),
    Message('note_off', channel=0, note=59, velocity=80, time=0),
    Message('note_off', channel=0, note=52, velocity=80, time=0),
    Message('note_on', channel=0, note=68, velocity=95, time=0),
    Message('note_on', channel=0, note=64, velocity=95, time=0),
    Message('note_on', channel=0, note=59, velocity=95, time=0),
    Message('note_on', channel=0, note=52, velocity=95, time=0),
    Message('note_off', channel=0, note=68, velocity=80, time=240),
    Message('note_off', channel=0, note=64, velocity=80, time=0),
    Message('note_off', channel=0, note=59, velocity=80, time=0),
    Message('note_off', channel=0, note=52, velocity=80, time=0),
    Message('note_on', channel=0, note=68, velocity=95, time=0),
    Message('note_on', channel=0, note=64, velocity=95, time=0),
    Message('note_on', channel=0, note=59, velocity=95, time=0),
    Message('note_on', channel=0, note=52, velocity=95, time=0),
    Message('note_off', channel=0, note=68, velocity=80, time=240),
    Message('note_off', channel=0, note=64, velocity=80, time=0),
    Message('note_off', channel=0, note=59, velocity=80, time=0),
    Message('note_off', channel=0, note=52, velocity=80, time=0),
    Message('note_on', channel=0, note=68, velocity=95, time=0),
    Message('note_on', channel=0, note=64, velocity=95, time=0),
    Message('note_on', channel=0, note=59, velocity=95, time=0),
    Message('note_on', channel=0, note=52, velocity=95, time=0),
    Message('note_off', channel=0, note=68, velocity=80, time=240),
    Message('note_off', channel=0, note=64, velocity=80, time=0),
    Message('note_off', channel=0, note=59, velocity=80, time=0),
    Message('note_off', channel=0, note=52, velocity=80, time=0),
    Message('note_on', channel=0, note=68, velocity=95, time=0),
    Message('note_on', channel=0, note=64, velocity=95, time=0),
    Message('note_on', channel=0, note=59, velocity=95, time=0),
    Message('note_on', channel=0, note=52, velocity=95, time=0),
    Message('note_off', channel=0, note=68, velocity=80, time=240),
    Message('note_off', channel=0, note=64, velocity=80, time=0),
    Message('note_off', channel=0, note=59, velocity=80, time=0),
    Message('note_off', channel=0, note=52, velocity=80, time=0),
    Message('note_on', channel=0, note=68, velocity=95, time=0),
    Message('note_on', channel=0, note=64, velocity=95, time=0),
    Message('note_on', channel=0, note=59, velocity=95, time=0),
    Message('note_on', channel=0, note=52, velocity=95, time=0),
    Message('note_off', channel=0, note=68, velocity=80, time=240),
    Message('note_off', channel=0, note=64, velocity=80, time=0),
    Message('note_off', channel=0, note=59, velocity=80, time=0),
    Message('note_off', channel=0, note=52, velocity=80, time=0),
    Message('note_on', channel=0, note=68, velocity=95, time=0),
    Message('note_on', channel=0, note=64, velocity=95, time=0),
    Message('note_on', channel=0, note=59, velocity=95, time=0),
    Message('note_on', channel=0, note=52, velocity=95, time=0),
    Message('note_off', channel=0, note=68, velocity=80, time=240),
    Message('note_off', channel=0, note=64, velocity=80, time=0),
    Message('note_off', channel=0, note=59, velocity=80, time=0),
    Message('note_off', channel=0, note=52, velocity=80, time=0),
    Message('note_on', channel=0, note=68, velocity=95, time=0),
    Message('note_on', channel=0, note=64, velocity=95, time=0),
    Message('note_on', channel=0, note=59, velocity=95, time=0),
    Message('note_on', channel=0, note=52, velocity=95, time=0),
    Message('note_off', channel=0, note=68, velocity=80, time=240),
    Message('note_off', channel=0, note=64, velocity=80, time=0),
    Message('note_off', channel=0, note=59, velocity=80, time=0),
    Message('note_off', channel=0, note=52, velocity=80, time=0),
    Message('note_on', channel=0, note=68, velocity=95, time=0),
    Message('note_on', channel=0, note=64, velocity=95, time=0),
    Message('note_on', channel=0, note=59, velocity=95, time=0),
    Message('note_on', channel=0, note=52, velocity=95, time=0),
    Message('note_off', channel=0, note=68, velocity=80, time=240),
    Message('note_off', channel=0, note=64, velocity=80, time=0),
    Message('note_off', channel=0, note=59, velocity=80, time=0),
    Message('note_off', channel=0, note=52, velocity=80, time=0),
    Message('note_on', channel=0, note=68, velocity=95, time=0),
    Message('note_on', channel=0, note=64, velocity=95, time=0),
    Message('note_on', channel=0, note=59, velocity=95, time=0),
    Message('note_on', channel=0, note=52, velocity=95, time=0),
    Message('note_off', channel=0, note=68, velocity=80, time=240),
    Message('note_off', channel=0, note=64, velocity=80, time=0),
    Message('note_off', channel=0, note=59, velocity=80, time=0),
    Message('note_off', channel=0, note=52, velocity=80, time=0),
    Message('note_on', channel=0, note=68, velocity=95, time=0),
    Message('note_on', channel=0, note=64, velocity=95, time=0),
    Message('note_on', channel=0, note=59, velocity=95, time=0),
    Message('note_on', channel=0, note=52, velocity=95, time=0),
    Message('note_off', channel=0, note=68, velocity=80, time=240),
    Message('note_off', channel=0, note=64, velocity=80, time=0),
    Message('note_off', channel=0, note=59, velocity=80, time=0),
    Message('note_off', channel=0, note=52, velocity=80, time=0),
    Message('note_on', channel=0, note=69, velocity=95, time=0),
    Message('note_on', channel=0, note=61, velocity=95, time=0),
    Message('note_on', channel=0, note=57, velocity=95, time=0),
    Message('note_on', channel=0, note=52, velocity=95, time=0),
    Message('note_on', channel=0, note=45, velocity=95, time=0),
    Message('note_off', channel=0, note=69, velocity=80, time=480),
    Message('note_off', channel=0, note=61, velocity=80, time=0),
    Message('note_off', channel=0, note=57, velocity=80, time=0),
    Message('note_off', channel=0, note=52, velocity=80, time=0),
    Message('note_off', channel=0, note=45, velocity=80, time=0),
    Message('note_on', channel=0, note=69, velocity=95, time=0),
    Message('note_on', channel=0, note=61, velocity=95, time=0),
    Message('note_on', channel=0, note=57, velocity=95, time=0),
    Message('note_on', channel=0, note=52, velocity=95, time=0),
    Message('note_on', channel=0, note=45, velocity=95, time=0),
    Message('note_off', channel=0, note=69, velocity=80, time=480),
    Message('note_off', channel=0, note=61, velocity=80, time=0),
    Message('note_off', channel=0, note=57, velocity=80, time=0),
    Message('note_off', channel=0, note=52, velocity=80, time=0),
    Message('note_off', channel=0, note=45, velocity=80, time=0),
    Message('note_on', channel=0, note=69, velocity=95, time=0),
    Message('note_on', channel=0, note=61, velocity=95, time=0),
    Message('note_on', channel=0, note=57, velocity=95, time=0),
    Message('note_on', channel=0, note=52, velocity=95, time=0),
    Message('note_on', channel=0, note=45, velocity=95, time=0),
    Message('note_off', channel=0, note=69, velocity=80, time=240),
    Message('note_off', channel=0, note=61, velocity=80, time=0),
    Message('note_off', channel=0, note=57, velocity=80, time=0),
    Message('note_off', channel=0, note=52, velocity=80, time=0),
    Message('note_off', channel=0, note=45, velocity=80, time=0),
    Message('note_on', channel=0, note=69, velocity=95, time=0),
    Message('note_on', channel=0, note=61, velocity=95, time=0),
    Message('note_on', channel=0, note=57, velocity=95, time=0),
    Message('note_on', channel=0, note=52, velocity=95, time=0),
    Message('note_on', channel=0, note=45, velocity=95, time=0),
    Message('note_off', channel=0, note=69, velocity=80, time=240),
    Message('note_off', channel=0, note=61, velocity=80, time=0),
    Message('note_off', channel=0, note=57, velocity=80, time=0),
    Message('note_off', channel=0, note=52, velocity=80, time=0),
    Message('note_off', channel=0, note=45, velocity=80, time=0),
    Message('note_on', channel=0, note=69, velocity=95, time=0),
    Message('note_on', channel=0, note=61, velocity=95, time=0),
    Message('note_on', channel=0, note=57, velocity=95, time=0),
    Message('note_on', channel=0, note=52, velocity=95, time=0),
    Message('note_on', channel=0, note=45, velocity=95, time=0),
    Message('note_off', channel=0, note=69, velocity=80, time=480),
    Message('note_off', channel=0, note=61, velocity=80, time=0),
    Message('note_off', channel=0, note=57, velocity=80, time=0),
    Message('note_off', channel=0, note=52, velocity=80, time=0),
    Message('note_off', channel=0, note=45, velocity=80, time=0),
    Message('note_on', channel=0, note=69, velocity=95, time=0),
    Message('note_on', channel=0, note=61, velocity=95, time=0),
    Message('note_on', channel=0, note=57, velocity=95, time=0),
    Message('note_on', channel=0, note=52, velocity=95, time=0),
    Message('note_on', channel=0, note=45, velocity=95, time=0),
    Message('note_off', channel=0, note=69, velocity=80, time=240),
    Message('note_off', channel=0, note=61, velocity=80, time=0),
    Message('note_off', channel=0, note=57, velocity=80, time=0),
    Message('note_off', channel=0, note=52, velocity=80, time=0),
    Message('note_off', channel=0, note=45, velocity=80, time=0),
    Message('note_on', channel=0, note=69, velocity=95, time=0),
    Message('note_on', channel=0, note=61, velocity=95, time=0),
    Message('note_on', channel=0, note=57, velocity=95, time=0),
    Message('note_on', channel=0, note=52, velocity=95, time=0),
    Message('note_on', channel=0, note=45, velocity=95, time=0),
    Message('note_off', channel=0, note=69, velocity=80, time=240),
    Message('note_off', channel=0, note=61, velocity=80, time=0),
    Message('note_off', channel=0, note=57, velocity=80, time=0),
    Message('note_off', channel=0, note=52, velocity=80, time=0),
    Message('note_off', channel=0, note=45, velocity=80, time=0),
    Message('note_on', channel=0, note=69, velocity=95, time=0),
    Message('note_on', channel=0, note=61, velocity=95, time=0),
    Message('note_on', channel=0, note=57, velocity=95, time=0),
    Message('note_on', channel=0, note=52, velocity=95, time=0),
    Message('note_on', channel=0, note=45, velocity=95, time=0),
    Message('note_off', channel=0, note=69, velocity=80, time=480),
    Message('note_off', channel=0, note=61, velocity=80, time=0),
    Message('note_off', channel=0, note=57, velocity=80, time=0),
    Message('note_off', channel=0, note=52, velocity=80, time=0),
    Message('note_off', channel=0, note=45, velocity=80, time=0),
    Message('note_on', channel=0, note=69, velocity=95, time=0),
    Message('note_on', channel=0, note=61, velocity=95, time=0),
    Message('note_on', channel=0, note=57, velocity=95, time=0),
    Message('note_on', channel=0, note=52, velocity=95, time=0),
    Message('note_on', channel=0, note=45, velocity=95, time=0),
    Message('note_off', channel=0, note=69, velocity=80, time=240),
    Message('note_off', channel=0, note=61, velocity=80, time=0),
    Message('note_off', channel=0, note=57, velocity=80, time=0),
    Message('note_off', channel=0, note=52, velocity=80, time=0),
    Message('note_off', channel=0, note=45, velocity=80, time=0),
    Message('note_on', channel=0, note=69, velocity=95, time=0),
    Message('note_on', channel=0, note=61, velocity=95, time=0),
    Message('note_on', channel=0, note=57, velocity=95, time=0),
    Message('note_on', channel=0, note=52, velocity=95, time=0),
    Message('note_on', channel=0, note=45, velocity=95, time=0),
    Message('note_off', channel=0, note=69, velocity=80, time=240),
    Message('note_off', channel=0, note=61, velocity=80, time=0),
    Message('note_off', channel=0, note=57, velocity=80, time=0),
    Message('note_off', channel=0, note=52, velocity=80, time=0),
    Message('note_off', channel=0, note=45, velocity=80, time=0),
    Message('note_on', channel=0, note=69, velocity=95, time=0),
    Message('note_on', channel=0, note=61, velocity=95, time=0),
    Message('note_on', channel=0, note=57, velocity=95, time=0),
    Message('note_on', channel=0, note=52, velocity=95, time=0),
    Message('note_on', channel=0, note=45, velocity=95, time=0),
    Message('note_off', channel=0, note=69, velocity=80, time=240),
    Message('note_off', channel=0, note=61, velocity=80, time=0),
    Message('note_off', channel=0, note=57, velocity=80, time=0),
    Message('note_off', channel=0, note=52, velocity=80, time=0),
    Message('note_off', channel=0, note=45, velocity=80, time=0),
    Message('note_on', channel=0, note=69, velocity=95, time=0),
    Message('note_on', channel=0, note=61, velocity=95, time=0),
    Message('note_on', channel=0, note=57, velocity=95, time=0),
    Message('note_on', channel=0, note=52, velocity=95, time=0),
    Message('note_on', channel=0, note=45, velocity=95, time=0),
    Message('note_off', channel=0, note=69, velocity=80, time=240),
    Message('note_off', channel=0, note=61, velocity=80, time=0),
    Message('note_off', channel=0, note=57, velocity=80, time=0),
    Message('note_off', channel=0, note=52, velocity=80, time=0),
    Message('note_off', channel=0, note=45, velocity=80, time=0),
    Message('note_on', channel=0, note=69, velocity=95, time=0),
    Message('note_on', channel=0, note=61, velocity=95, time=0),
    Message('note_on', channel=0, note=57, velocity=95, time=0),
    Message('note_on', channel=0, note=52, velocity=95, time=0),
    Message('note_on', channel=0, note=45, velocity=95, time=0),
    Message('note_off', channel=0, note=69, velocity=80, time=480),
    Message('note_off', channel=0, note=61, velocity=80, time=0),
    Message('note_off', channel=0, note=57, velocity=80, time=0),
    Message('note_off', channel=0, note=52, velocity=80, time=0),
    Message('note_off', channel=0, note=45, velocity=80, time=0),
    Message('note_on', channel=0, note=69, velocity=95, time=0),
    Message('note_on', channel=0, note=61, velocity=95, time=0),
    Message('note_on', channel=0, note=57, velocity=95, time=0),
    Message('note_on', channel=0, note=52, velocity=95, time=0),
    Message('note_on', channel=0, note=45, velocity=95, time=0),
    Message('note_off', channel=0, note=69, velocity=80, time=480),
    Message('note_off', channel=0, note=61, velocity=80, time=0),
    Message('note_off', channel=0, note=57, velocity=80, time=0),
    Message('note_off', channel=0, note=52, velocity=80, time=0),
    Message('note_off', channel=0, note=45, velocity=80, time=0),
    Message('note_on', channel=0, note=69, velocity=95, time=0),
    Message('note_on', channel=0, note=61, velocity=95, time=0),
    Message('note_on', channel=0, note=57, velocity=95, time=0),
    Message('note_on', channel=0, note=52, velocity=95, time=0),
    Message('note_on', channel=0, note=45, velocity=95, time=0),
    Message('note_off', channel=0, note=69, velocity=80, time=240),
    Message('note_off', channel=0, note=61, velocity=80, time=0),
    Message('note_off', channel=0, note=57, velocity=80, time=0),
    Message('note_off', channel=0, note=52, velocity=80, time=0),
    Message('note_off', channel=0, note=45, velocity=80, time=0),
    Message('note_on', channel=0, note=69, velocity=95, time=0),
    Message('note_on', channel=0, note=61, velocity=95, time=0),
    Message('note_on', channel=0, note=57, velocity=95, time=0),
    Message('note_on', channel=0, note=52, velocity=95, time=0),
    Message('note_on', channel=0, note=45, velocity=95, time=0),
    Message('note_off', channel=0, note=69, velocity=80, time=240),
    Message('note_off', channel=0, note=61, velocity=80, time=0),
    Message('note_off', channel=0, note=57, velocity=80, time=0),
    Message('note_off', channel=0, note=52, velocity=80, time=0),
    Message('note_off', channel=0, note=45, velocity=80, time=0),
    Message('note_on', channel=0, note=69, velocity=95, time=0),
    Message('note_on', channel=0, note=61, velocity=95, time=0),
    Message('note_on', channel=0, note=57, velocity=95, time=0),
    Message('note_on', channel=0, note=52, velocity=95, time=0),
    Message('note_on', channel=0, note=45, velocity=95, time=0),
    Message('note_off', channel=0, note=69, velocity=80, time=480),
    Message('note_off', channel=0, note=61, velocity=80, time=0),
    Message('note_off', channel=0, note=57, velocity=80, time=0),
    Message('note_off', channel=0, note=52, velocity=80, time=0),
    Message('note_off', channel=0, note=45, velocity=80, time=0),
    Message('note_on', channel=0, note=69, velocity=95, time=0),
    Message('note_on', channel=0, note=61, velocity=95, time=0),
    Message('note_on', channel=0, note=57, velocity=95, time=0),
    Message('note_on', channel=0, note=52, velocity=95, time=0),
    Message('note_on', channel=0, note=45, velocity=95, time=0),
    Message('note_off', channel=0, note=69, velocity=80, time=480),
    Message('note_off', channel=0, note=61, velocity=80, time=0),
    Message('note_off', channel=0, note=57, velocity=80, time=0),
    Message('note_off', channel=0, note=52, velocity=80, time=0),
    Message('note_off', channel=0, note=45, velocity=80, time=0),
    Message('note_on', channel=0, note=69, velocity=95, time=0),
    Message('note_on', channel=0, note=61, velocity=95, time=0),
    Message('note_on', channel=0, note=57, velocity=95, time=0),
    Message('note_on', channel=0, note=52, velocity=95, time=0),
    Message('note_on', channel=0, note=45, velocity=95, time=0),
    Message('note_off', channel=0, note=69, velocity=80, time=480),
    Message('note_off', channel=0, note=61, velocity=80, time=0),
    Message('note_off', channel=0, note=57, velocity=80, time=0),
    Message('note_off', channel=0, note=52, velocity=80, time=0),
    Message('note_off', channel=0, note=45, velocity=80, time=0),
    Message('note_on', channel=0, note=69, velocity=95, time=0),
    Message('note_on', channel=0, note=61, velocity=95, time=0),
    Message('note_on', channel=0, note=57, velocity=95, time=0),
    Message('note_on', channel=0, note=52, velocity=95, time=0),
    Message('note_on', channel=0, note=45, velocity=95, time=0),
    Message('note_off', channel=0, note=69, velocity=80, time=240),
    Message('note_off', channel=0, note=61, velocity=80, time=0),
    Message('note_off', channel=0, note=57, velocity=80, time=0),
    Message('note_off', channel=0, note=52, velocity=80, time=0),
    Message('note_off', channel=0, note=45, velocity=80, time=0),
    Message('note_on', channel=0, note=69, velocity=95, time=0),
    Message('note_on', channel=0, note=61, velocity=95, time=0),
    Message('note_on', channel=0, note=57, velocity=95, time=0),
    Message('note_on', channel=0, note=52, velocity=95, time=0),
    Message('note_on', channel=0, note=45, velocity=95, time=0),
    Message('note_off', channel=0, note=69, velocity=80, time=240),
    Message('note_off', channel=0, note=61, velocity=80, time=0),
    Message('note_off', channel=0, note=57, velocity=80, time=0),
    Message('note_off', channel=0, note=52, velocity=80, time=0),
    Message('note_off', channel=0, note=45, velocity=80, time=0),
    Message('note_on', channel=0, note=69, velocity=95, time=0),
    Message('note_on', channel=0, note=61, velocity=95, time=0),
    Message('note_on', channel=0, note=57, velocity=95, time=0),
    Message('note_on', channel=0, note=52, velocity=95, time=0),
    Message('note_on', channel=0, note=45, velocity=95, time=0),
    Message('note_off', channel=0, note=69, velocity=80, time=240),
    Message('note_off', channel=0, note=61, velocity=80, time=0),
    Message('note_off', channel=0, note=57, velocity=80, time=0),
    Message('note_off', channel=0, note=52, velocity=80, time=0),
    Message('note_off', channel=0, note=45, velocity=80, time=0),
    Message('note_on', channel=0, note=69, velocity=95, time=0),
    Message('note_on', channel=0, note=61, velocity=95, time=0),
    Message('note_on', channel=0, note=57, velocity=95, time=0),
    Message('note_on', channel=0, note=52, velocity=95, time=0),
    Message('note_on', channel=0, note=45, velocity=95, time=0),
    Message('note_off', channel=0, note=69, velocity=80, time=240),
    Message('note_off', channel=0, note=61, velocity=80, time=0),
    Message('note_off', channel=0, note=57, velocity=80, time=0),
    Message('note_off', channel=0, note=52, velocity=80, time=0),
    Message('note_off', channel=0, note=45, velocity=80, time=0),
    Message('note_on', channel=0, note=69, velocity=95, time=0),
    Message('note_on', channel=0, note=62, velocity=95, time=0),
    Message('note_on', channel=0, note=57, velocity=95, time=0),
    Message('note_on', channel=0, note=54, velocity=95, time=0),
    Message('note_on', channel=0, note=47, velocity=95, time=0),
    Message('note_off', channel=0, note=69, velocity=80, time=480),
    Message('note_off', channel=0, note=62, velocity=80, time=0),
    Message('note_off', channel=0, note=57, velocity=80, time=0),
    Message('note_off', channel=0, note=54, velocity=80, time=0),
    Message('note_off', channel=0, note=47, velocity=80, time=0),
    Message('note_on', channel=0, note=69, velocity=95, time=0),
    Message('note_on', channel=0, note=62, velocity=95, time=0),
    Message('note_on', channel=0, note=57, velocity=95, time=0),
    Message('note_on', channel=0, note=54, velocity=95, time=0),
    Message('note_on', channel=0, note=47, velocity=95, time=0),
    Message('note_off', channel=0, note=69, velocity=80, time=480),
    Message('note_off', channel=0, note=62, velocity=80, time=0),
    Message('note_off', channel=0, note=57, velocity=80, time=0),
    Message('note_off', channel=0, note=54, velocity=80, time=0),
    Message('note_off', channel=0, note=47, velocity=80, time=0),
    Message('note_on', channel=0, note=69, velocity=95, time=0),
    Message('note_on', channel=0, note=62, velocity=95, time=0),
    Message('note_on', channel=0, note=57, velocity=95, time=0),
    Message('note_on', channel=0, note=54, velocity=95, time=0),
    Message('note_on', channel=0, note=47, velocity=95, time=0),
    Message('note_off', channel=0, note=69, velocity=80, time=240),
    Message('note_off', channel=0, note=62, velocity=80, time=0),
    Message('note_off', channel=0, note=57, velocity=80, time=0),
    Message('note_off', channel=0, note=54, velocity=80, time=0),
    Message('note_off', channel=0, note=47, velocity=80, time=0),
    Message('note_on', channel=0, note=69, velocity=95, time=0),
    Message('note_on', channel=0, note=62, velocity=95, time=0),
    Message('note_on', channel=0, note=57, velocity=95, time=0),
    Message('note_on', channel=0, note=54, velocity=95, time=0),
    Message('note_on', channel=0, note=47, velocity=95, time=0),
    Message('note_off', channel=0, note=69, velocity=80, time=240),
    Message('note_off', channel=0, note=62, velocity=80, time=0),
    Message('note_off', channel=0, note=57, velocity=80, time=0),
    Message('note_off', channel=0, note=54, velocity=80, time=0),
    Message('note_off', channel=0, note=47, velocity=80, time=0),
    Message('note_on', channel=0, note=69, velocity=95, time=0),
    Message('note_on', channel=0, note=62, velocity=95, time=0),
    Message('note_on', channel=0, note=57, velocity=95, time=0),
    Message('note_on', channel=0, note=54, velocity=95, time=0),
    Message('note_on', channel=0, note=47, velocity=95, time=0),
    Message('note_off', channel=0, note=69, velocity=80, time=240),
    Message('note_off', channel=0, note=62, velocity=80, time=0),
    Message('note_off', channel=0, note=57, velocity=80, time=0),
    Message('note_off', channel=0, note=54, velocity=80, time=0),
    Message('note_off', channel=0, note=47, velocity=80, time=0),
    Message('note_on', channel=0, note=69, velocity=95, time=0),
    Message('note_on', channel=0, note=62, velocity=95, time=0),
    Message('note_on', channel=0, note=57, velocity=95, time=0),
    Message('note_on', channel=0, note=54, velocity=95, time=0),
    Message('note_on', channel=0, note=47, velocity=95, time=0),
    Message('note_off', channel=0, note=69, velocity=80, time=480),
    Message('note_off', channel=0, note=62, velocity=80, time=0),
    Message('note_off', channel=0, note=57, velocity=80, time=0),
    Message('note_off', channel=0, note=54, velocity=80, time=0),
    Message('note_off', channel=0, note=47, velocity=80, time=0),
    Message('note_on', channel=0, note=69, velocity=95, time=0),
    Message('note_on', channel=0, note=62, velocity=95, time=0),
    Message('note_on', channel=0, note=57, velocity=95, time=0),
    Message('note_on', channel=0, note=54, velocity=95, time=0),
    Message('note_on', channel=0, note=47, velocity=95, time=0),
    Message('note_off', channel=0, note=69, velocity=80, time=240),
    Message('note_off', channel=0, note=62, velocity=80, time=0),
    Message('note_off', channel=0, note=57, velocity=80, time=0),
    Message('note_off', channel=0, note=54, velocity=80, time=0),
    Message('note_off', channel=0, note=47, velocity=80, time=0),
    Message('note_on', channel=0, note=69, velocity=95, time=0),
    Message('note_on', channel=0, note=62, velocity=95, time=0),
    Message('note_on', channel=0, note=57, velocity=95, time=0),
    Message('note_on', channel=0, note=54, velocity=95, time=0),
    Message('note_on', channel=0, note=47, velocity=95, time=0),
    Message('note_off', channel=0, note=69, velocity=80, time=480),
    Message('note_off', channel=0, note=62, velocity=80, time=0),
    Message('note_off', channel=0, note=57, velocity=80, time=0),
    Message('note_off', channel=0, note=54, velocity=80, time=0),
    Message('note_off', channel=0, note=47, velocity=80, time=0),
    Message('note_on', channel=0, note=69, velocity=95, time=0),
    Message('note_on', channel=0, note=62, velocity=95, time=0),
    Message('note_on', channel=0, note=57, velocity=95, time=0),
    Message('note_on', channel=0, note=54, velocity=95, time=0),
    Message('note_on', channel=0, note=47, velocity=95, time=0),
    Message('note_off', channel=0, note=69, velocity=80, time=240),
    Message('note_off', channel=0, note=62, velocity=80, time=0),
    Message('note_off', channel=0, note=57, velocity=80, time=0),
    Message('note_off', channel=0, note=54, velocity=80, time=0),
    Message('note_off', channel=0, note=47, velocity=80, time=0),
    Message('note_on', channel=0, note=69, velocity=95, time=0),
    Message('note_on', channel=0, note=62, velocity=95, time=0),
    Message('note_on', channel=0, note=57, velocity=95, time=0),
    Message('note_on', channel=0, note=54, velocity=95, time=0),
    Message('note_on', channel=0, note=47, velocity=95, time=0),
    Message('note_off', channel=0, note=69, velocity=80, time=240),
    Message('note_off', channel=0, note=62, velocity=80, time=0),
    Message('note_off', channel=0, note=57, velocity=80, time=0),
    Message('note_off', channel=0, note=54, velocity=80, time=0),
    Message('note_off', channel=0, note=47, velocity=80, time=0),
    Message('note_on', channel=0, note=69, velocity=95, time=0),
    Message('note_on', channel=0, note=62, velocity=95, time=0),
    Message('note_on', channel=0, note=57, velocity=95, time=0),
    Message('note_on', channel=0, note=54, velocity=95, time=0),
    Message('note_on', channel=0, note=47, velocity=95, time=0),
    Message('note_off', channel=0, note=69, velocity=80, time=240),
    Message('note_off', channel=0, note=62, velocity=80, time=0),
    Message('note_off', channel=0, note=57, velocity=80, time=0),
    Message('note_off', channel=0, note=54, velocity=80, time=0),
    Message('note_off', channel=0, note=47, velocity=80, time=0),
    Message('note_on', channel=0, note=69, velocity=95, time=0),
    Message('note_on', channel=0, note=62, velocity=95, time=0),
    Message('note_on', channel=0, note=57, velocity=95, time=0),
    Message('note_on', channel=0, note=54, velocity=95, time=0),
    Message('note_on', channel=0, note=47, velocity=95, time=0),
    Message('note_off', channel=0, note=69, velocity=80, time=240),
    Message('note_off', channel=0, note=62, velocity=80, time=0),
    Message('note_off', channel=0, note=57, velocity=80, time=0),
    Message('note_off', channel=0, note=54, velocity=80, time=0),
    Message('note_off', channel=0, note=47, velocity=80, time=0),
    Message('note_on', channel=0, note=68, velocity=95, time=0),
    Message('note_on', channel=0, note=64, velocity=95, time=0),
    Message('note_on', channel=0, note=59, velocity=95, time=0),
    Message('note_on', channel=0, note=52, velocity=95, time=0),
    Message('note_off', channel=0, note=68, velocity=80, time=480),
    Message('note_off', channel=0, note=64, velocity=80, time=0),
    Message('note_off', channel=0, note=59, velocity=80, time=0),
    Message('note_off', channel=0, note=52, velocity=80, time=0),
    Message('note_on', channel=0, note=68, velocity=95, time=0),
    Message('note_on', channel=0, note=64, velocity=95, time=0),
    Message('note_on', channel=0, note=59, velocity=95, time=0),
    Message('note_on', channel=0, note=52, velocity=95, time=0),
    Message('note_off', channel=0, note=68, velocity=80, time=240),
    Message('note_off', channel=0, note=64, velocity=80, time=0),
    Message('note_off', channel=0, note=59, velocity=80, time=0),
    Message('note_off', channel=0, note=52, velocity=80, time=0),
    Message('note_on', channel=0, note=68, velocity=95, time=0),
    Message('note_on', channel=0, note=64, velocity=95, time=0),
    Message('note_on', channel=0, note=59, velocity=95, time=0),
    Message('note_on', channel=0, note=52, velocity=95, time=0),
    Message('note_off', channel=0, note=68, velocity=80, time=240),
    Message('note_off', channel=0, note=64, velocity=80, time=0),
    Message('note_off', channel=0, note=59, velocity=80, time=0),
    Message('note_off', channel=0, note=52, velocity=80, time=0),
    Message('note_on', channel=0, note=68, velocity=95, time=0),
    Message('note_on', channel=0, note=64, velocity=95, time=0),
    Message('note_on', channel=0, note=59, velocity=95, time=0),
    Message('note_on', channel=0, note=52, velocity=95, time=0),
    Message('note_off', channel=0, note=68, velocity=80, time=240),
    Message('note_off', channel=0, note=64, velocity=80, time=0),
    Message('note_off', channel=0, note=59, velocity=80, time=0),
    Message('note_off', channel=0, note=52, velocity=80, time=0),
    Message('note_on', channel=0, note=68, velocity=95, time=0),
    Message('note_on', channel=0, note=64, velocity=95, time=0),
    Message('note_on', channel=0, note=59, velocity=95, time=0),
    Message('note_on', channel=0, note=52, velocity=95, time=0),
    Message('note_off', channel=0, note=68, velocity=80, time=240),
    Message('note_off', channel=0, note=64, velocity=80, time=0),
    Message('note_off', channel=0, note=59, velocity=80, time=0),
    Message('note_off', channel=0, note=52, velocity=80, time=0),
    Message('note_on', channel=0, note=68, velocity=95, time=0),
    Message('note_on', channel=0, note=64, velocity=95, time=0),
    Message('note_on', channel=0, note=59, velocity=95, time=0),
    Message('note_on', channel=0, note=52, velocity=95, time=0),
    Message('note_off', channel=0, note=68, velocity=80, time=240),
    Message('note_off', channel=0, note=64, velocity=80, time=0),
    Message('note_off', channel=0, note=59, velocity=80, time=0),
    Message('note_off', channel=0, note=52, velocity=80, time=0),
    Message('note_on', channel=0, note=68, velocity=95, time=0),
    Message('note_on', channel=0, note=64, velocity=95, time=0),
    Message('note_on', channel=0, note=59, velocity=95, time=0),
    Message('note_on', channel=0, note=52, velocity=95, time=0),
    Message('note_off', channel=0, note=68, velocity=80, time=480),
    Message('note_off', channel=0, note=64, velocity=80, time=0),
    Message('note_off', channel=0, note=59, velocity=80, time=0),
    Message('note_off', channel=0, note=52, velocity=80, time=0),
    Message('note_on', channel=0, note=68, velocity=95, time=0),
    Message('note_on', channel=0, note=64, velocity=95, time=0),
    Message('note_on', channel=0, note=59, velocity=95, time=0),
    Message('note_on', channel=0, note=52, velocity=95, time=0),
    Message('note_off', channel=0, note=68, velocity=80, time=240),
    Message('note_off', channel=0, note=64, velocity=80, time=0),
    Message('note_off', channel=0, note=59, velocity=80, time=0),
    Message('note_off', channel=0, note=52, velocity=80, time=0),
    Message('note_on', channel=0, note=68, velocity=95, time=0),
    Message('note_on', channel=0, note=64, velocity=95, time=0),
    Message('note_on', channel=0, note=59, velocity=95, time=0),
    Message('note_on', channel=0, note=52, velocity=95, time=0),
    Message('note_off', channel=0, note=68, velocity=80, time=240),
    Message('note_off', channel=0, note=64, velocity=80, time=0),
    Message('note_off', channel=0, note=59, velocity=80, time=0),
    Message('note_off', channel=0, note=52, velocity=80, time=0),
    Message('note_on', channel=0, note=68, velocity=95, time=0),
    Message('note_on', channel=0, note=64, velocity=95, time=0),
    Message('note_on', channel=0, note=59, velocity=95, time=0),
    Message('note_on', channel=0, note=52, velocity=95, time=0),
    Message('note_off', channel=0, note=68, velocity=80, time=240),
    Message('note_off', channel=0, note=64, velocity=80, time=0),
    Message('note_off', channel=0, note=59, velocity=80, time=0),
    Message('note_off', channel=0, note=52, velocity=80, time=0),
    Message('note_on', channel=0, note=68, velocity=95, time=0),
    Message('note_on', channel=0, note=64, velocity=95, time=0),
    Message('note_on', channel=0, note=59, velocity=95, time=0),
    Message('note_on', channel=0, note=52, velocity=95, time=0),
    Message('note_off', channel=0, note=68, velocity=80, time=240),
    Message('note_off', channel=0, note=64, velocity=80, time=0),
    Message('note_off', channel=0, note=59, velocity=80, time=0),
    Message('note_off', channel=0, note=52, velocity=80, time=0),
    Message('note_on', channel=0, note=68, velocity=95, time=0),
    Message('note_on', channel=0, note=64, velocity=95, time=0),
    Message('note_on', channel=0, note=59, velocity=95, time=0),
    Message('note_on', channel=0, note=52, velocity=95, time=0),
    Message('note_off', channel=0, note=68, velocity=80, time=240),
    Message('note_off', channel=0, note=64, velocity=80, time=0),
    Message('note_off', channel=0, note=59, velocity=80, time=0),
    Message('note_off', channel=0, note=52, velocity=80, time=0),
    Message('note_on', channel=0, note=68, velocity=95, time=0),
    Message('note_on', channel=0, note=64, velocity=95, time=0),
    Message('note_on', channel=0, note=59, velocity=95, time=0),
    Message('note_on', channel=0, note=52, velocity=95, time=0),
    Message('note_off', channel=0, note=68, velocity=80, time=240),
    Message('note_off', channel=0, note=64, velocity=80, time=0),
    Message('note_off', channel=0, note=59, velocity=80, time=0),
    Message('note_off', channel=0, note=52, velocity=80, time=0),
    Message('note_on', channel=0, note=68, velocity=95, time=0),
    Message('note_on', channel=0, note=64, velocity=95, time=0),
    Message('note_on', channel=0, note=59, velocity=95, time=0),
    Message('note_on', channel=0, note=52, velocity=95, time=0),
    Message('note_off', channel=0, note=68, velocity=80, time=240),
    Message('note_off', channel=0, note=64, velocity=80, time=0),
    Message('note_off', channel=0, note=59, velocity=80, time=0),
    Message('note_off', channel=0, note=52, velocity=80, time=0),
    Message('note_on', channel=0, note=69, velocity=95, time=0),
    Message('note_on', channel=0, note=61, velocity=95, time=0),
    Message('note_on', channel=0, note=57, velocity=95, time=0),
    Message('note_on', channel=0, note=52, velocity=95, time=0),
    Message('note_on', channel=0, note=45, velocity=95, time=0),
    Message('note_off', channel=0, note=69, velocity=80, time=480),
    Message('note_off', channel=0, note=61, velocity=80, time=0),
    Message('note_off', channel=0, note=57, velocity=80, time=0),
    Message('note_off', channel=0, note=52, velocity=80, time=0),
    Message('note_off', channel=0, note=45, velocity=80, time=0),
    Message('note_on', channel=0, note=69, velocity=95, time=0),
    Message('note_on', channel=0, note=61, velocity=95, time=0),
    Message('note_on', channel=0, note=57, velocity=95, time=0),
    Message('note_on', channel=0, note=52, velocity=95, time=0),
    Message('note_on', channel=0, note=45, velocity=95, time=0),
    Message('note_off', channel=0, note=69, velocity=80, time=480),
    Message('note_off', channel=0, note=61, velocity=80, time=0),
    Message('note_off', channel=0, note=57, velocity=80, time=0),
    Message('note_off', channel=0, note=52, velocity=80, time=0),
    Message('note_off', channel=0, note=45, velocity=80, time=0),
    Message('note_on', channel=0, note=69, velocity=95, time=0),
    Message('note_on', channel=0, note=61, velocity=95, time=0),
    Message('note_on', channel=0, note=57, velocity=95, time=0),
    Message('note_on', channel=0, note=52, velocity=95, time=0),
    Message('note_on', channel=0, note=45, velocity=95, time=0),
    Message('note_off', channel=0, note=69, velocity=80, time=240),
    Message('note_off', channel=0, note=61, velocity=80, time=0),
    Message('note_off', channel=0, note=57, velocity=80, time=0),
    Message('note_off', channel=0, note=52, velocity=80, time=0),
    Message('note_off', channel=0, note=45, velocity=80, time=0),
    Message('note_on', channel=0, note=69, velocity=95, time=0),
    Message('note_on', channel=0, note=61, velocity=95, time=0),
    Message('note_on', channel=0, note=57, velocity=95, time=0),
    Message('note_on', channel=0, note=52, velocity=95, time=0),
    Message('note_on', channel=0, note=45, velocity=95, time=0),
    Message('note_off', channel=0, note=69, velocity=80, time=240),
    Message('note_off', channel=0, note=61, velocity=80, time=0),
    Message('note_off', channel=0, note=57, velocity=80, time=0),
    Message('note_off', channel=0, note=52, velocity=80, time=0),
    Message('note_off', channel=0, note=45, velocity=80, time=0),
    Message('note_on', channel=0, note=69, velocity=95, time=0),
    Message('note_on', channel=0, note=61, velocity=95, time=0),
    Message('note_on', channel=0, note=57, velocity=95, time=0),
    Message('note_on', channel=0, note=52, velocity=95, time=0),
    Message('note_on', channel=0, note=45, velocity=95, time=0),
    Message('note_off', channel=0, note=69, velocity=80, time=480),
    Message('note_off', channel=0, note=61, velocity=80, time=0),
    Message('note_off', channel=0, note=57, velocity=80, time=0),
    Message('note_off', channel=0, note=52, velocity=80, time=0),
    Message('note_off', channel=0, note=45, velocity=80, time=0),
    Message('note_on', channel=0, note=69, velocity=95, time=0),
    Message('note_on', channel=0, note=61, velocity=95, time=0),
    Message('note_on', channel=0, note=57, velocity=95, time=0),
    Message('note_on', channel=0, note=52, velocity=95, time=0),
    Message('note_on', channel=0, note=45, velocity=95, time=0),
    Message('note_off', channel=0, note=69, velocity=80, time=240),
    Message('note_off', channel=0, note=61, velocity=80, time=0),
    Message('note_off', channel=0, note=57, velocity=80, time=0),
    Message('note_off', channel=0, note=52, velocity=80, time=0),
    Message('note_off', channel=0, note=45, velocity=80, time=0),
    Message('note_on', channel=0, note=69, velocity=95, time=0),
    Message('note_on', channel=0, note=61, velocity=95, time=0),
    Message('note_on', channel=0, note=57, velocity=95, time=0),
    Message('note_on', channel=0, note=52, velocity=95, time=0),
    Message('note_on', channel=0, note=45, velocity=95, time=0),
    Message('note_off', channel=0, note=69, velocity=80, time=240),
    Message('note_off', channel=0, note=61, velocity=80, time=0),
    Message('note_off', channel=0, note=57, velocity=80, time=0),
    Message('note_off', channel=0, note=52, velocity=80, time=0),
    Message('note_off', channel=0, note=45, velocity=80, time=0),
    Message('note_on', channel=0, note=69, velocity=95, time=0),
    Message('note_on', channel=0, note=61, velocity=95, time=0),
    Message('note_on', channel=0, note=57, velocity=95, time=0),
    Message('note_on', channel=0, note=52, velocity=95, time=0),
    Message('note_on', channel=0, note=45, velocity=95, time=0),
    Message('note_off', channel=0, note=69, velocity=80, time=480),
    Message('note_off', channel=0, note=61, velocity=80, time=0),
    Message('note_off', channel=0, note=57, velocity=80, time=0),
    Message('note_off', channel=0, note=52, velocity=80, time=0),
    Message('note_off', channel=0, note=45, velocity=80, time=0),
    Message('note_on', channel=0, note=69, velocity=95, time=0),
    Message('note_on', channel=0, note=61, velocity=95, time=0),
    Message('note_on', channel=0, note=57, velocity=95, time=0),
    Message('note_on', channel=0, note=52, velocity=95, time=0),
    Message('note_on', channel=0, note=45, velocity=95, time=0),
    Message('note_off', channel=0, note=69, velocity=80, time=240),
    Message('note_off', channel=0, note=61, velocity=80, time=0),
    Message('note_off', channel=0, note=57, velocity=80, time=0),
    Message('note_off', channel=0, note=52, velocity=80, time=0),
    Message('note_off', channel=0, note=45, velocity=80, time=0),
    Message('note_on', channel=0, note=69, velocity=95, time=0),
    Message('note_on', channel=0, note=61, velocity=95, time=0),
    Message('note_on', channel=0, note=57, velocity=95, time=0),
    Message('note_on', channel=0, note=52, velocity=95, time=0),
    Message('note_on', channel=0, note=45, velocity=95, time=0),
    Message('note_off', channel=0, note=69, velocity=80, time=240),
    Message('note_off', channel=0, note=61, velocity=80, time=0),
    Message('note_off', channel=0, note=57, velocity=80, time=0),
    Message('note_off', channel=0, note=52, velocity=80, time=0),
    Message('note_off', channel=0, note=45, velocity=80, time=0),
    Message('note_on', channel=0, note=69, velocity=95, time=0),
    Message('note_on', channel=0, note=61, velocity=95, time=0),
    Message('note_on', channel=0, note=57, velocity=95, time=0),
    Message('note_on', channel=0, note=52, velocity=95, time=0),
    Message('note_on', channel=0, note=45, velocity=95, time=0),
    Message('note_off', channel=0, note=69, velocity=80, time=240),
    Message('note_off', channel=0, note=61, velocity=80, time=0),
    Message('note_off', channel=0, note=57, velocity=80, time=0),
    Message('note_off', channel=0, note=52, velocity=80, time=0),
    Message('note_off', channel=0, note=45, velocity=80, time=0),
    Message('note_on', channel=0, note=69, velocity=95, time=0),
    Message('note_on', channel=0, note=61, velocity=95, time=0),
    Message('note_on', channel=0, note=57, velocity=95, time=0),
    Message('note_on', channel=0, note=52, velocity=95, time=0),
    Message('note_on', channel=0, note=45, velocity=95, time=0),
    Message('note_off', channel=0, note=69, velocity=80, time=240),
    Message('note_off', channel=0, note=61, velocity=80, time=0),
    Message('note_off', channel=0, note=57, velocity=80, time=0),
    Message('note_off', channel=0, note=52, velocity=80, time=0),
    Message('note_off', channel=0, note=45, velocity=80, time=0),
    Message('note_on', channel=0, note=69, velocity=95, time=0),
    Message('note_on', channel=0, note=61, velocity=95, time=0),
    Message('note_on', channel=0, note=57, velocity=95, time=0),
    Message('note_on', channel=0, note=52, velocity=95, time=0),
    Message('note_on', channel=0, note=45, velocity=95, time=0),
    Message('note_off', channel=0, note=69, velocity=80, time=480),
    Message('note_off', channel=0, note=61, velocity=80, time=0),
    Message('note_off', channel=0, note=57, velocity=80, time=0),
    Message('note_off', channel=0, note=52, velocity=80, time=0),
    Message('note_off', channel=0, note=45, velocity=80, time=0),
    Message('note_on', channel=0, note=69, velocity=95, time=0),
    Message('note_on', channel=0, note=61, velocity=95, time=0),
    Message('note_on', channel=0, note=57, velocity=95, time=0),
    Message('note_on', channel=0, note=52, velocity=95, time=0),
    Message('note_on', channel=0, note=45, velocity=95, time=0),
    Message('note_off', channel=0, note=69, velocity=80, time=480),
    Message('note_off', channel=0, note=61, velocity=80, time=0),
    Message('note_off', channel=0, note=57, velocity=80, time=0),
    Message('note_off', channel=0, note=52, velocity=80, time=0),
    Message('note_off', channel=0, note=45, velocity=80, time=0),
    Message('note_on', channel=0, note=69, velocity=95, time=0),
    Message('note_on', channel=0, note=61, velocity=95, time=0),
    Message('note_on', channel=0, note=57, velocity=95, time=0),
    Message('note_on', channel=0, note=52, velocity=95, time=0),
    Message('note_on', channel=0, note=45, velocity=95, time=0),
    Message('note_off', channel=0, note=69, velocity=80, time=240),
    Message('note_off', channel=0, note=61, velocity=80, time=0),
    Message('note_off', channel=0, note=57, velocity=80, time=0),
    Message('note_off', channel=0, note=52, velocity=80, time=0),
    Message('note_off', channel=0, note=45, velocity=80, time=0),
    Message('note_on', channel=0, note=69, velocity=95, time=0),
    Message('note_on', channel=0, note=61, velocity=95, time=0),
    Message('note_on', channel=0, note=57, velocity=95, time=0),
    Message('note_on', channel=0, note=52, velocity=95, time=0),
    Message('note_on', channel=0, note=45, velocity=95, time=0),
    Message('note_off', channel=0, note=69, velocity=80, time=240),
    Message('note_off', channel=0, note=61, velocity=80, time=0),
    Message('note_off', channel=0, note=57, velocity=80, time=0),
    Message('note_off', channel=0, note=52, velocity=80, time=0),
    Message('note_off', channel=0, note=45, velocity=80, time=0),
    Message('note_on', channel=0, note=69, velocity=95, time=0),
    Message('note_on', channel=0, note=61, velocity=95, time=0),
    Message('note_on', channel=0, note=57, velocity=95, time=0),
    Message('note_on', channel=0, note=52, velocity=95, time=0),
    Message('note_on', channel=0, note=45, velocity=95, time=0),
    Message('note_off', channel=0, note=69, velocity=80, time=480),
    Message('note_off', channel=0, note=61, velocity=80, time=0),
    Message('note_off', channel=0, note=57, velocity=80, time=0),
    Message('note_off', channel=0, note=52, velocity=80, time=0),
    Message('note_off', channel=0, note=45, velocity=80, time=0),
    Message('note_on', channel=0, note=69, velocity=95, time=0),
    Message('note_on', channel=0, note=61, velocity=95, time=0),
    Message('note_on', channel=0, note=57, velocity=95, time=0),
    Message('note_on', channel=0, note=52, velocity=95, time=0),
    Message('note_on', channel=0, note=45, velocity=95, time=0),
    Message('note_off', channel=0, note=69, velocity=80, time=1920),
    Message('note_off', channel=0, note=61, velocity=80, time=0),
    Message('note_off', channel=0, note=57, velocity=80, time=0),
    Message('note_off', channel=0, note=52, velocity=80, time=0),
    Message('note_off', channel=0, note=45, velocity=80, time=0),
    Message('note_on', channel=0, note=69, velocity=95, time=0),
    Message('note_on', channel=0, note=62, velocity=95, time=0),
    Message('note_on', channel=0, note=57, velocity=95, time=0),
    Message('note_on', channel=0, note=54, velocity=95, time=0),
    Message('note_on', channel=0, note=47, velocity=95, time=0),
    Message('note_off', channel=0, note=69, velocity=80, time=480),
    Message('note_off', channel=0, note=62, velocity=80, time=0),
    Message('note_off', channel=0, note=57, velocity=80, time=0),
    Message('note_off', channel=0, note=54, velocity=80, time=0),
    Message('note_off', channel=0, note=47, velocity=80, time=0),
    Message('note_on', channel=0, note=69, velocity=95, time=0),
    Message('note_on', channel=0, note=62, velocity=95, time=0),
    Message('note_on', channel=0, note=57, velocity=95, time=0),
    Message('note_on', channel=0, note=54, velocity=95, time=0),
    Message('note_on', channel=0, note=47, velocity=95, time=0),
    Message('note_off', channel=0, note=69, velocity=80, time=480),
    Message('note_off', channel=0, note=62, velocity=80, time=0),
    Message('note_off', channel=0, note=57, velocity=80, time=0),
    Message('note_off', channel=0, note=54, velocity=80, time=0),
    Message('note_off', channel=0, note=47, velocity=80, time=0),
    Message('note_on', channel=0, note=69, velocity=95, time=0),
    Message('note_on', channel=0, note=62, velocity=95, time=0),
    Message('note_on', channel=0, note=57, velocity=95, time=0),
    Message('note_on', channel=0, note=54, velocity=95, time=0),
    Message('note_on', channel=0, note=47, velocity=95, time=0),
    Message('note_off', channel=0, note=69, velocity=80, time=240),
    Message('note_off', channel=0, note=62, velocity=80, time=0),
    Message('note_off', channel=0, note=57, velocity=80, time=0),
    Message('note_off', channel=0, note=54, velocity=80, time=0),
    Message('note_off', channel=0, note=47, velocity=80, time=0),
    Message('note_on', channel=0, note=69, velocity=95, time=0),
    Message('note_on', channel=0, note=62, velocity=95, time=0),
    Message('note_on', channel=0, note=57, velocity=95, time=0),
    Message('note_on', channel=0, note=54, velocity=95, time=0),
    Message('note_on', channel=0, note=47, velocity=95, time=0),
    Message('note_off', channel=0, note=69, velocity=80, time=240),
    Message('note_off', channel=0, note=62, velocity=80, time=0),
    Message('note_off', channel=0, note=57, velocity=80, time=0),
    Message('note_off', channel=0, note=54, velocity=80, time=0),
    Message('note_off', channel=0, note=47, velocity=80, time=0),
    Message('note_on', channel=0, note=69, velocity=95, time=0),
    Message('note_on', channel=0, note=62, velocity=95, time=0),
    Message('note_on', channel=0, note=57, velocity=95, time=0),
    Message('note_on', channel=0, note=54, velocity=95, time=0),
    Message('note_on', channel=0, note=47, velocity=95, time=0),
    Message('note_off', channel=0, note=69, velocity=80, time=480),
    Message('note_off', channel=0, note=62, velocity=80, time=0),
    Message('note_off', channel=0, note=57, velocity=80, time=0),
    Message('note_off', channel=0, note=54, velocity=80, time=0),
    Message('note_off', channel=0, note=47, velocity=80, time=0),
    Message('note_on', channel=0, note=68, velocity=95, time=0),
    Message('note_on', channel=0, note=64, velocity=95, time=0),
    Message('note_on', channel=0, note=59, velocity=95, time=0),
    Message('note_on', channel=0, note=52, velocity=95, time=0),
    Message('note_off', channel=0, note=68, velocity=80, time=480),
    Message('note_off', channel=0, note=64, velocity=80, time=0),
    Message('note_off', channel=0, note=59, velocity=80, time=0),
    Message('note_off', channel=0, note=52, velocity=80, time=0),
    Message('note_on', channel=0, note=68, velocity=95, time=0),
    Message('note_on', channel=0, note=64, velocity=95, time=0),
    Message('note_on', channel=0, note=59, velocity=95, time=0),
    Message('note_on', channel=0, note=52, velocity=95, time=0),
    Message('note_off', channel=0, note=68, velocity=80, time=480),
    Message('note_off', channel=0, note=64, velocity=80, time=0),
    Message('note_off', channel=0, note=59, velocity=80, time=0),
    Message('note_off', channel=0, note=52, velocity=80, time=0),
    Message('note_on', channel=0, note=68, velocity=95, time=0),
    Message('note_on', channel=0, note=64, velocity=95, time=0),
    Message('note_on', channel=0, note=59, velocity=95, time=0),
    Message('note_on', channel=0, note=52, velocity=95, time=0),
    Message('note_off', channel=0, note=68, velocity=80, time=240),
    Message('note_off', channel=0, note=64, velocity=80, time=0),
    Message('note_off', channel=0, note=59, velocity=80, time=0),
    Message('note_off', channel=0, note=52, velocity=80, time=0),
    Message('note_on', channel=0, note=68, velocity=95, time=0),
    Message('note_on', channel=0, note=64, velocity=95, time=0),
    Message('note_on', channel=0, note=59, velocity=95, time=0),
    Message('note_on', channel=0, note=52, velocity=95, time=0),
    Message('note_off', channel=0, note=68, velocity=80, time=240),
    Message('note_off', channel=0, note=64, velocity=80, time=0),
    Message('note_off', channel=0, note=59, velocity=80, time=0),
    Message('note_off', channel=0, note=52, velocity=80, time=0),
    Message('note_on', channel=0, note=68, velocity=95, time=0),
    Message('note_on', channel=0, note=64, velocity=95, time=0),
    Message('note_on', channel=0, note=59, velocity=95, time=0),
    Message('note_on', channel=0, note=52, velocity=95, time=0),
    Message('note_off', channel=0, note=68, velocity=80, time=480),
    Message('note_off', channel=0, note=64, velocity=80, time=0),
    Message('note_off', channel=0, note=59, velocity=80, time=0),
    Message('note_off', channel=0, note=52, velocity=80, time=0),
    Message('note_on', channel=0, note=69, velocity=95, time=0),
    Message('note_on', channel=0, note=61, velocity=95, time=0),
    Message('note_on', channel=0, note=57, velocity=95, time=0),
    Message('note_on', channel=0, note=52, velocity=95, time=0),
    Message('note_on', channel=0, note=45, velocity=95, time=0),
    Message('note_off', channel=0, note=69, velocity=80, time=480),
    Message('note_off', channel=0, note=61, velocity=80, time=0),
    Message('note_off', channel=0, note=57, velocity=80, time=0),
    Message('note_off', channel=0, note=52, velocity=80, time=0),
    Message('note_off', channel=0, note=45, velocity=80, time=0),
    Message('note_on', channel=0, note=69, velocity=95, time=0),
    Message('note_on', channel=0, note=61, velocity=95, time=0),
    Message('note_on', channel=0, note=57, velocity=95, time=0),
    Message('note_on', channel=0, note=52, velocity=95, time=0),
    Message('note_on', channel=0, note=45, velocity=95, time=0),
    Message('note_off', channel=0, note=69, velocity=80, time=480),
    Message('note_off', channel=0, note=61, velocity=80, time=0),
    Message('note_off', channel=0, note=57, velocity=80, time=0),
    Message('note_off', channel=0, note=52, velocity=80, time=0),
    Message('note_off', channel=0, note=45, velocity=80, time=0),
    Message('note_on', channel=0, note=69, velocity=95, time=0),
    Message('note_on', channel=0, note=61, velocity=95, time=0),
    Message('note_on', channel=0, note=57, velocity=95, time=0),
    Message('note_on', channel=0, note=52, velocity=95, time=0),
    Message('note_on', channel=0, note=45, velocity=95, time=0),
    Message('note_off', channel=0, note=69, velocity=80, time=480),
    Message('note_off', channel=0, note=61, velocity=80, time=0),
    Message('note_off', channel=0, note=57, velocity=80, time=0),
    Message('note_off', channel=0, note=52, velocity=80, time=0),
    Message('note_off', channel=0, note=45, velocity=80, time=0),
    Message('note_on', channel=0, note=69, velocity=95, time=0),
    Message('note_on', channel=0, note=61, velocity=95, time=0),
    Message('note_on', channel=0, note=57, velocity=95, time=0),
    Message('note_on', channel=0, note=52, velocity=95, time=0),
    Message('note_on', channel=0, note=45, velocity=95, time=0),
    Message('note_off', channel=0, note=69, velocity=80, time=240),
    Message('note_off', channel=0, note=61, velocity=80, time=0),
    Message('note_off', channel=0, note=57, velocity=80, time=0),
    Message('note_off', channel=0, note=52, velocity=80, time=0),
    Message('note_off', channel=0, note=45, velocity=80, time=0),
    Message('note_on', channel=0, note=69, velocity=95, time=0),
    Message('note_on', channel=0, note=61, velocity=95, time=0),
    Message('note_on', channel=0, note=57, velocity=95, time=0),
    Message('note_on', channel=0, note=52, velocity=95, time=0),
    Message('note_on', channel=0, note=45, velocity=95, time=0),
    Message('note_off', channel=0, note=69, velocity=80, time=240),
    Message('note_off', channel=0, note=61, velocity=80, time=0),
    Message('note_off', channel=0, note=57, velocity=80, time=0),
    Message('note_off', channel=0, note=52, velocity=80, time=0),
    Message('note_off', channel=0, note=45, velocity=80, time=0),
    Message('note_on', channel=0, note=69, velocity=95, time=240),
    Message('note_on', channel=0, note=61, velocity=95, time=0),
    Message('note_on', channel=0, note=57, velocity=95, time=0),
    Message('note_on', channel=0, note=52, velocity=95, time=0),
    Message('note_on', channel=0, note=45, velocity=95, time=0),
    Message('note_off', channel=0, note=69, velocity=80, time=240),
    Message('note_off', channel=0, note=61, velocity=80, time=0),
    Message('note_off', channel=0, note=57, velocity=80, time=0),
    Message('note_off', channel=0, note=52, velocity=80, time=0),
    Message('note_off', channel=0, note=45, velocity=80, time=0),
    Message('note_on', channel=0, note=69, velocity=95, time=240),
    Message('note_on', channel=0, note=61, velocity=95, time=0),
    Message('note_on', channel=0, note=57, velocity=95, time=0),
    Message('note_on', channel=0, note=52, velocity=95, time=0),
    Message('note_on', channel=0, note=45, velocity=95, time=0),
    Message('note_off', channel=0, note=69, velocity=80, time=240),
    Message('note_off', channel=0, note=61, velocity=80, time=0),
    Message('note_off', channel=0, note=57, velocity=80, time=0),
    Message('note_off', channel=0, note=52, velocity=80, time=0),
    Message('note_off', channel=0, note=45, velocity=80, time=0),
    Message('note_on', channel=0, note=69, velocity=95, time=240),
    Message('note_on', channel=0, note=61, velocity=95, time=0),
    Message('note_on', channel=0, note=57, velocity=95, time=0),
    Message('note_on', channel=0, note=52, velocity=95, time=0),
    Message('note_on', channel=0, note=45, velocity=95, time=0),
    Message('note_off', channel=0, note=69, velocity=80, time=240),
    Message('note_off', channel=0, note=61, velocity=80, time=0),
    Message('note_off', channel=0, note=57, velocity=80, time=0),
    Message('note_off', channel=0, note=52, velocity=80, time=0),
    Message('note_off', channel=0, note=45, velocity=80, time=0),
    Message('note_on', channel=0, note=69, velocity=95, time=240),
    Message('note_on', channel=0, note=61, velocity=95, time=0),
    Message('note_on', channel=0, note=57, velocity=95, time=0),
    Message('note_on', channel=0, note=52, velocity=95, time=0),
    Message('note_on', channel=0, note=45, velocity=95, time=0),
    Message('note_off', channel=0, note=69, velocity=80, time=120),
    Message('note_off', channel=0, note=61, velocity=80, time=0),
    Message('note_off', channel=0, note=57, velocity=80, time=0),
    Message('note_off', channel=0, note=52, velocity=80, time=0),
    Message('note_off', channel=0, note=45, velocity=80, time=0),
    Message('note_on', channel=0, note=69, velocity=95, time=0),
    Message('note_on', channel=0, note=61, velocity=95, time=0),
    Message('note_on', channel=0, note=57, velocity=95, time=0),
    Message('note_on', channel=0, note=52, velocity=95, time=0),
    Message('note_on', channel=0, note=45, velocity=95, time=0),
    Message('note_off', channel=0, note=69, velocity=80, time=120),
    Message('note_off', channel=0, note=61, velocity=80, time=0),
    Message('note_off', channel=0, note=57, velocity=80, time=0),
    Message('note_off', channel=0, note=52, velocity=80, time=0),
    Message('note_off', channel=0, note=45, velocity=80, time=0),
    Message('note_on', channel=0, note=69, velocity=95, time=0),
    Message('note_on', channel=0, note=61, velocity=95, time=0),
    Message('note_on', channel=0, note=57, velocity=95, time=0),
    Message('note_on', channel=0, note=52, velocity=95, time=0),
    Message('note_on', channel=0, note=45, velocity=95, time=0),
    Message('note_off', channel=0, note=69, velocity=80, time=480),
    Message('note_off', channel=0, note=61, velocity=80, time=0),
    Message('note_off', channel=0, note=57, velocity=80, time=0),
    Message('note_off', channel=0, note=52, velocity=80, time=0),
    Message('note_off', channel=0, note=45, velocity=80, time=0),
    Message('note_on', channel=0, note=69, velocity=95, time=0),
    Message('note_on', channel=0, note=61, velocity=95, time=0),
    Message('note_on', channel=0, note=57, velocity=95, time=0),
    Message('note_on', channel=0, note=52, velocity=95, time=0),
    Message('note_on', channel=0, note=45, velocity=95, time=0),
    Message('note_off', channel=0, note=69, velocity=80, time=480),
    Message('note_off', channel=0, note=61, velocity=80, time=0),
    Message('note_off', channel=0, note=57, velocity=80, time=0),
    Message('note_off', channel=0, note=52, velocity=80, time=0),
    Message('note_off', channel=0, note=45, velocity=80, time=0),
    Message('note_on', channel=0, note=69, velocity=95, time=0),
    Message('note_on', channel=0, note=61, velocity=95, time=0),
    Message('note_on', channel=0, note=57, velocity=95, time=0),
    Message('note_on', channel=0, note=52, velocity=95, time=0),
    Message('note_on', channel=0, note=45, velocity=95, time=0),
    Message('note_off', channel=0, note=69, velocity=80, time=240),
    Message('note_off', channel=0, note=61, velocity=80, time=0),
    Message('note_off', channel=0, note=57, velocity=80, time=0),
    Message('note_off', channel=0, note=52, velocity=80, time=0),
    Message('note_off', channel=0, note=45, velocity=80, time=0),
    Message('note_on', channel=0, note=69, velocity=95, time=0),
    Message('note_on', channel=0, note=61, velocity=95, time=0),
    Message('note_on', channel=0, note=57, velocity=95, time=0),
    Message('note_on', channel=0, note=52, velocity=95, time=0),
    Message('note_on', channel=0, note=45, velocity=95, time=0),
    Message('note_off', channel=0, note=69, velocity=80, time=240),
    Message('note_off', channel=0, note=61, velocity=80, time=0),
    Message('note_off', channel=0, note=57, velocity=80, time=0),
    Message('note_off', channel=0, note=52, velocity=80, time=0),
    Message('note_off', channel=0, note=45, velocity=80, time=0),
    Message('note_on', channel=0, note=69, velocity=95, time=0),
    Message('note_on', channel=0, note=61, velocity=95, time=0),
    Message('note_on', channel=0, note=57, velocity=95, time=0),
    Message('note_on', channel=0, note=52, velocity=95, time=0),
    Message('note_on', channel=0, note=45, velocity=95, time=0),
    Message('note_off', channel=0, note=69, velocity=80, time=480),
    Message('note_off', channel=0, note=61, velocity=80, time=0),
    Message('note_off', channel=0, note=57, velocity=80, time=0),
    Message('note_off', channel=0, note=52, velocity=80, time=0),
    Message('note_off', channel=0, note=45, velocity=80, time=0),
    Message('note_on', channel=0, note=69, velocity=95, time=0),
    Message('note_on', channel=0, note=61, velocity=95, time=0),
    Message('note_on', channel=0, note=57, velocity=95, time=0),
    Message('note_on', channel=0, note=52, velocity=95, time=0),
    Message('note_on', channel=0, note=45, velocity=95, time=0),
    Message('note_off', channel=0, note=69, velocity=80, time=240),
    Message('note_off', channel=0, note=61, velocity=80, time=0),
    Message('note_off', channel=0, note=57, velocity=80, time=0),
    Message('note_off', channel=0, note=52, velocity=80, time=0),
    Message('note_off', channel=0, note=45, velocity=80, time=0),
    Message('note_on', channel=0, note=69, velocity=95, time=0),
    Message('note_on', channel=0, note=61, velocity=95, time=0),
    Message('note_on', channel=0, note=57, velocity=95, time=0),
    Message('note_on', channel=0, note=52, velocity=95, time=0),
    Message('note_on', channel=0, note=45, velocity=95, time=0),
    Message('note_off', channel=0, note=69, velocity=80, time=240),
    Message('note_off', channel=0, note=61, velocity=80, time=0),
    Message('note_off', channel=0, note=57, velocity=80, time=0),
    Message('note_off', channel=0, note=52, velocity=80, time=0),
    Message('note_off', channel=0, note=45, velocity=80, time=0),
    Message('note_on', channel=0, note=69, velocity=95, time=0),
    Message('note_on', channel=0, note=61, velocity=95, time=0),
    Message('note_on', channel=0, note=57, velocity=95, time=0),
    Message('note_on', channel=0, note=52, velocity=95, time=0),
    Message('note_on', channel=0, note=45, velocity=95, time=0),
    Message('note_off', channel=0, note=69, velocity=80, time=480),
    Message('note_off', channel=0, note=61, velocity=80, time=0),
    Message('note_off', channel=0, note=57, velocity=80, time=0),
    Message('note_off', channel=0, note=52, velocity=80, time=0),
    Message('note_off', channel=0, note=45, velocity=80, time=0),
    Message('note_on', channel=0, note=69, velocity=95, time=0),
    Message('note_on', channel=0, note=61, velocity=95, time=0),
    Message('note_on', channel=0, note=57, velocity=95, time=0),
    Message('note_on', channel=0, note=52, velocity=95, time=0),
    Message('note_on', channel=0, note=45, velocity=95, time=0),
    Message('note_off', channel=0, note=69, velocity=80, time=240),
    Message('note_off', channel=0, note=61, velocity=80, time=0),
    Message('note_off', channel=0, note=57, velocity=80, time=0),
    Message('note_off', channel=0, note=52, velocity=80, time=0),
    Message('note_off', channel=0, note=45, velocity=80, time=0),
    Message('note_on', channel=0, note=69, velocity=95, time=0),
    Message('note_on', channel=0, note=61, velocity=95, time=0),
    Message('note_on', channel=0, note=57, velocity=95, time=0),
    Message('note_on', channel=0, note=52, velocity=95, time=0),
    Message('note_on', channel=0, note=45, velocity=95, time=0),
    Message('note_off', channel=0, note=69, velocity=80, time=240),
    Message('note_off', channel=0, note=61, velocity=80, time=0),
    Message('note_off', channel=0, note=57, velocity=80, time=0),
    Message('note_off', channel=0, note=52, velocity=80, time=0),
    Message('note_off', channel=0, note=45, velocity=80, time=0),
    Message('note_on', channel=0, note=69, velocity=95, time=0),
    Message('note_on', channel=0, note=61, velocity=95, time=0),
    Message('note_on', channel=0, note=57, velocity=95, time=0),
    Message('note_on', channel=0, note=52, velocity=95, time=0),
    Message('note_on', channel=0, note=45, velocity=95, time=0),
    Message('note_off', channel=0, note=69, velocity=80, time=240),
    Message('note_off', channel=0, note=61, velocity=80, time=0),
    Message('note_off', channel=0, note=57, velocity=80, time=0),
    Message('note_off', channel=0, note=52, velocity=80, time=0),
    Message('note_off', channel=0, note=45, velocity=80, time=0),
    Message('note_on', channel=0, note=69, velocity=95, time=0),
    Message('note_on', channel=0, note=61, velocity=95, time=0),
    Message('note_on', channel=0, note=57, velocity=95, time=0),
    Message('note_on', channel=0, note=52, velocity=95, time=0),
    Message('note_on', channel=0, note=45, velocity=95, time=0),
    Message('note_off', channel=0, note=69, velocity=80, time=240),
    Message('note_off', channel=0, note=61, velocity=80, time=0),
    Message('note_off', channel=0, note=57, velocity=80, time=0),
    Message('note_off', channel=0, note=52, velocity=80, time=0),
    Message('note_off', channel=0, note=45, velocity=80, time=0),
    Message('note_on', channel=0, note=69, velocity=95, time=0),
    Message('note_on', channel=0, note=61, velocity=95, time=0),
    Message('note_on', channel=0, note=57, velocity=95, time=0),
    Message('note_on', channel=0, note=52, velocity=95, time=0),
    Message('note_on', channel=0, note=45, velocity=95, time=0),
    Message('note_off', channel=0, note=69, velocity=80, time=480),
    Message('note_off', channel=0, note=61, velocity=80, time=0),
    Message('note_off', channel=0, note=57, velocity=80, time=0),
    Message('note_off', channel=0, note=52, velocity=80, time=0),
    Message('note_off', channel=0, note=45, velocity=80, time=0),
    Message('note_on', channel=0, note=69, velocity=95, time=0),
    Message('note_on', channel=0, note=61, velocity=95, time=0),
    Message('note_on', channel=0, note=57, velocity=95, time=0),
    Message('note_on', channel=0, note=52, velocity=95, time=0),
    Message('note_on', channel=0, note=45, velocity=95, time=0),
    Message('note_off', channel=0, note=69, velocity=80, time=480),
    Message('note_off', channel=0, note=61, velocity=80, time=0),
    Message('note_off', channel=0, note=57, velocity=80, time=0),
    Message('note_off', channel=0, note=52, velocity=80, time=0),
    Message('note_off', channel=0, note=45, velocity=80, time=0),
    Message('note_on', channel=0, note=69, velocity=95, time=0),
    Message('note_on', channel=0, note=61, velocity=95, time=0),
    Message('note_on', channel=0, note=57, velocity=95, time=0),
    Message('note_on', channel=0, note=52, velocity=95, time=0),
    Message('note_on', channel=0, note=45, velocity=95, time=0),
    Message('note_off', channel=0, note=69, velocity=80, time=240),
    Message('note_off', channel=0, note=61, velocity=80, time=0),
    Message('note_off', channel=0, note=57, velocity=80, time=0),
    Message('note_off', channel=0, note=52, velocity=80, time=0),
    Message('note_off', channel=0, note=45, velocity=80, time=0),
    Message('note_on', channel=0, note=69, velocity=95, time=0),
    Message('note_on', channel=0, note=61, velocity=95, time=0),
    Message('note_on', channel=0, note=57, velocity=95, time=0),
    Message('note_on', channel=0, note=52, velocity=95, time=0),
    Message('note_on', channel=0, note=45, velocity=95, time=0),
    Message('note_off', channel=0, note=69, velocity=80, time=240),
    Message('note_off', channel=0, note=61, velocity=80, time=0),
    Message('note_off', channel=0, note=57, velocity=80, time=0),
    Message('note_off', channel=0, note=52, velocity=80, time=0),
    Message('note_off', channel=0, note=45, velocity=80, time=0),
    Message('note_on', channel=0, note=69, velocity=95, time=0),
    Message('note_on', channel=0, note=61, velocity=95, time=0),
    Message('note_on', channel=0, note=57, velocity=95, time=0),
    Message('note_on', channel=0, note=52, velocity=95, time=0),
    Message('note_on', channel=0, note=45, velocity=95, time=0),
    Message('note_off', channel=0, note=69, velocity=80, time=480),
    Message('note_off', channel=0, note=61, velocity=80, time=0),
    Message('note_off', channel=0, note=57, velocity=80, time=0),
    Message('note_off', channel=0, note=52, velocity=80, time=0),
    Message('note_off', channel=0, note=45, velocity=80, time=0),
    Message('note_on', channel=0, note=69, velocity=95, time=0),
    Message('note_on', channel=0, note=61, velocity=95, time=0),
    Message('note_on', channel=0, note=57, velocity=95, time=0),
    Message('note_on', channel=0, note=52, velocity=95, time=0),
    Message('note_on', channel=0, note=45, velocity=95, time=0),
    Message('note_off', channel=0, note=69, velocity=80, time=480),
    Message('note_off', channel=0, note=61, velocity=80, time=0),
    Message('note_off', channel=0, note=57, velocity=80, time=0),
    Message('note_off', channel=0, note=52, velocity=80, time=0),
    Message('note_off', channel=0, note=45, velocity=80, time=0),
    Message('note_on', channel=0, note=69, velocity=95, time=0),
    Message('note_on', channel=0, note=61, velocity=95, time=0),
    Message('note_on', channel=0, note=57, velocity=95, time=0),
    Message('note_on', channel=0, note=52, velocity=95, time=0),
    Message('note_on', channel=0, note=45, velocity=95, time=0),
    Message('note_off', channel=0, note=69, velocity=80, time=480),
    Message('note_off', channel=0, note=61, velocity=80, time=0),
    Message('note_off', channel=0, note=57, velocity=80, time=0),
    Message('note_off', channel=0, note=52, velocity=80, time=0),
    Message('note_off', channel=0, note=45, velocity=80, time=0),
    Message('note_on', channel=0, note=69, velocity=95, time=0),
    Message('note_on', channel=0, note=61, velocity=95, time=0),
    Message('note_on', channel=0, note=57, velocity=95, time=0),
    Message('note_on', channel=0, note=52, velocity=95, time=0),
    Message('note_on', channel=0, note=45, velocity=95, time=0),
    Message('note_off', channel=0, note=69, velocity=80, time=240),
    Message('note_off', channel=0, note=61, velocity=80, time=0),
    Message('note_off', channel=0, note=57, velocity=80, time=0),
    Message('note_off', channel=0, note=52, velocity=80, time=0),
    Message('note_off', channel=0, note=45, velocity=80, time=0),
    Message('note_on', channel=0, note=69, velocity=95, time=0),
    Message('note_on', channel=0, note=61, velocity=95, time=0),
    Message('note_on', channel=0, note=57, velocity=95, time=0),
    Message('note_on', channel=0, note=52, velocity=95, time=0),
    Message('note_on', channel=0, note=45, velocity=95, time=0),
    Message('note_off', channel=0, note=69, velocity=80, time=240),
    Message('note_off', channel=0, note=61, velocity=80, time=0),
    Message('note_off', channel=0, note=57, velocity=80, time=0),
    Message('note_off', channel=0, note=52, velocity=80, time=0),
    Message('note_off', channel=0, note=45, velocity=80, time=0),
    Message('note_on', channel=0, note=69, velocity=95, time=0),
    Message('note_on', channel=0, note=61, velocity=95, time=0),
    Message('note_on', channel=0, note=57, velocity=95, time=0),
    Message('note_on', channel=0, note=52, velocity=95, time=0),
    Message('note_on', channel=0, note=45, velocity=95, time=0),
    Message('note_off', channel=0, note=69, velocity=80, time=240),
    Message('note_off', channel=0, note=61, velocity=80, time=0),
    Message('note_off', channel=0, note=57, velocity=80, time=0),
    Message('note_off', channel=0, note=52, velocity=80, time=0),
    Message('note_off', channel=0, note=45, velocity=80, time=0),
    Message('note_on', channel=0, note=69, velocity=95, time=0),
    Message('note_on', channel=0, note=61, velocity=95, time=0),
    Message('note_on', channel=0, note=57, velocity=95, time=0),
    Message('note_on', channel=0, note=52, velocity=95, time=0),
    Message('note_on', channel=0, note=45, velocity=95, time=0),
    Message('note_off', channel=0, note=69, velocity=80, time=240),
    Message('note_off', channel=0, note=61, velocity=80, time=0),
    Message('note_off', channel=0, note=57, velocity=80, time=0),
    Message('note_off', channel=0, note=52, velocity=80, time=0),
    Message('note_off', channel=0, note=45, velocity=80, time=0),
    Message('note_on', channel=0, note=69, velocity=95, time=0),
    Message('note_on', channel=0, note=62, velocity=95, time=0),
    Message('note_on', channel=0, note=57, velocity=95, time=0),
    Message('note_on', channel=0, note=54, velocity=95, time=0),
    Message('note_on', channel=0, note=47, velocity=95, time=0),
    Message('note_off', channel=0, note=69, velocity=80, time=480),
    Message('note_off', channel=0, note=62, velocity=80, time=0),
    Message('note_off', channel=0, note=57, velocity=80, time=0),
    Message('note_off', channel=0, note=54, velocity=80, time=0),
    Message('note_off', channel=0, note=47, velocity=80, time=0),
    Message('note_on', channel=0, note=69, velocity=95, time=0),
    Message('note_on', channel=0, note=62, velocity=95, time=0),
    Message('note_on', channel=0, note=57, velocity=95, time=0),
    Message('note_on', channel=0, note=54, velocity=95, time=0),
    Message('note_on', channel=0, note=47, velocity=95, time=0),
    Message('note_off', channel=0, note=69, velocity=80, time=480),
    Message('note_off', channel=0, note=62, velocity=80, time=0),
    Message('note_off', channel=0, note=57, velocity=80, time=0),
    Message('note_off', channel=0, note=54, velocity=80, time=0),
    Message('note_off', channel=0, note=47, velocity=80, time=0),
    Message('note_on', channel=0, note=69, velocity=95, time=0),
    Message('note_on', channel=0, note=62, velocity=95, time=0),
    Message('note_on', channel=0, note=57, velocity=95, time=0),
    Message('note_on', channel=0, note=54, velocity=95, time=0),
    Message('note_on', channel=0, note=47, velocity=95, time=0),
    Message('note_off', channel=0, note=69, velocity=80, time=240),
    Message('note_off', channel=0, note=62, velocity=80, time=0),
    Message('note_off', channel=0, note=57, velocity=80, time=0),
    Message('note_off', channel=0, note=54, velocity=80, time=0),
    Message('note_off', channel=0, note=47, velocity=80, time=0),
    Message('note_on', channel=0, note=69, velocity=95, time=0),
    Message('note_on', channel=0, note=62, velocity=95, time=0),
    Message('note_on', channel=0, note=57, velocity=95, time=0),
    Message('note_on', channel=0, note=54, velocity=95, time=0),
    Message('note_on', channel=0, note=47, velocity=95, time=0),
    Message('note_off', channel=0, note=69, velocity=80, time=240),
    Message('note_off', channel=0, note=62, velocity=80, time=0),
    Message('note_off', channel=0, note=57, velocity=80, time=0),
    Message('note_off', channel=0, note=54, velocity=80, time=0),
    Message('note_off', channel=0, note=47, velocity=80, time=0),
    Message('note_on', channel=0, note=69, velocity=95, time=0),
    Message('note_on', channel=0, note=62, velocity=95, time=0),
    Message('note_on', channel=0, note=57, velocity=95, time=0),
    Message('note_on', channel=0, note=54, velocity=95, time=0),
    Message('note_on', channel=0, note=47, velocity=95, time=0),
    Message('note_off', channel=0, note=69, velocity=80, time=240),
    Message('note_off', channel=0, note=62, velocity=80, time=0),
    Message('note_off', channel=0, note=57, velocity=80, time=0),
    Message('note_off', channel=0, note=54, velocity=80, time=0),
    Message('note_off', channel=0, note=47, velocity=80, time=0),
    Message('note_on', channel=0, note=69, velocity=95, time=0),
    Message('note_on', channel=0, note=62, velocity=95, time=0),
    Message('note_on', channel=0, note=57, velocity=95, time=0),
    Message('note_on', channel=0, note=54, velocity=95, time=0),
    Message('note_on', channel=0, note=47, velocity=95, time=0),
    Message('note_off', channel=0, note=69, velocity=80, time=480),
    Message('note_off', channel=0, note=62, velocity=80, time=0),
    Message('note_off', channel=0, note=57, velocity=80, time=0),
    Message('note_off', channel=0, note=54, velocity=80, time=0),
    Message('note_off', channel=0, note=47, velocity=80, time=0),
    Message('note_on', channel=0, note=69, velocity=95, time=0),
    Message('note_on', channel=0, note=62, velocity=95, time=0),
    Message('note_on', channel=0, note=57, velocity=95, time=0),
    Message('note_on', channel=0, note=54, velocity=95, time=0),
    Message('note_on', channel=0, note=47, velocity=95, time=0),
    Message('note_off', channel=0, note=69, velocity=80, time=240),
    Message('note_off', channel=0, note=62, velocity=80, time=0),
    Message('note_off', channel=0, note=57, velocity=80, time=0),
    Message('note_off', channel=0, note=54, velocity=80, time=0),
    Message('note_off', channel=0, note=47, velocity=80, time=0),
    Message('note_on', channel=0, note=69, velocity=95, time=0),
    Message('note_on', channel=0, note=62, velocity=95, time=0),
    Message('note_on', channel=0, note=57, velocity=95, time=0),
    Message('note_on', channel=0, note=54, velocity=95, time=0),
    Message('note_on', channel=0, note=47, velocity=95, time=0),
    Message('note_off', channel=0, note=69, velocity=80, time=480),
    Message('note_off', channel=0, note=62, velocity=80, time=0),
    Message('note_off', channel=0, note=57, velocity=80, time=0),
    Message('note_off', channel=0, note=54, velocity=80, time=0),
    Message('note_off', channel=0, note=47, velocity=80, time=0),
    Message('note_on', channel=0, note=69, velocity=95, time=0),
    Message('note_on', channel=0, note=62, velocity=95, time=0),
    Message('note_on', channel=0, note=57, velocity=95, time=0),
    Message('note_on', channel=0, note=54, velocity=95, time=0),
    Message('note_on', channel=0, note=47, velocity=95, time=0),
    Message('note_off', channel=0, note=69, velocity=80, time=240),
    Message('note_off', channel=0, note=62, velocity=80, time=0),
    Message('note_off', channel=0, note=57, velocity=80, time=0),
    Message('note_off', channel=0, note=54, velocity=80, time=0),
    Message('note_off', channel=0, note=47, velocity=80, time=0),
    Message('note_on', channel=0, note=69, velocity=95, time=0),
    Message('note_on', channel=0, note=62, velocity=95, time=0),
    Message('note_on', channel=0, note=57, velocity=95, time=0),
    Message('note_on', channel=0, note=54, velocity=95, time=0),
    Message('note_on', channel=0, note=47, velocity=95, time=0),
    Message('note_off', channel=0, note=69, velocity=80, time=240),
    Message('note_off', channel=0, note=62, velocity=80, time=0),
    Message('note_off', channel=0, note=57, velocity=80, time=0),
    Message('note_off', channel=0, note=54, velocity=80, time=0),
    Message('note_off', channel=0, note=47, velocity=80, time=0),
    Message('note_on', channel=0, note=69, velocity=95, time=0),
    Message('note_on', channel=0, note=62, velocity=95, time=0),
    Message('note_on', channel=0, note=57, velocity=95, time=0),
    Message('note_on', channel=0, note=54, velocity=95, time=0),
    Message('note_on', channel=0, note=47, velocity=95, time=0),
    Message('note_off', channel=0, note=69, velocity=80, time=240),
    Message('note_off', channel=0, note=62, velocity=80, time=0),
    Message('note_off', channel=0, note=57, velocity=80, time=0),
    Message('note_off', channel=0, note=54, velocity=80, time=0),
    Message('note_off', channel=0, note=47, velocity=80, time=0),
    Message('note_on', channel=0, note=69, velocity=95, time=0),
    Message('note_on', channel=0, note=62, velocity=95, time=0),
    Message('note_on', channel=0, note=57, velocity=95, time=0),
    Message('note_on', channel=0, note=54, velocity=95, time=0),
    Message('note_on', channel=0, note=47, velocity=95, time=0),
    Message('note_off', channel=0, note=69, velocity=80, time=240),
    Message('note_off', channel=0, note=62, velocity=80, time=0),
    Message('note_off', channel=0, note=57, velocity=80, time=0),
    Message('note_off', channel=0, note=54, velocity=80, time=0),
    Message('note_off', channel=0, note=47, velocity=80, time=0),
    Message('note_on', channel=0, note=68, velocity=95, time=0),
    Message('note_on', channel=0, note=64, velocity=95, time=0),
    Message('note_on', channel=0, note=59, velocity=95, time=0),
    Message('note_on', channel=0, note=52, velocity=95, time=0),
    Message('note_off', channel=0, note=68, velocity=80, time=480),
    Message('note_off', channel=0, note=64, velocity=80, time=0),
    Message('note_off', channel=0, note=59, velocity=80, time=0),
    Message('note_off', channel=0, note=52, velocity=80, time=0),
    Message('note_on', channel=0, note=68, velocity=95, time=0),
    Message('note_on', channel=0, note=64, velocity=95, time=0),
    Message('note_on', channel=0, note=59, velocity=95, time=0),
    Message('note_on', channel=0, note=52, velocity=95, time=0),
    Message('note_off', channel=0, note=68, velocity=80, time=240),
    Message('note_off', channel=0, note=64, velocity=80, time=0),
    Message('note_off', channel=0, note=59, velocity=80, time=0),
    Message('note_off', channel=0, note=52, velocity=80, time=0),
    Message('note_on', channel=0, note=68, velocity=95, time=0),
    Message('note_on', channel=0, note=64, velocity=95, time=0),
    Message('note_on', channel=0, note=59, velocity=95, time=0),
    Message('note_on', channel=0, note=52, velocity=95, time=0),
    Message('note_off', channel=0, note=68, velocity=80, time=240),
    Message('note_off', channel=0, note=64, velocity=80, time=0),
    Message('note_off', channel=0, note=59, velocity=80, time=0),
    Message('note_off', channel=0, note=52, velocity=80, time=0),
    Message('note_on', channel=0, note=68, velocity=95, time=0),
    Message('note_on', channel=0, note=64, velocity=95, time=0),
    Message('note_on', channel=0, note=59, velocity=95, time=0),
    Message('note_on', channel=0, note=52, velocity=95, time=0),
    Message('note_off', channel=0, note=68, velocity=80, time=240),
    Message('note_off', channel=0, note=64, velocity=80, time=0),
    Message('note_off', channel=0, note=59, velocity=80, time=0),
    Message('note_off', channel=0, note=52, velocity=80, time=0),
    Message('note_on', channel=0, note=68, velocity=95, time=0),
    Message('note_on', channel=0, note=64, velocity=95, time=0),
    Message('note_on', channel=0, note=59, velocity=95, time=0),
    Message('note_on', channel=0, note=52, velocity=95, time=0),
    Message('note_off', channel=0, note=68, velocity=80, time=240),
    Message('note_off', channel=0, note=64, velocity=80, time=0),
    Message('note_off', channel=0, note=59, velocity=80, time=0),
    Message('note_off', channel=0, note=52, velocity=80, time=0),
    Message('note_on', channel=0, note=68, velocity=95, time=0),
    Message('note_on', channel=0, note=64, velocity=95, time=0),
    Message('note_on', channel=0, note=59, velocity=95, time=0),
    Message('note_on', channel=0, note=52, velocity=95, time=0),
    Message('note_off', channel=0, note=68, velocity=80, time=240),
    Message('note_off', channel=0, note=64, velocity=80, time=0),
    Message('note_off', channel=0, note=59, velocity=80, time=0),
    Message('note_off', channel=0, note=52, velocity=80, time=0),
    Message('note_on', channel=0, note=68, velocity=95, time=0),
    Message('note_on', channel=0, note=64, velocity=95, time=0),
    Message('note_on', channel=0, note=59, velocity=95, time=0),
    Message('note_on', channel=0, note=52, velocity=95, time=0),
    Message('note_off', channel=0, note=68, velocity=80, time=480),
    Message('note_off', channel=0, note=64, velocity=80, time=0),
    Message('note_off', channel=0, note=59, velocity=80, time=0),
    Message('note_off', channel=0, note=52, velocity=80, time=0),
    Message('note_on', channel=0, note=68, velocity=95, time=0),
    Message('note_on', channel=0, note=64, velocity=95, time=0),
    Message('note_on', channel=0, note=59, velocity=95, time=0),
    Message('note_on', channel=0, note=52, velocity=95, time=0),
    Message('note_off', channel=0, note=68, velocity=80, time=240),
    Message('note_off', channel=0, note=64, velocity=80, time=0),
    Message('note_off', channel=0, note=59, velocity=80, time=0),
    Message('note_off', channel=0, note=52, velocity=80, time=0),
    Message('note_on', channel=0, note=68, velocity=95, time=0),
    Message('note_on', channel=0, note=64, velocity=95, time=0),
    Message('note_on', channel=0, note=59, velocity=95, time=0),
    Message('note_on', channel=0, note=52, velocity=95, time=0),
    Message('note_off', channel=0, note=68, velocity=80, time=240),
    Message('note_off', channel=0, note=64, velocity=80, time=0),
    Message('note_off', channel=0, note=59, velocity=80, time=0),
    Message('note_off', channel=0, note=52, velocity=80, time=0),
    Message('note_on', channel=0, note=68, velocity=95, time=0),
    Message('note_on', channel=0, note=64, velocity=95, time=0),
    Message('note_on', channel=0, note=59, velocity=95, time=0),
    Message('note_on', channel=0, note=52, velocity=95, time=0),
    Message('note_off', channel=0, note=68, velocity=80, time=240),
    Message('note_off', channel=0, note=64, velocity=80, time=0),
    Message('note_off', channel=0, note=59, velocity=80, time=0),
    Message('note_off', channel=0, note=52, velocity=80, time=0),
    Message('note_on', channel=0, note=68, velocity=95, time=0),
    Message('note_on', channel=0, note=64, velocity=95, time=0),
    Message('note_on', channel=0, note=59, velocity=95, time=0),
    Message('note_on', channel=0, note=52, velocity=95, time=0),
    Message('note_off', channel=0, note=68, velocity=80, time=240),
    Message('note_off', channel=0, note=64, velocity=80, time=0),
    Message('note_off', channel=0, note=59, velocity=80, time=0),
    Message('note_off', channel=0, note=52, velocity=80, time=0),
    Message('note_on', channel=0, note=68, velocity=95, time=0),
    Message('note_on', channel=0, note=64, velocity=95, time=0),
    Message('note_on', channel=0, note=59, velocity=95, time=0),
    Message('note_on', channel=0, note=52, velocity=95, time=0),
    Message('note_off', channel=0, note=68, velocity=80, time=240),
    Message('note_off', channel=0, note=64, velocity=80, time=0),
    Message('note_off', channel=0, note=59, velocity=80, time=0),
    Message('note_off', channel=0, note=52, velocity=80, time=0),
    Message('note_on', channel=0, note=68, velocity=95, time=0),
    Message('note_on', channel=0, note=64, velocity=95, time=0),
    Message('note_on', channel=0, note=59, velocity=95, time=0),
    Message('note_on', channel=0, note=52, velocity=95, time=0),
    Message('note_off', channel=0, note=68, velocity=80, time=240),
    Message('note_off', channel=0, note=64, velocity=80, time=0),
    Message('note_off', channel=0, note=59, velocity=80, time=0),
    Message('note_off', channel=0, note=52, velocity=80, time=0),
    Message('note_on', channel=0, note=68, velocity=95, time=0),
    Message('note_on', channel=0, note=64, velocity=95, time=0),
    Message('note_on', channel=0, note=59, velocity=95, time=0),
    Message('note_on', channel=0, note=52, velocity=95, time=0),
    Message('note_off', channel=0, note=68, velocity=80, time=240),
    Message('note_off', channel=0, note=64, velocity=80, time=0),
    Message('note_off', channel=0, note=59, velocity=80, time=0),
    Message('note_off', channel=0, note=52, velocity=80, time=0),
    Message('note_on', channel=0, note=69, velocity=95, time=0),
    Message('note_on', channel=0, note=61, velocity=95, time=0),
    Message('note_on', channel=0, note=57, velocity=95, time=0),
    Message('note_on', channel=0, note=52, velocity=95, time=0),
    Message('note_on', channel=0, note=45, velocity=95, time=0),
    Message('note_off', channel=0, note=69, velocity=80, time=480),
    Message('note_off', channel=0, note=61, velocity=80, time=0),
    Message('note_off', channel=0, note=57, velocity=80, time=0),
    Message('note_off', channel=0, note=52, velocity=80, time=0),
    Message('note_off', channel=0, note=45, velocity=80, time=0),
    Message('note_on', channel=0, note=69, velocity=95, time=0),
    Message('note_on', channel=0, note=61, velocity=95, time=0),
    Message('note_on', channel=0, note=57, velocity=95, time=0),
    Message('note_on', channel=0, note=52, velocity=95, time=0),
    Message('note_on', channel=0, note=45, velocity=95, time=0),
    Message('note_off', channel=0, note=69, velocity=80, time=480),
    Message('note_off', channel=0, note=61, velocity=80, time=0),
    Message('note_off', channel=0, note=57, velocity=80, time=0),
    Message('note_off', channel=0, note=52, velocity=80, time=0),
    Message('note_off', channel=0, note=45, velocity=80, time=0),
    Message('note_on', channel=0, note=69, velocity=95, time=0),
    Message('note_on', channel=0, note=61, velocity=95, time=0),
    Message('note_on', channel=0, note=57, velocity=95, time=0),
    Message('note_on', channel=0, note=52, velocity=95, time=0),
    Message('note_on', channel=0, note=45, velocity=95, time=0),
    Message('note_off', channel=0, note=69, velocity=80, time=240),
    Message('note_off', channel=0, note=61, velocity=80, time=0),
    Message('note_off', channel=0, note=57, velocity=80, time=0),
    Message('note_off', channel=0, note=52, velocity=80, time=0),
    Message('note_off', channel=0, note=45, velocity=80, time=0),
    Message('note_on', channel=0, note=69, velocity=95, time=0),
    Message('note_on', channel=0, note=61, velocity=95, time=0),
    Message('note_on', channel=0, note=57, velocity=95, time=0),
    Message('note_on', channel=0, note=52, velocity=95, time=0),
    Message('note_on', channel=0, note=45, velocity=95, time=0),
    Message('note_off', channel=0, note=69, velocity=80, time=240),
    Message('note_off', channel=0, note=61, velocity=80, time=0),
    Message('note_off', channel=0, note=57, velocity=80, time=0),
    Message('note_off', channel=0, note=52, velocity=80, time=0),
    Message('note_off', channel=0, note=45, velocity=80, time=0),
    Message('note_on', channel=0, note=69, velocity=95, time=0),
    Message('note_on', channel=0, note=61, velocity=95, time=0),
    Message('note_on', channel=0, note=57, velocity=95, time=0),
    Message('note_on', channel=0, note=52, velocity=95, time=0),
    Message('note_on', channel=0, note=45, velocity=95, time=0),
    Message('note_off', channel=0, note=69, velocity=80, time=480),
    Message('note_off', channel=0, note=61, velocity=80, time=0),
    Message('note_off', channel=0, note=57, velocity=80, time=0),
    Message('note_off', channel=0, note=52, velocity=80, time=0),
    Message('note_off', channel=0, note=45, velocity=80, time=0),
    Message('note_on', channel=0, note=69, velocity=95, time=0),
    Message('note_on', channel=0, note=61, velocity=95, time=0),
    Message('note_on', channel=0, note=57, velocity=95, time=0),
    Message('note_on', channel=0, note=52, velocity=95, time=0),
    Message('note_on', channel=0, note=45, velocity=95, time=0),
    Message('note_off', channel=0, note=69, velocity=80, time=240),
    Message('note_off', channel=0, note=61, velocity=80, time=0),
    Message('note_off', channel=0, note=57, velocity=80, time=0),
    Message('note_off', channel=0, note=52, velocity=80, time=0),
    Message('note_off', channel=0, note=45, velocity=80, time=0),
    Message('note_on', channel=0, note=69, velocity=95, time=0),
    Message('note_on', channel=0, note=61, velocity=95, time=0),
    Message('note_on', channel=0, note=57, velocity=95, time=0),
    Message('note_on', channel=0, note=52, velocity=95, time=0),
    Message('note_on', channel=0, note=45, velocity=95, time=0),
    Message('note_off', channel=0, note=69, velocity=80, time=240),
    Message('note_off', channel=0, note=61, velocity=80, time=0),
    Message('note_off', channel=0, note=57, velocity=80, time=0),
    Message('note_off', channel=0, note=52, velocity=80, time=0),
    Message('note_off', channel=0, note=45, velocity=80, time=0),
    Message('note_on', channel=0, note=69, velocity=95, time=0),
    Message('note_on', channel=0, note=61, velocity=95, time=0),
    Message('note_on', channel=0, note=57, velocity=95, time=0),
    Message('note_on', channel=0, note=52, velocity=95, time=0),
    Message('note_on', channel=0, note=45, velocity=95, time=0),
    Message('note_off', channel=0, note=69, velocity=80, time=480),
    Message('note_off', channel=0, note=61, velocity=80, time=0),
    Message('note_off', channel=0, note=57, velocity=80, time=0),
    Message('note_off', channel=0, note=52, velocity=80, time=0),
    Message('note_off', channel=0, note=45, velocity=80, time=0),
    Message('note_on', channel=0, note=69, velocity=95, time=0),
    Message('note_on', channel=0, note=61, velocity=95, time=0),
    Message('note_on', channel=0, note=57, velocity=95, time=0),
    Message('note_on', channel=0, note=52, velocity=95, time=0),
    Message('note_on', channel=0, note=45, velocity=95, time=0),
    Message('note_off', channel=0, note=69, velocity=80, time=240),
    Message('note_off', channel=0, note=61, velocity=80, time=0),
    Message('note_off', channel=0, note=57, velocity=80, time=0),
    Message('note_off', channel=0, note=52, velocity=80, time=0),
    Message('note_off', channel=0, note=45, velocity=80, time=0),
    Message('note_on', channel=0, note=69, velocity=95, time=0),
    Message('note_on', channel=0, note=61, velocity=95, time=0),
    Message('note_on', channel=0, note=57, velocity=95, time=0),
    Message('note_on', channel=0, note=52, velocity=95, time=0),
    Message('note_on', channel=0, note=45, velocity=95, time=0),
    Message('note_off', channel=0, note=69, velocity=80, time=240),
    Message('note_off', channel=0, note=61, velocity=80, time=0),
    Message('note_off', channel=0, note=57, velocity=80, time=0),
    Message('note_off', channel=0, note=52, velocity=80, time=0),
    Message('note_off', channel=0, note=45, velocity=80, time=0),
    Message('note_on', channel=0, note=69, velocity=95, time=0),
    Message('note_on', channel=0, note=61, velocity=95, time=0),
    Message('note_on', channel=0, note=57, velocity=95, time=0),
    Message('note_on', channel=0, note=52, velocity=95, time=0),
    Message('note_on', channel=0, note=45, velocity=95, time=0),
    Message('note_off', channel=0, note=69, velocity=80, time=240),
    Message('note_off', channel=0, note=61, velocity=80, time=0),
    Message('note_off', channel=0, note=57, velocity=80, time=0),
    Message('note_off', channel=0, note=52, velocity=80, time=0),
    Message('note_off', channel=0, note=45, velocity=80, time=0),
    Message('note_on', channel=0, note=69, velocity=95, time=0),
    Message('note_on', channel=0, note=61, velocity=95, time=0),
    Message('note_on', channel=0, note=57, velocity=95, time=0),
    Message('note_on', channel=0, note=52, velocity=95, time=0),
    Message('note_on', channel=0, note=45, velocity=95, time=0),
    Message('note_off', channel=0, note=69, velocity=80, time=240),
    Message('note_off', channel=0, note=61, velocity=80, time=0),
    Message('note_off', channel=0, note=57, velocity=80, time=0),
    Message('note_off', channel=0, note=52, velocity=80, time=0),
    Message('note_off', channel=0, note=45, velocity=80, time=0),
    Message('note_on', channel=0, note=69, velocity=95, time=0),
    Message('note_on', channel=0, note=61, velocity=95, time=0),
    Message('note_on', channel=0, note=57, velocity=95, time=0),
    Message('note_on', channel=0, note=52, velocity=95, time=0),
    Message('note_on', channel=0, note=45, velocity=95, time=0),
    Message('note_off', channel=0, note=69, velocity=80, time=480),
    Message('note_off', channel=0, note=61, velocity=80, time=0),
    Message('note_off', channel=0, note=57, velocity=80, time=0),
    Message('note_off', channel=0, note=52, velocity=80, time=0),
    Message('note_off', channel=0, note=45, velocity=80, time=0),
    Message('note_on', channel=0, note=69, velocity=95, time=0),
    Message('note_on', channel=0, note=61, velocity=95, time=0),
    Message('note_on', channel=0, note=57, velocity=95, time=0),
    Message('note_on', channel=0, note=52, velocity=95, time=0),
    Message('note_on', channel=0, note=45, velocity=95, time=0),
    Message('note_off', channel=0, note=69, velocity=80, time=480),
    Message('note_off', channel=0, note=61, velocity=80, time=0),
    Message('note_off', channel=0, note=57, velocity=80, time=0),
    Message('note_off', channel=0, note=52, velocity=80, time=0),
    Message('note_off', channel=0, note=45, velocity=80, time=0),
    Message('note_on', channel=0, note=69, velocity=95, time=0),
    Message('note_on', channel=0, note=61, velocity=95, time=0),
    Message('note_on', channel=0, note=57, velocity=95, time=0),
    Message('note_on', channel=0, note=52, velocity=95, time=0),
    Message('note_on', channel=0, note=45, velocity=95, time=0),
    Message('note_off', channel=0, note=69, velocity=80, time=240),
    Message('note_off', channel=0, note=61, velocity=80, time=0),
    Message('note_off', channel=0, note=57, velocity=80, time=0),
    Message('note_off', channel=0, note=52, velocity=80, time=0),
    Message('note_off', channel=0, note=45, velocity=80, time=0),
    Message('note_on', channel=0, note=69, velocity=95, time=0),
    Message('note_on', channel=0, note=61, velocity=95, time=0),
    Message('note_on', channel=0, note=57, velocity=95, time=0),
    Message('note_on', channel=0, note=52, velocity=95, time=0),
    Message('note_on', channel=0, note=45, velocity=95, time=0),
    Message('note_off', channel=0, note=69, velocity=80, time=240),
    Message('note_off', channel=0, note=61, velocity=80, time=0),
    Message('note_off', channel=0, note=57, velocity=80, time=0),
    Message('note_off', channel=0, note=52, velocity=80, time=0),
    Message('note_off', channel=0, note=45, velocity=80, time=0),
    Message('note_on', channel=0, note=69, velocity=95, time=0),
    Message('note_on', channel=0, note=61, velocity=95, time=0),
    Message('note_on', channel=0, note=57, velocity=95, time=0),
    Message('note_on', channel=0, note=52, velocity=95, time=0),
    Message('note_on', channel=0, note=45, velocity=95, time=0),
    Message('note_off', channel=0, note=69, velocity=80, time=480),
    Message('note_off', channel=0, note=61, velocity=80, time=0),
    Message('note_off', channel=0, note=57, velocity=80, time=0),
    Message('note_off', channel=0, note=52, velocity=80, time=0),
    Message('note_off', channel=0, note=45, velocity=80, time=0),
    Message('note_on', channel=0, note=69, velocity=95, time=0),
    Message('note_on', channel=0, note=61, velocity=95, time=0),
    Message('note_on', channel=0, note=57, velocity=95, time=0),
    Message('note_on', channel=0, note=52, velocity=95, time=0),
    Message('note_on', channel=0, note=45, velocity=95, time=0),
    Message('note_off', channel=0, note=69, velocity=80, time=480),
    Message('note_off', channel=0, note=61, velocity=80, time=0),
    Message('note_off', channel=0, note=57, velocity=80, time=0),
    Message('note_off', channel=0, note=52, velocity=80, time=0),
    Message('note_off', channel=0, note=45, velocity=80, time=0),
    Message('note_on', channel=0, note=69, velocity=95, time=0),
    Message('note_on', channel=0, note=61, velocity=95, time=0),
    Message('note_on', channel=0, note=57, velocity=95, time=0),
    Message('note_on', channel=0, note=52, velocity=95, time=0),
    Message('note_on', channel=0, note=45, velocity=95, time=0),
    Message('note_off', channel=0, note=69, velocity=80, time=480),
    Message('note_off', channel=0, note=61, velocity=80, time=0),
    Message('note_off', channel=0, note=57, velocity=80, time=0),
    Message('note_off', channel=0, note=52, velocity=80, time=0),
    Message('note_off', channel=0, note=45, velocity=80, time=0),
    Message('note_on', channel=0, note=69, velocity=95, time=0),
    Message('note_on', channel=0, note=61, velocity=95, time=0),
    Message('note_on', channel=0, note=57, velocity=95, time=0),
    Message('note_on', channel=0, note=52, velocity=95, time=0),
    Message('note_on', channel=0, note=45, velocity=95, time=0),
    Message('note_off', channel=0, note=69, velocity=80, time=240),
    Message('note_off', channel=0, note=61, velocity=80, time=0),
    Message('note_off', channel=0, note=57, velocity=80, time=0),
    Message('note_off', channel=0, note=52, velocity=80, time=0),
    Message('note_off', channel=0, note=45, velocity=80, time=0),
    Message('note_on', channel=0, note=69, velocity=95, time=0),
    Message('note_on', channel=0, note=61, velocity=95, time=0),
    Message('note_on', channel=0, note=57, velocity=95, time=0),
    Message('note_on', channel=0, note=52, velocity=95, time=0),
    Message('note_on', channel=0, note=45, velocity=95, time=0),
    Message('note_off', channel=0, note=69, velocity=80, time=240),
    Message('note_off', channel=0, note=61, velocity=80, time=0),
    Message('note_off', channel=0, note=57, velocity=80, time=0),
    Message('note_off', channel=0, note=52, velocity=80, time=0),
    Message('note_off', channel=0, note=45, velocity=80, time=0),
    Message('note_on', channel=0, note=69, velocity=95, time=0),
    Message('note_on', channel=0, note=61, velocity=95, time=0),
    Message('note_on', channel=0, note=57, velocity=95, time=0),
    Message('note_on', channel=0, note=52, velocity=95, time=0),
    Message('note_on', channel=0, note=45, velocity=95, time=0),
    Message('note_off', channel=0, note=69, velocity=80, time=480),
    Message('note_off', channel=0, note=61, velocity=80, time=0),
    Message('note_off', channel=0, note=57, velocity=80, time=0),
    Message('note_off', channel=0, note=52, velocity=80, time=0),
    Message('note_off', channel=0, note=45, velocity=80, time=0),
    Message('note_on', channel=0, note=69, velocity=95, time=0),
    Message('note_on', channel=0, note=62, velocity=95, time=0),
    Message('note_on', channel=0, note=57, velocity=95, time=0),
    Message('note_on', channel=0, note=54, velocity=95, time=0),
    Message('note_on', channel=0, note=47, velocity=95, time=0),
    Message('note_off', channel=0, note=69, velocity=80, time=480),
    Message('note_off', channel=0, note=62, velocity=80, time=0),
    Message('note_off', channel=0, note=57, velocity=80, time=0),
    Message('note_off', channel=0, note=54, velocity=80, time=0),
    Message('note_off', channel=0, note=47, velocity=80, time=0),
    Message('note_on', channel=0, note=69, velocity=95, time=0),
    Message('note_on', channel=0, note=62, velocity=95, time=0),
    Message('note_on', channel=0, note=57, velocity=95, time=0),
    Message('note_on', channel=0, note=54, velocity=95, time=0),
    Message('note_on', channel=0, note=47, velocity=95, time=0),
    Message('note_off', channel=0, note=69, velocity=80, time=480),
    Message('note_off', channel=0, note=62, velocity=80, time=0),
    Message('note_off', channel=0, note=57, velocity=80, time=0),
    Message('note_off', channel=0, note=54, velocity=80, time=0),
    Message('note_off', channel=0, note=47, velocity=80, time=0),
    Message('note_on', channel=0, note=69, velocity=95, time=0),
    Message('note_on', channel=0, note=62, velocity=95, time=0),
    Message('note_on', channel=0, note=57, velocity=95, time=0),
    Message('note_on', channel=0, note=54, velocity=95, time=0),
    Message('note_on', channel=0, note=47, velocity=95, time=0),
    Message('note_off', channel=0, note=69, velocity=80, time=240),
    Message('note_off', channel=0, note=62, velocity=80, time=0),
    Message('note_off', channel=0, note=57, velocity=80, time=0),
    Message('note_off', channel=0, note=54, velocity=80, time=0),
    Message('note_off', channel=0, note=47, velocity=80, time=0),
    Message('note_on', channel=0, note=69, velocity=95, time=0),
    Message('note_on', channel=0, note=62, velocity=95, time=0),
    Message('note_on', channel=0, note=57, velocity=95, time=0),
    Message('note_on', channel=0, note=54, velocity=95, time=0),
    Message('note_on', channel=0, note=47, velocity=95, time=0),
    Message('note_off', channel=0, note=69, velocity=80, time=240),
    Message('note_off', channel=0, note=62, velocity=80, time=0),
    Message('note_off', channel=0, note=57, velocity=80, time=0),
    Message('note_off', channel=0, note=54, velocity=80, time=0),
    Message('note_off', channel=0, note=47, velocity=80, time=0),
    Message('note_on', channel=0, note=69, velocity=95, time=0),
    Message('note_on', channel=0, note=62, velocity=95, time=0),
    Message('note_on', channel=0, note=57, velocity=95, time=0),
    Message('note_on', channel=0, note=54, velocity=95, time=0),
    Message('note_on', channel=0, note=47, velocity=95, time=0),
    Message('note_off', channel=0, note=69, velocity=80, time=240),
    Message('note_off', channel=0, note=62, velocity=80, time=0),
    Message('note_off', channel=0, note=57, velocity=80, time=0),
    Message('note_off', channel=0, note=54, velocity=80, time=0),
    Message('note_off', channel=0, note=47, velocity=80, time=0),
    Message('note_on', channel=0, note=69, velocity=95, time=0),
    Message('note_on', channel=0, note=62, velocity=95, time=0),
    Message('note_on', channel=0, note=57, velocity=95, time=0),
    Message('note_on', channel=0, note=54, velocity=95, time=0),
    Message('note_on', channel=0, note=47, velocity=95, time=0),
    Message('note_off', channel=0, note=69, velocity=80, time=240),
    Message('note_off', channel=0, note=62, velocity=80, time=0),
    Message('note_off', channel=0, note=57, velocity=80, time=0),
    Message('note_off', channel=0, note=54, velocity=80, time=0),
    Message('note_off', channel=0, note=47, velocity=80, time=0),
    Message('note_on', channel=0, note=68, velocity=95, time=0),
    Message('note_on', channel=0, note=64, velocity=95, time=0),
    Message('note_on', channel=0, note=59, velocity=95, time=0),
    Message('note_on', channel=0, note=52, velocity=95, time=0),
    Message('note_off', channel=0, note=68, velocity=80, time=480),
    Message('note_off', channel=0, note=64, velocity=80, time=0),
    Message('note_off', channel=0, note=59, velocity=80, time=0),
    Message('note_off', channel=0, note=52, velocity=80, time=0),
    Message('note_on', channel=0, note=68, velocity=95, time=0),
    Message('note_on', channel=0, note=64, velocity=95, time=0),
    Message('note_on', channel=0, note=59, velocity=95, time=0),
    Message('note_on', channel=0, note=52, velocity=95, time=0),
    Message('note_off', channel=0, note=68, velocity=80, time=480),
    Message('note_off', channel=0, note=64, velocity=80, time=0),
    Message('note_off', channel=0, note=59, velocity=80, time=0),
    Message('note_off', channel=0, note=52, velocity=80, time=0),
    Message('note_on', channel=0, note=68, velocity=95, time=0),
    Message('note_on', channel=0, note=64, velocity=95, time=0),
    Message('note_on', channel=0, note=59, velocity=95, time=0),
    Message('note_on', channel=0, note=52, velocity=95, time=0),
    Message('note_off', channel=0, note=68, velocity=80, time=240),
    Message('note_off', channel=0, note=64, velocity=80, time=0),
    Message('note_off', channel=0, note=59, velocity=80, time=0),
    Message('note_off', channel=0, note=52, velocity=80, time=0),
    Message('note_on', channel=0, note=68, velocity=95, time=0),
    Message('note_on', channel=0, note=64, velocity=95, time=0),
    Message('note_on', channel=0, note=59, velocity=95, time=0),
    Message('note_on', channel=0, note=52, velocity=95, time=0),
    Message('note_off', channel=0, note=68, velocity=80, time=240),
    Message('note_off', channel=0, note=64, velocity=80, time=0),
    Message('note_off', channel=0, note=59, velocity=80, time=0),
    Message('note_off', channel=0, note=52, velocity=80, time=0),
    Message('note_on', channel=0, note=68, velocity=95, time=0),
    Message('note_on', channel=0, note=64, velocity=95, time=0),
    Message('note_on', channel=0, note=59, velocity=95, time=0),
    Message('note_on', channel=0, note=52, velocity=95, time=0),
    Message('note_off', channel=0, note=68, velocity=80, time=480),
    Message('note_off', channel=0, note=64, velocity=80, time=0),
    Message('note_off', channel=0, note=59, velocity=80, time=0),
    Message('note_off', channel=0, note=52, velocity=80, time=0),
    Message('note_on', channel=0, note=69, velocity=95, time=0),
    Message('note_on', channel=0, note=61, velocity=95, time=0),
    Message('note_on', channel=0, note=57, velocity=95, time=0),
    Message('note_on', channel=0, note=52, velocity=95, time=0),
    Message('note_on', channel=0, note=45, velocity=95, time=0),
    Message('note_off', channel=0, note=69, velocity=80, time=480),
    Message('note_off', channel=0, note=61, velocity=80, time=0),
    Message('note_off', channel=0, note=57, velocity=80, time=0),
    Message('note_off', channel=0, note=52, velocity=80, time=0),
    Message('note_off', channel=0, note=45, velocity=80, time=0),
    Message('note_on', channel=0, note=69, velocity=95, time=0),
    Message('note_on', channel=0, note=61, velocity=95, time=0),
    Message('note_on', channel=0, note=57, velocity=95, time=0),
    Message('note_on', channel=0, note=52, velocity=95, time=0),
    Message('note_on', channel=0, note=45, velocity=95, time=0),
    Message('note_off', channel=0, note=69, velocity=80, time=480),
    Message('note_off', channel=0, note=61, velocity=80, time=0),
    Message('note_off', channel=0, note=57, velocity=80, time=0),
    Message('note_off', channel=0, note=52, velocity=80, time=0),
    Message('note_off', channel=0, note=45, velocity=80, time=0),
    Message('note_on', channel=0, note=69, velocity=95, time=0),
    Message('note_on', channel=0, note=61, velocity=95, time=0),
    Message('note_on', channel=0, note=57, velocity=95, time=0),
    Message('note_on', channel=0, note=52, velocity=95, time=0),
    Message('note_on', channel=0, note=45, velocity=95, time=0),
    Message('note_off', channel=0, note=69, velocity=80, time=480),
    Message('note_off', channel=0, note=61, velocity=80, time=0),
    Message('note_off', channel=0, note=57, velocity=80, time=0),
    Message('note_off', channel=0, note=52, velocity=80, time=0),
    Message('note_off', channel=0, note=45, velocity=80, time=0),
    Message('note_on', channel=0, note=69, velocity=95, time=0),
    Message('note_on', channel=0, note=61, velocity=95, time=0),
    Message('note_on', channel=0, note=57, velocity=95, time=0),
    Message('note_on', channel=0, note=52, velocity=95, time=0),
    Message('note_on', channel=0, note=45, velocity=95, time=0),
    Message('note_off', channel=0, note=69, velocity=80, time=240),
    Message('note_off', channel=0, note=61, velocity=80, time=0),
    Message('note_off', channel=0, note=57, velocity=80, time=0),
    Message('note_off', channel=0, note=52, velocity=80, time=0),
    Message('note_off', channel=0, note=45, velocity=80, time=0),
    Message('note_on', channel=0, note=69, velocity=95, time=0),
    Message('note_on', channel=0, note=61, velocity=95, time=0),
    Message('note_on', channel=0, note=57, velocity=95, time=0),
    Message('note_on', channel=0, note=52, velocity=95, time=0),
    Message('note_on', channel=0, note=45, velocity=95, time=0),
    Message('note_off', channel=0, note=69, velocity=80, time=240),
    Message('note_off', channel=0, note=61, velocity=80, time=0),
    Message('note_off', channel=0, note=57, velocity=80, time=0),
    Message('note_off', channel=0, note=52, velocity=80, time=0),
    Message('note_off', channel=0, note=45, velocity=80, time=0),
    Message('note_on', channel=0, note=69, velocity=95, time=0),
    Message('note_on', channel=0, note=61, velocity=95, time=0),
    Message('note_on', channel=0, note=57, velocity=95, time=0),
    Message('note_on', channel=0, note=52, velocity=95, time=0),
    Message('note_on', channel=0, note=45, velocity=95, time=0),
    Message('note_off', channel=0, note=69, velocity=80, time=240),
    Message('note_off', channel=0, note=61, velocity=80, time=0),
    Message('note_off', channel=0, note=57, velocity=80, time=0),
    Message('note_off', channel=0, note=52, velocity=80, time=0),
    Message('note_off', channel=0, note=45, velocity=80, time=0),
    Message('note_on', channel=0, note=69, velocity=95, time=0),
    Message('note_on', channel=0, note=61, velocity=95, time=0),
    Message('note_on', channel=0, note=57, velocity=95, time=0),
    Message('note_on', channel=0, note=52, velocity=95, time=0),
    Message('note_on', channel=0, note=45, velocity=95, time=0),
    Message('note_off', channel=0, note=69, velocity=80, time=240),
    Message('note_off', channel=0, note=61, velocity=80, time=0),
    Message('note_off', channel=0, note=57, velocity=80, time=0),
    Message('note_off', channel=0, note=52, velocity=80, time=0),
    Message('note_off', channel=0, note=45, velocity=80, time=0),
    Message('note_on', channel=0, note=69, velocity=95, time=0),
    Message('note_on', channel=0, note=61, velocity=95, time=0),
    Message('note_on', channel=0, note=57, velocity=95, time=0),
    Message('note_on', channel=0, note=52, velocity=95, time=0),
    Message('note_on', channel=0, note=45, velocity=95, time=0),
    Message('note_off', channel=0, note=69, velocity=80, time=240),
    Message('note_off', channel=0, note=61, velocity=80, time=0),
    Message('note_off', channel=0, note=57, velocity=80, time=0),
    Message('note_off', channel=0, note=52, velocity=80, time=0),
    Message('note_off', channel=0, note=45, velocity=80, time=0),
    Message('note_on', channel=0, note=69, velocity=95, time=0),
    Message('note_on', channel=0, note=61, velocity=95, time=0),
    Message('note_on', channel=0, note=57, velocity=95, time=0),
    Message('note_on', channel=0, note=52, velocity=95, time=0),
    Message('note_on', channel=0, note=45, velocity=95, time=0),
    Message('note_off', channel=0, note=69, velocity=80, time=120),
    Message('note_off', channel=0, note=61, velocity=80, time=0),
    Message('note_off', channel=0, note=57, velocity=80, time=0),
    Message('note_off', channel=0, note=52, velocity=80, time=0),
    Message('note_off', channel=0, note=45, velocity=80, time=0),
    Message('note_on', channel=0, note=69, velocity=95, time=0),
    Message('note_on', channel=0, note=61, velocity=95, time=0),
    Message('note_on', channel=0, note=57, velocity=95, time=0),
    Message('note_on', channel=0, note=52, velocity=95, time=0),
    Message('note_on', channel=0, note=45, velocity=95, time=0),
    Message('note_off', channel=0, note=69, velocity=80, time=120),
    Message('note_off', channel=0, note=61, velocity=80, time=0),
    Message('note_off', channel=0, note=57, velocity=80, time=0),
    Message('note_off', channel=0, note=52, velocity=80, time=0),
    Message('note_off', channel=0, note=45, velocity=80, time=0),
    Message('note_on', channel=0, note=69, velocity=95, time=0),
    Message('note_on', channel=0, note=61, velocity=95, time=0),
    Message('note_on', channel=0, note=57, velocity=95, time=0),
    Message('note_on', channel=0, note=52, velocity=95, time=0),
    Message('note_on', channel=0, note=45, velocity=95, time=0),
    Message('note_off', channel=0, note=69, velocity=80, time=240),
    Message('note_off', channel=0, note=61, velocity=80, time=0),
    Message('note_off', channel=0, note=57, velocity=80, time=0),
    Message('note_off', channel=0, note=52, velocity=80, time=0),
    Message('note_off', channel=0, note=45, velocity=80, time=0),
    Message('note_on', channel=0, note=69, velocity=95, time=0),
    Message('note_on', channel=0, note=61, velocity=95, time=0),
    Message('note_on', channel=0, note=57, velocity=95, time=0),
    Message('note_on', channel=0, note=52, velocity=95, time=0),
    Message('note_on', channel=0, note=45, velocity=95, time=0),
    Message('note_off', channel=0, note=69, velocity=80, time=120),
    Message('note_off', channel=0, note=61, velocity=80, time=0),
    Message('note_off', channel=0, note=57, velocity=80, time=0),
    Message('note_off', channel=0, note=52, velocity=80, time=0),
    Message('note_off', channel=0, note=45, velocity=80, time=0),
    Message('note_on', channel=0, note=69, velocity=95, time=0),
    Message('note_on', channel=0, note=61, velocity=95, time=0),
    Message('note_on', channel=0, note=57, velocity=95, time=0),
    Message('note_on', channel=0, note=52, velocity=95, time=0),
    Message('note_on', channel=0, note=45, velocity=95, time=0),
    Message('note_off', channel=0, note=69, velocity=80, time=120),
    Message('note_off', channel=0, note=61, velocity=80, time=0),
    Message('note_off', channel=0, note=57, velocity=80, time=0),
    Message('note_off', channel=0, note=52, velocity=80, time=0),
    Message('note_off', channel=0, note=45, velocity=80, time=0),
    Message('note_on', channel=0, note=69, velocity=95, time=0),
    Message('note_on', channel=0, note=61, velocity=95, time=0),
    Message('note_on', channel=0, note=57, velocity=95, time=0),
    Message('note_on', channel=0, note=52, velocity=95, time=0),
    Message('note_on', channel=0, note=45, velocity=95, time=0),
    Message('note_off', channel=0, note=69, velocity=80, time=240),
    Message('note_off', channel=0, note=61, velocity=80, time=0),
    Message('note_off', channel=0, note=57, velocity=80, time=0),
    Message('note_off', channel=0, note=52, velocity=80, time=0),
    Message('note_off', channel=0, note=45, velocity=80, time=0),
    Message('note_on', channel=0, note=69, velocity=95, time=0),
    Message('note_on', channel=0, note=61, velocity=95, time=0),
    Message('note_on', channel=0, note=57, velocity=95, time=0),
    Message('note_on', channel=0, note=52, velocity=95, time=0),
    Message('note_on', channel=0, note=45, velocity=95, time=0),
    Message('note_off', channel=0, note=69, velocity=80, time=120),
    Message('note_off', channel=0, note=61, velocity=80, time=0),
    Message('note_off', channel=0, note=57, velocity=80, time=0),
    Message('note_off', channel=0, note=52, velocity=80, time=0),
    Message('note_off', channel=0, note=45, velocity=80, time=0),
    Message('note_on', channel=0, note=69, velocity=95, time=0),
    Message('note_on', channel=0, note=61, velocity=95, time=0),
    Message('note_on', channel=0, note=57, velocity=95, time=0),
    Message('note_on', channel=0, note=52, velocity=95, time=0),
    Message('note_on', channel=0, note=45, velocity=95, time=0),
    Message('note_off', channel=0, note=69, velocity=80, time=120),
    Message('note_off', channel=0, note=61, velocity=80, time=0),
    Message('note_off', channel=0, note=57, velocity=80, time=0),
    Message('note_off', channel=0, note=52, velocity=80, time=0),
    Message('note_off', channel=0, note=45, velocity=80, time=0),
    Message('note_on', channel=0, note=69, velocity=95, time=0),
    Message('note_on', channel=0, note=61, velocity=95, time=0),
    Message('note_on', channel=0, note=57, velocity=95, time=0),
    Message('note_on', channel=0, note=52, velocity=95, time=0),
    Message('note_on', channel=0, note=45, velocity=95, time=0),
    Message('note_off', channel=0, note=69, velocity=80, time=480),
    Message('note_off', channel=0, note=61, velocity=80, time=0),
    Message('note_off', channel=0, note=57, velocity=80, time=0),
    Message('note_off', channel=0, note=52, velocity=80, time=0),
    Message('note_off', channel=0, note=45, velocity=80, time=0),
    Message('note_on', channel=0, note=69, velocity=95, time=0),
    Message('note_on', channel=0, note=61, velocity=95, time=0),
    Message('note_on', channel=0, note=57, velocity=95, time=0),
    Message('note_on', channel=0, note=52, velocity=95, time=0),
    Message('note_on', channel=0, note=45, velocity=95, time=0),
    Message('note_off', channel=0, note=69, velocity=80, time=480),
    Message('note_off', channel=0, note=61, velocity=80, time=0),
    Message('note_off', channel=0, note=57, velocity=80, time=0),
    Message('note_off', channel=0, note=52, velocity=80, time=0),
    Message('note_off', channel=0, note=45, velocity=80, time=0),
    Message('note_on', channel=0, note=69, velocity=95, time=0),
    Message('note_on', channel=0, note=61, velocity=95, time=0),
    Message('note_on', channel=0, note=57, velocity=95, time=0),
    Message('note_on', channel=0, note=52, velocity=95, time=0),
    Message('note_on', channel=0, note=45, velocity=95, time=0),
    Message('note_off', channel=0, note=69, velocity=80, time=240),
    Message('note_off', channel=0, note=61, velocity=80, time=0),
    Message('note_off', channel=0, note=57, velocity=80, time=0),
    Message('note_off', channel=0, note=52, velocity=80, time=0),
    Message('note_off', channel=0, note=45, velocity=80, time=0),
    Message('note_on', channel=0, note=69, velocity=95, time=0),
    Message('note_on', channel=0, note=61, velocity=95, time=0),
    Message('note_on', channel=0, note=57, velocity=95, time=0),
    Message('note_on', channel=0, note=52, velocity=95, time=0),
    Message('note_on', channel=0, note=45, velocity=95, time=0),
    Message('note_off', channel=0, note=69, velocity=80, time=240),
    Message('note_off', channel=0, note=61, velocity=80, time=0),
    Message('note_off', channel=0, note=57, velocity=80, time=0),
    Message('note_off', channel=0, note=52, velocity=80, time=0),
    Message('note_off', channel=0, note=45, velocity=80, time=0),
    Message('note_on', channel=0, note=69, velocity=95, time=0),
    Message('note_on', channel=0, note=61, velocity=95, time=0),
    Message('note_on', channel=0, note=57, velocity=95, time=0),
    Message('note_on', channel=0, note=52, velocity=95, time=0),
    Message('note_on', channel=0, note=45, velocity=95, time=0),
    Message('note_off', channel=0, note=69, velocity=80, time=480),
    Message('note_off', channel=0, note=61, velocity=80, time=0),
    Message('note_off', channel=0, note=57, velocity=80, time=0),
    Message('note_off', channel=0, note=52, velocity=80, time=0),
    Message('note_off', channel=0, note=45, velocity=80, time=0),
    Message('note_on', channel=0, note=69, velocity=95, time=0),
    Message('note_on', channel=0, note=61, velocity=95, time=0),
    Message('note_on', channel=0, note=57, velocity=95, time=0),
    Message('note_on', channel=0, note=52, velocity=95, time=0),
    Message('note_on', channel=0, note=45, velocity=95, time=0),
    Message('note_off', channel=0, note=69, velocity=80, time=240),
    Message('note_off', channel=0, note=61, velocity=80, time=0),
    Message('note_off', channel=0, note=57, velocity=80, time=0),
    Message('note_off', channel=0, note=52, velocity=80, time=0),
    Message('note_off', channel=0, note=45, velocity=80, time=0),
    Message('note_on', channel=0, note=69, velocity=95, time=0),
    Message('note_on', channel=0, note=61, velocity=95, time=0),
    Message('note_on', channel=0, note=57, velocity=95, time=0),
    Message('note_on', channel=0, note=52, velocity=95, time=0),
    Message('note_on', channel=0, note=45, velocity=95, time=0),
    Message('note_off', channel=0, note=69, velocity=80, time=240),
    Message('note_off', channel=0, note=61, velocity=80, time=0),
    Message('note_off', channel=0, note=57, velocity=80, time=0),
    Message('note_off', channel=0, note=52, velocity=80, time=0),
    Message('note_off', channel=0, note=45, velocity=80, time=0),
    Message('note_on', channel=0, note=69, velocity=95, time=0),
    Message('note_on', channel=0, note=61, velocity=95, time=0),
    Message('note_on', channel=0, note=57, velocity=95, time=0),
    Message('note_on', channel=0, note=52, velocity=95, time=0),
    Message('note_on', channel=0, note=45, velocity=95, time=0),
    Message('note_off', channel=0, note=69, velocity=80, time=480),
    Message('note_off', channel=0, note=61, velocity=80, time=0),
    Message('note_off', channel=0, note=57, velocity=80, time=0),
    Message('note_off', channel=0, note=52, velocity=80, time=0),
    Message('note_off', channel=0, note=45, velocity=80, time=0),
    Message('note_on', channel=0, note=69, velocity=95, time=0),
    Message('note_on', channel=0, note=61, velocity=95, time=0),
    Message('note_on', channel=0, note=57, velocity=95, time=0),
    Message('note_on', channel=0, note=52, velocity=95, time=0),
    Message('note_on', channel=0, note=45, velocity=95, time=0),
    Message('note_off', channel=0, note=69, velocity=80, time=240),
    Message('note_off', channel=0, note=61, velocity=80, time=0),
    Message('note_off', channel=0, note=57, velocity=80, time=0),
    Message('note_off', channel=0, note=52, velocity=80, time=0),
    Message('note_off', channel=0, note=45, velocity=80, time=0),
    Message('note_on', channel=0, note=69, velocity=95, time=0),
    Message('note_on', channel=0, note=61, velocity=95, time=0),
    Message('note_on', channel=0, note=57, velocity=95, time=0),
    Message('note_on', channel=0, note=52, velocity=95, time=0),
    Message('note_on', channel=0, note=45, velocity=95, time=0),
    Message('note_off', channel=0, note=69, velocity=80, time=240),
    Message('note_off', channel=0, note=61, velocity=80, time=0),
    Message('note_off', channel=0, note=57, velocity=80, time=0),
    Message('note_off', channel=0, note=52, velocity=80, time=0),
    Message('note_off', channel=0, note=45, velocity=80, time=0),
    Message('note_on', channel=0, note=69, velocity=95, time=0),
    Message('note_on', channel=0, note=61, velocity=95, time=0),
    Message('note_on', channel=0, note=57, velocity=95, time=0),
    Message('note_on', channel=0, note=52, velocity=95, time=0),
    Message('note_on', channel=0, note=45, velocity=95, time=0),
    Message('note_off', channel=0, note=69, velocity=80, time=240),
    Message('note_off', channel=0, note=61, velocity=80, time=0),
    Message('note_off', channel=0, note=57, velocity=80, time=0),
    Message('note_off', channel=0, note=52, velocity=80, time=0),
    Message('note_off', channel=0, note=45, velocity=80, time=0),
    Message('note_on', channel=0, note=69, velocity=95, time=0),
    Message('note_on', channel=0, note=61, velocity=95, time=0),
    Message('note_on', channel=0, note=57, velocity=95, time=0),
    Message('note_on', channel=0, note=52, velocity=95, time=0),
    Message('note_on', channel=0, note=45, velocity=95, time=0),
    Message('note_off', channel=0, note=69, velocity=80, time=240),
    Message('note_off', channel=0, note=61, velocity=80, time=0),
    Message('note_off', channel=0, note=57, velocity=80, time=0),
    Message('note_off', channel=0, note=52, velocity=80, time=0),
    Message('note_off', channel=0, note=45, velocity=80, time=0),
    Message('note_on', channel=0, note=69, velocity=95, time=0),
    Message('note_on', channel=0, note=61, velocity=95, time=0),
    Message('note_on', channel=0, note=57, velocity=95, time=0),
    Message('note_on', channel=0, note=52, velocity=95, time=0),
    Message('note_on', channel=0, note=45, velocity=95, time=0),
    Message('note_off', channel=0, note=69, velocity=80, time=480),
    Message('note_off', channel=0, note=61, velocity=80, time=0),
    Message('note_off', channel=0, note=57, velocity=80, time=0),
    Message('note_off', channel=0, note=52, velocity=80, time=0),
    Message('note_off', channel=0, note=45, velocity=80, time=0),
    Message('note_on', channel=0, note=69, velocity=95, time=0),
    Message('note_on', channel=0, note=61, velocity=95, time=0),
    Message('note_on', channel=0, note=57, velocity=95, time=0),
    Message('note_on', channel=0, note=52, velocity=95, time=0),
    Message('note_on', channel=0, note=45, velocity=95, time=0),
    Message('note_off', channel=0, note=69, velocity=80, time=480),
    Message('note_off', channel=0, note=61, velocity=80, time=0),
    Message('note_off', channel=0, note=57, velocity=80, time=0),
    Message('note_off', channel=0, note=52, velocity=80, time=0),
    Message('note_off', channel=0, note=45, velocity=80, time=0),
    Message('note_on', channel=0, note=69, velocity=95, time=0),
    Message('note_on', channel=0, note=61, velocity=95, time=0),
    Message('note_on', channel=0, note=57, velocity=95, time=0),
    Message('note_on', channel=0, note=52, velocity=95, time=0),
    Message('note_on', channel=0, note=45, velocity=95, time=0),
    Message('note_off', channel=0, note=69, velocity=80, time=240),
    Message('note_off', channel=0, note=61, velocity=80, time=0),
    Message('note_off', channel=0, note=57, velocity=80, time=0),
    Message('note_off', channel=0, note=52, velocity=80, time=0),
    Message('note_off', channel=0, note=45, velocity=80, time=0),
    Message('note_on', channel=0, note=69, velocity=95, time=0),
    Message('note_on', channel=0, note=61, velocity=95, time=0),
    Message('note_on', channel=0, note=57, velocity=95, time=0),
    Message('note_on', channel=0, note=52, velocity=95, time=0),
    Message('note_on', channel=0, note=45, velocity=95, time=0),
    Message('note_off', channel=0, note=69, velocity=80, time=240),
    Message('note_off', channel=0, note=61, velocity=80, time=0),
    Message('note_off', channel=0, note=57, velocity=80, time=0),
    Message('note_off', channel=0, note=52, velocity=80, time=0),
    Message('note_off', channel=0, note=45, velocity=80, time=0),
    Message('note_on', channel=0, note=69, velocity=95, time=0),
    Message('note_on', channel=0, note=61, velocity=95, time=0),
    Message('note_on', channel=0, note=57, velocity=95, time=0),
    Message('note_on', channel=0, note=52, velocity=95, time=0),
    Message('note_on', channel=0, note=45, velocity=95, time=0),
    Message('note_off', channel=0, note=69, velocity=80, time=480),
    Message('note_off', channel=0, note=61, velocity=80, time=0),
    Message('note_off', channel=0, note=57, velocity=80, time=0),
    Message('note_off', channel=0, note=52, velocity=80, time=0),
    Message('note_off', channel=0, note=45, velocity=80, time=0),
    Message('note_on', channel=0, note=69, velocity=95, time=0),
    Message('note_on', channel=0, note=61, velocity=95, time=0),
    Message('note_on', channel=0, note=57, velocity=95, time=0),
    Message('note_on', channel=0, note=52, velocity=95, time=0),
    Message('note_on', channel=0, note=45, velocity=95, time=0),
    Message('note_off', channel=0, note=69, velocity=80, time=480),
    Message('note_off', channel=0, note=61, velocity=80, time=0),
    Message('note_off', channel=0, note=57, velocity=80, time=0),
    Message('note_off', channel=0, note=52, velocity=80, time=0),
    Message('note_off', channel=0, note=45, velocity=80, time=0),
    Message('note_on', channel=0, note=69, velocity=95, time=0),
    Message('note_on', channel=0, note=61, velocity=95, time=0),
    Message('note_on', channel=0, note=57, velocity=95, time=0),
    Message('note_on', channel=0, note=52, velocity=95, time=0),
    Message('note_on', channel=0, note=45, velocity=95, time=0),
    Message('note_off', channel=0, note=69, velocity=80, time=480),
    Message('note_off', channel=0, note=61, velocity=80, time=0),
    Message('note_off', channel=0, note=57, velocity=80, time=0),
    Message('note_off', channel=0, note=52, velocity=80, time=0),
    Message('note_off', channel=0, note=45, velocity=80, time=0),
    Message('note_on', channel=0, note=69, velocity=95, time=0),
    Message('note_on', channel=0, note=61, velocity=95, time=0),
    Message('note_on', channel=0, note=57, velocity=95, time=0),
    Message('note_on', channel=0, note=52, velocity=95, time=0),
    Message('note_on', channel=0, note=45, velocity=95, time=0),
    Message('note_off', channel=0, note=69, velocity=80, time=240),
    Message('note_off', channel=0, note=61, velocity=80, time=0),
    Message('note_off', channel=0, note=57, velocity=80, time=0),
    Message('note_off', channel=0, note=52, velocity=80, time=0),
    Message('note_off', channel=0, note=45, velocity=80, time=0),
    Message('note_on', channel=0, note=69, velocity=95, time=0),
    Message('note_on', channel=0, note=61, velocity=95, time=0),
    Message('note_on', channel=0, note=57, velocity=95, time=0),
    Message('note_on', channel=0, note=52, velocity=95, time=0),
    Message('note_on', channel=0, note=45, velocity=95, time=0),
    Message('note_off', channel=0, note=69, velocity=80, time=240),
    Message('note_off', channel=0, note=61, velocity=80, time=0),
    Message('note_off', channel=0, note=57, velocity=80, time=0),
    Message('note_off', channel=0, note=52, velocity=80, time=0),
    Message('note_off', channel=0, note=45, velocity=80, time=0),
    Message('note_on', channel=0, note=69, velocity=95, time=0),
    Message('note_on', channel=0, note=61, velocity=95, time=0),
    Message('note_on', channel=0, note=57, velocity=95, time=0),
    Message('note_on', channel=0, note=52, velocity=95, time=0),
    Message('note_on', channel=0, note=45, velocity=95, time=0),
    Message('note_off', channel=0, note=69, velocity=80, time=240),
    Message('note_off', channel=0, note=61, velocity=80, time=0),
    Message('note_off', channel=0, note=57, velocity=80, time=0),
    Message('note_off', channel=0, note=52, velocity=80, time=0),
    Message('note_off', channel=0, note=45, velocity=80, time=0),
    Message('note_on', channel=0, note=69, velocity=95, time=0),
    Message('note_on', channel=0, note=61, velocity=95, time=0),
    Message('note_on', channel=0, note=57, velocity=95, time=0),
    Message('note_on', channel=0, note=52, velocity=95, time=0),
    Message('note_on', channel=0, note=45, velocity=95, time=0),
    Message('note_off', channel=0, note=69, velocity=80, time=240),
    Message('note_off', channel=0, note=61, velocity=80, time=0),
    Message('note_off', channel=0, note=57, velocity=80, time=0),
    Message('note_off', channel=0, note=52, velocity=80, time=0),
    Message('note_off', channel=0, note=45, velocity=80, time=0),
    Message('note_on', channel=0, note=69, velocity=95, time=0),
    Message('note_on', channel=0, note=62, velocity=95, time=0),
    Message('note_on', channel=0, note=57, velocity=95, time=0),
    Message('note_on', channel=0, note=54, velocity=95, time=0),
    Message('note_on', channel=0, note=47, velocity=95, time=0),
    Message('note_off', channel=0, note=69, velocity=80, time=480),
    Message('note_off', channel=0, note=62, velocity=80, time=0),
    Message('note_off', channel=0, note=57, velocity=80, time=0),
    Message('note_off', channel=0, note=54, velocity=80, time=0),
    Message('note_off', channel=0, note=47, velocity=80, time=0),
    Message('note_on', channel=0, note=69, velocity=95, time=0),
    Message('note_on', channel=0, note=62, velocity=95, time=0),
    Message('note_on', channel=0, note=57, velocity=95, time=0),
    Message('note_on', channel=0, note=54, velocity=95, time=0),
    Message('note_on', channel=0, note=47, velocity=95, time=0),
    Message('note_off', channel=0, note=69, velocity=80, time=480),
    Message('note_off', channel=0, note=62, velocity=80, time=0),
    Message('note_off', channel=0, note=57, velocity=80, time=0),
    Message('note_off', channel=0, note=54, velocity=80, time=0),
    Message('note_off', channel=0, note=47, velocity=80, time=0),
    Message('note_on', channel=0, note=69, velocity=95, time=0),
    Message('note_on', channel=0, note=62, velocity=95, time=0),
    Message('note_on', channel=0, note=57, velocity=95, time=0),
    Message('note_on', channel=0, note=54, velocity=95, time=0),
    Message('note_on', channel=0, note=47, velocity=95, time=0),
    Message('note_off', channel=0, note=69, velocity=80, time=240),
    Message('note_off', channel=0, note=62, velocity=80, time=0),
    Message('note_off', channel=0, note=57, velocity=80, time=0),
    Message('note_off', channel=0, note=54, velocity=80, time=0),
    Message('note_off', channel=0, note=47, velocity=80, time=0),
    Message('note_on', channel=0, note=69, velocity=95, time=0),
    Message('note_on', channel=0, note=62, velocity=95, time=0),
    Message('note_on', channel=0, note=57, velocity=95, time=0),
    Message('note_on', channel=0, note=54, velocity=95, time=0),
    Message('note_on', channel=0, note=47, velocity=95, time=0),
    Message('note_off', channel=0, note=69, velocity=80, time=240),
    Message('note_off', channel=0, note=62, velocity=80, time=0),
    Message('note_off', channel=0, note=57, velocity=80, time=0),
    Message('note_off', channel=0, note=54, velocity=80, time=0),
    Message('note_off', channel=0, note=47, velocity=80, time=0),
    Message('note_on', channel=0, note=69, velocity=95, time=0),
    Message('note_on', channel=0, note=62, velocity=95, time=0),
    Message('note_on', channel=0, note=57, velocity=95, time=0),
    Message('note_on', channel=0, note=54, velocity=95, time=0),
    Message('note_on', channel=0, note=47, velocity=95, time=0),
    Message('note_off', channel=0, note=69, velocity=80, time=240),
    Message('note_off', channel=0, note=62, velocity=80, time=0),
    Message('note_off', channel=0, note=57, velocity=80, time=0),
    Message('note_off', channel=0, note=54, velocity=80, time=0),
    Message('note_off', channel=0, note=47, velocity=80, time=0),
    Message('note_on', channel=0, note=69, velocity=95, time=0),
    Message('note_on', channel=0, note=62, velocity=95, time=0),
    Message('note_on', channel=0, note=57, velocity=95, time=0),
    Message('note_on', channel=0, note=54, velocity=95, time=0),
    Message('note_on', channel=0, note=47, velocity=95, time=0),
    Message('note_off', channel=0, note=69, velocity=80, time=480),
    Message('note_off', channel=0, note=62, velocity=80, time=0),
    Message('note_off', channel=0, note=57, velocity=80, time=0),
    Message('note_off', channel=0, note=54, velocity=80, time=0),
    Message('note_off', channel=0, note=47, velocity=80, time=0),
    Message('note_on', channel=0, note=69, velocity=95, time=0),
    Message('note_on', channel=0, note=62, velocity=95, time=0),
    Message('note_on', channel=0, note=57, velocity=95, time=0),
    Message('note_on', channel=0, note=54, velocity=95, time=0),
    Message('note_on', channel=0, note=47, velocity=95, time=0),
    Message('note_off', channel=0, note=69, velocity=80, time=240),
    Message('note_off', channel=0, note=62, velocity=80, time=0),
    Message('note_off', channel=0, note=57, velocity=80, time=0),
    Message('note_off', channel=0, note=54, velocity=80, time=0),
    Message('note_off', channel=0, note=47, velocity=80, time=0),
    Message('note_on', channel=0, note=69, velocity=95, time=0),
    Message('note_on', channel=0, note=62, velocity=95, time=0),
    Message('note_on', channel=0, note=57, velocity=95, time=0),
    Message('note_on', channel=0, note=54, velocity=95, time=0),
    Message('note_on', channel=0, note=47, velocity=95, time=0),
    Message('note_off', channel=0, note=69, velocity=80, time=480),
    Message('note_off', channel=0, note=62, velocity=80, time=0),
    Message('note_off', channel=0, note=57, velocity=80, time=0),
    Message('note_off', channel=0, note=54, velocity=80, time=0),
    Message('note_off', channel=0, note=47, velocity=80, time=0),
    Message('note_on', channel=0, note=69, velocity=95, time=0),
    Message('note_on', channel=0, note=62, velocity=95, time=0),
    Message('note_on', channel=0, note=57, velocity=95, time=0),
    Message('note_on', channel=0, note=54, velocity=95, time=0),
    Message('note_on', channel=0, note=47, velocity=95, time=0),
    Message('note_off', channel=0, note=69, velocity=80, time=240),
    Message('note_off', channel=0, note=62, velocity=80, time=0),
    Message('note_off', channel=0, note=57, velocity=80, time=0),
    Message('note_off', channel=0, note=54, velocity=80, time=0),
    Message('note_off', channel=0, note=47, velocity=80, time=0),
    Message('note_on', channel=0, note=69, velocity=95, time=0),
    Message('note_on', channel=0, note=62, velocity=95, time=0),
    Message('note_on', channel=0, note=57, velocity=95, time=0),
    Message('note_on', channel=0, note=54, velocity=95, time=0),
    Message('note_on', channel=0, note=47, velocity=95, time=0),
    Message('note_off', channel=0, note=69, velocity=80, time=240),
    Message('note_off', channel=0, note=62, velocity=80, time=0),
    Message('note_off', channel=0, note=57, velocity=80, time=0),
    Message('note_off', channel=0, note=54, velocity=80, time=0),
    Message('note_off', channel=0, note=47, velocity=80, time=0),
    Message('note_on', channel=0, note=69, velocity=95, time=0),
    Message('note_on', channel=0, note=62, velocity=95, time=0),
    Message('note_on', channel=0, note=57, velocity=95, time=0),
    Message('note_on', channel=0, note=54, velocity=95, time=0),
    Message('note_on', channel=0, note=47, velocity=95, time=0),
    Message('note_off', channel=0, note=69, velocity=80, time=240),
    Message('note_off', channel=0, note=62, velocity=80, time=0),
    Message('note_off', channel=0, note=57, velocity=80, time=0),
    Message('note_off', channel=0, note=54, velocity=80, time=0),
    Message('note_off', channel=0, note=47, velocity=80, time=0),
    Message('note_on', channel=0, note=69, velocity=95, time=0),
    Message('note_on', channel=0, note=62, velocity=95, time=0),
    Message('note_on', channel=0, note=57, velocity=95, time=0),
    Message('note_on', channel=0, note=54, velocity=95, time=0),
    Message('note_on', channel=0, note=47, velocity=95, time=0),
    Message('note_off', channel=0, note=69, velocity=80, time=240),
    Message('note_off', channel=0, note=62, velocity=80, time=0),
    Message('note_off', channel=0, note=57, velocity=80, time=0),
    Message('note_off', channel=0, note=54, velocity=80, time=0),
    Message('note_off', channel=0, note=47, velocity=80, time=0),
    Message('note_on', channel=0, note=68, velocity=95, time=0),
    Message('note_on', channel=0, note=64, velocity=95, time=0),
    Message('note_on', channel=0, note=59, velocity=95, time=0),
    Message('note_on', channel=0, note=52, velocity=95, time=0),
    Message('note_off', channel=0, note=68, velocity=80, time=480),
    Message('note_off', channel=0, note=64, velocity=80, time=0),
    Message('note_off', channel=0, note=59, velocity=80, time=0),
    Message('note_off', channel=0, note=52, velocity=80, time=0),
    Message('note_on', channel=0, note=68, velocity=95, time=0),
    Message('note_on', channel=0, note=64, velocity=95, time=0),
    Message('note_on', channel=0, note=59, velocity=95, time=0),
    Message('note_on', channel=0, note=52, velocity=95, time=0),
    Message('note_off', channel=0, note=68, velocity=80, time=240),
    Message('note_off', channel=0, note=64, velocity=80, time=0),
    Message('note_off', channel=0, note=59, velocity=80, time=0),
    Message('note_off', channel=0, note=52, velocity=80, time=0),
    Message('note_on', channel=0, note=68, velocity=95, time=0),
    Message('note_on', channel=0, note=64, velocity=95, time=0),
    Message('note_on', channel=0, note=59, velocity=95, time=0),
    Message('note_on', channel=0, note=52, velocity=95, time=0),
    Message('note_off', channel=0, note=68, velocity=80, time=240),
    Message('note_off', channel=0, note=64, velocity=80, time=0),
    Message('note_off', channel=0, note=59, velocity=80, time=0),
    Message('note_off', channel=0, note=52, velocity=80, time=0),
    Message('note_on', channel=0, note=68, velocity=95, time=0),
    Message('note_on', channel=0, note=64, velocity=95, time=0),
    Message('note_on', channel=0, note=59, velocity=95, time=0),
    Message('note_on', channel=0, note=52, velocity=95, time=0),
    Message('note_off', channel=0, note=68, velocity=80, time=240),
    Message('note_off', channel=0, note=64, velocity=80, time=0),
    Message('note_off', channel=0, note=59, velocity=80, time=0),
    Message('note_off', channel=0, note=52, velocity=80, time=0),
    Message('note_on', channel=0, note=68, velocity=95, time=0),
    Message('note_on', channel=0, note=64, velocity=95, time=0),
    Message('note_on', channel=0, note=59, velocity=95, time=0),
    Message('note_on', channel=0, note=52, velocity=95, time=0),
    Message('note_off', channel=0, note=68, velocity=80, time=240),
    Message('note_off', channel=0, note=64, velocity=80, time=0),
    Message('note_off', channel=0, note=59, velocity=80, time=0),
    Message('note_off', channel=0, note=52, velocity=80, time=0),
    Message('note_on', channel=0, note=68, velocity=95, time=0),
    Message('note_on', channel=0, note=64, velocity=95, time=0),
    Message('note_on', channel=0, note=59, velocity=95, time=0),
    Message('note_on', channel=0, note=52, velocity=95, time=0),
    Message('note_off', channel=0, note=68, velocity=80, time=240),
    Message('note_off', channel=0, note=64, velocity=80, time=0),
    Message('note_off', channel=0, note=59, velocity=80, time=0),
    Message('note_off', channel=0, note=52, velocity=80, time=0),
    Message('note_on', channel=0, note=68, velocity=95, time=0),
    Message('note_on', channel=0, note=64, velocity=95, time=0),
    Message('note_on', channel=0, note=59, velocity=95, time=0),
    Message('note_on', channel=0, note=52, velocity=95, time=0),
    Message('note_off', channel=0, note=68, velocity=80, time=480),
    Message('note_off', channel=0, note=64, velocity=80, time=0),
    Message('note_off', channel=0, note=59, velocity=80, time=0),
    Message('note_off', channel=0, note=52, velocity=80, time=0),
    Message('note_on', channel=0, note=68, velocity=95, time=0),
    Message('note_on', channel=0, note=64, velocity=95, time=0),
    Message('note_on', channel=0, note=59, velocity=95, time=0),
    Message('note_on', channel=0, note=52, velocity=95, time=0),
    Message('note_off', channel=0, note=68, velocity=80, time=240),
    Message('note_off', channel=0, note=64, velocity=80, time=0),
    Message('note_off', channel=0, note=59, velocity=80, time=0),
    Message('note_off', channel=0, note=52, velocity=80, time=0),
    Message('note_on', channel=0, note=68, velocity=95, time=0),
    Message('note_on', channel=0, note=64, velocity=95, time=0),
    Message('note_on', channel=0, note=59, velocity=95, time=0),
    Message('note_on', channel=0, note=52, velocity=95, time=0),
    Message('note_off', channel=0, note=68, velocity=80, time=240),
    Message('note_off', channel=0, note=64, velocity=80, time=0),
    Message('note_off', channel=0, note=59, velocity=80, time=0),
    Message('note_off', channel=0, note=52, velocity=80, time=0),
    Message('note_on', channel=0, note=68, velocity=95, time=0),
    Message('note_on', channel=0, note=64, velocity=95, time=0),
    Message('note_on', channel=0, note=59, velocity=95, time=0),
    Message('note_on', channel=0, note=52, velocity=95, time=0),
    Message('note_off', channel=0, note=68, velocity=80, time=240),
    Message('note_off', channel=0, note=64, velocity=80, time=0),
    Message('note_off', channel=0, note=59, velocity=80, time=0),
    Message('note_off', channel=0, note=52, velocity=80, time=0),
    Message('note_on', channel=0, note=68, velocity=95, time=0),
    Message('note_on', channel=0, note=64, velocity=95, time=0),
    Message('note_on', channel=0, note=59, velocity=95, time=0),
    Message('note_on', channel=0, note=52, velocity=95, time=0),
    Message('note_off', channel=0, note=68, velocity=80, time=240),
    Message('note_off', channel=0, note=64, velocity=80, time=0),
    Message('note_off', channel=0, note=59, velocity=80, time=0),
    Message('note_off', channel=0, note=52, velocity=80, time=0),
    Message('note_on', channel=0, note=68, velocity=95, time=0),
    Message('note_on', channel=0, note=64, velocity=95, time=0),
    Message('note_on', channel=0, note=59, velocity=95, time=0),
    Message('note_on', channel=0, note=52, velocity=95, time=0),
    Message('note_off', channel=0, note=68, velocity=80, time=240),
    Message('note_off', channel=0, note=64, velocity=80, time=0),
    Message('note_off', channel=0, note=59, velocity=80, time=0),
    Message('note_off', channel=0, note=52, velocity=80, time=0),
    Message('note_on', channel=0, note=68, velocity=95, time=0),
    Message('note_on', channel=0, note=64, velocity=95, time=0),
    Message('note_on', channel=0, note=59, velocity=95, time=0),
    Message('note_on', channel=0, note=52, velocity=95, time=0),
    Message('note_off', channel=0, note=68, velocity=80, time=240),
    Message('note_off', channel=0, note=64, velocity=80, time=0),
    Message('note_off', channel=0, note=59, velocity=80, time=0),
    Message('note_off', channel=0, note=52, velocity=80, time=0),
    Message('note_on', channel=0, note=68, velocity=95, time=0),
    Message('note_on', channel=0, note=64, velocity=95, time=0),
    Message('note_on', channel=0, note=59, velocity=95, time=0),
    Message('note_on', channel=0, note=52, velocity=95, time=0),
    Message('note_off', channel=0, note=68, velocity=80, time=240),
    Message('note_off', channel=0, note=64, velocity=80, time=0),
    Message('note_off', channel=0, note=59, velocity=80, time=0),
    Message('note_off', channel=0, note=52, velocity=80, time=0),
    Message('note_on', channel=0, note=69, velocity=95, time=0),
    Message('note_on', channel=0, note=61, velocity=95, time=0),
    Message('note_on', channel=0, note=57, velocity=95, time=0),
    Message('note_on', channel=0, note=52, velocity=95, time=0),
    Message('note_on', channel=0, note=45, velocity=95, time=0),
    Message('note_off', channel=0, note=69, velocity=80, time=480),
    Message('note_off', channel=0, note=61, velocity=80, time=0),
    Message('note_off', channel=0, note=57, velocity=80, time=0),
    Message('note_off', channel=0, note=52, velocity=80, time=0),
    Message('note_off', channel=0, note=45, velocity=80, time=0),
    Message('note_on', channel=0, note=69, velocity=95, time=0),
    Message('note_on', channel=0, note=61, velocity=95, time=0),
    Message('note_on', channel=0, note=57, velocity=95, time=0),
    Message('note_on', channel=0, note=52, velocity=95, time=0),
    Message('note_on', channel=0, note=45, velocity=95, time=0),
    Message('note_off', channel=0, note=69, velocity=80, time=480),
    Message('note_off', channel=0, note=61, velocity=80, time=0),
    Message('note_off', channel=0, note=57, velocity=80, time=0),
    Message('note_off', channel=0, note=52, velocity=80, time=0),
    Message('note_off', channel=0, note=45, velocity=80, time=0),
    Message('note_on', channel=0, note=69, velocity=95, time=0),
    Message('note_on', channel=0, note=61, velocity=95, time=0),
    Message('note_on', channel=0, note=57, velocity=95, time=0),
    Message('note_on', channel=0, note=52, velocity=95, time=0),
    Message('note_on', channel=0, note=45, velocity=95, time=0),
    Message('note_off', channel=0, note=69, velocity=80, time=240),
    Message('note_off', channel=0, note=61, velocity=80, time=0),
    Message('note_off', channel=0, note=57, velocity=80, time=0),
    Message('note_off', channel=0, note=52, velocity=80, time=0),
    Message('note_off', channel=0, note=45, velocity=80, time=0),
    Message('note_on', channel=0, note=69, velocity=95, time=0),
    Message('note_on', channel=0, note=61, velocity=95, time=0),
    Message('note_on', channel=0, note=57, velocity=95, time=0),
    Message('note_on', channel=0, note=52, velocity=95, time=0),
    Message('note_on', channel=0, note=45, velocity=95, time=0),
    Message('note_off', channel=0, note=69, velocity=80, time=240),
    Message('note_off', channel=0, note=61, velocity=80, time=0),
    Message('note_off', channel=0, note=57, velocity=80, time=0),
    Message('note_off', channel=0, note=52, velocity=80, time=0),
    Message('note_off', channel=0, note=45, velocity=80, time=0),
    Message('note_on', channel=0, note=69, velocity=95, time=0),
    Message('note_on', channel=0, note=61, velocity=95, time=0),
    Message('note_on', channel=0, note=57, velocity=95, time=0),
    Message('note_on', channel=0, note=52, velocity=95, time=0),
    Message('note_on', channel=0, note=45, velocity=95, time=0),
    Message('note_off', channel=0, note=69, velocity=80, time=480),
    Message('note_off', channel=0, note=61, velocity=80, time=0),
    Message('note_off', channel=0, note=57, velocity=80, time=0),
    Message('note_off', channel=0, note=52, velocity=80, time=0),
    Message('note_off', channel=0, note=45, velocity=80, time=0),
    Message('note_on', channel=0, note=69, velocity=95, time=0),
    Message('note_on', channel=0, note=61, velocity=95, time=0),
    Message('note_on', channel=0, note=57, velocity=95, time=0),
    Message('note_on', channel=0, note=52, velocity=95, time=0),
    Message('note_on', channel=0, note=45, velocity=95, time=0),
    Message('note_off', channel=0, note=69, velocity=80, time=240),
    Message('note_off', channel=0, note=61, velocity=80, time=0),
    Message('note_off', channel=0, note=57, velocity=80, time=0),
    Message('note_off', channel=0, note=52, velocity=80, time=0),
    Message('note_off', channel=0, note=45, velocity=80, time=0),
    Message('note_on', channel=0, note=69, velocity=95, time=0),
    Message('note_on', channel=0, note=61, velocity=95, time=0),
    Message('note_on', channel=0, note=57, velocity=95, time=0),
    Message('note_on', channel=0, note=52, velocity=95, time=0),
    Message('note_on', channel=0, note=45, velocity=95, time=0),
    Message('note_off', channel=0, note=69, velocity=80, time=240),
    Message('note_off', channel=0, note=61, velocity=80, time=0),
    Message('note_off', channel=0, note=57, velocity=80, time=0),
    Message('note_off', channel=0, note=52, velocity=80, time=0),
    Message('note_off', channel=0, note=45, velocity=80, time=0),
    Message('note_on', channel=0, note=69, velocity=95, time=0),
    Message('note_on', channel=0, note=61, velocity=95, time=0),
    Message('note_on', channel=0, note=57, velocity=95, time=0),
    Message('note_on', channel=0, note=52, velocity=95, time=0),
    Message('note_on', channel=0, note=45, velocity=95, time=0),
    Message('note_off', channel=0, note=69, velocity=80, time=480),
    Message('note_off', channel=0, note=61, velocity=80, time=0),
    Message('note_off', channel=0, note=57, velocity=80, time=0),
    Message('note_off', channel=0, note=52, velocity=80, time=0),
    Message('note_off', channel=0, note=45, velocity=80, time=0),
    Message('note_on', channel=0, note=69, velocity=95, time=0),
    Message('note_on', channel=0, note=61, velocity=95, time=0),
    Message('note_on', channel=0, note=57, velocity=95, time=0),
    Message('note_on', channel=0, note=52, velocity=95, time=0),
    Message('note_on', channel=0, note=45, velocity=95, time=0),
    Message('note_off', channel=0, note=69, velocity=80, time=240),
    Message('note_off', channel=0, note=61, velocity=80, time=0),
    Message('note_off', channel=0, note=57, velocity=80, time=0),
    Message('note_off', channel=0, note=52, velocity=80, time=0),
    Message('note_off', channel=0, note=45, velocity=80, time=0),
    Message('note_on', channel=0, note=69, velocity=95, time=0),
    Message('note_on', channel=0, note=61, velocity=95, time=0),
    Message('note_on', channel=0, note=57, velocity=95, time=0),
    Message('note_on', channel=0, note=52, velocity=95, time=0),
    Message('note_on', channel=0, note=45, velocity=95, time=0),
    Message('note_off', channel=0, note=69, velocity=80, time=240),
    Message('note_off', channel=0, note=61, velocity=80, time=0),
    Message('note_off', channel=0, note=57, velocity=80, time=0),
    Message('note_off', channel=0, note=52, velocity=80, time=0),
    Message('note_off', channel=0, note=45, velocity=80, time=0),
    Message('note_on', channel=0, note=69, velocity=95, time=0),
    Message('note_on', channel=0, note=61, velocity=95, time=0),
    Message('note_on', channel=0, note=57, velocity=95, time=0),
    Message('note_on', channel=0, note=52, velocity=95, time=0),
    Message('note_on', channel=0, note=45, velocity=95, time=0),
    Message('note_off', channel=0, note=69, velocity=80, time=240),
    Message('note_off', channel=0, note=61, velocity=80, time=0),
    Message('note_off', channel=0, note=57, velocity=80, time=0),
    Message('note_off', channel=0, note=52, velocity=80, time=0),
    Message('note_off', channel=0, note=45, velocity=80, time=0),
    Message('note_on', channel=0, note=69, velocity=95, time=0),
    Message('note_on', channel=0, note=61, velocity=95, time=0),
    Message('note_on', channel=0, note=57, velocity=95, time=0),
    Message('note_on', channel=0, note=52, velocity=95, time=0),
    Message('note_on', channel=0, note=45, velocity=95, time=0),
    Message('note_off', channel=0, note=69, velocity=80, time=240),
    Message('note_off', channel=0, note=61, velocity=80, time=0),
    Message('note_off', channel=0, note=57, velocity=80, time=0),
    Message('note_off', channel=0, note=52, velocity=80, time=0),
    Message('note_off', channel=0, note=45, velocity=80, time=0),
    Message('note_on', channel=0, note=69, velocity=95, time=0),
    Message('note_on', channel=0, note=61, velocity=95, time=0),
    Message('note_on', channel=0, note=57, velocity=95, time=0),
    Message('note_on', channel=0, note=52, velocity=95, time=0),
    Message('note_on', channel=0, note=45, velocity=95, time=0),
    Message('note_off', channel=0, note=69, velocity=80, time=480),
    Message('note_off', channel=0, note=61, velocity=80, time=0),
    Message('note_off', channel=0, note=57, velocity=80, time=0),
    Message('note_off', channel=0, note=52, velocity=80, time=0),
    Message('note_off', channel=0, note=45, velocity=80, time=0),
    Message('note_on', channel=0, note=69, velocity=95, time=0),
    Message('note_on', channel=0, note=61, velocity=95, time=0),
    Message('note_on', channel=0, note=57, velocity=95, time=0),
    Message('note_on', channel=0, note=52, velocity=95, time=0),
    Message('note_on', channel=0, note=45, velocity=95, time=0),
    Message('note_off', channel=0, note=69, velocity=80, time=480),
    Message('note_off', channel=0, note=61, velocity=80, time=0),
    Message('note_off', channel=0, note=57, velocity=80, time=0),
    Message('note_off', channel=0, note=52, velocity=80, time=0),
    Message('note_off', channel=0, note=45, velocity=80, time=0),
    Message('note_on', channel=0, note=69, velocity=95, time=0),
    Message('note_on', channel=0, note=61, velocity=95, time=0),
    Message('note_on', channel=0, note=57, velocity=95, time=0),
    Message('note_on', channel=0, note=52, velocity=95, time=0),
    Message('note_on', channel=0, note=45, velocity=95, time=0),
    Message('note_off', channel=0, note=69, velocity=80, time=240),
    Message('note_off', channel=0, note=61, velocity=80, time=0),
    Message('note_off', channel=0, note=57, velocity=80, time=0),
    Message('note_off', channel=0, note=52, velocity=80, time=0),
    Message('note_off', channel=0, note=45, velocity=80, time=0),
    Message('note_on', channel=0, note=69, velocity=95, time=0),
    Message('note_on', channel=0, note=61, velocity=95, time=0),
    Message('note_on', channel=0, note=57, velocity=95, time=0),
    Message('note_on', channel=0, note=52, velocity=95, time=0),
    Message('note_on', channel=0, note=45, velocity=95, time=0),
    Message('note_off', channel=0, note=69, velocity=80, time=240),
    Message('note_off', channel=0, note=61, velocity=80, time=0),
    Message('note_off', channel=0, note=57, velocity=80, time=0),
    Message('note_off', channel=0, note=52, velocity=80, time=0),
    Message('note_off', channel=0, note=45, velocity=80, time=0),
    Message('note_on', channel=0, note=69, velocity=95, time=0),
    Message('note_on', channel=0, note=61, velocity=95, time=0),
    Message('note_on', channel=0, note=57, velocity=95, time=0),
    Message('note_on', channel=0, note=52, velocity=95, time=0),
    Message('note_on', channel=0, note=45, velocity=95, time=0),
    Message('note_off', channel=0, note=69, velocity=80, time=480),
    Message('note_off', channel=0, note=61, velocity=80, time=0),
    Message('note_off', channel=0, note=57, velocity=80, time=0),
    Message('note_off', channel=0, note=52, velocity=80, time=0),
    Message('note_off', channel=0, note=45, velocity=80, time=0),
    Message('note_on', channel=0, note=69, velocity=95, time=0),
    Message('note_on', channel=0, note=61, velocity=95, time=0),
    Message('note_on', channel=0, note=57, velocity=95, time=0),
    Message('note_on', channel=0, note=52, velocity=95, time=0),
    Message('note_on', channel=0, note=45, velocity=95, time=0),
    Message('note_off', channel=0, note=69, velocity=80, time=480),
    Message('note_off', channel=0, note=61, velocity=80, time=0),
    Message('note_off', channel=0, note=57, velocity=80, time=0),
    Message('note_off', channel=0, note=52, velocity=80, time=0),
    Message('note_off', channel=0, note=45, velocity=80, time=0),
    Message('note_on', channel=0, note=69, velocity=95, time=0),
    Message('note_on', channel=0, note=61, velocity=95, time=0),
    Message('note_on', channel=0, note=57, velocity=95, time=0),
    Message('note_on', channel=0, note=52, velocity=95, time=0),
    Message('note_on', channel=0, note=45, velocity=95, time=0),
    Message('note_off', channel=0, note=69, velocity=80, time=480),
    Message('note_off', channel=0, note=61, velocity=80, time=0),
    Message('note_off', channel=0, note=57, velocity=80, time=0),
    Message('note_off', channel=0, note=52, velocity=80, time=0),
    Message('note_off', channel=0, note=45, velocity=80, time=0),
    Message('note_on', channel=0, note=69, velocity=95, time=0),
    Message('note_on', channel=0, note=61, velocity=95, time=0),
    Message('note_on', channel=0, note=57, velocity=95, time=0),
    Message('note_on', channel=0, note=52, velocity=95, time=0),
    Message('note_on', channel=0, note=45, velocity=95, time=0),
    Message('note_off', channel=0, note=69, velocity=80, time=240),
    Message('note_off', channel=0, note=61, velocity=80, time=0),
    Message('note_off', channel=0, note=57, velocity=80, time=0),
    Message('note_off', channel=0, note=52, velocity=80, time=0),
    Message('note_off', channel=0, note=45, velocity=80, time=0),
    Message('note_on', channel=0, note=69, velocity=95, time=0),
    Message('note_on', channel=0, note=61, velocity=95, time=0),
    Message('note_on', channel=0, note=57, velocity=95, time=0),
    Message('note_on', channel=0, note=52, velocity=95, time=0),
    Message('note_on', channel=0, note=45, velocity=95, time=0),
    Message('note_off', channel=0, note=69, velocity=80, time=240),
    Message('note_off', channel=0, note=61, velocity=80, time=0),
    Message('note_off', channel=0, note=57, velocity=80, time=0),
    Message('note_off', channel=0, note=52, velocity=80, time=0),
    Message('note_off', channel=0, note=45, velocity=80, time=0),
    Message('note_on', channel=0, note=69, velocity=95, time=0),
    Message('note_on', channel=0, note=61, velocity=95, time=0),
    Message('note_on', channel=0, note=57, velocity=95, time=0),
    Message('note_on', channel=0, note=52, velocity=95, time=0),
    Message('note_on', channel=0, note=45, velocity=95, time=0),
    Message('note_off', channel=0, note=69, velocity=80, time=480),
    Message('note_off', channel=0, note=61, velocity=80, time=0),
    Message('note_off', channel=0, note=57, velocity=80, time=0),
    Message('note_off', channel=0, note=52, velocity=80, time=0),
    Message('note_off', channel=0, note=45, velocity=80, time=0),
    Message('note_on', channel=0, note=69, velocity=95, time=0),
    Message('note_on', channel=0, note=62, velocity=95, time=0),
    Message('note_on', channel=0, note=57, velocity=95, time=0),
    Message('note_on', channel=0, note=54, velocity=95, time=0),
    Message('note_on', channel=0, note=47, velocity=95, time=0),
    Message('note_off', channel=0, note=69, velocity=80, time=480),
    Message('note_off', channel=0, note=62, velocity=80, time=0),
    Message('note_off', channel=0, note=57, velocity=80, time=0),
    Message('note_off', channel=0, note=54, velocity=80, time=0),
    Message('note_off', channel=0, note=47, velocity=80, time=0),
    Message('note_on', channel=0, note=69, velocity=95, time=0),
    Message('note_on', channel=0, note=62, velocity=95, time=0),
    Message('note_on', channel=0, note=57, velocity=95, time=0),
    Message('note_on', channel=0, note=54, velocity=95, time=0),
    Message('note_on', channel=0, note=47, velocity=95, time=0),
    Message('note_off', channel=0, note=69, velocity=80, time=480),
    Message('note_off', channel=0, note=62, velocity=80, time=0),
    Message('note_off', channel=0, note=57, velocity=80, time=0),
    Message('note_off', channel=0, note=54, velocity=80, time=0),
    Message('note_off', channel=0, note=47, velocity=80, time=0),
    Message('note_on', channel=0, note=69, velocity=95, time=0),
    Message('note_on', channel=0, note=62, velocity=95, time=0),
    Message('note_on', channel=0, note=57, velocity=95, time=0),
    Message('note_on', channel=0, note=54, velocity=95, time=0),
    Message('note_on', channel=0, note=47, velocity=95, time=0),
    Message('note_off', channel=0, note=69, velocity=80, time=240),
    Message('note_off', channel=0, note=62, velocity=80, time=0),
    Message('note_off', channel=0, note=57, velocity=80, time=0),
    Message('note_off', channel=0, note=54, velocity=80, time=0),
    Message('note_off', channel=0, note=47, velocity=80, time=0),
    Message('note_on', channel=0, note=69, velocity=95, time=0),
    Message('note_on', channel=0, note=62, velocity=95, time=0),
    Message('note_on', channel=0, note=57, velocity=95, time=0),
    Message('note_on', channel=0, note=54, velocity=95, time=0),
    Message('note_on', channel=0, note=47, velocity=95, time=0),
    Message('note_off', channel=0, note=69, velocity=80, time=240),
    Message('note_off', channel=0, note=62, velocity=80, time=0),
    Message('note_off', channel=0, note=57, velocity=80, time=0),
    Message('note_off', channel=0, note=54, velocity=80, time=0),
    Message('note_off', channel=0, note=47, velocity=80, time=0),
    Message('note_on', channel=0, note=69, velocity=95, time=0),
    Message('note_on', channel=0, note=62, velocity=95, time=0),
    Message('note_on', channel=0, note=57, velocity=95, time=0),
    Message('note_on', channel=0, note=54, velocity=95, time=0),
    Message('note_on', channel=0, note=47, velocity=95, time=0),
    Message('note_off', channel=0, note=69, velocity=80, time=240),
    Message('note_off', channel=0, note=62, velocity=80, time=0),
    Message('note_off', channel=0, note=57, velocity=80, time=0),
    Message('note_off', channel=0, note=54, velocity=80, time=0),
    Message('note_off', channel=0, note=47, velocity=80, time=0),
    Message('note_on', channel=0, note=69, velocity=95, time=0),
    Message('note_on', channel=0, note=62, velocity=95, time=0),
    Message('note_on', channel=0, note=57, velocity=95, time=0),
    Message('note_on', channel=0, note=54, velocity=95, time=0),
    Message('note_on', channel=0, note=47, velocity=95, time=0),
    Message('note_off', channel=0, note=69, velocity=80, time=240),
    Message('note_off', channel=0, note=62, velocity=80, time=0),
    Message('note_off', channel=0, note=57, velocity=80, time=0),
    Message('note_off', channel=0, note=54, velocity=80, time=0),
    Message('note_off', channel=0, note=47, velocity=80, time=0),
    Message('note_on', channel=0, note=68, velocity=95, time=0),
    Message('note_on', channel=0, note=64, velocity=95, time=0),
    Message('note_on', channel=0, note=59, velocity=95, time=0),
    Message('note_on', channel=0, note=52, velocity=95, time=0),
    Message('note_off', channel=0, note=68, velocity=80, time=480),
    Message('note_off', channel=0, note=64, velocity=80, time=0),
    Message('note_off', channel=0, note=59, velocity=80, time=0),
    Message('note_off', channel=0, note=52, velocity=80, time=0),
    Message('note_on', channel=0, note=68, velocity=95, time=0),
    Message('note_on', channel=0, note=64, velocity=95, time=0),
    Message('note_on', channel=0, note=59, velocity=95, time=0),
    Message('note_on', channel=0, note=52, velocity=95, time=0),
    Message('note_off', channel=0, note=68, velocity=80, time=480),
    Message('note_off', channel=0, note=64, velocity=80, time=0),
    Message('note_off', channel=0, note=59, velocity=80, time=0),
    Message('note_off', channel=0, note=52, velocity=80, time=0),
    Message('note_on', channel=0, note=68, velocity=95, time=0),
    Message('note_on', channel=0, note=64, velocity=95, time=0),
    Message('note_on', channel=0, note=59, velocity=95, time=0),
    Message('note_on', channel=0, note=52, velocity=95, time=0),
    Message('note_off', channel=0, note=68, velocity=80, time=240),
    Message('note_off', channel=0, note=64, velocity=80, time=0),
    Message('note_off', channel=0, note=59, velocity=80, time=0),
    Message('note_off', channel=0, note=52, velocity=80, time=0),
    Message('note_on', channel=0, note=68, velocity=95, time=0),
    Message('note_on', channel=0, note=64, velocity=95, time=0),
    Message('note_on', channel=0, note=59, velocity=95, time=0),
    Message('note_on', channel=0, note=52, velocity=95, time=0),
    Message('note_off', channel=0, note=68, velocity=80, time=240),
    Message('note_off', channel=0, note=64, velocity=80, time=0),
    Message('note_off', channel=0, note=59, velocity=80, time=0),
    Message('note_off', channel=0, note=52, velocity=80, time=0),
    Message('note_on', channel=0, note=68, velocity=95, time=0),
    Message('note_on', channel=0, note=64, velocity=95, time=0),
    Message('note_on', channel=0, note=59, velocity=95, time=0),
    Message('note_on', channel=0, note=52, velocity=95, time=0),
    Message('note_off', channel=0, note=68, velocity=80, time=480),
    Message('note_off', channel=0, note=64, velocity=80, time=0),
    Message('note_off', channel=0, note=59, velocity=80, time=0),
    Message('note_off', channel=0, note=52, velocity=80, time=0),
    Message('note_on', channel=0, note=69, velocity=95, time=0),
    Message('note_on', channel=0, note=61, velocity=95, time=0),
    Message('note_on', channel=0, note=57, velocity=95, time=0),
    Message('note_on', channel=0, note=52, velocity=95, time=0),
    Message('note_on', channel=0, note=45, velocity=95, time=0),
    Message('note_off', channel=0, note=69, velocity=80, time=480),
    Message('note_off', channel=0, note=61, velocity=80, time=0),
    Message('note_off', channel=0, note=57, velocity=80, time=0),
    Message('note_off', channel=0, note=52, velocity=80, time=0),
    Message('note_off', channel=0, note=45, velocity=80, time=0),
    Message('note_on', channel=0, note=69, velocity=95, time=0),
    Message('note_on', channel=0, note=61, velocity=95, time=0),
    Message('note_on', channel=0, note=57, velocity=95, time=0),
    Message('note_on', channel=0, note=52, velocity=95, time=0),
    Message('note_on', channel=0, note=45, velocity=95, time=0),
    Message('note_off', channel=0, note=69, velocity=80, time=480),
    Message('note_off', channel=0, note=61, velocity=80, time=0),
    Message('note_off', channel=0, note=57, velocity=80, time=0),
    Message('note_off', channel=0, note=52, velocity=80, time=0),
    Message('note_off', channel=0, note=45, velocity=80, time=0),
    Message('note_on', channel=0, note=69, velocity=95, time=0),
    Message('note_on', channel=0, note=61, velocity=95, time=0),
    Message('note_on', channel=0, note=57, velocity=95, time=0),
    Message('note_on', channel=0, note=52, velocity=95, time=0),
    Message('note_on', channel=0, note=45, velocity=95, time=0),
    Message('note_off', channel=0, note=69, velocity=80, time=480),
    Message('note_off', channel=0, note=61, velocity=80, time=0),
    Message('note_off', channel=0, note=57, velocity=80, time=0),
    Message('note_off', channel=0, note=52, velocity=80, time=0),
    Message('note_off', channel=0, note=45, velocity=80, time=0),
    Message('note_on', channel=0, note=69, velocity=95, time=0),
    Message('note_on', channel=0, note=61, velocity=95, time=0),
    Message('note_on', channel=0, note=57, velocity=95, time=0),
    Message('note_on', channel=0, note=52, velocity=95, time=0),
    Message('note_on', channel=0, note=45, velocity=95, time=0),
    Message('note_off', channel=0, note=69, velocity=80, time=240),
    Message('note_off', channel=0, note=61, velocity=80, time=0),
    Message('note_off', channel=0, note=57, velocity=80, time=0),
    Message('note_off', channel=0, note=52, velocity=80, time=0),
    Message('note_off', channel=0, note=45, velocity=80, time=0),
    Message('note_on', channel=0, note=69, velocity=95, time=0),
    Message('note_on', channel=0, note=61, velocity=95, time=0),
    Message('note_on', channel=0, note=57, velocity=95, time=0),
    Message('note_on', channel=0, note=52, velocity=95, time=0),
    Message('note_on', channel=0, note=45, velocity=95, time=0),
    Message('note_off', channel=0, note=69, velocity=80, time=240),
    Message('note_off', channel=0, note=61, velocity=80, time=0),
    Message('note_off', channel=0, note=57, velocity=80, time=0),
    Message('note_off', channel=0, note=52, velocity=80, time=0),
    Message('note_off', channel=0, note=45, velocity=80, time=0),
    Message('note_on', channel=0, note=69, velocity=95, time=0),
    Message('note_on', channel=0, note=61, velocity=95, time=0),
    Message('note_on', channel=0, note=57, velocity=95, time=0),
    Message('note_on', channel=0, note=52, velocity=95, time=0),
    Message('note_on', channel=0, note=45, velocity=95, time=0),
    Message('note_off', channel=0, note=69, velocity=80, time=240),
    Message('note_off', channel=0, note=61, velocity=80, time=0),
    Message('note_off', channel=0, note=57, velocity=80, time=0),
    Message('note_off', channel=0, note=52, velocity=80, time=0),
    Message('note_off', channel=0, note=45, velocity=80, time=0),
    Message('note_on', channel=0, note=69, velocity=95, time=0),
    Message('note_on', channel=0, note=61, velocity=95, time=0),
    Message('note_on', channel=0, note=57, velocity=95, time=0),
    Message('note_on', channel=0, note=52, velocity=95, time=0),
    Message('note_on', channel=0, note=45, velocity=95, time=0),
    Message('note_off', channel=0, note=69, velocity=80, time=240),
    Message('note_off', channel=0, note=61, velocity=80, time=0),
    Message('note_off', channel=0, note=57, velocity=80, time=0),
    Message('note_off', channel=0, note=52, velocity=80, time=0),
    Message('note_off', channel=0, note=45, velocity=80, time=0),
    Message('note_on', channel=0, note=69, velocity=95, time=0),
    Message('note_on', channel=0, note=61, velocity=95, time=0),
    Message('note_on', channel=0, note=57, velocity=95, time=0),
    Message('note_on', channel=0, note=52, velocity=95, time=0),
    Message('note_on', channel=0, note=45, velocity=95, time=0),
    Message('note_off', channel=0, note=69, velocity=80, time=240),
    Message('note_off', channel=0, note=61, velocity=80, time=0),
    Message('note_off', channel=0, note=57, velocity=80, time=0),
    Message('note_off', channel=0, note=52, velocity=80, time=0),
    Message('note_off', channel=0, note=45, velocity=80, time=0),
    Message('note_on', channel=0, note=69, velocity=95, time=0),
    Message('note_on', channel=0, note=61, velocity=95, time=0),
    Message('note_on', channel=0, note=57, velocity=95, time=0),
    Message('note_on', channel=0, note=52, velocity=95, time=0),
    Message('note_on', channel=0, note=45, velocity=95, time=0),
    Message('note_off', channel=0, note=69, velocity=80, time=120),
    Message('note_off', channel=0, note=61, velocity=80, time=0),
    Message('note_off', channel=0, note=57, velocity=80, time=0),
    Message('note_off', channel=0, note=52, velocity=80, time=0),
    Message('note_off', channel=0, note=45, velocity=80, time=0),
    Message('note_on', channel=0, note=69, velocity=95, time=0),
    Message('note_on', channel=0, note=61, velocity=95, time=0),
    Message('note_on', channel=0, note=57, velocity=95, time=0),
    Message('note_on', channel=0, note=52, velocity=95, time=0),
    Message('note_on', channel=0, note=45, velocity=95, time=0),
    Message('note_off', channel=0, note=69, velocity=80, time=120),
    Message('note_off', channel=0, note=61, velocity=80, time=0),
    Message('note_off', channel=0, note=57, velocity=80, time=0),
    Message('note_off', channel=0, note=52, velocity=80, time=0),
    Message('note_off', channel=0, note=45, velocity=80, time=0),
    Message('note_on', channel=0, note=69, velocity=95, time=0),
    Message('note_on', channel=0, note=61, velocity=95, time=0),
    Message('note_on', channel=0, note=57, velocity=95, time=0),
    Message('note_on', channel=0, note=52, velocity=95, time=0),
    Message('note_on', channel=0, note=45, velocity=95, time=0),
    Message('note_off', channel=0, note=69, velocity=80, time=240),
    Message('note_off', channel=0, note=61, velocity=80, time=0),
    Message('note_off', channel=0, note=57, velocity=80, time=0),
    Message('note_off', channel=0, note=52, velocity=80, time=0),
    Message('note_off', channel=0, note=45, velocity=80, time=0),
    Message('note_on', channel=0, note=69, velocity=95, time=0),
    Message('note_on', channel=0, note=61, velocity=95, time=0),
    Message('note_on', channel=0, note=57, velocity=95, time=0),
    Message('note_on', channel=0, note=52, velocity=95, time=0),
    Message('note_on', channel=0, note=45, velocity=95, time=0),
    Message('note_off', channel=0, note=69, velocity=80, time=120),
    Message('note_off', channel=0, note=61, velocity=80, time=0),
    Message('note_off', channel=0, note=57, velocity=80, time=0),
    Message('note_off', channel=0, note=52, velocity=80, time=0),
    Message('note_off', channel=0, note=45, velocity=80, time=0),
    Message('note_on', channel=0, note=69, velocity=95, time=0),
    Message('note_on', channel=0, note=61, velocity=95, time=0),
    Message('note_on', channel=0, note=57, velocity=95, time=0),
    Message('note_on', channel=0, note=52, velocity=95, time=0),
    Message('note_on', channel=0, note=45, velocity=95, time=0),
    Message('note_off', channel=0, note=69, velocity=80, time=120),
    Message('note_off', channel=0, note=61, velocity=80, time=0),
    Message('note_off', channel=0, note=57, velocity=80, time=0),
    Message('note_off', channel=0, note=52, velocity=80, time=0),
    Message('note_off', channel=0, note=45, velocity=80, time=0),
    Message('note_on', channel=0, note=69, velocity=95, time=0),
    Message('note_on', channel=0, note=61, velocity=95, time=0),
    Message('note_on', channel=0, note=57, velocity=95, time=0),
    Message('note_on', channel=0, note=52, velocity=95, time=0),
    Message('note_on', channel=0, note=45, velocity=95, time=0),
    Message('note_off', channel=0, note=69, velocity=80, time=240),
    Message('note_off', channel=0, note=61, velocity=80, time=0),
    Message('note_off', channel=0, note=57, velocity=80, time=0),
    Message('note_off', channel=0, note=52, velocity=80, time=0),
    Message('note_off', channel=0, note=45, velocity=80, time=0),
    Message('note_on', channel=0, note=69, velocity=95, time=0),
    Message('note_on', channel=0, note=61, velocity=95, time=0),
    Message('note_on', channel=0, note=57, velocity=95, time=0),
    Message('note_on', channel=0, note=52, velocity=95, time=0),
    Message('note_on', channel=0, note=45, velocity=95, time=0),
    Message('note_off', channel=0, note=69, velocity=80, time=120),
    Message('note_off', channel=0, note=61, velocity=80, time=0),
    Message('note_off', channel=0, note=57, velocity=80, time=0),
    Message('note_off', channel=0, note=52, velocity=80, time=0),
    Message('note_off', channel=0, note=45, velocity=80, time=0),
    Message('note_on', channel=0, note=69, velocity=95, time=0),
    Message('note_on', channel=0, note=61, velocity=95, time=0),
    Message('note_on', channel=0, note=57, velocity=95, time=0),
    Message('note_on', channel=0, note=52, velocity=95, time=0),
    Message('note_on', channel=0, note=45, velocity=95, time=0),
    Message('note_off', channel=0, note=69, velocity=80, time=120),
    Message('note_off', channel=0, note=61, velocity=80, time=0),
    Message('note_off', channel=0, note=57, velocity=80, time=0),
    Message('note_off', channel=0, note=52, velocity=80, time=0),
    Message('note_off', channel=0, note=45, velocity=80, time=0),
    Message('note_on', channel=0, note=69, velocity=95, time=0),
    Message('note_on', channel=0, note=61, velocity=95, time=0),
    Message('note_on', channel=0, note=57, velocity=95, time=0),
    Message('note_on', channel=0, note=52, velocity=95, time=0),
    Message('note_on', channel=0, note=45, velocity=95, time=0),
    Message('note_off', channel=0, note=69, velocity=80, time=480),
    Message('note_off', channel=0, note=61, velocity=80, time=0),
    Message('note_off', channel=0, note=57, velocity=80, time=0),
    Message('note_off', channel=0, note=52, velocity=80, time=0),
    Message('note_off', channel=0, note=45, velocity=80, time=0),
    Message('note_on', channel=0, note=69, velocity=95, time=0),
    Message('note_on', channel=0, note=61, velocity=95, time=0),
    Message('note_on', channel=0, note=57, velocity=95, time=0),
    Message('note_on', channel=0, note=52, velocity=95, time=0),
    Message('note_on', channel=0, note=45, velocity=95, time=0),
    Message('note_off', channel=0, note=69, velocity=80, time=480),
    Message('note_off', channel=0, note=61, velocity=80, time=0),
    Message('note_off', channel=0, note=57, velocity=80, time=0),
    Message('note_off', channel=0, note=52, velocity=80, time=0),
    Message('note_off', channel=0, note=45, velocity=80, time=0),
    Message('note_on', channel=0, note=69, velocity=95, time=0),
    Message('note_on', channel=0, note=61, velocity=95, time=0),
    Message('note_on', channel=0, note=57, velocity=95, time=0),
    Message('note_on', channel=0, note=52, velocity=95, time=0),
    Message('note_on', channel=0, note=45, velocity=95, time=0),
    Message('note_off', channel=0, note=69, velocity=80, time=240),
    Message('note_off', channel=0, note=61, velocity=80, time=0),
    Message('note_off', channel=0, note=57, velocity=80, time=0),
    Message('note_off', channel=0, note=52, velocity=80, time=0),
    Message('note_off', channel=0, note=45, velocity=80, time=0),
    Message('note_on', channel=0, note=69, velocity=95, time=0),
    Message('note_on', channel=0, note=61, velocity=95, time=0),
    Message('note_on', channel=0, note=57, velocity=95, time=0),
    Message('note_on', channel=0, note=52, velocity=95, time=0),
    Message('note_on', channel=0, note=45, velocity=95, time=0),
    Message('note_off', channel=0, note=69, velocity=80, time=240),
    Message('note_off', channel=0, note=61, velocity=80, time=0),
    Message('note_off', channel=0, note=57, velocity=80, time=0),
    Message('note_off', channel=0, note=52, velocity=80, time=0),
    Message('note_off', channel=0, note=45, velocity=80, time=0),
    Message('note_on', channel=0, note=69, velocity=95, time=0),
    Message('note_on', channel=0, note=61, velocity=95, time=0),
    Message('note_on', channel=0, note=57, velocity=95, time=0),
    Message('note_on', channel=0, note=52, velocity=95, time=0),
    Message('note_on', channel=0, note=45, velocity=95, time=0),
    Message('note_off', channel=0, note=69, velocity=80, time=480),
    Message('note_off', channel=0, note=61, velocity=80, time=0),
    Message('note_off', channel=0, note=57, velocity=80, time=0),
    Message('note_off', channel=0, note=52, velocity=80, time=0),
    Message('note_off', channel=0, note=45, velocity=80, time=0),
    Message('note_on', channel=0, note=69, velocity=95, time=0),
    Message('note_on', channel=0, note=61, velocity=95, time=0),
    Message('note_on', channel=0, note=57, velocity=95, time=0),
    Message('note_on', channel=0, note=52, velocity=95, time=0),
    Message('note_on', channel=0, note=45, velocity=95, time=0),
    Message('note_off', channel=0, note=69, velocity=80, time=240),
    Message('note_off', channel=0, note=61, velocity=80, time=0),
    Message('note_off', channel=0, note=57, velocity=80, time=0),
    Message('note_off', channel=0, note=52, velocity=80, time=0),
    Message('note_off', channel=0, note=45, velocity=80, time=0),
    Message('note_on', channel=0, note=69, velocity=95, time=0),
    Message('note_on', channel=0, note=61, velocity=95, time=0),
    Message('note_on', channel=0, note=57, velocity=95, time=0),
    Message('note_on', channel=0, note=52, velocity=95, time=0),
    Message('note_on', channel=0, note=45, velocity=95, time=0),
    Message('note_off', channel=0, note=69, velocity=80, time=240),
    Message('note_off', channel=0, note=61, velocity=80, time=0),
    Message('note_off', channel=0, note=57, velocity=80, time=0),
    Message('note_off', channel=0, note=52, velocity=80, time=0),
    Message('note_off', channel=0, note=45, velocity=80, time=0),
    Message('note_on', channel=0, note=69, velocity=95, time=0),
    Message('note_on', channel=0, note=61, velocity=95, time=0),
    Message('note_on', channel=0, note=57, velocity=95, time=0),
    Message('note_on', channel=0, note=52, velocity=95, time=0),
    Message('note_on', channel=0, note=45, velocity=95, time=0),
    Message('note_off', channel=0, note=69, velocity=80, time=480),
    Message('note_off', channel=0, note=61, velocity=80, time=0),
    Message('note_off', channel=0, note=57, velocity=80, time=0),
    Message('note_off', channel=0, note=52, velocity=80, time=0),
    Message('note_off', channel=0, note=45, velocity=80, time=0),
    Message('note_on', channel=0, note=69, velocity=95, time=0),
    Message('note_on', channel=0, note=61, velocity=95, time=0),
    Message('note_on', channel=0, note=57, velocity=95, time=0),
    Message('note_on', channel=0, note=52, velocity=95, time=0),
    Message('note_on', channel=0, note=45, velocity=95, time=0),
    Message('note_off', channel=0, note=69, velocity=80, time=240),
    Message('note_off', channel=0, note=61, velocity=80, time=0),
    Message('note_off', channel=0, note=57, velocity=80, time=0),
    Message('note_off', channel=0, note=52, velocity=80, time=0),
    Message('note_off', channel=0, note=45, velocity=80, time=0),
    Message('note_on', channel=0, note=69, velocity=95, time=0),
    Message('note_on', channel=0, note=61, velocity=95, time=0),
    Message('note_on', channel=0, note=57, velocity=95, time=0),
    Message('note_on', channel=0, note=52, velocity=95, time=0),
    Message('note_on', channel=0, note=45, velocity=95, time=0),
    Message('note_off', channel=0, note=69, velocity=80, time=240),
    Message('note_off', channel=0, note=61, velocity=80, time=0),
    Message('note_off', channel=0, note=57, velocity=80, time=0),
    Message('note_off', channel=0, note=52, velocity=80, time=0),
    Message('note_off', channel=0, note=45, velocity=80, time=0),
    Message('note_on', channel=0, note=69, velocity=95, time=0),
    Message('note_on', channel=0, note=61, velocity=95, time=0),
    Message('note_on', channel=0, note=57, velocity=95, time=0),
    Message('note_on', channel=0, note=52, velocity=95, time=0),
    Message('note_on', channel=0, note=45, velocity=95, time=0),
    Message('note_off', channel=0, note=69, velocity=80, time=240),
    Message('note_off', channel=0, note=61, velocity=80, time=0),
    Message('note_off', channel=0, note=57, velocity=80, time=0),
    Message('note_off', channel=0, note=52, velocity=80, time=0),
    Message('note_off', channel=0, note=45, velocity=80, time=0),
    Message('note_on', channel=0, note=69, velocity=95, time=0),
    Message('note_on', channel=0, note=61, velocity=95, time=0),
    Message('note_on', channel=0, note=57, velocity=95, time=0),
    Message('note_on', channel=0, note=52, velocity=95, time=0),
    Message('note_on', channel=0, note=45, velocity=95, time=0),
    Message('note_off', channel=0, note=69, velocity=80, time=240),
    Message('note_off', channel=0, note=61, velocity=80, time=0),
    Message('note_off', channel=0, note=57, velocity=80, time=0),
    Message('note_off', channel=0, note=52, velocity=80, time=0),
    Message('note_off', channel=0, note=45, velocity=80, time=0),
    Message('note_on', channel=0, note=69, velocity=95, time=0),
    Message('note_on', channel=0, note=61, velocity=95, time=0),
    Message('note_on', channel=0, note=57, velocity=95, time=0),
    Message('note_on', channel=0, note=52, velocity=95, time=0),
    Message('note_on', channel=0, note=45, velocity=95, time=0),
    Message('note_off', channel=0, note=69, velocity=80, time=480),
    Message('note_off', channel=0, note=61, velocity=80, time=0),
    Message('note_off', channel=0, note=57, velocity=80, time=0),
    Message('note_off', channel=0, note=52, velocity=80, time=0),
    Message('note_off', channel=0, note=45, velocity=80, time=0),
    Message('note_on', channel=0, note=69, velocity=95, time=0),
    Message('note_on', channel=0, note=61, velocity=95, time=0),
    Message('note_on', channel=0, note=57, velocity=95, time=0),
    Message('note_on', channel=0, note=52, velocity=95, time=0),
    Message('note_on', channel=0, note=45, velocity=95, time=0),
    Message('note_off', channel=0, note=69, velocity=80, time=480),
    Message('note_off', channel=0, note=61, velocity=80, time=0),
    Message('note_off', channel=0, note=57, velocity=80, time=0),
    Message('note_off', channel=0, note=52, velocity=80, time=0),
    Message('note_off', channel=0, note=45, velocity=80, time=0),
    Message('note_on', channel=0, note=69, velocity=95, time=0),
    Message('note_on', channel=0, note=61, velocity=95, time=0),
    Message('note_on', channel=0, note=57, velocity=95, time=0),
    Message('note_on', channel=0, note=52, velocity=95, time=0),
    Message('note_on', channel=0, note=45, velocity=95, time=0),
    Message('note_off', channel=0, note=69, velocity=80, time=240),
    Message('note_off', channel=0, note=61, velocity=80, time=0),
    Message('note_off', channel=0, note=57, velocity=80, time=0),
    Message('note_off', channel=0, note=52, velocity=80, time=0),
    Message('note_off', channel=0, note=45, velocity=80, time=0),
    Message('note_on', channel=0, note=69, velocity=95, time=0),
    Message('note_on', channel=0, note=61, velocity=95, time=0),
    Message('note_on', channel=0, note=57, velocity=95, time=0),
    Message('note_on', channel=0, note=52, velocity=95, time=0),
    Message('note_on', channel=0, note=45, velocity=95, time=0),
    Message('note_off', channel=0, note=69, velocity=80, time=240),
    Message('note_off', channel=0, note=61, velocity=80, time=0),
    Message('note_off', channel=0, note=57, velocity=80, time=0),
    Message('note_off', channel=0, note=52, velocity=80, time=0),
    Message('note_off', channel=0, note=45, velocity=80, time=0),
    Message('note_on', channel=0, note=69, velocity=95, time=0),
    Message('note_on', channel=0, note=61, velocity=95, time=0),
    Message('note_on', channel=0, note=57, velocity=95, time=0),
    Message('note_on', channel=0, note=52, velocity=95, time=0),
    Message('note_on', channel=0, note=45, velocity=95, time=0),
    Message('note_off', channel=0, note=69, velocity=80, time=480),
    Message('note_off', channel=0, note=61, velocity=80, time=0),
    Message('note_off', channel=0, note=57, velocity=80, time=0),
    Message('note_off', channel=0, note=52, velocity=80, time=0),
    Message('note_off', channel=0, note=45, velocity=80, time=0),
    Message('note_on', channel=0, note=69, velocity=95, time=0),
    Message('note_on', channel=0, note=61, velocity=95, time=0),
    Message('note_on', channel=0, note=57, velocity=95, time=0),
    Message('note_on', channel=0, note=52, velocity=95, time=0),
    Message('note_on', channel=0, note=45, velocity=95, time=0),
    Message('note_off', channel=0, note=69, velocity=80, time=480),
    Message('note_off', channel=0, note=61, velocity=80, time=0),
    Message('note_off', channel=0, note=57, velocity=80, time=0),
    Message('note_off', channel=0, note=52, velocity=80, time=0),
    Message('note_off', channel=0, note=45, velocity=80, time=0),
    Message('note_on', channel=0, note=69, velocity=95, time=0),
    Message('note_on', channel=0, note=61, velocity=95, time=0),
    Message('note_on', channel=0, note=57, velocity=95, time=0),
    Message('note_on', channel=0, note=52, velocity=95, time=0),
    Message('note_on', channel=0, note=45, velocity=95, time=0),
    Message('note_off', channel=0, note=69, velocity=80, time=480),
    Message('note_off', channel=0, note=61, velocity=80, time=0),
    Message('note_off', channel=0, note=57, velocity=80, time=0),
    Message('note_off', channel=0, note=52, velocity=80, time=0),
    Message('note_off', channel=0, note=45, velocity=80, time=0),
    Message('note_on', channel=0, note=69, velocity=95, time=0),
    Message('note_on', channel=0, note=61, velocity=95, time=0),
    Message('note_on', channel=0, note=57, velocity=95, time=0),
    Message('note_on', channel=0, note=52, velocity=95, time=0),
    Message('note_on', channel=0, note=45, velocity=95, time=0),
    Message('note_off', channel=0, note=69, velocity=80, time=240),
    Message('note_off', channel=0, note=61, velocity=80, time=0),
    Message('note_off', channel=0, note=57, velocity=80, time=0),
    Message('note_off', channel=0, note=52, velocity=80, time=0),
    Message('note_off', channel=0, note=45, velocity=80, time=0),
    Message('note_on', channel=0, note=69, velocity=95, time=0),
    Message('note_on', channel=0, note=61, velocity=95, time=0),
    Message('note_on', channel=0, note=57, velocity=95, time=0),
    Message('note_on', channel=0, note=52, velocity=95, time=0),
    Message('note_on', channel=0, note=45, velocity=95, time=0),
    Message('note_off', channel=0, note=69, velocity=80, time=240),
    Message('note_off', channel=0, note=61, velocity=80, time=0),
    Message('note_off', channel=0, note=57, velocity=80, time=0),
    Message('note_off', channel=0, note=52, velocity=80, time=0),
    Message('note_off', channel=0, note=45, velocity=80, time=0),
    Message('note_on', channel=0, note=69, velocity=95, time=0),
    Message('note_on', channel=0, note=61, velocity=95, time=0),
    Message('note_on', channel=0, note=57, velocity=95, time=0),
    Message('note_on', channel=0, note=52, velocity=95, time=0),
    Message('note_on', channel=0, note=45, velocity=95, time=0),
    Message('note_off', channel=0, note=69, velocity=80, time=480),
    Message('note_off', channel=0, note=61, velocity=80, time=0),
    Message('note_off', channel=0, note=57, velocity=80, time=0),
    Message('note_off', channel=0, note=52, velocity=80, time=0),
    Message('note_off', channel=0, note=45, velocity=80, time=0),
    Message('note_on', channel=0, note=69, velocity=95, time=0),
    Message('note_on', channel=0, note=62, velocity=95, time=0),
    Message('note_on', channel=0, note=57, velocity=95, time=0),
    Message('note_on', channel=0, note=54, velocity=95, time=0),
    Message('note_on', channel=0, note=47, velocity=95, time=0),
    Message('control_change', channel=0, control=7, value=87, time=0),
    Message('control_change', channel=1, control=7, value=87, time=0),
    Message('control_change', channel=0, control=7, value=86, time=120),
    Message('control_change', channel=1, control=7, value=86, time=0),
    Message('control_change', channel=0, control=7, value=84, time=120),
    Message('control_change', channel=1, control=7, value=84, time=0),
    Message('control_change', channel=0, control=7, value=83, time=120),
    Message('control_change', channel=1, control=7, value=83, time=0),
    Message('note_off', channel=0, note=69, velocity=80, time=120),
    Message('note_off', channel=0, note=62, velocity=80, time=0),
    Message('note_off', channel=0, note=57, velocity=80, time=0),
    Message('note_off', channel=0, note=54, velocity=80, time=0),
    Message('note_off', channel=0, note=47, velocity=80, time=0),
    Message('note_on', channel=0, note=69, velocity=95, time=0),
    Message('note_on', channel=0, note=62, velocity=95, time=0),
    Message('note_on', channel=0, note=57, velocity=95, time=0),
    Message('note_on', channel=0, note=54, velocity=95, time=0),
    Message('note_on', channel=0, note=47, velocity=95, time=0),
    Message('control_change', channel=0, control=7, value=82, time=0),
    Message('control_change', channel=1, control=7, value=82, time=0),
    Message('control_change', channel=0, control=7, value=81, time=120),
    Message('control_change', channel=1, control=7, value=81, time=0),
    Message('control_change', channel=0, control=7, value=79, time=120),
    Message('control_change', channel=1, control=7, value=79, time=0),
    Message('control_change', channel=0, control=7, value=78, time=120),
    Message('control_change', channel=1, control=7, value=78, time=0),
    Message('note_off', channel=0, note=69, velocity=80, time=120),
    Message('note_off', channel=0, note=62, velocity=80, time=0),
    Message('note_off', channel=0, note=57, velocity=80, time=0),
    Message('note_off', channel=0, note=54, velocity=80, time=0),
    Message('note_off', channel=0, note=47, velocity=80, time=0),
    Message('note_on', channel=0, note=69, velocity=95, time=0),
    Message('note_on', channel=0, note=62, velocity=95, time=0),
    Message('note_on', channel=0, note=57, velocity=95, time=0),
    Message('note_on', channel=0, note=54, velocity=95, time=0),
    Message('note_on', channel=0, note=47, velocity=95, time=0),
    Message('control_change', channel=0, control=7, value=77, time=0),
    Message('control_change', channel=1, control=7, value=77, time=0),
    Message('control_change', channel=0, control=7, value=76, time=120),
    Message('control_change', channel=1, control=7, value=76, time=0),
    Message('note_off', channel=0, note=69, velocity=80, time=120),
    Message('note_off', channel=0, note=62, velocity=80, time=0),
    Message('note_off', channel=0, note=57, velocity=80, time=0),
    Message('note_off', channel=0, note=54, velocity=80, time=0),
    Message('note_off', channel=0, note=47, velocity=80, time=0),
    Message('note_on', channel=0, note=69, velocity=95, time=0),
    Message('note_on', channel=0, note=62, velocity=95, time=0),
    Message('note_on', channel=0, note=57, velocity=95, time=0),
    Message('note_on', channel=0, note=54, velocity=95, time=0),
    Message('note_on', channel=0, note=47, velocity=95, time=0),
    Message('control_change', channel=0, control=7, value=74, time=0),
    Message('control_change', channel=1, control=7, value=74, time=0),
    Message('control_change', channel=0, control=7, value=73, time=120),
    Message('control_change', channel=1, control=7, value=73, time=0),
    Message('note_off', channel=0, note=69, velocity=80, time=120),
    Message('note_off', channel=0, note=62, velocity=80, time=0),
    Message('note_off', channel=0, note=57, velocity=80, time=0),
    Message('note_off', channel=0, note=54, velocity=80, time=0),
    Message('note_off', channel=0, note=47, velocity=80, time=0),
    Message('note_on', channel=0, note=69, velocity=95, time=0),
    Message('note_on', channel=0, note=62, velocity=95, time=0),
    Message('note_on', channel=0, note=57, velocity=95, time=0),
    Message('note_on', channel=0, note=54, velocity=95, time=0),
    Message('note_on', channel=0, note=47, velocity=95, time=0),
    Message('control_change', channel=0, control=7, value=72, time=0),
    Message('control_change', channel=1, control=7, value=72, time=0),
    Message('control_change', channel=0, control=7, value=71, time=120),
    Message('control_change', channel=1, control=7, value=71, time=0),
    Message('note_off', channel=0, note=69, velocity=80, time=120),
    Message('note_off', channel=0, note=62, velocity=80, time=0),
    Message('note_off', channel=0, note=57, velocity=80, time=0),
    Message('note_off', channel=0, note=54, velocity=80, time=0),
    Message('note_off', channel=0, note=47, velocity=80, time=0),
    Message('note_on', channel=0, note=69, velocity=95, time=0),
    Message('note_on', channel=0, note=62, velocity=95, time=0),
    Message('note_on', channel=0, note=57, velocity=95, time=0),
    Message('note_on', channel=0, note=54, velocity=95, time=0),
    Message('note_on', channel=0, note=47, velocity=95, time=0),
    Message('control_change', channel=0, control=7, value=70, time=0),
    Message('control_change', channel=1, control=7, value=70, time=0),
    Message('control_change', channel=0, control=7, value=68, time=120),
    Message('control_change', channel=1, control=7, value=68, time=0),
    Message('note_off', channel=0, note=69, velocity=80, time=120),
    Message('note_off', channel=0, note=62, velocity=80, time=0),
    Message('note_off', channel=0, note=57, velocity=80, time=0),
    Message('note_off', channel=0, note=54, velocity=80, time=0),
    Message('note_off', channel=0, note=47, velocity=80, time=0),
    Message('control_change', channel=0, control=7, value=67, time=0),
    Message('control_change', channel=1, control=7, value=67, time=0),
    Message('note_on', channel=0, note=68, velocity=95, time=0),
    Message('note_on', channel=0, note=64, velocity=95, time=0),
    Message('note_on', channel=0, note=59, velocity=95, time=0),
    Message('note_on', channel=0, note=52, velocity=95, time=0),
    Message('control_change', channel=0, control=7, value=66, time=120),
    Message('control_change', channel=1, control=7, value=66, time=0),
    Message('control_change', channel=0, control=7, value=65, time=120),
    Message('control_change', channel=1, control=7, value=65, time=0),
    Message('control_change', channel=0, control=7, value=63, time=120),
    Message('control_change', channel=1, control=7, value=63, time=0),
    Message('control_change', channel=0, control=7, value=62, time=120),
    Message('control_change', channel=1, control=7, value=62, time=0),
    Message('note_off', channel=0, note=68, velocity=80, time=0),
    Message('note_off', channel=0, note=64, velocity=80, time=0),
    Message('note_off', channel=0, note=59, velocity=80, time=0),
    Message('note_off', channel=0, note=52, velocity=80, time=0),
    Message('note_on', channel=0, note=68, velocity=95, time=0),
    Message('note_on', channel=0, note=64, velocity=95, time=0),
    Message('note_on', channel=0, note=59, velocity=95, time=0),
    Message('note_on', channel=0, note=52, velocity=95, time=0),
    Message('control_change', channel=0, control=7, value=61, time=120),
    Message('control_change', channel=1, control=7, value=61, time=0),
    Message('control_change', channel=0, control=7, value=60, time=120),
    Message('control_change', channel=1, control=7, value=60, time=0),
    Message('control_change', channel=0, control=7, value=58, time=120),
    Message('control_change', channel=1, control=7, value=58, time=0),
    Message('control_change', channel=0, control=7, value=57, time=120),
    Message('control_change', channel=1, control=7, value=57, time=0),
    Message('note_off', channel=0, note=68, velocity=80, time=0),
    Message('note_off', channel=0, note=64, velocity=80, time=0),
    Message('note_off', channel=0, note=59, velocity=80, time=0),
    Message('note_off', channel=0, note=52, velocity=80, time=0),
    Message('note_on', channel=0, note=68, velocity=95, time=0),
    Message('note_on', channel=0, note=64, velocity=95, time=0),
    Message('note_on', channel=0, note=59, velocity=95, time=0),
    Message('note_on', channel=0, note=52, velocity=95, time=0),
    Message('control_change', channel=0, control=7, value=56, time=120),
    Message('control_change', channel=1, control=7, value=56, time=0),
    Message('control_change', channel=0, control=7, value=55, time=120),
    Message('control_change', channel=1, control=7, value=55, time=0),
    Message('note_off', channel=0, note=68, velocity=80, time=0),
    Message('note_off', channel=0, note=64, velocity=80, time=0),
    Message('note_off', channel=0, note=59, velocity=80, time=0),
    Message('note_off', channel=0, note=52, velocity=80, time=0),
    Message('note_on', channel=0, note=68, velocity=95, time=0),
    Message('note_on', channel=0, note=64, velocity=95, time=0),
    Message('note_on', channel=0, note=59, velocity=95, time=0),
    Message('note_on', channel=0, note=52, velocity=95, time=0),
    Message('control_change', channel=0, control=7, value=54, time=120),
    Message('control_change', channel=1, control=7, value=54, time=0),
    Message('control_change', channel=0, control=7, value=52, time=120),
    Message('control_change', channel=1, control=7, value=52, time=0),
    Message('note_off', channel=0, note=68, velocity=80, time=0),
    Message('note_off', channel=0, note=64, velocity=80, time=0),
    Message('note_off', channel=0, note=59, velocity=80, time=0),
    Message('note_off', channel=0, note=52, velocity=80, time=0),
    Message('note_on', channel=0, note=68, velocity=95, time=0),
    Message('note_on', channel=0, note=64, velocity=95, time=0),
    Message('note_on', channel=0, note=59, velocity=95, time=0),
    Message('note_on', channel=0, note=52, velocity=95, time=0),
    Message('control_change', channel=0, control=7, value=51, time=120),
    Message('control_change', channel=1, control=7, value=51, time=0),
    Message('control_change', channel=0, control=7, value=50, time=120),
    Message('control_change', channel=1, control=7, value=50, time=0),
    Message('control_change', channel=0, control=7, value=49, time=120),
    Message('control_change', channel=1, control=7, value=49, time=0),
    Message('control_change', channel=0, control=7, value=47, time=120),
    Message('control_change', channel=1, control=7, value=47, time=0),
    Message('note_off', channel=0, note=68, velocity=80, time=0),
    Message('note_off', channel=0, note=64, velocity=80, time=0),
    Message('note_off', channel=0, note=59, velocity=80, time=0),
    Message('note_off', channel=0, note=52, velocity=80, time=0),
    Message('note_on', channel=0, note=69, velocity=95, time=0),
    Message('note_on', channel=0, note=61, velocity=95, time=0),
    Message('note_on', channel=0, note=57, velocity=95, time=0),
    Message('note_on', channel=0, note=52, velocity=95, time=0),
    Message('note_on', channel=0, note=45, velocity=95, time=0),
    Message('control_change', channel=0, control=7, value=46, time=120),
    Message('control_change', channel=1, control=7, value=46, time=0),
    Message('control_change', channel=0, control=7, value=45, time=120),
    Message('control_change', channel=1, control=7, value=45, time=0),
    Message('control_change', channel=0, control=7, value=44, time=120),
    Message('control_change', channel=1, control=7, value=44, time=0),
    Message('control_change', channel=0, control=7, value=42, time=120),
    Message('control_change', channel=1, control=7, value=42, time=0),
    Message('note_off', channel=0, note=69, velocity=80, time=0),
    Message('note_off', channel=0, note=61, velocity=80, time=0),
    Message('note_off', channel=0, note=57, velocity=80, time=0),
    Message('note_off', channel=0, note=52, velocity=80, time=0),
    Message('note_off', channel=0, note=45, velocity=80, time=0),
    Message('note_on', channel=0, note=69, velocity=95, time=0),
    Message('note_on', channel=0, note=61, velocity=95, time=0),
    Message('note_on', channel=0, note=57, velocity=95, time=0),
    Message('note_on', channel=0, note=52, velocity=95, time=0),
    Message('note_on', channel=0, note=45, velocity=95, time=0),
    Message('control_change', channel=0, control=7, value=41, time=120),
    Message('control_change', channel=1, control=7, value=41, time=0),
    Message('control_change', channel=0, control=7, value=40, time=120),
    Message('control_change', channel=1, control=7, value=40, time=0),
    Message('control_change', channel=0, control=7, value=39, time=120),
    Message('control_change', channel=1, control=7, value=39, time=0),
    Message('control_change', channel=0, control=7, value=38, time=120),
    Message('control_change', channel=1, control=7, value=38, time=0),
    Message('note_off', channel=0, note=69, velocity=80, time=0),
    Message('note_off', channel=0, note=61, velocity=80, time=0),
    Message('note_off', channel=0, note=57, velocity=80, time=0),
    Message('note_off', channel=0, note=52, velocity=80, time=0),
    Message('note_off', channel=0, note=45, velocity=80, time=0),
    Message('note_on', channel=0, note=69, velocity=95, time=0),
    Message('note_on', channel=0, note=61, velocity=95, time=0),
    Message('note_on', channel=0, note=57, velocity=95, time=0),
    Message('note_on', channel=0, note=52, velocity=95, time=0),
    Message('note_on', channel=0, note=45, velocity=95, time=0),
    Message('control_change', channel=0, control=7, value=36, time=120),
    Message('control_change', channel=1, control=7, value=36, time=0),
    Message('control_change', channel=0, control=7, value=35, time=120),
    Message('control_change', channel=1, control=7, value=35, time=0),
    Message('control_change', channel=0, control=7, value=34, time=120),
    Message('control_change', channel=1, control=7, value=34, time=0),
    Message('control_change', channel=0, control=7, value=33, time=120),
    Message('control_change', channel=1, control=7, value=33, time=0),
    Message('note_off', channel=0, note=69, velocity=80, time=0),
    Message('note_off', channel=0, note=61, velocity=80, time=0),
    Message('note_off', channel=0, note=57, velocity=80, time=0),
    Message('note_off', channel=0, note=52, velocity=80, time=0),
    Message('note_off', channel=0, note=45, velocity=80, time=0),
    Message('note_on', channel=0, note=69, velocity=95, time=0),
    Message('note_on', channel=0, note=61, velocity=95, time=0),
    Message('note_on', channel=0, note=57, velocity=95, time=0),
    Message('note_on', channel=0, note=52, velocity=95, time=0),
    Message('note_on', channel=0, note=45, velocity=95, time=0),
    Message('control_change', channel=0, control=7, value=31, time=120),
    Message('control_change', channel=1, control=7, value=31, time=0),
    Message('control_change', channel=0, control=7, value=30, time=120),
    Message('control_change', channel=1, control=7, value=30, time=0),
    Message('note_off', channel=0, note=69, velocity=80, time=0),
    Message('note_off', channel=0, note=61, velocity=80, time=0),
    Message('note_off', channel=0, note=57, velocity=80, time=0),
    Message('note_off', channel=0, note=52, velocity=80, time=0),
    Message('note_off', channel=0, note=45, velocity=80, time=0),
    Message('note_on', channel=0, note=69, velocity=95, time=0),
    Message('note_on', channel=0, note=61, velocity=95, time=0),
    Message('note_on', channel=0, note=57, velocity=95, time=0),
    Message('note_on', channel=0, note=52, velocity=95, time=0),
    Message('note_on', channel=0, note=45, velocity=95, time=0),
    Message('control_change', channel=0, control=7, value=29, time=120),
    Message('control_change', channel=1, control=7, value=29, time=0),
    Message('control_change', channel=0, control=7, value=28, time=120),
    Message('control_change', channel=1, control=7, value=28, time=0),
    Message('note_off', channel=0, note=69, velocity=80, time=0),
    Message('note_off', channel=0, note=61, velocity=80, time=0),
    Message('note_off', channel=0, note=57, velocity=80, time=0),
    Message('note_off', channel=0, note=52, velocity=80, time=0),
    Message('note_off', channel=0, note=45, velocity=80, time=0),
    Message('note_on', channel=0, note=69, velocity=95, time=0),
    Message('note_on', channel=0, note=61, velocity=95, time=0),
    Message('note_on', channel=0, note=57, velocity=95, time=0),
    Message('note_on', channel=0, note=52, velocity=95, time=0),
    Message('note_on', channel=0, note=45, velocity=95, time=0),
    Message('control_change', channel=0, control=7, value=26, time=120),
    Message('control_change', channel=1, control=7, value=26, time=0),
    Message('control_change', channel=0, control=7, value=25, time=120),
    Message('control_change', channel=1, control=7, value=25, time=0),
    Message('note_off', channel=0, note=69, velocity=80, time=0),
    Message('note_off', channel=0, note=61, velocity=80, time=0),
    Message('note_off', channel=0, note=57, velocity=80, time=0),
    Message('note_off', channel=0, note=52, velocity=80, time=0),
    Message('note_off', channel=0, note=45, velocity=80, time=0),
    Message('note_on', channel=0, note=69, velocity=95, time=0),
    Message('note_on', channel=0, note=61, velocity=95, time=0),
    Message('note_on', channel=0, note=57, velocity=95, time=0),
    Message('note_on', channel=0, note=52, velocity=95, time=0),
    Message('note_on', channel=0, note=45, velocity=95, time=0),
    Message('control_change', channel=0, control=7, value=24, time=120),
    Message('control_change', channel=1, control=7, value=24, time=0),
    Message('control_change', channel=0, control=7, value=23, time=120),
    Message('control_change', channel=1, control=7, value=23, time=0),
    Message('note_off', channel=0, note=69, velocity=80, time=0),
    Message('note_off', channel=0, note=61, velocity=80, time=0),
    Message('note_off', channel=0, note=57, velocity=80, time=0),
    Message('note_off', channel=0, note=52, velocity=80, time=0),
    Message('note_off', channel=0, note=45, velocity=80, time=0),
    Message('note_on', channel=0, note=69, velocity=95, time=0),
    Message('note_on', channel=0, note=61, velocity=95, time=0),
    Message('note_on', channel=0, note=57, velocity=95, time=0),
    Message('note_on', channel=0, note=52, velocity=95, time=0),
    Message('note_on', channel=0, note=45, velocity=95, time=0),
    Message('control_change', channel=0, control=7, value=22, time=120),
    Message('control_change', channel=1, control=7, value=22, time=0),
    Message('control_change', channel=0, control=7, value=20, time=120),
    Message('control_change', channel=1, control=7, value=20, time=0),
    Message('note_off', channel=0, note=69, velocity=80, time=0),
    Message('note_off', channel=0, note=61, velocity=80, time=0),
    Message('note_off', channel=0, note=57, velocity=80, time=0),
    Message('note_off', channel=0, note=52, velocity=80, time=0),
    Message('note_off', channel=0, note=45, velocity=80, time=0),
    Message('note_on', channel=0, note=69, velocity=95, time=0),
    Message('note_on', channel=0, note=61, velocity=95, time=0),
    Message('note_on', channel=0, note=57, velocity=95, time=0),
    Message('note_on', channel=0, note=52, velocity=95, time=0),
    Message('note_on', channel=0, note=45, velocity=95, time=0),
    Message('control_change', channel=0, control=7, value=19, time=120),
    Message('control_change', channel=1, control=7, value=19, time=0),
    Message('note_off', channel=0, note=69, velocity=80, time=0),
    Message('note_off', channel=0, note=61, velocity=80, time=0),
    Message('note_off', channel=0, note=57, velocity=80, time=0),
    Message('note_off', channel=0, note=52, velocity=80, time=0),
    Message('note_off', channel=0, note=45, velocity=80, time=0),
    Message('note_on', channel=0, note=69, velocity=95, time=0),
    Message('note_on', channel=0, note=61, velocity=95, time=0),
    Message('note_on', channel=0, note=57, velocity=95, time=0),
    Message('note_on', channel=0, note=52, velocity=95, time=0),
    Message('note_on', channel=0, note=45, velocity=95, time=0),
    Message('control_change', channel=0, control=7, value=18, time=120),
    Message('control_change', channel=1, control=7, value=18, time=0),
    Message('note_off', channel=0, note=69, velocity=80, time=0),
    Message('note_off', channel=0, note=61, velocity=80, time=0),
    Message('note_off', channel=0, note=57, velocity=80, time=0),
    Message('note_off', channel=0, note=52, velocity=80, time=0),
    Message('note_off', channel=0, note=45, velocity=80, time=0),
    Message('note_on', channel=0, note=69, velocity=95, time=0),
    Message('note_on', channel=0, note=61, velocity=95, time=0),
    Message('note_on', channel=0, note=57, velocity=95, time=0),
    Message('note_on', channel=0, note=52, velocity=95, time=0),
    Message('note_on', channel=0, note=45, velocity=95, time=0),
    Message('control_change', channel=0, control=7, value=17, time=120),
    Message('control_change', channel=1, control=7, value=17, time=0),
    Message('control_change', channel=0, control=7, value=15, time=120),
    Message('control_change', channel=1, control=7, value=15, time=0),
    Message('note_off', channel=0, note=69, velocity=80, time=0),
    Message('note_off', channel=0, note=61, velocity=80, time=0),
    Message('note_off', channel=0, note=57, velocity=80, time=0),
    Message('note_off', channel=0, note=52, velocity=80, time=0),
    Message('note_off', channel=0, note=45, velocity=80, time=0),
    Message('note_on', channel=0, note=69, velocity=95, time=0),
    Message('note_on', channel=0, note=61, velocity=95, time=0),
    Message('note_on', channel=0, note=57, velocity=95, time=0),
    Message('note_on', channel=0, note=52, velocity=95, time=0),
    Message('note_on', channel=0, note=45, velocity=95, time=0),
    Message('control_change', channel=0, control=7, value=14, time=120),
    Message('control_change', channel=1, control=7, value=14, time=0),
    Message('note_off', channel=0, note=69, velocity=80, time=0),
    Message('note_off', channel=0, note=61, velocity=80, time=0),
    Message('note_off', channel=0, note=57, velocity=80, time=0),
    Message('note_off', channel=0, note=52, velocity=80, time=0),
    Message('note_off', channel=0, note=45, velocity=80, time=0),
    Message('note_on', channel=0, note=69, velocity=95, time=0),
    Message('note_on', channel=0, note=61, velocity=95, time=0),
    Message('note_on', channel=0, note=57, velocity=95, time=0),
    Message('note_on', channel=0, note=52, velocity=95, time=0),
    Message('note_on', channel=0, note=45, velocity=95, time=0),
    Message('control_change', channel=0, control=7, value=13, time=120),
    Message('control_change', channel=1, control=7, value=13, time=0),
    Message('note_off', channel=0, note=69, velocity=80, time=0),
    Message('note_off', channel=0, note=61, velocity=80, time=0),
    Message('note_off', channel=0, note=57, velocity=80, time=0),
    Message('note_off', channel=0, note=52, velocity=80, time=0),
    Message('note_off', channel=0, note=45, velocity=80, time=0),
    Message('note_on', channel=0, note=69, velocity=95, time=0),
    Message('note_on', channel=0, note=61, velocity=95, time=0),
    Message('note_on', channel=0, note=57, velocity=95, time=0),
    Message('note_on', channel=0, note=52, velocity=95, time=0),
    Message('note_on', channel=0, note=45, velocity=95, time=0),
    Message('control_change', channel=0, control=7, value=12, time=120),
    Message('control_change', channel=1, control=7, value=12, time=0),
    Message('control_change', channel=0, control=7, value=10, time=120),
    Message('control_change', channel=1, control=7, value=10, time=0),
    Message('note_off', channel=0, note=69, velocity=80, time=0),
    Message('note_off', channel=0, note=61, velocity=80, time=0),
    Message('note_off', channel=0, note=57, velocity=80, time=0),
    Message('note_off', channel=0, note=52, velocity=80, time=0),
    Message('note_off', channel=0, note=45, velocity=80, time=0),
    Message('note_on', channel=0, note=69, velocity=95, time=0),
    Message('note_on', channel=0, note=61, velocity=95, time=0),
    Message('note_on', channel=0, note=57, velocity=95, time=0),
    Message('note_on', channel=0, note=52, velocity=95, time=0),
    Message('note_on', channel=0, note=45, velocity=95, time=0),
    Message('control_change', channel=0, control=7, value=9, time=120),
    Message('control_change', channel=1, control=7, value=9, time=0),
    Message('note_off', channel=0, note=69, velocity=80, time=0),
    Message('note_off', channel=0, note=61, velocity=80, time=0),
    Message('note_off', channel=0, note=57, velocity=80, time=0),
    Message('note_off', channel=0, note=52, velocity=80, time=0),
    Message('note_off', channel=0, note=45, velocity=80, time=0),
    Message('note_on', channel=0, note=69, velocity=95, time=0),
    Message('note_on', channel=0, note=61, velocity=95, time=0),
    Message('note_on', channel=0, note=57, velocity=95, time=0),
    Message('note_on', channel=0, note=52, velocity=95, time=0),
    Message('note_on', channel=0, note=45, velocity=95, time=0),
    Message('control_change', channel=0, control=7, value=8, time=120),
    Message('control_change', channel=1, control=7, value=8, time=0),
    Message('note_off', channel=0, note=69, velocity=80, time=0),
    Message('note_off', channel=0, note=61, velocity=80, time=0),
    Message('note_off', channel=0, note=57, velocity=80, time=0),
    Message('note_off', channel=0, note=52, velocity=80, time=0),
    Message('note_off', channel=0, note=45, velocity=80, time=0),
    MetaMessage('end_of_track', time=0)]),
  MidiTrack([
    MetaMessage('track_name', name='Electric Guitar and Fiddle', time=0),
    Message('control_change', channel=2, control=100, value=0, time=0),
    Message('control_change', channel=2, control=101, value=0, time=0),
    Message('control_change', channel=2, control=6, value=12, time=0),
    Message('pitchwheel', channel=2, pitch=0, time=0),
    Message('control_change', channel=3, control=100, value=0, time=0),
    Message('control_change', channel=3, control=101, value=0, time=0),
    Message('control_change', channel=3, control=6, value=12, time=0),
    Message('pitchwheel', channel=3, pitch=0, time=0),
    Message('program_change', channel=2, program=80, time=0),
    Message('program_change', channel=3, program=80, time=0),
    Message('control_change', channel=2, control=7, value=88, time=0),
    Message('control_change', channel=3, control=7, value=88, time=0),
    Message('control_change', channel=2, control=10, value=80, time=0),
    Message('control_change', channel=3, control=10, value=80, time=0),
    Message('control_change', channel=2, control=93, value=24, time=0),
    Message('control_change', channel=3, control=93, value=24, time=0),
    Message('control_change', channel=2, control=91, value=48, time=0),
    Message('control_change', channel=3, control=91, value=48, time=0),
    Message('control_change', channel=2, control=92, value=0, time=0),
    Message('control_change', channel=3, control=92, value=0, time=0),
    Message('control_change', channel=2, control=95, value=0, time=0),
    Message('control_change', channel=3, control=95, value=0, time=0),
    Message('control_change', channel=2, control=7, value=22, time=32640),
    Message('control_change', channel=3, control=7, value=22, time=0),
    Message('note_on', channel=2, note=40, velocity=95, time=0),
    Message('control_change', channel=2, control=7, value=44, time=120),
    Message('control_change', channel=3, control=7, value=44, time=0),
    Message('control_change', channel=2, control=7, value=66, time=120),
    Message('control_change', channel=3, control=7, value=66, time=0),
    Message('control_change', channel=2, control=7, value=88, time=120),
    Message('control_change', channel=3, control=7, value=88, time=0),
    Message('note_off', channel=2, note=40, velocity=80, time=1800),
    Message('control_change', channel=2, control=7, value=22, time=720),
    Message('control_change', channel=3, control=7, value=22, time=0),
    Message('note_on', channel=2, note=40, velocity=95, time=0),
    Message('control_change', channel=2, control=7, value=44, time=120),
    Message('control_change', channel=3, control=7, value=44, time=0),
    Message('control_change', channel=2, control=7, value=66, time=120),
    Message('control_change', channel=3, control=7, value=66, time=0),
    Message('control_change', channel=2, control=7, value=88, time=120),
    Message('control_change', channel=3, control=7, value=88, time=0),
    Message('note_off', channel=2, note=40, velocity=80, time=2040),
    Message('note_on', channel=2, note=40, velocity=95, time=960),
    Message('note_off', channel=2, note=40, velocity=80, time=480),
    Message('note_on', channel=2, note=42, velocity=95, time=0),
    Message('note_off', channel=2, note=42, velocity=80, time=480),
    Message('note_on', channel=2, note=44, velocity=95, time=0),
    Message('note_off', channel=2, note=44, velocity=80, time=480),
    Message('note_on', channel=2, note=52, velocity=95, time=0),
    Message('note_on', channel=2, note=45, velocity=95, time=0),
    Message('note_off', channel=2, note=52, velocity=80, time=480),
    Message('note_off', channel=2, note=45, velocity=80, time=0),
    Message('note_on', channel=2, note=57, velocity=95, time=0),
    Message('note_on', channel=2, note=52, velocity=95, time=0),
    Message('note_off', channel=2, note=57, velocity=80, time=480),
    Message('note_off', channel=2, note=52, velocity=80, time=0),
    Message('note_on', channel=2, note=45, velocity=95, time=0),
    Message('note_off', channel=2, note=45, velocity=80, time=240),
    Message('note_on', channel=2, note=57, velocity=95, time=0),
    Message('note_off', channel=2, note=57, velocity=80, time=240),
    Message('note_on', channel=2, note=45, velocity=95, time=0),
    Message('note_off', channel=2, note=45, velocity=80, time=240),
    Message('note_on', channel=2, note=57, velocity=95, time=0),
    Message('note_off', channel=2, note=57, velocity=80, time=240),
    Message('note_on', channel=2, note=45, velocity=95, time=0),
    Message('note_off', channel=2, note=45, velocity=80, time=720),
    Message('note_on', channel=2, note=45, velocity=95, time=0),
    Message('note_on', channel=2, note=47, velocity=95, time=120),
    Message('note_off', channel=2, note=47, velocity=80, time=119),
    Message('note_off', channel=2, note=45, velocity=80, time=1),
    Message('note_on', channel=2, note=49, velocity=95, time=0),
    Message('note_off', channel=2, note=49, velocity=80, time=240),
    Message('note_on', channel=2, note=57, velocity=95, time=0),
    Message('note_on', channel=2, note=52, velocity=95, time=0),
    Message('note_on', channel=2, note=49, velocity=95, time=120),
    Message('note_off', channel=2, note=49, velocity=80, time=119),
    Message('note_off', channel=2, note=57, velocity=80, time=1),
    Message('note_off', channel=2, note=52, velocity=80, time=0),
    Message('note_on', channel=2, note=47, velocity=95, time=0),
    Message('note_off', channel=2, note=47, velocity=80, time=240),
    Message('note_on', channel=2, note=45, velocity=95, time=0),
    Message('note_off', channel=2, note=45, velocity=80, time=240),
    Message('note_on', channel=2, note=45, velocity=95, time=0),
    Message('note_off', channel=2, note=45, velocity=80, time=480),
    Message('note_on', channel=2, note=52, velocity=95, time=0),
    Message('note_off', channel=2, note=52, velocity=80, time=480),
    Message('note_on', channel=2, note=57, velocity=95, time=0),
    Message('note_off', channel=2, note=57, velocity=80, time=480),
    Message('note_on', channel=2, note=57, velocity=95, time=0),
    Message('note_on', channel=2, note=45, velocity=95, time=0),
    Message('note_off', channel=2, note=57, velocity=80, time=480),
    Message('note_off', channel=2, note=45, velocity=80, time=0),
    Message('note_on', channel=2, note=45, velocity=95, time=0),
    Message('note_off', channel=2, note=45, velocity=80, time=480),
    Message('note_on', channel=2, note=52, velocity=95, time=0),
    Message('note_off', channel=2, note=52, velocity=80, time=480),
    Message('note_on', channel=2, note=57, velocity=95, time=240),
    Message('note_off', channel=2, note=57, velocity=80, time=480),
    Message('note_on', channel=2, note=52, velocity=95, time=0),
    Message('note_off', channel=2, note=52, velocity=80, time=240),
    Message('note_on', channel=2, note=47, velocity=95, time=0),
    Message('note_off', channel=2, note=47, velocity=80, time=480),
    Message('note_on', channel=2, note=59, velocity=95, time=0),
    Message('note_on', channel=2, note=54, velocity=95, time=0),
    Message('note_off', channel=2, note=59, velocity=80, time=240),
    Message('note_off', channel=2, note=54, velocity=80, time=0),
    Message('note_on', channel=2, note=57, velocity=95, time=240),
    Message('note_on', channel=2, note=52, velocity=95, time=0),
    Message('note_off', channel=2, note=57, velocity=80, time=240),
    Message('note_off', channel=2, note=52, velocity=80, time=0),
    Message('note_on', channel=2, note=59, velocity=95, time=0),
    Message('note_on', channel=2, note=54, velocity=95, time=0),
    Message('note_off', channel=2, note=59, velocity=80, time=240),
    Message('note_off', channel=2, note=54, velocity=80, time=0),
    Message('note_on', channel=3, note=59, velocity=95, time=240),
    Message('note_on', channel=3, note=54, velocity=95, time=0),
    Message('pitchwheel', channel=3, pitch=0, time=80),
    Message('pitchwheel', channel=3, pitch=0, time=0),
    Message('pitchwheel', channel=3, pitch=256, time=80),
    Message('pitchwheel', channel=3, pitch=256, time=0),
    Message('pitchwheel', channel=3, pitch=0, time=80),
    Message('pitchwheel', channel=3, pitch=0, time=0),
    Message('pitchwheel', channel=3, pitch=256, time=80),
    Message('pitchwheel', channel=3, pitch=256, time=0),
    Message('pitchwheel', channel=3, pitch=0, time=80),
    Message('pitchwheel', channel=3, pitch=0, time=0),
    Message('pitchwheel', channel=3, pitch=256, time=80),
    Message('pitchwheel', channel=3, pitch=256, time=0),
    Message('pitchwheel', channel=3, pitch=0, time=80),
    Message('pitchwheel', channel=3, pitch=0, time=0),
    Message('pitchwheel', channel=3, pitch=256, time=80),
    Message('pitchwheel', channel=3, pitch=256, time=0),
    Message('pitchwheel', channel=3, pitch=0, time=80),
    Message('pitchwheel', channel=3, pitch=0, time=0),
    Message('pitchwheel', channel=3, pitch=256, time=80),
    Message('pitchwheel', channel=3, pitch=256, time=0),
    Message('pitchwheel', channel=3, pitch=0, time=80),
    Message('pitchwheel', channel=3, pitch=0, time=0),
    Message('pitchwheel', channel=3, pitch=256, time=80),
    Message('pitchwheel', channel=3, pitch=256, time=0),
    Message('pitchwheel', channel=3, pitch=0, time=80),
    Message('pitchwheel', channel=3, pitch=0, time=0),
    Message('pitchwheel', channel=3, pitch=256, time=80),
    Message('pitchwheel', channel=3, pitch=256, time=0),
    Message('pitchwheel', channel=3, pitch=0, time=80),
    Message('pitchwheel', channel=3, pitch=0, time=0),
    Message('pitchwheel', channel=3, pitch=256, time=80),
    Message('pitchwheel', channel=3, pitch=256, time=0),
    Message('pitchwheel', channel=3, pitch=0, time=80),
    Message('pitchwheel', channel=3, pitch=0, time=0),
    Message('note_off', channel=3, note=59, velocity=80, time=80),
    Message('pitchwheel', channel=3, pitch=256, time=0),
    Message('pitchwheel', channel=3, pitch=0, time=0),
    Message('note_off', channel=3, note=54, velocity=80, time=0),
    Message('pitchwheel', channel=3, pitch=256, time=0),
    Message('pitchwheel', channel=3, pitch=0, time=0),
    Message('note_on', channel=2, note=54, velocity=95, time=0),
    Message('note_off', channel=2, note=54, velocity=80, time=720),
    Message('note_on', channel=2, note=40, velocity=95, time=0),
    Message('note_off', channel=2, note=40, velocity=80, time=1200),
    Message('note_on', channel=2, note=47, velocity=95, time=0),
    Message('note_off', channel=2, note=47, velocity=80, time=240),
    Message('note_on', channel=2, note=49, velocity=95, time=0),
    Message('note_off', channel=2, note=49, velocity=80, time=240),
    Message('note_on', channel=2, note=52, velocity=95, time=0),
    Message('note_on', channel=2, note=47, velocity=95, time=0),
    Message('note_off', channel=2, note=52, velocity=80, time=480),
    Message('note_off', channel=2, note=47, velocity=80, time=0),
    Message('note_on', channel=2, note=52, velocity=95, time=0),
    Message('note_off', channel=2, note=52, velocity=80, time=240),
    Message('note_on', channel=2, note=40, velocity=95, time=0),
    Message('note_off', channel=2, note=40, velocity=80, time=240),
    Message('note_on', channel=2, note=40, velocity=95, time=0),
    Message('note_off', channel=2, note=40, velocity=80, time=240),
    Message('note_on', channel=2, note=42, velocity=95, time=0),
    Message('note_off', channel=2, note=42, velocity=80, time=240),
    Message('note_on', channel=2, note=42, velocity=95, time=0),
    Message('note_off', channel=2, note=42, velocity=80, time=240),
    Message('note_on', channel=2, note=44, velocity=95, time=0),
    Message('note_off', channel=2, note=44, velocity=80, time=240),
    Message('note_on', channel=2, note=44, velocity=95, time=0),
    Message('note_off', channel=2, note=44, velocity=80, time=240),
    Message('note_on', channel=2, note=52, velocity=95, time=0),
    Message('note_on', channel=2, note=45, velocity=95, time=0),
    Message('note_off', channel=2, note=52, velocity=80, time=480),
    Message('note_off', channel=2, note=45, velocity=80, time=0),
    Message('note_on', channel=2, note=57, velocity=95, time=0),
    Message('note_on', channel=2, note=52, velocity=95, time=0),
    Message('note_off', channel=2, note=57, velocity=80, time=480),
    Message('note_off', channel=2, note=52, velocity=80, time=0),
    Message('note_on', channel=2, note=45, velocity=95, time=0),
    Message('note_off', channel=2, note=45, velocity=80, time=240),
    Message('note_on', channel=2, note=57, velocity=95, time=0),
    Message('note_off', channel=2, note=57, velocity=80, time=240),
    Message('note_on', channel=2, note=45, velocity=95, time=0),
    Message('note_off', channel=2, note=45, velocity=80, time=240),
    Message('note_on', channel=2, note=57, velocity=95, time=0),
    Message('note_off', channel=2, note=57, velocity=80, time=240),
    Message('note_on', channel=2, note=45, velocity=95, time=0),
    Message('note_off', channel=2, note=45, velocity=80, time=720),
    Message('note_on', channel=2, note=45, velocity=95, time=0),
    Message('note_on', channel=2, note=47, velocity=95, time=120),
    Message('note_off', channel=2, note=47, velocity=80, time=119),
    Message('note_off', channel=2, note=45, velocity=80, time=1),
    Message('note_on', channel=2, note=49, velocity=95, time=0),
    Message('note_off', channel=2, note=49, velocity=80, time=240),
    Message('note_on', channel=2, note=57, velocity=95, time=0),
    Message('note_on', channel=2, note=52, velocity=95, time=0),
    Message('note_on', channel=2, note=49, velocity=95, time=120),
    Message('note_off', channel=2, note=49, velocity=80, time=119),
    Message('note_off', channel=2, note=57, velocity=80, time=1),
    Message('note_off', channel=2, note=52, velocity=80, time=0),
    Message('note_on', channel=2, note=47, velocity=95, time=0),
    Message('note_off', channel=2, note=47, velocity=80, time=240),
    Message('note_on', channel=2, note=45, velocity=95, time=0),
    Message('note_off', channel=2, note=45, velocity=80, time=240),
    Message('note_on', channel=2, note=45, velocity=95, time=0),
    Message('note_off', channel=2, note=45, velocity=80, time=480),
    Message('note_on', channel=2, note=52, velocity=95, time=0),
    Message('note_off', channel=2, note=52, velocity=80, time=480),
    Message('note_on', channel=2, note=57, velocity=95, time=0),
    Message('note_off', channel=2, note=57, velocity=80, time=480),
    Message('note_on', channel=2, note=57, velocity=95, time=0),
    Message('note_on', channel=2, note=45, velocity=95, time=0),
    Message('note_off', channel=2, note=57, velocity=80, time=480),
    Message('note_off', channel=2, note=45, velocity=80, time=0),
    Message('note_on', channel=2, note=57, velocity=95, time=0),
    Message('note_on', channel=2, note=52, velocity=95, time=0),
    Message('note_on', channel=2, note=45, velocity=95, time=0),
    Message('note_off', channel=2, note=57, velocity=80, time=1920),
    Message('note_off', channel=2, note=52, velocity=80, time=0),
    Message('note_off', channel=2, note=45, velocity=80, time=0),
    Message('note_on', channel=2, note=54, velocity=95, time=0),
    Message('note_on', channel=2, note=47, velocity=95, time=0),
    Message('note_off', channel=2, note=54, velocity=80, time=480),
    Message('note_off', channel=2, note=47, velocity=80, time=0),
    Message('note_on', channel=2, note=54, velocity=95, time=0),
    Message('note_on', channel=2, note=47, velocity=95, time=0),
    Message('note_off', channel=2, note=54, velocity=80, time=480),
    Message('note_off', channel=2, note=47, velocity=80, time=0),
    Message('note_on', channel=2, note=54, velocity=95, time=0),
    Message('note_on', channel=2, note=47, velocity=95, time=0),
    Message('note_off', channel=2, note=54, velocity=80, time=240),
    Message('note_off', channel=2, note=47, velocity=80, time=0),
    Message('note_on', channel=2, note=45, velocity=95, time=0),
    Message('note_off', channel=2, note=45, velocity=80, time=240),
    Message('note_on', channel=3, note=42, velocity=95, time=0),
    Message('pitchwheel', channel=3, pitch=0, time=0),
    Message('pitchwheel', channel=3, pitch=128, time=16),
    Message('pitchwheel', channel=3, pitch=384, time=16),
    Message('pitchwheel', channel=3, pitch=512, time=16),
    Message('pitchwheel', channel=3, pitch=768, time=16),
    Message('pitchwheel', channel=3, pitch=896, time=16),
    Message('pitchwheel', channel=3, pitch=1152, time=16),
    Message('pitchwheel', channel=3, pitch=1280, time=16),
    Message('pitchwheel', channel=3, pitch=1408, time=16),
    Message('pitchwheel', channel=3, pitch=1152, time=128),
    Message('pitchwheel', channel=3, pitch=1024, time=16),
    Message('pitchwheel', channel=3, pitch=768, time=16),
    Message('pitchwheel', channel=3, pitch=640, time=16),
    Message('pitchwheel', channel=3, pitch=512, time=16),
    Message('pitchwheel', channel=3, pitch=256, time=16),
    Message('pitchwheel', channel=3, pitch=128, time=16),
    Message('pitchwheel', channel=3, pitch=0, time=16),
    Message('note_off', channel=3, note=42, velocity=80, time=112),
    Message('pitchwheel', channel=3, pitch=0, time=0),
    Message('note_on', channel=2, note=47, velocity=95, time=0),
    Message('note_on', channel=2, note=40, velocity=95, time=0),
    Message('note_off', channel=2, note=47, velocity=80, time=1440),
    Message('note_off', channel=2, note=40, velocity=80, time=0),
    Message('note_on', channel=2, note=45, velocity=95, time=480),
    Message('note_off', channel=2, note=45, velocity=80, time=480),
    Message('note_on', channel=2, note=57, velocity=95, time=0),
    Message('note_on', channel=2, note=52, velocity=95, time=0),
    Message('note_off', channel=2, note=57, velocity=80, time=480),
    Message('note_off', channel=2, note=52, velocity=80, time=0),
    Message('note_on', channel=2, note=40, velocity=95, time=0),
    Message('note_off', channel=2, note=40, velocity=80, time=240),
    Message('note_on', channel=2, note=57, velocity=95, time=0),
    Message('note_off', channel=2, note=57, velocity=80, time=240),
    Message('note_on', channel=2, note=45, velocity=95, time=0),
    Message('note_off', channel=2, note=45, velocity=80, time=240),
    Message('note_on', channel=2, note=57, velocity=95, time=0),
    Message('note_off', channel=2, note=57, velocity=80, time=240),
    Message('note_on', channel=2, note=45, velocity=95, time=0),
    Message('note_off', channel=2, note=45, velocity=80, time=240),
    Message('note_on', channel=2, note=57, velocity=95, time=0),
    Message('note_off', channel=2, note=57, velocity=80, time=240),
    Message('note_on', channel=2, note=40, velocity=95, time=0),
    Message('note_off', channel=2, note=40, velocity=80, time=480),
    Message('note_on', channel=2, note=42, velocity=95, time=0),
    Message('note_off', channel=2, note=42, velocity=80, time=480),
    Message('note_on', channel=2, note=44, velocity=95, time=0),
    Message('note_off', channel=2, note=44, velocity=80, time=480),
    Message('note_on', channel=2, note=45, velocity=95, time=0),
    Message('note_off', channel=2, note=45, velocity=80, time=480),
    Message('note_on', channel=2, note=57, velocity=95, time=0),
    Message('note_on', channel=2, note=52, velocity=95, time=0),
    Message('note_off', channel=2, note=57, velocity=80, time=480),
    Message('note_off', channel=2, note=52, velocity=80, time=0),
    Message('note_on', channel=2, note=40, velocity=95, time=0),
    Message('note_off', channel=2, note=40, velocity=80, time=480),
    Message('note_on', channel=2, note=57, velocity=95, time=0),
    Message('note_on', channel=2, note=52, velocity=95, time=0),
    Message('note_off', channel=2, note=57, velocity=80, time=480),
    Message('note_off', channel=2, note=52, velocity=80, time=0),
    Message('note_on', channel=2, note=45, velocity=95, time=0),
    Message('note_off', channel=2, note=45, velocity=80, time=480),
    Message('note_on', channel=2, note=57, velocity=95, time=0),
    Message('note_on', channel=2, note=52, velocity=95, time=0),
    Message('note_off', channel=2, note=57, velocity=80, time=480),
    Message('note_off', channel=2, note=52, velocity=80, time=0),
    Message('note_on', channel=2, note=40, velocity=95, time=0),
    Message('note_off', channel=2, note=40, velocity=80, time=480),
    Message('note_on', channel=2, note=57, velocity=95, time=0),
    Message('note_on', channel=2, note=52, velocity=95, time=0),
    Message('note_off', channel=2, note=57, velocity=80, time=480),
    Message('note_off', channel=2, note=52, velocity=80, time=0),
    Message('note_on', channel=2, note=45, velocity=95, time=0),
    Message('note_off', channel=2, note=45, velocity=80, time=480),
    Message('note_on', channel=2, note=57, velocity=95, time=0),
    Message('note_on', channel=2, note=52, velocity=95, time=0),
    Message('note_off', channel=2, note=57, velocity=80, time=480),
    Message('note_off', channel=2, note=52, velocity=80, time=0),
    Message('note_on', channel=2, note=40, velocity=95, time=0),
    Message('note_off', channel=2, note=40, velocity=80, time=480),
    Message('note_on', channel=2, note=57, velocity=95, time=0),
    Message('note_on', channel=2, note=52, velocity=95, time=0),
    Message('note_on', channel=2, note=52, velocity=95, time=360),
    Message('note_off', channel=2, note=52, velocity=80, time=119),
    Message('note_off', channel=2, note=57, velocity=80, time=1),
    Message('note_off', channel=2, note=52, velocity=80, time=0),
    Message('note_on', channel=2, note=54, velocity=95, time=0),
    Message('note_off', channel=2, note=54, velocity=80, time=240),
    Message('note_on', channel=2, note=52, velocity=95, time=240),
    Message('note_on', channel=2, note=49, velocity=95, time=360),
    Message('note_off', channel=2, note=49, velocity=80, time=119),
    Message('note_off', channel=2, note=52, velocity=80, time=1),
    Message('note_on', channel=2, note=47, velocity=95, time=0),
    Message('note_off', channel=2, note=47, velocity=80, time=240),
    Message('note_on', channel=2, note=45, velocity=95, time=0),
    Message('note_off', channel=2, note=45, velocity=80, time=240),
    Message('note_on', channel=3, note=47, velocity=95, time=0),
    Message('pitchwheel', channel=3, pitch=640, time=120),
    Message('note_off', channel=3, note=47, velocity=80, time=120),
    Message('pitchwheel', channel=3, pitch=0, time=0),
    Message('note_on', channel=2, note=49, velocity=86, time=0),
    Message('note_off', channel=2, note=49, velocity=80, time=240),
    Message('note_on', channel=2, note=47, velocity=95, time=0),
    Message('note_off', channel=2, note=47, velocity=80, time=480),
    Message('note_on', channel=2, note=59, velocity=95, time=0),
    Message('note_on', channel=2, note=54, velocity=95, time=0),
    Message('note_off', channel=2, note=59, velocity=80, time=480),
    Message('note_off', channel=2, note=54, velocity=80, time=0),
    Message('note_on', channel=2, note=47, velocity=95, time=0),
    Message('note_off', channel=2, note=47, velocity=80, time=480),
    Message('note_on', channel=2, note=59, velocity=95, time=0),
    Message('note_on', channel=2, note=54, velocity=95, time=0),
    Message('note_off', channel=2, note=59, velocity=80, time=480),
    Message('note_off', channel=2, note=54, velocity=80, time=0),
    Message('note_on', channel=2, note=40, velocity=95, time=0),
    Message('note_off', channel=2, note=40, velocity=80, time=480),
    Message('note_on', channel=2, note=52, velocity=95, time=0),
    Message('note_off', channel=2, note=52, velocity=80, time=480),
    Message('note_on', channel=2, note=40, velocity=95, time=0),
    Message('note_off', channel=2, note=40, velocity=80, time=480),
    Message('note_on', channel=2, note=52, velocity=95, time=0),
    Message('note_off', channel=2, note=52, velocity=80, time=480),
    Message('note_on', channel=2, note=45, velocity=95, time=0),
    Message('note_off', channel=2, note=45, velocity=80, time=480),
    Message('note_on', channel=2, note=57, velocity=95, time=0),
    Message('note_on', channel=2, note=52, velocity=95, time=0),
    Message('note_off', channel=2, note=57, velocity=80, time=480),
    Message('note_off', channel=2, note=52, velocity=80, time=0),
    Message('note_on', channel=2, note=40, velocity=95, time=0),
    Message('note_off', channel=2, note=40, velocity=80, time=480),
    Message('note_on', channel=2, note=57, velocity=95, time=0),
    Message('note_on', channel=2, note=52, velocity=95, time=0),
    Message('note_off', channel=2, note=57, velocity=80, time=480),
    Message('note_off', channel=2, note=52, velocity=80, time=0),
    Message('note_on', channel=2, note=52, velocity=95, time=0),
    Message('note_on', channel=2, note=45, velocity=95, time=0),
    Message('note_off', channel=2, note=52, velocity=80, time=1920),
    Message('note_off', channel=2, note=45, velocity=80, time=0),
    Message('program_change', channel=2, program=110, time=15360),
    Message('program_change', channel=3, program=110, time=0),
    Message('control_change', channel=2, control=7, value=104, time=0),
    Message('control_change', channel=3, control=7, value=104, time=0),
    Message('note_on', channel=2, note=69, velocity=95, time=0),
    Message('note_off', channel=2, note=69, velocity=80, time=960),
    Message('note_on', channel=3, note=57, velocity=95, time=0),
    Message('pitchwheel', channel=3, pitch=0, time=80),
    Message('pitchwheel', channel=3, pitch=256, time=80),
    Message('pitchwheel', channel=3, pitch=0, time=80),
    Message('pitchwheel', channel=3, pitch=256, time=80),
    Message('pitchwheel', channel=3, pitch=0, time=80),
    Message('pitchwheel', channel=3, pitch=256, time=80),
    Message('pitchwheel', channel=3, pitch=0, time=80),
    Message('pitchwheel', channel=3, pitch=256, time=80),
    Message('pitchwheel', channel=3, pitch=0, time=80),
    Message('pitchwheel', channel=3, pitch=256, time=80),
    Message('pitchwheel', channel=3, pitch=0, time=80),
    Message('note_off', channel=3, note=57, velocity=80, time=80),
    Message('pitchwheel', channel=3, pitch=256, time=0),
    Message('pitchwheel', channel=3, pitch=0, time=0),
    Message('note_on', channel=2, note=70, velocity=95, time=0),
    Message('note_on', channel=2, note=58, velocity=95, time=0),
    Message('note_off', channel=2, note=70, velocity=80, time=1440),
    Message('note_off', channel=2, note=58, velocity=80, time=0),
    Message('note_on', channel=2, note=71, velocity=95, time=480),
    Message('note_off', channel=2, note=71, velocity=80, time=1440),
    Message('program_change', channel=2, program=80, time=480),
    Message('program_change', channel=3, program=80, time=0),
    Message('control_change', channel=2, control=7, value=96, time=0),
    Message('control_change', channel=3, control=7, value=96, time=0),
    Message('note_on', channel=3, note=74, velocity=95, time=240),
    Message('note_on', channel=3, note=65, velocity=95, time=0),
    Message('pitchwheel', channel=3, pitch=-640, time=192),
    Message('pitchwheel', channel=3, pitch=-640, time=0),
    Message('note_off', channel=3, note=74, velocity=80, time=48),
    Message('pitchwheel', channel=3, pitch=0, time=0),
    Message('note_off', channel=3, note=65, velocity=80, time=0),
    Message('pitchwheel', channel=3, pitch=0, time=0),
    Message('note_on', channel=3, note=73, velocity=86, time=240),
    Message('note_on', channel=3, note=64, velocity=86, time=0),
    Message('pitchwheel', channel=3, pitch=-640, time=120),
    Message('pitchwheel', channel=3, pitch=-640, time=0),
    Message('note_off', channel=3, note=73, velocity=80, time=120),
    Message('pitchwheel', channel=3, pitch=0, time=0),
    Message('note_off', channel=3, note=64, velocity=80, time=0),
    Message('pitchwheel', channel=3, pitch=0, time=0),
    Message('note_on', channel=3, note=71, velocity=86, time=240),
    Message('note_on', channel=3, note=62, velocity=86, time=0),
    Message('pitchwheel', channel=3, pitch=-640, time=120),
    Message('pitchwheel', channel=3, pitch=-640, time=0),
    Message('pitchwheel', channel=3, pitch=-1408, time=40),
    Message('pitchwheel', channel=3, pitch=-1408, time=0),
    Message('pitchwheel', channel=3, pitch=-2048, time=40),
    Message('pitchwheel', channel=3, pitch=-2048, time=0),
    Message('note_off', channel=3, note=71, velocity=80, time=40),
    Message('pitchwheel', channel=3, pitch=0, time=0),
    Message('note_off', channel=3, note=62, velocity=80, time=0),
    Message('pitchwheel', channel=3, pitch=0, time=0),
    Message('note_on', channel=2, note=68, velocity=95, time=480),
    Message('note_on', channel=2, note=59, velocity=95, time=0),
    Message('note_on', channel=2, note=40, velocity=95, time=0),
    Message('note_off', channel=2, note=68, velocity=80, time=960),
    Message('note_off', channel=2, note=59, velocity=80, time=0),
    Message('note_off', channel=2, note=40, velocity=80, time=0),
    Message('note_on', channel=2, note=40, velocity=95, time=1920),
    Message('note_off', channel=2, note=40, velocity=80, time=240),
    Message('note_on', channel=2, note=40, velocity=95, time=0),
    Message('note_off', channel=2, note=40, velocity=80, time=240),
    Message('note_on', channel=2, note=40, velocity=95, time=0),
    Message('note_off', channel=2, note=40, velocity=80, time=240),
    Message('note_on', channel=2, note=40, velocity=95, time=0),
    Message('note_off', channel=2, note=40, velocity=80, time=240),
    Message('note_on', channel=2, note=40, velocity=95, time=0),
    Message('note_off', channel=2, note=40, velocity=80, time=1680),
    Message('note_on', channel=2, note=52, velocity=95, time=0),
    Message('note_off', channel=2, note=52, velocity=80, time=240),
    Message('note_on', channel=2, note=40, velocity=95, time=0),
    Message('note_off', channel=2, note=40, velocity=80, time=480),
    Message('note_on', channel=2, note=40, velocity=95, time=0),
    Message('note_off', channel=2, note=40, velocity=80, time=480),
    Message('note_on', channel=2, note=42, velocity=95, time=0),
    Message('note_off', channel=2, note=42, velocity=80, time=480),
    Message('note_on', channel=2, note=44, velocity=95, time=0),
    Message('note_off', channel=2, note=44, velocity=80, time=480),
    Message('note_on', channel=2, note=52, velocity=95, time=0),
    Message('note_on', channel=2, note=45, velocity=95, time=0),
    Message('note_off', channel=2, note=52, velocity=80, time=480),
    Message('note_off', channel=2, note=45, velocity=80, time=0),
    Message('note_on', channel=2, note=57, velocity=95, time=0),
    Message('note_on', channel=2, note=52, velocity=95, time=0),
    Message('note_off', channel=2, note=57, velocity=80, time=480),
    Message('note_off', channel=2, note=52, velocity=80, time=0),
    Message('note_on', channel=2, note=45, velocity=95, time=0),
    Message('note_off', channel=2, note=45, velocity=80, time=240),
    Message('note_on', channel=2, note=57, velocity=95, time=0),
    Message('note_off', channel=2, note=57, velocity=80, time=240),
    Message('note_on', channel=2, note=45, velocity=95, time=0),
    Message('note_off', channel=2, note=45, velocity=80, time=240),
    Message('note_on', channel=2, note=57, velocity=95, time=0),
    Message('note_off', channel=2, note=57, velocity=80, time=240),
    Message('note_on', channel=2, note=45, velocity=95, time=0),
    Message('note_off', channel=2, note=45, velocity=80, time=720),
    Message('note_on', channel=2, note=45, velocity=95, time=0),
    Message('note_on', channel=2, note=47, velocity=95, time=120),
    Message('note_off', channel=2, note=47, velocity=80, time=119),
    Message('note_off', channel=2, note=45, velocity=80, time=1),
    Message('note_on', channel=2, note=49, velocity=95, time=0),
    Message('note_off', channel=2, note=49, velocity=80, time=240),
    Message('note_on', channel=2, note=57, velocity=95, time=0),
    Message('note_on', channel=2, note=52, velocity=95, time=0),
    Message('note_on', channel=2, note=49, velocity=95, time=120),
    Message('note_off', channel=2, note=49, velocity=80, time=119),
    Message('note_off', channel=2, note=57, velocity=80, time=1),
    Message('note_off', channel=2, note=52, velocity=80, time=0),
    Message('note_on', channel=2, note=47, velocity=95, time=0),
    Message('note_off', channel=2, note=47, velocity=80, time=240),
    Message('note_on', channel=2, note=45, velocity=95, time=0),
    Message('note_off', channel=2, note=45, velocity=80, time=240),
    Message('note_on', channel=2, note=45, velocity=95, time=0),
    Message('note_off', channel=2, note=45, velocity=80, time=480),
    Message('note_on', channel=2, note=52, velocity=95, time=0),
    Message('note_off', channel=2, note=52, velocity=80, time=480),
    Message('note_on', channel=2, note=57, velocity=95, time=0),
    Message('note_off', channel=2, note=57, velocity=80, time=480),
    Message('note_on', channel=2, note=57, velocity=95, time=0),
    Message('note_on', channel=2, note=45, velocity=95, time=0),
    Message('note_off', channel=2, note=57, velocity=80, time=480),
    Message('note_off', channel=2, note=45, velocity=80, time=0),
    Message('note_on', channel=2, note=45, velocity=95, time=0),
    Message('note_off', channel=2, note=45, velocity=80, time=480),
    Message('note_on', channel=2, note=52, velocity=95, time=0),
    Message('note_off', channel=2, note=52, velocity=80, time=480),
    Message('note_on', channel=2, note=57, velocity=95, time=240),
    Message('note_off', channel=2, note=57, velocity=80, time=480),
    Message('note_on', channel=2, note=52, velocity=95, time=0),
    Message('note_off', channel=2, note=52, velocity=80, time=240),
    Message('note_on', channel=2, note=47, velocity=95, time=0),
    Message('note_off', channel=2, note=47, velocity=80, time=480),
    Message('note_on', channel=2, note=59, velocity=95, time=0),
    Message('note_on', channel=2, note=54, velocity=95, time=0),
    Message('note_off', channel=2, note=59, velocity=80, time=240),
    Message('note_off', channel=2, note=54, velocity=80, time=0),
    Message('note_on', channel=2, note=57, velocity=95, time=240),
    Message('note_on', channel=2, note=52, velocity=95, time=0),
    Message('note_off', channel=2, note=57, velocity=80, time=240),
    Message('note_off', channel=2, note=52, velocity=80, time=0),
    Message('note_on', channel=2, note=59, velocity=95, time=0),
    Message('note_on', channel=2, note=54, velocity=95, time=0),
    Message('note_off', channel=2, note=59, velocity=80, time=240),
    Message('note_off', channel=2, note=54, velocity=80, time=0),
    Message('note_on', channel=3, note=59, velocity=95, time=240),
    Message('note_on', channel=3, note=54, velocity=95, time=0),
    Message('pitchwheel', channel=3, pitch=0, time=80),
    Message('pitchwheel', channel=3, pitch=0, time=0),
    Message('pitchwheel', channel=3, pitch=256, time=80),
    Message('pitchwheel', channel=3, pitch=256, time=0),
    Message('pitchwheel', channel=3, pitch=0, time=80),
    Message('pitchwheel', channel=3, pitch=0, time=0),
    Message('pitchwheel', channel=3, pitch=256, time=80),
    Message('pitchwheel', channel=3, pitch=256, time=0),
    Message('pitchwheel', channel=3, pitch=0, time=80),
    Message('pitchwheel', channel=3, pitch=0, time=0),
    Message('pitchwheel', channel=3, pitch=256, time=80),
    Message('pitchwheel', channel=3, pitch=256, time=0),
    Message('pitchwheel', channel=3, pitch=0, time=80),
    Message('pitchwheel', channel=3, pitch=0, time=0),
    Message('pitchwheel', channel=3, pitch=256, time=80),
    Message('pitchwheel', channel=3, pitch=256, time=0),
    Message('pitchwheel', channel=3, pitch=0, time=80),
    Message('pitchwheel', channel=3, pitch=0, time=0),
    Message('pitchwheel', channel=3, pitch=256, time=80),
    Message('pitchwheel', channel=3, pitch=256, time=0),
    Message('pitchwheel', channel=3, pitch=0, time=80),
    Message('pitchwheel', channel=3, pitch=0, time=0),
    Message('pitchwheel', channel=3, pitch=256, time=80),
    Message('pitchwheel', channel=3, pitch=256, time=0),
    Message('pitchwheel', channel=3, pitch=0, time=80),
    Message('pitchwheel', channel=3, pitch=0, time=0),
    Message('pitchwheel', channel=3, pitch=256, time=80),
    Message('pitchwheel', channel=3, pitch=256, time=0),
    Message('pitchwheel', channel=3, pitch=0, time=80),
    Message('pitchwheel', channel=3, pitch=0, time=0),
    Message('pitchwheel', channel=3, pitch=256, time=80),
    Message('pitchwheel', channel=3, pitch=256, time=0),
    Message('pitchwheel', channel=3, pitch=0, time=80),
    Message('pitchwheel', channel=3, pitch=0, time=0),
    Message('note_off', channel=3, note=59, velocity=80, time=80),
    Message('pitchwheel', channel=3, pitch=256, time=0),
    Message('pitchwheel', channel=3, pitch=0, time=0),
    Message('note_off', channel=3, note=54, velocity=80, time=0),
    Message('pitchwheel', channel=3, pitch=256, time=0),
    Message('pitchwheel', channel=3, pitch=0, time=0),
    Message('note_on', channel=2, note=54, velocity=95, time=0),
    Message('note_off', channel=2, note=54, velocity=80, time=720),
    Message('note_on', channel=2, note=40, velocity=95, time=0),
    Message('note_off', channel=2, note=40, velocity=80, time=1200),
    Message('note_on', channel=2, note=47, velocity=95, time=0),
    Message('note_off', channel=2, note=47, velocity=80, time=240),
    Message('note_on', channel=2, note=49, velocity=95, time=0),
    Message('note_off', channel=2, note=49, velocity=80, time=240),
    Message('note_on', channel=2, note=52, velocity=95, time=0),
    Message('note_on', channel=2, note=47, velocity=95, time=0),
    Message('note_off', channel=2, note=52, velocity=80, time=480),
    Message('note_off', channel=2, note=47, velocity=80, time=0),
    Message('note_on', channel=2, note=52, velocity=95, time=0),
    Message('note_off', channel=2, note=52, velocity=80, time=240),
    Message('note_on', channel=2, note=40, velocity=95, time=0),
    Message('note_off', channel=2, note=40, velocity=80, time=240),
    Message('note_on', channel=2, note=40, velocity=95, time=0),
    Message('note_off', channel=2, note=40, velocity=80, time=240),
    Message('note_on', channel=2, note=42, velocity=95, time=0),
    Message('note_off', channel=2, note=42, velocity=80, time=240),
    Message('note_on', channel=2, note=42, velocity=95, time=0),
    Message('note_off', channel=2, note=42, velocity=80, time=240),
    Message('note_on', channel=2, note=44, velocity=95, time=0),
    Message('note_off', channel=2, note=44, velocity=80, time=240),
    Message('note_on', channel=2, note=44, velocity=95, time=0),
    Message('note_off', channel=2, note=44, velocity=80, time=240),
    Message('note_on', channel=2, note=52, velocity=95, time=0),
    Message('note_on', channel=2, note=45, velocity=95, time=0),
    Message('note_off', channel=2, note=52, velocity=80, time=480),
    Message('note_off', channel=2, note=45, velocity=80, time=0),
    Message('note_on', channel=2, note=57, velocity=95, time=0),
    Message('note_on', channel=2, note=52, velocity=95, time=0),
    Message('note_off', channel=2, note=57, velocity=80, time=480),
    Message('note_off', channel=2, note=52, velocity=80, time=0),
    Message('note_on', channel=2, note=45, velocity=95, time=0),
    Message('note_off', channel=2, note=45, velocity=80, time=240),
    Message('note_on', channel=2, note=57, velocity=95, time=0),
    Message('note_off', channel=2, note=57, velocity=80, time=240),
    Message('note_on', channel=2, note=45, velocity=95, time=0),
    Message('note_off', channel=2, note=45, velocity=80, time=240),
    Message('note_on', channel=2, note=57, velocity=95, time=0),
    Message('note_off', channel=2, note=57, velocity=80, time=240),
    Message('note_on', channel=2, note=45, velocity=95, time=0),
    Message('note_off', channel=2, note=45, velocity=80, time=720),
    Message('note_on', channel=2, note=45, velocity=95, time=0),
    Message('note_on', channel=2, note=47, velocity=95, time=120),
    Message('note_off', channel=2, note=47, velocity=80, time=119),
    Message('note_off', channel=2, note=45, velocity=80, time=1),
    Message('note_on', channel=2, note=49, velocity=95, time=0),
    Message('note_off', channel=2, note=49, velocity=80, time=240),
    Message('note_on', channel=2, note=57, velocity=95, time=0),
    Message('note_on', channel=2, note=52, velocity=95, time=0),
    Message('note_on', channel=2, note=49, velocity=95, time=120),
    Message('note_off', channel=2, note=49, velocity=80, time=119),
    Message('note_off', channel=2, note=57, velocity=80, time=1),
    Message('note_off', channel=2, note=52, velocity=80, time=0),
    Message('note_on', channel=2, note=47, velocity=95, time=0),
    Message('note_off', channel=2, note=47, velocity=80, time=240),
    Message('note_on', channel=2, note=45, velocity=95, time=0),
    Message('note_off', channel=2, note=45, velocity=80, time=240),
    Message('note_on', channel=2, note=45, velocity=95, time=0),
    Message('note_off', channel=2, note=45, velocity=80, time=480),
    Message('note_on', channel=2, note=52, velocity=95, time=0),
    Message('note_off', channel=2, note=52, velocity=80, time=480),
    Message('note_on', channel=2, note=57, velocity=95, time=0),
    Message('note_off', channel=2, note=57, velocity=80, time=480),
    Message('note_on', channel=2, note=57, velocity=95, time=0),
    Message('note_on', channel=2, note=45, velocity=95, time=0),
    Message('note_off', channel=2, note=57, velocity=80, time=480),
    Message('note_off', channel=2, note=45, velocity=80, time=0),
    Message('note_on', channel=2, note=57, velocity=95, time=0),
    Message('note_on', channel=2, note=52, velocity=95, time=0),
    Message('note_on', channel=2, note=45, velocity=95, time=0),
    Message('note_off', channel=2, note=57, velocity=80, time=1920),
    Message('note_off', channel=2, note=52, velocity=80, time=0),
    Message('note_off', channel=2, note=45, velocity=80, time=0),
    Message('note_on', channel=2, note=54, velocity=95, time=0),
    Message('note_on', channel=2, note=47, velocity=95, time=0),
    Message('note_off', channel=2, note=54, velocity=80, time=480),
    Message('note_off', channel=2, note=47, velocity=80, time=0),
    Message('note_on', channel=2, note=54, velocity=95, time=0),
    Message('note_on', channel=2, note=47, velocity=95, time=0),
    Message('note_off', channel=2, note=54, velocity=80, time=480),
    Message('note_off', channel=2, note=47, velocity=80, time=0),
    Message('note_on', channel=2, note=54, velocity=95, time=0),
    Message('note_on', channel=2, note=47, velocity=95, time=0),
    Message('note_off', channel=2, note=54, velocity=80, time=240),
    Message('note_off', channel=2, note=47, velocity=80, time=0),
    Message('note_on', channel=2, note=45, velocity=95, time=0),
    Message('note_off', channel=2, note=45, velocity=80, time=240),
    Message('note_on', channel=3, note=42, velocity=95, time=0),
    Message('pitchwheel', channel=3, pitch=0, time=0),
    Message('pitchwheel', channel=3, pitch=128, time=16),
    Message('pitchwheel', channel=3, pitch=384, time=16),
    Message('pitchwheel', channel=3, pitch=512, time=16),
    Message('pitchwheel', channel=3, pitch=768, time=16),
    Message('pitchwheel', channel=3, pitch=896, time=16),
    Message('pitchwheel', channel=3, pitch=1152, time=16),
    Message('pitchwheel', channel=3, pitch=1280, time=16),
    Message('pitchwheel', channel=3, pitch=1408, time=16),
    Message('pitchwheel', channel=3, pitch=1152, time=128),
    Message('pitchwheel', channel=3, pitch=1024, time=16),
    Message('pitchwheel', channel=3, pitch=768, time=16),
    Message('pitchwheel', channel=3, pitch=640, time=16),
    Message('pitchwheel', channel=3, pitch=512, time=16),
    Message('pitchwheel', channel=3, pitch=256, time=16),
    Message('pitchwheel', channel=3, pitch=128, time=16),
    Message('pitchwheel', channel=3, pitch=0, time=16),
    Message('note_off', channel=3, note=42, velocity=80, time=112),
    Message('pitchwheel', channel=3, pitch=0, time=0),
    Message('note_on', channel=2, note=47, velocity=95, time=0),
    Message('note_on', channel=2, note=40, velocity=95, time=0),
    Message('note_off', channel=2, note=47, velocity=80, time=1440),
    Message('note_off', channel=2, note=40, velocity=80, time=0),
    Message('note_on', channel=2, note=45, velocity=95, time=480),
    Message('note_off', channel=2, note=45, velocity=80, time=240),
    Message('note_on', channel=2, note=57, velocity=95, time=240),
    Message('note_on', channel=2, note=52, velocity=95, time=0),
    Message('note_off', channel=2, note=57, velocity=80, time=480),
    Message('note_off', channel=2, note=52, velocity=80, time=0),
    Message('note_on', channel=2, note=40, velocity=95, time=0),
    Message('note_off', channel=2, note=40, velocity=80, time=480),
    Message('note_on', channel=2, note=57, velocity=95, time=0),
    Message('note_on', channel=2, note=52, velocity=95, time=0),
    Message('note_off', channel=2, note=57, velocity=80, time=240),
    Message('note_off', channel=2, note=52, velocity=80, time=0),
    Message('note_on', channel=2, note=57, velocity=95, time=0),
    Message('note_on', channel=2, note=52, velocity=95, time=0),
    Message('note_off', channel=2, note=57, velocity=80, time=240),
    Message('note_off', channel=2, note=52, velocity=80, time=0),
    Message('note_on', channel=2, note=45, velocity=95, time=0),
    Message('note_off', channel=2, note=45, velocity=80, time=480),
    Message('note_on', channel=2, note=40, velocity=95, time=0),
    Message('note_off', channel=2, note=40, velocity=80, time=480),
    Message('note_on', channel=2, note=42, velocity=95, time=0),
    Message('note_off', channel=2, note=42, velocity=80, time=480),
    Message('note_on', channel=2, note=44, velocity=95, time=0),
    Message('note_off', channel=2, note=44, velocity=80, time=480),
    Message('program_change', channel=2, program=110, time=7680),
    Message('program_change', channel=3, program=110, time=0),
    Message('control_change', channel=2, control=7, value=80, time=0),
    Message('control_change', channel=3, control=7, value=80, time=0),
    Message('control_change', channel=2, control=10, value=104, time=0),
    Message('control_change', channel=3, control=10, value=104, time=0),
    Message('control_change', channel=2, control=91, value=48, time=0),
    Message('control_change', channel=3, control=91, value=48, time=0),
    Message('note_on', channel=3, note=76, velocity=95, time=480),
    Message('pitchwheel', channel=3, pitch=640, time=120),
    Message('pitchwheel', channel=3, pitch=1408, time=120),
    Message('note_off', channel=3, note=76, velocity=80, time=240),
    Message('pitchwheel', channel=3, pitch=0, time=0),
    Message('note_on', channel=3, note=81, velocity=95, time=0),
    Message('pitchwheel', channel=3, pitch=0, time=80),
    Message('pitchwheel', channel=3, pitch=256, time=80),
    Message('pitchwheel', channel=3, pitch=0, time=80),
    Message('pitchwheel', channel=3, pitch=256, time=80),
    Message('pitchwheel', channel=3, pitch=0, time=80),
    Message('note_off', channel=3, note=81, velocity=80, time=80),
    Message('pitchwheel', channel=3, pitch=256, time=0),
    Message('pitchwheel', channel=3, pitch=0, time=0),
    Message('note_on', channel=3, note=76, velocity=86, time=240),
    Message('pitchwheel', channel=3, pitch=0, time=0),
    Message('pitchwheel', channel=3, pitch=128, time=16),
    Message('pitchwheel', channel=3, pitch=384, time=16),
    Message('pitchwheel', channel=3, pitch=512, time=16),
    Message('pitchwheel', channel=3, pitch=768, time=16),
    Message('pitchwheel', channel=3, pitch=896, time=16),
    Message('pitchwheel', channel=3, pitch=1152, time=16),
    Message('pitchwheel', channel=3, pitch=1280, time=16),
    Message('pitchwheel', channel=3, pitch=1408, time=16),
    Message('note_off', channel=3, note=76, velocity=80, time=112),
    Message('pitchwheel', channel=3, pitch=0, time=0),
    Message('note_on', channel=2, note=76, velocity=95, time=0),
    Message('note_off', channel=2, note=76, velocity=80, time=240),
    Message('note_on', channel=2, note=74, velocity=95, time=0),
    Message('note_off', channel=2, note=74, velocity=80, time=240),
    Message('note_on', channel=2, note=69, velocity=95, time=0),
    Message('note_off', channel=2, note=69, velocity=80, time=240),
    Message('note_on', channel=3, note=71, velocity=95, time=0),
    Message('pitchwheel', channel=3, pitch=0, time=80),
    Message('pitchwheel', channel=3, pitch=256, time=80),
    Message('pitchwheel', channel=3, pitch=0, time=80),
    Message('pitchwheel', channel=3, pitch=256, time=80),
    Message('pitchwheel', channel=3, pitch=0, time=80),
    Message('pitchwheel', channel=3, pitch=256, time=80),
    Message('pitchwheel', channel=3, pitch=0, time=80),
    Message('pitchwheel', channel=3, pitch=256, time=80),
    Message('note_off', channel=3, note=71, velocity=80, time=80),
    Message('pitchwheel', channel=3, pitch=0, time=0),
    Message('pitchwheel', channel=3, pitch=0, time=0),
    Message('note_on', channel=2, note=83, velocity=95, time=960),
    Message('note_off', channel=2, note=83, velocity=80, time=480),
    Message('note_on', channel=3, note=85, velocity=95, time=0),
    Message('pitchwheel', channel=3, pitch=0, time=0),
    Message('pitchwheel', channel=3, pitch=128, time=16),
    Message('pitchwheel', channel=3, pitch=256, time=32),
    Message('pitchwheel', channel=3, pitch=384, time=16),
    Message('pitchwheel', channel=3, pitch=512, time=16),
    Message('pitchwheel', channel=3, pitch=640, time=32),
    Message('pitchwheel', channel=3, pitch=512, time=160),
    Message('pitchwheel', channel=3, pitch=384, time=16),
    Message('pitchwheel', channel=3, pitch=256, time=16),
    Message('pitchwheel', channel=3, pitch=128, time=32),
    Message('pitchwheel', channel=3, pitch=0, time=16),
    Message('note_on', channel=2, note=85, velocity=95, time=8),
    Message('note_off', channel=2, note=85, velocity=80, time=119),
    Message('note_off', channel=3, note=85, velocity=80, time=1),
    Message('pitchwheel', channel=3, pitch=0, time=0),
    Message('note_on', channel=3, note=83, velocity=95, time=0),
    Message('pitchwheel', channel=3, pitch=0, time=80),
    Message('pitchwheel', channel=3, pitch=256, time=80),
    Message('pitchwheel', channel=3, pitch=0, time=80),
    Message('pitchwheel', channel=3, pitch=256, time=80),
    Message('pitchwheel', channel=3, pitch=0, time=80),
    Message('note_off', channel=3, note=83, velocity=80, time=80),
    Message('pitchwheel', channel=3, pitch=256, time=0),
    Message('pitchwheel', channel=3, pitch=0, time=0),
    Message('note_on', channel=2, note=76, velocity=95, time=0),
    Message('note_off', channel=2, note=76, velocity=80, time=240),
    Message('note_on', channel=2, note=81, velocity=95, time=0),
    Message('note_off', channel=2, note=81, velocity=80, time=240),
    Message('note_on', channel=3, note=79, velocity=95, time=0),
    Message('pitchwheel', channel=3, pitch=0, time=0),
    Message('pitchwheel', channel=3, pitch=128, time=16),
    Message('pitchwheel', channel=3, pitch=256, time=32),
    Message('pitchwheel', channel=3, pitch=384, time=16),
    Message('pitchwheel', channel=3, pitch=512, time=16),
    Message('pitchwheel', channel=3, pitch=640, time=32),
    Message('note_off', channel=3, note=79, velocity=80, time=128),
    Message('pitchwheel', channel=3, pitch=0, time=0),
    Message('note_on', channel=2, note=76, velocity=95, time=0),
    Message('note_off', channel=2, note=76, velocity=80, time=240),
    Message('note_on', channel=2, note=74, velocity=95, time=0),
    Message('note_off', channel=2, note=74, velocity=80, time=240),
    Message('note_on', channel=2, note=75, velocity=95, time=0),
    Message('note_off', channel=2, note=75, velocity=80, time=240),
    Message('note_on', channel=2, note=71, velocity=95, time=0),
    Message('note_off', channel=2, note=71, velocity=80, time=240),
    Message('note_on', channel=2, note=72, velocity=86, time=0),
    Message('note_off', channel=2, note=72, velocity=80, time=240),
    Message('note_on', channel=2, note=71, velocity=95, time=7680),
    Message('note_off', channel=2, note=71, velocity=80, time=480),
    Message('note_on', channel=3, note=70, velocity=95, time=0),
    Message('pitchwheel', channel=3, pitch=640, time=384),
    Message('pitchwheel', channel=3, pitch=640, time=96),
    Message('note_off', channel=3, note=70, velocity=80, time=480),
    Message('pitchwheel', channel=3, pitch=0, time=0),
    Message('note_on', channel=2, note=74, velocity=95, time=0),
    Message('note_off', channel=2, note=74, velocity=80, time=240),
    Message('note_on', channel=2, note=71, velocity=86, time=0),
    Message('note_on', channel=2, note=68, velocity=95, time=120),
    Message('note_off', channel=2, note=68, velocity=80, time=119),
    Message('note_off', channel=2, note=71, velocity=80, time=1),
    Message('note_on', channel=2, note=66, velocity=95, time=0),
    Message('note_off', channel=2, note=66, velocity=80, time=480),
    Message('note_on', channel=2, note=64, velocity=95, time=0),
    Message('note_off', channel=2, note=64, velocity=80, time=960),
    Message('note_on', channel=3, note=76, velocity=95, time=12480),
    Message('pitchwheel', channel=3, pitch=0, time=0),
    Message('note_on', channel=3, note=69, velocity=95, time=0),
    Message('pitchwheel', channel=3, pitch=0, time=0),
    Message('pitchwheel', channel=3, pitch=128, time=32),
    Message('pitchwheel', channel=3, pitch=128, time=0),
    Message('pitchwheel', channel=3, pitch=256, time=48),
    Message('pitchwheel', channel=3, pitch=256, time=0),
    Message('pitchwheel', channel=3, pitch=384, time=48),
    Message('pitchwheel', channel=3, pitch=384, time=0),
    Message('pitchwheel', channel=3, pitch=512, time=32),
    Message('pitchwheel', channel=3, pitch=512, time=0),
    Message('pitchwheel', channel=3, pitch=640, time=48),
    Message('pitchwheel', channel=3, pitch=640, time=0),
    Message('pitchwheel', channel=3, pitch=768, time=48),
    Message('pitchwheel', channel=3, pitch=768, time=0),
    Message('pitchwheel', channel=3, pitch=896, time=48),
    Message('pitchwheel', channel=3, pitch=896, time=0),
    Message('pitchwheel', channel=3, pitch=1024, time=48),
    Message('pitchwheel', channel=3, pitch=1024, time=0),
    Message('pitchwheel', channel=3, pitch=1152, time=32),
    Message('pitchwheel', channel=3, pitch=1152, time=0),
    Message('pitchwheel', channel=3, pitch=1280, time=48),
    Message('pitchwheel', channel=3, pitch=1280, time=0),
    Message('pitchwheel', channel=3, pitch=1408, time=48),
    Message('pitchwheel', channel=3, pitch=1408, time=0),
    Message('note_off', channel=3, note=76, velocity=80, time=480),
    Message('pitchwheel', channel=3, pitch=0, time=0),
    Message('note_off', channel=3, note=69, velocity=80, time=0),
    Message('pitchwheel', channel=3, pitch=0, time=0),
    Message('note_on', channel=2, note=81, velocity=95, time=0),
    Message('note_off', channel=2, note=81, velocity=80, time=240),
    Message('note_on', channel=3, note=76, velocity=95, time=0),
    Message('pitchwheel', channel=3, pitch=0, time=0),
    Message('pitchwheel', channel=3, pitch=128, time=16),
    Message('pitchwheel', channel=3, pitch=384, time=16),
    Message('pitchwheel', channel=3, pitch=512, time=16),
    Message('pitchwheel', channel=3, pitch=768, time=16),
    Message('pitchwheel', channel=3, pitch=896, time=16),
    Message('pitchwheel', channel=3, pitch=1152, time=16),
    Message('pitchwheel', channel=3, pitch=1280, time=16),
    Message('pitchwheel', channel=3, pitch=1408, time=16),
    Message('pitchwheel', channel=3, pitch=1152, time=128),
    Message('pitchwheel', channel=3, pitch=1024, time=16),
    Message('pitchwheel', channel=3, pitch=768, time=16),
    Message('pitchwheel', channel=3, pitch=640, time=16),
    Message('pitchwheel', channel=3, pitch=512, time=16),
    Message('pitchwheel', channel=3, pitch=256, time=16),
    Message('pitchwheel', channel=3, pitch=128, time=16),
    Message('pitchwheel', channel=3, pitch=0, time=16),
    Message('note_off', channel=3, note=76, velocity=80, time=112),
    Message('pitchwheel', channel=3, pitch=0, time=0),
    Message('note_on', channel=2, note=74, velocity=95, time=0),
    Message('note_off', channel=2, note=74, velocity=80, time=240),
    Message('note_on', channel=3, note=76, velocity=95, time=0),
    Message('pitchwheel', channel=3, pitch=0, time=0),
    Message('pitchwheel', channel=3, pitch=128, time=32),
    Message('pitchwheel', channel=3, pitch=256, time=48),
    Message('pitchwheel', channel=3, pitch=384, time=48),
    Message('pitchwheel', channel=3, pitch=512, time=32),
    Message('pitchwheel', channel=3, pitch=640, time=48),
    Message('pitchwheel', channel=3, pitch=768, time=48),
    Message('pitchwheel', channel=3, pitch=896, time=48),
    Message('pitchwheel', channel=3, pitch=1024, time=48),
    Message('pitchwheel', channel=3, pitch=1152, time=32),
    Message('pitchwheel', channel=3, pitch=1280, time=48),
    Message('pitchwheel', channel=3, pitch=1408, time=48),
    Message('note_off', channel=3, note=76, velocity=80, time=480),
    Message('pitchwheel', channel=3, pitch=0, time=0),
    Message('note_on', channel=2, note=74, velocity=95, time=960),
    Message('note_off', channel=2, note=74, velocity=80, time=480),
    Message('pitchwheel', channel=3, pitch=1408, time=0),
    Message('note_on', channel=3, note=73, velocity=95, time=0),
    Message('pitchwheel', channel=3, pitch=1280, time=368),
    Message('pitchwheel', channel=3, pitch=1152, time=16),
    Message('pitchwheel', channel=3, pitch=896, time=16),
    Message('pitchwheel', channel=3, pitch=768, time=16),
    Message('pitchwheel', channel=3, pitch=512, time=16),
    Message('pitchwheel', channel=3, pitch=384, time=16),
    Message('pitchwheel', channel=3, pitch=128, time=16),
    Message('pitchwheel', channel=3, pitch=0, time=16),
    Message('pitchwheel', channel=3, pitch=0, time=0),
    Message('note_off', channel=3, note=73, velocity=80, time=0),
    Message('note_on', channel=3, note=62, velocity=95, time=0),
    Message('pitchwheel', channel=3, pitch=0, time=0),
    Message('pitchwheel', channel=3, pitch=128, time=16),
    Message('pitchwheel', channel=3, pitch=384, time=16),
    Message('pitchwheel', channel=3, pitch=512, time=16),
    Message('pitchwheel', channel=3, pitch=768, time=16),
    Message('pitchwheel', channel=3, pitch=896, time=16),
    Message('pitchwheel', channel=3, pitch=1152, time=16),
    Message('pitchwheel', channel=3, pitch=1280, time=16),
    Message('pitchwheel', channel=3, pitch=1408, time=16),
    Message('note_off', channel=3, note=62, velocity=80, time=112),
    Message('pitchwheel', channel=3, pitch=0, time=0),
    Message('note_on', channel=2, note=69, velocity=95, time=0),
    Message('note_off', channel=2, note=69, velocity=80, time=240),
    Message('note_on', channel=3, note=67, velocity=95, time=0),
    Message('pitchwheel', channel=3, pitch=0, time=0),
    Message('pitchwheel', channel=3, pitch=128, time=16),
    Message('pitchwheel', channel=3, pitch=256, time=32),
    Message('pitchwheel', channel=3, pitch=384, time=16),
    Message('pitchwheel', channel=3, pitch=512, time=16),
    Message('pitchwheel', channel=3, pitch=640, time=32),
    Message('note_off', channel=3, note=67, velocity=80, time=128),
    Message('pitchwheel', channel=3, pitch=0, time=0),
    Message('note_on', channel=2, note=64, velocity=95, time=0),
    Message('note_off', channel=2, note=64, velocity=80, time=240),
    Message('note_on', channel=2, note=62, velocity=95, time=0),
    Message('note_off', channel=2, note=62, velocity=80, time=240),
    Message('note_on', channel=2, note=59, velocity=95, time=0),
    Message('note_off', channel=2, note=59, velocity=80, time=240),
    Message('pitchwheel', channel=3, pitch=1408, time=0),
    Message('note_on', channel=3, note=56, velocity=95, time=0),
    Message('pitchwheel', channel=3, pitch=1280, time=368),
    Message('pitchwheel', channel=3, pitch=1152, time=16),
    Message('pitchwheel', channel=3, pitch=896, time=16),
    Message('pitchwheel', channel=3, pitch=768, time=16),
    Message('pitchwheel', channel=3, pitch=512, time=16),
    Message('pitchwheel', channel=3, pitch=384, time=16),
    Message('pitchwheel', channel=3, pitch=128, time=16),
    Message('pitchwheel', channel=3, pitch=0, time=16),
    Message('pitchwheel', channel=3, pitch=0, time=0),
    Message('note_off', channel=3, note=56, velocity=80, time=0),
    Message('note_on', channel=2, note=52, velocity=95, time=0),
    Message('note_off', channel=2, note=52, velocity=80, time=480),
    Message('note_on', channel=2, note=71, velocity=95, time=7680),
    Message('note_off', channel=2, note=71, velocity=80, time=960),
    Message('note_on', channel=3, note=76, velocity=95, time=0),
    Message('pitchwheel', channel=3, pitch=0, time=0),
    Message('pitchwheel', channel=3, pitch=128, time=16),
    Message('pitchwheel', channel=3, pitch=384, time=16),
    Message('pitchwheel', channel=3, pitch=512, time=16),
    Message('pitchwheel', channel=3, pitch=768, time=16),
    Message('pitchwheel', channel=3, pitch=896, time=16),
    Message('pitchwheel', channel=3, pitch=1152, time=16),
    Message('pitchwheel', channel=3, pitch=1280, time=16),
    Message('pitchwheel', channel=3, pitch=1408, time=16),
    Message('note_off', channel=3, note=76, velocity=80, time=112),
    Message('pitchwheel', channel=3, pitch=0, time=0),
    Message('note_on', channel=2, note=76, velocity=95, time=0),
    Message('note_off', channel=2, note=76, velocity=80, time=240),
    Message('note_on', channel=2, note=74, velocity=95, time=0),
    Message('note_off', channel=2, note=74, velocity=80, time=240),
    Message('note_on', channel=2, note=69, velocity=95, time=0),
    Message('note_off', channel=2, note=69, velocity=80, time=240),
    Message('note_on', channel=2, note=71, velocity=95, time=0),
    Message('note_off', channel=2, note=71, velocity=80, time=240),
    Message('note_on', channel=3, note=66, velocity=95, time=0),
    Message('pitchwheel', channel=3, pitch=0, time=0),
    Message('pitchwheel', channel=3, pitch=128, time=16),
    Message('pitchwheel', channel=3, pitch=384, time=16),
    Message('pitchwheel', channel=3, pitch=512, time=16),
    Message('pitchwheel', channel=3, pitch=768, time=16),
    Message('pitchwheel', channel=3, pitch=896, time=16),
    Message('pitchwheel', channel=3, pitch=1152, time=16),
    Message('pitchwheel', channel=3, pitch=1280, time=16),
    Message('pitchwheel', channel=3, pitch=1408, time=16),
    Message('pitchwheel', channel=3, pitch=1152, time=128),
    Message('pitchwheel', channel=3, pitch=1024, time=16),
    Message('pitchwheel', channel=3, pitch=768, time=16),
    Message('pitchwheel', channel=3, pitch=640, time=16),
    Message('pitchwheel', channel=3, pitch=512, time=16),
    Message('pitchwheel', channel=3, pitch=256, time=16),
    Message('pitchwheel', channel=3, pitch=128, time=16),
    Message('pitchwheel', channel=3, pitch=0, time=16),
    Message('note_off', channel=3, note=66, velocity=80, time=112),
    Message('pitchwheel', channel=3, pitch=0, time=0),
    Message('note_on', channel=2, note=64, velocity=95, time=0),
    Message('note_off', channel=2, note=64, velocity=80, time=1200),
    Message('note_on', channel=2, note=81, velocity=127, time=240),
    Message('note_on', channel=2, note=76, velocity=127, time=0),
    Message('note_on', channel=3, note=71, velocity=127, time=0),
    Message('pitchwheel', channel=3, pitch=0, time=0),
    Message('pitchwheel', channel=3, pitch=128, time=16),
    Message('pitchwheel', channel=3, pitch=384, time=16),
    Message('pitchwheel', channel=3, pitch=512, time=16),
    Message('pitchwheel', channel=3, pitch=768, time=16),
    Message('pitchwheel', channel=3, pitch=896, time=16),
    Message('pitchwheel', channel=3, pitch=1152, time=16),
    Message('pitchwheel', channel=3, pitch=1280, time=16),
    Message('pitchwheel', channel=3, pitch=1408, time=16),
    Message('note_off', channel=2, note=81, velocity=80, time=112),
    Message('note_off', channel=2, note=76, velocity=80, time=0),
    Message('note_off', channel=3, note=71, velocity=80, time=0),
    Message('pitchwheel', channel=3, pitch=0, time=0),
    Message('note_on', channel=2, note=81, velocity=95, time=0),
    Message('note_on', channel=2, note=76, velocity=95, time=0),
    Message('note_on', channel=3, note=71, velocity=95, time=0),
    Message('pitchwheel', channel=3, pitch=0, time=0),
    Message('pitchwheel', channel=3, pitch=128, time=16),
    Message('pitchwheel', channel=3, pitch=384, time=16),
    Message('pitchwheel', channel=3, pitch=512, time=16),
    Message('pitchwheel', channel=3, pitch=768, time=16),
    Message('pitchwheel', channel=3, pitch=896, time=16),
    Message('pitchwheel', channel=3, pitch=1152, time=16),
    Message('pitchwheel', channel=3, pitch=1280, time=16),
    Message('pitchwheel', channel=3, pitch=1408, time=16),
    Message('pitchwheel', channel=3, pitch=1152, time=128),
    Message('pitchwheel', channel=3, pitch=1024, time=16),
    Message('pitchwheel', channel=3, pitch=768, time=16),
    Message('pitchwheel', channel=3, pitch=640, time=16),
    Message('pitchwheel', channel=3, pitch=512, time=16),
    Message('pitchwheel', channel=3, pitch=256, time=16),
    Message('pitchwheel', channel=3, pitch=128, time=16),
    Message('pitchwheel', channel=3, pitch=0, time=16),
    Message('note_off', channel=2, note=81, velocity=80, time=112),
    Message('note_off', channel=2, note=76, velocity=80, time=0),
    Message('note_off', channel=3, note=71, velocity=80, time=0),
    Message('pitchwheel', channel=3, pitch=0, time=0),
    Message('note_on', channel=2, note=69, velocity=95, time=0),
    Message('note_off', channel=2, note=69, velocity=80, time=240),
    Message('note_on', channel=2, note=66, velocity=95, time=0),
    Message('note_off', channel=2, note=66, velocity=80, time=240),
    Message('note_on', channel=2, note=69, velocity=111, time=0),
    Message('note_on', channel=2, note=64, velocity=111, time=0),
    Message('note_off', channel=2, note=69, velocity=80, time=480),
    Message('note_off', channel=2, note=64, velocity=80, time=0),
    Message('note_on', channel=3, note=59, velocity=95, time=0),
    Message('pitchwheel', channel=3, pitch=0, time=0),
    Message('pitchwheel', channel=3, pitch=256, time=16),
    Message('pitchwheel', channel=3, pitch=512, time=16),
    Message('pitchwheel', channel=3, pitch=768, time=16),
    Message('pitchwheel', channel=3, pitch=1024, time=16),
    Message('pitchwheel', channel=3, pitch=1152, time=16),
    Message('pitchwheel', channel=3, pitch=1408, time=16),
    Message('pitchwheel', channel=3, pitch=1152, time=96),
    Message('pitchwheel', channel=3, pitch=896, time=16),
    Message('pitchwheel', channel=3, pitch=768, time=16),
    Message('pitchwheel', channel=3, pitch=512, time=16),
    Message('pitchwheel', channel=3, pitch=128, time=16),
    Message('pitchwheel', channel=3, pitch=0, time=16),
    Message('note_off', channel=3, note=59, velocity=80, time=88),
    Message('pitchwheel', channel=3, pitch=0, time=0),
    Message('note_on', channel=2, note=57, velocity=95, time=0),
    Message('note_off', channel=2, note=57, velocity=80, time=120),
    Message('note_on', channel=2, note=59, velocity=95, time=0),
    Message('note_off', channel=2, note=59, velocity=80, time=240),
    Message('note_on', channel=2, note=57, velocity=95, time=0),
    Message('note_off', channel=2, note=57, velocity=80, time=240),
    Message('note_on', channel=2, note=54, velocity=95, time=480),
    Message('note_off', channel=2, note=54, velocity=80, time=240),
    Message('note_on', channel=2, note=52, velocity=95, time=0),
    Message('note_off', channel=2, note=52, velocity=80, time=240),
    Message('note_on', channel=2, note=71, velocity=95, time=7680),
    Message('control_change', channel=2, control=7, value=79, time=0),
    Message('control_change', channel=3, control=7, value=79, time=0),
    Message('control_change', channel=2, control=7, value=78, time=120),
    Message('control_change', channel=3, control=7, value=78, time=0),
    Message('control_change', channel=2, control=7, value=77, time=120),
    Message('control_change', channel=3, control=7, value=77, time=0),
    Message('control_change', channel=2, control=7, value=76, time=120),
    Message('control_change', channel=3, control=7, value=76, time=0),
    Message('control_change', channel=2, control=7, value=74, time=120),
    Message('control_change', channel=3, control=7, value=74, time=0),
    Message('control_change', channel=2, control=7, value=73, time=120),
    Message('control_change', channel=3, control=7, value=73, time=0),
    Message('control_change', channel=2, control=7, value=72, time=120),
    Message('control_change', channel=3, control=7, value=72, time=0),
    Message('note_on', channel=2, note=76, velocity=111, time=120),
    Message('control_change', channel=2, control=7, value=71, time=0),
    Message('control_change', channel=3, control=7, value=71, time=0),
    Message('note_off', channel=2, note=76, velocity=80, time=119),
    Message('note_off', channel=2, note=71, velocity=80, time=1),
    Message('note_on', channel=2, note=78, velocity=111, time=0),
    Message('control_change', channel=2, control=7, value=70, time=0),
    Message('control_change', channel=3, control=7, value=70, time=0),
    Message('control_change', channel=2, control=7, value=69, time=120),
    Message('control_change', channel=3, control=7, value=69, time=0),
    Message('note_off', channel=2, note=78, velocity=80, time=120),
    Message('note_on', channel=2, note=76, velocity=95, time=0),
    Message('control_change', channel=2, control=7, value=68, time=0),
    Message('control_change', channel=3, control=7, value=68, time=0),
    Message('control_change', channel=2, control=7, value=67, time=120),
    Message('control_change', channel=3, control=7, value=67, time=0),
    Message('note_off', channel=2, note=76, velocity=80, time=120),
    Message('note_on', channel=2, note=74, velocity=95, time=0),
    Message('control_change', channel=2, control=7, value=66, time=0),
    Message('control_change', channel=3, control=7, value=66, time=0),
    Message('control_change', channel=2, control=7, value=64, time=120),
    Message('control_change', channel=3, control=7, value=64, time=0),
    Message('note_off', channel=2, note=74, velocity=80, time=120),
    Message('note_on', channel=2, note=69, velocity=95, time=0),
    Message('control_change', channel=2, control=7, value=63, time=0),
    Message('control_change', channel=3, control=7, value=63, time=0),
    Message('control_change', channel=2, control=7, value=62, time=120),
    Message('control_change', channel=3, control=7, value=62, time=0),
    Message('note_off', channel=2, note=69, velocity=80, time=120),
    Message('control_change', channel=2, control=7, value=61, time=0),
    Message('control_change', channel=3, control=7, value=61, time=0),
    Message('note_on', channel=2, note=71, velocity=95, time=0),
    Message('control_change', channel=2, control=7, value=60, time=120),
    Message('control_change', channel=3, control=7, value=60, time=0),
    Message('control_change', channel=2, control=7, value=59, time=120),
    Message('control_change', channel=3, control=7, value=59, time=0),
    Message('note_off', channel=2, note=71, velocity=80, time=0),
    Message('note_on', channel=3, note=66, velocity=95, time=0),
    Message('pitchwheel', channel=3, pitch=0, time=0),
    Message('pitchwheel', channel=3, pitch=128, time=16),
    Message('pitchwheel', channel=3, pitch=384, time=16),
    Message('pitchwheel', channel=3, pitch=512, time=16),
    Message('pitchwheel', channel=3, pitch=768, time=16),
    Message('pitchwheel', channel=3, pitch=896, time=16),
    Message('pitchwheel', channel=3, pitch=1152, time=16),
    Message('pitchwheel', channel=3, pitch=1280, time=16),
    Message('control_change', channel=2, control=7, value=58, time=8),
    Message('control_change', channel=3, control=7, value=58, time=0),
    Message('pitchwheel', channel=3, pitch=1408, time=8),
    Message('control_change', channel=2, control=7, value=57, time=112),
    Message('control_change', channel=3, control=7, value=57, time=0),
    Message('pitchwheel', channel=3, pitch=1152, time=16),
    Message('pitchwheel', channel=3, pitch=1024, time=16),
    Message('pitchwheel', channel=3, pitch=768, time=16),
    Message('pitchwheel', channel=3, pitch=640, time=16),
    Message('pitchwheel', channel=3, pitch=512, time=16),
    Message('pitchwheel', channel=3, pitch=256, time=16),
    Message('pitchwheel', channel=3, pitch=128, time=16),
    Message('control_change', channel=2, control=7, value=56, time=8),
    Message('control_change', channel=3, control=7, value=56, time=0),
    Message('pitchwheel', channel=3, pitch=0, time=8),
    Message('control_change', channel=2, control=7, value=55, time=112),
    Message('control_change', channel=3, control=7, value=55, time=0),
    Message('note_off', channel=3, note=66, velocity=80, time=0),
    Message('pitchwheel', channel=3, pitch=0, time=0),
    Message('note_on', channel=2, note=64, velocity=95, time=0),
    Message('control_change', channel=2, control=7, value=53, time=120),
    Message('control_change', channel=3, control=7, value=53, time=0),
    Message('control_change', channel=2, control=7, value=52, time=120),
    Message('control_change', channel=3, control=7, value=52, time=0),
    Message('control_change', channel=2, control=7, value=51, time=120),
    Message('control_change', channel=3, control=7, value=51, time=0),
    Message('control_change', channel=2, control=7, value=50, time=120),
    Message('control_change', channel=3, control=7, value=50, time=0),
    Message('control_change', channel=2, control=7, value=49, time=120),
    Message('control_change', channel=3, control=7, value=49, time=0),
    Message('control_change', channel=2, control=7, value=48, time=120),
    Message('control_change', channel=3, control=7, value=48, time=0),
    Message('control_change', channel=2, control=7, value=47, time=120),
    Message('control_change', channel=3, control=7, value=47, time=0),
    Message('control_change', channel=2, control=7, value=46, time=120),
    Message('control_change', channel=3, control=7, value=46, time=0),
    Message('control_change', channel=2, control=7, value=45, time=120),
    Message('control_change', channel=3, control=7, value=45, time=0),
    Message('control_change', channel=2, control=7, value=43, time=120),
    Message('control_change', channel=3, control=7, value=43, time=0),
    Message('note_off', channel=2, note=64, velocity=80, time=0),
    Message('control_change', channel=2, control=7, value=42, time=120),
    Message('control_change', channel=3, control=7, value=42, time=0),
    Message('control_change', channel=2, control=7, value=41, time=120),
    Message('control_change', channel=3, control=7, value=41, time=0),
    Message('note_on', channel=2, note=81, velocity=127, time=0),
    Message('note_on', channel=2, note=76, velocity=127, time=0),
    Message('note_on', channel=3, note=71, velocity=127, time=0),
    Message('pitchwheel', channel=3, pitch=0, time=0),
    Message('pitchwheel', channel=3, pitch=128, time=16),
    Message('pitchwheel', channel=3, pitch=384, time=16),
    Message('pitchwheel', channel=3, pitch=512, time=16),
    Message('pitchwheel', channel=3, pitch=768, time=16),
    Message('pitchwheel', channel=3, pitch=896, time=16),
    Message('pitchwheel', channel=3, pitch=1152, time=16),
    Message('pitchwheel', channel=3, pitch=1280, time=16),
    Message('control_change', channel=2, control=7, value=40, time=8),
    Message('control_change', channel=3, control=7, value=40, time=0),
    Message('pitchwheel', channel=3, pitch=1408, time=8),
    Message('control_change', channel=2, control=7, value=39, time=112),
    Message('control_change', channel=3, control=7, value=39, time=0),
    Message('note_off', channel=2, note=81, velocity=80, time=0),
    Message('note_off', channel=2, note=76, velocity=80, time=0),
    Message('note_off', channel=3, note=71, velocity=80, time=0),
    Message('pitchwheel', channel=3, pitch=0, time=0),
    Message('note_on', channel=2, note=81, velocity=95, time=0),
    Message('note_on', channel=2, note=76, velocity=95, time=0),
    Message('note_on', channel=3, note=71, velocity=95, time=0),
    Message('pitchwheel', channel=3, pitch=0, time=0),
    Message('pitchwheel', channel=3, pitch=128, time=16),
    Message('pitchwheel', channel=3, pitch=384, time=16),
    Message('pitchwheel', channel=3, pitch=512, time=16),
    Message('pitchwheel', channel=3, pitch=768, time=16),
    Message('pitchwheel', channel=3, pitch=896, time=16),
    Message('pitchwheel', channel=3, pitch=1152, time=16),
    Message('pitchwheel', channel=3, pitch=1280, time=16),
    Message('control_change', channel=2, control=7, value=38, time=8),
    Message('control_change', channel=3, control=7, value=38, time=0),
    Message('pitchwheel', channel=3, pitch=1408, time=8),
    Message('control_change', channel=2, control=7, value=37, time=112),
    Message('control_change', channel=3, control=7, value=37, time=0),
    Message('pitchwheel', channel=3, pitch=1152, time=16),
    Message('pitchwheel', channel=3, pitch=1024, time=16),
    Message('pitchwheel', channel=3, pitch=768, time=16),
    Message('pitchwheel', channel=3, pitch=640, time=16),
    Message('pitchwheel', channel=3, pitch=512, time=16),
    Message('pitchwheel', channel=3, pitch=256, time=16),
    Message('pitchwheel', channel=3, pitch=128, time=16),
    Message('control_change', channel=2, control=7, value=36, time=8),
    Message('control_change', channel=3, control=7, value=36, time=0),
    Message('pitchwheel', channel=3, pitch=0, time=8),
    Message('control_change', channel=2, control=7, value=35, time=112),
    Message('control_change', channel=3, control=7, value=35, time=0),
    Message('note_off', channel=2, note=81, velocity=80, time=0),
    Message('note_off', channel=2, note=76, velocity=80, time=0),
    Message('note_off', channel=3, note=71, velocity=80, time=0),
    Message('pitchwheel', channel=3, pitch=0, time=0),
    Message('note_on', channel=2, note=69, velocity=95, time=0),
    Message('control_change', channel=2, control=7, value=33, time=120),
    Message('control_change', channel=3, control=7, value=33, time=0),
    Message('control_change', channel=2, control=7, value=32, time=120),
    Message('control_change', channel=3, control=7, value=32, time=0),
    Message('note_off', channel=2, note=69, velocity=80, time=0),
    Message('note_on', channel=2, note=66, velocity=95, time=0),
    Message('control_change', channel=2, control=7, value=31, time=120),
    Message('control_change', channel=3, control=7, value=31, time=0),
    Message('control_change', channel=2, control=7, value=30, time=120),
    Message('control_change', channel=3, control=7, value=30, time=0),
    Message('note_off', channel=2, note=66, velocity=80, time=0),
    Message('note_on', channel=2, note=69, velocity=111, time=0),
    Message('note_on', channel=2, note=64, velocity=111, time=0),
    Message('control_change', channel=2, control=7, value=29, time=120),
    Message('control_change', channel=3, control=7, value=29, time=0),
    Message('control_change', channel=2, control=7, value=28, time=120),
    Message('control_change', channel=3, control=7, value=28, time=0),
    Message('control_change', channel=2, control=7, value=27, time=120),
    Message('control_change', channel=3, control=7, value=27, time=0),
    Message('control_change', channel=2, control=7, value=26, time=120),
    Message('control_change', channel=3, control=7, value=26, time=0),
    Message('note_off', channel=2, note=69, velocity=80, time=0),
    Message('note_off', channel=2, note=64, velocity=80, time=0),
    Message('note_on', channel=3, note=59, velocity=95, time=0),
    Message('pitchwheel', channel=3, pitch=0, time=0),
    Message('pitchwheel', channel=3, pitch=256, time=16),
    Message('pitchwheel', channel=3, pitch=512, time=16),
    Message('pitchwheel', channel=3, pitch=768, time=16),
    Message('pitchwheel', channel=3, pitch=1024, time=16),
    Message('pitchwheel', channel=3, pitch=1152, time=16),
    Message('pitchwheel', channel=3, pitch=1408, time=16),
    Message('control_change', channel=2, control=7, value=25, time=24),
    Message('control_change', channel=3, control=7, value=25, time=0),
    Message('pitchwheel', channel=3, pitch=1152, time=72),
    Message('pitchwheel', channel=3, pitch=896, time=16),
    Message('pitchwheel', channel=3, pitch=768, time=16),
    Message('control_change', channel=2, control=7, value=24, time=16),
    Message('control_change', channel=3, control=7, value=24, time=0),
    Message('pitchwheel', channel=3, pitch=512, time=0),
    Message('pitchwheel', channel=3, pitch=128, time=16),
    Message('pitchwheel', channel=3, pitch=0, time=16),
    Message('control_change', channel=2, control=7, value=22, time=88),
    Message('control_change', channel=3, control=7, value=22, time=0),
    Message('note_off', channel=3, note=59, velocity=80, time=0),
    Message('pitchwheel', channel=3, pitch=0, time=0),
    Message('note_on', channel=2, note=57, velocity=95, time=0),
    Message('control_change', channel=2, control=7, value=21, time=120),
    Message('control_change', channel=3, control=7, value=21, time=0),
    Message('note_off', channel=2, note=57, velocity=80, time=0),
    Message('note_on', channel=2, note=59, velocity=95, time=0),
    Message('control_change', channel=2, control=7, value=20, time=120),
    Message('control_change', channel=3, control=7, value=20, time=0),
    Message('control_change', channel=2, control=7, value=19, time=120),
    Message('control_change', channel=3, control=7, value=19, time=0),
    Message('note_off', channel=2, note=59, velocity=80, time=0),
    Message('note_on', channel=2, note=57, velocity=95, time=0),
    Message('control_change', channel=2, control=7, value=18, time=120),
    Message('control_change', channel=3, control=7, value=18, time=0),
    Message('control_change', channel=2, control=7, value=17, time=120),
    Message('control_change', channel=3, control=7, value=17, time=0),
    Message('note_off', channel=2, note=57, velocity=80, time=0),
    Message('control_change', channel=2, control=7, value=16, time=120),
    Message('control_change', channel=3, control=7, value=16, time=0),
    Message('control_change', channel=2, control=7, value=15, time=120),
    Message('control_change', channel=3, control=7, value=15, time=0),
    Message('control_change', channel=2, control=7, value=14, time=120),
    Message('control_change', channel=3, control=7, value=14, time=0),
    Message('control_change', channel=2, control=7, value=12, time=120),
    Message('control_change', channel=3, control=7, value=12, time=0),
    Message('note_on', channel=2, note=54, velocity=95, time=0),
    Message('control_change', channel=2, control=7, value=11, time=120),
    Message('control_change', channel=3, control=7, value=11, time=0),
    Message('control_change', channel=2, control=7, value=10, time=120),
    Message('control_change', channel=3, control=7, value=10, time=0),
    Message('note_off', channel=2, note=54, velocity=80, time=0),
    Message('note_on', channel=2, note=52, velocity=95, time=0),
    Message('control_change', channel=2, control=7, value=9, time=120),
    Message('control_change', channel=3, control=7, value=9, time=0),
    Message('control_change', channel=2, control=7, value=8, time=120),
    Message('control_change', channel=3, control=7, value=8, time=0),
    Message('note_off', channel=2, note=52, velocity=80, time=0),
    MetaMessage('end_of_track', time=0)]),
  MidiTrack([
    MetaMessage('track_name', name='Acoustic Guitar', time=0),
    Message('control_change', channel=4, control=100, value=0, time=0),
    Message('control_change', channel=4, control=101, value=0, time=0),
    Message('control_change', channel=4, control=6, value=12, time=0),
    Message('pitchwheel', channel=4, pitch=0, time=0),
    Message('control_change', channel=5, control=100, value=0, time=0),
    Message('control_change', channel=5, control=101, value=0, time=0),
    Message('control_change', channel=5, control=6, value=12, time=0),
    Message('pitchwheel', channel=5, pitch=0, time=0),
    Message('program_change', channel=4, program=25, time=0),
    Message('program_change', channel=5, program=25, time=0),
    Message('control_change', channel=4, control=7, value=96, time=0),
    Message('control_change', channel=5, control=7, value=96, time=0),
    Message('control_change', channel=4, control=10, value=104, time=0),
    Message('control_change', channel=5, control=10, value=104, time=0),
    Message('control_change', channel=4, control=93, value=40, time=0),
    Message('control_change', channel=5, control=93, value=40, time=0),
    Message('control_change', channel=4, control=91, value=24, time=0),
    Message('control_change', channel=5, control=91, value=24, time=0),
    Message('control_change', channel=4, control=92, value=0, time=0),
    Message('control_change', channel=5, control=92, value=0, time=0),
    Message('control_change', channel=4, control=95, value=0, time=0),
    Message('control_change', channel=5, control=95, value=0, time=0),
    Message('note_on', channel=4, note=45, velocity=95, time=40320),
    Message('note_off', channel=4, note=45, velocity=80, time=480),
    Message('note_on', channel=4, note=61, velocity=111, time=0),
    Message('note_on', channel=4, note=57, velocity=111, time=0),
    Message('note_on', channel=4, note=52, velocity=111, time=0),
    Message('note_off', channel=4, note=61, velocity=80, time=240),
    Message('note_off', channel=4, note=57, velocity=80, time=0),
    Message('note_off', channel=4, note=52, velocity=80, time=0),
    Message('note_on', channel=4, note=45, velocity=95, time=240),
    Message('note_off', channel=4, note=45, velocity=80, time=240),
    Message('note_on', channel=4, note=61, velocity=95, time=0),
    Message('note_on', channel=4, note=57, velocity=95, time=0),
    Message('note_off', channel=4, note=61, velocity=80, time=240),
    Message('note_off', channel=4, note=57, velocity=80, time=0),
    Message('note_on', channel=4, note=61, velocity=111, time=0),
    Message('note_on', channel=4, note=57, velocity=111, time=0),
    Message('note_on', channel=4, note=52, velocity=111, time=0),
    Message('note_off', channel=4, note=61, velocity=80, time=240),
    Message('note_off', channel=4, note=57, velocity=80, time=0),
    Message('note_off', channel=4, note=52, velocity=80, time=0),
    Message('note_on', channel=4, note=45, velocity=95, time=240),
    Message('note_off', channel=4, note=45, velocity=80, time=480),
    Message('note_on', channel=4, note=61, velocity=111, time=0),
    Message('note_on', channel=4, note=57, velocity=111, time=0),
    Message('note_on', channel=4, note=52, velocity=111, time=0),
    Message('note_off', channel=4, note=61, velocity=80, time=240),
    Message('note_off', channel=4, note=57, velocity=80, time=0),
    Message('note_off', channel=4, note=52, velocity=80, time=0),
    Message('note_on', channel=4, note=45, velocity=95, time=240),
    Message('note_off', channel=4, note=45, velocity=80, time=240),
    Message('note_on', channel=4, note=61, velocity=95, time=0),
    Message('note_on', channel=4, note=57, velocity=95, time=0),
    Message('note_on', channel=4, note=52, velocity=95, time=0),
    Message('note_off', channel=4, note=61, velocity=80, time=240),
    Message('note_off', channel=4, note=57, velocity=80, time=0),
    Message('note_off', channel=4, note=52, velocity=80, time=0),
    Message('note_on', channel=4, note=61, velocity=95, time=0),
    Message('note_on', channel=4, note=57, velocity=95, time=0),
    Message('note_on', channel=4, note=52, velocity=95, time=0),
    Message('note_off', channel=4, note=61, velocity=80, time=240),
    Message('note_off', channel=4, note=57, velocity=80, time=0),
    Message('note_off', channel=4, note=52, velocity=80, time=0),
    Message('note_on', channel=4, note=61, velocity=95, time=0),
    Message('note_on', channel=4, note=57, velocity=95, time=0),
    Message('note_on', channel=4, note=52, velocity=95, time=0),
    Message('note_off', channel=4, note=61, velocity=80, time=240),
    Message('note_off', channel=4, note=57, velocity=80, time=0),
    Message('note_off', channel=4, note=52, velocity=80, time=0),
    Message('note_on', channel=4, note=45, velocity=95, time=0),
    Message('note_off', channel=4, note=45, velocity=80, time=480),
    Message('note_on', channel=4, note=61, velocity=111, time=0),
    Message('note_on', channel=4, note=57, velocity=111, time=0),
    Message('note_on', channel=4, note=52, velocity=111, time=0),
    Message('note_off', channel=4, note=61, velocity=80, time=240),
    Message('note_off', channel=4, note=57, velocity=80, time=0),
    Message('note_off', channel=4, note=52, velocity=80, time=0),
    Message('note_on', channel=4, note=45, velocity=95, time=240),
    Message('note_off', channel=4, note=45, velocity=80, time=240),
    Message('note_on', channel=4, note=61, velocity=95, time=0),
    Message('note_on', channel=4, note=57, velocity=95, time=0),
    Message('note_off', channel=4, note=61, velocity=80, time=240),
    Message('note_off', channel=4, note=57, velocity=80, time=0),
    Message('note_on', channel=4, note=61, velocity=111, time=0),
    Message('note_on', channel=4, note=57, velocity=111, time=0),
    Message('note_on', channel=4, note=52, velocity=111, time=0),
    Message('note_off', channel=4, note=61, velocity=80, time=240),
    Message('note_off', channel=4, note=57, velocity=80, time=0),
    Message('note_off', channel=4, note=52, velocity=80, time=0),
    Message('note_on', channel=4, note=45, velocity=95, time=240),
    Message('note_off', channel=4, note=45, velocity=80, time=480),
    Message('note_on', channel=4, note=61, velocity=111, time=0),
    Message('note_on', channel=4, note=57, velocity=111, time=0),
    Message('note_on', channel=4, note=52, velocity=111, time=0),
    Message('note_off', channel=4, note=61, velocity=80, time=240),
    Message('note_off', channel=4, note=57, velocity=80, time=0),
    Message('note_off', channel=4, note=52, velocity=80, time=0),
    Message('note_on', channel=4, note=45, velocity=95, time=240),
    Message('note_off', channel=4, note=45, velocity=80, time=240),
    Message('note_on', channel=4, note=61, velocity=95, time=0),
    Message('note_on', channel=4, note=57, velocity=95, time=0),
    Message('note_on', channel=4, note=52, velocity=95, time=0),
    Message('note_off', channel=4, note=61, velocity=80, time=240),
    Message('note_off', channel=4, note=57, velocity=80, time=0),
    Message('note_off', channel=4, note=52, velocity=80, time=0),
    Message('note_on', channel=4, note=61, velocity=95, time=0),
    Message('note_on', channel=4, note=57, velocity=95, time=0),
    Message('note_on', channel=4, note=52, velocity=95, time=0),
    Message('note_off', channel=4, note=61, velocity=80, time=240),
    Message('note_off', channel=4, note=57, velocity=80, time=0),
    Message('note_off', channel=4, note=52, velocity=80, time=0),
    Message('note_on', channel=4, note=61, velocity=95, time=0),
    Message('note_on', channel=4, note=57, velocity=95, time=0),
    Message('note_on', channel=4, note=52, velocity=95, time=0),
    Message('note_off', channel=4, note=61, velocity=80, time=240),
    Message('note_off', channel=4, note=57, velocity=80, time=0),
    Message('note_off', channel=4, note=52, velocity=80, time=0),
    Message('note_on', channel=4, note=47, velocity=95, time=0),
    Message('note_off', channel=4, note=47, velocity=80, time=480),
    Message('note_on', channel=4, note=62, velocity=95, time=0),
    Message('note_on', channel=4, note=59, velocity=95, time=0),
    Message('note_on', channel=4, note=54, velocity=95, time=0),
    Message('note_off', channel=4, note=62, velocity=80, time=240),
    Message('note_off', channel=4, note=59, velocity=80, time=0),
    Message('note_off', channel=4, note=54, velocity=80, time=0),
    Message('note_on', channel=4, note=47, velocity=95, time=240),
    Message('note_off', channel=4, note=47, velocity=80, time=240),
    Message('note_on', channel=4, note=62, velocity=95, time=0),
    Message('note_on', channel=4, note=59, velocity=95, time=0),
    Message('note_on', channel=4, note=54, velocity=95, time=0),
    Message('note_off', channel=4, note=62, velocity=80, time=240),
    Message('note_off', channel=4, note=59, velocity=80, time=0),
    Message('note_off', channel=4, note=54, velocity=80, time=0),
    Message('note_on', channel=4, note=62, velocity=95, time=240),
    Message('note_on', channel=4, note=59, velocity=95, time=0),
    Message('note_on', channel=4, note=54, velocity=95, time=0),
    Message('note_off', channel=4, note=62, velocity=80, time=240),
    Message('note_off', channel=4, note=59, velocity=80, time=0),
    Message('note_off', channel=4, note=54, velocity=80, time=0),
    Message('note_on', channel=4, note=47, velocity=95, time=0),
    Message('note_off', channel=4, note=47, velocity=80, time=480),
    Message('note_on', channel=4, note=62, velocity=95, time=0),
    Message('note_on', channel=4, note=59, velocity=95, time=0),
    Message('note_on', channel=4, note=54, velocity=95, time=0),
    Message('note_off', channel=4, note=62, velocity=80, time=480),
    Message('note_off', channel=4, note=59, velocity=80, time=0),
    Message('note_off', channel=4, note=54, velocity=80, time=0),
    Message('note_on', channel=4, note=47, velocity=95, time=0),
    Message('note_off', channel=4, note=47, velocity=80, time=240),
    Message('note_on', channel=4, note=45, velocity=95, time=0),
    Message('note_off', channel=4, note=45, velocity=80, time=240),
    Message('note_on', channel=5, note=42, velocity=95, time=0),
    Message('pitchwheel', channel=5, pitch=0, time=0),
    Message('pitchwheel', channel=5, pitch=128, time=16),
    Message('pitchwheel', channel=5, pitch=384, time=16),
    Message('pitchwheel', channel=5, pitch=512, time=16),
    Message('pitchwheel', channel=5, pitch=768, time=16),
    Message('pitchwheel', channel=5, pitch=896, time=16),
    Message('pitchwheel', channel=5, pitch=1152, time=16),
    Message('pitchwheel', channel=5, pitch=1280, time=16),
    Message('pitchwheel', channel=5, pitch=1408, time=16),
    Message('pitchwheel', channel=5, pitch=1152, time=128),
    Message('pitchwheel', channel=5, pitch=1024, time=16),
    Message('pitchwheel', channel=5, pitch=768, time=16),
    Message('pitchwheel', channel=5, pitch=640, time=16),
    Message('pitchwheel', channel=5, pitch=512, time=16),
    Message('pitchwheel', channel=5, pitch=256, time=16),
    Message('pitchwheel', channel=5, pitch=128, time=16),
    Message('pitchwheel', channel=5, pitch=0, time=16),
    Message('note_off', channel=5, note=42, velocity=80, time=112),
    Message('pitchwheel', channel=5, pitch=0, time=0),
    Message('note_on', channel=4, note=40, velocity=95, time=0),
    Message('note_off', channel=4, note=40, velocity=80, time=480),
    Message('note_on', channel=4, note=64, velocity=95, time=0),
    Message('note_on', channel=4, note=59, velocity=95, time=0),
    Message('note_on', channel=4, note=56, velocity=95, time=0),
    Message('note_on', channel=4, note=52, velocity=95, time=0),
    Message('note_off', channel=4, note=64, velocity=80, time=480),
    Message('note_off', channel=4, note=59, velocity=80, time=0),
    Message('note_off', channel=4, note=56, velocity=80, time=0),
    Message('note_off', channel=4, note=52, velocity=80, time=0),
    Message('note_on', channel=4, note=47, velocity=95, time=0),
    Message('note_off', channel=4, note=47, velocity=80, time=240),
    Message('note_on', channel=4, note=64, velocity=95, time=0),
    Message('note_on', channel=4, note=59, velocity=95, time=0),
    Message('note_on', channel=4, note=56, velocity=95, time=0),
    Message('note_on', channel=4, note=52, velocity=95, time=0),
    Message('note_off', channel=4, note=64, velocity=80, time=240),
    Message('note_off', channel=4, note=59, velocity=80, time=0),
    Message('note_off', channel=4, note=56, velocity=80, time=0),
    Message('note_off', channel=4, note=52, velocity=80, time=0),
    Message('note_on', channel=4, note=64, velocity=95, time=0),
    Message('note_on', channel=4, note=59, velocity=95, time=0),
    Message('note_on', channel=4, note=56, velocity=95, time=0),
    Message('note_on', channel=4, note=52, velocity=95, time=0),
    Message('note_off', channel=4, note=64, velocity=80, time=240),
    Message('note_off', channel=4, note=59, velocity=80, time=0),
    Message('note_off', channel=4, note=56, velocity=80, time=0),
    Message('note_off', channel=4, note=52, velocity=80, time=0),
    Message('note_on', channel=4, note=64, velocity=95, time=0),
    Message('note_on', channel=4, note=59, velocity=95, time=0),
    Message('note_on', channel=4, note=56, velocity=95, time=0),
    Message('note_on', channel=4, note=52, velocity=95, time=0),
    Message('note_off', channel=4, note=64, velocity=80, time=240),
    Message('note_off', channel=4, note=59, velocity=80, time=0),
    Message('note_off', channel=4, note=56, velocity=80, time=0),
    Message('note_off', channel=4, note=52, velocity=80, time=0),
    Message('note_on', channel=4, note=40, velocity=95, time=0),
    Message('note_off', channel=4, note=40, velocity=80, time=240),
    Message('note_on', channel=4, note=64, velocity=95, time=0),
    Message('note_on', channel=4, note=59, velocity=95, time=0),
    Message('note_on', channel=4, note=56, velocity=95, time=0),
    Message('note_on', channel=4, note=52, velocity=95, time=0),
    Message('note_off', channel=4, note=64, velocity=80, time=240),
    Message('note_off', channel=4, note=59, velocity=80, time=0),
    Message('note_off', channel=4, note=56, velocity=80, time=0),
    Message('note_off', channel=4, note=52, velocity=80, time=0),
    Message('note_on', channel=4, note=64, velocity=95, time=0),
    Message('note_on', channel=4, note=59, velocity=95, time=0),
    Message('note_on', channel=4, note=56, velocity=95, time=0),
    Message('note_on', channel=4, note=52, velocity=95, time=0),
    Message('note_off', channel=4, note=64, velocity=80, time=240),
    Message('note_off', channel=4, note=59, velocity=80, time=0),
    Message('note_off', channel=4, note=56, velocity=80, time=0),
    Message('note_off', channel=4, note=52, velocity=80, time=0),
    Message('note_on', channel=4, note=64, velocity=95, time=0),
    Message('note_on', channel=4, note=59, velocity=95, time=0),
    Message('note_on', channel=4, note=56, velocity=95, time=0),
    Message('note_on', channel=4, note=52, velocity=95, time=0),
    Message('note_off', channel=4, note=64, velocity=80, time=240),
    Message('note_off', channel=4, note=59, velocity=80, time=0),
    Message('note_off', channel=4, note=56, velocity=80, time=0),
    Message('note_off', channel=4, note=52, velocity=80, time=0),
    Message('note_on', channel=4, note=64, velocity=95, time=0),
    Message('note_on', channel=4, note=59, velocity=95, time=0),
    Message('note_on', channel=4, note=56, velocity=95, time=0),
    Message('note_on', channel=4, note=52, velocity=95, time=0),
    Message('note_off', channel=4, note=64, velocity=80, time=240),
    Message('note_off', channel=4, note=59, velocity=80, time=0),
    Message('note_off', channel=4, note=56, velocity=80, time=0),
    Message('note_off', channel=4, note=52, velocity=80, time=0),
    Message('note_on', channel=4, note=64, velocity=95, time=0),
    Message('note_on', channel=4, note=59, velocity=95, time=0),
    Message('note_on', channel=4, note=56, velocity=95, time=0),
    Message('note_on', channel=4, note=52, velocity=95, time=0),
    Message('note_off', channel=4, note=64, velocity=80, time=240),
    Message('note_off', channel=4, note=59, velocity=80, time=0),
    Message('note_off', channel=4, note=56, velocity=80, time=0),
    Message('note_off', channel=4, note=52, velocity=80, time=0),
    Message('note_on', channel=4, note=64, velocity=95, time=0),
    Message('note_on', channel=4, note=59, velocity=95, time=0),
    Message('note_on', channel=4, note=56, velocity=95, time=0),
    Message('note_on', channel=4, note=52, velocity=95, time=0),
    Message('note_off', channel=4, note=64, velocity=80, time=240),
    Message('note_off', channel=4, note=59, velocity=80, time=0),
    Message('note_off', channel=4, note=56, velocity=80, time=0),
    Message('note_off', channel=4, note=52, velocity=80, time=0),
    Message('note_on', channel=4, note=64, velocity=95, time=0),
    Message('note_on', channel=4, note=59, velocity=95, time=0),
    Message('note_on', channel=4, note=56, velocity=95, time=0),
    Message('note_on', channel=4, note=52, velocity=95, time=0),
    Message('note_off', channel=4, note=64, velocity=80, time=240),
    Message('note_off', channel=4, note=59, velocity=80, time=0),
    Message('note_off', channel=4, note=56, velocity=80, time=0),
    Message('note_off', channel=4, note=52, velocity=80, time=0),
    Message('note_on', channel=4, note=45, velocity=95, time=0),
    Message('note_off', channel=4, note=45, velocity=80, time=480),
    Message('note_on', channel=4, note=61, velocity=95, time=0),
    Message('note_on', channel=4, note=57, velocity=95, time=0),
    Message('note_on', channel=4, note=52, velocity=95, time=0),
    Message('note_off', channel=4, note=61, velocity=80, time=240),
    Message('note_off', channel=4, note=57, velocity=80, time=0),
    Message('note_off', channel=4, note=52, velocity=80, time=0),
    Message('note_on', channel=4, note=45, velocity=95, time=240),
    Message('note_off', channel=4, note=45, velocity=80, time=240),
    Message('note_on', channel=4, note=61, velocity=95, time=0),
    Message('note_on', channel=4, note=57, velocity=95, time=0),
    Message('note_off', channel=4, note=61, velocity=80, time=240),
    Message('note_off', channel=4, note=57, velocity=80, time=0),
    Message('note_on', channel=4, note=61, velocity=95, time=0),
    Message('note_on', channel=4, note=57, velocity=95, time=0),
    Message('note_on', channel=4, note=52, velocity=95, time=0),
    Message('note_off', channel=4, note=61, velocity=80, time=240),
    Message('note_off', channel=4, note=57, velocity=80, time=0),
    Message('note_off', channel=4, note=52, velocity=80, time=0),
    Message('note_on', channel=4, note=45, velocity=95, time=240),
    Message('note_off', channel=4, note=45, velocity=80, time=480),
    Message('note_on', channel=4, note=61, velocity=95, time=0),
    Message('note_on', channel=4, note=57, velocity=95, time=0),
    Message('note_on', channel=4, note=52, velocity=95, time=0),
    Message('note_off', channel=4, note=61, velocity=80, time=240),
    Message('note_off', channel=4, note=57, velocity=80, time=0),
    Message('note_off', channel=4, note=52, velocity=80, time=0),
    Message('note_on', channel=4, note=45, velocity=95, time=240),
    Message('note_off', channel=4, note=45, velocity=80, time=240),
    Message('note_on', channel=4, note=61, velocity=95, time=0),
    Message('note_on', channel=4, note=57, velocity=95, time=0),
    Message('note_on', channel=4, note=52, velocity=95, time=0),
    Message('note_off', channel=4, note=61, velocity=80, time=240),
    Message('note_off', channel=4, note=57, velocity=80, time=0),
    Message('note_off', channel=4, note=52, velocity=80, time=0),
    Message('note_on', channel=4, note=61, velocity=95, time=0),
    Message('note_on', channel=4, note=57, velocity=95, time=0),
    Message('note_on', channel=4, note=52, velocity=95, time=0),
    Message('note_off', channel=4, note=61, velocity=80, time=240),
    Message('note_off', channel=4, note=57, velocity=80, time=0),
    Message('note_off', channel=4, note=52, velocity=80, time=0),
    Message('note_on', channel=4, note=61, velocity=95, time=0),
    Message('note_on', channel=4, note=57, velocity=95, time=0),
    Message('note_on', channel=4, note=52, velocity=95, time=0),
    Message('note_off', channel=4, note=61, velocity=80, time=240),
    Message('note_off', channel=4, note=57, velocity=80, time=0),
    Message('note_off', channel=4, note=52, velocity=80, time=0),
    Message('note_on', channel=4, note=45, velocity=95, time=0),
    Message('note_off', channel=4, note=45, velocity=80, time=480),
    Message('note_on', channel=4, note=61, velocity=95, time=0),
    Message('note_on', channel=4, note=57, velocity=95, time=0),
    Message('note_on', channel=4, note=52, velocity=95, time=0),
    Message('note_off', channel=4, note=61, velocity=80, time=240),
    Message('note_off', channel=4, note=57, velocity=80, time=0),
    Message('note_off', channel=4, note=52, velocity=80, time=0),
    Message('note_on', channel=4, note=45, velocity=95, time=240),
    Message('note_off', channel=4, note=45, velocity=80, time=240),
    Message('note_on', channel=4, note=61, velocity=95, time=0),
    Message('note_on', channel=4, note=57, velocity=95, time=0),
    Message('note_off', channel=4, note=61, velocity=80, time=240),
    Message('note_off', channel=4, note=57, velocity=80, time=0),
    Message('note_on', channel=4, note=61, velocity=95, time=0),
    Message('note_on', channel=4, note=57, velocity=95, time=0),
    Message('note_on', channel=4, note=52, velocity=95, time=0),
    Message('note_off', channel=4, note=61, velocity=80, time=240),
    Message('note_off', channel=4, note=57, velocity=80, time=0),
    Message('note_off', channel=4, note=52, velocity=80, time=0),
    Message('note_on', channel=4, note=61, velocity=95, time=240),
    Message('note_on', channel=4, note=57, velocity=95, time=0),
    Message('note_on', channel=4, note=52, velocity=95, time=0),
    Message('note_on', channel=4, note=45, velocity=95, time=0),
    Message('note_off', channel=4, note=61, velocity=80, time=1920),
    Message('note_off', channel=4, note=57, velocity=80, time=0),
    Message('note_off', channel=4, note=52, velocity=80, time=0),
    Message('note_off', channel=4, note=45, velocity=80, time=0),
    Message('note_on', channel=4, note=47, velocity=95, time=0),
    Message('note_off', channel=4, note=47, velocity=80, time=480),
    Message('note_on', channel=4, note=62, velocity=95, time=0),
    Message('note_on', channel=4, note=59, velocity=95, time=0),
    Message('note_on', channel=4, note=54, velocity=95, time=0),
    Message('note_off', channel=4, note=62, velocity=80, time=240),
    Message('note_off', channel=4, note=59, velocity=80, time=0),
    Message('note_off', channel=4, note=54, velocity=80, time=0),
    Message('note_on', channel=4, note=47, velocity=95, time=240),
    Message('note_off', channel=4, note=47, velocity=80, time=480),
    Message('note_on', channel=4, note=62, velocity=95, time=0),
    Message('note_on', channel=4, note=59, velocity=95, time=0),
    Message('note_on', channel=4, note=54, velocity=95, time=0),
    Message('note_off', channel=4, note=62, velocity=80, time=240),
    Message('note_off', channel=4, note=59, velocity=80, time=0),
    Message('note_off', channel=4, note=54, velocity=80, time=0),
    Message('note_on', channel=4, note=40, velocity=95, time=240),
    Message('note_off', channel=4, note=40, velocity=80, time=480),
    Message('note_on', channel=4, note=68, velocity=95, time=0),
    Message('note_on', channel=4, note=64, velocity=95, time=0),
    Message('note_on', channel=4, note=59, velocity=95, time=0),
    Message('note_on', channel=4, note=52, velocity=95, time=0),
    Message('note_off', channel=4, note=68, velocity=80, time=240),
    Message('note_off', channel=4, note=64, velocity=80, time=0),
    Message('note_off', channel=4, note=59, velocity=80, time=0),
    Message('note_off', channel=4, note=52, velocity=80, time=0),
    Message('note_on', channel=4, note=40, velocity=95, time=240),
    Message('note_off', channel=4, note=40, velocity=80, time=480),
    Message('note_on', channel=4, note=68, velocity=95, time=0),
    Message('note_on', channel=4, note=64, velocity=95, time=0),
    Message('note_on', channel=4, note=59, velocity=95, time=0),
    Message('note_on', channel=4, note=52, velocity=95, time=0),
    Message('note_off', channel=4, note=68, velocity=80, time=240),
    Message('note_off', channel=4, note=64, velocity=80, time=0),
    Message('note_off', channel=4, note=59, velocity=80, time=0),
    Message('note_off', channel=4, note=52, velocity=80, time=0),
    Message('note_on', channel=4, note=45, velocity=95, time=240),
    Message('note_off', channel=4, note=45, velocity=80, time=480),
    Message('note_on', channel=4, note=61, velocity=95, time=0),
    Message('note_on', channel=4, note=57, velocity=95, time=0),
    Message('note_on', channel=4, note=52, velocity=95, time=0),
    Message('note_off', channel=4, note=61, velocity=80, time=240),
    Message('note_off', channel=4, note=57, velocity=80, time=0),
    Message('note_off', channel=4, note=52, velocity=80, time=0),
    Message('note_on', channel=4, note=45, velocity=95, time=240),
    Message('note_off', channel=4, note=45, velocity=80, time=240),
    Message('note_on', channel=4, note=61, velocity=95, time=0),
    Message('note_on', channel=4, note=57, velocity=95, time=0),
    Message('note_off', channel=4, note=61, velocity=80, time=240),
    Message('note_off', channel=4, note=57, velocity=80, time=0),
    Message('note_on', channel=4, note=61, velocity=95, time=0),
    Message('note_on', channel=4, note=57, velocity=95, time=0),
    Message('note_on', channel=4, note=52, velocity=95, time=0),
    Message('note_off', channel=4, note=61, velocity=80, time=240),
    Message('note_off', channel=4, note=57, velocity=80, time=0),
    Message('note_off', channel=4, note=52, velocity=80, time=0),
    Message('note_on', channel=4, note=45, velocity=95, time=240),
    Message('note_off', channel=4, note=45, velocity=80, time=480),
    Message('note_on', channel=4, note=61, velocity=95, time=0),
    Message('note_on', channel=4, note=57, velocity=95, time=0),
    Message('note_on', channel=4, note=52, velocity=95, time=0),
    Message('note_off', channel=4, note=61, velocity=80, time=240),
    Message('note_off', channel=4, note=57, velocity=80, time=0),
    Message('note_off', channel=4, note=52, velocity=80, time=0),
    Message('note_on', channel=4, note=45, velocity=95, time=240),
    Message('note_off', channel=4, note=45, velocity=80, time=240),
    Message('note_on', channel=4, note=61, velocity=95, time=0),
    Message('note_on', channel=4, note=57, velocity=95, time=0),
    Message('note_on', channel=4, note=52, velocity=95, time=0),
    Message('note_off', channel=4, note=61, velocity=80, time=240),
    Message('note_off', channel=4, note=57, velocity=80, time=0),
    Message('note_off', channel=4, note=52, velocity=80, time=0),
    Message('note_on', channel=4, note=61, velocity=95, time=0),
    Message('note_on', channel=4, note=57, velocity=95, time=0),
    Message('note_on', channel=4, note=52, velocity=95, time=0),
    Message('note_off', channel=4, note=61, velocity=80, time=240),
    Message('note_off', channel=4, note=57, velocity=80, time=0),
    Message('note_off', channel=4, note=52, velocity=80, time=0),
    Message('note_on', channel=4, note=61, velocity=95, time=0),
    Message('note_on', channel=4, note=57, velocity=95, time=0),
    Message('note_on', channel=4, note=52, velocity=95, time=0),
    Message('note_off', channel=4, note=61, velocity=80, time=240),
    Message('note_off', channel=4, note=57, velocity=80, time=0),
    Message('note_off', channel=4, note=52, velocity=80, time=0),
    Message('note_on', channel=4, note=45, velocity=95, time=46080),
    Message('note_off', channel=4, note=45, velocity=80, time=480),
    Message('note_on', channel=4, note=61, velocity=111, time=0),
    Message('note_on', channel=4, note=57, velocity=111, time=0),
    Message('note_on', channel=4, note=52, velocity=111, time=0),
    Message('note_off', channel=4, note=61, velocity=80, time=240),
    Message('note_off', channel=4, note=57, velocity=80, time=0),
    Message('note_off', channel=4, note=52, velocity=80, time=0),
    Message('note_on', channel=4, note=45, velocity=95, time=240),
    Message('note_off', channel=4, note=45, velocity=80, time=240),
    Message('note_on', channel=4, note=61, velocity=95, time=0),
    Message('note_on', channel=4, note=57, velocity=95, time=0),
    Message('note_off', channel=4, note=61, velocity=80, time=240),
    Message('note_off', channel=4, note=57, velocity=80, time=0),
    Message('note_on', channel=4, note=61, velocity=111, time=0),
    Message('note_on', channel=4, note=57, velocity=111, time=0),
    Message('note_on', channel=4, note=52, velocity=111, time=0),
    Message('note_off', channel=4, note=61, velocity=80, time=240),
    Message('note_off', channel=4, note=57, velocity=80, time=0),
    Message('note_off', channel=4, note=52, velocity=80, time=0),
    Message('note_on', channel=4, note=45, velocity=95, time=240),
    Message('note_off', channel=4, note=45, velocity=80, time=480),
    Message('note_on', channel=4, note=61, velocity=111, time=0),
    Message('note_on', channel=4, note=57, velocity=111, time=0),
    Message('note_on', channel=4, note=52, velocity=111, time=0),
    Message('note_off', channel=4, note=61, velocity=80, time=240),
    Message('note_off', channel=4, note=57, velocity=80, time=0),
    Message('note_off', channel=4, note=52, velocity=80, time=0),
    Message('note_on', channel=4, note=45, velocity=95, time=240),
    Message('note_off', channel=4, note=45, velocity=80, time=240),
    Message('note_on', channel=4, note=61, velocity=95, time=0),
    Message('note_on', channel=4, note=57, velocity=95, time=0),
    Message('note_on', channel=4, note=52, velocity=95, time=0),
    Message('note_off', channel=4, note=61, velocity=80, time=240),
    Message('note_off', channel=4, note=57, velocity=80, time=0),
    Message('note_off', channel=4, note=52, velocity=80, time=0),
    Message('note_on', channel=4, note=61, velocity=95, time=0),
    Message('note_on', channel=4, note=57, velocity=95, time=0),
    Message('note_on', channel=4, note=52, velocity=95, time=0),
    Message('note_off', channel=4, note=61, velocity=80, time=240),
    Message('note_off', channel=4, note=57, velocity=80, time=0),
    Message('note_off', channel=4, note=52, velocity=80, time=0),
    Message('note_on', channel=4, note=61, velocity=95, time=0),
    Message('note_on', channel=4, note=57, velocity=95, time=0),
    Message('note_on', channel=4, note=52, velocity=95, time=0),
    Message('note_off', channel=4, note=61, velocity=80, time=240),
    Message('note_off', channel=4, note=57, velocity=80, time=0),
    Message('note_off', channel=4, note=52, velocity=80, time=0),
    Message('note_on', channel=4, note=45, velocity=95, time=0),
    Message('note_off', channel=4, note=45, velocity=80, time=480),
    Message('note_on', channel=4, note=61, velocity=111, time=0),
    Message('note_on', channel=4, note=57, velocity=111, time=0),
    Message('note_on', channel=4, note=52, velocity=111, time=0),
    Message('note_off', channel=4, note=61, velocity=80, time=240),
    Message('note_off', channel=4, note=57, velocity=80, time=0),
    Message('note_off', channel=4, note=52, velocity=80, time=0),
    Message('note_on', channel=4, note=45, velocity=95, time=240),
    Message('note_off', channel=4, note=45, velocity=80, time=240),
    Message('note_on', channel=4, note=61, velocity=95, time=0),
    Message('note_on', channel=4, note=57, velocity=95, time=0),
    Message('note_off', channel=4, note=61, velocity=80, time=240),
    Message('note_off', channel=4, note=57, velocity=80, time=0),
    Message('note_on', channel=4, note=61, velocity=111, time=0),
    Message('note_on', channel=4, note=57, velocity=111, time=0),
    Message('note_on', channel=4, note=52, velocity=111, time=0),
    Message('note_off', channel=4, note=61, velocity=80, time=240),
    Message('note_off', channel=4, note=57, velocity=80, time=0),
    Message('note_off', channel=4, note=52, velocity=80, time=0),
    Message('note_on', channel=4, note=45, velocity=95, time=240),
    Message('note_off', channel=4, note=45, velocity=80, time=480),
    Message('note_on', channel=4, note=61, velocity=111, time=0),
    Message('note_on', channel=4, note=57, velocity=111, time=0),
    Message('note_on', channel=4, note=52, velocity=111, time=0),
    Message('note_off', channel=4, note=61, velocity=80, time=240),
    Message('note_off', channel=4, note=57, velocity=80, time=0),
    Message('note_off', channel=4, note=52, velocity=80, time=0),
    Message('note_on', channel=4, note=45, velocity=95, time=240),
    Message('note_off', channel=4, note=45, velocity=80, time=240),
    Message('note_on', channel=4, note=61, velocity=95, time=0),
    Message('note_on', channel=4, note=57, velocity=95, time=0),
    Message('note_on', channel=4, note=52, velocity=95, time=0),
    Message('note_off', channel=4, note=61, velocity=80, time=240),
    Message('note_off', channel=4, note=57, velocity=80, time=0),
    Message('note_off', channel=4, note=52, velocity=80, time=0),
    Message('note_on', channel=4, note=61, velocity=95, time=0),
    Message('note_on', channel=4, note=57, velocity=95, time=0),
    Message('note_on', channel=4, note=52, velocity=95, time=0),
    Message('note_off', channel=4, note=61, velocity=80, time=240),
    Message('note_off', channel=4, note=57, velocity=80, time=0),
    Message('note_off', channel=4, note=52, velocity=80, time=0),
    Message('note_on', channel=4, note=61, velocity=95, time=0),
    Message('note_on', channel=4, note=57, velocity=95, time=0),
    Message('note_on', channel=4, note=52, velocity=95, time=0),
    Message('note_off', channel=4, note=61, velocity=80, time=240),
    Message('note_off', channel=4, note=57, velocity=80, time=0),
    Message('note_off', channel=4, note=52, velocity=80, time=0),
    Message('note_on', channel=4, note=47, velocity=95, time=0),
    Message('note_off', channel=4, note=47, velocity=80, time=480),
    Message('note_on', channel=4, note=62, velocity=95, time=0),
    Message('note_on', channel=4, note=59, velocity=95, time=0),
    Message('note_on', channel=4, note=54, velocity=95, time=0),
    Message('note_off', channel=4, note=62, velocity=80, time=240),
    Message('note_off', channel=4, note=59, velocity=80, time=0),
    Message('note_off', channel=4, note=54, velocity=80, time=0),
    Message('note_on', channel=4, note=47, velocity=95, time=240),
    Message('note_off', channel=4, note=47, velocity=80, time=240),
    Message('note_on', channel=4, note=62, velocity=95, time=0),
    Message('note_on', channel=4, note=59, velocity=95, time=0),
    Message('note_on', channel=4, note=54, velocity=95, time=0),
    Message('note_off', channel=4, note=62, velocity=80, time=240),
    Message('note_off', channel=4, note=59, velocity=80, time=0),
    Message('note_off', channel=4, note=54, velocity=80, time=0),
    Message('note_on', channel=4, note=62, velocity=95, time=240),
    Message('note_on', channel=4, note=59, velocity=95, time=0),
    Message('note_on', channel=4, note=54, velocity=95, time=0),
    Message('note_off', channel=4, note=62, velocity=80, time=240),
    Message('note_off', channel=4, note=59, velocity=80, time=0),
    Message('note_off', channel=4, note=54, velocity=80, time=0),
    Message('note_on', channel=4, note=47, velocity=95, time=0),
    Message('note_off', channel=4, note=47, velocity=80, time=480),
    Message('note_on', channel=4, note=62, velocity=95, time=0),
    Message('note_on', channel=4, note=59, velocity=95, time=0),
    Message('note_on', channel=4, note=54, velocity=95, time=0),
    Message('note_off', channel=4, note=62, velocity=80, time=480),
    Message('note_off', channel=4, note=59, velocity=80, time=0),
    Message('note_off', channel=4, note=54, velocity=80, time=0),
    Message('note_on', channel=4, note=47, velocity=95, time=0),
    Message('note_off', channel=4, note=47, velocity=80, time=240),
    Message('note_on', channel=4, note=45, velocity=95, time=0),
    Message('note_off', channel=4, note=45, velocity=80, time=240),
    Message('note_on', channel=5, note=42, velocity=95, time=0),
    Message('pitchwheel', channel=5, pitch=0, time=0),
    Message('pitchwheel', channel=5, pitch=128, time=16),
    Message('pitchwheel', channel=5, pitch=384, time=16),
    Message('pitchwheel', channel=5, pitch=512, time=16),
    Message('pitchwheel', channel=5, pitch=768, time=16),
    Message('pitchwheel', channel=5, pitch=896, time=16),
    Message('pitchwheel', channel=5, pitch=1152, time=16),
    Message('pitchwheel', channel=5, pitch=1280, time=16),
    Message('pitchwheel', channel=5, pitch=1408, time=16),
    Message('pitchwheel', channel=5, pitch=1152, time=128),
    Message('pitchwheel', channel=5, pitch=1024, time=16),
    Message('pitchwheel', channel=5, pitch=768, time=16),
    Message('pitchwheel', channel=5, pitch=640, time=16),
    Message('pitchwheel', channel=5, pitch=512, time=16),
    Message('pitchwheel', channel=5, pitch=256, time=16),
    Message('pitchwheel', channel=5, pitch=128, time=16),
    Message('pitchwheel', channel=5, pitch=0, time=16),
    Message('note_off', channel=5, note=42, velocity=80, time=112),
    Message('pitchwheel', channel=5, pitch=0, time=0),
    Message('note_on', channel=4, note=40, velocity=95, time=0),
    Message('note_off', channel=4, note=40, velocity=80, time=480),
    Message('note_on', channel=4, note=64, velocity=95, time=0),
    Message('note_on', channel=4, note=59, velocity=95, time=0),
    Message('note_on', channel=4, note=56, velocity=95, time=0),
    Message('note_on', channel=4, note=52, velocity=95, time=0),
    Message('note_off', channel=4, note=64, velocity=80, time=480),
    Message('note_off', channel=4, note=59, velocity=80, time=0),
    Message('note_off', channel=4, note=56, velocity=80, time=0),
    Message('note_off', channel=4, note=52, velocity=80, time=0),
    Message('note_on', channel=4, note=47, velocity=95, time=0),
    Message('note_off', channel=4, note=47, velocity=80, time=240),
    Message('note_on', channel=4, note=64, velocity=95, time=0),
    Message('note_on', channel=4, note=59, velocity=95, time=0),
    Message('note_on', channel=4, note=56, velocity=95, time=0),
    Message('note_on', channel=4, note=52, velocity=95, time=0),
    Message('note_off', channel=4, note=64, velocity=80, time=240),
    Message('note_off', channel=4, note=59, velocity=80, time=0),
    Message('note_off', channel=4, note=56, velocity=80, time=0),
    Message('note_off', channel=4, note=52, velocity=80, time=0),
    Message('note_on', channel=4, note=64, velocity=95, time=0),
    Message('note_on', channel=4, note=59, velocity=95, time=0),
    Message('note_on', channel=4, note=56, velocity=95, time=0),
    Message('note_on', channel=4, note=52, velocity=95, time=0),
    Message('note_off', channel=4, note=64, velocity=80, time=240),
    Message('note_off', channel=4, note=59, velocity=80, time=0),
    Message('note_off', channel=4, note=56, velocity=80, time=0),
    Message('note_off', channel=4, note=52, velocity=80, time=0),
    Message('note_on', channel=4, note=64, velocity=95, time=0),
    Message('note_on', channel=4, note=59, velocity=95, time=0),
    Message('note_on', channel=4, note=56, velocity=95, time=0),
    Message('note_on', channel=4, note=52, velocity=95, time=0),
    Message('note_off', channel=4, note=64, velocity=80, time=240),
    Message('note_off', channel=4, note=59, velocity=80, time=0),
    Message('note_off', channel=4, note=56, velocity=80, time=0),
    Message('note_off', channel=4, note=52, velocity=80, time=0),
    Message('note_on', channel=4, note=40, velocity=95, time=0),
    Message('note_off', channel=4, note=40, velocity=80, time=240),
    Message('note_on', channel=4, note=64, velocity=95, time=0),
    Message('note_on', channel=4, note=59, velocity=95, time=0),
    Message('note_on', channel=4, note=56, velocity=95, time=0),
    Message('note_on', channel=4, note=52, velocity=95, time=0),
    Message('note_off', channel=4, note=64, velocity=80, time=240),
    Message('note_off', channel=4, note=59, velocity=80, time=0),
    Message('note_off', channel=4, note=56, velocity=80, time=0),
    Message('note_off', channel=4, note=52, velocity=80, time=0),
    Message('note_on', channel=4, note=64, velocity=95, time=0),
    Message('note_on', channel=4, note=59, velocity=95, time=0),
    Message('note_on', channel=4, note=56, velocity=95, time=0),
    Message('note_on', channel=4, note=52, velocity=95, time=0),
    Message('note_off', channel=4, note=64, velocity=80, time=240),
    Message('note_off', channel=4, note=59, velocity=80, time=0),
    Message('note_off', channel=4, note=56, velocity=80, time=0),
    Message('note_off', channel=4, note=52, velocity=80, time=0),
    Message('note_on', channel=4, note=64, velocity=95, time=0),
    Message('note_on', channel=4, note=59, velocity=95, time=0),
    Message('note_on', channel=4, note=56, velocity=95, time=0),
    Message('note_on', channel=4, note=52, velocity=95, time=0),
    Message('note_off', channel=4, note=64, velocity=80, time=240),
    Message('note_off', channel=4, note=59, velocity=80, time=0),
    Message('note_off', channel=4, note=56, velocity=80, time=0),
    Message('note_off', channel=4, note=52, velocity=80, time=0),
    Message('note_on', channel=4, note=64, velocity=95, time=0),
    Message('note_on', channel=4, note=59, velocity=95, time=0),
    Message('note_on', channel=4, note=56, velocity=95, time=0),
    Message('note_on', channel=4, note=52, velocity=95, time=0),
    Message('note_off', channel=4, note=64, velocity=80, time=240),
    Message('note_off', channel=4, note=59, velocity=80, time=0),
    Message('note_off', channel=4, note=56, velocity=80, time=0),
    Message('note_off', channel=4, note=52, velocity=80, time=0),
    Message('note_on', channel=4, note=64, velocity=95, time=0),
    Message('note_on', channel=4, note=59, velocity=95, time=0),
    Message('note_on', channel=4, note=56, velocity=95, time=0),
    Message('note_on', channel=4, note=52, velocity=95, time=0),
    Message('note_off', channel=4, note=64, velocity=80, time=240),
    Message('note_off', channel=4, note=59, velocity=80, time=0),
    Message('note_off', channel=4, note=56, velocity=80, time=0),
    Message('note_off', channel=4, note=52, velocity=80, time=0),
    Message('note_on', channel=4, note=64, velocity=95, time=0),
    Message('note_on', channel=4, note=59, velocity=95, time=0),
    Message('note_on', channel=4, note=56, velocity=95, time=0),
    Message('note_on', channel=4, note=52, velocity=95, time=0),
    Message('note_off', channel=4, note=64, velocity=80, time=240),
    Message('note_off', channel=4, note=59, velocity=80, time=0),
    Message('note_off', channel=4, note=56, velocity=80, time=0),
    Message('note_off', channel=4, note=52, velocity=80, time=0),
    Message('note_on', channel=4, note=64, velocity=95, time=0),
    Message('note_on', channel=4, note=59, velocity=95, time=0),
    Message('note_on', channel=4, note=56, velocity=95, time=0),
    Message('note_on', channel=4, note=52, velocity=95, time=0),
    Message('note_off', channel=4, note=64, velocity=80, time=240),
    Message('note_off', channel=4, note=59, velocity=80, time=0),
    Message('note_off', channel=4, note=56, velocity=80, time=0),
    Message('note_off', channel=4, note=52, velocity=80, time=0),
    Message('note_on', channel=4, note=45, velocity=95, time=0),
    Message('note_off', channel=4, note=45, velocity=80, time=480),
    Message('note_on', channel=4, note=61, velocity=95, time=0),
    Message('note_on', channel=4, note=57, velocity=95, time=0),
    Message('note_on', channel=4, note=52, velocity=95, time=0),
    Message('note_off', channel=4, note=61, velocity=80, time=240),
    Message('note_off', channel=4, note=57, velocity=80, time=0),
    Message('note_off', channel=4, note=52, velocity=80, time=0),
    Message('note_on', channel=4, note=45, velocity=95, time=240),
    Message('note_off', channel=4, note=45, velocity=80, time=240),
    Message('note_on', channel=4, note=61, velocity=95, time=0),
    Message('note_on', channel=4, note=57, velocity=95, time=0),
    Message('note_off', channel=4, note=61, velocity=80, time=240),
    Message('note_off', channel=4, note=57, velocity=80, time=0),
    Message('note_on', channel=4, note=61, velocity=95, time=0),
    Message('note_on', channel=4, note=57, velocity=95, time=0),
    Message('note_on', channel=4, note=52, velocity=95, time=0),
    Message('note_off', channel=4, note=61, velocity=80, time=240),
    Message('note_off', channel=4, note=57, velocity=80, time=0),
    Message('note_off', channel=4, note=52, velocity=80, time=0),
    Message('note_on', channel=4, note=45, velocity=95, time=240),
    Message('note_off', channel=4, note=45, velocity=80, time=480),
    Message('note_on', channel=4, note=61, velocity=95, time=0),
    Message('note_on', channel=4, note=57, velocity=95, time=0),
    Message('note_on', channel=4, note=52, velocity=95, time=0),
    Message('note_off', channel=4, note=61, velocity=80, time=240),
    Message('note_off', channel=4, note=57, velocity=80, time=0),
    Message('note_off', channel=4, note=52, velocity=80, time=0),
    Message('note_on', channel=4, note=45, velocity=95, time=240),
    Message('note_off', channel=4, note=45, velocity=80, time=240),
    Message('note_on', channel=4, note=61, velocity=95, time=0),
    Message('note_on', channel=4, note=57, velocity=95, time=0),
    Message('note_on', channel=4, note=52, velocity=95, time=0),
    Message('note_off', channel=4, note=61, velocity=80, time=240),
    Message('note_off', channel=4, note=57, velocity=80, time=0),
    Message('note_off', channel=4, note=52, velocity=80, time=0),
    Message('note_on', channel=4, note=61, velocity=95, time=0),
    Message('note_on', channel=4, note=57, velocity=95, time=0),
    Message('note_on', channel=4, note=52, velocity=95, time=0),
    Message('note_off', channel=4, note=61, velocity=80, time=240),
    Message('note_off', channel=4, note=57, velocity=80, time=0),
    Message('note_off', channel=4, note=52, velocity=80, time=0),
    Message('note_on', channel=4, note=61, velocity=95, time=0),
    Message('note_on', channel=4, note=57, velocity=95, time=0),
    Message('note_on', channel=4, note=52, velocity=95, time=0),
    Message('note_off', channel=4, note=61, velocity=80, time=240),
    Message('note_off', channel=4, note=57, velocity=80, time=0),
    Message('note_off', channel=4, note=52, velocity=80, time=0),
    Message('note_on', channel=4, note=45, velocity=95, time=0),
    Message('note_off', channel=4, note=45, velocity=80, time=480),
    Message('note_on', channel=4, note=61, velocity=95, time=0),
    Message('note_on', channel=4, note=57, velocity=95, time=0),
    Message('note_on', channel=4, note=52, velocity=95, time=0),
    Message('note_off', channel=4, note=61, velocity=80, time=240),
    Message('note_off', channel=4, note=57, velocity=80, time=0),
    Message('note_off', channel=4, note=52, velocity=80, time=0),
    Message('note_on', channel=4, note=45, velocity=95, time=240),
    Message('note_off', channel=4, note=45, velocity=80, time=240),
    Message('note_on', channel=4, note=61, velocity=95, time=0),
    Message('note_on', channel=4, note=57, velocity=95, time=0),
    Message('note_off', channel=4, note=61, velocity=80, time=240),
    Message('note_off', channel=4, note=57, velocity=80, time=0),
    Message('note_on', channel=4, note=61, velocity=95, time=0),
    Message('note_on', channel=4, note=57, velocity=95, time=0),
    Message('note_on', channel=4, note=52, velocity=95, time=0),
    Message('note_off', channel=4, note=61, velocity=80, time=240),
    Message('note_off', channel=4, note=57, velocity=80, time=0),
    Message('note_off', channel=4, note=52, velocity=80, time=0),
    Message('note_on', channel=4, note=61, velocity=95, time=240),
    Message('note_on', channel=4, note=57, velocity=95, time=0),
    Message('note_on', channel=4, note=52, velocity=95, time=0),
    Message('note_on', channel=4, note=45, velocity=95, time=0),
    Message('note_off', channel=4, note=61, velocity=80, time=1920),
    Message('note_off', channel=4, note=57, velocity=80, time=0),
    Message('note_off', channel=4, note=52, velocity=80, time=0),
    Message('note_off', channel=4, note=45, velocity=80, time=0),
    Message('note_on', channel=4, note=47, velocity=95, time=0),
    Message('note_off', channel=4, note=47, velocity=80, time=480),
    Message('note_on', channel=4, note=62, velocity=95, time=0),
    Message('note_on', channel=4, note=59, velocity=95, time=0),
    Message('note_on', channel=4, note=54, velocity=95, time=0),
    Message('note_off', channel=4, note=62, velocity=80, time=240),
    Message('note_off', channel=4, note=59, velocity=80, time=0),
    Message('note_off', channel=4, note=54, velocity=80, time=0),
    Message('note_on', channel=4, note=47, velocity=95, time=240),
    Message('note_off', channel=4, note=47, velocity=80, time=480),
    Message('note_on', channel=4, note=62, velocity=95, time=0),
    Message('note_on', channel=4, note=59, velocity=95, time=0),
    Message('note_on', channel=4, note=54, velocity=95, time=0),
    Message('note_off', channel=4, note=62, velocity=80, time=240),
    Message('note_off', channel=4, note=59, velocity=80, time=0),
    Message('note_off', channel=4, note=54, velocity=80, time=0),
    Message('note_on', channel=4, note=40, velocity=95, time=240),
    Message('note_off', channel=4, note=40, velocity=80, time=480),
    Message('note_on', channel=4, note=68, velocity=95, time=0),
    Message('note_on', channel=4, note=64, velocity=95, time=0),
    Message('note_on', channel=4, note=59, velocity=95, time=0),
    Message('note_on', channel=4, note=52, velocity=95, time=0),
    Message('note_off', channel=4, note=68, velocity=80, time=240),
    Message('note_off', channel=4, note=64, velocity=80, time=0),
    Message('note_off', channel=4, note=59, velocity=80, time=0),
    Message('note_off', channel=4, note=52, velocity=80, time=0),
    Message('note_on', channel=4, note=40, velocity=95, time=240),
    Message('note_off', channel=4, note=40, velocity=80, time=480),
    Message('note_on', channel=4, note=68, velocity=95, time=0),
    Message('note_on', channel=4, note=64, velocity=95, time=0),
    Message('note_on', channel=4, note=59, velocity=95, time=0),
    Message('note_on', channel=4, note=52, velocity=95, time=0),
    Message('note_off', channel=4, note=68, velocity=80, time=240),
    Message('note_off', channel=4, note=64, velocity=80, time=0),
    Message('note_off', channel=4, note=59, velocity=80, time=0),
    Message('note_off', channel=4, note=52, velocity=80, time=0),
    Message('note_on', channel=4, note=45, velocity=95, time=240),
    Message('note_off', channel=4, note=45, velocity=80, time=480),
    Message('note_on', channel=4, note=61, velocity=95, time=0),
    Message('note_on', channel=4, note=57, velocity=95, time=0),
    Message('note_on', channel=4, note=52, velocity=95, time=0),
    Message('note_off', channel=4, note=61, velocity=80, time=240),
    Message('note_off', channel=4, note=57, velocity=80, time=0),
    Message('note_off', channel=4, note=52, velocity=80, time=0),
    Message('note_on', channel=4, note=45, velocity=95, time=240),
    Message('note_off', channel=4, note=45, velocity=80, time=240),
    Message('note_on', channel=4, note=61, velocity=95, time=0),
    Message('note_on', channel=4, note=57, velocity=95, time=0),
    Message('note_off', channel=4, note=61, velocity=80, time=240),
    Message('note_off', channel=4, note=57, velocity=80, time=0),
    Message('note_on', channel=4, note=61, velocity=95, time=0),
    Message('note_on', channel=4, note=57, velocity=95, time=0),
    Message('note_on', channel=4, note=52, velocity=95, time=0),
    Message('note_off', channel=4, note=61, velocity=80, time=240),
    Message('note_off', channel=4, note=57, velocity=80, time=0),
    Message('note_off', channel=4, note=52, velocity=80, time=0),
    Message('note_on', channel=4, note=45, velocity=95, time=240),
    Message('note_off', channel=4, note=45, velocity=80, time=480),
    Message('note_on', channel=4, note=61, velocity=95, time=0),
    Message('note_on', channel=4, note=57, velocity=95, time=0),
    Message('note_on', channel=4, note=52, velocity=95, time=0),
    Message('note_off', channel=4, note=61, velocity=80, time=240),
    Message('note_off', channel=4, note=57, velocity=80, time=0),
    Message('note_off', channel=4, note=52, velocity=80, time=0),
    Message('note_on', channel=4, note=45, velocity=95, time=240),
    Message('note_off', channel=4, note=45, velocity=80, time=240),
    Message('note_on', channel=4, note=61, velocity=95, time=0),
    Message('note_on', channel=4, note=57, velocity=95, time=0),
    Message('note_on', channel=4, note=52, velocity=95, time=0),
    Message('note_off', channel=4, note=61, velocity=80, time=240),
    Message('note_off', channel=4, note=57, velocity=80, time=0),
    Message('note_off', channel=4, note=52, velocity=80, time=0),
    Message('note_on', channel=4, note=61, velocity=95, time=0),
    Message('note_on', channel=4, note=57, velocity=95, time=0),
    Message('note_on', channel=4, note=52, velocity=95, time=0),
    Message('note_off', channel=4, note=61, velocity=80, time=240),
    Message('note_off', channel=4, note=57, velocity=80, time=0),
    Message('note_off', channel=4, note=52, velocity=80, time=0),
    Message('note_on', channel=4, note=61, velocity=95, time=0),
    Message('note_on', channel=4, note=57, velocity=95, time=0),
    Message('note_on', channel=4, note=52, velocity=95, time=0),
    Message('note_off', channel=4, note=61, velocity=80, time=240),
    Message('note_off', channel=4, note=57, velocity=80, time=0),
    Message('note_off', channel=4, note=52, velocity=80, time=0),
    Message('note_on', channel=4, note=45, velocity=95, time=0),
    Message('note_off', channel=4, note=45, velocity=80, time=480),
    Message('note_on', channel=4, note=61, velocity=111, time=0),
    Message('note_on', channel=4, note=57, velocity=111, time=0),
    Message('note_on', channel=4, note=52, velocity=111, time=0),
    Message('note_off', channel=4, note=61, velocity=80, time=240),
    Message('note_off', channel=4, note=57, velocity=80, time=0),
    Message('note_off', channel=4, note=52, velocity=80, time=0),
    Message('note_on', channel=4, note=45, velocity=95, time=240),
    Message('note_off', channel=4, note=45, velocity=80, time=240),
    Message('note_on', channel=4, note=61, velocity=95, time=0),
    Message('note_on', channel=4, note=57, velocity=95, time=0),
    Message('note_off', channel=4, note=61, velocity=80, time=240),
    Message('note_off', channel=4, note=57, velocity=80, time=0),
    Message('note_on', channel=4, note=61, velocity=111, time=0),
    Message('note_on', channel=4, note=57, velocity=111, time=0),
    Message('note_on', channel=4, note=52, velocity=111, time=0),
    Message('note_off', channel=4, note=61, velocity=80, time=240),
    Message('note_off', channel=4, note=57, velocity=80, time=0),
    Message('note_off', channel=4, note=52, velocity=80, time=0),
    Message('note_on', channel=4, note=45, velocity=95, time=240),
    Message('note_off', channel=4, note=45, velocity=80, time=480),
    Message('note_on', channel=4, note=61, velocity=111, time=0),
    Message('note_on', channel=4, note=57, velocity=111, time=0),
    Message('note_on', channel=4, note=52, velocity=111, time=0),
    Message('note_off', channel=4, note=61, velocity=80, time=240),
    Message('note_off', channel=4, note=57, velocity=80, time=0),
    Message('note_off', channel=4, note=52, velocity=80, time=0),
    Message('note_on', channel=4, note=45, velocity=95, time=240),
    Message('note_off', channel=4, note=45, velocity=80, time=240),
    Message('note_on', channel=4, note=61, velocity=95, time=0),
    Message('note_on', channel=4, note=57, velocity=95, time=0),
    Message('note_on', channel=4, note=52, velocity=95, time=0),
    Message('note_off', channel=4, note=61, velocity=80, time=240),
    Message('note_off', channel=4, note=57, velocity=80, time=0),
    Message('note_off', channel=4, note=52, velocity=80, time=0),
    Message('note_on', channel=4, note=61, velocity=95, time=0),
    Message('note_on', channel=4, note=57, velocity=95, time=0),
    Message('note_on', channel=4, note=52, velocity=95, time=0),
    Message('note_off', channel=4, note=61, velocity=80, time=240),
    Message('note_off', channel=4, note=57, velocity=80, time=0),
    Message('note_off', channel=4, note=52, velocity=80, time=0),
    Message('note_on', channel=4, note=61, velocity=95, time=0),
    Message('note_on', channel=4, note=57, velocity=95, time=0),
    Message('note_on', channel=4, note=52, velocity=95, time=0),
    Message('note_off', channel=4, note=61, velocity=80, time=240),
    Message('note_off', channel=4, note=57, velocity=80, time=0),
    Message('note_off', channel=4, note=52, velocity=80, time=0),
    Message('note_on', channel=4, note=45, velocity=95, time=0),
    Message('note_off', channel=4, note=45, velocity=80, time=480),
    Message('note_on', channel=4, note=61, velocity=111, time=0),
    Message('note_on', channel=4, note=57, velocity=111, time=0),
    Message('note_on', channel=4, note=52, velocity=111, time=0),
    Message('note_off', channel=4, note=61, velocity=80, time=240),
    Message('note_off', channel=4, note=57, velocity=80, time=0),
    Message('note_off', channel=4, note=52, velocity=80, time=0),
    Message('note_on', channel=4, note=45, velocity=95, time=240),
    Message('note_off', channel=4, note=45, velocity=80, time=240),
    Message('note_on', channel=4, note=61, velocity=95, time=0),
    Message('note_on', channel=4, note=57, velocity=95, time=0),
    Message('note_off', channel=4, note=61, velocity=80, time=240),
    Message('note_off', channel=4, note=57, velocity=80, time=0),
    Message('note_on', channel=4, note=61, velocity=111, time=0),
    Message('note_on', channel=4, note=57, velocity=111, time=0),
    Message('note_on', channel=4, note=52, velocity=111, time=0),
    Message('note_off', channel=4, note=61, velocity=80, time=240),
    Message('note_off', channel=4, note=57, velocity=80, time=0),
    Message('note_off', channel=4, note=52, velocity=80, time=0),
    Message('note_on', channel=4, note=45, velocity=95, time=240),
    Message('note_off', channel=4, note=45, velocity=80, time=480),
    Message('note_on', channel=4, note=61, velocity=111, time=0),
    Message('note_on', channel=4, note=57, velocity=111, time=0),
    Message('note_on', channel=4, note=52, velocity=111, time=0),
    Message('note_off', channel=4, note=61, velocity=80, time=240),
    Message('note_off', channel=4, note=57, velocity=80, time=0),
    Message('note_off', channel=4, note=52, velocity=80, time=0),
    Message('note_on', channel=4, note=45, velocity=95, time=240),
    Message('note_off', channel=4, note=45, velocity=80, time=240),
    Message('note_on', channel=4, note=61, velocity=95, time=0),
    Message('note_on', channel=4, note=57, velocity=95, time=0),
    Message('note_on', channel=4, note=52, velocity=95, time=0),
    Message('note_off', channel=4, note=61, velocity=80, time=240),
    Message('note_off', channel=4, note=57, velocity=80, time=0),
    Message('note_off', channel=4, note=52, velocity=80, time=0),
    Message('note_on', channel=4, note=61, velocity=95, time=0),
    Message('note_on', channel=4, note=57, velocity=95, time=0),
    Message('note_on', channel=4, note=52, velocity=95, time=0),
    Message('note_off', channel=4, note=61, velocity=80, time=240),
    Message('note_off', channel=4, note=57, velocity=80, time=0),
    Message('note_off', channel=4, note=52, velocity=80, time=0),
    Message('note_on', channel=4, note=61, velocity=95, time=0),
    Message('note_on', channel=4, note=57, velocity=95, time=0),
    Message('note_on', channel=4, note=52, velocity=95, time=0),
    Message('note_off', channel=4, note=61, velocity=80, time=240),
    Message('note_off', channel=4, note=57, velocity=80, time=0),
    Message('note_off', channel=4, note=52, velocity=80, time=0),
    Message('note_on', channel=4, note=47, velocity=95, time=0),
    Message('note_off', channel=4, note=47, velocity=80, time=480),
    Message('note_on', channel=4, note=62, velocity=95, time=0),
    Message('note_on', channel=4, note=59, velocity=95, time=0),
    Message('note_on', channel=4, note=54, velocity=95, time=0),
    Message('note_off', channel=4, note=62, velocity=80, time=240),
    Message('note_off', channel=4, note=59, velocity=80, time=0),
    Message('note_off', channel=4, note=54, velocity=80, time=0),
    Message('note_on', channel=4, note=47, velocity=95, time=240),
    Message('note_off', channel=4, note=47, velocity=80, time=240),
    Message('note_on', channel=4, note=62, velocity=95, time=0),
    Message('note_on', channel=4, note=59, velocity=95, time=0),
    Message('note_on', channel=4, note=54, velocity=95, time=0),
    Message('note_off', channel=4, note=62, velocity=80, time=240),
    Message('note_off', channel=4, note=59, velocity=80, time=0),
    Message('note_off', channel=4, note=54, velocity=80, time=0),
    Message('note_on', channel=4, note=62, velocity=95, time=240),
    Message('note_on', channel=4, note=59, velocity=95, time=0),
    Message('note_on', channel=4, note=54, velocity=95, time=0),
    Message('note_off', channel=4, note=62, velocity=80, time=240),
    Message('note_off', channel=4, note=59, velocity=80, time=0),
    Message('note_off', channel=4, note=54, velocity=80, time=0),
    Message('note_on', channel=4, note=47, velocity=95, time=0),
    Message('note_off', channel=4, note=47, velocity=80, time=480),
    Message('note_on', channel=4, note=62, velocity=95, time=0),
    Message('note_on', channel=4, note=59, velocity=95, time=0),
    Message('note_on', channel=4, note=54, velocity=95, time=0),
    Message('note_off', channel=4, note=62, velocity=80, time=480),
    Message('note_off', channel=4, note=59, velocity=80, time=0),
    Message('note_off', channel=4, note=54, velocity=80, time=0),
    Message('note_on', channel=4, note=47, velocity=95, time=0),
    Message('note_off', channel=4, note=47, velocity=80, time=240),
    Message('note_on', channel=4, note=45, velocity=95, time=0),
    Message('note_off', channel=4, note=45, velocity=80, time=240),
    Message('note_on', channel=5, note=42, velocity=95, time=0),
    Message('pitchwheel', channel=5, pitch=0, time=0),
    Message('pitchwheel', channel=5, pitch=128, time=16),
    Message('pitchwheel', channel=5, pitch=384, time=16),
    Message('pitchwheel', channel=5, pitch=512, time=16),
    Message('pitchwheel', channel=5, pitch=768, time=16),
    Message('pitchwheel', channel=5, pitch=896, time=16),
    Message('pitchwheel', channel=5, pitch=1152, time=16),
    Message('pitchwheel', channel=5, pitch=1280, time=16),
    Message('pitchwheel', channel=5, pitch=1408, time=16),
    Message('pitchwheel', channel=5, pitch=1152, time=128),
    Message('pitchwheel', channel=5, pitch=1024, time=16),
    Message('pitchwheel', channel=5, pitch=768, time=16),
    Message('pitchwheel', channel=5, pitch=640, time=16),
    Message('pitchwheel', channel=5, pitch=512, time=16),
    Message('pitchwheel', channel=5, pitch=256, time=16),
    Message('pitchwheel', channel=5, pitch=128, time=16),
    Message('pitchwheel', channel=5, pitch=0, time=16),
    Message('note_off', channel=5, note=42, velocity=80, time=112),
    Message('pitchwheel', channel=5, pitch=0, time=0),
    Message('note_on', channel=4, note=40, velocity=95, time=0),
    Message('note_off', channel=4, note=40, velocity=80, time=480),
    Message('note_on', channel=4, note=64, velocity=95, time=0),
    Message('note_on', channel=4, note=59, velocity=95, time=0),
    Message('note_on', channel=4, note=56, velocity=95, time=0),
    Message('note_on', channel=4, note=52, velocity=95, time=0),
    Message('note_off', channel=4, note=64, velocity=80, time=480),
    Message('note_off', channel=4, note=59, velocity=80, time=0),
    Message('note_off', channel=4, note=56, velocity=80, time=0),
    Message('note_off', channel=4, note=52, velocity=80, time=0),
    Message('note_on', channel=4, note=47, velocity=95, time=0),
    Message('note_off', channel=4, note=47, velocity=80, time=240),
    Message('note_on', channel=4, note=64, velocity=95, time=0),
    Message('note_on', channel=4, note=59, velocity=95, time=0),
    Message('note_on', channel=4, note=56, velocity=95, time=0),
    Message('note_on', channel=4, note=52, velocity=95, time=0),
    Message('note_off', channel=4, note=64, velocity=80, time=240),
    Message('note_off', channel=4, note=59, velocity=80, time=0),
    Message('note_off', channel=4, note=56, velocity=80, time=0),
    Message('note_off', channel=4, note=52, velocity=80, time=0),
    Message('note_on', channel=4, note=64, velocity=95, time=0),
    Message('note_on', channel=4, note=59, velocity=95, time=0),
    Message('note_on', channel=4, note=56, velocity=95, time=0),
    Message('note_on', channel=4, note=52, velocity=95, time=0),
    Message('note_off', channel=4, note=64, velocity=80, time=240),
    Message('note_off', channel=4, note=59, velocity=80, time=0),
    Message('note_off', channel=4, note=56, velocity=80, time=0),
    Message('note_off', channel=4, note=52, velocity=80, time=0),
    Message('note_on', channel=4, note=64, velocity=95, time=0),
    Message('note_on', channel=4, note=59, velocity=95, time=0),
    Message('note_on', channel=4, note=56, velocity=95, time=0),
    Message('note_on', channel=4, note=52, velocity=95, time=0),
    Message('note_off', channel=4, note=64, velocity=80, time=240),
    Message('note_off', channel=4, note=59, velocity=80, time=0),
    Message('note_off', channel=4, note=56, velocity=80, time=0),
    Message('note_off', channel=4, note=52, velocity=80, time=0),
    Message('note_on', channel=4, note=40, velocity=95, time=0),
    Message('note_off', channel=4, note=40, velocity=80, time=240),
    Message('note_on', channel=4, note=64, velocity=95, time=0),
    Message('note_on', channel=4, note=59, velocity=95, time=0),
    Message('note_on', channel=4, note=56, velocity=95, time=0),
    Message('note_on', channel=4, note=52, velocity=95, time=0),
    Message('note_off', channel=4, note=64, velocity=80, time=240),
    Message('note_off', channel=4, note=59, velocity=80, time=0),
    Message('note_off', channel=4, note=56, velocity=80, time=0),
    Message('note_off', channel=4, note=52, velocity=80, time=0),
    Message('note_on', channel=4, note=64, velocity=95, time=0),
    Message('note_on', channel=4, note=59, velocity=95, time=0),
    Message('note_on', channel=4, note=56, velocity=95, time=0),
    Message('note_on', channel=4, note=52, velocity=95, time=0),
    Message('note_off', channel=4, note=64, velocity=80, time=240),
    Message('note_off', channel=4, note=59, velocity=80, time=0),
    Message('note_off', channel=4, note=56, velocity=80, time=0),
    Message('note_off', channel=4, note=52, velocity=80, time=0),
    Message('note_on', channel=4, note=64, velocity=95, time=0),
    Message('note_on', channel=4, note=59, velocity=95, time=0),
    Message('note_on', channel=4, note=56, velocity=95, time=0),
    Message('note_on', channel=4, note=52, velocity=95, time=0),
    Message('note_off', channel=4, note=64, velocity=80, time=240),
    Message('note_off', channel=4, note=59, velocity=80, time=0),
    Message('note_off', channel=4, note=56, velocity=80, time=0),
    Message('note_off', channel=4, note=52, velocity=80, time=0),
    Message('note_on', channel=4, note=64, velocity=95, time=0),
    Message('note_on', channel=4, note=59, velocity=95, time=0),
    Message('note_on', channel=4, note=56, velocity=95, time=0),
    Message('note_on', channel=4, note=52, velocity=95, time=0),
    Message('note_off', channel=4, note=64, velocity=80, time=240),
    Message('note_off', channel=4, note=59, velocity=80, time=0),
    Message('note_off', channel=4, note=56, velocity=80, time=0),
    Message('note_off', channel=4, note=52, velocity=80, time=0),
    Message('note_on', channel=4, note=64, velocity=95, time=0),
    Message('note_on', channel=4, note=59, velocity=95, time=0),
    Message('note_on', channel=4, note=56, velocity=95, time=0),
    Message('note_on', channel=4, note=52, velocity=95, time=0),
    Message('note_off', channel=4, note=64, velocity=80, time=240),
    Message('note_off', channel=4, note=59, velocity=80, time=0),
    Message('note_off', channel=4, note=56, velocity=80, time=0),
    Message('note_off', channel=4, note=52, velocity=80, time=0),
    Message('note_on', channel=4, note=64, velocity=95, time=0),
    Message('note_on', channel=4, note=59, velocity=95, time=0),
    Message('note_on', channel=4, note=56, velocity=95, time=0),
    Message('note_on', channel=4, note=52, velocity=95, time=0),
    Message('note_off', channel=4, note=64, velocity=80, time=240),
    Message('note_off', channel=4, note=59, velocity=80, time=0),
    Message('note_off', channel=4, note=56, velocity=80, time=0),
    Message('note_off', channel=4, note=52, velocity=80, time=0),
    Message('note_on', channel=4, note=64, velocity=95, time=0),
    Message('note_on', channel=4, note=59, velocity=95, time=0),
    Message('note_on', channel=4, note=56, velocity=95, time=0),
    Message('note_on', channel=4, note=52, velocity=95, time=0),
    Message('note_off', channel=4, note=64, velocity=80, time=240),
    Message('note_off', channel=4, note=59, velocity=80, time=0),
    Message('note_off', channel=4, note=56, velocity=80, time=0),
    Message('note_off', channel=4, note=52, velocity=80, time=0),
    Message('note_on', channel=4, note=45, velocity=95, time=0),
    Message('note_off', channel=4, note=45, velocity=80, time=480),
    Message('note_on', channel=4, note=61, velocity=95, time=0),
    Message('note_on', channel=4, note=57, velocity=95, time=0),
    Message('note_on', channel=4, note=52, velocity=95, time=0),
    Message('note_off', channel=4, note=61, velocity=80, time=240),
    Message('note_off', channel=4, note=57, velocity=80, time=0),
    Message('note_off', channel=4, note=52, velocity=80, time=0),
    Message('note_on', channel=4, note=45, velocity=95, time=240),
    Message('note_off', channel=4, note=45, velocity=80, time=240),
    Message('note_on', channel=4, note=61, velocity=95, time=0),
    Message('note_on', channel=4, note=57, velocity=95, time=0),
    Message('note_off', channel=4, note=61, velocity=80, time=240),
    Message('note_off', channel=4, note=57, velocity=80, time=0),
    Message('note_on', channel=4, note=61, velocity=95, time=0),
    Message('note_on', channel=4, note=57, velocity=95, time=0),
    Message('note_on', channel=4, note=52, velocity=95, time=0),
    Message('note_off', channel=4, note=61, velocity=80, time=240),
    Message('note_off', channel=4, note=57, velocity=80, time=0),
    Message('note_off', channel=4, note=52, velocity=80, time=0),
    Message('note_on', channel=4, note=45, velocity=95, time=240),
    Message('note_off', channel=4, note=45, velocity=80, time=480),
    Message('note_on', channel=4, note=61, velocity=95, time=0),
    Message('note_on', channel=4, note=57, velocity=95, time=0),
    Message('note_on', channel=4, note=52, velocity=95, time=0),
    Message('note_off', channel=4, note=61, velocity=80, time=240),
    Message('note_off', channel=4, note=57, velocity=80, time=0),
    Message('note_off', channel=4, note=52, velocity=80, time=0),
    Message('note_on', channel=4, note=45, velocity=95, time=240),
    Message('note_off', channel=4, note=45, velocity=80, time=240),
    Message('note_on', channel=4, note=61, velocity=95, time=0),
    Message('note_on', channel=4, note=57, velocity=95, time=0),
    Message('note_on', channel=4, note=52, velocity=95, time=0),
    Message('note_off', channel=4, note=61, velocity=80, time=240),
    Message('note_off', channel=4, note=57, velocity=80, time=0),
    Message('note_off', channel=4, note=52, velocity=80, time=0),
    Message('note_on', channel=4, note=61, velocity=95, time=0),
    Message('note_on', channel=4, note=57, velocity=95, time=0),
    Message('note_on', channel=4, note=52, velocity=95, time=0),
    Message('note_off', channel=4, note=61, velocity=80, time=240),
    Message('note_off', channel=4, note=57, velocity=80, time=0),
    Message('note_off', channel=4, note=52, velocity=80, time=0),
    Message('note_on', channel=4, note=61, velocity=95, time=0),
    Message('note_on', channel=4, note=57, velocity=95, time=0),
    Message('note_on', channel=4, note=52, velocity=95, time=0),
    Message('note_off', channel=4, note=61, velocity=80, time=240),
    Message('note_off', channel=4, note=57, velocity=80, time=0),
    Message('note_off', channel=4, note=52, velocity=80, time=0),
    Message('note_on', channel=4, note=45, velocity=95, time=0),
    Message('note_off', channel=4, note=45, velocity=80, time=480),
    Message('note_on', channel=4, note=61, velocity=95, time=0),
    Message('note_on', channel=4, note=57, velocity=95, time=0),
    Message('note_on', channel=4, note=52, velocity=95, time=0),
    Message('note_off', channel=4, note=61, velocity=80, time=240),
    Message('note_off', channel=4, note=57, velocity=80, time=0),
    Message('note_off', channel=4, note=52, velocity=80, time=0),
    Message('note_on', channel=4, note=45, velocity=95, time=240),
    Message('note_off', channel=4, note=45, velocity=80, time=240),
    Message('note_on', channel=4, note=61, velocity=95, time=0),
    Message('note_on', channel=4, note=57, velocity=95, time=0),
    Message('note_off', channel=4, note=61, velocity=80, time=240),
    Message('note_off', channel=4, note=57, velocity=80, time=0),
    Message('note_on', channel=4, note=61, velocity=95, time=0),
    Message('note_on', channel=4, note=57, velocity=95, time=0),
    Message('note_on', channel=4, note=52, velocity=95, time=0),
    Message('note_off', channel=4, note=61, velocity=80, time=240),
    Message('note_off', channel=4, note=57, velocity=80, time=0),
    Message('note_off', channel=4, note=52, velocity=80, time=0),
    Message('note_on', channel=4, note=61, velocity=95, time=240),
    Message('note_on', channel=4, note=57, velocity=95, time=0),
    Message('note_on', channel=4, note=52, velocity=95, time=0),
    Message('note_on', channel=4, note=45, velocity=95, time=0),
    Message('note_off', channel=4, note=61, velocity=80, time=1920),
    Message('note_off', channel=4, note=57, velocity=80, time=0),
    Message('note_off', channel=4, note=52, velocity=80, time=0),
    Message('note_off', channel=4, note=45, velocity=80, time=0),
    Message('note_on', channel=4, note=47, velocity=95, time=0),
    Message('note_off', channel=4, note=47, velocity=80, time=480),
    Message('note_on', channel=4, note=62, velocity=95, time=0),
    Message('note_on', channel=4, note=59, velocity=95, time=0),
    Message('note_on', channel=4, note=54, velocity=95, time=0),
    Message('note_off', channel=4, note=62, velocity=80, time=240),
    Message('note_off', channel=4, note=59, velocity=80, time=0),
    Message('note_off', channel=4, note=54, velocity=80, time=0),
    Message('note_on', channel=4, note=47, velocity=95, time=240),
    Message('note_off', channel=4, note=47, velocity=80, time=480),
    Message('note_on', channel=4, note=62, velocity=95, time=0),
    Message('note_on', channel=4, note=59, velocity=95, time=0),
    Message('note_on', channel=4, note=54, velocity=95, time=0),
    Message('note_off', channel=4, note=62, velocity=80, time=240),
    Message('note_off', channel=4, note=59, velocity=80, time=0),
    Message('note_off', channel=4, note=54, velocity=80, time=0),
    Message('note_on', channel=4, note=40, velocity=95, time=240),
    Message('note_off', channel=4, note=40, velocity=80, time=480),
    Message('note_on', channel=4, note=68, velocity=95, time=0),
    Message('note_on', channel=4, note=64, velocity=95, time=0),
    Message('note_on', channel=4, note=59, velocity=95, time=0),
    Message('note_on', channel=4, note=52, velocity=95, time=0),
    Message('note_off', channel=4, note=68, velocity=80, time=240),
    Message('note_off', channel=4, note=64, velocity=80, time=0),
    Message('note_off', channel=4, note=59, velocity=80, time=0),
    Message('note_off', channel=4, note=52, velocity=80, time=0),
    Message('note_on', channel=4, note=40, velocity=95, time=240),
    Message('note_off', channel=4, note=40, velocity=80, time=480),
    Message('note_on', channel=4, note=68, velocity=95, time=0),
    Message('note_on', channel=4, note=64, velocity=95, time=0),
    Message('note_on', channel=4, note=59, velocity=95, time=0),
    Message('note_on', channel=4, note=52, velocity=95, time=0),
    Message('note_off', channel=4, note=68, velocity=80, time=240),
    Message('note_off', channel=4, note=64, velocity=80, time=0),
    Message('note_off', channel=4, note=59, velocity=80, time=0),
    Message('note_off', channel=4, note=52, velocity=80, time=0),
    Message('note_on', channel=4, note=45, velocity=95, time=240),
    Message('note_off', channel=4, note=45, velocity=80, time=480),
    Message('note_on', channel=4, note=61, velocity=95, time=0),
    Message('note_on', channel=4, note=57, velocity=95, time=0),
    Message('note_on', channel=4, note=52, velocity=95, time=0),
    Message('note_off', channel=4, note=61, velocity=80, time=240),
    Message('note_off', channel=4, note=57, velocity=80, time=0),
    Message('note_off', channel=4, note=52, velocity=80, time=0),
    Message('note_on', channel=4, note=45, velocity=95, time=240),
    Message('note_off', channel=4, note=45, velocity=80, time=240),
    Message('note_on', channel=4, note=61, velocity=95, time=0),
    Message('note_on', channel=4, note=57, velocity=95, time=0),
    Message('note_off', channel=4, note=61, velocity=80, time=240),
    Message('note_off', channel=4, note=57, velocity=80, time=0),
    Message('note_on', channel=4, note=61, velocity=95, time=0),
    Message('note_on', channel=4, note=57, velocity=95, time=0),
    Message('note_on', channel=4, note=52, velocity=95, time=0),
    Message('note_off', channel=4, note=61, velocity=80, time=240),
    Message('note_off', channel=4, note=57, velocity=80, time=0),
    Message('note_off', channel=4, note=52, velocity=80, time=0),
    Message('note_on', channel=4, note=45, velocity=95, time=240),
    Message('note_off', channel=4, note=45, velocity=80, time=480),
    Message('note_on', channel=4, note=61, velocity=95, time=0),
    Message('note_on', channel=4, note=57, velocity=95, time=0),
    Message('note_on', channel=4, note=52, velocity=95, time=0),
    Message('note_off', channel=4, note=61, velocity=80, time=240),
    Message('note_off', channel=4, note=57, velocity=80, time=0),
    Message('note_off', channel=4, note=52, velocity=80, time=0),
    Message('note_on', channel=4, note=45, velocity=95, time=240),
    Message('note_off', channel=4, note=45, velocity=80, time=240),
    Message('note_on', channel=4, note=61, velocity=95, time=0),
    Message('note_on', channel=4, note=57, velocity=95, time=0),
    Message('note_on', channel=4, note=52, velocity=95, time=0),
    Message('note_off', channel=4, note=61, velocity=80, time=240),
    Message('note_off', channel=4, note=57, velocity=80, time=0),
    Message('note_off', channel=4, note=52, velocity=80, time=0),
    Message('note_on', channel=4, note=61, velocity=95, time=0),
    Message('note_on', channel=4, note=57, velocity=95, time=0),
    Message('note_on', channel=4, note=52, velocity=95, time=0),
    Message('note_off', channel=4, note=61, velocity=80, time=240),
    Message('note_off', channel=4, note=57, velocity=80, time=0),
    Message('note_off', channel=4, note=52, velocity=80, time=0),
    Message('note_on', channel=4, note=61, velocity=95, time=0),
    Message('note_on', channel=4, note=57, velocity=95, time=0),
    Message('note_on', channel=4, note=52, velocity=95, time=0),
    Message('note_off', channel=4, note=61, velocity=80, time=240),
    Message('note_off', channel=4, note=57, velocity=80, time=0),
    Message('note_off', channel=4, note=52, velocity=80, time=0),
    Message('note_on', channel=4, note=45, velocity=95, time=0),
    Message('note_off', channel=4, note=45, velocity=80, time=480),
    Message('note_on', channel=4, note=61, velocity=111, time=0),
    Message('note_on', channel=4, note=57, velocity=111, time=0),
    Message('note_on', channel=4, note=52, velocity=111, time=0),
    Message('note_off', channel=4, note=61, velocity=80, time=240),
    Message('note_off', channel=4, note=57, velocity=80, time=0),
    Message('note_off', channel=4, note=52, velocity=80, time=0),
    Message('note_on', channel=4, note=45, velocity=95, time=240),
    Message('note_off', channel=4, note=45, velocity=80, time=240),
    Message('note_on', channel=4, note=61, velocity=95, time=0),
    Message('note_on', channel=4, note=57, velocity=95, time=0),
    Message('note_off', channel=4, note=61, velocity=80, time=240),
    Message('note_off', channel=4, note=57, velocity=80, time=0),
    Message('note_on', channel=4, note=61, velocity=111, time=0),
    Message('note_on', channel=4, note=57, velocity=111, time=0),
    Message('note_on', channel=4, note=52, velocity=111, time=0),
    Message('note_off', channel=4, note=61, velocity=80, time=240),
    Message('note_off', channel=4, note=57, velocity=80, time=0),
    Message('note_off', channel=4, note=52, velocity=80, time=0),
    Message('note_on', channel=4, note=45, velocity=95, time=240),
    Message('note_off', channel=4, note=45, velocity=80, time=480),
    Message('note_on', channel=4, note=61, velocity=111, time=0),
    Message('note_on', channel=4, note=57, velocity=111, time=0),
    Message('note_on', channel=4, note=52, velocity=111, time=0),
    Message('note_off', channel=4, note=61, velocity=80, time=240),
    Message('note_off', channel=4, note=57, velocity=80, time=0),
    Message('note_off', channel=4, note=52, velocity=80, time=0),
    Message('note_on', channel=4, note=45, velocity=95, time=240),
    Message('note_off', channel=4, note=45, velocity=80, time=240),
    Message('note_on', channel=4, note=61, velocity=95, time=0),
    Message('note_on', channel=4, note=57, velocity=95, time=0),
    Message('note_on', channel=4, note=52, velocity=95, time=0),
    Message('note_off', channel=4, note=61, velocity=80, time=240),
    Message('note_off', channel=4, note=57, velocity=80, time=0),
    Message('note_off', channel=4, note=52, velocity=80, time=0),
    Message('note_on', channel=4, note=61, velocity=95, time=0),
    Message('note_on', channel=4, note=57, velocity=95, time=0),
    Message('note_on', channel=4, note=52, velocity=95, time=0),
    Message('note_off', channel=4, note=61, velocity=80, time=240),
    Message('note_off', channel=4, note=57, velocity=80, time=0),
    Message('note_off', channel=4, note=52, velocity=80, time=0),
    Message('note_on', channel=4, note=61, velocity=95, time=0),
    Message('note_on', channel=4, note=57, velocity=95, time=0),
    Message('note_on', channel=4, note=52, velocity=95, time=0),
    Message('note_off', channel=4, note=61, velocity=80, time=240),
    Message('note_off', channel=4, note=57, velocity=80, time=0),
    Message('note_off', channel=4, note=52, velocity=80, time=0),
    Message('note_on', channel=4, note=45, velocity=95, time=0),
    Message('note_off', channel=4, note=45, velocity=80, time=480),
    Message('note_on', channel=4, note=61, velocity=111, time=0),
    Message('note_on', channel=4, note=57, velocity=111, time=0),
    Message('note_on', channel=4, note=52, velocity=111, time=0),
    Message('note_off', channel=4, note=61, velocity=80, time=240),
    Message('note_off', channel=4, note=57, velocity=80, time=0),
    Message('note_off', channel=4, note=52, velocity=80, time=0),
    Message('note_on', channel=4, note=45, velocity=95, time=240),
    Message('note_off', channel=4, note=45, velocity=80, time=240),
    Message('note_on', channel=4, note=61, velocity=95, time=0),
    Message('note_on', channel=4, note=57, velocity=95, time=0),
    Message('note_off', channel=4, note=61, velocity=80, time=240),
    Message('note_off', channel=4, note=57, velocity=80, time=0),
    Message('note_on', channel=4, note=61, velocity=111, time=0),
    Message('note_on', channel=4, note=57, velocity=111, time=0),
    Message('note_on', channel=4, note=52, velocity=111, time=0),
    Message('note_off', channel=4, note=61, velocity=80, time=240),
    Message('note_off', channel=4, note=57, velocity=80, time=0),
    Message('note_off', channel=4, note=52, velocity=80, time=0),
    Message('note_on', channel=4, note=45, velocity=95, time=240),
    Message('note_off', channel=4, note=45, velocity=80, time=480),
    Message('note_on', channel=4, note=61, velocity=111, time=0),
    Message('note_on', channel=4, note=57, velocity=111, time=0),
    Message('note_on', channel=4, note=52, velocity=111, time=0),
    Message('note_off', channel=4, note=61, velocity=80, time=240),
    Message('note_off', channel=4, note=57, velocity=80, time=0),
    Message('note_off', channel=4, note=52, velocity=80, time=0),
    Message('note_on', channel=4, note=45, velocity=95, time=240),
    Message('note_off', channel=4, note=45, velocity=80, time=240),
    Message('note_on', channel=4, note=61, velocity=95, time=0),
    Message('note_on', channel=4, note=57, velocity=95, time=0),
    Message('note_on', channel=4, note=52, velocity=95, time=0),
    Message('note_off', channel=4, note=61, velocity=80, time=240),
    Message('note_off', channel=4, note=57, velocity=80, time=0),
    Message('note_off', channel=4, note=52, velocity=80, time=0),
    Message('note_on', channel=4, note=61, velocity=95, time=0),
    Message('note_on', channel=4, note=57, velocity=95, time=0),
    Message('note_on', channel=4, note=52, velocity=95, time=0),
    Message('note_off', channel=4, note=61, velocity=80, time=240),
    Message('note_off', channel=4, note=57, velocity=80, time=0),
    Message('note_off', channel=4, note=52, velocity=80, time=0),
    Message('note_on', channel=4, note=61, velocity=95, time=0),
    Message('note_on', channel=4, note=57, velocity=95, time=0),
    Message('note_on', channel=4, note=52, velocity=95, time=0),
    Message('note_off', channel=4, note=61, velocity=80, time=240),
    Message('note_off', channel=4, note=57, velocity=80, time=0),
    Message('note_off', channel=4, note=52, velocity=80, time=0),
    Message('note_on', channel=4, note=47, velocity=95, time=0),
    Message('note_off', channel=4, note=47, velocity=80, time=480),
    Message('note_on', channel=4, note=62, velocity=95, time=0),
    Message('note_on', channel=4, note=59, velocity=95, time=0),
    Message('note_on', channel=4, note=54, velocity=95, time=0),
    Message('note_off', channel=4, note=62, velocity=80, time=240),
    Message('note_off', channel=4, note=59, velocity=80, time=0),
    Message('note_off', channel=4, note=54, velocity=80, time=0),
    Message('note_on', channel=4, note=47, velocity=95, time=240),
    Message('note_off', channel=4, note=47, velocity=80, time=240),
    Message('note_on', channel=4, note=62, velocity=95, time=0),
    Message('note_on', channel=4, note=59, velocity=95, time=0),
    Message('note_on', channel=4, note=54, velocity=95, time=0),
    Message('note_off', channel=4, note=62, velocity=80, time=240),
    Message('note_off', channel=4, note=59, velocity=80, time=0),
    Message('note_off', channel=4, note=54, velocity=80, time=0),
    Message('note_on', channel=4, note=62, velocity=95, time=240),
    Message('note_on', channel=4, note=59, velocity=95, time=0),
    Message('note_on', channel=4, note=54, velocity=95, time=0),
    Message('note_off', channel=4, note=62, velocity=80, time=240),
    Message('note_off', channel=4, note=59, velocity=80, time=0),
    Message('note_off', channel=4, note=54, velocity=80, time=0),
    Message('note_on', channel=4, note=47, velocity=95, time=0),
    Message('note_off', channel=4, note=47, velocity=80, time=480),
    Message('note_on', channel=4, note=62, velocity=95, time=0),
    Message('note_on', channel=4, note=59, velocity=95, time=0),
    Message('note_on', channel=4, note=54, velocity=95, time=0),
    Message('note_off', channel=4, note=62, velocity=80, time=480),
    Message('note_off', channel=4, note=59, velocity=80, time=0),
    Message('note_off', channel=4, note=54, velocity=80, time=0),
    Message('note_on', channel=4, note=47, velocity=95, time=0),
    Message('note_off', channel=4, note=47, velocity=80, time=240),
    Message('note_on', channel=4, note=45, velocity=95, time=0),
    Message('note_off', channel=4, note=45, velocity=80, time=240),
    Message('note_on', channel=5, note=42, velocity=95, time=0),
    Message('pitchwheel', channel=5, pitch=0, time=0),
    Message('pitchwheel', channel=5, pitch=128, time=16),
    Message('pitchwheel', channel=5, pitch=384, time=16),
    Message('pitchwheel', channel=5, pitch=512, time=16),
    Message('pitchwheel', channel=5, pitch=768, time=16),
    Message('pitchwheel', channel=5, pitch=896, time=16),
    Message('pitchwheel', channel=5, pitch=1152, time=16),
    Message('pitchwheel', channel=5, pitch=1280, time=16),
    Message('pitchwheel', channel=5, pitch=1408, time=16),
    Message('pitchwheel', channel=5, pitch=1152, time=128),
    Message('pitchwheel', channel=5, pitch=1024, time=16),
    Message('pitchwheel', channel=5, pitch=768, time=16),
    Message('pitchwheel', channel=5, pitch=640, time=16),
    Message('pitchwheel', channel=5, pitch=512, time=16),
    Message('pitchwheel', channel=5, pitch=256, time=16),
    Message('pitchwheel', channel=5, pitch=128, time=16),
    Message('pitchwheel', channel=5, pitch=0, time=16),
    Message('note_off', channel=5, note=42, velocity=80, time=112),
    Message('pitchwheel', channel=5, pitch=0, time=0),
    Message('note_on', channel=4, note=40, velocity=95, time=0),
    Message('note_off', channel=4, note=40, velocity=80, time=480),
    Message('note_on', channel=4, note=64, velocity=95, time=0),
    Message('note_on', channel=4, note=59, velocity=95, time=0),
    Message('note_on', channel=4, note=56, velocity=95, time=0),
    Message('note_on', channel=4, note=52, velocity=95, time=0),
    Message('note_off', channel=4, note=64, velocity=80, time=480),
    Message('note_off', channel=4, note=59, velocity=80, time=0),
    Message('note_off', channel=4, note=56, velocity=80, time=0),
    Message('note_off', channel=4, note=52, velocity=80, time=0),
    Message('note_on', channel=4, note=47, velocity=95, time=0),
    Message('note_off', channel=4, note=47, velocity=80, time=240),
    Message('note_on', channel=4, note=64, velocity=95, time=0),
    Message('note_on', channel=4, note=59, velocity=95, time=0),
    Message('note_on', channel=4, note=56, velocity=95, time=0),
    Message('note_on', channel=4, note=52, velocity=95, time=0),
    Message('note_off', channel=4, note=64, velocity=80, time=240),
    Message('note_off', channel=4, note=59, velocity=80, time=0),
    Message('note_off', channel=4, note=56, velocity=80, time=0),
    Message('note_off', channel=4, note=52, velocity=80, time=0),
    Message('note_on', channel=4, note=64, velocity=95, time=0),
    Message('note_on', channel=4, note=59, velocity=95, time=0),
    Message('note_on', channel=4, note=56, velocity=95, time=0),
    Message('note_on', channel=4, note=52, velocity=95, time=0),
    Message('note_off', channel=4, note=64, velocity=80, time=240),
    Message('note_off', channel=4, note=59, velocity=80, time=0),
    Message('note_off', channel=4, note=56, velocity=80, time=0),
    Message('note_off', channel=4, note=52, velocity=80, time=0),
    Message('note_on', channel=4, note=64, velocity=95, time=0),
    Message('note_on', channel=4, note=59, velocity=95, time=0),
    Message('note_on', channel=4, note=56, velocity=95, time=0),
    Message('note_on', channel=4, note=52, velocity=95, time=0),
    Message('note_off', channel=4, note=64, velocity=80, time=240),
    Message('note_off', channel=4, note=59, velocity=80, time=0),
    Message('note_off', channel=4, note=56, velocity=80, time=0),
    Message('note_off', channel=4, note=52, velocity=80, time=0),
    Message('note_on', channel=4, note=40, velocity=95, time=0),
    Message('note_off', channel=4, note=40, velocity=80, time=240),
    Message('note_on', channel=4, note=64, velocity=95, time=0),
    Message('note_on', channel=4, note=59, velocity=95, time=0),
    Message('note_on', channel=4, note=56, velocity=95, time=0),
    Message('note_on', channel=4, note=52, velocity=95, time=0),
    Message('note_off', channel=4, note=64, velocity=80, time=240),
    Message('note_off', channel=4, note=59, velocity=80, time=0),
    Message('note_off', channel=4, note=56, velocity=80, time=0),
    Message('note_off', channel=4, note=52, velocity=80, time=0),
    Message('note_on', channel=4, note=64, velocity=95, time=0),
    Message('note_on', channel=4, note=59, velocity=95, time=0),
    Message('note_on', channel=4, note=56, velocity=95, time=0),
    Message('note_on', channel=4, note=52, velocity=95, time=0),
    Message('note_off', channel=4, note=64, velocity=80, time=240),
    Message('note_off', channel=4, note=59, velocity=80, time=0),
    Message('note_off', channel=4, note=56, velocity=80, time=0),
    Message('note_off', channel=4, note=52, velocity=80, time=0),
    Message('note_on', channel=4, note=64, velocity=95, time=0),
    Message('note_on', channel=4, note=59, velocity=95, time=0),
    Message('note_on', channel=4, note=56, velocity=95, time=0),
    Message('note_on', channel=4, note=52, velocity=95, time=0),
    Message('note_off', channel=4, note=64, velocity=80, time=240),
    Message('note_off', channel=4, note=59, velocity=80, time=0),
    Message('note_off', channel=4, note=56, velocity=80, time=0),
    Message('note_off', channel=4, note=52, velocity=80, time=0),
    Message('note_on', channel=4, note=64, velocity=95, time=0),
    Message('note_on', channel=4, note=59, velocity=95, time=0),
    Message('note_on', channel=4, note=56, velocity=95, time=0),
    Message('note_on', channel=4, note=52, velocity=95, time=0),
    Message('note_off', channel=4, note=64, velocity=80, time=240),
    Message('note_off', channel=4, note=59, velocity=80, time=0),
    Message('note_off', channel=4, note=56, velocity=80, time=0),
    Message('note_off', channel=4, note=52, velocity=80, time=0),
    Message('note_on', channel=4, note=64, velocity=95, time=0),
    Message('note_on', channel=4, note=59, velocity=95, time=0),
    Message('note_on', channel=4, note=56, velocity=95, time=0),
    Message('note_on', channel=4, note=52, velocity=95, time=0),
    Message('note_off', channel=4, note=64, velocity=80, time=240),
    Message('note_off', channel=4, note=59, velocity=80, time=0),
    Message('note_off', channel=4, note=56, velocity=80, time=0),
    Message('note_off', channel=4, note=52, velocity=80, time=0),
    Message('note_on', channel=4, note=64, velocity=95, time=0),
    Message('note_on', channel=4, note=59, velocity=95, time=0),
    Message('note_on', channel=4, note=56, velocity=95, time=0),
    Message('note_on', channel=4, note=52, velocity=95, time=0),
    Message('note_off', channel=4, note=64, velocity=80, time=240),
    Message('note_off', channel=4, note=59, velocity=80, time=0),
    Message('note_off', channel=4, note=56, velocity=80, time=0),
    Message('note_off', channel=4, note=52, velocity=80, time=0),
    Message('note_on', channel=4, note=64, velocity=95, time=0),
    Message('note_on', channel=4, note=59, velocity=95, time=0),
    Message('note_on', channel=4, note=56, velocity=95, time=0),
    Message('note_on', channel=4, note=52, velocity=95, time=0),
    Message('note_off', channel=4, note=64, velocity=80, time=240),
    Message('note_off', channel=4, note=59, velocity=80, time=0),
    Message('note_off', channel=4, note=56, velocity=80, time=0),
    Message('note_off', channel=4, note=52, velocity=80, time=0),
    Message('note_on', channel=4, note=45, velocity=95, time=0),
    Message('note_off', channel=4, note=45, velocity=80, time=480),
    Message('note_on', channel=4, note=61, velocity=95, time=0),
    Message('note_on', channel=4, note=57, velocity=95, time=0),
    Message('note_on', channel=4, note=52, velocity=95, time=0),
    Message('note_off', channel=4, note=61, velocity=80, time=240),
    Message('note_off', channel=4, note=57, velocity=80, time=0),
    Message('note_off', channel=4, note=52, velocity=80, time=0),
    Message('note_on', channel=4, note=45, velocity=95, time=240),
    Message('note_off', channel=4, note=45, velocity=80, time=240),
    Message('note_on', channel=4, note=61, velocity=95, time=0),
    Message('note_on', channel=4, note=57, velocity=95, time=0),
    Message('note_off', channel=4, note=61, velocity=80, time=240),
    Message('note_off', channel=4, note=57, velocity=80, time=0),
    Message('note_on', channel=4, note=61, velocity=95, time=0),
    Message('note_on', channel=4, note=57, velocity=95, time=0),
    Message('note_on', channel=4, note=52, velocity=95, time=0),
    Message('note_off', channel=4, note=61, velocity=80, time=240),
    Message('note_off', channel=4, note=57, velocity=80, time=0),
    Message('note_off', channel=4, note=52, velocity=80, time=0),
    Message('note_on', channel=4, note=45, velocity=95, time=240),
    Message('note_off', channel=4, note=45, velocity=80, time=480),
    Message('note_on', channel=4, note=61, velocity=95, time=0),
    Message('note_on', channel=4, note=57, velocity=95, time=0),
    Message('note_on', channel=4, note=52, velocity=95, time=0),
    Message('note_off', channel=4, note=61, velocity=80, time=240),
    Message('note_off', channel=4, note=57, velocity=80, time=0),
    Message('note_off', channel=4, note=52, velocity=80, time=0),
    Message('note_on', channel=4, note=45, velocity=95, time=240),
    Message('note_off', channel=4, note=45, velocity=80, time=240),
    Message('note_on', channel=4, note=61, velocity=95, time=0),
    Message('note_on', channel=4, note=57, velocity=95, time=0),
    Message('note_on', channel=4, note=52, velocity=95, time=0),
    Message('note_off', channel=4, note=61, velocity=80, time=240),
    Message('note_off', channel=4, note=57, velocity=80, time=0),
    Message('note_off', channel=4, note=52, velocity=80, time=0),
    Message('note_on', channel=4, note=61, velocity=95, time=0),
    Message('note_on', channel=4, note=57, velocity=95, time=0),
    Message('note_on', channel=4, note=52, velocity=95, time=0),
    Message('note_off', channel=4, note=61, velocity=80, time=240),
    Message('note_off', channel=4, note=57, velocity=80, time=0),
    Message('note_off', channel=4, note=52, velocity=80, time=0),
    Message('note_on', channel=4, note=61, velocity=95, time=0),
    Message('note_on', channel=4, note=57, velocity=95, time=0),
    Message('note_on', channel=4, note=52, velocity=95, time=0),
    Message('note_off', channel=4, note=61, velocity=80, time=240),
    Message('note_off', channel=4, note=57, velocity=80, time=0),
    Message('note_off', channel=4, note=52, velocity=80, time=0),
    Message('note_on', channel=4, note=45, velocity=95, time=0),
    Message('note_off', channel=4, note=45, velocity=80, time=480),
    Message('note_on', channel=4, note=61, velocity=95, time=0),
    Message('note_on', channel=4, note=57, velocity=95, time=0),
    Message('note_on', channel=4, note=52, velocity=95, time=0),
    Message('note_off', channel=4, note=61, velocity=80, time=240),
    Message('note_off', channel=4, note=57, velocity=80, time=0),
    Message('note_off', channel=4, note=52, velocity=80, time=0),
    Message('note_on', channel=4, note=45, velocity=95, time=240),
    Message('note_off', channel=4, note=45, velocity=80, time=240),
    Message('note_on', channel=4, note=61, velocity=95, time=0),
    Message('note_on', channel=4, note=57, velocity=95, time=0),
    Message('note_off', channel=4, note=61, velocity=80, time=240),
    Message('note_off', channel=4, note=57, velocity=80, time=0),
    Message('note_on', channel=4, note=61, velocity=95, time=0),
    Message('note_on', channel=4, note=57, velocity=95, time=0),
    Message('note_on', channel=4, note=52, velocity=95, time=0),
    Message('note_off', channel=4, note=61, velocity=80, time=240),
    Message('note_off', channel=4, note=57, velocity=80, time=0),
    Message('note_off', channel=4, note=52, velocity=80, time=0),
    Message('note_on', channel=4, note=61, velocity=95, time=240),
    Message('note_on', channel=4, note=57, velocity=95, time=0),
    Message('note_on', channel=4, note=52, velocity=95, time=0),
    Message('note_on', channel=4, note=45, velocity=95, time=0),
    Message('note_off', channel=4, note=61, velocity=80, time=1920),
    Message('note_off', channel=4, note=57, velocity=80, time=0),
    Message('note_off', channel=4, note=52, velocity=80, time=0),
    Message('note_off', channel=4, note=45, velocity=80, time=0),
    Message('note_on', channel=4, note=47, velocity=95, time=0),
    Message('note_off', channel=4, note=47, velocity=80, time=480),
    Message('note_on', channel=4, note=62, velocity=95, time=0),
    Message('note_on', channel=4, note=59, velocity=95, time=0),
    Message('note_on', channel=4, note=54, velocity=95, time=0),
    Message('note_off', channel=4, note=62, velocity=80, time=240),
    Message('note_off', channel=4, note=59, velocity=80, time=0),
    Message('note_off', channel=4, note=54, velocity=80, time=0),
    Message('note_on', channel=4, note=47, velocity=95, time=240),
    Message('note_off', channel=4, note=47, velocity=80, time=480),
    Message('note_on', channel=4, note=62, velocity=95, time=0),
    Message('note_on', channel=4, note=59, velocity=95, time=0),
    Message('note_on', channel=4, note=54, velocity=95, time=0),
    Message('note_off', channel=4, note=62, velocity=80, time=240),
    Message('note_off', channel=4, note=59, velocity=80, time=0),
    Message('note_off', channel=4, note=54, velocity=80, time=0),
    Message('note_on', channel=4, note=40, velocity=95, time=240),
    Message('note_off', channel=4, note=40, velocity=80, time=480),
    Message('note_on', channel=4, note=68, velocity=95, time=0),
    Message('note_on', channel=4, note=64, velocity=95, time=0),
    Message('note_on', channel=4, note=59, velocity=95, time=0),
    Message('note_on', channel=4, note=52, velocity=95, time=0),
    Message('note_off', channel=4, note=68, velocity=80, time=240),
    Message('note_off', channel=4, note=64, velocity=80, time=0),
    Message('note_off', channel=4, note=59, velocity=80, time=0),
    Message('note_off', channel=4, note=52, velocity=80, time=0),
    Message('note_on', channel=4, note=40, velocity=95, time=240),
    Message('note_off', channel=4, note=40, velocity=80, time=480),
    Message('note_on', channel=4, note=68, velocity=95, time=0),
    Message('note_on', channel=4, note=64, velocity=95, time=0),
    Message('note_on', channel=4, note=59, velocity=95, time=0),
    Message('note_on', channel=4, note=52, velocity=95, time=0),
    Message('note_off', channel=4, note=68, velocity=80, time=240),
    Message('note_off', channel=4, note=64, velocity=80, time=0),
    Message('note_off', channel=4, note=59, velocity=80, time=0),
    Message('note_off', channel=4, note=52, velocity=80, time=0),
    Message('note_on', channel=4, note=45, velocity=95, time=240),
    Message('note_off', channel=4, note=45, velocity=80, time=480),
    Message('note_on', channel=4, note=61, velocity=95, time=0),
    Message('note_on', channel=4, note=57, velocity=95, time=0),
    Message('note_on', channel=4, note=52, velocity=95, time=0),
    Message('note_off', channel=4, note=61, velocity=80, time=240),
    Message('note_off', channel=4, note=57, velocity=80, time=0),
    Message('note_off', channel=4, note=52, velocity=80, time=0),
    Message('note_on', channel=4, note=45, velocity=95, time=240),
    Message('note_off', channel=4, note=45, velocity=80, time=240),
    Message('note_on', channel=4, note=61, velocity=95, time=0),
    Message('note_on', channel=4, note=57, velocity=95, time=0),
    Message('note_off', channel=4, note=61, velocity=80, time=240),
    Message('note_off', channel=4, note=57, velocity=80, time=0),
    Message('note_on', channel=4, note=61, velocity=95, time=0),
    Message('note_on', channel=4, note=57, velocity=95, time=0),
    Message('note_on', channel=4, note=52, velocity=95, time=0),
    Message('note_off', channel=4, note=61, velocity=80, time=240),
    Message('note_off', channel=4, note=57, velocity=80, time=0),
    Message('note_off', channel=4, note=52, velocity=80, time=0),
    Message('note_on', channel=4, note=45, velocity=95, time=240),
    Message('note_off', channel=4, note=45, velocity=80, time=480),
    Message('note_on', channel=4, note=61, velocity=95, time=0),
    Message('note_on', channel=4, note=57, velocity=95, time=0),
    Message('note_on', channel=4, note=52, velocity=95, time=0),
    Message('note_off', channel=4, note=61, velocity=80, time=240),
    Message('note_off', channel=4, note=57, velocity=80, time=0),
    Message('note_off', channel=4, note=52, velocity=80, time=0),
    Message('note_on', channel=4, note=45, velocity=95, time=240),
    Message('note_off', channel=4, note=45, velocity=80, time=240),
    Message('note_on', channel=4, note=61, velocity=95, time=0),
    Message('note_on', channel=4, note=57, velocity=95, time=0),
    Message('note_on', channel=4, note=52, velocity=95, time=0),
    Message('note_off', channel=4, note=61, velocity=80, time=240),
    Message('note_off', channel=4, note=57, velocity=80, time=0),
    Message('note_off', channel=4, note=52, velocity=80, time=0),
    Message('note_on', channel=4, note=61, velocity=95, time=0),
    Message('note_on', channel=4, note=57, velocity=95, time=0),
    Message('note_on', channel=4, note=52, velocity=95, time=0),
    Message('note_off', channel=4, note=61, velocity=80, time=240),
    Message('note_off', channel=4, note=57, velocity=80, time=0),
    Message('note_off', channel=4, note=52, velocity=80, time=0),
    Message('note_on', channel=4, note=61, velocity=95, time=0),
    Message('note_on', channel=4, note=57, velocity=95, time=0),
    Message('note_on', channel=4, note=52, velocity=95, time=0),
    Message('note_off', channel=4, note=61, velocity=80, time=240),
    Message('note_off', channel=4, note=57, velocity=80, time=0),
    Message('note_off', channel=4, note=52, velocity=80, time=0),
    Message('note_on', channel=4, note=45, velocity=95, time=0),
    Message('note_off', channel=4, note=45, velocity=80, time=480),
    Message('note_on', channel=4, note=61, velocity=95, time=0),
    Message('note_on', channel=4, note=57, velocity=95, time=0),
    Message('note_on', channel=4, note=52, velocity=95, time=0),
    Message('note_off', channel=4, note=61, velocity=80, time=240),
    Message('note_off', channel=4, note=57, velocity=80, time=0),
    Message('note_off', channel=4, note=52, velocity=80, time=0),
    Message('note_on', channel=4, note=45, velocity=95, time=240),
    Message('note_off', channel=4, note=45, velocity=80, time=240),
    Message('note_on', channel=4, note=61, velocity=95, time=0),
    Message('note_on', channel=4, note=57, velocity=95, time=0),
    Message('note_off', channel=4, note=61, velocity=80, time=240),
    Message('note_off', channel=4, note=57, velocity=80, time=0),
    Message('note_on', channel=4, note=61, velocity=95, time=0),
    Message('note_on', channel=4, note=57, velocity=95, time=0),
    Message('note_on', channel=4, note=52, velocity=95, time=0),
    Message('note_off', channel=4, note=61, velocity=80, time=240),
    Message('note_off', channel=4, note=57, velocity=80, time=0),
    Message('note_off', channel=4, note=52, velocity=80, time=0),
    Message('note_on', channel=4, note=45, velocity=95, time=240),
    Message('note_off', channel=4, note=45, velocity=80, time=480),
    Message('note_on', channel=4, note=61, velocity=95, time=0),
    Message('note_on', channel=4, note=57, velocity=95, time=0),
    Message('note_on', channel=4, note=52, velocity=95, time=0),
    Message('note_off', channel=4, note=61, velocity=80, time=240),
    Message('note_off', channel=4, note=57, velocity=80, time=0),
    Message('note_off', channel=4, note=52, velocity=80, time=0),
    Message('note_on', channel=4, note=45, velocity=95, time=240),
    Message('note_off', channel=4, note=45, velocity=80, time=240),
    Message('note_on', channel=4, note=61, velocity=95, time=0),
    Message('note_on', channel=4, note=57, velocity=95, time=0),
    Message('note_on', channel=4, note=52, velocity=95, time=0),
    Message('note_off', channel=4, note=61, velocity=80, time=240),
    Message('note_off', channel=4, note=57, velocity=80, time=0),
    Message('note_off', channel=4, note=52, velocity=80, time=0),
    Message('note_on', channel=4, note=61, velocity=95, time=0),
    Message('note_on', channel=4, note=57, velocity=95, time=0),
    Message('note_on', channel=4, note=52, velocity=95, time=0),
    Message('note_off', channel=4, note=61, velocity=80, time=240),
    Message('note_off', channel=4, note=57, velocity=80, time=0),
    Message('note_off', channel=4, note=52, velocity=80, time=0),
    Message('note_on', channel=4, note=61, velocity=95, time=0),
    Message('note_on', channel=4, note=57, velocity=95, time=0),
    Message('note_on', channel=4, note=52, velocity=95, time=0),
    Message('note_off', channel=4, note=61, velocity=80, time=240),
    Message('note_off', channel=4, note=57, velocity=80, time=0),
    Message('note_off', channel=4, note=52, velocity=80, time=0),
    Message('note_on', channel=4, note=45, velocity=95, time=0),
    Message('note_off', channel=4, note=45, velocity=80, time=480),
    Message('note_on', channel=4, note=61, velocity=95, time=0),
    Message('note_on', channel=4, note=57, velocity=95, time=0),
    Message('note_on', channel=4, note=52, velocity=95, time=0),
    Message('note_off', channel=4, note=61, velocity=80, time=240),
    Message('note_off', channel=4, note=57, velocity=80, time=0),
    Message('note_off', channel=4, note=52, velocity=80, time=0),
    Message('note_on', channel=4, note=45, velocity=95, time=240),
    Message('note_off', channel=4, note=45, velocity=80, time=240),
    Message('note_on', channel=4, note=61, velocity=95, time=0),
    Message('note_on', channel=4, note=57, velocity=95, time=0),
    Message('note_off', channel=4, note=61, velocity=80, time=240),
    Message('note_off', channel=4, note=57, velocity=80, time=0),
    Message('note_on', channel=4, note=61, velocity=95, time=0),
    Message('note_on', channel=4, note=57, velocity=95, time=0),
    Message('note_on', channel=4, note=52, velocity=95, time=0),
    Message('note_off', channel=4, note=61, velocity=80, time=240),
    Message('note_off', channel=4, note=57, velocity=80, time=0),
    Message('note_off', channel=4, note=52, velocity=80, time=0),
    Message('note_on', channel=4, note=61, velocity=95, time=240),
    Message('note_on', channel=4, note=57, velocity=95, time=0),
    Message('note_on', channel=4, note=52, velocity=95, time=0),
    Message('note_on', channel=4, note=45, velocity=95, time=0),
    Message('note_off', channel=4, note=61, velocity=80, time=1920),
    Message('note_off', channel=4, note=57, velocity=80, time=0),
    Message('note_off', channel=4, note=52, velocity=80, time=0),
    Message('note_off', channel=4, note=45, velocity=80, time=0),
    Message('note_on', channel=4, note=47, velocity=95, time=0),
    Message('control_change', channel=4, control=7, value=95, time=0),
    Message('control_change', channel=5, control=7, value=95, time=0),
    Message('control_change', channel=4, control=7, value=93, time=120),
    Message('control_change', channel=5, control=7, value=93, time=0),
    Message('control_change', channel=4, control=7, value=92, time=120),
    Message('control_change', channel=5, control=7, value=92, time=0),
    Message('control_change', channel=4, control=7, value=91, time=120),
    Message('control_change', channel=5, control=7, value=91, time=0),
    Message('note_off', channel=4, note=47, velocity=80, time=120),
    Message('note_on', channel=4, note=62, velocity=95, time=0),
    Message('note_on', channel=4, note=59, velocity=95, time=0),
    Message('note_on', channel=4, note=54, velocity=95, time=0),
    Message('control_change', channel=4, control=7, value=89, time=0),
    Message('control_change', channel=5, control=7, value=89, time=0),
    Message('control_change', channel=4, control=7, value=88, time=120),
    Message('control_change', channel=5, control=7, value=88, time=0),
    Message('note_off', channel=4, note=62, velocity=80, time=120),
    Message('note_off', channel=4, note=59, velocity=80, time=0),
    Message('note_off', channel=4, note=54, velocity=80, time=0),
    Message('control_change', channel=4, control=7, value=87, time=0),
    Message('control_change', channel=5, control=7, value=87, time=0),
    Message('control_change', channel=4, control=7, value=85, time=120),
    Message('control_change', channel=5, control=7, value=85, time=0),
    Message('note_on', channel=4, note=47, velocity=95, time=120),
    Message('control_change', channel=4, control=7, value=84, time=0),
    Message('control_change', channel=5, control=7, value=84, time=0),
    Message('control_change', channel=4, control=7, value=82, time=120),
    Message('control_change', channel=5, control=7, value=82, time=0),
    Message('control_change', channel=4, control=7, value=81, time=120),
    Message('control_change', channel=5, control=7, value=81, time=0),
    Message('control_change', channel=4, control=7, value=80, time=120),
    Message('control_change', channel=5, control=7, value=80, time=0),
    Message('note_off', channel=4, note=47, velocity=80, time=120),
    Message('note_on', channel=4, note=62, velocity=95, time=0),
    Message('note_on', channel=4, note=59, velocity=95, time=0),
    Message('note_on', channel=4, note=54, velocity=95, time=0),
    Message('control_change', channel=4, control=7, value=78, time=0),
    Message('control_change', channel=5, control=7, value=78, time=0),
    Message('control_change', channel=4, control=7, value=77, time=120),
    Message('control_change', channel=5, control=7, value=77, time=0),
    Message('note_off', channel=4, note=62, velocity=80, time=120),
    Message('note_off', channel=4, note=59, velocity=80, time=0),
    Message('note_off', channel=4, note=54, velocity=80, time=0),
    Message('control_change', channel=4, control=7, value=76, time=0),
    Message('control_change', channel=5, control=7, value=76, time=0),
    Message('control_change', channel=4, control=7, value=74, time=120),
    Message('control_change', channel=5, control=7, value=74, time=0),
    Message('control_change', channel=4, control=7, value=73, time=120),
    Message('control_change', channel=5, control=7, value=73, time=0),
    Message('note_on', channel=4, note=40, velocity=95, time=0),
    Message('control_change', channel=4, control=7, value=72, time=120),
    Message('control_change', channel=5, control=7, value=72, time=0),
    Message('control_change', channel=4, control=7, value=70, time=120),
    Message('control_change', channel=5, control=7, value=70, time=0),
    Message('control_change', channel=4, control=7, value=69, time=120),
    Message('control_change', channel=5, control=7, value=69, time=0),
    Message('control_change', channel=4, control=7, value=68, time=120),
    Message('control_change', channel=5, control=7, value=68, time=0),
    Message('note_off', channel=4, note=40, velocity=80, time=0),
    Message('note_on', channel=4, note=68, velocity=95, time=0),
    Message('note_on', channel=4, note=64, velocity=95, time=0),
    Message('note_on', channel=4, note=59, velocity=95, time=0),
    Message('note_on', channel=4, note=52, velocity=95, time=0),
    Message('control_change', channel=4, control=7, value=66, time=120),
    Message('control_change', channel=5, control=7, value=66, time=0),
    Message('control_change', channel=4, control=7, value=65, time=120),
    Message('control_change', channel=5, control=7, value=65, time=0),
    Message('note_off', channel=4, note=68, velocity=80, time=0),
    Message('note_off', channel=4, note=64, velocity=80, time=0),
    Message('note_off', channel=4, note=59, velocity=80, time=0),
    Message('note_off', channel=4, note=52, velocity=80, time=0),
    Message('control_change', channel=4, control=7, value=64, time=120),
    Message('control_change', channel=5, control=7, value=64, time=0),
    Message('control_change', channel=4, control=7, value=62, time=120),
    Message('control_change', channel=5, control=7, value=62, time=0),
    Message('note_on', channel=4, note=40, velocity=95, time=0),
    Message('control_change', channel=4, control=7, value=61, time=120),
    Message('control_change', channel=5, control=7, value=61, time=0),
    Message('control_change', channel=4, control=7, value=59, time=120),
    Message('control_change', channel=5, control=7, value=59, time=0),
    Message('control_change', channel=4, control=7, value=58, time=120),
    Message('control_change', channel=5, control=7, value=58, time=0),
    Message('control_change', channel=4, control=7, value=57, time=120),
    Message('control_change', channel=5, control=7, value=57, time=0),
    Message('note_off', channel=4, note=40, velocity=80, time=0),
    Message('note_on', channel=4, note=68, velocity=95, time=0),
    Message('note_on', channel=4, note=64, velocity=95, time=0),
    Message('note_on', channel=4, note=59, velocity=95, time=0),
    Message('note_on', channel=4, note=52, velocity=95, time=0),
    Message('control_change', channel=4, control=7, value=55, time=120),
    Message('control_change', channel=5, control=7, value=55, time=0),
    Message('control_change', channel=4, control=7, value=54, time=120),
    Message('control_change', channel=5, control=7, value=54, time=0),
    Message('note_off', channel=4, note=68, velocity=80, time=0),
    Message('note_off', channel=4, note=64, velocity=80, time=0),
    Message('note_off', channel=4, note=59, velocity=80, time=0),
    Message('note_off', channel=4, note=52, velocity=80, time=0),
    Message('control_change', channel=4, control=7, value=53, time=120),
    Message('control_change', channel=5, control=7, value=53, time=0),
    Message('control_change', channel=4, control=7, value=51, time=120),
    Message('control_change', channel=5, control=7, value=51, time=0),
    Message('note_on', channel=4, note=45, velocity=95, time=0),
    Message('control_change', channel=4, control=7, value=50, time=120),
    Message('control_change', channel=5, control=7, value=50, time=0),
    Message('control_change', channel=4, control=7, value=49, time=120),
    Message('control_change', channel=5, control=7, value=49, time=0),
    Message('control_change', channel=4, control=7, value=47, time=120),
    Message('control_change', channel=5, control=7, value=47, time=0),
    Message('control_change', channel=4, control=7, value=46, time=120),
    Message('control_change', channel=5, control=7, value=46, time=0),
    Message('note_off', channel=4, note=45, velocity=80, time=0),
    Message('note_on', channel=4, note=61, velocity=95, time=0),
    Message('note_on', channel=4, note=57, velocity=95, time=0),
    Message('note_on', channel=4, note=52, velocity=95, time=0),
    Message('control_change', channel=4, control=7, value=45, time=120),
    Message('control_change', channel=5, control=7, value=45, time=0),
    Message('control_change', channel=4, control=7, value=43, time=120),
    Message('control_change', channel=5, control=7, value=43, time=0),
    Message('note_off', channel=4, note=61, velocity=80, time=0),
    Message('note_off', channel=4, note=57, velocity=80, time=0),
    Message('note_off', channel=4, note=52, velocity=80, time=0),
    Message('control_change', channel=4, control=7, value=42, time=120),
    Message('control_change', channel=5, control=7, value=42, time=0),
    Message('control_change', channel=4, control=7, value=40, time=120),
    Message('control_change', channel=5, control=7, value=40, time=0),
    Message('note_on', channel=4, note=45, velocity=95, time=0),
    Message('control_change', channel=4, control=7, value=39, time=120),
    Message('control_change', channel=5, control=7, value=39, time=0),
    Message('control_change', channel=4, control=7, value=38, time=120),
    Message('control_change', channel=5, control=7, value=38, time=0),
    Message('note_off', channel=4, note=45, velocity=80, time=0),
    Message('note_on', channel=4, note=61, velocity=95, time=0),
    Message('note_on', channel=4, note=57, velocity=95, time=0),
    Message('control_change', channel=4, control=7, value=36, time=120),
    Message('control_change', channel=5, control=7, value=36, time=0),
    Message('control_change', channel=4, control=7, value=35, time=120),
    Message('control_change', channel=5, control=7, value=35, time=0),
    Message('note_off', channel=4, note=61, velocity=80, time=0),
    Message('note_off', channel=4, note=57, velocity=80, time=0),
    Message('note_on', channel=4, note=61, velocity=95, time=0),
    Message('note_on', channel=4, note=57, velocity=95, time=0),
    Message('note_on', channel=4, note=52, velocity=95, time=0),
    Message('control_change', channel=4, control=7, value=34, time=120),
    Message('control_change', channel=5, control=7, value=34, time=0),
    Message('control_change', channel=4, control=7, value=32, time=120),
    Message('control_change', channel=5, control=7, value=32, time=0),
    Message('note_off', channel=4, note=61, velocity=80, time=0),
    Message('note_off', channel=4, note=57, velocity=80, time=0),
    Message('note_off', channel=4, note=52, velocity=80, time=0),
    Message('control_change', channel=4, control=7, value=31, time=120),
    Message('control_change', channel=5, control=7, value=31, time=0),
    Message('control_change', channel=4, control=7, value=30, time=120),
    Message('control_change', channel=5, control=7, value=30, time=0),
    Message('note_on', channel=4, note=45, velocity=95, time=0),
    Message('control_change', channel=4, control=7, value=28, time=120),
    Message('control_change', channel=5, control=7, value=28, time=0),
    Message('control_change', channel=4, control=7, value=27, time=120),
    Message('control_change', channel=5, control=7, value=27, time=0),
    Message('control_change', channel=4, control=7, value=26, time=120),
    Message('control_change', channel=5, control=7, value=26, time=0),
    Message('control_change', channel=4, control=7, value=24, time=120),
    Message('control_change', channel=5, control=7, value=24, time=0),
    Message('note_off', channel=4, note=45, velocity=80, time=0),
    Message('note_on', channel=4, note=61, velocity=95, time=0),
    Message('note_on', channel=4, note=57, velocity=95, time=0),
    Message('note_on', channel=4, note=52, velocity=95, time=0),
    Message('control_change', channel=4, control=7, value=23, time=120),
    Message('control_change', channel=5, control=7, value=23, time=0),
    Message('control_change', channel=4, control=7, value=22, time=120),
    Message('control_change', channel=5, control=7, value=22, time=0),
    Message('note_off', channel=4, note=61, velocity=80, time=0),
    Message('note_off', channel=4, note=57, velocity=80, time=0),
    Message('note_off', channel=4, note=52, velocity=80, time=0),
    Message('control_change', channel=4, control=7, value=20, time=120),
    Message('control_change', channel=5, control=7, value=20, time=0),
    Message('control_change', channel=4, control=7, value=19, time=120),
    Message('control_change', channel=5, control=7, value=19, time=0),
    Message('note_on', channel=4, note=45, velocity=95, time=0),
    Message('control_change', channel=4, control=7, value=17, time=120),
    Message('control_change', channel=5, control=7, value=17, time=0),
    Message('control_change', channel=4, control=7, value=16, time=120),
    Message('control_change', channel=5, control=7, value=16, time=0),
    Message('note_off', channel=4, note=45, velocity=80, time=0),
    Message('note_on', channel=4, note=61, velocity=95, time=0),
    Message('note_on', channel=4, note=57, velocity=95, time=0),
    Message('note_on', channel=4, note=52, velocity=95, time=0),
    Message('control_change', channel=4, control=7, value=15, time=120),
    Message('control_change', channel=5, control=7, value=15, time=0),
    Message('control_change', channel=4, control=7, value=13, time=120),
    Message('control_change', channel=5, control=7, value=13, time=0),
    Message('note_off', channel=4, note=61, velocity=80, time=0),
    Message('note_off', channel=4, note=57, velocity=80, time=0),
    Message('note_off', channel=4, note=52, velocity=80, time=0),
    Message('note_on', channel=4, note=61, velocity=95, time=0),
    Message('note_on', channel=4, note=57, velocity=95, time=0),
    Message('note_on', channel=4, note=52, velocity=95, time=0),
    Message('control_change', channel=4, control=7, value=12, time=120),
    Message('control_change', channel=5, control=7, value=12, time=0),
    Message('control_change', channel=4, control=7, value=11, time=120),
    Message('control_change', channel=5, control=7, value=11, time=0),
    Message('note_off', channel=4, note=61, velocity=80, time=0),
    Message('note_off', channel=4, note=57, velocity=80, time=0),
    Message('note_off', channel=4, note=52, velocity=80, time=0),
    Message('note_on', channel=4, note=61, velocity=95, time=0),
    Message('note_on', channel=4, note=57, velocity=95, time=0),
    Message('note_on', channel=4, note=52, velocity=95, time=0),
    Message('control_change', channel=4, control=7, value=9, time=120),
    Message('control_change', channel=5, control=7, value=9, time=0),
    Message('control_change', channel=4, control=7, value=8, time=120),
    Message('control_change', channel=5, control=7, value=8, time=0),
    Message('note_off', channel=4, note=61, velocity=80, time=0),
    Message('note_off', channel=4, note=57, velocity=80, time=0),
    Message('note_off', channel=4, note=52, velocity=80, time=0),
    MetaMessage('end_of_track', time=0)]),
  MidiTrack([
    MetaMessage('track_name', name='Vocals', time=0),
    Message('control_change', channel=6, control=100, value=0, time=0),
    Message('control_change', channel=6, control=101, value=0, time=0),
    Message('control_change', channel=6, control=6, value=12, time=0),
    Message('pitchwheel', channel=6, pitch=0, time=0),
    Message('control_change', channel=7, control=100, value=0, time=0),
    Message('control_change', channel=7, control=101, value=0, time=0),
    Message('control_change', channel=7, control=6, value=12, time=0),
    Message('pitchwheel', channel=7, pitch=0, time=0),
    Message('program_change', channel=6, program=71, time=0),
    Message('program_change', channel=7, program=71, time=0),
    Message('control_change', channel=6, control=7, value=127, time=0),
    Message('control_change', channel=7, control=7, value=127, time=0),
    Message('control_change', channel=6, control=10, value=64, time=0),
    Message('control_change', channel=7, control=10, value=64, time=0),
    Message('control_change', channel=6, control=93, value=0, time=0),
    Message('control_change', channel=7, control=93, value=0, time=0),
    Message('control_change', channel=6, control=91, value=0, time=0),
    Message('control_change', channel=7, control=91, value=0, time=0),
    Message('control_change', channel=6, control=92, value=0, time=0),
    Message('control_change', channel=7, control=92, value=0, time=0),
    Message('control_change', channel=6, control=95, value=0, time=0),
    Message('control_change', channel=7, control=95, value=0, time=0),
    Message('note_on', channel=6, note=71, velocity=95, time=9360),
    Message('note_off', channel=6, note=71, velocity=80, time=120),
    Message('note_on', channel=6, note=71, velocity=95, time=0),
    Message('note_off', channel=6, note=71, velocity=80, time=120),
    Message('note_on', channel=6, note=73, velocity=95, time=0),
    Message('note_off', channel=6, note=73, velocity=80, time=240),
    Message('note_on', channel=6, note=73, velocity=95, time=0),
    Message('note_off', channel=6, note=73, velocity=80, time=240),
    Message('note_on', channel=6, note=73, velocity=95, time=0),
    Message('note_off', channel=6, note=73, velocity=80, time=240),
    Message('note_on', channel=6, note=73, velocity=95, time=0),
    Message('note_off', channel=6, note=73, velocity=80, time=120),
    Message('note_on', channel=6, note=71, velocity=86, time=0),
    Message('note_off', channel=6, note=71, velocity=80, time=120),
    Message('note_on', channel=6, note=69, velocity=86, time=0),
    Message('note_off', channel=6, note=69, velocity=80, time=480),
    Message('note_on', channel=6, note=73, velocity=95, time=240),
    Message('note_off', channel=6, note=73, velocity=80, time=240),
    Message('note_on', channel=6, note=73, velocity=95, time=0),
    Message('note_off', channel=6, note=73, velocity=80, time=240),
    Message('note_on', channel=6, note=74, velocity=95, time=0),
    Message('note_off', channel=6, note=74, velocity=80, time=240),
    Message('note_on', channel=6, note=73, velocity=95, time=0),
    Message('note_off', channel=6, note=73, velocity=80, time=240),
    Message('note_on', channel=6, note=76, velocity=95, time=0),
    Message('note_off', channel=6, note=76, velocity=80, time=240),
    Message('note_on', channel=6, note=73, velocity=95, time=0),
    Message('note_off', channel=6, note=73, velocity=80, time=480),
    Message('note_on', channel=6, note=59, velocity=95, time=240),
    Message('note_off', channel=6, note=59, velocity=80, time=240),
    Message('note_on', channel=6, note=71, velocity=95, time=0),
    Message('note_off', channel=6, note=71, velocity=80, time=240),
    Message('note_on', channel=6, note=71, velocity=95, time=0),
    Message('note_off', channel=6, note=71, velocity=80, time=240),
    Message('note_on', channel=6, note=71, velocity=95, time=0),
    Message('note_off', channel=6, note=71, velocity=80, time=240),
    Message('note_on', channel=6, note=71, velocity=95, time=0),
    Message('note_off', channel=6, note=71, velocity=80, time=480),
    Message('note_on', channel=6, note=73, velocity=95, time=0),
    Message('note_off', channel=6, note=73, velocity=80, time=240),
    Message('note_on', channel=6, note=74, velocity=95, time=0),
    Message('note_off', channel=6, note=74, velocity=80, time=240),
    Message('note_on', channel=6, note=66, velocity=95, time=0),
    Message('note_off', channel=6, note=66, velocity=80, time=240),
    Message('note_on', channel=6, note=64, velocity=86, time=0),
    Message('note_off', channel=6, note=64, velocity=80, time=480),
    Message('note_on', channel=6, note=59, velocity=95, time=1200),
    Message('note_off', channel=6, note=59, velocity=80, time=240),
    Message('note_on', channel=6, note=69, velocity=95, time=0),
    Message('note_off', channel=6, note=69, velocity=80, time=240),
    Message('note_on', channel=6, note=71, velocity=95, time=0),
    Message('note_off', channel=6, note=71, velocity=80, time=240),
    Message('note_on', channel=6, note=71, velocity=95, time=0),
    Message('note_off', channel=6, note=71, velocity=80, time=240),
    Message('note_on', channel=6, note=71, velocity=95, time=0),
    Message('note_off', channel=6, note=71, velocity=80, time=240),
    Message('note_on', channel=6, note=73, velocity=86, time=0),
    Message('note_off', channel=6, note=73, velocity=80, time=480),
    Message('note_on', channel=6, note=59, velocity=95, time=240),
    Message('note_off', channel=6, note=59, velocity=80, time=240),
    Message('note_on', channel=6, note=69, velocity=95, time=0),
    Message('note_off', channel=6, note=69, velocity=80, time=240),
    Message('note_on', channel=6, note=71, velocity=95, time=0),
    Message('note_off', channel=6, note=71, velocity=80, time=240),
    Message('note_on', channel=6, note=71, velocity=95, time=0),
    Message('note_off', channel=6, note=71, velocity=80, time=240),
    Message('note_on', channel=6, note=74, velocity=95, time=0),
    Message('note_off', channel=6, note=74, velocity=80, time=480),
    Message('note_on', channel=6, note=74, velocity=95, time=0),
    Message('note_off', channel=6, note=74, velocity=80, time=240),
    Message('note_on', channel=6, note=74, velocity=95, time=0),
    Message('note_off', channel=6, note=74, velocity=80, time=240),
    Message('note_on', channel=6, note=74, velocity=95, time=0),
    Message('note_off', channel=6, note=74, velocity=80, time=120),
    Message('note_on', channel=6, note=74, velocity=95, time=0),
    Message('note_off', channel=6, note=74, velocity=80, time=360),
    Message('note_on', channel=6, note=73, velocity=95, time=0),
    Message('note_off', channel=6, note=73, velocity=80, time=480),
    Message('note_on', channel=6, note=73, velocity=95, time=0),
    Message('note_off', channel=6, note=73, velocity=80, time=240),
    Message('note_on', channel=6, note=73, velocity=95, time=0),
    Message('note_off', channel=6, note=73, velocity=80, time=360),
    Message('note_on', channel=6, note=74, velocity=95, time=0),
    Message('note_off', channel=6, note=74, velocity=80, time=240),
    Message('note_on', channel=6, note=73, velocity=95, time=0),
    Message('note_off', channel=6, note=73, velocity=80, time=360),
    Message('note_on', channel=6, note=73, velocity=95, time=0),
    Message('note_off', channel=6, note=73, velocity=80, time=120),
    Message('note_on', channel=6, note=71, velocity=86, time=0),
    Message('note_off', channel=6, note=71, velocity=80, time=120),
    Message('note_on', channel=6, note=69, velocity=86, time=0),
    Message('note_off', channel=6, note=69, velocity=80, time=480),
    Message('note_on', channel=6, note=69, velocity=95, time=720),
    Message('note_off', channel=6, note=69, velocity=80, time=240),
    Message('note_on', channel=6, note=71, velocity=95, time=0),
    Message('note_off', channel=6, note=71, velocity=80, time=240),
    Message('note_on', channel=6, note=73, velocity=95, time=0),
    Message('note_off', channel=6, note=73, velocity=80, time=240),
    Message('note_on', channel=6, note=73, velocity=95, time=0),
    Message('note_off', channel=6, note=73, velocity=80, time=240),
    Message('note_on', channel=6, note=73, velocity=95, time=0),
    Message('note_off', channel=6, note=73, velocity=80, time=240),
    Message('note_on', channel=6, note=73, velocity=95, time=0),
    Message('note_off', channel=6, note=73, velocity=80, time=120),
    Message('note_on', channel=6, note=71, velocity=86, time=0),
    Message('note_off', channel=6, note=71, velocity=80, time=120),
    Message('note_on', channel=6, note=69, velocity=86, time=0),
    Message('note_off', channel=6, note=69, velocity=80, time=240),
    Message('note_on', channel=6, note=64, velocity=95, time=360),
    Message('note_off', channel=6, note=64, velocity=80, time=120),
    Message('note_on', channel=6, note=64, velocity=95, time=0),
    Message('note_off', channel=6, note=64, velocity=80, time=240),
    Message('note_on', channel=6, note=73, velocity=95, time=0),
    Message('note_off', channel=6, note=73, velocity=80, time=240),
    Message('note_on', channel=6, note=74, velocity=95, time=0),
    Message('note_off', channel=6, note=74, velocity=80, time=240),
    Message('note_on', channel=6, note=73, velocity=95, time=0),
    Message('note_off', channel=6, note=73, velocity=80, time=240),
    Message('note_on', channel=6, note=76, velocity=95, time=0),
    Message('note_off', channel=6, note=76, velocity=80, time=240),
    Message('note_on', channel=6, note=73, velocity=95, time=0),
    Message('note_off', channel=6, note=73, velocity=80, time=480),
    Message('note_on', channel=6, note=64, velocity=95, time=240),
    Message('note_off', channel=6, note=64, velocity=80, time=240),
    Message('note_on', channel=6, note=71, velocity=95, time=0),
    Message('note_off', channel=6, note=71, velocity=80, time=240),
    Message('note_on', channel=6, note=71, velocity=95, time=0),
    Message('note_off', channel=6, note=71, velocity=80, time=240),
    Message('note_on', channel=6, note=71, velocity=95, time=0),
    Message('note_off', channel=6, note=71, velocity=80, time=240),
    Message('note_on', channel=6, note=71, velocity=95, time=0),
    Message('note_off', channel=6, note=71, velocity=80, time=480),
    Message('note_on', channel=6, note=73, velocity=95, time=0),
    Message('note_off', channel=6, note=73, velocity=80, time=240),
    Message('note_on', channel=6, note=71, velocity=95, time=0),
    Message('note_off', channel=6, note=71, velocity=80, time=240),
    Message('note_on', channel=6, note=74, velocity=95, time=0),
    Message('note_off', channel=6, note=74, velocity=80, time=120),
    Message('note_on', channel=6, note=73, velocity=86, time=0),
    Message('note_off', channel=6, note=73, velocity=80, time=120),
    Message('note_on', channel=6, note=71, velocity=86, time=0),
    Message('note_off', channel=6, note=71, velocity=80, time=480),
    Message('note_on', channel=6, note=64, velocity=95, time=1200),
    Message('note_off', channel=6, note=64, velocity=80, time=240),
    Message('note_on', channel=6, note=64, velocity=95, time=0),
    Message('note_off', channel=6, note=64, velocity=80, time=240),
    Message('note_on', channel=6, note=64, velocity=95, time=0),
    Message('note_off', channel=6, note=64, velocity=80, time=240),
    Message('note_on', channel=6, note=64, velocity=95, time=0),
    Message('note_off', channel=6, note=64, velocity=80, time=240),
    Message('note_on', channel=6, note=68, velocity=95, time=0),
    Message('note_off', channel=6, note=68, velocity=80, time=480),
    Message('note_on', channel=6, note=68, velocity=95, time=0),
    Message('note_off', channel=6, note=68, velocity=80, time=240),
    Message('note_on', channel=6, note=68, velocity=95, time=0),
    Message('note_off', channel=6, note=68, velocity=80, time=240),
    Message('note_on', channel=6, note=68, velocity=95, time=0),
    Message('note_off', channel=6, note=68, velocity=80, time=240),
    Message('note_on', channel=6, note=71, velocity=95, time=0),
    Message('note_off', channel=6, note=71, velocity=80, time=240),
    Message('note_on', channel=6, note=71, velocity=95, time=0),
    Message('note_off', channel=6, note=71, velocity=80, time=240),
    Message('note_on', channel=6, note=71, velocity=95, time=0),
    Message('note_off', channel=6, note=71, velocity=80, time=240),
    Message('note_on', channel=6, note=74, velocity=95, time=0),
    Message('note_off', channel=6, note=74, velocity=80, time=720),
    Message('note_on', channel=6, note=64, velocity=95, time=240),
    Message('note_off', channel=6, note=64, velocity=80, time=240),
    Message('note_on', channel=6, note=71, velocity=95, time=0),
    Message('note_off', channel=6, note=71, velocity=80, time=240),
    Message('note_on', channel=6, note=71, velocity=95, time=0),
    Message('note_off', channel=6, note=71, velocity=80, time=240),
    Message('note_on', channel=6, note=71, velocity=95, time=0),
    Message('note_off', channel=6, note=71, velocity=80, time=240),
    Message('note_on', channel=6, note=71, velocity=95, time=0),
    Message('note_off', channel=6, note=71, velocity=80, time=480),
    Message('note_on', channel=6, note=73, velocity=95, time=0),
    Message('note_off', channel=6, note=73, velocity=80, time=240),
    Message('note_on', channel=6, note=71, velocity=95, time=0),
    Message('note_off', channel=6, note=71, velocity=80, time=240),
    Message('note_on', channel=6, note=76, velocity=95, time=0),
    Message('note_off', channel=6, note=76, velocity=80, time=1680),
    Message('note_on', channel=6, note=72, velocity=95, time=240),
    Message('note_off', channel=6, note=72, velocity=80, time=240),
    Message('note_on', channel=6, note=73, velocity=95, time=0),
    Message('note_off', channel=6, note=73, velocity=80, time=240),
    Message('note_on', channel=6, note=71, velocity=95, time=0),
    Message('note_off', channel=6, note=71, velocity=80, time=480),
    Message('note_on', channel=6, note=69, velocity=95, time=0),
    Message('note_off', channel=6, note=69, velocity=80, time=720),
    Message('note_on', channel=6, note=66, velocity=95, time=0),
    Message('note_off', channel=6, note=66, velocity=80, time=480),
    Message('note_on', channel=6, note=57, velocity=95, time=0),
    Message('note_off', channel=6, note=57, velocity=80, time=720),
    Message('note_on', channel=6, note=66, velocity=95, time=0),
    Message('note_off', channel=6, note=66, velocity=80, time=480),
    Message('note_on', channel=6, note=64, velocity=95, time=0),
    Message('note_off', channel=6, note=64, velocity=80, time=240),
    Message('note_on', channel=6, note=66, velocity=95, time=0),
    Message('note_off', channel=6, note=66, velocity=80, time=240),
    Message('note_on', channel=6, note=69, velocity=95, time=0),
    Message('note_off', channel=6, note=69, velocity=80, time=240),
    Message('note_on', channel=6, note=73, velocity=95, time=0),
    Message('note_off', channel=6, note=73, velocity=80, time=240),
    Message('note_on', channel=6, note=73, velocity=95, time=0),
    Message('note_off', channel=6, note=73, velocity=80, time=240),
    Message('note_on', channel=6, note=71, velocity=95, time=0),
    Message('note_off', channel=6, note=71, velocity=80, time=240),
    Message('note_on', channel=6, note=69, velocity=95, time=0),
    Message('note_off', channel=6, note=69, velocity=80, time=720),
    Message('note_on', channel=6, note=66, velocity=95, time=0),
    Message('note_off', channel=6, note=66, velocity=80, time=240),
    Message('note_on', channel=6, note=64, velocity=95, time=0),
    Message('note_off', channel=6, note=64, velocity=80, time=240),
    Message('note_on', channel=6, note=64, velocity=95, time=0),
    Message('note_off', channel=6, note=64, velocity=80, time=240),
    Message('note_on', channel=6, note=57, velocity=95, time=0),
    Message('note_off', channel=6, note=57, velocity=80, time=480),
    Message('note_on', channel=6, note=66, velocity=95, time=0),
    Message('note_off', channel=6, note=66, velocity=80, time=480),
    Message('note_on', channel=6, note=64, velocity=95, time=0),
    Message('note_off', channel=6, note=64, velocity=80, time=240),
    Message('note_on', channel=6, note=61, velocity=95, time=0),
    Message('note_off', channel=6, note=61, velocity=80, time=240),
    Message('note_on', channel=6, note=61, velocity=95, time=0),
    Message('note_off', channel=6, note=61, velocity=80, time=720),
    Message('note_on', channel=6, note=59, velocity=95, time=0),
    Message('note_off', channel=6, note=59, velocity=80, time=240),
    Message('note_on', channel=6, note=66, velocity=95, time=0),
    Message('note_off', channel=6, note=66, velocity=80, time=720),
    Message('note_on', channel=6, note=59, velocity=95, time=1680),
    Message('note_off', channel=6, note=59, velocity=80, time=240),
    Message('note_on', channel=6, note=64, velocity=95, time=0),
    Message('note_off', channel=6, note=64, velocity=80, time=480),
    Message('note_on', channel=6, note=52, velocity=95, time=0),
    Message('note_off', channel=6, note=52, velocity=80, time=240),
    Message('note_on', channel=6, note=52, velocity=95, time=0),
    Message('note_off', channel=6, note=52, velocity=80, time=480),
    Message('note_on', channel=6, note=66, velocity=95, time=0),
    Message('note_off', channel=6, note=66, velocity=80, time=240),
    Message('note_on', channel=6, note=66, velocity=95, time=0),
    Message('note_off', channel=6, note=66, velocity=80, time=240),
    Message('note_on', channel=6, note=64, velocity=95, time=0),
    Message('note_off', channel=6, note=64, velocity=80, time=720),
    Message('note_on', channel=6, note=72, velocity=95, time=1200),
    Message('note_off', channel=6, note=72, velocity=80, time=720),
    Message('note_on', channel=6, note=73, velocity=95, time=0),
    Message('note_off', channel=6, note=73, velocity=80, time=240),
    Message('note_on', channel=6, note=71, velocity=95, time=0),
    Message('note_off', channel=6, note=71, velocity=80, time=480),
    Message('note_on', channel=6, note=69, velocity=95, time=0),
    Message('note_off', channel=6, note=69, velocity=80, time=720),
    Message('note_on', channel=6, note=66, velocity=95, time=0),
    Message('note_off', channel=6, note=66, velocity=80, time=480),
    Message('note_on', channel=6, note=57, velocity=95, time=0),
    Message('note_off', channel=6, note=57, velocity=80, time=480),
    Message('note_on', channel=6, note=57, velocity=95, time=0),
    Message('note_off', channel=6, note=57, velocity=80, time=240),
    Message('note_on', channel=6, note=66, velocity=95, time=0),
    Message('note_off', channel=6, note=66, velocity=80, time=480),
    Message('note_on', channel=6, note=64, velocity=95, time=0),
    Message('note_off', channel=6, note=64, velocity=80, time=240),
    Message('note_on', channel=6, note=66, velocity=95, time=0),
    Message('note_off', channel=6, note=66, velocity=80, time=240),
    Message('note_on', channel=6, note=69, velocity=95, time=0),
    Message('note_off', channel=6, note=69, velocity=80, time=240),
    Message('note_on', channel=6, note=73, velocity=95, time=0),
    Message('note_off', channel=6, note=73, velocity=80, time=240),
    Message('note_on', channel=6, note=73, velocity=95, time=0),
    Message('note_off', channel=6, note=73, velocity=80, time=240),
    Message('note_on', channel=6, note=71, velocity=95, time=0),
    Message('note_off', channel=6, note=71, velocity=80, time=240),
    Message('note_on', channel=6, note=69, velocity=95, time=0),
    Message('note_off', channel=6, note=69, velocity=80, time=720),
    Message('note_on', channel=6, note=69, velocity=95, time=0),
    Message('note_off', channel=6, note=69, velocity=80, time=240),
    Message('note_on', channel=6, note=69, velocity=95, time=0),
    Message('note_off', channel=6, note=69, velocity=80, time=240),
    Message('note_on', channel=6, note=78, velocity=95, time=0),
    Message('note_off', channel=6, note=78, velocity=80, time=480),
    Message('note_on', channel=6, note=73, velocity=95, time=0),
    Message('note_off', channel=6, note=73, velocity=80, time=240),
    Message('note_on', channel=6, note=76, velocity=95, time=0),
    Message('note_off', channel=6, note=76, velocity=80, time=480),
    Message('note_on', channel=6, note=73, velocity=95, time=0),
    Message('note_off', channel=6, note=73, velocity=80, time=240),
    Message('note_on', channel=6, note=71, velocity=95, time=0),
    Message('note_off', channel=6, note=71, velocity=80, time=240),
    Message('note_on', channel=6, note=69, velocity=95, time=0),
    Message('note_off', channel=6, note=69, velocity=80, time=240),
    Message('note_on', channel=6, note=71, velocity=95, time=0),
    Message('note_off', channel=6, note=71, velocity=80, time=240),
    Message('note_on', channel=6, note=73, velocity=95, time=0),
    Message('note_off', channel=6, note=73, velocity=80, time=240),
    Message('note_on', channel=6, note=73, velocity=95, time=0),
    Message('note_off', channel=6, note=73, velocity=80, time=240),
    Message('note_on', channel=6, note=71, velocity=95, time=0),
    Message('note_off', channel=6, note=71, velocity=80, time=1200),
    Message('note_on', channel=6, note=64, velocity=95, time=720),
    Message('note_off', channel=6, note=64, velocity=80, time=240),
    Message('note_on', channel=6, note=73, velocity=95, time=0),
    Message('note_off', channel=6, note=73, velocity=80, time=240),
    Message('note_on', channel=6, note=76, velocity=95, time=0),
    Message('note_off', channel=6, note=76, velocity=80, time=240),
    Message('note_on', channel=6, note=78, velocity=95, time=0),
    Message('note_off', channel=6, note=78, velocity=80, time=240),
    Message('note_on', channel=6, note=73, velocity=95, time=0),
    Message('note_off', channel=6, note=73, velocity=80, time=480),
    Message('note_on', channel=6, note=71, velocity=95, time=0),
    Message('note_off', channel=6, note=71, velocity=80, time=240),
    Message('note_on', channel=6, note=69, velocity=95, time=0),
    Message('note_off', channel=6, note=69, velocity=80, time=1440),
    Message('note_on', channel=6, note=69, velocity=95, time=17040),
    Message('note_off', channel=6, note=69, velocity=80, time=120),
    Message('note_on', channel=6, note=69, velocity=95, time=0),
    Message('note_off', channel=6, note=69, velocity=80, time=120),
    Message('note_on', channel=6, note=71, velocity=95, time=0),
    Message('note_off', channel=6, note=71, velocity=80, time=240),
    Message('note_on', channel=6, note=73, velocity=95, time=0),
    Message('note_off', channel=6, note=73, velocity=80, time=240),
    Message('note_on', channel=6, note=73, velocity=95, time=0),
    Message('note_off', channel=6, note=73, velocity=80, time=240),
    Message('note_on', channel=6, note=73, velocity=95, time=0),
    Message('note_off', channel=6, note=73, velocity=80, time=240),
    Message('note_on', channel=6, note=71, velocity=86, time=0),
    Message('note_off', channel=6, note=71, velocity=80, time=480),
    Message('note_on', channel=6, note=73, velocity=95, time=240),
    Message('note_off', channel=6, note=73, velocity=80, time=240),
    Message('note_on', channel=6, note=73, velocity=95, time=0),
    Message('note_off', channel=6, note=73, velocity=80, time=240),
    Message('note_on', channel=6, note=74, velocity=95, time=0),
    Message('note_off', channel=6, note=74, velocity=80, time=240),
    Message('note_on', channel=6, note=73, velocity=95, time=0),
    Message('note_off', channel=6, note=73, velocity=80, time=240),
    Message('note_on', channel=6, note=76, velocity=95, time=0),
    Message('note_off', channel=6, note=76, velocity=80, time=240),
    Message('note_on', channel=6, note=73, velocity=95, time=0),
    Message('note_off', channel=6, note=73, velocity=80, time=480),
    Message('note_on', channel=6, note=64, velocity=95, time=240),
    Message('note_off', channel=6, note=64, velocity=80, time=120),
    Message('note_on', channel=6, note=71, velocity=95, time=0),
    Message('note_off', channel=6, note=71, velocity=80, time=600),
    Message('note_on', channel=6, note=71, velocity=95, time=240),
    Message('note_off', channel=6, note=71, velocity=80, time=240),
    Message('note_on', channel=6, note=71, velocity=95, time=0),
    Message('note_off', channel=6, note=71, velocity=80, time=480),
    Message('note_on', channel=6, note=73, velocity=95, time=0),
    Message('note_off', channel=6, note=73, velocity=80, time=240),
    Message('note_on', channel=6, note=74, velocity=95, time=0),
    Message('note_off', channel=6, note=74, velocity=80, time=120),
    Message('note_on', channel=6, note=66, velocity=95, time=0),
    Message('note_off', channel=6, note=66, velocity=80, time=360),
    Message('note_on', channel=6, note=64, velocity=95, time=0),
    Message('note_off', channel=6, note=64, velocity=80, time=240),
    Message('note_on', channel=6, note=69, velocity=95, time=960),
    Message('note_off', channel=6, note=69, velocity=80, time=120),
    Message('note_on', channel=6, note=69, velocity=95, time=0),
    Message('note_off', channel=6, note=69, velocity=80, time=120),
    Message('note_on', channel=6, note=71, velocity=95, time=0),
    Message('note_off', channel=6, note=71, velocity=80, time=480),
    Message('note_on', channel=6, note=71, velocity=95, time=0),
    Message('note_off', channel=6, note=71, velocity=80, time=240),
    Message('note_on', channel=6, note=71, velocity=95, time=0),
    Message('note_off', channel=6, note=71, velocity=80, time=240),
    Message('note_on', channel=6, note=68, velocity=95, time=0),
    Message('note_off', channel=6, note=68, velocity=80, time=720),
    Message('note_on', channel=6, note=71, velocity=95, time=240),
    Message('note_off', channel=6, note=71, velocity=80, time=240),
    Message('note_on', channel=6, note=71, velocity=95, time=0),
    Message('note_off', channel=6, note=71, velocity=80, time=240),
    Message('note_on', channel=6, note=71, velocity=95, time=0),
    Message('note_off', channel=6, note=71, velocity=80, time=240),
    Message('note_on', channel=6, note=71, velocity=95, time=0),
    Message('note_off', channel=6, note=71, velocity=80, time=240),
    Message('note_on', channel=6, note=74, velocity=95, time=0),
    Message('note_off', channel=6, note=74, velocity=80, time=480),
    Message('note_on', channel=6, note=73, velocity=95, time=0),
    Message('note_off', channel=6, note=73, velocity=80, time=240),
    Message('note_on', channel=6, note=73, velocity=95, time=0),
    Message('note_off', channel=6, note=73, velocity=80, time=240),
    Message('note_on', channel=6, note=73, velocity=95, time=0),
    Message('note_off', channel=6, note=73, velocity=80, time=720),
    Message('note_on', channel=6, note=73, velocity=95, time=0),
    Message('note_off', channel=6, note=73, velocity=80, time=240),
    Message('note_on', channel=6, note=73, velocity=95, time=0),
    Message('note_off', channel=6, note=73, velocity=80, time=240),
    Message('note_on', channel=6, note=71, velocity=95, time=0),
    Message('note_off', channel=6, note=71, velocity=80, time=240),
    Message('note_on', channel=6, note=71, velocity=95, time=0),
    Message('note_off', channel=6, note=71, velocity=80, time=240),
    Message('note_on', channel=6, note=69, velocity=95, time=0),
    Message('note_off', channel=6, note=69, velocity=80, time=240),
    Message('note_on', channel=6, note=73, velocity=95, time=0),
    Message('note_off', channel=6, note=73, velocity=80, time=240),
    Message('note_on', channel=6, note=73, velocity=95, time=0),
    Message('note_off', channel=6, note=73, velocity=80, time=120),
    Message('note_on', channel=6, note=71, velocity=86, time=0),
    Message('note_off', channel=6, note=71, velocity=80, time=120),
    Message('note_on', channel=6, note=69, velocity=86, time=0),
    Message('note_off', channel=6, note=69, velocity=80, time=720),
    Message('note_on', channel=6, note=69, velocity=95, time=720),
    Message('note_off', channel=6, note=69, velocity=80, time=240),
    Message('note_on', channel=6, note=73, velocity=95, time=0),
    Message('note_off', channel=6, note=73, velocity=80, time=240),
    Message('note_on', channel=6, note=73, velocity=95, time=0),
    Message('note_off', channel=6, note=73, velocity=80, time=240),
    Message('note_on', channel=6, note=73, velocity=95, time=0),
    Message('note_off', channel=6, note=73, velocity=80, time=240),
    Message('note_on', channel=6, note=73, velocity=95, time=0),
    Message('note_off', channel=6, note=73, velocity=80, time=120),
    Message('note_on', channel=6, note=71, velocity=86, time=0),
    Message('note_off', channel=6, note=71, velocity=80, time=120),
    Message('note_on', channel=6, note=69, velocity=86, time=0),
    Message('note_off', channel=6, note=69, velocity=80, time=480),
    Message('note_on', channel=6, note=69, velocity=95, time=240),
    Message('note_off', channel=6, note=69, velocity=80, time=240),
    Message('note_on', channel=6, note=73, velocity=95, time=0),
    Message('note_off', channel=6, note=73, velocity=80, time=240),
    Message('note_on', channel=6, note=74, velocity=95, time=0),
    Message('note_off', channel=6, note=74, velocity=80, time=240),
    Message('note_on', channel=6, note=73, velocity=95, time=0),
    Message('note_off', channel=6, note=73, velocity=80, time=240),
    Message('note_on', channel=6, note=76, velocity=95, time=0),
    Message('note_off', channel=6, note=76, velocity=80, time=240),
    Message('note_on', channel=6, note=73, velocity=86, time=0),
    Message('note_off', channel=6, note=73, velocity=80, time=480),
    Message('note_on', channel=6, note=73, velocity=95, time=240),
    Message('note_off', channel=6, note=73, velocity=80, time=240),
    Message('note_on', channel=6, note=71, velocity=95, time=0),
    Message('note_off', channel=6, note=71, velocity=80, time=360),
    Message('note_on', channel=6, note=71, velocity=95, time=0),
    Message('note_off', channel=6, note=71, velocity=80, time=240),
    Message('note_on', channel=6, note=71, velocity=95, time=0),
    Message('note_off', channel=6, note=71, velocity=80, time=360),
    Message('note_on', channel=6, note=71, velocity=95, time=0),
    Message('note_off', channel=6, note=71, velocity=80, time=360),
    Message('note_on', channel=6, note=73, velocity=95, time=0),
    Message('note_off', channel=6, note=73, velocity=80, time=240),
    Message('note_on', channel=6, note=71, velocity=95, time=0),
    Message('note_off', channel=6, note=71, velocity=80, time=360),
    Message('note_on', channel=6, note=74, velocity=95, time=0),
    Message('note_off', channel=6, note=74, velocity=80, time=120),
    Message('note_on', channel=6, note=73, velocity=86, time=0),
    Message('note_off', channel=6, note=73, velocity=80, time=120),
    Message('note_on', channel=6, note=71, velocity=86, time=0),
    Message('note_off', channel=6, note=71, velocity=80, time=240),
    Message('note_on', channel=6, note=64, velocity=95, time=1200),
    Message('note_off', channel=6, note=64, velocity=80, time=240),
    Message('note_on', channel=6, note=64, velocity=95, time=0),
    Message('note_off', channel=6, note=64, velocity=80, time=240),
    Message('note_on', channel=6, note=64, velocity=95, time=0),
    Message('note_off', channel=6, note=64, velocity=80, time=240),
    Message('note_on', channel=6, note=64, velocity=95, time=0),
    Message('note_off', channel=6, note=64, velocity=80, time=240),
    Message('note_on', channel=6, note=68, velocity=95, time=0),
    Message('note_off', channel=6, note=68, velocity=80, time=480),
    Message('note_on', channel=6, note=68, velocity=95, time=0),
    Message('note_off', channel=6, note=68, velocity=80, time=240),
    Message('note_on', channel=6, note=68, velocity=95, time=0),
    Message('note_off', channel=6, note=68, velocity=80, time=240),
    Message('note_on', channel=6, note=71, velocity=95, time=0),
    Message('note_off', channel=6, note=71, velocity=80, time=480),
    Message('note_on', channel=6, note=71, velocity=95, time=0),
    Message('note_off', channel=6, note=71, velocity=80, time=240),
    Message('note_on', channel=6, note=71, velocity=95, time=0),
    Message('note_off', channel=6, note=71, velocity=80, time=240),
    Message('note_on', channel=6, note=71, velocity=95, time=0),
    Message('note_off', channel=6, note=71, velocity=80, time=480),
    Message('note_on', channel=6, note=73, velocity=95, time=0),
    Message('note_off', channel=6, note=73, velocity=80, time=720),
    Message('note_on', channel=6, note=64, velocity=95, time=720),
    Message('note_off', channel=6, note=64, velocity=80, time=240),
    Message('note_on', channel=6, note=71, velocity=95, time=0),
    Message('note_off', channel=6, note=71, velocity=80, time=240),
    Message('note_on', channel=6, note=73, velocity=95, time=0),
    Message('note_off', channel=6, note=73, velocity=80, time=240),
    Message('note_on', channel=6, note=71, velocity=95, time=0),
    Message('note_off', channel=6, note=71, velocity=80, time=240),
    Message('note_on', channel=6, note=76, velocity=95, time=0),
    Message('note_off', channel=6, note=76, velocity=80, time=1680),
    Message('note_on', channel=6, note=72, velocity=95, time=240),
    Message('note_off', channel=6, note=72, velocity=80, time=240),
    Message('note_on', channel=6, note=73, velocity=95, time=0),
    Message('note_off', channel=6, note=73, velocity=80, time=240),
    Message('note_on', channel=6, note=71, velocity=95, time=0),
    Message('note_off', channel=6, note=71, velocity=80, time=480),
    Message('note_on', channel=6, note=69, velocity=95, time=0),
    Message('note_off', channel=6, note=69, velocity=80, time=720),
    Message('note_on', channel=6, note=66, velocity=95, time=0),
    Message('note_off', channel=6, note=66, velocity=80, time=480),
    Message('note_on', channel=6, note=57, velocity=95, time=0),
    Message('note_off', channel=6, note=57, velocity=80, time=720),
    Message('note_on', channel=6, note=66, velocity=95, time=0),
    Message('note_off', channel=6, note=66, velocity=80, time=480),
    Message('note_on', channel=6, note=64, velocity=95, time=0),
    Message('note_off', channel=6, note=64, velocity=80, time=240),
    Message('note_on', channel=6, note=66, velocity=95, time=0),
    Message('note_off', channel=6, note=66, velocity=80, time=240),
    Message('note_on', channel=6, note=69, velocity=95, time=0),
    Message('note_off', channel=6, note=69, velocity=80, time=240),
    Message('note_on', channel=6, note=73, velocity=95, time=0),
    Message('note_off', channel=6, note=73, velocity=80, time=240),
    Message('note_on', channel=6, note=73, velocity=95, time=0),
    Message('note_off', channel=6, note=73, velocity=80, time=240),
    Message('note_on', channel=6, note=71, velocity=95, time=0),
    Message('note_off', channel=6, note=71, velocity=80, time=240),
    Message('note_on', channel=6, note=69, velocity=95, time=0),
    Message('note_off', channel=6, note=69, velocity=80, time=720),
    Message('note_on', channel=6, note=66, velocity=95, time=0),
    Message('note_off', channel=6, note=66, velocity=80, time=240),
    Message('note_on', channel=6, note=64, velocity=95, time=0),
    Message('note_off', channel=6, note=64, velocity=80, time=240),
    Message('note_on', channel=6, note=64, velocity=95, time=0),
    Message('note_off', channel=6, note=64, velocity=80, time=240),
    Message('note_on', channel=6, note=57, velocity=95, time=0),
    Message('note_off', channel=6, note=57, velocity=80, time=480),
    Message('note_on', channel=6, note=66, velocity=95, time=0),
    Message('note_off', channel=6, note=66, velocity=80, time=480),
    Message('note_on', channel=6, note=64, velocity=95, time=0),
    Message('note_off', channel=6, note=64, velocity=80, time=240),
    Message('note_on', channel=6, note=61, velocity=95, time=0),
    Message('note_off', channel=6, note=61, velocity=80, time=240),
    Message('note_on', channel=6, note=61, velocity=95, time=0),
    Message('note_off', channel=6, note=61, velocity=80, time=720),
    Message('note_on', channel=6, note=59, velocity=95, time=0),
    Message('note_off', channel=6, note=59, velocity=80, time=240),
    Message('note_on', channel=6, note=66, velocity=95, time=0),
    Message('note_off', channel=6, note=66, velocity=80, time=720),
    Message('note_on', channel=6, note=59, velocity=95, time=1680),
    Message('note_off', channel=6, note=59, velocity=80, time=240),
    Message('note_on', channel=6, note=64, velocity=95, time=0),
    Message('note_off', channel=6, note=64, velocity=80, time=480),
    Message('note_on', channel=6, note=52, velocity=95, time=0),
    Message('note_off', channel=6, note=52, velocity=80, time=240),
    Message('note_on', channel=6, note=52, velocity=95, time=0),
    Message('note_off', channel=6, note=52, velocity=80, time=480),
    Message('note_on', channel=6, note=66, velocity=95, time=0),
    Message('note_off', channel=6, note=66, velocity=80, time=240),
    Message('note_on', channel=6, note=66, velocity=95, time=0),
    Message('note_off', channel=6, note=66, velocity=80, time=240),
    Message('note_on', channel=6, note=64, velocity=95, time=0),
    Message('note_off', channel=6, note=64, velocity=80, time=720),
    Message('note_on', channel=6, note=72, velocity=95, time=1200),
    Message('note_off', channel=6, note=72, velocity=80, time=720),
    Message('note_on', channel=6, note=73, velocity=95, time=0),
    Message('note_off', channel=6, note=73, velocity=80, time=240),
    Message('note_on', channel=6, note=71, velocity=95, time=0),
    Message('note_off', channel=6, note=71, velocity=80, time=480),
    Message('note_on', channel=6, note=69, velocity=95, time=0),
    Message('note_off', channel=6, note=69, velocity=80, time=720),
    Message('note_on', channel=6, note=66, velocity=95, time=0),
    Message('note_off', channel=6, note=66, velocity=80, time=480),
    Message('note_on', channel=6, note=57, velocity=95, time=0),
    Message('note_off', channel=6, note=57, velocity=80, time=480),
    Message('note_on', channel=6, note=57, velocity=95, time=0),
    Message('note_off', channel=6, note=57, velocity=80, time=240),
    Message('note_on', channel=6, note=66, velocity=95, time=0),
    Message('note_off', channel=6, note=66, velocity=80, time=480),
    Message('note_on', channel=6, note=64, velocity=95, time=0),
    Message('note_off', channel=6, note=64, velocity=80, time=240),
    Message('note_on', channel=6, note=66, velocity=95, time=0),
    Message('note_off', channel=6, note=66, velocity=80, time=240),
    Message('note_on', channel=6, note=69, velocity=95, time=0),
    Message('note_off', channel=6, note=69, velocity=80, time=240),
    Message('note_on', channel=6, note=73, velocity=95, time=0),
    Message('note_off', channel=6, note=73, velocity=80, time=240),
    Message('note_on', channel=6, note=73, velocity=95, time=0),
    Message('note_off', channel=6, note=73, velocity=80, time=240),
    Message('note_on', channel=6, note=71, velocity=95, time=0),
    Message('note_off', channel=6, note=71, velocity=80, time=240),
    Message('note_on', channel=6, note=69, velocity=95, time=0),
    Message('note_off', channel=6, note=69, velocity=80, time=720),
    Message('note_on', channel=6, note=69, velocity=95, time=0),
    Message('note_off', channel=6, note=69, velocity=80, time=240),
    Message('note_on', channel=6, note=69, velocity=95, time=0),
    Message('note_off', channel=6, note=69, velocity=80, time=240),
    Message('note_on', channel=6, note=78, velocity=95, time=0),
    Message('note_off', channel=6, note=78, velocity=80, time=480),
    Message('note_on', channel=6, note=73, velocity=95, time=0),
    Message('note_off', channel=6, note=73, velocity=80, time=240),
    Message('note_on', channel=6, note=76, velocity=95, time=0),
    Message('note_off', channel=6, note=76, velocity=80, time=480),
    Message('note_on', channel=6, note=73, velocity=95, time=0),
    Message('note_off', channel=6, note=73, velocity=80, time=240),
    Message('note_on', channel=6, note=71, velocity=86, time=0),
    Message('note_off', channel=6, note=71, velocity=80, time=240),
    Message('note_on', channel=6, note=69, velocity=95, time=0),
    Message('note_off', channel=6, note=69, velocity=80, time=240),
    Message('note_on', channel=6, note=71, velocity=95, time=0),
    Message('note_off', channel=6, note=71, velocity=80, time=240),
    Message('note_on', channel=6, note=73, velocity=95, time=0),
    Message('note_off', channel=6, note=73, velocity=80, time=480),
    Message('note_on', channel=6, note=73, velocity=95, time=0),
    Message('note_off', channel=6, note=73, velocity=80, time=240),
    Message('note_on', channel=6, note=71, velocity=95, time=0),
    Message('note_off', channel=6, note=71, velocity=80, time=960),
    Message('note_on', channel=6, note=64, velocity=95, time=720),
    Message('note_off', channel=6, note=64, velocity=80, time=240),
    Message('note_on', channel=6, note=73, velocity=95, time=0),
    Message('note_off', channel=6, note=73, velocity=80, time=240),
    Message('note_on', channel=6, note=76, velocity=86, time=0),
    Message('note_off', channel=6, note=76, velocity=80, time=240),
    Message('note_on', channel=6, note=78, velocity=86, time=0),
    Message('note_off', channel=6, note=78, velocity=80, time=240),
    Message('note_on', channel=6, note=73, velocity=95, time=0),
    Message('note_off', channel=6, note=73, velocity=80, time=480),
    Message('note_on', channel=6, note=71, velocity=95, time=0),
    Message('note_off', channel=6, note=71, velocity=80, time=240),
    Message('note_on', channel=6, note=69, velocity=86, time=0),
    Message('note_off', channel=6, note=69, velocity=80, time=1440),
    Message('note_on', channel=6, note=73, velocity=95, time=1920),
    Message('note_off', channel=6, note=73, velocity=80, time=240),
    Message('note_on', channel=6, note=71, velocity=95, time=0),
    Message('note_off', channel=6, note=71, velocity=80, time=480),
    Message('note_on', channel=6, note=69, velocity=95, time=0),
    Message('note_off', channel=6, note=69, velocity=80, time=720),
    Message('note_on', channel=6, note=66, velocity=95, time=0),
    Message('note_off', channel=6, note=66, velocity=80, time=480),
    Message('note_on', channel=6, note=57, velocity=95, time=0),
    Message('note_off', channel=6, note=57, velocity=80, time=720),
    Message('note_on', channel=6, note=66, velocity=95, time=0),
    Message('note_off', channel=6, note=66, velocity=80, time=480),
    Message('note_on', channel=6, note=64, velocity=95, time=0),
    Message('note_off', channel=6, note=64, velocity=80, time=240),
    Message('note_on', channel=6, note=66, velocity=95, time=0),
    Message('note_off', channel=6, note=66, velocity=80, time=240),
    Message('note_on', channel=6, note=69, velocity=95, time=0),
    Message('note_off', channel=6, note=69, velocity=80, time=240),
    Message('note_on', channel=6, note=73, velocity=95, time=0),
    Message('note_off', channel=6, note=73, velocity=80, time=240),
    Message('note_on', channel=6, note=73, velocity=95, time=0),
    Message('note_off', channel=6, note=73, velocity=80, time=240),
    Message('note_on', channel=6, note=71, velocity=95, time=0),
    Message('note_off', channel=6, note=71, velocity=80, time=240),
    Message('note_on', channel=6, note=69, velocity=95, time=0),
    Message('note_off', channel=6, note=69, velocity=80, time=720),
    Message('note_on', channel=6, note=66, velocity=95, time=0),
    Message('note_off', channel=6, note=66, velocity=80, time=240),
    Message('note_on', channel=6, note=64, velocity=86, time=0),
    Message('note_off', channel=6, note=64, velocity=80, time=240),
    Message('note_on', channel=6, note=64, velocity=95, time=0),
    Message('note_off', channel=6, note=64, velocity=80, time=240),
    Message('note_on', channel=6, note=57, velocity=95, time=0),
    Message('note_off', channel=6, note=57, velocity=80, time=480),
    Message('note_on', channel=6, note=66, velocity=95, time=0),
    Message('note_off', channel=6, note=66, velocity=80, time=480),
    Message('note_on', channel=6, note=64, velocity=95, time=0),
    Message('note_off', channel=6, note=64, velocity=80, time=240),
    Message('note_on', channel=6, note=61, velocity=95, time=0),
    Message('note_off', channel=6, note=61, velocity=80, time=240),
    Message('note_on', channel=6, note=61, velocity=95, time=0),
    Message('note_off', channel=6, note=61, velocity=80, time=720),
    Message('note_on', channel=6, note=59, velocity=95, time=0),
    Message('note_off', channel=6, note=59, velocity=80, time=240),
    Message('note_on', channel=6, note=66, velocity=95, time=0),
    Message('note_off', channel=6, note=66, velocity=80, time=720),
    Message('note_on', channel=6, note=59, velocity=95, time=1680),
    Message('note_off', channel=6, note=59, velocity=80, time=240),
    Message('note_on', channel=6, note=64, velocity=95, time=0),
    Message('note_off', channel=6, note=64, velocity=80, time=480),
    Message('note_on', channel=6, note=52, velocity=95, time=0),
    Message('note_off', channel=6, note=52, velocity=80, time=240),
    Message('note_on', channel=6, note=52, velocity=95, time=0),
    Message('note_off', channel=6, note=52, velocity=80, time=480),
    Message('note_on', channel=6, note=66, velocity=95, time=0),
    Message('note_off', channel=6, note=66, velocity=80, time=240),
    Message('note_on', channel=6, note=66, velocity=95, time=0),
    Message('note_off', channel=6, note=66, velocity=80, time=240),
    Message('note_on', channel=6, note=64, velocity=95, time=0),
    Message('note_off', channel=6, note=64, velocity=80, time=720),
    Message('note_on', channel=6, note=72, velocity=95, time=1200),
    Message('note_off', channel=6, note=72, velocity=80, time=720),
    Message('note_on', channel=6, note=73, velocity=95, time=0),
    Message('note_off', channel=6, note=73, velocity=80, time=240),
    Message('note_on', channel=6, note=71, velocity=95, time=0),
    Message('note_off', channel=6, note=71, velocity=80, time=480),
    Message('note_on', channel=6, note=69, velocity=95, time=0),
    Message('note_off', channel=6, note=69, velocity=80, time=720),
    Message('note_on', channel=6, note=66, velocity=95, time=0),
    Message('note_off', channel=6, note=66, velocity=80, time=480),
    Message('note_on', channel=6, note=57, velocity=95, time=0),
    Message('note_off', channel=6, note=57, velocity=80, time=480),
    Message('note_on', channel=6, note=57, velocity=95, time=0),
    Message('note_off', channel=6, note=57, velocity=80, time=240),
    Message('note_on', channel=6, note=66, velocity=95, time=0),
    Message('note_off', channel=6, note=66, velocity=80, time=480),
    Message('note_on', channel=6, note=64, velocity=95, time=0),
    Message('note_off', channel=6, note=64, velocity=80, time=240),
    Message('note_on', channel=6, note=66, velocity=95, time=0),
    Message('note_off', channel=6, note=66, velocity=80, time=240),
    Message('note_on', channel=6, note=69, velocity=95, time=0),
    Message('note_off', channel=6, note=69, velocity=80, time=240),
    Message('note_on', channel=6, note=73, velocity=95, time=0),
    Message('note_off', channel=6, note=73, velocity=80, time=240),
    Message('note_on', channel=6, note=73, velocity=95, time=0),
    Message('note_off', channel=6, note=73, velocity=80, time=240),
    Message('note_on', channel=6, note=71, velocity=95, time=0),
    Message('note_off', channel=6, note=71, velocity=80, time=240),
    Message('note_on', channel=6, note=69, velocity=95, time=0),
    Message('note_off', channel=6, note=69, velocity=80, time=720),
    Message('note_on', channel=6, note=69, velocity=95, time=0),
    Message('note_off', channel=6, note=69, velocity=80, time=240),
    Message('note_on', channel=6, note=69, velocity=95, time=0),
    Message('note_off', channel=6, note=69, velocity=80, time=240),
    Message('note_on', channel=6, note=78, velocity=95, time=0),
    Message('note_off', channel=6, note=78, velocity=80, time=480),
    Message('note_on', channel=6, note=73, velocity=95, time=0),
    Message('note_off', channel=6, note=73, velocity=80, time=240),
    Message('note_on', channel=6, note=76, velocity=95, time=0),
    Message('note_off', channel=6, note=76, velocity=80, time=480),
    Message('note_on', channel=6, note=73, velocity=95, time=0),
    Message('note_off', channel=6, note=73, velocity=80, time=240),
    Message('note_on', channel=6, note=71, velocity=95, time=0),
    Message('note_off', channel=6, note=71, velocity=80, time=240),
    Message('note_on', channel=6, note=69, velocity=95, time=0),
    Message('note_off', channel=6, note=69, velocity=80, time=240),
    Message('note_on', channel=6, note=71, velocity=95, time=0),
    Message('note_off', channel=6, note=71, velocity=80, time=240),
    Message('note_on', channel=6, note=73, velocity=95, time=0),
    Message('note_off', channel=6, note=73, velocity=80, time=480),
    Message('note_on', channel=6, note=73, velocity=95, time=0),
    Message('note_off', channel=6, note=73, velocity=80, time=240),
    Message('note_on', channel=6, note=71, velocity=86, time=0),
    Message('note_off', channel=6, note=71, velocity=80, time=960),
    Message('note_on', channel=6, note=64, velocity=95, time=720),
    Message('note_off', channel=6, note=64, velocity=80, time=240),
    Message('note_on', channel=6, note=73, velocity=95, time=0),
    Message('note_off', channel=6, note=73, velocity=80, time=240),
    Message('note_on', channel=6, note=76, velocity=86, time=0),
    Message('note_off', channel=6, note=76, velocity=80, time=240),
    Message('note_on', channel=6, note=78, velocity=86, time=0),
    Message('note_off', channel=6, note=78, velocity=80, time=240),
    Message('note_on', channel=6, note=73, velocity=95, time=0),
    Message('note_off', channel=6, note=73, velocity=80, time=480),
    Message('note_on', channel=6, note=71, velocity=95, time=0),
    Message('note_off', channel=6, note=71, velocity=80, time=240),
    Message('note_on', channel=6, note=69, velocity=95, time=0),
    Message('note_off', channel=6, note=69, velocity=80, time=1440),
    Message('note_on', channel=6, note=73, velocity=95, time=1920),
    Message('note_off', channel=6, note=73, velocity=80, time=240),
    Message('note_on', channel=6, note=71, velocity=95, time=0),
    Message('note_off', channel=6, note=71, velocity=80, time=480),
    Message('note_on', channel=6, note=69, velocity=95, time=0),
    Message('note_off', channel=6, note=69, velocity=80, time=720),
    Message('note_on', channel=6, note=66, velocity=95, time=0),
    Message('note_off', channel=6, note=66, velocity=80, time=480),
    Message('note_on', channel=6, note=57, velocity=95, time=0),
    Message('note_off', channel=6, note=57, velocity=80, time=720),
    Message('note_on', channel=6, note=66, velocity=95, time=0),
    Message('note_off', channel=6, note=66, velocity=80, time=480),
    Message('note_on', channel=6, note=64, velocity=95, time=0),
    Message('note_off', channel=6, note=64, velocity=80, time=240),
    Message('note_on', channel=6, note=66, velocity=95, time=0),
    Message('note_off', channel=6, note=66, velocity=80, time=240),
    Message('note_on', channel=6, note=69, velocity=95, time=0),
    Message('note_off', channel=6, note=69, velocity=80, time=240),
    Message('note_on', channel=6, note=73, velocity=95, time=0),
    Message('note_off', channel=6, note=73, velocity=80, time=240),
    Message('note_on', channel=6, note=73, velocity=95, time=0),
    Message('note_off', channel=6, note=73, velocity=80, time=240),
    Message('note_on', channel=6, note=71, velocity=95, time=0),
    Message('note_off', channel=6, note=71, velocity=80, time=240),
    Message('note_on', channel=6, note=69, velocity=95, time=0),
    Message('note_off', channel=6, note=69, velocity=80, time=720),
    Message('note_on', channel=6, note=66, velocity=95, time=0),
    Message('note_off', channel=6, note=66, velocity=80, time=240),
    Message('note_on', channel=6, note=64, velocity=86, time=0),
    Message('note_off', channel=6, note=64, velocity=80, time=240),
    Message('note_on', channel=6, note=64, velocity=95, time=0),
    Message('note_off', channel=6, note=64, velocity=80, time=240),
    Message('note_on', channel=6, note=57, velocity=95, time=0),
    Message('note_off', channel=6, note=57, velocity=80, time=480),
    Message('note_on', channel=6, note=66, velocity=95, time=0),
    Message('note_off', channel=6, note=66, velocity=80, time=480),
    Message('note_on', channel=6, note=64, velocity=95, time=0),
    Message('note_off', channel=6, note=64, velocity=80, time=240),
    Message('note_on', channel=6, note=61, velocity=95, time=0),
    Message('note_off', channel=6, note=61, velocity=80, time=240),
    Message('note_on', channel=6, note=61, velocity=95, time=0),
    Message('note_off', channel=6, note=61, velocity=80, time=720),
    Message('note_on', channel=6, note=59, velocity=95, time=0),
    Message('note_off', channel=6, note=59, velocity=80, time=240),
    Message('note_on', channel=6, note=66, velocity=95, time=0),
    Message('note_off', channel=6, note=66, velocity=80, time=720),
    Message('note_on', channel=6, note=59, velocity=95, time=1680),
    Message('note_off', channel=6, note=59, velocity=80, time=240),
    Message('note_on', channel=6, note=64, velocity=95, time=0),
    Message('note_off', channel=6, note=64, velocity=80, time=480),
    Message('note_on', channel=6, note=52, velocity=95, time=0),
    Message('note_off', channel=6, note=52, velocity=80, time=240),
    Message('note_on', channel=6, note=52, velocity=95, time=0),
    Message('note_off', channel=6, note=52, velocity=80, time=480),
    Message('note_on', channel=6, note=66, velocity=95, time=0),
    Message('note_off', channel=6, note=66, velocity=80, time=240),
    Message('note_on', channel=6, note=66, velocity=95, time=0),
    Message('note_off', channel=6, note=66, velocity=80, time=240),
    Message('note_on', channel=6, note=64, velocity=95, time=0),
    Message('note_off', channel=6, note=64, velocity=80, time=720),
    Message('note_on', channel=6, note=72, velocity=95, time=1200),
    Message('note_off', channel=6, note=72, velocity=80, time=720),
    Message('note_on', channel=6, note=73, velocity=95, time=0),
    Message('note_off', channel=6, note=73, velocity=80, time=240),
    Message('note_on', channel=6, note=71, velocity=95, time=0),
    Message('note_off', channel=6, note=71, velocity=80, time=480),
    Message('note_on', channel=6, note=69, velocity=95, time=0),
    Message('note_off', channel=6, note=69, velocity=80, time=720),
    Message('note_on', channel=6, note=66, velocity=95, time=0),
    Message('note_off', channel=6, note=66, velocity=80, time=480),
    Message('note_on', channel=6, note=57, velocity=95, time=0),
    Message('note_off', channel=6, note=57, velocity=80, time=480),
    Message('note_on', channel=6, note=57, velocity=95, time=0),
    Message('note_off', channel=6, note=57, velocity=80, time=240),
    Message('note_on', channel=6, note=66, velocity=95, time=0),
    Message('note_off', channel=6, note=66, velocity=80, time=480),
    Message('note_on', channel=6, note=64, velocity=95, time=0),
    Message('note_off', channel=6, note=64, velocity=80, time=240),
    Message('note_on', channel=6, note=66, velocity=95, time=0),
    Message('note_off', channel=6, note=66, velocity=80, time=240),
    Message('note_on', channel=6, note=69, velocity=95, time=0),
    Message('note_off', channel=6, note=69, velocity=80, time=240),
    Message('note_on', channel=6, note=73, velocity=95, time=0),
    Message('note_off', channel=6, note=73, velocity=80, time=240),
    Message('note_on', channel=6, note=73, velocity=95, time=0),
    Message('note_off', channel=6, note=73, velocity=80, time=240),
    Message('note_on', channel=6, note=71, velocity=95, time=0),
    Message('note_off', channel=6, note=71, velocity=80, time=240),
    Message('note_on', channel=6, note=69, velocity=95, time=0),
    Message('note_off', channel=6, note=69, velocity=80, time=720),
    Message('note_on', channel=6, note=69, velocity=95, time=0),
    Message('note_off', channel=6, note=69, velocity=80, time=240),
    Message('note_on', channel=6, note=69, velocity=95, time=0),
    Message('note_off', channel=6, note=69, velocity=80, time=240),
    Message('note_on', channel=6, note=78, velocity=95, time=0),
    Message('note_off', channel=6, note=78, velocity=80, time=480),
    Message('note_on', channel=6, note=73, velocity=95, time=0),
    Message('note_off', channel=6, note=73, velocity=80, time=240),
    Message('note_on', channel=6, note=76, velocity=95, time=0),
    Message('note_off', channel=6, note=76, velocity=80, time=480),
    Message('note_on', channel=6, note=73, velocity=95, time=0),
    Message('note_off', channel=6, note=73, velocity=80, time=240),
    Message('note_on', channel=6, note=71, velocity=95, time=0),
    Message('note_off', channel=6, note=71, velocity=80, time=240),
    Message('note_on', channel=6, note=69, velocity=95, time=0),
    Message('note_off', channel=6, note=69, velocity=80, time=240),
    Message('note_on', channel=6, note=71, velocity=95, time=0),
    Message('note_off', channel=6, note=71, velocity=80, time=240),
    Message('note_on', channel=6, note=73, velocity=95, time=0),
    Message('note_off', channel=6, note=73, velocity=80, time=480),
    Message('note_on', channel=6, note=73, velocity=95, time=0),
    Message('note_off', channel=6, note=73, velocity=80, time=240),
    Message('note_on', channel=6, note=71, velocity=95, time=0),
    Message('note_off', channel=6, note=71, velocity=80, time=960),
    Message('note_on', channel=6, note=64, velocity=95, time=720),
    Message('note_off', channel=6, note=64, velocity=80, time=240),
    Message('note_on', channel=6, note=73, velocity=95, time=0),
    Message('note_off', channel=6, note=73, velocity=80, time=240),
    Message('note_on', channel=6, note=76, velocity=95, time=0),
    Message('note_off', channel=6, note=76, velocity=80, time=240),
    Message('note_on', channel=6, note=78, velocity=95, time=0),
    Message('note_off', channel=6, note=78, velocity=80, time=240),
    Message('note_on', channel=6, note=73, velocity=95, time=0),
    Message('note_off', channel=6, note=73, velocity=80, time=480),
    Message('note_on', channel=6, note=71, velocity=95, time=0),
    Message('note_off', channel=6, note=71, velocity=80, time=240),
    Message('note_on', channel=6, note=69, velocity=95, time=0),
    Message('note_off', channel=6, note=69, velocity=80, time=1440),
    Message('note_on', channel=6, note=73, velocity=95, time=1920),
    Message('note_off', channel=6, note=73, velocity=80, time=240),
    Message('note_on', channel=6, note=71, velocity=95, time=0),
    Message('note_off', channel=6, note=71, velocity=80, time=480),
    Message('note_on', channel=6, note=69, velocity=95, time=0),
    Message('note_off', channel=6, note=69, velocity=80, time=720),
    Message('note_on', channel=6, note=66, velocity=95, time=0),
    Message('note_off', channel=6, note=66, velocity=80, time=480),
    Message('note_on', channel=6, note=57, velocity=95, time=0),
    Message('note_off', channel=6, note=57, velocity=80, time=480),
    Message('note_on', channel=6, note=57, velocity=95, time=0),
    Message('note_off', channel=6, note=57, velocity=80, time=240),
    Message('note_on', channel=6, note=66, velocity=95, time=0),
    Message('note_off', channel=6, note=66, velocity=80, time=480),
    Message('note_on', channel=6, note=64, velocity=95, time=0),
    Message('note_off', channel=6, note=64, velocity=80, time=240),
    Message('note_on', channel=6, note=66, velocity=95, time=0),
    Message('note_off', channel=6, note=66, velocity=80, time=240),
    Message('note_on', channel=6, note=69, velocity=95, time=0),
    Message('note_off', channel=6, note=69, velocity=80, time=240),
    Message('note_on', channel=6, note=73, velocity=95, time=0),
    Message('note_off', channel=6, note=73, velocity=80, time=240),
    Message('note_on', channel=6, note=73, velocity=95, time=0),
    Message('note_off', channel=6, note=73, velocity=80, time=240),
    Message('note_on', channel=6, note=71, velocity=95, time=0),
    Message('note_off', channel=6, note=71, velocity=80, time=240),
    Message('note_on', channel=6, note=69, velocity=95, time=0),
    Message('note_off', channel=6, note=69, velocity=80, time=720),
    Message('note_on', channel=6, note=69, velocity=95, time=0),
    Message('note_off', channel=6, note=69, velocity=80, time=240),
    Message('note_on', channel=6, note=69, velocity=95, time=0),
    Message('note_off', channel=6, note=69, velocity=80, time=240),
    Message('note_on', channel=6, note=78, velocity=95, time=0),
    Message('note_off', channel=6, note=78, velocity=80, time=480),
    Message('note_on', channel=6, note=73, velocity=95, time=0),
    Message('note_off', channel=6, note=73, velocity=80, time=240),
    Message('note_on', channel=6, note=76, velocity=95, time=0),
    Message('note_off', channel=6, note=76, velocity=80, time=480),
    Message('note_on', channel=6, note=73, velocity=95, time=0),
    Message('note_off', channel=6, note=73, velocity=80, time=240),
    Message('note_on', channel=6, note=71, velocity=95, time=0),
    Message('note_off', channel=6, note=71, velocity=80, time=240),
    Message('note_on', channel=6, note=69, velocity=95, time=0),
    Message('note_off', channel=6, note=69, velocity=80, time=240),
    Message('note_on', channel=6, note=71, velocity=95, time=0),
    Message('control_change', channel=6, control=7, value=126, time=0),
    Message('control_change', channel=7, control=7, value=126, time=0),
    Message('control_change', channel=6, control=7, value=124, time=120),
    Message('control_change', channel=7, control=7, value=124, time=0),
    Message('note_off', channel=6, note=71, velocity=80, time=120),
    Message('note_on', channel=6, note=73, velocity=95, time=0),
    Message('control_change', channel=6, control=7, value=122, time=0),
    Message('control_change', channel=7, control=7, value=122, time=0),
    Message('control_change', channel=6, control=7, value=121, time=120),
    Message('control_change', channel=7, control=7, value=121, time=0),
    Message('control_change', channel=6, control=7, value=119, time=120),
    Message('control_change', channel=7, control=7, value=119, time=0),
    Message('control_change', channel=6, control=7, value=117, time=120),
    Message('control_change', channel=7, control=7, value=117, time=0),
    Message('note_off', channel=6, note=73, velocity=80, time=120),
    Message('note_on', channel=6, note=73, velocity=95, time=0),
    Message('control_change', channel=6, control=7, value=115, time=0),
    Message('control_change', channel=7, control=7, value=115, time=0),
    Message('control_change', channel=6, control=7, value=113, time=120),
    Message('control_change', channel=7, control=7, value=113, time=0),
    Message('note_off', channel=6, note=73, velocity=80, time=120),
    Message('note_on', channel=6, note=71, velocity=95, time=0),
    Message('control_change', channel=6, control=7, value=111, time=0),
    Message('control_change', channel=7, control=7, value=111, time=0),
    Message('control_change', channel=6, control=7, value=110, time=120),
    Message('control_change', channel=7, control=7, value=110, time=0),
    Message('control_change', channel=6, control=7, value=108, time=120),
    Message('control_change', channel=7, control=7, value=108, time=0),
    Message('control_change', channel=6, control=7, value=106, time=120),
    Message('control_change', channel=7, control=7, value=106, time=0),
    Message('control_change', channel=6, control=7, value=104, time=120),
    Message('control_change', channel=7, control=7, value=104, time=0),
    Message('control_change', channel=6, control=7, value=102, time=120),
    Message('control_change', channel=7, control=7, value=102, time=0),
    Message('control_change', channel=6, control=7, value=100, time=120),
    Message('control_change', channel=7, control=7, value=100, time=0),
    Message('control_change', channel=6, control=7, value=98, time=120),
    Message('control_change', channel=7, control=7, value=98, time=0),
    Message('note_off', channel=6, note=71, velocity=80, time=120),
    Message('control_change', channel=6, control=7, value=97, time=0),
    Message('control_change', channel=7, control=7, value=97, time=0),
    Message('control_change', channel=6, control=7, value=95, time=120),
    Message('control_change', channel=7, control=7, value=95, time=0),
    Message('control_change', channel=6, control=7, value=93, time=120),
    Message('control_change', channel=7, control=7, value=93, time=0),
    Message('control_change', channel=6, control=7, value=91, time=120),
    Message('control_change', channel=7, control=7, value=91, time=0),
    Message('control_change', channel=6, control=7, value=89, time=120),
    Message('control_change', channel=7, control=7, value=89, time=0),
    Message('control_change', channel=6, control=7, value=87, time=120),
    Message('control_change', channel=7, control=7, value=87, time=0),
    Message('control_change', channel=6, control=7, value=86, time=120),
    Message('control_change', channel=7, control=7, value=86, time=0),
    Message('note_on', channel=6, note=64, velocity=95, time=0),
    Message('control_change', channel=6, control=7, value=84, time=120),
    Message('control_change', channel=7, control=7, value=84, time=0),
    Message('control_change', channel=6, control=7, value=82, time=120),
    Message('control_change', channel=7, control=7, value=82, time=0),
    Message('note_off', channel=6, note=64, velocity=80, time=0),
    Message('note_on', channel=6, note=73, velocity=95, time=0),
    Message('control_change', channel=6, control=7, value=80, time=120),
    Message('control_change', channel=7, control=7, value=80, time=0),
    Message('control_change', channel=6, control=7, value=78, time=120),
    Message('control_change', channel=7, control=7, value=78, time=0),
    Message('note_off', channel=6, note=73, velocity=80, time=0),
    Message('note_on', channel=6, note=76, velocity=95, time=0),
    Message('control_change', channel=6, control=7, value=76, time=120),
    Message('control_change', channel=7, control=7, value=76, time=0),
    Message('control_change', channel=6, control=7, value=74, time=120),
    Message('control_change', channel=7, control=7, value=74, time=0),
    Message('note_off', channel=6, note=76, velocity=80, time=0),
    Message('note_on', channel=6, note=78, velocity=95, time=0),
    Message('control_change', channel=6, control=7, value=73, time=120),
    Message('control_change', channel=7, control=7, value=73, time=0),
    Message('control_change', channel=6, control=7, value=71, time=120),
    Message('control_change', channel=7, control=7, value=71, time=0),
    Message('note_off', channel=6, note=78, velocity=80, time=0),
    Message('note_on', channel=6, note=73, velocity=95, time=0),
    Message('control_change', channel=6, control=7, value=69, time=120),
    Message('control_change', channel=7, control=7, value=69, time=0),
    Message('control_change', channel=6, control=7, value=67, time=120),
    Message('control_change', channel=7, control=7, value=67, time=0),
    Message('control_change', channel=6, control=7, value=65, time=120),
    Message('control_change', channel=7, control=7, value=65, time=0),
    Message('control_change', channel=6, control=7, value=63, time=120),
    Message('control_change', channel=7, control=7, value=63, time=0),
    Message('note_off', channel=6, note=73, velocity=80, time=0),
    Message('note_on', channel=6, note=71, velocity=95, time=0),
    Message('control_change', channel=6, control=7, value=62, time=120),
    Message('control_change', channel=7, control=7, value=62, time=0),
    Message('control_change', channel=6, control=7, value=60, time=120),
    Message('control_change', channel=7, control=7, value=60, time=0),
    Message('note_off', channel=6, note=71, velocity=80, time=0),
    Message('note_on', channel=6, note=69, velocity=95, time=0),
    Message('control_change', channel=6, control=7, value=58, time=120),
    Message('control_change', channel=7, control=7, value=58, time=0),
    Message('control_change', channel=6, control=7, value=56, time=120),
    Message('control_change', channel=7, control=7, value=56, time=0),
    Message('control_change', channel=6, control=7, value=54, time=120),
    Message('control_change', channel=7, control=7, value=54, time=0),
    Message('control_change', channel=6, control=7, value=52, time=120),
    Message('control_change', channel=7, control=7, value=52, time=0),
    Message('control_change', channel=6, control=7, value=50, time=120),
    Message('control_change', channel=7, control=7, value=50, time=0),
    Message('control_change', channel=6, control=7, value=49, time=120),
    Message('control_change', channel=7, control=7, value=49, time=0),
    Message('control_change', channel=6, control=7, value=47, time=120),
    Message('control_change', channel=7, control=7, value=47, time=0),
    Message('control_change', channel=6, control=7, value=45, time=120),
    Message('control_change', channel=7, control=7, value=45, time=0),
    Message('control_change', channel=6, control=7, value=43, time=120),
    Message('control_change', channel=7, control=7, value=43, time=0),
    Message('control_change', channel=6, control=7, value=41, time=120),
    Message('control_change', channel=7, control=7, value=41, time=0),
    Message('control_change', channel=6, control=7, value=39, time=120),
    Message('control_change', channel=7, control=7, value=39, time=0),
    Message('control_change', channel=6, control=7, value=38, time=120),
    Message('control_change', channel=7, control=7, value=38, time=0),
    Message('note_off', channel=6, note=69, velocity=80, time=0),
    Message('control_change', channel=6, control=7, value=36, time=120),
    Message('control_change', channel=7, control=7, value=36, time=0),
    Message('control_change', channel=6, control=7, value=34, time=120),
    Message('control_change', channel=7, control=7, value=34, time=0),
    Message('control_change', channel=6, control=7, value=32, time=120),
    Message('control_change', channel=7, control=7, value=32, time=0),
    Message('control_change', channel=6, control=7, value=30, time=120),
    Message('control_change', channel=7, control=7, value=30, time=0),
    Message('control_change', channel=6, control=7, value=28, time=120),
    Message('control_change', channel=7, control=7, value=28, time=0),
    Message('control_change', channel=6, control=7, value=26, time=120),
    Message('control_change', channel=7, control=7, value=26, time=0),
    Message('control_change', channel=6, control=7, value=25, time=120),
    Message('control_change', channel=7, control=7, value=25, time=0),
    Message('control_change', channel=6, control=7, value=23, time=120),
    Message('control_change', channel=7, control=7, value=23, time=0),
    Message('control_change', channel=6, control=7, value=21, time=120),
    Message('control_change', channel=7, control=7, value=21, time=0),
    Message('control_change', channel=6, control=7, value=19, time=120),
    Message('control_change', channel=7, control=7, value=19, time=0),
    Message('control_change', channel=6, control=7, value=17, time=120),
    Message('control_change', channel=7, control=7, value=17, time=0),
    Message('control_change', channel=6, control=7, value=15, time=120),
    Message('control_change', channel=7, control=7, value=15, time=0),
    Message('control_change', channel=6, control=7, value=14, time=120),
    Message('control_change', channel=7, control=7, value=14, time=0),
    Message('control_change', channel=6, control=7, value=12, time=120),
    Message('control_change', channel=7, control=7, value=12, time=0),
    Message('control_change', channel=6, control=7, value=10, time=120),
    Message('control_change', channel=7, control=7, value=10, time=0),
    Message('control_change', channel=6, control=7, value=8, time=120),
    Message('control_change', channel=7, control=7, value=8, time=0),
    MetaMessage('end_of_track', time=0)]),
  MidiTrack([
    MetaMessage('track_name', name='Lead Guitar', time=0),
    Message('control_change', channel=10, control=100, value=0, time=0),
    Message('control_change', channel=10, control=101, value=0, time=0),
    Message('control_change', channel=10, control=6, value=12, time=0),
    Message('pitchwheel', channel=10, pitch=0, time=0),
    Message('control_change', channel=11, control=100, value=0, time=0),
    Message('control_change', channel=11, control=101, value=0, time=0),
    Message('control_change', channel=11, control=6, value=12, time=0),
    Message('pitchwheel', channel=11, pitch=0, time=0),
    Message('program_change', channel=10, program=30, time=0),
    Message('program_change', channel=11, program=30, time=0),
    Message('control_change', channel=10, control=7, value=104, time=0),
    Message('control_change', channel=11, control=7, value=104, time=0),
    Message('control_change', channel=10, control=10, value=48, time=0),
    Message('control_change', channel=11, control=10, value=48, time=0),
    Message('control_change', channel=10, control=93, value=64, time=0),
    Message('control_change', channel=11, control=93, value=64, time=0),
    Message('control_change', channel=10, control=91, value=80, time=0),
    Message('control_change', channel=11, control=91, value=80, time=0),
    Message('control_change', channel=10, control=92, value=0, time=0),
    Message('control_change', channel=11, control=92, value=0, time=0),
    Message('control_change', channel=10, control=95, value=0, time=0),
    Message('control_change', channel=11, control=95, value=0, time=0),
    Message('note_on', channel=11, note=64, velocity=127, time=68880),
    Message('pitchwheel', channel=11, pitch=0, time=0),
    Message('pitchwheel', channel=11, pitch=128, time=16),
    Message('pitchwheel', channel=11, pitch=256, time=32),
    Message('pitchwheel', channel=11, pitch=384, time=16),
    Message('pitchwheel', channel=11, pitch=512, time=16),
    Message('pitchwheel', channel=11, pitch=640, time=32),
    Message('pitchwheel', channel=11, pitch=768, time=16),
    Message('pitchwheel', channel=11, pitch=896, time=32),
    Message('pitchwheel', channel=11, pitch=1024, time=16),
    Message('pitchwheel', channel=11, pitch=1152, time=16),
    Message('pitchwheel', channel=11, pitch=1280, time=32),
    Message('pitchwheel', channel=11, pitch=1408, time=16),
    Message('note_off', channel=11, note=64, velocity=80, time=240),
    Message('pitchwheel', channel=11, pitch=0, time=0),
    Message('note_on', channel=11, note=64, velocity=127, time=0),
    Message('pitchwheel', channel=11, pitch=0, time=0),
    Message('pitchwheel', channel=11, pitch=128, time=16),
    Message('pitchwheel', channel=11, pitch=384, time=16),
    Message('pitchwheel', channel=11, pitch=512, time=16),
    Message('pitchwheel', channel=11, pitch=768, time=16),
    Message('pitchwheel', channel=11, pitch=896, time=16),
    Message('pitchwheel', channel=11, pitch=1152, time=16),
    Message('pitchwheel', channel=11, pitch=1280, time=16),
    Message('pitchwheel', channel=11, pitch=1408, time=16),
    Message('note_off', channel=11, note=64, velocity=80, time=112),
    Message('pitchwheel', channel=11, pitch=0, time=0),
    Message('note_on', channel=11, note=64, velocity=127, time=0),
    Message('pitchwheel', channel=11, pitch=0, time=0),
    Message('pitchwheel', channel=11, pitch=128, time=16),
    Message('pitchwheel', channel=11, pitch=384, time=16),
    Message('pitchwheel', channel=11, pitch=512, time=16),
    Message('pitchwheel', channel=11, pitch=768, time=16),
    Message('pitchwheel', channel=11, pitch=896, time=16),
    Message('pitchwheel', channel=11, pitch=1152, time=16),
    Message('pitchwheel', channel=11, pitch=1280, time=16),
    Message('pitchwheel', channel=11, pitch=1408, time=16),
    Message('note_off', channel=11, note=64, velocity=80, time=112),
    Message('pitchwheel', channel=11, pitch=0, time=0),
    Message('note_on', channel=11, note=64, velocity=127, time=0),
    Message('pitchwheel', channel=11, pitch=0, time=0),
    Message('pitchwheel', channel=11, pitch=128, time=16),
    Message('pitchwheel', channel=11, pitch=384, time=16),
    Message('pitchwheel', channel=11, pitch=512, time=16),
    Message('pitchwheel', channel=11, pitch=768, time=16),
    Message('pitchwheel', channel=11, pitch=896, time=16),
    Message('pitchwheel', channel=11, pitch=1152, time=16),
    Message('pitchwheel', channel=11, pitch=1280, time=16),
    Message('pitchwheel', channel=11, pitch=1408, time=16),
    Message('note_off', channel=11, note=64, velocity=80, time=112),
    Message('pitchwheel', channel=11, pitch=0, time=0),
    Message('note_on', channel=11, note=64, velocity=127, time=0),
    Message('pitchwheel', channel=11, pitch=0, time=0),
    Message('pitchwheel', channel=11, pitch=128, time=16),
    Message('pitchwheel', channel=11, pitch=384, time=16),
    Message('pitchwheel', channel=11, pitch=512, time=16),
    Message('pitchwheel', channel=11, pitch=768, time=16),
    Message('pitchwheel', channel=11, pitch=896, time=16),
    Message('pitchwheel', channel=11, pitch=1152, time=16),
    Message('pitchwheel', channel=11, pitch=1280, time=16),
    Message('pitchwheel', channel=11, pitch=1408, time=16),
    Message('pitchwheel', channel=11, pitch=1152, time=128),
    Message('pitchwheel', channel=11, pitch=1024, time=16),
    Message('pitchwheel', channel=11, pitch=768, time=16),
    Message('pitchwheel', channel=11, pitch=640, time=16),
    Message('pitchwheel', channel=11, pitch=512, time=16),
    Message('pitchwheel', channel=11, pitch=256, time=16),
    Message('pitchwheel', channel=11, pitch=128, time=16),
    Message('pitchwheel', channel=11, pitch=0, time=16),
    Message('note_off', channel=11, note=64, velocity=80, time=112),
    Message('pitchwheel', channel=11, pitch=0, time=0),
    Message('note_on', channel=10, note=61, velocity=127, time=0),
    Message('note_off', channel=10, note=61, velocity=80, time=240),
    Message('note_on', channel=10, note=59, velocity=127, time=0),
    Message('note_off', channel=10, note=59, velocity=80, time=240),
    Message('note_on', channel=11, note=59, velocity=127, time=0),
    Message('pitchwheel', channel=11, pitch=0, time=0),
    Message('pitchwheel', channel=11, pitch=128, time=16),
    Message('pitchwheel', channel=11, pitch=384, time=16),
    Message('pitchwheel', channel=11, pitch=512, time=16),
    Message('pitchwheel', channel=11, pitch=768, time=16),
    Message('pitchwheel', channel=11, pitch=896, time=16),
    Message('pitchwheel', channel=11, pitch=1152, time=16),
    Message('pitchwheel', channel=11, pitch=1280, time=16),
    Message('pitchwheel', channel=11, pitch=1408, time=16),
    Message('note_off', channel=11, note=59, velocity=80, time=112),
    Message('pitchwheel', channel=11, pitch=0, time=0),
    Message('note_on', channel=11, note=59, velocity=127, time=0),
    Message('pitchwheel', channel=11, pitch=0, time=0),
    Message('pitchwheel', channel=11, pitch=128, time=16),
    Message('pitchwheel', channel=11, pitch=384, time=16),
    Message('pitchwheel', channel=11, pitch=512, time=16),
    Message('pitchwheel', channel=11, pitch=768, time=16),
    Message('pitchwheel', channel=11, pitch=896, time=16),
    Message('pitchwheel', channel=11, pitch=1152, time=16),
    Message('pitchwheel', channel=11, pitch=1280, time=16),
    Message('pitchwheel', channel=11, pitch=1408, time=16),
    Message('pitchwheel', channel=11, pitch=1152, time=128),
    Message('pitchwheel', channel=11, pitch=1024, time=16),
    Message('pitchwheel', channel=11, pitch=768, time=16),
    Message('pitchwheel', channel=11, pitch=640, time=16),
    Message('pitchwheel', channel=11, pitch=512, time=16),
    Message('pitchwheel', channel=11, pitch=256, time=16),
    Message('pitchwheel', channel=11, pitch=128, time=16),
    Message('pitchwheel', channel=11, pitch=0, time=16),
    Message('note_off', channel=11, note=59, velocity=80, time=112),
    Message('pitchwheel', channel=11, pitch=0, time=0),
    Message('note_on', channel=11, note=57, velocity=127, time=0),
    Message('pitchwheel', channel=11, pitch=0, time=80),
    Message('pitchwheel', channel=11, pitch=256, time=80),
    Message('pitchwheel', channel=11, pitch=0, time=80),
    Message('pitchwheel', channel=11, pitch=256, time=80),
    Message('pitchwheel', channel=11, pitch=0, time=80),
    Message('note_off', channel=11, note=57, velocity=80, time=80),
    Message('pitchwheel', channel=11, pitch=256, time=0),
    Message('pitchwheel', channel=11, pitch=0, time=0),
    Message('note_on', channel=11, note=57, velocity=127, time=240),
    Message('pitchwheel', channel=11, pitch=-640, time=240),
    Message('pitchwheel', channel=11, pitch=-1408, time=22),
    Message('pitchwheel', channel=11, pitch=-2048, time=22),
    Message('pitchwheel', channel=11, pitch=-2688, time=21),
    Message('pitchwheel', channel=11, pitch=-3456, time=22),
    Message('pitchwheel', channel=11, pitch=-4096, time=22),
    Message('pitchwheel', channel=11, pitch=-4736, time=22),
    Message('pitchwheel', channel=11, pitch=-5504, time=22),
    Message('pitchwheel', channel=11, pitch=-6144, time=22),
    Message('pitchwheel', channel=11, pitch=-6784, time=21),
    Message('pitchwheel', channel=11, pitch=-7552, time=22),
    Message('pitchwheel', channel=11, pitch=-8192, time=22),
    Message('pitchwheel', channel=11, pitch=-8192, time=22),
    Message('note_off', channel=11, note=57, velocity=80, time=698),
    Message('pitchwheel', channel=11, pitch=0, time=0),
    Message('note_on', channel=11, note=47, velocity=114, time=0),
    Message('pitchwheel', channel=11, pitch=640, time=120),
    Message('pitchwheel', channel=11, pitch=1408, time=120),
    Message('note_off', channel=11, note=47, velocity=80, time=240),
    Message('pitchwheel', channel=11, pitch=0, time=0),
    Message('note_on', channel=10, note=57, velocity=127, time=0),
    Message('note_on', channel=10, note=52, velocity=127, time=0),
    Message('note_off', channel=10, note=57, velocity=80, time=480),
    Message('note_off', channel=10, note=52, velocity=80, time=0),
    Message('note_on', channel=10, note=57, velocity=127, time=0),
    Message('note_on', channel=10, note=52, velocity=127, time=0),
    Message('note_off', channel=10, note=57, velocity=80, time=240),
    Message('note_off', channel=10, note=52, velocity=80, time=0),
    Message('note_on', channel=10, note=64, velocity=127, time=0),
    Message('note_on', channel=11, note=59, velocity=127, time=0),
    Message('pitchwheel', channel=11, pitch=0, time=0),
    Message('pitchwheel', channel=11, pitch=128, time=16),
    Message('pitchwheel', channel=11, pitch=384, time=16),
    Message('pitchwheel', channel=11, pitch=512, time=16),
    Message('pitchwheel', channel=11, pitch=768, time=16),
    Message('pitchwheel', channel=11, pitch=896, time=16),
    Message('pitchwheel', channel=11, pitch=1152, time=16),
    Message('pitchwheel', channel=11, pitch=1280, time=16),
    Message('pitchwheel', channel=11, pitch=1408, time=16),
    Message('note_off', channel=10, note=64, velocity=80, time=112),
    Message('note_off', channel=11, note=59, velocity=80, time=0),
    Message('pitchwheel', channel=11, pitch=0, time=0),
    Message('note_on', channel=10, note=64, velocity=127, time=240),
    Message('note_on', channel=11, note=59, velocity=127, time=0),
    Message('pitchwheel', channel=11, pitch=0, time=0),
    Message('pitchwheel', channel=11, pitch=128, time=16),
    Message('pitchwheel', channel=11, pitch=384, time=16),
    Message('pitchwheel', channel=11, pitch=512, time=16),
    Message('pitchwheel', channel=11, pitch=768, time=16),
    Message('pitchwheel', channel=11, pitch=896, time=16),
    Message('pitchwheel', channel=11, pitch=1152, time=16),
    Message('pitchwheel', channel=11, pitch=1280, time=16),
    Message('pitchwheel', channel=11, pitch=1408, time=16),
    Message('note_off', channel=10, note=64, velocity=80, time=112),
    Message('note_off', channel=11, note=59, velocity=80, time=0),
    Message('pitchwheel', channel=11, pitch=0, time=0),
    Message('note_on', channel=10, note=64, velocity=127, time=240),
    Message('note_on', channel=11, note=59, velocity=127, time=0),
    Message('pitchwheel', channel=11, pitch=0, time=0),
    Message('pitchwheel', channel=11, pitch=384, time=16),
    Message('pitchwheel', channel=11, pitch=768, time=16),
    Message('pitchwheel', channel=11, pitch=1152, time=16),
    Message('pitchwheel', channel=11, pitch=1408, time=16),
    Message('pitchwheel', channel=11, pitch=1152, time=64),
    Message('pitchwheel', channel=11, pitch=768, time=16),
    Message('pitchwheel', channel=11, pitch=512, time=16),
    Message('pitchwheel', channel=11, pitch=128, time=16),
    Message('pitchwheel', channel=11, pitch=0, time=16),
    Message('note_off', channel=10, note=64, velocity=80, time=48),
    Message('note_off', channel=11, note=59, velocity=80, time=0),
    Message('pitchwheel', channel=11, pitch=0, time=0),
    Message('note_on', channel=10, note=57, velocity=127, time=0),
    Message('note_off', channel=10, note=57, velocity=80, time=240),
    Message('note_on', channel=10, note=64, velocity=127, time=0),
    Message('note_on', channel=10, note=59, velocity=127, time=0),
    Message('note_off', channel=10, note=64, velocity=80, time=240),
    Message('note_off', channel=10, note=59, velocity=80, time=0),
    Message('note_on', channel=10, note=57, velocity=127, time=0),
    Message('note_on', channel=10, note=64, velocity=127, time=120),
    Message('note_off', channel=10, note=64, velocity=80, time=119),
    Message('note_off', channel=10, note=57, velocity=80, time=1),
    Message('note_on', channel=10, note=66, velocity=127, time=0),
    Message('note_off', channel=10, note=66, velocity=80, time=240),
    Message('note_on', channel=10, note=64, velocity=127, time=240),
    Message('note_on', channel=10, note=61, velocity=127, time=360),
    Message('note_off', channel=10, note=61, velocity=80, time=119),
    Message('note_off', channel=10, note=64, velocity=80, time=1),
    Message('note_on', channel=10, note=59, velocity=127, time=0),
    Message('note_off', channel=10, note=59, velocity=80, time=240),
    Message('note_on', channel=10, note=57, velocity=114, time=0),
    Message('note_off', channel=10, note=57, velocity=80, time=240),
    Message('note_on', channel=11, note=59, velocity=127, time=0),
    Message('pitchwheel', channel=11, pitch=0, time=0),
    Message('pitchwheel', channel=11, pitch=128, time=16),
    Message('pitchwheel', channel=11, pitch=256, time=32),
    Message('pitchwheel', channel=11, pitch=384, time=16),
    Message('pitchwheel', channel=11, pitch=512, time=16),
    Message('pitchwheel', channel=11, pitch=640, time=32),
    Message('pitchwheel', channel=11, pitch=768, time=16),
    Message('pitchwheel', channel=11, pitch=896, time=32),
    Message('pitchwheel', channel=11, pitch=1024, time=16),
    Message('pitchwheel', channel=11, pitch=1152, time=16),
    Message('pitchwheel', channel=11, pitch=1280, time=32),
    Message('pitchwheel', channel=11, pitch=1408, time=16),
    Message('note_off', channel=11, note=59, velocity=80, time=240),
    Message('pitchwheel', channel=11, pitch=0, time=0),
    Message('note_on', channel=11, note=59, velocity=127, time=0),
    Message('pitchwheel', channel=11, pitch=0, time=80),
    Message('pitchwheel', channel=11, pitch=256, time=80),
    Message('pitchwheel', channel=11, pitch=0, time=80),
    Message('pitchwheel', channel=11, pitch=256, time=80),
    Message('pitchwheel', channel=11, pitch=0, time=80),
    Message('pitchwheel', channel=11, pitch=256, time=80),
    Message('pitchwheel', channel=11, pitch=0, time=80),
    Message('pitchwheel', channel=11, pitch=256, time=80),
    Message('pitchwheel', channel=11, pitch=0, time=80),
    Message('pitchwheel', channel=11, pitch=256, time=80),
    Message('pitchwheel', channel=11, pitch=0, time=80),
    Message('pitchwheel', channel=11, pitch=256, time=80),
    Message('pitchwheel', channel=11, pitch=0, time=80),
    Message('pitchwheel', channel=11, pitch=256, time=80),
    Message('pitchwheel', channel=11, pitch=0, time=80),
    Message('pitchwheel', channel=11, pitch=256, time=80),
    Message('pitchwheel', channel=11, pitch=0, time=80),
    Message('note_off', channel=11, note=59, velocity=80, time=80),
    Message('pitchwheel', channel=11, pitch=256, time=0),
    Message('pitchwheel', channel=11, pitch=0, time=0),
    Message('note_on', channel=11, note=54, velocity=127, time=0),
    Message('pitchwheel', channel=11, pitch=0, time=0),
    Message('pitchwheel', channel=11, pitch=128, time=16),
    Message('pitchwheel', channel=11, pitch=384, time=16),
    Message('pitchwheel', channel=11, pitch=512, time=16),
    Message('pitchwheel', channel=11, pitch=768, time=16),
    Message('pitchwheel', channel=11, pitch=896, time=16),
    Message('pitchwheel', channel=11, pitch=1152, time=16),
    Message('pitchwheel', channel=11, pitch=1280, time=16),
    Message('pitchwheel', channel=11, pitch=1408, time=16),
    Message('pitchwheel', channel=11, pitch=1152, time=128),
    Message('pitchwheel', channel=11, pitch=1024, time=16),
    Message('pitchwheel', channel=11, pitch=768, time=16),
    Message('pitchwheel', channel=11, pitch=640, time=16),
    Message('pitchwheel', channel=11, pitch=512, time=16),
    Message('pitchwheel', channel=11, pitch=256, time=16),
    Message('pitchwheel', channel=11, pitch=128, time=16),
    Message('pitchwheel', channel=11, pitch=0, time=16),
    Message('note_off', channel=11, note=54, velocity=80, time=112),
    Message('pitchwheel', channel=11, pitch=0, time=0),
    Message('note_on', channel=11, note=52, velocity=127, time=0),
    Message('pitchwheel', channel=11, pitch=0, time=80),
    Message('pitchwheel', channel=11, pitch=256, time=80),
    Message('pitchwheel', channel=11, pitch=0, time=80),
    Message('pitchwheel', channel=11, pitch=256, time=80),
    Message('pitchwheel', channel=11, pitch=0, time=80),
    Message('pitchwheel', channel=11, pitch=256, time=80),
    Message('pitchwheel', channel=11, pitch=0, time=80),
    Message('pitchwheel', channel=11, pitch=256, time=80),
    Message('pitchwheel', channel=11, pitch=0, time=80),
    Message('pitchwheel', channel=11, pitch=256, time=80),
    Message('pitchwheel', channel=11, pitch=0, time=80),
    Message('pitchwheel', channel=11, pitch=256, time=80),
    Message('pitchwheel', channel=11, pitch=0, time=80),
    Message('pitchwheel', channel=11, pitch=256, time=80),
    Message('pitchwheel', channel=11, pitch=0, time=80),
    Message('pitchwheel', channel=11, pitch=256, time=80),
    Message('pitchwheel', channel=11, pitch=0, time=80),
    Message('note_off', channel=11, note=52, velocity=80, time=80),
    Message('pitchwheel', channel=11, pitch=256, time=0),
    Message('pitchwheel', channel=11, pitch=0, time=0),
    Message('note_on', channel=11, note=47, velocity=114, time=0),
    Message('pitchwheel', channel=11, pitch=0, time=0),
    Message('pitchwheel', channel=11, pitch=128, time=16),
    Message('pitchwheel', channel=11, pitch=384, time=16),
    Message('pitchwheel', channel=11, pitch=512, time=16),
    Message('pitchwheel', channel=11, pitch=768, time=16),
    Message('pitchwheel', channel=11, pitch=896, time=16),
    Message('pitchwheel', channel=11, pitch=1152, time=16),
    Message('pitchwheel', channel=11, pitch=1280, time=16),
    Message('pitchwheel', channel=11, pitch=1408, time=16),
    Message('pitchwheel', channel=11, pitch=1152, time=128),
    Message('pitchwheel', channel=11, pitch=1024, time=16),
    Message('pitchwheel', channel=11, pitch=768, time=16),
    Message('pitchwheel', channel=11, pitch=640, time=16),
    Message('pitchwheel', channel=11, pitch=512, time=16),
    Message('pitchwheel', channel=11, pitch=256, time=16),
    Message('pitchwheel', channel=11, pitch=128, time=16),
    Message('pitchwheel', channel=11, pitch=0, time=16),
    Message('note_off', channel=11, note=47, velocity=80, time=112),
    Message('pitchwheel', channel=11, pitch=0, time=0),
    Message('note_on', channel=10, note=45, velocity=127, time=0),
    Message('note_off', channel=10, note=45, velocity=80, time=720),
    Message('note_on', channel=10, note=45, velocity=127, time=0),
    Message('note_on', channel=10, note=47, velocity=127, time=120),
    Message('note_off', channel=10, note=47, velocity=80, time=119),
    Message('note_off', channel=10, note=45, velocity=80, time=1),
    Message('note_on', channel=10, note=49, velocity=127, time=0),
    Message('note_off', channel=10, note=49, velocity=80, time=240),
    Message('note_on', channel=10, note=52, velocity=127, time=0),
    Message('note_off', channel=10, note=52, velocity=80, time=240),
    Message('note_on', channel=11, note=49, velocity=127, time=0),
    Message('pitchwheel', channel=11, pitch=-640, time=120),
    Message('pitchwheel', channel=11, pitch=-1408, time=120),
    Message('note_off', channel=11, note=49, velocity=80, time=240),
    Message('pitchwheel', channel=11, pitch=0, time=0),
    Message('note_on', channel=10, note=45, velocity=86, time=0),
    Message('note_off', channel=10, note=45, velocity=80, time=1920),
    Message('note_on', channel=11, note=62, velocity=95, time=57840),
    Message('pitchwheel', channel=11, pitch=0, time=0),
    Message('pitchwheel', channel=11, pitch=128, time=16),
    Message('pitchwheel', channel=11, pitch=384, time=16),
    Message('pitchwheel', channel=11, pitch=512, time=16),
    Message('pitchwheel', channel=11, pitch=768, time=16),
    Message('pitchwheel', channel=11, pitch=896, time=16),
    Message('pitchwheel', channel=11, pitch=1152, time=16),
    Message('pitchwheel', channel=11, pitch=1280, time=16),
    Message('pitchwheel', channel=11, pitch=1408, time=16),
    Message('note_off', channel=11, note=62, velocity=80, time=112),
    Message('pitchwheel', channel=11, pitch=0, time=0),
    Message('note_on', channel=10, note=69, velocity=95, time=0),
    Message('note_on', channel=10, note=64, velocity=95, time=0),
    Message('note_off', channel=10, note=69, velocity=80, time=240),
    Message('note_off', channel=10, note=64, velocity=80, time=0),
    Message('note_on', channel=10, note=64, velocity=95, time=0),
    Message('note_off', channel=10, note=64, velocity=80, time=240),
    Message('note_on', channel=11, note=62, velocity=95, time=0),
    Message('pitchwheel', channel=11, pitch=0, time=0),
    Message('pitchwheel', channel=11, pitch=128, time=16),
    Message('pitchwheel', channel=11, pitch=384, time=16),
    Message('pitchwheel', channel=11, pitch=512, time=16),
    Message('pitchwheel', channel=11, pitch=768, time=16),
    Message('pitchwheel', channel=11, pitch=896, time=16),
    Message('pitchwheel', channel=11, pitch=1152, time=16),
    Message('pitchwheel', channel=11, pitch=1280, time=16),
    Message('pitchwheel', channel=11, pitch=1408, time=16),
    Message('note_off', channel=11, note=62, velocity=80, time=112),
    Message('pitchwheel', channel=11, pitch=0, time=0),
    Message('note_on', channel=10, note=69, velocity=95, time=0),
    Message('note_on', channel=10, note=64, velocity=95, time=0),
    Message('note_off', channel=10, note=69, velocity=80, time=240),
    Message('note_off', channel=10, note=64, velocity=80, time=0),
    Message('note_on', channel=11, note=62, velocity=95, time=0),
    Message('pitchwheel', channel=11, pitch=0, time=0),
    Message('pitchwheel', channel=11, pitch=128, time=16),
    Message('pitchwheel', channel=11, pitch=384, time=16),
    Message('pitchwheel', channel=11, pitch=512, time=16),
    Message('pitchwheel', channel=11, pitch=768, time=16),
    Message('pitchwheel', channel=11, pitch=896, time=16),
    Message('pitchwheel', channel=11, pitch=1152, time=16),
    Message('pitchwheel', channel=11, pitch=1280, time=16),
    Message('pitchwheel', channel=11, pitch=1408, time=16),
    Message('note_off', channel=11, note=62, velocity=80, time=112),
    Message('pitchwheel', channel=11, pitch=0, time=0),
    Message('note_on', channel=10, note=69, velocity=95, time=0),
    Message('note_on', channel=10, note=64, velocity=95, time=0),
    Message('note_off', channel=10, note=69, velocity=80, time=240),
    Message('note_off', channel=10, note=64, velocity=80, time=0),
    Message('note_on', channel=11, note=62, velocity=95, time=0),
    Message('pitchwheel', channel=11, pitch=0, time=0),
    Message('pitchwheel', channel=11, pitch=128, time=16),
    Message('pitchwheel', channel=11, pitch=384, time=16),
    Message('pitchwheel', channel=11, pitch=512, time=16),
    Message('pitchwheel', channel=11, pitch=768, time=16),
    Message('pitchwheel', channel=11, pitch=896, time=16),
    Message('pitchwheel', channel=11, pitch=1152, time=16),
    Message('pitchwheel', channel=11, pitch=1280, time=16),
    Message('pitchwheel', channel=11, pitch=1408, time=16),
    Message('note_off', channel=11, note=62, velocity=80, time=112),
    Message('pitchwheel', channel=11, pitch=0, time=0),
    Message('note_on', channel=10, note=69, velocity=95, time=0),
    Message('note_on', channel=10, note=64, velocity=95, time=0),
    Message('note_off', channel=10, note=69, velocity=80, time=240),
    Message('note_off', channel=10, note=64, velocity=80, time=0),
    Message('note_on', channel=10, note=64, velocity=95, time=0),
    Message('note_off', channel=10, note=64, velocity=80, time=240),
    Message('note_on', channel=10, note=64, velocity=95, time=0),
    Message('note_off', channel=10, note=64, velocity=80, time=240),
    Message('note_on', channel=11, note=62, velocity=95, time=0),
    Message('pitchwheel', channel=11, pitch=0, time=0),
    Message('pitchwheel', channel=11, pitch=384, time=16),
    Message('pitchwheel', channel=11, pitch=768, time=16),
    Message('pitchwheel', channel=11, pitch=1152, time=16),
    Message('pitchwheel', channel=11, pitch=1408, time=16),
    Message('pitchwheel', channel=11, pitch=1152, time=64),
    Message('pitchwheel', channel=11, pitch=768, time=16),
    Message('pitchwheel', channel=11, pitch=512, time=16),
    Message('pitchwheel', channel=11, pitch=128, time=16),
    Message('pitchwheel', channel=11, pitch=0, time=16),
    Message('note_off', channel=11, note=62, velocity=80, time=48),
    Message('pitchwheel', channel=11, pitch=0, time=0),
    Message('note_on', channel=10, note=69, velocity=95, time=0),
    Message('note_on', channel=10, note=62, velocity=63, time=0),
    Message('note_off', channel=10, note=69, velocity=80, time=120),
    Message('note_off', channel=10, note=62, velocity=80, time=0),
    Message('note_on', channel=10, note=60, velocity=86, time=0),
    Message('note_off', channel=10, note=60, velocity=80, time=120),
    Message('note_on', channel=10, note=62, velocity=95, time=0),
    Message('note_off', channel=10, note=62, velocity=80, time=240),
    Message('note_on', channel=11, note=60, velocity=95, time=0),
    Message('pitchwheel', channel=11, pitch=0, time=0),
    Message('pitchwheel', channel=11, pitch=128, time=32),
    Message('pitchwheel', channel=11, pitch=256, time=48),
    Message('pitchwheel', channel=11, pitch=384, time=48),
    Message('note_off', channel=11, note=60, velocity=80, time=112),
    Message('pitchwheel', channel=11, pitch=0, time=0),
    Message('note_on', channel=11, note=57, velocity=95, time=0),
    Message('pitchwheel', channel=11, pitch=0, time=80),
    Message('pitchwheel', channel=11, pitch=256, time=80),
    Message('pitchwheel', channel=11, pitch=0, time=80),
    Message('pitchwheel', channel=11, pitch=256, time=80),
    Message('pitchwheel', channel=11, pitch=0, time=80),
    Message('pitchwheel', channel=11, pitch=256, time=80),
    Message('pitchwheel', channel=11, pitch=0, time=80),
    Message('pitchwheel', channel=11, pitch=256, time=80),
    Message('pitchwheel', channel=11, pitch=0, time=80),
    Message('pitchwheel', channel=11, pitch=256, time=80),
    Message('pitchwheel', channel=11, pitch=0, time=80),
    Message('pitchwheel', channel=11, pitch=256, time=80),
    Message('pitchwheel', channel=11, pitch=0, time=80),
    Message('pitchwheel', channel=11, pitch=256, time=80),
    Message('pitchwheel', channel=11, pitch=0, time=80),
    Message('pitchwheel', channel=11, pitch=256, time=80),
    Message('pitchwheel', channel=11, pitch=0, time=80),
    Message('note_off', channel=11, note=57, velocity=80, time=80),
    Message('pitchwheel', channel=11, pitch=256, time=0),
    Message('pitchwheel', channel=11, pitch=0, time=0),
    Message('note_on', channel=11, note=57, velocity=63, time=0),
    Message('pitchwheel', channel=11, pitch=-640, time=240),
    Message('pitchwheel', channel=11, pitch=-1408, time=80),
    Message('pitchwheel', channel=11, pitch=-2048, time=80),
    Message('note_off', channel=11, note=57, velocity=80, time=80),
    Message('pitchwheel', channel=11, pitch=0, time=0),
    Message('note_on', channel=10, note=64, velocity=95, time=480),
    Message('note_on', channel=11, note=59, velocity=95, time=0),
    Message('pitchwheel', channel=11, pitch=0, time=0),
    Message('pitchwheel', channel=11, pitch=128, time=16),
    Message('pitchwheel', channel=11, pitch=384, time=16),
    Message('pitchwheel', channel=11, pitch=512, time=16),
    Message('pitchwheel', channel=11, pitch=768, time=16),
    Message('pitchwheel', channel=11, pitch=896, time=16),
    Message('pitchwheel', channel=11, pitch=1152, time=16),
    Message('pitchwheel', channel=11, pitch=1280, time=16),
    Message('pitchwheel', channel=11, pitch=1408, time=16),
    Message('note_off', channel=10, note=64, velocity=80, time=112),
    Message('note_off', channel=11, note=59, velocity=80, time=0),
    Message('pitchwheel', channel=11, pitch=0, time=0),
    Message('note_on', channel=10, note=64, velocity=95, time=240),
    Message('note_on', channel=11, note=59, velocity=95, time=0),
    Message('pitchwheel', channel=11, pitch=0, time=0),
    Message('pitchwheel', channel=11, pitch=768, time=16),
    Message('pitchwheel', channel=11, pitch=1408, time=16),
    Message('pitchwheel', channel=11, pitch=1152, time=32),
    Message('pitchwheel', channel=11, pitch=512, time=16),
    Message('pitchwheel', channel=11, pitch=0, time=16),
    Message('note_off', channel=10, note=64, velocity=80, time=24),
    Message('note_off', channel=11, note=59, velocity=80, time=0),
    Message('pitchwheel', channel=11, pitch=0, time=0),
    Message('note_on', channel=10, note=59, velocity=63, time=0),
    Message('note_off', channel=10, note=59, velocity=80, time=120),
    Message('note_on', channel=10, note=57, velocity=86, time=0),
    Message('note_off', channel=10, note=57, velocity=80, time=240),
    Message('note_on', channel=10, note=54, velocity=95, time=0),
    Message('note_off', channel=10, note=54, velocity=80, time=240),
    Message('note_on', channel=10, note=57, velocity=95, time=0),
    Message('note_off', channel=10, note=57, velocity=80, time=240),
    Message('note_on', channel=10, note=45, velocity=95, time=0),
    Message('note_off', channel=10, note=45, velocity=80, time=3360),
    Message('note_on', channel=11, note=71, velocity=95, time=7680),
    Message('pitchwheel', channel=11, pitch=0, time=0),
    Message('pitchwheel', channel=11, pitch=128, time=16),
    Message('pitchwheel', channel=11, pitch=256, time=32),
    Message('pitchwheel', channel=11, pitch=384, time=16),
    Message('pitchwheel', channel=11, pitch=512, time=16),
    Message('pitchwheel', channel=11, pitch=640, time=32),
    Message('pitchwheel', channel=11, pitch=768, time=16),
    Message('pitchwheel', channel=11, pitch=896, time=32),
    Message('pitchwheel', channel=11, pitch=1024, time=16),
    Message('pitchwheel', channel=11, pitch=1152, time=16),
    Message('pitchwheel', channel=11, pitch=1280, time=32),
    Message('pitchwheel', channel=11, pitch=1408, time=16),
    Message('note_off', channel=11, note=71, velocity=80, time=240),
    Message('pitchwheel', channel=11, pitch=0, time=0),
    Message('note_on', channel=10, note=57, velocity=95, time=0),
    Message('note_on', channel=10, note=52, velocity=95, time=0),
    Message('note_off', channel=10, note=57, velocity=80, time=2400),
    Message('note_off', channel=10, note=52, velocity=80, time=0),
    Message('note_on', channel=10, note=64, velocity=95, time=240),
    Message('note_on', channel=11, note=59, velocity=95, time=0),
    Message('pitchwheel', channel=11, pitch=0, time=0),
    Message('pitchwheel', channel=11, pitch=128, time=16),
    Message('pitchwheel', channel=11, pitch=384, time=16),
    Message('pitchwheel', channel=11, pitch=512, time=16),
    Message('pitchwheel', channel=11, pitch=768, time=16),
    Message('pitchwheel', channel=11, pitch=896, time=16),
    Message('pitchwheel', channel=11, pitch=1152, time=16),
    Message('pitchwheel', channel=11, pitch=1280, time=16),
    Message('pitchwheel', channel=11, pitch=1408, time=16),
    Message('pitchwheel', channel=11, pitch=1152, time=128),
    Message('pitchwheel', channel=11, pitch=1024, time=16),
    Message('pitchwheel', channel=11, pitch=768, time=16),
    Message('pitchwheel', channel=11, pitch=640, time=16),
    Message('pitchwheel', channel=11, pitch=512, time=16),
    Message('pitchwheel', channel=11, pitch=256, time=16),
    Message('pitchwheel', channel=11, pitch=128, time=16),
    Message('pitchwheel', channel=11, pitch=0, time=16),
    Message('note_off', channel=10, note=64, velocity=80, time=112),
    Message('note_off', channel=11, note=59, velocity=80, time=0),
    Message('pitchwheel', channel=11, pitch=0, time=0),
    Message('note_on', channel=10, note=57, velocity=95, time=0),
    Message('note_off', channel=10, note=57, velocity=80, time=240),
    Message('note_on', channel=10, note=54, velocity=95, time=0),
    Message('note_off', channel=10, note=54, velocity=80, time=240),
    Message('note_on', channel=10, note=57, velocity=95, time=0),
    Message('note_on', channel=10, note=52, velocity=95, time=0),
    Message('note_off', channel=10, note=57, velocity=80, time=2160),
    Message('note_off', channel=10, note=52, velocity=80, time=0),
    Message('note_on', channel=10, note=64, velocity=95, time=5760),
    Message('note_on', channel=11, note=59, velocity=95, time=0),
    Message('pitchwheel', channel=11, pitch=0, time=0),
    Message('pitchwheel', channel=11, pitch=128, time=16),
    Message('pitchwheel', channel=11, pitch=384, time=16),
    Message('pitchwheel', channel=11, pitch=512, time=16),
    Message('pitchwheel', channel=11, pitch=768, time=16),
    Message('pitchwheel', channel=11, pitch=896, time=16),
    Message('pitchwheel', channel=11, pitch=1152, time=16),
    Message('pitchwheel', channel=11, pitch=1280, time=16),
    Message('pitchwheel', channel=11, pitch=1408, time=16),
    Message('note_off', channel=10, note=64, velocity=80, time=112),
    Message('note_off', channel=11, note=59, velocity=80, time=0),
    Message('pitchwheel', channel=11, pitch=0, time=0),
    Message('note_on', channel=10, note=64, velocity=95, time=0),
    Message('note_on', channel=11, note=59, velocity=95, time=0),
    Message('pitchwheel', channel=11, pitch=0, time=0),
    Message('pitchwheel', channel=11, pitch=128, time=16),
    Message('pitchwheel', channel=11, pitch=384, time=16),
    Message('pitchwheel', channel=11, pitch=512, time=16),
    Message('pitchwheel', channel=11, pitch=768, time=16),
    Message('pitchwheel', channel=11, pitch=896, time=16),
    Message('pitchwheel', channel=11, pitch=1152, time=16),
    Message('pitchwheel', channel=11, pitch=1280, time=16),
    Message('pitchwheel', channel=11, pitch=1408, time=16),
    Message('note_off', channel=10, note=64, velocity=80, time=112),
    Message('note_off', channel=11, note=59, velocity=80, time=0),
    Message('pitchwheel', channel=11, pitch=0, time=0),
    Message('note_on', channel=10, note=64, velocity=95, time=0),
    Message('note_on', channel=11, note=59, velocity=95, time=0),
    Message('pitchwheel', channel=11, pitch=0, time=0),
    Message('pitchwheel', channel=11, pitch=128, time=16),
    Message('pitchwheel', channel=11, pitch=384, time=16),
    Message('pitchwheel', channel=11, pitch=512, time=16),
    Message('pitchwheel', channel=11, pitch=768, time=16),
    Message('pitchwheel', channel=11, pitch=896, time=16),
    Message('pitchwheel', channel=11, pitch=1152, time=16),
    Message('pitchwheel', channel=11, pitch=1280, time=16),
    Message('pitchwheel', channel=11, pitch=1408, time=16),
    Message('note_off', channel=10, note=64, velocity=80, time=112),
    Message('note_off', channel=11, note=59, velocity=80, time=0),
    Message('pitchwheel', channel=11, pitch=0, time=0),
    Message('note_on', channel=10, note=64, velocity=95, time=0),
    Message('note_on', channel=11, note=59, velocity=95, time=0),
    Message('pitchwheel', channel=11, pitch=0, time=0),
    Message('pitchwheel', channel=11, pitch=128, time=16),
    Message('pitchwheel', channel=11, pitch=384, time=16),
    Message('pitchwheel', channel=11, pitch=512, time=16),
    Message('pitchwheel', channel=11, pitch=768, time=16),
    Message('pitchwheel', channel=11, pitch=896, time=16),
    Message('pitchwheel', channel=11, pitch=1152, time=16),
    Message('pitchwheel', channel=11, pitch=1280, time=16),
    Message('pitchwheel', channel=11, pitch=1408, time=16),
    Message('note_off', channel=10, note=64, velocity=80, time=112),
    Message('note_off', channel=11, note=59, velocity=80, time=0),
    Message('pitchwheel', channel=11, pitch=0, time=0),
    Message('note_on', channel=10, note=64, velocity=95, time=0),
    Message('note_on', channel=11, note=59, velocity=95, time=0),
    Message('pitchwheel', channel=11, pitch=0, time=0),
    Message('pitchwheel', channel=11, pitch=128, time=16),
    Message('pitchwheel', channel=11, pitch=384, time=16),
    Message('pitchwheel', channel=11, pitch=512, time=16),
    Message('pitchwheel', channel=11, pitch=768, time=16),
    Message('pitchwheel', channel=11, pitch=896, time=16),
    Message('pitchwheel', channel=11, pitch=1152, time=16),
    Message('pitchwheel', channel=11, pitch=1280, time=16),
    Message('pitchwheel', channel=11, pitch=1408, time=16),
    Message('note_off', channel=10, note=64, velocity=80, time=112),
    Message('note_off', channel=11, note=59, velocity=80, time=0),
    Message('pitchwheel', channel=11, pitch=0, time=0),
    Message('note_on', channel=10, note=64, velocity=95, time=0),
    Message('note_on', channel=11, note=59, velocity=95, time=0),
    Message('pitchwheel', channel=11, pitch=0, time=0),
    Message('pitchwheel', channel=11, pitch=128, time=16),
    Message('pitchwheel', channel=11, pitch=384, time=16),
    Message('pitchwheel', channel=11, pitch=512, time=16),
    Message('pitchwheel', channel=11, pitch=768, time=16),
    Message('pitchwheel', channel=11, pitch=896, time=16),
    Message('pitchwheel', channel=11, pitch=1152, time=16),
    Message('pitchwheel', channel=11, pitch=1280, time=16),
    Message('pitchwheel', channel=11, pitch=1408, time=16),
    Message('note_off', channel=10, note=64, velocity=80, time=112),
    Message('note_off', channel=11, note=59, velocity=80, time=0),
    Message('pitchwheel', channel=11, pitch=0, time=0),
    Message('note_on', channel=10, note=64, velocity=95, time=0),
    Message('note_on', channel=11, note=59, velocity=95, time=0),
    Message('pitchwheel', channel=11, pitch=0, time=0),
    Message('pitchwheel', channel=11, pitch=128, time=16),
    Message('pitchwheel', channel=11, pitch=384, time=16),
    Message('pitchwheel', channel=11, pitch=512, time=16),
    Message('pitchwheel', channel=11, pitch=768, time=16),
    Message('pitchwheel', channel=11, pitch=896, time=16),
    Message('pitchwheel', channel=11, pitch=1152, time=16),
    Message('pitchwheel', channel=11, pitch=1280, time=16),
    Message('pitchwheel', channel=11, pitch=1408, time=16),
    Message('note_off', channel=10, note=64, velocity=80, time=112),
    Message('note_off', channel=11, note=59, velocity=80, time=0),
    Message('pitchwheel', channel=11, pitch=0, time=0),
    Message('note_on', channel=10, note=64, velocity=95, time=0),
    Message('note_on', channel=11, note=59, velocity=95, time=0),
    Message('pitchwheel', channel=11, pitch=0, time=0),
    Message('pitchwheel', channel=11, pitch=128, time=16),
    Message('pitchwheel', channel=11, pitch=384, time=16),
    Message('pitchwheel', channel=11, pitch=512, time=16),
    Message('pitchwheel', channel=11, pitch=768, time=16),
    Message('pitchwheel', channel=11, pitch=896, time=16),
    Message('pitchwheel', channel=11, pitch=1152, time=16),
    Message('pitchwheel', channel=11, pitch=1280, time=16),
    Message('pitchwheel', channel=11, pitch=1408, time=16),
    Message('note_off', channel=10, note=64, velocity=80, time=112),
    Message('note_off', channel=11, note=59, velocity=80, time=0),
    Message('pitchwheel', channel=11, pitch=0, time=0),
    Message('note_on', channel=10, note=64, velocity=95, time=0),
    Message('note_on', channel=11, note=59, velocity=95, time=0),
    Message('pitchwheel', channel=11, pitch=0, time=0),
    Message('pitchwheel', channel=11, pitch=128, time=16),
    Message('pitchwheel', channel=11, pitch=384, time=16),
    Message('pitchwheel', channel=11, pitch=512, time=16),
    Message('pitchwheel', channel=11, pitch=768, time=16),
    Message('pitchwheel', channel=11, pitch=896, time=16),
    Message('pitchwheel', channel=11, pitch=1152, time=16),
    Message('pitchwheel', channel=11, pitch=1280, time=16),
    Message('pitchwheel', channel=11, pitch=1408, time=16),
    Message('note_off', channel=10, note=64, velocity=80, time=112),
    Message('note_off', channel=11, note=59, velocity=80, time=0),
    Message('pitchwheel', channel=11, pitch=0, time=0),
    Message('note_on', channel=10, note=64, velocity=95, time=0),
    Message('note_on', channel=11, note=59, velocity=95, time=0),
    Message('pitchwheel', channel=11, pitch=0, time=0),
    Message('pitchwheel', channel=11, pitch=128, time=16),
    Message('pitchwheel', channel=11, pitch=384, time=16),
    Message('pitchwheel', channel=11, pitch=512, time=16),
    Message('pitchwheel', channel=11, pitch=768, time=16),
    Message('pitchwheel', channel=11, pitch=896, time=16),
    Message('pitchwheel', channel=11, pitch=1152, time=16),
    Message('pitchwheel', channel=11, pitch=1280, time=16),
    Message('pitchwheel', channel=11, pitch=1408, time=16),
    Message('note_off', channel=10, note=64, velocity=80, time=112),
    Message('note_off', channel=11, note=59, velocity=80, time=0),
    Message('pitchwheel', channel=11, pitch=0, time=0),
    Message('note_on', channel=10, note=64, velocity=95, time=0),
    Message('note_on', channel=11, note=59, velocity=95, time=0),
    Message('pitchwheel', channel=11, pitch=0, time=0),
    Message('pitchwheel', channel=11, pitch=128, time=16),
    Message('pitchwheel', channel=11, pitch=384, time=16),
    Message('pitchwheel', channel=11, pitch=512, time=16),
    Message('pitchwheel', channel=11, pitch=768, time=16),
    Message('pitchwheel', channel=11, pitch=896, time=16),
    Message('pitchwheel', channel=11, pitch=1152, time=16),
    Message('pitchwheel', channel=11, pitch=1280, time=16),
    Message('pitchwheel', channel=11, pitch=1408, time=16),
    Message('note_off', channel=10, note=64, velocity=80, time=112),
    Message('note_off', channel=11, note=59, velocity=80, time=0),
    Message('pitchwheel', channel=11, pitch=0, time=0),
    Message('note_on', channel=10, note=64, velocity=95, time=0),
    Message('note_on', channel=11, note=59, velocity=95, time=0),
    Message('pitchwheel', channel=11, pitch=0, time=0),
    Message('pitchwheel', channel=11, pitch=128, time=16),
    Message('pitchwheel', channel=11, pitch=384, time=16),
    Message('pitchwheel', channel=11, pitch=512, time=16),
    Message('pitchwheel', channel=11, pitch=768, time=16),
    Message('pitchwheel', channel=11, pitch=896, time=16),
    Message('pitchwheel', channel=11, pitch=1152, time=16),
    Message('pitchwheel', channel=11, pitch=1280, time=16),
    Message('pitchwheel', channel=11, pitch=1408, time=16),
    Message('note_off', channel=10, note=64, velocity=80, time=112),
    Message('note_off', channel=11, note=59, velocity=80, time=0),
    Message('pitchwheel', channel=11, pitch=0, time=0),
    Message('note_on', channel=10, note=64, velocity=95, time=0),
    Message('note_on', channel=11, note=59, velocity=95, time=0),
    Message('pitchwheel', channel=11, pitch=0, time=0),
    Message('pitchwheel', channel=11, pitch=128, time=16),
    Message('pitchwheel', channel=11, pitch=384, time=16),
    Message('pitchwheel', channel=11, pitch=512, time=16),
    Message('pitchwheel', channel=11, pitch=768, time=16),
    Message('pitchwheel', channel=11, pitch=896, time=16),
    Message('pitchwheel', channel=11, pitch=1152, time=16),
    Message('pitchwheel', channel=11, pitch=1280, time=16),
    Message('pitchwheel', channel=11, pitch=1408, time=16),
    Message('note_off', channel=10, note=64, velocity=80, time=112),
    Message('note_off', channel=11, note=59, velocity=80, time=0),
    Message('pitchwheel', channel=11, pitch=0, time=0),
    Message('note_on', channel=10, note=64, velocity=95, time=0),
    Message('note_on', channel=11, note=59, velocity=95, time=0),
    Message('pitchwheel', channel=11, pitch=0, time=0),
    Message('pitchwheel', channel=11, pitch=128, time=16),
    Message('pitchwheel', channel=11, pitch=384, time=16),
    Message('pitchwheel', channel=11, pitch=512, time=16),
    Message('pitchwheel', channel=11, pitch=768, time=16),
    Message('pitchwheel', channel=11, pitch=896, time=16),
    Message('pitchwheel', channel=11, pitch=1152, time=16),
    Message('pitchwheel', channel=11, pitch=1280, time=16),
    Message('pitchwheel', channel=11, pitch=1408, time=16),
    Message('note_off', channel=10, note=64, velocity=80, time=112),
    Message('note_off', channel=11, note=59, velocity=80, time=0),
    Message('pitchwheel', channel=11, pitch=0, time=0),
    Message('note_on', channel=10, note=59, velocity=95, time=0),
    Message('note_off', channel=10, note=59, velocity=80, time=240),
    Message('note_on', channel=10, note=54, velocity=95, time=0),
    Message('note_off', channel=10, note=54, velocity=80, time=240),
    Message('note_on', channel=10, note=57, velocity=95, time=0),
    Message('note_off', channel=10, note=57, velocity=80, time=960),
    Message('note_on', channel=11, note=57, velocity=63, time=0),
    Message('pitchwheel', channel=11, pitch=0, time=80),
    Message('pitchwheel', channel=11, pitch=256, time=80),
    Message('pitchwheel', channel=11, pitch=0, time=80),
    Message('pitchwheel', channel=11, pitch=256, time=80),
    Message('pitchwheel', channel=11, pitch=0, time=80),
    Message('pitchwheel', channel=11, pitch=256, time=80),
    Message('pitchwheel', channel=11, pitch=0, time=80),
    Message('pitchwheel', channel=11, pitch=256, time=80),
    Message('pitchwheel', channel=11, pitch=0, time=80),
    Message('pitchwheel', channel=11, pitch=256, time=80),
    Message('pitchwheel', channel=11, pitch=0, time=80),
    Message('pitchwheel', channel=11, pitch=256, time=80),
    Message('pitchwheel', channel=11, pitch=0, time=80),
    Message('pitchwheel', channel=11, pitch=256, time=80),
    Message('note_off', channel=11, note=57, velocity=80, time=80),
    Message('pitchwheel', channel=11, pitch=0, time=0),
    Message('pitchwheel', channel=11, pitch=0, time=0),
    Message('note_on', channel=11, note=68, velocity=95, time=240),
    Message('pitchwheel', channel=11, pitch=0, time=0),
    Message('note_on', channel=11, note=63, velocity=95, time=0),
    Message('pitchwheel', channel=11, pitch=0, time=0),
    Message('pitchwheel', channel=11, pitch=128, time=16),
    Message('pitchwheel', channel=11, pitch=128, time=0),
    Message('pitchwheel', channel=11, pitch=256, time=32),
    Message('pitchwheel', channel=11, pitch=256, time=0),
    Message('pitchwheel', channel=11, pitch=384, time=16),
    Message('pitchwheel', channel=11, pitch=384, time=0),
    Message('pitchwheel', channel=11, pitch=512, time=16),
    Message('pitchwheel', channel=11, pitch=512, time=0),
    Message('pitchwheel', channel=11, pitch=640, time=32),
    Message('pitchwheel', channel=11, pitch=640, time=0),
    Message('note_off', channel=11, note=68, velocity=80, time=128),
    Message('pitchwheel', channel=11, pitch=0, time=0),
    Message('note_off', channel=11, note=63, velocity=80, time=0),
    Message('pitchwheel', channel=11, pitch=0, time=0),
    Message('note_on', channel=10, note=69, velocity=95, time=0),
    Message('note_on', channel=10, note=64, velocity=95, time=0),
    Message('note_off', channel=10, note=69, velocity=80, time=240),
    Message('note_off', channel=10, note=64, velocity=80, time=0),
    Message('note_on', channel=10, note=69, velocity=95, time=0),
    Message('note_on', channel=10, note=64, velocity=95, time=0),
    Message('note_off', channel=10, note=69, velocity=80, time=240),
    Message('note_off', channel=10, note=64, velocity=80, time=0),
    Message('note_on', channel=10, note=69, velocity=95, time=0),
    Message('note_on', channel=10, note=64, velocity=95, time=0),
    Message('note_off', channel=10, note=69, velocity=80, time=240),
    Message('note_off', channel=10, note=64, velocity=80, time=0),
    Message('note_on', channel=11, note=62, velocity=95, time=0),
    Message('pitchwheel', channel=11, pitch=0, time=0),
    Message('pitchwheel', channel=11, pitch=128, time=16),
    Message('pitchwheel', channel=11, pitch=384, time=16),
    Message('pitchwheel', channel=11, pitch=512, time=16),
    Message('pitchwheel', channel=11, pitch=768, time=16),
    Message('pitchwheel', channel=11, pitch=896, time=16),
    Message('pitchwheel', channel=11, pitch=1152, time=16),
    Message('pitchwheel', channel=11, pitch=1280, time=16),
    Message('pitchwheel', channel=11, pitch=1408, time=16),
    Message('note_off', channel=11, note=62, velocity=80, time=112),
    Message('pitchwheel', channel=11, pitch=0, time=0),
    Message('note_on', channel=10, note=69, velocity=95, time=0),
    Message('note_on', channel=10, note=64, velocity=95, time=0),
    Message('note_off', channel=10, note=69, velocity=80, time=2640),
    Message('note_off', channel=10, note=64, velocity=80, time=0),
    Message('note_on', channel=10, note=69, velocity=95, time=9600),
    Message('note_off', channel=10, note=69, velocity=80, time=480),
    Message('note_on', channel=10, note=76, velocity=95, time=0),
    Message('note_on', channel=11, note=71, velocity=95, time=0),
    Message('pitchwheel', channel=11, pitch=0, time=0),
    Message('pitchwheel', channel=11, pitch=128, time=48),
    Message('pitchwheel', channel=11, pitch=256, time=64),
    Message('pitchwheel', channel=11, pitch=384, time=80),
    Message('pitchwheel', channel=11, pitch=512, time=48),
    Message('pitchwheel', channel=11, pitch=640, time=64),
    Message('pitchwheel', channel=11, pitch=768, time=80),
    Message('pitchwheel', channel=11, pitch=896, time=64),
    Message('pitchwheel', channel=11, pitch=1024, time=80),
    Message('pitchwheel', channel=11, pitch=1152, time=48),
    Message('pitchwheel', channel=11, pitch=1280, time=64),
    Message('pitchwheel', channel=11, pitch=1408, time=80),
    Message('note_off', channel=10, note=76, velocity=80, time=720),
    Message('note_off', channel=11, note=71, velocity=80, time=0),
    Message('pitchwheel', channel=11, pitch=0, time=0),
    Message('note_on', channel=10, note=76, velocity=95, time=0),
    Message('note_on', channel=11, note=71, velocity=95, time=0),
    Message('pitchwheel', channel=11, pitch=0, time=0),
    Message('pitchwheel', channel=11, pitch=128, time=16),
    Message('pitchwheel', channel=11, pitch=256, time=32),
    Message('pitchwheel', channel=11, pitch=384, time=16),
    Message('pitchwheel', channel=11, pitch=512, time=16),
    Message('pitchwheel', channel=11, pitch=640, time=32),
    Message('pitchwheel', channel=11, pitch=768, time=16),
    Message('pitchwheel', channel=11, pitch=896, time=32),
    Message('pitchwheel', channel=11, pitch=1024, time=16),
    Message('pitchwheel', channel=11, pitch=1152, time=16),
    Message('pitchwheel', channel=11, pitch=1280, time=32),
    Message('pitchwheel', channel=11, pitch=1408, time=16),
    Message('note_off', channel=10, note=76, velocity=80, time=240),
    Message('note_off', channel=11, note=71, velocity=80, time=0),
    Message('pitchwheel', channel=11, pitch=0, time=0),
    Message('note_on', channel=10, note=76, velocity=95, time=0),
    Message('note_on', channel=11, note=71, velocity=95, time=0),
    Message('pitchwheel', channel=11, pitch=0, time=0),
    Message('pitchwheel', channel=11, pitch=128, time=16),
    Message('pitchwheel', channel=11, pitch=256, time=16),
    Message('pitchwheel', channel=11, pitch=384, time=16),
    Message('pitchwheel', channel=11, pitch=512, time=16),
    Message('pitchwheel', channel=11, pitch=640, time=16),
    Message('pitchwheel', channel=11, pitch=768, time=16),
    Message('pitchwheel', channel=11, pitch=896, time=16),
    Message('pitchwheel', channel=11, pitch=1152, time=32),
    Message('pitchwheel', channel=11, pitch=1280, time=16),
    Message('pitchwheel', channel=11, pitch=1408, time=32),
    Message('note_off', channel=10, note=76, velocity=80, time=168),
    Message('note_off', channel=11, note=71, velocity=80, time=0),
    Message('pitchwheel', channel=11, pitch=0, time=0),
    Message('note_on', channel=10, note=69, velocity=95, time=0),
    Message('note_off', channel=10, note=69, velocity=80, time=120),
    Message('note_on', channel=10, note=71, velocity=95, time=0),
    Message('note_off', channel=10, note=71, velocity=80, time=240),
    Message('note_on', channel=10, note=66, velocity=95, time=0),
    Message('note_off', channel=10, note=66, velocity=80, time=240),
    Message('note_on', channel=10, note=69, velocity=95, time=0),
    Message('note_off', channel=10, note=69, velocity=80, time=960),
    Message('note_on', channel=11, note=69, velocity=63, time=0),
    Message('pitchwheel', channel=11, pitch=0, time=80),
    Message('pitchwheel', channel=11, pitch=256, time=80),
    Message('pitchwheel', channel=11, pitch=0, time=80),
    Message('pitchwheel', channel=11, pitch=256, time=80),
    Message('pitchwheel', channel=11, pitch=0, time=80),
    Message('pitchwheel', channel=11, pitch=256, time=80),
    Message('pitchwheel', channel=11, pitch=0, time=80),
    Message('pitchwheel', channel=11, pitch=256, time=80),
    Message('pitchwheel', channel=11, pitch=0, time=80),
    Message('pitchwheel', channel=11, pitch=256, time=80),
    Message('pitchwheel', channel=11, pitch=0, time=80),
    Message('pitchwheel', channel=11, pitch=256, time=80),
    Message('pitchwheel', channel=11, pitch=0, time=80),
    Message('pitchwheel', channel=11, pitch=256, time=80),
    Message('pitchwheel', channel=11, pitch=0, time=80),
    Message('pitchwheel', channel=11, pitch=256, time=80),
    Message('pitchwheel', channel=11, pitch=0, time=80),
    Message('pitchwheel', channel=11, pitch=256, time=80),
    Message('pitchwheel', channel=11, pitch=0, time=80),
    Message('pitchwheel', channel=11, pitch=256, time=80),
    Message('pitchwheel', channel=11, pitch=0, time=80),
    Message('pitchwheel', channel=11, pitch=256, time=80),
    Message('pitchwheel', channel=11, pitch=0, time=80),
    Message('pitchwheel', channel=11, pitch=256, time=80),
    Message('pitchwheel', channel=11, pitch=0, time=80),
    Message('pitchwheel', channel=11, pitch=256, time=80),
    Message('pitchwheel', channel=11, pitch=0, time=80),
    Message('pitchwheel', channel=11, pitch=256, time=80),
    Message('pitchwheel', channel=11, pitch=0, time=80),
    Message('note_off', channel=11, note=69, velocity=80, time=80),
    Message('pitchwheel', channel=11, pitch=256, time=0),
    Message('pitchwheel', channel=11, pitch=0, time=0),
    Message('note_on', channel=11, note=69, velocity=63, time=0),
    Message('pitchwheel', channel=11, pitch=-640, time=240),
    Message('pitchwheel', channel=11, pitch=-1408, time=80),
    Message('pitchwheel', channel=11, pitch=-2048, time=80),
    Message('note_off', channel=11, note=69, velocity=80, time=80),
    Message('pitchwheel', channel=11, pitch=0, time=0),
    Message('note_on', channel=10, note=69, velocity=95, time=8160),
    Message('note_off', channel=10, note=69, velocity=80, time=480),
    Message('note_on', channel=10, note=76, velocity=95, time=0),
    Message('note_on', channel=11, note=71, velocity=95, time=0),
    Message('pitchwheel', channel=11, pitch=0, time=0),
    Message('pitchwheel', channel=11, pitch=128, time=48),
    Message('pitchwheel', channel=11, pitch=256, time=64),
    Message('pitchwheel', channel=11, pitch=384, time=80),
    Message('pitchwheel', channel=11, pitch=512, time=48),
    Message('pitchwheel', channel=11, pitch=640, time=64),
    Message('pitchwheel', channel=11, pitch=768, time=80),
    Message('pitchwheel', channel=11, pitch=896, time=64),
    Message('pitchwheel', channel=11, pitch=1024, time=80),
    Message('pitchwheel', channel=11, pitch=1152, time=48),
    Message('pitchwheel', channel=11, pitch=1280, time=64),
    Message('pitchwheel', channel=11, pitch=1408, time=80),
    Message('note_off', channel=10, note=76, velocity=80, time=720),
    Message('note_off', channel=11, note=71, velocity=80, time=0),
    Message('pitchwheel', channel=11, pitch=0, time=0),
    Message('note_on', channel=10, note=76, velocity=95, time=0),
    Message('note_on', channel=11, note=71, velocity=95, time=0),
    Message('pitchwheel', channel=11, pitch=0, time=0),
    Message('pitchwheel', channel=11, pitch=128, time=16),
    Message('pitchwheel', channel=11, pitch=256, time=32),
    Message('pitchwheel', channel=11, pitch=384, time=16),
    Message('pitchwheel', channel=11, pitch=512, time=16),
    Message('pitchwheel', channel=11, pitch=640, time=32),
    Message('pitchwheel', channel=11, pitch=768, time=16),
    Message('pitchwheel', channel=11, pitch=896, time=32),
    Message('pitchwheel', channel=11, pitch=1024, time=16),
    Message('pitchwheel', channel=11, pitch=1152, time=16),
    Message('pitchwheel', channel=11, pitch=1280, time=32),
    Message('pitchwheel', channel=11, pitch=1408, time=16),
    Message('note_off', channel=10, note=76, velocity=80, time=240),
    Message('note_off', channel=11, note=71, velocity=80, time=0),
    Message('pitchwheel', channel=11, pitch=0, time=0),
    Message('note_on', channel=10, note=76, velocity=95, time=0),
    Message('note_on', channel=11, note=71, velocity=95, time=0),
    Message('pitchwheel', channel=11, pitch=0, time=0),
    Message('pitchwheel', channel=11, pitch=128, time=16),
    Message('pitchwheel', channel=11, pitch=256, time=16),
    Message('pitchwheel', channel=11, pitch=384, time=16),
    Message('pitchwheel', channel=11, pitch=512, time=16),
    Message('pitchwheel', channel=11, pitch=640, time=16),
    Message('pitchwheel', channel=11, pitch=768, time=16),
    Message('pitchwheel', channel=11, pitch=896, time=16),
    Message('pitchwheel', channel=11, pitch=1152, time=32),
    Message('pitchwheel', channel=11, pitch=1280, time=16),
    Message('pitchwheel', channel=11, pitch=1408, time=32),
    Message('note_off', channel=10, note=76, velocity=80, time=168),
    Message('note_off', channel=11, note=71, velocity=80, time=0),
    Message('pitchwheel', channel=11, pitch=0, time=0),
    Message('note_on', channel=10, note=69, velocity=95, time=0),
    Message('note_off', channel=10, note=69, velocity=80, time=120),
    Message('note_on', channel=10, note=71, velocity=95, time=0),
    Message('note_off', channel=10, note=71, velocity=80, time=240),
    Message('note_on', channel=10, note=66, velocity=95, time=0),
    Message('note_off', channel=10, note=66, velocity=80, time=240),
    Message('note_on', channel=10, note=69, velocity=95, time=0),
    Message('note_off', channel=10, note=69, velocity=80, time=960),
    Message('note_on', channel=11, note=69, velocity=63, time=0),
    Message('pitchwheel', channel=11, pitch=0, time=80),
    Message('pitchwheel', channel=11, pitch=256, time=80),
    Message('pitchwheel', channel=11, pitch=0, time=80),
    Message('pitchwheel', channel=11, pitch=256, time=80),
    Message('pitchwheel', channel=11, pitch=0, time=80),
    Message('pitchwheel', channel=11, pitch=256, time=80),
    Message('pitchwheel', channel=11, pitch=0, time=80),
    Message('pitchwheel', channel=11, pitch=256, time=80),
    Message('pitchwheel', channel=11, pitch=0, time=80),
    Message('pitchwheel', channel=11, pitch=256, time=80),
    Message('pitchwheel', channel=11, pitch=0, time=80),
    Message('pitchwheel', channel=11, pitch=256, time=80),
    Message('pitchwheel', channel=11, pitch=0, time=80),
    Message('pitchwheel', channel=11, pitch=256, time=80),
    Message('pitchwheel', channel=11, pitch=0, time=80),
    Message('pitchwheel', channel=11, pitch=256, time=80),
    Message('pitchwheel', channel=11, pitch=0, time=80),
    Message('pitchwheel', channel=11, pitch=256, time=80),
    Message('pitchwheel', channel=11, pitch=0, time=80),
    Message('pitchwheel', channel=11, pitch=256, time=80),
    Message('pitchwheel', channel=11, pitch=0, time=80),
    Message('pitchwheel', channel=11, pitch=256, time=80),
    Message('pitchwheel', channel=11, pitch=0, time=80),
    Message('pitchwheel', channel=11, pitch=256, time=80),
    Message('pitchwheel', channel=11, pitch=0, time=80),
    Message('pitchwheel', channel=11, pitch=256, time=80),
    Message('pitchwheel', channel=11, pitch=0, time=80),
    Message('pitchwheel', channel=11, pitch=256, time=80),
    Message('pitchwheel', channel=11, pitch=0, time=80),
    Message('note_off', channel=11, note=69, velocity=80, time=80),
    Message('pitchwheel', channel=11, pitch=256, time=0),
    Message('pitchwheel', channel=11, pitch=0, time=0),
    Message('note_on', channel=11, note=69, velocity=63, time=0),
    Message('pitchwheel', channel=11, pitch=-640, time=240),
    Message('pitchwheel', channel=11, pitch=-1408, time=80),
    Message('pitchwheel', channel=11, pitch=-2048, time=80),
    Message('note_off', channel=11, note=69, velocity=80, time=80),
    Message('pitchwheel', channel=11, pitch=0, time=0),
    Message('control_change', channel=10, control=7, value=103, time=0),
    Message('control_change', channel=11, control=7, value=103, time=0),
    Message('control_change', channel=10, control=7, value=101, time=120),
    Message('control_change', channel=11, control=7, value=101, time=0),
    Message('control_change', channel=10, control=7, value=100, time=120),
    Message('control_change', channel=11, control=7, value=100, time=0),
    Message('control_change', channel=10, control=7, value=98, time=120),
    Message('control_change', channel=11, control=7, value=98, time=0),
    Message('control_change', channel=10, control=7, value=97, time=120),
    Message('control_change', channel=11, control=7, value=97, time=0),
    Message('control_change', channel=10, control=7, value=95, time=120),
    Message('control_change', channel=11, control=7, value=95, time=0),
    Message('control_change', channel=10, control=7, value=94, time=120),
    Message('control_change', channel=11, control=7, value=94, time=0),
    Message('control_change', channel=10, control=7, value=92, time=120),
    Message('control_change', channel=11, control=7, value=92, time=0),
    Message('control_change', channel=10, control=7, value=91, time=120),
    Message('control_change', channel=11, control=7, value=91, time=0),
    Message('control_change', channel=10, control=7, value=89, time=120),
    Message('control_change', channel=11, control=7, value=89, time=0),
    Message('control_change', channel=10, control=7, value=88, time=120),
    Message('control_change', channel=11, control=7, value=88, time=0),
    Message('control_change', channel=10, control=7, value=86, time=120),
    Message('control_change', channel=11, control=7, value=86, time=0),
    Message('control_change', channel=10, control=7, value=85, time=120),
    Message('control_change', channel=11, control=7, value=85, time=0),
    Message('control_change', channel=10, control=7, value=83, time=120),
    Message('control_change', channel=11, control=7, value=83, time=0),
    Message('control_change', channel=10, control=7, value=82, time=120),
    Message('control_change', channel=11, control=7, value=82, time=0),
    Message('control_change', channel=10, control=7, value=80, time=120),
    Message('control_change', channel=11, control=7, value=80, time=0),
    Message('control_change', channel=10, control=7, value=79, time=120),
    Message('control_change', channel=11, control=7, value=79, time=0),
    Message('control_change', channel=10, control=7, value=77, time=120),
    Message('control_change', channel=11, control=7, value=77, time=0),
    Message('control_change', channel=10, control=7, value=76, time=120),
    Message('control_change', channel=11, control=7, value=76, time=0),
    Message('control_change', channel=10, control=7, value=74, time=120),
    Message('control_change', channel=11, control=7, value=74, time=0),
    Message('control_change', channel=10, control=7, value=73, time=120),
    Message('control_change', channel=11, control=7, value=73, time=0),
    Message('control_change', channel=10, control=7, value=72, time=120),
    Message('control_change', channel=11, control=7, value=72, time=0),
    Message('control_change', channel=10, control=7, value=70, time=120),
    Message('control_change', channel=11, control=7, value=70, time=0),
    Message('control_change', channel=10, control=7, value=69, time=120),
    Message('control_change', channel=11, control=7, value=69, time=0),
    Message('control_change', channel=10, control=7, value=67, time=120),
    Message('control_change', channel=11, control=7, value=67, time=0),
    Message('control_change', channel=10, control=7, value=66, time=120),
    Message('control_change', channel=11, control=7, value=66, time=0),
    Message('control_change', channel=10, control=7, value=64, time=120),
    Message('control_change', channel=11, control=7, value=64, time=0),
    Message('control_change', channel=10, control=7, value=63, time=120),
    Message('control_change', channel=11, control=7, value=63, time=0),
    Message('control_change', channel=10, control=7, value=61, time=120),
    Message('control_change', channel=11, control=7, value=61, time=0),
    Message('control_change', channel=10, control=7, value=60, time=120),
    Message('control_change', channel=11, control=7, value=60, time=0),
    Message('control_change', channel=10, control=7, value=58, time=120),
    Message('control_change', channel=11, control=7, value=58, time=0),
    Message('control_change', channel=10, control=7, value=57, time=120),
    Message('control_change', channel=11, control=7, value=57, time=0),
    Message('control_change', channel=10, control=7, value=55, time=120),
    Message('control_change', channel=11, control=7, value=55, time=0),
    Message('control_change', channel=10, control=7, value=54, time=120),
    Message('control_change', channel=11, control=7, value=54, time=0),
    Message('control_change', channel=10, control=7, value=52, time=120),
    Message('control_change', channel=11, control=7, value=52, time=0),
    Message('control_change', channel=10, control=7, value=51, time=120),
    Message('control_change', channel=11, control=7, value=51, time=0),
    Message('control_change', channel=10, control=7, value=49, time=120),
    Message('control_change', channel=11, control=7, value=49, time=0),
    Message('control_change', channel=10, control=7, value=48, time=120),
    Message('control_change', channel=11, control=7, value=48, time=0),
    Message('control_change', channel=10, control=7, value=46, time=120),
    Message('control_change', channel=11, control=7, value=46, time=0),
    Message('control_change', channel=10, control=7, value=45, time=120),
    Message('control_change', channel=11, control=7, value=45, time=0),
    Message('control_change', channel=10, control=7, value=43, time=120),
    Message('control_change', channel=11, control=7, value=43, time=0),
    Message('control_change', channel=10, control=7, value=42, time=120),
    Message('control_change', channel=11, control=7, value=42, time=0),
    Message('control_change', channel=10, control=7, value=40, time=120),
    Message('control_change', channel=11, control=7, value=40, time=0),
    Message('control_change', channel=10, control=7, value=39, time=120),
    Message('control_change', channel=11, control=7, value=39, time=0),
    Message('control_change', channel=10, control=7, value=38, time=120),
    Message('control_change', channel=11, control=7, value=38, time=0),
    Message('control_change', channel=10, control=7, value=36, time=120),
    Message('control_change', channel=11, control=7, value=36, time=0),
    Message('control_change', channel=10, control=7, value=35, time=120),
    Message('control_change', channel=11, control=7, value=35, time=0),
    Message('control_change', channel=10, control=7, value=33, time=120),
    Message('control_change', channel=11, control=7, value=33, time=0),
    Message('control_change', channel=10, control=7, value=32, time=120),
    Message('control_change', channel=11, control=7, value=32, time=0),
    Message('control_change', channel=10, control=7, value=30, time=120),
    Message('control_change', channel=11, control=7, value=30, time=0),
    Message('control_change', channel=10, control=7, value=29, time=120),
    Message('control_change', channel=11, control=7, value=29, time=0),
    Message('control_change', channel=10, control=7, value=27, time=120),
    Message('control_change', channel=11, control=7, value=27, time=0),
    Message('control_change', channel=10, control=7, value=26, time=120),
    Message('control_change', channel=11, control=7, value=26, time=0),
    Message('control_change', channel=10, control=7, value=24, time=120),
    Message('control_change', channel=11, control=7, value=24, time=0),
    Message('control_change', channel=10, control=7, value=23, time=120),
    Message('control_change', channel=11, control=7, value=23, time=0),
    Message('control_change', channel=10, control=7, value=21, time=120),
    Message('control_change', channel=11, control=7, value=21, time=0),
    Message('control_change', channel=10, control=7, value=20, time=120),
    Message('control_change', channel=11, control=7, value=20, time=0),
    Message('control_change', channel=10, control=7, value=18, time=120),
    Message('control_change', channel=11, control=7, value=18, time=0),
    Message('control_change', channel=10, control=7, value=17, time=120),
    Message('control_change', channel=11, control=7, value=17, time=0),
    Message('control_change', channel=10, control=7, value=15, time=120),
    Message('control_change', channel=11, control=7, value=15, time=0),
    Message('control_change', channel=10, control=7, value=14, time=120),
    Message('control_change', channel=11, control=7, value=14, time=0),
    Message('control_change', channel=10, control=7, value=12, time=120),
    Message('control_change', channel=11, control=7, value=12, time=0),
    Message('control_change', channel=10, control=7, value=11, time=120),
    Message('control_change', channel=11, control=7, value=11, time=0),
    Message('control_change', channel=10, control=7, value=9, time=120),
    Message('control_change', channel=11, control=7, value=9, time=0),
    Message('control_change', channel=10, control=7, value=8, time=120),
    Message('control_change', channel=11, control=7, value=8, time=0),
    MetaMessage('end_of_track', time=0)]),
  MidiTrack([
    MetaMessage('track_name', name='Pedal Steel and Piano', time=0),
    Message('control_change', channel=12, control=100, value=0, time=0),
    Message('control_change', channel=12, control=101, value=0, time=0),
    Message('control_change', channel=12, control=6, value=12, time=0),
    Message('pitchwheel', channel=12, pitch=0, time=0),
    Message('control_change', channel=13, control=100, value=0, time=0),
    Message('control_change', channel=13, control=101, value=0, time=0),
    Message('control_change', channel=13, control=6, value=12, time=0),
    Message('pitchwheel', channel=13, pitch=0, time=0),
    Message('program_change', channel=12, program=26, time=0),
    Message('program_change', channel=13, program=26, time=0),
    Message('control_change', channel=12, control=7, value=104, time=0),
    Message('control_change', channel=13, control=7, value=104, time=0),
    Message('control_change', channel=12, control=10, value=64, time=0),
    Message('control_change', channel=13, control=10, value=64, time=0),
    Message('control_change', channel=12, control=93, value=127, time=0),
    Message('control_change', channel=13, control=93, value=127, time=0),
    Message('control_change', channel=12, control=91, value=127, time=0),
    Message('control_change', channel=13, control=91, value=127, time=0),
    Message('control_change', channel=12, control=92, value=0, time=0),
    Message('control_change', channel=13, control=92, value=0, time=0),
    Message('control_change', channel=12, control=95, value=0, time=0),
    Message('control_change', channel=13, control=95, value=0, time=0),
    Message('note_on', channel=12, note=78, velocity=111, time=76800),
    Message('note_off', channel=12, note=78, velocity=80, time=480),
    Message('note_on', channel=12, note=76, velocity=111, time=0),
    Message('note_on', channel=12, note=73, velocity=111, time=420),
    Message('note_off', channel=12, note=73, velocity=80, time=59),
    Message('note_off', channel=12, note=76, velocity=80, time=1),
    Message('pitchwheel', channel=13, pitch=1408, time=0),
    Message('note_on', channel=13, note=71, velocity=111, time=0),
    Message('pitchwheel', channel=13, pitch=1152, time=192),
    Message('pitchwheel', channel=13, pitch=768, time=16),
    Message('pitchwheel', channel=13, pitch=384, time=16),
    Message('pitchwheel', channel=13, pitch=0, time=16),
    Message('pitchwheel', channel=13, pitch=0, time=0),
    Message('note_off', channel=13, note=71, velocity=80, time=0),
    Message('note_on', channel=12, note=69, velocity=111, time=0),
    Message('note_off', channel=12, note=69, velocity=80, time=240),
    Message('note_on', channel=13, note=71, velocity=111, time=0),
    Message('pitchwheel', channel=13, pitch=0, time=0),
    Message('pitchwheel', channel=13, pitch=128, time=16),
    Message('pitchwheel', channel=13, pitch=256, time=32),
    Message('pitchwheel', channel=13, pitch=384, time=16),
    Message('pitchwheel', channel=13, pitch=512, time=16),
    Message('pitchwheel', channel=13, pitch=640, time=32),
    Message('pitchwheel', channel=13, pitch=768, time=16),
    Message('pitchwheel', channel=13, pitch=896, time=32),
    Message('pitchwheel', channel=13, pitch=1024, time=16),
    Message('pitchwheel', channel=13, pitch=1152, time=16),
    Message('pitchwheel', channel=13, pitch=1280, time=32),
    Message('pitchwheel', channel=13, pitch=1408, time=16),
    Message('note_off', channel=13, note=71, velocity=80, time=240),
    Message('pitchwheel', channel=13, pitch=0, time=0),
    Message('note_on', channel=12, note=78, velocity=95, time=0),
    Message('note_off', channel=12, note=78, velocity=80, time=240),
    Message('note_on', channel=12, note=76, velocity=95, time=0),
    Message('note_off', channel=12, note=76, velocity=80, time=240),
    Message('note_on', channel=12, note=74, velocity=95, time=0),
    Message('note_off', channel=12, note=74, velocity=80, time=240),
    Message('note_on', channel=12, note=73, velocity=95, time=0),
    Message('note_off', channel=12, note=73, velocity=80, time=240),
    Message('note_on', channel=12, note=74, velocity=95, time=0),
    Message('note_off', channel=12, note=74, velocity=80, time=240),
    Message('note_on', channel=12, note=73, velocity=95, time=0),
    Message('note_off', channel=12, note=73, velocity=80, time=240),
    Message('note_on', channel=12, note=71, velocity=95, time=0),
    Message('note_off', channel=12, note=71, velocity=80, time=240),
    Message('note_on', channel=12, note=69, velocity=86, time=0),
    Message('note_off', channel=12, note=69, velocity=80, time=240),
    Message('note_on', channel=12, note=71, velocity=95, time=0),
    Message('note_on', channel=13, note=66, velocity=95, time=0),
    Message('pitchwheel', channel=13, pitch=0, time=0),
    Message('pitchwheel', channel=13, pitch=128, time=16),
    Message('pitchwheel', channel=13, pitch=256, time=32),
    Message('pitchwheel', channel=13, pitch=384, time=16),
    Message('pitchwheel', channel=13, pitch=512, time=16),
    Message('pitchwheel', channel=13, pitch=640, time=32),
    Message('pitchwheel', channel=13, pitch=768, time=16),
    Message('pitchwheel', channel=13, pitch=896, time=32),
    Message('pitchwheel', channel=13, pitch=1024, time=16),
    Message('pitchwheel', channel=13, pitch=1152, time=16),
    Message('pitchwheel', channel=13, pitch=1280, time=32),
    Message('pitchwheel', channel=13, pitch=1408, time=16),
    Message('note_off', channel=12, note=71, velocity=80, time=240),
    Message('note_off', channel=13, note=66, velocity=80, time=0),
    Message('pitchwheel', channel=13, pitch=0, time=0),
    Message('note_on', channel=12, note=71, velocity=95, time=0),
    Message('note_on', channel=13, note=66, velocity=95, time=0),
    Message('pitchwheel', channel=13, pitch=0, time=0),
    Message('pitchwheel', channel=13, pitch=128, time=16),
    Message('pitchwheel', channel=13, pitch=384, time=16),
    Message('pitchwheel', channel=13, pitch=512, time=16),
    Message('pitchwheel', channel=13, pitch=768, time=16),
    Message('pitchwheel', channel=13, pitch=896, time=16),
    Message('pitchwheel', channel=13, pitch=1152, time=16),
    Message('pitchwheel', channel=13, pitch=1280, time=16),
    Message('pitchwheel', channel=13, pitch=1408, time=16),
    Message('pitchwheel', channel=13, pitch=1152, time=128),
    Message('pitchwheel', channel=13, pitch=1024, time=16),
    Message('pitchwheel', channel=13, pitch=768, time=16),
    Message('pitchwheel', channel=13, pitch=640, time=16),
    Message('pitchwheel', channel=13, pitch=512, time=16),
    Message('pitchwheel', channel=13, pitch=256, time=16),
    Message('pitchwheel', channel=13, pitch=128, time=16),
    Message('pitchwheel', channel=13, pitch=0, time=16),
    Message('note_off', channel=12, note=71, velocity=80, time=112),
    Message('note_off', channel=13, note=66, velocity=80, time=0),
    Message('pitchwheel', channel=13, pitch=0, time=0),
    Message('note_on', channel=12, note=64, velocity=95, time=0),
    Message('note_off', channel=12, note=64, velocity=80, time=240),
    Message('note_on', channel=13, note=71, velocity=95, time=0),
    Message('note_on', channel=13, note=66, velocity=95, time=0),
    Message('pitchwheel', channel=13, pitch=0, time=0),
    Message('pitchwheel', channel=13, pitch=128, time=16),
    Message('pitchwheel', channel=13, pitch=256, time=32),
    Message('pitchwheel', channel=13, pitch=384, time=16),
    Message('pitchwheel', channel=13, pitch=512, time=16),
    Message('pitchwheel', channel=13, pitch=640, time=32),
    Message('pitchwheel', channel=13, pitch=768, time=16),
    Message('pitchwheel', channel=13, pitch=896, time=32),
    Message('pitchwheel', channel=13, pitch=1024, time=16),
    Message('pitchwheel', channel=13, pitch=1152, time=16),
    Message('pitchwheel', channel=13, pitch=1280, time=32),
    Message('pitchwheel', channel=13, pitch=-640, time=16),
    Message('pitchwheel', channel=13, pitch=1408, time=0),
    Message('note_off', channel=13, note=71, velocity=80, time=240),
    Message('pitchwheel', channel=13, pitch=0, time=0),
    Message('note_off', channel=13, note=66, velocity=80, time=0),
    Message('pitchwheel', channel=13, pitch=0, time=0),
    Message('control_change', channel=12, control=7, value=88, time=0),
    Message('control_change', channel=13, control=7, value=88, time=0),
    Message('note_on', channel=12, note=63, velocity=95, time=0),
    Message('note_off', channel=12, note=63, velocity=80, time=240),
    Message('note_on', channel=13, note=73, velocity=95, time=0),
    Message('pitchwheel', channel=13, pitch=0, time=0),
    Message('note_on', channel=13, note=69, velocity=86, time=0),
    Message('pitchwheel', channel=13, pitch=0, time=0),
    Message('note_on', channel=13, note=64, velocity=95, time=0),
    Message('pitchwheel', channel=13, pitch=0, time=0),
    Message('pitchwheel', channel=13, pitch=128, time=16),
    Message('pitchwheel', channel=13, pitch=128, time=0),
    Message('pitchwheel', channel=13, pitch=128, time=16),
    Message('pitchwheel', channel=13, pitch=256, time=16),
    Message('pitchwheel', channel=13, pitch=256, time=0),
    Message('pitchwheel', channel=13, pitch=384, time=16),
    Message('pitchwheel', channel=13, pitch=384, time=0),
    Message('pitchwheel', channel=13, pitch=256, time=16),
    Message('pitchwheel', channel=13, pitch=512, time=0),
    Message('pitchwheel', channel=13, pitch=512, time=0),
    Message('pitchwheel', channel=13, pitch=640, time=32),
    Message('pitchwheel', channel=13, pitch=640, time=0),
    Message('pitchwheel', channel=13, pitch=384, time=16),
    Message('pitchwheel', channel=13, pitch=768, time=0),
    Message('pitchwheel', channel=13, pitch=768, time=0),
    Message('pitchwheel', channel=13, pitch=512, time=32),
    Message('pitchwheel', channel=13, pitch=896, time=0),
    Message('pitchwheel', channel=13, pitch=896, time=0),
    Message('pitchwheel', channel=13, pitch=1024, time=16),
    Message('pitchwheel', channel=13, pitch=1024, time=0),
    Message('pitchwheel', channel=13, pitch=1152, time=16),
    Message('pitchwheel', channel=13, pitch=1152, time=0),
    Message('pitchwheel', channel=13, pitch=640, time=16),
    Message('pitchwheel', channel=13, pitch=1280, time=16),
    Message('pitchwheel', channel=13, pitch=1280, time=0),
    Message('pitchwheel', channel=13, pitch=1408, time=16),
    Message('pitchwheel', channel=13, pitch=1408, time=0),
    Message('pitchwheel', channel=13, pitch=1280, time=256),
    Message('pitchwheel', channel=13, pitch=1280, time=0),
    Message('pitchwheel', channel=13, pitch=1152, time=16),
    Message('pitchwheel', channel=13, pitch=1152, time=0),
    Message('pitchwheel', channel=13, pitch=512, time=16),
    Message('pitchwheel', channel=13, pitch=1024, time=16),
    Message('pitchwheel', channel=13, pitch=1024, time=0),
    Message('pitchwheel', channel=13, pitch=896, time=16),
    Message('pitchwheel', channel=13, pitch=896, time=0),
    Message('pitchwheel', channel=13, pitch=384, time=16),
    Message('pitchwheel', channel=13, pitch=768, time=0),
    Message('pitchwheel', channel=13, pitch=768, time=0),
    Message('pitchwheel', channel=13, pitch=256, time=32),
    Message('pitchwheel', channel=13, pitch=640, time=0),
    Message('pitchwheel', channel=13, pitch=640, time=0),
    Message('pitchwheel', channel=13, pitch=512, time=16),
    Message('pitchwheel', channel=13, pitch=512, time=0),
    Message('pitchwheel', channel=13, pitch=128, time=32),
    Message('pitchwheel', channel=13, pitch=384, time=0),
    Message('pitchwheel', channel=13, pitch=384, time=0),
    Message('pitchwheel', channel=13, pitch=256, time=16),
    Message('pitchwheel', channel=13, pitch=256, time=0),
    Message('pitchwheel', channel=13, pitch=128, time=16),
    Message('pitchwheel', channel=13, pitch=128, time=0),
    Message('pitchwheel', channel=13, pitch=0, time=16),
    Message('pitchwheel', channel=13, pitch=0, time=16),
    Message('pitchwheel', channel=13, pitch=0, time=0),
    Message('note_off', channel=13, note=73, velocity=80, time=240),
    Message('pitchwheel', channel=13, pitch=0, time=0),
    Message('note_off', channel=13, note=69, velocity=80, time=0),
    Message('pitchwheel', channel=13, pitch=0, time=0),
    Message('note_off', channel=13, note=64, velocity=80, time=0),
    Message('pitchwheel', channel=13, pitch=0, time=0),
    Message('note_on', channel=13, note=64, velocity=95, time=0),
    Message('pitchwheel', channel=13, pitch=0, time=0),
    Message('note_on', channel=13, note=61, velocity=95, time=0),
    Message('pitchwheel', channel=13, pitch=0, time=0),
    Message('pitchwheel', channel=13, pitch=128, time=16),
    Message('pitchwheel', channel=13, pitch=128, time=0),
    Message('pitchwheel', channel=13, pitch=384, time=16),
    Message('pitchwheel', channel=13, pitch=512, time=16),
    Message('pitchwheel', channel=13, pitch=256, time=0),
    Message('pitchwheel', channel=13, pitch=768, time=16),
    Message('pitchwheel', channel=13, pitch=384, time=0),
    Message('pitchwheel', channel=13, pitch=896, time=16),
    Message('pitchwheel', channel=13, pitch=512, time=0),
    Message('pitchwheel', channel=13, pitch=1152, time=16),
    Message('pitchwheel', channel=13, pitch=1280, time=16),
    Message('pitchwheel', channel=13, pitch=640, time=0),
    Message('pitchwheel', channel=13, pitch=1408, time=16),
    Message('pitchwheel', channel=13, pitch=1152, time=128),
    Message('pitchwheel', channel=13, pitch=1024, time=16),
    Message('pitchwheel', channel=13, pitch=512, time=0),
    Message('pitchwheel', channel=13, pitch=768, time=16),
    Message('pitchwheel', channel=13, pitch=384, time=0),
    Message('pitchwheel', channel=13, pitch=640, time=16),
    Message('pitchwheel', channel=13, pitch=256, time=0),
    Message('pitchwheel', channel=13, pitch=512, time=16),
    Message('pitchwheel', channel=13, pitch=256, time=16),
    Message('pitchwheel', channel=13, pitch=128, time=0),
    Message('pitchwheel', channel=13, pitch=128, time=16),
    Message('pitchwheel', channel=13, pitch=0, time=0),
    Message('pitchwheel', channel=13, pitch=0, time=16),
    Message('note_off', channel=13, note=64, velocity=80, time=112),
    Message('pitchwheel', channel=13, pitch=0, time=0),
    Message('note_off', channel=13, note=61, velocity=80, time=0),
    Message('pitchwheel', channel=13, pitch=0, time=0),
    Message('note_on', channel=13, note=64, velocity=95, time=0),
    Message('pitchwheel', channel=13, pitch=0, time=0),
    Message('note_on', channel=13, note=61, velocity=95, time=0),
    Message('pitchwheel', channel=13, pitch=0, time=0),
    Message('pitchwheel', channel=13, pitch=128, time=16),
    Message('pitchwheel', channel=13, pitch=128, time=32),
    Message('pitchwheel', channel=13, pitch=256, time=16),
    Message('pitchwheel', channel=13, pitch=384, time=32),
    Message('pitchwheel', channel=13, pitch=512, time=16),
    Message('pitchwheel', channel=13, pitch=256, time=0),
    Message('pitchwheel', channel=13, pitch=640, time=48),
    Message('pitchwheel', channel=13, pitch=768, time=32),
    Message('pitchwheel', channel=13, pitch=384, time=0),
    Message('pitchwheel', channel=13, pitch=896, time=48),
    Message('pitchwheel', channel=13, pitch=512, time=0),
    Message('pitchwheel', channel=13, pitch=1024, time=16),
    Message('pitchwheel', channel=13, pitch=1152, time=32),
    Message('pitchwheel', channel=13, pitch=640, time=16),
    Message('pitchwheel', channel=13, pitch=1280, time=32),
    Message('pitchwheel', channel=13, pitch=1408, time=16),
    Message('pitchwheel', channel=13, pitch=1280, time=384),
    Message('pitchwheel', channel=13, pitch=1152, time=32),
    Message('pitchwheel', channel=13, pitch=512, time=16),
    Message('pitchwheel', channel=13, pitch=1024, time=32),
    Message('pitchwheel', channel=13, pitch=896, time=16),
    Message('pitchwheel', channel=13, pitch=768, time=32),
    Message('pitchwheel', channel=13, pitch=384, time=0),
    Message('pitchwheel', channel=13, pitch=640, time=48),
    Message('pitchwheel', channel=13, pitch=256, time=0),
    Message('pitchwheel', channel=13, pitch=512, time=16),
    Message('pitchwheel', channel=13, pitch=384, time=48),
    Message('pitchwheel', channel=13, pitch=128, time=0),
    Message('pitchwheel', channel=13, pitch=256, time=32),
    Message('pitchwheel', channel=13, pitch=128, time=16),
    Message('pitchwheel', channel=13, pitch=0, time=32),
    Message('pitchwheel', channel=13, pitch=0, time=16),
    Message('note_off', channel=13, note=64, velocity=80, time=368),
    Message('pitchwheel', channel=13, pitch=0, time=0),
    Message('note_off', channel=13, note=61, velocity=80, time=0),
    Message('pitchwheel', channel=13, pitch=0, time=0),
    Message('note_on', channel=13, note=64, velocity=95, time=0),
    Message('note_on', channel=13, note=61, velocity=95, time=0),
    Message('pitchwheel', channel=13, pitch=-640, time=480),
    Message('pitchwheel', channel=13, pitch=-640, time=0),
    Message('pitchwheel', channel=13, pitch=-1408, time=160),
    Message('pitchwheel', channel=13, pitch=-1408, time=0),
    Message('pitchwheel', channel=13, pitch=-2048, time=160),
    Message('pitchwheel', channel=13, pitch=-2048, time=0),
    Message('note_off', channel=13, note=64, velocity=80, time=160),
    Message('pitchwheel', channel=13, pitch=0, time=0),
    Message('note_off', channel=13, note=61, velocity=80, time=0),
    Message('pitchwheel', channel=13, pitch=0, time=0),
    Message('program_change', channel=12, program=1, time=0),
    Message('program_change', channel=13, program=1, time=0),
    Message('control_change', channel=12, control=7, value=96, time=0),
    Message('control_change', channel=13, control=7, value=96, time=0),
    Message('control_change', channel=12, control=93, value=0, time=0),
    Message('control_change', channel=13, control=93, value=0, time=0),
    Message('control_change', channel=12, control=91, value=16, time=0),
    Message('control_change', channel=13, control=91, value=16, time=0),
    Message('note_on', channel=12, note=73, velocity=95, time=0),
    Message('note_on', channel=12, note=64, velocity=95, time=0),
    Message('note_off', channel=12, note=73, velocity=80, time=960),
    Message('note_off', channel=12, note=64, velocity=80, time=0),
    Message('note_on', channel=12, note=76, velocity=95, time=480),
    Message('note_on', channel=12, note=73, velocity=95, time=0),
    Message('note_off', channel=12, note=76, velocity=80, time=240),
    Message('note_off', channel=12, note=73, velocity=80, time=0),
    Message('note_on', channel=12, note=64, velocity=95, time=0),
    Message('note_off', channel=12, note=64, velocity=80, time=240),
    Message('note_on', channel=12, note=73, velocity=95, time=0),
    Message('note_on', channel=12, note=70, velocity=95, time=0),
    Message('note_off', channel=12, note=73, velocity=80, time=960),
    Message('note_off', channel=12, note=70, velocity=80, time=0),
    Message('note_on', channel=12, note=79, velocity=95, time=480),
    Message('note_on', channel=12, note=76, velocity=95, time=0),
    Message('note_off', channel=12, note=79, velocity=80, time=240),
    Message('note_off', channel=12, note=76, velocity=80, time=0),
    Message('note_on', channel=12, note=70, velocity=95, time=0),
    Message('note_off', channel=12, note=70, velocity=80, time=240),
    Message('note_on', channel=12, note=78, velocity=95, time=0),
    Message('note_on', channel=12, note=74, velocity=95, time=0),
    Message('note_off', channel=12, note=78, velocity=80, time=960),
    Message('note_off', channel=12, note=74, velocity=80, time=0),
    Message('note_on', channel=12, note=69, velocity=95, time=1080),
    Message('note_off', channel=12, note=69, velocity=80, time=119),
    Message('control_change', channel=12, control=7, value=104, time=1),
    Message('control_change', channel=13, control=7, value=104, time=0),
    Message('note_on', channel=12, note=74, velocity=95, time=0),
    Message('note_on', channel=12, note=71, velocity=95, time=0),
    Message('note_off', channel=12, note=74, velocity=80, time=240),
    Message('note_off', channel=12, note=71, velocity=80, time=0),
    Message('note_on', channel=12, note=74, velocity=95, time=0),
    Message('note_on', channel=12, note=69, velocity=95, time=0),
    Message('note_off', channel=12, note=74, velocity=80, time=240),
    Message('note_off', channel=12, note=69, velocity=80, time=0),
    Message('note_on', channel=12, note=71, velocity=95, time=0),
    Message('note_on', channel=12, note=66, velocity=95, time=0),
    Message('note_off', channel=12, note=71, velocity=80, time=480),
    Message('note_off', channel=12, note=66, velocity=80, time=0),
    Message('note_on', channel=12, note=66, velocity=95, time=0),
    Message('note_on', channel=12, note=62, velocity=95, time=0),
    Message('note_off', channel=12, note=66, velocity=80, time=720),
    Message('note_off', channel=12, note=62, velocity=80, time=0),
    Message('note_on', channel=12, note=68, velocity=95, time=0),
    Message('note_on', channel=12, note=64, velocity=95, time=0),
    Message('note_on', channel=12, note=59, velocity=95, time=0),
    Message('note_off', channel=12, note=68, velocity=80, time=960),
    Message('note_off', channel=12, note=64, velocity=80, time=0),
    Message('note_off', channel=12, note=59, velocity=80, time=0),
    Message('note_on', channel=12, note=69, velocity=95, time=240),
    Message('note_on', channel=12, note=61, velocity=95, time=0),
    Message('note_off', channel=12, note=69, velocity=80, time=480),
    Message('note_off', channel=12, note=61, velocity=80, time=0),
    Message('note_on', channel=12, note=71, velocity=95, time=0),
    Message('note_on', channel=12, note=62, velocity=95, time=0),
    Message('note_off', channel=12, note=71, velocity=80, time=1200),
    Message('note_off', channel=12, note=62, velocity=80, time=0),
    Message('note_on', channel=12, note=66, velocity=95, time=240),
    Message('note_off', channel=12, note=66, velocity=80, time=240),
    Message('note_on', channel=12, note=74, velocity=95, time=0),
    Message('note_off', channel=12, note=74, velocity=80, time=120),
    Message('note_on', channel=12, note=66, velocity=95, time=0),
    Message('note_off', channel=12, note=66, velocity=80, time=120),
    Message('note_on', channel=12, note=74, velocity=95, time=0),
    Message('note_off', channel=12, note=74, velocity=80, time=120),
    Message('note_on', channel=12, note=66, velocity=95, time=0),
    Message('note_off', channel=12, note=66, velocity=80, time=120),
    Message('note_on', channel=12, note=73, velocity=95, time=0),
    Message('note_on', channel=12, note=64, velocity=95, time=0),
    Message('note_off', channel=12, note=73, velocity=80, time=480),
    Message('note_off', channel=12, note=64, velocity=80, time=0),
    Message('note_on', channel=12, note=85, velocity=95, time=1200),
    Message('note_on', channel=12, note=76, velocity=95, time=0),
    Message('note_off', channel=12, note=85, velocity=80, time=240),
    Message('note_off', channel=12, note=76, velocity=80, time=0),
    Message('note_on', channel=12, note=83, velocity=95, time=240),
    Message('note_on', channel=12, note=74, velocity=95, time=0),
    Message('note_off', channel=12, note=83, velocity=80, time=240),
    Message('note_off', channel=12, note=74, velocity=80, time=0),
    Message('note_on', channel=12, note=81, velocity=95, time=240),
    Message('note_on', channel=12, note=73, velocity=95, time=0),
    Message('note_off', channel=12, note=81, velocity=80, time=240),
    Message('note_off', channel=12, note=73, velocity=80, time=0),
    Message('note_on', channel=12, note=78, velocity=95, time=240),
    Message('note_on', channel=12, note=74, velocity=95, time=0),
    Message('note_on', channel=12, note=71, velocity=95, time=0),
    Message('note_off', channel=12, note=78, velocity=80, time=240),
    Message('note_off', channel=12, note=74, velocity=80, time=0),
    Message('note_off', channel=12, note=71, velocity=80, time=0),
    Message('note_on', channel=12, note=76, velocity=95, time=240),
    Message('note_on', channel=12, note=71, velocity=95, time=0),
    Message('note_on', channel=12, note=68, velocity=95, time=0),
    Message('note_off', channel=12, note=76, velocity=80, time=240),
    Message('note_off', channel=12, note=71, velocity=80, time=0),
    Message('note_off', channel=12, note=68, velocity=80, time=0),
    Message('program_change', channel=12, program=26, time=48720),
    Message('program_change', channel=13, program=26, time=0),
    Message('control_change', channel=12, control=7, value=80, time=0),
    Message('control_change', channel=13, control=7, value=80, time=0),
    Message('control_change', channel=12, control=10, value=40, time=0),
    Message('control_change', channel=13, control=10, value=40, time=0),
    Message('control_change', channel=12, control=93, value=80, time=0),
    Message('control_change', channel=13, control=93, value=80, time=0),
    Message('control_change', channel=12, control=91, value=64, time=0),
    Message('control_change', channel=13, control=91, value=64, time=0),
    Message('note_on', channel=12, note=64, velocity=127, time=0),
    Message('note_off', channel=12, note=64, velocity=80, time=240),
    Message('note_on', channel=12, note=66, velocity=127, time=0),
    Message('note_off', channel=12, note=66, velocity=80, time=240),
    Message('note_on', channel=12, note=67, velocity=127, time=0),
    Message('note_off', channel=12, note=67, velocity=80, time=240),
    Message('note_on', channel=12, note=69, velocity=127, time=0),
    Message('note_off', channel=12, note=69, velocity=80, time=240),
    Message('note_on', channel=12, note=76, velocity=127, time=0),
    Message('note_on', channel=12, note=71, velocity=127, time=0),
    Message('note_off', channel=12, note=76, velocity=80, time=240),
    Message('note_off', channel=12, note=71, velocity=80, time=0),
    Message('note_on', channel=13, note=76, velocity=127, time=0),
    Message('note_on', channel=13, note=71, velocity=127, time=0),
    Message('pitchwheel', channel=13, pitch=0, time=0),
    Message('pitchwheel', channel=13, pitch=0, time=80),
    Message('pitchwheel', channel=13, pitch=128, time=0),
    Message('pitchwheel', channel=13, pitch=256, time=80),
    Message('pitchwheel', channel=13, pitch=256, time=48),
    Message('pitchwheel', channel=13, pitch=0, time=32),
    Message('pitchwheel', channel=13, pitch=256, time=80),
    Message('pitchwheel', channel=13, pitch=384, time=16),
    Message('pitchwheel', channel=13, pitch=0, time=64),
    Message('pitchwheel', channel=13, pitch=512, time=32),
    Message('pitchwheel', channel=13, pitch=256, time=48),
    Message('pitchwheel', channel=13, pitch=0, time=80),
    Message('pitchwheel', channel=13, pitch=640, time=0),
    Message('pitchwheel', channel=13, pitch=256, time=80),
    Message('pitchwheel', channel=13, pitch=768, time=48),
    Message('pitchwheel', channel=13, pitch=0, time=32),
    Message('pitchwheel', channel=13, pitch=256, time=80),
    Message('pitchwheel', channel=13, pitch=896, time=16),
    Message('pitchwheel', channel=13, pitch=0, time=64),
    Message('pitchwheel', channel=13, pitch=256, time=80),
    Message('pitchwheel', channel=13, pitch=1024, time=0),
    Message('pitchwheel', channel=13, pitch=0, time=80),
    Message('pitchwheel', channel=13, pitch=1152, time=0),
    Message('pitchwheel', channel=13, pitch=256, time=80),
    Message('pitchwheel', channel=13, pitch=1280, time=48),
    Message('pitchwheel', channel=13, pitch=0, time=32),
    Message('pitchwheel', channel=13, pitch=256, time=80),
    Message('pitchwheel', channel=13, pitch=1536, time=32),
    Message('pitchwheel', channel=13, pitch=1408, time=32),
    Message('pitchwheel', channel=13, pitch=0, time=16),
    Message('pitchwheel', channel=13, pitch=1280, time=16),
    Message('pitchwheel', channel=13, pitch=1408, time=32),
    Message('pitchwheel', channel=13, pitch=256, time=32),
    Message('pitchwheel', channel=13, pitch=1536, time=0),
    Message('pitchwheel', channel=13, pitch=1408, time=32),
    Message('pitchwheel', channel=13, pitch=1280, time=32),
    Message('pitchwheel', channel=13, pitch=0, time=16),
    Message('pitchwheel', channel=13, pitch=1408, time=16),
    Message('pitchwheel', channel=13, pitch=1536, time=32),
    Message('pitchwheel', channel=13, pitch=256, time=32),
    Message('pitchwheel', channel=13, pitch=1408, time=0),
    Message('pitchwheel', channel=13, pitch=1280, time=32),
    Message('pitchwheel', channel=13, pitch=1408, time=32),
    Message('pitchwheel', channel=13, pitch=0, time=16),
    Message('pitchwheel', channel=13, pitch=1536, time=16),
    Message('pitchwheel', channel=13, pitch=1408, time=32),
    Message('pitchwheel', channel=13, pitch=256, time=32),
    Message('pitchwheel', channel=13, pitch=1280, time=0),
    Message('pitchwheel', channel=13, pitch=1408, time=32),
    Message('pitchwheel', channel=13, pitch=1536, time=32),
    Message('pitchwheel', channel=13, pitch=0, time=16),
    Message('pitchwheel', channel=13, pitch=1408, time=16),
    Message('pitchwheel', channel=13, pitch=1280, time=32),
    Message('pitchwheel', channel=13, pitch=256, time=32),
    Message('pitchwheel', channel=13, pitch=1408, time=0),
    Message('pitchwheel', channel=13, pitch=1536, time=32),
    Message('pitchwheel', channel=13, pitch=1408, time=32),
    Message('pitchwheel', channel=13, pitch=0, time=16),
    Message('pitchwheel', channel=13, pitch=1280, time=16),
    Message('pitchwheel', channel=13, pitch=1408, time=32),
    Message('pitchwheel', channel=13, pitch=256, time=32),
    Message('pitchwheel', channel=13, pitch=1536, time=0),
    Message('pitchwheel', channel=13, pitch=1408, time=32),
    Message('pitchwheel', channel=13, pitch=1280, time=32),
    Message('pitchwheel', channel=13, pitch=0, time=16),
    Message('pitchwheel', channel=13, pitch=1408, time=16),
    Message('pitchwheel', channel=13, pitch=1536, time=32),
    Message('pitchwheel', channel=13, pitch=256, time=32),
    Message('pitchwheel', channel=13, pitch=1408, time=0),
    Message('pitchwheel', channel=13, pitch=1280, time=32),
    Message('pitchwheel', channel=13, pitch=1408, time=32),
    Message('pitchwheel', channel=13, pitch=0, time=16),
    Message('pitchwheel', channel=13, pitch=1536, time=16),
    Message('pitchwheel', channel=13, pitch=1408, time=32),
    Message('pitchwheel', channel=13, pitch=256, time=32),
    Message('pitchwheel', channel=13, pitch=1280, time=0),
    Message('pitchwheel', channel=13, pitch=1408, time=32),
    Message('pitchwheel', channel=13, pitch=1536, time=32),
    Message('pitchwheel', channel=13, pitch=0, time=16),
    Message('pitchwheel', channel=13, pitch=1408, time=16),
    Message('pitchwheel', channel=13, pitch=1280, time=32),
    Message('pitchwheel', channel=13, pitch=256, time=32),
    Message('pitchwheel', channel=13, pitch=1408, time=0),
    Message('pitchwheel', channel=13, pitch=1536, time=32),
    Message('pitchwheel', channel=13, pitch=1408, time=32),
    Message('note_off', channel=13, note=76, velocity=80, time=16),
    Message('pitchwheel', channel=13, pitch=0, time=0),
    Message('pitchwheel', channel=13, pitch=0, time=0),
    Message('note_off', channel=13, note=71, velocity=80, time=0),
    Message('pitchwheel', channel=13, pitch=0, time=0),
    Message('note_on', channel=13, note=74, velocity=127, time=480),
    Message('pitchwheel', channel=13, pitch=0, time=0),
    Message('note_on', channel=13, note=71, velocity=127, time=0),
    Message('pitchwheel', channel=13, pitch=0, time=0),
    Message('pitchwheel', channel=13, pitch=128, time=64),
    Message('pitchwheel', channel=13, pitch=128, time=0),
    Message('pitchwheel', channel=13, pitch=256, time=112),
    Message('pitchwheel', channel=13, pitch=256, time=0),
    Message('pitchwheel', channel=13, pitch=384, time=96),
    Message('pitchwheel', channel=13, pitch=384, time=0),
    Message('pitchwheel', channel=13, pitch=512, time=80),
    Message('pitchwheel', channel=13, pitch=512, time=0),
    Message('pitchwheel', channel=13, pitch=640, time=112),
    Message('pitchwheel', channel=13, pitch=640, time=0),
    Message('pitchwheel', channel=13, pitch=768, time=96),
    Message('pitchwheel', channel=13, pitch=768, time=0),
    Message('pitchwheel', channel=13, pitch=896, time=112),
    Message('pitchwheel', channel=13, pitch=896, time=0),
    Message('pitchwheel', channel=13, pitch=1024, time=112),
    Message('pitchwheel', channel=13, pitch=1024, time=0),
    Message('pitchwheel', channel=13, pitch=1152, time=64),
    Message('pitchwheel', channel=13, pitch=1152, time=0),
    Message('pitchwheel', channel=13, pitch=1280, time=112),
    Message('pitchwheel', channel=13, pitch=1280, time=0),
    Message('pitchwheel', channel=13, pitch=1408, time=112),
    Message('pitchwheel', channel=13, pitch=1408, time=0),
    Message('note_off', channel=13, note=74, velocity=80, time=1088),
    Message('pitchwheel', channel=13, pitch=0, time=0),
    Message('note_off', channel=13, note=71, velocity=80, time=0),
    Message('pitchwheel', channel=13, pitch=0, time=0),
    Message('note_on', channel=12, note=71, velocity=127, time=2400),
    Message('note_on', channel=13, note=66, velocity=127, time=0),
    Message('pitchwheel', channel=13, pitch=0, time=0),
    Message('pitchwheel', channel=13, pitch=128, time=16),
    Message('pitchwheel', channel=13, pitch=256, time=48),
    Message('pitchwheel', channel=13, pitch=384, time=32),
    Message('pitchwheel', channel=13, pitch=512, time=16),
    Message('pitchwheel', channel=13, pitch=640, time=48),
    Message('pitchwheel', channel=13, pitch=768, time=32),
    Message('pitchwheel', channel=13, pitch=896, time=48),
    Message('pitchwheel', channel=13, pitch=1024, time=16),
    Message('pitchwheel', channel=13, pitch=1152, time=32),
    Message('pitchwheel', channel=13, pitch=1280, time=48),
    Message('pitchwheel', channel=13, pitch=1408, time=16),
    Message('pitchwheel', channel=13, pitch=1280, time=384),
    Message('pitchwheel', channel=13, pitch=1152, time=32),
    Message('pitchwheel', channel=13, pitch=1024, time=48),
    Message('pitchwheel', channel=13, pitch=896, time=16),
    Message('pitchwheel', channel=13, pitch=768, time=32),
    Message('pitchwheel', channel=13, pitch=640, time=48),
    Message('pitchwheel', channel=13, pitch=512, time=16),
    Message('pitchwheel', channel=13, pitch=384, time=48),
    Message('pitchwheel', channel=13, pitch=256, time=32),
    Message('pitchwheel', channel=13, pitch=128, time=16),
    Message('pitchwheel', channel=13, pitch=0, time=48),
    Message('note_off', channel=12, note=71, velocity=80, time=368),
    Message('note_off', channel=13, note=66, velocity=80, time=0),
    Message('pitchwheel', channel=13, pitch=0, time=0),
    Message('note_on', channel=13, note=64, velocity=127, time=0),
    Message('pitchwheel', channel=13, pitch=640, time=360),
    Message('pitchwheel', channel=13, pitch=1408, time=33),
    Message('pitchwheel', channel=13, pitch=2048, time=32),
    Message('pitchwheel', channel=13, pitch=2688, time=33),
    Message('pitchwheel', channel=13, pitch=3456, time=33),
    Message('pitchwheel', channel=13, pitch=4096, time=33),
    Message('pitchwheel', channel=13, pitch=4736, time=32),
    Message('pitchwheel', channel=13, pitch=5504, time=33),
    Message('pitchwheel', channel=13, pitch=6144, time=33),
    Message('pitchwheel', channel=13, pitch=6784, time=33),
    Message('pitchwheel', channel=13, pitch=7552, time=32),
    Message('pitchwheel', channel=13, pitch=8064, time=33),
    Message('note_off', channel=13, note=64, velocity=80, time=480),
    Message('pitchwheel', channel=13, pitch=0, time=0),
    Message('note_on', channel=13, note=80, velocity=127, time=3120),
    Message('pitchwheel', channel=13, pitch=0, time=0),
    Message('pitchwheel', channel=13, pitch=128, time=16),
    Message('pitchwheel', channel=13, pitch=256, time=32),
    Message('pitchwheel', channel=13, pitch=384, time=16),
    Message('pitchwheel', channel=13, pitch=512, time=16),
    Message('pitchwheel', channel=13, pitch=640, time=32),
    Message('pitchwheel', channel=13, pitch=512, time=160),
    Message('pitchwheel', channel=13, pitch=384, time=16),
    Message('pitchwheel', channel=13, pitch=256, time=16),
    Message('pitchwheel', channel=13, pitch=128, time=32),
    Message('pitchwheel', channel=13, pitch=0, time=16),
    Message('note_off', channel=13, note=80, velocity=80, time=128),
    Message('pitchwheel', channel=13, pitch=0, time=0),
    Message('note_on', channel=12, note=78, velocity=127, time=0),
    Message('note_off', channel=12, note=78, velocity=80, time=240),
    Message('note_on', channel=12, note=76, velocity=127, time=0),
    Message('note_on', channel=13, note=71, velocity=114, time=0),
    Message('pitchwheel', channel=13, pitch=0, time=0),
    Message('pitchwheel', channel=13, pitch=384, time=16),
    Message('pitchwheel', channel=13, pitch=768, time=16),
    Message('pitchwheel', channel=13, pitch=1152, time=16),
    Message('pitchwheel', channel=13, pitch=1408, time=16),
    Message('pitchwheel', channel=13, pitch=1152, time=64),
    Message('pitchwheel', channel=13, pitch=768, time=16),
    Message('pitchwheel', channel=13, pitch=512, time=16),
    Message('pitchwheel', channel=13, pitch=128, time=16),
    Message('pitchwheel', channel=13, pitch=0, time=16),
    Message('note_off', channel=12, note=76, velocity=80, time=48),
    Message('note_off', channel=13, note=71, velocity=80, time=0),
    Message('pitchwheel', channel=13, pitch=0, time=0),
    Message('note_on', channel=13, note=71, velocity=95, time=0),
    Message('pitchwheel', channel=13, pitch=0, time=0),
    Message('pitchwheel', channel=13, pitch=128, time=80),
    Message('pitchwheel', channel=13, pitch=256, time=144),
    Message('pitchwheel', channel=13, pitch=384, time=144),
    Message('pitchwheel', channel=13, pitch=512, time=96),
    Message('pitchwheel', channel=13, pitch=640, time=144),
    Message('pitchwheel', channel=13, pitch=768, time=144),
    Message('pitchwheel', channel=13, pitch=896, time=144),
    Message('pitchwheel', channel=13, pitch=1024, time=144),
    Message('pitchwheel', channel=13, pitch=1152, time=96),
    Message('pitchwheel', channel=13, pitch=1280, time=144),
    Message('pitchwheel', channel=13, pitch=1408, time=144),
    Message('note_off', channel=13, note=71, velocity=80, time=1456),
    Message('pitchwheel', channel=13, pitch=0, time=0),
    Message('note_on', channel=13, note=74, velocity=127, time=240),
    Message('pitchwheel', channel=13, pitch=0, time=0),
    Message('note_on', channel=13, note=71, velocity=127, time=0),
    Message('pitchwheel', channel=13, pitch=0, time=0),
    Message('pitchwheel', channel=13, pitch=128, time=16),
    Message('pitchwheel', channel=13, pitch=128, time=0),
    Message('pitchwheel', channel=13, pitch=256, time=64),
    Message('pitchwheel', channel=13, pitch=256, time=0),
    Message('pitchwheel', channel=13, pitch=384, time=32),
    Message('pitchwheel', channel=13, pitch=384, time=0),
    Message('pitchwheel', channel=13, pitch=512, time=16),
    Message('pitchwheel', channel=13, pitch=512, time=0),
    Message('pitchwheel', channel=13, pitch=640, time=64),
    Message('pitchwheel', channel=13, pitch=640, time=0),
    Message('pitchwheel', channel=13, pitch=768, time=32),
    Message('pitchwheel', channel=13, pitch=768, time=0),
    Message('pitchwheel', channel=13, pitch=896, time=48),
    Message('pitchwheel', channel=13, pitch=896, time=0),
    Message('pitchwheel', channel=13, pitch=1024, time=32),
    Message('pitchwheel', channel=13, pitch=1024, time=0),
    Message('pitchwheel', channel=13, pitch=1152, time=32),
    Message('pitchwheel', channel=13, pitch=1152, time=0),
    Message('pitchwheel', channel=13, pitch=1280, time=48),
    Message('pitchwheel', channel=13, pitch=1280, time=0),
    Message('pitchwheel', channel=13, pitch=1408, time=32),
    Message('pitchwheel', channel=13, pitch=1408, time=0),
    Message('pitchwheel', channel=13, pitch=1280, time=448),
    Message('pitchwheel', channel=13, pitch=1280, time=0),
    Message('pitchwheel', channel=13, pitch=1152, time=32),
    Message('pitchwheel', channel=13, pitch=1152, time=0),
    Message('pitchwheel', channel=13, pitch=1024, time=48),
    Message('pitchwheel', channel=13, pitch=1024, time=0),
    Message('pitchwheel', channel=13, pitch=896, time=32),
    Message('pitchwheel', channel=13, pitch=896, time=0),
    Message('pitchwheel', channel=13, pitch=768, time=32),
    Message('pitchwheel', channel=13, pitch=768, time=0),
    Message('pitchwheel', channel=13, pitch=640, time=48),
    Message('pitchwheel', channel=13, pitch=640, time=0),
    Message('pitchwheel', channel=13, pitch=512, time=32),
    Message('pitchwheel', channel=13, pitch=512, time=0),
    Message('pitchwheel', channel=13, pitch=384, time=48),
    Message('pitchwheel', channel=13, pitch=384, time=0),
    Message('pitchwheel', channel=13, pitch=256, time=32),
    Message('pitchwheel', channel=13, pitch=256, time=0),
    Message('pitchwheel', channel=13, pitch=128, time=32),
    Message('pitchwheel', channel=13, pitch=128, time=0),
    Message('pitchwheel', channel=13, pitch=0, time=48),
    Message('pitchwheel', channel=13, pitch=0, time=0),
    Message('note_off', channel=13, note=74, velocity=80, time=432),
    Message('pitchwheel', channel=13, pitch=0, time=0),
    Message('note_off', channel=13, note=71, velocity=80, time=0),
    Message('pitchwheel', channel=13, pitch=0, time=0),
    Message('note_on', channel=12, note=69, velocity=127, time=3840),
    Message('note_on', channel=12, note=64, velocity=127, time=0),
    Message('note_on', channel=12, note=61, velocity=127, time=0),
    Message('note_off', channel=12, note=69, velocity=80, time=480),
    Message('note_off', channel=12, note=64, velocity=80, time=0),
    Message('note_off', channel=12, note=61, velocity=80, time=0),
    Message('note_on', channel=12, note=69, velocity=127, time=0),
    Message('note_on', channel=12, note=64, velocity=127, time=0),
    Message('note_on', channel=12, note=61, velocity=127, time=0),
    Message('note_on', channel=12, note=68, velocity=95, time=360),
    Message('note_on', channel=12, note=59, velocity=95, time=0),
    Message('note_off', channel=12, note=68, velocity=80, time=119),
    Message('note_off', channel=12, note=59, velocity=80, time=0),
    Message('note_off', channel=12, note=69, velocity=80, time=1),
    Message('note_off', channel=12, note=64, velocity=80, time=0),
    Message('note_off', channel=12, note=61, velocity=80, time=0),
    Message('note_on', channel=12, note=69, velocity=127, time=0),
    Message('note_on', channel=12, note=64, velocity=127, time=0),
    Message('note_on', channel=12, note=61, velocity=127, time=0),
    Message('note_off', channel=12, note=69, velocity=80, time=240),
    Message('note_off', channel=12, note=64, velocity=80, time=0),
    Message('note_off', channel=12, note=61, velocity=80, time=0),
    Message('note_on', channel=12, note=69, velocity=127, time=0),
    Message('note_on', channel=12, note=64, velocity=127, time=0),
    Message('note_off', channel=12, note=69, velocity=80, time=240),
    Message('note_off', channel=12, note=64, velocity=80, time=0),
    Message('note_on', channel=12, note=69, velocity=127, time=0),
    Message('note_on', channel=12, note=64, velocity=127, time=0),
    Message('note_on', channel=12, note=61, velocity=127, time=0),
    Message('note_on', channel=12, note=68, velocity=95, time=360),
    Message('note_on', channel=12, note=60, velocity=95, time=0),
    Message('note_off', channel=12, note=68, velocity=80, time=119),
    Message('note_off', channel=12, note=60, velocity=80, time=0),
    Message('note_off', channel=12, note=69, velocity=80, time=1),
    Message('note_off', channel=12, note=64, velocity=80, time=0),
    Message('note_off', channel=12, note=61, velocity=80, time=0),
    Message('note_on', channel=12, note=69, velocity=127, time=0),
    Message('note_on', channel=12, note=64, velocity=127, time=0),
    Message('note_on', channel=12, note=61, velocity=127, time=0),
    Message('note_on', channel=12, note=68, velocity=95, time=360),
    Message('note_on', channel=12, note=60, velocity=95, time=0),
    Message('note_off', channel=12, note=68, velocity=80, time=119),
    Message('note_off', channel=12, note=60, velocity=80, time=0),
    Message('note_off', channel=12, note=69, velocity=80, time=1),
    Message('note_off', channel=12, note=64, velocity=80, time=0),
    Message('note_off', channel=12, note=61, velocity=80, time=0),
    Message('note_on', channel=12, note=69, velocity=127, time=0),
    Message('note_on', channel=12, note=64, velocity=127, time=0),
    Message('note_on', channel=12, note=61, velocity=127, time=0),
    Message('note_on', channel=12, note=68, velocity=95, time=360),
    Message('note_on', channel=12, note=60, velocity=95, time=0),
    Message('note_off', channel=12, note=68, velocity=80, time=119),
    Message('note_off', channel=12, note=60, velocity=80, time=0),
    Message('note_off', channel=12, note=69, velocity=80, time=1),
    Message('note_off', channel=12, note=64, velocity=80, time=0),
    Message('note_off', channel=12, note=61, velocity=80, time=0),
    Message('note_on', channel=12, note=69, velocity=127, time=0),
    Message('note_on', channel=12, note=64, velocity=127, time=0),
    Message('note_on', channel=12, note=61, velocity=127, time=0),
    Message('note_off', channel=12, note=69, velocity=80, time=480),
    Message('note_off', channel=12, note=64, velocity=80, time=0),
    Message('note_off', channel=12, note=61, velocity=80, time=0),
    Message('note_on', channel=12, note=64, velocity=95, time=4800),
    Message('note_on', channel=13, note=59, velocity=95, time=0),
    Message('pitchwheel', channel=13, pitch=0, time=0),
    Message('pitchwheel', channel=13, pitch=128, time=48),
    Message('pitchwheel', channel=13, pitch=256, time=112),
    Message('pitchwheel', channel=13, pitch=384, time=80),
    Message('pitchwheel', channel=13, pitch=512, time=64),
    Message('pitchwheel', channel=13, pitch=640, time=112),
    Message('pitchwheel', channel=13, pitch=768, time=80),
    Message('pitchwheel', channel=13, pitch=896, time=112),
    Message('pitchwheel', channel=13, pitch=1024, time=80),
    Message('pitchwheel', channel=13, pitch=1152, time=64),
    Message('pitchwheel', channel=13, pitch=1280, time=112),
    Message('pitchwheel', channel=13, pitch=1408, time=80),
    Message('note_off', channel=12, note=64, velocity=80, time=976),
    Message('note_off', channel=13, note=59, velocity=80, time=0),
    Message('pitchwheel', channel=13, pitch=0, time=0),
    Message('note_on', channel=13, note=61, velocity=95, time=720),
    Message('pitchwheel', channel=13, pitch=0, time=0),
    Message('note_on', channel=13, note=57, velocity=95, time=0),
    Message('pitchwheel', channel=13, pitch=0, time=0),
    Message('pitchwheel', channel=13, pitch=128, time=16),
    Message('pitchwheel', channel=13, pitch=128, time=16),
    Message('pitchwheel', channel=13, pitch=256, time=16),
    Message('pitchwheel', channel=13, pitch=384, time=16),
    Message('pitchwheel', channel=13, pitch=256, time=16),
    Message('pitchwheel', channel=13, pitch=512, time=0),
    Message('pitchwheel', channel=13, pitch=640, time=32),
    Message('pitchwheel', channel=13, pitch=384, time=16),
    Message('pitchwheel', channel=13, pitch=768, time=0),
    Message('pitchwheel', channel=13, pitch=512, time=32),
    Message('pitchwheel', channel=13, pitch=896, time=0),
    Message('pitchwheel', channel=13, pitch=1024, time=16),
    Message('pitchwheel', channel=13, pitch=1152, time=16),
    Message('pitchwheel', channel=13, pitch=640, time=16),
    Message('pitchwheel', channel=13, pitch=1280, time=16),
    Message('pitchwheel', channel=13, pitch=1408, time=16),
    Message('note_off', channel=13, note=61, velocity=80, time=240),
    Message('pitchwheel', channel=13, pitch=0, time=0),
    Message('note_off', channel=13, note=57, velocity=80, time=0),
    Message('pitchwheel', channel=13, pitch=0, time=0),
    Message('note_on', channel=12, note=64, velocity=95, time=0),
    Message('note_on', channel=12, note=61, velocity=95, time=0),
    Message('note_off', channel=12, note=64, velocity=80, time=240),
    Message('note_off', channel=12, note=61, velocity=80, time=0),
    Message('note_on', channel=13, note=64, velocity=95, time=0),
    Message('pitchwheel', channel=13, pitch=0, time=0),
    Message('note_on', channel=13, note=61, velocity=95, time=0),
    Message('pitchwheel', channel=13, pitch=0, time=0),
    Message('pitchwheel', channel=13, pitch=128, time=96),
    Message('pitchwheel', channel=13, pitch=128, time=48),
    Message('pitchwheel', channel=13, pitch=256, time=112),
    Message('pitchwheel', channel=13, pitch=384, time=176),
    Message('pitchwheel', channel=13, pitch=256, time=48),
    Message('pitchwheel', channel=13, pitch=512, time=64),
    Message('pitchwheel', channel=13, pitch=640, time=160),
    Message('pitchwheel', channel=13, pitch=384, time=112),
    Message('pitchwheel', channel=13, pitch=768, time=64),
    Message('pitchwheel', channel=13, pitch=896, time=160),
    Message('pitchwheel', channel=13, pitch=512, time=64),
    Message('pitchwheel', channel=13, pitch=1024, time=112),
    Message('pitchwheel', channel=13, pitch=1152, time=112),
    Message('pitchwheel', channel=13, pitch=640, time=112),
    Message('pitchwheel', channel=13, pitch=1280, time=48),
    Message('pitchwheel', channel=13, pitch=1408, time=176),
    Message('note_off', channel=13, note=64, velocity=80, time=1696),
    Message('pitchwheel', channel=13, pitch=0, time=0),
    Message('note_off', channel=13, note=61, velocity=80, time=0),
    Message('pitchwheel', channel=13, pitch=0, time=0),
    Message('note_on', channel=12, note=64, velocity=95, time=480),
    Message('note_on', channel=13, note=63, velocity=95, time=0),
    Message('pitchwheel', channel=13, pitch=0, time=0),
    Message('pitchwheel', channel=13, pitch=128, time=16),
    Message('pitchwheel', channel=13, pitch=256, time=32),
    Message('pitchwheel', channel=13, pitch=384, time=16),
    Message('pitchwheel', channel=13, pitch=512, time=16),
    Message('pitchwheel', channel=13, pitch=640, time=32),
    Message('note_off', channel=12, note=64, velocity=80, time=128),
    Message('note_off', channel=13, note=63, velocity=80, time=0),
    Message('pitchwheel', channel=13, pitch=0, time=0),
    Message('note_on', channel=12, note=64, velocity=95, time=0),
    Message('note_off', channel=12, note=64, velocity=80, time=240),
    Message('note_on', channel=12, note=64, velocity=95, time=0),
    Message('note_off', channel=12, note=64, velocity=80, time=240),
    Message('note_on', channel=12, note=64, velocity=95, time=0),
    Message('note_off', channel=12, note=64, velocity=80, time=240),
    Message('note_on', channel=12, note=64, velocity=95, time=0),
    Message('note_on', channel=13, note=66, velocity=95, time=0),
    Message('pitchwheel', channel=13, pitch=0, time=0),
    Message('pitchwheel', channel=13, pitch=128, time=16),
    Message('pitchwheel', channel=13, pitch=256, time=32),
    Message('pitchwheel', channel=13, pitch=384, time=16),
    Message('pitchwheel', channel=13, pitch=512, time=16),
    Message('pitchwheel', channel=13, pitch=640, time=32),
    Message('pitchwheel', channel=13, pitch=768, time=16),
    Message('pitchwheel', channel=13, pitch=896, time=32),
    Message('pitchwheel', channel=13, pitch=1024, time=16),
    Message('pitchwheel', channel=13, pitch=1152, time=16),
    Message('pitchwheel', channel=13, pitch=1280, time=32),
    Message('pitchwheel', channel=13, pitch=1408, time=16),
    Message('note_off', channel=12, note=64, velocity=80, time=240),
    Message('note_off', channel=13, note=66, velocity=80, time=0),
    Message('pitchwheel', channel=13, pitch=0, time=0),
    Message('note_on', channel=12, note=64, velocity=95, time=0),
    Message('note_off', channel=12, note=64, velocity=80, time=240),
    Message('note_on', channel=12, note=64, velocity=95, time=0),
    Message('note_off', channel=12, note=64, velocity=80, time=240),
    Message('note_on', channel=12, note=64, velocity=95, time=0),
    Message('note_on', channel=13, note=63, velocity=95, time=0),
    Message('pitchwheel', channel=13, pitch=0, time=0),
    Message('pitchwheel', channel=13, pitch=128, time=32),
    Message('pitchwheel', channel=13, pitch=256, time=48),
    Message('pitchwheel', channel=13, pitch=384, time=48),
    Message('pitchwheel', channel=13, pitch=512, time=32),
    Message('pitchwheel', channel=13, pitch=640, time=48),
    Message('note_off', channel=12, note=64, velocity=80, time=272),
    Message('note_off', channel=13, note=63, velocity=80, time=0),
    Message('pitchwheel', channel=13, pitch=0, time=0),
    Message('note_on', channel=13, note=83, velocity=95, time=3600),
    Message('pitchwheel', channel=13, pitch=0, time=0),
    Message('pitchwheel', channel=13, pitch=384, time=16),
    Message('pitchwheel', channel=13, pitch=768, time=16),
    Message('pitchwheel', channel=13, pitch=1152, time=16),
    Message('pitchwheel', channel=13, pitch=1408, time=16),
    Message('pitchwheel', channel=13, pitch=1152, time=64),
    Message('pitchwheel', channel=13, pitch=768, time=16),
    Message('pitchwheel', channel=13, pitch=512, time=16),
    Message('pitchwheel', channel=13, pitch=128, time=16),
    Message('pitchwheel', channel=13, pitch=0, time=16),
    Message('note_off', channel=13, note=83, velocity=80, time=48),
    Message('pitchwheel', channel=13, pitch=0, time=0),
    Message('note_on', channel=13, note=83, velocity=95, time=0),
    Message('pitchwheel', channel=13, pitch=0, time=0),
    Message('pitchwheel', channel=13, pitch=128, time=16),
    Message('pitchwheel', channel=13, pitch=384, time=16),
    Message('pitchwheel', channel=13, pitch=512, time=16),
    Message('pitchwheel', channel=13, pitch=768, time=16),
    Message('pitchwheel', channel=13, pitch=896, time=16),
    Message('pitchwheel', channel=13, pitch=1152, time=16),
    Message('pitchwheel', channel=13, pitch=1280, time=16),
    Message('pitchwheel', channel=13, pitch=1408, time=16),
    Message('pitchwheel', channel=13, pitch=1152, time=128),
    Message('pitchwheel', channel=13, pitch=1024, time=16),
    Message('pitchwheel', channel=13, pitch=768, time=16),
    Message('pitchwheel', channel=13, pitch=640, time=16),
    Message('pitchwheel', channel=13, pitch=512, time=16),
    Message('pitchwheel', channel=13, pitch=256, time=16),
    Message('pitchwheel', channel=13, pitch=128, time=16),
    Message('pitchwheel', channel=13, pitch=0, time=16),
    Message('note_off', channel=13, note=83, velocity=80, time=112),
    Message('pitchwheel', channel=13, pitch=0, time=0),
    Message('note_on', channel=12, note=81, velocity=95, time=0),
    Message('note_off', channel=12, note=81, velocity=80, time=240),
    Message('note_on', channel=12, note=76, velocity=95, time=0),
    Message('note_off', channel=12, note=76, velocity=80, time=720),
    Message('note_on', channel=13, note=74, velocity=95, time=2880),
    Message('pitchwheel', channel=13, pitch=0, time=0),
    Message('note_on', channel=13, note=71, velocity=95, time=0),
    Message('pitchwheel', channel=13, pitch=0, time=0),
    Message('pitchwheel', channel=13, pitch=128, time=16),
    Message('pitchwheel', channel=13, pitch=128, time=0),
    Message('pitchwheel', channel=13, pitch=256, time=32),
    Message('pitchwheel', channel=13, pitch=256, time=0),
    Message('pitchwheel', channel=13, pitch=384, time=16),
    Message('pitchwheel', channel=13, pitch=384, time=0),
    Message('pitchwheel', channel=13, pitch=512, time=16),
    Message('pitchwheel', channel=13, pitch=512, time=0),
    Message('pitchwheel', channel=13, pitch=640, time=32),
    Message('pitchwheel', channel=13, pitch=640, time=0),
    Message('pitchwheel', channel=13, pitch=768, time=16),
    Message('pitchwheel', channel=13, pitch=768, time=0),
    Message('pitchwheel', channel=13, pitch=896, time=32),
    Message('pitchwheel', channel=13, pitch=896, time=0),
    Message('pitchwheel', channel=13, pitch=1024, time=16),
    Message('pitchwheel', channel=13, pitch=1024, time=0),
    Message('pitchwheel', channel=13, pitch=1152, time=16),
    Message('pitchwheel', channel=13, pitch=1152, time=0),
    Message('pitchwheel', channel=13, pitch=1280, time=32),
    Message('pitchwheel', channel=13, pitch=1280, time=0),
    Message('pitchwheel', channel=13, pitch=1408, time=16),
    Message('pitchwheel', channel=13, pitch=1408, time=0),
    Message('pitchwheel', channel=13, pitch=1280, time=256),
    Message('pitchwheel', channel=13, pitch=1280, time=0),
    Message('pitchwheel', channel=13, pitch=1152, time=16),
    Message('pitchwheel', channel=13, pitch=1152, time=0),
    Message('pitchwheel', channel=13, pitch=1024, time=32),
    Message('pitchwheel', channel=13, pitch=1024, time=0),
    Message('pitchwheel', channel=13, pitch=896, time=16),
    Message('pitchwheel', channel=13, pitch=896, time=0),
    Message('pitchwheel', channel=13, pitch=768, time=16),
    Message('pitchwheel', channel=13, pitch=768, time=0),
    Message('pitchwheel', channel=13, pitch=640, time=32),
    Message('pitchwheel', channel=13, pitch=640, time=0),
    Message('pitchwheel', channel=13, pitch=512, time=16),
    Message('pitchwheel', channel=13, pitch=512, time=0),
    Message('pitchwheel', channel=13, pitch=384, time=32),
    Message('pitchwheel', channel=13, pitch=384, time=0),
    Message('pitchwheel', channel=13, pitch=256, time=16),
    Message('pitchwheel', channel=13, pitch=256, time=0),
    Message('pitchwheel', channel=13, pitch=128, time=16),
    Message('pitchwheel', channel=13, pitch=128, time=0),
    Message('pitchwheel', channel=13, pitch=0, time=32),
    Message('pitchwheel', channel=13, pitch=0, time=0),
    Message('note_off', channel=13, note=74, velocity=80, time=240),
    Message('pitchwheel', channel=13, pitch=0, time=0),
    Message('note_off', channel=13, note=71, velocity=80, time=0),
    Message('pitchwheel', channel=13, pitch=0, time=0),
    Message('note_on', channel=12, note=74, velocity=95, time=0),
    Message('note_on', channel=12, note=71, velocity=95, time=0),
    Message('note_off', channel=12, note=74, velocity=80, time=1920),
    Message('note_off', channel=12, note=71, velocity=80, time=0),
    Message('note_on', channel=13, note=63, velocity=95, time=1920),
    Message('note_on', channel=13, note=60, velocity=95, time=0),
    Message('pitchwheel', channel=13, pitch=640, time=192),
    Message('pitchwheel', channel=13, pitch=640, time=0),
    Message('pitchwheel', channel=13, pitch=640, time=48),
    Message('pitchwheel', channel=13, pitch=640, time=0),
    Message('note_off', channel=13, note=63, velocity=80, time=240),
    Message('pitchwheel', channel=13, pitch=0, time=0),
    Message('note_off', channel=13, note=60, velocity=80, time=0),
    Message('pitchwheel', channel=13, pitch=0, time=0),
    Message('note_on', channel=12, note=64, velocity=86, time=0),
    Message('note_on', channel=12, note=61, velocity=86, time=0),
    Message('note_off', channel=12, note=64, velocity=80, time=240),
    Message('note_off', channel=12, note=61, velocity=80, time=0),
    Message('note_on', channel=12, note=64, velocity=95, time=0),
    Message('note_on', channel=12, note=61, velocity=95, time=0),
    Message('note_off', channel=12, note=64, velocity=80, time=240),
    Message('note_off', channel=12, note=61, velocity=80, time=0),
    Message('note_on', channel=13, note=63, velocity=95, time=0),
    Message('note_on', channel=13, note=60, velocity=95, time=0),
    Message('pitchwheel', channel=13, pitch=640, time=192),
    Message('pitchwheel', channel=13, pitch=640, time=0),
    Message('pitchwheel', channel=13, pitch=640, time=48),
    Message('pitchwheel', channel=13, pitch=640, time=0),
    Message('note_off', channel=13, note=63, velocity=80, time=240),
    Message('pitchwheel', channel=13, pitch=0, time=0),
    Message('note_off', channel=13, note=60, velocity=80, time=0),
    Message('pitchwheel', channel=13, pitch=0, time=0),
    Message('note_on', channel=12, note=64, velocity=86, time=0),
    Message('note_on', channel=12, note=61, velocity=86, time=0),
    Message('note_off', channel=12, note=64, velocity=80, time=240),
    Message('note_off', channel=12, note=61, velocity=80, time=0),
    Message('note_on', channel=12, note=64, velocity=95, time=0),
    Message('note_on', channel=12, note=61, velocity=95, time=0),
    Message('note_off', channel=12, note=64, velocity=80, time=240),
    Message('note_off', channel=12, note=61, velocity=80, time=0),
    Message('note_on', channel=13, note=63, velocity=95, time=0),
    Message('note_on', channel=13, note=60, velocity=95, time=0),
    Message('pitchwheel', channel=13, pitch=640, time=192),
    Message('pitchwheel', channel=13, pitch=640, time=0),
    Message('pitchwheel', channel=13, pitch=640, time=48),
    Message('pitchwheel', channel=13, pitch=640, time=0),
    Message('note_off', channel=13, note=63, velocity=80, time=240),
    Message('pitchwheel', channel=13, pitch=0, time=0),
    Message('note_off', channel=13, note=60, velocity=80, time=0),
    Message('pitchwheel', channel=13, pitch=0, time=0),
    Message('note_on', channel=12, note=64, velocity=86, time=0),
    Message('note_on', channel=12, note=61, velocity=86, time=0),
    Message('note_off', channel=12, note=64, velocity=80, time=240),
    Message('note_off', channel=12, note=61, velocity=80, time=0),
    Message('note_on', channel=12, note=64, velocity=95, time=0),
    Message('note_on', channel=12, note=61, velocity=95, time=0),
    Message('note_off', channel=12, note=64, velocity=80, time=240),
    Message('note_off', channel=12, note=61, velocity=80, time=0),
    Message('note_on', channel=13, note=63, velocity=95, time=0),
    Message('note_on', channel=13, note=60, velocity=95, time=0),
    Message('pitchwheel', channel=13, pitch=640, time=192),
    Message('pitchwheel', channel=13, pitch=640, time=0),
    Message('pitchwheel', channel=13, pitch=640, time=48),
    Message('pitchwheel', channel=13, pitch=640, time=0),
    Message('note_off', channel=13, note=63, velocity=80, time=240),
    Message('pitchwheel', channel=13, pitch=0, time=0),
    Message('note_off', channel=13, note=60, velocity=80, time=0),
    Message('pitchwheel', channel=13, pitch=0, time=0),
    Message('note_on', channel=12, note=64, velocity=86, time=0),
    Message('note_on', channel=12, note=61, velocity=86, time=0),
    Message('note_off', channel=12, note=64, velocity=80, time=480),
    Message('note_off', channel=12, note=61, velocity=80, time=0),
    Message('note_on', channel=13, note=83, velocity=95, time=2160),
    Message('pitchwheel', channel=13, pitch=0, time=0),
    Message('pitchwheel', channel=13, pitch=384, time=16),
    Message('pitchwheel', channel=13, pitch=768, time=16),
    Message('pitchwheel', channel=13, pitch=1152, time=16),
    Message('pitchwheel', channel=13, pitch=1408, time=16),
    Message('pitchwheel', channel=13, pitch=1152, time=64),
    Message('pitchwheel', channel=13, pitch=768, time=16),
    Message('pitchwheel', channel=13, pitch=512, time=16),
    Message('pitchwheel', channel=13, pitch=128, time=16),
    Message('pitchwheel', channel=13, pitch=0, time=16),
    Message('note_off', channel=13, note=83, velocity=80, time=48),
    Message('pitchwheel', channel=13, pitch=0, time=0),
    Message('note_on', channel=13, note=83, velocity=95, time=0),
    Message('pitchwheel', channel=13, pitch=0, time=0),
    Message('pitchwheel', channel=13, pitch=128, time=16),
    Message('pitchwheel', channel=13, pitch=384, time=16),
    Message('pitchwheel', channel=13, pitch=512, time=16),
    Message('pitchwheel', channel=13, pitch=768, time=16),
    Message('pitchwheel', channel=13, pitch=896, time=16),
    Message('pitchwheel', channel=13, pitch=1152, time=16),
    Message('pitchwheel', channel=13, pitch=1280, time=16),
    Message('pitchwheel', channel=13, pitch=1408, time=16),
    Message('pitchwheel', channel=13, pitch=1152, time=128),
    Message('pitchwheel', channel=13, pitch=1024, time=16),
    Message('pitchwheel', channel=13, pitch=768, time=16),
    Message('pitchwheel', channel=13, pitch=640, time=16),
    Message('pitchwheel', channel=13, pitch=512, time=16),
    Message('pitchwheel', channel=13, pitch=256, time=16),
    Message('pitchwheel', channel=13, pitch=128, time=16),
    Message('pitchwheel', channel=13, pitch=0, time=16),
    Message('note_off', channel=13, note=83, velocity=80, time=112),
    Message('pitchwheel', channel=13, pitch=0, time=0),
    Message('note_on', channel=12, note=81, velocity=95, time=0),
    Message('note_off', channel=12, note=81, velocity=80, time=240),
    Message('note_on', channel=12, note=76, velocity=95, time=0),
    Message('note_off', channel=12, note=76, velocity=80, time=720),
    Message('note_on', channel=13, note=74, velocity=95, time=2880),
    Message('pitchwheel', channel=13, pitch=0, time=0),
    Message('note_on', channel=13, note=71, velocity=95, time=0),
    Message('pitchwheel', channel=13, pitch=0, time=0),
    Message('pitchwheel', channel=13, pitch=128, time=16),
    Message('pitchwheel', channel=13, pitch=128, time=0),
    Message('pitchwheel', channel=13, pitch=256, time=32),
    Message('pitchwheel', channel=13, pitch=256, time=0),
    Message('pitchwheel', channel=13, pitch=384, time=16),
    Message('pitchwheel', channel=13, pitch=384, time=0),
    Message('pitchwheel', channel=13, pitch=512, time=16),
    Message('pitchwheel', channel=13, pitch=512, time=0),
    Message('pitchwheel', channel=13, pitch=640, time=32),
    Message('pitchwheel', channel=13, pitch=640, time=0),
    Message('pitchwheel', channel=13, pitch=768, time=16),
    Message('pitchwheel', channel=13, pitch=768, time=0),
    Message('pitchwheel', channel=13, pitch=896, time=32),
    Message('pitchwheel', channel=13, pitch=896, time=0),
    Message('pitchwheel', channel=13, pitch=1024, time=16),
    Message('pitchwheel', channel=13, pitch=1024, time=0),
    Message('pitchwheel', channel=13, pitch=1152, time=16),
    Message('pitchwheel', channel=13, pitch=1152, time=0),
    Message('pitchwheel', channel=13, pitch=1280, time=32),
    Message('pitchwheel', channel=13, pitch=1280, time=0),
    Message('pitchwheel', channel=13, pitch=1408, time=16),
    Message('pitchwheel', channel=13, pitch=1408, time=0),
    Message('pitchwheel', channel=13, pitch=1280, time=256),
    Message('pitchwheel', channel=13, pitch=1280, time=0),
    Message('pitchwheel', channel=13, pitch=1152, time=16),
    Message('pitchwheel', channel=13, pitch=1152, time=0),
    Message('pitchwheel', channel=13, pitch=1024, time=32),
    Message('pitchwheel', channel=13, pitch=1024, time=0),
    Message('pitchwheel', channel=13, pitch=896, time=16),
    Message('pitchwheel', channel=13, pitch=896, time=0),
    Message('pitchwheel', channel=13, pitch=768, time=16),
    Message('pitchwheel', channel=13, pitch=768, time=0),
    Message('pitchwheel', channel=13, pitch=640, time=32),
    Message('pitchwheel', channel=13, pitch=640, time=0),
    Message('pitchwheel', channel=13, pitch=512, time=16),
    Message('pitchwheel', channel=13, pitch=512, time=0),
    Message('pitchwheel', channel=13, pitch=384, time=32),
    Message('pitchwheel', channel=13, pitch=384, time=0),
    Message('pitchwheel', channel=13, pitch=256, time=16),
    Message('pitchwheel', channel=13, pitch=256, time=0),
    Message('pitchwheel', channel=13, pitch=128, time=16),
    Message('pitchwheel', channel=13, pitch=128, time=0),
    Message('pitchwheel', channel=13, pitch=0, time=32),
    Message('pitchwheel', channel=13, pitch=0, time=0),
    Message('note_off', channel=13, note=74, velocity=80, time=240),
    Message('pitchwheel', channel=13, pitch=0, time=0),
    Message('note_off', channel=13, note=71, velocity=80, time=0),
    Message('pitchwheel', channel=13, pitch=0, time=0),
    Message('control_change', channel=12, control=7, value=79, time=0),
    Message('control_change', channel=13, control=7, value=79, time=0),
    Message('note_on', channel=12, note=74, velocity=95, time=0),
    Message('note_on', channel=12, note=71, velocity=95, time=0),
    Message('control_change', channel=12, control=7, value=78, time=120),
    Message('control_change', channel=13, control=7, value=78, time=0),
    Message('control_change', channel=12, control=7, value=77, time=120),
    Message('control_change', channel=13, control=7, value=77, time=0),
    Message('control_change', channel=12, control=7, value=76, time=120),
    Message('control_change', channel=13, control=7, value=76, time=0),
    Message('control_change', channel=12, control=7, value=74, time=120),
    Message('control_change', channel=13, control=7, value=74, time=0),
    Message('control_change', channel=12, control=7, value=73, time=120),
    Message('control_change', channel=13, control=7, value=73, time=0),
    Message('control_change', channel=12, control=7, value=72, time=120),
    Message('control_change', channel=13, control=7, value=72, time=0),
    Message('control_change', channel=12, control=7, value=71, time=120),
    Message('control_change', channel=13, control=7, value=71, time=0),
    Message('control_change', channel=12, control=7, value=70, time=120),
    Message('control_change', channel=13, control=7, value=70, time=0),
    Message('control_change', channel=12, control=7, value=69, time=120),
    Message('control_change', channel=13, control=7, value=69, time=0),
    Message('control_change', channel=12, control=7, value=68, time=120),
    Message('control_change', channel=13, control=7, value=68, time=0),
    Message('control_change', channel=12, control=7, value=67, time=120),
    Message('control_change', channel=13, control=7, value=67, time=0),
    Message('control_change', channel=12, control=7, value=66, time=120),
    Message('control_change', channel=13, control=7, value=66, time=0),
    Message('control_change', channel=12, control=7, value=64, time=120),
    Message('control_change', channel=13, control=7, value=64, time=0),
    Message('control_change', channel=12, control=7, value=63, time=120),
    Message('control_change', channel=13, control=7, value=63, time=0),
    Message('control_change', channel=12, control=7, value=62, time=120),
    Message('control_change', channel=13, control=7, value=62, time=0),
    Message('control_change', channel=12, control=7, value=61, time=120),
    Message('control_change', channel=13, control=7, value=61, time=0),
    Message('note_off', channel=12, note=74, velocity=80, time=0),
    Message('note_off', channel=12, note=71, velocity=80, time=0),
    Message('control_change', channel=12, control=7, value=60, time=120),
    Message('control_change', channel=13, control=7, value=60, time=0),
    Message('control_change', channel=12, control=7, value=59, time=120),
    Message('control_change', channel=13, control=7, value=59, time=0),
    Message('control_change', channel=12, control=7, value=58, time=120),
    Message('control_change', channel=13, control=7, value=58, time=0),
    Message('control_change', channel=12, control=7, value=57, time=120),
    Message('control_change', channel=13, control=7, value=57, time=0),
    Message('control_change', channel=12, control=7, value=56, time=120),
    Message('control_change', channel=13, control=7, value=56, time=0),
    Message('control_change', channel=12, control=7, value=55, time=120),
    Message('control_change', channel=13, control=7, value=55, time=0),
    Message('control_change', channel=12, control=7, value=53, time=120),
    Message('control_change', channel=13, control=7, value=53, time=0),
    Message('control_change', channel=12, control=7, value=52, time=120),
    Message('control_change', channel=13, control=7, value=52, time=0),
    Message('control_change', channel=12, control=7, value=51, time=120),
    Message('control_change', channel=13, control=7, value=51, time=0),
    Message('control_change', channel=12, control=7, value=50, time=120),
    Message('control_change', channel=13, control=7, value=50, time=0),
    Message('control_change', channel=12, control=7, value=49, time=120),
    Message('control_change', channel=13, control=7, value=49, time=0),
    Message('control_change', channel=12, control=7, value=48, time=120),
    Message('control_change', channel=13, control=7, value=48, time=0),
    Message('control_change', channel=12, control=7, value=47, time=120),
    Message('control_change', channel=13, control=7, value=47, time=0),
    Message('control_change', channel=12, control=7, value=46, time=120),
    Message('control_change', channel=13, control=7, value=46, time=0),
    Message('control_change', channel=12, control=7, value=45, time=120),
    Message('control_change', channel=13, control=7, value=45, time=0),
    Message('control_change', channel=12, control=7, value=43, time=120),
    Message('control_change', channel=13, control=7, value=43, time=0),
    Message('note_on', channel=13, note=63, velocity=95, time=0),
    Message('note_on', channel=13, note=60, velocity=95, time=0),
    Message('control_change', channel=12, control=7, value=42, time=120),
    Message('control_change', channel=13, control=7, value=42, time=0),
    Message('pitchwheel', channel=13, pitch=640, time=72),
    Message('pitchwheel', channel=13, pitch=640, time=0),
    Message('control_change', channel=12, control=7, value=41, time=48),
    Message('control_change', channel=13, control=7, value=41, time=0),
    Message('note_off', channel=13, note=63, velocity=80, time=0),
    Message('pitchwheel', channel=13, pitch=0, time=0),
    Message('note_off', channel=13, note=60, velocity=80, time=0),
    Message('pitchwheel', channel=13, pitch=0, time=0),
    Message('note_on', channel=12, note=64, velocity=86, time=0),
    Message('note_on', channel=12, note=61, velocity=86, time=0),
    Message('control_change', channel=12, control=7, value=40, time=120),
    Message('control_change', channel=13, control=7, value=40, time=0),
    Message('control_change', channel=12, control=7, value=39, time=120),
    Message('control_change', channel=13, control=7, value=39, time=0),
    Message('note_off', channel=12, note=64, velocity=80, time=0),
    Message('note_off', channel=12, note=61, velocity=80, time=0),
    Message('note_on', channel=12, note=64, velocity=95, time=0),
    Message('note_on', channel=12, note=61, velocity=95, time=0),
    Message('control_change', channel=12, control=7, value=38, time=120),
    Message('control_change', channel=13, control=7, value=38, time=0),
    Message('control_change', channel=12, control=7, value=37, time=120),
    Message('control_change', channel=13, control=7, value=37, time=0),
    Message('note_off', channel=12, note=64, velocity=80, time=0),
    Message('note_off', channel=12, note=61, velocity=80, time=0),
    Message('note_on', channel=12, note=64, velocity=95, time=0),
    Message('note_on', channel=12, note=61, velocity=95, time=0),
    Message('control_change', channel=12, control=7, value=36, time=120),
    Message('control_change', channel=13, control=7, value=36, time=0),
    Message('control_change', channel=12, control=7, value=35, time=120),
    Message('control_change', channel=13, control=7, value=35, time=0),
    Message('note_off', channel=12, note=64, velocity=80, time=0),
    Message('note_off', channel=12, note=61, velocity=80, time=0),
    Message('note_on', channel=13, note=63, velocity=95, time=0),
    Message('note_on', channel=13, note=60, velocity=95, time=0),
    Message('control_change', channel=12, control=7, value=33, time=120),
    Message('control_change', channel=13, control=7, value=33, time=0),
    Message('pitchwheel', channel=13, pitch=640, time=72),
    Message('pitchwheel', channel=13, pitch=640, time=0),
    Message('control_change', channel=12, control=7, value=32, time=48),
    Message('control_change', channel=13, control=7, value=32, time=0),
    Message('note_off', channel=13, note=63, velocity=80, time=0),
    Message('pitchwheel', channel=13, pitch=0, time=0),
    Message('note_off', channel=13, note=60, velocity=80, time=0),
    Message('pitchwheel', channel=13, pitch=0, time=0),
    Message('note_on', channel=12, note=64, velocity=86, time=0),
    Message('note_on', channel=12, note=61, velocity=86, time=0),
    Message('control_change', channel=12, control=7, value=31, time=120),
    Message('control_change', channel=13, control=7, value=31, time=0),
    Message('control_change', channel=12, control=7, value=30, time=120),
    Message('control_change', channel=13, control=7, value=30, time=0),
    Message('note_off', channel=12, note=64, velocity=80, time=0),
    Message('note_off', channel=12, note=61, velocity=80, time=0),
    Message('note_on', channel=12, note=64, velocity=95, time=0),
    Message('note_on', channel=12, note=61, velocity=95, time=0),
    Message('control_change', channel=12, control=7, value=29, time=120),
    Message('control_change', channel=13, control=7, value=29, time=0),
    Message('control_change', channel=12, control=7, value=28, time=120),
    Message('control_change', channel=13, control=7, value=28, time=0),
    Message('note_off', channel=12, note=64, velocity=80, time=0),
    Message('note_off', channel=12, note=61, velocity=80, time=0),
    Message('note_on', channel=12, note=64, velocity=95, time=0),
    Message('note_on', channel=12, note=61, velocity=95, time=0),
    Message('control_change', channel=12, control=7, value=27, time=120),
    Message('control_change', channel=13, control=7, value=27, time=0),
    Message('control_change', channel=12, control=7, value=26, time=120),
    Message('control_change', channel=13, control=7, value=26, time=0),
    Message('note_off', channel=12, note=64, velocity=80, time=0),
    Message('note_off', channel=12, note=61, velocity=80, time=0),
    Message('note_on', channel=13, note=63, velocity=95, time=0),
    Message('note_on', channel=13, note=60, velocity=95, time=0),
    Message('control_change', channel=12, control=7, value=25, time=120),
    Message('control_change', channel=13, control=7, value=25, time=0),
    Message('pitchwheel', channel=13, pitch=640, time=72),
    Message('pitchwheel', channel=13, pitch=640, time=0),
    Message('control_change', channel=12, control=7, value=24, time=48),
    Message('control_change', channel=13, control=7, value=24, time=0),
    Message('note_off', channel=13, note=63, velocity=80, time=0),
    Message('pitchwheel', channel=13, pitch=0, time=0),
    Message('note_off', channel=13, note=60, velocity=80, time=0),
    Message('pitchwheel', channel=13, pitch=0, time=0),
    Message('note_on', channel=12, note=64, velocity=86, time=0),
    Message('note_on', channel=12, note=61, velocity=86, time=0),
    Message('control_change', channel=12, control=7, value=22, time=120),
    Message('control_change', channel=13, control=7, value=22, time=0),
    Message('control_change', channel=12, control=7, value=21, time=120),
    Message('control_change', channel=13, control=7, value=21, time=0),
    Message('note_off', channel=12, note=64, velocity=80, time=0),
    Message('note_off', channel=12, note=61, velocity=80, time=0),
    Message('note_on', channel=12, note=64, velocity=95, time=0),
    Message('note_on', channel=12, note=61, velocity=95, time=0),
    Message('control_change', channel=12, control=7, value=20, time=120),
    Message('control_change', channel=13, control=7, value=20, time=0),
    Message('control_change', channel=12, control=7, value=19, time=120),
    Message('control_change', channel=13, control=7, value=19, time=0),
    Message('note_off', channel=12, note=64, velocity=80, time=0),
    Message('note_off', channel=12, note=61, velocity=80, time=0),
    Message('note_on', channel=12, note=64, velocity=95, time=0),
    Message('note_on', channel=12, note=61, velocity=95, time=0),
    Message('control_change', channel=12, control=7, value=18, time=120),
    Message('control_change', channel=13, control=7, value=18, time=0),
    Message('control_change', channel=12, control=7, value=17, time=120),
    Message('control_change', channel=13, control=7, value=17, time=0),
    Message('note_off', channel=12, note=64, velocity=80, time=0),
    Message('note_off', channel=12, note=61, velocity=80, time=0),
    Message('note_on', channel=13, note=63, velocity=95, time=0),
    Message('note_on', channel=13, note=60, velocity=95, time=0),
    Message('control_change', channel=12, control=7, value=16, time=120),
    Message('control_change', channel=13, control=7, value=16, time=0),
    Message('pitchwheel', channel=13, pitch=640, time=72),
    Message('pitchwheel', channel=13, pitch=640, time=0),
    Message('control_change', channel=12, control=7, value=15, time=48),
    Message('control_change', channel=13, control=7, value=15, time=0),
    Message('note_off', channel=13, note=63, velocity=80, time=0),
    Message('pitchwheel', channel=13, pitch=0, time=0),
    Message('note_off', channel=13, note=60, velocity=80, time=0),
    Message('pitchwheel', channel=13, pitch=0, time=0),
    Message('note_on', channel=12, note=64, velocity=86, time=0),
    Message('note_on', channel=12, note=61, velocity=86, time=0),
    Message('control_change', channel=12, control=7, value=14, time=120),
    Message('control_change', channel=13, control=7, value=14, time=0),
    Message('control_change', channel=12, control=7, value=12, time=120),
    Message('control_change', channel=13, control=7, value=12, time=0),
    Message('note_off', channel=12, note=64, velocity=80, time=0),
    Message('note_off', channel=12, note=61, velocity=80, time=0),
    Message('note_on', channel=12, note=64, velocity=95, time=0),
    Message('note_on', channel=12, note=61, velocity=95, time=0),
    Message('control_change', channel=12, control=7, value=11, time=120),
    Message('control_change', channel=13, control=7, value=11, time=0),
    Message('control_change', channel=12, control=7, value=10, time=120),
    Message('control_change', channel=13, control=7, value=10, time=0),
    Message('control_change', channel=12, control=7, value=9, time=120),
    Message('control_change', channel=13, control=7, value=9, time=0),
    Message('control_change', channel=12, control=7, value=8, time=120),
    Message('control_change', channel=13, control=7, value=8, time=0),
    Message('note_off', channel=12, note=64, velocity=80, time=0),
    Message('note_off', channel=12, note=61, velocity=80, time=0),
    MetaMessage('end_of_track', time=0)]),
  MidiTrack([
    MetaMessage('track_name', name='Bass', time=0),
    Message('control_change', channel=14, control=100, value=0, time=0),
    Message('control_change', channel=14, control=101, value=0, time=0),
    Message('control_change', channel=14, control=6, value=12, time=0),
    Message('pitchwheel', channel=14, pitch=0, time=0),
    Message('control_change', channel=15, control=100, value=0, time=0),
    Message('control_change', channel=15, control=101, value=0, time=0),
    Message('control_change', channel=15, control=6, value=12, time=0),
    Message('pitchwheel', channel=15, pitch=0, time=0),
    Message('program_change', channel=14, program=33, time=0),
    Message('program_change', channel=15, program=33, time=0),
    Message('control_change', channel=14, control=7, value=112, time=0),
    Message('control_change', channel=15, control=7, value=112, time=0),
    Message('control_change', channel=14, control=10, value=64, time=0),
    Message('control_change', channel=15, control=10, value=64, time=0),
    Message('control_change', channel=14, control=93, value=0, time=0),
    Message('control_change', channel=15, control=93, value=0, time=0),
    Message('control_change', channel=14, control=91, value=0, time=0),
    Message('control_change', channel=15, control=91, value=0, time=0),
    Message('control_change', channel=14, control=92, value=0, time=0),
    Message('control_change', channel=15, control=92, value=0, time=0),
    Message('control_change', channel=14, control=95, value=0, time=0),
    Message('control_change', channel=15, control=95, value=0, time=0),
    Message('note_on', channel=14, note=40, velocity=95, time=38400),
    Message('note_off', channel=14, note=40, velocity=80, time=480),
    Message('note_on', channel=14, note=40, velocity=95, time=0),
    Message('note_off', channel=14, note=40, velocity=80, time=480),
    Message('note_on', channel=14, note=42, velocity=95, time=0),
    Message('note_off', channel=14, note=42, velocity=80, time=480),
    Message('note_on', channel=14, note=44, velocity=95, time=0),
    Message('note_off', channel=14, note=44, velocity=80, time=480),
    Message('note_on', channel=14, note=45, velocity=95, time=0),
    Message('note_off', channel=14, note=45, velocity=80, time=480),
    Message('note_on', channel=14, note=42, velocity=95, time=240),
    Message('note_off', channel=14, note=42, velocity=80, time=240),
    Message('note_on', channel=14, note=40, velocity=95, time=0),
    Message('note_off', channel=14, note=40, velocity=80, time=480),
    Message('note_on', channel=14, note=40, velocity=95, time=0),
    Message('note_off', channel=14, note=40, velocity=80, time=240),
    Message('note_on', channel=14, note=42, velocity=95, time=0),
    Message('note_off', channel=14, note=42, velocity=80, time=240),
    Message('note_on', channel=14, note=45, velocity=95, time=0),
    Message('note_off', channel=14, note=45, velocity=80, time=960),
    Message('note_on', channel=14, note=40, velocity=95, time=0),
    Message('note_off', channel=14, note=40, velocity=80, time=240),
    Message('note_on', channel=14, note=40, velocity=95, time=0),
    Message('note_off', channel=14, note=40, velocity=80, time=240),
    Message('note_on', channel=14, note=42, velocity=95, time=0),
    Message('note_off', channel=14, note=42, velocity=80, time=240),
    Message('note_on', channel=14, note=40, velocity=95, time=0),
    Message('note_off', channel=14, note=40, velocity=80, time=240),
    Message('note_on', channel=14, note=45, velocity=95, time=0),
    Message('note_off', channel=14, note=45, velocity=80, time=480),
    Message('note_on', channel=14, note=42, velocity=95, time=240),
    Message('note_off', channel=14, note=42, velocity=80, time=240),
    Message('note_on', channel=14, note=40, velocity=95, time=0),
    Message('note_off', channel=14, note=40, velocity=80, time=480),
    Message('note_on', channel=14, note=40, velocity=95, time=0),
    Message('note_off', channel=14, note=40, velocity=80, time=240),
    Message('note_on', channel=14, note=42, velocity=95, time=0),
    Message('note_off', channel=14, note=42, velocity=80, time=240),
    Message('note_on', channel=14, note=45, velocity=95, time=0),
    Message('note_off', channel=14, note=45, velocity=80, time=960),
    Message('note_on', channel=14, note=40, velocity=95, time=0),
    Message('note_off', channel=14, note=40, velocity=80, time=240),
    Message('note_on', channel=14, note=40, velocity=95, time=0),
    Message('note_off', channel=14, note=40, velocity=80, time=240),
    Message('note_on', channel=14, note=42, velocity=95, time=0),
    Message('note_off', channel=14, note=42, velocity=80, time=240),
    Message('note_on', channel=14, note=45, velocity=95, time=0),
    Message('note_off', channel=14, note=45, velocity=80, time=240),
    Message('note_on', channel=14, note=47, velocity=95, time=0),
    Message('note_off', channel=14, note=47, velocity=80, time=480),
    Message('note_on', channel=14, note=45, velocity=95, time=240),
    Message('note_off', channel=14, note=45, velocity=80, time=240),
    Message('note_on', channel=14, note=42, velocity=95, time=0),
    Message('note_off', channel=14, note=42, velocity=80, time=480),
    Message('note_on', channel=14, note=42, velocity=95, time=0),
    Message('note_off', channel=14, note=42, velocity=80, time=240),
    Message('note_on', channel=14, note=45, velocity=95, time=0),
    Message('note_off', channel=14, note=45, velocity=80, time=240),
    Message('note_on', channel=14, note=47, velocity=95, time=0),
    Message('note_off', channel=14, note=47, velocity=80, time=960),
    Message('note_on', channel=14, note=47, velocity=95, time=0),
    Message('note_off', channel=14, note=47, velocity=80, time=240),
    Message('note_on', channel=14, note=45, velocity=95, time=0),
    Message('note_off', channel=14, note=45, velocity=80, time=240),
    Message('note_on', channel=14, note=42, velocity=95, time=0),
    Message('note_off', channel=14, note=42, velocity=80, time=240),
    Message('note_on', channel=14, note=41, velocity=95, time=0),
    Message('note_off', channel=14, note=41, velocity=80, time=240),
    Message('note_on', channel=14, note=40, velocity=95, time=0),
    Message('note_off', channel=14, note=40, velocity=80, time=720),
    Message('note_on', channel=14, note=49, velocity=95, time=0),
    Message('note_off', channel=14, note=49, velocity=80, time=240),
    Message('note_on', channel=14, note=47, velocity=95, time=0),
    Message('note_off', channel=14, note=47, velocity=80, time=480),
    Message('note_on', channel=14, note=49, velocity=95, time=0),
    Message('note_off', channel=14, note=49, velocity=80, time=240),
    Message('note_on', channel=14, note=52, velocity=95, time=0),
    Message('note_off', channel=14, note=52, velocity=80, time=240),
    Message('note_on', channel=14, note=40, velocity=95, time=0),
    Message('note_off', channel=14, note=40, velocity=80, time=480),
    Message('note_on', channel=14, note=40, velocity=95, time=0),
    Message('note_off', channel=14, note=40, velocity=80, time=480),
    Message('note_on', channel=14, note=42, velocity=95, time=0),
    Message('note_off', channel=14, note=42, velocity=80, time=480),
    Message('note_on', channel=14, note=44, velocity=95, time=0),
    Message('note_off', channel=14, note=44, velocity=80, time=480),
    Message('note_on', channel=14, note=45, velocity=95, time=0),
    Message('note_off', channel=14, note=45, velocity=80, time=480),
    Message('note_on', channel=14, note=42, velocity=95, time=240),
    Message('note_off', channel=14, note=42, velocity=80, time=240),
    Message('note_on', channel=14, note=40, velocity=95, time=0),
    Message('note_off', channel=14, note=40, velocity=80, time=480),
    Message('note_on', channel=14, note=40, velocity=95, time=0),
    Message('note_off', channel=14, note=40, velocity=80, time=240),
    Message('note_on', channel=14, note=42, velocity=95, time=0),
    Message('note_off', channel=14, note=42, velocity=80, time=240),
    Message('note_on', channel=14, note=45, velocity=95, time=0),
    Message('note_off', channel=14, note=45, velocity=80, time=960),
    Message('note_on', channel=14, note=40, velocity=95, time=0),
    Message('note_off', channel=14, note=40, velocity=80, time=240),
    Message('note_on', channel=14, note=40, velocity=95, time=0),
    Message('note_off', channel=14, note=40, velocity=80, time=240),
    Message('note_on', channel=14, note=42, velocity=95, time=0),
    Message('note_off', channel=14, note=42, velocity=80, time=240),
    Message('note_on', channel=14, note=40, velocity=95, time=0),
    Message('note_off', channel=14, note=40, velocity=80, time=240),
    Message('note_on', channel=14, note=45, velocity=95, time=0),
    Message('note_off', channel=14, note=45, velocity=80, time=480),
    Message('note_on', channel=14, note=42, velocity=95, time=240),
    Message('note_off', channel=14, note=42, velocity=80, time=240),
    Message('note_on', channel=14, note=40, velocity=95, time=0),
    Message('note_off', channel=14, note=40, velocity=80, time=480),
    Message('note_on', channel=14, note=40, velocity=95, time=0),
    Message('note_off', channel=14, note=40, velocity=80, time=240),
    Message('note_on', channel=14, note=42, velocity=95, time=0),
    Message('note_off', channel=14, note=42, velocity=80, time=240),
    Message('note_on', channel=14, note=45, velocity=95, time=0),
    Message('note_off', channel=14, note=45, velocity=80, time=1920),
    Message('note_on', channel=14, note=47, velocity=95, time=0),
    Message('note_off', channel=14, note=47, velocity=80, time=960),
    Message('note_on', channel=14, note=47, velocity=95, time=0),
    Message('note_off', channel=14, note=47, velocity=80, time=240),
    Message('note_on', channel=14, note=47, velocity=95, time=0),
    Message('note_off', channel=14, note=47, velocity=80, time=240),
    Message('note_on', channel=14, note=42, velocity=95, time=0),
    Message('note_off', channel=14, note=42, velocity=80, time=240),
    Message('note_on', channel=14, note=41, velocity=95, time=0),
    Message('note_off', channel=14, note=41, velocity=80, time=240),
    Message('note_on', channel=14, note=40, velocity=95, time=0),
    Message('note_off', channel=14, note=40, velocity=80, time=960),
    Message('note_on', channel=14, note=40, velocity=95, time=0),
    Message('note_off', channel=14, note=40, velocity=80, time=240),
    Message('note_on', channel=14, note=40, velocity=95, time=0),
    Message('note_off', channel=14, note=40, velocity=80, time=240),
    Message('note_on', channel=14, note=42, velocity=95, time=0),
    Message('note_off', channel=14, note=42, velocity=80, time=240),
    Message('note_on', channel=14, note=40, velocity=95, time=0),
    Message('note_off', channel=14, note=40, velocity=80, time=240),
    Message('note_on', channel=14, note=45, velocity=95, time=0),
    Message('note_off', channel=14, note=45, velocity=80, time=480),
    Message('note_on', channel=14, note=42, velocity=95, time=240),
    Message('note_off', channel=14, note=42, velocity=80, time=240),
    Message('note_on', channel=14, note=40, velocity=95, time=0),
    Message('note_off', channel=14, note=40, velocity=80, time=480),
    Message('note_on', channel=14, note=40, velocity=95, time=0),
    Message('note_off', channel=14, note=40, velocity=80, time=240),
    Message('note_on', channel=14, note=42, velocity=95, time=0),
    Message('note_off', channel=14, note=42, velocity=80, time=240),
    Message('note_on', channel=14, note=45, velocity=95, time=0),
    Message('note_off', channel=14, note=45, velocity=80, time=480),
    Message('note_on', channel=14, note=40, velocity=95, time=0),
    Message('note_off', channel=14, note=40, velocity=80, time=480),
    Message('note_on', channel=14, note=42, velocity=95, time=0),
    Message('note_off', channel=14, note=42, velocity=80, time=480),
    Message('note_on', channel=14, note=44, velocity=95, time=0),
    Message('note_off', channel=14, note=44, velocity=80, time=480),
    Message('note_on', channel=14, note=45, velocity=95, time=0),
    Message('note_off', channel=14, note=45, velocity=80, time=480),
    Message('note_on', channel=14, note=42, velocity=95, time=240),
    Message('note_off', channel=14, note=42, velocity=80, time=240),
    Message('note_on', channel=14, note=40, velocity=95, time=0),
    Message('note_off', channel=14, note=40, velocity=80, time=480),
    Message('note_on', channel=14, note=40, velocity=95, time=0),
    Message('note_off', channel=14, note=40, velocity=80, time=240),
    Message('note_on', channel=14, note=42, velocity=95, time=0),
    Message('note_off', channel=14, note=42, velocity=80, time=240),
    Message('note_on', channel=14, note=45, velocity=95, time=0),
    Message('note_off', channel=14, note=45, velocity=80, time=960),
    Message('note_on', channel=14, note=40, velocity=95, time=0),
    Message('note_off', channel=14, note=40, velocity=80, time=240),
    Message('note_on', channel=14, note=40, velocity=95, time=0),
    Message('note_off', channel=14, note=40, velocity=80, time=240),
    Message('note_on', channel=14, note=42, velocity=95, time=0),
    Message('note_off', channel=14, note=42, velocity=80, time=240),
    Message('note_on', channel=14, note=40, velocity=95, time=0),
    Message('note_off', channel=14, note=40, velocity=80, time=240),
    Message('note_on', channel=14, note=45, velocity=95, time=0),
    Message('note_off', channel=14, note=45, velocity=80, time=480),
    Message('note_on', channel=14, note=42, velocity=95, time=240),
    Message('note_off', channel=14, note=42, velocity=80, time=240),
    Message('note_on', channel=14, note=40, velocity=95, time=0),
    Message('note_off', channel=14, note=40, velocity=80, time=480),
    Message('note_on', channel=14, note=40, velocity=95, time=0),
    Message('note_off', channel=14, note=40, velocity=80, time=240),
    Message('note_on', channel=14, note=42, velocity=95, time=0),
    Message('note_off', channel=14, note=42, velocity=80, time=240),
    Message('note_on', channel=14, note=45, velocity=95, time=0),
    Message('note_off', channel=14, note=45, velocity=80, time=960),
    Message('note_on', channel=14, note=40, velocity=95, time=0),
    Message('note_off', channel=14, note=40, velocity=80, time=240),
    Message('note_on', channel=14, note=40, velocity=95, time=0),
    Message('note_off', channel=14, note=40, velocity=80, time=240),
    Message('note_on', channel=14, note=42, velocity=95, time=0),
    Message('note_off', channel=14, note=42, velocity=80, time=240),
    Message('note_on', channel=14, note=45, velocity=95, time=0),
    Message('note_off', channel=14, note=45, velocity=80, time=240),
    Message('note_on', channel=14, note=47, velocity=95, time=0),
    Message('note_off', channel=14, note=47, velocity=80, time=960),
    Message('note_on', channel=14, note=47, velocity=95, time=0),
    Message('note_off', channel=14, note=47, velocity=80, time=240),
    Message('note_on', channel=14, note=47, velocity=95, time=0),
    Message('note_off', channel=14, note=47, velocity=80, time=240),
    Message('note_on', channel=14, note=42, velocity=95, time=0),
    Message('note_off', channel=14, note=42, velocity=80, time=240),
    Message('note_on', channel=14, note=41, velocity=95, time=0),
    Message('note_off', channel=14, note=41, velocity=80, time=240),
    Message('note_on', channel=14, note=40, velocity=95, time=0),
    Message('note_off', channel=14, note=40, velocity=80, time=960),
    Message('note_on', channel=14, note=40, velocity=95, time=0),
    Message('note_off', channel=14, note=40, velocity=80, time=240),
    Message('note_on', channel=14, note=40, velocity=95, time=0),
    Message('note_off', channel=14, note=40, velocity=80, time=240),
    Message('note_on', channel=14, note=42, velocity=95, time=0),
    Message('note_off', channel=14, note=42, velocity=80, time=240),
    Message('note_on', channel=14, note=40, velocity=95, time=0),
    Message('note_off', channel=14, note=40, velocity=80, time=240),
    Message('note_on', channel=14, note=45, velocity=95, time=0),
    Message('note_off', channel=14, note=45, velocity=80, time=480),
    Message('note_on', channel=14, note=42, velocity=95, time=240),
    Message('note_off', channel=14, note=42, velocity=80, time=240),
    Message('note_on', channel=14, note=40, velocity=95, time=0),
    Message('note_off', channel=14, note=40, velocity=80, time=480),
    Message('note_on', channel=14, note=40, velocity=95, time=0),
    Message('note_off', channel=14, note=40, velocity=80, time=240),
    Message('note_on', channel=14, note=42, velocity=95, time=0),
    Message('note_off', channel=14, note=42, velocity=80, time=240),
    Message('note_on', channel=14, note=45, velocity=95, time=0),
    Message('note_off', channel=14, note=45, velocity=80, time=1440),
    Message('note_on', channel=14, note=52, velocity=95, time=0),
    Message('note_off', channel=14, note=52, velocity=80, time=480),
    Message('note_on', channel=14, note=40, velocity=95, time=28800),
    Message('note_off', channel=14, note=40, velocity=80, time=480),
    Message('note_on', channel=14, note=40, velocity=95, time=0),
    Message('note_off', channel=14, note=40, velocity=80, time=480),
    Message('note_on', channel=14, note=42, velocity=95, time=0),
    Message('note_off', channel=14, note=42, velocity=80, time=480),
    Message('note_on', channel=14, note=44, velocity=95, time=0),
    Message('note_off', channel=14, note=44, velocity=80, time=480),
    Message('note_on', channel=14, note=45, velocity=95, time=0),
    Message('note_off', channel=14, note=45, velocity=80, time=480),
    Message('note_on', channel=14, note=42, velocity=95, time=240),
    Message('note_off', channel=14, note=42, velocity=80, time=240),
    Message('note_on', channel=14, note=40, velocity=95, time=0),
    Message('note_off', channel=14, note=40, velocity=80, time=480),
    Message('note_on', channel=14, note=40, velocity=95, time=0),
    Message('note_off', channel=14, note=40, velocity=80, time=240),
    Message('note_on', channel=14, note=42, velocity=95, time=0),
    Message('note_off', channel=14, note=42, velocity=80, time=240),
    Message('note_on', channel=14, note=45, velocity=95, time=0),
    Message('note_off', channel=14, note=45, velocity=80, time=960),
    Message('note_on', channel=14, note=40, velocity=95, time=0),
    Message('note_off', channel=14, note=40, velocity=80, time=240),
    Message('note_on', channel=14, note=40, velocity=95, time=0),
    Message('note_off', channel=14, note=40, velocity=80, time=240),
    Message('note_on', channel=14, note=42, velocity=95, time=0),
    Message('note_off', channel=14, note=42, velocity=80, time=240),
    Message('note_on', channel=14, note=40, velocity=95, time=0),
    Message('note_off', channel=14, note=40, velocity=80, time=240),
    Message('note_on', channel=14, note=45, velocity=95, time=0),
    Message('note_off', channel=14, note=45, velocity=80, time=480),
    Message('note_on', channel=14, note=42, velocity=95, time=240),
    Message('note_off', channel=14, note=42, velocity=80, time=240),
    Message('note_on', channel=14, note=40, velocity=95, time=0),
    Message('note_off', channel=14, note=40, velocity=80, time=480),
    Message('note_on', channel=14, note=40, velocity=95, time=0),
    Message('note_off', channel=14, note=40, velocity=80, time=240),
    Message('note_on', channel=14, note=42, velocity=95, time=0),
    Message('note_off', channel=14, note=42, velocity=80, time=240),
    Message('note_on', channel=14, note=45, velocity=95, time=0),
    Message('note_off', channel=14, note=45, velocity=80, time=960),
    Message('note_on', channel=14, note=40, velocity=95, time=0),
    Message('note_off', channel=14, note=40, velocity=80, time=240),
    Message('note_on', channel=14, note=40, velocity=95, time=0),
    Message('note_off', channel=14, note=40, velocity=80, time=240),
    Message('note_on', channel=14, note=42, velocity=95, time=0),
    Message('note_off', channel=14, note=42, velocity=80, time=240),
    Message('note_on', channel=14, note=45, velocity=95, time=0),
    Message('note_off', channel=14, note=45, velocity=80, time=240),
    Message('note_on', channel=14, note=47, velocity=95, time=0),
    Message('note_off', channel=14, note=47, velocity=80, time=480),
    Message('note_on', channel=14, note=45, velocity=95, time=240),
    Message('note_off', channel=14, note=45, velocity=80, time=240),
    Message('note_on', channel=14, note=42, velocity=95, time=0),
    Message('note_off', channel=14, note=42, velocity=80, time=480),
    Message('note_on', channel=14, note=42, velocity=95, time=0),
    Message('note_off', channel=14, note=42, velocity=80, time=240),
    Message('note_on', channel=14, note=45, velocity=95, time=0),
    Message('note_off', channel=14, note=45, velocity=80, time=240),
    Message('note_on', channel=14, note=47, velocity=95, time=0),
    Message('note_off', channel=14, note=47, velocity=80, time=960),
    Message('note_on', channel=14, note=47, velocity=95, time=0),
    Message('note_off', channel=14, note=47, velocity=80, time=240),
    Message('note_on', channel=14, note=45, velocity=95, time=0),
    Message('note_off', channel=14, note=45, velocity=80, time=240),
    Message('note_on', channel=14, note=42, velocity=95, time=0),
    Message('note_off', channel=14, note=42, velocity=80, time=240),
    Message('note_on', channel=14, note=41, velocity=95, time=0),
    Message('note_off', channel=14, note=41, velocity=80, time=240),
    Message('note_on', channel=14, note=40, velocity=95, time=0),
    Message('note_off', channel=14, note=40, velocity=80, time=720),
    Message('note_on', channel=14, note=49, velocity=95, time=0),
    Message('note_off', channel=14, note=49, velocity=80, time=240),
    Message('note_on', channel=14, note=47, velocity=95, time=0),
    Message('note_off', channel=14, note=47, velocity=80, time=480),
    Message('note_on', channel=14, note=49, velocity=95, time=0),
    Message('note_off', channel=14, note=49, velocity=80, time=240),
    Message('note_on', channel=14, note=52, velocity=95, time=0),
    Message('note_off', channel=14, note=52, velocity=80, time=240),
    Message('note_on', channel=14, note=40, velocity=95, time=0),
    Message('note_off', channel=14, note=40, velocity=80, time=480),
    Message('note_on', channel=14, note=40, velocity=95, time=0),
    Message('note_off', channel=14, note=40, velocity=80, time=480),
    Message('note_on', channel=14, note=42, velocity=95, time=0),
    Message('note_off', channel=14, note=42, velocity=80, time=480),
    Message('note_on', channel=14, note=44, velocity=95, time=0),
    Message('note_off', channel=14, note=44, velocity=80, time=480),
    Message('note_on', channel=14, note=45, velocity=95, time=0),
    Message('note_off', channel=14, note=45, velocity=80, time=480),
    Message('note_on', channel=14, note=42, velocity=95, time=240),
    Message('note_off', channel=14, note=42, velocity=80, time=240),
    Message('note_on', channel=14, note=40, velocity=95, time=0),
    Message('note_off', channel=14, note=40, velocity=80, time=480),
    Message('note_on', channel=14, note=40, velocity=95, time=0),
    Message('note_off', channel=14, note=40, velocity=80, time=240),
    Message('note_on', channel=14, note=42, velocity=95, time=0),
    Message('note_off', channel=14, note=42, velocity=80, time=240),
    Message('note_on', channel=14, note=45, velocity=95, time=0),
    Message('note_off', channel=14, note=45, velocity=80, time=960),
    Message('note_on', channel=14, note=40, velocity=95, time=0),
    Message('note_off', channel=14, note=40, velocity=80, time=240),
    Message('note_on', channel=14, note=40, velocity=95, time=0),
    Message('note_off', channel=14, note=40, velocity=80, time=240),
    Message('note_on', channel=14, note=42, velocity=95, time=0),
    Message('note_off', channel=14, note=42, velocity=80, time=240),
    Message('note_on', channel=14, note=40, velocity=95, time=0),
    Message('note_off', channel=14, note=40, velocity=80, time=240),
    Message('note_on', channel=14, note=45, velocity=95, time=0),
    Message('note_off', channel=14, note=45, velocity=80, time=480),
    Message('note_on', channel=14, note=42, velocity=95, time=240),
    Message('note_off', channel=14, note=42, velocity=80, time=240),
    Message('note_on', channel=14, note=40, velocity=95, time=0),
    Message('note_off', channel=14, note=40, velocity=80, time=480),
    Message('note_on', channel=14, note=40, velocity=95, time=0),
    Message('note_off', channel=14, note=40, velocity=80, time=240),
    Message('note_on', channel=14, note=42, velocity=95, time=0),
    Message('note_off', channel=14, note=42, velocity=80, time=240),
    Message('note_on', channel=14, note=45, velocity=95, time=0),
    Message('note_off', channel=14, note=45, velocity=80, time=1920),
    Message('note_on', channel=14, note=47, velocity=95, time=0),
    Message('note_off', channel=14, note=47, velocity=80, time=960),
    Message('note_on', channel=14, note=47, velocity=95, time=0),
    Message('note_off', channel=14, note=47, velocity=80, time=240),
    Message('note_on', channel=14, note=47, velocity=95, time=0),
    Message('note_off', channel=14, note=47, velocity=80, time=240),
    Message('note_on', channel=14, note=42, velocity=95, time=0),
    Message('note_off', channel=14, note=42, velocity=80, time=240),
    Message('note_on', channel=14, note=41, velocity=95, time=0),
    Message('note_off', channel=14, note=41, velocity=80, time=240),
    Message('note_on', channel=14, note=40, velocity=95, time=0),
    Message('note_off', channel=14, note=40, velocity=80, time=960),
    Message('note_on', channel=14, note=40, velocity=95, time=0),
    Message('note_off', channel=14, note=40, velocity=80, time=240),
    Message('note_on', channel=14, note=40, velocity=95, time=0),
    Message('note_off', channel=14, note=40, velocity=80, time=240),
    Message('note_on', channel=14, note=42, velocity=95, time=0),
    Message('note_off', channel=14, note=42, velocity=80, time=240),
    Message('note_on', channel=14, note=40, velocity=95, time=0),
    Message('note_off', channel=14, note=40, velocity=80, time=240),
    Message('note_on', channel=14, note=45, velocity=95, time=0),
    Message('note_off', channel=14, note=45, velocity=80, time=480),
    Message('note_on', channel=14, note=42, velocity=95, time=240),
    Message('note_off', channel=14, note=42, velocity=80, time=240),
    Message('note_on', channel=14, note=40, velocity=95, time=0),
    Message('note_off', channel=14, note=40, velocity=80, time=480),
    Message('note_on', channel=14, note=40, velocity=95, time=0),
    Message('note_off', channel=14, note=40, velocity=80, time=240),
    Message('note_on', channel=14, note=42, velocity=95, time=0),
    Message('note_off', channel=14, note=42, velocity=80, time=240),
    Message('note_on', channel=14, note=45, velocity=95, time=0),
    Message('note_off', channel=14, note=45, velocity=80, time=480),
    Message('note_on', channel=14, note=40, velocity=95, time=0),
    Message('note_off', channel=14, note=40, velocity=80, time=480),
    Message('note_on', channel=14, note=42, velocity=95, time=0),
    Message('note_off', channel=14, note=42, velocity=80, time=480),
    Message('note_on', channel=14, note=44, velocity=95, time=0),
    Message('note_off', channel=14, note=44, velocity=80, time=480),
    Message('note_on', channel=14, note=45, velocity=95, time=0),
    Message('note_off', channel=14, note=45, velocity=80, time=480),
    Message('note_on', channel=14, note=42, velocity=95, time=240),
    Message('note_off', channel=14, note=42, velocity=80, time=240),
    Message('note_on', channel=14, note=40, velocity=95, time=0),
    Message('note_off', channel=14, note=40, velocity=80, time=480),
    Message('note_on', channel=14, note=40, velocity=95, time=0),
    Message('note_off', channel=14, note=40, velocity=80, time=240),
    Message('note_on', channel=14, note=42, velocity=95, time=0),
    Message('note_off', channel=14, note=42, velocity=80, time=240),
    Message('note_on', channel=14, note=45, velocity=95, time=0),
    Message('note_off', channel=14, note=45, velocity=80, time=960),
    Message('note_on', channel=14, note=40, velocity=95, time=0),
    Message('note_off', channel=14, note=40, velocity=80, time=240),
    Message('note_on', channel=14, note=40, velocity=95, time=0),
    Message('note_off', channel=14, note=40, velocity=80, time=240),
    Message('note_on', channel=14, note=42, velocity=95, time=0),
    Message('note_off', channel=14, note=42, velocity=80, time=240),
    Message('note_on', channel=14, note=40, velocity=95, time=0),
    Message('note_off', channel=14, note=40, velocity=80, time=240),
    Message('note_on', channel=14, note=45, velocity=95, time=0),
    Message('note_off', channel=14, note=45, velocity=80, time=480),
    Message('note_on', channel=14, note=42, velocity=95, time=240),
    Message('note_off', channel=14, note=42, velocity=80, time=240),
    Message('note_on', channel=14, note=40, velocity=95, time=0),
    Message('note_off', channel=14, note=40, velocity=80, time=480),
    Message('note_on', channel=14, note=40, velocity=95, time=0),
    Message('note_off', channel=14, note=40, velocity=80, time=240),
    Message('note_on', channel=14, note=42, velocity=95, time=0),
    Message('note_off', channel=14, note=42, velocity=80, time=240),
    Message('note_on', channel=14, note=45, velocity=95, time=0),
    Message('note_off', channel=14, note=45, velocity=80, time=960),
    Message('note_on', channel=14, note=40, velocity=95, time=0),
    Message('note_off', channel=14, note=40, velocity=80, time=240),
    Message('note_on', channel=14, note=40, velocity=95, time=0),
    Message('note_off', channel=14, note=40, velocity=80, time=240),
    Message('note_on', channel=14, note=42, velocity=95, time=0),
    Message('note_off', channel=14, note=42, velocity=80, time=240),
    Message('note_on', channel=14, note=45, velocity=95, time=0),
    Message('note_off', channel=14, note=45, velocity=80, time=240),
    Message('note_on', channel=14, note=47, velocity=95, time=0),
    Message('note_off', channel=14, note=47, velocity=80, time=480),
    Message('note_on', channel=14, note=45, velocity=95, time=240),
    Message('note_off', channel=14, note=45, velocity=80, time=240),
    Message('note_on', channel=14, note=42, velocity=95, time=0),
    Message('note_off', channel=14, note=42, velocity=80, time=480),
    Message('note_on', channel=14, note=42, velocity=95, time=0),
    Message('note_off', channel=14, note=42, velocity=80, time=240),
    Message('note_on', channel=14, note=45, velocity=95, time=0),
    Message('note_off', channel=14, note=45, velocity=80, time=240),
    Message('note_on', channel=14, note=47, velocity=95, time=0),
    Message('note_off', channel=14, note=47, velocity=80, time=960),
    Message('note_on', channel=14, note=47, velocity=95, time=0),
    Message('note_off', channel=14, note=47, velocity=80, time=240),
    Message('note_on', channel=14, note=45, velocity=95, time=0),
    Message('note_off', channel=14, note=45, velocity=80, time=240),
    Message('note_on', channel=14, note=42, velocity=95, time=0),
    Message('note_off', channel=14, note=42, velocity=80, time=240),
    Message('note_on', channel=14, note=41, velocity=95, time=0),
    Message('note_off', channel=14, note=41, velocity=80, time=240),
    Message('note_on', channel=14, note=40, velocity=95, time=0),
    Message('note_off', channel=14, note=40, velocity=80, time=720),
    Message('note_on', channel=14, note=49, velocity=95, time=0),
    Message('note_off', channel=14, note=49, velocity=80, time=240),
    Message('note_on', channel=14, note=47, velocity=95, time=0),
    Message('note_off', channel=14, note=47, velocity=80, time=480),
    Message('note_on', channel=14, note=49, velocity=95, time=0),
    Message('note_off', channel=14, note=49, velocity=80, time=240),
    Message('note_on', channel=14, note=52, velocity=95, time=0),
    Message('note_off', channel=14, note=52, velocity=80, time=240),
    Message('note_on', channel=14, note=40, velocity=95, time=0),
    Message('note_off', channel=14, note=40, velocity=80, time=480),
    Message('note_on', channel=14, note=40, velocity=95, time=0),
    Message('note_off', channel=14, note=40, velocity=80, time=480),
    Message('note_on', channel=14, note=42, velocity=95, time=0),
    Message('note_off', channel=14, note=42, velocity=80, time=480),
    Message('note_on', channel=14, note=44, velocity=95, time=0),
    Message('note_off', channel=14, note=44, velocity=80, time=480),
    Message('note_on', channel=14, note=45, velocity=95, time=0),
    Message('note_off', channel=14, note=45, velocity=80, time=480),
    Message('note_on', channel=14, note=42, velocity=95, time=240),
    Message('note_off', channel=14, note=42, velocity=80, time=240),
    Message('note_on', channel=14, note=40, velocity=95, time=0),
    Message('note_off', channel=14, note=40, velocity=80, time=480),
    Message('note_on', channel=14, note=40, velocity=95, time=0),
    Message('note_off', channel=14, note=40, velocity=80, time=240),
    Message('note_on', channel=14, note=42, velocity=95, time=0),
    Message('note_off', channel=14, note=42, velocity=80, time=240),
    Message('note_on', channel=14, note=45, velocity=95, time=0),
    Message('note_off', channel=14, note=45, velocity=80, time=960),
    Message('note_on', channel=14, note=40, velocity=95, time=0),
    Message('note_off', channel=14, note=40, velocity=80, time=240),
    Message('note_on', channel=14, note=40, velocity=95, time=0),
    Message('note_off', channel=14, note=40, velocity=80, time=240),
    Message('note_on', channel=14, note=42, velocity=95, time=0),
    Message('note_off', channel=14, note=42, velocity=80, time=240),
    Message('note_on', channel=14, note=40, velocity=95, time=0),
    Message('note_off', channel=14, note=40, velocity=80, time=240),
    Message('note_on', channel=14, note=45, velocity=95, time=0),
    Message('note_off', channel=14, note=45, velocity=80, time=480),
    Message('note_on', channel=14, note=42, velocity=95, time=240),
    Message('note_off', channel=14, note=42, velocity=80, time=240),
    Message('note_on', channel=14, note=40, velocity=95, time=0),
    Message('note_off', channel=14, note=40, velocity=80, time=480),
    Message('note_on', channel=14, note=40, velocity=95, time=0),
    Message('note_off', channel=14, note=40, velocity=80, time=240),
    Message('note_on', channel=14, note=42, velocity=95, time=0),
    Message('note_off', channel=14, note=42, velocity=80, time=240),
    Message('note_on', channel=14, note=45, velocity=95, time=0),
    Message('note_off', channel=14, note=45, velocity=80, time=1920),
    Message('note_on', channel=14, note=47, velocity=95, time=0),
    Message('note_off', channel=14, note=47, velocity=80, time=960),
    Message('note_on', channel=14, note=47, velocity=95, time=0),
    Message('note_off', channel=14, note=47, velocity=80, time=240),
    Message('note_on', channel=14, note=47, velocity=95, time=0),
    Message('note_off', channel=14, note=47, velocity=80, time=240),
    Message('note_on', channel=14, note=42, velocity=95, time=0),
    Message('note_off', channel=14, note=42, velocity=80, time=240),
    Message('note_on', channel=14, note=41, velocity=95, time=0),
    Message('note_off', channel=14, note=41, velocity=80, time=240),
    Message('note_on', channel=14, note=40, velocity=95, time=0),
    Message('note_off', channel=14, note=40, velocity=80, time=960),
    Message('note_on', channel=14, note=40, velocity=95, time=0),
    Message('note_off', channel=14, note=40, velocity=80, time=240),
    Message('note_on', channel=14, note=40, velocity=95, time=0),
    Message('note_off', channel=14, note=40, velocity=80, time=240),
    Message('note_on', channel=14, note=42, velocity=95, time=0),
    Message('note_off', channel=14, note=42, velocity=80, time=240),
    Message('note_on', channel=14, note=40, velocity=95, time=0),
    Message('note_off', channel=14, note=40, velocity=80, time=240),
    Message('note_on', channel=14, note=45, velocity=95, time=0),
    Message('note_off', channel=14, note=45, velocity=80, time=480),
    Message('note_on', channel=14, note=42, velocity=95, time=240),
    Message('note_off', channel=14, note=42, velocity=80, time=240),
    Message('note_on', channel=14, note=40, velocity=95, time=0),
    Message('note_off', channel=14, note=40, velocity=80, time=480),
    Message('note_on', channel=14, note=40, velocity=95, time=0),
    Message('note_off', channel=14, note=40, velocity=80, time=240),
    Message('note_on', channel=14, note=42, velocity=95, time=0),
    Message('note_off', channel=14, note=42, velocity=80, time=240),
    Message('note_on', channel=14, note=45, velocity=95, time=0),
    Message('note_off', channel=14, note=45, velocity=80, time=480),
    Message('note_on', channel=14, note=42, velocity=95, time=240),
    Message('note_off', channel=14, note=42, velocity=80, time=240),
    Message('note_on', channel=14, note=40, velocity=95, time=0),
    Message('note_off', channel=14, note=40, velocity=80, time=480),
    Message('note_on', channel=14, note=40, velocity=95, time=0),
    Message('note_off', channel=14, note=40, velocity=80, time=240),
    Message('note_on', channel=14, note=42, velocity=95, time=0),
    Message('note_off', channel=14, note=42, velocity=80, time=240),
    Message('note_on', channel=14, note=45, velocity=95, time=0),
    Message('note_off', channel=14, note=45, velocity=80, time=480),
    Message('note_on', channel=14, note=42, velocity=95, time=240),
    Message('note_off', channel=14, note=42, velocity=80, time=240),
    Message('note_on', channel=14, note=40, velocity=95, time=0),
    Message('note_off', channel=14, note=40, velocity=80, time=480),
    Message('note_on', channel=14, note=40, velocity=95, time=0),
    Message('note_off', channel=14, note=40, velocity=80, time=240),
    Message('note_on', channel=14, note=42, velocity=95, time=0),
    Message('note_off', channel=14, note=42, velocity=80, time=240),
    Message('note_on', channel=14, note=45, velocity=95, time=0),
    Message('note_off', channel=14, note=45, velocity=80, time=960),
    Message('note_on', channel=14, note=40, velocity=95, time=0),
    Message('note_off', channel=14, note=40, velocity=80, time=240),
    Message('note_on', channel=14, note=40, velocity=95, time=0),
    Message('note_off', channel=14, note=40, velocity=80, time=240),
    Message('note_on', channel=14, note=42, velocity=95, time=0),
    Message('note_off', channel=14, note=42, velocity=80, time=240),
    Message('note_on', channel=14, note=40, velocity=95, time=0),
    Message('note_off', channel=14, note=40, velocity=80, time=240),
    Message('note_on', channel=14, note=45, velocity=95, time=0),
    Message('note_off', channel=14, note=45, velocity=80, time=480),
    Message('note_on', channel=14, note=42, velocity=95, time=240),
    Message('note_off', channel=14, note=42, velocity=80, time=240),
    Message('note_on', channel=14, note=40, velocity=95, time=0),
    Message('note_off', channel=14, note=40, velocity=80, time=480),
    Message('note_on', channel=14, note=40, velocity=95, time=0),
    Message('note_off', channel=14, note=40, velocity=80, time=240),
    Message('note_on', channel=14, note=42, velocity=95, time=0),
    Message('note_off', channel=14, note=42, velocity=80, time=240),
    Message('note_on', channel=14, note=45, velocity=95, time=0),
    Message('note_off', channel=14, note=45, velocity=80, time=960),
    Message('note_on', channel=14, note=40, velocity=95, time=0),
    Message('note_off', channel=14, note=40, velocity=80, time=240),
    Message('note_on', channel=14, note=40, velocity=95, time=0),
    Message('note_off', channel=14, note=40, velocity=80, time=240),
    Message('note_on', channel=14, note=42, velocity=95, time=0),
    Message('note_off', channel=14, note=42, velocity=80, time=240),
    Message('note_on', channel=14, note=45, velocity=95, time=0),
    Message('note_off', channel=14, note=45, velocity=80, time=240),
    Message('note_on', channel=14, note=47, velocity=95, time=0),
    Message('note_off', channel=14, note=47, velocity=80, time=480),
    Message('note_on', channel=14, note=45, velocity=95, time=240),
    Message('note_off', channel=14, note=45, velocity=80, time=240),
    Message('note_on', channel=14, note=42, velocity=95, time=0),
    Message('note_off', channel=14, note=42, velocity=80, time=480),
    Message('note_on', channel=14, note=42, velocity=95, time=0),
    Message('note_off', channel=14, note=42, velocity=80, time=240),
    Message('note_on', channel=14, note=45, velocity=95, time=0),
    Message('note_off', channel=14, note=45, velocity=80, time=240),
    Message('note_on', channel=14, note=47, velocity=95, time=0),
    Message('note_off', channel=14, note=47, velocity=80, time=960),
    Message('note_on', channel=14, note=47, velocity=95, time=0),
    Message('note_off', channel=14, note=47, velocity=80, time=240),
    Message('note_on', channel=14, note=45, velocity=95, time=0),
    Message('note_off', channel=14, note=45, velocity=80, time=240),
    Message('note_on', channel=14, note=42, velocity=95, time=0),
    Message('note_off', channel=14, note=42, velocity=80, time=240),
    Message('note_on', channel=14, note=41, velocity=95, time=0),
    Message('note_off', channel=14, note=41, velocity=80, time=240),
    Message('note_on', channel=14, note=40, velocity=95, time=0),
    Message('note_off', channel=14, note=40, velocity=80, time=480),
    Message('note_on', channel=14, note=49, velocity=95, time=240),
    Message('note_off', channel=14, note=49, velocity=80, time=240),
    Message('note_on', channel=14, note=47, velocity=95, time=0),
    Message('note_off', channel=14, note=47, velocity=80, time=480),
    Message('note_on', channel=14, note=49, velocity=95, time=0),
    Message('note_off', channel=14, note=49, velocity=80, time=240),
    Message('note_on', channel=14, note=52, velocity=95, time=0),
    Message('note_off', channel=14, note=52, velocity=80, time=240),
    Message('note_on', channel=14, note=40, velocity=95, time=0),
    Message('note_off', channel=14, note=40, velocity=80, time=480),
    Message('note_on', channel=14, note=40, velocity=95, time=0),
    Message('note_off', channel=14, note=40, velocity=80, time=480),
    Message('note_on', channel=14, note=42, velocity=95, time=0),
    Message('note_off', channel=14, note=42, velocity=80, time=480),
    Message('note_on', channel=14, note=44, velocity=95, time=0),
    Message('note_off', channel=14, note=44, velocity=80, time=480),
    Message('note_on', channel=14, note=45, velocity=95, time=0),
    Message('note_off', channel=14, note=45, velocity=80, time=480),
    Message('note_on', channel=14, note=42, velocity=95, time=240),
    Message('note_off', channel=14, note=42, velocity=80, time=240),
    Message('note_on', channel=14, note=40, velocity=95, time=0),
    Message('note_off', channel=14, note=40, velocity=80, time=480),
    Message('note_on', channel=14, note=40, velocity=95, time=0),
    Message('note_off', channel=14, note=40, velocity=80, time=240),
    Message('note_on', channel=14, note=42, velocity=95, time=0),
    Message('note_off', channel=14, note=42, velocity=80, time=240),
    Message('note_on', channel=14, note=45, velocity=95, time=0),
    Message('note_off', channel=14, note=45, velocity=80, time=960),
    Message('note_on', channel=14, note=40, velocity=95, time=0),
    Message('note_off', channel=14, note=40, velocity=80, time=240),
    Message('note_on', channel=14, note=40, velocity=95, time=0),
    Message('note_off', channel=14, note=40, velocity=80, time=240),
    Message('note_on', channel=14, note=42, velocity=95, time=0),
    Message('note_off', channel=14, note=42, velocity=80, time=240),
    Message('note_on', channel=14, note=40, velocity=95, time=0),
    Message('note_off', channel=14, note=40, velocity=80, time=240),
    Message('note_on', channel=14, note=45, velocity=95, time=0),
    Message('note_off', channel=14, note=45, velocity=80, time=480),
    Message('note_on', channel=14, note=42, velocity=95, time=240),
    Message('note_off', channel=14, note=42, velocity=80, time=240),
    Message('note_on', channel=14, note=40, velocity=95, time=0),
    Message('note_off', channel=14, note=40, velocity=80, time=480),
    Message('note_on', channel=14, note=40, velocity=95, time=0),
    Message('note_off', channel=14, note=40, velocity=80, time=240),
    Message('note_on', channel=14, note=42, velocity=95, time=0),
    Message('note_off', channel=14, note=42, velocity=80, time=240),
    Message('note_on', channel=14, note=45, velocity=95, time=0),
    Message('note_off', channel=14, note=45, velocity=80, time=1920),
    Message('note_on', channel=14, note=47, velocity=95, time=0),
    Message('note_off', channel=14, note=47, velocity=80, time=960),
    Message('note_on', channel=14, note=47, velocity=95, time=0),
    Message('note_off', channel=14, note=47, velocity=80, time=240),
    Message('note_on', channel=14, note=47, velocity=95, time=0),
    Message('note_off', channel=14, note=47, velocity=80, time=240),
    Message('note_on', channel=14, note=42, velocity=95, time=0),
    Message('note_off', channel=14, note=42, velocity=80, time=240),
    Message('note_on', channel=14, note=41, velocity=95, time=0),
    Message('note_off', channel=14, note=41, velocity=80, time=240),
    Message('note_on', channel=14, note=40, velocity=95, time=0),
    Message('note_off', channel=14, note=40, velocity=80, time=960),
    Message('note_on', channel=14, note=40, velocity=95, time=0),
    Message('note_off', channel=14, note=40, velocity=80, time=240),
    Message('note_on', channel=14, note=40, velocity=95, time=0),
    Message('note_off', channel=14, note=40, velocity=80, time=240),
    Message('note_on', channel=14, note=42, velocity=95, time=0),
    Message('note_off', channel=14, note=42, velocity=80, time=240),
    Message('note_on', channel=14, note=40, velocity=95, time=0),
    Message('note_off', channel=14, note=40, velocity=80, time=240),
    Message('note_on', channel=14, note=45, velocity=95, time=0),
    Message('note_off', channel=14, note=45, velocity=80, time=480),
    Message('note_on', channel=14, note=42, velocity=95, time=240),
    Message('note_off', channel=14, note=42, velocity=80, time=240),
    Message('note_on', channel=14, note=40, velocity=95, time=0),
    Message('note_off', channel=14, note=40, velocity=80, time=480),
    Message('note_on', channel=14, note=40, velocity=95, time=0),
    Message('note_off', channel=14, note=40, velocity=80, time=240),
    Message('note_on', channel=14, note=42, velocity=95, time=0),
    Message('note_off', channel=14, note=42, velocity=80, time=240),
    Message('note_on', channel=14, note=45, velocity=95, time=0),
    Message('note_off', channel=14, note=45, velocity=80, time=480),
    Message('note_on', channel=14, note=42, velocity=95, time=240),
    Message('note_off', channel=14, note=42, velocity=80, time=240),
    Message('note_on', channel=14, note=40, velocity=95, time=0),
    Message('note_off', channel=14, note=40, velocity=80, time=480),
    Message('note_on', channel=14, note=40, velocity=95, time=0),
    Message('note_off', channel=14, note=40, velocity=80, time=240),
    Message('note_on', channel=14, note=42, velocity=95, time=0),
    Message('note_off', channel=14, note=42, velocity=80, time=240),
    Message('note_on', channel=14, note=45, velocity=95, time=0),
    Message('note_off', channel=14, note=45, velocity=80, time=480),
    Message('note_on', channel=14, note=42, velocity=95, time=240),
    Message('note_off', channel=14, note=42, velocity=80, time=240),
    Message('note_on', channel=14, note=40, velocity=95, time=0),
    Message('note_off', channel=14, note=40, velocity=80, time=480),
    Message('note_on', channel=14, note=40, velocity=95, time=0),
    Message('note_off', channel=14, note=40, velocity=80, time=240),
    Message('note_on', channel=14, note=42, velocity=95, time=0),
    Message('note_off', channel=14, note=42, velocity=80, time=240),
    Message('note_on', channel=14, note=45, velocity=95, time=0),
    Message('note_off', channel=14, note=45, velocity=80, time=960),
    Message('note_on', channel=14, note=40, velocity=95, time=0),
    Message('note_off', channel=14, note=40, velocity=80, time=240),
    Message('note_on', channel=14, note=40, velocity=95, time=0),
    Message('note_off', channel=14, note=40, velocity=80, time=240),
    Message('note_on', channel=14, note=42, velocity=95, time=0),
    Message('note_off', channel=14, note=42, velocity=80, time=240),
    Message('note_on', channel=14, note=40, velocity=95, time=0),
    Message('note_off', channel=14, note=40, velocity=80, time=240),
    Message('note_on', channel=14, note=45, velocity=95, time=0),
    Message('note_off', channel=14, note=45, velocity=80, time=480),
    Message('note_on', channel=14, note=42, velocity=95, time=240),
    Message('note_off', channel=14, note=42, velocity=80, time=240),
    Message('note_on', channel=14, note=40, velocity=95, time=0),
    Message('note_off', channel=14, note=40, velocity=80, time=480),
    Message('note_on', channel=14, note=40, velocity=95, time=0),
    Message('note_off', channel=14, note=40, velocity=80, time=240),
    Message('note_on', channel=14, note=42, velocity=95, time=0),
    Message('note_off', channel=14, note=42, velocity=80, time=240),
    Message('note_on', channel=14, note=45, velocity=95, time=0),
    Message('note_off', channel=14, note=45, velocity=80, time=1920),
    Message('control_change', channel=14, control=7, value=110, time=0),
    Message('control_change', channel=15, control=7, value=110, time=0),
    Message('note_on', channel=14, note=47, velocity=95, time=0),
    Message('control_change', channel=14, control=7, value=109, time=120),
    Message('control_change', channel=15, control=7, value=109, time=0),
    Message('control_change', channel=14, control=7, value=107, time=120),
    Message('control_change', channel=15, control=7, value=107, time=0),
    Message('control_change', channel=14, control=7, value=106, time=120),
    Message('control_change', channel=15, control=7, value=106, time=0),
    Message('control_change', channel=14, control=7, value=104, time=120),
    Message('control_change', channel=15, control=7, value=104, time=0),
    Message('control_change', channel=14, control=7, value=102, time=120),
    Message('control_change', channel=15, control=7, value=102, time=0),
    Message('control_change', channel=14, control=7, value=101, time=120),
    Message('control_change', channel=15, control=7, value=101, time=0),
    Message('control_change', channel=14, control=7, value=99, time=120),
    Message('control_change', channel=15, control=7, value=99, time=0),
    Message('control_change', channel=14, control=7, value=98, time=120),
    Message('control_change', channel=15, control=7, value=98, time=0),
    Message('note_off', channel=14, note=47, velocity=80, time=0),
    Message('note_on', channel=14, note=47, velocity=95, time=0),
    Message('control_change', channel=14, control=7, value=96, time=120),
    Message('control_change', channel=15, control=7, value=96, time=0),
    Message('control_change', channel=14, control=7, value=94, time=120),
    Message('control_change', channel=15, control=7, value=94, time=0),
    Message('note_off', channel=14, note=47, velocity=80, time=0),
    Message('note_on', channel=14, note=47, velocity=95, time=0),
    Message('control_change', channel=14, control=7, value=93, time=120),
    Message('control_change', channel=15, control=7, value=93, time=0),
    Message('control_change', channel=14, control=7, value=91, time=120),
    Message('control_change', channel=15, control=7, value=91, time=0),
    Message('note_off', channel=14, note=47, velocity=80, time=0),
    Message('note_on', channel=14, note=42, velocity=95, time=0),
    Message('control_change', channel=14, control=7, value=90, time=120),
    Message('control_change', channel=15, control=7, value=90, time=0),
    Message('control_change', channel=14, control=7, value=88, time=120),
    Message('control_change', channel=15, control=7, value=88, time=0),
    Message('note_off', channel=14, note=42, velocity=80, time=0),
    Message('note_on', channel=14, note=41, velocity=95, time=0),
    Message('control_change', channel=14, control=7, value=86, time=120),
    Message('control_change', channel=15, control=7, value=86, time=0),
    Message('control_change', channel=14, control=7, value=85, time=120),
    Message('control_change', channel=15, control=7, value=85, time=0),
    Message('note_off', channel=14, note=41, velocity=80, time=0),
    Message('note_on', channel=14, note=40, velocity=95, time=0),
    Message('control_change', channel=14, control=7, value=83, time=120),
    Message('control_change', channel=15, control=7, value=83, time=0),
    Message('control_change', channel=14, control=7, value=82, time=120),
    Message('control_change', channel=15, control=7, value=82, time=0),
    Message('control_change', channel=14, control=7, value=80, time=120),
    Message('control_change', channel=15, control=7, value=80, time=0),
    Message('control_change', channel=14, control=7, value=78, time=120),
    Message('control_change', channel=15, control=7, value=78, time=0),
    Message('control_change', channel=14, control=7, value=77, time=120),
    Message('control_change', channel=15, control=7, value=77, time=0),
    Message('control_change', channel=14, control=7, value=75, time=120),
    Message('control_change', channel=15, control=7, value=75, time=0),
    Message('control_change', channel=14, control=7, value=74, time=120),
    Message('control_change', channel=15, control=7, value=74, time=0),
    Message('control_change', channel=14, control=7, value=72, time=120),
    Message('control_change', channel=15, control=7, value=72, time=0),
    Message('note_off', channel=14, note=40, velocity=80, time=0),
    Message('note_on', channel=14, note=40, velocity=95, time=0),
    Message('control_change', channel=14, control=7, value=70, time=120),
    Message('control_change', channel=15, control=7, value=70, time=0),
    Message('control_change', channel=14, control=7, value=69, time=120),
    Message('control_change', channel=15, control=7, value=69, time=0),
    Message('note_off', channel=14, note=40, velocity=80, time=0),
    Message('note_on', channel=14, note=40, velocity=95, time=0),
    Message('control_change', channel=14, control=7, value=67, time=120),
    Message('control_change', channel=15, control=7, value=67, time=0),
    Message('control_change', channel=14, control=7, value=66, time=120),
    Message('control_change', channel=15, control=7, value=66, time=0),
    Message('note_off', channel=14, note=40, velocity=80, time=0),
    Message('note_on', channel=14, note=42, velocity=95, time=0),
    Message('control_change', channel=14, control=7, value=64, time=120),
    Message('control_change', channel=15, control=7, value=64, time=0),
    Message('control_change', channel=14, control=7, value=62, time=120),
    Message('control_change', channel=15, control=7, value=62, time=0),
    Message('note_off', channel=14, note=42, velocity=80, time=0),
    Message('note_on', channel=14, note=40, velocity=95, time=0),
    Message('control_change', channel=14, control=7, value=61, time=120),
    Message('control_change', channel=15, control=7, value=61, time=0),
    Message('control_change', channel=14, control=7, value=59, time=120),
    Message('control_change', channel=15, control=7, value=59, time=0),
    Message('note_off', channel=14, note=40, velocity=80, time=0),
    Message('note_on', channel=14, note=45, velocity=95, time=0),
    Message('control_change', channel=14, control=7, value=58, time=120),
    Message('control_change', channel=15, control=7, value=58, time=0),
    Message('control_change', channel=14, control=7, value=56, time=120),
    Message('control_change', channel=15, control=7, value=56, time=0),
    Message('control_change', channel=14, control=7, value=54, time=120),
    Message('control_change', channel=15, control=7, value=54, time=0),
    Message('control_change', channel=14, control=7, value=53, time=120),
    Message('control_change', channel=15, control=7, value=53, time=0),
    Message('note_off', channel=14, note=45, velocity=80, time=0),
    Message('control_change', channel=14, control=7, value=51, time=120),
    Message('control_change', channel=15, control=7, value=51, time=0),
    Message('control_change', channel=14, control=7, value=50, time=120),
    Message('control_change', channel=15, control=7, value=50, time=0),
    Message('note_on', channel=14, note=42, velocity=95, time=0),
    Message('control_change', channel=14, control=7, value=48, time=120),
    Message('control_change', channel=15, control=7, value=48, time=0),
    Message('control_change', channel=14, control=7, value=46, time=120),
    Message('control_change', channel=15, control=7, value=46, time=0),
    Message('note_off', channel=14, note=42, velocity=80, time=0),
    Message('note_on', channel=14, note=40, velocity=95, time=0),
    Message('control_change', channel=14, control=7, value=45, time=120),
    Message('control_change', channel=15, control=7, value=45, time=0),
    Message('control_change', channel=14, control=7, value=43, time=120),
    Message('control_change', channel=15, control=7, value=43, time=0),
    Message('control_change', channel=14, control=7, value=42, time=120),
    Message('control_change', channel=15, control=7, value=42, time=0),
    Message('control_change', channel=14, control=7, value=40, time=120),
    Message('control_change', channel=15, control=7, value=40, time=0),
    Message('note_off', channel=14, note=40, velocity=80, time=0),
    Message('note_on', channel=14, note=40, velocity=95, time=0),
    Message('control_change', channel=14, control=7, value=38, time=120),
    Message('control_change', channel=15, control=7, value=38, time=0),
    Message('control_change', channel=14, control=7, value=37, time=120),
    Message('control_change', channel=15, control=7, value=37, time=0),
    Message('note_off', channel=14, note=40, velocity=80, time=0),
    Message('note_on', channel=14, note=42, velocity=95, time=0),
    Message('control_change', channel=14, control=7, value=35, time=120),
    Message('control_change', channel=15, control=7, value=35, time=0),
    Message('control_change', channel=14, control=7, value=34, time=120),
    Message('control_change', channel=15, control=7, value=34, time=0),
    Message('note_off', channel=14, note=42, velocity=80, time=0),
    Message('note_on', channel=14, note=45, velocity=95, time=0),
    Message('control_change', channel=14, control=7, value=32, time=120),
    Message('control_change', channel=15, control=7, value=32, time=0),
    Message('control_change', channel=14, control=7, value=30, time=120),
    Message('control_change', channel=15, control=7, value=30, time=0),
    Message('control_change', channel=14, control=7, value=29, time=120),
    Message('control_change', channel=15, control=7, value=29, time=0),
    Message('control_change', channel=14, control=7, value=27, time=120),
    Message('control_change', channel=15, control=7, value=27, time=0),
    Message('note_off', channel=14, note=45, velocity=80, time=0),
    Message('control_change', channel=14, control=7, value=26, time=120),
    Message('control_change', channel=15, control=7, value=26, time=0),
    Message('control_change', channel=14, control=7, value=24, time=120),
    Message('control_change', channel=15, control=7, value=24, time=0),
    Message('note_on', channel=14, note=42, velocity=95, time=0),
    Message('control_change', channel=14, control=7, value=22, time=120),
    Message('control_change', channel=15, control=7, value=22, time=0),
    Message('control_change', channel=14, control=7, value=21, time=120),
    Message('control_change', channel=15, control=7, value=21, time=0),
    Message('note_off', channel=14, note=42, velocity=80, time=0),
    Message('note_on', channel=14, note=40, velocity=95, time=0),
    Message('control_change', channel=14, control=7, value=19, time=120),
    Message('control_change', channel=15, control=7, value=19, time=0),
    Message('control_change', channel=14, control=7, value=18, time=120),
    Message('control_change', channel=15, control=7, value=18, time=0),
    Message('control_change', channel=14, control=7, value=16, time=120),
    Message('control_change', channel=15, control=7, value=16, time=0),
    Message('control_change', channel=14, control=7, value=14, time=120),
    Message('control_change', channel=15, control=7, value=14, time=0),
    Message('note_off', channel=14, note=40, velocity=80, time=0),
    Message('note_on', channel=14, note=40, velocity=95, time=0),
    Message('control_change', channel=14, control=7, value=13, time=120),
    Message('control_change', channel=15, control=7, value=13, time=0),
    Message('control_change', channel=14, control=7, value=11, time=120),
    Message('control_change', channel=15, control=7, value=11, time=0),
    Message('note_off', channel=14, note=40, velocity=80, time=0),
    Message('note_on', channel=14, note=42, velocity=95, time=0),
    Message('control_change', channel=14, control=7, value=10, time=120),
    Message('control_change', channel=15, control=7, value=10, time=0),
    Message('control_change', channel=14, control=7, value=8, time=120),
    Message('control_change', channel=15, control=7, value=8, time=0),
    Message('note_off', channel=14, note=42, velocity=80, time=0),
    MetaMessage('end_of_track', time=0)]),
  MidiTrack([
    MetaMessage('track_name', name='Percussion', time=0),
    Message('control_change', channel=9, control=100, value=0, time=0),
    Message('control_change', channel=9, control=101, value=0, time=0),
    Message('control_change', channel=9, control=6, value=12, time=0),
    Message('pitchwheel', channel=9, pitch=0, time=0),
    Message('program_change', channel=9, program=0, time=0),
    Message('control_change', channel=9, control=7, value=104, time=0),
    Message('control_change', channel=9, control=10, value=64, time=0),
    Message('control_change', channel=9, control=93, value=0, time=0),
    Message('control_change', channel=9, control=91, value=0, time=0),
    Message('control_change', channel=9, control=92, value=0, time=0),
    Message('control_change', channel=9, control=95, value=0, time=0),
    Message('note_on', channel=9, note=44, velocity=95, time=2400),
    Message('note_off', channel=9, note=44, velocity=80, time=480),
    Message('note_on', channel=9, note=44, velocity=95, time=480),
    Message('note_off', channel=9, note=44, velocity=80, time=480),
    Message('note_on', channel=9, note=44, velocity=95, time=480),
    Message('note_off', channel=9, note=44, velocity=80, time=480),
    Message('note_on', channel=9, note=44, velocity=95, time=480),
    Message('note_off', channel=9, note=44, velocity=80, time=480),
    Message('note_on', channel=9, note=44, velocity=95, time=480),
    Message('note_off', channel=9, note=44, velocity=80, time=480),
    Message('note_on', channel=9, note=44, velocity=95, time=480),
    Message('note_off', channel=9, note=44, velocity=80, time=480),
    Message('note_on', channel=9, note=44, velocity=95, time=480),
    Message('note_off', channel=9, note=44, velocity=80, time=480),
    Message('note_on', channel=9, note=44, velocity=95, time=480),
    Message('note_off', channel=9, note=44, velocity=80, time=480),
    Message('note_on', channel=9, note=44, velocity=95, time=480),
    Message('note_off', channel=9, note=44, velocity=80, time=480),
    Message('note_on', channel=9, note=44, velocity=95, time=480),
    Message('note_off', channel=9, note=44, velocity=80, time=480),
    Message('note_on', channel=9, note=44, velocity=95, time=480),
    Message('note_off', channel=9, note=44, velocity=80, time=480),
    Message('note_on', channel=9, note=44, velocity=95, time=480),
    Message('note_off', channel=9, note=44, velocity=80, time=480),
    Message('note_on', channel=9, note=44, velocity=95, time=480),
    Message('note_off', channel=9, note=44, velocity=80, time=480),
    Message('note_on', channel=9, note=44, velocity=95, time=480),
    Message('note_off', channel=9, note=44, velocity=80, time=480),
    Message('note_on', channel=9, note=44, velocity=95, time=480),
    Message('note_off', channel=9, note=44, velocity=80, time=480),
    Message('note_on', channel=9, note=44, velocity=95, time=480),
    Message('note_off', channel=9, note=44, velocity=80, time=480),
    Message('note_on', channel=9, note=44, velocity=95, time=480),
    Message('note_off', channel=9, note=44, velocity=80, time=480),
    Message('note_on', channel=9, note=44, velocity=95, time=480),
    Message('note_off', channel=9, note=44, velocity=80, time=480),
    Message('note_on', channel=9, note=44, velocity=95, time=480),
    Message('note_off', channel=9, note=44, velocity=80, time=480),
    Message('note_on', channel=9, note=44, velocity=95, time=480),
    Message('note_off', channel=9, note=44, velocity=80, time=480),
    Message('note_on', channel=9, note=44, velocity=95, time=480),
    Message('note_off', channel=9, note=44, velocity=80, time=480),
    Message('note_on', channel=9, note=44, velocity=95, time=480),
    Message('note_off', channel=9, note=44, velocity=80, time=480),
    Message('note_on', channel=9, note=44, velocity=95, time=480),
    Message('note_off', channel=9, note=44, velocity=80, time=480),
    Message('note_on', channel=9, note=44, velocity=95, time=480),
    Message('note_off', channel=9, note=44, velocity=80, time=480),
    Message('note_on', channel=9, note=35, velocity=95, time=0),
    Message('note_off', channel=9, note=35, velocity=80, time=480),
    Message('note_on', channel=9, note=44, velocity=95, time=0),
    Message('note_off', channel=9, note=44, velocity=80, time=480),
    Message('note_on', channel=9, note=35, velocity=95, time=0),
    Message('note_off', channel=9, note=35, velocity=80, time=480),
    Message('note_on', channel=9, note=44, velocity=95, time=0),
    Message('note_off', channel=9, note=44, velocity=80, time=480),
    Message('note_on', channel=9, note=35, velocity=95, time=0),
    Message('note_off', channel=9, note=35, velocity=80, time=480),
    Message('note_on', channel=9, note=44, velocity=95, time=0),
    Message('note_off', channel=9, note=44, velocity=80, time=480),
    Message('note_on', channel=9, note=35, velocity=95, time=0),
    Message('note_off', channel=9, note=35, velocity=80, time=480),
    Message('note_on', channel=9, note=44, velocity=95, time=0),
    Message('note_off', channel=9, note=44, velocity=80, time=480),
    Message('note_on', channel=9, note=35, velocity=95, time=0),
    Message('note_off', channel=9, note=35, velocity=80, time=480),
    Message('note_on', channel=9, note=44, velocity=95, time=0),
    Message('note_off', channel=9, note=44, velocity=80, time=480),
    Message('note_on', channel=9, note=35, velocity=95, time=0),
    Message('note_off', channel=9, note=35, velocity=80, time=480),
    Message('note_on', channel=9, note=44, velocity=95, time=0),
    Message('note_off', channel=9, note=44, velocity=80, time=480),
    Message('note_on', channel=9, note=35, velocity=95, time=0),
    Message('note_off', channel=9, note=35, velocity=80, time=480),
    Message('note_on', channel=9, note=44, velocity=95, time=0),
    Message('note_off', channel=9, note=44, velocity=80, time=480),
    Message('note_on', channel=9, note=35, velocity=95, time=0),
    Message('note_off', channel=9, note=35, velocity=80, time=480),
    Message('note_on', channel=9, note=44, velocity=95, time=0),
    Message('note_off', channel=9, note=44, velocity=80, time=480),
    Message('note_on', channel=9, note=35, velocity=95, time=0),
    Message('note_off', channel=9, note=35, velocity=80, time=480),
    Message('note_on', channel=9, note=44, velocity=95, time=0),
    Message('note_off', channel=9, note=44, velocity=80, time=480),
    Message('note_on', channel=9, note=35, velocity=95, time=0),
    Message('note_off', channel=9, note=35, velocity=80, time=480),
    Message('note_on', channel=9, note=44, velocity=95, time=0),
    Message('note_off', channel=9, note=44, velocity=80, time=480),
    Message('note_on', channel=9, note=35, velocity=95, time=0),
    Message('note_off', channel=9, note=35, velocity=80, time=480),
    Message('note_on', channel=9, note=44, velocity=95, time=0),
    Message('note_off', channel=9, note=44, velocity=80, time=480),
    Message('note_on', channel=9, note=35, velocity=95, time=0),
    Message('note_off', channel=9, note=35, velocity=80, time=480),
    Message('note_on', channel=9, note=44, velocity=95, time=0),
    Message('note_off', channel=9, note=44, velocity=80, time=480),
    Message('note_on', channel=9, note=35, velocity=95, time=0),
    Message('note_off', channel=9, note=35, velocity=80, time=480),
    Message('note_on', channel=9, note=44, velocity=95, time=0),
    Message('note_off', channel=9, note=44, velocity=80, time=480),
    Message('note_on', channel=9, note=35, velocity=95, time=0),
    Message('note_off', channel=9, note=35, velocity=80, time=480),
    Message('note_on', channel=9, note=44, velocity=95, time=0),
    Message('note_off', channel=9, note=44, velocity=80, time=480),
    Message('note_on', channel=9, note=35, velocity=95, time=0),
    Message('note_off', channel=9, note=35, velocity=80, time=480),
    Message('note_on', channel=9, note=38, velocity=95, time=0),
    Message('note_off', channel=9, note=38, velocity=80, time=480),
    Message('note_on', channel=9, note=38, velocity=95, time=0),
    Message('note_off', channel=9, note=38, velocity=80, time=480),
    Message('note_on', channel=9, note=38, velocity=95, time=0),
    Message('note_off', channel=9, note=38, velocity=80, time=120),
    Message('note_on', channel=9, note=38, velocity=95, time=0),
    Message('note_off', channel=9, note=38, velocity=80, time=120),
    Message('note_on', channel=9, note=38, velocity=95, time=0),
    Message('note_off', channel=9, note=38, velocity=80, time=120),
    Message('note_on', channel=9, note=38, velocity=95, time=0),
    Message('note_off', channel=9, note=38, velocity=80, time=120),
    Message('note_on', channel=9, note=44, velocity=95, time=0),
    Message('note_on', channel=9, note=35, velocity=95, time=0),
    Message('note_off', channel=9, note=44, velocity=80, time=240),
    Message('note_off', channel=9, note=35, velocity=80, time=0),
    Message('note_on', channel=9, note=44, velocity=95, time=0),
    Message('note_off', channel=9, note=44, velocity=80, time=240),
    Message('note_on', channel=9, note=44, velocity=95, time=0),
    Message('note_on', channel=9, note=38, velocity=95, time=0),
    Message('note_off', channel=9, note=44, velocity=80, time=240),
    Message('note_off', channel=9, note=38, velocity=80, time=0),
    Message('note_on', channel=9, note=44, velocity=95, time=0),
    Message('note_off', channel=9, note=44, velocity=80, time=240),
    Message('note_on', channel=9, note=44, velocity=95, time=0),
    Message('note_on', channel=9, note=35, velocity=95, time=0),
    Message('note_off', channel=9, note=44, velocity=80, time=240),
    Message('note_off', channel=9, note=35, velocity=80, time=0),
    Message('note_on', channel=9, note=44, velocity=95, time=0),
    Message('note_on', channel=9, note=35, velocity=95, time=0),
    Message('note_off', channel=9, note=44, velocity=80, time=240),
    Message('note_off', channel=9, note=35, velocity=80, time=0),
    Message('note_on', channel=9, note=44, velocity=95, time=0),
    Message('note_on', channel=9, note=38, velocity=95, time=0),
    Message('note_off', channel=9, note=44, velocity=80, time=240),
    Message('note_off', channel=9, note=38, velocity=80, time=0),
    Message('note_on', channel=9, note=44, velocity=95, time=0),
    Message('note_off', channel=9, note=44, velocity=80, time=240),
    Message('note_on', channel=9, note=44, velocity=95, time=0),
    Message('note_on', channel=9, note=35, velocity=95, time=0),
    Message('note_off', channel=9, note=44, velocity=80, time=240),
    Message('note_off', channel=9, note=35, velocity=80, time=0),
    Message('note_on', channel=9, note=44, velocity=95, time=0),
    Message('note_off', channel=9, note=44, velocity=80, time=240),
    Message('note_on', channel=9, note=44, velocity=95, time=0),
    Message('note_on', channel=9, note=38, velocity=95, time=0),
    Message('note_off', channel=9, note=44, velocity=80, time=240),
    Message('note_off', channel=9, note=38, velocity=80, time=0),
    Message('note_on', channel=9, note=44, velocity=95, time=0),
    Message('note_off', channel=9, note=44, velocity=80, time=240),
    Message('note_on', channel=9, note=44, velocity=95, time=0),
    Message('note_on', channel=9, note=35, velocity=95, time=0),
    Message('note_off', channel=9, note=44, velocity=80, time=240),
    Message('note_off', channel=9, note=35, velocity=80, time=0),
    Message('note_on', channel=9, note=44, velocity=95, time=0),
    Message('note_on', channel=9, note=35, velocity=95, time=0),
    Message('note_off', channel=9, note=44, velocity=80, time=240),
    Message('note_off', channel=9, note=35, velocity=80, time=0),
    Message('note_on', channel=9, note=44, velocity=95, time=0),
    Message('note_on', channel=9, note=38, velocity=95, time=0),
    Message('note_off', channel=9, note=44, velocity=80, time=240),
    Message('note_off', channel=9, note=38, velocity=80, time=0),
    Message('note_on', channel=9, note=44, velocity=95, time=0),
    Message('note_off', channel=9, note=44, velocity=80, time=240),
    Message('note_on', channel=9, note=44, velocity=95, time=0),
    Message('note_on', channel=9, note=35, velocity=95, time=0),
    Message('note_off', channel=9, note=44, velocity=80, time=240),
    Message('note_off', channel=9, note=35, velocity=80, time=0),
    Message('note_on', channel=9, note=44, velocity=95, time=0),
    Message('note_off', channel=9, note=44, velocity=80, time=240),
    Message('note_on', channel=9, note=44, velocity=95, time=0),
    Message('note_on', channel=9, note=38, velocity=95, time=0),
    Message('note_off', channel=9, note=44, velocity=80, time=240),
    Message('note_off', channel=9, note=38, velocity=80, time=0),
    Message('note_on', channel=9, note=44, velocity=95, time=0),
    Message('note_off', channel=9, note=44, velocity=80, time=240),
    Message('note_on', channel=9, note=44, velocity=95, time=0),
    Message('note_on', channel=9, note=35, velocity=95, time=0),
    Message('note_off', channel=9, note=44, velocity=80, time=240),
    Message('note_off', channel=9, note=35, velocity=80, time=0),
    Message('note_on', channel=9, note=44, velocity=95, time=0),
    Message('note_on', channel=9, note=35, velocity=95, time=0),
    Message('note_off', channel=9, note=44, velocity=80, time=240),
    Message('note_off', channel=9, note=35, velocity=80, time=0),
    Message('note_on', channel=9, note=44, velocity=95, time=0),
    Message('note_on', channel=9, note=38, velocity=95, time=0),
    Message('note_off', channel=9, note=44, velocity=80, time=240),
    Message('note_off', channel=9, note=38, velocity=80, time=0),
    Message('note_on', channel=9, note=44, velocity=95, time=0),
    Message('note_off', channel=9, note=44, velocity=80, time=240),
    Message('note_on', channel=9, note=44, velocity=95, time=0),
    Message('note_on', channel=9, note=35, velocity=95, time=0),
    Message('note_off', channel=9, note=44, velocity=80, time=240),
    Message('note_off', channel=9, note=35, velocity=80, time=0),
    Message('note_on', channel=9, note=44, velocity=95, time=0),
    Message('note_off', channel=9, note=44, velocity=80, time=240),
    Message('note_on', channel=9, note=44, velocity=95, time=0),
    Message('note_on', channel=9, note=38, velocity=95, time=0),
    Message('note_off', channel=9, note=44, velocity=80, time=240),
    Message('note_off', channel=9, note=38, velocity=80, time=0),
    Message('note_on', channel=9, note=44, velocity=95, time=0),
    Message('note_off', channel=9, note=44, velocity=80, time=240),
    Message('note_on', channel=9, note=44, velocity=95, time=0),
    Message('note_on', channel=9, note=35, velocity=95, time=0),
    Message('note_off', channel=9, note=44, velocity=80, time=240),
    Message('note_off', channel=9, note=35, velocity=80, time=0),
    Message('note_on', channel=9, note=44, velocity=95, time=0),
    Message('note_on', channel=9, note=35, velocity=95, time=0),
    Message('note_off', channel=9, note=44, velocity=80, time=240),
    Message('note_off', channel=9, note=35, velocity=80, time=0),
    Message('note_on', channel=9, note=44, velocity=95, time=0),
    Message('note_on', channel=9, note=38, velocity=95, time=0),
    Message('note_off', channel=9, note=44, velocity=80, time=240),
    Message('note_off', channel=9, note=38, velocity=80, time=0),
    Message('note_on', channel=9, note=44, velocity=95, time=0),
    Message('note_off', channel=9, note=44, velocity=80, time=240),
    Message('note_on', channel=9, note=44, velocity=95, time=0),
    Message('note_on', channel=9, note=35, velocity=95, time=0),
    Message('note_off', channel=9, note=44, velocity=80, time=240),
    Message('note_off', channel=9, note=35, velocity=80, time=0),
    Message('note_on', channel=9, note=44, velocity=95, time=0),
    Message('note_off', channel=9, note=44, velocity=80, time=240),
    Message('note_on', channel=9, note=44, velocity=95, time=0),
    Message('note_on', channel=9, note=38, velocity=95, time=0),
    Message('note_off', channel=9, note=44, velocity=80, time=240),
    Message('note_off', channel=9, note=38, velocity=80, time=0),
    Message('note_on', channel=9, note=44, velocity=95, time=0),
    Message('note_off', channel=9, note=44, velocity=80, time=240),
    Message('note_on', channel=9, note=44, velocity=95, time=0),
    Message('note_on', channel=9, note=35, velocity=95, time=0),
    Message('note_off', channel=9, note=44, velocity=80, time=240),
    Message('note_off', channel=9, note=35, velocity=80, time=0),
    Message('note_on', channel=9, note=44, velocity=95, time=0),
    Message('note_on', channel=9, note=35, velocity=95, time=0),
    Message('note_off', channel=9, note=44, velocity=80, time=240),
    Message('note_off', channel=9, note=35, velocity=80, time=0),
    Message('note_on', channel=9, note=44, velocity=95, time=0),
    Message('note_on', channel=9, note=38, velocity=95, time=0),
    Message('note_off', channel=9, note=44, velocity=80, time=240),
    Message('note_off', channel=9, note=38, velocity=80, time=0),
    Message('note_on', channel=9, note=44, velocity=95, time=0),
    Message('note_off', channel=9, note=44, velocity=80, time=240),
    Message('note_on', channel=9, note=44, velocity=95, time=0),
    Message('note_on', channel=9, note=35, velocity=95, time=0),
    Message('note_off', channel=9, note=44, velocity=80, time=240),
    Message('note_off', channel=9, note=35, velocity=80, time=0),
    Message('note_on', channel=9, note=44, velocity=95, time=0),
    Message('note_off', channel=9, note=44, velocity=80, time=240),
    Message('note_on', channel=9, note=44, velocity=95, time=0),
    Message('note_on', channel=9, note=38, velocity=95, time=0),
    Message('note_off', channel=9, note=44, velocity=80, time=240),
    Message('note_off', channel=9, note=38, velocity=80, time=0),
    Message('note_on', channel=9, note=44, velocity=95, time=0),
    Message('note_off', channel=9, note=44, velocity=80, time=240),
    Message('note_on', channel=9, note=44, velocity=95, time=0),
    Message('note_on', channel=9, note=35, velocity=95, time=0),
    Message('note_off', channel=9, note=44, velocity=80, time=240),
    Message('note_off', channel=9, note=35, velocity=80, time=0),
    Message('note_on', channel=9, note=44, velocity=95, time=0),
    Message('note_on', channel=9, note=35, velocity=95, time=0),
    Message('note_off', channel=9, note=44, velocity=80, time=240),
    Message('note_off', channel=9, note=35, velocity=80, time=0),
    Message('note_on', channel=9, note=44, velocity=95, time=0),
    Message('note_on', channel=9, note=38, velocity=95, time=0),
    Message('note_off', channel=9, note=44, velocity=80, time=240),
    Message('note_off', channel=9, note=38, velocity=80, time=0),
    Message('note_on', channel=9, note=44, velocity=95, time=0),
    Message('note_off', channel=9, note=44, velocity=80, time=240),
    Message('note_on', channel=9, note=44, velocity=95, time=0),
    Message('note_on', channel=9, note=35, velocity=95, time=0),
    Message('note_off', channel=9, note=44, velocity=80, time=240),
    Message('note_off', channel=9, note=35, velocity=80, time=0),
    Message('note_on', channel=9, note=44, velocity=95, time=0),
    Message('note_off', channel=9, note=44, velocity=80, time=240),
    Message('note_on', channel=9, note=44, velocity=95, time=0),
    Message('note_on', channel=9, note=38, velocity=95, time=0),
    Message('note_off', channel=9, note=44, velocity=80, time=240),
    Message('note_off', channel=9, note=38, velocity=80, time=0),
    Message('note_on', channel=9, note=44, velocity=95, time=0),
    Message('note_off', channel=9, note=44, velocity=80, time=240),
    Message('note_on', channel=9, note=44, velocity=95, time=0),
    Message('note_on', channel=9, note=35, velocity=95, time=0),
    Message('note_off', channel=9, note=44, velocity=80, time=240),
    Message('note_off', channel=9, note=35, velocity=80, time=0),
    Message('note_on', channel=9, note=44, velocity=95, time=0),
    Message('note_on', channel=9, note=35, velocity=95, time=0),
    Message('note_off', channel=9, note=44, velocity=80, time=240),
    Message('note_off', channel=9, note=35, velocity=80, time=0),
    Message('note_on', channel=9, note=44, velocity=95, time=0),
    Message('note_on', channel=9, note=38, velocity=95, time=0),
    Message('note_off', channel=9, note=44, velocity=80, time=240),
    Message('note_off', channel=9, note=38, velocity=80, time=0),
    Message('note_on', channel=9, note=44, velocity=95, time=0),
    Message('note_off', channel=9, note=44, velocity=80, time=240),
    Message('note_on', channel=9, note=49, velocity=95, time=0),
    Message('note_on', channel=9, note=35, velocity=95, time=0),
    Message('note_off', channel=9, note=49, velocity=80, time=240),
    Message('note_off', channel=9, note=35, velocity=80, time=0),
    Message('note_on', channel=9, note=38, velocity=95, time=0),
    Message('note_off', channel=9, note=38, velocity=80, time=240),
    Message('note_on', channel=9, note=38, velocity=95, time=0),
    Message('note_off', channel=9, note=38, velocity=80, time=240),
    Message('note_on', channel=9, note=38, velocity=95, time=0),
    Message('note_off', channel=9, note=38, velocity=80, time=240),
    Message('note_on', channel=9, note=38, velocity=95, time=0),
    Message('note_off', channel=9, note=38, velocity=80, time=240),
    Message('note_on', channel=9, note=38, velocity=95, time=0),
    Message('note_off', channel=9, note=38, velocity=80, time=240),
    Message('note_on', channel=9, note=38, velocity=95, time=0),
    Message('note_off', channel=9, note=38, velocity=80, time=240),
    Message('note_on', channel=9, note=38, velocity=95, time=0),
    Message('note_off', channel=9, note=38, velocity=80, time=240),
    Message('note_on', channel=9, note=49, velocity=95, time=0),
    Message('note_on', channel=9, note=35, velocity=95, time=0),
    Message('note_off', channel=9, note=49, velocity=80, time=240),
    Message('note_off', channel=9, note=35, velocity=80, time=0),
    Message('note_on', channel=9, note=44, velocity=95, time=0),
    Message('note_off', channel=9, note=44, velocity=80, time=240),
    Message('note_on', channel=9, note=44, velocity=95, time=0),
    Message('note_on', channel=9, note=38, velocity=95, time=0),
    Message('note_off', channel=9, note=44, velocity=80, time=240),
    Message('note_off', channel=9, note=38, velocity=80, time=0),
    Message('note_on', channel=9, note=44, velocity=95, time=0),
    Message('note_off', channel=9, note=44, velocity=80, time=240),
    Message('note_on', channel=9, note=44, velocity=95, time=0),
    Message('note_on', channel=9, note=35, velocity=95, time=0),
    Message('note_off', channel=9, note=44, velocity=80, time=240),
    Message('note_off', channel=9, note=35, velocity=80, time=0),
    Message('note_on', channel=9, note=44, velocity=95, time=0),
    Message('note_on', channel=9, note=35, velocity=95, time=0),
    Message('note_off', channel=9, note=44, velocity=80, time=240),
    Message('note_off', channel=9, note=35, velocity=80, time=0),
    Message('note_on', channel=9, note=44, velocity=95, time=0),
    Message('note_on', channel=9, note=38, velocity=95, time=0),
    Message('note_off', channel=9, note=44, velocity=80, time=240),
    Message('note_off', channel=9, note=38, velocity=80, time=0),
    Message('note_on', channel=9, note=44, velocity=95, time=0),
    Message('note_off', channel=9, note=44, velocity=80, time=240),
    Message('note_on', channel=9, note=44, velocity=95, time=0),
    Message('note_on', channel=9, note=35, velocity=95, time=0),
    Message('note_off', channel=9, note=44, velocity=80, time=240),
    Message('note_off', channel=9, note=35, velocity=80, time=0),
    Message('note_on', channel=9, note=44, velocity=95, time=0),
    Message('note_off', channel=9, note=44, velocity=80, time=240),
    Message('note_on', channel=9, note=44, velocity=95, time=0),
    Message('note_on', channel=9, note=38, velocity=95, time=0),
    Message('note_off', channel=9, note=44, velocity=80, time=240),
    Message('note_off', channel=9, note=38, velocity=80, time=0),
    Message('note_on', channel=9, note=44, velocity=95, time=0),
    Message('note_off', channel=9, note=44, velocity=80, time=240),
    Message('note_on', channel=9, note=44, velocity=95, time=0),
    Message('note_on', channel=9, note=35, velocity=95, time=0),
    Message('note_off', channel=9, note=44, velocity=80, time=240),
    Message('note_off', channel=9, note=35, velocity=80, time=0),
    Message('note_on', channel=9, note=44, velocity=95, time=0),
    Message('note_on', channel=9, note=35, velocity=95, time=0),
    Message('note_off', channel=9, note=44, velocity=80, time=240),
    Message('note_off', channel=9, note=35, velocity=80, time=0),
    Message('note_on', channel=9, note=44, velocity=95, time=0),
    Message('note_on', channel=9, note=38, velocity=95, time=0),
    Message('note_off', channel=9, note=44, velocity=80, time=240),
    Message('note_off', channel=9, note=38, velocity=80, time=0),
    Message('note_on', channel=9, note=44, velocity=95, time=0),
    Message('note_off', channel=9, note=44, velocity=80, time=240),
    Message('note_on', channel=9, note=44, velocity=95, time=0),
    Message('note_on', channel=9, note=35, velocity=95, time=0),
    Message('note_off', channel=9, note=44, velocity=80, time=240),
    Message('note_off', channel=9, note=35, velocity=80, time=0),
    Message('note_on', channel=9, note=44, velocity=95, time=0),
    Message('note_off', channel=9, note=44, velocity=80, time=240),
    Message('note_on', channel=9, note=44, velocity=95, time=0),
    Message('note_on', channel=9, note=38, velocity=95, time=0),
    Message('note_off', channel=9, note=44, velocity=80, time=240),
    Message('note_off', channel=9, note=38, velocity=80, time=0),
    Message('note_on', channel=9, note=44, velocity=95, time=0),
    Message('note_off', channel=9, note=44, velocity=80, time=240),
    Message('note_on', channel=9, note=44, velocity=95, time=0),
    Message('note_on', channel=9, note=35, velocity=95, time=0),
    Message('note_off', channel=9, note=44, velocity=80, time=240),
    Message('note_off', channel=9, note=35, velocity=80, time=0),
    Message('note_on', channel=9, note=44, velocity=95, time=0),
    Message('note_on', channel=9, note=35, velocity=95, time=0),
    Message('note_off', channel=9, note=44, velocity=80, time=240),
    Message('note_off', channel=9, note=35, velocity=80, time=0),
    Message('note_on', channel=9, note=44, velocity=95, time=0),
    Message('note_on', channel=9, note=38, velocity=95, time=0),
    Message('note_off', channel=9, note=44, velocity=80, time=240),
    Message('note_off', channel=9, note=38, velocity=80, time=0),
    Message('note_on', channel=9, note=44, velocity=95, time=0),
    Message('note_off', channel=9, note=44, velocity=80, time=240),
    Message('note_on', channel=9, note=49, velocity=95, time=0),
    Message('note_on', channel=9, note=35, velocity=95, time=0),
    Message('note_off', channel=9, note=49, velocity=80, time=480),
    Message('note_off', channel=9, note=35, velocity=80, time=0),
    Message('note_on', channel=9, note=41, velocity=95, time=960),
    Message('note_on', channel=9, note=38, velocity=95, time=0),
    Message('note_off', channel=9, note=41, velocity=80, time=240),
    Message('note_off', channel=9, note=38, velocity=80, time=0),
    Message('note_on', channel=9, note=41, velocity=95, time=0),
    Message('note_on', channel=9, note=38, velocity=95, time=0),
    Message('note_off', channel=9, note=41, velocity=80, time=240),
    Message('note_off', channel=9, note=38, velocity=80, time=0),
    Message('note_on', channel=9, note=44, velocity=95, time=0),
    Message('note_on', channel=9, note=35, velocity=95, time=0),
    Message('note_off', channel=9, note=44, velocity=80, time=240),
    Message('note_off', channel=9, note=35, velocity=80, time=0),
    Message('note_on', channel=9, note=44, velocity=95, time=0),
    Message('note_off', channel=9, note=44, velocity=80, time=240),
    Message('note_on', channel=9, note=44, velocity=95, time=0),
    Message('note_on', channel=9, note=38, velocity=95, time=0),
    Message('note_off', channel=9, note=44, velocity=80, time=240),
    Message('note_off', channel=9, note=38, velocity=80, time=0),
    Message('note_on', channel=9, note=44, velocity=95, time=0),
    Message('note_off', channel=9, note=44, velocity=80, time=240),
    Message('note_on', channel=9, note=44, velocity=95, time=0),
    Message('note_on', channel=9, note=35, velocity=95, time=0),
    Message('note_off', channel=9, note=44, velocity=80, time=240),
    Message('note_off', channel=9, note=35, velocity=80, time=0),
    Message('note_on', channel=9, note=44, velocity=95, time=0),
    Message('note_on', channel=9, note=35, velocity=95, time=0),
    Message('note_off', channel=9, note=44, velocity=80, time=240),
    Message('note_off', channel=9, note=35, velocity=80, time=0),
    Message('note_on', channel=9, note=44, velocity=95, time=0),
    Message('note_on', channel=9, note=38, velocity=95, time=0),
    Message('note_off', channel=9, note=44, velocity=80, time=240),
    Message('note_off', channel=9, note=38, velocity=80, time=0),
    Message('note_on', channel=9, note=44, velocity=95, time=0),
    Message('note_off', channel=9, note=44, velocity=80, time=240),
    Message('note_on', channel=9, note=44, velocity=95, time=0),
    Message('note_on', channel=9, note=35, velocity=95, time=0),
    Message('note_off', channel=9, note=44, velocity=80, time=240),
    Message('note_off', channel=9, note=35, velocity=80, time=0),
    Message('note_on', channel=9, note=44, velocity=95, time=0),
    Message('note_off', channel=9, note=44, velocity=80, time=240),
    Message('note_on', channel=9, note=44, velocity=95, time=0),
    Message('note_on', channel=9, note=38, velocity=95, time=0),
    Message('note_off', channel=9, note=44, velocity=80, time=240),
    Message('note_off', channel=9, note=38, velocity=80, time=0),
    Message('note_on', channel=9, note=44, velocity=95, time=0),
    Message('note_off', channel=9, note=44, velocity=80, time=240),
    Message('note_on', channel=9, note=44, velocity=95, time=0),
    Message('note_on', channel=9, note=35, velocity=95, time=0),
    Message('note_off', channel=9, note=44, velocity=80, time=240),
    Message('note_off', channel=9, note=35, velocity=80, time=0),
    Message('note_on', channel=9, note=44, velocity=95, time=0),
    Message('note_on', channel=9, note=35, velocity=95, time=0),
    Message('note_off', channel=9, note=44, velocity=80, time=240),
    Message('note_off', channel=9, note=35, velocity=80, time=0),
    Message('note_on', channel=9, note=44, velocity=95, time=0),
    Message('note_on', channel=9, note=38, velocity=95, time=0),
    Message('note_off', channel=9, note=44, velocity=80, time=240),
    Message('note_off', channel=9, note=38, velocity=80, time=0),
    Message('note_on', channel=9, note=44, velocity=95, time=0),
    Message('note_off', channel=9, note=44, velocity=80, time=240),
    Message('note_on', channel=9, note=44, velocity=95, time=0),
    Message('note_on', channel=9, note=35, velocity=95, time=0),
    Message('note_off', channel=9, note=44, velocity=80, time=240),
    Message('note_off', channel=9, note=35, velocity=80, time=0),
    Message('note_on', channel=9, note=44, velocity=95, time=0),
    Message('note_off', channel=9, note=44, velocity=80, time=240),
    Message('note_on', channel=9, note=44, velocity=95, time=0),
    Message('note_on', channel=9, note=38, velocity=95, time=0),
    Message('note_off', channel=9, note=44, velocity=80, time=240),
    Message('note_off', channel=9, note=38, velocity=80, time=0),
    Message('note_on', channel=9, note=44, velocity=95, time=0),
    Message('note_off', channel=9, note=44, velocity=80, time=240),
    Message('note_on', channel=9, note=44, velocity=95, time=0),
    Message('note_on', channel=9, note=35, velocity=95, time=0),
    Message('note_off', channel=9, note=44, velocity=80, time=240),
    Message('note_off', channel=9, note=35, velocity=80, time=0),
    Message('note_on', channel=9, note=44, velocity=95, time=0),
    Message('note_on', channel=9, note=35, velocity=95, time=0),
    Message('note_off', channel=9, note=44, velocity=80, time=240),
    Message('note_off', channel=9, note=35, velocity=80, time=0),
    Message('note_on', channel=9, note=44, velocity=95, time=0),
    Message('note_on', channel=9, note=38, velocity=95, time=0),
    Message('note_off', channel=9, note=44, velocity=80, time=240),
    Message('note_off', channel=9, note=38, velocity=80, time=0),
    Message('note_on', channel=9, note=44, velocity=95, time=0),
    Message('note_off', channel=9, note=44, velocity=80, time=240),
    Message('note_on', channel=9, note=44, velocity=95, time=0),
    Message('note_on', channel=9, note=35, velocity=95, time=0),
    Message('note_off', channel=9, note=44, velocity=80, time=240),
    Message('note_off', channel=9, note=35, velocity=80, time=0),
    Message('note_on', channel=9, note=44, velocity=95, time=0),
    Message('note_off', channel=9, note=44, velocity=80, time=240),
    Message('note_on', channel=9, note=44, velocity=95, time=0),
    Message('note_on', channel=9, note=38, velocity=95, time=0),
    Message('note_off', channel=9, note=44, velocity=80, time=240),
    Message('note_off', channel=9, note=38, velocity=80, time=0),
    Message('note_on', channel=9, note=44, velocity=95, time=0),
    Message('note_off', channel=9, note=44, velocity=80, time=240),
    Message('note_on', channel=9, note=44, velocity=95, time=0),
    Message('note_on', channel=9, note=35, velocity=95, time=0),
    Message('note_off', channel=9, note=44, velocity=80, time=240),
    Message('note_off', channel=9, note=35, velocity=80, time=0),
    Message('note_on', channel=9, note=44, velocity=95, time=0),
    Message('note_on', channel=9, note=35, velocity=95, time=0),
    Message('note_off', channel=9, note=44, velocity=80, time=240),
    Message('note_off', channel=9, note=35, velocity=80, time=0),
    Message('note_on', channel=9, note=44, velocity=95, time=0),
    Message('note_on', channel=9, note=38, velocity=95, time=0),
    Message('note_off', channel=9, note=44, velocity=80, time=240),
    Message('note_off', channel=9, note=38, velocity=80, time=0),
    Message('note_on', channel=9, note=44, velocity=95, time=0),
    Message('note_off', channel=9, note=44, velocity=80, time=240),
    Message('note_on', channel=9, note=44, velocity=95, time=0),
    Message('note_on', channel=9, note=35, velocity=95, time=0),
    Message('note_off', channel=9, note=44, velocity=80, time=240),
    Message('note_off', channel=9, note=35, velocity=80, time=0),
    Message('note_on', channel=9, note=44, velocity=95, time=0),
    Message('note_off', channel=9, note=44, velocity=80, time=240),
    Message('note_on', channel=9, note=44, velocity=95, time=0),
    Message('note_on', channel=9, note=38, velocity=95, time=0),
    Message('note_off', channel=9, note=44, velocity=80, time=240),
    Message('note_off', channel=9, note=38, velocity=80, time=0),
    Message('note_on', channel=9, note=44, velocity=95, time=0),
    Message('note_off', channel=9, note=44, velocity=80, time=240),
    Message('note_on', channel=9, note=44, velocity=95, time=0),
    Message('note_on', channel=9, note=35, velocity=95, time=0),
    Message('note_off', channel=9, note=44, velocity=80, time=240),
    Message('note_off', channel=9, note=35, velocity=80, time=0),
    Message('note_on', channel=9, note=44, velocity=95, time=0),
    Message('note_on', channel=9, note=35, velocity=95, time=0),
    Message('note_off', channel=9, note=44, velocity=80, time=240),
    Message('note_off', channel=9, note=35, velocity=80, time=0),
    Message('note_on', channel=9, note=44, velocity=95, time=0),
    Message('note_on', channel=9, note=38, velocity=95, time=0),
    Message('note_off', channel=9, note=44, velocity=80, time=240),
    Message('note_off', channel=9, note=38, velocity=80, time=0),
    Message('note_on', channel=9, note=44, velocity=95, time=0),
    Message('note_off', channel=9, note=44, velocity=80, time=240),
    Message('note_on', channel=9, note=44, velocity=95, time=0),
    Message('note_on', channel=9, note=35, velocity=95, time=0),
    Message('note_off', channel=9, note=44, velocity=80, time=240),
    Message('note_off', channel=9, note=35, velocity=80, time=0),
    Message('note_on', channel=9, note=44, velocity=95, time=0),
    Message('note_off', channel=9, note=44, velocity=80, time=240),
    Message('note_on', channel=9, note=44, velocity=95, time=0),
    Message('note_on', channel=9, note=38, velocity=95, time=0),
    Message('note_off', channel=9, note=44, velocity=80, time=240),
    Message('note_off', channel=9, note=38, velocity=80, time=0),
    Message('note_on', channel=9, note=44, velocity=95, time=0),
    Message('note_off', channel=9, note=44, velocity=80, time=240),
    Message('note_on', channel=9, note=44, velocity=95, time=0),
    Message('note_on', channel=9, note=35, velocity=95, time=0),
    Message('note_off', channel=9, note=44, velocity=80, time=240),
    Message('note_off', channel=9, note=35, velocity=80, time=0),
    Message('note_on', channel=9, note=44, velocity=95, time=0),
    Message('note_on', channel=9, note=35, velocity=95, time=0),
    Message('note_off', channel=9, note=44, velocity=80, time=240),
    Message('note_off', channel=9, note=35, velocity=80, time=0),
    Message('note_on', channel=9, note=44, velocity=95, time=0),
    Message('note_on', channel=9, note=38, velocity=95, time=0),
    Message('note_off', channel=9, note=44, velocity=80, time=240),
    Message('note_off', channel=9, note=38, velocity=80, time=0),
    Message('note_on', channel=9, note=44, velocity=95, time=0),
    Message('note_off', channel=9, note=44, velocity=80, time=240),
    Message('note_on', channel=9, note=44, velocity=95, time=0),
    Message('note_on', channel=9, note=35, velocity=95, time=0),
    Message('note_off', channel=9, note=44, velocity=80, time=240),
    Message('note_off', channel=9, note=35, velocity=80, time=0),
    Message('note_on', channel=9, note=44, velocity=95, time=0),
    Message('note_off', channel=9, note=44, velocity=80, time=240),
    Message('note_on', channel=9, note=44, velocity=95, time=0),
    Message('note_on', channel=9, note=38, velocity=95, time=0),
    Message('note_off', channel=9, note=44, velocity=80, time=240),
    Message('note_off', channel=9, note=38, velocity=80, time=0),
    Message('note_on', channel=9, note=44, velocity=95, time=0),
    Message('note_off', channel=9, note=44, velocity=80, time=240),
    Message('note_on', channel=9, note=44, velocity=95, time=0),
    Message('note_on', channel=9, note=35, velocity=95, time=0),
    Message('note_off', channel=9, note=44, velocity=80, time=240),
    Message('note_off', channel=9, note=35, velocity=80, time=0),
    Message('note_on', channel=9, note=44, velocity=95, time=0),
    Message('note_on', channel=9, note=35, velocity=95, time=0),
    Message('note_off', channel=9, note=44, velocity=80, time=240),
    Message('note_off', channel=9, note=35, velocity=80, time=0),
    Message('note_on', channel=9, note=44, velocity=95, time=0),
    Message('note_on', channel=9, note=38, velocity=95, time=0),
    Message('note_off', channel=9, note=44, velocity=80, time=240),
    Message('note_off', channel=9, note=38, velocity=80, time=0),
    Message('note_on', channel=9, note=44, velocity=95, time=0),
    Message('note_off', channel=9, note=44, velocity=80, time=240),
    Message('note_on', channel=9, note=44, velocity=95, time=0),
    Message('note_on', channel=9, note=35, velocity=95, time=0),
    Message('note_off', channel=9, note=44, velocity=80, time=240),
    Message('note_off', channel=9, note=35, velocity=80, time=0),
    Message('note_on', channel=9, note=44, velocity=95, time=0),
    Message('note_off', channel=9, note=44, velocity=80, time=240),
    Message('note_on', channel=9, note=44, velocity=95, time=0),
    Message('note_on', channel=9, note=38, velocity=95, time=0),
    Message('note_off', channel=9, note=44, velocity=80, time=240),
    Message('note_off', channel=9, note=38, velocity=80, time=0),
    Message('note_on', channel=9, note=44, velocity=95, time=0),
    Message('note_off', channel=9, note=44, velocity=80, time=240),
    Message('note_on', channel=9, note=44, velocity=95, time=0),
    Message('note_on', channel=9, note=35, velocity=95, time=0),
    Message('note_off', channel=9, note=44, velocity=80, time=240),
    Message('note_off', channel=9, note=35, velocity=80, time=0),
    Message('note_on', channel=9, note=44, velocity=95, time=0),
    Message('note_on', channel=9, note=35, velocity=95, time=0),
    Message('note_off', channel=9, note=44, velocity=80, time=240),
    Message('note_off', channel=9, note=35, velocity=80, time=0),
    Message('note_on', channel=9, note=44, velocity=95, time=0),
    Message('note_on', channel=9, note=38, velocity=95, time=0),
    Message('note_off', channel=9, note=44, velocity=80, time=240),
    Message('note_off', channel=9, note=38, velocity=80, time=0),
    Message('note_on', channel=9, note=44, velocity=95, time=0),
    Message('note_off', channel=9, note=44, velocity=80, time=240),
    Message('note_on', channel=9, note=44, velocity=95, time=0),
    Message('note_on', channel=9, note=35, velocity=95, time=0),
    Message('note_off', channel=9, note=44, velocity=80, time=240),
    Message('note_off', channel=9, note=35, velocity=80, time=0),
    Message('note_on', channel=9, note=44, velocity=95, time=0),
    Message('note_off', channel=9, note=44, velocity=80, time=240),
    Message('note_on', channel=9, note=44, velocity=95, time=0),
    Message('note_on', channel=9, note=38, velocity=95, time=0),
    Message('note_off', channel=9, note=44, velocity=80, time=240),
    Message('note_off', channel=9, note=38, velocity=80, time=0),
    Message('note_on', channel=9, note=44, velocity=95, time=0),
    Message('note_off', channel=9, note=44, velocity=80, time=240),
    Message('note_on', channel=9, note=44, velocity=95, time=0),
    Message('note_on', channel=9, note=35, velocity=95, time=0),
    Message('note_off', channel=9, note=44, velocity=80, time=240),
    Message('note_off', channel=9, note=35, velocity=80, time=0),
    Message('note_on', channel=9, note=44, velocity=95, time=0),
    Message('note_on', channel=9, note=35, velocity=95, time=0),
    Message('note_off', channel=9, note=44, velocity=80, time=240),
    Message('note_off', channel=9, note=35, velocity=80, time=0),
    Message('note_on', channel=9, note=44, velocity=95, time=0),
    Message('note_on', channel=9, note=38, velocity=95, time=0),
    Message('note_off', channel=9, note=44, velocity=80, time=240),
    Message('note_off', channel=9, note=38, velocity=80, time=0),
    Message('note_on', channel=9, note=44, velocity=95, time=0),
    Message('note_off', channel=9, note=44, velocity=80, time=240),
    Message('note_on', channel=9, note=44, velocity=95, time=0),
    Message('note_on', channel=9, note=35, velocity=95, time=0),
    Message('note_off', channel=9, note=44, velocity=80, time=240),
    Message('note_off', channel=9, note=35, velocity=80, time=0),
    Message('note_on', channel=9, note=44, velocity=95, time=0),
    Message('note_off', channel=9, note=44, velocity=80, time=240),
    Message('note_on', channel=9, note=44, velocity=95, time=0),
    Message('note_on', channel=9, note=38, velocity=95, time=0),
    Message('note_off', channel=9, note=44, velocity=80, time=240),
    Message('note_off', channel=9, note=38, velocity=80, time=0),
    Message('note_on', channel=9, note=44, velocity=95, time=0),
    Message('note_off', channel=9, note=44, velocity=80, time=240),
    Message('note_on', channel=9, note=44, velocity=95, time=0),
    Message('note_on', channel=9, note=35, velocity=95, time=0),
    Message('note_off', channel=9, note=44, velocity=80, time=240),
    Message('note_off', channel=9, note=35, velocity=80, time=0),
    Message('note_on', channel=9, note=44, velocity=95, time=0),
    Message('note_on', channel=9, note=35, velocity=95, time=0),
    Message('note_off', channel=9, note=44, velocity=80, time=240),
    Message('note_off', channel=9, note=35, velocity=80, time=0),
    Message('note_on', channel=9, note=44, velocity=95, time=0),
    Message('note_on', channel=9, note=38, velocity=95, time=0),
    Message('note_off', channel=9, note=44, velocity=80, time=240),
    Message('note_off', channel=9, note=38, velocity=80, time=0),
    Message('note_on', channel=9, note=44, velocity=95, time=0),
    Message('note_off', channel=9, note=44, velocity=80, time=240),
    Message('note_on', channel=9, note=44, velocity=95, time=0),
    Message('note_on', channel=9, note=35, velocity=95, time=0),
    Message('note_off', channel=9, note=44, velocity=80, time=240),
    Message('note_off', channel=9, note=35, velocity=80, time=0),
    Message('note_on', channel=9, note=44, velocity=95, time=0),
    Message('note_off', channel=9, note=44, velocity=80, time=240),
    Message('note_on', channel=9, note=44, velocity=95, time=0),
    Message('note_on', channel=9, note=38, velocity=95, time=0),
    Message('note_off', channel=9, note=44, velocity=80, time=240),
    Message('note_off', channel=9, note=38, velocity=80, time=0),
    Message('note_on', channel=9, note=44, velocity=95, time=0),
    Message('note_off', channel=9, note=44, velocity=80, time=240),
    Message('note_on', channel=9, note=44, velocity=95, time=0),
    Message('note_on', channel=9, note=35, velocity=95, time=0),
    Message('note_off', channel=9, note=44, velocity=80, time=240),
    Message('note_off', channel=9, note=35, velocity=80, time=0),
    Message('note_on', channel=9, note=44, velocity=95, time=0),
    Message('note_on', channel=9, note=35, velocity=95, time=0),
    Message('note_off', channel=9, note=44, velocity=80, time=240),
    Message('note_off', channel=9, note=35, velocity=80, time=0),
    Message('note_on', channel=9, note=44, velocity=95, time=0),
    Message('note_on', channel=9, note=38, velocity=95, time=0),
    Message('note_off', channel=9, note=44, velocity=80, time=240),
    Message('note_off', channel=9, note=38, velocity=80, time=0),
    Message('note_on', channel=9, note=44, velocity=95, time=0),
    Message('note_off', channel=9, note=44, velocity=80, time=240),
    Message('note_on', channel=9, note=49, velocity=95, time=0),
    Message('note_on', channel=9, note=35, velocity=95, time=0),
    Message('note_off', channel=9, note=49, velocity=80, time=480),
    Message('note_off', channel=9, note=35, velocity=80, time=0),
    Message('note_on', channel=9, note=44, velocity=95, time=1920),
    Message('note_off', channel=9, note=44, velocity=80, time=480),
    Message('note_on', channel=9, note=44, velocity=95, time=480),
    Message('note_off', channel=9, note=44, velocity=80, time=480),
    Message('note_on', channel=9, note=44, velocity=95, time=480),
    Message('note_off', channel=9, note=44, velocity=80, time=480),
    Message('note_on', channel=9, note=44, velocity=95, time=480),
    Message('note_off', channel=9, note=44, velocity=80, time=480),
    Message('note_on', channel=9, note=44, velocity=95, time=480),
    Message('note_off', channel=9, note=44, velocity=80, time=480),
    Message('note_on', channel=9, note=44, velocity=95, time=480),
    Message('note_off', channel=9, note=44, velocity=80, time=480),
    Message('note_on', channel=9, note=44, velocity=95, time=480),
    Message('note_off', channel=9, note=44, velocity=80, time=480),
    Message('note_on', channel=9, note=44, velocity=95, time=480),
    Message('note_off', channel=9, note=44, velocity=80, time=480),
    Message('note_on', channel=9, note=44, velocity=95, time=480),
    Message('note_off', channel=9, note=44, velocity=80, time=480),
    Message('note_on', channel=9, note=44, velocity=95, time=480),
    Message('note_off', channel=9, note=44, velocity=80, time=480),
    Message('note_on', channel=9, note=44, velocity=95, time=480),
    Message('note_off', channel=9, note=44, velocity=80, time=480),
    Message('note_on', channel=9, note=44, velocity=95, time=480),
    Message('note_off', channel=9, note=44, velocity=80, time=480),
    Message('note_on', channel=9, note=44, velocity=95, time=480),
    Message('note_off', channel=9, note=44, velocity=80, time=480),
    Message('note_on', channel=9, note=44, velocity=95, time=480),
    Message('note_off', channel=9, note=44, velocity=80, time=480),
    Message('note_on', channel=9, note=44, velocity=95, time=480),
    Message('note_off', channel=9, note=44, velocity=80, time=480),
    Message('note_on', channel=9, note=44, velocity=95, time=480),
    Message('note_off', channel=9, note=44, velocity=80, time=480),
    Message('note_on', channel=9, note=44, velocity=95, time=480),
    Message('note_off', channel=9, note=44, velocity=80, time=480),
    Message('note_on', channel=9, note=44, velocity=95, time=480),
    Message('note_off', channel=9, note=44, velocity=80, time=480),
    Message('note_on', channel=9, note=44, velocity=95, time=480),
    Message('note_off', channel=9, note=44, velocity=80, time=480),
    Message('note_on', channel=9, note=44, velocity=95, time=480),
    Message('note_off', channel=9, note=44, velocity=80, time=480),
    Message('note_on', channel=9, note=44, velocity=95, time=480),
    Message('note_off', channel=9, note=44, velocity=80, time=480),
    Message('note_on', channel=9, note=44, velocity=95, time=480),
    Message('note_off', channel=9, note=44, velocity=80, time=480),
    Message('note_on', channel=9, note=44, velocity=95, time=480),
    Message('note_off', channel=9, note=44, velocity=80, time=480),
    Message('note_on', channel=9, note=44, velocity=95, time=480),
    Message('note_off', channel=9, note=44, velocity=80, time=480),
    Message('note_on', channel=9, note=35, velocity=95, time=0),
    Message('note_off', channel=9, note=35, velocity=80, time=480),
    Message('note_on', channel=9, note=44, velocity=95, time=0),
    Message('note_off', channel=9, note=44, velocity=80, time=480),
    Message('note_on', channel=9, note=35, velocity=95, time=0),
    Message('note_off', channel=9, note=35, velocity=80, time=480),
    Message('note_on', channel=9, note=44, velocity=95, time=0),
    Message('note_off', channel=9, note=44, velocity=80, time=480),
    Message('note_on', channel=9, note=35, velocity=95, time=0),
    Message('note_off', channel=9, note=35, velocity=80, time=480),
    Message('note_on', channel=9, note=44, velocity=95, time=0),
    Message('note_off', channel=9, note=44, velocity=80, time=480),
    Message('note_on', channel=9, note=35, velocity=95, time=0),
    Message('note_off', channel=9, note=35, velocity=80, time=480),
    Message('note_on', channel=9, note=44, velocity=95, time=0),
    Message('note_off', channel=9, note=44, velocity=80, time=480),
    Message('note_on', channel=9, note=35, velocity=95, time=0),
    Message('note_off', channel=9, note=35, velocity=80, time=480),
    Message('note_on', channel=9, note=44, velocity=95, time=0),
    Message('note_off', channel=9, note=44, velocity=80, time=480),
    Message('note_on', channel=9, note=35, velocity=95, time=0),
    Message('note_off', channel=9, note=35, velocity=80, time=480),
    Message('note_on', channel=9, note=44, velocity=95, time=0),
    Message('note_off', channel=9, note=44, velocity=80, time=480),
    Message('note_on', channel=9, note=35, velocity=95, time=0),
    Message('note_off', channel=9, note=35, velocity=80, time=480),
    Message('note_on', channel=9, note=38, velocity=95, time=0),
    Message('note_off', channel=9, note=38, velocity=80, time=480),
    Message('note_on', channel=9, note=38, velocity=95, time=0),
    Message('note_off', channel=9, note=38, velocity=80, time=480),
    Message('note_on', channel=9, note=38, velocity=95, time=0),
    Message('note_off', channel=9, note=38, velocity=80, time=120),
    Message('note_on', channel=9, note=38, velocity=95, time=0),
    Message('note_off', channel=9, note=38, velocity=80, time=120),
    Message('note_on', channel=9, note=38, velocity=95, time=0),
    Message('note_off', channel=9, note=38, velocity=80, time=120),
    Message('note_on', channel=9, note=38, velocity=95, time=0),
    Message('note_off', channel=9, note=38, velocity=80, time=120),
    Message('note_on', channel=9, note=44, velocity=95, time=0),
    Message('note_on', channel=9, note=35, velocity=95, time=0),
    Message('note_off', channel=9, note=44, velocity=80, time=240),
    Message('note_off', channel=9, note=35, velocity=80, time=0),
    Message('note_on', channel=9, note=44, velocity=95, time=0),
    Message('note_off', channel=9, note=44, velocity=80, time=240),
    Message('note_on', channel=9, note=44, velocity=95, time=0),
    Message('note_on', channel=9, note=38, velocity=95, time=0),
    Message('note_off', channel=9, note=44, velocity=80, time=240),
    Message('note_off', channel=9, note=38, velocity=80, time=0),
    Message('note_on', channel=9, note=44, velocity=95, time=0),
    Message('note_off', channel=9, note=44, velocity=80, time=240),
    Message('note_on', channel=9, note=44, velocity=95, time=0),
    Message('note_on', channel=9, note=35, velocity=95, time=0),
    Message('note_off', channel=9, note=44, velocity=80, time=240),
    Message('note_off', channel=9, note=35, velocity=80, time=0),
    Message('note_on', channel=9, note=44, velocity=95, time=0),
    Message('note_on', channel=9, note=35, velocity=95, time=0),
    Message('note_off', channel=9, note=44, velocity=80, time=240),
    Message('note_off', channel=9, note=35, velocity=80, time=0),
    Message('note_on', channel=9, note=44, velocity=95, time=0),
    Message('note_on', channel=9, note=38, velocity=95, time=0),
    Message('note_off', channel=9, note=44, velocity=80, time=240),
    Message('note_off', channel=9, note=38, velocity=80, time=0),
    Message('note_on', channel=9, note=44, velocity=95, time=0),
    Message('note_off', channel=9, note=44, velocity=80, time=240),
    Message('note_on', channel=9, note=44, velocity=95, time=0),
    Message('note_on', channel=9, note=35, velocity=95, time=0),
    Message('note_off', channel=9, note=44, velocity=80, time=240),
    Message('note_off', channel=9, note=35, velocity=80, time=0),
    Message('note_on', channel=9, note=44, velocity=95, time=0),
    Message('note_off', channel=9, note=44, velocity=80, time=240),
    Message('note_on', channel=9, note=44, velocity=95, time=0),
    Message('note_on', channel=9, note=38, velocity=95, time=0),
    Message('note_off', channel=9, note=44, velocity=80, time=240),
    Message('note_off', channel=9, note=38, velocity=80, time=0),
    Message('note_on', channel=9, note=44, velocity=95, time=0),
    Message('note_off', channel=9, note=44, velocity=80, time=240),
    Message('note_on', channel=9, note=44, velocity=95, time=0),
    Message('note_on', channel=9, note=35, velocity=95, time=0),
    Message('note_off', channel=9, note=44, velocity=80, time=240),
    Message('note_off', channel=9, note=35, velocity=80, time=0),
    Message('note_on', channel=9, note=44, velocity=95, time=0),
    Message('note_on', channel=9, note=35, velocity=95, time=0),
    Message('note_off', channel=9, note=44, velocity=80, time=240),
    Message('note_off', channel=9, note=35, velocity=80, time=0),
    Message('note_on', channel=9, note=44, velocity=95, time=0),
    Message('note_on', channel=9, note=38, velocity=95, time=0),
    Message('note_off', channel=9, note=44, velocity=80, time=240),
    Message('note_off', channel=9, note=38, velocity=80, time=0),
    Message('note_on', channel=9, note=44, velocity=95, time=0),
    Message('note_off', channel=9, note=44, velocity=80, time=240),
    Message('note_on', channel=9, note=44, velocity=95, time=0),
    Message('note_on', channel=9, note=35, velocity=95, time=0),
    Message('note_off', channel=9, note=44, velocity=80, time=240),
    Message('note_off', channel=9, note=35, velocity=80, time=0),
    Message('note_on', channel=9, note=44, velocity=95, time=0),
    Message('note_off', channel=9, note=44, velocity=80, time=240),
    Message('note_on', channel=9, note=44, velocity=95, time=0),
    Message('note_on', channel=9, note=38, velocity=95, time=0),
    Message('note_off', channel=9, note=44, velocity=80, time=240),
    Message('note_off', channel=9, note=38, velocity=80, time=0),
    Message('note_on', channel=9, note=44, velocity=95, time=0),
    Message('note_off', channel=9, note=44, velocity=80, time=240),
    Message('note_on', channel=9, note=44, velocity=95, time=0),
    Message('note_on', channel=9, note=35, velocity=95, time=0),
    Message('note_off', channel=9, note=44, velocity=80, time=240),
    Message('note_off', channel=9, note=35, velocity=80, time=0),
    Message('note_on', channel=9, note=44, velocity=95, time=0),
    Message('note_on', channel=9, note=35, velocity=95, time=0),
    Message('note_off', channel=9, note=44, velocity=80, time=240),
    Message('note_off', channel=9, note=35, velocity=80, time=0),
    Message('note_on', channel=9, note=44, velocity=95, time=0),
    Message('note_on', channel=9, note=38, velocity=95, time=0),
    Message('note_off', channel=9, note=44, velocity=80, time=240),
    Message('note_off', channel=9, note=38, velocity=80, time=0),
    Message('note_on', channel=9, note=44, velocity=95, time=0),
    Message('note_off', channel=9, note=44, velocity=80, time=240),
    Message('note_on', channel=9, note=44, velocity=95, time=0),
    Message('note_on', channel=9, note=35, velocity=95, time=0),
    Message('note_off', channel=9, note=44, velocity=80, time=240),
    Message('note_off', channel=9, note=35, velocity=80, time=0),
    Message('note_on', channel=9, note=44, velocity=95, time=0),
    Message('note_off', channel=9, note=44, velocity=80, time=240),
    Message('note_on', channel=9, note=44, velocity=95, time=0),
    Message('note_on', channel=9, note=38, velocity=95, time=0),
    Message('note_off', channel=9, note=44, velocity=80, time=240),
    Message('note_off', channel=9, note=38, velocity=80, time=0),
    Message('note_on', channel=9, note=44, velocity=95, time=0),
    Message('note_off', channel=9, note=44, velocity=80, time=240),
    Message('note_on', channel=9, note=44, velocity=95, time=0),
    Message('note_on', channel=9, note=35, velocity=95, time=0),
    Message('note_off', channel=9, note=44, velocity=80, time=240),
    Message('note_off', channel=9, note=35, velocity=80, time=0),
    Message('note_on', channel=9, note=44, velocity=95, time=0),
    Message('note_on', channel=9, note=35, velocity=95, time=0),
    Message('note_off', channel=9, note=44, velocity=80, time=240),
    Message('note_off', channel=9, note=35, velocity=80, time=0),
    Message('note_on', channel=9, note=44, velocity=95, time=0),
    Message('note_on', channel=9, note=38, velocity=95, time=0),
    Message('note_off', channel=9, note=44, velocity=80, time=240),
    Message('note_off', channel=9, note=38, velocity=80, time=0),
    Message('note_on', channel=9, note=44, velocity=95, time=0),
    Message('note_off', channel=9, note=44, velocity=80, time=240),
    Message('note_on', channel=9, note=44, velocity=95, time=0),
    Message('note_on', channel=9, note=35, velocity=95, time=0),
    Message('note_off', channel=9, note=44, velocity=80, time=240),
    Message('note_off', channel=9, note=35, velocity=80, time=0),
    Message('note_on', channel=9, note=44, velocity=95, time=0),
    Message('note_off', channel=9, note=44, velocity=80, time=240),
    Message('note_on', channel=9, note=44, velocity=95, time=0),
    Message('note_on', channel=9, note=38, velocity=95, time=0),
    Message('note_off', channel=9, note=44, velocity=80, time=240),
    Message('note_off', channel=9, note=38, velocity=80, time=0),
    Message('note_on', channel=9, note=44, velocity=95, time=0),
    Message('note_off', channel=9, note=44, velocity=80, time=240),
    Message('note_on', channel=9, note=44, velocity=95, time=0),
    Message('note_on', channel=9, note=35, velocity=95, time=0),
    Message('note_off', channel=9, note=44, velocity=80, time=240),
    Message('note_off', channel=9, note=35, velocity=80, time=0),
    Message('note_on', channel=9, note=44, velocity=95, time=0),
    Message('note_on', channel=9, note=35, velocity=95, time=0),
    Message('note_off', channel=9, note=44, velocity=80, time=240),
    Message('note_off', channel=9, note=35, velocity=80, time=0),
    Message('note_on', channel=9, note=44, velocity=95, time=0),
    Message('note_on', channel=9, note=38, velocity=95, time=0),
    Message('note_off', channel=9, note=44, velocity=80, time=240),
    Message('note_off', channel=9, note=38, velocity=80, time=0),
    Message('note_on', channel=9, note=44, velocity=95, time=0),
    Message('note_off', channel=9, note=44, velocity=80, time=240),
    Message('note_on', channel=9, note=44, velocity=95, time=0),
    Message('note_on', channel=9, note=35, velocity=95, time=0),
    Message('note_off', channel=9, note=44, velocity=80, time=240),
    Message('note_off', channel=9, note=35, velocity=80, time=0),
    Message('note_on', channel=9, note=44, velocity=95, time=0),
    Message('note_off', channel=9, note=44, velocity=80, time=240),
    Message('note_on', channel=9, note=44, velocity=95, time=0),
    Message('note_on', channel=9, note=38, velocity=95, time=0),
    Message('note_off', channel=9, note=44, velocity=80, time=240),
    Message('note_off', channel=9, note=38, velocity=80, time=0),
    Message('note_on', channel=9, note=44, velocity=95, time=0),
    Message('note_off', channel=9, note=44, velocity=80, time=240),
    Message('note_on', channel=9, note=44, velocity=95, time=0),
    Message('note_on', channel=9, note=35, velocity=95, time=0),
    Message('note_off', channel=9, note=44, velocity=80, time=240),
    Message('note_off', channel=9, note=35, velocity=80, time=0),
    Message('note_on', channel=9, note=44, velocity=95, time=0),
    Message('note_on', channel=9, note=35, velocity=95, time=0),
    Message('note_off', channel=9, note=44, velocity=80, time=240),
    Message('note_off', channel=9, note=35, velocity=80, time=0),
    Message('note_on', channel=9, note=44, velocity=95, time=0),
    Message('note_on', channel=9, note=38, velocity=95, time=0),
    Message('note_off', channel=9, note=44, velocity=80, time=240),
    Message('note_off', channel=9, note=38, velocity=80, time=0),
    Message('note_on', channel=9, note=44, velocity=95, time=0),
    Message('note_off', channel=9, note=44, velocity=80, time=240),
    Message('note_on', channel=9, note=44, velocity=95, time=0),
    Message('note_on', channel=9, note=35, velocity=95, time=0),
    Message('note_off', channel=9, note=44, velocity=80, time=240),
    Message('note_off', channel=9, note=35, velocity=80, time=0),
    Message('note_on', channel=9, note=44, velocity=95, time=0),
    Message('note_off', channel=9, note=44, velocity=80, time=240),
    Message('note_on', channel=9, note=44, velocity=95, time=0),
    Message('note_on', channel=9, note=38, velocity=95, time=0),
    Message('note_off', channel=9, note=44, velocity=80, time=240),
    Message('note_off', channel=9, note=38, velocity=80, time=0),
    Message('note_on', channel=9, note=44, velocity=95, time=0),
    Message('note_off', channel=9, note=44, velocity=80, time=240),
    Message('note_on', channel=9, note=44, velocity=95, time=0),
    Message('note_on', channel=9, note=35, velocity=95, time=0),
    Message('note_off', channel=9, note=44, velocity=80, time=240),
    Message('note_off', channel=9, note=35, velocity=80, time=0),
    Message('note_on', channel=9, note=44, velocity=95, time=0),
    Message('note_on', channel=9, note=35, velocity=95, time=0),
    Message('note_off', channel=9, note=44, velocity=80, time=240),
    Message('note_off', channel=9, note=35, velocity=80, time=0),
    Message('note_on', channel=9, note=44, velocity=95, time=0),
    Message('note_on', channel=9, note=38, velocity=95, time=0),
    Message('note_off', channel=9, note=44, velocity=80, time=240),
    Message('note_off', channel=9, note=38, velocity=80, time=0),
    Message('note_on', channel=9, note=44, velocity=95, time=0),
    Message('note_off', channel=9, note=44, velocity=80, time=240),
    Message('note_on', channel=9, note=49, velocity=95, time=0),
    Message('note_on', channel=9, note=35, velocity=95, time=0),
    Message('note_off', channel=9, note=49, velocity=80, time=240),
    Message('note_off', channel=9, note=35, velocity=80, time=0),
    Message('note_on', channel=9, note=38, velocity=95, time=0),
    Message('note_off', channel=9, note=38, velocity=80, time=240),
    Message('note_on', channel=9, note=38, velocity=95, time=0),
    Message('note_off', channel=9, note=38, velocity=80, time=240),
    Message('note_on', channel=9, note=38, velocity=95, time=0),
    Message('note_off', channel=9, note=38, velocity=80, time=240),
    Message('note_on', channel=9, note=38, velocity=95, time=0),
    Message('note_off', channel=9, note=38, velocity=80, time=240),
    Message('note_on', channel=9, note=38, velocity=95, time=0),
    Message('note_off', channel=9, note=38, velocity=80, time=240),
    Message('note_on', channel=9, note=38, velocity=95, time=0),
    Message('note_off', channel=9, note=38, velocity=80, time=240),
    Message('note_on', channel=9, note=38, velocity=95, time=0),
    Message('note_off', channel=9, note=38, velocity=80, time=240),
    Message('note_on', channel=9, note=49, velocity=95, time=0),
    Message('note_on', channel=9, note=35, velocity=95, time=0),
    Message('note_off', channel=9, note=49, velocity=80, time=240),
    Message('note_off', channel=9, note=35, velocity=80, time=0),
    Message('note_on', channel=9, note=44, velocity=95, time=0),
    Message('note_off', channel=9, note=44, velocity=80, time=240),
    Message('note_on', channel=9, note=44, velocity=95, time=0),
    Message('note_on', channel=9, note=38, velocity=95, time=0),
    Message('note_off', channel=9, note=44, velocity=80, time=240),
    Message('note_off', channel=9, note=38, velocity=80, time=0),
    Message('note_on', channel=9, note=44, velocity=95, time=0),
    Message('note_off', channel=9, note=44, velocity=80, time=240),
    Message('note_on', channel=9, note=44, velocity=95, time=0),
    Message('note_on', channel=9, note=35, velocity=95, time=0),
    Message('note_off', channel=9, note=44, velocity=80, time=240),
    Message('note_off', channel=9, note=35, velocity=80, time=0),
    Message('note_on', channel=9, note=44, velocity=95, time=0),
    Message('note_on', channel=9, note=35, velocity=95, time=0),
    Message('note_off', channel=9, note=44, velocity=80, time=240),
    Message('note_off', channel=9, note=35, velocity=80, time=0),
    Message('note_on', channel=9, note=44, velocity=95, time=0),
    Message('note_on', channel=9, note=38, velocity=95, time=0),
    Message('note_off', channel=9, note=44, velocity=80, time=240),
    Message('note_off', channel=9, note=38, velocity=80, time=0),
    Message('note_on', channel=9, note=44, velocity=95, time=0),
    Message('note_off', channel=9, note=44, velocity=80, time=240),
    Message('note_on', channel=9, note=44, velocity=95, time=0),
    Message('note_on', channel=9, note=35, velocity=95, time=0),
    Message('note_off', channel=9, note=44, velocity=80, time=240),
    Message('note_off', channel=9, note=35, velocity=80, time=0),
    Message('note_on', channel=9, note=44, velocity=95, time=0),
    Message('note_off', channel=9, note=44, velocity=80, time=240),
    Message('note_on', channel=9, note=44, velocity=95, time=0),
    Message('note_on', channel=9, note=38, velocity=95, time=0),
    Message('note_off', channel=9, note=44, velocity=80, time=240),
    Message('note_off', channel=9, note=38, velocity=80, time=0),
    Message('note_on', channel=9, note=44, velocity=95, time=0),
    Message('note_off', channel=9, note=44, velocity=80, time=240),
    Message('note_on', channel=9, note=44, velocity=95, time=0),
    Message('note_on', channel=9, note=35, velocity=95, time=0),
    Message('note_off', channel=9, note=44, velocity=80, time=240),
    Message('note_off', channel=9, note=35, velocity=80, time=0),
    Message('note_on', channel=9, note=44, velocity=95, time=0),
    Message('note_on', channel=9, note=35, velocity=95, time=0),
    Message('note_off', channel=9, note=44, velocity=80, time=240),
    Message('note_off', channel=9, note=35, velocity=80, time=0),
    Message('note_on', channel=9, note=44, velocity=95, time=0),
    Message('note_on', channel=9, note=38, velocity=95, time=0),
    Message('note_off', channel=9, note=44, velocity=80, time=240),
    Message('note_off', channel=9, note=38, velocity=80, time=0),
    Message('note_on', channel=9, note=44, velocity=95, time=0),
    Message('note_off', channel=9, note=44, velocity=80, time=240),
    Message('note_on', channel=9, note=44, velocity=95, time=0),
    Message('note_on', channel=9, note=35, velocity=95, time=0),
    Message('note_off', channel=9, note=44, velocity=80, time=240),
    Message('note_off', channel=9, note=35, velocity=80, time=0),
    Message('note_on', channel=9, note=44, velocity=95, time=0),
    Message('note_off', channel=9, note=44, velocity=80, time=240),
    Message('note_on', channel=9, note=44, velocity=95, time=0),
    Message('note_on', channel=9, note=38, velocity=95, time=0),
    Message('note_off', channel=9, note=44, velocity=80, time=240),
    Message('note_off', channel=9, note=38, velocity=80, time=0),
    Message('note_on', channel=9, note=44, velocity=95, time=0),
    Message('note_off', channel=9, note=44, velocity=80, time=240),
    Message('note_on', channel=9, note=44, velocity=95, time=0),
    Message('note_on', channel=9, note=35, velocity=95, time=0),
    Message('note_off', channel=9, note=44, velocity=80, time=240),
    Message('note_off', channel=9, note=35, velocity=80, time=0),
    Message('note_on', channel=9, note=44, velocity=95, time=0),
    Message('note_on', channel=9, note=35, velocity=95, time=0),
    Message('note_off', channel=9, note=44, velocity=80, time=240),
    Message('note_off', channel=9, note=35, velocity=80, time=0),
    Message('note_on', channel=9, note=44, velocity=95, time=0),
    Message('note_on', channel=9, note=38, velocity=95, time=0),
    Message('note_off', channel=9, note=44, velocity=80, time=240),
    Message('note_off', channel=9, note=38, velocity=80, time=0),
    Message('note_on', channel=9, note=44, velocity=95, time=0),
    Message('note_off', channel=9, note=44, velocity=80, time=240),
    Message('note_on', channel=9, note=49, velocity=95, time=0),
    Message('note_on', channel=9, note=35, velocity=95, time=0),
    Message('note_off', channel=9, note=49, velocity=80, time=480),
    Message('note_off', channel=9, note=35, velocity=80, time=0),
    Message('note_on', channel=9, note=41, velocity=95, time=960),
    Message('note_on', channel=9, note=38, velocity=95, time=0),
    Message('note_off', channel=9, note=41, velocity=80, time=240),
    Message('note_off', channel=9, note=38, velocity=80, time=0),
    Message('note_on', channel=9, note=41, velocity=95, time=0),
    Message('note_on', channel=9, note=38, velocity=95, time=0),
    Message('note_off', channel=9, note=41, velocity=80, time=240),
    Message('note_off', channel=9, note=38, velocity=80, time=0),
    Message('note_on', channel=9, note=44, velocity=95, time=0),
    Message('note_on', channel=9, note=35, velocity=95, time=0),
    Message('note_off', channel=9, note=44, velocity=80, time=240),
    Message('note_off', channel=9, note=35, velocity=80, time=0),
    Message('note_on', channel=9, note=44, velocity=95, time=0),
    Message('note_off', channel=9, note=44, velocity=80, time=240),
    Message('note_on', channel=9, note=44, velocity=95, time=0),
    Message('note_on', channel=9, note=38, velocity=95, time=0),
    Message('note_off', channel=9, note=44, velocity=80, time=240),
    Message('note_off', channel=9, note=38, velocity=80, time=0),
    Message('note_on', channel=9, note=44, velocity=95, time=0),
    Message('note_off', channel=9, note=44, velocity=80, time=240),
    Message('note_on', channel=9, note=44, velocity=95, time=0),
    Message('note_on', channel=9, note=35, velocity=95, time=0),
    Message('note_off', channel=9, note=44, velocity=80, time=240),
    Message('note_off', channel=9, note=35, velocity=80, time=0),
    Message('note_on', channel=9, note=44, velocity=95, time=0),
    Message('note_on', channel=9, note=35, velocity=95, time=0),
    Message('note_off', channel=9, note=44, velocity=80, time=240),
    Message('note_off', channel=9, note=35, velocity=80, time=0),
    Message('note_on', channel=9, note=44, velocity=95, time=0),
    Message('note_on', channel=9, note=38, velocity=95, time=0),
    Message('note_off', channel=9, note=44, velocity=80, time=240),
    Message('note_off', channel=9, note=38, velocity=80, time=0),
    Message('note_on', channel=9, note=44, velocity=95, time=0),
    Message('note_off', channel=9, note=44, velocity=80, time=240),
    Message('note_on', channel=9, note=44, velocity=95, time=0),
    Message('note_on', channel=9, note=35, velocity=95, time=0),
    Message('note_off', channel=9, note=44, velocity=80, time=240),
    Message('note_off', channel=9, note=35, velocity=80, time=0),
    Message('note_on', channel=9, note=44, velocity=95, time=0),
    Message('note_off', channel=9, note=44, velocity=80, time=240),
    Message('note_on', channel=9, note=44, velocity=95, time=0),
    Message('note_on', channel=9, note=38, velocity=95, time=0),
    Message('note_off', channel=9, note=44, velocity=80, time=240),
    Message('note_off', channel=9, note=38, velocity=80, time=0),
    Message('note_on', channel=9, note=44, velocity=95, time=0),
    Message('note_off', channel=9, note=44, velocity=80, time=240),
    Message('note_on', channel=9, note=44, velocity=95, time=0),
    Message('note_on', channel=9, note=35, velocity=95, time=0),
    Message('note_off', channel=9, note=44, velocity=80, time=240),
    Message('note_off', channel=9, note=35, velocity=80, time=0),
    Message('note_on', channel=9, note=44, velocity=95, time=0),
    Message('note_on', channel=9, note=35, velocity=95, time=0),
    Message('note_off', channel=9, note=44, velocity=80, time=240),
    Message('note_off', channel=9, note=35, velocity=80, time=0),
    Message('note_on', channel=9, note=44, velocity=95, time=0),
    Message('note_on', channel=9, note=38, velocity=95, time=0),
    Message('note_off', channel=9, note=44, velocity=80, time=240),
    Message('note_off', channel=9, note=38, velocity=80, time=0),
    Message('note_on', channel=9, note=44, velocity=95, time=0),
    Message('note_off', channel=9, note=44, velocity=80, time=240),
    Message('note_on', channel=9, note=44, velocity=95, time=0),
    Message('note_on', channel=9, note=35, velocity=95, time=0),
    Message('note_off', channel=9, note=44, velocity=80, time=240),
    Message('note_off', channel=9, note=35, velocity=80, time=0),
    Message('note_on', channel=9, note=44, velocity=95, time=0),
    Message('note_off', channel=9, note=44, velocity=80, time=240),
    Message('note_on', channel=9, note=44, velocity=95, time=0),
    Message('note_on', channel=9, note=38, velocity=95, time=0),
    Message('note_off', channel=9, note=44, velocity=80, time=240),
    Message('note_off', channel=9, note=38, velocity=80, time=0),
    Message('note_on', channel=9, note=44, velocity=95, time=0),
    Message('note_off', channel=9, note=44, velocity=80, time=240),
    Message('note_on', channel=9, note=44, velocity=95, time=0),
    Message('note_on', channel=9, note=35, velocity=95, time=0),
    Message('note_off', channel=9, note=44, velocity=80, time=240),
    Message('note_off', channel=9, note=35, velocity=80, time=0),
    Message('note_on', channel=9, note=44, velocity=95, time=0),
    Message('note_on', channel=9, note=35, velocity=95, time=0),
    Message('note_off', channel=9, note=44, velocity=80, time=240),
    Message('note_off', channel=9, note=35, velocity=80, time=0),
    Message('note_on', channel=9, note=44, velocity=95, time=0),
    Message('note_on', channel=9, note=38, velocity=95, time=0),
    Message('note_off', channel=9, note=44, velocity=80, time=240),
    Message('note_off', channel=9, note=38, velocity=80, time=0),
    Message('note_on', channel=9, note=44, velocity=95, time=0),
    Message('note_off', channel=9, note=44, velocity=80, time=240),
    Message('note_on', channel=9, note=44, velocity=95, time=0),
    Message('note_on', channel=9, note=35, velocity=95, time=0),
    Message('note_off', channel=9, note=44, velocity=80, time=240),
    Message('note_off', channel=9, note=35, velocity=80, time=0),
    Message('note_on', channel=9, note=44, velocity=95, time=0),
    Message('note_off', channel=9, note=44, velocity=80, time=240),
    Message('note_on', channel=9, note=44, velocity=95, time=0),
    Message('note_on', channel=9, note=38, velocity=95, time=0),
    Message('note_off', channel=9, note=44, velocity=80, time=240),
    Message('note_off', channel=9, note=38, velocity=80, time=0),
    Message('note_on', channel=9, note=44, velocity=95, time=0),
    Message('note_off', channel=9, note=44, velocity=80, time=240),
    Message('note_on', channel=9, note=44, velocity=95, time=0),
    Message('note_on', channel=9, note=35, velocity=95, time=0),
    Message('note_off', channel=9, note=44, velocity=80, time=240),
    Message('note_off', channel=9, note=35, velocity=80, time=0),
    Message('note_on', channel=9, note=44, velocity=95, time=0),
    Message('note_on', channel=9, note=35, velocity=95, time=0),
    Message('note_off', channel=9, note=44, velocity=80, time=240),
    Message('note_off', channel=9, note=35, velocity=80, time=0),
    Message('note_on', channel=9, note=44, velocity=95, time=0),
    Message('note_on', channel=9, note=38, velocity=95, time=0),
    Message('note_off', channel=9, note=44, velocity=80, time=240),
    Message('note_off', channel=9, note=38, velocity=80, time=0),
    Message('note_on', channel=9, note=44, velocity=95, time=0),
    Message('note_off', channel=9, note=44, velocity=80, time=240),
    Message('note_on', channel=9, note=44, velocity=95, time=0),
    Message('note_on', channel=9, note=35, velocity=95, time=0),
    Message('note_off', channel=9, note=44, velocity=80, time=240),
    Message('note_off', channel=9, note=35, velocity=80, time=0),
    Message('note_on', channel=9, note=44, velocity=95, time=0),
    Message('note_off', channel=9, note=44, velocity=80, time=240),
    Message('note_on', channel=9, note=44, velocity=95, time=0),
    Message('note_on', channel=9, note=38, velocity=95, time=0),
    Message('note_off', channel=9, note=44, velocity=80, time=240),
    Message('note_off', channel=9, note=38, velocity=80, time=0),
    Message('note_on', channel=9, note=44, velocity=95, time=0),
    Message('note_off', channel=9, note=44, velocity=80, time=240),
    Message('note_on', channel=9, note=44, velocity=95, time=0),
    Message('note_on', channel=9, note=35, velocity=95, time=0),
    Message('note_off', channel=9, note=44, velocity=80, time=240),
    Message('note_off', channel=9, note=35, velocity=80, time=0),
    Message('note_on', channel=9, note=44, velocity=95, time=0),
    Message('note_on', channel=9, note=35, velocity=95, time=0),
    Message('note_off', channel=9, note=44, velocity=80, time=240),
    Message('note_off', channel=9, note=35, velocity=80, time=0),
    Message('note_on', channel=9, note=44, velocity=95, time=0),
    Message('note_on', channel=9, note=38, velocity=95, time=0),
    Message('note_off', channel=9, note=44, velocity=80, time=240),
    Message('note_off', channel=9, note=38, velocity=80, time=0),
    Message('note_on', channel=9, note=44, velocity=95, time=0),
    Message('note_off', channel=9, note=44, velocity=80, time=240),
    Message('note_on', channel=9, note=44, velocity=95, time=0),
    Message('note_on', channel=9, note=35, velocity=95, time=0),
    Message('note_off', channel=9, note=44, velocity=80, time=240),
    Message('note_off', channel=9, note=35, velocity=80, time=0),
    Message('note_on', channel=9, note=44, velocity=95, time=0),
    Message('note_off', channel=9, note=44, velocity=80, time=240),
    Message('note_on', channel=9, note=44, velocity=95, time=0),
    Message('note_on', channel=9, note=38, velocity=95, time=0),
    Message('note_off', channel=9, note=44, velocity=80, time=240),
    Message('note_off', channel=9, note=38, velocity=80, time=0),
    Message('note_on', channel=9, note=44, velocity=95, time=0),
    Message('note_off', channel=9, note=44, velocity=80, time=240),
    Message('note_on', channel=9, note=44, velocity=95, time=0),
    Message('note_on', channel=9, note=35, velocity=95, time=0),
    Message('note_off', channel=9, note=44, velocity=80, time=240),
    Message('note_off', channel=9, note=35, velocity=80, time=0),
    Message('note_on', channel=9, note=44, velocity=95, time=0),
    Message('note_on', channel=9, note=35, velocity=95, time=0),
    Message('note_off', channel=9, note=44, velocity=80, time=240),
    Message('note_off', channel=9, note=35, velocity=80, time=0),
    Message('note_on', channel=9, note=44, velocity=95, time=0),
    Message('note_on', channel=9, note=38, velocity=95, time=0),
    Message('note_off', channel=9, note=44, velocity=80, time=240),
    Message('note_off', channel=9, note=38, velocity=80, time=0),
    Message('note_on', channel=9, note=44, velocity=95, time=0),
    Message('note_off', channel=9, note=44, velocity=80, time=240),
    Message('note_on', channel=9, note=44, velocity=95, time=0),
    Message('note_on', channel=9, note=35, velocity=95, time=0),
    Message('note_off', channel=9, note=44, velocity=80, time=240),
    Message('note_off', channel=9, note=35, velocity=80, time=0),
    Message('note_on', channel=9, note=44, velocity=95, time=0),
    Message('note_off', channel=9, note=44, velocity=80, time=240),
    Message('note_on', channel=9, note=44, velocity=95, time=0),
    Message('note_on', channel=9, note=38, velocity=95, time=0),
    Message('note_off', channel=9, note=44, velocity=80, time=240),
    Message('note_off', channel=9, note=38, velocity=80, time=0),
    Message('note_on', channel=9, note=44, velocity=95, time=0),
    Message('note_off', channel=9, note=44, velocity=80, time=240),
    Message('note_on', channel=9, note=44, velocity=95, time=0),
    Message('note_on', channel=9, note=35, velocity=95, time=0),
    Message('note_off', channel=9, note=44, velocity=80, time=240),
    Message('note_off', channel=9, note=35, velocity=80, time=0),
    Message('note_on', channel=9, note=44, velocity=95, time=0),
    Message('note_on', channel=9, note=35, velocity=95, time=0),
    Message('note_off', channel=9, note=44, velocity=80, time=240),
    Message('note_off', channel=9, note=35, velocity=80, time=0),
    Message('note_on', channel=9, note=44, velocity=95, time=0),
    Message('note_on', channel=9, note=38, velocity=95, time=0),
    Message('note_off', channel=9, note=44, velocity=80, time=240),
    Message('note_off', channel=9, note=38, velocity=80, time=0),
    Message('note_on', channel=9, note=44, velocity=95, time=0),
    Message('note_off', channel=9, note=44, velocity=80, time=240),
    Message('note_on', channel=9, note=44, velocity=95, time=0),
    Message('note_on', channel=9, note=35, velocity=95, time=0),
    Message('note_off', channel=9, note=44, velocity=80, time=240),
    Message('note_off', channel=9, note=35, velocity=80, time=0),
    Message('note_on', channel=9, note=44, velocity=95, time=0),
    Message('note_off', channel=9, note=44, velocity=80, time=240),
    Message('note_on', channel=9, note=44, velocity=95, time=0),
    Message('note_on', channel=9, note=38, velocity=95, time=0),
    Message('note_off', channel=9, note=44, velocity=80, time=240),
    Message('note_off', channel=9, note=38, velocity=80, time=0),
    Message('note_on', channel=9, note=44, velocity=95, time=0),
    Message('note_off', channel=9, note=44, velocity=80, time=240),
    Message('note_on', channel=9, note=44, velocity=95, time=0),
    Message('note_on', channel=9, note=35, velocity=95, time=0),
    Message('note_off', channel=9, note=44, velocity=80, time=240),
    Message('note_off', channel=9, note=35, velocity=80, time=0),
    Message('note_on', channel=9, note=44, velocity=95, time=0),
    Message('note_on', channel=9, note=35, velocity=95, time=0),
    Message('note_off', channel=9, note=44, velocity=80, time=240),
    Message('note_off', channel=9, note=35, velocity=80, time=0),
    Message('note_on', channel=9, note=44, velocity=95, time=0),
    Message('note_on', channel=9, note=38, velocity=95, time=0),
    Message('note_off', channel=9, note=44, velocity=80, time=240),
    Message('note_off', channel=9, note=38, velocity=80, time=0),
    Message('note_on', channel=9, note=44, velocity=95, time=0),
    Message('note_off', channel=9, note=44, velocity=80, time=240),
    Message('note_on', channel=9, note=44, velocity=95, time=0),
    Message('note_on', channel=9, note=35, velocity=95, time=0),
    Message('note_off', channel=9, note=44, velocity=80, time=240),
    Message('note_off', channel=9, note=35, velocity=80, time=0),
    Message('note_on', channel=9, note=44, velocity=95, time=0),
    Message('note_off', channel=9, note=44, velocity=80, time=240),
    Message('note_on', channel=9, note=44, velocity=95, time=0),
    Message('note_on', channel=9, note=38, velocity=95, time=0),
    Message('note_off', channel=9, note=44, velocity=80, time=240),
    Message('note_off', channel=9, note=38, velocity=80, time=0),
    Message('note_on', channel=9, note=44, velocity=95, time=0),
    Message('note_off', channel=9, note=44, velocity=80, time=240),
    Message('note_on', channel=9, note=44, velocity=95, time=0),
    Message('note_on', channel=9, note=35, velocity=95, time=0),
    Message('note_off', channel=9, note=44, velocity=80, time=240),
    Message('note_off', channel=9, note=35, velocity=80, time=0),
    Message('note_on', channel=9, note=44, velocity=95, time=0),
    Message('note_on', channel=9, note=35, velocity=95, time=0),
    Message('note_off', channel=9, note=44, velocity=80, time=240),
    Message('note_off', channel=9, note=35, velocity=80, time=0),
    Message('note_on', channel=9, note=44, velocity=95, time=0),
    Message('note_on', channel=9, note=38, velocity=95, time=0),
    Message('note_off', channel=9, note=44, velocity=80, time=240),
    Message('note_off', channel=9, note=38, velocity=80, time=0),
    Message('note_on', channel=9, note=44, velocity=95, time=0),
    Message('note_off', channel=9, note=44, velocity=80, time=240),
    Message('note_on', channel=9, note=44, velocity=95, time=0),
    Message('note_on', channel=9, note=35, velocity=95, time=0),
    Message('note_off', channel=9, note=44, velocity=80, time=240),
    Message('note_off', channel=9, note=35, velocity=80, time=0),
    Message('note_on', channel=9, note=44, velocity=95, time=0),
    Message('note_off', channel=9, note=44, velocity=80, time=240),
    Message('note_on', channel=9, note=44, velocity=95, time=0),
    Message('note_on', channel=9, note=38, velocity=95, time=0),
    Message('note_off', channel=9, note=44, velocity=80, time=240),
    Message('note_off', channel=9, note=38, velocity=80, time=0),
    Message('note_on', channel=9, note=44, velocity=95, time=0),
    Message('note_off', channel=9, note=44, velocity=80, time=240),
    Message('note_on', channel=9, note=44, velocity=95, time=0),
    Message('note_on', channel=9, note=35, velocity=95, time=0),
    Message('note_off', channel=9, note=44, velocity=80, time=240),
    Message('note_off', channel=9, note=35, velocity=80, time=0),
    Message('note_on', channel=9, note=44, velocity=95, time=0),
    Message('note_on', channel=9, note=35, velocity=95, time=0),
    Message('note_off', channel=9, note=44, velocity=80, time=240),
    Message('note_off', channel=9, note=35, velocity=80, time=0),
    Message('note_on', channel=9, note=44, velocity=95, time=0),
    Message('note_on', channel=9, note=38, velocity=95, time=0),
    Message('note_off', channel=9, note=44, velocity=80, time=240),
    Message('note_off', channel=9, note=38, velocity=80, time=0),
    Message('note_on', channel=9, note=44, velocity=95, time=0),
    Message('note_off', channel=9, note=44, velocity=80, time=240),
    Message('note_on', channel=9, note=44, velocity=95, time=0),
    Message('note_on', channel=9, note=35, velocity=95, time=0),
    Message('note_off', channel=9, note=44, velocity=80, time=240),
    Message('note_off', channel=9, note=35, velocity=80, time=0),
    Message('note_on', channel=9, note=44, velocity=95, time=0),
    Message('note_off', channel=9, note=44, velocity=80, time=240),
    Message('note_on', channel=9, note=44, velocity=95, time=0),
    Message('note_on', channel=9, note=38, velocity=95, time=0),
    Message('note_off', channel=9, note=44, velocity=80, time=240),
    Message('note_off', channel=9, note=38, velocity=80, time=0),
    Message('note_on', channel=9, note=44, velocity=95, time=0),
    Message('note_off', channel=9, note=44, velocity=80, time=240),
    Message('note_on', channel=9, note=44, velocity=95, time=0),
    Message('note_on', channel=9, note=35, velocity=95, time=0),
    Message('note_off', channel=9, note=44, velocity=80, time=240),
    Message('note_off', channel=9, note=35, velocity=80, time=0),
    Message('note_on', channel=9, note=44, velocity=95, time=0),
    Message('note_on', channel=9, note=35, velocity=95, time=0),
    Message('note_off', channel=9, note=44, velocity=80, time=240),
    Message('note_off', channel=9, note=35, velocity=80, time=0),
    Message('note_on', channel=9, note=44, velocity=95, time=0),
    Message('note_on', channel=9, note=38, velocity=95, time=0),
    Message('note_off', channel=9, note=44, velocity=80, time=240),
    Message('note_off', channel=9, note=38, velocity=80, time=0),
    Message('note_on', channel=9, note=44, velocity=95, time=0),
    Message('note_off', channel=9, note=44, velocity=80, time=240),
    Message('note_on', channel=9, note=49, velocity=95, time=0),
    Message('note_on', channel=9, note=35, velocity=95, time=0),
    Message('note_off', channel=9, note=49, velocity=80, time=240),
    Message('note_off', channel=9, note=35, velocity=80, time=0),
    Message('note_on', channel=9, note=38, velocity=95, time=0),
    Message('note_off', channel=9, note=38, velocity=80, time=240),
    Message('note_on', channel=9, note=38, velocity=95, time=0),
    Message('note_off', channel=9, note=38, velocity=80, time=240),
    Message('note_on', channel=9, note=38, velocity=95, time=0),
    Message('note_off', channel=9, note=38, velocity=80, time=240),
    Message('note_on', channel=9, note=38, velocity=95, time=0),
    Message('note_off', channel=9, note=38, velocity=80, time=240),
    Message('note_on', channel=9, note=38, velocity=95, time=0),
    Message('note_off', channel=9, note=38, velocity=80, time=240),
    Message('note_on', channel=9, note=38, velocity=95, time=0),
    Message('note_off', channel=9, note=38, velocity=80, time=240),
    Message('note_on', channel=9, note=38, velocity=95, time=0),
    Message('note_off', channel=9, note=38, velocity=80, time=240),
    Message('note_on', channel=9, note=49, velocity=95, time=0),
    Message('note_on', channel=9, note=35, velocity=95, time=0),
    Message('note_off', channel=9, note=49, velocity=80, time=240),
    Message('note_off', channel=9, note=35, velocity=80, time=0),
    Message('note_on', channel=9, note=44, velocity=95, time=0),
    Message('note_off', channel=9, note=44, velocity=80, time=240),
    Message('note_on', channel=9, note=44, velocity=95, time=0),
    Message('note_on', channel=9, note=38, velocity=95, time=0),
    Message('note_off', channel=9, note=44, velocity=80, time=240),
    Message('note_off', channel=9, note=38, velocity=80, time=0),
    Message('note_on', channel=9, note=44, velocity=95, time=0),
    Message('note_off', channel=9, note=44, velocity=80, time=240),
    Message('note_on', channel=9, note=44, velocity=95, time=0),
    Message('note_on', channel=9, note=35, velocity=95, time=0),
    Message('note_off', channel=9, note=44, velocity=80, time=240),
    Message('note_off', channel=9, note=35, velocity=80, time=0),
    Message('note_on', channel=9, note=44, velocity=95, time=0),
    Message('note_on', channel=9, note=35, velocity=95, time=0),
    Message('note_off', channel=9, note=44, velocity=80, time=240),
    Message('note_off', channel=9, note=35, velocity=80, time=0),
    Message('note_on', channel=9, note=44, velocity=95, time=0),
    Message('note_on', channel=9, note=38, velocity=95, time=0),
    Message('note_off', channel=9, note=44, velocity=80, time=240),
    Message('note_off', channel=9, note=38, velocity=80, time=0),
    Message('note_on', channel=9, note=44, velocity=95, time=0),
    Message('note_off', channel=9, note=44, velocity=80, time=240),
    Message('note_on', channel=9, note=44, velocity=95, time=0),
    Message('note_on', channel=9, note=35, velocity=95, time=0),
    Message('note_off', channel=9, note=44, velocity=80, time=240),
    Message('note_off', channel=9, note=35, velocity=80, time=0),
    Message('note_on', channel=9, note=44, velocity=95, time=0),
    Message('note_off', channel=9, note=44, velocity=80, time=240),
    Message('note_on', channel=9, note=44, velocity=95, time=0),
    Message('note_on', channel=9, note=38, velocity=95, time=0),
    Message('note_off', channel=9, note=44, velocity=80, time=240),
    Message('note_off', channel=9, note=38, velocity=80, time=0),
    Message('note_on', channel=9, note=44, velocity=95, time=0),
    Message('note_off', channel=9, note=44, velocity=80, time=240),
    Message('note_on', channel=9, note=44, velocity=95, time=0),
    Message('note_on', channel=9, note=35, velocity=95, time=0),
    Message('note_off', channel=9, note=44, velocity=80, time=240),
    Message('note_off', channel=9, note=35, velocity=80, time=0),
    Message('note_on', channel=9, note=44, velocity=95, time=0),
    Message('note_on', channel=9, note=35, velocity=95, time=0),
    Message('note_off', channel=9, note=44, velocity=80, time=240),
    Message('note_off', channel=9, note=35, velocity=80, time=0),
    Message('note_on', channel=9, note=44, velocity=95, time=0),
    Message('note_on', channel=9, note=38, velocity=95, time=0),
    Message('note_off', channel=9, note=44, velocity=80, time=240),
    Message('note_off', channel=9, note=38, velocity=80, time=0),
    Message('note_on', channel=9, note=44, velocity=95, time=0),
    Message('note_off', channel=9, note=44, velocity=80, time=240),
    Message('note_on', channel=9, note=44, velocity=95, time=0),
    Message('note_on', channel=9, note=35, velocity=95, time=0),
    Message('note_off', channel=9, note=44, velocity=80, time=240),
    Message('note_off', channel=9, note=35, velocity=80, time=0),
    Message('note_on', channel=9, note=44, velocity=95, time=0),
    Message('note_off', channel=9, note=44, velocity=80, time=240),
    Message('note_on', channel=9, note=44, velocity=95, time=0),
    Message('note_on', channel=9, note=38, velocity=95, time=0),
    Message('note_off', channel=9, note=44, velocity=80, time=240),
    Message('note_off', channel=9, note=38, velocity=80, time=0),
    Message('note_on', channel=9, note=44, velocity=95, time=0),
    Message('note_off', channel=9, note=44, velocity=80, time=240),
    Message('note_on', channel=9, note=44, velocity=95, time=0),
    Message('note_on', channel=9, note=35, velocity=95, time=0),
    Message('note_off', channel=9, note=44, velocity=80, time=240),
    Message('note_off', channel=9, note=35, velocity=80, time=0),
    Message('note_on', channel=9, note=44, velocity=95, time=0),
    Message('note_on', channel=9, note=35, velocity=95, time=0),
    Message('note_off', channel=9, note=44, velocity=80, time=240),
    Message('note_off', channel=9, note=35, velocity=80, time=0),
    Message('note_on', channel=9, note=44, velocity=95, time=0),
    Message('note_on', channel=9, note=38, velocity=95, time=0),
    Message('note_off', channel=9, note=44, velocity=80, time=240),
    Message('note_off', channel=9, note=38, velocity=80, time=0),
    Message('note_on', channel=9, note=44, velocity=95, time=0),
    Message('note_off', channel=9, note=44, velocity=80, time=240),
    Message('note_on', channel=9, note=49, velocity=95, time=0),
    Message('note_on', channel=9, note=35, velocity=95, time=0),
    Message('note_off', channel=9, note=49, velocity=80, time=480),
    Message('note_off', channel=9, note=35, velocity=80, time=0),
    Message('note_on', channel=9, note=41, velocity=95, time=960),
    Message('note_on', channel=9, note=38, velocity=95, time=0),
    Message('note_off', channel=9, note=41, velocity=80, time=240),
    Message('note_off', channel=9, note=38, velocity=80, time=0),
    Message('note_on', channel=9, note=41, velocity=95, time=0),
    Message('note_on', channel=9, note=38, velocity=95, time=0),
    Message('note_off', channel=9, note=41, velocity=80, time=240),
    Message('note_off', channel=9, note=38, velocity=80, time=0),
    Message('note_on', channel=9, note=44, velocity=95, time=0),
    Message('note_on', channel=9, note=35, velocity=95, time=0),
    Message('note_off', channel=9, note=44, velocity=80, time=240),
    Message('note_off', channel=9, note=35, velocity=80, time=0),
    Message('note_on', channel=9, note=44, velocity=95, time=0),
    Message('note_off', channel=9, note=44, velocity=80, time=240),
    Message('note_on', channel=9, note=44, velocity=95, time=0),
    Message('note_on', channel=9, note=38, velocity=95, time=0),
    Message('note_off', channel=9, note=44, velocity=80, time=240),
    Message('note_off', channel=9, note=38, velocity=80, time=0),
    Message('note_on', channel=9, note=44, velocity=95, time=0),
    Message('note_off', channel=9, note=44, velocity=80, time=240),
    Message('note_on', channel=9, note=44, velocity=95, time=0),
    Message('note_on', channel=9, note=35, velocity=95, time=0),
    Message('note_off', channel=9, note=44, velocity=80, time=240),
    Message('note_off', channel=9, note=35, velocity=80, time=0),
    Message('note_on', channel=9, note=44, velocity=95, time=0),
    Message('note_on', channel=9, note=35, velocity=95, time=0),
    Message('note_off', channel=9, note=44, velocity=80, time=240),
    Message('note_off', channel=9, note=35, velocity=80, time=0),
    Message('note_on', channel=9, note=44, velocity=95, time=0),
    Message('note_on', channel=9, note=38, velocity=95, time=0),
    Message('note_off', channel=9, note=44, velocity=80, time=240),
    Message('note_off', channel=9, note=38, velocity=80, time=0),
    Message('note_on', channel=9, note=44, velocity=95, time=0),
    Message('note_off', channel=9, note=44, velocity=80, time=240),
    Message('note_on', channel=9, note=44, velocity=95, time=0),
    Message('note_on', channel=9, note=35, velocity=95, time=0),
    Message('note_off', channel=9, note=44, velocity=80, time=240),
    Message('note_off', channel=9, note=35, velocity=80, time=0),
    Message('note_on', channel=9, note=44, velocity=95, time=0),
    Message('note_off', channel=9, note=44, velocity=80, time=240),
    Message('note_on', channel=9, note=44, velocity=95, time=0),
    Message('note_on', channel=9, note=38, velocity=95, time=0),
    Message('note_off', channel=9, note=44, velocity=80, time=240),
    Message('note_off', channel=9, note=38, velocity=80, time=0),
    Message('note_on', channel=9, note=44, velocity=95, time=0),
    Message('note_off', channel=9, note=44, velocity=80, time=240),
    Message('note_on', channel=9, note=44, velocity=95, time=0),
    Message('note_on', channel=9, note=35, velocity=95, time=0),
    Message('note_off', channel=9, note=44, velocity=80, time=240),
    Message('note_off', channel=9, note=35, velocity=80, time=0),
    Message('note_on', channel=9, note=44, velocity=95, time=0),
    Message('note_on', channel=9, note=35, velocity=95, time=0),
    Message('note_off', channel=9, note=44, velocity=80, time=240),
    Message('note_off', channel=9, note=35, velocity=80, time=0),
    Message('note_on', channel=9, note=44, velocity=95, time=0),
    Message('note_on', channel=9, note=38, velocity=95, time=0),
    Message('note_off', channel=9, note=44, velocity=80, time=240),
    Message('note_off', channel=9, note=38, velocity=80, time=0),
    Message('note_on', channel=9, note=44, velocity=95, time=0),
    Message('note_off', channel=9, note=44, velocity=80, time=240),
    Message('note_on', channel=9, note=44, velocity=95, time=0),
    Message('note_on', channel=9, note=35, velocity=95, time=0),
    Message('note_off', channel=9, note=44, velocity=80, time=240),
    Message('note_off', channel=9, note=35, velocity=80, time=0),
    Message('note_on', channel=9, note=44, velocity=95, time=0),
    Message('note_off', channel=9, note=44, velocity=80, time=240),
    Message('note_on', channel=9, note=44, velocity=95, time=0),
    Message('note_on', channel=9, note=38, velocity=95, time=0),
    Message('note_off', channel=9, note=44, velocity=80, time=240),
    Message('note_off', channel=9, note=38, velocity=80, time=0),
    Message('note_on', channel=9, note=44, velocity=95, time=0),
    Message('note_off', channel=9, note=44, velocity=80, time=240),
    Message('note_on', channel=9, note=44, velocity=95, time=0),
    Message('note_on', channel=9, note=35, velocity=95, time=0),
    Message('note_off', channel=9, note=44, velocity=80, time=240),
    Message('note_off', channel=9, note=35, velocity=80, time=0),
    Message('note_on', channel=9, note=44, velocity=95, time=0),
    Message('note_on', channel=9, note=35, velocity=95, time=0),
    Message('note_off', channel=9, note=44, velocity=80, time=240),
    Message('note_off', channel=9, note=35, velocity=80, time=0),
    Message('note_on', channel=9, note=44, velocity=95, time=0),
    Message('note_on', channel=9, note=38, velocity=95, time=0),
    Message('note_off', channel=9, note=44, velocity=80, time=240),
    Message('note_off', channel=9, note=38, velocity=80, time=0),
    Message('note_on', channel=9, note=44, velocity=95, time=0),
    Message('note_off', channel=9, note=44, velocity=80, time=240),
    Message('note_on', channel=9, note=44, velocity=95, time=0),
    Message('note_on', channel=9, note=35, velocity=95, time=0),
    Message('note_off', channel=9, note=44, velocity=80, time=240),
    Message('note_off', channel=9, note=35, velocity=80, time=0),
    Message('note_on', channel=9, note=44, velocity=95, time=0),
    Message('note_off', channel=9, note=44, velocity=80, time=240),
    Message('note_on', channel=9, note=44, velocity=95, time=0),
    Message('note_on', channel=9, note=38, velocity=95, time=0),
    Message('note_off', channel=9, note=44, velocity=80, time=240),
    Message('note_off', channel=9, note=38, velocity=80, time=0),
    Message('note_on', channel=9, note=44, velocity=95, time=0),
    Message('note_off', channel=9, note=44, velocity=80, time=240),
    Message('note_on', channel=9, note=44, velocity=95, time=0),
    Message('note_on', channel=9, note=35, velocity=95, time=0),
    Message('note_off', channel=9, note=44, velocity=80, time=240),
    Message('note_off', channel=9, note=35, velocity=80, time=0),
    Message('note_on', channel=9, note=44, velocity=95, time=0),
    Message('note_on', channel=9, note=35, velocity=95, time=0),
    Message('note_off', channel=9, note=44, velocity=80, time=240),
    Message('note_off', channel=9, note=35, velocity=80, time=0),
    Message('note_on', channel=9, note=44, velocity=95, time=0),
    Message('note_on', channel=9, note=38, velocity=95, time=0),
    Message('note_off', channel=9, note=44, velocity=80, time=240),
    Message('note_off', channel=9, note=38, velocity=80, time=0),
    Message('note_on', channel=9, note=44, velocity=95, time=0),
    Message('note_off', channel=9, note=44, velocity=80, time=240),
    Message('note_on', channel=9, note=44, velocity=95, time=0),
    Message('note_on', channel=9, note=35, velocity=95, time=0),
    Message('note_off', channel=9, note=44, velocity=80, time=240),
    Message('note_off', channel=9, note=35, velocity=80, time=0),
    Message('note_on', channel=9, note=44, velocity=95, time=0),
    Message('note_off', channel=9, note=44, velocity=80, time=240),
    Message('note_on', channel=9, note=44, velocity=95, time=0),
    Message('note_on', channel=9, note=38, velocity=95, time=0),
    Message('note_off', channel=9, note=44, velocity=80, time=240),
    Message('note_off', channel=9, note=38, velocity=80, time=0),
    Message('note_on', channel=9, note=44, velocity=95, time=0),
    Message('note_off', channel=9, note=44, velocity=80, time=240),
    Message('note_on', channel=9, note=44, velocity=95, time=0),
    Message('note_on', channel=9, note=35, velocity=95, time=0),
    Message('note_off', channel=9, note=44, velocity=80, time=240),
    Message('note_off', channel=9, note=35, velocity=80, time=0),
    Message('note_on', channel=9, note=44, velocity=95, time=0),
    Message('note_on', channel=9, note=35, velocity=95, time=0),
    Message('note_off', channel=9, note=44, velocity=80, time=240),
    Message('note_off', channel=9, note=35, velocity=80, time=0),
    Message('note_on', channel=9, note=44, velocity=95, time=0),
    Message('note_on', channel=9, note=38, velocity=95, time=0),
    Message('note_off', channel=9, note=44, velocity=80, time=240),
    Message('note_off', channel=9, note=38, velocity=80, time=0),
    Message('note_on', channel=9, note=44, velocity=95, time=0),
    Message('note_off', channel=9, note=44, velocity=80, time=240),
    Message('note_on', channel=9, note=44, velocity=95, time=0),
    Message('note_on', channel=9, note=35, velocity=95, time=0),
    Message('note_off', channel=9, note=44, velocity=80, time=240),
    Message('note_off', channel=9, note=35, velocity=80, time=0),
    Message('note_on', channel=9, note=44, velocity=95, time=0),
    Message('note_off', channel=9, note=44, velocity=80, time=240),
    Message('note_on', channel=9, note=44, velocity=95, time=0),
    Message('note_on', channel=9, note=38, velocity=95, time=0),
    Message('note_off', channel=9, note=44, velocity=80, time=240),
    Message('note_off', channel=9, note=38, velocity=80, time=0),
    Message('note_on', channel=9, note=44, velocity=95, time=0),
    Message('note_off', channel=9, note=44, velocity=80, time=240),
    Message('note_on', channel=9, note=44, velocity=95, time=0),
    Message('note_on', channel=9, note=35, velocity=95, time=0),
    Message('note_off', channel=9, note=44, velocity=80, time=240),
    Message('note_off', channel=9, note=35, velocity=80, time=0),
    Message('note_on', channel=9, note=44, velocity=95, time=0),
    Message('note_on', channel=9, note=35, velocity=95, time=0),
    Message('note_off', channel=9, note=44, velocity=80, time=240),
    Message('note_off', channel=9, note=35, velocity=80, time=0),
    Message('note_on', channel=9, note=44, velocity=95, time=0),
    Message('note_on', channel=9, note=38, velocity=95, time=0),
    Message('note_off', channel=9, note=44, velocity=80, time=240),
    Message('note_off', channel=9, note=38, velocity=80, time=0),
    Message('note_on', channel=9, note=44, velocity=95, time=0),
    Message('note_off', channel=9, note=44, velocity=80, time=240),
    Message('note_on', channel=9, note=44, velocity=95, time=0),
    Message('note_on', channel=9, note=35, velocity=95, time=0),
    Message('note_off', channel=9, note=44, velocity=80, time=240),
    Message('note_off', channel=9, note=35, velocity=80, time=0),
    Message('note_on', channel=9, note=44, velocity=95, time=0),
    Message('note_off', channel=9, note=44, velocity=80, time=240),
    Message('note_on', channel=9, note=44, velocity=95, time=0),
    Message('note_on', channel=9, note=38, velocity=95, time=0),
    Message('note_off', channel=9, note=44, velocity=80, time=240),
    Message('note_off', channel=9, note=38, velocity=80, time=0),
    Message('note_on', channel=9, note=44, velocity=95, time=0),
    Message('note_off', channel=9, note=44, velocity=80, time=240),
    Message('note_on', channel=9, note=44, velocity=95, time=0),
    Message('note_on', channel=9, note=35, velocity=95, time=0),
    Message('note_off', channel=9, note=44, velocity=80, time=240),
    Message('note_off', channel=9, note=35, velocity=80, time=0),
    Message('note_on', channel=9, note=44, velocity=95, time=0),
    Message('note_on', channel=9, note=35, velocity=95, time=0),
    Message('note_off', channel=9, note=44, velocity=80, time=240),
    Message('note_off', channel=9, note=35, velocity=80, time=0),
    Message('note_on', channel=9, note=44, velocity=95, time=0),
    Message('note_on', channel=9, note=38, velocity=95, time=0),
    Message('note_off', channel=9, note=44, velocity=80, time=240),
    Message('note_off', channel=9, note=38, velocity=80, time=0),
    Message('note_on', channel=9, note=44, velocity=95, time=0),
    Message('note_off', channel=9, note=44, velocity=80, time=240),
    Message('note_on', channel=9, note=44, velocity=95, time=0),
    Message('note_on', channel=9, note=35, velocity=95, time=0),
    Message('note_off', channel=9, note=44, velocity=80, time=240),
    Message('note_off', channel=9, note=35, velocity=80, time=0),
    Message('note_on', channel=9, note=44, velocity=95, time=0),
    Message('note_off', channel=9, note=44, velocity=80, time=240),
    Message('note_on', channel=9, note=44, velocity=95, time=0),
    Message('note_on', channel=9, note=38, velocity=95, time=0),
    Message('note_off', channel=9, note=44, velocity=80, time=240),
    Message('note_off', channel=9, note=38, velocity=80, time=0),
    Message('note_on', channel=9, note=44, velocity=95, time=0),
    Message('note_off', channel=9, note=44, velocity=80, time=240),
    Message('note_on', channel=9, note=44, velocity=95, time=0),
    Message('note_on', channel=9, note=35, velocity=95, time=0),
    Message('note_off', channel=9, note=44, velocity=80, time=240),
    Message('note_off', channel=9, note=35, velocity=80, time=0),
    Message('note_on', channel=9, note=44, velocity=95, time=0),
    Message('note_on', channel=9, note=35, velocity=95, time=0),
    Message('note_off', channel=9, note=44, velocity=80, time=240),
    Message('note_off', channel=9, note=35, velocity=80, time=0),
    Message('note_on', channel=9, note=44, velocity=95, time=0),
    Message('note_on', channel=9, note=38, velocity=95, time=0),
    Message('note_off', channel=9, note=44, velocity=80, time=240),
    Message('note_off', channel=9, note=38, velocity=80, time=0),
    Message('note_on', channel=9, note=44, velocity=95, time=0),
    Message('note_off', channel=9, note=44, velocity=80, time=240),
    Message('note_on', channel=9, note=44, velocity=95, time=0),
    Message('note_on', channel=9, note=35, velocity=95, time=0),
    Message('note_off', channel=9, note=44, velocity=80, time=240),
    Message('note_off', channel=9, note=35, velocity=80, time=0),
    Message('note_on', channel=9, note=44, velocity=95, time=0),
    Message('note_off', channel=9, note=44, velocity=80, time=240),
    Message('note_on', channel=9, note=44, velocity=95, time=0),
    Message('note_on', channel=9, note=38, velocity=95, time=0),
    Message('note_off', channel=9, note=44, velocity=80, time=240),
    Message('note_off', channel=9, note=38, velocity=80, time=0),
    Message('note_on', channel=9, note=44, velocity=95, time=0),
    Message('note_off', channel=9, note=44, velocity=80, time=240),
    Message('note_on', channel=9, note=44, velocity=95, time=0),
    Message('note_on', channel=9, note=35, velocity=95, time=0),
    Message('note_off', channel=9, note=44, velocity=80, time=240),
    Message('note_off', channel=9, note=35, velocity=80, time=0),
    Message('note_on', channel=9, note=44, velocity=95, time=0),
    Message('note_on', channel=9, note=35, velocity=95, time=0),
    Message('note_off', channel=9, note=44, velocity=80, time=240),
    Message('note_off', channel=9, note=35, velocity=80, time=0),
    Message('note_on', channel=9, note=44, velocity=95, time=0),
    Message('note_on', channel=9, note=38, velocity=95, time=0),
    Message('note_off', channel=9, note=44, velocity=80, time=240),
    Message('note_off', channel=9, note=38, velocity=80, time=0),
    Message('note_on', channel=9, note=44, velocity=95, time=0),
    Message('note_off', channel=9, note=44, velocity=80, time=240),
    Message('note_on', channel=9, note=44, velocity=95, time=0),
    Message('note_on', channel=9, note=35, velocity=95, time=0),
    Message('note_off', channel=9, note=44, velocity=80, time=240),
    Message('note_off', channel=9, note=35, velocity=80, time=0),
    Message('note_on', channel=9, note=44, velocity=95, time=0),
    Message('note_off', channel=9, note=44, velocity=80, time=240),
    Message('note_on', channel=9, note=44, velocity=95, time=0),
    Message('note_on', channel=9, note=38, velocity=95, time=0),
    Message('note_off', channel=9, note=44, velocity=80, time=240),
    Message('note_off', channel=9, note=38, velocity=80, time=0),
    Message('note_on', channel=9, note=44, velocity=95, time=0),
    Message('note_off', channel=9, note=44, velocity=80, time=240),
    Message('note_on', channel=9, note=44, velocity=95, time=0),
    Message('note_on', channel=9, note=35, velocity=95, time=0),
    Message('note_off', channel=9, note=44, velocity=80, time=240),
    Message('note_off', channel=9, note=35, velocity=80, time=0),
    Message('note_on', channel=9, note=44, velocity=95, time=0),
    Message('note_on', channel=9, note=35, velocity=95, time=0),
    Message('note_off', channel=9, note=44, velocity=80, time=240),
    Message('note_off', channel=9, note=35, velocity=80, time=0),
    Message('note_on', channel=9, note=44, velocity=95, time=0),
    Message('note_on', channel=9, note=38, velocity=95, time=0),
    Message('note_off', channel=9, note=44, velocity=80, time=240),
    Message('note_off', channel=9, note=38, velocity=80, time=0),
    Message('note_on', channel=9, note=44, velocity=95, time=0),
    Message('note_off', channel=9, note=44, velocity=80, time=240),
    Message('note_on', channel=9, note=44, velocity=95, time=0),
    Message('note_on', channel=9, note=35, velocity=95, time=0),
    Message('note_off', channel=9, note=44, velocity=80, time=240),
    Message('note_off', channel=9, note=35, velocity=80, time=0),
    Message('note_on', channel=9, note=44, velocity=95, time=0),
    Message('note_off', channel=9, note=44, velocity=80, time=240),
    Message('note_on', channel=9, note=44, velocity=95, time=0),
    Message('note_on', channel=9, note=38, velocity=95, time=0),
    Message('note_off', channel=9, note=44, velocity=80, time=240),
    Message('note_off', channel=9, note=38, velocity=80, time=0),
    Message('note_on', channel=9, note=44, velocity=95, time=0),
    Message('note_off', channel=9, note=44, velocity=80, time=240),
    Message('note_on', channel=9, note=44, velocity=95, time=0),
    Message('note_on', channel=9, note=35, velocity=95, time=0),
    Message('note_off', channel=9, note=44, velocity=80, time=240),
    Message('note_off', channel=9, note=35, velocity=80, time=0),
    Message('note_on', channel=9, note=44, velocity=95, time=0),
    Message('note_on', channel=9, note=35, velocity=95, time=0),
    Message('note_off', channel=9, note=44, velocity=80, time=240),
    Message('note_off', channel=9, note=35, velocity=80, time=0),
    Message('note_on', channel=9, note=44, velocity=95, time=0),
    Message('note_on', channel=9, note=38, velocity=95, time=0),
    Message('note_off', channel=9, note=44, velocity=80, time=240),
    Message('note_off', channel=9, note=38, velocity=80, time=0),
    Message('note_on', channel=9, note=44, velocity=95, time=0),
    Message('note_off', channel=9, note=44, velocity=80, time=240),
    Message('note_on', channel=9, note=49, velocity=95, time=0),
    Message('note_on', channel=9, note=35, velocity=95, time=0),
    Message('note_off', channel=9, note=49, velocity=80, time=240),
    Message('note_off', channel=9, note=35, velocity=80, time=0),
    Message('note_on', channel=9, note=38, velocity=95, time=0),
    Message('note_off', channel=9, note=38, velocity=80, time=240),
    Message('note_on', channel=9, note=38, velocity=95, time=0),
    Message('note_off', channel=9, note=38, velocity=80, time=240),
    Message('note_on', channel=9, note=38, velocity=95, time=0),
    Message('note_off', channel=9, note=38, velocity=80, time=240),
    Message('note_on', channel=9, note=38, velocity=95, time=0),
    Message('note_off', channel=9, note=38, velocity=80, time=240),
    Message('note_on', channel=9, note=38, velocity=95, time=0),
    Message('note_off', channel=9, note=38, velocity=80, time=240),
    Message('note_on', channel=9, note=38, velocity=95, time=0),
    Message('note_off', channel=9, note=38, velocity=80, time=240),
    Message('note_on', channel=9, note=38, velocity=95, time=0),
    Message('note_off', channel=9, note=38, velocity=80, time=240),
    Message('note_on', channel=9, note=49, velocity=95, time=0),
    Message('note_on', channel=9, note=35, velocity=95, time=0),
    Message('note_off', channel=9, note=49, velocity=80, time=240),
    Message('note_off', channel=9, note=35, velocity=80, time=0),
    Message('note_on', channel=9, note=44, velocity=95, time=0),
    Message('note_off', channel=9, note=44, velocity=80, time=240),
    Message('note_on', channel=9, note=44, velocity=95, time=0),
    Message('note_on', channel=9, note=38, velocity=95, time=0),
    Message('note_off', channel=9, note=44, velocity=80, time=240),
    Message('note_off', channel=9, note=38, velocity=80, time=0),
    Message('note_on', channel=9, note=44, velocity=95, time=0),
    Message('note_off', channel=9, note=44, velocity=80, time=240),
    Message('note_on', channel=9, note=44, velocity=95, time=0),
    Message('note_on', channel=9, note=35, velocity=95, time=0),
    Message('note_off', channel=9, note=44, velocity=80, time=240),
    Message('note_off', channel=9, note=35, velocity=80, time=0),
    Message('note_on', channel=9, note=44, velocity=95, time=0),
    Message('note_on', channel=9, note=35, velocity=95, time=0),
    Message('note_off', channel=9, note=44, velocity=80, time=240),
    Message('note_off', channel=9, note=35, velocity=80, time=0),
    Message('note_on', channel=9, note=44, velocity=95, time=0),
    Message('note_on', channel=9, note=38, velocity=95, time=0),
    Message('note_off', channel=9, note=44, velocity=80, time=240),
    Message('note_off', channel=9, note=38, velocity=80, time=0),
    Message('note_on', channel=9, note=44, velocity=95, time=0),
    Message('note_off', channel=9, note=44, velocity=80, time=240),
    Message('note_on', channel=9, note=44, velocity=95, time=0),
    Message('note_on', channel=9, note=35, velocity=95, time=0),
    Message('note_off', channel=9, note=44, velocity=80, time=240),
    Message('note_off', channel=9, note=35, velocity=80, time=0),
    Message('note_on', channel=9, note=44, velocity=95, time=0),
    Message('note_off', channel=9, note=44, velocity=80, time=240),
    Message('note_on', channel=9, note=44, velocity=95, time=0),
    Message('note_on', channel=9, note=38, velocity=95, time=0),
    Message('note_off', channel=9, note=44, velocity=80, time=240),
    Message('note_off', channel=9, note=38, velocity=80, time=0),
    Message('note_on', channel=9, note=44, velocity=95, time=0),
    Message('note_off', channel=9, note=44, velocity=80, time=240),
    Message('note_on', channel=9, note=44, velocity=95, time=0),
    Message('note_on', channel=9, note=35, velocity=95, time=0),
    Message('note_off', channel=9, note=44, velocity=80, time=240),
    Message('note_off', channel=9, note=35, velocity=80, time=0),
    Message('note_on', channel=9, note=44, velocity=95, time=0),
    Message('note_on', channel=9, note=35, velocity=95, time=0),
    Message('note_off', channel=9, note=44, velocity=80, time=240),
    Message('note_off', channel=9, note=35, velocity=80, time=0),
    Message('note_on', channel=9, note=44, velocity=95, time=0),
    Message('note_on', channel=9, note=38, velocity=95, time=0),
    Message('note_off', channel=9, note=44, velocity=80, time=240),
    Message('note_off', channel=9, note=38, velocity=80, time=0),
    Message('note_on', channel=9, note=44, velocity=95, time=0),
    Message('note_off', channel=9, note=44, velocity=80, time=240),
    Message('note_on', channel=9, note=44, velocity=95, time=0),
    Message('note_on', channel=9, note=35, velocity=95, time=0),
    Message('note_off', channel=9, note=44, velocity=80, time=240),
    Message('note_off', channel=9, note=35, velocity=80, time=0),
    Message('note_on', channel=9, note=44, velocity=95, time=0),
    Message('note_off', channel=9, note=44, velocity=80, time=240),
    Message('note_on', channel=9, note=44, velocity=95, time=0),
    Message('note_on', channel=9, note=38, velocity=95, time=0),
    Message('note_off', channel=9, note=44, velocity=80, time=240),
    Message('note_off', channel=9, note=38, velocity=80, time=0),
    Message('note_on', channel=9, note=44, velocity=95, time=0),
    Message('note_off', channel=9, note=44, velocity=80, time=240),
    Message('note_on', channel=9, note=44, velocity=95, time=0),
    Message('note_on', channel=9, note=35, velocity=95, time=0),
    Message('note_off', channel=9, note=44, velocity=80, time=240),
    Message('note_off', channel=9, note=35, velocity=80, time=0),
    Message('note_on', channel=9, note=44, velocity=95, time=0),
    Message('note_on', channel=9, note=35, velocity=95, time=0),
    Message('note_off', channel=9, note=44, velocity=80, time=240),
    Message('note_off', channel=9, note=35, velocity=80, time=0),
    Message('note_on', channel=9, note=44, velocity=95, time=0),
    Message('note_on', channel=9, note=38, velocity=95, time=0),
    Message('note_off', channel=9, note=44, velocity=80, time=240),
    Message('note_off', channel=9, note=38, velocity=80, time=0),
    Message('note_on', channel=9, note=44, velocity=95, time=0),
    Message('note_off', channel=9, note=44, velocity=80, time=240),
    Message('note_on', channel=9, note=49, velocity=95, time=0),
    Message('note_on', channel=9, note=35, velocity=95, time=0),
    Message('note_off', channel=9, note=49, velocity=80, time=480),
    Message('note_off', channel=9, note=35, velocity=80, time=0),
    Message('note_on', channel=9, note=41, velocity=95, time=960),
    Message('note_on', channel=9, note=38, velocity=95, time=0),
    Message('note_off', channel=9, note=41, velocity=80, time=240),
    Message('note_off', channel=9, note=38, velocity=80, time=0),
    Message('note_on', channel=9, note=41, velocity=95, time=0),
    Message('note_on', channel=9, note=38, velocity=95, time=0),
    Message('note_off', channel=9, note=41, velocity=80, time=240),
    Message('note_off', channel=9, note=38, velocity=80, time=0),
    Message('note_on', channel=9, note=44, velocity=95, time=0),
    Message('note_on', channel=9, note=35, velocity=95, time=0),
    Message('note_off', channel=9, note=44, velocity=80, time=240),
    Message('note_off', channel=9, note=35, velocity=80, time=0),
    Message('note_on', channel=9, note=44, velocity=95, time=0),
    Message('note_off', channel=9, note=44, velocity=80, time=240),
    Message('note_on', channel=9, note=44, velocity=95, time=0),
    Message('note_on', channel=9, note=38, velocity=95, time=0),
    Message('note_off', channel=9, note=44, velocity=80, time=240),
    Message('note_off', channel=9, note=38, velocity=80, time=0),
    Message('note_on', channel=9, note=44, velocity=95, time=0),
    Message('note_off', channel=9, note=44, velocity=80, time=240),
    Message('note_on', channel=9, note=44, velocity=95, time=0),
    Message('note_on', channel=9, note=35, velocity=95, time=0),
    Message('note_off', channel=9, note=44, velocity=80, time=240),
    Message('note_off', channel=9, note=35, velocity=80, time=0),
    Message('note_on', channel=9, note=44, velocity=95, time=0),
    Message('note_on', channel=9, note=35, velocity=95, time=0),
    Message('note_off', channel=9, note=44, velocity=80, time=240),
    Message('note_off', channel=9, note=35, velocity=80, time=0),
    Message('note_on', channel=9, note=44, velocity=95, time=0),
    Message('note_on', channel=9, note=38, velocity=95, time=0),
    Message('note_off', channel=9, note=44, velocity=80, time=240),
    Message('note_off', channel=9, note=38, velocity=80, time=0),
    Message('note_on', channel=9, note=44, velocity=95, time=0),
    Message('note_off', channel=9, note=44, velocity=80, time=240),
    Message('note_on', channel=9, note=44, velocity=95, time=0),
    Message('note_on', channel=9, note=35, velocity=95, time=0),
    Message('note_off', channel=9, note=44, velocity=80, time=240),
    Message('note_off', channel=9, note=35, velocity=80, time=0),
    Message('note_on', channel=9, note=44, velocity=95, time=0),
    Message('note_off', channel=9, note=44, velocity=80, time=240),
    Message('note_on', channel=9, note=44, velocity=95, time=0),
    Message('note_on', channel=9, note=38, velocity=95, time=0),
    Message('note_off', channel=9, note=44, velocity=80, time=240),
    Message('note_off', channel=9, note=38, velocity=80, time=0),
    Message('note_on', channel=9, note=44, velocity=95, time=0),
    Message('note_off', channel=9, note=44, velocity=80, time=240),
    Message('note_on', channel=9, note=44, velocity=95, time=0),
    Message('note_on', channel=9, note=35, velocity=95, time=0),
    Message('note_off', channel=9, note=44, velocity=80, time=240),
    Message('note_off', channel=9, note=35, velocity=80, time=0),
    Message('note_on', channel=9, note=44, velocity=95, time=0),
    Message('note_on', channel=9, note=35, velocity=95, time=0),
    Message('note_off', channel=9, note=44, velocity=80, time=240),
    Message('note_off', channel=9, note=35, velocity=80, time=0),
    Message('note_on', channel=9, note=44, velocity=95, time=0),
    Message('note_on', channel=9, note=38, velocity=95, time=0),
    Message('note_off', channel=9, note=44, velocity=80, time=240),
    Message('note_off', channel=9, note=38, velocity=80, time=0),
    Message('note_on', channel=9, note=44, velocity=95, time=0),
    Message('note_off', channel=9, note=44, velocity=80, time=240),
    Message('note_on', channel=9, note=44, velocity=95, time=0),
    Message('note_on', channel=9, note=35, velocity=95, time=0),
    Message('note_off', channel=9, note=44, velocity=80, time=240),
    Message('note_off', channel=9, note=35, velocity=80, time=0),
    Message('note_on', channel=9, note=44, velocity=95, time=0),
    Message('note_off', channel=9, note=44, velocity=80, time=240),
    Message('note_on', channel=9, note=44, velocity=95, time=0),
    Message('note_on', channel=9, note=38, velocity=95, time=0),
    Message('note_off', channel=9, note=44, velocity=80, time=240),
    Message('note_off', channel=9, note=38, velocity=80, time=0),
    Message('note_on', channel=9, note=44, velocity=95, time=0),
    Message('note_off', channel=9, note=44, velocity=80, time=240),
    Message('note_on', channel=9, note=44, velocity=95, time=0),
    Message('note_on', channel=9, note=35, velocity=95, time=0),
    Message('note_off', channel=9, note=44, velocity=80, time=240),
    Message('note_off', channel=9, note=35, velocity=80, time=0),
    Message('note_on', channel=9, note=44, velocity=95, time=0),
    Message('note_on', channel=9, note=35, velocity=95, time=0),
    Message('note_off', channel=9, note=44, velocity=80, time=240),
    Message('note_off', channel=9, note=35, velocity=80, time=0),
    Message('note_on', channel=9, note=44, velocity=95, time=0),
    Message('note_on', channel=9, note=38, velocity=95, time=0),
    Message('note_off', channel=9, note=44, velocity=80, time=240),
    Message('note_off', channel=9, note=38, velocity=80, time=0),
    Message('note_on', channel=9, note=44, velocity=95, time=0),
    Message('note_off', channel=9, note=44, velocity=80, time=240),
    Message('note_on', channel=9, note=44, velocity=95, time=0),
    Message('note_on', channel=9, note=35, velocity=95, time=0),
    Message('note_off', channel=9, note=44, velocity=80, time=240),
    Message('note_off', channel=9, note=35, velocity=80, time=0),
    Message('note_on', channel=9, note=44, velocity=95, time=0),
    Message('note_off', channel=9, note=44, velocity=80, time=240),
    Message('note_on', channel=9, note=44, velocity=95, time=0),
    Message('note_on', channel=9, note=38, velocity=95, time=0),
    Message('note_off', channel=9, note=44, velocity=80, time=240),
    Message('note_off', channel=9, note=38, velocity=80, time=0),
    Message('note_on', channel=9, note=44, velocity=95, time=0),
    Message('note_off', channel=9, note=44, velocity=80, time=240),
    Message('note_on', channel=9, note=44, velocity=95, time=0),
    Message('note_on', channel=9, note=35, velocity=95, time=0),
    Message('note_off', channel=9, note=44, velocity=80, time=240),
    Message('note_off', channel=9, note=35, velocity=80, time=0),
    Message('note_on', channel=9, note=44, velocity=95, time=0),
    Message('note_on', channel=9, note=35, velocity=95, time=0),
    Message('note_off', channel=9, note=44, velocity=80, time=240),
    Message('note_off', channel=9, note=35, velocity=80, time=0),
    Message('note_on', channel=9, note=44, velocity=95, time=0),
    Message('note_on', channel=9, note=38, velocity=95, time=0),
    Message('note_off', channel=9, note=44, velocity=80, time=240),
    Message('note_off', channel=9, note=38, velocity=80, time=0),
    Message('note_on', channel=9, note=44, velocity=95, time=0),
    Message('note_off', channel=9, note=44, velocity=80, time=240),
    Message('note_on', channel=9, note=49, velocity=95, time=0),
    Message('note_on', channel=9, note=35, velocity=95, time=0),
    Message('note_off', channel=9, note=49, velocity=80, time=240),
    Message('note_off', channel=9, note=35, velocity=80, time=0),
    Message('note_on', channel=9, note=44, velocity=95, time=0),
    Message('note_off', channel=9, note=44, velocity=80, time=240),
    Message('note_on', channel=9, note=44, velocity=95, time=0),
    Message('note_on', channel=9, note=38, velocity=95, time=0),
    Message('note_off', channel=9, note=44, velocity=80, time=240),
    Message('note_off', channel=9, note=38, velocity=80, time=0),
    Message('note_on', channel=9, note=44, velocity=95, time=0),
    Message('note_off', channel=9, note=44, velocity=80, time=240),
    Message('note_on', channel=9, note=44, velocity=95, time=0),
    Message('note_on', channel=9, note=35, velocity=95, time=0),
    Message('note_off', channel=9, note=44, velocity=80, time=240),
    Message('note_off', channel=9, note=35, velocity=80, time=0),
    Message('note_on', channel=9, note=44, velocity=95, time=0),
    Message('note_on', channel=9, note=35, velocity=95, time=0),
    Message('note_off', channel=9, note=44, velocity=80, time=240),
    Message('note_off', channel=9, note=35, velocity=80, time=0),
    Message('note_on', channel=9, note=44, velocity=95, time=0),
    Message('note_on', channel=9, note=38, velocity=95, time=0),
    Message('note_off', channel=9, note=44, velocity=80, time=240),
    Message('note_off', channel=9, note=38, velocity=80, time=0),
    Message('note_on', channel=9, note=44, velocity=95, time=0),
    Message('note_off', channel=9, note=44, velocity=80, time=240),
    Message('note_on', channel=9, note=44, velocity=95, time=0),
    Message('note_on', channel=9, note=35, velocity=95, time=0),
    Message('note_off', channel=9, note=44, velocity=80, time=240),
    Message('note_off', channel=9, note=35, velocity=80, time=0),
    Message('note_on', channel=9, note=44, velocity=95, time=0),
    Message('note_off', channel=9, note=44, velocity=80, time=240),
    Message('note_on', channel=9, note=44, velocity=95, time=0),
    Message('note_on', channel=9, note=38, velocity=95, time=0),
    Message('note_off', channel=9, note=44, velocity=80, time=240),
    Message('note_off', channel=9, note=38, velocity=80, time=0),
    Message('note_on', channel=9, note=44, velocity=95, time=0),
    Message('note_off', channel=9, note=44, velocity=80, time=240),
    Message('note_on', channel=9, note=44, velocity=95, time=0),
    Message('note_on', channel=9, note=35, velocity=95, time=0),
    Message('note_off', channel=9, note=44, velocity=80, time=240),
    Message('note_off', channel=9, note=35, velocity=80, time=0),
    Message('note_on', channel=9, note=44, velocity=95, time=0),
    Message('note_on', channel=9, note=35, velocity=95, time=0),
    Message('note_off', channel=9, note=44, velocity=80, time=240),
    Message('note_off', channel=9, note=35, velocity=80, time=0),
    Message('note_on', channel=9, note=44, velocity=95, time=0),
    Message('note_on', channel=9, note=38, velocity=95, time=0),
    Message('note_off', channel=9, note=44, velocity=80, time=240),
    Message('note_off', channel=9, note=38, velocity=80, time=0),
    Message('note_on', channel=9, note=44, velocity=95, time=0),
    Message('note_off', channel=9, note=44, velocity=80, time=240),
    Message('note_on', channel=9, note=44, velocity=95, time=0),
    Message('note_on', channel=9, note=35, velocity=95, time=0),
    Message('note_off', channel=9, note=44, velocity=80, time=240),
    Message('note_off', channel=9, note=35, velocity=80, time=0),
    Message('note_on', channel=9, note=44, velocity=95, time=0),
    Message('note_off', channel=9, note=44, velocity=80, time=240),
    Message('note_on', channel=9, note=44, velocity=95, time=0),
    Message('note_on', channel=9, note=38, velocity=95, time=0),
    Message('note_off', channel=9, note=44, velocity=80, time=240),
    Message('note_off', channel=9, note=38, velocity=80, time=0),
    Message('note_on', channel=9, note=44, velocity=95, time=0),
    Message('note_off', channel=9, note=44, velocity=80, time=240),
    Message('note_on', channel=9, note=44, velocity=95, time=0),
    Message('note_on', channel=9, note=35, velocity=95, time=0),
    Message('note_off', channel=9, note=44, velocity=80, time=240),
    Message('note_off', channel=9, note=35, velocity=80, time=0),
    Message('note_on', channel=9, note=44, velocity=95, time=0),
    Message('note_on', channel=9, note=35, velocity=95, time=0),
    Message('note_off', channel=9, note=44, velocity=80, time=240),
    Message('note_off', channel=9, note=35, velocity=80, time=0),
    Message('note_on', channel=9, note=44, velocity=95, time=0),
    Message('note_on', channel=9, note=38, velocity=95, time=0),
    Message('note_off', channel=9, note=44, velocity=80, time=240),
    Message('note_off', channel=9, note=38, velocity=80, time=0),
    Message('note_on', channel=9, note=44, velocity=95, time=0),
    Message('note_off', channel=9, note=44, velocity=80, time=240),
    Message('note_on', channel=9, note=49, velocity=95, time=0),
    Message('note_on', channel=9, note=35, velocity=95, time=0),
    Message('note_off', channel=9, note=49, velocity=80, time=480),
    Message('note_off', channel=9, note=35, velocity=80, time=0),
    Message('note_on', channel=9, note=41, velocity=95, time=960),
    Message('note_on', channel=9, note=38, velocity=95, time=0),
    Message('note_off', channel=9, note=41, velocity=80, time=240),
    Message('note_off', channel=9, note=38, velocity=80, time=0),
    Message('note_on', channel=9, note=41, velocity=95, time=0),
    Message('note_on', channel=9, note=38, velocity=95, time=0),
    Message('note_off', channel=9, note=41, velocity=80, time=240),
    Message('note_off', channel=9, note=38, velocity=80, time=0),
    Message('control_change', channel=9, control=7, value=103, time=0),
    Message('note_on', channel=9, note=44, velocity=95, time=0),
    Message('note_on', channel=9, note=35, velocity=95, time=0),
    Message('control_change', channel=9, control=7, value=101, time=120),
    Message('control_change', channel=9, control=7, value=100, time=120),
    Message('note_off', channel=9, note=44, velocity=80, time=0),
    Message('note_off', channel=9, note=35, velocity=80, time=0),
    Message('note_on', channel=9, note=44, velocity=95, time=0),
    Message('control_change', channel=9, control=7, value=98, time=120),
    Message('control_change', channel=9, control=7, value=97, time=120),
    Message('note_off', channel=9, note=44, velocity=80, time=0),
    Message('note_on', channel=9, note=44, velocity=95, time=0),
    Message('note_on', channel=9, note=38, velocity=95, time=0),
    Message('control_change', channel=9, control=7, value=95, time=120),
    Message('control_change', channel=9, control=7, value=94, time=120),
    Message('note_off', channel=9, note=44, velocity=80, time=0),
    Message('note_off', channel=9, note=38, velocity=80, time=0),
    Message('note_on', channel=9, note=44, velocity=95, time=0),
    Message('control_change', channel=9, control=7, value=92, time=120),
    Message('control_change', channel=9, control=7, value=91, time=120),
    Message('note_off', channel=9, note=44, velocity=80, time=0),
    Message('note_on', channel=9, note=44, velocity=95, time=0),
    Message('note_on', channel=9, note=35, velocity=95, time=0),
    Message('control_change', channel=9, control=7, value=89, time=120),
    Message('control_change', channel=9, control=7, value=88, time=120),
    Message('note_off', channel=9, note=44, velocity=80, time=0),
    Message('note_off', channel=9, note=35, velocity=80, time=0),
    Message('note_on', channel=9, note=44, velocity=95, time=0),
    Message('note_on', channel=9, note=35, velocity=95, time=0),
    Message('control_change', channel=9, control=7, value=86, time=120),
    Message('control_change', channel=9, control=7, value=85, time=120),
    Message('note_off', channel=9, note=44, velocity=80, time=0),
    Message('note_off', channel=9, note=35, velocity=80, time=0),
    Message('note_on', channel=9, note=44, velocity=95, time=0),
    Message('note_on', channel=9, note=38, velocity=95, time=0),
    Message('control_change', channel=9, control=7, value=83, time=120),
    Message('control_change', channel=9, control=7, value=82, time=120),
    Message('note_off', channel=9, note=44, velocity=80, time=0),
    Message('note_off', channel=9, note=38, velocity=80, time=0),
    Message('note_on', channel=9, note=44, velocity=95, time=0),
    Message('control_change', channel=9, control=7, value=80, time=120),
    Message('control_change', channel=9, control=7, value=79, time=120),
    Message('note_off', channel=9, note=44, velocity=80, time=0),
    Message('note_on', channel=9, note=44, velocity=95, time=0),
    Message('note_on', channel=9, note=35, velocity=95, time=0),
    Message('control_change', channel=9, control=7, value=77, time=120),
    Message('control_change', channel=9, control=7, value=76, time=120),
    Message('note_off', channel=9, note=44, velocity=80, time=0),
    Message('note_off', channel=9, note=35, velocity=80, time=0),
    Message('note_on', channel=9, note=44, velocity=95, time=0),
    Message('control_change', channel=9, control=7, value=74, time=120),
    Message('control_change', channel=9, control=7, value=73, time=120),
    Message('note_off', channel=9, note=44, velocity=80, time=0),
    Message('note_on', channel=9, note=44, velocity=95, time=0),
    Message('note_on', channel=9, note=38, velocity=95, time=0),
    Message('control_change', channel=9, control=7, value=72, time=120),
    Message('control_change', channel=9, control=7, value=70, time=120),
    Message('note_off', channel=9, note=44, velocity=80, time=0),
    Message('note_off', channel=9, note=38, velocity=80, time=0),
    Message('note_on', channel=9, note=44, velocity=95, time=0),
    Message('control_change', channel=9, control=7, value=69, time=120),
    Message('control_change', channel=9, control=7, value=67, time=120),
    Message('note_off', channel=9, note=44, velocity=80, time=0),
    Message('note_on', channel=9, note=44, velocity=95, time=0),
    Message('note_on', channel=9, note=35, velocity=95, time=0),
    Message('control_change', channel=9, control=7, value=66, time=120),
    Message('control_change', channel=9, control=7, value=64, time=120),
    Message('note_off', channel=9, note=44, velocity=80, time=0),
    Message('note_off', channel=9, note=35, velocity=80, time=0),
    Message('note_on', channel=9, note=44, velocity=95, time=0),
    Message('note_on', channel=9, note=35, velocity=95, time=0),
    Message('control_change', channel=9, control=7, value=63, time=120),
    Message('control_change', channel=9, control=7, value=61, time=120),
    Message('note_off', channel=9, note=44, velocity=80, time=0),
    Message('note_off', channel=9, note=35, velocity=80, time=0),
    Message('note_on', channel=9, note=44, velocity=95, time=0),
    Message('note_on', channel=9, note=38, velocity=95, time=0),
    Message('control_change', channel=9, control=7, value=60, time=120),
    Message('control_change', channel=9, control=7, value=58, time=120),
    Message('note_off', channel=9, note=44, velocity=80, time=0),
    Message('note_off', channel=9, note=38, velocity=80, time=0),
    Message('note_on', channel=9, note=44, velocity=95, time=0),
    Message('control_change', channel=9, control=7, value=57, time=120),
    Message('control_change', channel=9, control=7, value=55, time=120),
    Message('note_off', channel=9, note=44, velocity=80, time=0),
    Message('note_on', channel=9, note=44, velocity=95, time=0),
    Message('note_on', channel=9, note=35, velocity=95, time=0),
    Message('control_change', channel=9, control=7, value=54, time=120),
    Message('control_change', channel=9, control=7, value=52, time=120),
    Message('note_off', channel=9, note=44, velocity=80, time=0),
    Message('note_off', channel=9, note=35, velocity=80, time=0),
    Message('note_on', channel=9, note=44, velocity=95, time=0),
    Message('control_change', channel=9, control=7, value=51, time=120),
    Message('control_change', channel=9, control=7, value=49, time=120),
    Message('note_off', channel=9, note=44, velocity=80, time=0),
    Message('note_on', channel=9, note=44, velocity=95, time=0),
    Message('note_on', channel=9, note=38, velocity=95, time=0),
    Message('control_change', channel=9, control=7, value=48, time=120),
    Message('control_change', channel=9, control=7, value=46, time=120),
    Message('note_off', channel=9, note=44, velocity=80, time=0),
    Message('note_off', channel=9, note=38, velocity=80, time=0),
    Message('note_on', channel=9, note=44, velocity=95, time=0),
    Message('control_change', channel=9, control=7, value=45, time=120),
    Message('control_change', channel=9, control=7, value=43, time=120),
    Message('note_off', channel=9, note=44, velocity=80, time=0),
    Message('note_on', channel=9, note=44, velocity=95, time=0),
    Message('note_on', channel=9, note=35, velocity=95, time=0),
    Message('control_change', channel=9, control=7, value=42, time=120),
    Message('control_change', channel=9, control=7, value=40, time=120),
    Message('note_off', channel=9, note=44, velocity=80, time=0),
    Message('note_off', channel=9, note=35, velocity=80, time=0),
    Message('note_on', channel=9, note=44, velocity=95, time=0),
    Message('note_on', channel=9, note=35, velocity=95, time=0),
    Message('control_change', channel=9, control=7, value=39, time=120),
    Message('control_change', channel=9, control=7, value=38, time=120),
    Message('note_off', channel=9, note=44, velocity=80, time=0),
    Message('note_off', channel=9, note=35, velocity=80, time=0),
    Message('note_on', channel=9, note=44, velocity=95, time=0),
    Message('note_on', channel=9, note=38, velocity=95, time=0),
    Message('control_change', channel=9, control=7, value=36, time=120),
    Message('control_change', channel=9, control=7, value=35, time=120),
    Message('note_off', channel=9, note=44, velocity=80, time=0),
    Message('note_off', channel=9, note=38, velocity=80, time=0),
    Message('note_on', channel=9, note=44, velocity=95, time=0),
    Message('control_change', channel=9, control=7, value=33, time=120),
    Message('control_change', channel=9, control=7, value=32, time=120),
    Message('note_off', channel=9, note=44, velocity=80, time=0),
    Message('note_on', channel=9, note=44, velocity=95, time=0),
    Message('note_on', channel=9, note=35, velocity=95, time=0),
    Message('control_change', channel=9, control=7, value=30, time=120),
    Message('control_change', channel=9, control=7, value=29, time=120),
    Message('note_off', channel=9, note=44, velocity=80, time=0),
    Message('note_off', channel=9, note=35, velocity=80, time=0),
    Message('note_on', channel=9, note=44, velocity=95, time=0),
    Message('control_change', channel=9, control=7, value=27, time=120),
    Message('control_change', channel=9, control=7, value=26, time=120),
    Message('note_off', channel=9, note=44, velocity=80, time=0),
    Message('note_on', channel=9, note=44, velocity=95, time=0),
    Message('note_on', channel=9, note=38, velocity=95, time=0),
    Message('control_change', channel=9, control=7, value=24, time=120),
    Message('control_change', channel=9, control=7, value=23, time=120),
    Message('note_off', channel=9, note=44, velocity=80, time=0),
    Message('note_off', channel=9, note=38, velocity=80, time=0),
    Message('note_on', channel=9, note=44, velocity=95, time=0),
    Message('control_change', channel=9, control=7, value=21, time=120),
    Message('control_change', channel=9, control=7, value=20, time=120),
    Message('note_off', channel=9, note=44, velocity=80, time=0),
    Message('note_on', channel=9, note=44, velocity=95, time=0),
    Message('note_on', channel=9, note=35, velocity=95, time=0),
    Message('control_change', channel=9, control=7, value=18, time=120),
    Message('control_change', channel=9, control=7, value=17, time=120),
    Message('note_off', channel=9, note=44, velocity=80, time=0),
    Message('note_off', channel=9, note=35, velocity=80, time=0),
    Message('note_on', channel=9, note=44, velocity=95, time=0),
    Message('note_on', channel=9, note=35, velocity=95, time=0),
    Message('control_change', channel=9, control=7, value=15, time=120),
    Message('control_change', channel=9, control=7, value=14, time=120),
    Message('note_off', channel=9, note=44, velocity=80, time=0),
    Message('note_off', channel=9, note=35, velocity=80, time=0),
    Message('note_on', channel=9, note=44, velocity=95, time=0),
    Message('note_on', channel=9, note=38, velocity=95, time=0),
    Message('control_change', channel=9, control=7, value=12, time=120),
    Message('control_change', channel=9, control=7, value=11, time=120),
    Message('note_off', channel=9, note=44, velocity=80, time=0),
    Message('note_off', channel=9, note=38, velocity=80, time=0),
    Message('note_on', channel=9, note=44, velocity=95, time=0),
    Message('control_change', channel=9, control=7, value=9, time=120),
    Message('control_change', channel=9, control=7, value=8, time=120),
    Message('note_off', channel=9, note=44, velocity=80, time=0),
    MetaMessage('end_of_track', time=0)]),
  MidiTrack([
    MetaMessage('track_name', name=' 2003 John Taylor', time=0),
    Message('control_change', channel=8, control=100, value=0, time=0),
    Message('control_change', channel=8, control=101, value=0, time=0),
    Message('control_change', channel=8, control=6, value=12, time=0),
    Message('pitchwheel', channel=8, pitch=0, time=0),
    Message('program_change', channel=8, program=24, time=0),
    Message('control_change', channel=8, control=7, value=104, time=0),
    Message('control_change', channel=8, control=10, value=64, time=0),
    Message('control_change', channel=8, control=93, value=0, time=0),
    Message('control_change', channel=8, control=91, value=0, time=0),
    Message('control_change', channel=8, control=92, value=0, time=0),
    Message('control_change', channel=8, control=95, value=0, time=0),
    Message('control_change', channel=8, control=7, value=103, time=216960),
    Message('control_change', channel=8, control=7, value=101, time=120),
    Message('control_change', channel=8, control=7, value=100, time=120),
    Message('control_change', channel=8, control=7, value=98, time=120),
    Message('control_change', channel=8, control=7, value=97, time=120),
    Message('control_change', channel=8, control=7, value=95, time=120),
    Message('control_change', channel=8, control=7, value=94, time=120),
    Message('control_change', channel=8, control=7, value=92, time=120),
    Message('control_change', channel=8, control=7, value=91, time=120),
    Message('control_change', channel=8, control=7, value=89, time=120),
    Message('control_change', channel=8, control=7, value=88, time=120),
    Message('control_change', channel=8, control=7, value=86, time=120),
    Message('control_change', channel=8, control=7, value=85, time=120),
    Message('control_change', channel=8, control=7, value=83, time=120),
    Message('control_change', channel=8, control=7, value=82, time=120),
    Message('control_change', channel=8, control=7, value=80, time=120),
    Message('control_change', channel=8, control=7, value=79, time=120),
    Message('control_change', channel=8, control=7, value=77, time=120),
    Message('control_change', channel=8, control=7, value=76, time=120),
    Message('control_change', channel=8, control=7, value=74, time=120),
    Message('control_change', channel=8, control=7, value=73, time=120),
    Message('control_change', channel=8, control=7, value=72, time=120),
    Message('control_change', channel=8, control=7, value=70, time=120),
    Message('control_change', channel=8, control=7, value=69, time=120),
    Message('control_change', channel=8, control=7, value=67, time=120),
    Message('control_change', channel=8, control=7, value=66, time=120),
    Message('control_change', channel=8, control=7, value=64, time=120),
    Message('control_change', channel=8, control=7, value=63, time=120),
    Message('control_change', channel=8, control=7, value=61, time=120),
    Message('control_change', channel=8, control=7, value=60, time=120),
    Message('control_change', channel=8, control=7, value=58, time=120),
    Message('control_change', channel=8, control=7, value=57, time=120),
    Message('control_change', channel=8, control=7, value=55, time=120),
    Message('control_change', channel=8, control=7, value=54, time=120),
    Message('control_change', channel=8, control=7, value=52, time=120),
    Message('control_change', channel=8, control=7, value=51, time=120),
    Message('control_change', channel=8, control=7, value=49, time=120),
    Message('control_change', channel=8, control=7, value=48, time=120),
    Message('control_change', channel=8, control=7, value=46, time=120),
    Message('control_change', channel=8, control=7, value=45, time=120),
    Message('control_change', channel=8, control=7, value=43, time=120),
    Message('control_change', channel=8, control=7, value=42, time=120),
    Message('control_change', channel=8, control=7, value=40, time=120),
    Message('control_change', channel=8, control=7, value=39, time=120),
    Message('control_change', channel=8, control=7, value=38, time=120),
    Message('control_change', channel=8, control=7, value=36, time=120),
    Message('control_change', channel=8, control=7, value=35, time=120),
    Message('control_change', channel=8, control=7, value=33, time=120),
    Message('control_change', channel=8, control=7, value=32, time=120),
    Message('control_change', channel=8, control=7, value=30, time=120),
    Message('control_change', channel=8, control=7, value=29, time=120),
    Message('control_change', channel=8, control=7, value=27, time=120),
    Message('control_change', channel=8, control=7, value=26, time=120),
    Message('control_change', channel=8, control=7, value=24, time=120),
    Message('control_change', channel=8, control=7, value=23, time=120),
    Message('control_change', channel=8, control=7, value=21, time=120),
    Message('control_change', channel=8, control=7, value=20, time=120),
    Message('control_change', channel=8, control=7, value=18, time=120),
    Message('control_change', channel=8, control=7, value=17, time=120),
    Message('control_change', channel=8, control=7, value=15, time=120),
    Message('control_change', channel=8, control=7, value=14, time=120),
    Message('control_change', channel=8, control=7, value=12, time=120),
    Message('control_change', channel=8, control=7, value=11, time=120),
    Message('control_change', channel=8, control=7, value=9, time=120),
    Message('control_change', channel=8, control=7, value=8, time=120),
    MetaMessage('end_of_track', time=0)]),
  MidiTrack([
    MetaMessage('track_name', name='the-MIDI-Universe@SoftHome.net', time=0),
    Message('control_change', channel=8, control=100, value=0, time=0),
    Message('control_change', channel=8, control=101, value=0, time=0),
    Message('control_change', channel=8, control=6, value=12, time=0),
    Message('pitchwheel', channel=8, pitch=0, time=0),
    Message('program_change', channel=8, program=24, time=0),
    Message('control_change', channel=8, control=7, value=104, time=0),
    Message('control_change', channel=8, control=10, value=64, time=0),
    Message('control_change', channel=8, control=93, value=0, time=0),
    Message('control_change', channel=8, control=91, value=0, time=0),
    Message('control_change', channel=8, control=92, value=0, time=0),
    Message('control_change', channel=8, control=95, value=0, time=0),
    Message('control_change', channel=8, control=7, value=103, time=216960),
    Message('control_change', channel=8, control=7, value=101, time=120),
    Message('control_change', channel=8, control=7, value=100, time=120),
    Message('control_change', channel=8, control=7, value=98, time=120),
    Message('control_change', channel=8, control=7, value=97, time=120),
    Message('control_change', channel=8, control=7, value=95, time=120),
    Message('control_change', channel=8, control=7, value=94, time=120),
    Message('control_change', channel=8, control=7, value=92, time=120),
    Message('control_change', channel=8, control=7, value=91, time=120),
    Message('control_change', channel=8, control=7, value=89, time=120),
    Message('control_change', channel=8, control=7, value=88, time=120),
    Message('control_change', channel=8, control=7, value=86, time=120),
    Message('control_change', channel=8, control=7, value=85, time=120),
    Message('control_change', channel=8, control=7, value=83, time=120),
    Message('control_change', channel=8, control=7, value=82, time=120),
    Message('control_change', channel=8, control=7, value=80, time=120),
    Message('control_change', channel=8, control=7, value=79, time=120),
    Message('control_change', channel=8, control=7, value=77, time=120),
    Message('control_change', channel=8, control=7, value=76, time=120),
    Message('control_change', channel=8, control=7, value=74, time=120),
    Message('control_change', channel=8, control=7, value=73, time=120),
    Message('control_change', channel=8, control=7, value=72, time=120),
    Message('control_change', channel=8, control=7, value=70, time=120),
    Message('control_change', channel=8, control=7, value=69, time=120),
    Message('control_change', channel=8, control=7, value=67, time=120),
    Message('control_change', channel=8, control=7, value=66, time=120),
    Message('control_change', channel=8, control=7, value=64, time=120),
    Message('control_change', channel=8, control=7, value=63, time=120),
    Message('control_change', channel=8, control=7, value=61, time=120),
    Message('control_change', channel=8, control=7, value=60, time=120),
    Message('control_change', channel=8, control=7, value=58, time=120),
    Message('control_change', channel=8, control=7, value=57, time=120),
    Message('control_change', channel=8, control=7, value=55, time=120),
    Message('control_change', channel=8, control=7, value=54, time=120),
    Message('control_change', channel=8, control=7, value=52, time=120),
    Message('control_change', channel=8, control=7, value=51, time=120),
    Message('control_change', channel=8, control=7, value=49, time=120),
    Message('control_change', channel=8, control=7, value=48, time=120),
    Message('control_change', channel=8, control=7, value=46, time=120),
    Message('control_change', channel=8, control=7, value=45, time=120),
    Message('control_change', channel=8, control=7, value=43, time=120),
    Message('control_change', channel=8, control=7, value=42, time=120),
    Message('control_change', channel=8, control=7, value=40, time=120),
    Message('control_change', channel=8, control=7, value=39, time=120),
    Message('control_change', channel=8, control=7, value=38, time=120),
    Message('control_change', channel=8, control=7, value=36, time=120),
    Message('control_change', channel=8, control=7, value=35, time=120),
    Message('control_change', channel=8, control=7, value=33, time=120),
    Message('control_change', channel=8, control=7, value=32, time=120),
    Message('control_change', channel=8, control=7, value=30, time=120),
    Message('control_change', channel=8, control=7, value=29, time=120),
    Message('control_change', channel=8, control=7, value=27, time=120),
    Message('control_change', channel=8, control=7, value=26, time=120),
    Message('control_change', channel=8, control=7, value=24, time=120),
    Message('control_change', channel=8, control=7, value=23, time=120),
    Message('control_change', channel=8, control=7, value=21, time=120),
    Message('control_change', channel=8, control=7, value=20, time=120),
    Message('control_change', channel=8, control=7, value=18, time=120),
    Message('control_change', channel=8, control=7, value=17, time=120),
    Message('control_change', channel=8, control=7, value=15, time=120),
    Message('control_change', channel=8, control=7, value=14, time=120),
    Message('control_change', channel=8, control=7, value=12, time=120),
    Message('control_change', channel=8, control=7, value=11, time=120),
    Message('control_change', channel=8, control=7, value=9, time=120),
    Message('control_change', channel=8, control=7, value=8, time=120),
    MetaMessage('end_of_track', time=0)])
])
