MidiFile(type=1, ticks_per_beat=192, tracks=[
  MidiTrack([
    MetaMessage('track_name', name='CIRCLE  OF  LIFE', time=0),
    MetaMessage('time_signature', numerator=4, denominator=4, clocks_per_click=24, notated_32nd_notes_per_beat=8, time=0),
    MetaMessage('set_tempo', tempo=705882, time=0),
    MetaMessage('key_signature', key='C', time=0),
    MetaMessage('set_tempo', tempo=769230, time=72192),
    MetaMessage('end_of_track', time=0)]),
  MidiTrack([
    MetaMessage('track_name', name='Bright Acoustic Piano', time=0),
    Message('control_change', channel=0, control=0, value=0, time=0),
    Message('control_change', channel=0, control=32, value=0, time=0),
    Message('program_change', channel=0, program=1, time=0),
    Message('control_change', channel=0, control=7, value=108, time=0),
    Message('control_change', channel=0, control=10, value=64, time=0),
    Message('control_change', channel=0, control=11, value=127, time=0),
    Message('control_change', channel=0, control=91, value=98, time=0),
    Message('control_change', channel=0, control=93, value=58, time=0),
    Message('control_change', channel=0, control=101, value=0, time=110),
    Message('control_change', channel=0, control=100, value=0, time=50),
    Message('control_change', channel=0, control=6, value=2, time=88),
    Message('note_on', channel=0, note=34, velocity=100, time=1288),
    Message('note_on', channel=0, note=34, velocity=0, time=264),
    Message('note_on', channel=0, note=34, velocity=71, time=24),
    Message('note_on', channel=0, note=34, velocity=0, time=82),
    Message('note_on', channel=0, note=34, velocity=80, time=14),
    Message('note_on', channel=0, note=34, velocity=0, time=381),
    Message('note_on', channel=0, note=31, velocity=108, time=3),
    Message('note_on', channel=0, note=31, velocity=0, time=281),
    Message('note_on', channel=0, note=31, velocity=81, time=7),
    Message('note_on', channel=0, note=31, velocity=0, time=82),
    Message('note_on', channel=0, note=31, velocity=97, time=14),
    Message('note_on', channel=0, note=62, velocity=127, time=96),
    Message('note_on', channel=0, note=62, velocity=0, time=95),
    Message('note_on', channel=0, note=67, velocity=122, time=1),
    Message('note_on', channel=0, note=67, velocity=0, time=95),
    Message('note_on', channel=0, note=62, velocity=127, time=1),
    Message('note_on', channel=0, note=62, velocity=0, time=95),
    Message('note_on', channel=0, note=36, velocity=86, time=1),
    Message('note_on', channel=0, note=63, velocity=127, time=0),
    Message('note_on', channel=0, note=31, velocity=0, time=3),
    Message('note_on', channel=0, note=36, velocity=0, time=264),
    Message('note_on', channel=0, note=36, velocity=83, time=21),
    Message('note_on', channel=0, note=36, velocity=0, time=76),
    Message('note_on', channel=0, note=36, velocity=73, time=20),
    Message('note_on', channel=0, note=36, velocity=0, time=182),
    Message('note_on', channel=0, note=36, velocity=113, time=10),
    Message('note_on', channel=0, note=63, velocity=0, time=2),
    Message('note_on', channel=0, note=58, velocity=110, time=94),
    Message('note_on', channel=0, note=58, velocity=0, time=71),
    Message('note_on', channel=0, note=29, velocity=81, time=25),
    Message('note_on', channel=0, note=58, velocity=110, time=0),
    Message('note_on', channel=0, note=36, velocity=0, time=4),
    Message('note_on', channel=0, note=58, velocity=0, time=184),
    Message('note_on', channel=0, note=57, velocity=127, time=4),
    Message('note_on', channel=0, note=29, velocity=0, time=77),
    Message('note_on', channel=0, note=29, velocity=79, time=19),
    Message('note_on', channel=0, note=29, velocity=0, time=77),
    Message('note_on', channel=0, note=57, velocity=0, time=18),
    Message('note_on', channel=0, note=29, velocity=88, time=1),
    Message('note_on', channel=0, note=53, velocity=117, time=0),
    Message('note_on', channel=0, note=53, velocity=0, time=95),
    Message('note_on', channel=0, note=57, velocity=108, time=1),
    Message('note_on', channel=0, note=57, velocity=0, time=95),
    Message('note_on', channel=0, note=65, velocity=108, time=1),
    Message('note_on', channel=0, note=65, velocity=0, time=91),
    Message('note_on', channel=0, note=60, velocity=127, time=5),
    Message('note_on', channel=0, note=60, velocity=0, time=81),
    Message('note_on', channel=0, note=34, velocity=95, time=15),
    Message('note_on', channel=0, note=60, velocity=127, time=0),
    Message('note_on', channel=0, note=29, velocity=0, time=11),
    Message('note_on', channel=0, note=60, velocity=0, time=84),
    Message('note_on', channel=0, note=62, velocity=101, time=1),
    Message('note_on', channel=0, note=34, velocity=0, time=169),
    Message('note_on', channel=0, note=34, velocity=73, time=23),
    Message('note_on', channel=0, note=34, velocity=0, time=77),
    Message('note_on', channel=0, note=34, velocity=91, time=19),
    Message('note_on', channel=0, note=62, velocity=0, time=48),
    Message('note_on', channel=0, note=34, velocity=0, time=328),
    Message('note_on', channel=0, note=31, velocity=101, time=8),
    Message('note_on', channel=0, note=31, velocity=0, time=269),
    Message('note_on', channel=0, note=31, velocity=81, time=19),
    Message('note_on', channel=0, note=31, velocity=0, time=85),
    Message('note_on', channel=0, note=31, velocity=94, time=11),
    Message('note_on', channel=0, note=62, velocity=127, time=96),
    Message('note_on', channel=0, note=67, velocity=122, time=96),
    Message('note_on', channel=0, note=62, velocity=0, time=2),
    Message('note_on', channel=0, note=67, velocity=0, time=92),
    Message('note_on', channel=0, note=62, velocity=127, time=2),
    Message('note_on', channel=0, note=36, velocity=91, time=96),
    Message('note_on', channel=0, note=63, velocity=110, time=0),
    Message('note_on', channel=0, note=62, velocity=0, time=8),
    Message('note_on', channel=0, note=31, velocity=0, time=3),
    Message('note_on', channel=0, note=36, velocity=0, time=277),
    Message('note_on', channel=0, note=36, velocity=81, time=0),
    Message('note_on', channel=0, note=63, velocity=0, time=0),
    Message('note_on', channel=0, note=36, velocity=0, time=76),
    Message('note_on', channel=0, note=36, velocity=81, time=20),
    Message('note_on', channel=0, note=36, velocity=0, time=280),
    Message('note_on', channel=0, note=36, velocity=91, time=8),
    Message('note_on', channel=0, note=58, velocity=110, time=0),
    Message('note_on', channel=0, note=58, velocity=0, time=69),
    Message('note_on', channel=0, note=29, velocity=77, time=27),
    Message('note_on', channel=0, note=58, velocity=110, time=0),
    Message('note_on', channel=0, note=36, velocity=0, time=7),
    Message('note_on', channel=0, note=58, velocity=0, time=159),
    Message('note_on', channel=0, note=57, velocity=122, time=26),
    Message('note_on', channel=0, note=29, velocity=0, time=74),
    Message('note_on', channel=0, note=29, velocity=70, time=22),
    Message('note_on', channel=0, note=29, velocity=0, time=89),
    Message('note_on', channel=0, note=29, velocity=77, time=7),
    Message('note_on', channel=0, note=53, velocity=97, time=0),
    Message('note_on', channel=0, note=57, velocity=0, time=5),
    Message('note_on', channel=0, note=57, velocity=94, time=91),
    Message('note_on', channel=0, note=57, velocity=0, time=94),
    Message('note_on', channel=0, note=65, velocity=88, time=2),
    Message('note_on', channel=0, note=65, velocity=0, time=89),
    Message('note_on', channel=0, note=60, velocity=127, time=7),
    Message('note_on', channel=0, note=53, velocity=0, time=32),
    Message('note_on', channel=0, note=29, velocity=0, time=1),
    Message('note_on', channel=0, note=60, velocity=0, time=56),
    Message('note_on', channel=0, note=34, velocity=95, time=7),
    Message('note_on', channel=0, note=34, velocity=0, time=244),
    Message('note_on', channel=0, note=34, velocity=63, time=44),
    Message('note_on', channel=0, note=34, velocity=0, time=72),
    Message('note_on', channel=0, note=34, velocity=71, time=24),
    Message('note_on', channel=0, note=34, velocity=0, time=345),
    Message('note_on', channel=0, note=34, velocity=91, time=39),
    Message('note_on', channel=0, note=34, velocity=0, time=255),
    Message('note_on', channel=0, note=34, velocity=76, time=33),
    Message('note_on', channel=0, note=34, velocity=0, time=75),
    Message('note_on', channel=0, note=34, velocity=100, time=21),
    Message('note_on', channel=0, note=34, velocity=0, time=368),
    Message('note_on', channel=0, note=33, velocity=97, time=16),
    Message('note_on', channel=0, note=33, velocity=0, time=262),
    Message('note_on', channel=0, note=33, velocity=79, time=26),
    Message('note_on', channel=0, note=33, velocity=0, time=77),
    Message('note_on', channel=0, note=33, velocity=81, time=19),
    Message('note_on', channel=0, note=33, velocity=0, time=179),
    Message('note_on', channel=0, note=33, velocity=77, time=13),
    Message('note_on', channel=0, note=34, velocity=83, time=192),
    Message('note_on', channel=0, note=33, velocity=0, time=8),
    Message('note_on', channel=0, note=34, velocity=0, time=201),
    Message('note_on', channel=0, note=34, velocity=71, time=79),
    Message('note_on', channel=0, note=34, velocity=0, time=70),
    Message('note_on', channel=0, note=34, velocity=61, time=26),
    Message('note_on', channel=0, note=34, velocity=0, time=180),
    Message('note_on', channel=0, note=33, velocity=77, time=12),
    Message('note_on', channel=0, note=33, velocity=0, time=189),
    Message('note_on', channel=0, note=31, velocity=81, time=3),
    Message('note_on', channel=0, note=31, velocity=0, time=233),
    Message('note_on', channel=0, note=31, velocity=88, time=55),
    Message('note_on', channel=0, note=31, velocity=0, time=65),
    Message('note_on', channel=0, note=31, velocity=83, time=31),
    Message('note_on', channel=0, note=55, velocity=101, time=288),
    Message('note_on', channel=0, note=58, velocity=100, time=0),
    Message('note_on', channel=0, note=62, velocity=104, time=0),
    Message('note_on', channel=0, note=67, velocity=91, time=0),
    Message('note_on', channel=0, note=31, velocity=0, time=19),
    Message('control_change', channel=0, control=64, value=127, time=2),
    Message('note_on', channel=0, note=58, velocity=0, time=28),
    Message('note_on', channel=0, note=62, velocity=0, time=3),
    Message('note_on', channel=0, note=67, velocity=0, time=1),
    Message('note_on', channel=0, note=55, velocity=0, time=6),
    Message('note_on', channel=0, note=36, velocity=88, time=37),
    Message('note_on', channel=0, note=55, velocity=94, time=0),
    Message('note_on', channel=0, note=60, velocity=113, time=0),
    Message('note_on', channel=0, note=63, velocity=100, time=0),
    Message('control_change', channel=0, control=64, value=0, time=0),
    Message('note_on', channel=0, note=67, velocity=94, time=0),
    Message('control_change', channel=0, control=64, value=127, time=138),
    Message('note_on', channel=0, note=36, velocity=0, time=104),
    Message('note_on', channel=0, note=36, velocity=67, time=46),
    Message('note_on', channel=0, note=55, velocity=0, time=10),
    Message('note_on', channel=0, note=36, velocity=0, time=54),
    Message('note_on', channel=0, note=67, velocity=0, time=13),
    Message('note_on', channel=0, note=60, velocity=0, time=1),
    Message('note_on', channel=0, note=63, velocity=0, time=4),
    Message('note_on', channel=0, note=36, velocity=71, time=14),
    Message('control_change', channel=0, control=64, value=0, time=50),
    Message('note_on', channel=0, note=36, velocity=0, time=281),
    Message('note_on', channel=0, note=32, velocity=73, time=53),
    Message('note_on', channel=0, note=32, velocity=0, time=235),
    Message('note_on', channel=0, note=32, velocity=76, time=53),
    Message('note_on', channel=0, note=32, velocity=0, time=58),
    Message('note_on', channel=0, note=32, velocity=100, time=38),
    Message('note_on', channel=0, note=32, velocity=0, time=279),
    Message('note_on', channel=0, note=29, velocity=88, time=105),
    Message('note_on', channel=0, note=29, velocity=0, time=238),
    Message('control_change', channel=0, control=64, value=127, time=16),
    Message('note_on', channel=0, note=29, velocity=77, time=34),
    Message('note_on', channel=0, note=53, velocity=113, time=0),
    Message('note_on', channel=0, note=53, velocity=0, time=35),
    Message('note_on', channel=0, note=57, velocity=94, time=13),
    Message('note_on', channel=0, note=29, velocity=0, time=11),
    Message('note_on', channel=0, note=57, velocity=0, time=15),
    Message('note_on', channel=0, note=29, velocity=77, time=22),
    Message('note_on', channel=0, note=57, velocity=127, time=0),
    Message('note_on', channel=0, note=60, velocity=127, time=0),
    Message('control_change', channel=0, control=64, value=0, time=0),
    Message('note_on', channel=0, note=65, velocity=122, time=0),
    Message('control_change', channel=0, control=64, value=127, time=47),
    Message('note_on', channel=0, note=29, velocity=0, time=36),
    Message('note_on', channel=0, note=65, velocity=0, time=3),
    Message('note_on', channel=0, note=57, velocity=0, time=2),
    Message('note_on', channel=0, note=60, velocity=0, time=4),
    Message('note_on', channel=0, note=58, velocity=127, time=100),
    Message('note_on', channel=0, note=63, velocity=110, time=0),
    Message('control_change', channel=0, control=64, value=0, time=1),
    Message('control_change', channel=0, control=64, value=127, time=47),
    Message('control_change', channel=0, control=64, value=0, time=48),
    Message('note_on', channel=0, note=58, velocity=0, time=22),
    Message('note_on', channel=0, note=63, velocity=0, time=2),
    Message('control_change', channel=0, control=64, value=127, time=0),
    Message('control_change', channel=0, control=64, value=0, time=43),
    Message('control_change', channel=0, control=64, value=0, time=19),
    Message('note_on', channel=0, note=34, velocity=100, time=10),
    Message('note_on', channel=0, note=53, velocity=67, time=0),
    Message('note_on', channel=0, note=58, velocity=83, time=0),
    Message('note_on', channel=0, note=62, velocity=75, time=0),
    Message('control_change', channel=0, control=64, value=127, time=77),
    Message('control_change', channel=0, control=64, value=127, time=40),
    Message('note_on', channel=0, note=53, velocity=0, time=103),
    Message('note_on', channel=0, note=58, velocity=0, time=0),
    Message('note_on', channel=0, note=34, velocity=0, time=5),
    Message('note_on', channel=0, note=62, velocity=0, time=3),
    Message('note_on', channel=0, note=34, velocity=59, time=60),
    Message('note_on', channel=0, note=34, velocity=0, time=54),
    Message('note_on', channel=0, note=34, velocity=87, time=42),
    Message('control_change', channel=0, control=64, value=0, time=16),
    Message('control_change', channel=0, control=64, value=127, time=20),
    Message('control_change', channel=0, control=64, value=0, time=128),
    Message('note_on', channel=0, note=34, velocity=0, time=103),
    Message('note_on', channel=0, note=34, velocity=57, time=21),
    Message('note_on', channel=0, note=53, velocity=79, time=0),
    Message('note_on', channel=0, note=34, velocity=0, time=22),
    Message('note_on', channel=0, note=58, velocity=80, time=26),
    Message('note_on', channel=0, note=53, velocity=0, time=8),
    Message('note_on', channel=0, note=58, velocity=0, time=24),
    Message('note_on', channel=0, note=34, velocity=100, time=16),
    Message('note_on', channel=0, note=55, velocity=81, time=0),
    Message('note_on', channel=0, note=58, velocity=87, time=0),
    Message('note_on', channel=0, note=63, velocity=83, time=0),
    Message('control_change', channel=0, control=64, value=0, time=6),
    Message('control_change', channel=0, control=64, value=127, time=71),
    Message('note_on', channel=0, note=34, velocity=0, time=161),
    Message('note_on', channel=0, note=34, velocity=51, time=50),
    Message('note_on', channel=0, note=34, velocity=0, time=61),
    Message('note_on', channel=0, note=34, velocity=80, time=35),
    Message('note_on', channel=0, note=55, velocity=0, time=50),
    Message('note_on', channel=0, note=58, velocity=0, time=31),
    Message('note_on', channel=0, note=63, velocity=0, time=7),
    Message('note_on', channel=0, note=55, velocity=108, time=8),
    Message('note_on', channel=0, note=58, velocity=100, time=48),
    Message('note_on', channel=0, note=63, velocity=110, time=48),
    Message('note_on', channel=0, note=58, velocity=0, time=12),
    Message('note_on', channel=0, note=58, velocity=100, time=36),
    Message('note_on', channel=0, note=55, velocity=0, time=10),
    Message('note_on', channel=0, note=34, velocity=0, time=14),
    Message('note_on', channel=0, note=55, velocity=104, time=24),
    Message('note_on', channel=0, note=58, velocity=0, time=15),
    Message('note_on', channel=0, note=63, velocity=0, time=3),
    Message('note_on', channel=0, note=34, velocity=27, time=30),
    Message('note_on', channel=0, note=55, velocity=0, time=19),
    Message('note_on', channel=0, note=34, velocity=0, time=4),
    Message('control_change', channel=0, control=64, value=0, time=19),
    Message('note_on', channel=0, note=33, velocity=64, time=6),
    Message('note_on', channel=0, note=53, velocity=68, time=0),
    Message('note_on', channel=0, note=57, velocity=77, time=0),
    Message('note_on', channel=0, note=60, velocity=75, time=0),
    Message('control_change', channel=0, control=64, value=127, time=76),
    Message('note_on', channel=0, note=33, velocity=0, time=119),
    Message('note_on', channel=0, note=33, velocity=71, time=93),
    Message('note_on', channel=0, note=33, velocity=0, time=42),
    Message('note_on', channel=0, note=33, velocity=68, time=54),
    Message('note_on', channel=0, note=53, velocity=0, time=19),
    Message('note_on', channel=0, note=57, velocity=0, time=21),
    Message('note_on', channel=0, note=60, velocity=0, time=14),
    Message('note_on', channel=0, note=33, velocity=0, time=48),
    Message('note_on', channel=0, note=33, velocity=83, time=90),
    Message('note_on', channel=0, note=57, velocity=117, time=0),
    Message('note_on', channel=0, note=60, velocity=127, time=0),
    Message('note_on', channel=0, note=65, velocity=117, time=0),
    Message('note_on', channel=0, note=33, velocity=0, time=93),
    Message('note_on', channel=0, note=60, velocity=0, time=3),
    Message('note_on', channel=0, note=65, velocity=0, time=4),
    Message('note_on', channel=0, note=57, velocity=0, time=2),
    Message('note_on', channel=0, note=34, velocity=76, time=90),
    Message('note_on', channel=0, note=53, velocity=71, time=0),
    Message('note_on', channel=0, note=58, velocity=73, time=0),
    Message('note_on', channel=0, note=62, velocity=83, time=0),
    Message('control_change', channel=0, control=64, value=0, time=1),
    Message('control_change', channel=0, control=64, value=127, time=79),
    Message('note_on', channel=0, note=34, velocity=0, time=146),
    Message('note_on', channel=0, note=34, velocity=44, time=62),
    Message('note_on', channel=0, note=34, velocity=0, time=50),
    Message('note_on', channel=0, note=34, velocity=104, time=46),
    Message('control_change', channel=0, control=64, value=0, time=7),
    Message('control_change', channel=0, control=64, value=127, time=47),
    Message('note_on', channel=0, note=34, velocity=0, time=87),
    Message('control_change', channel=0, control=64, value=0, time=47),
    Message('note_on', channel=0, note=33, velocity=79, time=4),
    Message('note_on', channel=0, note=53, velocity=0, time=0),
    Message('note_on', channel=0, note=58, velocity=0, time=0),
    Message('note_on', channel=0, note=62, velocity=0, time=0),
    Message('control_change', channel=0, control=64, value=127, time=24),
    Message('note_on', channel=0, note=33, velocity=0, time=76),
    Message('note_on', channel=0, note=31, velocity=77, time=92),
    Message('note_on', channel=0, note=55, velocity=73, time=0),
    Message('note_on', channel=0, note=58, velocity=73, time=0),
    Message('note_on', channel=0, note=62, velocity=88, time=0),
    Message('note_on', channel=0, note=67, velocity=71, time=0),
    Message('control_change', channel=0, control=64, value=0, time=1),
    Message('control_change', channel=0, control=64, value=127, time=55),
    Message('note_on', channel=0, note=31, velocity=0, time=181),
    Message('note_on', channel=0, note=31, velocity=57, time=51),
    Message('note_on', channel=0, note=31, velocity=0, time=70),
    Message('note_on', channel=0, note=31, velocity=83, time=26),
    Message('note_on', channel=0, note=55, velocity=0, time=51),
    Message('note_on', channel=0, note=31, velocity=0, time=91),
    Message('note_on', channel=0, note=31, velocity=64, time=50),
    Message('note_on', channel=0, note=58, velocity=0, time=34),
    Message('note_on', channel=0, note=62, velocity=0, time=13),
    Message('note_on', channel=0, note=67, velocity=0, time=27),
    Message('note_on', channel=0, note=31, velocity=0, time=6),
    Message('note_on', channel=0, note=31, velocity=81, time=16),
    Message('note_on', channel=0, note=55, velocity=88, time=0),
    Message('note_on', channel=0, note=58, velocity=87, time=0),
    Message('note_on', channel=0, note=62, velocity=101, time=0),
    Message('note_on', channel=0, note=67, velocity=91, time=0),
    Message('note_on', channel=0, note=58, velocity=0, time=44),
    Message('note_on', channel=0, note=62, velocity=0, time=0),
    Message('note_on', channel=0, note=31, velocity=0, time=3),
    Message('note_on', channel=0, note=67, velocity=0, time=24),
    Message('note_on', channel=0, note=55, velocity=0, time=6),
    Message('note_on', channel=0, note=36, velocity=73, time=19),
    Message('note_on', channel=0, note=55, velocity=67, time=0),
    Message('note_on', channel=0, note=60, velocity=83, time=0),
    Message('note_on', channel=0, note=63, velocity=68, time=0),
    Message('note_on', channel=0, note=67, velocity=79, time=0),
    Message('control_change', channel=0, control=64, value=0, time=6),
    Message('control_change', channel=0, control=64, value=127, time=67),
    Message('note_on', channel=0, note=36, velocity=0, time=125),
    Message('note_on', channel=0, note=36, velocity=75, time=90),
    Message('note_on', channel=0, note=36, velocity=0, time=56),
    Message('note_on', channel=0, note=36, velocity=79, time=40),
    Message('note_on', channel=0, note=55, velocity=0, time=48),
    Message('note_on', channel=0, note=55, velocity=53, time=48),
    Message('note_on', channel=0, note=60, velocity=0, time=3),
    Message('note_on', channel=0, note=36, velocity=0, time=42),
    Message('note_on', channel=0, note=63, velocity=0, time=4),
    Message('note_on', channel=0, note=67, velocity=0, time=15),
    Message('note_on', channel=0, note=55, velocity=0, time=8),
    Message('note_on', channel=0, note=36, velocity=88, time=24),
    Message('note_on', channel=0, note=55, velocity=108, time=0),
    Message('note_on', channel=0, note=60, velocity=127, time=0),
    Message('note_on', channel=0, note=63, velocity=100, time=0),
    Message('note_on', channel=0, note=67, velocity=101, time=0),
    Message('note_on', channel=0, note=36, velocity=0, time=87),
    Message('note_on', channel=0, note=55, velocity=0, time=27),
    Message('note_on', channel=0, note=67, velocity=0, time=4),
    Message('note_on', channel=0, note=63, velocity=0, time=16),
    Message('note_on', channel=0, note=60, velocity=0, time=2),
    Message('note_on', channel=0, note=32, velocity=91, time=56),
    Message('note_on', channel=0, note=56, velocity=76, time=0),
    Message('note_on', channel=0, note=60, velocity=101, time=0),
    Message('note_on', channel=0, note=63, velocity=87, time=0),
    Message('note_on', channel=0, note=68, velocity=87, time=0),
    Message('control_change', channel=0, control=64, value=0, time=5),
    Message('control_change', channel=0, control=64, value=127, time=76),
    Message('note_on', channel=0, note=32, velocity=0, time=155),
    Message('note_on', channel=0, note=32, velocity=95, time=52),
    Message('note_on', channel=0, note=32, velocity=0, time=64),
    Message('note_on', channel=0, note=32, velocity=100, time=32),
    Message('note_on', channel=0, note=56, velocity=0, time=28),
    Message('note_on', channel=0, note=60, velocity=0, time=49),
    Message('note_on', channel=0, note=63, velocity=0, time=10),
    Message('note_on', channel=0, note=56, velocity=46, time=9),
    Message('note_on', channel=0, note=32, velocity=0, time=2),
    Message('note_on', channel=0, note=56, velocity=0, time=40),
    Message('note_on', channel=0, note=68, velocity=0, time=3),
    Message('note_on', channel=0, note=32, velocity=110, time=51),
    Message('note_on', channel=0, note=56, velocity=100, time=0),
    Message('note_on', channel=0, note=60, velocity=117, time=0),
    Message('note_on', channel=0, note=63, velocity=76, time=0),
    Message('note_on', channel=0, note=68, velocity=87, time=0),
    Message('note_on', channel=0, note=32, velocity=0, time=45),
    Message('note_on', channel=0, note=56, velocity=0, time=51),
    Message('note_on', channel=0, note=68, velocity=0, time=5),
    Message('note_on', channel=0, note=60, velocity=0, time=37),
    Message('note_on', channel=0, note=63, velocity=0, time=5),
    Message('note_on', channel=0, note=29, velocity=97, time=49),
    Message('note_on', channel=0, note=57, velocity=94, time=0),
    Message('note_on', channel=0, note=60, velocity=108, time=0),
    Message('note_on', channel=0, note=65, velocity=101, time=0),
    Message('control_change', channel=0, control=64, value=0, time=18),
    Message('control_change', channel=0, control=64, value=127, time=63),
    Message('note_on', channel=0, note=29, velocity=0, time=158),
    Message('note_on', channel=0, note=29, velocity=94, time=49),
    Message('note_on', channel=0, note=29, velocity=0, time=63),
    Message('note_on', channel=0, note=29, velocity=117, time=33),
    Message('note_on', channel=0, note=29, velocity=0, time=99),
    Message('note_on', channel=0, note=60, velocity=0, time=28),
    Message('note_on', channel=0, note=65, velocity=0, time=2),
    Message('note_on', channel=0, note=57, velocity=0, time=4),
    Message('control_change', channel=0, control=64, value=0, time=136),
    Message('note_on', channel=0, note=49, velocity=110, time=8563),
    Message('note_on', channel=0, note=54, velocity=104, time=0),
    Message('note_on', channel=0, note=58, velocity=110, time=0),
    Message('note_on', channel=0, note=61, velocity=104, time=0),
    Message('note_on', channel=0, note=54, velocity=0, time=432),
    Message('note_on', channel=0, note=58, velocity=0, time=46),
    Message('note_on', channel=0, note=54, velocity=110, time=2),
    Message('note_on', channel=0, note=61, velocity=0, time=19),
    Message('note_on', channel=0, note=58, velocity=104, time=29),
    Message('control_change', channel=0, control=64, value=127, time=11),
    Message('note_on', channel=0, note=61, velocity=110, time=37),
    Message('note_on', channel=0, note=54, velocity=0, time=6),
    Message('note_on', channel=0, note=58, velocity=0, time=11),
    Message('note_on', channel=0, note=49, velocity=0, time=60),
    Message('note_on', channel=0, note=61, velocity=0, time=18),
    Message('control_change', channel=0, control=64, value=0, time=69),
    Message('note_on', channel=0, note=53, velocity=127, time=604),
    Message('note_on', channel=0, note=58, velocity=127, time=48),
    Message('note_on', channel=0, note=53, velocity=0, time=14),
    Message('control_change', channel=0, control=64, value=127, time=24),
    Message('note_on', channel=0, note=62, velocity=127, time=10),
    Message('note_on', channel=0, note=58, velocity=0, time=2),
    Message('control_change', channel=0, control=64, value=0, time=82),
    Message('note_on', channel=0, note=41, velocity=86, time=12),
    Message('note_on', channel=0, note=53, velocity=79, time=0),
    Message('note_on', channel=0, note=57, velocity=94, time=0),
    Message('note_on', channel=0, note=60, velocity=113, time=0),
    Message('note_on', channel=0, note=62, velocity=0, time=6),
    Message('note_on', channel=0, note=41, velocity=0, time=266),
    Message('note_on', channel=0, note=41, velocity=83, time=16),
    Message('note_on', channel=0, note=57, velocity=0, time=363),
    Message('note_on', channel=0, note=53, velocity=0, time=25),
    Message('note_on', channel=0, note=60, velocity=0, time=21),
    Message('note_on', channel=0, note=41, velocity=0, time=51),
    Message('note_on', channel=0, note=46, velocity=110, time=20),
    Message('note_on', channel=0, note=55, velocity=101, time=0),
    Message('note_on', channel=0, note=58, velocity=104, time=0),
    Message('note_on', channel=0, note=63, velocity=91, time=0),
    Message('control_change', channel=0, control=64, value=127, time=206),
    Message('note_on', channel=0, note=46, velocity=0, time=45),
    Message('note_on', channel=0, note=46, velocity=33, time=133),
    Message('note_on', channel=0, note=58, velocity=0, time=36),
    Message('note_on', channel=0, note=55, velocity=0, time=18),
    Message('note_on', channel=0, note=63, velocity=0, time=4),
    Message('note_on', channel=0, note=55, velocity=127, time=38),
    Message('note_on', channel=0, note=58, velocity=110, time=48),
    Message('note_on', channel=0, note=63, velocity=127, time=48),
    Message('note_on', channel=0, note=55, velocity=0, time=2),
    Message('note_on', channel=0, note=58, velocity=0, time=12),
    Message('note_on', channel=0, note=58, velocity=110, time=34),
    Message('note_on', channel=0, note=63, velocity=0, time=45),
    Message('note_on', channel=0, note=46, velocity=0, time=2),
    Message('note_on', channel=0, note=55, velocity=122, time=1),
    Message('note_on', channel=0, note=58, velocity=0, time=11),
    Message('note_on', channel=0, note=46, velocity=110, time=85),
    Message('note_on', channel=0, note=58, velocity=104, time=0),
    Message('note_on', channel=0, note=62, velocity=113, time=0),
    Message('note_on', channel=0, note=55, velocity=0, time=18),
    Message('control_change', channel=0, control=64, value=0, time=0),
    Message('control_change', channel=0, control=64, value=127, time=166),
    Message('note_on', channel=0, note=46, velocity=0, time=136),
    Message('note_on', channel=0, note=46, velocity=100, time=64),
    Message('note_on', channel=0, note=58, velocity=0, time=76),
    Message('note_on', channel=0, note=62, velocity=0, time=9),
    Message('note_on', channel=0, note=53, velocity=117, time=11),
    Message('control_change', channel=0, control=64, value=0, time=42),
    Message('note_on', channel=0, note=58, velocity=104, time=6),
    Message('control_change', channel=0, control=64, value=127, time=30),
    Message('note_on', channel=0, note=62, velocity=122, time=18),
    Message('note_on', channel=0, note=58, velocity=0, time=18),
    Message('note_on', channel=0, note=53, velocity=0, time=1),
    Message('note_on', channel=0, note=58, velocity=104, time=29),
    Message('control_change', channel=0, control=64, value=0, time=36),
    Message('note_on', channel=0, note=58, velocity=0, time=11),
    Message('note_on', channel=0, note=53, velocity=108, time=1),
    Message('note_on', channel=0, note=58, velocity=127, time=0),
    Message('note_on', channel=0, note=58, velocity=0, time=5),
    Message('note_on', channel=0, note=62, velocity=0, time=7),
    Message('note_on', channel=0, note=46, velocity=0, time=25),
    Message('control_change', channel=0, control=64, value=127, time=3),
    Message('note_on', channel=0, note=63, velocity=110, time=8),
    Message('note_on', channel=0, note=53, velocity=0, time=31),
    Message('control_change', channel=0, control=64, value=0, time=7),
    Message('note_on', channel=0, note=63, velocity=0, time=8),
    Message('note_on', channel=0, note=34, velocity=95, time=2),
    Message('note_on', channel=0, note=34, velocity=0, time=244),
    Message('note_on', channel=0, note=34, velocity=63, time=44),
    Message('note_on', channel=0, note=34, velocity=0, time=72),
    Message('note_on', channel=0, note=34, velocity=71, time=24),
    Message('note_on', channel=0, note=34, velocity=0, time=345),
    Message('note_on', channel=0, note=34, velocity=91, time=39),
    Message('note_on', channel=0, note=34, velocity=0, time=255),
    Message('note_on', channel=0, note=34, velocity=76, time=33),
    Message('note_on', channel=0, note=34, velocity=0, time=75),
    Message('note_on', channel=0, note=34, velocity=100, time=21),
    Message('note_on', channel=0, note=34, velocity=0, time=368),
    Message('note_on', channel=0, note=33, velocity=97, time=16),
    Message('note_on', channel=0, note=33, velocity=0, time=262),
    Message('note_on', channel=0, note=33, velocity=79, time=26),
    Message('note_on', channel=0, note=33, velocity=0, time=77),
    Message('note_on', channel=0, note=33, velocity=81, time=19),
    Message('note_on', channel=0, note=33, velocity=0, time=179),
    Message('note_on', channel=0, note=33, velocity=77, time=13),
    Message('note_on', channel=0, note=34, velocity=83, time=192),
    Message('note_on', channel=0, note=33, velocity=0, time=8),
    Message('note_on', channel=0, note=34, velocity=0, time=201),
    Message('note_on', channel=0, note=34, velocity=71, time=79),
    Message('note_on', channel=0, note=34, velocity=0, time=70),
    Message('note_on', channel=0, note=34, velocity=61, time=26),
    Message('note_on', channel=0, note=34, velocity=0, time=180),
    Message('note_on', channel=0, note=33, velocity=77, time=12),
    Message('note_on', channel=0, note=33, velocity=0, time=189),
    Message('note_on', channel=0, note=31, velocity=81, time=3),
    Message('note_on', channel=0, note=31, velocity=0, time=233),
    Message('note_on', channel=0, note=31, velocity=88, time=55),
    Message('note_on', channel=0, note=31, velocity=0, time=65),
    Message('note_on', channel=0, note=31, velocity=83, time=31),
    Message('note_on', channel=0, note=55, velocity=101, time=288),
    Message('note_on', channel=0, note=58, velocity=100, time=0),
    Message('note_on', channel=0, note=62, velocity=104, time=0),
    Message('note_on', channel=0, note=67, velocity=91, time=0),
    Message('note_on', channel=0, note=31, velocity=0, time=19),
    Message('control_change', channel=0, control=64, value=127, time=2),
    Message('note_on', channel=0, note=58, velocity=0, time=28),
    Message('note_on', channel=0, note=62, velocity=0, time=3),
    Message('note_on', channel=0, note=67, velocity=0, time=1),
    Message('note_on', channel=0, note=55, velocity=0, time=6),
    Message('note_on', channel=0, note=36, velocity=88, time=37),
    Message('note_on', channel=0, note=55, velocity=94, time=0),
    Message('note_on', channel=0, note=60, velocity=113, time=0),
    Message('note_on', channel=0, note=63, velocity=100, time=0),
    Message('control_change', channel=0, control=64, value=0, time=0),
    Message('note_on', channel=0, note=67, velocity=94, time=0),
    Message('control_change', channel=0, control=64, value=127, time=138),
    Message('note_on', channel=0, note=36, velocity=0, time=104),
    Message('note_on', channel=0, note=36, velocity=67, time=46),
    Message('note_on', channel=0, note=55, velocity=0, time=10),
    Message('note_on', channel=0, note=36, velocity=0, time=54),
    Message('note_on', channel=0, note=67, velocity=0, time=13),
    Message('note_on', channel=0, note=60, velocity=0, time=1),
    Message('note_on', channel=0, note=63, velocity=0, time=4),
    Message('note_on', channel=0, note=36, velocity=71, time=14),
    Message('control_change', channel=0, control=64, value=0, time=50),
    Message('note_on', channel=0, note=36, velocity=0, time=281),
    Message('note_on', channel=0, note=32, velocity=73, time=53),
    Message('note_on', channel=0, note=32, velocity=0, time=235),
    Message('note_on', channel=0, note=32, velocity=76, time=53),
    Message('note_on', channel=0, note=32, velocity=0, time=58),
    Message('note_on', channel=0, note=32, velocity=100, time=38),
    Message('note_on', channel=0, note=32, velocity=0, time=279),
    Message('note_on', channel=0, note=29, velocity=88, time=105),
    Message('note_on', channel=0, note=29, velocity=0, time=238),
    Message('control_change', channel=0, control=64, value=127, time=16),
    Message('note_on', channel=0, note=29, velocity=77, time=34),
    Message('note_on', channel=0, note=53, velocity=113, time=0),
    Message('note_on', channel=0, note=53, velocity=0, time=35),
    Message('note_on', channel=0, note=57, velocity=94, time=13),
    Message('note_on', channel=0, note=29, velocity=0, time=11),
    Message('note_on', channel=0, note=57, velocity=0, time=15),
    Message('note_on', channel=0, note=29, velocity=77, time=22),
    Message('note_on', channel=0, note=57, velocity=127, time=0),
    Message('note_on', channel=0, note=60, velocity=127, time=0),
    Message('control_change', channel=0, control=64, value=0, time=0),
    Message('note_on', channel=0, note=65, velocity=122, time=0),
    Message('control_change', channel=0, control=64, value=127, time=47),
    Message('note_on', channel=0, note=29, velocity=0, time=36),
    Message('note_on', channel=0, note=65, velocity=0, time=3),
    Message('note_on', channel=0, note=57, velocity=0, time=2),
    Message('note_on', channel=0, note=60, velocity=0, time=4),
    Message('note_on', channel=0, note=58, velocity=127, time=100),
    Message('note_on', channel=0, note=63, velocity=110, time=0),
    Message('control_change', channel=0, control=64, value=0, time=1),
    Message('control_change', channel=0, control=64, value=127, time=47),
    Message('control_change', channel=0, control=64, value=0, time=48),
    Message('note_on', channel=0, note=58, velocity=0, time=22),
    Message('note_on', channel=0, note=63, velocity=0, time=2),
    Message('control_change', channel=0, control=64, value=127, time=0),
    Message('control_change', channel=0, control=64, value=0, time=43),
    Message('control_change', channel=0, control=64, value=0, time=19),
    Message('note_on', channel=0, note=34, velocity=99, time=10),
    Message('note_on', channel=0, note=53, velocity=99, time=0),
    Message('note_on', channel=0, note=58, velocity=99, time=0),
    Message('note_on', channel=0, note=62, velocity=99, time=0),
    Message('control_change', channel=0, control=64, value=127, time=77),
    Message('control_change', channel=0, control=64, value=127, time=40),
    Message('note_on', channel=0, note=53, velocity=0, time=103),
    Message('note_on', channel=0, note=58, velocity=0, time=0),
    Message('note_on', channel=0, note=34, velocity=0, time=5),
    Message('note_on', channel=0, note=62, velocity=0, time=3),
    Message('note_on', channel=0, note=34, velocity=74, time=60),
    Message('note_on', channel=0, note=34, velocity=0, time=54),
    Message('note_on', channel=0, note=34, velocity=74, time=42),
    Message('control_change', channel=0, control=64, value=0, time=16),
    Message('control_change', channel=0, control=64, value=127, time=20),
    Message('control_change', channel=0, control=64, value=0, time=128),
    Message('note_on', channel=0, note=34, velocity=0, time=103),
    Message('note_on', channel=0, note=34, velocity=74, time=21),
    Message('note_on', channel=0, note=53, velocity=81, time=0),
    Message('note_on', channel=0, note=34, velocity=0, time=22),
    Message('note_on', channel=0, note=58, velocity=85, time=26),
    Message('note_on', channel=0, note=53, velocity=0, time=8),
    Message('note_on', channel=0, note=58, velocity=0, time=24),
    Message('note_on', channel=0, note=34, velocity=99, time=16),
    Message('note_on', channel=0, note=55, velocity=99, time=0),
    Message('note_on', channel=0, note=58, velocity=99, time=0),
    Message('note_on', channel=0, note=63, velocity=99, time=0),
    Message('control_change', channel=0, control=64, value=0, time=6),
    Message('control_change', channel=0, control=64, value=127, time=71),
    Message('note_on', channel=0, note=34, velocity=0, time=211),
    Message('note_on', channel=0, note=34, velocity=51, time=0),
    Message('note_on', channel=0, note=34, velocity=0, time=61),
    Message('note_on', channel=0, note=34, velocity=80, time=35),
    Message('note_on', channel=0, note=55, velocity=0, time=80),
    Message('note_on', channel=0, note=58, velocity=0, time=0),
    Message('note_on', channel=0, note=63, velocity=0, time=0),
    Message('note_on', channel=0, note=55, velocity=108, time=16),
    Message('note_on', channel=0, note=58, velocity=100, time=48),
    Message('note_on', channel=0, note=63, velocity=110, time=48),
    Message('note_on', channel=0, note=58, velocity=0, time=12),
    Message('note_on', channel=0, note=58, velocity=100, time=36),
    Message('note_on', channel=0, note=55, velocity=0, time=10),
    Message('note_on', channel=0, note=34, velocity=0, time=14),
    Message('note_on', channel=0, note=55, velocity=104, time=24),
    Message('note_on', channel=0, note=58, velocity=0, time=15),
    Message('note_on', channel=0, note=63, velocity=0, time=3),
    Message('note_on', channel=0, note=34, velocity=27, time=30),
    Message('note_on', channel=0, note=55, velocity=0, time=19),
    Message('note_on', channel=0, note=34, velocity=0, time=4),
    Message('control_change', channel=0, control=64, value=0, time=19),
    Message('note_on', channel=0, note=33, velocity=64, time=6),
    Message('note_on', channel=0, note=53, velocity=68, time=0),
    Message('note_on', channel=0, note=57, velocity=77, time=0),
    Message('note_on', channel=0, note=60, velocity=75, time=0),
    Message('control_change', channel=0, control=64, value=127, time=76),
    Message('note_on', channel=0, note=33, velocity=0, time=119),
    Message('note_on', channel=0, note=33, velocity=71, time=93),
    Message('note_on', channel=0, note=33, velocity=0, time=42),
    Message('note_on', channel=0, note=33, velocity=68, time=54),
    Message('note_on', channel=0, note=53, velocity=0, time=19),
    Message('note_on', channel=0, note=57, velocity=0, time=21),
    Message('note_on', channel=0, note=60, velocity=0, time=14),
    Message('note_on', channel=0, note=33, velocity=0, time=48),
    Message('note_on', channel=0, note=33, velocity=83, time=90),
    Message('note_on', channel=0, note=57, velocity=117, time=0),
    Message('note_on', channel=0, note=60, velocity=127, time=0),
    Message('note_on', channel=0, note=65, velocity=117, time=0),
    Message('note_on', channel=0, note=33, velocity=0, time=93),
    Message('note_on', channel=0, note=60, velocity=0, time=3),
    Message('note_on', channel=0, note=65, velocity=0, time=4),
    Message('note_on', channel=0, note=57, velocity=0, time=2),
    Message('note_on', channel=0, note=34, velocity=76, time=90),
    Message('note_on', channel=0, note=53, velocity=71, time=0),
    Message('note_on', channel=0, note=58, velocity=73, time=0),
    Message('note_on', channel=0, note=62, velocity=83, time=0),
    Message('control_change', channel=0, control=64, value=0, time=1),
    Message('control_change', channel=0, control=64, value=127, time=79),
    Message('note_on', channel=0, note=34, velocity=0, time=146),
    Message('note_on', channel=0, note=34, velocity=44, time=62),
    Message('note_on', channel=0, note=34, velocity=0, time=50),
    Message('note_on', channel=0, note=34, velocity=104, time=46),
    Message('control_change', channel=0, control=64, value=0, time=7),
    Message('control_change', channel=0, control=64, value=127, time=47),
    Message('note_on', channel=0, note=34, velocity=0, time=87),
    Message('control_change', channel=0, control=64, value=0, time=47),
    Message('note_on', channel=0, note=33, velocity=79, time=4),
    Message('control_change', channel=0, control=64, value=127, time=24),
    Message('note_on', channel=0, note=62, velocity=0, time=32),
    Message('note_on', channel=0, note=33, velocity=0, time=44),
    Message('note_on', channel=0, note=53, velocity=0, time=2),
    Message('note_on', channel=0, note=58, velocity=0, time=0),
    Message('note_on', channel=0, note=31, velocity=77, time=90),
    Message('note_on', channel=0, note=55, velocity=73, time=0),
    Message('note_on', channel=0, note=58, velocity=73, time=0),
    Message('note_on', channel=0, note=62, velocity=88, time=0),
    Message('note_on', channel=0, note=67, velocity=71, time=0),
    Message('control_change', channel=0, control=64, value=0, time=1),
    Message('control_change', channel=0, control=64, value=127, time=55),
    Message('note_on', channel=0, note=31, velocity=0, time=181),
    Message('note_on', channel=0, note=31, velocity=57, time=51),
    Message('note_on', channel=0, note=31, velocity=0, time=70),
    Message('note_on', channel=0, note=31, velocity=83, time=26),
    Message('note_on', channel=0, note=55, velocity=0, time=51),
    Message('note_on', channel=0, note=31, velocity=0, time=91),
    Message('note_on', channel=0, note=31, velocity=64, time=50),
    Message('note_on', channel=0, note=58, velocity=0, time=34),
    Message('note_on', channel=0, note=62, velocity=0, time=13),
    Message('note_on', channel=0, note=67, velocity=0, time=27),
    Message('note_on', channel=0, note=31, velocity=0, time=6),
    Message('note_on', channel=0, note=31, velocity=81, time=16),
    Message('note_on', channel=0, note=55, velocity=88, time=0),
    Message('note_on', channel=0, note=58, velocity=87, time=0),
    Message('note_on', channel=0, note=62, velocity=101, time=0),
    Message('note_on', channel=0, note=67, velocity=91, time=0),
    Message('note_on', channel=0, note=58, velocity=0, time=44),
    Message('note_on', channel=0, note=62, velocity=0, time=0),
    Message('note_on', channel=0, note=31, velocity=0, time=3),
    Message('note_on', channel=0, note=67, velocity=0, time=24),
    Message('note_on', channel=0, note=55, velocity=0, time=6),
    Message('note_on', channel=0, note=36, velocity=73, time=19),
    Message('note_on', channel=0, note=55, velocity=67, time=0),
    Message('note_on', channel=0, note=60, velocity=83, time=0),
    Message('note_on', channel=0, note=63, velocity=68, time=0),
    Message('note_on', channel=0, note=67, velocity=79, time=0),
    Message('control_change', channel=0, control=64, value=0, time=6),
    Message('control_change', channel=0, control=64, value=127, time=67),
    Message('note_on', channel=0, note=36, velocity=0, time=125),
    Message('note_on', channel=0, note=36, velocity=75, time=90),
    Message('note_on', channel=0, note=36, velocity=0, time=56),
    Message('note_on', channel=0, note=36, velocity=79, time=40),
    Message('note_on', channel=0, note=55, velocity=0, time=48),
    Message('note_on', channel=0, note=55, velocity=53, time=48),
    Message('note_on', channel=0, note=60, velocity=0, time=3),
    Message('note_on', channel=0, note=36, velocity=0, time=42),
    Message('note_on', channel=0, note=63, velocity=0, time=4),
    Message('note_on', channel=0, note=67, velocity=0, time=15),
    Message('note_on', channel=0, note=55, velocity=0, time=8),
    Message('note_on', channel=0, note=36, velocity=88, time=24),
    Message('note_on', channel=0, note=55, velocity=108, time=0),
    Message('note_on', channel=0, note=60, velocity=127, time=0),
    Message('note_on', channel=0, note=63, velocity=100, time=0),
    Message('note_on', channel=0, note=67, velocity=101, time=0),
    Message('note_on', channel=0, note=36, velocity=0, time=87),
    Message('note_on', channel=0, note=55, velocity=0, time=27),
    Message('note_on', channel=0, note=67, velocity=0, time=4),
    Message('note_on', channel=0, note=63, velocity=0, time=16),
    Message('note_on', channel=0, note=60, velocity=0, time=2),
    Message('note_on', channel=0, note=32, velocity=91, time=56),
    Message('note_on', channel=0, note=56, velocity=76, time=0),
    Message('note_on', channel=0, note=60, velocity=101, time=0),
    Message('note_on', channel=0, note=63, velocity=87, time=0),
    Message('note_on', channel=0, note=68, velocity=87, time=0),
    Message('control_change', channel=0, control=64, value=0, time=5),
    Message('control_change', channel=0, control=64, value=127, time=76),
    Message('note_on', channel=0, note=32, velocity=0, time=155),
    Message('note_on', channel=0, note=32, velocity=95, time=52),
    Message('note_on', channel=0, note=32, velocity=0, time=64),
    Message('note_on', channel=0, note=32, velocity=100, time=32),
    Message('note_on', channel=0, note=56, velocity=0, time=28),
    Message('note_on', channel=0, note=60, velocity=0, time=49),
    Message('note_on', channel=0, note=63, velocity=0, time=10),
    Message('note_on', channel=0, note=56, velocity=46, time=9),
    Message('note_on', channel=0, note=32, velocity=0, time=2),
    Message('note_on', channel=0, note=56, velocity=0, time=40),
    Message('note_on', channel=0, note=68, velocity=0, time=3),
    Message('note_on', channel=0, note=32, velocity=110, time=51),
    Message('note_on', channel=0, note=56, velocity=100, time=0),
    Message('note_on', channel=0, note=60, velocity=117, time=0),
    Message('note_on', channel=0, note=63, velocity=76, time=0),
    Message('note_on', channel=0, note=68, velocity=87, time=0),
    Message('note_on', channel=0, note=32, velocity=0, time=45),
    Message('note_on', channel=0, note=56, velocity=0, time=51),
    Message('note_on', channel=0, note=68, velocity=0, time=5),
    Message('note_on', channel=0, note=60, velocity=0, time=37),
    Message('note_on', channel=0, note=63, velocity=0, time=5),
    Message('note_on', channel=0, note=29, velocity=97, time=49),
    Message('note_on', channel=0, note=57, velocity=94, time=0),
    Message('note_on', channel=0, note=60, velocity=108, time=0),
    Message('note_on', channel=0, note=65, velocity=101, time=0),
    Message('control_change', channel=0, control=64, value=0, time=18),
    Message('control_change', channel=0, control=64, value=127, time=63),
    Message('note_on', channel=0, note=29, velocity=0, time=158),
    Message('note_on', channel=0, note=29, velocity=94, time=49),
    Message('note_on', channel=0, note=29, velocity=0, time=63),
    Message('note_on', channel=0, note=29, velocity=117, time=33),
    Message('note_on', channel=0, note=29, velocity=0, time=99),
    Message('note_on', channel=0, note=60, velocity=0, time=28),
    Message('note_on', channel=0, note=65, velocity=0, time=2),
    Message('note_on', channel=0, note=57, velocity=0, time=4),
    Message('control_change', channel=0, control=64, value=0, time=136),
    Message('note_on', channel=0, note=46, velocity=127, time=115),
    Message('note_on', channel=0, note=58, velocity=104, time=0),
    Message('note_on', channel=0, note=62, velocity=127, time=0),
    Message('note_on', channel=0, note=65, velocity=108, time=0),
    Message('note_on', channel=0, note=46, velocity=0, time=24),
    Message('note_on', channel=0, note=65, velocity=0, time=2),
    Message('note_on', channel=0, note=62, velocity=0, time=1),
    Message('note_on', channel=0, note=58, velocity=0, time=1),
    Message('note_on', channel=0, note=46, velocity=127, time=548),
    Message('note_on', channel=0, note=55, velocity=101, time=0),
    Message('note_on', channel=0, note=58, velocity=110, time=0),
    Message('note_on', channel=0, note=63, velocity=110, time=0),
    Message('note_on', channel=0, note=58, velocity=0, time=178),
    Message('note_on', channel=0, note=63, velocity=0, time=0),
    Message('note_on', channel=0, note=46, velocity=0, time=6),
    Message('note_on', channel=0, note=55, velocity=0, time=3),
    Message('note_on', channel=0, note=46, velocity=110, time=5),
    Message('note_on', channel=0, note=58, velocity=104, time=0),
    Message('note_on', channel=0, note=62, velocity=127, time=0),
    Message('note_on', channel=0, note=53, velocity=97, time=480),
    Message('note_on', channel=0, note=58, velocity=0, time=2),
    Message('note_on', channel=0, note=62, velocity=0, time=6),
    Message('note_on', channel=0, note=58, velocity=110, time=40),
    Message('note_on', channel=0, note=62, velocity=127, time=48),
    Message('note_on', channel=0, note=58, velocity=0, time=15),
    Message('note_on', channel=0, note=58, velocity=87, time=33),
    Message('note_on', channel=0, note=53, velocity=0, time=19),
    Message('control_change', channel=0, control=64, value=127, time=3),
    Message('note_on', channel=0, note=62, velocity=0, time=10),
    Message('note_on', channel=0, note=53, velocity=113, time=16),
    Message('note_on', channel=0, note=58, velocity=0, time=7),
    Message('note_on', channel=0, note=46, velocity=0, time=1),
    Message('note_on', channel=0, note=53, velocity=0, time=17),
    Message('note_on', channel=0, note=46, velocity=110, time=71),
    Message('note_on', channel=0, note=56, velocity=87, time=0),
    Message('note_on', channel=0, note=60, velocity=127, time=0),
    Message('note_on', channel=0, note=63, velocity=95, time=0),
    Message('control_change', channel=0, control=64, value=0, time=16),
    Message('control_change', channel=0, control=64, value=127, time=146),
    Message('note_on', channel=0, note=46, velocity=0, time=87),
    Message('note_on', channel=0, note=46, velocity=104, time=39),
    Message('note_on', channel=0, note=46, velocity=0, time=58),
    Message('note_on', channel=0, note=46, velocity=110, time=38),
    Message('control_change', channel=0, control=64, value=0, time=6),
    Message('control_change', channel=0, control=64, value=127, time=35),
    Message('note_on', channel=0, note=63, velocity=0, time=13),
    Message('note_on', channel=0, note=56, velocity=0, time=4),
    Message('note_on', channel=0, note=60, velocity=0, time=7),
    Message('note_on', channel=0, note=56, velocity=104, time=31),
    Message('note_on', channel=0, note=60, velocity=122, time=48),
    Message('note_on', channel=0, note=56, velocity=0, time=6),
    Message('note_on', channel=0, note=60, velocity=0, time=39),
    Message('note_on', channel=0, note=63, velocity=127, time=3),
    Message('note_on', channel=0, note=63, velocity=0, time=93),
    Message('note_on', channel=0, note=60, velocity=127, time=3),
    Message('note_on', channel=0, note=46, velocity=0, time=18),
    Message('note_on', channel=0, note=56, velocity=83, time=30),
    Message('note_on', channel=0, note=60, velocity=0, time=5),
    Message('note_on', channel=0, note=46, velocity=110, time=43),
    Message('control_change', channel=0, control=64, value=0, time=0),
    Message('control_change', channel=0, control=64, value=127, time=154),
    Message('note_on', channel=0, note=46, velocity=0, time=61),
    Message('note_on', channel=0, note=46, velocity=104, time=73),
    Message('control_change', channel=0, control=64, value=0, time=8),
    Message('control_change', channel=0, control=64, value=127, time=47),
    Message('note_on', channel=0, note=46, velocity=0, time=12),
    Message('note_on', channel=0, note=46, velocity=110, time=29),
    Message('control_change', channel=0, control=64, value=0, time=2),
    Message('control_change', channel=0, control=64, value=127, time=36),
    Message('note_on', channel=0, note=56, velocity=0, time=40),
    Message('note_on', channel=0, note=56, velocity=104, time=18),
    Message('note_on', channel=0, note=60, velocity=117, time=48),
    Message('note_on', channel=0, note=56, velocity=0, time=36),
    Message('note_on', channel=0, note=63, velocity=95, time=12),
    Message('note_on', channel=0, note=60, velocity=0, time=9),
    Message('note_on', channel=0, note=63, velocity=0, time=86),
    Message('note_on', channel=0, note=56, velocity=80, time=1),
    Message('note_on', channel=0, note=46, velocity=0, time=2),
    Message('note_on', channel=0, note=56, velocity=0, time=24),
    Message('note_on', channel=0, note=51, velocity=110, time=70),
    Message('note_on', channel=0, note=55, velocity=101, time=0),
    Message('note_on', channel=0, note=58, velocity=110, time=0),
    Message('note_on', channel=0, note=63, velocity=104, time=0),
    Message('control_change', channel=0, control=64, value=0, time=0),
    Message('control_change', channel=0, control=64, value=127, time=146),
    Message('note_on', channel=0, note=51, velocity=0, time=72),
    Message('note_on', channel=0, note=51, velocity=110, time=70),
    Message('control_change', channel=0, control=64, value=0, time=0),
    Message('control_change', channel=0, control=64, value=127, time=20),
    Message('note_on', channel=0, note=51, velocity=0, time=38),
    Message('note_on', channel=0, note=51, velocity=110, time=38),
    Message('control_change', channel=0, control=64, value=0, time=3),
    Message('control_change', channel=0, control=64, value=127, time=40),
    Message('note_on', channel=0, note=55, velocity=0, time=42),
    Message('note_on', channel=0, note=58, velocity=0, time=16),
    Message('note_on', channel=0, note=63, velocity=0, time=9),
    Message('note_on', channel=0, note=51, velocity=0, time=173),
    Message('control_change', channel=0, control=64, value=0, time=99),
    Message('note_on', channel=0, note=51, velocity=110, time=2),
    Message('note_on', channel=0, note=55, velocity=104, time=0),
    Message('note_on', channel=0, note=58, velocity=110, time=0),
    Message('note_on', channel=0, note=63, velocity=100, time=0),
    Message('control_change', channel=0, control=64, value=127, time=132),
    Message('note_on', channel=0, note=51, velocity=0, time=81),
    Message('note_on', channel=0, note=51, velocity=95, time=75),
    Message('note_on', channel=0, note=51, velocity=0, time=52),
    Message('note_on', channel=0, note=51, velocity=104, time=44),
    Message('control_change', channel=0, control=64, value=0, time=0),
    Message('note_on', channel=0, note=55, velocity=0, time=48),
    Message('control_change', channel=0, control=64, value=127, time=3),
    Message('note_on', channel=0, note=58, velocity=0, time=119),
    Message('note_on', channel=0, note=55, velocity=63, time=22),
    Message('note_on', channel=0, note=58, velocity=59, time=0),
    Message('note_on', channel=0, note=58, velocity=0, time=70),
    Message('note_on', channel=0, note=55, velocity=0, time=2),
    Message('note_on', channel=0, note=51, velocity=0, time=15),
    Message('note_on', channel=0, note=63, velocity=0, time=7),
    Message('note_on', channel=0, note=51, velocity=110, time=98),
    Message('note_on', channel=0, note=57, velocity=97, time=0),
    Message('note_on', channel=0, note=60, velocity=127, time=0),
    Message('note_on', channel=0, note=65, velocity=117, time=0),
    Message('control_change', channel=0, control=64, value=0, time=12),
    Message('control_change', channel=0, control=64, value=127, time=165),
    Message('note_on', channel=0, note=51, velocity=0, time=37),
    Message('control_change', channel=0, control=64, value=0, time=69),
    Message('note_on', channel=0, note=51, velocity=91, time=5),
    Message('control_change', channel=0, control=64, value=127, time=23),
    Message('note_on', channel=0, note=51, velocity=0, time=38),
    Message('note_on', channel=0, note=51, velocity=100, time=35),
    Message('control_change', channel=0, control=64, value=0, time=9),
    Message('control_change', channel=0, control=64, value=127, time=36),
    Message('note_on', channel=0, note=57, velocity=0, time=5),
    Message('note_on', channel=0, note=60, velocity=0, time=16),
    Message('note_on', channel=0, note=57, velocity=113, time=30),
    Message('note_on', channel=0, note=65, velocity=0, time=9),
    Message('note_on', channel=0, note=60, velocity=127, time=39),
    Message('note_on', channel=0, note=65, velocity=127, time=48),
    Message('note_on', channel=0, note=60, velocity=0, time=15),
    Message('note_on', channel=0, note=57, velocity=0, time=1),
    Message('note_on', channel=0, note=60, velocity=127, time=32),
    Message('note_on', channel=0, note=60, velocity=0, time=41),
    Message('note_on', channel=0, note=57, velocity=117, time=7),
    Message('note_on', channel=0, note=51, velocity=0, time=8),
    Message('note_on', channel=0, note=51, velocity=110, time=88),
    Message('control_change', channel=0, control=64, value=0, time=4),
    Message('control_change', channel=0, control=64, value=127, time=114),
    Message('note_on', channel=0, note=57, velocity=0, time=3),
    Message('note_on', channel=0, note=65, velocity=0, time=25),
    Message('note_on', channel=0, note=51, velocity=0, time=73),
    Message('note_on', channel=0, note=51, velocity=104, time=69),
    Message('control_change', channel=0, control=64, value=0, time=8),
    Message('control_change', channel=0, control=64, value=127, time=48),
    Message('note_on', channel=0, note=51, velocity=0, time=26),
    Message('note_on', channel=0, note=51, velocity=110, time=14),
    Message('control_change', channel=0, control=64, value=0, time=11),
    Message('control_change', channel=0, control=64, value=127, time=47),
    Message('note_on', channel=0, note=51, velocity=0, time=234),
    Message('note_on', channel=0, note=50, velocity=122, time=92),
    Message('control_change', channel=0, control=64, value=0, time=5),
    Message('control_change', channel=0, control=64, value=127, time=99),
    Message('note_on', channel=0, note=50, velocity=0, time=112),
    Message('note_on', channel=0, note=50, velocity=122, time=72),
    Message('control_change', channel=0, control=64, value=0, time=9),
    Message('control_change', channel=0, control=64, value=127, time=35),
    Message('note_on', channel=0, note=50, velocity=0, time=32),
    Message('note_on', channel=0, note=50, velocity=127, time=20),
    Message('control_change', channel=0, control=64, value=0, time=0),
    Message('control_change', channel=0, control=64, value=127, time=31),
    Message('note_on', channel=0, note=58, velocity=127, time=161),
    Message('note_on', channel=0, note=58, velocity=0, time=47),
    Message('note_on', channel=0, note=62, velocity=127, time=1),
    Message('note_on', channel=0, note=50, velocity=0, time=46),
    Message('note_on', channel=0, note=58, velocity=100, time=2),
    Message('note_on', channel=0, note=62, velocity=0, time=7),
    Message('note_on', channel=0, note=58, velocity=0, time=22),
    Message('note_on', channel=0, note=43, velocity=113, time=67),
    Message('note_on', channel=0, note=55, velocity=104, time=0),
    Message('note_on', channel=0, note=59, velocity=127, time=0),
    Message('note_on', channel=0, note=62, velocity=117, time=0),
    Message('control_change', channel=0, control=64, value=0, time=2),
    Message('control_change', channel=0, control=64, value=127, time=114),
    Message('note_on', channel=0, note=43, velocity=0, time=96),
    Message('note_on', channel=0, note=43, velocity=108, time=76),
    Message('control_change', channel=0, control=64, value=0, time=1),
    Message('control_change', channel=0, control=64, value=127, time=40),
    Message('note_on', channel=0, note=43, velocity=0, time=22),
    Message('control_change', channel=0, control=64, value=0, time=21),
    Message('note_on', channel=0, note=43, velocity=122, time=12),
    Message('control_change', channel=0, control=64, value=127, time=19),
    Message('note_on', channel=0, note=55, velocity=0, time=14),
    Message('note_on', channel=0, note=59, velocity=0, time=4),
    Message('note_on', channel=0, note=62, velocity=0, time=4),
    Message('note_on', channel=0, note=55, velocity=122, time=55),
    Message('note_on', channel=0, note=59, velocity=127, time=48),
    Message('note_on', channel=0, note=55, velocity=0, time=9),
    Message('note_on', channel=0, note=62, velocity=127, time=39),
    Message('note_on', channel=0, note=59, velocity=0, time=12),
    Message('note_on', channel=0, note=43, velocity=0, time=59),
    Message('note_on', channel=0, note=43, velocity=91, time=25),
    Message('note_on', channel=0, note=59, velocity=61, time=0),
    Message('note_on', channel=0, note=59, velocity=0, time=12),
    Message('note_on', channel=0, note=62, velocity=0, time=6),
    Message('note_on', channel=0, note=43, velocity=0, time=7),
    Message('note_on', channel=0, note=48, velocity=127, time=71),
    Message('note_on', channel=0, note=60, velocity=127, time=0),
    Message('note_on', channel=0, note=63, velocity=110, time=0),
    Message('control_change', channel=0, control=64, value=0, time=17),
    Message('control_change', channel=0, control=64, value=127, time=114),
    Message('note_on', channel=0, note=48, velocity=0, time=79),
    Message('note_on', channel=0, note=48, velocity=101, time=78),
    Message('note_on', channel=0, note=48, velocity=0, time=43),
    Message('control_change', channel=0, control=64, value=0, time=40),
    Message('note_on', channel=0, note=48, velocity=117, time=13),
    Message('control_change', channel=0, control=64, value=127, time=31),
    Message('note_on', channel=0, note=60, velocity=0, time=121),
    Message('note_on', channel=0, note=63, velocity=0, time=2),
    Message('note_on', channel=0, note=60, velocity=127, time=38),
    Message('note_on', channel=0, note=63, velocity=104, time=0),
    Message('control_change', channel=0, control=64, value=0, time=4),
    Message('control_change', channel=0, control=64, value=127, time=40),
    Message('note_on', channel=0, note=60, velocity=0, time=52),
    Message('note_on', channel=0, note=48, velocity=0, time=9),
    Message('note_on', channel=0, note=63, velocity=0, time=4),
    Message('note_on', channel=0, note=42, velocity=95, time=83),
    Message('note_on', channel=0, note=58, velocity=110, time=0),
    Message('note_on', channel=0, note=61, velocity=110, time=0),
    Message('control_change', channel=0, control=64, value=0, time=5),
    Message('control_change', channel=0, control=64, value=127, time=138),
    Message('note_on', channel=0, note=42, velocity=0, time=76),
    Message('control_change', channel=0, control=64, value=0, time=66),
    Message('note_on', channel=0, note=42, velocity=91, time=3),
    Message('control_change', channel=0, control=64, value=127, time=32),
    Message('note_on', channel=0, note=42, velocity=0, time=24),
    Message('control_change', channel=0, control=64, value=0, time=39),
    Message('note_on', channel=0, note=42, velocity=100, time=1),
    Message('control_change', channel=0, control=64, value=127, time=27),
    Message('note_on', channel=0, note=58, velocity=0, time=106),
    Message('note_on', channel=0, note=61, velocity=0, time=1),
    Message('note_on', channel=0, note=58, velocity=110, time=58),
    Message('note_on', channel=0, note=61, velocity=127, time=0),
    Message('note_on', channel=0, note=42, velocity=0, time=38),
    Message('note_on', channel=0, note=58, velocity=0, time=33),
    Message('note_on', channel=0, note=61, velocity=0, time=2),
    Message('note_on', channel=0, note=41, velocity=113, time=119),
    Message('control_change', channel=0, control=64, value=0, time=6),
    Message('control_change', channel=0, control=64, value=127, time=55),
    Message('note_on', channel=0, note=41, velocity=0, time=172),
    Message('note_on', channel=0, note=41, velocity=88, time=55),
    Message('note_on', channel=0, note=41, velocity=0, time=55),
    Message('note_on', channel=0, note=41, velocity=97, time=41),
    Message('control_change', channel=0, control=64, value=0, time=4),
    Message('control_change', channel=0, control=64, value=127, time=28),
    Message('note_on', channel=0, note=53, velocity=122, time=64),
    Message('note_on', channel=0, note=58, velocity=110, time=48),
    Message('note_on', channel=0, note=53, velocity=0, time=18),
    Message('note_on', channel=0, note=62, velocity=127, time=30),
    Message('note_on', channel=0, note=58, velocity=0, time=5),
    Message('note_on', channel=0, note=58, velocity=83, time=43),
    Message('note_on', channel=0, note=62, velocity=0, time=29),
    Message('note_on', channel=0, note=41, velocity=0, time=9),
    Message('note_on', channel=0, note=53, velocity=97, time=10),
    Message('note_on', channel=0, note=58, velocity=0, time=5),
    Message('note_on', channel=0, note=53, velocity=0, time=42),
    Message('control_change', channel=0, control=64, value=0, time=46),
    Message('note_on', channel=0, note=41, velocity=122, time=3),
    Message('note_on', channel=0, note=53, velocity=108, time=0),
    Message('note_on', channel=0, note=57, velocity=127, time=0),
    Message('note_on', channel=0, note=60, velocity=127, time=0),
    Message('control_change', channel=0, control=64, value=127, time=104),
    Message('note_on', channel=0, note=41, velocity=0, time=120),
    Message('note_on', channel=0, note=41, velocity=88, time=64),
    Message('note_on', channel=0, note=41, velocity=0, time=48),
    Message('note_on', channel=0, note=41, velocity=104, time=48),
    Message('control_change', channel=0, control=64, value=0, time=27),
    Message('control_change', channel=0, control=64, value=127, time=31),
    Message('note_on', channel=0, note=53, velocity=0, time=38),
    Message('note_on', channel=0, note=57, velocity=0, time=30),
    Message('note_on', channel=0, note=60, velocity=0, time=34),
    Message('note_on', channel=0, note=53, velocity=127, time=32),
    Message('note_on', channel=0, note=53, velocity=0, time=40),
    Message('note_on', channel=0, note=57, velocity=127, time=8),
    Message('note_on', channel=0, note=57, velocity=0, time=41),
    Message('note_on', channel=0, note=60, velocity=127, time=7),
    Message('note_on', channel=0, note=41, velocity=0, time=10),
    Message('note_on', channel=0, note=60, velocity=0, time=28),
    Message('control_change', channel=0, control=64, value=0, time=15),
    Message('note_on', channel=0, note=46, velocity=127, time=43),
    Message('note_on', channel=0, note=53, velocity=108, time=0),
    Message('note_on', channel=0, note=58, velocity=110, time=0),
    Message('note_on', channel=0, note=62, velocity=127, time=0),
    Message('control_change', channel=0, control=64, value=127, time=210),
    Message('note_on', channel=0, note=46, velocity=0, time=39),
    Message('note_on', channel=0, note=46, velocity=87, time=39),
    Message('note_on', channel=0, note=46, velocity=0, time=31),
    Message('control_change', channel=0, control=64, value=0, time=55),
    Message('note_on', channel=0, note=46, velocity=104, time=10),
    Message('control_change', channel=0, control=64, value=127, time=30),
    Message('note_on', channel=0, note=62, velocity=0, time=60),
    Message('note_on', channel=0, note=58, velocity=0, time=1),
    Message('note_on', channel=0, note=53, velocity=0, time=4),
    Message('note_on', channel=0, note=55, velocity=127, time=97),
    Message('control_change', channel=0, control=64, value=0, time=11),
    Message('control_change', channel=0, control=64, value=127, time=28),
    Message('note_on', channel=0, note=58, velocity=110, time=9),
    Message('note_on', channel=0, note=55, velocity=0, time=28),
    Message('note_on', channel=0, note=63, velocity=127, time=20),
    Message('note_on', channel=0, note=46, velocity=0, time=9),
    Message('note_on', channel=0, note=58, velocity=0, time=1),
    Message('note_on', channel=0, note=63, velocity=0, time=26),
    Message('control_change', channel=0, control=64, value=0, time=57),
    Message('note_on', channel=0, note=46, velocity=127, time=3),
    Message('note_on', channel=0, note=53, velocity=101, time=0),
    Message('note_on', channel=0, note=58, velocity=104, time=0),
    Message('note_on', channel=0, note=62, velocity=104, time=0),
    Message('control_change', channel=0, control=64, value=127, time=120),
    Message('note_on', channel=0, note=46, velocity=0, time=97),
    Message('note_on', channel=0, note=46, velocity=104, time=71),
    Message('note_on', channel=0, note=46, velocity=0, time=25),
    Message('note_on', channel=0, note=46, velocity=110, time=23),
    Message('control_change', channel=0, control=64, value=0, time=40),
    Message('control_change', channel=0, control=64, value=127, time=28),
    Message('note_on', channel=0, note=53, velocity=0, time=15),
    Message('note_on', channel=0, note=58, velocity=0, time=25),
    Message('note_on', channel=0, note=62, velocity=0, time=14),
    Message('note_on', channel=0, note=53, velocity=127, time=22),
    Message('note_on', channel=0, note=53, velocity=0, time=45),
    Message('note_on', channel=0, note=58, velocity=127, time=3),
    Message('note_on', channel=0, note=62, velocity=127, time=48),
    Message('note_on', channel=0, note=58, velocity=0, time=10),
    Message('note_on', channel=0, note=46, velocity=0, time=57),
    Message('note_on', channel=0, note=62, velocity=0, time=24),
    Message('note_on', channel=0, note=46, velocity=104, time=5),
    Message('note_on', channel=0, note=46, velocity=0, time=24),
    Message('control_change', channel=0, control=64, value=0, time=70),
    Message('note_on', channel=0, note=46, velocity=110, time=2),
    Message('note_on', channel=0, note=56, velocity=100, time=0),
    Message('note_on', channel=0, note=60, velocity=127, time=0),
    Message('note_on', channel=0, note=63, velocity=127, time=0),
    Message('control_change', channel=0, control=64, value=127, time=112),
    Message('note_on', channel=0, note=46, velocity=0, time=110),
    Message('note_on', channel=0, note=46, velocity=110, time=66),
    Message('control_change', channel=0, control=64, value=0, time=1),
    Message('note_on', channel=0, note=46, velocity=0, time=67),
    Message('note_on', channel=0, note=46, velocity=110, time=28),
    Message('control_change', channel=0, control=64, value=127, time=107),
    Message('note_on', channel=0, note=56, velocity=0, time=88),
    Message('note_on', channel=0, note=60, velocity=0, time=1),
    Message('note_on', channel=0, note=63, velocity=0, time=2),
    Message('note_on', channel=0, note=46, velocity=0, time=48),
    Message('note_on', channel=0, note=46, velocity=127, time=138),
    Message('control_change', channel=0, control=64, value=0, time=7),
    Message('control_change', channel=0, control=64, value=127, time=102),
    Message('note_on', channel=0, note=46, velocity=0, time=120),
    Message('note_on', channel=0, note=46, velocity=110, time=59),
    Message('control_change', channel=0, control=64, value=0, time=10),
    Message('control_change', channel=0, control=64, value=127, time=24),
    Message('note_on', channel=0, note=46, velocity=0, time=37),
    Message('note_on', channel=0, note=46, velocity=110, time=25),
    Message('control_change', channel=0, control=64, value=0, time=9),
    Message('control_change', channel=0, control=64, value=127, time=31),
    Message('note_on', channel=0, note=56, velocity=100, time=152),
    Message('note_on', channel=0, note=60, velocity=127, time=0),
    Message('note_on', channel=0, note=63, velocity=127, time=0),
    Message('note_on', channel=0, note=46, velocity=0, time=55),
    Message('note_on', channel=0, note=60, velocity=0, time=13),
    Message('note_on', channel=0, note=56, velocity=0, time=3),
    Message('note_on', channel=0, note=63, velocity=0, time=0),
    Message('note_on', channel=0, note=51, velocity=110, time=121),
    Message('note_on', channel=0, note=58, velocity=110, time=0),
    Message('note_on', channel=0, note=63, velocity=110, time=0),
    Message('control_change', channel=0, control=64, value=0, time=3),
    Message('control_change', channel=0, control=64, value=127, time=182),
    Message('note_on', channel=0, note=51, velocity=0, time=29),
    Message('note_on', channel=0, note=51, velocity=100, time=74),
    Message('note_on', channel=0, note=51, velocity=0, time=38),
    Message('control_change', channel=0, control=64, value=0, time=40),
    Message('note_on', channel=0, note=51, velocity=104, time=18),
    Message('control_change', channel=0, control=64, value=127, time=25),
    Message('note_on', channel=0, note=58, velocity=0, time=77),
    Message('note_on', channel=0, note=63, velocity=0, time=29),
    Message('note_on', channel=0, note=56, velocity=95, time=157),
    Message('note_on', channel=0, note=60, velocity=127, time=0),
    Message('note_on', channel=0, note=63, velocity=100, time=0),
    Message('note_on', channel=0, note=51, velocity=0, time=12),
    Message('note_on', channel=0, note=63, velocity=0, time=10),
    Message('note_on', channel=0, note=60, velocity=0, time=5),
    Message('note_on', channel=0, note=56, velocity=0, time=6),
    Message('control_change', channel=0, control=64, value=0, time=60),
    Message('note_on', channel=0, note=51, velocity=100, time=3),
    Message('note_on', channel=0, note=55, velocity=97, time=0),
    Message('note_on', channel=0, note=58, velocity=91, time=0),
    Message('note_on', channel=0, note=63, velocity=87, time=0),
    Message('control_change', channel=0, control=64, value=127, time=104),
    Message('note_on', channel=0, note=51, velocity=0, time=110),
    Message('note_on', channel=0, note=51, velocity=104, time=74),
    Message('control_change', channel=0, control=64, value=0, time=25),
    Message('note_on', channel=0, note=51, velocity=0, time=21),
    Message('control_change', channel=0, control=64, value=127, time=23),
    Message('note_on', channel=0, note=51, velocity=110, time=27),
    Message('control_change', channel=0, control=64, value=0, time=16),
    Message('note_on', channel=0, note=55, velocity=0, time=20),
    Message('note_on', channel=0, note=63, velocity=0, time=4),
    Message('note_on', channel=0, note=58, velocity=0, time=2),
    Message('control_change', channel=0, control=64, value=127, time=6),
    Message('note_on', channel=0, note=55, velocity=127, time=48),
    Message('note_on', channel=0, note=58, velocity=110, time=48),
    Message('note_on', channel=0, note=55, velocity=0, time=20),
    Message('note_on', channel=0, note=63, velocity=110, time=28),
    Message('note_on', channel=0, note=58, velocity=0, time=7),
    Message('note_on', channel=0, note=58, velocity=104, time=41),
    Message('note_on', channel=0, note=63, velocity=0, time=18),
    Message('note_on', channel=0, note=51, velocity=0, time=18),
    Message('note_on', channel=0, note=58, velocity=0, time=5),
    Message('note_on', channel=0, note=55, velocity=117, time=7),
    Message('note_on', channel=0, note=55, velocity=0, time=25),
    Message('note_on', channel=0, note=51, velocity=100, time=71),
    Message('note_on', channel=0, note=57, velocity=97, time=0),
    Message('note_on', channel=0, note=60, velocity=127, time=0),
    Message('note_on', channel=0, note=65, velocity=113, time=0),
    Message('control_change', channel=0, control=64, value=0, time=13),
    Message('control_change', channel=0, control=64, value=127, time=145),
    Message('note_on', channel=0, note=51, velocity=0, time=71),
    Message('note_on', channel=0, note=51, velocity=87, time=59),
    Message('control_change', channel=0, control=64, value=0, time=12),
    Message('control_change', channel=0, control=64, value=127, time=31),
    Message('note_on', channel=0, note=51, velocity=0, time=31),
    Message('note_on', channel=0, note=51, velocity=95, time=22),
    Message('control_change', channel=0, control=64, value=0, time=3),
    Message('control_change', channel=0, control=64, value=127, time=35),
    Message('note_on', channel=0, note=51, velocity=0, time=188),
    Message('note_on', channel=0, note=60, velocity=0, time=9),
    Message('note_on', channel=0, note=57, velocity=0, time=4),
    Message('note_on', channel=0, note=65, velocity=0, time=2),
    Message('note_on', channel=0, note=39, velocity=110, time=143),
    Message('control_change', channel=0, control=64, value=0, time=13),
    Message('control_change', channel=0, control=64, value=127, time=47),
    Message('note_on', channel=0, note=39, velocity=0, time=132),
    Message('note_on', channel=0, note=57, velocity=97, time=96),
    Message('note_on', channel=0, note=60, velocity=127, time=0),
    Message('note_on', channel=0, note=65, velocity=104, time=0),
    Message('note_on', channel=0, note=60, velocity=0, time=71),
    Message('note_on', channel=0, note=57, velocity=0, time=3),
    Message('note_on', channel=0, note=65, velocity=0, time=1),
    Message('note_on', channel=0, note=57, velocity=104, time=21),
    Message('note_on', channel=0, note=60, velocity=127, time=0),
    Message('note_on', channel=0, note=65, velocity=113, time=0),
    Message('control_change', channel=0, control=64, value=0, time=13),
    Message('control_change', channel=0, control=64, value=127, time=27),
    Message('note_on', channel=0, note=60, velocity=0, time=62),
    Message('note_on', channel=0, note=65, velocity=0, time=0),
    Message('note_on', channel=0, note=57, velocity=0, time=2),
    Message('note_on', channel=0, note=57, velocity=104, time=40),
    Message('note_on', channel=0, note=60, velocity=127, time=0),
    Message('note_on', channel=0, note=65, velocity=117, time=0),
    Message('note_on', channel=0, note=65, velocity=0, time=97),
    Message('note_on', channel=0, note=60, velocity=0, time=1),
    Message('note_on', channel=0, note=57, velocity=0, time=1),
    Message('note_on', channel=0, note=57, velocity=94, time=45),
    Message('note_on', channel=0, note=60, velocity=117, time=0),
    Message('note_on', channel=0, note=65, velocity=91, time=0),
    Message('note_on', channel=0, note=60, velocity=0, time=31),
    Message('note_on', channel=0, note=65, velocity=0, time=2),
    Message('note_on', channel=0, note=57, velocity=0, time=3),
    Message('control_change', channel=0, control=64, value=0, time=64),
    Message('control_change', channel=0, control=64, value=127, time=43),
    Message('note_on', channel=0, note=58, velocity=95, time=241),
    Message('note_on', channel=0, note=62, velocity=97, time=0),
    Message('note_on', channel=0, note=65, velocity=94, time=0),
    Message('control_change', channel=0, control=64, value=0, time=8),
    Message('control_change', channel=0, control=64, value=127, time=27),
    Message('note_on', channel=0, note=58, velocity=0, time=36),
    Message('note_on', channel=0, note=62, velocity=0, time=1),
    Message('note_on', channel=0, note=65, velocity=0, time=0),
    Message('control_change', channel=0, control=64, value=0, time=19),
    Message('note_on', channel=0, note=58, velocity=95, time=5),
    Message('note_on', channel=0, note=62, velocity=113, time=0),
    Message('note_on', channel=0, note=65, velocity=101, time=0),
    Message('control_change', channel=0, control=64, value=127, time=30),
    Message('note_on', channel=0, note=46, velocity=110, time=66),
    Message('note_on', channel=0, note=65, velocity=0, time=7),
    Message('note_on', channel=0, note=58, velocity=0, time=2),
    Message('note_on', channel=0, note=62, velocity=0, time=3),
    Message('control_change', channel=0, control=64, value=0, time=9),
    Message('note_on', channel=0, note=58, velocity=95, time=27),
    Message('control_change', channel=0, control=64, value=127, time=9),
    Message('note_on', channel=0, note=58, velocity=0, time=39),
    Message('note_on', channel=0, note=65, velocity=122, time=0),
    Message('note_on', channel=0, note=62, velocity=113, time=48),
    Message('control_change', channel=0, control=64, value=0, time=0),
    Message('note_on', channel=0, note=65, velocity=0, time=32),
    Message('control_change', channel=0, control=64, value=127, time=4),
    Message('note_on', channel=0, note=58, velocity=95, time=12),
    Message('note_on', channel=0, note=62, velocity=0, time=11),
    Message('note_on', channel=0, note=46, velocity=0, time=7),
    Message('note_on', channel=0, note=58, velocity=0, time=62),
    Message('note_on', channel=0, note=47, velocity=122, time=16),
    Message('control_change', channel=0, control=64, value=0, time=22),
    Message('control_change', channel=0, control=64, value=127, time=106),
    Message('note_on', channel=0, note=59, velocity=127, time=64),
    Message('note_on', channel=0, note=62, velocity=127, time=0),
    Message('note_on', channel=0, note=65, velocity=117, time=0),
    Message('control_change', channel=0, control=64, value=0, time=12),
    Message('control_change', channel=0, control=64, value=127, time=43),
    Message('note_on', channel=0, note=47, velocity=0, time=15),
    Message('note_on', channel=0, note=47, velocity=86, time=26),
    Message('note_on', channel=0, note=47, velocity=0, time=43),
    Message('note_on', channel=0, note=47, velocity=108, time=53),
    Message('control_change', channel=0, control=64, value=0, time=1),
    Message('control_change', channel=0, control=64, value=127, time=47),
    Message('note_on', channel=0, note=65, velocity=0, time=86),
    Message('note_on', channel=0, note=59, velocity=0, time=1),
    Message('note_on', channel=0, note=62, velocity=0, time=3),
    Message('control_change', channel=0, control=64, value=0, time=40),
    Message('note_on', channel=0, note=59, velocity=122, time=14),
    Message('note_on', channel=0, note=62, velocity=122, time=0),
    Message('note_on', channel=0, note=65, velocity=113, time=0),
    Message('control_change', channel=0, control=64, value=127, time=26),
    Message('note_on', channel=0, note=47, velocity=0, time=33),
    Message('note_on', channel=0, note=59, velocity=0, time=17),
    Message('note_on', channel=0, note=65, velocity=0, time=1),
    Message('note_on', channel=0, note=62, velocity=0, time=3),
    Message('control_change', channel=0, control=64, value=0, time=111),
    Message('note_on', channel=0, note=48, velocity=104, time=1),
    Message('note_on', channel=0, note=60, velocity=127, time=0),
    Message('note_on', channel=0, note=63, velocity=100, time=0),
    Message('control_change', channel=0, control=64, value=127, time=98),
    Message('note_on', channel=0, note=48, velocity=0, time=120),
    Message('note_on', channel=0, note=48, velocity=91, time=70),
    Message('control_change', channel=0, control=64, value=0, time=37),
    Message('note_on', channel=0, note=48, velocity=0, time=23),
    Message('control_change', channel=0, control=64, value=127, time=9),
    Message('note_on', channel=0, note=48, velocity=94, time=27),
    Message('note_on', channel=0, note=60, velocity=0, time=159),
    Message('note_on', channel=0, note=63, velocity=0, time=2),
    Message('note_on', channel=0, note=60, velocity=127, time=31),
    Message('note_on', channel=0, note=63, velocity=104, time=0),
    Message('control_change', channel=0, control=64, value=0, time=2),
    Message('control_change', channel=0, control=64, value=127, time=31),
    Message('note_on', channel=0, note=63, velocity=0, time=16),
    Message('note_on', channel=0, note=60, velocity=0, time=3),
    Message('note_on', channel=0, note=48, velocity=0, time=8),
    Message('note_on', channel=0, note=42, velocity=83, time=132),
    Message('note_on', channel=0, note=58, velocity=110, time=0),
    Message('note_on', channel=0, note=61, velocity=104, time=0),
    Message('control_change', channel=0, control=64, value=0, time=2),
    Message('control_change', channel=0, control=64, value=127, time=154),
    Message('note_on', channel=0, note=42, velocity=0, time=79),
    Message('note_on', channel=0, note=61, velocity=0, time=112),
    Message('note_on', channel=0, note=58, velocity=0, time=1),
    Message('note_on', channel=0, note=54, velocity=104, time=132),
    Message('control_change', channel=0, control=64, value=0, time=0),
    Message('control_change', channel=0, control=64, value=127, time=23),
    Message('note_on', channel=0, note=58, velocity=104, time=25),
    Message('note_on', channel=0, note=54, velocity=0, time=8),
    Message('note_on', channel=0, note=61, velocity=104, time=40),
    Message('note_on', channel=0, note=58, velocity=0, time=14),
    Message('note_on', channel=0, note=58, velocity=110, time=34),
    Message('note_on', channel=0, note=61, velocity=0, time=12),
    Message('note_on', channel=0, note=58, velocity=0, time=34),
    Message('note_on', channel=0, note=54, velocity=100, time=2),
    Message('note_on', channel=0, note=54, velocity=0, time=28),
    Message('note_on', channel=0, note=58, velocity=104, time=68),
    Message('note_on', channel=0, note=62, velocity=122, time=0),
    Message('control_change', channel=0, control=64, value=0, time=0),
    Message('control_change', channel=0, control=64, value=127, time=90),
    Message('control_change', channel=0, control=64, value=0, time=189),
    Message('note_on', channel=0, note=41, velocity=101, time=9),
    Message('control_change', channel=0, control=64, value=127, time=71),
    Message('note_on', channel=0, note=41, velocity=0, time=2),
    Message('note_on', channel=0, note=41, velocity=97, time=23),
    Message('note_on', channel=0, note=62, velocity=0, time=38),
    Message('note_on', channel=0, note=58, velocity=0, time=14),
    Message('note_on', channel=0, note=53, velocity=117, time=44),
    Message('note_on', channel=0, note=58, velocity=110, time=48),
    Message('note_on', channel=0, note=53, velocity=0, time=17),
    Message('note_on', channel=0, note=62, velocity=127, time=31),
    Message('note_on', channel=0, note=58, velocity=0, time=10),
    Message('note_on', channel=0, note=58, velocity=100, time=38),
    Message('note_on', channel=0, note=41, velocity=0, time=28),
    Message('note_on', channel=0, note=62, velocity=0, time=3),
    Message('note_on', channel=0, note=53, velocity=101, time=17),
    Message('note_on', channel=0, note=58, velocity=0, time=0),
    Message('note_on', channel=0, note=53, velocity=0, time=71),
    Message('control_change', channel=0, control=64, value=0, time=21),
    Message('note_on', channel=0, note=41, velocity=88, time=4),
    Message('note_on', channel=0, note=57, velocity=127, time=0),
    Message('note_on', channel=0, note=60, velocity=127, time=0),
    Message('control_change', channel=0, control=64, value=127, time=71),
    Message('note_on', channel=0, note=41, velocity=0, time=165),
    Message('note_on', channel=0, note=41, velocity=77, time=52),
    Message('note_on', channel=0, note=41, velocity=0, time=52),
    Message('control_change', channel=0, control=64, value=0, time=22),
    Message('note_on', channel=0, note=41, velocity=86, time=22),
    Message('control_change', channel=0, control=64, value=127, time=29),
    Message('note_on', channel=0, note=60, velocity=0, time=214),
    Message('note_on', channel=0, note=57, velocity=0, time=12),
    Message('note_on', channel=0, note=41, velocity=0, time=10),
    Message('control_change', channel=0, control=64, value=0, time=115),
    Message('note_on', channel=0, note=46, velocity=104, time=4),
    Message('note_on', channel=0, note=55, velocity=81, time=0),
    Message('note_on', channel=0, note=58, velocity=95, time=0),
    Message('note_on', channel=0, note=63, velocity=83, time=0),
    Message('control_change', channel=0, control=64, value=127, time=87),
    Message('note_on', channel=0, note=46, velocity=0, time=124),
    Message('note_on', channel=0, note=46, velocity=33, time=77),
    Message('note_on', channel=0, note=46, velocity=0, time=24),
    Message('note_on', channel=0, note=63, velocity=0, time=56),
    Message('note_on', channel=0, note=46, velocity=63, time=16),
    Message('note_on', channel=0, note=58, velocity=0, time=21),
    Message('note_on', channel=0, note=55, velocity=0, time=11),
    Message('note_on', channel=0, note=55, velocity=127, time=64),
    Message('note_on', channel=0, note=58, velocity=110, time=48),
    Message('note_on', channel=0, note=55, velocity=0, time=40),
    Message('note_on', channel=0, note=63, velocity=110, time=8),
    Message('note_on', channel=0, note=58, velocity=0, time=14),
    Message('note_on', channel=0, note=58, velocity=95, time=34),
    Message('note_on', channel=0, note=63, velocity=0, time=32),
    Message('note_on', channel=0, note=46, velocity=0, time=7),
    Message('note_on', channel=0, note=55, velocity=104, time=9),
    Message('note_on', channel=0, note=58, velocity=0, time=15),
    Message('note_on', channel=0, note=55, velocity=0, time=39),
    Message('note_on', channel=0, note=46, velocity=95, time=42),
    Message('note_on', channel=0, note=53, velocity=73, time=0),
    Message('note_on', channel=0, note=58, velocity=83, time=0),
    Message('note_on', channel=0, note=62, velocity=88, time=0),
    Message('control_change', channel=0, control=64, value=0, time=4),
    Message('control_change', channel=0, control=64, value=127, time=75),
    Message('note_on', channel=0, note=46, velocity=0, time=151),
    Message('note_on', channel=0, note=46, velocity=44, time=58),
    Message('note_on', channel=0, note=46, velocity=0, time=41),
    Message('note_on', channel=0, note=46, velocity=80, time=55),
    Message('note_on', channel=0, note=53, velocity=0, time=32),
    Message('note_on', channel=0, note=58, velocity=0, time=34),
    Message('note_on', channel=0, note=62, velocity=0, time=18),
    Message('note_on', channel=0, note=53, velocity=70, time=12),
    Message('note_on', channel=0, note=53, velocity=0, time=25),
    Message('note_on', channel=0, note=55, velocity=127, time=71),
    Message('note_on', channel=0, note=58, velocity=104, time=48),
    Message('note_on', channel=0, note=55, velocity=0, time=5),
    Message('note_on', channel=0, note=63, velocity=110, time=43),
    Message('note_on', channel=0, note=58, velocity=0, time=12),
    Message('note_on', channel=0, note=46, velocity=0, time=4),
    Message('note_on', channel=0, note=63, velocity=0, time=18),
    Message('note_on', channel=0, note=46, velocity=110, time=62),
    Message('note_on', channel=0, note=53, velocity=101, time=0),
    Message('note_on', channel=0, note=58, velocity=104, time=0),
    Message('note_on', channel=0, note=62, velocity=101, time=0),
    Message('control_change', channel=0, control=64, value=0, time=24),
    Message('control_change', channel=0, control=64, value=127, time=110),
    Message('note_on', channel=0, note=46, velocity=0, time=109),
    Message('note_on', channel=0, note=46, velocity=32, time=45),
    Message('note_on', channel=0, note=46, velocity=0, time=39),
    Message('note_on', channel=0, note=53, velocity=0, time=32),
    Message('note_on', channel=0, note=46, velocity=51, time=25),
    Message('note_on', channel=0, note=62, velocity=0, time=26),
    Message('note_on', channel=0, note=58, velocity=0, time=4),
    Message('note_on', channel=0, note=53, velocity=59, time=66),
    Message('note_on', channel=0, note=53, velocity=0, time=41),
    Message('note_on', channel=0, note=53, velocity=117, time=55),
    Message('note_on', channel=0, note=58, velocity=127, time=0),
    Message('note_on', channel=0, note=62, velocity=127, time=0),
    Message('note_on', channel=0, note=46, velocity=0, time=45),
    Message('note_on', channel=0, note=53, velocity=0, time=84),
    Message('note_on', channel=0, note=58, velocity=0, time=0),
    Message('note_on', channel=0, note=62, velocity=0, time=4),
    Message('note_on', channel=0, note=47, velocity=71, time=59),
    Message('note_on', channel=0, note=55, velocity=68, time=0),
    Message('note_on', channel=0, note=59, velocity=83, time=0),
    Message('note_on', channel=0, note=62, velocity=77, time=0),
    Message('control_change', channel=0, control=64, value=0, time=14),
    Message('control_change', channel=0, control=64, value=127, time=66),
    Message('note_on', channel=0, note=47, velocity=0, time=125),
    Message('note_on', channel=0, note=62, velocity=0, time=33),
    Message('note_on', channel=0, note=59, velocity=0, time=14),
    Message('note_on', channel=0, note=55, velocity=0, time=1),
    Message('note_on', channel=0, note=47, velocity=53, time=35),
    Message('note_on', channel=0, note=55, velocity=19, time=0),
    Message('note_on', channel=0, note=47, velocity=0, time=27),
    Message('note_on', channel=0, note=55, velocity=0, time=18),
    Message('note_on', channel=0, note=47, velocity=101, time=51),
    Message('note_on', channel=0, note=55, velocity=117, time=0),
    Message('note_on', channel=0, note=59, velocity=127, time=0),
    Message('note_on', channel=0, note=62, velocity=127, time=0),
    Message('control_change', channel=0, control=64, value=0, time=11),
    Message('control_change', channel=0, control=64, value=127, time=49),
    Message('note_on', channel=0, note=59, velocity=0, time=59),
    Message('note_on', channel=0, note=62, velocity=0, time=1),
    Message('note_on', channel=0, note=47, velocity=0, time=11),
    Message('note_on', channel=0, note=55, velocity=0, time=10),
    Message('note_on', channel=0, note=47, velocity=88, time=51),
    Message('note_on', channel=0, note=55, velocity=108, time=0),
    Message('note_on', channel=0, note=59, velocity=122, time=0),
    Message('note_on', channel=0, note=62, velocity=122, time=0),
    Message('note_on', channel=0, note=65, velocity=113, time=0),
    Message('control_change', channel=0, control=64, value=0, time=3),
    Message('control_change', channel=0, control=64, value=127, time=57),
    Message('note_on', channel=0, note=47, velocity=0, time=23),
    Message('note_on', channel=0, note=65, velocity=0, time=0),
    Message('note_on', channel=0, note=55, velocity=0, time=2),
    Message('note_on', channel=0, note=59, velocity=0, time=1),
    Message('note_on', channel=0, note=62, velocity=0, time=4),
    Message('note_on', channel=0, note=48, velocity=88, time=102),
    Message('note_on', channel=0, note=55, velocity=86, time=0),
    Message('note_on', channel=0, note=60, velocity=122, time=0),
    Message('note_on', channel=0, note=63, velocity=87, time=0),
    Message('control_change', channel=0, control=64, value=0, time=7),
    Message('control_change', channel=0, control=64, value=127, time=172),
    Message('note_on', channel=0, note=48, velocity=0, time=71),
    Message('note_on', channel=0, note=48, velocity=51, time=38),
    Message('note_on', channel=0, note=48, velocity=0, time=46),
    Message('note_on', channel=0, note=48, velocity=52, time=50),
    Message('note_on', channel=0, note=55, velocity=0, time=45),
    Message('note_on', channel=0, note=60, velocity=0, time=55),
    Message('note_on', channel=0, note=63, velocity=0, time=45),
    Message('note_on', channel=0, note=55, velocity=97, time=47),
    Message('note_on', channel=0, note=60, velocity=127, time=0),
    Message('note_on', channel=0, note=63, velocity=110, time=0),
    Message('note_on', channel=0, note=48, velocity=0, time=40),
    Message('note_on', channel=0, note=63, velocity=0, time=42),
    Message('note_on', channel=0, note=60, velocity=0, time=2),
    Message('note_on', channel=0, note=55, velocity=0, time=1),
    Message('note_on', channel=0, note=42, velocity=112, time=107),
    Message('note_on', channel=0, note=54, velocity=112, time=0),
    Message('note_on', channel=0, note=58, velocity=112, time=0),
    Message('note_on', channel=0, note=61, velocity=112, time=0),
    Message('control_change', channel=0, control=64, value=0, time=6),
    Message('control_change', channel=0, control=64, value=127, time=130),
    Message('note_on', channel=0, note=42, velocity=0, time=101),
    Message('note_on', channel=0, note=42, velocity=75, time=51),
    Message('note_on', channel=0, note=42, velocity=0, time=54),
    Message('note_on', channel=0, note=42, velocity=75, time=42),
    Message('note_on', channel=0, note=54, velocity=0, time=46),
    Message('note_on', channel=0, note=58, velocity=0, time=35),
    Message('note_on', channel=0, note=61, velocity=0, time=4),
    Message('note_on', channel=0, note=54, velocity=112, time=107),
    Message('note_on', channel=0, note=58, velocity=112, time=0),
    Message('note_on', channel=0, note=61, velocity=112, time=0),
    Message('note_on', channel=0, note=42, velocity=0, time=42),
    Message('note_on', channel=0, note=58, velocity=0, time=52),
    Message('note_on', channel=0, note=54, velocity=0, time=1),
    Message('note_on', channel=0, note=61, velocity=0, time=0),
    Message('note_on', channel=0, note=41, velocity=99, time=97),
    Message('note_on', channel=0, note=53, velocity=99, time=0),
    Message('note_on', channel=0, note=58, velocity=99, time=0),
    Message('note_on', channel=0, note=62, velocity=99, time=0),
    Message('control_change', channel=0, control=64, value=0, time=17),
    Message('control_change', channel=0, control=64, value=127, time=96),
    Message('note_on', channel=0, note=41, velocity=0, time=109),
    Message('note_on', channel=0, note=41, velocity=99, time=66),
    Message('note_on', channel=0, note=41, velocity=0, time=42),
    Message('note_on', channel=0, note=41, velocity=99, time=54),
    Message('note_on', channel=0, note=53, velocity=0, time=35),
    Message('note_on', channel=0, note=62, velocity=0, time=44),
    Message('note_on', channel=0, note=58, velocity=0, time=15),
    Message('note_on', channel=0, note=53, velocity=99, time=98),
    Message('note_on', channel=0, note=58, velocity=99, time=0),
    Message('note_on', channel=0, note=62, velocity=99, time=0),
    Message('note_on', channel=0, note=41, velocity=0, time=77),
    Message('note_on', channel=0, note=53, velocity=0, time=102),
    Message('note_on', channel=0, note=58, velocity=0, time=3),
    Message('note_on', channel=0, note=62, velocity=0, time=6),
    Message('note_on', channel=0, note=41, velocity=99, time=4),
    Message('note_on', channel=0, note=53, velocity=99, time=0),
    Message('note_on', channel=0, note=57, velocity=99, time=0),
    Message('note_on', channel=0, note=60, velocity=99, time=0),
    Message('control_change', channel=0, control=64, value=0, time=12),
    Message('control_change', channel=0, control=64, value=127, time=250),
    Message('control_change', channel=0, control=64, value=0, time=311),
    Message('note_on', channel=0, note=41, velocity=0, time=10),
    Message('note_on', channel=0, note=60, velocity=0, time=1),
    Message('note_on', channel=0, note=53, velocity=0, time=1),
    Message('note_on', channel=0, note=57, velocity=0, time=0),
    Message('note_on', channel=0, note=46, velocity=99, time=183),
    Message('note_on', channel=0, note=55, velocity=99, time=0),
    Message('note_on', channel=0, note=58, velocity=99, time=0),
    Message('note_on', channel=0, note=63, velocity=99, time=0),
    Message('control_change', channel=0, control=64, value=0, time=10),
    Message('control_change', channel=0, control=64, value=127, time=55),
    Message('note_on', channel=0, note=58, velocity=0, time=309),
    Message('note_on', channel=0, note=55, velocity=0, time=7),
    Message('note_on', channel=0, note=63, velocity=0, time=12),
    Message('note_on', channel=0, note=55, velocity=111, time=87),
    Message('note_on', channel=0, note=58, velocity=111, time=48),
    Message('note_on', channel=0, note=55, velocity=0, time=36),
    Message('note_on', channel=0, note=63, velocity=111, time=12),
    Message('note_on', channel=0, note=58, velocity=0, time=11),
    Message('note_on', channel=0, note=58, velocity=111, time=37),
    Message('note_on', channel=0, note=55, velocity=111, time=48),
    Message('note_on', channel=0, note=58, velocity=0, time=14),
    Message('note_on', channel=0, note=46, velocity=0, time=16),
    Message('note_on', channel=0, note=63, velocity=0, time=1),
    Message('note_on', channel=0, note=55, velocity=0, time=20),
    Message('note_on', channel=0, note=46, velocity=99, time=45),
    Message('note_on', channel=0, note=54, velocity=99, time=0),
    Message('note_on', channel=0, note=58, velocity=99, time=0),
    Message('note_on', channel=0, note=61, velocity=99, time=0),
    Message('control_change', channel=0, control=64, value=0, time=9),
    Message('control_change', channel=0, control=64, value=127, time=104),
    Message('note_on', channel=0, note=54, velocity=0, time=248),
    Message('note_on', channel=0, note=58, velocity=0, time=81),
    Message('note_on', channel=0, note=61, velocity=0, time=34),
    Message('note_on', channel=0, note=54, velocity=110, time=4),
    Message('note_on', channel=0, note=58, velocity=111, time=48),
    Message('note_on', channel=0, note=66, velocity=111, time=48),
    Message('note_on', channel=0, note=58, velocity=0, time=20),
    Message('note_on', channel=0, note=54, velocity=0, time=25),
    Message('note_on', channel=0, note=61, velocity=111, time=3),
    Message('note_on', channel=0, note=58, velocity=104, time=48),
    Message('note_on', channel=0, note=66, velocity=0, time=9),
    Message('note_on', channel=0, note=46, velocity=0, time=34),
    Message('note_on', channel=0, note=54, velocity=95, time=8),
    Message('note_on', channel=0, note=58, velocity=0, time=0),
    Message('note_on', channel=0, note=61, velocity=0, time=1),
    Message('note_on', channel=0, note=54, velocity=0, time=47),
    Message('note_on', channel=0, note=46, velocity=99, time=189),
    Message('note_on', channel=0, note=53, velocity=99, time=0),
    Message('note_on', channel=0, note=58, velocity=99, time=0),
    Message('note_on', channel=0, note=62, velocity=99, time=0),
    Message('control_change', channel=0, control=64, value=0, time=11),
    Message('control_change', channel=0, control=64, value=127, time=118),
    Message('control_change', channel=0, control=64, value=0, time=478),
    Message('note_on', channel=0, note=46, velocity=0, time=145),
    Message('note_on', channel=0, note=53, velocity=0, time=0),
    Message('note_on', channel=0, note=58, velocity=0, time=0),
    Message('note_on', channel=0, note=62, velocity=0, time=0),
    MetaMessage('end_of_track', time=0)]),
  MidiTrack([
    MetaMessage('track_name', name='Electric Bass (finger)', time=0),
    Message('control_change', channel=1, control=0, value=0, time=0),
    Message('control_change', channel=1, control=32, value=0, time=0),
    Message('program_change', channel=1, program=33, time=0),
    Message('control_change', channel=1, control=7, value=86, time=0),
    Message('control_change', channel=1, control=10, value=64, time=0),
    Message('control_change', channel=1, control=11, value=127, time=0),
    Message('control_change', channel=1, control=91, value=28, time=0),
    Message('control_change', channel=1, control=93, value=58, time=0),
    Message('control_change', channel=1, control=101, value=0, time=110),
    Message('control_change', channel=1, control=100, value=0, time=50),
    Message('control_change', channel=1, control=6, value=2, time=88),
    Message('note_on', channel=1, note=36, velocity=59, time=2728),
    Message('note_off', channel=1, note=36, velocity=59, time=89),
    Message('note_on', channel=1, note=36, velocity=94, time=2983),
    Message('note_off', channel=1, note=36, velocity=94, time=86),
    Message('note_on', channel=1, note=34, velocity=127, time=7690),
    Message('note_off', channel=1, note=34, velocity=127, time=739),
    Message('note_on', channel=1, note=34, velocity=127, time=29),
    Message('note_off', channel=1, note=34, velocity=127, time=508),
    Message('note_on', channel=1, note=34, velocity=127, time=68),
    Message('pitchwheel', channel=1, pitch=-266, time=93),
    Message('pitchwheel', channel=1, pitch=-794, time=7),
    Message('pitchwheel', channel=1, pitch=-1323, time=8),
    Message('pitchwheel', channel=1, pitch=-1851, time=8),
    Message('pitchwheel', channel=1, pitch=-2644, time=8),
    Message('pitchwheel', channel=1, pitch=-3436, time=7),
    Message('pitchwheel', channel=1, pitch=-4493, time=8),
    Message('pitchwheel', channel=1, pitch=-5814, time=8),
    Message('pitchwheel', channel=1, pitch=-6607, time=8),
    Message('pitchwheel', channel=1, pitch=-6343, time=15),
    Message('note_off', channel=1, note=34, velocity=127, time=8),
    Message('pitchwheel', channel=1, pitch=-4758, time=0),
    Message('pitchwheel', channel=1, pitch=-2644, time=8),
    Message('note_on', channel=1, note=33, velocity=117, time=6),
    Message('pitchwheel', channel=1, pitch=-530, time=2),
    Message('pitchwheel', channel=1, pitch=0, time=8),
    Message('note_off', channel=1, note=33, velocity=117, time=735),
    Message('note_on', channel=1, note=34, velocity=127, time=23),
    Message('note_off', channel=1, note=34, velocity=127, time=508),
    Message('note_on', channel=1, note=34, velocity=127, time=68),
    Message('pitchwheel', channel=1, pitch=-266, time=109),
    Message('pitchwheel', channel=1, pitch=-1058, time=8),
    Message('pitchwheel', channel=1, pitch=-1851, time=8),
    Message('pitchwheel', channel=1, pitch=-2908, time=8),
    Message('pitchwheel', channel=1, pitch=-3965, time=7),
    Message('pitchwheel', channel=1, pitch=-4758, time=8),
    Message('pitchwheel', channel=1, pitch=-5286, time=8),
    Message('pitchwheel', channel=1, pitch=-4758, time=16),
    Message('pitchwheel', channel=1, pitch=-3172, time=8),
    Message('note_off', channel=1, note=34, velocity=127, time=2),
    Message('pitchwheel', channel=1, pitch=-794, time=6),
    Message('note_on', channel=1, note=31, velocity=122, time=4),
    Message('pitchwheel', channel=1, pitch=0, time=4),
    Message('note_off', channel=1, note=31, velocity=122, time=517),
    Message('note_on', channel=1, note=31, velocity=127, time=55),
    Message('pitchwheel', channel=1, pitch=264, time=107),
    Message('pitchwheel', channel=1, pitch=792, time=8),
    Message('pitchwheel', channel=1, pitch=1321, time=8),
    Message('pitchwheel', channel=1, pitch=1849, time=8),
    Message('pitchwheel', channel=1, pitch=2642, time=8),
    Message('pitchwheel', channel=1, pitch=3170, time=7),
    Message('pitchwheel', channel=1, pitch=3963, time=12),
    Message('pitchwheel', channel=1, pitch=3699, time=12),
    Message('note_off', channel=1, note=31, velocity=127, time=7),
    Message('pitchwheel', channel=1, pitch=1585, time=1),
    Message('pitchwheel', channel=1, pitch=0, time=8),
    Message('note_on', channel=1, note=36, velocity=113, time=6),
    Message('note_off', channel=1, note=36, velocity=113, time=530),
    Message('note_on', channel=1, note=36, velocity=127, time=46),
    Message('pitchwheel', channel=1, pitch=-1, time=125),
    Message('pitchwheel', channel=1, pitch=-794, time=7),
    Message('pitchwheel', channel=1, pitch=-1323, time=8),
    Message('pitchwheel', channel=1, pitch=-2115, time=8),
    Message('pitchwheel', channel=1, pitch=-2908, time=8),
    Message('pitchwheel', channel=1, pitch=-3436, time=7),
    Message('note_off', channel=1, note=36, velocity=127, time=4),
    Message('pitchwheel', channel=1, pitch=-3436, time=12),
    Message('pitchwheel', channel=1, pitch=-2115, time=8),
    Message('note_on', channel=1, note=32, velocity=104, time=5),
    Message('pitchwheel', channel=1, pitch=-266, time=3),
    Message('pitchwheel', channel=1, pitch=0, time=7),
    Message('note_off', channel=1, note=32, velocity=104, time=519),
    Message('note_on', channel=1, note=32, velocity=110, time=47),
    Message('pitchwheel', channel=1, pitch=-1, time=104),
    Message('pitchwheel', channel=1, pitch=-530, time=8),
    Message('pitchwheel', channel=1, pitch=-1058, time=8),
    Message('pitchwheel', channel=1, pitch=-1851, time=8),
    Message('pitchwheel', channel=1, pitch=-2380, time=7),
    Message('pitchwheel', channel=1, pitch=-3172, time=8),
    Message('pitchwheel', channel=1, pitch=-3965, time=8),
    Message('pitchwheel', channel=1, pitch=-5022, time=7),
    Message('pitchwheel', channel=1, pitch=-5550, time=8),
    Message('pitchwheel', channel=1, pitch=-5286, time=12),
    Message('note_off', channel=1, note=32, velocity=110, time=7),
    Message('pitchwheel', channel=1, pitch=-3436, time=1),
    Message('note_on', channel=1, note=29, velocity=122, time=6),
    Message('pitchwheel', channel=1, pitch=-794, time=2),
    Message('pitchwheel', channel=1, pitch=0, time=8),
    Message('note_off', channel=1, note=29, velocity=122, time=631),
    Message('note_on', channel=1, note=34, velocity=127, time=127),
    Message('note_off', channel=1, note=34, velocity=127, time=220),
    Message('note_on', channel=1, note=34, velocity=127, time=68),
    Message('note_off', channel=1, note=34, velocity=127, time=55),
    Message('note_on', channel=1, note=34, velocity=110, time=41),
    Message('note_off', channel=1, note=34, velocity=110, time=298),
    Message('note_on', channel=1, note=34, velocity=127, time=86),
    Message('note_off', channel=1, note=34, velocity=127, time=239),
    Message('note_on', channel=1, note=34, velocity=110, time=49),
    Message('note_off', channel=1, note=34, velocity=110, time=52),
    Message('note_on', channel=1, note=34, velocity=127, time=44),
    Message('note_off', channel=1, note=34, velocity=127, time=200),
    Message('note_on', channel=1, note=34, velocity=127, time=184),
    Message('note_off', channel=1, note=34, velocity=127, time=228),
    Message('note_on', channel=1, note=34, velocity=127, time=60),
    Message('note_off', channel=1, note=34, velocity=127, time=34),
    Message('note_on', channel=1, note=34, velocity=127, time=62),
    Message('note_off', channel=1, note=34, velocity=127, time=303),
    Message('note_on', channel=1, note=34, velocity=127, time=81),
    Message('note_off', channel=1, note=34, velocity=127, time=221),
    Message('note_on', channel=1, note=34, velocity=127, time=67),
    Message('note_off', channel=1, note=34, velocity=127, time=41),
    Message('note_on', channel=1, note=34, velocity=110, time=55),
    Message('note_off', channel=1, note=34, velocity=110, time=279),
    Message('note_on', channel=1, note=39, velocity=110, time=105),
    Message('note_off', channel=1, note=39, velocity=110, time=231),
    Message('note_on', channel=1, note=39, velocity=110, time=57),
    Message('note_off', channel=1, note=39, velocity=110, time=48),
    Message('note_on', channel=1, note=39, velocity=110, time=48),
    Message('note_off', channel=1, note=39, velocity=110, time=300),
    Message('note_on', channel=1, note=39, velocity=110, time=84),
    Message('note_off', channel=1, note=39, velocity=110, time=228),
    Message('note_on', channel=1, note=39, velocity=110, time=60),
    Message('note_off', channel=1, note=39, velocity=110, time=46),
    Message('note_on', channel=1, note=39, velocity=110, time=50),
    Message('note_off', channel=1, note=39, velocity=110, time=314),
    Message('note_on', channel=1, note=39, velocity=110, time=70),
    Message('note_off', channel=1, note=39, velocity=110, time=230),
    Message('note_on', channel=1, note=39, velocity=104, time=58),
    Message('note_off', channel=1, note=39, velocity=104, time=46),
    Message('note_on', channel=1, note=39, velocity=110, time=50),
    Message('note_off', channel=1, note=39, velocity=110, time=304),
    Message('note_on', channel=1, note=39, velocity=127, time=80),
    Message('note_off', channel=1, note=39, velocity=127, time=235),
    Message('note_on', channel=1, note=39, velocity=100, time=53),
    Message('note_off', channel=1, note=39, velocity=100, time=43),
    Message('note_on', channel=1, note=39, velocity=100, time=53),
    Message('note_off', channel=1, note=39, velocity=100, time=280),
    Message('note_on', channel=1, note=38, velocity=127, time=104),
    Message('note_off', channel=1, note=38, velocity=127, time=238),
    Message('note_on', channel=1, note=38, velocity=127, time=50),
    Message('note_off', channel=1, note=38, velocity=127, time=48),
    Message('note_on', channel=1, note=38, velocity=127, time=48),
    Message('note_off', channel=1, note=38, velocity=127, time=271),
    Message('note_on', channel=1, note=31, velocity=127, time=113),
    Message('note_off', channel=1, note=31, velocity=127, time=227),
    Message('note_on', channel=1, note=31, velocity=127, time=61),
    Message('note_off', channel=1, note=31, velocity=127, time=44),
    Message('note_on', channel=1, note=31, velocity=122, time=52),
    Message('note_off', channel=1, note=31, velocity=122, time=333),
    Message('note_on', channel=1, note=36, velocity=127, time=51),
    Message('note_off', channel=1, note=36, velocity=127, time=206),
    Message('note_on', channel=1, note=36, velocity=113, time=82),
    Message('note_off', channel=1, note=36, velocity=113, time=49),
    Message('note_on', channel=1, note=36, velocity=113, time=47),
    Message('note_off', channel=1, note=36, velocity=113, time=229),
    Message('note_on', channel=1, note=30, velocity=104, time=155),
    Message('note_off', channel=1, note=30, velocity=104, time=222),
    Message('note_on', channel=1, note=30, velocity=104, time=66),
    Message('note_off', channel=1, note=30, velocity=104, time=51),
    Message('note_on', channel=1, note=30, velocity=104, time=45),
    Message('note_off', channel=1, note=30, velocity=104, time=324),
    Message('note_on', channel=1, note=29, velocity=127, time=60),
    Message('note_off', channel=1, note=29, velocity=127, time=229),
    Message('note_on', channel=1, note=29, velocity=122, time=59),
    Message('note_off', channel=1, note=29, velocity=122, time=53),
    Message('note_on', channel=1, note=29, velocity=117, time=43),
    Message('note_off', channel=1, note=29, velocity=117, time=321),
    Message('note_on', channel=1, note=29, velocity=127, time=63),
    Message('note_off', channel=1, note=29, velocity=127, time=230),
    Message('note_on', channel=1, note=29, velocity=127, time=58),
    Message('note_off', channel=1, note=29, velocity=127, time=53),
    Message('note_on', channel=1, note=29, velocity=122, time=43),
    Message('note_off', channel=1, note=29, velocity=122, time=357),
    Message('note_on', channel=1, note=34, velocity=110, time=27),
    Message('note_off', channel=1, note=34, velocity=110, time=259),
    Message('note_on', channel=1, note=34, velocity=104, time=29),
    Message('note_off', channel=1, note=34, velocity=104, time=54),
    Message('note_on', channel=1, note=34, velocity=104, time=42),
    Message('note_off', channel=1, note=34, velocity=104, time=332),
    Message('note_on', channel=1, note=34, velocity=110, time=52),
    Message('note_off', channel=1, note=34, velocity=110, time=665),
    Message('note_on', channel=1, note=34, velocity=127, time=6247),
    Message('note_off', channel=1, note=34, velocity=127, time=739),
    Message('note_on', channel=1, note=34, velocity=127, time=29),
    Message('note_off', channel=1, note=34, velocity=127, time=508),
    Message('note_on', channel=1, note=34, velocity=127, time=68),
    Message('pitchwheel', channel=1, pitch=-266, time=93),
    Message('pitchwheel', channel=1, pitch=-794, time=7),
    Message('pitchwheel', channel=1, pitch=-1323, time=8),
    Message('pitchwheel', channel=1, pitch=-1851, time=8),
    Message('pitchwheel', channel=1, pitch=-2644, time=8),
    Message('pitchwheel', channel=1, pitch=-3436, time=7),
    Message('pitchwheel', channel=1, pitch=-4493, time=8),
    Message('pitchwheel', channel=1, pitch=-5814, time=8),
    Message('pitchwheel', channel=1, pitch=-6607, time=8),
    Message('pitchwheel', channel=1, pitch=-6343, time=15),
    Message('note_off', channel=1, note=34, velocity=127, time=8),
    Message('pitchwheel', channel=1, pitch=-4758, time=0),
    Message('pitchwheel', channel=1, pitch=-2644, time=8),
    Message('note_on', channel=1, note=33, velocity=117, time=6),
    Message('pitchwheel', channel=1, pitch=-530, time=2),
    Message('pitchwheel', channel=1, pitch=0, time=8),
    Message('note_off', channel=1, note=33, velocity=117, time=735),
    Message('note_on', channel=1, note=34, velocity=127, time=23),
    Message('note_off', channel=1, note=34, velocity=127, time=508),
    Message('note_on', channel=1, note=34, velocity=127, time=68),
    Message('pitchwheel', channel=1, pitch=-266, time=109),
    Message('pitchwheel', channel=1, pitch=-1058, time=8),
    Message('pitchwheel', channel=1, pitch=-1851, time=8),
    Message('pitchwheel', channel=1, pitch=-2908, time=8),
    Message('pitchwheel', channel=1, pitch=-3965, time=7),
    Message('pitchwheel', channel=1, pitch=-4758, time=8),
    Message('pitchwheel', channel=1, pitch=-5286, time=8),
    Message('pitchwheel', channel=1, pitch=-4758, time=16),
    Message('pitchwheel', channel=1, pitch=-3172, time=8),
    Message('note_off', channel=1, note=34, velocity=127, time=2),
    Message('pitchwheel', channel=1, pitch=-794, time=6),
    Message('note_on', channel=1, note=31, velocity=122, time=4),
    Message('pitchwheel', channel=1, pitch=0, time=4),
    Message('note_off', channel=1, note=31, velocity=122, time=517),
    Message('note_on', channel=1, note=31, velocity=127, time=55),
    Message('pitchwheel', channel=1, pitch=264, time=107),
    Message('pitchwheel', channel=1, pitch=792, time=8),
    Message('pitchwheel', channel=1, pitch=1321, time=8),
    Message('pitchwheel', channel=1, pitch=1849, time=8),
    Message('pitchwheel', channel=1, pitch=2642, time=8),
    Message('pitchwheel', channel=1, pitch=3170, time=7),
    Message('pitchwheel', channel=1, pitch=3963, time=12),
    Message('pitchwheel', channel=1, pitch=3699, time=12),
    Message('note_off', channel=1, note=31, velocity=127, time=7),
    Message('pitchwheel', channel=1, pitch=1585, time=1),
    Message('pitchwheel', channel=1, pitch=0, time=8),
    Message('note_on', channel=1, note=36, velocity=113, time=6),
    Message('note_off', channel=1, note=36, velocity=113, time=530),
    Message('note_on', channel=1, note=36, velocity=127, time=46),
    Message('pitchwheel', channel=1, pitch=-1, time=125),
    Message('pitchwheel', channel=1, pitch=-794, time=7),
    Message('pitchwheel', channel=1, pitch=-1323, time=8),
    Message('pitchwheel', channel=1, pitch=-2115, time=8),
    Message('pitchwheel', channel=1, pitch=-2908, time=8),
    Message('pitchwheel', channel=1, pitch=-3436, time=7),
    Message('note_off', channel=1, note=36, velocity=127, time=4),
    Message('pitchwheel', channel=1, pitch=-3436, time=12),
    Message('pitchwheel', channel=1, pitch=-2115, time=8),
    Message('note_on', channel=1, note=32, velocity=104, time=5),
    Message('pitchwheel', channel=1, pitch=-266, time=3),
    Message('pitchwheel', channel=1, pitch=0, time=7),
    Message('note_off', channel=1, note=32, velocity=104, time=519),
    Message('note_on', channel=1, note=32, velocity=110, time=47),
    Message('pitchwheel', channel=1, pitch=-1, time=104),
    Message('pitchwheel', channel=1, pitch=-530, time=8),
    Message('pitchwheel', channel=1, pitch=-1058, time=8),
    Message('pitchwheel', channel=1, pitch=-1851, time=8),
    Message('pitchwheel', channel=1, pitch=-2380, time=7),
    Message('pitchwheel', channel=1, pitch=-3172, time=8),
    Message('pitchwheel', channel=1, pitch=-3965, time=8),
    Message('pitchwheel', channel=1, pitch=-5022, time=7),
    Message('pitchwheel', channel=1, pitch=-5550, time=8),
    Message('pitchwheel', channel=1, pitch=-5286, time=12),
    Message('note_off', channel=1, note=32, velocity=110, time=7),
    Message('pitchwheel', channel=1, pitch=-3436, time=1),
    Message('note_on', channel=1, note=29, velocity=122, time=6),
    Message('pitchwheel', channel=1, pitch=-794, time=2),
    Message('pitchwheel', channel=1, pitch=0, time=8),
    Message('note_off', channel=1, note=29, velocity=122, time=631),
    Message('note_on', channel=1, note=34, velocity=127, time=127),
    Message('note_off', channel=1, note=34, velocity=127, time=220),
    Message('note_on', channel=1, note=34, velocity=127, time=68),
    Message('note_off', channel=1, note=34, velocity=127, time=55),
    Message('note_on', channel=1, note=34, velocity=110, time=41),
    Message('note_off', channel=1, note=34, velocity=110, time=298),
    Message('note_on', channel=1, note=34, velocity=127, time=86),
    Message('note_off', channel=1, note=34, velocity=127, time=239),
    Message('note_on', channel=1, note=34, velocity=110, time=49),
    Message('note_off', channel=1, note=34, velocity=110, time=52),
    Message('note_on', channel=1, note=34, velocity=127, time=44),
    Message('note_off', channel=1, note=34, velocity=127, time=200),
    Message('note_on', channel=1, note=34, velocity=127, time=184),
    Message('note_off', channel=1, note=34, velocity=127, time=228),
    Message('note_on', channel=1, note=34, velocity=127, time=60),
    Message('note_off', channel=1, note=34, velocity=127, time=34),
    Message('note_on', channel=1, note=34, velocity=127, time=62),
    Message('note_off', channel=1, note=34, velocity=127, time=303),
    Message('note_on', channel=1, note=34, velocity=127, time=81),
    Message('note_off', channel=1, note=34, velocity=127, time=221),
    Message('note_on', channel=1, note=34, velocity=127, time=67),
    Message('note_off', channel=1, note=34, velocity=127, time=41),
    Message('note_on', channel=1, note=34, velocity=110, time=55),
    Message('note_off', channel=1, note=34, velocity=110, time=279),
    Message('note_on', channel=1, note=39, velocity=110, time=105),
    Message('note_off', channel=1, note=39, velocity=110, time=231),
    Message('note_on', channel=1, note=39, velocity=110, time=57),
    Message('note_off', channel=1, note=39, velocity=110, time=48),
    Message('note_on', channel=1, note=39, velocity=110, time=48),
    Message('note_off', channel=1, note=39, velocity=110, time=300),
    Message('note_on', channel=1, note=39, velocity=110, time=84),
    Message('note_off', channel=1, note=39, velocity=110, time=228),
    Message('note_on', channel=1, note=39, velocity=110, time=60),
    Message('note_off', channel=1, note=39, velocity=110, time=46),
    Message('note_on', channel=1, note=39, velocity=110, time=50),
    Message('note_off', channel=1, note=39, velocity=110, time=314),
    Message('note_on', channel=1, note=39, velocity=110, time=70),
    Message('note_off', channel=1, note=39, velocity=110, time=230),
    Message('note_on', channel=1, note=39, velocity=104, time=58),
    Message('note_off', channel=1, note=39, velocity=104, time=46),
    Message('note_on', channel=1, note=39, velocity=110, time=50),
    Message('note_off', channel=1, note=39, velocity=110, time=304),
    Message('note_on', channel=1, note=39, velocity=127, time=80),
    Message('note_off', channel=1, note=39, velocity=127, time=235),
    Message('note_on', channel=1, note=39, velocity=100, time=53),
    Message('note_off', channel=1, note=39, velocity=100, time=43),
    Message('note_on', channel=1, note=39, velocity=100, time=53),
    Message('note_off', channel=1, note=39, velocity=100, time=280),
    Message('note_on', channel=1, note=38, velocity=127, time=104),
    Message('note_off', channel=1, note=38, velocity=127, time=238),
    Message('note_on', channel=1, note=38, velocity=127, time=50),
    Message('note_off', channel=1, note=38, velocity=127, time=48),
    Message('note_on', channel=1, note=38, velocity=127, time=48),
    Message('note_off', channel=1, note=38, velocity=127, time=271),
    Message('note_on', channel=1, note=31, velocity=127, time=113),
    Message('note_off', channel=1, note=31, velocity=127, time=227),
    Message('note_on', channel=1, note=31, velocity=127, time=61),
    Message('note_off', channel=1, note=31, velocity=127, time=44),
    Message('note_on', channel=1, note=31, velocity=122, time=52),
    Message('note_off', channel=1, note=31, velocity=122, time=333),
    Message('note_on', channel=1, note=36, velocity=127, time=51),
    Message('note_off', channel=1, note=36, velocity=127, time=206),
    Message('note_on', channel=1, note=36, velocity=113, time=82),
    Message('note_off', channel=1, note=36, velocity=113, time=49),
    Message('note_on', channel=1, note=36, velocity=113, time=47),
    Message('note_off', channel=1, note=36, velocity=113, time=229),
    Message('note_on', channel=1, note=30, velocity=104, time=155),
    Message('note_off', channel=1, note=30, velocity=104, time=222),
    Message('note_on', channel=1, note=30, velocity=104, time=66),
    Message('note_off', channel=1, note=30, velocity=104, time=51),
    Message('note_on', channel=1, note=30, velocity=104, time=45),
    Message('note_off', channel=1, note=30, velocity=104, time=324),
    Message('note_on', channel=1, note=29, velocity=127, time=60),
    Message('note_off', channel=1, note=29, velocity=127, time=229),
    Message('note_on', channel=1, note=29, velocity=122, time=59),
    Message('note_off', channel=1, note=29, velocity=122, time=53),
    Message('note_on', channel=1, note=29, velocity=117, time=43),
    Message('note_off', channel=1, note=29, velocity=117, time=321),
    Message('note_on', channel=1, note=29, velocity=127, time=63),
    Message('note_off', channel=1, note=29, velocity=127, time=230),
    Message('note_on', channel=1, note=29, velocity=127, time=58),
    Message('note_off', channel=1, note=29, velocity=127, time=53),
    Message('note_on', channel=1, note=29, velocity=122, time=43),
    Message('note_off', channel=1, note=29, velocity=122, time=357),
    Message('note_on', channel=1, note=34, velocity=127, time=27),
    Message('note_off', channel=1, note=34, velocity=127, time=220),
    Message('note_on', channel=1, note=34, velocity=127, time=68),
    Message('note_off', channel=1, note=34, velocity=127, time=55),
    Message('note_on', channel=1, note=34, velocity=110, time=41),
    Message('note_off', channel=1, note=34, velocity=110, time=298),
    Message('note_on', channel=1, note=34, velocity=127, time=86),
    Message('note_off', channel=1, note=34, velocity=127, time=239),
    Message('note_on', channel=1, note=34, velocity=110, time=49),
    Message('note_off', channel=1, note=34, velocity=110, time=52),
    Message('note_on', channel=1, note=34, velocity=127, time=44),
    Message('note_off', channel=1, note=34, velocity=127, time=200),
    Message('note_on', channel=1, note=34, velocity=127, time=184),
    Message('note_off', channel=1, note=34, velocity=127, time=228),
    Message('note_on', channel=1, note=34, velocity=127, time=60),
    Message('note_off', channel=1, note=34, velocity=127, time=34),
    Message('note_on', channel=1, note=34, velocity=127, time=62),
    Message('note_off', channel=1, note=34, velocity=127, time=303),
    Message('note_on', channel=1, note=34, velocity=127, time=81),
    Message('note_off', channel=1, note=34, velocity=127, time=221),
    Message('note_on', channel=1, note=34, velocity=127, time=67),
    Message('note_off', channel=1, note=34, velocity=127, time=41),
    Message('note_on', channel=1, note=34, velocity=110, time=55),
    Message('note_off', channel=1, note=34, velocity=110, time=279),
    Message('note_on', channel=1, note=39, velocity=110, time=105),
    Message('note_off', channel=1, note=39, velocity=110, time=231),
    Message('note_on', channel=1, note=39, velocity=110, time=57),
    Message('note_off', channel=1, note=39, velocity=110, time=48),
    Message('note_on', channel=1, note=39, velocity=110, time=48),
    Message('note_off', channel=1, note=39, velocity=110, time=300),
    Message('note_on', channel=1, note=39, velocity=110, time=84),
    Message('note_off', channel=1, note=39, velocity=110, time=228),
    Message('note_on', channel=1, note=39, velocity=110, time=60),
    Message('note_off', channel=1, note=39, velocity=110, time=46),
    Message('note_on', channel=1, note=39, velocity=110, time=50),
    Message('note_off', channel=1, note=39, velocity=110, time=314),
    Message('note_on', channel=1, note=39, velocity=110, time=70),
    Message('note_off', channel=1, note=39, velocity=110, time=230),
    Message('note_on', channel=1, note=39, velocity=104, time=58),
    Message('note_off', channel=1, note=39, velocity=104, time=46),
    Message('note_on', channel=1, note=39, velocity=110, time=50),
    Message('note_off', channel=1, note=39, velocity=110, time=304),
    Message('note_on', channel=1, note=39, velocity=127, time=80),
    Message('note_off', channel=1, note=39, velocity=127, time=235),
    Message('note_on', channel=1, note=39, velocity=100, time=53),
    Message('note_off', channel=1, note=39, velocity=100, time=43),
    Message('note_on', channel=1, note=39, velocity=100, time=53),
    Message('note_off', channel=1, note=39, velocity=100, time=280),
    Message('note_on', channel=1, note=38, velocity=127, time=104),
    Message('note_off', channel=1, note=38, velocity=127, time=238),
    Message('note_on', channel=1, note=38, velocity=127, time=50),
    Message('note_off', channel=1, note=38, velocity=127, time=48),
    Message('note_on', channel=1, note=38, velocity=127, time=48),
    Message('note_off', channel=1, note=38, velocity=127, time=271),
    Message('note_on', channel=1, note=31, velocity=127, time=113),
    Message('note_off', channel=1, note=31, velocity=127, time=227),
    Message('note_on', channel=1, note=31, velocity=127, time=61),
    Message('note_off', channel=1, note=31, velocity=127, time=44),
    Message('note_on', channel=1, note=31, velocity=122, time=52),
    Message('note_off', channel=1, note=31, velocity=122, time=333),
    Message('note_on', channel=1, note=36, velocity=127, time=51),
    Message('note_off', channel=1, note=36, velocity=127, time=206),
    Message('note_on', channel=1, note=36, velocity=113, time=82),
    Message('note_off', channel=1, note=36, velocity=113, time=49),
    Message('note_on', channel=1, note=36, velocity=113, time=47),
    Message('note_off', channel=1, note=36, velocity=113, time=229),
    Message('note_on', channel=1, note=30, velocity=104, time=155),
    Message('note_off', channel=1, note=30, velocity=104, time=222),
    Message('note_on', channel=1, note=30, velocity=104, time=66),
    Message('note_off', channel=1, note=30, velocity=104, time=51),
    Message('note_on', channel=1, note=30, velocity=104, time=45),
    Message('note_off', channel=1, note=30, velocity=104, time=324),
    Message('note_on', channel=1, note=29, velocity=127, time=60),
    Message('note_off', channel=1, note=29, velocity=127, time=229),
    Message('note_on', channel=1, note=29, velocity=122, time=59),
    Message('note_off', channel=1, note=29, velocity=122, time=53),
    Message('note_on', channel=1, note=29, velocity=117, time=43),
    Message('note_off', channel=1, note=29, velocity=117, time=321),
    Message('note_on', channel=1, note=29, velocity=127, time=63),
    Message('note_off', channel=1, note=29, velocity=127, time=230),
    Message('note_on', channel=1, note=29, velocity=127, time=58),
    Message('note_off', channel=1, note=29, velocity=127, time=53),
    Message('note_on', channel=1, note=29, velocity=122, time=43),
    Message('note_off', channel=1, note=29, velocity=122, time=357),
    Message('note_on', channel=1, note=34, velocity=110, time=27),
    Message('note_off', channel=1, note=34, velocity=110, time=259),
    Message('note_on', channel=1, note=34, velocity=104, time=29),
    Message('note_off', channel=1, note=34, velocity=104, time=54),
    Message('note_on', channel=1, note=34, velocity=104, time=42),
    Message('note_off', channel=1, note=34, velocity=104, time=332),
    Message('note_on', channel=1, note=34, velocity=110, time=52),
    Message('note_off', channel=1, note=34, velocity=110, time=665),
    Message('note_on', channel=1, note=34, velocity=110, time=103),
    Message('note_off', channel=1, note=34, velocity=110, time=249),
    Message('note_on', channel=1, note=34, velocity=110, time=39),
    Message('note_off', channel=1, note=34, velocity=110, time=68),
    Message('note_on', channel=1, note=34, velocity=127, time=28),
    Message('note_off', channel=1, note=34, velocity=127, time=362),
    Message('note_on', channel=1, note=35, velocity=127, time=22),
    Message('note_off', channel=1, note=35, velocity=127, time=254),
    Message('note_on', channel=1, note=35, velocity=113, time=34),
    Message('note_on', channel=1, note=31, velocity=117, time=96),
    Message('note_off', channel=1, note=35, velocity=113, time=10),
    Message('note_off', channel=1, note=31, velocity=117, time=178),
    Message('note_on', channel=1, note=38, velocity=127, time=4),
    Message('note_off', channel=1, note=38, velocity=127, time=178),
    Message('note_on', channel=1, note=36, velocity=117, time=14),
    Message('note_off', channel=1, note=36, velocity=117, time=252),
    Message('note_on', channel=1, note=36, velocity=117, time=36),
    Message('note_off', channel=1, note=36, velocity=117, time=55),
    Message('note_on', channel=1, note=36, velocity=122, time=41),
    Message('note_off', channel=1, note=36, velocity=122, time=368),
    Message('note_on', channel=1, note=30, velocity=127, time=16),
    Message('note_off', channel=1, note=30, velocity=127, time=253),
    Message('note_on', channel=1, note=30, velocity=104, time=35),
    Message('note_off', channel=1, note=30, velocity=104, time=66),
    Message('note_on', channel=1, note=30, velocity=104, time=30),
    Message('note_off', channel=1, note=30, velocity=104, time=348),
    Message('note_on', channel=1, note=29, velocity=127, time=36),
    Message('note_off', channel=1, note=29, velocity=127, time=230),
    Message('note_on', channel=1, note=29, velocity=97, time=58),
    Message('note_off', channel=1, note=29, velocity=97, time=51),
    Message('note_on', channel=1, note=29, velocity=101, time=45),
    Message('note_off', channel=1, note=29, velocity=101, time=342),
    Message('note_on', channel=1, note=41, velocity=113, time=42),
    Message('note_off', channel=1, note=41, velocity=113, time=519),
    Message('note_on', channel=1, note=34, velocity=110, time=249),
    Message('note_off', channel=1, note=34, velocity=110, time=267),
    Message('note_on', channel=1, note=34, velocity=104, time=21),
    Message('note_off', channel=1, note=34, velocity=104, time=70),
    Message('note_on', channel=1, note=34, velocity=110, time=26),
    Message('note_off', channel=1, note=34, velocity=110, time=351),
    Message('note_on', channel=1, note=34, velocity=110, time=33),
    Message('note_off', channel=1, note=34, velocity=110, time=707),
    Message('note_on', channel=1, note=34, velocity=127, time=253),
    Message('note_off', channel=1, note=34, velocity=127, time=766),
    MetaMessage('end_of_track', time=0)]),
  MidiTrack([
    MetaMessage('track_name', name='SynthBrass 1', time=0),
    Message('control_change', channel=2, control=0, value=0, time=0),
    Message('control_change', channel=2, control=32, value=0, time=0),
    Message('program_change', channel=2, program=62, time=0),
    Message('control_change', channel=2, control=7, value=106, time=0),
    Message('control_change', channel=2, control=10, value=52, time=0),
    Message('control_change', channel=2, control=11, value=127, time=0),
    Message('control_change', channel=2, control=91, value=110, time=0),
    Message('control_change', channel=2, control=93, value=40, time=0),
    Message('control_change', channel=2, control=101, value=0, time=110),
    Message('control_change', channel=2, control=100, value=0, time=50),
    Message('control_change', channel=2, control=6, value=2, time=88),
    Message('note_on', channel=2, note=67, velocity=99, time=23272),
    Message('note_on', channel=2, note=67, velocity=0, time=45),
    Message('note_on', channel=2, note=68, velocity=99, time=51),
    Message('note_on', channel=2, note=68, velocity=0, time=23),
    Message('note_on', channel=2, note=67, velocity=99, time=25),
    Message('note_on', channel=2, note=67, velocity=0, time=32),
    Message('note_on', channel=2, note=65, velocity=99, time=16),
    Message('note_on', channel=2, note=65, velocity=0, time=46),
    Message('note_on', channel=2, note=67, velocity=99, time=50),
    Message('note_on', channel=2, note=67, velocity=0, time=753),
    Message('note_on', channel=2, note=69, velocity=99, time=15),
    Message('note_on', channel=2, note=69, velocity=0, time=474),
    Message('note_on', channel=2, note=69, velocity=99, time=6),
    Message('note_on', channel=2, note=69, velocity=0, time=42),
    Message('note_on', channel=2, note=70, velocity=99, time=54),
    Message('note_on', channel=2, note=70, velocity=0, time=24),
    Message('note_on', channel=2, note=69, velocity=99, time=24),
    Message('note_on', channel=2, note=69, velocity=0, time=29),
    Message('note_on', channel=2, note=67, velocity=99, time=19),
    Message('note_on', channel=2, note=67, velocity=0, time=58),
    Message('note_on', channel=2, note=69, velocity=99, time=38),
    Message('note_on', channel=2, note=69, velocity=0, time=763),
    Message('note_on', channel=2, note=70, velocity=111, time=5),
    Message('note_on', channel=2, note=70, velocity=0, time=735),
    Message('note_on', channel=2, note=71, velocity=111, time=33),
    Message('note_on', channel=2, note=71, velocity=0, time=367),
    Message('note_on', channel=2, note=72, velocity=111, time=17),
    Message('note_on', channel=2, note=74, velocity=111, time=192),
    Message('note_on', channel=2, note=72, velocity=0, time=19),
    Message('note_on', channel=2, note=74, velocity=0, time=156),
    Message('note_on', channel=2, note=72, velocity=111, time=17),
    Message('note_on', channel=2, note=72, velocity=0, time=763),
    Message('note_on', channel=2, note=61, velocity=112, time=5),
    Message('note_on', channel=2, note=73, velocity=113, time=0),
    Message('note_on', channel=2, note=73, velocity=0, time=745),
    Message('note_on', channel=2, note=62, velocity=114, time=23),
    Message('note_on', channel=2, note=74, velocity=115, time=0),
    Message('note_on', channel=2, note=61, velocity=0, time=18),
    Message('note_on', channel=2, note=62, velocity=0, time=731),
    Message('note_on', channel=2, note=74, velocity=0, time=14),
    Message('note_on', channel=2, note=60, velocity=116, time=5),
    Message('note_on', channel=2, note=72, velocity=117, time=0),
    Message('note_on', channel=2, note=60, velocity=0, time=730),
    Message('note_on', channel=2, note=70, velocity=99, time=38),
    Message('note_on', channel=2, note=75, velocity=88, time=0),
    Message('note_on', channel=2, note=72, velocity=0, time=12),
    Message('note_on', channel=2, note=70, velocity=0, time=730),
    Message('note_on', channel=2, note=75, velocity=0, time=0),
    Message('note_on', channel=2, note=70, velocity=77, time=26),
    Message('note_on', channel=2, note=74, velocity=77, time=0),
    Message('note_on', channel=2, note=74, velocity=0, time=392),
    Message('note_on', channel=2, note=70, velocity=0, time=1),
    Message('note_on', channel=2, note=67, velocity=127, time=26967),
    Message('note_on', channel=2, note=67, velocity=0, time=36),
    Message('note_on', channel=2, note=68, velocity=110, time=60),
    Message('note_on', channel=2, note=68, velocity=0, time=24),
    Message('note_on', channel=2, note=67, velocity=127, time=24),
    Message('note_on', channel=2, note=67, velocity=0, time=32),
    Message('note_on', channel=2, note=65, velocity=113, time=16),
    Message('note_on', channel=2, note=65, velocity=0, time=35),
    Message('note_on', channel=2, note=67, velocity=127, time=61),
    Message('note_on', channel=2, note=69, velocity=122, time=768),
    Message('note_on', channel=2, note=67, velocity=0, time=1),
    Message('note_on', channel=2, note=69, velocity=0, time=419),
    Message('note_on', channel=2, note=69, velocity=127, time=60),
    Message('note_on', channel=2, note=69, velocity=0, time=24),
    Message('note_on', channel=2, note=70, velocity=127, time=72),
    Message('note_on', channel=2, note=70, velocity=0, time=20),
    Message('note_on', channel=2, note=69, velocity=122, time=28),
    Message('note_on', channel=2, note=69, velocity=0, time=26),
    Message('note_on', channel=2, note=67, velocity=117, time=22),
    Message('note_on', channel=2, note=67, velocity=0, time=29),
    Message('note_on', channel=2, note=69, velocity=127, time=67),
    Message('note_on', channel=2, note=69, velocity=0, time=744),
    Message('note_on', channel=2, note=70, velocity=127, time=24),
    Message('note_on', channel=2, note=71, velocity=127, time=768),
    Message('note_on', channel=2, note=70, velocity=0, time=6),
    Message('note_on', channel=2, note=72, velocity=108, time=378),
    Message('note_on', channel=2, note=71, velocity=0, time=4),
    Message('note_on', channel=2, note=74, velocity=97, time=188),
    Message('note_on', channel=2, note=72, velocity=0, time=17),
    Message('note_on', channel=2, note=74, velocity=0, time=169),
    Message('note_on', channel=2, note=72, velocity=108, time=6),
    Message('note_on', channel=2, note=72, velocity=0, time=500),
    Message('note_on', channel=2, note=73, velocity=104, time=268),
    Message('note_on', channel=2, note=74, velocity=117, time=768),
    Message('note_on', channel=2, note=73, velocity=0, time=4),
    Message('note_on', channel=2, note=74, velocity=0, time=763),
    Message('note_on', channel=2, note=72, velocity=101, time=1),
    Message('note_on', channel=2, note=72, velocity=0, time=658),
    Message('note_on', channel=2, note=67, velocity=94, time=110),
    Message('note_on', channel=2, note=65, velocity=79, time=480),
    Message('note_on', channel=2, note=67, velocity=0, time=4),
    Message('note_on', channel=2, note=67, velocity=86, time=44),
    Message('note_on', channel=2, note=65, velocity=0, time=9),
    Message('note_on', channel=2, note=65, velocity=81, time=39),
    Message('note_on', channel=2, note=67, velocity=0, time=12),
    Message('note_on', channel=2, note=67, velocity=101, time=36),
    Message('note_on', channel=2, note=65, velocity=0, time=9),
    Message('note_on', channel=2, note=65, velocity=79, time=39),
    Message('note_on', channel=2, note=67, velocity=0, time=1),
    Message('note_on', channel=2, note=67, velocity=104, time=47),
    Message('note_on', channel=2, note=65, velocity=0, time=14),
    Message('note_on', channel=2, note=62, velocity=104, time=34),
    Message('note_on', channel=2, note=67, velocity=0, time=10),
    Message('note_on', channel=2, note=62, velocity=0, time=596),
    Message('note_on', channel=2, note=67, velocity=99, time=4770),
    Message('note_on', channel=2, note=67, velocity=0, time=722),
    Message('note_on', channel=2, note=66, velocity=99, time=46),
    Message('note_on', channel=2, note=66, velocity=0, time=743),
    Message('note_on', channel=2, note=65, velocity=99, time=217),
    Message('note_on', channel=2, note=65, velocity=0, time=812),
    MetaMessage('end_of_track', time=0)]),
  MidiTrack([
    MetaMessage('track_name', name='Brass Section', time=0),
    Message('control_change', channel=3, control=0, value=0, time=0),
    Message('control_change', channel=3, control=32, value=0, time=0),
    Message('program_change', channel=3, program=61, time=0),
    Message('control_change', channel=3, control=7, value=102, time=0),
    Message('control_change', channel=3, control=10, value=69, time=0),
    Message('control_change', channel=3, control=11, value=127, time=0),
    Message('control_change', channel=3, control=91, value=110, time=0),
    Message('control_change', channel=3, control=93, value=50, time=0),
    Message('control_change', channel=3, control=101, value=0, time=110),
    Message('control_change', channel=3, control=100, value=0, time=50),
    Message('control_change', channel=3, control=6, value=2, time=88),
    Message('note_on', channel=3, note=79, velocity=111, time=23272),
    Message('note_off', channel=3, note=79, velocity=111, time=41),
    Message('note_on', channel=3, note=80, velocity=111, time=55),
    Message('note_off', channel=3, note=80, velocity=111, time=26),
    Message('note_on', channel=3, note=79, velocity=111, time=22),
    Message('note_off', channel=3, note=79, velocity=111, time=33),
    Message('note_on', channel=3, note=77, velocity=111, time=15),
    Message('note_off', channel=3, note=77, velocity=111, time=58),
    Message('note_on', channel=3, note=79, velocity=111, time=38),
    Message('note_off', channel=3, note=79, velocity=111, time=568),
    Message('note_on', channel=3, note=81, velocity=111, time=680),
    Message('note_off', channel=3, note=81, velocity=111, time=36),
    Message('note_on', channel=3, note=82, velocity=111, time=60),
    Message('note_off', channel=3, note=82, velocity=111, time=31),
    Message('note_on', channel=3, note=81, velocity=111, time=17),
    Message('note_off', channel=3, note=81, velocity=111, time=47),
    Message('note_on', channel=3, note=79, velocity=111, time=1),
    Message('note_off', channel=3, note=79, velocity=111, time=54),
    Message('note_on', channel=3, note=81, velocity=111, time=42),
    Message('note_off', channel=3, note=81, velocity=111, time=362),
    Message('note_on', channel=3, note=79, velocity=111, time=22390),
    Message('note_off', channel=3, note=79, velocity=111, time=41),
    Message('note_on', channel=3, note=80, velocity=111, time=55),
    Message('note_off', channel=3, note=80, velocity=111, time=26),
    Message('note_on', channel=3, note=79, velocity=111, time=22),
    Message('note_off', channel=3, note=79, velocity=111, time=33),
    Message('note_on', channel=3, note=77, velocity=111, time=15),
    Message('note_off', channel=3, note=77, velocity=111, time=58),
    Message('note_on', channel=3, note=79, velocity=111, time=38),
    Message('note_off', channel=3, note=79, velocity=111, time=568),
    Message('note_on', channel=3, note=81, velocity=118, time=680),
    Message('note_off', channel=3, note=81, velocity=118, time=36),
    Message('note_on', channel=3, note=82, velocity=118, time=60),
    Message('note_off', channel=3, note=82, velocity=118, time=31),
    Message('note_on', channel=3, note=81, velocity=118, time=17),
    Message('note_off', channel=3, note=81, velocity=118, time=47),
    Message('note_on', channel=3, note=79, velocity=118, time=1),
    Message('note_off', channel=3, note=79, velocity=118, time=54),
    Message('note_on', channel=3, note=81, velocity=118, time=42),
    Message('note_off', channel=3, note=81, velocity=118, time=362),
    Message('note_on', channel=3, note=79, velocity=118, time=8566),
    Message('note_off', channel=3, note=79, velocity=118, time=41),
    Message('note_on', channel=3, note=80, velocity=118, time=55),
    Message('note_off', channel=3, note=80, velocity=118, time=26),
    Message('note_on', channel=3, note=79, velocity=118, time=22),
    Message('note_off', channel=3, note=79, velocity=118, time=33),
    Message('note_on', channel=3, note=77, velocity=118, time=15),
    Message('note_off', channel=3, note=77, velocity=118, time=58),
    Message('note_on', channel=3, note=79, velocity=118, time=38),
    Message('note_off', channel=3, note=79, velocity=118, time=568),
    Message('note_on', channel=3, note=81, velocity=118, time=680),
    Message('note_off', channel=3, note=81, velocity=118, time=36),
    Message('note_on', channel=3, note=82, velocity=118, time=60),
    Message('note_off', channel=3, note=82, velocity=118, time=31),
    Message('note_on', channel=3, note=81, velocity=118, time=17),
    Message('note_off', channel=3, note=81, velocity=118, time=47),
    Message('note_on', channel=3, note=79, velocity=118, time=1),
    Message('note_off', channel=3, note=79, velocity=118, time=54),
    Message('note_on', channel=3, note=81, velocity=118, time=42),
    Message('note_off', channel=3, note=81, velocity=118, time=362),
    MetaMessage('end_of_track', time=0)]),
  MidiTrack([
    MetaMessage('track_name', name='Ocarina', time=0),
    Message('control_change', channel=4, control=0, value=0, time=0),
    Message('control_change', channel=4, control=32, value=0, time=0),
    Message('program_change', channel=4, program=79, time=0),
    Message('control_change', channel=4, control=7, value=102, time=0),
    Message('control_change', channel=4, control=10, value=52, time=0),
    Message('control_change', channel=4, control=11, value=127, time=0),
    Message('control_change', channel=4, control=91, value=86, time=0),
    Message('control_change', channel=4, control=93, value=32, time=0),
    Message('control_change', channel=4, control=101, value=0, time=110),
    Message('control_change', channel=4, control=100, value=0, time=50),
    Message('control_change', channel=4, control=6, value=2, time=88),
    Message('note_on', channel=4, note=70, velocity=44, time=30472),
    Message('note_off', channel=4, note=70, velocity=44, time=48),
    Message('note_on', channel=4, note=74, velocity=44, time=0),
    Message('note_off', channel=4, note=74, velocity=44, time=48),
    Message('note_on', channel=4, note=77, velocity=44, time=0),
    Message('note_on', channel=4, note=74, velocity=44, time=48),
    Message('note_off', channel=4, note=77, velocity=44, time=0),
    Message('note_off', channel=4, note=74, velocity=44, time=48),
    Message('note_on', channel=4, note=77, velocity=44, time=0),
    Message('note_on', channel=4, note=74, velocity=44, time=48),
    Message('note_off', channel=4, note=77, velocity=44, time=0),
    Message('note_on', channel=4, note=72, velocity=44, time=48),
    Message('note_off', channel=4, note=74, velocity=44, time=0),
    Message('note_off', channel=4, note=72, velocity=44, time=48),
    Message('note_on', channel=4, note=74, velocity=44, time=0),
    Message('note_on', channel=4, note=70, velocity=44, time=48),
    Message('note_off', channel=4, note=74, velocity=44, time=2),
    Message('note_off', channel=4, note=70, velocity=44, time=46),
    Message('note_on', channel=4, note=74, velocity=44, time=0),
    Message('note_off', channel=4, note=74, velocity=44, time=48),
    Message('note_on', channel=4, note=77, velocity=44, time=0),
    Message('note_on', channel=4, note=74, velocity=44, time=48),
    Message('note_off', channel=4, note=77, velocity=44, time=0),
    Message('note_off', channel=4, note=74, velocity=44, time=48),
    Message('note_on', channel=4, note=77, velocity=55, time=0),
    Message('note_on', channel=4, note=74, velocity=55, time=48),
    Message('note_off', channel=4, note=77, velocity=55, time=0),
    Message('note_on', channel=4, note=72, velocity=55, time=48),
    Message('note_off', channel=4, note=74, velocity=55, time=0),
    Message('control_change', channel=4, control=10, value=2, time=41),
    Message('note_off', channel=4, note=72, velocity=55, time=7),
    Message('note_on', channel=4, note=74, velocity=55, time=0),
    Message('control_change', channel=4, control=10, value=5, time=31),
    Message('note_on', channel=4, note=70, velocity=77, time=17),
    Message('note_off', channel=4, note=74, velocity=55, time=0),
    Message('control_change', channel=4, control=10, value=8, time=3),
    Message('control_change', channel=4, control=10, value=11, time=26),
    Message('note_off', channel=4, note=70, velocity=66, time=19),
    Message('note_on', channel=4, note=74, velocity=66, time=0),
    Message('control_change', channel=4, control=10, value=13, time=31),
    Message('note_off', channel=4, note=74, velocity=66, time=17),
    Message('note_on', channel=4, note=77, velocity=77, time=0),
    Message('control_change', channel=4, control=10, value=16, time=4),
    Message('control_change', channel=4, control=10, value=18, time=37),
    Message('note_on', channel=4, note=74, velocity=66, time=7),
    Message('note_off', channel=4, note=77, velocity=66, time=0),
    Message('control_change', channel=4, control=10, value=21, time=39),
    Message('note_off', channel=4, note=74, velocity=66, time=9),
    Message('note_on', channel=4, note=77, velocity=66, time=0),
    Message('control_change', channel=4, control=10, value=23, time=12),
    Message('control_change', channel=4, control=10, value=26, time=25),
    Message('note_on', channel=4, note=74, velocity=66, time=11),
    Message('note_off', channel=4, note=77, velocity=66, time=0),
    Message('control_change', channel=4, control=10, value=28, time=10),
    Message('control_change', channel=4, control=10, value=31, time=16),
    Message('control_change', channel=4, control=10, value=34, time=17),
    Message('note_on', channel=4, note=72, velocity=77, time=5),
    Message('note_off', channel=4, note=74, velocity=66, time=0),
    Message('control_change', channel=4, control=10, value=38, time=12),
    Message('control_change', channel=4, control=10, value=42, time=16),
    Message('control_change', channel=4, control=10, value=45, time=17),
    Message('note_off', channel=4, note=72, velocity=77, time=3),
    Message('note_on', channel=4, note=74, velocity=71, time=0),
    Message('control_change', channel=4, control=10, value=47, time=14),
    Message('control_change', channel=4, control=10, value=50, time=29),
    Message('note_on', channel=4, note=70, velocity=77, time=5),
    Message('note_off', channel=4, note=74, velocity=77, time=0),
    Message('control_change', channel=4, control=10, value=53, time=16),
    Message('control_change', channel=4, control=10, value=56, time=16),
    Message('note_off', channel=4, note=70, velocity=77, time=16),
    Message('note_on', channel=4, note=74, velocity=77, time=0),
    Message('control_change', channel=4, control=10, value=58, time=1),
    Message('control_change', channel=4, control=10, value=61, time=21),
    Message('control_change', channel=4, control=10, value=63, time=16),
    Message('note_off', channel=4, note=74, velocity=77, time=10),
    Message('note_on', channel=4, note=77, velocity=71, time=0),
    Message('control_change', channel=4, control=10, value=66, time=11),
    Message('control_change', channel=4, control=10, value=68, time=25),
    Message('note_on', channel=4, note=74, velocity=88, time=12),
    Message('note_off', channel=4, note=77, velocity=77, time=0),
    Message('control_change', channel=4, control=10, value=71, time=9),
    Message('control_change', channel=4, control=10, value=73, time=25),
    Message('note_off', channel=4, note=74, velocity=88, time=14),
    Message('note_on', channel=4, note=77, velocity=88, time=0),
    Message('control_change', channel=4, control=10, value=76, time=15),
    Message('control_change', channel=4, control=10, value=78, time=25),
    Message('note_on', channel=4, note=74, velocity=88, time=8),
    Message('note_off', channel=4, note=77, velocity=88, time=0),
    Message('control_change', channel=4, control=10, value=81, time=17),
    Message('control_change', channel=4, control=10, value=83, time=21),
    Message('note_on', channel=4, note=72, velocity=88, time=10),
    Message('note_off', channel=4, note=74, velocity=88, time=0),
    Message('control_change', channel=4, control=10, value=87, time=15),
    Message('control_change', channel=4, control=10, value=90, time=17),
    Message('note_off', channel=4, note=72, velocity=88, time=16),
    Message('note_on', channel=4, note=74, velocity=88, time=0),
    Message('control_change', channel=4, control=10, value=92, time=1),
    Message('control_change', channel=4, control=10, value=95, time=29),
    Message('control_change', channel=4, control=10, value=97, time=16),
    Message('note_on', channel=4, note=70, velocity=77, time=2),
    Message('note_off', channel=4, note=74, velocity=88, time=0),
    Message('control_change', channel=4, control=10, value=100, time=19),
    Message('control_change', channel=4, control=10, value=102, time=25),
    Message('note_off', channel=4, note=70, velocity=77, time=4),
    Message('note_on', channel=4, note=74, velocity=77, time=0),
    Message('control_change', channel=4, control=10, value=106, time=30),
    Message('control_change', channel=4, control=10, value=108, time=16),
    Message('note_off', channel=4, note=74, velocity=77, time=2),
    Message('note_on', channel=4, note=77, velocity=77, time=0),
    Message('control_change', channel=4, control=10, value=111, time=19),
    Message('control_change', channel=4, control=10, value=114, time=16),
    Message('note_on', channel=4, note=74, velocity=77, time=13),
    Message('note_off', channel=4, note=77, velocity=77, time=0),
    Message('control_change', channel=4, control=10, value=116, time=4),
    Message('control_change', channel=4, control=10, value=119, time=21),
    Message('note_off', channel=4, note=74, velocity=77, time=23),
    Message('note_on', channel=4, note=77, velocity=77, time=0),
    Message('control_change', channel=4, control=10, value=121, time=6),
    Message('control_change', channel=4, control=10, value=124, time=30),
    Message('note_on', channel=4, note=74, velocity=66, time=12),
    Message('note_off', channel=4, note=77, velocity=77, time=0),
    Message('note_on', channel=4, note=72, velocity=66, time=48),
    Message('note_off', channel=4, note=74, velocity=66, time=0),
    Message('control_change', channel=4, control=10, value=126, time=15),
    Message('note_off', channel=4, note=72, velocity=66, time=33),
    Message('note_on', channel=4, note=74, velocity=66, time=0),
    Message('note_on', channel=4, note=70, velocity=66, time=48),
    Message('note_off', channel=4, note=74, velocity=66, time=0),
    Message('note_off', channel=4, note=70, velocity=66, time=48),
    Message('note_on', channel=4, note=74, velocity=66, time=0),
    Message('note_off', channel=4, note=74, velocity=66, time=48),
    Message('note_on', channel=4, note=77, velocity=55, time=0),
    Message('note_on', channel=4, note=74, velocity=55, time=48),
    Message('note_off', channel=4, note=77, velocity=55, time=0),
    Message('note_off', channel=4, note=74, velocity=55, time=48),
    Message('note_on', channel=4, note=77, velocity=55, time=0),
    Message('note_on', channel=4, note=74, velocity=55, time=48),
    Message('note_off', channel=4, note=77, velocity=55, time=0),
    Message('note_on', channel=4, note=72, velocity=44, time=48),
    Message('note_off', channel=4, note=74, velocity=55, time=0),
    Message('note_off', channel=4, note=72, velocity=44, time=48),
    Message('note_on', channel=4, note=74, velocity=44, time=0),
    Message('note_on', channel=4, note=70, velocity=44, time=48),
    Message('note_off', channel=4, note=74, velocity=44, time=0),
    Message('note_off', channel=4, note=70, velocity=44, time=48),
    Message('note_on', channel=4, note=74, velocity=44, time=0),
    Message('note_off', channel=4, note=74, velocity=44, time=48),
    Message('note_on', channel=4, note=77, velocity=33, time=0),
    Message('note_on', channel=4, note=74, velocity=33, time=48),
    Message('note_off', channel=4, note=77, velocity=33, time=0),
    Message('note_off', channel=4, note=74, velocity=33, time=48),
    Message('note_on', channel=4, note=77, velocity=33, time=0),
    Message('note_on', channel=4, note=74, velocity=33, time=48),
    Message('note_off', channel=4, note=77, velocity=33, time=0),
    Message('note_on', channel=4, note=72, velocity=33, time=48),
    Message('note_off', channel=4, note=74, velocity=33, time=0),
    Message('note_off', channel=4, note=72, velocity=33, time=48),
    Message('note_on', channel=4, note=74, velocity=22, time=0),
    Message('note_on', channel=4, note=70, velocity=22, time=48),
    Message('note_off', channel=4, note=74, velocity=22, time=0),
    Message('note_off', channel=4, note=70, velocity=22, time=48),
    Message('note_on', channel=4, note=74, velocity=22, time=0),
    Message('note_off', channel=4, note=74, velocity=22, time=48),
    Message('note_on', channel=4, note=77, velocity=22, time=0),
    Message('note_on', channel=4, note=74, velocity=22, time=48),
    Message('note_off', channel=4, note=77, velocity=22, time=0),
    Message('note_off', channel=4, note=74, velocity=22, time=48),
    Message('note_on', channel=4, note=77, velocity=22, time=0),
    Message('note_on', channel=4, note=74, velocity=22, time=48),
    Message('note_off', channel=4, note=77, velocity=22, time=0),
    Message('note_on', channel=4, note=72, velocity=22, time=48),
    Message('note_off', channel=4, note=74, velocity=127, time=0),
    Message('note_off', channel=4, note=72, velocity=22, time=48),
    Message('note_on', channel=4, note=74, velocity=22, time=0),
    Message('note_off', channel=4, note=74, velocity=22, time=48),
    Message('note_on', channel=4, note=77, velocity=63, time=768),
    Message('note_on', channel=4, note=84, velocity=63, time=0),
    Message('note_off', channel=4, note=84, velocity=63, time=48),
    Message('note_off', channel=4, note=77, velocity=63, time=0),
    Message('note_on', channel=4, note=82, velocity=63, time=0),
    Message('note_on', channel=4, note=86, velocity=63, time=0),
    Message('note_off', channel=4, note=86, velocity=63, time=48),
    Message('note_off', channel=4, note=82, velocity=63, time=0),
    Message('note_on', channel=4, note=84, velocity=59, time=0),
    Message('note_on', channel=4, note=89, velocity=43, time=0),
    Message('control_change', channel=4, control=10, value=124, time=44),
    Message('note_on', channel=4, note=82, velocity=51, time=4),
    Message('note_off', channel=4, note=89, velocity=43, time=0),
    Message('note_off', channel=4, note=84, velocity=59, time=0),
    Message('note_on', channel=4, note=86, velocity=57, time=0),
    Message('control_change', channel=4, control=10, value=121, time=21),
    Message('note_on', channel=4, note=77, velocity=63, time=27),
    Message('note_off', channel=4, note=86, velocity=57, time=0),
    Message('note_off', channel=4, note=82, velocity=51, time=0),
    Message('note_on', channel=4, note=84, velocity=51, time=0),
    Message('control_change', channel=4, control=10, value=119, time=2),
    Message('control_change', channel=4, control=10, value=116, time=29),
    Message('note_off', channel=4, note=84, velocity=51, time=17),
    Message('note_off', channel=4, note=77, velocity=63, time=0),
    Message('note_on', channel=4, note=82, velocity=55, time=0),
    Message('note_on', channel=4, note=86, velocity=67, time=0),
    Message('control_change', channel=4, control=10, value=114, time=46),
    Message('note_off', channel=4, note=86, velocity=67, time=2),
    Message('note_off', channel=4, note=82, velocity=55, time=0),
    Message('note_on', channel=4, note=84, velocity=71, time=0),
    Message('note_on', channel=4, note=89, velocity=79, time=0),
    Message('control_change', channel=4, control=10, value=111, time=39),
    Message('note_on', channel=4, note=82, velocity=55, time=9),
    Message('note_off', channel=4, note=89, velocity=79, time=0),
    Message('note_off', channel=4, note=84, velocity=71, time=0),
    Message('note_on', channel=4, note=86, velocity=67, time=0),
    Message('control_change', channel=4, control=10, value=109, time=29),
    Message('note_on', channel=4, note=77, velocity=59, time=19),
    Message('note_off', channel=4, note=86, velocity=67, time=0),
    Message('note_off', channel=4, note=82, velocity=55, time=0),
    Message('note_on', channel=4, note=84, velocity=58, time=0),
    Message('control_change', channel=4, control=10, value=106, time=2),
    Message('note_off', channel=4, note=84, velocity=58, time=46),
    Message('note_off', channel=4, note=77, velocity=59, time=0),
    Message('note_on', channel=4, note=82, velocity=46, time=0),
    Message('note_on', channel=4, note=86, velocity=60, time=0),
    Message('control_change', channel=4, control=10, value=104, time=20),
    Message('note_off', channel=4, note=86, velocity=60, time=28),
    Message('note_off', channel=4, note=82, velocity=46, time=0),
    Message('note_on', channel=4, note=84, velocity=73, time=0),
    Message('note_on', channel=4, note=89, velocity=73, time=0),
    Message('control_change', channel=4, control=10, value=101, time=18),
    Message('note_on', channel=4, note=82, velocity=61, time=30),
    Message('note_off', channel=4, note=89, velocity=73, time=0),
    Message('note_off', channel=4, note=84, velocity=73, time=0),
    Message('note_on', channel=4, note=86, velocity=77, time=0),
    Message('control_change', channel=4, control=10, value=99, time=16),
    Message('note_on', channel=4, note=77, velocity=66, time=32),
    Message('note_off', channel=4, note=86, velocity=77, time=0),
    Message('note_off', channel=4, note=82, velocity=61, time=0),
    Message('note_on', channel=4, note=84, velocity=58, time=0),
    Message('control_change', channel=4, control=10, value=96, time=1),
    Message('control_change', channel=4, control=10, value=94, time=25),
    Message('note_off', channel=4, note=84, velocity=58, time=22),
    Message('note_off', channel=4, note=77, velocity=66, time=0),
    Message('note_on', channel=4, note=82, velocity=55, time=0),
    Message('note_on', channel=4, note=86, velocity=77, time=0),
    Message('control_change', channel=4, control=10, value=91, time=28),
    Message('note_off', channel=4, note=86, velocity=77, time=20),
    Message('note_off', channel=4, note=82, velocity=55, time=0),
    Message('note_on', channel=4, note=84, velocity=67, time=0),
    Message('note_on', channel=4, note=89, velocity=54, time=0),
    Message('control_change', channel=4, control=10, value=89, time=18),
    Message('note_on', channel=4, note=82, velocity=42, time=30),
    Message('note_off', channel=4, note=89, velocity=54, time=0),
    Message('note_off', channel=4, note=84, velocity=67, time=0),
    Message('note_on', channel=4, note=86, velocity=56, time=0),
    Message('control_change', channel=4, control=10, value=86, time=3),
    Message('control_change', channel=4, control=10, value=84, time=26),
    Message('note_on', channel=4, note=77, velocity=54, time=19),
    Message('note_off', channel=4, note=86, velocity=56, time=0),
    Message('note_off', channel=4, note=82, velocity=42, time=0),
    Message('note_on', channel=4, note=84, velocity=48, time=0),
    Message('control_change', channel=4, control=10, value=81, time=10),
    Message('control_change', channel=4, control=10, value=79, time=33),
    Message('note_off', channel=4, note=84, velocity=48, time=5),
    Message('note_off', channel=4, note=77, velocity=54, time=0),
    Message('note_on', channel=4, note=82, velocity=42, time=0),
    Message('note_on', channel=4, note=86, velocity=66, time=0),
    Message('control_change', channel=4, control=10, value=76, time=24),
    Message('control_change', channel=4, control=10, value=73, time=21),
    Message('note_off', channel=4, note=86, velocity=66, time=3),
    Message('note_off', channel=4, note=82, velocity=42, time=0),
    Message('note_on', channel=4, note=84, velocity=59, time=0),
    Message('note_on', channel=4, note=89, velocity=54, time=0),
    Message('control_change', channel=4, control=10, value=71, time=14),
    Message('control_change', channel=4, control=10, value=68, time=21),
    Message('note_on', channel=4, note=82, velocity=53, time=13),
    Message('note_off', channel=4, note=89, velocity=54, time=0),
    Message('note_off', channel=4, note=84, velocity=59, time=0),
    Message('note_on', channel=4, note=86, velocity=62, time=0),
    Message('control_change', channel=4, control=10, value=66, time=8),
    Message('control_change', channel=4, control=10, value=63, time=37),
    Message('note_on', channel=4, note=77, velocity=44, time=3),
    Message('note_off', channel=4, note=86, velocity=62, time=0),
    Message('note_off', channel=4, note=82, velocity=53, time=0),
    Message('note_on', channel=4, note=84, velocity=44, time=0),
    Message('control_change', channel=4, control=10, value=61, time=47),
    Message('note_off', channel=4, note=84, velocity=44, time=1),
    Message('note_off', channel=4, note=77, velocity=44, time=0),
    Message('note_on', channel=4, note=82, velocity=38, time=0),
    Message('note_on', channel=4, note=86, velocity=52, time=0),
    Message('note_off', channel=4, note=86, velocity=52, time=48),
    Message('note_off', channel=4, note=82, velocity=38, time=0),
    Message('note_on', channel=4, note=84, velocity=48, time=0),
    Message('control_change', channel=4, control=10, value=58, time=1),
    Message('control_change', channel=4, control=10, value=56, time=34),
    Message('note_on', channel=4, note=82, velocity=28, time=13),
    Message('note_off', channel=4, note=84, velocity=48, time=0),
    Message('note_on', channel=4, note=86, velocity=48, time=0),
    Message('control_change', channel=4, control=10, value=53, time=20),
    Message('control_change', channel=4, control=10, value=51, time=21),
    Message('note_on', channel=4, note=77, velocity=45, time=7),
    Message('note_off', channel=4, note=86, velocity=48, time=0),
    Message('note_off', channel=4, note=82, velocity=28, time=0),
    Message('note_on', channel=4, note=84, velocity=21, time=0),
    Message('control_change', channel=4, control=10, value=48, time=14),
    Message('note_off', channel=4, note=84, velocity=21, time=34),
    Message('note_off', channel=4, note=77, velocity=45, time=0),
    Message('control_change', channel=4, control=10, value=46, time=20),
    Message('control_change', channel=4, control=10, value=43, time=46),
    Message('control_change', channel=4, control=10, value=41, time=29),
    Message('control_change', channel=4, control=10, value=38, time=21),
    Message('control_change', channel=4, control=10, value=36, time=29),
    Message('control_change', channel=4, control=10, value=33, time=38),
    Message('control_change', channel=4, control=10, value=31, time=41),
    Message('control_change', channel=4, control=10, value=28, time=50),
    Message('control_change', channel=4, control=10, value=26, time=38),
    Message('control_change', channel=4, control=10, value=23, time=71),
    Message('control_change', channel=4, control=10, value=21, time=46),
    Message('control_change', channel=4, control=10, value=18, time=183),
    Message('control_change', channel=4, control=10, value=12, time=38),
    Message('control_change', channel=4, control=10, value=10, time=21),
    MetaMessage('end_of_track', time=0)]),
  MidiTrack([
    MetaMessage('track_name', name='Choir Aahs', time=0),
    Message('control_change', channel=6, control=0, value=0, time=0),
    Message('control_change', channel=6, control=32, value=0, time=0),
    Message('program_change', channel=6, program=52, time=0),
    Message('control_change', channel=6, control=7, value=116, time=0),
    Message('control_change', channel=6, control=10, value=82, time=0),
    Message('control_change', channel=6, control=11, value=127, time=0),
    Message('control_change', channel=6, control=91, value=108, time=0),
    Message('control_change', channel=6, control=93, value=57, time=0),
    Message('control_change', channel=6, control=101, value=0, time=110),
    Message('control_change', channel=6, control=100, value=0, time=50),
    Message('control_change', channel=6, control=6, value=2, time=88),
    Message('control_change', channel=6, control=64, value=0, time=19720),
    Message('control_change', channel=6, control=64, value=127, time=441),
    Message('control_change', channel=6, control=64, value=0, time=130),
    Message('note_on', channel=6, note=67, velocity=73, time=5),
    Message('note_on', channel=6, note=70, velocity=63, time=0),
    Message('note_on', channel=6, note=75, velocity=71, time=0),
    Message('control_change', channel=6, control=64, value=127, time=70),
    Message('note_on', channel=6, note=75, velocity=0, time=47),
    Message('note_on', channel=6, note=67, velocity=0, time=4),
    Message('note_on', channel=6, note=70, velocity=0, time=14),
    Message('note_on', channel=6, note=65, velocity=71, time=57),
    Message('note_on', channel=6, note=70, velocity=71, time=0),
    Message('note_on', channel=6, note=74, velocity=71, time=0),
    Message('control_change', channel=6, control=64, value=0, time=1),
    Message('control_change', channel=6, control=64, value=127, time=119),
    Message('note_on', channel=6, note=65, velocity=0, time=648),
    Message('note_on', channel=6, note=68, velocity=91, time=0),
    Message('note_on', channel=6, note=70, velocity=0, time=0),
    Message('note_on', channel=6, note=72, velocity=91, time=0),
    Message('note_on', channel=6, note=74, velocity=0, time=0),
    Message('note_on', channel=6, note=75, velocity=91, time=0),
    Message('control_change', channel=6, control=64, value=0, time=3),
    Message('control_change', channel=6, control=64, value=127, time=1354),
    Message('note_on', channel=6, note=68, velocity=0, time=68),
    Message('note_on', channel=6, note=75, velocity=0, time=1),
    Message('note_on', channel=6, note=72, velocity=0, time=3),
    Message('control_change', channel=6, control=64, value=0, time=94),
    Message('note_on', channel=6, note=67, velocity=91, time=13),
    Message('note_on', channel=6, note=70, velocity=91, time=0),
    Message('note_on', channel=6, note=75, velocity=91, time=0),
    Message('control_change', channel=6, control=64, value=127, time=1411),
    Message('note_on', channel=6, note=70, velocity=0, time=123),
    Message('note_on', channel=6, note=67, velocity=0, time=1),
    Message('note_on', channel=6, note=75, velocity=0, time=4),
    Message('control_change', channel=6, control=64, value=0, time=2),
    Message('note_on', channel=6, note=65, velocity=99, time=1531),
    Message('note_on', channel=6, note=70, velocity=99, time=0),
    Message('note_on', channel=6, note=74, velocity=99, time=0),
    Message('note_on', channel=6, note=74, velocity=0, time=752),
    Message('note_on', channel=6, note=70, velocity=0, time=13),
    Message('note_on', channel=6, note=67, velocity=99, time=3),
    Message('note_on', channel=6, note=71, velocity=99, time=0),
    Message('note_on', channel=6, note=65, velocity=0, time=3),
    Message('note_on', channel=6, note=72, velocity=114, time=765),
    Message('note_on', channel=6, note=75, velocity=114, time=0),
    Message('note_on', channel=6, note=67, velocity=0, time=4),
    Message('note_on', channel=6, note=71, velocity=0, time=11),
    Message('note_on', channel=6, note=70, velocity=114, time=753),
    Message('note_on', channel=6, note=73, velocity=114, time=0),
    Message('note_on', channel=6, note=72, velocity=0, time=4),
    Message('note_on', channel=6, note=75, velocity=0, time=3),
    Message('note_on', channel=6, note=70, velocity=0, time=744),
    Message('note_on', channel=6, note=73, velocity=0, time=10),
    Message('note_on', channel=6, note=70, velocity=114, time=7),
    Message('note_on', channel=6, note=74, velocity=114, time=0),
    Message('note_on', channel=6, note=70, velocity=0, time=760),
    Message('note_on', channel=6, note=74, velocity=0, time=0),
    Message('note_on', channel=6, note=69, velocity=99, time=8),
    Message('note_on', channel=6, note=72, velocity=99, time=0),
    Message('note_on', channel=6, note=72, velocity=0, time=752),
    Message('note_on', channel=6, note=69, velocity=0, time=8),
    Message('note_on', channel=6, note=70, velocity=85, time=8),
    Message('note_on', channel=6, note=75, velocity=85, time=0),
    Message('note_on', channel=6, note=70, velocity=0, time=752),
    Message('note_on', channel=6, note=75, velocity=0, time=0),
    Message('note_on', channel=6, note=74, velocity=84, time=16),
    Message('note_on', channel=6, note=74, velocity=0, time=752),
    Message('note_on', channel=6, note=58, velocity=77, time=6160),
    Message('note_on', channel=6, note=62, velocity=77, time=0),
    Message('note_on', channel=6, note=58, velocity=0, time=741),
    Message('note_on', channel=6, note=62, velocity=0, time=9),
    Message('note_on', channel=6, note=58, velocity=77, time=18),
    Message('note_on', channel=6, note=63, velocity=77, time=0),
    Message('note_on', channel=6, note=58, velocity=0, time=739),
    Message('note_on', channel=6, note=63, velocity=0, time=23),
    Message('note_on', channel=6, note=57, velocity=77, time=6),
    Message('note_on', channel=6, note=60, velocity=77, time=0),
    Message('note_on', channel=6, note=57, velocity=0, time=768),
    Message('note_on', channel=6, note=58, velocity=77, time=0),
    Message('note_on', channel=6, note=62, velocity=77, time=0),
    Message('note_on', channel=6, note=60, velocity=0, time=2),
    Message('note_on', channel=6, note=58, velocity=0, time=766),
    Message('note_on', channel=6, note=58, velocity=85, time=0),
    Message('note_on', channel=6, note=62, velocity=0, time=0),
    Message('note_on', channel=6, note=62, velocity=85, time=0),
    Message('note_on', channel=6, note=67, velocity=85, time=0),
    Message('note_on', channel=6, note=58, velocity=0, time=768),
    Message('note_on', channel=6, note=60, velocity=85, time=0),
    Message('note_on', channel=6, note=62, velocity=0, time=0),
    Message('note_on', channel=6, note=63, velocity=85, time=0),
    Message('note_on', channel=6, note=67, velocity=0, time=0),
    Message('note_on', channel=6, note=67, velocity=85, time=0),
    Message('note_on', channel=6, note=67, velocity=0, time=733),
    Message('note_on', channel=6, note=60, velocity=0, time=35),
    Message('note_on', channel=6, note=63, velocity=0, time=0),
    Message('note_on', channel=6, note=63, velocity=99, time=0),
    Message('note_on', channel=6, note=68, velocity=99, time=0),
    Message('note_on', channel=6, note=68, velocity=0, time=737),
    Message('note_on', channel=6, note=63, velocity=0, time=4),
    Message('note_on', channel=6, note=60, velocity=98, time=27),
    Message('note_on', channel=6, note=65, velocity=99, time=0),
    Message('note_on', channel=6, note=69, velocity=99, time=0),
    Message('note_on', channel=6, note=69, velocity=0, time=308),
    Message('note_on', channel=6, note=60, velocity=0, time=405),
    Message('note_on', channel=6, note=65, velocity=0, time=7),
    Message('note_on', channel=6, note=80, velocity=47, time=48),
    Message('control_change', channel=6, control=64, value=0, time=0),
    Message('note_on', channel=6, note=80, velocity=0, time=1),
    Message('control_change', channel=6, control=64, value=127, time=440),
    Message('control_change', channel=6, control=64, value=0, time=130),
    Message('note_on', channel=6, note=67, velocity=75, time=5),
    Message('note_on', channel=6, note=70, velocity=75, time=0),
    Message('note_on', channel=6, note=75, velocity=75, time=0),
    Message('note_on', channel=6, note=67, velocity=0, time=176),
    Message('note_on', channel=6, note=70, velocity=0, time=0),
    Message('note_on', channel=6, note=75, velocity=0, time=0),
    Message('note_on', channel=6, note=65, velocity=75, time=16),
    Message('note_on', channel=6, note=70, velocity=75, time=0),
    Message('note_on', channel=6, note=74, velocity=75, time=0),
    Message('control_change', channel=6, control=64, value=0, time=1),
    Message('control_change', channel=6, control=64, value=127, time=119),
    Message('note_on', channel=6, note=65, velocity=0, time=632),
    Message('note_on', channel=6, note=70, velocity=0, time=0),
    Message('note_on', channel=6, note=74, velocity=0, time=0),
    Message('note_on', channel=6, note=68, velocity=39, time=16),
    Message('note_on', channel=6, note=72, velocity=91, time=0),
    Message('note_on', channel=6, note=75, velocity=46, time=0),
    Message('control_change', channel=6, control=64, value=0, time=3),
    Message('note_on', channel=6, note=46, velocity=95, time=45),
    Message('note_on', channel=6, note=46, velocity=0, time=1),
    Message('control_change', channel=6, control=64, value=127, time=1308),
    Message('note_on', channel=6, note=68, velocity=0, time=68),
    Message('note_on', channel=6, note=75, velocity=0, time=1),
    Message('note_on', channel=6, note=72, velocity=0, time=3),
    Message('control_change', channel=6, control=64, value=0, time=94),
    Message('note_on', channel=6, note=67, velocity=99, time=13),
    Message('note_on', channel=6, note=70, velocity=99, time=0),
    Message('note_on', channel=6, note=75, velocity=99, time=0),
    Message('control_change', channel=6, control=64, value=127, time=1411),
    Message('note_on', channel=6, note=70, velocity=0, time=123),
    Message('note_on', channel=6, note=67, velocity=0, time=1),
    Message('note_on', channel=6, note=75, velocity=0, time=4),
    Message('control_change', channel=6, control=64, value=0, time=2),
    Message('note_on', channel=6, note=65, velocity=99, time=1531),
    Message('note_on', channel=6, note=70, velocity=99, time=0),
    Message('note_on', channel=6, note=74, velocity=99, time=0),
    Message('note_on', channel=6, note=70, velocity=0, time=765),
    Message('note_on', channel=6, note=67, velocity=101, time=3),
    Message('note_on', channel=6, note=71, velocity=127, time=0),
    Message('note_on', channel=6, note=74, velocity=0, time=0),
    Message('note_on', channel=6, note=65, velocity=0, time=3),
    Message('note_on', channel=6, note=67, velocity=0, time=765),
    Message('note_on', channel=6, note=71, velocity=0, time=0),
    Message('note_on', channel=6, note=72, velocity=114, time=0),
    Message('note_on', channel=6, note=75, velocity=114, time=0),
    Message('note_on', channel=6, note=70, velocity=114, time=768),
    Message('note_on', channel=6, note=72, velocity=0, time=0),
    Message('note_on', channel=6, note=73, velocity=114, time=0),
    Message('note_on', channel=6, note=75, velocity=0, time=0),
    Message('note_on', channel=6, note=70, velocity=0, time=768),
    Message('note_on', channel=6, note=70, velocity=114, time=0),
    Message('note_on', channel=6, note=73, velocity=0, time=0),
    Message('note_on', channel=6, note=74, velocity=114, time=0),
    Message('note_on', channel=6, note=69, velocity=99, time=768),
    Message('note_on', channel=6, note=70, velocity=0, time=0),
    Message('note_on', channel=6, note=72, velocity=99, time=0),
    Message('note_on', channel=6, note=74, velocity=0, time=0),
    Message('note_on', channel=6, note=69, velocity=0, time=768),
    Message('note_on', channel=6, note=72, velocity=0, time=0),
    Message('control_change', channel=6, control=64, value=0, time=0),
    Message('control_change', channel=6, control=64, value=127, time=441),
    Message('control_change', channel=6, control=64, value=0, time=130),
    Message('note_on', channel=6, note=67, velocity=99, time=5),
    Message('note_on', channel=6, note=70, velocity=99, time=0),
    Message('note_on', channel=6, note=75, velocity=99, time=0),
    Message('control_change', channel=6, control=64, value=127, time=70),
    Message('note_on', channel=6, note=75, velocity=0, time=47),
    Message('note_on', channel=6, note=67, velocity=0, time=4),
    Message('note_on', channel=6, note=70, velocity=0, time=14),
    Message('note_on', channel=6, note=65, velocity=75, time=57),
    Message('note_on', channel=6, note=70, velocity=75, time=0),
    Message('note_on', channel=6, note=74, velocity=75, time=0),
    Message('control_change', channel=6, control=64, value=0, time=1),
    Message('control_change', channel=6, control=64, value=127, time=119),
    Message('note_on', channel=6, note=65, velocity=0, time=502),
    Message('note_on', channel=6, note=74, velocity=0, time=9),
    Message('note_on', channel=6, note=70, velocity=0, time=8),
    Message('note_on', channel=6, note=68, velocity=99, time=129),
    Message('note_on', channel=6, note=72, velocity=99, time=0),
    Message('note_on', channel=6, note=75, velocity=99, time=0),
    Message('control_change', channel=6, control=64, value=0, time=3),
    Message('control_change', channel=6, control=64, value=127, time=1354),
    Message('note_on', channel=6, note=68, velocity=0, time=68),
    Message('note_on', channel=6, note=75, velocity=0, time=1),
    Message('note_on', channel=6, note=72, velocity=0, time=3),
    Message('control_change', channel=6, control=64, value=0, time=94),
    Message('note_on', channel=6, note=67, velocity=111, time=13),
    Message('note_on', channel=6, note=70, velocity=111, time=0),
    Message('note_on', channel=6, note=75, velocity=111, time=0),
    Message('control_change', channel=6, control=64, value=127, time=1411),
    Message('note_on', channel=6, note=70, velocity=0, time=123),
    Message('note_on', channel=6, note=67, velocity=0, time=1),
    Message('note_on', channel=6, note=75, velocity=0, time=4),
    Message('control_change', channel=6, control=64, value=0, time=2),
    Message('note_on', channel=6, note=65, velocity=91, time=1531),
    Message('note_on', channel=6, note=70, velocity=111, time=0),
    Message('note_on', channel=6, note=74, velocity=111, time=0),
    Message('note_on', channel=6, note=74, velocity=0, time=752),
    Message('note_on', channel=6, note=70, velocity=0, time=13),
    Message('note_on', channel=6, note=67, velocity=111, time=3),
    Message('note_on', channel=6, note=71, velocity=111, time=0),
    Message('note_on', channel=6, note=65, velocity=0, time=3),
    Message('note_on', channel=6, note=67, velocity=0, time=749),
    Message('note_on', channel=6, note=71, velocity=0, time=0),
    Message('note_on', channel=6, note=72, velocity=111, time=16),
    Message('note_on', channel=6, note=75, velocity=111, time=0),
    Message('note_on', channel=6, note=75, velocity=0, time=760),
    Message('note_on', channel=6, note=70, velocity=111, time=8),
    Message('note_on', channel=6, note=73, velocity=111, time=0),
    Message('note_on', channel=6, note=72, velocity=0, time=4),
    Message('note_on', channel=6, note=70, velocity=0, time=756),
    Message('note_on', channel=6, note=73, velocity=0, time=0),
    Message('note_on', channel=6, note=70, velocity=111, time=8),
    Message('note_on', channel=6, note=74, velocity=111, time=0),
    Message('note_on', channel=6, note=70, velocity=0, time=760),
    Message('note_on', channel=6, note=74, velocity=0, time=0),
    Message('note_on', channel=6, note=69, velocity=88, time=8),
    Message('note_on', channel=6, note=72, velocity=88, time=0),
    Message('note_on', channel=6, note=69, velocity=0, time=760),
    Message('note_on', channel=6, note=72, velocity=0, time=0),
    Message('note_on', channel=6, note=70, velocity=88, time=8),
    Message('note_on', channel=6, note=75, velocity=88, time=0),
    Message('note_on', channel=6, note=70, velocity=0, time=760),
    Message('note_on', channel=6, note=75, velocity=0, time=0),
    Message('note_on', channel=6, note=74, velocity=85, time=8),
    Message('note_on', channel=6, note=74, velocity=0, time=760),
    Message('note_on', channel=6, note=46, velocity=77, time=8),
    Message('note_on', channel=6, note=53, velocity=77, time=0),
    Message('note_on', channel=6, note=58, velocity=77, time=0),
    Message('note_on', channel=6, note=46, velocity=0, time=760),
    Message('note_on', channel=6, note=53, velocity=0, time=0),
    Message('note_on', channel=6, note=58, velocity=0, time=0),
    Message('note_on', channel=6, note=47, velocity=88, time=8),
    Message('note_on', channel=6, note=55, velocity=88, time=0),
    Message('note_on', channel=6, note=59, velocity=88, time=0),
    Message('note_on', channel=6, note=47, velocity=0, time=567),
    Message('note_on', channel=6, note=50, velocity=99, time=9),
    Message('note_on', channel=6, note=62, velocity=99, time=0),
    Message('note_on', channel=6, note=59, velocity=0, time=2),
    Message('note_on', channel=6, note=48, velocity=111, time=190),
    Message('note_on', channel=6, note=60, velocity=111, time=0),
    Message('note_on', channel=6, note=50, velocity=0, time=5),
    Message('note_on', channel=6, note=55, velocity=0, time=3),
    Message('note_on', channel=6, note=62, velocity=0, time=4),
    Message('note_on', channel=6, note=49, velocity=111, time=756),
    Message('note_on', channel=6, note=58, velocity=111, time=0),
    Message('note_on', channel=6, note=61, velocity=111, time=0),
    Message('note_on', channel=6, note=48, velocity=0, time=1),
    Message('note_on', channel=6, note=60, velocity=0, time=5),
    Message('note_on', channel=6, note=61, velocity=0, time=797),
    Message('note_on', channel=6, note=46, velocity=99, time=13),
    Message('note_on', channel=6, note=62, velocity=99, time=0),
    Message('note_on', channel=6, note=49, velocity=0, time=14),
    Message('note_on', channel=6, note=41, velocity=88, time=322),
    Message('note_on', channel=6, note=41, velocity=0, time=358),
    Message('note_on', channel=6, note=41, velocity=88, time=26),
    Message('note_on', channel=6, note=57, velocity=88, time=0),
    Message('note_on', channel=6, note=60, velocity=88, time=0),
    Message('note_on', channel=6, note=58, velocity=0, time=3),
    Message('note_on', channel=6, note=46, velocity=0, time=3),
    Message('note_on', channel=6, note=62, velocity=0, time=49),
    Message('note_on', channel=6, note=57, velocity=0, time=629),
    Message('note_on', channel=6, note=60, velocity=0, time=16),
    Message('note_on', channel=6, note=41, velocity=0, time=12),
    MetaMessage('end_of_track', time=0)]),
  MidiTrack([
    MetaMessage('track_name', name='String Ensemble 1', time=0),
    Message('control_change', channel=7, control=0, value=0, time=0),
    Message('control_change', channel=7, control=32, value=0, time=0),
    Message('program_change', channel=7, program=48, time=0),
    Message('control_change', channel=7, control=7, value=108, time=0),
    Message('control_change', channel=7, control=10, value=57, time=0),
    Message('control_change', channel=7, control=11, value=127, time=0),
    Message('control_change', channel=7, control=91, value=106, time=0),
    Message('control_change', channel=7, control=93, value=55, time=0),
    Message('control_change', channel=7, control=101, value=0, time=110),
    Message('control_change', channel=7, control=100, value=0, time=50),
    Message('control_change', channel=7, control=6, value=2, time=88),
    Message('note_on', channel=7, note=65, velocity=94, time=13576),
    Message('note_on', channel=7, note=65, velocity=0, time=3072),
    Message('note_on', channel=7, note=70, velocity=68, time=0),
    Message('note_on', channel=7, note=68, velocity=80, time=1536),
    Message('note_on', channel=7, note=70, velocity=0, time=0),
    Message('note_on', channel=7, note=68, velocity=0, time=760),
    Message('note_on', channel=7, note=65, velocity=91, time=8),
    Message('note_on', channel=7, note=65, velocity=0, time=723),
    Message('note_on', channel=7, note=53, velocity=91, time=45),
    Message('note_on', channel=7, note=58, velocity=91, time=0),
    Message('note_on', channel=7, note=62, velocity=91, time=0),
    Message('note_on', channel=7, note=86, velocity=88, time=0),
    Message('control_change', channel=7, control=64, value=127, time=282),
    Message('control_change', channel=7, control=64, value=0, time=288),
    Message('note_on', channel=7, note=86, velocity=0, time=5),
    Message('note_on', channel=7, note=55, velocity=81, time=1),
    Message('note_on', channel=7, note=58, velocity=0, time=0),
    Message('note_on', channel=7, note=58, velocity=81, time=0),
    Message('note_on', channel=7, note=63, velocity=81, time=0),
    Message('note_on', channel=7, note=87, velocity=88, time=0),
    Message('control_change', channel=7, control=64, value=127, time=65),
    Message('note_on', channel=7, note=62, velocity=0, time=111),
    Message('note_on', channel=7, note=53, velocity=0, time=8),
    Message('control_change', channel=7, control=64, value=0, time=4),
    Message('note_on', channel=7, note=87, velocity=0, time=3),
    Message('note_on', channel=7, note=53, velocity=81, time=1),
    Message('note_on', channel=7, note=58, velocity=0, time=0),
    Message('note_on', channel=7, note=58, velocity=81, time=0),
    Message('note_on', channel=7, note=62, velocity=81, time=0),
    Message('note_on', channel=7, note=86, velocity=88, time=0),
    Message('note_on', channel=7, note=55, velocity=0, time=8),
    Message('note_on', channel=7, note=63, velocity=0, time=0),
    Message('control_change', channel=7, control=64, value=127, time=619),
    Message('control_change', channel=7, control=64, value=0, time=110),
    Message('note_on', channel=7, note=53, velocity=0, time=23),
    Message('note_on', channel=7, note=58, velocity=0, time=0),
    Message('note_on', channel=7, note=62, velocity=0, time=0),
    Message('note_on', channel=7, note=56, velocity=99, time=8),
    Message('note_on', channel=7, note=60, velocity=99, time=0),
    Message('note_on', channel=7, note=63, velocity=99, time=0),
    Message('note_on', channel=7, note=86, velocity=0, time=0),
    Message('note_on', channel=7, note=87, velocity=88, time=0),
    Message('control_change', channel=7, control=64, value=127, time=1358),
    Message('note_on', channel=7, note=63, velocity=0, time=63),
    Message('note_on', channel=7, note=56, velocity=0, time=1),
    Message('note_on', channel=7, note=60, velocity=0, time=3),
    Message('control_change', channel=7, control=64, value=0, time=110),
    Message('note_on', channel=7, note=55, velocity=99, time=1),
    Message('note_on', channel=7, note=58, velocity=99, time=0),
    Message('note_on', channel=7, note=63, velocity=99, time=0),
    Message('note_on', channel=7, note=87, velocity=0, time=0),
    Message('note_on', channel=7, note=87, velocity=88, time=0),
    Message('note_on', channel=7, note=67, velocity=111, time=480),
    Message('note_on', channel=7, note=67, velocity=0, time=32),
    Message('note_on', channel=7, note=68, velocity=111, time=64),
    Message('note_on', channel=7, note=68, velocity=0, time=29),
    Message('note_on', channel=7, note=67, velocity=111, time=19),
    Message('note_on', channel=7, note=67, velocity=0, time=40),
    Message('note_on', channel=7, note=65, velocity=111, time=8),
    Message('note_on', channel=7, note=65, velocity=0, time=56),
    Message('note_on', channel=7, note=67, velocity=99, time=40),
    Message('control_change', channel=7, control=64, value=127, time=76),
    Message('note_on', channel=7, note=58, velocity=0, time=295),
    Message('note_on', channel=7, note=55, velocity=0, time=38),
    Message('note_on', channel=7, note=63, velocity=0, time=2),
    Message('note_on', channel=7, note=67, velocity=0, time=341),
    Message('note_on', channel=7, note=57, velocity=99, time=16),
    Message('note_on', channel=7, note=60, velocity=99, time=0),
    Message('note_on', channel=7, note=65, velocity=99, time=0),
    Message('note_on', channel=7, note=87, velocity=0, time=0),
    Message('note_on', channel=7, note=89, velocity=95, time=0),
    Message('control_change', channel=7, control=64, value=0, time=2),
    Message('note_on', channel=7, note=69, velocity=108, time=478),
    Message('note_on', channel=7, note=69, velocity=0, time=35),
    Message('note_on', channel=7, note=70, velocity=100, time=61),
    Message('note_on', channel=7, note=70, velocity=0, time=27),
    Message('note_on', channel=7, note=69, velocity=99, time=21),
    Message('note_on', channel=7, note=69, velocity=0, time=39),
    Message('note_on', channel=7, note=67, velocity=99, time=9),
    Message('note_on', channel=7, note=67, velocity=0, time=48),
    Message('note_on', channel=7, note=69, velocity=99, time=48),
    Message('note_on', channel=7, note=69, velocity=0, time=415),
    Message('note_on', channel=7, note=57, velocity=0, time=290),
    Message('note_on', channel=7, note=60, velocity=0, time=14),
    Message('note_on', channel=7, note=65, velocity=0, time=2),
    Message('control_change', channel=7, control=64, value=127, time=16),
    Message('note_on', channel=7, note=58, velocity=99, time=31),
    Message('note_on', channel=7, note=62, velocity=99, time=0),
    Message('note_on', channel=7, note=65, velocity=99, time=0),
    Message('note_on', channel=7, note=86, velocity=96, time=0),
    Message('note_on', channel=7, note=89, velocity=0, time=0),
    Message('control_change', channel=7, control=64, value=99, time=20),
    Message('control_change', channel=7, control=64, value=127, time=379),
    Message('note_on', channel=7, note=58, velocity=0, time=369),
    Message('note_on', channel=7, note=59, velocity=91, time=0),
    Message('note_on', channel=7, note=62, velocity=0, time=0),
    Message('note_on', channel=7, note=62, velocity=91, time=0),
    Message('note_on', channel=7, note=65, velocity=0, time=0),
    Message('note_on', channel=7, note=67, velocity=91, time=0),
    Message('note_on', channel=7, note=86, velocity=0, time=0),
    Message('control_change', channel=7, control=64, value=0, time=3),
    Message('note_on', channel=7, note=83, velocity=98, time=189),
    Message('note_on', channel=7, note=83, velocity=0, time=191),
    Message('note_on', channel=7, note=84, velocity=99, time=1),
    Message('control_change', channel=7, control=64, value=127, time=21),
    Message('note_on', channel=7, note=84, velocity=0, time=170),
    Message('note_on', channel=7, note=86, velocity=99, time=1),
    Message('note_on', channel=7, note=59, velocity=0, time=176),
    Message('note_on', channel=7, note=62, velocity=0, time=0),
    Message('note_on', channel=7, note=67, velocity=0, time=0),
    Message('note_on', channel=7, note=86, velocity=0, time=15),
    Message('note_on', channel=7, note=60, velocity=95, time=1),
    Message('note_on', channel=7, note=63, velocity=95, time=0),
    Message('control_change', channel=7, control=64, value=0, time=0),
    Message('note_on', channel=7, note=87, velocity=88, time=0),
    Message('control_change', channel=7, control=64, value=127, time=579),
    Message('note_on', channel=7, note=60, velocity=0, time=173),
    Message('note_on', channel=7, note=63, velocity=0, time=0),
    Message('control_change', channel=7, control=64, value=0, time=9),
    Message('note_on', channel=7, note=54, velocity=77, time=7),
    Message('note_on', channel=7, note=58, velocity=77, time=0),
    Message('note_on', channel=7, note=85, velocity=127, time=0),
    Message('note_on', channel=7, note=87, velocity=0, time=0),
    Message('control_change', channel=7, control=64, value=127, time=632),
    Message('note_on', channel=7, note=54, velocity=0, time=128),
    Message('note_on', channel=7, note=58, velocity=0, time=0),
    Message('control_change', channel=7, control=64, value=0, time=6),
    Message('note_on', channel=7, note=53, velocity=86, time=2),
    Message('note_on', channel=7, note=58, velocity=86, time=0),
    Message('note_on', channel=7, note=85, velocity=0, time=0),
    Message('note_on', channel=7, note=86, velocity=127, time=0),
    Message('control_change', channel=7, control=64, value=127, time=601),
    Message('note_on', channel=7, note=53, velocity=0, time=143),
    Message('note_on', channel=7, note=58, velocity=0, time=0),
    Message('note_on', channel=7, note=84, velocity=104, time=24),
    Message('note_on', channel=7, note=86, velocity=0, time=0),
    Message('control_change', channel=7, control=64, value=0, time=10),
    Message('note_on', channel=7, note=82, velocity=80, time=758),
    Message('note_on', channel=7, note=84, velocity=0, time=0),
    Message('note_on', channel=7, note=82, velocity=0, time=1536),
    Message('note_on', channel=7, note=65, velocity=94, time=6144),
    Message('note_on', channel=7, note=70, velocity=68, time=3072),
    Message('note_on', channel=7, note=65, velocity=0, time=24),
    Message('note_on', channel=7, note=68, velocity=80, time=1512),
    Message('note_on', channel=7, note=70, velocity=0, time=12),
    Message('note_on', channel=7, note=68, velocity=0, time=745),
    Message('note_on', channel=7, note=65, velocity=91, time=11),
    Message('note_on', channel=7, note=65, velocity=0, time=723),
    Message('note_on', channel=7, note=53, velocity=88, time=45),
    Message('note_on', channel=7, note=58, velocity=88, time=0),
    Message('note_on', channel=7, note=62, velocity=88, time=0),
    Message('note_on', channel=7, note=86, velocity=88, time=0),
    Message('control_change', channel=7, control=64, value=127, time=282),
    Message('note_on', channel=7, note=53, velocity=0, time=164),
    Message('note_on', channel=7, note=62, velocity=0, time=3),
    Message('note_on', channel=7, note=58, velocity=0, time=3),
    Message('control_change', channel=7, control=64, value=0, time=118),
    Message('note_on', channel=7, note=86, velocity=0, time=5),
    Message('note_on', channel=7, note=55, velocity=88, time=1),
    Message('note_on', channel=7, note=58, velocity=88, time=0),
    Message('note_on', channel=7, note=63, velocity=88, time=0),
    Message('note_on', channel=7, note=87, velocity=88, time=0),
    Message('control_change', channel=7, control=64, value=127, time=65),
    Message('note_on', channel=7, note=55, velocity=0, time=119),
    Message('note_on', channel=7, note=58, velocity=0, time=0),
    Message('note_on', channel=7, note=63, velocity=0, time=0),
    Message('control_change', channel=7, control=64, value=0, time=4),
    Message('note_on', channel=7, note=87, velocity=0, time=3),
    Message('note_on', channel=7, note=53, velocity=88, time=1),
    Message('note_on', channel=7, note=58, velocity=88, time=0),
    Message('note_on', channel=7, note=62, velocity=88, time=0),
    Message('note_on', channel=7, note=86, velocity=88, time=0),
    Message('control_change', channel=7, control=64, value=127, time=627),
    Message('control_change', channel=7, control=64, value=0, time=110),
    Message('note_on', channel=7, note=53, velocity=0, time=23),
    Message('note_on', channel=7, note=58, velocity=0, time=0),
    Message('note_on', channel=7, note=62, velocity=0, time=0),
    Message('note_on', channel=7, note=86, velocity=0, time=7),
    Message('note_on', channel=7, note=56, velocity=88, time=1),
    Message('note_on', channel=7, note=60, velocity=88, time=0),
    Message('note_on', channel=7, note=63, velocity=88, time=0),
    Message('note_on', channel=7, note=87, velocity=88, time=0),
    Message('control_change', channel=7, control=64, value=127, time=1358),
    Message('note_on', channel=7, note=63, velocity=0, time=63),
    Message('note_on', channel=7, note=56, velocity=0, time=1),
    Message('note_on', channel=7, note=60, velocity=0, time=3),
    Message('note_on', channel=7, note=87, velocity=0, time=110),
    Message('control_change', channel=7, control=64, value=0, time=0),
    Message('note_on', channel=7, note=55, velocity=88, time=1),
    Message('note_on', channel=7, note=58, velocity=88, time=0),
    Message('note_on', channel=7, note=63, velocity=88, time=0),
    Message('note_on', channel=7, note=87, velocity=88, time=0),
    Message('note_on', channel=7, note=67, velocity=111, time=480),
    Message('note_on', channel=7, note=67, velocity=0, time=32),
    Message('note_on', channel=7, note=68, velocity=111, time=64),
    Message('note_on', channel=7, note=68, velocity=0, time=29),
    Message('note_on', channel=7, note=67, velocity=111, time=19),
    Message('note_on', channel=7, note=67, velocity=0, time=40),
    Message('note_on', channel=7, note=65, velocity=111, time=8),
    Message('note_on', channel=7, note=65, velocity=0, time=56),
    Message('note_on', channel=7, note=67, velocity=111, time=40),
    Message('control_change', channel=7, control=64, value=127, time=76),
    Message('note_on', channel=7, note=58, velocity=0, time=295),
    Message('note_on', channel=7, note=55, velocity=0, time=38),
    Message('note_on', channel=7, note=63, velocity=0, time=2),
    Message('note_on', channel=7, note=67, velocity=0, time=213),
    Message('note_on', channel=7, note=87, velocity=0, time=143),
    Message('note_on', channel=7, note=57, velocity=99, time=1),
    Message('note_on', channel=7, note=60, velocity=99, time=0),
    Message('note_on', channel=7, note=65, velocity=99, time=0),
    Message('note_on', channel=7, note=89, velocity=95, time=0),
    Message('control_change', channel=7, control=64, value=0, time=2),
    Message('note_on', channel=7, note=69, velocity=118, time=478),
    Message('note_on', channel=7, note=69, velocity=0, time=35),
    Message('note_on', channel=7, note=70, velocity=118, time=61),
    Message('note_on', channel=7, note=70, velocity=0, time=27),
    Message('note_on', channel=7, note=69, velocity=118, time=21),
    Message('note_on', channel=7, note=69, velocity=0, time=39),
    Message('note_on', channel=7, note=67, velocity=118, time=9),
    Message('note_on', channel=7, note=67, velocity=0, time=48),
    Message('note_on', channel=7, note=69, velocity=118, time=48),
    Message('note_on', channel=7, note=69, velocity=0, time=415),
    Message('note_on', channel=7, note=57, velocity=0, time=290),
    Message('note_on', channel=7, note=60, velocity=0, time=14),
    Message('note_on', channel=7, note=65, velocity=0, time=2),
    Message('control_change', channel=7, control=64, value=127, time=16),
    Message('note_on', channel=7, note=89, velocity=0, time=30),
    Message('note_on', channel=7, note=58, velocity=111, time=1),
    Message('note_on', channel=7, note=62, velocity=111, time=0),
    Message('note_on', channel=7, note=65, velocity=111, time=0),
    Message('note_on', channel=7, note=86, velocity=96, time=0),
    Message('control_change', channel=7, control=64, value=0, time=20),
    Message('control_change', channel=7, control=64, value=127, time=379),
    Message('note_on', channel=7, note=58, velocity=0, time=345),
    Message('note_on', channel=7, note=62, velocity=0, time=0),
    Message('note_on', channel=7, note=65, velocity=0, time=0),
    Message('note_on', channel=7, note=59, velocity=111, time=24),
    Message('note_on', channel=7, note=62, velocity=111, time=0),
    Message('note_on', channel=7, note=67, velocity=111, time=0),
    Message('note_on', channel=7, note=86, velocity=0, time=0),
    Message('control_change', channel=7, control=64, value=0, time=3),
    Message('note_on', channel=7, note=83, velocity=98, time=189),
    Message('note_on', channel=7, note=83, velocity=0, time=191),
    Message('note_on', channel=7, note=84, velocity=99, time=1),
    Message('control_change', channel=7, control=64, value=127, time=21),
    Message('note_on', channel=7, note=59, velocity=0, time=115),
    Message('note_on', channel=7, note=62, velocity=0, time=11),
    Message('note_on', channel=7, note=67, velocity=0, time=15),
    Message('note_on', channel=7, note=84, velocity=0, time=29),
    Message('note_on', channel=7, note=86, velocity=99, time=1),
    Message('note_on', channel=7, note=86, velocity=0, time=191),
    Message('note_on', channel=7, note=60, velocity=111, time=1),
    Message('note_on', channel=7, note=63, velocity=111, time=0),
    Message('control_change', channel=7, control=64, value=0, time=0),
    Message('note_on', channel=7, note=87, velocity=88, time=0),
    Message('control_change', channel=7, control=64, value=127, time=579),
    Message('note_on', channel=7, note=60, velocity=0, time=173),
    Message('note_on', channel=7, note=63, velocity=0, time=0),
    Message('control_change', channel=7, control=64, value=0, time=9),
    Message('note_on', channel=7, note=87, velocity=0, time=6),
    Message('note_on', channel=7, note=54, velocity=88, time=1),
    Message('note_on', channel=7, note=58, velocity=88, time=0),
    Message('note_on', channel=7, note=85, velocity=127, time=0),
    Message('control_change', channel=7, control=64, value=127, time=632),
    Message('control_change', channel=7, control=64, value=0, time=134),
    Message('note_on', channel=7, note=85, velocity=0, time=1),
    Message('note_on', channel=7, note=53, velocity=88, time=1),
    Message('note_on', channel=7, note=54, velocity=0, time=0),
    Message('note_on', channel=7, note=58, velocity=0, time=0),
    Message('note_on', channel=7, note=58, velocity=88, time=0),
    Message('note_on', channel=7, note=86, velocity=127, time=0),
    Message('control_change', channel=7, control=64, value=127, time=601),
    Message('note_on', channel=7, note=53, velocity=0, time=159),
    Message('note_on', channel=7, note=58, velocity=0, time=0),
    Message('note_on', channel=7, note=86, velocity=0, time=7),
    Message('note_on', channel=7, note=84, velocity=104, time=1),
    Message('control_change', channel=7, control=64, value=0, time=10),
    Message('note_on', channel=7, note=53, velocity=88, time=758),
    Message('note_on', channel=7, note=58, velocity=88, time=0),
    Message('note_on', channel=7, note=62, velocity=88, time=0),
    Message('note_on', channel=7, note=84, velocity=0, time=0),
    Message('note_on', channel=7, note=86, velocity=88, time=0),
    Message('control_change', channel=7, control=64, value=127, time=282),
    Message('note_on', channel=7, note=53, velocity=0, time=164),
    Message('note_on', channel=7, note=62, velocity=0, time=3),
    Message('note_on', channel=7, note=58, velocity=0, time=3),
    Message('control_change', channel=7, control=64, value=0, time=118),
    Message('note_on', channel=7, note=86, velocity=0, time=5),
    Message('note_on', channel=7, note=55, velocity=88, time=1),
    Message('note_on', channel=7, note=58, velocity=88, time=0),
    Message('note_on', channel=7, note=63, velocity=88, time=0),
    Message('note_on', channel=7, note=87, velocity=88, time=0),
    Message('control_change', channel=7, control=64, value=127, time=65),
    Message('note_on', channel=7, note=55, velocity=0, time=119),
    Message('note_on', channel=7, note=58, velocity=0, time=0),
    Message('note_on', channel=7, note=63, velocity=0, time=0),
    Message('control_change', channel=7, control=64, value=0, time=4),
    Message('note_on', channel=7, note=87, velocity=0, time=3),
    Message('note_on', channel=7, note=53, velocity=88, time=1),
    Message('note_on', channel=7, note=58, velocity=88, time=0),
    Message('note_on', channel=7, note=62, velocity=88, time=0),
    Message('note_on', channel=7, note=86, velocity=88, time=0),
    Message('control_change', channel=7, control=64, value=127, time=627),
    Message('control_change', channel=7, control=64, value=0, time=110),
    Message('note_on', channel=7, note=53, velocity=0, time=15),
    Message('note_on', channel=7, note=58, velocity=0, time=0),
    Message('note_on', channel=7, note=62, velocity=0, time=0),
    Message('note_on', channel=7, note=86, velocity=0, time=15),
    Message('note_on', channel=7, note=56, velocity=88, time=1),
    Message('note_on', channel=7, note=60, velocity=88, time=0),
    Message('note_on', channel=7, note=63, velocity=88, time=0),
    Message('note_on', channel=7, note=87, velocity=88, time=0),
    Message('control_change', channel=7, control=64, value=127, time=1358),
    Message('note_on', channel=7, note=63, velocity=0, time=63),
    Message('note_on', channel=7, note=56, velocity=0, time=1),
    Message('note_on', channel=7, note=60, velocity=0, time=3),
    Message('note_on', channel=7, note=87, velocity=0, time=110),
    Message('control_change', channel=7, control=64, value=0, time=0),
    Message('note_on', channel=7, note=55, velocity=99, time=1),
    Message('note_on', channel=7, note=58, velocity=99, time=0),
    Message('note_on', channel=7, note=63, velocity=99, time=0),
    Message('note_on', channel=7, note=87, velocity=88, time=0),
    Message('note_on', channel=7, note=67, velocity=111, time=480),
    Message('note_on', channel=7, note=67, velocity=0, time=32),
    Message('note_on', channel=7, note=68, velocity=111, time=64),
    Message('note_on', channel=7, note=68, velocity=0, time=29),
    Message('note_on', channel=7, note=67, velocity=111, time=19),
    Message('note_on', channel=7, note=67, velocity=0, time=40),
    Message('note_on', channel=7, note=65, velocity=111, time=8),
    Message('note_on', channel=7, note=65, velocity=0, time=56),
    Message('note_on', channel=7, note=67, velocity=111, time=40),
    Message('control_change', channel=7, control=64, value=127, time=76),
    Message('note_on', channel=7, note=58, velocity=0, time=295),
    Message('note_on', channel=7, note=55, velocity=0, time=38),
    Message('note_on', channel=7, note=63, velocity=0, time=2),
    Message('note_on', channel=7, note=67, velocity=0, time=341),
    Message('note_on', channel=7, note=87, velocity=0, time=15),
    Message('note_on', channel=7, note=57, velocity=112, time=1),
    Message('note_on', channel=7, note=60, velocity=112, time=0),
    Message('note_on', channel=7, note=65, velocity=112, time=0),
    Message('note_on', channel=7, note=89, velocity=95, time=0),
    Message('control_change', channel=7, control=64, value=0, time=2),
    Message('note_on', channel=7, note=69, velocity=118, time=478),
    Message('note_on', channel=7, note=69, velocity=0, time=35),
    Message('note_on', channel=7, note=70, velocity=118, time=61),
    Message('note_on', channel=7, note=70, velocity=0, time=27),
    Message('note_on', channel=7, note=69, velocity=118, time=21),
    Message('note_on', channel=7, note=69, velocity=0, time=39),
    Message('note_on', channel=7, note=67, velocity=118, time=9),
    Message('note_on', channel=7, note=67, velocity=0, time=48),
    Message('note_on', channel=7, note=69, velocity=118, time=48),
    Message('note_on', channel=7, note=69, velocity=0, time=415),
    Message('note_on', channel=7, note=57, velocity=0, time=290),
    Message('note_on', channel=7, note=60, velocity=0, time=14),
    Message('note_on', channel=7, note=65, velocity=0, time=2),
    Message('control_change', channel=7, control=64, value=127, time=16),
    Message('note_on', channel=7, note=89, velocity=0, time=30),
    Message('note_on', channel=7, note=58, velocity=118, time=1),
    Message('note_on', channel=7, note=62, velocity=118, time=0),
    Message('note_on', channel=7, note=65, velocity=118, time=0),
    Message('note_on', channel=7, note=86, velocity=96, time=0),
    Message('control_change', channel=7, control=64, value=0, time=20),
    Message('note_on', channel=7, note=58, velocity=0, time=740),
    Message('note_on', channel=7, note=62, velocity=0, time=0),
    Message('note_on', channel=7, note=65, velocity=0, time=0),
    Message('note_on', channel=7, note=59, velocity=124, time=8),
    Message('note_on', channel=7, note=62, velocity=124, time=0),
    Message('note_on', channel=7, note=67, velocity=124, time=0),
    Message('note_on', channel=7, note=86, velocity=0, time=0),
    Message('control_change', channel=7, control=64, value=0, time=3),
    Message('note_on', channel=7, note=83, velocity=98, time=189),
    Message('note_on', channel=7, note=83, velocity=0, time=191),
    Message('note_on', channel=7, note=84, velocity=99, time=1),
    Message('note_on', channel=7, note=84, velocity=0, time=191),
    Message('note_on', channel=7, note=86, velocity=99, time=1),
    Message('note_on', channel=7, note=86, velocity=0, time=191),
    Message('note_on', channel=7, note=59, velocity=0, time=1),
    Message('note_on', channel=7, note=60, velocity=111, time=0),
    Message('note_on', channel=7, note=62, velocity=0, time=0),
    Message('note_on', channel=7, note=63, velocity=111, time=0),
    Message('note_on', channel=7, note=67, velocity=0, time=0),
    Message('note_on', channel=7, note=87, velocity=88, time=0),
    Message('note_on', channel=7, note=60, velocity=0, time=752),
    Message('note_on', channel=7, note=63, velocity=0, time=0),
    Message('control_change', channel=7, control=64, value=0, time=9),
    Message('note_on', channel=7, note=87, velocity=0, time=6),
    Message('note_on', channel=7, note=54, velocity=99, time=1),
    Message('note_on', channel=7, note=58, velocity=99, time=0),
    Message('note_on', channel=7, note=85, velocity=127, time=0),
    Message('control_change', channel=7, control=64, value=0, time=766),
    Message('note_on', channel=7, note=85, velocity=0, time=1),
    Message('note_on', channel=7, note=53, velocity=99, time=1),
    Message('note_on', channel=7, note=58, velocity=0, time=0),
    Message('note_on', channel=7, note=58, velocity=99, time=0),
    Message('note_on', channel=7, note=86, velocity=127, time=0),
    Message('note_on', channel=7, note=54, velocity=0, time=8),
    Message('note_on', channel=7, note=53, velocity=0, time=752),
    Message('note_on', channel=7, note=58, velocity=0, time=0),
    Message('note_on', channel=7, note=86, velocity=0, time=7),
    Message('note_on', channel=7, note=84, velocity=88, time=1),
    Message('note_on', channel=7, note=84, velocity=0, time=767),
    Message('note_on', channel=7, note=82, velocity=88, time=1),
    Message('note_on', channel=7, note=58, velocity=88, time=1536),
    Message('note_on', channel=7, note=82, velocity=0, time=0),
    Message('note_on', channel=7, note=58, velocity=0, time=763),
    Message('note_on', channel=7, note=59, velocity=88, time=5),
    Message('note_on', channel=7, note=59, velocity=0, time=363),
    Message('note_on', channel=7, note=59, velocity=88, time=21),
    Message('note_on', channel=7, note=62, velocity=88, time=192),
    Message('note_on', channel=7, note=59, velocity=0, time=10),
    Message('note_on', channel=7, note=60, velocity=88, time=182),
    Message('note_on', channel=7, note=62, velocity=0, time=12),
    Message('note_on', channel=7, note=61, velocity=88, time=756),
    Message('note_on', channel=7, note=60, velocity=0, time=2),
    Message('note_on', channel=7, note=65, velocity=88, time=766),
    Message('note_on', channel=7, note=61, velocity=0, time=13),
    Message('note_on', channel=7, note=65, velocity=0, time=1417),
    Message('note_on', channel=7, note=58, velocity=88, time=106),
    Message('note_on', channel=7, note=58, velocity=0, time=1535),
    MetaMessage('end_of_track', time=0)]),
  MidiTrack([
    MetaMessage('track_name', name='String Ensemble 1', time=0),
    Message('control_change', channel=8, control=0, value=0, time=0),
    Message('control_change', channel=8, control=32, value=0, time=0),
    Message('program_change', channel=8, program=48, time=0),
    Message('control_change', channel=8, control=7, value=106, time=0),
    Message('control_change', channel=8, control=10, value=64, time=0),
    Message('control_change', channel=8, control=11, value=127, time=0),
    Message('control_change', channel=8, control=91, value=98, time=0),
    Message('control_change', channel=8, control=93, value=55, time=0),
    Message('control_change', channel=8, control=101, value=0, time=110),
    Message('control_change', channel=8, control=100, value=0, time=50),
    Message('control_change', channel=8, control=6, value=2, time=88),
    Message('note_on', channel=8, note=46, velocity=74, time=1288),
    Message('note_on', channel=8, note=62, velocity=74, time=0),
    Message('note_on', channel=8, note=46, velocity=0, time=761),
    Message('note_on', channel=8, note=43, velocity=74, time=7),
    Message('note_on', channel=8, note=62, velocity=0, time=0),
    Message('note_on', channel=8, note=48, velocity=74, time=768),
    Message('note_on', channel=8, note=63, velocity=74, time=0),
    Message('note_on', channel=8, note=43, velocity=0, time=7),
    Message('note_on', channel=8, note=41, velocity=74, time=761),
    Message('note_on', channel=8, note=58, velocity=74, time=0),
    Message('note_on', channel=8, note=63, velocity=0, time=7),
    Message('note_on', channel=8, note=48, velocity=0, time=1),
    Message('note_on', channel=8, note=58, velocity=0, time=375),
    Message('note_on', channel=8, note=57, velocity=74, time=1),
    Message('note_on', channel=8, note=46, velocity=74, time=384),
    Message('note_on', channel=8, note=62, velocity=74, time=0),
    Message('note_on', channel=8, note=65, velocity=74, time=0),
    Message('note_on', channel=8, note=41, velocity=0, time=6),
    Message('note_on', channel=8, note=57, velocity=0, time=16),
    Message('note_on', channel=8, note=62, velocity=0, time=722),
    Message('note_on', channel=8, note=46, velocity=0, time=20),
    Message('note_on', channel=8, note=43, velocity=74, time=4),
    Message('note_on', channel=8, note=65, velocity=0, time=0),
    Message('note_on', channel=8, note=70, velocity=106, time=576),
    Message('note_on', channel=8, note=70, velocity=0, time=187),
    Message('note_on', channel=8, note=48, velocity=74, time=5),
    Message('note_on', channel=8, note=63, velocity=72, time=0),
    Message('note_on', channel=8, note=67, velocity=80, time=0),
    Message('note_on', channel=8, note=43, velocity=0, time=9),
    Message('note_on', channel=8, note=67, velocity=0, time=735),
    Message('note_on', channel=8, note=63, velocity=0, time=14),
    Message('note_on', channel=8, note=41, velocity=74, time=10),
    Message('note_on', channel=8, note=58, velocity=74, time=0),
    Message('note_on', channel=8, note=48, velocity=0, time=6),
    Message('note_on', channel=8, note=57, velocity=74, time=378),
    Message('note_on', channel=8, note=58, velocity=0, time=5),
    Message('note_on', channel=8, note=41, velocity=0, time=361),
    Message('note_on', channel=8, note=57, velocity=0, time=4),
    Message('note_on', channel=8, note=46, velocity=80, time=14),
    Message('note_on', channel=8, note=58, velocity=80, time=0),
    Message('note_on', channel=8, note=62, velocity=80, time=0),
    Message('note_on', channel=8, note=46, velocity=0, time=768),
    Message('note_on', channel=8, note=46, velocity=80, time=0),
    Message('note_on', channel=8, note=58, velocity=0, time=0),
    Message('note_on', channel=8, note=60, velocity=80, time=0),
    Message('note_on', channel=8, note=62, velocity=0, time=0),
    Message('note_on', channel=8, note=63, velocity=80, time=0),
    Message('note_on', channel=8, note=45, velocity=80, time=768),
    Message('note_on', channel=8, note=46, velocity=0, time=0),
    Message('note_on', channel=8, note=57, velocity=80, time=0),
    Message('note_on', channel=8, note=60, velocity=0, time=0),
    Message('note_on', channel=8, note=60, velocity=80, time=0),
    Message('note_on', channel=8, note=63, velocity=0, time=0),
    Message('note_on', channel=8, note=45, velocity=0, time=768),
    Message('note_on', channel=8, note=46, velocity=80, time=0),
    Message('note_on', channel=8, note=57, velocity=0, time=0),
    Message('note_on', channel=8, note=58, velocity=80, time=0),
    Message('note_on', channel=8, note=60, velocity=0, time=0),
    Message('note_on', channel=8, note=62, velocity=80, time=0),
    Message('note_on', channel=8, note=43, velocity=85, time=768),
    Message('note_on', channel=8, note=46, velocity=0, time=0),
    Message('note_on', channel=8, note=58, velocity=0, time=0),
    Message('note_on', channel=8, note=62, velocity=0, time=0),
    Message('note_on', channel=8, note=62, velocity=85, time=0),
    Message('note_on', channel=8, note=67, velocity=85, time=0),
    Message('note_on', channel=8, note=43, velocity=0, time=768),
    Message('note_on', channel=8, note=48, velocity=89, time=0),
    Message('note_on', channel=8, note=62, velocity=0, time=0),
    Message('note_on', channel=8, note=63, velocity=89, time=0),
    Message('note_on', channel=8, note=67, velocity=0, time=0),
    Message('note_on', channel=8, note=67, velocity=90, time=0),
    Message('note_on', channel=8, note=44, velocity=103, time=768),
    Message('note_on', channel=8, note=48, velocity=0, time=0),
    Message('note_on', channel=8, note=63, velocity=0, time=0),
    Message('note_on', channel=8, note=63, velocity=103, time=0),
    Message('note_on', channel=8, note=67, velocity=0, time=0),
    Message('note_on', channel=8, note=68, velocity=103, time=0),
    Message('note_on', channel=8, note=41, velocity=103, time=768),
    Message('note_on', channel=8, note=44, velocity=0, time=0),
    Message('note_on', channel=8, note=60, velocity=103, time=0),
    Message('note_on', channel=8, note=63, velocity=0, time=0),
    Message('note_on', channel=8, note=65, velocity=103, time=0),
    Message('note_on', channel=8, note=68, velocity=0, time=0),
    Message('note_on', channel=8, note=41, velocity=0, time=768),
    Message('note_on', channel=8, note=46, velocity=80, time=0),
    Message('note_on', channel=8, note=58, velocity=80, time=0),
    Message('note_on', channel=8, note=60, velocity=0, time=0),
    Message('note_on', channel=8, note=62, velocity=80, time=0),
    Message('note_on', channel=8, note=65, velocity=0, time=0),
    Message('note_on', channel=8, note=46, velocity=0, time=768),
    Message('note_on', channel=8, note=46, velocity=80, time=0),
    Message('note_on', channel=8, note=58, velocity=0, time=0),
    Message('note_on', channel=8, note=60, velocity=80, time=0),
    Message('note_on', channel=8, note=62, velocity=0, time=0),
    Message('note_on', channel=8, note=63, velocity=80, time=0),
    Message('note_on', channel=8, note=45, velocity=80, time=768),
    Message('note_on', channel=8, note=46, velocity=0, time=0),
    Message('note_on', channel=8, note=57, velocity=80, time=0),
    Message('note_on', channel=8, note=60, velocity=0, time=0),
    Message('note_on', channel=8, note=60, velocity=80, time=0),
    Message('note_on', channel=8, note=63, velocity=0, time=0),
    Message('note_on', channel=8, note=45, velocity=0, time=768),
    Message('note_on', channel=8, note=46, velocity=80, time=0),
    Message('note_on', channel=8, note=57, velocity=0, time=0),
    Message('note_on', channel=8, note=58, velocity=80, time=0),
    Message('note_on', channel=8, note=60, velocity=0, time=0),
    Message('note_on', channel=8, note=62, velocity=80, time=0),
    Message('note_on', channel=8, note=43, velocity=85, time=768),
    Message('note_on', channel=8, note=46, velocity=0, time=0),
    Message('note_on', channel=8, note=58, velocity=0, time=0),
    Message('note_on', channel=8, note=62, velocity=0, time=0),
    Message('note_on', channel=8, note=62, velocity=85, time=0),
    Message('note_on', channel=8, note=67, velocity=9, time=0),
    Message('note_on', channel=8, note=43, velocity=0, time=768),
    Message('note_on', channel=8, note=48, velocity=89, time=0),
    Message('note_on', channel=8, note=62, velocity=0, time=0),
    Message('note_on', channel=8, note=63, velocity=89, time=0),
    Message('note_on', channel=8, note=67, velocity=0, time=0),
    Message('note_on', channel=8, note=67, velocity=90, time=0),
    Message('note_on', channel=8, note=44, velocity=90, time=768),
    Message('note_on', channel=8, note=48, velocity=0, time=0),
    Message('note_on', channel=8, note=63, velocity=0, time=0),
    Message('note_on', channel=8, note=63, velocity=95, time=0),
    Message('note_on', channel=8, note=67, velocity=0, time=0),
    Message('note_on', channel=8, note=68, velocity=95, time=0),
    Message('note_on', channel=8, note=41, velocity=95, time=768),
    Message('note_on', channel=8, note=44, velocity=0, time=0),
    Message('note_on', channel=8, note=60, velocity=95, time=0),
    Message('note_on', channel=8, note=63, velocity=0, time=0),
    Message('note_on', channel=8, note=65, velocity=95, time=0),
    Message('note_on', channel=8, note=68, velocity=0, time=0),
    Message('note_on', channel=8, note=41, velocity=0, time=768),
    Message('note_on', channel=8, note=46, velocity=81, time=0),
    Message('note_on', channel=8, note=58, velocity=81, time=0),
    Message('note_on', channel=8, note=60, velocity=0, time=0),
    Message('note_on', channel=8, note=65, velocity=0, time=0),
    Message('note_on', channel=8, note=46, velocity=0, time=3071),
    Message('note_on', channel=8, note=58, velocity=0, time=0),
    Message('note_on', channel=8, note=51, velocity=81, time=1),
    Message('note_on', channel=8, note=63, velocity=81, time=0),
    Message('note_on', channel=8, note=51, velocity=0, time=3071),
    Message('note_on', channel=8, note=63, velocity=0, time=0),
    Message('note_on', channel=8, note=50, velocity=81, time=1),
    Message('note_on', channel=8, note=62, velocity=81, time=0),
    Message('note_on', channel=8, note=50, velocity=0, time=767),
    Message('note_on', channel=8, note=62, velocity=0, time=0),
    Message('note_on', channel=8, note=43, velocity=81, time=1),
    Message('note_on', channel=8, note=55, velocity=81, time=0),
    Message('note_on', channel=8, note=43, velocity=0, time=767),
    Message('note_on', channel=8, note=55, velocity=0, time=0),
    Message('note_on', channel=8, note=48, velocity=81, time=1),
    Message('note_on', channel=8, note=60, velocity=81, time=0),
    Message('note_on', channel=8, note=48, velocity=0, time=767),
    Message('note_on', channel=8, note=60, velocity=0, time=0),
    Message('note_on', channel=8, note=42, velocity=81, time=1),
    Message('note_on', channel=8, note=54, velocity=81, time=0),
    Message('note_on', channel=8, note=42, velocity=0, time=767),
    Message('note_on', channel=8, note=54, velocity=0, time=0),
    Message('note_on', channel=8, note=41, velocity=81, time=1),
    Message('note_on', channel=8, note=53, velocity=81, time=0),
    Message('note_on', channel=8, note=41, velocity=0, time=767),
    Message('note_on', channel=8, note=53, velocity=0, time=0),
    Message('note_on', channel=8, note=48, velocity=81, time=1),
    Message('note_on', channel=8, note=60, velocity=81, time=0),
    Message('note_on', channel=8, note=48, velocity=0, time=767),
    Message('note_on', channel=8, note=60, velocity=0, time=0),
    Message('note_on', channel=8, note=46, velocity=81, time=1),
    Message('note_on', channel=8, note=58, velocity=81, time=0),
    Message('note_on', channel=8, note=46, velocity=0, time=1536),
    Message('note_on', channel=8, note=46, velocity=80, time=0),
    Message('note_on', channel=8, note=58, velocity=0, time=0),
    Message('note_on', channel=8, note=58, velocity=80, time=0),
    Message('note_on', channel=8, note=62, velocity=80, time=0),
    Message('note_on', channel=8, note=46, velocity=0, time=768),
    Message('note_on', channel=8, note=46, velocity=80, time=0),
    Message('note_on', channel=8, note=58, velocity=0, time=0),
    Message('note_on', channel=8, note=60, velocity=80, time=0),
    Message('note_on', channel=8, note=62, velocity=0, time=0),
    Message('note_on', channel=8, note=63, velocity=80, time=0),
    Message('note_on', channel=8, note=45, velocity=80, time=768),
    Message('note_on', channel=8, note=46, velocity=0, time=0),
    Message('note_on', channel=8, note=57, velocity=80, time=0),
    Message('note_on', channel=8, note=60, velocity=0, time=0),
    Message('note_on', channel=8, note=60, velocity=80, time=0),
    Message('note_on', channel=8, note=63, velocity=0, time=0),
    Message('note_on', channel=8, note=45, velocity=0, time=768),
    Message('note_on', channel=8, note=46, velocity=80, time=0),
    Message('note_on', channel=8, note=57, velocity=0, time=0),
    Message('note_on', channel=8, note=58, velocity=80, time=0),
    Message('note_on', channel=8, note=60, velocity=0, time=0),
    Message('note_on', channel=8, note=62, velocity=80, time=0),
    Message('note_on', channel=8, note=43, velocity=85, time=768),
    Message('note_on', channel=8, note=46, velocity=0, time=0),
    Message('note_on', channel=8, note=58, velocity=0, time=0),
    Message('note_on', channel=8, note=62, velocity=0, time=0),
    Message('note_on', channel=8, note=62, velocity=85, time=0),
    Message('note_on', channel=8, note=67, velocity=85, time=0),
    Message('note_on', channel=8, note=43, velocity=0, time=768),
    Message('note_on', channel=8, note=48, velocity=89, time=0),
    Message('note_on', channel=8, note=62, velocity=0, time=0),
    Message('note_on', channel=8, note=63, velocity=89, time=0),
    Message('note_on', channel=8, note=67, velocity=0, time=0),
    Message('note_on', channel=8, note=67, velocity=90, time=0),
    Message('note_on', channel=8, note=44, velocity=99, time=768),
    Message('note_on', channel=8, note=48, velocity=0, time=0),
    Message('note_on', channel=8, note=63, velocity=0, time=0),
    Message('note_on', channel=8, note=63, velocity=99, time=0),
    Message('note_on', channel=8, note=67, velocity=0, time=0),
    Message('note_on', channel=8, note=68, velocity=99, time=0),
    Message('note_on', channel=8, note=41, velocity=99, time=768),
    Message('note_on', channel=8, note=44, velocity=0, time=0),
    Message('note_on', channel=8, note=60, velocity=99, time=0),
    Message('note_on', channel=8, note=63, velocity=0, time=0),
    Message('note_on', channel=8, note=65, velocity=99, time=0),
    Message('note_on', channel=8, note=68, velocity=0, time=0),
    Message('note_on', channel=8, note=41, velocity=0, time=768),
    Message('note_on', channel=8, note=46, velocity=80, time=0),
    Message('note_on', channel=8, note=58, velocity=80, time=0),
    Message('note_on', channel=8, note=60, velocity=0, time=0),
    Message('note_on', channel=8, note=62, velocity=80, time=0),
    Message('note_on', channel=8, note=65, velocity=0, time=0),
    Message('note_on', channel=8, note=46, velocity=0, time=768),
    Message('note_on', channel=8, note=46, velocity=80, time=0),
    Message('note_on', channel=8, note=58, velocity=0, time=0),
    Message('note_on', channel=8, note=60, velocity=80, time=0),
    Message('note_on', channel=8, note=62, velocity=0, time=0),
    Message('note_on', channel=8, note=63, velocity=80, time=0),
    Message('note_on', channel=8, note=45, velocity=80, time=768),
    Message('note_on', channel=8, note=46, velocity=0, time=0),
    Message('note_on', channel=8, note=57, velocity=80, time=0),
    Message('note_on', channel=8, note=60, velocity=0, time=0),
    Message('note_on', channel=8, note=60, velocity=80, time=0),
    Message('note_on', channel=8, note=63, velocity=0, time=0),
    Message('note_on', channel=8, note=45, velocity=0, time=768),
    Message('note_on', channel=8, note=46, velocity=80, time=0),
    Message('note_on', channel=8, note=57, velocity=0, time=0),
    Message('note_on', channel=8, note=58, velocity=80, time=0),
    Message('note_on', channel=8, note=60, velocity=0, time=0),
    Message('note_on', channel=8, note=62, velocity=80, time=0),
    Message('note_on', channel=8, note=43, velocity=85, time=768),
    Message('note_on', channel=8, note=46, velocity=0, time=0),
    Message('note_on', channel=8, note=58, velocity=0, time=0),
    Message('note_on', channel=8, note=62, velocity=0, time=0),
    Message('note_on', channel=8, note=62, velocity=85, time=0),
    Message('note_on', channel=8, note=67, velocity=89, time=0),
    Message('note_on', channel=8, note=43, velocity=0, time=768),
    Message('note_on', channel=8, note=48, velocity=89, time=0),
    Message('note_on', channel=8, note=62, velocity=0, time=0),
    Message('note_on', channel=8, note=63, velocity=89, time=0),
    Message('note_on', channel=8, note=67, velocity=0, time=0),
    Message('note_on', channel=8, note=67, velocity=90, time=0),
    Message('note_on', channel=8, note=44, velocity=99, time=768),
    Message('note_on', channel=8, note=48, velocity=0, time=0),
    Message('note_on', channel=8, note=63, velocity=0, time=0),
    Message('note_on', channel=8, note=63, velocity=99, time=0),
    Message('note_on', channel=8, note=67, velocity=0, time=0),
    Message('note_on', channel=8, note=68, velocity=99, time=0),
    Message('note_on', channel=8, note=41, velocity=103, time=768),
    Message('note_on', channel=8, note=44, velocity=0, time=0),
    Message('note_on', channel=8, note=60, velocity=103, time=0),
    Message('note_on', channel=8, note=63, velocity=0, time=0),
    Message('note_on', channel=8, note=65, velocity=103, time=0),
    Message('note_on', channel=8, note=68, velocity=0, time=0),
    Message('note_on', channel=8, note=41, velocity=0, time=768),
    Message('note_on', channel=8, note=46, velocity=117, time=0),
    Message('note_on', channel=8, note=58, velocity=117, time=0),
    Message('note_on', channel=8, note=60, velocity=0, time=0),
    Message('note_on', channel=8, note=65, velocity=0, time=0),
    Message('note_on', channel=8, note=46, velocity=0, time=3071),
    Message('note_on', channel=8, note=58, velocity=0, time=0),
    Message('note_on', channel=8, note=51, velocity=117, time=1),
    Message('note_on', channel=8, note=63, velocity=117, time=0),
    Message('note_on', channel=8, note=51, velocity=0, time=3071),
    Message('note_on', channel=8, note=63, velocity=0, time=0),
    Message('note_on', channel=8, note=50, velocity=117, time=1),
    Message('note_on', channel=8, note=62, velocity=117, time=0),
    Message('note_on', channel=8, note=50, velocity=0, time=767),
    Message('note_on', channel=8, note=62, velocity=0, time=0),
    Message('note_on', channel=8, note=43, velocity=117, time=1),
    Message('note_on', channel=8, note=55, velocity=117, time=0),
    Message('note_on', channel=8, note=43, velocity=0, time=767),
    Message('note_on', channel=8, note=55, velocity=0, time=0),
    Message('note_on', channel=8, note=48, velocity=117, time=1),
    Message('note_on', channel=8, note=60, velocity=117, time=0),
    Message('note_on', channel=8, note=48, velocity=0, time=767),
    Message('note_on', channel=8, note=60, velocity=0, time=0),
    Message('note_on', channel=8, note=42, velocity=111, time=1),
    Message('note_on', channel=8, note=54, velocity=111, time=0),
    Message('note_on', channel=8, note=42, velocity=0, time=767),
    Message('note_on', channel=8, note=54, velocity=0, time=0),
    Message('note_on', channel=8, note=41, velocity=111, time=1),
    Message('note_on', channel=8, note=53, velocity=111, time=0),
    Message('note_on', channel=8, note=41, velocity=0, time=767),
    Message('note_on', channel=8, note=53, velocity=0, time=0),
    Message('note_on', channel=8, note=48, velocity=111, time=1),
    Message('note_on', channel=8, note=60, velocity=111, time=0),
    Message('note_on', channel=8, note=48, velocity=0, time=767),
    Message('note_on', channel=8, note=60, velocity=0, time=0),
    Message('note_on', channel=8, note=46, velocity=111, time=1),
    Message('note_on', channel=8, note=58, velocity=111, time=0),
    Message('note_on', channel=8, note=46, velocity=0, time=3071),
    Message('note_on', channel=8, note=58, velocity=0, time=0),
    Message('note_on', channel=8, note=51, velocity=111, time=1),
    Message('note_on', channel=8, note=63, velocity=111, time=0),
    Message('note_on', channel=8, note=51, velocity=0, time=3071),
    Message('note_on', channel=8, note=63, velocity=0, time=0),
    Message('note_on', channel=8, note=50, velocity=111, time=1),
    Message('note_on', channel=8, note=62, velocity=111, time=0),
    Message('note_on', channel=8, note=50, velocity=0, time=767),
    Message('note_on', channel=8, note=62, velocity=0, time=0),
    Message('note_on', channel=8, note=43, velocity=111, time=1),
    Message('note_on', channel=8, note=55, velocity=111, time=0),
    Message('note_on', channel=8, note=43, velocity=0, time=767),
    Message('note_on', channel=8, note=55, velocity=0, time=0),
    Message('note_on', channel=8, note=48, velocity=111, time=1),
    Message('note_on', channel=8, note=60, velocity=111, time=0),
    Message('note_on', channel=8, note=48, velocity=0, time=767),
    Message('note_on', channel=8, note=60, velocity=0, time=0),
    Message('note_on', channel=8, note=42, velocity=111, time=1),
    Message('note_on', channel=8, note=54, velocity=111, time=0),
    Message('note_on', channel=8, note=42, velocity=0, time=767),
    Message('note_on', channel=8, note=54, velocity=0, time=0),
    Message('note_on', channel=8, note=41, velocity=111, time=1),
    Message('note_on', channel=8, note=53, velocity=111, time=0),
    Message('note_on', channel=8, note=41, velocity=0, time=767),
    Message('note_on', channel=8, note=53, velocity=0, time=0),
    Message('note_on', channel=8, note=48, velocity=88, time=1),
    Message('note_on', channel=8, note=60, velocity=88, time=0),
    Message('note_on', channel=8, note=48, velocity=0, time=767),
    Message('note_on', channel=8, note=60, velocity=0, time=0),
    Message('note_on', channel=8, note=46, velocity=88, time=1),
    Message('note_on', channel=8, note=58, velocity=88, time=0),
    Message('note_on', channel=8, note=46, velocity=0, time=1536),
    Message('note_on', channel=8, note=58, velocity=0, time=0),
    Message('note_on', channel=8, note=70, velocity=75, time=4608),
    Message('note_on', channel=8, note=70, velocity=0, time=766),
    Message('note_on', channel=8, note=73, velocity=75, time=2),
    Message('note_on', channel=8, note=73, velocity=0, time=760),
    Message('note_on', channel=8, note=70, velocity=75, time=200),
    Message('note_on', channel=8, note=70, velocity=0, time=760),
    MetaMessage('end_of_track', time=0)]),
  MidiTrack([
    MetaMessage('track_name', name='Drum', time=0),
    Message('control_change', channel=9, control=0, value=0, time=0),
    Message('control_change', channel=9, control=32, value=0, time=0),
    Message('program_change', channel=9, program=0, time=0),
    Message('control_change', channel=9, control=7, value=112, time=0),
    Message('control_change', channel=9, control=10, value=64, time=0),
    Message('control_change', channel=9, control=11, value=127, time=0),
    Message('control_change', channel=9, control=91, value=24, time=0),
    Message('control_change', channel=9, control=93, value=102, time=0),
    Message('control_change', channel=9, control=101, value=0, time=110),
    Message('control_change', channel=9, control=100, value=0, time=50),
    Message('control_change', channel=9, control=6, value=2, time=88),
    Message('note_on', channel=9, note=36, velocity=61, time=1288),
    Message('note_on', channel=9, note=54, velocity=61, time=0),
    Message('note_on', channel=9, note=70, velocity=61, time=0),
    Message('note_on', channel=9, note=82, velocity=61, time=0),
    Message('note_off', channel=9, note=82, velocity=61, time=15),
    Message('note_off', channel=9, note=70, velocity=61, time=0),
    Message('note_off', channel=9, note=54, velocity=61, time=0),
    Message('note_off', channel=9, note=36, velocity=61, time=0),
    Message('pitchwheel', channel=9, pitch=-266, time=29),
    Message('note_on', channel=9, note=36, velocity=61, time=4),
    Message('note_on', channel=9, note=54, velocity=61, time=0),
    Message('note_on', channel=9, note=70, velocity=61, time=0),
    Message('note_off', channel=9, note=70, velocity=61, time=15),
    Message('note_off', channel=9, note=54, velocity=61, time=0),
    Message('note_off', channel=9, note=36, velocity=61, time=0),
    Message('note_on', channel=9, note=36, velocity=61, time=33),
    Message('note_on', channel=9, note=54, velocity=61, time=0),
    Message('note_on', channel=9, note=70, velocity=61, time=0),
    Message('note_off', channel=9, note=70, velocity=61, time=15),
    Message('note_off', channel=9, note=54, velocity=61, time=0),
    Message('note_off', channel=9, note=36, velocity=61, time=0),
    Message('note_on', channel=9, note=36, velocity=61, time=33),
    Message('note_on', channel=9, note=39, velocity=61, time=0),
    Message('note_on', channel=9, note=54, velocity=61, time=0),
    Message('note_on', channel=9, note=70, velocity=61, time=0),
    Message('note_off', channel=9, note=70, velocity=61, time=15),
    Message('note_off', channel=9, note=54, velocity=61, time=0),
    Message('note_off', channel=9, note=39, velocity=61, time=0),
    Message('note_off', channel=9, note=36, velocity=61, time=0),
    Message('note_on', channel=9, note=44, velocity=61, time=33),
    Message('note_on', channel=9, note=54, velocity=61, time=0),
    Message('note_on', channel=9, note=70, velocity=61, time=0),
    Message('note_off', channel=9, note=70, velocity=61, time=15),
    Message('note_off', channel=9, note=54, velocity=61, time=0),
    Message('note_off', channel=9, note=44, velocity=61, time=0),
    Message('note_on', channel=9, note=54, velocity=61, time=33),
    Message('note_on', channel=9, note=70, velocity=61, time=0),
    Message('note_off', channel=9, note=70, velocity=61, time=15),
    Message('note_off', channel=9, note=54, velocity=61, time=0),
    Message('note_on', channel=9, note=36, velocity=61, time=33),
    Message('note_on', channel=9, note=39, velocity=61, time=0),
    Message('note_on', channel=9, note=54, velocity=61, time=0),
    Message('note_on', channel=9, note=70, velocity=61, time=0),
    Message('note_off', channel=9, note=70, velocity=61, time=15),
    Message('note_off', channel=9, note=54, velocity=61, time=0),
    Message('note_off', channel=9, note=39, velocity=61, time=0),
    Message('note_off', channel=9, note=36, velocity=61, time=0),
    Message('note_on', channel=9, note=54, velocity=61, time=33),
    Message('note_on', channel=9, note=70, velocity=61, time=0),
    Message('note_off', channel=9, note=70, velocity=61, time=15),
    Message('note_off', channel=9, note=54, velocity=61, time=0),
    Message('note_on', channel=9, note=36, velocity=61, time=33),
    Message('note_on', channel=9, note=54, velocity=61, time=0),
    Message('note_on', channel=9, note=82, velocity=61, time=0),
    Message('note_off', channel=9, note=82, velocity=61, time=15),
    Message('note_off', channel=9, note=54, velocity=61, time=0),
    Message('note_off', channel=9, note=36, velocity=61, time=0),
    Message('note_on', channel=9, note=36, velocity=61, time=33),
    Message('note_on', channel=9, note=54, velocity=61, time=0),
    Message('note_on', channel=9, note=70, velocity=61, time=0),
    Message('note_off', channel=9, note=70, velocity=61, time=15),
    Message('note_off', channel=9, note=54, velocity=61, time=0),
    Message('note_off', channel=9, note=36, velocity=61, time=0),
    Message('note_on', channel=9, note=36, velocity=61, time=33),
    Message('note_on', channel=9, note=44, velocity=61, time=0),
    Message('note_on', channel=9, note=54, velocity=61, time=0),
    Message('note_on', channel=9, note=70, velocity=61, time=0),
    Message('note_off', channel=9, note=70, velocity=61, time=15),
    Message('note_off', channel=9, note=54, velocity=61, time=0),
    Message('note_off', channel=9, note=44, velocity=61, time=0),
    Message('note_off', channel=9, note=36, velocity=61, time=0),
    Message('note_on', channel=9, note=36, velocity=61, time=33),
    Message('note_on', channel=9, note=54, velocity=61, time=0),
    Message('note_on', channel=9, note=70, velocity=61, time=0),
    Message('note_off', channel=9, note=70, velocity=61, time=15),
    Message('note_off', channel=9, note=54, velocity=61, time=0),
    Message('note_off', channel=9, note=36, velocity=61, time=0),
    Message('note_on', channel=9, note=44, velocity=61, time=33),
    Message('note_on', channel=9, note=54, velocity=61, time=0),
    Message('note_on', channel=9, note=70, velocity=61, time=0),
    Message('note_on', channel=9, note=83, velocity=61, time=0),
    Message('note_off', channel=9, note=83, velocity=61, time=15),
    Message('note_off', channel=9, note=70, velocity=61, time=0),
    Message('note_off', channel=9, note=54, velocity=61, time=0),
    Message('note_off', channel=9, note=44, velocity=61, time=0),
    Message('note_on', channel=9, note=54, velocity=61, time=33),
    Message('note_on', channel=9, note=70, velocity=61, time=0),
    Message('note_off', channel=9, note=70, velocity=61, time=15),
    Message('note_off', channel=9, note=54, velocity=61, time=0),
    Message('note_on', channel=9, note=54, velocity=61, time=33),
    Message('note_on', channel=9, note=70, velocity=61, time=0),
    Message('note_off', channel=9, note=70, velocity=61, time=15),
    Message('note_off', channel=9, note=54, velocity=61, time=0),
    Message('note_on', channel=9, note=54, velocity=61, time=33),
    Message('note_on', channel=9, note=70, velocity=61, time=0),
    Message('note_off', channel=9, note=70, velocity=61, time=15),
    Message('note_off', channel=9, note=54, velocity=61, time=0),
    Message('note_on', channel=9, note=36, velocity=61, time=33),
    Message('note_on', channel=9, note=54, velocity=61, time=0),
    Message('note_on', channel=9, note=70, velocity=61, time=0),
    Message('note_on', channel=9, note=82, velocity=61, time=0),
    Message('note_off', channel=9, note=82, velocity=61, time=15),
    Message('note_off', channel=9, note=70, velocity=61, time=0),
    Message('note_off', channel=9, note=54, velocity=61, time=0),
    Message('note_off', channel=9, note=36, velocity=61, time=0),
    Message('pitchwheel', channel=9, pitch=-266, time=29),
    Message('note_on', channel=9, note=36, velocity=61, time=4),
    Message('note_on', channel=9, note=54, velocity=61, time=0),
    Message('note_on', channel=9, note=70, velocity=61, time=0),
    Message('note_off', channel=9, note=70, velocity=61, time=15),
    Message('note_off', channel=9, note=54, velocity=61, time=0),
    Message('note_off', channel=9, note=36, velocity=61, time=0),
    Message('note_on', channel=9, note=36, velocity=61, time=33),
    Message('note_on', channel=9, note=54, velocity=61, time=0),
    Message('note_on', channel=9, note=70, velocity=61, time=0),
    Message('note_off', channel=9, note=70, velocity=61, time=15),
    Message('note_off', channel=9, note=54, velocity=61, time=0),
    Message('note_off', channel=9, note=36, velocity=61, time=0),
    Message('note_on', channel=9, note=36, velocity=61, time=33),
    Message('note_on', channel=9, note=39, velocity=61, time=0),
    Message('note_on', channel=9, note=54, velocity=61, time=0),
    Message('note_on', channel=9, note=70, velocity=61, time=0),
    Message('note_off', channel=9, note=70, velocity=61, time=15),
    Message('note_off', channel=9, note=54, velocity=61, time=0),
    Message('note_off', channel=9, note=39, velocity=61, time=0),
    Message('note_off', channel=9, note=36, velocity=61, time=0),
    Message('note_on', channel=9, note=44, velocity=61, time=33),
    Message('note_on', channel=9, note=54, velocity=61, time=0),
    Message('note_on', channel=9, note=70, velocity=61, time=0),
    Message('note_off', channel=9, note=70, velocity=61, time=15),
    Message('note_off', channel=9, note=54, velocity=61, time=0),
    Message('note_off', channel=9, note=44, velocity=61, time=0),
    Message('note_on', channel=9, note=54, velocity=61, time=33),
    Message('note_on', channel=9, note=70, velocity=61, time=0),
    Message('note_off', channel=9, note=70, velocity=61, time=15),
    Message('note_off', channel=9, note=54, velocity=61, time=0),
    Message('note_on', channel=9, note=36, velocity=61, time=33),
    Message('note_on', channel=9, note=39, velocity=61, time=0),
    Message('note_on', channel=9, note=54, velocity=61, time=0),
    Message('note_on', channel=9, note=70, velocity=61, time=0),
    Message('note_off', channel=9, note=70, velocity=61, time=15),
    Message('note_off', channel=9, note=54, velocity=61, time=0),
    Message('note_off', channel=9, note=39, velocity=61, time=0),
    Message('note_off', channel=9, note=36, velocity=61, time=0),
    Message('note_on', channel=9, note=54, velocity=61, time=33),
    Message('note_on', channel=9, note=70, velocity=61, time=0),
    Message('note_off', channel=9, note=70, velocity=61, time=15),
    Message('note_off', channel=9, note=54, velocity=61, time=0),
    Message('note_on', channel=9, note=36, velocity=61, time=33),
    Message('note_on', channel=9, note=54, velocity=61, time=0),
    Message('note_on', channel=9, note=82, velocity=61, time=0),
    Message('note_off', channel=9, note=82, velocity=61, time=15),
    Message('note_off', channel=9, note=54, velocity=61, time=0),
    Message('note_off', channel=9, note=36, velocity=61, time=0),
    Message('note_on', channel=9, note=36, velocity=61, time=33),
    Message('note_on', channel=9, note=54, velocity=61, time=0),
    Message('note_on', channel=9, note=70, velocity=61, time=0),
    Message('note_off', channel=9, note=70, velocity=61, time=15),
    Message('note_off', channel=9, note=54, velocity=61, time=0),
    Message('note_off', channel=9, note=36, velocity=61, time=0),
    Message('note_on', channel=9, note=36, velocity=61, time=33),
    Message('note_on', channel=9, note=44, velocity=61, time=0),
    Message('note_on', channel=9, note=54, velocity=61, time=0),
    Message('note_on', channel=9, note=70, velocity=61, time=0),
    Message('note_off', channel=9, note=70, velocity=61, time=15),
    Message('note_off', channel=9, note=54, velocity=61, time=0),
    Message('note_off', channel=9, note=44, velocity=61, time=0),
    Message('note_off', channel=9, note=36, velocity=61, time=0),
    Message('note_on', channel=9, note=36, velocity=61, time=33),
    Message('note_on', channel=9, note=54, velocity=61, time=0),
    Message('note_on', channel=9, note=70, velocity=61, time=0),
    Message('note_off', channel=9, note=70, velocity=61, time=15),
    Message('note_off', channel=9, note=54, velocity=61, time=0),
    Message('note_off', channel=9, note=36, velocity=61, time=0),
    Message('note_on', channel=9, note=44, velocity=61, time=33),
    Message('note_on', channel=9, note=54, velocity=61, time=0),
    Message('note_on', channel=9, note=70, velocity=61, time=0),
    Message('note_on', channel=9, note=83, velocity=61, time=0),
    Message('note_off', channel=9, note=83, velocity=61, time=15),
    Message('note_off', channel=9, note=70, velocity=61, time=0),
    Message('note_off', channel=9, note=54, velocity=61, time=0),
    Message('note_off', channel=9, note=44, velocity=61, time=0),
    Message('note_on', channel=9, note=54, velocity=61, time=33),
    Message('note_on', channel=9, note=70, velocity=61, time=0),
    Message('note_off', channel=9, note=70, velocity=61, time=15),
    Message('note_off', channel=9, note=54, velocity=61, time=0),
    Message('note_on', channel=9, note=54, velocity=61, time=33),
    Message('note_on', channel=9, note=70, velocity=61, time=0),
    Message('note_off', channel=9, note=70, velocity=61, time=15),
    Message('note_off', channel=9, note=54, velocity=61, time=0),
    Message('note_on', channel=9, note=54, velocity=61, time=33),
    Message('note_on', channel=9, note=70, velocity=61, time=0),
    Message('note_off', channel=9, note=70, velocity=61, time=15),
    Message('note_off', channel=9, note=54, velocity=61, time=0),
    Message('note_on', channel=9, note=36, velocity=61, time=33),
    Message('note_on', channel=9, note=54, velocity=61, time=0),
    Message('note_on', channel=9, note=70, velocity=61, time=0),
    Message('note_on', channel=9, note=82, velocity=61, time=0),
    Message('note_off', channel=9, note=82, velocity=61, time=15),
    Message('note_off', channel=9, note=70, velocity=61, time=0),
    Message('note_off', channel=9, note=54, velocity=61, time=0),
    Message('note_off', channel=9, note=36, velocity=61, time=0),
    Message('pitchwheel', channel=9, pitch=-266, time=29),
    Message('note_on', channel=9, note=36, velocity=61, time=4),
    Message('note_on', channel=9, note=54, velocity=61, time=0),
    Message('note_on', channel=9, note=70, velocity=61, time=0),
    Message('note_off', channel=9, note=70, velocity=61, time=15),
    Message('note_off', channel=9, note=54, velocity=61, time=0),
    Message('note_off', channel=9, note=36, velocity=61, time=0),
    Message('note_on', channel=9, note=36, velocity=61, time=33),
    Message('note_on', channel=9, note=54, velocity=61, time=0),
    Message('note_on', channel=9, note=70, velocity=61, time=0),
    Message('note_off', channel=9, note=70, velocity=61, time=15),
    Message('note_off', channel=9, note=54, velocity=61, time=0),
    Message('note_off', channel=9, note=36, velocity=61, time=0),
    Message('note_on', channel=9, note=36, velocity=61, time=33),
    Message('note_on', channel=9, note=39, velocity=61, time=0),
    Message('note_on', channel=9, note=54, velocity=61, time=0),
    Message('note_on', channel=9, note=70, velocity=61, time=0),
    Message('note_off', channel=9, note=70, velocity=61, time=15),
    Message('note_off', channel=9, note=54, velocity=61, time=0),
    Message('note_off', channel=9, note=39, velocity=61, time=0),
    Message('note_off', channel=9, note=36, velocity=61, time=0),
    Message('note_on', channel=9, note=44, velocity=61, time=33),
    Message('note_on', channel=9, note=54, velocity=61, time=0),
    Message('note_on', channel=9, note=70, velocity=61, time=0),
    Message('note_off', channel=9, note=70, velocity=61, time=15),
    Message('note_off', channel=9, note=54, velocity=61, time=0),
    Message('note_off', channel=9, note=44, velocity=61, time=0),
    Message('note_on', channel=9, note=54, velocity=61, time=33),
    Message('note_on', channel=9, note=70, velocity=61, time=0),
    Message('note_off', channel=9, note=70, velocity=61, time=15),
    Message('note_off', channel=9, note=54, velocity=61, time=0),
    Message('note_on', channel=9, note=36, velocity=61, time=33),
    Message('note_on', channel=9, note=39, velocity=61, time=0),
    Message('note_on', channel=9, note=54, velocity=61, time=0),
    Message('note_on', channel=9, note=70, velocity=61, time=0),
    Message('note_off', channel=9, note=70, velocity=61, time=15),
    Message('note_off', channel=9, note=54, velocity=61, time=0),
    Message('note_off', channel=9, note=39, velocity=61, time=0),
    Message('note_off', channel=9, note=36, velocity=61, time=0),
    Message('note_on', channel=9, note=54, velocity=61, time=33),
    Message('note_on', channel=9, note=70, velocity=61, time=0),
    Message('note_off', channel=9, note=70, velocity=61, time=15),
    Message('note_off', channel=9, note=54, velocity=61, time=0),
    Message('note_on', channel=9, note=36, velocity=61, time=33),
    Message('note_on', channel=9, note=54, velocity=61, time=0),
    Message('note_on', channel=9, note=82, velocity=61, time=0),
    Message('note_off', channel=9, note=82, velocity=61, time=15),
    Message('note_off', channel=9, note=54, velocity=61, time=0),
    Message('note_off', channel=9, note=36, velocity=61, time=0),
    Message('note_on', channel=9, note=36, velocity=61, time=33),
    Message('note_on', channel=9, note=54, velocity=61, time=0),
    Message('note_on', channel=9, note=70, velocity=61, time=0),
    Message('note_off', channel=9, note=70, velocity=61, time=15),
    Message('note_off', channel=9, note=54, velocity=61, time=0),
    Message('note_off', channel=9, note=36, velocity=61, time=0),
    Message('note_on', channel=9, note=36, velocity=61, time=33),
    Message('note_on', channel=9, note=44, velocity=61, time=0),
    Message('note_on', channel=9, note=54, velocity=61, time=0),
    Message('note_on', channel=9, note=70, velocity=61, time=0),
    Message('note_off', channel=9, note=70, velocity=61, time=15),
    Message('note_off', channel=9, note=54, velocity=61, time=0),
    Message('note_off', channel=9, note=44, velocity=61, time=0),
    Message('note_off', channel=9, note=36, velocity=61, time=0),
    Message('note_on', channel=9, note=36, velocity=61, time=33),
    Message('note_on', channel=9, note=54, velocity=61, time=0),
    Message('note_on', channel=9, note=70, velocity=61, time=0),
    Message('note_off', channel=9, note=70, velocity=61, time=15),
    Message('note_off', channel=9, note=54, velocity=61, time=0),
    Message('note_off', channel=9, note=36, velocity=61, time=0),
    Message('note_on', channel=9, note=44, velocity=61, time=33),
    Message('note_on', channel=9, note=54, velocity=61, time=0),
    Message('note_on', channel=9, note=70, velocity=61, time=0),
    Message('note_on', channel=9, note=83, velocity=61, time=0),
    Message('note_off', channel=9, note=83, velocity=61, time=15),
    Message('note_off', channel=9, note=70, velocity=61, time=0),
    Message('note_off', channel=9, note=54, velocity=61, time=0),
    Message('note_off', channel=9, note=44, velocity=61, time=0),
    Message('note_on', channel=9, note=54, velocity=61, time=33),
    Message('note_on', channel=9, note=70, velocity=61, time=0),
    Message('note_off', channel=9, note=70, velocity=61, time=15),
    Message('note_off', channel=9, note=54, velocity=61, time=0),
    Message('note_on', channel=9, note=54, velocity=61, time=33),
    Message('note_on', channel=9, note=70, velocity=61, time=0),
    Message('note_off', channel=9, note=70, velocity=61, time=15),
    Message('note_off', channel=9, note=54, velocity=61, time=0),
    Message('note_on', channel=9, note=54, velocity=61, time=33),
    Message('note_on', channel=9, note=70, velocity=61, time=0),
    Message('note_off', channel=9, note=70, velocity=61, time=15),
    Message('note_off', channel=9, note=54, velocity=61, time=0),
    Message('note_on', channel=9, note=36, velocity=61, time=33),
    Message('note_on', channel=9, note=54, velocity=61, time=0),
    Message('note_on', channel=9, note=70, velocity=61, time=0),
    Message('note_on', channel=9, note=82, velocity=61, time=0),
    Message('note_off', channel=9, note=82, velocity=61, time=15),
    Message('note_off', channel=9, note=70, velocity=61, time=0),
    Message('note_off', channel=9, note=54, velocity=61, time=0),
    Message('note_off', channel=9, note=36, velocity=61, time=0),
    Message('pitchwheel', channel=9, pitch=-266, time=29),
    Message('note_on', channel=9, note=36, velocity=61, time=4),
    Message('note_on', channel=9, note=54, velocity=61, time=0),
    Message('note_on', channel=9, note=70, velocity=61, time=0),
    Message('note_off', channel=9, note=70, velocity=61, time=15),
    Message('note_off', channel=9, note=54, velocity=61, time=0),
    Message('note_off', channel=9, note=36, velocity=61, time=0),
    Message('note_on', channel=9, note=36, velocity=61, time=33),
    Message('note_on', channel=9, note=54, velocity=61, time=0),
    Message('note_on', channel=9, note=70, velocity=61, time=0),
    Message('note_off', channel=9, note=70, velocity=61, time=15),
    Message('note_off', channel=9, note=54, velocity=61, time=0),
    Message('note_off', channel=9, note=36, velocity=61, time=0),
    Message('note_on', channel=9, note=36, velocity=61, time=33),
    Message('note_on', channel=9, note=39, velocity=61, time=0),
    Message('note_on', channel=9, note=54, velocity=61, time=0),
    Message('note_on', channel=9, note=70, velocity=61, time=0),
    Message('note_off', channel=9, note=70, velocity=61, time=15),
    Message('note_off', channel=9, note=54, velocity=61, time=0),
    Message('note_off', channel=9, note=39, velocity=61, time=0),
    Message('note_off', channel=9, note=36, velocity=61, time=0),
    Message('note_on', channel=9, note=44, velocity=61, time=33),
    Message('note_on', channel=9, note=54, velocity=61, time=0),
    Message('note_on', channel=9, note=70, velocity=61, time=0),
    Message('note_off', channel=9, note=70, velocity=61, time=15),
    Message('note_off', channel=9, note=54, velocity=61, time=0),
    Message('note_off', channel=9, note=44, velocity=61, time=0),
    Message('note_on', channel=9, note=54, velocity=61, time=33),
    Message('note_on', channel=9, note=70, velocity=61, time=0),
    Message('note_off', channel=9, note=70, velocity=61, time=15),
    Message('note_off', channel=9, note=54, velocity=61, time=0),
    Message('note_on', channel=9, note=36, velocity=61, time=33),
    Message('note_on', channel=9, note=39, velocity=61, time=0),
    Message('note_on', channel=9, note=54, velocity=61, time=0),
    Message('note_on', channel=9, note=70, velocity=61, time=0),
    Message('note_off', channel=9, note=70, velocity=61, time=15),
    Message('note_off', channel=9, note=54, velocity=61, time=0),
    Message('note_off', channel=9, note=39, velocity=61, time=0),
    Message('note_off', channel=9, note=36, velocity=61, time=0),
    Message('note_on', channel=9, note=54, velocity=61, time=33),
    Message('note_on', channel=9, note=70, velocity=61, time=0),
    Message('note_off', channel=9, note=70, velocity=61, time=15),
    Message('note_off', channel=9, note=54, velocity=61, time=0),
    Message('note_on', channel=9, note=36, velocity=61, time=33),
    Message('note_on', channel=9, note=54, velocity=61, time=0),
    Message('note_on', channel=9, note=82, velocity=61, time=0),
    Message('note_off', channel=9, note=82, velocity=61, time=15),
    Message('note_off', channel=9, note=54, velocity=61, time=0),
    Message('note_off', channel=9, note=36, velocity=61, time=0),
    Message('note_on', channel=9, note=36, velocity=61, time=33),
    Message('note_on', channel=9, note=54, velocity=61, time=0),
    Message('note_on', channel=9, note=70, velocity=61, time=0),
    Message('note_off', channel=9, note=70, velocity=61, time=15),
    Message('note_off', channel=9, note=54, velocity=61, time=0),
    Message('note_off', channel=9, note=36, velocity=61, time=0),
    Message('note_on', channel=9, note=36, velocity=61, time=33),
    Message('note_on', channel=9, note=44, velocity=61, time=0),
    Message('note_on', channel=9, note=54, velocity=61, time=0),
    Message('note_on', channel=9, note=70, velocity=61, time=0),
    Message('note_off', channel=9, note=70, velocity=61, time=15),
    Message('note_off', channel=9, note=54, velocity=61, time=0),
    Message('note_off', channel=9, note=44, velocity=61, time=0),
    Message('note_off', channel=9, note=36, velocity=61, time=0),
    Message('note_on', channel=9, note=36, velocity=61, time=33),
    Message('note_on', channel=9, note=54, velocity=61, time=0),
    Message('note_on', channel=9, note=70, velocity=61, time=0),
    Message('note_off', channel=9, note=70, velocity=61, time=15),
    Message('note_off', channel=9, note=54, velocity=61, time=0),
    Message('note_off', channel=9, note=36, velocity=61, time=0),
    Message('note_on', channel=9, note=44, velocity=61, time=33),
    Message('note_on', channel=9, note=54, velocity=61, time=0),
    Message('note_on', channel=9, note=70, velocity=61, time=0),
    Message('note_on', channel=9, note=83, velocity=61, time=0),
    Message('note_off', channel=9, note=83, velocity=61, time=15),
    Message('note_off', channel=9, note=70, velocity=61, time=0),
    Message('note_off', channel=9, note=54, velocity=61, time=0),
    Message('note_off', channel=9, note=44, velocity=61, time=0),
    Message('note_on', channel=9, note=54, velocity=61, time=33),
    Message('note_on', channel=9, note=70, velocity=61, time=0),
    Message('note_off', channel=9, note=70, velocity=61, time=15),
    Message('note_off', channel=9, note=54, velocity=61, time=0),
    Message('note_on', channel=9, note=54, velocity=61, time=33),
    Message('note_on', channel=9, note=70, velocity=61, time=0),
    Message('note_off', channel=9, note=70, velocity=61, time=15),
    Message('note_off', channel=9, note=54, velocity=61, time=0),
    Message('note_on', channel=9, note=54, velocity=61, time=33),
    Message('note_on', channel=9, note=70, velocity=61, time=0),
    Message('note_off', channel=9, note=70, velocity=61, time=15),
    Message('note_off', channel=9, note=54, velocity=61, time=0),
    Message('note_on', channel=9, note=36, velocity=61, time=33),
    Message('note_on', channel=9, note=54, velocity=61, time=0),
    Message('note_on', channel=9, note=70, velocity=61, time=0),
    Message('note_on', channel=9, note=82, velocity=61, time=0),
    Message('note_off', channel=9, note=82, velocity=61, time=15),
    Message('note_off', channel=9, note=70, velocity=61, time=0),
    Message('note_off', channel=9, note=54, velocity=61, time=0),
    Message('note_off', channel=9, note=36, velocity=61, time=0),
    Message('pitchwheel', channel=9, pitch=-266, time=29),
    Message('note_on', channel=9, note=36, velocity=61, time=4),
    Message('note_on', channel=9, note=54, velocity=61, time=0),
    Message('note_on', channel=9, note=70, velocity=61, time=0),
    Message('note_off', channel=9, note=70, velocity=61, time=15),
    Message('note_off', channel=9, note=54, velocity=61, time=0),
    Message('note_off', channel=9, note=36, velocity=61, time=0),
    Message('note_on', channel=9, note=36, velocity=61, time=33),
    Message('note_on', channel=9, note=54, velocity=61, time=0),
    Message('note_on', channel=9, note=70, velocity=61, time=0),
    Message('note_off', channel=9, note=70, velocity=61, time=15),
    Message('note_off', channel=9, note=54, velocity=61, time=0),
    Message('note_off', channel=9, note=36, velocity=61, time=0),
    Message('note_on', channel=9, note=36, velocity=61, time=33),
    Message('note_on', channel=9, note=39, velocity=61, time=0),
    Message('note_on', channel=9, note=54, velocity=61, time=0),
    Message('note_on', channel=9, note=70, velocity=61, time=0),
    Message('note_off', channel=9, note=70, velocity=61, time=15),
    Message('note_off', channel=9, note=54, velocity=61, time=0),
    Message('note_off', channel=9, note=39, velocity=61, time=0),
    Message('note_off', channel=9, note=36, velocity=61, time=0),
    Message('note_on', channel=9, note=44, velocity=61, time=33),
    Message('note_on', channel=9, note=54, velocity=61, time=0),
    Message('note_on', channel=9, note=70, velocity=61, time=0),
    Message('note_off', channel=9, note=70, velocity=61, time=15),
    Message('note_off', channel=9, note=54, velocity=61, time=0),
    Message('note_off', channel=9, note=44, velocity=61, time=0),
    Message('note_on', channel=9, note=54, velocity=61, time=33),
    Message('note_on', channel=9, note=70, velocity=61, time=0),
    Message('note_off', channel=9, note=70, velocity=61, time=15),
    Message('note_off', channel=9, note=54, velocity=61, time=0),
    Message('note_on', channel=9, note=36, velocity=61, time=33),
    Message('note_on', channel=9, note=39, velocity=61, time=0),
    Message('note_on', channel=9, note=54, velocity=61, time=0),
    Message('note_on', channel=9, note=70, velocity=61, time=0),
    Message('note_off', channel=9, note=70, velocity=61, time=15),
    Message('note_off', channel=9, note=54, velocity=61, time=0),
    Message('note_off', channel=9, note=39, velocity=61, time=0),
    Message('note_off', channel=9, note=36, velocity=61, time=0),
    Message('note_on', channel=9, note=54, velocity=61, time=33),
    Message('note_on', channel=9, note=70, velocity=61, time=0),
    Message('note_off', channel=9, note=70, velocity=61, time=15),
    Message('note_off', channel=9, note=54, velocity=61, time=0),
    Message('note_on', channel=9, note=36, velocity=61, time=33),
    Message('note_on', channel=9, note=54, velocity=61, time=0),
    Message('note_on', channel=9, note=82, velocity=61, time=0),
    Message('note_off', channel=9, note=82, velocity=61, time=15),
    Message('note_off', channel=9, note=54, velocity=61, time=0),
    Message('note_off', channel=9, note=36, velocity=61, time=0),
    Message('note_on', channel=9, note=36, velocity=61, time=33),
    Message('note_on', channel=9, note=54, velocity=61, time=0),
    Message('note_on', channel=9, note=70, velocity=61, time=0),
    Message('note_off', channel=9, note=70, velocity=61, time=15),
    Message('note_off', channel=9, note=54, velocity=61, time=0),
    Message('note_off', channel=9, note=36, velocity=61, time=0),
    Message('note_on', channel=9, note=36, velocity=61, time=33),
    Message('note_on', channel=9, note=44, velocity=61, time=0),
    Message('note_on', channel=9, note=54, velocity=61, time=0),
    Message('note_on', channel=9, note=70, velocity=61, time=0),
    Message('note_off', channel=9, note=70, velocity=61, time=15),
    Message('note_off', channel=9, note=54, velocity=61, time=0),
    Message('note_off', channel=9, note=44, velocity=61, time=0),
    Message('note_off', channel=9, note=36, velocity=61, time=0),
    Message('note_on', channel=9, note=36, velocity=61, time=33),
    Message('note_on', channel=9, note=54, velocity=61, time=0),
    Message('note_on', channel=9, note=70, velocity=61, time=0),
    Message('note_off', channel=9, note=70, velocity=61, time=15),
    Message('note_off', channel=9, note=54, velocity=61, time=0),
    Message('note_off', channel=9, note=36, velocity=61, time=0),
    Message('note_on', channel=9, note=44, velocity=61, time=33),
    Message('note_on', channel=9, note=54, velocity=61, time=0),
    Message('note_on', channel=9, note=70, velocity=61, time=0),
    Message('note_on', channel=9, note=83, velocity=61, time=0),
    Message('note_off', channel=9, note=83, velocity=61, time=15),
    Message('note_off', channel=9, note=70, velocity=61, time=0),
    Message('note_off', channel=9, note=54, velocity=61, time=0),
    Message('note_off', channel=9, note=44, velocity=61, time=0),
    Message('note_on', channel=9, note=54, velocity=61, time=33),
    Message('note_on', channel=9, note=70, velocity=61, time=0),
    Message('note_off', channel=9, note=70, velocity=61, time=15),
    Message('note_off', channel=9, note=54, velocity=61, time=0),
    Message('note_on', channel=9, note=54, velocity=61, time=33),
    Message('note_on', channel=9, note=70, velocity=61, time=0),
    Message('note_off', channel=9, note=70, velocity=61, time=15),
    Message('note_off', channel=9, note=54, velocity=61, time=0),
    Message('note_on', channel=9, note=54, velocity=61, time=33),
    Message('note_on', channel=9, note=70, velocity=61, time=0),
    Message('note_off', channel=9, note=70, velocity=61, time=15),
    Message('note_off', channel=9, note=54, velocity=61, time=0),
    Message('note_on', channel=9, note=36, velocity=61, time=33),
    Message('note_on', channel=9, note=54, velocity=61, time=0),
    Message('note_on', channel=9, note=70, velocity=61, time=0),
    Message('note_on', channel=9, note=82, velocity=61, time=0),
    Message('note_off', channel=9, note=82, velocity=61, time=15),
    Message('note_off', channel=9, note=70, velocity=61, time=0),
    Message('note_off', channel=9, note=54, velocity=61, time=0),
    Message('note_off', channel=9, note=36, velocity=61, time=0),
    Message('pitchwheel', channel=9, pitch=-266, time=29),
    Message('note_on', channel=9, note=36, velocity=61, time=4),
    Message('note_on', channel=9, note=54, velocity=61, time=0),
    Message('note_on', channel=9, note=70, velocity=61, time=0),
    Message('note_off', channel=9, note=70, velocity=61, time=15),
    Message('note_off', channel=9, note=54, velocity=61, time=0),
    Message('note_off', channel=9, note=36, velocity=61, time=0),
    Message('note_on', channel=9, note=36, velocity=61, time=33),
    Message('note_on', channel=9, note=54, velocity=61, time=0),
    Message('note_on', channel=9, note=70, velocity=61, time=0),
    Message('note_off', channel=9, note=70, velocity=61, time=15),
    Message('note_off', channel=9, note=54, velocity=61, time=0),
    Message('note_off', channel=9, note=36, velocity=61, time=0),
    Message('note_on', channel=9, note=36, velocity=61, time=33),
    Message('note_on', channel=9, note=39, velocity=61, time=0),
    Message('note_on', channel=9, note=54, velocity=61, time=0),
    Message('note_on', channel=9, note=70, velocity=61, time=0),
    Message('note_off', channel=9, note=70, velocity=61, time=15),
    Message('note_off', channel=9, note=54, velocity=61, time=0),
    Message('note_off', channel=9, note=39, velocity=61, time=0),
    Message('note_off', channel=9, note=36, velocity=61, time=0),
    Message('note_on', channel=9, note=44, velocity=61, time=33),
    Message('note_on', channel=9, note=54, velocity=61, time=0),
    Message('note_on', channel=9, note=70, velocity=61, time=0),
    Message('note_off', channel=9, note=70, velocity=61, time=15),
    Message('note_off', channel=9, note=54, velocity=61, time=0),
    Message('note_off', channel=9, note=44, velocity=61, time=0),
    Message('note_on', channel=9, note=54, velocity=61, time=33),
    Message('note_on', channel=9, note=70, velocity=61, time=0),
    Message('note_off', channel=9, note=70, velocity=61, time=15),
    Message('note_off', channel=9, note=54, velocity=61, time=0),
    Message('note_on', channel=9, note=36, velocity=61, time=33),
    Message('note_on', channel=9, note=39, velocity=61, time=0),
    Message('note_on', channel=9, note=54, velocity=61, time=0),
    Message('note_on', channel=9, note=70, velocity=61, time=0),
    Message('note_off', channel=9, note=70, velocity=61, time=15),
    Message('note_off', channel=9, note=54, velocity=61, time=0),
    Message('note_off', channel=9, note=39, velocity=61, time=0),
    Message('note_off', channel=9, note=36, velocity=61, time=0),
    Message('note_on', channel=9, note=54, velocity=61, time=33),
    Message('note_on', channel=9, note=70, velocity=61, time=0),
    Message('note_off', channel=9, note=70, velocity=61, time=15),
    Message('note_off', channel=9, note=54, velocity=61, time=0),
    Message('note_on', channel=9, note=36, velocity=61, time=33),
    Message('note_on', channel=9, note=54, velocity=61, time=0),
    Message('note_on', channel=9, note=82, velocity=61, time=0),
    Message('note_off', channel=9, note=82, velocity=61, time=15),
    Message('note_off', channel=9, note=54, velocity=61, time=0),
    Message('note_off', channel=9, note=36, velocity=61, time=0),
    Message('note_on', channel=9, note=36, velocity=61, time=33),
    Message('note_on', channel=9, note=54, velocity=61, time=0),
    Message('note_on', channel=9, note=70, velocity=61, time=0),
    Message('note_off', channel=9, note=70, velocity=61, time=15),
    Message('note_off', channel=9, note=54, velocity=61, time=0),
    Message('note_off', channel=9, note=36, velocity=61, time=0),
    Message('note_on', channel=9, note=36, velocity=61, time=33),
    Message('note_on', channel=9, note=44, velocity=61, time=0),
    Message('note_on', channel=9, note=54, velocity=61, time=0),
    Message('note_on', channel=9, note=70, velocity=61, time=0),
    Message('note_off', channel=9, note=70, velocity=61, time=15),
    Message('note_off', channel=9, note=54, velocity=61, time=0),
    Message('note_off', channel=9, note=44, velocity=61, time=0),
    Message('note_off', channel=9, note=36, velocity=61, time=0),
    Message('note_on', channel=9, note=36, velocity=61, time=33),
    Message('note_on', channel=9, note=54, velocity=61, time=0),
    Message('note_on', channel=9, note=70, velocity=61, time=0),
    Message('note_off', channel=9, note=70, velocity=61, time=15),
    Message('note_off', channel=9, note=54, velocity=61, time=0),
    Message('note_off', channel=9, note=36, velocity=61, time=0),
    Message('note_on', channel=9, note=44, velocity=61, time=33),
    Message('note_on', channel=9, note=54, velocity=61, time=0),
    Message('note_on', channel=9, note=70, velocity=61, time=0),
    Message('note_on', channel=9, note=83, velocity=61, time=0),
    Message('note_off', channel=9, note=83, velocity=61, time=15),
    Message('note_off', channel=9, note=70, velocity=61, time=0),
    Message('note_off', channel=9, note=54, velocity=61, time=0),
    Message('note_off', channel=9, note=44, velocity=61, time=0),
    Message('note_on', channel=9, note=54, velocity=61, time=33),
    Message('note_on', channel=9, note=70, velocity=61, time=0),
    Message('note_off', channel=9, note=70, velocity=61, time=15),
    Message('note_off', channel=9, note=54, velocity=61, time=0),
    Message('note_on', channel=9, note=54, velocity=61, time=33),
    Message('note_on', channel=9, note=70, velocity=61, time=0),
    Message('note_off', channel=9, note=70, velocity=61, time=15),
    Message('note_off', channel=9, note=54, velocity=61, time=0),
    Message('note_on', channel=9, note=54, velocity=61, time=33),
    Message('note_on', channel=9, note=70, velocity=61, time=0),
    Message('note_off', channel=9, note=70, velocity=61, time=15),
    Message('note_off', channel=9, note=54, velocity=61, time=0),
    Message('note_on', channel=9, note=36, velocity=61, time=33),
    Message('note_on', channel=9, note=54, velocity=61, time=0),
    Message('note_on', channel=9, note=70, velocity=61, time=0),
    Message('note_on', channel=9, note=82, velocity=61, time=0),
    Message('note_off', channel=9, note=82, velocity=61, time=15),
    Message('note_off', channel=9, note=70, velocity=61, time=0),
    Message('note_off', channel=9, note=54, velocity=61, time=0),
    Message('note_off', channel=9, note=36, velocity=61, time=0),
    Message('pitchwheel', channel=9, pitch=-266, time=29),
    Message('note_on', channel=9, note=36, velocity=61, time=4),
    Message('note_on', channel=9, note=54, velocity=61, time=0),
    Message('note_on', channel=9, note=70, velocity=61, time=0),
    Message('note_off', channel=9, note=70, velocity=61, time=15),
    Message('note_off', channel=9, note=54, velocity=61, time=0),
    Message('note_off', channel=9, note=36, velocity=61, time=0),
    Message('note_on', channel=9, note=36, velocity=61, time=33),
    Message('note_on', channel=9, note=54, velocity=61, time=0),
    Message('note_on', channel=9, note=70, velocity=61, time=0),
    Message('note_off', channel=9, note=70, velocity=61, time=15),
    Message('note_off', channel=9, note=54, velocity=61, time=0),
    Message('note_off', channel=9, note=36, velocity=61, time=0),
    Message('note_on', channel=9, note=36, velocity=61, time=33),
    Message('note_on', channel=9, note=39, velocity=61, time=0),
    Message('note_on', channel=9, note=54, velocity=61, time=0),
    Message('note_on', channel=9, note=70, velocity=61, time=0),
    Message('note_off', channel=9, note=70, velocity=61, time=15),
    Message('note_off', channel=9, note=54, velocity=61, time=0),
    Message('note_off', channel=9, note=39, velocity=61, time=0),
    Message('note_off', channel=9, note=36, velocity=61, time=0),
    Message('note_on', channel=9, note=44, velocity=61, time=33),
    Message('note_on', channel=9, note=54, velocity=61, time=0),
    Message('note_on', channel=9, note=70, velocity=61, time=0),
    Message('note_off', channel=9, note=70, velocity=61, time=15),
    Message('note_off', channel=9, note=54, velocity=61, time=0),
    Message('note_off', channel=9, note=44, velocity=61, time=0),
    Message('note_on', channel=9, note=54, velocity=61, time=33),
    Message('note_on', channel=9, note=70, velocity=61, time=0),
    Message('note_off', channel=9, note=70, velocity=61, time=15),
    Message('note_off', channel=9, note=54, velocity=61, time=0),
    Message('note_on', channel=9, note=36, velocity=61, time=33),
    Message('note_on', channel=9, note=39, velocity=61, time=0),
    Message('note_on', channel=9, note=54, velocity=61, time=0),
    Message('note_on', channel=9, note=70, velocity=61, time=0),
    Message('note_off', channel=9, note=70, velocity=61, time=15),
    Message('note_off', channel=9, note=54, velocity=61, time=0),
    Message('note_off', channel=9, note=39, velocity=61, time=0),
    Message('note_off', channel=9, note=36, velocity=61, time=0),
    Message('note_on', channel=9, note=54, velocity=61, time=33),
    Message('note_on', channel=9, note=70, velocity=61, time=0),
    Message('note_off', channel=9, note=70, velocity=61, time=15),
    Message('note_off', channel=9, note=54, velocity=61, time=0),
    Message('note_on', channel=9, note=36, velocity=61, time=33),
    Message('note_on', channel=9, note=54, velocity=61, time=0),
    Message('note_on', channel=9, note=82, velocity=61, time=0),
    Message('note_off', channel=9, note=82, velocity=61, time=15),
    Message('note_off', channel=9, note=54, velocity=61, time=0),
    Message('note_off', channel=9, note=36, velocity=61, time=0),
    Message('note_on', channel=9, note=36, velocity=61, time=33),
    Message('note_on', channel=9, note=54, velocity=61, time=0),
    Message('note_on', channel=9, note=70, velocity=61, time=0),
    Message('note_off', channel=9, note=70, velocity=61, time=15),
    Message('note_off', channel=9, note=54, velocity=61, time=0),
    Message('note_off', channel=9, note=36, velocity=61, time=0),
    Message('note_on', channel=9, note=36, velocity=61, time=33),
    Message('note_on', channel=9, note=44, velocity=61, time=0),
    Message('note_on', channel=9, note=54, velocity=61, time=0),
    Message('note_on', channel=9, note=70, velocity=61, time=0),
    Message('note_off', channel=9, note=70, velocity=61, time=15),
    Message('note_off', channel=9, note=54, velocity=61, time=0),
    Message('note_off', channel=9, note=44, velocity=61, time=0),
    Message('note_off', channel=9, note=36, velocity=61, time=0),
    Message('note_on', channel=9, note=36, velocity=61, time=33),
    Message('note_on', channel=9, note=54, velocity=61, time=0),
    Message('note_on', channel=9, note=70, velocity=61, time=0),
    Message('note_off', channel=9, note=70, velocity=61, time=15),
    Message('note_off', channel=9, note=54, velocity=61, time=0),
    Message('note_off', channel=9, note=36, velocity=61, time=0),
    Message('note_on', channel=9, note=44, velocity=61, time=33),
    Message('note_on', channel=9, note=54, velocity=61, time=0),
    Message('note_on', channel=9, note=70, velocity=61, time=0),
    Message('note_on', channel=9, note=83, velocity=61, time=0),
    Message('note_off', channel=9, note=83, velocity=61, time=15),
    Message('note_off', channel=9, note=70, velocity=61, time=0),
    Message('note_off', channel=9, note=54, velocity=61, time=0),
    Message('note_off', channel=9, note=44, velocity=61, time=0),
    Message('note_on', channel=9, note=54, velocity=61, time=33),
    Message('note_on', channel=9, note=70, velocity=61, time=0),
    Message('note_off', channel=9, note=70, velocity=61, time=15),
    Message('note_off', channel=9, note=54, velocity=61, time=0),
    Message('note_on', channel=9, note=54, velocity=61, time=33),
    Message('note_on', channel=9, note=70, velocity=61, time=0),
    Message('note_off', channel=9, note=70, velocity=61, time=15),
    Message('note_off', channel=9, note=54, velocity=61, time=0),
    Message('note_on', channel=9, note=54, velocity=61, time=33),
    Message('note_on', channel=9, note=70, velocity=61, time=0),
    Message('note_off', channel=9, note=70, velocity=61, time=15),
    Message('note_off', channel=9, note=54, velocity=61, time=0),
    Message('note_on', channel=9, note=36, velocity=61, time=33),
    Message('note_on', channel=9, note=54, velocity=61, time=0),
    Message('note_on', channel=9, note=70, velocity=61, time=0),
    Message('note_on', channel=9, note=82, velocity=61, time=0),
    Message('note_off', channel=9, note=82, velocity=61, time=15),
    Message('note_off', channel=9, note=70, velocity=61, time=0),
    Message('note_off', channel=9, note=54, velocity=61, time=0),
    Message('note_off', channel=9, note=36, velocity=61, time=0),
    Message('pitchwheel', channel=9, pitch=-266, time=29),
    Message('note_on', channel=9, note=36, velocity=61, time=4),
    Message('note_on', channel=9, note=54, velocity=61, time=0),
    Message('note_on', channel=9, note=70, velocity=61, time=0),
    Message('note_off', channel=9, note=70, velocity=61, time=15),
    Message('note_off', channel=9, note=54, velocity=61, time=0),
    Message('note_off', channel=9, note=36, velocity=61, time=0),
    Message('note_on', channel=9, note=36, velocity=61, time=33),
    Message('note_on', channel=9, note=54, velocity=61, time=0),
    Message('note_on', channel=9, note=70, velocity=61, time=0),
    Message('note_off', channel=9, note=70, velocity=61, time=15),
    Message('note_off', channel=9, note=54, velocity=61, time=0),
    Message('note_off', channel=9, note=36, velocity=61, time=0),
    Message('note_on', channel=9, note=36, velocity=61, time=33),
    Message('note_on', channel=9, note=39, velocity=61, time=0),
    Message('note_on', channel=9, note=54, velocity=61, time=0),
    Message('note_on', channel=9, note=70, velocity=61, time=0),
    Message('note_off', channel=9, note=70, velocity=61, time=15),
    Message('note_off', channel=9, note=54, velocity=61, time=0),
    Message('note_off', channel=9, note=39, velocity=61, time=0),
    Message('note_off', channel=9, note=36, velocity=61, time=0),
    Message('note_on', channel=9, note=44, velocity=61, time=33),
    Message('note_on', channel=9, note=54, velocity=61, time=0),
    Message('note_on', channel=9, note=70, velocity=61, time=0),
    Message('note_off', channel=9, note=70, velocity=61, time=15),
    Message('note_off', channel=9, note=54, velocity=61, time=0),
    Message('note_off', channel=9, note=44, velocity=61, time=0),
    Message('note_on', channel=9, note=54, velocity=61, time=33),
    Message('note_on', channel=9, note=70, velocity=61, time=0),
    Message('note_off', channel=9, note=70, velocity=61, time=15),
    Message('note_off', channel=9, note=54, velocity=61, time=0),
    Message('note_on', channel=9, note=36, velocity=61, time=33),
    Message('note_on', channel=9, note=39, velocity=61, time=0),
    Message('note_on', channel=9, note=54, velocity=61, time=0),
    Message('note_on', channel=9, note=70, velocity=61, time=0),
    Message('note_off', channel=9, note=70, velocity=61, time=15),
    Message('note_off', channel=9, note=54, velocity=61, time=0),
    Message('note_off', channel=9, note=39, velocity=61, time=0),
    Message('note_off', channel=9, note=36, velocity=61, time=0),
    Message('note_on', channel=9, note=54, velocity=61, time=33),
    Message('note_on', channel=9, note=70, velocity=61, time=0),
    Message('note_off', channel=9, note=70, velocity=61, time=15),
    Message('note_off', channel=9, note=54, velocity=61, time=0),
    Message('note_on', channel=9, note=36, velocity=61, time=33),
    Message('note_on', channel=9, note=54, velocity=61, time=0),
    Message('note_on', channel=9, note=82, velocity=61, time=0),
    Message('note_off', channel=9, note=82, velocity=61, time=15),
    Message('note_off', channel=9, note=54, velocity=61, time=0),
    Message('note_off', channel=9, note=36, velocity=61, time=0),
    Message('note_on', channel=9, note=36, velocity=61, time=33),
    Message('note_on', channel=9, note=54, velocity=61, time=0),
    Message('note_on', channel=9, note=70, velocity=61, time=0),
    Message('note_off', channel=9, note=70, velocity=61, time=15),
    Message('note_off', channel=9, note=54, velocity=61, time=0),
    Message('note_off', channel=9, note=36, velocity=61, time=0),
    Message('note_on', channel=9, note=36, velocity=61, time=33),
    Message('note_on', channel=9, note=44, velocity=61, time=0),
    Message('note_on', channel=9, note=54, velocity=61, time=0),
    Message('note_on', channel=9, note=70, velocity=61, time=0),
    Message('note_off', channel=9, note=70, velocity=61, time=15),
    Message('note_off', channel=9, note=54, velocity=61, time=0),
    Message('note_off', channel=9, note=44, velocity=61, time=0),
    Message('note_off', channel=9, note=36, velocity=61, time=0),
    Message('note_on', channel=9, note=36, velocity=61, time=33),
    Message('note_on', channel=9, note=54, velocity=61, time=0),
    Message('note_on', channel=9, note=70, velocity=61, time=0),
    Message('note_off', channel=9, note=70, velocity=61, time=15),
    Message('note_off', channel=9, note=54, velocity=61, time=0),
    Message('note_off', channel=9, note=36, velocity=61, time=0),
    Message('note_on', channel=9, note=44, velocity=61, time=33),
    Message('note_on', channel=9, note=54, velocity=61, time=0),
    Message('note_on', channel=9, note=70, velocity=61, time=0),
    Message('note_on', channel=9, note=83, velocity=61, time=0),
    Message('note_off', channel=9, note=83, velocity=61, time=15),
    Message('note_off', channel=9, note=70, velocity=61, time=0),
    Message('note_off', channel=9, note=54, velocity=61, time=0),
    Message('note_off', channel=9, note=44, velocity=61, time=0),
    Message('note_on', channel=9, note=54, velocity=61, time=33),
    Message('note_on', channel=9, note=70, velocity=61, time=0),
    Message('note_off', channel=9, note=70, velocity=61, time=15),
    Message('note_off', channel=9, note=54, velocity=61, time=0),
    Message('note_on', channel=9, note=54, velocity=61, time=33),
    Message('note_on', channel=9, note=70, velocity=61, time=0),
    Message('note_off', channel=9, note=70, velocity=61, time=15),
    Message('note_off', channel=9, note=54, velocity=61, time=0),
    Message('note_on', channel=9, note=54, velocity=61, time=33),
    Message('note_on', channel=9, note=70, velocity=61, time=0),
    Message('note_off', channel=9, note=70, velocity=61, time=15),
    Message('note_off', channel=9, note=54, velocity=61, time=0),
    Message('note_on', channel=9, note=36, velocity=61, time=33),
    Message('note_on', channel=9, note=54, velocity=61, time=0),
    Message('note_on', channel=9, note=70, velocity=61, time=0),
    Message('note_on', channel=9, note=82, velocity=61, time=0),
    Message('note_off', channel=9, note=82, velocity=61, time=15),
    Message('note_off', channel=9, note=70, velocity=61, time=0),
    Message('note_off', channel=9, note=54, velocity=61, time=0),
    Message('note_off', channel=9, note=36, velocity=61, time=0),
    Message('pitchwheel', channel=9, pitch=-266, time=29),
    Message('note_on', channel=9, note=36, velocity=61, time=4),
    Message('note_on', channel=9, note=54, velocity=61, time=0),
    Message('note_on', channel=9, note=70, velocity=61, time=0),
    Message('note_off', channel=9, note=70, velocity=61, time=15),
    Message('note_off', channel=9, note=54, velocity=61, time=0),
    Message('note_off', channel=9, note=36, velocity=61, time=0),
    Message('note_on', channel=9, note=36, velocity=61, time=33),
    Message('note_on', channel=9, note=54, velocity=61, time=0),
    Message('note_on', channel=9, note=70, velocity=61, time=0),
    Message('note_off', channel=9, note=70, velocity=61, time=15),
    Message('note_off', channel=9, note=54, velocity=61, time=0),
    Message('note_off', channel=9, note=36, velocity=61, time=0),
    Message('note_on', channel=9, note=36, velocity=61, time=33),
    Message('note_on', channel=9, note=39, velocity=61, time=0),
    Message('note_on', channel=9, note=54, velocity=61, time=0),
    Message('note_on', channel=9, note=70, velocity=61, time=0),
    Message('note_off', channel=9, note=70, velocity=61, time=15),
    Message('note_off', channel=9, note=54, velocity=61, time=0),
    Message('note_off', channel=9, note=39, velocity=61, time=0),
    Message('note_off', channel=9, note=36, velocity=61, time=0),
    Message('note_on', channel=9, note=44, velocity=61, time=33),
    Message('note_on', channel=9, note=54, velocity=61, time=0),
    Message('note_on', channel=9, note=70, velocity=61, time=0),
    Message('note_off', channel=9, note=70, velocity=61, time=15),
    Message('note_off', channel=9, note=54, velocity=61, time=0),
    Message('note_off', channel=9, note=44, velocity=61, time=0),
    Message('note_on', channel=9, note=54, velocity=61, time=33),
    Message('note_on', channel=9, note=70, velocity=61, time=0),
    Message('note_off', channel=9, note=70, velocity=61, time=15),
    Message('note_off', channel=9, note=54, velocity=61, time=0),
    Message('note_on', channel=9, note=36, velocity=61, time=33),
    Message('note_on', channel=9, note=39, velocity=61, time=0),
    Message('note_on', channel=9, note=54, velocity=61, time=0),
    Message('note_on', channel=9, note=70, velocity=61, time=0),
    Message('note_off', channel=9, note=70, velocity=61, time=15),
    Message('note_off', channel=9, note=54, velocity=61, time=0),
    Message('note_off', channel=9, note=39, velocity=61, time=0),
    Message('note_off', channel=9, note=36, velocity=61, time=0),
    Message('note_on', channel=9, note=54, velocity=61, time=33),
    Message('note_on', channel=9, note=70, velocity=61, time=0),
    Message('note_off', channel=9, note=70, velocity=61, time=15),
    Message('note_off', channel=9, note=54, velocity=61, time=0),
    Message('note_on', channel=9, note=36, velocity=61, time=33),
    Message('note_on', channel=9, note=54, velocity=61, time=0),
    Message('note_on', channel=9, note=82, velocity=61, time=0),
    Message('note_off', channel=9, note=82, velocity=61, time=15),
    Message('note_off', channel=9, note=54, velocity=61, time=0),
    Message('note_off', channel=9, note=36, velocity=61, time=0),
    Message('note_on', channel=9, note=36, velocity=61, time=33),
    Message('note_on', channel=9, note=54, velocity=61, time=0),
    Message('note_on', channel=9, note=70, velocity=61, time=0),
    Message('note_off', channel=9, note=70, velocity=61, time=15),
    Message('note_off', channel=9, note=54, velocity=61, time=0),
    Message('note_off', channel=9, note=36, velocity=61, time=0),
    Message('note_on', channel=9, note=36, velocity=61, time=33),
    Message('note_on', channel=9, note=44, velocity=61, time=0),
    Message('note_on', channel=9, note=54, velocity=61, time=0),
    Message('note_on', channel=9, note=70, velocity=61, time=0),
    Message('note_off', channel=9, note=70, velocity=61, time=15),
    Message('note_off', channel=9, note=54, velocity=61, time=0),
    Message('note_off', channel=9, note=44, velocity=61, time=0),
    Message('note_off', channel=9, note=36, velocity=61, time=0),
    Message('note_on', channel=9, note=36, velocity=61, time=33),
    Message('note_on', channel=9, note=54, velocity=61, time=0),
    Message('note_on', channel=9, note=70, velocity=61, time=0),
    Message('note_off', channel=9, note=70, velocity=61, time=15),
    Message('note_off', channel=9, note=54, velocity=61, time=0),
    Message('note_off', channel=9, note=36, velocity=61, time=0),
    Message('note_on', channel=9, note=44, velocity=61, time=33),
    Message('note_on', channel=9, note=54, velocity=61, time=0),
    Message('note_on', channel=9, note=70, velocity=61, time=0),
    Message('note_on', channel=9, note=83, velocity=61, time=0),
    Message('note_off', channel=9, note=83, velocity=61, time=15),
    Message('note_off', channel=9, note=70, velocity=61, time=0),
    Message('note_off', channel=9, note=54, velocity=61, time=0),
    Message('note_off', channel=9, note=44, velocity=61, time=0),
    Message('note_on', channel=9, note=54, velocity=61, time=33),
    Message('note_on', channel=9, note=70, velocity=61, time=0),
    Message('note_off', channel=9, note=70, velocity=61, time=15),
    Message('note_off', channel=9, note=54, velocity=61, time=0),
    Message('note_on', channel=9, note=54, velocity=61, time=33),
    Message('note_on', channel=9, note=70, velocity=61, time=0),
    Message('note_off', channel=9, note=70, velocity=61, time=15),
    Message('note_off', channel=9, note=54, velocity=61, time=0),
    Message('note_on', channel=9, note=54, velocity=61, time=33),
    Message('note_on', channel=9, note=70, velocity=61, time=0),
    Message('note_off', channel=9, note=70, velocity=61, time=15),
    Message('note_off', channel=9, note=54, velocity=61, time=0),
    Message('note_on', channel=9, note=36, velocity=61, time=33),
    Message('note_on', channel=9, note=54, velocity=61, time=0),
    Message('note_on', channel=9, note=70, velocity=61, time=0),
    Message('note_on', channel=9, note=82, velocity=61, time=0),
    Message('note_off', channel=9, note=82, velocity=61, time=15),
    Message('note_off', channel=9, note=70, velocity=61, time=0),
    Message('note_off', channel=9, note=54, velocity=61, time=0),
    Message('note_off', channel=9, note=36, velocity=61, time=0),
    Message('pitchwheel', channel=9, pitch=-266, time=29),
    Message('note_on', channel=9, note=36, velocity=61, time=4),
    Message('note_on', channel=9, note=54, velocity=61, time=0),
    Message('note_on', channel=9, note=70, velocity=61, time=0),
    Message('note_off', channel=9, note=70, velocity=61, time=15),
    Message('note_off', channel=9, note=54, velocity=61, time=0),
    Message('note_off', channel=9, note=36, velocity=61, time=0),
    Message('note_on', channel=9, note=36, velocity=61, time=33),
    Message('note_on', channel=9, note=54, velocity=61, time=0),
    Message('note_on', channel=9, note=70, velocity=61, time=0),
    Message('note_off', channel=9, note=70, velocity=61, time=15),
    Message('note_off', channel=9, note=54, velocity=61, time=0),
    Message('note_off', channel=9, note=36, velocity=61, time=0),
    Message('note_on', channel=9, note=36, velocity=61, time=33),
    Message('note_on', channel=9, note=39, velocity=61, time=0),
    Message('note_on', channel=9, note=54, velocity=61, time=0),
    Message('note_on', channel=9, note=70, velocity=61, time=0),
    Message('note_off', channel=9, note=70, velocity=61, time=15),
    Message('note_off', channel=9, note=54, velocity=61, time=0),
    Message('note_off', channel=9, note=39, velocity=61, time=0),
    Message('note_off', channel=9, note=36, velocity=61, time=0),
    Message('note_on', channel=9, note=44, velocity=61, time=33),
    Message('note_on', channel=9, note=54, velocity=61, time=0),
    Message('note_on', channel=9, note=70, velocity=61, time=0),
    Message('note_off', channel=9, note=70, velocity=61, time=15),
    Message('note_off', channel=9, note=54, velocity=61, time=0),
    Message('note_off', channel=9, note=44, velocity=61, time=0),
    Message('note_on', channel=9, note=54, velocity=61, time=33),
    Message('note_on', channel=9, note=70, velocity=61, time=0),
    Message('note_off', channel=9, note=70, velocity=61, time=15),
    Message('note_off', channel=9, note=54, velocity=61, time=0),
    Message('note_on', channel=9, note=36, velocity=61, time=33),
    Message('note_on', channel=9, note=39, velocity=61, time=0),
    Message('note_on', channel=9, note=54, velocity=61, time=0),
    Message('note_on', channel=9, note=70, velocity=61, time=0),
    Message('note_off', channel=9, note=70, velocity=61, time=15),
    Message('note_off', channel=9, note=54, velocity=61, time=0),
    Message('note_off', channel=9, note=39, velocity=61, time=0),
    Message('note_off', channel=9, note=36, velocity=61, time=0),
    Message('note_on', channel=9, note=54, velocity=61, time=33),
    Message('note_on', channel=9, note=70, velocity=61, time=0),
    Message('note_off', channel=9, note=70, velocity=61, time=15),
    Message('note_off', channel=9, note=54, velocity=61, time=0),
    Message('note_on', channel=9, note=36, velocity=61, time=33),
    Message('note_on', channel=9, note=54, velocity=61, time=0),
    Message('note_on', channel=9, note=82, velocity=61, time=0),
    Message('note_off', channel=9, note=82, velocity=61, time=15),
    Message('note_off', channel=9, note=54, velocity=61, time=0),
    Message('note_off', channel=9, note=36, velocity=61, time=0),
    Message('note_on', channel=9, note=36, velocity=61, time=33),
    Message('note_on', channel=9, note=54, velocity=61, time=0),
    Message('note_on', channel=9, note=70, velocity=61, time=0),
    Message('note_off', channel=9, note=70, velocity=61, time=15),
    Message('note_off', channel=9, note=54, velocity=61, time=0),
    Message('note_off', channel=9, note=36, velocity=61, time=0),
    Message('note_on', channel=9, note=36, velocity=61, time=33),
    Message('note_on', channel=9, note=44, velocity=61, time=0),
    Message('note_on', channel=9, note=54, velocity=61, time=0),
    Message('note_on', channel=9, note=70, velocity=61, time=0),
    Message('note_off', channel=9, note=70, velocity=61, time=15),
    Message('note_off', channel=9, note=54, velocity=61, time=0),
    Message('note_off', channel=9, note=44, velocity=61, time=0),
    Message('note_off', channel=9, note=36, velocity=61, time=0),
    Message('note_on', channel=9, note=36, velocity=61, time=33),
    Message('note_on', channel=9, note=54, velocity=61, time=0),
    Message('note_on', channel=9, note=70, velocity=61, time=0),
    Message('note_off', channel=9, note=70, velocity=61, time=15),
    Message('note_off', channel=9, note=54, velocity=61, time=0),
    Message('note_off', channel=9, note=36, velocity=61, time=0),
    Message('note_on', channel=9, note=44, velocity=61, time=33),
    Message('note_on', channel=9, note=54, velocity=61, time=0),
    Message('note_on', channel=9, note=70, velocity=61, time=0),
    Message('note_on', channel=9, note=83, velocity=61, time=0),
    Message('note_off', channel=9, note=83, velocity=61, time=15),
    Message('note_off', channel=9, note=70, velocity=61, time=0),
    Message('note_off', channel=9, note=54, velocity=61, time=0),
    Message('note_off', channel=9, note=44, velocity=61, time=0),
    Message('note_on', channel=9, note=54, velocity=61, time=33),
    Message('note_on', channel=9, note=70, velocity=61, time=0),
    Message('note_off', channel=9, note=70, velocity=61, time=15),
    Message('note_off', channel=9, note=54, velocity=61, time=0),
    Message('note_on', channel=9, note=54, velocity=61, time=33),
    Message('note_on', channel=9, note=70, velocity=61, time=0),
    Message('note_off', channel=9, note=70, velocity=61, time=15),
    Message('note_off', channel=9, note=54, velocity=61, time=0),
    Message('note_on', channel=9, note=54, velocity=61, time=33),
    Message('note_on', channel=9, note=70, velocity=61, time=0),
    Message('note_off', channel=9, note=70, velocity=61, time=15),
    Message('note_off', channel=9, note=54, velocity=61, time=0),
    Message('note_on', channel=9, note=36, velocity=61, time=33),
    Message('note_on', channel=9, note=54, velocity=61, time=0),
    Message('note_on', channel=9, note=70, velocity=61, time=0),
    Message('note_on', channel=9, note=82, velocity=61, time=0),
    Message('note_off', channel=9, note=82, velocity=61, time=15),
    Message('note_off', channel=9, note=70, velocity=61, time=0),
    Message('note_off', channel=9, note=54, velocity=61, time=0),
    Message('note_off', channel=9, note=36, velocity=61, time=0),
    Message('pitchwheel', channel=9, pitch=-266, time=29),
    Message('note_on', channel=9, note=36, velocity=61, time=4),
    Message('note_on', channel=9, note=54, velocity=61, time=0),
    Message('note_on', channel=9, note=70, velocity=61, time=0),
    Message('note_off', channel=9, note=70, velocity=61, time=15),
    Message('note_off', channel=9, note=54, velocity=61, time=0),
    Message('note_off', channel=9, note=36, velocity=61, time=0),
    Message('note_on', channel=9, note=36, velocity=61, time=33),
    Message('note_on', channel=9, note=54, velocity=61, time=0),
    Message('note_on', channel=9, note=70, velocity=61, time=0),
    Message('note_off', channel=9, note=70, velocity=61, time=15),
    Message('note_off', channel=9, note=54, velocity=61, time=0),
    Message('note_off', channel=9, note=36, velocity=61, time=0),
    Message('note_on', channel=9, note=36, velocity=61, time=33),
    Message('note_on', channel=9, note=39, velocity=61, time=0),
    Message('note_on', channel=9, note=54, velocity=61, time=0),
    Message('note_on', channel=9, note=70, velocity=61, time=0),
    Message('note_off', channel=9, note=70, velocity=61, time=15),
    Message('note_off', channel=9, note=54, velocity=61, time=0),
    Message('note_off', channel=9, note=39, velocity=61, time=0),
    Message('note_off', channel=9, note=36, velocity=61, time=0),
    Message('note_on', channel=9, note=44, velocity=61, time=33),
    Message('note_on', channel=9, note=54, velocity=61, time=0),
    Message('note_on', channel=9, note=70, velocity=61, time=0),
    Message('note_off', channel=9, note=70, velocity=61, time=15),
    Message('note_off', channel=9, note=54, velocity=61, time=0),
    Message('note_off', channel=9, note=44, velocity=61, time=0),
    Message('note_on', channel=9, note=54, velocity=61, time=33),
    Message('note_on', channel=9, note=70, velocity=61, time=0),
    Message('note_off', channel=9, note=70, velocity=61, time=15),
    Message('note_off', channel=9, note=54, velocity=61, time=0),
    Message('note_on', channel=9, note=36, velocity=61, time=33),
    Message('note_on', channel=9, note=39, velocity=61, time=0),
    Message('note_on', channel=9, note=54, velocity=61, time=0),
    Message('note_on', channel=9, note=70, velocity=61, time=0),
    Message('note_off', channel=9, note=70, velocity=61, time=15),
    Message('note_off', channel=9, note=54, velocity=61, time=0),
    Message('note_off', channel=9, note=39, velocity=61, time=0),
    Message('note_off', channel=9, note=36, velocity=61, time=0),
    Message('note_on', channel=9, note=54, velocity=61, time=33),
    Message('note_on', channel=9, note=70, velocity=61, time=0),
    Message('note_off', channel=9, note=70, velocity=61, time=15),
    Message('note_off', channel=9, note=54, velocity=61, time=0),
    Message('note_on', channel=9, note=36, velocity=61, time=33),
    Message('note_on', channel=9, note=54, velocity=61, time=0),
    Message('note_on', channel=9, note=82, velocity=61, time=0),
    Message('note_off', channel=9, note=82, velocity=61, time=15),
    Message('note_off', channel=9, note=54, velocity=61, time=0),
    Message('note_off', channel=9, note=36, velocity=61, time=0),
    Message('note_on', channel=9, note=36, velocity=61, time=33),
    Message('note_on', channel=9, note=54, velocity=61, time=0),
    Message('note_on', channel=9, note=70, velocity=61, time=0),
    Message('note_off', channel=9, note=70, velocity=61, time=15),
    Message('note_off', channel=9, note=54, velocity=61, time=0),
    Message('note_off', channel=9, note=36, velocity=61, time=0),
    Message('note_on', channel=9, note=36, velocity=61, time=33),
    Message('note_on', channel=9, note=44, velocity=61, time=0),
    Message('note_on', channel=9, note=54, velocity=61, time=0),
    Message('note_on', channel=9, note=70, velocity=61, time=0),
    Message('note_off', channel=9, note=70, velocity=61, time=15),
    Message('note_off', channel=9, note=54, velocity=61, time=0),
    Message('note_off', channel=9, note=44, velocity=61, time=0),
    Message('note_off', channel=9, note=36, velocity=61, time=0),
    Message('note_on', channel=9, note=36, velocity=61, time=33),
    Message('note_on', channel=9, note=54, velocity=61, time=0),
    Message('note_on', channel=9, note=70, velocity=61, time=0),
    Message('note_off', channel=9, note=70, velocity=61, time=15),
    Message('note_off', channel=9, note=54, velocity=61, time=0),
    Message('note_off', channel=9, note=36, velocity=61, time=0),
    Message('note_on', channel=9, note=44, velocity=61, time=33),
    Message('note_on', channel=9, note=54, velocity=61, time=0),
    Message('note_on', channel=9, note=70, velocity=61, time=0),
    Message('note_on', channel=9, note=83, velocity=61, time=0),
    Message('note_off', channel=9, note=83, velocity=61, time=15),
    Message('note_off', channel=9, note=70, velocity=61, time=0),
    Message('note_off', channel=9, note=54, velocity=61, time=0),
    Message('note_off', channel=9, note=44, velocity=61, time=0),
    Message('note_on', channel=9, note=54, velocity=61, time=33),
    Message('note_on', channel=9, note=70, velocity=61, time=0),
    Message('note_off', channel=9, note=70, velocity=61, time=15),
    Message('note_off', channel=9, note=54, velocity=61, time=0),
    Message('note_on', channel=9, note=54, velocity=61, time=33),
    Message('note_on', channel=9, note=70, velocity=61, time=0),
    Message('note_off', channel=9, note=70, velocity=61, time=15),
    Message('note_off', channel=9, note=54, velocity=61, time=0),
    Message('note_on', channel=9, note=54, velocity=61, time=33),
    Message('note_on', channel=9, note=70, velocity=61, time=0),
    Message('note_off', channel=9, note=70, velocity=61, time=15),
    Message('note_off', channel=9, note=54, velocity=61, time=0),
    Message('note_on', channel=9, note=36, velocity=61, time=33),
    Message('note_on', channel=9, note=54, velocity=61, time=0),
    Message('note_on', channel=9, note=70, velocity=61, time=0),
    Message('note_on', channel=9, note=82, velocity=61, time=0),
    Message('note_off', channel=9, note=82, velocity=61, time=15),
    Message('note_off', channel=9, note=70, velocity=61, time=0),
    Message('note_off', channel=9, note=54, velocity=61, time=0),
    Message('note_off', channel=9, note=36, velocity=61, time=0),
    Message('pitchwheel', channel=9, pitch=-266, time=29),
    Message('note_on', channel=9, note=36, velocity=61, time=4),
    Message('note_on', channel=9, note=54, velocity=61, time=0),
    Message('note_on', channel=9, note=70, velocity=61, time=0),
    Message('note_off', channel=9, note=70, velocity=61, time=15),
    Message('note_off', channel=9, note=54, velocity=61, time=0),
    Message('note_off', channel=9, note=36, velocity=61, time=0),
    Message('note_on', channel=9, note=36, velocity=61, time=33),
    Message('note_on', channel=9, note=54, velocity=61, time=0),
    Message('note_on', channel=9, note=70, velocity=61, time=0),
    Message('note_off', channel=9, note=70, velocity=61, time=15),
    Message('note_off', channel=9, note=54, velocity=61, time=0),
    Message('note_off', channel=9, note=36, velocity=61, time=0),
    Message('note_on', channel=9, note=36, velocity=61, time=33),
    Message('note_on', channel=9, note=39, velocity=61, time=0),
    Message('note_on', channel=9, note=54, velocity=61, time=0),
    Message('note_on', channel=9, note=70, velocity=61, time=0),
    Message('note_off', channel=9, note=70, velocity=61, time=15),
    Message('note_off', channel=9, note=54, velocity=61, time=0),
    Message('note_off', channel=9, note=39, velocity=61, time=0),
    Message('note_off', channel=9, note=36, velocity=61, time=0),
    Message('note_on', channel=9, note=44, velocity=61, time=33),
    Message('note_on', channel=9, note=54, velocity=61, time=0),
    Message('note_on', channel=9, note=70, velocity=61, time=0),
    Message('note_off', channel=9, note=70, velocity=61, time=15),
    Message('note_off', channel=9, note=54, velocity=61, time=0),
    Message('note_off', channel=9, note=44, velocity=61, time=0),
    Message('note_on', channel=9, note=54, velocity=61, time=33),
    Message('note_on', channel=9, note=70, velocity=61, time=0),
    Message('note_off', channel=9, note=70, velocity=61, time=15),
    Message('note_off', channel=9, note=54, velocity=61, time=0),
    Message('note_on', channel=9, note=36, velocity=61, time=33),
    Message('note_on', channel=9, note=39, velocity=61, time=0),
    Message('note_on', channel=9, note=54, velocity=61, time=0),
    Message('note_on', channel=9, note=70, velocity=61, time=0),
    Message('note_off', channel=9, note=70, velocity=61, time=15),
    Message('note_off', channel=9, note=54, velocity=61, time=0),
    Message('note_off', channel=9, note=39, velocity=61, time=0),
    Message('note_off', channel=9, note=36, velocity=61, time=0),
    Message('note_on', channel=9, note=54, velocity=61, time=33),
    Message('note_on', channel=9, note=70, velocity=61, time=0),
    Message('note_off', channel=9, note=70, velocity=61, time=15),
    Message('note_off', channel=9, note=54, velocity=61, time=0),
    Message('note_on', channel=9, note=36, velocity=61, time=33),
    Message('note_on', channel=9, note=54, velocity=61, time=0),
    Message('note_on', channel=9, note=82, velocity=61, time=0),
    Message('note_off', channel=9, note=82, velocity=61, time=15),
    Message('note_off', channel=9, note=54, velocity=61, time=0),
    Message('note_off', channel=9, note=36, velocity=61, time=0),
    Message('note_on', channel=9, note=36, velocity=61, time=33),
    Message('note_on', channel=9, note=54, velocity=61, time=0),
    Message('note_on', channel=9, note=70, velocity=61, time=0),
    Message('note_off', channel=9, note=70, velocity=61, time=15),
    Message('note_off', channel=9, note=54, velocity=61, time=0),
    Message('note_off', channel=9, note=36, velocity=61, time=0),
    Message('note_on', channel=9, note=36, velocity=61, time=33),
    Message('note_on', channel=9, note=44, velocity=61, time=0),
    Message('note_on', channel=9, note=54, velocity=61, time=0),
    Message('note_on', channel=9, note=70, velocity=61, time=0),
    Message('note_off', channel=9, note=70, velocity=61, time=15),
    Message('note_off', channel=9, note=54, velocity=61, time=0),
    Message('note_off', channel=9, note=44, velocity=61, time=0),
    Message('note_off', channel=9, note=36, velocity=61, time=0),
    Message('note_on', channel=9, note=36, velocity=61, time=33),
    Message('note_on', channel=9, note=54, velocity=61, time=0),
    Message('note_on', channel=9, note=70, velocity=61, time=0),
    Message('note_off', channel=9, note=70, velocity=61, time=15),
    Message('note_off', channel=9, note=54, velocity=61, time=0),
    Message('note_off', channel=9, note=36, velocity=61, time=0),
    Message('note_on', channel=9, note=44, velocity=61, time=33),
    Message('note_on', channel=9, note=54, velocity=61, time=0),
    Message('note_on', channel=9, note=70, velocity=61, time=0),
    Message('note_on', channel=9, note=83, velocity=61, time=0),
    Message('note_off', channel=9, note=83, velocity=61, time=15),
    Message('note_off', channel=9, note=70, velocity=61, time=0),
    Message('note_off', channel=9, note=54, velocity=61, time=0),
    Message('note_off', channel=9, note=44, velocity=61, time=0),
    Message('note_on', channel=9, note=54, velocity=61, time=33),
    Message('note_on', channel=9, note=70, velocity=61, time=0),
    Message('note_off', channel=9, note=70, velocity=61, time=15),
    Message('note_off', channel=9, note=54, velocity=61, time=0),
    Message('note_on', channel=9, note=54, velocity=61, time=33),
    Message('note_on', channel=9, note=70, velocity=61, time=0),
    Message('note_off', channel=9, note=70, velocity=61, time=15),
    Message('note_off', channel=9, note=54, velocity=61, time=0),
    Message('note_on', channel=9, note=54, velocity=61, time=33),
    Message('note_on', channel=9, note=70, velocity=61, time=0),
    Message('note_off', channel=9, note=70, velocity=61, time=15),
    Message('note_off', channel=9, note=54, velocity=61, time=0),
    Message('note_on', channel=9, note=36, velocity=61, time=33),
    Message('note_on', channel=9, note=54, velocity=61, time=0),
    Message('note_on', channel=9, note=70, velocity=61, time=0),
    Message('note_on', channel=9, note=82, velocity=61, time=0),
    Message('note_off', channel=9, note=82, velocity=61, time=15),
    Message('note_off', channel=9, note=70, velocity=61, time=0),
    Message('note_off', channel=9, note=54, velocity=61, time=0),
    Message('note_off', channel=9, note=36, velocity=61, time=0),
    Message('pitchwheel', channel=9, pitch=-266, time=29),
    Message('note_on', channel=9, note=36, velocity=61, time=4),
    Message('note_on', channel=9, note=54, velocity=61, time=0),
    Message('note_on', channel=9, note=70, velocity=61, time=0),
    Message('note_off', channel=9, note=70, velocity=61, time=15),
    Message('note_off', channel=9, note=54, velocity=61, time=0),
    Message('note_off', channel=9, note=36, velocity=61, time=0),
    Message('note_on', channel=9, note=36, velocity=61, time=33),
    Message('note_on', channel=9, note=54, velocity=61, time=0),
    Message('note_on', channel=9, note=70, velocity=61, time=0),
    Message('note_off', channel=9, note=70, velocity=61, time=15),
    Message('note_off', channel=9, note=54, velocity=61, time=0),
    Message('note_off', channel=9, note=36, velocity=61, time=0),
    Message('note_on', channel=9, note=36, velocity=61, time=33),
    Message('note_on', channel=9, note=39, velocity=61, time=0),
    Message('note_on', channel=9, note=54, velocity=61, time=0),
    Message('note_on', channel=9, note=70, velocity=61, time=0),
    Message('note_off', channel=9, note=70, velocity=61, time=15),
    Message('note_off', channel=9, note=54, velocity=61, time=0),
    Message('note_off', channel=9, note=39, velocity=61, time=0),
    Message('note_off', channel=9, note=36, velocity=61, time=0),
    Message('note_on', channel=9, note=44, velocity=61, time=33),
    Message('note_on', channel=9, note=54, velocity=61, time=0),
    Message('note_on', channel=9, note=70, velocity=61, time=0),
    Message('note_off', channel=9, note=70, velocity=61, time=15),
    Message('note_off', channel=9, note=54, velocity=61, time=0),
    Message('note_off', channel=9, note=44, velocity=61, time=0),
    Message('note_on', channel=9, note=54, velocity=61, time=33),
    Message('note_on', channel=9, note=70, velocity=61, time=0),
    Message('note_off', channel=9, note=70, velocity=61, time=15),
    Message('note_off', channel=9, note=54, velocity=61, time=0),
    Message('note_on', channel=9, note=36, velocity=61, time=33),
    Message('note_on', channel=9, note=39, velocity=61, time=0),
    Message('note_on', channel=9, note=54, velocity=61, time=0),
    Message('note_on', channel=9, note=70, velocity=61, time=0),
    Message('note_off', channel=9, note=70, velocity=61, time=15),
    Message('note_off', channel=9, note=54, velocity=61, time=0),
    Message('note_off', channel=9, note=39, velocity=61, time=0),
    Message('note_off', channel=9, note=36, velocity=61, time=0),
    Message('note_on', channel=9, note=54, velocity=61, time=33),
    Message('note_on', channel=9, note=70, velocity=61, time=0),
    Message('note_off', channel=9, note=70, velocity=61, time=15),
    Message('note_off', channel=9, note=54, velocity=61, time=0),
    Message('note_on', channel=9, note=36, velocity=61, time=33),
    Message('note_on', channel=9, note=54, velocity=61, time=0),
    Message('note_on', channel=9, note=82, velocity=61, time=0),
    Message('note_off', channel=9, note=82, velocity=61, time=15),
    Message('note_off', channel=9, note=54, velocity=61, time=0),
    Message('note_off', channel=9, note=36, velocity=61, time=0),
    Message('note_on', channel=9, note=36, velocity=61, time=33),
    Message('note_on', channel=9, note=54, velocity=61, time=0),
    Message('note_on', channel=9, note=70, velocity=61, time=0),
    Message('note_off', channel=9, note=70, velocity=61, time=15),
    Message('note_off', channel=9, note=54, velocity=61, time=0),
    Message('note_off', channel=9, note=36, velocity=61, time=0),
    Message('note_on', channel=9, note=36, velocity=61, time=33),
    Message('note_on', channel=9, note=44, velocity=61, time=0),
    Message('note_on', channel=9, note=54, velocity=61, time=0),
    Message('note_on', channel=9, note=70, velocity=61, time=0),
    Message('note_off', channel=9, note=70, velocity=61, time=15),
    Message('note_off', channel=9, note=54, velocity=61, time=0),
    Message('note_off', channel=9, note=44, velocity=61, time=0),
    Message('note_off', channel=9, note=36, velocity=61, time=0),
    Message('note_on', channel=9, note=36, velocity=61, time=33),
    Message('note_on', channel=9, note=54, velocity=61, time=0),
    Message('note_on', channel=9, note=70, velocity=61, time=0),
    Message('note_off', channel=9, note=70, velocity=61, time=15),
    Message('note_off', channel=9, note=54, velocity=61, time=0),
    Message('note_off', channel=9, note=36, velocity=61, time=0),
    Message('note_on', channel=9, note=44, velocity=61, time=33),
    Message('note_on', channel=9, note=54, velocity=61, time=0),
    Message('note_on', channel=9, note=70, velocity=61, time=0),
    Message('note_on', channel=9, note=83, velocity=61, time=0),
    Message('note_off', channel=9, note=83, velocity=61, time=15),
    Message('note_off', channel=9, note=70, velocity=61, time=0),
    Message('note_off', channel=9, note=54, velocity=61, time=0),
    Message('note_off', channel=9, note=44, velocity=61, time=0),
    Message('note_on', channel=9, note=54, velocity=61, time=33),
    Message('note_on', channel=9, note=70, velocity=61, time=0),
    Message('note_off', channel=9, note=70, velocity=61, time=15),
    Message('note_off', channel=9, note=54, velocity=61, time=0),
    Message('note_on', channel=9, note=54, velocity=61, time=33),
    Message('note_on', channel=9, note=70, velocity=61, time=0),
    Message('note_off', channel=9, note=70, velocity=61, time=15),
    Message('note_off', channel=9, note=54, velocity=61, time=0),
    Message('note_on', channel=9, note=54, velocity=61, time=33),
    Message('note_on', channel=9, note=70, velocity=61, time=0),
    Message('note_off', channel=9, note=70, velocity=61, time=15),
    Message('note_off', channel=9, note=54, velocity=61, time=0),
    Message('note_on', channel=9, note=36, velocity=61, time=33),
    Message('note_on', channel=9, note=54, velocity=61, time=0),
    Message('note_on', channel=9, note=70, velocity=61, time=0),
    Message('note_on', channel=9, note=82, velocity=61, time=0),
    Message('note_off', channel=9, note=82, velocity=61, time=15),
    Message('note_off', channel=9, note=70, velocity=61, time=0),
    Message('note_off', channel=9, note=54, velocity=61, time=0),
    Message('note_off', channel=9, note=36, velocity=61, time=0),
    Message('pitchwheel', channel=9, pitch=-266, time=29),
    Message('note_on', channel=9, note=36, velocity=61, time=4),
    Message('note_on', channel=9, note=54, velocity=61, time=0),
    Message('note_on', channel=9, note=70, velocity=61, time=0),
    Message('note_off', channel=9, note=70, velocity=61, time=15),
    Message('note_off', channel=9, note=54, velocity=61, time=0),
    Message('note_off', channel=9, note=36, velocity=61, time=0),
    Message('note_on', channel=9, note=36, velocity=61, time=33),
    Message('note_on', channel=9, note=54, velocity=61, time=0),
    Message('note_on', channel=9, note=70, velocity=61, time=0),
    Message('note_off', channel=9, note=70, velocity=61, time=15),
    Message('note_off', channel=9, note=54, velocity=61, time=0),
    Message('note_off', channel=9, note=36, velocity=61, time=0),
    Message('note_on', channel=9, note=36, velocity=61, time=33),
    Message('note_on', channel=9, note=39, velocity=61, time=0),
    Message('note_on', channel=9, note=54, velocity=61, time=0),
    Message('note_on', channel=9, note=70, velocity=61, time=0),
    Message('note_off', channel=9, note=70, velocity=61, time=15),
    Message('note_off', channel=9, note=54, velocity=61, time=0),
    Message('note_off', channel=9, note=39, velocity=61, time=0),
    Message('note_off', channel=9, note=36, velocity=61, time=0),
    Message('note_on', channel=9, note=44, velocity=61, time=33),
    Message('note_on', channel=9, note=54, velocity=61, time=0),
    Message('note_on', channel=9, note=70, velocity=61, time=0),
    Message('note_off', channel=9, note=70, velocity=61, time=15),
    Message('note_off', channel=9, note=54, velocity=61, time=0),
    Message('note_off', channel=9, note=44, velocity=61, time=0),
    Message('note_on', channel=9, note=54, velocity=61, time=33),
    Message('note_on', channel=9, note=70, velocity=61, time=0),
    Message('note_off', channel=9, note=70, velocity=61, time=15),
    Message('note_off', channel=9, note=54, velocity=61, time=0),
    Message('note_on', channel=9, note=36, velocity=61, time=33),
    Message('note_on', channel=9, note=39, velocity=61, time=0),
    Message('note_on', channel=9, note=54, velocity=61, time=0),
    Message('note_on', channel=9, note=70, velocity=61, time=0),
    Message('note_off', channel=9, note=70, velocity=61, time=15),
    Message('note_off', channel=9, note=54, velocity=61, time=0),
    Message('note_off', channel=9, note=39, velocity=61, time=0),
    Message('note_off', channel=9, note=36, velocity=61, time=0),
    Message('note_on', channel=9, note=54, velocity=61, time=33),
    Message('note_on', channel=9, note=70, velocity=61, time=0),
    Message('note_off', channel=9, note=70, velocity=61, time=15),
    Message('note_off', channel=9, note=54, velocity=61, time=0),
    Message('note_on', channel=9, note=36, velocity=61, time=33),
    Message('note_on', channel=9, note=54, velocity=61, time=0),
    Message('note_on', channel=9, note=82, velocity=61, time=0),
    Message('note_off', channel=9, note=82, velocity=61, time=15),
    Message('note_off', channel=9, note=54, velocity=61, time=0),
    Message('note_off', channel=9, note=36, velocity=61, time=0),
    Message('note_on', channel=9, note=36, velocity=61, time=33),
    Message('note_on', channel=9, note=54, velocity=61, time=0),
    Message('note_on', channel=9, note=70, velocity=61, time=0),
    Message('note_off', channel=9, note=70, velocity=61, time=15),
    Message('note_off', channel=9, note=54, velocity=61, time=0),
    Message('note_off', channel=9, note=36, velocity=61, time=0),
    Message('note_on', channel=9, note=36, velocity=61, time=33),
    Message('note_on', channel=9, note=44, velocity=61, time=0),
    Message('note_on', channel=9, note=54, velocity=61, time=0),
    Message('note_on', channel=9, note=70, velocity=61, time=0),
    Message('note_off', channel=9, note=70, velocity=61, time=15),
    Message('note_off', channel=9, note=54, velocity=61, time=0),
    Message('note_off', channel=9, note=44, velocity=61, time=0),
    Message('note_off', channel=9, note=36, velocity=61, time=0),
    Message('note_on', channel=9, note=36, velocity=61, time=33),
    Message('note_on', channel=9, note=54, velocity=61, time=0),
    Message('note_on', channel=9, note=70, velocity=61, time=0),
    Message('note_off', channel=9, note=70, velocity=61, time=15),
    Message('note_off', channel=9, note=54, velocity=61, time=0),
    Message('note_off', channel=9, note=36, velocity=61, time=0),
    Message('note_on', channel=9, note=44, velocity=61, time=33),
    Message('note_on', channel=9, note=54, velocity=61, time=0),
    Message('note_on', channel=9, note=70, velocity=61, time=0),
    Message('note_on', channel=9, note=83, velocity=61, time=0),
    Message('note_off', channel=9, note=83, velocity=61, time=15),
    Message('note_off', channel=9, note=70, velocity=61, time=0),
    Message('note_off', channel=9, note=54, velocity=61, time=0),
    Message('note_off', channel=9, note=44, velocity=61, time=0),
    Message('note_on', channel=9, note=54, velocity=61, time=33),
    Message('note_on', channel=9, note=70, velocity=61, time=0),
    Message('note_off', channel=9, note=70, velocity=61, time=15),
    Message('note_off', channel=9, note=54, velocity=61, time=0),
    Message('note_on', channel=9, note=54, velocity=61, time=33),
    Message('note_on', channel=9, note=70, velocity=61, time=0),
    Message('note_off', channel=9, note=70, velocity=61, time=15),
    Message('note_off', channel=9, note=54, velocity=61, time=0),
    Message('note_on', channel=9, note=54, velocity=61, time=33),
    Message('note_on', channel=9, note=70, velocity=61, time=0),
    Message('note_off', channel=9, note=70, velocity=61, time=15),
    Message('note_off', channel=9, note=54, velocity=61, time=0),
    Message('note_on', channel=9, note=36, velocity=61, time=33),
    Message('note_on', channel=9, note=54, velocity=61, time=0),
    Message('note_on', channel=9, note=70, velocity=61, time=0),
    Message('note_on', channel=9, note=82, velocity=61, time=0),
    Message('note_off', channel=9, note=82, velocity=61, time=15),
    Message('note_off', channel=9, note=70, velocity=61, time=0),
    Message('note_off', channel=9, note=54, velocity=61, time=0),
    Message('note_off', channel=9, note=36, velocity=61, time=0),
    Message('pitchwheel', channel=9, pitch=-266, time=29),
    Message('note_on', channel=9, note=36, velocity=61, time=4),
    Message('note_on', channel=9, note=54, velocity=61, time=0),
    Message('note_on', channel=9, note=70, velocity=61, time=0),
    Message('note_off', channel=9, note=70, velocity=61, time=15),
    Message('note_off', channel=9, note=54, velocity=61, time=0),
    Message('note_off', channel=9, note=36, velocity=61, time=0),
    Message('note_on', channel=9, note=36, velocity=61, time=33),
    Message('note_on', channel=9, note=54, velocity=61, time=0),
    Message('note_on', channel=9, note=70, velocity=61, time=0),
    Message('note_off', channel=9, note=70, velocity=61, time=15),
    Message('note_off', channel=9, note=54, velocity=61, time=0),
    Message('note_off', channel=9, note=36, velocity=61, time=0),
    Message('note_on', channel=9, note=36, velocity=61, time=33),
    Message('note_on', channel=9, note=39, velocity=61, time=0),
    Message('note_on', channel=9, note=54, velocity=61, time=0),
    Message('note_on', channel=9, note=70, velocity=61, time=0),
    Message('note_off', channel=9, note=70, velocity=61, time=15),
    Message('note_off', channel=9, note=54, velocity=61, time=0),
    Message('note_off', channel=9, note=39, velocity=61, time=0),
    Message('note_off', channel=9, note=36, velocity=61, time=0),
    Message('note_on', channel=9, note=44, velocity=61, time=33),
    Message('note_on', channel=9, note=54, velocity=61, time=0),
    Message('note_on', channel=9, note=70, velocity=61, time=0),
    Message('note_off', channel=9, note=70, velocity=61, time=15),
    Message('note_off', channel=9, note=54, velocity=61, time=0),
    Message('note_off', channel=9, note=44, velocity=61, time=0),
    Message('note_on', channel=9, note=54, velocity=61, time=33),
    Message('note_on', channel=9, note=70, velocity=61, time=0),
    Message('note_off', channel=9, note=70, velocity=61, time=15),
    Message('note_off', channel=9, note=54, velocity=61, time=0),
    Message('note_on', channel=9, note=36, velocity=61, time=33),
    Message('note_on', channel=9, note=39, velocity=61, time=0),
    Message('note_on', channel=9, note=54, velocity=61, time=0),
    Message('note_on', channel=9, note=70, velocity=61, time=0),
    Message('note_off', channel=9, note=70, velocity=61, time=15),
    Message('note_off', channel=9, note=54, velocity=61, time=0),
    Message('note_off', channel=9, note=39, velocity=61, time=0),
    Message('note_off', channel=9, note=36, velocity=61, time=0),
    Message('note_on', channel=9, note=54, velocity=61, time=33),
    Message('note_on', channel=9, note=70, velocity=61, time=0),
    Message('note_off', channel=9, note=70, velocity=61, time=15),
    Message('note_off', channel=9, note=54, velocity=61, time=0),
    Message('note_on', channel=9, note=36, velocity=61, time=33),
    Message('note_on', channel=9, note=54, velocity=61, time=0),
    Message('note_on', channel=9, note=82, velocity=61, time=0),
    Message('note_off', channel=9, note=82, velocity=61, time=15),
    Message('note_off', channel=9, note=54, velocity=61, time=0),
    Message('note_off', channel=9, note=36, velocity=61, time=0),
    Message('note_on', channel=9, note=36, velocity=61, time=33),
    Message('note_on', channel=9, note=54, velocity=61, time=0),
    Message('note_on', channel=9, note=70, velocity=61, time=0),
    Message('note_off', channel=9, note=70, velocity=61, time=15),
    Message('note_off', channel=9, note=54, velocity=61, time=0),
    Message('note_off', channel=9, note=36, velocity=61, time=0),
    Message('note_on', channel=9, note=36, velocity=61, time=33),
    Message('note_on', channel=9, note=44, velocity=61, time=0),
    Message('note_on', channel=9, note=54, velocity=61, time=0),
    Message('note_on', channel=9, note=70, velocity=61, time=0),
    Message('note_off', channel=9, note=70, velocity=61, time=15),
    Message('note_off', channel=9, note=54, velocity=61, time=0),
    Message('note_off', channel=9, note=44, velocity=61, time=0),
    Message('note_off', channel=9, note=36, velocity=61, time=0),
    Message('note_on', channel=9, note=36, velocity=61, time=33),
    Message('note_on', channel=9, note=54, velocity=61, time=0),
    Message('note_on', channel=9, note=70, velocity=61, time=0),
    Message('note_off', channel=9, note=70, velocity=61, time=15),
    Message('note_off', channel=9, note=54, velocity=61, time=0),
    Message('note_off', channel=9, note=36, velocity=61, time=0),
    Message('note_on', channel=9, note=44, velocity=61, time=33),
    Message('note_on', channel=9, note=54, velocity=61, time=0),
    Message('note_on', channel=9, note=70, velocity=61, time=0),
    Message('note_on', channel=9, note=83, velocity=61, time=0),
    Message('note_off', channel=9, note=83, velocity=61, time=15),
    Message('note_off', channel=9, note=70, velocity=61, time=0),
    Message('note_off', channel=9, note=54, velocity=61, time=0),
    Message('note_off', channel=9, note=44, velocity=61, time=0),
    Message('note_on', channel=9, note=54, velocity=61, time=33),
    Message('note_on', channel=9, note=70, velocity=61, time=0),
    Message('note_off', channel=9, note=70, velocity=61, time=15),
    Message('note_off', channel=9, note=54, velocity=61, time=0),
    Message('note_on', channel=9, note=54, velocity=61, time=33),
    Message('note_on', channel=9, note=70, velocity=61, time=0),
    Message('note_off', channel=9, note=70, velocity=61, time=15),
    Message('note_off', channel=9, note=54, velocity=61, time=0),
    Message('note_on', channel=9, note=54, velocity=61, time=33),
    Message('note_on', channel=9, note=70, velocity=61, time=0),
    Message('note_off', channel=9, note=70, velocity=61, time=15),
    Message('note_off', channel=9, note=54, velocity=61, time=0),
    Message('note_on', channel=9, note=36, velocity=61, time=33),
    Message('note_on', channel=9, note=54, velocity=61, time=0),
    Message('note_on', channel=9, note=70, velocity=61, time=0),
    Message('note_on', channel=9, note=82, velocity=61, time=0),
    Message('note_off', channel=9, note=82, velocity=61, time=15),
    Message('note_off', channel=9, note=70, velocity=61, time=0),
    Message('note_off', channel=9, note=54, velocity=61, time=0),
    Message('note_off', channel=9, note=36, velocity=61, time=0),
    Message('pitchwheel', channel=9, pitch=-266, time=29),
    Message('note_on', channel=9, note=36, velocity=61, time=4),
    Message('note_on', channel=9, note=54, velocity=61, time=0),
    Message('note_on', channel=9, note=70, velocity=61, time=0),
    Message('note_off', channel=9, note=70, velocity=61, time=15),
    Message('note_off', channel=9, note=54, velocity=61, time=0),
    Message('note_off', channel=9, note=36, velocity=61, time=0),
    Message('note_on', channel=9, note=36, velocity=61, time=33),
    Message('note_on', channel=9, note=54, velocity=61, time=0),
    Message('note_on', channel=9, note=70, velocity=61, time=0),
    Message('note_off', channel=9, note=70, velocity=61, time=15),
    Message('note_off', channel=9, note=54, velocity=61, time=0),
    Message('note_off', channel=9, note=36, velocity=61, time=0),
    Message('note_on', channel=9, note=36, velocity=61, time=33),
    Message('note_on', channel=9, note=39, velocity=61, time=0),
    Message('note_on', channel=9, note=54, velocity=61, time=0),
    Message('note_on', channel=9, note=70, velocity=61, time=0),
    Message('note_off', channel=9, note=70, velocity=61, time=15),
    Message('note_off', channel=9, note=54, velocity=61, time=0),
    Message('note_off', channel=9, note=39, velocity=61, time=0),
    Message('note_off', channel=9, note=36, velocity=61, time=0),
    Message('note_on', channel=9, note=44, velocity=61, time=33),
    Message('note_on', channel=9, note=54, velocity=61, time=0),
    Message('note_on', channel=9, note=70, velocity=61, time=0),
    Message('note_off', channel=9, note=70, velocity=61, time=15),
    Message('note_off', channel=9, note=54, velocity=61, time=0),
    Message('note_off', channel=9, note=44, velocity=61, time=0),
    Message('note_on', channel=9, note=54, velocity=61, time=33),
    Message('note_on', channel=9, note=70, velocity=61, time=0),
    Message('note_off', channel=9, note=70, velocity=61, time=15),
    Message('note_off', channel=9, note=54, velocity=61, time=0),
    Message('note_on', channel=9, note=36, velocity=61, time=33),
    Message('note_on', channel=9, note=39, velocity=61, time=0),
    Message('note_on', channel=9, note=54, velocity=61, time=0),
    Message('note_on', channel=9, note=70, velocity=61, time=0),
    Message('note_off', channel=9, note=70, velocity=61, time=15),
    Message('note_off', channel=9, note=54, velocity=61, time=0),
    Message('note_off', channel=9, note=39, velocity=61, time=0),
    Message('note_off', channel=9, note=36, velocity=61, time=0),
    Message('note_on', channel=9, note=54, velocity=61, time=33),
    Message('note_on', channel=9, note=70, velocity=61, time=0),
    Message('note_off', channel=9, note=70, velocity=61, time=15),
    Message('note_off', channel=9, note=54, velocity=61, time=0),
    Message('note_on', channel=9, note=36, velocity=61, time=33),
    Message('note_on', channel=9, note=54, velocity=61, time=0),
    Message('note_on', channel=9, note=82, velocity=61, time=0),
    Message('note_off', channel=9, note=82, velocity=61, time=15),
    Message('note_off', channel=9, note=54, velocity=61, time=0),
    Message('note_off', channel=9, note=36, velocity=61, time=0),
    Message('note_on', channel=9, note=36, velocity=61, time=33),
    Message('note_on', channel=9, note=54, velocity=61, time=0),
    Message('note_on', channel=9, note=70, velocity=61, time=0),
    Message('note_off', channel=9, note=70, velocity=61, time=15),
    Message('note_off', channel=9, note=54, velocity=61, time=0),
    Message('note_off', channel=9, note=36, velocity=61, time=0),
    Message('note_on', channel=9, note=36, velocity=61, time=33),
    Message('note_on', channel=9, note=44, velocity=61, time=0),
    Message('note_on', channel=9, note=54, velocity=61, time=0),
    Message('note_on', channel=9, note=70, velocity=61, time=0),
    Message('note_off', channel=9, note=70, velocity=61, time=15),
    Message('note_off', channel=9, note=54, velocity=61, time=0),
    Message('note_off', channel=9, note=44, velocity=61, time=0),
    Message('note_off', channel=9, note=36, velocity=61, time=0),
    Message('note_on', channel=9, note=36, velocity=61, time=33),
    Message('note_on', channel=9, note=54, velocity=61, time=0),
    Message('note_on', channel=9, note=70, velocity=61, time=0),
    Message('note_off', channel=9, note=70, velocity=61, time=15),
    Message('note_off', channel=9, note=54, velocity=61, time=0),
    Message('note_off', channel=9, note=36, velocity=61, time=0),
    Message('note_on', channel=9, note=44, velocity=61, time=33),
    Message('note_on', channel=9, note=54, velocity=61, time=0),
    Message('note_on', channel=9, note=70, velocity=61, time=0),
    Message('note_on', channel=9, note=83, velocity=61, time=0),
    Message('note_off', channel=9, note=83, velocity=61, time=15),
    Message('note_off', channel=9, note=70, velocity=61, time=0),
    Message('note_off', channel=9, note=54, velocity=61, time=0),
    Message('note_off', channel=9, note=44, velocity=61, time=0),
    Message('note_on', channel=9, note=54, velocity=61, time=33),
    Message('note_on', channel=9, note=70, velocity=61, time=0),
    Message('note_off', channel=9, note=70, velocity=61, time=15),
    Message('note_off', channel=9, note=54, velocity=61, time=0),
    Message('note_on', channel=9, note=54, velocity=61, time=33),
    Message('note_on', channel=9, note=70, velocity=61, time=0),
    Message('note_off', channel=9, note=70, velocity=61, time=15),
    Message('note_off', channel=9, note=54, velocity=61, time=0),
    Message('note_on', channel=9, note=54, velocity=61, time=33),
    Message('note_on', channel=9, note=70, velocity=61, time=0),
    Message('note_off', channel=9, note=70, velocity=61, time=15),
    Message('note_off', channel=9, note=54, velocity=61, time=0),
    Message('note_on', channel=9, note=36, velocity=61, time=33),
    Message('note_on', channel=9, note=54, velocity=61, time=0),
    Message('note_on', channel=9, note=70, velocity=61, time=0),
    Message('note_on', channel=9, note=82, velocity=61, time=0),
    Message('note_off', channel=9, note=82, velocity=61, time=15),
    Message('note_off', channel=9, note=70, velocity=61, time=0),
    Message('note_off', channel=9, note=54, velocity=61, time=0),
    Message('note_off', channel=9, note=36, velocity=61, time=0),
    Message('pitchwheel', channel=9, pitch=-266, time=29),
    Message('note_on', channel=9, note=36, velocity=61, time=4),
    Message('note_on', channel=9, note=54, velocity=61, time=0),
    Message('note_on', channel=9, note=70, velocity=61, time=0),
    Message('note_off', channel=9, note=70, velocity=61, time=15),
    Message('note_off', channel=9, note=54, velocity=61, time=0),
    Message('note_off', channel=9, note=36, velocity=61, time=0),
    Message('note_on', channel=9, note=36, velocity=61, time=33),
    Message('note_on', channel=9, note=54, velocity=61, time=0),
    Message('note_on', channel=9, note=70, velocity=61, time=0),
    Message('note_off', channel=9, note=70, velocity=61, time=15),
    Message('note_off', channel=9, note=54, velocity=61, time=0),
    Message('note_off', channel=9, note=36, velocity=61, time=0),
    Message('note_on', channel=9, note=36, velocity=61, time=33),
    Message('note_on', channel=9, note=39, velocity=61, time=0),
    Message('note_on', channel=9, note=54, velocity=61, time=0),
    Message('note_on', channel=9, note=70, velocity=61, time=0),
    Message('note_off', channel=9, note=70, velocity=61, time=15),
    Message('note_off', channel=9, note=54, velocity=61, time=0),
    Message('note_off', channel=9, note=39, velocity=61, time=0),
    Message('note_off', channel=9, note=36, velocity=61, time=0),
    Message('note_on', channel=9, note=44, velocity=61, time=33),
    Message('note_on', channel=9, note=54, velocity=61, time=0),
    Message('note_on', channel=9, note=70, velocity=61, time=0),
    Message('note_off', channel=9, note=70, velocity=61, time=15),
    Message('note_off', channel=9, note=54, velocity=61, time=0),
    Message('note_off', channel=9, note=44, velocity=61, time=0),
    Message('note_on', channel=9, note=54, velocity=61, time=33),
    Message('note_on', channel=9, note=70, velocity=61, time=0),
    Message('note_off', channel=9, note=70, velocity=61, time=15),
    Message('note_off', channel=9, note=54, velocity=61, time=0),
    Message('note_on', channel=9, note=36, velocity=61, time=33),
    Message('note_on', channel=9, note=39, velocity=61, time=0),
    Message('note_on', channel=9, note=54, velocity=61, time=0),
    Message('note_on', channel=9, note=70, velocity=61, time=0),
    Message('note_off', channel=9, note=70, velocity=61, time=15),
    Message('note_off', channel=9, note=54, velocity=61, time=0),
    Message('note_off', channel=9, note=39, velocity=61, time=0),
    Message('note_off', channel=9, note=36, velocity=61, time=0),
    Message('note_on', channel=9, note=54, velocity=61, time=33),
    Message('note_on', channel=9, note=70, velocity=61, time=0),
    Message('note_off', channel=9, note=70, velocity=61, time=15),
    Message('note_off', channel=9, note=54, velocity=61, time=0),
    Message('note_on', channel=9, note=36, velocity=61, time=33),
    Message('note_on', channel=9, note=54, velocity=61, time=0),
    Message('note_on', channel=9, note=82, velocity=61, time=0),
    Message('note_off', channel=9, note=82, velocity=61, time=15),
    Message('note_off', channel=9, note=54, velocity=61, time=0),
    Message('note_off', channel=9, note=36, velocity=61, time=0),
    Message('note_on', channel=9, note=36, velocity=61, time=33),
    Message('note_on', channel=9, note=54, velocity=61, time=0),
    Message('note_on', channel=9, note=70, velocity=61, time=0),
    Message('note_off', channel=9, note=70, velocity=61, time=15),
    Message('note_off', channel=9, note=54, velocity=61, time=0),
    Message('note_off', channel=9, note=36, velocity=61, time=0),
    Message('note_on', channel=9, note=36, velocity=61, time=33),
    Message('note_on', channel=9, note=44, velocity=61, time=0),
    Message('note_on', channel=9, note=54, velocity=61, time=0),
    Message('note_on', channel=9, note=70, velocity=61, time=0),
    Message('note_off', channel=9, note=70, velocity=61, time=15),
    Message('note_off', channel=9, note=54, velocity=61, time=0),
    Message('note_off', channel=9, note=44, velocity=61, time=0),
    Message('note_off', channel=9, note=36, velocity=61, time=0),
    Message('note_on', channel=9, note=36, velocity=61, time=33),
    Message('note_on', channel=9, note=54, velocity=61, time=0),
    Message('note_on', channel=9, note=70, velocity=61, time=0),
    Message('note_off', channel=9, note=70, velocity=61, time=15),
    Message('note_off', channel=9, note=54, velocity=61, time=0),
    Message('note_off', channel=9, note=36, velocity=61, time=0),
    Message('note_on', channel=9, note=44, velocity=61, time=33),
    Message('note_on', channel=9, note=54, velocity=61, time=0),
    Message('note_on', channel=9, note=70, velocity=61, time=0),
    Message('note_on', channel=9, note=83, velocity=61, time=0),
    Message('note_off', channel=9, note=83, velocity=61, time=15),
    Message('note_off', channel=9, note=70, velocity=61, time=0),
    Message('note_off', channel=9, note=54, velocity=61, time=0),
    Message('note_off', channel=9, note=44, velocity=61, time=0),
    Message('note_on', channel=9, note=54, velocity=61, time=33),
    Message('note_on', channel=9, note=70, velocity=61, time=0),
    Message('note_off', channel=9, note=70, velocity=61, time=15),
    Message('note_off', channel=9, note=54, velocity=61, time=0),
    Message('note_on', channel=9, note=54, velocity=61, time=33),
    Message('note_on', channel=9, note=70, velocity=61, time=0),
    Message('note_off', channel=9, note=70, velocity=61, time=15),
    Message('note_off', channel=9, note=54, velocity=61, time=0),
    Message('note_on', channel=9, note=54, velocity=61, time=33),
    Message('note_on', channel=9, note=70, velocity=61, time=0),
    Message('note_off', channel=9, note=70, velocity=61, time=15),
    Message('note_off', channel=9, note=54, velocity=61, time=0),
    Message('note_on', channel=9, note=36, velocity=61, time=33),
    Message('note_on', channel=9, note=54, velocity=61, time=0),
    Message('note_on', channel=9, note=70, velocity=61, time=0),
    Message('note_on', channel=9, note=82, velocity=61, time=0),
    Message('note_off', channel=9, note=82, velocity=61, time=15),
    Message('note_off', channel=9, note=70, velocity=61, time=0),
    Message('note_off', channel=9, note=54, velocity=61, time=0),
    Message('note_off', channel=9, note=36, velocity=61, time=0),
    Message('pitchwheel', channel=9, pitch=-266, time=29),
    Message('note_on', channel=9, note=36, velocity=61, time=4),
    Message('note_on', channel=9, note=54, velocity=61, time=0),
    Message('note_on', channel=9, note=70, velocity=61, time=0),
    Message('note_off', channel=9, note=70, velocity=61, time=15),
    Message('note_off', channel=9, note=54, velocity=61, time=0),
    Message('note_off', channel=9, note=36, velocity=61, time=0),
    Message('note_on', channel=9, note=36, velocity=61, time=33),
    Message('note_on', channel=9, note=54, velocity=61, time=0),
    Message('note_on', channel=9, note=70, velocity=61, time=0),
    Message('note_off', channel=9, note=70, velocity=61, time=15),
    Message('note_off', channel=9, note=54, velocity=61, time=0),
    Message('note_off', channel=9, note=36, velocity=61, time=0),
    Message('note_on', channel=9, note=36, velocity=61, time=33),
    Message('note_on', channel=9, note=39, velocity=61, time=0),
    Message('note_on', channel=9, note=54, velocity=61, time=0),
    Message('note_on', channel=9, note=70, velocity=61, time=0),
    Message('note_off', channel=9, note=70, velocity=61, time=15),
    Message('note_off', channel=9, note=54, velocity=61, time=0),
    Message('note_off', channel=9, note=39, velocity=61, time=0),
    Message('note_off', channel=9, note=36, velocity=61, time=0),
    Message('note_on', channel=9, note=44, velocity=61, time=33),
    Message('note_on', channel=9, note=54, velocity=61, time=0),
    Message('note_on', channel=9, note=70, velocity=61, time=0),
    Message('note_off', channel=9, note=70, velocity=61, time=15),
    Message('note_off', channel=9, note=54, velocity=61, time=0),
    Message('note_off', channel=9, note=44, velocity=61, time=0),
    Message('note_on', channel=9, note=54, velocity=61, time=33),
    Message('note_on', channel=9, note=70, velocity=61, time=0),
    Message('note_off', channel=9, note=70, velocity=61, time=15),
    Message('note_off', channel=9, note=54, velocity=61, time=0),
    Message('note_on', channel=9, note=36, velocity=61, time=33),
    Message('note_on', channel=9, note=39, velocity=61, time=0),
    Message('note_on', channel=9, note=54, velocity=61, time=0),
    Message('note_on', channel=9, note=70, velocity=61, time=0),
    Message('note_off', channel=9, note=70, velocity=61, time=15),
    Message('note_off', channel=9, note=54, velocity=61, time=0),
    Message('note_off', channel=9, note=39, velocity=61, time=0),
    Message('note_off', channel=9, note=36, velocity=61, time=0),
    Message('note_on', channel=9, note=54, velocity=61, time=33),
    Message('note_on', channel=9, note=70, velocity=61, time=0),
    Message('note_off', channel=9, note=70, velocity=61, time=15),
    Message('note_off', channel=9, note=54, velocity=61, time=0),
    Message('note_on', channel=9, note=36, velocity=61, time=33),
    Message('note_on', channel=9, note=54, velocity=61, time=0),
    Message('note_on', channel=9, note=82, velocity=61, time=0),
    Message('note_off', channel=9, note=82, velocity=61, time=15),
    Message('note_off', channel=9, note=54, velocity=61, time=0),
    Message('note_off', channel=9, note=36, velocity=61, time=0),
    Message('note_on', channel=9, note=36, velocity=61, time=33),
    Message('note_on', channel=9, note=54, velocity=61, time=0),
    Message('note_on', channel=9, note=70, velocity=61, time=0),
    Message('note_off', channel=9, note=70, velocity=61, time=15),
    Message('note_off', channel=9, note=54, velocity=61, time=0),
    Message('note_off', channel=9, note=36, velocity=61, time=0),
    Message('note_on', channel=9, note=36, velocity=61, time=33),
    Message('note_on', channel=9, note=44, velocity=61, time=0),
    Message('note_on', channel=9, note=54, velocity=61, time=0),
    Message('note_on', channel=9, note=70, velocity=61, time=0),
    Message('note_off', channel=9, note=70, velocity=61, time=15),
    Message('note_off', channel=9, note=54, velocity=61, time=0),
    Message('note_off', channel=9, note=44, velocity=61, time=0),
    Message('note_off', channel=9, note=36, velocity=61, time=0),
    Message('note_on', channel=9, note=36, velocity=61, time=33),
    Message('note_on', channel=9, note=54, velocity=61, time=0),
    Message('note_on', channel=9, note=70, velocity=61, time=0),
    Message('note_off', channel=9, note=70, velocity=61, time=15),
    Message('note_off', channel=9, note=54, velocity=61, time=0),
    Message('note_off', channel=9, note=36, velocity=61, time=0),
    Message('note_on', channel=9, note=44, velocity=61, time=33),
    Message('note_on', channel=9, note=54, velocity=61, time=0),
    Message('note_on', channel=9, note=70, velocity=61, time=0),
    Message('note_on', channel=9, note=83, velocity=61, time=0),
    Message('note_off', channel=9, note=83, velocity=61, time=15),
    Message('note_off', channel=9, note=70, velocity=61, time=0),
    Message('note_off', channel=9, note=54, velocity=61, time=0),
    Message('note_off', channel=9, note=44, velocity=61, time=0),
    Message('note_on', channel=9, note=54, velocity=61, time=33),
    Message('note_on', channel=9, note=70, velocity=61, time=0),
    Message('note_off', channel=9, note=70, velocity=61, time=15),
    Message('note_off', channel=9, note=54, velocity=61, time=0),
    Message('note_on', channel=9, note=54, velocity=61, time=33),
    Message('note_on', channel=9, note=70, velocity=61, time=0),
    Message('note_off', channel=9, note=70, velocity=61, time=15),
    Message('note_off', channel=9, note=54, velocity=61, time=0),
    Message('note_on', channel=9, note=54, velocity=61, time=33),
    Message('note_on', channel=9, note=70, velocity=61, time=0),
    Message('note_off', channel=9, note=70, velocity=61, time=15),
    Message('note_off', channel=9, note=54, velocity=61, time=0),
    Message('note_on', channel=9, note=36, velocity=61, time=33),
    Message('note_on', channel=9, note=54, velocity=61, time=0),
    Message('note_on', channel=9, note=70, velocity=61, time=0),
    Message('note_on', channel=9, note=82, velocity=61, time=0),
    Message('note_off', channel=9, note=82, velocity=61, time=15),
    Message('note_off', channel=9, note=70, velocity=61, time=0),
    Message('note_off', channel=9, note=54, velocity=61, time=0),
    Message('note_off', channel=9, note=36, velocity=61, time=0),
    Message('pitchwheel', channel=9, pitch=-266, time=29),
    Message('note_on', channel=9, note=36, velocity=61, time=4),
    Message('note_on', channel=9, note=54, velocity=61, time=0),
    Message('note_on', channel=9, note=70, velocity=61, time=0),
    Message('note_off', channel=9, note=70, velocity=61, time=15),
    Message('note_off', channel=9, note=54, velocity=61, time=0),
    Message('note_off', channel=9, note=36, velocity=61, time=0),
    Message('note_on', channel=9, note=36, velocity=61, time=33),
    Message('note_on', channel=9, note=54, velocity=61, time=0),
    Message('note_on', channel=9, note=70, velocity=61, time=0),
    Message('note_off', channel=9, note=70, velocity=61, time=15),
    Message('note_off', channel=9, note=54, velocity=61, time=0),
    Message('note_off', channel=9, note=36, velocity=61, time=0),
    Message('note_on', channel=9, note=36, velocity=61, time=33),
    Message('note_on', channel=9, note=39, velocity=61, time=0),
    Message('note_on', channel=9, note=54, velocity=61, time=0),
    Message('note_on', channel=9, note=70, velocity=61, time=0),
    Message('note_off', channel=9, note=70, velocity=61, time=15),
    Message('note_off', channel=9, note=54, velocity=61, time=0),
    Message('note_off', channel=9, note=39, velocity=61, time=0),
    Message('note_off', channel=9, note=36, velocity=61, time=0),
    Message('note_on', channel=9, note=44, velocity=61, time=33),
    Message('note_on', channel=9, note=54, velocity=61, time=0),
    Message('note_on', channel=9, note=70, velocity=61, time=0),
    Message('note_off', channel=9, note=70, velocity=61, time=15),
    Message('note_off', channel=9, note=54, velocity=61, time=0),
    Message('note_off', channel=9, note=44, velocity=61, time=0),
    Message('note_on', channel=9, note=54, velocity=61, time=33),
    Message('note_on', channel=9, note=70, velocity=61, time=0),
    Message('note_off', channel=9, note=70, velocity=61, time=15),
    Message('note_off', channel=9, note=54, velocity=61, time=0),
    Message('note_on', channel=9, note=36, velocity=61, time=33),
    Message('note_on', channel=9, note=39, velocity=61, time=0),
    Message('note_on', channel=9, note=54, velocity=61, time=0),
    Message('note_on', channel=9, note=70, velocity=61, time=0),
    Message('note_off', channel=9, note=70, velocity=61, time=15),
    Message('note_off', channel=9, note=54, velocity=61, time=0),
    Message('note_off', channel=9, note=39, velocity=61, time=0),
    Message('note_off', channel=9, note=36, velocity=61, time=0),
    Message('note_on', channel=9, note=54, velocity=61, time=33),
    Message('note_on', channel=9, note=70, velocity=61, time=0),
    Message('note_off', channel=9, note=70, velocity=61, time=15),
    Message('note_off', channel=9, note=54, velocity=61, time=0),
    Message('note_on', channel=9, note=36, velocity=61, time=33),
    Message('note_on', channel=9, note=54, velocity=61, time=0),
    Message('note_on', channel=9, note=82, velocity=61, time=0),
    Message('note_off', channel=9, note=82, velocity=61, time=15),
    Message('note_off', channel=9, note=54, velocity=61, time=0),
    Message('note_off', channel=9, note=36, velocity=61, time=0),
    Message('note_on', channel=9, note=36, velocity=61, time=33),
    Message('note_on', channel=9, note=54, velocity=61, time=0),
    Message('note_on', channel=9, note=70, velocity=61, time=0),
    Message('note_off', channel=9, note=70, velocity=61, time=15),
    Message('note_off', channel=9, note=54, velocity=61, time=0),
    Message('note_off', channel=9, note=36, velocity=61, time=0),
    Message('note_on', channel=9, note=36, velocity=61, time=33),
    Message('note_on', channel=9, note=44, velocity=61, time=0),
    Message('note_on', channel=9, note=54, velocity=61, time=0),
    Message('note_on', channel=9, note=70, velocity=61, time=0),
    Message('note_off', channel=9, note=70, velocity=61, time=15),
    Message('note_off', channel=9, note=54, velocity=61, time=0),
    Message('note_off', channel=9, note=44, velocity=61, time=0),
    Message('note_off', channel=9, note=36, velocity=61, time=0),
    Message('note_on', channel=9, note=36, velocity=61, time=33),
    Message('note_on', channel=9, note=54, velocity=61, time=0),
    Message('note_on', channel=9, note=70, velocity=61, time=0),
    Message('note_off', channel=9, note=70, velocity=61, time=15),
    Message('note_off', channel=9, note=54, velocity=61, time=0),
    Message('note_off', channel=9, note=36, velocity=61, time=0),
    Message('note_on', channel=9, note=44, velocity=61, time=33),
    Message('note_on', channel=9, note=54, velocity=61, time=0),
    Message('note_on', channel=9, note=70, velocity=61, time=0),
    Message('note_on', channel=9, note=83, velocity=61, time=0),
    Message('note_off', channel=9, note=83, velocity=61, time=15),
    Message('note_off', channel=9, note=70, velocity=61, time=0),
    Message('note_off', channel=9, note=54, velocity=61, time=0),
    Message('note_off', channel=9, note=44, velocity=61, time=0),
    Message('note_on', channel=9, note=54, velocity=61, time=33),
    Message('note_on', channel=9, note=70, velocity=61, time=0),
    Message('note_off', channel=9, note=70, velocity=61, time=15),
    Message('note_off', channel=9, note=54, velocity=61, time=0),
    Message('note_on', channel=9, note=54, velocity=61, time=33),
    Message('note_on', channel=9, note=70, velocity=61, time=0),
    Message('note_off', channel=9, note=70, velocity=61, time=15),
    Message('note_off', channel=9, note=54, velocity=61, time=0),
    Message('note_on', channel=9, note=54, velocity=61, time=33),
    Message('note_on', channel=9, note=70, velocity=61, time=0),
    Message('note_off', channel=9, note=70, velocity=61, time=15),
    Message('note_off', channel=9, note=54, velocity=61, time=0),
    Message('note_on', channel=9, note=36, velocity=61, time=33),
    Message('note_on', channel=9, note=54, velocity=61, time=0),
    Message('note_on', channel=9, note=70, velocity=61, time=0),
    Message('note_on', channel=9, note=82, velocity=61, time=0),
    Message('note_off', channel=9, note=82, velocity=61, time=15),
    Message('note_off', channel=9, note=70, velocity=61, time=0),
    Message('note_off', channel=9, note=54, velocity=61, time=0),
    Message('note_off', channel=9, note=36, velocity=61, time=0),
    Message('pitchwheel', channel=9, pitch=-266, time=29),
    Message('note_on', channel=9, note=36, velocity=61, time=4),
    Message('note_on', channel=9, note=54, velocity=61, time=0),
    Message('note_on', channel=9, note=70, velocity=61, time=0),
    Message('note_off', channel=9, note=70, velocity=61, time=15),
    Message('note_off', channel=9, note=54, velocity=61, time=0),
    Message('note_off', channel=9, note=36, velocity=61, time=0),
    Message('note_on', channel=9, note=36, velocity=61, time=33),
    Message('note_on', channel=9, note=54, velocity=61, time=0),
    Message('note_on', channel=9, note=70, velocity=61, time=0),
    Message('note_off', channel=9, note=70, velocity=61, time=15),
    Message('note_off', channel=9, note=54, velocity=61, time=0),
    Message('note_off', channel=9, note=36, velocity=61, time=0),
    Message('note_on', channel=9, note=36, velocity=61, time=33),
    Message('note_on', channel=9, note=39, velocity=61, time=0),
    Message('note_on', channel=9, note=54, velocity=61, time=0),
    Message('note_on', channel=9, note=70, velocity=61, time=0),
    Message('note_off', channel=9, note=70, velocity=61, time=15),
    Message('note_off', channel=9, note=54, velocity=61, time=0),
    Message('note_off', channel=9, note=39, velocity=61, time=0),
    Message('note_off', channel=9, note=36, velocity=61, time=0),
    Message('note_on', channel=9, note=44, velocity=61, time=33),
    Message('note_on', channel=9, note=54, velocity=61, time=0),
    Message('note_on', channel=9, note=70, velocity=61, time=0),
    Message('note_off', channel=9, note=70, velocity=61, time=15),
    Message('note_off', channel=9, note=54, velocity=61, time=0),
    Message('note_off', channel=9, note=44, velocity=61, time=0),
    Message('note_on', channel=9, note=54, velocity=61, time=33),
    Message('note_on', channel=9, note=70, velocity=61, time=0),
    Message('note_off', channel=9, note=70, velocity=61, time=15),
    Message('note_off', channel=9, note=54, velocity=61, time=0),
    Message('note_on', channel=9, note=36, velocity=61, time=33),
    Message('note_on', channel=9, note=39, velocity=61, time=0),
    Message('note_on', channel=9, note=54, velocity=61, time=0),
    Message('note_on', channel=9, note=70, velocity=61, time=0),
    Message('note_off', channel=9, note=70, velocity=61, time=15),
    Message('note_off', channel=9, note=54, velocity=61, time=0),
    Message('note_off', channel=9, note=39, velocity=61, time=0),
    Message('note_off', channel=9, note=36, velocity=61, time=0),
    Message('note_on', channel=9, note=54, velocity=61, time=33),
    Message('note_on', channel=9, note=70, velocity=61, time=0),
    Message('note_off', channel=9, note=70, velocity=61, time=15),
    Message('note_off', channel=9, note=54, velocity=61, time=0),
    Message('note_on', channel=9, note=36, velocity=61, time=33),
    Message('note_on', channel=9, note=54, velocity=61, time=0),
    Message('note_on', channel=9, note=82, velocity=61, time=0),
    Message('note_off', channel=9, note=82, velocity=61, time=15),
    Message('note_off', channel=9, note=54, velocity=61, time=0),
    Message('note_off', channel=9, note=36, velocity=61, time=0),
    Message('note_on', channel=9, note=36, velocity=61, time=33),
    Message('note_on', channel=9, note=54, velocity=61, time=0),
    Message('note_on', channel=9, note=70, velocity=61, time=0),
    Message('note_off', channel=9, note=70, velocity=61, time=15),
    Message('note_off', channel=9, note=54, velocity=61, time=0),
    Message('note_off', channel=9, note=36, velocity=61, time=0),
    Message('note_on', channel=9, note=36, velocity=61, time=33),
    Message('note_on', channel=9, note=44, velocity=61, time=0),
    Message('note_on', channel=9, note=54, velocity=61, time=0),
    Message('note_on', channel=9, note=70, velocity=61, time=0),
    Message('note_off', channel=9, note=70, velocity=61, time=15),
    Message('note_off', channel=9, note=54, velocity=61, time=0),
    Message('note_off', channel=9, note=44, velocity=61, time=0),
    Message('note_off', channel=9, note=36, velocity=61, time=0),
    Message('note_on', channel=9, note=36, velocity=61, time=33),
    Message('note_on', channel=9, note=54, velocity=61, time=0),
    Message('note_on', channel=9, note=70, velocity=61, time=0),
    Message('note_off', channel=9, note=70, velocity=61, time=15),
    Message('note_off', channel=9, note=54, velocity=61, time=0),
    Message('note_off', channel=9, note=36, velocity=61, time=0),
    Message('note_on', channel=9, note=44, velocity=61, time=33),
    Message('note_on', channel=9, note=54, velocity=61, time=0),
    Message('note_on', channel=9, note=70, velocity=61, time=0),
    Message('note_on', channel=9, note=83, velocity=61, time=0),
    Message('note_off', channel=9, note=83, velocity=61, time=15),
    Message('note_off', channel=9, note=70, velocity=61, time=0),
    Message('note_off', channel=9, note=54, velocity=61, time=0),
    Message('note_off', channel=9, note=44, velocity=61, time=0),
    Message('note_on', channel=9, note=54, velocity=61, time=33),
    Message('note_on', channel=9, note=70, velocity=61, time=0),
    Message('note_off', channel=9, note=70, velocity=61, time=15),
    Message('note_off', channel=9, note=54, velocity=61, time=0),
    Message('note_on', channel=9, note=54, velocity=61, time=33),
    Message('note_on', channel=9, note=70, velocity=61, time=0),
    Message('note_off', channel=9, note=70, velocity=61, time=15),
    Message('note_off', channel=9, note=54, velocity=61, time=0),
    Message('note_on', channel=9, note=54, velocity=61, time=33),
    Message('note_on', channel=9, note=70, velocity=61, time=0),
    Message('note_off', channel=9, note=70, velocity=61, time=15),
    Message('note_off', channel=9, note=54, velocity=61, time=0),
    Message('note_on', channel=9, note=36, velocity=61, time=33),
    Message('note_on', channel=9, note=54, velocity=61, time=0),
    Message('note_on', channel=9, note=70, velocity=61, time=0),
    Message('note_on', channel=9, note=82, velocity=61, time=0),
    Message('note_off', channel=9, note=82, velocity=61, time=15),
    Message('note_off', channel=9, note=70, velocity=61, time=0),
    Message('note_off', channel=9, note=54, velocity=61, time=0),
    Message('note_off', channel=9, note=36, velocity=61, time=0),
    Message('pitchwheel', channel=9, pitch=-266, time=29),
    Message('note_on', channel=9, note=36, velocity=61, time=4),
    Message('note_on', channel=9, note=54, velocity=61, time=0),
    Message('note_on', channel=9, note=70, velocity=61, time=0),
    Message('note_off', channel=9, note=70, velocity=61, time=15),
    Message('note_off', channel=9, note=54, velocity=61, time=0),
    Message('note_off', channel=9, note=36, velocity=61, time=0),
    Message('note_on', channel=9, note=36, velocity=61, time=33),
    Message('note_on', channel=9, note=54, velocity=61, time=0),
    Message('note_on', channel=9, note=70, velocity=61, time=0),
    Message('note_off', channel=9, note=70, velocity=61, time=15),
    Message('note_off', channel=9, note=54, velocity=61, time=0),
    Message('note_off', channel=9, note=36, velocity=61, time=0),
    Message('note_on', channel=9, note=36, velocity=61, time=33),
    Message('note_on', channel=9, note=39, velocity=61, time=0),
    Message('note_on', channel=9, note=54, velocity=61, time=0),
    Message('note_on', channel=9, note=70, velocity=61, time=0),
    Message('note_off', channel=9, note=70, velocity=61, time=15),
    Message('note_off', channel=9, note=54, velocity=61, time=0),
    Message('note_off', channel=9, note=39, velocity=61, time=0),
    Message('note_off', channel=9, note=36, velocity=61, time=0),
    Message('note_on', channel=9, note=44, velocity=61, time=33),
    Message('note_on', channel=9, note=54, velocity=61, time=0),
    Message('note_on', channel=9, note=70, velocity=61, time=0),
    Message('note_off', channel=9, note=70, velocity=61, time=15),
    Message('note_off', channel=9, note=54, velocity=61, time=0),
    Message('note_off', channel=9, note=44, velocity=61, time=0),
    Message('note_on', channel=9, note=54, velocity=61, time=33),
    Message('note_on', channel=9, note=70, velocity=61, time=0),
    Message('note_off', channel=9, note=70, velocity=61, time=15),
    Message('note_off', channel=9, note=54, velocity=61, time=0),
    Message('note_on', channel=9, note=36, velocity=61, time=33),
    Message('note_on', channel=9, note=39, velocity=61, time=0),
    Message('note_on', channel=9, note=54, velocity=61, time=0),
    Message('note_on', channel=9, note=70, velocity=61, time=0),
    Message('note_off', channel=9, note=70, velocity=61, time=15),
    Message('note_off', channel=9, note=54, velocity=61, time=0),
    Message('note_off', channel=9, note=39, velocity=61, time=0),
    Message('note_off', channel=9, note=36, velocity=61, time=0),
    Message('note_on', channel=9, note=54, velocity=61, time=33),
    Message('note_on', channel=9, note=70, velocity=61, time=0),
    Message('note_off', channel=9, note=70, velocity=61, time=15),
    Message('note_off', channel=9, note=54, velocity=61, time=0),
    Message('note_on', channel=9, note=36, velocity=61, time=33),
    Message('note_on', channel=9, note=54, velocity=61, time=0),
    Message('note_on', channel=9, note=82, velocity=61, time=0),
    Message('note_off', channel=9, note=82, velocity=61, time=15),
    Message('note_off', channel=9, note=54, velocity=61, time=0),
    Message('note_off', channel=9, note=36, velocity=61, time=0),
    Message('note_on', channel=9, note=36, velocity=61, time=33),
    Message('note_on', channel=9, note=54, velocity=61, time=0),
    Message('note_on', channel=9, note=70, velocity=61, time=0),
    Message('note_off', channel=9, note=70, velocity=61, time=15),
    Message('note_off', channel=9, note=54, velocity=61, time=0),
    Message('note_off', channel=9, note=36, velocity=61, time=0),
    Message('note_on', channel=9, note=36, velocity=61, time=33),
    Message('note_on', channel=9, note=44, velocity=61, time=0),
    Message('note_on', channel=9, note=54, velocity=61, time=0),
    Message('note_on', channel=9, note=70, velocity=61, time=0),
    Message('note_off', channel=9, note=70, velocity=61, time=15),
    Message('note_off', channel=9, note=54, velocity=61, time=0),
    Message('note_off', channel=9, note=44, velocity=61, time=0),
    Message('note_off', channel=9, note=36, velocity=61, time=0),
    Message('note_on', channel=9, note=36, velocity=61, time=33),
    Message('note_on', channel=9, note=54, velocity=61, time=0),
    Message('note_on', channel=9, note=70, velocity=61, time=0),
    Message('note_off', channel=9, note=70, velocity=61, time=15),
    Message('note_off', channel=9, note=54, velocity=61, time=0),
    Message('note_off', channel=9, note=36, velocity=61, time=0),
    Message('note_on', channel=9, note=44, velocity=61, time=33),
    Message('note_on', channel=9, note=54, velocity=61, time=0),
    Message('note_on', channel=9, note=70, velocity=61, time=0),
    Message('note_on', channel=9, note=83, velocity=61, time=0),
    Message('note_off', channel=9, note=83, velocity=61, time=15),
    Message('note_off', channel=9, note=70, velocity=61, time=0),
    Message('note_off', channel=9, note=54, velocity=61, time=0),
    Message('note_off', channel=9, note=44, velocity=61, time=0),
    Message('note_on', channel=9, note=54, velocity=61, time=33),
    Message('note_on', channel=9, note=70, velocity=61, time=0),
    Message('note_off', channel=9, note=70, velocity=61, time=15),
    Message('note_off', channel=9, note=54, velocity=61, time=0),
    Message('note_on', channel=9, note=54, velocity=61, time=33),
    Message('note_on', channel=9, note=70, velocity=61, time=0),
    Message('note_off', channel=9, note=70, velocity=61, time=15),
    Message('note_off', channel=9, note=54, velocity=61, time=0),
    Message('note_on', channel=9, note=54, velocity=61, time=33),
    Message('note_on', channel=9, note=70, velocity=61, time=0),
    Message('note_off', channel=9, note=70, velocity=61, time=15),
    Message('note_off', channel=9, note=54, velocity=61, time=0),
    Message('note_on', channel=9, note=36, velocity=61, time=33),
    Message('note_on', channel=9, note=54, velocity=61, time=0),
    Message('note_on', channel=9, note=70, velocity=61, time=0),
    Message('note_on', channel=9, note=82, velocity=61, time=0),
    Message('note_off', channel=9, note=82, velocity=61, time=15),
    Message('note_off', channel=9, note=70, velocity=61, time=0),
    Message('note_off', channel=9, note=54, velocity=61, time=0),
    Message('note_off', channel=9, note=36, velocity=61, time=0),
    Message('pitchwheel', channel=9, pitch=-266, time=29),
    Message('note_on', channel=9, note=36, velocity=61, time=4),
    Message('note_on', channel=9, note=54, velocity=61, time=0),
    Message('note_on', channel=9, note=70, velocity=61, time=0),
    Message('note_off', channel=9, note=70, velocity=61, time=15),
    Message('note_off', channel=9, note=54, velocity=61, time=0),
    Message('note_off', channel=9, note=36, velocity=61, time=0),
    Message('note_on', channel=9, note=36, velocity=61, time=33),
    Message('note_on', channel=9, note=54, velocity=61, time=0),
    Message('note_on', channel=9, note=70, velocity=61, time=0),
    Message('note_off', channel=9, note=70, velocity=61, time=15),
    Message('note_off', channel=9, note=54, velocity=61, time=0),
    Message('note_off', channel=9, note=36, velocity=61, time=0),
    Message('note_on', channel=9, note=36, velocity=61, time=33),
    Message('note_on', channel=9, note=39, velocity=61, time=0),
    Message('note_on', channel=9, note=54, velocity=61, time=0),
    Message('note_on', channel=9, note=70, velocity=61, time=0),
    Message('note_off', channel=9, note=70, velocity=61, time=15),
    Message('note_off', channel=9, note=54, velocity=61, time=0),
    Message('note_off', channel=9, note=39, velocity=61, time=0),
    Message('note_off', channel=9, note=36, velocity=61, time=0),
    Message('note_on', channel=9, note=44, velocity=61, time=33),
    Message('note_on', channel=9, note=54, velocity=61, time=0),
    Message('note_on', channel=9, note=70, velocity=61, time=0),
    Message('note_off', channel=9, note=70, velocity=61, time=15),
    Message('note_off', channel=9, note=54, velocity=61, time=0),
    Message('note_off', channel=9, note=44, velocity=61, time=0),
    Message('note_on', channel=9, note=54, velocity=61, time=33),
    Message('note_on', channel=9, note=70, velocity=61, time=0),
    Message('note_off', channel=9, note=70, velocity=61, time=15),
    Message('note_off', channel=9, note=54, velocity=61, time=0),
    Message('note_on', channel=9, note=36, velocity=61, time=33),
    Message('note_on', channel=9, note=39, velocity=61, time=0),
    Message('note_on', channel=9, note=54, velocity=61, time=0),
    Message('note_on', channel=9, note=70, velocity=61, time=0),
    Message('note_off', channel=9, note=70, velocity=61, time=15),
    Message('note_off', channel=9, note=54, velocity=61, time=0),
    Message('note_off', channel=9, note=39, velocity=61, time=0),
    Message('note_off', channel=9, note=36, velocity=61, time=0),
    Message('note_on', channel=9, note=54, velocity=61, time=33),
    Message('note_on', channel=9, note=70, velocity=61, time=0),
    Message('note_off', channel=9, note=70, velocity=61, time=15),
    Message('note_off', channel=9, note=54, velocity=61, time=0),
    Message('note_on', channel=9, note=36, velocity=61, time=33),
    Message('note_on', channel=9, note=54, velocity=61, time=0),
    Message('note_on', channel=9, note=82, velocity=61, time=0),
    Message('note_off', channel=9, note=82, velocity=61, time=15),
    Message('note_off', channel=9, note=54, velocity=61, time=0),
    Message('note_off', channel=9, note=36, velocity=61, time=0),
    Message('note_on', channel=9, note=36, velocity=61, time=33),
    Message('note_on', channel=9, note=54, velocity=61, time=0),
    Message('note_on', channel=9, note=70, velocity=61, time=0),
    Message('note_off', channel=9, note=70, velocity=61, time=15),
    Message('note_off', channel=9, note=54, velocity=61, time=0),
    Message('note_off', channel=9, note=36, velocity=61, time=0),
    Message('note_on', channel=9, note=36, velocity=61, time=33),
    Message('note_on', channel=9, note=44, velocity=61, time=0),
    Message('note_on', channel=9, note=54, velocity=61, time=0),
    Message('note_on', channel=9, note=70, velocity=61, time=0),
    Message('note_off', channel=9, note=70, velocity=61, time=15),
    Message('note_off', channel=9, note=54, velocity=61, time=0),
    Message('note_off', channel=9, note=44, velocity=61, time=0),
    Message('note_off', channel=9, note=36, velocity=61, time=0),
    Message('note_on', channel=9, note=36, velocity=61, time=33),
    Message('note_on', channel=9, note=54, velocity=61, time=0),
    Message('note_on', channel=9, note=70, velocity=61, time=0),
    Message('note_off', channel=9, note=70, velocity=61, time=15),
    Message('note_off', channel=9, note=54, velocity=61, time=0),
    Message('note_off', channel=9, note=36, velocity=61, time=0),
    Message('note_on', channel=9, note=44, velocity=61, time=33),
    Message('note_on', channel=9, note=54, velocity=61, time=0),
    Message('note_on', channel=9, note=70, velocity=61, time=0),
    Message('note_on', channel=9, note=83, velocity=61, time=0),
    Message('note_off', channel=9, note=83, velocity=61, time=15),
    Message('note_off', channel=9, note=70, velocity=61, time=0),
    Message('note_off', channel=9, note=54, velocity=61, time=0),
    Message('note_off', channel=9, note=44, velocity=61, time=0),
    Message('note_on', channel=9, note=54, velocity=61, time=33),
    Message('note_on', channel=9, note=70, velocity=61, time=0),
    Message('note_off', channel=9, note=70, velocity=61, time=15),
    Message('note_off', channel=9, note=54, velocity=61, time=0),
    Message('note_on', channel=9, note=54, velocity=61, time=33),
    Message('note_on', channel=9, note=70, velocity=61, time=0),
    Message('note_off', channel=9, note=70, velocity=61, time=15),
    Message('note_off', channel=9, note=54, velocity=61, time=0),
    Message('note_on', channel=9, note=54, velocity=61, time=33),
    Message('note_on', channel=9, note=70, velocity=61, time=0),
    Message('note_off', channel=9, note=70, velocity=61, time=15),
    Message('note_off', channel=9, note=54, velocity=61, time=0),
    Message('note_on', channel=9, note=36, velocity=61, time=33),
    Message('note_on', channel=9, note=54, velocity=61, time=0),
    Message('note_on', channel=9, note=70, velocity=61, time=0),
    Message('note_on', channel=9, note=82, velocity=61, time=0),
    Message('note_off', channel=9, note=82, velocity=61, time=15),
    Message('note_off', channel=9, note=70, velocity=61, time=0),
    Message('note_off', channel=9, note=54, velocity=61, time=0),
    Message('note_off', channel=9, note=36, velocity=61, time=0),
    Message('pitchwheel', channel=9, pitch=-266, time=29),
    Message('note_on', channel=9, note=36, velocity=61, time=4),
    Message('note_on', channel=9, note=54, velocity=61, time=0),
    Message('note_on', channel=9, note=70, velocity=61, time=0),
    Message('note_off', channel=9, note=70, velocity=61, time=15),
    Message('note_off', channel=9, note=54, velocity=61, time=0),
    Message('note_off', channel=9, note=36, velocity=61, time=0),
    Message('note_on', channel=9, note=36, velocity=61, time=33),
    Message('note_on', channel=9, note=54, velocity=61, time=0),
    Message('note_on', channel=9, note=70, velocity=61, time=0),
    Message('note_off', channel=9, note=70, velocity=61, time=15),
    Message('note_off', channel=9, note=54, velocity=61, time=0),
    Message('note_off', channel=9, note=36, velocity=61, time=0),
    Message('note_on', channel=9, note=36, velocity=61, time=33),
    Message('note_on', channel=9, note=39, velocity=61, time=0),
    Message('note_off', channel=9, note=39, velocity=61, time=15),
    Message('note_off', channel=9, note=36, velocity=61, time=0),
    Message('note_on', channel=9, note=44, velocity=61, time=33),
    Message('note_on', channel=9, note=54, velocity=61, time=0),
    Message('note_on', channel=9, note=70, velocity=61, time=0),
    Message('note_off', channel=9, note=70, velocity=61, time=15),
    Message('note_off', channel=9, note=54, velocity=61, time=0),
    Message('note_off', channel=9, note=44, velocity=61, time=0),
    Message('note_on', channel=9, note=54, velocity=61, time=33),
    Message('note_on', channel=9, note=70, velocity=61, time=0),
    Message('note_off', channel=9, note=70, velocity=61, time=15),
    Message('note_off', channel=9, note=54, velocity=61, time=0),
    Message('note_on', channel=9, note=36, velocity=61, time=33),
    Message('note_on', channel=9, note=39, velocity=61, time=0),
    Message('note_off', channel=9, note=39, velocity=61, time=15),
    Message('note_off', channel=9, note=36, velocity=61, time=0),
    Message('note_on', channel=9, note=54, velocity=61, time=33),
    Message('note_on', channel=9, note=70, velocity=61, time=0),
    Message('note_off', channel=9, note=70, velocity=61, time=15),
    Message('note_off', channel=9, note=54, velocity=61, time=0),
    Message('note_on', channel=9, note=36, velocity=61, time=33),
    Message('note_on', channel=9, note=54, velocity=61, time=0),
    Message('note_on', channel=9, note=82, velocity=61, time=0),
    Message('note_off', channel=9, note=82, velocity=61, time=15),
    Message('note_off', channel=9, note=54, velocity=61, time=0),
    Message('note_off', channel=9, note=36, velocity=61, time=0),
    Message('note_on', channel=9, note=36, velocity=61, time=33),
    Message('note_on', channel=9, note=54, velocity=61, time=0),
    Message('note_on', channel=9, note=70, velocity=61, time=0),
    Message('note_off', channel=9, note=70, velocity=61, time=15),
    Message('note_off', channel=9, note=54, velocity=61, time=0),
    Message('note_off', channel=9, note=36, velocity=61, time=0),
    Message('note_on', channel=9, note=36, velocity=61, time=33),
    Message('note_on', channel=9, note=44, velocity=61, time=0),
    Message('note_on', channel=9, note=54, velocity=61, time=0),
    Message('note_on', channel=9, note=70, velocity=61, time=0),
    Message('note_off', channel=9, note=70, velocity=61, time=15),
    Message('note_off', channel=9, note=54, velocity=61, time=0),
    Message('note_off', channel=9, note=44, velocity=61, time=0),
    Message('note_off', channel=9, note=36, velocity=61, time=0),
    Message('note_on', channel=9, note=36, velocity=61, time=33),
    Message('note_on', channel=9, note=54, velocity=61, time=0),
    Message('note_on', channel=9, note=70, velocity=61, time=0),
    Message('note_off', channel=9, note=70, velocity=61, time=15),
    Message('note_off', channel=9, note=54, velocity=61, time=0),
    Message('note_off', channel=9, note=36, velocity=61, time=0),
    Message('note_on', channel=9, note=44, velocity=61, time=33),
    Message('note_on', channel=9, note=54, velocity=61, time=0),
    Message('note_on', channel=9, note=70, velocity=61, time=0),
    Message('note_on', channel=9, note=83, velocity=61, time=0),
    Message('note_off', channel=9, note=83, velocity=61, time=15),
    Message('note_off', channel=9, note=70, velocity=61, time=0),
    Message('note_off', channel=9, note=54, velocity=61, time=0),
    Message('note_off', channel=9, note=44, velocity=61, time=0),
    Message('note_on', channel=9, note=54, velocity=61, time=33),
    Message('note_on', channel=9, note=70, velocity=61, time=0),
    Message('note_off', channel=9, note=70, velocity=61, time=15),
    Message('note_off', channel=9, note=54, velocity=61, time=0),
    Message('note_on', channel=9, note=54, velocity=61, time=33),
    Message('note_on', channel=9, note=70, velocity=61, time=0),
    Message('note_off', channel=9, note=70, velocity=61, time=15),
    Message('note_off', channel=9, note=54, velocity=61, time=0),
    Message('note_on', channel=9, note=54, velocity=61, time=33),
    Message('note_on', channel=9, note=70, velocity=61, time=0),
    Message('note_off', channel=9, note=70, velocity=61, time=15),
    Message('note_off', channel=9, note=54, velocity=61, time=0),
    Message('note_on', channel=9, note=36, velocity=61, time=33),
    Message('note_on', channel=9, note=54, velocity=61, time=0),
    Message('note_on', channel=9, note=70, velocity=61, time=0),
    Message('note_on', channel=9, note=82, velocity=61, time=0),
    Message('note_off', channel=9, note=82, velocity=61, time=15),
    Message('note_off', channel=9, note=70, velocity=61, time=0),
    Message('note_off', channel=9, note=54, velocity=61, time=0),
    Message('note_off', channel=9, note=36, velocity=61, time=0),
    Message('pitchwheel', channel=9, pitch=-266, time=29),
    Message('note_on', channel=9, note=36, velocity=61, time=4),
    Message('note_on', channel=9, note=54, velocity=61, time=0),
    Message('note_on', channel=9, note=70, velocity=61, time=0),
    Message('note_off', channel=9, note=70, velocity=61, time=15),
    Message('note_off', channel=9, note=54, velocity=61, time=0),
    Message('note_off', channel=9, note=36, velocity=61, time=0),
    Message('note_on', channel=9, note=36, velocity=61, time=33),
    Message('note_on', channel=9, note=54, velocity=61, time=0),
    Message('note_on', channel=9, note=70, velocity=61, time=0),
    Message('note_off', channel=9, note=70, velocity=61, time=15),
    Message('note_off', channel=9, note=54, velocity=61, time=0),
    Message('note_off', channel=9, note=36, velocity=61, time=0),
    Message('note_on', channel=9, note=36, velocity=61, time=33),
    Message('note_on', channel=9, note=39, velocity=61, time=0),
    Message('note_off', channel=9, note=39, velocity=61, time=15),
    Message('note_off', channel=9, note=36, velocity=61, time=0),
    Message('note_on', channel=9, note=44, velocity=61, time=33),
    Message('note_on', channel=9, note=54, velocity=61, time=0),
    Message('note_on', channel=9, note=70, velocity=42, time=0),
    Message('note_off', channel=9, note=70, velocity=42, time=15),
    Message('note_off', channel=9, note=54, velocity=61, time=0),
    Message('note_off', channel=9, note=44, velocity=61, time=0),
    Message('note_on', channel=9, note=54, velocity=61, time=33),
    Message('note_on', channel=9, note=70, velocity=61, time=0),
    Message('note_off', channel=9, note=70, velocity=61, time=15),
    Message('note_off', channel=9, note=54, velocity=61, time=0),
    Message('note_on', channel=9, note=36, velocity=81, time=33),
    Message('note_on', channel=9, note=39, velocity=33, time=0),
    Message('note_on', channel=9, note=43, velocity=127, time=0),
    Message('note_off', channel=9, note=39, velocity=33, time=15),
    Message('note_off', channel=9, note=36, velocity=81, time=0),
    Message('note_on', channel=9, note=54, velocity=50, time=33),
    Message('note_on', channel=9, note=70, velocity=55, time=0),
    Message('note_off', channel=9, note=43, velocity=127, time=10),
    Message('note_off', channel=9, note=70, velocity=55, time=5),
    Message('note_off', channel=9, note=54, velocity=50, time=0),
    Message('note_on', channel=9, note=36, velocity=88, time=33),
    Message('note_on', channel=9, note=41, velocity=127, time=0),
    Message('note_on', channel=9, note=54, velocity=50, time=0),
    Message('note_on', channel=9, note=82, velocity=73, time=0),
    Message('note_off', channel=9, note=82, velocity=73, time=15),
    Message('note_off', channel=9, note=54, velocity=50, time=0),
    Message('note_off', channel=9, note=36, velocity=88, time=0),
    Message('note_on', channel=9, note=36, velocity=79, time=33),
    Message('note_on', channel=9, note=54, velocity=50, time=0),
    Message('note_on', channel=9, note=70, velocity=57, time=0),
    Message('note_off', channel=9, note=70, velocity=57, time=15),
    Message('note_off', channel=9, note=54, velocity=50, time=0),
    Message('note_off', channel=9, note=36, velocity=79, time=0),
    Message('note_off', channel=9, note=41, velocity=127, time=7),
    Message('note_on', channel=9, note=36, velocity=79, time=26),
    Message('note_on', channel=9, note=44, velocity=59, time=0),
    Message('note_on', channel=9, note=45, velocity=127, time=0),
    Message('note_on', channel=9, note=54, velocity=50, time=0),
    Message('note_on', channel=9, note=70, velocity=51, time=0),
    Message('note_off', channel=9, note=70, velocity=51, time=15),
    Message('note_off', channel=9, note=54, velocity=50, time=0),
    Message('note_off', channel=9, note=44, velocity=59, time=0),
    Message('note_off', channel=9, note=36, velocity=79, time=0),
    Message('note_on', channel=9, note=36, velocity=91, time=33),
    Message('note_on', channel=9, note=54, velocity=50, time=0),
    Message('note_on', channel=9, note=70, velocity=49, time=0),
    Message('note_off', channel=9, note=70, velocity=49, time=15),
    Message('note_off', channel=9, note=54, velocity=50, time=0),
    Message('note_off', channel=9, note=36, velocity=91, time=0),
    Message('note_off', channel=9, note=45, velocity=127, time=6),
    Message('note_on', channel=9, note=44, velocity=71, time=27),
    Message('note_on', channel=9, note=48, velocity=127, time=0),
    Message('note_on', channel=9, note=54, velocity=50, time=0),
    Message('note_on', channel=9, note=70, velocity=71, time=0),
    Message('note_on', channel=9, note=83, velocity=49, time=0),
    Message('note_off', channel=9, note=83, velocity=49, time=15),
    Message('note_off', channel=9, note=70, velocity=71, time=0),
    Message('note_off', channel=9, note=54, velocity=50, time=0),
    Message('note_off', channel=9, note=44, velocity=71, time=0),
    Message('note_off', channel=9, note=48, velocity=127, time=17),
    Message('note_on', channel=9, note=47, velocity=127, time=16),
    Message('note_on', channel=9, note=54, velocity=50, time=0),
    Message('note_on', channel=9, note=70, velocity=57, time=0),
    Message('note_off', channel=9, note=70, velocity=57, time=15),
    Message('note_off', channel=9, note=54, velocity=50, time=0),
    Message('note_on', channel=9, note=54, velocity=50, time=33),
    Message('note_on', channel=9, note=70, velocity=59, time=0),
    Message('note_off', channel=9, note=70, velocity=59, time=15),
    Message('note_off', channel=9, note=54, velocity=50, time=0),
    Message('note_off', channel=9, note=47, velocity=127, time=11),
    Message('note_on', channel=9, note=45, velocity=127, time=22),
    Message('note_on', channel=9, note=54, velocity=50, time=0),
    Message('note_on', channel=9, note=70, velocity=55, time=0),
    Message('note_off', channel=9, note=70, velocity=55, time=15),
    Message('note_off', channel=9, note=54, velocity=50, time=0),
    Message('note_off', channel=9, note=45, velocity=127, time=12),
    Message('note_on', channel=9, note=36, velocity=127, time=21),
    Message('note_on', channel=9, note=42, velocity=127, time=0),
    Message('note_on', channel=9, note=49, velocity=127, time=0),
    Message('note_on', channel=9, note=70, velocity=110, time=0),
    Message('note_off', channel=9, note=49, velocity=127, time=28),
    Message('note_off', channel=9, note=70, velocity=110, time=4),
    Message('note_off', channel=9, note=42, velocity=127, time=0),
    Message('note_on', channel=9, note=36, velocity=81, time=16),
    Message('note_on', channel=9, note=70, velocity=87, time=0),
    Message('note_off', channel=9, note=70, velocity=87, time=22),
    Message('note_off', channel=9, note=36, velocity=81, time=1),
    Message('note_off', channel=9, note=36, velocity=127, time=25),
    Message('note_on', channel=9, note=36, velocity=67, time=0),
    Message('note_on', channel=9, note=70, velocity=76, time=0),
    Message('note_off', channel=9, note=36, velocity=67, time=24),
    Message('note_off', channel=9, note=70, velocity=76, time=6),
    Message('note_on', channel=9, note=36, velocity=68, time=18),
    Message('note_on', channel=9, note=42, velocity=65, time=0),
    Message('note_on', channel=9, note=70, velocity=83, time=0),
    Message('note_off', channel=9, note=70, velocity=83, time=28),
    Message('note_off', channel=9, note=36, velocity=68, time=0),
    Message('note_off', channel=9, note=42, velocity=65, time=2),
    Message('note_on', channel=9, note=36, velocity=77, time=18),
    Message('note_on', channel=9, note=38, velocity=127, time=0),
    Message('note_on', channel=9, note=42, velocity=110, time=0),
    Message('note_on', channel=9, note=70, velocity=95, time=0),
    Message('note_off', channel=9, note=36, velocity=77, time=19),
    Message('note_off', channel=9, note=70, velocity=95, time=10),
    Message('note_off', channel=9, note=42, velocity=110, time=6),
    Message('note_on', channel=9, note=40, velocity=73, time=13),
    Message('note_on', channel=9, note=70, velocity=71, time=0),
    Message('note_off', channel=9, note=70, velocity=71, time=27),
    Message('note_off', channel=9, note=38, velocity=127, time=11),
    Message('note_on', channel=9, note=36, velocity=104, time=10),
    Message('note_on', channel=9, note=42, velocity=83, time=0),
    Message('note_on', channel=9, note=70, velocity=87, time=0),
    Message('note_off', channel=9, note=40, velocity=73, time=22),
    Message('note_off', channel=9, note=70, velocity=87, time=10),
    Message('note_off', channel=9, note=36, velocity=104, time=2),
    Message('note_off', channel=9, note=42, velocity=83, time=2),
    Message('note_on', channel=9, note=70, velocity=80, time=12),
    Message('note_off', channel=9, note=70, velocity=80, time=27),
    Message('note_on', channel=9, note=36, velocity=122, time=21),
    Message('note_on', channel=9, note=42, velocity=127, time=0),
    Message('note_on', channel=9, note=70, velocity=95, time=0),
    Message('note_off', channel=9, note=70, velocity=95, time=32),
    Message('note_off', channel=9, note=42, velocity=127, time=1),
    Message('note_off', channel=9, note=36, velocity=122, time=8),
    Message('note_on', channel=9, note=36, velocity=77, time=7),
    Message('note_on', channel=9, note=70, velocity=76, time=0),
    Message('note_off', channel=9, note=36, velocity=77, time=25),
    Message('note_off', channel=9, note=70, velocity=76, time=1),
    Message('note_on', channel=9, note=36, velocity=71, time=22),
    Message('note_on', channel=9, note=42, velocity=51, time=0),
    Message('note_on', channel=9, note=70, velocity=91, time=0),
    Message('note_off', channel=9, note=70, velocity=91, time=27),
    Message('note_off', channel=9, note=42, velocity=51, time=2),
    Message('note_off', channel=9, note=36, velocity=71, time=1),
    Message('note_on', channel=9, note=36, velocity=64, time=18),
    Message('note_on', channel=9, note=70, velocity=95, time=0),
    Message('note_off', channel=9, note=70, velocity=95, time=27),
    Message('note_off', channel=9, note=36, velocity=64, time=0),
    Message('note_on', channel=9, note=36, velocity=75, time=21),
    Message('note_on', channel=9, note=38, velocity=127, time=0),
    Message('note_on', channel=9, note=42, velocity=91, time=0),
    Message('note_on', channel=9, note=70, velocity=110, time=0),
    Message('note_off', channel=9, note=42, velocity=91, time=30),
    Message('note_off', channel=9, note=36, velocity=75, time=4),
    Message('note_off', channel=9, note=70, velocity=110, time=3),
    Message('note_on', channel=9, note=40, velocity=73, time=11),
    Message('note_on', channel=9, note=70, velocity=95, time=0),
    Message('note_off', channel=9, note=70, velocity=95, time=29),
    Message('note_off', channel=9, note=38, velocity=127, time=5),
    Message('note_on', channel=9, note=42, velocity=91, time=14),
    Message('note_on', channel=9, note=70, velocity=95, time=0),
    Message('note_off', channel=9, note=40, velocity=73, time=20),
    Message('note_off', channel=9, note=70, velocity=95, time=11),
    Message('note_off', channel=9, note=42, velocity=91, time=3),
    Message('note_on', channel=9, note=70, velocity=104, time=14),
    Message('note_off', channel=9, note=70, velocity=104, time=23),
    Message('note_on', channel=9, note=36, velocity=127, time=25),
    Message('note_on', channel=9, note=42, velocity=127, time=0),
    Message('note_on', channel=9, note=70, velocity=110, time=0),
    Message('note_off', channel=9, note=70, velocity=110, time=32),
    Message('note_off', channel=9, note=42, velocity=127, time=0),
    Message('note_on', channel=9, note=36, velocity=81, time=16),
    Message('note_on', channel=9, note=70, velocity=87, time=0),
    Message('note_off', channel=9, note=70, velocity=87, time=22),
    Message('note_off', channel=9, note=36, velocity=81, time=1),
    Message('note_off', channel=9, note=36, velocity=127, time=25),
    Message('note_on', channel=9, note=36, velocity=67, time=0),
    Message('note_on', channel=9, note=70, velocity=76, time=0),
    Message('note_off', channel=9, note=36, velocity=67, time=24),
    Message('note_off', channel=9, note=70, velocity=76, time=6),
    Message('note_on', channel=9, note=36, velocity=68, time=18),
    Message('note_on', channel=9, note=42, velocity=65, time=0),
    Message('note_on', channel=9, note=70, velocity=83, time=0),
    Message('note_off', channel=9, note=70, velocity=83, time=28),
    Message('note_off', channel=9, note=36, velocity=68, time=0),
    Message('note_off', channel=9, note=42, velocity=65, time=2),
    Message('note_on', channel=9, note=36, velocity=77, time=18),
    Message('note_on', channel=9, note=38, velocity=127, time=0),
    Message('note_on', channel=9, note=42, velocity=110, time=0),
    Message('note_on', channel=9, note=70, velocity=95, time=0),
    Message('note_off', channel=9, note=36, velocity=77, time=19),
    Message('note_off', channel=9, note=70, velocity=95, time=10),
    Message('note_off', channel=9, note=42, velocity=110, time=6),
    Message('note_on', channel=9, note=40, velocity=73, time=13),
    Message('note_on', channel=9, note=70, velocity=71, time=0),
    Message('note_off', channel=9, note=70, velocity=71, time=27),
    Message('note_off', channel=9, note=38, velocity=127, time=11),
    Message('note_on', channel=9, note=36, velocity=104, time=10),
    Message('note_on', channel=9, note=42, velocity=83, time=0),
    Message('note_on', channel=9, note=70, velocity=87, time=0),
    Message('note_off', channel=9, note=40, velocity=73, time=22),
    Message('note_off', channel=9, note=70, velocity=87, time=10),
    Message('note_off', channel=9, note=36, velocity=104, time=2),
    Message('note_off', channel=9, note=42, velocity=83, time=2),
    Message('note_on', channel=9, note=70, velocity=80, time=12),
    Message('note_off', channel=9, note=70, velocity=80, time=27),
    Message('note_on', channel=9, note=36, velocity=122, time=21),
    Message('note_on', channel=9, note=42, velocity=127, time=0),
    Message('note_on', channel=9, note=70, velocity=95, time=0),
    Message('note_off', channel=9, note=70, velocity=95, time=32),
    Message('note_off', channel=9, note=42, velocity=127, time=1),
    Message('note_off', channel=9, note=36, velocity=122, time=8),
    Message('note_on', channel=9, note=36, velocity=77, time=7),
    Message('note_on', channel=9, note=70, velocity=76, time=0),
    Message('note_off', channel=9, note=36, velocity=77, time=25),
    Message('note_off', channel=9, note=70, velocity=76, time=1),
    Message('note_on', channel=9, note=36, velocity=71, time=22),
    Message('note_on', channel=9, note=42, velocity=51, time=0),
    Message('note_on', channel=9, note=70, velocity=91, time=0),
    Message('note_off', channel=9, note=70, velocity=91, time=27),
    Message('note_off', channel=9, note=42, velocity=51, time=2),
    Message('note_off', channel=9, note=36, velocity=71, time=1),
    Message('note_on', channel=9, note=36, velocity=64, time=18),
    Message('note_on', channel=9, note=70, velocity=95, time=0),
    Message('note_off', channel=9, note=70, velocity=95, time=27),
    Message('note_off', channel=9, note=36, velocity=64, time=0),
    Message('note_on', channel=9, note=36, velocity=75, time=21),
    Message('note_on', channel=9, note=38, velocity=127, time=0),
    Message('note_on', channel=9, note=42, velocity=91, time=0),
    Message('note_on', channel=9, note=70, velocity=110, time=0),
    Message('note_off', channel=9, note=42, velocity=91, time=30),
    Message('note_off', channel=9, note=36, velocity=75, time=4),
    Message('note_off', channel=9, note=70, velocity=110, time=3),
    Message('note_on', channel=9, note=40, velocity=73, time=11),
    Message('note_on', channel=9, note=70, velocity=95, time=0),
    Message('note_off', channel=9, note=70, velocity=95, time=29),
    Message('note_off', channel=9, note=38, velocity=127, time=5),
    Message('note_on', channel=9, note=42, velocity=91, time=14),
    Message('note_on', channel=9, note=70, velocity=95, time=0),
    Message('note_off', channel=9, note=40, velocity=73, time=20),
    Message('note_off', channel=9, note=70, velocity=95, time=11),
    Message('note_off', channel=9, note=42, velocity=91, time=3),
    Message('note_on', channel=9, note=70, velocity=104, time=14),
    Message('note_off', channel=9, note=70, velocity=104, time=23),
    Message('note_on', channel=9, note=36, velocity=127, time=25),
    Message('note_on', channel=9, note=42, velocity=127, time=0),
    Message('note_on', channel=9, note=70, velocity=110, time=0),
    Message('note_off', channel=9, note=70, velocity=110, time=32),
    Message('note_off', channel=9, note=42, velocity=127, time=0),
    Message('note_on', channel=9, note=36, velocity=81, time=16),
    Message('note_on', channel=9, note=70, velocity=87, time=0),
    Message('note_off', channel=9, note=70, velocity=87, time=22),
    Message('note_off', channel=9, note=36, velocity=81, time=1),
    Message('note_off', channel=9, note=36, velocity=127, time=25),
    Message('note_on', channel=9, note=36, velocity=67, time=0),
    Message('note_on', channel=9, note=70, velocity=76, time=0),
    Message('note_off', channel=9, note=36, velocity=67, time=24),
    Message('note_off', channel=9, note=70, velocity=76, time=6),
    Message('note_on', channel=9, note=36, velocity=68, time=18),
    Message('note_on', channel=9, note=42, velocity=65, time=0),
    Message('note_on', channel=9, note=70, velocity=83, time=0),
    Message('note_off', channel=9, note=70, velocity=83, time=28),
    Message('note_off', channel=9, note=36, velocity=68, time=0),
    Message('note_off', channel=9, note=42, velocity=65, time=2),
    Message('note_on', channel=9, note=36, velocity=77, time=18),
    Message('note_on', channel=9, note=38, velocity=127, time=0),
    Message('note_on', channel=9, note=42, velocity=110, time=0),
    Message('note_on', channel=9, note=70, velocity=95, time=0),
    Message('note_off', channel=9, note=36, velocity=77, time=19),
    Message('note_off', channel=9, note=70, velocity=95, time=10),
    Message('note_off', channel=9, note=42, velocity=110, time=6),
    Message('note_on', channel=9, note=40, velocity=73, time=13),
    Message('note_on', channel=9, note=70, velocity=71, time=0),
    Message('note_off', channel=9, note=70, velocity=71, time=27),
    Message('note_off', channel=9, note=38, velocity=127, time=11),
    Message('note_on', channel=9, note=36, velocity=104, time=10),
    Message('note_on', channel=9, note=42, velocity=83, time=0),
    Message('note_on', channel=9, note=70, velocity=87, time=0),
    Message('note_off', channel=9, note=40, velocity=73, time=22),
    Message('note_off', channel=9, note=70, velocity=87, time=10),
    Message('note_off', channel=9, note=36, velocity=104, time=2),
    Message('note_off', channel=9, note=42, velocity=83, time=2),
    Message('note_on', channel=9, note=70, velocity=80, time=12),
    Message('note_off', channel=9, note=70, velocity=80, time=27),
    Message('note_on', channel=9, note=36, velocity=122, time=21),
    Message('note_on', channel=9, note=42, velocity=127, time=0),
    Message('note_on', channel=9, note=70, velocity=95, time=0),
    Message('note_off', channel=9, note=70, velocity=95, time=32),
    Message('note_off', channel=9, note=42, velocity=127, time=1),
    Message('note_off', channel=9, note=36, velocity=122, time=8),
    Message('note_on', channel=9, note=36, velocity=77, time=7),
    Message('note_on', channel=9, note=70, velocity=76, time=0),
    Message('note_off', channel=9, note=36, velocity=77, time=25),
    Message('note_off', channel=9, note=70, velocity=76, time=1),
    Message('note_on', channel=9, note=36, velocity=71, time=22),
    Message('note_on', channel=9, note=42, velocity=51, time=0),
    Message('note_on', channel=9, note=70, velocity=91, time=0),
    Message('note_off', channel=9, note=70, velocity=91, time=27),
    Message('note_off', channel=9, note=42, velocity=51, time=2),
    Message('note_off', channel=9, note=36, velocity=71, time=1),
    Message('note_on', channel=9, note=36, velocity=64, time=18),
    Message('note_on', channel=9, note=70, velocity=95, time=0),
    Message('note_off', channel=9, note=70, velocity=95, time=27),
    Message('note_off', channel=9, note=36, velocity=64, time=0),
    Message('note_on', channel=9, note=36, velocity=75, time=21),
    Message('note_on', channel=9, note=38, velocity=127, time=0),
    Message('note_on', channel=9, note=42, velocity=91, time=0),
    Message('note_on', channel=9, note=70, velocity=110, time=0),
    Message('note_off', channel=9, note=42, velocity=91, time=30),
    Message('note_off', channel=9, note=36, velocity=75, time=4),
    Message('note_off', channel=9, note=70, velocity=110, time=3),
    Message('note_on', channel=9, note=40, velocity=73, time=11),
    Message('note_on', channel=9, note=70, velocity=95, time=0),
    Message('note_off', channel=9, note=70, velocity=95, time=29),
    Message('note_off', channel=9, note=38, velocity=127, time=5),
    Message('note_on', channel=9, note=42, velocity=91, time=14),
    Message('note_on', channel=9, note=70, velocity=95, time=0),
    Message('note_off', channel=9, note=40, velocity=73, time=20),
    Message('note_off', channel=9, note=70, velocity=95, time=11),
    Message('note_off', channel=9, note=42, velocity=91, time=3),
    Message('note_on', channel=9, note=70, velocity=104, time=14),
    Message('note_off', channel=9, note=70, velocity=104, time=23),
    Message('note_on', channel=9, note=36, velocity=127, time=25),
    Message('note_on', channel=9, note=42, velocity=127, time=0),
    Message('note_on', channel=9, note=70, velocity=110, time=0),
    Message('note_off', channel=9, note=70, velocity=110, time=32),
    Message('note_off', channel=9, note=42, velocity=127, time=0),
    Message('note_on', channel=9, note=36, velocity=81, time=16),
    Message('note_on', channel=9, note=70, velocity=87, time=0),
    Message('note_off', channel=9, note=70, velocity=87, time=22),
    Message('note_off', channel=9, note=36, velocity=81, time=1),
    Message('note_off', channel=9, note=36, velocity=127, time=25),
    Message('note_on', channel=9, note=36, velocity=67, time=0),
    Message('note_on', channel=9, note=70, velocity=76, time=0),
    Message('note_off', channel=9, note=36, velocity=67, time=24),
    Message('note_off', channel=9, note=70, velocity=76, time=6),
    Message('note_on', channel=9, note=36, velocity=68, time=18),
    Message('note_on', channel=9, note=42, velocity=65, time=0),
    Message('note_on', channel=9, note=70, velocity=83, time=0),
    Message('note_off', channel=9, note=70, velocity=83, time=28),
    Message('note_off', channel=9, note=36, velocity=68, time=0),
    Message('note_off', channel=9, note=42, velocity=65, time=2),
    Message('note_on', channel=9, note=36, velocity=77, time=18),
    Message('note_on', channel=9, note=38, velocity=127, time=0),
    Message('note_on', channel=9, note=42, velocity=110, time=0),
    Message('note_on', channel=9, note=70, velocity=95, time=0),
    Message('note_off', channel=9, note=36, velocity=77, time=19),
    Message('note_off', channel=9, note=70, velocity=95, time=10),
    Message('note_off', channel=9, note=42, velocity=110, time=6),
    Message('note_on', channel=9, note=40, velocity=73, time=13),
    Message('note_on', channel=9, note=70, velocity=71, time=0),
    Message('note_off', channel=9, note=70, velocity=71, time=27),
    Message('note_off', channel=9, note=38, velocity=127, time=11),
    Message('note_on', channel=9, note=36, velocity=104, time=10),
    Message('note_on', channel=9, note=42, velocity=83, time=0),
    Message('note_on', channel=9, note=70, velocity=87, time=0),
    Message('note_off', channel=9, note=40, velocity=73, time=22),
    Message('note_off', channel=9, note=70, velocity=87, time=10),
    Message('note_off', channel=9, note=36, velocity=104, time=2),
    Message('note_off', channel=9, note=42, velocity=83, time=2),
    Message('note_on', channel=9, note=70, velocity=80, time=12),
    Message('note_off', channel=9, note=70, velocity=80, time=27),
    Message('note_on', channel=9, note=36, velocity=122, time=21),
    Message('note_on', channel=9, note=42, velocity=127, time=0),
    Message('note_on', channel=9, note=70, velocity=95, time=0),
    Message('note_off', channel=9, note=70, velocity=95, time=32),
    Message('note_off', channel=9, note=42, velocity=127, time=1),
    Message('note_off', channel=9, note=36, velocity=122, time=8),
    Message('note_on', channel=9, note=36, velocity=77, time=7),
    Message('note_on', channel=9, note=70, velocity=76, time=0),
    Message('note_off', channel=9, note=36, velocity=77, time=25),
    Message('note_off', channel=9, note=70, velocity=76, time=1),
    Message('note_on', channel=9, note=36, velocity=71, time=22),
    Message('note_on', channel=9, note=42, velocity=51, time=0),
    Message('note_on', channel=9, note=70, velocity=91, time=0),
    Message('note_off', channel=9, note=70, velocity=91, time=27),
    Message('note_off', channel=9, note=42, velocity=51, time=2),
    Message('note_off', channel=9, note=36, velocity=71, time=1),
    Message('note_on', channel=9, note=36, velocity=64, time=18),
    Message('note_on', channel=9, note=70, velocity=95, time=0),
    Message('note_off', channel=9, note=70, velocity=95, time=27),
    Message('note_off', channel=9, note=36, velocity=64, time=0),
    Message('note_on', channel=9, note=36, velocity=75, time=21),
    Message('note_on', channel=9, note=38, velocity=127, time=0),
    Message('note_on', channel=9, note=42, velocity=91, time=0),
    Message('note_on', channel=9, note=70, velocity=110, time=0),
    Message('note_off', channel=9, note=42, velocity=91, time=30),
    Message('note_off', channel=9, note=36, velocity=75, time=4),
    Message('note_off', channel=9, note=70, velocity=110, time=3),
    Message('note_on', channel=9, note=40, velocity=73, time=11),
    Message('note_on', channel=9, note=70, velocity=95, time=0),
    Message('note_off', channel=9, note=70, velocity=95, time=29),
    Message('note_off', channel=9, note=38, velocity=127, time=5),
    Message('note_on', channel=9, note=42, velocity=91, time=14),
    Message('note_on', channel=9, note=70, velocity=95, time=0),
    Message('note_off', channel=9, note=40, velocity=73, time=20),
    Message('note_off', channel=9, note=70, velocity=95, time=11),
    Message('note_off', channel=9, note=42, velocity=91, time=3),
    Message('note_on', channel=9, note=70, velocity=104, time=14),
    Message('note_off', channel=9, note=70, velocity=104, time=23),
    Message('note_on', channel=9, note=36, velocity=127, time=25),
    Message('note_on', channel=9, note=42, velocity=127, time=0),
    Message('note_on', channel=9, note=49, velocity=80, time=0),
    Message('note_on', channel=9, note=70, velocity=110, time=0),
    Message('note_off', channel=9, note=70, velocity=110, time=32),
    Message('note_off', channel=9, note=42, velocity=127, time=0),
    Message('note_on', channel=9, note=36, velocity=81, time=16),
    Message('note_on', channel=9, note=70, velocity=87, time=0),
    Message('note_off', channel=9, note=49, velocity=80, time=9),
    Message('note_off', channel=9, note=70, velocity=87, time=13),
    Message('note_off', channel=9, note=36, velocity=81, time=1),
    Message('note_off', channel=9, note=36, velocity=127, time=25),
    Message('note_on', channel=9, note=36, velocity=67, time=0),
    Message('note_on', channel=9, note=70, velocity=76, time=0),
    Message('note_off', channel=9, note=36, velocity=67, time=24),
    Message('note_off', channel=9, note=70, velocity=76, time=6),
    Message('note_on', channel=9, note=36, velocity=68, time=18),
    Message('note_on', channel=9, note=42, velocity=65, time=0),
    Message('note_on', channel=9, note=70, velocity=83, time=0),
    Message('note_off', channel=9, note=70, velocity=83, time=28),
    Message('note_off', channel=9, note=36, velocity=68, time=0),
    Message('note_off', channel=9, note=42, velocity=65, time=2),
    Message('note_on', channel=9, note=36, velocity=77, time=18),
    Message('note_on', channel=9, note=38, velocity=127, time=0),
    Message('note_on', channel=9, note=42, velocity=110, time=0),
    Message('note_on', channel=9, note=70, velocity=95, time=0),
    Message('note_off', channel=9, note=36, velocity=77, time=19),
    Message('note_off', channel=9, note=70, velocity=95, time=10),
    Message('note_off', channel=9, note=42, velocity=110, time=6),
    Message('note_on', channel=9, note=40, velocity=73, time=13),
    Message('note_on', channel=9, note=70, velocity=71, time=0),
    Message('note_off', channel=9, note=70, velocity=71, time=27),
    Message('note_off', channel=9, note=38, velocity=127, time=11),
    Message('note_on', channel=9, note=36, velocity=104, time=10),
    Message('note_on', channel=9, note=42, velocity=83, time=0),
    Message('note_on', channel=9, note=70, velocity=87, time=0),
    Message('note_off', channel=9, note=40, velocity=73, time=22),
    Message('note_off', channel=9, note=70, velocity=87, time=10),
    Message('note_off', channel=9, note=36, velocity=104, time=2),
    Message('note_off', channel=9, note=42, velocity=83, time=2),
    Message('note_on', channel=9, note=70, velocity=80, time=12),
    Message('note_off', channel=9, note=70, velocity=80, time=27),
    Message('note_on', channel=9, note=36, velocity=122, time=21),
    Message('note_on', channel=9, note=42, velocity=127, time=0),
    Message('note_on', channel=9, note=70, velocity=95, time=0),
    Message('note_off', channel=9, note=70, velocity=95, time=32),
    Message('note_off', channel=9, note=42, velocity=127, time=1),
    Message('note_off', channel=9, note=36, velocity=122, time=8),
    Message('note_on', channel=9, note=36, velocity=77, time=7),
    Message('note_on', channel=9, note=70, velocity=76, time=0),
    Message('note_off', channel=9, note=36, velocity=77, time=25),
    Message('note_off', channel=9, note=70, velocity=76, time=1),
    Message('note_on', channel=9, note=36, velocity=71, time=22),
    Message('note_on', channel=9, note=42, velocity=51, time=0),
    Message('note_on', channel=9, note=70, velocity=91, time=0),
    Message('note_off', channel=9, note=70, velocity=91, time=27),
    Message('note_off', channel=9, note=42, velocity=51, time=2),
    Message('note_off', channel=9, note=36, velocity=71, time=1),
    Message('note_on', channel=9, note=36, velocity=64, time=18),
    Message('note_on', channel=9, note=70, velocity=95, time=0),
    Message('note_off', channel=9, note=70, velocity=95, time=27),
    Message('note_off', channel=9, note=36, velocity=64, time=0),
    Message('note_on', channel=9, note=36, velocity=75, time=21),
    Message('note_on', channel=9, note=38, velocity=127, time=0),
    Message('note_on', channel=9, note=42, velocity=91, time=0),
    Message('note_on', channel=9, note=70, velocity=110, time=0),
    Message('note_off', channel=9, note=42, velocity=91, time=30),
    Message('note_off', channel=9, note=36, velocity=75, time=4),
    Message('note_off', channel=9, note=70, velocity=110, time=3),
    Message('note_on', channel=9, note=40, velocity=73, time=11),
    Message('note_on', channel=9, note=70, velocity=95, time=0),
    Message('note_off', channel=9, note=70, velocity=95, time=29),
    Message('note_off', channel=9, note=38, velocity=127, time=5),
    Message('note_on', channel=9, note=42, velocity=91, time=14),
    Message('note_on', channel=9, note=70, velocity=95, time=0),
    Message('note_off', channel=9, note=40, velocity=73, time=20),
    Message('note_off', channel=9, note=70, velocity=95, time=11),
    Message('note_off', channel=9, note=42, velocity=91, time=3),
    Message('note_on', channel=9, note=70, velocity=104, time=14),
    Message('note_off', channel=9, note=70, velocity=104, time=23),
    Message('note_on', channel=9, note=36, velocity=127, time=25),
    Message('note_on', channel=9, note=42, velocity=127, time=0),
    Message('note_on', channel=9, note=70, velocity=110, time=0),
    Message('note_off', channel=9, note=70, velocity=110, time=32),
    Message('note_off', channel=9, note=42, velocity=127, time=0),
    Message('note_on', channel=9, note=36, velocity=81, time=16),
    Message('note_on', channel=9, note=70, velocity=87, time=0),
    Message('note_off', channel=9, note=70, velocity=87, time=22),
    Message('note_off', channel=9, note=36, velocity=81, time=1),
    Message('note_off', channel=9, note=36, velocity=127, time=25),
    Message('note_on', channel=9, note=36, velocity=67, time=0),
    Message('note_on', channel=9, note=70, velocity=76, time=0),
    Message('note_off', channel=9, note=36, velocity=67, time=24),
    Message('note_off', channel=9, note=70, velocity=76, time=6),
    Message('note_on', channel=9, note=36, velocity=68, time=18),
    Message('note_on', channel=9, note=42, velocity=65, time=0),
    Message('note_on', channel=9, note=70, velocity=83, time=0),
    Message('note_off', channel=9, note=70, velocity=83, time=28),
    Message('note_off', channel=9, note=36, velocity=68, time=0),
    Message('note_off', channel=9, note=42, velocity=65, time=2),
    Message('note_on', channel=9, note=36, velocity=77, time=18),
    Message('note_on', channel=9, note=38, velocity=127, time=0),
    Message('note_on', channel=9, note=42, velocity=110, time=0),
    Message('note_on', channel=9, note=70, velocity=95, time=0),
    Message('note_off', channel=9, note=36, velocity=77, time=19),
    Message('note_off', channel=9, note=70, velocity=95, time=10),
    Message('note_off', channel=9, note=42, velocity=110, time=6),
    Message('note_on', channel=9, note=40, velocity=73, time=13),
    Message('note_on', channel=9, note=70, velocity=71, time=0),
    Message('note_off', channel=9, note=70, velocity=71, time=27),
    Message('note_off', channel=9, note=38, velocity=127, time=11),
    Message('note_on', channel=9, note=36, velocity=104, time=10),
    Message('note_on', channel=9, note=42, velocity=83, time=0),
    Message('note_on', channel=9, note=70, velocity=87, time=0),
    Message('note_off', channel=9, note=40, velocity=73, time=22),
    Message('note_off', channel=9, note=70, velocity=87, time=10),
    Message('note_off', channel=9, note=36, velocity=104, time=2),
    Message('note_off', channel=9, note=42, velocity=83, time=2),
    Message('note_on', channel=9, note=70, velocity=80, time=12),
    Message('note_off', channel=9, note=70, velocity=80, time=27),
    Message('note_on', channel=9, note=36, velocity=122, time=21),
    Message('note_on', channel=9, note=42, velocity=127, time=0),
    Message('note_on', channel=9, note=70, velocity=95, time=0),
    Message('note_off', channel=9, note=70, velocity=95, time=32),
    Message('note_off', channel=9, note=42, velocity=127, time=1),
    Message('note_off', channel=9, note=36, velocity=122, time=8),
    Message('note_on', channel=9, note=36, velocity=77, time=7),
    Message('note_on', channel=9, note=70, velocity=76, time=0),
    Message('note_off', channel=9, note=36, velocity=77, time=25),
    Message('note_off', channel=9, note=70, velocity=76, time=1),
    Message('note_on', channel=9, note=36, velocity=71, time=22),
    Message('note_on', channel=9, note=42, velocity=51, time=0),
    Message('note_on', channel=9, note=70, velocity=91, time=0),
    Message('note_off', channel=9, note=70, velocity=91, time=27),
    Message('note_off', channel=9, note=42, velocity=51, time=2),
    Message('note_off', channel=9, note=36, velocity=71, time=1),
    Message('note_on', channel=9, note=36, velocity=64, time=18),
    Message('note_on', channel=9, note=70, velocity=95, time=0),
    Message('note_off', channel=9, note=70, velocity=95, time=27),
    Message('note_off', channel=9, note=36, velocity=64, time=0),
    Message('note_on', channel=9, note=36, velocity=75, time=21),
    Message('note_on', channel=9, note=38, velocity=127, time=0),
    Message('note_on', channel=9, note=42, velocity=91, time=0),
    Message('note_on', channel=9, note=70, velocity=110, time=0),
    Message('note_off', channel=9, note=42, velocity=91, time=30),
    Message('note_off', channel=9, note=36, velocity=75, time=4),
    Message('note_off', channel=9, note=70, velocity=110, time=3),
    Message('note_on', channel=9, note=40, velocity=73, time=11),
    Message('note_on', channel=9, note=70, velocity=95, time=0),
    Message('note_off', channel=9, note=70, velocity=95, time=29),
    Message('note_off', channel=9, note=38, velocity=127, time=5),
    Message('note_on', channel=9, note=42, velocity=91, time=14),
    Message('note_on', channel=9, note=70, velocity=95, time=0),
    Message('note_off', channel=9, note=40, velocity=73, time=20),
    Message('note_off', channel=9, note=70, velocity=95, time=11),
    Message('note_off', channel=9, note=42, velocity=91, time=3),
    Message('note_on', channel=9, note=70, velocity=104, time=14),
    Message('note_off', channel=9, note=70, velocity=104, time=23),
    Message('note_on', channel=9, note=36, velocity=127, time=25),
    Message('note_on', channel=9, note=42, velocity=127, time=0),
    Message('note_on', channel=9, note=70, velocity=110, time=0),
    Message('note_off', channel=9, note=70, velocity=110, time=32),
    Message('note_off', channel=9, note=42, velocity=127, time=0),
    Message('note_on', channel=9, note=36, velocity=81, time=16),
    Message('note_on', channel=9, note=70, velocity=87, time=0),
    Message('note_off', channel=9, note=70, velocity=87, time=22),
    Message('note_off', channel=9, note=36, velocity=81, time=1),
    Message('note_off', channel=9, note=36, velocity=127, time=25),
    Message('note_on', channel=9, note=36, velocity=67, time=0),
    Message('note_on', channel=9, note=70, velocity=76, time=0),
    Message('note_off', channel=9, note=36, velocity=67, time=24),
    Message('note_off', channel=9, note=70, velocity=76, time=6),
    Message('note_on', channel=9, note=36, velocity=68, time=18),
    Message('note_on', channel=9, note=36, velocity=127, time=0),
    Message('note_on', channel=9, note=42, velocity=65, time=0),
    Message('note_on', channel=9, note=70, velocity=83, time=0),
    Message('note_off', channel=9, note=36, velocity=127, time=18),
    Message('note_off', channel=9, note=70, velocity=83, time=10),
    Message('note_off', channel=9, note=36, velocity=68, time=0),
    Message('note_off', channel=9, note=42, velocity=65, time=2),
    Message('note_on', channel=9, note=36, velocity=77, time=18),
    Message('note_on', channel=9, note=38, velocity=127, time=0),
    Message('note_on', channel=9, note=42, velocity=110, time=0),
    Message('note_on', channel=9, note=70, velocity=95, time=0),
    Message('note_off', channel=9, note=36, velocity=77, time=19),
    Message('note_off', channel=9, note=70, velocity=95, time=10),
    Message('note_off', channel=9, note=42, velocity=110, time=6),
    Message('note_on', channel=9, note=40, velocity=73, time=13),
    Message('note_on', channel=9, note=70, velocity=71, time=0),
    Message('note_off', channel=9, note=70, velocity=71, time=27),
    Message('note_off', channel=9, note=38, velocity=127, time=11),
    Message('note_on', channel=9, note=36, velocity=104, time=10),
    Message('note_on', channel=9, note=42, velocity=83, time=0),
    Message('note_on', channel=9, note=70, velocity=87, time=0),
    Message('note_off', channel=9, note=40, velocity=73, time=22),
    Message('note_off', channel=9, note=70, velocity=87, time=10),
    Message('note_off', channel=9, note=36, velocity=104, time=2),
    Message('note_off', channel=9, note=42, velocity=83, time=2),
    Message('note_on', channel=9, note=70, velocity=80, time=12),
    Message('note_off', channel=9, note=70, velocity=80, time=27),
    Message('note_on', channel=9, note=36, velocity=122, time=21),
    Message('note_on', channel=9, note=42, velocity=127, time=0),
    Message('note_on', channel=9, note=70, velocity=95, time=0),
    Message('note_off', channel=9, note=70, velocity=95, time=32),
    Message('note_off', channel=9, note=42, velocity=127, time=1),
    Message('note_off', channel=9, note=36, velocity=122, time=8),
    Message('note_on', channel=9, note=36, velocity=77, time=7),
    Message('note_on', channel=9, note=70, velocity=76, time=0),
    Message('note_off', channel=9, note=36, velocity=77, time=25),
    Message('note_off', channel=9, note=70, velocity=76, time=1),
    Message('note_on', channel=9, note=36, velocity=71, time=22),
    Message('note_on', channel=9, note=42, velocity=51, time=0),
    Message('note_on', channel=9, note=70, velocity=91, time=0),
    Message('note_off', channel=9, note=70, velocity=91, time=27),
    Message('note_off', channel=9, note=42, velocity=51, time=2),
    Message('note_off', channel=9, note=36, velocity=71, time=1),
    Message('note_on', channel=9, note=36, velocity=64, time=18),
    Message('note_on', channel=9, note=70, velocity=95, time=0),
    Message('note_off', channel=9, note=70, velocity=95, time=27),
    Message('note_off', channel=9, note=36, velocity=64, time=0),
    Message('note_on', channel=9, note=36, velocity=75, time=21),
    Message('note_on', channel=9, note=38, velocity=127, time=0),
    Message('note_on', channel=9, note=42, velocity=91, time=0),
    Message('note_on', channel=9, note=70, velocity=110, time=0),
    Message('note_off', channel=9, note=42, velocity=91, time=30),
    Message('note_off', channel=9, note=36, velocity=75, time=4),
    Message('note_off', channel=9, note=70, velocity=110, time=3),
    Message('note_on', channel=9, note=40, velocity=73, time=11),
    Message('note_on', channel=9, note=70, velocity=95, time=0),
    Message('note_off', channel=9, note=70, velocity=95, time=29),
    Message('note_off', channel=9, note=38, velocity=127, time=5),
    Message('note_on', channel=9, note=42, velocity=91, time=14),
    Message('note_on', channel=9, note=70, velocity=95, time=0),
    Message('note_off', channel=9, note=40, velocity=73, time=20),
    Message('note_off', channel=9, note=70, velocity=95, time=11),
    Message('note_off', channel=9, note=42, velocity=91, time=3),
    Message('note_on', channel=9, note=70, velocity=104, time=14),
    Message('note_off', channel=9, note=70, velocity=104, time=23),
    Message('note_on', channel=9, note=36, velocity=127, time=25),
    Message('note_on', channel=9, note=42, velocity=127, time=0),
    Message('note_on', channel=9, note=70, velocity=110, time=0),
    Message('note_off', channel=9, note=70, velocity=110, time=32),
    Message('note_off', channel=9, note=42, velocity=127, time=0),
    Message('note_on', channel=9, note=36, velocity=81, time=16),
    Message('note_on', channel=9, note=70, velocity=87, time=0),
    Message('note_off', channel=9, note=70, velocity=87, time=22),
    Message('note_off', channel=9, note=36, velocity=81, time=1),
    Message('note_off', channel=9, note=36, velocity=127, time=25),
    Message('note_on', channel=9, note=36, velocity=67, time=0),
    Message('note_on', channel=9, note=70, velocity=76, time=0),
    Message('note_off', channel=9, note=36, velocity=67, time=24),
    Message('note_off', channel=9, note=70, velocity=76, time=6),
    Message('note_on', channel=9, note=36, velocity=68, time=18),
    Message('note_on', channel=9, note=36, velocity=127, time=0),
    Message('note_on', channel=9, note=42, velocity=65, time=0),
    Message('note_on', channel=9, note=70, velocity=83, time=0),
    Message('note_off', channel=9, note=36, velocity=127, time=22),
    Message('note_off', channel=9, note=70, velocity=83, time=6),
    Message('note_off', channel=9, note=36, velocity=68, time=0),
    Message('note_off', channel=9, note=42, velocity=65, time=2),
    Message('note_on', channel=9, note=36, velocity=77, time=18),
    Message('note_on', channel=9, note=38, velocity=127, time=0),
    Message('note_on', channel=9, note=42, velocity=110, time=0),
    Message('note_on', channel=9, note=70, velocity=95, time=0),
    Message('note_off', channel=9, note=36, velocity=77, time=19),
    Message('note_off', channel=9, note=70, velocity=95, time=10),
    Message('note_off', channel=9, note=42, velocity=110, time=6),
    Message('note_on', channel=9, note=40, velocity=73, time=13),
    Message('note_on', channel=9, note=70, velocity=71, time=0),
    Message('note_off', channel=9, note=70, velocity=71, time=27),
    Message('note_off', channel=9, note=38, velocity=127, time=11),
    Message('note_on', channel=9, note=36, velocity=104, time=10),
    Message('note_on', channel=9, note=42, velocity=83, time=0),
    Message('note_on', channel=9, note=70, velocity=87, time=0),
    Message('note_off', channel=9, note=40, velocity=73, time=22),
    Message('note_off', channel=9, note=70, velocity=87, time=10),
    Message('note_off', channel=9, note=36, velocity=104, time=2),
    Message('note_off', channel=9, note=42, velocity=83, time=2),
    Message('note_on', channel=9, note=70, velocity=80, time=12),
    Message('note_off', channel=9, note=70, velocity=80, time=27),
    Message('note_on', channel=9, note=36, velocity=122, time=21),
    Message('note_on', channel=9, note=42, velocity=127, time=0),
    Message('note_on', channel=9, note=70, velocity=95, time=0),
    Message('note_off', channel=9, note=70, velocity=95, time=32),
    Message('note_off', channel=9, note=42, velocity=127, time=1),
    Message('note_off', channel=9, note=36, velocity=122, time=8),
    Message('note_on', channel=9, note=36, velocity=77, time=7),
    Message('note_on', channel=9, note=70, velocity=76, time=0),
    Message('note_off', channel=9, note=36, velocity=77, time=25),
    Message('note_off', channel=9, note=70, velocity=76, time=1),
    Message('note_on', channel=9, note=36, velocity=71, time=22),
    Message('note_on', channel=9, note=42, velocity=51, time=0),
    Message('note_on', channel=9, note=47, velocity=127, time=0),
    Message('note_on', channel=9, note=70, velocity=91, time=0),
    Message('note_off', channel=9, note=70, velocity=91, time=27),
    Message('note_off', channel=9, note=42, velocity=51, time=2),
    Message('note_off', channel=9, note=36, velocity=71, time=1),
    Message('note_off', channel=9, note=47, velocity=127, time=1),
    Message('note_on', channel=9, note=36, velocity=64, time=17),
    Message('note_on', channel=9, note=70, velocity=95, time=0),
    Message('note_off', channel=9, note=70, velocity=95, time=27),
    Message('note_off', channel=9, note=36, velocity=64, time=0),
    Message('note_on', channel=9, note=36, velocity=75, time=21),
    Message('note_on', channel=9, note=38, velocity=127, time=0),
    Message('note_on', channel=9, note=42, velocity=91, time=0),
    Message('note_on', channel=9, note=70, velocity=110, time=0),
    Message('note_off', channel=9, note=42, velocity=91, time=30),
    Message('note_off', channel=9, note=36, velocity=75, time=4),
    Message('note_off', channel=9, note=70, velocity=110, time=3),
    Message('note_on', channel=9, note=40, velocity=73, time=11),
    Message('note_on', channel=9, note=43, velocity=127, time=0),
    Message('note_on', channel=9, note=70, velocity=95, time=0),
    Message('note_off', channel=9, note=70, velocity=95, time=29),
    Message('note_off', channel=9, note=38, velocity=127, time=5),
    Message('note_off', channel=9, note=43, velocity=127, time=1),
    Message('note_on', channel=9, note=42, velocity=91, time=13),
    Message('note_on', channel=9, note=70, velocity=95, time=0),
    Message('note_off', channel=9, note=40, velocity=73, time=20),
    Message('note_off', channel=9, note=70, velocity=95, time=11),
    Message('note_off', channel=9, note=42, velocity=91, time=3),
    Message('note_on', channel=9, note=70, velocity=104, time=14),
    Message('note_off', channel=9, note=70, velocity=104, time=23),
    Message('note_on', channel=9, note=36, velocity=127, time=25),
    Message('note_on', channel=9, note=42, velocity=127, time=0),
    Message('note_on', channel=9, note=49, velocity=110, time=0),
    Message('note_on', channel=9, note=70, velocity=110, time=0),
    Message('note_off', channel=9, note=49, velocity=110, time=27),
    Message('note_off', channel=9, note=70, velocity=110, time=5),
    Message('note_off', channel=9, note=42, velocity=127, time=0),
    Message('note_on', channel=9, note=36, velocity=81, time=16),
    Message('note_on', channel=9, note=70, velocity=87, time=0),
    Message('note_off', channel=9, note=70, velocity=87, time=22),
    Message('note_off', channel=9, note=36, velocity=81, time=1),
    Message('note_off', channel=9, note=36, velocity=127, time=25),
    Message('note_on', channel=9, note=36, velocity=67, time=0),
    Message('note_on', channel=9, note=70, velocity=76, time=0),
    Message('note_off', channel=9, note=36, velocity=67, time=24),
    Message('note_off', channel=9, note=70, velocity=76, time=6),
    Message('note_on', channel=9, note=36, velocity=68, time=18),
    Message('note_on', channel=9, note=42, velocity=65, time=0),
    Message('note_on', channel=9, note=70, velocity=83, time=0),
    Message('note_off', channel=9, note=70, velocity=83, time=28),
    Message('note_off', channel=9, note=36, velocity=68, time=0),
    Message('note_off', channel=9, note=42, velocity=65, time=2),
    Message('note_on', channel=9, note=36, velocity=77, time=18),
    Message('note_on', channel=9, note=38, velocity=127, time=0),
    Message('note_on', channel=9, note=42, velocity=110, time=0),
    Message('note_on', channel=9, note=70, velocity=95, time=0),
    Message('note_off', channel=9, note=36, velocity=77, time=19),
    Message('note_off', channel=9, note=70, velocity=95, time=10),
    Message('note_off', channel=9, note=42, velocity=110, time=6),
    Message('note_on', channel=9, note=40, velocity=73, time=13),
    Message('note_on', channel=9, note=70, velocity=71, time=0),
    Message('note_off', channel=9, note=70, velocity=71, time=27),
    Message('note_off', channel=9, note=38, velocity=127, time=11),
    Message('note_on', channel=9, note=36, velocity=104, time=10),
    Message('note_on', channel=9, note=42, velocity=83, time=0),
    Message('note_on', channel=9, note=70, velocity=87, time=0),
    Message('note_off', channel=9, note=40, velocity=73, time=22),
    Message('note_off', channel=9, note=70, velocity=87, time=10),
    Message('note_off', channel=9, note=36, velocity=104, time=2),
    Message('note_off', channel=9, note=42, velocity=83, time=2),
    Message('note_on', channel=9, note=70, velocity=80, time=12),
    Message('note_off', channel=9, note=70, velocity=80, time=27),
    Message('note_on', channel=9, note=36, velocity=122, time=21),
    Message('note_on', channel=9, note=42, velocity=127, time=0),
    Message('note_on', channel=9, note=70, velocity=95, time=0),
    Message('note_off', channel=9, note=70, velocity=95, time=32),
    Message('note_off', channel=9, note=42, velocity=127, time=1),
    Message('note_off', channel=9, note=36, velocity=122, time=8),
    Message('note_on', channel=9, note=36, velocity=77, time=7),
    Message('note_on', channel=9, note=70, velocity=76, time=0),
    Message('note_off', channel=9, note=36, velocity=77, time=25),
    Message('note_off', channel=9, note=70, velocity=76, time=1),
    Message('note_on', channel=9, note=36, velocity=71, time=22),
    Message('note_on', channel=9, note=42, velocity=51, time=0),
    Message('note_on', channel=9, note=70, velocity=91, time=0),
    Message('note_off', channel=9, note=70, velocity=91, time=27),
    Message('note_off', channel=9, note=42, velocity=51, time=2),
    Message('note_off', channel=9, note=36, velocity=71, time=1),
    Message('note_on', channel=9, note=36, velocity=64, time=18),
    Message('note_on', channel=9, note=70, velocity=95, time=0),
    Message('note_off', channel=9, note=70, velocity=95, time=27),
    Message('note_off', channel=9, note=36, velocity=64, time=0),
    Message('note_on', channel=9, note=36, velocity=75, time=21),
    Message('note_on', channel=9, note=38, velocity=127, time=0),
    Message('note_on', channel=9, note=42, velocity=91, time=0),
    Message('note_on', channel=9, note=70, velocity=110, time=0),
    Message('note_off', channel=9, note=42, velocity=91, time=30),
    Message('note_off', channel=9, note=36, velocity=75, time=4),
    Message('note_off', channel=9, note=70, velocity=110, time=3),
    Message('note_on', channel=9, note=40, velocity=73, time=11),
    Message('note_on', channel=9, note=70, velocity=95, time=0),
    Message('note_off', channel=9, note=70, velocity=95, time=29),
    Message('note_off', channel=9, note=38, velocity=127, time=5),
    Message('note_on', channel=9, note=42, velocity=91, time=14),
    Message('note_on', channel=9, note=70, velocity=95, time=0),
    Message('note_off', channel=9, note=40, velocity=73, time=20),
    Message('note_off', channel=9, note=70, velocity=95, time=11),
    Message('note_off', channel=9, note=42, velocity=91, time=3),
    Message('note_on', channel=9, note=70, velocity=104, time=14),
    Message('note_off', channel=9, note=70, velocity=104, time=23),
    Message('note_on', channel=9, note=36, velocity=127, time=25),
    Message('note_on', channel=9, note=42, velocity=127, time=0),
    Message('note_on', channel=9, note=70, velocity=110, time=0),
    Message('note_off', channel=9, note=70, velocity=110, time=32),
    Message('note_off', channel=9, note=42, velocity=127, time=0),
    Message('note_on', channel=9, note=36, velocity=81, time=16),
    Message('note_on', channel=9, note=70, velocity=87, time=0),
    Message('note_off', channel=9, note=70, velocity=87, time=22),
    Message('note_off', channel=9, note=36, velocity=81, time=1),
    Message('note_off', channel=9, note=36, velocity=127, time=25),
    Message('note_on', channel=9, note=36, velocity=67, time=0),
    Message('note_on', channel=9, note=70, velocity=76, time=0),
    Message('note_off', channel=9, note=36, velocity=67, time=24),
    Message('note_off', channel=9, note=70, velocity=76, time=6),
    Message('note_on', channel=9, note=36, velocity=68, time=18),
    Message('note_on', channel=9, note=42, velocity=65, time=0),
    Message('note_on', channel=9, note=70, velocity=83, time=0),
    Message('note_off', channel=9, note=70, velocity=83, time=28),
    Message('note_off', channel=9, note=36, velocity=68, time=0),
    Message('note_off', channel=9, note=42, velocity=65, time=2),
    Message('note_on', channel=9, note=36, velocity=77, time=18),
    Message('note_on', channel=9, note=38, velocity=127, time=0),
    Message('note_on', channel=9, note=42, velocity=110, time=0),
    Message('note_on', channel=9, note=70, velocity=95, time=0),
    Message('note_off', channel=9, note=36, velocity=77, time=19),
    Message('note_off', channel=9, note=70, velocity=95, time=10),
    Message('note_off', channel=9, note=42, velocity=110, time=6),
    Message('note_on', channel=9, note=40, velocity=73, time=13),
    Message('note_on', channel=9, note=70, velocity=71, time=0),
    Message('note_off', channel=9, note=70, velocity=71, time=27),
    Message('note_off', channel=9, note=38, velocity=127, time=11),
    Message('note_on', channel=9, note=36, velocity=104, time=10),
    Message('note_on', channel=9, note=42, velocity=83, time=0),
    Message('note_on', channel=9, note=70, velocity=87, time=0),
    Message('note_off', channel=9, note=40, velocity=73, time=22),
    Message('note_off', channel=9, note=70, velocity=87, time=10),
    Message('note_off', channel=9, note=36, velocity=104, time=2),
    Message('note_off', channel=9, note=42, velocity=83, time=2),
    Message('note_on', channel=9, note=70, velocity=80, time=12),
    Message('note_off', channel=9, note=70, velocity=80, time=27),
    Message('note_on', channel=9, note=36, velocity=122, time=21),
    Message('note_on', channel=9, note=42, velocity=127, time=0),
    Message('note_on', channel=9, note=70, velocity=95, time=0),
    Message('note_off', channel=9, note=70, velocity=95, time=32),
    Message('note_off', channel=9, note=42, velocity=127, time=1),
    Message('note_off', channel=9, note=36, velocity=122, time=8),
    Message('note_on', channel=9, note=36, velocity=77, time=7),
    Message('note_on', channel=9, note=70, velocity=76, time=0),
    Message('note_off', channel=9, note=36, velocity=77, time=25),
    Message('note_off', channel=9, note=70, velocity=76, time=1),
    Message('note_on', channel=9, note=36, velocity=71, time=22),
    Message('note_on', channel=9, note=42, velocity=51, time=0),
    Message('note_on', channel=9, note=70, velocity=91, time=0),
    Message('note_off', channel=9, note=70, velocity=91, time=27),
    Message('note_off', channel=9, note=42, velocity=51, time=2),
    Message('note_off', channel=9, note=36, velocity=71, time=1),
    Message('note_on', channel=9, note=36, velocity=64, time=18),
    Message('note_on', channel=9, note=70, velocity=95, time=0),
    Message('note_off', channel=9, note=70, velocity=95, time=27),
    Message('note_off', channel=9, note=36, velocity=64, time=0),
    Message('note_on', channel=9, note=36, velocity=75, time=21),
    Message('note_on', channel=9, note=38, velocity=127, time=0),
    Message('note_on', channel=9, note=42, velocity=91, time=0),
    Message('note_on', channel=9, note=70, velocity=110, time=0),
    Message('note_off', channel=9, note=42, velocity=91, time=30),
    Message('note_off', channel=9, note=36, velocity=75, time=4),
    Message('note_off', channel=9, note=70, velocity=110, time=3),
    Message('note_on', channel=9, note=40, velocity=73, time=11),
    Message('note_on', channel=9, note=70, velocity=95, time=0),
    Message('note_off', channel=9, note=70, velocity=95, time=29),
    Message('note_off', channel=9, note=38, velocity=127, time=5),
    Message('note_on', channel=9, note=42, velocity=91, time=14),
    Message('note_on', channel=9, note=70, velocity=95, time=0),
    Message('note_off', channel=9, note=40, velocity=73, time=20),
    Message('note_off', channel=9, note=70, velocity=95, time=11),
    Message('note_off', channel=9, note=42, velocity=91, time=3),
    Message('note_on', channel=9, note=70, velocity=104, time=14),
    Message('note_off', channel=9, note=70, velocity=104, time=23),
    Message('note_on', channel=9, note=36, velocity=127, time=25),
    Message('note_on', channel=9, note=42, velocity=127, time=0),
    Message('note_on', channel=9, note=70, velocity=110, time=0),
    Message('note_off', channel=9, note=70, velocity=110, time=32),
    Message('note_off', channel=9, note=42, velocity=127, time=0),
    Message('note_on', channel=9, note=36, velocity=81, time=16),
    Message('note_on', channel=9, note=70, velocity=87, time=0),
    Message('note_off', channel=9, note=70, velocity=87, time=22),
    Message('note_off', channel=9, note=36, velocity=81, time=1),
    Message('note_off', channel=9, note=36, velocity=127, time=25),
    Message('note_on', channel=9, note=36, velocity=67, time=0),
    Message('note_on', channel=9, note=70, velocity=76, time=0),
    Message('note_off', channel=9, note=36, velocity=67, time=24),
    Message('note_off', channel=9, note=70, velocity=76, time=6),
    Message('note_on', channel=9, note=36, velocity=68, time=18),
    Message('note_on', channel=9, note=42, velocity=65, time=0),
    Message('note_on', channel=9, note=70, velocity=83, time=0),
    Message('note_off', channel=9, note=70, velocity=83, time=28),
    Message('note_off', channel=9, note=36, velocity=68, time=0),
    Message('note_off', channel=9, note=42, velocity=65, time=2),
    Message('note_on', channel=9, note=36, velocity=77, time=18),
    Message('note_on', channel=9, note=38, velocity=127, time=0),
    Message('note_on', channel=9, note=42, velocity=110, time=0),
    Message('note_on', channel=9, note=70, velocity=95, time=0),
    Message('note_off', channel=9, note=36, velocity=77, time=19),
    Message('note_off', channel=9, note=70, velocity=95, time=10),
    Message('note_off', channel=9, note=42, velocity=110, time=6),
    Message('note_on', channel=9, note=40, velocity=73, time=13),
    Message('note_on', channel=9, note=70, velocity=71, time=0),
    Message('note_off', channel=9, note=70, velocity=71, time=27),
    Message('note_off', channel=9, note=38, velocity=127, time=11),
    Message('note_on', channel=9, note=36, velocity=104, time=10),
    Message('note_on', channel=9, note=42, velocity=83, time=0),
    Message('note_on', channel=9, note=70, velocity=87, time=0),
    Message('note_off', channel=9, note=40, velocity=73, time=22),
    Message('note_off', channel=9, note=70, velocity=87, time=10),
    Message('note_off', channel=9, note=36, velocity=104, time=2),
    Message('note_off', channel=9, note=42, velocity=83, time=2),
    Message('note_on', channel=9, note=70, velocity=80, time=12),
    Message('note_off', channel=9, note=70, velocity=80, time=27),
    Message('note_on', channel=9, note=36, velocity=122, time=21),
    Message('note_on', channel=9, note=42, velocity=127, time=0),
    Message('note_on', channel=9, note=70, velocity=95, time=0),
    Message('note_off', channel=9, note=70, velocity=95, time=32),
    Message('note_off', channel=9, note=42, velocity=127, time=1),
    Message('note_off', channel=9, note=36, velocity=122, time=8),
    Message('note_on', channel=9, note=36, velocity=77, time=7),
    Message('note_on', channel=9, note=70, velocity=76, time=0),
    Message('note_off', channel=9, note=36, velocity=77, time=25),
    Message('note_off', channel=9, note=70, velocity=76, time=1),
    Message('note_on', channel=9, note=36, velocity=71, time=22),
    Message('note_on', channel=9, note=42, velocity=51, time=0),
    Message('note_on', channel=9, note=70, velocity=91, time=0),
    Message('note_off', channel=9, note=70, velocity=91, time=27),
    Message('note_off', channel=9, note=42, velocity=51, time=2),
    Message('note_off', channel=9, note=36, velocity=71, time=1),
    Message('note_on', channel=9, note=36, velocity=64, time=18),
    Message('note_on', channel=9, note=70, velocity=95, time=0),
    Message('note_off', channel=9, note=70, velocity=95, time=27),
    Message('note_off', channel=9, note=36, velocity=64, time=0),
    Message('note_on', channel=9, note=36, velocity=75, time=21),
    Message('note_on', channel=9, note=38, velocity=127, time=0),
    Message('note_on', channel=9, note=42, velocity=91, time=0),
    Message('note_on', channel=9, note=70, velocity=110, time=0),
    Message('note_off', channel=9, note=42, velocity=91, time=30),
    Message('note_off', channel=9, note=36, velocity=75, time=4),
    Message('note_off', channel=9, note=70, velocity=110, time=3),
    Message('note_on', channel=9, note=40, velocity=73, time=11),
    Message('note_on', channel=9, note=70, velocity=95, time=0),
    Message('note_off', channel=9, note=70, velocity=95, time=29),
    Message('note_off', channel=9, note=38, velocity=127, time=5),
    Message('note_on', channel=9, note=42, velocity=91, time=14),
    Message('note_on', channel=9, note=70, velocity=95, time=0),
    Message('note_off', channel=9, note=40, velocity=73, time=20),
    Message('note_off', channel=9, note=70, velocity=95, time=11),
    Message('note_off', channel=9, note=42, velocity=91, time=3),
    Message('note_on', channel=9, note=70, velocity=104, time=14),
    Message('note_off', channel=9, note=70, velocity=104, time=23),
    Message('note_on', channel=9, note=36, velocity=127, time=25),
    Message('note_on', channel=9, note=42, velocity=127, time=0),
    Message('note_on', channel=9, note=70, velocity=110, time=0),
    Message('note_off', channel=9, note=70, velocity=110, time=32),
    Message('note_off', channel=9, note=42, velocity=127, time=0),
    Message('note_on', channel=9, note=36, velocity=81, time=16),
    Message('note_on', channel=9, note=70, velocity=87, time=0),
    Message('note_off', channel=9, note=70, velocity=87, time=22),
    Message('note_off', channel=9, note=36, velocity=81, time=1),
    Message('note_off', channel=9, note=36, velocity=127, time=25),
    Message('note_on', channel=9, note=36, velocity=67, time=0),
    Message('note_on', channel=9, note=70, velocity=76, time=0),
    Message('note_off', channel=9, note=36, velocity=67, time=24),
    Message('note_off', channel=9, note=70, velocity=76, time=6),
    Message('note_on', channel=9, note=36, velocity=68, time=18),
    Message('note_on', channel=9, note=42, velocity=65, time=0),
    Message('note_on', channel=9, note=70, velocity=83, time=0),
    Message('note_off', channel=9, note=70, velocity=83, time=28),
    Message('note_off', channel=9, note=36, velocity=68, time=0),
    Message('note_off', channel=9, note=42, velocity=65, time=2),
    Message('note_on', channel=9, note=36, velocity=77, time=18),
    Message('note_on', channel=9, note=38, velocity=127, time=0),
    Message('note_on', channel=9, note=42, velocity=110, time=0),
    Message('note_on', channel=9, note=70, velocity=95, time=0),
    Message('note_off', channel=9, note=36, velocity=77, time=19),
    Message('note_off', channel=9, note=70, velocity=95, time=10),
    Message('note_off', channel=9, note=42, velocity=110, time=6),
    Message('note_on', channel=9, note=40, velocity=73, time=13),
    Message('note_on', channel=9, note=70, velocity=71, time=0),
    Message('note_off', channel=9, note=70, velocity=71, time=27),
    Message('note_off', channel=9, note=38, velocity=127, time=11),
    Message('note_on', channel=9, note=36, velocity=104, time=10),
    Message('note_on', channel=9, note=42, velocity=83, time=0),
    Message('note_on', channel=9, note=70, velocity=87, time=0),
    Message('note_off', channel=9, note=40, velocity=73, time=22),
    Message('note_off', channel=9, note=70, velocity=87, time=10),
    Message('note_off', channel=9, note=36, velocity=104, time=2),
    Message('note_off', channel=9, note=42, velocity=83, time=2),
    Message('note_on', channel=9, note=70, velocity=80, time=12),
    Message('note_off', channel=9, note=70, velocity=80, time=27),
    Message('note_on', channel=9, note=36, velocity=122, time=21),
    Message('note_on', channel=9, note=42, velocity=127, time=0),
    Message('note_on', channel=9, note=70, velocity=95, time=0),
    Message('note_off', channel=9, note=70, velocity=95, time=32),
    Message('note_off', channel=9, note=42, velocity=127, time=1),
    Message('note_off', channel=9, note=36, velocity=122, time=8),
    Message('note_on', channel=9, note=36, velocity=77, time=7),
    Message('note_on', channel=9, note=70, velocity=76, time=0),
    Message('note_off', channel=9, note=36, velocity=77, time=25),
    Message('note_off', channel=9, note=70, velocity=76, time=1),
    Message('note_on', channel=9, note=36, velocity=71, time=22),
    Message('note_on', channel=9, note=42, velocity=51, time=0),
    Message('note_on', channel=9, note=70, velocity=91, time=0),
    Message('note_off', channel=9, note=70, velocity=91, time=27),
    Message('note_off', channel=9, note=42, velocity=51, time=2),
    Message('note_off', channel=9, note=36, velocity=71, time=1),
    Message('note_on', channel=9, note=36, velocity=64, time=18),
    Message('note_on', channel=9, note=70, velocity=95, time=0),
    Message('note_off', channel=9, note=70, velocity=95, time=27),
    Message('note_off', channel=9, note=36, velocity=64, time=0),
    Message('note_on', channel=9, note=36, velocity=75, time=21),
    Message('note_on', channel=9, note=38, velocity=127, time=0),
    Message('note_on', channel=9, note=42, velocity=91, time=0),
    Message('note_on', channel=9, note=70, velocity=110, time=0),
    Message('note_off', channel=9, note=42, velocity=91, time=30),
    Message('note_off', channel=9, note=36, velocity=75, time=4),
    Message('note_off', channel=9, note=70, velocity=110, time=3),
    Message('note_on', channel=9, note=40, velocity=73, time=11),
    Message('note_on', channel=9, note=70, velocity=95, time=0),
    Message('note_off', channel=9, note=70, velocity=95, time=29),
    Message('note_off', channel=9, note=38, velocity=127, time=5),
    Message('note_on', channel=9, note=42, velocity=91, time=14),
    Message('note_on', channel=9, note=70, velocity=95, time=0),
    Message('note_off', channel=9, note=40, velocity=73, time=20),
    Message('note_off', channel=9, note=70, velocity=95, time=11),
    Message('note_off', channel=9, note=42, velocity=91, time=3),
    Message('note_on', channel=9, note=70, velocity=104, time=14),
    Message('note_off', channel=9, note=70, velocity=104, time=23),
    Message('note_on', channel=9, note=36, velocity=77, time=25),
    Message('note_on', channel=9, note=42, velocity=77, time=0),
    Message('note_on', channel=9, note=54, velocity=77, time=0),
    Message('note_off', channel=9, note=42, velocity=77, time=37),
    Message('note_off', channel=9, note=54, velocity=77, time=11),
    Message('note_on', channel=9, note=36, velocity=81, time=0),
    Message('note_off', channel=9, note=36, velocity=81, time=23),
    Message('note_off', channel=9, note=36, velocity=77, time=25),
    Message('note_on', channel=9, note=36, velocity=67, time=0),
    Message('note_on', channel=9, note=42, velocity=104, time=0),
    Message('note_on', channel=9, note=54, velocity=65, time=0),
    Message('note_off', channel=9, note=36, velocity=67, time=24),
    Message('note_off', channel=9, note=42, velocity=104, time=13),
    Message('note_off', channel=9, note=54, velocity=65, time=6),
    Message('note_on', channel=9, note=36, velocity=68, time=5),
    Message('note_off', channel=9, note=36, velocity=68, time=28),
    Message('note_on', channel=9, note=36, velocity=77, time=20),
    Message('note_on', channel=9, note=38, velocity=127, time=0),
    Message('note_on', channel=9, note=42, velocity=104, time=0),
    Message('note_on', channel=9, note=54, velocity=68, time=0),
    Message('note_off', channel=9, note=36, velocity=77, time=19),
    Message('note_off', channel=9, note=54, velocity=68, time=21),
    Message('note_on', channel=9, note=40, velocity=70, time=8),
    Message('note_off', channel=9, note=42, velocity=104, time=5),
    Message('note_off', channel=9, note=38, velocity=127, time=7),
    Message('note_on', channel=9, note=46, velocity=95, time=36),
    Message('note_off', channel=9, note=46, velocity=95, time=24),
    Message('note_off', channel=9, note=40, velocity=70, time=5),
    Message('note_on', channel=9, note=36, velocity=127, time=67),
    Message('note_off', channel=9, note=36, velocity=127, time=46),
    Message('note_on', channel=9, note=36, velocity=77, time=2),
    Message('note_off', channel=9, note=36, velocity=77, time=25),
    Message('note_on', channel=9, note=36, velocity=71, time=23),
    Message('note_on', channel=9, note=42, velocity=61, time=0),
    Message('note_on', channel=9, note=47, velocity=127, time=0),
    Message('note_off', channel=9, note=42, velocity=61, time=24),
    Message('note_off', channel=9, note=36, velocity=71, time=6),
    Message('note_on', channel=9, note=36, velocity=64, time=18),
    Message('note_off', channel=9, note=47, velocity=127, time=1),
    Message('note_off', channel=9, note=36, velocity=64, time=26),
    Message('note_on', channel=9, note=36, velocity=75, time=21),
    Message('note_off', channel=9, note=36, velocity=75, time=34),
    Message('note_on', channel=9, note=43, velocity=127, time=14),
    Message('note_off', channel=9, note=43, velocity=127, time=49),
    Message('note_on', channel=9, note=36, velocity=81, time=95),
    Message('note_on', channel=9, note=49, velocity=100, time=0),
    Message('note_on', channel=9, note=54, velocity=50, time=0),
    Message('note_on', channel=9, note=70, velocity=37, time=0),
    Message('note_on', channel=9, note=82, velocity=65, time=0),
    Message('note_off', channel=9, note=82, velocity=65, time=15),
    Message('note_off', channel=9, note=70, velocity=37, time=0),
    Message('note_off', channel=9, note=54, velocity=50, time=0),
    Message('note_off', channel=9, note=36, velocity=81, time=0),
    Message('note_off', channel=9, note=49, velocity=100, time=17),
    Message('pitchwheel', channel=9, pitch=-266, time=12),
    Message('note_on', channel=9, note=36, velocity=40, time=4),
    Message('note_on', channel=9, note=54, velocity=40, time=0),
    Message('note_on', channel=9, note=70, velocity=40, time=0),
    Message('note_off', channel=9, note=70, velocity=40, time=15),
    Message('note_off', channel=9, note=54, velocity=40, time=0),
    Message('note_off', channel=9, note=36, velocity=40, time=0),
    Message('note_on', channel=9, note=36, velocity=40, time=33),
    Message('note_on', channel=9, note=54, velocity=40, time=0),
    Message('note_on', channel=9, note=70, velocity=40, time=0),
    Message('note_off', channel=9, note=70, velocity=40, time=15),
    Message('note_off', channel=9, note=54, velocity=40, time=0),
    Message('note_off', channel=9, note=36, velocity=40, time=0),
    Message('note_on', channel=9, note=36, velocity=40, time=33),
    Message('note_on', channel=9, note=39, velocity=40, time=0),
    Message('note_on', channel=9, note=54, velocity=40, time=0),
    Message('note_on', channel=9, note=70, velocity=40, time=0),
    Message('note_off', channel=9, note=70, velocity=40, time=15),
    Message('note_off', channel=9, note=54, velocity=40, time=0),
    Message('note_off', channel=9, note=39, velocity=40, time=0),
    Message('note_off', channel=9, note=36, velocity=40, time=0),
    Message('note_on', channel=9, note=37, velocity=40, time=33),
    Message('note_on', channel=9, note=44, velocity=40, time=0),
    Message('note_on', channel=9, note=54, velocity=40, time=0),
    Message('note_on', channel=9, note=70, velocity=40, time=0),
    Message('note_off', channel=9, note=70, velocity=40, time=15),
    Message('note_off', channel=9, note=54, velocity=40, time=0),
    Message('note_off', channel=9, note=44, velocity=40, time=0),
    Message('note_on', channel=9, note=54, velocity=40, time=33),
    Message('note_on', channel=9, note=70, velocity=40, time=0),
    Message('note_off', channel=9, note=70, velocity=40, time=15),
    Message('note_off', channel=9, note=54, velocity=40, time=0),
    Message('note_on', channel=9, note=36, velocity=40, time=33),
    Message('note_on', channel=9, note=39, velocity=40, time=0),
    Message('note_on', channel=9, note=54, velocity=40, time=0),
    Message('note_on', channel=9, note=70, velocity=40, time=0),
    Message('note_off', channel=9, note=37, velocity=40, time=2),
    Message('note_off', channel=9, note=70, velocity=40, time=13),
    Message('note_off', channel=9, note=54, velocity=40, time=0),
    Message('note_off', channel=9, note=39, velocity=40, time=0),
    Message('note_off', channel=9, note=36, velocity=40, time=0),
    Message('note_on', channel=9, note=54, velocity=40, time=33),
    Message('note_on', channel=9, note=70, velocity=40, time=0),
    Message('note_off', channel=9, note=70, velocity=40, time=15),
    Message('note_off', channel=9, note=54, velocity=40, time=0),
    Message('note_on', channel=9, note=36, velocity=40, time=33),
    Message('note_on', channel=9, note=54, velocity=40, time=0),
    Message('note_on', channel=9, note=82, velocity=40, time=0),
    Message('note_off', channel=9, note=82, velocity=40, time=15),
    Message('note_off', channel=9, note=54, velocity=40, time=0),
    Message('note_off', channel=9, note=36, velocity=40, time=0),
    Message('note_on', channel=9, note=36, velocity=40, time=33),
    Message('note_on', channel=9, note=54, velocity=40, time=0),
    Message('note_on', channel=9, note=70, velocity=40, time=0),
    Message('note_off', channel=9, note=70, velocity=40, time=15),
    Message('note_off', channel=9, note=54, velocity=40, time=0),
    Message('note_off', channel=9, note=36, velocity=40, time=0),
    Message('note_on', channel=9, note=36, velocity=40, time=33),
    Message('note_on', channel=9, note=44, velocity=40, time=0),
    Message('note_on', channel=9, note=54, velocity=40, time=0),
    Message('note_on', channel=9, note=70, velocity=40, time=0),
    Message('note_off', channel=9, note=70, velocity=40, time=15),
    Message('note_off', channel=9, note=54, velocity=40, time=0),
    Message('note_off', channel=9, note=44, velocity=40, time=0),
    Message('note_off', channel=9, note=36, velocity=40, time=0),
    Message('note_on', channel=9, note=36, velocity=40, time=33),
    Message('note_on', channel=9, note=54, velocity=40, time=0),
    Message('note_on', channel=9, note=70, velocity=40, time=0),
    Message('note_off', channel=9, note=70, velocity=40, time=15),
    Message('note_off', channel=9, note=54, velocity=40, time=0),
    Message('note_off', channel=9, note=36, velocity=40, time=0),
    Message('note_on', channel=9, note=37, velocity=40, time=33),
    Message('note_on', channel=9, note=44, velocity=40, time=0),
    Message('note_on', channel=9, note=54, velocity=40, time=0),
    Message('note_on', channel=9, note=70, velocity=40, time=0),
    Message('note_on', channel=9, note=83, velocity=40, time=0),
    Message('note_off', channel=9, note=83, velocity=40, time=15),
    Message('note_off', channel=9, note=70, velocity=40, time=0),
    Message('note_off', channel=9, note=54, velocity=40, time=0),
    Message('note_off', channel=9, note=44, velocity=40, time=0),
    Message('note_on', channel=9, note=54, velocity=40, time=33),
    Message('note_on', channel=9, note=70, velocity=40, time=0),
    Message('note_off', channel=9, note=70, velocity=40, time=15),
    Message('note_off', channel=9, note=54, velocity=40, time=0),
    Message('note_on', channel=9, note=54, velocity=40, time=33),
    Message('note_on', channel=9, note=70, velocity=40, time=0),
    Message('note_off', channel=9, note=70, velocity=40, time=15),
    Message('note_off', channel=9, note=54, velocity=40, time=0),
    Message('note_on', channel=9, note=54, velocity=40, time=33),
    Message('note_on', channel=9, note=70, velocity=40, time=0),
    Message('note_off', channel=9, note=37, velocity=40, time=4),
    Message('note_off', channel=9, note=70, velocity=40, time=11),
    Message('note_off', channel=9, note=54, velocity=40, time=0),
    Message('note_on', channel=9, note=36, velocity=40, time=33),
    Message('note_on', channel=9, note=54, velocity=40, time=0),
    Message('note_on', channel=9, note=70, velocity=40, time=0),
    Message('note_on', channel=9, note=82, velocity=40, time=0),
    Message('note_off', channel=9, note=82, velocity=40, time=15),
    Message('note_off', channel=9, note=70, velocity=40, time=0),
    Message('note_off', channel=9, note=54, velocity=40, time=0),
    Message('note_off', channel=9, note=36, velocity=40, time=0),
    Message('pitchwheel', channel=9, pitch=-2954, time=29),
    Message('note_on', channel=9, note=36, velocity=40, time=4),
    Message('note_on', channel=9, note=54, velocity=40, time=0),
    Message('note_on', channel=9, note=70, velocity=40, time=0),
    Message('note_off', channel=9, note=70, velocity=40, time=15),
    Message('note_off', channel=9, note=54, velocity=40, time=0),
    Message('note_off', channel=9, note=36, velocity=40, time=0),
    Message('note_on', channel=9, note=36, velocity=40, time=33),
    Message('note_on', channel=9, note=54, velocity=40, time=0),
    Message('note_on', channel=9, note=70, velocity=40, time=0),
    Message('note_off', channel=9, note=70, velocity=40, time=15),
    Message('note_off', channel=9, note=54, velocity=40, time=0),
    Message('note_off', channel=9, note=36, velocity=40, time=0),
    Message('note_on', channel=9, note=36, velocity=40, time=33),
    Message('note_on', channel=9, note=39, velocity=40, time=0),
    Message('note_on', channel=9, note=54, velocity=40, time=0),
    Message('note_on', channel=9, note=70, velocity=40, time=0),
    Message('note_off', channel=9, note=70, velocity=40, time=15),
    Message('note_off', channel=9, note=54, velocity=40, time=0),
    Message('note_off', channel=9, note=39, velocity=40, time=0),
    Message('note_off', channel=9, note=36, velocity=40, time=0),
    Message('note_on', channel=9, note=37, velocity=40, time=33),
    Message('note_on', channel=9, note=44, velocity=40, time=0),
    Message('note_on', channel=9, note=54, velocity=40, time=0),
    Message('note_on', channel=9, note=70, velocity=40, time=0),
    Message('note_off', channel=9, note=70, velocity=40, time=15),
    Message('note_off', channel=9, note=54, velocity=40, time=0),
    Message('note_off', channel=9, note=44, velocity=40, time=0),
    Message('note_on', channel=9, note=54, velocity=40, time=33),
    Message('note_on', channel=9, note=70, velocity=40, time=0),
    Message('note_off', channel=9, note=70, velocity=40, time=15),
    Message('note_off', channel=9, note=54, velocity=40, time=0),
    Message('note_on', channel=9, note=36, velocity=40, time=33),
    Message('note_on', channel=9, note=39, velocity=40, time=0),
    Message('note_on', channel=9, note=54, velocity=40, time=0),
    Message('note_on', channel=9, note=70, velocity=40, time=0),
    Message('note_off', channel=9, note=70, velocity=40, time=15),
    Message('note_off', channel=9, note=54, velocity=40, time=0),
    Message('note_off', channel=9, note=39, velocity=40, time=0),
    Message('note_off', channel=9, note=36, velocity=40, time=0),
    Message('note_off', channel=9, note=37, velocity=40, time=11),
    Message('note_on', channel=9, note=54, velocity=40, time=22),
    Message('note_on', channel=9, note=70, velocity=40, time=0),
    Message('note_off', channel=9, note=70, velocity=40, time=15),
    Message('note_off', channel=9, note=54, velocity=40, time=0),
    Message('note_on', channel=9, note=36, velocity=40, time=33),
    Message('note_on', channel=9, note=54, velocity=40, time=0),
    Message('note_on', channel=9, note=82, velocity=40, time=0),
    Message('note_off', channel=9, note=82, velocity=40, time=15),
    Message('note_off', channel=9, note=54, velocity=40, time=0),
    Message('note_off', channel=9, note=36, velocity=40, time=0),
    Message('note_on', channel=9, note=36, velocity=40, time=33),
    Message('note_on', channel=9, note=54, velocity=40, time=0),
    Message('note_on', channel=9, note=70, velocity=40, time=0),
    Message('note_off', channel=9, note=70, velocity=40, time=15),
    Message('note_off', channel=9, note=54, velocity=40, time=0),
    Message('note_off', channel=9, note=36, velocity=40, time=0),
    Message('note_on', channel=9, note=36, velocity=40, time=33),
    Message('note_on', channel=9, note=44, velocity=40, time=0),
    Message('note_on', channel=9, note=54, velocity=40, time=0),
    Message('note_on', channel=9, note=70, velocity=40, time=0),
    Message('note_off', channel=9, note=70, velocity=40, time=15),
    Message('note_off', channel=9, note=54, velocity=40, time=0),
    Message('note_off', channel=9, note=44, velocity=40, time=0),
    Message('note_off', channel=9, note=36, velocity=40, time=0),
    Message('note_on', channel=9, note=36, velocity=40, time=33),
    Message('note_on', channel=9, note=54, velocity=40, time=0),
    Message('note_on', channel=9, note=70, velocity=40, time=0),
    Message('note_off', channel=9, note=70, velocity=40, time=15),
    Message('note_off', channel=9, note=54, velocity=40, time=0),
    Message('note_off', channel=9, note=36, velocity=40, time=0),
    Message('note_on', channel=9, note=37, velocity=40, time=33),
    Message('note_on', channel=9, note=44, velocity=40, time=0),
    Message('note_on', channel=9, note=54, velocity=40, time=0),
    Message('note_on', channel=9, note=70, velocity=40, time=0),
    Message('note_on', channel=9, note=83, velocity=40, time=0),
    Message('note_off', channel=9, note=83, velocity=40, time=15),
    Message('note_off', channel=9, note=70, velocity=40, time=0),
    Message('note_off', channel=9, note=54, velocity=40, time=0),
    Message('note_off', channel=9, note=44, velocity=40, time=0),
    Message('note_on', channel=9, note=54, velocity=40, time=33),
    Message('note_on', channel=9, note=70, velocity=40, time=0),
    Message('note_off', channel=9, note=70, velocity=40, time=15),
    Message('note_off', channel=9, note=54, velocity=40, time=0),
    Message('note_off', channel=9, note=37, velocity=40, time=14),
    Message('note_on', channel=9, note=54, velocity=40, time=19),
    Message('note_on', channel=9, note=70, velocity=40, time=0),
    Message('note_off', channel=9, note=70, velocity=40, time=15),
    Message('note_off', channel=9, note=54, velocity=40, time=0),
    Message('note_on', channel=9, note=54, velocity=40, time=33),
    Message('note_on', channel=9, note=70, velocity=40, time=0),
    Message('note_off', channel=9, note=70, velocity=40, time=15),
    Message('note_off', channel=9, note=54, velocity=40, time=0),
    Message('note_on', channel=9, note=36, velocity=40, time=33),
    Message('note_on', channel=9, note=54, velocity=40, time=0),
    Message('note_on', channel=9, note=70, velocity=40, time=0),
    Message('note_on', channel=9, note=82, velocity=40, time=0),
    Message('note_off', channel=9, note=82, velocity=40, time=15),
    Message('note_off', channel=9, note=70, velocity=40, time=0),
    Message('note_off', channel=9, note=54, velocity=40, time=0),
    Message('note_off', channel=9, note=36, velocity=40, time=0),
    Message('pitchwheel', channel=9, pitch=-2954, time=29),
    Message('note_on', channel=9, note=36, velocity=40, time=4),
    Message('note_on', channel=9, note=54, velocity=40, time=0),
    Message('note_on', channel=9, note=70, velocity=40, time=0),
    Message('note_off', channel=9, note=70, velocity=40, time=15),
    Message('note_off', channel=9, note=54, velocity=40, time=0),
    Message('note_off', channel=9, note=36, velocity=40, time=0),
    Message('note_on', channel=9, note=36, velocity=40, time=33),
    Message('note_on', channel=9, note=54, velocity=40, time=0),
    Message('note_on', channel=9, note=70, velocity=40, time=0),
    Message('note_off', channel=9, note=70, velocity=40, time=15),
    Message('note_off', channel=9, note=54, velocity=40, time=0),
    Message('note_off', channel=9, note=36, velocity=40, time=0),
    Message('note_on', channel=9, note=36, velocity=40, time=33),
    Message('note_on', channel=9, note=39, velocity=40, time=0),
    Message('note_on', channel=9, note=54, velocity=40, time=0),
    Message('note_on', channel=9, note=70, velocity=40, time=0),
    Message('note_off', channel=9, note=70, velocity=40, time=15),
    Message('note_off', channel=9, note=54, velocity=40, time=0),
    Message('note_off', channel=9, note=39, velocity=40, time=0),
    Message('note_off', channel=9, note=36, velocity=40, time=0),
    Message('note_on', channel=9, note=37, velocity=40, time=33),
    Message('note_on', channel=9, note=44, velocity=40, time=0),
    Message('note_on', channel=9, note=54, velocity=40, time=0),
    Message('note_on', channel=9, note=70, velocity=40, time=0),
    Message('note_off', channel=9, note=70, velocity=40, time=15),
    Message('note_off', channel=9, note=54, velocity=40, time=0),
    Message('note_off', channel=9, note=44, velocity=40, time=0),
    Message('note_on', channel=9, note=54, velocity=40, time=33),
    Message('note_on', channel=9, note=70, velocity=40, time=0),
    Message('note_off', channel=9, note=70, velocity=40, time=15),
    Message('note_off', channel=9, note=54, velocity=40, time=0),
    Message('note_on', channel=9, note=36, velocity=51, time=33),
    Message('note_on', channel=9, note=39, velocity=51, time=0),
    Message('note_on', channel=9, note=54, velocity=51, time=0),
    Message('note_on', channel=9, note=70, velocity=51, time=0),
    Message('note_off', channel=9, note=70, velocity=51, time=15),
    Message('note_off', channel=9, note=54, velocity=51, time=0),
    Message('note_off', channel=9, note=39, velocity=51, time=0),
    Message('note_off', channel=9, note=36, velocity=51, time=0),
    Message('note_on', channel=9, note=54, velocity=51, time=33),
    Message('note_on', channel=9, note=70, velocity=51, time=0),
    Message('note_off', channel=9, note=70, velocity=51, time=15),
    Message('note_off', channel=9, note=54, velocity=51, time=0),
    Message('note_on', channel=9, note=36, velocity=51, time=33),
    Message('note_on', channel=9, note=54, velocity=51, time=0),
    Message('note_on', channel=9, note=82, velocity=51, time=0),
    Message('note_off', channel=9, note=82, velocity=51, time=15),
    Message('note_off', channel=9, note=54, velocity=51, time=0),
    Message('note_off', channel=9, note=36, velocity=51, time=0),
    Message('note_off', channel=9, note=37, velocity=40, time=7),
    Message('note_on', channel=9, note=36, velocity=51, time=26),
    Message('note_on', channel=9, note=54, velocity=51, time=0),
    Message('note_on', channel=9, note=70, velocity=51, time=0),
    Message('note_off', channel=9, note=70, velocity=51, time=15),
    Message('note_off', channel=9, note=54, velocity=51, time=0),
    Message('note_off', channel=9, note=36, velocity=51, time=0),
    Message('note_on', channel=9, note=36, velocity=51, time=33),
    Message('note_on', channel=9, note=44, velocity=51, time=0),
    Message('note_on', channel=9, note=54, velocity=51, time=0),
    Message('note_on', channel=9, note=70, velocity=51, time=0),
    Message('note_off', channel=9, note=70, velocity=51, time=15),
    Message('note_off', channel=9, note=54, velocity=51, time=0),
    Message('note_off', channel=9, note=44, velocity=51, time=0),
    Message('note_off', channel=9, note=36, velocity=51, time=0),
    Message('note_on', channel=9, note=36, velocity=51, time=33),
    Message('note_on', channel=9, note=54, velocity=51, time=0),
    Message('note_on', channel=9, note=70, velocity=51, time=0),
    Message('note_off', channel=9, note=70, velocity=51, time=15),
    Message('note_off', channel=9, note=54, velocity=51, time=0),
    Message('note_off', channel=9, note=36, velocity=51, time=0),
    Message('note_on', channel=9, note=37, velocity=51, time=33),
    Message('note_on', channel=9, note=44, velocity=51, time=0),
    Message('note_on', channel=9, note=54, velocity=51, time=0),
    Message('note_on', channel=9, note=70, velocity=51, time=0),
    Message('note_on', channel=9, note=83, velocity=51, time=0),
    Message('note_off', channel=9, note=83, velocity=51, time=15),
    Message('note_off', channel=9, note=70, velocity=51, time=0),
    Message('note_off', channel=9, note=54, velocity=51, time=0),
    Message('note_off', channel=9, note=44, velocity=51, time=0),
    Message('note_on', channel=9, note=54, velocity=51, time=33),
    Message('note_on', channel=9, note=70, velocity=51, time=0),
    Message('note_off', channel=9, note=70, velocity=51, time=15),
    Message('note_off', channel=9, note=54, velocity=51, time=0),
    Message('note_on', channel=9, note=54, velocity=51, time=33),
    Message('note_on', channel=9, note=70, velocity=51, time=0),
    Message('note_off', channel=9, note=70, velocity=51, time=15),
    Message('note_off', channel=9, note=54, velocity=51, time=0),
    Message('note_on', channel=9, note=54, velocity=51, time=33),
    Message('note_on', channel=9, note=70, velocity=51, time=0),
    Message('note_off', channel=9, note=70, velocity=51, time=15),
    Message('note_off', channel=9, note=54, velocity=51, time=0),
    Message('note_on', channel=9, note=36, velocity=51, time=33),
    Message('note_on', channel=9, note=54, velocity=51, time=0),
    Message('note_on', channel=9, note=70, velocity=51, time=0),
    Message('note_on', channel=9, note=82, velocity=51, time=0),
    Message('note_off', channel=9, note=82, velocity=51, time=15),
    Message('note_off', channel=9, note=70, velocity=51, time=0),
    Message('note_off', channel=9, note=54, velocity=51, time=0),
    Message('note_off', channel=9, note=36, velocity=51, time=0),
    Message('note_off', channel=9, note=37, velocity=51, time=1),
    Message('pitchwheel', channel=9, pitch=-1546, time=28),
    Message('note_on', channel=9, note=36, velocity=51, time=4),
    Message('note_on', channel=9, note=54, velocity=51, time=0),
    Message('note_on', channel=9, note=70, velocity=51, time=0),
    Message('note_off', channel=9, note=70, velocity=51, time=15),
    Message('note_off', channel=9, note=54, velocity=51, time=0),
    Message('note_off', channel=9, note=36, velocity=51, time=0),
    Message('note_on', channel=9, note=36, velocity=51, time=33),
    Message('note_on', channel=9, note=54, velocity=51, time=0),
    Message('note_on', channel=9, note=70, velocity=51, time=0),
    Message('note_off', channel=9, note=70, velocity=51, time=15),
    Message('note_off', channel=9, note=54, velocity=51, time=0),
    Message('note_off', channel=9, note=36, velocity=51, time=0),
    Message('note_on', channel=9, note=36, velocity=51, time=33),
    Message('note_on', channel=9, note=39, velocity=51, time=0),
    Message('note_on', channel=9, note=54, velocity=51, time=0),
    Message('note_on', channel=9, note=70, velocity=51, time=0),
    Message('note_off', channel=9, note=70, velocity=51, time=15),
    Message('note_off', channel=9, note=54, velocity=51, time=0),
    Message('note_off', channel=9, note=39, velocity=51, time=0),
    Message('note_off', channel=9, note=36, velocity=51, time=0),
    Message('note_on', channel=9, note=37, velocity=51, time=33),
    Message('note_on', channel=9, note=44, velocity=51, time=0),
    Message('note_on', channel=9, note=54, velocity=51, time=0),
    Message('note_on', channel=9, note=70, velocity=51, time=0),
    Message('note_off', channel=9, note=70, velocity=51, time=15),
    Message('note_off', channel=9, note=54, velocity=51, time=0),
    Message('note_off', channel=9, note=44, velocity=51, time=0),
    Message('note_on', channel=9, note=54, velocity=51, time=33),
    Message('note_on', channel=9, note=70, velocity=51, time=0),
    Message('note_off', channel=9, note=70, velocity=51, time=15),
    Message('note_off', channel=9, note=54, velocity=51, time=0),
    Message('note_on', channel=9, note=36, velocity=51, time=33),
    Message('note_on', channel=9, note=39, velocity=51, time=0),
    Message('note_on', channel=9, note=54, velocity=51, time=0),
    Message('note_on', channel=9, note=70, velocity=51, time=0),
    Message('note_off', channel=9, note=70, velocity=51, time=15),
    Message('note_off', channel=9, note=54, velocity=51, time=0),
    Message('note_off', channel=9, note=39, velocity=51, time=0),
    Message('note_off', channel=9, note=36, velocity=51, time=0),
    Message('note_on', channel=9, note=54, velocity=51, time=33),
    Message('note_on', channel=9, note=70, velocity=51, time=0),
    Message('note_off', channel=9, note=70, velocity=51, time=15),
    Message('note_off', channel=9, note=54, velocity=51, time=0),
    Message('note_on', channel=9, note=36, velocity=51, time=33),
    Message('note_on', channel=9, note=54, velocity=51, time=0),
    Message('note_on', channel=9, note=82, velocity=51, time=0),
    Message('note_off', channel=9, note=82, velocity=51, time=15),
    Message('note_off', channel=9, note=54, velocity=51, time=0),
    Message('note_off', channel=9, note=36, velocity=51, time=0),
    Message('note_off', channel=9, note=37, velocity=51, time=14),
    Message('note_on', channel=9, note=36, velocity=51, time=19),
    Message('note_on', channel=9, note=54, velocity=51, time=0),
    Message('note_on', channel=9, note=70, velocity=51, time=0),
    Message('note_off', channel=9, note=70, velocity=51, time=15),
    Message('note_off', channel=9, note=54, velocity=51, time=0),
    Message('note_off', channel=9, note=36, velocity=51, time=0),
    Message('note_on', channel=9, note=36, velocity=51, time=33),
    Message('note_on', channel=9, note=44, velocity=51, time=0),
    Message('note_on', channel=9, note=54, velocity=51, time=0),
    Message('note_on', channel=9, note=70, velocity=51, time=0),
    Message('note_off', channel=9, note=70, velocity=51, time=15),
    Message('note_off', channel=9, note=54, velocity=51, time=0),
    Message('note_off', channel=9, note=44, velocity=51, time=0),
    Message('note_off', channel=9, note=36, velocity=51, time=0),
    Message('note_on', channel=9, note=36, velocity=51, time=33),
    Message('note_on', channel=9, note=54, velocity=51, time=0),
    Message('note_on', channel=9, note=70, velocity=51, time=0),
    Message('note_off', channel=9, note=70, velocity=51, time=15),
    Message('note_off', channel=9, note=54, velocity=51, time=0),
    Message('note_off', channel=9, note=36, velocity=51, time=0),
    Message('note_on', channel=9, note=37, velocity=51, time=33),
    Message('note_on', channel=9, note=44, velocity=51, time=0),
    Message('note_on', channel=9, note=54, velocity=51, time=0),
    Message('note_on', channel=9, note=70, velocity=51, time=0),
    Message('note_on', channel=9, note=83, velocity=51, time=0),
    Message('note_off', channel=9, note=83, velocity=51, time=15),
    Message('note_off', channel=9, note=70, velocity=51, time=0),
    Message('note_off', channel=9, note=54, velocity=51, time=0),
    Message('note_off', channel=9, note=44, velocity=51, time=0),
    Message('note_on', channel=9, note=54, velocity=51, time=33),
    Message('note_on', channel=9, note=70, velocity=51, time=0),
    Message('note_off', channel=9, note=70, velocity=51, time=15),
    Message('note_off', channel=9, note=54, velocity=51, time=0),
    Message('note_on', channel=9, note=54, velocity=51, time=33),
    Message('note_on', channel=9, note=70, velocity=51, time=0),
    Message('note_off', channel=9, note=70, velocity=51, time=15),
    Message('note_off', channel=9, note=54, velocity=51, time=0),
    Message('note_on', channel=9, note=54, velocity=51, time=33),
    Message('note_on', channel=9, note=70, velocity=51, time=0),
    Message('note_off', channel=9, note=70, velocity=51, time=15),
    Message('note_off', channel=9, note=54, velocity=51, time=0),
    Message('note_on', channel=9, note=36, velocity=51, time=33),
    Message('note_on', channel=9, note=54, velocity=51, time=0),
    Message('note_on', channel=9, note=70, velocity=51, time=0),
    Message('note_on', channel=9, note=82, velocity=51, time=0),
    Message('note_off', channel=9, note=82, velocity=51, time=15),
    Message('note_off', channel=9, note=70, velocity=51, time=0),
    Message('note_off', channel=9, note=54, velocity=51, time=0),
    Message('note_off', channel=9, note=36, velocity=51, time=0),
    Message('note_off', channel=9, note=37, velocity=51, time=9),
    Message('pitchwheel', channel=9, pitch=-1546, time=20),
    Message('note_on', channel=9, note=36, velocity=51, time=4),
    Message('note_on', channel=9, note=54, velocity=51, time=0),
    Message('note_on', channel=9, note=70, velocity=51, time=0),
    Message('note_off', channel=9, note=70, velocity=51, time=15),
    Message('note_off', channel=9, note=54, velocity=51, time=0),
    Message('note_off', channel=9, note=36, velocity=51, time=0),
    Message('note_on', channel=9, note=36, velocity=51, time=33),
    Message('note_on', channel=9, note=54, velocity=51, time=0),
    Message('note_on', channel=9, note=70, velocity=51, time=0),
    Message('note_off', channel=9, note=70, velocity=51, time=15),
    Message('note_off', channel=9, note=54, velocity=51, time=0),
    Message('note_off', channel=9, note=36, velocity=51, time=0),
    Message('note_on', channel=9, note=36, velocity=51, time=33),
    Message('note_on', channel=9, note=39, velocity=51, time=0),
    Message('note_on', channel=9, note=54, velocity=51, time=0),
    Message('note_on', channel=9, note=70, velocity=51, time=0),
    Message('note_off', channel=9, note=70, velocity=51, time=15),
    Message('note_off', channel=9, note=54, velocity=51, time=0),
    Message('note_off', channel=9, note=39, velocity=51, time=0),
    Message('note_off', channel=9, note=36, velocity=51, time=0),
    Message('note_on', channel=9, note=37, velocity=51, time=33),
    Message('note_on', channel=9, note=44, velocity=51, time=0),
    Message('note_on', channel=9, note=54, velocity=51, time=0),
    Message('note_on', channel=9, note=70, velocity=51, time=0),
    Message('note_off', channel=9, note=70, velocity=51, time=15),
    Message('note_off', channel=9, note=54, velocity=51, time=0),
    Message('note_off', channel=9, note=44, velocity=51, time=0),
    Message('note_on', channel=9, note=54, velocity=51, time=33),
    Message('note_on', channel=9, note=70, velocity=51, time=0),
    Message('note_off', channel=9, note=70, velocity=51, time=15),
    Message('note_off', channel=9, note=54, velocity=51, time=0),
    Message('note_on', channel=9, note=36, velocity=51, time=33),
    Message('note_on', channel=9, note=39, velocity=51, time=0),
    Message('note_on', channel=9, note=54, velocity=51, time=0),
    Message('note_on', channel=9, note=70, velocity=51, time=0),
    Message('note_off', channel=9, note=70, velocity=51, time=15),
    Message('note_off', channel=9, note=54, velocity=51, time=0),
    Message('note_off', channel=9, note=39, velocity=51, time=0),
    Message('note_off', channel=9, note=36, velocity=51, time=0),
    Message('note_on', channel=9, note=54, velocity=51, time=33),
    Message('note_on', channel=9, note=70, velocity=51, time=0),
    Message('note_off', channel=9, note=70, velocity=51, time=15),
    Message('note_off', channel=9, note=54, velocity=51, time=0),
    Message('note_on', channel=9, note=36, velocity=51, time=33),
    Message('note_on', channel=9, note=54, velocity=51, time=0),
    Message('note_on', channel=9, note=82, velocity=51, time=0),
    Message('note_off', channel=9, note=82, velocity=51, time=15),
    Message('note_off', channel=9, note=54, velocity=51, time=0),
    Message('note_off', channel=9, note=36, velocity=51, time=0),
    Message('note_off', channel=9, note=37, velocity=51, time=27),
    Message('note_on', channel=9, note=36, velocity=51, time=6),
    Message('note_on', channel=9, note=54, velocity=51, time=0),
    Message('note_on', channel=9, note=70, velocity=51, time=0),
    Message('note_off', channel=9, note=70, velocity=51, time=15),
    Message('note_off', channel=9, note=54, velocity=51, time=0),
    Message('note_off', channel=9, note=36, velocity=51, time=0),
    Message('note_on', channel=9, note=36, velocity=51, time=33),
    Message('note_on', channel=9, note=44, velocity=51, time=0),
    Message('note_on', channel=9, note=54, velocity=51, time=0),
    Message('note_on', channel=9, note=70, velocity=51, time=0),
    Message('note_off', channel=9, note=70, velocity=51, time=15),
    Message('note_off', channel=9, note=54, velocity=51, time=0),
    Message('note_off', channel=9, note=44, velocity=51, time=0),
    Message('note_off', channel=9, note=36, velocity=51, time=0),
    Message('note_on', channel=9, note=36, velocity=51, time=33),
    Message('note_on', channel=9, note=54, velocity=51, time=0),
    Message('note_on', channel=9, note=70, velocity=51, time=0),
    Message('note_off', channel=9, note=70, velocity=51, time=15),
    Message('note_off', channel=9, note=54, velocity=51, time=0),
    Message('note_off', channel=9, note=36, velocity=51, time=0),
    Message('note_on', channel=9, note=37, velocity=51, time=33),
    Message('note_on', channel=9, note=44, velocity=51, time=0),
    Message('note_on', channel=9, note=54, velocity=51, time=0),
    Message('note_on', channel=9, note=70, velocity=51, time=0),
    Message('note_on', channel=9, note=83, velocity=51, time=0),
    Message('note_off', channel=9, note=83, velocity=51, time=15),
    Message('note_off', channel=9, note=70, velocity=51, time=0),
    Message('note_off', channel=9, note=54, velocity=51, time=0),
    Message('note_off', channel=9, note=44, velocity=51, time=0),
    Message('note_on', channel=9, note=54, velocity=51, time=33),
    Message('note_on', channel=9, note=70, velocity=51, time=0),
    Message('note_off', channel=9, note=70, velocity=51, time=15),
    Message('note_off', channel=9, note=54, velocity=51, time=0),
    Message('note_on', channel=9, note=54, velocity=51, time=33),
    Message('note_on', channel=9, note=70, velocity=51, time=0),
    Message('note_off', channel=9, note=70, velocity=51, time=15),
    Message('note_off', channel=9, note=54, velocity=51, time=0),
    Message('note_on', channel=9, note=54, velocity=51, time=33),
    Message('note_on', channel=9, note=70, velocity=51, time=0),
    Message('note_off', channel=9, note=70, velocity=51, time=15),
    Message('note_off', channel=9, note=54, velocity=51, time=0),
    Message('note_on', channel=9, note=36, velocity=51, time=33),
    Message('note_on', channel=9, note=54, velocity=51, time=0),
    Message('note_on', channel=9, note=70, velocity=51, time=0),
    Message('note_on', channel=9, note=82, velocity=51, time=0),
    Message('note_off', channel=9, note=82, velocity=51, time=15),
    Message('note_off', channel=9, note=70, velocity=51, time=0),
    Message('note_off', channel=9, note=54, velocity=51, time=0),
    Message('note_off', channel=9, note=36, velocity=51, time=0),
    Message('note_off', channel=9, note=37, velocity=51, time=24),
    Message('pitchwheel', channel=9, pitch=-1546, time=5),
    Message('note_on', channel=9, note=36, velocity=51, time=4),
    Message('note_on', channel=9, note=54, velocity=51, time=0),
    Message('note_on', channel=9, note=70, velocity=51, time=0),
    Message('note_off', channel=9, note=70, velocity=51, time=15),
    Message('note_off', channel=9, note=54, velocity=51, time=0),
    Message('note_off', channel=9, note=36, velocity=51, time=0),
    Message('note_on', channel=9, note=36, velocity=51, time=33),
    Message('note_on', channel=9, note=54, velocity=51, time=0),
    Message('note_on', channel=9, note=70, velocity=51, time=0),
    Message('note_off', channel=9, note=70, velocity=51, time=15),
    Message('note_off', channel=9, note=54, velocity=51, time=0),
    Message('note_off', channel=9, note=36, velocity=51, time=0),
    Message('note_on', channel=9, note=36, velocity=51, time=33),
    Message('note_on', channel=9, note=39, velocity=51, time=0),
    Message('note_on', channel=9, note=54, velocity=51, time=0),
    Message('note_on', channel=9, note=70, velocity=51, time=0),
    Message('note_off', channel=9, note=70, velocity=51, time=15),
    Message('note_off', channel=9, note=54, velocity=51, time=0),
    Message('note_off', channel=9, note=39, velocity=51, time=0),
    Message('note_off', channel=9, note=36, velocity=51, time=0),
    Message('note_on', channel=9, note=37, velocity=51, time=33),
    Message('note_on', channel=9, note=44, velocity=51, time=0),
    Message('note_on', channel=9, note=54, velocity=51, time=0),
    Message('note_on', channel=9, note=70, velocity=51, time=0),
    Message('note_off', channel=9, note=70, velocity=51, time=15),
    Message('note_off', channel=9, note=54, velocity=51, time=0),
    Message('note_off', channel=9, note=44, velocity=51, time=0),
    Message('note_on', channel=9, note=54, velocity=51, time=33),
    Message('note_on', channel=9, note=70, velocity=51, time=0),
    Message('note_off', channel=9, note=70, velocity=51, time=15),
    Message('note_off', channel=9, note=54, velocity=51, time=0),
    Message('note_on', channel=9, note=36, velocity=51, time=33),
    Message('note_on', channel=9, note=39, velocity=51, time=0),
    Message('note_on', channel=9, note=54, velocity=51, time=0),
    Message('note_on', channel=9, note=70, velocity=51, time=0),
    Message('note_off', channel=9, note=70, velocity=51, time=15),
    Message('note_off', channel=9, note=54, velocity=51, time=0),
    Message('note_off', channel=9, note=39, velocity=51, time=0),
    Message('note_off', channel=9, note=36, velocity=51, time=0),
    Message('note_on', channel=9, note=54, velocity=51, time=33),
    Message('note_on', channel=9, note=70, velocity=51, time=0),
    Message('note_off', channel=9, note=70, velocity=51, time=15),
    Message('note_off', channel=9, note=54, velocity=51, time=0),
    Message('note_on', channel=9, note=36, velocity=51, time=33),
    Message('note_on', channel=9, note=54, velocity=55, time=0),
    Message('note_on', channel=9, note=82, velocity=55, time=0),
    Message('note_off', channel=9, note=37, velocity=51, time=8),
    Message('note_off', channel=9, note=82, velocity=55, time=7),
    Message('note_off', channel=9, note=54, velocity=55, time=0),
    Message('note_off', channel=9, note=36, velocity=51, time=0),
    Message('note_on', channel=9, note=36, velocity=55, time=33),
    Message('note_on', channel=9, note=54, velocity=55, time=0),
    Message('note_on', channel=9, note=70, velocity=55, time=0),
    Message('note_off', channel=9, note=70, velocity=55, time=15),
    Message('note_off', channel=9, note=54, velocity=55, time=0),
    Message('note_off', channel=9, note=36, velocity=55, time=0),
    Message('note_on', channel=9, note=36, velocity=55, time=33),
    Message('note_on', channel=9, note=44, velocity=55, time=0),
    Message('note_on', channel=9, note=54, velocity=55, time=0),
    Message('note_on', channel=9, note=70, velocity=55, time=0),
    Message('note_off', channel=9, note=70, velocity=55, time=15),
    Message('note_off', channel=9, note=54, velocity=55, time=0),
    Message('note_off', channel=9, note=44, velocity=55, time=0),
    Message('note_off', channel=9, note=36, velocity=55, time=0),
    Message('note_on', channel=9, note=36, velocity=55, time=33),
    Message('note_on', channel=9, note=54, velocity=55, time=0),
    Message('note_on', channel=9, note=70, velocity=55, time=0),
    Message('note_off', channel=9, note=70, velocity=55, time=15),
    Message('note_off', channel=9, note=54, velocity=55, time=0),
    Message('note_off', channel=9, note=36, velocity=55, time=0),
    Message('note_on', channel=9, note=37, velocity=55, time=33),
    Message('note_on', channel=9, note=44, velocity=55, time=0),
    Message('note_on', channel=9, note=54, velocity=55, time=0),
    Message('note_on', channel=9, note=70, velocity=55, time=0),
    Message('note_on', channel=9, note=83, velocity=55, time=0),
    Message('note_off', channel=9, note=83, velocity=55, time=15),
    Message('note_off', channel=9, note=70, velocity=55, time=0),
    Message('note_off', channel=9, note=54, velocity=55, time=0),
    Message('note_off', channel=9, note=44, velocity=55, time=0),
    Message('note_off', channel=9, note=37, velocity=55, time=22),
    Message('note_on', channel=9, note=54, velocity=55, time=11),
    Message('note_on', channel=9, note=70, velocity=55, time=0),
    Message('note_off', channel=9, note=70, velocity=55, time=15),
    Message('note_off', channel=9, note=54, velocity=55, time=0),
    Message('note_on', channel=9, note=54, velocity=55, time=33),
    Message('note_on', channel=9, note=70, velocity=55, time=0),
    Message('note_off', channel=9, note=70, velocity=55, time=15),
    Message('note_off', channel=9, note=54, velocity=55, time=0),
    Message('note_on', channel=9, note=54, velocity=55, time=33),
    Message('note_on', channel=9, note=70, velocity=55, time=0),
    Message('note_off', channel=9, note=70, velocity=55, time=15),
    Message('note_off', channel=9, note=54, velocity=55, time=0),
    Message('note_on', channel=9, note=36, velocity=55, time=33),
    Message('note_on', channel=9, note=54, velocity=55, time=0),
    Message('note_on', channel=9, note=70, velocity=55, time=0),
    Message('note_on', channel=9, note=82, velocity=55, time=0),
    Message('note_off', channel=9, note=82, velocity=55, time=15),
    Message('note_off', channel=9, note=70, velocity=55, time=0),
    Message('note_off', channel=9, note=54, velocity=55, time=0),
    Message('note_off', channel=9, note=36, velocity=55, time=0),
    Message('pitchwheel', channel=9, pitch=-1034, time=29),
    Message('note_on', channel=9, note=36, velocity=55, time=4),
    Message('note_on', channel=9, note=54, velocity=55, time=0),
    Message('note_on', channel=9, note=70, velocity=55, time=0),
    Message('note_off', channel=9, note=70, velocity=55, time=15),
    Message('note_off', channel=9, note=54, velocity=55, time=0),
    Message('note_off', channel=9, note=36, velocity=55, time=0),
    Message('note_on', channel=9, note=36, velocity=55, time=33),
    Message('note_on', channel=9, note=54, velocity=55, time=0),
    Message('note_on', channel=9, note=70, velocity=55, time=0),
    Message('note_off', channel=9, note=70, velocity=55, time=15),
    Message('note_off', channel=9, note=54, velocity=55, time=0),
    Message('note_off', channel=9, note=36, velocity=55, time=0),
    Message('note_on', channel=9, note=36, velocity=55, time=33),
    Message('note_on', channel=9, note=39, velocity=55, time=0),
    Message('note_on', channel=9, note=54, velocity=55, time=0),
    Message('note_on', channel=9, note=70, velocity=55, time=0),
    Message('note_off', channel=9, note=70, velocity=55, time=15),
    Message('note_off', channel=9, note=54, velocity=55, time=0),
    Message('note_off', channel=9, note=39, velocity=55, time=0),
    Message('note_off', channel=9, note=36, velocity=55, time=0),
    Message('note_on', channel=9, note=37, velocity=55, time=33),
    Message('note_on', channel=9, note=44, velocity=55, time=0),
    Message('note_on', channel=9, note=54, velocity=55, time=0),
    Message('note_on', channel=9, note=70, velocity=55, time=0),
    Message('note_off', channel=9, note=70, velocity=55, time=15),
    Message('note_off', channel=9, note=54, velocity=55, time=0),
    Message('note_off', channel=9, note=44, velocity=55, time=0),
    Message('note_off', channel=9, note=37, velocity=55, time=0),
    Message('note_on', channel=9, note=54, velocity=55, time=33),
    Message('note_on', channel=9, note=70, velocity=55, time=0),
    Message('note_off', channel=9, note=70, velocity=55, time=15),
    Message('note_off', channel=9, note=54, velocity=55, time=0),
    Message('note_on', channel=9, note=36, velocity=55, time=33),
    Message('note_on', channel=9, note=39, velocity=55, time=0),
    Message('note_on', channel=9, note=54, velocity=55, time=0),
    Message('note_on', channel=9, note=70, velocity=55, time=0),
    Message('note_off', channel=9, note=70, velocity=55, time=15),
    Message('note_off', channel=9, note=54, velocity=55, time=0),
    Message('note_off', channel=9, note=39, velocity=55, time=0),
    Message('note_off', channel=9, note=36, velocity=55, time=0),
    Message('note_on', channel=9, note=54, velocity=55, time=33),
    Message('note_on', channel=9, note=70, velocity=55, time=0),
    Message('note_off', channel=9, note=70, velocity=55, time=15),
    Message('note_off', channel=9, note=54, velocity=55, time=0),
    Message('note_on', channel=9, note=36, velocity=55, time=33),
    Message('note_on', channel=9, note=54, velocity=55, time=0),
    Message('note_on', channel=9, note=82, velocity=55, time=0),
    Message('note_off', channel=9, note=82, velocity=55, time=15),
    Message('note_off', channel=9, note=54, velocity=55, time=0),
    Message('note_off', channel=9, note=36, velocity=55, time=0),
    Message('note_on', channel=9, note=36, velocity=55, time=33),
    Message('note_on', channel=9, note=54, velocity=55, time=0),
    Message('note_on', channel=9, note=70, velocity=55, time=0),
    Message('note_off', channel=9, note=70, velocity=55, time=15),
    Message('note_off', channel=9, note=54, velocity=55, time=0),
    Message('note_off', channel=9, note=36, velocity=55, time=0),
    Message('note_on', channel=9, note=36, velocity=55, time=33),
    Message('note_on', channel=9, note=44, velocity=55, time=0),
    Message('note_on', channel=9, note=54, velocity=55, time=0),
    Message('note_on', channel=9, note=70, velocity=55, time=0),
    Message('note_off', channel=9, note=70, velocity=55, time=15),
    Message('note_off', channel=9, note=54, velocity=55, time=0),
    Message('note_off', channel=9, note=44, velocity=55, time=0),
    Message('note_off', channel=9, note=36, velocity=55, time=0),
    Message('note_on', channel=9, note=36, velocity=55, time=33),
    Message('note_on', channel=9, note=54, velocity=55, time=0),
    Message('note_on', channel=9, note=70, velocity=55, time=0),
    Message('note_off', channel=9, note=70, velocity=55, time=15),
    Message('note_off', channel=9, note=54, velocity=55, time=0),
    Message('note_off', channel=9, note=36, velocity=55, time=0),
    Message('note_on', channel=9, note=37, velocity=55, time=33),
    Message('note_on', channel=9, note=44, velocity=55, time=0),
    Message('note_on', channel=9, note=54, velocity=55, time=0),
    Message('note_on', channel=9, note=70, velocity=55, time=0),
    Message('note_on', channel=9, note=83, velocity=55, time=0),
    Message('note_off', channel=9, note=83, velocity=55, time=15),
    Message('note_off', channel=9, note=70, velocity=55, time=0),
    Message('note_off', channel=9, note=54, velocity=55, time=0),
    Message('note_off', channel=9, note=44, velocity=55, time=0),
    Message('note_off', channel=9, note=37, velocity=55, time=8),
    Message('note_on', channel=9, note=54, velocity=55, time=25),
    Message('note_on', channel=9, note=70, velocity=55, time=0),
    Message('note_off', channel=9, note=70, velocity=55, time=15),
    Message('note_off', channel=9, note=54, velocity=55, time=0),
    Message('note_on', channel=9, note=54, velocity=55, time=33),
    Message('note_on', channel=9, note=70, velocity=55, time=0),
    Message('note_off', channel=9, note=70, velocity=55, time=15),
    Message('note_off', channel=9, note=54, velocity=55, time=0),
    Message('note_on', channel=9, note=54, velocity=55, time=33),
    Message('note_on', channel=9, note=70, velocity=55, time=0),
    Message('note_off', channel=9, note=70, velocity=55, time=15),
    Message('note_off', channel=9, note=54, velocity=55, time=0),
    Message('note_on', channel=9, note=36, velocity=55, time=33),
    Message('note_on', channel=9, note=54, velocity=55, time=0),
    Message('note_on', channel=9, note=70, velocity=55, time=0),
    Message('note_on', channel=9, note=82, velocity=55, time=0),
    Message('note_off', channel=9, note=82, velocity=55, time=15),
    Message('note_off', channel=9, note=70, velocity=55, time=0),
    Message('note_off', channel=9, note=54, velocity=55, time=0),
    Message('note_off', channel=9, note=36, velocity=55, time=0),
    Message('pitchwheel', channel=9, pitch=-1034, time=29),
    Message('note_on', channel=9, note=36, velocity=55, time=4),
    Message('note_on', channel=9, note=54, velocity=55, time=0),
    Message('note_on', channel=9, note=70, velocity=55, time=0),
    Message('note_off', channel=9, note=70, velocity=55, time=15),
    Message('note_off', channel=9, note=54, velocity=55, time=0),
    Message('note_off', channel=9, note=36, velocity=55, time=0),
    Message('note_on', channel=9, note=36, velocity=55, time=33),
    Message('note_on', channel=9, note=54, velocity=55, time=0),
    Message('note_on', channel=9, note=70, velocity=55, time=0),
    Message('note_off', channel=9, note=70, velocity=55, time=15),
    Message('note_off', channel=9, note=54, velocity=55, time=0),
    Message('note_off', channel=9, note=36, velocity=55, time=0),
    Message('note_on', channel=9, note=36, velocity=55, time=33),
    Message('note_on', channel=9, note=39, velocity=55, time=0),
    Message('note_on', channel=9, note=54, velocity=55, time=0),
    Message('note_on', channel=9, note=70, velocity=55, time=0),
    Message('note_off', channel=9, note=70, velocity=55, time=15),
    Message('note_off', channel=9, note=54, velocity=55, time=0),
    Message('note_off', channel=9, note=39, velocity=55, time=0),
    Message('note_off', channel=9, note=36, velocity=55, time=0),
    Message('note_on', channel=9, note=37, velocity=55, time=33),
    Message('note_on', channel=9, note=44, velocity=55, time=0),
    Message('note_on', channel=9, note=54, velocity=55, time=0),
    Message('note_on', channel=9, note=70, velocity=55, time=0),
    Message('note_off', channel=9, note=70, velocity=55, time=15),
    Message('note_off', channel=9, note=54, velocity=55, time=0),
    Message('note_off', channel=9, note=44, velocity=55, time=0),
    Message('note_off', channel=9, note=37, velocity=55, time=9),
    Message('note_on', channel=9, note=54, velocity=55, time=24),
    Message('note_on', channel=9, note=70, velocity=55, time=0),
    Message('note_off', channel=9, note=70, velocity=55, time=15),
    Message('note_off', channel=9, note=54, velocity=55, time=0),
    Message('note_on', channel=9, note=36, velocity=55, time=33),
    Message('note_on', channel=9, note=39, velocity=55, time=0),
    Message('note_on', channel=9, note=54, velocity=55, time=0),
    Message('note_on', channel=9, note=70, velocity=55, time=0),
    Message('note_off', channel=9, note=70, velocity=55, time=15),
    Message('note_off', channel=9, note=54, velocity=55, time=0),
    Message('note_off', channel=9, note=39, velocity=55, time=0),
    Message('note_off', channel=9, note=36, velocity=55, time=0),
    Message('note_on', channel=9, note=54, velocity=55, time=33),
    Message('note_on', channel=9, note=70, velocity=55, time=0),
    Message('note_off', channel=9, note=70, velocity=55, time=15),
    Message('note_off', channel=9, note=54, velocity=55, time=0),
    Message('note_on', channel=9, note=36, velocity=55, time=33),
    Message('note_on', channel=9, note=54, velocity=55, time=0),
    Message('note_on', channel=9, note=82, velocity=55, time=0),
    Message('note_off', channel=9, note=82, velocity=55, time=15),
    Message('note_off', channel=9, note=54, velocity=55, time=0),
    Message('note_off', channel=9, note=36, velocity=55, time=0),
    Message('note_on', channel=9, note=36, velocity=55, time=33),
    Message('note_on', channel=9, note=54, velocity=55, time=0),
    Message('note_on', channel=9, note=70, velocity=55, time=0),
    Message('note_off', channel=9, note=70, velocity=55, time=15),
    Message('note_off', channel=9, note=54, velocity=55, time=0),
    Message('note_off', channel=9, note=36, velocity=55, time=0),
    Message('note_on', channel=9, note=36, velocity=55, time=33),
    Message('note_on', channel=9, note=44, velocity=55, time=0),
    Message('note_on', channel=9, note=54, velocity=55, time=0),
    Message('note_on', channel=9, note=70, velocity=55, time=0),
    Message('note_off', channel=9, note=70, velocity=55, time=15),
    Message('note_off', channel=9, note=54, velocity=55, time=0),
    Message('note_off', channel=9, note=44, velocity=55, time=0),
    Message('note_off', channel=9, note=36, velocity=55, time=0),
    Message('note_on', channel=9, note=36, velocity=55, time=33),
    Message('note_on', channel=9, note=54, velocity=55, time=0),
    Message('note_on', channel=9, note=70, velocity=55, time=0),
    Message('note_off', channel=9, note=70, velocity=55, time=15),
    Message('note_off', channel=9, note=54, velocity=55, time=0),
    Message('note_off', channel=9, note=36, velocity=55, time=0),
    Message('note_on', channel=9, note=37, velocity=55, time=33),
    Message('note_on', channel=9, note=44, velocity=55, time=0),
    Message('note_on', channel=9, note=54, velocity=55, time=0),
    Message('note_on', channel=9, note=70, velocity=55, time=0),
    Message('note_on', channel=9, note=83, velocity=55, time=0),
    Message('note_off', channel=9, note=83, velocity=55, time=15),
    Message('note_off', channel=9, note=70, velocity=55, time=0),
    Message('note_off', channel=9, note=54, velocity=55, time=0),
    Message('note_off', channel=9, note=44, velocity=55, time=0),
    Message('note_off', channel=9, note=37, velocity=55, time=8),
    Message('note_on', channel=9, note=54, velocity=55, time=25),
    Message('note_on', channel=9, note=70, velocity=55, time=0),
    Message('note_off', channel=9, note=70, velocity=55, time=15),
    Message('note_off', channel=9, note=54, velocity=55, time=0),
    Message('note_on', channel=9, note=54, velocity=55, time=33),
    Message('note_on', channel=9, note=70, velocity=55, time=0),
    Message('note_off', channel=9, note=70, velocity=55, time=15),
    Message('note_off', channel=9, note=54, velocity=55, time=0),
    Message('note_on', channel=9, note=54, velocity=55, time=33),
    Message('note_on', channel=9, note=70, velocity=55, time=0),
    Message('note_off', channel=9, note=70, velocity=55, time=15),
    Message('note_off', channel=9, note=54, velocity=55, time=0),
    Message('note_on', channel=9, note=36, velocity=55, time=33),
    Message('note_on', channel=9, note=54, velocity=55, time=0),
    Message('note_on', channel=9, note=70, velocity=55, time=0),
    Message('note_on', channel=9, note=82, velocity=55, time=0),
    Message('note_off', channel=9, note=82, velocity=55, time=15),
    Message('note_off', channel=9, note=70, velocity=55, time=0),
    Message('note_off', channel=9, note=54, velocity=55, time=0),
    Message('note_off', channel=9, note=36, velocity=55, time=0),
    Message('pitchwheel', channel=9, pitch=-266, time=29),
    Message('note_on', channel=9, note=36, velocity=55, time=4),
    Message('note_on', channel=9, note=54, velocity=55, time=0),
    Message('note_on', channel=9, note=70, velocity=55, time=0),
    Message('note_off', channel=9, note=70, velocity=55, time=15),
    Message('note_off', channel=9, note=54, velocity=55, time=0),
    Message('note_off', channel=9, note=36, velocity=55, time=0),
    Message('note_on', channel=9, note=36, velocity=55, time=33),
    Message('note_on', channel=9, note=54, velocity=55, time=0),
    Message('note_on', channel=9, note=70, velocity=55, time=0),
    Message('note_off', channel=9, note=70, velocity=55, time=15),
    Message('note_off', channel=9, note=54, velocity=55, time=0),
    Message('note_off', channel=9, note=36, velocity=55, time=0),
    Message('note_on', channel=9, note=36, velocity=55, time=33),
    Message('note_on', channel=9, note=39, velocity=55, time=0),
    Message('note_on', channel=9, note=54, velocity=55, time=0),
    Message('note_on', channel=9, note=70, velocity=55, time=0),
    Message('note_off', channel=9, note=70, velocity=55, time=15),
    Message('note_off', channel=9, note=54, velocity=55, time=0),
    Message('note_off', channel=9, note=39, velocity=55, time=0),
    Message('note_off', channel=9, note=36, velocity=55, time=0),
    Message('note_on', channel=9, note=37, velocity=55, time=33),
    Message('note_on', channel=9, note=44, velocity=55, time=0),
    Message('note_on', channel=9, note=54, velocity=55, time=0),
    Message('note_on', channel=9, note=70, velocity=55, time=0),
    Message('note_off', channel=9, note=70, velocity=55, time=15),
    Message('note_off', channel=9, note=54, velocity=55, time=0),
    Message('note_off', channel=9, note=44, velocity=55, time=0),
    Message('note_off', channel=9, note=37, velocity=55, time=6),
    Message('note_on', channel=9, note=54, velocity=55, time=27),
    Message('note_on', channel=9, note=70, velocity=55, time=0),
    Message('note_off', channel=9, note=70, velocity=55, time=15),
    Message('note_off', channel=9, note=54, velocity=55, time=0),
    Message('note_on', channel=9, note=36, velocity=55, time=33),
    Message('note_on', channel=9, note=39, velocity=55, time=0),
    Message('note_off', channel=9, note=39, velocity=55, time=15),
    Message('note_off', channel=9, note=36, velocity=55, time=0),
    Message('note_on', channel=9, note=54, velocity=55, time=33),
    Message('note_on', channel=9, note=70, velocity=55, time=0),
    Message('note_off', channel=9, note=70, velocity=55, time=15),
    Message('note_off', channel=9, note=54, velocity=55, time=0),
    Message('note_on', channel=9, note=36, velocity=55, time=33),
    Message('note_on', channel=9, note=54, velocity=55, time=0),
    Message('note_on', channel=9, note=82, velocity=55, time=0),
    Message('note_off', channel=9, note=82, velocity=55, time=15),
    Message('note_off', channel=9, note=54, velocity=55, time=0),
    Message('note_off', channel=9, note=36, velocity=55, time=0),
    Message('note_on', channel=9, note=36, velocity=55, time=33),
    Message('note_on', channel=9, note=54, velocity=55, time=0),
    Message('note_on', channel=9, note=70, velocity=55, time=0),
    Message('note_off', channel=9, note=70, velocity=55, time=15),
    Message('note_off', channel=9, note=54, velocity=55, time=0),
    Message('note_off', channel=9, note=36, velocity=55, time=0),
    Message('note_on', channel=9, note=36, velocity=55, time=33),
    Message('note_on', channel=9, note=44, velocity=55, time=0),
    Message('note_on', channel=9, note=54, velocity=55, time=0),
    Message('note_on', channel=9, note=70, velocity=55, time=0),
    Message('note_off', channel=9, note=70, velocity=55, time=15),
    Message('note_off', channel=9, note=54, velocity=55, time=0),
    Message('note_off', channel=9, note=44, velocity=55, time=0),
    Message('note_off', channel=9, note=36, velocity=55, time=0),
    Message('note_on', channel=9, note=36, velocity=55, time=33),
    Message('note_on', channel=9, note=54, velocity=55, time=0),
    Message('note_on', channel=9, note=70, velocity=55, time=0),
    Message('note_off', channel=9, note=70, velocity=55, time=15),
    Message('note_off', channel=9, note=54, velocity=55, time=0),
    Message('note_off', channel=9, note=36, velocity=55, time=0),
    Message('note_on', channel=9, note=37, velocity=55, time=33),
    Message('note_on', channel=9, note=44, velocity=55, time=0),
    Message('note_on', channel=9, note=54, velocity=55, time=0),
    Message('note_on', channel=9, note=70, velocity=55, time=0),
    Message('note_on', channel=9, note=83, velocity=55, time=0),
    Message('note_off', channel=9, note=83, velocity=55, time=15),
    Message('note_off', channel=9, note=70, velocity=55, time=0),
    Message('note_off', channel=9, note=54, velocity=55, time=0),
    Message('note_off', channel=9, note=44, velocity=55, time=0),
    Message('note_off', channel=9, note=37, velocity=55, time=10),
    Message('note_on', channel=9, note=54, velocity=55, time=23),
    Message('note_on', channel=9, note=70, velocity=55, time=0),
    Message('note_off', channel=9, note=70, velocity=55, time=15),
    Message('note_off', channel=9, note=54, velocity=55, time=0),
    Message('note_on', channel=9, note=54, velocity=55, time=33),
    Message('note_on', channel=9, note=70, velocity=55, time=0),
    Message('note_off', channel=9, note=70, velocity=55, time=15),
    Message('note_off', channel=9, note=54, velocity=55, time=0),
    Message('note_on', channel=9, note=54, velocity=55, time=33),
    Message('note_on', channel=9, note=70, velocity=55, time=0),
    Message('note_off', channel=9, note=70, velocity=55, time=15),
    Message('note_off', channel=9, note=54, velocity=55, time=0),
    Message('note_on', channel=9, note=36, velocity=55, time=33),
    Message('note_on', channel=9, note=54, velocity=55, time=0),
    Message('note_on', channel=9, note=70, velocity=55, time=0),
    Message('note_on', channel=9, note=82, velocity=55, time=0),
    Message('note_off', channel=9, note=82, velocity=55, time=15),
    Message('note_off', channel=9, note=70, velocity=55, time=0),
    Message('note_off', channel=9, note=54, velocity=55, time=0),
    Message('note_off', channel=9, note=36, velocity=55, time=0),
    Message('pitchwheel', channel=9, pitch=-1034, time=29),
    Message('note_on', channel=9, note=36, velocity=55, time=4),
    Message('note_on', channel=9, note=54, velocity=55, time=0),
    Message('note_on', channel=9, note=70, velocity=55, time=0),
    Message('note_off', channel=9, note=70, velocity=55, time=15),
    Message('note_off', channel=9, note=54, velocity=55, time=0),
    Message('note_off', channel=9, note=36, velocity=55, time=0),
    Message('note_on', channel=9, note=36, velocity=55, time=33),
    Message('note_on', channel=9, note=54, velocity=55, time=0),
    Message('note_on', channel=9, note=70, velocity=55, time=0),
    Message('note_off', channel=9, note=70, velocity=55, time=15),
    Message('note_off', channel=9, note=54, velocity=55, time=0),
    Message('note_off', channel=9, note=36, velocity=55, time=0),
    Message('note_on', channel=9, note=36, velocity=55, time=33),
    Message('note_on', channel=9, note=39, velocity=55, time=0),
    Message('note_off', channel=9, note=39, velocity=55, time=15),
    Message('note_off', channel=9, note=36, velocity=55, time=0),
    Message('note_on', channel=9, note=37, velocity=55, time=33),
    Message('note_on', channel=9, note=44, velocity=55, time=0),
    Message('note_on', channel=9, note=54, velocity=55, time=0),
    Message('note_on', channel=9, note=70, velocity=55, time=0),
    Message('note_off', channel=9, note=70, velocity=55, time=15),
    Message('note_off', channel=9, note=54, velocity=55, time=0),
    Message('note_off', channel=9, note=44, velocity=55, time=0),
    Message('note_off', channel=9, note=37, velocity=55, time=10),
    Message('note_on', channel=9, note=54, velocity=55, time=23),
    Message('note_on', channel=9, note=70, velocity=55, time=0),
    Message('note_off', channel=9, note=70, velocity=55, time=15),
    Message('note_off', channel=9, note=54, velocity=55, time=0),
    Message('note_on', channel=9, note=36, velocity=55, time=33),
    Message('note_on', channel=9, note=39, velocity=55, time=0),
    Message('note_off', channel=9, note=39, velocity=55, time=15),
    Message('note_off', channel=9, note=36, velocity=55, time=0),
    Message('note_on', channel=9, note=54, velocity=55, time=33),
    Message('note_on', channel=9, note=70, velocity=55, time=0),
    Message('note_off', channel=9, note=70, velocity=55, time=15),
    Message('note_off', channel=9, note=54, velocity=55, time=0),
    Message('note_on', channel=9, note=36, velocity=55, time=33),
    Message('note_on', channel=9, note=54, velocity=55, time=0),
    Message('note_on', channel=9, note=82, velocity=55, time=0),
    Message('note_off', channel=9, note=82, velocity=55, time=15),
    Message('note_off', channel=9, note=54, velocity=55, time=0),
    Message('note_off', channel=9, note=36, velocity=55, time=0),
    Message('note_on', channel=9, note=36, velocity=55, time=33),
    Message('note_on', channel=9, note=54, velocity=55, time=0),
    Message('note_on', channel=9, note=70, velocity=55, time=0),
    Message('note_off', channel=9, note=70, velocity=55, time=15),
    Message('note_off', channel=9, note=54, velocity=55, time=0),
    Message('note_off', channel=9, note=36, velocity=55, time=0),
    Message('note_on', channel=9, note=36, velocity=55, time=33),
    Message('note_on', channel=9, note=44, velocity=55, time=0),
    Message('note_on', channel=9, note=54, velocity=55, time=0),
    Message('note_on', channel=9, note=70, velocity=55, time=0),
    Message('note_off', channel=9, note=70, velocity=55, time=15),
    Message('note_off', channel=9, note=54, velocity=55, time=0),
    Message('note_off', channel=9, note=44, velocity=55, time=0),
    Message('note_off', channel=9, note=36, velocity=55, time=0),
    Message('note_on', channel=9, note=36, velocity=55, time=33),
    Message('note_on', channel=9, note=54, velocity=55, time=0),
    Message('note_on', channel=9, note=70, velocity=55, time=0),
    Message('note_off', channel=9, note=70, velocity=55, time=15),
    Message('note_off', channel=9, note=54, velocity=55, time=0),
    Message('note_off', channel=9, note=36, velocity=55, time=0),
    Message('note_on', channel=9, note=37, velocity=55, time=33),
    Message('note_on', channel=9, note=44, velocity=55, time=0),
    Message('note_on', channel=9, note=54, velocity=55, time=0),
    Message('note_on', channel=9, note=70, velocity=55, time=0),
    Message('note_on', channel=9, note=83, velocity=55, time=0),
    Message('note_off', channel=9, note=83, velocity=55, time=15),
    Message('note_off', channel=9, note=70, velocity=55, time=0),
    Message('note_off', channel=9, note=54, velocity=55, time=0),
    Message('note_off', channel=9, note=44, velocity=55, time=0),
    Message('note_off', channel=9, note=37, velocity=55, time=13),
    Message('note_on', channel=9, note=54, velocity=55, time=20),
    Message('note_on', channel=9, note=70, velocity=55, time=0),
    Message('note_off', channel=9, note=70, velocity=55, time=15),
    Message('note_off', channel=9, note=54, velocity=55, time=0),
    Message('note_on', channel=9, note=54, velocity=55, time=33),
    Message('note_on', channel=9, note=70, velocity=55, time=0),
    Message('note_off', channel=9, note=70, velocity=55, time=15),
    Message('note_off', channel=9, note=54, velocity=55, time=0),
    Message('note_on', channel=9, note=54, velocity=55, time=33),
    Message('note_on', channel=9, note=70, velocity=55, time=0),
    Message('note_off', channel=9, note=70, velocity=55, time=15),
    Message('note_off', channel=9, note=54, velocity=55, time=0),
    Message('note_on', channel=9, note=36, velocity=55, time=33),
    Message('note_on', channel=9, note=54, velocity=55, time=0),
    Message('note_on', channel=9, note=70, velocity=55, time=0),
    Message('note_on', channel=9, note=82, velocity=55, time=0),
    Message('note_off', channel=9, note=82, velocity=55, time=15),
    Message('note_off', channel=9, note=70, velocity=55, time=0),
    Message('note_off', channel=9, note=54, velocity=55, time=0),
    Message('note_off', channel=9, note=36, velocity=55, time=0),
    Message('pitchwheel', channel=9, pitch=-266, time=29),
    Message('note_on', channel=9, note=36, velocity=55, time=4),
    Message('note_on', channel=9, note=54, velocity=55, time=0),
    Message('note_on', channel=9, note=70, velocity=55, time=0),
    Message('note_off', channel=9, note=70, velocity=55, time=15),
    Message('note_off', channel=9, note=54, velocity=55, time=0),
    Message('note_off', channel=9, note=36, velocity=55, time=0),
    Message('note_on', channel=9, note=36, velocity=55, time=33),
    Message('note_on', channel=9, note=54, velocity=55, time=0),
    Message('note_on', channel=9, note=70, velocity=55, time=0),
    Message('note_off', channel=9, note=70, velocity=55, time=15),
    Message('note_off', channel=9, note=54, velocity=55, time=0),
    Message('note_off', channel=9, note=36, velocity=55, time=0),
    Message('note_on', channel=9, note=36, velocity=55, time=33),
    Message('note_on', channel=9, note=39, velocity=55, time=0),
    Message('note_off', channel=9, note=39, velocity=55, time=15),
    Message('note_off', channel=9, note=36, velocity=55, time=0),
    Message('note_on', channel=9, note=37, velocity=55, time=33),
    Message('note_on', channel=9, note=44, velocity=55, time=0),
    Message('note_on', channel=9, note=54, velocity=55, time=0),
    Message('note_on', channel=9, note=70, velocity=55, time=0),
    Message('note_off', channel=9, note=70, velocity=55, time=15),
    Message('note_off', channel=9, note=54, velocity=55, time=0),
    Message('note_off', channel=9, note=44, velocity=55, time=0),
    Message('note_off', channel=9, note=37, velocity=55, time=12),
    Message('note_on', channel=9, note=54, velocity=55, time=21),
    Message('note_on', channel=9, note=70, velocity=55, time=0),
    Message('note_off', channel=9, note=70, velocity=55, time=15),
    Message('note_off', channel=9, note=54, velocity=55, time=0),
    Message('note_on', channel=9, note=36, velocity=55, time=33),
    Message('note_on', channel=9, note=39, velocity=55, time=0),
    Message('note_off', channel=9, note=39, velocity=55, time=15),
    Message('note_off', channel=9, note=36, velocity=55, time=0),
    Message('note_on', channel=9, note=54, velocity=55, time=33),
    Message('note_on', channel=9, note=70, velocity=55, time=0),
    Message('note_off', channel=9, note=70, velocity=55, time=15),
    Message('note_off', channel=9, note=54, velocity=55, time=0),
    Message('note_on', channel=9, note=36, velocity=55, time=33),
    Message('note_on', channel=9, note=54, velocity=55, time=0),
    Message('note_on', channel=9, note=82, velocity=55, time=0),
    Message('note_off', channel=9, note=82, velocity=55, time=15),
    Message('note_off', channel=9, note=54, velocity=55, time=0),
    Message('note_off', channel=9, note=36, velocity=55, time=0),
    Message('note_on', channel=9, note=36, velocity=55, time=33),
    Message('note_on', channel=9, note=54, velocity=55, time=0),
    Message('note_on', channel=9, note=70, velocity=55, time=0),
    Message('note_off', channel=9, note=70, velocity=55, time=15),
    Message('note_off', channel=9, note=54, velocity=55, time=0),
    Message('note_off', channel=9, note=36, velocity=55, time=0),
    Message('note_on', channel=9, note=36, velocity=55, time=33),
    Message('note_on', channel=9, note=44, velocity=55, time=0),
    Message('note_on', channel=9, note=54, velocity=55, time=0),
    Message('note_on', channel=9, note=70, velocity=55, time=0),
    Message('note_off', channel=9, note=70, velocity=55, time=15),
    Message('note_off', channel=9, note=54, velocity=55, time=0),
    Message('note_off', channel=9, note=44, velocity=55, time=0),
    Message('note_off', channel=9, note=36, velocity=55, time=0),
    Message('note_on', channel=9, note=36, velocity=55, time=33),
    Message('note_on', channel=9, note=54, velocity=55, time=0),
    Message('note_on', channel=9, note=70, velocity=55, time=0),
    Message('note_off', channel=9, note=70, velocity=55, time=15),
    Message('note_off', channel=9, note=54, velocity=55, time=0),
    Message('note_off', channel=9, note=36, velocity=55, time=0),
    Message('note_on', channel=9, note=37, velocity=55, time=33),
    Message('note_on', channel=9, note=44, velocity=55, time=0),
    Message('note_on', channel=9, note=54, velocity=55, time=0),
    Message('note_on', channel=9, note=70, velocity=55, time=0),
    Message('note_on', channel=9, note=83, velocity=55, time=0),
    Message('note_off', channel=9, note=83, velocity=55, time=15),
    Message('note_off', channel=9, note=70, velocity=55, time=0),
    Message('note_off', channel=9, note=54, velocity=55, time=0),
    Message('note_off', channel=9, note=44, velocity=55, time=0),
    Message('note_off', channel=9, note=37, velocity=55, time=15),
    Message('note_on', channel=9, note=54, velocity=55, time=18),
    Message('note_on', channel=9, note=70, velocity=55, time=0),
    Message('note_off', channel=9, note=70, velocity=55, time=15),
    Message('note_off', channel=9, note=54, velocity=55, time=0),
    Message('note_on', channel=9, note=54, velocity=55, time=33),
    Message('note_on', channel=9, note=70, velocity=55, time=0),
    Message('note_off', channel=9, note=70, velocity=55, time=15),
    Message('note_off', channel=9, note=54, velocity=55, time=0),
    Message('note_on', channel=9, note=54, velocity=55, time=33),
    Message('note_on', channel=9, note=70, velocity=55, time=0),
    Message('note_off', channel=9, note=70, velocity=55, time=15),
    Message('note_off', channel=9, note=54, velocity=55, time=0),
    Message('note_on', channel=9, note=36, velocity=55, time=33),
    Message('note_on', channel=9, note=54, velocity=55, time=0),
    Message('note_on', channel=9, note=70, velocity=55, time=0),
    Message('note_on', channel=9, note=82, velocity=55, time=0),
    Message('note_off', channel=9, note=82, velocity=55, time=15),
    Message('note_off', channel=9, note=70, velocity=55, time=0),
    Message('note_off', channel=9, note=54, velocity=55, time=0),
    Message('note_off', channel=9, note=36, velocity=55, time=0),
    Message('pitchwheel', channel=9, pitch=-1034, time=29),
    Message('note_on', channel=9, note=36, velocity=55, time=4),
    Message('note_on', channel=9, note=54, velocity=55, time=0),
    Message('note_on', channel=9, note=70, velocity=55, time=0),
    Message('note_off', channel=9, note=70, velocity=55, time=15),
    Message('note_off', channel=9, note=54, velocity=55, time=0),
    Message('note_off', channel=9, note=36, velocity=55, time=0),
    Message('note_on', channel=9, note=36, velocity=55, time=33),
    Message('note_on', channel=9, note=54, velocity=55, time=0),
    Message('note_on', channel=9, note=70, velocity=55, time=0),
    Message('note_off', channel=9, note=70, velocity=55, time=15),
    Message('note_off', channel=9, note=54, velocity=55, time=0),
    Message('note_off', channel=9, note=36, velocity=55, time=0),
    Message('note_on', channel=9, note=36, velocity=55, time=33),
    Message('note_on', channel=9, note=39, velocity=55, time=0),
    Message('note_off', channel=9, note=39, velocity=55, time=15),
    Message('note_off', channel=9, note=36, velocity=55, time=0),
    Message('note_on', channel=9, note=37, velocity=55, time=33),
    Message('note_on', channel=9, note=44, velocity=55, time=0),
    Message('note_on', channel=9, note=54, velocity=55, time=0),
    Message('note_on', channel=9, note=70, velocity=55, time=0),
    Message('note_off', channel=9, note=70, velocity=55, time=15),
    Message('note_off', channel=9, note=54, velocity=55, time=0),
    Message('note_off', channel=9, note=44, velocity=55, time=0),
    Message('note_off', channel=9, note=37, velocity=55, time=17),
    Message('note_on', channel=9, note=54, velocity=55, time=16),
    Message('note_on', channel=9, note=70, velocity=55, time=0),
    Message('note_off', channel=9, note=70, velocity=55, time=15),
    Message('note_off', channel=9, note=54, velocity=55, time=0),
    Message('note_on', channel=9, note=36, velocity=55, time=33),
    Message('note_on', channel=9, note=39, velocity=55, time=0),
    Message('note_off', channel=9, note=39, velocity=55, time=15),
    Message('note_off', channel=9, note=36, velocity=55, time=0),
    Message('note_on', channel=9, note=54, velocity=55, time=33),
    Message('note_on', channel=9, note=70, velocity=55, time=0),
    Message('note_off', channel=9, note=70, velocity=55, time=15),
    Message('note_off', channel=9, note=54, velocity=55, time=0),
    Message('note_on', channel=9, note=36, velocity=55, time=33),
    Message('note_on', channel=9, note=54, velocity=55, time=0),
    Message('note_on', channel=9, note=82, velocity=55, time=0),
    Message('note_off', channel=9, note=82, velocity=55, time=15),
    Message('note_off', channel=9, note=54, velocity=55, time=0),
    Message('note_off', channel=9, note=36, velocity=55, time=0),
    Message('note_on', channel=9, note=36, velocity=55, time=33),
    Message('note_on', channel=9, note=54, velocity=55, time=0),
    Message('note_on', channel=9, note=70, velocity=55, time=0),
    Message('note_off', channel=9, note=70, velocity=55, time=15),
    Message('note_off', channel=9, note=54, velocity=55, time=0),
    Message('note_off', channel=9, note=36, velocity=55, time=0),
    Message('note_on', channel=9, note=36, velocity=55, time=33),
    Message('note_on', channel=9, note=44, velocity=55, time=0),
    Message('note_on', channel=9, note=54, velocity=55, time=0),
    Message('note_on', channel=9, note=70, velocity=55, time=0),
    Message('note_off', channel=9, note=70, velocity=55, time=15),
    Message('note_off', channel=9, note=54, velocity=55, time=0),
    Message('note_off', channel=9, note=44, velocity=55, time=0),
    Message('note_off', channel=9, note=36, velocity=55, time=0),
    Message('note_on', channel=9, note=36, velocity=55, time=33),
    Message('note_on', channel=9, note=54, velocity=55, time=0),
    Message('note_on', channel=9, note=70, velocity=55, time=0),
    Message('note_off', channel=9, note=70, velocity=55, time=15),
    Message('note_off', channel=9, note=54, velocity=55, time=0),
    Message('note_off', channel=9, note=36, velocity=55, time=0),
    Message('note_on', channel=9, note=37, velocity=55, time=33),
    Message('note_on', channel=9, note=44, velocity=55, time=0),
    Message('note_on', channel=9, note=54, velocity=55, time=0),
    Message('note_on', channel=9, note=70, velocity=55, time=0),
    Message('note_on', channel=9, note=83, velocity=55, time=0),
    Message('note_off', channel=9, note=83, velocity=55, time=15),
    Message('note_off', channel=9, note=70, velocity=55, time=0),
    Message('note_off', channel=9, note=54, velocity=55, time=0),
    Message('note_off', channel=9, note=44, velocity=55, time=0),
    Message('note_off', channel=9, note=37, velocity=55, time=15),
    Message('note_on', channel=9, note=54, velocity=55, time=18),
    Message('note_on', channel=9, note=70, velocity=55, time=0),
    Message('note_off', channel=9, note=70, velocity=55, time=15),
    Message('note_off', channel=9, note=54, velocity=55, time=0),
    Message('note_on', channel=9, note=54, velocity=55, time=33),
    Message('note_on', channel=9, note=70, velocity=55, time=0),
    Message('note_off', channel=9, note=70, velocity=55, time=15),
    Message('note_off', channel=9, note=54, velocity=55, time=0),
    Message('note_on', channel=9, note=54, velocity=55, time=33),
    Message('note_on', channel=9, note=70, velocity=55, time=0),
    Message('note_off', channel=9, note=70, velocity=55, time=15),
    Message('note_off', channel=9, note=54, velocity=55, time=0),
    Message('note_on', channel=9, note=36, velocity=55, time=33),
    Message('note_on', channel=9, note=54, velocity=55, time=0),
    Message('note_on', channel=9, note=70, velocity=55, time=0),
    Message('note_on', channel=9, note=82, velocity=55, time=0),
    Message('note_off', channel=9, note=82, velocity=55, time=15),
    Message('note_off', channel=9, note=70, velocity=55, time=0),
    Message('note_off', channel=9, note=54, velocity=55, time=0),
    Message('note_off', channel=9, note=36, velocity=55, time=0),
    Message('pitchwheel', channel=9, pitch=-266, time=29),
    Message('note_on', channel=9, note=36, velocity=55, time=4),
    Message('note_on', channel=9, note=54, velocity=55, time=0),
    Message('note_on', channel=9, note=70, velocity=55, time=0),
    Message('note_off', channel=9, note=70, velocity=55, time=15),
    Message('note_off', channel=9, note=54, velocity=55, time=0),
    Message('note_off', channel=9, note=36, velocity=55, time=0),
    Message('note_on', channel=9, note=36, velocity=55, time=33),
    Message('note_on', channel=9, note=54, velocity=55, time=0),
    Message('note_on', channel=9, note=70, velocity=55, time=0),
    Message('note_off', channel=9, note=70, velocity=55, time=15),
    Message('note_off', channel=9, note=54, velocity=55, time=0),
    Message('note_off', channel=9, note=36, velocity=55, time=0),
    Message('note_on', channel=9, note=36, velocity=55, time=33),
    Message('note_on', channel=9, note=39, velocity=55, time=0),
    Message('note_off', channel=9, note=39, velocity=55, time=15),
    Message('note_off', channel=9, note=36, velocity=55, time=0),
    Message('note_on', channel=9, note=37, velocity=55, time=33),
    Message('note_on', channel=9, note=44, velocity=55, time=0),
    Message('note_on', channel=9, note=54, velocity=55, time=0),
    Message('note_on', channel=9, note=70, velocity=55, time=0),
    Message('note_off', channel=9, note=70, velocity=55, time=15),
    Message('note_off', channel=9, note=54, velocity=55, time=0),
    Message('note_off', channel=9, note=44, velocity=55, time=0),
    Message('note_off', channel=9, note=37, velocity=55, time=13),
    Message('note_on', channel=9, note=54, velocity=55, time=20),
    Message('note_on', channel=9, note=70, velocity=55, time=0),
    Message('note_off', channel=9, note=70, velocity=55, time=15),
    Message('note_off', channel=9, note=54, velocity=55, time=0),
    Message('note_on', channel=9, note=36, velocity=55, time=33),
    Message('note_on', channel=9, note=39, velocity=55, time=0),
    Message('note_off', channel=9, note=39, velocity=55, time=15),
    Message('note_off', channel=9, note=36, velocity=55, time=0),
    Message('note_on', channel=9, note=54, velocity=55, time=33),
    Message('note_on', channel=9, note=70, velocity=55, time=0),
    Message('note_off', channel=9, note=70, velocity=55, time=15),
    Message('note_off', channel=9, note=54, velocity=55, time=0),
    Message('note_on', channel=9, note=36, velocity=55, time=33),
    Message('note_on', channel=9, note=54, velocity=55, time=0),
    Message('note_on', channel=9, note=82, velocity=55, time=0),
    Message('note_off', channel=9, note=82, velocity=55, time=15),
    Message('note_off', channel=9, note=54, velocity=55, time=0),
    Message('note_off', channel=9, note=36, velocity=55, time=0),
    Message('note_on', channel=9, note=36, velocity=55, time=33),
    Message('note_on', channel=9, note=54, velocity=55, time=0),
    Message('note_on', channel=9, note=70, velocity=55, time=0),
    Message('note_off', channel=9, note=70, velocity=55, time=15),
    Message('note_off', channel=9, note=54, velocity=55, time=0),
    Message('note_off', channel=9, note=36, velocity=55, time=0),
    Message('note_on', channel=9, note=36, velocity=55, time=33),
    Message('note_on', channel=9, note=44, velocity=55, time=0),
    Message('note_on', channel=9, note=54, velocity=55, time=0),
    Message('note_on', channel=9, note=70, velocity=55, time=0),
    Message('note_off', channel=9, note=70, velocity=55, time=15),
    Message('note_off', channel=9, note=54, velocity=55, time=0),
    Message('note_off', channel=9, note=44, velocity=55, time=0),
    Message('note_off', channel=9, note=36, velocity=55, time=0),
    Message('note_on', channel=9, note=36, velocity=55, time=33),
    Message('note_on', channel=9, note=54, velocity=55, time=0),
    Message('note_on', channel=9, note=70, velocity=55, time=0),
    Message('note_off', channel=9, note=70, velocity=55, time=15),
    Message('note_off', channel=9, note=54, velocity=55, time=0),
    Message('note_off', channel=9, note=36, velocity=55, time=0),
    Message('note_on', channel=9, note=37, velocity=55, time=33),
    Message('note_on', channel=9, note=44, velocity=55, time=0),
    Message('note_on', channel=9, note=54, velocity=55, time=0),
    Message('note_on', channel=9, note=70, velocity=55, time=0),
    Message('note_on', channel=9, note=83, velocity=55, time=0),
    Message('note_off', channel=9, note=83, velocity=55, time=15),
    Message('note_off', channel=9, note=70, velocity=55, time=0),
    Message('note_off', channel=9, note=54, velocity=55, time=0),
    Message('note_off', channel=9, note=44, velocity=55, time=0),
    Message('note_off', channel=9, note=37, velocity=55, time=15),
    Message('note_on', channel=9, note=54, velocity=55, time=18),
    Message('note_on', channel=9, note=70, velocity=55, time=0),
    Message('note_off', channel=9, note=70, velocity=55, time=15),
    Message('note_off', channel=9, note=54, velocity=55, time=0),
    Message('note_on', channel=9, note=54, velocity=55, time=33),
    Message('note_on', channel=9, note=70, velocity=55, time=0),
    Message('note_off', channel=9, note=70, velocity=55, time=15),
    Message('note_off', channel=9, note=54, velocity=55, time=0),
    Message('note_on', channel=9, note=54, velocity=55, time=33),
    Message('note_on', channel=9, note=70, velocity=55, time=0),
    Message('note_off', channel=9, note=70, velocity=55, time=15),
    Message('note_off', channel=9, note=54, velocity=55, time=0),
    Message('note_on', channel=9, note=36, velocity=55, time=33),
    Message('note_on', channel=9, note=54, velocity=55, time=0),
    Message('note_on', channel=9, note=70, velocity=55, time=0),
    Message('note_on', channel=9, note=82, velocity=55, time=0),
    Message('note_off', channel=9, note=82, velocity=55, time=15),
    Message('note_off', channel=9, note=70, velocity=55, time=0),
    Message('note_off', channel=9, note=54, velocity=55, time=0),
    Message('note_off', channel=9, note=36, velocity=55, time=0),
    Message('pitchwheel', channel=9, pitch=-1034, time=29),
    Message('note_on', channel=9, note=36, velocity=55, time=4),
    Message('note_on', channel=9, note=54, velocity=55, time=0),
    Message('note_on', channel=9, note=70, velocity=55, time=0),
    Message('note_off', channel=9, note=70, velocity=55, time=15),
    Message('note_off', channel=9, note=54, velocity=55, time=0),
    Message('note_off', channel=9, note=36, velocity=55, time=0),
    Message('note_on', channel=9, note=36, velocity=55, time=33),
    Message('note_on', channel=9, note=54, velocity=55, time=0),
    Message('note_on', channel=9, note=70, velocity=55, time=0),
    Message('note_off', channel=9, note=70, velocity=55, time=15),
    Message('note_off', channel=9, note=54, velocity=55, time=0),
    Message('note_off', channel=9, note=36, velocity=55, time=0),
    Message('note_on', channel=9, note=36, velocity=55, time=33),
    Message('note_on', channel=9, note=39, velocity=55, time=0),
    Message('note_off', channel=9, note=39, velocity=55, time=15),
    Message('note_off', channel=9, note=36, velocity=55, time=0),
    Message('note_on', channel=9, note=37, velocity=55, time=33),
    Message('note_on', channel=9, note=44, velocity=55, time=0),
    Message('note_on', channel=9, note=54, velocity=55, time=0),
    Message('note_on', channel=9, note=70, velocity=55, time=0),
    Message('note_off', channel=9, note=70, velocity=55, time=15),
    Message('note_off', channel=9, note=54, velocity=55, time=0),
    Message('note_off', channel=9, note=44, velocity=55, time=0),
    Message('note_off', channel=9, note=37, velocity=55, time=14),
    Message('note_on', channel=9, note=54, velocity=55, time=19),
    Message('note_on', channel=9, note=70, velocity=55, time=0),
    Message('note_off', channel=9, note=70, velocity=55, time=15),
    Message('note_off', channel=9, note=54, velocity=55, time=0),
    Message('note_on', channel=9, note=36, velocity=55, time=33),
    Message('note_on', channel=9, note=39, velocity=55, time=0),
    Message('note_off', channel=9, note=39, velocity=55, time=15),
    Message('note_off', channel=9, note=36, velocity=55, time=0),
    Message('note_on', channel=9, note=54, velocity=55, time=33),
    Message('note_on', channel=9, note=70, velocity=55, time=0),
    Message('note_off', channel=9, note=70, velocity=55, time=15),
    Message('note_off', channel=9, note=54, velocity=55, time=0),
    Message('note_on', channel=9, note=36, velocity=55, time=33),
    Message('note_on', channel=9, note=54, velocity=55, time=0),
    Message('note_on', channel=9, note=82, velocity=55, time=0),
    Message('note_off', channel=9, note=82, velocity=55, time=15),
    Message('note_off', channel=9, note=54, velocity=55, time=0),
    Message('note_off', channel=9, note=36, velocity=55, time=0),
    Message('note_on', channel=9, note=36, velocity=55, time=33),
    Message('note_on', channel=9, note=54, velocity=55, time=0),
    Message('note_on', channel=9, note=70, velocity=55, time=0),
    Message('note_off', channel=9, note=70, velocity=55, time=15),
    Message('note_off', channel=9, note=54, velocity=55, time=0),
    Message('note_off', channel=9, note=36, velocity=55, time=0),
    Message('note_on', channel=9, note=36, velocity=55, time=33),
    Message('note_on', channel=9, note=44, velocity=55, time=0),
    Message('note_on', channel=9, note=54, velocity=55, time=0),
    Message('note_on', channel=9, note=70, velocity=55, time=0),
    Message('note_off', channel=9, note=70, velocity=55, time=15),
    Message('note_off', channel=9, note=54, velocity=55, time=0),
    Message('note_off', channel=9, note=44, velocity=55, time=0),
    Message('note_off', channel=9, note=36, velocity=55, time=0),
    Message('note_on', channel=9, note=36, velocity=55, time=33),
    Message('note_on', channel=9, note=54, velocity=55, time=0),
    Message('note_on', channel=9, note=70, velocity=55, time=0),
    Message('note_off', channel=9, note=70, velocity=55, time=15),
    Message('note_off', channel=9, note=54, velocity=55, time=0),
    Message('note_off', channel=9, note=36, velocity=55, time=0),
    Message('note_on', channel=9, note=37, velocity=55, time=33),
    Message('note_on', channel=9, note=44, velocity=55, time=0),
    Message('note_on', channel=9, note=54, velocity=55, time=0),
    Message('note_on', channel=9, note=70, velocity=55, time=0),
    Message('note_on', channel=9, note=83, velocity=55, time=0),
    Message('note_off', channel=9, note=83, velocity=55, time=15),
    Message('note_off', channel=9, note=70, velocity=55, time=0),
    Message('note_off', channel=9, note=54, velocity=55, time=0),
    Message('note_off', channel=9, note=44, velocity=55, time=0),
    Message('note_off', channel=9, note=37, velocity=55, time=17),
    Message('note_on', channel=9, note=54, velocity=55, time=16),
    Message('note_on', channel=9, note=70, velocity=55, time=0),
    Message('note_off', channel=9, note=70, velocity=55, time=15),
    Message('note_off', channel=9, note=54, velocity=55, time=0),
    Message('note_on', channel=9, note=54, velocity=55, time=33),
    Message('note_on', channel=9, note=70, velocity=55, time=0),
    Message('note_off', channel=9, note=70, velocity=55, time=15),
    Message('note_off', channel=9, note=54, velocity=55, time=0),
    Message('note_on', channel=9, note=54, velocity=55, time=33),
    Message('note_on', channel=9, note=70, velocity=55, time=0),
    Message('note_off', channel=9, note=70, velocity=55, time=15),
    Message('note_off', channel=9, note=54, velocity=55, time=0),
    Message('note_on', channel=9, note=36, velocity=55, time=33),
    Message('note_on', channel=9, note=54, velocity=55, time=0),
    Message('note_on', channel=9, note=70, velocity=55, time=0),
    Message('note_on', channel=9, note=82, velocity=55, time=0),
    Message('note_off', channel=9, note=82, velocity=55, time=15),
    Message('note_off', channel=9, note=70, velocity=55, time=0),
    Message('note_off', channel=9, note=54, velocity=55, time=0),
    Message('note_off', channel=9, note=36, velocity=55, time=0),
    Message('pitchwheel', channel=9, pitch=-1034, time=29),
    Message('note_on', channel=9, note=36, velocity=55, time=4),
    Message('note_on', channel=9, note=54, velocity=55, time=0),
    Message('note_on', channel=9, note=70, velocity=55, time=0),
    Message('note_off', channel=9, note=70, velocity=55, time=15),
    Message('note_off', channel=9, note=54, velocity=55, time=0),
    Message('note_off', channel=9, note=36, velocity=55, time=0),
    Message('note_on', channel=9, note=36, velocity=55, time=33),
    Message('note_on', channel=9, note=54, velocity=55, time=0),
    Message('note_on', channel=9, note=70, velocity=55, time=0),
    Message('note_off', channel=9, note=70, velocity=55, time=15),
    Message('note_off', channel=9, note=54, velocity=55, time=0),
    Message('note_off', channel=9, note=36, velocity=55, time=0),
    Message('note_on', channel=9, note=36, velocity=55, time=33),
    Message('note_on', channel=9, note=39, velocity=55, time=0),
    Message('note_off', channel=9, note=39, velocity=55, time=15),
    Message('note_off', channel=9, note=36, velocity=55, time=0),
    Message('note_on', channel=9, note=37, velocity=55, time=33),
    Message('note_on', channel=9, note=44, velocity=55, time=0),
    Message('note_on', channel=9, note=54, velocity=55, time=0),
    Message('note_on', channel=9, note=70, velocity=55, time=0),
    Message('note_off', channel=9, note=70, velocity=55, time=15),
    Message('note_off', channel=9, note=54, velocity=55, time=0),
    Message('note_off', channel=9, note=44, velocity=55, time=0),
    Message('note_off', channel=9, note=37, velocity=55, time=12),
    Message('note_on', channel=9, note=54, velocity=55, time=21),
    Message('note_on', channel=9, note=70, velocity=55, time=0),
    Message('note_off', channel=9, note=70, velocity=55, time=15),
    Message('note_off', channel=9, note=54, velocity=55, time=0),
    Message('note_on', channel=9, note=36, velocity=55, time=33),
    Message('note_on', channel=9, note=39, velocity=55, time=0),
    Message('note_off', channel=9, note=39, velocity=55, time=15),
    Message('note_off', channel=9, note=36, velocity=55, time=0),
    Message('note_on', channel=9, note=54, velocity=55, time=33),
    Message('note_on', channel=9, note=70, velocity=55, time=0),
    Message('note_off', channel=9, note=70, velocity=55, time=15),
    Message('note_off', channel=9, note=54, velocity=55, time=0),
    Message('note_on', channel=9, note=36, velocity=55, time=33),
    Message('note_on', channel=9, note=54, velocity=55, time=0),
    Message('note_on', channel=9, note=82, velocity=55, time=0),
    Message('note_off', channel=9, note=82, velocity=55, time=15),
    Message('note_off', channel=9, note=54, velocity=55, time=0),
    Message('note_off', channel=9, note=36, velocity=55, time=0),
    Message('note_on', channel=9, note=36, velocity=55, time=33),
    Message('note_on', channel=9, note=54, velocity=55, time=0),
    Message('note_on', channel=9, note=70, velocity=55, time=0),
    Message('note_off', channel=9, note=70, velocity=55, time=15),
    Message('note_off', channel=9, note=54, velocity=55, time=0),
    Message('note_off', channel=9, note=36, velocity=55, time=0),
    Message('note_on', channel=9, note=36, velocity=55, time=33),
    Message('note_on', channel=9, note=44, velocity=55, time=0),
    Message('note_on', channel=9, note=54, velocity=55, time=0),
    Message('note_on', channel=9, note=70, velocity=55, time=0),
    Message('note_off', channel=9, note=70, velocity=55, time=15),
    Message('note_off', channel=9, note=54, velocity=55, time=0),
    Message('note_off', channel=9, note=44, velocity=55, time=0),
    Message('note_off', channel=9, note=36, velocity=55, time=0),
    Message('note_on', channel=9, note=36, velocity=55, time=33),
    Message('note_on', channel=9, note=54, velocity=55, time=0),
    Message('note_on', channel=9, note=70, velocity=55, time=0),
    Message('note_off', channel=9, note=70, velocity=55, time=15),
    Message('note_off', channel=9, note=54, velocity=55, time=0),
    Message('note_off', channel=9, note=36, velocity=55, time=0),
    Message('note_on', channel=9, note=37, velocity=55, time=33),
    Message('note_on', channel=9, note=44, velocity=55, time=0),
    Message('note_on', channel=9, note=54, velocity=55, time=0),
    Message('note_on', channel=9, note=70, velocity=55, time=0),
    Message('note_on', channel=9, note=83, velocity=55, time=0),
    Message('note_off', channel=9, note=83, velocity=55, time=15),
    Message('note_off', channel=9, note=70, velocity=55, time=0),
    Message('note_off', channel=9, note=54, velocity=55, time=0),
    Message('note_off', channel=9, note=44, velocity=55, time=0),
    Message('note_off', channel=9, note=37, velocity=55, time=18),
    Message('note_on', channel=9, note=54, velocity=55, time=15),
    Message('note_on', channel=9, note=70, velocity=55, time=0),
    Message('note_off', channel=9, note=70, velocity=55, time=15),
    Message('note_off', channel=9, note=54, velocity=55, time=0),
    Message('note_on', channel=9, note=54, velocity=55, time=33),
    Message('note_on', channel=9, note=70, velocity=55, time=0),
    Message('note_off', channel=9, note=70, velocity=55, time=15),
    Message('note_off', channel=9, note=54, velocity=55, time=0),
    Message('note_on', channel=9, note=54, velocity=55, time=33),
    Message('note_on', channel=9, note=70, velocity=55, time=0),
    Message('note_off', channel=9, note=70, velocity=55, time=15),
    Message('note_off', channel=9, note=54, velocity=55, time=0),
    Message('note_on', channel=9, note=36, velocity=55, time=33),
    Message('note_on', channel=9, note=54, velocity=55, time=0),
    Message('note_on', channel=9, note=70, velocity=55, time=0),
    Message('note_on', channel=9, note=82, velocity=55, time=0),
    Message('note_off', channel=9, note=82, velocity=55, time=15),
    Message('note_off', channel=9, note=70, velocity=55, time=0),
    Message('note_off', channel=9, note=54, velocity=55, time=0),
    Message('note_off', channel=9, note=36, velocity=55, time=0),
    Message('pitchwheel', channel=9, pitch=-1034, time=29),
    Message('note_on', channel=9, note=36, velocity=55, time=4),
    Message('note_on', channel=9, note=54, velocity=55, time=0),
    Message('note_on', channel=9, note=70, velocity=55, time=0),
    Message('note_off', channel=9, note=70, velocity=55, time=15),
    Message('note_off', channel=9, note=54, velocity=55, time=0),
    Message('note_off', channel=9, note=36, velocity=55, time=0),
    Message('note_on', channel=9, note=36, velocity=55, time=33),
    Message('note_on', channel=9, note=54, velocity=55, time=0),
    Message('note_on', channel=9, note=70, velocity=55, time=0),
    Message('note_off', channel=9, note=70, velocity=55, time=15),
    Message('note_off', channel=9, note=54, velocity=55, time=0),
    Message('note_off', channel=9, note=36, velocity=55, time=0),
    Message('note_on', channel=9, note=36, velocity=55, time=33),
    Message('note_on', channel=9, note=39, velocity=55, time=0),
    Message('note_off', channel=9, note=39, velocity=55, time=15),
    Message('note_off', channel=9, note=36, velocity=55, time=0),
    Message('note_on', channel=9, note=37, velocity=55, time=33),
    Message('note_on', channel=9, note=44, velocity=55, time=0),
    Message('note_on', channel=9, note=54, velocity=55, time=0),
    Message('note_on', channel=9, note=70, velocity=55, time=0),
    Message('note_off', channel=9, note=70, velocity=55, time=15),
    Message('note_off', channel=9, note=54, velocity=55, time=0),
    Message('note_off', channel=9, note=44, velocity=55, time=0),
    Message('note_off', channel=9, note=37, velocity=55, time=16),
    Message('note_on', channel=9, note=54, velocity=55, time=17),
    Message('note_on', channel=9, note=70, velocity=55, time=0),
    Message('note_off', channel=9, note=70, velocity=55, time=15),
    Message('note_off', channel=9, note=54, velocity=55, time=0),
    Message('note_on', channel=9, note=36, velocity=55, time=33),
    Message('note_on', channel=9, note=39, velocity=55, time=0),
    Message('note_off', channel=9, note=39, velocity=55, time=15),
    Message('note_off', channel=9, note=36, velocity=55, time=0),
    Message('note_on', channel=9, note=54, velocity=55, time=33),
    Message('note_on', channel=9, note=70, velocity=55, time=0),
    Message('note_off', channel=9, note=70, velocity=55, time=15),
    Message('note_off', channel=9, note=54, velocity=55, time=0),
    Message('note_on', channel=9, note=36, velocity=55, time=33),
    Message('note_on', channel=9, note=54, velocity=55, time=0),
    Message('note_on', channel=9, note=82, velocity=55, time=0),
    Message('note_off', channel=9, note=82, velocity=55, time=15),
    Message('note_off', channel=9, note=54, velocity=55, time=0),
    Message('note_off', channel=9, note=36, velocity=55, time=0),
    Message('note_on', channel=9, note=36, velocity=55, time=33),
    Message('note_on', channel=9, note=54, velocity=55, time=0),
    Message('note_on', channel=9, note=70, velocity=55, time=0),
    Message('note_off', channel=9, note=70, velocity=55, time=15),
    Message('note_off', channel=9, note=54, velocity=55, time=0),
    Message('note_off', channel=9, note=36, velocity=55, time=0),
    Message('note_on', channel=9, note=36, velocity=55, time=33),
    Message('note_on', channel=9, note=44, velocity=55, time=0),
    Message('note_on', channel=9, note=54, velocity=55, time=0),
    Message('note_on', channel=9, note=70, velocity=55, time=0),
    Message('note_off', channel=9, note=70, velocity=55, time=15),
    Message('note_off', channel=9, note=54, velocity=55, time=0),
    Message('note_off', channel=9, note=44, velocity=55, time=0),
    Message('note_off', channel=9, note=36, velocity=55, time=0),
    Message('note_on', channel=9, note=36, velocity=55, time=33),
    Message('note_on', channel=9, note=54, velocity=55, time=0),
    Message('note_on', channel=9, note=70, velocity=55, time=0),
    Message('note_off', channel=9, note=70, velocity=55, time=15),
    Message('note_off', channel=9, note=54, velocity=55, time=0),
    Message('note_off', channel=9, note=36, velocity=55, time=0),
    Message('note_on', channel=9, note=37, velocity=55, time=33),
    Message('note_on', channel=9, note=44, velocity=55, time=0),
    Message('note_on', channel=9, note=54, velocity=55, time=0),
    Message('note_on', channel=9, note=70, velocity=55, time=0),
    Message('note_on', channel=9, note=83, velocity=55, time=0),
    Message('note_off', channel=9, note=83, velocity=55, time=15),
    Message('note_off', channel=9, note=70, velocity=55, time=0),
    Message('note_off', channel=9, note=54, velocity=55, time=0),
    Message('note_off', channel=9, note=44, velocity=55, time=0),
    Message('note_off', channel=9, note=37, velocity=55, time=22),
    Message('note_on', channel=9, note=54, velocity=55, time=11),
    Message('note_on', channel=9, note=70, velocity=55, time=0),
    Message('note_off', channel=9, note=70, velocity=55, time=15),
    Message('note_off', channel=9, note=54, velocity=55, time=0),
    Message('note_on', channel=9, note=54, velocity=55, time=33),
    Message('note_on', channel=9, note=70, velocity=55, time=0),
    Message('note_off', channel=9, note=70, velocity=55, time=15),
    Message('note_off', channel=9, note=54, velocity=55, time=0),
    Message('note_on', channel=9, note=54, velocity=55, time=33),
    Message('note_on', channel=9, note=70, velocity=55, time=0),
    Message('note_off', channel=9, note=70, velocity=55, time=15),
    Message('note_off', channel=9, note=54, velocity=55, time=0),
    Message('note_on', channel=9, note=36, velocity=55, time=33),
    Message('note_on', channel=9, note=54, velocity=55, time=0),
    Message('note_on', channel=9, note=70, velocity=55, time=0),
    Message('note_on', channel=9, note=82, velocity=55, time=0),
    Message('note_off', channel=9, note=82, velocity=55, time=15),
    Message('note_off', channel=9, note=70, velocity=55, time=0),
    Message('note_off', channel=9, note=54, velocity=55, time=0),
    Message('note_off', channel=9, note=36, velocity=55, time=0),
    Message('pitchwheel', channel=9, pitch=-1034, time=29),
    Message('note_on', channel=9, note=36, velocity=55, time=4),
    Message('note_on', channel=9, note=54, velocity=55, time=0),
    Message('note_on', channel=9, note=70, velocity=55, time=0),
    Message('note_off', channel=9, note=70, velocity=55, time=15),
    Message('note_off', channel=9, note=54, velocity=55, time=0),
    Message('note_off', channel=9, note=36, velocity=55, time=0),
    Message('note_on', channel=9, note=36, velocity=55, time=33),
    Message('note_on', channel=9, note=54, velocity=55, time=0),
    Message('note_on', channel=9, note=70, velocity=55, time=0),
    Message('note_off', channel=9, note=70, velocity=55, time=15),
    Message('note_off', channel=9, note=54, velocity=55, time=0),
    Message('note_off', channel=9, note=36, velocity=55, time=0),
    Message('note_on', channel=9, note=36, velocity=55, time=33),
    Message('note_on', channel=9, note=39, velocity=55, time=0),
    Message('note_off', channel=9, note=39, velocity=55, time=15),
    Message('note_off', channel=9, note=36, velocity=55, time=0),
    Message('note_on', channel=9, note=37, velocity=55, time=33),
    Message('note_on', channel=9, note=44, velocity=55, time=0),
    Message('note_on', channel=9, note=54, velocity=55, time=0),
    Message('note_on', channel=9, note=70, velocity=55, time=0),
    Message('note_off', channel=9, note=70, velocity=55, time=15),
    Message('note_off', channel=9, note=54, velocity=55, time=0),
    Message('note_off', channel=9, note=44, velocity=55, time=0),
    Message('note_off', channel=9, note=37, velocity=55, time=17),
    Message('note_on', channel=9, note=54, velocity=50, time=16),
    Message('note_on', channel=9, note=70, velocity=55, time=0),
    Message('note_off', channel=9, note=70, velocity=55, time=15),
    Message('note_off', channel=9, note=54, velocity=50, time=0),
    Message('note_on', channel=9, note=36, velocity=55, time=33),
    Message('note_on', channel=9, note=39, velocity=55, time=0),
    Message('note_off', channel=9, note=39, velocity=55, time=15),
    Message('note_off', channel=9, note=36, velocity=55, time=0),
    Message('note_on', channel=9, note=54, velocity=55, time=33),
    Message('note_on', channel=9, note=70, velocity=55, time=0),
    Message('note_off', channel=9, note=70, velocity=55, time=15),
    Message('note_off', channel=9, note=54, velocity=55, time=0),
    Message('note_on', channel=9, note=36, velocity=55, time=33),
    Message('note_on', channel=9, note=54, velocity=55, time=0),
    Message('note_on', channel=9, note=82, velocity=55, time=0),
    Message('note_off', channel=9, note=82, velocity=55, time=15),
    Message('note_off', channel=9, note=54, velocity=55, time=0),
    Message('note_off', channel=9, note=36, velocity=55, time=0),
    Message('note_on', channel=9, note=36, velocity=55, time=33),
    Message('note_on', channel=9, note=54, velocity=55, time=0),
    Message('note_on', channel=9, note=70, velocity=55, time=0),
    Message('note_off', channel=9, note=70, velocity=55, time=15),
    Message('note_off', channel=9, note=54, velocity=55, time=0),
    Message('note_off', channel=9, note=36, velocity=55, time=0),
    Message('note_on', channel=9, note=36, velocity=55, time=33),
    Message('note_on', channel=9, note=44, velocity=55, time=0),
    Message('note_on', channel=9, note=54, velocity=55, time=0),
    Message('note_on', channel=9, note=70, velocity=55, time=0),
    Message('note_off', channel=9, note=70, velocity=55, time=15),
    Message('note_off', channel=9, note=54, velocity=55, time=0),
    Message('note_off', channel=9, note=44, velocity=55, time=0),
    Message('note_off', channel=9, note=36, velocity=55, time=0),
    Message('note_on', channel=9, note=36, velocity=55, time=33),
    Message('note_on', channel=9, note=54, velocity=55, time=0),
    Message('note_on', channel=9, note=70, velocity=55, time=0),
    Message('note_off', channel=9, note=70, velocity=55, time=15),
    Message('note_off', channel=9, note=54, velocity=55, time=0),
    Message('note_off', channel=9, note=36, velocity=55, time=0),
    Message('note_on', channel=9, note=37, velocity=55, time=33),
    Message('note_on', channel=9, note=44, velocity=55, time=0),
    Message('note_on', channel=9, note=54, velocity=55, time=0),
    Message('note_on', channel=9, note=70, velocity=55, time=0),
    Message('note_on', channel=9, note=83, velocity=55, time=0),
    Message('note_off', channel=9, note=83, velocity=55, time=15),
    Message('note_off', channel=9, note=70, velocity=55, time=0),
    Message('note_off', channel=9, note=54, velocity=55, time=0),
    Message('note_off', channel=9, note=44, velocity=55, time=0),
    Message('note_off', channel=9, note=37, velocity=55, time=16),
    Message('note_on', channel=9, note=54, velocity=55, time=17),
    Message('note_on', channel=9, note=70, velocity=55, time=0),
    Message('note_off', channel=9, note=70, velocity=55, time=15),
    Message('note_off', channel=9, note=54, velocity=55, time=0),
    Message('note_on', channel=9, note=54, velocity=55, time=33),
    Message('note_on', channel=9, note=70, velocity=55, time=0),
    Message('note_off', channel=9, note=70, velocity=55, time=15),
    Message('note_off', channel=9, note=54, velocity=55, time=0),
    Message('note_on', channel=9, note=54, velocity=55, time=33),
    Message('note_on', channel=9, note=70, velocity=55, time=0),
    Message('note_off', channel=9, note=70, velocity=55, time=15),
    Message('note_off', channel=9, note=54, velocity=55, time=0),
    Message('note_on', channel=9, note=36, velocity=55, time=33),
    Message('note_on', channel=9, note=54, velocity=55, time=0),
    Message('note_on', channel=9, note=70, velocity=55, time=0),
    Message('note_on', channel=9, note=82, velocity=55, time=0),
    Message('note_off', channel=9, note=82, velocity=55, time=15),
    Message('note_off', channel=9, note=70, velocity=55, time=0),
    Message('note_off', channel=9, note=54, velocity=55, time=0),
    Message('note_off', channel=9, note=36, velocity=55, time=0),
    Message('pitchwheel', channel=9, pitch=-1034, time=29),
    Message('note_on', channel=9, note=36, velocity=55, time=4),
    Message('note_on', channel=9, note=54, velocity=55, time=0),
    Message('note_on', channel=9, note=70, velocity=55, time=0),
    Message('note_off', channel=9, note=70, velocity=55, time=15),
    Message('note_off', channel=9, note=54, velocity=55, time=0),
    Message('note_off', channel=9, note=36, velocity=55, time=0),
    Message('note_on', channel=9, note=36, velocity=55, time=33),
    Message('note_on', channel=9, note=54, velocity=55, time=0),
    Message('note_on', channel=9, note=70, velocity=55, time=0),
    Message('note_off', channel=9, note=70, velocity=55, time=15),
    Message('note_off', channel=9, note=54, velocity=55, time=0),
    Message('note_off', channel=9, note=36, velocity=55, time=0),
    Message('note_on', channel=9, note=36, velocity=55, time=33),
    Message('note_on', channel=9, note=39, velocity=55, time=0),
    Message('note_off', channel=9, note=39, velocity=55, time=15),
    Message('note_off', channel=9, note=36, velocity=55, time=0),
    Message('note_on', channel=9, note=37, velocity=55, time=33),
    Message('note_on', channel=9, note=44, velocity=55, time=0),
    Message('note_on', channel=9, note=54, velocity=55, time=0),
    Message('note_on', channel=9, note=70, velocity=55, time=0),
    Message('note_off', channel=9, note=70, velocity=55, time=15),
    Message('note_off', channel=9, note=54, velocity=55, time=0),
    Message('note_off', channel=9, note=44, velocity=55, time=0),
    Message('note_off', channel=9, note=37, velocity=55, time=16),
    Message('note_on', channel=9, note=54, velocity=55, time=17),
    Message('note_on', channel=9, note=70, velocity=55, time=0),
    Message('note_off', channel=9, note=70, velocity=55, time=15),
    Message('note_off', channel=9, note=54, velocity=55, time=0),
    Message('note_on', channel=9, note=36, velocity=55, time=33),
    Message('note_on', channel=9, note=39, velocity=55, time=0),
    Message('note_off', channel=9, note=39, velocity=55, time=15),
    Message('note_off', channel=9, note=36, velocity=55, time=0),
    Message('note_on', channel=9, note=54, velocity=55, time=33),
    Message('note_on', channel=9, note=70, velocity=55, time=0),
    Message('note_off', channel=9, note=70, velocity=55, time=15),
    Message('note_off', channel=9, note=54, velocity=55, time=0),
    Message('note_on', channel=9, note=36, velocity=55, time=33),
    Message('note_on', channel=9, note=54, velocity=55, time=0),
    Message('note_on', channel=9, note=82, velocity=55, time=0),
    Message('note_off', channel=9, note=82, velocity=55, time=15),
    Message('note_off', channel=9, note=54, velocity=55, time=0),
    Message('note_off', channel=9, note=36, velocity=55, time=0),
    Message('note_on', channel=9, note=36, velocity=55, time=33),
    Message('note_on', channel=9, note=54, velocity=55, time=0),
    Message('note_on', channel=9, note=70, velocity=55, time=0),
    Message('note_off', channel=9, note=70, velocity=55, time=15),
    Message('note_off', channel=9, note=54, velocity=55, time=0),
    Message('note_off', channel=9, note=36, velocity=55, time=0),
    Message('note_on', channel=9, note=36, velocity=55, time=33),
    Message('note_on', channel=9, note=44, velocity=55, time=0),
    Message('note_on', channel=9, note=54, velocity=55, time=0),
    Message('note_on', channel=9, note=70, velocity=55, time=0),
    Message('note_off', channel=9, note=70, velocity=55, time=15),
    Message('note_off', channel=9, note=54, velocity=55, time=0),
    Message('note_off', channel=9, note=44, velocity=55, time=0),
    Message('note_off', channel=9, note=36, velocity=55, time=0),
    Message('note_on', channel=9, note=36, velocity=55, time=33),
    Message('note_on', channel=9, note=54, velocity=55, time=0),
    Message('note_on', channel=9, note=70, velocity=55, time=0),
    Message('note_off', channel=9, note=70, velocity=55, time=15),
    Message('note_off', channel=9, note=54, velocity=55, time=0),
    Message('note_off', channel=9, note=36, velocity=55, time=0),
    Message('note_on', channel=9, note=37, velocity=55, time=33),
    Message('note_on', channel=9, note=44, velocity=55, time=0),
    Message('note_on', channel=9, note=54, velocity=55, time=0),
    Message('note_on', channel=9, note=70, velocity=55, time=0),
    Message('note_on', channel=9, note=83, velocity=55, time=0),
    Message('note_off', channel=9, note=83, velocity=55, time=15),
    Message('note_off', channel=9, note=70, velocity=55, time=0),
    Message('note_off', channel=9, note=54, velocity=55, time=0),
    Message('note_off', channel=9, note=44, velocity=55, time=0),
    Message('note_off', channel=9, note=37, velocity=55, time=13),
    Message('note_on', channel=9, note=54, velocity=55, time=20),
    Message('note_on', channel=9, note=70, velocity=55, time=0),
    Message('note_off', channel=9, note=70, velocity=55, time=15),
    Message('note_off', channel=9, note=54, velocity=55, time=0),
    Message('note_on', channel=9, note=54, velocity=55, time=33),
    Message('note_on', channel=9, note=70, velocity=55, time=0),
    Message('note_off', channel=9, note=70, velocity=55, time=15),
    Message('note_off', channel=9, note=54, velocity=55, time=0),
    Message('note_on', channel=9, note=54, velocity=55, time=33),
    Message('note_on', channel=9, note=70, velocity=55, time=0),
    Message('note_off', channel=9, note=70, velocity=55, time=15),
    Message('note_off', channel=9, note=54, velocity=55, time=0),
    Message('note_on', channel=9, note=36, velocity=51, time=33),
    Message('note_on', channel=9, note=54, velocity=51, time=0),
    Message('note_on', channel=9, note=70, velocity=51, time=0),
    Message('note_on', channel=9, note=82, velocity=51, time=0),
    Message('note_off', channel=9, note=82, velocity=51, time=15),
    Message('note_off', channel=9, note=70, velocity=51, time=0),
    Message('note_off', channel=9, note=54, velocity=51, time=0),
    Message('note_off', channel=9, note=36, velocity=51, time=0),
    Message('pitchwheel', channel=9, pitch=-1546, time=29),
    Message('note_on', channel=9, note=36, velocity=51, time=4),
    Message('note_on', channel=9, note=54, velocity=51, time=0),
    Message('note_on', channel=9, note=70, velocity=51, time=0),
    Message('note_off', channel=9, note=70, velocity=51, time=15),
    Message('note_off', channel=9, note=54, velocity=51, time=0),
    Message('note_off', channel=9, note=36, velocity=51, time=0),
    Message('note_on', channel=9, note=36, velocity=51, time=33),
    Message('note_on', channel=9, note=54, velocity=51, time=0),
    Message('note_on', channel=9, note=70, velocity=51, time=0),
    Message('note_off', channel=9, note=70, velocity=51, time=15),
    Message('note_off', channel=9, note=54, velocity=51, time=0),
    Message('note_off', channel=9, note=36, velocity=51, time=0),
    Message('note_on', channel=9, note=36, velocity=51, time=33),
    Message('note_on', channel=9, note=39, velocity=51, time=0),
    Message('note_off', channel=9, note=39, velocity=51, time=15),
    Message('note_off', channel=9, note=36, velocity=51, time=0),
    Message('note_on', channel=9, note=44, velocity=51, time=33),
    Message('note_on', channel=9, note=54, velocity=51, time=0),
    Message('note_on', channel=9, note=70, velocity=51, time=0),
    Message('note_off', channel=9, note=70, velocity=51, time=15),
    Message('note_off', channel=9, note=54, velocity=51, time=0),
    Message('note_off', channel=9, note=44, velocity=51, time=0),
    Message('note_on', channel=9, note=54, velocity=51, time=33),
    Message('note_on', channel=9, note=70, velocity=51, time=0),
    Message('note_off', channel=9, note=70, velocity=51, time=15),
    Message('note_off', channel=9, note=54, velocity=51, time=0),
    Message('note_on', channel=9, note=36, velocity=81, time=33),
    Message('note_on', channel=9, note=39, velocity=33, time=0),
    Message('note_on', channel=9, note=43, velocity=127, time=0),
    Message('note_off', channel=9, note=39, velocity=33, time=15),
    Message('note_off', channel=9, note=36, velocity=81, time=0),
    Message('note_on', channel=9, note=54, velocity=50, time=33),
    Message('note_on', channel=9, note=70, velocity=55, time=0),
    Message('note_off', channel=9, note=43, velocity=127, time=10),
    Message('note_off', channel=9, note=70, velocity=55, time=5),
    Message('note_off', channel=9, note=54, velocity=50, time=0),
    Message('note_on', channel=9, note=36, velocity=88, time=33),
    Message('note_on', channel=9, note=41, velocity=127, time=0),
    Message('note_on', channel=9, note=54, velocity=50, time=0),
    Message('note_on', channel=9, note=82, velocity=73, time=0),
    Message('note_off', channel=9, note=82, velocity=73, time=15),
    Message('note_off', channel=9, note=54, velocity=50, time=0),
    Message('note_off', channel=9, note=36, velocity=88, time=0),
    Message('note_on', channel=9, note=36, velocity=79, time=33),
    Message('note_on', channel=9, note=54, velocity=50, time=0),
    Message('note_on', channel=9, note=70, velocity=57, time=0),
    Message('note_off', channel=9, note=70, velocity=57, time=15),
    Message('note_off', channel=9, note=54, velocity=50, time=0),
    Message('note_off', channel=9, note=36, velocity=79, time=0),
    Message('note_off', channel=9, note=41, velocity=127, time=7),
    Message('note_on', channel=9, note=36, velocity=79, time=26),
    Message('note_on', channel=9, note=44, velocity=59, time=0),
    Message('note_on', channel=9, note=45, velocity=127, time=0),
    Message('note_on', channel=9, note=54, velocity=50, time=0),
    Message('note_on', channel=9, note=70, velocity=51, time=0),
    Message('note_off', channel=9, note=70, velocity=51, time=15),
    Message('note_off', channel=9, note=54, velocity=50, time=0),
    Message('note_off', channel=9, note=44, velocity=59, time=0),
    Message('note_off', channel=9, note=36, velocity=79, time=0),
    Message('note_on', channel=9, note=36, velocity=91, time=33),
    Message('note_on', channel=9, note=54, velocity=50, time=0),
    Message('note_on', channel=9, note=70, velocity=49, time=0),
    Message('note_off', channel=9, note=70, velocity=49, time=15),
    Message('note_off', channel=9, note=54, velocity=50, time=0),
    Message('note_off', channel=9, note=36, velocity=91, time=0),
    Message('note_off', channel=9, note=45, velocity=127, time=6),
    Message('note_on', channel=9, note=44, velocity=71, time=27),
    Message('note_on', channel=9, note=48, velocity=127, time=0),
    Message('note_on', channel=9, note=54, velocity=50, time=0),
    Message('note_on', channel=9, note=70, velocity=71, time=0),
    Message('note_on', channel=9, note=83, velocity=49, time=0),
    Message('note_off', channel=9, note=83, velocity=49, time=15),
    Message('note_off', channel=9, note=70, velocity=71, time=0),
    Message('note_off', channel=9, note=54, velocity=50, time=0),
    Message('note_off', channel=9, note=44, velocity=71, time=0),
    Message('note_off', channel=9, note=48, velocity=127, time=17),
    Message('note_on', channel=9, note=47, velocity=127, time=16),
    Message('note_on', channel=9, note=54, velocity=50, time=0),
    Message('note_on', channel=9, note=70, velocity=57, time=0),
    Message('note_off', channel=9, note=70, velocity=57, time=15),
    Message('note_off', channel=9, note=54, velocity=50, time=0),
    Message('note_on', channel=9, note=54, velocity=50, time=33),
    Message('note_on', channel=9, note=70, velocity=59, time=0),
    Message('note_off', channel=9, note=70, velocity=59, time=15),
    Message('note_off', channel=9, note=54, velocity=50, time=0),
    Message('note_off', channel=9, note=47, velocity=127, time=11),
    Message('note_on', channel=9, note=45, velocity=127, time=22),
    Message('note_on', channel=9, note=54, velocity=50, time=0),
    Message('note_on', channel=9, note=70, velocity=55, time=0),
    Message('note_off', channel=9, note=70, velocity=55, time=15),
    Message('note_off', channel=9, note=54, velocity=50, time=0),
    Message('note_off', channel=9, note=45, velocity=127, time=12),
    Message('note_on', channel=9, note=36, velocity=127, time=21),
    Message('note_on', channel=9, note=42, velocity=127, time=0),
    Message('note_on', channel=9, note=49, velocity=127, time=0),
    Message('note_on', channel=9, note=70, velocity=110, time=0),
    Message('note_off', channel=9, note=49, velocity=127, time=28),
    Message('note_off', channel=9, note=70, velocity=110, time=4),
    Message('note_off', channel=9, note=42, velocity=127, time=0),
    Message('note_on', channel=9, note=36, velocity=81, time=16),
    Message('note_on', channel=9, note=70, velocity=87, time=0),
    Message('note_off', channel=9, note=70, velocity=87, time=22),
    Message('note_off', channel=9, note=36, velocity=81, time=1),
    Message('note_off', channel=9, note=36, velocity=127, time=25),
    Message('note_on', channel=9, note=36, velocity=67, time=0),
    Message('note_on', channel=9, note=70, velocity=76, time=0),
    Message('note_off', channel=9, note=36, velocity=67, time=24),
    Message('note_off', channel=9, note=70, velocity=76, time=6),
    Message('note_on', channel=9, note=36, velocity=68, time=18),
    Message('note_on', channel=9, note=42, velocity=65, time=0),
    Message('note_on', channel=9, note=70, velocity=83, time=0),
    Message('note_off', channel=9, note=70, velocity=83, time=28),
    Message('note_off', channel=9, note=36, velocity=68, time=0),
    Message('note_off', channel=9, note=42, velocity=65, time=2),
    Message('note_on', channel=9, note=36, velocity=77, time=18),
    Message('note_on', channel=9, note=38, velocity=127, time=0),
    Message('note_on', channel=9, note=42, velocity=110, time=0),
    Message('note_on', channel=9, note=51, velocity=80, time=0),
    Message('note_on', channel=9, note=70, velocity=95, time=0),
    Message('note_off', channel=9, note=36, velocity=77, time=19),
    Message('note_off', channel=9, note=51, velocity=80, time=1),
    Message('note_off', channel=9, note=70, velocity=95, time=9),
    Message('note_off', channel=9, note=42, velocity=110, time=6),
    Message('note_on', channel=9, note=40, velocity=73, time=13),
    Message('note_on', channel=9, note=70, velocity=71, time=0),
    Message('note_off', channel=9, note=70, velocity=71, time=27),
    Message('note_off', channel=9, note=38, velocity=127, time=11),
    Message('note_on', channel=9, note=36, velocity=104, time=10),
    Message('note_on', channel=9, note=42, velocity=83, time=0),
    Message('note_on', channel=9, note=51, velocity=91, time=0),
    Message('note_on', channel=9, note=70, velocity=87, time=0),
    Message('note_off', channel=9, note=40, velocity=73, time=22),
    Message('note_off', channel=9, note=70, velocity=87, time=10),
    Message('note_off', channel=9, note=51, velocity=91, time=0),
    Message('note_off', channel=9, note=36, velocity=104, time=2),
    Message('note_off', channel=9, note=42, velocity=83, time=2),
    Message('note_on', channel=9, note=70, velocity=80, time=12),
    Message('note_off', channel=9, note=70, velocity=80, time=27),
    Message('note_on', channel=9, note=36, velocity=122, time=21),
    Message('note_on', channel=9, note=42, velocity=127, time=0),
    Message('note_on', channel=9, note=51, velocity=95, time=0),
    Message('note_on', channel=9, note=70, velocity=95, time=0),
    Message('note_off', channel=9, note=70, velocity=95, time=32),
    Message('note_off', channel=9, note=42, velocity=127, time=1),
    Message('note_off', channel=9, note=51, velocity=95, time=2),
    Message('note_off', channel=9, note=36, velocity=122, time=6),
    Message('note_on', channel=9, note=36, velocity=77, time=7),
    Message('note_on', channel=9, note=70, velocity=76, time=0),
    Message('note_off', channel=9, note=36, velocity=77, time=25),
    Message('note_off', channel=9, note=70, velocity=76, time=1),
    Message('note_on', channel=9, note=36, velocity=71, time=22),
    Message('note_on', channel=9, note=42, velocity=51, time=0),
    Message('note_on', channel=9, note=51, velocity=68, time=0),
    Message('note_on', channel=9, note=70, velocity=91, time=0),
    Message('note_off', channel=9, note=51, velocity=68, time=20),
    Message('note_off', channel=9, note=70, velocity=91, time=7),
    Message('note_off', channel=9, note=42, velocity=51, time=2),
    Message('note_off', channel=9, note=36, velocity=71, time=1),
    Message('note_on', channel=9, note=36, velocity=64, time=18),
    Message('note_on', channel=9, note=70, velocity=95, time=0),
    Message('note_off', channel=9, note=70, velocity=95, time=27),
    Message('note_off', channel=9, note=36, velocity=64, time=0),
    Message('note_on', channel=9, note=36, velocity=75, time=21),
    Message('note_on', channel=9, note=38, velocity=127, time=0),
    Message('note_on', channel=9, note=42, velocity=91, time=0),
    Message('note_on', channel=9, note=51, velocity=110, time=0),
    Message('note_on', channel=9, note=70, velocity=110, time=0),
    Message('note_off', channel=9, note=42, velocity=91, time=30),
    Message('note_off', channel=9, note=36, velocity=75, time=4),
    Message('note_off', channel=9, note=70, velocity=110, time=3),
    Message('note_off', channel=9, note=51, velocity=110, time=2),
    Message('note_on', channel=9, note=40, velocity=73, time=9),
    Message('note_on', channel=9, note=70, velocity=95, time=0),
    Message('note_off', channel=9, note=70, velocity=95, time=29),
    Message('note_off', channel=9, note=38, velocity=127, time=5),
    Message('note_on', channel=9, note=42, velocity=91, time=14),
    Message('note_on', channel=9, note=51, velocity=39, time=0),
    Message('note_on', channel=9, note=70, velocity=95, time=0),
    Message('note_off', channel=9, note=40, velocity=73, time=20),
    Message('note_off', channel=9, note=51, velocity=39, time=6),
    Message('note_off', channel=9, note=70, velocity=95, time=5),
    Message('note_off', channel=9, note=42, velocity=91, time=3),
    Message('note_on', channel=9, note=70, velocity=104, time=14),
    Message('note_off', channel=9, note=70, velocity=104, time=23),
    Message('note_on', channel=9, note=36, velocity=127, time=25),
    Message('note_on', channel=9, note=42, velocity=127, time=0),
    Message('note_on', channel=9, note=51, velocity=104, time=0),
    Message('note_on', channel=9, note=70, velocity=110, time=0),
    Message('note_off', channel=9, note=70, velocity=110, time=32),
    Message('note_off', channel=9, note=42, velocity=127, time=0),
    Message('note_off', channel=9, note=51, velocity=104, time=11),
    Message('note_on', channel=9, note=36, velocity=81, time=5),
    Message('note_on', channel=9, note=70, velocity=87, time=0),
    Message('note_off', channel=9, note=70, velocity=87, time=22),
    Message('note_off', channel=9, note=36, velocity=81, time=1),
    Message('note_off', channel=9, note=36, velocity=127, time=25),
    Message('note_on', channel=9, note=36, velocity=67, time=0),
    Message('note_on', channel=9, note=42, velocity=65, time=0),
    Message('note_on', channel=9, note=51, velocity=65, time=0),
    Message('note_on', channel=9, note=70, velocity=76, time=0),
    Message('note_off', channel=9, note=36, velocity=67, time=24),
    Message('note_off', channel=9, note=51, velocity=65, time=2),
    Message('note_off', channel=9, note=70, velocity=76, time=4),
    Message('note_off', channel=9, note=42, velocity=65, time=0),
    Message('note_on', channel=9, note=36, velocity=68, time=18),
    Message('note_on', channel=9, note=70, velocity=83, time=0),
    Message('note_off', channel=9, note=70, velocity=83, time=28),
    Message('note_off', channel=9, note=36, velocity=68, time=0),
    Message('note_on', channel=9, note=36, velocity=77, time=20),
    Message('note_on', channel=9, note=38, velocity=127, time=0),
    Message('note_on', channel=9, note=42, velocity=110, time=0),
    Message('note_on', channel=9, note=51, velocity=110, time=0),
    Message('note_on', channel=9, note=70, velocity=95, time=0),
    Message('note_off', channel=9, note=36, velocity=77, time=19),
    Message('note_off', channel=9, note=70, velocity=95, time=10),
    Message('note_off', channel=9, note=42, velocity=110, time=6),
    Message('note_off', channel=9, note=51, velocity=110, time=10),
    Message('note_on', channel=9, note=40, velocity=73, time=3),
    Message('note_on', channel=9, note=70, velocity=71, time=0),
    Message('note_off', channel=9, note=70, velocity=71, time=27),
    Message('note_off', channel=9, note=38, velocity=127, time=11),
    Message('note_on', channel=9, note=36, velocity=104, time=10),
    Message('note_on', channel=9, note=42, velocity=83, time=0),
    Message('note_on', channel=9, note=51, velocity=87, time=0),
    Message('note_on', channel=9, note=70, velocity=87, time=0),
    Message('note_off', channel=9, note=40, velocity=73, time=22),
    Message('note_off', channel=9, note=51, velocity=87, time=8),
    Message('note_off', channel=9, note=70, velocity=87, time=2),
    Message('note_off', channel=9, note=36, velocity=104, time=2),
    Message('note_off', channel=9, note=42, velocity=83, time=2),
    Message('note_on', channel=9, note=70, velocity=80, time=12),
    Message('note_off', channel=9, note=70, velocity=80, time=27),
    Message('note_on', channel=9, note=36, velocity=122, time=21),
    Message('note_on', channel=9, note=42, velocity=127, time=0),
    Message('note_on', channel=9, note=51, velocity=110, time=0),
    Message('note_on', channel=9, note=70, velocity=95, time=0),
    Message('note_off', channel=9, note=70, velocity=95, time=32),
    Message('note_off', channel=9, note=42, velocity=127, time=1),
    Message('note_off', channel=9, note=36, velocity=122, time=8),
    Message('note_off', channel=9, note=51, velocity=110, time=2),
    Message('note_on', channel=9, note=36, velocity=77, time=5),
    Message('note_on', channel=9, note=70, velocity=76, time=0),
    Message('note_off', channel=9, note=36, velocity=77, time=25),
    Message('note_off', channel=9, note=70, velocity=76, time=1),
    Message('note_on', channel=9, note=36, velocity=71, time=22),
    Message('note_on', channel=9, note=42, velocity=51, time=0),
    Message('note_on', channel=9, note=51, velocity=41, time=0),
    Message('note_on', channel=9, note=70, velocity=91, time=0),
    Message('note_off', channel=9, note=51, velocity=41, time=12),
    Message('note_off', channel=9, note=70, velocity=91, time=15),
    Message('note_off', channel=9, note=42, velocity=51, time=2),
    Message('note_off', channel=9, note=36, velocity=71, time=1),
    Message('note_on', channel=9, note=36, velocity=64, time=18),
    Message('note_on', channel=9, note=51, velocity=83, time=0),
    Message('note_on', channel=9, note=70, velocity=95, time=0),
    Message('note_off', channel=9, note=51, velocity=83, time=18),
    Message('note_off', channel=9, note=70, velocity=95, time=9),
    Message('note_off', channel=9, note=36, velocity=64, time=0),
    Message('note_on', channel=9, note=36, velocity=75, time=21),
    Message('note_on', channel=9, note=38, velocity=127, time=0),
    Message('note_on', channel=9, note=42, velocity=91, time=0),
    Message('note_on', channel=9, note=51, velocity=110, time=0),
    Message('note_on', channel=9, note=70, velocity=110, time=0),
    Message('note_off', channel=9, note=42, velocity=91, time=30),
    Message('note_off', channel=9, note=36, velocity=75, time=4),
    Message('note_off', channel=9, note=70, velocity=110, time=3),
    Message('note_off', channel=9, note=51, velocity=110, time=8),
    Message('note_on', channel=9, note=40, velocity=73, time=3),
    Message('note_on', channel=9, note=70, velocity=95, time=0),
    Message('note_off', channel=9, note=70, velocity=95, time=29),
    Message('note_off', channel=9, note=38, velocity=127, time=5),
    Message('note_on', channel=9, note=42, velocity=91, time=14),
    Message('note_on', channel=9, note=51, velocity=44, time=0),
    Message('note_on', channel=9, note=70, velocity=95, time=0),
    Message('note_off', channel=9, note=40, velocity=73, time=20),
    Message('note_off', channel=9, note=51, velocity=44, time=4),
    Message('note_off', channel=9, note=70, velocity=95, time=7),
    Message('note_off', channel=9, note=42, velocity=91, time=3),
    Message('note_on', channel=9, note=70, velocity=104, time=14),
    Message('note_off', channel=9, note=70, velocity=104, time=23),
    Message('note_on', channel=9, note=36, velocity=127, time=25),
    Message('note_on', channel=9, note=42, velocity=127, time=0),
    Message('note_on', channel=9, note=51, velocity=104, time=0),
    Message('note_on', channel=9, note=70, velocity=110, time=0),
    Message('note_off', channel=9, note=70, velocity=110, time=32),
    Message('note_off', channel=9, note=42, velocity=127, time=0),
    Message('note_off', channel=9, note=51, velocity=104, time=4),
    Message('note_on', channel=9, note=36, velocity=81, time=12),
    Message('note_on', channel=9, note=70, velocity=87, time=0),
    Message('note_off', channel=9, note=70, velocity=87, time=22),
    Message('note_off', channel=9, note=36, velocity=81, time=1),
    Message('note_off', channel=9, note=36, velocity=127, time=25),
    Message('note_on', channel=9, note=36, velocity=67, time=0),
    Message('note_on', channel=9, note=42, velocity=65, time=0),
    Message('note_on', channel=9, note=51, velocity=73, time=0),
    Message('note_on', channel=9, note=70, velocity=76, time=0),
    Message('note_off', channel=9, note=36, velocity=67, time=24),
    Message('note_off', channel=9, note=51, velocity=73, time=1),
    Message('note_off', channel=9, note=70, velocity=76, time=5),
    Message('note_off', channel=9, note=42, velocity=65, time=0),
    Message('note_on', channel=9, note=36, velocity=68, time=18),
    Message('note_on', channel=9, note=70, velocity=83, time=0),
    Message('note_off', channel=9, note=70, velocity=83, time=28),
    Message('note_off', channel=9, note=36, velocity=68, time=0),
    Message('note_on', channel=9, note=36, velocity=77, time=20),
    Message('note_on', channel=9, note=38, velocity=127, time=0),
    Message('note_on', channel=9, note=42, velocity=110, time=0),
    Message('note_on', channel=9, note=51, velocity=127, time=0),
    Message('note_on', channel=9, note=70, velocity=95, time=0),
    Message('note_off', channel=9, note=36, velocity=77, time=19),
    Message('note_off', channel=9, note=70, velocity=95, time=10),
    Message('note_off', channel=9, note=51, velocity=127, time=6),
    Message('note_off', channel=9, note=42, velocity=110, time=0),
    Message('note_on', channel=9, note=40, velocity=73, time=13),
    Message('note_on', channel=9, note=70, velocity=71, time=0),
    Message('note_off', channel=9, note=70, velocity=71, time=27),
    Message('note_off', channel=9, note=38, velocity=127, time=11),
    Message('note_on', channel=9, note=36, velocity=104, time=10),
    Message('note_on', channel=9, note=42, velocity=83, time=0),
    Message('note_on', channel=9, note=51, velocity=87, time=0),
    Message('note_on', channel=9, note=70, velocity=87, time=0),
    Message('note_off', channel=9, note=40, velocity=73, time=22),
    Message('note_off', channel=9, note=51, velocity=87, time=3),
    Message('note_off', channel=9, note=70, velocity=87, time=7),
    Message('note_off', channel=9, note=36, velocity=104, time=2),
    Message('note_off', channel=9, note=42, velocity=83, time=2),
    Message('note_on', channel=9, note=70, velocity=80, time=12),
    Message('note_off', channel=9, note=70, velocity=80, time=27),
    Message('note_on', channel=9, note=36, velocity=122, time=21),
    Message('note_on', channel=9, note=42, velocity=127, time=0),
    Message('note_on', channel=9, note=51, velocity=100, time=0),
    Message('note_on', channel=9, note=70, velocity=95, time=0),
    Message('note_off', channel=9, note=51, velocity=100, time=27),
    Message('note_off', channel=9, note=70, velocity=95, time=5),
    Message('note_off', channel=9, note=42, velocity=127, time=1),
    Message('note_off', channel=9, note=36, velocity=122, time=8),
    Message('note_on', channel=9, note=36, velocity=77, time=7),
    Message('note_on', channel=9, note=70, velocity=76, time=0),
    Message('note_off', channel=9, note=36, velocity=77, time=25),
    Message('note_off', channel=9, note=70, velocity=76, time=1),
    Message('note_on', channel=9, note=36, velocity=71, time=22),
    Message('note_on', channel=9, note=42, velocity=51, time=0),
    Message('note_on', channel=9, note=51, velocity=87, time=0),
    Message('note_on', channel=9, note=70, velocity=91, time=0),
    Message('note_off', channel=9, note=51, velocity=87, time=22),
    Message('note_off', channel=9, note=70, velocity=91, time=5),
    Message('note_off', channel=9, note=42, velocity=51, time=2),
    Message('note_off', channel=9, note=36, velocity=71, time=1),
    Message('note_on', channel=9, note=36, velocity=64, time=18),
    Message('note_on', channel=9, note=70, velocity=95, time=0),
    Message('note_off', channel=9, note=70, velocity=95, time=27),
    Message('note_off', channel=9, note=36, velocity=64, time=0),
    Message('note_on', channel=9, note=36, velocity=75, time=21),
    Message('note_on', channel=9, note=38, velocity=127, time=0),
    Message('note_on', channel=9, note=42, velocity=91, time=0),
    Message('note_on', channel=9, note=51, velocity=127, time=0),
    Message('note_on', channel=9, note=70, velocity=110, time=0),
    Message('note_off', channel=9, note=42, velocity=91, time=30),
    Message('note_off', channel=9, note=51, velocity=127, time=3),
    Message('note_off', channel=9, note=36, velocity=75, time=1),
    Message('note_off', channel=9, note=70, velocity=110, time=3),
    Message('note_on', channel=9, note=40, velocity=73, time=11),
    Message('note_on', channel=9, note=70, velocity=95, time=0),
    Message('note_off', channel=9, note=70, velocity=95, time=29),
    Message('note_off', channel=9, note=38, velocity=127, time=5),
    Message('note_on', channel=9, note=42, velocity=91, time=14),
    Message('note_on', channel=9, note=51, velocity=91, time=0),
    Message('note_on', channel=9, note=70, velocity=95, time=0),
    Message('note_off', channel=9, note=40, velocity=73, time=20),
    Message('note_off', channel=9, note=51, velocity=91, time=4),
    Message('note_off', channel=9, note=70, velocity=95, time=7),
    Message('note_off', channel=9, note=42, velocity=91, time=3),
    Message('note_on', channel=9, note=70, velocity=104, time=14),
    Message('note_off', channel=9, note=70, velocity=104, time=23),
    Message('note_on', channel=9, note=36, velocity=127, time=25),
    Message('note_on', channel=9, note=42, velocity=127, time=0),
    Message('note_on', channel=9, note=51, velocity=110, time=0),
    Message('note_on', channel=9, note=70, velocity=110, time=0),
    Message('note_off', channel=9, note=70, velocity=110, time=32),
    Message('note_off', channel=9, note=42, velocity=127, time=0),
    Message('note_off', channel=9, note=51, velocity=110, time=5),
    Message('note_on', channel=9, note=36, velocity=81, time=11),
    Message('note_on', channel=9, note=70, velocity=87, time=0),
    Message('note_off', channel=9, note=70, velocity=87, time=22),
    Message('note_off', channel=9, note=36, velocity=81, time=1),
    Message('note_off', channel=9, note=36, velocity=127, time=25),
    Message('note_on', channel=9, note=36, velocity=67, time=0),
    Message('note_on', channel=9, note=42, velocity=65, time=0),
    Message('note_on', channel=9, note=51, velocity=87, time=0),
    Message('note_on', channel=9, note=70, velocity=76, time=0),
    Message('note_off', channel=9, note=51, velocity=87, time=21),
    Message('note_off', channel=9, note=36, velocity=67, time=3),
    Message('note_off', channel=9, note=70, velocity=76, time=6),
    Message('note_off', channel=9, note=42, velocity=65, time=0),
    Message('note_on', channel=9, note=36, velocity=68, time=18),
    Message('note_on', channel=9, note=70, velocity=83, time=0),
    Message('note_off', channel=9, note=70, velocity=83, time=28),
    Message('note_off', channel=9, note=36, velocity=68, time=0),
    Message('note_on', channel=9, note=36, velocity=77, time=20),
    Message('note_on', channel=9, note=38, velocity=127, time=0),
    Message('note_on', channel=9, note=42, velocity=110, time=0),
    Message('note_on', channel=9, note=51, velocity=110, time=0),
    Message('note_on', channel=9, note=70, velocity=95, time=0),
    Message('note_off', channel=9, note=36, velocity=77, time=19),
    Message('note_off', channel=9, note=70, velocity=95, time=10),
    Message('note_off', channel=9, note=42, velocity=110, time=6),
    Message('note_off', channel=9, note=51, velocity=110, time=1),
    Message('note_on', channel=9, note=40, velocity=73, time=12),
    Message('note_on', channel=9, note=70, velocity=71, time=0),
    Message('note_off', channel=9, note=70, velocity=71, time=27),
    Message('note_off', channel=9, note=38, velocity=127, time=11),
    Message('note_on', channel=9, note=36, velocity=104, time=10),
    Message('note_on', channel=9, note=42, velocity=83, time=0),
    Message('note_on', channel=9, note=51, velocity=91, time=0),
    Message('note_on', channel=9, note=70, velocity=87, time=0),
    Message('note_off', channel=9, note=40, velocity=73, time=22),
    Message('note_off', channel=9, note=51, velocity=91, time=1),
    Message('note_off', channel=9, note=70, velocity=87, time=9),
    Message('note_off', channel=9, note=36, velocity=104, time=2),
    Message('note_off', channel=9, note=42, velocity=83, time=2),
    Message('note_on', channel=9, note=70, velocity=80, time=12),
    Message('note_off', channel=9, note=70, velocity=80, time=27),
    Message('note_on', channel=9, note=36, velocity=122, time=21),
    Message('note_on', channel=9, note=42, velocity=127, time=0),
    Message('note_on', channel=9, note=51, velocity=110, time=0),
    Message('note_on', channel=9, note=70, velocity=95, time=0),
    Message('note_off', channel=9, note=51, velocity=110, time=29),
    Message('note_off', channel=9, note=70, velocity=95, time=3),
    Message('note_off', channel=9, note=42, velocity=127, time=1),
    Message('note_off', channel=9, note=36, velocity=122, time=8),
    Message('note_on', channel=9, note=36, velocity=77, time=7),
    Message('note_on', channel=9, note=70, velocity=76, time=0),
    Message('note_off', channel=9, note=36, velocity=77, time=25),
    Message('note_off', channel=9, note=70, velocity=76, time=1),
    Message('note_on', channel=9, note=36, velocity=71, time=22),
    Message('note_on', channel=9, note=42, velocity=51, time=0),
    Message('note_on', channel=9, note=51, velocity=91, time=0),
    Message('note_on', channel=9, note=70, velocity=91, time=0),
    Message('note_off', channel=9, note=51, velocity=91, time=22),
    Message('note_off', channel=9, note=70, velocity=91, time=5),
    Message('note_off', channel=9, note=42, velocity=51, time=2),
    Message('note_off', channel=9, note=36, velocity=71, time=1),
    Message('note_on', channel=9, note=36, velocity=64, time=18),
    Message('note_on', channel=9, note=70, velocity=95, time=0),
    Message('note_off', channel=9, note=70, velocity=95, time=27),
    Message('note_off', channel=9, note=36, velocity=64, time=0),
    Message('note_on', channel=9, note=36, velocity=75, time=21),
    Message('note_on', channel=9, note=38, velocity=127, time=0),
    Message('note_on', channel=9, note=42, velocity=91, time=0),
    Message('note_on', channel=9, note=51, velocity=110, time=0),
    Message('note_on', channel=9, note=70, velocity=110, time=0),
    Message('note_off', channel=9, note=51, velocity=110, time=30),
    Message('note_off', channel=9, note=42, velocity=91, time=0),
    Message('note_off', channel=9, note=36, velocity=75, time=4),
    Message('note_off', channel=9, note=70, velocity=110, time=3),
    Message('note_on', channel=9, note=40, velocity=73, time=11),
    Message('note_on', channel=9, note=70, velocity=95, time=0),
    Message('note_off', channel=9, note=70, velocity=95, time=29),
    Message('note_off', channel=9, note=38, velocity=127, time=5),
    Message('note_on', channel=9, note=42, velocity=91, time=14),
    Message('note_on', channel=9, note=51, velocity=104, time=0),
    Message('note_on', channel=9, note=70, velocity=95, time=0),
    Message('note_off', channel=9, note=40, velocity=73, time=20),
    Message('note_off', channel=9, note=51, velocity=104, time=3),
    Message('note_off', channel=9, note=70, velocity=95, time=8),
    Message('note_off', channel=9, note=42, velocity=91, time=3),
    Message('note_on', channel=9, note=70, velocity=104, time=14),
    Message('note_off', channel=9, note=70, velocity=104, time=23),
    Message('note_on', channel=9, note=36, velocity=127, time=25),
    Message('note_on', channel=9, note=42, velocity=127, time=0),
    Message('note_on', channel=9, note=49, velocity=80, time=0),
    Message('note_on', channel=9, note=51, velocity=100, time=0),
    Message('note_on', channel=9, note=70, velocity=110, time=0),
    Message('note_off', channel=9, note=51, velocity=100, time=28),
    Message('note_off', channel=9, note=70, velocity=110, time=4),
    Message('note_off', channel=9, note=42, velocity=127, time=0),
    Message('note_on', channel=9, note=36, velocity=81, time=16),
    Message('note_on', channel=9, note=70, velocity=87, time=0),
    Message('note_off', channel=9, note=49, velocity=80, time=9),
    Message('note_off', channel=9, note=70, velocity=87, time=13),
    Message('note_off', channel=9, note=36, velocity=81, time=1),
    Message('note_off', channel=9, note=36, velocity=127, time=25),
    Message('note_on', channel=9, note=36, velocity=67, time=0),
    Message('note_on', channel=9, note=42, velocity=65, time=0),
    Message('note_on', channel=9, note=51, velocity=95, time=0),
    Message('note_on', channel=9, note=70, velocity=76, time=0),
    Message('note_off', channel=9, note=36, velocity=67, time=24),
    Message('note_off', channel=9, note=51, velocity=95, time=1),
    Message('note_off', channel=9, note=70, velocity=76, time=5),
    Message('note_off', channel=9, note=42, velocity=65, time=0),
    Message('note_on', channel=9, note=36, velocity=68, time=18),
    Message('note_on', channel=9, note=70, velocity=83, time=0),
    Message('note_off', channel=9, note=70, velocity=83, time=28),
    Message('note_off', channel=9, note=36, velocity=68, time=0),
    Message('note_on', channel=9, note=36, velocity=77, time=20),
    Message('note_on', channel=9, note=38, velocity=127, time=0),
    Message('note_on', channel=9, note=42, velocity=110, time=0),
    Message('note_on', channel=9, note=51, velocity=110, time=0),
    Message('note_on', channel=9, note=70, velocity=95, time=0),
    Message('note_off', channel=9, note=36, velocity=77, time=19),
    Message('note_off', channel=9, note=51, velocity=110, time=8),
    Message('note_off', channel=9, note=70, velocity=95, time=2),
    Message('note_off', channel=9, note=42, velocity=110, time=6),
    Message('note_on', channel=9, note=40, velocity=73, time=13),
    Message('note_on', channel=9, note=70, velocity=71, time=0),
    Message('note_off', channel=9, note=70, velocity=71, time=27),
    Message('note_off', channel=9, note=38, velocity=127, time=11),
    Message('note_on', channel=9, note=36, velocity=104, time=10),
    Message('note_on', channel=9, note=42, velocity=83, time=0),
    Message('note_on', channel=9, note=51, velocity=80, time=0),
    Message('note_on', channel=9, note=70, velocity=87, time=0),
    Message('note_off', channel=9, note=51, velocity=80, time=21),
    Message('note_off', channel=9, note=40, velocity=73, time=1),
    Message('note_off', channel=9, note=70, velocity=87, time=10),
    Message('note_off', channel=9, note=36, velocity=104, time=2),
    Message('note_off', channel=9, note=42, velocity=83, time=2),
    Message('note_on', channel=9, note=70, velocity=80, time=12),
    Message('note_off', channel=9, note=70, velocity=80, time=27),
    Message('note_on', channel=9, note=36, velocity=122, time=21),
    Message('note_on', channel=9, note=42, velocity=127, time=0),
    Message('note_on', channel=9, note=51, velocity=100, time=0),
    Message('note_on', channel=9, note=70, velocity=95, time=0),
    Message('note_off', channel=9, note=51, velocity=100, time=30),
    Message('note_off', channel=9, note=70, velocity=95, time=2),
    Message('note_off', channel=9, note=42, velocity=127, time=1),
    Message('note_off', channel=9, note=36, velocity=122, time=8),
    Message('note_on', channel=9, note=36, velocity=77, time=7),
    Message('note_on', channel=9, note=70, velocity=76, time=0),
    Message('note_off', channel=9, note=36, velocity=77, time=25),
    Message('note_off', channel=9, note=70, velocity=76, time=1),
    Message('note_on', channel=9, note=36, velocity=71, time=22),
    Message('note_on', channel=9, note=42, velocity=51, time=0),
    Message('note_on', channel=9, note=51, velocity=76, time=0),
    Message('note_on', channel=9, note=70, velocity=91, time=0),
    Message('note_off', channel=9, note=51, velocity=76, time=17),
    Message('note_off', channel=9, note=70, velocity=91, time=10),
    Message('note_off', channel=9, note=42, velocity=51, time=2),
    Message('note_off', channel=9, note=36, velocity=71, time=1),
    Message('note_on', channel=9, note=36, velocity=64, time=18),
    Message('note_on', channel=9, note=70, velocity=95, time=0),
    Message('note_off', channel=9, note=70, velocity=95, time=27),
    Message('note_off', channel=9, note=36, velocity=64, time=0),
    Message('note_on', channel=9, note=36, velocity=75, time=21),
    Message('note_on', channel=9, note=38, velocity=127, time=0),
    Message('note_on', channel=9, note=42, velocity=91, time=0),
    Message('note_on', channel=9, note=51, velocity=110, time=0),
    Message('note_on', channel=9, note=70, velocity=110, time=0),
    Message('note_off', channel=9, note=42, velocity=91, time=30),
    Message('note_off', channel=9, note=51, velocity=110, time=1),
    Message('note_off', channel=9, note=36, velocity=75, time=3),
    Message('note_off', channel=9, note=70, velocity=110, time=3),
    Message('note_on', channel=9, note=40, velocity=73, time=11),
    Message('note_on', channel=9, note=70, velocity=95, time=0),
    Message('note_off', channel=9, note=70, velocity=95, time=29),
    Message('note_off', channel=9, note=38, velocity=127, time=5),
    Message('note_on', channel=9, note=42, velocity=91, time=14),
    Message('note_on', channel=9, note=51, velocity=87, time=0),
    Message('note_on', channel=9, note=70, velocity=95, time=0),
    Message('note_off', channel=9, note=51, velocity=87, time=20),
    Message('note_off', channel=9, note=40, velocity=73, time=0),
    Message('note_off', channel=9, note=70, velocity=95, time=11),
    Message('note_off', channel=9, note=42, velocity=91, time=3),
    Message('note_on', channel=9, note=70, velocity=104, time=14),
    Message('note_off', channel=9, note=70, velocity=104, time=23),
    Message('note_on', channel=9, note=36, velocity=127, time=25),
    Message('note_on', channel=9, note=42, velocity=127, time=0),
    Message('note_on', channel=9, note=51, velocity=110, time=0),
    Message('note_on', channel=9, note=70, velocity=110, time=0),
    Message('note_off', channel=9, note=70, velocity=110, time=32),
    Message('note_off', channel=9, note=42, velocity=127, time=0),
    Message('note_off', channel=9, note=51, velocity=110, time=4),
    Message('note_on', channel=9, note=36, velocity=81, time=12),
    Message('note_on', channel=9, note=70, velocity=87, time=0),
    Message('note_off', channel=9, note=70, velocity=87, time=22),
    Message('note_off', channel=9, note=36, velocity=81, time=1),
    Message('note_off', channel=9, note=36, velocity=127, time=25),
    Message('note_on', channel=9, note=36, velocity=67, time=0),
    Message('note_on', channel=9, note=42, velocity=65, time=0),
    Message('note_on', channel=9, note=51, velocity=95, time=0),
    Message('note_on', channel=9, note=70, velocity=76, time=0),
    Message('note_off', channel=9, note=51, velocity=95, time=18),
    Message('note_off', channel=9, note=36, velocity=67, time=6),
    Message('note_off', channel=9, note=70, velocity=76, time=6),
    Message('note_off', channel=9, note=42, velocity=65, time=0),
    Message('note_on', channel=9, note=36, velocity=68, time=18),
    Message('note_on', channel=9, note=70, velocity=83, time=0),
    Message('note_off', channel=9, note=70, velocity=83, time=28),
    Message('note_off', channel=9, note=36, velocity=68, time=0),
    Message('note_on', channel=9, note=36, velocity=77, time=20),
    Message('note_on', channel=9, note=38, velocity=127, time=0),
    Message('note_on', channel=9, note=42, velocity=110, time=0),
    Message('note_on', channel=9, note=51, velocity=127, time=0),
    Message('note_on', channel=9, note=70, velocity=95, time=0),
    Message('note_off', channel=9, note=36, velocity=77, time=19),
    Message('note_off', channel=9, note=70, velocity=95, time=10),
    Message('note_off', channel=9, note=42, velocity=110, time=6),
    Message('note_off', channel=9, note=51, velocity=127, time=2),
    Message('note_on', channel=9, note=40, velocity=73, time=11),
    Message('note_on', channel=9, note=70, velocity=71, time=0),
    Message('note_off', channel=9, note=70, velocity=71, time=27),
    Message('note_off', channel=9, note=38, velocity=127, time=11),
    Message('note_on', channel=9, note=36, velocity=104, time=10),
    Message('note_on', channel=9, note=42, velocity=83, time=0),
    Message('note_on', channel=9, note=51, velocity=91, time=0),
    Message('note_on', channel=9, note=70, velocity=87, time=0),
    Message('note_off', channel=9, note=40, velocity=73, time=22),
    Message('note_off', channel=9, note=51, velocity=91, time=7),
    Message('note_off', channel=9, note=70, velocity=87, time=3),
    Message('note_off', channel=9, note=36, velocity=104, time=2),
    Message('note_off', channel=9, note=42, velocity=83, time=2),
    Message('note_on', channel=9, note=70, velocity=80, time=12),
    Message('note_off', channel=9, note=70, velocity=80, time=27),
    Message('note_on', channel=9, note=36, velocity=122, time=21),
    Message('note_on', channel=9, note=42, velocity=127, time=0),
    Message('note_on', channel=9, note=51, velocity=110, time=0),
    Message('note_on', channel=9, note=70, velocity=95, time=0),
    Message('note_off', channel=9, note=70, velocity=95, time=32),
    Message('note_off', channel=9, note=42, velocity=127, time=1),
    Message('note_off', channel=9, note=51, velocity=110, time=1),
    Message('note_off', channel=9, note=36, velocity=122, time=7),
    Message('note_on', channel=9, note=36, velocity=77, time=7),
    Message('note_on', channel=9, note=70, velocity=76, time=0),
    Message('note_off', channel=9, note=36, velocity=77, time=25),
    Message('note_off', channel=9, note=70, velocity=76, time=1),
    Message('note_on', channel=9, note=36, velocity=71, time=22),
    Message('note_on', channel=9, note=42, velocity=51, time=0),
    Message('note_on', channel=9, note=51, velocity=91, time=0),
    Message('note_on', channel=9, note=70, velocity=91, time=0),
    Message('note_off', channel=9, note=51, velocity=91, time=25),
    Message('note_off', channel=9, note=70, velocity=91, time=2),
    Message('note_off', channel=9, note=42, velocity=51, time=2),
    Message('note_off', channel=9, note=36, velocity=71, time=1),
    Message('note_on', channel=9, note=36, velocity=64, time=18),
    Message('note_on', channel=9, note=70, velocity=95, time=0),
    Message('note_off', channel=9, note=70, velocity=95, time=27),
    Message('note_off', channel=9, note=36, velocity=64, time=0),
    Message('note_on', channel=9, note=36, velocity=75, time=21),
    Message('note_on', channel=9, note=38, velocity=127, time=0),
    Message('note_on', channel=9, note=42, velocity=91, time=0),
    Message('note_on', channel=9, note=51, velocity=127, time=0),
    Message('note_on', channel=9, note=70, velocity=110, time=0),
    Message('note_off', channel=9, note=42, velocity=91, time=30),
    Message('note_off', channel=9, note=51, velocity=127, time=2),
    Message('note_off', channel=9, note=36, velocity=75, time=2),
    Message('note_off', channel=9, note=70, velocity=110, time=3),
    Message('note_on', channel=9, note=40, velocity=73, time=11),
    Message('note_on', channel=9, note=70, velocity=95, time=0),
    Message('note_off', channel=9, note=70, velocity=95, time=29),
    Message('note_off', channel=9, note=38, velocity=127, time=5),
    Message('note_on', channel=9, note=42, velocity=91, time=14),
    Message('note_on', channel=9, note=51, velocity=83, time=0),
    Message('note_on', channel=9, note=70, velocity=95, time=0),
    Message('note_off', channel=9, note=40, velocity=73, time=20),
    Message('note_off', channel=9, note=51, velocity=83, time=2),
    Message('note_off', channel=9, note=70, velocity=95, time=9),
    Message('note_off', channel=9, note=42, velocity=91, time=3),
    Message('note_on', channel=9, note=70, velocity=104, time=14),
    Message('note_off', channel=9, note=70, velocity=104, time=23),
    Message('note_on', channel=9, note=36, velocity=127, time=25),
    Message('note_on', channel=9, note=42, velocity=127, time=0),
    Message('note_on', channel=9, note=51, velocity=110, time=0),
    Message('note_on', channel=9, note=70, velocity=110, time=0),
    Message('note_off', channel=9, note=70, velocity=110, time=32),
    Message('note_off', channel=9, note=42, velocity=127, time=0),
    Message('note_off', channel=9, note=51, velocity=110, time=3),
    Message('note_on', channel=9, note=36, velocity=81, time=13),
    Message('note_on', channel=9, note=70, velocity=87, time=0),
    Message('note_off', channel=9, note=70, velocity=87, time=22),
    Message('note_off', channel=9, note=36, velocity=81, time=1),
    Message('note_off', channel=9, note=36, velocity=127, time=25),
    Message('note_on', channel=9, note=36, velocity=67, time=0),
    Message('note_on', channel=9, note=42, velocity=65, time=0),
    Message('note_on', channel=9, note=51, velocity=73, time=0),
    Message('note_on', channel=9, note=70, velocity=76, time=0),
    Message('note_off', channel=9, note=51, velocity=73, time=19),
    Message('note_off', channel=9, note=36, velocity=67, time=5),
    Message('note_off', channel=9, note=70, velocity=76, time=6),
    Message('note_off', channel=9, note=42, velocity=65, time=0),
    Message('note_on', channel=9, note=36, velocity=68, time=18),
    Message('note_on', channel=9, note=36, velocity=127, time=0),
    Message('note_on', channel=9, note=70, velocity=83, time=0),
    Message('note_off', channel=9, note=36, velocity=127, time=18),
    Message('note_off', channel=9, note=70, velocity=83, time=10),
    Message('note_off', channel=9, note=36, velocity=68, time=0),
    Message('note_on', channel=9, note=36, velocity=77, time=20),
    Message('note_on', channel=9, note=38, velocity=127, time=0),
    Message('note_on', channel=9, note=42, velocity=110, time=0),
    Message('note_on', channel=9, note=51, velocity=110, time=0),
    Message('note_on', channel=9, note=70, velocity=95, time=0),
    Message('note_off', channel=9, note=36, velocity=77, time=19),
    Message('note_off', channel=9, note=70, velocity=95, time=10),
    Message('note_off', channel=9, note=51, velocity=110, time=5),
    Message('note_off', channel=9, note=42, velocity=110, time=1),
    Message('note_on', channel=9, note=40, velocity=73, time=13),
    Message('note_on', channel=9, note=70, velocity=71, time=0),
    Message('note_off', channel=9, note=70, velocity=71, time=27),
    Message('note_off', channel=9, note=38, velocity=127, time=11),
    Message('note_on', channel=9, note=36, velocity=104, time=10),
    Message('note_on', channel=9, note=42, velocity=83, time=0),
    Message('note_on', channel=9, note=51, velocity=95, time=0),
    Message('note_on', channel=9, note=70, velocity=87, time=0),
    Message('note_off', channel=9, note=40, velocity=73, time=22),
    Message('note_off', channel=9, note=51, velocity=95, time=2),
    Message('note_off', channel=9, note=70, velocity=87, time=8),
    Message('note_off', channel=9, note=36, velocity=104, time=2),
    Message('note_off', channel=9, note=42, velocity=83, time=2),
    Message('note_on', channel=9, note=70, velocity=80, time=12),
    Message('note_off', channel=9, note=70, velocity=80, time=27),
    Message('note_on', channel=9, note=36, velocity=122, time=21),
    Message('note_on', channel=9, note=42, velocity=127, time=0),
    Message('note_on', channel=9, note=51, velocity=110, time=0),
    Message('note_on', channel=9, note=70, velocity=95, time=0),
    Message('note_off', channel=9, note=70, velocity=95, time=32),
    Message('note_off', channel=9, note=42, velocity=127, time=1),
    Message('note_off', channel=9, note=51, velocity=110, time=2),
    Message('note_off', channel=9, note=36, velocity=122, time=6),
    Message('note_on', channel=9, note=36, velocity=77, time=7),
    Message('note_on', channel=9, note=70, velocity=76, time=0),
    Message('note_off', channel=9, note=36, velocity=77, time=25),
    Message('note_off', channel=9, note=70, velocity=76, time=1),
    Message('note_on', channel=9, note=36, velocity=71, time=22),
    Message('note_on', channel=9, note=42, velocity=51, time=0),
    Message('note_on', channel=9, note=51, velocity=80, time=0),
    Message('note_on', channel=9, note=70, velocity=91, time=0),
    Message('note_off', channel=9, note=70, velocity=91, time=27),
    Message('note_off', channel=9, note=51, velocity=80, time=0),
    Message('note_off', channel=9, note=42, velocity=51, time=2),
    Message('note_off', channel=9, note=36, velocity=71, time=1),
    Message('note_on', channel=9, note=36, velocity=64, time=18),
    Message('note_on', channel=9, note=70, velocity=95, time=0),
    Message('note_off', channel=9, note=70, velocity=95, time=27),
    Message('note_off', channel=9, note=36, velocity=64, time=0),
    Message('note_on', channel=9, note=36, velocity=75, time=21),
    Message('note_on', channel=9, note=38, velocity=127, time=0),
    Message('note_on', channel=9, note=42, velocity=91, time=0),
    Message('note_on', channel=9, note=51, velocity=104, time=0),
    Message('note_on', channel=9, note=70, velocity=110, time=0),
    Message('note_off', channel=9, note=42, velocity=91, time=30),
    Message('note_off', channel=9, note=51, velocity=104, time=1),
    Message('note_off', channel=9, note=36, velocity=75, time=3),
    Message('note_off', channel=9, note=70, velocity=110, time=3),
    Message('note_on', channel=9, note=40, velocity=73, time=11),
    Message('note_on', channel=9, note=70, velocity=95, time=0),
    Message('note_off', channel=9, note=70, velocity=95, time=29),
    Message('note_off', channel=9, note=38, velocity=127, time=5),
    Message('note_on', channel=9, note=42, velocity=91, time=14),
    Message('note_on', channel=9, note=51, velocity=95, time=0),
    Message('note_on', channel=9, note=70, velocity=95, time=0),
    Message('note_off', channel=9, note=40, velocity=73, time=20),
    Message('note_off', channel=9, note=51, velocity=95, time=5),
    Message('note_off', channel=9, note=70, velocity=95, time=6),
    Message('note_off', channel=9, note=42, velocity=91, time=3),
    Message('note_on', channel=9, note=70, velocity=104, time=14),
    Message('note_off', channel=9, note=70, velocity=104, time=23),
    Message('note_on', channel=9, note=36, velocity=127, time=25),
    Message('note_on', channel=9, note=42, velocity=127, time=0),
    Message('note_on', channel=9, note=51, velocity=104, time=0),
    Message('note_on', channel=9, note=70, velocity=110, time=0),
    Message('note_off', channel=9, note=51, velocity=104, time=26),
    Message('note_off', channel=9, note=70, velocity=110, time=6),
    Message('note_off', channel=9, note=42, velocity=127, time=0),
    Message('note_on', channel=9, note=36, velocity=81, time=16),
    Message('note_on', channel=9, note=70, velocity=87, time=0),
    Message('note_off', channel=9, note=70, velocity=87, time=22),
    Message('note_off', channel=9, note=36, velocity=81, time=1),
    Message('note_off', channel=9, note=36, velocity=127, time=25),
    Message('note_on', channel=9, note=36, velocity=67, time=0),
    Message('note_on', channel=9, note=42, velocity=65, time=0),
    Message('note_on', channel=9, note=51, velocity=91, time=0),
    Message('note_on', channel=9, note=70, velocity=76, time=0),
    Message('note_off', channel=9, note=51, velocity=91, time=19),
    Message('note_off', channel=9, note=36, velocity=67, time=5),
    Message('note_off', channel=9, note=70, velocity=76, time=6),
    Message('note_off', channel=9, note=42, velocity=65, time=0),
    Message('note_on', channel=9, note=36, velocity=68, time=18),
    Message('note_on', channel=9, note=36, velocity=127, time=0),
    Message('note_on', channel=9, note=70, velocity=83, time=0),
    Message('note_off', channel=9, note=36, velocity=127, time=22),
    Message('note_off', channel=9, note=70, velocity=83, time=6),
    Message('note_off', channel=9, note=36, velocity=68, time=0),
    Message('note_on', channel=9, note=36, velocity=77, time=20),
    Message('note_on', channel=9, note=38, velocity=127, time=0),
    Message('note_on', channel=9, note=42, velocity=110, time=0),
    Message('note_on', channel=9, note=51, velocity=104, time=0),
    Message('note_on', channel=9, note=70, velocity=95, time=0),
    Message('note_off', channel=9, note=36, velocity=77, time=19),
    Message('note_off', channel=9, note=51, velocity=104, time=5),
    Message('note_off', channel=9, note=70, velocity=95, time=5),
    Message('note_off', channel=9, note=42, velocity=110, time=6),
    Message('note_on', channel=9, note=40, velocity=73, time=13),
    Message('note_on', channel=9, note=70, velocity=71, time=0),
    Message('note_off', channel=9, note=70, velocity=71, time=27),
    Message('note_off', channel=9, note=38, velocity=127, time=11),
    Message('note_on', channel=9, note=36, velocity=104, time=10),
    Message('note_on', channel=9, note=42, velocity=83, time=0),
    Message('note_on', channel=9, note=51, velocity=95, time=0),
    Message('note_on', channel=9, note=70, velocity=87, time=0),
    Message('note_off', channel=9, note=51, velocity=95, time=21),
    Message('note_off', channel=9, note=40, velocity=73, time=1),
    Message('note_off', channel=9, note=70, velocity=87, time=10),
    Message('note_off', channel=9, note=36, velocity=104, time=2),
    Message('note_off', channel=9, note=42, velocity=83, time=2),
    Message('note_on', channel=9, note=70, velocity=80, time=12),
    Message('note_off', channel=9, note=70, velocity=80, time=27),
    Message('note_on', channel=9, note=36, velocity=122, time=21),
    Message('note_on', channel=9, note=42, velocity=127, time=0),
    Message('note_on', channel=9, note=51, velocity=100, time=0),
    Message('note_on', channel=9, note=70, velocity=95, time=0),
    Message('note_off', channel=9, note=51, velocity=100, time=17),
    Message('note_off', channel=9, note=70, velocity=95, time=15),
    Message('note_off', channel=9, note=42, velocity=127, time=1),
    Message('note_off', channel=9, note=36, velocity=122, time=8),
    Message('note_on', channel=9, note=36, velocity=77, time=7),
    Message('note_on', channel=9, note=70, velocity=76, time=0),
    Message('note_off', channel=9, note=36, velocity=77, time=25),
    Message('note_off', channel=9, note=70, velocity=76, time=1),
    Message('note_on', channel=9, note=36, velocity=71, time=22),
    Message('note_on', channel=9, note=42, velocity=51, time=0),
    Message('note_on', channel=9, note=47, velocity=127, time=0),
    Message('note_on', channel=9, note=51, velocity=100, time=0),
    Message('note_on', channel=9, note=70, velocity=91, time=0),
    Message('note_off', channel=9, note=51, velocity=100, time=22),
    Message('note_off', channel=9, note=70, velocity=91, time=5),
    Message('note_off', channel=9, note=42, velocity=51, time=2),
    Message('note_off', channel=9, note=36, velocity=71, time=1),
    Message('note_off', channel=9, note=47, velocity=127, time=1),
    Message('note_on', channel=9, note=36, velocity=64, time=17),
    Message('note_on', channel=9, note=70, velocity=95, time=0),
    Message('note_off', channel=9, note=70, velocity=95, time=27),
    Message('note_off', channel=9, note=36, velocity=64, time=0),
    Message('note_on', channel=9, note=36, velocity=75, time=21),
    Message('note_on', channel=9, note=38, velocity=127, time=0),
    Message('note_on', channel=9, note=42, velocity=91, time=0),
    Message('note_on', channel=9, note=51, velocity=95, time=0),
    Message('note_on', channel=9, note=70, velocity=110, time=0),
    Message('note_off', channel=9, note=51, velocity=95, time=20),
    Message('note_off', channel=9, note=42, velocity=91, time=10),
    Message('note_off', channel=9, note=36, velocity=75, time=4),
    Message('note_off', channel=9, note=70, velocity=110, time=3),
    Message('note_on', channel=9, note=40, velocity=73, time=11),
    Message('note_on', channel=9, note=43, velocity=127, time=0),
    Message('note_on', channel=9, note=70, velocity=95, time=0),
    Message('note_off', channel=9, note=70, velocity=95, time=29),
    Message('note_off', channel=9, note=38, velocity=127, time=5),
    Message('note_off', channel=9, note=43, velocity=127, time=1),
    Message('note_on', channel=9, note=42, velocity=91, time=13),
    Message('note_on', channel=9, note=51, velocity=95, time=0),
    Message('note_on', channel=9, note=70, velocity=95, time=0),
    Message('note_off', channel=9, note=51, velocity=95, time=20),
    Message('note_off', channel=9, note=40, velocity=73, time=0),
    Message('note_off', channel=9, note=70, velocity=95, time=11),
    Message('note_off', channel=9, note=42, velocity=91, time=3),
    Message('note_on', channel=9, note=70, velocity=104, time=14),
    Message('note_off', channel=9, note=70, velocity=104, time=23),
    Message('note_on', channel=9, note=36, velocity=127, time=25),
    Message('note_on', channel=9, note=42, velocity=127, time=0),
    Message('note_on', channel=9, note=49, velocity=110, time=0),
    Message('note_on', channel=9, note=51, velocity=104, time=0),
    Message('note_on', channel=9, note=70, velocity=110, time=0),
    Message('note_off', channel=9, note=49, velocity=110, time=27),
    Message('note_off', channel=9, note=51, velocity=104, time=2),
    Message('note_off', channel=9, note=70, velocity=110, time=3),
    Message('note_off', channel=9, note=42, velocity=127, time=0),
    Message('note_on', channel=9, note=36, velocity=81, time=16),
    Message('note_on', channel=9, note=70, velocity=87, time=0),
    Message('note_off', channel=9, note=70, velocity=87, time=22),
    Message('note_off', channel=9, note=36, velocity=81, time=1),
    Message('note_off', channel=9, note=36, velocity=127, time=25),
    Message('note_on', channel=9, note=36, velocity=67, time=0),
    Message('note_on', channel=9, note=42, velocity=65, time=0),
    Message('note_on', channel=9, note=51, velocity=91, time=0),
    Message('note_on', channel=9, note=70, velocity=76, time=0),
    Message('note_off', channel=9, note=51, velocity=91, time=20),
    Message('note_off', channel=9, note=36, velocity=67, time=4),
    Message('note_off', channel=9, note=70, velocity=76, time=6),
    Message('note_off', channel=9, note=42, velocity=65, time=0),
    Message('note_on', channel=9, note=36, velocity=68, time=18),
    Message('note_on', channel=9, note=70, velocity=83, time=0),
    Message('note_off', channel=9, note=70, velocity=83, time=28),
    Message('note_off', channel=9, note=36, velocity=68, time=0),
    Message('note_on', channel=9, note=36, velocity=77, time=20),
    Message('note_on', channel=9, note=38, velocity=127, time=0),
    Message('note_on', channel=9, note=42, velocity=110, time=0),
    Message('note_on', channel=9, note=51, velocity=104, time=0),
    Message('note_on', channel=9, note=70, velocity=95, time=0),
    Message('note_off', channel=9, note=36, velocity=77, time=19),
    Message('note_off', channel=9, note=51, velocity=104, time=7),
    Message('note_off', channel=9, note=70, velocity=95, time=3),
    Message('note_off', channel=9, note=42, velocity=110, time=6),
    Message('note_on', channel=9, note=40, velocity=73, time=13),
    Message('note_on', channel=9, note=70, velocity=71, time=0),
    Message('note_off', channel=9, note=70, velocity=71, time=27),
    Message('note_off', channel=9, note=38, velocity=127, time=11),
    Message('note_on', channel=9, note=36, velocity=104, time=10),
    Message('note_on', channel=9, note=42, velocity=83, time=0),
    Message('note_on', channel=9, note=51, velocity=71, time=0),
    Message('note_on', channel=9, note=70, velocity=87, time=0),
    Message('note_off', channel=9, note=40, velocity=73, time=22),
    Message('note_off', channel=9, note=51, velocity=71, time=2),
    Message('note_off', channel=9, note=70, velocity=87, time=8),
    Message('note_off', channel=9, note=36, velocity=104, time=2),
    Message('note_off', channel=9, note=42, velocity=83, time=2),
    Message('note_on', channel=9, note=70, velocity=80, time=12),
    Message('note_off', channel=9, note=70, velocity=80, time=27),
    Message('note_on', channel=9, note=36, velocity=122, time=21),
    Message('note_on', channel=9, note=42, velocity=127, time=0),
    Message('note_on', channel=9, note=51, velocity=100, time=0),
    Message('note_on', channel=9, note=70, velocity=95, time=0),
    Message('note_off', channel=9, note=51, velocity=100, time=28),
    Message('note_off', channel=9, note=70, velocity=95, time=4),
    Message('note_off', channel=9, note=42, velocity=127, time=1),
    Message('note_off', channel=9, note=36, velocity=122, time=8),
    Message('note_on', channel=9, note=36, velocity=77, time=7),
    Message('note_on', channel=9, note=70, velocity=76, time=0),
    Message('note_off', channel=9, note=36, velocity=77, time=25),
    Message('note_off', channel=9, note=70, velocity=76, time=1),
    Message('note_on', channel=9, note=36, velocity=71, time=22),
    Message('note_on', channel=9, note=42, velocity=51, time=0),
    Message('note_on', channel=9, note=51, velocity=83, time=0),
    Message('note_on', channel=9, note=70, velocity=91, time=0),
    Message('note_off', channel=9, note=51, velocity=83, time=18),
    Message('note_off', channel=9, note=70, velocity=91, time=9),
    Message('note_off', channel=9, note=42, velocity=51, time=2),
    Message('note_off', channel=9, note=36, velocity=71, time=1),
    Message('note_on', channel=9, note=36, velocity=64, time=18),
    Message('note_on', channel=9, note=70, velocity=95, time=0),
    Message('note_off', channel=9, note=70, velocity=95, time=27),
    Message('note_off', channel=9, note=36, velocity=64, time=0),
    Message('note_on', channel=9, note=36, velocity=75, time=21),
    Message('note_on', channel=9, note=38, velocity=127, time=0),
    Message('note_on', channel=9, note=42, velocity=91, time=0),
    Message('note_on', channel=9, note=51, velocity=104, time=0),
    Message('note_on', channel=9, note=70, velocity=110, time=0),
    Message('note_off', channel=9, note=42, velocity=91, time=30),
    Message('note_off', channel=9, note=51, velocity=104, time=1),
    Message('note_off', channel=9, note=36, velocity=75, time=3),
    Message('note_off', channel=9, note=70, velocity=110, time=3),
    Message('note_on', channel=9, note=40, velocity=73, time=11),
    Message('note_on', channel=9, note=70, velocity=95, time=0),
    Message('note_off', channel=9, note=70, velocity=95, time=29),
    Message('note_off', channel=9, note=38, velocity=127, time=5),
    Message('note_on', channel=9, note=42, velocity=91, time=14),
    Message('note_on', channel=9, note=51, velocity=91, time=0),
    Message('note_on', channel=9, note=70, velocity=95, time=0),
    Message('note_off', channel=9, note=51, velocity=91, time=20),
    Message('note_off', channel=9, note=40, velocity=73, time=0),
    Message('note_off', channel=9, note=70, velocity=95, time=11),
    Message('note_off', channel=9, note=42, velocity=91, time=3),
    Message('note_on', channel=9, note=70, velocity=104, time=14),
    Message('note_off', channel=9, note=70, velocity=104, time=23),
    Message('note_on', channel=9, note=36, velocity=127, time=25),
    Message('note_on', channel=9, note=42, velocity=127, time=0),
    Message('note_on', channel=9, note=51, velocity=110, time=0),
    Message('note_on', channel=9, note=70, velocity=110, time=0),
    Message('note_off', channel=9, note=51, velocity=110, time=30),
    Message('note_off', channel=9, note=70, velocity=110, time=2),
    Message('note_off', channel=9, note=42, velocity=127, time=0),
    Message('note_on', channel=9, note=36, velocity=81, time=16),
    Message('note_on', channel=9, note=70, velocity=87, time=0),
    Message('note_off', channel=9, note=70, velocity=87, time=22),
    Message('note_off', channel=9, note=36, velocity=81, time=1),
    Message('note_off', channel=9, note=36, velocity=127, time=25),
    Message('note_on', channel=9, note=36, velocity=67, time=0),
    Message('note_on', channel=9, note=42, velocity=65, time=0),
    Message('note_on', channel=9, note=51, velocity=100, time=0),
    Message('note_on', channel=9, note=70, velocity=76, time=0),
    Message('note_off', channel=9, note=51, velocity=100, time=19),
    Message('note_off', channel=9, note=36, velocity=67, time=5),
    Message('note_off', channel=9, note=70, velocity=76, time=6),
    Message('note_off', channel=9, note=42, velocity=65, time=0),
    Message('note_on', channel=9, note=36, velocity=68, time=18),
    Message('note_on', channel=9, note=70, velocity=83, time=0),
    Message('note_off', channel=9, note=70, velocity=83, time=28),
    Message('note_off', channel=9, note=36, velocity=68, time=0),
    Message('note_on', channel=9, note=36, velocity=77, time=20),
    Message('note_on', channel=9, note=38, velocity=127, time=0),
    Message('note_on', channel=9, note=42, velocity=110, time=0),
    Message('note_on', channel=9, note=51, velocity=127, time=0),
    Message('note_on', channel=9, note=70, velocity=95, time=0),
    Message('note_off', channel=9, note=36, velocity=77, time=19),
    Message('note_off', channel=9, note=70, velocity=95, time=10),
    Message('note_off', channel=9, note=42, velocity=110, time=6),
    Message('note_off', channel=9, note=51, velocity=127, time=2),
    Message('note_on', channel=9, note=40, velocity=73, time=11),
    Message('note_on', channel=9, note=70, velocity=71, time=0),
    Message('note_off', channel=9, note=70, velocity=71, time=27),
    Message('note_off', channel=9, note=38, velocity=127, time=11),
    Message('note_on', channel=9, note=36, velocity=104, time=10),
    Message('note_on', channel=9, note=42, velocity=83, time=0),
    Message('note_on', channel=9, note=51, velocity=91, time=0),
    Message('note_on', channel=9, note=70, velocity=87, time=0),
    Message('note_off', channel=9, note=40, velocity=73, time=22),
    Message('note_off', channel=9, note=51, velocity=91, time=2),
    Message('note_off', channel=9, note=70, velocity=87, time=8),
    Message('note_off', channel=9, note=36, velocity=104, time=2),
    Message('note_off', channel=9, note=42, velocity=83, time=2),
    Message('note_on', channel=9, note=70, velocity=80, time=12),
    Message('note_off', channel=9, note=70, velocity=80, time=27),
    Message('note_on', channel=9, note=36, velocity=122, time=21),
    Message('note_on', channel=9, note=42, velocity=127, time=0),
    Message('note_on', channel=9, note=51, velocity=110, time=0),
    Message('note_on', channel=9, note=70, velocity=95, time=0),
    Message('note_off', channel=9, note=51, velocity=110, time=29),
    Message('note_off', channel=9, note=70, velocity=95, time=3),
    Message('note_off', channel=9, note=42, velocity=127, time=1),
    Message('note_off', channel=9, note=36, velocity=122, time=8),
    Message('note_on', channel=9, note=36, velocity=77, time=7),
    Message('note_on', channel=9, note=70, velocity=76, time=0),
    Message('note_off', channel=9, note=36, velocity=77, time=25),
    Message('note_off', channel=9, note=70, velocity=76, time=1),
    Message('note_on', channel=9, note=36, velocity=71, time=22),
    Message('note_on', channel=9, note=42, velocity=51, time=0),
    Message('note_on', channel=9, note=51, velocity=100, time=0),
    Message('note_on', channel=9, note=70, velocity=91, time=0),
    Message('note_off', channel=9, note=51, velocity=100, time=19),
    Message('note_off', channel=9, note=70, velocity=91, time=8),
    Message('note_off', channel=9, note=42, velocity=51, time=2),
    Message('note_off', channel=9, note=36, velocity=71, time=1),
    Message('note_on', channel=9, note=36, velocity=64, time=18),
    Message('note_on', channel=9, note=70, velocity=95, time=0),
    Message('note_off', channel=9, note=70, velocity=95, time=27),
    Message('note_off', channel=9, note=36, velocity=64, time=0),
    Message('note_on', channel=9, note=36, velocity=75, time=21),
    Message('note_on', channel=9, note=38, velocity=127, time=0),
    Message('note_on', channel=9, note=42, velocity=91, time=0),
    Message('note_on', channel=9, note=51, velocity=127, time=0),
    Message('note_on', channel=9, note=70, velocity=110, time=0),
    Message('note_off', channel=9, note=42, velocity=91, time=30),
    Message('note_off', channel=9, note=51, velocity=127, time=3),
    Message('note_off', channel=9, note=36, velocity=75, time=1),
    Message('note_off', channel=9, note=70, velocity=110, time=3),
    Message('note_on', channel=9, note=40, velocity=73, time=11),
    Message('note_on', channel=9, note=70, velocity=95, time=0),
    Message('note_off', channel=9, note=70, velocity=95, time=29),
    Message('note_off', channel=9, note=38, velocity=127, time=5),
    Message('note_on', channel=9, note=42, velocity=91, time=14),
    Message('note_on', channel=9, note=51, velocity=95, time=0),
    Message('note_on', channel=9, note=70, velocity=95, time=0),
    Message('note_off', channel=9, note=40, velocity=73, time=20),
    Message('note_off', channel=9, note=51, velocity=95, time=2),
    Message('note_off', channel=9, note=70, velocity=95, time=9),
    Message('note_off', channel=9, note=42, velocity=91, time=3),
    Message('note_on', channel=9, note=70, velocity=104, time=14),
    Message('note_off', channel=9, note=70, velocity=104, time=23),
    Message('note_on', channel=9, note=36, velocity=127, time=25),
    Message('note_on', channel=9, note=42, velocity=127, time=0),
    Message('note_on', channel=9, note=51, velocity=110, time=0),
    Message('note_on', channel=9, note=70, velocity=110, time=0),
    Message('note_off', channel=9, note=51, velocity=110, time=27),
    Message('note_off', channel=9, note=70, velocity=110, time=5),
    Message('note_off', channel=9, note=42, velocity=127, time=0),
    Message('note_on', channel=9, note=36, velocity=81, time=16),
    Message('note_on', channel=9, note=70, velocity=87, time=0),
    Message('note_off', channel=9, note=70, velocity=87, time=22),
    Message('note_off', channel=9, note=36, velocity=81, time=1),
    Message('note_off', channel=9, note=36, velocity=127, time=25),
    Message('note_on', channel=9, note=36, velocity=67, time=0),
    Message('note_on', channel=9, note=42, velocity=65, time=0),
    Message('note_on', channel=9, note=51, velocity=100, time=0),
    Message('note_on', channel=9, note=70, velocity=76, time=0),
    Message('note_off', channel=9, note=51, velocity=100, time=17),
    Message('note_off', channel=9, note=36, velocity=67, time=7),
    Message('note_off', channel=9, note=70, velocity=76, time=6),
    Message('note_off', channel=9, note=42, velocity=65, time=0),
    Message('note_on', channel=9, note=36, velocity=68, time=18),
    Message('note_on', channel=9, note=70, velocity=83, time=0),
    Message('note_off', channel=9, note=70, velocity=83, time=28),
    Message('note_off', channel=9, note=36, velocity=68, time=0),
    Message('note_on', channel=9, note=36, velocity=77, time=20),
    Message('note_on', channel=9, note=38, velocity=127, time=0),
    Message('note_on', channel=9, note=42, velocity=110, time=0),
    Message('note_on', channel=9, note=51, velocity=110, time=0),
    Message('note_on', channel=9, note=70, velocity=95, time=0),
    Message('note_off', channel=9, note=36, velocity=77, time=19),
    Message('note_off', channel=9, note=51, velocity=110, time=8),
    Message('note_off', channel=9, note=70, velocity=95, time=2),
    Message('note_off', channel=9, note=42, velocity=110, time=6),
    Message('note_on', channel=9, note=40, velocity=73, time=13),
    Message('note_on', channel=9, note=70, velocity=71, time=0),
    Message('note_off', channel=9, note=70, velocity=71, time=27),
    Message('note_off', channel=9, note=38, velocity=127, time=11),
    Message('note_on', channel=9, note=36, velocity=104, time=10),
    Message('note_on', channel=9, note=42, velocity=83, time=0),
    Message('note_on', channel=9, note=51, velocity=100, time=0),
    Message('note_on', channel=9, note=70, velocity=87, time=0),
    Message('note_off', channel=9, note=51, velocity=100, time=22),
    Message('note_off', channel=9, note=40, velocity=73, time=0),
    Message('note_off', channel=9, note=70, velocity=87, time=10),
    Message('note_off', channel=9, note=36, velocity=104, time=2),
    Message('note_off', channel=9, note=42, velocity=83, time=2),
    Message('note_on', channel=9, note=70, velocity=80, time=12),
    Message('note_off', channel=9, note=70, velocity=80, time=27),
    Message('note_on', channel=9, note=36, velocity=122, time=21),
    Message('note_on', channel=9, note=42, velocity=127, time=0),
    Message('note_on', channel=9, note=51, velocity=104, time=0),
    Message('note_on', channel=9, note=70, velocity=95, time=0),
    Message('note_off', channel=9, note=51, velocity=104, time=26),
    Message('note_off', channel=9, note=70, velocity=95, time=6),
    Message('note_off', channel=9, note=42, velocity=127, time=1),
    Message('note_off', channel=9, note=36, velocity=122, time=8),
    Message('note_on', channel=9, note=36, velocity=77, time=7),
    Message('note_on', channel=9, note=70, velocity=76, time=0),
    Message('note_off', channel=9, note=36, velocity=77, time=25),
    Message('note_off', channel=9, note=70, velocity=76, time=1),
    Message('note_on', channel=9, note=36, velocity=71, time=22),
    Message('note_on', channel=9, note=42, velocity=51, time=0),
    Message('note_on', channel=9, note=51, velocity=95, time=0),
    Message('note_on', channel=9, note=70, velocity=91, time=0),
    Message('note_off', channel=9, note=51, velocity=95, time=22),
    Message('note_off', channel=9, note=70, velocity=91, time=5),
    Message('note_off', channel=9, note=42, velocity=51, time=2),
    Message('note_off', channel=9, note=36, velocity=71, time=1),
    Message('note_on', channel=9, note=36, velocity=64, time=18),
    Message('note_on', channel=9, note=70, velocity=95, time=0),
    Message('note_off', channel=9, note=70, velocity=95, time=27),
    Message('note_off', channel=9, note=36, velocity=64, time=0),
    Message('note_on', channel=9, note=36, velocity=75, time=21),
    Message('note_on', channel=9, note=38, velocity=127, time=0),
    Message('note_on', channel=9, note=42, velocity=91, time=0),
    Message('note_on', channel=9, note=51, velocity=127, time=0),
    Message('note_on', channel=9, note=70, velocity=110, time=0),
    Message('note_off', channel=9, note=51, velocity=127, time=23),
    Message('note_off', channel=9, note=42, velocity=91, time=7),
    Message('note_off', channel=9, note=36, velocity=75, time=4),
    Message('note_off', channel=9, note=70, velocity=110, time=3),
    Message('note_on', channel=9, note=40, velocity=73, time=11),
    Message('note_on', channel=9, note=70, velocity=95, time=0),
    Message('note_off', channel=9, note=70, velocity=95, time=29),
    Message('note_off', channel=9, note=38, velocity=127, time=5),
    Message('note_on', channel=9, note=42, velocity=91, time=14),
    Message('note_on', channel=9, note=51, velocity=100, time=0),
    Message('note_on', channel=9, note=70, velocity=95, time=0),
    Message('note_off', channel=9, note=40, velocity=73, time=20),
    Message('note_off', channel=9, note=51, velocity=100, time=1),
    Message('note_off', channel=9, note=70, velocity=95, time=10),
    Message('note_off', channel=9, note=42, velocity=91, time=3),
    Message('note_on', channel=9, note=70, velocity=104, time=14),
    Message('note_off', channel=9, note=70, velocity=104, time=23),
    Message('note_on', channel=9, note=36, velocity=127, time=25),
    Message('note_on', channel=9, note=42, velocity=127, time=0),
    Message('note_on', channel=9, note=51, velocity=110, time=0),
    Message('note_on', channel=9, note=70, velocity=110, time=0),
    Message('note_off', channel=9, note=51, velocity=110, time=23),
    Message('note_off', channel=9, note=70, velocity=110, time=9),
    Message('note_off', channel=9, note=42, velocity=127, time=0),
    Message('note_on', channel=9, note=36, velocity=81, time=16),
    Message('note_on', channel=9, note=70, velocity=87, time=0),
    Message('note_off', channel=9, note=70, velocity=87, time=22),
    Message('note_off', channel=9, note=36, velocity=81, time=1),
    Message('note_off', channel=9, note=36, velocity=127, time=25),
    Message('note_on', channel=9, note=36, velocity=67, time=0),
    Message('note_on', channel=9, note=42, velocity=65, time=0),
    Message('note_on', channel=9, note=51, velocity=100, time=0),
    Message('note_on', channel=9, note=70, velocity=76, time=0),
    Message('note_off', channel=9, note=51, velocity=100, time=18),
    Message('note_off', channel=9, note=36, velocity=67, time=6),
    Message('note_off', channel=9, note=70, velocity=76, time=6),
    Message('note_off', channel=9, note=42, velocity=65, time=0),
    Message('note_on', channel=9, note=36, velocity=68, time=18),
    Message('note_on', channel=9, note=70, velocity=83, time=0),
    Message('note_off', channel=9, note=70, velocity=83, time=28),
    Message('note_off', channel=9, note=36, velocity=68, time=0),
    Message('note_on', channel=9, note=36, velocity=77, time=20),
    Message('note_on', channel=9, note=38, velocity=127, time=0),
    Message('note_on', channel=9, note=42, velocity=110, time=0),
    Message('note_on', channel=9, note=51, velocity=110, time=0),
    Message('note_on', channel=9, note=70, velocity=95, time=0),
    Message('note_off', channel=9, note=36, velocity=77, time=19),
    Message('note_off', channel=9, note=51, velocity=110, time=7),
    Message('note_off', channel=9, note=70, velocity=95, time=3),
    Message('note_off', channel=9, note=42, velocity=110, time=6),
    Message('note_on', channel=9, note=40, velocity=73, time=13),
    Message('note_on', channel=9, note=70, velocity=71, time=0),
    Message('note_off', channel=9, note=70, velocity=71, time=27),
    Message('note_off', channel=9, note=38, velocity=127, time=11),
    Message('note_on', channel=9, note=36, velocity=104, time=10),
    Message('note_on', channel=9, note=42, velocity=83, time=0),
    Message('note_on', channel=9, note=51, velocity=100, time=0),
    Message('note_on', channel=9, note=70, velocity=87, time=0),
    Message('note_off', channel=9, note=51, velocity=100, time=21),
    Message('note_off', channel=9, note=40, velocity=73, time=1),
    Message('note_off', channel=9, note=70, velocity=87, time=10),
    Message('note_off', channel=9, note=36, velocity=104, time=2),
    Message('note_off', channel=9, note=42, velocity=83, time=2),
    Message('note_on', channel=9, note=70, velocity=80, time=12),
    Message('note_off', channel=9, note=70, velocity=80, time=27),
    Message('note_on', channel=9, note=36, velocity=122, time=21),
    Message('note_on', channel=9, note=42, velocity=127, time=0),
    Message('note_on', channel=9, note=51, velocity=110, time=0),
    Message('note_on', channel=9, note=70, velocity=95, time=0),
    Message('note_off', channel=9, note=51, velocity=110, time=23),
    Message('note_off', channel=9, note=70, velocity=95, time=9),
    Message('note_off', channel=9, note=42, velocity=127, time=1),
    Message('note_off', channel=9, note=36, velocity=122, time=8),
    Message('note_on', channel=9, note=36, velocity=77, time=7),
    Message('note_on', channel=9, note=70, velocity=76, time=0),
    Message('note_off', channel=9, note=36, velocity=77, time=25),
    Message('note_off', channel=9, note=70, velocity=76, time=1),
    Message('note_on', channel=9, note=36, velocity=71, time=22),
    Message('note_on', channel=9, note=42, velocity=51, time=0),
    Message('note_on', channel=9, note=51, velocity=100, time=0),
    Message('note_on', channel=9, note=70, velocity=91, time=0),
    Message('note_off', channel=9, note=51, velocity=100, time=19),
    Message('note_off', channel=9, note=70, velocity=91, time=8),
    Message('note_off', channel=9, note=42, velocity=51, time=2),
    Message('note_off', channel=9, note=36, velocity=71, time=1),
    Message('note_on', channel=9, note=36, velocity=64, time=18),
    Message('note_on', channel=9, note=70, velocity=95, time=0),
    Message('note_off', channel=9, note=70, velocity=95, time=27),
    Message('note_off', channel=9, note=36, velocity=64, time=0),
    Message('note_on', channel=9, note=36, velocity=75, time=21),
    Message('note_on', channel=9, note=38, velocity=127, time=0),
    Message('note_on', channel=9, note=42, velocity=91, time=0),
    Message('note_on', channel=9, note=51, velocity=110, time=0),
    Message('note_on', channel=9, note=70, velocity=110, time=0),
    Message('note_off', channel=9, note=51, velocity=110, time=25),
    Message('note_off', channel=9, note=42, velocity=91, time=5),
    Message('note_off', channel=9, note=36, velocity=75, time=4),
    Message('note_off', channel=9, note=70, velocity=110, time=3),
    Message('note_on', channel=9, note=40, velocity=73, time=11),
    Message('note_on', channel=9, note=70, velocity=95, time=0),
    Message('note_off', channel=9, note=70, velocity=95, time=29),
    Message('note_off', channel=9, note=38, velocity=127, time=5),
    Message('note_on', channel=9, note=42, velocity=91, time=14),
    Message('note_on', channel=9, note=51, velocity=100, time=0),
    Message('note_on', channel=9, note=70, velocity=95, time=0),
    Message('note_off', channel=9, note=40, velocity=73, time=20),
    Message('note_off', channel=9, note=51, velocity=100, time=1),
    Message('note_off', channel=9, note=70, velocity=95, time=10),
    Message('note_off', channel=9, note=42, velocity=91, time=3),
    Message('note_on', channel=9, note=70, velocity=104, time=14),
    Message('note_off', channel=9, note=70, velocity=104, time=23),
    Message('note_on', channel=9, note=36, velocity=127, time=25),
    Message('note_on', channel=9, note=42, velocity=127, time=0),
    Message('note_on', channel=9, note=51, velocity=110, time=0),
    Message('note_on', channel=9, note=70, velocity=110, time=0),
    Message('note_off', channel=9, note=51, velocity=110, time=24),
    Message('note_off', channel=9, note=70, velocity=110, time=8),
    Message('note_off', channel=9, note=42, velocity=127, time=0),
    Message('note_on', channel=9, note=36, velocity=81, time=16),
    Message('note_on', channel=9, note=70, velocity=87, time=0),
    Message('note_off', channel=9, note=70, velocity=87, time=22),
    Message('note_off', channel=9, note=36, velocity=81, time=1),
    Message('note_off', channel=9, note=36, velocity=127, time=25),
    Message('note_on', channel=9, note=36, velocity=67, time=0),
    Message('note_on', channel=9, note=51, velocity=100, time=0),
    Message('note_on', channel=9, note=70, velocity=76, time=0),
    Message('note_off', channel=9, note=36, velocity=67, time=24),
    Message('note_off', channel=9, note=51, velocity=100, time=1),
    Message('note_off', channel=9, note=70, velocity=76, time=5),
    Message('note_on', channel=9, note=36, velocity=68, time=18),
    Message('note_on', channel=9, note=42, velocity=65, time=0),
    Message('note_on', channel=9, note=70, velocity=83, time=0),
    Message('note_off', channel=9, note=70, velocity=83, time=28),
    Message('note_off', channel=9, note=36, velocity=68, time=0),
    Message('note_off', channel=9, note=42, velocity=65, time=2),
    Message('note_on', channel=9, note=36, velocity=77, time=18),
    Message('note_on', channel=9, note=38, velocity=127, time=0),
    Message('note_on', channel=9, note=42, velocity=110, time=0),
    Message('note_on', channel=9, note=51, velocity=110, time=0),
    Message('note_on', channel=9, note=70, velocity=95, time=0),
    Message('note_off', channel=9, note=36, velocity=77, time=19),
    Message('note_off', channel=9, note=51, velocity=110, time=6),
    Message('note_off', channel=9, note=70, velocity=95, time=4),
    Message('note_off', channel=9, note=42, velocity=110, time=6),
    Message('note_on', channel=9, note=40, velocity=73, time=13),
    Message('note_on', channel=9, note=70, velocity=71, time=0),
    Message('note_off', channel=9, note=70, velocity=71, time=27),
    Message('note_off', channel=9, note=38, velocity=127, time=11),
    Message('note_on', channel=9, note=36, velocity=104, time=10),
    Message('note_on', channel=9, note=42, velocity=83, time=0),
    Message('note_on', channel=9, note=51, velocity=104, time=0),
    Message('note_on', channel=9, note=70, velocity=87, time=0),
    Message('note_off', channel=9, note=40, velocity=73, time=22),
    Message('note_off', channel=9, note=51, velocity=104, time=2),
    Message('note_off', channel=9, note=70, velocity=87, time=8),
    Message('note_off', channel=9, note=36, velocity=104, time=2),
    Message('note_off', channel=9, note=42, velocity=83, time=2),
    Message('note_on', channel=9, note=70, velocity=80, time=12),
    Message('note_off', channel=9, note=70, velocity=80, time=27),
    Message('note_on', channel=9, note=36, velocity=122, time=21),
    Message('note_on', channel=9, note=42, velocity=127, time=0),
    Message('note_on', channel=9, note=51, velocity=110, time=0),
    Message('note_on', channel=9, note=70, velocity=95, time=0),
    Message('note_off', channel=9, note=51, velocity=110, time=26),
    Message('note_off', channel=9, note=70, velocity=95, time=6),
    Message('note_off', channel=9, note=42, velocity=127, time=1),
    Message('note_off', channel=9, note=36, velocity=122, time=8),
    Message('note_on', channel=9, note=36, velocity=77, time=7),
    Message('note_on', channel=9, note=70, velocity=76, time=0),
    Message('note_off', channel=9, note=36, velocity=77, time=25),
    Message('note_off', channel=9, note=70, velocity=76, time=1),
    Message('note_on', channel=9, note=36, velocity=71, time=22),
    Message('note_on', channel=9, note=42, velocity=51, time=0),
    Message('note_on', channel=9, note=51, velocity=100, time=0),
    Message('note_on', channel=9, note=70, velocity=91, time=0),
    Message('note_off', channel=9, note=51, velocity=100, time=23),
    Message('note_off', channel=9, note=70, velocity=91, time=4),
    Message('note_off', channel=9, note=42, velocity=51, time=2),
    Message('note_off', channel=9, note=36, velocity=71, time=1),
    Message('note_on', channel=9, note=36, velocity=64, time=18),
    Message('note_on', channel=9, note=70, velocity=95, time=0),
    Message('note_off', channel=9, note=70, velocity=95, time=27),
    Message('note_off', channel=9, note=36, velocity=64, time=0),
    Message('note_on', channel=9, note=36, velocity=75, time=21),
    Message('note_on', channel=9, note=38, velocity=127, time=0),
    Message('note_on', channel=9, note=42, velocity=91, time=0),
    Message('note_on', channel=9, note=51, velocity=110, time=0),
    Message('note_on', channel=9, note=70, velocity=110, time=0),
    Message('note_off', channel=9, note=51, velocity=110, time=24),
    Message('note_off', channel=9, note=42, velocity=91, time=6),
    Message('note_off', channel=9, note=36, velocity=75, time=4),
    Message('note_off', channel=9, note=70, velocity=110, time=3),
    Message('note_on', channel=9, note=40, velocity=73, time=11),
    Message('note_on', channel=9, note=70, velocity=95, time=0),
    Message('note_off', channel=9, note=70, velocity=95, time=29),
    Message('note_off', channel=9, note=38, velocity=127, time=5),
    Message('note_on', channel=9, note=42, velocity=91, time=14),
    Message('note_on', channel=9, note=51, velocity=104, time=0),
    Message('note_on', channel=9, note=70, velocity=95, time=0),
    Message('note_off', channel=9, note=40, velocity=73, time=20),
    Message('note_off', channel=9, note=51, velocity=104, time=4),
    Message('note_off', channel=9, note=70, velocity=95, time=7),
    Message('note_off', channel=9, note=42, velocity=91, time=3),
    Message('note_on', channel=9, note=70, velocity=104, time=14),
    Message('note_off', channel=9, note=70, velocity=104, time=23),
    Message('note_on', channel=9, note=36, velocity=127, time=25),
    Message('note_on', channel=9, note=42, velocity=127, time=0),
    Message('note_on', channel=9, note=51, velocity=110, time=0),
    Message('note_on', channel=9, note=70, velocity=110, time=0),
    Message('note_off', channel=9, note=51, velocity=110, time=28),
    Message('note_off', channel=9, note=70, velocity=110, time=4),
    Message('note_off', channel=9, note=42, velocity=127, time=0),
    Message('note_on', channel=9, note=36, velocity=81, time=16),
    Message('note_on', channel=9, note=70, velocity=87, time=0),
    Message('note_off', channel=9, note=70, velocity=87, time=22),
    Message('note_off', channel=9, note=36, velocity=81, time=1),
    Message('note_off', channel=9, note=36, velocity=127, time=25),
    Message('note_on', channel=9, note=36, velocity=67, time=0),
    Message('note_on', channel=9, note=42, velocity=65, time=0),
    Message('note_on', channel=9, note=51, velocity=91, time=0),
    Message('note_on', channel=9, note=70, velocity=76, time=0),
    Message('note_off', channel=9, note=51, velocity=91, time=20),
    Message('note_off', channel=9, note=36, velocity=67, time=4),
    Message('note_off', channel=9, note=70, velocity=76, time=6),
    Message('note_off', channel=9, note=42, velocity=65, time=0),
    Message('note_on', channel=9, note=36, velocity=68, time=18),
    Message('note_on', channel=9, note=70, velocity=83, time=0),
    Message('note_off', channel=9, note=70, velocity=83, time=28),
    Message('note_off', channel=9, note=36, velocity=68, time=0),
    Message('note_on', channel=9, note=36, velocity=77, time=20),
    Message('note_on', channel=9, note=38, velocity=127, time=0),
    Message('note_on', channel=9, note=42, velocity=110, time=0),
    Message('note_on', channel=9, note=51, velocity=110, time=0),
    Message('note_on', channel=9, note=70, velocity=95, time=0),
    Message('note_off', channel=9, note=36, velocity=77, time=19),
    Message('note_off', channel=9, note=51, velocity=110, time=7),
    Message('note_off', channel=9, note=70, velocity=95, time=3),
    Message('note_off', channel=9, note=42, velocity=110, time=6),
    Message('note_on', channel=9, note=40, velocity=73, time=13),
    Message('note_on', channel=9, note=70, velocity=71, time=0),
    Message('note_off', channel=9, note=70, velocity=71, time=27),
    Message('note_off', channel=9, note=38, velocity=127, time=11),
    Message('note_on', channel=9, note=36, velocity=104, time=10),
    Message('note_on', channel=9, note=42, velocity=83, time=0),
    Message('note_on', channel=9, note=51, velocity=104, time=0),
    Message('note_on', channel=9, note=70, velocity=87, time=0),
    Message('note_off', channel=9, note=40, velocity=73, time=22),
    Message('note_off', channel=9, note=51, velocity=104, time=4),
    Message('note_off', channel=9, note=70, velocity=87, time=6),
    Message('note_off', channel=9, note=36, velocity=104, time=2),
    Message('note_off', channel=9, note=42, velocity=83, time=2),
    Message('note_on', channel=9, note=70, velocity=80, time=12),
    Message('note_off', channel=9, note=70, velocity=80, time=27),
    Message('note_on', channel=9, note=36, velocity=122, time=21),
    Message('note_on', channel=9, note=42, velocity=127, time=0),
    Message('note_on', channel=9, note=51, velocity=110, time=0),
    Message('note_on', channel=9, note=70, velocity=95, time=0),
    Message('note_off', channel=9, note=51, velocity=110, time=27),
    Message('note_off', channel=9, note=70, velocity=95, time=5),
    Message('note_off', channel=9, note=42, velocity=127, time=1),
    Message('note_off', channel=9, note=36, velocity=122, time=8),
    Message('note_on', channel=9, note=36, velocity=77, time=7),
    Message('note_on', channel=9, note=70, velocity=76, time=0),
    Message('note_off', channel=9, note=36, velocity=77, time=25),
    Message('note_off', channel=9, note=70, velocity=76, time=1),
    Message('note_on', channel=9, note=36, velocity=71, time=22),
    Message('note_on', channel=9, note=42, velocity=51, time=0),
    Message('note_on', channel=9, note=51, velocity=104, time=0),
    Message('note_on', channel=9, note=70, velocity=91, time=0),
    Message('note_off', channel=9, note=51, velocity=104, time=25),
    Message('note_off', channel=9, note=70, velocity=91, time=2),
    Message('note_off', channel=9, note=42, velocity=51, time=2),
    Message('note_off', channel=9, note=36, velocity=71, time=1),
    Message('note_on', channel=9, note=36, velocity=64, time=18),
    Message('note_on', channel=9, note=70, velocity=95, time=0),
    Message('note_off', channel=9, note=70, velocity=95, time=27),
    Message('note_off', channel=9, note=36, velocity=64, time=0),
    Message('note_on', channel=9, note=36, velocity=75, time=21),
    Message('note_on', channel=9, note=38, velocity=127, time=0),
    Message('note_on', channel=9, note=42, velocity=91, time=0),
    Message('note_on', channel=9, note=51, velocity=110, time=0),
    Message('note_on', channel=9, note=70, velocity=110, time=0),
    Message('note_off', channel=9, note=51, velocity=110, time=26),
    Message('note_off', channel=9, note=42, velocity=91, time=4),
    Message('note_off', channel=9, note=36, velocity=75, time=4),
    Message('note_off', channel=9, note=70, velocity=110, time=3),
    Message('note_on', channel=9, note=40, velocity=73, time=11),
    Message('note_on', channel=9, note=70, velocity=95, time=0),
    Message('note_off', channel=9, note=70, velocity=95, time=29),
    Message('note_off', channel=9, note=38, velocity=127, time=5),
    Message('note_on', channel=9, note=42, velocity=91, time=14),
    Message('note_on', channel=9, note=51, velocity=104, time=0),
    Message('note_on', channel=9, note=70, velocity=95, time=0),
    Message('note_off', channel=9, note=51, velocity=104, time=20),
    Message('note_off', channel=9, note=40, velocity=73, time=0),
    Message('note_off', channel=9, note=70, velocity=95, time=11),
    Message('note_off', channel=9, note=42, velocity=91, time=3),
    Message('note_on', channel=9, note=70, velocity=104, time=14),
    Message('note_off', channel=9, note=70, velocity=104, time=23),
    Message('note_on', channel=9, note=36, velocity=127, time=25),
    Message('note_on', channel=9, note=42, velocity=127, time=0),
    Message('note_on', channel=9, note=51, velocity=127, time=0),
    Message('note_on', channel=9, note=70, velocity=110, time=0),
    Message('note_off', channel=9, note=51, velocity=127, time=25),
    Message('note_off', channel=9, note=70, velocity=110, time=7),
    Message('note_off', channel=9, note=42, velocity=127, time=0),
    Message('note_on', channel=9, note=36, velocity=81, time=16),
    Message('note_on', channel=9, note=70, velocity=87, time=0),
    Message('note_off', channel=9, note=70, velocity=87, time=22),
    Message('note_off', channel=9, note=36, velocity=81, time=1),
    Message('note_off', channel=9, note=36, velocity=127, time=25),
    Message('note_on', channel=9, note=36, velocity=67, time=0),
    Message('note_on', channel=9, note=42, velocity=65, time=0),
    Message('note_on', channel=9, note=51, velocity=110, time=0),
    Message('note_on', channel=9, note=70, velocity=76, time=0),
    Message('note_off', channel=9, note=51, velocity=110, time=21),
    Message('note_off', channel=9, note=36, velocity=67, time=3),
    Message('note_off', channel=9, note=70, velocity=76, time=6),
    Message('note_off', channel=9, note=42, velocity=65, time=0),
    Message('note_on', channel=9, note=36, velocity=68, time=18),
    Message('note_on', channel=9, note=70, velocity=83, time=0),
    Message('note_off', channel=9, note=70, velocity=83, time=28),
    Message('note_off', channel=9, note=36, velocity=68, time=0),
    Message('note_on', channel=9, note=36, velocity=77, time=20),
    Message('note_on', channel=9, note=38, velocity=127, time=0),
    Message('note_on', channel=9, note=42, velocity=110, time=0),
    Message('note_on', channel=9, note=51, velocity=110, time=0),
    Message('note_on', channel=9, note=70, velocity=95, time=0),
    Message('note_off', channel=9, note=36, velocity=77, time=19),
    Message('note_off', channel=9, note=51, velocity=110, time=6),
    Message('note_off', channel=9, note=70, velocity=95, time=4),
    Message('note_off', channel=9, note=42, velocity=110, time=6),
    Message('note_on', channel=9, note=40, velocity=73, time=13),
    Message('note_on', channel=9, note=70, velocity=71, time=0),
    Message('note_off', channel=9, note=70, velocity=71, time=27),
    Message('note_off', channel=9, note=38, velocity=127, time=11),
    Message('note_on', channel=9, note=36, velocity=104, time=10),
    Message('note_on', channel=9, note=42, velocity=83, time=0),
    Message('note_on', channel=9, note=51, velocity=104, time=0),
    Message('note_on', channel=9, note=70, velocity=87, time=0),
    Message('note_off', channel=9, note=51, velocity=104, time=20),
    Message('note_off', channel=9, note=40, velocity=73, time=2),
    Message('note_off', channel=9, note=70, velocity=87, time=10),
    Message('note_off', channel=9, note=36, velocity=104, time=2),
    Message('note_off', channel=9, note=42, velocity=83, time=2),
    Message('note_on', channel=9, note=70, velocity=80, time=12),
    Message('note_off', channel=9, note=70, velocity=80, time=27),
    Message('note_on', channel=9, note=36, velocity=122, time=21),
    Message('note_on', channel=9, note=42, velocity=127, time=0),
    Message('note_on', channel=9, note=51, velocity=127, time=0),
    Message('note_on', channel=9, note=70, velocity=95, time=0),
    Message('note_off', channel=9, note=51, velocity=127, time=27),
    Message('note_off', channel=9, note=70, velocity=95, time=5),
    Message('note_off', channel=9, note=42, velocity=127, time=1),
    Message('note_off', channel=9, note=36, velocity=122, time=8),
    Message('note_on', channel=9, note=36, velocity=77, time=7),
    Message('note_on', channel=9, note=70, velocity=76, time=0),
    Message('note_off', channel=9, note=36, velocity=77, time=25),
    Message('note_off', channel=9, note=70, velocity=76, time=1),
    Message('note_on', channel=9, note=36, velocity=71, time=22),
    Message('note_on', channel=9, note=42, velocity=51, time=0),
    Message('note_on', channel=9, note=51, velocity=91, time=0),
    Message('note_on', channel=9, note=70, velocity=91, time=0),
    Message('note_off', channel=9, note=51, velocity=91, time=18),
    Message('note_off', channel=9, note=70, velocity=91, time=9),
    Message('note_off', channel=9, note=42, velocity=51, time=2),
    Message('note_off', channel=9, note=36, velocity=71, time=1),
    Message('note_on', channel=9, note=36, velocity=64, time=18),
    Message('note_on', channel=9, note=70, velocity=95, time=0),
    Message('note_off', channel=9, note=70, velocity=95, time=27),
    Message('note_off', channel=9, note=36, velocity=64, time=0),
    Message('note_on', channel=9, note=36, velocity=75, time=21),
    Message('note_on', channel=9, note=38, velocity=127, time=0),
    Message('note_on', channel=9, note=42, velocity=91, time=0),
    Message('note_on', channel=9, note=51, velocity=127, time=0),
    Message('note_on', channel=9, note=70, velocity=110, time=0),
    Message('note_off', channel=9, note=51, velocity=127, time=25),
    Message('note_off', channel=9, note=42, velocity=91, time=5),
    Message('note_off', channel=9, note=36, velocity=75, time=4),
    Message('note_off', channel=9, note=70, velocity=110, time=3),
    Message('note_on', channel=9, note=40, velocity=73, time=11),
    Message('note_on', channel=9, note=70, velocity=95, time=0),
    Message('note_off', channel=9, note=70, velocity=95, time=29),
    Message('note_off', channel=9, note=38, velocity=127, time=5),
    Message('note_on', channel=9, note=42, velocity=91, time=14),
    Message('note_on', channel=9, note=51, velocity=100, time=0),
    Message('note_on', channel=9, note=70, velocity=95, time=0),
    Message('note_off', channel=9, note=40, velocity=73, time=20),
    Message('note_off', channel=9, note=51, velocity=100, time=2),
    Message('note_off', channel=9, note=70, velocity=95, time=9),
    Message('note_off', channel=9, note=42, velocity=91, time=3),
    Message('note_on', channel=9, note=70, velocity=104, time=14),
    Message('note_off', channel=9, note=70, velocity=104, time=23),
    Message('note_on', channel=9, note=36, velocity=127, time=25),
    Message('note_on', channel=9, note=42, velocity=127, time=0),
    Message('note_on', channel=9, note=51, velocity=110, time=0),
    Message('note_on', channel=9, note=70, velocity=110, time=0),
    Message('note_off', channel=9, note=51, velocity=110, time=26),
    Message('note_off', channel=9, note=70, velocity=110, time=6),
    Message('note_off', channel=9, note=42, velocity=127, time=0),
    Message('note_on', channel=9, note=36, velocity=81, time=16),
    Message('note_on', channel=9, note=70, velocity=87, time=0),
    Message('note_off', channel=9, note=70, velocity=87, time=22),
    Message('note_off', channel=9, note=36, velocity=81, time=1),
    Message('note_off', channel=9, note=36, velocity=127, time=25),
    Message('note_on', channel=9, note=36, velocity=67, time=0),
    Message('note_on', channel=9, note=42, velocity=65, time=0),
    Message('note_on', channel=9, note=51, velocity=95, time=0),
    Message('note_on', channel=9, note=70, velocity=76, time=0),
    Message('note_off', channel=9, note=51, velocity=95, time=20),
    Message('note_off', channel=9, note=36, velocity=67, time=4),
    Message('note_off', channel=9, note=70, velocity=76, time=6),
    Message('note_off', channel=9, note=42, velocity=65, time=0),
    Message('note_on', channel=9, note=36, velocity=68, time=18),
    Message('note_on', channel=9, note=70, velocity=83, time=0),
    Message('note_off', channel=9, note=70, velocity=83, time=28),
    Message('note_off', channel=9, note=36, velocity=68, time=0),
    Message('note_on', channel=9, note=36, velocity=77, time=20),
    Message('note_on', channel=9, note=38, velocity=127, time=0),
    Message('note_on', channel=9, note=42, velocity=110, time=0),
    Message('note_on', channel=9, note=51, velocity=110, time=0),
    Message('note_on', channel=9, note=70, velocity=95, time=0),
    Message('note_off', channel=9, note=36, velocity=77, time=19),
    Message('note_off', channel=9, note=51, velocity=110, time=4),
    Message('note_off', channel=9, note=70, velocity=95, time=6),
    Message('note_off', channel=9, note=42, velocity=110, time=6),
    Message('note_on', channel=9, note=40, velocity=73, time=13),
    Message('note_on', channel=9, note=70, velocity=71, time=0),
    Message('note_off', channel=9, note=70, velocity=71, time=27),
    Message('note_off', channel=9, note=38, velocity=127, time=11),
    Message('note_on', channel=9, note=36, velocity=104, time=10),
    Message('note_on', channel=9, note=42, velocity=83, time=0),
    Message('note_on', channel=9, note=51, velocity=95, time=0),
    Message('note_on', channel=9, note=70, velocity=87, time=0),
    Message('note_off', channel=9, note=51, velocity=95, time=20),
    Message('note_off', channel=9, note=40, velocity=73, time=2),
    Message('note_off', channel=9, note=70, velocity=87, time=10),
    Message('note_off', channel=9, note=36, velocity=104, time=2),
    Message('note_off', channel=9, note=42, velocity=83, time=2),
    Message('note_on', channel=9, note=70, velocity=80, time=12),
    Message('note_off', channel=9, note=70, velocity=80, time=27),
    Message('note_on', channel=9, note=36, velocity=122, time=21),
    Message('note_on', channel=9, note=42, velocity=127, time=0),
    Message('note_on', channel=9, note=51, velocity=87, time=0),
    Message('note_on', channel=9, note=70, velocity=95, time=0),
    Message('note_off', channel=9, note=51, velocity=87, time=10),
    Message('note_off', channel=9, note=70, velocity=95, time=22),
    Message('note_off', channel=9, note=42, velocity=127, time=1),
    Message('note_off', channel=9, note=36, velocity=122, time=8),
    Message('note_on', channel=9, note=36, velocity=77, time=7),
    Message('note_on', channel=9, note=70, velocity=76, time=0),
    Message('note_off', channel=9, note=36, velocity=77, time=25),
    Message('note_off', channel=9, note=70, velocity=76, time=1),
    Message('note_on', channel=9, note=36, velocity=71, time=22),
    Message('note_on', channel=9, note=42, velocity=51, time=0),
    Message('note_on', channel=9, note=70, velocity=91, time=0),
    Message('note_off', channel=9, note=70, velocity=91, time=27),
    Message('note_off', channel=9, note=42, velocity=51, time=2),
    Message('note_off', channel=9, note=36, velocity=71, time=1),
    Message('note_on', channel=9, note=36, velocity=64, time=18),
    Message('note_on', channel=9, note=70, velocity=95, time=0),
    Message('note_off', channel=9, note=70, velocity=95, time=27),
    Message('note_off', channel=9, note=36, velocity=64, time=0),
    Message('note_on', channel=9, note=36, velocity=75, time=21),
    Message('note_on', channel=9, note=38, velocity=127, time=0),
    Message('note_on', channel=9, note=42, velocity=91, time=0),
    Message('note_on', channel=9, note=51, velocity=95, time=0),
    Message('note_on', channel=9, note=70, velocity=110, time=0),
    Message('note_off', channel=9, note=51, velocity=95, time=18),
    Message('note_off', channel=9, note=42, velocity=91, time=12),
    Message('note_off', channel=9, note=36, velocity=75, time=4),
    Message('note_off', channel=9, note=70, velocity=110, time=3),
    Message('note_on', channel=9, note=40, velocity=73, time=11),
    Message('note_on', channel=9, note=70, velocity=95, time=0),
    Message('note_off', channel=9, note=70, velocity=95, time=29),
    Message('note_off', channel=9, note=38, velocity=127, time=5),
    Message('note_on', channel=9, note=42, velocity=91, time=14),
    Message('note_on', channel=9, note=51, velocity=95, time=0),
    Message('note_on', channel=9, note=70, velocity=95, time=0),
    Message('note_off', channel=9, note=51, velocity=95, time=19),
    Message('note_off', channel=9, note=40, velocity=73, time=1),
    Message('note_off', channel=9, note=70, velocity=95, time=11),
    Message('note_off', channel=9, note=42, velocity=91, time=3),
    Message('note_on', channel=9, note=70, velocity=104, time=14),
    Message('note_off', channel=9, note=70, velocity=104, time=23),
    Message('note_on', channel=9, note=36, velocity=127, time=25),
    Message('note_on', channel=9, note=42, velocity=127, time=0),
    Message('note_on', channel=9, note=51, velocity=100, time=0),
    Message('note_on', channel=9, note=70, velocity=110, time=0),
    Message('note_off', channel=9, note=51, velocity=100, time=20),
    Message('note_off', channel=9, note=70, velocity=110, time=12),
    Message('note_off', channel=9, note=42, velocity=127, time=0),
    Message('note_on', channel=9, note=36, velocity=81, time=16),
    Message('note_on', channel=9, note=70, velocity=87, time=0),
    Message('note_off', channel=9, note=70, velocity=87, time=22),
    Message('note_off', channel=9, note=36, velocity=81, time=1),
    Message('note_off', channel=9, note=36, velocity=127, time=25),
    Message('note_on', channel=9, note=36, velocity=67, time=0),
    Message('note_on', channel=9, note=70, velocity=76, time=0),
    Message('note_off', channel=9, note=36, velocity=67, time=24),
    Message('note_off', channel=9, note=70, velocity=76, time=6),
    Message('note_on', channel=9, note=36, velocity=68, time=18),
    Message('note_on', channel=9, note=42, velocity=65, time=0),
    Message('note_on', channel=9, note=70, velocity=83, time=0),
    Message('note_off', channel=9, note=70, velocity=83, time=28),
    Message('note_off', channel=9, note=36, velocity=68, time=0),
    Message('note_off', channel=9, note=42, velocity=65, time=2),
    Message('note_on', channel=9, note=36, velocity=77, time=18),
    Message('note_on', channel=9, note=38, velocity=127, time=0),
    Message('note_on', channel=9, note=42, velocity=110, time=0),
    Message('note_on', channel=9, note=51, velocity=104, time=0),
    Message('note_on', channel=9, note=70, velocity=95, time=0),
    Message('note_off', channel=9, note=36, velocity=77, time=19),
    Message('note_off', channel=9, note=51, velocity=104, time=3),
    Message('note_off', channel=9, note=70, velocity=95, time=7),
    Message('note_off', channel=9, note=42, velocity=110, time=6),
    Message('note_on', channel=9, note=40, velocity=73, time=13),
    Message('note_on', channel=9, note=70, velocity=71, time=0),
    Message('note_off', channel=9, note=70, velocity=71, time=27),
    Message('note_off', channel=9, note=38, velocity=127, time=11),
    Message('note_on', channel=9, note=36, velocity=104, time=10),
    Message('note_on', channel=9, note=42, velocity=83, time=0),
    Message('note_on', channel=9, note=51, velocity=100, time=0),
    Message('note_on', channel=9, note=70, velocity=87, time=0),
    Message('note_off', channel=9, note=51, velocity=100, time=22),
    Message('note_off', channel=9, note=40, velocity=73, time=0),
    Message('note_off', channel=9, note=70, velocity=87, time=10),
    Message('note_off', channel=9, note=36, velocity=104, time=2),
    Message('note_off', channel=9, note=42, velocity=83, time=2),
    Message('note_on', channel=9, note=70, velocity=80, time=12),
    Message('note_off', channel=9, note=70, velocity=80, time=27),
    Message('note_on', channel=9, note=36, velocity=122, time=21),
    Message('note_on', channel=9, note=42, velocity=127, time=0),
    Message('note_on', channel=9, note=51, velocity=95, time=0),
    Message('note_on', channel=9, note=70, velocity=95, time=0),
    Message('note_off', channel=9, note=51, velocity=95, time=22),
    Message('note_off', channel=9, note=70, velocity=95, time=10),
    Message('note_off', channel=9, note=42, velocity=127, time=1),
    Message('note_off', channel=9, note=36, velocity=122, time=8),
    Message('note_on', channel=9, note=36, velocity=77, time=7),
    Message('note_on', channel=9, note=70, velocity=76, time=0),
    Message('note_off', channel=9, note=36, velocity=77, time=25),
    Message('note_off', channel=9, note=70, velocity=76, time=1),
    Message('note_on', channel=9, note=36, velocity=71, time=22),
    Message('note_on', channel=9, note=42, velocity=51, time=0),
    Message('note_on', channel=9, note=51, velocity=100, time=0),
    Message('note_on', channel=9, note=70, velocity=91, time=0),
    Message('note_off', channel=9, note=51, velocity=100, time=20),
    Message('note_off', channel=9, note=70, velocity=91, time=7),
    Message('note_off', channel=9, note=42, velocity=51, time=2),
    Message('note_off', channel=9, note=36, velocity=71, time=1),
    Message('note_on', channel=9, note=36, velocity=64, time=18),
    Message('note_on', channel=9, note=70, velocity=95, time=0),
    Message('note_off', channel=9, note=70, velocity=95, time=27),
    Message('note_off', channel=9, note=36, velocity=64, time=0),
    Message('note_on', channel=9, note=36, velocity=75, time=21),
    Message('note_on', channel=9, note=38, velocity=127, time=0),
    Message('note_on', channel=9, note=42, velocity=91, time=0),
    Message('note_on', channel=9, note=51, velocity=110, time=0),
    Message('note_on', channel=9, note=70, velocity=110, time=0),
    Message('note_off', channel=9, note=51, velocity=110, time=29),
    Message('note_off', channel=9, note=42, velocity=91, time=1),
    Message('note_off', channel=9, note=36, velocity=75, time=4),
    Message('note_off', channel=9, note=70, velocity=110, time=3),
    Message('note_on', channel=9, note=40, velocity=73, time=11),
    Message('note_on', channel=9, note=70, velocity=95, time=0),
    Message('note_off', channel=9, note=70, velocity=95, time=29),
    Message('note_off', channel=9, note=38, velocity=127, time=5),
    Message('note_on', channel=9, note=42, velocity=91, time=14),
    Message('note_on', channel=9, note=51, velocity=91, time=0),
    Message('note_on', channel=9, note=70, velocity=95, time=0),
    Message('note_off', channel=9, note=40, velocity=73, time=20),
    Message('note_off', channel=9, note=51, velocity=91, time=1),
    Message('note_off', channel=9, note=70, velocity=95, time=10),
    Message('note_off', channel=9, note=42, velocity=91, time=3),
    Message('note_on', channel=9, note=70, velocity=104, time=14),
    Message('note_off', channel=9, note=70, velocity=104, time=23),
    Message('note_on', channel=9, note=36, velocity=127, time=25),
    Message('note_on', channel=9, note=42, velocity=127, time=0),
    Message('note_on', channel=9, note=51, velocity=110, time=0),
    Message('note_on', channel=9, note=70, velocity=110, time=0),
    Message('note_off', channel=9, note=51, velocity=110, time=22),
    Message('note_off', channel=9, note=70, velocity=110, time=10),
    Message('note_off', channel=9, note=42, velocity=127, time=0),
    Message('note_on', channel=9, note=36, velocity=81, time=16),
    Message('note_on', channel=9, note=70, velocity=87, time=0),
    Message('note_off', channel=9, note=70, velocity=87, time=22),
    Message('note_off', channel=9, note=36, velocity=81, time=1),
    Message('note_off', channel=9, note=36, velocity=127, time=25),
    Message('note_on', channel=9, note=36, velocity=67, time=0),
    Message('note_on', channel=9, note=42, velocity=65, time=0),
    Message('note_on', channel=9, note=51, velocity=100, time=0),
    Message('note_on', channel=9, note=70, velocity=76, time=0),
    Message('note_off', channel=9, note=51, velocity=100, time=18),
    Message('note_off', channel=9, note=36, velocity=67, time=6),
    Message('note_off', channel=9, note=70, velocity=76, time=6),
    Message('note_off', channel=9, note=42, velocity=65, time=0),
    Message('note_on', channel=9, note=36, velocity=68, time=18),
    Message('note_on', channel=9, note=70, velocity=83, time=0),
    Message('note_off', channel=9, note=70, velocity=83, time=28),
    Message('note_off', channel=9, note=36, velocity=68, time=0),
    Message('note_on', channel=9, note=36, velocity=77, time=20),
    Message('note_on', channel=9, note=38, velocity=127, time=0),
    Message('note_on', channel=9, note=42, velocity=110, time=0),
    Message('note_on', channel=9, note=51, velocity=104, time=0),
    Message('note_on', channel=9, note=70, velocity=95, time=0),
    Message('note_off', channel=9, note=36, velocity=77, time=19),
    Message('note_off', channel=9, note=51, velocity=104, time=5),
    Message('note_off', channel=9, note=70, velocity=95, time=5),
    Message('note_off', channel=9, note=42, velocity=110, time=6),
    Message('note_on', channel=9, note=40, velocity=73, time=13),
    Message('note_on', channel=9, note=70, velocity=71, time=0),
    Message('note_off', channel=9, note=70, velocity=71, time=27),
    Message('note_off', channel=9, note=38, velocity=127, time=11),
    Message('note_on', channel=9, note=36, velocity=104, time=10),
    Message('note_on', channel=9, note=42, velocity=83, time=0),
    Message('note_on', channel=9, note=51, velocity=100, time=0),
    Message('note_on', channel=9, note=70, velocity=87, time=0),
    Message('note_off', channel=9, note=40, velocity=73, time=22),
    Message('note_off', channel=9, note=51, velocity=100, time=1),
    Message('note_off', channel=9, note=70, velocity=87, time=9),
    Message('note_off', channel=9, note=36, velocity=104, time=2),
    Message('note_off', channel=9, note=42, velocity=83, time=2),
    Message('note_on', channel=9, note=70, velocity=80, time=12),
    Message('note_off', channel=9, note=70, velocity=80, time=27),
    Message('note_on', channel=9, note=36, velocity=122, time=21),
    Message('note_on', channel=9, note=42, velocity=127, time=0),
    Message('note_on', channel=9, note=51, velocity=104, time=0),
    Message('note_on', channel=9, note=70, velocity=95, time=0),
    Message('note_off', channel=9, note=51, velocity=104, time=24),
    Message('note_off', channel=9, note=70, velocity=95, time=8),
    Message('note_off', channel=9, note=42, velocity=127, time=1),
    Message('note_off', channel=9, note=36, velocity=122, time=8),
    Message('note_on', channel=9, note=36, velocity=77, time=7),
    Message('note_on', channel=9, note=70, velocity=76, time=0),
    Message('note_off', channel=9, note=36, velocity=77, time=25),
    Message('note_off', channel=9, note=70, velocity=76, time=1),
    Message('note_on', channel=9, note=36, velocity=71, time=22),
    Message('note_on', channel=9, note=42, velocity=51, time=0),
    Message('note_on', channel=9, note=51, velocity=104, time=0),
    Message('note_on', channel=9, note=70, velocity=91, time=0),
    Message('note_off', channel=9, note=51, velocity=104, time=23),
    Message('note_off', channel=9, note=70, velocity=91, time=4),
    Message('note_off', channel=9, note=42, velocity=51, time=2),
    Message('note_off', channel=9, note=36, velocity=71, time=1),
    Message('note_on', channel=9, note=36, velocity=64, time=18),
    Message('note_on', channel=9, note=70, velocity=95, time=0),
    Message('note_off', channel=9, note=70, velocity=95, time=27),
    Message('note_off', channel=9, note=36, velocity=64, time=0),
    Message('note_on', channel=9, note=36, velocity=75, time=21),
    Message('note_on', channel=9, note=38, velocity=127, time=0),
    Message('note_on', channel=9, note=42, velocity=91, time=0),
    Message('note_on', channel=9, note=51, velocity=104, time=0),
    Message('note_on', channel=9, note=70, velocity=110, time=0),
    Message('note_off', channel=9, note=51, velocity=104, time=22),
    Message('note_off', channel=9, note=42, velocity=91, time=8),
    Message('note_off', channel=9, note=36, velocity=75, time=4),
    Message('note_off', channel=9, note=70, velocity=110, time=3),
    Message('note_on', channel=9, note=40, velocity=73, time=11),
    Message('note_on', channel=9, note=70, velocity=95, time=0),
    Message('note_off', channel=9, note=70, velocity=95, time=29),
    Message('note_off', channel=9, note=38, velocity=127, time=5),
    Message('note_on', channel=9, note=42, velocity=91, time=14),
    Message('note_on', channel=9, note=51, velocity=100, time=0),
    Message('note_on', channel=9, note=70, velocity=95, time=0),
    Message('note_off', channel=9, note=51, velocity=100, time=19),
    Message('note_off', channel=9, note=40, velocity=73, time=1),
    Message('note_off', channel=9, note=70, velocity=95, time=11),
    Message('note_off', channel=9, note=42, velocity=91, time=3),
    Message('note_on', channel=9, note=70, velocity=104, time=14),
    Message('note_off', channel=9, note=70, velocity=104, time=23),
    Message('note_on', channel=9, note=36, velocity=127, time=25),
    Message('note_on', channel=9, note=42, velocity=127, time=0),
    Message('note_on', channel=9, note=51, velocity=104, time=0),
    Message('note_on', channel=9, note=70, velocity=110, time=0),
    Message('note_off', channel=9, note=51, velocity=104, time=24),
    Message('note_off', channel=9, note=70, velocity=110, time=8),
    Message('note_off', channel=9, note=42, velocity=127, time=0),
    Message('note_on', channel=9, note=36, velocity=81, time=16),
    Message('note_on', channel=9, note=70, velocity=87, time=0),
    Message('note_off', channel=9, note=70, velocity=87, time=22),
    Message('note_off', channel=9, note=36, velocity=81, time=1),
    Message('note_off', channel=9, note=36, velocity=127, time=25),
    Message('note_on', channel=9, note=36, velocity=67, time=0),
    Message('note_on', channel=9, note=42, velocity=65, time=0),
    Message('note_on', channel=9, note=51, velocity=100, time=0),
    Message('note_on', channel=9, note=70, velocity=76, time=0),
    Message('note_off', channel=9, note=51, velocity=100, time=19),
    Message('note_off', channel=9, note=36, velocity=67, time=5),
    Message('note_off', channel=9, note=70, velocity=76, time=6),
    Message('note_off', channel=9, note=42, velocity=65, time=0),
    Message('note_on', channel=9, note=36, velocity=68, time=18),
    Message('note_on', channel=9, note=70, velocity=83, time=0),
    Message('note_off', channel=9, note=70, velocity=83, time=28),
    Message('note_off', channel=9, note=36, velocity=68, time=0),
    Message('note_on', channel=9, note=36, velocity=77, time=20),
    Message('note_on', channel=9, note=38, velocity=127, time=0),
    Message('note_on', channel=9, note=42, velocity=110, time=0),
    Message('note_on', channel=9, note=51, velocity=110, time=0),
    Message('note_on', channel=9, note=70, velocity=95, time=0),
    Message('note_off', channel=9, note=36, velocity=77, time=19),
    Message('note_off', channel=9, note=51, velocity=110, time=7),
    Message('note_off', channel=9, note=70, velocity=95, time=3),
    Message('note_off', channel=9, note=42, velocity=110, time=6),
    Message('note_on', channel=9, note=40, velocity=73, time=13),
    Message('note_on', channel=9, note=70, velocity=71, time=0),
    Message('note_off', channel=9, note=70, velocity=71, time=27),
    Message('note_off', channel=9, note=38, velocity=127, time=11),
    Message('note_on', channel=9, note=36, velocity=104, time=10),
    Message('note_on', channel=9, note=42, velocity=83, time=0),
    Message('note_on', channel=9, note=51, velocity=95, time=0),
    Message('note_on', channel=9, note=70, velocity=87, time=0),
    Message('note_off', channel=9, note=51, velocity=95, time=19),
    Message('note_off', channel=9, note=40, velocity=73, time=3),
    Message('note_off', channel=9, note=70, velocity=87, time=10),
    Message('note_off', channel=9, note=36, velocity=104, time=2),
    Message('note_off', channel=9, note=42, velocity=83, time=2),
    Message('note_on', channel=9, note=70, velocity=80, time=12),
    Message('note_off', channel=9, note=70, velocity=80, time=27),
    Message('note_on', channel=9, note=36, velocity=122, time=21),
    Message('note_on', channel=9, note=42, velocity=127, time=0),
    Message('note_on', channel=9, note=51, velocity=100, time=0),
    Message('note_on', channel=9, note=70, velocity=95, time=0),
    Message('note_off', channel=9, note=51, velocity=100, time=22),
    Message('note_off', channel=9, note=70, velocity=95, time=10),
    Message('note_off', channel=9, note=42, velocity=127, time=1),
    Message('note_off', channel=9, note=36, velocity=122, time=8),
    Message('note_on', channel=9, note=36, velocity=77, time=7),
    Message('note_on', channel=9, note=70, velocity=76, time=0),
    Message('note_off', channel=9, note=36, velocity=77, time=25),
    Message('note_off', channel=9, note=70, velocity=76, time=1),
    Message('note_on', channel=9, note=36, velocity=71, time=22),
    Message('note_on', channel=9, note=42, velocity=51, time=0),
    Message('note_on', channel=9, note=51, velocity=95, time=0),
    Message('note_on', channel=9, note=70, velocity=91, time=0),
    Message('note_off', channel=9, note=51, velocity=95, time=16),
    Message('note_off', channel=9, note=70, velocity=91, time=11),
    Message('note_off', channel=9, note=42, velocity=51, time=2),
    Message('note_off', channel=9, note=36, velocity=71, time=1),
    Message('note_on', channel=9, note=36, velocity=64, time=18),
    Message('note_on', channel=9, note=70, velocity=95, time=0),
    Message('note_off', channel=9, note=70, velocity=95, time=27),
    Message('note_off', channel=9, note=36, velocity=64, time=0),
    Message('note_on', channel=9, note=36, velocity=75, time=21),
    Message('note_on', channel=9, note=38, velocity=127, time=0),
    Message('note_on', channel=9, note=42, velocity=91, time=0),
    Message('note_on', channel=9, note=51, velocity=110, time=0),
    Message('note_on', channel=9, note=70, velocity=110, time=0),
    Message('note_off', channel=9, note=51, velocity=110, time=24),
    Message('note_off', channel=9, note=42, velocity=91, time=6),
    Message('note_off', channel=9, note=36, velocity=75, time=4),
    Message('note_off', channel=9, note=70, velocity=110, time=3),
    Message('note_on', channel=9, note=40, velocity=73, time=11),
    Message('note_on', channel=9, note=70, velocity=95, time=0),
    Message('note_off', channel=9, note=70, velocity=95, time=29),
    Message('note_off', channel=9, note=38, velocity=127, time=5),
    Message('note_on', channel=9, note=42, velocity=91, time=14),
    Message('note_on', channel=9, note=51, velocity=95, time=0),
    Message('note_on', channel=9, note=70, velocity=95, time=0),
    Message('note_off', channel=9, note=51, velocity=95, time=16),
    Message('note_off', channel=9, note=40, velocity=73, time=4),
    Message('note_off', channel=9, note=70, velocity=95, time=11),
    Message('note_off', channel=9, note=42, velocity=91, time=3),
    Message('note_on', channel=9, note=70, velocity=104, time=14),
    Message('note_off', channel=9, note=70, velocity=104, time=23),
    Message('note_on', channel=9, note=36, velocity=127, time=25),
    Message('note_on', channel=9, note=42, velocity=127, time=0),
    Message('note_on', channel=9, note=51, velocity=110, time=0),
    Message('note_on', channel=9, note=70, velocity=110, time=0),
    Message('note_off', channel=9, note=51, velocity=110, time=25),
    Message('note_off', channel=9, note=70, velocity=110, time=7),
    Message('note_off', channel=9, note=42, velocity=127, time=0),
    Message('note_on', channel=9, note=36, velocity=81, time=16),
    Message('note_on', channel=9, note=70, velocity=87, time=0),
    Message('note_off', channel=9, note=70, velocity=87, time=22),
    Message('note_off', channel=9, note=36, velocity=81, time=1),
    Message('note_off', channel=9, note=36, velocity=127, time=25),
    Message('note_on', channel=9, note=36, velocity=67, time=0),
    Message('note_on', channel=9, note=42, velocity=65, time=0),
    Message('note_on', channel=9, note=51, velocity=95, time=0),
    Message('note_on', channel=9, note=70, velocity=76, time=0),
    Message('note_off', channel=9, note=51, velocity=95, time=15),
    Message('note_off', channel=9, note=36, velocity=67, time=9),
    Message('note_off', channel=9, note=70, velocity=76, time=6),
    Message('note_off', channel=9, note=42, velocity=65, time=0),
    Message('note_on', channel=9, note=36, velocity=68, time=18),
    Message('note_on', channel=9, note=70, velocity=83, time=0),
    Message('note_off', channel=9, note=70, velocity=83, time=28),
    Message('note_off', channel=9, note=36, velocity=68, time=0),
    Message('note_on', channel=9, note=36, velocity=77, time=20),
    Message('note_on', channel=9, note=38, velocity=127, time=0),
    Message('note_on', channel=9, note=42, velocity=110, time=0),
    Message('note_on', channel=9, note=51, velocity=127, time=0),
    Message('note_on', channel=9, note=70, velocity=95, time=0),
    Message('note_off', channel=9, note=36, velocity=77, time=19),
    Message('note_off', channel=9, note=51, velocity=127, time=6),
    Message('note_off', channel=9, note=70, velocity=95, time=4),
    Message('note_off', channel=9, note=42, velocity=110, time=6),
    Message('note_on', channel=9, note=40, velocity=73, time=13),
    Message('note_on', channel=9, note=70, velocity=71, time=0),
    Message('note_off', channel=9, note=70, velocity=71, time=27),
    Message('note_off', channel=9, note=38, velocity=127, time=11),
    Message('note_on', channel=9, note=36, velocity=104, time=10),
    Message('note_on', channel=9, note=42, velocity=83, time=0),
    Message('note_on', channel=9, note=51, velocity=104, time=0),
    Message('note_on', channel=9, note=70, velocity=87, time=0),
    Message('note_off', channel=9, note=40, velocity=73, time=22),
    Message('note_off', channel=9, note=51, velocity=104, time=1),
    Message('note_off', channel=9, note=70, velocity=87, time=9),
    Message('note_off', channel=9, note=36, velocity=104, time=2),
    Message('note_off', channel=9, note=42, velocity=83, time=2),
    Message('note_on', channel=9, note=70, velocity=80, time=12),
    Message('note_off', channel=9, note=70, velocity=80, time=27),
    Message('note_on', channel=9, note=36, velocity=122, time=21),
    Message('note_on', channel=9, note=42, velocity=127, time=0),
    Message('note_on', channel=9, note=51, velocity=110, time=0),
    Message('note_on', channel=9, note=70, velocity=95, time=0),
    Message('note_off', channel=9, note=51, velocity=110, time=23),
    Message('note_off', channel=9, note=70, velocity=95, time=9),
    Message('note_off', channel=9, note=42, velocity=127, time=1),
    Message('note_off', channel=9, note=36, velocity=122, time=8),
    Message('note_on', channel=9, note=36, velocity=77, time=7),
    Message('note_on', channel=9, note=70, velocity=76, time=0),
    Message('note_off', channel=9, note=36, velocity=77, time=25),
    Message('note_off', channel=9, note=70, velocity=76, time=1),
    Message('note_on', channel=9, note=36, velocity=71, time=22),
    Message('note_on', channel=9, note=42, velocity=51, time=0),
    Message('note_on', channel=9, note=51, velocity=104, time=0),
    Message('note_on', channel=9, note=70, velocity=91, time=0),
    Message('note_off', channel=9, note=51, velocity=104, time=24),
    Message('note_off', channel=9, note=70, velocity=91, time=3),
    Message('note_off', channel=9, note=42, velocity=51, time=2),
    Message('note_off', channel=9, note=36, velocity=71, time=1),
    Message('note_on', channel=9, note=36, velocity=64, time=18),
    Message('note_on', channel=9, note=70, velocity=95, time=0),
    Message('note_off', channel=9, note=70, velocity=95, time=27),
    Message('note_off', channel=9, note=36, velocity=64, time=0),
    Message('note_on', channel=9, note=36, velocity=75, time=21),
    Message('note_on', channel=9, note=38, velocity=127, time=0),
    Message('note_on', channel=9, note=42, velocity=91, time=0),
    Message('note_on', channel=9, note=51, velocity=110, time=0),
    Message('note_on', channel=9, note=70, velocity=110, time=0),
    Message('note_off', channel=9, note=51, velocity=110, time=24),
    Message('note_off', channel=9, note=42, velocity=91, time=6),
    Message('note_off', channel=9, note=36, velocity=75, time=4),
    Message('note_off', channel=9, note=70, velocity=110, time=3),
    Message('note_on', channel=9, note=40, velocity=73, time=11),
    Message('note_on', channel=9, note=70, velocity=95, time=0),
    Message('note_off', channel=9, note=70, velocity=95, time=29),
    Message('note_off', channel=9, note=38, velocity=127, time=5),
    Message('note_on', channel=9, note=42, velocity=91, time=14),
    Message('note_on', channel=9, note=51, velocity=100, time=0),
    Message('note_on', channel=9, note=70, velocity=95, time=0),
    Message('note_off', channel=9, note=40, velocity=73, time=20),
    Message('note_off', channel=9, note=51, velocity=100, time=2),
    Message('note_off', channel=9, note=70, velocity=95, time=9),
    Message('note_off', channel=9, note=42, velocity=91, time=3),
    Message('note_on', channel=9, note=70, velocity=104, time=14),
    Message('note_off', channel=9, note=70, velocity=104, time=23),
    Message('note_on', channel=9, note=36, velocity=127, time=25),
    Message('note_on', channel=9, note=42, velocity=127, time=0),
    Message('note_on', channel=9, note=49, velocity=104, time=0),
    Message('note_on', channel=9, note=51, velocity=110, time=0),
    Message('note_on', channel=9, note=70, velocity=110, time=0),
    Message('note_off', channel=9, note=49, velocity=104, time=20),
    Message('note_off', channel=9, note=51, velocity=110, time=3),
    Message('note_off', channel=9, note=70, velocity=110, time=9),
    Message('note_off', channel=9, note=42, velocity=127, time=0),
    Message('note_on', channel=9, note=36, velocity=81, time=16),
    Message('note_on', channel=9, note=70, velocity=87, time=0),
    Message('note_off', channel=9, note=70, velocity=87, time=22),
    Message('note_off', channel=9, note=36, velocity=81, time=1),
    Message('note_off', channel=9, note=36, velocity=127, time=25),
    Message('note_on', channel=9, note=36, velocity=67, time=0),
    Message('note_on', channel=9, note=42, velocity=65, time=0),
    Message('note_on', channel=9, note=51, velocity=91, time=0),
    Message('note_on', channel=9, note=70, velocity=76, time=0),
    Message('note_off', channel=9, note=51, velocity=91, time=24),
    Message('note_off', channel=9, note=36, velocity=67, time=0),
    Message('note_off', channel=9, note=70, velocity=76, time=6),
    Message('note_off', channel=9, note=42, velocity=65, time=0),
    Message('note_on', channel=9, note=36, velocity=68, time=18),
    Message('note_on', channel=9, note=70, velocity=83, time=0),
    Message('note_off', channel=9, note=70, velocity=83, time=28),
    Message('note_off', channel=9, note=36, velocity=68, time=0),
    Message('note_on', channel=9, note=36, velocity=77, time=20),
    Message('note_on', channel=9, note=38, velocity=127, time=0),
    Message('note_on', channel=9, note=42, velocity=110, time=0),
    Message('note_on', channel=9, note=51, velocity=100, time=0),
    Message('note_on', channel=9, note=70, velocity=95, time=0),
    Message('note_off', channel=9, note=36, velocity=77, time=19),
    Message('note_off', channel=9, note=51, velocity=100, time=5),
    Message('note_off', channel=9, note=70, velocity=95, time=5),
    Message('note_off', channel=9, note=42, velocity=110, time=6),
    Message('note_on', channel=9, note=40, velocity=73, time=13),
    Message('note_on', channel=9, note=70, velocity=71, time=0),
    Message('note_off', channel=9, note=70, velocity=71, time=27),
    Message('note_off', channel=9, note=38, velocity=127, time=11),
    Message('note_on', channel=9, note=36, velocity=104, time=10),
    Message('note_on', channel=9, note=42, velocity=83, time=0),
    Message('note_on', channel=9, note=51, velocity=95, time=0),
    Message('note_on', channel=9, note=70, velocity=87, time=0),
    Message('note_off', channel=9, note=51, velocity=95, time=22),
    Message('note_off', channel=9, note=40, velocity=73, time=0),
    Message('note_off', channel=9, note=70, velocity=87, time=10),
    Message('note_off', channel=9, note=36, velocity=104, time=2),
    Message('note_off', channel=9, note=42, velocity=83, time=2),
    Message('note_on', channel=9, note=70, velocity=80, time=12),
    Message('note_off', channel=9, note=70, velocity=80, time=27),
    Message('note_on', channel=9, note=36, velocity=122, time=21),
    Message('note_on', channel=9, note=42, velocity=127, time=0),
    Message('note_on', channel=9, note=70, velocity=95, time=0),
    Message('note_off', channel=9, note=70, velocity=95, time=32),
    Message('note_off', channel=9, note=42, velocity=127, time=1),
    Message('note_off', channel=9, note=36, velocity=122, time=8),
    Message('note_on', channel=9, note=36, velocity=77, time=7),
    Message('note_on', channel=9, note=70, velocity=76, time=0),
    Message('note_off', channel=9, note=36, velocity=77, time=25),
    Message('note_off', channel=9, note=70, velocity=76, time=1),
    Message('note_on', channel=9, note=36, velocity=71, time=22),
    Message('note_on', channel=9, note=42, velocity=51, time=0),
    Message('note_on', channel=9, note=70, velocity=91, time=0),
    Message('note_off', channel=9, note=70, velocity=91, time=27),
    Message('note_off', channel=9, note=42, velocity=51, time=2),
    Message('note_off', channel=9, note=36, velocity=71, time=1),
    Message('note_on', channel=9, note=36, velocity=64, time=18),
    Message('note_on', channel=9, note=70, velocity=95, time=0),
    Message('note_off', channel=9, note=70, velocity=95, time=27),
    Message('note_off', channel=9, note=36, velocity=64, time=0),
    Message('note_on', channel=9, note=36, velocity=75, time=21),
    Message('note_on', channel=9, note=38, velocity=127, time=0),
    Message('note_on', channel=9, note=42, velocity=91, time=0),
    Message('note_on', channel=9, note=70, velocity=110, time=0),
    Message('note_off', channel=9, note=42, velocity=91, time=30),
    Message('note_off', channel=9, note=36, velocity=75, time=4),
    Message('note_off', channel=9, note=70, velocity=110, time=3),
    Message('note_on', channel=9, note=40, velocity=73, time=11),
    Message('note_on', channel=9, note=70, velocity=95, time=0),
    Message('note_off', channel=9, note=70, velocity=95, time=29),
    Message('note_off', channel=9, note=38, velocity=127, time=5),
    Message('note_on', channel=9, note=42, velocity=91, time=14),
    Message('note_on', channel=9, note=70, velocity=95, time=0),
    Message('note_off', channel=9, note=40, velocity=73, time=20),
    Message('note_off', channel=9, note=70, velocity=95, time=11),
    Message('note_off', channel=9, note=42, velocity=91, time=3),
    Message('note_on', channel=9, note=70, velocity=104, time=14),
    Message('note_off', channel=9, note=70, velocity=104, time=23),
    Message('note_on', channel=9, note=36, velocity=127, time=25),
    Message('note_on', channel=9, note=42, velocity=127, time=0),
    Message('note_on', channel=9, note=70, velocity=110, time=0),
    Message('note_off', channel=9, note=70, velocity=110, time=32),
    Message('note_off', channel=9, note=42, velocity=127, time=0),
    Message('note_on', channel=9, note=36, velocity=81, time=16),
    Message('note_on', channel=9, note=70, velocity=87, time=0),
    Message('note_off', channel=9, note=70, velocity=87, time=22),
    Message('note_off', channel=9, note=36, velocity=81, time=1),
    Message('note_off', channel=9, note=36, velocity=127, time=25),
    Message('note_on', channel=9, note=36, velocity=67, time=0),
    Message('note_on', channel=9, note=70, velocity=76, time=0),
    Message('note_off', channel=9, note=36, velocity=67, time=24),
    Message('note_off', channel=9, note=70, velocity=76, time=6),
    Message('note_on', channel=9, note=36, velocity=68, time=18),
    Message('note_on', channel=9, note=42, velocity=65, time=0),
    Message('note_on', channel=9, note=70, velocity=83, time=0),
    Message('note_off', channel=9, note=70, velocity=83, time=28),
    Message('note_off', channel=9, note=36, velocity=68, time=0),
    Message('note_off', channel=9, note=42, velocity=65, time=2),
    Message('note_on', channel=9, note=36, velocity=77, time=18),
    Message('note_on', channel=9, note=38, velocity=127, time=0),
    Message('note_on', channel=9, note=42, velocity=110, time=0),
    Message('note_on', channel=9, note=70, velocity=95, time=0),
    Message('note_off', channel=9, note=36, velocity=77, time=19),
    Message('note_off', channel=9, note=70, velocity=95, time=10),
    Message('note_off', channel=9, note=42, velocity=110, time=6),
    Message('note_on', channel=9, note=40, velocity=73, time=13),
    Message('note_on', channel=9, note=70, velocity=71, time=0),
    Message('note_off', channel=9, note=70, velocity=71, time=27),
    Message('note_off', channel=9, note=38, velocity=127, time=11),
    Message('note_on', channel=9, note=36, velocity=104, time=10),
    Message('note_on', channel=9, note=42, velocity=83, time=0),
    Message('note_on', channel=9, note=70, velocity=87, time=0),
    Message('note_off', channel=9, note=40, velocity=73, time=22),
    Message('note_off', channel=9, note=70, velocity=87, time=10),
    Message('note_off', channel=9, note=36, velocity=104, time=2),
    Message('note_off', channel=9, note=42, velocity=83, time=2),
    Message('note_on', channel=9, note=70, velocity=80, time=12),
    Message('note_off', channel=9, note=70, velocity=80, time=27),
    Message('note_on', channel=9, note=36, velocity=122, time=21),
    Message('note_on', channel=9, note=42, velocity=127, time=0),
    Message('note_on', channel=9, note=70, velocity=95, time=0),
    Message('note_off', channel=9, note=70, velocity=95, time=32),
    Message('note_off', channel=9, note=42, velocity=127, time=1),
    Message('note_off', channel=9, note=36, velocity=122, time=8),
    Message('note_on', channel=9, note=36, velocity=77, time=7),
    Message('note_on', channel=9, note=70, velocity=76, time=0),
    Message('note_off', channel=9, note=36, velocity=77, time=25),
    Message('note_off', channel=9, note=70, velocity=76, time=1),
    Message('note_on', channel=9, note=36, velocity=71, time=22),
    Message('note_on', channel=9, note=42, velocity=51, time=0),
    Message('note_on', channel=9, note=70, velocity=91, time=0),
    Message('note_off', channel=9, note=70, velocity=91, time=27),
    Message('note_off', channel=9, note=42, velocity=51, time=2),
    Message('note_off', channel=9, note=36, velocity=71, time=1),
    Message('note_on', channel=9, note=36, velocity=64, time=18),
    Message('note_on', channel=9, note=70, velocity=95, time=0),
    Message('note_off', channel=9, note=70, velocity=95, time=27),
    Message('note_off', channel=9, note=36, velocity=64, time=0),
    Message('note_on', channel=9, note=36, velocity=75, time=21),
    Message('note_on', channel=9, note=38, velocity=127, time=0),
    Message('note_on', channel=9, note=42, velocity=91, time=0),
    Message('note_on', channel=9, note=70, velocity=110, time=0),
    Message('note_off', channel=9, note=42, velocity=91, time=30),
    Message('note_off', channel=9, note=36, velocity=75, time=4),
    Message('note_off', channel=9, note=70, velocity=110, time=3),
    Message('note_on', channel=9, note=38, velocity=127, time=11),
    Message('note_on', channel=9, note=40, velocity=73, time=0),
    Message('note_on', channel=9, note=70, velocity=95, time=0),
    Message('note_off', channel=9, note=38, velocity=127, time=20),
    Message('note_off', channel=9, note=70, velocity=95, time=9),
    Message('note_off', channel=9, note=38, velocity=127, time=5),
    Message('note_on', channel=9, note=42, velocity=91, time=14),
    Message('note_on', channel=9, note=47, velocity=127, time=0),
    Message('note_on', channel=9, note=70, velocity=95, time=0),
    Message('note_off', channel=9, note=40, velocity=73, time=20),
    Message('note_off', channel=9, note=47, velocity=127, time=8),
    Message('note_off', channel=9, note=70, velocity=95, time=3),
    Message('note_off', channel=9, note=42, velocity=91, time=3),
    Message('note_on', channel=9, note=70, velocity=104, time=14),
    Message('note_off', channel=9, note=70, velocity=104, time=23),
    Message('note_on', channel=9, note=36, velocity=127, time=25),
    Message('note_on', channel=9, note=42, velocity=127, time=0),
    Message('note_on', channel=9, note=49, velocity=127, time=0),
    Message('note_on', channel=9, note=70, velocity=110, time=0),
    Message('note_off', channel=9, note=49, velocity=127, time=9),
    Message('note_off', channel=9, note=70, velocity=110, time=23),
    Message('note_off', channel=9, note=42, velocity=127, time=0),
    Message('note_on', channel=9, note=36, velocity=81, time=16),
    Message('note_on', channel=9, note=70, velocity=87, time=0),
    Message('note_off', channel=9, note=70, velocity=87, time=22),
    Message('note_off', channel=9, note=36, velocity=81, time=1),
    Message('note_off', channel=9, note=36, velocity=127, time=25),
    Message('note_on', channel=9, note=36, velocity=67, time=0),
    Message('note_on', channel=9, note=70, velocity=76, time=0),
    Message('note_off', channel=9, note=36, velocity=67, time=24),
    Message('note_off', channel=9, note=70, velocity=76, time=6),
    Message('note_on', channel=9, note=36, velocity=68, time=18),
    Message('note_on', channel=9, note=42, velocity=65, time=0),
    Message('note_on', channel=9, note=70, velocity=83, time=0),
    Message('note_off', channel=9, note=70, velocity=83, time=28),
    Message('note_off', channel=9, note=36, velocity=68, time=0),
    Message('note_off', channel=9, note=42, velocity=65, time=2),
    Message('note_on', channel=9, note=36, velocity=77, time=18),
    Message('note_on', channel=9, note=38, velocity=127, time=0),
    Message('note_on', channel=9, note=42, velocity=110, time=0),
    Message('note_on', channel=9, note=70, velocity=95, time=0),
    Message('note_off', channel=9, note=36, velocity=77, time=19),
    Message('note_off', channel=9, note=70, velocity=95, time=10),
    Message('note_off', channel=9, note=42, velocity=110, time=6),
    Message('note_on', channel=9, note=40, velocity=73, time=13),
    Message('note_on', channel=9, note=70, velocity=71, time=0),
    Message('note_off', channel=9, note=70, velocity=71, time=27),
    Message('note_off', channel=9, note=38, velocity=127, time=11),
    Message('note_on', channel=9, note=36, velocity=104, time=10),
    Message('note_on', channel=9, note=42, velocity=83, time=0),
    Message('note_on', channel=9, note=70, velocity=87, time=0),
    Message('note_off', channel=9, note=40, velocity=73, time=22),
    Message('note_off', channel=9, note=70, velocity=87, time=10),
    Message('note_off', channel=9, note=36, velocity=104, time=2),
    Message('note_off', channel=9, note=42, velocity=83, time=2),
    Message('note_on', channel=9, note=70, velocity=80, time=12),
    Message('note_off', channel=9, note=70, velocity=80, time=27),
    Message('note_on', channel=9, note=36, velocity=122, time=21),
    Message('note_on', channel=9, note=42, velocity=127, time=0),
    Message('note_on', channel=9, note=70, velocity=95, time=0),
    Message('note_off', channel=9, note=70, velocity=95, time=32),
    Message('note_off', channel=9, note=42, velocity=127, time=1),
    Message('note_off', channel=9, note=36, velocity=122, time=8),
    Message('note_on', channel=9, note=36, velocity=77, time=7),
    Message('note_on', channel=9, note=70, velocity=76, time=0),
    Message('note_off', channel=9, note=36, velocity=77, time=25),
    Message('note_off', channel=9, note=70, velocity=76, time=1),
    Message('note_on', channel=9, note=36, velocity=71, time=22),
    Message('note_on', channel=9, note=42, velocity=51, time=0),
    Message('note_on', channel=9, note=70, velocity=91, time=0),
    Message('note_off', channel=9, note=70, velocity=91, time=27),
    Message('note_off', channel=9, note=42, velocity=51, time=2),
    Message('note_off', channel=9, note=36, velocity=71, time=1),
    Message('note_on', channel=9, note=36, velocity=64, time=18),
    Message('note_on', channel=9, note=70, velocity=95, time=0),
    Message('note_off', channel=9, note=70, velocity=95, time=27),
    Message('note_off', channel=9, note=36, velocity=64, time=0),
    Message('note_on', channel=9, note=36, velocity=75, time=21),
    Message('note_on', channel=9, note=38, velocity=127, time=0),
    Message('note_on', channel=9, note=42, velocity=91, time=0),
    Message('note_on', channel=9, note=70, velocity=110, time=0),
    Message('note_off', channel=9, note=42, velocity=91, time=30),
    Message('note_off', channel=9, note=36, velocity=75, time=4),
    Message('note_off', channel=9, note=70, velocity=110, time=3),
    Message('note_on', channel=9, note=40, velocity=73, time=11),
    Message('note_on', channel=9, note=70, velocity=95, time=0),
    Message('note_off', channel=9, note=70, velocity=95, time=29),
    Message('note_off', channel=9, note=38, velocity=127, time=5),
    Message('note_on', channel=9, note=42, velocity=91, time=14),
    Message('note_on', channel=9, note=70, velocity=95, time=0),
    Message('note_off', channel=9, note=40, velocity=73, time=20),
    Message('note_off', channel=9, note=70, velocity=95, time=11),
    Message('note_off', channel=9, note=42, velocity=91, time=3),
    Message('note_on', channel=9, note=70, velocity=104, time=14),
    Message('note_off', channel=9, note=70, velocity=104, time=23),
    Message('note_on', channel=9, note=36, velocity=127, time=25),
    Message('note_on', channel=9, note=42, velocity=127, time=0),
    Message('note_on', channel=9, note=49, velocity=91, time=0),
    Message('note_on', channel=9, note=70, velocity=110, time=0),
    Message('note_off', channel=9, note=49, velocity=91, time=21),
    Message('note_off', channel=9, note=70, velocity=110, time=11),
    Message('note_off', channel=9, note=42, velocity=127, time=0),
    Message('note_on', channel=9, note=36, velocity=81, time=16),
    Message('note_on', channel=9, note=70, velocity=87, time=0),
    Message('note_off', channel=9, note=70, velocity=87, time=22),
    Message('note_off', channel=9, note=36, velocity=81, time=1),
    Message('note_off', channel=9, note=36, velocity=127, time=25),
    Message('note_on', channel=9, note=36, velocity=67, time=0),
    Message('note_on', channel=9, note=70, velocity=76, time=0),
    Message('note_off', channel=9, note=36, velocity=67, time=24),
    Message('note_off', channel=9, note=70, velocity=76, time=6),
    Message('note_on', channel=9, note=36, velocity=68, time=18),
    Message('note_on', channel=9, note=42, velocity=65, time=0),
    Message('note_on', channel=9, note=70, velocity=83, time=0),
    Message('note_off', channel=9, note=70, velocity=83, time=28),
    Message('note_off', channel=9, note=36, velocity=68, time=0),
    Message('note_off', channel=9, note=42, velocity=65, time=2),
    Message('note_on', channel=9, note=36, velocity=77, time=18),
    Message('note_on', channel=9, note=38, velocity=127, time=0),
    Message('note_on', channel=9, note=42, velocity=110, time=0),
    Message('note_on', channel=9, note=70, velocity=95, time=0),
    Message('note_off', channel=9, note=36, velocity=77, time=19),
    Message('note_off', channel=9, note=70, velocity=95, time=10),
    Message('note_off', channel=9, note=42, velocity=110, time=6),
    Message('note_on', channel=9, note=40, velocity=73, time=13),
    Message('note_on', channel=9, note=70, velocity=71, time=0),
    Message('note_off', channel=9, note=70, velocity=71, time=27),
    Message('note_off', channel=9, note=38, velocity=127, time=11),
    Message('note_on', channel=9, note=36, velocity=104, time=10),
    Message('note_on', channel=9, note=42, velocity=83, time=0),
    Message('note_on', channel=9, note=70, velocity=87, time=0),
    Message('note_off', channel=9, note=40, velocity=73, time=22),
    Message('note_off', channel=9, note=70, velocity=87, time=10),
    Message('note_off', channel=9, note=36, velocity=104, time=2),
    Message('note_off', channel=9, note=42, velocity=83, time=2),
    Message('note_on', channel=9, note=70, velocity=80, time=12),
    Message('note_off', channel=9, note=70, velocity=80, time=27),
    Message('note_on', channel=9, note=36, velocity=122, time=21),
    Message('note_on', channel=9, note=42, velocity=127, time=0),
    Message('note_on', channel=9, note=70, velocity=95, time=0),
    Message('note_off', channel=9, note=70, velocity=95, time=32),
    Message('note_off', channel=9, note=42, velocity=127, time=1),
    Message('note_off', channel=9, note=36, velocity=122, time=8),
    Message('note_on', channel=9, note=36, velocity=77, time=7),
    Message('note_on', channel=9, note=70, velocity=76, time=0),
    Message('note_off', channel=9, note=36, velocity=77, time=25),
    Message('note_off', channel=9, note=70, velocity=76, time=1),
    Message('note_on', channel=9, note=36, velocity=71, time=22),
    Message('note_on', channel=9, note=42, velocity=51, time=0),
    Message('note_on', channel=9, note=51, velocity=57, time=0),
    Message('note_on', channel=9, note=70, velocity=91, time=0),
    Message('note_off', channel=9, note=51, velocity=57, time=15),
    Message('note_off', channel=9, note=70, velocity=91, time=12),
    Message('note_off', channel=9, note=42, velocity=51, time=2),
    Message('note_off', channel=9, note=36, velocity=71, time=1),
    Message('note_on', channel=9, note=36, velocity=64, time=18),
    Message('note_on', channel=9, note=70, velocity=95, time=0),
    Message('note_off', channel=9, note=70, velocity=95, time=27),
    Message('note_off', channel=9, note=36, velocity=64, time=0),
    Message('note_on', channel=9, note=36, velocity=75, time=21),
    Message('note_on', channel=9, note=38, velocity=127, time=0),
    Message('note_on', channel=9, note=42, velocity=91, time=0),
    Message('note_on', channel=9, note=51, velocity=127, time=0),
    Message('note_on', channel=9, note=70, velocity=110, time=0),
    Message('note_off', channel=9, note=42, velocity=91, time=30),
    Message('note_off', channel=9, note=51, velocity=127, time=1),
    Message('note_off', channel=9, note=36, velocity=75, time=3),
    Message('note_off', channel=9, note=70, velocity=110, time=3),
    Message('note_on', channel=9, note=40, velocity=73, time=11),
    Message('note_on', channel=9, note=70, velocity=95, time=0),
    Message('note_off', channel=9, note=70, velocity=95, time=29),
    Message('note_off', channel=9, note=38, velocity=127, time=5),
    Message('note_on', channel=9, note=42, velocity=91, time=14),
    Message('note_on', channel=9, note=51, velocity=61, time=0),
    Message('note_on', channel=9, note=70, velocity=95, time=0),
    Message('note_off', channel=9, note=51, velocity=61, time=13),
    Message('note_off', channel=9, note=40, velocity=73, time=7),
    Message('note_off', channel=9, note=70, velocity=95, time=11),
    Message('note_off', channel=9, note=42, velocity=91, time=3),
    Message('note_on', channel=9, note=70, velocity=104, time=14),
    Message('note_off', channel=9, note=70, velocity=104, time=23),
    Message('note_on', channel=9, note=36, velocity=127, time=25),
    Message('note_on', channel=9, note=42, velocity=127, time=0),
    Message('note_on', channel=9, note=51, velocity=100, time=0),
    Message('note_on', channel=9, note=70, velocity=110, time=0),
    Message('note_off', channel=9, note=51, velocity=100, time=23),
    Message('note_off', channel=9, note=70, velocity=110, time=9),
    Message('note_off', channel=9, note=42, velocity=127, time=0),
    Message('note_on', channel=9, note=36, velocity=81, time=16),
    Message('note_on', channel=9, note=70, velocity=87, time=0),
    Message('note_off', channel=9, note=70, velocity=87, time=22),
    Message('note_off', channel=9, note=36, velocity=81, time=1),
    Message('note_off', channel=9, note=36, velocity=127, time=25),
    Message('note_on', channel=9, note=36, velocity=67, time=0),
    Message('note_on', channel=9, note=42, velocity=65, time=0),
    Message('note_on', channel=9, note=51, velocity=95, time=0),
    Message('note_on', channel=9, note=70, velocity=76, time=0),
    Message('note_off', channel=9, note=51, velocity=95, time=21),
    Message('note_off', channel=9, note=36, velocity=67, time=3),
    Message('note_off', channel=9, note=70, velocity=76, time=6),
    Message('note_off', channel=9, note=42, velocity=65, time=0),
    Message('note_on', channel=9, note=36, velocity=68, time=18),
    Message('note_on', channel=9, note=70, velocity=83, time=0),
    Message('note_off', channel=9, note=70, velocity=83, time=28),
    Message('note_off', channel=9, note=36, velocity=68, time=0),
    Message('note_on', channel=9, note=36, velocity=77, time=20),
    Message('note_on', channel=9, note=38, velocity=127, time=0),
    Message('note_on', channel=9, note=42, velocity=110, time=0),
    Message('note_on', channel=9, note=51, velocity=110, time=0),
    Message('note_on', channel=9, note=70, velocity=95, time=0),
    Message('note_off', channel=9, note=36, velocity=77, time=19),
    Message('note_off', channel=9, note=51, velocity=110, time=8),
    Message('note_off', channel=9, note=70, velocity=95, time=2),
    Message('note_off', channel=9, note=42, velocity=110, time=6),
    Message('note_on', channel=9, note=40, velocity=73, time=13),
    Message('note_on', channel=9, note=70, velocity=71, time=0),
    Message('note_off', channel=9, note=70, velocity=71, time=27),
    Message('note_off', channel=9, note=38, velocity=127, time=11),
    Message('note_on', channel=9, note=36, velocity=104, time=10),
    Message('note_on', channel=9, note=42, velocity=83, time=0),
    Message('note_on', channel=9, note=70, velocity=87, time=0),
    Message('note_off', channel=9, note=40, velocity=73, time=22),
    Message('note_off', channel=9, note=70, velocity=87, time=10),
    Message('note_off', channel=9, note=36, velocity=104, time=2),
    Message('note_off', channel=9, note=42, velocity=83, time=2),
    Message('note_on', channel=9, note=70, velocity=80, time=12),
    Message('note_off', channel=9, note=70, velocity=80, time=27),
    Message('note_on', channel=9, note=36, velocity=122, time=21),
    Message('note_on', channel=9, note=42, velocity=127, time=0),
    Message('note_on', channel=9, note=70, velocity=95, time=0),
    Message('note_off', channel=9, note=70, velocity=95, time=32),
    Message('note_off', channel=9, note=42, velocity=127, time=1),
    Message('note_off', channel=9, note=36, velocity=122, time=8),
    Message('note_on', channel=9, note=36, velocity=77, time=7),
    Message('note_on', channel=9, note=70, velocity=76, time=0),
    Message('note_off', channel=9, note=36, velocity=77, time=25),
    Message('note_off', channel=9, note=70, velocity=76, time=1),
    Message('note_on', channel=9, note=36, velocity=71, time=22),
    Message('note_on', channel=9, note=42, velocity=51, time=0),
    Message('note_on', channel=9, note=51, velocity=61, time=0),
    Message('note_on', channel=9, note=70, velocity=91, time=0),
    Message('note_off', channel=9, note=51, velocity=61, time=19),
    Message('note_off', channel=9, note=70, velocity=91, time=8),
    Message('note_off', channel=9, note=42, velocity=51, time=2),
    Message('note_off', channel=9, note=36, velocity=71, time=1),
    Message('note_on', channel=9, note=36, velocity=64, time=18),
    Message('note_on', channel=9, note=70, velocity=95, time=0),
    Message('note_off', channel=9, note=70, velocity=95, time=27),
    Message('note_off', channel=9, note=36, velocity=64, time=0),
    Message('note_on', channel=9, note=36, velocity=75, time=21),
    Message('note_on', channel=9, note=38, velocity=127, time=0),
    Message('note_on', channel=9, note=42, velocity=91, time=0),
    Message('note_on', channel=9, note=51, velocity=91, time=0),
    Message('note_on', channel=9, note=70, velocity=110, time=0),
    Message('note_off', channel=9, note=51, velocity=91, time=25),
    Message('note_off', channel=9, note=42, velocity=91, time=5),
    Message('note_off', channel=9, note=36, velocity=75, time=4),
    Message('note_off', channel=9, note=70, velocity=110, time=3),
    Message('note_on', channel=9, note=40, velocity=73, time=11),
    Message('note_on', channel=9, note=70, velocity=95, time=0),
    Message('note_off', channel=9, note=70, velocity=95, time=29),
    Message('note_off', channel=9, note=38, velocity=127, time=5),
    Message('note_on', channel=9, note=42, velocity=91, time=14),
    Message('note_on', channel=9, note=70, velocity=95, time=0),
    Message('note_off', channel=9, note=40, velocity=73, time=20),
    Message('note_off', channel=9, note=70, velocity=95, time=11),
    Message('note_off', channel=9, note=42, velocity=91, time=3),
    Message('note_on', channel=9, note=70, velocity=104, time=14),
    Message('note_off', channel=9, note=70, velocity=104, time=23),
    Message('note_on', channel=9, note=36, velocity=127, time=25),
    Message('note_on', channel=9, note=42, velocity=127, time=0),
    Message('note_on', channel=9, note=51, velocity=80, time=0),
    Message('note_on', channel=9, note=70, velocity=110, time=0),
    Message('note_off', channel=9, note=51, velocity=80, time=18),
    Message('note_off', channel=9, note=70, velocity=110, time=14),
    Message('note_off', channel=9, note=42, velocity=127, time=0),
    Message('note_on', channel=9, note=36, velocity=81, time=16),
    Message('note_on', channel=9, note=70, velocity=87, time=0),
    Message('note_off', channel=9, note=70, velocity=87, time=22),
    Message('note_off', channel=9, note=36, velocity=81, time=1),
    Message('note_off', channel=9, note=36, velocity=127, time=25),
    Message('note_on', channel=9, note=36, velocity=67, time=0),
    Message('note_on', channel=9, note=70, velocity=76, time=0),
    Message('note_off', channel=9, note=36, velocity=67, time=24),
    Message('note_off', channel=9, note=70, velocity=76, time=6),
    Message('note_on', channel=9, note=36, velocity=68, time=18),
    Message('note_on', channel=9, note=42, velocity=65, time=0),
    Message('note_on', channel=9, note=70, velocity=83, time=0),
    Message('note_off', channel=9, note=70, velocity=83, time=28),
    Message('note_off', channel=9, note=36, velocity=68, time=0),
    Message('note_off', channel=9, note=42, velocity=65, time=2),
    Message('note_on', channel=9, note=36, velocity=77, time=18),
    Message('note_on', channel=9, note=38, velocity=127, time=0),
    Message('note_on', channel=9, note=42, velocity=110, time=0),
    Message('note_on', channel=9, note=70, velocity=95, time=0),
    Message('note_off', channel=9, note=36, velocity=77, time=19),
    Message('note_off', channel=9, note=70, velocity=95, time=10),
    Message('note_off', channel=9, note=42, velocity=110, time=6),
    Message('note_on', channel=9, note=40, velocity=73, time=13),
    Message('note_on', channel=9, note=70, velocity=71, time=0),
    Message('note_off', channel=9, note=70, velocity=71, time=27),
    Message('note_off', channel=9, note=38, velocity=127, time=11),
    Message('note_on', channel=9, note=36, velocity=104, time=10),
    Message('note_on', channel=9, note=42, velocity=83, time=0),
    Message('note_on', channel=9, note=70, velocity=87, time=0),
    Message('note_off', channel=9, note=40, velocity=73, time=22),
    Message('note_off', channel=9, note=70, velocity=87, time=10),
    Message('note_off', channel=9, note=36, velocity=104, time=2),
    Message('note_off', channel=9, note=42, velocity=83, time=2),
    Message('note_on', channel=9, note=70, velocity=80, time=12),
    Message('note_off', channel=9, note=70, velocity=80, time=27),
    Message('note_on', channel=9, note=36, velocity=122, time=21),
    Message('note_on', channel=9, note=42, velocity=127, time=0),
    Message('note_on', channel=9, note=70, velocity=95, time=0),
    Message('note_off', channel=9, note=70, velocity=95, time=32),
    Message('note_off', channel=9, note=42, velocity=127, time=1),
    Message('note_off', channel=9, note=36, velocity=122, time=8),
    Message('note_on', channel=9, note=36, velocity=77, time=7),
    Message('note_on', channel=9, note=70, velocity=76, time=0),
    Message('note_off', channel=9, note=36, velocity=77, time=25),
    Message('note_off', channel=9, note=70, velocity=76, time=1),
    Message('note_on', channel=9, note=36, velocity=71, time=22),
    Message('note_on', channel=9, note=42, velocity=51, time=0),
    Message('note_on', channel=9, note=70, velocity=91, time=0),
    Message('note_off', channel=9, note=70, velocity=91, time=27),
    Message('note_off', channel=9, note=42, velocity=51, time=2),
    Message('note_off', channel=9, note=36, velocity=71, time=1),
    Message('note_on', channel=9, note=36, velocity=64, time=18),
    Message('note_on', channel=9, note=70, velocity=95, time=0),
    Message('note_off', channel=9, note=70, velocity=95, time=27),
    Message('note_off', channel=9, note=36, velocity=64, time=0),
    Message('note_on', channel=9, note=36, velocity=75, time=21),
    Message('note_on', channel=9, note=38, velocity=127, time=0),
    Message('note_on', channel=9, note=42, velocity=91, time=0),
    Message('note_on', channel=9, note=70, velocity=110, time=0),
    Message('note_off', channel=9, note=42, velocity=91, time=30),
    Message('note_off', channel=9, note=36, velocity=75, time=4),
    Message('note_off', channel=9, note=70, velocity=110, time=3),
    Message('note_on', channel=9, note=38, velocity=127, time=11),
    Message('note_on', channel=9, note=40, velocity=73, time=0),
    Message('note_on', channel=9, note=70, velocity=95, time=0),
    Message('note_off', channel=9, note=38, velocity=127, time=20),
    Message('note_off', channel=9, note=70, velocity=95, time=9),
    Message('note_off', channel=9, note=38, velocity=127, time=5),
    Message('note_on', channel=9, note=42, velocity=91, time=14),
    Message('note_on', channel=9, note=47, velocity=127, time=0),
    Message('note_on', channel=9, note=70, velocity=95, time=0),
    Message('note_off', channel=9, note=40, velocity=73, time=20),
    Message('note_off', channel=9, note=47, velocity=127, time=6),
    Message('note_off', channel=9, note=70, velocity=95, time=5),
    Message('note_off', channel=9, note=42, velocity=91, time=3),
    Message('note_on', channel=9, note=43, velocity=127, time=14),
    Message('note_on', channel=9, note=70, velocity=104, time=0),
    Message('note_off', channel=9, note=43, velocity=127, time=15),
    Message('note_off', channel=9, note=70, velocity=104, time=8),
    Message('note_on', channel=9, note=36, velocity=127, time=25),
    Message('note_on', channel=9, note=42, velocity=127, time=0),
    Message('note_on', channel=9, note=70, velocity=110, time=0),
    Message('note_off', channel=9, note=70, velocity=110, time=32),
    Message('note_off', channel=9, note=42, velocity=127, time=0),
    Message('note_on', channel=9, note=36, velocity=81, time=16),
    Message('note_on', channel=9, note=70, velocity=87, time=0),
    Message('note_off', channel=9, note=70, velocity=87, time=22),
    Message('note_off', channel=9, note=36, velocity=81, time=1),
    Message('note_off', channel=9, note=36, velocity=127, time=25),
    Message('note_on', channel=9, note=36, velocity=67, time=0),
    Message('note_on', channel=9, note=70, velocity=76, time=0),
    Message('note_off', channel=9, note=36, velocity=67, time=24),
    Message('note_off', channel=9, note=70, velocity=76, time=6),
    Message('note_on', channel=9, note=36, velocity=68, time=18),
    Message('note_on', channel=9, note=42, velocity=65, time=0),
    Message('note_on', channel=9, note=70, velocity=83, time=0),
    Message('note_off', channel=9, note=70, velocity=83, time=28),
    Message('note_off', channel=9, note=36, velocity=68, time=0),
    Message('note_off', channel=9, note=42, velocity=65, time=2),
    Message('note_on', channel=9, note=36, velocity=77, time=18),
    Message('note_on', channel=9, note=38, velocity=127, time=0),
    Message('note_on', channel=9, note=42, velocity=110, time=0),
    Message('note_on', channel=9, note=70, velocity=95, time=0),
    Message('note_off', channel=9, note=36, velocity=77, time=19),
    Message('note_off', channel=9, note=70, velocity=95, time=10),
    Message('note_off', channel=9, note=42, velocity=110, time=6),
    Message('note_on', channel=9, note=40, velocity=73, time=13),
    Message('note_on', channel=9, note=70, velocity=71, time=0),
    Message('note_off', channel=9, note=70, velocity=71, time=27),
    Message('note_off', channel=9, note=38, velocity=127, time=11),
    Message('note_on', channel=9, note=36, velocity=104, time=10),
    Message('note_on', channel=9, note=42, velocity=83, time=0),
    Message('note_on', channel=9, note=70, velocity=87, time=0),
    Message('note_off', channel=9, note=40, velocity=73, time=22),
    Message('note_off', channel=9, note=70, velocity=87, time=10),
    Message('note_off', channel=9, note=36, velocity=104, time=2),
    Message('note_off', channel=9, note=42, velocity=83, time=2),
    Message('note_on', channel=9, note=70, velocity=80, time=12),
    Message('note_off', channel=9, note=70, velocity=80, time=27),
    Message('note_on', channel=9, note=36, velocity=122, time=21),
    Message('note_on', channel=9, note=42, velocity=127, time=0),
    Message('note_on', channel=9, note=70, velocity=95, time=0),
    Message('note_off', channel=9, note=70, velocity=95, time=32),
    Message('note_off', channel=9, note=42, velocity=127, time=1),
    Message('note_off', channel=9, note=36, velocity=122, time=8),
    Message('note_on', channel=9, note=36, velocity=77, time=7),
    Message('note_on', channel=9, note=70, velocity=76, time=0),
    Message('note_off', channel=9, note=36, velocity=77, time=25),
    Message('note_off', channel=9, note=70, velocity=76, time=1),
    Message('note_on', channel=9, note=36, velocity=71, time=22),
    Message('note_on', channel=9, note=42, velocity=51, time=0),
    Message('note_on', channel=9, note=70, velocity=91, time=0),
    Message('note_off', channel=9, note=70, velocity=91, time=27),
    Message('note_off', channel=9, note=42, velocity=51, time=2),
    Message('note_off', channel=9, note=36, velocity=71, time=1),
    Message('note_on', channel=9, note=36, velocity=64, time=18),
    Message('note_on', channel=9, note=70, velocity=95, time=0),
    Message('note_off', channel=9, note=70, velocity=95, time=27),
    Message('note_off', channel=9, note=36, velocity=64, time=0),
    Message('note_on', channel=9, note=36, velocity=75, time=21),
    Message('note_on', channel=9, note=38, velocity=127, time=0),
    Message('note_on', channel=9, note=42, velocity=91, time=0),
    Message('note_on', channel=9, note=70, velocity=110, time=0),
    Message('note_off', channel=9, note=42, velocity=91, time=30),
    Message('note_off', channel=9, note=36, velocity=75, time=4),
    Message('note_off', channel=9, note=70, velocity=110, time=3),
    Message('note_on', channel=9, note=40, velocity=73, time=11),
    Message('note_on', channel=9, note=70, velocity=95, time=0),
    Message('note_off', channel=9, note=70, velocity=95, time=29),
    Message('note_off', channel=9, note=38, velocity=127, time=5),
    Message('note_on', channel=9, note=42, velocity=91, time=14),
    Message('note_on', channel=9, note=70, velocity=95, time=0),
    Message('note_off', channel=9, note=40, velocity=73, time=20),
    Message('note_off', channel=9, note=70, velocity=95, time=11),
    Message('note_off', channel=9, note=42, velocity=91, time=3),
    Message('note_on', channel=9, note=70, velocity=104, time=14),
    Message('note_off', channel=9, note=70, velocity=104, time=23),
    Message('note_on', channel=9, note=36, velocity=127, time=25),
    Message('note_on', channel=9, note=51, velocity=104, time=0),
    Message('note_off', channel=9, note=51, velocity=104, time=40),
    Message('note_off', channel=9, note=36, velocity=127, time=30),
    Message('note_on', channel=9, note=51, velocity=76, time=26),
    Message('note_off', channel=9, note=51, velocity=76, time=32),
    Message('note_on', channel=9, note=51, velocity=104, time=64),
    Message('note_off', channel=9, note=51, velocity=104, time=32),
    Message('note_on', channel=9, note=36, velocity=122, time=64),
    Message('note_on', channel=9, note=51, velocity=95, time=0),
    Message('note_off', channel=9, note=36, velocity=122, time=23),
    Message('note_off', channel=9, note=51, velocity=95, time=5),
    Message('note_off', channel=9, note=51, velocity=104, time=68),
    Message('note_on', channel=9, note=36, velocity=117, time=0),
    Message('note_on', channel=9, note=51, velocity=104, time=0),
    Message('note_on', channel=9, note=51, velocity=91, time=0),
    Message('note_off', channel=9, note=51, velocity=91, time=7),
    Message('note_off', channel=9, note=36, velocity=117, time=11),
    Message('note_on', channel=9, note=36, velocity=127, time=30),
    Message('note_off', channel=9, note=36, velocity=127, time=37),
    Message('note_on', channel=9, note=51, velocity=68, time=11),
    Message('note_off', channel=9, note=51, velocity=68, time=23),
    Message('note_on', channel=9, note=38, velocity=127, time=73),
    Message('note_on', channel=9, note=51, velocity=104, time=0),
    Message('note_off', channel=9, note=51, velocity=104, time=25),
    Message('note_off', channel=9, note=38, velocity=127, time=26),
    Message('note_on', channel=9, note=36, velocity=104, time=141),
    Message('note_on', channel=9, note=42, velocity=110, time=0),
    Message('note_off', channel=9, note=42, velocity=110, time=51),
    Message('note_on', channel=9, note=42, velocity=91, time=45),
    Message('note_off', channel=9, note=36, velocity=104, time=20),
    Message('note_off', channel=9, note=42, velocity=91, time=12),
    Message('note_on', channel=9, note=36, velocity=79, time=16),
    Message('note_on', channel=9, note=37, velocity=95, time=48),
    Message('note_on', channel=9, note=42, velocity=110, time=0),
    Message('note_off', channel=9, note=36, velocity=79, time=5),
    Message('note_off', channel=9, note=42, velocity=110, time=39),
    Message('note_off', channel=9, note=37, velocity=95, time=46),
    Message('note_on', channel=9, note=36, velocity=77, time=6),
    Message('note_on', channel=9, note=42, velocity=80, time=0),
    Message('note_off', channel=9, note=42, velocity=80, time=26),
    Message('note_off', channel=9, note=36, velocity=77, time=38),
    Message('note_on', channel=9, note=36, velocity=117, time=32),
    Message('note_on', channel=9, note=42, velocity=95, time=0),
    Message('note_off', channel=9, note=42, velocity=95, time=28),
    Message('note_on', channel=9, note=42, velocity=91, time=68),
    Message('note_off', channel=9, note=42, velocity=91, time=26),
    Message('note_off', channel=9, note=36, velocity=117, time=58),
    Message('note_on', channel=9, note=37, velocity=110, time=12),
    Message('note_on', channel=9, note=42, velocity=95, time=0),
    Message('note_off', channel=9, note=42, velocity=95, time=33),
    Message('note_on', channel=9, note=46, velocity=100, time=63),
    Message('note_off', channel=9, note=46, velocity=100, time=33),
    Message('note_off', channel=9, note=37, velocity=110, time=14),
    Message('note_on', channel=9, note=36, velocity=97, time=49),
    Message('note_on', channel=9, note=42, velocity=100, time=0),
    Message('note_off', channel=9, note=42, velocity=100, time=41),
    Message('note_on', channel=9, note=42, velocity=76, time=55),
    Message('note_off', channel=9, note=36, velocity=97, time=10),
    Message('note_off', channel=9, note=42, velocity=76, time=4),
    Message('note_on', channel=9, note=36, velocity=127, time=34),
    Message('note_on', channel=9, note=37, velocity=80, time=48),
    Message('note_on', channel=9, note=42, velocity=127, time=0),
    Message('note_off', channel=9, note=36, velocity=127, time=12),
    Message('note_off', channel=9, note=42, velocity=127, time=25),
    Message('note_off', channel=9, note=37, velocity=80, time=54),
    Message('note_on', channel=9, note=36, velocity=68, time=5),
    Message('note_on', channel=9, note=42, velocity=63, time=0),
    Message('note_off', channel=9, note=42, velocity=63, time=21),
    Message('note_off', channel=9, note=36, velocity=68, time=34),
    Message('note_on', channel=9, note=36, velocity=88, time=41),
    Message('note_on', channel=9, note=42, velocity=87, time=0),
    Message('note_off', channel=9, note=42, velocity=87, time=25),
    Message('note_on', channel=9, note=42, velocity=87, time=71),
    Message('note_off', channel=9, note=42, velocity=87, time=15),
    Message('note_off', channel=9, note=36, velocity=88, time=41),
    Message('note_on', channel=9, note=37, velocity=100, time=40),
    Message('note_on', channel=9, note=42, velocity=91, time=0),
    Message('note_off', channel=9, note=42, velocity=91, time=36),
    Message('note_on', channel=9, note=46, velocity=91, time=60),
    Message('note_off', channel=9, note=37, velocity=100, time=16),
    Message('note_on', channel=9, note=36, velocity=104, time=80),
    Message('note_on', channel=9, note=42, velocity=95, time=0),
    Message('note_off', channel=9, note=46, velocity=91, time=2),
    Message('note_off', channel=9, note=42, velocity=95, time=31),
    Message('note_on', channel=9, note=42, velocity=50, time=63),
    Message('note_off', channel=9, note=36, velocity=104, time=6),
    Message('note_off', channel=9, note=42, velocity=50, time=13),
    Message('note_on', channel=9, note=36, velocity=77, time=29),
    Message('note_on', channel=9, note=37, velocity=87, time=48),
    Message('note_on', channel=9, note=42, velocity=110, time=0),
    Message('note_off', channel=9, note=36, velocity=77, time=1),
    Message('note_off', channel=9, note=42, velocity=110, time=35),
    Message('note_off', channel=9, note=37, velocity=87, time=40),
    Message('note_on', channel=9, note=36, velocity=71, time=20),
    Message('note_on', channel=9, note=42, velocity=42, time=0),
    Message('note_off', channel=9, note=42, velocity=42, time=28),
    Message('note_off', channel=9, note=36, velocity=71, time=23),
    Message('note_on', channel=9, note=36, velocity=97, time=45),
    Message('note_on', channel=9, note=42, velocity=76, time=0),
    Message('note_off', channel=9, note=42, velocity=76, time=35),
    Message('note_on', channel=9, note=42, velocity=46, time=61),
    Message('note_off', channel=9, note=42, velocity=46, time=24),
    Message('note_off', channel=9, note=36, velocity=97, time=21),
    Message('note_on', channel=9, note=37, velocity=100, time=51),
    Message('note_on', channel=9, note=42, velocity=87, time=0),
    Message('note_off', channel=9, note=42, velocity=87, time=35),
    Message('note_on', channel=9, note=46, velocity=95, time=61),
    Message('note_off', channel=9, note=37, velocity=100, time=38),
    Message('note_off', channel=9, note=46, velocity=95, time=42),
    Message('note_on', channel=9, note=36, velocity=104, time=16),
    Message('note_on', channel=9, note=42, velocity=73, time=0),
    Message('note_off', channel=9, note=42, velocity=73, time=18),
    Message('note_off', channel=9, note=36, velocity=104, time=132),
    Message('note_on', channel=9, note=37, velocity=104, time=42),
    Message('note_on', channel=9, note=42, velocity=127, time=0),
    Message('note_off', channel=9, note=42, velocity=127, time=37),
    Message('note_off', channel=9, note=37, velocity=104, time=26),
    Message('note_on', channel=9, note=36, velocity=71, time=33),
    Message('note_on', channel=9, note=42, velocity=42, time=0),
    Message('note_off', channel=9, note=42, velocity=42, time=28),
    Message('note_off', channel=9, note=36, velocity=71, time=19),
    Message('note_on', channel=9, note=36, velocity=101, time=49),
    Message('note_on', channel=9, note=42, velocity=87, time=0),
    Message('note_off', channel=9, note=42, velocity=87, time=34),
    Message('note_on', channel=9, note=42, velocity=80, time=62),
    Message('note_off', channel=9, note=42, velocity=80, time=23),
    Message('note_off', channel=9, note=36, velocity=101, time=16),
    Message('note_on', channel=9, note=37, velocity=110, time=57),
    Message('note_on', channel=9, note=42, velocity=87, time=0),
    Message('note_off', channel=9, note=42, velocity=87, time=54),
    Message('note_off', channel=9, note=37, velocity=110, time=36),
    Message('note_on', channel=9, note=46, velocity=91, time=6),
    Message('note_on', channel=9, note=36, velocity=122, time=96),
    Message('note_on', channel=9, note=42, velocity=80, time=0),
    Message('note_off', channel=9, note=46, velocity=91, time=7),
    Message('note_off', channel=9, note=42, velocity=80, time=15),
    Message('note_on', channel=9, note=42, velocity=65, time=74),
    Message('note_off', channel=9, note=42, velocity=65, time=19),
    Message('note_off', channel=9, note=36, velocity=122, time=27),
    Message('note_on', channel=9, note=37, velocity=104, time=50),
    Message('note_on', channel=9, note=42, velocity=110, time=0),
    Message('note_off', channel=9, note=37, velocity=104, time=36),
    Message('note_off', channel=9, note=42, velocity=110, time=4),
    Message('note_on', channel=9, note=36, velocity=91, time=56),
    Message('note_on', channel=9, note=42, velocity=42, time=0),
    Message('note_off', channel=9, note=36, velocity=91, time=33),
    Message('note_off', channel=9, note=42, velocity=42, time=1),
    Message('note_on', channel=9, note=36, velocity=127, time=62),
    Message('note_on', channel=9, note=42, velocity=61, time=0),
    Message('note_off', channel=9, note=42, velocity=61, time=35),
    Message('note_on', channel=9, note=42, velocity=55, time=61),
    Message('note_off', channel=9, note=42, velocity=55, time=36),
    Message('note_off', channel=9, note=36, velocity=127, time=23),
    Message('note_on', channel=9, note=37, velocity=110, time=37),
    Message('note_on', channel=9, note=42, velocity=87, time=0),
    Message('note_off', channel=9, note=42, velocity=87, time=43),
    Message('note_off', channel=9, note=37, velocity=110, time=17),
    Message('note_on', channel=9, note=46, velocity=83, time=36),
    Message('note_on', channel=9, note=36, velocity=127, time=96),
    Message('note_on', channel=9, note=42, velocity=68, time=0),
    Message('note_off', channel=9, note=46, velocity=83, time=12),
    Message('note_off', channel=9, note=42, velocity=68, time=12),
    Message('note_on', channel=9, note=42, velocity=51, time=72),
    Message('note_off', channel=9, note=42, velocity=51, time=20),
    Message('note_off', channel=9, note=36, velocity=127, time=58),
    Message('note_on', channel=9, note=37, velocity=104, time=18),
    Message('note_on', channel=9, note=46, velocity=100, time=0),
    Message('note_off', channel=9, note=46, velocity=100, time=21),
    Message('note_off', channel=9, note=37, velocity=104, time=14),
    Message('note_on', channel=9, note=36, velocity=94, time=61),
    Message('note_on', channel=9, note=42, velocity=83, time=0),
    Message('note_off', channel=9, note=36, velocity=94, time=30),
    Message('note_off', channel=9, note=42, velocity=83, time=1),
    Message('note_on', channel=9, note=36, velocity=127, time=65),
    Message('note_on', channel=9, note=42, velocity=68, time=0),
    Message('note_off', channel=9, note=42, velocity=68, time=24),
    Message('note_on', channel=9, note=42, velocity=57, time=72),
    Message('note_off', channel=9, note=42, velocity=57, time=33),
    Message('note_off', channel=9, note=36, velocity=127, time=15),
    Message('note_on', channel=9, note=37, velocity=110, time=48),
    Message('note_on', channel=9, note=44, velocity=76, time=0),
    Message('note_off', channel=9, note=44, velocity=76, time=25),
    Message('note_off', channel=9, note=37, velocity=110, time=48),
    Message('note_on', channel=9, note=42, velocity=80, time=23),
    Message('note_off', channel=9, note=42, velocity=80, time=28),
    Message('note_on', channel=9, note=36, velocity=127, time=68),
    Message('note_on', channel=9, note=42, velocity=91, time=0),
    Message('note_off', channel=9, note=42, velocity=91, time=32),
    Message('note_on', channel=9, note=42, velocity=73, time=64),
    Message('note_off', channel=9, note=42, velocity=73, time=37),
    Message('note_off', channel=9, note=36, velocity=127, time=33),
    Message('note_on', channel=9, note=37, velocity=110, time=26),
    Message('note_on', channel=9, note=46, velocity=87, time=0),
    Message('note_off', channel=9, note=46, velocity=87, time=29),
    Message('note_off', channel=9, note=37, velocity=110, time=14),
    Message('note_on', channel=9, note=36, velocity=122, time=53),
    Message('note_on', channel=9, note=42, velocity=83, time=0),
    Message('note_off', channel=9, note=42, velocity=83, time=22),
    Message('note_off', channel=9, note=36, velocity=122, time=13),
    Message('note_on', channel=9, note=36, velocity=127, time=61),
    Message('note_on', channel=9, note=42, velocity=80, time=0),
    Message('note_off', channel=9, note=42, velocity=80, time=28),
    Message('note_on', channel=9, note=42, velocity=71, time=68),
    Message('note_off', channel=9, note=42, velocity=71, time=29),
    Message('note_off', channel=9, note=36, velocity=127, time=47),
    Message('note_on', channel=9, note=37, velocity=104, time=20),
    Message('note_on', channel=9, note=44, velocity=83, time=0),
    Message('note_off', channel=9, note=44, velocity=83, time=25),
    Message('note_off', channel=9, note=37, velocity=104, time=51),
    Message('note_on', channel=9, note=42, velocity=71, time=20),
    Message('note_off', channel=9, note=42, velocity=71, time=19),
    Message('note_on', channel=9, note=36, velocity=127, time=77),
    Message('note_on', channel=9, note=42, velocity=100, time=0),
    Message('note_off', channel=9, note=42, velocity=100, time=31),
    Message('note_on', channel=9, note=42, velocity=76, time=65),
    Message('note_off', channel=9, note=42, velocity=76, time=24),
    Message('note_off', channel=9, note=36, velocity=127, time=38),
    Message('note_on', channel=9, note=37, velocity=104, time=34),
    Message('note_on', channel=9, note=46, velocity=80, time=0),
    Message('note_off', channel=9, note=46, velocity=80, time=22),
    Message('note_off', channel=9, note=37, velocity=104, time=13),
    Message('note_on', channel=9, note=36, velocity=117, time=61),
    Message('note_on', channel=9, note=42, velocity=91, time=0),
    Message('note_off', channel=9, note=42, velocity=91, time=24),
    Message('note_off', channel=9, note=36, velocity=117, time=15),
    Message('note_on', channel=9, note=36, velocity=127, time=57),
    Message('note_on', channel=9, note=42, velocity=83, time=0),
    Message('note_off', channel=9, note=42, velocity=83, time=21),
    Message('note_on', channel=9, note=42, velocity=80, time=75),
    Message('note_off', channel=9, note=42, velocity=80, time=24),
    Message('note_off', channel=9, note=36, velocity=127, time=29),
    Message('note_on', channel=9, note=37, velocity=110, time=43),
    Message('note_on', channel=9, note=44, velocity=87, time=0),
    Message('note_off', channel=9, note=44, velocity=87, time=27),
    Message('note_off', channel=9, note=37, velocity=110, time=34),
    Message('note_on', channel=9, note=42, velocity=65, time=35),
    Message('note_off', channel=9, note=42, velocity=65, time=23),
    Message('note_on', channel=9, note=46, velocity=83, time=73),
    Message('note_off', channel=9, note=46, velocity=83, time=6656),
    MetaMessage('end_of_track', time=0)]),
  MidiTrack([
    MetaMessage('track_name', name='Pad 6 (metallic)', time=0),
    Message('control_change', channel=10, control=0, value=0, time=0),
    Message('control_change', channel=10, control=32, value=0, time=0),
    Message('program_change', channel=10, program=93, time=0),
    Message('control_change', channel=10, control=7, value=12, time=0),
    Message('control_change', channel=10, control=10, value=64, time=0),
    Message('control_change', channel=10, control=11, value=127, time=0),
    Message('control_change', channel=10, control=91, value=100, time=0),
    Message('control_change', channel=10, control=93, value=30, time=0),
    Message('control_change', channel=10, control=101, value=0, time=110),
    Message('control_change', channel=10, control=100, value=0, time=50),
    Message('control_change', channel=10, control=6, value=2, time=88),
    Message('note_on', channel=10, note=70, velocity=95, time=32771),
    Message('control_change', channel=10, control=1, value=6, time=281),
    Message('control_change', channel=10, control=1, value=41, time=15),
    Message('control_change', channel=10, control=1, value=69, time=16),
    Message('control_change', channel=10, control=1, value=88, time=16),
    Message('control_change', channel=10, control=1, value=95, time=16),
    Message('control_change', channel=10, control=1, value=105, time=15),
    Message('control_change', channel=10, control=1, value=113, time=16),
    Message('control_change', channel=10, control=1, value=117, time=15),
    Message('control_change', channel=10, control=1, value=123, time=16),
    Message('control_change', channel=10, control=1, value=124, time=71),
    Message('control_change', channel=10, control=1, value=123, time=94),
    Message('control_change', channel=10, control=1, value=74, time=15),
    Message('control_change', channel=10, control=1, value=0, time=16),
    Message('note_off', channel=10, note=70, velocity=95, time=117),
    Message('note_on', channel=10, note=69, velocity=79, time=66),
    Message('control_change', channel=10, control=1, value=38, time=186),
    Message('control_change', channel=10, control=1, value=22, time=16),
    Message('control_change', channel=10, control=1, value=6, time=16),
    Message('control_change', channel=10, control=1, value=23, time=19),
    Message('control_change', channel=10, control=1, value=109, time=16),
    Message('control_change', channel=10, control=1, value=120, time=15),
    Message('control_change', channel=10, control=1, value=120, time=24),
    Message('control_change', channel=10, control=1, value=121, time=28),
    Message('control_change', channel=10, control=1, value=122, time=19),
    Message('control_change', channel=10, control=1, value=123, time=16),
    Message('control_change', channel=10, control=1, value=124, time=70),
    Message('control_change', channel=10, control=1, value=122, time=107),
    Message('control_change', channel=10, control=1, value=120, time=16),
    Message('control_change', channel=10, control=1, value=116, time=16),
    Message('control_change', channel=10, control=1, value=67, time=16),
    Message('control_change', channel=10, control=1, value=0, time=15),
    Message('note_off', channel=10, note=69, velocity=79, time=13),
    Message('note_on', channel=10, note=82, velocity=95, time=926),
    Message('control_change', channel=10, control=1, value=71, time=257),
    Message('control_change', channel=10, control=1, value=109, time=15),
    Message('control_change', channel=10, control=1, value=114, time=16),
    Message('control_change', channel=10, control=1, value=118, time=16),
    Message('control_change', channel=10, control=1, value=122, time=16),
    Message('control_change', channel=10, control=1, value=123, time=15),
    Message('control_change', channel=10, control=1, value=125, time=20),
    Message('control_change', channel=10, control=1, value=126, time=67),
    Message('control_change', channel=10, control=1, value=124, time=373),
    Message('note_off', channel=10, note=82, velocity=95, time=2),
    Message('control_change', channel=10, control=1, value=0, time=14),
    Message('note_on', channel=10, note=74, velocity=104, time=31435),
    Message('control_change', channel=10, control=1, value=63, time=296),
    Message('control_change', channel=10, control=1, value=105, time=16),
    Message('control_change', channel=10, control=1, value=117, time=17),
    Message('control_change', channel=10, control=1, value=121, time=16),
    Message('control_change', channel=10, control=1, value=123, time=16),
    Message('control_change', channel=10, control=1, value=125, time=25),
    Message('control_change', channel=10, control=1, value=126, time=24),
    Message('control_change', channel=10, control=1, value=118, time=187),
    Message('control_change', channel=10, control=1, value=0, time=16),
    Message('note_off', channel=10, note=74, velocity=104, time=106),
    Message('note_on', channel=10, note=79, velocity=127, time=49),
    Message('control_change', channel=10, control=1, value=55, time=318),
    Message('control_change', channel=10, control=1, value=117, time=16),
    Message('control_change', channel=10, control=1, value=125, time=16),
    Message('control_change', channel=10, control=1, value=126, time=20),
    Message('control_change', channel=10, control=1, value=0, time=358),
    Message('note_off', channel=10, note=79, velocity=127, time=19),
    Message('note_on', channel=10, note=80, velocity=110, time=789),
    Message('control_change', channel=10, control=1, value=1, time=193),
    Message('control_change', channel=10, control=1, value=111, time=16),
    Message('control_change', channel=10, control=1, value=122, time=16),
    Message('control_change', channel=10, control=1, value=125, time=16),
    Message('control_change', channel=10, control=1, value=126, time=25),
    Message('control_change', channel=10, control=1, value=121, time=312),
    Message('control_change', channel=10, control=1, value=0, time=17),
    Message('note_off', channel=10, note=80, velocity=110, time=163),
    MetaMessage('end_of_track', time=0)]),
  MidiTrack([
    MetaMessage('track_name', name='Distortion Guitar', time=0),
    Message('control_change', channel=11, control=0, value=0, time=0),
    Message('control_change', channel=11, control=32, value=0, time=0),
    Message('program_change', channel=11, program=30, time=0),
    Message('control_change', channel=11, control=7, value=110, time=0),
    Message('control_change', channel=11, control=10, value=60, time=0),
    Message('control_change', channel=11, control=11, value=127, time=0),
    Message('control_change', channel=11, control=91, value=86, time=0),
    Message('control_change', channel=11, control=93, value=44, time=0),
    Message('control_change', channel=11, control=101, value=0, time=110),
    Message('control_change', channel=11, control=100, value=0, time=50),
    Message('control_change', channel=11, control=6, value=2, time=88),
    Message('control_change', channel=11, control=11, value=127, time=1288),
    Message('pitchwheel', channel=11, pitch=-1, time=40281),
    Message('pitchwheel', channel=11, pitch=-530, time=8),
    Message('pitchwheel', channel=11, pitch=-1058, time=12),
    Message('pitchwheel', channel=11, pitch=-1851, time=8),
    Message('pitchwheel', channel=11, pitch=-2908, time=7),
    Message('pitchwheel', channel=11, pitch=-4758, time=8),
    Message('pitchwheel', channel=11, pitch=-8192, time=8),
    Message('note_on', channel=11, note=79, velocity=127, time=84),
    Message('pitchwheel', channel=11, pitch=-6871, time=39),
    Message('pitchwheel', channel=11, pitch=-3436, time=8),
    Message('pitchwheel', channel=11, pitch=-794, time=8),
    Message('control_change', channel=11, control=1, value=27, time=8),
    Message('pitchwheel', channel=11, pitch=0, time=0),
    Message('control_change', channel=11, control=1, value=123, time=16),
    Message('control_change', channel=11, control=1, value=126, time=15),
    Message('control_change', channel=11, control=7, value=94, time=30),
    Message('control_change', channel=11, control=7, value=89, time=16),
    Message('control_change', channel=11, control=7, value=87, time=21),
    Message('control_change', channel=11, control=1, value=127, time=8),
    Message('control_change', channel=11, control=7, value=84, time=13),
    Message('control_change', channel=11, control=7, value=81, time=25),
    Message('control_change', channel=11, control=7, value=78, time=16),
    Message('control_change', channel=11, control=7, value=75, time=17),
    Message('control_change', channel=11, control=7, value=71, time=21),
    Message('control_change', channel=11, control=7, value=68, time=17),
    Message('control_change', channel=11, control=7, value=65, time=16),
    Message('control_change', channel=11, control=7, value=62, time=25),
    Message('control_change', channel=11, control=7, value=59, time=17),
    Message('control_change', channel=11, control=1, value=126, time=2),
    Message('control_change', channel=11, control=7, value=55, time=15),
    Message('control_change', channel=11, control=1, value=123, time=4),
    Message('control_change', channel=11, control=7, value=52, time=12),
    Message('control_change', channel=11, control=1, value=97, time=4),
    Message('control_change', channel=11, control=1, value=0, time=16),
    Message('control_change', channel=11, control=7, value=48, time=1),
    Message('control_change', channel=11, control=7, value=45, time=21),
    Message('control_change', channel=11, control=7, value=42, time=17),
    Message('control_change', channel=11, control=7, value=39, time=21),
    Message('control_change', channel=11, control=7, value=37, time=42),
    Message('note_off', channel=11, note=79, velocity=127, time=2),
    Message('control_change', channel=11, control=7, value=34, time=18),
    Message('control_change', channel=11, control=7, value=31, time=17),
    Message('control_change', channel=11, control=7, value=29, time=21),
    Message('control_change', channel=11, control=7, value=26, time=34),
    Message('control_change', channel=11, control=7, value=24, time=29),
    Message('control_change', channel=11, control=7, value=21, time=29),
    Message('control_change', channel=11, control=7, value=19, time=16),
    Message('control_change', channel=11, control=7, value=16, time=34),
    Message('control_change', channel=11, control=7, value=13, time=16),
    Message('control_change', channel=11, control=7, value=11, time=55),
    Message('control_change', channel=11, control=7, value=18, time=75),
    Message('control_change', channel=11, control=7, value=38, time=16),
    Message('control_change', channel=11, control=7, value=58, time=17),
    Message('control_change', channel=11, control=7, value=71, time=16),
    Message('control_change', channel=11, control=7, value=78, time=17),
    Message('control_change', channel=11, control=7, value=80, time=29),
    Message('control_change', channel=11, control=7, value=84, time=21),
    Message('control_change', channel=11, control=7, value=89, time=17),
    Message('control_change', channel=11, control=7, value=91, time=21),
    Message('control_change', channel=11, control=7, value=94, time=25),
    Message('control_change', channel=11, control=7, value=99, time=25),
    Message('control_change', channel=11, control=1, value=117, time=34),
    Message('control_change', channel=11, control=1, value=0, time=16),
    Message('note_on', channel=11, note=56, velocity=127, time=13789),
    Message('note_on', channel=11, note=60, velocity=127, time=192),
    Message('note_off', channel=11, note=56, velocity=127, time=10),
    Message('note_off', channel=11, note=60, velocity=127, time=182),
    Message('note_on', channel=11, note=68, velocity=127, time=0),
    Message('note_on', channel=11, note=63, velocity=127, time=192),
    Message('note_off', channel=11, note=68, velocity=127, time=8),
    Message('note_on', channel=11, note=56, velocity=127, time=184),
    Message('note_off', channel=11, note=63, velocity=127, time=2),
    Message('note_off', channel=11, note=56, velocity=127, time=387),
    MetaMessage('end_of_track', time=0)]),
  MidiTrack([
    MetaMessage('track_name', name='Drum', time=0),
    Message('program_change', channel=9, program=0, time=0),
    Message('control_change', channel=9, control=7, value=116, time=0),
    Message('control_change', channel=9, control=10, value=64, time=0),
    Message('control_change', channel=9, control=11, value=127, time=0),
    Message('control_change', channel=9, control=91, value=20, time=0),
    Message('control_change', channel=9, control=93, value=98, time=0),
    Message('note_on', channel=9, note=42, velocity=104, time=768),
    Message('note_on', channel=9, note=42, velocity=0, time=96),
    Message('note_on', channel=9, note=42, velocity=104, time=96),
    Message('note_on', channel=9, note=42, velocity=0, time=111),
    Message('note_on', channel=9, note=42, velocity=73, time=81),
    Message('note_on', channel=9, note=42, velocity=0, time=109),
    Message('note_on', channel=9, note=42, velocity=68, time=83),
    Message('note_on', channel=9, note=42, velocity=0, time=82),
    MetaMessage('end_of_track', time=0)])
])
