MidiFile(type=0, ticks_per_beat=96, tracks=[
  MidiTrack([
    MetaMessage('track_name', name='Rocket Man', time=0),
    MetaMessage('copyright', text='(C)1993 Music Sales Ltd.', time=0),
    MetaMessage('time_signature', numerator=4, denominator=4, clocks_per_click=24, notated_32nd_notes_per_beat=8, time=0),
    MetaMessage('set_tempo', tempo=895520, time=0),
    Message('sysex', data=(126, 127, 9, 1), time=0),
    Message('program_change', channel=1, program=35, time=103),
    Message('control_change', channel=1, control=7, value=80, time=1),
    Message('control_change', channel=1, control=10, value=64, time=0),
    Message('control_change', channel=1, control=11, value=127, time=0),
    Message('control_change', channel=1, control=91, value=18, time=1),
    Message('control_change', channel=1, control=93, value=80, time=0),
    Message('program_change', channel=2, program=0, time=3),
    Message('control_change', channel=2, control=7, value=100, time=1),
    Message('control_change', channel=2, control=10, value=55, time=0),
    Message('control_change', channel=2, control=11, value=127, time=0),
    Message('control_change', channel=2, control=91, value=85, time=1),
    Message('control_change', channel=2, control=93, value=0, time=0),
    Message('program_change', channel=3, program=0, time=3),
    Message('control_change', channel=3, control=7, value=100, time=1),
    Message('control_change', channel=3, control=10, value=70, time=0),
    Message('control_change', channel=3, control=11, value=127, time=0),
    Message('control_change', channel=3, control=91, value=80, time=1),
    Message('control_change', channel=3, control=93, value=0, time=0),
    Message('program_change', channel=4, program=49, time=3),
    Message('control_change', channel=4, control=7, value=70, time=1),
    Message('control_change', channel=4, control=10, value=110, time=0),
    Message('control_change', channel=4, control=11, value=127, time=0),
    Message('control_change', channel=4, control=91, value=110, time=1),
    Message('control_change', channel=4, control=93, value=0, time=0),
    Message('program_change', channel=5, program=49, time=3),
    Message('control_change', channel=5, control=7, value=70, time=1),
    Message('control_change', channel=5, control=10, value=14, time=0),
    Message('control_change', channel=5, control=11, value=127, time=0),
    Message('control_change', channel=5, control=91, value=110, time=1),
    Message('control_change', channel=5, control=93, value=0, time=0),
    Message('program_change', channel=6, program=30, time=3),
    Message('control_change', channel=6, control=7, value=100, time=1),
    Message('control_change', channel=6, control=10, value=94, time=0),
    Message('control_change', channel=6, control=11, value=10, time=0),
    Message('control_change', channel=6, control=91, value=100, time=1),
    Message('control_change', channel=6, control=93, value=0, time=0),
    Message('program_change', channel=7, program=25, time=3),
    Message('control_change', channel=7, control=7, value=91, time=1),
    Message('control_change', channel=7, control=10, value=36, time=0),
    Message('control_change', channel=7, control=11, value=127, time=0),
    Message('control_change', channel=7, control=91, value=90, time=1),
    Message('control_change', channel=7, control=93, value=40, time=0),
    Message('control_change', channel=9, control=7, value=60, time=9),
    Message('control_change', channel=9, control=11, value=127, time=0),
    Message('control_change', channel=9, control=91, value=100, time=1),
    Message('control_change', channel=9, control=93, value=0, time=0),
    Message('control_change', channel=6, control=101, value=0, time=47),
    Message('control_change', channel=6, control=100, value=0, time=1),
    Message('control_change', channel=6, control=6, value=12, time=1),
    Message('control_change', channel=6, control=101, value=127, time=1),
    Message('control_change', channel=6, control=100, value=127, time=1),
    MetaMessage('time_signature', numerator=4, denominator=4, clocks_per_click=24, notated_32nd_notes_per_beat=8, time=188),
    Message('note_on', channel=9, note=42, velocity=127, time=0),
    Message('note_off', channel=9, note=42, velocity=127, time=1),
    Message('note_on', channel=9, note=42, velocity=87, time=95),
    Message('note_off', channel=9, note=42, velocity=87, time=1),
    Message('note_on', channel=9, note=42, velocity=89, time=95),
    Message('note_off', channel=9, note=42, velocity=89, time=1),
    Message('note_on', channel=9, note=42, velocity=89, time=95),
    Message('note_off', channel=9, note=42, velocity=89, time=1),
    Message('note_on', channel=7, note=55, velocity=57, time=89),
    Message('note_on', channel=7, note=58, velocity=51, time=4),
    Message('note_on', channel=2, note=58, velocity=42, time=2),
    Message('note_on', channel=2, note=62, velocity=63, time=0),
    Message('note_on', channel=4, note=55, velocity=62, time=0),
    Message('note_on', channel=5, note=70, velocity=54, time=0),
    Message('note_on', channel=5, note=62, velocity=54, time=0),
    Message('note_on', channel=9, note=36, velocity=109, time=0),
    Message('note_on', channel=2, note=55, velocity=56, time=1),
    Message('note_off', channel=9, note=36, velocity=109, time=0),
    Message('control_change', channel=2, control=64, value=127, time=1),
    Message('note_on', channel=7, note=62, velocity=52, time=0),
    Message('note_on', channel=7, note=67, velocity=58, time=4),
    Message('note_off', channel=2, note=62, velocity=63, time=30),
    Message('note_off', channel=2, note=58, velocity=42, time=1),
    Message('note_off', channel=2, note=55, velocity=56, time=7),
    Message('note_on', channel=3, note=67, velocity=64, time=4),
    Message('note_on', channel=3, note=70, velocity=68, time=24),
    Message('note_on', channel=2, note=55, velocity=59, time=24),
    Message('note_on', channel=2, note=58, velocity=59, time=0),
    Message('note_on', channel=2, note=62, velocity=61, time=1),
    Message('note_off', channel=3, note=67, velocity=64, time=2),
    Message('note_off', channel=3, note=70, velocity=68, time=15),
    Message('note_off', channel=2, note=62, velocity=61, time=9),
    Message('note_off', channel=2, note=58, velocity=59, time=1),
    Message('note_off', channel=2, note=55, velocity=59, time=2),
    Message('note_on', channel=3, note=67, velocity=61, time=17),
    Message('note_on', channel=9, note=36, velocity=64, time=2),
    Message('note_off', channel=9, note=36, velocity=64, time=1),
    Message('note_off', channel=7, note=55, velocity=57, time=1),
    Message('note_off', channel=7, note=58, velocity=51, time=18),
    Message('note_off', channel=7, note=67, velocity=58, time=1),
    Message('note_on', channel=3, note=70, velocity=62, time=2),
    Message('note_off', channel=7, note=62, velocity=52, time=0),
    Message('note_off', channel=3, note=67, velocity=61, time=3),
    Message('note_on', channel=7, note=53, velocity=65, time=15),
    Message('note_on', channel=4, note=53, velocity=57, time=4),
    Message('note_on', channel=7, note=58, velocity=55, time=0),
    Message('note_on', channel=2, note=58, velocity=46, time=2),
    Message('note_on', channel=2, note=62, velocity=62, time=0),
    Message('note_on', channel=9, note=36, velocity=113, time=0),
    Message('note_on', channel=2, note=53, velocity=37, time=1),
    Message('note_off', channel=9, note=36, velocity=113, time=0),
    Message('note_on', channel=7, note=62, velocity=59, time=1),
    Message('note_on', channel=7, note=67, velocity=55, time=3),
    Message('control_change', channel=2, control=64, value=0, time=2),
    Message('note_off', channel=4, note=55, velocity=62, time=4),
    Message('control_change', channel=2, control=64, value=127, time=16),
    Message('note_off', channel=2, note=62, velocity=62, time=8),
    Message('note_off', channel=2, note=58, velocity=46, time=3),
    Message('note_off', channel=3, note=70, velocity=62, time=2),
    Message('note_on', channel=3, note=67, velocity=58, time=7),
    Message('note_off', channel=2, note=53, velocity=37, time=3),
    Message('note_on', channel=2, note=58, velocity=49, time=45),
    Message('note_off', channel=3, note=67, velocity=58, time=0),
    Message('note_on', channel=3, note=70, velocity=67, time=0),
    Message('note_on', channel=2, note=62, velocity=65, time=1),
    Message('note_on', channel=2, note=53, velocity=47, time=0),
    Message('note_off', channel=2, note=62, velocity=65, time=32),
    Message('note_off', channel=2, note=53, velocity=47, time=4),
    Message('note_off', channel=2, note=58, velocity=49, time=2),
    Message('note_off', channel=7, note=53, velocity=65, time=34),
    Message('note_off', channel=7, note=67, velocity=55, time=4),
    Message('note_off', channel=7, note=58, velocity=55, time=0),
    Message('note_off', channel=7, note=62, velocity=59, time=1),
    Message('note_on', channel=7, note=52, velocity=55, time=12),
    Message('note_on', channel=4, note=52, velocity=59, time=2),
    Message('note_off', channel=4, note=53, velocity=57, time=1),
    Message('note_on', channel=5, note=64, velocity=61, time=1),
    Message('note_on', channel=7, note=55, velocity=56, time=0),
    Message('note_on', channel=9, note=36, velocity=94, time=0),
    Message('note_off', channel=9, note=36, velocity=94, time=1),
    Message('note_on', channel=3, note=67, velocity=70, time=1),
    Message('note_on', channel=2, note=58, velocity=32, time=1),
    Message('note_on', channel=2, note=60, velocity=64, time=0),
    Message('note_off', channel=5, note=62, velocity=54, time=0),
    Message('note_on', channel=2, note=52, velocity=53, time=1),
    Message('note_off', channel=3, note=70, velocity=67, time=0),
    Message('note_on', channel=7, note=60, velocity=44, time=0),
    Message('note_on', channel=7, note=67, velocity=60, time=4),
    Message('control_change', channel=2, control=64, value=0, time=7),
    Message('note_off', channel=3, note=67, velocity=70, time=18),
    Message('control_change', channel=2, control=64, value=127, time=3),
    Message('note_off', channel=2, note=60, velocity=64, time=7),
    Message('note_off', channel=2, note=58, velocity=32, time=1),
    Message('note_on', channel=3, note=70, velocity=71, time=7),
    Message('note_off', channel=2, note=52, velocity=53, time=12),
    Message('note_on', channel=3, note=72, velocity=73, time=12),
    Message('note_on', channel=2, note=52, velocity=46, time=25),
    Message('note_on', channel=2, note=58, velocity=41, time=0),
    Message('note_on', channel=2, note=60, velocity=59, time=0),
    Message('note_off', channel=3, note=70, velocity=71, time=0),
    Message('control_change', channel=2, control=64, value=0, time=10),
    Message('control_change', channel=2, control=64, value=127, time=15),
    Message('note_off', channel=2, note=52, velocity=46, time=8),
    Message('note_off', channel=2, note=60, velocity=59, time=12),
    Message('note_on', channel=9, note=36, velocity=63, time=2),
    Message('note_off', channel=2, note=58, velocity=41, time=1),
    Message('note_off', channel=9, note=36, velocity=63, time=0),
    Message('note_off', channel=7, note=52, velocity=55, time=11),
    Message('note_off', channel=7, note=60, velocity=44, time=12),
    Message('note_off', channel=7, note=55, velocity=56, time=6),
    Message('note_off', channel=7, note=67, velocity=60, time=5),
    Message('control_change', channel=2, control=64, value=0, time=9),
    Message('note_on', channel=7, note=48, velocity=71, time=0),
    Message('note_on', channel=2, note=48, velocity=65, time=3),
    Message('note_on', channel=9, note=36, velocity=109, time=1),
    Message('note_off', channel=9, note=36, velocity=109, time=1),
    Message('control_change', channel=2, control=64, value=127, time=15),
    Message('note_on', channel=7, note=52, velocity=66, time=5),
    Message('note_on', channel=2, note=52, velocity=58, time=2),
    Message('note_off', channel=2, note=48, velocity=65, time=22),
    Message('note_on', channel=7, note=55, velocity=58, time=0),
    Message('note_on', channel=2, note=55, velocity=75, time=2),
    Message('note_off', channel=2, note=52, velocity=58, time=12),
    Message('note_on', channel=7, note=58, velocity=74, time=9),
    Message('note_on', channel=2, note=58, velocity=72, time=4),
    Message('note_off', channel=2, note=55, velocity=75, time=5),
    Message('control_change', channel=7, control=1, value=14, time=10),
    Message('note_off', channel=3, note=72, velocity=73, time=5),
    Message('control_change', channel=7, control=1, value=61, time=4),
    Message('control_change', channel=7, control=1, value=94, time=8),
    Message('control_change', channel=7, control=1, value=0, time=8),
    Message('note_off', channel=7, note=55, velocity=58, time=1),
    Message('note_on', channel=7, note=55, velocity=50, time=4),
    Message('note_on', channel=2, note=55, velocity=68, time=3),
    Message('note_off', channel=2, note=58, velocity=72, time=1),
    Message('note_off', channel=7, note=58, velocity=74, time=11),
    Message('note_on', channel=7, note=60, velocity=50, time=9),
    Message('note_off', channel=2, note=55, velocity=68, time=1),
    Message('note_on', channel=2, note=60, velocity=73, time=2),
    Message('note_off', channel=7, note=48, velocity=71, time=14),
    Message('note_off', channel=2, note=60, velocity=73, time=2),
    Message('note_off', channel=5, note=70, velocity=54, time=8),
    Message('note_off', channel=7, note=52, velocity=66, time=3),
    Message('note_off', channel=7, note=55, velocity=50, time=2),
    Message('note_off', channel=5, note=64, velocity=61, time=9),
    Message('control_change', channel=2, control=64, value=0, time=3),
    Message('note_off', channel=4, note=52, velocity=59, time=0),
    Message('note_off', channel=7, note=60, velocity=50, time=0),
    Message('note_on', channel=7, note=55, velocity=57, time=1),
    Message('note_on', channel=4, note=55, velocity=53, time=2),
    Message('note_on', channel=7, note=58, velocity=51, time=2),
    Message('note_on', channel=2, note=55, velocity=56, time=1),
    Message('note_on', channel=2, note=58, velocity=50, time=0),
    Message('note_on', channel=2, note=62, velocity=78, time=0),
    Message('note_on', channel=5, note=62, velocity=60, time=0),
    Message('note_on', channel=5, note=70, velocity=52, time=0),
    Message('note_on', channel=9, note=36, velocity=113, time=1),
    Message('note_off', channel=9, note=36, velocity=113, time=1),
    Message('note_on', channel=7, note=62, velocity=52, time=1),
    Message('note_on', channel=7, note=67, velocity=58, time=4),
    Message('control_change', channel=2, control=64, value=127, time=12),
    Message('note_off', channel=2, note=62, velocity=78, time=19),
    Message('note_off', channel=2, note=58, velocity=50, time=4),
    Message('note_off', channel=2, note=55, velocity=56, time=4),
    Message('note_on', channel=3, note=70, velocity=73, time=3),
    Message('note_off', channel=3, note=70, velocity=73, time=23),
    Message('note_on', channel=3, note=67, velocity=65, time=1),
    Message('note_on', channel=2, note=55, velocity=49, time=23),
    Message('note_on', channel=2, note=58, velocity=56, time=0),
    Message('note_on', channel=2, note=62, velocity=58, time=0),
    Message('note_on', channel=3, note=70, velocity=71, time=1),
    Message('note_off', channel=3, note=67, velocity=65, time=4),
    Message('control_change', channel=2, control=64, value=0, time=5),
    Message('control_change', channel=2, control=64, value=127, time=17),
    Message('note_off', channel=2, note=62, velocity=58, time=10),
    Message('note_off', channel=2, note=58, velocity=56, time=0),
    Message('note_off', channel=2, note=55, velocity=49, time=5),
    Message('note_off', channel=3, note=70, velocity=71, time=6),
    Message('note_on', channel=9, note=36, velocity=79, time=0),
    Message('note_on', channel=3, note=67, velocity=79, time=1),
    Message('note_off', channel=9, note=36, velocity=79, time=0),
    Message('note_off', channel=7, note=55, velocity=57, time=6),
    Message('note_off', channel=7, note=58, velocity=51, time=7),
    Message('note_off', channel=7, note=62, velocity=52, time=11),
    Message('note_off', channel=7, note=67, velocity=58, time=2),
    Message('note_on', channel=7, note=53, velocity=65, time=16),
    Message('note_off', channel=4, note=55, velocity=53, time=4),
    Message('note_on', channel=4, note=53, velocity=61, time=0),
    Message('note_on', channel=7, note=58, velocity=55, time=0),
    Message('note_on', channel=2, note=62, velocity=54, time=1),
    Message('note_on', channel=9, note=36, velocity=127, time=0),
    Message('note_on', channel=2, note=53, velocity=56, time=1),
    Message('note_on', channel=2, note=58, velocity=50, time=0),
    Message('note_off', channel=9, note=36, velocity=127, time=0),
    Message('note_on', channel=7, note=62, velocity=59, time=2),
    Message('note_on', channel=7, note=67, velocity=55, time=3),
    Message('note_off', channel=3, note=67, velocity=79, time=1),
    Message('control_change', channel=2, control=64, value=0, time=4),
    Message('control_change', channel=2, control=64, value=127, time=19),
    Message('note_off', channel=2, note=62, velocity=54, time=7),
    Message('note_off', channel=2, note=58, velocity=50, time=4),
    Message('note_off', channel=2, note=53, velocity=56, time=10),
    Message('note_on', channel=3, note=70, velocity=72, time=45),
    Message('note_on', channel=2, note=53, velocity=50, time=1),
    Message('note_on', channel=2, note=58, velocity=52, time=0),
    Message('note_on', channel=2, note=62, velocity=74, time=0),
    Message('control_change', channel=2, control=64, value=0, time=12),
    Message('note_off', channel=3, note=70, velocity=72, time=9),
    Message('note_on', channel=3, note=72, velocity=65, time=2),
    Message('control_change', channel=2, control=64, value=127, time=8),
    Message('note_off', channel=2, note=62, velocity=74, time=2),
    Message('note_off', channel=2, note=58, velocity=52, time=1),
    Message('note_off', channel=2, note=53, velocity=50, time=1),
    Message('note_on', channel=3, note=70, velocity=73, time=12),
    Message('note_off', channel=3, note=72, velocity=65, time=1),
    Message('note_off', channel=3, note=70, velocity=73, time=22),
    Message('note_on', channel=3, note=72, velocity=80, time=1),
    Message('note_off', channel=7, note=67, velocity=55, time=5),
    Message('note_off', channel=7, note=62, velocity=59, time=1),
    Message('note_off', channel=7, note=53, velocity=65, time=0),
    Message('note_off', channel=7, note=58, velocity=55, time=1),
    Message('note_on', channel=7, note=52, velocity=55, time=11),
    Message('note_on', channel=5, note=64, velocity=70, time=2),
    Message('note_on', channel=4, note=52, velocity=70, time=1),
    Message('note_off', channel=5, note=62, velocity=60, time=0),
    Message('note_on', channel=7, note=55, velocity=56, time=1),
    Message('note_on', channel=2, note=58, velocity=39, time=2),
    Message('note_off', channel=4, note=53, velocity=61, time=0),
    Message('note_on', channel=9, note=36, velocity=111, time=0),
    Message('note_on', channel=2, note=52, velocity=61, time=1),
    Message('note_on', channel=2, note=60, velocity=65, time=0),
    Message('note_off', channel=9, note=36, velocity=111, time=0),
    Message('note_on', channel=7, note=60, velocity=44, time=1),
    Message('note_on', channel=7, note=67, velocity=60, time=4),
    Message('control_change', channel=2, control=64, value=0, time=4),
    Message('control_change', channel=2, control=64, value=127, time=20),
    Message('note_off', channel=2, note=60, velocity=65, time=4),
    Message('note_off', channel=2, note=58, velocity=39, time=1),
    Message('note_off', channel=2, note=52, velocity=61, time=4),
    Message('note_on', channel=2, note=52, velocity=51, time=58),
    Message('note_on', channel=2, note=58, velocity=36, time=0),
    Message('note_on', channel=2, note=60, velocity=59, time=0),
    Message('control_change', channel=2, control=64, value=0, time=10),
    Message('control_change', channel=2, control=64, value=127, time=17),
    Message('note_off', channel=2, note=52, velocity=51, time=6),
    Message('note_off', channel=2, note=60, velocity=59, time=3),
    Message('note_off', channel=2, note=58, velocity=36, time=3),
    Message('note_on', channel=9, note=36, velocity=68, time=8),
    Message('note_off', channel=9, note=36, velocity=68, time=1),
    Message('note_off', channel=7, note=52, velocity=55, time=12),
    Message('note_off', channel=7, note=60, velocity=44, time=12),
    Message('note_off', channel=7, note=55, velocity=56, time=6),
    Message('note_off', channel=7, note=67, velocity=60, time=5),
    Message('note_on', channel=4, note=48, velocity=63, time=10),
    Message('note_off', channel=4, note=52, velocity=70, time=1),
    Message('note_on', channel=7, note=60, velocity=73, time=0),
    Message('note_on', channel=9, note=36, velocity=127, time=0),
    Message('note_on', channel=2, note=48, velocity=60, time=1),
    Message('note_off', channel=9, note=36, velocity=127, time=0),
    Message('note_off', channel=3, note=72, velocity=80, time=4),
    Message('control_change', channel=2, control=64, value=0, time=2),
    Message('note_on', channel=7, note=64, velocity=65, time=15),
    Message('note_on', channel=2, note=52, velocity=74, time=3),
    Message('control_change', channel=2, control=64, value=127, time=0),
    Message('note_off', channel=2, note=48, velocity=60, time=1),
    Message('note_off', channel=7, note=60, velocity=73, time=20),
    Message('note_on', channel=7, note=67, velocity=73, time=1),
    Message('note_on', channel=2, note=55, velocity=76, time=2),
    Message('note_off', channel=7, note=64, velocity=65, time=4),
    Message('note_off', channel=2, note=52, velocity=74, time=2),
    Message('note_off', channel=7, note=67, velocity=73, time=2),
    Message('note_on', channel=7, note=70, velocity=72, time=14),
    Message('note_on', channel=2, note=58, velocity=73, time=2),
    Message('note_off', channel=2, note=55, velocity=76, time=6),
    Message('note_on', channel=9, note=44, velocity=60, time=17),
    Message('note_off', channel=9, note=44, velocity=60, time=1),
    Message('control_change', channel=7, control=1, value=49, time=4),
    Message('control_change', channel=7, control=1, value=89, time=8),
    Message('control_change', channel=7, control=1, value=0, time=8),
    Message('note_on', channel=7, note=69, velocity=53, time=1),
    Message('note_on', channel=9, note=44, velocity=52, time=1),
    Message('note_off', channel=9, note=44, velocity=52, time=1),
    Message('note_off', channel=2, note=58, velocity=73, time=3),
    Message('note_on', channel=2, note=57, velocity=58, time=0),
    Message('note_off', channel=2, note=57, velocity=58, time=17),
    Message('note_on', channel=9, note=46, velocity=89, time=3),
    Message('note_on', channel=7, note=67, velocity=63, time=1),
    Message('note_off', channel=9, note=46, velocity=89, time=0),
    Message('note_on', channel=2, note=55, velocity=59, time=2),
    Message('note_off', channel=4, note=48, velocity=63, time=2),
    Message('note_on', channel=4, note=50, velocity=91, time=1),
    Message('note_off', channel=5, note=70, velocity=52, time=10),
    Message('note_off', channel=2, note=55, velocity=59, time=2),
    Message('note_off', channel=7, note=69, velocity=53, time=22),
    Message('note_off', channel=7, note=67, velocity=63, time=4),
    Message('note_off', channel=7, note=70, velocity=72, time=0),
    Message('note_on', channel=7, note=51, velocity=55, time=0),
    Message('note_on', channel=5, note=67, velocity=61, time=1),
    Message('note_on', channel=5, note=70, velocity=54, time=1),
    Message('note_off', channel=5, note=64, velocity=70, time=1),
    Message('note_on', channel=7, note=58, velocity=56, time=1),
    Message('note_on', channel=9, note=36, velocity=107, time=1),
    Message('note_off', channel=9, note=36, velocity=107, time=1),
    Message('note_on', channel=2, note=51, velocity=53, time=1),
    Message('note_on', channel=2, note=55, velocity=59, time=0),
    Message('note_on', channel=2, note=58, velocity=62, time=1),
    Message('note_on', channel=7, note=63, velocity=44, time=0),
    Message('note_on', channel=4, note=51, velocity=72, time=1),
    Message('note_off', channel=4, note=50, velocity=91, time=1),
    Message('control_change', channel=2, control=64, value=0, time=2),
    Message('note_on', channel=7, note=67, velocity=60, time=0),
    Message('note_off', channel=2, note=55, velocity=59, time=19),
    Message('control_change', channel=2, control=64, value=127, time=4),
    Message('note_off', channel=2, note=58, velocity=62, time=7),
    Message('note_off', channel=2, note=51, velocity=53, time=5),
    Message('note_on', channel=3, note=67, velocity=60, time=7),
    Message('note_off', channel=3, note=67, velocity=60, time=10),
    Message('note_on', channel=3, note=67, velocity=69, time=14),
    Message('note_on', channel=3, note=70, velocity=76, time=24),
    Message('note_on', channel=2, note=51, velocity=51, time=1),
    Message('note_on', channel=2, note=55, velocity=52, time=0),
    Message('note_on', channel=2, note=58, velocity=51, time=0),
    Message('note_on', channel=9, note=44, velocity=110, time=0),
    Message('note_off', channel=9, note=44, velocity=110, time=1),
    Message('note_off', channel=3, note=67, velocity=69, time=4),
    Message('control_change', channel=2, control=64, value=0, time=6),
    Message('note_off', channel=3, note=70, velocity=76, time=0),
    Message('note_on', channel=3, note=70, velocity=82, time=12),
    Message('control_change', channel=2, control=64, value=127, time=7),
    Message('note_off', channel=2, note=51, velocity=51, time=2),
    Message('note_off', channel=2, note=58, velocity=51, time=2),
    Message('note_off', channel=2, note=55, velocity=52, time=1),
    Message('note_on', channel=3, note=74, velocity=102, time=12),
    Message('note_on', channel=9, note=36, velocity=80, time=1),
    Message('note_off', channel=9, note=36, velocity=80, time=1),
    Message('note_off', channel=3, note=70, velocity=82, time=8),
    Message('note_off', channel=7, note=51, velocity=55, time=3),
    Message('note_off', channel=7, note=63, velocity=44, time=12),
    Message('note_off', channel=7, note=58, velocity=56, time=6),
    Message('note_off', channel=7, note=67, velocity=60, time=5),
    Message('note_off', channel=5, note=67, velocity=61, time=1),
    Message('note_on', channel=5, note=65, velocity=74, time=2),
    Message('note_off', channel=4, note=51, velocity=72, time=2),
    Message('note_on', channel=4, note=50, velocity=66, time=0),
    Message('note_on', channel=7, note=50, velocity=65, time=2),
    Message('note_on', channel=2, note=58, velocity=63, time=4),
    Message('note_on', channel=7, note=53, velocity=55, time=0),
    Message('note_on', channel=2, note=50, velocity=50, time=1),
    Message('note_on', channel=2, note=53, velocity=55, time=0),
    Message('note_on', channel=3, note=77, velocity=99, time=0),
    Message('note_off', channel=3, note=74, velocity=102, time=1),
    Message('note_on', channel=9, note=36, velocity=127, time=0),
    Message('note_off', channel=9, note=36, velocity=127, time=1),
    Message('control_change', channel=2, control=64, value=0, time=1),
    Message('note_on', channel=7, note=58, velocity=59, time=0),
    Message('note_on', channel=7, note=65, velocity=55, time=3),
    Message('control_change', channel=2, control=64, value=127, time=20),
    Message('note_off', channel=2, note=53, velocity=55, time=10),
    Message('note_off', channel=2, note=50, velocity=50, time=1),
    Message('note_off', channel=2, note=58, velocity=63, time=1),
    Message('note_on', channel=2, note=50, velocity=49, time=58),
    Message('note_on', channel=2, note=53, velocity=48, time=0),
    Message('note_on', channel=2, note=58, velocity=59, time=0),
    Message('note_on', channel=9, note=44, velocity=91, time=0),
    Message('note_off', channel=9, note=44, velocity=91, time=1),
    Message('control_change', channel=2, control=64, value=0, time=1),
    Message('control_change', channel=2, control=64, value=127, time=18),
    Message('note_off', channel=2, note=58, velocity=59, time=10),
    Message('note_off', channel=2, note=50, velocity=49, time=3),
    Message('note_off', channel=2, note=53, velocity=48, time=1),
    Message('note_on', channel=3, note=82, velocity=96, time=14),
    Message('note_off', channel=3, note=77, velocity=99, time=18),
    Message('note_off', channel=7, note=50, velocity=65, time=7),
    Message('note_off', channel=7, note=65, velocity=55, time=4),
    Message('note_off', channel=7, note=53, velocity=55, time=0),
    Message('note_off', channel=7, note=58, velocity=59, time=1),
    Message('note_on', channel=7, note=48, velocity=55, time=12),
    Message('note_on', channel=5, note=63, velocity=68, time=2),
    Message('note_off', channel=5, note=65, velocity=74, time=1),
    Message('note_on', channel=7, note=55, velocity=56, time=1),
    Message('note_on', channel=4, note=48, velocity=74, time=1),
    Message('note_off', channel=4, note=50, velocity=66, time=1),
    Message('note_on', channel=9, note=36, velocity=127, time=0),
    Message('note_on', channel=2, note=48, velocity=44, time=1),
    Message('note_on', channel=2, note=51, velocity=47, time=0),
    Message('note_on', channel=2, note=55, velocity=47, time=0),
    Message('note_off', channel=9, note=36, velocity=127, time=0),
    Message('note_on', channel=7, note=60, velocity=44, time=1),
    Message('note_on', channel=7, note=63, velocity=60, time=4),
    Message('control_change', channel=2, control=64, value=0, time=2),
    Message('control_change', channel=2, control=64, value=127, time=18),
    Message('note_off', channel=2, note=55, velocity=47, time=9),
    Message('note_off', channel=2, note=51, velocity=47, time=14),
    Message('note_off', channel=2, note=48, velocity=44, time=0),
    Message('note_on', channel=3, note=74, velocity=83, time=0),
    Message('note_off', channel=3, note=82, velocity=96, time=11),
    Message('note_off', channel=3, note=74, velocity=83, time=13),
    Message('note_on', channel=3, note=72, velocity=67, time=1),
    Message('note_on', channel=2, note=55, velocity=58, time=22),
    Message('note_on', channel=2, note=48, velocity=52, time=0),
    Message('note_on', channel=2, note=51, velocity=52, time=0),
    Message('note_on', channel=9, note=44, velocity=80, time=1),
    Message('note_on', channel=3, note=70, velocity=60, time=1),
    Message('note_off', channel=9, note=44, velocity=80, time=0),
    Message('control_change', channel=2, control=64, value=0, time=1),
    Message('note_off', channel=3, note=72, velocity=67, time=0),
    Message('control_change', channel=2, control=64, value=127, time=17),
    Message('note_off', channel=2, note=51, velocity=52, time=21),
    Message('note_off', channel=2, note=48, velocity=52, time=1),
    Message('note_off', channel=2, note=55, velocity=58, time=4),
    Message('note_off', channel=3, note=70, velocity=60, time=3),
    Message('note_on', channel=3, note=72, velocity=73, time=0),
    Message('note_on', channel=9, note=36, velocity=81, time=0),
    Message('note_off', channel=9, note=36, velocity=81, time=1),
    Message('note_off', channel=7, note=48, velocity=55, time=11),
    Message('note_off', channel=7, note=60, velocity=44, time=12),
    Message('note_off', channel=7, note=55, velocity=56, time=6),
    Message('note_off', channel=7, note=63, velocity=60, time=5),
    Message('note_on', channel=4, note=46, velocity=63, time=7),
    Message('note_off', channel=4, note=48, velocity=74, time=2),
    Message('note_on', channel=7, note=46, velocity=71, time=0),
    Message('note_on', channel=9, note=36, velocity=127, time=2),
    Message('note_off', channel=9, note=36, velocity=127, time=1),
    Message('note_on', channel=2, note=51, velocity=46, time=2),
    Message('note_on', channel=2, note=55, velocity=58, time=0),
    Message('note_on', channel=2, note=46, velocity=46, time=0),
    Message('control_change', channel=2, control=64, value=0, time=10),
    Message('note_off', channel=3, note=72, velocity=73, time=2),
    Message('note_on', channel=7, note=51, velocity=66, time=8),
    Message('control_change', channel=2, control=64, value=127, time=10),
    Message('note_off', channel=2, note=51, velocity=46, time=6),
    Message('note_off', channel=2, note=55, velocity=58, time=2),
    Message('note_off', channel=2, note=46, velocity=46, time=4),
    Message('note_on', channel=7, note=55, velocity=58, time=2),
    Message('note_on', channel=3, note=67, velocity=75, time=3),
    Message('note_on', channel=7, note=53, velocity=74, time=20),
    Message('note_on', channel=3, note=65, velocity=74, time=3),
    Message('note_off', channel=3, note=67, velocity=75, time=1),
    Message('note_off', channel=7, note=51, velocity=66, time=21),
    Message('note_on', channel=7, note=58, velocity=68, time=0),
    Message('note_on', channel=2, note=46, velocity=58, time=3),
    Message('note_on', channel=2, note=55, velocity=69, time=0),
    Message('note_on', channel=3, note=70, velocity=70, time=0),
    Message('note_on', channel=9, note=44, velocity=110, time=0),
    Message('note_on', channel=2, note=51, velocity=52, time=1),
    Message('note_off', channel=9, note=44, velocity=110, time=0),
    Message('note_off', channel=3, note=65, velocity=74, time=2),
    Message('control_change', channel=2, control=64, value=0, time=14),
    Message('note_off', channel=7, note=55, velocity=58, time=0),
    Message('control_change', channel=2, control=64, value=127, time=16),
    Message('note_off', channel=7, note=53, velocity=74, time=4),
    Message('note_off', channel=2, note=46, velocity=58, time=6),
    Message('note_off', channel=3, note=70, velocity=70, time=1),
    Message('note_on', channel=7, note=53, velocity=66, time=1),
    Message('note_off', channel=2, note=51, velocity=52, time=1),
    Message('note_on', channel=3, note=65, velocity=59, time=2),
    Message('note_off', channel=2, note=55, velocity=69, time=3),
    Message('note_off', channel=7, note=46, velocity=71, time=11),
    Message('note_off', channel=7, note=58, velocity=68, time=3),
    Message('note_off', channel=3, note=65, velocity=59, time=15),
    Message('note_off', channel=7, note=53, velocity=66, time=5),
    Message('note_on', channel=7, note=45, velocity=57, time=5),
    Message('note_on', channel=4, note=45, velocity=70, time=4),
    Message('note_on', channel=7, note=53, velocity=51, time=0),
    Message('note_on', channel=2, note=53, velocity=58, time=2),
    Message('note_on', channel=3, note=65, velocity=85, time=0),
    Message('note_off', channel=5, note=70, velocity=54, time=0),
    Message('note_on', channel=9, note=36, velocity=118, time=0),
    Message('note_on', channel=2, note=45, velocity=49, time=1),
    Message('note_on', channel=2, note=48, velocity=36, time=0),
    Message('note_off', channel=9, note=36, velocity=118, time=0),
    Message('note_off', channel=4, note=46, velocity=63, time=1),
    Message('note_on', channel=5, note=60, velocity=61, time=0),
    Message('note_on', channel=5, note=65, velocity=72, time=0),
    Message('note_on', channel=7, note=60, velocity=52, time=0),
    Message('note_off', channel=5, note=63, velocity=68, time=4),
    Message('note_on', channel=7, note=65, velocity=58, time=0),
    Message('control_change', channel=2, control=64, value=0, time=11),
    Message('control_change', channel=2, control=64, value=127, time=21),
    Message('note_on', channel=3, note=60, velocity=84, time=10),
    Message('note_off', channel=3, note=65, velocity=85, time=6),
    Message('note_off', channel=2, note=48, velocity=36, time=1),
    Message('note_off', channel=2, note=53, velocity=58, time=2),
    Message('note_off', channel=2, note=45, velocity=49, time=2),
    Message('note_on', channel=3, note=65, velocity=84, time=12),
    Message('note_off', channel=3, note=60, velocity=84, time=9),
    Message('note_on', channel=2, note=53, velocity=57, time=15),
    Message('note_on', channel=3, note=69, velocity=80, time=0),
    Message('note_on', channel=9, note=44, velocity=113, time=0),
    Message('note_on', channel=2, note=45, velocity=33, time=1),
    Message('note_on', channel=2, note=48, velocity=42, time=0),
    Message('note_off', channel=9, note=44, velocity=113, time=0),
    Message('note_off', channel=3, note=65, velocity=84, time=17),
    Message('note_on', channel=3, note=72, velocity=78, time=7),
    Message('note_off', channel=3, note=69, velocity=80, time=11),
    Message('note_off', channel=2, note=48, velocity=42, time=1),
    Message('note_off', channel=2, note=45, velocity=33, time=3),
    Message('note_off', channel=2, note=53, velocity=57, time=1),
    Message('note_on', channel=9, note=36, velocity=80, time=7),
    Message('note_off', channel=9, note=36, velocity=80, time=1),
    Message('note_off', channel=7, note=45, velocity=57, time=6),
    Message('note_off', channel=7, note=53, velocity=51, time=7),
    Message('note_off', channel=7, note=60, velocity=52, time=11),
    Message('note_off', channel=7, note=65, velocity=58, time=2),
    Message('note_off', channel=3, note=72, velocity=78, time=15),
    Message('note_on', channel=7, note=45, velocity=65, time=1),
    Message('note_on', channel=7, note=60, velocity=67, time=4),
    Message('note_on', channel=2, note=45, velocity=41, time=1),
    Message('note_on', channel=2, note=48, velocity=39, time=0),
    Message('note_on', channel=2, note=53, velocity=62, time=0),
    Message('note_on', channel=3, note=69, velocity=75, time=0),
    Message('note_off', channel=4, note=45, velocity=70, time=0),
    Message('note_on', channel=9, note=36, velocity=127, time=0),
    Message('note_off', channel=9, note=36, velocity=127, time=1),
    Message('note_on', channel=4, note=48, velocity=61, time=1),
    Message('note_on', channel=7, note=65, velocity=68, time=1),
    Message('note_on', channel=7, note=72, velocity=75, time=3),
    Message('control_change', channel=2, control=64, value=0, time=5),
    Message('note_off', channel=3, note=69, velocity=75, time=13),
    Message('note_on', channel=3, note=65, velocity=68, time=0),
    Message('control_change', channel=2, control=64, value=127, time=4),
    Message('note_off', channel=2, note=48, velocity=39, time=15),
    Message('note_off', channel=3, note=65, velocity=68, time=4),
    Message('note_off', channel=2, note=53, velocity=62, time=1),
    Message('note_on', channel=3, note=60, velocity=56, time=0),
    Message('note_off', channel=2, note=45, velocity=41, time=3),
    Message('note_on', channel=3, note=65, velocity=83, time=21),
    Message('note_on', channel=3, note=69, velocity=69, time=0),
    Message('note_off', channel=3, note=60, velocity=56, time=7),
    Message('note_on', channel=2, note=48, velocity=43, time=17),
    Message('note_on', channel=2, note=53, velocity=64, time=0),
    Message('note_on', channel=9, note=44, velocity=127, time=0),
    Message('note_on', channel=2, note=45, velocity=45, time=1),
    Message('note_off', channel=9, note=44, velocity=127, time=0),
    Message('control_change', channel=2, control=64, value=0, time=21),
    Message('note_on', channel=3, note=60, velocity=65, time=2),
    Message('note_off', channel=3, note=65, velocity=83, time=4),
    Message('control_change', channel=2, control=64, value=127, time=9),
    Message('note_off', channel=2, note=48, velocity=43, time=10),
    Message('note_on', channel=3, note=64, velocity=71, time=2),
    Message('note_on', channel=3, note=67, velocity=67, time=0),
    Message('note_off', channel=2, note=53, velocity=64, time=2),
    Message('note_off', channel=2, note=45, velocity=45, time=1),
    Message('note_off', channel=3, note=69, velocity=69, time=1),
    Message('note_off', channel=3, note=60, velocity=65, time=10),
    Message('note_off', channel=7, note=72, velocity=75, time=14),
    Message('note_off', channel=7, note=65, velocity=68, time=1),
    Message('note_off', channel=7, note=45, velocity=65, time=0),
    Message('note_off', channel=7, note=60, velocity=67, time=1),
    Message('note_on', channel=7, note=45, velocity=55, time=11),
    Message('note_on', channel=4, note=53, velocity=70, time=1),
    Message('note_on', channel=7, note=53, velocity=56, time=3),
    Message('note_on', channel=9, note=36, velocity=127, time=1),
    Message('note_on', channel=2, note=53, velocity=64, time=1),
    Message('note_off', channel=9, note=36, velocity=127, time=0),
    Message('note_on', channel=2, note=45, velocity=48, time=1),
    Message('note_on', channel=2, note=48, velocity=47, time=0),
    Message('note_on', channel=7, note=60, velocity=44, time=1),
    Message('note_off', channel=4, note=48, velocity=61, time=1),
    Message('note_on', channel=7, note=65, velocity=60, time=3),
    Message('note_off', channel=3, note=64, velocity=71, time=1),
    Message('note_off', channel=3, note=67, velocity=67, time=1),
    Message('control_change', channel=2, control=64, value=0, time=7),
    Message('control_change', channel=2, control=64, value=127, time=18),
    Message('note_off', channel=2, note=53, velocity=64, time=14),
    Message('note_off', channel=2, note=48, velocity=47, time=2),
    Message('note_on', channel=3, note=60, velocity=61, time=0),
    Message('note_off', channel=2, note=45, velocity=48, time=8),
    Message('note_on', channel=3, note=65, velocity=70, time=15),
    Message('note_on', channel=2, note=45, velocity=50, time=24),
    Message('note_on', channel=2, note=48, velocity=49, time=0),
    Message('note_on', channel=2, note=53, velocity=62, time=0),
    Message('note_on', channel=3, note=69, velocity=79, time=0),
    Message('note_on', channel=9, note=44, velocity=116, time=2),
    Message('note_off', channel=9, note=44, velocity=116, time=1),
    Message('note_off', channel=3, note=65, velocity=70, time=19),
    Message('note_on', channel=3, note=72, velocity=78, time=3),
    Message('note_off', channel=3, note=69, velocity=79, time=7),
    Message('note_off', channel=2, note=48, velocity=49, time=5),
    Message('note_off', channel=2, note=53, velocity=62, time=5),
    Message('note_off', channel=3, note=60, velocity=61, time=5),
    Message('note_off', channel=2, note=45, velocity=50, time=1),
    Message('note_off', channel=3, note=72, velocity=78, time=9),
    Message('note_off', channel=7, note=45, velocity=55, time=4),
    Message('note_off', channel=7, note=60, velocity=44, time=12),
    Message('note_off', channel=7, note=53, velocity=56, time=6),
    Message('note_off', channel=7, note=65, velocity=60, time=5),
    Message('note_on', channel=7, note=69, velocity=73, time=11),
    Message('note_on', channel=2, note=45, velocity=48, time=1),
    Message('note_on', channel=2, note=48, velocity=46, time=0),
    Message('note_on', channel=2, note=53, velocity=67, time=0),
    Message('note_on', channel=3, note=69, velocity=77, time=0),
    Message('note_on', channel=9, note=36, velocity=127, time=0),
    Message('note_off', channel=9, note=36, velocity=127, time=1),
    Message('control_change', channel=2, control=64, value=0, time=4),
    Message('note_on', channel=7, note=65, velocity=65, time=16),
    Message('note_on', channel=3, note=65, velocity=73, time=3),
    Message('control_change', channel=2, control=64, value=127, time=1),
    Message('note_off', channel=3, note=69, velocity=77, time=4),
    Message('note_off', channel=2, note=48, velocity=46, time=12),
    Message('note_off', channel=7, note=69, velocity=73, time=4),
    Message('note_on', channel=7, note=60, velocity=73, time=1),
    Message('note_off', channel=3, note=65, velocity=73, time=1),
    Message('note_on', channel=3, note=60, velocity=65, time=1),
    Message('note_off', channel=2, note=53, velocity=67, time=1),
    Message('note_off', channel=2, note=45, velocity=48, time=3),
    Message('note_off', channel=7, note=65, velocity=65, time=0),
    Message('note_off', channel=7, note=60, velocity=73, time=18),
    Message('note_on', channel=7, note=65, velocity=88, time=0),
    Message('note_on', channel=3, note=69, velocity=77, time=2),
    Message('note_on', channel=3, note=65, velocity=77, time=1),
    Message('note_off', channel=3, note=60, velocity=65, time=5),
    Message('note_on', channel=2, note=45, velocity=49, time=18),
    Message('note_on', channel=2, note=53, velocity=65, time=0),
    Message('note_on', channel=2, note=48, velocity=36, time=1),
    Message('control_change', channel=2, control=64, value=0, time=2),
    Message('control_change', channel=7, control=1, value=49, time=1),
    Message('control_change', channel=7, control=1, value=89, time=8),
    Message('control_change', channel=2, control=64, value=127, time=7),
    Message('note_off', channel=7, note=65, velocity=88, time=1),
    Message('control_change', channel=7, control=1, value=0, time=0),
    Message('note_on', channel=7, note=67, velocity=76, time=1),
    Message('note_on', channel=3, note=67, velocity=73, time=3),
    Message('note_off', channel=3, note=65, velocity=77, time=1),
    Message('note_on', channel=9, note=41, velocity=52, time=0),
    Message('note_off', channel=3, note=69, velocity=77, time=1),
    Message('note_off', channel=9, note=41, velocity=52, time=0),
    Message('note_off', channel=2, note=45, velocity=49, time=8),
    Message('note_off', channel=2, note=53, velocity=65, time=1),
    Message('note_off', channel=2, note=48, velocity=36, time=1),
    Message('note_on', channel=7, note=65, velocity=81, time=11),
    Message('note_on', channel=3, note=65, velocity=73, time=2),
    Message('note_on', channel=9, note=41, velocity=119, time=0),
    Message('note_off', channel=9, note=41, velocity=119, time=1),
    Message('note_off', channel=3, note=67, velocity=73, time=9),
    Message('note_off', channel=5, note=60, velocity=61, time=19),
    Message('note_off', channel=7, note=67, velocity=76, time=8),
    Message('note_off', channel=4, note=53, velocity=70, time=1),
    Message('note_on', channel=5, note=70, velocity=70, time=0),
    Message('note_on', channel=5, note=62, velocity=78, time=1),
    Message('note_off', channel=7, note=65, velocity=81, time=1),
    Message('note_on', channel=4, note=55, velocity=70, time=1),
    Message('note_on', channel=7, note=55, velocity=70, time=1),
    Message('note_off', channel=5, note=65, velocity=72, time=3),
    Message('note_on', channel=7, note=58, velocity=62, time=1),
    Message('pitchwheel', channel=1, pitch=-4137, time=0),
    Message('note_on', channel=1, note=55, velocity=81, time=1),
    Message('note_on', channel=2, note=58, velocity=48, time=0),
    Message('note_on', channel=2, note=55, velocity=56, time=1),
    Message('note_on', channel=2, note=62, velocity=68, time=0),
    Message('note_on', channel=9, note=36, velocity=125, time=0),
    Message('pitchwheel', channel=1, pitch=-3715, time=1),
    Message('note_off', channel=3, note=65, velocity=73, time=0),
    Message('note_off', channel=9, note=36, velocity=125, time=0),
    Message('note_on', channel=7, note=62, velocity=56, time=1),
    Message('pitchwheel', channel=1, pitch=-3209, time=1),
    Message('pitchwheel', channel=1, pitch=-2618, time=1),
    Message('pitchwheel', channel=1, pitch=-1942, time=2),
    Message('note_on', channel=7, note=67, velocity=62, time=0),
    Message('pitchwheel', channel=1, pitch=-1267, time=1),
    Message('control_change', channel=2, control=64, value=0, time=1),
    Message('pitchwheel', channel=1, pitch=-760, time=1),
    Message('pitchwheel', channel=1, pitch=-422, time=1),
    Message('pitchwheel', channel=1, pitch=-169, time=2),
    Message('pitchwheel', channel=1, pitch=0, time=1),
    Message('control_change', channel=2, control=64, value=127, time=15),
    Message('note_off', channel=2, note=62, velocity=68, time=13),
    Message('note_off', channel=2, note=58, velocity=48, time=5),
    Message('note_off', channel=2, note=55, velocity=56, time=1),
    Message('note_on', channel=3, note=67, velocity=73, time=1),
    Message('note_off', channel=3, note=67, velocity=73, time=19),
    Message('note_off', channel=7, note=67, velocity=62, time=3),
    Message('note_on', channel=3, note=70, velocity=72, time=1),
    Message('note_off', channel=7, note=62, velocity=56, time=1),
    Message('note_off', channel=7, note=55, velocity=70, time=0),
    Message('note_on', channel=9, note=36, velocity=80, time=3),
    Message('note_off', channel=7, note=58, velocity=62, time=1),
    Message('note_off', channel=9, note=36, velocity=80, time=0),
    Message('note_on', channel=7, note=55, velocity=54, time=15),
    Message('note_on', channel=2, note=62, velocity=58, time=4),
    Message('note_on', channel=7, note=58, velocity=43, time=0),
    Message('note_on', channel=2, note=55, velocity=48, time=1),
    Message('note_on', channel=2, note=58, velocity=41, time=0),
    Message('note_on', channel=7, note=62, velocity=44, time=2),
    Message('note_on', channel=9, note=44, velocity=127, time=1),
    Message('note_off', channel=9, note=44, velocity=127, time=1),
    Message('note_on', channel=7, note=67, velocity=53, time=1),
    Message('control_change', channel=2, control=64, value=0, time=9),
    Message('control_change', channel=2, control=64, value=127, time=12),
    Message('note_off', channel=3, note=70, velocity=72, time=22),
    Message('note_on', channel=3, note=67, velocity=68, time=0),
    Message('note_on', channel=9, note=36, velocity=80, time=2),
    Message('note_off', channel=9, note=36, velocity=80, time=1),
    Message('note_off', channel=2, note=55, velocity=48, time=1),
    Message('note_off', channel=2, note=62, velocity=58, time=0),
    Message('note_off', channel=2, note=58, velocity=41, time=3),
    Message('control_change', channel=1, control=1, value=2, time=1),
    Message('control_change', channel=1, control=1, value=3, time=1),
    Message('control_change', channel=1, control=1, value=5, time=3),
    Message('control_change', channel=1, control=1, value=8, time=2),
    Message('control_change', channel=1, control=1, value=10, time=4),
    Message('note_off', channel=3, note=67, velocity=68, time=1),
    Message('control_change', channel=1, control=1, value=12, time=1),
    Message('note_off', channel=7, note=67, velocity=53, time=2),
    Message('note_on', channel=3, note=70, velocity=72, time=1),
    Message('control_change', channel=1, control=1, value=15, time=1),
    Message('note_off', channel=7, note=62, velocity=44, time=1),
    Message('note_off', channel=7, note=55, velocity=54, time=0),
    Message('control_change', channel=1, control=1, value=17, time=1),
    Message('note_off', channel=7, note=58, velocity=43, time=2),
    Message('control_change', channel=1, control=1, value=19, time=4),
    Message('control_change', channel=1, control=1, value=22, time=3),
    Message('control_change', channel=1, control=1, value=24, time=3),
    Message('control_change', channel=1, control=1, value=26, time=3),
    Message('note_on', channel=7, note=53, velocity=65, time=1),
    Message('note_on', channel=4, note=53, velocity=60, time=1),
    Message('note_on', channel=5, note=74, velocity=72, time=0),
    Message('control_change', channel=1, control=1, value=28, time=2),
    Message('note_on', channel=7, note=58, velocity=55, time=1),
    Message('control_change', channel=1, control=1, value=30, time=1),
    Message('note_on', channel=2, note=53, velocity=47, time=0),
    Message('note_on', channel=2, note=58, velocity=42, time=0),
    Message('note_on', channel=2, note=62, velocity=65, time=0),
    Message('note_off', channel=4, note=55, velocity=70, time=0),
    Message('control_change', channel=1, control=1, value=31, time=1),
    Message('note_on', channel=7, note=62, velocity=59, time=2),
    Message('note_on', channel=9, note=36, velocity=127, time=0),
    Message('note_off', channel=9, note=36, velocity=127, time=1),
    Message('note_on', channel=7, note=67, velocity=55, time=2),
    Message('control_change', channel=1, control=1, value=33, time=1),
    Message('control_change', channel=1, control=1, value=37, time=2),
    Message('control_change', channel=2, control=64, value=0, time=0),
    Message('control_change', channel=1, control=1, value=39, time=9),
    Message('control_change', channel=1, control=1, value=42, time=1),
    Message('control_change', channel=2, control=64, value=127, time=8),
    Message('control_change', channel=1, control=1, value=38, time=17),
    Message('note_off', channel=2, note=62, velocity=65, time=1),
    Message('control_change', channel=1, control=1, value=37, time=1),
    Message('control_change', channel=1, control=1, value=35, time=1),
    Message('note_off', channel=2, note=58, velocity=42, time=1),
    Message('control_change', channel=1, control=1, value=29, time=1),
    Message('note_on', channel=3, note=67, velocity=69, time=0),
    Message('control_change', channel=1, control=1, value=25, time=1),
    Message('note_off', channel=3, note=70, velocity=72, time=0),
    Message('control_change', channel=1, control=1, value=22, time=2),
    Message('control_change', channel=1, control=1, value=18, time=1),
    Message('control_change', channel=1, control=1, value=16, time=2),
    Message('control_change', channel=1, control=1, value=11, time=1),
    Message('control_change', channel=1, control=1, value=4, time=2),
    Message('control_change', channel=1, control=1, value=0, time=1),
    Message('note_off', channel=2, note=53, velocity=47, time=2),
    Message('note_off', channel=7, note=53, velocity=65, time=12),
    Message('note_off', channel=3, note=67, velocity=69, time=3),
    Message('note_off', channel=7, note=67, velocity=55, time=1),
    Message('note_off', channel=7, note=58, velocity=55, time=0),
    Message('note_off', channel=7, note=62, velocity=59, time=1),
    Message('note_on', channel=7, note=53, velocity=54, time=14),
    Message('note_on', channel=7, note=58, velocity=45, time=3),
    Message('note_on', channel=9, note=44, velocity=127, time=1),
    Message('note_on', channel=2, note=53, velocity=39, time=1),
    Message('note_on', channel=2, note=58, velocity=44, time=0),
    Message('note_on', channel=2, note=62, velocity=66, time=0),
    Message('note_on', channel=3, note=70, velocity=75, time=0),
    Message('note_off', channel=9, note=44, velocity=127, time=0),
    Message('note_on', channel=7, note=62, velocity=54, time=3),
    Message('note_on', channel=7, note=67, velocity=42, time=2),
    Message('control_change', channel=2, control=64, value=0, time=7),
    Message('note_off', channel=1, note=55, velocity=81, time=7),
    Message('note_on', channel=1, note=55, velocity=93, time=4),
    Message('control_change', channel=2, control=64, value=127, time=4),
    Message('note_off', channel=2, note=62, velocity=66, time=12),
    Message('note_off', channel=2, note=58, velocity=44, time=1),
    Message('note_off', channel=2, note=53, velocity=39, time=4),
    Message('note_on', channel=1, note=50, velocity=72, time=4),
    Message('note_off', channel=1, note=55, velocity=93, time=4),
    Message('note_off', channel=1, note=50, velocity=72, time=13),
    Message('note_on', channel=1, note=43, velocity=76, time=7),
    Message('note_off', channel=5, note=62, velocity=78, time=0),
    Message('note_off', channel=7, note=53, velocity=54, time=1),
    Message('note_off', channel=7, note=67, velocity=42, time=2),
    Message('note_off', channel=7, note=58, velocity=45, time=0),
    Message('note_off', channel=7, note=62, velocity=54, time=3),
    Message('note_on', channel=7, note=52, velocity=55, time=11),
    Message('note_on', channel=7, note=55, velocity=56, time=4),
    Message('note_off', channel=1, note=43, velocity=76, time=3),
    Message('note_on', channel=1, note=48, velocity=87, time=0),
    Message('note_on', channel=2, note=58, velocity=37, time=0),
    Message('note_on', channel=2, note=60, velocity=64, time=0),
    Message('note_on', channel=3, note=67, velocity=75, time=0),
    Message('note_on', channel=2, note=52, velocity=46, time=1),
    Message('note_on', channel=5, note=72, velocity=74, time=0),
    Message('note_on', channel=7, note=60, velocity=44, time=0),
    Message('note_on', channel=9, note=36, velocity=127, time=0),
    Message('note_off', channel=3, note=70, velocity=75, time=1),
    Message('note_off', channel=9, note=36, velocity=127, time=0),
    Message('note_off', channel=4, note=53, velocity=60, time=1),
    Message('note_on', channel=5, note=64, velocity=60, time=0),
    Message('note_on', channel=4, note=52, velocity=64, time=1),
    Message('note_off', channel=5, note=74, velocity=72, time=1),
    Message('note_on', channel=7, note=67, velocity=60, time=0),
    Message('control_change', channel=2, control=64, value=0, time=4),
    Message('note_off', channel=5, note=70, velocity=70, time=9),
    Message('control_change', channel=2, control=64, value=127, time=12),
    Message('note_off', channel=2, note=60, velocity=64, time=15),
    Message('note_off', channel=2, note=58, velocity=37, time=1),
    Message('note_off', channel=3, note=67, velocity=75, time=2),
    Message('note_on', channel=3, note=70, velocity=72, time=0),
    Message('note_off', channel=2, note=52, velocity=46, time=5),
    Message('note_off', channel=7, note=52, velocity=55, time=7),
    Message('note_off', channel=7, note=60, velocity=44, time=12),
    Message('note_on', channel=3, note=72, velocity=70, time=1),
    Message('note_on', channel=9, note=36, velocity=72, time=0),
    Message('note_off', channel=9, note=36, velocity=72, time=1),
    Message('note_off', channel=3, note=70, velocity=72, time=1),
    Message('note_off', channel=7, note=55, velocity=56, time=3),
    Message('note_off', channel=7, note=67, velocity=60, time=5),
    Message('note_on', channel=7, note=52, velocity=51, time=6),
    Message('note_on', channel=7, note=55, velocity=54, time=3),
    Message('note_on', channel=2, note=52, velocity=50, time=4),
    Message('note_on', channel=2, note=58, velocity=43, time=0),
    Message('note_on', channel=2, note=60, velocity=61, time=0),
    Message('note_on', channel=7, note=60, velocity=51, time=0),
    Message('note_on', channel=9, note=44, velocity=114, time=1),
    Message('note_off', channel=9, note=44, velocity=114, time=1),
    Message('note_on', channel=7, note=67, velocity=49, time=2),
    Message('control_change', channel=2, control=64, value=0, time=10),
    Message('control_change', channel=2, control=64, value=127, time=14),
    Message('note_off', channel=2, note=52, velocity=50, time=10),
    Message('note_off', channel=2, note=60, velocity=61, time=13),
    Message('note_on', channel=9, note=36, velocity=85, time=1),
    Message('note_off', channel=9, note=36, velocity=85, time=1),
    Message('note_off', channel=2, note=58, velocity=43, time=4),
    Message('note_off', channel=7, note=52, velocity=51, time=3),
    Message('note_off', channel=7, note=60, velocity=51, time=11),
    Message('note_off', channel=7, note=55, velocity=54, time=6),
    Message('note_off', channel=7, note=67, velocity=49, time=5),
    Message('note_on', channel=7, note=48, velocity=69, time=9),
    Message('note_on', channel=2, note=48, velocity=61, time=5),
    Message('note_off', channel=3, note=72, velocity=70, time=1),
    Message('note_on', channel=9, note=36, velocity=127, time=0),
    Message('control_change', channel=2, control=64, value=0, time=1),
    Message('note_off', channel=9, note=36, velocity=127, time=0),
    Message('note_on', channel=7, note=52, velocity=72, time=20),
    Message('control_change', channel=2, control=64, value=127, time=1),
    Message('note_on', channel=2, note=52, velocity=37, time=1),
    Message('note_off', channel=2, note=48, velocity=61, time=6),
    Message('note_on', channel=7, note=55, velocity=54, time=14),
    Message('note_on', channel=2, note=55, velocity=56, time=3),
    Message('note_on', channel=7, note=58, velocity=74, time=22),
    Message('note_off', channel=2, note=52, velocity=37, time=1),
    Message('note_on', channel=2, note=58, velocity=76, time=2),
    Message('note_off', channel=2, note=55, velocity=56, time=4),
    Message('control_change', channel=7, control=1, value=14, time=11),
    Message('note_on', channel=9, note=44, velocity=127, time=8),
    Message('control_change', channel=7, control=1, value=61, time=1),
    Message('note_off', channel=9, note=44, velocity=127, time=0),
    Message('control_change', channel=7, control=1, value=94, time=8),
    Message('note_off', channel=7, note=55, velocity=54, time=8),
    Message('control_change', channel=7, control=1, value=0, time=0),
    Message('note_on', channel=7, note=55, velocity=42, time=4),
    Message('note_off', channel=2, note=58, velocity=76, time=5),
    Message('note_on', channel=2, note=55, velocity=69, time=0),
    Message('note_off', channel=7, note=58, velocity=74, time=12),
    Message('note_on', channel=7, note=60, velocity=65, time=9),
    Message('note_off', channel=2, note=55, velocity=69, time=2),
    Message('note_on', channel=9, note=46, velocity=87, time=0),
    Message('note_on', channel=2, note=60, velocity=60, time=1),
    Message('note_off', channel=9, note=46, velocity=87, time=0),
    Message('note_off', channel=7, note=48, velocity=69, time=13),
    Message('note_off', channel=2, note=60, velocity=60, time=4),
    Message('note_off', channel=7, note=55, velocity=42, time=10),
    Message('note_off', channel=7, note=52, velocity=72, time=0),
    Message('pitchwheel', channel=1, pitch=-760, time=8),
    Message('pitchwheel', channel=1, pitch=-1858, time=2),
    Message('pitchwheel', channel=1, pitch=-2871, time=1),
    Message('pitchwheel', channel=1, pitch=-3800, time=2),
    Message('note_off', channel=1, note=48, velocity=87, time=1),
    Message('pitchwheel', channel=1, pitch=-4475, time=0),
    Message('note_off', channel=7, note=60, velocity=65, time=0),
    Message('note_on', channel=7, note=55, velocity=54, time=0),
    Message('note_on', channel=5, note=62, velocity=68, time=1),
    Message('note_on', channel=5, note=70, velocity=61, time=0),
    Message('pitchwheel', channel=1, pitch=-4897, time=1),
    Message('pitchwheel', channel=1, pitch=-5235, time=1),
    Message('note_on', channel=4, note=55, velocity=63, time=0),
    Message('note_off', channel=4, note=52, velocity=64, time=1),
    Message('note_on', channel=7, note=58, velocity=62, time=0),
    Message('note_on', channel=1, note=55, velocity=87, time=1),
    Message('note_on', channel=2, note=62, velocity=76, time=1),
    Message('note_off', channel=5, note=72, velocity=74, time=0),
    Message('note_on', channel=2, note=55, velocity=52, time=1),
    Message('note_on', channel=2, note=58, velocity=52, time=0),
    Message('note_on', channel=9, note=36, velocity=127, time=0),
    Message('note_off', channel=5, note=64, velocity=60, time=1),
    Message('note_on', channel=7, note=62, velocity=56, time=0),
    Message('note_off', channel=9, note=36, velocity=127, time=0),
    Message('note_on', channel=7, note=67, velocity=62, time=3),
    Message('pitchwheel', channel=1, pitch=-5151, time=1),
    Message('pitchwheel', channel=1, pitch=-4560, time=1),
    Message('control_change', channel=2, control=64, value=0, time=0),
    Message('pitchwheel', channel=1, pitch=-3884, time=2),
    Message('pitchwheel', channel=1, pitch=-3293, time=2),
    Message('pitchwheel', channel=1, pitch=-2871, time=1),
    Message('pitchwheel', channel=1, pitch=-2533, time=1),
    Message('pitchwheel', channel=1, pitch=-2111, time=2),
    Message('pitchwheel', channel=1, pitch=-1858, time=1),
    Message('pitchwheel', channel=1, pitch=-1689, time=2),
    Message('pitchwheel', channel=1, pitch=-1351, time=1),
    Message('pitchwheel', channel=1, pitch=-1013, time=2),
    Message('pitchwheel', channel=1, pitch=-676, time=1),
    Message('pitchwheel', channel=1, pitch=-422, time=2),
    Message('pitchwheel', channel=1, pitch=-84, time=1),
    Message('pitchwheel', channel=1, pitch=0, time=2),
    Message('control_change', channel=2, control=64, value=127, time=2),
    Message('note_off', channel=2, note=62, velocity=76, time=10),
    Message('note_off', channel=2, note=58, velocity=52, time=4),
    Message('note_on', channel=3, note=70, velocity=72, time=5),
    Message('note_off', channel=2, note=55, velocity=52, time=5),
    Message('note_off', channel=3, note=70, velocity=72, time=14),
    Message('note_off', channel=7, note=67, velocity=62, time=3),
    Message('note_on', channel=3, note=67, velocity=79, time=1),
    Message('note_off', channel=7, note=55, velocity=54, time=1),
    Message('note_off', channel=7, note=62, velocity=56, time=1),
    Message('note_on', channel=9, note=36, velocity=88, time=0),
    Message('note_off', channel=9, note=36, velocity=88, time=1),
    Message('note_off', channel=7, note=58, velocity=62, time=1),
    Message('note_on', channel=7, note=55, velocity=54, time=15),
    Message('note_on', channel=2, note=58, velocity=47, time=5),
    Message('note_on', channel=2, note=62, velocity=73, time=0),
    Message('note_on', channel=2, note=55, velocity=49, time=0),
    Message('note_on', channel=3, note=70, velocity=70, time=0),
    Message('note_on', channel=7, note=58, velocity=43, time=0),
    Message('note_on', channel=9, note=44, velocity=127, time=2),
    Message('note_on', channel=7, note=62, velocity=44, time=1),
    Message('note_off', channel=9, note=44, velocity=127, time=0),
    Message('note_off', channel=3, note=67, velocity=79, time=2),
    Message('note_on', channel=7, note=67, velocity=53, time=1),
    Message('control_change', channel=2, control=64, value=0, time=3),
    Message('control_change', channel=2, control=64, value=127, time=18),
    Message('control_change', channel=1, control=1, value=1, time=2),
    Message('control_change', channel=1, control=1, value=3, time=1),
    Message('control_change', channel=1, control=1, value=4, time=2),
    Message('control_change', channel=1, control=1, value=6, time=1),
    Message('control_change', channel=1, control=1, value=8, time=2),
    Message('control_change', channel=1, control=1, value=9, time=1),
    Message('control_change', channel=1, control=1, value=11, time=2),
    Message('control_change', channel=1, control=1, value=14, time=4),
    Message('control_change', channel=1, control=1, value=16, time=5),
    Message('note_off', channel=2, note=62, velocity=73, time=1),
    Message('note_off', channel=3, note=70, velocity=70, time=1),
    Message('note_on', channel=3, note=67, velocity=72, time=0),
    Message('note_on', channel=9, note=36, velocity=70, time=0),
    Message('note_off', channel=9, note=36, velocity=70, time=1),
    Message('control_change', channel=1, control=1, value=18, time=6),
    Message('note_off', channel=2, note=55, velocity=49, time=0),
    Message('note_off', channel=2, note=58, velocity=47, time=1),
    Message('control_change', channel=1, control=1, value=21, time=2),
    Message('control_change', channel=1, control=1, value=23, time=2),
    Message('control_change', channel=1, control=1, value=24, time=2),
    Message('control_change', channel=1, control=1, value=28, time=2),
    Message('control_change', channel=1, control=1, value=30, time=4),
    Message('note_off', channel=7, note=67, velocity=53, time=1),
    Message('note_off', channel=7, note=62, velocity=44, time=3),
    Message('note_off', channel=7, note=55, velocity=54, time=0),
    Message('control_change', channel=1, control=1, value=32, time=2),
    Message('control_change', channel=1, control=1, value=35, time=1),
    Message('note_off', channel=7, note=58, velocity=43, time=2),
    Message('control_change', channel=1, control=1, value=37, time=4),
    Message('control_change', channel=1, control=1, value=38, time=3),
    Message('note_off', channel=4, note=55, velocity=63, time=7),
    Message('note_on', channel=7, note=53, velocity=65, time=0),
    Message('note_on', channel=5, note=74, velocity=68, time=1),
    Message('note_on', channel=4, note=53, velocity=76, time=2),
    Message('note_on', channel=7, note=58, velocity=55, time=0),
    Message('note_on', channel=2, note=58, velocity=49, time=1),
    Message('note_on', channel=2, note=62, velocity=73, time=0),
    Message('note_on', channel=2, note=53, velocity=57, time=1),
    Message('note_on', channel=9, note=36, velocity=127, time=0),
    Message('note_off', channel=9, note=36, velocity=127, time=1),
    Message('note_on', channel=7, note=62, velocity=59, time=1),
    Message('note_on', channel=7, note=67, velocity=55, time=3),
    Message('control_change', channel=1, control=1, value=36, time=1),
    Message('control_change', channel=2, control=64, value=0, time=1),
    Message('control_change', channel=1, control=1, value=33, time=1),
    Message('control_change', channel=1, control=1, value=30, time=1),
    Message('control_change', channel=1, control=1, value=26, time=2),
    Message('control_change', channel=1, control=1, value=24, time=1),
    Message('control_change', channel=1, control=1, value=21, time=2),
    Message('control_change', channel=1, control=1, value=19, time=1),
    Message('control_change', channel=1, control=1, value=17, time=2),
    Message('control_change', channel=1, control=1, value=15, time=1),
    Message('control_change', channel=1, control=1, value=12, time=2),
    Message('control_change', channel=1, control=1, value=11, time=1),
    Message('control_change', channel=1, control=1, value=9, time=2),
    Message('control_change', channel=1, control=1, value=7, time=1),
    Message('control_change', channel=1, control=1, value=5, time=2),
    Message('control_change', channel=2, control=64, value=127, time=2),
    Message('note_off', channel=3, note=67, velocity=72, time=1),
    Message('control_change', channel=1, control=1, value=3, time=1),
    Message('control_change', channel=1, control=1, value=1, time=3),
    Message('control_change', channel=1, control=1, value=4, time=16),
    Message('note_off', channel=2, note=62, velocity=73, time=1),
    Message('control_change', channel=1, control=1, value=5, time=1),
    Message('control_change', channel=1, control=1, value=8, time=1),
    Message('note_off', channel=2, note=53, velocity=57, time=10),
    Message('note_off', channel=2, note=58, velocity=49, time=0),
    Message('control_change', channel=1, control=1, value=4, time=1),
    Message('control_change', channel=1, control=1, value=0, time=1),
    Message('note_off', channel=7, note=53, velocity=65, time=9),
    Message('note_off', channel=7, note=58, velocity=55, time=2),
    Message('note_off', channel=7, note=67, velocity=55, time=1),
    Message('note_off', channel=7, note=62, velocity=59, time=1),
    Message('note_off', channel=1, note=55, velocity=87, time=14),
    Message('note_on', channel=7, note=53, velocity=54, time=0),
    Message('note_on', channel=7, note=58, velocity=45, time=3),
    Message('note_on', channel=9, note=44, velocity=113, time=0),
    Message('note_on', channel=1, note=57, velocity=72, time=1),
    Message('note_on', channel=2, note=62, velocity=68, time=0),
    Message('note_on', channel=3, note=70, velocity=84, time=0),
    Message('note_off', channel=9, note=44, velocity=113, time=0),
    Message('note_on', channel=2, note=53, velocity=53, time=1),
    Message('note_on', channel=2, note=58, velocity=50, time=0),
    Message('note_on', channel=7, note=62, velocity=54, time=3),
    Message('note_on', channel=7, note=67, velocity=42, time=2),
    Message('control_change', channel=2, control=64, value=0, time=6),
    Message('note_on', channel=1, note=55, velocity=62, time=11),
    Message('note_on', channel=3, note=72, velocity=93, time=1),
    Message('note_off', channel=3, note=70, velocity=84, time=3),
    Message('note_off', channel=1, note=57, velocity=72, time=2),
    Message('control_change', channel=2, control=64, value=127, time=4),
    Message('note_off', channel=1, note=55, velocity=62, time=9),
    Message('note_off', channel=2, note=62, velocity=68, time=0),
    Message('note_on', channel=1, note=50, velocity=66, time=6),
    Message('note_on', channel=3, note=70, velocity=94, time=0),
    Message('note_off', channel=3, note=72, velocity=93, time=4),
    Message('note_off', channel=2, note=58, velocity=50, time=1),
    Message('note_off', channel=2, note=53, velocity=53, time=2),
    Message('note_on', channel=1, note=43, velocity=74, time=16),
    Message('note_on', channel=3, note=72, velocity=89, time=1),
    Message('note_off', channel=5, note=62, velocity=68, time=1),
    Message('note_off', channel=7, note=53, velocity=54, time=1),
    Message('note_off', channel=1, note=50, velocity=66, time=2),
    Message('note_off', channel=7, note=67, velocity=42, time=0),
    Message('note_off', channel=7, note=58, velocity=45, time=0),
    Message('note_off', channel=3, note=70, velocity=94, time=1),
    Message('note_off', channel=7, note=62, velocity=54, time=2),
    Message('note_on', channel=7, note=52, velocity=55, time=11),
    Message('note_off', channel=4, note=53, velocity=76, time=2),
    Message('note_on', channel=7, note=55, velocity=56, time=2),
    Message('note_on', channel=9, note=36, velocity=127, time=1),
    Message('note_on', channel=1, note=48, velocity=89, time=1),
    Message('note_off', channel=9, note=36, velocity=127, time=0),
    Message('note_off', channel=5, note=74, velocity=68, time=1),
    Message('note_on', channel=5, note=72, velocity=74, time=0),
    Message('note_on', channel=2, note=52, velocity=47, time=1),
    Message('note_on', channel=2, note=58, velocity=42, time=0),
    Message('note_on', channel=2, note=60, velocity=69, time=0),
    Message('note_on', channel=4, note=52, velocity=72, time=0),
    Message('note_on', channel=7, note=60, velocity=44, time=0),
    Message('note_off', channel=1, note=43, velocity=74, time=3),
    Message('note_on', channel=5, note=64, velocity=78, time=0),
    Message('note_on', channel=7, note=67, velocity=60, time=1),
    Message('note_off', channel=5, note=70, velocity=61, time=7),
    Message('control_change', channel=2, control=64, value=0, time=2),
    Message('control_change', channel=2, control=64, value=127, time=20),
    Message('note_off', channel=2, note=58, velocity=42, time=10),
    Message('note_off', channel=2, note=60, velocity=69, time=2),
    Message('note_off', channel=2, note=52, velocity=47, time=8),
    Message('note_off', channel=7, note=52, velocity=55, time=6),
    Message('note_on', channel=9, note=36, velocity=58, time=9),
    Message('note_off', channel=9, note=36, velocity=58, time=1),
    Message('note_off', channel=7, note=60, velocity=44, time=2),
    Message('note_off', channel=7, note=55, velocity=56, time=6),
    Message('note_off', channel=7, note=67, velocity=60, time=5),
    Message('note_on', channel=7, note=52, velocity=51, time=6),
    Message('note_on', channel=7, note=55, velocity=54, time=3),
    Message('note_on', channel=9, note=44, velocity=127, time=2),
    Message('note_off', channel=9, note=44, velocity=127, time=1),
    Message('note_on', channel=7, note=60, velocity=51, time=1),
    Message('note_on', channel=2, note=52, velocity=34, time=1),
    Message('note_on', channel=2, note=58, velocity=44, time=0),
    Message('note_on', channel=2, note=60, velocity=70, time=0),
    Message('note_on', channel=7, note=67, velocity=49, time=3),
    Message('control_change', channel=2, control=64, value=0, time=9),
    Message('control_change', channel=2, control=64, value=127, time=18),
    Message('note_off', channel=2, note=52, velocity=34, time=11),
    Message('note_on', channel=9, note=36, velocity=88, time=4),
    Message('note_off', channel=2, note=60, velocity=70, time=1),
    Message('note_off', channel=9, note=36, velocity=88, time=0),
    Message('note_off', channel=2, note=58, velocity=44, time=5),
    Message('note_off', channel=7, note=52, velocity=51, time=8),
    Message('note_off', channel=7, note=60, velocity=51, time=11),
    Message('note_off', channel=7, note=55, velocity=54, time=6),
    Message('note_off', channel=7, note=67, velocity=49, time=5),
    Message('note_on', channel=7, note=48, velocity=69, time=9),
    Message('control_change', channel=2, control=64, value=0, time=2),
    Message('note_on', channel=9, note=36, velocity=127, time=0),
    Message('note_off', channel=9, note=36, velocity=127, time=1),
    Message('note_on', channel=2, note=48, velocity=57, time=1),
    Message('note_off', channel=3, note=72, velocity=89, time=6),
    Message('control_change', channel=2, control=64, value=127, time=14),
    Message('note_on', channel=7, note=52, velocity=72, time=3),
    Message('note_on', channel=2, note=52, velocity=69, time=1),
    Message('note_off', channel=2, note=48, velocity=57, time=5),
    Message('note_on', channel=7, note=55, velocity=54, time=16),
    Message('note_on', channel=2, note=55, velocity=66, time=3),
    Message('note_on', channel=7, note=58, velocity=76, time=22),
    Message('note_on', channel=9, note=36, velocity=69, time=1),
    Message('note_off', channel=2, note=52, velocity=69, time=1),
    Message('note_on', channel=2, note=58, velocity=77, time=0),
    Message('note_off', channel=9, note=36, velocity=69, time=0),
    Message('pitchwheel', channel=1, pitch=-169, time=5),
    Message('note_off', channel=2, note=55, velocity=66, time=0),
    Message('control_change', channel=7, control=1, value=14, time=11),
    Message('note_on', channel=9, note=45, velocity=95, time=7),
    Message('note_off', channel=9, note=45, velocity=95, time=1),
    Message('control_change', channel=7, control=1, value=61, time=1),
    Message('control_change', channel=7, control=1, value=94, time=8),
    Message('note_off', channel=7, note=55, velocity=54, time=8),
    Message('control_change', channel=7, control=1, value=0, time=0),
    Message('pitchwheel', channel=1, pitch=-338, time=1),
    Message('pitchwheel', channel=1, pitch=-507, time=3),
    Message('note_on', channel=7, note=57, velocity=50, time=0),
    Message('pitchwheel', channel=1, pitch=-844, time=1),
    Message('note_on', channel=9, note=43, velocity=70, time=1),
    Message('pitchwheel', channel=1, pitch=-1182, time=1),
    Message('note_off', channel=9, note=43, velocity=70, time=0),
    Message('pitchwheel', channel=1, pitch=-1689, time=1),
    Message('note_on', channel=2, note=57, velocity=62, time=1),
    Message('control_change', channel=2, control=64, value=0, time=0),
    Message('pitchwheel', channel=1, pitch=-1942, time=1),
    Message('pitchwheel', channel=1, pitch=-2449, time=1),
    Message('pitchwheel', channel=1, pitch=-3124, time=2),
    Message('pitchwheel', channel=1, pitch=-3969, time=1),
    Message('pitchwheel', channel=1, pitch=-4813, time=2),
    Message('note_off', channel=2, note=58, velocity=77, time=0),
    Message('pitchwheel', channel=1, pitch=-5488, time=1),
    Message('pitchwheel', channel=1, pitch=-5995, time=2),
    Message('pitchwheel', channel=1, pitch=-6333, time=1),
    Message('note_off', channel=7, note=58, velocity=76, time=1),
    Message('pitchwheel', channel=1, pitch=-6502, time=1),
    Message('pitchwheel', channel=1, pitch=-6586, time=2),
    Message('note_off', channel=1, note=48, velocity=89, time=1),
    Message('pitchwheel', channel=1, pitch=-6755, time=2),
    Message('note_off', channel=2, note=57, velocity=62, time=1),
    Message('note_on', channel=7, note=55, velocity=70, time=2),
    Message('note_on', channel=1, note=36, velocity=91, time=1),
    Message('note_on', channel=9, note=41, velocity=93, time=0),
    Message('note_on', channel=2, note=55, velocity=72, time=1),
    Message('note_off', channel=4, note=52, velocity=72, time=0),
    Message('note_on', channel=4, note=48, velocity=114, time=0),
    Message('note_off', channel=9, note=41, velocity=93, time=0),
    Message('control_change', channel=2, control=64, value=127, time=2),
    Message('pitchwheel', channel=1, pitch=-6248, time=2),
    Message('pitchwheel', channel=1, pitch=-4813, time=2),
    Message('pitchwheel', channel=1, pitch=-2702, time=1),
    Message('pitchwheel', channel=1, pitch=-760, time=2),
    Message('pitchwheel', channel=1, pitch=0, time=1),
    Message('note_off', channel=7, note=48, velocity=69, time=4),
    Message('note_off', channel=2, note=55, velocity=72, time=10),
    Message('note_on', channel=4, note=50, velocity=111, time=0),
    Message('note_on', channel=1, note=38, velocity=101, time=1),
    Message('note_off', channel=4, note=48, velocity=114, time=3),
    Message('note_off', channel=7, note=57, velocity=50, time=0),
    Message('note_off', channel=7, note=52, velocity=72, time=0),
    Message('note_off', channel=1, note=36, velocity=91, time=5),
    Message('note_off', channel=7, note=55, velocity=70, time=9),
    Message('note_on', channel=4, note=51, velocity=81, time=1),
    Message('note_off', channel=5, note=72, velocity=74, time=0),
    Message('note_on', channel=7, note=51, velocity=67, time=1),
    Message('note_on', channel=9, note=36, velocity=118, time=2),
    Message('note_on', channel=7, note=58, velocity=67, time=1),
    Message('note_off', channel=9, note=36, velocity=118, time=0),
    Message('note_on', channel=2, note=51, velocity=45, time=1),
    Message('note_on', channel=2, note=55, velocity=53, time=0),
    Message('note_on', channel=2, note=58, velocity=65, time=0),
    Message('note_on', channel=7, note=63, velocity=76, time=0),
    Message('note_on', channel=9, note=42, velocity=107, time=0),
    Message('note_off', channel=1, note=38, velocity=101, time=1),
    Message('note_on', channel=1, note=39, velocity=110, time=0),
    Message('note_off', channel=9, note=42, velocity=107, time=0),
    Message('control_change', channel=2, control=64, value=0, time=1),
    Message('note_on', channel=5, note=70, velocity=76, time=0),
    Message('note_on', channel=7, note=67, velocity=64, time=0),
    Message('note_on', channel=5, note=67, velocity=91, time=1),
    Message('note_off', channel=5, note=64, velocity=78, time=1),
    Message('note_off', channel=4, note=50, velocity=111, time=1),
    Message('control_change', channel=2, control=64, value=127, time=22),
    Message('note_off', channel=7, note=58, velocity=67, time=12),
    Message('note_off', channel=7, note=63, velocity=76, time=1),
    Message('note_off', channel=2, note=55, velocity=53, time=1),
    Message('note_off', channel=7, note=67, velocity=64, time=3),
    Message('note_off', channel=2, note=58, velocity=65, time=1),
    Message('note_off', channel=2, note=51, velocity=45, time=0),
    Message('note_on', channel=7, note=58, velocity=33, time=0),
    Message('note_on', channel=3, note=67, velocity=87, time=2),
    Message('note_on', channel=7, note=63, velocity=64, time=0),
    Message('note_on', channel=7, note=67, velocity=59, time=0),
    Message('note_on', channel=9, note=42, velocity=54, time=1),
    Message('note_off', channel=9, note=42, velocity=54, time=1),
    Message('note_off', channel=3, note=67, velocity=87, time=16),
    Message('note_off', channel=7, note=67, velocity=59, time=1),
    Message('note_off', channel=7, note=63, velocity=64, time=0),
    Message('note_off', channel=7, note=58, velocity=33, time=2),
    Message('note_on', channel=7, note=67, velocity=70, time=2),
    Message('note_on', channel=3, note=67, velocity=87, time=1),
    Message('note_on', channel=7, note=63, velocity=69, time=0),
    Message('note_on', channel=7, note=58, velocity=59, time=1),
    Message('note_on', channel=9, note=36, velocity=88, time=0),
    Message('note_off', channel=9, note=36, velocity=88, time=1),
    Message('note_off', channel=7, note=58, velocity=59, time=18),
    Message('note_off', channel=7, note=63, velocity=69, time=1),
    Message('note_off', channel=7, note=67, velocity=70, time=0),
    Message('note_on', channel=7, note=58, velocity=33, time=1),
    Message('note_on', channel=2, note=51, velocity=52, time=1),
    Message('note_on', channel=2, note=55, velocity=52, time=1),
    Message('note_on', channel=2, note=58, velocity=60, time=0),
    Message('note_on', channel=3, note=70, velocity=81, time=0),
    Message('note_on', channel=7, note=63, velocity=64, time=0),
    Message('note_on', channel=7, note=67, velocity=59, time=0),
    Message('note_on', channel=9, note=46, velocity=100, time=1),
    Message('note_off', channel=9, note=46, velocity=100, time=1),
    Message('note_off', channel=3, note=67, velocity=87, time=6),
    Message('control_change', channel=2, control=64, value=0, time=1),
    Message('note_off', channel=3, note=70, velocity=81, time=3),
    Message('note_on', channel=3, note=70, velocity=88, time=12),
    Message('control_change', channel=2, control=64, value=127, time=4),
    Message('note_off', channel=2, note=55, velocity=52, time=10),
    Message('note_off', channel=7, note=58, velocity=33, time=3),
    Message('note_off', channel=2, note=51, velocity=52, time=1),
    Message('note_off', channel=7, note=67, velocity=59, time=0),
    Message('note_off', channel=2, note=58, velocity=60, time=1),
    Message('note_off', channel=7, note=63, velocity=64, time=0),
    Message('note_on', channel=7, note=58, velocity=61, time=4),
    Message('note_on', channel=3, note=74, velocity=93, time=1),
    Message('note_on', channel=7, note=63, velocity=74, time=0),
    Message('note_on', channel=7, note=67, velocity=52, time=1),
    Message('note_on', channel=9, note=36, velocity=107, time=0),
    Message('note_off', channel=9, note=36, velocity=107, time=1),
    Message('note_off', channel=3, note=70, velocity=88, time=7),
    Message('note_off', channel=7, note=67, velocity=52, time=11),
    Message('note_off', channel=7, note=63, velocity=74, time=0),
    Message('note_off', channel=7, note=58, velocity=61, time=0),
    Message('note_on', channel=7, note=67, velocity=72, time=2),
    Message('note_on', channel=7, note=63, velocity=71, time=1),
    Message('note_on', channel=7, note=58, velocity=68, time=1),
    Message('note_off', channel=7, note=51, velocity=67, time=5),
    Message('note_off', channel=4, note=51, velocity=81, time=10),
    Message('note_on', channel=4, note=50, velocity=81, time=0),
    Message('note_on', channel=5, note=65, velocity=91, time=4),
    Message('note_off', channel=7, note=67, velocity=72, time=0),
    Message('note_off', channel=5, note=67, velocity=91, time=1),
    Message('note_off', channel=7, note=63, velocity=71, time=1),
    Message('note_off', channel=7, note=58, velocity=68, time=1),
    Message('note_on', channel=7, note=50, velocity=50, time=0),
    Message('note_on', channel=7, note=58, velocity=33, time=0),
    Message('note_off', channel=1, note=39, velocity=110, time=1),
    Message('note_on', channel=3, note=77, velocity=102, time=0),
    Message('note_on', channel=1, note=38, velocity=89, time=1),
    Message('note_on', channel=2, note=58, velocity=60, time=0),
    Message('note_on', channel=2, note=50, velocity=57, time=0),
    Message('note_on', channel=2, note=53, velocity=54, time=0),
    Message('control_change', channel=2, control=64, value=0, time=0),
    Message('note_on', channel=7, note=62, velocity=64, time=0),
    Message('note_on', channel=7, note=65, velocity=59, time=0),
    Message('note_on', channel=9, note=42, velocity=116, time=1),
    Message('note_on', channel=9, note=36, velocity=125, time=0),
    Message('note_off', channel=9, note=36, velocity=125, time=1),
    Message('note_off', channel=9, note=42, velocity=116, time=0),
    Message('note_off', channel=7, note=65, velocity=59, time=17),
    Message('note_off', channel=7, note=62, velocity=64, time=0),
    Message('note_off', channel=7, note=58, velocity=33, time=3),
    Message('control_change', channel=2, control=64, value=127, time=1),
    Message('note_on', channel=7, note=65, velocity=70, time=0),
    Message('note_on', channel=7, note=62, velocity=69, time=1),
    Message('note_on', channel=7, note=58, velocity=59, time=1),
    Message('note_off', channel=7, note=50, velocity=50, time=10),
    Message('note_off', channel=2, note=53, velocity=54, time=2),
    Message('note_off', channel=2, note=58, velocity=60, time=4),
    Message('note_off', channel=2, note=50, velocity=57, time=1),
    Message('note_off', channel=7, note=58, velocity=59, time=2),
    Message('note_off', channel=7, note=62, velocity=69, time=1),
    Message('note_off', channel=7, note=65, velocity=70, time=0),
    Message('note_on', channel=7, note=58, velocity=61, time=2),
    Message('note_on', channel=7, note=62, velocity=74, time=1),
    Message('note_on', channel=7, note=65, velocity=52, time=1),
    Message('note_on', channel=9, note=42, velocity=58, time=2),
    Message('note_off', channel=9, note=42, velocity=58, time=1),
    Message('note_off', channel=3, note=74, velocity=93, time=2),
    Message('note_off', channel=7, note=65, velocity=52, time=12),
    Message('note_off', channel=7, note=62, velocity=74, time=2),
    Message('note_off', channel=7, note=58, velocity=61, time=0),
    Message('note_on', channel=7, note=65, velocity=72, time=2),
    Message('note_on', channel=7, note=62, velocity=71, time=1),
    Message('note_on', channel=7, note=58, velocity=68, time=1),
    Message('note_on', channel=9, note=36, velocity=80, time=2),
    Message('note_off', channel=9, note=36, velocity=80, time=1),
    Message('control_change', channel=1, control=1, value=1, time=12),
    Message('control_change', channel=1, control=1, value=2, time=2),
    Message('control_change', channel=1, control=1, value=4, time=2),
    Message('control_change', channel=1, control=1, value=7, time=1),
    Message('control_change', channel=1, control=1, value=9, time=1),
    Message('note_off', channel=7, note=58, velocity=68, time=1),
    Message('note_off', channel=7, note=62, velocity=71, time=0),
    Message('note_off', channel=7, note=65, velocity=72, time=0),
    Message('control_change', channel=1, control=1, value=11, time=1),
    Message('note_on', channel=2, note=50, velocity=59, time=1),
    Message('note_on', channel=2, note=53, velocity=52, time=0),
    Message('note_on', channel=2, note=58, velocity=68, time=0),
    Message('control_change', channel=1, control=1, value=14, time=2),
    Message('note_on', channel=9, note=46, velocity=116, time=0),
    Message('note_on', channel=9, note=36, velocity=118, time=0),
    Message('note_off', channel=9, note=36, velocity=118, time=1),
    Message('note_off', channel=9, note=46, velocity=116, time=0),
    Message('control_change', channel=2, control=64, value=0, time=5),
    Message('control_change', channel=1, control=1, value=12, time=9),
    Message('control_change', channel=1, control=1, value=5, time=1),
    Message('control_change', channel=1, control=1, value=0, time=2),
    Message('note_on', channel=7, note=65, velocity=94, time=1),
    Message('note_on', channel=7, note=62, velocity=71, time=1),
    Message('note_on', channel=7, note=58, velocity=60, time=1),
    Message('control_change', channel=2, control=64, value=127, time=5),
    Message('note_off', channel=2, note=58, velocity=68, time=8),
    Message('note_off', channel=2, note=50, velocity=59, time=1),
    Message('note_off', channel=7, note=58, velocity=60, time=4),
    Message('note_off', channel=7, note=62, velocity=71, time=0),
    Message('note_off', channel=7, note=65, velocity=94, time=2),
    Message('note_off', channel=2, note=53, velocity=52, time=3),
    Message('note_on', channel=7, note=58, velocity=33, time=0),
    Message('note_on', channel=3, note=82, velocity=91, time=2),
    Message('note_on', channel=7, note=62, velocity=64, time=0),
    Message('note_on', channel=7, note=65, velocity=59, time=0),
    Message('note_off', channel=3, note=77, velocity=102, time=14),
    Message('note_off', channel=7, note=65, velocity=59, time=5),
    Message('note_off', channel=7, note=62, velocity=64, time=0),
    Message('note_off', channel=7, note=58, velocity=33, time=2),
    Message('note_on', channel=7, note=65, velocity=70, time=2),
    Message('note_on', channel=7, note=62, velocity=69, time=1),
    Message('note_on', channel=7, note=58, velocity=59, time=1),
    Message('note_off', channel=7, note=65, velocity=70, time=13),
    Message('note_off', channel=7, note=62, velocity=69, time=3),
    Message('note_on', channel=4, note=48, velocity=80, time=1),
    Message('note_off', channel=7, note=58, velocity=59, time=2),
    Message('note_off', channel=4, note=50, velocity=81, time=1),
    Message('note_off', channel=5, note=65, velocity=91, time=1),
    Message('note_on', channel=7, note=48, velocity=50, time=0),
    Message('note_on', channel=5, note=63, velocity=102, time=1),
    Message('note_on', channel=7, note=60, velocity=61, time=0),
    Message('note_on', channel=7, note=63, velocity=74, time=0),
    Message('note_on', channel=2, note=55, velocity=63, time=1),
    Message('note_on', channel=9, note=36, velocity=115, time=0),
    Message('note_on', channel=1, note=36, velocity=70, time=1),
    Message('note_on', channel=2, note=48, velocity=53, time=0),
    Message('note_on', channel=2, note=51, velocity=58, time=0),
    Message('note_on', channel=7, note=67, velocity=52, time=0),
    Message('note_on', channel=9, note=42, velocity=107, time=0),
    Message('note_off', channel=9, note=36, velocity=115, time=0),
    Message('note_off', channel=9, note=42, velocity=107, time=1),
    Message('note_off', channel=1, note=38, velocity=89, time=1),
    Message('control_change', channel=2, control=64, value=0, time=3),
    Message('note_off', channel=7, note=67, velocity=52, time=12),
    Message('note_off', channel=7, note=63, velocity=74, time=1),
    Message('note_off', channel=7, note=60, velocity=61, time=1),
    Message('note_on', channel=7, note=67, velocity=80, time=3),
    Message('note_on', channel=7, note=63, velocity=71, time=1),
    Message('note_on', channel=7, note=60, velocity=60, time=1),
    Message('control_change', channel=2, control=64, value=127, time=6),
    Message('note_off', channel=7, note=48, velocity=50, time=4),
    Message('note_off', channel=2, note=51, velocity=58, time=4),
    Message('note_off', channel=7, note=60, velocity=60, time=4),
    Message('note_off', channel=7, note=63, velocity=71, time=0),
    Message('note_off', channel=2, note=48, velocity=53, time=2),
    Message('note_off', channel=2, note=55, velocity=63, time=0),
    Message('note_off', channel=7, note=67, velocity=80, time=0),
    Message('note_on', channel=7, note=60, velocity=61, time=2),
    Message('note_on', channel=7, note=63, velocity=74, time=0),
    Message('note_on', channel=3, note=74, velocity=93, time=1),
    Message('note_on', channel=7, note=67, velocity=52, time=1),
    Message('note_on', channel=9, note=42, velocity=72, time=1),
    Message('note_off', channel=9, note=42, velocity=72, time=1),
    Message('note_off', channel=3, note=82, velocity=91, time=7),
    Message('note_off', channel=7, note=67, velocity=52, time=8),
    Message('note_off', channel=7, note=63, velocity=74, time=1),
    Message('note_off', channel=7, note=60, velocity=61, time=1),
    Message('note_on', channel=7, note=67, velocity=72, time=2),
    Message('note_off', channel=3, note=74, velocity=93, time=1),
    Message('note_on', channel=7, note=63, velocity=71, time=0),
    Message('note_on', channel=3, note=72, velocity=82, time=1),
    Message('note_on', channel=7, note=60, velocity=68, time=0),
    Message('note_on', channel=9, note=36, velocity=59, time=2),
    Message('note_off', channel=9, note=36, velocity=59, time=1),
    Message('note_on', channel=2, note=51, velocity=50, time=21),
    Message('note_on', channel=2, note=55, velocity=70, time=0),
    Message('note_on', channel=2, note=48, velocity=61, time=1),
    Message('note_on', channel=3, note=70, velocity=80, time=0),
    Message('note_on', channel=9, note=36, velocity=113, time=1),
    Message('note_on', channel=9, note=46, velocity=107, time=0),
    Message('note_off', channel=9, note=46, velocity=107, time=1),
    Message('note_off', channel=9, note=36, velocity=113, time=0),
    Message('control_change', channel=2, control=64, value=0, time=5),
    Message('note_off', channel=3, note=72, velocity=82, time=1),
    Message('note_off', channel=7, note=67, velocity=72, time=8),
    Message('note_off', channel=7, note=63, velocity=71, time=1),
    Message('note_off', channel=7, note=60, velocity=68, time=2),
    Message('note_on', channel=7, note=67, velocity=81, time=1),
    Message('note_on', channel=7, note=63, velocity=71, time=1),
    Message('note_on', channel=7, note=60, velocity=60, time=1),
    Message('control_change', channel=2, control=64, value=127, time=8),
    Message('note_off', channel=7, note=60, velocity=60, time=10),
    Message('note_off', channel=7, note=63, velocity=71, time=0),
    Message('note_off', channel=7, note=67, velocity=81, time=2),
    Message('note_on', channel=7, note=60, velocity=33, time=3),
    Message('note_off', channel=2, note=51, velocity=50, time=2),
    Message('note_on', channel=3, note=72, velocity=83, time=0),
    Message('note_on', channel=7, note=63, velocity=64, time=0),
    Message('note_on', channel=7, note=67, velocity=59, time=0),
    Message('note_off', channel=2, note=55, velocity=70, time=1),
    Message('note_off', channel=3, note=70, velocity=80, time=0),
    Message('note_off', channel=2, note=48, velocity=61, time=10),
    Message('note_off', channel=7, note=67, velocity=59, time=8),
    Message('note_off', channel=7, note=63, velocity=64, time=0),
    Message('note_off', channel=7, note=60, velocity=33, time=2),
    Message('note_on', channel=7, note=67, velocity=70, time=2),
    Message('note_on', channel=7, note=63, velocity=69, time=1),
    Message('note_on', channel=7, note=60, velocity=59, time=1),
    Message('note_off', channel=7, note=60, velocity=59, time=19),
    Message('note_off', channel=7, note=63, velocity=69, time=1),
    Message('note_off', channel=7, note=67, velocity=70, time=0),
    Message('note_off', channel=1, note=36, velocity=70, time=1),
    Message('note_on', channel=4, note=46, velocity=93, time=1),
    Message('note_on', channel=7, note=51, velocity=67, time=0),
    Message('note_on', channel=7, note=58, velocity=67, time=0),
    Message('note_on', channel=1, note=34, velocity=91, time=1),
    Message('note_off', channel=4, note=48, velocity=80, time=0),
    Message('note_on', channel=7, note=63, velocity=76, time=0),
    Message('note_on', channel=2, note=46, velocity=66, time=1),
    Message('note_on', channel=2, note=51, velocity=49, time=0),
    Message('note_on', channel=2, note=55, velocity=72, time=0),
    Message('note_on', channel=7, note=67, velocity=64, time=0),
    Message('note_on', channel=9, note=42, velocity=113, time=0),
    Message('note_on', channel=9, note=36, velocity=127, time=0),
    Message('note_off', channel=9, note=36, velocity=127, time=1),
    Message('note_off', channel=9, note=42, velocity=113, time=0),
    Message('control_change', channel=2, control=64, value=0, time=9),
    Message('control_change', channel=2, control=64, value=127, time=20),
    Message('note_off', channel=7, note=63, velocity=76, time=9),
    Message('note_off', channel=7, note=58, velocity=67, time=0),
    Message('note_off', channel=2, note=51, velocity=49, time=2),
    Message('note_off', channel=7, note=51, velocity=67, time=0),
    Message('note_off', channel=7, note=67, velocity=64, time=1),
    Message('note_off', channel=2, note=55, velocity=72, time=2),
    Message('note_on', channel=7, note=58, velocity=61, time=2),
    Message('note_on', channel=7, note=63, velocity=74, time=0),
    Message('note_on', channel=3, note=67, velocity=78, time=1),
    Message('note_on', channel=7, note=67, velocity=52, time=1),
    Message('note_on', channel=9, note=42, velocity=55, time=1),
    Message('note_off', channel=9, note=42, velocity=55, time=1),
    Message('note_off', channel=2, note=46, velocity=66, time=4),
    Message('note_off', channel=3, note=72, velocity=83, time=5),
    Message('note_off', channel=7, note=67, velocity=52, time=6),
    Message('note_off', channel=7, note=63, velocity=74, time=1),
    Message('note_off', channel=7, note=58, velocity=61, time=1),
    Message('note_on', channel=7, note=67, velocity=72, time=2),
    Message('note_on', channel=7, note=63, velocity=71, time=1),
    Message('note_on', channel=3, note=65, velocity=85, time=1),
    Message('note_on', channel=7, note=58, velocity=68, time=0),
    Message('note_on', channel=7, note=51, velocity=50, time=1),
    Message('note_on', channel=9, note=36, velocity=80, time=0),
    Message('note_off', channel=9, note=36, velocity=80, time=1),
    Message('note_off', channel=3, note=67, velocity=78, time=9),
    Message('note_on', channel=2, note=46, velocity=58, time=13),
    Message('note_on', channel=2, note=55, velocity=68, time=1),
    Message('note_on', channel=2, note=51, velocity=46, time=0),
    Message('note_on', channel=3, note=70, velocity=90, time=0),
    Message('note_on', channel=9, note=36, velocity=120, time=0),
    Message('note_on', channel=9, note=46, velocity=110, time=0),
    Message('note_off', channel=9, note=46, velocity=110, time=1),
    Message('note_off', channel=9, note=36, velocity=120, time=0),
    Message('control_change', channel=2, control=64, value=0, time=7),
    Message('note_off', channel=3, note=65, velocity=85, time=0),
    Message('note_off', channel=7, note=51, velocity=50, time=5),
    Message('note_off', channel=7, note=67, velocity=72, time=3),
    Message('note_off', channel=7, note=63, velocity=71, time=1),
    Message('note_off', channel=7, note=58, velocity=68, time=2),
    Message('note_on', channel=7, note=67, velocity=45, time=2),
    Message('note_on', channel=7, note=63, velocity=54, time=2),
    Message('note_on', channel=7, note=58, velocity=44, time=1),
    Message('control_change', channel=2, control=64, value=127, time=3),
    Message('note_off', channel=7, note=67, velocity=45, time=7),
    Message('note_off', channel=7, note=58, velocity=44, time=3),
    Message('note_off', channel=7, note=63, velocity=54, time=0),
    Message('note_off', channel=2, note=51, velocity=46, time=5),
    Message('note_off', channel=2, note=55, velocity=68, time=2),
    Message('note_on', channel=7, note=58, velocity=49, time=2),
    Message('note_on', channel=3, note=65, velocity=84, time=1),
    Message('note_on', channel=7, note=63, velocity=64, time=0),
    Message('note_on', channel=7, note=67, velocity=57, time=1),
    Message('note_on', channel=9, note=42, velocity=76, time=1),
    Message('note_off', channel=2, note=46, velocity=58, time=1),
    Message('note_off', channel=9, note=42, velocity=76, time=0),
    Message('note_off', channel=7, note=63, velocity=64, time=12),
    Message('note_off', channel=7, note=67, velocity=57, time=2),
    Message('note_off', channel=7, note=58, velocity=49, time=0),
    Message('note_off', channel=3, note=70, velocity=90, time=2),
    Message('note_on', channel=7, note=67, velocity=52, time=3),
    Message('note_on', channel=7, note=63, velocity=59, time=2),
    Message('note_on', channel=7, note=58, velocity=49, time=1),
    Message('pitchwheel', channel=1, pitch=-760, time=12),
    Message('pitchwheel', channel=1, pitch=-2195, time=1),
    Message('note_off', channel=3, note=65, velocity=84, time=1),
    Message('pitchwheel', channel=1, pitch=-3462, time=1),
    Message('note_off', channel=7, note=67, velocity=52, time=0),
    Message('pitchwheel', channel=1, pitch=-4897, time=1),
    Message('note_off', channel=7, note=63, velocity=59, time=0),
    Message('pitchwheel', channel=1, pitch=-5826, time=1),
    Message('note_on', channel=5, note=69, velocity=74, time=0),
    Message('note_off', channel=7, note=58, velocity=49, time=0),
    Message('note_on', channel=5, note=65, velocity=80, time=1),
    Message('pitchwheel', channel=1, pitch=-6502, time=1),
    Message('pitchwheel', channel=1, pitch=-6839, time=1),
    Message('pitchwheel', channel=1, pitch=-7008, time=2),
    Message('note_off', channel=4, note=46, velocity=93, time=0),
    Message('note_on', channel=4, note=45, velocity=91, time=0),
    Message('note_off', channel=5, note=63, velocity=102, time=0),
    Message('note_on', channel=7, note=45, velocity=72, time=0),
    Message('note_on', channel=2, note=53, velocity=71, time=1),
    Message('note_on', channel=7, note=53, velocity=72, time=0),
    Message('note_on', channel=9, note=36, velocity=127, time=0),
    Message('note_on', channel=9, note=49, velocity=110, time=0),
    Message('note_on', channel=1, note=33, velocity=89, time=1),
    Message('note_on', channel=2, note=45, velocity=48, time=0),
    Message('note_on', channel=2, note=48, velocity=55, time=0),
    Message('note_on', channel=3, note=65, velocity=90, time=0),
    Message('note_off', channel=5, note=70, velocity=76, time=0),
    Message('note_on', channel=7, note=60, velocity=61, time=0),
    Message('note_on', channel=7, note=65, velocity=71, time=0),
    Message('note_off', channel=9, note=49, velocity=110, time=0),
    Message('note_off', channel=9, note=36, velocity=127, time=0),
    Message('note_off', channel=1, note=34, velocity=91, time=2),
    Message('control_change', channel=2, control=64, value=0, time=4),
    Message('pitchwheel', channel=1, pitch=-6671, time=1),
    Message('pitchwheel', channel=1, pitch=-5911, time=1),
    Message('pitchwheel', channel=1, pitch=-5151, time=2),
    Message('pitchwheel', channel=1, pitch=-4391, time=1),
    Message('pitchwheel', channel=1, pitch=-3462, time=1),
    Message('pitchwheel', channel=1, pitch=-2871, time=2),
    Message('pitchwheel', channel=1, pitch=-2195, time=2),
    Message('pitchwheel', channel=1, pitch=-1689, time=1),
    Message('pitchwheel', channel=1, pitch=-1098, time=1),
    Message('note_off', channel=7, note=65, velocity=71, time=1),
    Message('note_off', channel=7, note=60, velocity=61, time=0),
    Message('note_off', channel=7, note=53, velocity=72, time=0),
    Message('pitchwheel', channel=1, pitch=-676, time=1),
    Message('pitchwheel', channel=1, pitch=-253, time=1),
    Message('note_on', channel=7, note=65, velocity=68, time=0),
    Message('note_on', channel=7, note=60, velocity=52, time=1),
    Message('pitchwheel', channel=1, pitch=0, time=1),
    Message('control_change', channel=2, control=64, value=127, time=4),
    Message('note_off', channel=7, note=60, velocity=52, time=13),
    Message('note_off', channel=7, note=65, velocity=68, time=2),
    Message('note_on', channel=7, note=53, velocity=49, time=2),
    Message('note_on', channel=7, note=60, velocity=60, time=1),
    Message('note_on', channel=3, note=60, velocity=67, time=3),
    Message('note_on', channel=9, note=42, velocity=72, time=0),
    Message('note_off', channel=2, note=48, velocity=55, time=1),
    Message('note_off', channel=9, note=42, velocity=72, time=0),
    Message('note_on', channel=7, note=65, velocity=44, time=2),
    Message('note_off', channel=2, note=45, velocity=48, time=1),
    Message('note_off', channel=2, note=53, velocity=71, time=0),
    Message('note_off', channel=3, note=65, velocity=90, time=2),
    Message('note_off', channel=7, note=65, velocity=44, time=13),
    Message('note_off', channel=7, note=45, velocity=72, time=0),
    Message('note_off', channel=7, note=60, velocity=60, time=1),
    Message('note_on', channel=7, note=65, velocity=68, time=0),
    Message('note_off', channel=7, note=53, velocity=49, time=1),
    Message('note_on', channel=3, note=65, velocity=80, time=2),
    Message('note_on', channel=7, note=53, velocity=60, time=0),
    Message('note_on', channel=7, note=60, velocity=67, time=0),
    Message('note_off', channel=3, note=60, velocity=67, time=2),
    Message('note_on', channel=9, note=36, velocity=51, time=0),
    Message('note_off', channel=9, note=36, velocity=51, time=1),
    Message('note_on', channel=2, note=53, velocity=63, time=21),
    Message('note_on', channel=2, note=45, velocity=43, time=1),
    Message('note_on', channel=2, note=48, velocity=56, time=0),
    Message('note_on', channel=3, note=69, velocity=79, time=0),
    Message('note_on', channel=9, note=46, velocity=107, time=0),
    Message('note_on', channel=9, note=36, velocity=113, time=0),
    Message('note_off', channel=9, note=36, velocity=113, time=1),
    Message('note_off', channel=9, note=46, velocity=107, time=0),
    Message('note_off', channel=3, note=65, velocity=80, time=7),
    Message('note_off', channel=7, note=65, velocity=68, time=10),
    Message('note_off', channel=7, note=60, velocity=67, time=2),
    Message('note_off', channel=7, note=53, velocity=60, time=0),
    Message('note_on', channel=7, note=65, velocity=56, time=2),
    Message('note_on', channel=7, note=60, velocity=62, time=1),
    Message('note_on', channel=3, note=72, velocity=60, time=1),
    Message('note_on', channel=7, note=53, velocity=54, time=0),
    Message('note_off', channel=3, note=69, velocity=79, time=1),
    Message('note_off', channel=7, note=53, velocity=54, time=17),
    Message('note_off', channel=7, note=60, velocity=62, time=1),
    Message('note_off', channel=2, note=48, velocity=56, time=1),
    Message('note_off', channel=7, note=65, velocity=56, time=0),
    Message('note_on', channel=7, note=53, velocity=51, time=0),
    Message('note_off', channel=2, note=45, velocity=43, time=1),
    Message('note_on', channel=7, note=60, velocity=59, time=0),
    Message('note_off', channel=2, note=53, velocity=63, time=1),
    Message('note_on', channel=7, note=65, velocity=52, time=0),
    Message('note_off', channel=7, note=65, velocity=52, time=22),
    Message('note_off', channel=7, note=60, velocity=59, time=1),
    Message('note_on', channel=7, note=65, velocity=78, time=0),
    Message('note_off', channel=7, note=53, velocity=51, time=1),
    Message('note_on', channel=7, note=60, velocity=64, time=0),
    Message('note_on', channel=7, note=53, velocity=59, time=1),
    Message('note_off', channel=7, note=53, velocity=59, time=14),
    Message('note_off', channel=7, note=65, velocity=78, time=0),
    Message('note_off', channel=7, note=60, velocity=64, time=1),
    Message('note_off', channel=3, note=72, velocity=60, time=6),
    Message('note_on', channel=7, note=45, velocity=67, time=0),
    Message('note_on', channel=4, note=48, velocity=91, time=2),
    Message('note_on', channel=2, note=53, velocity=67, time=1),
    Message('note_off', channel=4, note=45, velocity=91, time=0),
    Message('note_on', channel=7, note=60, velocity=67, time=0),
    Message('note_on', channel=9, note=42, velocity=107, time=0),
    Message('note_on', channel=2, note=45, velocity=56, time=1),
    Message('note_on', channel=2, note=48, velocity=57, time=0),
    Message('note_on', channel=3, note=69, velocity=74, time=0),
    Message('note_on', channel=7, note=65, velocity=76, time=0),
    Message('note_on', channel=9, note=36, velocity=125, time=0),
    Message('note_off', channel=9, note=42, velocity=107, time=0),
    Message('note_off', channel=9, note=36, velocity=125, time=1),
    Message('note_on', channel=7, note=72, velocity=80, time=1),
    Message('control_change', channel=2, control=64, value=0, time=2),
    Message('note_on', channel=3, note=65, velocity=71, time=19),
    Message('control_change', channel=2, control=64, value=127, time=2),
    Message('note_off', channel=3, note=69, velocity=74, time=0),
    Message('note_off', channel=7, note=65, velocity=76, time=15),
    Message('note_off', channel=2, note=48, velocity=57, time=3),
    Message('note_off', channel=7, note=72, velocity=80, time=1),
    Message('note_off', channel=7, note=60, velocity=67, time=1),
    Message('note_on', channel=7, note=57, velocity=33, time=0),
    Message('note_off', channel=3, note=65, velocity=71, time=1),
    Message('note_on', channel=7, note=65, velocity=64, time=1),
    Message('note_on', channel=7, note=72, velocity=76, time=0),
    Message('note_on', channel=9, note=42, velocity=70, time=0),
    Message('note_off', channel=2, note=45, velocity=56, time=1),
    Message('note_on', channel=3, note=60, velocity=61, time=0),
    Message('note_off', channel=9, note=42, velocity=70, time=0),
    Message('note_off', channel=2, note=53, velocity=67, time=2),
    Message('note_off', channel=7, note=45, velocity=67, time=16),
    Message('note_on', channel=9, note=36, velocity=77, time=4),
    Message('note_off', channel=9, note=36, velocity=77, time=1),
    Message('note_on', channel=3, note=69, velocity=84, time=1),
    Message('note_on', channel=3, note=65, velocity=76, time=0),
    Message('note_off', channel=3, note=60, velocity=61, time=3),
    Message('note_off', channel=7, note=57, velocity=33, time=13),
    Message('note_off', channel=7, note=72, velocity=76, time=2),
    Message('note_off', channel=7, note=65, velocity=64, time=0),
    Message('note_on', channel=7, note=57, velocity=33, time=3),
    Message('note_on', channel=2, note=53, velocity=66, time=2),
    Message('note_on', channel=7, note=65, velocity=64, time=0),
    Message('note_on', channel=7, note=72, velocity=76, time=0),
    Message('note_on', channel=2, note=45, velocity=47, time=1),
    Message('note_on', channel=2, note=48, velocity=57, time=0),
    Message('note_on', channel=9, note=46, velocity=127, time=0),
    Message('note_on', channel=9, note=36, velocity=127, time=0),
    Message('note_off', channel=9, note=36, velocity=127, time=1),
    Message('note_off', channel=9, note=46, velocity=127, time=0),
    Message('control_change', channel=2, control=64, value=0, time=13),
    Message('note_off', channel=7, note=72, velocity=76, time=4),
    Message('note_off', channel=7, note=65, velocity=64, time=0),
    Message('note_off', channel=7, note=57, velocity=33, time=2),
    Message('note_on', channel=7, note=72, velocity=79, time=2),
    Message('note_on', channel=7, note=65, velocity=69, time=1),
    Message('note_on', channel=3, note=60, velocity=80, time=1),
    Message('note_on', channel=7, note=57, velocity=59, time=0),
    Message('note_off', channel=3, note=65, velocity=76, time=6),
    Message('control_change', channel=2, control=64, value=127, time=3),
    Message('note_off', channel=7, note=57, velocity=59, time=10),
    Message('note_off', channel=7, note=65, velocity=69, time=1),
    Message('note_off', channel=7, note=72, velocity=79, time=0),
    Message('note_on', channel=7, note=57, velocity=61, time=2),
    Message('note_on', channel=7, note=65, velocity=74, time=1),
    Message('note_off', channel=2, note=48, velocity=57, time=1),
    Message('note_on', channel=3, note=64, velocity=73, time=0),
    Message('note_on', channel=3, note=67, velocity=70, time=0),
    Message('note_on', channel=7, note=72, velocity=70, time=0),
    Message('note_off', channel=3, note=69, velocity=84, time=1),
    Message('note_off', channel=3, note=60, velocity=80, time=1),
    Message('note_off', channel=2, note=45, velocity=47, time=1),
    Message('note_off', channel=2, note=53, velocity=66, time=1),
    Message('note_off', channel=7, note=72, velocity=70, time=13),
    Message('note_off', channel=7, note=65, velocity=74, time=2),
    Message('note_off', channel=7, note=57, velocity=61, time=0),
    Message('note_on', channel=7, note=72, velocity=82, time=2),
    Message('note_on', channel=7, note=65, velocity=71, time=1),
    Message('note_on', channel=7, note=57, velocity=68, time=1),
    Message('note_off', channel=4, note=48, velocity=91, time=18),
    Message('note_on', channel=4, note=53, velocity=87, time=0),
    Message('note_off', channel=7, note=72, velocity=82, time=2),
    Message('note_off', channel=7, note=65, velocity=71, time=1),
    Message('note_on', channel=7, note=45, velocity=67, time=0),
    Message('note_off', channel=7, note=57, velocity=68, time=1),
    Message('note_on', channel=7, note=65, velocity=67, time=2),
    Message('note_on', channel=2, note=53, velocity=64, time=1),
    Message('note_on', channel=7, note=72, velocity=76, time=0),
    Message('note_on', channel=9, note=49, velocity=116, time=0),
    Message('note_on', channel=9, note=36, velocity=127, time=0),
    Message('note_on', channel=2, note=45, velocity=32, time=1),
    Message('note_on', channel=2, note=48, velocity=43, time=0),
    Message('note_off', channel=9, note=36, velocity=127, time=0),
    Message('note_off', channel=9, note=49, velocity=116, time=0),
    Message('note_off', channel=3, note=64, velocity=73, time=1),
    Message('note_on', channel=7, note=77, velocity=80, time=0),
    Message('note_off', channel=3, note=67, velocity=70, time=2),
    Message('control_change', channel=2, control=64, value=0, time=10),
    Message('control_change', channel=2, control=64, value=127, time=19),
    Message('note_off', channel=7, note=72, velocity=76, time=7),
    Message('note_off', channel=7, note=77, velocity=80, time=4),
    Message('note_off', channel=7, note=65, velocity=67, time=0),
    Message('note_on', channel=7, note=65, velocity=49, time=0),
    Message('note_on', channel=7, note=72, velocity=60, time=1),
    Message('note_on', channel=3, note=60, velocity=59, time=3),
    Message('note_on', channel=9, note=42, velocity=76, time=0),
    Message('note_off', channel=9, note=42, velocity=76, time=1),
    Message('note_on', channel=7, note=77, velocity=44, time=2),
    Message('note_off', channel=2, note=45, velocity=32, time=7),
    Message('note_off', channel=2, note=48, velocity=43, time=2),
    Message('note_off', channel=7, note=65, velocity=49, time=1),
    Message('note_off', channel=2, note=53, velocity=64, time=1),
    Message('note_off', channel=7, note=72, velocity=60, time=3),
    Message('note_off', channel=7, note=77, velocity=44, time=2),
    Message('note_on', channel=7, note=77, velocity=68, time=1),
    Message('note_on', channel=7, note=65, velocity=60, time=3),
    Message('note_on', channel=7, note=72, velocity=67, time=0),
    Message('note_on', channel=3, note=65, velocity=68, time=1),
    Message('note_on', channel=9, note=36, velocity=67, time=0),
    Message('note_off', channel=9, note=36, velocity=67, time=1),
    Message('note_off', channel=3, note=60, velocity=59, time=10),
    Message('note_off', channel=7, note=77, velocity=68, time=7),
    Message('note_off', channel=7, note=45, velocity=67, time=0),
    Message('note_off', channel=7, note=72, velocity=67, time=2),
    Message('note_off', channel=7, note=65, velocity=60, time=0),
    Message('note_on', channel=7, note=65, velocity=49, time=0),
    Message('note_on', channel=7, note=72, velocity=60, time=1),
    Message('note_on', channel=3, note=69, velocity=73, time=2),
    Message('note_on', channel=2, note=45, velocity=45, time=1),
    Message('note_on', channel=2, note=48, velocity=40, time=0),
    Message('note_on', channel=2, note=53, velocity=50, time=0),
    Message('note_on', channel=9, note=46, velocity=116, time=0),
    Message('note_on', channel=9, note=36, velocity=127, time=0),
    Message('note_off', channel=9, note=36, velocity=127, time=1),
    Message('note_off', channel=9, note=46, velocity=116, time=0),
    Message('note_on', channel=7, note=77, velocity=44, time=2),
    Message('note_off', channel=3, note=65, velocity=68, time=8),
    Message('control_change', channel=2, control=64, value=0, time=5),
    Message('note_off', channel=7, note=65, velocity=49, time=0),
    Message('note_off', channel=7, note=77, velocity=44, time=3),
    Message('note_off', channel=7, note=72, velocity=60, time=1),
    Message('note_on', channel=7, note=77, velocity=68, time=0),
    Message('note_on', channel=7, note=65, velocity=60, time=3),
    Message('note_on', channel=7, note=72, velocity=67, time=0),
    Message('note_on', channel=3, note=72, velocity=85, time=1),
    Message('control_change', channel=2, control=64, value=127, time=5),
    Message('note_off', channel=3, note=69, velocity=73, time=1),
    Message('note_off', channel=2, note=45, velocity=45, time=5),
    Message('note_off', channel=3, note=72, velocity=85, time=12),
    Message('note_off', channel=2, note=48, velocity=40, time=2),
    Message('note_off', channel=2, note=53, velocity=50, time=2),
    Message('note_off', channel=7, note=77, velocity=68, time=14),
    Message('note_off', channel=7, note=72, velocity=67, time=1),
    Message('note_off', channel=7, note=65, velocity=60, time=0),
    Message('note_on', channel=7, note=65, velocity=49, time=2),
    Message('note_on', channel=7, note=72, velocity=60, time=1),
    Message('note_on', channel=9, note=36, velocity=118, time=3),
    Message('note_off', channel=9, note=36, velocity=118, time=1),
    Message('note_on', channel=7, note=77, velocity=44, time=2),
    Message('note_off', channel=1, note=33, velocity=89, time=10),
    Message('note_off', channel=7, note=65, velocity=49, time=3),
    Message('note_on', channel=5, note=60, velocity=85, time=1),
    Message('note_on', channel=5, note=70, velocity=107, time=2),
    Message('note_off', channel=7, note=77, velocity=44, time=0),
    Message('note_off', channel=7, note=72, velocity=60, time=1),
    Message('note_off', channel=5, note=69, velocity=74, time=1),
    Message('note_on', channel=7, note=53, velocity=72, time=1),
    Message('note_on', channel=9, note=49, velocity=107, time=0),
    Message('note_on', channel=1, note=29, velocity=98, time=1),
    Message('note_on', channel=7, note=70, velocity=72, time=0),
    Message('note_on', channel=9, note=36, velocity=127, time=0),
    Message('note_off', channel=9, note=49, velocity=107, time=0),
    Message('note_on', channel=2, note=53, velocity=54, time=1),
    Message('note_on', channel=3, note=58, velocity=64, time=0),
    Message('note_on', channel=3, note=65, velocity=64, time=0),
    Message('note_on', channel=7, note=72, velocity=61, time=0),
    Message('note_on', channel=7, note=77, velocity=71, time=0),
    Message('note_off', channel=9, note=36, velocity=127, time=0),
    Message('note_on', channel=2, note=41, velocity=49, time=1),
    Message('note_on', channel=3, note=63, velocity=64, time=0),
    Message('note_off', channel=3, note=63, velocity=64, time=7),
    Message('note_off', channel=3, note=58, velocity=64, time=3),
    Message('note_off', channel=3, note=65, velocity=64, time=1),
    Message('control_change', channel=2, control=64, value=0, time=1),
    Message('note_off', channel=7, note=77, velocity=71, time=6),
    Message('note_off', channel=7, note=72, velocity=61, time=0),
    Message('note_off', channel=7, note=70, velocity=72, time=0),
    Message('note_on', channel=7, note=77, velocity=68, time=2),
    Message('note_on', channel=7, note=72, velocity=52, time=1),
    Message('note_on', channel=9, note=47, velocity=87, time=1),
    Message('note_on', channel=3, note=58, velocity=67, time=1),
    Message('note_on', channel=3, note=63, velocity=67, time=0),
    Message('note_on', channel=3, note=65, velocity=67, time=0),
    Message('note_off', channel=9, note=47, velocity=87, time=0),
    Message('note_off', channel=3, note=63, velocity=67, time=6),
    Message('control_change', channel=2, control=64, value=127, time=3),
    Message('note_off', channel=3, note=65, velocity=67, time=1),
    Message('note_off', channel=3, note=58, velocity=67, time=0),
    Message('note_off', channel=7, note=72, velocity=52, time=6),
    Message('note_off', channel=7, note=77, velocity=68, time=2),
    Message('note_on', channel=7, note=70, velocity=49, time=2),
    Message('note_on', channel=7, note=72, velocity=60, time=1),
    Message('note_on', channel=3, note=58, velocity=71, time=2),
    Message('note_on', channel=3, note=63, velocity=71, time=0),
    Message('note_on', channel=3, note=65, velocity=71, time=0),
    Message('note_on', channel=9, note=47, velocity=113, time=0),
    Message('note_off', channel=9, note=47, velocity=113, time=1),
    Message('note_on', channel=7, note=77, velocity=44, time=3),
    Message('note_off', channel=3, note=63, velocity=71, time=2),
    Message('note_off', channel=2, note=41, velocity=49, time=2),
    Message('note_off', channel=2, note=53, velocity=54, time=1),
    Message('note_off', channel=3, note=65, velocity=71, time=0),
    Message('note_off', channel=3, note=58, velocity=71, time=0),
    Message('note_off', channel=7, note=77, velocity=44, time=11),
    Message('note_off', channel=7, note=53, velocity=72, time=0),
    Message('note_off', channel=7, note=72, velocity=60, time=1),
    Message('note_on', channel=7, note=77, velocity=68, time=0),
    Message('note_off', channel=7, note=70, velocity=49, time=1),
    Message('note_on', channel=3, note=58, velocity=75, time=2),
    Message('note_on', channel=3, note=63, velocity=75, time=0),
    Message('note_on', channel=3, note=65, velocity=75, time=0),
    Message('note_on', channel=7, note=70, velocity=60, time=0),
    Message('note_on', channel=7, note=72, velocity=67, time=0),
    Message('note_on', channel=9, note=45, velocity=127, time=0),
    Message('note_off', channel=9, note=45, velocity=127, time=1),
    Message('note_on', channel=9, note=45, velocity=127, time=23),
    Message('note_off', channel=1, note=29, velocity=98, time=1),
    Message('note_on', channel=1, note=41, velocity=98, time=0),
    Message('note_on', channel=2, note=41, velocity=55, time=0),
    Message('note_on', channel=2, note=53, velocity=55, time=0),
    Message('note_off', channel=9, note=45, velocity=127, time=0),
    Message('note_off', channel=3, note=63, velocity=75, time=14),
    Message('control_change', channel=2, control=64, value=0, time=3),
    Message('note_off', channel=3, note=65, velocity=75, time=1),
    Message('note_off', channel=3, note=58, velocity=75, time=0),
    Message('note_off', channel=7, note=77, velocity=68, time=0),
    Message('note_off', channel=7, note=72, velocity=67, time=2),
    Message('note_off', channel=7, note=70, velocity=60, time=0),
    Message('note_on', channel=7, note=77, velocity=56, time=2),
    Message('note_on', channel=9, note=43, velocity=119, time=0),
    Message('note_on', channel=7, note=72, velocity=62, time=1),
    Message('note_off', channel=9, note=43, velocity=119, time=0),
    Message('note_on', channel=3, note=58, velocity=83, time=1),
    Message('note_on', channel=3, note=63, velocity=83, time=0),
    Message('note_on', channel=3, note=65, velocity=83, time=0),
    Message('note_on', channel=7, note=70, velocity=54, time=0),
    Message('control_change', channel=2, control=64, value=127, time=3),
    Message('note_off', channel=3, note=63, velocity=83, time=2),
    Message('note_off', channel=3, note=65, velocity=83, time=5),
    Message('note_off', channel=3, note=58, velocity=83, time=1),
    Message('note_off', channel=7, note=70, velocity=54, time=7),
    Message('note_off', channel=7, note=72, velocity=62, time=1),
    Message('note_off', channel=7, note=77, velocity=56, time=1),
    Message('note_on', channel=7, note=70, velocity=51, time=0),
    Message('note_on', channel=9, note=41, velocity=119, time=0),
    Message('note_on', channel=7, note=72, velocity=59, time=1),
    Message('note_on', channel=7, note=77, velocity=52, time=1),
    Message('note_off', channel=9, note=41, velocity=119, time=0),
    Message('note_on', channel=3, note=58, velocity=87, time=1),
    Message('note_on', channel=3, note=65, velocity=87, time=0),
    Message('note_on', channel=3, note=63, velocity=87, time=1),
    Message('note_on', channel=9, note=41, velocity=122, time=0),
    Message('note_off', channel=2, note=53, velocity=55, time=2),
    Message('note_off', channel=9, note=41, velocity=122, time=0),
    Message('note_off', channel=2, note=41, velocity=55, time=2),
    Message('note_off', channel=7, note=77, velocity=52, time=16),
    Message('note_off', channel=7, note=72, velocity=59, time=1),
    Message('note_on', channel=7, note=77, velocity=78, time=0),
    Message('note_on', channel=9, note=41, velocity=122, time=0),
    Message('note_off', channel=7, note=70, velocity=51, time=1),
    Message('note_on', channel=7, note=72, velocity=64, time=0),
    Message('note_off', channel=9, note=41, velocity=122, time=0),
    Message('note_on', channel=7, note=70, velocity=59, time=1),
    Message('note_off', channel=7, note=70, velocity=59, time=14),
    Message('note_off', channel=7, note=77, velocity=78, time=0),
    Message('note_on', channel=4, note=58, velocity=87, time=1),
    Message('note_off', channel=7, note=72, velocity=64, time=0),
    Message('note_off', channel=3, note=63, velocity=87, time=1),
    Message('note_off', channel=4, note=53, velocity=87, time=0),
    Message('note_off', channel=5, note=70, velocity=107, time=2),
    Message('note_on', channel=5, note=62, velocity=74, time=2),
    Message('note_on', channel=7, note=46, velocity=67, time=1),
    Message('note_off', channel=1, note=41, velocity=98, time=1),
    Message('note_off', channel=5, note=60, velocity=85, time=0),
    Message('note_on', channel=9, note=36, velocity=127, time=1),
    Message('note_on', channel=1, note=34, velocity=91, time=1),
    Message('note_off', channel=3, note=65, velocity=87, time=0),
    Message('note_on', channel=7, note=62, velocity=67, time=0),
    Message('note_off', channel=9, note=36, velocity=127, time=0),
    Message('note_on', channel=2, note=50, velocity=58, time=1),
    Message('note_on', channel=2, note=53, velocity=58, time=0),
    Message('note_on', channel=5, note=70, velocity=102, time=0),
    Message('note_on', channel=7, note=65, velocity=76, time=0),
    Message('note_on', channel=9, note=49, velocity=127, time=0),
    Message('note_on', channel=2, note=46, velocity=58, time=1),
    Message('note_off', channel=9, note=49, velocity=127, time=0),
    Message('note_on', channel=7, note=70, velocity=64, time=1),
    Message('note_off', channel=3, note=58, velocity=87, time=1),
    Message('control_change', channel=2, control=64, value=0, time=10),
    Message('control_change', channel=2, control=64, value=127, time=20),
    Message('note_off', channel=7, note=62, velocity=67, time=6),
    Message('note_off', channel=7, note=65, velocity=76, time=1),
    Message('note_off', channel=7, note=70, velocity=64, time=4),
    Message('note_on', channel=7, note=62, velocity=33, time=1),
    Message('note_off', channel=2, note=50, velocity=58, time=1),
    Message('note_off', channel=2, note=46, velocity=58, time=1),
    Message('note_off', channel=2, note=53, velocity=58, time=0),
    Message('note_on', channel=3, note=65, velocity=74, time=0),
    Message('note_on', channel=7, note=65, velocity=64, time=0),
    Message('note_on', channel=7, note=70, velocity=59, time=0),
    Message('note_on', channel=9, note=51, velocity=122, time=0),
    Message('note_off', channel=9, note=51, velocity=122, time=1),
    Message('note_off', channel=3, note=65, velocity=74, time=11),
    Message('note_off', channel=7, note=70, velocity=59, time=7),
    Message('note_off', channel=7, note=65, velocity=64, time=0),
    Message('note_off', channel=7, note=62, velocity=33, time=2),
    Message('note_on', channel=7, note=70, velocity=70, time=2),
    Message('note_on', channel=9, note=36, velocity=105, time=0),
    Message('note_on', channel=3, note=65, velocity=92, time=1),
    Message('note_on', channel=7, note=65, velocity=69, time=0),
    Message('note_off', channel=9, note=36, velocity=105, time=0),
    Message('note_on', channel=7, note=62, velocity=59, time=1),
    Message('note_off', channel=1, note=34, velocity=91, time=11),
    Message('note_off', channel=7, note=62, velocity=59, time=8),
    Message('note_off', channel=7, note=65, velocity=69, time=1),
    Message('note_off', channel=7, note=70, velocity=70, time=0),
    Message('note_on', channel=7, note=62, velocity=33, time=1),
    Message('note_on', channel=3, note=70, velocity=94, time=1),
    Message('note_on', channel=1, note=34, velocity=72, time=1),
    Message('note_on', channel=7, note=65, velocity=64, time=0),
    Message('note_on', channel=7, note=70, velocity=59, time=0),
    Message('note_on', channel=9, note=40, velocity=127, time=0),
    Message('note_on', channel=9, note=51, velocity=127, time=0),
    Message('note_on', channel=2, note=46, velocity=56, time=1),
    Message('note_on', channel=2, note=50, velocity=64, time=0),
    Message('note_on', channel=2, note=53, velocity=82, time=0),
    Message('note_off', channel=9, note=51, velocity=127, time=0),
    Message('note_off', channel=9, note=40, velocity=127, time=0),
    Message('note_off', channel=3, note=65, velocity=92, time=6),
    Message('control_change', channel=2, control=64, value=0, time=5),
    Message('note_off', channel=3, note=70, velocity=94, time=2),
    Message('note_on', channel=3, note=70, velocity=79, time=9),
    Message('control_change', channel=2, control=64, value=127, time=9),
    Message('note_off', channel=2, note=50, velocity=64, time=2),
    Message('note_off', channel=7, note=62, velocity=33, time=7),
    Message('note_off', channel=2, note=53, velocity=82, time=1),
    Message('note_off', channel=7, note=70, velocity=59, time=0),
    Message('note_off', channel=7, note=65, velocity=64, time=1),
    Message('note_off', channel=2, note=46, velocity=56, time=2),
    Message('note_on', channel=7, note=62, velocity=61, time=2),
    Message('note_on', channel=3, note=74, velocity=103, time=1),
    Message('note_on', channel=7, note=65, velocity=74, time=0),
    Message('note_on', channel=7, note=70, velocity=52, time=1),
    Message('note_on', channel=9, note=51, velocity=107, time=0),
    Message('note_off', channel=9, note=51, velocity=107, time=1),
    Message('note_off', channel=3, note=70, velocity=79, time=10),
    Message('note_off', channel=3, note=74, velocity=103, time=3),
    Message('note_off', channel=7, note=70, velocity=52, time=5),
    Message('note_off', channel=7, note=65, velocity=74, time=0),
    Message('note_off', channel=7, note=62, velocity=61, time=0),
    Message('note_on', channel=7, note=70, velocity=72, time=2),
    Message('note_on', channel=3, note=74, velocity=92, time=1),
    Message('note_on', channel=7, note=65, velocity=71, time=0),
    Message('note_on', channel=9, note=36, velocity=79, time=0),
    Message('note_on', channel=7, note=62, velocity=68, time=1),
    Message('note_off', channel=9, note=36, velocity=79, time=0),
    Message('note_off', channel=7, note=46, velocity=67, time=5),
    Message('note_off', channel=1, note=34, velocity=72, time=13),
    Message('note_off', channel=7, note=70, velocity=72, time=1),
    Message('note_off', channel=7, note=65, velocity=71, time=2),
    Message('note_off', channel=7, note=62, velocity=68, time=1),
    Message('note_on', channel=7, note=46, velocity=50, time=0),
    Message('note_on', channel=7, note=62, velocity=33, time=0),
    Message('note_on', channel=1, note=34, velocity=68, time=2),
    Message('note_on', channel=2, note=50, velocity=64, time=0),
    Message('note_on', channel=2, note=53, velocity=53, time=0),
    Message('note_on', channel=2, note=58, velocity=65, time=0),
    Message('note_on', channel=3, note=75, velocity=101, time=0),
    Message('note_on', channel=7, note=65, velocity=64, time=0),
    Message('note_on', channel=7, note=70, velocity=59, time=0),
    Message('note_on', channel=9, note=51, velocity=119, time=0),
    Message('note_on', channel=9, note=36, velocity=127, time=0),
    Message('control_change', channel=2, control=64, value=0, time=1),
    Message('note_off', channel=9, note=36, velocity=127, time=0),
    Message('note_off', channel=9, note=51, velocity=119, time=0),
    Message('note_off', channel=3, note=74, velocity=92, time=13),
    Message('note_off', channel=7, note=62, velocity=33, time=2),
    Message('note_off', channel=7, note=70, velocity=59, time=3),
    Message('note_off', channel=7, note=65, velocity=64, time=0),
    Message('control_change', channel=2, control=64, value=127, time=2),
    Message('note_on', channel=7, note=70, velocity=70, time=2),
    Message('note_on', channel=7, note=65, velocity=69, time=1),
    Message('note_on', channel=7, note=62, velocity=59, time=1),
    Message('note_off', channel=7, note=46, velocity=50, time=10),
    Message('note_off', channel=7, note=62, velocity=59, time=9),
    Message('note_off', channel=7, note=65, velocity=69, time=1),
    Message('note_off', channel=7, note=70, velocity=70, time=0),
    Message('note_on', channel=7, note=62, velocity=61, time=2),
    Message('note_on', channel=3, note=74, velocity=106, time=1),
    Message('note_on', channel=7, note=65, velocity=74, time=0),
    Message('note_on', channel=9, note=51, velocity=100, time=0),
    Message('note_off', channel=3, note=75, velocity=101, time=1),
    Message('note_on', channel=7, note=70, velocity=52, time=0),
    Message('note_off', channel=9, note=51, velocity=100, time=0),
    Message('note_off', channel=1, note=34, velocity=68, time=1),
    Message('note_off', channel=2, note=53, velocity=53, time=1),
    Message('note_off', channel=2, note=58, velocity=65, time=1),
    Message('note_off', channel=2, note=50, velocity=64, time=9),
    Message('note_off', channel=7, note=70, velocity=52, time=5),
    Message('note_off', channel=7, note=65, velocity=74, time=2),
    Message('note_off', channel=7, note=62, velocity=61, time=0),
    Message('note_on', channel=7, note=70, velocity=82, time=2),
    Message('note_on', channel=7, note=65, velocity=74, time=1),
    Message('note_on', channel=9, note=36, velocity=105, time=0),
    Message('note_on', channel=1, note=34, velocity=27, time=1),
    Message('note_on', channel=7, note=62, velocity=78, time=0),
    Message('note_off', channel=9, note=36, velocity=105, time=0),
    Message('note_on', channel=3, note=72, velocity=102, time=1),
    Message('note_off', channel=1, note=34, velocity=27, time=5),
    Message('note_off', channel=3, note=74, velocity=106, time=0),
    Message('note_off', channel=7, note=62, velocity=78, time=16),
    Message('note_off', channel=7, note=65, velocity=74, time=0),
    Message('note_off', channel=7, note=70, velocity=82, time=0),
    Message('note_on', channel=1, note=34, velocity=60, time=2),
    Message('note_on', channel=2, note=58, velocity=69, time=0),
    Message('note_on', channel=9, note=51, velocity=127, time=0),
    Message('note_on', channel=9, note=40, velocity=127, time=0),
    Message('note_on', channel=2, note=50, velocity=51, time=1),
    Message('note_on', channel=2, note=53, velocity=62, time=0),
    Message('note_off', channel=9, note=40, velocity=127, time=0),
    Message('note_off', channel=9, note=51, velocity=127, time=0),
    Message('control_change', channel=2, control=64, value=0, time=12),
    Message('note_on', channel=7, note=70, velocity=94, time=8),
    Message('note_on', channel=7, note=65, velocity=71, time=1),
    Message('note_on', channel=7, note=62, velocity=60, time=1),
    Message('control_change', channel=2, control=64, value=127, time=7),
    Message('note_off', channel=2, note=53, velocity=62, time=7),
    Message('note_off', channel=2, note=50, velocity=51, time=1),
    Message('note_off', channel=7, note=62, velocity=60, time=3),
    Message('note_off', channel=7, note=65, velocity=71, time=0),
    Message('note_off', channel=2, note=58, velocity=69, time=2),
    Message('note_off', channel=7, note=70, velocity=94, time=0),
    Message('note_on', channel=7, note=62, velocity=33, time=3),
    Message('note_off', channel=3, note=72, velocity=102, time=1),
    Message('note_on', channel=1, note=26, velocity=89, time=1),
    Message('note_on', channel=3, note=74, velocity=100, time=0),
    Message('note_on', channel=7, note=65, velocity=64, time=0),
    Message('note_on', channel=7, note=70, velocity=59, time=0),
    Message('note_off', channel=1, note=34, velocity=60, time=1),
    Message('note_on', channel=9, note=51, velocity=122, time=0),
    Message('note_off', channel=9, note=51, velocity=122, time=1),
    Message('note_off', channel=7, note=70, velocity=59, time=17),
    Message('note_off', channel=7, note=65, velocity=64, time=0),
    Message('note_off', channel=7, note=62, velocity=33, time=2),
    Message('note_on', channel=7, note=70, velocity=70, time=2),
    Message('note_on', channel=7, note=65, velocity=69, time=1),
    Message('note_on', channel=7, note=62, velocity=59, time=1),
    Message('note_off', channel=7, note=70, velocity=70, time=13),
    Message('note_on', channel=5, note=63, velocity=85, time=2),
    Message('note_on', channel=5, note=67, velocity=78, time=0),
    Message('note_off', channel=7, note=65, velocity=69, time=1),
    Message('note_off', channel=5, note=62, velocity=74, time=1),
    Message('note_off', channel=5, note=65, velocity=80, time=0),
    Message('note_off', channel=7, note=62, velocity=59, time=2),
    Message('note_on', channel=7, note=51, velocity=50, time=2),
    Message('note_on', channel=7, note=58, velocity=61, time=1),
    Message('note_on', channel=7, note=63, velocity=74, time=0),
    Message('note_off', channel=1, note=26, velocity=89, time=1),
    Message('note_on', channel=1, note=27, velocity=89, time=0),
    Message('note_on', channel=2, note=55, velocity=71, time=0),
    Message('note_on', channel=2, note=58, velocity=60, time=0),
    Message('note_on', channel=2, note=51, velocity=57, time=0),
    Message('note_on', channel=3, note=70, velocity=93, time=0),
    Message('note_on', channel=9, note=36, velocity=127, time=0),
    Message('note_on', channel=7, note=67, velocity=52, time=1),
    Message('note_on', channel=9, note=51, velocity=122, time=0),
    Message('note_off', channel=9, note=36, velocity=127, time=0),
    Message('note_off', channel=9, note=51, velocity=122, time=1),
    Message('control_change', channel=2, control=64, value=0, time=4),
    Message('note_off', channel=3, note=74, velocity=100, time=11),
    Message('note_off', channel=7, note=67, velocity=52, time=1),
    Message('control_change', channel=2, control=64, value=127, time=7),
    Message('note_off', channel=7, note=51, velocity=50, time=10),
    Message('note_off', channel=7, note=63, velocity=74, time=4),
    Message('note_off', channel=7, note=58, velocity=61, time=0),
    Message('note_off', channel=2, note=55, velocity=71, time=7),
    Message('note_on', channel=7, note=58, velocity=61, time=1),
    Message('note_on', channel=7, note=63, velocity=74, time=0),
    Message('note_off', channel=2, note=58, velocity=60, time=1),
    Message('note_on', channel=9, note=51, velocity=100, time=0),
    Message('note_on', channel=3, note=67, velocity=87, time=1),
    Message('note_on', channel=7, note=67, velocity=52, time=0),
    Message('note_off', channel=9, note=51, velocity=100, time=0),
    Message('note_off', channel=2, note=51, velocity=57, time=1),
    Message('note_off', channel=3, note=70, velocity=93, time=1),
    Message('note_off', channel=7, note=67, velocity=52, time=15),
    Message('note_off', channel=7, note=63, velocity=74, time=1),
    Message('note_off', channel=7, note=58, velocity=61, time=1),
    Message('note_on', channel=7, note=67, velocity=72, time=2),
    Message('note_on', channel=7, note=63, velocity=71, time=1),
    Message('note_on', channel=7, note=58, velocity=68, time=1),
    Message('note_on', channel=3, note=70, velocity=94, time=1),
    Message('note_on', channel=9, note=36, velocity=105, time=0),
    Message('note_off', channel=9, note=36, velocity=105, time=1),
    Message('note_off', channel=3, note=67, velocity=87, time=8),
    Message('note_off', channel=1, note=27, velocity=89, time=8),
    Message('note_on', channel=2, note=51, velocity=45, time=6),
    Message('note_on', channel=2, note=55, velocity=48, time=0),
    Message('note_on', channel=2, note=58, velocity=67, time=0),
    Message('note_on', channel=9, note=51, velocity=127, time=0),
    Message('note_on', channel=1, note=27, velocity=87, time=1),
    Message('note_on', channel=9, note=40, velocity=119, time=0),
    Message('note_off', channel=9, note=51, velocity=127, time=0),
    Message('note_off', channel=9, note=40, velocity=119, time=1),
    Message('control_change', channel=2, control=64, value=0, time=2),
    Message('note_off', channel=7, note=67, velocity=72, time=13),
    Message('note_off', channel=7, note=63, velocity=71, time=1),
    Message('note_off', channel=7, note=58, velocity=68, time=2),
    Message('note_on', channel=7, note=67, velocity=81, time=1),
    Message('note_on', channel=7, note=63, velocity=71, time=1),
    Message('note_on', channel=7, note=58, velocity=60, time=1),
    Message('control_change', channel=2, control=64, value=127, time=1),
    Message('note_off', channel=7, note=58, velocity=60, time=17),
    Message('note_off', channel=7, note=63, velocity=71, time=0),
    Message('note_off', channel=2, note=55, velocity=48, time=1),
    Message('note_off', channel=7, note=67, velocity=81, time=1),
    Message('note_off', channel=2, note=58, velocity=67, time=1),
    Message('note_off', channel=2, note=51, velocity=45, time=1),
    Message('note_off', channel=3, note=70, velocity=94, time=0),
    Message('note_on', channel=7, note=58, velocity=33, time=1),
    Message('note_on', channel=3, note=72, velocity=99, time=2),
    Message('note_on', channel=7, note=63, velocity=64, time=0),
    Message('note_on', channel=7, note=67, velocity=59, time=0),
    Message('note_on', channel=9, note=51, velocity=116, time=0),
    Message('note_off', channel=9, note=51, velocity=116, time=1),
    Message('note_off', channel=7, note=67, velocity=59, time=18),
    Message('note_off', channel=7, note=63, velocity=64, time=0),
    Message('note_off', channel=7, note=58, velocity=33, time=2),
    Message('note_on', channel=7, note=67, velocity=70, time=2),
    Message('note_on', channel=7, note=63, velocity=69, time=1),
    Message('note_on', channel=7, note=58, velocity=59, time=1),
    Message('note_off', channel=1, note=27, velocity=87, time=8),
    Message('note_off', channel=7, note=58, velocity=59, time=11),
    Message('note_off', channel=7, note=63, velocity=69, time=1),
    Message('note_off', channel=7, note=67, velocity=70, time=0),
    Message('note_on', channel=7, note=51, velocity=67, time=2),
    Message('note_on', channel=7, note=58, velocity=67, time=0),
    Message('note_on', channel=1, note=27, velocity=72, time=1),
    Message('note_on', channel=2, note=51, velocity=60, time=0),
    Message('note_on', channel=2, note=55, velocity=59, time=0),
    Message('note_on', channel=2, note=58, velocity=65, time=0),
    Message('note_on', channel=7, note=63, velocity=76, time=0),
    Message('control_change', channel=2, control=64, value=0, time=1),
    Message('note_on', channel=3, note=75, velocity=98, time=0),
    Message('note_on', channel=7, note=67, velocity=64, time=0),
    Message('note_on', channel=9, note=36, velocity=127, time=0),
    Message('note_on', channel=9, note=51, velocity=122, time=0),
    Message('note_off', channel=9, note=51, velocity=122, time=1),
    Message('note_off', channel=9, note=36, velocity=127, time=0),
    Message('note_off', channel=3, note=72, velocity=99, time=7),
    Message('note_off', channel=7, note=63, velocity=76, time=7),
    Message('note_off', channel=7, note=58, velocity=67, time=0),
    Message('note_off', channel=7, note=51, velocity=67, time=2),
    Message('note_off', channel=7, note=67, velocity=64, time=1),
    Message('control_change', channel=2, control=64, value=127, time=3),
    Message('note_on', channel=7, note=58, velocity=80, time=1),
    Message('note_on', channel=7, note=63, velocity=79, time=0),
    Message('note_on', channel=9, note=40, velocity=122, time=1),
    Message('note_on', channel=3, note=74, velocity=98, time=1),
    Message('note_on', channel=7, note=67, velocity=84, time=0),
    Message('note_off', channel=9, note=40, velocity=122, time=0),
    Message('note_off', channel=3, note=75, velocity=98, time=2),
    Message('note_off', channel=2, note=58, velocity=65, time=12),
    Message('note_off', channel=2, note=55, velocity=59, time=4),
    Message('note_on', channel=3, note=70, velocity=88, time=5),
    Message('note_on', channel=9, note=51, velocity=127, time=0),
    Message('note_off', channel=9, note=51, velocity=127, time=1),
    Message('note_off', channel=1, note=27, velocity=72, time=3),
    Message('note_off', channel=2, note=51, velocity=60, time=0),
    Message('note_off', channel=3, note=74, velocity=98, time=7),
    Message('note_off', channel=7, note=58, velocity=80, time=6),
    Message('note_off', channel=7, note=63, velocity=79, time=1),
    Message('note_off', channel=3, note=70, velocity=88, time=1),
    Message('note_off', channel=7, note=67, velocity=84, time=1),
    Message('note_on', channel=7, note=67, velocity=72, time=2),
    Message('note_on', channel=7, note=63, velocity=71, time=1),
    Message('note_on', channel=9, note=36, velocity=122, time=0),
    Message('note_on', channel=1, note=27, velocity=64, time=1),
    Message('note_on', channel=3, note=74, velocity=34, time=0),
    Message('note_on', channel=3, note=70, velocity=78, time=0),
    Message('note_on', channel=7, note=58, velocity=68, time=0),
    Message('note_off', channel=9, note=36, velocity=122, time=0),
    Message('note_off', channel=3, note=74, velocity=34, time=7),
    Message('note_off', channel=1, note=27, velocity=64, time=1),
    Message('note_off', channel=7, note=67, velocity=72, time=9),
    Message('note_off', channel=7, note=63, velocity=71, time=1),
    Message('note_off', channel=7, note=58, velocity=68, time=1),
    Message('control_change', channel=2, control=64, value=0, time=1),
    Message('note_on', channel=7, note=67, velocity=45, time=2),
    Message('note_on', channel=2, note=51, velocity=55, time=1),
    Message('note_on', channel=2, note=55, velocity=59, time=0),
    Message('note_on', channel=2, note=58, velocity=68, time=0),
    Message('note_on', channel=9, note=51, velocity=127, time=0),
    Message('note_on', channel=9, note=40, velocity=127, time=0),
    Message('note_on', channel=1, note=27, velocity=80, time=1),
    Message('note_on', channel=7, note=63, velocity=54, time=0),
    Message('note_off', channel=9, note=40, velocity=127, time=0),
    Message('note_off', channel=9, note=51, velocity=127, time=0),
    Message('note_on', channel=3, note=72, velocity=96, time=1),
    Message('note_on', channel=5, note=72, velocity=73, time=0),
    Message('note_on', channel=7, note=51, velocity=63, time=0),
    Message('note_on', channel=7, note=58, velocity=69, time=0),
    Message('note_off', channel=7, note=67, velocity=45, time=10),
    Message('note_off', channel=3, note=70, velocity=78, time=1),
    Message('note_off', channel=7, note=58, velocity=69, time=2),
    Message('note_off', channel=7, note=63, velocity=54, time=0),
    Message('control_change', channel=2, control=64, value=127, time=1),
    Message('note_on', channel=7, note=58, velocity=52, time=8),
    Message('note_on', channel=7, note=63, velocity=40, time=1),
    Message('note_on', channel=7, note=67, velocity=47, time=1),
    Message('note_off', channel=2, note=58, velocity=68, time=7),
    Message('note_off', channel=2, note=55, velocity=59, time=0),
    Message('note_off', channel=2, note=51, velocity=55, time=0),
    Message('note_off', channel=7, note=63, velocity=40, time=7),
    Message('note_off', channel=7, note=67, velocity=47, time=2),
    Message('note_off', channel=7, note=58, velocity=52, time=0),
    Message('note_off', channel=7, note=51, velocity=63, time=3),
    Message('note_off', channel=1, note=27, velocity=80, time=1),
    Message('note_on', channel=7, note=67, velocity=75, time=1),
    Message('note_on', channel=9, note=51, velocity=127, time=0),
    Message('note_on', channel=9, note=40, velocity=116, time=1),
    Message('note_off', channel=9, note=51, velocity=127, time=0),
    Message('note_on', channel=3, note=74, velocity=92, time=1),
    Message('note_on', channel=7, note=63, velocity=78, time=0),
    Message('note_off', channel=9, note=40, velocity=116, time=0),
    Message('note_on', channel=1, note=39, velocity=60, time=1),
    Message('note_on', channel=7, note=58, velocity=69, time=0),
    Message('note_off', channel=3, note=72, velocity=96, time=1),
    Message('note_off', channel=1, note=39, velocity=60, time=19),
    Message('note_on', channel=1, note=41, velocity=46, time=4),
    Message('note_off', channel=7, note=67, velocity=75, time=15),
    Message('note_off', channel=7, note=63, velocity=78, time=1),
    Message('note_off', channel=7, note=58, velocity=69, time=1),
    Message('note_on', channel=5, note=74, velocity=91, time=1),
    Message('note_on', channel=5, note=65, velocity=89, time=0),
    Message('note_off', channel=5, note=63, velocity=85, time=2),
    Message('control_change', channel=2, control=64, value=0, time=1),
    Message('note_on', channel=9, note=36, velocity=127, time=0),
    Message('note_on', channel=9, note=49, velocity=116, time=0),
    Message('note_on', channel=2, note=50, velocity=48, time=1),
    Message('note_on', channel=7, note=46, velocity=72, time=0),
    Message('note_off', channel=9, note=49, velocity=116, time=0),
    Message('note_off', channel=9, note=36, velocity=127, time=0),
    Message('note_on', channel=2, note=46, velocity=51, time=1),
    Message('note_on', channel=2, note=53, velocity=64, time=0),
    Message('note_on', channel=3, note=70, velocity=88, time=0),
    Message('note_on', channel=7, note=62, velocity=72, time=0),
    Message('note_on', channel=1, note=34, velocity=80, time=1),
    Message('note_off', channel=5, note=72, velocity=73, time=0),
    Message('note_on', channel=7, note=65, velocity=61, time=0),
    Message('note_on', channel=7, note=70, velocity=71, time=0),
    Message('note_off', channel=5, note=67, velocity=78, time=1),
    Message('note_off', channel=1, note=41, velocity=46, time=1),
    Message('note_off', channel=3, note=74, velocity=92, time=9),
    Message('control_change', channel=2, control=64, value=127, time=7),
    Message('note_off', channel=7, note=70, velocity=71, time=1),
    Message('note_off', channel=7, note=65, velocity=61, time=0),
    Message('note_off', channel=7, note=62, velocity=72, time=0),
    Message('note_on', channel=7, note=70, velocity=68, time=2),
    Message('note_on', channel=7, note=65, velocity=52, time=1),
    Message('note_off', channel=7, note=65, velocity=52, time=18),
    Message('note_off', channel=7, note=70, velocity=68, time=2),
    Message('note_off', channel=2, note=46, velocity=51, time=1),
    Message('note_on', channel=7, note=62, velocity=49, time=1),
    Message('note_on', channel=7, note=65, velocity=60, time=1),
    Message('note_on', channel=9, note=51, velocity=100, time=0),
    Message('note_off', channel=9, note=51, velocity=100, time=1),
    Message('note_off', channel=2, note=53, velocity=64, time=1),
    Message('note_off', channel=2, note=50, velocity=48, time=0),
    Message('note_on', channel=3, note=65, velocity=84, time=0),
    Message('note_on', channel=7, note=70, velocity=44, time=4),
    Message('note_off', channel=3, note=70, velocity=88, time=3),
    Message('note_off', channel=1, note=34, velocity=80, time=2),
    Message('note_off', channel=7, note=62, velocity=49, time=5),
    Message('note_off', channel=7, note=70, velocity=44, time=6),
    Message('note_off', channel=7, note=46, velocity=72, time=0),
    Message('note_off', channel=7, note=65, velocity=60, time=1),
    Message('note_on', channel=7, note=70, velocity=68, time=0),
    Message('note_on', channel=9, note=36, velocity=107, time=1),
    Message('note_off', channel=9, note=36, velocity=107, time=1),
    Message('note_on', channel=7, note=62, velocity=60, time=1),
    Message('note_on', channel=7, note=65, velocity=67, time=0),
    Message('note_on', channel=1, note=34, velocity=42, time=1),
    Message('note_off', channel=1, note=34, velocity=42, time=4),
    Message('note_on', channel=2, note=46, velocity=57, time=18),
    Message('note_on', channel=2, note=50, velocity=46, time=0),
    Message('note_on', channel=2, note=53, velocity=61, time=0),
    Message('note_on', channel=9, note=40, velocity=127, time=0),
    Message('note_on', channel=9, note=51, velocity=127, time=0),
    Message('note_on', channel=3, note=70, velocity=80, time=1),
    Message('note_off', channel=9, note=51, velocity=127, time=0),
    Message('note_off', channel=9, note=40, velocity=127, time=0),
    Message('note_on', channel=1, note=34, velocity=87, time=1),
    Message('control_change', channel=2, control=64, value=0, time=0),
    Message('note_off', channel=3, note=65, velocity=84, time=7),
    Message('control_change', channel=2, control=64, value=127, time=10),
    Message('note_off', channel=7, note=70, velocity=68, time=1),
    Message('note_off', channel=7, note=65, velocity=67, time=2),
    Message('note_off', channel=7, note=62, velocity=60, time=0),
    Message('note_on', channel=7, note=70, velocity=56, time=2),
    Message('note_on', channel=7, note=65, velocity=62, time=1),
    Message('note_on', channel=7, note=62, velocity=54, time=1),
    Message('note_off', channel=2, note=50, velocity=46, time=6),
    Message('note_off', channel=2, note=53, velocity=61, time=5),
    Message('note_off', channel=7, note=62, velocity=54, time=2),
    Message('note_off', channel=7, note=65, velocity=62, time=6),
    Message('note_off', channel=7, note=70, velocity=56, time=1),
    Message('note_on', channel=7, note=62, velocity=51, time=0),
    Message('note_on', channel=7, note=65, velocity=59, time=1),
    Message('note_on', channel=7, note=70, velocity=52, time=1),
    Message('note_on', channel=9, note=51, velocity=116, time=0),
    Message('note_on', channel=3, note=72, velocity=87, time=1),
    Message('note_off', channel=9, note=51, velocity=116, time=0),
    Message('note_off', channel=2, note=46, velocity=57, time=1),
    Message('note_off', channel=3, note=70, velocity=80, time=4),
    Message('note_off', channel=7, note=65, velocity=59, time=9),
    Message('note_off', channel=7, note=62, velocity=51, time=4),
    Message('note_off', channel=7, note=70, velocity=52, time=3),
    Message('note_on', channel=7, note=70, velocity=78, time=1),
    Message('note_on', channel=9, note=36, velocity=72, time=0),
    Message('note_on', channel=7, note=65, velocity=64, time=1),
    Message('note_off', channel=9, note=36, velocity=72, time=0),
    Message('note_on', channel=7, note=62, velocity=59, time=1),
    Message('note_off', channel=1, note=34, velocity=87, time=8),
    Message('note_off', channel=7, note=62, velocity=59, time=1),
    Message('note_off', channel=7, note=70, velocity=78, time=5),
    Message('note_off', channel=7, note=65, velocity=64, time=1),
    Message('control_change', channel=2, control=64, value=0, time=4),
    Message('note_on', channel=7, note=46, velocity=67, time=2),
    Message('note_on', channel=2, note=50, velocity=65, time=2),
    Message('note_on', channel=2, note=53, velocity=56, time=0),
    Message('note_on', channel=2, note=58, velocity=59, time=0),
    Message('note_on', channel=9, note=36, velocity=127, time=0),
    Message('note_on', channel=9, note=51, velocity=122, time=0),
    Message('note_on', channel=3, note=75, velocity=85, time=1),
    Message('note_on', channel=7, note=62, velocity=67, time=0),
    Message('note_off', channel=9, note=51, velocity=122, time=0),
    Message('note_off', channel=9, note=36, velocity=127, time=0),
    Message('note_on', channel=1, note=34, velocity=76, time=1),
    Message('note_on', channel=7, note=65, velocity=76, time=0),
    Message('note_on', channel=7, note=70, velocity=80, time=2),
    Message('note_off', channel=3, note=72, velocity=87, time=7),
    Message('control_change', channel=2, control=64, value=127, time=4),
    Message('note_off', channel=3, note=75, velocity=85, time=11),
    Message('note_on', channel=3, note=74, velocity=92, time=0),
    Message('note_off', channel=7, note=62, velocity=67, time=8),
    Message('note_off', channel=2, note=58, velocity=59, time=8),
    Message('note_off', channel=2, note=53, velocity=56, time=0),
    Message('note_off', channel=7, note=65, velocity=76, time=0),
    Message('note_off', channel=7, note=70, velocity=80, time=4),
    Message('note_on', channel=7, note=62, velocity=33, time=1),
    Message('note_on', channel=9, note=51, velocity=116, time=1),
    Message('note_on', channel=3, note=72, velocity=91, time=1),
    Message('note_on', channel=7, note=65, velocity=64, time=0),
    Message('note_on', channel=7, note=70, velocity=76, time=0),
    Message('note_off', channel=9, note=51, velocity=116, time=0),
    Message('note_off', channel=3, note=74, velocity=92, time=2),
    Message('note_off', channel=1, note=34, velocity=76, time=5),
    Message('note_off', channel=2, note=50, velocity=65, time=2),
    Message('note_off', channel=7, note=46, velocity=67, time=10),
    Message('note_on', channel=9, note=36, velocity=105, time=3),
    Message('note_off', channel=9, note=36, velocity=105, time=1),
    Message('note_on', channel=1, note=34, velocity=57, time=1),
    Message('note_on', channel=3, note=70, velocity=87, time=0),
    Message('note_off', channel=3, note=72, velocity=91, time=4),
    Message('note_off', channel=1, note=34, velocity=57, time=2),
    Message('note_off', channel=7, note=62, velocity=33, time=1),
    Message('control_change', channel=2, control=64, value=0, time=7),
    Message('note_off', channel=7, note=70, velocity=76, time=5),
    Message('note_off', channel=7, note=65, velocity=64, time=0),
    Message('note_on', channel=7, note=62, velocity=33, time=3),
    Message('note_on', channel=2, note=50, velocity=55, time=1),
    Message('note_on', channel=2, note=53, velocity=57, time=0),
    Message('note_on', channel=2, note=58, velocity=68, time=0),
    Message('note_on', channel=9, note=51, velocity=122, time=0),
    Message('note_on', channel=9, note=40, velocity=122, time=0),
    Message('note_on', channel=1, note=34, velocity=85, time=1),
    Message('note_on', channel=3, note=72, velocity=96, time=0),
    Message('note_on', channel=7, note=65, velocity=64, time=0),
    Message('note_on', channel=7, note=70, velocity=76, time=0),
    Message('note_off', channel=9, note=40, velocity=122, time=0),
    Message('note_off', channel=9, note=51, velocity=122, time=0),
    Message('control_change', channel=2, control=64, value=127, time=5),
    Message('note_off', channel=3, note=70, velocity=87, time=1),
    Message('note_off', channel=7, note=62, velocity=33, time=10),
    Message('note_off', channel=7, note=70, velocity=76, time=3),
    Message('note_off', channel=7, note=65, velocity=64, time=0),
    Message('note_on', channel=7, note=70, velocity=92, time=4),
    Message('note_on', channel=3, note=74, velocity=100, time=1),
    Message('note_on', channel=7, note=65, velocity=81, time=0),
    Message('note_on', channel=7, note=62, velocity=71, time=1),
    Message('note_off', channel=3, note=72, velocity=96, time=7),
    Message('note_off', channel=2, note=53, velocity=57, time=9),
    Message('note_off', channel=2, note=58, velocity=68, time=1),
    Message('note_off', channel=2, note=50, velocity=55, time=0),
    Message('note_on', channel=1, note=26, velocity=95, time=6),
    Message('note_on', channel=9, note=51, velocity=116, time=0),
    Message('note_off', channel=9, note=51, velocity=116, time=1),
    Message('note_off', channel=1, note=34, velocity=85, time=4),
    Message('note_off', channel=7, note=62, velocity=71, time=10),
    Message('note_off', channel=7, note=65, velocity=81, time=6),
    Message('note_off', channel=7, note=70, velocity=92, time=0),
    Message('note_on', channel=7, note=70, velocity=82, time=1),
    Message('note_on', channel=7, note=65, velocity=71, time=1),
    Message('note_on', channel=7, note=62, velocity=68, time=1),
    Message('note_on', channel=9, note=36, velocity=80, time=0),
    Message('note_off', channel=9, note=36, velocity=80, time=1),
    Message('note_off', channel=5, note=70, velocity=102, time=3),
    Message('note_off', channel=4, note=58, velocity=87, time=6),
    Message('note_off', channel=5, note=65, velocity=89, time=1),
    Message('note_on', channel=5, note=75, velocity=74, time=6),
    Message('note_off', channel=7, note=62, velocity=68, time=0),
    Message('note_on', channel=5, note=67, velocity=91, time=1),
    Message('note_off', channel=3, note=74, velocity=100, time=1),
    Message('note_on', channel=4, note=58, velocity=68, time=0),
    Message('control_change', channel=2, control=64, value=0, time=1),
    Message('note_off', channel=5, note=74, velocity=91, time=0),
    Message('note_off', channel=7, note=70, velocity=82, time=0),
    Message('note_off', channel=7, note=65, velocity=71, time=1),
    Message('note_on', channel=7, note=51, velocity=67, time=0),
    Message('note_off', channel=1, note=26, velocity=95, time=1),
    Message('note_on', channel=2, note=51, velocity=55, time=1),
    Message('note_on', channel=2, note=55, velocity=61, time=0),
    Message('note_on', channel=2, note=58, velocity=62, time=0),
    Message('note_on', channel=1, note=27, velocity=89, time=1),
    Message('note_on', channel=3, note=70, velocity=92, time=0),
    Message('note_on', channel=7, note=63, velocity=67, time=0),
    Message('note_on', channel=9, note=36, velocity=125, time=0),
    Message('note_on', channel=9, note=51, velocity=119, time=0),
    Message('note_on', channel=7, note=67, velocity=76, time=1),
    Message('note_off', channel=9, note=51, velocity=119, time=0),
    Message('note_off', channel=9, note=36, velocity=125, time=0),
    Message('note_on', channel=7, note=70, velocity=64, time=2),
    Message('control_change', channel=2, control=64, value=127, time=10),
    Message('note_off', channel=2, note=58, velocity=62, time=23),
    Message('note_off', channel=2, note=55, velocity=61, time=3),
    Message('note_off', channel=7, note=63, velocity=67, time=1),
    Message('note_off', channel=7, note=67, velocity=76, time=1),
    Message('note_off', channel=2, note=51, velocity=55, time=1),
    Message('note_off', channel=7, note=70, velocity=64, time=3),
    Message('note_on', channel=7, note=63, velocity=76, time=1),
    Message('note_on', channel=3, note=82, velocity=103, time=2),
    Message('note_on', channel=7, note=67, velocity=85, time=0),
    Message('note_on', channel=7, note=70, velocity=82, time=0),
    Message('note_on', channel=9, note=51, velocity=122, time=0),
    Message('note_off', channel=9, note=51, velocity=122, time=1),
    Message('note_off', channel=3, note=70, velocity=92, time=2),
    Message('control_change', channel=2, control=64, value=0, time=37),
    Message('note_off', channel=7, note=70, velocity=82, time=3),
    Message('note_off', channel=7, note=67, velocity=85, time=0),
    Message('note_off', channel=7, note=63, velocity=76, time=2),
    Message('note_off', channel=1, note=27, velocity=89, time=1),
    Message('note_on', channel=7, note=63, velocity=57, time=0),
    Message('note_on', channel=1, note=39, velocity=80, time=1),
    Message('note_off', channel=3, note=82, velocity=103, time=0),
    Message('note_on', channel=3, note=70, velocity=81, time=1),
    Message('note_on', channel=7, note=67, velocity=71, time=0),
    Message('note_on', channel=7, note=70, velocity=73, time=0),
    Message('note_on', channel=2, note=55, velocity=60, time=1),
    Message('note_on', channel=2, note=58, velocity=59, time=0),
    Message('note_on', channel=2, note=51, velocity=49, time=0),
    Message('note_on', channel=9, note=51, velocity=122, time=0),
    Message('note_on', channel=9, note=40, velocity=127, time=1),
    Message('note_off', channel=9, note=51, velocity=122, time=0),
    Message('note_off', channel=9, note=40, velocity=127, time=1),
    Message('control_change', channel=2, control=64, value=127, time=8),
    Message('note_off', channel=7, note=63, velocity=57, time=6),
    Message('note_off', channel=7, note=70, velocity=73, time=1),
    Message('note_off', channel=7, note=67, velocity=71, time=1),
    Message('note_on', channel=7, note=63, velocity=84, time=4),
    Message('note_on', channel=7, note=67, velocity=85, time=1),
    Message('note_on', channel=3, note=72, velocity=52, time=1),
    Message('note_on', channel=7, note=70, velocity=76, time=0),
    Message('note_off', channel=3, note=70, velocity=81, time=4),
    Message('note_off', channel=2, note=55, velocity=60, time=12),
    Message('note_off', channel=2, note=58, velocity=59, time=3),
    Message('note_off', channel=2, note=51, velocity=49, time=4),
    Message('note_on', channel=9, note=51, velocity=116, time=2),
    Message('note_off', channel=9, note=51, velocity=116, time=1),
    Message('note_off', channel=7, note=51, velocity=67, time=2),
    Message('note_off', channel=7, note=70, velocity=76, time=15),
    Message('note_off', channel=7, note=67, velocity=85, time=0),
    Message('note_off', channel=7, note=63, velocity=84, time=0),
    Message('note_on', channel=7, note=70, velocity=63, time=2),
    Message('note_on', channel=7, note=67, velocity=66, time=1),
    Message('note_on', channel=3, note=70, velocity=83, time=1),
    Message('note_on', channel=7, note=63, velocity=64, time=0),
    Message('note_off', channel=3, note=72, velocity=52, time=1),
    Message('note_on', channel=9, note=36, velocity=78, time=0),
    Message('note_off', channel=9, note=36, velocity=78, time=1),
    Message('control_change', channel=2, control=64, value=0, time=1),
    Message('note_on', channel=5, note=65, velocity=78, time=8),
    Message('note_on', channel=5, note=74, velocity=85, time=1),
    Message('note_off', channel=5, note=67, velocity=91, time=4),
    Message('note_off', channel=5, note=75, velocity=74, time=0),
    Message('note_off', channel=7, note=70, velocity=63, time=3),
    Message('note_off', channel=7, note=63, velocity=64, time=2),
    Message('note_off', channel=7, note=67, velocity=66, time=0),
    Message('note_on', channel=7, note=50, velocity=75, time=1),
    Message('note_on', channel=7, note=58, velocity=68, time=0),
    Message('note_on', channel=1, note=38, velocity=80, time=1),
    Message('note_on', channel=2, note=53, velocity=48, time=1),
    Message('note_on', channel=2, note=58, velocity=57, time=0),
    Message('note_on', channel=7, note=65, velocity=79, time=0),
    Message('note_on', channel=7, note=70, velocity=82, time=0),
    Message('note_off', channel=1, note=39, velocity=80, time=1),
    Message('note_on', channel=2, note=50, velocity=46, time=0),
    Message('note_on', channel=9, note=51, velocity=122, time=0),
    Message('control_change', channel=2, control=64, value=127, time=1),
    Message('note_on', channel=9, note=36, velocity=127, time=0),
    Message('note_off', channel=9, note=51, velocity=122, time=0),
    Message('note_off', channel=9, note=36, velocity=127, time=1),
    Message('note_off', channel=7, note=58, velocity=68, time=27),
    Message('note_off', channel=2, note=53, velocity=48, time=10),
    Message('note_off', channel=2, note=58, velocity=57, time=1),
    Message('note_off', channel=7, note=70, velocity=82, time=2),
    Message('note_off', channel=7, note=65, velocity=79, time=0),
    Message('note_on', channel=7, note=58, velocity=61, time=4),
    Message('note_off', channel=2, note=50, velocity=46, time=1),
    Message('note_on', channel=7, note=65, velocity=74, time=0),
    Message('note_on', channel=7, note=70, velocity=52, time=1),
    Message('note_on', channel=9, note=51, velocity=122, time=0),
    Message('note_off', channel=9, note=51, velocity=122, time=1),
    Message('note_off', channel=7, note=50, velocity=75, time=9),
    Message('note_off', channel=7, note=58, velocity=61, time=1),
    Message('note_off', channel=7, note=70, velocity=52, time=6),
    Message('note_off', channel=7, note=65, velocity=74, time=2),
    Message('note_on', channel=7, note=50, velocity=75, time=2),
    Message('note_on', channel=7, note=70, velocity=82, time=0),
    Message('note_on', channel=7, note=65, velocity=74, time=1),
    Message('note_on', channel=7, note=58, velocity=78, time=1),
    Message('note_on', channel=9, note=36, velocity=88, time=0),
    Message('note_off', channel=9, note=36, velocity=88, time=1),
    Message('control_change', channel=2, control=64, value=0, time=5),
    Message('note_off', channel=1, note=38, velocity=80, time=9),
    Message('note_off', channel=7, note=58, velocity=78, time=7),
    Message('note_off', channel=7, note=65, velocity=74, time=0),
    Message('note_off', channel=7, note=70, velocity=82, time=0),
    Message('note_on', channel=1, note=38, velocity=87, time=1),
    Message('note_on', channel=2, note=53, velocity=54, time=1),
    Message('note_on', channel=2, note=58, velocity=63, time=0),
    Message('note_on', channel=2, note=50, velocity=55, time=1),
    Message('note_on', channel=9, note=40, velocity=127, time=0),
    Message('note_on', channel=9, note=51, velocity=127, time=0),
    Message('note_off', channel=9, note=51, velocity=127, time=1),
    Message('note_off', channel=9, note=40, velocity=127, time=0),
    Message('control_change', channel=2, control=64, value=127, time=2),
    Message('note_on', channel=7, note=70, velocity=94, time=17),
    Message('note_on', channel=7, note=65, velocity=71, time=1),
    Message('note_on', channel=7, note=58, velocity=60, time=1),
    Message('note_off', channel=3, note=70, velocity=83, time=12),
    Message('note_off', channel=2, note=50, velocity=55, time=3),
    Message('note_off', channel=2, note=53, velocity=54, time=0),
    Message('note_off', channel=2, note=58, velocity=63, time=3),
    Message('note_off', channel=7, note=58, velocity=60, time=0),
    Message('note_off', channel=7, note=65, velocity=71, time=0),
    Message('note_off', channel=7, note=70, velocity=94, time=2),
    Message('note_on', channel=7, note=58, velocity=33, time=3),
    Message('note_on', channel=3, note=70, velocity=90, time=2),
    Message('note_on', channel=7, note=65, velocity=64, time=0),
    Message('note_on', channel=7, note=70, velocity=59, time=0),
    Message('note_on', channel=9, note=51, velocity=119, time=1),
    Message('note_off', channel=9, note=51, velocity=119, time=1),
    Message('note_off', channel=7, note=50, velocity=75, time=9),
    Message('note_off', channel=7, note=70, velocity=59, time=8),
    Message('note_off', channel=7, note=65, velocity=64, time=0),
    Message('note_off', channel=7, note=58, velocity=33, time=2),
    Message('note_on', channel=7, note=70, velocity=70, time=2),
    Message('note_on', channel=9, note=36, velocity=72, time=0),
    Message('note_off', channel=3, note=70, velocity=90, time=1),
    Message('note_on', channel=3, note=67, velocity=85, time=0),
    Message('note_on', channel=7, note=65, velocity=69, time=0),
    Message('note_off', channel=9, note=36, velocity=72, time=0),
    Message('note_on', channel=7, note=58, velocity=59, time=1),
    Message('note_off', channel=7, note=70, velocity=70, time=13),
    Message('control_change', channel=2, control=64, value=0, time=3),
    Message('note_off', channel=7, note=65, velocity=69, time=0),
    Message('note_on', channel=4, note=60, velocity=89, time=3),
    Message('note_on', channel=5, note=72, velocity=87, time=0),
    Message('note_off', channel=7, note=58, velocity=59, time=0),
    Message('note_off', channel=4, note=58, velocity=68, time=1),
    Message('note_on', channel=5, note=64, velocity=59, time=0),
    Message('note_on', channel=7, note=48, velocity=67, time=0),
    Message('note_off', channel=1, note=38, velocity=87, time=2),
    Message('note_on', channel=7, note=64, velocity=67, time=1),
    Message('note_on', channel=1, note=36, velocity=87, time=1),
    Message('note_on', channel=2, note=48, velocity=38, time=0),
    Message('note_on', channel=2, note=58, velocity=60, time=0),
    Message('note_on', channel=2, note=52, velocity=53, time=0),
    Message('note_on', channel=3, note=74, velocity=105, time=0),
    Message('note_off', channel=5, note=74, velocity=85, time=0),
    Message('note_on', channel=7, note=67, velocity=76, time=0),
    Message('note_on', channel=9, note=36, velocity=127, time=0),
    Message('note_on', channel=9, note=49, velocity=127, time=0),
    Message('note_off', channel=5, note=65, velocity=78, time=1),
    Message('note_off', channel=9, note=49, velocity=127, time=0),
    Message('note_off', channel=9, note=36, velocity=127, time=0),
    Message('note_on', channel=7, note=70, velocity=80, time=1),
    Message('note_off', channel=3, note=67, velocity=85, time=10),
    Message('control_change', channel=2, control=64, value=127, time=2),
    Message('note_on', channel=3, note=70, velocity=94, time=9),
    Message('note_off', channel=2, note=52, velocity=53, time=5),
    Message('note_off', channel=3, note=74, velocity=105, time=1),
    Message('note_off', channel=7, note=67, velocity=76, time=11),
    Message('note_off', channel=7, note=64, velocity=67, time=0),
    Message('note_off', channel=2, note=58, velocity=60, time=3),
    Message('note_off', channel=7, note=70, velocity=80, time=1),
    Message('note_on', channel=7, note=64, velocity=58, time=1),
    Message('note_off', channel=2, note=48, velocity=38, time=1),
    Message('note_on', channel=7, note=67, velocity=64, time=1),
    Message('note_on', channel=7, note=70, velocity=76, time=0),
    Message('note_on', channel=3, note=72, velocity=97, time=1),
    Message('note_on', channel=9, note=51, velocity=105, time=0),
    Message('note_off', channel=9, note=51, velocity=105, time=1),
    Message('note_off', channel=1, note=36, velocity=87, time=5),
    Message('note_off', channel=3, note=70, velocity=94, time=4),
    Message('note_off', channel=7, note=48, velocity=67, time=8),
    Message('note_on', channel=1, note=36, velocity=49, time=5),
    Message('control_change', channel=2, control=64, value=0, time=10),
    Message('note_off', channel=1, note=36, velocity=49, time=1),
    Message('note_off', channel=7, note=64, velocity=58, time=6),
    Message('note_off', channel=7, note=70, velocity=76, time=2),
    Message('note_off', channel=7, note=67, velocity=64, time=0),
    Message('note_on', channel=7, note=48, velocity=48, time=2),
    Message('note_on', channel=7, note=64, velocity=65, time=1),
    Message('note_on', channel=1, note=36, velocity=91, time=2),
    Message('note_on', channel=2, note=58, velocity=65, time=0),
    Message('note_on', channel=2, note=52, velocity=53, time=0),
    Message('note_on', channel=7, note=67, velocity=72, time=0),
    Message('note_on', channel=7, note=70, velocity=69, time=0),
    Message('note_on', channel=2, note=48, velocity=52, time=1),
    Message('note_on', channel=9, note=40, velocity=127, time=0),
    Message('note_on', channel=9, note=51, velocity=119, time=1),
    Message('note_off', channel=9, note=40, velocity=127, time=0),
    Message('control_change', channel=2, control=64, value=127, time=1),
    Message('note_off', channel=9, note=51, velocity=119, time=0),
    Message('note_off', channel=7, note=70, velocity=69, time=16),
    Message('note_off', channel=7, note=67, velocity=72, time=0),
    Message('note_off', channel=7, note=64, velocity=65, time=2),
    Message('note_on', channel=7, note=70, velocity=58, time=2),
    Message('note_on', channel=7, note=67, velocity=47, time=1),
    Message('note_off', channel=3, note=72, velocity=97, time=1),
    Message('note_on', channel=7, note=64, velocity=52, time=0),
    Message('note_on', channel=3, note=74, velocity=90, time=1),
    Message('note_on', channel=3, note=72, velocity=91, time=4),
    Message('note_off', channel=2, note=52, velocity=53, time=9),
    Message('note_off', channel=3, note=74, velocity=90, time=0),
    Message('note_off', channel=7, note=70, velocity=58, time=1),
    Message('note_off', channel=7, note=67, velocity=47, time=1),
    Message('note_off', channel=7, note=64, velocity=52, time=2),
    Message('note_off', channel=2, note=58, velocity=65, time=2),
    Message('note_on', channel=7, note=64, velocity=56, time=1),
    Message('note_on', channel=7, note=67, velocity=58, time=1),
    Message('note_on', channel=7, note=70, velocity=70, time=1),
    Message('note_off', channel=3, note=72, velocity=91, time=1),
    Message('note_on', channel=3, note=70, velocity=58, time=0),
    Message('note_on', channel=9, note=51, velocity=116, time=0),
    Message('note_off', channel=2, note=48, velocity=52, time=1),
    Message('note_off', channel=9, note=51, velocity=116, time=0),
    Message('note_off', channel=7, note=48, velocity=48, time=17),
    Message('note_off', channel=7, note=64, velocity=56, time=1),
    Message('note_off', channel=7, note=67, velocity=58, time=1),
    Message('note_off', channel=7, note=70, velocity=70, time=1),
    Message('note_on', channel=7, note=70, velocity=80, time=0),
    Message('note_on', channel=7, note=67, velocity=73, time=1),
    Message('note_on', channel=7, note=64, velocity=86, time=1),
    Message('note_off', channel=1, note=36, velocity=91, time=10),
    Message('control_change', channel=2, control=64, value=0, time=7),
    Message('note_on', channel=2, note=48, velocity=57, time=6),
    Message('note_on', channel=1, note=36, velocity=87, time=1),
    Message('note_on', channel=2, note=58, velocity=54, time=1),
    Message('note_on', channel=2, note=52, velocity=53, time=0),
    Message('note_on', channel=9, note=36, velocity=127, time=0),
    Message('note_on', channel=9, note=51, velocity=119, time=1),
    Message('note_off', channel=9, note=36, velocity=127, time=0),
    Message('note_off', channel=9, note=51, velocity=119, time=1),
    Message('control_change', channel=2, control=64, value=127, time=10),
    Message('note_off', channel=7, note=67, velocity=73, time=8),
    Message('note_off', channel=7, note=64, velocity=86, time=1),
    Message('note_off', channel=7, note=70, velocity=80, time=1),
    Message('note_on', channel=7, note=70, velocity=61, time=0),
    Message('note_on', channel=7, note=67, velocity=48, time=1),
    Message('note_on', channel=7, note=64, velocity=45, time=1),
    Message('note_off', channel=2, note=52, velocity=53, time=10),
    Message('note_off', channel=2, note=58, velocity=54, time=0),
    Message('note_off', channel=2, note=48, velocity=57, time=2),
    Message('note_off', channel=7, note=70, velocity=61, time=3),
    Message('note_off', channel=7, note=67, velocity=48, time=1),
    Message('note_off', channel=7, note=64, velocity=45, time=2),
    Message('note_on', channel=7, note=64, velocity=82, time=3),
    Message('note_on', channel=7, note=67, velocity=71, time=1),
    Message('note_on', channel=7, note=70, velocity=68, time=1),
    Message('note_on', channel=9, note=51, velocity=119, time=0),
    Message('note_off', channel=9, note=51, velocity=119, time=1),
    Message('note_on', channel=6, note=82, velocity=127, time=1),
    Message('control_change', channel=6, control=11, value=11, time=0),
    Message('note_on', channel=6, note=70, velocity=127, time=1),
    Message('control_change', channel=6, control=11, value=12, time=1),
    Message('control_change', channel=6, control=11, value=13, time=2),
    Message('control_change', channel=6, control=11, value=14, time=2),
    Message('control_change', channel=6, control=11, value=15, time=1),
    Message('control_change', channel=6, control=11, value=16, time=2),
    Message('note_off', channel=1, note=36, velocity=87, time=1),
    Message('control_change', channel=6, control=11, value=17, time=1),
    Message('control_change', channel=6, control=11, value=18, time=1),
    Message('control_change', channel=6, control=11, value=19, time=2),
    Message('control_change', channel=6, control=11, value=20, time=2),
    Message('control_change', channel=6, control=11, value=21, time=2),
    Message('note_off', channel=7, note=70, velocity=68, time=0),
    Message('note_off', channel=7, note=67, velocity=71, time=1),
    Message('pitchwheel', channel=6, pitch=0, time=1),
    Message('control_change', channel=6, control=11, value=22, time=0),
    Message('note_on', channel=7, note=70, velocity=82, time=0),
    Message('control_change', channel=6, control=11, value=23, time=1),
    Message('pitchwheel', channel=6, pitch=260, time=0),
    Message('note_on', channel=7, note=67, velocity=82, time=0),
    Message('note_off', channel=7, note=64, velocity=82, time=1),
    Message('note_on', channel=7, note=64, velocity=84, time=0),
    Message('note_on', channel=1, note=36, velocity=51, time=1),
    Message('pitchwheel', channel=6, pitch=390, time=0),
    Message('note_on', channel=9, note=36, velocity=111, time=0),
    Message('note_off', channel=9, note=36, velocity=111, time=1),
    Message('control_change', channel=6, control=11, value=24, time=1),
    Message('control_change', channel=6, control=11, value=25, time=2),
    Message('pitchwheel', channel=6, pitch=520, time=2),
    Message('control_change', channel=6, control=11, value=26, time=0),
    Message('pitchwheel', channel=6, pitch=650, time=1),
    Message('control_change', channel=6, control=11, value=27, time=0),
    Message('note_off', channel=1, note=36, velocity=51, time=1),
    Message('control_change', channel=6, control=11, value=28, time=0),
    Message('pitchwheel', channel=6, pitch=780, time=1),
    Message('control_change', channel=6, control=11, value=29, time=0),
    Message('control_change', channel=6, control=11, value=30, time=2),
    Message('pitchwheel', channel=6, pitch=910, time=0),
    Message('note_off', channel=3, note=70, velocity=58, time=1),
    Message('control_change', channel=6, control=11, value=31, time=0),
    Message('control_change', channel=6, control=11, value=32, time=1),
    Message('pitchwheel', channel=6, pitch=1040, time=1),
    Message('control_change', channel=6, control=11, value=33, time=1),
    Message('control_change', channel=6, control=11, value=34, time=1),
    Message('control_change', channel=6, control=11, value=35, time=1),
    Message('pitchwheel', channel=6, pitch=1170, time=1),
    Message('control_change', channel=6, control=11, value=36, time=0),
    Message('control_change', channel=6, control=11, value=37, time=1),
    Message('control_change', channel=6, control=11, value=38, time=1),
    Message('control_change', channel=6, control=11, value=39, time=1),
    Message('control_change', channel=2, control=64, value=0, time=1),
    Message('note_on', channel=2, note=58, velocity=64, time=0),
    Message('note_on', channel=2, note=48, velocity=54, time=1),
    Message('note_on', channel=2, note=52, velocity=44, time=0),
    Message('control_change', channel=6, control=11, value=40, time=0),
    Message('note_on', channel=1, note=36, velocity=91, time=1),
    Message('control_change', channel=6, control=11, value=41, time=0),
    Message('note_on', channel=9, note=40, velocity=119, time=0),
    Message('note_on', channel=9, note=51, velocity=119, time=0),
    Message('pitchwheel', channel=6, pitch=1300, time=1),
    Message('note_off', channel=9, note=51, velocity=119, time=0),
    Message('note_off', channel=9, note=40, velocity=119, time=0),
    Message('control_change', channel=6, control=11, value=42, time=1),
    Message('pitchwheel', channel=6, pitch=1430, time=0),
    Message('control_change', channel=6, control=11, value=43, time=1),
    Message('control_change', channel=6, control=11, value=44, time=2),
    Message('pitchwheel', channel=6, pitch=1560, time=0),
    Message('control_change', channel=6, control=11, value=45, time=2),
    Message('control_change', channel=6, control=11, value=46, time=1),
    Message('control_change', channel=6, control=11, value=47, time=1),
    Message('pitchwheel', channel=6, pitch=1690, time=1),
    Message('control_change', channel=6, control=11, value=48, time=0),
    Message('control_change', channel=6, control=11, value=49, time=1),
    Message('control_change', channel=6, control=11, value=50, time=1),
    Message('control_change', channel=2, control=64, value=127, time=1),
    Message('control_change', channel=6, control=11, value=51, time=0),
    Message('control_change', channel=6, control=11, value=52, time=1),
    Message('pitchwheel', channel=6, pitch=1820, time=1),
    Message('control_change', channel=6, control=11, value=53, time=0),
    Message('control_change', channel=6, control=11, value=54, time=1),
    Message('note_off', channel=7, note=67, velocity=82, time=0),
    Message('note_off', channel=7, note=70, velocity=82, time=0),
    Message('control_change', channel=6, control=11, value=55, time=1),
    Message('pitchwheel', channel=6, pitch=1950, time=1),
    Message('note_off', channel=7, note=64, velocity=84, time=0),
    Message('control_change', channel=6, control=11, value=56, time=1),
    Message('control_change', channel=6, control=11, value=57, time=1),
    Message('pitchwheel', channel=6, pitch=2080, time=0),
    Message('control_change', channel=6, control=11, value=58, time=1),
    Message('pitchwheel', channel=6, pitch=2210, time=1),
    Message('note_on', channel=7, note=70, velocity=59, time=0),
    Message('control_change', channel=6, control=11, value=59, time=1),
    Message('note_on', channel=7, note=67, velocity=48, time=0),
    Message('control_change', channel=6, control=11, value=60, time=1),
    Message('pitchwheel', channel=6, pitch=2340, time=0),
    Message('note_on', channel=7, note=64, velocity=45, time=0),
    Message('note_on', channel=9, note=36, velocity=105, time=0),
    Message('note_off', channel=9, note=36, velocity=105, time=1),
    Message('control_change', channel=6, control=11, value=61, time=1),
    Message('pitchwheel', channel=6, pitch=2470, time=1),
    Message('control_change', channel=6, control=11, value=62, time=1),
    Message('pitchwheel', channel=6, pitch=2600, time=2),
    Message('control_change', channel=6, control=11, value=63, time=0),
    Message('control_change', channel=6, control=11, value=64, time=2),
    Message('note_off', channel=2, note=52, velocity=44, time=1),
    Message('pitchwheel', channel=6, pitch=2730, time=1),
    Message('control_change', channel=6, control=11, value=65, time=0),
    Message('control_change', channel=6, control=11, value=66, time=0),
    Message('note_off', channel=2, note=58, velocity=64, time=2),
    Message('pitchwheel', channel=6, pitch=2860, time=0),
    Message('control_change', channel=6, control=11, value=67, time=0),
    Message('note_off', channel=2, note=48, velocity=54, time=1),
    Message('pitchwheel', channel=6, pitch=3120, time=0),
    Message('control_change', channel=6, control=11, value=68, time=1),
    Message('pitchwheel', channel=6, pitch=3250, time=0),
    Message('control_change', channel=6, control=11, value=69, time=1),
    Message('note_off', channel=7, note=70, velocity=59, time=0),
    Message('pitchwheel', channel=6, pitch=3380, time=1),
    Message('control_change', channel=6, control=11, value=70, time=0),
    Message('note_off', channel=7, note=67, velocity=48, time=0),
    Message('pitchwheel', channel=6, pitch=3510, time=1),
    Message('control_change', channel=6, control=11, value=71, time=0),
    Message('control_change', channel=6, control=11, value=72, time=1),
    Message('note_off', channel=7, note=64, velocity=45, time=0),
    Message('note_on', channel=9, note=36, velocity=127, time=0),
    Message('pitchwheel', channel=6, pitch=3640, time=1),
    Message('control_change', channel=6, control=11, value=73, time=0),
    Message('note_off', channel=9, note=36, velocity=127, time=0),
    Message('pitchwheel', channel=6, pitch=3770, time=1),
    Message('note_off', channel=1, note=36, velocity=91, time=1),
    Message('control_change', channel=6, control=11, value=74, time=0),
    Message('note_on', channel=7, note=64, velocity=82, time=0),
    Message('pitchwheel', channel=6, pitch=3900, time=1),
    Message('control_change', channel=6, control=11, value=75, time=0),
    Message('note_on', channel=7, note=67, velocity=71, time=0),
    Message('note_on', channel=1, note=24, velocity=89, time=1),
    Message('control_change', channel=6, control=11, value=76, time=0),
    Message('note_on', channel=7, note=70, velocity=68, time=0),
    Message('control_change', channel=6, control=11, value=77, time=1),
    Message('note_on', channel=9, note=51, velocity=127, time=0),
    Message('control_change', channel=6, control=11, value=78, time=1),
    Message('note_on', channel=9, note=40, velocity=127, time=0),
    Message('note_off', channel=9, note=51, velocity=127, time=0),
    Message('pitchwheel', channel=6, pitch=4030, time=1),
    Message('control_change', channel=6, control=11, value=79, time=0),
    Message('note_off', channel=9, note=40, velocity=127, time=0),
    Message('control_change', channel=6, control=11, value=80, time=2),
    Message('pitchwheel', channel=6, pitch=4160, time=0),
    Message('control_change', channel=6, control=11, value=81, time=1),
    Message('control_change', channel=6, control=11, value=82, time=1),
    Message('pitchwheel', channel=6, pitch=4290, time=0),
    Message('pitchwheel', channel=6, pitch=4420, time=1),
    Message('control_change', channel=6, control=11, value=83, time=0),
    Message('pitchwheel', channel=6, pitch=4550, time=1),
    Message('control_change', channel=6, control=11, value=84, time=0),
    Message('pitchwheel', channel=6, pitch=4680, time=1),
    Message('control_change', channel=6, control=11, value=85, time=1),
    Message('pitchwheel', channel=6, pitch=4810, time=0),
    Message('control_change', channel=6, control=11, value=86, time=1),
    Message('control_change', channel=6, control=11, value=87, time=1),
    Message('pitchwheel', channel=6, pitch=4940, time=0),
    Message('control_change', channel=6, control=11, value=88, time=1),
    Message('note_off', channel=7, note=64, velocity=82, time=0),
    Message('control_change', channel=6, control=11, value=89, time=1),
    Message('pitchwheel', channel=6, pitch=5070, time=0),
    Message('control_change', channel=6, control=11, value=90, time=2),
    Message('pitchwheel', channel=6, pitch=5200, time=0),
    Message('control_change', channel=6, control=11, value=91, time=1),
    Message('control_change', channel=6, control=11, value=92, time=1),
    Message('pitchwheel', channel=6, pitch=5330, time=0),
    Message('pitchwheel', channel=6, pitch=5460, time=1),
    Message('note_off', channel=7, note=70, velocity=68, time=0),
    Message('pitchwheel', channel=6, pitch=5590, time=1),
    Message('control_change', channel=6, control=11, value=93, time=0),
    Message('note_off', channel=7, note=67, velocity=71, time=0),
    Message('pitchwheel', channel=6, pitch=5720, time=1),
    Message('note_on', channel=7, note=70, velocity=82, time=0),
    Message('pitchwheel', channel=6, pitch=5850, time=1),
    Message('control_change', channel=6, control=11, value=94, time=0),
    Message('note_on', channel=7, note=67, velocity=71, time=0),
    Message('note_on', channel=1, note=26, velocity=87, time=1),
    Message('pitchwheel', channel=6, pitch=5980, time=0),
    Message('control_change', channel=6, control=11, value=95, time=0),
    Message('note_on', channel=7, note=64, velocity=68, time=0),
    Message('pitchwheel', channel=6, pitch=6110, time=1),
    Message('control_change', channel=6, control=11, value=96, time=1),
    Message('pitchwheel', channel=6, pitch=6240, time=1),
    Message('note_off', channel=1, note=24, velocity=89, time=1),
    Message('control_change', channel=6, control=11, value=97, time=0),
    Message('pitchwheel', channel=6, pitch=6370, time=0),
    Message('control_change', channel=6, control=11, value=98, time=1),
    Message('control_change', channel=6, control=11, value=99, time=1),
    Message('pitchwheel', channel=6, pitch=6500, time=0),
    Message('control_change', channel=6, control=11, value=100, time=1),
    Message('pitchwheel', channel=6, pitch=6630, time=1),
    Message('control_change', channel=6, control=11, value=101, time=1),
    Message('pitchwheel', channel=6, pitch=6760, time=0),
    Message('control_change', channel=6, control=11, value=102, time=1),
    Message('pitchwheel', channel=6, pitch=6890, time=0),
    Message('control_change', channel=6, control=11, value=103, time=1),
    Message('pitchwheel', channel=6, pitch=7020, time=1),
    Message('control_change', channel=6, control=11, value=104, time=1),
    Message('pitchwheel', channel=6, pitch=7150, time=1),
    Message('control_change', channel=6, control=11, value=105, time=0),
    Message('control_change', channel=6, control=11, value=106, time=1),
    Message('pitchwheel', channel=6, pitch=7280, time=1),
    Message('control_change', channel=6, control=11, value=107, time=0),
    Message('note_off', channel=4, note=60, velocity=89, time=1),
    Message('note_off', channel=7, note=70, velocity=82, time=0),
    Message('control_change', channel=6, control=11, value=108, time=1),
    Message('pitchwheel', channel=6, pitch=7410, time=0),
    Message('note_on', channel=5, note=67, velocity=76, time=1),
    Message('note_on', channel=5, note=75, velocity=70, time=0),
    Message('control_change', channel=6, control=11, value=109, time=0),
    Message('pitchwheel', channel=6, pitch=7540, time=0),
    Message('note_off', channel=5, note=64, velocity=59, time=1),
    Message('control_change', channel=6, control=11, value=110, time=0),
    Message('note_off', channel=7, note=64, velocity=68, time=0),
    Message('note_on', channel=4, note=58, velocity=72, time=1),
    Message('pitchwheel', channel=6, pitch=7670, time=0),
    Message('note_off', channel=7, note=67, velocity=71, time=0),
    Message('control_change', channel=6, control=11, value=111, time=1),
    Message('pitchwheel', channel=6, pitch=7800, time=0),
    Message('note_on', channel=7, note=51, velocity=80, time=0),
    Message('pitchwheel', channel=6, pitch=7930, time=1),
    Message('note_on', channel=7, note=63, velocity=75, time=0),
    Message('note_on', channel=7, note=67, velocity=87, time=0),
    Message('note_on', channel=1, note=27, velocity=107, time=1),
    Message('note_on', channel=2, note=51, velocity=59, time=0),
    Message('note_on', channel=2, note=58, velocity=65, time=0),
    Message('note_on', channel=3, note=75, velocity=83, time=0),
    Message('note_off', channel=5, note=72, velocity=87, time=0),
    Message('control_change', channel=6, control=11, value=112, time=0),
    Message('note_off', channel=1, note=26, velocity=87, time=1),
    Message('note_on', channel=2, note=55, velocity=73, time=0),
    Message('pitchwheel', channel=6, pitch=8060, time=0),
    Message('control_change', channel=6, control=11, value=113, time=0),
    Message('pitchwheel', channel=6, pitch=8190, time=0),
    Message('note_on', channel=7, note=70, velocity=76, time=0),
    Message('note_on', channel=9, note=36, velocity=127, time=0),
    Message('note_on', channel=9, note=51, velocity=127, time=0),
    Message('control_change', channel=6, control=11, value=114, time=1),
    Message('note_off', channel=9, note=51, velocity=127, time=0),
    Message('note_off', channel=9, note=36, velocity=127, time=0),
    Message('control_change', channel=6, control=11, value=115, time=1),
    Message('control_change', channel=2, control=64, value=0, time=1),
    Message('control_change', channel=6, control=11, value=116, time=0),
    Message('control_change', channel=6, control=11, value=117, time=1),
    Message('control_change', channel=6, control=11, value=118, time=2),
    Message('control_change', channel=6, control=11, value=119, time=1),
    Message('control_change', channel=6, control=11, value=120, time=1),
    Message('control_change', channel=6, control=11, value=121, time=2),
    Message('control_change', channel=6, control=11, value=122, time=1),
    Message('control_change', channel=6, control=11, value=123, time=2),
    Message('control_change', channel=6, control=11, value=124, time=1),
    Message('control_change', channel=6, control=11, value=125, time=2),
    Message('note_off', channel=7, note=70, velocity=76, time=1),
    Message('control_change', channel=6, control=11, value=126, time=2),
    Message('control_change', channel=6, control=11, value=127, time=2),
    Message('note_off', channel=3, note=75, velocity=83, time=2),
    Message('note_on', channel=3, note=74, velocity=96, time=0),
    Message('control_change', channel=2, control=64, value=127, time=1),
    Message('note_off', channel=7, note=51, velocity=80, time=10),
    Message('note_off', channel=2, note=55, velocity=73, time=3),
    Message('note_off', channel=2, note=58, velocity=65, time=0),
    Message('note_off', channel=7, note=67, velocity=87, time=1),
    Message('note_off', channel=7, note=63, velocity=75, time=0),
    Message('note_off', channel=2, note=51, velocity=59, time=4),
    Message('note_on', channel=7, note=63, velocity=59, time=4),
    Message('note_on', channel=7, note=67, velocity=74, time=0),
    Message('note_on', channel=3, note=75, velocity=84, time=2),
    Message('note_on', channel=7, note=70, velocity=52, time=0),
    Message('note_on', channel=9, note=51, velocity=113, time=0),
    Message('note_off', channel=9, note=51, velocity=113, time=1),
    Message('note_off', channel=1, note=27, velocity=107, time=8),
    Message('note_off', channel=3, note=74, velocity=96, time=0),
    Message('note_off', channel=7, note=70, velocity=52, time=8),
    Message('note_off', channel=7, note=67, velocity=74, time=1),
    Message('note_off', channel=7, note=63, velocity=59, time=1),
    Message('note_on', channel=7, note=70, velocity=72, time=2),
    Message('note_on', channel=7, note=67, velocity=71, time=1),
    Message('note_on', channel=7, note=63, velocity=68, time=1),
    Message('note_on', channel=1, note=27, velocity=54, time=1),
    Message('note_on', channel=9, note=36, velocity=105, time=0),
    Message('note_off', channel=9, note=36, velocity=105, time=1),
    Message('note_off', channel=1, note=27, velocity=54, time=6),
    Message('note_on', channel=2, note=51, velocity=54, time=16),
    Message('note_on', channel=2, note=58, velocity=58, time=0),
    Message('note_on', channel=1, note=27, velocity=105, time=1),
    Message('note_on', channel=2, note=55, velocity=60, time=0),
    Message('note_on', channel=9, note=40, velocity=127, time=0),
    Message('note_on', channel=9, note=51, velocity=127, time=1),
    Message('note_off', channel=9, note=40, velocity=127, time=0),
    Message('note_off', channel=9, note=51, velocity=127, time=1),
    Message('control_change', channel=2, control=64, value=0, time=8),
    Message('note_off', channel=7, note=70, velocity=72, time=6),
    Message('note_off', channel=7, note=67, velocity=71, time=1),
    Message('note_off', channel=7, note=63, velocity=68, time=2),
    Message('note_on', channel=7, note=70, velocity=81, time=1),
    Message('note_on', channel=7, note=67, velocity=71, time=1),
    Message('note_on', channel=7, note=63, velocity=60, time=1),
    Message('control_change', channel=2, control=64, value=127, time=3),
    Message('note_off', channel=7, note=63, velocity=60, time=15),
    Message('note_off', channel=7, note=67, velocity=71, time=0),
    Message('note_off', channel=2, note=55, velocity=60, time=1),
    Message('note_off', channel=7, note=70, velocity=81, time=1),
    Message('note_on', channel=7, note=63, velocity=33, time=3),
    Message('note_off', channel=2, note=58, velocity=58, time=2),
    Message('note_off', channel=2, note=51, velocity=54, time=0),
    Message('note_on', channel=7, note=67, velocity=64, time=0),
    Message('note_on', channel=7, note=70, velocity=59, time=0),
    Message('note_on', channel=9, note=51, velocity=116, time=2),
    Message('note_off', channel=9, note=51, velocity=116, time=1),
    Message('control_change', channel=6, control=11, value=126, time=11),
    Message('control_change', channel=6, control=11, value=125, time=2),
    Message('note_off', channel=7, note=70, velocity=59, time=3),
    Message('note_off', channel=7, note=67, velocity=64, time=0),
    Message('control_change', channel=6, control=11, value=124, time=1),
    Message('note_off', channel=7, note=63, velocity=33, time=1),
    Message('control_change', channel=6, control=11, value=123, time=1),
    Message('note_on', channel=7, note=70, velocity=70, time=1),
    Message('note_on', channel=7, note=67, velocity=69, time=1),
    Message('note_on', channel=9, note=36, velocity=83, time=0),
    Message('note_on', channel=7, note=63, velocity=59, time=1),
    Message('note_off', channel=9, note=36, velocity=83, time=0),
    Message('control_change', channel=6, control=11, value=122, time=1),
    Message('control_change', channel=6, control=11, value=121, time=2),
    Message('control_change', channel=6, control=11, value=120, time=2),
    Message('control_change', channel=6, control=11, value=119, time=3),
    Message('note_off', channel=1, note=27, velocity=105, time=1),
    Message('control_change', channel=6, control=11, value=118, time=1),
    Message('note_off', channel=3, note=75, velocity=84, time=1),
    Message('control_change', channel=6, control=11, value=117, time=2),
    Message('control_change', channel=6, control=11, value=116, time=3),
    Message('control_change', channel=6, control=11, value=115, time=2),
    Message('note_off', channel=7, note=63, velocity=59, time=1),
    Message('control_change', channel=6, control=11, value=114, time=1),
    Message('note_off', channel=7, note=67, velocity=69, time=0),
    Message('note_off', channel=7, note=70, velocity=70, time=0),
    Message('control_change', channel=6, control=11, value=113, time=2),
    Message('note_on', channel=7, note=51, velocity=67, time=0),
    Message('note_on', channel=7, note=63, velocity=67, time=0),
    Message('note_on', channel=2, note=58, velocity=60, time=1),
    Message('note_on', channel=3, note=75, velocity=97, time=0),
    Message('note_on', channel=7, note=67, velocity=76, time=0),
    Message('note_on', channel=1, note=27, velocity=57, time=1),
    Message('note_on', channel=2, note=55, velocity=46, time=0),
    Message('note_on', channel=2, note=51, velocity=50, time=0),
    Message('note_on', channel=7, note=70, velocity=64, time=0),
    Message('note_on', channel=9, note=36, velocity=127, time=0),
    Message('note_on', channel=9, note=51, velocity=127, time=0),
    Message('control_change', channel=6, control=11, value=112, time=1),
    Message('note_off', channel=9, note=51, velocity=127, time=0),
    Message('note_off', channel=9, note=36, velocity=127, time=0),
    Message('control_change', channel=6, control=11, value=111, time=2),
    Message('control_change', channel=6, control=11, value=110, time=2),
    Message('control_change', channel=6, control=11, value=109, time=2),
    Message('control_change', channel=2, control=64, value=0, time=1),
    Message('control_change', channel=6, control=11, value=108, time=0),
    Message('control_change', channel=6, control=11, value=107, time=2),
    Message('control_change', channel=6, control=11, value=106, time=1),
    Message('control_change', channel=6, control=11, value=105, time=1),
    Message('control_change', channel=6, control=11, value=104, time=2),
    Message('control_change', channel=6, control=11, value=103, time=1),
    Message('control_change', channel=6, control=11, value=102, time=2),
    Message('note_off', channel=7, note=51, velocity=67, time=0),
    Message('control_change', channel=6, control=11, value=101, time=1),
    Message('control_change', channel=6, control=11, value=100, time=2),
    Message('control_change', channel=6, control=11, value=99, time=1),
    Message('control_change', channel=6, control=11, value=98, time=2),
    Message('note_on', channel=3, note=74, velocity=93, time=1),
    Message('control_change', channel=6, control=11, value=97, time=0),
    Message('control_change', channel=6, control=11, value=96, time=1),
    Message('control_change', channel=6, control=11, value=95, time=2),
    Message('control_change', channel=2, control=64, value=127, time=1),
    Message('control_change', channel=6, control=11, value=94, time=0),
    Message('note_off', channel=3, note=75, velocity=97, time=2),
    Message('control_change', channel=6, control=11, value=93, time=0),
    Message('control_change', channel=6, control=11, value=92, time=2),
    Message('control_change', channel=6, control=11, value=91, time=1),
    Message('control_change', channel=6, control=11, value=90, time=1),
    Message('control_change', channel=6, control=11, value=89, time=1),
    Message('control_change', channel=6, control=11, value=88, time=2),
    Message('control_change', channel=6, control=11, value=87, time=1),
    Message('control_change', channel=6, control=11, value=86, time=1),
    Message('note_off', channel=7, note=67, velocity=76, time=0),
    Message('note_off', channel=7, note=63, velocity=67, time=0),
    Message('control_change', channel=6, control=11, value=85, time=2),
    Message('note_off', channel=2, note=55, velocity=46, time=1),
    Message('control_change', channel=6, control=11, value=84, time=0),
    Message('note_off', channel=7, note=70, velocity=64, time=0),
    Message('note_off', channel=2, note=58, velocity=60, time=2),
    Message('control_change', channel=6, control=11, value=83, time=0),
    Message('note_on', channel=7, note=63, velocity=33, time=1),
    Message('control_change', channel=6, control=11, value=82, time=1),
    Message('control_change', channel=6, control=11, value=81, time=1),
    Message('note_on', channel=7, note=67, velocity=64, time=0),
    Message('note_on', channel=7, note=70, velocity=59, time=0),
    Message('note_on', channel=9, note=51, velocity=119, time=0),
    Message('note_off', channel=1, note=27, velocity=57, time=1),
    Message('note_off', channel=2, note=51, velocity=50, time=0),
    Message('note_on', channel=3, note=75, velocity=87, time=0),
    Message('control_change', channel=6, control=11, value=80, time=0),
    Message('note_off', channel=9, note=51, velocity=119, time=0),
    Message('control_change', channel=6, control=11, value=79, time=2),
    Message('control_change', channel=6, control=11, value=78, time=1),
    Message('note_off', channel=3, note=74, velocity=93, time=2),
    Message('control_change', channel=6, control=11, value=77, time=0),
    Message('control_change', channel=6, control=11, value=76, time=2),
    Message('control_change', channel=6, control=11, value=75, time=2),
    Message('control_change', channel=6, control=11, value=74, time=2),
    Message('control_change', channel=6, control=11, value=73, time=2),
    Message('control_change', channel=6, control=11, value=72, time=2),
    Message('control_change', channel=6, control=11, value=71, time=1),
    Message('control_change', channel=6, control=11, value=70, time=1),
    Message('note_off', channel=7, note=70, velocity=59, time=1),
    Message('note_off', channel=7, note=67, velocity=64, time=0),
    Message('control_change', channel=6, control=11, value=69, time=1),
    Message('note_off', channel=7, note=63, velocity=33, time=1),
    Message('control_change', channel=6, control=11, value=68, time=1),
    Message('note_on', channel=7, note=70, velocity=72, time=0),
    Message('note_on', channel=7, note=67, velocity=71, time=1),
    Message('note_on', channel=1, note=27, velocity=55, time=1),
    Message('control_change', channel=6, control=11, value=67, time=0),
    Message('note_on', channel=7, note=63, velocity=68, time=0),
    Message('note_on', channel=3, note=74, velocity=93, time=1),
    Message('note_on', channel=9, note=36, velocity=90, time=0),
    Message('control_change', channel=6, control=11, value=66, time=1),
    Message('note_off', channel=9, note=36, velocity=90, time=0),
    Message('control_change', channel=6, control=11, value=65, time=1),
    Message('control_change', channel=6, control=11, value=64, time=2),
    Message('note_off', channel=1, note=27, velocity=55, time=1),
    Message('note_off', channel=3, note=75, velocity=87, time=0),
    Message('control_change', channel=6, control=11, value=63, time=1),
    Message('control_change', channel=6, control=11, value=62, time=2),
    Message('control_change', channel=6, control=11, value=61, time=2),
    Message('control_change', channel=6, control=11, value=60, time=2),
    Message('control_change', channel=6, control=11, value=59, time=1),
    Message('control_change', channel=6, control=11, value=58, time=2),
    Message('control_change', channel=6, control=11, value=57, time=1),
    Message('note_off', channel=7, note=70, velocity=72, time=0),
    Message('note_off', channel=7, note=67, velocity=71, time=1),
    Message('control_change', channel=6, control=11, value=56, time=1),
    Message('note_off', channel=7, note=63, velocity=68, time=0),
    Message('control_change', channel=6, control=11, value=55, time=2),
    Message('control_change', channel=6, control=11, value=54, time=2),
    Message('note_on', channel=7, note=51, velocity=63, time=0),
    Message('note_on', channel=2, note=51, velocity=47, time=1),
    Message('note_on', channel=2, note=55, velocity=49, time=0),
    Message('note_on', channel=2, note=58, velocity=60, time=0),
    Message('note_on', channel=1, note=27, velocity=102, time=1),
    Message('control_change', channel=6, control=11, value=53, time=0),
    Message('note_on', channel=7, note=63, velocity=69, time=0),
    Message('note_on', channel=9, note=40, velocity=127, time=0),
    Message('note_on', channel=9, note=51, velocity=119, time=0),
    Message('note_on', channel=3, note=75, velocity=94, time=1),
    Message('control_change', channel=6, control=11, value=52, time=0),
    Message('note_on', channel=7, note=67, velocity=54, time=0),
    Message('note_off', channel=9, note=51, velocity=119, time=0),
    Message('note_off', channel=9, note=40, velocity=127, time=0),
    Message('control_change', channel=6, control=11, value=51, time=1),
    Message('note_on', channel=7, note=70, velocity=45, time=1),
    Message('control_change', channel=6, control=11, value=50, time=1),
    Message('control_change', channel=6, control=11, value=49, time=1),
    Message('control_change', channel=2, control=64, value=0, time=1),
    Message('control_change', channel=6, control=11, value=48, time=0),
    Message('note_off', channel=3, note=74, velocity=93, time=2),
    Message('control_change', channel=6, control=11, value=47, time=0),
    Message('control_change', channel=6, control=11, value=46, time=1),
    Message('control_change', channel=6, control=11, value=45, time=2),
    Message('control_change', channel=6, control=11, value=44, time=2),
    Message('note_off', channel=7, note=63, velocity=69, time=0),
    Message('control_change', channel=6, control=11, value=43, time=1),
    Message('control_change', channel=6, control=11, value=42, time=1),
    Message('note_off', channel=7, note=70, velocity=45, time=0),
    Message('note_off', channel=7, note=67, velocity=54, time=0),
    Message('control_change', channel=6, control=11, value=41, time=1),
    Message('control_change', channel=6, control=11, value=40, time=1),
    Message('control_change', channel=6, control=11, value=39, time=1),
    Message('control_change', channel=6, control=11, value=38, time=1),
    Message('control_change', channel=6, control=11, value=37, time=1),
    Message('control_change', channel=6, control=11, value=36, time=1),
    Message('control_change', channel=6, control=11, value=35, time=1),
    Message('note_on', channel=7, note=70, velocity=84, time=0),
    Message('note_on', channel=1, note=34, velocity=62, time=1),
    Message('control_change', channel=6, control=11, value=34, time=0),
    Message('note_on', channel=7, note=67, velocity=74, time=0),
    Message('control_change', channel=6, control=11, value=33, time=1),
    Message('note_on', channel=7, note=63, velocity=70, time=0),
    Message('note_off', channel=1, note=27, velocity=102, time=1),
    Message('note_on', channel=3, note=74, velocity=97, time=0),
    Message('control_change', channel=6, control=11, value=32, time=0),
    Message('control_change', channel=6, control=11, value=31, time=1),
    Message('control_change', channel=2, control=64, value=127, time=1),
    Message('control_change', channel=6, control=11, value=30, time=0),
    Message('control_change', channel=6, control=11, value=29, time=2),
    Message('control_change', channel=6, control=11, value=28, time=0),
    Message('note_off', channel=3, note=75, velocity=94, time=1),
    Message('control_change', channel=6, control=11, value=26, time=0),
    Message('control_change', channel=6, control=11, value=25, time=1),
    Message('control_change', channel=6, control=11, value=24, time=1),
    Message('control_change', channel=6, control=11, value=23, time=1),
    Message('control_change', channel=6, control=11, value=17, time=0),
    Message('control_change', channel=6, control=11, value=18, time=0),
    Message('control_change', channel=6, control=11, value=19, time=0),
    Message('control_change', channel=6, control=11, value=20, time=0),
    Message('control_change', channel=6, control=11, value=21, time=0),
    Message('control_change', channel=6, control=11, value=22, time=0),
    Message('note_off', channel=1, note=34, velocity=62, time=1),
    Message('note_off', channel=2, note=58, velocity=60, time=2),
    Message('note_off', channel=2, note=55, velocity=49, time=0),
    Message('control_change', channel=6, control=11, value=16, time=0),
    Message('control_change', channel=6, control=11, value=15, time=1),
    Message('control_change', channel=6, control=11, value=14, time=0),
    Message('control_change', channel=6, control=11, value=13, time=1),
    Message('note_off', channel=2, note=51, velocity=47, time=1),
    Message('control_change', channel=6, control=11, value=11, time=0),
    Message('control_change', channel=6, control=11, value=10, time=0),
    Message('control_change', channel=6, control=11, value=8, time=1),
    Message('control_change', channel=6, control=11, value=7, time=0),
    Message('control_change', channel=6, control=11, value=6, time=1),
    Message('control_change', channel=6, control=11, value=5, time=0),
    Message('note_off', channel=7, note=51, velocity=63, time=0),
    Message('control_change', channel=6, control=11, value=4, time=1),
    Message('control_change', channel=6, control=11, value=3, time=0),
    Message('control_change', channel=6, control=11, value=2, time=1),
    Message('control_change', channel=6, control=11, value=1, time=0),
    Message('control_change', channel=6, control=11, value=0, time=1),
    Message('note_on', channel=1, note=39, velocity=91, time=3),
    Message('note_on', channel=9, note=51, velocity=119, time=2),
    Message('note_off', channel=9, note=51, velocity=119, time=1),
    Message('pitchwheel', channel=6, pitch=8060, time=6),
    Message('pitchwheel', channel=6, pitch=7930, time=1),
    Message('pitchwheel', channel=6, pitch=7670, time=1),
    Message('pitchwheel', channel=6, pitch=7540, time=0),
    Message('pitchwheel', channel=6, pitch=7410, time=1),
    Message('pitchwheel', channel=6, pitch=7280, time=0),
    Message('pitchwheel', channel=6, pitch=7150, time=1),
    Message('pitchwheel', channel=6, pitch=7020, time=1),
    Message('pitchwheel', channel=6, pitch=6890, time=0),
    Message('pitchwheel', channel=6, pitch=6760, time=1),
    Message('pitchwheel', channel=6, pitch=6630, time=0),
    Message('note_off', channel=7, note=67, velocity=74, time=0),
    Message('note_off', channel=1, note=39, velocity=91, time=1),
    Message('pitchwheel', channel=6, pitch=6500, time=0),
    Message('pitchwheel', channel=6, pitch=6370, time=0),
    Message('pitchwheel', channel=6, pitch=6240, time=1),
    Message('pitchwheel', channel=6, pitch=6110, time=0),
    Message('note_off', channel=7, note=63, velocity=70, time=0),
    Message('note_off', channel=7, note=70, velocity=84, time=0),
    Message('pitchwheel', channel=6, pitch=5980, time=1),
    Message('pitchwheel', channel=6, pitch=5850, time=0),
    Message('pitchwheel', channel=6, pitch=5590, time=1),
    Message('pitchwheel', channel=6, pitch=5460, time=1),
    Message('pitchwheel', channel=6, pitch=5330, time=1),
    Message('pitchwheel', channel=6, pitch=5200, time=0),
    Message('pitchwheel', channel=6, pitch=5070, time=1),
    Message('pitchwheel', channel=6, pitch=4810, time=1),
    Message('pitchwheel', channel=6, pitch=4940, time=0),
    Message('note_on', channel=7, note=46, velocity=84, time=0),
    Message('pitchwheel', channel=6, pitch=4680, time=1),
    Message('pitchwheel', channel=6, pitch=4420, time=0),
    Message('note_on', channel=7, note=62, velocity=80, time=0),
    Message('note_on', channel=3, note=77, velocity=98, time=1),
    Message('pitchwheel', channel=6, pitch=4160, time=0),
    Message('pitchwheel', channel=6, pitch=4030, time=0),
    Message('note_on', channel=7, note=65, velocity=67, time=0),
    Message('note_on', channel=7, note=70, velocity=79, time=0),
    Message('pitchwheel', channel=6, pitch=3640, time=1),
    Message('pitchwheel', channel=6, pitch=3380, time=0),
    Message('note_on', channel=9, note=36, velocity=72, time=0),
    Message('pitchwheel', channel=6, pitch=2860, time=1),
    Message('note_off', channel=9, note=36, velocity=72, time=0),
    Message('pitchwheel', channel=6, pitch=2600, time=1),
    Message('pitchwheel', channel=6, pitch=2210, time=0),
    Message('note_off', channel=3, note=74, velocity=97, time=1),
    Message('pitchwheel', channel=6, pitch=1820, time=0),
    Message('pitchwheel', channel=6, pitch=1430, time=0),
    Message('pitchwheel', channel=6, pitch=1040, time=1),
    Message('pitchwheel', channel=6, pitch=780, time=0),
    Message('pitchwheel', channel=6, pitch=390, time=1),
    Message('pitchwheel', channel=6, pitch=0, time=0),
    Message('pitchwheel', channel=6, pitch=0, time=1),
    Message('note_off', channel=6, note=70, velocity=127, time=6),
    Message('note_off', channel=6, note=82, velocity=127, time=1),
    Message('note_on', channel=2, note=58, velocity=61, time=9),
    Message('note_on', channel=1, note=34, velocity=80, time=1),
    Message('note_on', channel=2, note=50, velocity=54, time=0),
    Message('note_on', channel=2, note=53, velocity=53, time=0),
    Message('note_on', channel=5, note=65, velocity=91, time=0),
    Message('note_on', channel=9, note=51, velocity=122, time=0),
    Message('note_on', channel=5, note=74, velocity=87, time=1),
    Message('note_on', channel=9, note=36, velocity=127, time=0),
    Message('note_off', channel=9, note=51, velocity=122, time=0),
    Message('note_off', channel=9, note=36, velocity=127, time=1),
    Message('control_change', channel=2, control=64, value=0, time=1),
    Message('note_off', channel=5, note=75, velocity=70, time=2),
    Message('note_off', channel=5, note=67, velocity=76, time=0),
    Message('note_off', channel=7, note=70, velocity=79, time=14),
    Message('note_off', channel=7, note=65, velocity=67, time=0),
    Message('note_off', channel=7, note=62, velocity=80, time=0),
    Message('note_on', channel=7, note=70, velocity=68, time=2),
    Message('control_change', channel=2, control=64, value=127, time=1),
    Message('note_off', channel=3, note=77, velocity=98, time=0),
    Message('note_on', channel=7, note=65, velocity=52, time=0),
    Message('note_on', channel=3, note=74, velocity=85, time=1),
    Message('note_off', channel=7, note=65, velocity=52, time=17),
    Message('note_off', channel=7, note=70, velocity=68, time=2),
    Message('note_off', channel=7, note=46, velocity=84, time=1),
    Message('note_on', channel=7, note=62, velocity=49, time=1),
    Message('note_on', channel=7, note=65, velocity=60, time=1),
    Message('note_off', channel=2, note=53, velocity=53, time=1),
    Message('note_off', channel=2, note=58, velocity=61, time=1),
    Message('note_on', channel=3, note=70, velocity=75, time=1),
    Message('note_on', channel=9, note=51, velocity=102, time=1),
    Message('note_off', channel=9, note=51, velocity=102, time=1),
    Message('note_on', channel=7, note=70, velocity=44, time=1),
    Message('note_off', channel=2, note=50, velocity=54, time=2),
    Message('note_off', channel=1, note=34, velocity=80, time=1),
    Message('note_off', channel=3, note=74, velocity=85, time=6),
    Message('note_off', channel=7, note=70, velocity=44, time=7),
    Message('note_off', channel=7, note=65, velocity=60, time=1),
    Message('note_on', channel=7, note=70, velocity=68, time=0),
    Message('note_off', channel=7, note=62, velocity=49, time=1),
    Message('note_on', channel=7, note=62, velocity=60, time=2),
    Message('note_on', channel=7, note=65, velocity=67, time=0),
    Message('note_on', channel=1, note=34, velocity=59, time=1),
    Message('note_on', channel=9, note=36, velocity=94, time=0),
    Message('note_off', channel=9, note=36, velocity=94, time=1),
    Message('note_off', channel=1, note=34, velocity=59, time=6),
    Message('note_on', channel=2, note=58, velocity=63, time=16),
    Message('note_on', channel=2, note=50, velocity=49, time=0),
    Message('note_on', channel=2, note=53, velocity=46, time=0),
    Message('note_off', channel=3, note=70, velocity=75, time=0),
    Message('note_on', channel=3, note=65, velocity=85, time=1),
    Message('note_on', channel=9, note=40, velocity=127, time=0),
    Message('note_on', channel=1, note=34, velocity=100, time=1),
    Message('control_change', channel=2, control=64, value=0, time=0),
    Message('note_on', channel=9, note=51, velocity=116, time=0),
    Message('note_off', channel=9, note=40, velocity=127, time=0),
    Message('note_off', channel=9, note=51, velocity=116, time=1),
    Message('note_off', channel=7, note=70, velocity=68, time=16),
    Message('note_off', channel=7, note=65, velocity=67, time=2),
    Message('note_off', channel=7, note=62, velocity=60, time=0),
    Message('control_change', channel=2, control=64, value=127, time=1),
    Message('note_on', channel=7, note=70, velocity=56, time=1),
    Message('note_on', channel=7, note=65, velocity=62, time=1),
    Message('note_on', channel=7, note=62, velocity=54, time=1),
    Message('note_off', channel=2, note=53, velocity=46, time=14),
    Message('note_off', channel=2, note=50, velocity=49, time=3),
    Message('note_off', channel=2, note=58, velocity=63, time=0),
    Message('note_off', channel=7, note=62, velocity=54, time=1),
    Message('note_off', channel=7, note=65, velocity=62, time=1),
    Message('note_off', channel=7, note=70, velocity=56, time=1),
    Message('note_on', channel=7, note=62, velocity=51, time=0),
    Message('note_on', channel=7, note=65, velocity=59, time=1),
    Message('note_on', channel=7, note=70, velocity=52, time=1),
    Message('note_on', channel=9, note=51, velocity=107, time=2),
    Message('note_off', channel=9, note=51, velocity=107, time=1),
    Message('note_off', channel=7, note=70, velocity=52, time=19),
    Message('note_off', channel=7, note=65, velocity=59, time=1),
    Message('note_on', channel=7, note=70, velocity=78, time=0),
    Message('note_off', channel=7, note=62, velocity=51, time=1),
    Message('note_on', channel=7, note=65, velocity=64, time=0),
    Message('note_on', channel=7, note=62, velocity=59, time=1),
    Message('note_on', channel=9, note=36, velocity=78, time=1),
    Message('note_off', channel=9, note=36, velocity=78, time=1),
    Message('note_off', channel=7, note=62, velocity=59, time=12),
    Message('note_off', channel=7, note=70, velocity=78, time=0),
    Message('note_off', channel=7, note=65, velocity=64, time=1),
    Message('note_on', channel=5, note=75, velocity=70, time=5),
    Message('note_on', channel=5, note=67, velocity=78, time=0),
    Message('note_on', channel=7, note=51, velocity=67, time=1),
    Message('note_off', channel=1, note=34, velocity=100, time=1),
    Message('note_on', channel=3, note=63, velocity=88, time=1),
    Message('note_on', channel=1, note=39, velocity=98, time=1),
    Message('note_on', channel=2, note=58, velocity=56, time=0),
    Message('control_change', channel=2, control=64, value=0, time=0),
    Message('note_on', channel=2, note=51, velocity=45, time=0),
    Message('note_on', channel=2, note=55, velocity=61, time=0),
    Message('note_off', channel=5, note=74, velocity=87, time=0),
    Message('note_off', channel=5, note=65, velocity=91, time=0),
    Message('note_on', channel=7, note=63, velocity=67, time=0),
    Message('note_on', channel=7, note=67, velocity=76, time=1),
    Message('note_on', channel=9, note=51, velocity=119, time=0),
    Message('note_on', channel=9, note=36, velocity=127, time=0),
    Message('note_off', channel=9, note=36, velocity=127, time=1),
    Message('note_off', channel=9, note=51, velocity=119, time=0),
    Message('note_on', channel=7, note=70, velocity=80, time=1),
    Message('note_off', channel=3, note=65, velocity=85, time=7),
    Message('note_off', channel=3, note=63, velocity=88, time=2),
    Message('note_off', channel=7, note=67, velocity=76, time=5),
    Message('note_off', channel=7, note=63, velocity=67, time=0),
    Message('control_change', channel=2, control=64, value=127, time=3),
    Message('note_off', channel=7, note=70, velocity=80, time=1),
    Message('note_on', channel=3, note=63, velocity=92, time=2),
    Message('note_on', channel=7, note=70, velocity=92, time=0),
    Message('note_on', channel=7, note=67, velocity=81, time=1),
    Message('note_on', channel=7, note=63, velocity=71, time=1),
    Message('note_off', channel=2, note=55, velocity=61, time=18),
    Message('note_off', channel=2, note=58, velocity=56, time=0),
    Message('note_off', channel=2, note=51, velocity=45, time=1),
    Message('note_off', channel=1, note=39, velocity=98, time=1),
    Message('note_on', channel=9, note=51, velocity=119, time=3),
    Message('note_off', channel=9, note=51, velocity=119, time=1),
    Message('note_off', channel=3, note=63, velocity=92, time=14),
    Message('note_off', channel=7, note=51, velocity=67, time=4),
    Message('note_off', channel=7, note=63, velocity=71, time=1),
    Message('note_off', channel=7, note=67, velocity=81, time=1),
    Message('note_off', channel=7, note=70, velocity=92, time=0),
    Message('note_on', channel=7, note=70, velocity=82, time=1),
    Message('note_on', channel=1, note=39, velocity=52, time=1),
    Message('note_on', channel=7, note=67, velocity=71, time=0),
    Message('note_on', channel=3, note=63, velocity=86, time=1),
    Message('note_on', channel=7, note=63, velocity=68, time=0),
    Message('note_off', channel=1, note=39, velocity=52, time=5),
    Message('note_on', channel=2, note=51, velocity=41, time=18),
    Message('note_on', channel=2, note=55, velocity=52, time=0),
    Message('note_on', channel=2, note=58, velocity=50, time=0),
    Message('control_change', channel=2, control=64, value=0, time=0),
    Message('note_on', channel=1, note=39, velocity=110, time=1),
    Message('note_on', channel=9, note=40, velocity=119, time=1),
    Message('note_on', channel=9, note=51, velocity=119, time=0),
    Message('note_off', channel=9, note=51, velocity=119, time=1),
    Message('note_off', channel=9, note=40, velocity=119, time=0),
    Message('note_off', channel=7, note=70, velocity=82, time=12),
    Message('note_off', channel=7, note=67, velocity=71, time=3),
    Message('control_change', channel=2, control=64, value=127, time=1),
    Message('note_off', channel=3, note=63, velocity=86, time=2),
    Message('note_off', channel=7, note=63, velocity=68, time=0),
    Message('note_on', channel=7, note=70, velocity=56, time=3),
    Message('note_on', channel=7, note=67, velocity=62, time=1),
    Message('note_on', channel=3, note=63, velocity=92, time=1),
    Message('note_on', channel=7, note=63, velocity=54, time=0),
    Message('note_off', channel=7, note=63, velocity=54, time=18),
    Message('note_off', channel=7, note=67, velocity=62, time=1),
    Message('note_off', channel=7, note=70, velocity=56, time=1),
    Message('note_on', channel=7, note=65, velocity=53, time=0),
    Message('note_on', channel=7, note=67, velocity=49, time=1),
    Message('note_off', channel=2, note=58, velocity=50, time=1),
    Message('note_on', channel=7, note=70, velocity=66, time=0),
    Message('note_off', channel=2, note=55, velocity=52, time=1),
    Message('note_off', channel=2, note=51, velocity=41, time=1),
    Message('note_on', channel=3, note=65, velocity=83, time=0),
    Message('note_on', channel=9, note=51, velocity=119, time=0),
    Message('note_off', channel=9, note=51, velocity=119, time=1),
    Message('note_off', channel=3, note=63, velocity=92, time=3),
    Message('note_off', channel=1, note=39, velocity=110, time=16),
    Message('note_off', channel=7, note=65, velocity=53, time=17),
    Message('note_off', channel=7, note=67, velocity=49, time=3),
    Message('note_off', channel=7, note=70, velocity=66, time=1),
    Message('control_change', channel=2, control=64, value=0, time=2),
    Message('note_off', channel=3, note=65, velocity=83, time=1),
    Message('note_on', channel=7, note=51, velocity=67, time=0),
    Message('note_on', channel=2, note=51, velocity=53, time=2),
    Message('note_on', channel=2, note=58, velocity=51, time=0),
    Message('note_on', channel=1, note=39, velocity=102, time=1),
    Message('note_on', channel=2, note=55, velocity=56, time=0),
    Message('note_on', channel=7, note=67, velocity=78, time=0),
    Message('note_on', channel=9, note=36, velocity=127, time=0),
    Message('note_on', channel=9, note=51, velocity=119, time=0),
    Message('note_on', channel=3, note=63, velocity=84, time=1),
    Message('note_on', channel=7, note=70, velocity=77, time=0),
    Message('note_off', channel=9, note=51, velocity=119, time=0),
    Message('note_off', channel=9, note=36, velocity=127, time=0),
    Message('note_on', channel=7, note=75, velocity=81, time=2),
    Message('control_change', channel=2, control=64, value=127, time=12),
    Message('note_off', channel=3, note=63, velocity=84, time=0),
    Message('note_on', channel=3, note=63, velocity=84, time=10),
    Message('note_off', channel=2, note=55, velocity=56, time=6),
    Message('note_off', channel=2, note=58, velocity=51, time=1),
    Message('note_off', channel=3, note=63, velocity=84, time=7),
    Message('note_off', channel=7, note=67, velocity=78, time=1),
    Message('note_off', channel=7, note=70, velocity=77, time=1),
    Message('note_off', channel=2, note=51, velocity=53, time=1),
    Message('note_off', channel=7, note=75, velocity=81, time=3),
    Message('note_on', channel=7, note=67, velocity=56, time=2),
    Message('note_on', channel=7, note=70, velocity=68, time=1),
    Message('note_on', channel=9, note=51, velocity=119, time=0),
    Message('note_on', channel=3, note=63, velocity=63, time=1),
    Message('note_on', channel=7, note=75, velocity=68, time=0),
    Message('note_off', channel=9, note=51, velocity=119, time=0),
    Message('note_off', channel=1, note=39, velocity=102, time=7),
    Message('note_off', channel=3, note=63, velocity=63, time=6),
    Message('note_off', channel=7, note=67, velocity=56, time=3),
    Message('note_off', channel=7, note=75, velocity=68, time=1),
    Message('note_off', channel=7, note=70, velocity=68, time=2),
    Message('note_on', channel=7, note=75, velocity=81, time=2),
    Message('note_on', channel=7, note=70, velocity=88, time=1),
    Message('note_on', channel=1, note=39, velocity=59, time=1),
    Message('note_on', channel=7, note=67, velocity=82, time=0),
    Message('note_on', channel=3, note=63, velocity=69, time=1),
    Message('note_off', channel=7, note=51, velocity=67, time=4),
    Message('control_change', channel=2, control=64, value=0, time=3),
    Message('note_off', channel=1, note=39, velocity=59, time=1),
    Message('control_change', channel=2, control=64, value=127, time=13),
    Message('note_on', channel=1, note=39, velocity=89, time=3),
    Message('note_on', channel=2, note=58, velocity=54, time=0),
    Message('note_on', channel=2, note=51, velocity=50, time=0),
    Message('note_on', channel=2, note=55, velocity=52, time=0),
    Message('note_on', channel=9, note=40, velocity=122, time=0),
    Message('note_on', channel=9, note=51, velocity=119, time=0),
    Message('note_off', channel=9, note=51, velocity=119, time=1),
    Message('note_off', channel=9, note=40, velocity=122, time=0),
    Message('note_off', channel=7, note=75, velocity=81, time=15),
    Message('note_off', channel=7, note=67, velocity=82, time=1),
    Message('note_off', channel=7, note=70, velocity=88, time=0),
    Message('note_on', channel=7, note=75, velocity=69, time=3),
    Message('note_on', channel=7, note=70, velocity=52, time=1),
    Message('note_on', channel=7, note=67, velocity=47, time=1),
    Message('note_off', channel=3, note=63, velocity=69, time=2),
    Message('note_on', channel=3, note=62, velocity=81, time=0),
    Message('note_off', channel=2, note=51, velocity=50, time=16),
    Message('note_off', channel=3, note=62, velocity=81, time=0),
    Message('note_off', channel=7, note=67, velocity=47, time=0),
    Message('note_off', channel=7, note=70, velocity=52, time=0),
    Message('note_off', channel=7, note=75, velocity=69, time=2),
    Message('note_off', channel=2, note=55, velocity=52, time=1),
    Message('note_off', channel=2, note=58, velocity=54, time=2),
    Message('note_on', channel=7, note=67, velocity=72, time=0),
    Message('note_on', channel=9, note=51, velocity=116, time=1),
    Message('note_on', channel=7, note=70, velocity=75, time=1),
    Message('note_on', channel=7, note=75, velocity=85, time=0),
    Message('note_off', channel=9, note=51, velocity=116, time=0),
    Message('note_on', channel=3, note=63, velocity=63, time=2),
    Message('note_on', channel=9, note=36, velocity=62, time=22),
    Message('note_off', channel=9, note=36, velocity=62, time=1),
    Message('note_off', channel=3, note=63, velocity=63, time=1),
    Message('note_off', channel=4, note=58, velocity=72, time=10),
    Message('control_change', channel=2, control=64, value=0, time=3),
    Message('note_off', channel=7, note=75, velocity=85, time=4),
    Message('note_off', channel=7, note=70, velocity=75, time=0),
    Message('note_on', channel=5, note=70, velocity=65, time=1),
    Message('note_off', channel=5, note=67, velocity=78, time=1),
    Message('note_off', channel=7, note=67, velocity=72, time=0),
    Message('note_on', channel=4, note=58, velocity=66, time=1),
    Message('note_on', channel=7, note=53, velocity=75, time=0),
    Message('note_on', channel=7, note=70, velocity=68, time=0),
    Message('note_off', channel=1, note=39, velocity=89, time=1),
    Message('note_on', channel=9, note=36, velocity=127, time=0),
    Message('note_on', channel=9, note=49, velocity=127, time=0),
    Message('note_on', channel=1, note=41, velocity=87, time=1),
    Message('note_on', channel=7, note=72, velocity=79, time=0),
    Message('note_on', channel=7, note=77, velocity=84, time=0),
    Message('note_off', channel=9, note=49, velocity=127, time=0),
    Message('note_off', channel=9, note=36, velocity=127, time=0),
    Message('note_on', channel=2, note=41, velocity=76, time=1),
    Message('note_on', channel=2, note=53, velocity=76, time=0),
    Message('note_on', channel=3, note=58, velocity=74, time=0),
    Message('note_on', channel=3, note=65, velocity=84, time=0),
    Message('note_on', channel=5, note=72, velocity=92, time=0),
    Message('note_on', channel=5, note=77, velocity=92, time=0),
    Message('note_on', channel=3, note=63, velocity=47, time=1),
    Message('note_off', channel=5, note=75, velocity=70, time=2),
    Message('control_change', channel=2, control=64, value=127, time=5),
    Message('note_off', channel=3, note=58, velocity=74, time=1),
    Message('note_off', channel=3, note=63, velocity=47, time=1),
    Message('note_off', channel=3, note=65, velocity=84, time=2),
    Message('note_on', channel=3, note=58, velocity=66, time=12),
    Message('note_on', channel=3, note=65, velocity=73, time=0),
    Message('note_on', channel=3, note=63, velocity=70, time=1),
    Message('note_off', channel=7, note=70, velocity=68, time=4),
    Message('note_off', channel=3, note=63, velocity=70, time=1),
    Message('note_off', channel=3, note=58, velocity=66, time=2),
    Message('note_off', channel=3, note=65, velocity=73, time=3),
    Message('note_off', channel=7, note=77, velocity=84, time=7),
    Message('note_off', channel=7, note=72, velocity=79, time=0),
    Message('note_on', channel=7, note=70, velocity=61, time=4),
    Message('note_on', channel=7, note=72, velocity=74, time=1),
    Message('note_on', channel=9, note=51, velocity=107, time=0),
    Message('note_on', channel=3, note=58, velocity=72, time=1),
    Message('note_on', channel=3, note=63, velocity=73, time=0),
    Message('note_on', channel=3, note=65, velocity=82, time=0),
    Message('note_on', channel=7, note=77, velocity=52, time=0),
    Message('note_off', channel=9, note=51, velocity=107, time=0),
    Message('note_off', channel=1, note=41, velocity=87, time=2),
    Message('note_off', channel=3, note=63, velocity=73, time=7),
    Message('note_off', channel=3, note=58, velocity=72, time=0),
    Message('note_off', channel=7, note=53, velocity=75, time=1),
    Message('note_off', channel=7, note=70, velocity=61, time=1),
    Message('note_off', channel=3, note=65, velocity=82, time=1),
    Message('note_off', channel=2, note=53, velocity=76, time=1),
    Message('note_off', channel=2, note=41, velocity=76, time=1),
    Message('note_off', channel=7, note=77, velocity=52, time=3),
    Message('note_off', channel=7, note=72, velocity=74, time=2),
    Message('note_on', channel=7, note=53, velocity=75, time=2),
    Message('note_on', channel=7, note=77, velocity=89, time=0),
    Message('note_on', channel=7, note=72, velocity=86, time=1),
    Message('note_on', channel=7, note=70, velocity=90, time=1),
    Message('note_on', channel=1, note=41, velocity=89, time=1),
    Message('note_on', channel=3, note=58, velocity=70, time=0),
    Message('note_on', channel=3, note=63, velocity=86, time=0),
    Message('note_on', channel=3, note=65, velocity=73, time=0),
    Message('note_off', channel=1, note=41, velocity=89, time=6),
    Message('control_change', channel=2, control=64, value=0, time=13),
    Message('note_on', channel=9, note=40, velocity=127, time=3),
    Message('note_on', channel=9, note=55, velocity=116, time=1),
    Message('note_off', channel=9, note=40, velocity=127, time=0),
    Message('note_on', channel=1, note=41, velocity=95, time=1),
    Message('note_on', channel=2, note=41, velocity=72, time=0),
    Message('note_on', channel=2, note=53, velocity=85, time=0),
    Message('note_off', channel=9, note=55, velocity=116, time=0),
    Message('note_off', channel=3, note=63, velocity=86, time=12),
    Message('control_change', channel=2, control=64, value=127, time=1),
    Message('note_off', channel=3, note=58, velocity=70, time=1),
    Message('note_off', channel=7, note=77, velocity=89, time=0),
    Message('note_off', channel=3, note=65, velocity=73, time=2),
    Message('note_off', channel=7, note=72, velocity=86, time=1),
    Message('note_off', channel=7, note=70, velocity=90, time=1),
    Message('note_on', channel=7, note=77, velocity=94, time=2),
    Message('note_on', channel=7, note=72, velocity=71, time=1),
    Message('note_on', channel=7, note=70, velocity=60, time=1),
    Message('note_on', channel=3, note=58, velocity=95, time=2),
    Message('note_on', channel=3, note=63, velocity=85, time=1),
    Message('note_on', channel=3, note=65, velocity=90, time=0),
    Message('note_off', channel=1, note=41, velocity=95, time=6),
    Message('note_off', channel=3, note=58, velocity=95, time=2),
    Message('note_off', channel=3, note=63, velocity=85, time=1),
    Message('note_off', channel=3, note=65, velocity=90, time=1),
    Message('note_off', channel=7, note=70, velocity=60, time=5),
    Message('note_off', channel=7, note=72, velocity=71, time=0),
    Message('note_off', channel=7, note=77, velocity=94, time=2),
    Message('note_off', channel=2, note=41, velocity=72, time=2),
    Message('note_on', channel=7, note=70, velocity=70, time=1),
    Message('note_on', channel=9, note=51, velocity=89, time=1),
    Message('note_on', channel=7, note=72, velocity=78, time=1),
    Message('note_on', channel=7, note=77, velocity=77, time=0),
    Message('note_off', channel=9, note=51, velocity=89, time=0),
    Message('note_on', channel=1, note=41, velocity=105, time=1),
    Message('note_on', channel=3, note=58, velocity=82, time=0),
    Message('note_on', channel=3, note=63, velocity=85, time=0),
    Message('note_on', channel=3, note=65, velocity=78, time=0),
    Message('note_off', channel=2, note=53, velocity=85, time=3),
    Message('note_off', channel=7, note=53, velocity=75, time=7),
    Message('note_off', channel=3, note=58, velocity=82, time=5),
    Message('note_off', channel=7, note=77, velocity=77, time=3),
    Message('note_off', channel=7, note=72, velocity=78, time=0),
    Message('note_off', channel=7, note=70, velocity=70, time=2),
    Message('note_on', channel=7, note=77, velocity=70, time=2),
    Message('note_on', channel=7, note=72, velocity=69, time=1),
    Message('note_off', channel=3, note=65, velocity=78, time=1),
    Message('note_off', channel=3, note=63, velocity=85, time=0),
    Message('note_on', channel=7, note=70, velocity=59, time=0),
    Message('note_off', channel=4, note=58, velocity=66, time=10),
    Message('note_off', channel=7, note=77, velocity=70, time=3),
    Message('note_off', channel=7, note=72, velocity=69, time=3),
    Message('note_off', channel=7, note=70, velocity=59, time=3),
    Message('note_on', channel=7, note=46, velocity=67, time=1),
    Message('note_off', channel=1, note=41, velocity=105, time=3),
    Message('note_on', channel=2, note=46, velocity=62, time=0),
    Message('note_on', channel=2, note=50, velocity=63, time=0),
    Message('note_on', channel=2, note=53, velocity=75, time=0),
    Message('note_on', channel=4, note=58, velocity=87, time=0),
    Message('note_on', channel=7, note=70, velocity=67, time=0),
    Message('note_on', channel=1, note=34, velocity=116, time=1),
    Message('control_change', channel=2, control=64, value=0, time=0),
    Message('note_off', channel=5, note=72, velocity=92, time=0),
    Message('note_on', channel=5, note=74, velocity=73, time=0),
    Message('note_on', channel=7, note=74, velocity=76, time=0),
    Message('note_on', channel=9, note=36, velocity=127, time=0),
    Message('note_on', channel=9, note=49, velocity=122, time=0),
    Message('note_off', channel=9, note=49, velocity=122, time=1),
    Message('note_off', channel=9, note=36, velocity=127, time=0),
    Message('note_on', channel=7, note=77, velocity=89, time=1),
    Message('control_change', channel=2, control=64, value=127, time=19),
    Message('note_off', channel=7, note=70, velocity=67, time=18),
    Message('note_off', channel=7, note=74, velocity=76, time=1),
    Message('note_on', channel=7, note=62, velocity=33, time=5),
    Message('note_on', channel=9, note=51, velocity=102, time=1),
    Message('note_off', channel=1, note=34, velocity=116, time=1),
    Message('note_on', channel=3, note=65, velocity=65, time=0),
    Message('note_on', channel=7, note=65, velocity=64, time=0),
    Message('note_on', channel=7, note=70, velocity=59, time=0),
    Message('note_off', channel=9, note=51, velocity=102, time=0),
    Message('note_off', channel=2, note=50, velocity=63, time=7),
    Message('note_off', channel=2, note=53, velocity=75, time=1),
    Message('note_off', channel=2, note=46, velocity=62, time=5),
    Message('note_off', channel=3, note=65, velocity=65, time=0),
    Message('note_off', channel=7, note=70, velocity=59, time=6),
    Message('note_off', channel=7, note=65, velocity=64, time=0),
    Message('note_off', channel=7, note=62, velocity=33, time=2),
    Message('note_on', channel=7, note=70, velocity=70, time=2),
    Message('note_on', channel=3, note=65, velocity=78, time=1),
    Message('note_on', channel=7, note=65, velocity=69, time=0),
    Message('note_on', channel=7, note=62, velocity=59, time=1),
    Message('note_on', channel=9, note=36, velocity=88, time=0),
    Message('note_on', channel=1, note=34, velocity=44, time=1),
    Message('note_off', channel=9, note=36, velocity=88, time=0),
    Message('note_off', channel=1, note=34, velocity=44, time=7),
    Message('note_off', channel=7, note=62, velocity=59, time=11),
    Message('note_off', channel=7, note=65, velocity=69, time=1),
    Message('note_off', channel=7, note=70, velocity=70, time=0),
    Message('note_off', channel=7, note=77, velocity=89, time=0),
    Message('note_on', channel=7, note=62, velocity=33, time=1),
    Message('note_on', channel=2, note=46, velocity=57, time=2),
    Message('note_on', channel=2, note=50, velocity=57, time=0),
    Message('note_on', channel=2, note=53, velocity=79, time=0),
    Message('note_on', channel=3, note=70, velocity=85, time=0),
    Message('note_on', channel=7, note=65, velocity=64, time=0),
    Message('note_on', channel=7, note=70, velocity=59, time=0),
    Message('note_on', channel=9, note=51, velocity=119, time=0),
    Message('note_on', channel=1, note=34, velocity=93, time=1),
    Message('note_on', channel=9, note=40, velocity=122, time=0),
    Message('note_off', channel=9, note=51, velocity=119, time=0),
    Message('note_off', channel=9, note=40, velocity=122, time=1),
    Message('control_change', channel=2, control=64, value=0, time=1),
    Message('note_off', channel=3, note=65, velocity=78, time=4),
    Message('note_off', channel=3, note=70, velocity=85, time=5),
    Message('control_change', channel=2, control=64, value=127, time=9),
    Message('note_on', channel=3, note=70, velocity=67, time=3),
    Message('note_off', channel=7, note=62, velocity=33, time=17),
    Message('note_off', channel=7, note=70, velocity=59, time=1),
    Message('note_off', channel=7, note=65, velocity=64, time=1),
    Message('note_off', channel=2, note=50, velocity=57, time=2),
    Message('note_on', channel=7, note=62, velocity=61, time=2),
    Message('note_on', channel=3, note=74, velocity=93, time=1),
    Message('note_on', channel=7, note=65, velocity=74, time=0),
    Message('note_on', channel=7, note=70, velocity=52, time=1),
    Message('note_on', channel=9, note=51, velocity=119, time=0),
    Message('note_off', channel=2, note=53, velocity=79, time=1),
    Message('note_off', channel=9, note=51, velocity=119, time=0),
    Message('note_off', channel=2, note=46, velocity=57, time=3),
    Message('note_off', channel=3, note=70, velocity=67, time=0),
    Message('note_off', channel=3, note=74, velocity=93, time=7),
    Message('note_off', channel=7, note=70, velocity=52, time=8),
    Message('note_off', channel=7, note=65, velocity=74, time=0),
    Message('note_off', channel=7, note=62, velocity=61, time=0),
    Message('note_on', channel=7, note=70, velocity=72, time=2),
    Message('note_on', channel=7, note=65, velocity=71, time=1),
    Message('note_on', channel=3, note=74, velocity=85, time=1),
    Message('note_on', channel=7, note=62, velocity=68, time=0),
    Message('note_on', channel=9, note=36, velocity=81, time=0),
    Message('note_off', channel=9, note=36, velocity=81, time=1),
    Message('note_off', channel=1, note=34, velocity=93, time=1),
    Message('note_off', channel=7, note=46, velocity=67, time=3),
    Message('note_off', channel=7, note=70, velocity=72, time=14),
    Message('note_off', channel=7, note=65, velocity=71, time=2),
    Message('note_off', channel=7, note=62, velocity=68, time=1),
    Message('note_on', channel=7, note=51, velocity=50, time=0),
    Message('note_on', channel=7, note=62, velocity=33, time=0),
    Message('note_on', channel=1, note=34, velocity=95, time=2),
    Message('note_on', channel=2, note=50, velocity=67, time=0),
    Message('note_on', channel=2, note=53, velocity=63, time=0),
    Message('note_on', channel=2, note=58, velocity=74, time=0),
    Message('control_change', channel=2, control=64, value=0, time=0),
    Message('note_on', channel=3, note=75, velocity=90, time=0),
    Message('note_on', channel=7, note=65, velocity=64, time=0),
    Message('note_on', channel=7, note=70, velocity=59, time=0),
    Message('note_on', channel=9, note=51, velocity=119, time=0),
    Message('note_on', channel=9, note=36, velocity=125, time=0),
    Message('note_off', channel=9, note=36, velocity=125, time=1),
    Message('note_off', channel=9, note=51, velocity=119, time=0),
    Message('note_off', channel=3, note=74, velocity=85, time=1),
    Message('note_off', channel=7, note=62, velocity=33, time=14),
    Message('note_off', channel=7, note=70, velocity=59, time=3),
    Message('note_off', channel=7, note=65, velocity=64, time=0),
    Message('control_change', channel=2, control=64, value=127, time=2),
    Message('note_on', channel=7, note=70, velocity=70, time=2),
    Message('note_on', channel=9, note=40, velocity=91, time=0),
    Message('note_on', channel=7, note=65, velocity=69, time=1),
    Message('note_off', channel=9, note=40, velocity=91, time=0),
    Message('note_on', channel=7, note=62, velocity=59, time=1),
    Message('note_off', channel=7, note=51, velocity=50, time=10),
    Message('note_off', channel=7, note=62, velocity=59, time=9),
    Message('note_off', channel=2, note=53, velocity=63, time=1),
    Message('note_off', channel=7, note=65, velocity=69, time=0),
    Message('note_off', channel=7, note=70, velocity=70, time=0),
    Message('note_off', channel=2, note=58, velocity=74, time=1),
    Message('note_on', channel=7, note=62, velocity=61, time=1),
    Message('note_on', channel=7, note=65, velocity=74, time=1),
    Message('note_on', channel=9, note=51, velocity=119, time=0),
    Message('note_off', channel=3, note=75, velocity=90, time=1),
    Message('note_on', channel=3, note=74, velocity=90, time=0),
    Message('note_on', channel=7, note=70, velocity=52, time=0),
    Message('note_off', channel=9, note=51, velocity=119, time=0),
    Message('note_off', channel=1, note=34, velocity=95, time=5),
    Message('note_off', channel=2, note=50, velocity=67, time=8),
    Message('note_off', channel=7, note=70, velocity=52, time=4),
    Message('note_off', channel=7, note=65, velocity=74, time=2),
    Message('note_off', channel=7, note=62, velocity=61, time=0),
    Message('note_on', channel=7, note=70, velocity=82, time=2),
    Message('note_on', channel=7, note=65, velocity=74, time=1),
    Message('note_on', channel=9, note=36, velocity=90, time=0),
    Message('note_on', channel=1, note=34, velocity=66, time=1),
    Message('note_off', channel=3, note=74, velocity=90, time=0),
    Message('note_on', channel=7, note=62, velocity=78, time=0),
    Message('note_off', channel=9, note=36, velocity=90, time=0),
    Message('note_on', channel=3, note=72, velocity=74, time=1),
    Message('note_off', channel=1, note=34, velocity=66, time=6),
    Message('note_off', channel=7, note=62, velocity=78, time=15),
    Message('note_off', channel=7, note=65, velocity=74, time=0),
    Message('note_off', channel=7, note=70, velocity=82, time=0),
    Message('note_on', channel=9, note=51, velocity=122, time=1),
    Message('note_on', channel=2, note=58, velocity=72, time=1),
    Message('note_on', channel=2, note=50, velocity=54, time=0),
    Message('note_on', channel=2, note=53, velocity=61, time=0),
    Message('note_on', channel=9, note=40, velocity=127, time=0),
    Message('note_off', channel=9, note=51, velocity=122, time=0),
    Message('note_on', channel=1, note=34, velocity=105, time=1),
    Message('control_change', channel=2, control=64, value=0, time=0),
    Message('note_off', channel=9, note=40, velocity=127, time=0),
    Message('note_on', channel=7, note=70, velocity=94, time=20),
    Message('note_on', channel=7, note=65, velocity=71, time=1),
    Message('control_change', channel=2, control=64, value=127, time=1),
    Message('note_on', channel=7, note=62, velocity=60, time=0),
    Message('note_off', channel=1, note=34, velocity=105, time=14),
    Message('note_off', channel=2, note=53, velocity=61, time=4),
    Message('note_off', channel=7, note=62, velocity=60, time=0),
    Message('note_off', channel=7, note=65, velocity=71, time=0),
    Message('note_off', channel=7, note=70, velocity=94, time=2),
    Message('note_off', channel=2, note=50, velocity=54, time=3),
    Message('note_off', channel=2, note=58, velocity=72, time=0),
    Message('note_off', channel=3, note=72, velocity=74, time=0),
    Message('note_on', channel=7, note=62, velocity=33, time=0),
    Message('note_on', channel=1, note=34, velocity=58, time=2),
    Message('note_on', channel=3, note=74, velocity=87, time=0),
    Message('note_on', channel=7, note=65, velocity=64, time=0),
    Message('note_on', channel=7, note=70, velocity=59, time=0),
    Message('note_on', channel=9, note=51, velocity=116, time=0),
    Message('note_off', channel=9, note=51, velocity=116, time=1),
    Message('note_off', channel=7, note=70, velocity=59, time=18),
    Message('note_off', channel=7, note=65, velocity=64, time=0),
    Message('note_off', channel=7, note=62, velocity=33, time=2),
    Message('note_on', channel=7, note=70, velocity=70, time=2),
    Message('note_on', channel=7, note=65, velocity=69, time=1),
    Message('note_off', channel=5, note=74, velocity=73, time=1),
    Message('note_on', channel=7, note=62, velocity=59, time=0),
    Message('note_on', channel=9, note=36, velocity=68, time=0),
    Message('note_off', channel=9, note=36, velocity=68, time=1),
    Message('note_off', channel=7, note=70, velocity=70, time=12),
    Message('note_off', channel=7, note=65, velocity=69, time=3),
    Message('note_on', channel=5, note=67, velocity=89, time=2),
    Message('note_off', channel=1, note=34, velocity=58, time=1),
    Message('note_on', channel=5, note=75, velocity=76, time=0),
    Message('note_off', channel=7, note=62, velocity=59, time=0),
    Message('control_change', channel=2, control=64, value=0, time=2),
    Message('note_on', channel=7, note=51, velocity=50, time=0),
    Message('note_on', channel=2, note=51, velocity=53, time=1),
    Message('note_on', channel=2, note=55, velocity=70, time=0),
    Message('note_on', channel=2, note=58, velocity=68, time=0),
    Message('note_off', channel=5, note=77, velocity=92, time=0),
    Message('note_on', channel=7, note=58, velocity=61, time=0),
    Message('note_on', channel=7, note=63, velocity=74, time=0),
    Message('note_on', channel=1, note=39, velocity=82, time=1),
    Message('note_on', channel=9, note=36, velocity=127, time=0),
    Message('note_on', channel=9, note=49, velocity=113, time=0),
    Message('note_on', channel=3, note=70, velocity=76, time=1),
    Message('note_on', channel=7, note=67, velocity=52, time=0),
    Message('note_off', channel=9, note=49, velocity=113, time=0),
    Message('note_off', channel=9, note=36, velocity=127, time=0),
    Message('note_off', channel=5, note=70, velocity=65, time=2),
    Message('note_off', channel=3, note=74, velocity=87, time=7),
    Message('note_off', channel=7, note=67, velocity=52, time=8),
    Message('control_change', channel=2, control=64, value=127, time=2),
    Message('note_off', channel=7, note=51, velocity=50, time=15),
    Message('note_off', channel=7, note=63, velocity=74, time=4),
    Message('note_off', channel=7, note=58, velocity=61, time=0),
    Message('note_off', channel=2, note=55, velocity=70, time=7),
    Message('note_off', channel=2, note=58, velocity=68, time=1),
    Message('note_on', channel=7, note=58, velocity=61, time=0),
    Message('note_on', channel=7, note=63, velocity=74, time=0),
    Message('note_off', channel=3, note=70, velocity=76, time=1),
    Message('note_off', channel=2, note=51, velocity=53, time=1),
    Message('note_on', channel=3, note=67, velocity=77, time=0),
    Message('note_on', channel=7, note=67, velocity=52, time=0),
    Message('note_on', channel=9, note=51, velocity=91, time=0),
    Message('note_off', channel=1, note=39, velocity=82, time=1),
    Message('note_off', channel=9, note=51, velocity=91, time=0),
    Message('note_off', channel=7, note=67, velocity=52, time=16),
    Message('note_off', channel=7, note=63, velocity=74, time=1),
    Message('note_off', channel=7, note=58, velocity=61, time=1),
    Message('note_on', channel=7, note=67, velocity=72, time=2),
    Message('note_on', channel=7, note=63, velocity=71, time=1),
    Message('note_on', channel=1, note=39, velocity=49, time=1),
    Message('note_on', channel=7, note=58, velocity=68, time=0),
    Message('note_on', channel=3, note=70, velocity=81, time=1),
    Message('note_off', channel=1, note=39, velocity=49, time=8),
    Message('note_off', channel=3, note=67, velocity=77, time=0),
    Message('control_change', channel=2, control=64, value=0, time=1),
    Message('note_on', channel=1, note=39, velocity=107, time=14),
    Message('note_on', channel=2, note=55, velocity=76, time=1),
    Message('note_on', channel=2, note=58, velocity=72, time=0),
    Message('note_on', channel=2, note=51, velocity=55, time=0),
    Message('note_on', channel=9, note=51, velocity=113, time=0),
    Message('note_on', channel=9, note=40, velocity=127, time=0),
    Message('note_off', channel=9, note=40, velocity=127, time=1),
    Message('note_off', channel=9, note=51, velocity=113, time=0),
    Message('control_change', channel=2, control=64, value=127, time=2),
    Message('note_off', channel=7, note=67, velocity=72, time=13),
    Message('note_off', channel=7, note=63, velocity=71, time=1),
    Message('note_off', channel=7, note=58, velocity=68, time=2),
    Message('note_on', channel=7, note=67, velocity=81, time=1),
    Message('note_on', channel=7, note=63, velocity=71, time=1),
    Message('note_on', channel=7, note=58, velocity=60, time=1),
    Message('note_off', channel=7, note=58, velocity=60, time=18),
    Message('note_off', channel=7, note=63, velocity=71, time=0),
    Message('note_off', channel=7, note=67, velocity=81, time=2),
    Message('note_on', channel=7, note=58, velocity=33, time=3),
    Message('note_on', channel=7, note=63, velocity=64, time=2),
    Message('note_on', channel=7, note=67, velocity=59, time=0),
    Message('note_on', channel=3, note=72, velocity=89, time=1),
    Message('note_on', channel=9, note=51, velocity=113, time=0),
    Message('note_off', channel=9, note=51, velocity=113, time=1),
    Message('note_off', channel=2, note=58, velocity=72, time=2),
    Message('note_off', channel=2, note=55, velocity=76, time=2),
    Message('note_off', channel=3, note=70, velocity=81, time=2),
    Message('note_off', channel=2, note=51, velocity=55, time=1),
    Message('note_off', channel=7, note=67, velocity=59, time=10),
    Message('note_off', channel=7, note=63, velocity=64, time=0),
    Message('note_off', channel=7, note=58, velocity=33, time=2),
    Message('note_on', channel=7, note=67, velocity=70, time=2),
    Message('note_on', channel=9, note=36, velocity=81, time=0),
    Message('note_on', channel=7, note=63, velocity=69, time=1),
    Message('note_off', channel=9, note=36, velocity=81, time=0),
    Message('note_on', channel=7, note=58, velocity=59, time=1),
    Message('control_change', channel=2, control=64, value=0, time=11),
    Message('note_off', channel=1, note=39, velocity=107, time=1),
    Message('note_off', channel=7, note=58, velocity=59, time=7),
    Message('note_off', channel=7, note=63, velocity=69, time=1),
    Message('note_off', channel=7, note=67, velocity=70, time=0),
    Message('note_on', channel=7, note=51, velocity=67, time=2),
    Message('note_on', channel=7, note=58, velocity=67, time=0),
    Message('note_on', channel=1, note=27, velocity=95, time=1),
    Message('note_on', channel=7, note=63, velocity=76, time=0),
    Message('note_on', channel=9, note=51, velocity=119, time=0),
    Message('note_on', channel=9, note=36, velocity=127, time=0),
    Message('note_on', channel=2, note=51, velocity=50, time=1),
    Message('note_on', channel=2, note=55, velocity=66, time=0),
    Message('note_on', channel=2, note=58, velocity=71, time=0),
    Message('note_on', channel=7, note=67, velocity=64, time=0),
    Message('note_off', channel=9, note=36, velocity=127, time=0),
    Message('note_off', channel=9, note=51, velocity=119, time=0),
    Message('note_on', channel=3, note=75, velocity=89, time=1),
    Message('control_change', channel=2, control=64, value=127, time=6),
    Message('note_off', channel=3, note=72, velocity=89, time=3),
    Message('note_off', channel=7, note=63, velocity=76, time=5),
    Message('note_off', channel=7, note=58, velocity=67, time=0),
    Message('note_off', channel=7, note=51, velocity=67, time=2),
    Message('note_off', channel=7, note=67, velocity=64, time=1),
    Message('note_on', channel=7, note=58, velocity=80, time=4),
    Message('note_on', channel=7, note=63, velocity=79, time=0),
    Message('note_on', channel=9, note=40, velocity=107, time=0),
    Message('note_off', channel=9, note=40, velocity=107, time=1),
    Message('note_on', channel=7, note=67, velocity=84, time=1),
    Message('note_on', channel=3, note=74, velocity=90, time=1),
    Message('note_off', channel=3, note=75, velocity=89, time=2),
    Message('note_off', channel=2, note=55, velocity=66, time=15),
    Message('note_off', channel=2, note=58, velocity=71, time=1),
    Message('note_off', channel=2, note=51, velocity=50, time=2),
    Message('note_on', channel=9, note=51, velocity=119, time=2),
    Message('note_on', channel=3, note=70, velocity=90, time=1),
    Message('note_off', channel=9, note=51, velocity=119, time=0),
    Message('note_off', channel=3, note=74, velocity=90, time=2),
    Message('note_off', channel=1, note=27, velocity=95, time=4),
    Message('note_off', channel=3, note=70, velocity=90, time=7),
    Message('note_off', channel=7, note=58, velocity=80, time=3),
    Message('note_off', channel=7, note=63, velocity=79, time=1),
    Message('note_off', channel=7, note=67, velocity=84, time=2),
    Message('note_on', channel=7, note=67, velocity=72, time=2),
    Message('note_on', channel=7, note=63, velocity=71, time=1),
    Message('note_on', channel=3, note=70, velocity=75, time=1),
    Message('note_on', channel=7, note=58, velocity=68, time=0),
    Message('note_on', channel=9, note=36, velocity=125, time=0),
    Message('note_on', channel=1, note=27, velocity=64, time=1),
    Message('note_off', channel=9, note=36, velocity=125, time=0),
    Message('control_change', channel=2, control=64, value=0, time=2),
    Message('note_off', channel=1, note=27, velocity=64, time=7),
    Message('note_off', channel=7, note=67, velocity=72, time=7),
    Message('note_off', channel=7, note=63, velocity=71, time=1),
    Message('note_off', channel=7, note=58, velocity=68, time=1),
    Message('note_on', channel=7, note=67, velocity=45, time=3),
    Message('control_change', channel=2, control=64, value=127, time=1),
    Message('note_on', channel=2, note=51, velocity=60, time=1),
    Message('note_on', channel=2, note=55, velocity=70, time=0),
    Message('note_on', channel=2, note=58, velocity=72, time=0),
    Message('note_on', channel=7, note=63, velocity=54, time=0),
    Message('note_on', channel=9, note=51, velocity=122, time=0),
    Message('note_on', channel=9, note=40, velocity=127, time=0),
    Message('note_on', channel=1, note=27, velocity=89, time=1),
    Message('note_on', channel=3, note=72, velocity=93, time=0),
    Message('note_on', channel=7, note=51, velocity=63, time=0),
    Message('note_on', channel=7, note=58, velocity=69, time=0),
    Message('note_off', channel=9, note=40, velocity=127, time=0),
    Message('note_off', channel=9, note=51, velocity=122, time=0),
    Message('note_off', channel=3, note=70, velocity=75, time=10),
    Message('note_off', channel=7, note=67, velocity=45, time=0),
    Message('note_off', channel=7, note=58, velocity=69, time=3),
    Message('note_off', channel=7, note=63, velocity=54, time=0),
    Message('note_on', channel=7, note=58, velocity=52, time=9),
    Message('note_on', channel=7, note=63, velocity=40, time=1),
    Message('note_on', channel=7, note=67, velocity=47, time=1),
    Message('note_off', channel=3, note=72, velocity=93, time=8),
    Message('note_off', channel=7, note=63, velocity=40, time=6),
    Message('note_off', channel=7, note=67, velocity=47, time=2),
    Message('note_off', channel=7, note=58, velocity=52, time=0),
    Message('note_off', channel=7, note=51, velocity=63, time=3),
    Message('note_off', channel=1, note=27, velocity=89, time=1),
    Message('note_off', channel=2, note=51, velocity=60, time=0),
    Message('note_off', channel=2, note=55, velocity=70, time=1),
    Message('note_on', channel=7, note=67, velocity=75, time=0),
    Message('note_off', channel=2, note=58, velocity=72, time=1),
    Message('note_on', channel=9, note=51, velocity=107, time=0),
    Message('note_on', channel=1, note=31, velocity=87, time=1),
    Message('note_on', channel=7, note=63, velocity=78, time=0),
    Message('note_off', channel=9, note=51, velocity=107, time=0),
    Message('note_on', channel=3, note=74, velocity=94, time=1),
    Message('note_on', channel=7, note=58, velocity=69, time=0),
    Message('note_on', channel=9, note=36, velocity=100, time=21),
    Message('note_on', channel=9, note=57, velocity=86, time=1),
    Message('note_off', channel=9, note=36, velocity=100, time=0),
    Message('note_off', channel=4, note=58, velocity=87, time=1),
    Message('note_off', channel=9, note=57, velocity=86, time=0),
    Message('control_change', channel=2, control=64, value=0, time=9),
    Message('note_on', channel=5, note=65, velocity=74, time=6),
    Message('note_on', channel=5, note=74, velocity=85, time=0),
    Message('note_off', channel=7, note=67, velocity=75, time=1),
    Message('note_off', channel=7, note=63, velocity=78, time=1),
    Message('note_on', channel=4, note=58, velocity=72, time=1),
    Message('note_off', channel=5, note=67, velocity=89, time=0),
    Message('note_off', channel=7, note=58, velocity=69, time=0),
    Message('note_off', channel=5, note=75, velocity=76, time=1),
    Message('note_off', channel=1, note=31, velocity=87, time=1),
    Message('note_on', channel=9, note=36, velocity=127, time=2),
    Message('note_on', channel=7, note=46, velocity=72, time=1),
    Message('note_on', channel=9, note=49, velocity=127, time=0),
    Message('note_off', channel=9, note=36, velocity=127, time=0),
    Message('note_on', channel=1, note=34, velocity=74, time=1),
    Message('note_on', channel=2, note=46, velocity=42, time=0),
    Message('note_on', channel=3, note=70, velocity=88, time=0),
    Message('note_on', channel=7, note=62, velocity=72, time=0),
    Message('note_off', channel=9, note=49, velocity=127, time=0),
    Message('note_on', channel=2, note=53, velocity=67, time=1),
    Message('note_on', channel=2, note=50, velocity=53, time=0),
    Message('note_on', channel=7, note=65, velocity=61, time=0),
    Message('note_on', channel=7, note=70, velocity=71, time=0),
    Message('control_change', channel=2, control=64, value=127, time=5),
    Message('note_off', channel=7, note=62, velocity=72, time=8),
    Message('note_off', channel=7, note=70, velocity=71, time=6),
    Message('note_off', channel=7, note=65, velocity=61, time=0),
    Message('note_on', channel=7, note=70, velocity=68, time=2),
    Message('note_on', channel=7, note=65, velocity=52, time=1),
    Message('note_off', channel=3, note=74, velocity=94, time=4),
    Message('note_off', channel=2, note=46, velocity=42, time=3),
    Message('note_off', channel=2, note=53, velocity=67, time=9),
    Message('note_off', channel=7, note=65, velocity=52, time=2),
    Message('note_off', channel=7, note=70, velocity=68, time=2),
    Message('note_on', channel=7, note=62, velocity=49, time=2),
    Message('note_on', channel=7, note=65, velocity=60, time=1),
    Message('note_on', channel=9, note=51, velocity=91, time=1),
    Message('note_off', channel=9, note=51, velocity=91, time=1),
    Message('note_on', channel=3, note=65, velocity=86, time=1),
    Message('note_on', channel=7, note=70, velocity=44, time=3),
    Message('note_off', channel=2, note=50, velocity=53, time=3),
    Message('note_off', channel=1, note=34, velocity=74, time=8),
    Message('note_off', channel=3, note=70, velocity=88, time=1),
    Message('note_off', channel=7, note=62, velocity=49, time=0),
    Message('note_off', channel=7, note=70, velocity=44, time=4),
    Message('note_off', channel=7, note=46, velocity=72, time=0),
    Message('note_off', channel=7, note=65, velocity=60, time=1),
    Message('note_on', channel=7, note=70, velocity=68, time=0),
    Message('note_on', channel=9, note=36, velocity=109, time=1),
    Message('note_off', channel=9, note=36, velocity=109, time=1),
    Message('note_on', channel=7, note=62, velocity=60, time=1),
    Message('note_on', channel=7, note=65, velocity=67, time=0),
    Message('note_on', channel=1, note=34, velocity=68, time=1),
    Message('note_off', channel=1, note=34, velocity=68, time=7),
    Message('control_change', channel=2, control=64, value=0, time=3),
    Message('note_on', channel=9, note=51, velocity=119, time=11),
    Message('note_on', channel=2, note=46, velocity=35, time=1),
    Message('note_on', channel=9, note=40, velocity=127, time=0),
    Message('note_off', channel=9, note=51, velocity=119, time=0),
    Message('note_on', channel=3, note=70, velocity=85, time=1),
    Message('note_off', channel=9, note=40, velocity=127, time=0),
    Message('note_on', channel=1, note=34, velocity=107, time=1),
    Message('note_on', channel=2, note=50, velocity=41, time=0),
    Message('note_on', channel=2, note=53, velocity=59, time=0),
    Message('control_change', channel=2, control=64, value=127, time=9),
    Message('note_off', channel=3, note=65, velocity=86, time=0),
    Message('note_off', channel=7, note=62, velocity=60, time=5),
    Message('note_off', channel=7, note=70, velocity=68, time=4),
    Message('note_off', channel=7, note=65, velocity=67, time=2),
    Message('note_on', channel=7, note=70, velocity=56, time=2),
    Message('note_on', channel=7, note=65, velocity=62, time=1),
    Message('note_on', channel=7, note=62, velocity=54, time=1),
    Message('note_off', channel=2, note=53, velocity=59, time=11),
    Message('note_off', channel=2, note=46, velocity=35, time=1),
    Message('note_off', channel=7, note=62, velocity=54, time=0),
    Message('note_off', channel=2, note=50, velocity=41, time=1),
    Message('note_off', channel=7, note=65, velocity=62, time=6),
    Message('note_off', channel=7, note=70, velocity=56, time=1),
    Message('note_on', channel=7, note=62, velocity=51, time=0),
    Message('note_on', channel=7, note=65, velocity=59, time=1),
    Message('note_on', channel=9, note=51, velocity=110, time=0),
    Message('note_on', channel=7, note=70, velocity=52, time=1),
    Message('note_off', channel=9, note=51, velocity=110, time=0),
    Message('note_on', channel=3, note=72, velocity=85, time=1),
    Message('note_off', channel=3, note=70, velocity=85, time=5),
    Message('note_off', channel=7, note=62, velocity=51, time=12),
    Message('note_off', channel=7, note=65, velocity=59, time=2),
    Message('note_off', channel=7, note=70, velocity=52, time=2),
    Message('note_on', channel=7, note=70, velocity=78, time=1),
    Message('note_on', channel=7, note=65, velocity=64, time=1),
    Message('note_on', channel=9, note=36, velocity=80, time=0),
    Message('note_off', channel=1, note=34, velocity=107, time=1),
    Message('note_on', channel=7, note=62, velocity=59, time=0),
    Message('note_off', channel=9, note=36, velocity=80, time=0),
    Message('note_off', channel=7, note=62, velocity=59, time=8),
    Message('control_change', channel=2, control=64, value=0, time=5),
    Message('note_off', channel=7, note=70, velocity=78, time=1),
    Message('note_off', channel=7, note=65, velocity=64, time=1),
    Message('note_on', channel=7, note=46, velocity=67, time=6),
    Message('note_on', channel=9, note=36, velocity=125, time=1),
    Message('note_on', channel=9, note=51, velocity=119, time=0),
    Message('note_off', channel=9, note=51, velocity=119, time=1),
    Message('note_off', channel=9, note=36, velocity=125, time=0),
    Message('note_on', channel=1, note=34, velocity=105, time=1),
    Message('note_on', channel=3, note=75, velocity=84, time=0),
    Message('note_on', channel=7, note=62, velocity=67, time=0),
    Message('note_on', channel=2, note=58, velocity=62, time=1),
    Message('note_on', channel=2, note=50, velocity=58, time=0),
    Message('note_on', channel=2, note=53, velocity=49, time=0),
    Message('note_on', channel=7, note=65, velocity=76, time=0),
    Message('note_on', channel=7, note=70, velocity=80, time=2),
    Message('control_change', channel=2, control=64, value=127, time=4),
    Message('note_off', channel=3, note=72, velocity=85, time=6),
    Message('note_on', channel=3, note=74, velocity=93, time=12),
    Message('note_off', channel=3, note=75, velocity=84, time=12),
    Message('note_off', channel=7, note=62, velocity=67, time=3),
    Message('note_off', channel=7, note=65, velocity=76, time=1),
    Message('note_off', channel=2, note=53, velocity=49, time=4),
    Message('note_off', channel=7, note=70, velocity=80, time=0),
    Message('note_on', channel=7, note=62, velocity=33, time=1),
    Message('note_on', channel=9, note=51, velocity=116, time=0),
    Message('note_off', channel=2, note=58, velocity=62, time=1),
    Message('note_off', channel=9, note=51, velocity=116, time=0),
    Message('note_on', channel=3, note=72, velocity=93, time=1),
    Message('note_on', channel=7, note=65, velocity=64, time=0),
    Message('note_on', channel=7, note=70, velocity=76, time=0),
    Message('note_off', channel=3, note=74, velocity=93, time=3),
    Message('note_off', channel=1, note=34, velocity=105, time=5),
    Message('note_off', channel=2, note=50, velocity=58, time=0),
    Message('note_off', channel=7, note=46, velocity=67, time=11),
    Message('note_on', channel=9, note=36, velocity=102, time=3),
    Message('note_off', channel=9, note=36, velocity=102, time=1),
    Message('note_on', channel=3, note=70, velocity=92, time=1),
    Message('note_on', channel=1, note=34, velocity=87, time=1),
    Message('note_off', channel=3, note=72, velocity=93, time=2),
    Message('note_off', channel=1, note=34, velocity=87, time=4),
    Message('control_change', channel=2, control=64, value=0, time=4),
    Message('note_off', channel=7, note=62, velocity=33, time=5),
    Message('note_off', channel=7, note=70, velocity=76, time=3),
    Message('note_off', channel=7, note=65, velocity=64, time=0),
    Message('note_on', channel=7, note=62, velocity=33, time=3),
    Message('note_on', channel=9, note=40, velocity=127, time=0),
    Message('note_on', channel=9, note=51, velocity=119, time=1),
    Message('note_off', channel=9, note=40, velocity=127, time=0),
    Message('note_on', channel=1, note=34, velocity=98, time=1),
    Message('note_on', channel=3, note=72, velocity=92, time=0),
    Message('note_on', channel=7, note=65, velocity=64, time=0),
    Message('note_on', channel=7, note=70, velocity=76, time=0),
    Message('note_off', channel=9, note=51, velocity=119, time=0),
    Message('note_on', channel=2, note=58, velocity=71, time=1),
    Message('note_on', channel=2, note=50, velocity=49, time=0),
    Message('note_on', channel=2, note=53, velocity=59, time=0),
    Message('note_off', channel=3, note=70, velocity=92, time=5),
    Message('control_change', channel=2, control=64, value=127, time=1),
    Message('note_off', channel=7, note=62, velocity=33, time=8),
    Message('note_off', channel=7, note=70, velocity=76, time=4),
    Message('note_off', channel=7, note=65, velocity=64, time=0),
    Message('note_on', channel=7, note=70, velocity=92, time=4),
    Message('note_on', channel=3, note=74, velocity=97, time=1),
    Message('note_on', channel=7, note=65, velocity=81, time=0),
    Message('note_on', channel=7, note=62, velocity=71, time=1),
    Message('note_off', channel=3, note=72, velocity=92, time=8),
    Message('note_off', channel=1, note=34, velocity=98, time=9),
    Message('note_off', channel=2, note=50, velocity=49, time=2),
    Message('note_on', channel=1, note=26, velocity=98, time=3),
    Message('note_on', channel=9, note=51, velocity=119, time=0),
    Message('note_off', channel=9, note=51, velocity=119, time=1),
    Message('note_off', channel=2, note=53, velocity=59, time=4),
    Message('note_off', channel=2, note=58, velocity=71, time=1),
    Message('note_off', channel=7, note=62, velocity=71, time=9),
    Message('note_off', channel=7, note=65, velocity=81, time=7),
    Message('note_off', channel=7, note=70, velocity=92, time=0),
    Message('note_on', channel=7, note=70, velocity=82, time=1),
    Message('note_on', channel=7, note=65, velocity=71, time=1),
    Message('note_on', channel=7, note=62, velocity=68, time=1),
    Message('control_change', channel=2, control=64, value=0, time=7),
    Message('note_off', channel=7, note=62, velocity=68, time=9),
    Message('note_on', channel=5, note=75, velocity=74, time=2),
    Message('note_on', channel=5, note=67, velocity=93, time=0),
    Message('note_off', channel=5, note=65, velocity=74, time=1),
    Message('note_off', channel=1, note=26, velocity=98, time=1),
    Message('note_off', channel=7, note=70, velocity=82, time=0),
    Message('note_off', channel=5, note=74, velocity=85, time=1),
    Message('note_off', channel=7, note=65, velocity=71, time=0),
    Message('note_on', channel=7, note=51, velocity=67, time=0),
    Message('note_on', channel=9, note=36, velocity=127, time=2),
    Message('note_on', channel=9, note=49, velocity=116, time=0),
    Message('note_on', channel=1, note=27, velocity=100, time=1),
    Message('note_on', channel=2, note=51, velocity=54, time=0),
    Message('note_on', channel=2, note=55, velocity=58, time=0),
    Message('note_on', channel=2, note=58, velocity=59, time=0),
    Message('note_on', channel=7, note=63, velocity=67, time=0),
    Message('note_off', channel=9, note=49, velocity=116, time=0),
    Message('note_off', channel=9, note=36, velocity=127, time=0),
    Message('note_on', channel=3, note=70, velocity=74, time=1),
    Message('note_on', channel=7, note=67, velocity=76, time=0),
    Message('note_on', channel=7, note=70, velocity=64, time=2),
    Message('control_change', channel=2, control=64, value=127, time=1),
    Message('note_off', channel=3, note=74, velocity=97, time=4),
    Message('note_off', channel=2, note=55, velocity=58, time=32),
    Message('note_off', channel=7, note=63, velocity=67, time=0),
    Message('note_off', channel=7, note=67, velocity=76, time=1),
    Message('note_off', channel=2, note=58, velocity=59, time=2),
    Message('note_off', channel=7, note=70, velocity=64, time=2),
    Message('note_off', channel=2, note=51, velocity=54, time=1),
    Message('note_on', channel=7, note=63, velocity=76, time=0),
    Message('note_on', channel=9, note=51, velocity=107, time=0),
    Message('note_off', channel=9, note=51, velocity=107, time=1),
    Message('note_on', channel=3, note=82, velocity=101, time=1),
    Message('note_on', channel=7, note=67, velocity=85, time=0),
    Message('note_on', channel=7, note=70, velocity=82, time=0),
    Message('note_off', channel=3, note=70, velocity=74, time=7),
    Message('note_off', channel=1, note=27, velocity=100, time=3),
    Message('control_change', channel=2, control=64, value=0, time=13),
    Message('note_on', channel=1, note=27, velocity=62, time=2),
    Message('note_off', channel=1, note=27, velocity=62, time=5),
    Message('control_change', channel=2, control=64, value=127, time=11),
    Message('note_off', channel=7, note=70, velocity=82, time=2),
    Message('note_off', channel=7, note=67, velocity=85, time=0),
    Message('note_off', channel=7, note=63, velocity=76, time=2),
    Message('note_on', channel=7, note=63, velocity=57, time=1),
    Message('note_on', channel=9, note=55, velocity=110, time=1),
    Message('note_on', channel=9, note=40, velocity=122, time=0),
    Message('note_on', channel=3, note=70, velocity=84, time=1),
    Message('note_on', channel=7, note=67, velocity=71, time=0),
    Message('note_on', channel=7, note=70, velocity=73, time=0),
    Message('note_off', channel=9, note=40, velocity=122, time=0),
    Message('note_off', channel=9, note=55, velocity=110, time=0),
    Message('note_on', channel=1, note=27, velocity=119, time=1),
    Message('note_on', channel=2, note=51, velocity=51, time=0),
    Message('note_on', channel=2, note=55, velocity=57, time=0),
    Message('note_on', channel=2, note=58, velocity=57, time=0),
    Message('note_off', channel=3, note=82, velocity=101, time=0),
    Message('note_off', channel=7, note=63, velocity=57, time=16),
    Message('note_off', channel=7, note=70, velocity=73, time=1),
    Message('note_off', channel=7, note=67, velocity=71, time=1),
    Message('note_on', channel=7, note=63, velocity=84, time=4),
    Message('note_on', channel=7, note=67, velocity=85, time=1),
    Message('note_on', channel=3, note=72, velocity=93, time=1),
    Message('note_on', channel=7, note=70, velocity=76, time=0),
    Message('note_off', channel=3, note=70, velocity=84, time=4),
    Message('note_off', channel=2, note=58, velocity=57, time=14),
    Message('note_off', channel=1, note=27, velocity=119, time=1),
    Message('note_off', channel=2, note=55, velocity=57, time=0),
    Message('note_off', channel=2, note=51, velocity=51, time=2),
    Message('note_on', channel=1, note=39, velocity=110, time=2),
    Message('note_on', channel=9, note=51, velocity=93, time=0),
    Message('note_off', channel=9, note=51, velocity=93, time=1),
    Message('note_off', channel=7, note=51, velocity=67, time=4),
    Message('control_change', channel=2, control=64, value=0, time=9),
    Message('note_off', channel=7, note=70, velocity=76, time=6),
    Message('note_off', channel=7, note=67, velocity=85, time=0),
    Message('note_off', channel=7, note=63, velocity=84, time=0),
    Message('note_on', channel=7, note=70, velocity=63, time=2),
    Message('note_on', channel=7, note=67, velocity=66, time=1),
    Message('note_off', channel=3, note=72, velocity=93, time=1),
    Message('note_on', channel=3, note=70, velocity=81, time=0),
    Message('note_on', channel=7, note=63, velocity=64, time=0),
    Message('note_on', channel=9, note=36, velocity=72, time=0),
    Message('note_off', channel=9, note=36, velocity=72, time=1),
    Message('control_change', channel=2, control=64, value=127, time=10),
    Message('note_on', channel=5, note=65, velocity=74, time=5),
    Message('note_on', channel=5, note=74, velocity=87, time=2),
    Message('note_off', channel=7, note=70, velocity=63, time=1),
    Message('note_off', channel=7, note=63, velocity=64, time=2),
    Message('note_off', channel=7, note=67, velocity=66, time=0),
    Message('note_off', channel=5, note=75, velocity=74, time=1),
    Message('note_on', channel=7, note=50, velocity=75, time=0),
    Message('note_on', channel=7, note=58, velocity=68, time=0),
    Message('note_on', channel=9, note=51, velocity=119, time=1),
    Message('note_off', channel=1, note=39, velocity=110, time=1),
    Message('note_on', channel=1, note=38, velocity=89, time=0),
    Message('note_on', channel=7, note=65, velocity=79, time=0),
    Message('note_on', channel=7, note=70, velocity=82, time=0),
    Message('note_on', channel=9, note=36, velocity=127, time=0),
    Message('note_off', channel=9, note=51, velocity=119, time=0),
    Message('note_on', channel=2, note=53, velocity=50, time=1),
    Message('note_on', channel=2, note=50, velocity=39, time=0),
    Message('note_on', channel=2, note=58, velocity=58, time=0),
    Message('note_off', channel=9, note=36, velocity=127, time=0),
    Message('note_off', channel=5, note=67, velocity=93, time=1),
    Message('note_off', channel=7, note=58, velocity=68, time=28),
    Message('note_off', channel=7, note=70, velocity=82, time=13),
    Message('note_off', channel=7, note=65, velocity=79, time=0),
    Message('note_on', channel=7, note=58, velocity=61, time=4),
    Message('note_on', channel=9, note=51, velocity=116, time=0),
    Message('note_on', channel=7, note=65, velocity=74, time=1),
    Message('note_off', channel=9, note=51, velocity=116, time=0),
    Message('note_on', channel=7, note=70, velocity=52, time=1),
    Message('note_off', channel=2, note=53, velocity=50, time=3),
    Message('note_off', channel=2, note=58, velocity=58, time=1),
    Message('note_off', channel=1, note=38, velocity=89, time=1),
    Message('note_off', channel=7, note=50, velocity=75, time=5),
    Message('note_off', channel=2, note=50, velocity=39, time=1),
    Message('note_off', channel=7, note=58, velocity=61, time=0),
    Message('note_off', channel=7, note=70, velocity=52, time=6),
    Message('note_off', channel=7, note=65, velocity=74, time=2),
    Message('note_on', channel=7, note=50, velocity=75, time=2),
    Message('note_on', channel=7, note=70, velocity=82, time=0),
    Message('note_on', channel=9, note=36, velocity=107, time=0),
    Message('note_on', channel=7, note=65, velocity=74, time=1),
    Message('note_off', channel=9, note=36, velocity=107, time=0),
    Message('note_on', channel=1, note=38, velocity=59, time=1),
    Message('note_on', channel=7, note=58, velocity=78, time=0),
    Message('note_off', channel=1, note=38, velocity=59, time=7),
    Message('note_off', channel=7, note=58, velocity=78, time=15),
    Message('note_off', channel=7, note=65, velocity=74, time=0),
    Message('note_off', channel=7, note=70, velocity=82, time=0),
    Message('note_on', channel=9, note=51, velocity=119, time=0),
    Message('note_on', channel=9, note=40, velocity=127, time=1),
    Message('note_off', channel=9, note=51, velocity=119, time=0),
    Message('note_on', channel=2, note=58, velocity=63, time=1),
    Message('note_off', channel=9, note=40, velocity=127, time=0),
    Message('note_on', channel=1, note=38, velocity=107, time=1),
    Message('note_on', channel=2, note=53, velocity=55, time=0),
    Message('note_on', channel=2, note=50, velocity=51, time=0),
    Message('note_on', channel=7, note=70, velocity=94, time=20),
    Message('note_on', channel=7, note=65, velocity=71, time=1),
    Message('note_on', channel=7, note=58, velocity=60, time=1),
    Message('note_off', channel=3, note=70, velocity=81, time=6),
    Message('note_off', channel=7, note=58, velocity=60, time=12),
    Message('note_off', channel=7, note=65, velocity=71, time=0),
    Message('note_off', channel=7, note=70, velocity=94, time=2),
    Message('note_on', channel=7, note=58, velocity=33, time=3),
    Message('note_on', channel=9, note=51, velocity=119, time=1),
    Message('note_on', channel=3, note=70, velocity=99, time=1),
    Message('note_on', channel=7, note=65, velocity=64, time=0),
    Message('note_on', channel=7, note=70, velocity=59, time=0),
    Message('note_off', channel=9, note=51, velocity=119, time=0),
    Message('note_off', channel=7, note=50, velocity=75, time=11),
    Message('note_off', channel=7, note=70, velocity=59, time=8),
    Message('note_off', channel=7, note=65, velocity=64, time=0),
    Message('note_off', channel=7, note=58, velocity=33, time=2),
    Message('note_on', channel=7, note=70, velocity=70, time=2),
    Message('note_off', channel=2, note=50, velocity=51, time=1),
    Message('note_off', channel=2, note=53, velocity=55, time=0),
    Message('note_on', channel=3, note=67, velocity=91, time=0),
    Message('note_on', channel=7, note=65, velocity=69, time=0),
    Message('note_off', channel=3, note=70, velocity=99, time=1),
    Message('note_on', channel=7, note=58, velocity=59, time=0),
    Message('note_off', channel=2, note=58, velocity=63, time=2),
    Message('note_off', channel=7, note=70, velocity=70, time=11),
    Message('note_off', channel=1, note=38, velocity=107, time=2),
    Message('note_off', channel=7, note=65, velocity=69, time=1),
    Message('note_on', channel=4, note=60, velocity=78, time=3),
    Message('note_on', channel=5, note=72, velocity=93, time=0),
    Message('note_on', channel=5, note=64, velocity=72, time=0),
    Message('note_off', channel=7, note=58, velocity=59, time=0),
    Message('note_off', channel=4, note=58, velocity=72, time=1),
    Message('note_on', channel=7, note=48, velocity=67, time=0),
    Message('note_off', channel=5, note=74, velocity=87, time=1),
    Message('note_on', channel=9, note=36, velocity=127, time=1),
    Message('note_on', channel=9, note=49, velocity=127, time=0),
    Message('note_on', channel=2, note=58, velocity=67, time=1),
    Message('control_change', channel=2, control=64, value=0, time=0),
    Message('note_on', channel=2, note=52, velocity=60, time=0),
    Message('note_on', channel=3, note=74, velocity=109, time=0),
    Message('note_off', channel=5, note=65, velocity=74, time=0),
    Message('note_on', channel=7, note=64, velocity=67, time=0),
    Message('note_off', channel=9, note=49, velocity=127, time=0),
    Message('note_off', channel=9, note=36, velocity=127, time=0),
    Message('note_on', channel=1, note=36, velocity=87, time=1),
    Message('note_on', channel=2, note=48, velocity=56, time=0),
    Message('note_on', channel=7, note=67, velocity=76, time=0),
    Message('note_on', channel=7, note=70, velocity=80, time=2),
    Message('note_off', channel=3, note=67, velocity=91, time=7),
    Message('control_change', channel=2, control=64, value=127, time=12),
    Message('note_on', channel=3, note=70, velocity=83, time=2),
    Message('note_off', channel=2, note=52, velocity=60, time=13),
    Message('note_off', channel=7, note=67, velocity=76, time=4),
    Message('note_off', channel=7, note=64, velocity=67, time=0),
    Message('note_off', channel=2, note=48, velocity=56, time=2),
    Message('note_off', channel=2, note=58, velocity=67, time=1),
    Message('note_off', channel=7, note=70, velocity=80, time=1),
    Message('note_on', channel=7, note=64, velocity=58, time=1),
    Message('note_off', channel=3, note=74, velocity=109, time=1),
    Message('note_on', channel=7, note=67, velocity=64, time=1),
    Message('note_on', channel=7, note=70, velocity=76, time=0),
    Message('note_on', channel=9, note=51, velocity=95, time=0),
    Message('note_on', channel=3, note=72, velocity=93, time=1),
    Message('note_off', channel=9, note=51, velocity=95, time=0),
    Message('note_off', channel=3, note=70, velocity=83, time=2),
    Message('note_off', channel=1, note=36, velocity=87, time=4),
    Message('note_off', channel=7, note=48, velocity=67, time=12),
    Message('note_on', channel=9, note=36, velocity=107, time=4),
    Message('note_on', channel=1, note=36, velocity=58, time=1),
    Message('note_off', channel=9, note=36, velocity=107, time=0),
    Message('note_off', channel=1, note=36, velocity=58, time=8),
    Message('note_off', channel=7, note=64, velocity=58, time=9),
    Message('note_off', channel=7, note=70, velocity=76, time=2),
    Message('note_off', channel=7, note=67, velocity=64, time=0),
    Message('note_on', channel=7, note=48, velocity=48, time=2),
    Message('note_on', channel=7, note=64, velocity=65, time=1),
    Message('note_on', channel=1, note=36, velocity=85, time=2),
    Message('note_on', channel=7, note=67, velocity=72, time=0),
    Message('note_on', channel=7, note=70, velocity=69, time=0),
    Message('note_on', channel=9, note=40, velocity=127, time=0),
    Message('note_on', channel=9, note=51, velocity=122, time=0),
    Message('note_on', channel=2, note=52, velocity=56, time=1),
    Message('note_on', channel=2, note=58, velocity=71, time=0),
    Message('control_change', channel=6, control=11, value=0, time=0),
    Message('note_off', channel=9, note=51, velocity=122, time=0),
    Message('note_off', channel=9, note=40, velocity=127, time=0),
    Message('note_on', channel=2, note=48, velocity=52, time=1),
    Message('control_change', channel=2, control=64, value=0, time=5),
    Message('note_off', channel=7, note=70, velocity=69, time=12),
    Message('note_off', channel=7, note=67, velocity=72, time=0),
    Message('note_off', channel=3, note=72, velocity=93, time=2),
    Message('note_off', channel=7, note=64, velocity=65, time=0),
    Message('note_on', channel=7, note=70, velocity=58, time=2),
    Message('control_change', channel=2, control=64, value=127, time=1),
    Message('note_on', channel=3, note=74, velocity=96, time=0),
    Message('note_on', channel=7, note=67, velocity=47, time=0),
    Message('note_on', channel=7, note=64, velocity=52, time=1),
    Message('note_off', channel=3, note=74, velocity=96, time=11),
    Message('note_off', channel=2, note=52, velocity=56, time=2),
    Message('note_off', channel=7, note=70, velocity=58, time=2),
    Message('note_off', channel=7, note=67, velocity=47, time=1),
    Message('note_off', channel=2, note=48, velocity=52, time=1),
    Message('note_on', channel=3, note=72, velocity=82, time=1),
    Message('note_off', channel=7, note=64, velocity=52, time=0),
    Message('note_off', channel=2, note=58, velocity=71, time=1),
    Message('note_off', channel=1, note=36, velocity=85, time=2),
    Message('note_on', channel=7, note=64, velocity=56, time=0),
    Message('note_on', channel=7, note=67, velocity=58, time=1),
    Message('note_on', channel=1, note=34, velocity=68, time=1),
    Message('note_on', channel=7, note=70, velocity=70, time=0),
    Message('note_on', channel=9, note=51, velocity=102, time=0),
    Message('note_on', channel=3, note=70, velocity=78, time=1),
    Message('note_off', channel=9, note=51, velocity=102, time=0),
    Message('note_off', channel=3, note=72, velocity=82, time=11),
    Message('note_off', channel=7, note=48, velocity=48, time=7),
    Message('note_off', channel=7, note=64, velocity=56, time=1),
    Message('note_off', channel=7, note=67, velocity=58, time=1),
    Message('note_off', channel=7, note=70, velocity=70, time=1),
    Message('note_on', channel=7, note=70, velocity=80, time=0),
    Message('note_on', channel=7, note=67, velocity=73, time=1),
    Message('note_off', channel=1, note=34, velocity=68, time=1),
    Message('note_on', channel=1, note=36, velocity=54, time=0),
    Message('note_on', channel=7, note=64, velocity=86, time=0),
    Message('note_on', channel=9, note=36, velocity=107, time=1),
    Message('note_off', channel=9, note=36, velocity=107, time=1),
    Message('note_off', channel=1, note=36, velocity=54, time=8),
    Message('note_on', channel=6, note=82, velocity=127, time=13),
    Message('note_on', channel=1, note=36, velocity=91, time=1),
    Message('note_on', channel=6, note=70, velocity=127, time=0),
    Message('note_on', channel=2, note=48, velocity=61, time=1),
    Message('note_on', channel=2, note=52, velocity=50, time=0),
    Message('note_on', channel=2, note=58, velocity=69, time=0),
    Message('note_on', channel=9, note=51, velocity=122, time=0),
    Message('note_on', channel=9, note=36, velocity=127, time=0),
    Message('note_off', channel=9, note=36, velocity=127, time=1),
    Message('note_off', channel=9, note=51, velocity=122, time=0),
    Message('control_change', channel=2, control=64, value=0, time=6),
    Message('note_off', channel=7, note=67, velocity=73, time=13),
    Message('note_off', channel=7, note=64, velocity=86, time=1),
    Message('note_off', channel=7, note=70, velocity=80, time=1),
    Message('note_on', channel=7, note=70, velocity=61, time=0),
    Message('note_on', channel=7, note=67, velocity=48, time=1),
    Message('note_on', channel=7, note=64, velocity=45, time=1),
    Message('note_on', channel=9, note=48, velocity=102, time=0),
    Message('note_off', channel=9, note=48, velocity=102, time=1),
    Message('control_change', channel=2, control=64, value=127, time=1),
    Message('control_change', channel=6, control=11, value=1, time=5),
    Message('control_change', channel=6, control=11, value=2, time=2),
    Message('note_off', channel=2, note=52, velocity=50, time=1),
    Message('control_change', channel=6, control=11, value=3, time=1),
    Message('control_change', channel=6, control=11, value=4, time=1),
    Message('note_off', channel=2, note=58, velocity=69, time=1),
    Message('control_change', channel=6, control=11, value=5, time=0),
    Message('control_change', channel=6, control=11, value=6, time=2),
    Message('note_off', channel=7, note=70, velocity=61, time=0),
    Message('note_off', channel=7, note=67, velocity=48, time=1),
    Message('control_change', channel=6, control=11, value=7, time=2),
    Message('note_off', channel=7, note=64, velocity=45, time=0),
    Message('note_off', channel=2, note=48, velocity=61, time=2),
    Message('control_change', channel=6, control=11, value=8, time=1),
    Message('note_on', channel=7, note=64, velocity=82, time=0),
    Message('note_on', channel=7, note=67, velocity=71, time=1),
    Message('control_change', channel=6, control=11, value=9, time=1),
    Message('note_on', channel=7, note=70, velocity=68, time=0),
    Message('note_on', channel=9, note=47, velocity=127, time=1),
    Message('control_change', channel=6, control=11, value=10, time=1),
    Message('control_change', channel=6, control=11, value=11, time=0),
    Message('note_off', channel=9, note=47, velocity=127, time=0),
    Message('note_off', channel=1, note=36, velocity=91, time=2),
    Message('control_change', channel=6, control=11, value=12, time=0),
    Message('control_change', channel=6, control=11, value=13, time=2),
    Message('control_change', channel=6, control=11, value=14, time=2),
    Message('control_change', channel=6, control=11, value=15, time=1),
    Message('control_change', channel=6, control=11, value=16, time=2),
    Message('control_change', channel=6, control=11, value=17, time=2),
    Message('control_change', channel=6, control=11, value=18, time=1),
    Message('control_change', channel=6, control=11, value=19, time=2),
    Message('control_change', channel=6, control=11, value=20, time=2),
    Message('control_change', channel=6, control=11, value=21, time=2),
    Message('note_off', channel=7, note=70, velocity=68, time=0),
    Message('note_off', channel=7, note=67, velocity=71, time=1),
    Message('pitchwheel', channel=6, pitch=0, time=1),
    Message('control_change', channel=6, control=11, value=22, time=0),
    Message('note_on', channel=7, note=70, velocity=82, time=0),
    Message('note_on', channel=1, note=36, velocity=55, time=1),
    Message('control_change', channel=6, control=11, value=23, time=0),
    Message('pitchwheel', channel=6, pitch=260, time=0),
    Message('note_on', channel=7, note=67, velocity=82, time=0),
    Message('note_off', channel=7, note=64, velocity=82, time=1),
    Message('note_on', channel=7, note=64, velocity=84, time=0),
    Message('pitchwheel', channel=6, pitch=390, time=1),
    Message('note_on', channel=9, note=36, velocity=127, time=0),
    Message('note_off', channel=9, note=36, velocity=127, time=1),
    Message('control_change', channel=6, control=11, value=24, time=1),
    Message('control_change', channel=6, control=11, value=25, time=2),
    Message('note_off', channel=1, note=36, velocity=55, time=2),
    Message('pitchwheel', channel=6, pitch=520, time=0),
    Message('control_change', channel=6, control=11, value=26, time=0),
    Message('pitchwheel', channel=6, pitch=650, time=1),
    Message('control_change', channel=6, control=11, value=27, time=0),
    Message('control_change', channel=6, control=11, value=28, time=1),
    Message('pitchwheel', channel=6, pitch=780, time=1),
    Message('control_change', channel=6, control=11, value=29, time=0),
    Message('control_change', channel=6, control=11, value=30, time=2),
    Message('pitchwheel', channel=6, pitch=910, time=0),
    Message('control_change', channel=6, control=11, value=31, time=1),
    Message('control_change', channel=6, control=11, value=32, time=1),
    Message('pitchwheel', channel=6, pitch=1040, time=1),
    Message('control_change', channel=6, control=11, value=33, time=1),
    Message('control_change', channel=6, control=11, value=34, time=1),
    Message('control_change', channel=6, control=11, value=35, time=1),
    Message('pitchwheel', channel=6, pitch=1170, time=1),
    Message('control_change', channel=6, control=11, value=36, time=0),
    Message('control_change', channel=6, control=11, value=37, time=1),
    Message('control_change', channel=6, control=11, value=38, time=1),
    Message('control_change', channel=6, control=11, value=39, time=1),
    Message('note_on', channel=1, note=36, velocity=93, time=2),
    Message('note_on', channel=2, note=58, velocity=76, time=0),
    Message('control_change', channel=6, control=11, value=40, time=0),
    Message('note_on', channel=2, note=48, velocity=57, time=1),
    Message('note_on', channel=2, note=52, velocity=48, time=0),
    Message('control_change', channel=6, control=11, value=41, time=0),
    Message('note_on', channel=9, note=47, velocity=119, time=0),
    Message('note_on', channel=9, note=45, velocity=106, time=0),
    Message('pitchwheel', channel=6, pitch=1300, time=1),
    Message('note_off', channel=9, note=45, velocity=106, time=0),
    Message('note_off', channel=9, note=47, velocity=119, time=0),
    Message('control_change', channel=6, control=11, value=42, time=1),
    Message('pitchwheel', channel=6, pitch=1430, time=0),
    Message('note_off', channel=3, note=70, velocity=78, time=1),
    Message('control_change', channel=6, control=11, value=43, time=0),
    Message('control_change', channel=6, control=11, value=44, time=2),
    Message('pitchwheel', channel=6, pitch=1560, time=0),
    Message('control_change', channel=6, control=11, value=45, time=2),
    Message('control_change', channel=2, control=64, value=0, time=1),
    Message('control_change', channel=6, control=11, value=46, time=0),
    Message('control_change', channel=6, control=11, value=47, time=1),
    Message('pitchwheel', channel=6, pitch=1690, time=1),
    Message('control_change', channel=6, control=11, value=48, time=0),
    Message('control_change', channel=6, control=11, value=49, time=1),
    Message('control_change', channel=6, control=11, value=50, time=1),
    Message('control_change', channel=6, control=11, value=51, time=1),
    Message('control_change', channel=6, control=11, value=52, time=1),
    Message('pitchwheel', channel=6, pitch=1820, time=1),
    Message('control_change', channel=6, control=11, value=53, time=0),
    Message('control_change', channel=6, control=11, value=54, time=1),
    Message('note_off', channel=7, note=67, velocity=82, time=0),
    Message('note_off', channel=7, note=70, velocity=82, time=0),
    Message('control_change', channel=6, control=11, value=55, time=1),
    Message('pitchwheel', channel=6, pitch=1950, time=1),
    Message('note_off', channel=7, note=64, velocity=84, time=0),
    Message('control_change', channel=6, control=11, value=56, time=1),
    Message('control_change', channel=6, control=11, value=57, time=1),
    Message('pitchwheel', channel=6, pitch=2080, time=0),
    Message('control_change', channel=6, control=11, value=58, time=1),
    Message('pitchwheel', channel=6, pitch=2210, time=1),
    Message('note_on', channel=7, note=70, velocity=59, time=0),
    Message('control_change', channel=6, control=11, value=59, time=1),
    Message('note_on', channel=7, note=67, velocity=48, time=0),
    Message('control_change', channel=6, control=11, value=60, time=1),
    Message('pitchwheel', channel=6, pitch=2340, time=0),
    Message('note_on', channel=7, note=64, velocity=45, time=0),
    Message('note_on', channel=9, note=36, velocity=127, time=0),
    Message('control_change', channel=2, control=64, value=127, time=1),
    Message('note_off', channel=9, note=36, velocity=127, time=0),
    Message('control_change', channel=6, control=11, value=61, time=1),
    Message('pitchwheel', channel=6, pitch=2470, time=1),
    Message('control_change', channel=6, control=11, value=62, time=1),
    Message('pitchwheel', channel=6, pitch=2600, time=2),
    Message('control_change', channel=6, control=11, value=63, time=0),
    Message('control_change', channel=6, control=11, value=64, time=2),
    Message('pitchwheel', channel=6, pitch=2730, time=2),
    Message('control_change', channel=6, control=11, value=65, time=0),
    Message('control_change', channel=6, control=11, value=66, time=0),
    Message('note_off', channel=2, note=52, velocity=48, time=1),
    Message('pitchwheel', channel=6, pitch=2860, time=1),
    Message('control_change', channel=6, control=11, value=67, time=0),
    Message('pitchwheel', channel=6, pitch=3120, time=1),
    Message('control_change', channel=6, control=11, value=68, time=1),
    Message('pitchwheel', channel=6, pitch=3250, time=0),
    Message('note_off', channel=2, note=48, velocity=57, time=1),
    Message('control_change', channel=6, control=11, value=69, time=0),
    Message('note_off', channel=7, note=70, velocity=59, time=0),
    Message('pitchwheel', channel=6, pitch=3380, time=1),
    Message('control_change', channel=6, control=11, value=70, time=0),
    Message('note_off', channel=7, note=67, velocity=48, time=0),
    Message('pitchwheel', channel=6, pitch=3510, time=1),
    Message('control_change', channel=6, control=11, value=71, time=0),
    Message('note_off', channel=1, note=36, velocity=93, time=1),
    Message('control_change', channel=6, control=11, value=72, time=0),
    Message('note_off', channel=7, note=64, velocity=45, time=0),
    Message('pitchwheel', channel=6, pitch=3640, time=1),
    Message('control_change', channel=6, control=11, value=73, time=0),
    Message('pitchwheel', channel=6, pitch=3770, time=1),
    Message('note_off', channel=2, note=58, velocity=76, time=1),
    Message('control_change', channel=6, control=11, value=74, time=0),
    Message('note_on', channel=7, note=64, velocity=82, time=0),
    Message('note_on', channel=1, note=24, velocity=102, time=1),
    Message('pitchwheel', channel=6, pitch=3900, time=0),
    Message('control_change', channel=6, control=11, value=75, time=0),
    Message('note_on', channel=7, note=67, velocity=71, time=0),
    Message('control_change', channel=6, control=11, value=76, time=1),
    Message('note_on', channel=7, note=70, velocity=68, time=0),
    Message('control_change', channel=6, control=11, value=77, time=1),
    Message('note_on', channel=9, note=43, velocity=127, time=0),
    Message('control_change', channel=6, control=11, value=78, time=1),
    Message('note_off', channel=9, note=43, velocity=127, time=0),
    Message('pitchwheel', channel=6, pitch=4030, time=1),
    Message('control_change', channel=6, control=11, value=79, time=0),
    Message('control_change', channel=6, control=11, value=80, time=2),
    Message('pitchwheel', channel=6, pitch=4160, time=0),
    Message('control_change', channel=6, control=11, value=81, time=1),
    Message('control_change', channel=6, control=11, value=82, time=1),
    Message('pitchwheel', channel=6, pitch=4290, time=0),
    Message('pitchwheel', channel=6, pitch=4420, time=1),
    Message('control_change', channel=6, control=11, value=83, time=0),
    Message('pitchwheel', channel=6, pitch=4550, time=1),
    Message('control_change', channel=6, control=11, value=84, time=0),
    Message('pitchwheel', channel=6, pitch=4680, time=1),
    Message('control_change', channel=6, control=11, value=85, time=1),
    Message('pitchwheel', channel=6, pitch=4810, time=0),
    Message('control_change', channel=6, control=11, value=86, time=1),
    Message('control_change', channel=6, control=11, value=87, time=1),
    Message('pitchwheel', channel=6, pitch=4940, time=0),
    Message('control_change', channel=6, control=11, value=88, time=1),
    Message('note_off', channel=7, note=64, velocity=82, time=0),
    Message('control_change', channel=6, control=11, value=89, time=1),
    Message('pitchwheel', channel=6, pitch=5070, time=0),
    Message('control_change', channel=6, control=11, value=90, time=2),
    Message('pitchwheel', channel=6, pitch=5200, time=0),
    Message('control_change', channel=6, control=11, value=91, time=1),
    Message('control_change', channel=6, control=11, value=92, time=1),
    Message('pitchwheel', channel=6, pitch=5330, time=0),
    Message('pitchwheel', channel=6, pitch=5460, time=1),
    Message('note_off', channel=7, note=70, velocity=68, time=0),
    Message('pitchwheel', channel=6, pitch=5590, time=1),
    Message('control_change', channel=6, control=11, value=93, time=0),
    Message('note_off', channel=7, note=67, velocity=71, time=0),
    Message('pitchwheel', channel=6, pitch=5720, time=1),
    Message('note_on', channel=7, note=70, velocity=82, time=0),
    Message('note_on', channel=1, note=26, velocity=87, time=1),
    Message('pitchwheel', channel=6, pitch=5850, time=0),
    Message('control_change', channel=6, control=11, value=94, time=0),
    Message('note_on', channel=7, note=67, velocity=71, time=0),
    Message('pitchwheel', channel=6, pitch=5980, time=1),
    Message('control_change', channel=6, control=11, value=95, time=0),
    Message('note_on', channel=7, note=64, velocity=68, time=0),
    Message('pitchwheel', channel=6, pitch=6110, time=1),
    Message('note_on', channel=9, note=36, velocity=113, time=0),
    Message('note_on', channel=9, note=40, velocity=127, time=0),
    Message('note_off', channel=1, note=24, velocity=102, time=1),
    Message('control_change', channel=6, control=11, value=96, time=0),
    Message('note_off', channel=9, note=40, velocity=127, time=0),
    Message('note_off', channel=9, note=36, velocity=113, time=0),
    Message('pitchwheel', channel=6, pitch=6240, time=1),
    Message('control_change', channel=6, control=11, value=97, time=1),
    Message('pitchwheel', channel=6, pitch=6370, time=0),
    Message('control_change', channel=6, control=11, value=98, time=1),
    Message('control_change', channel=6, control=11, value=99, time=1),
    Message('pitchwheel', channel=6, pitch=6500, time=0),
    Message('control_change', channel=6, control=11, value=100, time=1),
    Message('pitchwheel', channel=6, pitch=6630, time=1),
    Message('control_change', channel=6, control=11, value=101, time=1),
    Message('pitchwheel', channel=6, pitch=6760, time=0),
    Message('note_off', channel=4, note=60, velocity=78, time=1),
    Message('control_change', channel=6, control=11, value=102, time=0),
    Message('pitchwheel', channel=6, pitch=6890, time=0),
    Message('control_change', channel=6, control=11, value=103, time=1),
    Message('pitchwheel', channel=6, pitch=7020, time=1),
    Message('control_change', channel=6, control=11, value=104, time=1),
    Message('pitchwheel', channel=6, pitch=7150, time=1),
    Message('control_change', channel=6, control=11, value=105, time=0),
    Message('control_change', channel=6, control=11, value=106, time=1),
    Message('pitchwheel', channel=6, pitch=7280, time=1),
    Message('control_change', channel=6, control=11, value=107, time=0),
    Message('note_off', channel=7, note=70, velocity=82, time=1),
    Message('control_change', channel=6, control=11, value=108, time=1),
    Message('pitchwheel', channel=6, pitch=7410, time=0),
    Message('note_off', channel=1, note=26, velocity=87, time=1),
    Message('control_change', channel=6, control=11, value=109, time=0),
    Message('pitchwheel', channel=6, pitch=7540, time=0),
    Message('control_change', channel=6, control=11, value=110, time=1),
    Message('note_off', channel=7, note=64, velocity=68, time=0),
    Message('pitchwheel', channel=6, pitch=7670, time=1),
    Message('note_off', channel=7, note=67, velocity=71, time=0),
    Message('note_on', channel=4, note=58, velocity=74, time=1),
    Message('note_off', channel=5, note=72, velocity=93, time=0),
    Message('note_on', channel=5, note=75, velocity=80, time=0),
    Message('control_change', channel=6, control=11, value=111, time=0),
    Message('pitchwheel', channel=6, pitch=7800, time=0),
    Message('note_on', channel=7, note=51, velocity=80, time=0),
    Message('note_on', channel=5, note=65, velocity=107, time=1),
    Message('pitchwheel', channel=6, pitch=7930, time=0),
    Message('note_on', channel=7, note=63, velocity=75, time=0),
    Message('note_on', channel=7, note=67, velocity=87, time=0),
    Message('note_on', channel=1, note=27, velocity=116, time=1),
    Message('control_change', channel=6, control=11, value=112, time=0),
    Message('note_on', channel=2, note=51, velocity=59, time=1),
    Message('note_on', channel=2, note=55, velocity=70, time=0),
    Message('note_on', channel=2, note=58, velocity=62, time=0),
    Message('note_on', channel=3, note=75, velocity=102, time=0),
    Message('pitchwheel', channel=6, pitch=8060, time=0),
    Message('control_change', channel=6, control=11, value=113, time=0),
    Message('pitchwheel', channel=6, pitch=8190, time=0),
    Message('note_on', channel=7, note=70, velocity=76, time=0),
    Message('note_on', channel=9, note=51, velocity=122, time=0),
    Message('note_on', channel=9, note=36, velocity=127, time=0),
    Message('control_change', channel=6, control=11, value=114, time=1),
    Message('note_off', channel=9, note=36, velocity=127, time=0),
    Message('note_off', channel=9, note=51, velocity=122, time=0),
    Message('note_off', channel=5, note=64, velocity=72, time=1),
    Message('control_change', channel=6, control=11, value=115, time=0),
    Message('control_change', channel=6, control=11, value=116, time=1),
    Message('control_change', channel=6, control=11, value=117, time=1),
    Message('control_change', channel=6, control=11, value=118, time=2),
    Message('control_change', channel=6, control=11, value=119, time=1),
    Message('control_change', channel=6, control=11, value=120, time=1),
    Message('control_change', channel=2, control=64, value=0, time=2),
    Message('control_change', channel=6, control=11, value=121, time=0),
    Message('control_change', channel=6, control=11, value=122, time=1),
    Message('control_change', channel=6, control=11, value=123, time=2),
    Message('control_change', channel=6, control=11, value=124, time=1),
    Message('control_change', channel=6, control=11, value=125, time=2),
    Message('note_off', channel=7, note=70, velocity=76, time=1),
    Message('control_change', channel=6, control=11, value=126, time=2),
    Message('control_change', channel=6, control=11, value=127, time=2),
    Message('note_on', channel=3, note=74, velocity=100, time=3),
    Message('note_off', channel=3, note=75, velocity=102, time=1),
    Message('note_on', channel=5, note=67, velocity=91, time=0),
    Message('note_off', channel=5, note=65, velocity=107, time=1),
    Message('control_change', channel=2, control=64, value=127, time=4),
    Message('note_off', channel=7, note=51, velocity=80, time=4),
    Message('note_off', channel=7, note=67, velocity=87, time=4),
    Message('note_off', channel=7, note=63, velocity=75, time=0),
    Message('note_off', channel=2, note=58, velocity=62, time=5),
    Message('note_off', channel=2, note=55, velocity=70, time=1),
    Message('note_off', channel=2, note=51, velocity=59, time=2),
    Message('note_on', channel=7, note=63, velocity=59, time=0),
    Message('note_on', channel=7, note=67, velocity=74, time=0),
    Message('note_on', channel=9, note=51, velocity=127, time=1),
    Message('note_on', channel=3, note=75, velocity=91, time=1),
    Message('note_on', channel=7, note=70, velocity=52, time=0),
    Message('note_off', channel=9, note=51, velocity=127, time=0),
    Message('note_off', channel=1, note=27, velocity=116, time=5),
    Message('note_off', channel=3, note=74, velocity=100, time=2),
    Message('note_off', channel=7, note=70, velocity=52, time=10),
    Message('note_off', channel=7, note=67, velocity=74, time=1),
    Message('note_off', channel=7, note=63, velocity=59, time=1),
    Message('note_on', channel=7, note=70, velocity=72, time=2),
    Message('note_on', channel=7, note=67, velocity=71, time=1),
    Message('note_on', channel=1, note=27, velocity=82, time=1),
    Message('note_on', channel=7, note=63, velocity=68, time=0),
    Message('note_on', channel=9, note=36, velocity=113, time=0),
    Message('note_off', channel=9, note=36, velocity=113, time=1),
    Message('note_off', channel=1, note=27, velocity=82, time=22),
    Message('note_on', channel=9, note=40, velocity=127, time=1),
    Message('note_on', channel=1, note=39, velocity=113, time=1),
    Message('note_on', channel=2, note=55, velocity=54, time=0),
    Message('note_on', channel=2, note=58, velocity=54, time=0),
    Message('note_on', channel=2, note=51, velocity=46, time=0),
    Message('note_on', channel=9, note=51, velocity=127, time=0),
    Message('note_off', channel=9, note=40, velocity=127, time=0),
    Message('note_off', channel=9, note=51, velocity=127, time=1),
    Message('control_change', channel=2, control=64, value=0, time=7),
    Message('note_off', channel=7, note=70, velocity=72, time=8),
    Message('note_off', channel=7, note=67, velocity=71, time=1),
    Message('note_off', channel=7, note=63, velocity=68, time=2),
    Message('note_on', channel=7, note=70, velocity=81, time=1),
    Message('note_on', channel=7, note=67, velocity=71, time=1),
    Message('note_on', channel=7, note=63, velocity=60, time=1),
    Message('control_change', channel=2, control=64, value=127, time=5),
    Message('note_off', channel=7, note=63, velocity=60, time=13),
    Message('note_off', channel=7, note=67, velocity=71, time=0),
    Message('note_off', channel=7, note=70, velocity=81, time=2),
    Message('note_off', channel=2, note=58, velocity=54, time=1),
    Message('note_on', channel=7, note=63, velocity=33, time=2),
    Message('note_off', channel=1, note=39, velocity=113, time=2),
    Message('note_on', channel=1, note=27, velocity=89, time=0),
    Message('note_on', channel=7, note=67, velocity=64, time=0),
    Message('note_on', channel=7, note=70, velocity=59, time=0),
    Message('note_on', channel=9, note=51, velocity=119, time=0),
    Message('note_off', channel=2, note=55, velocity=54, time=1),
    Message('note_off', channel=9, note=51, velocity=119, time=0),
    Message('note_off', channel=2, note=51, velocity=46, time=2),
    Message('control_change', channel=6, control=11, value=126, time=11),
    Message('control_change', channel=6, control=11, value=125, time=2),
    Message('note_off', channel=7, note=70, velocity=59, time=3),
    Message('note_off', channel=7, note=67, velocity=64, time=0),
    Message('control_change', channel=6, control=11, value=124, time=1),
    Message('note_off', channel=7, note=63, velocity=33, time=1),
    Message('control_change', channel=6, control=11, value=123, time=1),
    Message('note_on', channel=7, note=70, velocity=70, time=1),
    Message('note_on', channel=7, note=67, velocity=69, time=1),
    Message('note_on', channel=7, note=63, velocity=59, time=1),
    Message('control_change', channel=6, control=11, value=122, time=1),
    Message('note_on', channel=9, note=36, velocity=81, time=0),
    Message('note_off', channel=9, note=36, velocity=81, time=1),
    Message('control_change', channel=6, control=11, value=121, time=1),
    Message('control_change', channel=6, control=11, value=120, time=2),
    Message('control_change', channel=6, control=11, value=119, time=3),
    Message('control_change', channel=6, control=11, value=118, time=2),
    Message('control_change', channel=6, control=11, value=117, time=3),
    Message('note_off', channel=1, note=27, velocity=89, time=2),
    Message('note_off', channel=3, note=75, velocity=91, time=1),
    Message('control_change', channel=6, control=11, value=116, time=0),
    Message('control_change', channel=6, control=11, value=115, time=2),
    Message('note_off', channel=7, note=63, velocity=59, time=1),
    Message('control_change', channel=6, control=11, value=114, time=1),
    Message('note_off', channel=7, note=67, velocity=69, time=0),
    Message('note_off', channel=7, note=70, velocity=70, time=0),
    Message('control_change', channel=6, control=11, value=113, time=2),
    Message('note_on', channel=7, note=51, velocity=67, time=0),
    Message('note_on', channel=7, note=63, velocity=67, time=0),
    Message('note_on', channel=3, note=75, velocity=96, time=1),
    Message('note_on', channel=7, note=67, velocity=76, time=0),
    Message('note_on', channel=1, note=27, velocity=107, time=1),
    Message('note_on', channel=2, note=51, velocity=35, time=0),
    Message('note_on', channel=2, note=55, velocity=46, time=0),
    Message('note_on', channel=2, note=58, velocity=54, time=0),
    Message('note_on', channel=7, note=70, velocity=64, time=0),
    Message('note_on', channel=9, note=36, velocity=127, time=0),
    Message('note_on', channel=9, note=51, velocity=122, time=0),
    Message('control_change', channel=6, control=11, value=112, time=1),
    Message('note_off', channel=9, note=51, velocity=122, time=0),
    Message('note_off', channel=9, note=36, velocity=127, time=0),
    Message('control_change', channel=6, control=11, value=111, time=2),
    Message('control_change', channel=6, control=11, value=110, time=2),
    Message('control_change', channel=6, control=11, value=109, time=2),
    Message('control_change', channel=6, control=11, value=108, time=1),
    Message('control_change', channel=6, control=11, value=107, time=2),
    Message('control_change', channel=6, control=11, value=106, time=1),
    Message('control_change', channel=6, control=11, value=105, time=1),
    Message('control_change', channel=2, control=64, value=0, time=2),
    Message('control_change', channel=6, control=11, value=104, time=0),
    Message('control_change', channel=6, control=11, value=103, time=1),
    Message('control_change', channel=6, control=11, value=102, time=2),
    Message('note_off', channel=7, note=51, velocity=67, time=0),
    Message('control_change', channel=6, control=11, value=101, time=1),
    Message('control_change', channel=6, control=11, value=100, time=2),
    Message('control_change', channel=6, control=11, value=99, time=1),
    Message('note_off', channel=3, note=75, velocity=96, time=2),
    Message('note_on', channel=3, note=74, velocity=94, time=0),
    Message('control_change', channel=6, control=11, value=98, time=0),
    Message('control_change', channel=6, control=11, value=97, time=1),
    Message('control_change', channel=6, control=11, value=96, time=1),
    Message('control_change', channel=6, control=11, value=95, time=2),
    Message('control_change', channel=6, control=11, value=94, time=1),
    Message('control_change', channel=2, control=64, value=127, time=1),
    Message('control_change', channel=6, control=11, value=93, time=1),
    Message('control_change', channel=6, control=11, value=92, time=2),
    Message('control_change', channel=6, control=11, value=91, time=1),
    Message('control_change', channel=6, control=11, value=90, time=1),
    Message('control_change', channel=6, control=11, value=89, time=1),
    Message('control_change', channel=6, control=11, value=88, time=2),
    Message('control_change', channel=6, control=11, value=87, time=1),
    Message('control_change', channel=6, control=11, value=86, time=1),
    Message('note_off', channel=7, note=67, velocity=76, time=0),
    Message('note_off', channel=7, note=63, velocity=67, time=0),
    Message('note_off', channel=2, note=51, velocity=35, time=2),
    Message('control_change', channel=6, control=11, value=85, time=0),
    Message('control_change', channel=6, control=11, value=84, time=1),
    Message('note_off', channel=7, note=70, velocity=64, time=0),
    Message('note_off', channel=2, note=58, velocity=54, time=1),
    Message('note_off', channel=2, note=55, velocity=46, time=0),
    Message('control_change', channel=6, control=11, value=83, time=1),
    Message('note_on', channel=7, note=63, velocity=33, time=1),
    Message('control_change', channel=6, control=11, value=82, time=1),
    Message('note_on', channel=3, note=75, velocity=91, time=1),
    Message('control_change', channel=6, control=11, value=81, time=0),
    Message('note_on', channel=7, note=67, velocity=64, time=0),
    Message('note_on', channel=7, note=70, velocity=59, time=0),
    Message('note_on', channel=9, note=51, velocity=122, time=0),
    Message('control_change', channel=6, control=11, value=80, time=1),
    Message('note_off', channel=9, note=51, velocity=122, time=0),
    Message('note_off', channel=1, note=27, velocity=107, time=2),
    Message('control_change', channel=6, control=11, value=79, time=0),
    Message('control_change', channel=6, control=11, value=78, time=1),
    Message('note_off', channel=3, note=74, velocity=94, time=1),
    Message('control_change', channel=6, control=11, value=77, time=1),
    Message('control_change', channel=6, control=11, value=76, time=2),
    Message('control_change', channel=6, control=11, value=75, time=2),
    Message('control_change', channel=6, control=11, value=74, time=2),
    Message('control_change', channel=6, control=11, value=73, time=2),
    Message('control_change', channel=6, control=11, value=72, time=2),
    Message('control_change', channel=6, control=11, value=71, time=1),
    Message('control_change', channel=6, control=11, value=70, time=1),
    Message('note_off', channel=7, note=70, velocity=59, time=1),
    Message('note_off', channel=7, note=67, velocity=64, time=0),
    Message('control_change', channel=6, control=11, value=69, time=1),
    Message('note_off', channel=7, note=63, velocity=33, time=1),
    Message('control_change', channel=6, control=11, value=68, time=1),
    Message('note_on', channel=7, note=70, velocity=72, time=0),
    Message('note_on', channel=7, note=67, velocity=71, time=1),
    Message('note_on', channel=3, note=74, velocity=92, time=1),
    Message('control_change', channel=6, control=11, value=67, time=0),
    Message('note_on', channel=7, note=63, velocity=68, time=0),
    Message('note_on', channel=9, note=36, velocity=102, time=1),
    Message('control_change', channel=6, control=11, value=66, time=1),
    Message('note_off', channel=9, note=36, velocity=102, time=0),
    Message('note_off', channel=3, note=75, velocity=91, time=1),
    Message('control_change', channel=6, control=11, value=65, time=0),
    Message('control_change', channel=6, control=11, value=64, time=2),
    Message('control_change', channel=6, control=11, value=63, time=2),
    Message('control_change', channel=6, control=11, value=62, time=2),
    Message('control_change', channel=6, control=11, value=61, time=2),
    Message('control_change', channel=6, control=11, value=60, time=2),
    Message('control_change', channel=6, control=11, value=59, time=1),
    Message('control_change', channel=6, control=11, value=58, time=2),
    Message('control_change', channel=6, control=11, value=57, time=1),
    Message('note_off', channel=7, note=70, velocity=72, time=0),
    Message('note_off', channel=7, note=67, velocity=71, time=1),
    Message('control_change', channel=6, control=11, value=56, time=1),
    Message('note_off', channel=7, note=63, velocity=68, time=0),
    Message('control_change', channel=6, control=11, value=55, time=2),
    Message('control_change', channel=2, control=64, value=0, time=2),
    Message('control_change', channel=6, control=11, value=54, time=0),
    Message('note_on', channel=7, note=51, velocity=63, time=0),
    Message('note_on', channel=1, note=27, velocity=98, time=1),
    Message('note_on', channel=2, note=55, velocity=56, time=0),
    Message('note_on', channel=2, note=58, velocity=60, time=0),
    Message('note_on', channel=2, note=51, velocity=45, time=0),
    Message('note_on', channel=3, note=75, velocity=94, time=0),
    Message('note_on', channel=9, note=40, velocity=113, time=0),
    Message('control_change', channel=6, control=11, value=53, time=1),
    Message('note_on', channel=7, note=63, velocity=69, time=0),
    Message('note_on', channel=9, note=51, velocity=119, time=0),
    Message('note_off', channel=9, note=40, velocity=113, time=0),
    Message('control_change', channel=6, control=11, value=52, time=1),
    Message('note_on', channel=7, note=67, velocity=54, time=0),
    Message('note_off', channel=9, note=51, velocity=119, time=0),
    Message('note_off', channel=3, note=74, velocity=92, time=1),
    Message('control_change', channel=6, control=11, value=51, time=0),
    Message('note_on', channel=7, note=70, velocity=45, time=1),
    Message('control_change', channel=6, control=11, value=50, time=1),
    Message('control_change', channel=6, control=11, value=49, time=1),
    Message('control_change', channel=6, control=11, value=48, time=1),
    Message('control_change', channel=6, control=11, value=47, time=2),
    Message('control_change', channel=6, control=11, value=46, time=1),
    Message('control_change', channel=6, control=11, value=45, time=2),
    Message('control_change', channel=6, control=11, value=44, time=2),
    Message('note_off', channel=7, note=63, velocity=69, time=0),
    Message('control_change', channel=6, control=11, value=43, time=1),
    Message('control_change', channel=6, control=11, value=42, time=1),
    Message('note_off', channel=7, note=70, velocity=45, time=0),
    Message('note_off', channel=7, note=67, velocity=54, time=0),
    Message('control_change', channel=2, control=64, value=127, time=1),
    Message('control_change', channel=6, control=11, value=41, time=0),
    Message('control_change', channel=6, control=11, value=40, time=1),
    Message('control_change', channel=6, control=11, value=39, time=1),
    Message('control_change', channel=6, control=11, value=38, time=1),
    Message('control_change', channel=6, control=11, value=37, time=1),
    Message('control_change', channel=6, control=11, value=36, time=1),
    Message('control_change', channel=6, control=11, value=35, time=1),
    Message('note_on', channel=7, note=70, velocity=84, time=0),
    Message('note_on', channel=3, note=74, velocity=95, time=1),
    Message('control_change', channel=6, control=11, value=34, time=0),
    Message('note_on', channel=7, note=67, velocity=74, time=0),
    Message('control_change', channel=6, control=11, value=33, time=1),
    Message('note_on', channel=7, note=63, velocity=70, time=0),
    Message('control_change', channel=6, control=11, value=32, time=1),
    Message('control_change', channel=6, control=11, value=31, time=1),
    Message('note_off', channel=3, note=75, velocity=94, time=1),
    Message('control_change', channel=6, control=11, value=30, time=0),
    Message('control_change', channel=6, control=11, value=29, time=2),
    Message('control_change', channel=6, control=11, value=28, time=0),
    Message('control_change', channel=6, control=11, value=26, time=1),
    Message('control_change', channel=6, control=11, value=25, time=1),
    Message('control_change', channel=6, control=11, value=24, time=1),
    Message('control_change', channel=6, control=11, value=23, time=1),
    Message('control_change', channel=6, control=11, value=17, time=0),
    Message('control_change', channel=6, control=11, value=18, time=0),
    Message('control_change', channel=6, control=11, value=19, time=0),
    Message('control_change', channel=6, control=11, value=20, time=0),
    Message('control_change', channel=6, control=11, value=21, time=0),
    Message('control_change', channel=6, control=11, value=22, time=0),
    Message('note_off', channel=6, note=70, velocity=127, time=1),
    Message('note_off', channel=6, note=82, velocity=127, time=1),
    Message('control_change', channel=6, control=11, value=16, time=1),
    Message('control_change', channel=6, control=11, value=15, time=1),
    Message('control_change', channel=6, control=11, value=14, time=0),
    Message('control_change', channel=6, control=11, value=13, time=1),
    Message('control_change', channel=6, control=11, value=11, time=1),
    Message('control_change', channel=6, control=11, value=10, time=0),
    Message('control_change', channel=6, control=11, value=8, time=1),
    Message('control_change', channel=6, control=11, value=7, time=0),
    Message('control_change', channel=6, control=11, value=6, time=1),
    Message('control_change', channel=6, control=11, value=5, time=0),
    Message('note_off', channel=7, note=51, velocity=63, time=0),
    Message('control_change', channel=6, control=11, value=4, time=1),
    Message('control_change', channel=6, control=11, value=3, time=0),
    Message('note_off', channel=2, note=58, velocity=60, time=1),
    Message('control_change', channel=6, control=11, value=2, time=0),
    Message('control_change', channel=6, control=11, value=1, time=0),
    Message('note_off', channel=2, note=55, velocity=56, time=1),
    Message('control_change', channel=6, control=11, value=0, time=0),
    Message('note_off', channel=2, note=51, velocity=45, time=2),
    Message('note_on', channel=9, note=51, velocity=122, time=2),
    Message('note_off', channel=9, note=51, velocity=122, time=1),
    Message('pitchwheel', channel=6, pitch=8060, time=7),
    Message('pitchwheel', channel=6, pitch=7930, time=1),
    Message('pitchwheel', channel=6, pitch=7670, time=1),
    Message('pitchwheel', channel=6, pitch=7540, time=0),
    Message('pitchwheel', channel=6, pitch=7410, time=1),
    Message('pitchwheel', channel=6, pitch=7280, time=0),
    Message('pitchwheel', channel=6, pitch=7150, time=1),
    Message('pitchwheel', channel=6, pitch=7020, time=1),
    Message('pitchwheel', channel=6, pitch=6890, time=0),
    Message('pitchwheel', channel=6, pitch=6760, time=1),
    Message('pitchwheel', channel=6, pitch=6630, time=0),
    Message('note_off', channel=7, note=67, velocity=74, time=0),
    Message('pitchwheel', channel=6, pitch=6500, time=1),
    Message('pitchwheel', channel=6, pitch=6370, time=0),
    Message('pitchwheel', channel=6, pitch=6240, time=1),
    Message('pitchwheel', channel=6, pitch=6110, time=0),
    Message('note_off', channel=7, note=63, velocity=70, time=0),
    Message('note_off', channel=7, note=70, velocity=84, time=0),
    Message('pitchwheel', channel=6, pitch=5980, time=1),
    Message('pitchwheel', channel=6, pitch=5850, time=0),
    Message('pitchwheel', channel=6, pitch=5590, time=1),
    Message('pitchwheel', channel=6, pitch=5460, time=1),
    Message('pitchwheel', channel=6, pitch=5330, time=1),
    Message('pitchwheel', channel=6, pitch=5200, time=0),
    Message('pitchwheel', channel=6, pitch=5070, time=1),
    Message('pitchwheel', channel=6, pitch=4810, time=1),
    Message('pitchwheel', channel=6, pitch=4940, time=0),
    Message('note_on', channel=7, note=46, velocity=84, time=0),
    Message('note_off', channel=3, note=74, velocity=95, time=1),
    Message('note_on', channel=3, note=77, velocity=97, time=0),
    Message('pitchwheel', channel=6, pitch=4680, time=0),
    Message('pitchwheel', channel=6, pitch=4420, time=0),
    Message('note_on', channel=7, note=62, velocity=80, time=0),
    Message('note_on', channel=9, note=36, velocity=80, time=0),
    Message('pitchwheel', channel=6, pitch=4160, time=1),
    Message('pitchwheel', channel=6, pitch=4030, time=0),
    Message('note_on', channel=7, note=65, velocity=67, time=0),
    Message('note_on', channel=7, note=70, velocity=79, time=0),
    Message('note_off', channel=9, note=36, velocity=80, time=0),
    Message('pitchwheel', channel=6, pitch=3640, time=1),
    Message('pitchwheel', channel=6, pitch=3380, time=0),
    Message('pitchwheel', channel=6, pitch=2860, time=1),
    Message('pitchwheel', channel=6, pitch=2600, time=1),
    Message('pitchwheel', channel=6, pitch=2210, time=0),
    Message('pitchwheel', channel=6, pitch=1820, time=1),
    Message('pitchwheel', channel=6, pitch=1430, time=0),
    Message('pitchwheel', channel=6, pitch=1040, time=1),
    Message('pitchwheel', channel=6, pitch=780, time=0),
    Message('pitchwheel', channel=6, pitch=390, time=1),
    Message('pitchwheel', channel=6, pitch=0, time=0),
    Message('note_off', channel=4, note=58, velocity=74, time=4),
    Message('control_change', channel=2, control=64, value=0, time=8),
    Message('note_on', channel=5, note=65, velocity=64, time=0),
    Message('note_on', channel=5, note=74, velocity=72, time=1),
    Message('note_on', channel=4, note=58, velocity=70, time=2),
    Message('note_on', channel=2, note=58, velocity=62, time=1),
    Message('note_off', channel=1, note=27, velocity=98, time=1),
    Message('note_on', channel=1, note=34, velocity=93, time=1),
    Message('note_on', channel=2, note=50, velocity=59, time=0),
    Message('note_on', channel=2, note=53, velocity=56, time=0),
    Message('note_off', channel=5, note=67, velocity=91, time=0),
    Message('note_on', channel=9, note=36, velocity=127, time=0),
    Message('note_on', channel=9, note=51, velocity=119, time=0),
    Message('note_off', channel=9, note=51, velocity=119, time=1),
    Message('note_off', channel=9, note=36, velocity=127, time=0),
    Message('note_off', channel=5, note=75, velocity=80, time=1),
    Message('control_change', channel=2, control=64, value=127, time=10),
    Message('note_off', channel=7, note=70, velocity=79, time=7),
    Message('note_off', channel=7, note=65, velocity=67, time=0),
    Message('note_off', channel=7, note=62, velocity=80, time=0),
    Message('note_on', channel=7, note=70, velocity=68, time=2),
    Message('note_on', channel=7, note=65, velocity=52, time=1),
    Message('note_on', channel=3, note=74, velocity=84, time=3),
    Message('note_off', channel=2, note=53, velocity=56, time=5),
    Message('note_off', channel=3, note=77, velocity=97, time=7),
    Message('note_off', channel=7, note=65, velocity=52, time=3),
    Message('note_off', channel=7, note=70, velocity=68, time=2),
    Message('note_off', channel=7, note=46, velocity=84, time=1),
    Message('note_on', channel=7, note=62, velocity=49, time=1),
    Message('note_off', channel=3, note=74, velocity=84, time=1),
    Message('note_on', channel=7, note=65, velocity=60, time=0),
    Message('note_off', channel=2, note=58, velocity=62, time=2),
    Message('note_on', channel=3, note=70, velocity=60, time=0),
    Message('note_on', channel=9, note=51, velocity=116, time=0),
    Message('note_off', channel=9, note=51, velocity=116, time=1),
    Message('note_off', channel=2, note=50, velocity=59, time=2),
    Message('note_on', channel=7, note=70, velocity=44, time=1),
    Message('note_off', channel=1, note=34, velocity=93, time=1),
    Message('note_off', channel=7, note=70, velocity=44, time=15),
    Message('note_off', channel=7, note=65, velocity=60, time=1),
    Message('note_on', channel=7, note=70, velocity=68, time=0),
    Message('note_off', channel=7, note=62, velocity=49, time=1),
    Message('note_on', channel=7, note=62, velocity=60, time=2),
    Message('note_on', channel=7, note=65, velocity=67, time=0),
    Message('note_on', channel=9, note=36, velocity=109, time=1),
    Message('note_off', channel=9, note=36, velocity=109, time=1),
    Message('control_change', channel=2, control=64, value=0, time=15),
    Message('note_on', channel=1, note=34, velocity=100, time=7),
    Message('note_on', channel=9, note=51, velocity=122, time=0),
    Message('note_on', channel=9, note=40, velocity=122, time=0),
    Message('note_on', channel=2, note=50, velocity=46, time=1),
    Message('note_on', channel=2, note=53, velocity=54, time=0),
    Message('note_on', channel=2, note=58, velocity=58, time=0),
    Message('note_off', channel=9, note=40, velocity=122, time=0),
    Message('note_off', channel=9, note=51, velocity=122, time=0),
    Message('control_change', channel=2, control=64, value=127, time=11),
    Message('note_off', channel=7, note=70, velocity=68, time=7),
    Message('note_off', channel=7, note=65, velocity=67, time=2),
    Message('note_off', channel=7, note=62, velocity=60, time=0),
    Message('note_on', channel=7, note=70, velocity=56, time=2),
    Message('note_on', channel=7, note=65, velocity=62, time=1),
    Message('note_on', channel=7, note=62, velocity=54, time=1),
    Message('note_off', channel=2, note=50, velocity=46, time=16),
    Message('note_off', channel=7, note=62, velocity=54, time=2),
    Message('note_off', channel=7, note=65, velocity=62, time=1),
    Message('note_off', channel=7, note=70, velocity=56, time=1),
    Message('note_on', channel=7, note=62, velocity=51, time=0),
    Message('note_off', channel=2, note=53, velocity=54, time=1),
    Message('note_on', channel=7, note=65, velocity=59, time=0),
    Message('note_on', channel=7, note=70, velocity=52, time=1),
    Message('note_on', channel=9, note=51, velocity=119, time=1),
    Message('note_off', channel=9, note=51, velocity=119, time=1),
    Message('note_off', channel=2, note=58, velocity=58, time=20),
    Message('note_off', channel=7, note=70, velocity=52, time=0),
    Message('note_off', channel=7, note=65, velocity=59, time=1),
    Message('note_on', channel=7, note=70, velocity=78, time=0),
    Message('note_on', channel=9, note=36, velocity=75, time=0),
    Message('note_off', channel=7, note=62, velocity=51, time=1),
    Message('note_on', channel=7, note=65, velocity=64, time=0),
    Message('note_off', channel=9, note=36, velocity=75, time=0),
    Message('note_off', channel=1, note=34, velocity=100, time=1),
    Message('note_on', channel=7, note=62, velocity=59, time=0),
    Message('note_off', channel=7, note=62, velocity=59, time=14),
    Message('note_off', channel=7, note=70, velocity=78, time=0),
    Message('note_off', channel=7, note=65, velocity=64, time=1),
    Message('control_change', channel=2, control=64, value=0, time=2),
    Message('note_on', channel=1, note=34, velocity=87, time=6),
    Message('note_on', channel=7, note=46, velocity=67, time=0),
    Message('note_on', channel=9, note=51, velocity=127, time=0),
    Message('note_on', channel=9, note=36, velocity=127, time=0),
    Message('note_on', channel=7, note=62, velocity=67, time=1),
    Message('note_off', channel=9, note=36, velocity=127, time=0),
    Message('note_off', channel=9, note=51, velocity=127, time=0),
    Message('note_on', channel=2, note=46, velocity=74, time=1),
    Message('note_on', channel=7, note=65, velocity=76, time=0),
    Message('note_on', channel=7, note=70, velocity=80, time=1),
    Message('note_off', channel=7, note=65, velocity=76, time=15),
    Message('note_off', channel=7, note=62, velocity=67, time=0),
    Message('note_off', channel=7, note=70, velocity=80, time=3),
    Message('note_on', channel=7, note=70, velocity=92, time=3),
    Message('note_on', channel=9, note=40, velocity=127, time=0),
    Message('note_on', channel=7, note=65, velocity=81, time=1),
    Message('note_off', channel=9, note=40, velocity=127, time=0),
    Message('note_on', channel=1, note=38, velocity=91, time=1),
    Message('note_on', channel=2, note=50, velocity=64, time=0),
    Message('control_change', channel=2, control=64, value=127, time=0),
    Message('note_on', channel=7, note=62, velocity=71, time=0),
    Message('note_off', channel=1, note=34, velocity=87, time=2),
    Message('note_off', channel=2, note=46, velocity=74, time=2),
    Message('note_off', channel=3, note=70, velocity=60, time=5),
    Message('note_on', channel=9, note=51, velocity=127, time=14),
    Message('note_off', channel=9, note=51, velocity=127, time=1),
    Message('note_off', channel=1, note=38, velocity=91, time=16),
    Message('note_off', channel=7, note=62, velocity=71, time=3),
    Message('note_off', channel=7, note=65, velocity=81, time=1),
    Message('note_off', channel=7, note=70, velocity=92, time=0),
    Message('note_off', channel=7, note=46, velocity=67, time=0),
    Message('note_on', channel=7, note=70, velocity=94, time=1),
    Message('note_on', channel=7, note=65, velocity=82, time=1),
    Message('note_on', channel=9, note=36, velocity=125, time=0),
    Message('note_on', channel=1, note=39, velocity=87, time=1),
    Message('note_on', channel=7, note=63, velocity=84, time=0),
    Message('note_off', channel=9, note=36, velocity=125, time=0),
    Message('note_on', channel=2, note=51, velocity=73, time=1),
    Message('note_off', channel=2, note=50, velocity=64, time=3),
    Message('control_change', channel=2, control=64, value=0, time=9),
    Message('note_on', channel=9, note=51, velocity=127, time=10),
    Message('note_on', channel=9, note=40, velocity=116, time=0),
    Message('note_off', channel=9, note=40, velocity=116, time=1),
    Message('note_off', channel=9, note=51, velocity=127, time=0),
    Message('note_off', channel=1, note=39, velocity=87, time=14),
    Message('note_off', channel=7, note=70, velocity=94, time=0),
    Message('note_off', channel=7, note=65, velocity=82, time=3),
    Message('note_off', channel=7, note=63, velocity=84, time=3),
    Message('note_on', channel=9, note=36, velocity=127, time=2),
    Message('note_off', channel=2, note=51, velocity=73, time=1),
    Message('note_on', channel=7, note=70, velocity=78, time=0),
    Message('note_off', channel=9, note=36, velocity=127, time=0),
    Message('note_on', channel=7, note=65, velocity=83, time=1),
    Message('note_on', channel=1, note=40, velocity=93, time=1),
    Message('note_on', channel=2, note=52, velocity=74, time=0),
    Message('note_on', channel=7, note=62, velocity=83, time=0),
    Message('note_on', channel=9, note=40, velocity=127, time=21),
    Message('control_change', channel=2, control=64, value=127, time=1),
    Message('note_on', channel=9, note=51, velocity=127, time=0),
    Message('note_off', channel=9, note=40, velocity=127, time=0),
    Message('note_off', channel=9, note=51, velocity=127, time=1),
    Message('note_off', channel=1, note=40, velocity=93, time=17),
    Message('note_off', channel=7, note=65, velocity=83, time=0),
    Message('note_off', channel=7, note=70, velocity=78, time=1),
    Message('note_off', channel=7, note=62, velocity=83, time=1),
    Message('note_on', channel=9, note=36, velocity=113, time=3),
    Message('note_on', channel=1, note=41, velocity=85, time=1),
    Message('note_on', channel=7, note=70, velocity=80, time=0),
    Message('note_off', channel=9, note=36, velocity=113, time=0),
    Message('note_on', channel=7, note=65, velocity=85, time=1),
    Message('note_off', channel=2, note=52, velocity=74, time=1),
    Message('note_on', channel=2, note=53, velocity=81, time=0),
    Message('note_on', channel=7, note=62, velocity=76, time=0),
    Message('note_off', channel=5, note=65, velocity=64, time=18),
    Message('note_on', channel=5, note=67, velocity=74, time=0),
    Message('note_off', channel=7, note=62, velocity=76, time=0),
    Message('note_on', channel=5, note=75, velocity=55, time=1),
    Message('note_off', channel=7, note=65, velocity=85, time=0),
    Message('control_change', channel=2, control=64, value=0, time=1),
    Message('note_off', channel=7, note=70, velocity=80, time=0),
    Message('note_on', channel=7, note=51, velocity=80, time=1),
    Message('note_on', channel=9, note=36, velocity=127, time=0),
    Message('note_on', channel=9, note=49, velocity=127, time=0),
    Message('note_off', channel=1, note=41, velocity=85, time=1),
    Message('note_off', channel=5, note=74, velocity=72, time=0),
    Message('note_on', channel=7, note=63, velocity=75, time=0),
    Message('note_on', channel=7, note=67, velocity=87, time=0),
    Message('note_off', channel=9, note=49, velocity=127, time=0),
    Message('note_off', channel=9, note=36, velocity=127, time=0),
    Message('note_on', channel=2, note=51, velocity=67, time=1),
    Message('note_on', channel=2, note=55, velocity=59, time=0),
    Message('note_on', channel=2, note=58, velocity=73, time=0),
    Message('note_on', channel=1, note=27, velocity=98, time=1),
    Message('note_off', channel=2, note=53, velocity=81, time=0),
    Message('note_on', channel=7, note=70, velocity=76, time=0),
    Message('note_off', channel=7, note=70, velocity=76, time=17),
    Message('control_change', channel=2, control=64, value=127, time=4),
    Message('note_off', channel=7, note=51, velocity=80, time=13),
    Message('note_off', channel=7, note=67, velocity=87, time=4),
    Message('note_off', channel=7, note=63, velocity=75, time=0),
    Message('note_off', channel=2, note=55, velocity=59, time=2),
    Message('note_off', channel=2, note=58, velocity=73, time=5),
    Message('note_on', channel=7, note=63, velocity=59, time=1),
    Message('note_on', channel=7, note=67, velocity=74, time=0),
    Message('note_on', channel=9, note=51, velocity=116, time=1),
    Message('note_off', channel=1, note=27, velocity=98, time=1),
    Message('note_on', channel=7, note=70, velocity=52, time=0),
    Message('note_off', channel=9, note=51, velocity=116, time=0),
    Message('note_off', channel=2, note=51, velocity=67, time=3),
    Message('note_off', channel=7, note=70, velocity=52, time=14),
    Message('note_off', channel=7, note=67, velocity=74, time=1),
    Message('note_off', channel=7, note=63, velocity=59, time=1),
    Message('note_on', channel=7, note=70, velocity=72, time=2),
    Message('note_on', channel=9, note=36, velocity=125, time=0),
    Message('note_on', channel=1, note=27, velocity=53, time=1),
    Message('note_on', channel=7, note=67, velocity=71, time=0),
    Message('note_off', channel=9, note=36, velocity=125, time=0),
    Message('note_on', channel=7, note=63, velocity=68, time=1),
    Message('note_off', channel=1, note=27, velocity=53, time=4),
    Message('note_on', channel=9, note=51, velocity=116, time=18),
    Message('note_on', channel=9, note=40, velocity=127, time=0),
    Message('note_on', channel=1, note=27, velocity=105, time=1),
    Message('note_off', channel=9, note=40, velocity=127, time=0),
    Message('note_off', channel=9, note=51, velocity=116, time=0),
    Message('note_on', channel=2, note=51, velocity=58, time=1),
    Message('note_on', channel=2, note=55, velocity=64, time=0),
    Message('note_on', channel=2, note=58, velocity=70, time=0),
    Message('control_change', channel=2, control=64, value=0, time=0),
    Message('note_off', channel=7, note=70, velocity=72, time=17),
    Message('note_off', channel=7, note=67, velocity=71, time=1),
    Message('control_change', channel=2, control=64, value=127, time=2),
    Message('note_off', channel=7, note=63, velocity=68, time=0),
    Message('note_on', channel=7, note=70, velocity=81, time=1),
    Message('note_on', channel=7, note=67, velocity=71, time=1),
    Message('note_on', channel=7, note=63, velocity=60, time=1),
    Message('note_off', channel=2, note=55, velocity=64, time=18),
    Message('note_off', channel=7, note=63, velocity=60, time=0),
    Message('note_off', channel=7, note=67, velocity=71, time=0),
    Message('note_off', channel=7, note=70, velocity=81, time=2),
    Message('note_off', channel=2, note=58, velocity=70, time=1),
    Message('note_on', channel=9, note=51, velocity=119, time=1),
    Message('note_on', channel=7, note=63, velocity=33, time=1),
    Message('note_off', channel=9, note=51, velocity=119, time=0),
    Message('note_on', channel=7, note=67, velocity=64, time=2),
    Message('note_on', channel=7, note=70, velocity=59, time=0),
    Message('note_off', channel=2, note=51, velocity=58, time=1),
    Message('note_on', channel=3, note=67, velocity=79, time=1),
    Message('note_off', channel=7, note=70, velocity=59, time=17),
    Message('note_off', channel=7, note=67, velocity=64, time=0),
    Message('note_off', channel=7, note=63, velocity=33, time=2),
    Message('note_on', channel=9, note=36, velocity=59, time=1),
    Message('note_on', channel=7, note=70, velocity=70, time=1),
    Message('note_off', channel=9, note=36, velocity=59, time=0),
    Message('note_on', channel=7, note=67, velocity=69, time=1),
    Message('note_off', channel=1, note=27, velocity=105, time=1),
    Message('note_on', channel=3, note=70, velocity=82, time=0),
    Message('note_on', channel=7, note=63, velocity=59, time=0),
    Message('note_off', channel=3, note=67, velocity=79, time=7),
    Message('note_off', channel=7, note=63, velocity=59, time=12),
    Message('note_off', channel=7, note=67, velocity=69, time=1),
    Message('note_off', channel=7, note=70, velocity=70, time=0),
    Message('note_on', channel=9, note=36, velocity=127, time=0),
    Message('note_on', channel=9, note=51, velocity=119, time=1),
    Message('note_off', channel=9, note=36, velocity=127, time=0),
    Message('note_on', channel=7, note=51, velocity=67, time=1),
    Message('note_on', channel=7, note=63, velocity=67, time=0),
    Message('note_off', channel=9, note=51, velocity=119, time=0),
    Message('note_on', channel=1, note=27, velocity=107, time=1),
    Message('note_on', channel=2, note=51, velocity=60, time=0),
    Message('note_on', channel=7, note=67, velocity=76, time=0),
    Message('note_on', channel=2, note=58, velocity=64, time=1),
    Message('note_on', channel=2, note=55, velocity=59, time=0),
    Message('note_on', channel=3, note=75, velocity=94, time=0),
    Message('note_on', channel=7, note=70, velocity=64, time=0),
    Message('control_change', channel=2, control=64, value=0, time=2),
    Message('note_off', channel=3, note=70, velocity=82, time=3),
    Message('note_off', channel=7, note=67, velocity=76, time=10),
    Message('note_off', channel=7, note=63, velocity=67, time=0),
    Message('note_off', channel=7, note=51, velocity=67, time=2),
    Message('note_off', channel=7, note=70, velocity=64, time=1),
    Message('note_on', channel=9, note=40, velocity=119, time=2),
    Message('note_on', channel=7, note=70, velocity=72, time=1),
    Message('note_off', channel=9, note=40, velocity=119, time=0),
    Message('control_change', channel=2, control=64, value=127, time=1),
    Message('note_on', channel=7, note=67, velocity=71, time=0),
    Message('note_on', channel=7, note=63, velocity=68, time=1),
    Message('note_on', channel=3, note=74, velocity=101, time=1),
    Message('note_off', channel=3, note=75, velocity=94, time=3),
    Message('note_off', channel=7, note=70, velocity=72, time=13),
    Message('note_off', channel=2, note=55, velocity=59, time=1),
    Message('note_off', channel=7, note=67, velocity=71, time=0),
    Message('note_off', channel=7, note=63, velocity=68, time=1),
    Message('note_off', channel=2, note=58, velocity=64, time=2),
    Message('note_on', channel=7, note=63, velocity=81, time=1),
    Message('note_on', channel=9, note=51, velocity=127, time=0),
    Message('note_off', channel=9, note=51, velocity=127, time=1),
    Message('note_on', channel=7, note=67, velocity=87, time=1),
    Message('note_on', channel=7, note=70, velocity=71, time=0),
    Message('note_on', channel=3, note=75, velocity=93, time=1),
    Message('note_off', channel=1, note=27, velocity=107, time=3),
    Message('note_off', channel=3, note=74, velocity=101, time=0),
    Message('note_off', channel=2, note=51, velocity=60, time=8),
    Message('note_off', channel=3, note=75, velocity=93, time=10),
    Message('note_on', channel=9, note=36, velocity=113, time=0),
    Message('note_off', channel=9, note=36, velocity=113, time=1),
    Message('note_on', channel=3, note=74, velocity=97, time=1),
    Message('note_on', channel=1, note=27, velocity=68, time=1),
    Message('note_off', channel=1, note=27, velocity=68, time=7),
    Message('note_off', channel=7, note=63, velocity=81, time=9),
    Message('note_off', channel=7, note=70, velocity=71, time=2),
    Message('note_off', channel=7, note=67, velocity=87, time=0),
    Message('note_on', channel=7, note=51, velocity=63, time=4),
    Message('note_on', channel=9, note=40, velocity=127, time=0),
    Message('note_on', channel=9, note=51, velocity=127, time=0),
    Message('note_on', channel=2, note=51, velocity=57, time=1),
    Message('note_on', channel=2, note=55, velocity=56, time=0),
    Message('note_on', channel=2, note=58, velocity=64, time=0),
    Message('note_off', channel=9, note=51, velocity=127, time=0),
    Message('note_off', channel=9, note=40, velocity=127, time=0),
    Message('note_on', channel=1, note=27, velocity=107, time=1),
    Message('note_on', channel=7, note=63, velocity=69, time=0),
    Message('note_on', channel=3, note=75, velocity=92, time=1),
    Message('note_on', channel=7, note=67, velocity=54, time=0),
    Message('note_on', channel=7, note=70, velocity=45, time=2),
    Message('note_off', channel=3, note=74, velocity=97, time=1),
    Message('control_change', channel=2, control=64, value=0, time=2),
    Message('note_off', channel=7, note=63, velocity=69, time=7),
    Message('note_off', channel=7, note=70, velocity=45, time=2),
    Message('note_off', channel=7, note=67, velocity=54, time=0),
    Message('note_off', channel=3, note=75, velocity=92, time=6),
    Message('note_on', channel=7, note=70, velocity=84, time=1),
    Message('note_on', channel=7, note=67, velocity=74, time=1),
    Message('control_change', channel=2, control=64, value=127, time=1),
    Message('note_on', channel=7, note=63, velocity=70, time=0),
    Message('note_on', channel=3, note=74, velocity=90, time=1),
    Message('note_off', channel=2, note=55, velocity=56, time=8),
    Message('note_off', channel=2, note=58, velocity=64, time=6),
    Message('note_off', channel=7, note=51, velocity=63, time=2),
    Message('note_on', channel=9, note=51, velocity=116, time=5),
    Message('note_off', channel=9, note=51, velocity=116, time=1),
    Message('note_off', channel=2, note=51, velocity=57, time=8),
    Message('note_off', channel=7, note=67, velocity=74, time=7),
    Message('note_off', channel=7, note=63, velocity=70, time=2),
    Message('note_off', channel=7, note=70, velocity=84, time=0),
    Message('note_off', channel=3, note=74, velocity=90, time=3),
    Message('note_on', channel=7, note=46, velocity=100, time=3),
    Message('note_on', channel=9, note=36, velocity=94, time=0),
    Message('note_on', channel=7, note=62, velocity=102, time=1),
    Message('note_off', channel=9, note=36, velocity=94, time=0),
    Message('note_on', channel=7, note=65, velocity=87, time=1),
    Message('note_on', channel=7, note=70, velocity=101, time=0),
    Message('note_on', channel=3, note=77, velocity=79, time=1),
    Message('note_on', channel=5, note=74, velocity=83, time=14),
    Message('note_on', channel=5, note=65, velocity=83, time=0),
    Message('note_off', channel=1, note=27, velocity=107, time=2),
    Message('note_off', channel=5, note=67, velocity=74, time=3),
    Message('note_off', channel=5, note=75, velocity=55, time=1),
    Message('note_on', channel=9, note=36, velocity=127, time=1),
    Message('note_on', channel=9, note=51, velocity=127, time=0),
    Message('note_on', channel=2, note=50, velocity=69, time=1),
    Message('note_on', channel=2, note=53, velocity=59, time=0),
    Message('note_on', channel=2, note=58, velocity=72, time=0),
    Message('note_off', channel=9, note=51, velocity=127, time=0),
    Message('note_off', channel=9, note=36, velocity=127, time=0),
    Message('note_on', channel=1, note=34, velocity=89, time=1),
    Message('control_change', channel=2, control=64, value=0, time=0),
    Message('note_off', channel=3, note=77, velocity=79, time=19),
    Message('note_off', channel=7, note=70, velocity=101, time=0),
    Message('note_off', channel=7, note=65, velocity=87, time=0),
    Message('note_off', channel=7, note=62, velocity=102, time=0),
    Message('note_on', channel=7, note=70, velocity=68, time=2),
    Message('control_change', channel=2, control=64, value=127, time=1),
    Message('note_on', channel=7, note=65, velocity=52, time=0),
    Message('note_on', channel=3, note=74, velocity=88, time=3),
    Message('note_off', channel=7, note=65, velocity=52, time=15),
    Message('note_off', channel=7, note=70, velocity=68, time=2),
    Message('note_off', channel=7, note=46, velocity=100, time=1),
    Message('note_on', channel=7, note=62, velocity=49, time=1),
    Message('note_on', channel=7, note=65, velocity=60, time=1),
    Message('note_off', channel=3, note=74, velocity=88, time=2),
    Message('note_on', channel=9, note=51, velocity=119, time=0),
    Message('note_off', channel=9, note=51, velocity=119, time=1),
    Message('note_on', channel=3, note=70, velocity=73, time=1),
    Message('note_off', channel=1, note=34, velocity=89, time=2),
    Message('note_on', channel=7, note=70, velocity=44, time=0),
    Message('note_off', channel=2, note=58, velocity=72, time=2),
    Message('note_off', channel=2, note=53, velocity=59, time=0),
    Message('note_off', channel=2, note=50, velocity=69, time=8),
    Message('note_off', channel=7, note=70, velocity=44, time=6),
    Message('note_off', channel=7, note=65, velocity=60, time=1),
    Message('note_on', channel=7, note=70, velocity=68, time=0),
    Message('note_off', channel=7, note=62, velocity=49, time=1),
    Message('note_on', channel=9, note=36, velocity=107, time=1),
    Message('note_on', channel=1, note=34, velocity=56, time=1),
    Message('note_on', channel=7, note=62, velocity=60, time=0),
    Message('note_on', channel=7, note=65, velocity=67, time=0),
    Message('note_off', channel=9, note=36, velocity=107, time=0),
    Message('note_off', channel=1, note=34, velocity=56, time=5),
    Message('note_on', channel=9, note=40, velocity=127, time=18),
    Message('note_on', channel=2, note=50, velocity=67, time=1),
    Message('note_on', channel=2, note=58, velocity=64, time=0),
    Message('control_change', channel=2, control=64, value=0, time=0),
    Message('note_on', channel=9, note=51, velocity=122, time=0),
    Message('note_off', channel=9, note=40, velocity=127, time=0),
    Message('note_on', channel=1, note=34, velocity=105, time=1),
    Message('note_on', channel=2, note=53, velocity=53, time=0),
    Message('note_off', channel=9, note=51, velocity=122, time=0),
    Message('note_off', channel=7, note=70, velocity=68, time=18),
    Message('control_change', channel=2, control=64, value=127, time=2),
    Message('note_off', channel=7, note=65, velocity=67, time=0),
    Message('note_off', channel=7, note=62, velocity=60, time=0),
    Message('note_on', channel=7, note=70, velocity=56, time=2),
    Message('note_on', channel=7, note=65, velocity=62, time=1),
    Message('note_on', channel=7, note=62, velocity=54, time=1),
    Message('note_off', channel=2, note=50, velocity=67, time=13),
    Message('note_off', channel=3, note=70, velocity=73, time=2),
    Message('note_off', channel=7, note=62, velocity=54, time=3),
    Message('note_off', channel=7, note=65, velocity=62, time=1),
    Message('note_off', channel=7, note=70, velocity=56, time=1),
    Message('note_on', channel=7, note=62, velocity=51, time=0),
    Message('note_on', channel=7, note=65, velocity=59, time=1),
    Message('note_on', channel=9, note=51, velocity=116, time=0),
    Message('note_on', channel=7, note=70, velocity=52, time=1),
    Message('note_off', channel=9, note=51, velocity=116, time=0),
    Message('note_off', channel=2, note=53, velocity=53, time=5),
    Message('note_off', channel=1, note=34, velocity=105, time=10),
    Message('note_off', channel=7, note=70, velocity=52, time=7),
    Message('note_off', channel=7, note=65, velocity=59, time=1),
    Message('note_on', channel=7, note=70, velocity=78, time=0),
    Message('note_off', channel=7, note=62, velocity=51, time=1),
    Message('note_on', channel=7, note=65, velocity=64, time=0),
    Message('note_on', channel=9, note=36, velocity=88, time=0),
    Message('note_on', channel=7, note=62, velocity=59, time=1),
    Message('note_off', channel=9, note=36, velocity=88, time=0),
    Message('note_off', channel=7, note=62, velocity=59, time=14),
    Message('note_off', channel=7, note=70, velocity=78, time=0),
    Message('note_off', channel=7, note=65, velocity=64, time=1),
    Message('note_on', channel=7, note=46, velocity=67, time=6),
    Message('control_change', channel=2, control=64, value=0, time=2),
    Message('note_on', channel=9, note=36, velocity=127, time=0),
    Message('note_on', channel=9, note=51, velocity=127, time=0),
    Message('note_on', channel=1, note=34, velocity=107, time=1),
    Message('note_on', channel=7, note=62, velocity=67, time=0),
    Message('note_off', channel=9, note=51, velocity=127, time=0),
    Message('note_off', channel=9, note=36, velocity=127, time=0),
    Message('note_on', channel=2, note=46, velocity=73, time=1),
    Message('note_on', channel=7, note=65, velocity=76, time=0),
    Message('note_on', channel=7, note=70, velocity=80, time=2),
    Message('note_off', channel=7, note=65, velocity=76, time=14),
    Message('note_off', channel=7, note=62, velocity=67, time=0),
    Message('note_off', channel=2, note=46, velocity=73, time=4),
    Message('note_off', channel=7, note=70, velocity=80, time=0),
    Message('note_off', channel=1, note=34, velocity=107, time=2),
    Message('note_on', channel=7, note=70, velocity=92, time=0),
    Message('note_on', channel=9, note=40, velocity=127, time=0),
    Message('note_on', channel=7, note=65, velocity=81, time=1),
    Message('note_off', channel=9, note=40, velocity=127, time=0),
    Message('note_on', channel=1, note=38, velocity=91, time=1),
    Message('note_on', channel=2, note=50, velocity=78, time=0),
    Message('note_on', channel=7, note=62, velocity=71, time=0),
    Message('note_on', channel=9, note=51, velocity=127, time=22),
    Message('note_off', channel=9, note=51, velocity=127, time=1),
    Message('note_off', channel=1, note=38, velocity=91, time=14),
    Message('note_off', channel=7, note=46, velocity=67, time=5),
    Message('note_off', channel=7, note=62, velocity=71, time=1),
    Message('note_off', channel=7, note=65, velocity=81, time=1),
    Message('note_off', channel=7, note=70, velocity=92, time=0),
    Message('note_on', channel=7, note=70, velocity=94, time=1),
    Message('note_off', channel=2, note=50, velocity=78, time=1),
    Message('note_on', channel=7, note=65, velocity=82, time=0),
    Message('note_on', channel=9, note=36, velocity=127, time=0),
    Message('note_on', channel=1, note=39, velocity=110, time=1),
    Message('note_on', channel=7, note=63, velocity=84, time=0),
    Message('note_off', channel=9, note=36, velocity=127, time=0),
    Message('note_on', channel=2, note=51, velocity=79, time=1),
    Message('note_on', channel=9, note=51, velocity=127, time=22),
    Message('note_on', channel=9, note=40, velocity=127, time=0),
    Message('note_off', channel=9, note=40, velocity=127, time=1),
    Message('note_off', channel=9, note=51, velocity=127, time=0),
    Message('note_off', channel=2, note=58, velocity=64, time=6),
    Message('note_off', channel=1, note=39, velocity=110, time=7),
    Message('note_off', channel=7, note=70, velocity=94, time=1),
    Message('note_off', channel=7, note=65, velocity=82, time=3),
    Message('note_off', channel=7, note=63, velocity=84, time=3),
    Message('note_off', channel=2, note=51, velocity=79, time=1),
    Message('note_on', channel=7, note=70, velocity=78, time=2),
    Message('note_on', channel=9, note=36, velocity=127, time=0),
    Message('note_on', channel=7, note=65, velocity=83, time=1),
    Message('note_off', channel=9, note=36, velocity=127, time=0),
    Message('note_on', channel=1, note=40, velocity=89, time=1),
    Message('note_on', channel=2, note=52, velocity=79, time=0),
    Message('note_on', channel=7, note=62, velocity=83, time=0),
    Message('note_on', channel=9, note=40, velocity=127, time=21),
    Message('note_on', channel=9, note=51, velocity=127, time=1),
    Message('note_off', channel=9, note=40, velocity=127, time=0),
    Message('note_off', channel=9, note=51, velocity=127, time=1),
    Message('control_change', channel=2, control=64, value=127, time=8),
    Message('note_off', channel=1, note=40, velocity=89, time=9),
    Message('note_off', channel=7, note=65, velocity=83, time=0),
    Message('note_off', channel=7, note=70, velocity=78, time=1),
    Message('note_off', channel=7, note=62, velocity=83, time=1),
    Message('note_off', channel=2, note=52, velocity=79, time=3),
    Message('note_on', channel=7, note=70, velocity=80, time=1),
    Message('note_on', channel=1, note=41, velocity=82, time=1),
    Message('note_on', channel=7, note=65, velocity=85, time=0),
    Message('note_on', channel=9, note=36, velocity=120, time=0),
    Message('note_on', channel=2, note=53, velocity=83, time=1),
    Message('note_on', channel=7, note=62, velocity=76, time=0),
    Message('note_off', channel=9, note=36, velocity=120, time=0),
    Message('note_on', channel=5, note=67, velocity=70, time=11),
    Message('note_on', channel=5, note=75, velocity=76, time=1),
    Message('note_off', channel=5, note=65, velocity=83, time=1),
    Message('note_off', channel=5, note=74, velocity=83, time=3),
    Message('note_off', channel=1, note=41, velocity=82, time=1),
    Message('note_off', channel=7, note=62, velocity=76, time=1),
    Message('note_off', channel=7, note=65, velocity=85, time=1),
    Message('note_off', channel=7, note=70, velocity=80, time=1),
    Message('note_on', channel=7, note=51, velocity=80, time=1),
    Message('note_on', channel=7, note=63, velocity=75, time=1),
    Message('note_on', channel=7, note=67, velocity=87, time=0),
    Message('note_on', channel=1, note=27, velocity=116, time=1),
    Message('note_on', channel=2, note=55, velocity=65, time=0),
    Message('note_on', channel=2, note=58, velocity=73, time=0),
    Message('note_off', channel=2, note=53, velocity=83, time=1),
    Message('note_on', channel=2, note=51, velocity=79, time=0),
    Message('control_change', channel=2, control=64, value=0, time=0),
    Message('note_on', channel=7, note=70, velocity=76, time=0),
    Message('note_on', channel=9, note=36, velocity=127, time=0),
    Message('note_on', channel=9, note=49, velocity=127, time=0),
    Message('note_off', channel=9, note=36, velocity=127, time=1),
    Message('note_off', channel=9, note=49, velocity=127, time=0),
    Message('note_off', channel=7, note=70, velocity=76, time=16),
    Message('control_change', channel=2, control=64, value=127, time=13),
    Message('note_off', channel=7, note=51, velocity=80, time=4),
    Message('note_off', channel=7, note=67, velocity=87, time=4),
    Message('note_off', channel=7, note=63, velocity=75, time=0),
    Message('note_on', channel=7, note=63, velocity=59, time=8),
    Message('note_on', channel=7, note=67, velocity=74, time=0),
    Message('note_off', channel=2, note=51, velocity=79, time=1),
    Message('note_on', channel=9, note=51, velocity=113, time=0),
    Message('note_on', channel=7, note=70, velocity=52, time=1),
    Message('note_off', channel=9, note=51, velocity=113, time=0),
    Message('note_off', channel=1, note=27, velocity=116, time=3),
    Message('note_off', channel=2, note=55, velocity=65, time=3),
    Message('note_off', channel=2, note=58, velocity=73, time=4),
    Message('note_off', channel=7, note=70, velocity=52, time=7),
    Message('note_off', channel=7, note=67, velocity=74, time=1),
    Message('note_off', channel=7, note=63, velocity=59, time=1),
    Message('note_on', channel=7, note=70, velocity=72, time=2),
    Message('note_on', channel=7, note=67, velocity=71, time=1),
    Message('note_on', channel=9, note=36, velocity=77, time=0),
    Message('note_on', channel=1, note=27, velocity=41, time=1),
    Message('note_on', channel=7, note=63, velocity=68, time=0),
    Message('note_off', channel=9, note=36, velocity=77, time=0),
    Message('note_off', channel=1, note=27, velocity=41, time=4),
    Message('note_on', channel=2, note=55, velocity=41, time=19),
    Message('note_on', channel=2, note=58, velocity=69, time=0),
    Message('note_on', channel=9, note=51, velocity=122, time=0),
    Message('note_on', channel=1, note=27, velocity=107, time=1),
    Message('note_on', channel=2, note=51, velocity=67, time=0),
    Message('note_on', channel=9, note=40, velocity=127, time=0),
    Message('note_off', channel=9, note=51, velocity=122, time=0),
    Message('note_off', channel=9, note=40, velocity=127, time=1),
    Message('control_change', channel=2, control=64, value=0, time=2),
    Message('note_off', channel=7, note=70, velocity=72, time=14),
    Message('note_off', channel=7, note=67, velocity=71, time=1),
    Message('note_off', channel=7, note=63, velocity=68, time=2),
    Message('note_on', channel=7, note=70, velocity=81, time=1),
    Message('note_on', channel=7, note=67, velocity=71, time=1),
    Message('note_on', channel=7, note=63, velocity=60, time=1),
    Message('control_change', channel=2, control=64, value=127, time=1),
    Message('note_off', channel=7, note=63, velocity=60, time=17),
    Message('note_off', channel=7, note=67, velocity=71, time=0),
    Message('note_off', channel=7, note=70, velocity=81, time=2),
    Message('note_on', channel=7, note=63, velocity=33, time=3),
    Message('note_on', channel=9, note=51, velocity=113, time=1),
    Message('note_on', channel=7, note=67, velocity=64, time=1),
    Message('note_on', channel=7, note=70, velocity=59, time=0),
    Message('note_off', channel=9, note=51, velocity=113, time=0),
    Message('note_on', channel=3, note=67, velocity=86, time=1),
    Message('note_off', channel=2, note=58, velocity=69, time=1),
    Message('note_off', channel=2, note=55, velocity=41, time=2),
    Message('note_off', channel=2, note=51, velocity=67, time=2),
    Message('note_off', channel=7, note=70, velocity=59, time=13),
    Message('note_off', channel=7, note=67, velocity=64, time=0),
    Message('note_off', channel=7, note=63, velocity=33, time=2),
    Message('note_on', channel=7, note=70, velocity=70, time=2),
    Message('note_on', channel=3, note=70, velocity=91, time=1),
    Message('note_on', channel=7, note=67, velocity=69, time=0),
    Message('note_on', channel=9, note=36, velocity=77, time=0),
    Message('note_on', channel=7, note=63, velocity=59, time=1),
    Message('note_off', channel=9, note=36, velocity=77, time=0),
    Message('note_off', channel=1, note=27, velocity=107, time=1),
    Message('note_off', channel=3, note=67, velocity=86, time=4),
    Message('note_off', channel=7, note=63, velocity=59, time=14),
    Message('note_off', channel=7, note=67, velocity=69, time=1),
    Message('note_off', channel=7, note=70, velocity=70, time=0),
    Message('note_on', channel=7, note=51, velocity=67, time=2),
    Message('note_on', channel=7, note=63, velocity=67, time=0),
    Message('note_on', channel=2, note=51, velocity=53, time=1),
    Message('note_on', channel=2, note=58, velocity=55, time=0),
    Message('note_on', channel=2, note=55, velocity=49, time=0),
    Message('note_on', channel=7, note=67, velocity=76, time=0),
    Message('note_on', channel=9, note=51, velocity=127, time=0),
    Message('note_on', channel=9, note=36, velocity=127, time=0),
    Message('note_on', channel=3, note=75, velocity=95, time=1),
    Message('note_on', channel=7, note=70, velocity=64, time=0),
    Message('note_off', channel=9, note=36, velocity=127, time=0),
    Message('note_off', channel=9, note=51, velocity=127, time=0),
    Message('note_on', channel=1, note=27, velocity=91, time=1),
    Message('control_change', channel=2, control=64, value=0, time=1),
    Message('note_off', channel=3, note=70, velocity=91, time=5),
    Message('note_off', channel=7, note=51, velocity=67, time=10),
    Message('control_change', channel=2, control=64, value=127, time=3),
    Message('note_on', channel=3, note=74, velocity=102, time=4),
    Message('note_off', channel=3, note=75, velocity=95, time=3),
    Message('note_off', channel=7, note=67, velocity=76, time=12),
    Message('note_off', channel=7, note=63, velocity=67, time=0),
    Message('note_off', channel=7, note=70, velocity=64, time=3),
    Message('note_on', channel=7, note=63, velocity=33, time=3),
    Message('note_off', channel=3, note=74, velocity=102, time=1),
    Message('note_off', channel=1, note=27, velocity=91, time=1),
    Message('note_on', channel=7, note=67, velocity=64, time=0),
    Message('note_on', channel=7, note=70, velocity=59, time=0),
    Message('note_on', channel=3, note=75, velocity=88, time=1),
    Message('note_on', channel=9, note=51, velocity=119, time=0),
    Message('note_off', channel=9, note=51, velocity=119, time=1),
    Message('note_off', channel=2, note=55, velocity=49, time=7),
    Message('note_off', channel=2, note=58, velocity=55, time=7),
    Message('note_off', channel=7, note=70, velocity=59, time=3),
    Message('note_off', channel=7, note=67, velocity=64, time=0),
    Message('note_off', channel=2, note=51, velocity=53, time=2),
    Message('note_off', channel=7, note=63, velocity=33, time=0),
    Message('note_off', channel=3, note=75, velocity=88, time=1),
    Message('note_on', channel=7, note=70, velocity=72, time=0),
    Message('note_on', channel=7, note=67, velocity=71, time=1),
    Message('note_on', channel=1, note=27, velocity=82, time=1),
    Message('note_on', channel=7, note=63, velocity=68, time=0),
    Message('note_on', channel=3, note=74, velocity=91, time=1),
    Message('note_on', channel=9, note=36, velocity=88, time=0),
    Message('note_off', channel=9, note=36, velocity=88, time=1),
    Message('note_off', channel=1, note=27, velocity=82, time=5),
    Message('note_off', channel=7, note=70, velocity=72, time=10),
    Message('note_off', channel=7, note=67, velocity=71, time=1),
    Message('note_off', channel=7, note=63, velocity=68, time=1),
    Message('note_on', channel=7, note=51, velocity=63, time=4),
    Message('note_on', channel=2, note=55, velocity=64, time=1),
    Message('note_on', channel=2, note=58, velocity=63, time=0),
    Message('note_on', channel=2, note=51, velocity=56, time=0),
    Message('note_on', channel=9, note=51, velocity=127, time=0),
    Message('note_on', channel=1, note=27, velocity=105, time=1),
    Message('note_on', channel=3, note=75, velocity=92, time=0),
    Message('note_on', channel=7, note=63, velocity=69, time=0),
    Message('note_on', channel=9, note=40, velocity=127, time=0),
    Message('note_off', channel=9, note=51, velocity=127, time=0),
    Message('control_change', channel=2, control=64, value=0, time=1),
    Message('note_on', channel=7, note=67, velocity=54, time=0),
    Message('note_off', channel=9, note=40, velocity=127, time=0),
    Message('note_on', channel=7, note=70, velocity=45, time=2),
    Message('note_off', channel=3, note=74, velocity=91, time=1),
    Message('note_off', channel=7, note=63, velocity=69, time=9),
    Message('control_change', channel=2, control=64, value=127, time=2),
    Message('note_off', channel=7, note=70, velocity=45, time=0),
    Message('note_off', channel=7, note=67, velocity=54, time=0),
    Message('note_off', channel=3, note=75, velocity=92, time=6),
    Message('note_on', channel=7, note=70, velocity=84, time=1),
    Message('note_on', channel=7, note=67, velocity=74, time=1),
    Message('note_on', channel=3, note=74, velocity=89, time=1),
    Message('note_on', channel=7, note=63, velocity=70, time=0),
    Message('note_off', channel=7, note=51, velocity=63, time=17),
    Message('note_on', channel=9, note=51, velocity=116, time=7),
    Message('note_off', channel=9, note=51, velocity=116, time=1),
    Message('note_off', channel=2, note=55, velocity=64, time=2),
    Message('note_off', channel=2, note=51, velocity=56, time=2),
    Message('note_off', channel=2, note=58, velocity=63, time=0),
    Message('note_off', channel=7, note=67, velocity=74, time=9),
    Message('note_off', channel=1, note=27, velocity=105, time=2),
    Message('note_off', channel=7, note=63, velocity=70, time=0),
    Message('note_off', channel=7, note=70, velocity=84, time=0),
    Message('note_on', channel=7, note=46, velocity=84, time=6),
    Message('note_on', channel=7, note=62, velocity=80, time=1),
    Message('note_on', channel=9, note=36, velocity=90, time=0),
    Message('note_on', channel=3, note=77, velocity=93, time=1),
    Message('note_on', channel=7, note=65, velocity=67, time=0),
    Message('note_on', channel=7, note=70, velocity=79, time=0),
    Message('note_off', channel=9, note=36, velocity=90, time=0),
    Message('note_off', channel=3, note=74, velocity=89, time=4),
    Message('note_on', channel=2, note=58, velocity=60, time=19),
    Message('note_off', channel=5, note=67, velocity=70, time=0),
    Message('note_on', channel=1, note=34, velocity=85, time=1),
    Message('note_on', channel=2, note=50, velocity=68, time=0),
    Message('note_on', channel=2, note=53, velocity=60, time=0),
    Message('note_on', channel=9, note=36, velocity=127, time=0),
    Message('note_on', channel=9, note=49, velocity=122, time=0),
    Message('note_on', channel=5, note=65, velocity=76, time=1),
    Message('note_off', channel=9, note=49, velocity=122, time=0),
    Message('note_off', channel=9, note=36, velocity=127, time=0),
    Message('control_change', channel=1, control=11, value=126, time=1),
    Message('control_change', channel=2, control=11, value=126, time=0),
    Message('control_change', channel=3, control=11, value=126, time=0),
    Message('control_change', channel=4, control=11, value=126, time=0),
    Message('note_on', channel=5, note=74, velocity=57, time=0),
    Message('control_change', channel=5, control=11, value=126, time=0),
    Message('control_change', channel=6, control=11, value=126, time=0),
    Message('control_change', channel=7, control=11, value=126, time=0),
    Message('control_change', channel=9, control=11, value=126, time=0),
    Message('control_change', channel=2, control=64, value=0, time=1),
    Message('control_change', channel=1, control=11, value=125, time=4),
    Message('control_change', channel=2, control=11, value=125, time=0),
    Message('control_change', channel=3, control=11, value=125, time=0),
    Message('control_change', channel=4, control=11, value=125, time=0),
    Message('note_off', channel=5, note=75, velocity=76, time=0),
    Message('control_change', channel=5, control=11, value=125, time=0),
    Message('control_change', channel=6, control=11, value=125, time=0),
    Message('control_change', channel=7, control=11, value=125, time=0),
    Message('control_change', channel=9, control=11, value=125, time=0),
    Message('control_change', channel=1, control=11, value=124, time=5),
    Message('control_change', channel=2, control=11, value=124, time=0),
    Message('control_change', channel=3, control=11, value=124, time=0),
    Message('control_change', channel=4, control=11, value=124, time=0),
    Message('control_change', channel=5, control=11, value=124, time=0),
    Message('control_change', channel=6, control=11, value=124, time=0),
    Message('control_change', channel=7, control=11, value=124, time=0),
    Message('control_change', channel=9, control=11, value=124, time=0),
    Message('control_change', channel=1, control=11, value=123, time=3),
    Message('control_change', channel=2, control=11, value=123, time=0),
    Message('control_change', channel=3, control=11, value=123, time=0),
    Message('control_change', channel=4, control=11, value=123, time=0),
    Message('control_change', channel=5, control=11, value=123, time=0),
    Message('control_change', channel=6, control=11, value=123, time=0),
    Message('control_change', channel=7, control=11, value=123, time=0),
    Message('control_change', channel=9, control=11, value=123, time=0),
    Message('control_change', channel=1, control=11, value=121, time=3),
    Message('control_change', channel=2, control=11, value=121, time=0),
    Message('control_change', channel=3, control=11, value=121, time=0),
    Message('control_change', channel=4, control=11, value=121, time=0),
    Message('control_change', channel=5, control=11, value=121, time=0),
    Message('control_change', channel=6, control=11, value=121, time=0),
    Message('control_change', channel=7, control=11, value=121, time=0),
    Message('control_change', channel=9, control=11, value=121, time=0),
    Message('note_off', channel=7, note=70, velocity=79, time=1),
    Message('note_off', channel=7, note=65, velocity=67, time=0),
    Message('note_off', channel=7, note=62, velocity=80, time=0),
    Message('note_on', channel=7, note=70, velocity=68, time=2),
    Message('control_change', channel=2, control=64, value=127, time=1),
    Message('note_on', channel=7, note=65, velocity=52, time=0),
    Message('control_change', channel=1, control=11, value=120, time=2),
    Message('control_change', channel=2, control=11, value=120, time=0),
    Message('note_on', channel=3, note=74, velocity=93, time=0),
    Message('control_change', channel=3, control=11, value=120, time=0),
    Message('control_change', channel=4, control=11, value=120, time=0),
    Message('control_change', channel=5, control=11, value=120, time=0),
    Message('control_change', channel=6, control=11, value=120, time=0),
    Message('control_change', channel=7, control=11, value=120, time=0),
    Message('control_change', channel=9, control=11, value=120, time=0),
    Message('control_change', channel=1, control=11, value=118, time=4),
    Message('control_change', channel=2, control=11, value=118, time=0),
    Message('control_change', channel=3, control=11, value=118, time=0),
    Message('control_change', channel=4, control=11, value=118, time=0),
    Message('control_change', channel=5, control=11, value=118, time=0),
    Message('control_change', channel=6, control=11, value=118, time=0),
    Message('control_change', channel=7, control=11, value=118, time=0),
    Message('control_change', channel=9, control=11, value=118, time=0),
    Message('control_change', channel=1, control=11, value=116, time=4),
    Message('control_change', channel=2, control=11, value=116, time=0),
    Message('control_change', channel=3, control=11, value=116, time=0),
    Message('control_change', channel=4, control=11, value=116, time=0),
    Message('control_change', channel=5, control=11, value=116, time=0),
    Message('control_change', channel=6, control=11, value=116, time=0),
    Message('control_change', channel=7, control=11, value=116, time=0),
    Message('control_change', channel=9, control=11, value=116, time=0),
    Message('control_change', channel=1, control=11, value=114, time=5),
    Message('control_change', channel=2, control=11, value=114, time=0),
    Message('control_change', channel=3, control=11, value=114, time=0),
    Message('control_change', channel=4, control=11, value=114, time=0),
    Message('control_change', channel=5, control=11, value=114, time=0),
    Message('control_change', channel=6, control=11, value=114, time=0),
    Message('control_change', channel=7, control=11, value=114, time=0),
    Message('control_change', channel=9, control=11, value=114, time=0),
    Message('note_off', channel=3, note=77, velocity=93, time=1),
    Message('note_off', channel=7, note=65, velocity=52, time=2),
    Message('note_off', channel=7, note=70, velocity=68, time=2),
    Message('note_off', channel=7, note=46, velocity=84, time=1),
    Message('control_change', channel=1, control=11, value=113, time=1),
    Message('note_off', channel=2, note=53, velocity=60, time=0),
    Message('control_change', channel=2, control=11, value=113, time=0),
    Message('control_change', channel=3, control=11, value=113, time=0),
    Message('control_change', channel=4, control=11, value=113, time=0),
    Message('control_change', channel=5, control=11, value=113, time=0),
    Message('control_change', channel=6, control=11, value=113, time=0),
    Message('note_on', channel=7, note=62, velocity=49, time=0),
    Message('control_change', channel=7, control=11, value=113, time=0),
    Message('control_change', channel=9, control=11, value=113, time=0),
    Message('note_off', channel=3, note=74, velocity=93, time=1),
    Message('note_on', channel=7, note=65, velocity=60, time=0),
    Message('control_change', channel=1, control=11, value=112, time=3),
    Message('control_change', channel=2, control=11, value=112, time=0),
    Message('control_change', channel=3, control=11, value=112, time=0),
    Message('note_on', channel=3, note=70, velocity=72, time=0),
    Message('control_change', channel=4, control=11, value=112, time=0),
    Message('control_change', channel=5, control=11, value=112, time=0),
    Message('control_change', channel=6, control=11, value=112, time=0),
    Message('control_change', channel=7, control=11, value=112, time=0),
    Message('note_on', channel=9, note=51, velocity=116, time=0),
    Message('control_change', channel=9, control=11, value=112, time=0),
    Message('note_off', channel=1, note=34, velocity=85, time=1),
    Message('note_off', channel=2, note=58, velocity=60, time=0),
    Message('note_off', channel=9, note=51, velocity=116, time=0),
    Message('control_change', channel=1, control=11, value=110, time=1),
    Message('control_change', channel=2, control=11, value=110, time=0),
    Message('control_change', channel=3, control=11, value=110, time=0),
    Message('control_change', channel=4, control=11, value=110, time=0),
    Message('control_change', channel=5, control=11, value=110, time=0),
    Message('control_change', channel=6, control=11, value=110, time=0),
    Message('control_change', channel=7, control=11, value=110, time=0),
    Message('control_change', channel=9, control=11, value=110, time=0),
    Message('note_off', channel=2, note=50, velocity=68, time=1),
    Message('note_on', channel=7, note=70, velocity=44, time=0),
    Message('control_change', channel=1, control=11, value=109, time=5),
    Message('control_change', channel=2, control=11, value=109, time=0),
    Message('control_change', channel=3, control=11, value=109, time=0),
    Message('control_change', channel=4, control=11, value=109, time=0),
    Message('control_change', channel=5, control=11, value=109, time=0),
    Message('control_change', channel=6, control=11, value=109, time=0),
    Message('control_change', channel=7, control=11, value=109, time=0),
    Message('control_change', channel=9, control=11, value=109, time=0),
    Message('control_change', channel=1, control=11, value=108, time=3),
    Message('control_change', channel=2, control=11, value=108, time=0),
    Message('control_change', channel=3, control=11, value=108, time=0),
    Message('control_change', channel=4, control=11, value=108, time=0),
    Message('control_change', channel=5, control=11, value=108, time=0),
    Message('control_change', channel=6, control=11, value=108, time=0),
    Message('control_change', channel=7, control=11, value=108, time=0),
    Message('control_change', channel=9, control=11, value=108, time=0),
    Message('control_change', channel=1, control=11, value=106, time=4),
    Message('control_change', channel=2, control=11, value=106, time=0),
    Message('control_change', channel=3, control=11, value=106, time=0),
    Message('control_change', channel=4, control=11, value=106, time=0),
    Message('control_change', channel=5, control=11, value=106, time=0),
    Message('control_change', channel=6, control=11, value=106, time=0),
    Message('control_change', channel=7, control=11, value=106, time=0),
    Message('control_change', channel=9, control=11, value=106, time=0),
    Message('note_off', channel=7, note=70, velocity=44, time=4),
    Message('note_off', channel=7, note=65, velocity=60, time=1),
    Message('note_on', channel=7, note=70, velocity=68, time=0),
    Message('control_change', channel=1, control=11, value=104, time=1),
    Message('control_change', channel=2, control=11, value=104, time=0),
    Message('control_change', channel=3, control=11, value=104, time=0),
    Message('control_change', channel=4, control=11, value=104, time=0),
    Message('control_change', channel=5, control=11, value=104, time=0),
    Message('control_change', channel=6, control=11, value=104, time=0),
    Message('note_off', channel=7, note=62, velocity=49, time=0),
    Message('control_change', channel=7, control=11, value=104, time=0),
    Message('control_change', channel=9, control=11, value=104, time=0),
    Message('note_on', channel=1, note=34, velocity=68, time=2),
    Message('note_on', channel=7, note=62, velocity=60, time=0),
    Message('note_on', channel=7, note=65, velocity=67, time=0),
    Message('note_on', channel=9, note=36, velocity=107, time=1),
    Message('note_off', channel=9, note=36, velocity=107, time=1),
    Message('control_change', channel=1, control=11, value=103, time=1),
    Message('control_change', channel=2, control=11, value=103, time=0),
    Message('control_change', channel=3, control=11, value=103, time=0),
    Message('control_change', channel=4, control=11, value=103, time=0),
    Message('control_change', channel=5, control=11, value=103, time=0),
    Message('control_change', channel=6, control=11, value=103, time=0),
    Message('control_change', channel=7, control=11, value=103, time=0),
    Message('control_change', channel=9, control=11, value=103, time=0),
    Message('note_off', channel=1, note=34, velocity=68, time=4),
    Message('control_change', channel=1, control=11, value=101, time=0),
    Message('control_change', channel=2, control=11, value=101, time=0),
    Message('control_change', channel=3, control=11, value=101, time=0),
    Message('control_change', channel=4, control=11, value=101, time=0),
    Message('control_change', channel=5, control=11, value=101, time=0),
    Message('control_change', channel=6, control=11, value=101, time=0),
    Message('control_change', channel=7, control=11, value=101, time=0),
    Message('control_change', channel=9, control=11, value=101, time=0),
    Message('control_change', channel=1, control=11, value=100, time=5),
    Message('control_change', channel=2, control=11, value=100, time=0),
    Message('control_change', channel=3, control=11, value=100, time=0),
    Message('control_change', channel=4, control=11, value=100, time=0),
    Message('control_change', channel=5, control=11, value=100, time=0),
    Message('control_change', channel=6, control=11, value=100, time=0),
    Message('control_change', channel=7, control=11, value=100, time=0),
    Message('control_change', channel=9, control=11, value=100, time=0),
    Message('control_change', channel=1, control=11, value=99, time=2),
    Message('control_change', channel=2, control=11, value=99, time=0),
    Message('control_change', channel=3, control=11, value=99, time=0),
    Message('control_change', channel=4, control=11, value=99, time=0),
    Message('control_change', channel=5, control=11, value=99, time=0),
    Message('control_change', channel=6, control=11, value=99, time=0),
    Message('control_change', channel=7, control=11, value=99, time=0),
    Message('control_change', channel=9, control=11, value=99, time=0),
    Message('control_change', channel=1, control=11, value=95, time=5),
    Message('control_change', channel=2, control=11, value=95, time=0),
    Message('control_change', channel=3, control=11, value=95, time=0),
    Message('control_change', channel=4, control=11, value=95, time=0),
    Message('control_change', channel=5, control=11, value=95, time=0),
    Message('control_change', channel=6, control=11, value=95, time=0),
    Message('control_change', channel=7, control=11, value=95, time=0),
    Message('control_change', channel=9, control=11, value=95, time=0),
    Message('control_change', channel=1, control=11, value=93, time=5),
    Message('note_on', channel=2, note=58, velocity=67, time=0),
    Message('control_change', channel=2, control=11, value=93, time=0),
    Message('control_change', channel=3, control=11, value=93, time=0),
    Message('control_change', channel=4, control=11, value=93, time=0),
    Message('control_change', channel=5, control=11, value=93, time=0),
    Message('control_change', channel=6, control=11, value=93, time=0),
    Message('control_change', channel=7, control=11, value=93, time=0),
    Message('control_change', channel=9, control=11, value=93, time=0),
    Message('note_on', channel=1, note=34, velocity=100, time=1),
    Message('note_on', channel=2, note=50, velocity=58, time=0),
    Message('note_on', channel=2, note=53, velocity=50, time=0),
    Message('note_on', channel=9, note=40, velocity=127, time=0),
    Message('note_on', channel=9, note=51, velocity=119, time=0),
    Message('note_off', channel=9, note=51, velocity=119, time=1),
    Message('note_off', channel=9, note=40, velocity=127, time=0),
    Message('control_change', channel=1, control=11, value=91, time=4),
    Message('control_change', channel=2, control=11, value=91, time=0),
    Message('control_change', channel=3, control=11, value=91, time=0),
    Message('control_change', channel=4, control=11, value=91, time=0),
    Message('control_change', channel=5, control=11, value=91, time=0),
    Message('control_change', channel=6, control=11, value=91, time=0),
    Message('control_change', channel=7, control=11, value=91, time=0),
    Message('control_change', channel=9, control=11, value=91, time=0),
    Message('control_change', channel=1, control=11, value=89, time=3),
    Message('control_change', channel=2, control=11, value=89, time=0),
    Message('control_change', channel=3, control=11, value=89, time=0),
    Message('control_change', channel=4, control=11, value=89, time=0),
    Message('control_change', channel=5, control=11, value=89, time=0),
    Message('control_change', channel=6, control=11, value=89, time=0),
    Message('control_change', channel=7, control=11, value=89, time=0),
    Message('control_change', channel=9, control=11, value=89, time=0),
    Message('control_change', channel=1, control=11, value=87, time=4),
    Message('control_change', channel=2, control=11, value=87, time=0),
    Message('control_change', channel=2, control=64, value=0, time=0),
    Message('control_change', channel=3, control=11, value=87, time=0),
    Message('control_change', channel=4, control=11, value=87, time=0),
    Message('control_change', channel=5, control=11, value=87, time=0),
    Message('control_change', channel=6, control=11, value=87, time=0),
    Message('control_change', channel=7, control=11, value=87, time=0),
    Message('control_change', channel=9, control=11, value=87, time=0),
    Message('control_change', channel=1, control=11, value=84, time=4),
    Message('control_change', channel=2, control=11, value=84, time=0),
    Message('control_change', channel=3, control=11, value=84, time=0),
    Message('control_change', channel=4, control=11, value=84, time=0),
    Message('control_change', channel=5, control=11, value=84, time=0),
    Message('control_change', channel=6, control=11, value=84, time=0),
    Message('control_change', channel=7, control=11, value=84, time=0),
    Message('control_change', channel=9, control=11, value=84, time=0),
    Message('note_off', channel=7, note=70, velocity=68, time=2),
    Message('note_off', channel=7, note=65, velocity=67, time=2),
    Message('note_off', channel=7, note=62, velocity=60, time=0),
    Message('control_change', channel=1, control=11, value=82, time=2),
    Message('control_change', channel=2, control=11, value=82, time=0),
    Message('control_change', channel=3, control=11, value=82, time=0),
    Message('control_change', channel=4, control=11, value=82, time=0),
    Message('control_change', channel=5, control=11, value=82, time=0),
    Message('control_change', channel=6, control=11, value=82, time=0),
    Message('control_change', channel=7, control=11, value=82, time=0),
    Message('note_on', channel=7, note=70, velocity=56, time=0),
    Message('control_change', channel=9, control=11, value=82, time=0),
    Message('note_on', channel=7, note=65, velocity=62, time=1),
    Message('note_on', channel=7, note=62, velocity=54, time=1),
    Message('control_change', channel=1, control=11, value=80, time=2),
    Message('control_change', channel=2, control=11, value=80, time=0),
    Message('control_change', channel=3, control=11, value=80, time=0),
    Message('control_change', channel=4, control=11, value=80, time=0),
    Message('control_change', channel=5, control=11, value=80, time=0),
    Message('control_change', channel=6, control=11, value=80, time=0),
    Message('control_change', channel=7, control=11, value=80, time=0),
    Message('control_change', channel=9, control=11, value=80, time=0),
    Message('control_change', channel=1, control=11, value=78, time=4),
    Message('control_change', channel=2, control=11, value=78, time=0),
    Message('control_change', channel=3, control=11, value=78, time=0),
    Message('control_change', channel=4, control=11, value=78, time=0),
    Message('control_change', channel=5, control=11, value=78, time=0),
    Message('control_change', channel=6, control=11, value=78, time=0),
    Message('control_change', channel=7, control=11, value=78, time=0),
    Message('control_change', channel=9, control=11, value=78, time=0),
    Message('control_change', channel=2, control=64, value=127, time=1),
    Message('control_change', channel=1, control=11, value=75, time=3),
    Message('control_change', channel=2, control=11, value=75, time=0),
    Message('control_change', channel=3, control=11, value=75, time=0),
    Message('control_change', channel=4, control=11, value=75, time=0),
    Message('control_change', channel=5, control=11, value=75, time=0),
    Message('control_change', channel=6, control=11, value=75, time=0),
    Message('control_change', channel=7, control=11, value=75, time=0),
    Message('control_change', channel=9, control=11, value=75, time=0),
    Message('control_change', channel=1, control=11, value=73, time=6),
    Message('note_off', channel=2, note=50, velocity=58, time=0),
    Message('control_change', channel=2, control=11, value=73, time=0),
    Message('control_change', channel=3, control=11, value=73, time=0),
    Message('control_change', channel=4, control=11, value=73, time=0),
    Message('control_change', channel=5, control=11, value=73, time=0),
    Message('control_change', channel=6, control=11, value=73, time=0),
    Message('control_change', channel=7, control=11, value=73, time=0),
    Message('control_change', channel=9, control=11, value=73, time=0),
    Message('note_off', channel=7, note=62, velocity=54, time=2),
    Message('note_off', channel=7, note=65, velocity=62, time=1),
    Message('note_off', channel=7, note=70, velocity=56, time=1),
    Message('note_on', channel=7, note=62, velocity=51, time=0),
    Message('control_change', channel=1, control=11, value=71, time=1),
    Message('control_change', channel=2, control=11, value=71, time=0),
    Message('control_change', channel=3, control=11, value=71, time=0),
    Message('control_change', channel=4, control=11, value=71, time=0),
    Message('control_change', channel=5, control=11, value=71, time=0),
    Message('control_change', channel=6, control=11, value=71, time=0),
    Message('control_change', channel=7, control=11, value=71, time=0),
    Message('note_on', channel=7, note=65, velocity=59, time=0),
    Message('control_change', channel=9, control=11, value=71, time=0),
    Message('note_on', channel=7, note=70, velocity=52, time=1),
    Message('note_on', channel=9, note=51, velocity=122, time=1),
    Message('note_off', channel=2, note=53, velocity=50, time=1),
    Message('note_off', channel=9, note=51, velocity=122, time=0),
    Message('control_change', channel=1, control=11, value=69, time=1),
    Message('control_change', channel=2, control=11, value=69, time=0),
    Message('control_change', channel=3, control=11, value=69, time=0),
    Message('control_change', channel=4, control=11, value=69, time=0),
    Message('control_change', channel=5, control=11, value=69, time=0),
    Message('control_change', channel=6, control=11, value=69, time=0),
    Message('control_change', channel=7, control=11, value=69, time=0),
    Message('control_change', channel=9, control=11, value=69, time=0),
    Message('control_change', channel=1, control=11, value=67, time=4),
    Message('control_change', channel=2, control=11, value=67, time=0),
    Message('control_change', channel=3, control=11, value=67, time=0),
    Message('control_change', channel=4, control=11, value=67, time=0),
    Message('control_change', channel=5, control=11, value=67, time=0),
    Message('control_change', channel=6, control=11, value=67, time=0),
    Message('control_change', channel=7, control=11, value=67, time=0),
    Message('control_change', channel=9, control=11, value=67, time=0),
    Message('control_change', channel=1, control=11, value=65, time=5),
    Message('control_change', channel=2, control=11, value=65, time=0),
    Message('control_change', channel=3, control=11, value=65, time=0),
    Message('control_change', channel=4, control=11, value=65, time=0),
    Message('control_change', channel=5, control=11, value=65, time=0),
    Message('control_change', channel=6, control=11, value=65, time=0),
    Message('control_change', channel=7, control=11, value=65, time=0),
    Message('control_change', channel=9, control=11, value=65, time=0),
    Message('control_change', channel=1, control=11, value=62, time=3),
    Message('control_change', channel=2, control=11, value=62, time=0),
    Message('control_change', channel=3, control=11, value=62, time=0),
    Message('control_change', channel=4, control=11, value=62, time=0),
    Message('control_change', channel=5, control=11, value=62, time=0),
    Message('control_change', channel=6, control=11, value=62, time=0),
    Message('control_change', channel=7, control=11, value=62, time=0),
    Message('control_change', channel=9, control=11, value=62, time=0),
    Message('note_off', channel=1, note=34, velocity=100, time=5),
    Message('control_change', channel=1, control=11, value=60, time=0),
    Message('control_change', channel=2, control=11, value=60, time=0),
    Message('control_change', channel=3, control=11, value=60, time=0),
    Message('control_change', channel=4, control=11, value=60, time=0),
    Message('control_change', channel=5, control=11, value=60, time=0),
    Message('control_change', channel=6, control=11, value=60, time=0),
    Message('control_change', channel=7, control=11, value=60, time=0),
    Message('control_change', channel=9, control=11, value=60, time=0),
    Message('note_off', channel=7, note=70, velocity=52, time=2),
    Message('note_off', channel=7, note=65, velocity=59, time=1),
    Message('note_on', channel=7, note=70, velocity=78, time=0),
    Message('note_off', channel=7, note=62, velocity=51, time=1),
    Message('note_on', channel=7, note=65, velocity=64, time=0),
    Message('note_on', channel=9, note=36, velocity=127, time=0),
    Message('control_change', channel=1, control=11, value=58, time=1),
    Message('control_change', channel=2, control=11, value=58, time=0),
    Message('control_change', channel=3, control=11, value=58, time=0),
    Message('control_change', channel=4, control=11, value=58, time=0),
    Message('control_change', channel=5, control=11, value=58, time=0),
    Message('control_change', channel=6, control=11, value=58, time=0),
    Message('control_change', channel=7, control=11, value=58, time=0),
    Message('note_on', channel=7, note=62, velocity=59, time=0),
    Message('control_change', channel=9, control=11, value=58, time=0),
    Message('note_off', channel=9, note=36, velocity=127, time=0),
    Message('control_change', channel=1, control=11, value=55, time=4),
    Message('control_change', channel=2, control=11, value=55, time=0),
    Message('control_change', channel=3, control=11, value=55, time=0),
    Message('control_change', channel=4, control=11, value=55, time=0),
    Message('control_change', channel=5, control=11, value=55, time=0),
    Message('control_change', channel=6, control=11, value=55, time=0),
    Message('control_change', channel=7, control=11, value=55, time=0),
    Message('control_change', channel=9, control=11, value=55, time=0),
    Message('control_change', channel=1, control=11, value=52, time=5),
    Message('control_change', channel=2, control=11, value=52, time=0),
    Message('note_off', channel=3, note=70, velocity=72, time=0),
    Message('control_change', channel=3, control=11, value=52, time=0),
    Message('control_change', channel=4, control=11, value=52, time=0),
    Message('control_change', channel=5, control=11, value=52, time=0),
    Message('control_change', channel=6, control=11, value=52, time=0),
    Message('control_change', channel=7, control=11, value=52, time=0),
    Message('control_change', channel=9, control=11, value=52, time=0),
    Message('note_off', channel=7, note=62, velocity=59, time=5),
    Message('note_off', channel=7, note=70, velocity=78, time=0),
    Message('control_change', channel=1, control=11, value=51, time=1),
    Message('control_change', channel=2, control=11, value=51, time=0),
    Message('control_change', channel=3, control=11, value=51, time=0),
    Message('control_change', channel=4, control=11, value=51, time=0),
    Message('control_change', channel=5, control=11, value=51, time=0),
    Message('control_change', channel=6, control=11, value=51, time=0),
    Message('note_off', channel=7, note=65, velocity=64, time=0),
    Message('control_change', channel=7, control=11, value=51, time=0),
    Message('control_change', channel=9, control=11, value=51, time=0),
    Message('control_change', channel=2, control=64, value=0, time=2),
    Message('control_change', channel=1, control=11, value=48, time=1),
    Message('control_change', channel=2, control=11, value=48, time=0),
    Message('control_change', channel=3, control=11, value=48, time=0),
    Message('control_change', channel=4, control=11, value=48, time=0),
    Message('control_change', channel=5, control=11, value=48, time=0),
    Message('control_change', channel=6, control=11, value=48, time=0),
    Message('control_change', channel=7, control=11, value=48, time=0),
    Message('control_change', channel=9, control=11, value=48, time=0),
    Message('control_change', channel=1, control=11, value=46, time=5),
    Message('note_on', channel=1, note=34, velocity=100, time=0),
    Message('control_change', channel=2, control=11, value=46, time=0),
    Message('control_change', channel=3, control=11, value=46, time=0),
    Message('control_change', channel=4, control=11, value=46, time=0),
    Message('control_change', channel=5, control=11, value=46, time=0),
    Message('control_change', channel=6, control=11, value=46, time=0),
    Message('control_change', channel=7, control=11, value=46, time=0),
    Message('note_on', channel=7, note=46, velocity=67, time=0),
    Message('control_change', channel=9, control=11, value=46, time=0),
    Message('note_on', channel=9, note=51, velocity=122, time=0),
    Message('note_on', channel=7, note=62, velocity=67, time=1),
    Message('note_on', channel=9, note=36, velocity=127, time=0),
    Message('note_off', channel=9, note=51, velocity=122, time=0),
    Message('note_on', channel=2, note=46, velocity=68, time=1),
    Message('note_on', channel=7, note=65, velocity=76, time=0),
    Message('note_off', channel=9, note=36, velocity=127, time=0),
    Message('note_on', channel=7, note=70, velocity=80, time=1),
    Message('control_change', channel=1, control=11, value=44, time=1),
    Message('control_change', channel=2, control=11, value=44, time=0),
    Message('control_change', channel=3, control=11, value=44, time=0),
    Message('control_change', channel=4, control=11, value=44, time=0),
    Message('control_change', channel=5, control=11, value=44, time=0),
    Message('control_change', channel=6, control=11, value=44, time=0),
    Message('control_change', channel=7, control=11, value=44, time=0),
    Message('control_change', channel=9, control=11, value=44, time=0),
    Message('control_change', channel=1, control=11, value=42, time=4),
    Message('control_change', channel=2, control=11, value=42, time=0),
    Message('control_change', channel=3, control=11, value=42, time=0),
    Message('control_change', channel=4, control=11, value=42, time=0),
    Message('control_change', channel=5, control=11, value=42, time=0),
    Message('control_change', channel=6, control=11, value=42, time=0),
    Message('control_change', channel=7, control=11, value=42, time=0),
    Message('control_change', channel=9, control=11, value=42, time=0),
    Message('control_change', channel=1, control=11, value=41, time=6),
    Message('control_change', channel=2, control=11, value=41, time=0),
    Message('control_change', channel=3, control=11, value=41, time=0),
    Message('control_change', channel=4, control=11, value=41, time=0),
    Message('control_change', channel=5, control=11, value=41, time=0),
    Message('control_change', channel=6, control=11, value=41, time=0),
    Message('control_change', channel=7, control=11, value=41, time=0),
    Message('control_change', channel=9, control=11, value=41, time=0),
    Message('control_change', channel=1, control=11, value=39, time=3),
    Message('control_change', channel=2, control=11, value=39, time=0),
    Message('control_change', channel=3, control=11, value=39, time=0),
    Message('control_change', channel=4, control=11, value=39, time=0),
    Message('control_change', channel=5, control=11, value=39, time=0),
    Message('control_change', channel=6, control=11, value=39, time=0),
    Message('control_change', channel=7, control=11, value=39, time=0),
    Message('control_change', channel=9, control=11, value=39, time=0),
    Message('note_off', channel=7, note=65, velocity=76, time=1),
    Message('note_off', channel=7, note=62, velocity=67, time=0),
    Message('note_off', channel=2, note=46, velocity=68, time=1),
    Message('control_change', channel=1, control=11, value=36, time=2),
    Message('control_change', channel=2, control=11, value=36, time=0),
    Message('control_change', channel=3, control=11, value=36, time=0),
    Message('control_change', channel=4, control=11, value=36, time=0),
    Message('control_change', channel=5, control=11, value=36, time=0),
    Message('control_change', channel=6, control=11, value=36, time=0),
    Message('note_off', channel=7, note=70, velocity=80, time=0),
    Message('control_change', channel=7, control=11, value=36, time=0),
    Message('control_change', channel=9, control=11, value=36, time=0),
    Message('control_change', channel=2, control=64, value=127, time=1),
    Message('note_on', channel=7, note=70, velocity=92, time=2),
    Message('note_on', channel=9, note=40, velocity=127, time=0),
    Message('note_on', channel=7, note=65, velocity=81, time=1),
    Message('note_off', channel=9, note=40, velocity=127, time=0),
    Message('note_on', channel=1, note=38, velocity=85, time=1),
    Message('note_on', channel=2, note=50, velocity=64, time=0),
    Message('note_on', channel=7, note=62, velocity=71, time=0),
    Message('control_change', channel=1, control=11, value=33, time=1),
    Message('control_change', channel=2, control=11, value=33, time=0),
    Message('control_change', channel=3, control=11, value=33, time=0),
    Message('control_change', channel=4, control=11, value=33, time=0),
    Message('control_change', channel=5, control=11, value=33, time=0),
    Message('control_change', channel=6, control=11, value=33, time=0),
    Message('control_change', channel=7, control=11, value=33, time=0),
    Message('control_change', channel=9, control=11, value=33, time=0),
    Message('note_off', channel=1, note=34, velocity=100, time=5),
    Message('control_change', channel=1, control=11, value=31, time=0),
    Message('control_change', channel=2, control=11, value=31, time=0),
    Message('control_change', channel=3, control=11, value=31, time=0),
    Message('control_change', channel=4, control=11, value=31, time=0),
    Message('control_change', channel=5, control=11, value=31, time=0),
    Message('control_change', channel=6, control=11, value=31, time=0),
    Message('control_change', channel=7, control=11, value=31, time=0),
    Message('control_change', channel=9, control=11, value=31, time=0),
    Message('control_change', channel=2, control=64, value=0, time=3),
    Message('control_change', channel=1, control=11, value=29, time=1),
    Message('control_change', channel=2, control=11, value=29, time=0),
    Message('control_change', channel=3, control=11, value=29, time=0),
    Message('control_change', channel=4, control=11, value=29, time=0),
    Message('control_change', channel=5, control=11, value=29, time=0),
    Message('control_change', channel=6, control=11, value=29, time=0),
    Message('control_change', channel=7, control=11, value=29, time=0),
    Message('control_change', channel=9, control=11, value=29, time=0),
    Message('control_change', channel=1, control=11, value=27, time=4),
    Message('control_change', channel=2, control=11, value=27, time=0),
    Message('control_change', channel=3, control=11, value=27, time=0),
    Message('control_change', channel=4, control=11, value=27, time=0),
    Message('control_change', channel=5, control=11, value=27, time=0),
    Message('control_change', channel=6, control=11, value=27, time=0),
    Message('control_change', channel=7, control=11, value=27, time=0),
    Message('control_change', channel=9, control=11, value=27, time=0),
    Message('control_change', channel=1, control=11, value=25, time=5),
    Message('control_change', channel=2, control=11, value=25, time=0),
    Message('control_change', channel=3, control=11, value=25, time=0),
    Message('control_change', channel=4, control=11, value=25, time=0),
    Message('control_change', channel=5, control=11, value=25, time=0),
    Message('control_change', channel=6, control=11, value=25, time=0),
    Message('control_change', channel=7, control=11, value=25, time=0),
    Message('control_change', channel=9, control=11, value=25, time=0),
    Message('control_change', channel=1, control=11, value=23, time=3),
    Message('control_change', channel=2, control=11, value=23, time=0),
    Message('control_change', channel=3, control=11, value=23, time=0),
    Message('control_change', channel=4, control=11, value=23, time=0),
    Message('control_change', channel=5, control=11, value=23, time=0),
    Message('control_change', channel=6, control=11, value=23, time=0),
    Message('control_change', channel=7, control=11, value=23, time=0),
    Message('control_change', channel=9, control=11, value=23, time=0),
    Message('note_on', channel=9, note=51, velocity=127, time=2),
    Message('note_off', channel=9, note=51, velocity=127, time=1),
    Message('control_change', channel=1, control=11, value=21, time=3),
    Message('control_change', channel=2, control=11, value=21, time=0),
    Message('control_change', channel=3, control=11, value=21, time=0),
    Message('control_change', channel=4, control=11, value=21, time=0),
    Message('control_change', channel=5, control=11, value=21, time=0),
    Message('control_change', channel=6, control=11, value=21, time=0),
    Message('control_change', channel=7, control=11, value=21, time=0),
    Message('control_change', channel=9, control=11, value=21, time=0),
    Message('control_change', channel=1, control=11, value=20, time=6),
    Message('control_change', channel=2, control=11, value=20, time=0),
    Message('control_change', channel=3, control=11, value=20, time=0),
    Message('control_change', channel=4, control=11, value=20, time=0),
    Message('control_change', channel=5, control=11, value=20, time=0),
    Message('control_change', channel=6, control=11, value=20, time=0),
    Message('control_change', channel=7, control=11, value=20, time=0),
    Message('control_change', channel=9, control=11, value=20, time=0),
    Message('note_off', channel=1, note=38, velocity=85, time=3),
    Message('control_change', channel=1, control=11, value=18, time=0),
    Message('control_change', channel=2, control=11, value=18, time=0),
    Message('control_change', channel=3, control=11, value=18, time=0),
    Message('control_change', channel=4, control=11, value=18, time=0),
    Message('control_change', channel=5, control=11, value=18, time=0),
    Message('control_change', channel=6, control=11, value=18, time=0),
    Message('control_change', channel=7, control=11, value=18, time=0),
    Message('control_change', channel=9, control=11, value=18, time=0),
    Message('control_change', channel=1, control=11, value=17, time=6),
    Message('control_change', channel=2, control=11, value=17, time=0),
    Message('control_change', channel=3, control=11, value=17, time=0),
    Message('control_change', channel=4, control=11, value=17, time=0),
    Message('control_change', channel=5, control=11, value=17, time=0),
    Message('control_change', channel=6, control=11, value=17, time=0),
    Message('note_off', channel=7, note=62, velocity=71, time=0),
    Message('control_change', channel=7, control=11, value=17, time=0),
    Message('control_change', channel=9, control=11, value=17, time=0),
    Message('note_off', channel=7, note=65, velocity=81, time=1),
    Message('note_off', channel=7, note=70, velocity=92, time=0),
    Message('note_off', channel=7, note=46, velocity=67, time=0),
    Message('note_off', channel=2, note=50, velocity=64, time=1),
    Message('note_on', channel=7, note=70, velocity=94, time=0),
    Message('note_on', channel=7, note=65, velocity=82, time=1),
    Message('note_on', channel=9, note=36, velocity=127, time=0),
    Message('control_change', channel=1, control=11, value=16, time=1),
    Message('note_on', channel=1, note=39, velocity=87, time=0),
    Message('control_change', channel=2, control=11, value=16, time=0),
    Message('control_change', channel=3, control=11, value=16, time=0),
    Message('control_change', channel=4, control=11, value=16, time=0),
    Message('control_change', channel=5, control=11, value=16, time=0),
    Message('control_change', channel=6, control=11, value=16, time=0),
    Message('control_change', channel=7, control=11, value=16, time=0),
    Message('note_on', channel=7, note=63, velocity=84, time=0),
    Message('control_change', channel=9, control=11, value=16, time=0),
    Message('note_off', channel=9, note=36, velocity=127, time=0),
    Message('note_on', channel=2, note=51, velocity=71, time=1),
    Message('control_change', channel=1, control=11, value=14, time=2),
    Message('control_change', channel=2, control=11, value=14, time=0),
    Message('control_change', channel=3, control=11, value=14, time=0),
    Message('control_change', channel=4, control=11, value=14, time=0),
    Message('control_change', channel=5, control=11, value=14, time=0),
    Message('control_change', channel=6, control=11, value=14, time=0),
    Message('control_change', channel=7, control=11, value=14, time=0),
    Message('control_change', channel=9, control=11, value=14, time=0),
    Message('note_off', channel=2, note=58, velocity=67, time=2),
    Message('control_change', channel=1, control=11, value=12, time=2),
    Message('control_change', channel=2, control=11, value=12, time=0),
    Message('control_change', channel=3, control=11, value=12, time=0),
    Message('control_change', channel=4, control=11, value=12, time=0),
    Message('control_change', channel=5, control=11, value=12, time=0),
    Message('control_change', channel=6, control=11, value=12, time=0),
    Message('control_change', channel=7, control=11, value=12, time=0),
    Message('control_change', channel=9, control=11, value=12, time=0),
    Message('control_change', channel=1, control=11, value=10, time=5),
    Message('control_change', channel=2, control=11, value=10, time=0),
    Message('control_change', channel=3, control=11, value=10, time=0),
    Message('control_change', channel=4, control=11, value=10, time=0),
    Message('control_change', channel=5, control=11, value=10, time=0),
    Message('control_change', channel=6, control=11, value=10, time=0),
    Message('control_change', channel=7, control=11, value=10, time=0),
    Message('control_change', channel=9, control=11, value=10, time=0),
    Message('control_change', channel=1, control=11, value=8, time=4),
    Message('control_change', channel=2, control=11, value=8, time=0),
    Message('control_change', channel=3, control=11, value=8, time=0),
    Message('control_change', channel=4, control=11, value=8, time=0),
    Message('control_change', channel=5, control=11, value=8, time=0),
    Message('control_change', channel=6, control=11, value=8, time=0),
    Message('control_change', channel=7, control=11, value=8, time=0),
    Message('control_change', channel=9, control=11, value=8, time=0),
    Message('control_change', channel=1, control=11, value=5, time=4),
    Message('control_change', channel=2, control=11, value=5, time=0),
    Message('control_change', channel=3, control=11, value=5, time=0),
    Message('control_change', channel=4, control=11, value=5, time=0),
    Message('control_change', channel=5, control=11, value=5, time=0),
    Message('control_change', channel=6, control=11, value=5, time=0),
    Message('control_change', channel=7, control=11, value=5, time=0),
    Message('control_change', channel=9, control=11, value=5, time=0),
    Message('note_on', channel=9, note=51, velocity=127, time=4),
    Message('note_on', channel=9, note=40, velocity=127, time=0),
    Message('control_change', channel=1, control=11, value=1, time=1),
    Message('control_change', channel=2, control=11, value=1, time=0),
    Message('control_change', channel=3, control=11, value=1, time=0),
    Message('control_change', channel=4, control=11, value=1, time=0),
    Message('control_change', channel=5, control=11, value=1, time=0),
    Message('control_change', channel=6, control=11, value=1, time=0),
    Message('control_change', channel=7, control=11, value=1, time=0),
    Message('control_change', channel=9, control=11, value=1, time=0),
    Message('note_off', channel=9, note=40, velocity=127, time=0),
    Message('note_off', channel=9, note=51, velocity=127, time=0),
    Message('note_off', channel=7, note=70, velocity=94, time=13),
    Message('note_off', channel=2, note=51, velocity=71, time=2),
    Message('note_off', channel=7, note=65, velocity=82, time=1),
    Message('note_off', channel=1, note=39, velocity=87, time=2),
    Message('note_off', channel=7, note=63, velocity=84, time=1),
    Message('note_on', channel=7, note=70, velocity=78, time=3),
    Message('note_on', channel=7, note=65, velocity=83, time=1),
    Message('note_on', channel=9, note=36, velocity=84, time=0),
    Message('note_on', channel=1, note=40, velocity=72, time=1),
    Message('note_on', channel=2, note=52, velocity=76, time=0),
    Message('note_on', channel=7, note=62, velocity=83, time=0),
    Message('note_off', channel=9, note=36, velocity=84, time=0),
    Message('note_on', channel=9, note=51, velocity=116, time=24),
    Message('note_on', channel=9, note=40, velocity=127, time=0),
    Message('note_off', channel=9, note=40, velocity=127, time=1),
    Message('note_off', channel=9, note=51, velocity=116, time=0),
    Message('note_off', channel=1, note=40, velocity=72, time=15),
    Message('note_off', channel=2, note=52, velocity=76, time=0),
    Message('note_off', channel=7, note=65, velocity=83, time=0),
    Message('note_off', channel=7, note=70, velocity=78, time=1),
    Message('note_off', channel=7, note=62, velocity=83, time=1),
    Message('note_on', channel=7, note=70, velocity=80, time=4),
    Message('note_on', channel=1, note=41, velocity=66, time=1),
    Message('note_on', channel=7, note=65, velocity=85, time=0),
    Message('note_on', channel=2, note=53, velocity=69, time=1),
    Message('note_on', channel=7, note=62, velocity=76, time=0),
    Message('note_on', channel=9, note=36, velocity=127, time=0),
    Message('note_off', channel=9, note=36, velocity=127, time=1),
    Message('note_off', channel=5, note=74, velocity=57, time=12),
    Message('note_off', channel=5, note=65, velocity=76, time=1),
    Message('note_off', channel=1, note=41, velocity=66, time=3),
    Message('note_off', channel=7, note=62, velocity=76, time=1),
    Message('note_off', channel=7, note=65, velocity=85, time=1),
    Message('note_off', channel=4, note=58, velocity=70, time=1),
    Message('note_off', channel=7, note=70, velocity=80, time=0),
    Message('note_off', channel=2, note=53, velocity=69, time=4),
    MetaMessage('end_of_track', time=384)])
])
